<?xml version="1.0"?>
<!-- Generated by SVGo and Plotinum VG -->
<svg width="10in" height="6in"
	xmlns="http://www.w3.org/2000/svg"
	xmlns:xlink="http://www.w3.org/1999/xlink">
<g transform="scale(1, -1) translate(0, -540)">
<path d="M0,0L900,0L900,540L0,540Z" style="fill:#FFFFFF" />
<text x="448.12" y="-525.56" transform="scale(1, -1)"
	style="font-family:Times;font-weight:normal;font-style:normal;font-size:12pt"> </text>
<text x="468.74" y="-4.8267" transform="scale(1, -1)"
	style="font-family:Times;font-weight:normal;font-style:normal;font-size:12pt">Costs</text>
<text x="67.708" y="-19.502" transform="scale(1, -1)"
	style="font-family:Times;font-weight:normal;font-style:normal;font-size:10pt">0</text>
<text x="463.81" y="-19.502" transform="scale(1, -1)"
	style="font-family:Times;font-weight:normal;font-style:normal;font-size:10pt">3</text>
<text x="859.91" y="-19.502" transform="scale(1, -1)"
	style="font-family:Times;font-weight:normal;font-style:normal;font-size:10pt">6</text>
<path d="M70.833,31.538L70.833,41.538" style="fill:none;stroke:#000000;stroke-width:0.625" />
<path d="M466.93,31.538L466.93,41.538" style="fill:none;stroke:#000000;stroke-width:0.625" />
<path d="M863.03,31.538L863.03,41.538" style="fill:none;stroke:#000000;stroke-width:0.625" />
<path d="M202.87,36.538L202.87,41.538" style="fill:none;stroke:#000000;stroke-width:0.625" />
<path d="M334.9,36.538L334.9,41.538" style="fill:none;stroke:#000000;stroke-width:0.625" />
<path d="M598.96,36.538L598.96,41.538" style="fill:none;stroke:#000000;stroke-width:0.625" />
<path d="M731,36.538L731,41.538" style="fill:none;stroke:#000000;stroke-width:0.625" />
<path d="M70.833,41.538L900,41.538" style="fill:none;stroke:#000000;stroke-width:0.625" />
<g transform="rotate(90)">
<text x="263.16" y="14.443" transform="scale(1, -1)"
	style="font-family:Times;font-weight:normal;font-style:normal;font-size:12pt">Counts</text>
</g>
<text x="19.27" y="-147.82" transform="scale(1, -1)"
	style="font-family:Times;font-weight:normal;font-style:normal;font-size:10pt">20000</text>
<text x="19.27" y="-253.44" transform="scale(1, -1)"
	style="font-family:Times;font-weight:normal;font-style:normal;font-size:10pt">40000</text>
<text x="19.27" y="-359.06" transform="scale(1, -1)"
	style="font-family:Times;font-weight:normal;font-style:normal;font-size:10pt">60000</text>
<text x="19.27" y="-464.69" transform="scale(1, -1)"
	style="font-family:Times;font-weight:normal;font-style:normal;font-size:10pt">80000</text>
<path d="M53.645,153.72L63.645,153.72" style="fill:none;stroke:#000000;stroke-width:0.625" />
<path d="M53.645,259.34L63.645,259.34" style="fill:none;stroke:#000000;stroke-width:0.625" />
<path d="M53.645,364.97L63.645,364.97" style="fill:none;stroke:#000000;stroke-width:0.625" />
<path d="M53.645,470.59L63.645,470.59" style="fill:none;stroke:#000000;stroke-width:0.625" />
<path d="M58.645,100.91L63.645,100.91" style="fill:none;stroke:#000000;stroke-width:0.625" />
<path d="M58.645,206.53L63.645,206.53" style="fill:none;stroke:#000000;stroke-width:0.625" />
<path d="M58.645,312.15L63.645,312.15" style="fill:none;stroke:#000000;stroke-width:0.625" />
<path d="M58.645,417.78L63.645,417.78" style="fill:none;stroke:#000000;stroke-width:0.625" />
<path d="M63.645,48.101L63.645,520.73" style="fill:none;stroke:#000000;stroke-width:0.625" />
<path d="M70.833,520.73L119.68,173.6L122.33,68.454L124.97,156.81L126.29,172.96L130.25,85.824L131.57,57.079L135.53,68.766L136.85,148.95L140.81,145.97L142.13,111L144.77,98.119L146.09,88.37L147.41,58.124L148.73,67.171L150.05,79.45L151.37,106.33L152.69,78.404L154.01,120.59L159.29,77.67L164.58,89.949L168.54,69.495L171.18,54.058L172.5,57.395L173.82,75.705L175.14,78.145L176.46,62.196L177.78,141.4L179.1,54.042L179.1,58.7L180.42,75.679L180.42,50.519L181.74,49.854L183.06,48.454L184.38,62.597L185.7,85.713L187.02,51.354L188.34,52.373L189.66,52.669L189.66,72.114L190.98,76.033L190.98,65.222L192.3,73.957L192.3,52.014L193.62,64.192L194.94,83.21L196.26,96.281L196.26,49.78L197.58,73.625L198.9,67.108L200.22,95.726L201.55,82.629L202.87,82.962L204.19,65.819L205.51,81.604L206.83,92.135L208.15,94.021L209.47,73.408L210.79,72.595L212.11,57.601L212.11,64.636L213.43,79.476L214.75,53.382L214.75,67.456L216.07,74.153L217.39,75.098L218.71,56.999L218.71,67.419L220.03,88.449L220.03,48.729L221.35,68.576L222.67,70.197L223.99,58.478L223.99,72.912L225.31,77.142L226.63,56.54L226.63,75.484L227.95,67.15L229.27,66.194L229.27,58.172L230.59,69.769L231.91,80.675L231.91,48.148L233.23,86.426L234.55,76.941L235.87,61.092L237.19,61.599L238.51,64.684L239.83,54.253L239.83,60.95L241.16,58.668L242.48,49.938L242.48,64.192L243.8,48.301L243.8,79.777L245.12,60.628L245.12,55.869L246.44,51.465L246.44,63.295L247.76,56.947L247.76,71.105L249.08,49.315L249.08,71.317L250.4,63.342L250.4,50.414L251.72,53.387L251.72,67.498L253.04,65.349L253.04,48.75L254.36,54.227L254.36,58.489L255.68,72.193L255.68,48.211L257,54.771L257,65.93L258.32,71.818L259.64,54.523L259.64,62.101L260.96,82.418L262.28,62.999L262.28,52.505L263.6,64.319L264.92,48.27L264.92,58.578L264.92,52.452L266.24,48.629L266.24,73.936L267.56,50.937L267.56,62.164L267.56,50.789L268.88,48.771L268.88,68.428L270.2,50.076L270.2,62.951L270.2,49.849L271.52,50.166L271.52,75.367L272.84,54.707L272.84,60.918L272.84,50.118L274.16,51.433L274.16,68.56L275.48,55.6L275.48,62.365L275.48,48.47L276.8,50.461L276.8,64.488L278.12,59.281L278.12,59.276L278.12,49.315L279.44,51.792L279.44,69.495L280.77,60.538L280.77,57.681L282.09,51.745L282.09,66.875L283.41,63.432L283.41,56.313L284.73,53.852L284.73,61.726L286.05,63.369L286.05,52.854L287.37,48.132L287.37,57.485L287.37,60.247L288.69,65.476L288.69,51.116L290.01,48.317L290.01,58.869L290.01,57.248L291.33,65.016L291.33,49.764L292.65,49.136L292.65,56.292L292.65,58.906L293.97,48.349L293.97,64.171L293.97,49.97L295.29,50.768L295.29,56.91L295.29,54.443L296.61,48.238L296.61,64.245L296.61,50.931L297.93,50.292L297.93,62.032L297.93,54.079L299.25,48.755L299.25,67.393L299.25,48.903L300.57,53.26L300.57,56.857L300.57,52.695L301.89,48.534L301.89,66.949L303.21,52.532L303.21,63.501L303.21,49.764L304.53,48.935L304.53,65.766L305.85,53.831L305.85,57.232L305.85,49.938L307.17,49.189L307.17,65.497L308.49,54.412L308.49,57.617L308.49,49.706L309.81,50.467L309.81,63.897L311.13,55.7L311.13,54.528L311.13,48.439L312.45,50.519L312.45,61.673L313.77,57.158L313.77,57.786L313.77,48.143L315.09,48.259L315.09,51.956L315.09,62.999L316.41,58.156L316.41,53.007L316.41,48.138L317.73,48.296L317.73,51.877L317.73,58.927L319.05,56.63L319.05,53.023L319.05,48.111L320.37,48.835L320.37,53.054L320.37,57.554L321.7,48.196L321.7,58.367L321.7,52.796L321.7,48.106L323.02,48.94L323.02,53.376L323.02,56.566L324.34,48.211L324.34,59.107L324.34,49.907L325.66,49.299L325.66,55.843L325.66,54.174L326.98,48.608L326.98,63.405L326.98,50.604L328.3,49.849L328.3,54.311L328.3,53.25L329.62,48.528L329.62,59.154L329.62,49.806L330.94,50.319L330.94,56.762L330.94,53.054L332.26,48.919L332.26,60.892L332.26,49.051L333.58,51.591L333.58,53.91L333.58,50.519L334.9,49.125L334.9,59.841L336.22,57.802L336.22,51.623L337.54,48.581L337.54,61.15L337.54,48.47L338.86,52.954L338.86,55.647L340.18,60.691L341.5,60.305L341.5,49.965L342.82,49.268L342.82,58.811L342.82,48.248L344.14,54.269L344.14,53.081L345.46,48.18L345.46,60.226L346.78,59.334L346.78,49.431L348.1,50.129L348.1,57.57L348.1,48.169L349.42,56.08L349.42,53.155L350.74,48.544L350.74,59.466L352.06,59.45L352.06,48.961L353.38,51.887L353.38,56.815L354.7,57.295L354.7,51.084L356.02,49.521L356.02,57.454L357.34,59.524L357.34,48.375L358.66,52.933L358.66,54.079L359.98,48.148L359.98,57.485L359.98,49.696L361.31,50.202L361.31,57.131L362.63,59.529L362.63,48.185L363.95,54.121L363.95,53.049L365.27,48.444L365.27,57.01L365.27,48.856L366.59,51.005L366.59,55.267L367.91,58.621L367.91,48.122L369.23,56.08L369.23,51.037L370.55,48.914L370.55,56.756L370.55,48.745L371.87,51.602L371.87,53.714L373.19,48.196L373.19,58.283L374.51,56.17L374.51,50.039L375.83,49.585L375.83,56.345L375.83,48.333L377.15,52.495L377.15,52.943L378.47,48.497L378.47,57.469L379.79,56.735L379.79,49.099L381.11,50.234L381.11,55.632L381.11,48.116L382.43,53.704L382.43,51.491L383.75,48.671L383.75,56.212L385.07,56.149L385.07,48.666L386.39,50.894L386.39,54.602L387.71,48.122L387.71,53.91L387.71,50.34L389.03,48.887L389.03,55.325L390.35,56.139L390.35,48.317L391.67,52.003L391.67,52.215L392.99,48.259L392.99,53.968L392.99,49.843L394.31,49.299L394.31,53.857L395.63,48.106L395.63,55.589L395.63,48.206L396.95,53.387L396.95,51.201L396.95,48.101L398.27,48.507L398.27,53.847L398.27,49.157L399.59,49.706L399.59,52.875L400.92,48.148L400.92,54.808L400.92,48.211L402.24,53.038L402.24,50.192L403.56,48.761L403.56,53.419L403.56,48.724L404.88,50.435L404.88,52.299L406.2,48.175L406.2,54.676L406.2,48.132L407.52,53.398L407.52,49.31L407.52,48.106L408.84,49.014L408.84,52.447L408.84,48.84L410.16,48.101L410.16,50.868L410.16,51.195L411.48,48.38L411.48,53.567L411.48,48.111L412.8,48.106L412.8,53.181L412.8,48.946L412.8,48.111L414.12,49.553L414.12,51.692L414.12,48.571L415.44,48.106L415.44,50.91L415.44,50.704L416.76,48.729L416.76,52.817L416.76,48.101L418.08,48.122L418.08,53.223L418.08,48.682L419.4,49.865L419.4,51.285L419.4,48.507L420.72,48.233L420.72,51.18L420.72,50.129L422.04,48.903L422.04,52.495L423.36,48.164L423.36,52.954L423.36,48.396L424.68,50.667L424.68,50.329L424.68,48.211L426,48.291L426,51.111L426,49.764L427.32,49.22L427.32,51.718L428.64,48.27L428.64,52.584L428.64,48.301L429.96,50.694L429.96,50.044L429.96,48.18L431.28,48.47L431.28,51.143L431.28,49.342L432.6,49.241L432.6,51.444L433.92,48.296L433.92,52.236L433.92,48.222L435.24,51.201L435.24,49.426L435.24,48.132L436.56,48.565L436.56,50.995L436.56,48.94L437.88,49.701L437.88,50.746L439.2,48.402L439.2,52.194L439.2,48.138L440.53,48.101L440.53,51.227L440.53,49.115L440.53,48.111L441.85,48.94L441.85,50.778L441.85,48.666L443.17,48.111L443.17,50.018L443.17,50.287L444.49,48.433L444.49,51.628L444.49,48.116L445.81,48.122L445.81,51.037L445.81,48.998L445.81,48.101L447.13,49.194L447.13,50.377L447.13,48.613L448.45,48.132L448.45,50.028L448.45,49.764L449.77,48.639L449.77,51.259L449.77,48.106L451.09,48.138L451.09,51.576L451.09,48.708L452.41,49.278L452.41,50.15L452.41,48.365L453.73,48.243L453.73,50.049L453.73,49.389L455.05,48.729L455.05,50.921L456.37,48.148L456.37,51.428L456.37,48.396L457.69,49.685L457.69,49.754L457.69,48.233L459.01,48.27L459.01,50.144L459.01,49.093L460.33,48.903L460.33,50.63L461.65,48.27L461.65,51.143L461.65,48.27L462.97,49.706L462.97,49.474L462.97,48.222L464.29,48.433L464.29,49.785L464.29,48.893L465.61,49.004L465.61,50.034L466.93,48.285L466.93,50.958L466.93,48.233L468.25,48.101L468.25,49.828L468.25,49.173L468.25,48.159L469.57,48.476L469.57,49.901L469.57,48.703L470.89,49.093L470.89,49.722L472.21,48.349L472.21,50.63L472.21,48.175L473.53,48.101L473.53,49.991L473.53,48.909L473.53,48.164L474.85,48.602L474.85,49.574L474.85,48.586L476.17,48.132L476.17,49.21L476.17,49.49L477.49,48.359L477.49,50.271L477.49,48.132L478.81,48.111L478.81,49.907L478.81,48.597L478.81,48.111L480.13,48.713L480.13,49.511L480.13,48.407L481.46,48.127L481.46,49.167L481.46,49.331L482.78,48.491L482.78,49.96L482.78,48.111L484.1,48.116L484.1,49.986L484.1,48.539L484.1,48.106L485.42,48.856L485.42,49.231L485.42,48.312L486.74,48.19L486.74,49.305L486.74,48.961L488.06,48.555L488.06,49.701L488.06,48.122L489.38,48.148L489.38,49.87L489.38,48.28L489.38,48.106L490.7,48.935L490.7,48.935L490.7,48.254L492.02,48.248L492.02,49.225L492.02,48.75L493.34,48.111L493.34,48.586L493.34,49.262L493.34,48.106L494.66,48.143L494.66,49.643L494.66,48.322L495.98,49.035L495.98,48.877L495.98,48.217L497.3,48.301L497.3,49.189L497.3,48.576L498.62,48.116L498.62,48.75L498.62,49.247L498.62,48.101L499.94,48.227L499.94,49.484L499.94,48.206L501.26,48.101L501.26,48.866L501.26,48.798L501.26,48.148L502.58,48.344L502.58,49.041L502.58,48.592L503.9,48.106L503.9,48.708L503.9,49.03L505.22,48.217L505.22,49.379L505.22,48.175L506.54,48.106L506.54,49.009L506.54,48.623L506.54,48.159L507.86,48.444L507.86,48.961L507.86,48.391L509.18,48.138L509.18,48.819L509.18,48.803L510.5,48.285L510.5,49.299L510.5,48.127L511.82,48.122L511.82,49.093L511.82,48.481L511.82,48.122L513.14,48.507L513.14,48.845L513.14,48.375L514.46,48.164L514.46,48.74L514.46,48.771L515.78,48.344L515.78,49.041L515.78,48.122L517.1,48.116L517.1,49.12L517.1,48.365L517.1,48.101L518.42,48.576L518.42,48.761L518.42,48.291L519.74,48.201L519.74,48.84L519.74,48.56L521.07,48.333L521.07,49.062L521.07,48.111L522.39,48.138L522.39,49.03L522.39,48.233L522.39,48.101L523.71,48.586L523.71,48.703L523.71,48.19L525.03,48.201L525.03,48.74L525.03,48.539L526.35,48.101L526.35,48.402L526.35,48.93L526.35,48.111L527.67,48.143L527.67,49.051L527.67,48.264L528.99,48.597L528.99,48.47L528.99,48.169L530.31,48.211L530.31,48.75L530.31,48.402L531.63,48.116L531.63,48.486L531.63,48.729L531.63,48.106L532.95,48.196L532.95,48.919L532.95,48.201L534.27,48.101L534.27,48.703L534.27,48.454L534.27,48.127L535.59,48.338L535.59,48.782L535.59,48.38L536.91,48.101L536.91,48.47L536.91,48.655L536.91,48.101L538.23,48.196L538.23,48.887L538.23,48.153L539.55,48.101L539.55,48.634L539.55,48.349L539.55,48.122L540.87,48.264L540.87,48.602L540.87,48.296L542.19,48.127L542.19,48.481L542.19,48.507L543.51,48.254L543.51,48.814L543.51,48.111L544.83,48.106L544.83,48.666L544.83,48.338L544.83,48.122L546.15,48.37L546.15,48.449L546.15,48.217L547.47,48.138L547.47,48.486L547.47,48.518L548.79,48.101L548.79,48.238L548.79,48.724L548.79,48.122L550.11,48.127L550.11,48.729L550.11,48.264L550.11,48.111L551.43,48.402L551.43,48.439L551.43,48.18L552.75,48.143L552.75,48.481L552.75,48.439L554.07,48.259L554.07,48.539L554.07,48.101L555.39,48.116L555.39,48.592L555.39,48.238L556.71,48.386L556.71,48.354L556.71,48.148L558.03,48.211L558.03,48.407L558.03,48.333L559.35,48.106L559.35,48.275L559.35,48.407L559.35,48.101L560.68,48.148L560.68,48.634L560.68,48.185L562,48.101L562,48.423L562,48.338L562,48.148L563.32,48.159L563.32,48.396L563.32,48.28L564.64,48.106L564.64,48.307L564.64,48.433L565.96,48.164L565.96,48.433L565.96,48.153L567.28,48.365L567.28,48.296L567.28,48.132L568.6,48.222L568.6,48.301L568.6,48.217L569.92,48.111L569.92,48.28L569.92,48.386L569.92,48.106L571.24,48.159L571.24,48.565L571.24,48.122L572.56,48.101L572.56,48.391L572.56,48.217L572.56,48.101L573.88,48.175L573.88,48.285L573.88,48.18L575.2,48.106L575.2,48.243L575.2,48.38L576.52,48.169L576.52,48.433L576.52,48.122L577.84,48.106L577.84,48.391L577.84,48.243L577.84,48.101L579.16,48.238L579.16,48.254L579.16,48.169L580.48,48.127L580.48,48.322L580.48,48.264L581.8,48.175L581.8,48.402L581.8,48.122L583.12,48.101L583.12,48.386L583.12,48.175L583.12,48.101L584.44,48.233L584.44,48.238L584.44,48.169L585.76,48.138L585.76,48.317L585.76,48.264L587.08,48.101L587.08,48.201L587.08,48.344L587.08,48.106L588.4,48.116L588.4,48.307L588.4,48.185L589.72,48.101L589.72,48.206L589.72,48.233L589.72,48.148L591.04,48.132L591.04,48.301L591.04,48.275L592.36,48.101L592.36,48.201L592.36,48.285L593.68,48.122L593.68,48.328L593.68,48.19L593.68,48.101L595,48.101L595,48.259L595,48.275L595,48.132L596.32,48.143L596.32,48.243L596.32,48.206L597.64,48.116L597.64,48.196L597.64,48.349L598.96,48.116L598.96,48.37L598.96,48.101L600.29,48.375L600.29,48.138L601.61,48.296L601.61,48.201L602.93,48.217L602.93,48.301L604.25,48.101L604.25,48.402L604.25,48.116L605.57,48.296L605.57,48.175L606.89,48.169L606.89,48.259L608.21,48.111L608.21,48.344L609.53,48.101L609.53,48.349L609.53,48.101L610.85,48.28L610.85,48.138L612.17,48.322L612.17,48.164L613.49,48.19L613.49,48.243L614.81,48.122L614.81,48.349L614.81,48.116L616.13,48.233L616.13,48.127L617.45,48.206L617.45,48.175L618.77,48.116L618.77,48.248L620.09,48.291L621.41,48.322L621.41,48.101L622.73,48.285L622.73,48.169L624.05,48.148L624.05,48.222L625.37,48.127L625.37,48.243L625.37,48.101L626.69,48.111L626.69,48.27L626.69,48.122L628.01,48.164L628.01,48.143L629.33,48.138L629.33,48.19L630.65,48.106L630.65,48.264L630.65,48.101L631.97,48.254L631.97,48.101L633.29,48.227L633.29,48.111L634.61,48.153L634.61,48.164L635.93,48.143L635.93,48.227L637.25,48.196L637.25,48.101L638.57,48.196L638.57,48.127L639.89,48.138L639.89,48.153L641.22,48.101L641.22,48.196L642.54,48.238L643.86,48.206L643.86,48.101L645.18,48.169L645.18,48.169L646.5,48.138L646.5,48.18L647.82,48.106L647.82,48.196L649.14,48.18L649.14,48.116L650.46,48.159L650.46,48.169L651.78,48.132L651.78,48.185L653.1,48.18L653.1,48.106L654.42,48.222L654.42,48.101L655.74,48.169L655.74,48.106L657.06,48.148L657.06,48.153L658.38,48.106L658.38,48.185L659.7,48.185L661.02,48.116L661.02,48.132L662.34,48.106L662.34,48.153L663.66,48.106L663.66,48.164L664.98,48.169L664.98,48.106L666.3,48.143L666.3,48.122L667.62,48.116L667.62,48.132L668.94,48.132L668.94,48.127L670.26,48.101L670.26,48.148L671.58,48.143L671.58,48.111L672.9,48.127L672.9,48.111L672.9,48.101L674.22,48.101L674.22,48.132L675.54,48.101L675.54,48.116L676.86,48.143L676.86,48.138L678.18,48.116L678.18,48.132L679.5,48.122L679.5,48.122L680.83,48.111L680.83,48.116L680.83,48.106L682.15,48.127L682.15,48.111L683.47,48.106L683.47,48.138L684.79,48.101L684.79,48.138L686.11,48.153L686.11,48.101L687.43,48.148L687.43,48.106L688.75,48.116L688.75,48.127L690.07,48.116L690.07,48.116L691.39,48.101L691.39,48.132L692.71,48.111L692.71,48.106L694.03,48.127L694.03,48.122L695.35,48.106L695.35,48.116L696.67,48.132L697.99,48.111L699.31,48.116L699.31,48.116L700.63,48.101L700.63,48.101L701.95,48.106L701.95,48.111L701.95,48.101L703.27,48.116L704.59,48.116L704.59,48.101L705.91,48.101L705.91,48.138L707.23,48.101L707.23,48.116L708.55,48.101L708.55,48.106L709.87,48.132L709.87,48.101L711.19,48.116L711.19,48.101L712.51,48.101L712.51,48.101L713.83,48.101L713.83,48.138L715.15,48.111L715.15,48.106L716.47,48.106L716.47,48.111L717.79,48.111L719.11,48.106L720.44,48.138L721.76,48.106L721.76,48.101L723.08,48.106L723.08,48.106L724.4,48.106L724.4,48.101L725.72,48.106L727.04,48.101L727.04,48.101L728.36,48.106L728.36,48.122L729.68,48.111L731,48.101L731,48.106L732.32,48.106L732.32,48.101L734.96,48.106L734.96,48.106L736.28,48.101L737.6,48.101L737.6,48.101L738.92,48.106L738.92,48.116L740.24,48.101L740.24,48.106L741.56,48.116L744.2,48.106L744.2,48.101L745.52,48.101L746.84,48.101L748.16,48.101L748.16,48.101L749.48,48.101L750.8,48.101L752.12,48.101L753.44,48.101L753.44,48.101L754.76,48.101L756.08,48.111L756.08,48.106L757.4,48.101L758.72,48.101L760.04,48.101L760.04,48.101L761.37,48.101L762.69,48.101L764.01,48.101L764.01,48.101L765.33,48.106L766.65,48.101L767.97,48.101L767.97,48.106L769.29,48.101L769.29,48.101L770.61,48.101L774.57,48.106L778.53,48.101L778.53,48.101L779.85,48.101L781.17,48.101L781.17,48.101L782.49,48.106L782.49,48.106L785.13,48.101L786.45,48.101L789.09,48.101L789.09,48.101L790.41,48.101L790.41,48.101L794.37,48.106L797.01,48.101L798.33,48.101L799.65,48.101L802.3,48.101L802.3,48.101L806.26,48.101L818.14,48.101L822.1,48.101L822.1,48.101L823.42,48.101L824.74,48.101L831.34,48.101L836.62,48.101L841.91,48.101L849.83,48.101L852.47,48.101L880.2,48.101L900,48.101" style="fill:none;stroke:#0000FF;stroke-width:1.25" />
</g>
</svg>
