<?xml version="1.0"?>
<!-- Generated by SVGo and Plotinum VG -->
<svg width="10in" height="6in"
	xmlns="http://www.w3.org/2000/svg"
	xmlns:xlink="http://www.w3.org/1999/xlink">
<g transform="scale(1, -1) translate(0, -540)">
<path d="M0,0L900,0L900,540L0,540Z" style="fill:#FFFFFF" />
<text x="448.12" y="-525.56" transform="scale(1, -1)"
	style="font-family:Times;font-weight:normal;font-style:normal;font-size:12pt"> </text>
<text x="468.74" y="-4.8267" transform="scale(1, -1)"
	style="font-family:Times;font-weight:normal;font-style:normal;font-size:12pt">Costs</text>
<text x="67.708" y="-19.502" transform="scale(1, -1)"
	style="font-family:Times;font-weight:normal;font-style:normal;font-size:10pt">0</text>
<text x="463.81" y="-19.502" transform="scale(1, -1)"
	style="font-family:Times;font-weight:normal;font-style:normal;font-size:10pt">3</text>
<text x="859.91" y="-19.502" transform="scale(1, -1)"
	style="font-family:Times;font-weight:normal;font-style:normal;font-size:10pt">6</text>
<path d="M70.833,31.538L70.833,41.538" style="fill:none;stroke:#000000;stroke-width:0.625" />
<path d="M466.93,31.538L466.93,41.538" style="fill:none;stroke:#000000;stroke-width:0.625" />
<path d="M863.03,31.538L863.03,41.538" style="fill:none;stroke:#000000;stroke-width:0.625" />
<path d="M202.87,36.538L202.87,41.538" style="fill:none;stroke:#000000;stroke-width:0.625" />
<path d="M334.9,36.538L334.9,41.538" style="fill:none;stroke:#000000;stroke-width:0.625" />
<path d="M598.96,36.538L598.96,41.538" style="fill:none;stroke:#000000;stroke-width:0.625" />
<path d="M731,36.538L731,41.538" style="fill:none;stroke:#000000;stroke-width:0.625" />
<path d="M70.833,41.538L900,41.538" style="fill:none;stroke:#000000;stroke-width:0.625" />
<g transform="rotate(90)">
<text x="186.52" y="14.443" transform="scale(1, -1)"
	style="font-family:Times;font-weight:normal;font-style:normal;font-size:12pt">Number of trials (1000000 total)</text>
</g>
<text x="19.27" y="-147.72" transform="scale(1, -1)"
	style="font-family:Times;font-weight:normal;font-style:normal;font-size:10pt">20000</text>
<text x="19.27" y="-253.25" transform="scale(1, -1)"
	style="font-family:Times;font-weight:normal;font-style:normal;font-size:10pt">40000</text>
<text x="19.27" y="-358.78" transform="scale(1, -1)"
	style="font-family:Times;font-weight:normal;font-style:normal;font-size:10pt">60000</text>
<text x="19.27" y="-464.31" transform="scale(1, -1)"
	style="font-family:Times;font-weight:normal;font-style:normal;font-size:10pt">80000</text>
<path d="M53.645,153.62L63.645,153.62" style="fill:none;stroke:#000000;stroke-width:0.625" />
<path d="M53.645,259.15L63.645,259.15" style="fill:none;stroke:#000000;stroke-width:0.625" />
<path d="M53.645,364.68L63.645,364.68" style="fill:none;stroke:#000000;stroke-width:0.625" />
<path d="M53.645,470.21L63.645,470.21" style="fill:none;stroke:#000000;stroke-width:0.625" />
<path d="M58.645,100.86L63.645,100.86" style="fill:none;stroke:#000000;stroke-width:0.625" />
<path d="M58.645,206.39L63.645,206.39" style="fill:none;stroke:#000000;stroke-width:0.625" />
<path d="M58.645,311.92L63.645,311.92" style="fill:none;stroke:#000000;stroke-width:0.625" />
<path d="M58.645,417.44L63.645,417.44" style="fill:none;stroke:#000000;stroke-width:0.625" />
<path d="M63.645,48.101L63.645,520.73" style="fill:none;stroke:#000000;stroke-width:0.625" />
<path d="M70.833,520.73L119.68,173.19L122.33,68.763L124.97,157.08L126.29,174.2L130.25,87.51L131.57,57.049L135.53,68.9L136.85,148.04L140.81,145.48L142.13,110.42L144.77,98.67L146.09,88.244L147.41,58.173L148.73,66.684L150.05,79.453L151.37,107.51L152.69,78.962L154.01,120.78L159.29,77.643L164.58,90.043L168.54,69.201L171.18,53.952L172.5,57.324L173.82,74.762L175.14,76.546L176.46,62.373L177.78,143.28L179.1,54.422L179.1,57.92L180.42,75.617L180.42,50.544L181.74,49.757L183.06,48.48L184.38,62.31L185.7,86.006L187.02,51.361L188.34,52.712L189.66,52.601L189.66,72.187L190.98,76.63L190.98,64.964L192.3,73.295L192.3,52.084L193.62,63.872L194.94,83.848L196.26,97.44L196.26,49.99L197.58,73.596L198.9,67.407L200.22,94.544L201.55,82.366L202.87,81.875L204.19,66.067L205.51,80.915L206.83,92.459L208.15,95.208L209.47,73.617L210.79,72.161L212.11,57.086L212.11,65.138L213.43,78.741L214.75,53.868L214.75,67.993L216.07,73.828L217.39,74.604L218.71,56.917L218.71,66.71L220.03,88.022L220.03,48.692L221.35,67.824L222.67,69.623L223.99,58.675L223.99,72.689L225.31,77.036L226.63,56.205L226.63,75.744L227.95,67.365L229.27,65.492L229.27,58.59L230.59,70.145L231.91,79.975L231.91,48.18L233.23,85.969L234.55,77.97L235.87,60.833L237.19,61.724L238.51,64.816L239.83,54.564L239.83,60.833L241.16,58.569L242.48,49.71L242.48,63.998L243.8,48.317L243.8,79.775L245.12,60.3L245.12,55.53L246.44,51.52L246.44,63.571L247.76,56.928L247.76,71.29L249.08,49.356L249.08,70.668L250.4,63.524L250.4,50.438L251.72,53.446L251.72,67.861L253.04,64.51L253.04,48.934L254.36,54.174L254.36,59.26L255.68,72.926L255.68,48.232L257,55.345L257,66.468L258.32,71.507L259.64,54.559L259.64,62.4L260.96,82.002L262.28,63.334L262.28,52.591L263.6,63.407L264.92,48.232L264.92,58.643L264.92,52.739L266.24,48.575L266.24,74.514L267.56,50.723L267.56,62.753L267.56,50.623L268.88,48.713L268.88,68.299L270.2,50.106L270.2,62.642L270.2,49.873L271.52,50.037L271.52,75.633L272.84,54.897L272.84,60.922L272.84,50.19L274.16,51.541L274.16,68.114L275.48,55.857L275.48,62.542L275.48,48.37L276.8,50.385L276.8,64.621L278.12,58.495L278.12,59.181L278.12,49.246L279.44,51.673L279.44,69.512L280.77,61.466L280.77,58.205L282.09,51.657L282.09,67.017L283.41,63.086L283.41,56.522L284.73,54.058L284.73,61.92L286.05,62.948L286.05,52.987L287.37,48.122L287.37,56.786L287.37,60.263L288.69,64.853L288.69,50.744L290.01,48.359L290.01,58.601L290.01,56.902L291.33,64.806L291.33,49.805L292.65,49.209L292.65,56.421L292.65,58.733L293.97,48.28L293.97,63.961L293.97,50.359L295.29,50.982L295.29,56.786L295.29,54.063L296.61,48.232L296.61,65.471L296.61,50.749L297.93,50.354L297.93,61.735L297.93,53.731L299.25,48.781L299.25,67.18L299.25,48.929L300.57,53.509L300.57,56.796L300.57,52.385L301.89,48.449L301.89,66.911L303.21,52.285L303.21,63.682L303.21,49.916L304.53,48.95L304.53,65.223L305.85,53.767L305.85,57.139L305.85,49.942L307.17,49.341L307.17,65.676L308.49,54.596L308.49,57.735L308.49,49.657L309.81,50.269L309.81,64.13L311.13,55.709L311.13,54.021L311.13,48.454L312.45,50.765L312.45,61.988L313.77,56.807L313.77,57.83L313.77,48.196L315.09,48.174L315.09,52.148L315.09,63.091L316.41,58.4L316.41,53.06L316.41,48.127L317.73,48.269L317.73,52.227L317.73,58.622L319.05,56.158L319.05,53.203L319.05,48.106L320.37,48.876L320.37,52.865L320.37,58.041L321.7,48.18L321.7,58.057L321.7,52.797L323.02,49.087L323.02,53.556L323.02,56.332L324.34,48.201L324.34,59.651L324.34,49.789L325.66,49.309L325.66,55.498L325.66,54.105L326.98,48.586L326.98,63.059L326.98,50.454L328.3,50.074L328.3,54.559L328.3,53.493L329.62,48.676L329.62,59.017L329.62,49.847L330.94,50.227L330.94,56.416L330.94,52.749L332.26,48.95L332.26,61.149L332.26,49.05L333.58,51.435L333.58,54.67L333.58,50.438L334.9,49.188L334.9,60.131L334.9,48.111L336.22,58.184L336.22,51.657L337.54,48.465L337.54,61.281L337.54,48.38L338.86,53.018L338.86,55.393L340.18,59.909L341.5,60.279L341.5,50.095L342.82,49.061L342.82,58.896L342.82,48.227L344.14,54.195L344.14,52.992L345.46,48.174L345.46,59.946L346.78,59.054L346.78,49.304L348.1,50.042L348.1,56.976L348.1,48.196L349.42,56.084L349.42,53.076L350.74,48.528L350.74,59.329L352.06,59.424L352.06,48.797L353.38,51.952L353.38,56.611L354.7,57.318L354.7,50.918L356.02,49.224L356.02,57.656L357.34,59.725L357.34,48.359L358.66,53.05L358.66,53.952L359.98,48.19L359.98,56.97L359.98,49.662L361.31,50.29L361.31,56.796L362.63,59.477L362.63,48.174L363.95,54.205L363.95,52.95L365.27,48.454L365.27,57.076L365.27,48.913L366.59,51.066L366.59,55.055L367.91,58.664L367.91,48.127L369.23,55.408L369.23,50.923L370.55,48.713L370.55,56.627L370.55,48.67L371.87,51.467L371.87,54.2L373.19,48.222L373.19,57.851L374.51,56.068L374.51,49.995L375.83,49.393L375.83,56.432L375.83,48.285L377.15,52.422L377.15,53.287L378.47,48.454L378.47,57.213L379.79,56.633L379.79,49.209L381.11,50.179L381.11,55.371L381.11,48.127L382.43,53.752L382.43,51.388L383.75,48.723L383.75,56.142L385.07,56.506L385.07,48.644L386.39,50.887L386.39,54.279L387.71,48.116L387.71,53.704L387.71,50.544L389.03,49.129L389.03,54.749L390.35,55.947L390.35,48.47L391.67,52.137L391.67,52.353L391.67,48.106L392.99,48.264L392.99,53.662L392.99,49.842L394.31,49.209L394.31,53.752L395.63,55.356L395.63,48.232L396.95,53.097L396.95,50.923L396.95,48.101L398.27,48.396L398.27,54.274L398.27,49.172L399.59,49.715L399.59,53.087L400.92,48.132L400.92,55.16L400.92,48.19L402.24,53.023L402.24,50.148L402.24,48.101L403.56,48.639L403.56,53.651L403.56,48.681L404.88,50.375L404.88,52.19L406.2,48.222L406.2,54.311L406.2,48.138L407.52,53.562L407.52,49.224L408.84,49.172L408.84,52.823L408.84,48.776L410.16,50.86L410.16,51.303L411.48,48.449L411.48,53.862L411.48,48.148L412.8,53.039L412.8,48.855L412.8,48.101L414.12,49.652L414.12,51.583L414.12,48.412L415.44,48.106L415.44,51.419L415.44,50.765L416.76,48.85L416.76,52.728L416.76,48.116L418.08,48.122L418.08,52.839L418.08,48.692L419.4,49.889L419.4,51.272L419.4,48.433L420.72,48.164L420.72,51.092L420.72,50.09L422.04,48.903L422.04,52.401L423.36,48.174L423.36,52.95L423.36,48.407L424.68,50.686L424.68,50.375L424.68,48.296L426,48.317L426,51.024L426,49.61L427.32,49.135L427.32,51.884L428.64,48.232L428.64,52.39L428.64,48.238L429.96,51.108L429.96,50.005L429.96,48.18L431.28,48.438L431.28,51.272L431.28,49.267L432.6,49.288L432.6,51.514L433.92,48.285L433.92,52.396L433.92,48.201L435.24,51.303L435.24,49.436L435.24,48.138L436.56,48.723L436.56,50.982L436.56,48.961L437.88,49.731L437.88,50.828L439.2,48.354L439.2,52.322L439.2,48.138L440.53,48.106L440.53,51.356L440.53,49.124L440.53,48.106L441.85,48.887L441.85,50.649L441.85,48.728L443.17,48.116L443.17,49.926L443.17,50.301L444.49,48.475L444.49,51.599L444.49,48.111L445.81,48.122L445.81,51.235L445.81,48.908L447.13,49.066L447.13,50.417L447.13,48.602L448.45,48.138L448.45,49.979L448.45,49.953L449.77,48.575L449.77,51.298L449.77,48.106L451.09,48.138L451.09,51.446L451.09,48.755L452.41,49.404L452.41,50.301L452.41,48.359L453.73,48.201L453.73,50.143L453.73,49.457L455.05,48.765L455.05,50.865L455.05,48.101L456.37,48.159L456.37,51.62L456.37,48.459L457.69,49.678L457.69,49.71L457.69,48.285L459.01,48.359L459.01,50.074L459.01,49.203L460.33,48.918L460.33,50.359L461.65,48.227L461.65,51.24L461.65,48.312L462.97,49.763L462.97,49.43L462.97,48.19L464.29,48.364L464.29,49.995L464.29,48.845L465.61,49.013L465.61,49.91L466.93,48.259L466.93,50.718L466.93,48.217L468.25,49.747L468.25,49.114L468.25,48.148L469.57,48.465L469.57,49.8L469.57,48.697L470.89,48.101L470.89,49.214L470.89,49.678L472.21,48.312L472.21,50.396L472.21,48.174L473.53,48.111L473.53,49.842L473.53,48.887L473.53,48.127L474.85,48.67L474.85,49.441L474.85,48.507L476.17,48.111L476.17,49.43L476.17,49.404L477.49,48.459L477.49,50.338L477.49,48.148L478.81,48.116L478.81,50.116L478.81,48.665L478.81,48.111L480.13,48.739L480.13,49.589L480.13,48.391L481.46,48.132L481.46,49.367L481.46,49.272L482.78,48.101L482.78,48.565L482.78,50.058L482.78,48.111L484.1,48.116L484.1,49.847L484.1,48.438L484.1,48.111L485.42,48.908L485.42,49.224L485.42,48.343L486.74,48.196L486.74,49.277L486.74,48.945L488.06,48.539L488.06,49.731L488.06,48.111L489.38,48.132L489.38,49.752L489.38,48.333L490.7,48.992L490.7,49.087L490.7,48.275L492.02,48.259L492.02,49.172L492.02,48.813L493.34,48.101L493.34,48.597L493.34,49.488L494.66,48.174L494.66,49.763L494.66,48.264L494.66,48.106L495.98,49.114L495.98,48.929L495.98,48.185L497.3,48.254L497.3,48.971L497.3,48.597L498.62,48.116L498.62,48.602L498.62,49.277L499.94,48.169L499.94,49.478L499.94,48.217L501.26,48.106L501.26,49.124L501.26,48.602L501.26,48.159L502.58,48.354L502.58,49.04L502.58,48.549L503.9,48.116L503.9,48.739L503.9,48.982L505.22,48.238L505.22,49.451L505.22,48.159L506.54,48.106L506.54,49.124L506.54,48.565L506.54,48.148L507.86,48.454L507.86,48.876L507.86,48.343L509.18,48.127L509.18,48.823L509.18,48.876L510.5,48.291L510.5,49.24L510.5,48.132L511.82,48.132L511.82,49.003L511.82,48.459L511.82,48.138L513.14,48.528L513.14,48.829L513.14,48.306L514.46,48.143L514.46,48.697L514.46,48.75L514.46,48.101L515.78,48.359L515.78,49.119L515.78,48.143L517.1,48.122L517.1,49.203L517.1,48.412L517.1,48.106L518.42,48.533L518.42,48.802L518.42,48.248L519.74,48.174L519.74,48.692L519.74,48.665L521.07,48.38L521.07,49.103L521.07,48.101L522.39,48.132L522.39,49.045L522.39,48.296L522.39,48.106L523.71,48.106L523.71,48.612L523.71,48.723L523.71,48.164L525.03,48.211L525.03,48.802L525.03,48.512L526.35,48.111L526.35,48.433L526.35,48.892L526.35,48.111L527.67,48.169L527.67,49.156L527.67,48.243L527.67,48.101L528.99,48.649L528.99,48.554L528.99,48.196L530.31,48.222L530.31,48.697L530.31,48.364L531.63,48.101L531.63,48.549L531.63,48.892L532.95,48.222L532.95,49.061L532.95,48.169L532.95,48.101L534.27,48.707L534.27,48.549L534.27,48.138L535.59,48.269L535.59,48.649L535.59,48.327L536.91,48.116L536.91,48.465L536.91,48.644L536.91,48.106L538.23,48.174L538.23,48.871L538.23,48.159L539.55,48.101L539.55,48.686L539.55,48.338L539.55,48.127L540.87,48.264L540.87,48.602L540.87,48.243L542.19,48.138L542.19,48.449L542.19,48.575L543.51,48.264L543.51,48.845L543.51,48.132L544.83,48.111L544.83,48.681L544.83,48.359L544.83,48.116L546.15,48.417L546.15,48.565L546.15,48.211L547.47,48.132L547.47,48.486L547.47,48.449L548.79,48.238L548.79,48.734L548.79,48.143L550.11,48.106L550.11,48.697L550.11,48.306L550.11,48.111L551.43,48.349L551.43,48.438L551.43,48.185L552.75,48.159L552.75,48.444L552.75,48.37L554.07,48.254L554.07,48.692L554.07,48.111L555.39,48.132L555.39,48.628L555.39,48.211L556.71,48.322L556.71,48.317L556.71,48.153L558.03,48.159L558.03,48.407L558.03,48.301L559.35,48.243L559.35,48.549L559.35,48.101L560.68,48.143L560.68,48.517L560.68,48.196L562,48.47L562,48.37L562,48.132L563.32,48.148L563.32,48.354L563.32,48.28L564.64,48.111L564.64,48.285L564.64,48.47L564.64,48.101L565.96,48.148L565.96,48.502L565.96,48.132L567.28,48.417L567.28,48.317L567.28,48.122L568.6,48.238L568.6,48.322L568.6,48.227L569.92,48.106L569.92,48.275L569.92,48.349L571.24,48.185L571.24,48.502L571.24,48.127L572.56,48.101L572.56,48.391L572.56,48.306L572.56,48.122L573.88,48.243L573.88,48.312L573.88,48.19L575.2,48.116L575.2,48.306L575.2,48.312L576.52,48.127L576.52,48.433L576.52,48.116L577.84,48.106L577.84,48.386L577.84,48.227L577.84,48.116L579.16,48.243L579.16,48.364L579.16,48.211L580.48,48.132L580.48,48.38L580.48,48.296L581.8,48.185L581.8,48.37L581.8,48.116L583.12,48.116L583.12,48.333L583.12,48.211L583.12,48.101L584.44,48.206L584.44,48.301L584.44,48.159L585.76,48.143L585.76,48.264L585.76,48.232L585.76,48.101L587.08,48.101L587.08,48.159L587.08,48.354L587.08,48.111L588.4,48.116L588.4,48.364L588.4,48.169L588.4,48.106L589.72,48.248L589.72,48.232L589.72,48.153L591.04,48.127L591.04,48.264L591.04,48.291L592.36,48.211L592.36,48.364L593.68,48.111L593.68,48.322L593.68,48.169L595,48.243L595,48.243L595,48.116L596.32,48.164L596.32,48.217L596.32,48.211L597.64,48.227L597.64,48.291L597.64,48.101L598.96,48.132L598.96,48.354L598.96,48.101L600.29,48.37L600.29,48.122L601.61,48.264L601.61,48.259L602.93,48.138L602.93,48.28L602.93,48.106L604.25,48.312L604.25,48.116L605.57,48.248L605.57,48.143L606.89,48.169L606.89,48.28L608.21,48.127L608.21,48.28L609.53,48.338L609.53,48.101L610.85,48.291L610.85,48.106L612.17,48.264L612.17,48.148L613.49,48.159L613.49,48.243L614.81,48.106L614.81,48.296L614.81,48.111L616.13,48.106L616.13,48.254L616.13,48.122L617.45,48.164L617.45,48.222L618.77,48.132L618.77,48.28L620.09,48.106L620.09,48.254L621.41,48.285L621.41,48.116L622.73,48.243L622.73,48.127L624.05,48.164L624.05,48.196L625.37,48.111L625.37,48.264L626.69,48.101L626.69,48.243L626.69,48.111L628.01,48.18L628.01,48.19L629.33,48.122L629.33,48.227L630.65,48.106L630.65,48.269L631.97,48.248L633.29,48.243L633.29,48.122L634.61,48.185L634.61,48.174L635.93,48.143L635.93,48.174L635.93,48.101L637.25,48.106L637.25,48.19L637.25,48.106L638.57,48.159L638.57,48.138L639.89,48.138L639.89,48.164L641.22,48.111L641.22,48.185L642.54,48.201L643.86,48.174L643.86,48.101L645.18,48.19L645.18,48.122L646.5,48.138L646.5,48.153L647.82,48.106L647.82,48.18L647.82,48.101L649.14,48.101L649.14,48.217L649.14,48.132L650.46,48.138L650.46,48.159L651.78,48.116L651.78,48.196L653.1,48.206L654.42,48.19L655.74,48.174L655.74,48.116L657.06,48.132L657.06,48.132L658.38,48.116L658.38,48.169L658.38,48.106L659.7,48.101L659.7,48.148L661.02,48.127L661.02,48.153L662.34,48.122L662.34,48.174L663.66,48.217L664.98,48.159L664.98,48.101L666.3,48.185L666.3,48.111L667.62,48.143L667.62,48.127L668.94,48.122L668.94,48.148L668.94,48.101L670.26,48.169L670.26,48.101L671.58,48.138L671.58,48.122L672.9,48.111L672.9,48.174L674.22,48.111L674.22,48.148L674.22,48.101L675.54,48.159L675.54,48.106L676.86,48.127L676.86,48.106L678.18,48.116L678.18,48.132L679.5,48.122L679.5,48.169L680.83,48.148L682.15,48.138L683.47,48.106L683.47,48.122L684.79,48.106L684.79,48.159L686.11,48.111L687.43,48.132L687.43,48.101L688.75,48.111L688.75,48.116L690.07,48.106L690.07,48.106L691.39,48.148L691.39,48.101L692.71,48.111L694.03,48.138L694.03,48.116L695.35,48.111L696.67,48.106L697.99,48.127L697.99,48.127L699.31,48.122L699.31,48.116L700.63,48.116L700.63,48.111L701.95,48.138L703.27,48.122L703.27,48.101L704.59,48.132L704.59,48.111L705.91,48.101L705.91,48.111L707.23,48.111L708.55,48.122L709.87,48.122L709.87,48.111L711.19,48.111L711.19,48.106L712.51,48.116L712.51,48.101L713.83,48.111L715.15,48.101L715.15,48.101L716.47,48.106L717.79,48.111L719.11,48.116L720.44,48.106L720.44,48.111L721.76,48.122L721.76,48.116L723.08,48.106L724.4,48.111L724.4,48.101L725.72,48.101L725.72,48.101L727.04,48.101L727.04,48.116L728.36,48.111L729.68,48.111L731,48.101L731,48.101L732.32,48.116L732.32,48.122L733.64,48.106L733.64,48.106L734.96,48.106L734.96,48.106L736.28,48.106L737.6,48.101L737.6,48.111L738.92,48.101L738.92,48.101L740.24,48.111L741.56,48.101L742.88,48.111L744.2,48.111L744.2,48.101L745.52,48.106L746.84,48.106L748.16,48.101L749.48,48.106L750.8,48.106L752.12,48.106L753.44,48.101L754.76,48.106L754.76,48.101L756.08,48.106L758.72,48.106L758.72,48.101L760.04,48.101L760.04,48.101L761.37,48.101L762.69,48.101L764.01,48.106L766.65,48.101L767.97,48.101L769.29,48.101L770.61,48.101L770.61,48.106L771.93,48.101L773.25,48.106L775.89,48.106L777.21,48.106L778.53,48.106L779.85,48.111L782.49,48.101L786.45,48.101L790.41,48.101L791.73,48.101L795.69,48.106L795.69,48.101L800.98,48.101L810.22,48.101L812.86,48.101L812.86,48.101L823.42,48.101L823.42,48.101L832.66,48.101L855.11,48.101L859.07,48.101L866.99,48.101L894.72,48.101L900,48.101" style="fill:none;stroke:#0000FF;stroke-width:1.25" />
</g>
</svg>
