<?xml version="1.0"?>
<!-- Generated by SVGo and Plotinum VG -->
<svg width="720pt" height="432pt" viewBox="0 0 720 432"
	xmlns="http://www.w3.org/2000/svg"
	xmlns:xlink="http://www.w3.org/1999/xlink">
<g transform="scale(1, -1) translate(0, -432)">
<path d="M0,0L720,0L720,432L0,432Z" style="fill:#FFFFFF" />
<text x="358.5" y="-420.45" transform="scale(1, -1)"
	style="font-family:Times;font-weight:normal;font-style:normal;font-size:12px"> </text>
<text x="379.31" y="-3.8613" transform="scale(1, -1)"
	style="font-family:Times;font-weight:normal;font-style:normal;font-size:12px">Costs</text>
<text x="62.805" y="-18.634" transform="scale(1, -1)"
	style="font-family:Times;font-weight:normal;font-style:normal;font-size:10px">0</text>
<text x="374.85" y="-18.634" transform="scale(1, -1)"
	style="font-family:Times;font-weight:normal;font-style:normal;font-size:10px">200</text>
<text x="691.89" y="-18.634" transform="scale(1, -1)"
	style="font-family:Times;font-weight:normal;font-style:normal;font-size:10px">400</text>
<path d="M65.305,28.263L65.305,36.263" style="fill:none;stroke:#000000;stroke-width:0.5" />
<path d="M382.35,28.263L382.35,36.263" style="fill:none;stroke:#000000;stroke-width:0.5" />
<path d="M699.39,28.263L699.39,36.263" style="fill:none;stroke:#000000;stroke-width:0.5" />
<path d="M223.83,32.263L223.83,36.263" style="fill:none;stroke:#000000;stroke-width:0.5" />
<path d="M540.87,32.263L540.87,36.263" style="fill:none;stroke:#000000;stroke-width:0.5" />
<path d="M65.305,36.263L720,36.263" style="fill:none;stroke:#000000;stroke-width:0.5" />
<g transform="rotate(90)">
<text x="152.55" y="11.555" transform="scale(1, -1)"
	style="font-family:Times;font-weight:normal;font-style:normal;font-size:12px">Number of trials (1000000 total)</text>
</g>
<text x="24.055" y="-90.337" transform="scale(1, -1)"
	style="font-family:Times;font-weight:normal;font-style:normal;font-size:10px">40000</text>
<text x="19.055" y="-235.52" transform="scale(1, -1)"
	style="font-family:Times;font-weight:normal;font-style:normal;font-size:10px">160000</text>
<text x="19.055" y="-380.69" transform="scale(1, -1)"
	style="font-family:Times;font-weight:normal;font-style:normal;font-size:10px">280000</text>
<path d="M51.555,93.543L59.555,93.543" style="fill:none;stroke:#000000;stroke-width:0.5" />
<path d="M51.555,238.72L59.555,238.72" style="fill:none;stroke:#000000;stroke-width:0.5" />
<path d="M51.555,383.9L59.555,383.9" style="fill:none;stroke:#000000;stroke-width:0.5" />
<path d="M55.555,166.13L59.555,166.13" style="fill:none;stroke:#000000;stroke-width:0.5" />
<path d="M55.555,311.31L59.555,311.31" style="fill:none;stroke:#000000;stroke-width:0.5" />
<path d="M59.555,45.151L59.555,416.58" style="fill:none;stroke:#000000;stroke-width:0.5" />
<path d="M65.305,416.58L100.18,48.665L101.76,52.12L106.52,48.492L114.45,69.838L116.03,48.541L117.62,58.872L119.2,96.843L120.79,55.463L122.37,52.026L123.96,51.971L125.54,52.357L127.13,55.668L128.71,51.901L130.3,62.532L131.88,111.2L133.47,62.24L135.05,62.943L136.64,48.639L138.22,48.747L141.4,55.549L142.98,51.976L149.32,52.367L150.91,56.156L152.49,45.351L154.08,56.675L155.66,53.336L157.25,48.944L158.83,52.442L160.42,52.849L162,49.017L163.59,56.666L165.17,52.549L166.76,47.106L168.34,50.349L169.93,46.952L171.51,48.2L173.1,48.309L174.68,47.661L176.27,47.396L177.86,47.432L179.44,47.99L181.03,69.091L182.61,86.511L184.2,52.099L185.78,56.602L187.37,51.125L188.95,50.008L190.54,49.449L192.12,59.748L193.71,62.797L195.29,49.671L196.88,50.545L198.46,48.193L200.05,50.798L201.63,49.689L203.22,49.346L204.8,48.928L206.39,47.281L207.97,50.037L209.56,49.145L211.14,47.867L212.73,48.545L214.32,48.164L215.9,49.02L217.49,50.665L219.07,49.323L220.66,49.248L222.24,48.524L223.83,48.193L225.41,48.288L227,48.55L228.58,48.215L230.17,50.136L231.75,50.665L233.34,47.917L234.92,51.047L236.51,51.866L238.09,48.055L239.68,48.011L241.26,48.576L242.85,48.644L244.43,48.561L246.02,49.905L247.6,53.785L249.19,55.206L250.78,49.804L252.36,49.082L253.95,48.264L255.53,47.586L257.12,47.798L258.7,50.39L260.29,49.951L261.87,47.433L263.46,47.064L265.04,46.879L266.63,47.749L268.21,47.598L269.8,47.677L271.38,48.228L272.97,47.217L274.55,47.017L276.14,47.595L277.72,47.9L279.31,47.756L280.89,48.083L282.48,47.601L284.06,47.048L285.65,47.266L287.24,46.821L288.82,46.821L290.41,46.708L291.99,46.854L293.58,46.6L295.16,46.482L296.75,46.65L298.33,48.683L299.92,46.655L301.5,47.111L303.09,47.24L304.67,46.638L306.26,46.475L307.84,47.108L309.43,48.326L311.01,47.93L312.6,46.906L314.18,46.897L315.77,46.551L317.35,46.687L318.94,46.406L320.52,46.774L322.11,46.222L323.7,46.326L325.28,46.54L326.87,46.284L328.45,46.231L330.04,46.189L331.62,46.174L333.21,46.233L334.79,46.314L336.38,46.279L337.96,46.197L339.55,46.059L341.13,46.072L342.72,46.078L344.3,46.09L345.89,46.165L347.47,46.257L349.06,45.966L350.64,45.859L352.23,45.969L353.81,45.819L355.4,45.762L356.98,45.869L358.57,45.923L360.16,45.81L361.74,45.851L363.33,46.01L364.91,46.168L366.5,45.782L368.08,45.839L369.67,45.736L371.25,45.715L372.84,45.739L374.42,45.845L376.01,46.039L377.59,45.874L379.18,45.692L380.76,45.643L382.35,45.578L383.93,45.604L385.52,45.534L387.1,45.667L388.69,45.593L390.27,45.49L391.86,45.546L393.44,45.54L395.03,45.591L396.62,45.559L398.2,45.543L399.79,45.499L401.37,45.543L402.96,45.5L404.54,45.503L406.13,45.449L407.71,45.465L409.3,45.464L410.88,45.445L412.47,45.41L414.05,45.414L415.64,45.373L417.22,45.409L418.81,45.345L420.39,45.393L421.98,45.345L423.56,45.368L425.15,45.382L426.73,45.43L428.32,45.368L429.9,45.375L431.49,45.362L433.08,45.355L434.66,45.341L436.25,45.351L437.83,45.367L439.42,45.313L441,45.311L442.59,45.298L444.17,45.31L445.76,45.333L447.34,45.286L448.93,45.303L450.51,45.284L452.1,45.29L453.68,45.28L455.27,45.299L456.85,45.264L458.44,45.261L460.02,45.257L461.61,45.266L463.19,45.272L464.78,45.252L466.37,45.245L467.95,45.247L469.54,45.242L471.12,45.236L472.71,45.248L474.29,45.254L475.88,45.223L477.46,45.219L479.05,45.23L480.63,45.234L482.22,45.219L483.8,45.207L485.39,45.222L486.97,45.217L488.56,45.199L490.14,45.206L491.73,45.218L493.31,45.213L494.9,45.203L496.48,45.217L498.07,45.196L499.65,45.193L501.24,45.189L502.83,45.191L504.41,45.205L506,45.196L507.58,45.184L509.17,45.188L510.75,45.178L512.34,45.188L513.92,45.189L515.51,45.194L517.09,45.189L518.68,45.179L520.26,45.176L521.85,45.184L523.43,45.18L525.02,45.178L526.6,45.18L528.19,45.176L529.77,45.177L531.36,45.171L532.94,45.172L534.53,45.172L536.11,45.165L537.7,45.173L539.29,45.172L540.87,45.17L542.46,45.177L544.04,45.168L545.63,45.182L547.21,45.163L548.8,45.162L550.38,45.17L551.97,45.166L553.55,45.171L555.14,45.163L556.72,45.165L558.31,45.163L559.89,45.161L561.48,45.166L563.06,45.161L564.65,45.161L566.23,45.16L567.82,45.16L569.4,45.157L570.99,45.16L572.57,45.156L574.16,45.157L575.75,45.16L577.33,45.159L578.92,45.16L580.5,45.155L582.09,45.155L583.67,45.156L585.26,45.151L586.84,45.155L588.43,45.156L590.01,45.156L591.6,45.154L593.18,45.159L594.77,45.156L596.35,45.156L597.94,45.155L599.52,45.154L601.11,45.156L602.69,45.155L604.28,45.153L605.86,45.162L607.45,45.155L609.03,45.157L610.62,45.154L612.21,45.151L613.79,45.156L615.38,45.153L616.96,45.154L618.55,45.153L620.13,45.155L621.72,45.151L623.3,45.151L624.89,45.155L626.47,45.153L629.64,45.151L631.23,45.155L634.4,45.151L635.98,45.153L639.15,45.154L640.74,45.154L642.32,45.153L645.49,45.156L647.08,45.153L648.67,45.153L653.42,45.151L655.01,45.151L656.59,45.153L666.1,45.153L667.69,45.151L672.44,45.151L683.54,45.151L700.98,45.151L720,45.151" style="fill:none;stroke:#0000FF" />
</g>
</svg>
