<?xml version="1.0"?>
<!-- Generated by SVGo and Plotinum VG -->
<svg width="720pt" height="432pt" viewBox="0 0 720 432"
	xmlns="http://www.w3.org/2000/svg"
	xmlns:xlink="http://www.w3.org/1999/xlink">
<g transform="scale(1, -1) translate(0, -432)">
<path d="M0,0L720,0L720,432L0,432Z" style="fill:#FFFFFF" />
<text x="358.5" y="-420.45" transform="scale(1, -1)"
	style="font-family:Times;font-weight:normal;font-style:normal;font-size:12px"> </text>
<text x="379.31" y="-3.8613" transform="scale(1, -1)"
	style="font-family:Times;font-weight:normal;font-style:normal;font-size:12px">Costs</text>
<text x="62.805" y="-18.634" transform="scale(1, -1)"
	style="font-family:Times;font-weight:normal;font-style:normal;font-size:10px">0</text>
<text x="341.22" y="-18.634" transform="scale(1, -1)"
	style="font-family:Times;font-weight:normal;font-style:normal;font-size:10px">200</text>
<text x="624.64" y="-18.634" transform="scale(1, -1)"
	style="font-family:Times;font-weight:normal;font-style:normal;font-size:10px">400</text>
<path d="M65.305,28.263L65.305,36.263" style="fill:none;stroke:#000000;stroke-width:0.5" />
<path d="M348.72,28.263L348.72,36.263" style="fill:none;stroke:#000000;stroke-width:0.5" />
<path d="M632.14,28.263L632.14,36.263" style="fill:none;stroke:#000000;stroke-width:0.5" />
<path d="M207.01,32.263L207.01,36.263" style="fill:none;stroke:#000000;stroke-width:0.5" />
<path d="M490.43,32.263L490.43,36.263" style="fill:none;stroke:#000000;stroke-width:0.5" />
<path d="M65.305,36.263L720,36.263" style="fill:none;stroke:#000000;stroke-width:0.5" />
<g transform="rotate(90)">
<text x="152.55" y="11.555" transform="scale(1, -1)"
	style="font-family:Times;font-weight:normal;font-style:normal;font-size:12px">Number of trials (1000000 total)</text>
</g>
<text x="24.055" y="-106.69" transform="scale(1, -1)"
	style="font-family:Times;font-weight:normal;font-style:normal;font-size:10px">30000</text>
<text x="24.055" y="-236.19" transform="scale(1, -1)"
	style="font-family:Times;font-weight:normal;font-style:normal;font-size:10px">90000</text>
<text x="19.055" y="-365.69" transform="scale(1, -1)"
	style="font-family:Times;font-weight:normal;font-style:normal;font-size:10px">150000</text>
<path d="M51.555,109.9L59.555,109.9" style="fill:none;stroke:#000000;stroke-width:0.5" />
<path d="M51.555,239.4L59.555,239.4" style="fill:none;stroke:#000000;stroke-width:0.5" />
<path d="M51.555,368.9L59.555,368.9" style="fill:none;stroke:#000000;stroke-width:0.5" />
<path d="M55.555,174.65L59.555,174.65" style="fill:none;stroke:#000000;stroke-width:0.5" />
<path d="M55.555,304.15L59.555,304.15" style="fill:none;stroke:#000000;stroke-width:0.5" />
<path d="M59.555,45.151L59.555,416.58" style="fill:none;stroke:#000000;stroke-width:0.5" />
<path d="M65.305,416.58L96.481,63.128L103.57,59.474L106.4,81.916L107.82,63.471L109.23,95.717L110.65,69.8L114.9,66.968L116.32,67.108L117.74,48.436L119.15,81.185L121.99,66.657L123.41,98.089L124.82,66.59L126.24,77.373L127.66,63.586L129.07,59.323L134.74,64.24L136.16,66.001L137.58,50.413L138.99,46.034L140.41,79.745L141.83,85.719L143.24,55.708L144.66,49.932L146.08,65.433L147.5,59.247L148.91,54.868L150.33,51.4L151.75,82.84L153.16,101.03L154.58,51.903L156,48.406L157.42,51.089L158.83,50.185L160.25,72.349L161.67,50.737L163.08,52.878L164.5,55.062L165.92,55.41L167.34,59.383L168.75,56.886L170.17,62.727L171.59,53.772L173,56.118L174.42,52.058L175.84,52.649L177.25,57.532L178.67,54.795L180.09,58.494L181.51,54.484L182.92,58.855L184.34,62.351L185.76,61.563L187.17,56.813L188.59,53.159L190.01,55.887L191.43,57.907L192.84,57.465L194.26,61.501L195.68,61.054L197.09,61.95L198.51,60.935L199.93,57.726L201.35,58.462L202.76,59.386L204.18,60.154L205.6,57.629L207.01,56.008L208.43,52.013L209.85,59.491L211.26,62.548L212.68,57.339L214.1,57.292L215.52,53.981L216.93,55.837L218.35,54.406L219.77,51.374L221.18,54.264L222.6,56.662L224.02,56.118L225.44,50.733L226.85,53.569L228.27,59.487L229.69,57.713L231.1,52.965L232.52,51.989L233.94,53.683L235.36,53.681L236.77,53.666L238.19,52.386L239.61,56.178L241.02,52.77L242.44,52.179L243.86,51.844L245.28,52.013L246.69,53.58L248.11,54.251L249.53,51.475L250.94,51.339L252.36,52.03L253.78,52.192L255.19,52.703L256.61,52.44L258.03,52.356L259.45,51.575L260.86,51.752L262.28,51.322L263.7,51.441L265.11,51.741L266.53,51.262L267.95,51.467L269.37,51.143L270.78,51.609L272.2,51.941L273.62,51.732L275.03,51.119L276.45,50.204L277.87,50.839L279.29,50.815L280.7,51.147L282.12,50.59L283.54,50.187L284.95,50.336L286.37,50.405L287.79,50.312L289.2,50.28L290.62,50.059L292.04,49.926L293.46,49.813L294.87,48.937L296.29,48.903L297.71,49.736L299.12,49.639L300.54,49.015L301.96,48.644L303.38,48.562L304.79,49.036L306.21,48.814L307.63,48.505L309.04,48.777L310.46,48.549L311.88,48.518L313.3,47.964L314.71,48.521L316.13,48.652L317.55,48.227L318.96,47.983L320.38,47.849L321.8,48.037L323.21,48.037L324.63,47.756L326.05,47.797L327.47,47.562L328.88,47.683L330.3,47.737L331.72,47.778L333.13,47.569L334.55,47.83L335.97,47.549L337.39,47.385L338.8,47.394L340.22,47.409L341.64,47.379L343.05,47.305L344.47,47.21L345.89,47.027L347.31,47.122L348.72,47.038L350.14,47.074L351.56,46.947L352.97,46.915L354.39,46.923L355.81,46.824L357.23,46.891L358.64,46.8L360.06,46.701L361.48,46.66L362.89,46.69L364.31,46.556L365.73,46.543L367.14,46.585L368.56,46.543L369.98,46.498L371.4,46.392L372.81,46.341L374.23,46.375L375.65,46.317L377.06,46.28L378.48,46.161L379.9,46.282L381.32,46.187L382.73,46.088L384.15,46.116L385.57,46.09L386.98,46.146L388.4,45.972L389.82,45.978L391.24,45.978L392.65,46.025L394.07,45.928L395.49,45.9L396.9,45.933L398.32,45.911L399.74,45.866L401.15,45.797L402.57,45.905L403.99,45.833L405.41,45.816L406.82,45.754L408.24,45.68L409.66,45.779L411.07,45.823L412.49,45.695L413.91,45.784L415.33,45.678L416.74,45.672L418.16,45.62L419.58,45.607L420.99,45.607L422.41,45.59L423.83,45.585L425.25,45.618L426.66,45.557L428.08,45.546L429.5,45.551L430.91,45.536L432.33,45.542L433.75,45.469L435.17,45.492L436.58,45.572L438,45.512L439.42,45.501L440.83,45.473L442.25,45.454L443.67,45.441L445.08,45.471L446.5,45.397L447.92,45.393L449.34,45.432L450.75,45.393L452.17,45.361L453.59,45.406L455,45.38L456.42,45.369L457.84,45.378L459.26,45.402L460.67,45.365L462.09,45.341L463.51,45.339L464.92,45.348L466.34,45.309L467.76,45.322L469.18,45.331L470.59,45.328L472.01,45.305L473.43,45.324L474.84,45.285L476.26,45.272L477.68,45.274L479.09,45.264L480.51,45.277L481.93,45.296L483.35,45.283L484.76,45.253L486.18,45.261L487.6,45.253L489.01,45.268L490.43,45.255L491.85,45.292L493.27,45.242L494.68,45.246L496.1,45.218L497.52,45.259L498.93,45.236L500.35,45.216L501.77,45.236L503.19,45.216L504.6,45.21L506.02,45.236L507.44,45.214L508.85,45.216L510.27,45.199L511.69,45.214L513.1,45.203L514.52,45.212L515.94,45.192L517.36,45.218L518.77,45.201L520.19,45.216L521.61,45.201L523.02,45.186L524.44,45.199L525.86,45.184L527.28,45.177L528.69,45.188L530.11,45.19L531.53,45.19L532.94,45.179L534.36,45.188L535.78,45.188L537.2,45.175L538.61,45.192L540.03,45.205L541.45,45.175L542.86,45.179L544.28,45.179L545.7,45.177L547.12,45.175L548.53,45.171L549.95,45.184L551.37,45.184L552.78,45.162L554.2,45.177L555.62,45.162L557.03,45.171L558.45,45.162L559.87,45.166L561.29,45.16L562.7,45.166L564.12,45.162L565.54,45.164L566.95,45.171L568.37,45.169L569.79,45.162L571.21,45.162L572.62,45.169L574.04,45.158L575.46,45.156L576.87,45.171L578.29,45.164L579.71,45.162L581.13,45.154L582.54,45.156L583.96,45.158L585.38,45.16L586.79,45.16L588.21,45.158L589.63,45.158L591.04,45.156L592.46,45.151L593.88,45.158L595.3,45.16L596.71,45.154L598.13,45.166L599.55,45.158L600.96,45.156L602.38,45.158L605.22,45.154L608.05,45.156L609.47,45.156L610.88,45.154L612.3,45.154L613.72,45.151L615.14,45.151L616.55,45.151L617.97,45.156L620.8,45.151L622.22,45.151L623.64,45.151L625.06,45.151L627.89,45.151L629.31,45.151L630.72,45.151L633.56,45.156L634.97,45.154L636.39,45.151L637.81,45.154L640.64,45.151L644.89,45.156L650.56,45.151L659.07,45.151L666.15,45.151L667.57,45.151L670.4,45.154L671.82,45.154L684.57,45.151L685.99,45.151L690.24,45.151L694.49,45.151L707.25,45.154L720,45.151" style="fill:none;stroke:#0000FF" />
</g>
</svg>
