<?xml version="1.0"?>
<!-- Generated by SVGo and Plotinum VG -->
<svg width="720pt" height="432pt" viewBox="0 0 720 432"
	xmlns="http://www.w3.org/2000/svg"
	xmlns:xlink="http://www.w3.org/1999/xlink">
<g transform="scale(1, -1) translate(0, -432)">
<path d="M0,0L720,0L720,432L0,432Z" style="fill:#FFFFFF" />
<text x="358.5" y="-420.45" transform="scale(1, -1)"
	style="font-family:Times;font-weight:normal;font-style:normal;font-size:12px"> </text>
<text x="376.81" y="-3.8613" transform="scale(1, -1)"
	style="font-family:Times;font-weight:normal;font-style:normal;font-size:12px">Costs</text>
<text x="51.555" y="-18.634" transform="scale(1, -1)"
	style="font-family:Times;font-weight:normal;font-style:normal;font-size:10px">0.00</text>
<text x="357.15" y="-18.634" transform="scale(1, -1)"
	style="font-family:Times;font-weight:normal;font-style:normal;font-size:10px">250.00</text>
<text x="667.74" y="-18.634" transform="scale(1, -1)"
	style="font-family:Times;font-weight:normal;font-style:normal;font-size:10px">500.00</text>
<path d="M60.305,28.263L60.305,36.263" style="fill:none;stroke:#000000;stroke-width:0.5" />
<path d="M370.9,28.263L370.9,36.263" style="fill:none;stroke:#000000;stroke-width:0.5" />
<path d="M681.49,28.263L681.49,36.263" style="fill:none;stroke:#000000;stroke-width:0.5" />
<path d="M122.42,32.263L122.42,36.263" style="fill:none;stroke:#000000;stroke-width:0.5" />
<path d="M184.54,32.263L184.54,36.263" style="fill:none;stroke:#000000;stroke-width:0.5" />
<path d="M246.66,32.263L246.66,36.263" style="fill:none;stroke:#000000;stroke-width:0.5" />
<path d="M308.78,32.263L308.78,36.263" style="fill:none;stroke:#000000;stroke-width:0.5" />
<path d="M433.01,32.263L433.01,36.263" style="fill:none;stroke:#000000;stroke-width:0.5" />
<path d="M495.13,32.263L495.13,36.263" style="fill:none;stroke:#000000;stroke-width:0.5" />
<path d="M557.25,32.263L557.25,36.263" style="fill:none;stroke:#000000;stroke-width:0.5" />
<path d="M619.37,32.263L619.37,36.263" style="fill:none;stroke:#000000;stroke-width:0.5" />
<path d="M60.305,36.263L720,36.263" style="fill:none;stroke:#000000;stroke-width:0.5" />
<g transform="rotate(90)">
<text x="152.55" y="11.555" transform="scale(1, -1)"
	style="font-family:Times;font-weight:normal;font-style:normal;font-size:12px">Number of trials (1000000 total)</text>
</g>
<text x="19.055" y="-86.275" transform="scale(1, -1)"
	style="font-family:Times;font-weight:normal;font-style:normal;font-size:10px">10000</text>
<text x="19.055" y="-219.28" transform="scale(1, -1)"
	style="font-family:Times;font-weight:normal;font-style:normal;font-size:10px">40000</text>
<text x="19.055" y="-352.28" transform="scale(1, -1)"
	style="font-family:Times;font-weight:normal;font-style:normal;font-size:10px">70000</text>
<path d="M46.555,89.481L54.555,89.481" style="fill:none;stroke:#000000;stroke-width:0.5" />
<path d="M46.555,222.48L54.555,222.48" style="fill:none;stroke:#000000;stroke-width:0.5" />
<path d="M46.555,355.48L54.555,355.48" style="fill:none;stroke:#000000;stroke-width:0.5" />
<path d="M50.555,133.81L54.555,133.81" style="fill:none;stroke:#000000;stroke-width:0.5" />
<path d="M50.555,178.15L54.555,178.15" style="fill:none;stroke:#000000;stroke-width:0.5" />
<path d="M50.555,266.82L54.555,266.82" style="fill:none;stroke:#000000;stroke-width:0.5" />
<path d="M50.555,311.15L54.555,311.15" style="fill:none;stroke:#000000;stroke-width:0.5" />
<path d="M50.555,399.82L54.555,399.82" style="fill:none;stroke:#000000;stroke-width:0.5" />
<path d="M54.555,45.151L54.555,416.58" style="fill:none;stroke:#000000;stroke-width:0.5" />
<path d="M60.305,416.58L88.879,88.43L92.606,48.53L93.849,109.47L95.091,73.454L96.333,55.694L97.576,63.373L98.818,59.445L100.06,111.96L102.55,91.799L103.79,128.05L105.03,48.534L106.27,126.05L107.51,48.685L108.76,55.676L110,99.593L111.24,55.752L112.48,55.556L113.73,69.734L114.97,91.693L116.21,83.877L117.45,74.558L121.18,69.947L122.42,52.116L123.67,48.366L124.91,46.322L126.15,78.898L127.39,77.91L128.63,58.332L129.88,54.297L131.12,54.599L132.36,61.91L133.6,58.509L134.85,60.003L136.09,95.643L137.33,128.45L138.57,88.102L139.82,68.294L141.06,58.824L142.3,64.259L143.54,80.069L144.79,61.537L146.03,77.772L147.27,60.69L148.51,70.728L149.75,87.091L151,77.666L152.24,70.404L153.48,68.094L154.72,70.501L155.97,97.115L157.21,65.421L158.45,67.101L159.69,71.69L160.94,88.004L162.18,60.455L163.42,64.898L164.66,68.045L165.91,70.253L167.15,67.846L168.39,58.332L169.63,73.046L170.88,78.841L172.12,72.66L173.36,66.064L174.6,59.343L175.84,71.809L177.09,72.536L178.33,66.591L179.57,75.675L180.81,75.649L182.06,75.937L183.3,76.557L184.54,70.306L185.78,66.445L187.03,69.052L188.27,68.232L189.51,70.976L190.75,70.297L192,74.474L193.24,76.251L194.48,73.556L195.72,67.948L196.96,64.84L198.21,68.4L199.45,69.397L200.69,65.239L201.93,67.952L203.18,69.81L204.42,73.348L205.66,68.817L206.9,66.702L208.15,62.171L209.39,65.079L210.63,66.928L211.87,65.762L213.12,70.949L214.36,66.902L215.6,69.77L216.84,67.123L218.08,63.328L219.33,63.851L220.57,63.537L221.81,65.744L223.05,65.181L224.3,62.663L225.54,65.044L226.78,68.267L228.02,67.354L229.27,63.164L230.51,62.699L231.75,66.046L232.99,67.527L234.24,64.157L235.48,62.402L236.72,65.576L237.96,65.47L239.21,63.758L240.45,61.666L241.69,61.932L242.93,61.657L244.17,62.029L245.42,61.954L246.66,63.656L247.9,62.446L249.14,61.648L250.39,60.979L251.63,60.265L252.87,60.229L254.11,60.198L255.36,60.345L256.6,61.635L257.84,59.755L259.08,61.191L260.33,60.247L261.57,60.207L262.81,58.429L264.05,57.414L265.29,58.766L266.54,58.895L267.78,58.549L269.02,58.447L270.26,59.015L271.51,59.081L272.75,57.999L273.99,57.467L275.23,57.387L276.48,57.223L277.72,56.953L278.96,57.161L280.2,56.833L281.45,57.831L282.69,57.219L283.93,56.443L285.17,55.645L286.41,55.357L287.66,55.858L288.9,56.306L290.14,55.592L291.38,55.197L292.63,55.53L293.87,55.756L295.11,54.501L296.35,54.306L297.6,54.014L298.84,54.634L300.08,54.373L301.32,53.632L302.57,54.049L303.81,53.956L305.05,53.863L306.29,52.963L307.54,53.247L308.78,53.57L310.02,53.3L311.26,53.118L312.5,52.772L313.75,52.901L314.99,52.701L316.23,52.466L317.47,52.169L318.72,51.895L319.96,51.952L321.2,51.806L322.44,52.01L323.69,51.908L324.93,51.509L326.17,51.655L327.41,51.3L328.66,51.203L329.9,51.057L331.14,50.977L332.38,50.839L333.62,51.034L334.87,50.538L336.11,50.392L337.35,50.742L338.59,50.387L339.84,50.143L341.08,50.015L342.32,50.086L343.56,49.829L344.81,49.58L346.05,49.691L347.29,49.855L348.53,49.532L349.78,49.376L351.02,49.341L352.26,49.013L353.5,49.084L354.74,49.155L355.99,49.031L357.23,48.937L358.47,48.782L359.71,48.933L360.96,48.711L362.2,48.8L363.44,48.689L364.68,48.538L365.93,48.578L367.17,48.264L368.41,48.428L369.65,48.193L370.9,48.202L372.14,48.255L373.38,47.749L374.62,48.064L375.87,47.829L377.11,47.882L378.35,47.887L379.59,47.723L380.83,47.661L382.08,47.701L383.32,47.372L384.56,47.337L385.8,47.594L387.05,47.483L388.29,47.39L389.53,47.386L390.77,47.439L392.02,47.169L393.26,47.284L394.5,47.155L395.74,46.965L396.99,47.08L398.23,46.982L399.47,46.845L400.71,46.876L401.95,46.827L403.2,46.801L404.44,46.84L405.68,46.699L406.92,46.566L408.17,46.659L409.41,46.796L410.65,46.659L411.89,46.579L413.14,46.499L414.38,46.495L415.62,46.428L416.86,46.428L418.11,46.446L419.35,46.393L420.59,46.477L421.83,46.353L423.07,46.304L424.32,46.251L425.56,46.184L426.8,46.224L428.04,46.105L429.29,46.127L430.53,46.105L431.77,46.02L433.01,46.034L434.26,46.091L435.5,46.051L436.74,46.007L437.98,45.994L439.23,45.954L440.47,45.861L441.71,45.896L442.95,45.901L444.2,45.878L445.44,45.768L446.68,45.874L447.92,45.776L449.16,45.754L450.41,45.732L451.65,45.745L452.89,45.745L454.13,45.697L455.38,45.745L456.62,45.67L457.86,45.706L459.1,45.683L460.35,45.643L461.59,45.635L462.83,45.679L464.07,45.714L465.32,45.626L466.56,45.555L467.8,45.635L469.04,45.568L470.28,45.59L471.53,45.506L472.77,45.533L474.01,45.564L475.25,45.573L476.5,45.488L477.74,45.444L478.98,45.475L480.22,45.448L481.47,45.417L482.71,45.417L483.95,45.382L485.19,45.391L486.44,45.435L487.68,45.431L488.92,45.426L490.16,45.44L491.41,45.479L492.65,45.386L493.89,45.409L495.13,45.426L496.37,45.417L497.62,45.36L498.86,45.338L500.1,45.342L501.34,45.346L502.59,45.315L503.83,45.271L505.07,45.324L506.31,45.315L507.56,45.342L508.8,45.307L510.04,45.324L511.28,45.307L512.53,45.267L513.77,45.253L515.01,45.258L516.25,45.289L517.49,45.253L518.74,45.302L519.98,45.258L521.22,45.284L522.46,45.267L523.71,45.289L524.95,45.267L526.19,45.253L527.43,45.24L528.68,45.244L529.92,45.249L531.16,45.271L532.4,45.28L533.65,45.262L534.89,45.258L536.13,45.24L537.37,45.249L538.61,45.182L539.86,45.218L541.1,45.236L542.34,45.222L543.58,45.2L544.83,45.191L546.07,45.222L547.31,45.2L548.55,45.196L549.8,45.182L551.04,45.205L552.28,45.182L553.52,45.196L554.77,45.187L556.01,45.196L557.25,45.213L558.49,45.191L559.74,45.196L560.98,45.182L562.22,45.209L563.46,45.196L564.7,45.156L565.95,45.178L567.19,45.205L568.43,45.187L569.67,45.191L570.92,45.2L572.16,45.182L573.4,45.187L574.64,45.174L575.89,45.178L577.13,45.169L578.37,45.196L579.61,45.196L580.86,45.178L582.1,45.174L583.34,45.174L584.58,45.151L585.82,45.178L587.07,45.16L588.31,45.165L589.55,45.182L590.79,45.165L592.04,45.16L593.28,45.165L594.52,45.156L595.76,45.174L597.01,45.16L598.25,45.16L599.49,45.16L601.98,45.165L603.22,45.178L604.46,45.169L605.7,45.156L606.94,45.151L608.19,45.151L609.43,45.16L610.67,45.151L611.91,45.178L613.16,45.16L614.4,45.151L615.64,45.165L616.88,45.156L619.37,45.174L620.61,45.156L621.85,45.182L623.1,45.16L624.34,45.156L625.58,45.156L628.07,45.151L629.31,45.16L630.55,45.151L631.79,45.16L633.03,45.156L635.52,45.151L636.76,45.151L638,45.151L640.49,45.156L642.97,45.151L644.22,45.16L645.46,45.151L647.94,45.151L650.43,45.151L654.15,45.151L659.12,45.151L660.37,45.151L666.58,45.156L667.82,45.151L669.06,45.151L674.03,45.156L681.49,45.151L682.73,45.151L683.97,45.151L697.64,45.151L702.61,45.151L708.82,45.151L711.3,45.151L713.79,45.151L720,45.151" style="fill:none;stroke:#0000FF" />
</g>
</svg>
