<?xml version="1.0"?>
<!-- Generated by SVGo and Plotinum VG -->
<svg width="720pt" height="432pt" viewBox="0 0 720 432"
	xmlns="http://www.w3.org/2000/svg"
	xmlns:xlink="http://www.w3.org/1999/xlink">
<g transform="scale(1, -1) translate(0, -432)">
<path d="M0,0L720,0L720,432L0,432Z" style="fill:#FFFFFF" />
<text x="358.5" y="-420.45" transform="scale(1, -1)"
	style="font-family:Times;font-weight:normal;font-style:normal;font-size:12px"> </text>
<text x="379.31" y="-3.8613" transform="scale(1, -1)"
	style="font-family:Times;font-weight:normal;font-style:normal;font-size:12px">Costs</text>
<text x="62.805" y="-18.634" transform="scale(1, -1)"
	style="font-family:Times;font-weight:normal;font-style:normal;font-size:10px">0</text>
<text x="321.79" y="-18.634" transform="scale(1, -1)"
	style="font-family:Times;font-weight:normal;font-style:normal;font-size:10px">200</text>
<text x="585.78" y="-18.634" transform="scale(1, -1)"
	style="font-family:Times;font-weight:normal;font-style:normal;font-size:10px">400</text>
<path d="M65.305,28.263L65.305,36.263" style="fill:none;stroke:#000000;stroke-width:0.5" />
<path d="M329.29,28.263L329.29,36.263" style="fill:none;stroke:#000000;stroke-width:0.5" />
<path d="M593.28,28.263L593.28,36.263" style="fill:none;stroke:#000000;stroke-width:0.5" />
<path d="M197.3,32.263L197.3,36.263" style="fill:none;stroke:#000000;stroke-width:0.5" />
<path d="M461.29,32.263L461.29,36.263" style="fill:none;stroke:#000000;stroke-width:0.5" />
<path d="M65.305,36.263L720,36.263" style="fill:none;stroke:#000000;stroke-width:0.5" />
<g transform="rotate(90)">
<text x="152.55" y="11.555" transform="scale(1, -1)"
	style="font-family:Times;font-weight:normal;font-style:normal;font-size:12px">Number of trials (1000000 total)</text>
</g>
<text x="24.055" y="-106.21" transform="scale(1, -1)"
	style="font-family:Times;font-weight:normal;font-style:normal;font-size:10px">30000</text>
<text x="24.055" y="-234.76" transform="scale(1, -1)"
	style="font-family:Times;font-weight:normal;font-style:normal;font-size:10px">90000</text>
<text x="19.055" y="-363.3" transform="scale(1, -1)"
	style="font-family:Times;font-weight:normal;font-style:normal;font-size:10px">150000</text>
<path d="M51.555,109.42L59.555,109.42" style="fill:none;stroke:#000000;stroke-width:0.5" />
<path d="M51.555,237.96L59.555,237.96" style="fill:none;stroke:#000000;stroke-width:0.5" />
<path d="M51.555,366.51L59.555,366.51" style="fill:none;stroke:#000000;stroke-width:0.5" />
<path d="M55.555,173.69L59.555,173.69" style="fill:none;stroke:#000000;stroke-width:0.5" />
<path d="M55.555,302.23L59.555,302.23" style="fill:none;stroke:#000000;stroke-width:0.5" />
<path d="M59.555,45.151L59.555,416.58" style="fill:none;stroke:#000000;stroke-width:0.5" />
<path d="M65.305,416.58L94.344,48.573L96.983,48.446L99.623,51.949L100.94,73.103L102.26,65.926L103.58,55.653L106.22,69.275L107.54,88.14L108.86,51.981L110.18,62.785L111.5,62.558L112.82,51.943L114.14,62.719L115.46,58.704L116.78,51.857L118.1,62.582L119.42,80.226L120.74,73.124L122.06,59.13L123.38,66.065L124.7,48.796L126.02,78.515L128.66,45.192L129.98,45.391L131.3,59.912L132.62,45.526L133.94,45.338L135.26,66.674L136.58,71.044L137.9,57.869L139.22,91.296L140.54,56.872L141.86,54.715L143.18,64.666L144.5,49.275L145.82,73.092L147.14,58.815L148.46,61.011L149.78,49.687L151.1,49.826L152.42,50.452L153.74,80.683L155.06,52.547L156.38,53.774L157.7,52.39L159.02,51.692L160.34,53.32L161.66,94.253L162.98,53.669L164.3,53.022L165.62,52.309L166.94,53.387L168.26,54.792L169.58,51.201L170.9,52.333L172.22,84.895L173.54,54.824L174.86,55.925L176.18,55.152L177.5,56.885L178.82,55.203L180.14,57.451L181.46,59.636L182.78,53.969L184.1,56.02L185.42,54.873L186.74,53.003L188.06,55.823L189.38,57.661L190.7,56.776L192.02,56.947L193.34,56.17L194.66,57.089L195.98,58.734L197.3,58.509L198.62,55.823L199.94,57.009L201.26,53.837L202.58,55.193L203.9,57.339L205.22,51.743L206.54,56.015L207.86,56.699L209.18,57.022L210.5,55.021L211.82,54.331L213.14,54.205L214.46,58.303L215.78,55.364L217.1,57.196L218.42,53.952L219.74,56.737L221.06,52.862L222.38,55.364L223.7,52.579L225.02,52.975L226.34,54.008L227.66,57.198L228.98,52.249L230.3,52.412L231.62,53.37L232.94,54.873L234.26,53.367L235.58,55.178L236.9,52.292L238.22,52.288L239.54,51.778L240.86,50.053L242.18,54.301L243.5,53.194L244.82,52.553L246.14,53.734L247.46,51.111L248.78,51.045L250.1,54.998L251.42,50.957L252.74,52.626L254.06,51.354L255.38,51.583L256.7,50.662L258.02,50.822L259.34,50.677L260.66,52.315L261.98,50.882L263.3,50.644L264.62,50.587L265.94,50.317L267.26,50.147L268.58,53.635L269.9,50.917L271.22,50.413L272.54,50.434L273.86,50.469L275.18,50.04L276.5,50.053L277.82,50.417L279.14,49.76L280.46,50.244L281.78,49.929L283.1,49.663L284.42,49.89L285.74,49.772L287.06,49.515L288.38,49.982L289.7,49.458L291.02,49.627L292.34,49.558L293.66,49.018L294.98,49.2L296.3,49.11L297.62,49.22L298.94,48.821L300.26,48.864L301.58,48.579L302.9,48.883L304.22,48.727L305.54,48.834L306.86,48.513L308.18,48.455L309.5,48.393L310.82,48.721L312.14,47.928L313.46,48.097L314.78,48.08L316.1,48.399L317.42,48.005L318.74,47.939L320.06,47.774L321.38,47.851L322.69,47.767L324.01,48.046L325.33,47.652L326.65,48.007L327.97,47.553L329.29,47.474L330.61,47.536L331.93,47.371L333.25,47.309L334.57,47.521L335.89,47.129L337.21,47.146L338.53,47.244L339.85,47.167L341.17,47.191L342.49,47.341L343.81,47.09L345.13,46.867L346.45,46.975L347.77,46.805L349.09,46.9L350.41,46.799L351.73,46.784L353.05,46.788L354.37,46.694L355.69,46.6L357.01,46.756L358.33,46.6L359.65,46.617L360.97,46.585L362.29,46.537L363.61,46.46L364.93,46.46L366.25,46.42L367.57,46.458L368.89,46.347L370.21,46.285L371.53,46.362L372.85,46.317L374.17,46.287L375.49,46.257L376.81,46.133L378.13,46.208L379.45,46.171L380.77,46.107L382.09,46.158L383.41,45.98L384.73,46.109L386.05,46.064L387.37,46.043L388.69,46.049L390.01,46.03L391.33,45.957L392.65,45.882L393.97,45.916L395.29,45.807L396.61,45.959L397.93,45.848L399.25,45.873L400.57,45.811L401.89,45.745L403.21,45.85L404.53,45.811L405.85,45.736L407.17,45.779L408.49,45.681L409.81,45.685L411.13,45.691L412.45,45.666L413.77,45.663L415.09,45.659L416.41,45.638L417.73,45.591L419.05,45.629L420.37,45.672L421.69,45.608L423.01,45.563L424.33,45.603L425.65,45.578L426.97,45.533L428.29,45.576L429.61,45.526L430.93,45.466L432.25,45.537L433.57,45.503L434.89,45.453L436.21,45.473L437.53,45.513L438.85,45.402L440.17,45.447L441.49,45.428L442.81,45.443L444.13,45.413L445.45,45.421L446.77,45.417L448.09,45.37L449.41,45.406L450.73,45.387L452.05,45.351L453.37,45.383L454.69,45.387L456.01,45.336L457.33,45.353L458.65,45.361L459.97,45.368L461.29,45.323L462.61,45.34L463.93,45.34L465.25,45.323L466.57,45.342L467.89,45.316L469.21,45.331L470.53,45.323L471.85,45.297L473.17,45.273L474.49,45.284L475.81,45.295L477.13,45.256L478.45,45.303L479.77,45.267L481.09,45.239L482.41,45.252L483.73,45.28L485.05,45.239L486.37,45.248L487.69,45.291L489.01,45.235L490.33,45.25L491.65,45.246L492.97,45.231L494.29,45.218L495.61,45.237L496.93,45.235L498.25,45.243L499.57,45.241L500.89,45.205L502.21,45.207L503.53,45.222L504.85,45.241L506.17,45.233L507.49,45.226L508.81,45.201L510.13,45.211L511.45,45.207L512.77,45.203L514.09,45.22L515.41,45.19L516.73,45.192L518.05,45.186L519.37,45.188L520.69,45.19L522.01,45.211L523.33,45.198L524.65,45.201L525.97,45.184L527.29,45.211L528.61,45.184L529.93,45.186L531.25,45.184L532.57,45.194L533.89,45.177L535.21,45.166L536.53,45.186L537.85,45.177L539.17,45.175L540.49,45.169L541.81,45.184L543.13,45.186L544.45,45.194L545.77,45.175L547.09,45.175L548.41,45.171L549.73,45.173L551.05,45.179L552.37,45.175L553.69,45.162L555.01,45.181L556.33,45.177L557.65,45.173L558.97,45.16L560.29,45.179L561.61,45.175L562.93,45.169L564.25,45.158L565.57,45.162L566.89,45.169L568.21,45.158L569.53,45.156L570.85,45.164L572.17,45.166L573.49,45.16L574.81,45.158L576.13,45.171L577.45,45.169L578.77,45.156L580.09,45.156L581.41,45.158L582.73,45.166L584.05,45.164L585.37,45.154L586.69,45.151L588,45.164L589.32,45.16L591.96,45.154L593.28,45.16L594.6,45.158L595.92,45.158L597.24,45.158L598.56,45.154L599.88,45.151L601.2,45.162L602.52,45.151L603.84,45.158L605.16,45.154L606.48,45.151L607.8,45.154L609.12,45.154L610.44,45.156L611.76,45.156L613.08,45.151L614.4,45.154L617.04,45.154L621,45.151L622.32,45.151L623.64,45.158L624.96,45.151L627.6,45.151L628.92,45.151L630.24,45.151L631.56,45.154L632.88,45.151L636.84,45.151L638.16,45.151L646.08,45.151L648.72,45.151L650.04,45.151L652.68,45.151L654,45.151L657.96,45.151L659.28,45.154L667.2,45.151L720,45.154" style="fill:none;stroke:#0000FF" />
</g>
</svg>
