<?xml version="1.0"?>
<!-- Generated by SVGo and Plotinum VG -->
<svg width="720pt" height="432pt" viewBox="0 0 720 432"
	xmlns="http://www.w3.org/2000/svg"
	xmlns:xlink="http://www.w3.org/1999/xlink">
<g transform="scale(1, -1) translate(0, -432)">
<path d="M0,0L720,0L720,432L0,432Z" style="fill:#FFFFFF" />
<text x="358.5" y="-420.45" transform="scale(1, -1)"
	style="font-family:Times;font-weight:normal;font-style:normal;font-size:12px"> </text>
<text x="379.31" y="-3.8613" transform="scale(1, -1)"
	style="font-family:Times;font-weight:normal;font-style:normal;font-size:12px">Costs</text>
<text x="62.805" y="-18.634" transform="scale(1, -1)"
	style="font-family:Times;font-weight:normal;font-style:normal;font-size:10px">0</text>
<text x="381.11" y="-18.634" transform="scale(1, -1)"
	style="font-family:Times;font-weight:normal;font-style:normal;font-size:10px">200</text>
<text x="704.42" y="-18.634" transform="scale(1, -1)"
	style="font-family:Times;font-weight:normal;font-style:normal;font-size:10px">400</text>
<path d="M65.305,28.263L65.305,36.263" style="fill:none;stroke:#000000;stroke-width:0.5" />
<path d="M388.61,28.263L388.61,36.263" style="fill:none;stroke:#000000;stroke-width:0.5" />
<path d="M711.92,28.263L711.92,36.263" style="fill:none;stroke:#000000;stroke-width:0.5" />
<path d="M226.96,32.263L226.96,36.263" style="fill:none;stroke:#000000;stroke-width:0.5" />
<path d="M550.26,32.263L550.26,36.263" style="fill:none;stroke:#000000;stroke-width:0.5" />
<path d="M65.305,36.263L720,36.263" style="fill:none;stroke:#000000;stroke-width:0.5" />
<g transform="rotate(90)">
<text x="152.55" y="11.555" transform="scale(1, -1)"
	style="font-family:Times;font-weight:normal;font-style:normal;font-size:12px">Number of trials (1000000 total)</text>
</g>
<text x="24.055" y="-113.08" transform="scale(1, -1)"
	style="font-family:Times;font-weight:normal;font-style:normal;font-size:10px">50000</text>
<text x="19.055" y="-255.35" transform="scale(1, -1)"
	style="font-family:Times;font-weight:normal;font-style:normal;font-size:10px">150000</text>
<text x="19.055" y="-397.62" transform="scale(1, -1)"
	style="font-family:Times;font-weight:normal;font-style:normal;font-size:10px">250000</text>
<path d="M51.555,116.29L59.555,116.29" style="fill:none;stroke:#000000;stroke-width:0.5" />
<path d="M51.555,258.56L59.555,258.56" style="fill:none;stroke:#000000;stroke-width:0.5" />
<path d="M51.555,400.83L59.555,400.83" style="fill:none;stroke:#000000;stroke-width:0.5" />
<path d="M55.555,187.42L59.555,187.42" style="fill:none;stroke:#000000;stroke-width:0.5" />
<path d="M55.555,329.69L59.555,329.69" style="fill:none;stroke:#000000;stroke-width:0.5" />
<path d="M59.555,45.151L59.555,416.58" style="fill:none;stroke:#000000;stroke-width:0.5" />
<path d="M65.305,416.58L102.48,48.51L104.1,84.108L108.95,52.329L110.57,55.773L113.8,52.084L115.42,52.816L117.03,63.024L120.27,74.358L123.5,52.228L125.12,51.858L128.35,82.072L129.97,79.666L131.58,73.261L134.82,64.236L136.43,99.301L138.05,48.489L139.67,59.75L141.28,45.481L144.51,64.352L146.13,77.535L147.75,61.764L149.36,46.201L150.98,74.666L152.6,49.381L154.21,49.687L155.83,47.048L157.45,59.374L159.06,63.82L160.68,52.73L162.3,46.405L163.91,57.185L165.53,46.75L167.15,49.482L168.76,49.731L170.38,48.926L172,47.51L173.61,49.459L175.23,53.289L176.85,47.47L178.46,48.902L180.08,50.115L181.69,49.007L183.31,52.266L184.93,56.68L186.54,51.471L188.16,49.97L189.78,77.312L191.39,53.138L193.01,50.064L194.63,63.264L196.24,56.49L197.86,51.245L199.48,55.605L201.09,55.661L202.71,55.928L204.33,48.552L205.94,52.616L207.56,51.023L209.18,53.109L210.79,54.904L212.41,50.818L214.03,51.586L215.64,53.811L217.26,54.275L218.88,50.895L220.49,50.171L222.11,53.833L223.72,50.464L225.34,51.039L226.96,49.526L228.57,53.816L230.19,51.165L231.81,50.438L233.42,50.701L235.04,49.67L236.66,48.032L238.27,49.886L239.89,50.343L241.51,49.256L243.12,48.61L244.74,51.327L246.36,48.636L247.97,48.179L249.59,49.74L251.21,48.283L252.82,50.073L254.44,50.69L256.06,50.474L257.67,48.812L259.29,50.222L260.91,52.447L262.52,47.812L264.14,49.227L265.75,49.896L267.37,48.411L268.99,49.247L270.6,50.314L272.22,48.909L273.84,48.371L275.45,50.341L277.07,48.758L278.69,47.781L280.3,48.933L281.92,49.107L283.54,48.904L285.15,48.072L286.77,47.783L288.39,48.971L290,47.58L291.62,47.62L293.24,47.86L294.85,47.698L296.47,47.413L298.09,47.33L299.7,47.493L301.32,47.052L302.93,47.284L304.55,47.365L306.17,46.81L307.78,47.075L309.4,47.542L311.02,47.17L312.63,46.827L314.25,47.197L315.87,47.233L317.48,46.662L319.1,47.53L320.72,47.48L322.33,46.763L323.95,46.988L325.57,47.122L327.18,46.861L328.8,46.507L330.42,46.985L332.03,46.856L333.65,46.675L335.27,46.739L336.88,46.59L338.5,46.578L340.12,46.741L341.73,46.743L343.35,46.465L344.96,46.462L346.58,46.672L348.2,46.349L349.81,46.368L351.43,46.297L353.05,46.382L354.66,46.311L356.28,46.161L357.9,46.206L359.51,46.201L361.13,46.097L362.75,46.099L364.36,46.122L365.98,45.942L367.6,45.958L369.21,46.072L370.83,45.877L372.45,45.816L374.06,45.9L375.68,45.88L377.3,45.77L378.91,45.807L380.53,45.804L382.14,45.796L383.76,45.792L385.38,45.821L386.99,45.72L388.61,45.723L390.23,45.757L391.84,45.712L393.46,45.669L395.08,45.651L396.69,45.656L398.31,45.688L399.93,45.617L401.54,45.71L403.16,45.602L404.78,45.642L406.39,45.654L408.01,45.592L409.63,45.564L411.24,45.612L412.86,45.605L414.48,45.53L416.09,45.543L417.71,45.483L419.33,45.493L420.94,45.486L422.56,45.473L424.17,45.487L425.79,45.477L427.41,45.444L429.02,45.45L430.64,45.378L432.26,45.403L433.87,45.425L435.49,45.42L437.11,45.335L438.72,45.389L440.34,45.415L441.96,45.38L443.57,45.343L445.19,45.369L446.81,45.318L448.42,45.324L450.04,45.359L451.66,45.296L453.27,45.315L454.89,45.314L456.51,45.299L458.12,45.292L459.74,45.301L461.35,45.284L462.97,45.314L464.59,45.289L466.2,45.296L467.82,45.277L469.44,45.301L471.05,45.257L472.67,45.271L474.29,45.242L475.9,45.279L477.52,45.259L479.14,45.248L480.75,45.257L482.37,45.241L483.99,45.235L485.6,45.247L487.22,45.245L488.84,45.242L490.45,45.238L492.07,45.257L493.69,45.232L495.3,45.23L496.92,45.217L498.54,45.21L500.15,45.215L501.77,45.218L503.38,45.197L505,45.211L506.62,45.203L508.23,45.2L509.85,45.207L511.47,45.207L513.08,45.186L514.7,45.215L516.32,45.19L517.93,45.211L519.55,45.186L521.17,45.178L522.78,45.2L524.4,45.195L526.02,45.204L527.63,45.184L529.25,45.181L530.87,45.173L532.48,45.18L534.1,45.173L535.72,45.178L537.33,45.183L538.95,45.191L540.56,45.174L542.18,45.167L543.8,45.168L545.41,45.171L547.03,45.177L548.65,45.168L550.26,45.167L551.88,45.181L553.5,45.176L555.11,45.171L556.73,45.164L558.35,45.163L559.96,45.167L561.58,45.163L563.2,45.177L564.81,45.161L566.43,45.161L568.05,45.16L569.66,45.167L571.28,45.168L572.9,45.16L574.51,45.167L576.13,45.16L577.75,45.163L579.36,45.163L580.98,45.16L582.59,45.158L584.21,45.158L585.83,45.16L587.44,45.16L589.06,45.158L590.68,45.166L592.29,45.157L593.91,45.158L595.53,45.156L597.14,45.156L598.76,45.157L600.38,45.151L601.99,45.156L603.61,45.156L605.23,45.154L608.46,45.154L610.08,45.16L611.69,45.158L613.31,45.156L614.93,45.156L616.54,45.154L618.16,45.151L619.78,45.151L621.39,45.151L623.01,45.153L624.62,45.153L626.24,45.151L627.86,45.153L629.47,45.151L631.09,45.154L632.71,45.153L634.32,45.151L635.94,45.156L637.56,45.154L639.17,45.153L640.79,45.153L642.41,45.154L644.02,45.151L645.64,45.151L647.26,45.153L650.49,45.151L652.11,45.153L656.96,45.154L660.19,45.151L663.42,45.151L666.65,45.151L668.27,45.153L669.89,45.153L671.5,45.151L673.12,45.151L681.2,45.151L694.14,45.151L698.99,45.151L700.6,45.151L720,45.151" style="fill:none;stroke:#0000FF" />
</g>
</svg>
