<?xml version="1.0"?>
<!-- Generated by SVGo and Plotinum VG -->
<svg width="720pt" height="432pt" viewBox="0 0 720 432"
	xmlns="http://www.w3.org/2000/svg"
	xmlns:xlink="http://www.w3.org/1999/xlink">
<g transform="scale(1, -1) translate(0, -432)">
<path d="M0,0L720,0L720,432L0,432Z" style="fill:#FFFFFF" />
<text x="358.5" y="-420.45" transform="scale(1, -1)"
	style="font-family:Times;font-weight:normal;font-style:normal;font-size:12px"> </text>
<text x="385.56" y="-3.8613" transform="scale(1, -1)"
	style="font-family:Times;font-weight:normal;font-style:normal;font-size:12px">Costs</text>
<text x="75.305" y="-18.634" transform="scale(1, -1)"
	style="font-family:Times;font-weight:normal;font-style:normal;font-size:10px">0</text>
<text x="336.22" y="-18.634" transform="scale(1, -1)"
	style="font-family:Times;font-weight:normal;font-style:normal;font-size:10px">200</text>
<text x="602.14" y="-18.634" transform="scale(1, -1)"
	style="font-family:Times;font-weight:normal;font-style:normal;font-size:10px">400</text>
<path d="M77.805,28.263L77.805,36.263" style="fill:none;stroke:#000000;stroke-width:0.5" />
<path d="M343.72,28.263L343.72,36.263" style="fill:none;stroke:#000000;stroke-width:0.5" />
<path d="M609.64,28.263L609.64,36.263" style="fill:none;stroke:#000000;stroke-width:0.5" />
<path d="M210.76,32.263L210.76,36.263" style="fill:none;stroke:#000000;stroke-width:0.5" />
<path d="M476.68,32.263L476.68,36.263" style="fill:none;stroke:#000000;stroke-width:0.5" />
<path d="M77.805,36.263L720,36.263" style="fill:none;stroke:#000000;stroke-width:0.5" />
<g transform="rotate(90)">
<text x="152.55" y="11.555" transform="scale(1, -1)"
	style="font-family:Times;font-weight:normal;font-style:normal;font-size:12px">Number of trials (1000000 total)</text>
</g>
<text x="24.055" y="-82.329" transform="scale(1, -1)"
	style="font-family:Times;font-weight:normal;font-style:normal;font-size:10px">25000.00</text>
<text x="19.055" y="-243.87" transform="scale(1, -1)"
	style="font-family:Times;font-weight:normal;font-style:normal;font-size:10px">125000.00</text>
<text x="19.055" y="-405.41" transform="scale(1, -1)"
	style="font-family:Times;font-weight:normal;font-style:normal;font-size:10px">225000.00</text>
<path d="M64.055,85.535L72.055,85.535" style="fill:none;stroke:#000000;stroke-width:0.5" />
<path d="M64.055,247.07L72.055,247.07" style="fill:none;stroke:#000000;stroke-width:0.5" />
<path d="M64.055,408.61L72.055,408.61" style="fill:none;stroke:#000000;stroke-width:0.5" />
<path d="M68.055,166.3L72.055,166.3" style="fill:none;stroke:#000000;stroke-width:0.5" />
<path d="M68.055,327.84L72.055,327.84" style="fill:none;stroke:#000000;stroke-width:0.5" />
<path d="M72.055,45.151L72.055,416.58" style="fill:none;stroke:#000000;stroke-width:0.5" />
<path d="M77.805,416.58L108.39,52.414L112.37,66.662L113.7,59.081L115.03,48.524L116.36,58.8L119.02,70.293L121.68,52.521L123.01,77.49L124.34,73.388L125.67,48.592L128.33,48.505L129.66,117.7L130.99,66.383L132.32,84.373L133.65,73.243L134.98,69.927L136.31,55.663L138.97,52.44L141.63,48.565L142.95,76.855L144.28,45.434L145.61,59.436L146.94,45.696L148.27,49.358L149.6,45.81L150.93,46.08L152.26,63.365L153.59,60.924L154.92,68.431L156.25,63.62L157.58,48.074L158.91,65.053L160.24,73.414L161.57,47.041L162.9,47.487L164.23,52.085L165.56,51.495L166.89,56.747L168.22,52.143L169.55,51.747L170.88,53.887L172.21,48.414L173.54,51.539L174.87,57.721L176.19,55.543L177.52,54.16L178.85,52.753L180.18,55.551L181.51,54.49L182.84,51.561L184.17,56.991L185.5,71.939L186.83,56.483L188.16,55.839L189.49,54.448L190.82,53.828L192.15,49.421L193.48,51.306L194.81,56.105L196.14,51.4L197.47,55.968L198.8,52.831L200.13,54.391L201.46,53.295L202.79,49.237L204.12,52.608L205.45,53.955L206.78,55.671L208.11,55.075L209.43,52.474L210.76,56.674L212.09,56.075L213.42,52.485L214.75,51.437L216.08,51.312L217.41,51.19L218.74,50.841L220.07,51.86L221.4,51.981L222.73,49.621L224.06,50.994L225.39,50.435L226.72,50.45L228.05,49.768L229.38,49.952L230.71,51.763L232.04,51.636L233.37,50.356L234.7,50.463L236.03,50.852L237.36,53.857L238.69,50.637L240.02,50.86L241.35,51.468L242.67,51.099L244,49.141L245.33,49.303L246.66,49.053L247.99,48.733L249.32,49.555L250.65,50.405L251.98,49.35L253.31,49.859L254.64,48.612L255.97,49.308L257.3,48.964L258.63,48.927L259.96,49.232L261.29,49.455L262.62,50.395L263.95,49.632L265.28,48.75L266.61,49.351L267.94,49.376L269.27,48.287L270.6,48.059L271.93,48.384L273.26,48.393L274.59,48.13L275.91,48.258L277.24,48.127L278.57,48.014L279.9,47.844L281.23,47.634L282.56,48.156L283.89,47.94L285.22,47.857L286.55,47.815L287.88,47.928L289.21,47.762L290.54,47.544L291.87,47.767L293.2,47.586L294.53,47.55L295.86,47.466L297.19,47.35L298.52,47.132L299.85,46.972L301.18,47.116L302.51,47.279L303.84,46.956L305.17,47.046L306.5,46.988L307.82,47.08L309.15,46.864L310.48,46.696L311.81,46.728L313.14,46.775L314.47,46.885L315.8,46.932L317.13,46.746L318.46,46.912L319.79,46.851L321.12,46.562L322.45,46.521L323.78,46.387L325.11,46.484L326.44,46.4L327.77,46.35L329.1,46.342L330.43,46.242L331.76,46.342L333.09,46.245L334.42,46.289L335.75,46.067L337.08,46.106L338.41,46.206L339.74,46.127L341.06,46.148L342.39,46.163L343.72,46.071L345.05,46.121L346.38,46.019L347.71,45.995L349.04,45.967L350.37,45.94L351.7,45.854L353.03,45.904L354.36,45.836L355.69,45.848L357.02,45.815L358.35,45.828L359.68,45.786L361.01,45.773L362.34,45.728L363.67,45.697L365,45.828L366.33,45.756L367.66,45.705L368.99,45.646L370.32,45.697L371.65,45.676L372.98,45.704L374.3,45.641L375.63,45.618L376.96,45.604L378.29,45.615L379.62,45.594L380.95,45.573L382.28,45.515L383.61,45.546L384.94,45.518L386.27,45.581L387.6,45.542L388.93,45.444L390.26,45.46L391.59,45.479L392.92,45.474L394.25,45.483L395.58,45.463L396.91,45.442L398.24,45.431L399.57,45.442L400.9,45.444L402.23,45.428L403.56,45.399L404.89,45.365L406.22,45.384L407.54,45.348L408.87,45.371L410.2,45.35L411.53,45.36L412.86,45.35L414.19,45.334L415.52,45.329L416.85,45.34L418.18,45.313L419.51,45.337L420.84,45.345L422.17,45.29L423.5,45.285L424.83,45.31L426.16,45.29L427.49,45.31L428.82,45.3L430.15,45.266L431.48,45.285L432.81,45.282L434.14,45.245L435.47,45.256L436.8,45.266L438.13,45.234L439.46,45.245L440.78,45.235L442.11,45.263L443.44,45.248L444.77,45.253L446.1,45.25L447.43,45.237L448.76,45.258L450.09,45.248L451.42,45.221L452.75,45.235L454.08,45.216L455.41,45.221L456.74,45.192L458.07,45.213L459.4,45.222L460.73,45.237L462.06,45.201L463.39,45.21L464.72,45.205L466.05,45.205L467.38,45.219L468.71,45.2L470.04,45.19L471.37,45.198L472.69,45.19L474.02,45.203L475.35,45.182L476.68,45.197L478.01,45.189L479.34,45.197L480.67,45.189L482,45.197L483.33,45.185L484.66,45.177L485.99,45.177L487.32,45.185L488.65,45.184L489.98,45.184L491.31,45.179L492.64,45.187L493.97,45.171L495.3,45.168L496.63,45.163L497.96,45.184L499.29,45.168L500.62,45.163L501.95,45.169L503.28,45.166L504.61,45.169L505.93,45.174L507.26,45.169L508.59,45.163L509.92,45.164L511.25,45.166L512.58,45.159L513.91,45.172L515.24,45.166L516.57,45.153L517.9,45.166L519.23,45.159L520.56,45.159L521.89,45.158L523.22,45.159L524.55,45.151L525.88,45.158L527.21,45.153L528.54,45.163L529.87,45.155L531.2,45.161L532.53,45.156L533.86,45.151L535.19,45.156L536.52,45.161L537.85,45.159L539.17,45.156L540.5,45.156L541.83,45.153L543.16,45.153L544.49,45.166L545.82,45.156L547.15,45.153L548.48,45.161L549.81,45.159L551.14,45.155L552.47,45.153L553.8,45.151L555.13,45.158L556.46,45.156L557.79,45.156L559.12,45.153L560.45,45.153L561.78,45.153L564.44,45.155L565.77,45.153L567.1,45.153L568.43,45.153L569.76,45.151L572.41,45.153L573.74,45.153L575.07,45.151L576.4,45.153L577.73,45.153L579.06,45.151L580.39,45.155L584.38,45.153L585.71,45.151L587.04,45.153L588.37,45.153L589.7,45.151L591.03,45.155L595.02,45.153L596.35,45.153L597.68,45.151L601.67,45.151L603,45.155L604.33,45.151L605.65,45.151L608.31,45.153L612.3,45.151L614.96,45.151L616.29,45.151L621.61,45.151L624.27,45.151L625.6,45.151L626.93,45.151L638.89,45.151L641.55,45.151L648.2,45.151L652.19,45.151L662.83,45.151L685.43,45.151L720,45.151" style="fill:none;stroke:#0000FF" />
</g>
</svg>
