<?xml version="1.0"?>
<!-- Generated by SVGo and Plotinum VG -->
<svg width="720pt" height="432pt" viewBox="0 0 720 432"
	xmlns="http://www.w3.org/2000/svg"
	xmlns:xlink="http://www.w3.org/1999/xlink">
<g transform="scale(1, -1) translate(0, -432)">
<path d="M0,0L720,0L720,432L0,432Z" style="fill:#FFFFFF" />
<text x="358.5" y="-420.45" transform="scale(1, -1)"
	style="font-family:Times;font-weight:normal;font-style:normal;font-size:12px"> </text>
<text x="378.69" y="-3.8613" transform="scale(1, -1)"
	style="font-family:Times;font-weight:normal;font-style:normal;font-size:12px">Costs</text>
<text x="69.055" y="-18.634" transform="scale(1, -1)"
	style="font-family:Times;font-weight:normal;font-style:normal;font-size:10px">0.00</text>
<text x="378.28" y="-18.634" transform="scale(1, -1)"
	style="font-family:Times;font-weight:normal;font-style:normal;font-size:10px">250.00</text>
<text x="692.5" y="-18.634" transform="scale(1, -1)"
	style="font-family:Times;font-weight:normal;font-style:normal;font-size:10px">500.00</text>
<path d="M77.805,28.263L77.805,36.263" style="fill:none;stroke:#000000;stroke-width:0.5" />
<path d="M392.03,28.263L392.03,36.263" style="fill:none;stroke:#000000;stroke-width:0.5" />
<path d="M706.25,28.263L706.25,36.263" style="fill:none;stroke:#000000;stroke-width:0.5" />
<path d="M140.65,32.263L140.65,36.263" style="fill:none;stroke:#000000;stroke-width:0.5" />
<path d="M203.49,32.263L203.49,36.263" style="fill:none;stroke:#000000;stroke-width:0.5" />
<path d="M266.34,32.263L266.34,36.263" style="fill:none;stroke:#000000;stroke-width:0.5" />
<path d="M329.18,32.263L329.18,36.263" style="fill:none;stroke:#000000;stroke-width:0.5" />
<path d="M454.87,32.263L454.87,36.263" style="fill:none;stroke:#000000;stroke-width:0.5" />
<path d="M517.72,32.263L517.72,36.263" style="fill:none;stroke:#000000;stroke-width:0.5" />
<path d="M580.56,32.263L580.56,36.263" style="fill:none;stroke:#000000;stroke-width:0.5" />
<path d="M643.41,32.263L643.41,36.263" style="fill:none;stroke:#000000;stroke-width:0.5" />
<path d="M77.805,36.263L706.25,36.263" style="fill:none;stroke:#000000;stroke-width:0.5" />
<g transform="rotate(90)">
<text x="152.55" y="11.555" transform="scale(1, -1)"
	style="font-family:Times;font-weight:normal;font-style:normal;font-size:12px">Number of trials (1000000 total)</text>
</g>
<text x="24.055" y="-90.486" transform="scale(1, -1)"
	style="font-family:Times;font-weight:normal;font-style:normal;font-size:10px">25000.00</text>
<text x="19.055" y="-236.11" transform="scale(1, -1)"
	style="font-family:Times;font-weight:normal;font-style:normal;font-size:10px">100000.00</text>
<text x="19.055" y="-381.74" transform="scale(1, -1)"
	style="font-family:Times;font-weight:normal;font-style:normal;font-size:10px">175000.00</text>
<path d="M64.055,93.692L72.055,93.692" style="fill:none;stroke:#000000;stroke-width:0.5" />
<path d="M64.055,239.32L72.055,239.32" style="fill:none;stroke:#000000;stroke-width:0.5" />
<path d="M64.055,384.95L72.055,384.95" style="fill:none;stroke:#000000;stroke-width:0.5" />
<path d="M68.055,166.51L72.055,166.51" style="fill:none;stroke:#000000;stroke-width:0.5" />
<path d="M68.055,312.13L72.055,312.13" style="fill:none;stroke:#000000;stroke-width:0.5" />
<path d="M72.055,45.151L72.055,416.58" style="fill:none;stroke:#000000;stroke-width:0.5" />
<path d="M77.805,416.58L106.71,48.555L107.97,48.483L110.48,66.873L111.74,48.578L113,51.842L114.25,70.541L115.51,52.048L116.77,55.334L118.03,55.648L119.28,55.765L120.54,66.368L121.8,80.393L123.05,48.532L124.31,66.159L125.57,52.275L126.82,69.695L129.34,70.164L130.59,55.862L131.85,76.038L133.11,69.863L134.36,70.195L135.62,81.384L136.88,45.179L138.14,52.198L139.39,92.11L140.65,81.024L141.91,48.658L143.16,45.773L144.42,74.071L145.68,70.205L146.93,57.613L148.19,63.374L149.45,50.006L150.7,49.947L151.96,60.811L153.22,61.512L154.48,73.434L155.73,47.466L156.99,55.842L158.25,48.934L159.5,49.039L160.76,49.011L162.02,64.24L163.27,50.134L164.53,51.543L165.79,51.749L167.04,54.322L168.3,54.94L169.56,52.209L170.81,53.081L172.07,54.411L173.33,55.132L174.59,53.275L175.84,57.322L177.1,56.2L178.36,57.619L179.61,58.654L180.87,56.254L182.13,57.314L183.38,59.211L184.64,58.86L185.9,55.472L187.15,59.196L188.41,59.207L189.67,59.056L190.92,57.978L192.18,57.687L193.44,57.619L194.7,58.12L195.95,58.454L197.21,59.273L198.47,57.769L199.72,54.837L200.98,57.497L202.24,59.466L203.49,55.8L204.75,52.285L206.01,57.677L207.26,55.969L208.52,56.734L209.78,55.169L211.04,54.965L212.29,53.371L213.55,52.862L214.81,54.394L216.06,55.522L217.32,52.701L218.58,51.786L219.83,52.99L221.09,52.641L222.35,52.087L223.6,53.32L224.86,52.976L226.12,50.299L227.37,50.899L228.63,52.108L229.89,52.12L231.15,51.72L232.4,51.134L233.66,51.549L234.92,51.074L236.17,51.404L237.43,51.409L238.69,51.934L239.94,50.914L241.2,51.73L242.46,51.406L243.71,51.217L244.97,51.244L246.23,51.359L247.48,51.293L248.74,51.056L250,51.378L251.26,51.312L252.51,51.066L253.77,51.116L255.03,50.965L256.28,50.924L257.54,50.813L258.8,50.843L260.05,50.683L261.31,50.318L262.57,50.419L263.82,50.588L265.08,50.256L266.34,49.934L267.6,49.716L268.85,50.176L270.11,49.382L271.37,49.571L272.62,49.303L273.88,49.324L275.14,49.07L276.39,49.215L277.65,49.019L278.91,48.92L280.16,48.662L281.42,48.549L282.68,48.751L283.93,48.285L285.19,48.596L286.45,48.415L287.71,48.279L288.96,47.978L290.22,48.289L291.48,48.149L292.73,48.048L293.99,47.72L295.25,47.977L296.5,47.868L297.76,47.67L299.02,47.794L300.27,47.73L301.53,47.608L302.79,47.503L304.04,47.538L305.3,47.483L306.56,47.431L307.82,47.353L309.07,47.309L310.33,47.229L311.59,47.237L312.84,47.241L314.1,47.157L315.36,47.128L316.61,47.159L317.87,47.184L319.13,47.105L320.38,47.124L321.64,47.013L322.9,46.897L324.16,46.922L325.41,46.777L326.67,46.922L327.93,46.697L329.18,46.796L330.44,46.709L331.7,46.685L332.95,46.635L334.21,46.553L335.47,46.59L336.72,46.495L337.98,46.421L339.24,46.384L340.49,46.326L341.75,46.307L343.01,46.268L344.27,46.295L345.52,46.213L346.78,46.233L348.04,46.219L349.29,46.118L350.55,46.062L351.81,46.019L353.06,46.097L354.32,46.074L355.58,45.98L356.83,46.006L358.09,46.015L359.35,46.002L360.61,45.92L361.86,45.973L363.12,45.866L364.38,45.839L365.63,45.88L366.89,45.887L368.15,45.802L369.4,45.862L370.66,45.813L371.92,45.761L373.17,45.744L374.43,45.784L375.69,45.732L376.94,45.736L378.2,45.627L379.46,45.654L380.72,45.621L381.97,45.693L383.23,45.645L384.49,45.639L385.74,45.637L387,45.606L388.26,45.573L389.51,45.522L390.77,45.518L392.03,45.577L393.28,45.497L394.54,45.563L395.8,45.518L397.05,45.503L398.31,45.476L399.57,45.433L400.83,45.466L402.08,45.435L403.34,45.468L404.6,45.462L405.85,45.388L407.11,45.427L408.37,45.474L409.62,45.423L410.88,45.406L412.14,45.412L413.39,45.384L414.65,45.423L415.91,45.382L417.17,45.357L418.42,45.353L419.68,45.386L420.94,45.346L422.19,45.324L423.45,45.33L424.71,45.346L425.96,45.344L427.22,45.326L428.48,45.314L429.73,45.324L430.99,45.332L432.25,45.303L433.5,45.313L434.76,45.285L436.02,45.299L437.28,45.299L438.53,45.299L439.79,45.262L441.05,45.281L442.3,45.262L443.56,45.256L444.82,45.258L446.07,45.233L447.33,45.254L448.59,45.254L449.84,45.227L451.1,45.252L452.36,45.248L453.61,45.219L454.87,45.26L456.13,45.214L457.39,45.219L458.64,45.202L459.9,45.202L461.16,45.243L462.41,45.215L463.67,45.2L464.93,45.202L466.18,45.225L467.44,45.204L468.7,45.198L469.95,45.21L471.21,45.21L472.47,45.214L473.73,45.184L474.98,45.196L476.24,45.198L477.5,45.196L478.75,45.186L480.01,45.202L481.27,45.19L482.52,45.192L483.78,45.175L485.04,45.18L486.29,45.182L487.55,45.182L488.81,45.188L490.06,45.184L491.32,45.179L492.58,45.188L493.84,45.169L495.09,45.18L496.35,45.171L497.61,45.184L498.86,45.177L500.12,45.169L501.38,45.173L502.63,45.167L503.89,45.167L505.15,45.165L506.4,45.171L507.66,45.175L508.92,45.163L510.18,45.157L511.43,45.177L512.69,45.161L513.95,45.18L515.2,45.163L516.46,45.175L517.72,45.163L518.97,45.157L520.23,45.165L521.49,45.155L522.74,45.153L524,45.157L525.26,45.163L526.51,45.159L527.77,45.155L529.03,45.165L530.29,45.153L531.54,45.161L532.8,45.169L534.06,45.157L535.31,45.161L536.57,45.157L537.83,45.163L539.08,45.155L540.34,45.157L541.6,45.155L542.85,45.155L544.11,45.155L545.37,45.157L546.62,45.161L547.88,45.157L549.14,45.153L550.4,45.159L551.65,45.155L552.91,45.159L554.17,45.157L555.42,45.151L556.68,45.159L559.19,45.153L560.45,45.153L561.71,45.153L562.96,45.153L565.48,45.163L566.74,45.157L567.99,45.151L570.51,45.155L573.02,45.153L574.28,45.153L575.53,45.151L576.79,45.151L578.05,45.153L579.3,45.153L580.56,45.157L583.07,45.151L585.59,45.151L586.85,45.155L589.36,45.151L591.87,45.151L593.13,45.151L594.39,45.151L595.64,45.153L600.67,45.151L601.93,45.151L604.44,45.151L606.96,45.153L610.73,45.153L614.5,45.151L617.01,45.151L618.27,45.151L622.04,45.151L623.3,45.151L624.55,45.151L625.81,45.151L634.61,45.151L647.18,45.151L648.43,45.151L703.74,45.151L706.25,45.151" style="fill:none;stroke:#0000FF" />
</g>
</svg>
