<?xml version="1.0"?>
<!-- Generated by SVGo and Plotinum VG -->
<svg width="720pt" height="432pt" viewBox="0 0 720 432"
	xmlns="http://www.w3.org/2000/svg"
	xmlns:xlink="http://www.w3.org/1999/xlink">
<g transform="scale(1, -1) translate(0, -432)">
<path d="M0,0L720,0L720,432L0,432Z" style="fill:#FFFFFF" />
<text x="358.5" y="-420.45" transform="scale(1, -1)"
	style="font-family:Times;font-weight:normal;font-style:normal;font-size:12px"> </text>
<text x="379.31" y="-3.8613" transform="scale(1, -1)"
	style="font-family:Times;font-weight:normal;font-style:normal;font-size:12px">Costs</text>
<text x="56.555" y="-18.634" transform="scale(1, -1)"
	style="font-family:Times;font-weight:normal;font-style:normal;font-size:10px">0.00</text>
<text x="363.31" y="-18.634" transform="scale(1, -1)"
	style="font-family:Times;font-weight:normal;font-style:normal;font-size:10px">250.00</text>
<text x="675.07" y="-18.634" transform="scale(1, -1)"
	style="font-family:Times;font-weight:normal;font-style:normal;font-size:10px">500.00</text>
<path d="M65.305,28.263L65.305,36.263" style="fill:none;stroke:#000000;stroke-width:0.5" />
<path d="M377.06,28.263L377.06,36.263" style="fill:none;stroke:#000000;stroke-width:0.5" />
<path d="M688.82,28.263L688.82,36.263" style="fill:none;stroke:#000000;stroke-width:0.5" />
<path d="M127.66,32.263L127.66,36.263" style="fill:none;stroke:#000000;stroke-width:0.5" />
<path d="M190.01,32.263L190.01,36.263" style="fill:none;stroke:#000000;stroke-width:0.5" />
<path d="M252.36,32.263L252.36,36.263" style="fill:none;stroke:#000000;stroke-width:0.5" />
<path d="M314.71,32.263L314.71,36.263" style="fill:none;stroke:#000000;stroke-width:0.5" />
<path d="M439.42,32.263L439.42,36.263" style="fill:none;stroke:#000000;stroke-width:0.5" />
<path d="M501.77,32.263L501.77,36.263" style="fill:none;stroke:#000000;stroke-width:0.5" />
<path d="M564.12,32.263L564.12,36.263" style="fill:none;stroke:#000000;stroke-width:0.5" />
<path d="M626.47,32.263L626.47,36.263" style="fill:none;stroke:#000000;stroke-width:0.5" />
<path d="M65.305,36.263L720,36.263" style="fill:none;stroke:#000000;stroke-width:0.5" />
<g transform="rotate(90)">
<text x="152.55" y="11.555" transform="scale(1, -1)"
	style="font-family:Times;font-weight:normal;font-style:normal;font-size:12px">Number of trials (1000000 total)</text>
</g>
<text x="24.055" y="-108.68" transform="scale(1, -1)"
	style="font-family:Times;font-weight:normal;font-style:normal;font-size:10px">30000</text>
<text x="24.055" y="-242.16" transform="scale(1, -1)"
	style="font-family:Times;font-weight:normal;font-style:normal;font-size:10px">90000</text>
<text x="19.055" y="-375.63" transform="scale(1, -1)"
	style="font-family:Times;font-weight:normal;font-style:normal;font-size:10px">150000</text>
<path d="M51.555,111.89L59.555,111.89" style="fill:none;stroke:#000000;stroke-width:0.5" />
<path d="M51.555,245.36L59.555,245.36" style="fill:none;stroke:#000000;stroke-width:0.5" />
<path d="M51.555,378.84L59.555,378.84" style="fill:none;stroke:#000000;stroke-width:0.5" />
<path d="M55.555,178.63L59.555,178.63" style="fill:none;stroke:#000000;stroke-width:0.5" />
<path d="M55.555,312.1L59.555,312.1" style="fill:none;stroke:#000000;stroke-width:0.5" />
<path d="M59.555,45.151L59.555,416.58" style="fill:none;stroke:#000000;stroke-width:0.5" />
<path d="M65.305,416.58L95.234,48.488L98.975,48.45L100.22,75.878L101.47,66.269L103.96,66.512L105.21,59.026L106.46,97.897L107.7,69.644L108.95,59.022L110.2,66.594L111.45,55.64L112.69,55.785L113.94,48.631L115.19,62.363L116.43,66.194L117.68,48.586L118.93,84.889L120.17,55.349L121.42,48.477L122.67,55.431L125.16,48.524L126.41,85.036L127.66,84.289L128.9,45.18L130.15,45.498L131.4,90.84L132.64,56.067L133.89,45.683L135.14,78.596L136.39,57.974L137.63,52.488L138.88,58.214L140.13,74.449L141.37,79.335L142.62,57.723L143.87,55.585L145.12,51.064L146.36,50.802L147.61,50.07L148.86,73.041L150.1,51.087L151.35,52.773L152.6,50.575L153.84,52.917L155.09,51.612L156.34,72.058L157.59,57.153L158.83,50.824L160.08,53.503L161.33,56.243L162.57,55.209L163.82,52.771L165.07,58.067L166.31,83.005L167.56,57.278L168.81,57.093L170.06,58.303L171.3,55.296L172.55,58.935L173.8,57.015L175.04,55.093L176.29,61.137L177.54,58.546L178.79,56.243L180.03,58.161L181.28,60.323L182.53,58.933L183.77,56.096L185.02,59.271L186.27,54.926L187.51,53.356L188.76,58.637L190.01,55.554L191.26,54.704L192.5,58.39L193.75,57.778L195,54.437L196.24,54.646L197.49,58.457L198.74,54.448L199.98,52.691L201.23,59.293L202.48,60.579L203.73,54.37L204.97,54.088L206.22,56.75L207.47,58.007L208.71,53.767L209.96,58.41L211.21,57.367L212.46,52.526L213.7,52.524L214.95,53.789L216.2,54.695L217.44,55.382L218.69,56.088L219.94,54.174L221.18,51.249L222.43,53.896L223.68,53.905L224.93,52.101L226.17,53.578L227.42,55.52L228.67,53.603L229.91,51.598L231.16,53.278L232.41,56.452L233.65,52.461L234.9,51.903L236.15,53.667L237.4,52.07L238.64,51.87L239.89,53.592L241.14,53.042L242.38,53.874L243.63,52.117L244.88,51.714L246.13,51.727L247.37,51.334L248.62,51.514L249.87,52.388L251.11,51.669L252.36,51.173L253.61,50.869L254.85,51.236L256.1,51.156L257.35,52.281L258.6,51.116L259.84,50.82L261.09,50.677L262.34,50.488L263.58,50.915L264.83,50.679L266.08,50.277L267.32,50.482L268.57,51.027L269.82,50.179L271.07,49.979L272.31,50.568L273.56,50.27L274.81,49.641L276.05,50.161L277.3,50.266L278.55,49.718L279.8,49.861L281.04,49.632L282.29,49.549L283.54,49.249L284.78,49.52L286.03,49.552L287.28,48.895L288.52,49.069L289.77,49.136L291.02,48.653L292.27,48.838L293.51,49.213L294.76,48.833L296.01,48.564L297.25,48.657L298.5,48.704L299.75,48.348L301,48.337L302.24,48.786L303.49,48.41L304.74,48.192L305.98,47.997L307.23,48.128L308.48,48.037L309.72,47.943L310.97,48.288L312.22,48.123L313.47,47.594L314.71,47.841L315.96,47.785L317.21,47.676L318.45,47.727L319.7,47.745L320.95,47.267L322.19,47.403L323.44,47.538L324.69,47.456L325.94,47.4L327.18,47.394L328.43,47.374L329.68,47.202L330.92,47.087L332.17,47.202L333.42,47.096L334.67,47.085L335.91,46.976L337.16,46.871L338.41,46.895L339.65,46.833L340.9,46.993L342.15,46.771L343.39,46.822L344.64,46.755L345.89,46.629L347.14,46.764L348.38,46.682L349.63,46.515L350.88,46.537L352.12,46.671L353.37,46.486L354.62,46.466L355.86,46.468L357.11,46.397L358.36,46.426L359.61,46.482L360.85,46.322L362.1,46.25L363.35,46.386L364.59,46.299L365.84,46.184L367.09,46.33L368.34,46.233L369.58,46.215L370.83,46.099L372.08,46.126L373.32,46.155L374.57,46.023L375.82,46.03L377.06,46.039L378.31,46.006L379.56,45.943L380.81,45.961L382.05,45.91L383.3,45.897L384.55,45.921L385.79,45.908L387.04,45.841L388.29,45.881L389.53,45.839L390.78,45.756L392.03,45.694L393.28,45.756L394.52,45.794L395.77,45.765L397.02,45.776L398.26,45.712L399.51,45.667L400.76,45.674L402.01,45.699L403.25,45.708L404.5,45.652L405.75,45.543L406.99,45.645L408.24,45.625L409.49,45.581L410.73,45.558L411.98,45.576L413.23,45.556L414.48,45.541L415.72,45.543L416.97,45.496L418.22,45.55L419.46,45.545L420.71,45.534L421.96,45.55L423.2,45.507L424.45,45.487L425.7,45.49L426.95,45.403L428.19,45.454L429.44,45.425L430.69,45.463L431.93,45.469L433.18,45.427L434.43,45.421L435.68,45.421L436.92,45.385L438.17,45.372L439.42,45.374L440.66,45.352L441.91,45.374L443.16,45.401L444.4,45.34L445.65,45.343L446.9,45.343L448.15,45.396L449.39,45.365L450.64,45.305L451.89,45.32L453.13,45.358L454.38,45.296L455.63,45.316L456.87,45.294L458.12,45.298L459.37,45.318L460.62,45.265L461.86,45.276L463.11,45.292L464.36,45.276L465.6,45.267L466.85,45.276L468.1,45.28L469.35,45.283L470.59,45.258L471.84,45.245L473.09,45.269L474.33,45.256L475.58,45.247L476.83,45.236L478.07,45.234L479.32,45.223L480.57,45.24L481.82,45.214L483.06,45.256L484.31,45.22L485.56,45.234L486.8,45.234L488.05,45.22L489.3,45.231L490.54,45.211L491.79,45.229L493.04,45.198L494.29,45.231L495.53,45.209L496.78,45.209L498.03,45.214L499.27,45.187L500.52,45.2L501.77,45.187L503.02,45.196L504.26,45.209L505.51,45.196L506.76,45.189L508,45.187L509.25,45.194L510.5,45.198L511.74,45.205L512.99,45.183L514.24,45.194L515.49,45.18L516.73,45.178L517.98,45.189L519.23,45.176L520.47,45.185L521.72,45.18L522.97,45.18L524.21,45.176L525.46,45.171L526.71,45.198L527.96,45.187L529.2,45.169L530.45,45.167L531.7,45.174L532.94,45.174L534.19,45.174L535.44,45.165L536.69,45.169L537.93,45.167L539.18,45.165L540.43,45.174L541.67,45.165L542.92,45.16L544.17,45.169L545.41,45.16L546.66,45.171L547.91,45.158L549.16,45.174L550.4,45.16L551.65,45.165L552.9,45.162L554.14,45.156L555.39,45.165L556.64,45.16L557.88,45.165L559.13,45.16L560.38,45.151L561.63,45.16L562.87,45.156L564.12,45.156L565.37,45.169L566.61,45.162L567.86,45.165L569.11,45.165L570.36,45.16L571.6,45.158L572.85,45.158L574.1,45.158L575.34,45.151L576.59,45.165L577.84,45.154L579.08,45.156L580.33,45.154L581.58,45.165L582.83,45.156L584.07,45.151L585.32,45.154L587.81,45.151L589.06,45.151L590.31,45.16L592.8,45.158L595.3,45.154L596.54,45.158L599.04,45.154L601.53,45.151L602.78,45.151L606.52,45.154L607.77,45.154L610.26,45.154L611.51,45.151L612.75,45.151L614,45.151L615.25,45.151L616.5,45.151L618.99,45.151L620.24,45.151L621.48,45.154L623.98,45.151L625.23,45.151L626.47,45.151L627.72,45.151L630.21,45.151L631.46,45.156L632.71,45.151L636.45,45.154L637.7,45.151L638.94,45.151L648.92,45.151L651.41,45.154L653.91,45.154L656.4,45.151L663.88,45.151L691.32,45.151L720,45.151" style="fill:none;stroke:#0000FF" />
</g>
</svg>
