<?xml version="1.0"?>
<!-- Generated by SVGo and Plotinum VG -->
<svg width="720pt" height="432pt" viewBox="0 0 720 432"
	xmlns="http://www.w3.org/2000/svg"
	xmlns:xlink="http://www.w3.org/1999/xlink">
<g transform="scale(1, -1) translate(0, -432)">
<path d="M0,0L720,0L720,432L0,432Z" style="fill:#FFFFFF" />
<text x="358.5" y="-420.45" transform="scale(1, -1)"
	style="font-family:Times;font-weight:normal;font-style:normal;font-size:12px"> </text>
<text x="376.81" y="-3.8613" transform="scale(1, -1)"
	style="font-family:Times;font-weight:normal;font-style:normal;font-size:12px">Costs</text>
<text x="57.805" y="-18.634" transform="scale(1, -1)"
	style="font-family:Times;font-weight:normal;font-style:normal;font-size:10px">0</text>
<text x="333.13" y="-18.634" transform="scale(1, -1)"
	style="font-family:Times;font-weight:normal;font-style:normal;font-size:10px">300</text>
<text x="613.45" y="-18.634" transform="scale(1, -1)"
	style="font-family:Times;font-weight:normal;font-style:normal;font-size:10px">600</text>
<path d="M60.305,28.263L60.305,36.263" style="fill:none;stroke:#000000;stroke-width:0.5" />
<path d="M340.63,28.263L340.63,36.263" style="fill:none;stroke:#000000;stroke-width:0.5" />
<path d="M620.95,28.263L620.95,36.263" style="fill:none;stroke:#000000;stroke-width:0.5" />
<path d="M153.75,32.263L153.75,36.263" style="fill:none;stroke:#000000;stroke-width:0.5" />
<path d="M247.19,32.263L247.19,36.263" style="fill:none;stroke:#000000;stroke-width:0.5" />
<path d="M434.07,32.263L434.07,36.263" style="fill:none;stroke:#000000;stroke-width:0.5" />
<path d="M527.51,32.263L527.51,36.263" style="fill:none;stroke:#000000;stroke-width:0.5" />
<path d="M714.39,32.263L714.39,36.263" style="fill:none;stroke:#000000;stroke-width:0.5" />
<path d="M60.305,36.263L720,36.263" style="fill:none;stroke:#000000;stroke-width:0.5" />
<g transform="rotate(90)">
<text x="152.55" y="11.555" transform="scale(1, -1)"
	style="font-family:Times;font-weight:normal;font-style:normal;font-size:12px">Number of trials (1000000 total)</text>
</g>
<text x="24.055" y="-106.56" transform="scale(1, -1)"
	style="font-family:Times;font-weight:normal;font-style:normal;font-size:10px">5000</text>
<text x="19.055" y="-235.82" transform="scale(1, -1)"
	style="font-family:Times;font-weight:normal;font-style:normal;font-size:10px">15000</text>
<text x="19.055" y="-365.09" transform="scale(1, -1)"
	style="font-family:Times;font-weight:normal;font-style:normal;font-size:10px">25000</text>
<path d="M46.555,109.77L54.555,109.77" style="fill:none;stroke:#000000;stroke-width:0.5" />
<path d="M46.555,239.03L54.555,239.03" style="fill:none;stroke:#000000;stroke-width:0.5" />
<path d="M46.555,368.29L54.555,368.29" style="fill:none;stroke:#000000;stroke-width:0.5" />
<path d="M50.555,174.4L54.555,174.4" style="fill:none;stroke:#000000;stroke-width:0.5" />
<path d="M50.555,303.66L54.555,303.66" style="fill:none;stroke:#000000;stroke-width:0.5" />
<path d="M54.555,45.151L54.555,416.58" style="fill:none;stroke:#000000;stroke-width:0.5" />
<path d="M60.305,416.58L80.862,64.605L81.796,51.744L82.731,49.094L84.599,53.127L85.534,72.374L86.468,56.423L87.403,52.3L90.206,108.36L91.14,89.061L92.075,55.518L93.009,158.93L93.944,92.965L94.878,52.377L95.812,52.674L96.747,141.4L97.681,83.658L98.616,122.35L99.55,116.01L100.48,132.76L101.42,68.897L102.35,86.903L103.29,75.011L104.22,45.19L105.16,49.133L106.09,71.598L107.03,118.12L107.96,109.19L108.89,45.397L109.83,89.876L110.76,109.32L111.7,56.501L112.63,100.41L113.57,54.458L114.5,50.942L115.44,95.369L116.37,50.852L117.3,62.602L118.24,90.199L119.17,81.655L120.11,56.19L121.04,61.839L121.98,61.244L122.91,94.658L123.84,77.066L124.78,66.156L125.71,68.444L126.65,87.536L127.58,74.752L128.52,99.506L129.45,139.68L130.39,98.239L131.32,96.649L132.25,103.73L133.19,110.05L134.12,85.778L135.06,119.21L135.99,124.07L136.93,104.4L137.86,100.95L138.8,104L139.73,115.5L140.66,114.84L141.6,86.425L142.53,96.533L143.47,112.46L144.4,93.831L145.34,103.73L146.27,107.31L147.21,101.64L148.14,109.86L149.07,112.69L150.01,102.28L150.94,97.825L151.88,98.097L152.81,92.836L153.75,86.761L154.68,95.382L155.61,97.657L156.55,90.432L157.48,99.053L158.42,93.741L159.35,101.37L160.29,99.028L161.22,93.599L162.16,106.28L163.09,100.13L164.02,80.039L164.96,105.52L165.89,116L166.83,95.822L167.76,114.34L168.7,118.27L169.63,115.12L170.57,105.1L171.5,104.34L172.43,105.74L173.37,107.78L174.3,106.29L175.24,111.95L176.17,116.53L177.11,110.87L178.04,106.2L178.98,111.01L179.91,107.73L180.84,104.66L181.78,116.68L182.71,111.98L183.65,105.46L184.58,110.65L185.52,110.3L186.45,107.77L187.38,112.56L188.32,110.21L189.25,102.28L190.19,105.98L191.12,106.02L192.06,104.7L192.99,104.3L193.93,103.5L194.86,104.91L195.79,103.93L196.73,100.97L197.66,105.52L198.6,109.59L199.53,104.2L200.47,102.47L201.4,105.19L202.34,105.19L203.27,99.945L204.2,108.19L205.14,107.73L206.07,105.04L207.01,105.06L207.94,106.43L208.88,105.26L209.81,103.97L210.75,102.72L211.68,104.35L212.61,104.06L213.55,101.06L214.48,104.16L215.42,108.57L216.35,102.09L217.29,104.65L218.22,104.88L219.15,103.31L220.09,103.55L221.02,103.13L221.96,100.68L222.89,99.325L223.83,103.6L224.76,101.56L225.7,100.33L226.63,98.575L227.56,98.691L228.5,98.743L229.43,97.076L230.37,96.727L231.3,98.485L232.24,97.321L233.17,96.481L234.11,97.696L235.04,95.68L235.97,94.917L236.91,96.029L237.84,97.399L238.78,92.319L239.71,93.146L240.65,95.977L241.58,93.754L242.52,92.009L243.45,92.694L244.38,93.728L245.32,93.172L246.25,90.949L247.19,91.246L248.12,93.146L249.06,91.388L249.99,89.178L250.92,91.336L251.86,89.708L252.79,90.031L253.73,89.268L254.66,88.519L255.6,88.842L256.53,88.157L257.47,87.213L258.4,88.053L259.33,87.316L260.27,86.683L261.2,86.657L262.14,85.558L263.07,85.365L264.01,84.886L264.94,83.193L265.88,84.227L266.81,83.568L267.74,83.878L268.68,83.981L269.61,82.392L270.55,82.922L271.48,82.379L272.42,81.862L273.35,82.004L274.29,80.996L275.22,79.819L276.15,78.966L277.09,80.453L278.02,80.285L278.96,79.574L279.89,78.1L280.83,78.449L281.76,77.893L282.69,78.023L283.63,77.299L284.56,76.316L285.5,76.562L286.43,75.709L287.37,76.058L288.3,75.993L289.24,74.196L290.17,74.817L291.1,73.873L292.04,74.248L292.97,72.71L293.91,73.279L294.84,72.775L295.78,72.826L296.71,71.883L297.65,72.348L298.58,71.973L299.51,70.745L300.45,71.883L301.38,70.887L302.32,70.693L303.25,70.461L304.19,69.065L305.12,69.672L306.06,68.935L306.99,68.819L307.92,68.173L308.86,68.25L309.79,67.914L310.73,67.294L311.66,66.738L312.6,66.893L313.53,67.423L314.46,66.35L315.4,65.445L316.33,64.851L317.27,64.269L318.2,64.786L319.14,64.463L320.07,63.571L321.01,64.67L321.94,63.623L322.87,64.411L323.81,62.705L324.74,62.628L325.68,62.408L326.61,61.606L327.55,61.283L328.48,61.257L329.42,61.929L330.35,61.503L331.28,62.072L332.22,60.159L333.15,60.353L334.09,59.409L335.02,60.559L335.96,59.823L336.89,60.184L337.83,59.874L338.76,59.396L339.69,59.137L340.63,58.349L341.56,59.202L342.5,58.09L343.43,57.832L344.37,58.168L345.3,57.974L346.23,57.121L347.17,57.457L348.1,57.56L349.04,56.475L349.97,56.139L350.91,56.1L351.84,56.061L352.78,56.436L353.71,55.725L354.64,56.229L355.58,55.583L356.51,55.247L357.45,54.665L358.38,55.428L359.32,54.006L360.25,54.988L361.19,54.962L362.12,54.833L363.05,53.76L363.99,54.549L364.92,52.985L365.86,53.592L366.79,53.708L367.73,52.998L368.66,53.062L369.6,52.571L370.53,52.7L371.46,53.01L372.4,52.429L373.33,52.778L374.27,52.429L375.2,52.429L376.14,52.002L377.07,52.028L378,51.537L378.94,51.757L379.87,51.537L380.81,51.602L381.74,50.761L382.68,51.291L383.61,51.589L384.55,50.826L385.48,50.994L386.41,50.567L387.35,50.658L388.28,50.438L389.22,50.516L390.15,50.154L391.09,50.141L392.02,50.012L392.96,49.895L393.89,49.805L394.82,49.856L395.76,49.533L396.69,49.585L397.63,49.533L398.56,49.197L399.5,49.417L400.43,49.133L401.37,49.146L402.3,48.538L403.23,49.12L404.17,49.146L405.1,48.202L406.04,48.719L406.97,48.163L407.91,48.758L408.84,48.564L409.78,48.473L410.71,48.228L411.64,48.241L412.58,48.176L413.51,47.995L414.45,48.15L415.38,47.956L416.32,48.008L417.25,48.021L418.18,47.556L419.12,47.594L420.05,47.62L420.99,47.569L421.92,47.827L422.86,47.607L423.79,47.452L424.73,47.633L425.66,47.413L426.59,47.258L427.53,47.155L428.46,47.142L429.4,47.504L430.33,47.271L431.27,46.883L432.2,47.258L433.14,46.896L434.07,46.922L435,46.974L435.94,46.974L436.87,47L437.81,46.819L438.74,46.651L439.68,46.871L440.61,46.78L441.55,46.754L442.48,46.69L443.41,46.328L444.35,46.431L445.28,46.69L446.22,46.289L447.15,46.522L448.09,46.547L449.02,46.509L449.95,46.211L450.89,46.185L451.82,46.341L452.76,46.237L453.69,46.108L454.63,46.004L455.56,46.263L456.5,46.211L457.43,46.134L458.36,46.134L459.3,46.121L460.23,46.16L461.17,46.237L462.1,45.927L463.04,46.095L463.97,46.134L464.91,46.056L465.84,45.992L466.77,45.966L467.71,45.927L468.64,45.811L469.58,45.811L470.51,45.836L471.45,45.862L472.38,45.772L473.32,45.759L474.25,45.888L475.18,45.759L476.12,45.707L477.05,45.772L477.99,45.824L478.92,45.604L479.86,45.72L480.79,45.694L481.72,45.604L482.66,45.849L483.59,45.63L484.53,45.694L485.46,45.72L486.4,45.513L487.33,45.591L488.27,45.578L489.2,45.436L490.13,45.526L491.07,45.526L492,45.5L492.94,45.552L493.87,45.578L494.81,45.397L495.74,45.513L496.68,45.462L497.61,45.449L498.54,45.423L499.48,45.487L500.41,45.423L501.35,45.5L502.28,45.449L503.22,45.332L504.15,45.41L505.09,45.358L506.02,45.319L506.95,45.436L507.89,45.41L508.82,45.306L509.76,45.384L510.69,45.384L511.63,45.358L512.56,45.294L513.49,45.229L514.43,45.319L515.36,45.371L516.3,45.306L517.23,45.319L518.17,45.384L519.1,45.294L520.04,45.281L520.97,45.268L521.9,45.229L522.84,45.358L523.77,45.242L524.71,45.242L525.64,45.242L526.58,45.268L527.51,45.294L528.45,45.306L529.38,45.294L530.31,45.371L531.25,45.255L532.18,45.281L533.12,45.255L534.05,45.306L534.99,45.294L535.92,45.306L536.86,45.242L537.79,45.268L538.72,45.229L539.66,45.177L540.59,45.281L541.53,45.203L542.46,45.216L543.4,45.268L544.33,45.19L545.26,45.203L546.2,45.203L547.13,45.203L548.07,45.19L549,45.229L549.94,45.255L550.87,45.19L551.81,45.164L552.74,45.151L553.67,45.203L554.61,45.177L555.54,45.268L556.48,45.177L557.41,45.164L558.35,45.229L559.28,45.203L560.22,45.164L561.15,45.177L562.08,45.229L563.02,45.177L564.89,45.164L565.82,45.177L566.76,45.164L567.69,45.19L568.63,45.177L569.56,45.164L570.49,45.19L571.43,45.19L572.36,45.164L573.3,45.177L574.23,45.177L575.17,45.203L576.1,45.151L577.03,45.151L577.97,45.164L578.9,45.164L579.84,45.164L581.71,45.216L582.64,45.151L583.58,45.151L586.38,45.177L587.31,45.151L589.18,45.151L590.12,45.151L591.05,45.164L591.99,45.164L592.92,45.151L594.79,45.164L596.66,45.164L597.59,45.164L598.53,45.151L599.46,45.177L600.4,45.151L602.26,45.164L603.2,45.151L607.87,45.151L608.8,45.151L609.74,45.151L612.54,45.151L613.48,45.151L614.41,45.151L618.15,45.151L619.08,45.151L621.89,45.151L634.97,45.151L636.84,45.164L639.64,45.151L663.94,45.151L686.36,45.151L689.16,45.151L690.1,45.151L720,45.151" style="fill:none;stroke:#0000FF" />
</g>
</svg>
