<?xml version="1.0"?>
<!-- Generated by SVGo and Plotinum VG -->
<svg width="720pt" height="432pt" viewBox="0 0 720 432"
	xmlns="http://www.w3.org/2000/svg"
	xmlns:xlink="http://www.w3.org/1999/xlink">
<g transform="scale(1, -1) translate(0, -432)">
<path d="M0,0L720,0L720,432L0,432Z" style="fill:#FFFFFF" />
<text x="358.5" y="-420.45" transform="scale(1, -1)"
	style="font-family:Times;font-weight:normal;font-style:normal;font-size:12px"> </text>
<text x="379.31" y="-3.8613" transform="scale(1, -1)"
	style="font-family:Times;font-weight:normal;font-style:normal;font-size:12px">Costs</text>
<text x="62.805" y="-18.634" transform="scale(1, -1)"
	style="font-family:Times;font-weight:normal;font-style:normal;font-size:10px">0</text>
<text x="368.09" y="-18.634" transform="scale(1, -1)"
	style="font-family:Times;font-weight:normal;font-style:normal;font-size:10px">200</text>
<text x="678.37" y="-18.634" transform="scale(1, -1)"
	style="font-family:Times;font-weight:normal;font-style:normal;font-size:10px">400</text>
<path d="M65.305,28.263L65.305,36.263" style="fill:none;stroke:#000000;stroke-width:0.5" />
<path d="M375.59,28.263L375.59,36.263" style="fill:none;stroke:#000000;stroke-width:0.5" />
<path d="M685.87,28.263L685.87,36.263" style="fill:none;stroke:#000000;stroke-width:0.5" />
<path d="M220.45,32.263L220.45,36.263" style="fill:none;stroke:#000000;stroke-width:0.5" />
<path d="M530.73,32.263L530.73,36.263" style="fill:none;stroke:#000000;stroke-width:0.5" />
<path d="M65.305,36.263L720,36.263" style="fill:none;stroke:#000000;stroke-width:0.5" />
<g transform="rotate(90)">
<text x="152.55" y="11.555" transform="scale(1, -1)"
	style="font-family:Times;font-weight:normal;font-style:normal;font-size:12px">Number of trials (1000000 total)</text>
</g>
<text x="24.055" y="-114.1" transform="scale(1, -1)"
	style="font-family:Times;font-weight:normal;font-style:normal;font-size:10px">50000</text>
<text x="19.055" y="-258.41" transform="scale(1, -1)"
	style="font-family:Times;font-weight:normal;font-style:normal;font-size:10px">150000</text>
<text x="19.055" y="-402.73" transform="scale(1, -1)"
	style="font-family:Times;font-weight:normal;font-style:normal;font-size:10px">250000</text>
<path d="M51.555,117.31L59.555,117.31" style="fill:none;stroke:#000000;stroke-width:0.5" />
<path d="M51.555,261.62L59.555,261.62" style="fill:none;stroke:#000000;stroke-width:0.5" />
<path d="M51.555,405.93L59.555,405.93" style="fill:none;stroke:#000000;stroke-width:0.5" />
<path d="M55.555,189.46L59.555,189.46" style="fill:none;stroke:#000000;stroke-width:0.5" />
<path d="M55.555,333.77L59.555,333.77" style="fill:none;stroke:#000000;stroke-width:0.5" />
<path d="M59.555,45.151L59.555,416.58" style="fill:none;stroke:#000000;stroke-width:0.5" />
<path d="M65.305,416.58L99.436,59.018L100.99,48.544L102.54,52.322L105.64,81.423L107.19,63.095L108.74,52.347L110.3,52.039L113.4,48.621L114.95,55.552L116.5,52.145L118.05,59.187L119.6,59.548L121.16,62.085L122.71,55.337L124.26,62.573L125.81,52.443L127.36,52.318L128.91,63.27L130.46,66.113L132.02,62.437L133.57,66.505L135.12,51.973L136.67,59.725L138.22,45.216L139.77,50.143L141.32,56.558L142.88,71.549L144.43,60.304L145.98,46.039L147.53,68.312L149.08,60.151L150.63,53.82L152.18,49.808L153.74,60.759L155.29,50.601L156.84,54.536L158.39,66.204L159.94,62.176L161.49,58.837L163.04,58.809L164.59,49.098L166.15,48.843L167.7,48.704L169.25,52.871L170.8,50.171L172.35,49.914L173.9,50.269L175.45,49.787L177.01,50.345L178.56,53.179L180.11,52.497L181.66,50.645L183.21,51.651L184.76,66.999L186.31,50.663L187.87,52.269L189.42,51.941L190.97,65.281L192.52,51.142L194.07,51.924L195.62,51.885L197.17,52.495L198.73,52.736L200.28,53.246L201.83,52.279L203.38,52.661L204.93,50.852L206.48,51.211L208.03,51.521L209.59,51.608L211.14,52.169L212.69,52.663L214.24,51.959L215.79,51.475L217.34,50.935L218.89,52.529L220.45,51.194L222,51.179L223.55,50.13L225.1,53.7L226.65,52.176L228.2,50.902L229.75,50.547L231.31,51.64L232.86,49.87L234.41,49.797L235.96,50.749L237.51,50.582L239.06,50.269L240.61,51.062L242.17,49.753L243.72,50.384L245.27,49.742L246.82,50.362L248.37,49.582L249.92,50.062L251.47,49.391L253.03,49.84L254.58,49.676L256.13,50.103L257.68,48.924L259.23,49.046L260.78,48.546L262.33,49.541L263.89,48.269L265.44,48.178L266.99,49.136L268.54,49.321L270.09,48.528L271.64,48.066L273.19,49.097L274.75,48.515L276.3,48.385L277.85,48.613L279.4,48.788L280.95,48.293L282.5,48.393L284.05,48.357L285.61,48.105L287.16,48.02L288.71,48.075L290.26,47.499L291.81,47.417L293.36,47.512L294.91,47.554L296.46,47.475L298.02,47.567L299.57,47.391L301.12,47.328L302.67,47.163L304.22,47.475L305.77,47.279L307.32,47.26L308.88,47.225L310.43,47.687L311.98,47.056L313.53,47.146L315.08,47.137L316.63,46.988L318.18,46.951L319.74,46.931L321.29,46.867L322.84,46.837L324.39,46.867L325.94,46.733L327.49,46.779L329.04,46.708L330.6,46.655L332.15,46.613L333.7,46.675L335.25,46.498L336.8,46.556L338.35,46.531L339.9,46.439L341.46,46.423L343.01,46.385L344.56,46.447L346.11,46.408L347.66,46.289L349.21,46.195L350.76,46.403L352.32,46.202L353.87,46.264L355.42,46.172L356.97,46.092L358.52,46.095L360.07,46.089L361.62,46.055L363.18,46.078L364.73,46.03L366.28,46.032L367.83,45.909L369.38,45.947L370.93,45.908L372.48,45.929L374.04,45.877L375.59,45.892L377.14,45.841L378.69,45.786L380.24,45.798L381.79,45.783L383.34,45.744L384.9,45.729L386.45,45.691L388,45.727L389.55,45.727L391.1,45.63L392.65,45.695L394.2,45.704L395.76,45.599L397.31,45.622L398.86,45.6L400.41,45.628L401.96,45.589L403.51,45.6L405.06,45.586L406.62,45.541L408.17,45.58L409.72,45.528L411.27,45.511L412.82,45.525L414.37,45.476L415.92,45.485L417.47,45.457L419.03,45.476L420.58,45.496L422.13,45.45L423.68,45.478L425.23,45.427L426.78,45.417L428.33,45.418L429.89,45.414L431.44,45.431L432.99,45.392L434.54,45.385L436.09,45.375L437.64,45.374L439.19,45.362L440.75,45.365L442.3,45.345L443.85,45.335L445.4,45.333L446.95,45.366L448.5,45.353L450.05,45.333L451.61,45.332L453.16,45.304L454.71,45.32L456.26,45.312L457.81,45.319L459.36,45.291L460.91,45.303L462.47,45.303L464.02,45.288L465.57,45.268L467.12,45.278L468.67,45.264L470.22,45.273L471.77,45.286L473.33,45.273L474.88,45.255L476.43,45.262L477.98,45.242L479.53,45.238L481.08,45.234L482.63,45.239L484.19,45.234L485.74,45.215L487.29,45.237L488.84,45.241L490.39,45.229L491.94,45.234L493.49,45.216L495.05,45.212L496.6,45.211L498.15,45.221L499.7,45.219L501.25,45.211L502.8,45.206L504.35,45.208L505.91,45.208L507.46,45.196L509.01,45.203L510.56,45.19L512.11,45.189L513.66,45.179L515.21,45.192L516.77,45.19L518.32,45.199L519.87,45.195L521.42,45.189L522.97,45.18L524.52,45.187L526.07,45.187L527.63,45.192L529.18,45.183L530.73,45.183L532.28,45.177L533.83,45.185L535.38,45.169L536.93,45.172L538.48,45.173L540.04,45.182L541.59,45.177L543.14,45.174L544.69,45.166L546.24,45.17L547.79,45.164L549.34,45.161L550.9,45.164L552.45,45.173L554,45.174L555.55,45.16L557.1,45.173L558.65,45.166L560.2,45.167L561.76,45.166L563.31,45.182L564.86,45.157L566.41,45.163L567.96,45.167L569.51,45.164L571.06,45.167L572.62,45.167L574.17,45.166L575.72,45.17L577.27,45.16L578.82,45.153L580.37,45.157L581.92,45.156L583.48,45.16L585.03,45.154L586.58,45.161L588.13,45.153L589.68,45.161L591.23,45.161L592.78,45.16L594.34,45.157L595.89,45.157L597.44,45.159L598.99,45.153L600.54,45.154L602.09,45.16L603.64,45.159L605.2,45.151L606.75,45.156L608.3,45.153L609.85,45.154L611.4,45.156L612.95,45.151L614.5,45.151L616.06,45.151L617.61,45.153L619.16,45.154L620.71,45.151L622.26,45.156L623.81,45.151L625.36,45.153L626.92,45.153L630.02,45.153L631.57,45.153L633.12,45.151L634.67,45.153L636.22,45.154L640.88,45.153L642.43,45.151L643.98,45.153L645.53,45.156L647.08,45.151L650.19,45.151L651.74,45.151L653.29,45.151L656.39,45.154L657.94,45.151L665.7,45.151L667.25,45.151L668.8,45.151L671.91,45.151L673.46,45.151L676.56,45.153L678.11,45.151L681.21,45.151L682.77,45.151L684.32,45.151L685.87,45.151L690.52,45.151L692.07,45.151L695.18,45.151L699.83,45.151L701.38,45.153L720,45.151" style="fill:none;stroke:#0000FF" />
</g>
</svg>
