<?xml version="1.0"?>
<!-- Generated by SVGo and Plotinum VG -->
<svg width="720pt" height="432pt" viewBox="0 0 720 432"
	xmlns="http://www.w3.org/2000/svg"
	xmlns:xlink="http://www.w3.org/1999/xlink">
<g transform="scale(1, -1) translate(0, -432)">
<path d="M0,0L720,0L720,432L0,432Z" style="fill:#FFFFFF" />
<text x="358.5" y="-420.45" transform="scale(1, -1)"
	style="font-family:Times;font-weight:normal;font-style:normal;font-size:12px"> </text>
<text x="379.31" y="-3.8613" transform="scale(1, -1)"
	style="font-family:Times;font-weight:normal;font-style:normal;font-size:12px">Costs</text>
<text x="62.805" y="-18.634" transform="scale(1, -1)"
	style="font-family:Times;font-weight:normal;font-style:normal;font-size:10px">0</text>
<text x="335.22" y="-18.634" transform="scale(1, -1)"
	style="font-family:Times;font-weight:normal;font-style:normal;font-size:10px">200</text>
<text x="612.63" y="-18.634" transform="scale(1, -1)"
	style="font-family:Times;font-weight:normal;font-style:normal;font-size:10px">400</text>
<path d="M65.305,28.263L65.305,36.263" style="fill:none;stroke:#000000;stroke-width:0.5" />
<path d="M342.72,28.263L342.72,36.263" style="fill:none;stroke:#000000;stroke-width:0.5" />
<path d="M620.13,28.263L620.13,36.263" style="fill:none;stroke:#000000;stroke-width:0.5" />
<path d="M204.01,32.263L204.01,36.263" style="fill:none;stroke:#000000;stroke-width:0.5" />
<path d="M481.42,32.263L481.42,36.263" style="fill:none;stroke:#000000;stroke-width:0.5" />
<path d="M65.305,36.263L720,36.263" style="fill:none;stroke:#000000;stroke-width:0.5" />
<g transform="rotate(90)">
<text x="152.55" y="11.555" transform="scale(1, -1)"
	style="font-family:Times;font-weight:normal;font-style:normal;font-size:12px">Number of trials (1000000 total)</text>
</g>
<text x="24.055" y="-108.65" transform="scale(1, -1)"
	style="font-family:Times;font-weight:normal;font-style:normal;font-size:10px">50000</text>
<text x="19.055" y="-242.07" transform="scale(1, -1)"
	style="font-family:Times;font-weight:normal;font-style:normal;font-size:10px">150000</text>
<text x="19.055" y="-375.49" transform="scale(1, -1)"
	style="font-family:Times;font-weight:normal;font-style:normal;font-size:10px">250000</text>
<path d="M51.555,111.86L59.555,111.86" style="fill:none;stroke:#000000;stroke-width:0.5" />
<path d="M51.555,245.28L59.555,245.28" style="fill:none;stroke:#000000;stroke-width:0.5" />
<path d="M51.555,378.69L59.555,378.69" style="fill:none;stroke:#000000;stroke-width:0.5" />
<path d="M55.555,178.57L59.555,178.57" style="fill:none;stroke:#000000;stroke-width:0.5" />
<path d="M55.555,311.98L59.555,311.98" style="fill:none;stroke:#000000;stroke-width:0.5" />
<path d="M59.555,45.151L59.555,416.58" style="fill:none;stroke:#000000;stroke-width:0.5" />
<path d="M65.305,416.58L95.82,48.556L97.207,48.491L101.37,55.428L102.76,65.548L104.14,62.641L108.3,58.984L111.08,55.505L112.46,73.927L113.85,51.997L115.24,48.652L116.63,48.582L120.79,52.121L122.17,55.2L123.56,52.057L124.95,73.321L126.34,81.294L127.72,51.978L131.88,55.825L133.27,49.02L134.66,45.516L136.05,52.245L138.82,76.894L140.21,63.215L141.59,46.113L142.98,64.073L144.37,49.246L145.75,63.956L147.14,56.611L148.53,50.179L149.92,47.425L151.3,78.831L152.69,81.652L154.08,46.088L155.46,46.828L156.85,46.188L158.24,50.389L159.63,46.998L161.01,47.406L162.4,48.528L163.79,49.442L165.17,47.797L166.56,59.843L167.95,57.705L169.33,48.607L170.72,48.087L172.11,59.339L173.5,48.996L174.88,48.487L176.27,66.805L177.66,69.704L179.04,48.08L180.43,47.401L181.82,50.038L183.21,50.304L184.59,49.323L185.98,52.413L187.37,50.076L188.75,50.919L190.14,51.211L191.53,49.309L192.91,48.655L194.3,49.285L195.69,49.193L197.08,48.541L198.46,52.261L199.85,53.855L201.24,49.664L202.62,49.262L204.01,49.493L205.4,50.116L206.79,50.1L208.17,49.591L209.56,50.122L210.95,50.235L212.33,53.9L213.72,54.613L215.11,50.264L216.49,49.055L217.88,48.591L219.27,50.911L220.66,48.915L222.04,48.36L223.43,50.301L224.82,51.98L226.2,52.537L227.59,50.903L228.98,49.533L230.37,48.702L231.75,49.426L233.14,50.956L234.53,48.971L235.91,48.791L237.3,50.73L238.69,52.632L240.08,48.528L241.46,47.768L242.85,47.666L244.24,48.196L245.62,48.63L247.01,48.323L248.4,47.861L249.78,49.294L251.17,49.75L252.56,49.245L253.95,49.593L255.33,49.046L256.72,47.92L258.11,49.227L259.49,49.083L260.88,47.434L262.27,48.263L263.66,50.621L265.04,48.83L266.43,46.846L267.82,46.794L269.2,47.501L270.59,47.194L271.98,47.161L273.36,47.733L274.75,47.474L276.14,47.001L277.53,47.625L278.91,48.163L280.3,47.513L281.69,46.839L283.07,47.37L284.46,47.602L285.85,47.303L287.24,47.266L288.62,48.063L290.01,46.883L291.4,46.883L292.78,46.939L294.17,46.987L295.56,46.883L296.94,46.947L298.33,47.038L299.72,47.186L301.11,47.134L302.49,46.767L303.88,46.583L305.27,46.754L306.65,46.835L308.04,46.53L309.43,46.582L310.82,46.842L312.2,47.026L313.59,46.68L314.98,46.615L316.36,46.582L317.75,46.392L319.14,46.554L320.52,46.551L321.91,46.369L323.3,46.36L324.69,46.644L326.07,46.56L327.46,46.179L328.85,46.204L330.23,46.213L331.62,46.251L333.01,46.204L334.4,46.173L335.78,46.225L337.17,46.284L338.56,46.279L339.94,46.3L341.33,46.06L342.72,45.996L344.11,46.069L345.49,46.119L346.88,45.935L348.27,45.868L349.65,46.032L351.04,46.016L352.43,45.848L353.81,45.778L355.2,45.845L356.59,45.842L357.98,45.822L359.36,45.864L360.75,45.814L362.14,45.808L363.52,45.84L364.91,45.798L366.3,45.864L367.69,45.698L369.07,45.702L370.46,45.754L371.85,45.67L373.23,45.577L374.62,45.684L376.01,45.734L377.39,45.553L378.78,45.568L380.17,45.621L381.56,45.596L382.94,45.536L384.33,45.598L385.72,45.6L387.1,45.618L388.49,45.502L389.88,45.521L391.27,45.525L392.65,45.52L394.04,45.516L395.43,45.516L396.81,45.489L398.2,45.496L399.59,45.478L400.97,45.46L402.36,45.464L403.75,45.418L405.14,45.437L406.52,45.47L407.91,45.413L409.3,45.429L410.68,45.428L412.07,45.404L413.46,45.374L414.85,45.38L416.23,45.377L417.62,45.418L419.01,45.355L420.39,45.362L421.78,45.374L423.17,45.362L424.55,45.394L425.94,45.329L427.33,45.335L428.72,45.335L430.1,45.343L431.49,45.325L432.88,45.306L434.26,45.309L435.65,45.295L437.04,45.315L438.43,45.321L439.81,45.279L441.2,45.281L442.59,45.283L443.97,45.275L445.36,45.281L446.75,45.266L448.13,45.286L449.52,45.293L450.91,45.278L452.3,45.258L453.68,45.249L455.07,45.234L456.46,45.263L457.84,45.229L459.23,45.241L460.62,45.229L462.01,45.235L463.39,45.231L464.78,45.217L466.17,45.223L467.55,45.221L468.94,45.223L470.33,45.199L471.72,45.237L473.1,45.201L474.49,45.213L475.88,45.225L477.26,45.205L478.65,45.202L480.04,45.206L481.42,45.217L482.81,45.218L484.2,45.206L485.59,45.211L486.97,45.205L488.36,45.191L489.75,45.19L491.13,45.198L492.52,45.194L493.91,45.203L495.3,45.185L496.68,45.205L498.07,45.197L499.46,45.189L500.84,45.186L502.23,45.178L503.62,45.186L505,45.182L506.39,45.181L507.78,45.191L509.17,45.181L510.55,45.189L511.94,45.177L513.33,45.174L514.71,45.175L516.1,45.171L517.49,45.178L518.88,45.177L520.26,45.175L521.65,45.174L523.04,45.175L524.42,45.178L525.81,45.165L527.2,45.178L528.58,45.163L529.97,45.167L531.36,45.169L532.75,45.169L534.13,45.163L535.52,45.166L536.91,45.167L538.29,45.178L539.68,45.165L541.07,45.166L542.46,45.157L543.84,45.166L545.23,45.163L546.62,45.161L548,45.161L549.39,45.165L550.78,45.163L552.16,45.169L553.55,45.162L554.94,45.154L556.33,45.159L557.71,45.166L559.1,45.157L560.49,45.155L561.87,45.159L563.26,45.158L564.65,45.157L566.04,45.155L567.42,45.157L568.81,45.162L570.2,45.159L571.58,45.161L572.97,45.157L574.36,45.159L575.75,45.157L577.13,45.154L578.52,45.158L579.91,45.153L581.29,45.154L582.68,45.161L584.07,45.158L585.45,45.153L586.84,45.153L589.62,45.154L591,45.158L592.39,45.153L593.78,45.161L595.16,45.158L596.55,45.154L597.94,45.155L599.33,45.151L600.71,45.151L602.1,45.153L603.49,45.155L604.87,45.153L606.26,45.153L607.65,45.155L609.03,45.154L610.42,45.151L611.81,45.153L613.2,45.153L614.58,45.151L615.97,45.151L617.36,45.153L618.74,45.153L620.13,45.151L621.52,45.153L622.91,45.151L625.68,45.153L627.07,45.151L628.45,45.153L629.84,45.154L631.23,45.153L632.61,45.151L634,45.153L635.39,45.155L638.16,45.151L645.1,45.151L649.26,45.153L650.65,45.153L652.03,45.151L654.81,45.151L658.97,45.151L661.74,45.151L665.9,45.151L670.07,45.151L672.84,45.151L675.61,45.151L677,45.151L679.78,45.151L682.55,45.151L697.81,45.151L720,45.151" style="fill:none;stroke:#0000FF" />
</g>
</svg>
