<?xml version="1.0"?>
<!-- Generated by SVGo and Plotinum VG -->
<svg width="720pt" height="432pt" viewBox="0 0 720 432"
	xmlns="http://www.w3.org/2000/svg"
	xmlns:xlink="http://www.w3.org/1999/xlink">
<g transform="scale(1, -1) translate(0, -432)">
<path d="M0,0L720,0L720,432L0,432Z" style="fill:#FFFFFF" />
<text x="358.5" y="-420.45" transform="scale(1, -1)"
	style="font-family:Times;font-weight:normal;font-style:normal;font-size:12px"> </text>
<text x="379.31" y="-3.8613" transform="scale(1, -1)"
	style="font-family:Times;font-weight:normal;font-style:normal;font-size:12px">Costs</text>
<text x="56.555" y="-18.634" transform="scale(1, -1)"
	style="font-family:Times;font-weight:normal;font-style:normal;font-size:10px">0.00</text>
<text x="365.71" y="-18.634" transform="scale(1, -1)"
	style="font-family:Times;font-weight:normal;font-style:normal;font-size:10px">250.00</text>
<text x="679.86" y="-18.634" transform="scale(1, -1)"
	style="font-family:Times;font-weight:normal;font-style:normal;font-size:10px">500.00</text>
<path d="M65.305,28.263L65.305,36.263" style="fill:none;stroke:#000000;stroke-width:0.5" />
<path d="M379.46,28.263L379.46,36.263" style="fill:none;stroke:#000000;stroke-width:0.5" />
<path d="M693.61,28.263L693.61,36.263" style="fill:none;stroke:#000000;stroke-width:0.5" />
<path d="M128.14,32.263L128.14,36.263" style="fill:none;stroke:#000000;stroke-width:0.5" />
<path d="M190.97,32.263L190.97,36.263" style="fill:none;stroke:#000000;stroke-width:0.5" />
<path d="M253.8,32.263L253.8,36.263" style="fill:none;stroke:#000000;stroke-width:0.5" />
<path d="M316.63,32.263L316.63,36.263" style="fill:none;stroke:#000000;stroke-width:0.5" />
<path d="M442.29,32.263L442.29,36.263" style="fill:none;stroke:#000000;stroke-width:0.5" />
<path d="M505.12,32.263L505.12,36.263" style="fill:none;stroke:#000000;stroke-width:0.5" />
<path d="M567.95,32.263L567.95,36.263" style="fill:none;stroke:#000000;stroke-width:0.5" />
<path d="M630.78,32.263L630.78,36.263" style="fill:none;stroke:#000000;stroke-width:0.5" />
<path d="M65.305,36.263L720,36.263" style="fill:none;stroke:#000000;stroke-width:0.5" />
<g transform="rotate(90)">
<text x="152.55" y="11.555" transform="scale(1, -1)"
	style="font-family:Times;font-weight:normal;font-style:normal;font-size:12px">Number of trials (1000000 total)</text>
</g>
<text x="24.055" y="-92.756" transform="scale(1, -1)"
	style="font-family:Times;font-weight:normal;font-style:normal;font-size:10px">20000</text>
<text x="24.055" y="-245.19" transform="scale(1, -1)"
	style="font-family:Times;font-weight:normal;font-style:normal;font-size:10px">80000</text>
<text x="19.055" y="-397.63" transform="scale(1, -1)"
	style="font-family:Times;font-weight:normal;font-style:normal;font-size:10px">140000</text>
<path d="M51.555,95.961L59.555,95.961" style="fill:none;stroke:#000000;stroke-width:0.5" />
<path d="M51.555,248.4L59.555,248.4" style="fill:none;stroke:#000000;stroke-width:0.5" />
<path d="M51.555,400.83L59.555,400.83" style="fill:none;stroke:#000000;stroke-width:0.5" />
<path d="M55.555,172.18L59.555,172.18" style="fill:none;stroke:#000000;stroke-width:0.5" />
<path d="M55.555,324.62L59.555,324.62" style="fill:none;stroke:#000000;stroke-width:0.5" />
<path d="M59.555,45.151L59.555,416.58" style="fill:none;stroke:#000000;stroke-width:0.5" />
<path d="M65.305,416.58L92.95,48.609L95.463,55.553L97.977,52.217L99.233,81.693L101.75,62.656L104.26,59.427L105.52,56.056L106.77,48.655L108.03,63.52L109.29,55.992L110.54,56.051L111.8,55.964L113.06,70.453L114.31,77.158L115.57,70.075L116.83,62.618L118.08,55.987L119.34,59.023L120.6,76.706L121.85,66.721L123.11,62.547L125.62,45.205L126.88,104.68L128.14,81.304L129.39,60.568L130.65,45.197L131.91,56.808L133.16,66.747L134.42,53.144L135.68,58.756L136.93,113.13L138.19,50.969L139.44,89.665L140.7,54.503L141.96,87.262L143.21,65.138L144.47,78.446L145.73,48.083L146.98,50.004L148.24,50.853L149.5,57.578L150.75,50.873L152.01,49.92L153.27,51.094L154.52,52.692L155.78,51.716L157.04,60.802L158.29,51.211L159.55,52.425L160.81,56.455L162.06,55.172L163.32,55.764L164.58,54.117L165.83,62.839L167.09,57.524L168.35,53.896L169.6,59.676L170.86,62.212L172.12,57.763L173.37,60.479L174.63,57.204L175.89,65.713L177.14,61.945L178.4,62.306L179.66,58.464L180.91,57.854L182.17,62.064L183.43,62.039L184.68,63.52L185.94,60.197L187.2,60.05L188.45,61.734L189.71,64.374L190.97,62.981L192.22,62.801L193.48,61.048L194.74,61.886L195.99,57.712L197.25,57.956L198.51,64.358L199.76,62.237L201.02,60.586L202.28,55.37L203.53,59.701L204.79,59.95L206.05,60.144L207.3,57.354L208.56,55.164L209.82,54.242L211.07,61.127L212.33,55.837L213.59,59.567L214.84,55.779L216.1,60.565L217.35,54.059L218.61,57.524L219.87,54.478L221.12,56.551L222.38,53.037L223.64,52.964L224.89,52.545L226.15,53.159L227.41,53.858L228.66,55.283L229.92,52.392L231.18,53.566L232.43,53.777L233.69,54.536L234.95,53.436L236.2,53.457L237.46,54.834L238.72,54.071L239.97,54.531L241.23,54.138L242.49,54.186L243.74,53.995L245,54.514L246.26,54.191L247.51,54.684L248.77,54.198L250.03,54.567L251.28,53.604L252.54,54.143L253.8,53.843L255.05,54.005L256.31,53.881L257.57,53.337L258.82,53.19L260.08,53.568L261.34,53.866L262.59,53.231L263.85,52.562L265.11,52.364L266.36,52.547L267.62,52.738L268.88,52.57L270.13,52.019L271.39,51.693L272.65,52.019L273.9,51.678L275.16,51.465L276.42,51.508L277.67,51.777L278.93,51.086L280.19,50.664L281.44,50.525L282.7,50.616L283.96,50.553L285.21,50.24L286.47,49.76L287.73,50.228L288.98,50.266L290.24,50.408L291.5,49.77L292.75,49.923L294.01,49.501L295.26,49.824L296.52,49.29L297.78,49.074L299.03,49.361L300.29,49.171L301.55,49.064L302.8,49.214L304.06,49.069L305.32,49.262L306.57,49.028L307.83,49.072L309.09,48.876L310.34,48.978L311.6,49.016L312.86,48.678L314.11,48.739L315.37,48.635L316.63,48.703L317.88,48.576L319.14,48.619L320.4,48.502L321.65,48.347L322.91,48.419L324.17,48.248L325.42,48.198L326.68,48.286L327.94,48.106L329.19,48.015L330.45,48.02L331.71,47.997L332.96,47.875L334.22,47.738L335.48,47.634L336.73,47.664L337.99,47.707L339.25,47.573L340.5,47.809L341.76,47.451L343.02,47.296L344.27,47.336L345.53,47.326L346.79,47.25L348.04,47.247L349.3,47.146L350.56,47.166L351.81,47.08L353.07,47.031L354.33,46.96L355.58,47.039L356.84,46.831L358.1,46.818L359.35,46.648L360.61,46.681L361.87,46.643L363.12,46.648L364.38,46.676L365.64,46.579L366.89,46.64L368.15,46.49L369.41,46.5L370.66,46.462L371.92,46.465L373.17,46.445L374.43,46.404L375.69,46.31L376.94,46.226L378.2,46.312L379.46,46.279L380.71,46.272L381.97,46.229L383.23,46.277L384.48,46.188L385.74,46.142L387,46.19L388.25,46.043L389.51,46.02L390.77,46.198L392.02,46L393.28,46.008L394.54,45.972L395.79,45.959L397.05,46.018L398.31,45.911L399.56,45.878L400.82,45.888L402.08,45.898L403.33,45.863L404.59,45.804L405.85,45.779L407.1,45.845L408.36,45.779L409.62,45.776L410.87,45.776L412.13,45.726L413.39,45.713L414.64,45.657L415.9,45.662L417.16,45.677L418.41,45.609L419.67,45.634L420.93,45.614L422.18,45.642L423.44,45.632L424.7,45.634L425.95,45.609L427.21,45.512L428.47,45.548L429.72,45.568L430.98,45.477L432.24,45.558L433.49,45.525L434.75,45.492L436.01,45.54L437.26,45.492L438.52,45.477L439.78,45.464L441.03,45.512L442.29,45.459L443.55,45.418L444.8,45.411L446.06,45.441L447.32,45.469L448.57,45.421L449.83,45.39L451.08,45.421L452.34,45.372L453.6,45.428L454.85,45.423L456.11,45.375L457.37,45.344L458.62,45.329L459.88,45.357L461.14,45.388L462.39,45.337L463.65,45.332L464.91,45.355L466.16,45.339L467.42,45.347L468.68,45.306L469.93,45.306L471.19,45.342L472.45,45.268L473.7,45.322L474.96,45.291L476.22,45.266L477.47,45.301L478.73,45.278L479.99,45.291L481.24,45.296L482.5,45.281L483.76,45.273L485.01,45.253L486.27,45.266L487.53,45.266L488.78,45.256L490.04,45.271L491.3,45.217L492.55,45.24L493.81,45.238L495.07,45.248L496.32,45.235L497.58,45.205L498.84,45.258L500.09,45.24L501.35,45.23L502.61,45.24L503.86,45.197L505.12,45.205L506.38,45.223L507.63,45.22L508.89,45.2L510.15,45.225L511.4,45.184L512.66,45.212L513.92,45.215L515.17,45.187L516.43,45.207L517.69,45.202L518.94,45.182L520.2,45.189L521.46,45.207L522.71,45.2L523.97,45.192L525.23,45.189L526.48,45.195L527.74,45.2L528.99,45.177L530.25,45.189L531.51,45.189L532.76,45.164L534.02,45.182L535.28,45.189L536.53,45.177L537.79,45.177L539.05,45.164L540.3,45.172L541.56,45.162L542.82,45.179L544.07,45.179L545.33,45.182L546.59,45.177L547.84,45.169L549.1,45.179L550.36,45.167L551.61,45.169L552.87,45.182L554.13,45.162L555.38,45.169L556.64,45.172L557.9,45.167L559.15,45.159L560.41,45.167L561.67,45.179L562.92,45.156L564.18,45.162L565.44,45.164L566.69,45.164L567.95,45.162L569.21,45.167L570.46,45.156L571.72,45.156L572.98,45.162L574.23,45.167L575.49,45.156L576.75,45.151L578,45.159L579.26,45.162L580.52,45.156L581.77,45.156L583.03,45.169L584.29,45.154L585.54,45.159L586.8,45.159L588.06,45.151L589.31,45.154L590.57,45.151L591.83,45.156L593.08,45.151L594.34,45.151L596.85,45.154L598.11,45.156L599.37,45.154L600.62,45.154L601.88,45.154L603.14,45.151L604.39,45.154L606.9,45.154L608.16,45.156L609.42,45.151L610.67,45.156L611.93,45.151L613.19,45.159L614.44,45.151L615.7,45.156L618.21,45.151L619.47,45.151L620.73,45.154L624.5,45.156L628.27,45.151L629.52,45.151L630.78,45.154L632.04,45.151L633.29,45.151L634.55,45.151L635.81,45.154L638.32,45.151L639.58,45.151L644.6,45.151L648.37,45.151L650.89,45.151L653.4,45.154L657.17,45.151L659.68,45.151L665.97,45.154L667.22,45.151L672.25,45.151L676.02,45.151L686.07,45.151L691.1,45.151L706.18,45.151L720,45.151" style="fill:none;stroke:#0000FF" />
</g>
</svg>
