<?xml version="1.0"?>
<!-- Generated by SVGo and Plotinum VG -->
<svg width="720pt" height="432pt" viewBox="0 0 720 432"
	xmlns="http://www.w3.org/2000/svg"
	xmlns:xlink="http://www.w3.org/1999/xlink">
<g transform="scale(1, -1) translate(0, -432)">
<path d="M0,0L720,0L720,432L0,432Z" style="fill:#FFFFFF" />
<text x="358.5" y="-420.45" transform="scale(1, -1)"
	style="font-family:Times;font-weight:normal;font-style:normal;font-size:12px"> </text>
<text x="379.31" y="-3.8613" transform="scale(1, -1)"
	style="font-family:Times;font-weight:normal;font-style:normal;font-size:12px">Costs</text>
<text x="62.805" y="-18.634" transform="scale(1, -1)"
	style="font-family:Times;font-weight:normal;font-style:normal;font-size:10px">0</text>
<text x="345.58" y="-18.634" transform="scale(1, -1)"
	style="font-family:Times;font-weight:normal;font-style:normal;font-size:10px">200</text>
<text x="633.36" y="-18.634" transform="scale(1, -1)"
	style="font-family:Times;font-weight:normal;font-style:normal;font-size:10px">400</text>
<path d="M65.305,28.263L65.305,36.263" style="fill:none;stroke:#000000;stroke-width:0.5" />
<path d="M353.08,28.263L353.08,36.263" style="fill:none;stroke:#000000;stroke-width:0.5" />
<path d="M640.86,28.263L640.86,36.263" style="fill:none;stroke:#000000;stroke-width:0.5" />
<path d="M209.19,32.263L209.19,36.263" style="fill:none;stroke:#000000;stroke-width:0.5" />
<path d="M496.97,32.263L496.97,36.263" style="fill:none;stroke:#000000;stroke-width:0.5" />
<path d="M65.305,36.263L720,36.263" style="fill:none;stroke:#000000;stroke-width:0.5" />
<g transform="rotate(90)">
<text x="152.55" y="11.555" transform="scale(1, -1)"
	style="font-family:Times;font-weight:normal;font-style:normal;font-size:12px">Number of trials (1000000 total)</text>
</g>
<text x="24.055" y="-112.28" transform="scale(1, -1)"
	style="font-family:Times;font-weight:normal;font-style:normal;font-size:10px">50000</text>
<text x="19.055" y="-252.95" transform="scale(1, -1)"
	style="font-family:Times;font-weight:normal;font-style:normal;font-size:10px">150000</text>
<text x="19.055" y="-393.61" transform="scale(1, -1)"
	style="font-family:Times;font-weight:normal;font-style:normal;font-size:10px">250000</text>
<path d="M51.555,115.48L59.555,115.48" style="fill:none;stroke:#000000;stroke-width:0.5" />
<path d="M51.555,256.15L59.555,256.15" style="fill:none;stroke:#000000;stroke-width:0.5" />
<path d="M51.555,396.82L59.555,396.82" style="fill:none;stroke:#000000;stroke-width:0.5" />
<path d="M55.555,185.82L59.555,185.82" style="fill:none;stroke:#000000;stroke-width:0.5" />
<path d="M55.555,326.49L59.555,326.49" style="fill:none;stroke:#000000;stroke-width:0.5" />
<path d="M59.555,45.151L59.555,416.58" style="fill:none;stroke:#000000;stroke-width:0.5" />
<path d="M65.305,416.58L96.96,55.863L98.399,52.276L102.72,48.52L104.15,48.629L105.59,52.051L109.91,73.794L112.79,55.452L114.23,116.52L115.67,62.968L117.1,56.142L118.54,52.062L122.86,52.255L124.3,76.519L125.74,62.221L127.18,48.467L128.62,66.82L130.05,48.834L134.37,45.255L135.81,52.341L137.25,48.949L138.69,45.288L141.57,87.899L143,59.813L144.44,45.528L145.88,65.122L147.32,47.207L148.76,45.949L150.2,60.206L151.64,52.894L153.08,49.658L154.52,69.055L155.95,46.586L157.39,47.287L158.83,51.256L160.27,47.154L161.71,48.788L163.15,49.897L164.59,49.816L166.03,47.993L167.47,51.442L168.9,48.657L170.34,79.825L171.78,97.139L173.22,54.877L174.66,52.071L176.1,48.484L177.54,50.74L178.98,48.056L180.42,65.142L181.85,61.747L183.29,47.412L184.73,48.664L186.17,51.559L187.61,49.283L189.05,48.094L190.49,56.001L191.93,50.628L193.37,48.283L194.8,51.932L196.24,47.782L197.68,46.731L199.12,51.491L200.56,51.466L202,51.417L203.44,53.562L204.88,52.022L206.32,48.484L207.75,47.073L209.19,48.723L210.63,48.373L212.07,49.529L213.51,50.071L214.95,50.154L216.39,51.072L217.83,50.269L219.27,55.596L220.7,57.46L222.14,52.593L223.58,49.203L225.02,48.719L226.46,49.37L227.9,48.599L229.34,54.07L230.78,59.103L232.22,51.193L233.65,49.513L235.09,51.252L236.53,47.242L237.97,46.945L239.41,49.326L240.85,49.384L242.29,48.394L243.73,48.498L245.17,47.675L246.6,50.003L248.04,53.656L249.48,49.11L250.92,49.061L252.36,49.988L253.8,47.451L255.24,47.851L256.68,51.09L258.12,50.296L259.55,49.512L260.99,50.58L262.43,48.038L263.87,47.326L265.31,47.797L266.75,48.06L268.19,47.546L269.63,48.006L271.07,48.083L272.5,47.174L273.94,47.381L275.38,47.245L276.82,51.272L278.26,47.512L279.7,48.723L281.14,47.681L282.58,47.284L284.02,47.268L285.45,48.218L286.89,50.071L288.33,48.937L289.77,47.389L291.21,47.28L292.65,47.368L294.09,47.036L295.53,47.271L296.97,48.285L298.4,46.828L299.84,46.875L301.28,47.178L302.72,46.552L304.16,46.645L305.6,47.479L307.04,47.786L308.48,47.335L309.92,47.351L311.36,47.042L312.79,46.344L314.23,46.32L315.67,46.634L317.11,46.675L318.55,46.803L319.99,46.928L321.43,46.783L322.87,46.296L324.31,46.583L325.74,46.948L327.18,46.364L328.62,46.523L330.06,46.274L331.5,46.319L332.94,46.443L334.38,46.604L335.82,47.346L337.26,47.095L338.69,46.22L340.13,46.287L341.57,46.206L343.01,45.962L344.45,46.191L345.89,46.53L347.33,46.392L348.77,46.047L350.21,46.102L351.64,45.917L353.08,46.204L354.52,46.001L355.96,45.935L357.4,46.028L358.84,45.85L360.28,45.887L361.72,46.002L363.16,46.212L364.59,46.121L366.03,46.077L367.47,45.866L368.91,45.886L370.35,45.79L371.79,45.791L373.23,45.872L374.67,45.776L376.11,45.863L377.54,45.807L378.98,45.683L380.42,45.631L381.86,45.735L383.3,45.621L384.74,45.708L386.18,45.76L387.62,45.651L389.06,45.609L390.49,45.565L391.93,45.711L393.37,45.673L394.81,45.658L396.25,45.679L397.69,45.565L399.13,45.534L400.57,45.497L402.01,45.587L403.44,45.51L404.88,45.485L406.32,45.489L407.76,45.421L409.2,45.454L410.64,45.514L412.08,45.575L413.52,45.535L414.96,45.486L416.39,45.472L417.83,45.427L419.27,45.367L420.71,45.405L422.15,45.438L423.59,45.428L425.03,45.468L426.47,45.426L427.91,45.354L429.34,45.364L430.78,45.347L432.22,45.341L433.66,45.351L435.1,45.357L436.54,45.331L437.98,45.369L439.42,45.324L440.86,45.367L442.29,45.348L443.73,45.298L445.17,45.319L446.61,45.316L448.05,45.296L449.49,45.291L450.93,45.323L452.37,45.33L453.81,45.326L455.24,45.293L456.68,45.299L458.12,45.26L459.56,45.254L461,45.268L462.44,45.3L463.88,45.255L465.32,45.257L466.76,45.239L468.19,45.24L469.63,45.282L471.07,45.239L472.51,45.246L473.95,45.255L475.39,45.226L476.83,45.216L478.27,45.247L479.71,45.233L481.14,45.226L482.58,45.196L484.02,45.22L485.46,45.208L486.9,45.233L488.34,45.243L489.78,45.198L491.22,45.217L492.66,45.219L494.09,45.198L495.53,45.202L496.97,45.195L498.41,45.203L499.85,45.203L501.29,45.213L502.73,45.21L504.17,45.184L505.61,45.215L507.04,45.188L508.48,45.192L509.92,45.18L511.36,45.196L512.8,45.178L514.24,45.192L515.68,45.18L517.12,45.182L518.56,45.182L519.99,45.18L521.43,45.18L522.87,45.168L524.31,45.172L525.75,45.18L527.19,45.181L528.63,45.188L530.07,45.181L531.51,45.185L532.94,45.181L534.38,45.171L535.82,45.172L537.26,45.16L538.7,45.164L540.14,45.171L541.58,45.161L543.02,45.163L544.46,45.17L545.89,45.165L547.33,45.161L548.77,45.157L550.21,45.165L551.65,45.168L553.09,45.16L554.53,45.168L555.97,45.161L557.41,45.167L558.84,45.16L560.28,45.164L561.72,45.164L563.16,45.156L564.6,45.153L566.04,45.16L567.48,45.153L568.92,45.168L570.36,45.163L571.79,45.161L573.23,45.16L574.67,45.164L576.11,45.156L577.55,45.163L578.99,45.161L580.43,45.156L581.87,45.156L583.31,45.157L584.74,45.158L586.18,45.156L587.62,45.161L589.06,45.157L590.5,45.154L591.94,45.151L593.38,45.154L594.82,45.154L596.26,45.151L597.69,45.153L599.13,45.151L600.57,45.154L602.01,45.157L603.45,45.151L604.89,45.157L606.33,45.151L607.77,45.153L609.21,45.157L610.64,45.153L612.08,45.154L613.52,45.154L614.96,45.153L616.4,45.154L617.84,45.153L619.28,45.151L620.72,45.151L622.16,45.153L623.59,45.151L625.03,45.151L626.47,45.154L627.91,45.153L629.35,45.157L630.79,45.154L632.23,45.151L633.67,45.154L637.98,45.154L639.42,45.151L642.3,45.151L646.62,45.16L648.06,45.151L649.49,45.153L656.69,45.153L658.13,45.151L661.01,45.151L663.88,45.151L673.96,45.151L679.71,45.151L681.15,45.151L689.78,45.151L701.29,45.151L705.61,45.151L714.24,45.151L720,45.151" style="fill:none;stroke:#0000FF" />
</g>
</svg>
