<?xml version="1.0"?>
<!-- Generated by SVGo and Plotinum VG -->
<svg width="720pt" height="432pt" viewBox="0 0 720 432"
	xmlns="http://www.w3.org/2000/svg"
	xmlns:xlink="http://www.w3.org/1999/xlink">
<g transform="scale(1, -1) translate(0, -432)">
<path d="M0,0L720,0L720,432L0,432Z" style="fill:#FFFFFF" />
<text x="358.5" y="-420.45" transform="scale(1, -1)"
	style="font-family:Times;font-weight:normal;font-style:normal;font-size:12px"> </text>
<text x="379.31" y="-3.8613" transform="scale(1, -1)"
	style="font-family:Times;font-weight:normal;font-style:normal;font-size:12px">Costs</text>
<text x="56.555" y="-18.634" transform="scale(1, -1)"
	style="font-family:Times;font-weight:normal;font-style:normal;font-size:10px">0.00</text>
<text x="368.14" y="-18.634" transform="scale(1, -1)"
	style="font-family:Times;font-weight:normal;font-style:normal;font-size:10px">250.00</text>
<text x="684.72" y="-18.634" transform="scale(1, -1)"
	style="font-family:Times;font-weight:normal;font-style:normal;font-size:10px">500.00</text>
<path d="M65.305,28.263L65.305,36.263" style="fill:none;stroke:#000000;stroke-width:0.5" />
<path d="M381.89,28.263L381.89,36.263" style="fill:none;stroke:#000000;stroke-width:0.5" />
<path d="M698.47,28.263L698.47,36.263" style="fill:none;stroke:#000000;stroke-width:0.5" />
<path d="M128.62,32.263L128.62,36.263" style="fill:none;stroke:#000000;stroke-width:0.5" />
<path d="M191.94,32.263L191.94,36.263" style="fill:none;stroke:#000000;stroke-width:0.5" />
<path d="M255.25,32.263L255.25,36.263" style="fill:none;stroke:#000000;stroke-width:0.5" />
<path d="M318.57,32.263L318.57,36.263" style="fill:none;stroke:#000000;stroke-width:0.5" />
<path d="M445.21,32.263L445.21,36.263" style="fill:none;stroke:#000000;stroke-width:0.5" />
<path d="M508.52,32.263L508.52,36.263" style="fill:none;stroke:#000000;stroke-width:0.5" />
<path d="M571.84,32.263L571.84,36.263" style="fill:none;stroke:#000000;stroke-width:0.5" />
<path d="M635.16,32.263L635.16,36.263" style="fill:none;stroke:#000000;stroke-width:0.5" />
<path d="M65.305,36.263L720,36.263" style="fill:none;stroke:#000000;stroke-width:0.5" />
<g transform="rotate(90)">
<text x="152.55" y="11.555" transform="scale(1, -1)"
	style="font-family:Times;font-weight:normal;font-style:normal;font-size:12px">Number of trials (1000000 total)</text>
</g>
<text x="24.055" y="-92.766" transform="scale(1, -1)"
	style="font-family:Times;font-weight:normal;font-style:normal;font-size:10px">20000</text>
<text x="24.055" y="-245.23" transform="scale(1, -1)"
	style="font-family:Times;font-weight:normal;font-style:normal;font-size:10px">80000</text>
<text x="19.055" y="-397.7" transform="scale(1, -1)"
	style="font-family:Times;font-weight:normal;font-style:normal;font-size:10px">140000</text>
<path d="M51.555,95.971L59.555,95.971" style="fill:none;stroke:#000000;stroke-width:0.5" />
<path d="M51.555,248.44L59.555,248.44" style="fill:none;stroke:#000000;stroke-width:0.5" />
<path d="M51.555,400.91L59.555,400.91" style="fill:none;stroke:#000000;stroke-width:0.5" />
<path d="M55.555,172.2L59.555,172.2" style="fill:none;stroke:#000000;stroke-width:0.5" />
<path d="M55.555,324.67L59.555,324.67" style="fill:none;stroke:#000000;stroke-width:0.5" />
<path d="M59.555,45.151L59.555,416.58" style="fill:none;stroke:#000000;stroke-width:0.5" />
<path d="M65.305,416.58L93.164,48.615L94.43,56.287L98.229,70.74L99.496,65.689L100.76,67.666L102.03,51.809L103.29,64.21L104.56,78.521L105.83,71.289L107.09,66.827L108.36,76.013L112.16,55.631L113.43,52.002L114.69,94.772L115.96,96.327L117.22,99.061L118.49,67.109L119.76,58.952L121.02,66.398L122.29,45.245L123.56,63.892L126.09,48.897L127.36,60.416L128.62,45.898L129.89,67.91L131.15,45.715L132.42,83.25L133.69,70.428L134.95,66.466L136.22,69.096L137.49,81.187L138.75,60.291L140.02,54.157L141.28,61.46L142.55,54.36L143.82,72.87L145.08,58.617L146.35,51.428L147.62,54.67L148.88,54.958L150.15,57.392L151.42,55.888L152.68,56.076L153.95,57.562L155.21,66.586L156.48,60.639L157.75,67.315L159.01,57.738L160.28,55.618L161.55,53.946L162.81,54.409L164.08,55.928L165.35,60.335L166.61,70.192L167.88,85.492L169.14,60.774L170.41,63.376L171.68,61.16L172.94,62.965L174.21,58.446L175.48,60.398L176.74,60.299L178.01,58.126L179.27,60.429L180.54,57.105L181.81,59.257L183.07,61.074L184.34,63.676L185.61,62.296L186.87,62.576L188.14,62.891L189.41,58.726L190.67,59.298L191.94,56.985L193.2,57.992L194.47,58.177L195.74,57.356L197,57.311L198.27,54.274L199.54,56.302L200.8,56.708L202.07,56.996L203.34,56.022L204.6,57.788L205.87,59.72L207.13,59.153L208.4,59.834L209.67,57.303L210.93,57.954L212.2,54.815L213.47,55.095L214.73,54.617L216,56.431L217.26,57.974L218.53,57.181L219.8,58.065L221.06,55.313L222.33,55.611L223.6,55.633L224.86,54.795L226.13,55.308L227.4,54.299L228.66,54.03L229.93,54.243L231.19,53.664L232.46,53.885L233.73,53.994L234.99,55.763L236.26,55.527L237.53,55.229L238.79,55.151L240.06,55.247L241.33,53.631L242.59,53.349L243.86,53.71L245.12,53.598L246.39,54.31L247.66,53.189L248.92,52.312L250.19,52.172L251.46,52.272L252.72,52.086L253.99,52.015L255.25,52.383L256.52,52.218L257.79,53.009L259.05,52.607L260.32,52.444L261.59,51.621L262.85,51.357L264.12,51.141L265.39,51.095L266.65,51.146L267.92,51.303L269.18,51.321L270.45,51.016L271.72,50.955L272.98,50.76L274.25,50.727L275.52,50.79L276.78,50.556L278.05,50.691L279.32,50.457L280.58,50.107L281.85,50.406L283.11,50.14L284.38,49.931L285.65,50.099L286.91,50.251L288.18,50.02L289.45,49.685L290.71,49.903L291.98,49.573L293.25,49.4L294.51,49.161L295.78,49.26L297.04,48.991L298.31,49.375L299.58,49.024L300.84,48.887L302.11,48.9L303.38,48.483L304.64,48.783L305.91,48.772L307.17,48.595L308.44,48.788L309.71,48.534L310.97,48.569L312.24,48.391L313.51,48.244L314.77,48.094L316.04,48.066L317.31,47.962L318.57,47.875L319.84,47.975L321.1,47.766L322.37,47.82L323.64,47.743L324.9,47.708L326.17,47.576L327.44,47.591L328.7,47.449L329.97,47.471L331.24,47.537L332.5,47.375L333.77,47.273L335.03,47.09L336.3,47.23L337.57,47.276L338.83,47.22L340.1,47.161L341.37,47.06L342.63,47.141L343.9,46.879L345.16,46.925L346.43,46.859L347.7,46.912L348.96,46.841L350.23,46.691L351.5,46.623L352.76,46.704L354.03,46.564L355.3,46.592L356.56,46.648L357.83,46.684L359.09,46.646L360.36,46.473L361.63,46.419L362.89,46.437L364.16,46.31L365.43,46.341L366.69,46.328L367.96,46.252L369.23,46.219L370.49,46.236L371.76,46.287L373.02,46.236L374.29,46.107L375.56,46.079L376.82,46.084L378.09,46.099L379.36,46.069L380.62,46.061L381.89,45.98L383.15,46.031L384.42,46.064L385.69,45.998L386.95,45.919L388.22,45.97L389.49,45.881L390.75,45.871L392.02,45.812L393.29,45.845L394.55,45.804L395.82,45.726L397.08,45.784L398.35,45.759L399.62,45.731L400.88,45.728L402.15,45.764L403.42,45.69L404.68,45.69L405.95,45.685L407.22,45.672L408.48,45.621L409.75,45.677L411.01,45.644L412.28,45.629L413.55,45.601L414.81,45.649L416.08,45.629L417.35,45.573L418.61,45.568L419.88,45.512L421.14,45.555L422.41,45.507L423.68,45.507L424.94,45.451L426.21,45.469L427.48,45.479L428.74,45.507L430.01,45.421L431.28,45.433L432.54,45.451L433.81,45.464L435.07,45.388L436.34,45.449L437.61,45.378L438.87,45.398L440.14,45.418L441.41,45.334L442.67,45.388L443.94,45.36L445.21,45.339L446.47,45.334L447.74,45.36L449,45.37L450.27,45.329L451.54,45.355L452.8,45.344L454.07,45.322L455.34,45.339L456.6,45.355L457.87,45.314L459.13,45.291L460.4,45.317L461.67,45.289L462.93,45.304L464.2,45.289L465.47,45.299L466.73,45.24L468,45.266L469.27,45.253L470.53,45.284L471.8,45.238L473.06,45.258L474.33,45.24L475.6,45.263L476.86,45.263L478.13,45.273L479.4,45.225L480.66,45.266L481.93,45.256L483.2,45.233L484.46,45.235L485.73,45.243L486.99,45.228L488.26,45.233L489.53,45.217L490.79,45.22L492.06,45.21L493.33,45.21L494.59,45.217L495.86,45.212L497.12,45.202L498.39,45.2L499.66,45.2L500.92,45.197L502.19,45.205L503.46,45.187L504.72,45.192L505.99,45.197L507.26,45.182L508.52,45.195L509.79,45.179L511.05,45.205L512.32,45.195L513.59,45.179L514.85,45.2L516.12,45.197L517.39,45.179L518.65,45.184L519.92,45.174L521.19,45.184L522.45,45.177L523.72,45.169L524.98,45.172L526.25,45.2L527.52,45.174L528.78,45.162L530.05,45.172L531.32,45.167L532.58,45.167L533.85,45.184L535.12,45.169L536.38,45.167L537.65,45.169L538.91,45.174L540.18,45.174L541.45,45.156L542.71,45.172L543.98,45.167L545.25,45.169L546.51,45.177L547.78,45.154L549.04,45.159L550.31,45.162L551.58,45.172L552.84,45.174L554.11,45.156L555.38,45.167L556.64,45.159L557.91,45.156L559.18,45.162L560.44,45.162L561.71,45.162L562.97,45.159L564.24,45.154L565.51,45.159L566.77,45.164L568.04,45.154L569.31,45.164L570.57,45.154L571.84,45.162L573.11,45.159L574.37,45.154L575.64,45.156L576.9,45.162L578.17,45.151L579.44,45.154L580.7,45.159L581.97,45.154L583.24,45.156L585.77,45.151L587.03,45.162L588.3,45.156L589.57,45.156L590.83,45.151L592.1,45.151L593.37,45.156L594.63,45.151L598.43,45.151L599.7,45.159L602.23,45.151L603.5,45.154L604.76,45.151L606.03,45.154L607.3,45.151L609.83,45.151L611.1,45.154L612.36,45.151L613.63,45.151L614.89,45.154L617.43,45.156L618.69,45.154L622.49,45.151L625.02,45.151L626.29,45.154L627.56,45.154L635.16,45.154L636.42,45.151L638.95,45.151L641.49,45.151L646.55,45.151L647.82,45.154L649.09,45.151L656.68,45.151L663.01,45.151L689.61,45.151L698.47,45.151L720,45.151" style="fill:none;stroke:#0000FF" />
</g>
</svg>
