<?xml version="1.0"?>
<!-- Generated by SVGo and Plotinum VG -->
<svg width="720pt" height="432pt" viewBox="0 0 720 432"
	xmlns="http://www.w3.org/2000/svg"
	xmlns:xlink="http://www.w3.org/1999/xlink">
<g transform="scale(1, -1) translate(0, -432)">
<path d="M0,0L720,0L720,432L0,432Z" style="fill:#FFFFFF" />
<text x="358.5" y="-420.45" transform="scale(1, -1)"
	style="font-family:Times;font-weight:normal;font-style:normal;font-size:12px"> </text>
<text x="380.57" y="-3.8613" transform="scale(1, -1)"
	style="font-family:Times;font-weight:normal;font-style:normal;font-size:12px">Costs</text>
<text x="69.055" y="-18.634" transform="scale(1, -1)"
	style="font-family:Times;font-weight:normal;font-style:normal;font-size:10px">0.00</text>
<text x="378.28" y="-18.634" transform="scale(1, -1)"
	style="font-family:Times;font-weight:normal;font-style:normal;font-size:10px">250.00</text>
<text x="692.5" y="-18.634" transform="scale(1, -1)"
	style="font-family:Times;font-weight:normal;font-style:normal;font-size:10px">500.00</text>
<path d="M77.805,28.263L77.805,36.263" style="fill:none;stroke:#000000;stroke-width:0.5" />
<path d="M392.03,28.263L392.03,36.263" style="fill:none;stroke:#000000;stroke-width:0.5" />
<path d="M706.25,28.263L706.25,36.263" style="fill:none;stroke:#000000;stroke-width:0.5" />
<path d="M140.65,32.263L140.65,36.263" style="fill:none;stroke:#000000;stroke-width:0.5" />
<path d="M203.49,32.263L203.49,36.263" style="fill:none;stroke:#000000;stroke-width:0.5" />
<path d="M266.34,32.263L266.34,36.263" style="fill:none;stroke:#000000;stroke-width:0.5" />
<path d="M329.18,32.263L329.18,36.263" style="fill:none;stroke:#000000;stroke-width:0.5" />
<path d="M454.87,32.263L454.87,36.263" style="fill:none;stroke:#000000;stroke-width:0.5" />
<path d="M517.72,32.263L517.72,36.263" style="fill:none;stroke:#000000;stroke-width:0.5" />
<path d="M580.56,32.263L580.56,36.263" style="fill:none;stroke:#000000;stroke-width:0.5" />
<path d="M643.41,32.263L643.41,36.263" style="fill:none;stroke:#000000;stroke-width:0.5" />
<path d="M77.805,36.263L710.02,36.263" style="fill:none;stroke:#000000;stroke-width:0.5" />
<g transform="rotate(90)">
<text x="152.55" y="11.555" transform="scale(1, -1)"
	style="font-family:Times;font-weight:normal;font-style:normal;font-size:12px">Number of trials (1000000 total)</text>
</g>
<text x="24.055" y="-93.941" transform="scale(1, -1)"
	style="font-family:Times;font-weight:normal;font-style:normal;font-size:10px">25000.00</text>
<text x="19.055" y="-249.93" transform="scale(1, -1)"
	style="font-family:Times;font-weight:normal;font-style:normal;font-size:10px">100000.00</text>
<text x="19.055" y="-405.92" transform="scale(1, -1)"
	style="font-family:Times;font-weight:normal;font-style:normal;font-size:10px">175000.00</text>
<path d="M64.055,97.146L72.055,97.146" style="fill:none;stroke:#000000;stroke-width:0.5" />
<path d="M64.055,253.14L72.055,253.14" style="fill:none;stroke:#000000;stroke-width:0.5" />
<path d="M64.055,409.13L72.055,409.13" style="fill:none;stroke:#000000;stroke-width:0.5" />
<path d="M68.055,175.14L72.055,175.14" style="fill:none;stroke:#000000;stroke-width:0.5" />
<path d="M68.055,331.13L72.055,331.13" style="fill:none;stroke:#000000;stroke-width:0.5" />
<path d="M72.055,45.151L72.055,416.58" style="fill:none;stroke:#000000;stroke-width:0.5" />
<path d="M77.805,416.58L105.46,55.228L106.71,59.249L110.48,66.976L111.74,48.554L114.25,48.581L115.51,55.432L116.77,59.301L118.03,59.259L119.28,72.764L120.54,72.988L121.8,65.898L123.05,48.606L124.31,55.603L125.57,52.04L126.82,65.122L128.08,69.432L129.34,90.489L130.59,51.842L131.85,91.691L133.11,76.651L134.36,77.799L135.62,59.696L138.14,45.755L139.39,56.379L140.65,52.192L141.91,70.181L143.16,45.623L144.42,60.081L145.68,60.345L146.93,64.357L148.19,83.12L149.45,65.372L150.7,47.009L151.96,47.35L153.22,51.185L154.48,47.938L155.73,61.287L156.99,52.984L158.25,49.488L159.5,50.671L160.76,52.102L162.02,53.277L163.27,50.626L164.53,51.863L165.79,50.775L167.04,73.675L168.3,52.712L169.56,71.439L170.81,62.375L172.07,55.341L173.33,56.46L174.59,60.445L175.84,57.005L177.1,56.31L178.36,73.128L179.61,68.088L180.87,56.412L182.13,55.996L183.38,59.355L184.64,57.366L185.9,58.117L187.15,56.824L188.41,57.672L189.67,57.508L190.92,56.177L192.18,53.887L193.44,53.589L194.7,52.651L195.95,57.079L197.21,56.187L198.47,58.124L199.72,58.465L200.98,54.577L202.24,56.707L203.49,56.618L204.75,54.475L206.01,52.864L207.26,53.284L208.52,53.103L209.78,54.355L211.04,55.746L212.29,55.694L213.55,53.094L214.81,51.688L216.06,53.271L217.32,54.721L218.58,55.345L219.83,55.156L221.09,56.926L222.35,54.86L223.6,55.401L224.86,54.525L226.12,54.588L227.37,53.483L228.63,53.527L229.89,53.731L231.15,54.426L232.4,53.298L233.66,55.116L234.92,53.98L236.17,53.562L237.43,53.941L238.69,52.986L239.94,53.084L241.2,52.884L242.46,52.475L243.71,51.293L244.97,52.106L246.23,51.871L247.48,52.196L248.74,52.801L250,52.693L251.26,51.539L252.51,50.775L253.77,51.023L255.03,50.517L256.28,50.738L257.54,50.728L258.8,51.339L260.05,50.624L261.31,50.156L262.57,50.721L263.82,50.424L265.08,50.06L266.34,50.544L267.6,51.272L268.85,50.948L270.11,50.613L271.37,50.969L272.62,50.235L273.88,50.143L275.14,50.314L276.39,50.012L277.65,49.787L278.91,50.058L280.16,50.54L281.42,49.436L282.68,49.465L283.93,49.263L285.19,49.218L286.45,49.319L287.71,49.606L288.96,49.463L290.22,49.346L291.48,49.232L292.73,49.111L293.99,48.677L295.25,48.827L296.5,48.766L297.76,48.739L299.02,48.77L300.27,48.695L301.53,48.569L302.79,48.423L304.04,48.537L305.3,48.267L306.56,48.02L307.82,47.943L309.07,48.094L310.33,47.866L311.59,48.126L312.84,48.013L314.1,47.945L315.36,47.687L316.61,47.668L317.87,47.76L319.13,47.753L320.38,47.672L321.64,47.597L322.9,47.703L324.16,47.421L325.41,47.385L326.67,47.371L327.93,47.366L329.18,47.321L330.44,47.256L331.7,47.138L332.95,47.065L334.21,47.115L335.47,47.052L336.72,47.069L337.98,46.963L339.24,47.077L340.49,46.884L341.75,47.009L343.01,46.834L344.27,46.817L345.52,46.797L346.78,46.751L348.04,46.73L349.29,46.657L350.55,46.63L351.81,46.516L353.06,46.52L354.32,46.478L355.58,46.495L356.83,46.418L358.09,46.449L359.35,46.472L360.61,46.354L361.86,46.314L363.12,46.279L364.38,46.339L365.63,46.291L366.89,46.225L368.15,46.229L369.4,46.233L370.66,46.15L371.92,46.133L373.17,46.146L374.43,46.052L375.69,46.069L376.94,45.996L378.2,46.054L379.46,45.998L380.72,46.008L381.97,45.9L383.23,45.938L384.49,45.875L385.74,45.879L387,45.861L388.26,45.865L389.51,45.902L390.77,45.777L392.03,45.825L393.28,45.861L394.54,45.852L395.8,45.798L397.05,45.696L398.31,45.736L399.57,45.682L400.83,45.698L402.08,45.725L403.34,45.659L404.6,45.586L405.85,45.69L407.11,45.623L408.37,45.607L409.62,45.592L410.88,45.688L412.14,45.594L413.39,45.632L414.65,45.561L415.91,45.513L417.17,45.488L418.42,45.557L419.68,45.526L420.94,45.536L422.19,45.48L423.45,45.499L424.71,45.468L425.96,45.44L427.22,45.49L428.48,45.416L429.73,45.434L430.99,45.463L432.25,45.438L433.5,45.401L434.76,45.432L436.02,45.411L437.28,45.391L438.53,45.376L439.79,45.405L441.05,45.401L442.3,45.361L443.56,45.384L444.82,45.366L446.07,45.353L447.33,45.366L448.59,45.309L449.84,45.351L451.1,45.301L452.36,45.332L453.61,45.301L454.87,45.303L456.13,45.291L457.39,45.301L458.64,45.32L459.9,45.297L461.16,45.303L462.41,45.305L463.67,45.278L464.93,45.278L466.18,45.293L467.44,45.282L468.7,45.268L469.95,45.266L471.21,45.255L472.47,45.247L473.73,45.274L474.98,45.268L476.24,45.266L477.5,45.245L478.75,45.245L480.01,45.243L481.27,45.251L482.52,45.264L483.78,45.241L485.04,45.235L486.29,45.237L487.55,45.239L488.81,45.214L490.06,45.22L491.32,45.216L492.58,45.212L493.84,45.214L495.09,45.203L496.35,45.201L497.61,45.208L498.86,45.212L500.12,45.214L501.38,45.218L502.63,45.208L503.89,45.191L505.15,45.21L506.4,45.195L507.66,45.203L508.92,45.22L510.18,45.199L511.43,45.178L512.69,45.199L513.95,45.187L515.2,45.197L516.46,45.18L517.72,45.185L518.97,45.189L520.23,45.185L521.49,45.18L522.74,45.187L524,45.166L525.26,45.18L526.51,45.174L527.77,45.183L529.03,45.174L530.29,45.178L531.54,45.178L532.8,45.191L534.06,45.168L535.31,45.168L536.57,45.164L537.83,45.17L539.08,45.168L540.34,45.166L541.6,45.168L542.85,45.166L544.11,45.176L545.37,45.16L546.62,45.168L547.88,45.164L549.14,45.168L550.4,45.174L551.65,45.168L552.91,45.168L554.17,45.156L555.42,45.168L556.68,45.162L557.94,45.162L559.19,45.168L560.45,45.16L561.71,45.162L562.96,45.158L564.22,45.158L565.48,45.162L566.74,45.153L567.99,45.164L569.25,45.162L570.51,45.158L571.76,45.16L573.02,45.164L574.28,45.151L575.53,45.156L576.79,45.16L578.05,45.158L579.3,45.166L580.56,45.166L581.82,45.162L583.07,45.158L584.33,45.158L585.59,45.156L586.85,45.156L588.1,45.16L589.36,45.156L591.87,45.158L593.13,45.153L594.39,45.153L595.64,45.151L596.9,45.153L598.16,45.162L599.41,45.153L600.67,45.153L601.93,45.153L603.18,45.156L604.44,45.151L605.7,45.153L606.96,45.16L608.21,45.151L609.47,45.153L610.73,45.151L611.98,45.151L613.24,45.151L615.75,45.153L617.01,45.151L618.27,45.153L622.04,45.151L625.81,45.151L627.07,45.151L628.32,45.153L629.58,45.151L632.09,45.158L640.89,45.153L648.43,45.151L649.69,45.151L650.95,45.151L661,45.151L664.77,45.151L679.86,45.151L699.97,45.151L704.99,45.151L710.02,45.151" style="fill:none;stroke:#0000FF" />
</g>
</svg>
