<?xml version="1.0"?>
<!-- Generated by SVGo and Plotinum VG -->
<svg width="720pt" height="432pt" viewBox="0 0 720 432"
	xmlns="http://www.w3.org/2000/svg"
	xmlns:xlink="http://www.w3.org/1999/xlink">
<g transform="scale(1, -1) translate(0, -432)">
<path d="M0,0L720,0L720,432L0,432Z" style="fill:#FFFFFF" />
<text x="358.5" y="-420.45" transform="scale(1, -1)"
	style="font-family:Times;font-weight:normal;font-style:normal;font-size:12px"> </text>
<text x="379.32" y="-3.8613" transform="scale(1, -1)"
	style="font-family:Times;font-weight:normal;font-style:normal;font-size:12px">Costs</text>
<text x="69.055" y="-18.634" transform="scale(1, -1)"
	style="font-family:Times;font-weight:normal;font-style:normal;font-size:10px">0.00</text>
<text x="378.28" y="-18.634" transform="scale(1, -1)"
	style="font-family:Times;font-weight:normal;font-style:normal;font-size:10px">250.00</text>
<text x="692.5" y="-18.634" transform="scale(1, -1)"
	style="font-family:Times;font-weight:normal;font-style:normal;font-size:10px">500.00</text>
<path d="M77.805,28.263L77.805,36.263" style="fill:none;stroke:#000000;stroke-width:0.5" />
<path d="M392.03,28.263L392.03,36.263" style="fill:none;stroke:#000000;stroke-width:0.5" />
<path d="M706.25,28.263L706.25,36.263" style="fill:none;stroke:#000000;stroke-width:0.5" />
<path d="M140.65,32.263L140.65,36.263" style="fill:none;stroke:#000000;stroke-width:0.5" />
<path d="M203.49,32.263L203.49,36.263" style="fill:none;stroke:#000000;stroke-width:0.5" />
<path d="M266.34,32.263L266.34,36.263" style="fill:none;stroke:#000000;stroke-width:0.5" />
<path d="M329.18,32.263L329.18,36.263" style="fill:none;stroke:#000000;stroke-width:0.5" />
<path d="M454.87,32.263L454.87,36.263" style="fill:none;stroke:#000000;stroke-width:0.5" />
<path d="M517.72,32.263L517.72,36.263" style="fill:none;stroke:#000000;stroke-width:0.5" />
<path d="M580.56,32.263L580.56,36.263" style="fill:none;stroke:#000000;stroke-width:0.5" />
<path d="M643.41,32.263L643.41,36.263" style="fill:none;stroke:#000000;stroke-width:0.5" />
<path d="M77.805,36.263L707.51,36.263" style="fill:none;stroke:#000000;stroke-width:0.5" />
<g transform="rotate(90)">
<text x="152.55" y="11.555" transform="scale(1, -1)"
	style="font-family:Times;font-weight:normal;font-style:normal;font-size:12px">Number of trials (1000000 total)</text>
</g>
<text x="24.055" y="-89.635" transform="scale(1, -1)"
	style="font-family:Times;font-weight:normal;font-style:normal;font-size:10px">25000.00</text>
<text x="19.055" y="-232.71" transform="scale(1, -1)"
	style="font-family:Times;font-weight:normal;font-style:normal;font-size:10px">100000.00</text>
<text x="19.055" y="-375.78" transform="scale(1, -1)"
	style="font-family:Times;font-weight:normal;font-style:normal;font-size:10px">175000.00</text>
<path d="M64.055,92.841L72.055,92.841" style="fill:none;stroke:#000000;stroke-width:0.5" />
<path d="M64.055,235.91L72.055,235.91" style="fill:none;stroke:#000000;stroke-width:0.5" />
<path d="M64.055,378.99L72.055,378.99" style="fill:none;stroke:#000000;stroke-width:0.5" />
<path d="M68.055,164.38L72.055,164.38" style="fill:none;stroke:#000000;stroke-width:0.5" />
<path d="M68.055,307.45L72.055,307.45" style="fill:none;stroke:#000000;stroke-width:0.5" />
<path d="M72.055,45.151L72.055,416.58" style="fill:none;stroke:#000000;stroke-width:0.5" />
<path d="M77.805,416.58L110.48,66.946L111.74,82.593L113,76.944L114.25,48.633L116.77,55.931L118.03,60.281L120.54,93.026L121.8,67.246L123.05,66.223L124.31,48.671L125.57,60.311L126.82,85.765L128.08,51.588L129.34,56.141L130.59,58.701L131.85,60.203L133.11,55.886L134.36,48.64L135.62,51.862L139.39,52.011L140.65,82.053L141.91,67.185L143.16,45.438L144.42,89.939L145.68,80.626L146.93,48.656L148.19,52.929L149.45,46.105L150.7,68.966L151.96,50.727L153.22,59.718L154.48,83.766L155.73,55.787L156.99,50.081L158.25,48.343L159.5,50.5L160.76,53.287L162.02,51.18L163.27,50.22L164.53,51.559L165.79,53.005L167.04,51.218L168.3,49.648L169.56,63.493L170.81,72.669L172.07,50.586L173.33,51.616L174.59,62.232L175.84,55.357L177.1,53.104L178.36,77.045L179.61,66.822L180.87,53.133L182.13,50.168L183.38,54.857L184.64,57.313L185.9,53.862L187.15,57.37L188.41,59.756L189.67,59.31L190.92,53.976L192.18,50.336L193.44,58.728L194.7,55.83L195.95,53.247L197.21,55.571L198.47,54.058L199.72,53.896L200.98,49.531L202.24,52.189L203.49,55.71L204.75,54.012L206.01,51.496L207.26,54.018L208.52,55.855L209.78,51.679L211.04,52.166L212.29,56.382L213.55,57.084L214.81,52.814L216.06,51.029L217.32,56.143L218.58,55.943L219.83,53.274L221.09,56.634L222.35,56.082L223.6,53.272L224.86,50.823L226.12,50.937L227.37,54.199L228.63,52.023L229.89,50.89L231.15,50.903L232.4,52.797L233.66,52.967L234.92,50.098L236.17,50.842L237.43,53.778L238.69,51.393L239.94,49.608L241.2,52.502L242.46,53.186L243.71,50.64L244.97,51.912L246.23,53.814L247.48,53.085L248.74,49.613L250,49.451L251.26,51.632L252.51,50.87L253.77,50.26L255.03,51.492L256.28,51.18L257.54,49.796L258.8,48.734L260.05,49.339L261.31,49.978L262.57,50.193L263.82,49.159L265.08,49.428L266.34,49.93L267.6,49.44L268.85,48.574L270.11,49.945L271.37,50.855L272.62,49.423L273.88,48.33L275.14,49.362L276.39,49.426L277.65,48.64L278.91,48.427L280.16,49.932L281.42,49.14L282.68,48.555L283.93,48.532L285.19,49.142L286.45,48.795L287.71,48.488L288.96,48.688L290.22,49.049L291.48,48.553L292.73,47.774L293.99,48.188L295.25,48.471L296.5,48.183L297.76,47.816L299.02,47.929L300.27,48.186L301.53,47.593L302.79,47.21L304.05,47.74L305.3,47.937L306.56,47.5L307.82,47.296L309.07,47.727L310.33,47.824L311.59,47.282L312.84,47.339L314.1,47.742L315.36,47.389L316.61,46.918L317.87,47.339L319.13,47.36L320.38,47.233L321.64,46.914L322.9,47.112L324.16,46.971L325.41,46.868L326.67,46.754L327.93,46.784L329.18,46.889L330.44,46.729L331.7,46.527L332.95,46.605L334.21,46.8L335.47,46.807L336.72,46.544L337.98,46.798L339.24,46.677L340.49,46.433L341.75,46.414L343.01,46.508L344.27,46.567L345.52,46.372L346.78,46.437L348.04,46.594L349.29,46.376L350.55,46.264L351.81,46.22L353.06,46.288L354.32,46.149L355.58,46.107L356.83,46.132L358.09,46.128L359.35,46.147L360.61,46.04L361.86,46.134L363.12,46.109L364.38,46.037L365.63,45.926L366.89,45.977L368.15,46.067L369.4,45.859L370.66,45.827L371.92,45.991L373.17,45.916L374.43,45.785L375.69,45.79L376.94,45.869L378.2,45.811L379.46,45.775L380.72,45.699L381.97,45.737L383.23,45.798L384.49,45.716L385.74,45.76L387,45.756L388.26,45.693L389.51,45.663L390.77,45.684L392.03,45.645L393.28,45.619L394.54,45.565L395.8,45.592L397.05,45.598L398.31,45.567L399.57,45.563L400.83,45.525L402.08,45.535L403.34,45.483L404.6,45.491L405.85,45.504L407.11,45.554L408.37,45.43L409.62,45.43L410.88,45.479L412.14,45.458L413.39,45.47L414.65,45.466L415.91,45.445L417.17,45.479L418.42,45.386L419.68,45.417L420.94,45.441L422.19,45.397L423.45,45.417L424.71,45.388L425.96,45.403L427.22,45.348L428.48,45.335L429.73,45.355L430.99,45.348L432.25,45.333L433.5,45.294L434.76,45.344L436.02,45.335L437.28,45.312L438.53,45.298L439.79,45.308L441.05,45.335L442.3,45.319L443.56,45.279L444.82,45.272L446.07,45.285L447.33,45.298L448.59,45.296L449.84,45.323L451.1,45.247L452.36,45.241L453.61,45.277L454.87,45.247L456.13,45.254L457.39,45.256L458.64,45.252L459.9,45.262L461.16,45.264L462.41,45.258L463.67,45.222L464.93,45.251L466.18,45.231L467.44,45.245L468.7,45.251L469.95,45.237L471.21,45.239L472.47,45.222L473.73,45.237L474.98,45.224L476.24,45.214L477.5,45.239L478.75,45.224L480.01,45.207L481.27,45.22L482.52,45.211L483.78,45.218L485.04,45.214L486.29,45.207L487.55,45.197L488.81,45.212L490.06,45.188L491.32,45.197L492.58,45.191L493.84,45.197L495.09,45.186L496.35,45.182L497.61,45.193L498.86,45.184L500.12,45.197L501.38,45.184L502.63,45.199L503.89,45.186L505.15,45.18L506.4,45.174L507.66,45.186L508.92,45.178L510.18,45.169L511.43,45.19L512.69,45.19L513.95,45.174L515.2,45.165L516.46,45.178L517.72,45.161L518.97,45.178L520.23,45.169L521.49,45.167L522.74,45.169L524,45.18L525.26,45.167L526.51,45.174L527.77,45.174L529.03,45.17L530.29,45.176L531.54,45.159L532.8,45.161L534.06,45.153L535.31,45.176L536.57,45.161L537.83,45.163L539.08,45.163L540.34,45.161L541.6,45.161L542.85,45.167L544.11,45.167L545.37,45.159L546.62,45.165L547.88,45.153L549.14,45.161L550.4,45.161L551.65,45.155L552.91,45.157L554.17,45.159L555.42,45.159L556.68,45.157L557.94,45.151L559.19,45.155L560.45,45.153L561.71,45.153L562.96,45.155L564.22,45.157L565.48,45.157L566.74,45.165L567.99,45.155L569.25,45.155L570.51,45.157L571.76,45.163L573.02,45.153L574.28,45.151L575.53,45.157L576.79,45.151L578.05,45.153L580.56,45.157L585.59,45.155L586.85,45.153L588.1,45.151L589.36,45.153L590.62,45.151L593.13,45.153L594.39,45.151L595.64,45.153L596.9,45.151L598.16,45.151L599.41,45.151L603.18,45.153L605.7,45.151L606.96,45.153L608.21,45.151L613.24,45.151L614.5,45.151L617.01,45.153L620.78,45.153L624.55,45.153L625.81,45.151L627.07,45.153L628.32,45.151L630.84,45.151L633.35,45.151L637.12,45.151L639.63,45.151L642.15,45.151L652.2,45.151L658.49,45.151L661,45.151L682.37,45.151L701.22,45.151L707.51,45.151" style="fill:none;stroke:#0000FF" />
</g>
</svg>
