<?xml version="1.0"?>
<!-- Generated by SVGo and Plotinum VG -->
<svg width="720pt" height="432pt" viewBox="0 0 720 432"
	xmlns="http://www.w3.org/2000/svg"
	xmlns:xlink="http://www.w3.org/1999/xlink">
<g transform="scale(1, -1) translate(0, -432)">
<path d="M0,0L720,0L720,432L0,432Z" style="fill:#FFFFFF" />
<text x="358.5" y="-420.45" transform="scale(1, -1)"
	style="font-family:Times;font-weight:normal;font-style:normal;font-size:12px"> </text>
<text x="385.56" y="-3.8613" transform="scale(1, -1)"
	style="font-family:Times;font-weight:normal;font-style:normal;font-size:12px">Costs</text>
<text x="69.055" y="-18.634" transform="scale(1, -1)"
	style="font-family:Times;font-weight:normal;font-style:normal;font-size:10px">0.00</text>
<text x="377.63" y="-18.634" transform="scale(1, -1)"
	style="font-family:Times;font-weight:normal;font-style:normal;font-size:10px">250.00</text>
<text x="691.2" y="-18.634" transform="scale(1, -1)"
	style="font-family:Times;font-weight:normal;font-style:normal;font-size:10px">500.00</text>
<path d="M77.805,28.263L77.805,36.263" style="fill:none;stroke:#000000;stroke-width:0.5" />
<path d="M391.38,28.263L391.38,36.263" style="fill:none;stroke:#000000;stroke-width:0.5" />
<path d="M704.95,28.263L704.95,36.263" style="fill:none;stroke:#000000;stroke-width:0.5" />
<path d="M140.52,32.263L140.52,36.263" style="fill:none;stroke:#000000;stroke-width:0.5" />
<path d="M203.23,32.263L203.23,36.263" style="fill:none;stroke:#000000;stroke-width:0.5" />
<path d="M265.95,32.263L265.95,36.263" style="fill:none;stroke:#000000;stroke-width:0.5" />
<path d="M328.66,32.263L328.66,36.263" style="fill:none;stroke:#000000;stroke-width:0.5" />
<path d="M454.09,32.263L454.09,36.263" style="fill:none;stroke:#000000;stroke-width:0.5" />
<path d="M516.81,32.263L516.81,36.263" style="fill:none;stroke:#000000;stroke-width:0.5" />
<path d="M579.52,32.263L579.52,36.263" style="fill:none;stroke:#000000;stroke-width:0.5" />
<path d="M642.23,32.263L642.23,36.263" style="fill:none;stroke:#000000;stroke-width:0.5" />
<path d="M77.805,36.263L720,36.263" style="fill:none;stroke:#000000;stroke-width:0.5" />
<g transform="rotate(90)">
<text x="152.55" y="11.555" transform="scale(1, -1)"
	style="font-family:Times;font-weight:normal;font-style:normal;font-size:12px">Number of trials (1000000 total)</text>
</g>
<text x="24.055" y="-89.632" transform="scale(1, -1)"
	style="font-family:Times;font-weight:normal;font-style:normal;font-size:10px">25000.00</text>
<text x="19.055" y="-232.7" transform="scale(1, -1)"
	style="font-family:Times;font-weight:normal;font-style:normal;font-size:10px">100000.00</text>
<text x="19.055" y="-375.76" transform="scale(1, -1)"
	style="font-family:Times;font-weight:normal;font-style:normal;font-size:10px">175000.00</text>
<path d="M64.055,92.838L72.055,92.838" style="fill:none;stroke:#000000;stroke-width:0.5" />
<path d="M64.055,235.9L72.055,235.9" style="fill:none;stroke:#000000;stroke-width:0.5" />
<path d="M64.055,378.97L72.055,378.97" style="fill:none;stroke:#000000;stroke-width:0.5" />
<path d="M68.055,164.37L72.055,164.37" style="fill:none;stroke:#000000;stroke-width:0.5" />
<path d="M68.055,307.44L72.055,307.44" style="fill:none;stroke:#000000;stroke-width:0.5" />
<path d="M72.055,45.151L72.055,416.58" style="fill:none;stroke:#000000;stroke-width:0.5" />
<path d="M77.805,416.58L106.65,51.904L110.42,55.204L111.67,55.635L112.92,48.676L114.18,86.963L116.69,70.947L119.2,55.57L120.45,79.987L122.96,48.511L124.21,59.786L125.47,52.045L126.72,51.814L127.98,70.459L129.23,66.941L130.48,81.135L131.74,104.42L132.99,73.621L134.25,59.273L135.5,83.102L138.01,48.4L139.26,66.592L140.52,45.369L141.77,70.142L143.03,45.901L144.28,67.521L145.54,45.8L146.79,46.365L148.04,57.112L149.3,53.995L150.55,53.306L151.81,97.782L153.06,52.94L154.32,61.22L155.57,65.247L156.82,71.657L158.08,46.859L159.33,49.115L160.59,48.602L161.84,52.432L163.1,50.059L164.35,52.194L165.6,51.542L166.86,53.995L168.11,55.729L169.37,60.469L170.62,54.708L171.88,55.204L173.13,53.045L174.38,63.876L175.64,52.717L176.89,51.637L178.15,57.697L179.4,56.915L180.66,56.556L181.91,56.167L183.16,55.397L184.42,60.122L185.67,58.029L186.93,58.493L188.18,60.297L189.44,56.732L190.69,58.888L191.94,55.164L193.2,56.555L194.45,57.699L195.71,54.578L196.96,54.897L198.22,55.811L199.47,54.971L200.72,50.935L201.98,55.78L203.23,55.874L204.49,55.442L205.74,61.604L207,56.406L208.25,57.054L209.5,58.58L210.76,54.817L212.01,53.47L213.27,54.252L214.52,51.614L215.78,54.143L217.03,50.874L218.28,53.981L219.54,50.548L220.79,51.965L222.05,52.623L223.3,52.722L224.56,51.547L225.81,52.244L227.06,52.324L228.32,53.218L229.57,53.174L230.83,53.752L232.08,51.645L233.34,52.051L234.59,51.181L235.84,51.353L237.1,50.328L238.35,51.072L239.61,50.471L240.86,51.389L242.12,51.151L243.37,51.582L244.62,50.958L245.88,51.376L247.13,50.487L248.39,52.337L249.64,50.367L250.9,50.672L252.15,50.941L253.4,51.137L254.66,50.08L255.91,50.485L257.17,50.342L258.42,50.895L259.68,50.151L260.93,50.349L262.18,50.113L263.44,50.26L264.69,49.775L265.95,49.945L267.2,49.6L268.46,49.476L269.71,49.409L270.96,49.277L272.22,49.298L273.47,49.089L274.73,48.623L275.98,49.003L277.24,48.673L278.49,48.413L279.75,48.919L281,48.82L282.25,49.001L283.51,48.665L284.76,48.625L286.02,48.526L287.27,48.305L288.53,48.299L289.78,48.224L291.03,47.954L292.29,48.083L293.54,47.772L294.8,47.946L296.05,47.702L297.31,47.633L298.56,47.624L299.81,47.587L301.07,47.658L302.32,47.547L303.58,47.578L304.83,47.524L306.09,47.513L307.34,47.534L308.59,47.248L309.85,47.313L311.1,47.196L312.36,47.133L313.61,47.013L314.87,47.2L316.12,46.965L317.37,47.057L318.63,46.914L319.88,46.908L321.14,46.891L322.39,46.849L323.65,46.775L324.9,46.82L326.15,46.677L327.41,46.75L328.66,46.664L329.92,46.651L331.17,46.473L332.43,46.437L333.68,46.538L334.93,46.506L336.19,46.387L337.44,46.464L338.7,46.372L339.95,46.428L341.21,46.345L342.46,46.305L343.71,46.275L344.97,46.286L346.22,46.248L347.48,46.099L348.73,46.057L349.99,46.132L351.24,46.038L352.49,46.061L353.75,46.071L355,46.019L356.26,45.962L357.51,45.947L358.77,45.943L360.02,45.876L361.27,45.897L362.53,45.933L363.78,45.962L365.04,45.865L366.29,45.737L367.55,45.842L368.8,45.747L370.05,45.712L371.31,45.758L372.56,45.716L373.82,45.727L375.07,45.691L376.33,45.663L377.58,45.678L378.83,45.647L380.09,45.647L381.34,45.632L382.6,45.582L383.85,45.666L385.11,45.596L386.36,45.571L387.61,45.56L388.87,45.628L390.12,45.539L391.38,45.546L392.63,45.506L393.89,45.514L395.14,45.468L396.39,45.554L397.65,45.47L398.9,45.497L400.16,45.495L401.41,45.479L402.67,45.447L403.92,45.411L405.17,45.432L406.43,45.447L407.68,45.388L408.94,45.378L410.19,45.373L411.45,45.415L412.7,45.373L413.95,45.394L415.21,45.365L416.46,45.388L417.72,45.39L418.97,45.365L420.23,45.323L421.48,45.325L422.73,45.359L423.99,45.327L425.24,45.31L426.5,45.315L427.75,45.325L429.01,45.294L430.26,45.334L431.51,45.264L432.77,45.308L434.02,45.291L435.28,45.268L436.53,45.268L437.79,45.279L439.04,45.258L440.29,45.266L441.55,45.27L442.8,45.256L444.06,45.26L445.31,45.237L446.57,45.249L447.82,45.245L449.07,45.233L450.33,45.228L451.58,45.205L452.84,45.237L454.09,45.235L455.35,45.231L456.6,45.222L457.85,45.233L459.11,45.218L460.36,45.23L461.62,45.214L462.87,45.216L464.13,45.211L465.38,45.222L466.63,45.199L467.89,45.211L469.14,45.199L470.4,45.203L471.65,45.193L472.91,45.182L474.16,45.191L475.41,45.195L476.67,45.193L477.92,45.184L479.18,45.191L480.43,45.211L481.69,45.203L482.94,45.182L484.19,45.193L485.45,45.184L486.7,45.193L487.96,45.193L489.21,45.182L490.47,45.176L491.72,45.186L492.97,45.163L494.23,45.174L495.48,45.169L496.74,45.178L497.99,45.182L499.25,45.167L500.5,45.172L501.75,45.174L503.01,45.17L504.26,45.184L505.52,45.176L506.77,45.18L508.03,45.169L509.28,45.167L510.53,45.161L511.79,45.17L513.04,45.176L514.3,45.161L515.55,45.165L516.81,45.17L518.06,45.159L519.31,45.155L520.57,45.151L521.82,45.169L523.08,45.161L524.33,45.167L525.59,45.167L526.84,45.161L528.09,45.159L529.35,45.161L530.6,45.155L531.86,45.155L533.11,45.157L534.37,45.157L535.62,45.161L536.87,45.161L538.13,45.161L539.38,45.165L540.64,45.159L541.89,45.157L543.15,45.151L544.4,45.153L545.65,45.159L546.91,45.155L548.16,45.153L549.42,45.159L550.67,45.151L551.93,45.159L553.18,45.153L554.43,45.155L556.94,45.153L558.2,45.151L559.45,45.157L560.71,45.151L563.21,45.151L564.47,45.151L565.72,45.153L566.98,45.155L568.23,45.157L569.49,45.153L571.99,45.153L573.25,45.153L574.5,45.153L575.76,45.151L578.27,45.151L582.03,45.151L584.54,45.151L587.05,45.153L588.3,45.151L589.55,45.153L590.81,45.151L592.06,45.151L593.32,45.151L598.33,45.151L600.84,45.151L604.61,45.151L608.37,45.151L612.13,45.151L614.64,45.151L618.4,45.155L622.17,45.151L623.42,45.151L625.93,45.151L634.71,45.151L643.49,45.151L657.29,45.151L662.3,45.151L666.07,45.151L684.88,45.151L720,45.151" style="fill:none;stroke:#0000FF" />
</g>
</svg>
