<?xml version="1.0"?>
<!-- Generated by SVGo and Plotinum VG -->
<svg width="720pt" height="432pt" viewBox="0 0 720 432"
	xmlns="http://www.w3.org/2000/svg"
	xmlns:xlink="http://www.w3.org/1999/xlink">
<g transform="scale(1, -1) translate(0, -432)">
<path d="M0,0L720,0L720,432L0,432Z" style="fill:#FFFFFF" />
<text x="358.5" y="-420.45" transform="scale(1, -1)"
	style="font-family:Times;font-weight:normal;font-style:normal;font-size:12px"> </text>
<text x="381.83" y="-3.8613" transform="scale(1, -1)"
	style="font-family:Times;font-weight:normal;font-style:normal;font-size:12px">Costs</text>
<text x="69.055" y="-18.634" transform="scale(1, -1)"
	style="font-family:Times;font-weight:normal;font-style:normal;font-size:10px">0.00</text>
<text x="378.28" y="-18.634" transform="scale(1, -1)"
	style="font-family:Times;font-weight:normal;font-style:normal;font-size:10px">250.00</text>
<text x="692.5" y="-18.634" transform="scale(1, -1)"
	style="font-family:Times;font-weight:normal;font-style:normal;font-size:10px">500.00</text>
<path d="M77.805,28.263L77.805,36.263" style="fill:none;stroke:#000000;stroke-width:0.5" />
<path d="M392.03,28.263L392.03,36.263" style="fill:none;stroke:#000000;stroke-width:0.5" />
<path d="M706.25,28.263L706.25,36.263" style="fill:none;stroke:#000000;stroke-width:0.5" />
<path d="M140.65,32.263L140.65,36.263" style="fill:none;stroke:#000000;stroke-width:0.5" />
<path d="M203.49,32.263L203.49,36.263" style="fill:none;stroke:#000000;stroke-width:0.5" />
<path d="M266.34,32.263L266.34,36.263" style="fill:none;stroke:#000000;stroke-width:0.5" />
<path d="M329.18,32.263L329.18,36.263" style="fill:none;stroke:#000000;stroke-width:0.5" />
<path d="M454.87,32.263L454.87,36.263" style="fill:none;stroke:#000000;stroke-width:0.5" />
<path d="M517.72,32.263L517.72,36.263" style="fill:none;stroke:#000000;stroke-width:0.5" />
<path d="M580.56,32.263L580.56,36.263" style="fill:none;stroke:#000000;stroke-width:0.5" />
<path d="M643.41,32.263L643.41,36.263" style="fill:none;stroke:#000000;stroke-width:0.5" />
<path d="M77.805,36.263L712.53,36.263" style="fill:none;stroke:#000000;stroke-width:0.5" />
<g transform="rotate(90)">
<text x="152.55" y="11.555" transform="scale(1, -1)"
	style="font-family:Times;font-weight:normal;font-style:normal;font-size:12px">Number of trials (1000000 total)</text>
</g>
<text x="24.055" y="-89.412" transform="scale(1, -1)"
	style="font-family:Times;font-weight:normal;font-style:normal;font-size:10px">25000.00</text>
<text x="19.055" y="-231.82" transform="scale(1, -1)"
	style="font-family:Times;font-weight:normal;font-style:normal;font-size:10px">100000.00</text>
<text x="19.055" y="-374.22" transform="scale(1, -1)"
	style="font-family:Times;font-weight:normal;font-style:normal;font-size:10px">175000.00</text>
<path d="M64.055,92.617L72.055,92.617" style="fill:none;stroke:#000000;stroke-width:0.5" />
<path d="M64.055,235.02L72.055,235.02" style="fill:none;stroke:#000000;stroke-width:0.5" />
<path d="M64.055,377.42L72.055,377.42" style="fill:none;stroke:#000000;stroke-width:0.5" />
<path d="M68.055,163.82L72.055,163.82" style="fill:none;stroke:#000000;stroke-width:0.5" />
<path d="M68.055,306.22L72.055,306.22" style="fill:none;stroke:#000000;stroke-width:0.5" />
<path d="M72.055,45.151L72.055,416.58" style="fill:none;stroke:#000000;stroke-width:0.5" />
<path d="M77.805,416.58L105.46,48.377L107.97,56.236L110.48,49.122L111.74,66.99L113,59.675L114.25,56.508L115.51,55.558L116.77,63.011L118.03,56.115L119.28,55.837L120.54,78.935L121.8,63.21L124.31,52.545L125.57,55.566L126.82,59.61L128.08,70.494L129.34,66.487L130.59,48.542L131.85,74.542L133.11,89.247L134.36,55.291L135.62,70.389L138.14,48.639L139.39,67.813L140.65,55.661L141.91,57.013L143.16,45.748L144.42,85.378L145.68,52.596L146.93,49.887L148.19,54.373L149.45,70.991L150.7,59.003L151.96,68.606L153.22,50.699L154.48,65.73L155.73,52.613L156.99,61.849L158.25,48.089L159.5,49.46L160.76,49.114L162.02,53.658L163.27,51.007L164.53,50.314L165.79,50.698L167.04,52.403L168.3,52.163L169.56,56.473L170.81,67.376L172.07,53.339L173.33,51.466L174.59,54.51L175.84,54.846L177.1,52.623L178.36,82.807L179.61,71.68L180.87,52.021L182.13,55.488L183.38,57.514L184.64,55.344L185.9,54.07L187.15,58.399L188.41,55.224L189.67,54.785L190.92,55.401L192.18,53.697L193.44,54.288L194.7,55.583L195.95,54.825L197.21,53.506L198.47,53.885L199.72,56.935L200.98,53.426L202.24,53.908L203.49,53.301L204.75,54.615L206.01,55.714L207.26,54.785L208.52,53.76L209.78,52.927L211.04,53.472L212.29,55.011L213.55,54.043L214.81,52.661L216.06,53.483L217.32,52.75L218.58,54.157L219.83,52.002L221.09,55.395L222.35,54.068L223.6,52.534L224.86,51.82L226.12,52.883L227.37,51.972L228.63,53.979L229.89,52.334L231.15,51.25L232.4,52.505L233.66,55.163L234.92,52.292L236.17,52.038L237.43,52.051L238.69,49.949L239.94,51.322L241.2,51.839L242.46,51.692L243.71,50.323L244.97,53.303L246.23,52.329L247.48,50.644L248.74,50.426L250,52.059L251.26,51.624L252.51,51.691L253.77,50.994L255.03,51.032L256.28,50.608L257.54,50.557L258.8,49.864L260.05,49.323L261.31,49.496L262.57,49.837L263.82,49.522L265.08,49.232L266.34,49.245L267.6,49.458L268.85,49.279L270.11,49.368L271.37,50.527L272.62,49.763L273.88,48.926L275.14,48.917L276.39,49.266L277.65,48.816L278.91,49.034L280.16,50.229L281.42,48.704L282.68,48.818L283.93,48.937L285.19,48.953L286.45,48.527L287.71,48.776L288.96,48.615L290.22,48.465L291.48,48.487L292.73,48.495L293.99,48.087L295.25,48.368L296.5,48.186L297.76,48.106L299.02,48.079L300.27,48.301L301.53,48.043L302.79,47.81L304.04,47.872L305.3,48.013L306.56,47.996L307.82,47.785L309.07,47.747L310.33,47.572L311.59,47.527L312.84,47.591L314.1,47.487L315.36,47.297L316.61,47.253L317.87,47.206L319.13,47.289L320.38,47.175L321.64,47.23L322.9,47.198L324.16,46.851L325.41,46.993L326.67,46.991L327.93,46.965L329.18,47.025L330.44,46.925L331.7,46.822L332.95,46.64L334.21,46.83L335.47,46.767L336.72,46.484L337.98,46.644L339.24,46.555L340.49,46.395L341.75,46.551L343.01,46.52L344.27,46.518L345.52,46.475L346.78,46.583L348.04,46.348L349.29,46.27L350.55,46.458L351.81,46.401L353.06,46.338L354.32,46.365L355.58,46.118L356.83,46.272L358.09,46.171L359.35,46.279L360.61,46.114L361.86,46.129L363.12,46.11L364.38,46.084L365.63,46.006L366.89,46.011L368.15,46.051L369.4,45.941L370.66,45.979L371.92,45.966L373.17,45.998L374.43,45.898L375.69,45.89L376.94,45.858L378.2,45.867L379.46,45.854L380.72,45.787L381.97,45.753L383.23,45.763L384.49,45.782L385.74,45.825L387,45.683L388.26,45.765L389.51,45.649L390.77,45.666L392.03,45.651L393.28,45.674L394.54,45.596L395.8,45.643L397.05,45.656L398.31,45.632L399.57,45.577L400.83,45.567L402.08,45.582L403.34,45.565L404.6,45.569L405.85,45.529L407.11,45.594L408.37,45.493L409.62,45.499L410.88,45.503L412.14,45.47L413.39,45.465L414.65,45.448L415.91,45.457L417.17,45.468L418.42,45.415L419.68,45.455L420.94,45.394L422.19,45.398L423.45,45.429L424.71,45.391L425.96,45.353L427.22,45.379L428.48,45.383L429.73,45.353L430.99,45.41L432.25,45.339L433.5,45.379L434.76,45.317L436.02,45.353L437.28,45.336L438.53,45.336L439.79,45.345L441.05,45.303L442.3,45.326L443.56,45.313L444.82,45.309L446.07,45.305L447.33,45.311L448.59,45.29L449.84,45.311L451.1,45.298L452.36,45.279L453.61,45.273L454.87,45.256L456.13,45.271L457.39,45.286L458.64,45.263L459.9,45.261L461.16,45.26L462.41,45.231L463.67,45.265L464.93,45.235L466.18,45.239L467.44,45.212L468.7,45.233L469.95,45.224L471.21,45.231L472.47,45.231L473.73,45.222L474.98,45.239L476.24,45.214L477.5,45.21L478.75,45.212L480.01,45.218L481.27,45.206L482.52,45.216L483.78,45.208L485.04,45.195L486.29,45.205L487.55,45.199L488.81,45.193L490.06,45.193L491.32,45.191L492.58,45.176L493.84,45.208L495.09,45.197L496.35,45.199L497.61,45.182L498.86,45.199L500.12,45.191L501.38,45.182L502.63,45.187L503.89,45.182L505.15,45.195L506.4,45.201L507.66,45.186L508.92,45.191L510.18,45.168L511.43,45.186L512.69,45.18L513.95,45.18L515.2,45.184L516.46,45.163L517.72,45.167L518.97,45.187L520.23,45.168L521.49,45.174L522.74,45.176L524,45.168L525.26,45.174L526.51,45.18L527.77,45.168L529.03,45.168L530.29,45.161L531.54,45.168L532.8,45.174L534.06,45.163L535.31,45.176L536.57,45.161L537.83,45.163L539.08,45.167L540.34,45.172L541.6,45.161L542.85,45.159L544.11,45.161L545.37,45.157L546.62,45.17L547.88,45.159L549.14,45.159L550.4,45.165L551.65,45.161L552.91,45.157L554.17,45.165L555.42,45.168L556.68,45.155L557.94,45.157L559.19,45.161L560.45,45.157L561.71,45.151L562.96,45.153L564.22,45.163L565.48,45.167L566.74,45.157L567.99,45.153L569.25,45.163L570.51,45.153L571.76,45.153L573.02,45.153L574.28,45.155L575.53,45.159L576.79,45.153L578.05,45.151L579.3,45.157L580.56,45.159L583.07,45.159L584.33,45.153L585.59,45.151L586.85,45.151L588.1,45.151L589.36,45.153L590.62,45.151L591.87,45.151L593.13,45.151L594.39,45.153L595.64,45.153L598.16,45.151L601.93,45.157L603.18,45.155L604.44,45.157L608.21,45.151L610.73,45.151L611.98,45.151L613.24,45.151L614.5,45.151L617.01,45.151L618.27,45.153L620.78,45.155L623.3,45.151L628.32,45.153L629.58,45.151L632.09,45.151L637.12,45.151L645.92,45.151L649.69,45.151L650.95,45.151L654.72,45.151L659.75,45.151L661,45.151L668.54,45.151L674.83,45.151L688.65,45.151L712.53,45.151" style="fill:none;stroke:#0000FF" />
</g>
</svg>
