<?xml version="1.0"?>
<!-- Generated by SVGo and Plotinum VG -->
<svg width="720pt" height="432pt" viewBox="0 0 720 432"
	xmlns="http://www.w3.org/2000/svg"
	xmlns:xlink="http://www.w3.org/1999/xlink">
<g transform="scale(1, -1) translate(0, -432)">
<path d="M0,0L720,0L720,432L0,432Z" style="fill:#FFFFFF" />
<text x="358.5" y="-420.45" transform="scale(1, -1)"
	style="font-family:Times;font-weight:normal;font-style:normal;font-size:12px"> </text>
<text x="385.56" y="-3.8613" transform="scale(1, -1)"
	style="font-family:Times;font-weight:normal;font-style:normal;font-size:12px">Costs</text>
<text x="75.305" y="-18.634" transform="scale(1, -1)"
	style="font-family:Times;font-weight:normal;font-style:normal;font-size:10px">0</text>
<text x="358.93" y="-18.634" transform="scale(1, -1)"
	style="font-family:Times;font-weight:normal;font-style:normal;font-size:10px">200</text>
<text x="647.56" y="-18.634" transform="scale(1, -1)"
	style="font-family:Times;font-weight:normal;font-style:normal;font-size:10px">400</text>
<path d="M77.805,28.263L77.805,36.263" style="fill:none;stroke:#000000;stroke-width:0.5" />
<path d="M366.43,28.263L366.43,36.263" style="fill:none;stroke:#000000;stroke-width:0.5" />
<path d="M655.06,28.263L655.06,36.263" style="fill:none;stroke:#000000;stroke-width:0.5" />
<path d="M222.12,32.263L222.12,36.263" style="fill:none;stroke:#000000;stroke-width:0.5" />
<path d="M510.75,32.263L510.75,36.263" style="fill:none;stroke:#000000;stroke-width:0.5" />
<path d="M77.805,36.263L720,36.263" style="fill:none;stroke:#000000;stroke-width:0.5" />
<g transform="rotate(90)">
<text x="152.55" y="11.555" transform="scale(1, -1)"
	style="font-family:Times;font-weight:normal;font-style:normal;font-size:12px">Number of trials (1000000 total)</text>
</g>
<text x="24.055" y="-69.357" transform="scale(1, -1)"
	style="font-family:Times;font-weight:normal;font-style:normal;font-size:10px">25000.00</text>
<text x="19.055" y="-179" transform="scale(1, -1)"
	style="font-family:Times;font-weight:normal;font-style:normal;font-size:10px">125000.00</text>
<text x="19.055" y="-288.65" transform="scale(1, -1)"
	style="font-family:Times;font-weight:normal;font-style:normal;font-size:10px">225000.00</text>
<text x="19.055" y="-398.3" transform="scale(1, -1)"
	style="font-family:Times;font-weight:normal;font-style:normal;font-size:10px">325000.00</text>
<path d="M64.055,72.562L72.055,72.562" style="fill:none;stroke:#000000;stroke-width:0.5" />
<path d="M64.055,182.21L72.055,182.21" style="fill:none;stroke:#000000;stroke-width:0.5" />
<path d="M64.055,291.86L72.055,291.86" style="fill:none;stroke:#000000;stroke-width:0.5" />
<path d="M64.055,401.5L72.055,401.5" style="fill:none;stroke:#000000;stroke-width:0.5" />
<path d="M68.055,127.39L72.055,127.39" style="fill:none;stroke:#000000;stroke-width:0.5" />
<path d="M68.055,237.03L72.055,237.03" style="fill:none;stroke:#000000;stroke-width:0.5" />
<path d="M68.055,346.68L72.055,346.68" style="fill:none;stroke:#000000;stroke-width:0.5" />
<path d="M72.055,45.151L72.055,416.58" style="fill:none;stroke:#000000;stroke-width:0.5" />
<path d="M77.805,416.58L109.55,48.605L119.66,74.616L121.1,67.279L122.54,66.243L123.99,66.456L126.87,48.612L128.31,52.281L129.76,59.355L132.64,55.704L134.09,51.982L135.53,66.58L136.97,59.086L138.42,55.661L139.86,67.317L141.3,52.293L142.75,48.569L148.52,62.602L149.96,48.727L151.4,52.426L152.85,45.368L154.29,59.17L155.73,81.944L158.62,59.141L160.06,67.477L161.51,45.695L162.95,60.844L164.39,46.853L165.84,69.433L167.28,57.175L168.72,57.025L170.17,46.197L171.61,47.133L173.05,46.612L174.49,54.251L175.94,47.174L177.38,47.906L178.82,48.567L180.27,52.062L181.71,49.408L183.15,48.446L184.6,62.475L186.04,47.965L187.48,47.428L188.93,46.416L190.37,48.118L191.81,48.44L193.26,47.885L194.7,48.72L196.14,48.192L197.58,51.258L199.03,49.66L200.47,51.2L201.91,50.105L203.36,48.396L204.8,49.592L206.24,49.99L207.69,50.147L209.13,50.043L210.57,51.329L212.02,50.754L213.46,50.398L214.9,49.433L216.35,49.271L217.79,51.24L219.23,48.812L220.68,49.594L222.12,48.664L223.56,48.505L225,49.109L226.45,50.679L227.89,49.183L229.33,49.235L230.78,48.871L232.22,48.149L233.66,48.059L235.11,46.864L236.55,50.228L237.99,48.643L239.44,47.825L240.88,48.842L242.32,48.015L243.77,49.673L245.21,48.889L246.65,48.703L248.09,48.003L249.54,47.145L250.98,47.912L252.42,47.34L253.87,47.115L255.31,47.913L256.75,47.725L258.2,47.215L259.64,46.819L261.08,46.948L262.53,48.204L263.97,46.575L265.41,47.131L266.86,47.132L268.3,46.729L269.74,47.079L271.18,46.584L272.63,47.395L274.07,46.77L275.51,46.856L276.96,46.355L278.4,46.455L279.84,46.419L281.29,46.648L282.73,46.509L284.17,46.343L285.62,46.549L287.06,46.731L288.5,46.629L289.95,46.393L291.39,46.419L292.83,46.388L294.28,46.364L295.72,46.381L297.16,46.318L298.6,46.384L300.05,46.209L301.49,46.321L302.93,46.287L304.38,46.26L305.82,46.201L307.26,46.262L308.71,46.198L310.15,45.98L311.59,46.038L313.04,45.978L314.48,46.091L315.92,45.969L317.37,46.077L318.81,45.953L320.25,45.868L321.69,45.906L323.14,45.89L324.58,45.874L326.02,45.905L327.47,45.831L328.91,45.852L330.35,45.694L331.8,45.725L333.24,45.856L334.68,45.712L336.13,45.64L337.57,45.657L339.01,45.639L340.46,45.665L341.9,45.553L343.34,45.647L344.78,45.581L346.23,45.605L347.67,45.634L349.11,45.538L350.56,45.586L352,45.586L353.44,45.513L354.89,45.49L356.33,45.469L357.77,45.484L359.22,45.49L360.66,45.446L362.1,45.431L363.55,45.487L364.99,45.45L366.43,45.439L367.87,45.42L369.32,45.411L370.76,45.364L372.2,45.424L373.65,45.378L375.09,45.393L376.53,45.421L377.98,45.374L379.42,45.337L380.86,45.356L382.31,45.324L383.75,45.326L385.19,45.329L386.64,45.368L388.08,45.339L389.52,45.324L390.97,45.311L392.41,45.29L393.85,45.296L395.29,45.32L396.74,45.309L398.18,45.293L399.62,45.269L401.07,45.276L402.51,45.283L403.95,45.265L405.4,45.262L406.84,45.243L408.28,45.251L409.73,45.243L411.17,45.237L412.61,45.233L414.06,45.243L415.5,45.233L416.94,45.226L418.38,45.227L419.83,45.22L421.27,45.222L422.71,45.229L424.16,45.234L425.6,45.22L427.04,45.214L428.49,45.215L429.93,45.214L431.37,45.212L432.82,45.22L434.26,45.219L435.7,45.208L437.15,45.207L438.59,45.191L440.03,45.212L441.47,45.207L442.92,45.186L444.36,45.204L445.8,45.196L447.25,45.185L448.69,45.184L450.13,45.186L451.58,45.179L453.02,45.192L454.46,45.183L455.91,45.19L457.35,45.179L458.79,45.175L460.24,45.181L461.68,45.179L463.12,45.178L464.57,45.178L466.01,45.184L467.45,45.172L468.89,45.166L470.34,45.168L471.78,45.166L473.22,45.166L474.67,45.171L476.11,45.169L477.55,45.171L479,45.167L480.44,45.174L481.88,45.166L483.33,45.17L484.77,45.168L486.21,45.166L487.66,45.163L489.1,45.161L490.54,45.157L491.98,45.168L493.43,45.159L494.87,45.161L496.31,45.162L497.76,45.166L499.2,45.162L500.64,45.161L502.09,45.154L503.53,45.165L504.97,45.156L506.42,45.155L507.86,45.162L509.3,45.161L510.75,45.16L512.19,45.156L513.63,45.156L515.07,45.157L516.52,45.157L517.96,45.159L519.4,45.154L520.85,45.154L522.29,45.155L523.73,45.154L525.18,45.158L526.62,45.151L528.06,45.157L529.51,45.16L530.95,45.155L532.39,45.154L533.84,45.152L535.28,45.152L536.72,45.155L538.16,45.154L539.61,45.154L541.05,45.154L542.49,45.16L543.94,45.151L545.38,45.151L546.82,45.152L548.27,45.152L549.71,45.152L551.15,45.154L552.6,45.154L554.04,45.152L555.48,45.154L556.93,45.154L559.81,45.151L561.26,45.151L562.7,45.151L564.14,45.151L565.58,45.151L567.03,45.151L568.47,45.151L571.36,45.152L572.8,45.151L575.69,45.151L577.13,45.154L578.57,45.151L580.02,45.152L582.9,45.151L585.79,45.151L590.12,45.151L591.56,45.151L594.45,45.151L595.89,45.151L597.33,45.151L600.22,45.151L610.32,45.151L617.54,45.151L629.08,45.151L631.97,45.151L634.86,45.151L639.18,45.151L659.39,45.152L720,45.151" style="fill:none;stroke:#0000FF" />
</g>
</svg>
