<?xml version="1.0"?>
<!-- Generated by SVGo and Plotinum VG -->
<svg width="720pt" height="432pt" viewBox="0 0 720 432"
	xmlns="http://www.w3.org/2000/svg"
	xmlns:xlink="http://www.w3.org/1999/xlink">
<g transform="scale(1, -1) translate(0, -432)">
<path d="M0,0L720,0L720,432L0,432Z" style="fill:#FFFFFF" />
<text x="358.5" y="-420.45" transform="scale(1, -1)"
	style="font-family:Times;font-weight:normal;font-style:normal;font-size:12px"> </text>
<text x="379.31" y="-3.8613" transform="scale(1, -1)"
	style="font-family:Times;font-weight:normal;font-style:normal;font-size:12px">Costs</text>
<text x="62.805" y="-18.634" transform="scale(1, -1)"
	style="font-family:Times;font-weight:normal;font-style:normal;font-size:10px">0</text>
<text x="365.9" y="-18.634" transform="scale(1, -1)"
	style="font-family:Times;font-weight:normal;font-style:normal;font-size:10px">200</text>
<text x="673.99" y="-18.634" transform="scale(1, -1)"
	style="font-family:Times;font-weight:normal;font-style:normal;font-size:10px">400</text>
<path d="M65.305,28.263L65.305,36.263" style="fill:none;stroke:#000000;stroke-width:0.5" />
<path d="M373.4,28.263L373.4,36.263" style="fill:none;stroke:#000000;stroke-width:0.5" />
<path d="M681.49,28.263L681.49,36.263" style="fill:none;stroke:#000000;stroke-width:0.5" />
<path d="M219.35,32.263L219.35,36.263" style="fill:none;stroke:#000000;stroke-width:0.5" />
<path d="M527.44,32.263L527.44,36.263" style="fill:none;stroke:#000000;stroke-width:0.5" />
<path d="M65.305,36.263L720,36.263" style="fill:none;stroke:#000000;stroke-width:0.5" />
<g transform="rotate(90)">
<text x="152.55" y="11.555" transform="scale(1, -1)"
	style="font-family:Times;font-weight:normal;font-style:normal;font-size:12px">Number of trials (1000000 total)</text>
</g>
<text x="19.055" y="-149.37" transform="scale(1, -1)"
	style="font-family:Times;font-weight:normal;font-style:normal;font-size:10px">100000</text>
<text x="19.055" y="-364.21" transform="scale(1, -1)"
	style="font-family:Times;font-weight:normal;font-style:normal;font-size:10px">300000</text>
<path d="M51.555,152.57L59.555,152.57" style="fill:none;stroke:#000000;stroke-width:0.5" />
<path d="M51.555,367.42L59.555,367.42" style="fill:none;stroke:#000000;stroke-width:0.5" />
<path d="M55.555,260L59.555,260" style="fill:none;stroke:#000000;stroke-width:0.5" />
<path d="M59.555,45.151L59.555,416.58" style="fill:none;stroke:#000000;stroke-width:0.5" />
<path d="M65.305,416.58L106.9,59.773L108.44,62.882L109.98,59.04L113.06,62.523L114.6,48.488L116.14,59.458L117.68,76.871L120.76,59.113L123.84,55.533L125.38,52.045L128.46,59.132L130,69.463L133.08,52.196L136.17,59.768L140.79,59.479L142.33,63.203L143.87,59.497L146.95,77.629L148.49,66.228L150.03,45.77L151.57,49.015L153.11,52.731L154.65,60.255L156.19,49.483L157.73,46.569L159.27,68.786L160.81,50.506L162.35,47.071L163.89,46.559L165.43,47.833L166.98,46.169L168.52,47.61L170.06,46.701L171.6,47.709L173.14,48.493L174.68,46.88L176.22,47.352L177.76,51.459L179.3,61.676L180.84,48.439L182.38,47.855L183.92,48.223L185.46,48.673L187,47.305L188.54,68.28L190.08,59.161L191.62,49.55L193.16,49.098L194.7,50.036L196.24,49.656L197.78,48.622L199.32,51.064L200.87,50.152L202.41,49.209L203.95,48.952L205.49,49.117L207.03,50.697L208.57,47.91L210.11,48.384L211.65,51.386L213.19,48.392L214.73,47.777L216.27,46.442L217.81,48.963L219.35,48.45L220.89,47.075L222.43,48.623L223.97,50.351L225.51,48.718L227.05,47.594L228.59,46.984L230.13,50.853L231.67,49.68L233.21,47.774L234.76,48.244L236.3,49.526L237.84,48.851L239.38,47.26L240.92,49.804L242.46,49.425L244,47.95L245.54,46.58L247.08,47.313L248.62,47.833L250.16,47.147L251.7,46.764L253.24,48.02L254.78,47.808L256.32,47.309L257.86,46.676L259.4,47.168L260.94,47.915L262.48,46.859L264.02,46.913L265.56,47.511L267.1,47.872L268.65,46.968L270.19,47.839L271.73,48.402L273.27,47.692L274.81,46.542L276.35,46.795L277.89,47.202L279.43,46.8L280.97,46.347L282.51,47.308L284.05,47.091L285.59,46.388L287.13,46.285L288.67,46.422L290.21,46.333L291.75,46.225L293.29,46.252L294.83,46.341L296.37,46.168L297.91,45.946L299.45,46.148L301,46.423L302.54,46.945L304.08,46.32L305.62,46.163L307.16,46.115L308.7,46.018L310.24,45.86L311.78,46.117L313.32,46.698L314.86,46.1L316.4,45.965L317.94,46.066L319.48,46.199L321.02,45.94L322.56,45.911L324.1,46.077L325.64,46.009L327.18,45.814L328.72,45.803L330.26,45.916L331.8,45.878L333.34,45.736L334.89,45.8L336.43,45.879L337.97,45.781L339.51,45.634L341.05,45.648L342.59,45.692L344.13,45.714L345.67,45.621L347.21,45.751L348.75,45.75L350.29,45.692L351.83,45.583L353.37,45.668L354.91,45.746L356.45,45.638L357.99,45.525L359.53,45.555L361.07,45.582L362.61,45.511L364.15,45.508L365.69,45.617L367.23,45.541L368.78,45.456L370.32,45.424L371.86,45.483L373.4,45.466L374.94,45.417L376.48,45.419L378.02,45.466L379.56,45.431L381.1,45.39L382.64,45.354L384.18,45.444L385.72,45.423L387.26,45.387L388.8,45.366L390.34,45.409L391.88,45.396L393.42,45.352L394.96,45.412L396.5,45.417L398.04,45.34L399.58,45.314L401.12,45.333L402.67,45.366L404.21,45.323L405.75,45.306L407.29,45.357L408.83,45.309L410.37,45.275L411.91,45.277L413.45,45.303L414.99,45.3L416.53,45.276L418.07,45.273L419.61,45.262L421.15,45.258L422.69,45.253L424.23,45.247L425.77,45.272L427.31,45.256L428.85,45.251L430.39,45.257L431.93,45.257L433.47,45.243L435.01,45.243L436.56,45.233L438.1,45.25L439.64,45.227L441.18,45.224L442.72,45.234L444.26,45.228L445.8,45.216L447.34,45.215L448.88,45.236L450.42,45.219L451.96,45.196L453.5,45.21L455.04,45.221L456.58,45.2L458.12,45.196L459.66,45.2L461.2,45.212L462.74,45.202L464.28,45.193L465.82,45.192L467.36,45.185L468.91,45.188L470.45,45.189L471.99,45.195L473.53,45.184L475.07,45.185L476.61,45.191L478.15,45.178L479.69,45.181L481.23,45.17L482.77,45.172L484.31,45.175L485.85,45.186L487.39,45.183L488.93,45.174L490.47,45.17L492.01,45.172L493.55,45.171L495.09,45.172L496.63,45.171L498.17,45.169L499.71,45.171L501.25,45.167L502.8,45.178L504.34,45.172L505.88,45.159L507.42,45.16L508.96,45.169L510.5,45.166L512.04,45.163L513.58,45.17L515.12,45.165L516.66,45.161L518.2,45.164L519.74,45.165L521.28,45.165L522.82,45.159L524.36,45.155L525.9,45.161L527.44,45.16L528.98,45.154L530.52,45.156L532.06,45.163L533.6,45.162L535.14,45.16L536.69,45.158L538.23,45.159L539.77,45.155L541.31,45.156L542.85,45.157L544.39,45.158L545.93,45.154L547.47,45.154L549.01,45.154L550.55,45.156L552.09,45.156L553.63,45.151L555.17,45.155L556.71,45.154L558.25,45.157L559.79,45.157L561.33,45.152L562.87,45.158L564.41,45.155L565.95,45.156L567.49,45.155L569.03,45.156L570.58,45.152L572.12,45.151L573.66,45.151L575.2,45.154L576.74,45.152L578.28,45.154L579.82,45.155L581.36,45.154L582.9,45.152L584.44,45.151L585.98,45.152L587.52,45.152L589.06,45.151L592.14,45.154L593.68,45.152L596.76,45.151L598.3,45.151L599.84,45.154L604.47,45.152L606.01,45.151L607.55,45.151L609.09,45.154L612.17,45.151L613.71,45.151L615.25,45.151L618.33,45.151L619.87,45.151L622.95,45.151L624.49,45.151L626.03,45.154L629.11,45.152L630.65,45.151L641.44,45.151L642.98,45.152L646.06,45.151L652.22,45.151L653.76,45.151L684.57,45.151L687.65,45.151L690.73,45.151L720,45.151" style="fill:none;stroke:#0000FF" />
</g>
</svg>
