<?xml version="1.0"?>
<!-- Generated by SVGo and Plotinum VG -->
<svg width="720pt" height="432pt" viewBox="0 0 720 432"
	xmlns="http://www.w3.org/2000/svg"
	xmlns:xlink="http://www.w3.org/1999/xlink">
<g transform="scale(1, -1) translate(0, -432)">
<path d="M0,0L720,0L720,432L0,432Z" style="fill:#FFFFFF" />
<text x="358.5" y="-420.45" transform="scale(1, -1)"
	style="font-family:Times;font-weight:normal;font-style:normal;font-size:12px"> </text>
<text x="379.31" y="-3.8613" transform="scale(1, -1)"
	style="font-family:Times;font-weight:normal;font-style:normal;font-size:12px">Costs</text>
<text x="62.805" y="-18.634" transform="scale(1, -1)"
	style="font-family:Times;font-weight:normal;font-style:normal;font-size:10px">0</text>
<text x="330.59" y="-18.634" transform="scale(1, -1)"
	style="font-family:Times;font-weight:normal;font-style:normal;font-size:10px">200</text>
<text x="603.38" y="-18.634" transform="scale(1, -1)"
	style="font-family:Times;font-weight:normal;font-style:normal;font-size:10px">400</text>
<path d="M65.305,28.263L65.305,36.263" style="fill:none;stroke:#000000;stroke-width:0.5" />
<path d="M338.09,28.263L338.09,36.263" style="fill:none;stroke:#000000;stroke-width:0.5" />
<path d="M610.88,28.263L610.88,36.263" style="fill:none;stroke:#000000;stroke-width:0.5" />
<path d="M201.7,32.263L201.7,36.263" style="fill:none;stroke:#000000;stroke-width:0.5" />
<path d="M474.49,32.263L474.49,36.263" style="fill:none;stroke:#000000;stroke-width:0.5" />
<path d="M65.305,36.263L720,36.263" style="fill:none;stroke:#000000;stroke-width:0.5" />
<g transform="rotate(90)">
<text x="152.55" y="11.555" transform="scale(1, -1)"
	style="font-family:Times;font-weight:normal;font-style:normal;font-size:12px">Number of trials (1000000 total)</text>
</g>
<text x="24.055" y="-93.364" transform="scale(1, -1)"
	style="font-family:Times;font-weight:normal;font-style:normal;font-size:10px">40000</text>
<text x="19.055" y="-247.62" transform="scale(1, -1)"
	style="font-family:Times;font-weight:normal;font-style:normal;font-size:10px">160000</text>
<text x="19.055" y="-401.88" transform="scale(1, -1)"
	style="font-family:Times;font-weight:normal;font-style:normal;font-size:10px">280000</text>
<path d="M51.555,96.57L59.555,96.57" style="fill:none;stroke:#000000;stroke-width:0.5" />
<path d="M51.555,250.83L59.555,250.83" style="fill:none;stroke:#000000;stroke-width:0.5" />
<path d="M51.555,405.09L59.555,405.09" style="fill:none;stroke:#000000;stroke-width:0.5" />
<path d="M55.555,173.7L59.555,173.7" style="fill:none;stroke:#000000;stroke-width:0.5" />
<path d="M55.555,327.96L59.555,327.96" style="fill:none;stroke:#000000;stroke-width:0.5" />
<path d="M59.555,45.151L59.555,416.58" style="fill:none;stroke:#000000;stroke-width:0.5" />
<path d="M65.305,416.58L95.312,62.705L98.039,52.391L102.13,52.17L103.5,59.147L104.86,55.782L107.59,58.946L108.95,48.514L110.31,55.731L111.68,59.413L113.04,52.159L114.41,58.95L115.77,48.58L117.13,62.291L118.5,76.798L119.86,65.64L121.23,52.236L122.59,73.419L123.95,66.132L125.32,59.458L128.05,52.845L130.77,48.627L132.14,48.914L133.5,63.5L134.87,53.093L136.23,45.336L137.59,87.843L138.96,62.849L140.32,53.373L141.69,49.708L143.05,53.231L144.41,53.48L145.78,53.26L147.14,46.936L148.51,61.041L149.87,61.674L151.23,53.891L152.6,48.176L153.96,47.796L155.33,48.168L156.69,52.247L158.05,48.138L159.42,47.736L160.78,49.023L162.15,49.059L163.51,49.228L164.87,49.36L166.24,48.989L167.6,51.081L168.96,49.377L170.33,57.641L171.69,50.36L173.06,49.833L174.42,63.833L175.78,70.278L177.15,52.285L178.51,50.28L179.88,50.904L181.24,50.73L182.6,50.586L183.97,49.977L185.33,49.567L186.7,51.49L188.06,50.568L189.42,50.135L190.79,53.278L192.15,52.507L193.52,50.658L194.88,51.75L196.24,51.765L197.61,51.227L198.97,49.035L200.34,49.681L201.7,49.522L203.06,49.975L204.43,49.643L205.79,51.134L207.16,50.277L208.52,49.345L209.88,49.635L211.25,49.487L212.61,48.908L213.98,48.981L215.34,48.472L216.7,49.316L218.07,49.51L219.43,48.487L220.79,49.375L222.16,50.313L223.52,49.689L224.89,48.873L226.25,48.186L227.61,49.78L228.98,50.437L230.34,49.044L231.71,48.503L233.07,49.809L234.43,48.693L235.8,48.116L237.16,47.326L238.53,47.467L239.89,47.343L241.25,47.324L242.62,48.699L243.98,48.548L245.35,47.528L246.71,48.746L248.07,49.914L249.44,48.393L250.8,47.578L252.17,47.378L253.53,47.884L254.89,47.924L256.26,47.447L257.62,47.528L258.99,48.271L260.35,48.035L261.71,47.217L263.08,47.1L264.44,46.977L265.81,47.128L267.17,47.053L268.53,46.81L269.9,46.789L271.26,46.833L272.62,46.781L273.99,46.823L275.35,46.772L276.72,46.876L278.08,46.814L279.44,47.041L280.81,47.085L282.17,46.654L283.54,46.619L284.9,47.267L286.26,46.736L287.63,46.519L288.99,46.466L290.36,46.364L291.72,46.37L293.08,46.361L294.45,46.279L295.81,46.41L297.18,46.357L298.54,46.257L299.9,46.387L301.27,46.581L302.63,46.397L304,46.285L305.36,46.353L306.72,46.252L308.09,46.124L309.45,46.095L310.82,46.046L312.18,46.103L313.54,46.033L314.91,46.099L316.27,46.054L317.64,45.968L319,45.982L320.36,45.947L321.73,45.964L323.09,45.891L324.45,45.813L325.82,45.857L327.18,45.93L328.55,45.82L329.91,45.804L331.27,45.793L332.64,45.856L334,45.801L335.37,45.73L336.73,45.686L338.09,45.763L339.46,45.708L340.82,45.662L342.19,45.681L343.55,45.64L344.91,45.594L346.28,45.592L347.64,45.581L349.01,45.518L350.37,45.567L351.73,45.55L353.1,45.61L354.46,45.509L355.83,45.52L357.19,45.587L358.55,45.511L359.92,45.513L361.28,45.518L362.65,45.515L364.01,45.487L365.37,45.524L366.74,45.424L368.1,45.433L369.47,45.477L370.83,45.437L372.19,45.401L373.56,45.433L374.92,45.396L376.28,45.38L377.65,45.394L379.01,45.396L380.38,45.385L381.74,45.354L383.1,45.389L384.47,45.398L385.83,45.379L387.2,45.342L388.56,45.317L389.92,45.353L391.29,45.334L392.65,45.32L394.02,45.271L395.38,45.304L396.74,45.311L398.11,45.307L399.47,45.304L400.84,45.281L402.2,45.273L403.56,45.271L404.93,45.258L406.29,45.298L407.66,45.271L409.02,45.271L410.38,45.259L411.75,45.289L413.11,45.264L414.48,45.266L415.84,45.272L417.2,45.245L418.57,45.235L419.93,45.226L421.3,45.245L422.66,45.235L424.02,45.23L425.39,45.23L426.75,45.232L428.12,45.212L429.48,45.228L430.84,45.212L432.21,45.194L433.57,45.227L434.93,45.216L436.3,45.198L437.66,45.213L439.03,45.214L440.39,45.199L441.75,45.204L443.12,45.214L444.48,45.208L445.85,45.181L447.21,45.186L448.57,45.196L449.94,45.186L451.3,45.187L452.67,45.196L454.03,45.177L455.39,45.189L456.76,45.198L458.12,45.187L459.49,45.178L460.85,45.187L462.21,45.184L463.58,45.18L464.94,45.173L466.31,45.18L467.67,45.187L469.03,45.176L470.4,45.193L471.76,45.18L473.13,45.171L474.49,45.169L475.85,45.173L477.22,45.176L478.58,45.177L479.95,45.177L481.31,45.163L482.67,45.176L484.04,45.171L485.4,45.164L486.76,45.168L488.13,45.166L489.49,45.168L490.86,45.162L492.22,45.164L493.58,45.158L494.95,45.162L496.31,45.164L497.68,45.163L499.04,45.163L500.4,45.166L501.77,45.158L503.13,45.162L504.5,45.163L505.86,45.157L507.22,45.16L508.59,45.166L509.95,45.166L511.32,45.16L512.68,45.162L514.04,45.162L515.41,45.155L516.77,45.157L518.14,45.155L519.5,45.157L520.86,45.157L522.23,45.159L523.59,45.158L524.96,45.155L526.32,45.157L527.68,45.158L529.05,45.155L530.41,45.159L531.78,45.158L533.14,45.157L534.5,45.155L535.87,45.157L537.23,45.159L538.59,45.155L539.96,45.157L541.32,45.155L545.41,45.151L546.78,45.154L549.51,45.151L552.23,45.154L553.6,45.154L554.96,45.154L556.33,45.153L557.69,45.154L559.05,45.151L560.42,45.151L561.78,45.151L564.51,45.151L567.24,45.154L568.6,45.153L571.33,45.151L572.69,45.151L574.06,45.154L576.79,45.155L578.15,45.151L580.88,45.151L582.24,45.151L583.61,45.151L584.97,45.151L590.42,45.151L591.79,45.151L593.15,45.151L594.52,45.153L595.88,45.151L601.34,45.151L608.16,45.151L614.98,45.151L616.34,45.151L617.7,45.151L629.98,45.151L642.25,45.151L653.17,45.151L657.26,45.151L720,45.151" style="fill:none;stroke:#0000FF" />
</g>
</svg>
