<?xml version="1.0"?>
<!-- Generated by SVGo and Plotinum VG -->
<svg width="720pt" height="432pt" viewBox="0 0 720 432"
	xmlns="http://www.w3.org/2000/svg"
	xmlns:xlink="http://www.w3.org/1999/xlink">
<g transform="scale(1, -1) translate(0, -432)">
<path d="M0,0L720,0L720,432L0,432Z" style="fill:#FFFFFF" />
<text x="358.5" y="-420.45" transform="scale(1, -1)"
	style="font-family:Times;font-weight:normal;font-style:normal;font-size:12px"> </text>
<text x="376.81" y="-3.8613" transform="scale(1, -1)"
	style="font-family:Times;font-weight:normal;font-style:normal;font-size:12px">Costs</text>
<text x="51.555" y="-18.634" transform="scale(1, -1)"
	style="font-family:Times;font-weight:normal;font-style:normal;font-size:10px">0.00</text>
<text x="327.99" y="-18.634" transform="scale(1, -1)"
	style="font-family:Times;font-weight:normal;font-style:normal;font-size:10px">250.00</text>
<text x="609.43" y="-18.634" transform="scale(1, -1)"
	style="font-family:Times;font-weight:normal;font-style:normal;font-size:10px">500.00</text>
<path d="M60.305,28.263L60.305,36.263" style="fill:none;stroke:#000000;stroke-width:0.5" />
<path d="M341.74,28.263L341.74,36.263" style="fill:none;stroke:#000000;stroke-width:0.5" />
<path d="M623.18,28.263L623.18,36.263" style="fill:none;stroke:#000000;stroke-width:0.5" />
<path d="M116.59,32.263L116.59,36.263" style="fill:none;stroke:#000000;stroke-width:0.5" />
<path d="M172.88,32.263L172.88,36.263" style="fill:none;stroke:#000000;stroke-width:0.5" />
<path d="M229.17,32.263L229.17,36.263" style="fill:none;stroke:#000000;stroke-width:0.5" />
<path d="M285.46,32.263L285.46,36.263" style="fill:none;stroke:#000000;stroke-width:0.5" />
<path d="M398.03,32.263L398.03,36.263" style="fill:none;stroke:#000000;stroke-width:0.5" />
<path d="M454.32,32.263L454.32,36.263" style="fill:none;stroke:#000000;stroke-width:0.5" />
<path d="M510.61,32.263L510.61,36.263" style="fill:none;stroke:#000000;stroke-width:0.5" />
<path d="M566.9,32.263L566.9,36.263" style="fill:none;stroke:#000000;stroke-width:0.5" />
<path d="M679.47,32.263L679.47,36.263" style="fill:none;stroke:#000000;stroke-width:0.5" />
<path d="M60.305,36.263L720,36.263" style="fill:none;stroke:#000000;stroke-width:0.5" />
<g transform="rotate(90)">
<text x="152.55" y="11.555" transform="scale(1, -1)"
	style="font-family:Times;font-weight:normal;font-style:normal;font-size:12px">Number of trials (1000000 total)</text>
</g>
<text x="19.055" y="-89.506" transform="scale(1, -1)"
	style="font-family:Times;font-weight:normal;font-style:normal;font-size:10px">10000</text>
<text x="19.055" y="-232.2" transform="scale(1, -1)"
	style="font-family:Times;font-weight:normal;font-style:normal;font-size:10px">40000</text>
<text x="19.055" y="-374.9" transform="scale(1, -1)"
	style="font-family:Times;font-weight:normal;font-style:normal;font-size:10px">70000</text>
<path d="M46.555,92.712L54.555,92.712" style="fill:none;stroke:#000000;stroke-width:0.5" />
<path d="M46.555,235.41L54.555,235.41" style="fill:none;stroke:#000000;stroke-width:0.5" />
<path d="M46.555,378.1L54.555,378.1" style="fill:none;stroke:#000000;stroke-width:0.5" />
<path d="M50.555,140.28L54.555,140.28" style="fill:none;stroke:#000000;stroke-width:0.5" />
<path d="M50.555,187.84L54.555,187.84" style="fill:none;stroke:#000000;stroke-width:0.5" />
<path d="M50.555,282.97L54.555,282.97" style="fill:none;stroke:#000000;stroke-width:0.5" />
<path d="M50.555,330.54L54.555,330.54" style="fill:none;stroke:#000000;stroke-width:0.5" />
<path d="M54.555,45.151L54.555,416.58" style="fill:none;stroke:#000000;stroke-width:0.5" />
<path d="M60.305,416.58L86.197,74.937L89.574,82.229L90.7,69.129L91.826,48.543L92.952,48.866L94.077,51.944L95.203,73.7L96.329,81.8L97.455,62.156L98.581,93.872L99.706,65.747L100.83,73.529L101.96,66.57L103.08,92.731L104.21,73.039L105.34,90.866L106.46,130.89L107.59,51.887L108.71,72.825L109.84,55.297L110.96,55.449L112.09,73.648L114.34,48.429L115.47,55.035L116.59,84.612L117.72,62.85L118.84,45.717L119.97,84.488L121.1,68.706L122.22,55.326L123.35,47.406L124.47,59.321L125.6,90.148L126.72,88.165L127.85,66.893L128.98,62.722L130.1,88.25L131.23,70.775L132.35,61.152L133.48,58.246L134.6,61.305L135.73,102.13L136.86,60.306L137.98,62.237L139.11,61.238L140.23,65.519L141.36,70.394L142.49,72.687L143.61,71.992L144.74,68.796L145.86,67.379L146.99,111.67L148.11,65.181L149.24,70.494L150.37,76.973L151.49,75.883L152.62,67.911L153.74,61.247L154.87,71.512L155.99,71.802L157.12,66.932L158.25,67.574L159.37,64.996L160.5,69.12L161.62,70.922L162.75,73.681L163.87,69.338L165,73.881L166.13,77.377L167.25,67.773L168.38,72.026L169.5,68.549L170.63,70.789L171.75,77.629L172.88,76.135L174.01,71.455L175.13,66.841L176.26,78.471L177.38,72.111L178.51,68.477L179.64,64.996L180.76,67.987L181.89,77.258L183.01,68.387L184.14,66.104L185.26,70.951L186.39,73.353L187.52,72.773L188.64,66.199L189.77,70.199L190.89,68.387L192.02,74.761L193.14,74.58L194.27,65.048L195.4,73.467L196.52,71.755L197.65,66.204L198.77,66.832L199.9,63.573L201.02,68.563L202.15,68.615L203.28,68.953L204.4,65.086L205.53,66.166L206.65,70.418L207.78,67.759L208.9,65.642L210.03,65.6L211.16,67.916L212.28,70.299L213.41,68.715L214.53,66.423L215.66,66.822L216.79,69.31L217.91,67.588L219.04,65.081L220.16,64.135L221.29,64.639L222.41,70.385L223.54,63.378L224.67,63.726L225.79,64.853L226.92,64.073L228.04,64.991L229.17,64.068L230.29,64.848L231.42,64.791L232.55,64.173L233.67,64.629L234.8,62.746L235.92,63.816L237.05,63.673L238.17,64.782L239.3,62.36L240.43,61.856L241.55,63.925L242.68,62.817L243.8,61.966L244.93,61.533L246.06,60.724L247.18,61.162L248.31,61.39L249.43,61.024L250.56,60.249L251.68,62.18L252.81,62.351L253.94,59.782L255.06,60.51L256.19,60.662L257.31,60.758L258.44,60.886L259.56,59.559L260.69,59.645L261.82,59.935L262.94,59.93L264.07,59.045L265.19,58.346L266.32,58.375L267.44,58.779L268.57,58.898L269.7,57.77L270.82,58.018L271.95,57.861L273.07,57.49L274.2,57.385L275.32,56.634L276.45,57.39L277.58,57.185L278.7,57.219L279.83,55.972L280.95,56.329L282.08,56.748L283.21,56.077L284.33,55.644L285.46,55.383L286.58,55.663L287.71,56.134L288.83,55.563L289.96,55.121L291.09,55.088L292.21,55.687L293.34,54.707L294.46,54.384L295.59,54.289L296.71,54.607L297.84,54.84L298.97,54.526L300.09,53.96L301.22,53.78L302.34,53.737L303.47,53.903L304.59,53.647L305.72,52.981L306.85,53.014L307.97,52.971L309.1,53.071L310.22,52.648L311.35,52.614L312.47,52.933L313.6,52.61L314.73,52.196L315.85,52.196L316.98,52.262L318.1,51.877L319.23,51.701L320.36,51.297L321.48,51.359L322.61,51.511L323.73,51.297L324.86,51.525L325.98,51.04L327.11,50.916L328.24,51.026L329.36,50.964L330.49,50.864L331.61,50.717L332.74,50.555L333.86,50.298L334.99,50.407L336.12,50.017L337.24,50.184L338.37,50.312L339.49,49.87L340.62,49.932L341.74,49.594L342.87,49.708L344,49.285L345.12,49.437L346.25,49.361L347.37,49.128L348.5,49.261L349.62,49.437L350.75,49.28L351.88,48.766L353,48.904L354.13,48.923L355.25,48.676L356.38,48.652L357.51,48.709L358.63,48.505L359.76,48.429L360.88,48.605L362.01,48.229L363.13,48.3L364.26,48.253L365.39,48.134L366.51,47.996L367.64,48.105L368.76,47.929L369.89,48.01L371.01,47.786L372.14,47.877L373.27,47.644L374.39,47.596L375.52,47.748L376.64,47.411L377.77,47.658L378.89,47.582L380.02,47.368L381.15,47.411L382.27,47.344L383.4,47.311L384.52,47.301L385.65,47.287L386.78,47.149L387.9,47.087L389.03,47.121L390.15,46.93L391.28,46.845L392.4,46.973L393.53,47.106L394.66,46.802L395.78,46.878L396.91,46.75L398.03,46.654L399.16,46.683L400.28,46.621L401.41,46.635L402.54,46.645L403.66,46.654L404.79,46.759L405.91,46.578L407.04,46.388L408.16,46.521L409.29,46.526L410.42,46.497L411.54,46.331L412.67,46.431L413.79,46.336L414.92,46.369L416.04,46.145L417.17,46.269L418.3,46.179L419.42,46.079L420.55,46.05L421.67,46.16L422.8,46.145L423.93,46.093L425.05,46.112L426.18,45.989L427.3,46.103L428.43,46.027L429.55,46.084L430.68,46.103L431.81,45.969L432.93,45.855L434.06,45.908L435.18,45.903L436.31,45.832L437.43,45.832L438.56,45.836L439.69,45.827L440.81,45.912L441.94,45.803L443.06,45.755L444.19,45.727L445.31,45.755L446.44,45.76L447.57,45.746L448.69,45.622L449.82,45.755L450.94,45.67L452.07,45.618L453.19,45.603L454.32,45.598L455.45,45.637L456.57,45.632L457.7,45.584L458.82,45.551L459.95,45.603L461.08,45.537L462.2,45.489L463.33,45.551L464.45,45.551L465.58,45.518L466.7,45.489L467.83,45.541L468.96,45.494L470.08,45.461L471.21,45.461L472.33,45.475L473.46,45.47L474.58,45.47L475.71,45.451L476.84,45.394L477.96,45.394L479.09,45.465L480.21,45.437L481.34,45.384L482.46,45.337L483.59,45.451L484.72,45.408L485.84,45.37L486.97,45.327L488.09,45.37L489.22,45.342L490.34,45.351L491.47,45.389L492.6,45.327L493.72,45.346L494.85,45.304L495.97,45.313L497.1,45.323L498.23,45.356L499.35,45.389L500.48,45.289L501.6,45.285L502.73,45.318L503.85,45.294L504.98,45.285L506.11,45.251L507.23,45.285L508.36,45.246L509.48,45.256L510.61,45.218L511.73,45.27L512.86,45.251L513.99,45.289L515.11,45.285L516.24,45.227L517.36,45.251L518.49,45.237L519.61,45.223L520.74,45.218L521.87,45.204L522.99,45.246L524.12,45.218L525.24,45.223L526.37,45.237L527.5,45.232L528.62,45.218L529.75,45.227L530.87,45.227L532,45.227L533.12,45.218L534.25,45.208L535.38,45.227L536.5,45.213L537.63,45.199L538.75,45.199L539.88,45.185L541,45.208L542.13,45.208L543.26,45.175L544.38,45.18L545.51,45.208L546.63,45.208L547.76,45.18L548.88,45.194L550.01,45.17L551.14,45.189L552.26,45.18L553.39,45.18L554.51,45.175L555.64,45.204L556.76,45.18L557.89,45.166L559.02,45.175L560.14,45.218L561.27,45.18L562.39,45.189L563.52,45.175L564.65,45.17L565.77,45.156L566.9,45.175L568.02,45.18L569.15,45.17L570.27,45.175L571.4,45.151L572.53,45.185L573.65,45.18L574.78,45.166L575.9,45.161L577.03,45.18L578.15,45.18L579.28,45.175L580.41,45.175L581.53,45.194L582.66,45.175L583.78,45.166L584.91,45.161L586.03,45.156L587.16,45.151L588.29,45.166L589.41,45.151L590.54,45.156L591.66,45.156L592.79,45.151L593.91,45.161L595.04,45.175L596.17,45.156L597.29,45.156L598.42,45.166L600.67,45.161L601.8,45.166L602.92,45.161L604.05,45.151L605.17,45.151L606.3,45.151L609.68,45.151L610.8,45.166L611.93,45.151L613.05,45.156L615.3,45.151L616.43,45.156L617.56,45.151L619.81,45.175L620.93,45.151L622.06,45.151L623.18,45.156L624.31,45.156L625.44,45.151L627.69,45.151L628.81,45.151L629.94,45.151L634.44,45.151L636.69,45.151L641.2,45.161L650.2,45.156L655.83,45.156L659.21,45.151L664.84,45.151L668.22,45.151L670.47,45.151L679.47,45.151L686.23,45.151L720,45.151" style="fill:none;stroke:#0000FF" />
</g>
</svg>
