<?xml version="1.0"?>
<!-- Generated by SVGo and Plotinum VG -->
<svg width="720pt" height="432pt" viewBox="0 0 720 432"
	xmlns="http://www.w3.org/2000/svg"
	xmlns:xlink="http://www.w3.org/1999/xlink">
<g transform="scale(1, -1) translate(0, -432)">
<path d="M0,0L720,0L720,432L0,432Z" style="fill:#FFFFFF" />
<text x="358.5" y="-420.45" transform="scale(1, -1)"
	style="font-family:Times;font-weight:normal;font-style:normal;font-size:12px"> </text>
<text x="379.31" y="-3.8613" transform="scale(1, -1)"
	style="font-family:Times;font-weight:normal;font-style:normal;font-size:12px">Costs</text>
<text x="62.805" y="-18.634" transform="scale(1, -1)"
	style="font-family:Times;font-weight:normal;font-style:normal;font-size:10px">0</text>
<text x="229.19" y="-18.634" transform="scale(1, -1)"
	style="font-family:Times;font-weight:normal;font-style:normal;font-size:10px">100</text>
<text x="400.58" y="-18.634" transform="scale(1, -1)"
	style="font-family:Times;font-weight:normal;font-style:normal;font-size:10px">200</text>
<text x="571.96" y="-18.634" transform="scale(1, -1)"
	style="font-family:Times;font-weight:normal;font-style:normal;font-size:10px">300</text>
<path d="M65.305,28.263L65.305,36.263" style="fill:none;stroke:#000000;stroke-width:0.5" />
<path d="M236.69,28.263L236.69,36.263" style="fill:none;stroke:#000000;stroke-width:0.5" />
<path d="M408.08,28.263L408.08,36.263" style="fill:none;stroke:#000000;stroke-width:0.5" />
<path d="M579.46,28.263L579.46,36.263" style="fill:none;stroke:#000000;stroke-width:0.5" />
<path d="M99.582,32.263L99.582,36.263" style="fill:none;stroke:#000000;stroke-width:0.5" />
<path d="M133.86,32.263L133.86,36.263" style="fill:none;stroke:#000000;stroke-width:0.5" />
<path d="M168.14,32.263L168.14,36.263" style="fill:none;stroke:#000000;stroke-width:0.5" />
<path d="M202.41,32.263L202.41,36.263" style="fill:none;stroke:#000000;stroke-width:0.5" />
<path d="M270.97,32.263L270.97,36.263" style="fill:none;stroke:#000000;stroke-width:0.5" />
<path d="M305.25,32.263L305.25,36.263" style="fill:none;stroke:#000000;stroke-width:0.5" />
<path d="M339.52,32.263L339.52,36.263" style="fill:none;stroke:#000000;stroke-width:0.5" />
<path d="M373.8,32.263L373.8,36.263" style="fill:none;stroke:#000000;stroke-width:0.5" />
<path d="M442.35,32.263L442.35,36.263" style="fill:none;stroke:#000000;stroke-width:0.5" />
<path d="M476.63,32.263L476.63,36.263" style="fill:none;stroke:#000000;stroke-width:0.5" />
<path d="M510.91,32.263L510.91,36.263" style="fill:none;stroke:#000000;stroke-width:0.5" />
<path d="M545.19,32.263L545.19,36.263" style="fill:none;stroke:#000000;stroke-width:0.5" />
<path d="M613.74,32.263L613.74,36.263" style="fill:none;stroke:#000000;stroke-width:0.5" />
<path d="M648.02,32.263L648.02,36.263" style="fill:none;stroke:#000000;stroke-width:0.5" />
<path d="M682.3,32.263L682.3,36.263" style="fill:none;stroke:#000000;stroke-width:0.5" />
<path d="M716.57,32.263L716.57,36.263" style="fill:none;stroke:#000000;stroke-width:0.5" />
<path d="M65.305,36.263L720,36.263" style="fill:none;stroke:#000000;stroke-width:0.5" />
<g transform="rotate(90)">
<text x="152.55" y="11.555" transform="scale(1, -1)"
	style="font-family:Times;font-weight:normal;font-style:normal;font-size:12px">Number of trials (1000000 total)</text>
</g>
<text x="24.055" y="-81.992" transform="scale(1, -1)"
	style="font-family:Times;font-weight:normal;font-style:normal;font-size:10px">50000</text>
<text x="19.055" y="-242.18" transform="scale(1, -1)"
	style="font-family:Times;font-weight:normal;font-style:normal;font-size:10px">250000</text>
<text x="19.055" y="-402.37" transform="scale(1, -1)"
	style="font-family:Times;font-weight:normal;font-style:normal;font-size:10px">450000</text>
<path d="M51.555,85.198L59.555,85.198" style="fill:none;stroke:#000000;stroke-width:0.5" />
<path d="M51.555,245.39L59.555,245.39" style="fill:none;stroke:#000000;stroke-width:0.5" />
<path d="M51.555,405.57L59.555,405.57" style="fill:none;stroke:#000000;stroke-width:0.5" />
<path d="M55.555,165.29L59.555,165.29" style="fill:none;stroke:#000000;stroke-width:0.5" />
<path d="M55.555,325.48L59.555,325.48" style="fill:none;stroke:#000000;stroke-width:0.5" />
<path d="M59.555,45.151L59.555,416.58" style="fill:none;stroke:#000000;stroke-width:0.5" />
<path d="M65.305,416.58L109.87,48.468L111.58,52.202L113.29,58.926L115.01,51.983L118.43,48.504L120.15,48.493L121.86,48.566L123.58,62.867L125.29,48.583L127,59.149L128.72,48.543L133.86,69.413L135.57,48.512L137.29,51.999L144.14,55.486L149.28,55.648L151,63.227L152.71,52.224L156.14,66.721L157.85,59.231L159.57,45.485L161.28,48.837L162.99,52.233L164.71,52.406L166.42,45.379L168.14,45.585L169.85,63.87L171.56,59.843L173.28,45.883L174.99,45.837L176.71,45.772L178.42,45.633L180.13,45.975L181.85,46.567L183.56,46.193L185.28,46.197L186.99,45.807L188.7,45.529L190.42,45.814L192.13,53.833L193.84,45.896L195.56,46.775L197.27,53.364L198.99,46.475L200.7,46.045L202.41,64.963L204.13,60.718L205.84,47.312L207.56,46.346L209.27,46.71L210.98,46.803L212.7,47.4L214.41,47.14L216.12,46.826L217.84,47.87L219.55,48.269L221.27,46.861L222.98,46.336L224.69,47.521L226.41,46.895L228.12,47.089L229.84,47.03L231.55,46.7L233.26,46.575L234.98,46.612L236.69,45.984L238.4,46.878L240.12,47.294L241.83,47.34L243.55,46.869L245.26,45.844L246.97,46.116L248.69,47.714L250.4,47.581L252.12,46.477L253.83,46.917L255.54,47.54L257.26,46.87L258.97,46.238L260.68,47.839L262.4,47.882L264.11,46.857L265.83,46.547L267.54,46.047L269.25,46.108L270.97,47.105L272.68,46.468L274.4,45.875L276.11,46.763L277.82,45.791L279.54,45.462L281.25,46.054L282.97,46.651L284.68,45.75L286.39,45.989L288.11,47.088L289.82,46.911L291.53,45.788L293.25,46.352L294.96,46.978L296.68,46.515L298.39,45.935L300.1,45.937L301.82,46.48L303.53,46.061L305.25,45.497L306.96,46.213L308.67,46.872L310.39,46.112L312.1,45.597L313.81,45.518L315.53,45.481L317.24,45.581L318.96,45.599L320.67,45.505L322.38,45.533L324.1,45.698L325.81,45.478L327.53,45.455L329.24,45.767L330.95,45.78L332.67,45.544L334.38,45.851L336.09,45.709L337.81,45.436L339.52,45.487L341.24,46.181L342.95,45.468L344.66,45.509L346.38,45.506L348.09,45.518L349.81,45.472L351.52,45.501L353.23,45.48L354.95,45.546L356.66,45.538L358.38,45.468L360.09,45.46L361.8,45.461L363.52,45.433L365.23,45.384L366.94,45.467L368.66,45.416L370.37,45.356L372.09,45.357L373.8,45.369L375.51,45.361L377.23,45.36L378.94,45.372L380.66,45.409L382.37,45.381L384.08,45.271L385.8,45.344L387.51,45.441L389.22,45.351L390.94,45.284L392.65,45.348L394.37,45.367L396.08,45.325L397.79,45.292L399.51,45.372L401.22,45.329L402.94,45.311L404.65,45.281L406.36,45.271L408.08,45.272L409.79,45.282L411.5,45.206L413.22,45.279L414.93,45.26L416.65,45.22L418.36,45.216L420.07,45.266L421.79,45.233L423.5,45.216L425.22,45.246L426.93,45.263L428.64,45.253L430.36,45.216L432.07,45.249L433.79,45.243L435.5,45.229L437.21,45.211L438.93,45.223L440.64,45.244L442.35,45.207L444.07,45.197L445.78,45.226L447.5,45.219L449.21,45.195L450.92,45.186L452.64,45.189L454.35,45.192L456.07,45.191L457.78,45.187L459.49,45.179L461.21,45.192L462.92,45.194L464.63,45.183L466.35,45.187L468.06,45.205L469.78,45.182L471.49,45.179L473.2,45.191L474.92,45.166L476.63,45.173L478.35,45.18L480.06,45.179L481.77,45.181L483.49,45.18L485.2,45.171L486.91,45.176L488.63,45.171L490.34,45.172L492.06,45.168L493.77,45.171L495.48,45.167L497.2,45.173L498.91,45.174L500.63,45.166L502.34,45.164L504.05,45.166L505.77,45.167L507.48,45.174L509.19,45.166L510.91,45.163L512.62,45.159L514.34,45.163L516.05,45.162L517.76,45.168L519.48,45.169L521.19,45.168L522.91,45.158L524.62,45.165L526.33,45.157L528.05,45.158L529.76,45.159L531.48,45.158L533.19,45.16L534.9,45.159L536.62,45.157L538.33,45.162L540.04,45.159L541.76,45.16L543.47,45.156L545.19,45.161L546.9,45.155L548.61,45.157L550.33,45.155L552.04,45.156L553.76,45.155L555.47,45.155L557.18,45.155L558.9,45.153L560.61,45.153L562.32,45.154L564.04,45.155L565.75,45.155L567.47,45.154L569.18,45.155L570.89,45.153L572.61,45.157L574.32,45.153L576.04,45.153L577.75,45.157L579.46,45.154L581.18,45.153L582.89,45.151L584.6,45.153L586.32,45.154L588.03,45.152L589.75,45.152L591.46,45.153L593.17,45.153L594.89,45.152L596.6,45.151L598.32,45.152L600.03,45.151L601.74,45.151L603.46,45.151L605.17,45.153L606.89,45.151L610.31,45.154L612.03,45.151L613.74,45.152L620.6,45.152L622.31,45.151L629.17,45.152L632.59,45.152L634.31,45.151L637.73,45.151L639.45,45.152L641.16,45.152L648.02,45.152L649.73,45.151L661.73,45.151L663.44,45.151L665.16,45.151L687.44,45.151L696.01,45.151L720,45.151" style="fill:none;stroke:#0000FF" />
</g>
</svg>
