<?xml version="1.0"?>
<!-- Generated by SVGo and Plotinum VG -->
<svg width="720pt" height="432pt" viewBox="0 0 720 432"
	xmlns="http://www.w3.org/2000/svg"
	xmlns:xlink="http://www.w3.org/1999/xlink">
<g transform="scale(1, -1) translate(0, -432)">
<path d="M0,0L720,0L720,432L0,432Z" style="fill:#FFFFFF" />
<text x="358.5" y="-420.45" transform="scale(1, -1)"
	style="font-family:Times;font-weight:normal;font-style:normal;font-size:12px"> </text>
<text x="376.81" y="-3.8613" transform="scale(1, -1)"
	style="font-family:Times;font-weight:normal;font-style:normal;font-size:12px">Costs</text>
<text x="51.555" y="-18.634" transform="scale(1, -1)"
	style="font-family:Times;font-weight:normal;font-style:normal;font-size:10px">0.00</text>
<text x="363.72" y="-18.634" transform="scale(1, -1)"
	style="font-family:Times;font-weight:normal;font-style:normal;font-size:10px">250.00</text>
<text x="680.88" y="-18.634" transform="scale(1, -1)"
	style="font-family:Times;font-weight:normal;font-style:normal;font-size:10px">500.00</text>
<path d="M60.305,28.263L60.305,36.263" style="fill:none;stroke:#000000;stroke-width:0.5" />
<path d="M377.47,28.263L377.47,36.263" style="fill:none;stroke:#000000;stroke-width:0.5" />
<path d="M694.63,28.263L694.63,36.263" style="fill:none;stroke:#000000;stroke-width:0.5" />
<path d="M123.74,32.263L123.74,36.263" style="fill:none;stroke:#000000;stroke-width:0.5" />
<path d="M187.17,32.263L187.17,36.263" style="fill:none;stroke:#000000;stroke-width:0.5" />
<path d="M250.6,32.263L250.6,36.263" style="fill:none;stroke:#000000;stroke-width:0.5" />
<path d="M314.03,32.263L314.03,36.263" style="fill:none;stroke:#000000;stroke-width:0.5" />
<path d="M440.9,32.263L440.9,36.263" style="fill:none;stroke:#000000;stroke-width:0.5" />
<path d="M504.33,32.263L504.33,36.263" style="fill:none;stroke:#000000;stroke-width:0.5" />
<path d="M567.76,32.263L567.76,36.263" style="fill:none;stroke:#000000;stroke-width:0.5" />
<path d="M631.19,32.263L631.19,36.263" style="fill:none;stroke:#000000;stroke-width:0.5" />
<path d="M60.305,36.263L720,36.263" style="fill:none;stroke:#000000;stroke-width:0.5" />
<g transform="rotate(90)">
<text x="152.55" y="11.555" transform="scale(1, -1)"
	style="font-family:Times;font-weight:normal;font-style:normal;font-size:12px">Number of trials (1000000 total)</text>
</g>
<text x="19.055" y="-84.552" transform="scale(1, -1)"
	style="font-family:Times;font-weight:normal;font-style:normal;font-size:10px">10000</text>
<text x="19.055" y="-212.38" transform="scale(1, -1)"
	style="font-family:Times;font-weight:normal;font-style:normal;font-size:10px">40000</text>
<text x="19.055" y="-340.22" transform="scale(1, -1)"
	style="font-family:Times;font-weight:normal;font-style:normal;font-size:10px">70000</text>
<path d="M46.555,87.758L54.555,87.758" style="fill:none;stroke:#000000;stroke-width:0.5" />
<path d="M46.555,215.59L54.555,215.59" style="fill:none;stroke:#000000;stroke-width:0.5" />
<path d="M46.555,343.42L54.555,343.42" style="fill:none;stroke:#000000;stroke-width:0.5" />
<path d="M50.555,130.37L54.555,130.37" style="fill:none;stroke:#000000;stroke-width:0.5" />
<path d="M50.555,172.98L54.555,172.98" style="fill:none;stroke:#000000;stroke-width:0.5" />
<path d="M50.555,258.2L54.555,258.2" style="fill:none;stroke:#000000;stroke-width:0.5" />
<path d="M50.555,300.81L54.555,300.81" style="fill:none;stroke:#000000;stroke-width:0.5" />
<path d="M50.555,386.03L54.555,386.03" style="fill:none;stroke:#000000;stroke-width:0.5" />
<path d="M54.555,45.151L54.555,416.58" style="fill:none;stroke:#000000;stroke-width:0.5" />
<path d="M60.305,416.58L88.215,55.476L90.752,48.488L94.558,52.233L95.827,52.651L97.095,55.945L99.633,88.222L100.9,95.594L102.17,102.12L103.44,130.39L104.71,106.56L105.98,55.808L108.51,52.216L109.78,98.636L111.05,51.982L112.32,116.01L113.59,55.915L114.86,77.582L116.13,79.845L117.39,87.988L118.66,59.494L122.47,83.386L123.74,91.738L125.01,59.699L126.27,45.177L127.54,99.812L128.81,68.297L130.08,47.401L131.35,69.618L132.62,61.799L133.89,83.556L135.15,54.76L136.42,85.342L137.69,68.246L138.96,50.546L140.23,59.971L141.5,55.348L142.77,64.526L144.04,67.684L145.3,69.823L146.57,66.768L147.84,63.87L149.11,60.572L150.38,58.731L151.65,67.3L152.92,80.331L154.18,74.152L155.45,76.462L156.72,75.456L157.99,78.754L159.26,72.333L160.53,67.317L161.8,73.189L163.06,71.314L164.33,72.942L165.6,72.644L166.87,85.414L168.14,79.206L169.41,71.382L170.68,73.598L171.95,75.273L173.21,74.11L174.48,71.702L175.75,75.443L177.02,80.416L178.29,74.531L179.56,81.686L180.83,75.418L182.09,64.509L183.36,67.113L184.63,65.34L185.9,74.195L187.17,63.909L188.44,67.236L189.71,69.252L190.98,69.167L192.24,65.6L193.51,63.325L194.78,67.573L196.05,68.438L197.32,66.384L198.59,67.969L199.86,68.843L201.12,69.111L202.39,65.438L203.66,66.768L204.93,69.397L206.2,64.739L207.47,67.684L208.74,66.802L210,69.597L211.27,66.802L212.54,65.345L213.81,66.312L215.08,66.538L216.35,66.482L217.62,65.881L218.89,67.254L220.15,70.04L221.42,68.681L222.69,66.759L223.96,66.265L225.23,66.487L226.5,65.634L227.77,64.697L229.03,67.658L230.3,66.763L231.57,66.205L232.84,64.748L234.11,66.077L235.38,65.396L236.65,62.728L237.91,62.852L239.18,63.657L240.45,63.205L241.72,62.609L242.99,63.742L244.26,63.636L245.53,62.387L246.8,62.119L248.06,62.23L249.33,61.309L250.6,61.42L251.87,60.253L253.14,61.774L254.41,60.065L255.68,59.844L256.94,60.001L258.21,59.575L259.48,59.507L260.75,59L262.02,58.91L263.29,59.639L264.56,58.676L265.83,59.443L267.09,58.348L268.36,58.382L269.63,58.194L270.9,57.854L272.17,58.723L273.44,58.139L274.71,58.506L275.97,57.598L277.24,58.292L278.51,57.5L279.78,56.733L281.05,56.942L282.32,56.989L283.59,56.908L284.85,56.541L286.12,56.26L287.39,56.277L288.66,56.013L289.93,55.472L291.2,55.271L292.47,55.48L293.74,55.655L295,54.56L296.27,55.122L297.54,54.905L298.81,54.7L300.08,54.287L301.35,54.547L302.62,53.835L303.88,53.635L305.15,53.529L306.42,53.405L307.69,53.005L308.96,53.614L310.23,52.817L311.5,52.808L312.77,52.855L314.03,52.229L315.3,52.306L316.57,52.28L317.84,52.476L319.11,51.713L320.38,52.054L321.65,51.892L322.91,51.313L324.18,51.471L325.45,51.104L326.72,51.632L327.99,50.836L329.26,50.968L330.53,51.002L331.79,50.571L333.06,50.836L334.33,50.721L335.6,50.525L336.87,50.375L338.14,50.354L339.41,50.294L340.68,50.286L341.94,50.03L343.21,49.851L344.48,49.813L345.75,49.783L347.02,49.545L348.29,49.677L349.56,49.319L350.82,49.493L352.09,49.63L353.36,49.106L354.63,49.182L355.9,49.178L357.17,48.961L358.44,48.867L359.7,49.05L360.97,48.884L362.24,48.547L363.51,48.386L364.78,48.411L366.05,48.437L367.32,48.509L368.59,48.16L369.85,48.228L371.12,47.917L372.39,47.968L373.66,48.04L374.93,48.019L376.2,47.866L377.47,47.576L378.73,47.763L380,47.64L381.27,47.533L382.54,47.542L383.81,47.538L385.08,47.452L386.35,47.307L387.62,47.205L388.88,47.227L390.15,47.359L391.42,47.184L392.69,47.116L393.96,47.03L395.23,47.065L396.5,47.158L397.76,47.043L399.03,46.8L400.3,46.681L401.57,46.647L402.84,46.809L404.11,46.792L405.38,46.6L406.64,46.664L407.91,46.685L409.18,46.749L410.45,46.515L411.72,46.43L412.99,46.357L414.26,46.485L415.53,46.306L416.79,46.383L418.06,46.264L419.33,46.336L420.6,46.191L421.87,46.208L423.14,46.246L424.41,46.246L425.67,46.217L426.94,46.131L428.21,46.08L429.48,46.012L430.75,45.991L432.02,46.123L433.29,45.969L434.55,45.931L435.82,45.952L437.09,45.863L438.36,45.944L439.63,45.85L440.9,45.901L442.17,45.85L443.44,45.782L444.7,45.778L445.97,45.795L447.24,45.782L448.51,45.799L449.78,45.612L451.05,45.761L452.32,45.68L453.58,45.697L454.85,45.735L456.12,45.629L457.39,45.731L458.66,45.65L459.93,45.637L461.2,45.539L462.47,45.658L463.73,45.65L465,45.599L466.27,45.505L467.54,45.582L468.81,45.501L470.08,45.531L471.35,45.531L472.61,45.56L473.88,45.458L475.15,45.467L476.42,45.39L477.69,45.471L478.96,45.403L480.23,45.454L481.49,45.381L482.76,45.441L484.03,45.373L485.3,45.394L486.57,45.394L487.84,45.364L489.11,45.36L490.38,45.36L491.64,45.339L492.91,45.39L494.18,45.347L495.45,45.411L496.72,45.326L497.99,45.352L499.26,45.33L500.52,45.296L501.79,45.301L503.06,45.313L504.33,45.326L505.6,45.292L506.87,45.356L508.14,45.301L509.4,45.258L510.67,45.326L511.94,45.305L513.21,45.262L514.48,45.283L515.75,45.296L517.02,45.262L518.29,45.262L519.55,45.309L520.82,45.262L522.09,45.224L523.36,45.211L524.63,45.249L525.9,45.232L527.17,45.258L528.43,45.224L529.7,45.258L530.97,45.224L532.24,45.232L533.51,45.228L534.78,45.232L536.05,45.254L537.32,45.215L538.58,45.198L539.85,45.194L541.12,45.202L542.39,45.194L543.66,45.211L544.93,45.207L546.2,45.198L547.46,45.198L548.73,45.207L550,45.19L551.27,45.173L552.54,45.232L553.81,45.173L555.08,45.177L556.34,45.177L557.61,45.202L558.88,45.211L560.15,45.19L561.42,45.207L562.69,45.164L563.96,45.185L565.23,45.181L566.49,45.194L567.76,45.168L569.03,45.173L570.3,45.173L571.57,45.16L572.84,45.173L574.11,45.177L575.37,45.19L576.64,45.177L577.91,45.164L579.18,45.156L580.45,45.168L581.72,45.16L582.99,45.164L584.26,45.151L585.52,45.16L586.79,45.177L588.06,45.168L589.33,45.156L590.6,45.16L591.87,45.156L594.4,45.164L595.67,45.173L596.94,45.156L598.21,45.16L599.48,45.164L600.75,45.16L602.02,45.16L605.82,45.16L607.09,45.164L608.36,45.156L609.63,45.151L610.9,45.16L612.17,45.156L613.43,45.16L614.7,45.164L615.97,45.156L617.24,45.156L618.51,45.16L619.78,45.151L622.31,45.173L623.58,45.156L626.12,45.16L627.39,45.156L628.66,45.156L631.19,45.151L632.46,45.173L633.73,45.151L635,45.16L636.27,45.156L637.54,45.151L638.81,45.151L640.08,45.151L641.34,45.151L645.15,45.156L651.49,45.151L652.76,45.151L654.03,45.151L661.64,45.151L676.87,45.151L679.4,45.156L683.21,45.156L694.63,45.151L704.78,45.151L706.04,45.151L708.58,45.151L720,45.151" style="fill:none;stroke:#0000FF" />
</g>
</svg>
