<?xml version="1.0"?>
<!-- Generated by SVGo and Plotinum VG -->
<svg width="720pt" height="432pt" viewBox="0 0 720 432"
	xmlns="http://www.w3.org/2000/svg"
	xmlns:xlink="http://www.w3.org/1999/xlink">
<g transform="scale(1, -1) translate(0, -432)">
<path d="M0,0L720,0L720,432L0,432Z" style="fill:#FFFFFF" />
<text x="358.5" y="-420.45" transform="scale(1, -1)"
	style="font-family:Times;font-weight:normal;font-style:normal;font-size:12px"> </text>
<text x="385.56" y="-3.8613" transform="scale(1, -1)"
	style="font-family:Times;font-weight:normal;font-style:normal;font-size:12px">Costs</text>
<text x="69.055" y="-18.634" transform="scale(1, -1)"
	style="font-family:Times;font-weight:normal;font-style:normal;font-size:10px">0.00</text>
<text x="351.26" y="-18.634" transform="scale(1, -1)"
	style="font-family:Times;font-weight:normal;font-style:normal;font-size:10px">250.00</text>
<text x="638.47" y="-18.634" transform="scale(1, -1)"
	style="font-family:Times;font-weight:normal;font-style:normal;font-size:10px">500.00</text>
<path d="M77.805,28.263L77.805,36.263" style="fill:none;stroke:#000000;stroke-width:0.5" />
<path d="M365.01,28.263L365.01,36.263" style="fill:none;stroke:#000000;stroke-width:0.5" />
<path d="M652.22,28.263L652.22,36.263" style="fill:none;stroke:#000000;stroke-width:0.5" />
<path d="M135.25,32.263L135.25,36.263" style="fill:none;stroke:#000000;stroke-width:0.5" />
<path d="M192.69,32.263L192.69,36.263" style="fill:none;stroke:#000000;stroke-width:0.5" />
<path d="M250.13,32.263L250.13,36.263" style="fill:none;stroke:#000000;stroke-width:0.5" />
<path d="M307.57,32.263L307.57,36.263" style="fill:none;stroke:#000000;stroke-width:0.5" />
<path d="M422.45,32.263L422.45,36.263" style="fill:none;stroke:#000000;stroke-width:0.5" />
<path d="M479.89,32.263L479.89,36.263" style="fill:none;stroke:#000000;stroke-width:0.5" />
<path d="M537.34,32.263L537.34,36.263" style="fill:none;stroke:#000000;stroke-width:0.5" />
<path d="M594.78,32.263L594.78,36.263" style="fill:none;stroke:#000000;stroke-width:0.5" />
<path d="M709.66,32.263L709.66,36.263" style="fill:none;stroke:#000000;stroke-width:0.5" />
<path d="M77.805,36.263L720,36.263" style="fill:none;stroke:#000000;stroke-width:0.5" />
<g transform="rotate(90)">
<text x="152.55" y="11.555" transform="scale(1, -1)"
	style="font-family:Times;font-weight:normal;font-style:normal;font-size:12px">Number of trials (1000000 total)</text>
</g>
<text x="24.055" y="-109.71" transform="scale(1, -1)"
	style="font-family:Times;font-weight:normal;font-style:normal;font-size:10px">25000.00</text>
<text x="24.055" y="-245.23" transform="scale(1, -1)"
	style="font-family:Times;font-weight:normal;font-style:normal;font-size:10px">75000.00</text>
<text x="19.055" y="-380.76" transform="scale(1, -1)"
	style="font-family:Times;font-weight:normal;font-style:normal;font-size:10px">125000.00</text>
<path d="M64.055,112.91L72.055,112.91" style="fill:none;stroke:#000000;stroke-width:0.5" />
<path d="M64.055,248.44L72.055,248.44" style="fill:none;stroke:#000000;stroke-width:0.5" />
<path d="M64.055,383.96L72.055,383.96" style="fill:none;stroke:#000000;stroke-width:0.5" />
<path d="M68.055,58.701L72.055,58.701" style="fill:none;stroke:#000000;stroke-width:0.5" />
<path d="M68.055,85.806L72.055,85.806" style="fill:none;stroke:#000000;stroke-width:0.5" />
<path d="M68.055,140.02L72.055,140.02" style="fill:none;stroke:#000000;stroke-width:0.5" />
<path d="M68.055,167.12L72.055,167.12" style="fill:none;stroke:#000000;stroke-width:0.5" />
<path d="M68.055,194.23L72.055,194.23" style="fill:none;stroke:#000000;stroke-width:0.5" />
<path d="M68.055,221.33L72.055,221.33" style="fill:none;stroke:#000000;stroke-width:0.5" />
<path d="M68.055,275.54L72.055,275.54" style="fill:none;stroke:#000000;stroke-width:0.5" />
<path d="M68.055,302.65L72.055,302.65" style="fill:none;stroke:#000000;stroke-width:0.5" />
<path d="M68.055,329.75L72.055,329.75" style="fill:none;stroke:#000000;stroke-width:0.5" />
<path d="M68.055,356.86L72.055,356.86" style="fill:none;stroke:#000000;stroke-width:0.5" />
<path d="M68.055,411.07L72.055,411.07" style="fill:none;stroke:#000000;stroke-width:0.5" />
<path d="M72.055,45.151L72.055,416.58" style="fill:none;stroke:#000000;stroke-width:0.5" />
<path d="M77.805,416.58L104.23,48.591L105.38,60.398L108.82,63.846L109.97,60.883L111.12,56.113L113.42,84.329L114.57,55.497L115.72,99.104L116.86,62.932L118.01,58.848L119.16,55.66L120.31,55.31L122.61,52.559L123.76,91.03L124.91,59.192L126.06,78.049L127.2,67.307L128.35,67.38L129.5,51.949L130.65,81.648L131.8,45.279L134.1,62.453L135.25,75.271L136.39,63.911L137.54,45.669L138.69,74.07L139.84,83.787L140.99,47.634L142.14,53.958L143.29,58.335L144.44,62.07L145.59,72.904L146.73,53.47L147.88,77.39L149.03,49.282L150.18,70.779L151.33,53.578L152.48,50.266L153.63,51.925L154.78,70.833L155.93,51.838L157.07,51.57L158.22,52.483L159.37,54.126L160.52,51.375L161.67,78.474L162.82,56.026L163.97,57.094L165.12,54.215L166.26,75.151L167.41,54.513L168.56,55.904L169.71,79.504L170.86,94.846L172.01,59.211L173.16,58.636L174.31,58.175L175.46,59.607L176.6,61.583L177.75,59.802L178.9,57.213L180.05,56.999L181.2,61.366L182.35,57.959L183.5,59.794L184.65,58.01L185.79,64.095L186.94,57.484L188.09,61.683L189.24,57.002L190.39,55.999L191.54,57.807L192.69,59.856L193.84,57.563L194.99,54.963L196.13,59.612L197.28,61.74L198.43,58.289L199.58,55.478L200.73,61.433L201.88,59.092L203.03,58.292L204.18,57.964L205.32,57.904L206.47,60.696L207.62,62.715L208.77,61.33L209.92,57.948L211.07,56.441L212.22,59.696L213.37,54.204L214.52,55.852L215.66,59.051L216.81,59.501L217.96,57.915L219.11,60.235L220.26,58.238L221.41,54.725L222.56,58.303L223.71,59.634L224.85,53.643L226,53.264L227.15,58.305L228.3,58.547L229.45,55.568L230.6,54.169L231.75,59.783L232.9,56.877L234.05,55.758L235.19,53.92L236.34,55.923L237.49,55.546L238.64,57.902L239.79,54.809L240.94,55.207L242.09,54.101L243.24,56.202L244.38,52.857L245.53,53.061L246.68,54.264L247.83,54.825L248.98,52.768L250.13,53.893L251.28,52.44L252.43,52.627L253.58,54.505L254.72,55.386L255.87,53.004L257.02,52.746L258.17,54.223L259.32,54.194L260.47,52.516L261.62,52.361L262.77,55.091L263.91,52.326L265.06,53.017L266.21,52.456L267.36,52.223L268.51,52.532L269.66,52.857L270.81,52.153L271.96,51.909L273.11,52.107L274.25,51.971L275.4,51.575L276.55,51.936L277.7,51.957L278.85,51.711L280,51.556L281.15,51.635L282.3,50.806L283.45,50.703L284.59,51.768L285.74,50.941L286.89,50.852L288.04,50.556L289.19,51.017L290.34,50.719L291.49,50.41L292.64,50.41L293.78,50.618L294.93,50.299L296.08,50.369L297.23,49.933L298.38,50.06L299.53,49.973L300.68,50.342L301.83,49.315L302.98,49.347L304.12,49.632L305.27,49.529L306.42,49.469L307.57,49.079L308.72,49.559L309.87,48.824L311.02,49.155L312.17,49.079L313.31,48.83L314.46,48.835L315.61,49.271L316.76,48.808L317.91,48.537L319.06,48.331L320.21,48.952L321.36,48.431L322.51,48.285L323.65,48.447L324.8,48.285L325.95,48.296L327.1,48.336L328.25,48.193L329.4,48.176L330.55,48.274L331.7,48.043L332.84,47.884L333.99,47.629L335.14,47.992L336.29,47.813L337.44,47.832L338.59,47.68L339.74,47.699L340.89,47.491L342.04,47.493L343.18,47.558L344.33,47.396L345.48,47.401L346.63,47.371L347.78,47.293L348.93,47.328L350.08,47.076L351.23,47.238L352.37,47.16L353.52,47.165L354.67,47.076L355.82,47.046L356.97,46.995L358.12,46.97L359.27,47.087L360.42,46.764L361.57,46.921L362.71,46.715L363.86,46.596L365.01,46.737L366.16,46.658L367.31,46.734L368.46,46.593L369.61,46.558L370.76,46.585L371.9,46.498L373.05,46.523L374.2,46.414L375.35,46.414L376.5,46.431L377.65,46.322L378.8,46.374L379.95,46.328L381.1,46.276L382.24,46.311L383.39,46.214L384.54,46.146L385.69,46.317L386.84,46.143L387.99,46.203L389.14,46.092L390.29,46.068L391.43,46.057L392.58,46.03L393.73,45.973L394.88,46.008L396.03,45.983L397.18,45.975L398.33,45.94L399.48,45.918L400.63,45.924L401.77,45.834L402.92,45.902L404.07,45.84L405.22,45.826L406.37,45.815L407.52,45.875L408.67,45.772L409.82,45.783L410.97,45.813L412.11,45.742L413.26,45.71L414.41,45.731L415.56,45.704L416.71,45.737L417.86,45.677L419.01,45.693L420.16,45.601L421.3,45.661L422.45,45.658L423.6,45.59L424.75,45.509L425.9,45.569L427.05,45.571L428.2,45.585L429.35,45.531L430.5,45.534L431.64,45.555L432.79,45.534L433.94,45.547L435.09,45.531L436.24,45.531L437.39,45.515L438.54,45.479L439.69,45.433L440.83,45.512L441.98,45.46L443.13,45.45L444.28,45.441L445.43,45.479L446.58,45.425L447.73,45.412L448.88,45.422L450.03,45.406L451.17,45.401L452.32,45.382L453.47,45.387L454.62,45.374L455.77,45.374L456.92,45.352L458.07,45.384L459.22,45.3L460.36,45.3L461.51,45.3L462.66,45.36L463.81,45.341L464.96,45.295L466.11,45.338L467.26,45.325L468.41,45.292L469.56,45.295L470.7,45.29L471.85,45.281L473,45.303L474.15,45.3L475.3,45.29L476.45,45.279L477.6,45.287L478.75,45.287L479.89,45.252L481.04,45.254L482.19,45.29L483.34,45.271L484.49,45.252L485.64,45.254L486.79,45.222L487.94,45.268L489.09,45.265L490.23,45.252L491.38,45.227L492.53,45.233L493.68,45.241L494.83,45.227L495.98,45.233L497.13,45.227L498.28,45.238L499.42,45.214L500.57,45.197L501.72,45.235L502.87,45.2L504.02,45.208L505.17,45.211L506.32,45.206L507.47,45.187L508.62,45.203L509.76,45.225L510.91,45.203L512.06,45.2L513.21,45.203L514.36,45.203L515.51,45.211L516.66,45.189L517.81,45.195L518.95,45.184L520.1,45.197L521.25,45.195L522.4,45.181L523.55,45.192L524.7,45.178L525.85,45.17L527,45.192L528.15,45.173L529.29,45.187L530.44,45.181L531.59,45.176L532.74,45.189L533.89,45.184L535.04,45.17L536.19,45.2L537.34,45.184L538.49,45.17L539.63,45.181L540.78,45.173L541.93,45.178L543.08,45.165L544.23,45.165L545.38,45.181L546.53,45.173L547.68,45.17L548.82,45.168L549.97,45.165L551.12,45.165L552.27,45.17L553.42,45.165L554.57,45.159L555.72,45.17L556.87,45.159L558.02,45.178L559.16,45.157L560.31,45.17L561.46,45.157L562.61,45.168L563.76,45.168L564.91,45.151L566.06,45.162L567.21,45.151L568.35,45.165L569.5,45.159L570.65,45.162L571.8,45.157L572.95,45.157L574.1,45.165L575.25,45.157L576.4,45.154L578.69,45.159L579.84,45.151L580.99,45.157L582.14,45.154L583.29,45.154L584.44,45.151L585.59,45.159L586.74,45.154L587.88,45.154L590.18,45.154L591.33,45.159L592.48,45.151L594.78,45.154L595.93,45.151L597.08,45.151L598.22,45.157L599.37,45.151L600.52,45.151L601.67,45.154L602.82,45.154L603.97,45.151L605.12,45.154L606.27,45.151L607.41,45.151L608.56,45.151L610.86,45.151L612.01,45.151L613.16,45.151L614.31,45.159L615.46,45.151L618.9,45.151L621.2,45.151L623.5,45.154L630.39,45.151L632.69,45.151L634.99,45.151L638.43,45.151L644.18,45.151L649.92,45.151L656.81,45.151L662.56,45.151L669.45,45.151L672.9,45.151L683.24,45.151L690.13,45.151L720,45.151" style="fill:none;stroke:#0000FF" />
</g>
</svg>
