<?xml version="1.0"?>
<!-- Generated by SVGo and Plotinum VG -->
<svg width="720pt" height="432pt" viewBox="0 0 720 432"
	xmlns="http://www.w3.org/2000/svg"
	xmlns:xlink="http://www.w3.org/1999/xlink">
<g transform="scale(1, -1) translate(0, -432)">
<path d="M0,0L720,0L720,432L0,432Z" style="fill:#FFFFFF" />
<text x="358.5" y="-420.45" transform="scale(1, -1)"
	style="font-family:Times;font-weight:normal;font-style:normal;font-size:12px"> </text>
<text x="376.81" y="-3.8613" transform="scale(1, -1)"
	style="font-family:Times;font-weight:normal;font-style:normal;font-size:12px">Costs</text>
<text x="51.555" y="-18.634" transform="scale(1, -1)"
	style="font-family:Times;font-weight:normal;font-style:normal;font-size:10px">0.00</text>
<text x="328.48" y="-18.634" transform="scale(1, -1)"
	style="font-family:Times;font-weight:normal;font-style:normal;font-size:10px">250.00</text>
<text x="610.4" y="-18.634" transform="scale(1, -1)"
	style="font-family:Times;font-weight:normal;font-style:normal;font-size:10px">500.00</text>
<path d="M60.305,28.263L60.305,36.263" style="fill:none;stroke:#000000;stroke-width:0.5" />
<path d="M342.23,28.263L342.23,36.263" style="fill:none;stroke:#000000;stroke-width:0.5" />
<path d="M624.15,28.263L624.15,36.263" style="fill:none;stroke:#000000;stroke-width:0.5" />
<path d="M116.69,32.263L116.69,36.263" style="fill:none;stroke:#000000;stroke-width:0.5" />
<path d="M173.07,32.263L173.07,36.263" style="fill:none;stroke:#000000;stroke-width:0.5" />
<path d="M229.46,32.263L229.46,36.263" style="fill:none;stroke:#000000;stroke-width:0.5" />
<path d="M285.84,32.263L285.84,36.263" style="fill:none;stroke:#000000;stroke-width:0.5" />
<path d="M398.61,32.263L398.61,36.263" style="fill:none;stroke:#000000;stroke-width:0.5" />
<path d="M454.99,32.263L454.99,36.263" style="fill:none;stroke:#000000;stroke-width:0.5" />
<path d="M511.38,32.263L511.38,36.263" style="fill:none;stroke:#000000;stroke-width:0.5" />
<path d="M567.76,32.263L567.76,36.263" style="fill:none;stroke:#000000;stroke-width:0.5" />
<path d="M680.53,32.263L680.53,36.263" style="fill:none;stroke:#000000;stroke-width:0.5" />
<path d="M60.305,36.263L720,36.263" style="fill:none;stroke:#000000;stroke-width:0.5" />
<g transform="rotate(90)">
<text x="152.32" y="11.555" transform="scale(1, -1)"
	style="font-family:Times;font-weight:normal;font-style:normal;font-size:12px">Number of trials (1000000 total)</text>
</g>
<text x="24.055" y="-70.018" transform="scale(1, -1)"
	style="font-family:Times;font-weight:normal;font-style:normal;font-size:10px">5000</text>
<text x="19.055" y="-182.33" transform="scale(1, -1)"
	style="font-family:Times;font-weight:normal;font-style:normal;font-size:10px">25000</text>
<text x="19.055" y="-294.64" transform="scale(1, -1)"
	style="font-family:Times;font-weight:normal;font-style:normal;font-size:10px">45000</text>
<text x="19.055" y="-406.96" transform="scale(1, -1)"
	style="font-family:Times;font-weight:normal;font-style:normal;font-size:10px">65000</text>
<path d="M46.555,73.224L54.555,73.224" style="fill:none;stroke:#000000;stroke-width:0.5" />
<path d="M46.555,185.54L54.555,185.54" style="fill:none;stroke:#000000;stroke-width:0.5" />
<path d="M46.555,297.85L54.555,297.85" style="fill:none;stroke:#000000;stroke-width:0.5" />
<path d="M46.555,410.16L54.555,410.16" style="fill:none;stroke:#000000;stroke-width:0.5" />
<path d="M50.555,129.38L54.555,129.38" style="fill:none;stroke:#000000;stroke-width:0.5" />
<path d="M50.555,241.69L54.555,241.69" style="fill:none;stroke:#000000;stroke-width:0.5" />
<path d="M50.555,354L54.555,354" style="fill:none;stroke:#000000;stroke-width:0.5" />
<path d="M54.555,45.151L54.555,416.11" style="fill:none;stroke:#000000;stroke-width:0.5" />
<path d="M60.305,416.11L85.114,48.616L86.241,52.3L87.369,69.927L89.624,52.154L90.752,78.126L91.88,52.39L93.008,74.914L94.135,59.859L95.263,82.725L96.391,94.44L97.518,79.817L98.646,103.26L99.774,63.756L100.9,67.951L102.03,52.772L103.16,79.283L104.28,76.795L105.41,74.263L106.54,124.44L107.67,63.396L108.8,109.25L109.92,82.551L111.05,52.193L112.18,74.813L113.31,45.623L114.43,45.202L115.56,60.145L116.69,80.339L117.82,81.799L118.94,46.381L120.07,99.235L121.2,77.391L122.33,67.928L123.46,59.937L124.58,58.949L125.71,68.31L126.84,57.056L127.97,70.219L129.09,69.557L130.22,90.419L131.35,92.542L132.48,59.494L133.6,67.653L134.73,63.469L135.86,83.253L136.99,67.788L138.11,63.677L139.24,72.713L140.37,71.129L141.5,73.027L142.63,90.958L143.75,77.424L144.88,81.406L146.01,69.781L147.14,90.486L148.26,72.191L149.39,70.281L150.52,77.694L151.65,86.786L152.77,80.67L153.9,74.819L155.03,83.416L156.16,81.99L157.29,73.813L158.41,83.663L159.54,69.551L160.67,76.374L161.8,72.943L162.92,74.386L164.05,79.115L165.18,74.998L166.31,87.678L167.43,77.593L168.56,82.394L169.69,79.255L170.82,70.175L171.95,74.442L173.07,71.775L174.2,76.486L175.33,71.225L176.46,77.823L177.58,82.315L178.71,76.02L179.84,79.227L180.97,74.684L182.09,76.79L183.22,72.763L184.35,69.967L185.48,74.959L186.61,74.066L187.73,78.514L188.86,76.582L189.99,77.261L191.12,79.491L192.24,75.852L193.37,75.818L194.5,71.348L195.63,75.296L196.75,74.145L197.88,72.668L199.01,76.256L200.14,75.47L201.27,74.667L202.39,73.471L203.52,73.915L204.65,73.566L205.78,70.607L206.9,74.223L208.03,71.438L209.16,70.657L210.29,72.196L211.41,73.336L212.54,74.628L213.67,72.949L214.8,72.106L215.93,72.045L217.05,70.809L218.18,72.252L219.31,69.355L220.44,70.416L221.56,70.551L222.69,71.27L223.82,70.349L224.95,70.062L226.07,71.82L227.2,69.984L228.33,68.647L229.46,69.321L230.59,68.473L231.71,67.984L232.84,67.44L233.97,69.035L235.1,67.979L236.22,68.361L237.35,68.524L238.48,67.799L239.61,67.625L240.73,66.35L241.86,66.266L242.99,66.412L244.12,64.879L245.24,65.446L246.37,65.126L247.5,65.856L248.63,66.333L249.76,64.542L250.88,65.205L252.01,64.845L253.14,64.677L254.27,63.357L255.39,62.857L256.52,63.851L257.65,63.352L258.78,63.975L259.9,63.559L261.03,63.408L262.16,62.947L263.29,61.897L264.42,62.032L265.54,61.274L266.67,61.437L267.8,61.566L268.93,61.706L270.05,61.19L271.18,60.959L272.31,60.942L273.44,60.527L274.56,60.707L275.69,60.252L276.82,59.763L277.95,59.701L279.08,59.162L280.2,59.117L281.33,59.011L282.46,58.898L283.59,58.87L284.71,58.101L285.84,58.258L286.97,57.989L288.1,58.05L289.22,57.225L290.35,57.382L291.48,57.208L292.61,57.247L293.74,57.073L294.86,57.085L295.99,56.854L297.12,56.152L298.25,56.45L299.37,56.579L300.5,55.933L301.63,55.501L302.76,55.31L303.88,55.4L305.01,55.069L306.14,55.029L307.27,54.586L308.4,55.147L309.52,54.097L310.65,54.266L311.78,54.181L312.91,54.226L314.03,53.777L315.16,53.603L316.29,53.535L317.42,53.333L318.54,53.513L319.67,53.176L320.8,53.002L321.93,52.699L323.06,52.418L324.18,52.592L325.31,52.351L326.44,52.165L327.57,52.362L328.69,51.699L329.82,51.778L330.95,51.84L332.08,51.761L333.2,51.452L334.33,51.559L335.46,51.351L336.59,51.362L337.72,51.183L338.84,50.924L339.97,50.542L341.1,50.789L342.23,50.784L343.35,50.396L344.48,50.228L345.61,50.391L346.74,50.031L347.86,50.16L348.99,50.256L350.12,50.11L351.25,49.801L352.37,49.554L353.5,49.537L354.63,49.251L355.76,49.346L356.89,49.256L358.01,49.127L359.14,49.279L360.27,48.919L361.4,49.307L362.52,48.762L363.65,48.953L364.78,48.74L365.91,48.672L367.03,48.386L368.16,48.611L369.29,48.526L370.42,48.111L371.55,48.302L372.67,48.352L373.8,48.201L374.93,48.257L376.06,47.959L377.18,48.055L378.31,48.021L379.44,47.914L380.57,47.757L381.69,47.639L382.82,47.555L383.95,47.684L385.08,47.65L386.21,47.375L387.33,47.375L388.46,47.465L389.59,47.532L390.72,47.341L391.84,47.336L392.97,47.426L394.1,47.409L395.23,47.28L396.35,47.061L397.48,47.094L398.61,46.982L399.74,46.948L400.87,46.92L401.99,46.988L403.12,46.954L404.25,46.802L405.38,46.701L406.5,46.651L407.63,46.713L408.76,46.668L409.89,46.623L411.01,46.544L412.14,46.567L413.27,46.589L414.4,46.426L415.53,46.482L416.65,46.516L417.78,46.392L418.91,46.493L420.04,46.415L421.16,46.269L422.29,46.258L423.42,46.078L424.55,46.044L425.67,46.072L426.8,46.185L427.93,46.011L429.06,46.252L430.19,46.095L431.31,46.011L432.44,46.027L433.57,46.055L434.7,45.954L435.82,45.836L436.95,46.044L438.08,45.876L439.21,45.932L440.33,45.865L441.46,45.758L442.59,45.82L443.72,45.752L444.85,45.876L445.97,45.747L447.1,45.876L448.23,45.814L449.36,45.747L450.48,45.662L451.61,45.612L452.74,45.707L453.87,45.707L454.99,45.561L456.12,45.646L457.25,45.662L458.38,45.646L459.5,45.589L460.63,45.533L461.76,45.561L462.89,45.601L464.02,45.646L465.14,45.668L466.27,45.516L467.4,45.522L468.53,45.427L469.65,45.617L470.78,45.544L471.91,45.432L473.04,45.483L474.16,45.488L475.29,45.415L476.42,45.494L477.55,45.516L478.68,45.398L479.8,45.46L480.93,45.342L482.06,45.421L483.19,45.387L484.31,45.382L485.44,45.393L486.57,45.365L487.7,45.415L488.82,45.387L489.95,45.41L491.08,45.342L492.21,45.325L493.34,45.309L494.46,45.331L495.59,45.303L496.72,45.303L497.85,45.292L498.97,45.297L500.1,45.337L501.23,45.325L502.36,45.297L503.48,45.309L504.61,45.281L505.74,45.342L506.87,45.309L508,45.292L509.12,45.269L510.25,45.258L511.38,45.264L512.51,45.264L513.63,45.224L514.76,45.23L515.89,45.236L517.02,45.224L518.14,45.247L519.27,45.247L520.4,45.275L521.53,45.236L522.66,45.241L523.78,45.208L524.91,45.258L526.04,45.241L527.17,45.23L528.29,45.252L529.42,45.23L530.55,45.224L531.68,45.213L532.8,45.224L533.93,45.208L535.06,45.219L536.19,45.224L537.32,45.185L538.44,45.23L539.57,45.196L540.7,45.196L541.83,45.196L542.95,45.202L544.08,45.202L545.21,45.174L546.34,45.168L547.46,45.196L548.59,45.224L549.72,45.191L550.85,45.185L551.98,45.191L553.1,45.185L554.23,45.174L555.36,45.202L556.49,45.179L557.61,45.179L558.74,45.157L559.87,45.157L561,45.168L562.12,45.168L564.38,45.202L565.51,45.168L566.63,45.174L567.76,45.151L568.89,45.174L570.02,45.179L572.27,45.157L573.4,45.163L574.53,45.168L575.66,45.185L576.78,45.163L577.91,45.163L579.04,45.151L580.17,45.163L581.29,45.151L582.42,45.151L583.55,45.157L584.68,45.157L585.81,45.151L586.93,45.151L588.06,45.151L589.19,45.157L590.32,45.157L591.44,45.163L592.57,45.157L593.7,45.151L594.83,45.163L595.95,45.151L597.08,45.157L598.21,45.163L600.47,45.157L602.72,45.151L607.23,45.157L609.49,45.157L610.61,45.151L611.74,45.151L612.87,45.157L614,45.151L618.51,45.151L619.64,45.151L620.76,45.163L621.89,45.151L625.27,45.151L626.4,45.151L628.66,45.157L629.79,45.168L632.04,45.151L633.17,45.157L641.06,45.151L643.32,45.151L645.57,45.151L656.85,45.151L686.17,45.151L705.34,45.151L720,45.151" style="fill:none;stroke:#0000FF" />
</g>
</svg>
