<?xml version="1.0"?>
<!-- Generated by SVGo and Plotinum VG -->
<svg width="720pt" height="432pt" viewBox="0 0 720 432"
	xmlns="http://www.w3.org/2000/svg"
	xmlns:xlink="http://www.w3.org/1999/xlink">
<g transform="scale(1, -1) translate(0, -432)">
<path d="M0,0L720,0L720,432L0,432Z" style="fill:#FFFFFF" />
<text x="358.5" y="-420.45" transform="scale(1, -1)"
	style="font-family:Times;font-weight:normal;font-style:normal;font-size:12px"> </text>
<text x="376.81" y="-3.8613" transform="scale(1, -1)"
	style="font-family:Times;font-weight:normal;font-style:normal;font-size:12px">Costs</text>
<text x="57.805" y="-18.634" transform="scale(1, -1)"
	style="font-family:Times;font-weight:normal;font-style:normal;font-size:10px">0</text>
<text x="361.55" y="-18.634" transform="scale(1, -1)"
	style="font-family:Times;font-weight:normal;font-style:normal;font-size:10px">300</text>
<text x="670.3" y="-18.634" transform="scale(1, -1)"
	style="font-family:Times;font-weight:normal;font-style:normal;font-size:10px">600</text>
<path d="M60.305,28.263L60.305,36.263" style="fill:none;stroke:#000000;stroke-width:0.5" />
<path d="M369.05,28.263L369.05,36.263" style="fill:none;stroke:#000000;stroke-width:0.5" />
<path d="M677.8,28.263L677.8,36.263" style="fill:none;stroke:#000000;stroke-width:0.5" />
<path d="M163.22,32.263L163.22,36.263" style="fill:none;stroke:#000000;stroke-width:0.5" />
<path d="M266.14,32.263L266.14,36.263" style="fill:none;stroke:#000000;stroke-width:0.5" />
<path d="M471.97,32.263L471.97,36.263" style="fill:none;stroke:#000000;stroke-width:0.5" />
<path d="M574.89,32.263L574.89,36.263" style="fill:none;stroke:#000000;stroke-width:0.5" />
<path d="M60.305,36.263L720,36.263" style="fill:none;stroke:#000000;stroke-width:0.5" />
<g transform="rotate(90)">
<text x="152.55" y="11.555" transform="scale(1, -1)"
	style="font-family:Times;font-weight:normal;font-style:normal;font-size:12px">Number of trials (1000000 total)</text>
</g>
<text x="24.055" y="-106.26" transform="scale(1, -1)"
	style="font-family:Times;font-weight:normal;font-style:normal;font-size:10px">5000</text>
<text x="19.055" y="-234.92" transform="scale(1, -1)"
	style="font-family:Times;font-weight:normal;font-style:normal;font-size:10px">15000</text>
<text x="19.055" y="-363.58" transform="scale(1, -1)"
	style="font-family:Times;font-weight:normal;font-style:normal;font-size:10px">25000</text>
<path d="M46.555,109.47L54.555,109.47" style="fill:none;stroke:#000000;stroke-width:0.5" />
<path d="M46.555,238.12L54.555,238.12" style="fill:none;stroke:#000000;stroke-width:0.5" />
<path d="M46.555,366.78L54.555,366.78" style="fill:none;stroke:#000000;stroke-width:0.5" />
<path d="M50.555,173.8L54.555,173.8" style="fill:none;stroke:#000000;stroke-width:0.5" />
<path d="M50.555,302.45L54.555,302.45" style="fill:none;stroke:#000000;stroke-width:0.5" />
<path d="M54.555,45.151L54.555,416.58" style="fill:none;stroke:#000000;stroke-width:0.5" />
<path d="M60.305,416.58L85.005,81.381L87.063,61.015L88.092,59.072L89.121,80.596L90.15,104.06L92.209,98.081L93.238,99.805L94.267,99.702L95.296,171.57L96.325,112.88L97.355,48.252L98.384,60.976L99.413,67.846L100.44,94.8L101.47,117.07L102.5,88.625L103.53,48.574L104.56,112.89L105.59,112.71L106.62,57.734L107.65,100.09L109.7,55.791L110.73,87.93L111.76,49.937L112.79,81.471L113.82,48.496L114.85,118.59L115.88,55.997L116.91,57.618L117.94,127.17L118.97,56.936L120,97.605L121.03,97.939L122.05,77.431L123.08,71.539L124.11,87.196L125.14,125.1L126.17,72.259L127.2,78.435L128.23,83.8L129.26,102.84L130.29,92.24L131.32,93.591L132.35,79.657L133.38,81.381L134.4,100.08L135.43,101.85L136.46,139.21L137.49,109.03L138.52,79.863L139.55,106.57L140.58,107.76L141.61,91.905L142.64,121.93L143.67,107.4L144.7,93.398L145.73,101.66L146.75,107.41L147.78,104.14L148.81,91.12L149.84,119.08L150.87,95.804L151.9,96.962L152.93,114.61L153.96,101.85L154.99,104.05L156.02,105.43L157.05,101.1L158.08,98.84L159.1,106.17L160.13,114.05L161.16,94.581L162.19,106.51L163.22,98.994L164.25,92.754L165.28,118.04L166.31,99.766L167.34,98.879L168.37,100.14L169.4,107.36L170.43,114.15L171.45,105.74L172.48,120.92L173.51,94.273L174.54,103.42L175.57,113.93L176.6,108.37L177.63,119.32L178.66,117.68L179.69,107.82L180.72,107.01L181.75,114.83L182.78,110.92L183.8,111.81L184.83,112.44L185.86,105.83L186.89,109.98L187.92,108.63L188.95,111.44L189.98,105.68L191.01,112L192.04,107.81L193.07,104.39L194.1,115.05L195.13,109.62L196.15,106.24L197.18,113.03L198.21,110.79L199.24,103.9L200.27,114.87L201.3,114.3L202.33,107.27L203.36,106.11L204.39,110.43L205.42,108.27L206.45,106.88L207.48,114.32L208.5,104.62L209.53,104.64L210.56,107.96L211.59,104.93L212.62,108.98L213.65,107.96L214.68,106.61L215.71,104.02L216.74,105.92L217.77,107.32L218.8,105.4L219.83,108.71L220.85,102.52L221.88,104.09L222.91,105.29L223.94,103.7L224.97,103.74L226,105.17L227.03,102.17L228.06,102.56L229.09,103.79L230.12,104.36L231.15,101.95L232.18,102.37L233.2,103.74L234.23,98.544L235.26,102.25L236.29,102.85L237.32,100.64L238.35,99.573L239.38,99.663L240.41,97.116L241.44,101.12L242.47,99.084L243.5,97.862L244.53,95.881L245.55,96.241L246.58,96.871L247.61,97.039L248.64,97.45L249.67,95.894L250.7,94.89L251.73,96.022L252.76,94.659L253.79,96.061L254.82,95.328L255.85,94.08L256.88,93.012L257.9,92.857L258.93,92.536L259.96,92.085L260.99,93.449L262.02,92.317L263.05,90.387L264.08,90.85L265.11,90.593L266.14,89.011L267.17,89.332L268.2,87.261L269.23,89.229L270.25,87.081L271.28,87.196L272.31,86.733L273.34,86.965L274.37,86.36L275.4,85.511L276.43,85.408L277.46,85.833L278.49,84.662L279.52,84.791L280.55,83.697L281.58,83.015L282.6,82.526L283.63,82.925L284.66,80.854L285.69,81.214L286.72,81.51L287.75,80.493L288.78,81.703L289.81,79.94L290.84,80.339L291.87,78.885L292.9,79.323L293.93,79.438L294.95,78.911L295.98,78.654L297.01,76.968L298.04,75.875L299.07,77.882L300.1,75.695L301.13,76.698L302.16,75.695L303.19,74.408L304.22,74.421L305.25,73.79L306.28,74.781L307.3,72.594L308.33,73.945L309.36,73.726L310.39,73.276L311.42,71.899L312.45,71.23L313.48,72.349L314.51,70.51L315.54,70.664L316.57,70.999L317.6,69.493L318.63,69.468L319.65,69.043L320.68,68.966L321.71,68.129L322.74,68.438L323.77,68.992L324.8,67.846L325.83,66.328L326.86,66.405L327.89,66.894L328.92,67.062L329.95,66.972L330.98,65.273L332,64.965L333.03,64.952L334.06,65.17L335.09,64.167L336.12,65.415L337.15,64.656L338.18,63.614L339.21,63.138L340.24,63.434L341.27,63.318L342.3,61.98L343.33,62.16L344.35,61.581L345.38,61.632L346.41,60.783L347.44,61.208L348.47,60.873L349.5,60.848L350.53,60.14L351.56,60.011L352.59,60.217L353.62,59.78L354.65,59.085L355.68,59.085L356.7,59.098L357.73,58.249L358.76,58.043L359.79,57.966L360.82,58.004L361.85,57.322L362.88,57.451L363.91,57.85L364.94,57.348L365.97,56.267L367,56.499L368.03,56.653L369.05,55.508L370.08,55.341L371.11,55.547L372.14,55.392L373.17,55.367L374.2,54.826L375.23,55.148L376.26,55.753L377.29,54.904L378.32,54.569L379.35,54.415L380.38,54.196L381.4,54.196L382.43,53.501L383.46,53.18L384.49,53.501L385.52,53.141L386.55,53.205L387.58,53.128L388.61,53.205L389.64,52.691L390.67,52.485L391.7,52.163L392.73,52.369L393.75,52.137L394.78,52.253L395.81,52.047L396.84,51.944L397.87,51.533L398.9,51.456L399.93,51.198L400.96,51.43L401.99,51.198L403.02,50.761L404.05,51.044L405.08,50.722L406.1,51.082L407.13,50.568L408.16,50.362L409.19,50.503L410.22,50.388L411.25,50.246L412.28,49.899L413.31,49.912L414.34,49.873L415.37,50.053L416.4,49.603L417.43,49.5L418.45,49.5L419.48,49.77L420.51,48.702L421.54,49.217L422.57,49.088L423.6,49.063L424.63,49.384L425.66,48.406L426.69,48.767L427.72,48.445L428.75,48.844L429.78,48.381L430.8,48.201L431.83,48.201L432.86,48.162L433.89,48.046L434.92,48.072L435.95,48.342L436.98,48.11L438.01,48.149L439.04,47.827L440.07,47.66L441.1,47.712L442.13,47.75L443.15,47.609L444.18,47.57L445.21,47.48L446.24,47.827L447.27,47.647L448.3,47.21L449.33,47.339L450.36,47.441L451.39,47.223L452.42,47.313L453.45,47.03L454.48,46.901L455.5,46.978L456.53,46.85L457.56,47.017L458.59,46.785L459.62,46.978L460.65,46.965L461.68,46.618L462.71,46.412L463.74,46.657L464.77,46.708L465.8,46.875L466.83,46.644L467.85,46.605L468.88,46.489L469.91,46.644L470.94,46.309L471.97,46.682L473,46.374L474.03,46.361L475.06,46.361L476.09,46.168L477.12,46.039L478.15,46.309L479.18,45.949L480.2,46.219L481.23,46.155L482.26,45.975L483.29,46.206L484.32,46.026L485.35,46.258L486.38,46.219L487.41,46.129L488.44,46.219L489.47,45.885L490.5,45.962L491.53,45.885L492.55,45.975L493.58,45.936L494.61,46.065L495.64,45.885L496.67,45.82L497.7,45.898L498.73,45.872L499.76,45.743L500.79,45.885L501.82,45.679L502.85,45.692L503.88,45.705L504.9,45.795L505.93,45.499L506.96,45.82L507.99,45.576L509.02,45.576L510.05,45.627L511.08,45.692L512.11,45.447L513.14,45.615L514.17,45.447L515.2,45.563L516.23,45.576L517.25,45.524L518.28,45.512L519.31,45.537L520.34,45.37L521.37,45.486L522.4,45.499L523.43,45.499L524.46,45.46L525.49,45.383L526.52,45.396L527.55,45.383L528.58,45.434L529.6,45.409L530.63,45.447L531.66,45.422L532.69,45.396L533.72,45.499L534.75,45.37L535.78,45.434L536.81,45.37L537.84,45.319L538.87,45.46L539.9,45.383L540.93,45.383L541.95,45.319L542.98,45.306L544.01,45.409L545.04,45.229L546.07,45.306L547.1,45.331L548.13,45.344L549.16,45.306L550.19,45.331L551.22,45.331L552.25,45.267L553.28,45.267L554.3,45.293L555.33,45.267L556.36,45.344L557.39,45.241L558.42,45.254L559.45,45.28L560.48,45.319L561.51,45.229L562.54,45.203L563.57,45.19L564.6,45.229L565.63,45.254L566.65,45.19L567.68,45.241L568.71,45.241L569.74,45.229L570.77,45.177L571.8,45.229L572.83,45.254L573.86,45.216L574.89,45.229L575.92,45.241L576.95,45.254L577.98,45.19L579,45.216L580.03,45.203L581.06,45.229L582.09,45.267L583.12,45.229L584.15,45.241L585.18,45.19L586.21,45.216L587.24,45.229L588.27,45.267L589.3,45.177L590.33,45.254L591.35,45.203L592.38,45.216L593.41,45.19L594.44,45.216L595.47,45.19L596.5,45.151L597.53,45.19L598.56,45.151L599.59,45.164L600.62,45.19L601.65,45.177L602.68,45.19L603.7,45.151L604.73,45.19L605.76,45.164L606.79,45.177L607.82,45.151L609.88,45.177L610.91,45.177L611.94,45.164L612.97,45.177L614,45.177L615.03,45.151L617.08,45.151L618.11,45.151L619.14,45.164L622.23,45.151L623.26,45.164L624.29,45.164L625.32,45.177L626.35,45.164L627.38,45.151L628.4,45.164L629.43,45.164L630.46,45.151L634.58,45.151L636.64,45.164L637.67,45.177L638.7,45.164L639.73,45.151L640.75,45.164L642.81,45.164L643.84,45.151L646.93,45.151L648.99,45.151L650.02,45.151L651.05,45.151L652.08,45.164L656.19,45.177L657.22,45.164L670.6,45.151L671.63,45.151L674.72,45.151L675.75,45.151L676.78,45.151L678.83,45.151L681.92,45.151L686.04,45.151L720,45.151" style="fill:none;stroke:#0000FF" />
</g>
</svg>
