<?xml version="1.0"?>
<!-- Generated by SVGo and Plotinum VG -->
<svg width="720pt" height="432pt" viewBox="0 0 720 432"
	xmlns="http://www.w3.org/2000/svg"
	xmlns:xlink="http://www.w3.org/1999/xlink">
<g transform="scale(1, -1) translate(0, -432)">
<path d="M0,0L720,0L720,432L0,432Z" style="fill:#FFFFFF" />
<text x="358.5" y="-420.45" transform="scale(1, -1)"
	style="font-family:Times;font-weight:normal;font-style:normal;font-size:12px"> </text>
<text x="376.81" y="-3.8613" transform="scale(1, -1)"
	style="font-family:Times;font-weight:normal;font-style:normal;font-size:12px">Costs</text>
<text x="57.805" y="-18.634" transform="scale(1, -1)"
	style="font-family:Times;font-weight:normal;font-style:normal;font-size:10px">0</text>
<text x="375.66" y="-18.634" transform="scale(1, -1)"
	style="font-family:Times;font-weight:normal;font-style:normal;font-size:10px">300</text>
<text x="698.51" y="-18.634" transform="scale(1, -1)"
	style="font-family:Times;font-weight:normal;font-style:normal;font-size:10px">600</text>
<path d="M60.305,28.263L60.305,36.263" style="fill:none;stroke:#000000;stroke-width:0.5" />
<path d="M383.16,28.263L383.16,36.263" style="fill:none;stroke:#000000;stroke-width:0.5" />
<path d="M706.01,28.263L706.01,36.263" style="fill:none;stroke:#000000;stroke-width:0.5" />
<path d="M167.92,32.263L167.92,36.263" style="fill:none;stroke:#000000;stroke-width:0.5" />
<path d="M275.54,32.263L275.54,36.263" style="fill:none;stroke:#000000;stroke-width:0.5" />
<path d="M490.77,32.263L490.77,36.263" style="fill:none;stroke:#000000;stroke-width:0.5" />
<path d="M598.39,32.263L598.39,36.263" style="fill:none;stroke:#000000;stroke-width:0.5" />
<path d="M60.305,36.263L720,36.263" style="fill:none;stroke:#000000;stroke-width:0.5" />
<g transform="rotate(90)">
<text x="152.55" y="11.555" transform="scale(1, -1)"
	style="font-family:Times;font-weight:normal;font-style:normal;font-size:12px">Number of trials (1000000 total)</text>
</g>
<text x="19.055" y="-93.396" transform="scale(1, -1)"
	style="font-family:Times;font-weight:normal;font-style:normal;font-size:10px">10000</text>
<text x="19.055" y="-247.76" transform="scale(1, -1)"
	style="font-family:Times;font-weight:normal;font-style:normal;font-size:10px">40000</text>
<text x="19.055" y="-402.13" transform="scale(1, -1)"
	style="font-family:Times;font-weight:normal;font-style:normal;font-size:10px">70000</text>
<path d="M46.555,96.602L54.555,96.602" style="fill:none;stroke:#000000;stroke-width:0.5" />
<path d="M46.555,250.97L54.555,250.97" style="fill:none;stroke:#000000;stroke-width:0.5" />
<path d="M46.555,405.34L54.555,405.34" style="fill:none;stroke:#000000;stroke-width:0.5" />
<path d="M50.555,148.06L54.555,148.06" style="fill:none;stroke:#000000;stroke-width:0.5" />
<path d="M50.555,199.51L54.555,199.51" style="fill:none;stroke:#000000;stroke-width:0.5" />
<path d="M50.555,302.42L54.555,302.42" style="fill:none;stroke:#000000;stroke-width:0.5" />
<path d="M50.555,353.88L54.555,353.88" style="fill:none;stroke:#000000;stroke-width:0.5" />
<path d="M54.555,45.151L54.555,416.58" style="fill:none;stroke:#000000;stroke-width:0.5" />
<path d="M60.305,416.58L83.981,53.57L85.057,48.553L88.285,85.451L89.361,59.657L90.438,53.518L91.514,72.835L92.59,56.713L93.666,105.56L94.742,89.352L95.818,51.661L96.895,86.655L97.971,61.082L99.047,61.175L100.12,61.293L101.2,65.039L102.28,60.135L103.35,53.312L104.43,116.97L105.5,103.41L106.58,95.388L107.66,90.227L108.73,56.909L109.81,74.8L111.96,46.006L113.04,76.766L114.11,76.344L115.19,65.044L116.27,45.892L117.34,100.62L118.42,85.4L119.49,56.101L120.57,56.811L121.65,69.773L122.72,65.518L123.8,58.242L124.88,70.998L125.95,114.19L127.03,68.775L128.1,89.249L129.18,55.232L130.26,57.439L131.33,57.64L132.41,72.86L133.48,62.564L134.56,62.744L135.64,64.771L136.71,70.56L137.79,72.016L138.87,83.717L139.94,66.439L141.02,75.948L142.09,69.938L143.17,90.134L144.25,65.59L145.32,67.73L146.4,75.968L147.47,78.788L148.55,71.558L149.63,75.618L150.7,77.342L151.78,83.47L152.86,71.044L153.93,80.321L155.01,72.953L156.08,70.565L157.16,72.114L158.24,72.726L159.31,81.587L160.39,75.196L161.47,77.589L162.54,82.575L163.62,73.334L164.69,74.244L165.77,70.802L166.85,75.217L167.92,68.744L169,67.138L170.07,78.834L171.15,81.33L172.23,83.476L173.3,76.097L174.38,71.26L175.46,75.675L176.53,68.42L177.61,69.068L178.68,69.577L179.76,74.044L180.84,72.721L181.91,71.126L182.99,77.131L184.06,73.154L185.14,73.215L186.22,70.632L187.29,71.826L188.37,70.581L189.45,70.684L190.52,73.246L191.6,71.311L192.67,72.649L193.75,73.822L194.83,68.975L195.9,71.136L196.98,69.968L198.06,70.138L199.13,67.977L200.21,71.841L201.28,70.658L202.36,68.085L203.44,69.119L204.51,73.056L205.59,69.49L206.66,70.9L207.74,69.48L208.82,72.392L209.89,67.776L210.97,69.325L212.05,67.581L213.12,68.152L214.2,68.641L215.27,69.001L216.35,68.965L217.43,68.847L218.5,66.701L219.58,68.821L220.65,66.572L221.73,67.051L222.81,65.245L223.88,66.176L224.96,66.207L226.04,65.698L227.11,66.665L228.19,66.67L229.26,66.274L230.34,65.646L231.42,64.349L232.49,64.828L233.57,63.83L234.65,64.344L235.72,63.542L236.8,64.535L237.87,64.514L238.95,63.711L240.03,63.336L241.1,63.042L242.18,62.538L243.25,62.08L244.33,62.271L245.41,62.235L246.48,61.72L247.56,61.869L248.64,62.307L249.71,61.782L250.79,62.281L251.86,60.681L252.94,60.778L254.02,61.015L255.09,60.357L256.17,60.068L257.24,59.837L258.32,60.027L259.4,59.281L260.47,58.885L261.55,59.626L262.63,58.967L263.7,58.159L264.78,58.525L265.85,58.895L266.93,58.473L268.01,57.938L269.08,57.825L270.16,58.067L271.23,57.403L272.31,57.732L273.39,56.729L274.46,57.269L275.54,56.76L276.62,56.575L277.69,56.549L278.77,56.487L279.84,55.962L280.92,55.792L282,55.803L283.07,55.669L284.15,55.767L285.23,56.003L286.3,55.437L287.38,55.046L288.45,54.413L289.53,54.583L290.61,54.46L291.68,54.115L292.76,54.172L293.83,53.93L294.91,54.1L295.99,53.508L297.06,52.978L298.14,53.688L299.22,53.009L300.29,53.451L301.37,53.076L302.44,52.808L303.52,52.571L304.6,52.942L305.67,52.021L306.75,52.576L307.82,52.494L308.9,51.856L309.98,51.779L311.05,51.516L312.13,51.619L313.21,51.866L314.28,51.285L315.36,51.532L316.43,51.367L317.51,51.239L318.59,51.357L319.66,50.986L320.74,50.714L321.82,50.786L322.89,50.451L323.97,50.544L325.04,50.554L326.12,50.256L327.2,50.014L328.27,49.793L329.35,49.911L330.42,49.618L331.5,49.998L332.58,49.551L333.65,49.499L334.73,49.515L335.81,49.237L336.88,49.52L337.96,49.299L339.03,49.237L340.11,49.067L341.19,48.769L342.26,49.17L343.34,48.794L344.41,48.64L345.49,48.419L346.57,48.558L347.64,48.671L348.72,48.393L349.8,48.264L350.87,48.321L351.95,48.285L353.02,48.048L354.1,48.069L355.18,48.079L356.25,47.837L357.33,47.704L358.41,47.781L359.48,47.709L360.56,47.673L361.63,47.683L362.71,47.698L363.79,47.698L364.86,47.596L365.94,47.426L367.01,47.534L368.09,47.297L369.17,47.215L370.24,47.23L371.32,47.138L372.4,47.112L373.47,47.066L374.55,47.163L375.62,47.081L376.7,47.004L377.78,47.05L378.85,47.04L379.93,46.87L381,46.839L382.08,46.644L383.16,46.803L384.23,46.597L385.31,46.577L386.39,46.561L387.46,46.505L388.54,46.68L389.61,46.582L390.69,46.5L391.77,46.474L392.84,46.427L393.92,46.397L395,46.427L396.07,46.227L397.15,46.33L398.22,46.361L399.3,46.191L400.38,46.186L401.45,46.114L402.53,46.114L403.6,46.232L404.68,46.165L405.76,46.108L406.83,46.011L407.91,45.985L408.99,45.944L410.06,46.052L411.14,45.959L412.21,45.897L413.29,45.975L414.37,45.928L415.44,45.887L416.52,45.743L417.59,45.733L418.67,45.805L419.75,45.789L420.82,45.923L421.9,45.81L422.98,45.815L424.05,45.82L425.13,45.805L426.2,45.666L427.28,45.681L428.36,45.666L429.43,45.707L430.51,45.645L431.59,45.548L432.66,45.681L433.74,45.563L434.81,45.537L435.89,45.563L436.97,45.527L438.04,45.578L439.12,45.568L440.19,45.578L441.27,45.553L442.35,45.563L443.42,45.532L444.5,45.527L445.58,45.455L446.65,45.362L447.73,45.398L448.8,45.424L449.88,45.434L450.96,45.393L452.03,45.434L453.11,45.342L454.18,45.398L455.26,45.342L456.34,45.373L457.41,45.383L458.49,45.378L459.57,45.383L460.64,45.409L461.72,45.393L462.79,45.373L463.87,45.378L464.95,45.378L466.02,45.316L467.1,45.347L468.18,45.259L469.25,45.321L470.33,45.29L471.4,45.337L472.48,45.321L473.56,45.295L474.63,45.28L475.71,45.337L476.78,45.265L477.86,45.331L478.94,45.259L480.01,45.239L481.09,45.28L482.17,45.259L483.24,45.28L484.32,45.244L485.39,45.239L486.47,45.229L487.55,45.244L488.62,45.218L489.7,45.239L490.77,45.223L491.85,45.198L492.93,45.28L494,45.244L495.08,45.213L496.16,45.265L497.23,45.203L498.31,45.182L499.38,45.249L500.46,45.229L501.54,45.203L502.61,45.182L503.69,45.198L504.76,45.218L505.84,45.218L506.92,45.203L507.99,45.213L509.07,45.218L510.15,45.193L511.22,45.187L512.3,45.177L513.37,45.187L514.45,45.177L515.53,45.203L516.6,45.213L517.68,45.193L518.76,45.208L519.83,45.172L520.91,45.193L521.98,45.187L523.06,45.167L524.14,45.177L526.29,45.167L527.36,45.157L528.44,45.193L529.52,45.182L530.59,45.162L531.67,45.182L532.75,45.167L533.82,45.167L534.9,45.151L535.97,45.167L537.05,45.177L538.13,45.157L539.2,45.162L540.28,45.162L541.35,45.157L542.43,45.172L543.51,45.157L544.58,45.167L545.66,45.151L546.74,45.177L547.81,45.162L548.89,45.167L549.96,45.172L552.12,45.162L553.19,45.157L554.27,45.167L555.35,45.151L556.42,45.157L557.5,45.151L558.57,45.167L559.65,45.151L560.73,45.157L561.8,45.177L562.88,45.151L563.95,45.151L565.03,45.151L566.11,45.151L568.26,45.157L569.34,45.151L570.41,45.157L572.56,45.151L574.72,45.162L576.87,45.151L577.94,45.151L579.02,45.162L581.17,45.151L582.25,45.162L583.33,45.151L584.4,45.151L585.48,45.157L586.55,45.157L590.86,45.151L594.09,45.157L596.24,45.151L600.54,45.151L601.62,45.151L603.77,45.151L607,45.151L610.23,45.157L615.61,45.151L617.76,45.151L627.45,45.151L628.53,45.151L651.12,45.151L665.12,45.151L682.33,45.151L700.63,45.151L720,45.151" style="fill:none;stroke:#0000FF" />
</g>
</svg>
