<?xml version="1.0"?>
<!-- Generated by SVGo and Plotinum VG -->
<svg width="720pt" height="432pt" viewBox="0 0 720 432"
	xmlns="http://www.w3.org/2000/svg"
	xmlns:xlink="http://www.w3.org/1999/xlink">
<g transform="scale(1, -1) translate(0, -432)">
<path d="M0,0L720,0L720,432L0,432Z" style="fill:#FFFFFF" />
<text x="358.5" y="-420.45" transform="scale(1, -1)"
	style="font-family:Times;font-weight:normal;font-style:normal;font-size:12px"> </text>
<text x="379.31" y="-3.8613" transform="scale(1, -1)"
	style="font-family:Times;font-weight:normal;font-style:normal;font-size:12px">Costs</text>
<text x="62.805" y="-18.634" transform="scale(1, -1)"
	style="font-family:Times;font-weight:normal;font-style:normal;font-size:10px">0</text>
<text x="379.79" y="-18.634" transform="scale(1, -1)"
	style="font-family:Times;font-weight:normal;font-style:normal;font-size:10px">300</text>
<text x="701.77" y="-18.634" transform="scale(1, -1)"
	style="font-family:Times;font-weight:normal;font-style:normal;font-size:10px">600</text>
<path d="M65.305,28.263L65.305,36.263" style="fill:none;stroke:#000000;stroke-width:0.5" />
<path d="M387.29,28.263L387.29,36.263" style="fill:none;stroke:#000000;stroke-width:0.5" />
<path d="M709.27,28.263L709.27,36.263" style="fill:none;stroke:#000000;stroke-width:0.5" />
<path d="M172.63,32.263L172.63,36.263" style="fill:none;stroke:#000000;stroke-width:0.5" />
<path d="M279.96,32.263L279.96,36.263" style="fill:none;stroke:#000000;stroke-width:0.5" />
<path d="M494.61,32.263L494.61,36.263" style="fill:none;stroke:#000000;stroke-width:0.5" />
<path d="M601.94,32.263L601.94,36.263" style="fill:none;stroke:#000000;stroke-width:0.5" />
<path d="M65.305,36.263L720,36.263" style="fill:none;stroke:#000000;stroke-width:0.5" />
<g transform="rotate(90)">
<text x="152.55" y="11.555" transform="scale(1, -1)"
	style="font-family:Times;font-weight:normal;font-style:normal;font-size:12px">Number of trials (1000000 total)</text>
</g>
<text x="24.055" y="-92.618" transform="scale(1, -1)"
	style="font-family:Times;font-weight:normal;font-style:normal;font-size:10px">20000</text>
<text x="24.055" y="-244.64" transform="scale(1, -1)"
	style="font-family:Times;font-weight:normal;font-style:normal;font-size:10px">80000</text>
<text x="19.055" y="-396.67" transform="scale(1, -1)"
	style="font-family:Times;font-weight:normal;font-style:normal;font-size:10px">140000</text>
<path d="M51.555,95.823L59.555,95.823" style="fill:none;stroke:#000000;stroke-width:0.5" />
<path d="M51.555,247.85L59.555,247.85" style="fill:none;stroke:#000000;stroke-width:0.5" />
<path d="M51.555,399.87L59.555,399.87" style="fill:none;stroke:#000000;stroke-width:0.5" />
<path d="M55.555,171.84L59.555,171.84" style="fill:none;stroke:#000000;stroke-width:0.5" />
<path d="M55.555,323.86L59.555,323.86" style="fill:none;stroke:#000000;stroke-width:0.5" />
<path d="M59.555,45.151L59.555,416.58" style="fill:none;stroke:#000000;stroke-width:0.5" />
<path d="M65.305,416.58L88.917,55.791L93.21,48.754L94.283,58.953L95.356,55.451L96.43,51.901L98.576,55.965L99.649,48.564L100.72,69.3L101.8,96.409L102.87,88.949L105.02,67.068L106.09,78.044L107.16,48.564L108.24,81.184L109.31,55.618L110.38,74.289L111.46,62.875L112.53,69.767L113.6,48.635L114.68,48.569L116.82,52.048L117.89,55.74L118.97,66.247L120.04,82.025L122.19,110.56L123.26,48.752L124.33,75.87L125.41,54.26L126.48,80.092L127.55,45.661L128.63,71.976L129.7,47.776L130.77,81.217L131.85,75.189L132.92,58.453L133.99,48.552L135.07,49.261L136.14,49.459L137.21,51.141L138.29,52.72L139.36,54.377L140.43,50.325L141.51,57.202L142.58,54.939L143.65,71.882L144.73,52.2L145.8,57.693L146.87,53.257L147.95,60.848L149.02,56.781L150.09,54.443L151.17,67.841L152.24,83.34L153.31,55.545L154.39,54.944L155.46,59.898L156.53,57.521L157.61,59.872L158.68,59.447L159.75,63.295L160.83,57.671L161.9,61.395L162.97,63.169L164.05,58.258L165.12,63.354L166.19,59.888L167.27,66.409L168.34,60.513L169.41,63.399L170.49,53.459L171.56,60.171L172.63,54.701L173.71,58.517L174.78,54.714L175.85,57.932L176.92,59.11L178,54.977L179.07,60.217L180.14,55.514L181.22,60.749L182.29,52.894L183.36,59.247L184.44,54.549L185.51,61.991L186.58,55.829L187.66,62.434L188.73,61.641L189.8,60.521L190.88,54.412L191.95,57.06L193.02,55.684L194.1,54.769L195.17,55.884L196.24,54.833L197.32,56.766L198.39,57.05L199.46,53.872L200.54,55.894L201.61,51.699L202.68,54.762L203.76,53.12L204.83,56.857L205.9,55.023L206.98,56.434L208.05,54.866L209.12,59.563L210.2,54.881L211.27,55.261L212.34,54.501L213.42,55.443L214.49,53.898L215.56,53.88L216.64,54.313L217.71,56.016L218.78,55.228L219.86,53.657L220.93,52.976L222,53.419L223.08,52.611L224.15,53.584L225.22,52.968L226.3,54.101L227.37,51.965L228.44,53.672L229.52,52.563L230.59,54.131L231.66,51.688L232.73,52.537L233.81,51.861L234.88,52.854L235.95,51.739L237.03,51.235L238.1,52.687L239.17,51.047L240.25,51.564L241.32,51.217L242.39,52.109L243.47,51.511L244.54,51.719L245.61,51.734L246.69,51.84L247.76,51.235L248.83,51.237L249.91,51.194L250.98,51.014L252.05,51.306L253.13,50.893L254.2,51.41L255.27,51.159L256.35,50.637L257.42,50.079L258.49,49.983L259.57,50.041L260.64,49.644L261.71,49.983L262.79,49.661L263.86,50.272L264.93,49.634L266.01,49.955L267.08,49.616L268.15,49.73L269.23,49.048L270.3,49.479L271.37,49.375L272.45,49.601L273.52,49.124L274.59,49.444L275.67,49.322L276.74,49.099L277.81,48.716L278.89,48.889L279.96,48.62L281.03,48.805L282.11,48.503L283.18,48.577L284.25,48.379L285.33,48.572L286.4,48.073L287.47,48.473L288.55,47.946L289.62,48.367L290.69,47.951L291.76,48.212L292.84,47.961L293.91,47.982L294.98,48.02L296.06,47.728L297.13,47.878L298.2,47.637L299.28,47.743L300.35,47.505L301.42,47.556L302.5,47.472L303.57,47.683L304.64,47.5L305.72,47.427L306.79,47.442L307.86,47.297L308.94,47.356L310.01,47.396L311.08,47.183L312.16,47.166L313.23,47.042L314.3,47.016L315.38,47.145L316.45,47.004L317.52,46.953L318.6,46.826L319.67,46.915L320.74,46.829L321.82,46.786L322.89,46.773L323.96,46.656L325.04,46.651L326.11,46.644L327.18,46.613L328.26,46.573L329.33,46.626L330.4,46.489L331.48,46.55L332.55,46.433L333.62,46.342L334.7,46.36L335.77,46.378L336.84,46.299L337.92,46.327L338.99,46.261L340.06,46.185L341.14,46.203L342.21,46.152L343.28,46.208L344.36,46.129L345.43,46.238L346.5,46.122L347.57,46.114L348.65,46.119L349.72,46.031L350.79,46.043L351.87,45.975L352.94,45.985L354.01,45.955L355.09,45.957L356.16,45.98L357.23,45.924L358.31,45.942L359.38,45.909L360.45,45.841L361.53,45.82L362.6,45.792L363.67,45.863L364.75,45.795L365.82,45.732L366.89,45.777L367.97,45.727L369.04,45.714L370.11,45.734L371.19,45.742L372.26,45.689L373.33,45.683L374.41,45.706L375.48,45.729L376.55,45.613L377.63,45.602L378.7,45.635L379.77,45.602L380.85,45.6L381.92,45.562L382.99,45.58L384.07,45.587L385.14,45.506L386.21,45.549L387.29,45.514L388.36,45.455L389.43,45.506L390.51,45.496L391.58,45.539L392.65,45.417L393.73,45.488L394.8,45.433L395.87,45.455L396.95,45.453L398.02,45.415L399.09,45.405L400.17,45.379L401.24,45.412L402.31,45.382L403.39,45.384L404.46,45.374L405.53,45.364L406.6,45.369L407.68,45.357L408.75,45.334L409.82,45.352L410.9,45.359L411.97,45.344L413.04,45.346L414.12,45.359L415.19,45.334L416.26,45.357L417.34,45.324L418.41,45.357L419.48,45.316L420.56,45.301L421.63,45.306L422.7,45.293L423.78,45.296L424.85,45.308L425.92,45.278L427,45.293L428.07,45.278L429.14,45.27L430.22,45.283L431.29,45.291L432.36,45.265L433.44,45.268L434.51,45.283L435.58,45.255L436.66,45.278L437.73,45.238L438.8,45.227L439.88,45.225L440.95,45.255L442.02,45.24L443.1,45.227L444.17,45.225L445.24,45.24L446.32,45.202L447.39,45.248L448.46,45.23L449.54,45.2L450.61,45.215L451.68,45.245L452.76,45.194L453.83,45.222L454.9,45.207L455.98,45.205L457.05,45.238L458.12,45.227L459.2,45.187L460.27,45.2L461.34,45.212L462.41,45.187L463.49,45.207L464.56,45.187L465.63,45.202L466.71,45.169L467.78,45.177L468.85,45.182L469.93,45.192L471,45.187L472.07,45.194L473.15,45.192L474.22,45.184L475.29,45.189L476.37,45.177L477.44,45.184L478.51,45.174L479.59,45.189L480.66,45.189L481.73,45.179L482.81,45.182L483.88,45.172L484.95,45.192L486.03,45.177L487.1,45.167L488.17,45.174L489.25,45.164L490.32,45.184L491.39,45.162L492.47,45.167L493.54,45.164L494.61,45.167L495.69,45.174L496.76,45.174L497.83,45.167L498.91,45.164L499.98,45.174L501.05,45.156L502.13,45.162L503.2,45.164L504.27,45.162L505.35,45.156L506.42,45.164L507.49,45.164L508.57,45.159L509.64,45.151L510.71,45.159L512.86,45.164L513.93,45.167L515.01,45.162L516.08,45.156L517.15,45.159L518.23,45.167L519.3,45.156L520.37,45.159L521.44,45.154L522.52,45.159L525.74,45.151L526.81,45.151L527.88,45.156L528.96,45.151L530.03,45.154L531.1,45.154L532.18,45.156L533.25,45.151L534.32,45.151L535.4,45.154L536.47,45.154L538.62,45.151L539.69,45.164L540.76,45.156L541.84,45.154L542.91,45.151L545.06,45.154L546.13,45.154L548.28,45.154L550.42,45.154L551.5,45.151L557.94,45.154L562.23,45.151L563.3,45.151L564.38,45.151L568.67,45.151L570.82,45.151L574.04,45.151L575.11,45.151L578.33,45.151L579.4,45.154L583.69,45.151L584.77,45.154L585.84,45.151L587.99,45.151L591.21,45.151L592.28,45.151L593.35,45.154L600.87,45.151L601.94,45.151L606.23,45.151L608.38,45.151L643.8,45.151L656.68,45.151L720,45.151" style="fill:none;stroke:#0000FF" />
</g>
</svg>
