<?xml version="1.0"?>
<!-- Generated by SVGo and Plotinum VG -->
<svg width="720pt" height="432pt" viewBox="0 0 720 432"
	xmlns="http://www.w3.org/2000/svg"
	xmlns:xlink="http://www.w3.org/1999/xlink">
<g transform="scale(1, -1) translate(0, -432)">
<path d="M0,0L720,0L720,432L0,432Z" style="fill:#FFFFFF" />
<text x="358.5" y="-420.45" transform="scale(1, -1)"
	style="font-family:Times;font-weight:normal;font-style:normal;font-size:12px"> </text>
<text x="376.81" y="-3.8613" transform="scale(1, -1)"
	style="font-family:Times;font-weight:normal;font-style:normal;font-size:12px">Costs</text>
<text x="57.805" y="-18.634" transform="scale(1, -1)"
	style="font-family:Times;font-weight:normal;font-style:normal;font-size:10px">0</text>
<text x="377.25" y="-18.634" transform="scale(1, -1)"
	style="font-family:Times;font-weight:normal;font-style:normal;font-size:10px">300</text>
<text x="701.69" y="-18.634" transform="scale(1, -1)"
	style="font-family:Times;font-weight:normal;font-style:normal;font-size:10px">600</text>
<path d="M60.305,28.263L60.305,36.263" style="fill:none;stroke:#000000;stroke-width:0.5" />
<path d="M384.75,28.263L384.75,36.263" style="fill:none;stroke:#000000;stroke-width:0.5" />
<path d="M709.19,28.263L709.19,36.263" style="fill:none;stroke:#000000;stroke-width:0.5" />
<path d="M168.45,32.263L168.45,36.263" style="fill:none;stroke:#000000;stroke-width:0.5" />
<path d="M276.6,32.263L276.6,36.263" style="fill:none;stroke:#000000;stroke-width:0.5" />
<path d="M492.89,32.263L492.89,36.263" style="fill:none;stroke:#000000;stroke-width:0.5" />
<path d="M601.04,32.263L601.04,36.263" style="fill:none;stroke:#000000;stroke-width:0.5" />
<path d="M60.305,36.263L720,36.263" style="fill:none;stroke:#000000;stroke-width:0.5" />
<g transform="rotate(90)">
<text x="152.55" y="11.555" transform="scale(1, -1)"
	style="font-family:Times;font-weight:normal;font-style:normal;font-size:12px">Number of trials (1000000 total)</text>
</g>
<text x="19.055" y="-90.864" transform="scale(1, -1)"
	style="font-family:Times;font-weight:normal;font-style:normal;font-size:10px">10000</text>
<text x="19.055" y="-237.64" transform="scale(1, -1)"
	style="font-family:Times;font-weight:normal;font-style:normal;font-size:10px">40000</text>
<text x="19.055" y="-384.41" transform="scale(1, -1)"
	style="font-family:Times;font-weight:normal;font-style:normal;font-size:10px">70000</text>
<path d="M46.555,94.07L54.555,94.07" style="fill:none;stroke:#000000;stroke-width:0.5" />
<path d="M46.555,240.84L54.555,240.84" style="fill:none;stroke:#000000;stroke-width:0.5" />
<path d="M46.555,387.61L54.555,387.61" style="fill:none;stroke:#000000;stroke-width:0.5" />
<path d="M50.555,142.99L54.555,142.99" style="fill:none;stroke:#000000;stroke-width:0.5" />
<path d="M50.555,191.92L54.555,191.92" style="fill:none;stroke:#000000;stroke-width:0.5" />
<path d="M50.555,289.76L54.555,289.76" style="fill:none;stroke:#000000;stroke-width:0.5" />
<path d="M50.555,338.69L54.555,338.69" style="fill:none;stroke:#000000;stroke-width:0.5" />
<path d="M54.555,45.151L54.555,416.58" style="fill:none;stroke:#000000;stroke-width:0.5" />
<path d="M60.305,416.58L84.097,48.498L86.26,48.649L88.423,92.837L89.504,70.919L90.586,85.278L91.667,48.586L93.83,89.887L94.912,69.373L97.075,94.447L98.156,77.881L99.238,62.045L100.32,66.849L101.4,48.914L102.48,63.17L103.56,73.341L104.64,59.848L105.73,100.73L106.81,59.188L107.89,124.97L108.97,55.631L110.05,62.216L112.22,58.948L113.3,81.414L114.38,89.809L115.46,69.912L116.54,47.02L117.62,100.98L118.7,110.12L119.79,49.163L120.87,95.484L121.95,54.55L123.03,65.919L124.11,72.901L125.19,95.543L126.27,66.859L127.36,63.371L128.44,69.951L129.52,50.386L130.6,56.345L131.68,58.419L132.76,55.215L133.84,63.278L134.93,58.742L136.01,67.573L137.09,66.12L138.17,63.737L139.25,70.391L140.33,67.216L141.41,67.421L142.5,72.593L143.58,67.226L144.66,69.907L145.74,70.685L146.82,79.212L147.9,88.111L148.99,72.774L150.07,65.445L151.15,77.695L152.23,77.079L153.31,78.419L154.39,75.988L155.47,82.46L156.56,68.351L157.64,76.125L158.72,73.703L159.8,70.631L160.88,75.88L161.96,78.292L163.04,77.133L164.13,71.423L165.21,74.677L166.29,78.972L167.37,68.777L168.45,75.279L169.53,66.472L170.61,74.618L171.7,74.334L172.78,78.326L173.86,71.144L174.94,68.928L176.02,76.834L177.1,66.614L178.18,73.121L179.27,73.61L180.35,66.12L181.43,70.205L182.51,72.867L183.59,72.314L184.67,69.814L185.75,71.609L186.84,68.532L187.92,65.812L189,68.375L190.08,65.044L191.16,67.49L192.24,67.945L193.33,69.584L194.41,68.791L195.49,69.099L196.57,67.676L197.65,68.194L198.73,66.834L199.81,69.398L200.9,70.332L201.98,69.506L203.06,68.801L204.14,68.537L205.22,70.934L206.3,70.053L207.38,68.61L208.47,69.75L209.55,68.287L210.63,68.116L211.71,68.18L212.79,69.461L213.87,67.48L214.95,66.007L216.04,67.842L217.12,65.416L218.2,65.645L219.28,66.668L220.36,65.856L221.44,65.787L222.52,64.447L223.61,65.528L224.69,64.021L225.77,64.965L226.85,64.868L227.93,63.879L229.01,64.471L230.1,64.667L231.18,64.442L232.26,63.253L233.34,63.713L234.42,63.346L235.5,61.771L236.58,63.542L237.67,62.221L238.75,62.02L239.83,62.094L240.91,62.72L241.99,61.869L243.07,62.054L244.15,60.665L245.24,60.802L246.32,60.606L247.4,61.003L248.48,60.435L249.56,60.538L250.64,60.161L251.72,59.897L252.81,60.053L253.89,60.381L254.97,58.972L256.05,59.54L257.13,59.584L258.21,59.784L259.29,59.232L260.38,59.06L261.46,58.923L262.54,59.207L263.62,58.742L264.7,58.185L265.78,57.989L266.87,57.744L267.95,57.505L269.03,57.593L270.11,57.402L271.19,57.651L272.27,56.507L273.35,57.089L274.44,56.639L275.52,55.88L276.6,56.33L277.68,55.959L278.76,56.193L279.84,56.017L280.92,55.411L282.01,55.499L283.09,54.853L284.17,55.308L285.25,54.882L286.33,54.98L287.41,54.652L288.49,54.623L289.58,54.305L290.66,54.114L291.74,53.997L292.82,53.532L293.9,53.752L294.98,53.718L296.06,53.444L297.15,53.209L298.23,53.258L299.31,52.901L300.39,52.642L301.47,52.735L302.55,52.514L303.63,52.402L304.72,52.563L305.8,52.235L306.88,52.309L307.96,52.24L309.04,51.614L310.12,51.81L311.21,51.565L312.29,51.418L313.37,51.658L314.45,51.409L315.53,51.174L316.61,51.311L317.69,50.934L318.78,51.33L319.86,50.758L320.94,50.768L322.02,50.812L323.1,50.43L324.18,50.548L325.26,50.543L326.35,50.19L327.43,50.235L328.51,50.093L329.59,50.166L330.67,49.775L331.75,49.726L332.83,49.594L333.92,49.804L335,49.344L336.08,49.432L337.16,49.285L338.24,49.285L339.32,49.168L340.4,48.933L341.49,49.095L342.57,48.943L343.65,49.114L344.73,48.703L345.81,48.826L346.89,48.723L347.98,48.708L349.06,48.287L350.14,48.503L351.22,48.415L352.3,48.375L353.38,47.925L354.46,48.224L355.55,48.077L356.63,48.229L357.71,48.023L358.79,47.691L359.87,47.818L360.95,47.935L362.03,47.656L363.12,47.671L364.2,47.637L365.28,47.549L366.36,47.529L367.44,47.632L368.52,47.451L369.6,47.353L370.69,47.284L371.77,47.348L372.85,47.196L373.93,47.333L375.01,46.893L376.09,47.045L377.17,47.04L378.26,47.03L379.34,46.952L380.42,46.815L381.5,46.873L382.58,47.001L383.66,46.976L384.75,46.551L385.83,46.59L386.91,46.712L387.99,46.604L389.07,46.741L390.15,46.6L391.23,46.531L392.32,46.482L393.4,46.487L394.48,46.433L395.56,46.531L396.64,46.433L397.72,46.418L398.8,46.36L399.89,46.213L400.97,46.203L402.05,46.198L403.13,46.277L404.21,46.218L405.29,46.125L406.37,46.233L407.46,45.968L408.54,46.027L409.62,46.135L410.7,46.086L411.78,46.066L412.86,46.008L413.94,46.091L415.03,45.871L416.11,45.968L417.19,45.973L418.27,45.919L419.35,45.88L420.43,45.836L421.51,45.792L422.6,45.822L423.68,45.802L424.76,45.768L425.84,45.831L426.92,45.768L428,45.763L429.09,45.802L430.17,45.729L431.25,45.699L432.33,45.694L433.41,45.831L434.49,45.734L435.57,45.621L436.66,45.655L437.74,45.616L438.82,45.601L439.9,45.67L440.98,45.621L442.06,45.636L443.14,45.572L444.23,45.636L445.31,45.548L446.39,45.592L447.47,45.494L448.55,45.553L449.63,45.548L450.71,45.469L451.8,45.528L452.88,45.46L453.96,45.474L455.04,45.445L456.12,45.43L457.2,45.411L458.28,45.464L459.37,45.484L460.45,45.479L461.53,45.46L462.61,45.401L463.69,45.445L464.77,45.445L465.86,45.337L466.94,45.376L468.02,45.406L469.1,45.372L470.18,45.401L471.26,45.337L472.34,45.357L473.43,45.376L474.51,45.323L475.59,45.303L476.67,45.342L477.75,45.337L478.83,45.274L479.91,45.274L481,45.352L482.08,45.313L483.16,45.288L484.24,45.293L485.32,45.279L486.4,45.303L487.48,45.327L488.57,45.264L489.65,45.259L490.73,45.283L491.81,45.23L492.89,45.293L493.97,45.288L495.05,45.254L496.14,45.283L497.22,45.254L498.3,45.239L499.38,45.259L500.46,45.249L501.54,45.235L502.62,45.225L503.71,45.249L504.79,45.195L505.87,45.23L506.95,45.244L508.03,45.2L509.11,45.22L510.2,45.239L511.28,45.21L512.36,45.23L513.44,45.22L514.52,45.21L515.6,45.161L516.68,45.22L517.77,45.2L518.85,45.195L519.93,45.235L521.01,45.2L522.09,45.186L523.17,45.181L524.25,45.176L525.34,45.2L526.42,45.2L527.5,45.2L528.58,45.176L529.66,45.176L530.74,45.186L531.82,45.186L532.91,45.181L533.99,45.195L535.07,45.195L536.15,45.171L537.23,45.205L538.31,45.176L539.39,45.171L540.48,45.176L541.56,45.181L542.64,45.176L543.72,45.181L544.8,45.166L545.88,45.181L546.97,45.171L548.05,45.166L549.13,45.156L550.21,45.181L551.29,45.161L552.37,45.181L553.45,45.161L554.54,45.161L555.62,45.166L556.7,45.161L557.78,45.176L558.86,45.171L559.94,45.161L561.02,45.161L562.11,45.171L563.19,45.161L564.27,45.166L565.35,45.151L566.43,45.181L567.51,45.151L568.59,45.161L569.68,45.171L570.76,45.156L571.84,45.151L574,45.156L575.08,45.161L576.16,45.156L577.25,45.161L578.33,45.151L579.41,45.151L580.49,45.161L581.57,45.151L582.65,45.151L583.74,45.161L584.82,45.151L585.9,45.151L586.98,45.156L588.06,45.161L589.14,45.151L591.31,45.151L592.39,45.151L594.55,45.161L595.63,45.151L597.79,45.151L598.88,45.151L602.12,45.151L604.28,45.151L605.36,45.151L606.45,45.161L607.53,45.156L608.61,45.151L614.02,45.151L615.1,45.156L616.18,45.151L621.59,45.151L622.67,45.151L623.75,45.151L624.83,45.151L625.91,45.156L626.99,45.151L629.16,45.151L630.24,45.151L649.7,45.151L652.95,45.151L659.44,45.151L663.76,45.151L675.66,45.151L686.47,45.151L688.64,45.151L696.21,45.151L720,45.151" style="fill:none;stroke:#0000FF" />
</g>
</svg>
