<?xml version="1.0"?>
<!-- Generated by SVGo and Plotinum VG -->
<svg width="720pt" height="432pt" viewBox="0 0 720 432"
	xmlns="http://www.w3.org/2000/svg"
	xmlns:xlink="http://www.w3.org/1999/xlink">
<g transform="scale(1, -1) translate(0, -432)">
<path d="M0,0L720,0L720,432L0,432Z" style="fill:#FFFFFF" />
<text x="358.5" y="-420.45" transform="scale(1, -1)"
	style="font-family:Times;font-weight:normal;font-style:normal;font-size:12px"> </text>
<text x="378.8" y="-3.8613" transform="scale(1, -1)"
	style="font-family:Times;font-weight:normal;font-style:normal;font-size:12px">Costs</text>
<text x="62.805" y="-18.634" transform="scale(1, -1)"
	style="font-family:Times;font-weight:normal;font-style:normal;font-size:10px">0</text>
<text x="381.4" y="-18.634" transform="scale(1, -1)"
	style="font-family:Times;font-weight:normal;font-style:normal;font-size:10px">200</text>
<text x="705" y="-18.634" transform="scale(1, -1)"
	style="font-family:Times;font-weight:normal;font-style:normal;font-size:10px">400</text>
<path d="M65.305,28.263L65.305,36.263" style="fill:none;stroke:#000000;stroke-width:0.5" />
<path d="M388.9,28.263L388.9,36.263" style="fill:none;stroke:#000000;stroke-width:0.5" />
<path d="M712.5,28.263L712.5,36.263" style="fill:none;stroke:#000000;stroke-width:0.5" />
<path d="M227.1,32.263L227.1,36.263" style="fill:none;stroke:#000000;stroke-width:0.5" />
<path d="M550.7,32.263L550.7,36.263" style="fill:none;stroke:#000000;stroke-width:0.5" />
<path d="M65.305,36.263L718.97,36.263" style="fill:none;stroke:#000000;stroke-width:0.5" />
<g transform="rotate(90)">
<text x="152.55" y="11.555" transform="scale(1, -1)"
	style="font-family:Times;font-weight:normal;font-style:normal;font-size:12px">Number of trials (1000000 total)</text>
</g>
<text x="24.055" y="-90.28" transform="scale(1, -1)"
	style="font-family:Times;font-weight:normal;font-style:normal;font-size:10px">40000</text>
<text x="19.055" y="-235.29" transform="scale(1, -1)"
	style="font-family:Times;font-weight:normal;font-style:normal;font-size:10px">160000</text>
<text x="19.055" y="-380.29" transform="scale(1, -1)"
	style="font-family:Times;font-weight:normal;font-style:normal;font-size:10px">280000</text>
<path d="M51.555,93.485L59.555,93.485" style="fill:none;stroke:#000000;stroke-width:0.5" />
<path d="M51.555,238.49L59.555,238.49" style="fill:none;stroke:#000000;stroke-width:0.5" />
<path d="M51.555,383.5L59.555,383.5" style="fill:none;stroke:#000000;stroke-width:0.5" />
<path d="M55.555,165.99L59.555,165.99" style="fill:none;stroke:#000000;stroke-width:0.5" />
<path d="M55.555,310.99L59.555,310.99" style="fill:none;stroke:#000000;stroke-width:0.5" />
<path d="M59.555,45.151L59.555,416.58" style="fill:none;stroke:#000000;stroke-width:0.5" />
<path d="M65.305,416.58L104.14,56.368L107.37,49.065L108.99,48.61L110.61,53.035L112.23,56.421L113.84,48.629L115.46,51.926L117.08,52.149L118.7,66.467L120.32,59.965L121.93,63.664L123.55,52.195L125.17,66.418L126.79,59.363L128.41,59.387L130.02,95.561L131.64,73.368L134.88,60.237L136.5,73.287L139.73,55.499L144.59,55.85L146.2,48.642L147.82,52.583L149.44,45.391L151.06,67.228L152.68,52.08L154.29,48.922L155.91,56.911L157.53,56.216L159.15,53.151L160.77,46.187L162.38,46.059L164,53.697L165.62,54.041L167.24,50.189L168.86,47.954L170.47,47.596L172.09,47.596L173.71,48.319L175.33,49.493L176.95,49.203L178.56,49.433L180.18,49.018L181.8,50.147L183.42,61.899L185.04,50.646L186.65,51.114L188.27,49.801L189.89,55.624L191.51,51.622L193.13,50.919L194.74,72.884L196.36,70.706L197.98,49.395L199.6,50.131L201.22,52.492L202.83,49.487L204.45,50.02L206.07,49.697L207.69,48.706L209.31,49.259L210.92,50.49L212.54,49.079L214.16,48.749L215.78,50.786L217.4,50.112L219.01,49.201L220.63,49.516L222.25,50.815L223.87,48.507L225.49,48.17L227.1,48.082L228.72,48.497L230.34,49.14L231.96,47.696L233.58,47.993L235.19,48.048L236.81,48.586L238.43,48.232L240.05,48.056L241.67,48.459L243.28,48.911L244.9,48.224L246.52,48.379L248.14,50.108L249.76,50.045L251.37,49.245L252.99,48.888L254.61,50.026L256.23,49.137L257.85,48.971L259.46,50.648L261.08,51.273L262.7,48.314L264.32,47.8L265.94,49.242L267.55,48.065L269.17,47.937L270.79,47.418L272.41,46.785L274.03,47.382L275.64,47.885L277.26,47.587L278.88,46.897L280.5,47.951L282.12,48.396L283.73,47.365L285.35,47.476L286.97,47.734L288.59,47.5L290.21,46.895L291.82,46.412L293.44,46.81L295.06,47.278L296.68,46.955L298.29,46.472L299.91,46.373L301.53,46.419L303.15,46.479L304.77,46.51L306.38,46.481L308,46.693L309.62,46.559L311.24,46.45L312.86,47.218L314.47,47.137L316.09,46.605L317.71,46.534L319.33,46.788L320.95,46.715L322.56,46.489L324.18,46.394L325.8,47.365L327.42,46.331L329.04,46.261L330.65,46.337L332.27,46.204L333.89,46.162L335.51,46.253L337.13,46.095L338.74,46.07L340.36,46.21L341.98,46.12L343.6,45.983L345.22,46.14L346.83,46.111L348.45,46.101L350.07,45.96L351.69,46.035L353.31,46.015L354.92,45.841L356.54,45.845L358.16,45.741L359.78,45.845L361.4,45.793L363.01,45.675L364.63,45.67L366.25,45.724L367.87,45.728L369.49,45.673L371.1,45.693L372.72,45.701L374.34,45.722L375.96,45.692L377.58,45.706L379.19,45.806L380.81,45.676L382.43,45.618L384.05,45.627L385.67,45.663L387.28,45.615L388.9,45.539L390.52,45.643L392.14,45.568L393.76,45.48L395.37,45.498L396.99,45.53L398.61,45.474L400.23,45.507L401.85,45.486L403.46,45.473L405.08,45.524L406.7,45.455L408.32,45.461L409.94,45.408L411.55,45.499L413.17,45.441L414.79,45.405L416.41,45.408L418.03,45.409L419.64,45.365L421.26,45.379L422.88,45.34L424.5,45.381L426.12,45.356L427.73,45.331L429.35,45.301L430.97,45.312L432.59,45.345L434.21,45.311L435.82,45.304L437.44,45.312L439.06,45.322L440.68,45.29L442.3,45.319L443.91,45.319L445.53,45.317L447.15,45.287L448.77,45.285L450.39,45.272L452,45.269L453.62,45.254L455.24,45.261L456.86,45.246L458.48,45.264L460.09,45.265L461.71,45.264L463.33,45.247L464.95,45.276L466.57,45.258L468.18,45.242L469.8,45.248L471.42,45.241L473.04,45.23L474.66,45.218L476.27,45.226L477.89,45.24L479.51,45.22L481.13,45.212L482.75,45.223L484.36,45.212L485.98,45.219L487.6,45.225L489.22,45.202L490.84,45.224L492.45,45.206L494.07,45.209L495.69,45.192L497.31,45.202L498.93,45.188L500.54,45.195L502.16,45.183L503.78,45.179L505.4,45.195L507.02,45.184L508.63,45.194L510.25,45.186L511.87,45.176L513.49,45.179L515.11,45.186L516.72,45.182L518.34,45.182L519.96,45.176L521.58,45.176L523.2,45.174L524.81,45.178L526.43,45.168L528.05,45.176L529.67,45.18L531.29,45.178L532.9,45.171L534.52,45.171L536.14,45.176L537.76,45.171L539.38,45.166L540.99,45.177L542.61,45.166L544.23,45.166L545.85,45.165L547.47,45.162L549.08,45.163L550.7,45.161L552.32,45.16L553.94,45.154L555.56,45.161L557.17,45.165L558.79,45.16L560.41,45.155L562.03,45.16L563.65,45.16L565.26,45.163L566.88,45.16L568.5,45.155L570.12,45.157L571.74,45.156L573.35,45.155L574.97,45.159L576.59,45.161L578.21,45.153L579.82,45.157L581.44,45.157L583.06,45.154L584.68,45.155L586.3,45.161L587.91,45.154L589.53,45.151L591.15,45.156L592.77,45.159L594.39,45.155L596,45.156L597.62,45.157L599.24,45.155L600.86,45.161L602.48,45.155L604.09,45.155L605.71,45.151L607.33,45.153L608.95,45.154L610.57,45.156L612.18,45.153L613.8,45.151L615.42,45.153L617.04,45.154L618.66,45.154L623.51,45.153L625.13,45.155L626.75,45.153L631.6,45.153L633.22,45.151L634.84,45.154L638.07,45.153L639.69,45.153L641.31,45.151L642.93,45.153L644.54,45.151L647.78,45.154L649.4,45.154L652.63,45.151L655.87,45.151L660.72,45.153L663.96,45.151L665.58,45.151L676.9,45.151L678.52,45.153L680.14,45.151L684.99,45.153L686.61,45.151L696.32,45.153L697.94,45.151L718.97,45.151" style="fill:none;stroke:#0000FF" />
</g>
</svg>
