<?xml version="1.0"?>
<!-- Generated by SVGo and Plotinum VG -->
<svg width="720pt" height="432pt" viewBox="0 0 720 432"
	xmlns="http://www.w3.org/2000/svg"
	xmlns:xlink="http://www.w3.org/1999/xlink">
<g transform="scale(1, -1) translate(0, -432)">
<path d="M0,0L720,0L720,432L0,432Z" style="fill:#FFFFFF" />
<text x="358.5" y="-420.45" transform="scale(1, -1)"
	style="font-family:Times;font-weight:normal;font-style:normal;font-size:12px"> </text>
<text x="379.31" y="-3.8613" transform="scale(1, -1)"
	style="font-family:Times;font-weight:normal;font-style:normal;font-size:12px">Costs</text>
<text x="56.555" y="-18.634" transform="scale(1, -1)"
	style="font-family:Times;font-weight:normal;font-style:normal;font-size:10px">0.00</text>
<text x="351.32" y="-18.634" transform="scale(1, -1)"
	style="font-family:Times;font-weight:normal;font-style:normal;font-size:10px">250.00</text>
<text x="651.09" y="-18.634" transform="scale(1, -1)"
	style="font-family:Times;font-weight:normal;font-style:normal;font-size:10px">500.00</text>
<path d="M65.305,28.263L65.305,36.263" style="fill:none;stroke:#000000;stroke-width:0.5" />
<path d="M365.07,28.263L365.07,36.263" style="fill:none;stroke:#000000;stroke-width:0.5" />
<path d="M664.84,28.263L664.84,36.263" style="fill:none;stroke:#000000;stroke-width:0.5" />
<path d="M125.26,32.263L125.26,36.263" style="fill:none;stroke:#000000;stroke-width:0.5" />
<path d="M185.21,32.263L185.21,36.263" style="fill:none;stroke:#000000;stroke-width:0.5" />
<path d="M245.17,32.263L245.17,36.263" style="fill:none;stroke:#000000;stroke-width:0.5" />
<path d="M305.12,32.263L305.12,36.263" style="fill:none;stroke:#000000;stroke-width:0.5" />
<path d="M425.03,32.263L425.03,36.263" style="fill:none;stroke:#000000;stroke-width:0.5" />
<path d="M484.98,32.263L484.98,36.263" style="fill:none;stroke:#000000;stroke-width:0.5" />
<path d="M544.93,32.263L544.93,36.263" style="fill:none;stroke:#000000;stroke-width:0.5" />
<path d="M604.89,32.263L604.89,36.263" style="fill:none;stroke:#000000;stroke-width:0.5" />
<path d="M65.305,36.263L720,36.263" style="fill:none;stroke:#000000;stroke-width:0.5" />
<g transform="rotate(90)">
<text x="152.55" y="11.555" transform="scale(1, -1)"
	style="font-family:Times;font-weight:normal;font-style:normal;font-size:12px">Number of trials (1000000 total)</text>
</g>
<text x="24.055" y="-107.42" transform="scale(1, -1)"
	style="font-family:Times;font-weight:normal;font-style:normal;font-size:10px">20000</text>
<text x="24.055" y="-238.37" transform="scale(1, -1)"
	style="font-family:Times;font-weight:normal;font-style:normal;font-size:10px">60000</text>
<text x="19.055" y="-369.32" transform="scale(1, -1)"
	style="font-family:Times;font-weight:normal;font-style:normal;font-size:10px">100000</text>
<path d="M51.555,110.62L59.555,110.62" style="fill:none;stroke:#000000;stroke-width:0.5" />
<path d="M51.555,241.57L59.555,241.57" style="fill:none;stroke:#000000;stroke-width:0.5" />
<path d="M51.555,372.53L59.555,372.53" style="fill:none;stroke:#000000;stroke-width:0.5" />
<path d="M55.555,77.886L59.555,77.886" style="fill:none;stroke:#000000;stroke-width:0.5" />
<path d="M55.555,143.36L59.555,143.36" style="fill:none;stroke:#000000;stroke-width:0.5" />
<path d="M55.555,176.1L59.555,176.1" style="fill:none;stroke:#000000;stroke-width:0.5" />
<path d="M55.555,208.84L59.555,208.84" style="fill:none;stroke:#000000;stroke-width:0.5" />
<path d="M55.555,274.31L59.555,274.31" style="fill:none;stroke:#000000;stroke-width:0.5" />
<path d="M55.555,307.05L59.555,307.05" style="fill:none;stroke:#000000;stroke-width:0.5" />
<path d="M55.555,339.79L59.555,339.79" style="fill:none;stroke:#000000;stroke-width:0.5" />
<path d="M55.555,405.26L59.555,405.26" style="fill:none;stroke:#000000;stroke-width:0.5" />
<path d="M59.555,45.151L59.555,416.58" style="fill:none;stroke:#000000;stroke-width:0.5" />
<path d="M65.305,416.58L92.883,52.161L94.083,58.819L96.481,58.895L97.68,62.46L98.879,62.715L100.08,62.794L101.28,59.481L102.48,55.65L103.68,61.563L104.87,55.703L106.07,92.166L107.27,66.068L108.47,65.455L109.67,65.845L110.87,66.326L112.07,74.069L113.27,65.77L114.47,66.107L115.67,55.467L116.86,105.78L118.06,76.835L119.26,55.713L120.46,73.957L121.66,45.351L122.86,48.68L124.06,62.666L125.26,70.962L126.46,52.979L127.66,46.212L128.86,81.222L130.05,57.477L131.25,54.171L132.45,80.105L133.65,48.405L134.85,52.848L136.05,84.047L137.25,49.83L138.45,61.795L139.65,58.499L140.85,66.038L142.05,52.413L143.24,52.822L144.44,54.007L145.64,77.827L146.84,55.038L148.04,56.515L149.24,57.683L150.44,57.268L151.64,58.328L152.84,88.771L154.04,68.392L155.24,58.885L156.43,58.184L157.63,92.032L158.83,60.705L160.03,60.116L161.23,88.149L162.43,80.904L163.63,61.749L164.83,62.738L166.03,60.908L167.23,61.059L168.43,60.198L169.62,64.211L170.82,60.361L172.02,61.939L173.22,61.943L174.42,58.499L175.62,58.95L176.82,63.579L178.02,60.116L179.22,59.464L180.42,63.255L181.62,61.825L182.81,57.569L184.01,64.48L185.21,59.441L186.41,59.883L187.61,64.535L188.81,61.154L190.01,60.237L191.21,61.838L192.41,61.929L193.61,62.303L194.8,60.987L196,63.422L197.2,61.406L198.4,62.574L199.6,63.314L200.8,60.96L202,61.71L203.2,63.452L204.4,65.164L205.6,64.614L206.8,60.78L207.99,60.319L209.19,64.424L210.39,59.802L211.59,59.268L212.79,65.704L213.99,60.692L215.19,57.055L216.39,63.583L217.59,59.049L218.79,56.292L219.99,58.433L221.18,61.668L222.38,57.533L223.58,58.436L224.78,61.203L225.98,58.548L227.18,56.855L228.38,61.864L229.58,57.376L230.78,56.069L231.98,58.161L233.18,60.289L234.37,56.741L235.57,56.669L236.77,56.835L237.97,58.587L239.17,55.84L240.37,55.932L241.57,58.345L242.77,56.551L243.97,55.722L245.17,58.77L246.37,56.505L247.56,56.308L248.76,57.906L249.96,58.03L251.16,56.253L252.36,55.857L253.56,57.795L254.76,57.464L255.96,55.565L257.16,55.732L258.36,56.682L259.55,55.136L260.75,55.077L261.95,55.14L263.15,54.77L264.35,55.127L265.55,54.838L266.75,54.324L267.95,54.848L269.15,54.4L270.35,53.634L271.55,54.063L272.74,54.292L273.94,53.725L275.14,53.608L276.34,54.302L277.54,53.378L278.74,52.897L279.94,53.647L281.14,53.09L282.34,52.756L283.54,53.437L284.74,53.113L285.93,52.766L287.13,52.622L288.33,52.976L289.53,52.095L290.73,52.125L291.93,52.501L293.13,52.508L294.33,52.02L295.53,52.138L296.73,52.105L297.93,51.882L299.12,51.784L300.32,51.656L301.52,51.738L302.72,51.054L303.92,50.995L305.12,51.476L306.32,51.198L307.52,50.799L308.72,51.257L309.92,50.966L311.12,50.249L312.31,50.795L313.51,50.612L314.71,50.278L315.91,50.36L317.11,50.511L318.31,50.258L319.51,49.866L320.71,49.944L321.91,50.088L323.11,49.545L324.31,49.849L325.5,50.042L326.7,49.296L327.9,49.473L329.1,49.604L330.3,49.312L331.5,49.247L332.7,48.959L333.9,49.273L335.1,49.008L336.3,48.851L337.49,49.064L338.69,49.067L339.89,48.726L341.09,48.913L342.29,48.962L343.49,48.759L344.69,48.559L345.89,48.631L347.09,48.517L348.29,48.422L349.49,48.543L350.68,48.484L351.88,48.265L353.08,48.216L354.28,47.816L355.48,47.924L356.68,48.042L357.88,47.842L359.08,47.983L360.28,47.918L361.48,47.702L362.68,47.692L363.87,47.531L365.07,47.669L366.27,47.692L367.47,47.574L368.67,47.489L369.87,47.387L371.07,47.446L372.27,47.515L373.47,47.384L374.67,47.171L375.87,47.335L377.06,46.922L378.26,47.188L379.46,47.122L380.66,47.25L381.86,46.916L383.06,46.949L384.26,46.968L385.46,46.86L386.66,46.916L387.86,46.972L389.06,47.014L390.25,46.566L391.45,46.683L392.65,46.67L393.85,46.549L395.05,46.605L396.25,46.517L397.45,46.461L398.65,46.477L399.85,46.517L401.05,46.353L402.24,46.53L403.44,46.477L404.64,46.464L405.84,46.471L407.04,46.232L408.24,46.386L409.44,46.235L410.64,46.323L411.84,46.209L413.04,46.274L414.24,46.176L415.43,46.235L416.63,46.255L417.83,46.091L419.03,46.016L420.23,46.097L421.43,46.081L422.63,46.039L423.83,46.084L425.03,46.022L426.23,46.012L427.43,45.852L428.62,45.865L429.82,45.901L431.02,45.931L432.22,45.917L433.42,45.904L434.62,45.767L435.82,45.839L437.02,45.832L438.22,45.845L439.42,45.806L440.62,45.734L441.81,45.76L443.01,45.669L444.21,45.767L445.41,45.809L446.61,45.685L447.81,45.633L449.01,45.649L450.21,45.701L451.41,45.678L452.61,45.629L453.81,45.551L455,45.587L456.2,45.629L457.4,45.567L458.6,45.531L459.8,45.593L461,45.564L462.2,45.515L463.4,45.502L464.6,45.544L465.8,45.469L467,45.508L468.19,45.482L469.39,45.521L470.59,45.534L471.79,45.489L472.99,45.508L474.19,45.439L475.39,45.462L476.59,45.462L477.79,45.407L478.99,45.446L480.18,45.439L481.38,45.397L482.58,45.358L483.78,45.39L484.98,45.433L486.18,45.417L487.38,45.384L488.58,45.374L489.78,45.4L490.98,45.354L492.18,45.305L493.37,45.364L494.57,45.364L495.77,45.354L496.97,45.371L498.17,45.371L499.37,45.312L500.57,45.345L501.77,45.358L502.97,45.338L504.17,45.318L505.37,45.266L506.56,45.318L507.76,45.302L508.96,45.315L510.16,45.292L511.36,45.302L512.56,45.302L513.76,45.269L514.96,45.276L516.16,45.233L517.36,45.259L518.56,45.292L519.75,45.25L520.95,45.269L522.15,45.246L523.35,45.227L524.55,45.259L525.75,45.259L526.95,45.259L528.15,45.253L529.35,45.22L530.55,45.243L531.75,45.214L532.94,45.263L534.14,45.21L535.34,45.236L536.54,45.207L537.74,45.217L538.94,45.223L540.14,45.214L541.34,45.236L542.54,45.236L543.74,45.174L544.93,45.21L546.13,45.197L547.33,45.191L548.53,45.204L549.73,45.191L550.93,45.204L552.13,45.187L553.33,45.191L554.53,45.194L555.73,45.187L556.93,45.204L558.12,45.181L559.32,45.204L560.52,45.197L561.72,45.181L562.92,45.194L564.12,45.171L565.32,45.171L566.52,45.197L567.72,45.204L568.92,45.171L570.12,45.171L571.31,45.187L572.51,45.168L573.71,45.174L574.91,45.184L576.11,45.2L577.31,45.164L578.51,45.181L579.71,45.184L580.91,45.174L582.11,45.174L583.31,45.168L584.5,45.155L585.7,45.181L586.9,45.158L588.1,45.174L589.3,45.168L590.5,45.178L591.7,45.164L592.9,45.158L594.1,45.161L595.3,45.161L596.5,45.164L597.69,45.168L598.89,45.187L600.09,45.155L601.29,45.164L602.49,45.161L603.69,45.161L604.89,45.151L606.09,45.174L607.29,45.151L608.49,45.168L609.69,45.158L610.88,45.151L612.08,45.151L613.28,45.161L614.48,45.161L615.68,45.164L616.88,45.164L618.08,45.164L619.28,45.158L620.48,45.155L621.68,45.164L624.07,45.164L625.27,45.151L626.47,45.151L627.67,45.155L628.87,45.155L630.07,45.151L631.27,45.155L632.47,45.155L633.67,45.155L634.87,45.155L637.26,45.151L639.66,45.151L640.86,45.151L643.26,45.158L644.46,45.151L645.66,45.155L648.06,45.151L652.85,45.151L655.25,45.151L656.45,45.151L658.85,45.151L660.05,45.158L661.25,45.151L663.64,45.151L666.04,45.155L667.24,45.155L668.44,45.158L669.64,45.151L670.84,45.155L673.24,45.155L674.44,45.151L675.63,45.155L676.83,45.151L680.43,45.151L681.63,45.151L684.03,45.151L685.23,45.151L691.22,45.151L692.42,45.151L700.81,45.151L714,45.151L720,45.151" style="fill:none;stroke:#0000FF" />
</g>
</svg>
