<?xml version="1.0"?>
<!-- Generated by SVGo and Plotinum VG -->
<svg width="720pt" height="432pt" viewBox="0 0 720 432"
	xmlns="http://www.w3.org/2000/svg"
	xmlns:xlink="http://www.w3.org/1999/xlink">
<g transform="scale(1, -1) translate(0, -432)">
<path d="M0,0L720,0L720,432L0,432Z" style="fill:#FFFFFF" />
<text x="358.5" y="-420.45" transform="scale(1, -1)"
	style="font-family:Times;font-weight:normal;font-style:normal;font-size:12px"> </text>
<text x="379.31" y="-3.8613" transform="scale(1, -1)"
	style="font-family:Times;font-weight:normal;font-style:normal;font-size:12px">Costs</text>
<text x="56.555" y="-18.634" transform="scale(1, -1)"
	style="font-family:Times;font-weight:normal;font-style:normal;font-size:10px">0.00</text>
<text x="341.76" y="-18.634" transform="scale(1, -1)"
	style="font-family:Times;font-weight:normal;font-style:normal;font-size:10px">250.00</text>
<text x="631.96" y="-18.634" transform="scale(1, -1)"
	style="font-family:Times;font-weight:normal;font-style:normal;font-size:10px">500.00</text>
<path d="M65.305,28.263L65.305,36.263" style="fill:none;stroke:#000000;stroke-width:0.5" />
<path d="M355.51,28.263L355.51,36.263" style="fill:none;stroke:#000000;stroke-width:0.5" />
<path d="M645.71,28.263L645.71,36.263" style="fill:none;stroke:#000000;stroke-width:0.5" />
<path d="M123.35,32.263L123.35,36.263" style="fill:none;stroke:#000000;stroke-width:0.5" />
<path d="M181.39,32.263L181.39,36.263" style="fill:none;stroke:#000000;stroke-width:0.5" />
<path d="M239.43,32.263L239.43,36.263" style="fill:none;stroke:#000000;stroke-width:0.5" />
<path d="M297.47,32.263L297.47,36.263" style="fill:none;stroke:#000000;stroke-width:0.5" />
<path d="M413.55,32.263L413.55,36.263" style="fill:none;stroke:#000000;stroke-width:0.5" />
<path d="M471.59,32.263L471.59,36.263" style="fill:none;stroke:#000000;stroke-width:0.5" />
<path d="M529.63,32.263L529.63,36.263" style="fill:none;stroke:#000000;stroke-width:0.5" />
<path d="M587.67,32.263L587.67,36.263" style="fill:none;stroke:#000000;stroke-width:0.5" />
<path d="M703.75,32.263L703.75,36.263" style="fill:none;stroke:#000000;stroke-width:0.5" />
<path d="M65.305,36.263L720,36.263" style="fill:none;stroke:#000000;stroke-width:0.5" />
<g transform="rotate(90)">
<text x="152.55" y="11.555" transform="scale(1, -1)"
	style="font-family:Times;font-weight:normal;font-style:normal;font-size:12px">Number of trials (1000000 total)</text>
</g>
<text x="24.055" y="-107.61" transform="scale(1, -1)"
	style="font-family:Times;font-weight:normal;font-style:normal;font-size:10px">30000</text>
<text x="24.055" y="-238.95" transform="scale(1, -1)"
	style="font-family:Times;font-weight:normal;font-style:normal;font-size:10px">90000</text>
<text x="19.055" y="-370.28" transform="scale(1, -1)"
	style="font-family:Times;font-weight:normal;font-style:normal;font-size:10px">150000</text>
<path d="M51.555,110.82L59.555,110.82" style="fill:none;stroke:#000000;stroke-width:0.5" />
<path d="M51.555,242.15L59.555,242.15" style="fill:none;stroke:#000000;stroke-width:0.5" />
<path d="M51.555,373.49L59.555,373.49" style="fill:none;stroke:#000000;stroke-width:0.5" />
<path d="M55.555,176.48L59.555,176.48" style="fill:none;stroke:#000000;stroke-width:0.5" />
<path d="M55.555,307.82L59.555,307.82" style="fill:none;stroke:#000000;stroke-width:0.5" />
<path d="M59.555,45.151L59.555,416.58" style="fill:none;stroke:#000000;stroke-width:0.5" />
<path d="M65.305,416.58L90.842,48.474L92.003,55.498L93.164,52.473L95.486,55.776L96.646,63.689L97.807,48.743L98.968,56.405L100.13,51.891L101.29,70.998L102.45,59.18L103.61,104.93L104.77,73.747L107.09,59.384L108.25,48.686L110.58,52.616L111.74,56.293L112.9,80.329L114.06,82.352L115.22,66.758L116.38,48.816L117.54,55.595L118.7,56.087L119.86,45.381L121.02,45.256L122.18,52.307L123.35,71.902L124.51,67.511L125.67,45.655L126.83,93.894L127.99,77.269L129.15,47.141L130.31,59.112L131.47,54.98L132.63,54.54L133.79,61.859L134.95,67.491L136.11,83.95L137.27,51.801L138.44,53.395L139.6,51.48L140.76,52.187L141.92,51.219L143.08,74.638L144.24,49.759L145.4,51.23L146.56,50.372L147.72,48.908L148.88,51.898L150.04,64.508L151.2,59.618L152.37,56.527L153.53,55.647L154.69,56.505L155.85,51.515L157.01,51.731L158.17,85.438L159.33,73.778L160.49,54.187L161.65,58.322L162.81,59.41L163.97,55.877L165.13,58.331L166.29,60.579L167.46,53.32L168.62,52.581L169.78,54.824L170.94,54.726L172.1,57.674L173.26,58.548L174.42,61.739L175.58,58.836L176.74,56.54L177.9,53.314L179.06,52.092L180.22,53.439L181.39,56.148L182.55,54.835L183.71,55.102L184.87,58.309L186.03,57.63L187.19,52.167L188.35,55.444L189.51,58.221L190.67,53.887L191.83,54.66L192.99,55.868L194.15,55.991L195.32,56.208L196.48,58.946L197.64,62.131L198.8,55.474L199.96,53.012L201.12,54.266L202.28,52.572L203.44,52.145L204.6,54.931L205.76,56.054L206.92,55.695L208.08,55.466L209.24,52.637L210.41,51.543L211.57,54.31L212.73,53.723L213.89,52.826L215.05,51.197L216.21,53.594L217.37,53.355L218.53,51.193L219.69,54.945L220.85,57.125L222.01,52.955L223.17,52.173L224.34,52.618L225.5,51.76L226.66,51.683L227.82,53.62L228.98,54.824L230.14,52.502L231.3,51.164L232.46,51.348L233.62,51.199L234.78,50.95L235.94,53.301L237.1,52.287L238.26,50.368L239.43,50.333L240.59,49.858L241.75,50.389L242.91,51.633L244.07,51.768L245.23,50.998L246.39,50.963L247.55,50.722L248.71,49.934L249.87,49.774L251.03,49.984L252.19,51.974L253.36,49.763L254.52,50.313L255.68,50.44L256.84,49.993L258,50.081L259.16,50.234L260.32,49.995L261.48,49.323L262.64,49.365L263.8,49.461L264.96,49.499L266.12,49.704L267.29,49.936L268.45,49.89L269.61,49.606L270.77,48.914L271.93,48.595L273.09,48.695L274.25,48.975L275.41,49.017L276.57,48.66L277.73,48.73L278.89,48.894L280.05,48.408L281.21,48.457L282.38,48.767L283.54,48.546L284.7,48.236L285.86,48.402L287.02,48.218L288.18,48.367L289.34,48.133L290.5,48.599L291.66,48.363L292.82,47.907L293.98,47.846L295.14,47.71L296.31,47.651L297.47,47.66L298.63,47.767L299.79,47.55L300.95,47.415L302.11,47.548L303.27,47.218L304.43,47.458L305.59,47.478L306.75,47.651L307.91,47.126L309.07,47.056L310.24,47.231L311.4,46.992L312.56,46.957L313.72,47.229L314.88,47.172L316.04,46.94L317.2,47.049L318.36,46.852L319.52,46.743L320.68,46.802L321.84,46.786L323,46.867L324.16,46.675L325.33,46.572L326.49,46.605L327.65,46.688L328.81,46.544L329.97,46.644L331.13,46.419L332.29,46.484L333.45,46.395L334.61,46.397L335.77,46.436L336.93,46.473L338.09,46.445L339.26,46.362L340.42,46.303L341.58,46.191L342.74,46.209L343.9,46.231L345.06,46.226L346.22,46.178L347.38,46.079L348.54,46.088L349.7,46.139L350.86,46.06L352.02,46.125L353.18,46.097L354.35,45.988L355.51,45.974L356.67,46.016L357.83,46.023L358.99,45.904L360.15,45.966L361.31,45.931L362.47,45.826L363.63,45.885L364.79,45.786L365.95,45.705L367.11,45.817L368.28,45.786L369.44,45.78L370.6,45.773L371.76,45.745L372.92,45.738L374.08,45.696L375.24,45.727L376.4,45.723L377.56,45.648L378.72,45.589L379.88,45.637L381.04,45.602L382.21,45.639L383.37,45.624L384.53,45.62L385.69,45.591L386.85,45.578L388.01,45.55L389.17,45.537L390.33,45.548L391.49,45.567L392.65,45.497L393.81,45.46L394.97,45.523L396.13,45.502L397.3,45.475L398.46,45.438L399.62,45.493L400.78,45.458L401.94,45.436L403.1,45.407L404.26,45.405L405.42,45.399L406.58,45.412L407.74,45.427L408.9,45.399L410.06,45.438L411.23,45.368L412.39,45.364L413.55,45.394L414.71,45.359L415.87,45.353L417.03,45.377L418.19,45.366L419.35,45.335L420.51,45.337L421.67,45.329L422.83,45.344L423.99,45.318L425.15,45.318L426.32,45.289L427.48,45.302L428.64,45.307L429.8,45.289L430.96,45.281L432.12,45.278L433.28,45.289L434.44,45.298L435.6,45.265L436.76,45.272L437.92,45.263L439.08,45.287L440.25,45.263L441.41,45.263L442.57,45.25L443.73,45.261L444.89,45.235L446.05,45.254L447.21,45.224L448.37,45.243L449.53,45.224L450.69,45.215L451.85,45.232L453.01,45.239L454.18,45.219L455.34,45.228L456.5,45.228L457.66,45.219L458.82,45.228L459.98,45.213L461.14,45.204L462.3,45.228L463.46,45.204L464.62,45.213L465.78,45.21L466.94,45.217L468.1,45.226L469.27,45.197L470.43,45.215L471.59,45.195L472.75,45.197L473.91,45.213L475.07,45.18L476.23,45.191L477.39,45.21L478.55,45.195L479.71,45.191L480.87,45.21L482.03,45.191L483.2,45.186L484.36,45.193L485.52,45.169L486.68,45.18L487.84,45.186L489,45.189L490.16,45.175L491.32,45.195L492.48,45.18L493.64,45.197L494.8,45.184L495.96,45.173L497.12,45.178L498.29,45.18L499.45,45.173L500.61,45.169L501.77,45.169L502.93,45.165L504.09,45.173L505.25,45.178L506.41,45.165L507.57,45.173L508.73,45.171L509.89,45.158L511.05,45.167L512.22,45.158L513.38,45.169L514.54,45.158L515.7,45.16L516.86,45.158L518.02,45.158L519.18,45.165L520.34,45.16L521.5,45.167L522.66,45.167L523.82,45.165L524.98,45.165L526.15,45.16L527.31,45.162L528.47,45.156L529.63,45.156L530.79,45.165L531.95,45.162L533.11,45.158L534.27,45.16L535.43,45.16L536.59,45.156L537.75,45.154L538.91,45.154L540.07,45.154L541.24,45.156L542.4,45.151L543.56,45.156L544.72,45.162L545.88,45.158L547.04,45.16L548.2,45.158L549.36,45.156L550.52,45.156L552.84,45.156L554,45.156L555.17,45.151L556.33,45.154L557.49,45.154L558.65,45.156L559.81,45.158L562.13,45.154L563.29,45.151L565.61,45.154L567.93,45.151L569.1,45.156L570.26,45.151L571.42,45.154L572.58,45.154L573.74,45.151L574.9,45.151L578.38,45.156L580.7,45.154L583.02,45.151L584.19,45.151L585.35,45.151L586.51,45.151L587.67,45.154L589.99,45.151L592.31,45.151L593.47,45.151L594.63,45.154L596.95,45.151L598.12,45.151L600.44,45.151L601.6,45.154L603.92,45.151L607.4,45.154L608.56,45.151L613.21,45.151L616.69,45.151L622.49,45.154L634.1,45.151L635.26,45.151L644.55,45.151L646.87,45.151L648.03,45.151L708.39,45.151L720,45.151" style="fill:none;stroke:#0000FF" />
</g>
</svg>
