<?xml version="1.0"?>
<!-- Generated by SVGo and Plotinum VG -->
<svg width="720pt" height="432pt" viewBox="0 0 720 432"
	xmlns="http://www.w3.org/2000/svg"
	xmlns:xlink="http://www.w3.org/1999/xlink">
<g transform="scale(1, -1) translate(0, -432)">
<path d="M0,0L720,0L720,432L0,432Z" style="fill:#FFFFFF" />
<text x="358.5" y="-420.45" transform="scale(1, -1)"
	style="font-family:Times;font-weight:normal;font-style:normal;font-size:12px"> </text>
<text x="385.56" y="-3.8613" transform="scale(1, -1)"
	style="font-family:Times;font-weight:normal;font-style:normal;font-size:12px">Costs</text>
<text x="75.305" y="-18.634" transform="scale(1, -1)"
	style="font-family:Times;font-weight:normal;font-style:normal;font-size:10px">0</text>
<text x="344.75" y="-18.634" transform="scale(1, -1)"
	style="font-family:Times;font-weight:normal;font-style:normal;font-size:10px">200</text>
<text x="619.19" y="-18.634" transform="scale(1, -1)"
	style="font-family:Times;font-weight:normal;font-style:normal;font-size:10px">400</text>
<path d="M77.805,28.263L77.805,36.263" style="fill:none;stroke:#000000;stroke-width:0.5" />
<path d="M352.25,28.263L352.25,36.263" style="fill:none;stroke:#000000;stroke-width:0.5" />
<path d="M626.69,28.263L626.69,36.263" style="fill:none;stroke:#000000;stroke-width:0.5" />
<path d="M215.03,32.263L215.03,36.263" style="fill:none;stroke:#000000;stroke-width:0.5" />
<path d="M489.47,32.263L489.47,36.263" style="fill:none;stroke:#000000;stroke-width:0.5" />
<path d="M77.805,36.263L720,36.263" style="fill:none;stroke:#000000;stroke-width:0.5" />
<g transform="rotate(90)">
<text x="152.55" y="11.555" transform="scale(1, -1)"
	style="font-family:Times;font-weight:normal;font-style:normal;font-size:12px">Number of trials (1000000 total)</text>
</g>
<text x="24.055" y="-93.652" transform="scale(1, -1)"
	style="font-family:Times;font-weight:normal;font-style:normal;font-size:10px">25000.00</text>
<text x="19.055" y="-248.78" transform="scale(1, -1)"
	style="font-family:Times;font-weight:normal;font-style:normal;font-size:10px">100000.00</text>
<text x="19.055" y="-403.9" transform="scale(1, -1)"
	style="font-family:Times;font-weight:normal;font-style:normal;font-size:10px">175000.00</text>
<path d="M64.055,96.857L72.055,96.857" style="fill:none;stroke:#000000;stroke-width:0.5" />
<path d="M64.055,251.98L72.055,251.98" style="fill:none;stroke:#000000;stroke-width:0.5" />
<path d="M64.055,407.1L72.055,407.1" style="fill:none;stroke:#000000;stroke-width:0.5" />
<path d="M68.055,174.42L72.055,174.42" style="fill:none;stroke:#000000;stroke-width:0.5" />
<path d="M68.055,329.54L72.055,329.54" style="fill:none;stroke:#000000;stroke-width:0.5" />
<path d="M72.055,45.151L72.055,416.58" style="fill:none;stroke:#000000;stroke-width:0.5" />
<path d="M77.805,416.58L107.99,52.215L109.37,55.406L113.48,62.521L114.85,70.12L116.23,61.936L117.6,60.192L118.97,59.849L120.34,55.613L121.72,51.933L123.09,66.194L124.46,88.185L125.83,89.068L127.2,67.104L128.58,59.388L129.95,75.132L131.32,63.129L132.69,48.519L134.07,82.875L135.44,98.015L138.18,63.168L139.55,74.05L140.93,63.398L143.67,45.478L145.04,46.13L146.42,46.252L147.79,67.584L149.16,45.817L150.53,86.588L151.9,50.25L153.28,47.637L154.65,48.163L156.02,49.118L157.39,66.294L158.77,62.529L160.14,60.695L161.51,67.7L162.88,52.612L164.25,87.974L165.63,54.196L167,53.969L168.37,51.828L169.74,57.752L171.12,58.353L172.49,58.763L173.86,56L175.23,57.824L176.6,57.979L177.98,60.817L179.35,69.092L180.72,58.2L182.09,60.242L183.47,58.333L184.84,55.66L186.21,59.669L187.58,61.872L188.95,59.601L190.33,53.603L191.7,57.218L193.07,54.945L194.44,54.525L195.81,59.303L197.19,60.498L198.56,57.065L199.93,55.803L201.3,54.448L202.68,54.912L204.05,56.227L205.42,56.167L206.79,57.201L208.16,59.487L209.54,56.244L210.91,58.459L212.28,57.497L213.65,55.896L215.03,55.197L216.4,55.931L217.77,55.468L219.14,54.945L220.51,58.455L221.89,57.342L223.26,53.298L224.63,53.342L226,55.106L227.38,54.994L228.75,52.105L230.12,53.665L231.49,54.095L232.86,52.736L234.24,55.224L235.61,53.224L236.98,56.647L238.35,51.832L239.73,52.653L241.1,52.893L242.47,52.44L243.84,53.358L245.21,53.005L246.59,52.306L247.96,52.481L249.33,52.13L250.7,52.231L252.08,52.74L253.45,51.722L254.82,50.783L256.19,51.532L257.56,51.323L258.94,52.277L260.31,51.644L261.68,51.772L263.05,51.385L264.43,51.296L265.8,52.136L267.17,51.137L268.54,51.596L269.91,51.054L271.29,50.45L272.66,50.709L274.03,50.492L275.4,50.502L276.78,49.84L278.15,50.523L279.52,50.093L280.89,49.718L282.26,49.875L283.64,49.968L285.01,49.352L286.38,49.278L287.75,49.489L289.13,49.542L290.5,49.398L291.87,49.242L293.24,49.224L294.61,49.381L295.99,48.852L297.36,49.17L298.73,48.986L300.1,48.676L301.48,48.614L302.85,48.531L304.22,48.519L305.59,48.355L306.96,48.446L308.34,48.459L309.71,48.237L311.08,48.028L312.45,48.088L313.83,48.217L315.2,47.997L316.57,48.026L317.94,47.946L319.31,47.726L320.69,47.828L322.06,47.722L323.43,47.617L324.8,47.553L326.18,47.53L327.55,47.495L328.92,47.369L330.29,47.298L331.66,47.375L333.04,47.218L334.41,47.193L335.78,47.135L337.15,47.019L338.53,47.089L339.9,46.996L341.27,46.932L342.64,46.843L344.01,46.663L345.39,46.947L346.76,46.893L348.13,46.847L349.5,46.657L350.87,46.568L352.25,46.628L353.62,46.547L354.99,46.55L356.36,46.541L357.74,46.527L359.11,46.386L360.48,46.448L361.85,46.361L363.22,46.37L364.6,46.283L365.97,46.332L367.34,46.287L368.71,46.144L370.09,46.212L371.46,46.14L372.83,46.163L374.2,46.155L375.57,46.095L376.95,46.039L378.32,46.045L379.69,46.061L381.06,45.987L382.44,45.927L383.81,45.937L385.18,45.96L386.55,45.964L387.92,45.784L389.3,45.908L390.67,45.85L392.04,45.803L393.41,45.776L394.79,45.836L396.16,45.741L397.53,45.72L398.9,45.714L400.27,45.759L401.65,45.66L403.02,45.673L404.39,45.664L405.76,45.66L407.14,45.619L408.51,45.592L409.88,45.608L411.25,45.644L412.62,45.553L414,45.569L415.37,45.555L416.74,45.6L418.11,45.505L419.49,45.528L420.86,45.451L422.23,45.532L423.6,45.478L424.97,45.474L426.35,45.435L427.72,45.441L429.09,45.406L430.46,45.416L431.84,45.424L433.21,45.389L434.58,45.397L435.95,45.387L437.32,45.424L438.7,45.369L440.07,45.426L441.44,45.362L442.81,45.335L444.19,45.364L445.56,45.369L446.93,45.366L448.3,45.338L449.67,45.375L451.05,45.331L452.42,45.352L453.79,45.323L455.16,45.309L456.54,45.323L457.91,45.335L459.28,45.35L460.65,45.294L462.02,45.271L463.4,45.259L464.77,45.261L466.14,45.325L467.51,45.3L468.89,45.271L470.26,45.273L471.63,45.275L473,45.253L474.37,45.244L475.75,45.265L477.12,45.244L478.49,45.242L479.86,45.247L481.24,45.249L482.61,45.215L483.98,45.222L485.35,45.234L486.72,45.218L488.1,45.224L489.47,45.207L490.84,45.222L492.21,45.211L493.58,45.215L494.96,45.228L496.33,45.211L497.7,45.205L499.07,45.193L500.45,45.213L501.82,45.211L503.19,45.195L504.56,45.207L505.93,45.191L507.31,45.18L508.68,45.201L510.05,45.182L511.42,45.182L512.8,45.197L514.17,45.18L515.54,45.182L516.91,45.187L518.28,45.176L519.66,45.182L521.03,45.189L522.4,45.176L523.77,45.164L525.15,45.174L526.52,45.182L527.89,45.172L529.26,45.176L530.63,45.18L532.01,45.176L533.38,45.184L534.75,45.166L536.12,45.17L537.5,45.184L538.87,45.18L540.24,45.168L541.61,45.17L542.98,45.162L544.36,45.16L545.73,45.168L547.1,45.17L548.47,45.162L549.85,45.168L551.22,45.164L552.59,45.172L553.96,45.17L555.33,45.158L556.71,45.17L558.08,45.16L559.45,45.153L560.82,45.16L562.2,45.162L563.57,45.153L564.94,45.162L566.31,45.156L567.68,45.156L569.06,45.151L570.43,45.162L571.8,45.158L573.17,45.151L574.55,45.156L575.92,45.153L577.29,45.158L578.66,45.156L580.03,45.162L581.41,45.156L582.78,45.156L584.15,45.153L585.52,45.153L586.9,45.153L588.27,45.151L589.64,45.153L591.01,45.153L592.38,45.151L593.76,45.153L595.13,45.151L596.5,45.156L597.87,45.151L599.25,45.153L601.99,45.156L603.36,45.158L604.73,45.156L606.11,45.151L607.48,45.151L608.85,45.153L614.34,45.151L615.71,45.151L618.46,45.151L622.57,45.151L628.06,45.153L629.43,45.156L633.55,45.151L636.3,45.151L644.53,45.153L658.25,45.151L660.99,45.151L669.23,45.151L673.34,45.151L674.72,45.151L677.46,45.151L685.69,45.151L720,45.151" style="fill:none;stroke:#0000FF" />
</g>
</svg>
