<?xml version="1.0"?>
<!-- Generated by SVGo and Plotinum VG -->
<svg width="720pt" height="432pt" viewBox="0 0 720 432"
	xmlns="http://www.w3.org/2000/svg"
	xmlns:xlink="http://www.w3.org/1999/xlink">
<g transform="scale(1, -1) translate(0, -432)">
<path d="M0,0L720,0L720,432L0,432Z" style="fill:#FFFFFF" />
<text x="358.5" y="-420.45" transform="scale(1, -1)"
	style="font-family:Times;font-weight:normal;font-style:normal;font-size:12px"> </text>
<text x="376.81" y="-3.8613" transform="scale(1, -1)"
	style="font-family:Times;font-weight:normal;font-style:normal;font-size:12px">Costs</text>
<text x="51.555" y="-18.634" transform="scale(1, -1)"
	style="font-family:Times;font-weight:normal;font-style:normal;font-size:10px">0.00</text>
<text x="329.44" y="-18.634" transform="scale(1, -1)"
	style="font-family:Times;font-weight:normal;font-style:normal;font-size:10px">250.00</text>
<text x="612.33" y="-18.634" transform="scale(1, -1)"
	style="font-family:Times;font-weight:normal;font-style:normal;font-size:10px">500.00</text>
<path d="M60.305,28.263L60.305,36.263" style="fill:none;stroke:#000000;stroke-width:0.5" />
<path d="M343.19,28.263L343.19,36.263" style="fill:none;stroke:#000000;stroke-width:0.5" />
<path d="M626.08,28.263L626.08,36.263" style="fill:none;stroke:#000000;stroke-width:0.5" />
<path d="M116.88,32.263L116.88,36.263" style="fill:none;stroke:#000000;stroke-width:0.5" />
<path d="M173.46,32.263L173.46,36.263" style="fill:none;stroke:#000000;stroke-width:0.5" />
<path d="M230.04,32.263L230.04,36.263" style="fill:none;stroke:#000000;stroke-width:0.5" />
<path d="M286.62,32.263L286.62,36.263" style="fill:none;stroke:#000000;stroke-width:0.5" />
<path d="M399.77,32.263L399.77,36.263" style="fill:none;stroke:#000000;stroke-width:0.5" />
<path d="M456.35,32.263L456.35,36.263" style="fill:none;stroke:#000000;stroke-width:0.5" />
<path d="M512.93,32.263L512.93,36.263" style="fill:none;stroke:#000000;stroke-width:0.5" />
<path d="M569.5,32.263L569.5,36.263" style="fill:none;stroke:#000000;stroke-width:0.5" />
<path d="M682.66,32.263L682.66,36.263" style="fill:none;stroke:#000000;stroke-width:0.5" />
<path d="M60.305,36.263L720,36.263" style="fill:none;stroke:#000000;stroke-width:0.5" />
<g transform="rotate(90)">
<text x="152.55" y="11.555" transform="scale(1, -1)"
	style="font-family:Times;font-weight:normal;font-style:normal;font-size:12px">Number of trials (1000000 total)</text>
</g>
<text x="19.055" y="-84.996" transform="scale(1, -1)"
	style="font-family:Times;font-weight:normal;font-style:normal;font-size:10px">10000</text>
<text x="19.055" y="-214.16" transform="scale(1, -1)"
	style="font-family:Times;font-weight:normal;font-style:normal;font-size:10px">40000</text>
<text x="19.055" y="-343.32" transform="scale(1, -1)"
	style="font-family:Times;font-weight:normal;font-style:normal;font-size:10px">70000</text>
<path d="M46.555,88.201L54.555,88.201" style="fill:none;stroke:#000000;stroke-width:0.5" />
<path d="M46.555,217.36L54.555,217.36" style="fill:none;stroke:#000000;stroke-width:0.5" />
<path d="M46.555,346.53L54.555,346.53" style="fill:none;stroke:#000000;stroke-width:0.5" />
<path d="M50.555,131.26L54.555,131.26" style="fill:none;stroke:#000000;stroke-width:0.5" />
<path d="M50.555,174.31L54.555,174.31" style="fill:none;stroke:#000000;stroke-width:0.5" />
<path d="M50.555,260.42L54.555,260.42" style="fill:none;stroke:#000000;stroke-width:0.5" />
<path d="M50.555,303.47L54.555,303.47" style="fill:none;stroke:#000000;stroke-width:0.5" />
<path d="M50.555,389.58L54.555,389.58" style="fill:none;stroke:#000000;stroke-width:0.5" />
<path d="M54.555,45.151L54.555,416.58" style="fill:none;stroke:#000000;stroke-width:0.5" />
<path d="M60.305,416.58L85.199,48.51L87.462,51.618L89.725,96.709L90.857,99.74L91.988,67.217L95.383,104.09L96.514,66.459L98.777,142.36L99.909,77.188L101.04,59.015L102.17,59.785L103.3,48.686L104.44,73.124L105.57,73.106L106.7,85.683L107.83,81.054L108.96,59.299L110.09,138.29L111.22,48.462L112.36,63.411L114.62,45.629L115.75,115.4L116.88,75.948L118.01,49.629L119.15,45.879L120.28,52.785L121.41,82.1L122.54,49.297L123.67,89.48L124.8,53.237L125.93,58.546L127.07,100.83L128.2,59.704L129.33,74.303L130.46,63.294L131.59,54.851L132.72,49.44L133.86,66.347L134.99,66.058L136.12,60.354L137.25,71.535L138.38,64.336L139.51,71.612L140.64,74.893L141.78,63.557L142.91,69.817L144.04,71.849L145.17,83.848L146.3,79.926L147.43,65.839L148.57,78.48L149.7,58.83L150.83,95.159L151.96,111.22L153.09,61.06L154.22,83.818L155.36,72.598L156.49,76.443L157.62,69.589L158.75,66.282L159.88,74.786L161.01,60.698L162.14,80.486L163.28,65.352L164.41,59.394L165.54,84.877L166.67,65.288L167.8,66.239L168.93,62.175L170.07,59.966L171.2,71.358L172.33,64.56L173.46,74.368L174.59,62.072L175.72,63.161L176.85,74.932L177.99,60.302L179.12,73.597L180.25,64.409L181.38,68.069L182.51,74.941L183.64,67.264L184.78,67.324L185.91,64.586L187.04,70.588L188.17,65.563L189.3,68.293L190.43,81.842L191.56,65.443L192.7,68.22L193.83,65.21L194.96,65.52L196.09,69.92L197.22,68.147L198.35,68.965L199.49,65.344L200.62,71.492L201.75,73.378L202.88,61.581L204.01,67.148L205.14,60.862L206.28,67.019L207.41,72.129L208.54,64.194L209.67,63.751L210.8,61.378L211.93,67.027L213.06,64.78L214.2,63.002L215.33,67.294L216.46,58.085L217.59,66.076L218.72,64.965L219.85,60.707L220.99,64.203L222.12,61.335L223.25,60.948L224.38,58.589L225.51,60.677L226.64,62.145L227.77,59.045L228.91,63.936L230.04,60.362L231.17,60.677L232.3,61.783L233.43,58.967L234.56,61.559L235.7,61.241L236.83,61.051L237.96,61.249L239.09,59.097L240.22,61.654L241.35,58.145L242.48,62.179L243.62,58.533L244.75,58.119L245.88,61.422L247.01,59.058L248.14,59.351L249.27,58.537L250.41,58.137L251.54,58.632L252.67,57.4L253.8,58.692L254.93,55.773L256.06,57.362L257.19,58.834L258.33,56.578L259.46,56.789L260.59,55.433L261.72,55.76L262.85,56.259L263.98,56.535L265.12,56.41L266.25,54.244L267.38,56.277L268.51,55.605L269.64,54.886L270.77,55.687L271.91,54.003L273.04,54.619L274.17,54.589L275.3,54.507L276.43,54.094L277.56,53.732L278.69,54.029L279.83,53.25L280.96,54.275L282.09,54.137L283.22,52.643L284.35,53.9L285.48,52.677L286.62,53.103L287.75,53.233L288.88,52.419L290.01,52.936L291.14,52.139L292.27,53.409L293.4,52.41L294.54,52.363L295.67,52.384L296.8,51.859L297.93,51.958L299.06,51.803L300.19,50.934L301.33,51.803L302.46,51.063L303.59,51.424L304.72,50.714L305.85,51.226L306.98,50.68L308.11,50.606L309.25,50.955L310.38,50.559L311.51,50.047L312.64,50.215L313.77,50.159L314.9,49.965L316.04,49.827L317.17,49.896L318.3,49.827L319.43,49.607L320.56,49.689L321.69,49.117L322.82,49.405L323.96,49.142L325.09,49.207L326.22,49.087L327.35,48.785L328.48,49.259L329.61,48.807L330.75,49.022L331.88,48.742L333.01,48.703L334.14,48.682L335.27,48.566L336.4,48.454L337.54,48.643L338.67,48.273L339.8,48.092L340.93,47.976L342.06,47.984L343.19,48.217L344.32,47.89L345.46,48.002L346.59,47.623L347.72,47.657L348.85,47.562L349.98,47.704L351.11,47.438L352.25,47.605L353.38,47.631L354.51,47.472L355.64,47.382L356.77,47.149L357.9,47.317L359.03,47.196L360.17,47.145L361.3,47.339L362.43,47.011L363.56,46.925L364.69,46.99L365.82,47.007L366.96,47.046L368.09,46.878L369.22,46.891L370.35,46.822L371.48,46.701L372.61,46.955L373.74,46.581L374.88,46.723L376.01,46.637L377.14,46.628L378.27,46.572L379.4,46.434L380.53,46.383L381.67,46.378L382.8,46.447L383.93,46.327L385.06,46.378L386.19,46.271L387.32,46.439L388.46,46.223L389.59,46.348L390.72,46.232L391.85,46.223L392.98,46.198L394.11,46.099L395.24,46.279L396.38,46.012L397.51,46.034L398.64,45.961L399.77,45.857L400.9,46.15L402.03,45.832L403.17,45.819L404.3,45.922L405.43,45.952L406.56,45.862L407.69,45.888L408.82,45.913L409.95,45.789L411.09,45.737L412.22,45.733L413.35,45.78L414.48,45.685L415.61,45.758L416.74,45.724L417.88,45.672L419.01,45.672L420.14,45.702L421.27,45.694L422.4,45.599L423.53,45.668L424.66,45.655L425.8,45.56L426.93,45.595L428.06,45.642L429.19,45.483L430.32,45.5L431.45,45.517L432.59,45.509L433.72,45.47L434.85,45.513L435.98,45.5L437.11,45.517L438.24,45.535L439.37,45.418L440.51,45.44L441.64,45.401L442.77,45.414L443.9,45.392L445.03,45.414L446.16,45.47L447.3,45.401L448.43,45.397L449.56,45.38L450.69,45.388L451.82,45.362L452.95,45.401L454.09,45.388L455.22,45.345L456.35,45.328L457.48,45.328L458.61,45.332L459.74,45.354L460.87,45.358L462.01,45.311L463.14,45.38L464.27,45.298L465.4,45.349L466.53,45.341L467.66,45.328L468.8,45.25L469.93,45.311L471.06,45.293L472.19,45.268L473.32,45.272L474.45,45.285L475.58,45.281L476.72,45.25L477.85,45.259L478.98,45.259L480.11,45.263L481.24,45.263L482.37,45.229L483.51,45.246L484.64,45.276L485.77,45.268L486.9,45.281L488.03,45.225L489.16,45.25L490.29,45.281L491.43,45.233L492.56,45.242L493.69,45.212L494.82,45.233L495.95,45.212L497.08,45.242L498.22,45.216L499.35,45.225L500.48,45.207L501.61,45.212L502.74,45.246L503.87,45.203L505,45.207L506.14,45.22L507.27,45.194L508.4,45.207L509.53,45.194L510.66,45.207L511.79,45.173L512.93,45.19L514.06,45.19L515.19,45.182L516.32,45.182L517.45,45.194L518.58,45.186L519.72,45.16L520.85,45.16L521.98,45.177L523.11,45.16L524.24,45.186L525.37,45.186L526.5,45.173L527.64,45.169L528.77,45.177L529.9,45.177L531.03,45.182L532.16,45.164L533.29,45.182L534.43,45.169L535.56,45.182L536.69,45.16L537.82,45.177L538.95,45.151L540.08,45.169L541.21,45.182L542.35,45.16L543.48,45.151L544.61,45.169L545.74,45.177L546.87,45.164L548,45.182L549.14,45.16L550.27,45.16L551.4,45.16L552.53,45.173L553.66,45.151L554.79,45.16L555.92,45.156L557.06,45.156L558.19,45.156L559.32,45.173L560.45,45.151L561.58,45.151L562.71,45.156L563.85,45.156L564.98,45.156L566.11,45.156L567.24,45.164L568.37,45.156L569.5,45.156L570.64,45.151L571.77,45.16L572.9,45.151L574.03,45.151L575.16,45.156L576.29,45.156L577.42,45.151L579.69,45.156L580.82,45.156L584.21,45.156L588.74,45.16L589.87,45.156L591,45.164L592.13,45.156L595.53,45.151L597.79,45.156L598.92,45.151L601.19,45.151L602.32,45.151L603.45,45.156L605.71,45.156L611.37,45.156L613.63,45.151L617.03,45.151L619.29,45.156L621.55,45.151L624.95,45.151L626.08,45.151L635.13,45.151L637.4,45.151L638.53,45.156L650.98,45.151L654.37,45.151L673.61,45.151L720,45.151" style="fill:none;stroke:#0000FF" />
</g>
</svg>
