<?xml version="1.0"?>
<!-- Generated by SVGo and Plotinum VG -->
<svg width="720pt" height="432pt" viewBox="0 0 720 432"
	xmlns="http://www.w3.org/2000/svg"
	xmlns:xlink="http://www.w3.org/1999/xlink">
<g transform="scale(1, -1) translate(0, -432)">
<path d="M0,0L720,0L720,432L0,432Z" style="fill:#FFFFFF" />
<text x="358.5" y="-420.45" transform="scale(1, -1)"
	style="font-family:Times;font-weight:normal;font-style:normal;font-size:12px"> </text>
<text x="379.31" y="-3.8613" transform="scale(1, -1)"
	style="font-family:Times;font-weight:normal;font-style:normal;font-size:12px">Costs</text>
<text x="56.555" y="-18.634" transform="scale(1, -1)"
	style="font-family:Times;font-weight:normal;font-style:normal;font-size:10px">0.00</text>
<text x="371.86" y="-18.634" transform="scale(1, -1)"
	style="font-family:Times;font-weight:normal;font-style:normal;font-size:10px">250.00</text>
<text x="692.16" y="-18.634" transform="scale(1, -1)"
	style="font-family:Times;font-weight:normal;font-style:normal;font-size:10px">500.00</text>
<path d="M65.305,28.263L65.305,36.263" style="fill:none;stroke:#000000;stroke-width:0.5" />
<path d="M385.61,28.263L385.61,36.263" style="fill:none;stroke:#000000;stroke-width:0.5" />
<path d="M705.91,28.263L705.91,36.263" style="fill:none;stroke:#000000;stroke-width:0.5" />
<path d="M129.36,32.263L129.36,36.263" style="fill:none;stroke:#000000;stroke-width:0.5" />
<path d="M193.43,32.263L193.43,36.263" style="fill:none;stroke:#000000;stroke-width:0.5" />
<path d="M257.49,32.263L257.49,36.263" style="fill:none;stroke:#000000;stroke-width:0.5" />
<path d="M321.55,32.263L321.55,36.263" style="fill:none;stroke:#000000;stroke-width:0.5" />
<path d="M449.67,32.263L449.67,36.263" style="fill:none;stroke:#000000;stroke-width:0.5" />
<path d="M513.73,32.263L513.73,36.263" style="fill:none;stroke:#000000;stroke-width:0.5" />
<path d="M577.79,32.263L577.79,36.263" style="fill:none;stroke:#000000;stroke-width:0.5" />
<path d="M641.85,32.263L641.85,36.263" style="fill:none;stroke:#000000;stroke-width:0.5" />
<path d="M65.305,36.263L720,36.263" style="fill:none;stroke:#000000;stroke-width:0.5" />
<g transform="rotate(90)">
<text x="152.55" y="11.555" transform="scale(1, -1)"
	style="font-family:Times;font-weight:normal;font-style:normal;font-size:12px">Number of trials (1000000 total)</text>
</g>
<text x="24.055" y="-107.41" transform="scale(1, -1)"
	style="font-family:Times;font-weight:normal;font-style:normal;font-size:10px">30000</text>
<text x="24.055" y="-238.34" transform="scale(1, -1)"
	style="font-family:Times;font-weight:normal;font-style:normal;font-size:10px">90000</text>
<text x="19.055" y="-369.27" transform="scale(1, -1)"
	style="font-family:Times;font-weight:normal;font-style:normal;font-size:10px">150000</text>
<path d="M51.555,110.61L59.555,110.61" style="fill:none;stroke:#000000;stroke-width:0.5" />
<path d="M51.555,241.54L59.555,241.54" style="fill:none;stroke:#000000;stroke-width:0.5" />
<path d="M51.555,372.47L59.555,372.47" style="fill:none;stroke:#000000;stroke-width:0.5" />
<path d="M55.555,176.08L59.555,176.08" style="fill:none;stroke:#000000;stroke-width:0.5" />
<path d="M55.555,307.01L59.555,307.01" style="fill:none;stroke:#000000;stroke-width:0.5" />
<path d="M59.555,45.151L59.555,416.58" style="fill:none;stroke:#000000;stroke-width:0.5" />
<path d="M65.305,416.58L93.491,55.427L94.772,56.403L98.616,66.918L99.897,58.687L101.18,73.325L102.46,55.392L103.74,48.97L105.02,78.08L106.3,55.582L107.58,59.661L108.87,62.576L110.15,80.411L112.71,62.532L115.27,70.781L116.55,73.495L117.83,88.299L119.12,80.409L120.4,76.433L121.68,73.293L122.96,52.178L124.24,63.224L126.8,49.064L128.08,53.057L129.36,56.961L130.65,68.119L131.93,45.725L133.21,74.894L134.49,55.045L135.77,51.246L137.05,61.225L138.33,74.157L139.61,51.883L140.9,67.272L142.18,52.377L143.46,57.027L144.74,68.793L146.02,62.613L147.3,50.404L148.58,52.03L149.86,53.474L151.15,56.536L152.43,55.394L153.71,55.449L154.99,56.06L156.27,54.428L157.55,57.446L158.83,69.018L160.11,60.167L161.39,56.723L162.68,57.155L163.96,70.661L165.24,54.821L166.52,57.66L167.8,55.477L169.08,72.688L170.36,57.66L171.64,59.451L172.93,60.256L174.21,61.321L175.49,58.065L176.77,56.754L178.05,58.631L179.33,54.266L180.61,57.932L181.89,55.589L183.18,57.035L184.46,56.658L185.74,58.419L187.02,55.942L188.3,57.742L189.58,57.236L190.86,56.023L192.14,57.502L193.43,56.54L194.71,56.267L195.99,55.543L197.27,57.199L198.55,57.16L199.83,55.384L201.11,54.076L202.39,55.058L203.67,55.822L204.96,53.989L206.24,54.877L207.52,52.599L208.8,56.352L210.08,54.707L211.36,54.954L212.64,54.794L213.92,57.077L215.21,53.786L216.49,55.25L217.77,54.572L219.05,54.683L220.33,53.974L221.61,53.677L222.89,54.271L224.17,53.356L225.46,53.369L226.74,53.162L228.02,53.134L229.3,52.516L230.58,52.174L231.86,53.607L233.14,52.318L234.42,52.723L235.7,51.678L236.99,53.705L238.27,52.353L239.55,52.907L240.83,51.541L242.11,52.651L243.39,51.685L244.67,52.176L245.95,50.91L247.24,51.196L248.52,51.731L249.8,51.384L251.08,50.775L252.36,50.725L253.64,50.921L254.92,50.856L256.2,50.664L257.49,50.989L258.77,50.768L260.05,50.164L261.33,50.236L262.61,50.533L263.89,50.146L265.17,50.269L266.45,50.269L267.73,50.498L269.02,49.834L270.3,49.926L271.58,49.959L272.86,49.688L274.14,49.514L275.42,49.463L276.7,49.385L277.98,49.249L279.27,49.341L280.55,48.743L281.83,49.247L283.11,48.94L284.39,49.084L285.67,48.809L286.95,48.817L288.23,48.82L289.52,48.841L290.8,48.682L292.08,48.593L293.36,48.494L294.64,48.381L295.92,48.296L297.2,48.35L298.48,48.158L299.77,47.923L301.05,47.936L302.33,47.975L303.61,47.842L304.89,47.84L306.17,47.665L307.45,47.851L308.73,47.641L310.01,47.608L311.3,47.55L312.58,47.508L313.86,47.532L315.14,47.358L316.42,47.44L317.7,47.377L318.98,47.386L320.26,47.445L321.55,47.207L322.83,47.283L324.11,47.021L325.39,47.102L326.67,47.065L327.95,46.956L329.23,46.888L330.51,46.86L331.8,46.786L333.08,46.897L334.36,46.795L335.64,46.858L336.92,46.764L338.2,46.559L339.48,46.664L340.76,46.716L342.04,46.509L343.33,46.579L344.61,46.513L345.89,46.476L347.17,46.434L348.45,46.402L349.73,46.369L351.01,46.382L352.29,46.301L353.58,46.251L354.86,46.234L356.14,46.282L357.42,46.166L358.7,46.162L359.98,46.109L361.26,46.168L362.54,46.033L363.83,45.998L365.11,46.066L366.39,46L367.67,45.97L368.95,45.946L370.23,45.939L371.51,45.939L372.79,45.893L374.07,45.845L375.36,45.887L376.64,45.843L377.92,45.834L379.2,45.819L380.48,45.786L381.76,45.819L383.04,45.808L384.32,45.677L385.61,45.847L386.89,45.717L388.17,45.671L389.45,45.682L390.73,45.631L392.01,45.597L393.29,45.712L394.57,45.655L395.86,45.669L397.14,45.59L398.42,45.625L399.7,45.542L400.98,45.551L402.26,45.535L403.54,45.566L404.82,45.544L406.1,45.49L407.39,45.518L408.67,45.496L409.95,45.509L411.23,45.544L412.51,45.496L413.79,45.487L415.07,45.45L416.35,45.453L417.64,45.496L418.92,45.415L420.2,45.383L421.48,45.359L422.76,45.415L424.04,45.42L425.32,45.402L426.6,45.411L427.89,45.391L429.17,45.376L430.45,45.354L431.73,45.376L433.01,45.35L434.29,45.374L435.57,45.354L436.85,45.367L438.14,45.326L439.42,45.306L440.7,45.298L441.98,45.335L443.26,45.315L444.54,45.306L445.82,45.298L447.1,45.295L448.38,45.293L449.67,45.28L450.95,45.3L452.23,45.274L453.51,45.274L454.79,45.265L456.07,45.26L457.35,45.241L458.63,45.276L459.92,45.252L461.2,45.265L462.48,45.245L463.76,45.239L465.04,45.26L466.32,45.236L467.6,45.204L468.88,45.217L470.17,45.217L471.45,45.247L472.73,45.219L474.01,45.215L475.29,45.212L476.57,45.206L477.85,45.25L479.13,45.212L480.41,45.228L481.7,45.199L482.98,45.219L484.26,45.202L485.54,45.202L486.82,45.197L488.1,45.206L489.38,45.184L490.66,45.199L491.95,45.182L493.23,45.204L494.51,45.195L495.79,45.184L497.07,45.21L498.35,45.191L499.63,45.186L500.91,45.178L502.2,45.195L503.48,45.193L504.76,45.193L506.04,45.175L507.32,45.178L508.6,45.182L509.88,45.182L511.16,45.186L512.44,45.182L513.73,45.186L515.01,45.169L516.29,45.16L517.57,45.171L518.85,45.173L520.13,45.164L521.41,45.167L522.69,45.169L523.98,45.164L525.26,45.169L526.54,45.169L527.82,45.169L529.1,45.169L530.38,45.169L531.66,45.164L532.94,45.173L534.23,45.162L535.51,45.164L536.79,45.162L538.07,45.167L539.35,45.158L540.63,45.162L541.91,45.158L543.19,45.16L544.48,45.173L545.76,45.167L547.04,45.158L548.32,45.156L549.6,45.16L550.88,45.158L552.16,45.154L553.44,45.158L554.72,45.158L556.01,45.16L557.29,45.162L558.57,45.158L559.85,45.162L561.13,45.154L562.41,45.154L563.69,45.156L564.97,45.154L566.26,45.156L567.54,45.158L568.82,45.154L570.1,45.16L571.38,45.162L572.66,45.151L573.94,45.154L575.22,45.158L576.51,45.154L577.79,45.154L579.07,45.156L580.35,45.154L581.63,45.151L584.19,45.151L586.75,45.156L588.04,45.158L589.32,45.151L590.6,45.156L594.44,45.154L595.72,45.154L597,45.158L598.29,45.154L599.57,45.156L600.85,45.151L607.25,45.151L609.82,45.154L611.1,45.151L612.38,45.151L621.35,45.151L623.91,45.151L629.03,45.151L632.88,45.154L635.44,45.151L636.72,45.151L643.13,45.151L645.69,45.151L652.1,45.151L658.5,45.151L668.75,45.151L672.6,45.151L693.09,45.151L709.75,45.151L720,45.151" style="fill:none;stroke:#0000FF" />
</g>
</svg>
