<?xml version="1.0"?>
<!-- Generated by SVGo and Plotinum VG -->
<svg width="720pt" height="432pt" viewBox="0 0 720 432"
	xmlns="http://www.w3.org/2000/svg"
	xmlns:xlink="http://www.w3.org/1999/xlink">
<g transform="scale(1, -1) translate(0, -432)">
<path d="M0,0L720,0L720,432L0,432Z" style="fill:#FFFFFF" />
<text x="358.5" y="-420.45" transform="scale(1, -1)"
	style="font-family:Times;font-weight:normal;font-style:normal;font-size:12px"> </text>
<text x="385.56" y="-3.8613" transform="scale(1, -1)"
	style="font-family:Times;font-weight:normal;font-style:normal;font-size:12px">Costs</text>
<text x="75.305" y="-18.634" transform="scale(1, -1)"
	style="font-family:Times;font-weight:normal;font-style:normal;font-size:10px">0</text>
<text x="333.5" y="-18.634" transform="scale(1, -1)"
	style="font-family:Times;font-weight:normal;font-style:normal;font-size:10px">200</text>
<text x="596.69" y="-18.634" transform="scale(1, -1)"
	style="font-family:Times;font-weight:normal;font-style:normal;font-size:10px">400</text>
<path d="M77.805,28.263L77.805,36.263" style="fill:none;stroke:#000000;stroke-width:0.5" />
<path d="M341,28.263L341,36.263" style="fill:none;stroke:#000000;stroke-width:0.5" />
<path d="M604.19,28.263L604.19,36.263" style="fill:none;stroke:#000000;stroke-width:0.5" />
<path d="M209.4,32.263L209.4,36.263" style="fill:none;stroke:#000000;stroke-width:0.5" />
<path d="M472.6,32.263L472.6,36.263" style="fill:none;stroke:#000000;stroke-width:0.5" />
<path d="M77.805,36.263L720,36.263" style="fill:none;stroke:#000000;stroke-width:0.5" />
<g transform="rotate(90)">
<text x="152.55" y="11.555" transform="scale(1, -1)"
	style="font-family:Times;font-weight:normal;font-style:normal;font-size:12px">Number of trials (1000000 total)</text>
</g>
<text x="24.055" y="-79.938" transform="scale(1, -1)"
	style="font-family:Times;font-weight:normal;font-style:normal;font-size:10px">25000.00</text>
<text x="19.055" y="-231.91" transform="scale(1, -1)"
	style="font-family:Times;font-weight:normal;font-style:normal;font-size:10px">125000.00</text>
<text x="19.055" y="-383.88" transform="scale(1, -1)"
	style="font-family:Times;font-weight:normal;font-style:normal;font-size:10px">225000.00</text>
<path d="M64.055,83.143L72.055,83.143" style="fill:none;stroke:#000000;stroke-width:0.5" />
<path d="M64.055,235.12L72.055,235.12" style="fill:none;stroke:#000000;stroke-width:0.5" />
<path d="M64.055,387.09L72.055,387.09" style="fill:none;stroke:#000000;stroke-width:0.5" />
<path d="M68.055,159.13L72.055,159.13" style="fill:none;stroke:#000000;stroke-width:0.5" />
<path d="M68.055,311.1L72.055,311.1" style="fill:none;stroke:#000000;stroke-width:0.5" />
<path d="M72.055,45.151L72.055,416.58" style="fill:none;stroke:#000000;stroke-width:0.5" />
<path d="M77.805,416.58L108.07,48.32L112.02,48.495L113.34,48.665L114.65,58.733L115.97,51.855L119.92,55.452L121.23,105.68L122.55,80.351L123.86,55.683L125.18,55.382L126.5,55.653L129.13,69.338L130.44,58.793L131.76,69.735L133.08,62.523L134.39,93.687L135.71,48.46L137.02,48.501L142.29,81.633L143.6,79.692L144.92,48.677L146.24,45.211L147.55,84.262L148.87,48.784L150.18,45.466L151.5,56.315L152.82,49.142L154.13,51.852L155.45,45.829L156.76,76.418L158.08,48.094L159.4,47.902L160.71,56.742L162.03,46.048L163.34,47.676L164.66,49.145L165.97,63.195L167.29,49.481L168.61,49.853L169.92,49.48L171.24,49.148L172.55,51.404L173.87,58.098L175.19,54.908L176.5,52.917L177.82,56.73L179.13,53.318L180.45,50.937L181.77,49.508L183.08,56.1L184.4,79.965L185.71,56.873L187.03,58.2L188.35,54.29L189.66,51.373L190.98,56.323L192.29,51.543L193.61,50.923L194.93,52.707L196.24,52.499L197.56,51.721L198.87,56.087L200.19,56.879L201.51,52.373L202.82,50.326L204.14,54.163L205.45,49.425L206.77,47.799L208.09,53.942L209.4,51.325L210.72,50.511L212.03,52.642L213.35,54.49L214.67,48.507L215.98,48.282L217.3,52.11L218.61,49.811L219.93,48.989L221.25,52.47L222.56,52.799L223.88,48.11L225.19,48.853L226.51,53.486L227.83,52.981L229.14,50.876L230.46,52.856L231.77,50.537L233.09,49.063L234.41,48.318L235.72,50.835L237.04,49.353L238.35,50.598L239.67,52.188L240.99,51.94L242.3,49.028L243.62,49.667L244.93,49.297L246.25,47.791L247.57,49.021L248.88,51.469L250.2,50.768L251.51,48.598L252.83,49.434L254.15,51.262L255.46,48.566L256.78,49.106L258.09,48.829L259.41,47.811L260.73,48.379L262.04,48.282L263.36,49.929L264.67,48.335L265.99,48.329L267.3,48.502L268.62,47.673L269.94,48.13L271.25,47.683L272.57,48.385L273.88,48.203L275.2,47.741L276.52,47.466L277.83,47.926L279.15,47.831L280.46,47.73L281.78,47.844L283.1,47.998L284.41,47.592L285.73,47.334L287.04,47.589L288.36,47.132L289.68,47.34L290.99,47.352L292.31,47.796L293.62,47.486L294.94,47.206L296.26,47.571L297.57,47.267L298.89,46.91L300.2,46.957L301.52,47.018L302.84,46.8L304.15,46.949L305.47,47.349L306.78,46.987L308.1,46.729L309.42,46.908L310.73,46.963L312.05,46.477L313.36,46.461L314.68,46.885L316,46.504L317.31,46.595L318.63,46.85L319.94,46.632L321.26,46.236L322.58,46.378L323.89,46.448L325.21,46.305L326.52,46.3L327.84,46.434L329.16,46.346L330.47,46.132L331.79,46.224L333.1,46.39L334.42,46.086L335.74,46.133L337.05,46.209L338.37,46.138L339.68,45.936L341,46.039L342.32,45.934L343.63,45.951L344.95,45.984L346.26,46.037L347.58,45.928L348.9,45.975L350.21,45.893L351.53,45.931L352.84,45.869L354.16,45.841L355.48,45.787L356.79,45.723L358.11,45.814L359.42,45.809L360.74,45.753L362.06,45.771L363.37,45.744L364.69,45.67L366,45.677L367.32,45.686L368.63,45.665L369.95,45.65L371.27,45.667L372.58,45.61L373.9,45.594L375.21,45.632L376.53,45.61L377.85,45.557L379.16,45.542L380.48,45.553L381.79,45.492L383.11,45.519L384.43,45.583L385.74,45.539L387.06,45.46L388.37,45.467L389.69,45.509L391.01,45.448L392.32,45.454L393.64,45.46L394.95,45.454L396.27,45.408L397.59,45.466L398.9,45.379L400.22,45.358L401.53,45.384L402.85,45.396L404.17,45.363L405.48,45.346L406.8,45.353L408.11,45.367L409.43,45.34L410.75,45.329L412.06,45.384L413.38,45.328L414.69,45.315L416.01,45.337L417.33,45.315L418.64,45.305L419.96,45.309L421.27,45.303L422.59,45.296L423.91,45.302L425.22,45.278L426.54,45.274L427.85,45.278L429.17,45.268L430.49,45.281L431.8,45.282L433.12,45.291L434.43,45.281L435.75,45.268L437.07,45.271L438.38,45.232L439.7,45.25L441.01,45.247L442.33,45.247L443.65,45.247L444.96,45.255L446.28,45.226L447.59,45.247L448.91,45.23L450.23,45.22L451.54,45.22L452.86,45.223L454.17,45.224L455.49,45.223L456.81,45.215L458.12,45.197L459.44,45.224L460.75,45.191L462.07,45.209L463.39,45.197L464.7,45.202L466.02,45.205L467.33,45.198L468.65,45.194L469.96,45.198L471.28,45.188L472.6,45.185L473.91,45.183L475.23,45.194L476.54,45.211L477.86,45.186L479.18,45.185L480.49,45.179L481.81,45.192L483.12,45.18L484.44,45.194L485.76,45.188L487.07,45.173L488.39,45.185L489.7,45.18L491.02,45.188L492.34,45.168L493.65,45.17L494.97,45.185L496.28,45.171L497.6,45.177L498.92,45.17L500.23,45.167L501.55,45.167L502.86,45.162L504.18,45.171L505.5,45.164L506.81,45.176L508.13,45.168L509.44,45.167L510.76,45.164L512.08,45.164L513.39,45.16L514.71,45.157L516.02,45.162L517.34,45.16L518.66,45.154L519.97,45.16L521.29,45.156L522.6,45.157L523.92,45.157L525.24,45.151L526.55,45.162L527.87,45.16L529.18,45.167L530.5,45.159L531.82,45.151L533.13,45.157L534.45,45.151L535.76,45.156L537.08,45.157L538.4,45.159L539.71,45.151L541.03,45.162L542.34,45.154L543.66,45.159L544.98,45.151L546.29,45.154L547.61,45.153L548.92,45.156L550.24,45.156L551.56,45.154L552.87,45.154L554.19,45.156L555.5,45.154L556.82,45.153L558.14,45.153L559.45,45.154L560.77,45.154L562.08,45.151L563.4,45.153L568.66,45.157L569.98,45.153L571.29,45.151L572.61,45.151L573.93,45.154L575.24,45.151L576.56,45.151L577.87,45.153L579.19,45.151L580.51,45.151L581.82,45.153L583.14,45.151L585.77,45.151L587.09,45.151L589.72,45.151L591.03,45.153L592.35,45.151L594.98,45.151L596.3,45.151L597.61,45.151L600.25,45.151L604.19,45.151L605.51,45.156L609.46,45.151L613.41,45.151L614.72,45.156L618.67,45.151L621.3,45.151L625.25,45.151L626.57,45.153L631.83,45.151L634.46,45.151L641.04,45.151L643.67,45.151L644.99,45.151L676.57,45.151L681.84,45.151L706.84,45.151L720,45.151" style="fill:none;stroke:#0000FF" />
</g>
</svg>
