<?xml version="1.0"?>
<!-- Generated by SVGo and Plotinum VG -->
<svg width="720pt" height="432pt" viewBox="0 0 720 432"
	xmlns="http://www.w3.org/2000/svg"
	xmlns:xlink="http://www.w3.org/1999/xlink">
<g transform="scale(1, -1) translate(0, -432)">
<path d="M0,0L720,0L720,432L0,432Z" style="fill:#FFFFFF" />
<text x="358.5" y="-420.45" transform="scale(1, -1)"
	style="font-family:Times;font-weight:normal;font-style:normal;font-size:12px"> </text>
<text x="379.31" y="-3.8613" transform="scale(1, -1)"
	style="font-family:Times;font-weight:normal;font-style:normal;font-size:12px">Costs</text>
<text x="62.805" y="-18.634" transform="scale(1, -1)"
	style="font-family:Times;font-weight:normal;font-style:normal;font-size:10px">0</text>
<text x="328.9" y="-18.634" transform="scale(1, -1)"
	style="font-family:Times;font-weight:normal;font-style:normal;font-size:10px">200</text>
<text x="600" y="-18.634" transform="scale(1, -1)"
	style="font-family:Times;font-weight:normal;font-style:normal;font-size:10px">400</text>
<path d="M65.305,28.263L65.305,36.263" style="fill:none;stroke:#000000;stroke-width:0.5" />
<path d="M336.4,28.263L336.4,36.263" style="fill:none;stroke:#000000;stroke-width:0.5" />
<path d="M607.5,28.263L607.5,36.263" style="fill:none;stroke:#000000;stroke-width:0.5" />
<path d="M200.85,32.263L200.85,36.263" style="fill:none;stroke:#000000;stroke-width:0.5" />
<path d="M471.95,32.263L471.95,36.263" style="fill:none;stroke:#000000;stroke-width:0.5" />
<path d="M65.305,36.263L720,36.263" style="fill:none;stroke:#000000;stroke-width:0.5" />
<g transform="rotate(90)">
<text x="152.55" y="11.555" transform="scale(1, -1)"
	style="font-family:Times;font-weight:normal;font-style:normal;font-size:12px">Number of trials (1000000 total)</text>
</g>
<text x="24.055" y="-107.29" transform="scale(1, -1)"
	style="font-family:Times;font-weight:normal;font-style:normal;font-size:10px">50000</text>
<text x="19.055" y="-238" transform="scale(1, -1)"
	style="font-family:Times;font-weight:normal;font-style:normal;font-size:10px">150000</text>
<text x="19.055" y="-368.7" transform="scale(1, -1)"
	style="font-family:Times;font-weight:normal;font-style:normal;font-size:10px">250000</text>
<path d="M51.555,110.5L59.555,110.5" style="fill:none;stroke:#000000;stroke-width:0.5" />
<path d="M51.555,241.2L59.555,241.2" style="fill:none;stroke:#000000;stroke-width:0.5" />
<path d="M51.555,371.9L59.555,371.9" style="fill:none;stroke:#000000;stroke-width:0.5" />
<path d="M55.555,175.85L59.555,175.85" style="fill:none;stroke:#000000;stroke-width:0.5" />
<path d="M55.555,306.55L59.555,306.55" style="fill:none;stroke:#000000;stroke-width:0.5" />
<path d="M59.555,45.151L59.555,416.58" style="fill:none;stroke:#000000;stroke-width:0.5" />
<path d="M65.305,416.58L96.481,51.879L100.55,48.956L101.9,59.68L103.26,51.963L107.32,60.081L108.68,52.298L110.04,52.078L111.39,80.292L112.75,48.667L114.1,77.361L116.81,52.177L118.17,52.603L119.52,55.158L120.88,73.252L122.23,59.061L123.59,48.731L124.95,59.815L127.66,52.045L131.72,66.461L133.08,70.413L134.43,55.952L137.14,66.687L138.5,69.897L139.86,45.515L141.21,45.307L142.57,45.938L143.92,56.521L145.28,63.966L146.63,45.877L147.99,83.126L149.34,53.063L150.7,50.327L152.06,46.556L153.41,47.152L154.77,46.542L156.12,48.045L157.48,48.334L158.83,47.55L160.19,49.143L161.54,50.131L162.9,48.551L164.25,62.354L165.61,58.606L166.97,49.62L168.32,49.569L169.68,64.307L171.03,48.908L172.39,46.847L173.74,68.023L175.1,66.947L176.45,49.074L177.81,49.217L179.16,50.383L180.52,51.35L181.88,50.029L183.23,50.419L184.59,50.301L185.94,50.003L187.3,51.332L188.65,49.255L190.01,50.79L191.36,50.709L192.72,50.901L194.07,54.108L195.43,48.489L196.79,50.82L198.14,48.033L199.5,49.751L200.85,50.334L202.21,48.765L203.56,50.53L204.92,51.366L206.27,50.131L207.63,49.274L208.99,46.81L210.34,51.407L211.7,50.913L213.05,49.225L214.41,49.636L215.76,51.469L217.12,51.136L218.47,50.208L219.83,51.285L221.18,52.174L222.54,49.515L223.9,49.305L225.25,48.052L226.61,48.778L227.96,49.495L229.32,49.302L230.67,50.249L232.03,49.596L233.38,48.999L234.74,47.61L236.09,48.474L237.45,49.399L238.81,47.696L240.16,47.84L241.52,49.735L242.87,49.947L244.23,48.146L245.58,48.118L246.94,50.317L248.29,49.565L249.65,47.859L251.01,46.87L252.36,48.785L253.72,48.489L255.07,47.671L256.43,48.452L257.78,48.855L259.14,47.412L260.49,47.41L261.85,47.035L263.2,47.01L264.56,47.328L265.92,47.171L267.27,47.113L268.63,47.463L269.98,47.633L271.34,46.973L272.69,47.663L274.05,48.228L275.4,47.367L276.76,47.088L278.11,47.513L279.47,47.585L280.83,46.559L282.18,46.631L283.54,47.884L284.89,46.793L286.25,46.875L287.6,46.864L288.96,47.005L290.31,46.84L291.67,46.577L293.02,46.793L294.38,46.76L295.74,46.603L297.09,46.607L298.45,46.678L299.8,46.725L301.16,46.713L302.51,46.72L303.87,46.675L305.22,46.466L306.58,46.356L307.94,46.187L309.29,46.41L310.65,46.364L312,46.296L313.36,46.244L314.71,46.498L316.07,46.342L317.42,46.119L318.78,46.12L320.13,46.359L321.49,46.224L322.85,46.06L324.2,46.126L325.56,46.262L326.91,46.215L328.27,46.019L329.62,46.09L330.98,46.066L332.33,46.032L333.69,45.819L335.04,45.868L336.4,45.979L337.76,45.883L339.11,45.904L340.47,45.928L341.82,45.887L343.18,45.801L344.53,45.759L345.89,45.858L347.24,45.866L348.6,45.707L349.95,45.707L351.31,45.83L352.67,45.743L354.02,45.707L355.38,45.728L356.73,45.772L358.09,45.708L359.44,45.608L360.8,45.627L362.15,45.669L363.51,45.57L364.87,45.577L366.22,45.653L367.58,45.523L368.93,45.571L370.29,45.549L371.64,45.481L373,45.494L374.35,45.528L375.71,45.494L377.06,45.519L378.42,45.521L379.78,45.479L381.13,45.431L382.49,45.515L383.84,45.469L385.2,45.445L386.55,45.442L387.91,45.442L389.26,45.418L390.62,45.381L391.97,45.388L393.33,45.43L394.69,45.394L396.04,45.372L397.4,45.405L398.75,45.414L400.11,45.41L401.46,45.37L402.82,45.362L404.17,45.354L405.53,45.333L406.88,45.329L408.24,45.328L409.6,45.333L410.95,45.32L412.31,45.334L413.66,45.315L415.02,45.347L416.37,45.303L417.73,45.302L419.08,45.306L420.44,45.308L421.8,45.272L423.15,45.279L424.51,45.291L425.86,45.3L427.22,45.265L428.57,45.276L429.93,45.29L431.28,45.26L432.64,45.257L433.99,45.249L435.35,45.261L436.71,45.264L438.06,45.243L439.42,45.23L440.77,45.231L442.13,45.222L443.48,45.218L444.84,45.239L446.19,45.227L447.55,45.219L448.9,45.214L450.26,45.243L451.62,45.231L452.97,45.226L454.33,45.204L455.68,45.231L457.04,45.217L458.39,45.206L459.75,45.219L461.1,45.211L462.46,45.18L463.81,45.197L465.17,45.204L466.53,45.197L467.88,45.209L469.24,45.196L470.59,45.187L471.95,45.187L473.3,45.18L474.66,45.201L476.01,45.194L477.37,45.185L478.73,45.178L480.08,45.187L481.44,45.184L482.79,45.194L484.15,45.179L485.5,45.185L486.86,45.193L488.21,45.179L489.57,45.18L490.92,45.178L492.28,45.178L493.64,45.163L494.99,45.175L496.35,45.174L497.7,45.178L499.06,45.174L500.41,45.167L501.77,45.168L503.12,45.163L504.48,45.171L505.83,45.167L507.19,45.172L508.55,45.163L509.9,45.168L511.26,45.171L512.61,45.162L513.97,45.162L515.32,45.162L516.68,45.162L518.03,45.167L519.39,45.168L520.74,45.162L522.1,45.158L523.46,45.155L524.81,45.167L526.17,45.162L527.52,45.158L528.88,45.162L530.23,45.161L531.59,45.172L532.94,45.158L534.3,45.161L535.66,45.162L537.01,45.154L538.37,45.155L539.72,45.155L541.08,45.158L542.43,45.159L543.79,45.155L545.14,45.157L546.5,45.159L547.85,45.158L549.21,45.155L550.57,45.161L551.92,45.157L553.28,45.154L554.63,45.154L555.99,45.154L557.34,45.155L558.7,45.155L561.41,45.155L562.76,45.157L564.12,45.153L565.48,45.155L566.83,45.153L568.19,45.154L569.54,45.159L570.9,45.154L572.25,45.153L573.61,45.154L574.96,45.153L577.67,45.155L579.03,45.153L580.39,45.153L581.74,45.151L583.1,45.157L584.45,45.153L585.81,45.151L589.87,45.154L591.23,45.153L592.59,45.154L595.3,45.153L596.65,45.151L598.01,45.151L600.72,45.153L602.07,45.153L607.5,45.151L610.21,45.153L611.56,45.153L614.27,45.151L615.63,45.151L625.12,45.151L629.18,45.151L635.96,45.151L640.03,45.151L649.52,45.151L657.65,45.151L667.14,45.153L668.49,45.151L672.56,45.151L679.34,45.151L684.76,45.151L698.31,45.151L720,45.151" style="fill:none;stroke:#0000FF" />
</g>
</svg>
