<?xml version="1.0"?>
<!-- Generated by SVGo and Plotinum VG -->
<svg width="720pt" height="432pt" viewBox="0 0 720 432"
	xmlns="http://www.w3.org/2000/svg"
	xmlns:xlink="http://www.w3.org/1999/xlink">
<g transform="scale(1, -1) translate(0, -432)">
<path d="M0,0L720,0L720,432L0,432Z" style="fill:#FFFFFF" />
<text x="358.5" y="-420.45" transform="scale(1, -1)"
	style="font-family:Times;font-weight:normal;font-style:normal;font-size:12px"> </text>
<text x="385.56" y="-3.8613" transform="scale(1, -1)"
	style="font-family:Times;font-weight:normal;font-style:normal;font-size:12px">Costs</text>
<text x="75.305" y="-18.634" transform="scale(1, -1)"
	style="font-family:Times;font-weight:normal;font-style:normal;font-size:10px">0</text>
<text x="377.58" y="-18.634" transform="scale(1, -1)"
	style="font-family:Times;font-weight:normal;font-style:normal;font-size:10px">300</text>
<text x="684.85" y="-18.634" transform="scale(1, -1)"
	style="font-family:Times;font-weight:normal;font-style:normal;font-size:10px">600</text>
<path d="M77.805,28.263L77.805,36.263" style="fill:none;stroke:#000000;stroke-width:0.5" />
<path d="M385.08,28.263L385.08,36.263" style="fill:none;stroke:#000000;stroke-width:0.5" />
<path d="M692.35,28.263L692.35,36.263" style="fill:none;stroke:#000000;stroke-width:0.5" />
<path d="M180.23,32.263L180.23,36.263" style="fill:none;stroke:#000000;stroke-width:0.5" />
<path d="M282.65,32.263L282.65,36.263" style="fill:none;stroke:#000000;stroke-width:0.5" />
<path d="M487.5,32.263L487.5,36.263" style="fill:none;stroke:#000000;stroke-width:0.5" />
<path d="M589.92,32.263L589.92,36.263" style="fill:none;stroke:#000000;stroke-width:0.5" />
<path d="M77.805,36.263L720,36.263" style="fill:none;stroke:#000000;stroke-width:0.5" />
<g transform="rotate(90)">
<text x="152.55" y="11.555" transform="scale(1, -1)"
	style="font-family:Times;font-weight:normal;font-style:normal;font-size:12px">Number of trials (1000000 total)</text>
</g>
<text x="24.055" y="-111.58" transform="scale(1, -1)"
	style="font-family:Times;font-weight:normal;font-style:normal;font-size:10px">25000.00</text>
<text x="24.055" y="-250.87" transform="scale(1, -1)"
	style="font-family:Times;font-weight:normal;font-style:normal;font-size:10px">75000.00</text>
<text x="19.055" y="-390.15" transform="scale(1, -1)"
	style="font-family:Times;font-weight:normal;font-style:normal;font-size:10px">125000.00</text>
<path d="M64.055,114.79L72.055,114.79" style="fill:none;stroke:#000000;stroke-width:0.5" />
<path d="M64.055,254.07L72.055,254.07" style="fill:none;stroke:#000000;stroke-width:0.5" />
<path d="M64.055,393.35L72.055,393.35" style="fill:none;stroke:#000000;stroke-width:0.5" />
<path d="M68.055,59.077L72.055,59.077" style="fill:none;stroke:#000000;stroke-width:0.5" />
<path d="M68.055,86.933L72.055,86.933" style="fill:none;stroke:#000000;stroke-width:0.5" />
<path d="M68.055,142.65L72.055,142.65" style="fill:none;stroke:#000000;stroke-width:0.5" />
<path d="M68.055,170.5L72.055,170.5" style="fill:none;stroke:#000000;stroke-width:0.5" />
<path d="M68.055,198.36L72.055,198.36" style="fill:none;stroke:#000000;stroke-width:0.5" />
<path d="M68.055,226.22L72.055,226.22" style="fill:none;stroke:#000000;stroke-width:0.5" />
<path d="M68.055,281.93L72.055,281.93" style="fill:none;stroke:#000000;stroke-width:0.5" />
<path d="M68.055,309.79L72.055,309.79" style="fill:none;stroke:#000000;stroke-width:0.5" />
<path d="M68.055,337.64L72.055,337.64" style="fill:none;stroke:#000000;stroke-width:0.5" />
<path d="M68.055,365.5L72.055,365.5" style="fill:none;stroke:#000000;stroke-width:0.5" />
<path d="M72.055,45.151L72.055,416.58" style="fill:none;stroke:#000000;stroke-width:0.5" />
<path d="M77.805,416.58L101.36,52.553L104.43,73.495L105.46,65.654L106.48,63.088L109.56,76.707L110.58,48.608L111.6,55.528L112.63,72.431L113.65,84.025L114.68,48.321L115.7,52.405L116.73,55.506L117.75,73.401L118.77,59.918L119.8,81.042L120.82,66.038L121.85,73.724L122.87,66.021L123.9,48.569L124.92,81.869L126.97,55.241L127.99,62.748L129.02,78.003L130.04,60.035L131.06,45.672L132.09,101.02L133.11,53.798L134.14,46.137L135.16,59.032L136.19,76.718L137.21,58.511L138.23,58.238L139.26,51.89L140.28,71.793L141.31,64.495L142.33,58.676L143.36,47.979L144.38,50.915L145.4,52.673L146.43,98.042L147.45,51.901L148.48,54.974L149.5,53.514L150.53,54.191L151.55,54.748L152.57,83.292L153.6,59.102L154.62,54.336L155.65,57.731L156.67,68.896L157.7,54.216L158.72,57.344L159.74,75.557L160.77,73.771L161.79,54.489L162.82,57.219L163.84,63.486L164.86,60.915L165.89,54.405L166.91,60.453L167.94,61.949L168.96,58.846L169.99,58.197L171.01,57.678L172.03,62.01L173.06,60.511L174.08,62.573L175.11,59.637L176.13,61.174L177.16,57.979L178.18,59.007L179.2,61.907L180.23,58.851L181.25,60.662L182.28,61.445L183.3,60.414L184.33,59.645L185.35,55.754L186.37,61.135L187.4,61.913L188.42,62.882L189.45,57.508L190.47,59.946L191.49,59.985L192.52,58.862L193.54,58.801L194.57,59.094L195.59,60.5L196.62,59.929L197.64,58.057L198.66,57.029L199.69,58.252L200.71,62.06L201.74,56.347L202.76,56.054L203.79,60.202L204.81,59.378L205.83,54.946L206.86,59.954L207.88,56.052L208.91,55.901L209.93,56.717L210.96,60.169L211.98,55.308L213,54.049L214.03,56.631L215.05,58.397L216.08,54.812L217.1,55.057L218.12,55.026L219.15,55.988L220.17,54.558L221.2,58.077L222.22,55.216L223.25,55.536L224.27,54.695L225.29,55.469L226.32,53.717L227.34,54.127L228.37,56.305L229.39,55.606L230.42,53.801L231.44,54.773L232.46,54.196L233.49,54.132L234.51,54.809L235.54,55.001L236.56,53.706L237.59,53.648L238.61,54.492L239.63,53.678L240.66,53.288L241.68,53.263L242.71,54.572L243.73,52.837L244.75,52.837L245.78,53.305L246.8,53.336L247.83,52.762L248.85,52.581L249.88,52.517L250.9,52.898L251.92,52.489L252.95,52.207L253.97,52.193L255,52.405L256.02,51.909L257.05,51.751L258.07,51.998L259.09,51.444L260.12,51.361L261.14,51.689L262.17,51.138L263.19,51.578L264.22,51.124L265.24,51.18L266.26,50.809L267.29,50.667L268.31,51.007L269.34,50.606L270.36,50.854L271.39,50.358L272.41,50.528L273.43,50.503L274.46,49.887L275.48,50.533L276.51,50.021L277.53,49.795L278.55,49.968L279.58,50.244L280.6,49.762L281.63,49.461L282.65,49.845L283.68,49.709L284.7,49.333L285.72,49.636L286.75,49.266L287.77,49.33L288.8,49.074L289.82,49.341L290.85,48.89L291.87,48.884L292.89,48.948L293.92,49.062L294.94,48.717L295.97,48.402L296.99,48.603L298.02,48.697L299.04,48.28L300.06,48.603L301.09,48.394L302.11,48.494L303.14,48.266L304.16,48.249L305.18,48.012L306.21,48.113L307.23,48.029L308.26,48.007L309.28,47.801L310.31,47.82L311.33,47.842L312.35,47.789L313.38,47.65L314.4,47.709L315.43,47.647L316.45,47.522L317.48,47.558L318.5,47.525L319.52,47.335L320.55,47.491L321.57,47.461L322.6,47.352L323.62,47.257L324.65,47.319L325.67,47.126L326.69,47.216L327.72,47.085L328.74,47.227L329.77,47.101L330.79,47.046L331.81,46.831L332.84,46.839L333.86,46.714L334.89,46.795L335.91,46.67L336.94,46.781L337.96,46.67L338.98,46.675L340.01,46.625L341.03,46.58L342.06,46.592L343.08,46.516L344.11,46.511L345.13,46.399L346.15,46.447L347.18,46.461L348.2,46.41L349.23,46.369L350.25,46.277L351.28,46.307L352.3,46.274L353.32,46.33L354.35,46.388L355.37,46.19L356.4,46.129L357.42,46.196L358.45,46.165L359.47,46.118L360.49,46.121L361.52,46.079L362.54,45.993L363.57,46.004L364.59,46.029L365.61,45.984L366.64,45.97L367.66,45.987L368.69,45.948L369.71,46.009L370.74,45.881L371.76,45.842L372.78,45.806L373.81,45.859L374.83,45.798L375.86,45.812L376.88,45.75L377.91,45.853L378.93,45.848L379.95,45.781L380.98,45.714L382,45.717L383.03,45.692L384.05,45.686L385.08,45.714L386.1,45.683L387.12,45.633L388.15,45.633L389.17,45.642L390.2,45.683L391.22,45.644L392.24,45.608L393.27,45.55L394.29,45.614L395.32,45.605L396.34,45.561L397.37,45.583L398.39,45.533L399.41,45.522L400.44,45.477L401.46,45.5L402.49,45.533L403.51,45.527L404.54,45.469L405.56,45.558L406.58,45.441L407.61,45.424L408.63,45.455L409.66,45.472L410.68,45.424L411.71,45.41L412.73,45.36L413.75,45.413L414.78,45.402L415.8,45.416L416.83,45.374L417.85,45.338L418.87,45.391L419.9,45.371L420.92,45.388L421.95,45.369L422.97,45.363L424,45.319L425.02,45.332L426.04,45.327L427.07,45.394L428.09,45.302L429.12,45.366L430.14,45.271L431.17,45.282L432.19,45.313L433.21,45.321L434.24,45.285L435.26,45.285L436.29,45.335L437.31,45.293L438.34,45.296L439.36,45.28L440.38,45.277L441.41,45.305L442.43,45.282L443.46,45.252L444.48,45.249L445.51,45.249L446.53,45.31L447.55,45.249L448.58,45.257L449.6,45.246L450.63,45.249L451.65,45.28L452.67,45.229L453.7,45.229L454.72,45.268L455.75,45.252L456.77,45.221L457.8,45.207L458.82,45.252L459.84,45.241L460.87,45.213L461.89,45.224L462.92,45.227L463.94,45.218L464.97,45.215L465.99,45.202L467.01,45.229L468.04,45.218L469.06,45.229L470.09,45.204L471.11,45.224L472.14,45.21L473.16,45.19L474.18,45.19L475.21,45.19L476.23,45.179L477.26,45.207L478.28,45.19L479.3,45.188L480.33,45.19L481.35,45.193L482.38,45.168L483.4,45.185L484.43,45.188L485.45,45.204L486.47,45.176L487.5,45.171L488.52,45.188L489.55,45.171L490.57,45.188L491.6,45.182L492.62,45.163L493.64,45.171L494.67,45.188L495.69,45.168L496.72,45.176L497.74,45.176L498.77,45.171L499.79,45.168L500.81,45.179L501.84,45.165L502.86,45.182L503.89,45.176L504.91,45.16L505.93,45.168L506.96,45.176L507.98,45.163L509.01,45.165L510.03,45.171L511.06,45.168L512.08,45.165L513.1,45.16L514.13,45.171L515.15,45.171L516.18,45.163L517.2,45.168L518.23,45.165L519.25,45.171L520.27,45.157L521.3,45.165L522.32,45.163L523.35,45.163L524.37,45.165L525.4,45.163L526.42,45.168L527.44,45.16L528.47,45.16L530.52,45.151L531.54,45.168L532.57,45.151L533.59,45.163L534.61,45.16L535.64,45.157L536.66,45.151L537.69,45.151L538.71,45.168L539.73,45.151L540.76,45.154L541.78,45.151L542.81,45.157L543.83,45.151L544.86,45.151L545.88,45.151L546.9,45.151L547.93,45.151L548.95,45.154L551,45.16L553.05,45.154L555.1,45.151L556.12,45.157L558.17,45.151L559.2,45.154L561.24,45.151L563.29,45.154L564.32,45.151L568.41,45.151L569.44,45.151L570.46,45.151L571.49,45.151L572.51,45.151L573.53,45.154L574.56,45.151L575.58,45.151L576.61,45.151L579.68,45.151L583.78,45.151L585.83,45.151L587.87,45.151L591.97,45.151L592.99,45.151L595.04,45.151L601.19,45.151L603.24,45.151L604.26,45.151L609.38,45.151L611.43,45.151L613.48,45.151L615.53,45.151L656.5,45.151L689.27,45.151L702.59,45.151L720,45.151" style="fill:none;stroke:#0000FF" />
</g>
</svg>
