<?xml version="1.0"?>
<!-- Generated by SVGo and Plotinum VG -->
<svg width="720pt" height="432pt" viewBox="0 0 720 432"
	xmlns="http://www.w3.org/2000/svg"
	xmlns:xlink="http://www.w3.org/1999/xlink">
<g transform="scale(1, -1) translate(0, -432)">
<path d="M0,0L720,0L720,432L0,432Z" style="fill:#FFFFFF" />
<text x="358.5" y="-420.45" transform="scale(1, -1)"
	style="font-family:Times;font-weight:normal;font-style:normal;font-size:12px"> </text>
<text x="385.56" y="-3.8613" transform="scale(1, -1)"
	style="font-family:Times;font-weight:normal;font-style:normal;font-size:12px">Costs</text>
<text x="75.305" y="-18.634" transform="scale(1, -1)"
	style="font-family:Times;font-weight:normal;font-style:normal;font-size:10px">0</text>
<text x="355.72" y="-18.634" transform="scale(1, -1)"
	style="font-family:Times;font-weight:normal;font-style:normal;font-size:10px">200</text>
<text x="641.14" y="-18.634" transform="scale(1, -1)"
	style="font-family:Times;font-weight:normal;font-style:normal;font-size:10px">400</text>
<path d="M77.805,28.263L77.805,36.263" style="fill:none;stroke:#000000;stroke-width:0.5" />
<path d="M363.22,28.263L363.22,36.263" style="fill:none;stroke:#000000;stroke-width:0.5" />
<path d="M648.64,28.263L648.64,36.263" style="fill:none;stroke:#000000;stroke-width:0.5" />
<path d="M220.51,32.263L220.51,36.263" style="fill:none;stroke:#000000;stroke-width:0.5" />
<path d="M505.93,32.263L505.93,36.263" style="fill:none;stroke:#000000;stroke-width:0.5" />
<path d="M77.805,36.263L720,36.263" style="fill:none;stroke:#000000;stroke-width:0.5" />
<g transform="rotate(90)">
<text x="152.55" y="11.555" transform="scale(1, -1)"
	style="font-family:Times;font-weight:normal;font-style:normal;font-size:12px">Number of trials (1000000 total)</text>
</g>
<text x="24.055" y="-79.645" transform="scale(1, -1)"
	style="font-family:Times;font-weight:normal;font-style:normal;font-size:10px">25000.00</text>
<text x="19.055" y="-230.45" transform="scale(1, -1)"
	style="font-family:Times;font-weight:normal;font-style:normal;font-size:10px">125000.00</text>
<text x="19.055" y="-381.25" transform="scale(1, -1)"
	style="font-family:Times;font-weight:normal;font-style:normal;font-size:10px">225000.00</text>
<path d="M64.055,82.851L72.055,82.851" style="fill:none;stroke:#000000;stroke-width:0.5" />
<path d="M64.055,233.65L72.055,233.65" style="fill:none;stroke:#000000;stroke-width:0.5" />
<path d="M64.055,384.46L72.055,384.46" style="fill:none;stroke:#000000;stroke-width:0.5" />
<path d="M68.055,158.25L72.055,158.25" style="fill:none;stroke:#000000;stroke-width:0.5" />
<path d="M68.055,309.06L72.055,309.06" style="fill:none;stroke:#000000;stroke-width:0.5" />
<path d="M72.055,45.151L72.055,416.58" style="fill:none;stroke:#000000;stroke-width:0.5" />
<path d="M77.805,416.58L109.2,55.807L110.63,51.995L112.06,52.52L114.91,74.033L116.34,52.075L117.76,52.53L119.19,59.411L122.04,62.548L123.47,62.521L124.9,55.696L126.33,59.122L127.75,66.651L129.18,52.174L130.61,55.308L132.03,51.983L133.46,80.494L134.89,62.271L136.32,48.638L137.74,66.258L139.17,55.997L140.6,69.762L142.02,45.373L143.45,59.463L144.88,45.287L146.31,46.04L147.73,63.302L149.16,56.677L150.59,52.702L152.01,45.875L153.44,81.463L154.87,63.946L156.3,54.548L157.72,49.844L159.15,54.85L160.58,58.38L162,54.836L163.43,62.145L164.86,59.796L166.28,65.532L167.71,66.086L169.14,48.508L170.57,50.398L171.99,50.6L173.42,49.113L174.85,51.165L176.27,49.252L177.7,50.527L179.13,50.739L180.56,50.42L181.98,57.55L183.41,57.122L184.84,52.521L186.26,51.144L187.69,51.576L189.12,50.785L190.55,53.283L191.97,61.645L193.4,62.842L194.83,51.999L196.25,51.913L197.68,52.381L199.11,53.372L200.54,52.625L201.96,51.322L203.39,54.049L204.82,53.245L206.24,51.864L207.67,51.11L209.1,53.948L210.53,53.856L211.95,51.859L213.38,53.145L214.81,51.639L216.23,53.83L217.66,50.968L219.09,52.352L220.51,51.488L221.94,50.436L223.37,53.182L224.8,51.687L226.22,51.208L227.65,50.535L229.08,52.029L230.5,52.272L231.93,50.098L233.36,50.292L234.79,49.6L236.21,50.58L237.64,51.922L239.07,51.671L240.49,50.65L241.92,51.411L243.35,51.565L244.78,50.362L246.2,49.73L247.63,50.068L249.06,50.194L250.48,49.396L251.91,49.647L253.34,50.303L254.77,49.784L256.19,49.458L257.62,49.131L259.05,48.998L260.47,48.513L261.9,48.526L263.33,48.887L264.75,48.808L266.18,48.508L267.61,49.253L269.04,49.967L270.46,49.157L271.89,48.985L273.32,48.452L274.74,48.645L276.17,48.525L277.6,48.309L279.03,48.753L280.45,48.644L281.88,48.879L283.31,48.211L284.73,47.935L286.16,47.941L287.59,47.869L289.02,47.89L290.44,47.623L291.87,47.668L293.3,47.674L294.72,47.59L296.15,47.72L297.58,47.845L299.01,47.858L300.43,47.468L301.86,47.407L303.29,47.456L304.71,47.359L306.14,47.353L307.57,47.41L309,47.3L310.42,47.056L311.85,47.16L313.28,47.228L314.7,47.067L316.13,46.963L317.56,47.068L318.98,47.014L320.41,46.816L321.84,46.846L323.27,46.78L324.69,46.849L326.12,46.706L327.55,46.763L328.97,46.751L330.4,46.638L331.83,46.647L333.26,46.537L334.68,46.558L336.11,46.417L337.54,46.383L338.96,46.441L340.39,46.337L341.82,46.352L343.25,46.249L344.67,46.326L346.1,46.215L347.53,46.192L348.95,46.15L350.38,46.085L351.81,46.141L353.24,46.178L354.66,46.101L356.09,46.139L357.52,46.098L358.94,46.113L360.37,45.982L361.8,45.966L363.22,45.917L364.65,45.93L366.08,45.914L367.51,45.857L368.93,45.928L370.36,45.86L371.79,45.857L373.21,45.898L374.64,45.804L376.07,45.794L377.5,45.761L378.92,45.691L380.35,45.702L381.78,45.78L383.2,45.736L384.63,45.75L386.06,45.682L387.49,45.669L388.91,45.699L390.34,45.64L391.77,45.595L393.19,45.655L394.62,45.59L396.05,45.565L397.48,45.537L398.9,45.546L400.33,45.557L401.76,45.569L403.18,45.527L404.61,45.501L406.04,45.536L407.46,45.54L408.89,45.513L410.32,45.483L411.75,45.485L413.17,45.471L414.6,45.405L416.03,45.504L417.45,45.471L418.88,45.441L420.31,45.406L421.74,45.396L423.16,45.372L424.59,45.409L426.02,45.381L427.44,45.338L428.87,45.379L430.3,45.366L431.73,45.369L433.15,45.369L434.58,45.346L436.01,45.347L437.43,45.343L438.86,45.361L440.29,45.32L441.72,45.328L443.14,45.34L444.57,45.32L446,45.283L447.42,45.299L448.85,45.305L450.28,45.286L451.71,45.287L453.13,45.277L454.56,45.29L455.99,45.274L457.41,45.283L458.84,45.255L460.27,45.257L461.69,45.274L463.12,45.258L464.55,45.237L465.98,45.254L467.4,45.261L468.83,45.236L470.26,45.257L471.68,45.267L473.11,45.225L474.54,45.228L475.97,45.222L477.39,45.246L478.82,45.216L480.25,45.224L481.67,45.215L483.1,45.21L484.53,45.209L485.96,45.209L487.38,45.212L488.81,45.21L490.24,45.224L491.66,45.207L493.09,45.203L494.52,45.209L495.95,45.206L497.37,45.197L498.8,45.209L500.23,45.189L501.65,45.204L503.08,45.185L504.51,45.194L505.93,45.175L507.36,45.188L508.79,45.182L510.22,45.192L511.64,45.2L513.07,45.189L514.5,45.189L515.92,45.177L517.35,45.183L518.78,45.172L520.21,45.169L521.63,45.177L523.06,45.183L524.49,45.171L525.91,45.166L527.34,45.169L528.77,45.168L530.2,45.171L531.62,45.166L533.05,45.166L534.48,45.165L535.9,45.174L537.33,45.168L538.76,45.172L540.19,45.16L541.61,45.177L543.04,45.174L544.47,45.163L545.89,45.163L547.32,45.162L548.75,45.166L550.18,45.174L551.6,45.162L553.03,45.157L554.46,45.157L555.88,45.162L557.31,45.159L558.74,45.16L560.16,45.162L561.59,45.16L563.02,45.166L564.45,45.154L565.87,45.16L567.3,45.159L568.73,45.156L570.15,45.156L571.58,45.157L573.01,45.162L574.44,45.156L575.86,45.157L577.29,45.156L578.72,45.153L580.14,45.157L581.57,45.16L583,45.156L584.43,45.154L585.85,45.151L587.28,45.153L588.71,45.159L590.13,45.156L591.56,45.154L592.99,45.159L594.42,45.153L595.84,45.154L597.27,45.153L598.7,45.154L601.55,45.156L602.98,45.154L604.4,45.151L605.83,45.153L607.26,45.153L608.69,45.154L610.11,45.153L611.54,45.151L612.97,45.151L614.39,45.156L615.82,45.151L617.25,45.153L618.68,45.151L624.38,45.151L625.81,45.151L628.67,45.151L630.09,45.151L631.52,45.154L632.95,45.151L634.37,45.151L637.23,45.153L640.08,45.151L642.94,45.151L647.22,45.151L650.07,45.153L651.5,45.153L658.63,45.151L660.06,45.151L661.49,45.151L695.74,45.151L697.17,45.151L718.57,45.151L720,45.151" style="fill:none;stroke:#0000FF" />
</g>
</svg>
