<?xml version="1.0"?>
<!-- Generated by SVGo and Plotinum VG -->
<svg width="720pt" height="432pt" viewBox="0 0 720 432"
	xmlns="http://www.w3.org/2000/svg"
	xmlns:xlink="http://www.w3.org/1999/xlink">
<g transform="scale(1, -1) translate(0, -432)">
<path d="M0,0L720,0L720,432L0,432Z" style="fill:#FFFFFF" />
<text x="358.5" y="-420.45" transform="scale(1, -1)"
	style="font-family:Times;font-weight:normal;font-style:normal;font-size:12px"> </text>
<text x="383.06" y="-3.8613" transform="scale(1, -1)"
	style="font-family:Times;font-weight:normal;font-style:normal;font-size:12px">Costs</text>
<text x="70.305" y="-18.634" transform="scale(1, -1)"
	style="font-family:Times;font-weight:normal;font-style:normal;font-size:10px">0</text>
<text x="343.07" y="-18.634" transform="scale(1, -1)"
	style="font-family:Times;font-weight:normal;font-style:normal;font-size:10px">300</text>
<text x="620.84" y="-18.634" transform="scale(1, -1)"
	style="font-family:Times;font-weight:normal;font-style:normal;font-size:10px">600</text>
<path d="M72.805,28.263L72.805,36.263" style="fill:none;stroke:#000000;stroke-width:0.5" />
<path d="M350.57,28.263L350.57,36.263" style="fill:none;stroke:#000000;stroke-width:0.5" />
<path d="M628.34,28.263L628.34,36.263" style="fill:none;stroke:#000000;stroke-width:0.5" />
<path d="M165.39,32.263L165.39,36.263" style="fill:none;stroke:#000000;stroke-width:0.5" />
<path d="M257.98,32.263L257.98,36.263" style="fill:none;stroke:#000000;stroke-width:0.5" />
<path d="M443.16,32.263L443.16,36.263" style="fill:none;stroke:#000000;stroke-width:0.5" />
<path d="M535.75,32.263L535.75,36.263" style="fill:none;stroke:#000000;stroke-width:0.5" />
<path d="M72.805,36.263L720,36.263" style="fill:none;stroke:#000000;stroke-width:0.5" />
<g transform="rotate(90)">
<text x="150.68" y="11.555" transform="scale(1, -1)"
	style="font-family:Times;font-weight:normal;font-style:normal;font-size:12px">Number of trials (1000000 total)</text>
</g>
<text x="24.055" y="-82.488" transform="scale(1, -1)"
	style="font-family:Times;font-weight:normal;font-style:normal;font-size:10px">2500.00</text>
<text x="19.055" y="-244.72" transform="scale(1, -1)"
	style="font-family:Times;font-weight:normal;font-style:normal;font-size:10px">12500.00</text>
<text x="19.055" y="-406.96" transform="scale(1, -1)"
	style="font-family:Times;font-weight:normal;font-style:normal;font-size:10px">22500.00</text>
<path d="M59.055,85.694L67.055,85.694" style="fill:none;stroke:#000000;stroke-width:0.5" />
<path d="M59.055,247.93L67.055,247.93" style="fill:none;stroke:#000000;stroke-width:0.5" />
<path d="M59.055,410.16L67.055,410.16" style="fill:none;stroke:#000000;stroke-width:0.5" />
<path d="M63.055,166.81L67.055,166.81" style="fill:none;stroke:#000000;stroke-width:0.5" />
<path d="M63.055,329.04L67.055,329.04" style="fill:none;stroke:#000000;stroke-width:0.5" />
<path d="M67.055,45.151L67.055,412.84" style="fill:none;stroke:#000000;stroke-width:0.5" />
<path d="M72.805,412.84L93.174,70.622L94.1,59.087L96.878,69.227L97.804,72.715L98.73,69.519L99.655,67.523L101.51,149.29L102.43,113L103.36,68.464L104.28,112.4L105.21,68.724L106.14,68.659L107.06,92.816L108.91,90.123L109.84,76.544L110.77,148.67L111.69,96.385L112.62,91.193L113.54,141.71L114.47,77.176L115.4,84.509L117.25,46.563L118.17,111.02L119.1,97.634L120.02,47.552L120.95,46.271L121.88,127.32L122.8,124.03L123.73,53.133L124.65,79.577L125.58,106.13L126.51,59.606L127.43,87.332L128.36,86.488L129.28,109.88L130.21,90.025L131.14,122.21L132.06,68.399L132.99,79.512L133.91,80.34L134.84,79.074L135.77,87.689L136.69,78.296L137.62,84.85L138.54,118.01L139.47,105.57L140.39,104.55L141.32,88.614L142.25,120.02L143.17,114L144.1,141.89L145.02,103.13L145.95,86.067L146.88,110.84L147.8,116.58L148.73,101.33L149.65,110.65L150.58,115.03L151.51,138.42L152.43,110.71L153.36,117.48L154.28,119.86L155.21,107.21L156.13,122.99L157.06,112.67L157.99,105.15L158.91,121.19L159.84,134.74L160.76,123.32L161.69,102.52L162.62,118.27L163.54,122.39L164.47,112.62L165.39,112.06L166.32,98.283L167.25,127.61L168.17,132.64L169.1,119.88L170.02,113.13L170.95,119.08L171.87,126.58L172.8,107.4L173.73,111.41L174.65,118.74L175.58,117.8L176.5,120.67L177.43,118.68L178.36,121.4L179.28,120.96L180.21,129.4L181.13,124.66L182.06,123.28L182.99,122.15L183.91,127.13L184.84,129.87L185.76,120.48L186.69,116.13L187.61,124.87L188.54,125.73L189.47,126.17L190.39,123.67L191.32,121.14L192.24,123.69L193.17,130.58L194.1,133.89L195.02,125.91L195.95,123.33L196.87,135.94L197.8,122.62L198.73,127.29L199.65,126.56L200.58,130.29L201.5,126.15L202.43,129.95L203.35,121.71L204.28,125.02L205.21,125.26L206.13,128.57L207.06,123.25L207.98,124.35L208.91,126.8L209.84,131.8L210.76,121.53L211.69,121.29L212.61,124.05L213.54,124.87L214.47,123.45L215.39,120.75L216.32,124.31L217.24,123.64L218.17,123.54L219.09,120.93L220.02,121.24L220.95,122.44L221.87,121.76L222.8,121.99L223.72,119.23L224.65,121.35L225.58,121.61L226.5,118.74L227.43,119.36L228.35,120.38L229.28,119.99L230.21,119.78L231.13,120.77L232.06,117.48L232.98,120.12L233.91,119.99L234.83,120.78L235.76,117.12L236.69,115.97L237.61,115.9L238.54,118.79L239.46,117.49L240.39,116.71L241.32,114.17L242.24,114.57L243.17,115.5L244.09,113.05L245.02,110.94L245.95,112.93L246.87,113.26L247.8,111.85L248.72,112.22L249.65,111.85L250.58,112.71L251.5,110.69L252.43,110.9L253.35,108.24L254.28,108.2L255.2,111.25L256.13,106.91L257.06,104.74L257.98,104.98L258.91,104.87L259.83,106.64L260.76,105.73L261.69,103.96L262.61,105.03L263.54,104.79L264.46,103.62L265.39,102.18L266.32,100.89L267.24,103.21L268.17,101.25L269.09,101.27L270.02,98.867L270.94,101.01L271.87,98.867L272.8,98.137L273.72,97.391L274.65,97.504L275.57,96.417L276.5,97.293L277.43,96.158L278.35,94.535L279.28,95.136L280.2,95.168L281.13,94.195L282.06,94.113L282.98,91.096L283.91,91.258L284.83,90.512L285.76,90.934L286.68,91.323L287.61,91.096L288.54,89.717L289.46,88.987L290.39,88.841L291.31,88.452L292.24,87.316L293.17,86.683L294.09,84.866L295.02,85.823L295.94,83.325L296.87,84.039L297.8,85.256L298.72,83.552L299.65,82.644L300.57,83.065L301.5,82.919L302.42,81.508L303.35,80.81L304.28,81.865L305.2,81.281L306.13,79.285L307.05,77.987L307.98,78.458L308.91,78.799L309.83,77.89L310.76,76.625L311.68,77.192L312.61,76.398L313.54,75.635L314.46,75.83L315.39,75.521L316.31,74.808L317.24,74.678L318.16,73.867L319.09,73.932L320.02,72.764L320.94,72.017L321.87,72.358L322.79,72.196L323.72,71.206L324.65,71.644L325.57,69.6L326.5,70.006L327.42,68.919L328.35,69.892L329.28,68.773L330.2,68.74L331.13,68.351L332.05,68.351L332.98,68.448L333.9,67.069L334.83,66.209L335.76,67.361L336.68,66.907L337.61,66.193L338.53,66.453L339.46,65.139L340.39,64.944L341.31,64.847L342.24,65.041L343.16,64.506L344.09,63.386L345.02,63.224L345.94,63.224L346.87,63.208L347.79,63.192L348.72,61.391L349.65,61.31L350.57,61.715L351.5,61.537L352.42,61.002L353.35,61.375L354.27,60.807L355.2,59.882L356.13,60.223L357.05,59.071L357.98,58.795L358.9,58.698L359.83,58.649L360.76,58.276L361.68,58.146L362.61,57.53L363.53,57.303L364.46,56.784L365.39,56.881L366.31,56.735L367.24,56.329L368.16,56.865L369.09,55.648L370.01,55.34L370.94,55.421L371.87,55.518L372.79,55.486L373.72,55.502L374.64,54.464L375.57,54.999L376.5,54.966L377.42,54.415L378.35,53.912L379.27,54.658L380.2,54.318L381.13,54.399L382.05,53.847L382.98,53.523L383.9,53.815L384.83,53.928L385.75,52.484L386.68,52.452L387.61,52.647L388.53,52.598L389.46,52.76L390.38,52.127L391.31,52.371L392.24,52.046L393.16,51.608L394.09,51.251L395.01,51.349L395.94,50.976L396.87,51.754L397.79,51.089L398.72,50.894L399.64,50.83L400.57,50.846L401.49,50.554L402.42,50.067L403.35,50.083L404.27,50.408L405.2,50.343L406.12,50.099L407.05,50.57L407.98,49.856L408.9,49.824L409.83,49.807L410.75,49.515L411.68,49.434L412.61,49.061L413.53,49.353L414.46,48.883L415.38,48.818L416.31,49.142L417.23,48.542L418.16,48.996L419.09,48.834L420.01,48.364L420.94,48.445L421.86,48.412L422.79,48.396L423.72,48.542L424.64,48.088L425.57,48.072L426.49,48.38L427.42,47.942L428.35,47.731L429.27,47.617L430.2,47.488L431.12,47.715L432.05,47.666L432.97,47.909L433.9,47.39L434.83,47.342L435.75,47.26L436.68,47.066L437.6,47.163L438.53,47.358L439.46,46.903L440.38,46.985L441.31,47.309L442.23,46.887L443.16,46.839L444.09,46.887L445.01,47.147L445.94,46.92L446.86,46.595L447.79,46.871L448.71,46.676L449.64,46.611L450.57,46.595L451.49,46.79L452.42,46.693L453.34,46.806L454.27,46.644L455.2,46.433L456.12,46.741L457.05,46.401L457.97,46.271L458.9,46.141L459.83,46.319L460.75,46.401L461.68,45.914L462.6,46.19L463.53,46.238L464.46,45.995L465.38,46.141L466.31,46.271L467.23,45.995L468.16,46.222L469.08,46.011L470.01,45.881L470.94,46.222L471.86,45.914L472.79,45.946L473.71,45.946L474.64,45.881L475.57,45.849L476.49,46.011L477.42,45.833L478.34,45.671L479.27,45.817L480.2,45.752L481.12,45.8L482.05,45.8L482.97,45.833L483.9,45.671L484.82,45.817L485.75,45.719L486.68,45.8L487.6,45.654L488.53,45.671L489.45,45.573L490.38,45.671L491.31,45.703L492.23,45.622L493.16,45.411L494.08,45.541L495.01,45.492L495.94,45.525L496.86,45.476L497.79,45.476L498.71,45.314L499.64,45.46L500.56,45.476L501.49,45.492L502.42,45.508L503.34,45.476L504.27,45.411L505.19,45.346L506.12,45.443L507.05,45.395L507.97,45.346L508.9,45.557L509.82,45.281L510.75,45.314L511.68,45.346L512.6,45.427L513.53,45.346L514.45,45.443L515.38,45.297L516.3,45.395L517.23,45.378L518.16,45.281L519.08,45.314L520.01,45.362L520.93,45.281L521.86,45.281L522.79,45.297L523.71,45.33L524.64,45.232L525.56,45.216L526.49,45.249L527.42,45.265L528.34,45.184L529.27,45.249L530.19,45.2L531.12,45.232L532.04,45.249L532.97,45.216L533.9,45.281L534.82,45.216L535.75,45.33L536.67,45.232L537.6,45.249L538.53,45.249L539.45,45.265L540.38,45.2L541.3,45.249L542.23,45.265L543.16,45.216L544.08,45.168L545.01,45.216L545.93,45.249L546.86,45.232L547.78,45.249L548.71,45.151L549.64,45.232L550.56,45.2L551.49,45.184L552.41,45.184L553.34,45.168L554.27,45.184L555.19,45.2L556.12,45.184L557.04,45.184L557.97,45.184L558.9,45.2L559.82,45.184L560.75,45.2L561.67,45.2L562.6,45.168L563.53,45.151L564.45,45.151L565.38,45.2L566.3,45.168L568.15,45.168L569.08,45.168L570.01,45.184L570.93,45.216L571.86,45.151L572.78,45.168L573.71,45.151L574.64,45.168L575.56,45.151L577.41,45.184L578.34,45.151L579.27,45.151L580.19,45.184L582.04,45.151L582.97,45.168L583.89,45.151L587.6,45.151L588.52,45.151L589.45,45.151L591.3,45.151L592.23,45.151L593.15,45.151L594.08,45.168L595.01,45.184L596.86,45.151L597.78,45.151L598.71,45.184L600.56,45.151L601.49,45.151L603.34,45.168L605.19,45.151L607.04,45.151L611.67,45.151L612.6,45.168L627.41,45.151L630.19,45.151L632.04,45.151L644.08,45.151L649.63,45.151L689.45,45.151L720,45.151" style="fill:none;stroke:#0000FF" />
</g>
</svg>
