<?xml version="1.0"?>
<!-- Generated by SVGo and Plotinum VG -->
<svg width="720pt" height="432pt" viewBox="0 0 720 432"
	xmlns="http://www.w3.org/2000/svg"
	xmlns:xlink="http://www.w3.org/1999/xlink">
<g transform="scale(1, -1) translate(0, -432)">
<path d="M0,0L720,0L720,432L0,432Z" style="fill:#FFFFFF" />
<text x="358.5" y="-420.45" transform="scale(1, -1)"
	style="font-family:Times;font-weight:normal;font-style:normal;font-size:12px"> </text>
<text x="376.81" y="-3.8613" transform="scale(1, -1)"
	style="font-family:Times;font-weight:normal;font-style:normal;font-size:12px">Costs</text>
<text x="57.805" y="-18.634" transform="scale(1, -1)"
	style="font-family:Times;font-weight:normal;font-style:normal;font-size:10px">0</text>
<text x="374.08" y="-18.634" transform="scale(1, -1)"
	style="font-family:Times;font-weight:normal;font-style:normal;font-size:10px">300</text>
<text x="695.37" y="-18.634" transform="scale(1, -1)"
	style="font-family:Times;font-weight:normal;font-style:normal;font-size:10px">600</text>
<path d="M60.305,28.263L60.305,36.263" style="fill:none;stroke:#000000;stroke-width:0.5" />
<path d="M381.58,28.263L381.58,36.263" style="fill:none;stroke:#000000;stroke-width:0.5" />
<path d="M702.87,28.263L702.87,36.263" style="fill:none;stroke:#000000;stroke-width:0.5" />
<path d="M167.4,32.263L167.4,36.263" style="fill:none;stroke:#000000;stroke-width:0.5" />
<path d="M274.49,32.263L274.49,36.263" style="fill:none;stroke:#000000;stroke-width:0.5" />
<path d="M488.68,32.263L488.68,36.263" style="fill:none;stroke:#000000;stroke-width:0.5" />
<path d="M595.77,32.263L595.77,36.263" style="fill:none;stroke:#000000;stroke-width:0.5" />
<path d="M60.305,36.263L720,36.263" style="fill:none;stroke:#000000;stroke-width:0.5" />
<g transform="rotate(90)">
<text x="152.55" y="11.555" transform="scale(1, -1)"
	style="font-family:Times;font-weight:normal;font-style:normal;font-size:12px">Number of trials (1000000 total)</text>
</g>
<text x="24.055" y="-89.593" transform="scale(1, -1)"
	style="font-family:Times;font-weight:normal;font-style:normal;font-size:10px">4000</text>
<text x="19.055" y="-232.57" transform="scale(1, -1)"
	style="font-family:Times;font-weight:normal;font-style:normal;font-size:10px">16000</text>
<text x="19.055" y="-375.55" transform="scale(1, -1)"
	style="font-family:Times;font-weight:normal;font-style:normal;font-size:10px">28000</text>
<path d="M46.555,92.799L54.555,92.799" style="fill:none;stroke:#000000;stroke-width:0.5" />
<path d="M46.555,235.78L54.555,235.78" style="fill:none;stroke:#000000;stroke-width:0.5" />
<path d="M46.555,378.75L54.555,378.75" style="fill:none;stroke:#000000;stroke-width:0.5" />
<path d="M50.555,164.29L54.555,164.29" style="fill:none;stroke:#000000;stroke-width:0.5" />
<path d="M50.555,307.27L54.555,307.27" style="fill:none;stroke:#000000;stroke-width:0.5" />
<path d="M54.555,45.151L54.555,416.58" style="fill:none;stroke:#000000;stroke-width:0.5" />
<path d="M60.305,416.58L83.865,74.104L84.936,54.993L88.149,70.089L89.22,66.598L90.291,83.886L91.362,75.689L92.433,52.026L93.504,89.963L94.575,89.856L95.646,68.123L96.716,93.478L97.787,78.858L98.858,73.783L99.929,103.94L101,52.658L102.07,101.66L103.14,97.112L104.21,139.21L105.28,92.918L106.35,99.519L107.43,125.78L108.5,85.376L109.57,56.268L111.71,47.236L112.78,86.067L113.85,103.47L114.92,55.517L115.99,46.617L117.06,98.53L118.14,98.851L119.21,52.825L120.28,88.152L121.35,113.16L122.42,62.38L123.49,87.497L124.56,83.195L125.63,86.389L126.7,93.132L127.77,83.898L128.84,65.907L129.92,72.484L130.99,75.236L132.06,85.185L133.13,79.752L134.2,81.063L135.27,83.481L136.34,120.32L137.41,93.394L138.48,98.911L139.55,89.451L140.62,94.646L141.7,100.09L142.77,102.34L143.84,99.352L144.91,92.227L145.98,104.44L147.05,110.73L148.12,101.87L149.19,102.95L150.26,105.6L151.33,113.4L152.41,97.874L153.48,98.208L154.55,101.47L155.62,99.602L156.69,102.18L157.76,100.5L158.83,93.811L159.9,106.85L160.97,113.33L162.04,99.721L163.11,98.089L164.19,105.38L165.26,108.57L166.33,106.81L167.4,104.71L168.47,101.01L169.54,104.03L170.61,108.49L171.68,100.78L172.75,96.528L173.82,101.72L174.89,101.97L175.97,93.907L177.04,95.349L178.11,106.92L179.18,103.46L180.25,107.44L181.32,106.52L182.39,102.16L183.46,105.95L184.53,109.6L185.6,106.52L186.67,103.84L187.75,105.01L188.82,108.09L189.89,108.37L190.96,104.62L192.03,102.62L193.1,106.48L194.17,108.06L195.24,104.11L196.31,105.12L197.38,105.5L198.46,105.19L199.53,108.97L200.6,108.96L201.67,105.08L202.74,107.61L203.81,107.85L204.88,105.61L205.95,105.14L207.02,105.37L208.09,108.97L209.16,107.04L210.24,105.19L211.31,103.86L212.38,105.92L213.45,103.94L214.52,105.24L215.59,102.38L216.66,101.28L217.73,104.23L218.8,102.97L219.87,100.65L220.94,102.1L222.02,102.19L223.09,102.6L224.16,103.28L225.23,101.28L226.3,101.83L227.37,101.79L228.44,101.99L229.51,99.221L230.58,101.02L231.65,99.638L232.73,99.65L233.8,98.863L234.87,97.6L235.94,97.446L237.01,99.09L238.08,97.863L239.15,97.851L240.22,96.945L241.29,98.041L242.36,95.277L243.43,97.815L244.51,97.314L245.58,96.838L246.65,95.92L247.72,95.444L248.79,94.05L249.86,94.419L250.93,95.777L252,92.918L253.07,94.574L254.14,93.811L255.21,92.406L256.29,93.132L257.36,91.119L258.43,92.132L259.5,90.428L260.57,91.941L261.64,91.965L262.71,91.166L263.78,90.13L264.85,90.392L265.92,89.367L266.99,89.808L268.07,87.425L269.14,87.675L270.21,87.616L271.28,86.508L272.35,86.71L273.42,85.674L274.49,85.066L275.56,85.507L276.63,83.493L277.7,84.018L278.78,83.72L279.85,84.804L280.92,84.256L281.99,83.732L283.06,81.372L284.13,81.682L285.2,81.754L286.27,82.731L287.34,80.407L288.41,80.574L289.48,80.86L290.56,79.287L291.63,79.263L292.7,78.072L293.77,79.502L294.84,77.798L295.91,77.381L296.98,76.94L298.05,77.25L299.12,76.654L300.19,75.689L301.26,75.844L302.34,75.069L303.41,73.389L304.48,75.01L305.55,73.759L306.62,72.698L307.69,73.616L308.76,74.247L309.83,72.436L310.9,71.841L311.97,72.007L313.05,71.245L314.12,70.292L315.19,70.137L316.26,70.435L317.33,70.47L318.4,69.827L319.47,69.791L320.54,69.422L321.61,67.825L322.68,68.612L323.75,68.802L324.83,68.504L325.9,67.527L326.97,67.23L328.04,66.848L329.11,66.05L330.18,66.932L331.25,65.8L332.32,66.241L333.39,64.811L334.46,64.358L335.53,64.704L336.61,64.215L337.68,64.156L338.75,63.798L339.82,62.726L340.89,63.178L341.96,62.69L343.03,62.702L344.1,62.607L345.17,62.201L346.24,62.047L347.31,61.224L348.39,61.677L349.46,61.534L350.53,61.32L351.6,60.7L352.67,60.581L353.74,60.104L354.81,59.413L355.88,59.783L356.95,60.057L358.02,58.853L359.1,58.413L360.17,58.484L361.24,58.103L362.31,58.043L363.38,57.162L364.45,57.912L365.52,57.853L366.59,57.733L367.66,57.03L368.73,56.804L369.8,56.423L370.88,56.661L371.95,56.673L373.02,55.839L374.09,55.398L375.16,55.529L376.23,55.315L377.3,55.231L378.37,54.91L379.44,54.91L380.51,54.445L381.58,53.945L382.66,54.135L383.73,54.016L384.8,54.528L385.87,53.599L386.94,53.718L388.01,53.23L389.08,53.146L390.15,53.516L391.22,52.61L392.29,52.801L393.37,52.717L394.44,52.586L395.51,52.622L396.58,52.086L397.65,52.36L398.72,52.074L399.79,51.919L400.86,51.669L401.93,52.014L403,51.645L404.07,51.287L405.15,51.585L406.22,51.002L407.29,51.097L408.36,50.346L409.43,50.954L410.5,50.299L411.57,50.692L412.64,50.394L413.71,50.227L414.78,50.263L415.85,49.953L416.93,49.929L418,49.691L419.07,49.441L420.14,49.596L421.21,50.084L422.28,49.453L423.35,49.703L424.42,49.858L425.49,49.143L426.56,49.322L427.64,49.333L428.71,48.94L429.78,49L430.85,48.523L431.92,48.726L432.99,48.869L434.06,48.845L435.13,48.523L436.2,48.249L437.27,48.523L438.34,48.106L439.42,48.464L440.49,47.987L441.56,47.665L442.63,47.88L443.7,48.202L444.77,47.379L445.84,47.928L446.91,47.689L447.98,47.677L449.05,47.391L450.12,47.439L451.2,47.642L452.27,47.463L453.34,47.415L454.41,47.391L455.48,47.308L456.55,47.308L457.62,47.046L458.69,46.665L459.76,47.117L460.83,47.26L461.9,47.117L462.98,46.927L464.05,46.986L465.12,46.819L466.19,47.01L467.26,47.01L468.33,46.891L469.4,46.51L470.47,46.641L471.54,46.498L472.61,46.724L473.69,46.224L474.76,46.533L475.83,46.557L476.9,46.498L477.97,46.438L479.04,46.319L480.11,46.176L481.18,46.152L482.25,46.14L483.32,46.105L484.39,46.379L485.47,46.14L486.54,46.188L487.61,46.176L488.68,46.081L489.75,46.021L490.82,46.14L491.89,46.093L492.96,46.069L494.03,46.105L495.1,46.116L496.17,45.997L497.25,46.128L498.32,45.902L499.39,45.902L500.46,45.878L501.53,45.807L502.6,46.009L503.67,45.89L504.74,45.831L505.81,45.842L506.88,45.795L507.96,45.819L509.03,45.842L510.1,45.902L511.17,45.592L512.24,45.676L513.31,45.723L514.38,45.807L515.45,45.747L516.52,45.628L517.59,45.664L518.66,45.592L519.74,45.616L520.81,45.521L521.88,45.509L522.95,45.556L524.02,45.64L525.09,45.604L526.16,45.592L527.23,45.485L528.3,45.58L529.37,45.461L530.44,45.497L531.52,45.461L532.59,45.461L533.66,45.449L534.73,45.473L535.8,45.461L536.87,45.485L537.94,45.545L539.01,45.413L540.08,45.413L541.15,45.318L542.22,45.533L543.3,45.39L544.37,45.402L545.44,45.413L546.51,45.354L547.58,45.318L548.65,45.39L549.72,45.306L550.79,45.294L551.86,45.342L552.93,45.354L554.01,45.33L555.08,45.342L556.15,45.354L557.22,45.306L558.29,45.223L559.36,45.342L560.43,45.259L561.5,45.318L562.57,45.354L563.64,45.306L564.71,45.259L565.79,45.223L566.86,45.342L567.93,45.211L569,45.366L570.07,45.259L571.14,45.294L572.21,45.271L573.28,45.282L574.35,45.223L575.42,45.199L576.49,45.282L577.57,45.259L578.64,45.199L579.71,45.187L580.78,45.259L581.85,45.235L582.92,45.211L583.99,45.187L585.06,45.235L586.13,45.199L587.2,45.211L588.28,45.199L589.35,45.259L590.42,45.247L591.49,45.175L592.56,45.211L593.63,45.151L594.7,45.223L595.77,45.151L596.84,45.199L597.91,45.175L598.98,45.175L600.06,45.163L601.13,45.163L602.2,45.211L604.34,45.187L605.41,45.211L606.48,45.175L607.55,45.187L608.62,45.187L609.69,45.175L610.76,45.151L611.84,45.187L613.98,45.175L615.05,45.151L616.12,45.175L617.19,45.175L618.26,45.199L619.33,45.163L620.4,45.187L621.47,45.151L622.55,45.187L623.62,45.175L624.69,45.163L627.9,45.175L628.97,45.175L630.04,45.163L631.11,45.151L633.25,45.163L635.4,45.163L636.47,45.163L637.54,45.163L638.61,45.175L639.68,45.151L641.82,45.187L645.03,45.175L646.11,45.151L647.18,45.151L648.25,45.151L649.32,45.163L651.46,45.163L653.6,45.151L658.96,45.151L660.03,45.163L662.17,45.151L663.24,45.151L665.38,45.151L666.45,45.151L668.6,45.151L676.09,45.151L677.16,45.163L678.23,45.151L686.8,45.151L692.16,45.151L703.94,45.151L720,45.151" style="fill:none;stroke:#0000FF" />
</g>
</svg>
