<?xml version="1.0"?>
<!-- Generated by SVGo and Plotinum VG -->
<svg width="720pt" height="432pt" viewBox="0 0 720 432"
	xmlns="http://www.w3.org/2000/svg"
	xmlns:xlink="http://www.w3.org/1999/xlink">
<g transform="scale(1, -1) translate(0, -432)">
<path d="M0,0L720,0L720,432L0,432Z" style="fill:#FFFFFF" />
<text x="358.5" y="-420.45" transform="scale(1, -1)"
	style="font-family:Times;font-weight:normal;font-style:normal;font-size:12px"> </text>
<text x="385.56" y="-3.8613" transform="scale(1, -1)"
	style="font-family:Times;font-weight:normal;font-style:normal;font-size:12px">Costs</text>
<text x="75.305" y="-18.634" transform="scale(1, -1)"
	style="font-family:Times;font-weight:normal;font-style:normal;font-size:10px">0</text>
<text x="345.92" y="-18.634" transform="scale(1, -1)"
	style="font-family:Times;font-weight:normal;font-style:normal;font-size:10px">200</text>
<text x="621.55" y="-18.634" transform="scale(1, -1)"
	style="font-family:Times;font-weight:normal;font-style:normal;font-size:10px">400</text>
<path d="M77.805,28.263L77.805,36.263" style="fill:none;stroke:#000000;stroke-width:0.5" />
<path d="M353.42,28.263L353.42,36.263" style="fill:none;stroke:#000000;stroke-width:0.5" />
<path d="M629.05,28.263L629.05,36.263" style="fill:none;stroke:#000000;stroke-width:0.5" />
<path d="M215.61,32.263L215.61,36.263" style="fill:none;stroke:#000000;stroke-width:0.5" />
<path d="M491.24,32.263L491.24,36.263" style="fill:none;stroke:#000000;stroke-width:0.5" />
<path d="M77.805,36.263L720,36.263" style="fill:none;stroke:#000000;stroke-width:0.5" />
<g transform="rotate(90)">
<text x="152.55" y="11.555" transform="scale(1, -1)"
	style="font-family:Times;font-weight:normal;font-style:normal;font-size:12px">Number of trials (1000000 total)</text>
</g>
<text x="24.055" y="-91.292" transform="scale(1, -1)"
	style="font-family:Times;font-weight:normal;font-style:normal;font-size:10px">25000.00</text>
<text x="19.055" y="-239.34" transform="scale(1, -1)"
	style="font-family:Times;font-weight:normal;font-style:normal;font-size:10px">100000.00</text>
<text x="19.055" y="-387.38" transform="scale(1, -1)"
	style="font-family:Times;font-weight:normal;font-style:normal;font-size:10px">175000.00</text>
<path d="M64.055,94.498L72.055,94.498" style="fill:none;stroke:#000000;stroke-width:0.5" />
<path d="M64.055,242.54L72.055,242.54" style="fill:none;stroke:#000000;stroke-width:0.5" />
<path d="M64.055,390.59L72.055,390.59" style="fill:none;stroke:#000000;stroke-width:0.5" />
<path d="M68.055,168.52L72.055,168.52" style="fill:none;stroke:#000000;stroke-width:0.5" />
<path d="M68.055,316.56L72.055,316.56" style="fill:none;stroke:#000000;stroke-width:0.5" />
<path d="M72.055,45.151L72.055,416.58" style="fill:none;stroke:#000000;stroke-width:0.5" />
<path d="M77.805,416.58L108.12,66.3L113.64,52.333L116.39,62.034L117.77,78.572L120.53,59.338L121.9,59.054L123.28,74.535L124.66,59.573L126.04,66.377L127.42,48.572L128.79,48.489L130.17,52.044L131.55,66.949L132.93,136.33L135.68,111.72L137.06,74.606L138.44,52.248L139.82,48.543L141.2,52.107L143.95,45.568L145.33,55.647L146.71,60.232L148.09,54.111L150.84,96.989L152.22,67.889L153.6,47.577L154.98,60.449L156.36,55.426L157.73,72.382L159.11,46.63L160.49,51.18L161.87,56.221L163.25,78.063L164.63,65.234L166,52.496L167.38,49.571L168.76,49.504L170.14,49.123L171.52,55.201L172.89,55.224L174.27,49.816L175.65,58.292L177.03,54.488L178.41,57.042L179.78,54.083L181.16,60.901L182.54,52.605L183.92,53.096L185.3,52.909L186.67,55.617L188.05,61.111L189.43,74.119L190.81,70.789L192.19,57.415L193.57,56.446L194.94,58.185L196.32,55.615L197.7,53.045L199.08,52.97L200.46,54.646L201.83,54.524L203.21,56.851L204.59,55.554L205.97,65.285L207.35,55.175L208.72,60.189L210.1,61.492L211.48,54.968L212.86,56.926L214.24,51.397L215.61,54.569L216.99,53.152L218.37,57.7L219.75,57.226L221.13,55.59L222.51,53.777L223.88,52.666L225.26,53.166L226.64,50.588L228.02,51.956L229.4,52.475L230.77,54.32L232.15,52.303L233.53,52.121L234.91,53.527L236.29,55.481L237.66,54.143L239.04,51.462L240.42,51.097L241.8,51.466L243.18,53.531L244.55,56.026L245.93,52.161L247.31,54.188L248.69,53.821L250.07,52.781L251.45,50.734L252.82,50.747L254.2,50.443L255.58,50.37L256.96,50.361L258.34,51.707L259.71,50.854L261.09,51.715L262.47,53.108L263.85,53.175L265.23,51.563L266.6,51.338L267.98,51.454L269.36,51.223L270.74,49.978L272.12,49.541L273.5,50.597L274.87,51.732L276.25,51.233L277.63,50.128L279.01,49.901L280.39,49.691L281.76,49.111L283.14,49.966L284.52,49.332L285.9,49.516L287.28,49.129L288.65,49.458L290.03,49.535L291.41,49.575L292.79,49.575L294.17,49.31L295.54,48.868L296.92,48.584L298.3,48.746L299.68,48.931L301.06,48.398L302.44,49.231L303.81,48.714L305.19,48.606L306.57,48.343L307.95,48.264L309.33,47.954L310.7,47.864L312.08,47.812L313.46,47.992L314.84,48.021L316.22,48.083L317.59,48.393L318.97,47.988L320.35,48.029L321.73,48.063L323.11,47.796L324.48,47.684L325.86,47.481L327.24,47.51L328.62,47.4L330,47.581L331.38,47.601L332.75,47.406L334.13,47.374L335.51,47.252L336.89,47.167L338.27,47.1L339.64,46.985L341.02,46.881L342.4,46.924L343.78,46.918L345.16,46.896L346.53,46.908L347.91,47.036L349.29,46.95L350.67,46.731L352.05,46.656L353.42,46.65L354.8,46.6L356.18,46.557L357.56,46.584L358.94,46.361L360.32,46.505L361.69,46.569L363.07,46.438L364.45,46.292L365.83,46.273L367.21,46.316L368.58,46.247L369.96,46.265L371.34,46.298L372.72,46.251L374.1,46.117L375.47,46.263L376.85,46.207L378.23,46.113L379.61,46.15L380.99,46.016L382.37,46.004L383.74,45.945L385.12,45.973L386.5,45.915L387.88,46.018L389.26,45.941L390.63,45.939L392.01,45.862L393.39,45.874L394.77,45.901L396.15,45.856L397.52,45.767L398.9,45.799L400.28,45.832L401.66,45.815L403.04,45.73L404.41,45.71L405.79,45.73L407.17,45.682L408.55,45.653L409.93,45.716L411.31,45.661L412.68,45.59L414.06,45.597L415.44,45.584L416.82,45.592L418.2,45.613L419.57,45.562L420.95,45.558L422.33,45.513L423.71,45.522L425.09,45.487L426.46,45.497L427.84,45.532L429.22,45.471L430.6,45.499L431.98,45.426L433.35,45.444L434.73,45.428L436.11,45.467L437.49,45.434L438.87,45.402L440.25,45.418L441.62,45.43L443,45.386L444.38,45.368L445.76,45.374L447.14,45.361L448.51,45.38L449.89,45.392L451.27,45.365L452.65,45.331L454.03,45.303L455.4,45.327L456.78,45.323L458.16,45.299L459.54,45.315L460.92,45.339L462.3,45.339L463.67,45.284L465.05,45.319L466.43,45.272L467.81,45.293L469.19,45.284L470.56,45.288L471.94,45.284L473.32,45.278L474.7,45.282L476.08,45.254L477.45,45.254L478.83,45.256L480.21,45.26L481.59,45.262L482.97,45.246L484.34,45.274L485.72,45.23L487.1,45.236L488.48,45.224L489.86,45.246L491.24,45.24L492.61,45.236L493.99,45.24L495.37,45.199L496.75,45.209L498.13,45.215L499.5,45.218L500.88,45.23L502.26,45.209L503.64,45.22L505.02,45.211L506.39,45.207L507.77,45.205L509.15,45.203L510.53,45.201L511.91,45.181L513.28,45.201L514.66,45.205L516.04,45.199L517.42,45.197L518.8,45.193L520.18,45.187L521.55,45.193L522.93,45.181L524.31,45.183L525.69,45.181L527.07,45.185L528.44,45.177L529.82,45.179L531.2,45.185L532.58,45.161L533.96,45.177L535.33,45.171L536.71,45.165L538.09,45.177L539.47,45.175L540.85,45.171L542.22,45.169L543.6,45.167L544.98,45.173L546.36,45.169L547.74,45.163L549.12,45.179L550.49,45.167L551.87,45.171L553.25,45.163L554.63,45.167L556.01,45.161L557.38,45.171L558.76,45.161L560.14,45.161L561.52,45.165L562.9,45.159L564.27,45.169L565.65,45.169L567.03,45.161L568.41,45.165L569.79,45.161L571.17,45.161L572.54,45.157L573.92,45.159L575.3,45.151L576.68,45.161L578.06,45.161L579.43,45.157L580.81,45.159L582.19,45.155L583.57,45.155L584.95,45.159L586.32,45.151L587.7,45.153L589.08,45.155L590.46,45.159L591.84,45.155L593.21,45.153L594.59,45.151L595.97,45.153L597.35,45.155L600.11,45.151L604.24,45.155L605.62,45.153L607,45.155L608.37,45.155L609.75,45.155L611.13,45.153L613.89,45.153L615.26,45.151L616.64,45.151L618.02,45.155L619.4,45.151L620.78,45.151L622.15,45.151L624.91,45.155L627.67,45.153L629.05,45.153L630.42,45.151L631.8,45.153L633.18,45.153L634.56,45.153L635.94,45.151L637.31,45.151L638.69,45.151L641.45,45.155L652.47,45.153L660.74,45.151L664.88,45.151L667.63,45.151L680.04,45.151L703.46,45.151L720,45.151" style="fill:none;stroke:#0000FF" />
</g>
</svg>
