<?xml version="1.0"?>
<!-- Generated by SVGo and Plotinum VG -->
<svg width="720pt" height="432pt" viewBox="0 0 720 432"
	xmlns="http://www.w3.org/2000/svg"
	xmlns:xlink="http://www.w3.org/1999/xlink">
<g transform="scale(1, -1) translate(0, -432)">
<path d="M0,0L720,0L720,432L0,432Z" style="fill:#FFFFFF" />
<text x="358.5" y="-420.45" transform="scale(1, -1)"
	style="font-family:Times;font-weight:normal;font-style:normal;font-size:12px"> </text>
<text x="385.56" y="-3.8613" transform="scale(1, -1)"
	style="font-family:Times;font-weight:normal;font-style:normal;font-size:12px">Costs</text>
<text x="69.055" y="-18.634" transform="scale(1, -1)"
	style="font-family:Times;font-weight:normal;font-style:normal;font-size:10px">0.00</text>
<text x="377.63" y="-18.634" transform="scale(1, -1)"
	style="font-family:Times;font-weight:normal;font-style:normal;font-size:10px">250.00</text>
<text x="691.2" y="-18.634" transform="scale(1, -1)"
	style="font-family:Times;font-weight:normal;font-style:normal;font-size:10px">500.00</text>
<path d="M77.805,28.263L77.805,36.263" style="fill:none;stroke:#000000;stroke-width:0.5" />
<path d="M391.38,28.263L391.38,36.263" style="fill:none;stroke:#000000;stroke-width:0.5" />
<path d="M704.95,28.263L704.95,36.263" style="fill:none;stroke:#000000;stroke-width:0.5" />
<path d="M140.52,32.263L140.52,36.263" style="fill:none;stroke:#000000;stroke-width:0.5" />
<path d="M203.23,32.263L203.23,36.263" style="fill:none;stroke:#000000;stroke-width:0.5" />
<path d="M265.95,32.263L265.95,36.263" style="fill:none;stroke:#000000;stroke-width:0.5" />
<path d="M328.66,32.263L328.66,36.263" style="fill:none;stroke:#000000;stroke-width:0.5" />
<path d="M454.09,32.263L454.09,36.263" style="fill:none;stroke:#000000;stroke-width:0.5" />
<path d="M516.81,32.263L516.81,36.263" style="fill:none;stroke:#000000;stroke-width:0.5" />
<path d="M579.52,32.263L579.52,36.263" style="fill:none;stroke:#000000;stroke-width:0.5" />
<path d="M642.23,32.263L642.23,36.263" style="fill:none;stroke:#000000;stroke-width:0.5" />
<path d="M77.805,36.263L720,36.263" style="fill:none;stroke:#000000;stroke-width:0.5" />
<g transform="rotate(90)">
<text x="150.78" y="11.555" transform="scale(1, -1)"
	style="font-family:Times;font-weight:normal;font-style:normal;font-size:12px">Number of trials (1000000 total)</text>
</g>
<text x="24.055" y="-94.088" transform="scale(1, -1)"
	style="font-family:Times;font-weight:normal;font-style:normal;font-size:10px">25000.00</text>
<text x="19.055" y="-250.52" transform="scale(1, -1)"
	style="font-family:Times;font-weight:normal;font-style:normal;font-size:10px">100000.00</text>
<text x="19.055" y="-406.96" transform="scale(1, -1)"
	style="font-family:Times;font-weight:normal;font-style:normal;font-size:10px">175000.00</text>
<path d="M64.055,97.294L72.055,97.294" style="fill:none;stroke:#000000;stroke-width:0.5" />
<path d="M64.055,253.73L72.055,253.73" style="fill:none;stroke:#000000;stroke-width:0.5" />
<path d="M64.055,410.16L72.055,410.16" style="fill:none;stroke:#000000;stroke-width:0.5" />
<path d="M68.055,175.51L72.055,175.51" style="fill:none;stroke:#000000;stroke-width:0.5" />
<path d="M68.055,331.94L72.055,331.94" style="fill:none;stroke:#000000;stroke-width:0.5" />
<path d="M72.055,45.151L72.055,413.04" style="fill:none;stroke:#000000;stroke-width:0.5" />
<path d="M77.805,413.04L106.65,52.087L110.42,59.524L114.18,59.658L116.69,48.591L119.2,52.172L120.45,62.983L122.96,78.261L127.98,55.486L129.23,78.495L130.48,70.817L131.74,101.84L134.25,51.916L135.5,81.913L139.26,66.998L140.52,92.013L141.77,78.334L143.03,45.439L144.28,48.681L145.54,45.21L146.79,45.527L148.04,59.658L149.3,67.613L150.55,82.341L151.81,52.802L153.06,45.827L154.32,77.329L155.57,46.703L156.82,45.911L158.08,45.804L159.33,47.112L160.59,46.613L161.84,50.591L163.1,46.417L164.35,49.262L165.6,48.126L166.86,46.599L168.11,49.657L169.37,84.124L170.62,47.702L171.88,49.402L173.13,50.37L174.38,52.377L175.64,48.42L176.89,53.724L178.15,120.99L179.4,124.71L180.66,50.602L181.91,51.626L183.16,55.19L184.42,53.786L185.67,51.87L186.93,54.773L188.18,49.36L189.44,52.564L190.69,50.693L191.94,54.064L193.2,57.856L194.45,57.57L195.71,54.731L196.96,50.848L198.22,51.982L199.47,53.305L200.72,49.415L201.98,57.092L203.23,55.048L204.49,57.213L205.74,53.044L207,52.683L208.25,56.11L209.5,47.291L210.76,53.136L212.01,60.202L213.27,53.129L214.52,56.577L215.78,52.195L217.03,51.092L218.28,49.876L219.54,49.755L220.79,56.125L222.05,54.708L223.3,58.984L224.56,55.413L225.81,49.196L227.06,53.889L228.32,49.579L229.57,55.03L230.83,61.306L232.08,68.326L233.34,62.159L234.59,49.087L235.84,56.669L237.1,55.228L238.35,47.673L239.61,53.269L240.86,63.527L242.12,66.964L243.37,54.967L244.62,48.72L245.88,52.016L247.13,48.428L248.39,50.608L249.64,55.514L250.9,59.935L252.15,56.623L253.4,50.62L254.66,54.137L255.91,55.503L257.17,49.071L258.42,48.403L259.68,48.72L260.93,48.386L262.18,49.083L263.44,49.06L264.69,49.219L265.95,50.418L267.2,48.97L268.46,49.636L269.71,56.438L270.96,55.897L272.22,49.004L273.47,49.317L274.73,50.441L275.98,50.078L277.24,49.54L278.49,50.512L279.75,63.713L281,49.108L282.25,49.189L283.51,50.499L284.76,51.39L286.02,50.38L287.27,50.36L288.53,49.798L289.78,49.075L291.03,49.546L292.29,49.123L293.54,51.181L294.8,51.868L296.05,51.642L297.31,49.838L298.56,48.975L299.81,49.571L301.07,48.772L302.32,49.538L303.58,51.44L304.83,50.987L306.09,50.51L307.34,48.989L308.59,49.796L309.85,48.551L311.1,47.575L312.36,50.107L313.61,50.065L314.87,49.043L316.12,49.319L317.37,47.911L318.63,48.322L319.88,47.358L321.14,47.911L322.39,49.035L323.65,48.754L324.9,49.379L326.15,47.396L327.41,48.582L328.66,48.242L329.92,47.17L331.17,48.357L332.43,49.033L333.68,50.62L334.93,47.206L336.19,47.179L337.44,48.355L338.7,46.883L339.95,46.922L341.21,48.487L342.46,49.955L343.71,48.674L344.97,46.785L346.22,47.692L347.48,47.658L348.73,46.841L349.99,47.371L351.24,47.744L352.49,48.386L353.75,47.07L355,46.858L356.26,48.017L357.51,47.091L358.77,46.757L360.02,46.743L361.27,46.762L362.53,46.553L363.78,46.853L365.04,46.613L366.29,47.068L367.55,46.864L368.8,46.68L370.05,46.847L371.31,48.032L372.56,46.361L373.82,46.499L375.07,46.57L376.33,46.883L377.58,46.497L378.83,46.714L380.09,46.44L381.34,46.334L382.6,46.399L383.85,46.338L385.11,46.707L386.36,46.62L387.61,46.319L388.87,46.365L390.12,46.292L391.38,46.242L392.63,46.169L393.89,46.192L395.14,46.405L396.39,46.549L397.65,46.307L398.9,46L400.16,46.198L401.41,46.042L402.67,45.879L403.92,46.286L405.17,46.33L406.43,46.201L407.68,45.975L408.94,46.025L410.19,46.134L411.45,45.763L412.7,45.792L413.95,46.107L415.21,45.923L416.46,45.838L417.72,45.796L418.97,45.879L420.23,45.756L421.48,45.721L422.73,45.802L423.99,45.725L425.24,45.894L426.5,45.689L427.75,45.681L429.01,45.854L430.26,45.596L431.51,45.575L432.77,45.642L434.02,45.783L435.28,45.677L436.53,45.51L437.79,45.583L439.04,45.606L440.29,45.558L441.55,45.635L442.8,45.633L444.06,45.706L445.31,45.523L446.57,45.502L447.82,45.648L449.07,45.506L450.33,45.508L451.58,45.504L452.84,45.456L454.09,45.414L455.35,45.498L456.6,45.435L457.85,45.487L459.11,45.45L460.36,45.454L461.62,45.437L462.87,45.418L464.13,45.418L465.38,45.358L466.63,45.433L467.89,45.477L469.14,45.45L470.4,45.362L471.65,45.391L472.91,45.391L474.16,45.331L475.41,45.324L476.67,45.4L477.92,45.389L479.18,45.337L480.43,45.356L481.69,45.329L482.94,45.337L484.19,45.295L485.45,45.299L486.7,45.327L487.96,45.299L489.21,45.262L490.47,45.308L491.72,45.289L492.97,45.302L494.23,45.249L495.48,45.295L496.74,45.277L497.99,45.258L499.25,45.266L500.5,45.266L501.75,45.272L503.01,45.214L504.26,45.249L505.52,45.293L506.77,45.243L508.03,45.243L509.28,45.222L510.53,45.22L511.79,45.247L513.04,45.26L514.3,45.251L515.55,45.206L516.81,45.21L518.06,45.237L519.31,45.226L520.57,45.239L521.82,45.214L523.08,45.206L524.33,45.204L525.59,45.206L526.84,45.199L528.09,45.21L529.35,45.195L530.6,45.201L531.86,45.21L533.11,45.197L534.37,45.201L535.62,45.212L536.87,45.187L538.13,45.201L539.38,45.191L540.64,45.183L541.89,45.174L543.15,45.195L544.4,45.183L545.65,45.187L546.91,45.197L548.16,45.185L549.42,45.197L550.67,45.193L551.93,45.183L553.18,45.185L554.43,45.178L555.69,45.178L556.94,45.174L558.2,45.183L559.45,45.162L560.71,45.181L561.96,45.174L563.21,45.162L564.47,45.174L565.72,45.168L566.98,45.181L568.23,45.17L569.49,45.168L570.74,45.168L571.99,45.168L573.25,45.174L574.5,45.17L575.76,45.166L577.01,45.17L578.27,45.164L579.52,45.158L580.77,45.164L582.03,45.164L583.28,45.164L584.54,45.153L585.79,45.16L587.05,45.162L588.3,45.16L589.55,45.162L590.81,45.164L592.06,45.162L593.32,45.158L594.57,45.156L595.83,45.16L597.08,45.156L598.33,45.158L599.59,45.158L600.84,45.16L602.1,45.16L603.35,45.151L604.61,45.162L605.86,45.162L607.11,45.16L608.37,45.158L609.62,45.158L613.39,45.156L614.64,45.156L615.89,45.158L617.15,45.151L618.4,45.153L619.66,45.151L620.91,45.153L622.17,45.151L624.67,45.153L625.93,45.151L627.18,45.153L628.44,45.151L629.69,45.153L630.95,45.151L632.2,45.151L634.71,45.156L635.96,45.151L642.23,45.151L644.74,45.153L651.01,45.153L652.27,45.151L653.52,45.153L656.03,45.151L657.29,45.151L658.54,45.151L659.79,45.151L661.05,45.151L666.07,45.151L667.32,45.153L671.08,45.151L674.85,45.151L678.61,45.151L679.86,45.151L681.12,45.153L682.37,45.151L687.39,45.151L689.9,45.151L696.17,45.153L707.46,45.151L709.97,45.151L714.98,45.151L720,45.151" style="fill:none;stroke:#0000FF" />
</g>
</svg>
