<?xml version="1.0"?>
<!-- Generated by SVGo and Plotinum VG -->
<svg width="720pt" height="432pt" viewBox="0 0 720 432"
	xmlns="http://www.w3.org/2000/svg"
	xmlns:xlink="http://www.w3.org/1999/xlink">
<g transform="scale(1, -1) translate(0, -432)">
<path d="M0,0L720,0L720,432L0,432Z" style="fill:#FFFFFF" />
<text x="358.5" y="-420.45" transform="scale(1, -1)"
	style="font-family:Times;font-weight:normal;font-style:normal;font-size:12px"> </text>
<text x="379.31" y="-3.8613" transform="scale(1, -1)"
	style="font-family:Times;font-weight:normal;font-style:normal;font-size:12px">Costs</text>
<text x="56.555" y="-18.634" transform="scale(1, -1)"
	style="font-family:Times;font-weight:normal;font-style:normal;font-size:10px">0.00</text>
<text x="334.24" y="-18.634" transform="scale(1, -1)"
	style="font-family:Times;font-weight:normal;font-style:normal;font-size:10px">250.00</text>
<text x="616.92" y="-18.634" transform="scale(1, -1)"
	style="font-family:Times;font-weight:normal;font-style:normal;font-size:10px">500.00</text>
<path d="M65.305,28.263L65.305,36.263" style="fill:none;stroke:#000000;stroke-width:0.5" />
<path d="M347.99,28.263L347.99,36.263" style="fill:none;stroke:#000000;stroke-width:0.5" />
<path d="M630.67,28.263L630.67,36.263" style="fill:none;stroke:#000000;stroke-width:0.5" />
<path d="M121.84,32.263L121.84,36.263" style="fill:none;stroke:#000000;stroke-width:0.5" />
<path d="M178.38,32.263L178.38,36.263" style="fill:none;stroke:#000000;stroke-width:0.5" />
<path d="M234.91,32.263L234.91,36.263" style="fill:none;stroke:#000000;stroke-width:0.5" />
<path d="M291.45,32.263L291.45,36.263" style="fill:none;stroke:#000000;stroke-width:0.5" />
<path d="M404.53,32.263L404.53,36.263" style="fill:none;stroke:#000000;stroke-width:0.5" />
<path d="M461.06,32.263L461.06,36.263" style="fill:none;stroke:#000000;stroke-width:0.5" />
<path d="M517.6,32.263L517.6,36.263" style="fill:none;stroke:#000000;stroke-width:0.5" />
<path d="M574.14,32.263L574.14,36.263" style="fill:none;stroke:#000000;stroke-width:0.5" />
<path d="M687.21,32.263L687.21,36.263" style="fill:none;stroke:#000000;stroke-width:0.5" />
<path d="M65.305,36.263L720,36.263" style="fill:none;stroke:#000000;stroke-width:0.5" />
<g transform="rotate(90)">
<text x="149.42" y="11.555" transform="scale(1, -1)"
	style="font-family:Times;font-weight:normal;font-style:normal;font-size:12px">Number of trials (1000000 total)</text>
</g>
<text x="24.055" y="-114.94" transform="scale(1, -1)"
	style="font-family:Times;font-weight:normal;font-style:normal;font-size:10px">20000</text>
<text x="24.055" y="-260.95" transform="scale(1, -1)"
	style="font-family:Times;font-weight:normal;font-style:normal;font-size:10px">60000</text>
<text x="19.055" y="-406.96" transform="scale(1, -1)"
	style="font-family:Times;font-weight:normal;font-style:normal;font-size:10px">100000</text>
<path d="M51.555,118.15L59.555,118.15" style="fill:none;stroke:#000000;stroke-width:0.5" />
<path d="M51.555,264.16L59.555,264.16" style="fill:none;stroke:#000000;stroke-width:0.5" />
<path d="M51.555,410.16L59.555,410.16" style="fill:none;stroke:#000000;stroke-width:0.5" />
<path d="M55.555,81.649L59.555,81.649" style="fill:none;stroke:#000000;stroke-width:0.5" />
<path d="M55.555,154.65L59.555,154.65" style="fill:none;stroke:#000000;stroke-width:0.5" />
<path d="M55.555,191.15L59.555,191.15" style="fill:none;stroke:#000000;stroke-width:0.5" />
<path d="M55.555,227.65L59.555,227.65" style="fill:none;stroke:#000000;stroke-width:0.5" />
<path d="M55.555,300.66L59.555,300.66" style="fill:none;stroke:#000000;stroke-width:0.5" />
<path d="M55.555,337.16L59.555,337.16" style="fill:none;stroke:#000000;stroke-width:0.5" />
<path d="M55.555,373.66L59.555,373.66" style="fill:none;stroke:#000000;stroke-width:0.5" />
<path d="M59.555,45.151L59.555,410.33" style="fill:none;stroke:#000000;stroke-width:0.5" />
<path d="M65.305,410.33L91.312,48.316L92.442,67.72L95.835,70.761L96.965,70.79L98.096,59.383L99.227,48.36L101.49,74.571L102.62,59.865L103.75,112.72L104.88,84.449L106.01,74.633L108.27,65.523L109.4,69.735L110.53,81.839L111.66,96.085L112.8,74.25L113.93,66.11L115.06,84.478L116.19,63.011L117.32,58.861L118.45,45.359L120.71,62.869L121.84,66.534L122.97,75.692L124.1,46.506L125.23,100.74L126.36,60.197L127.5,47.042L128.63,76.754L129.76,51.262L130.89,49.922L132.02,78.433L133.15,50.134L134.28,55.667L135.41,83.43L136.54,54.24L137.67,52.251L138.8,52.346L139.93,55.686L141.06,57.186L142.19,62.135L143.33,61.657L144.46,59.975L145.59,77.93L146.72,58.982L147.85,97.502L148.98,78.762L150.11,65.745L151.24,64.997L152.37,80.543L153.5,66.005L154.63,63.647L155.76,65.793L156.89,96.83L158.02,60.657L159.16,65.534L160.29,64.085L161.42,71.195L162.55,64.822L163.68,67.121L164.81,63.42L165.94,62.559L167.07,63.373L168.2,63.793L169.33,61.307L170.46,63.928L171.59,68.176L172.72,65.727L173.86,63.479L174.99,67.26L176.12,61.263L177.25,58.431L178.38,63.303L179.51,61.3L180.64,62.015L181.77,64.128L182.9,61.723L184.03,65.479L185.16,64.541L186.29,66.012L187.42,63.88L188.55,67.508L189.69,61.5L190.82,61.942L191.95,68.578L193.08,67.527L194.21,63.424L195.34,74.502L196.47,64.691L197.6,64.351L198.73,63.785L199.86,61.584L200.99,61.139L202.12,64.428L203.25,64.406L204.39,62.03L205.52,65.556L206.65,61.676L207.78,63.734L208.91,64.472L210.04,59.409L211.17,60.686L212.3,64.044L213.43,59.927L214.56,62.519L215.69,60.529L216.82,62.398L217.95,61.584L219.08,60.274L220.22,60.668L221.35,57.774L222.48,59.474L223.61,60.657L224.74,58.398L225.87,58.292L227,60.548L228.13,59.617L229.26,58.431L230.39,57.941L231.52,60.675L232.65,59.19L233.78,58.671L234.91,60.34L236.05,58.708L237.18,58.923L238.31,58.069L239.44,60.945L240.57,58.799L241.7,58.474L242.83,57.106L243.96,59.307L245.09,57.898L246.22,57.054L247.35,57.16L248.48,57.146L249.61,56.178L250.75,56.748L251.88,56.985L253.01,56.927L254.14,56.562L255.27,57.387L256.4,55.81L257.53,55.737L258.66,56.04L259.79,55.113L260.92,54.744L262.05,55.306L263.18,55.237L264.31,54.594L265.44,54.715L266.58,55.156L267.71,54.185L268.84,54.054L269.97,53.872L271.1,53.963L272.23,54.496L273.36,53.835L274.49,54.028L275.62,54.08L276.75,53.685L277.88,53.788L279.01,53.612L280.14,53.266L281.27,53.196L282.41,52.893L283.54,53.039L284.67,52.755L285.8,52.503L286.93,52.51L288.06,52.382L289.19,52.174L290.32,52.145L291.45,51.941L292.58,51.787L293.71,51.853L294.84,51.831L295.97,51.455L297.11,51.692L298.24,51.397L299.37,51.353L300.5,51.539L301.63,50.762L302.76,50.846L303.89,50.992L305.02,50.948L306.15,50.623L307.28,50.729L308.41,50.55L309.54,50.455L310.67,50.192L311.8,50.17L312.94,49.988L314.07,50.174L315.2,49.951L316.33,49.831L317.46,49.692L318.59,49.648L319.72,49.886L320.85,49.393L321.98,49.349L323.11,49.389L324.24,49.415L325.37,49.426L326.5,49.21L327.64,48.918L328.77,48.995L329.9,48.794L331.03,48.67L332.16,48.853L333.29,48.469L334.42,48.655L335.55,48.608L336.68,48.736L337.81,48.44L338.94,48.353L340.07,48.236L341.2,48.126L342.33,48.196L343.47,48.141L344.6,48.039L345.73,48.075L346.86,48.05L347.99,47.863L349.12,47.885L350.25,47.893L351.38,47.539L352.51,47.608L353.64,47.542L354.77,47.506L355.9,47.407L357.03,47.487L358.16,47.436L359.3,47.338L360.43,47.29L361.56,47.29L362.69,47.152L363.82,47.108L364.95,47.017L366.08,47.152L367.21,46.991L368.34,46.852L369.47,46.965L370.6,46.903L371.73,46.849L372.86,46.728L374,46.743L375.13,46.666L376.26,46.655L377.39,46.6L378.52,46.491L379.65,46.776L380.78,46.597L381.91,46.509L383.04,46.615L384.17,46.308L385.3,46.506L386.43,46.447L387.56,46.414L388.69,46.356L389.83,46.429L390.96,46.221L392.09,46.429L393.22,46.122L394.35,46.184L395.48,46.126L396.61,46.203L397.74,46.155L398.87,46.111L400,46.173L401.13,46.016L402.26,46.009L403.39,46.155L404.53,46.024L405.66,46.027L406.79,46.024L407.92,45.922L409.05,45.874L410.18,45.947L411.31,45.907L412.44,45.808L413.57,45.83L414.7,45.823L415.83,45.772L416.96,45.823L418.09,45.797L419.22,45.772L420.36,45.688L421.49,45.713L422.62,45.776L423.75,45.761L424.88,45.681L426.01,45.692L427.14,45.684L428.27,45.655L429.4,45.659L430.53,45.578L431.66,45.597L432.79,45.666L433.92,45.6L435.05,45.586L436.19,45.542L437.32,45.578L438.45,45.498L439.58,45.538L440.71,45.498L441.84,45.535L442.97,45.458L444.1,45.484L445.23,45.487L446.36,45.546L447.49,45.421L448.62,45.469L449.75,45.44L450.89,45.454L452.02,45.4L453.15,45.374L454.28,45.465L455.41,45.418L456.54,45.421L457.67,45.37L458.8,45.381L459.93,45.403L461.06,45.348L462.19,45.345L463.32,45.348L464.45,45.367L465.58,45.327L466.72,45.363L467.85,45.301L468.98,45.356L470.11,45.323L471.24,45.279L472.37,45.29L473.5,45.338L474.63,45.338L475.76,45.283L476.89,45.275L478.02,45.305L479.15,45.235L480.28,45.257L481.42,45.319L482.55,45.265L483.68,45.246L484.81,45.275L485.94,45.235L487.07,45.272L488.2,45.294L489.33,45.213L490.46,45.257L491.59,45.261L492.72,45.235L493.85,45.228L494.98,45.206L496.11,45.243L497.25,45.261L498.38,45.228L499.51,45.265L500.64,45.232L501.77,45.232L502.9,45.206L504.03,45.224L505.16,45.195L506.29,45.192L507.42,45.213L508.55,45.177L509.68,45.221L510.81,45.206L511.94,45.202L513.08,45.181L514.21,45.202L515.34,45.192L516.47,45.206L517.6,45.202L518.73,45.199L519.86,45.188L520.99,45.166L522.12,45.199L523.25,45.195L524.38,45.184L525.51,45.181L526.64,45.181L527.78,45.181L528.91,45.181L530.04,45.192L531.17,45.173L532.3,45.162L533.43,45.159L534.56,45.177L535.69,45.166L536.82,45.166L537.95,45.173L539.08,45.17L540.21,45.177L541.34,45.181L542.47,45.17L543.61,45.17L544.74,45.166L545.87,45.166L547,45.155L548.13,45.173L549.26,45.181L550.39,45.162L551.52,45.151L552.65,45.166L553.78,45.17L554.91,45.162L556.04,45.173L557.17,45.173L558.3,45.162L559.44,45.17L560.57,45.155L561.7,45.155L562.83,45.162L563.96,45.159L565.09,45.162L567.35,45.155L568.48,45.159L569.61,45.162L570.74,45.155L571.87,45.159L573,45.173L574.14,45.162L575.27,45.151L576.4,45.151L577.53,45.155L578.66,45.155L579.79,45.151L580.92,45.155L582.05,45.162L583.18,45.151L584.31,45.159L585.44,45.166L586.57,45.151L587.7,45.155L588.83,45.151L591.1,45.155L592.23,45.159L593.36,45.151L594.49,45.151L595.62,45.151L596.75,45.155L597.88,45.155L599.01,45.159L600.14,45.155L601.27,45.155L602.4,45.151L603.53,45.155L604.67,45.151L613.71,45.155L614.84,45.151L617.1,45.151L618.23,45.155L619.36,45.151L620.5,45.151L621.63,45.155L622.76,45.155L628.41,45.155L629.54,45.151L630.67,45.155L631.8,45.155L638.59,45.151L640.85,45.151L641.98,45.151L646.5,45.151L652.16,45.151L655.55,45.151L656.68,45.151L674.77,45.151L693.99,45.151L699.65,45.151L720,45.151" style="fill:none;stroke:#0000FF" />
</g>
</svg>
