<?xml version="1.0"?>
<!-- Generated by SVGo and Plotinum VG -->
<svg width="720pt" height="432pt" viewBox="0 0 720 432"
	xmlns="http://www.w3.org/2000/svg"
	xmlns:xlink="http://www.w3.org/1999/xlink">
<g transform="scale(1, -1) translate(0, -432)">
<path d="M0,0L720,0L720,432L0,432Z" style="fill:#FFFFFF" />
<text x="358.5" y="-420.45" transform="scale(1, -1)"
	style="font-family:Times;font-weight:normal;font-style:normal;font-size:12px"> </text>
<text x="376.81" y="-3.8613" transform="scale(1, -1)"
	style="font-family:Times;font-weight:normal;font-style:normal;font-size:12px">Costs</text>
<text x="57.805" y="-18.634" transform="scale(1, -1)"
	style="font-family:Times;font-weight:normal;font-style:normal;font-size:10px">0</text>
<text x="369.97" y="-18.634" transform="scale(1, -1)"
	style="font-family:Times;font-weight:normal;font-style:normal;font-size:10px">300</text>
<text x="687.13" y="-18.634" transform="scale(1, -1)"
	style="font-family:Times;font-weight:normal;font-style:normal;font-size:10px">600</text>
<path d="M60.305,28.263L60.305,36.263" style="fill:none;stroke:#000000;stroke-width:0.5" />
<path d="M377.47,28.263L377.47,36.263" style="fill:none;stroke:#000000;stroke-width:0.5" />
<path d="M694.63,28.263L694.63,36.263" style="fill:none;stroke:#000000;stroke-width:0.5" />
<path d="M166.03,32.263L166.03,36.263" style="fill:none;stroke:#000000;stroke-width:0.5" />
<path d="M271.75,32.263L271.75,36.263" style="fill:none;stroke:#000000;stroke-width:0.5" />
<path d="M483.19,32.263L483.19,36.263" style="fill:none;stroke:#000000;stroke-width:0.5" />
<path d="M588.91,32.263L588.91,36.263" style="fill:none;stroke:#000000;stroke-width:0.5" />
<path d="M60.305,36.263L720,36.263" style="fill:none;stroke:#000000;stroke-width:0.5" />
<g transform="rotate(90)">
<text x="152.55" y="11.555" transform="scale(1, -1)"
	style="font-family:Times;font-weight:normal;font-style:normal;font-size:12px">Number of trials (1000000 total)</text>
</g>
<text x="19.055" y="-110.11" transform="scale(1, -1)"
	style="font-family:Times;font-weight:normal;font-style:normal;font-size:10px">10000</text>
<text x="19.055" y="-246.45" transform="scale(1, -1)"
	style="font-family:Times;font-weight:normal;font-style:normal;font-size:10px">30000</text>
<text x="19.055" y="-382.8" transform="scale(1, -1)"
	style="font-family:Times;font-weight:normal;font-style:normal;font-size:10px">50000</text>
<path d="M46.555,113.32L54.555,113.32" style="fill:none;stroke:#000000;stroke-width:0.5" />
<path d="M46.555,249.66L54.555,249.66" style="fill:none;stroke:#000000;stroke-width:0.5" />
<path d="M46.555,386L54.555,386" style="fill:none;stroke:#000000;stroke-width:0.5" />
<path d="M50.555,181.49L54.555,181.49" style="fill:none;stroke:#000000;stroke-width:0.5" />
<path d="M50.555,317.83L54.555,317.83" style="fill:none;stroke:#000000;stroke-width:0.5" />
<path d="M54.555,45.151L54.555,416.58" style="fill:none;stroke:#000000;stroke-width:0.5" />
<path d="M60.305,416.58L83.563,69.727L84.62,59.277L87.792,66.339L88.849,76.824L89.906,72.918L90.964,67.328L92.021,52.303L93.078,113.32L94.135,63.244L95.192,58.69L96.25,95.653L97.307,63.708L98.364,72.877L99.421,92.796L100.48,56.291L101.54,87.016L102.59,86.729L103.65,102.8L104.71,59.174L105.76,87.309L106.82,89.913L107.88,70.075L108.94,76.217L111.05,46.706L112.11,98.871L113.16,85.7L114.22,58.902L115.28,46.917L116.34,92.128L117.39,66.332L118.45,54.32L119.51,82.223L120.57,103.21L121.62,62.072L122.68,81.255L123.74,72.509L124.79,89.613L125.85,80.587L126.91,94.521L127.97,59.761L129.02,65.951L130.08,65.119L131.14,75.038L132.19,71.534L133.25,65.378L134.31,70.402L135.37,100.23L136.42,76.558L137.48,78.44L138.54,77.199L139.59,77.526L140.65,75.038L141.71,104.78L142.77,75.004L143.82,72.815L144.88,85.1L145.94,86.32L147,74.145L148.05,81.766L149.11,84.759L150.17,82.728L151.22,77.819L152.28,82.966L153.34,83.846L154.4,81.248L155.45,89.872L156.51,79.496L157.57,79.837L158.62,85.754L159.68,87.329L160.74,78.637L161.8,80.171L162.85,83.927L163.91,84.282L164.97,85.311L166.03,86.497L167.08,77.117L168.14,89.47L169.2,83.689L170.25,80.798L171.31,80.342L172.37,84.786L173.43,81.425L174.48,80.137L175.54,77.069L176.6,81.923L177.65,82.257L178.71,83.818L179.77,81.419L180.83,82.182L181.88,78.985L182.94,83.723L184,83.266L185.05,83.089L186.11,78.283L187.17,84.009L188.23,81.875L189.28,79.646L190.34,78.91L191.4,80.955L192.46,76.647L193.51,78.678L194.57,79.803L195.63,79.673L196.68,76.919L197.74,82.98L198.8,79.067L199.86,77.703L200.91,81.623L201.97,83.055L203.03,76.026L204.08,78.228L205.14,78.924L206.2,80.955L207.26,78.535L208.31,79.176L209.37,76.313L210.43,76.565L211.48,78.392L212.54,78.576L213.6,76.149L214.66,76.578L215.71,77.219L216.77,78.426L217.83,75.597L218.89,75.638L219.94,76.019L221,76.926L222.06,74.976L223.11,74.267L224.17,74.574L225.23,74.404L226.29,73.674L227.34,73.668L228.4,73.613L229.46,73.77L230.51,74.267L231.57,72.372L232.63,72.365L233.69,71.956L234.74,72.086L235.8,71.656L236.86,71.554L237.91,70.947L238.97,71.152L240.03,71.35L241.09,71.329L242.14,70.3L243.2,69.877L244.26,70.538L245.32,70.157L246.37,68.35L247.43,69.611L248.49,68.698L249.54,69.066L250.6,68.486L251.66,67.75L252.72,67.682L253.77,68.398L254.83,67.225L255.89,66.482L256.94,66.687L258,66.714L259.06,65.828L260.12,65.644L261.17,65.139L262.23,66.428L263.29,65.719L264.35,65.555L265.4,65.289L266.46,64.717L267.52,64.314L268.57,64.907L269.63,63.742L270.69,63.36L271.75,62.917L272.8,63.333L273.86,62.74L274.92,62.14L275.97,62.467L277.03,62.044L278.09,61.397L279.15,62.058L280.2,61.615L281.26,61.029L282.32,61.178L283.37,60.66L284.43,60.238L285.49,60.013L286.55,59.972L287.6,59.836L288.66,59.958L289.72,59.113L290.78,59.297L291.83,58.922L292.89,58.711L293.95,58.479L295,58.199L296.06,57.893L297.12,58.383L298.18,57.04L299.23,57.784L300.29,57.163L301.35,56.884L302.4,57.327L303.46,56.331L304.52,56.386L305.58,56.229L306.63,56.318L307.69,56.1L308.75,55.35L309.8,55.623L310.86,55.323L311.92,55.827L312.98,55.582L314.03,55.493L315.09,54.573L316.15,54.784L317.21,53.959L318.26,54.423L319.32,54L320.38,54.164L321.43,53.939L322.49,54.082L323.55,53.284L324.61,53.1L325.66,52.943L326.72,52.957L327.78,52.93L328.83,52.78L329.89,52.95L330.95,52.473L332.01,52.398L333.06,52.03L334.12,51.825L335.18,51.812L336.23,52.2L337.29,51.396L338.35,51.669L339.41,51.573L340.46,51.232L341.52,51.26L342.58,51.021L343.64,50.626L344.69,50.796L345.75,51.137L346.81,50.714L347.86,49.971L348.92,50.462L349.98,50.087L351.04,50.196L352.09,49.814L353.15,50.23L354.21,50.23L355.26,49.876L356.32,49.842L357.38,49.828L358.44,49.589L359.49,49.542L360.55,49.589L361.61,49.255L362.67,49.276L363.72,49.085L364.78,49.092L365.84,48.969L366.89,48.655L367.95,48.805L369.01,48.805L370.07,48.465L371.12,48.574L372.18,48.403L373.24,48.328L374.29,48.199L375.35,48.185L376.41,48.049L377.47,48.117L378.52,47.967L379.58,47.98L380.64,47.987L381.69,47.831L382.75,47.783L383.81,47.701L384.87,47.483L385.92,47.776L386.98,47.367L388.04,47.415L389.1,47.394L390.15,47.244L391.21,47.367L392.27,47.21L393.32,47.169L394.38,47.217L395.44,47.162L396.5,46.924L397.55,47.292L398.61,47.04L399.67,46.937L400.72,46.985L401.78,46.958L402.84,46.903L403.9,46.835L404.95,46.672L406.01,46.808L407.07,46.678L408.12,46.658L409.18,46.61L410.24,46.501L411.3,46.556L412.35,46.569L413.41,46.433L414.47,46.535L415.53,46.283L416.58,46.426L417.64,46.453L418.7,46.344L419.75,46.263L420.81,46.201L421.87,46.317L422.93,46.133L423.98,46.222L425.04,46.283L426.1,46.092L427.15,45.922L428.21,46.079L429.27,46.065L430.33,45.942L431.38,45.779L432.44,45.99L433.5,45.976L434.55,45.935L435.61,45.772L436.67,45.833L437.73,45.765L438.78,45.874L439.84,45.826L440.9,45.833L441.96,45.772L443.01,45.826L444.07,45.792L445.13,45.697L446.18,45.704L447.24,45.751L448.3,45.826L449.36,45.724L450.41,45.635L451.47,45.717L452.53,45.683L453.58,45.622L454.64,45.635L455.7,45.581L456.76,45.594L457.81,45.608L458.87,45.601L459.93,45.54L460.99,45.567L462.04,45.581L463.1,45.547L464.16,45.56L465.21,45.519L466.27,45.424L467.33,45.465L468.39,45.485L469.44,45.458L470.5,45.547L471.56,45.37L472.61,45.363L473.67,45.376L474.73,45.424L475.79,45.424L476.84,45.424L477.9,45.376L478.96,45.397L480.01,45.383L481.07,45.356L482.13,45.465L483.19,45.417L484.24,45.417L485.3,45.356L486.36,45.376L487.42,45.329L488.47,45.329L489.53,45.308L490.59,45.363L491.64,45.301L492.7,45.363L493.76,45.288L494.82,45.342L495.87,45.301L496.93,45.295L497.99,45.322L499.04,45.315L500.1,45.356L501.16,45.254L502.22,45.247L503.27,45.322L504.33,45.308L505.39,45.274L506.44,45.247L507.5,45.254L508.56,45.226L509.62,45.233L510.67,45.226L511.73,45.254L512.79,45.22L513.85,45.24L514.9,45.213L515.96,45.206L517.02,45.206L518.07,45.26L519.13,45.22L520.19,45.22L521.25,45.24L522.3,45.199L523.36,45.185L524.42,45.22L525.47,45.24L526.53,45.185L527.59,45.199L528.65,45.206L529.7,45.165L530.76,45.165L531.82,45.22L532.87,45.22L533.93,45.179L534.99,45.213L536.05,45.192L537.1,45.192L538.16,45.185L539.22,45.247L540.28,45.179L541.33,45.185L542.39,45.199L543.45,45.179L544.5,45.179L545.56,45.172L546.62,45.172L547.68,45.179L548.73,45.185L549.79,45.165L550.85,45.151L551.9,45.179L552.96,45.179L554.02,45.165L555.08,45.165L556.13,45.192L557.19,45.158L558.25,45.165L559.3,45.165L560.36,45.151L561.42,45.158L562.48,45.185L563.53,45.206L564.59,45.158L565.65,45.158L566.71,45.172L567.76,45.158L568.82,45.158L569.88,45.165L570.93,45.165L571.99,45.151L573.05,45.158L574.11,45.179L575.16,45.151L576.22,45.172L577.28,45.165L579.39,45.158L580.45,45.172L581.51,45.151L584.68,45.158L585.74,45.165L586.79,45.179L587.85,45.151L588.91,45.151L589.96,45.151L591.02,45.151L592.08,45.165L594.19,45.151L600.54,45.151L601.59,45.151L603.71,45.151L605.82,45.151L610.05,45.165L612.17,45.151L616.39,45.151L619.57,45.151L620.62,45.151L621.68,45.151L623.79,45.151L630.14,45.151L641.77,45.151L666.08,45.151L720,45.151" style="fill:none;stroke:#0000FF" />
</g>
</svg>
