<?xml version="1.0"?>
<!-- Generated by SVGo and Plotinum VG -->
<svg width="720pt" height="432pt" viewBox="0 0 720 432"
	xmlns="http://www.w3.org/2000/svg"
	xmlns:xlink="http://www.w3.org/1999/xlink">
<g transform="scale(1, -1) translate(0, -432)">
<path d="M0,0L720,0L720,432L0,432Z" style="fill:#FFFFFF" />
<text x="358.5" y="-420.45" transform="scale(1, -1)"
	style="font-family:Times;font-weight:normal;font-style:normal;font-size:12px"> </text>
<text x="378.21" y="-3.8613" transform="scale(1, -1)"
	style="font-family:Times;font-weight:normal;font-style:normal;font-size:12px">Costs</text>
<text x="56.555" y="-18.634" transform="scale(1, -1)"
	style="font-family:Times;font-weight:normal;font-style:normal;font-size:10px">0.00</text>
<text x="372.03" y="-18.634" transform="scale(1, -1)"
	style="font-family:Times;font-weight:normal;font-style:normal;font-size:10px">250.00</text>
<text x="692.5" y="-18.634" transform="scale(1, -1)"
	style="font-family:Times;font-weight:normal;font-style:normal;font-size:10px">500.00</text>
<path d="M65.305,28.263L65.305,36.263" style="fill:none;stroke:#000000;stroke-width:0.5" />
<path d="M385.78,28.263L385.78,36.263" style="fill:none;stroke:#000000;stroke-width:0.5" />
<path d="M706.25,28.263L706.25,36.263" style="fill:none;stroke:#000000;stroke-width:0.5" />
<path d="M129.4,32.263L129.4,36.263" style="fill:none;stroke:#000000;stroke-width:0.5" />
<path d="M193.49,32.263L193.49,36.263" style="fill:none;stroke:#000000;stroke-width:0.5" />
<path d="M257.59,32.263L257.59,36.263" style="fill:none;stroke:#000000;stroke-width:0.5" />
<path d="M321.68,32.263L321.68,36.263" style="fill:none;stroke:#000000;stroke-width:0.5" />
<path d="M449.87,32.263L449.87,36.263" style="fill:none;stroke:#000000;stroke-width:0.5" />
<path d="M513.97,32.263L513.97,36.263" style="fill:none;stroke:#000000;stroke-width:0.5" />
<path d="M578.06,32.263L578.06,36.263" style="fill:none;stroke:#000000;stroke-width:0.5" />
<path d="M642.16,32.263L642.16,36.263" style="fill:none;stroke:#000000;stroke-width:0.5" />
<path d="M65.305,36.263L717.79,36.263" style="fill:none;stroke:#000000;stroke-width:0.5" />
<g transform="rotate(90)">
<text x="152.55" y="11.555" transform="scale(1, -1)"
	style="font-family:Times;font-weight:normal;font-style:normal;font-size:12px">Number of trials (1000000 total)</text>
</g>
<text x="24.055" y="-105.8" transform="scale(1, -1)"
	style="font-family:Times;font-weight:normal;font-style:normal;font-size:10px">20000</text>
<text x="24.055" y="-233.51" transform="scale(1, -1)"
	style="font-family:Times;font-weight:normal;font-style:normal;font-size:10px">60000</text>
<text x="19.055" y="-361.23" transform="scale(1, -1)"
	style="font-family:Times;font-weight:normal;font-style:normal;font-size:10px">100000</text>
<path d="M51.555,109.01L59.555,109.01" style="fill:none;stroke:#000000;stroke-width:0.5" />
<path d="M51.555,236.72L59.555,236.72" style="fill:none;stroke:#000000;stroke-width:0.5" />
<path d="M51.555,364.43L59.555,364.43" style="fill:none;stroke:#000000;stroke-width:0.5" />
<path d="M55.555,77.077L59.555,77.077" style="fill:none;stroke:#000000;stroke-width:0.5" />
<path d="M55.555,140.93L59.555,140.93" style="fill:none;stroke:#000000;stroke-width:0.5" />
<path d="M55.555,172.86L59.555,172.86" style="fill:none;stroke:#000000;stroke-width:0.5" />
<path d="M55.555,204.79L59.555,204.79" style="fill:none;stroke:#000000;stroke-width:0.5" />
<path d="M55.555,268.65L59.555,268.65" style="fill:none;stroke:#000000;stroke-width:0.5" />
<path d="M55.555,300.58L59.555,300.58" style="fill:none;stroke:#000000;stroke-width:0.5" />
<path d="M55.555,332.51L59.555,332.51" style="fill:none;stroke:#000000;stroke-width:0.5" />
<path d="M55.555,396.36L59.555,396.36" style="fill:none;stroke:#000000;stroke-width:0.5" />
<path d="M59.555,45.151L59.555,416.58" style="fill:none;stroke:#000000;stroke-width:0.5" />
<path d="M65.305,416.58L93.506,62.323L94.788,55.416L98.634,58.823L99.916,70.506L102.48,73.523L103.76,48.52L105.04,79.334L106.33,63.134L107.61,73.364L108.89,97.24L110.17,58.865L112.73,55.084L114.02,62.738L115.3,72.431L116.58,92.996L117.86,65.819L120.43,109.36L121.71,114.25L122.99,96.767L124.27,79.213L126.84,45.841L128.12,67.977L129.4,56.307L130.68,57.224L131.96,46.195L133.24,68.581L134.53,69.028L135.81,47.811L137.09,71.716L138.37,52.39L139.65,52.054L140.94,48.089L142.22,59.74L143.5,67.045L144.78,79.979L146.06,64.277L147.35,51.036L148.63,56.741L149.91,59.174L151.19,59.548L152.47,56.614L153.76,56.397L155.04,58.191L156.32,71.301L157.6,65.136L158.88,70.825L160.16,69.529L161.45,64.219L162.73,62.939L164.01,68.724L165.29,70.062L166.57,65.005L167.86,68.894L169.14,91.79L170.42,61.014L171.7,71.419L172.98,70.634L174.27,66.014L175.55,61.454L176.83,68.587L178.11,68.929L179.39,71.809L180.67,63.172L181.96,59.347L183.24,57.252L184.52,62.463L185.8,63.964L187.08,61.757L188.37,63.076L189.65,62.019L190.93,58.21L192.21,60.343L193.49,62.402L194.78,59.439L196.06,61.077L197.34,59.657L198.62,59.273L199.9,64.401L201.19,64.465L202.47,64.625L203.75,60.03L205.03,57.003L206.31,60.094L207.59,59.663L208.88,60.359L210.16,58.925L211.44,62.575L212.72,64.398L214,62.645L215.29,61.234L216.57,61.869L217.85,60.024L219.13,60.688L220.41,61.869L221.7,60.148L222.98,59.851L224.26,64.596L225.54,64.261L226.82,61.649L228.1,61.7L229.39,58.453L230.67,58.031L231.95,58.696L233.23,57.287L234.51,57.846L235.8,58.143L237.08,60.005L238.36,58.619L239.64,56.646L240.92,57.98L242.21,56.566L243.49,56.374L244.77,56.515L246.05,56.633L247.33,57.131L248.62,57.734L249.9,56.393L251.18,55.978L252.46,55.755L253.74,55.713L255.02,55.736L256.31,55.286L257.59,55.857L258.87,55.592L260.15,55.962L261.43,54.749L262.72,55.308L264,55.072L265.28,55.123L266.56,54.695L267.84,55.385L269.13,55.187L270.41,54.644L271.69,54.778L272.97,53.641L274.25,53.743L275.53,54.382L276.82,54.554L278.1,53.858L279.38,53.568L280.66,54.002L281.94,53.587L283.23,53.549L284.51,53.038L285.79,52.671L287.07,52.54L288.35,52.53L289.64,52.409L290.92,52.246L292.2,52.37L293.48,52.505L294.76,51.713L296.04,51.729L297.33,51.77L298.61,51.566L299.89,51.521L301.17,51.301L302.45,51.116L303.74,51.595L305.02,51.352L306.3,51.326L307.58,50.748L308.86,50.72L310.15,50.404L311.43,50.426L312.71,50.432L313.99,50.349L315.27,50.41L316.56,50.452L317.84,50.346L319.12,50.276L320.4,50.161L321.68,49.717L322.96,49.589L324.25,49.704L325.53,49.49L326.81,49.835L328.09,49.529L329.37,49.328L330.66,49.305L331.94,49.293L333.22,49.037L334.5,48.865L335.78,48.983L337.07,49.002L338.35,48.826L339.63,48.925L340.91,48.715L342.19,48.456L343.47,48.632L344.76,48.513L346.04,48.319L347.32,48.373L348.6,48.315L349.88,48.402L351.17,48.025L352.45,48.035L353.73,48.035L355.01,47.859L356.29,47.734L357.58,47.661L358.86,47.84L360.14,47.626L361.42,47.648L362.7,47.667L363.99,47.485L365.27,47.319L366.55,47.434L367.83,47.377L369.11,47.316L370.39,47.428L371.68,47.141L372.96,47.185L374.24,47.169L375.52,47.064L376.8,47.058L378.09,47.061L379.37,47.026L380.65,46.847L381.93,46.828L383.21,46.904L384.5,46.716L385.78,46.946L387.06,46.78L388.34,46.713L389.62,46.681L390.9,46.54L392.19,46.665L393.47,46.569L394.75,46.473L396.03,46.486L397.31,46.457L398.6,46.413L399.88,46.419L401.16,46.352L402.44,46.262L403.72,46.291L405.01,46.326L406.29,46.262L407.57,46.157L408.85,46.227L410.13,46.135L411.42,46.17L412.7,46.141L413.98,46.135L415.26,46.013L416.54,46.02L417.82,46.071L419.11,46.128L420.39,45.966L421.67,45.991L422.95,46.001L424.23,45.937L425.52,45.831L426.8,45.835L428.08,45.934L429.36,45.809L430.64,45.806L431.93,45.755L433.21,45.835L434.49,45.787L435.77,45.723L437.05,45.732L438.33,45.784L439.62,45.63L440.9,45.707L442.18,45.659L443.46,45.675L444.74,45.63L446.03,45.624L447.31,45.656L448.59,45.608L449.87,45.643L451.15,45.554L452.44,45.649L453.72,45.522L455,45.506L456.28,45.563L457.56,45.487L458.85,45.519L460.13,45.535L461.41,45.436L462.69,45.487L463.97,45.442L465.25,45.439L466.54,45.445L467.82,45.48L469.1,45.483L470.38,45.413L471.66,45.413L472.95,45.41L474.23,45.365L475.51,45.394L476.79,45.375L478.07,45.381L479.36,45.368L480.64,45.397L481.92,45.362L483.2,45.33L484.48,45.397L485.76,45.362L487.05,45.362L488.33,45.317L489.61,45.308L490.89,45.333L492.17,45.295L493.46,45.311L494.74,45.317L496.02,45.263L497.3,45.311L498.58,45.321L499.87,45.276L501.15,45.276L502.43,45.276L503.71,45.27L504.99,45.27L506.28,45.27L507.56,45.254L508.84,45.276L510.12,45.266L511.4,45.266L512.68,45.27L513.97,45.273L515.25,45.228L516.53,45.247L517.81,45.257L519.09,45.222L520.38,45.279L521.66,45.25L522.94,45.222L524.22,45.225L525.5,45.222L526.79,45.231L528.07,45.228L529.35,45.238L530.63,45.193L531.91,45.212L533.19,45.25L534.48,45.206L535.76,45.212L537.04,45.206L538.32,45.199L539.6,45.206L540.89,45.19L542.17,45.167L543.45,45.206L544.73,45.202L546.01,45.196L547.3,45.199L548.58,45.186L549.86,45.177L551.14,45.186L552.42,45.193L553.71,45.174L554.99,45.202L556.27,45.199L557.55,45.18L558.83,45.186L560.11,45.177L561.4,45.171L562.68,45.171L563.96,45.177L565.24,45.183L566.52,45.183L567.81,45.174L569.09,45.18L570.37,45.167L571.65,45.167L572.93,45.171L574.22,45.164L575.5,45.183L576.78,45.171L578.06,45.167L579.34,45.174L580.62,45.158L581.91,45.171L583.19,45.164L584.47,45.164L585.75,45.164L587.03,45.161L588.32,45.158L589.6,45.155L590.88,45.158L592.16,45.158L593.44,45.155L594.73,45.158L596.01,45.167L597.29,45.171L598.57,45.161L599.85,45.167L601.13,45.167L602.42,45.155L603.7,45.167L604.98,45.161L606.26,45.151L607.54,45.151L608.83,45.155L610.11,45.158L611.39,45.158L612.67,45.161L613.95,45.158L615.24,45.155L616.52,45.158L617.8,45.155L619.08,45.151L620.36,45.158L621.65,45.151L622.93,45.155L624.21,45.155L625.49,45.161L628.05,45.155L629.34,45.164L630.62,45.155L631.9,45.151L634.46,45.164L635.75,45.155L637.03,45.161L642.16,45.151L647.28,45.151L648.56,45.151L651.13,45.151L653.69,45.151L658.82,45.155L660.1,45.151L662.67,45.151L663.95,45.158L666.51,45.151L669.08,45.151L670.36,45.151L676.77,45.151L680.61,45.151L684.46,45.155L690.87,45.151L701.12,45.151L717.79,45.151" style="fill:none;stroke:#0000FF" />
</g>
</svg>
