<?xml version="1.0"?>
<!-- Generated by SVGo and Plotinum VG -->
<svg width="720pt" height="432pt" viewBox="0 0 720 432"
	xmlns="http://www.w3.org/2000/svg"
	xmlns:xlink="http://www.w3.org/1999/xlink">
<g transform="scale(1, -1) translate(0, -432)">
<path d="M0,0L720,0L720,432L0,432Z" style="fill:#FFFFFF" />
<text x="358.5" y="-420.45" transform="scale(1, -1)"
	style="font-family:Times;font-weight:normal;font-style:normal;font-size:12px"> </text>
<text x="379.31" y="-3.8613" transform="scale(1, -1)"
	style="font-family:Times;font-weight:normal;font-style:normal;font-size:12px">Costs</text>
<text x="62.805" y="-18.634" transform="scale(1, -1)"
	style="font-family:Times;font-weight:normal;font-style:normal;font-size:10px">0</text>
<text x="341.84" y="-18.634" transform="scale(1, -1)"
	style="font-family:Times;font-weight:normal;font-style:normal;font-size:10px">200</text>
<text x="625.87" y="-18.634" transform="scale(1, -1)"
	style="font-family:Times;font-weight:normal;font-style:normal;font-size:10px">400</text>
<path d="M65.305,28.263L65.305,36.263" style="fill:none;stroke:#000000;stroke-width:0.5" />
<path d="M349.34,28.263L349.34,36.263" style="fill:none;stroke:#000000;stroke-width:0.5" />
<path d="M633.37,28.263L633.37,36.263" style="fill:none;stroke:#000000;stroke-width:0.5" />
<path d="M207.32,32.263L207.32,36.263" style="fill:none;stroke:#000000;stroke-width:0.5" />
<path d="M491.35,32.263L491.35,36.263" style="fill:none;stroke:#000000;stroke-width:0.5" />
<path d="M65.305,36.263L720,36.263" style="fill:none;stroke:#000000;stroke-width:0.5" />
<g transform="rotate(90)">
<text x="150.58" y="11.555" transform="scale(1, -1)"
	style="font-family:Times;font-weight:normal;font-style:normal;font-size:12px">Number of trials (1000000 total)</text>
</g>
<text x="24.055" y="-114.95" transform="scale(1, -1)"
	style="font-family:Times;font-weight:normal;font-style:normal;font-size:10px">50000</text>
<text x="19.055" y="-260.95" transform="scale(1, -1)"
	style="font-family:Times;font-weight:normal;font-style:normal;font-size:10px">150000</text>
<text x="19.055" y="-406.96" transform="scale(1, -1)"
	style="font-family:Times;font-weight:normal;font-style:normal;font-size:10px">250000</text>
<path d="M51.555,118.15L59.555,118.15" style="fill:none;stroke:#000000;stroke-width:0.5" />
<path d="M51.555,264.16L59.555,264.16" style="fill:none;stroke:#000000;stroke-width:0.5" />
<path d="M51.555,410.16L59.555,410.16" style="fill:none;stroke:#000000;stroke-width:0.5" />
<path d="M55.555,191.15L59.555,191.15" style="fill:none;stroke:#000000;stroke-width:0.5" />
<path d="M55.555,337.16L59.555,337.16" style="fill:none;stroke:#000000;stroke-width:0.5" />
<path d="M59.555,45.151L59.555,412.65" style="fill:none;stroke:#000000;stroke-width:0.5" />
<path d="M65.305,412.65L96.548,55.373L97.968,48.581L102.23,62.51L103.65,59.28L105.07,48.515L107.91,48.509L109.33,72.94L110.75,48.616L112.17,51.849L113.59,76.593L115.01,58.795L116.43,62.364L117.85,55.379L119.27,52.179L120.69,52.142L122.11,73.178L123.53,69.198L124.95,48.331L126.37,58.606L127.79,62.786L129.21,52.222L130.63,66.575L133.47,49.051L134.89,52.481L136.31,66.653L137.73,59.07L139.15,45.381L140.57,84.907L141.99,66.363L143.41,52.39L144.83,56.527L146.25,53.961L147.67,53.976L149.09,56.708L150.51,61.149L151.93,61.228L153.35,62.764L154.77,57.952L156.2,47.052L157.62,48.628L159.04,48.714L160.46,56.893L161.88,49.247L163.3,48.482L164.72,49.348L166.14,50.38L167.56,50.578L168.98,49.098L170.4,60.565L171.82,51.984L173.24,51.319L174.66,52.146L176.08,49.926L177.5,51.194L178.92,63.539L180.34,52.422L181.76,50.638L183.18,50.501L184.6,54.782L186.02,52.966L187.44,52.282L188.86,54.973L190.28,52.323L191.7,53.412L193.12,53.431L194.54,52.403L195.96,51.364L197.38,53.564L198.8,55.408L200.22,52.431L201.64,53.233L203.06,53.488L204.48,51.523L205.9,52.3L207.32,51.505L208.74,51.723L210.16,51.412L211.58,52.614L213,51.708L214.42,50.705L215.84,51.809L217.26,52.387L218.68,50.767L220.1,50.26L221.52,50.367L222.94,50.996L224.36,50.089L225.78,51.25L227.2,51.205L228.62,51.378L230.04,50.653L231.46,49.933L232.88,49.513L234.3,48.847L235.72,50.654L237.14,49.97L238.56,48.777L239.98,49.231L241.4,49.326L242.83,48.93L244.25,48.542L245.67,49.136L247.09,48.844L248.51,48.568L249.93,49.193L251.35,48.436L252.77,48.016L254.19,49.456L255.61,48.99L257.03,48.545L258.45,48.645L259.87,48.645L261.29,48.267L262.71,48.317L264.13,48.588L265.55,48.558L266.97,48.472L268.39,48.323L269.81,47.996L271.23,47.829L272.65,47.854L274.07,48.234L275.49,47.768L276.91,47.841L278.33,47.755L279.75,47.682L281.17,47.686L282.59,47.514L284.01,47.791L285.43,47.524L286.85,47.511L288.27,47.54L289.69,47.397L291.11,47.287L292.53,47.325L293.95,47.314L295.37,47.035L296.79,47.082L298.21,47.201L299.63,46.952L301.05,46.899L302.47,46.976L303.89,46.889L305.31,46.833L306.73,46.822L308.15,46.781L309.57,46.563L310.99,46.627L312.41,46.646L313.83,46.541L315.25,46.544L316.67,46.6L318.09,46.546L319.51,46.417L320.93,46.385L322.35,46.392L323.77,46.403L325.19,46.311L326.61,46.188L328.03,46.21L329.46,46.241L330.88,46.211L332.3,46.178L333.72,46.229L335.14,46.086L336.56,46.14L337.98,46.128L339.4,46.06L340.82,46.019L342.24,46.077L343.66,46.017L345.08,45.991L346.5,45.908L347.92,45.935L349.34,45.968L350.76,45.931L352.18,45.877L353.6,45.89L355.02,45.924L356.44,45.855L357.86,45.801L359.28,45.808L360.7,45.792L362.12,45.712L363.54,45.718L364.96,45.711L366.38,45.703L367.8,45.713L369.22,45.696L370.64,45.651L372.06,45.678L373.48,45.622L374.9,45.646L376.32,45.62L377.74,45.567L379.16,45.538L380.58,45.61L382,45.556L383.42,45.548L384.84,45.516L386.26,45.513L387.68,45.502L389.1,45.487L390.52,45.519L391.94,45.496L393.36,45.467L394.78,45.494L396.2,45.442L397.62,45.443L399.04,45.449L400.46,45.445L401.88,45.411L403.3,45.404L404.72,45.394L406.14,45.405L407.56,45.379L408.98,45.382L410.4,45.4L411.82,45.37L413.24,45.351L414.66,45.337L416.09,45.356L417.51,45.328L418.93,45.337L420.35,45.327L421.77,45.318L423.19,45.308L424.61,45.332L426.03,45.312L427.45,45.293L428.87,45.311L430.29,45.302L431.71,45.284L433.13,45.274L434.55,45.255L435.97,45.261L437.39,45.274L438.81,45.278L440.23,45.28L441.65,45.267L443.07,45.252L444.49,45.245L445.91,45.256L447.33,45.229L448.75,45.238L450.17,45.24L451.59,45.238L453.01,45.227L454.43,45.249L455.85,45.223L457.27,45.223L458.69,45.229L460.11,45.221L461.53,45.216L462.95,45.201L464.37,45.211L465.79,45.214L467.21,45.213L468.63,45.208L470.05,45.2L471.47,45.204L472.89,45.205L474.31,45.204L475.73,45.188L477.15,45.194L478.57,45.189L479.99,45.205L481.41,45.192L482.83,45.192L484.25,45.188L485.67,45.182L487.09,45.192L488.51,45.178L489.93,45.182L491.35,45.179L492.77,45.175L494.19,45.179L495.61,45.186L497.03,45.17L498.45,45.172L499.87,45.178L501.29,45.17L502.72,45.173L504.14,45.173L505.56,45.182L506.98,45.17L508.4,45.169L509.82,45.169L511.24,45.17L512.66,45.163L514.08,45.17L515.5,45.17L516.92,45.179L518.34,45.162L519.76,45.169L521.18,45.163L522.6,45.167L524.02,45.157L525.44,45.16L526.86,45.162L528.28,45.156L529.7,45.16L531.12,45.163L532.54,45.16L533.96,45.162L535.38,45.159L536.8,45.157L538.22,45.156L539.64,45.162L541.06,45.165L542.48,45.159L543.9,45.159L546.74,45.154L548.16,45.156L549.58,45.16L551,45.162L552.42,45.153L553.84,45.154L555.26,45.156L556.68,45.16L558.1,45.154L559.52,45.154L560.94,45.159L562.36,45.154L563.78,45.151L565.2,45.157L566.62,45.153L568.04,45.157L569.46,45.159L572.3,45.159L573.72,45.151L575.14,45.151L576.56,45.156L577.98,45.156L579.4,45.154L580.82,45.153L583.66,45.156L586.5,45.151L587.92,45.153L589.34,45.157L590.77,45.157L593.61,45.151L595.03,45.153L597.87,45.151L599.29,45.151L600.71,45.154L603.55,45.153L604.97,45.153L606.39,45.151L610.65,45.151L613.49,45.151L619.17,45.151L622.01,45.151L623.43,45.151L624.85,45.151L626.27,45.153L629.11,45.153L630.53,45.151L631.95,45.151L634.79,45.151L636.21,45.151L637.63,45.156L641.89,45.151L651.83,45.151L660.35,45.151L680.24,45.151L681.66,45.151L701.54,45.151L720,45.151" style="fill:none;stroke:#0000FF" />
</g>
</svg>
