<?xml version="1.0"?>
<!-- Generated by SVGo and Plotinum VG -->
<svg width="720pt" height="432pt" viewBox="0 0 720 432"
	xmlns="http://www.w3.org/2000/svg"
	xmlns:xlink="http://www.w3.org/1999/xlink">
<g transform="scale(1, -1) translate(0, -432)">
<path d="M0,0L720,0L720,432L0,432Z" style="fill:#FFFFFF" />
<text x="358.5" y="-420.45" transform="scale(1, -1)"
	style="font-family:Times;font-weight:normal;font-style:normal;font-size:12px"> </text>
<text x="376.81" y="-3.8613" transform="scale(1, -1)"
	style="font-family:Times;font-weight:normal;font-style:normal;font-size:12px">Costs</text>
<text x="57.805" y="-18.634" transform="scale(1, -1)"
	style="font-family:Times;font-weight:normal;font-style:normal;font-size:10px">0</text>
<text x="335.13" y="-18.634" transform="scale(1, -1)"
	style="font-family:Times;font-weight:normal;font-style:normal;font-size:10px">300</text>
<text x="617.45" y="-18.634" transform="scale(1, -1)"
	style="font-family:Times;font-weight:normal;font-style:normal;font-size:10px">600</text>
<path d="M60.305,28.263L60.305,36.263" style="fill:none;stroke:#000000;stroke-width:0.5" />
<path d="M342.63,28.263L342.63,36.263" style="fill:none;stroke:#000000;stroke-width:0.5" />
<path d="M624.95,28.263L624.95,36.263" style="fill:none;stroke:#000000;stroke-width:0.5" />
<path d="M154.41,32.263L154.41,36.263" style="fill:none;stroke:#000000;stroke-width:0.5" />
<path d="M248.52,32.263L248.52,36.263" style="fill:none;stroke:#000000;stroke-width:0.5" />
<path d="M436.74,32.263L436.74,36.263" style="fill:none;stroke:#000000;stroke-width:0.5" />
<path d="M530.84,32.263L530.84,36.263" style="fill:none;stroke:#000000;stroke-width:0.5" />
<path d="M719.06,32.263L719.06,36.263" style="fill:none;stroke:#000000;stroke-width:0.5" />
<path d="M60.305,36.263L720,36.263" style="fill:none;stroke:#000000;stroke-width:0.5" />
<g transform="rotate(90)">
<text x="150.91" y="11.555" transform="scale(1, -1)"
	style="font-family:Times;font-weight:normal;font-style:normal;font-size:12px">Number of trials (1000000 total)</text>
</g>
<text x="19.055" y="-82.499" transform="scale(1, -1)"
	style="font-family:Times;font-weight:normal;font-style:normal;font-size:10px">10000</text>
<text x="19.055" y="-244.73" transform="scale(1, -1)"
	style="font-family:Times;font-weight:normal;font-style:normal;font-size:10px">50000</text>
<text x="19.055" y="-406.96" transform="scale(1, -1)"
	style="font-family:Times;font-weight:normal;font-style:normal;font-size:10px">90000</text>
<path d="M46.555,85.704L54.555,85.704" style="fill:none;stroke:#000000;stroke-width:0.5" />
<path d="M46.555,247.93L54.555,247.93" style="fill:none;stroke:#000000;stroke-width:0.5" />
<path d="M46.555,410.16L54.555,410.16" style="fill:none;stroke:#000000;stroke-width:0.5" />
<path d="M50.555,126.26L54.555,126.26" style="fill:none;stroke:#000000;stroke-width:0.5" />
<path d="M50.555,166.82L54.555,166.82" style="fill:none;stroke:#000000;stroke-width:0.5" />
<path d="M50.555,207.38L54.555,207.38" style="fill:none;stroke:#000000;stroke-width:0.5" />
<path d="M50.555,288.49L54.555,288.49" style="fill:none;stroke:#000000;stroke-width:0.5" />
<path d="M50.555,329.05L54.555,329.05" style="fill:none;stroke:#000000;stroke-width:0.5" />
<path d="M50.555,369.6L54.555,369.6" style="fill:none;stroke:#000000;stroke-width:0.5" />
<path d="M54.555,45.151L54.555,413.3" style="fill:none;stroke:#000000;stroke-width:0.5" />
<path d="M60.305,413.3L81.008,59.93L82.891,55.862L84.773,51.912L85.714,55.777L86.655,62.721L87.596,55.789L88.537,52.07L90.419,73.124L91.36,66.663L92.301,94.534L93.242,88.381L94.183,71.177L95.125,48.428L96.066,69.06L97.007,98.829L97.948,62.842L98.889,84.666L99.83,89.002L100.77,77.155L101.71,73.76L102.65,67.068L103.59,78.351L105.48,45.443L106.42,66.553L107.36,74.377L108.3,63.69L109.24,45.825L110.18,114.11L111.12,75.938L112.06,49.913L113.01,80.87L113.95,72.377L114.89,51.657L115.83,66.026L116.77,49.974L117.71,54.703L118.65,66.545L119.59,52.934L120.53,51.373L121.47,52.306L122.42,55.299L123.36,72.641L124.3,58.008L125.24,58.673L126.18,58.061L127.12,70.459L128.06,59.273L129,86.284L129.94,79.609L130.89,65.888L131.83,64.915L132.77,72.199L133.71,68.253L134.65,65.499L135.59,87.112L136.53,89.78L137.47,65.389L138.41,67.364L139.36,68.265L140.3,72.848L141.24,66.265L142.18,69.522L143.12,72.746L144.06,69.778L145,64.83L145.94,68.476L146.88,73.237L147.82,66.018L148.77,66.87L149.71,73.772L150.65,69.36L151.59,66.914L152.53,65.576L153.47,66.614L154.41,63.426L155.35,62.81L156.29,64.517L157.24,66.095L158.18,61.439L159.12,62.153L160.06,68.103L161,68.034L161.94,65.109L162.88,67.527L163.82,66.241L164.76,61.788L165.71,68.313L166.65,67.17L167.59,64.87L168.53,70.658L169.47,68.61L170.41,64.242L171.35,63.572L172.29,66.038L173.23,67.437L174.18,63.333L175.12,64.834L176.06,67.45L177,67.884L177.94,62.944L178.88,67.304L179.82,67.961L180.76,62.084L181.7,64.359L182.64,66.841L183.59,64.757L184.53,62.141L185.47,65.527L186.41,66.383L187.35,63.232L188.29,62.976L189.23,63.463L190.17,63.005L191.11,61.463L192.06,62.388L193,61.719L193.94,61.435L194.88,60.263L195.82,61.224L196.76,60.656L197.7,59.78L198.64,61.849L199.58,61.869L200.53,60.247L201.47,60.121L202.41,61.232L203.35,60.21L204.29,60.697L205.23,62.088L206.17,60.762L207.11,60.157L208.05,59.614L208.99,59.699L209.94,59.78L210.88,59.358L211.82,60.255L212.76,59.456L213.7,59.034L214.64,58.953L215.58,59.505L216.52,59.034L217.46,58.126L218.41,58.487L219.35,59.152L220.29,57.805L221.23,57.789L222.17,57.976L223.11,57.391L224.05,57.209L224.99,56.848L225.93,57.099L226.88,57.189L227.82,56.365L228.76,56.329L229.7,56.528L230.64,55.696L231.58,55.672L232.52,56.15L233.46,55.404L234.4,54.909L235.35,55.396L236.29,55.36L237.23,55.218L238.17,54.844L239.11,54.857L240.05,54.792L240.99,54.366L241.93,54.613L242.87,54.585L243.81,54.131L244.76,54.11L245.7,54.114L246.64,53.981L247.58,53.222L248.52,53.737L249.46,53.462L250.4,53.247L251.34,53.242L252.28,53.307L253.23,53.072L254.17,52.829L255.11,52.768L256.05,52.76L256.99,52.387L257.93,52.273L258.87,52.358L259.81,51.997L260.75,52.038L261.7,51.551L262.64,51.795L263.58,51.543L264.52,51.389L265.46,51.754L266.4,51.109L267.34,51.028L268.28,51.117L269.22,51.012L270.16,50.635L271.11,50.935L272.05,50.805L272.99,50.7L273.93,50.505L274.87,50.395L275.81,50.16L276.75,50.132L277.69,49.897L278.63,50.099L279.58,49.909L280.52,50.018L281.46,49.722L282.4,49.605L283.34,49.523L284.28,49.223L285.22,49.434L286.16,49.341L287.1,49.049L288.05,49.483L288.99,49.268L289.93,49.154L290.87,48.943L291.81,48.956L292.75,48.728L293.69,48.826L294.63,48.753L295.57,48.704L296.52,48.558L297.46,48.473L298.4,48.493L299.34,48.497L300.28,48.343L301.22,48.128L302.16,48.209L303.1,48.149L304.04,48.08L304.98,48.12L305.93,48.234L306.87,47.605L307.81,47.873L308.75,47.706L309.69,47.897L310.63,47.633L311.57,47.496L312.51,47.423L313.45,47.548L314.4,47.378L315.34,47.309L316.28,47.297L317.22,47.293L318.16,47.139L319.1,47.297L320.04,47.212L320.98,47.155L321.92,47.017L322.87,47.053L323.81,47.102L324.75,47.041L325.69,46.944L326.63,46.855L327.57,46.875L328.51,46.843L329.45,46.636L330.39,46.615L331.34,46.753L332.28,46.636L333.22,46.68L334.16,46.62L335.1,46.514L336.04,46.376L336.98,46.474L337.92,46.494L338.86,46.583L339.8,46.409L340.75,46.279L341.69,46.433L342.63,46.323L343.57,46.299L344.51,46.299L345.45,46.336L346.39,46.104L347.33,46.295L348.27,46.133L349.22,46.21L350.16,46.157L351.1,46.133L352.04,46.109L352.98,46.04L353.92,45.93L354.86,45.963L355.8,45.914L356.74,45.987L357.69,46.003L358.63,45.979L359.57,45.963L360.51,45.849L361.45,45.849L362.39,45.8L363.33,45.971L364.27,45.906L365.21,45.812L366.15,45.723L367.1,45.817L368.04,45.76L368.98,45.715L369.92,45.796L370.86,45.719L371.8,45.703L372.74,45.764L373.68,45.577L374.62,45.63L375.57,45.683L376.51,45.731L377.45,45.593L378.39,45.606L379.33,45.675L380.27,45.614L381.21,45.565L382.15,45.468L383.09,45.614L384.04,45.549L384.98,45.516L385.92,45.5L386.86,45.484L387.8,45.524L388.74,45.48L389.68,45.541L390.62,45.451L391.56,45.415L392.51,45.488L393.45,45.427L394.39,45.451L395.33,45.431L396.27,45.431L397.21,45.403L398.15,45.423L399.09,45.403L400.03,45.411L400.97,45.391L401.92,45.423L402.86,45.358L403.8,45.383L404.74,45.366L405.68,45.395L406.62,45.354L407.56,45.378L408.5,45.338L409.44,45.322L410.39,45.289L411.33,45.322L412.27,45.33L413.21,45.35L414.15,45.297L415.09,45.33L416.03,45.318L416.97,45.305L417.91,45.273L418.86,45.249L419.8,45.232L420.74,45.314L421.68,45.285L422.62,45.249L423.56,45.249L424.5,45.285L425.44,45.269L426.38,45.281L427.32,45.257L428.27,45.232L429.21,45.245L430.15,45.249L431.09,45.249L432.03,45.208L432.97,45.228L433.91,45.245L434.85,45.265L435.79,45.253L436.74,45.212L437.68,45.192L438.62,45.241L439.56,45.196L440.5,45.208L441.44,45.216L442.38,45.224L443.32,45.208L444.26,45.228L445.21,45.22L446.15,45.2L447.09,45.18L448.03,45.188L448.97,45.184L449.91,45.184L450.85,45.184L451.79,45.22L452.73,45.216L453.68,45.204L454.62,45.216L455.56,45.172L456.5,45.188L457.44,45.18L458.38,45.18L459.32,45.192L460.26,45.184L461.2,45.208L462.14,45.196L463.09,45.176L464.03,45.188L464.97,45.176L465.91,45.192L466.85,45.184L467.79,45.196L468.73,45.18L469.67,45.172L470.61,45.184L471.56,45.176L472.5,45.168L473.44,45.172L474.38,45.164L475.32,45.176L476.26,45.159L477.2,45.184L478.14,45.184L479.08,45.164L480.03,45.172L480.97,45.164L481.91,45.184L482.85,45.184L483.79,45.168L484.73,45.151L485.67,45.151L486.61,45.151L487.55,45.164L488.49,45.164L489.44,45.168L490.38,45.172L491.32,45.155L492.26,45.172L493.2,45.168L494.14,45.164L495.08,45.155L496.02,45.172L497.91,45.159L498.85,45.164L499.79,45.155L500.73,45.155L502.61,45.159L503.55,45.168L505.43,45.159L506.38,45.164L507.32,45.151L508.26,45.155L510.14,45.159L512.96,45.155L513.9,45.151L514.85,45.151L515.79,45.155L516.73,45.159L517.67,45.151L518.61,45.151L519.55,45.155L520.49,45.151L523.31,45.155L524.26,45.155L526.14,45.155L528.02,45.151L529.9,45.151L533.67,45.155L537.43,45.151L538.37,45.155L539.31,45.155L540.25,45.151L541.2,45.151L542.14,45.155L544.96,45.151L546.84,45.151L548.72,45.151L549.66,45.151L552.49,45.151L560.96,45.151L564.72,45.151L566.6,45.151L567.55,45.155L568.49,45.151L574.13,45.151L589.19,45.151L592.95,45.151L606.13,45.151L720,45.151" style="fill:none;stroke:#0000FF" />
</g>
</svg>
