<?xml version="1.0"?>
<!-- Generated by SVGo and Plotinum VG -->
<svg width="720pt" height="432pt" viewBox="0 0 720 432"
	xmlns="http://www.w3.org/2000/svg"
	xmlns:xlink="http://www.w3.org/1999/xlink">
<g transform="scale(1, -1) translate(0, -432)">
<path d="M0,0L720,0L720,432L0,432Z" style="fill:#FFFFFF" />
<text x="358.5" y="-420.45" transform="scale(1, -1)"
	style="font-family:Times;font-weight:normal;font-style:normal;font-size:12px"> </text>
<text x="379.31" y="-3.8613" transform="scale(1, -1)"
	style="font-family:Times;font-weight:normal;font-style:normal;font-size:12px">Costs</text>
<text x="62.805" y="-18.634" transform="scale(1, -1)"
	style="font-family:Times;font-weight:normal;font-style:normal;font-size:10px">0</text>
<text x="322.33" y="-18.634" transform="scale(1, -1)"
	style="font-family:Times;font-weight:normal;font-style:normal;font-size:10px">200</text>
<text x="586.85" y="-18.634" transform="scale(1, -1)"
	style="font-family:Times;font-weight:normal;font-style:normal;font-size:10px">400</text>
<path d="M65.305,28.263L65.305,36.263" style="fill:none;stroke:#000000;stroke-width:0.5" />
<path d="M329.83,28.263L329.83,36.263" style="fill:none;stroke:#000000;stroke-width:0.5" />
<path d="M594.35,28.263L594.35,36.263" style="fill:none;stroke:#000000;stroke-width:0.5" />
<path d="M197.57,32.263L197.57,36.263" style="fill:none;stroke:#000000;stroke-width:0.5" />
<path d="M462.09,32.263L462.09,36.263" style="fill:none;stroke:#000000;stroke-width:0.5" />
<path d="M65.305,36.263L720,36.263" style="fill:none;stroke:#000000;stroke-width:0.5" />
<g transform="rotate(90)">
<text x="151.99" y="11.555" transform="scale(1, -1)"
	style="font-family:Times;font-weight:normal;font-style:normal;font-size:12px">Number of trials (1000000 total)</text>
</g>
<text x="24.055" y="-114.95" transform="scale(1, -1)"
	style="font-family:Times;font-weight:normal;font-style:normal;font-size:10px">50000</text>
<text x="19.055" y="-260.95" transform="scale(1, -1)"
	style="font-family:Times;font-weight:normal;font-style:normal;font-size:10px">150000</text>
<text x="19.055" y="-406.96" transform="scale(1, -1)"
	style="font-family:Times;font-weight:normal;font-style:normal;font-size:10px">250000</text>
<path d="M51.555,118.15L59.555,118.15" style="fill:none;stroke:#000000;stroke-width:0.5" />
<path d="M51.555,264.16L59.555,264.16" style="fill:none;stroke:#000000;stroke-width:0.5" />
<path d="M51.555,410.16L59.555,410.16" style="fill:none;stroke:#000000;stroke-width:0.5" />
<path d="M55.555,191.15L59.555,191.15" style="fill:none;stroke:#000000;stroke-width:0.5" />
<path d="M55.555,337.16L59.555,337.16" style="fill:none;stroke:#000000;stroke-width:0.5" />
<path d="M59.555,45.151L59.555,415.47" style="fill:none;stroke:#000000;stroke-width:0.5" />
<path d="M65.305,415.47L95.725,59.22L99.693,48.55L101.02,55.49L102.34,55.453L103.66,48.552L106.31,83.84L107.63,55.357L108.95,62.853L110.27,70.228L111.6,63.008L112.92,48.714L114.24,55.322L115.56,52.365L116.89,55.544L119.53,55.123L120.85,83.797L122.18,58.652L123.5,83.631L124.82,48.58L126.15,48.654L128.79,51.917L130.11,45.271L131.44,45.578L132.76,48.943L134.08,45.28L135.4,83.939L136.73,74.917L138.05,45.762L139.37,60.242L140.69,46.581L142.02,57.537L143.34,50.158L144.66,60.996L145.98,53.862L147.31,68.959L148.63,68.08L149.95,48.013L151.27,50.278L152.6,48.857L153.92,49.235L155.24,48.432L156.57,49.076L157.89,49.21L159.21,52.079L160.53,49.029L161.86,65.136L163.18,55.766L164.5,52.723L165.82,52.292L167.15,58.771L168.47,49.188L169.79,50.575L171.11,63.106L172.44,64.195L173.76,48.657L175.08,49.133L176.4,51.711L177.73,53.736L179.05,53.917L180.37,53.608L181.69,52.106L183.02,50.646L184.34,50.676L185.66,50.895L186.99,50.339L188.31,50.926L189.63,51.557L190.95,53.96L192.28,53.659L193.6,54.848L194.92,52.427L196.24,48.841L197.57,50.724L198.89,49.564L200.21,50.749L201.53,49.148L202.86,53.917L204.18,51.621L205.5,52.11L206.82,53.516L208.15,50.181L209.47,49.711L210.79,48.933L212.12,50.485L213.44,50.421L214.76,50.226L216.08,51.184L217.41,53.149L218.73,53.412L220.05,51.297L221.37,49.742L222.7,49.781L224.02,48.439L225.34,49.426L226.66,50.082L227.99,50.264L229.31,49.91L230.63,50.511L231.95,49.11L233.28,49.515L234.6,48.419L235.92,48.685L237.24,48.651L238.57,48.59L239.89,47.904L241.21,50.047L242.54,50.432L243.86,49.644L245.18,48.923L246.5,48.707L247.83,48.59L249.15,48.806L250.47,48.718L251.79,48.369L253.12,48.483L254.44,48.86L255.76,48.359L257.08,47.48L258.41,47.723L259.73,47.905L261.05,47.934L262.37,47.981L263.7,48.117L265.02,47.838L266.34,47.387L267.67,47.977L268.99,48.217L270.31,47.658L271.63,47.492L272.96,47.871L274.28,47.972L275.6,47.404L276.92,47.628L278.25,47.628L279.57,46.985L280.89,46.944L282.21,47.01L283.54,47.144L284.86,47.105L286.18,47.29L287.5,47.124L288.83,47.308L290.15,47.004L291.47,46.956L292.79,46.76L294.12,46.811L295.44,46.766L296.76,46.896L298.09,46.854L299.41,47.011L300.73,47.009L302.05,46.668L303.38,46.535L304.7,46.585L306.02,46.426L307.34,46.395L308.67,46.557L309.99,46.477L311.31,46.514L312.63,46.547L313.96,46.467L315.28,46.524L316.6,46.324L317.92,46.265L319.25,46.315L320.57,46.182L321.89,46.29L323.21,46.204L324.54,46.255L325.86,46.217L327.18,46.162L328.51,46.042L329.83,46.041L331.15,46.001L332.47,46.007L333.8,45.97L335.12,45.93L336.44,45.944L337.76,45.878L339.09,45.943L340.41,45.859L341.73,45.876L343.05,45.903L344.38,45.867L345.7,45.849L347.02,45.857L348.34,45.852L349.67,45.741L350.99,45.766L352.31,45.817L353.64,45.657L354.96,45.766L356.28,45.756L357.6,45.724L358.93,45.676L360.25,45.703L361.57,45.64L362.89,45.603L364.22,45.635L365.54,45.668L366.86,45.573L368.18,45.614L369.51,45.598L370.83,45.55L372.15,45.57L373.47,45.541L374.8,45.567L376.12,45.511L377.44,45.534L378.76,45.505L380.09,45.489L381.41,45.48L382.73,45.47L384.06,45.452L385.38,45.438L386.7,45.433L388.02,45.426L389.35,45.455L390.67,45.386L391.99,45.421L393.31,45.426L394.64,45.402L395.96,45.385L397.28,45.397L398.6,45.389L399.93,45.4L401.25,45.363L402.57,45.346L403.89,45.37L405.22,45.353L406.54,45.341L407.86,45.362L409.19,45.321L410.51,45.312L411.83,45.335L413.15,45.331L414.48,45.309L415.8,45.303L417.12,45.321L418.44,45.312L419.77,45.292L421.09,45.284L422.41,45.289L423.73,45.286L425.06,45.287L426.38,45.293L427.7,45.283L429.02,45.3L430.35,45.254L431.67,45.29L432.99,45.28L434.31,45.255L435.64,45.246L436.96,45.254L438.28,45.238L439.61,45.243L440.93,45.235L442.25,45.221L443.57,45.238L444.9,45.235L446.22,45.214L447.54,45.201L448.86,45.22L450.19,45.213L451.51,45.232L452.83,45.22L454.15,45.217L455.48,45.216L456.8,45.205L458.12,45.202L459.44,45.194L460.77,45.194L462.09,45.21L463.41,45.216L464.73,45.202L466.06,45.202L467.38,45.182L468.7,45.194L470.03,45.195L471.35,45.182L472.67,45.202L473.99,45.181L475.32,45.186L476.64,45.188L477.96,45.188L479.28,45.182L480.61,45.191L481.93,45.186L483.25,45.179L484.57,45.189L485.9,45.179L487.22,45.173L488.54,45.175L489.86,45.181L491.19,45.179L492.51,45.169L493.83,45.167L495.16,45.186L496.48,45.169L497.8,45.178L499.12,45.17L500.45,45.183L501.77,45.173L503.09,45.169L504.41,45.173L505.74,45.16L507.06,45.167L508.38,45.163L509.7,45.176L511.03,45.162L512.35,45.157L513.67,45.169L514.99,45.162L516.32,45.166L517.64,45.172L518.96,45.157L520.28,45.159L521.61,45.159L522.93,45.165L524.25,45.16L525.58,45.16L526.9,45.163L528.22,45.157L529.54,45.153L530.87,45.165L532.19,45.156L533.51,45.162L534.83,45.16L536.16,45.156L537.48,45.163L538.8,45.159L540.12,45.157L541.45,45.159L542.77,45.153L544.09,45.151L545.41,45.156L546.74,45.154L548.06,45.153L549.38,45.153L550.71,45.157L552.03,45.157L553.35,45.153L554.67,45.154L556,45.156L557.32,45.154L558.64,45.156L559.96,45.153L561.29,45.156L562.61,45.151L563.93,45.151L565.25,45.151L566.58,45.154L567.9,45.16L569.22,45.151L570.54,45.153L571.87,45.156L573.19,45.153L574.51,45.153L575.83,45.153L577.16,45.151L578.48,45.153L579.8,45.151L581.13,45.153L582.45,45.153L583.77,45.151L585.09,45.154L586.42,45.153L593.03,45.153L594.35,45.151L597,45.154L599.64,45.151L602.29,45.151L604.93,45.151L606.25,45.153L607.58,45.151L608.9,45.154L612.87,45.151L614.19,45.153L615.51,45.151L616.84,45.153L618.16,45.151L623.45,45.151L624.77,45.151L632.71,45.151L640.64,45.151L645.93,45.151L653.87,45.151L655.19,45.151L656.51,45.153L657.84,45.151L660.48,45.151L665.77,45.151L720,45.151" style="fill:none;stroke:#0000FF" />
</g>
</svg>
