<?xml version="1.0"?>
<!-- Generated by SVGo and Plotinum VG -->
<svg width="720pt" height="432pt" viewBox="0 0 720 432"
	xmlns="http://www.w3.org/2000/svg"
	xmlns:xlink="http://www.w3.org/1999/xlink">
<g transform="scale(1, -1) translate(0, -432)">
<path d="M0,0L720,0L720,432L0,432Z" style="fill:#FFFFFF" />
<text x="358.5" y="-420.45" transform="scale(1, -1)"
	style="font-family:Times;font-weight:normal;font-style:normal;font-size:12px"> </text>
<text x="385.56" y="-3.8613" transform="scale(1, -1)"
	style="font-family:Times;font-weight:normal;font-style:normal;font-size:12px">Costs</text>
<text x="69.055" y="-18.634" transform="scale(1, -1)"
	style="font-family:Times;font-weight:normal;font-style:normal;font-size:10px">0.00</text>
<text x="368.12" y="-18.634" transform="scale(1, -1)"
	style="font-family:Times;font-weight:normal;font-style:normal;font-size:10px">250.00</text>
<text x="672.19" y="-18.634" transform="scale(1, -1)"
	style="font-family:Times;font-weight:normal;font-style:normal;font-size:10px">500.00</text>
<path d="M77.805,28.263L77.805,36.263" style="fill:none;stroke:#000000;stroke-width:0.5" />
<path d="M381.87,28.263L381.87,36.263" style="fill:none;stroke:#000000;stroke-width:0.5" />
<path d="M685.94,28.263L685.94,36.263" style="fill:none;stroke:#000000;stroke-width:0.5" />
<path d="M138.62,32.263L138.62,36.263" style="fill:none;stroke:#000000;stroke-width:0.5" />
<path d="M199.43,32.263L199.43,36.263" style="fill:none;stroke:#000000;stroke-width:0.5" />
<path d="M260.25,32.263L260.25,36.263" style="fill:none;stroke:#000000;stroke-width:0.5" />
<path d="M321.06,32.263L321.06,36.263" style="fill:none;stroke:#000000;stroke-width:0.5" />
<path d="M442.69,32.263L442.69,36.263" style="fill:none;stroke:#000000;stroke-width:0.5" />
<path d="M503.5,32.263L503.5,36.263" style="fill:none;stroke:#000000;stroke-width:0.5" />
<path d="M564.32,32.263L564.32,36.263" style="fill:none;stroke:#000000;stroke-width:0.5" />
<path d="M625.13,32.263L625.13,36.263" style="fill:none;stroke:#000000;stroke-width:0.5" />
<path d="M77.805,36.263L720,36.263" style="fill:none;stroke:#000000;stroke-width:0.5" />
<g transform="rotate(90)">
<text x="152.55" y="11.555" transform="scale(1, -1)"
	style="font-family:Times;font-weight:normal;font-style:normal;font-size:12px">Number of trials (1000000 total)</text>
</g>
<text x="24.055" y="-113.45" transform="scale(1, -1)"
	style="font-family:Times;font-weight:normal;font-style:normal;font-size:10px">25000.00</text>
<text x="24.055" y="-256.45" transform="scale(1, -1)"
	style="font-family:Times;font-weight:normal;font-style:normal;font-size:10px">75000.00</text>
<text x="19.055" y="-399.46" transform="scale(1, -1)"
	style="font-family:Times;font-weight:normal;font-style:normal;font-size:10px">125000.00</text>
<path d="M64.055,116.65L72.055,116.65" style="fill:none;stroke:#000000;stroke-width:0.5" />
<path d="M64.055,259.66L72.055,259.66" style="fill:none;stroke:#000000;stroke-width:0.5" />
<path d="M64.055,402.66L72.055,402.66" style="fill:none;stroke:#000000;stroke-width:0.5" />
<path d="M68.055,59.449L72.055,59.449" style="fill:none;stroke:#000000;stroke-width:0.5" />
<path d="M68.055,88.05L72.055,88.05" style="fill:none;stroke:#000000;stroke-width:0.5" />
<path d="M68.055,145.25L72.055,145.25" style="fill:none;stroke:#000000;stroke-width:0.5" />
<path d="M68.055,173.85L72.055,173.85" style="fill:none;stroke:#000000;stroke-width:0.5" />
<path d="M68.055,202.45L72.055,202.45" style="fill:none;stroke:#000000;stroke-width:0.5" />
<path d="M68.055,231.06L72.055,231.06" style="fill:none;stroke:#000000;stroke-width:0.5" />
<path d="M68.055,288.26L72.055,288.26" style="fill:none;stroke:#000000;stroke-width:0.5" />
<path d="M68.055,316.86L72.055,316.86" style="fill:none;stroke:#000000;stroke-width:0.5" />
<path d="M68.055,345.46L72.055,345.46" style="fill:none;stroke:#000000;stroke-width:0.5" />
<path d="M68.055,374.06L72.055,374.06" style="fill:none;stroke:#000000;stroke-width:0.5" />
<path d="M72.055,45.151L72.055,416.58" style="fill:none;stroke:#000000;stroke-width:0.5" />
<path d="M77.805,416.58L105.78,55.539L107,52.599L109.43,48.366L110.64,91.705L111.86,48.887L113.08,64.634L115.51,48.632L117.94,82.075L119.16,89.42L120.37,70.192L121.59,95.541L125.24,74.519L126.46,56.543L127.67,95.99L128.89,68.161L130.1,65.919L131.32,52.513L132.54,58.877L133.75,66.227L134.97,45.332L136.19,48.595L137.4,45.237L138.62,108.82L139.83,116.24L141.05,45.752L142.27,72.671L143.48,56.732L144.7,45.821L145.92,67.366L147.13,47.357L148.35,64.674L149.57,64.74L150.78,54.573L152,60.842L153.21,55.193L154.43,62.149L155.65,48.798L156.86,50.234L158.08,50.837L159.3,52.516L160.51,57.687L161.73,58.133L162.94,57.604L164.16,58.113L165.38,51.541L166.59,58.468L167.81,57.699L169.03,61.079L170.24,56.151L171.46,68.467L172.67,61.811L173.89,58.116L175.11,147.26L176.32,75.832L177.54,53.789L178.76,58.185L179.97,64.812L181.19,65.787L182.4,67.088L183.62,64.363L184.84,53.122L186.05,59.014L187.27,58.84L188.49,60.67L189.7,67.523L190.92,58.525L192.13,61.065L193.35,58.557L194.57,58.417L195.78,59.297L197,53.271L198.22,54.458L199.43,55.451L200.65,62.609L201.87,55.925L203.08,57.184L204.3,62.504L205.51,53.042L206.73,54.189L207.95,66.545L209.16,56.475L210.38,62.209L211.6,56.377L212.81,55.688L214.03,56.352L215.24,63.39L216.46,67.051L217.68,60.153L218.89,64.7L220.11,55.296L221.33,52.676L222.54,60.607L223.76,57.733L224.97,65.807L226.19,61.165L227.41,58.631L228.62,56.066L229.84,56.526L231.06,59.389L232.27,55.488L233.49,55.219L234.7,52.811L235.92,68.756L237.14,72.983L238.35,55.965L239.57,59.003L240.79,56.646L242,53.228L243.22,58.622L244.43,55.056L245.65,56.712L246.87,57.058L248.08,55.356L249.3,55.159L250.52,55.13L251.73,55.977L252.95,53.125L254.17,52.994L255.38,52.639L256.6,53.085L257.81,53.835L259.03,53.68L260.25,54.324L261.46,54.063L262.68,52.33L263.9,53.354L265.11,53.812L266.33,54.467L267.54,52.688L268.76,55.682L269.98,54.115L271.19,53.1L272.41,53.969L273.63,57.241L274.84,51.77L276.06,52.794L277.27,54.229L278.49,54.807L279.71,54.721L280.92,54.112L282.14,51.446L283.36,52.164L284.57,52.794L285.79,52.839L287,54.472L288.22,52.934L289.44,52.402L290.65,52.116L291.87,51.833L293.09,52.044L294.3,50.934L295.52,50.34L296.73,50.897L297.95,52.622L299.17,51.189L300.38,50.508L301.6,51.752L302.82,50.463L304.03,49.773L305.25,50.628L306.47,50.388L307.68,50.874L308.9,50.626L310.11,49.73L311.33,50.282L312.55,50.159L313.76,50.511L314.98,49.573L316.2,49.276L317.41,49.579L318.63,49.073L319.84,49.522L321.06,49.733L322.28,49.278L323.49,49.805L324.71,49.218L325.93,49.05L327.14,48.955L328.36,49.221L329.57,49.356L330.79,49.055L332.01,48.832L333.22,48.632L334.44,49.553L335.66,49.267L336.87,48.297L338.09,48.858L339.3,48.489L340.52,48.523L341.74,48.735L342.95,48.283L344.17,48.029L345.39,48.398L346.6,47.843L347.82,48.123L349.03,48.094L350.25,48.017L351.47,47.665L352.68,47.906L353.9,47.74L355.12,47.685L356.33,47.462L357.55,47.5L358.77,47.402L359.98,47.365L361.2,47.285L362.41,47.296L363.63,47.268L364.85,47.176L366.06,47.025L367.28,47.05L368.5,46.905L369.71,47.111L370.93,47.033L372.14,46.913L373.36,46.913L374.58,46.902L375.79,46.968L377.01,46.839L378.23,46.859L379.44,46.776L380.66,46.587L381.87,46.601L383.09,46.644L384.31,46.55L385.52,46.633L386.74,46.473L387.96,46.516L389.17,46.416L390.39,46.533L391.6,46.513L392.82,46.37L394.04,46.427L395.25,46.313L396.47,46.436L397.69,46.293L398.9,46.293L400.12,46.307L401.33,46.195L402.55,46.141L403.77,46.084L404.98,46.089L406.2,46.15L407.42,46.098L408.63,45.989L409.85,46.061L411.07,45.972L412.28,46.015L413.5,45.969L414.71,45.978L415.93,45.803L417.15,45.835L418.36,45.852L419.58,45.841L420.8,45.872L422.01,45.778L423.23,45.778L424.44,45.723L425.66,45.763L426.88,45.758L428.09,45.772L429.31,45.798L430.53,45.663L431.74,45.712L432.96,45.635L434.17,45.686L435.39,45.52L436.61,45.689L437.82,45.652L439.04,45.646L440.26,45.64L441.47,45.54L442.69,45.549L443.9,45.52L445.12,45.575L446.34,45.509L447.55,45.563L448.77,45.535L449.99,45.529L451.2,45.515L452.42,45.483L453.63,45.449L454.85,45.552L456.07,45.475L457.28,45.503L458.5,45.372L459.72,45.437L460.93,45.446L462.15,45.42L463.37,45.4L464.58,45.42L465.8,45.394L467.01,45.38L468.23,45.354L469.45,45.363L470.66,45.363L471.88,45.357L473.1,45.374L474.31,45.334L475.53,45.3L476.74,45.349L477.96,45.317L479.18,45.317L480.39,45.317L481.61,45.314L482.83,45.297L484.04,45.343L485.26,45.297L486.47,45.317L487.69,45.294L488.91,45.303L490.12,45.32L491.34,45.303L492.56,45.271L493.77,45.283L494.99,45.283L496.2,45.294L497.42,45.269L498.64,45.243L499.85,45.26L501.07,45.271L502.29,45.237L503.5,45.249L504.72,45.24L505.93,45.249L507.15,45.217L508.37,45.26L509.58,45.271L510.8,45.249L512.02,45.226L513.23,45.246L514.45,45.229L515.67,45.226L516.88,45.194L518.1,45.22L519.31,45.189L520.53,45.231L521.75,45.197L522.96,45.203L524.18,45.211L525.4,45.206L526.61,45.223L527.83,45.194L529.04,45.217L530.26,45.194L531.48,45.203L532.69,45.186L533.91,45.18L535.13,45.2L536.34,45.2L537.56,45.194L538.77,45.18L539.99,45.183L541.21,45.174L542.42,45.18L543.64,45.194L544.86,45.169L546.07,45.177L547.29,45.194L548.5,45.183L549.72,45.171L550.94,45.186L552.15,45.18L553.37,45.177L554.59,45.174L555.8,45.163L557.02,45.169L558.23,45.169L559.45,45.163L560.67,45.183L561.88,45.18L563.1,45.163L564.32,45.169L565.53,45.171L566.75,45.166L567.97,45.171L569.18,45.166L570.4,45.166L571.61,45.163L572.83,45.154L574.05,45.157L575.26,45.163L576.48,45.163L577.7,45.166L578.91,45.166L580.13,45.169L581.34,45.157L582.56,45.154L583.78,45.16L584.99,45.151L586.21,45.163L587.43,45.154L589.86,45.157L591.07,45.151L592.29,45.151L593.51,45.157L594.72,45.151L595.94,45.163L597.16,45.151L598.37,45.157L599.59,45.157L602.02,45.157L603.24,45.154L604.45,45.154L605.67,45.157L606.89,45.154L608.1,45.151L609.32,45.151L610.53,45.151L612.97,45.154L614.18,45.154L615.4,45.151L616.62,45.154L617.83,45.151L620.27,45.154L622.7,45.151L625.13,45.151L626.35,45.154L628.78,45.151L630,45.157L633.64,45.151L634.86,45.151L640.94,45.151L642.16,45.151L647.02,45.151L650.67,45.151L654.32,45.151L655.54,45.151L666.48,45.151L667.7,45.154L668.92,45.151L678.65,45.151L683.51,45.151L699.32,45.151L709.05,45.151L720,45.151" style="fill:none;stroke:#0000FF" />
</g>
</svg>
