<?xml version="1.0"?>
<!-- Generated by SVGo and Plotinum VG -->
<svg width="720pt" height="432pt" viewBox="0 0 720 432"
	xmlns="http://www.w3.org/2000/svg"
	xmlns:xlink="http://www.w3.org/1999/xlink">
<g transform="scale(1, -1) translate(0, -432)">
<path d="M0,0L720,0L720,432L0,432Z" style="fill:#FFFFFF" />
<text x="358.5" y="-420.45" transform="scale(1, -1)"
	style="font-family:Times;font-weight:normal;font-style:normal;font-size:12px"> </text>
<text x="379.31" y="-3.8613" transform="scale(1, -1)"
	style="font-family:Times;font-weight:normal;font-style:normal;font-size:12px">Costs</text>
<text x="62.805" y="-18.634" transform="scale(1, -1)"
	style="font-family:Times;font-weight:normal;font-style:normal;font-size:10px">0</text>
<text x="362.31" y="-18.634" transform="scale(1, -1)"
	style="font-family:Times;font-weight:normal;font-style:normal;font-size:10px">200</text>
<text x="666.82" y="-18.634" transform="scale(1, -1)"
	style="font-family:Times;font-weight:normal;font-style:normal;font-size:10px">400</text>
<path d="M65.305,28.263L65.305,36.263" style="fill:none;stroke:#000000;stroke-width:0.5" />
<path d="M369.81,28.263L369.81,36.263" style="fill:none;stroke:#000000;stroke-width:0.5" />
<path d="M674.32,28.263L674.32,36.263" style="fill:none;stroke:#000000;stroke-width:0.5" />
<path d="M217.56,32.263L217.56,36.263" style="fill:none;stroke:#000000;stroke-width:0.5" />
<path d="M522.07,32.263L522.07,36.263" style="fill:none;stroke:#000000;stroke-width:0.5" />
<path d="M65.305,36.263L720,36.263" style="fill:none;stroke:#000000;stroke-width:0.5" />
<g transform="rotate(90)">
<text x="152.55" y="11.555" transform="scale(1, -1)"
	style="font-family:Times;font-weight:normal;font-style:normal;font-size:12px">Number of trials (1000000 total)</text>
</g>
<text x="24.055" y="-106.94" transform="scale(1, -1)"
	style="font-family:Times;font-weight:normal;font-style:normal;font-size:10px">50000</text>
<text x="19.055" y="-236.92" transform="scale(1, -1)"
	style="font-family:Times;font-weight:normal;font-style:normal;font-size:10px">150000</text>
<text x="19.055" y="-366.9" transform="scale(1, -1)"
	style="font-family:Times;font-weight:normal;font-style:normal;font-size:10px">250000</text>
<path d="M51.555,110.14L59.555,110.14" style="fill:none;stroke:#000000;stroke-width:0.5" />
<path d="M51.555,240.12L59.555,240.12" style="fill:none;stroke:#000000;stroke-width:0.5" />
<path d="M51.555,370.11L59.555,370.11" style="fill:none;stroke:#000000;stroke-width:0.5" />
<path d="M55.555,175.13L59.555,175.13" style="fill:none;stroke:#000000;stroke-width:0.5" />
<path d="M55.555,305.11L59.555,305.11" style="fill:none;stroke:#000000;stroke-width:0.5" />
<path d="M59.555,45.151L59.555,416.58" style="fill:none;stroke:#000000;stroke-width:0.5" />
<path d="M65.305,416.58L98.801,48.521L104.89,66.205L107.94,62.773L109.46,48.584L112.5,77.277L114.03,48.654L115.55,55.659L117.07,73.75L120.12,48.513L121.64,48.523L123.16,59.087L124.68,59.356L126.21,48.587L127.73,58.762L129.25,66.129L130.77,55.647L132.3,69.783L133.82,52.009L138.39,48.706L139.91,91.781L141.43,62.921L142.95,51.719L144.48,45.436L146,73.714L147.52,53.041L149.04,48.968L150.57,59.791L152.09,57.653L153.61,45.357L155.13,57.795L156.66,47.33L158.18,63.207L159.7,58.079L161.23,63.809L162.75,47.189L164.27,48.783L165.79,46.49L167.32,48.008L168.84,47.629L170.36,47.808L171.88,49.349L173.41,47.587L174.93,49.208L176.45,59.566L177.97,47.161L179.5,52.289L181.02,49.195L182.54,64.374L184.06,48.884L185.59,49.129L187.11,54.349L188.63,68.867L190.15,50.485L191.68,52.338L193.2,51.038L194.72,50.019L196.24,48.952L197.77,53.418L199.29,50.984L200.81,50.045L202.33,50.947L203.86,51.818L205.38,51.578L206.9,52.239L208.42,51.513L209.95,50.874L211.47,48.718L212.99,50.462L214.51,50.186L216.04,50.69L217.56,49.317L219.08,49.692L220.6,50.939L222.13,51.298L223.65,50.027L225.17,51.043L226.69,50.832L228.22,50.265L229.74,49.753L231.26,49.16L232.78,50.196L234.31,50.375L235.83,51.996L237.35,48.413L238.88,49.495L240.4,50.208L241.92,49.316L243.44,48.628L244.97,48.518L246.49,49.135L248.01,48.678L249.53,48.264L251.06,49.827L252.58,48.674L254.1,48.675L255.62,48.657L257.15,49.827L258.67,47.517L260.19,47.279L261.71,47.871L263.24,50.295L264.76,48.237L266.28,47.716L267.8,47.823L269.33,49.291L270.85,47.512L272.37,48.511L273.89,47.956L275.42,48.324L276.94,47.438L278.46,48.134L279.98,47.312L281.51,48.008L283.03,47.874L284.55,47.973L286.07,46.948L287.6,47.125L289.12,46.891L290.64,47.112L292.16,46.961L293.69,47.414L295.21,46.876L296.73,47.019L298.25,47.131L299.78,47.578L301.3,46.805L302.82,47.112L304.34,47.008L305.87,47.5L307.39,46.696L308.91,46.826L310.43,46.944L311.96,46.563L313.48,46.555L315,46.928L316.52,46.608L318.05,46.719L319.57,46.534L321.09,46.736L322.62,46.538L324.14,46.449L325.66,46.471L327.18,46.48L328.71,46.399L330.23,46.459L331.75,46.393L333.27,46.367L334.8,46.196L336.32,46.273L337.84,46.291L339.36,46.213L340.89,46.124L342.41,46.065L343.93,46.165L345.45,46.098L346.98,46.125L348.5,46.099L350.02,46.151L351.54,45.987L353.07,45.983L354.59,45.849L356.11,45.96L357.63,46.007L359.16,46.029L360.68,45.81L362.2,45.894L363.72,45.843L365.25,45.829L366.77,45.81L368.29,45.84L369.81,45.758L371.34,45.713L372.86,45.732L374.38,45.782L375.9,45.684L377.43,45.635L378.95,45.687L380.47,45.718L381.99,45.627L383.52,45.631L385.04,45.625L386.56,45.656L388.08,45.55L389.61,45.615L391.13,45.601L392.65,45.593L394.17,45.558L395.7,45.586L397.22,45.51L398.74,45.526L400.27,45.511L401.79,45.541L403.31,45.479L404.83,45.501L406.36,45.475L407.88,45.467L409.4,45.437L410.92,45.443L412.45,45.406L413.97,45.432L415.49,45.445L417.01,45.44L418.54,45.406L420.06,45.405L421.58,45.376L423.1,45.38L424.63,45.366L426.15,45.401L427.67,45.367L429.19,45.313L430.72,45.332L432.24,45.349L433.76,45.337L435.28,45.31L436.81,45.323L438.33,45.329L439.85,45.306L441.37,45.298L442.9,45.313L444.42,45.279L445.94,45.276L447.46,45.316L448.99,45.292L450.51,45.29L452.03,45.288L453.55,45.283L455.08,45.28L456.6,45.258L458.12,45.242L459.64,45.271L461.17,45.267L462.69,45.258L464.21,45.249L465.73,45.257L467.26,45.232L468.78,45.244L470.3,45.244L471.82,45.228L473.35,45.219L474.87,45.225L476.39,45.233L477.91,45.219L479.44,45.224L480.96,45.22L482.48,45.212L484.01,45.218L485.53,45.198L487.05,45.197L488.57,45.222L490.1,45.209L491.62,45.189L493.14,45.215L494.66,45.193L496.19,45.207L497.71,45.202L499.23,45.197L500.75,45.189L502.28,45.198L503.8,45.193L505.32,45.201L506.84,45.176L508.37,45.194L509.89,45.185L511.41,45.18L512.93,45.19L514.46,45.194L515.98,45.194L517.5,45.19L519.02,45.18L520.55,45.185L522.07,45.172L523.59,45.179L525.11,45.18L526.64,45.163L528.16,45.173L529.68,45.179L531.2,45.168L532.73,45.181L534.25,45.172L535.77,45.172L537.29,45.163L538.82,45.167L540.34,45.167L541.86,45.158L543.38,45.166L544.91,45.172L546.43,45.171L547.95,45.171L549.47,45.168L551,45.167L552.52,45.16L554.04,45.168L555.56,45.158L557.09,45.159L558.61,45.163L560.13,45.159L561.66,45.163L563.18,45.166L564.7,45.157L566.22,45.154L567.75,45.158L569.27,45.159L570.79,45.155L572.31,45.153L573.84,45.159L575.36,45.162L576.88,45.158L578.4,45.16L579.93,45.159L581.45,45.153L582.97,45.151L584.49,45.158L586.02,45.16L587.54,45.157L589.06,45.155L590.58,45.157L592.11,45.155L593.63,45.154L595.15,45.159L596.67,45.158L598.2,45.154L599.72,45.155L601.24,45.151L602.76,45.154L604.29,45.154L605.81,45.153L607.33,45.155L608.85,45.154L610.38,45.154L613.42,45.153L616.47,45.154L617.99,45.151L619.51,45.155L621.03,45.151L622.56,45.151L624.08,45.153L625.6,45.153L627.12,45.151L630.17,45.153L631.69,45.151L633.21,45.151L634.74,45.153L637.78,45.155L640.83,45.155L642.35,45.151L643.87,45.154L645.4,45.151L649.96,45.154L654.53,45.151L657.58,45.153L659.1,45.151L660.62,45.151L662.14,45.153L665.19,45.151L668.23,45.151L677.37,45.151L688.03,45.151L689.55,45.151L694.12,45.155L695.64,45.151L710.86,45.151L712.39,45.151L720,45.151" style="fill:none;stroke:#0000FF" />
</g>
</svg>
