<?xml version="1.0"?>
<!-- Generated by SVGo and Plotinum VG -->
<svg width="720pt" height="432pt" viewBox="0 0 720 432"
	xmlns="http://www.w3.org/2000/svg"
	xmlns:xlink="http://www.w3.org/1999/xlink">
<g transform="scale(1, -1) translate(0, -432)">
<path d="M0,0L720,0L720,432L0,432Z" style="fill:#FFFFFF" />
<text x="358.5" y="-420.45" transform="scale(1, -1)"
	style="font-family:Times;font-weight:normal;font-style:normal;font-size:12px"> </text>
<text x="385.56" y="-3.8613" transform="scale(1, -1)"
	style="font-family:Times;font-weight:normal;font-style:normal;font-size:12px">Costs</text>
<text x="75.305" y="-18.634" transform="scale(1, -1)"
	style="font-family:Times;font-weight:normal;font-style:normal;font-size:10px">0</text>
<text x="231.66" y="-18.634" transform="scale(1, -1)"
	style="font-family:Times;font-weight:normal;font-style:normal;font-size:10px">100</text>
<text x="393.02" y="-18.634" transform="scale(1, -1)"
	style="font-family:Times;font-weight:normal;font-style:normal;font-size:10px">200</text>
<text x="554.37" y="-18.634" transform="scale(1, -1)"
	style="font-family:Times;font-weight:normal;font-style:normal;font-size:10px">300</text>
<path d="M77.805,28.263L77.805,36.263" style="fill:none;stroke:#000000;stroke-width:0.5" />
<path d="M239.16,28.263L239.16,36.263" style="fill:none;stroke:#000000;stroke-width:0.5" />
<path d="M400.52,28.263L400.52,36.263" style="fill:none;stroke:#000000;stroke-width:0.5" />
<path d="M561.87,28.263L561.87,36.263" style="fill:none;stroke:#000000;stroke-width:0.5" />
<path d="M110.08,32.263L110.08,36.263" style="fill:none;stroke:#000000;stroke-width:0.5" />
<path d="M142.35,32.263L142.35,36.263" style="fill:none;stroke:#000000;stroke-width:0.5" />
<path d="M174.62,32.263L174.62,36.263" style="fill:none;stroke:#000000;stroke-width:0.5" />
<path d="M206.89,32.263L206.89,36.263" style="fill:none;stroke:#000000;stroke-width:0.5" />
<path d="M271.43,32.263L271.43,36.263" style="fill:none;stroke:#000000;stroke-width:0.5" />
<path d="M303.7,32.263L303.7,36.263" style="fill:none;stroke:#000000;stroke-width:0.5" />
<path d="M335.97,32.263L335.97,36.263" style="fill:none;stroke:#000000;stroke-width:0.5" />
<path d="M368.24,32.263L368.24,36.263" style="fill:none;stroke:#000000;stroke-width:0.5" />
<path d="M432.79,32.263L432.79,36.263" style="fill:none;stroke:#000000;stroke-width:0.5" />
<path d="M465.06,32.263L465.06,36.263" style="fill:none;stroke:#000000;stroke-width:0.5" />
<path d="M497.33,32.263L497.33,36.263" style="fill:none;stroke:#000000;stroke-width:0.5" />
<path d="M529.6,32.263L529.6,36.263" style="fill:none;stroke:#000000;stroke-width:0.5" />
<path d="M594.14,32.263L594.14,36.263" style="fill:none;stroke:#000000;stroke-width:0.5" />
<path d="M626.41,32.263L626.41,36.263" style="fill:none;stroke:#000000;stroke-width:0.5" />
<path d="M658.68,32.263L658.68,36.263" style="fill:none;stroke:#000000;stroke-width:0.5" />
<path d="M690.96,32.263L690.96,36.263" style="fill:none;stroke:#000000;stroke-width:0.5" />
<path d="M77.805,36.263L720,36.263" style="fill:none;stroke:#000000;stroke-width:0.5" />
<g transform="rotate(90)">
<text x="152.55" y="11.555" transform="scale(1, -1)"
	style="font-family:Times;font-weight:normal;font-style:normal;font-size:12px">Number of trials (1000000 total)</text>
</g>
<text x="24.055" y="-69.333" transform="scale(1, -1)"
	style="font-family:Times;font-weight:normal;font-style:normal;font-size:10px">25000.00</text>
<text x="19.055" y="-178.89" transform="scale(1, -1)"
	style="font-family:Times;font-weight:normal;font-style:normal;font-size:10px">125000.00</text>
<text x="19.055" y="-288.44" transform="scale(1, -1)"
	style="font-family:Times;font-weight:normal;font-style:normal;font-size:10px">225000.00</text>
<text x="19.055" y="-397.99" transform="scale(1, -1)"
	style="font-family:Times;font-weight:normal;font-style:normal;font-size:10px">325000.00</text>
<path d="M64.055,72.538L72.055,72.538" style="fill:none;stroke:#000000;stroke-width:0.5" />
<path d="M64.055,182.09L72.055,182.09" style="fill:none;stroke:#000000;stroke-width:0.5" />
<path d="M64.055,291.64L72.055,291.64" style="fill:none;stroke:#000000;stroke-width:0.5" />
<path d="M64.055,401.2L72.055,401.2" style="fill:none;stroke:#000000;stroke-width:0.5" />
<path d="M68.055,127.31L72.055,127.31" style="fill:none;stroke:#000000;stroke-width:0.5" />
<path d="M68.055,236.87L72.055,236.87" style="fill:none;stroke:#000000;stroke-width:0.5" />
<path d="M68.055,346.42L72.055,346.42" style="fill:none;stroke:#000000;stroke-width:0.5" />
<path d="M72.055,45.151L72.055,416.58" style="fill:none;stroke:#000000;stroke-width:0.5" />
<path d="M77.805,416.58L116.53,48.543L122.98,48.588L124.6,55.4L127.82,64.2L129.44,70.887L131.05,67.433L132.67,64.269L134.28,58.946L139.12,48.614L140.73,78.377L142.35,51.729L143.96,78.519L145.57,51.86L148.8,55.405L150.41,64.554L152.03,59.45L156.87,77.324L158.48,64.483L160.1,59.324L161.71,45.173L163.32,48.6L164.94,48.526L166.55,45.331L168.16,48.595L169.78,52.238L171.39,64.522L173,55.766L174.62,64.895L176.23,59.863L177.85,46.011L179.46,50.644L181.07,46.941L182.69,47.693L184.3,47.272L185.91,47.399L187.53,47.218L189.14,46.707L190.75,48.053L192.37,48.037L193.98,49.301L195.59,53.934L197.21,49.927L198.82,48.424L200.43,48.226L202.05,58.855L203.66,49.48L205.28,48.822L206.89,58.561L208.5,53.515L210.12,50.174L211.73,50.934L213.34,50.418L214.96,49.805L216.57,48.53L218.18,48.226L219.8,49.946L221.41,50.148L223.02,52.705L224.64,51.299L226.25,50.647L227.87,49.939L229.48,49.937L231.09,50.023L232.71,48.442L234.32,48.055L235.93,48.289L237.55,50.901L239.16,49.738L240.77,48.613L242.39,48.913L244,47.646L245.61,48.198L247.23,47.92L248.84,48.531L250.46,48.667L252.07,48.478L253.68,49.818L255.3,48.936L256.91,48.44L258.52,48.457L260.14,47.278L261.75,47.553L263.36,47.159L264.98,47.517L266.59,47.315L268.2,48.374L269.82,48.432L271.43,47.003L273.04,48.159L274.66,48.125L276.27,47.266L277.89,47.002L279.5,46.809L281.11,47.631L282.73,46.94L284.34,46.762L285.95,47.044L287.57,47.213L289.18,47.209L290.79,46.73L292.41,46.752L294.02,47.013L295.63,47.015L297.25,46.729L298.86,47.063L300.48,47.243L302.09,46.851L303.7,47.197L305.32,46.855L306.93,46.465L308.54,46.352L310.16,46.376L311.77,46.366L313.38,46.194L315,46.148L316.61,46.28L318.22,46.232L319.84,46.453L321.45,46.33L323.07,46.155L324.68,46.37L326.29,46.12L327.91,46.084L329.52,46.055L331.13,46.268L332.75,46.181L334.36,45.96L335.97,46.098L337.59,46.004L339.2,45.965L340.81,45.937L342.43,45.834L344.04,45.963L345.65,45.85L347.27,45.918L348.88,45.953L350.5,45.881L352.11,45.901L353.72,45.799L355.34,45.889L356.95,45.678L358.56,45.67L360.18,45.704L361.79,45.733L363.4,45.639L365.02,45.637L366.63,45.668L368.24,45.69L369.86,45.596L371.47,45.628L373.09,45.581L374.7,45.622L376.31,45.492L377.93,45.538L379.54,45.552L381.15,45.496L382.77,45.519L384.38,45.507L385.99,45.501L387.61,45.477L389.22,45.464L390.83,45.439L392.45,45.426L394.06,45.457L395.68,45.422L397.29,45.446L398.9,45.43L400.52,45.368L402.13,45.377L403.74,45.401L405.36,45.377L406.97,45.369L408.58,45.338L410.2,45.375L411.81,45.35L413.42,45.345L415.04,45.326L416.65,45.338L418.27,45.353L419.88,45.294L421.49,45.323L423.11,45.321L424.72,45.295L426.33,45.309L427.95,45.317L429.56,45.318L431.17,45.285L432.79,45.274L434.4,45.274L436.01,45.252L437.63,45.243L439.24,45.273L440.85,45.262L442.47,45.265L444.08,45.26L445.7,45.255L447.31,45.244L448.92,45.266L450.54,45.229L452.15,45.229L453.76,45.227L455.38,45.223L456.99,45.234L458.6,45.215L460.22,45.213L461.83,45.218L463.44,45.208L465.06,45.218L466.67,45.22L468.29,45.211L469.9,45.225L471.51,45.194L473.13,45.198L474.74,45.2L476.35,45.197L477.97,45.19L479.58,45.19L481.19,45.184L482.81,45.197L484.42,45.189L486.03,45.194L487.65,45.179L489.26,45.186L490.88,45.175L492.49,45.181L494.1,45.182L495.72,45.185L497.33,45.181L498.94,45.188L500.56,45.179L502.17,45.174L503.78,45.177L505.4,45.185L507.01,45.181L508.62,45.169L510.24,45.175L511.85,45.174L513.46,45.174L515.08,45.171L516.69,45.169L518.31,45.165L519.92,45.177L521.53,45.166L523.15,45.177L524.76,45.162L526.37,45.17L527.99,45.165L529.6,45.165L531.21,45.158L532.83,45.159L534.44,45.154L536.05,45.159L537.67,45.165L539.28,45.158L540.9,45.166L542.51,45.17L544.12,45.168L545.74,45.159L547.35,45.152L548.96,45.161L550.58,45.159L552.19,45.159L553.8,45.157L555.42,45.162L557.03,45.158L558.64,45.156L560.26,45.156L561.87,45.161L563.49,45.155L565.1,45.159L566.71,45.155L568.33,45.154L569.94,45.155L571.55,45.151L573.17,45.155L574.78,45.154L576.39,45.155L578.01,45.155L579.62,45.154L581.23,45.155L582.85,45.158L584.46,45.155L586.07,45.159L587.69,45.157L589.3,45.152L590.92,45.152L594.14,45.152L595.76,45.151L597.37,45.154L598.98,45.151L600.6,45.151L602.21,45.154L603.82,45.152L607.05,45.151L608.66,45.151L610.28,45.154L611.89,45.152L613.51,45.151L616.73,45.154L618.35,45.151L619.96,45.151L621.57,45.151L623.19,45.154L624.8,45.151L626.41,45.151L628.03,45.154L632.87,45.152L634.48,45.152L636.1,45.151L642.55,45.151L644.16,45.151L647.39,45.151L650.62,45.151L653.84,45.151L663.53,45.154L665.14,45.151L671.59,45.151L676.43,45.151L682.89,45.151L689.34,45.151L720,45.151" style="fill:none;stroke:#0000FF" />
</g>
</svg>
