<?xml version="1.0"?>
<!-- Generated by SVGo and Plotinum VG -->
<svg width="720pt" height="432pt" viewBox="0 0 720 432"
	xmlns="http://www.w3.org/2000/svg"
	xmlns:xlink="http://www.w3.org/1999/xlink">
<g transform="scale(1, -1) translate(0, -432)">
<path d="M0,0L720,0L720,432L0,432Z" style="fill:#FFFFFF" />
<text x="358.5" y="-420.45" transform="scale(1, -1)"
	style="font-family:Times;font-weight:normal;font-style:normal;font-size:12px"> </text>
<text x="375" y="-3.8613" transform="scale(1, -1)"
	style="font-family:Times;font-weight:normal;font-style:normal;font-size:12px">Costs</text>
<text x="56.555" y="-18.634" transform="scale(1, -1)"
	style="font-family:Times;font-weight:normal;font-style:normal;font-size:10px">0.00</text>
<text x="372.03" y="-18.634" transform="scale(1, -1)"
	style="font-family:Times;font-weight:normal;font-style:normal;font-size:10px">250.00</text>
<text x="692.5" y="-18.634" transform="scale(1, -1)"
	style="font-family:Times;font-weight:normal;font-style:normal;font-size:10px">500.00</text>
<path d="M65.305,28.263L65.305,36.263" style="fill:none;stroke:#000000;stroke-width:0.5" />
<path d="M385.78,28.263L385.78,36.263" style="fill:none;stroke:#000000;stroke-width:0.5" />
<path d="M706.25,28.263L706.25,36.263" style="fill:none;stroke:#000000;stroke-width:0.5" />
<path d="M129.4,32.263L129.4,36.263" style="fill:none;stroke:#000000;stroke-width:0.5" />
<path d="M193.49,32.263L193.49,36.263" style="fill:none;stroke:#000000;stroke-width:0.5" />
<path d="M257.59,32.263L257.59,36.263" style="fill:none;stroke:#000000;stroke-width:0.5" />
<path d="M321.68,32.263L321.68,36.263" style="fill:none;stroke:#000000;stroke-width:0.5" />
<path d="M449.87,32.263L449.87,36.263" style="fill:none;stroke:#000000;stroke-width:0.5" />
<path d="M513.97,32.263L513.97,36.263" style="fill:none;stroke:#000000;stroke-width:0.5" />
<path d="M578.06,32.263L578.06,36.263" style="fill:none;stroke:#000000;stroke-width:0.5" />
<path d="M642.16,32.263L642.16,36.263" style="fill:none;stroke:#000000;stroke-width:0.5" />
<path d="M65.305,36.263L711.38,36.263" style="fill:none;stroke:#000000;stroke-width:0.5" />
<g transform="rotate(90)">
<text x="152.55" y="11.555" transform="scale(1, -1)"
	style="font-family:Times;font-weight:normal;font-style:normal;font-size:12px">Number of trials (1000000 total)</text>
</g>
<text x="24.055" y="-105.66" transform="scale(1, -1)"
	style="font-family:Times;font-weight:normal;font-style:normal;font-size:10px">30000</text>
<text x="24.055" y="-233.08" transform="scale(1, -1)"
	style="font-family:Times;font-weight:normal;font-style:normal;font-size:10px">90000</text>
<text x="19.055" y="-360.51" transform="scale(1, -1)"
	style="font-family:Times;font-weight:normal;font-style:normal;font-size:10px">150000</text>
<path d="M51.555,108.86L59.555,108.86" style="fill:none;stroke:#000000;stroke-width:0.5" />
<path d="M51.555,236.29L59.555,236.29" style="fill:none;stroke:#000000;stroke-width:0.5" />
<path d="M51.555,363.71L59.555,363.71" style="fill:none;stroke:#000000;stroke-width:0.5" />
<path d="M55.555,172.57L59.555,172.57" style="fill:none;stroke:#000000;stroke-width:0.5" />
<path d="M55.555,300L59.555,300" style="fill:none;stroke:#000000;stroke-width:0.5" />
<path d="M59.555,45.151L59.555,416.58" style="fill:none;stroke:#000000;stroke-width:0.5" />
<path d="M65.305,416.58L93.506,48.511L94.788,55.543L96.07,52.238L98.634,52.279L99.916,63.953L101.2,48.488L102.48,60.079L105.04,70.825L106.33,87.416L107.61,86.853L108.89,73.852L110.17,59.047L111.45,59.346L112.73,62.764L115.3,52.797L116.58,52.066L117.86,87.27L119.14,85.471L120.43,52.185L121.71,55.668L122.99,55.539L124.27,48.615L125.55,45.362L126.84,45.217L128.12,52.351L129.4,78.966L130.68,67.402L131.96,45.546L133.24,89.531L134.53,49.858L135.81,50.828L137.09,62.738L138.37,61.765L139.65,51.854L140.94,59.926L142.22,63.437L143.5,84.67L144.78,48.617L146.06,51.089L147.35,52.321L148.63,54.827L149.91,52.168L151.19,71.016L152.47,54.107L153.76,52.635L155.04,51.546L156.32,61.054L157.6,51.463L158.88,70.488L160.16,61.137L161.45,55.821L162.73,55.333L164.01,54.373L165.29,53.296L166.57,51.79L167.86,84.655L169.14,58.69L170.42,57.286L171.7,59.281L172.98,57.947L174.27,57.393L175.55,56.516L176.83,56.127L178.11,54.802L179.39,53.3L180.67,55.252L181.96,55.866L183.24,59.058L184.52,58.539L185.8,60.217L187.08,57.087L188.37,53.285L189.65,53.364L190.93,54.81L192.21,53.491L193.49,54.859L194.78,55.256L196.06,57.41L197.34,58.438L198.62,55.481L199.9,53.013L201.19,56.201L202.47,54.693L203.75,53.876L205.03,55.352L206.31,54.449L207.59,55.662L208.88,58.497L210.16,56.656L211.44,58.68L212.72,54.192L214,53.44L215.29,55.488L216.57,52.941L217.85,51.136L219.13,53.175L220.41,55.256L221.7,55.893L222.98,53.077L224.26,54.339L225.54,51.869L226.82,53.459L228.1,51.992L229.39,52.434L230.67,51.31L231.95,53.763L233.23,52.771L234.51,51.722L235.8,54.857L237.08,53.039L238.36,51.433L239.64,52.285L240.92,51.828L242.21,51.198L243.49,51.185L244.77,52.24L246.05,53.874L247.33,50.705L248.62,50.688L249.9,51.208L251.18,51.238L252.46,50.563L253.74,52.209L255.02,50.741L256.31,50.27L257.59,50.263L258.87,50.764L260.15,50.172L261.43,51.729L262.72,51.183L264,50.495L265.28,50.166L266.56,49.768L267.84,49.898L269.13,49.711L270.41,49.337L271.69,49.981L272.97,49.632L274.25,50.064L275.53,49.703L276.82,49.724L278.1,49.454L279.38,49.537L280.66,49.076L281.94,48.902L283.23,49.301L284.51,49.07L285.79,49.288L287.07,49.278L288.35,49.354L289.64,48.889L290.92,48.751L292.2,48.503L293.48,48.471L294.76,48.409L296.04,48.456L297.33,48.358L298.61,48.269L299.89,48.439L301.17,48.286L302.45,48.084L303.74,47.978L305.02,47.972L306.3,47.812L307.58,48.012L308.86,47.704L310.15,47.832L311.43,47.67L312.71,47.572L313.99,47.838L315.27,47.575L316.56,47.415L317.84,47.632L319.12,47.47L320.4,47.099L321.68,47.286L322.96,47.345L324.25,47.267L325.53,47.209L326.81,47.209L328.09,47.05L329.37,47.078L330.66,47.103L331.94,47.042L333.22,46.765L334.5,46.823L335.78,46.929L337.07,46.852L338.35,46.736L339.63,46.908L340.91,46.755L342.19,46.602L343.47,46.532L344.76,46.615L346.04,46.627L347.32,46.574L348.6,46.528L349.88,46.515L351.17,46.472L352.45,46.504L353.73,46.334L355.01,46.519L356.29,46.368L357.58,46.273L358.86,46.309L360.14,46.254L361.42,46.226L362.7,46.226L363.99,46.116L365.27,46.203L366.55,46.139L367.83,46.075L369.11,45.994L370.39,46.052L371.68,46.069L372.96,45.918L374.24,45.975L375.52,45.95L376.8,45.922L378.09,45.903L379.37,45.95L380.65,45.907L381.93,45.899L383.21,45.897L384.5,45.822L385.78,45.878L387.06,45.854L388.34,45.74L389.62,45.74L390.9,45.78L392.19,45.759L393.47,45.676L394.75,45.74L396.03,45.725L397.31,45.661L398.6,45.695L399.88,45.646L401.16,45.657L402.44,45.595L403.72,45.616L405.01,45.636L406.29,45.61L407.57,45.559L408.85,45.568L410.13,45.561L411.42,45.557L412.7,45.525L413.98,45.551L415.26,45.549L416.54,45.487L417.82,45.483L419.11,45.457L420.39,45.461L421.67,45.457L422.95,45.387L424.23,45.47L425.52,45.438L426.8,45.483L428.08,45.474L429.36,45.432L430.64,45.413L431.93,45.387L433.21,45.387L434.49,45.385L435.77,45.402L437.05,45.366L438.33,45.402L439.62,45.374L440.9,45.33L442.18,45.306L443.46,45.362L444.74,45.351L446.03,45.351L447.31,45.366L448.59,45.345L449.87,45.298L451.15,45.313L452.44,45.304L453.72,45.27L455,45.285L456.28,45.317L457.56,45.279L458.85,45.279L460.13,45.298L461.41,45.281L462.69,45.294L463.97,45.272L465.25,45.255L466.54,45.253L467.82,45.296L469.1,45.264L470.38,45.247L471.66,45.253L472.95,45.236L474.23,45.249L475.51,45.224L476.79,45.23L478.07,45.253L479.36,45.221L480.64,45.23L481.92,45.23L483.2,45.221L484.48,45.217L485.76,45.23L487.05,45.215L488.33,45.207L489.61,45.221L490.89,45.217L492.17,45.209L493.46,45.211L494.74,45.202L496.02,45.185L497.3,45.213L498.58,45.194L499.87,45.196L501.15,45.196L502.43,45.194L503.71,45.192L504.99,45.198L506.28,45.187L507.56,45.19L508.84,45.198L510.12,45.181L511.4,45.187L512.68,45.183L513.97,45.173L515.25,45.181L516.53,45.181L517.81,45.175L519.09,45.173L520.38,45.187L521.66,45.183L522.94,45.168L524.22,45.181L525.5,45.177L526.79,45.187L528.07,45.168L529.35,45.166L530.63,45.168L531.91,45.162L533.19,45.177L534.48,45.162L535.76,45.173L537.04,45.173L538.32,45.164L539.6,45.164L540.89,45.164L542.17,45.156L543.45,45.166L544.73,45.166L546.01,45.175L547.3,45.153L548.58,45.164L549.86,45.158L551.14,45.162L552.42,45.173L553.71,45.158L554.99,45.16L556.27,45.164L557.55,45.16L558.83,45.153L560.11,45.16L561.4,45.156L562.68,45.158L563.96,45.158L565.24,45.162L566.52,45.16L567.81,45.16L569.09,45.162L570.37,45.156L571.65,45.162L572.93,45.156L574.22,45.16L575.5,45.158L576.78,45.151L578.06,45.156L579.34,45.158L580.62,45.156L581.91,45.151L583.19,45.156L584.47,45.153L585.75,45.158L587.03,45.153L588.32,45.156L589.6,45.151L590.88,45.151L592.16,45.151L593.44,45.151L594.73,45.156L596.01,45.151L598.57,45.153L601.13,45.158L602.42,45.153L603.7,45.153L604.98,45.151L606.26,45.153L608.83,45.151L610.11,45.153L612.67,45.151L615.24,45.153L616.52,45.153L619.08,45.151L620.36,45.153L622.93,45.151L624.21,45.151L629.34,45.153L631.9,45.153L633.18,45.151L637.03,45.151L643.44,45.151L644.72,45.151L646,45.151L649.85,45.151L652.41,45.151L653.69,45.151L665.23,45.151L676.77,45.151L697.28,45.151L711.38,45.151" style="fill:none;stroke:#0000FF" />
</g>
</svg>
