<?xml version="1.0"?>
<!-- Generated by SVGo and Plotinum VG -->
<svg width="720pt" height="432pt" viewBox="0 0 720 432"
	xmlns="http://www.w3.org/2000/svg"
	xmlns:xlink="http://www.w3.org/1999/xlink">
<g transform="scale(1, -1) translate(0, -432)">
<path d="M0,0L720,0L720,432L0,432Z" style="fill:#FFFFFF" />
<text x="358.5" y="-420.45" transform="scale(1, -1)"
	style="font-family:Times;font-weight:normal;font-style:normal;font-size:12px"> </text>
<text x="379.31" y="-3.8613" transform="scale(1, -1)"
	style="font-family:Times;font-weight:normal;font-style:normal;font-size:12px">Costs</text>
<text x="62.805" y="-18.634" transform="scale(1, -1)"
	style="font-family:Times;font-weight:normal;font-style:normal;font-size:10px">0</text>
<text x="360.2" y="-18.634" transform="scale(1, -1)"
	style="font-family:Times;font-weight:normal;font-style:normal;font-size:10px">200</text>
<text x="662.6" y="-18.634" transform="scale(1, -1)"
	style="font-family:Times;font-weight:normal;font-style:normal;font-size:10px">400</text>
<path d="M65.305,28.263L65.305,36.263" style="fill:none;stroke:#000000;stroke-width:0.5" />
<path d="M367.7,28.263L367.7,36.263" style="fill:none;stroke:#000000;stroke-width:0.5" />
<path d="M670.1,28.263L670.1,36.263" style="fill:none;stroke:#000000;stroke-width:0.5" />
<path d="M216.5,32.263L216.5,36.263" style="fill:none;stroke:#000000;stroke-width:0.5" />
<path d="M518.9,32.263L518.9,36.263" style="fill:none;stroke:#000000;stroke-width:0.5" />
<path d="M65.305,36.263L720,36.263" style="fill:none;stroke:#000000;stroke-width:0.5" />
<g transform="rotate(90)">
<text x="152.55" y="11.555" transform="scale(1, -1)"
	style="font-family:Times;font-weight:normal;font-style:normal;font-size:12px">Number of trials (1000000 total)</text>
</g>
<text x="24.055" y="-90.85" transform="scale(1, -1)"
	style="font-family:Times;font-weight:normal;font-style:normal;font-size:10px">40000</text>
<text x="19.055" y="-237.56" transform="scale(1, -1)"
	style="font-family:Times;font-weight:normal;font-style:normal;font-size:10px">160000</text>
<text x="19.055" y="-384.28" transform="scale(1, -1)"
	style="font-family:Times;font-weight:normal;font-style:normal;font-size:10px">280000</text>
<path d="M51.555,94.055L59.555,94.055" style="fill:none;stroke:#000000;stroke-width:0.5" />
<path d="M51.555,240.77L59.555,240.77" style="fill:none;stroke:#000000;stroke-width:0.5" />
<path d="M51.555,387.49L59.555,387.49" style="fill:none;stroke:#000000;stroke-width:0.5" />
<path d="M55.555,167.41L59.555,167.41" style="fill:none;stroke:#000000;stroke-width:0.5" />
<path d="M55.555,314.13L59.555,314.13" style="fill:none;stroke:#000000;stroke-width:0.5" />
<path d="M59.555,45.151L59.555,416.58" style="fill:none;stroke:#000000;stroke-width:0.5" />
<path d="M65.305,416.58L98.569,52.251L104.62,55.974L109.15,66.87L110.66,63.492L112.18,59.183L113.69,55.723L115.2,70.28L116.71,59.309L118.22,59.435L119.74,52.091L121.25,55.454L122.76,55.596L124.27,62.437L125.78,48.611L127.3,58.973L128.81,52.299L130.32,70.148L131.83,58.985L133.34,51.982L134.86,51.942L137.88,45.362L139.39,48.697L140.9,48.652L142.42,48.976L143.93,45.511L145.44,73.917L146.95,74.227L148.46,64.12L149.98,56.001L151.49,75.217L153,63.395L154.51,54.117L156.02,49.734L157.54,57.554L159.05,57.686L160.56,51.557L162.07,48.111L163.58,48.366L165.1,47.379L166.61,48.418L168.12,48.691L169.63,48.395L171.14,48.62L172.66,55.237L174.17,49.788L175.68,48.965L177.19,59.742L178.7,49.538L180.22,49.856L181.73,49.091L183.24,48.525L184.75,49.385L186.26,49.125L187.78,48.075L189.29,49.7L190.8,51.085L192.31,51.357L193.82,50.582L195.34,51.721L196.85,53.32L198.36,52.518L199.87,51.422L201.38,51.89L202.9,51.736L204.41,52.051L205.92,50.986L207.43,50.978L208.94,50.74L210.46,52.126L211.97,51.492L213.48,51.097L214.99,50.36L216.5,51.15L218.02,49.857L219.53,48.842L221.04,48.811L222.55,49.201L224.06,48.417L225.58,47.959L227.09,49.977L228.6,49.317L230.11,49.159L231.62,49.98L233.14,50.664L234.65,50.367L236.16,49.187L237.67,49.356L239.18,50.233L240.7,48.993L242.21,49.048L243.72,48.544L245.23,48.245L246.74,47.908L248.26,47.178L249.77,47.164L251.28,47.22L252.79,47.646L254.3,47.721L255.82,47.33L257.33,47.886L258.84,48.232L260.35,47.917L261.86,47.568L263.38,47.812L264.89,47.745L266.4,47.441L267.91,47.046L269.42,47.203L270.94,47.337L272.45,47.12L273.96,46.836L275.47,46.919L276.98,47.029L278.5,47.147L280.01,47.082L281.52,46.968L283.03,47.024L284.54,47.271L286.06,46.965L287.57,46.873L289.08,46.901L290.59,46.912L292.1,46.859L293.62,46.741L295.13,46.719L296.64,46.764L298.15,46.891L299.66,46.642L301.18,46.548L302.69,46.488L304.2,46.535L305.71,46.413L307.22,46.243L308.74,46.295L310.25,46.27L311.76,46.202L313.27,46.276L314.78,46.315L316.3,46.299L317.81,46.148L319.32,46.282L320.83,46.165L322.34,46.159L323.86,46.106L325.37,46.112L326.88,46.045L328.39,45.946L329.9,45.928L331.42,45.846L332.93,45.847L334.44,45.804L335.95,45.759L337.46,45.79L338.98,45.812L340.49,45.837L342,45.757L343.51,45.772L345.02,45.785L346.54,45.769L348.05,45.739L349.56,45.754L351.07,45.717L352.58,45.681L354.1,45.648L355.61,45.637L357.12,45.617L358.63,45.62L360.14,45.543L361.66,45.571L363.17,45.61L364.68,45.54L366.19,45.523L367.7,45.506L369.22,45.511L370.73,45.567L372.24,45.478L373.75,45.49L375.26,45.461L376.78,45.491L378.29,45.479L379.8,45.458L381.31,45.409L382.82,45.418L384.34,45.425L385.85,45.426L387.36,45.396L388.87,45.402L390.38,45.392L391.9,45.396L393.41,45.364L394.92,45.36L396.43,45.34L397.94,45.347L399.46,45.38L400.97,45.332L402.48,45.342L403.99,45.348L405.5,45.329L407.02,45.301L408.53,45.321L410.04,45.334L411.55,45.283L413.06,45.282L414.58,45.283L416.09,45.294L417.6,45.305L419.11,45.247L420.62,45.257L422.14,45.272L423.65,45.244L425.16,45.264L426.67,45.249L428.18,45.247L429.7,45.238L431.21,45.253L432.72,45.241L434.23,45.248L435.74,45.243L437.26,45.236L438.77,45.233L440.28,45.22L441.79,45.236L443.3,45.221L444.82,45.22L446.33,45.212L447.84,45.221L449.35,45.215L450.86,45.215L452.38,45.203L453.89,45.209L455.4,45.194L456.91,45.197L458.42,45.212L459.94,45.195L461.45,45.205L462.96,45.201L464.47,45.193L465.98,45.199L467.5,45.186L469.01,45.189L470.52,45.172L472.03,45.197L473.54,45.184L475.06,45.182L476.57,45.179L478.08,45.193L479.59,45.182L481.1,45.183L482.62,45.183L484.13,45.171L485.64,45.187L487.15,45.184L488.66,45.181L490.18,45.167L491.69,45.177L493.2,45.177L494.71,45.178L496.22,45.176L497.74,45.168L499.25,45.167L500.76,45.165L502.27,45.162L503.78,45.167L505.3,45.167L506.81,45.166L508.32,45.167L509.83,45.165L511.34,45.168L512.86,45.168L514.37,45.166L515.88,45.164L517.39,45.164L518.9,45.157L520.42,45.155L521.93,45.157L523.44,45.161L524.95,45.164L526.46,45.154L527.98,45.16L529.49,45.16L531,45.157L532.51,45.155L534.02,45.161L535.54,45.156L537.05,45.155L538.56,45.157L540.07,45.157L541.58,45.153L543.1,45.154L544.61,45.157L546.12,45.159L547.63,45.161L549.14,45.159L550.66,45.151L552.17,45.153L553.68,45.157L555.19,45.155L556.7,45.151L558.22,45.154L559.73,45.154L561.24,45.155L562.75,45.156L564.26,45.153L565.78,45.157L567.29,45.151L568.8,45.155L571.82,45.153L573.34,45.153L574.85,45.151L576.36,45.153L577.87,45.151L579.38,45.153L580.9,45.151L582.41,45.151L583.92,45.154L586.94,45.155L588.46,45.151L589.97,45.153L591.48,45.153L594.5,45.153L596.02,45.154L597.53,45.153L600.55,45.151L602.06,45.154L603.58,45.151L605.09,45.151L608.11,45.153L611.14,45.153L614.16,45.153L618.7,45.151L627.77,45.151L630.79,45.151L632.3,45.154L636.84,45.151L639.86,45.151L647.42,45.151L656.5,45.153L659.52,45.151L671.62,45.151L674.64,45.151L704.88,45.151L720,45.151" style="fill:none;stroke:#0000FF" />
</g>
</svg>
