<?xml version="1.0"?>
<!-- Generated by SVGo and Plotinum VG -->
<svg width="720pt" height="432pt" viewBox="0 0 720 432"
	xmlns="http://www.w3.org/2000/svg"
	xmlns:xlink="http://www.w3.org/1999/xlink">
<g transform="scale(1, -1) translate(0, -432)">
<path d="M0,0L720,0L720,432L0,432Z" style="fill:#FFFFFF" />
<text x="358.5" y="-420.45" transform="scale(1, -1)"
	style="font-family:Times;font-weight:normal;font-style:normal;font-size:12px"> </text>
<text x="379.31" y="-3.8613" transform="scale(1, -1)"
	style="font-family:Times;font-weight:normal;font-style:normal;font-size:12px">Costs</text>
<text x="62.805" y="-18.634" transform="scale(1, -1)"
	style="font-family:Times;font-weight:normal;font-style:normal;font-size:10px">0</text>
<text x="327.23" y="-18.634" transform="scale(1, -1)"
	style="font-family:Times;font-weight:normal;font-style:normal;font-size:10px">200</text>
<text x="596.65" y="-18.634" transform="scale(1, -1)"
	style="font-family:Times;font-weight:normal;font-style:normal;font-size:10px">400</text>
<path d="M65.305,28.263L65.305,36.263" style="fill:none;stroke:#000000;stroke-width:0.5" />
<path d="M334.73,28.263L334.73,36.263" style="fill:none;stroke:#000000;stroke-width:0.5" />
<path d="M604.15,28.263L604.15,36.263" style="fill:none;stroke:#000000;stroke-width:0.5" />
<path d="M200.02,32.263L200.02,36.263" style="fill:none;stroke:#000000;stroke-width:0.5" />
<path d="M469.44,32.263L469.44,36.263" style="fill:none;stroke:#000000;stroke-width:0.5" />
<path d="M65.305,36.263L720,36.263" style="fill:none;stroke:#000000;stroke-width:0.5" />
<g transform="rotate(90)">
<text x="152.55" y="11.555" transform="scale(1, -1)"
	style="font-family:Times;font-weight:normal;font-style:normal;font-size:12px">Number of trials (1000000 total)</text>
</g>
<text x="24.055" y="-113.37" transform="scale(1, -1)"
	style="font-family:Times;font-weight:normal;font-style:normal;font-size:10px">40000</text>
<text x="19.055" y="-256.22" transform="scale(1, -1)"
	style="font-family:Times;font-weight:normal;font-style:normal;font-size:10px">120000</text>
<text x="19.055" y="-399.06" transform="scale(1, -1)"
	style="font-family:Times;font-weight:normal;font-style:normal;font-size:10px">200000</text>
<path d="M51.555,116.57L59.555,116.57" style="fill:none;stroke:#000000;stroke-width:0.5" />
<path d="M51.555,259.42L59.555,259.42" style="fill:none;stroke:#000000;stroke-width:0.5" />
<path d="M51.555,402.27L59.555,402.27" style="fill:none;stroke:#000000;stroke-width:0.5" />
<path d="M55.555,188L59.555,188" style="fill:none;stroke:#000000;stroke-width:0.5" />
<path d="M55.555,330.85L59.555,330.85" style="fill:none;stroke:#000000;stroke-width:0.5" />
<path d="M59.555,45.151L59.555,416.58" style="fill:none;stroke:#000000;stroke-width:0.5" />
<path d="M65.305,416.58L94.941,55.41L97.635,59.838L101.68,48.392L104.37,48.51L105.72,55.74L107.07,59.674L108.41,55.59L109.76,55.385L111.11,89.131L112.45,52.135L113.8,48.581L117.84,59.975L119.19,67.536L120.54,58.768L121.88,69.089L123.23,59.94L124.58,124.98L125.92,62.714L127.27,75.169L129.97,48.542L131.31,59.972L132.66,55.463L134.01,56.761L135.35,45.466L136.7,74.026L138.05,49.24L139.4,49.328L140.74,50.264L142.09,59.72L143.44,58.479L144.78,60.229L146.13,49.048L147.48,60.513L148.83,56.811L150.17,54.351L151.52,48.192L152.87,48.092L154.21,50.14L155.56,51.194L156.91,51.385L158.26,47.66L159.6,48.296L160.95,48.149L162.3,48.105L163.64,50.826L164.99,66.754L166.34,53.328L167.69,52.953L169.03,52.463L170.38,56.813L171.73,51.605L173.07,102.47L174.42,87.87L175.77,49.771L177.11,54.031L178.46,55.39L179.81,54.751L181.16,55.224L182.5,55.224L183.85,52.867L185.2,53.731L186.54,55.177L187.89,51.847L189.24,51.638L190.59,54.611L191.93,51.771L193.28,54.245L194.63,50.937L195.97,55.727L197.32,50.851L198.67,52.104L200.02,50.41L201.36,53.047L202.71,54.274L204.06,54.419L205.4,53.267L206.75,53.237L208.1,51.674L209.45,51.717L210.79,51.419L212.14,49.449L213.49,50.838L214.83,52.512L216.18,52.092L217.53,51.238L218.88,56.51L220.22,54.547L221.57,50.597L222.92,49.526L224.26,51.53L225.61,51.571L226.96,54.654L228.3,52.603L229.65,52.792L231,53.301L232.35,60.659L233.69,58.745L235.04,53.726L236.39,52.401L237.73,48.73L239.08,50.912L240.43,51.055L241.78,51.342L243.12,49.689L244.47,52.342L245.82,51.499L247.16,49.821L248.51,49.548L249.86,50.955L251.21,51.272L252.55,51.63L253.9,50.047L255.25,50.339L256.59,51.108L257.94,50.464L259.29,49.06L260.64,48.364L261.98,48.924L263.33,49.253L264.68,49.194L266.02,48.246L267.37,48.249L268.72,48.246L270.07,48.289L271.41,48.226L272.76,50.676L274.11,50.356L275.45,48.924L276.8,48.735L278.15,49.251L279.5,48.935L280.84,48.648L282.19,52.771L283.54,47.915L284.88,48.439L286.23,49.015L287.58,48.862L288.92,48.778L290.27,48.949L291.62,48.412L292.97,48.449L294.31,48.601L295.66,48.567L297.01,47.769L298.35,48.148L299.7,48.069L301.05,48.18L302.4,47.842L303.74,48.364L305.09,48.108L306.44,47.739L307.78,47.514L309.13,47.598L310.48,47.869L311.83,47.937L313.17,47.76L314.52,47.614L315.87,47.717L317.21,47.43L318.56,47.364L319.91,46.958L321.26,46.953L322.6,46.91L323.95,47.124L325.3,46.799L326.64,46.855L327.99,47.399L329.34,46.901L330.69,46.946L332.03,46.873L333.38,46.957L334.73,47.062L336.07,46.921L337.42,46.589L338.77,46.796L340.12,46.748L341.46,47.383L342.81,46.617L344.16,46.878L345.5,46.351L346.85,46.396L348.2,46.482L349.54,46.478L350.89,46.542L352.24,46.258L353.59,46.532L354.93,46.291L356.28,46.237L357.63,46.355L358.97,46.332L360.32,46.416L361.67,46.26L363.02,46.191L364.36,46.285L365.71,46.212L367.06,46.164L368.4,46.085L369.75,46.151L371.1,46.055L372.45,46.126L373.79,45.955L375.14,46.01L376.49,45.848L377.83,45.867L379.18,45.891L380.53,45.925L381.88,46.11L383.22,45.928L384.57,45.826L385.92,45.891L387.26,45.817L388.61,45.785L389.96,45.776L391.31,45.71L392.65,45.753L394,45.819L395.35,45.723L396.69,45.739L398.04,45.633L399.39,45.675L400.74,45.667L402.08,45.698L403.43,45.653L404.78,45.623L406.12,45.61L407.47,45.621L408.82,45.603L410.16,45.626L411.51,45.566L412.86,45.619L414.21,45.551L415.55,45.564L416.9,45.51L418.25,45.507L419.59,45.53L420.94,45.516L422.29,45.498L423.64,45.532L424.98,45.491L426.33,45.471L427.68,45.453L429.02,45.4L430.37,45.462L431.72,45.462L433.07,45.376L434.41,45.385L435.76,45.412L437.11,45.396L438.45,45.417L439.8,45.391L441.15,45.378L442.5,45.382L443.84,45.423L445.19,45.346L446.54,45.358L447.88,45.314L449.23,45.35L450.58,45.312L451.93,45.337L453.27,45.307L454.62,45.314L455.97,45.335L457.31,45.314L458.66,45.289L460.01,45.348L461.35,45.292L462.7,45.308L464.05,45.308L465.4,45.296L466.74,45.292L468.09,45.3L469.44,45.275L470.78,45.285L472.13,45.285L473.48,45.255L474.83,45.248L476.17,45.264L477.52,45.232L478.87,45.275L480.21,45.255L481.56,45.269L482.91,45.23L484.26,45.216L485.6,45.244L486.95,45.237L488.3,45.226L489.64,45.217L490.99,45.235L492.34,45.23L493.69,45.192L495.03,45.212L496.38,45.207L497.73,45.205L499.07,45.221L500.42,45.216L501.77,45.221L503.12,45.207L504.46,45.205L505.81,45.214L507.16,45.212L508.5,45.189L509.85,45.191L511.2,45.194L512.55,45.182L513.89,45.194L515.24,45.205L516.59,45.184L517.93,45.185L519.28,45.18L520.63,45.176L521.97,45.189L523.32,45.184L524.67,45.178L526.02,45.182L527.36,45.178L528.71,45.171L530.06,45.182L531.4,45.173L532.75,45.171L534.1,45.167L535.45,45.173L536.79,45.171L538.14,45.169L539.49,45.166L540.83,45.162L542.18,45.182L543.53,45.169L544.88,45.171L546.22,45.162L547.57,45.176L548.92,45.175L550.26,45.173L551.61,45.167L552.96,45.162L554.31,45.167L555.65,45.164L557,45.164L558.35,45.166L559.69,45.159L561.04,45.157L562.39,45.162L563.74,45.159L565.08,45.162L566.43,45.16L567.78,45.164L569.12,45.157L570.47,45.16L571.82,45.155L573.17,45.167L574.51,45.153L575.86,45.159L577.21,45.157L578.55,45.153L579.9,45.162L581.25,45.157L582.59,45.155L583.94,45.16L585.29,45.157L586.64,45.157L587.98,45.159L589.33,45.157L590.68,45.155L592.02,45.157L593.37,45.151L594.72,45.16L596.07,45.151L597.41,45.151L598.76,45.157L600.11,45.151L601.45,45.155L602.8,45.153L604.15,45.153L605.5,45.153L606.84,45.153L608.19,45.155L609.54,45.153L610.88,45.153L612.23,45.153L613.58,45.153L616.27,45.155L617.62,45.151L618.97,45.151L621.66,45.153L623.01,45.151L624.36,45.151L631.09,45.151L633.78,45.151L635.13,45.155L636.48,45.153L637.83,45.151L639.17,45.151L643.21,45.151L645.91,45.153L648.6,45.151L649.95,45.151L653.99,45.153L655.34,45.151L666.12,45.151L672.85,45.151L674.2,45.151L682.28,45.151L690.36,45.151L701.14,45.155L703.83,45.151L707.88,45.151L720,45.151" style="fill:none;stroke:#0000FF" />
</g>
</svg>
