<?xml version="1.0"?>
<!-- Generated by SVGo and Plotinum VG -->
<svg width="720pt" height="432pt" viewBox="0 0 720 432"
	xmlns="http://www.w3.org/2000/svg"
	xmlns:xlink="http://www.w3.org/1999/xlink">
<g transform="scale(1, -1) translate(0, -432)">
<path d="M0,0L720,0L720,432L0,432Z" style="fill:#FFFFFF" />
<text x="358.5" y="-420.45" transform="scale(1, -1)"
	style="font-family:Times;font-weight:normal;font-style:normal;font-size:12px"> </text>
<text x="379.31" y="-3.8613" transform="scale(1, -1)"
	style="font-family:Times;font-weight:normal;font-style:normal;font-size:12px">Costs</text>
<text x="56.555" y="-18.634" transform="scale(1, -1)"
	style="font-family:Times;font-weight:normal;font-style:normal;font-size:10px">0.00</text>
<text x="350.23" y="-18.634" transform="scale(1, -1)"
	style="font-family:Times;font-weight:normal;font-style:normal;font-size:10px">250.00</text>
<text x="648.9" y="-18.634" transform="scale(1, -1)"
	style="font-family:Times;font-weight:normal;font-style:normal;font-size:10px">500.00</text>
<path d="M65.305,28.263L65.305,36.263" style="fill:none;stroke:#000000;stroke-width:0.5" />
<path d="M363.98,28.263L363.98,36.263" style="fill:none;stroke:#000000;stroke-width:0.5" />
<path d="M662.65,28.263L662.65,36.263" style="fill:none;stroke:#000000;stroke-width:0.5" />
<path d="M125.04,32.263L125.04,36.263" style="fill:none;stroke:#000000;stroke-width:0.5" />
<path d="M184.77,32.263L184.77,36.263" style="fill:none;stroke:#000000;stroke-width:0.5" />
<path d="M244.51,32.263L244.51,36.263" style="fill:none;stroke:#000000;stroke-width:0.5" />
<path d="M304.24,32.263L304.24,36.263" style="fill:none;stroke:#000000;stroke-width:0.5" />
<path d="M423.71,32.263L423.71,36.263" style="fill:none;stroke:#000000;stroke-width:0.5" />
<path d="M483.45,32.263L483.45,36.263" style="fill:none;stroke:#000000;stroke-width:0.5" />
<path d="M543.18,32.263L543.18,36.263" style="fill:none;stroke:#000000;stroke-width:0.5" />
<path d="M602.92,32.263L602.92,36.263" style="fill:none;stroke:#000000;stroke-width:0.5" />
<path d="M65.305,36.263L720,36.263" style="fill:none;stroke:#000000;stroke-width:0.5" />
<g transform="rotate(90)">
<text x="152.55" y="11.555" transform="scale(1, -1)"
	style="font-family:Times;font-weight:normal;font-style:normal;font-size:12px">Number of trials (1000000 total)</text>
</g>
<text x="24.055" y="-107.09" transform="scale(1, -1)"
	style="font-family:Times;font-weight:normal;font-style:normal;font-size:10px">30000</text>
<text x="24.055" y="-237.39" transform="scale(1, -1)"
	style="font-family:Times;font-weight:normal;font-style:normal;font-size:10px">90000</text>
<text x="19.055" y="-367.69" transform="scale(1, -1)"
	style="font-family:Times;font-weight:normal;font-style:normal;font-size:10px">150000</text>
<path d="M51.555,110.3L59.555,110.3" style="fill:none;stroke:#000000;stroke-width:0.5" />
<path d="M51.555,240.6L59.555,240.6" style="fill:none;stroke:#000000;stroke-width:0.5" />
<path d="M51.555,370.9L59.555,370.9" style="fill:none;stroke:#000000;stroke-width:0.5" />
<path d="M55.555,175.45L59.555,175.45" style="fill:none;stroke:#000000;stroke-width:0.5" />
<path d="M55.555,305.75L59.555,305.75" style="fill:none;stroke:#000000;stroke-width:0.5" />
<path d="M59.555,45.151L59.555,416.58" style="fill:none;stroke:#000000;stroke-width:0.5" />
<path d="M65.305,416.58L92.783,48.713L93.977,52.559L96.367,52.072L97.562,82.413L98.756,52.748L99.951,60.095L101.15,59.154L102.34,55.864L103.54,48.463L104.73,97.013L105.92,67.155L108.31,52.181L109.51,48.583L111.9,59.993L113.09,68.082L114.29,77.346L115.48,78.365L116.68,73.55L117.87,56.24L119.07,48.478L120.26,59.834L121.46,45.223L122.65,48.541L123.84,59.083L125.04,86.758L126.23,64.527L127.43,45.358L128.62,85.777L129.82,63.652L131.01,46.517L132.21,62.151L133.4,66.169L134.6,54.175L135.79,50.613L136.99,57.916L138.18,62.922L139.38,47.981L140.57,56.865L141.77,48.3L142.96,47.836L144.15,50.457L145.35,63.102L146.54,50.151L147.74,52.101L148.93,52.674L150.13,53.447L151.32,51.747L152.52,72.799L153.71,64.742L154.91,54.047L156.1,54.924L157.3,62.67L158.49,50.952L159.69,52.322L160.88,100.66L162.08,83.911L163.27,54.216L164.46,60.614L165.66,58.323L166.85,53.762L168.05,56.136L169.24,55.634L170.44,51.838L171.63,53.184L172.83,56.277L174.02,55.117L175.22,54.969L176.41,56.105L177.61,57.211L178.8,54.02L180,55.816L181.19,53.949L182.39,51.649L183.58,54.04L184.77,56.755L185.97,53.96L187.16,53.256L188.36,56.262L189.55,56.444L190.75,51.106L191.94,56.027L193.14,61.463L194.33,55.117L195.53,53.977L196.72,57.463L197.92,54.844L199.11,51.875L200.31,59.258L201.5,60.494L202.7,53.593L203.89,53.675L205.08,53.886L206.28,51.236L207.47,52.227L208.67,55.517L209.86,55.384L211.06,56.466L212.25,58.952L213.45,56.238L214.64,51.106L215.84,53.853L217.03,53.957L218.23,50.804L219.42,52.127L220.62,58.092L221.81,56.066L223.01,51.171L224.2,55.686L225.39,56.807L226.59,51.467L227.78,52.218L228.98,54.079L230.17,52.04L231.37,50.531L232.56,52.372L233.76,52.605L234.95,50.908L236.15,51.013L237.34,50.93L238.54,49.632L239.73,50.259L240.93,52.376L242.12,51.123L243.31,50.081L244.51,51.223L245.7,50.426L246.9,50.048L248.09,52.704L249.29,53.039L250.48,51.1L251.68,50.535L252.87,51.916L254.07,50.429L255.26,49.688L256.46,50.396L257.65,53.688L258.85,49.558L260.04,50.948L261.24,50.969L262.43,49.81L263.62,50.059L264.82,50.218L266.01,49.479L267.21,49.013L268.4,49.579L269.6,49.768L270.79,49.525L271.99,49.801L273.18,49.831L274.38,49.204L275.57,49.343L276.77,49.534L277.96,48.411L279.16,48.726L280.35,49.417L281.55,48.976L282.74,48.563L283.93,48.984L285.13,49.223L286.32,48.172L287.52,48.452L288.71,49.171L289.91,48.676L291.1,48.085L292.3,48.485L293.49,48.365L294.69,47.933L295.88,48.157L297.08,48.622L298.27,48.051L299.47,47.89L300.66,48.098L301.86,47.801L303.05,47.332L304.24,47.729L305.44,47.592L306.63,47.575L307.83,47.901L309.02,48.153L310.22,47.584L311.41,47.421L312.61,47.838L313.8,47.303L315,47.18L316.19,47.312L317.39,47.653L318.58,47.154L319.78,47.138L320.97,47.566L322.17,47.173L323.36,46.947L324.55,47.171L325.75,47.041L326.94,46.756L328.14,46.869L329.33,46.856L330.53,46.845L331.72,46.65L332.92,46.86L334.11,46.58L335.31,46.659L336.5,46.719L337.7,46.652L338.89,46.483L340.09,46.604L341.28,46.511L342.47,46.354L343.67,46.459L344.86,46.637L346.06,46.552L347.25,46.476L348.45,46.454L349.64,46.318L350.84,46.255L352.03,46.287L353.23,46.322L354.42,46.22L355.62,46.168L356.81,46.32L358.01,46.239L359.2,46.096L360.4,46.235L361.59,46.135L362.78,46.096L363.98,46.055L365.17,46.044L366.37,46.003L367.56,45.938L368.76,45.968L369.95,46.011L371.15,45.966L372.34,45.964L373.54,45.903L374.73,45.792L375.93,45.885L377.12,45.818L378.32,45.803L379.51,45.757L380.71,45.888L381.9,45.772L383.09,45.709L384.29,45.82L385.48,45.764L386.68,45.686L387.87,45.675L389.07,45.705L390.26,45.653L391.46,45.62L392.65,45.653L393.85,45.625L395.04,45.592L396.24,45.601L397.43,45.607L398.63,45.501L399.82,45.588L401.02,45.599L402.21,45.54L403.4,45.475L404.6,45.531L405.79,45.588L406.99,45.564L408.18,45.479L409.38,45.514L410.57,45.479L411.77,45.462L412.96,45.503L414.16,45.445L415.35,45.458L416.55,45.449L417.74,45.427L418.94,45.412L420.13,45.41L421.33,45.351L422.52,45.416L423.71,45.373L424.91,45.399L426.1,45.379L427.3,45.382L428.49,45.371L429.69,45.353L430.88,45.364L432.08,45.312L433.27,45.384L434.47,45.345L435.66,45.332L436.86,45.338L438.05,45.303L439.25,45.321L440.44,45.323L441.64,45.306L442.83,45.299L444.02,45.299L445.22,45.299L446.41,45.301L447.61,45.329L448.8,45.306L450,45.308L451.19,45.26L452.39,45.271L453.58,45.295L454.78,45.249L455.97,45.286L457.17,45.245L458.36,45.282L459.56,45.251L460.75,45.227L461.94,45.236L463.14,45.232L464.33,45.256L465.53,45.249L466.72,45.217L467.92,45.221L469.11,45.24L470.31,45.212L471.5,45.232L472.7,45.236L473.89,45.23L475.09,45.227L476.28,45.208L477.48,45.214L478.67,45.203L479.87,45.214L481.06,45.208L482.25,45.195L483.45,45.219L484.64,45.219L485.84,45.21L487.03,45.206L488.23,45.195L489.42,45.18L490.62,45.203L491.81,45.21L493.01,45.199L494.2,45.19L495.4,45.206L496.59,45.184L497.79,45.184L498.98,45.188L500.18,45.186L501.37,45.188L502.56,45.188L503.76,45.167L504.95,45.186L506.15,45.184L507.34,45.175L508.54,45.173L509.73,45.186L510.93,45.173L512.12,45.184L513.32,45.171L514.51,45.177L515.71,45.171L516.9,45.18L518.1,45.19L519.29,45.162L520.49,45.173L521.68,45.173L522.87,45.171L524.07,45.167L525.26,45.171L526.46,45.173L527.65,45.171L528.85,45.162L530.04,45.171L531.24,45.158L532.43,45.158L533.63,45.171L534.82,45.177L536.02,45.16L537.21,45.16L538.41,45.162L539.6,45.158L540.8,45.162L541.99,45.167L543.18,45.164L544.38,45.164L545.57,45.156L546.77,45.158L547.96,45.158L549.16,45.164L550.35,45.158L551.55,45.158L552.74,45.162L553.94,45.158L555.13,45.156L556.33,45.164L557.52,45.158L558.72,45.162L559.91,45.156L561.1,45.154L562.3,45.158L563.49,45.154L564.69,45.156L565.88,45.156L567.08,45.154L568.27,45.158L569.47,45.154L570.66,45.154L571.86,45.154L573.05,45.154L574.25,45.154L575.44,45.154L576.64,45.158L577.83,45.151L581.41,45.154L582.61,45.156L583.8,45.154L585,45.151L587.39,45.151L588.58,45.154L589.78,45.154L593.36,45.151L594.56,45.151L595.75,45.151L596.95,45.154L598.14,45.154L610.09,45.151L611.28,45.151L612.48,45.151L614.87,45.151L616.06,45.151L617.26,45.151L636.37,45.154L642.34,45.151L644.73,45.151L648.32,45.151L650.71,45.151L655.49,45.151L662.65,45.151L720,45.151" style="fill:none;stroke:#0000FF" />
</g>
</svg>
