<?xml version="1.0"?>
<!-- Generated by SVGo and Plotinum VG -->
<svg width="720pt" height="432pt" viewBox="0 0 720 432"
	xmlns="http://www.w3.org/2000/svg"
	xmlns:xlink="http://www.w3.org/1999/xlink">
<g transform="scale(1, -1) translate(0, -432)">
<path d="M0,0L720,0L720,432L0,432Z" style="fill:#FFFFFF" />
<text x="358.5" y="-420.45" transform="scale(1, -1)"
	style="font-family:Times;font-weight:normal;font-style:normal;font-size:12px"> </text>
<text x="379.31" y="-3.8613" transform="scale(1, -1)"
	style="font-family:Times;font-weight:normal;font-style:normal;font-size:12px">Costs</text>
<text x="56.555" y="-18.634" transform="scale(1, -1)"
	style="font-family:Times;font-weight:normal;font-style:normal;font-size:10px">0.00</text>
<text x="370.61" y="-18.634" transform="scale(1, -1)"
	style="font-family:Times;font-weight:normal;font-style:normal;font-size:10px">250.00</text>
<text x="689.66" y="-18.634" transform="scale(1, -1)"
	style="font-family:Times;font-weight:normal;font-style:normal;font-size:10px">500.00</text>
<path d="M65.305,28.263L65.305,36.263" style="fill:none;stroke:#000000;stroke-width:0.5" />
<path d="M384.36,28.263L384.36,36.263" style="fill:none;stroke:#000000;stroke-width:0.5" />
<path d="M703.41,28.263L703.41,36.263" style="fill:none;stroke:#000000;stroke-width:0.5" />
<path d="M129.12,32.263L129.12,36.263" style="fill:none;stroke:#000000;stroke-width:0.5" />
<path d="M192.93,32.263L192.93,36.263" style="fill:none;stroke:#000000;stroke-width:0.5" />
<path d="M256.74,32.263L256.74,36.263" style="fill:none;stroke:#000000;stroke-width:0.5" />
<path d="M320.55,32.263L320.55,36.263" style="fill:none;stroke:#000000;stroke-width:0.5" />
<path d="M448.17,32.263L448.17,36.263" style="fill:none;stroke:#000000;stroke-width:0.5" />
<path d="M511.98,32.263L511.98,36.263" style="fill:none;stroke:#000000;stroke-width:0.5" />
<path d="M575.79,32.263L575.79,36.263" style="fill:none;stroke:#000000;stroke-width:0.5" />
<path d="M639.6,32.263L639.6,36.263" style="fill:none;stroke:#000000;stroke-width:0.5" />
<path d="M65.305,36.263L720,36.263" style="fill:none;stroke:#000000;stroke-width:0.5" />
<g transform="rotate(90)">
<text x="152.55" y="11.555" transform="scale(1, -1)"
	style="font-family:Times;font-weight:normal;font-style:normal;font-size:12px">Number of trials (1000000 total)</text>
</g>
<text x="24.055" y="-107.45" transform="scale(1, -1)"
	style="font-family:Times;font-weight:normal;font-style:normal;font-size:10px">30000</text>
<text x="24.055" y="-238.47" transform="scale(1, -1)"
	style="font-family:Times;font-weight:normal;font-style:normal;font-size:10px">90000</text>
<text x="19.055" y="-369.48" transform="scale(1, -1)"
	style="font-family:Times;font-weight:normal;font-style:normal;font-size:10px">150000</text>
<path d="M51.555,110.66L59.555,110.66" style="fill:none;stroke:#000000;stroke-width:0.5" />
<path d="M51.555,241.67L59.555,241.67" style="fill:none;stroke:#000000;stroke-width:0.5" />
<path d="M51.555,372.69L59.555,372.69" style="fill:none;stroke:#000000;stroke-width:0.5" />
<path d="M55.555,176.16L59.555,176.16" style="fill:none;stroke:#000000;stroke-width:0.5" />
<path d="M55.555,307.18L59.555,307.18" style="fill:none;stroke:#000000;stroke-width:0.5" />
<path d="M59.555,45.151L59.555,416.58" style="fill:none;stroke:#000000;stroke-width:0.5" />
<path d="M65.305,416.58L94.657,59.17L95.934,48.418L98.486,69.557L99.762,62.845L101.04,70.116L102.31,66.406L103.59,52.032L104.87,48.549L107.42,62.356L108.7,70.016L109.97,62.897L112.52,77.191L113.8,73.125L115.08,58.877L116.35,52.134L117.63,58.746L118.91,55.471L120.18,94.271L121.46,80.914L122.73,63.186L124.01,66.378L125.29,45.265L126.56,55.827L127.84,62.974L129.12,63.858L130.39,53.349L131.67,46.649L132.94,93.301L134.22,60.755L135.5,47.713L136.77,69.212L138.05,48.27L139.32,50.158L140.6,53.971L141.88,55.657L143.15,53.456L144.43,59.445L145.71,68.195L146.98,50.733L148.26,50.599L149.53,52.228L150.81,70.649L152.09,50.752L153.36,52.661L154.64,53.484L155.92,58.973L157.19,57.334L158.47,71.055L159.74,62.585L161.02,52.84L162.3,55.132L163.57,70.077L164.85,55.469L166.13,57.12L167.4,60.79L168.68,75.553L169.95,58.279L171.23,56.755L172.51,55.447L173.78,53.726L175.06,56.674L176.33,59.928L177.61,57.329L178.89,56.248L180.16,57.434L181.44,57.582L182.72,55.104L183.99,56.209L185.27,56.183L186.54,53.975L187.82,58.973L189.1,58.29L190.37,54.106L191.65,57.338L192.93,56.2L194.2,55.486L195.48,56.015L196.75,54.456L198.03,55.716L199.31,55.063L200.58,58.242L201.86,56.707L203.14,54.456L204.41,55.499L205.69,56.36L206.96,55.934L208.24,54.342L209.52,52.973L210.79,54.143L212.07,55.231L213.34,57.637L214.62,55.255L215.9,54.639L217.17,54.172L218.45,55.502L219.73,53.377L221,53.399L222.28,54.576L223.55,54.532L224.83,54.039L226.11,55.047L227.38,54.438L228.66,51.409L229.94,52.479L231.21,55.178L232.49,52.503L233.76,51.746L235.04,52.748L236.32,54.121L237.59,52.285L238.87,52.637L240.15,52.497L241.42,50.936L242.7,51.626L243.97,52.838L245.25,51.597L246.53,51.309L247.8,51.903L249.08,52.7L250.36,51.084L251.63,50.848L252.91,51.337L254.18,51.473L255.46,50.892L256.74,51.634L258.01,50.89L259.29,50.73L260.56,50.968L261.84,51.409L263.12,50.693L264.39,50.211L265.67,50.388L266.95,50.855L268.22,50.394L269.5,50.233L270.77,50.241L272.05,49.905L273.33,50.045L274.6,50.123L275.88,49.68L277.16,49.754L278.43,49.577L279.71,49.658L280.98,49.444L282.26,49.453L283.54,49.333L284.81,49.208L286.09,49.575L287.37,49.18L288.64,49.027L289.92,49.152L291.19,48.763L292.47,48.922L293.75,48.767L295.02,48.75L296.3,48.56L297.57,48.352L298.85,48.621L300.13,48.435L301.4,48.053L302.68,48.149L303.96,48.195L305.23,48.163L306.51,48.128L307.78,48.357L309.06,47.977L310.34,47.916L311.61,47.92L312.89,47.78L314.17,47.732L315.44,47.837L316.72,47.839L317.99,47.756L319.27,47.39L320.55,47.612L321.82,47.545L323.1,47.51L324.38,47.488L325.65,47.37L326.93,47.184L328.2,47.145L329.48,47.162L330.76,47.106L332.03,47.051L333.31,47.117L334.58,46.957L335.86,46.996L337.14,46.962L338.41,46.868L339.69,46.785L340.97,46.754L342.24,46.879L343.52,46.693L344.79,46.782L346.07,46.621L347.35,46.627L348.62,46.641L349.9,46.579L351.18,46.564L352.45,46.486L353.73,46.352L355,46.42L356.28,46.302L357.56,46.42L358.83,46.333L360.11,46.413L361.39,46.304L362.66,46.276L363.94,46.263L365.21,46.3L366.49,46.296L367.77,46.114L369.04,46.21L370.32,45.992L371.59,46.047L372.87,46.154L374.15,46.119L375.42,46.051L376.7,46.071L377.98,46.038L379.25,46.018L380.53,46.02L381.8,45.955L383.08,45.896L384.36,45.892L385.63,45.887L386.91,45.889L388.19,45.796L389.46,45.896L390.74,45.796L392.01,45.815L393.29,45.743L394.57,45.835L395.84,45.747L397.12,45.763L398.4,45.717L399.67,45.715L400.95,45.695L402.22,45.636L403.5,45.682L404.78,45.654L406.05,45.634L407.33,45.59L408.6,45.621L409.88,45.623L411.16,45.582L412.43,45.584L413.71,45.571L414.99,45.56L416.26,45.544L417.54,45.527L418.81,45.531L420.09,45.47L421.37,45.485L422.64,45.514L423.92,45.494L425.2,45.451L426.47,45.477L427.75,45.424L429.02,45.405L430.3,45.396L431.58,45.42L432.85,45.437L434.13,45.44L435.41,45.374L436.68,45.413L437.96,45.389L439.23,45.409L440.51,45.374L441.79,45.398L443.06,45.352L444.34,45.392L445.62,45.337L446.89,45.346L448.17,45.402L449.44,45.328L450.72,45.333L452,45.328L453.27,45.352L454.55,45.304L455.82,45.309L457.1,45.322L458.38,45.32L459.65,45.276L460.93,45.3L462.21,45.298L463.48,45.291L464.76,45.28L466.03,45.274L467.31,45.274L468.59,45.271L469.86,45.28L471.14,45.252L472.42,45.267L473.69,45.256L474.97,45.234L476.24,45.237L477.52,45.252L478.8,45.239L480.07,45.221L481.35,45.241L482.63,45.234L483.9,45.23L485.18,45.213L486.45,45.241L487.73,45.223L489.01,45.228L490.28,45.228L491.56,45.219L492.83,45.193L494.11,45.219L495.39,45.223L496.66,45.217L497.94,45.193L499.22,45.204L500.49,45.195L501.77,45.191L503.04,45.195L504.32,45.197L505.6,45.208L506.87,45.199L508.15,45.188L509.43,45.202L510.7,45.197L511.98,45.204L513.25,45.186L514.53,45.184L515.81,45.202L517.08,45.195L518.36,45.178L519.64,45.182L520.91,45.188L522.19,45.175L523.46,45.171L524.74,45.173L526.02,45.178L527.29,45.182L528.57,45.175L529.84,45.178L531.12,45.182L532.4,45.175L533.67,45.167L534.95,45.169L536.23,45.191L537.5,45.169L538.78,45.171L540.05,45.167L541.33,45.171L542.61,45.164L543.88,45.169L545.16,45.164L546.44,45.169L547.71,45.164L548.99,45.167L550.26,45.158L551.54,45.171L552.82,45.158L554.09,45.164L555.37,45.16L556.65,45.167L557.92,45.158L559.2,45.164L560.47,45.167L561.75,45.167L563.03,45.167L564.3,45.154L565.58,45.156L566.85,45.154L568.13,45.162L569.41,45.16L570.68,45.16L571.96,45.156L573.24,45.154L574.51,45.154L575.79,45.158L577.06,45.164L578.34,45.154L579.62,45.164L580.89,45.154L582.17,45.154L583.45,45.162L584.72,45.154L586,45.158L587.27,45.154L588.55,45.156L589.83,45.156L591.1,45.151L592.38,45.154L593.66,45.158L594.93,45.154L597.48,45.154L598.76,45.151L600.04,45.154L601.31,45.154L602.59,45.154L603.86,45.151L605.14,45.156L611.52,45.151L615.35,45.154L616.63,45.154L617.9,45.151L619.18,45.151L620.46,45.151L621.73,45.151L624.28,45.151L626.84,45.154L628.11,45.151L630.67,45.151L631.94,45.156L633.22,45.154L635.77,45.154L637.05,45.154L639.6,45.154L640.88,45.151L648.53,45.154L651.08,45.156L653.64,45.151L658.74,45.151L660.02,45.151L667.68,45.156L677.89,45.151L685.54,45.151L686.82,45.151L698.3,45.154L704.69,45.151L720,45.151" style="fill:none;stroke:#0000FF" />
</g>
</svg>
