<?xml version="1.0"?>
<!-- Generated by SVGo and Plotinum VG -->
<svg width="720pt" height="432pt" viewBox="0 0 720 432"
	xmlns="http://www.w3.org/2000/svg"
	xmlns:xlink="http://www.w3.org/1999/xlink">
<g transform="scale(1, -1) translate(0, -432)">
<path d="M0,0L720,0L720,432L0,432Z" style="fill:#FFFFFF" />
<text x="358.5" y="-420.45" transform="scale(1, -1)"
	style="font-family:Times;font-weight:normal;font-style:normal;font-size:12px"> </text>
<text x="379.31" y="-3.8613" transform="scale(1, -1)"
	style="font-family:Times;font-weight:normal;font-style:normal;font-size:12px">Costs</text>
<text x="62.805" y="-18.634" transform="scale(1, -1)"
	style="font-family:Times;font-weight:normal;font-style:normal;font-size:10px">0</text>
<text x="330.03" y="-18.634" transform="scale(1, -1)"
	style="font-family:Times;font-weight:normal;font-style:normal;font-size:10px">200</text>
<text x="602.25" y="-18.634" transform="scale(1, -1)"
	style="font-family:Times;font-weight:normal;font-style:normal;font-size:10px">400</text>
<path d="M65.305,28.263L65.305,36.263" style="fill:none;stroke:#000000;stroke-width:0.5" />
<path d="M337.53,28.263L337.53,36.263" style="fill:none;stroke:#000000;stroke-width:0.5" />
<path d="M609.75,28.263L609.75,36.263" style="fill:none;stroke:#000000;stroke-width:0.5" />
<path d="M201.42,32.263L201.42,36.263" style="fill:none;stroke:#000000;stroke-width:0.5" />
<path d="M473.64,32.263L473.64,36.263" style="fill:none;stroke:#000000;stroke-width:0.5" />
<path d="M65.305,36.263L720,36.263" style="fill:none;stroke:#000000;stroke-width:0.5" />
<g transform="rotate(90)">
<text x="152.55" y="11.555" transform="scale(1, -1)"
	style="font-family:Times;font-weight:normal;font-style:normal;font-size:12px">Number of trials (1000000 total)</text>
</g>
<text x="24.055" y="-112.88" transform="scale(1, -1)"
	style="font-family:Times;font-weight:normal;font-style:normal;font-size:10px">40000</text>
<text x="19.055" y="-254.76" transform="scale(1, -1)"
	style="font-family:Times;font-weight:normal;font-style:normal;font-size:10px">120000</text>
<text x="19.055" y="-396.63" transform="scale(1, -1)"
	style="font-family:Times;font-weight:normal;font-style:normal;font-size:10px">200000</text>
<path d="M51.555,116.09L59.555,116.09" style="fill:none;stroke:#000000;stroke-width:0.5" />
<path d="M51.555,257.96L59.555,257.96" style="fill:none;stroke:#000000;stroke-width:0.5" />
<path d="M51.555,399.84L59.555,399.84" style="fill:none;stroke:#000000;stroke-width:0.5" />
<path d="M55.555,187.02L59.555,187.02" style="fill:none;stroke:#000000;stroke-width:0.5" />
<path d="M55.555,328.9L59.555,328.9" style="fill:none;stroke:#000000;stroke-width:0.5" />
<path d="M59.555,45.151L59.555,416.58" style="fill:none;stroke:#000000;stroke-width:0.5" />
<path d="M65.305,416.58L96.61,59.197L100.69,51.789L102.05,51.931L103.42,58.731L104.78,48.583L107.5,55.395L108.86,62.249L110.22,59.314L111.58,80.718L112.94,48.76L115.67,78.123L118.39,48.572L121.11,76.048L122.47,109.39L123.83,51.619L125.19,96.727L127.92,48.787L132,45.412L133.36,45.391L134.72,45.678L136.08,45.252L137.44,62.65L138.8,49.285L140.17,46.088L141.53,67.722L142.89,53.62L144.25,75.443L145.61,46.058L146.97,62.13L148.33,76.068L149.69,68.756L151.05,106.45L152.42,47.508L153.78,50.759L155.14,47.51L156.5,49.491L157.86,48.911L159.22,49.587L160.58,50.2L161.94,79.996L163.3,48.507L164.67,56.117L166.03,56.81L167.39,52.27L168.75,55.324L170.11,48.551L171.47,52.88L172.83,52.279L174.19,69.208L175.55,62.366L176.92,46.802L178.28,52.442L179.64,52.772L181,53.446L182.36,58.491L183.72,49.995L185.08,50.743L186.44,50.053L187.8,53.111L189.17,50.39L190.53,50.555L191.89,50.271L193.25,53.958L194.61,58.09L195.97,51.261L197.33,58.362L198.69,53.898L200.05,53.361L201.42,59.979L202.78,49.058L204.14,56.695L205.5,55.23L206.86,59.63L208.22,64.118L209.58,51.557L210.94,55.764L212.3,50.536L213.67,48.998L215.03,47.907L216.39,49.039L217.75,51.014L219.11,54.368L220.47,53.311L221.83,55.76L223.19,51.8L224.55,53.017L225.92,52.078L227.28,53.54L228.64,50.929L230,54.07L231.36,52.77L232.72,54.12L234.08,56.042L235.44,52.635L236.8,49.941L238.17,50.273L239.53,49.094L240.89,50.755L242.25,48.537L243.61,50.003L244.97,51.135L246.33,50.901L247.69,54.678L249.05,48.977L250.42,51.58L251.78,51.131L253.14,50.589L254.5,50.709L255.86,49.149L257.22,51.447L258.58,51.195L259.94,52.224L261.3,51.062L262.67,48.757L264.03,49.534L265.39,49.594L266.75,48.909L268.11,49.365L269.47,48.372L270.83,49.991L272.19,49.076L273.55,48.544L274.92,48.565L276.28,48.911L277.64,49.06L279,49.397L280.36,49.372L281.72,48.757L283.08,48.923L284.44,49.816L285.8,48.533L287.17,48.922L288.53,48.184L289.89,49.262L291.25,49.191L292.61,48.783L293.97,48.746L295.33,47.733L296.69,47.741L298.05,48.097L299.42,47.301L300.78,47.875L302.14,47.831L303.5,48.498L304.86,48.686L306.22,48.234L307.58,48.422L308.94,47.677L310.31,48.092L311.67,47.723L313.03,47.485L314.39,47.506L315.75,47.643L317.11,48.078L318.47,47.735L319.83,47.425L321.19,47.189L322.56,46.843L323.92,47.102L325.28,46.877L326.64,47.155L328,46.921L329.36,47.304L330.72,47.391L332.08,47.081L333.44,47.102L334.81,46.857L336.17,47.033L337.53,46.918L338.89,46.921L340.25,46.742L341.61,46.74L342.97,46.79L344.33,46.811L345.69,46.522L347.06,46.618L348.42,46.577L349.78,46.501L351.14,46.489L352.5,46.341L353.86,46.419L355.22,46.334L356.58,46.579L357.94,46.462L359.31,46.228L360.67,46.297L362.03,46.363L363.39,46.354L364.75,46.23L366.11,46.185L367.47,46.194L368.83,46.081L370.19,46.105L371.56,46.068L372.92,46.134L374.28,46.105L375.64,46.063L377,46.097L378.36,45.987L379.72,45.985L381.08,45.944L382.44,45.852L383.81,45.894L385.17,45.852L386.53,45.964L387.89,45.91L389.25,45.926L390.61,45.887L391.97,45.896L393.33,45.875L394.69,45.878L396.06,45.77L397.42,45.719L398.78,45.737L400.14,45.753L401.5,45.71L402.86,45.756L404.22,45.747L405.58,45.607L406.94,45.676L408.31,45.602L409.67,45.625L411.03,45.62L412.39,45.62L413.75,45.628L415.11,45.63L416.47,45.57L417.83,45.524L419.19,45.529L420.56,45.568L421.92,45.465L423.28,45.51L424.64,45.483L426,45.51L427.36,45.565L428.72,45.481L430.08,45.435L431.44,45.446L432.81,45.412L434.17,45.435L435.53,45.465L436.89,45.375L438.25,45.423L439.61,45.432L440.97,45.417L442.33,45.393L443.69,45.421L445.06,45.378L446.42,45.412L447.78,45.382L449.14,45.375L450.5,45.336L451.86,45.366L453.22,45.315L454.58,45.338L455.94,45.323L457.31,45.341L458.67,45.339L460.03,45.304L461.39,45.341L462.75,45.323L464.11,45.288L465.47,45.3L466.83,45.297L468.19,45.284L469.56,45.33L470.92,45.279L472.28,45.297L473.64,45.279L475,45.26L476.36,45.279L477.72,45.249L479.08,45.281L480.44,45.265L481.81,45.256L483.17,45.247L484.53,45.252L485.89,45.245L487.25,45.263L488.61,45.263L489.97,45.221L491.33,45.222L492.69,45.24L494.06,45.245L495.42,45.226L496.78,45.245L498.14,45.228L499.5,45.226L500.86,45.229L502.22,45.221L503.58,45.224L504.94,45.219L506.31,45.201L507.67,45.205L509.03,45.212L510.39,45.187L511.75,45.201L513.11,45.199L514.47,45.233L515.83,45.208L517.19,45.212L518.56,45.185L519.92,45.194L521.28,45.19L522.64,45.199L524,45.205L525.36,45.197L526.72,45.19L528.08,45.183L529.44,45.185L530.81,45.183L532.17,45.189L533.53,45.173L534.89,45.176L536.25,45.176L537.61,45.183L538.97,45.182L540.33,45.167L541.69,45.178L543.06,45.167L544.42,45.164L545.78,45.182L547.14,45.173L548.5,45.176L549.86,45.167L551.22,45.178L552.58,45.183L553.94,45.174L555.31,45.174L556.67,45.167L558.03,45.166L559.39,45.155L560.75,45.171L562.11,45.166L563.47,45.167L564.83,45.157L566.19,45.162L567.56,45.167L568.92,45.157L570.28,45.158L571.64,45.16L573,45.166L574.36,45.16L575.72,45.16L577.08,45.166L578.44,45.162L579.81,45.158L581.17,45.169L582.53,45.153L583.89,45.162L585.25,45.157L586.61,45.158L587.97,45.153L589.33,45.162L590.69,45.166L592.06,45.16L593.42,45.151L594.78,45.162L596.14,45.158L597.5,45.164L600.22,45.157L601.58,45.155L602.94,45.157L604.31,45.157L605.67,45.155L607.03,45.153L608.39,45.16L609.75,45.151L611.11,45.155L613.83,45.151L615.19,45.153L616.56,45.155L617.92,45.153L620.64,45.151L622,45.162L623.36,45.151L624.72,45.153L626.08,45.157L627.44,45.151L631.53,45.153L632.89,45.153L634.25,45.151L635.61,45.155L636.97,45.151L638.33,45.151L639.69,45.153L645.14,45.151L646.5,45.151L647.86,45.151L651.94,45.151L653.31,45.151L657.39,45.151L661.47,45.153L662.83,45.151L665.56,45.151L668.28,45.151L679.17,45.151L687.33,45.151L688.69,45.151L691.42,45.151L692.78,45.151L699.58,45.151L705.03,45.151L710.47,45.151L715.92,45.151L720,45.151" style="fill:none;stroke:#0000FF" />
</g>
</svg>
