<?xml version="1.0"?>
<!-- Generated by SVGo and Plotinum VG -->
<svg width="720pt" height="432pt" viewBox="0 0 720 432"
	xmlns="http://www.w3.org/2000/svg"
	xmlns:xlink="http://www.w3.org/1999/xlink">
<g transform="scale(1, -1) translate(0, -432)">
<path d="M0,0L720,0L720,432L0,432Z" style="fill:#FFFFFF" />
<text x="358.5" y="-420.45" transform="scale(1, -1)"
	style="font-family:Times;font-weight:normal;font-style:normal;font-size:12px"> </text>
<text x="376.81" y="-3.8613" transform="scale(1, -1)"
	style="font-family:Times;font-weight:normal;font-style:normal;font-size:12px">Costs</text>
<text x="51.555" y="-18.634" transform="scale(1, -1)"
	style="font-family:Times;font-weight:normal;font-style:normal;font-size:10px">0.00</text>
<text x="323.27" y="-18.634" transform="scale(1, -1)"
	style="font-family:Times;font-weight:normal;font-style:normal;font-size:10px">250.00</text>
<text x="599.99" y="-18.634" transform="scale(1, -1)"
	style="font-family:Times;font-weight:normal;font-style:normal;font-size:10px">500.00</text>
<path d="M60.305,28.263L60.305,36.263" style="fill:none;stroke:#000000;stroke-width:0.5" />
<path d="M337.02,28.263L337.02,36.263" style="fill:none;stroke:#000000;stroke-width:0.5" />
<path d="M613.74,28.263L613.74,36.263" style="fill:none;stroke:#000000;stroke-width:0.5" />
<path d="M115.65,32.263L115.65,36.263" style="fill:none;stroke:#000000;stroke-width:0.5" />
<path d="M170.99,32.263L170.99,36.263" style="fill:none;stroke:#000000;stroke-width:0.5" />
<path d="M226.34,32.263L226.34,36.263" style="fill:none;stroke:#000000;stroke-width:0.5" />
<path d="M281.68,32.263L281.68,36.263" style="fill:none;stroke:#000000;stroke-width:0.5" />
<path d="M392.37,32.263L392.37,36.263" style="fill:none;stroke:#000000;stroke-width:0.5" />
<path d="M447.71,32.263L447.71,36.263" style="fill:none;stroke:#000000;stroke-width:0.5" />
<path d="M503.05,32.263L503.05,36.263" style="fill:none;stroke:#000000;stroke-width:0.5" />
<path d="M558.4,32.263L558.4,36.263" style="fill:none;stroke:#000000;stroke-width:0.5" />
<path d="M669.08,32.263L669.08,36.263" style="fill:none;stroke:#000000;stroke-width:0.5" />
<path d="M60.305,36.263L720,36.263" style="fill:none;stroke:#000000;stroke-width:0.5" />
<g transform="rotate(90)">
<text x="151.48" y="11.555" transform="scale(1, -1)"
	style="font-family:Times;font-weight:normal;font-style:normal;font-size:12px">Number of trials (1000000 total)</text>
</g>
<text x="24.055" y="-70.018" transform="scale(1, -1)"
	style="font-family:Times;font-weight:normal;font-style:normal;font-size:10px">5000</text>
<text x="19.055" y="-182.33" transform="scale(1, -1)"
	style="font-family:Times;font-weight:normal;font-style:normal;font-size:10px">25000</text>
<text x="19.055" y="-294.64" transform="scale(1, -1)"
	style="font-family:Times;font-weight:normal;font-style:normal;font-size:10px">45000</text>
<text x="19.055" y="-406.96" transform="scale(1, -1)"
	style="font-family:Times;font-weight:normal;font-style:normal;font-size:10px">65000</text>
<path d="M46.555,73.224L54.555,73.224" style="fill:none;stroke:#000000;stroke-width:0.5" />
<path d="M46.555,185.54L54.555,185.54" style="fill:none;stroke:#000000;stroke-width:0.5" />
<path d="M46.555,297.85L54.555,297.85" style="fill:none;stroke:#000000;stroke-width:0.5" />
<path d="M46.555,410.16L54.555,410.16" style="fill:none;stroke:#000000;stroke-width:0.5" />
<path d="M50.555,129.38L54.555,129.38" style="fill:none;stroke:#000000;stroke-width:0.5" />
<path d="M50.555,241.69L54.555,241.69" style="fill:none;stroke:#000000;stroke-width:0.5" />
<path d="M50.555,354L54.555,354" style="fill:none;stroke:#000000;stroke-width:0.5" />
<path d="M54.555,45.151L54.555,414.43" style="fill:none;stroke:#000000;stroke-width:0.5" />
<path d="M60.305,414.43L85.763,48.717L86.87,71.96L89.083,66.143L90.19,52.3L91.297,88.347L92.404,85.999L94.618,66.923L95.725,55.45L96.831,71.472L97.938,131.14L99.045,89.807L101.26,68.765L102.37,76.099L103.47,70.635L104.58,90.481L105.69,72.022L106.79,72.348L107.9,100.67L109.01,97.455L110.11,51.834L111.22,74.426L112.33,45.404L113.43,82.523L114.54,67.395L115.65,46.628L116.76,65.053L117.86,48.875L118.97,91.149L120.08,91.688L121.18,52.143L122.29,91.71L123.4,52.794L124.5,72.387L125.61,74.117L126.72,91.194L127.82,64.486L128.93,84.399L130.04,65.12L131.14,55.237L132.25,57.399L133.36,61.347L134.47,102.25L135.57,69.186L136.68,68.692L137.79,61.914L138.89,66.221L140,75.992L141.11,67.805L142.21,92.817L143.32,70.966L144.43,67.541L145.53,82.209L146.64,75.672L147.75,70.102L148.85,86.948L149.96,85.763L151.07,81.17L152.18,78.744L153.28,74.583L154.39,73.959L155.5,74.555L156.6,83.354L157.71,82.81L158.82,74.942L159.92,75.195L161.03,78.435L162.14,72.977L163.24,78.07L164.35,80.109L165.46,77.57L166.56,79.379L167.67,78.935L168.78,73.948L169.88,73.437L170.99,77.924L172.1,77.436L173.21,83.961L174.31,71.303L175.42,75.391L176.53,73.493L177.63,72.763L178.74,76.672L179.85,74.313L180.95,76.599L182.06,76.009L183.17,74.864L184.27,70.989L185.38,75.594L186.49,76.262L187.59,80.614L188.7,77.306L189.81,71.011L190.92,74.92L192.02,70.158L193.13,75.835L194.24,76.239L195.34,74.442L196.45,75.504L197.56,70.225L198.66,73.527L199.77,71.567L200.88,74.785L201.98,74.313L203.09,73.858L204.2,73.353L205.3,70.27L206.41,70.68L207.52,72.443L208.63,74.409L209.73,72.797L210.84,74.072L211.95,72.168L213.05,71.011L214.16,71.522L215.27,71.14L216.37,73.578L217.48,71.5L218.59,70.91L219.69,70.045L220.8,69.804L221.91,68.013L223.01,70.191L224.12,69.658L225.23,69.725L226.34,69.95L227.44,68.142L228.55,67.209L229.66,68.276L230.76,68.984L231.87,69.534L232.98,67.754L234.08,67.131L235.19,66.889L236.3,66.283L237.4,66.429L238.51,67.434L239.62,66.564L240.72,66.227L241.83,66.086L242.94,65.457L244.05,65.351L245.15,65.177L246.26,65.149L247.37,65.738L248.47,64.615L249.58,64.632L250.69,64.609L251.79,63.543L252.9,63.621L254.01,63.745L255.11,64.424L256.22,63.183L257.33,63.037L258.43,62.919L259.54,62.65L260.65,63.29L261.76,62.543L262.86,62.24L263.97,61.291L265.08,61.605L266.18,60.971L267.29,61.341L268.4,61.173L269.5,60.69L270.61,61.156L271.72,60.134L272.82,59.701L273.93,59.555L275.04,59.376L276.14,60.274L277.25,59.353L278.36,59.51L279.47,58.163L280.57,58.719L281.68,58.786L282.79,58.107L283.89,58.415L285,58.32L286.11,57.82L287.21,57.674L288.32,57.202L289.43,57.45L290.53,56.725L291.64,56.882L292.75,56.793L293.85,56.422L294.96,56.209L296.07,56.326L297.18,55.512L298.28,56.04L299.39,55.619L300.5,55.641L301.6,55.288L302.71,54.619L303.82,55.288L304.92,55.13L306.03,54.967L307.14,54.754L308.24,54.614L309.35,54.681L310.46,53.861L311.56,53.58L312.67,53.642L313.78,53.676L314.89,53.474L315.99,53.17L317.1,53.165L318.21,53.053L319.31,53.21L320.42,52.682L321.53,52.738L322.63,52.912L323.74,52.227L324.85,52.12L325.95,52.631L327.06,51.643L328.17,51.957L329.27,51.407L330.38,51.705L331.49,51.576L332.6,51.357L333.7,51.143L334.81,51.3L335.92,51.154L337.02,51.081L338.13,51.003L339.24,50.694L340.34,50.627L341.45,50.194L342.56,50.503L343.66,50.048L344.77,50.295L345.88,50.273L346.98,50.054L348.09,49.779L349.2,49.751L350.3,49.897L351.41,49.436L352.52,49.745L353.63,49.582L354.73,49.509L355.84,49.284L356.95,49.357L358.05,49.099L359.16,49.223L360.27,48.768L361.37,48.903L362.48,48.779L363.59,48.762L364.69,48.56L365.8,48.745L366.91,48.543L368.01,48.403L369.12,48.47L370.23,48.29L371.34,48.088L372.44,48.538L373.55,48.369L374.66,48.212L375.76,48.015L376.87,47.925L377.98,47.796L379.08,47.914L380.19,47.56L381.3,47.695L382.4,47.437L383.51,47.549L384.62,47.572L385.72,47.538L386.83,47.499L387.94,47.549L389.05,47.392L390.15,47.459L391.26,47.049L392.37,47.128L393.47,46.954L394.58,46.971L395.69,47.156L396.79,47.128L397.9,46.993L399.01,46.982L400.11,46.898L401.22,46.875L402.33,46.875L403.43,46.774L404.54,46.78L405.65,46.757L406.76,46.595L407.86,46.595L408.97,46.645L410.08,46.617L411.18,46.443L412.29,46.477L413.4,46.46L414.5,46.37L415.61,46.319L416.72,46.392L417.82,46.303L418.93,46.449L420.04,46.314L421.14,46.274L422.25,46.308L423.36,46.14L424.47,46.14L425.57,46.016L426.68,46.117L427.79,46.106L428.89,46.168L430,46.016L431.11,45.994L432.21,46.061L433.32,45.994L434.43,45.848L435.53,45.977L436.64,45.971L437.75,45.859L438.85,45.825L439.96,45.842L441.07,45.78L442.18,45.803L443.28,45.881L444.39,45.87L445.5,45.702L446.6,45.584L447.71,45.719L448.82,45.679L449.92,45.758L451.03,45.707L452.14,45.696L453.24,45.69L454.35,45.69L455.46,45.606L456.56,45.629L457.67,45.707L458.78,45.64L459.89,45.516L460.99,45.612L462.1,45.561L463.21,45.494L464.31,45.516L465.42,45.528L466.53,45.573L467.63,45.432L468.74,45.511L469.85,45.533L470.95,45.466L472.06,45.511L473.17,45.421L474.27,45.432L475.38,45.432L476.49,45.511L477.6,45.449L478.7,45.421L479.81,45.398L480.92,45.382L482.02,45.37L483.13,45.342L484.24,45.438L485.34,45.348L486.45,45.393L487.56,45.376L488.66,45.303L489.77,45.359L490.88,45.393L491.98,45.348L493.09,45.325L494.2,45.359L495.31,45.342L496.41,45.382L497.52,45.297L498.63,45.314L499.73,45.314L500.84,45.269L501.95,45.32L503.05,45.252L504.16,45.297L505.27,45.264L506.37,45.269L507.48,45.258L508.59,45.241L509.69,45.325L510.8,45.303L511.91,45.281L513.02,45.224L514.12,45.219L515.23,45.247L516.34,45.241L517.44,45.236L518.55,45.236L519.66,45.247L520.76,45.219L521.87,45.241L522.98,45.213L524.08,45.219L525.19,45.196L526.3,45.264L527.4,45.213L528.51,45.247L529.62,45.208L530.73,45.224L531.83,45.23L532.94,45.241L534.05,45.191L535.15,45.196L536.26,45.208L537.37,45.252L538.47,45.224L539.58,45.196L540.69,45.23L541.79,45.202L542.9,45.219L544.01,45.179L545.11,45.191L546.22,45.179L547.33,45.196L548.43,45.174L549.54,45.163L550.65,45.185L551.76,45.168L552.86,45.185L553.97,45.179L555.08,45.179L556.18,45.179L557.29,45.157L558.4,45.179L559.5,45.202L560.61,45.179L561.72,45.157L562.82,45.191L563.93,45.174L565.04,45.163L566.14,45.163L567.25,45.151L568.36,45.168L569.47,45.174L570.57,45.168L571.68,45.168L572.79,45.163L573.89,45.168L575,45.163L576.11,45.168L577.21,45.185L578.32,45.157L579.43,45.179L580.53,45.163L581.64,45.157L583.85,45.163L584.96,45.151L586.07,45.163L587.18,45.157L588.28,45.168L590.5,45.151L591.6,45.163L593.82,45.151L594.92,45.163L596.03,45.174L597.14,45.151L598.24,45.157L599.35,45.151L600.46,45.157L602.67,45.151L603.78,45.157L604.89,45.157L609.31,45.151L610.42,45.163L611.53,45.157L613.74,45.151L614.85,45.157L618.17,45.151L620.38,45.151L621.49,45.151L622.6,45.157L623.7,45.151L627.02,45.151L630.34,45.163L631.45,45.157L633.66,45.151L644.73,45.151L650.27,45.151L651.37,45.151L653.59,45.151L676.83,45.151L683.47,45.151L684.58,45.151L689.01,45.151L693.44,45.151L720,45.151" style="fill:none;stroke:#0000FF" />
</g>
</svg>
