<?xml version="1.0"?>
<!-- Generated by SVGo and Plotinum VG -->
<svg width="720pt" height="432pt" viewBox="0 0 720 432"
	xmlns="http://www.w3.org/2000/svg"
	xmlns:xlink="http://www.w3.org/1999/xlink">
<g transform="scale(1, -1) translate(0, -432)">
<path d="M0,0L720,0L720,432L0,432Z" style="fill:#FFFFFF" />
<text x="358.5" y="-420.45" transform="scale(1, -1)"
	style="font-family:Times;font-weight:normal;font-style:normal;font-size:12px"> </text>
<text x="379.31" y="-3.8613" transform="scale(1, -1)"
	style="font-family:Times;font-weight:normal;font-style:normal;font-size:12px">Costs</text>
<text x="62.805" y="-18.634" transform="scale(1, -1)"
	style="font-family:Times;font-weight:normal;font-style:normal;font-size:10px">0</text>
<text x="350.73" y="-18.634" transform="scale(1, -1)"
	style="font-family:Times;font-weight:normal;font-style:normal;font-size:10px">200</text>
<text x="643.66" y="-18.634" transform="scale(1, -1)"
	style="font-family:Times;font-weight:normal;font-style:normal;font-size:10px">400</text>
<path d="M65.305,28.263L65.305,36.263" style="fill:none;stroke:#000000;stroke-width:0.5" />
<path d="M358.23,28.263L358.23,36.263" style="fill:none;stroke:#000000;stroke-width:0.5" />
<path d="M651.16,28.263L651.16,36.263" style="fill:none;stroke:#000000;stroke-width:0.5" />
<path d="M211.77,32.263L211.77,36.263" style="fill:none;stroke:#000000;stroke-width:0.5" />
<path d="M504.7,32.263L504.7,36.263" style="fill:none;stroke:#000000;stroke-width:0.5" />
<path d="M65.305,36.263L720,36.263" style="fill:none;stroke:#000000;stroke-width:0.5" />
<g transform="rotate(90)">
<text x="152.55" y="11.555" transform="scale(1, -1)"
	style="font-family:Times;font-weight:normal;font-style:normal;font-size:12px">Number of trials (1000000 total)</text>
</g>
<text x="24.055" y="-92.114" transform="scale(1, -1)"
	style="font-family:Times;font-weight:normal;font-style:normal;font-size:10px">40000</text>
<text x="19.055" y="-242.62" transform="scale(1, -1)"
	style="font-family:Times;font-weight:normal;font-style:normal;font-size:10px">160000</text>
<text x="19.055" y="-393.13" transform="scale(1, -1)"
	style="font-family:Times;font-weight:normal;font-style:normal;font-size:10px">280000</text>
<path d="M51.555,95.319L59.555,95.319" style="fill:none;stroke:#000000;stroke-width:0.5" />
<path d="M51.555,245.83L59.555,245.83" style="fill:none;stroke:#000000;stroke-width:0.5" />
<path d="M51.555,396.33L59.555,396.33" style="fill:none;stroke:#000000;stroke-width:0.5" />
<path d="M55.555,170.57L59.555,170.57" style="fill:none;stroke:#000000;stroke-width:0.5" />
<path d="M55.555,321.08L59.555,321.08" style="fill:none;stroke:#000000;stroke-width:0.5" />
<path d="M59.555,45.151L59.555,416.58" style="fill:none;stroke:#000000;stroke-width:0.5" />
<path d="M65.305,416.58L100.46,48.583L103.39,52.053L104.85,59.274L110.71,59.255L112.17,51.973L113.64,69.773L115.1,66.078L116.57,48.538L118.03,55.668L119.5,51.968L120.96,48.411L122.43,48.585L125.36,62.817L126.82,59.234L128.28,58.954L129.75,48.659L132.68,66.757L135.61,48.578L137.07,48.476L138.54,73.904L140,55.934L142.93,73.666L144.4,87.074L145.86,52.007L147.32,45.212L148.79,52.543L150.25,67.737L151.72,66.976L153.18,46.51L154.65,59.71L156.11,49.1L157.58,45.977L159.04,46.329L160.51,46.796L161.97,46.357L163.44,54.515L164.9,47.154L166.37,47.006L167.83,47.245L169.29,46.033L170.76,46.714L172.22,47.1L173.69,54.591L175.15,47.679L176.62,47.907L178.08,48.82L179.55,47.414L181.01,48.103L182.48,82.036L183.94,85.425L185.41,47.965L186.87,48.772L188.33,50.315L189.8,50.36L191.26,50.099L192.73,51.799L194.19,50.307L195.66,49.189L197.12,49.277L198.59,50.324L200.05,50.775L201.52,49.284L202.98,49.579L204.45,50.587L205.91,50.686L207.38,48.764L208.84,47.373L210.3,48.952L211.77,51.183L213.23,49.28L214.7,47.721L216.16,49.371L217.63,51.858L219.09,49.319L220.56,47.478L222.02,52.798L223.49,51.633L224.95,48.998L226.42,47.285L227.88,50.631L229.34,52.643L230.81,51.764L232.27,51.559L233.74,50.764L235.2,48.372L236.67,49.669L238.13,47.684L239.6,47.546L241.06,48.214L242.53,48.399L243.99,49.357L245.46,49.013L246.92,48.449L248.39,47.059L249.85,48.549L251.31,48.893L252.78,47.531L254.24,47.151L255.71,49.255L257.17,50.27L258.64,47.672L260.1,49.3L261.57,53.264L263.03,51.604L264.5,47.159L265.96,47.203L267.43,49.382L268.89,50.622L270.35,48.79L271.82,48.194L273.28,48.439L274.75,46.981L276.21,46.687L277.68,46.858L279.14,46.848L280.61,47.345L282.07,47.509L283.54,46.725L285,46.855L286.47,46.552L287.93,46.314L289.4,46.673L290.86,47.287L292.32,47.452L293.79,46.521L295.25,46.809L296.72,46.886L298.18,46.551L299.65,46.577L301.11,50.287L302.58,46.774L304.04,46.606L305.51,46.586L306.97,46.952L308.44,46.973L309.9,46.985L311.36,46.926L312.83,46.576L314.29,46.566L315.76,46.67L317.22,46.688L318.69,46.564L320.15,46.577L321.62,46.5L323.08,46.653L324.55,46.387L326.01,46.196L327.48,46.205L328.94,46.373L330.41,46.487L331.87,46.186L333.33,46.176L334.8,46.472L336.26,46.539L337.73,46.056L339.19,46.286L340.66,46.649L342.12,46.349L343.59,46.043L345.05,46.121L346.52,46.437L347.98,46.312L349.45,46.222L350.91,46.093L352.37,45.916L353.84,45.919L355.3,45.878L356.77,45.701L358.23,45.839L359.7,45.844L361.16,45.822L362.63,45.762L364.09,45.757L365.56,45.673L367.02,45.638L368.49,45.839L369.95,45.681L371.42,45.686L372.88,45.59L374.34,45.816L375.81,45.658L377.27,45.629L378.74,45.814L380.2,45.938L381.67,45.654L383.13,45.546L384.6,45.63L386.06,45.727L387.53,45.756L388.99,45.486L390.46,45.638L391.92,45.578L393.38,45.521L394.85,45.53L396.31,45.541L397.78,45.516L399.24,45.579L400.71,45.464L402.17,45.503L403.64,45.499L405.1,45.435L406.57,45.437L408.03,45.474L409.5,45.536L410.96,45.415L412.43,45.397L413.89,45.466L415.35,45.429L416.82,45.4L418.28,45.406L419.75,45.427L421.21,45.388L422.68,45.388L424.14,45.396L425.61,45.432L427.07,45.405L428.54,45.365L430,45.376L431.47,45.35L432.93,45.352L434.39,45.357L435.86,45.331L437.32,45.333L438.79,45.342L440.25,45.327L441.72,45.296L443.18,45.291L444.65,45.276L446.11,45.296L447.58,45.323L449.04,45.299L450.51,45.279L451.97,45.282L453.44,45.314L454.9,45.276L456.36,45.24L457.83,45.288L459.29,45.296L460.76,45.258L462.22,45.25L463.69,45.286L465.15,45.278L466.62,45.279L468.08,45.239L469.55,45.244L471.01,45.22L472.48,45.212L473.94,45.23L475.4,45.244L476.87,45.228L478.33,45.225L479.8,45.212L481.26,45.219L482.73,45.214L484.19,45.205L485.66,45.208L487.12,45.22L488.59,45.2L490.05,45.205L491.52,45.202L492.98,45.2L494.45,45.202L495.91,45.199L497.37,45.198L498.84,45.212L500.3,45.194L501.77,45.193L503.23,45.193L504.7,45.188L506.16,45.197L507.63,45.184L509.09,45.197L510.56,45.181L512.02,45.195L513.49,45.178L514.95,45.181L516.41,45.192L517.88,45.183L519.34,45.183L520.81,45.173L522.27,45.184L523.74,45.181L525.2,45.176L526.67,45.171L528.13,45.174L529.6,45.174L531.06,45.171L532.53,45.175L533.99,45.179L535.46,45.163L536.92,45.175L538.38,45.171L539.85,45.17L541.31,45.166L542.78,45.178L544.24,45.164L545.71,45.159L547.17,45.158L548.64,45.169L550.1,45.17L551.57,45.168L553.03,45.164L554.5,45.164L555.96,45.161L557.42,45.159L558.89,45.159L560.35,45.16L561.82,45.166L563.28,45.163L564.75,45.158L566.21,45.164L567.68,45.158L569.14,45.155L570.61,45.158L572.07,45.156L573.54,45.16L575,45.156L576.47,45.155L577.93,45.155L579.39,45.16L580.86,45.158L582.32,45.154L583.79,45.156L585.25,45.156L586.72,45.151L588.18,45.156L589.65,45.151L591.11,45.16L592.58,45.155L594.04,45.151L595.51,45.151L598.43,45.155L599.9,45.158L601.36,45.151L602.83,45.156L604.29,45.153L605.76,45.156L607.22,45.154L608.69,45.153L610.15,45.155L611.62,45.158L614.55,45.153L616.01,45.153L617.48,45.154L618.94,45.151L620.4,45.155L621.87,45.151L623.33,45.154L624.8,45.154L626.26,45.153L627.73,45.151L629.19,45.153L630.66,45.153L632.12,45.154L633.59,45.151L635.05,45.153L637.98,45.151L639.44,45.155L640.91,45.151L642.37,45.153L651.16,45.153L659.95,45.151L661.41,45.151L662.88,45.151L665.81,45.151L670.2,45.151L671.67,45.151L676.06,45.151L677.53,45.151L684.85,45.153L692.17,45.151L693.64,45.151L700.96,45.151L720,45.151" style="fill:none;stroke:#0000FF" />
</g>
</svg>
