<?xml version="1.0"?>
<!-- Generated by SVGo and Plotinum VG -->
<svg width="720pt" height="432pt" viewBox="0 0 720 432"
	xmlns="http://www.w3.org/2000/svg"
	xmlns:xlink="http://www.w3.org/1999/xlink">
<g transform="scale(1, -1) translate(0, -432)">
<path d="M0,0L720,0L720,432L0,432Z" style="fill:#FFFFFF" />
<text x="358.5" y="-420.45" transform="scale(1, -1)"
	style="font-family:Times;font-weight:normal;font-style:normal;font-size:12px"> </text>
<text x="379.31" y="-3.8613" transform="scale(1, -1)"
	style="font-family:Times;font-weight:normal;font-style:normal;font-size:12px">Costs</text>
<text x="56.555" y="-18.634" transform="scale(1, -1)"
	style="font-family:Times;font-weight:normal;font-style:normal;font-size:10px">0.00</text>
<text x="355.78" y="-18.634" transform="scale(1, -1)"
	style="font-family:Times;font-weight:normal;font-style:normal;font-size:10px">250.00</text>
<text x="660.01" y="-18.634" transform="scale(1, -1)"
	style="font-family:Times;font-weight:normal;font-style:normal;font-size:10px">500.00</text>
<path d="M65.305,28.263L65.305,36.263" style="fill:none;stroke:#000000;stroke-width:0.5" />
<path d="M369.53,28.263L369.53,36.263" style="fill:none;stroke:#000000;stroke-width:0.5" />
<path d="M673.76,28.263L673.76,36.263" style="fill:none;stroke:#000000;stroke-width:0.5" />
<path d="M126.15,32.263L126.15,36.263" style="fill:none;stroke:#000000;stroke-width:0.5" />
<path d="M187,32.263L187,36.263" style="fill:none;stroke:#000000;stroke-width:0.5" />
<path d="M247.84,32.263L247.84,36.263" style="fill:none;stroke:#000000;stroke-width:0.5" />
<path d="M308.69,32.263L308.69,36.263" style="fill:none;stroke:#000000;stroke-width:0.5" />
<path d="M430.38,32.263L430.38,36.263" style="fill:none;stroke:#000000;stroke-width:0.5" />
<path d="M491.22,32.263L491.22,36.263" style="fill:none;stroke:#000000;stroke-width:0.5" />
<path d="M552.07,32.263L552.07,36.263" style="fill:none;stroke:#000000;stroke-width:0.5" />
<path d="M612.91,32.263L612.91,36.263" style="fill:none;stroke:#000000;stroke-width:0.5" />
<path d="M65.305,36.263L720,36.263" style="fill:none;stroke:#000000;stroke-width:0.5" />
<g transform="rotate(90)">
<text x="152.55" y="11.555" transform="scale(1, -1)"
	style="font-family:Times;font-weight:normal;font-style:normal;font-size:12px">Number of trials (1000000 total)</text>
</g>
<text x="24.055" y="-112.88" transform="scale(1, -1)"
	style="font-family:Times;font-weight:normal;font-style:normal;font-size:10px">40000</text>
<text x="19.055" y="-254.75" transform="scale(1, -1)"
	style="font-family:Times;font-weight:normal;font-style:normal;font-size:10px">120000</text>
<text x="19.055" y="-396.62" transform="scale(1, -1)"
	style="font-family:Times;font-weight:normal;font-style:normal;font-size:10px">200000</text>
<path d="M51.555,116.08L59.555,116.08" style="fill:none;stroke:#000000;stroke-width:0.5" />
<path d="M51.555,257.95L59.555,257.95" style="fill:none;stroke:#000000;stroke-width:0.5" />
<path d="M51.555,399.82L59.555,399.82" style="fill:none;stroke:#000000;stroke-width:0.5" />
<path d="M55.555,187.02L59.555,187.02" style="fill:none;stroke:#000000;stroke-width:0.5" />
<path d="M55.555,328.89L59.555,328.89" style="fill:none;stroke:#000000;stroke-width:0.5" />
<path d="M59.555,45.151L59.555,416.58" style="fill:none;stroke:#000000;stroke-width:0.5" />
<path d="M65.305,416.58L92.077,48.549L96.944,48.538L98.161,59L100.59,55.359L103.03,59.413L104.25,69.452L105.46,68.996L106.68,94.908L107.9,59.399L109.11,48.411L110.33,63.655L111.55,48.599L112.76,58.863L113.98,87.925L115.2,73.126L116.41,81L117.63,76.928L118.85,59.069L120.07,48.721L121.28,48.562L123.72,45.19L124.93,48.886L126.15,58.994L127.37,73.699L129.8,62.885L131.02,52.169L132.23,45.451L133.45,56.421L134.67,48.996L135.89,46.029L137.1,68.526L138.32,47.01L139.54,80.134L140.75,79.292L141.97,65.935L143.19,47.983L144.4,49.296L145.62,50.97L146.84,54.704L148.05,50.998L149.27,51.587L150.49,49.789L151.7,55.816L152.92,52.153L154.14,60.906L155.36,67.084L156.57,55.868L157.79,55.559L159.01,58.515L160.22,51.778L161.44,50.847L162.66,55.456L163.87,69.831L165.09,54.362L166.31,56.51L167.52,55.472L168.74,56.136L169.96,51.828L171.18,51.475L172.39,52.041L173.61,49.425L174.83,53.415L176.04,54.039L177.26,53.266L178.48,58.906L179.69,56.703L180.91,57.189L182.13,57.487L183.34,52.729L184.56,51.055L185.78,52.195L187,51.876L188.21,55.128L189.43,56.515L190.65,55.878L191.86,56.348L193.08,54.419L194.3,52.255L195.51,52.115L196.73,51.332L197.95,50.051L199.16,51.447L200.38,50.737L201.6,54.231L202.82,54.185L204.03,54.501L205.25,54.476L206.47,52.135L207.68,51.759L208.9,51.704L210.12,49.601L211.33,51.612L212.55,52.286L213.77,52.02L214.98,53.589L216.2,53.772L217.42,51.894L218.63,49.932L219.85,50.154L221.07,50.035L222.29,49.384L223.5,49.977L224.72,49.821L225.94,50.785L227.15,50.287L228.37,51.172L229.59,51.718L230.8,51.52L232.02,50.681L233.24,49.906L234.45,49.581L235.67,49.916L236.89,49.014L238.11,50.711L239.32,50.812L240.54,50.221L241.76,49.354L242.97,49.611L244.19,49.606L245.41,49.005L246.62,48.517L247.84,48.489L249.06,48.602L250.27,48.975L251.49,48.82L252.71,49.517L253.93,49.814L255.14,49.157L256.36,49.198L257.58,48.977L258.79,48.152L260.01,48.012L261.23,48.085L262.44,48.122L263.66,48.207L264.88,48.434L266.09,48.237L267.31,48.459L268.53,48.139L269.74,47.959L270.96,47.826L272.18,47.54L273.4,47.565L274.61,47.542L275.83,47.595L277.05,47.992L278.26,47.859L279.48,48.079L280.7,47.889L281.91,47.466L283.13,47.496L284.35,47.193L285.56,47.23L286.78,47.162L288,47.443L289.22,47.326L290.43,47.207L291.65,47.294L292.87,47.079L294.08,46.918L295.3,46.886L296.52,46.806L297.73,46.827L298.95,46.696L300.17,46.753L301.38,46.739L302.6,46.813L303.82,46.811L305.04,46.818L306.25,46.801L307.47,46.645L308.69,46.565L309.9,46.499L311.12,46.361L312.34,46.419L313.55,46.432L314.77,46.471L315.99,46.426L317.2,46.384L318.42,46.347L319.64,46.35L320.85,46.269L322.07,46.081L323.29,46.091L324.51,46.16L325.72,46.217L326.94,46.178L328.16,46.183L329.37,46.253L330.59,46.033L331.81,46.104L333.02,46.127L334.24,46.024L335.46,45.909L336.67,45.917L337.89,45.946L339.11,45.99L340.33,45.944L341.54,45.884L342.76,45.916L343.98,45.912L345.19,45.85L346.41,45.816L347.63,45.809L348.84,45.765L350.06,45.799L351.28,45.804L352.49,45.699L353.71,45.772L354.93,45.745L356.15,45.733L357.36,45.706L358.58,45.696L359.8,45.666L361.01,45.62L362.23,45.57L363.45,45.659L364.66,45.609L365.88,45.579L367.1,45.588L368.31,45.607L369.53,45.591L370.75,45.581L371.96,45.547L373.18,45.499L374.4,45.543L375.62,45.495L376.83,45.506L378.05,45.52L379.27,45.449L380.48,45.494L381.7,45.469L382.92,45.426L384.13,45.426L385.35,45.407L386.57,45.419L387.78,45.401L389,45.426L390.22,45.41L391.44,45.448L392.65,45.387L393.87,45.378L395.09,45.382L396.3,45.325L397.52,45.343L398.74,45.362L399.95,45.354L401.17,45.313L402.39,45.336L403.6,45.307L404.82,45.309L406.04,45.3L407.26,45.352L408.47,45.293L409.69,45.32L410.91,45.316L412.12,45.288L413.34,45.267L414.56,45.276L415.77,45.272L416.99,45.297L418.21,45.274L419.42,45.281L420.64,45.277L421.86,45.258L423.07,45.27L424.29,45.226L425.51,45.222L426.73,45.251L427.94,45.256L429.16,45.252L430.38,45.251L431.59,45.238L432.81,45.229L434.03,45.258L435.24,45.229L436.46,45.226L437.68,45.242L438.89,45.206L440.11,45.215L441.33,45.24L442.55,45.228L443.76,45.203L444.98,45.212L446.2,45.197L447.41,45.201L448.63,45.199L449.85,45.21L451.06,45.212L452.28,45.212L453.5,45.192L454.71,45.206L455.93,45.194L457.15,45.189L458.37,45.196L459.58,45.192L460.8,45.192L462.02,45.182L463.23,45.187L464.45,45.19L465.67,45.178L466.88,45.189L468.1,45.187L469.32,45.171L470.53,45.176L471.75,45.173L472.97,45.187L474.19,45.173L475.4,45.187L476.62,45.176L477.84,45.178L479.05,45.164L480.27,45.176L481.49,45.176L482.7,45.167L483.92,45.166L485.14,45.171L486.35,45.171L487.57,45.182L488.79,45.167L490,45.173L491.22,45.178L492.44,45.173L493.66,45.16L494.87,45.16L496.09,45.166L497.31,45.171L498.52,45.18L499.74,45.16L500.96,45.16L502.17,45.164L503.39,45.157L504.61,45.162L505.82,45.162L507.04,45.158L508.26,45.167L509.48,45.16L510.69,45.16L511.91,45.162L513.13,45.157L514.34,45.164L515.56,45.166L516.78,45.16L517.99,45.16L519.21,45.164L520.43,45.157L521.64,45.157L522.86,45.153L524.08,45.155L525.3,45.155L526.51,45.153L527.73,45.157L528.95,45.151L530.16,45.157L531.38,45.155L532.6,45.157L533.81,45.153L535.03,45.157L536.25,45.153L537.46,45.158L539.9,45.16L541.11,45.153L542.33,45.151L543.55,45.157L545.98,45.151L548.42,45.151L549.63,45.158L550.85,45.151L552.07,45.153L553.28,45.153L554.5,45.153L556.93,45.155L558.15,45.151L560.59,45.151L561.8,45.153L563.02,45.151L564.24,45.153L565.45,45.153L566.67,45.153L569.1,45.155L570.32,45.153L572.75,45.151L573.97,45.151L575.19,45.151L578.84,45.151L582.49,45.151L583.71,45.151L584.92,45.153L589.79,45.153L592.22,45.151L593.44,45.153L594.66,45.153L595.88,45.151L603.18,45.151L604.39,45.151L606.83,45.153L617.78,45.151L627.52,45.151L636.03,45.151L638.47,45.151L712.7,45.151L717.57,45.151L720,45.151" style="fill:none;stroke:#0000FF" />
</g>
</svg>
