<?xml version="1.0"?>
<!-- Generated by SVGo and Plotinum VG -->
<svg width="720pt" height="432pt" viewBox="0 0 720 432"
	xmlns="http://www.w3.org/2000/svg"
	xmlns:xlink="http://www.w3.org/1999/xlink">
<g transform="scale(1, -1) translate(0, -432)">
<path d="M0,0L720,0L720,432L0,432Z" style="fill:#FFFFFF" />
<text x="358.5" y="-420.45" transform="scale(1, -1)"
	style="font-family:Times;font-weight:normal;font-style:normal;font-size:12px"> </text>
<text x="385.56" y="-3.8613" transform="scale(1, -1)"
	style="font-family:Times;font-weight:normal;font-style:normal;font-size:12px">Costs</text>
<text x="75.305" y="-18.634" transform="scale(1, -1)"
	style="font-family:Times;font-weight:normal;font-style:normal;font-size:10px">0</text>
<text x="334.04" y="-18.634" transform="scale(1, -1)"
	style="font-family:Times;font-weight:normal;font-style:normal;font-size:10px">200</text>
<text x="597.78" y="-18.634" transform="scale(1, -1)"
	style="font-family:Times;font-weight:normal;font-style:normal;font-size:10px">400</text>
<path d="M77.805,28.263L77.805,36.263" style="fill:none;stroke:#000000;stroke-width:0.5" />
<path d="M341.54,28.263L341.54,36.263" style="fill:none;stroke:#000000;stroke-width:0.5" />
<path d="M605.28,28.263L605.28,36.263" style="fill:none;stroke:#000000;stroke-width:0.5" />
<path d="M209.67,32.263L209.67,36.263" style="fill:none;stroke:#000000;stroke-width:0.5" />
<path d="M473.41,32.263L473.41,36.263" style="fill:none;stroke:#000000;stroke-width:0.5" />
<path d="M77.805,36.263L720,36.263" style="fill:none;stroke:#000000;stroke-width:0.5" />
<g transform="rotate(90)">
<text x="152.55" y="11.555" transform="scale(1, -1)"
	style="font-family:Times;font-weight:normal;font-style:normal;font-size:12px">Number of trials (1000000 total)</text>
</g>
<text x="24.055" y="-113.47" transform="scale(1, -1)"
	style="font-family:Times;font-weight:normal;font-style:normal;font-size:10px">25000.00</text>
<text x="24.055" y="-256.54" transform="scale(1, -1)"
	style="font-family:Times;font-weight:normal;font-style:normal;font-size:10px">75000.00</text>
<text x="19.055" y="-399.6" transform="scale(1, -1)"
	style="font-family:Times;font-weight:normal;font-style:normal;font-size:10px">125000.00</text>
<path d="M64.055,116.68L72.055,116.68" style="fill:none;stroke:#000000;stroke-width:0.5" />
<path d="M64.055,259.74L72.055,259.74" style="fill:none;stroke:#000000;stroke-width:0.5" />
<path d="M64.055,402.8L72.055,402.8" style="fill:none;stroke:#000000;stroke-width:0.5" />
<path d="M68.055,59.455L72.055,59.455" style="fill:none;stroke:#000000;stroke-width:0.5" />
<path d="M68.055,88.067L72.055,88.067" style="fill:none;stroke:#000000;stroke-width:0.5" />
<path d="M68.055,145.29L72.055,145.29" style="fill:none;stroke:#000000;stroke-width:0.5" />
<path d="M68.055,173.9L72.055,173.9" style="fill:none;stroke:#000000;stroke-width:0.5" />
<path d="M68.055,202.52L72.055,202.52" style="fill:none;stroke:#000000;stroke-width:0.5" />
<path d="M68.055,231.13L72.055,231.13" style="fill:none;stroke:#000000;stroke-width:0.5" />
<path d="M68.055,288.35L72.055,288.35" style="fill:none;stroke:#000000;stroke-width:0.5" />
<path d="M68.055,316.97L72.055,316.97" style="fill:none;stroke:#000000;stroke-width:0.5" />
<path d="M68.055,345.58L72.055,345.58" style="fill:none;stroke:#000000;stroke-width:0.5" />
<path d="M68.055,374.19L72.055,374.19" style="fill:none;stroke:#000000;stroke-width:0.5" />
<path d="M72.055,45.151L72.055,416.58" style="fill:none;stroke:#000000;stroke-width:0.5" />
<path d="M77.805,416.58L108.13,66.408L112.09,48.473L113.41,95.813L114.73,92.227L116.05,48.579L117.36,49.297L118.68,71.452L121.32,64.588L122.64,86.614L123.96,48.505L125.28,55.403L126.6,92.067L127.91,51.87L129.23,96.27L130.55,100.59L131.87,64.545L133.19,90.079L134.51,66.728L135.83,81.535L137.15,60.659L138.46,59.109L141.1,61.037L142.42,49.552L143.74,74.811L145.06,58.625L146.38,45.323L147.69,95.773L149.01,70.013L150.33,50.945L151.65,64.465L152.97,64.508L154.29,53.14L155.61,56.405L156.93,61.884L158.24,53.861L159.56,70.594L160.88,65.051L162.2,55.254L163.52,57.386L164.84,54.757L166.16,63.624L167.47,61.498L168.79,57.006L170.11,62.479L171.43,71.469L172.75,58.35L174.07,67.589L175.39,60.45L176.71,57L178.02,65.406L179.34,89.727L180.66,60.422L181.98,65.644L183.3,67L184.62,75.626L185.94,64.562L187.25,63.532L188.57,66.488L189.89,62.931L191.21,60.133L192.53,66.156L193.85,60.333L195.17,58.685L196.49,69.174L197.8,59.355L199.12,61.186L200.44,66.104L201.76,61.575L203.08,60.951L204.4,63.117L205.72,61.772L207.03,59.117L208.35,60.994L209.67,59.629L210.99,59.655L212.31,59.1L213.63,58.634L214.95,63.675L216.27,59.927L217.58,57.787L218.9,59.727L220.22,58.754L221.54,56.436L222.86,60.365L224.18,60.024L225.5,57.143L226.82,60.193L228.13,59.429L229.45,58.625L230.77,61.521L232.09,60.585L233.41,57.655L234.73,59.237L236.05,58.448L237.36,60.21L238.68,57.629L240,57.466L241.32,57.489L242.64,57.629L243.96,56.779L245.28,58.771L246.6,55.592L247.91,55.87L249.23,59.586L250.55,56.977L251.87,55.824L253.19,56.734L254.51,56.897L255.83,55.535L257.14,55.581L258.46,55.432L259.78,54.777L261.1,55.609L262.42,55.266L263.74,54.485L265.06,53.752L266.38,54.668L267.69,55.088L269.01,53.632L270.33,54.098L271.65,53.818L272.97,53.738L274.29,53.16L275.61,54.322L276.92,53.051L278.24,52.874L279.56,53.583L280.88,52.894L282.2,52.273L283.52,52.777L284.84,52.954L286.16,53.426L287.47,52.439L288.79,52.222L290.11,52.676L291.43,51.898L292.75,51.884L294.07,52.23L295.39,51.323L296.7,51.183L298.02,52.021L299.34,51.16L300.66,51.28L301.98,51.549L303.3,51.008L304.62,51.051L305.94,51.066L307.25,50.86L308.57,50.536L309.89,50.742L311.21,50.453L312.53,50.018L313.85,50.087L315.17,49.93L316.49,50.101L317.8,49.649L319.12,49.938L320.44,49.724L321.76,49.486L323.08,49.349L324.4,49.446L325.72,49.131L327.03,49.283L328.35,49.423L329.67,48.797L330.99,49.074L332.31,49L333.63,48.865L334.95,48.628L336.27,48.53L337.58,48.674L338.9,48.656L340.22,48.299L341.54,48.296L342.86,48.347L344.18,48.247L345.5,48.33L346.81,47.995L348.13,48.204L349.45,47.935L350.77,48.01L352.09,47.672L353.41,47.649L354.73,47.784L356.05,47.686L357.36,47.749L358.68,47.578L360,47.438L361.32,47.363L362.64,47.352L363.96,47.332L365.28,47.197L366.59,47.191L367.91,47.26L369.23,47.12L370.55,47.146L371.87,47.094L373.19,46.983L374.51,46.9L375.83,46.9L377.14,46.882L378.46,46.9L379.78,46.88L381.1,46.834L382.42,46.719L383.74,46.668L385.06,46.573L386.37,46.573L387.69,46.445L389.01,46.571L390.33,46.551L391.65,46.416L392.97,46.376L394.29,46.402L395.61,46.342L396.92,46.244L398.24,46.242L399.56,46.216L400.88,46.201L402.2,46.221L403.52,46.093L404.84,46.15L406.16,46.124L407.47,46.081L408.79,46.161L410.11,45.924L411.43,46.021L412.75,46.067L414.07,45.998L415.39,45.97L416.7,45.953L418.02,45.93L419.34,45.855L420.66,45.912L421.98,45.924L423.3,45.787L424.62,45.827L425.94,45.772L427.25,45.764L428.57,45.724L429.89,45.755L431.21,45.692L432.53,45.689L433.85,45.718L435.17,45.655L436.48,45.649L437.8,45.586L439.12,45.644L440.44,45.575L441.76,45.635L443.08,45.558L444.4,45.552L445.72,45.549L447.03,45.538L448.35,45.523L449.67,45.581L450.99,45.586L452.31,45.503L453.63,45.466L454.95,45.483L456.26,45.44L457.58,45.423L458.9,45.412L460.22,45.458L461.54,45.455L462.86,45.4L464.18,45.386L465.5,45.377L466.81,45.463L468.13,45.437L469.45,45.42L470.77,45.355L472.09,45.383L473.41,45.4L474.73,45.352L476.04,45.326L477.36,45.309L478.68,45.352L480,45.334L481.32,45.314L482.64,45.366L483.96,45.343L485.28,45.297L486.59,45.292L487.91,45.277L489.23,45.289L490.55,45.329L491.87,45.317L493.19,45.309L494.51,45.26L495.83,45.303L497.14,45.277L498.46,45.303L499.78,45.272L501.1,45.246L502.42,45.274L503.74,45.26L505.06,45.234L506.37,45.257L507.69,45.249L509.01,45.223L510.33,45.211L511.65,45.229L512.97,45.249L514.29,45.226L515.61,45.214L516.92,45.234L518.24,45.217L519.56,45.226L520.88,45.223L522.2,45.246L523.52,45.211L524.84,45.194L526.15,45.206L527.47,45.197L528.79,45.214L530.11,45.197L531.43,45.191L532.75,45.189L534.07,45.183L535.39,45.186L536.7,45.183L538.02,45.194L539.34,45.194L540.66,45.183L541.98,45.18L543.3,45.18L544.62,45.174L545.93,45.191L547.25,45.186L548.57,45.174L549.89,45.189L551.21,45.191L552.53,45.191L553.85,45.177L555.17,45.174L556.48,45.194L557.8,45.177L559.12,45.177L560.44,45.16L561.76,45.174L563.08,45.177L564.4,45.169L565.71,45.183L567.03,45.157L568.35,45.163L569.67,45.186L570.99,45.166L572.31,45.177L573.63,45.174L574.95,45.166L576.26,45.16L577.58,45.166L578.9,45.163L580.22,45.174L581.54,45.174L582.86,45.163L584.18,45.151L585.5,45.166L586.81,45.174L588.13,45.169L589.45,45.166L590.77,45.163L592.09,45.163L593.41,45.166L594.73,45.151L597.36,45.157L598.68,45.151L600,45.157L601.32,45.16L602.64,45.151L603.96,45.166L606.59,45.154L607.91,45.163L609.23,45.154L611.87,45.151L613.19,45.151L614.51,45.157L618.46,45.151L619.78,45.163L621.1,45.154L623.74,45.154L625.06,45.16L626.37,45.154L629.01,45.154L630.33,45.154L631.65,45.154L632.97,45.151L634.29,45.154L638.24,45.151L640.88,45.151L646.15,45.151L651.43,45.151L655.38,45.151L658.02,45.151L659.34,45.151L660.66,45.151L661.98,45.151L663.3,45.151L665.93,45.151L669.89,45.151L671.21,45.151L700.22,45.151L704.18,45.154L709.45,45.151L720,45.151" style="fill:none;stroke:#0000FF" />
</g>
</svg>
