<?xml version="1.0"?>
<!-- Generated by SVGo and Plotinum VG -->
<svg width="720pt" height="432pt" viewBox="0 0 720 432"
	xmlns="http://www.w3.org/2000/svg"
	xmlns:xlink="http://www.w3.org/1999/xlink">
<g transform="scale(1, -1) translate(0, -432)">
<path d="M0,0L720,0L720,432L0,432Z" style="fill:#FFFFFF" />
<text x="358.5" y="-420.45" transform="scale(1, -1)"
	style="font-family:Times;font-weight:normal;font-style:normal;font-size:12px"> </text>
<text x="379.31" y="-3.8613" transform="scale(1, -1)"
	style="font-family:Times;font-weight:normal;font-style:normal;font-size:12px">Costs</text>
<text x="62.805" y="-18.634" transform="scale(1, -1)"
	style="font-family:Times;font-weight:normal;font-style:normal;font-size:10px">0</text>
<text x="321.79" y="-18.634" transform="scale(1, -1)"
	style="font-family:Times;font-weight:normal;font-style:normal;font-size:10px">200</text>
<text x="585.78" y="-18.634" transform="scale(1, -1)"
	style="font-family:Times;font-weight:normal;font-style:normal;font-size:10px">400</text>
<path d="M65.305,28.263L65.305,36.263" style="fill:none;stroke:#000000;stroke-width:0.5" />
<path d="M329.29,28.263L329.29,36.263" style="fill:none;stroke:#000000;stroke-width:0.5" />
<path d="M593.28,28.263L593.28,36.263" style="fill:none;stroke:#000000;stroke-width:0.5" />
<path d="M197.3,32.263L197.3,36.263" style="fill:none;stroke:#000000;stroke-width:0.5" />
<path d="M461.29,32.263L461.29,36.263" style="fill:none;stroke:#000000;stroke-width:0.5" />
<path d="M65.305,36.263L720,36.263" style="fill:none;stroke:#000000;stroke-width:0.5" />
<g transform="rotate(90)">
<text x="152.55" y="11.555" transform="scale(1, -1)"
	style="font-family:Times;font-weight:normal;font-style:normal;font-size:12px">Number of trials (1000000 total)</text>
</g>
<text x="24.055" y="-109.82" transform="scale(1, -1)"
	style="font-family:Times;font-weight:normal;font-style:normal;font-size:10px">30000</text>
<text x="24.055" y="-245.56" transform="scale(1, -1)"
	style="font-family:Times;font-weight:normal;font-style:normal;font-size:10px">90000</text>
<text x="19.055" y="-381.3" transform="scale(1, -1)"
	style="font-family:Times;font-weight:normal;font-style:normal;font-size:10px">150000</text>
<path d="M51.555,113.02L59.555,113.02" style="fill:none;stroke:#000000;stroke-width:0.5" />
<path d="M51.555,248.76L59.555,248.76" style="fill:none;stroke:#000000;stroke-width:0.5" />
<path d="M51.555,384.51L59.555,384.51" style="fill:none;stroke:#000000;stroke-width:0.5" />
<path d="M55.555,180.89L59.555,180.89" style="fill:none;stroke:#000000;stroke-width:0.5" />
<path d="M55.555,316.64L59.555,316.64" style="fill:none;stroke:#000000;stroke-width:0.5" />
<path d="M59.555,45.151L59.555,416.58" style="fill:none;stroke:#000000;stroke-width:0.5" />
<path d="M65.305,416.58L95.664,52.147L99.623,51.954L100.94,48.536L103.58,72.327L104.9,55.502L106.22,55.651L107.54,52.018L108.86,59.337L110.18,89.306L111.5,85.682L112.82,55.737L115.46,73.196L116.78,62.094L118.1,92.51L119.42,79.601L120.74,62.943L122.06,52.115L123.38,73.909L124.7,59.124L126.02,48.396L129.98,87.309L131.3,51.877L132.62,48.638L133.94,45.647L135.26,62.8L136.58,62.875L137.9,45.792L139.22,79.397L140.54,88.752L141.86,46.131L143.18,67.214L144.5,73.71L145.82,61.669L147.14,57.889L148.46,49.658L149.78,50.647L151.1,49.484L152.42,48.556L153.74,77.82L155.06,51.531L156.38,54.855L157.7,52.882L159.02,58.635L160.34,53.009L161.66,55.699L162.98,64.079L164.3,57.742L165.62,54.662L166.94,51.995L168.26,57.307L169.58,58.056L170.9,81.899L172.22,63.21L173.54,55.129L174.86,58.59L176.18,57.99L177.5,55.658L178.82,54.748L180.14,55.31L181.46,56.151L182.78,59.151L184.1,59.604L185.42,60.857L186.74,56.676L188.06,57.88L189.38,60.656L190.7,59.199L192.02,58.357L193.34,60.346L194.66,59.3L195.98,56.036L197.3,58.71L198.62,60.088L199.94,57.547L201.26,55.031L202.58,52.228L203.9,56.694L205.22,56.628L206.54,53.961L207.86,54.371L209.18,57.138L210.5,56.558L211.82,55.454L213.14,52.855L214.46,57.162L215.78,56.122L217.1,56.886L218.42,59.472L219.74,54.615L221.06,55.036L222.38,54.85L223.7,56.018L225.02,56.341L226.34,53.16L227.66,54.753L228.98,56.273L230.3,52.696L231.62,52.798L232.94,53.407L234.26,53.142L235.58,55.045L236.9,53.932L238.22,53.325L239.54,51.943L240.86,53.133L242.18,53.798L243.5,52.443L244.82,54.196L246.14,55.196L247.46,52.801L248.78,53.142L250.1,53.877L251.42,53.839L252.74,52.253L254.06,51.629L255.38,51.144L256.7,51.497L258.02,51.273L259.34,53.095L260.66,51.948L261.98,51.269L263.3,51.758L264.62,51.887L265.94,51.321L267.26,51.174L268.58,52.061L269.9,51.31L271.22,50.896L272.54,50.832L273.86,51.056L275.18,50.821L276.5,50.445L277.82,51.002L279.14,50.484L280.46,50.158L281.78,50.217L283.1,50.169L284.42,50.083L285.74,50.025L287.06,49.825L288.38,50.016L289.7,50.203L291.02,49.819L292.34,49.721L293.66,49.683L294.98,49.617L296.3,49.574L297.62,49.402L298.94,49.445L300.26,49.407L301.58,49.092L302.9,49.439L304.22,49.174L305.54,49.07L306.86,48.905L308.18,48.45L309.5,48.724L310.82,48.776L312.14,48.626L313.46,48.425L314.78,48.344L316.1,48.398L317.42,48.38L318.74,48.226L320.06,48.242L321.38,48.158L322.69,48.086L324.01,48.237L325.33,48.154L326.65,48.009L327.97,47.821L329.29,47.862L330.61,47.807L331.93,47.692L333.25,47.651L334.57,47.724L335.89,47.454L337.21,47.531L338.53,47.373L339.85,47.396L341.17,47.285L342.49,47.303L343.81,47.276L345.13,47.246L346.45,47.108L347.77,47.129L349.09,47.074L350.41,47.102L351.73,46.968L353.05,47.099L354.37,46.991L355.69,46.9L357.01,46.948L358.33,46.794L359.65,46.764L360.97,46.708L362.29,46.703L363.61,46.764L364.93,46.742L366.25,46.574L367.57,46.529L368.89,46.552L370.21,46.574L371.53,46.416L372.85,46.409L374.17,46.396L375.49,46.375L376.81,46.28L378.13,46.33L379.45,46.294L380.77,46.319L382.09,46.221L383.41,46.294L384.73,46.165L386.05,46.219L387.37,46.145L388.69,46.111L390.01,46.108L391.33,45.998L392.65,46.034L393.97,46.086L395.29,45.973L396.61,45.984L397.93,45.97L399.25,45.986L400.57,45.948L401.89,45.866L403.21,45.916L404.53,45.961L405.85,45.88L407.17,45.871L408.49,45.801L409.81,45.787L411.13,45.794L412.45,45.758L413.77,45.76L415.09,45.764L416.41,45.731L417.73,45.706L419.05,45.685L420.37,45.629L421.69,45.672L423.01,45.636L424.33,45.676L425.65,45.642L426.97,45.602L428.29,45.615L429.61,45.518L430.93,45.597L432.25,45.488L433.57,45.577L434.89,45.561L436.21,45.516L437.53,45.554L438.85,45.525L440.17,45.439L441.49,45.488L442.81,45.486L444.13,45.518L445.45,45.418L446.77,45.414L448.09,45.441L449.41,45.461L450.73,45.457L452.05,45.47L453.37,45.43L454.69,45.427L456.01,45.38L457.33,45.427L458.65,45.405L459.97,45.369L461.29,45.366L462.61,45.414L463.93,45.38L465.25,45.405L466.57,45.366L467.89,45.353L469.21,45.366L470.53,45.375L471.85,45.317L473.17,45.314L474.49,45.298L475.81,45.317L477.13,45.321L478.45,45.298L479.77,45.305L481.09,45.287L482.41,45.276L483.73,45.271L485.05,45.292L486.37,45.264L487.69,45.287L489.01,45.278L490.33,45.244L491.65,45.271L492.97,45.289L494.29,45.242L495.61,45.258L496.93,45.26L498.25,45.24L499.57,45.242L500.89,45.24L502.21,45.222L503.53,45.224L504.85,45.233L506.17,45.233L507.49,45.24L508.81,45.194L510.13,45.206L511.45,45.222L512.77,45.228L514.09,45.224L515.41,45.199L516.73,45.206L518.05,45.203L519.37,45.215L520.69,45.206L522.01,45.206L523.33,45.199L524.65,45.219L525.97,45.203L527.29,45.199L528.61,45.208L529.93,45.192L531.25,45.181L532.57,45.188L533.89,45.183L535.21,45.183L536.53,45.194L537.85,45.19L539.17,45.174L540.49,45.192L541.81,45.179L543.13,45.183L544.45,45.181L545.77,45.176L547.09,45.174L548.41,45.194L549.73,45.188L551.05,45.156L552.37,45.176L553.69,45.181L555.01,45.183L556.33,45.169L557.65,45.172L558.97,45.188L560.29,45.172L561.61,45.167L562.93,45.163L564.25,45.167L565.57,45.181L566.89,45.167L568.21,45.167L569.53,45.163L570.85,45.169L572.17,45.163L573.49,45.165L574.81,45.163L576.13,45.167L577.45,45.163L578.77,45.156L580.09,45.16L581.41,45.16L582.73,45.16L584.05,45.169L585.37,45.154L586.69,45.169L588,45.154L589.32,45.158L591.96,45.156L593.28,45.156L594.6,45.163L595.92,45.151L597.24,45.16L598.56,45.158L601.2,45.151L602.52,45.163L603.84,45.151L605.16,45.154L606.48,45.154L607.8,45.151L609.12,45.154L611.76,45.158L613.08,45.154L614.4,45.151L615.72,45.154L618.36,45.156L619.68,45.158L621,45.154L622.32,45.151L623.64,45.154L624.96,45.154L626.28,45.156L628.92,45.154L630.24,45.154L631.56,45.154L634.2,45.151L635.52,45.151L636.84,45.154L640.8,45.151L642.12,45.151L643.44,45.156L646.08,45.151L647.4,45.154L650.04,45.151L652.68,45.154L655.32,45.151L659.28,45.151L660.6,45.154L661.92,45.151L663.24,45.151L668.52,45.151L671.16,45.151L672.48,45.151L673.8,45.151L675.12,45.151L681.72,45.151L683.04,45.151L689.64,45.151L692.28,45.154L704.16,45.151L720,45.154" style="fill:none;stroke:#0000FF" />
</g>
</svg>
