<?xml version="1.0"?>
<!-- Generated by SVGo and Plotinum VG -->
<svg width="720pt" height="432pt" viewBox="0 0 720 432"
	xmlns="http://www.w3.org/2000/svg"
	xmlns:xlink="http://www.w3.org/1999/xlink">
<g transform="scale(1, -1) translate(0, -432)">
<path d="M0,0L720,0L720,432L0,432Z" style="fill:#FFFFFF" />
<text x="358.5" y="-420.45" transform="scale(1, -1)"
	style="font-family:Times;font-weight:normal;font-style:normal;font-size:12px"> </text>
<text x="379.31" y="-3.8613" transform="scale(1, -1)"
	style="font-family:Times;font-weight:normal;font-style:normal;font-size:12px">Costs</text>
<text x="56.555" y="-18.634" transform="scale(1, -1)"
	style="font-family:Times;font-weight:normal;font-style:normal;font-size:10px">0.00</text>
<text x="348.07" y="-18.634" transform="scale(1, -1)"
	style="font-family:Times;font-weight:normal;font-style:normal;font-size:10px">250.00</text>
<text x="644.58" y="-18.634" transform="scale(1, -1)"
	style="font-family:Times;font-weight:normal;font-style:normal;font-size:10px">500.00</text>
<path d="M65.305,28.263L65.305,36.263" style="fill:none;stroke:#000000;stroke-width:0.5" />
<path d="M361.82,28.263L361.82,36.263" style="fill:none;stroke:#000000;stroke-width:0.5" />
<path d="M658.33,28.263L658.33,36.263" style="fill:none;stroke:#000000;stroke-width:0.5" />
<path d="M124.61,32.263L124.61,36.263" style="fill:none;stroke:#000000;stroke-width:0.5" />
<path d="M183.91,32.263L183.91,36.263" style="fill:none;stroke:#000000;stroke-width:0.5" />
<path d="M243.21,32.263L243.21,36.263" style="fill:none;stroke:#000000;stroke-width:0.5" />
<path d="M302.51,32.263L302.51,36.263" style="fill:none;stroke:#000000;stroke-width:0.5" />
<path d="M421.12,32.263L421.12,36.263" style="fill:none;stroke:#000000;stroke-width:0.5" />
<path d="M480.42,32.263L480.42,36.263" style="fill:none;stroke:#000000;stroke-width:0.5" />
<path d="M539.72,32.263L539.72,36.263" style="fill:none;stroke:#000000;stroke-width:0.5" />
<path d="M599.02,32.263L599.02,36.263" style="fill:none;stroke:#000000;stroke-width:0.5" />
<path d="M717.63,32.263L717.63,36.263" style="fill:none;stroke:#000000;stroke-width:0.5" />
<path d="M65.305,36.263L720,36.263" style="fill:none;stroke:#000000;stroke-width:0.5" />
<g transform="rotate(90)">
<text x="152.55" y="11.555" transform="scale(1, -1)"
	style="font-family:Times;font-weight:normal;font-style:normal;font-size:12px">Number of trials (1000000 total)</text>
</g>
<text x="24.055" y="-90.183" transform="scale(1, -1)"
	style="font-family:Times;font-weight:normal;font-style:normal;font-size:10px">20000</text>
<text x="24.055" y="-234.9" transform="scale(1, -1)"
	style="font-family:Times;font-weight:normal;font-style:normal;font-size:10px">80000</text>
<text x="19.055" y="-379.62" transform="scale(1, -1)"
	style="font-family:Times;font-weight:normal;font-style:normal;font-size:10px">140000</text>
<path d="M51.555,93.389L59.555,93.389" style="fill:none;stroke:#000000;stroke-width:0.5" />
<path d="M51.555,238.11L59.555,238.11" style="fill:none;stroke:#000000;stroke-width:0.5" />
<path d="M51.555,382.83L59.555,382.83" style="fill:none;stroke:#000000;stroke-width:0.5" />
<path d="M55.555,165.75L59.555,165.75" style="fill:none;stroke:#000000;stroke-width:0.5" />
<path d="M55.555,310.47L59.555,310.47" style="fill:none;stroke:#000000;stroke-width:0.5" />
<path d="M59.555,45.151L59.555,416.58" style="fill:none;stroke:#000000;stroke-width:0.5" />
<path d="M65.305,416.58L92.584,48.41L96.142,48.598L97.328,55.272L98.514,80.195L100.89,58.958L102.07,62.672L103.26,55.67L104.44,59.36L105.63,98.678L106.82,59.032L108,69.809L109.19,70.171L110.37,56.056L111.56,82.996L112.75,55.33L113.93,62.93L115.12,76.876L116.3,58.902L117.49,62.52L118.68,55.54L119.86,59.281L123.42,55.754L124.61,69.52L125.79,59.742L128.16,104.93L129.35,73.943L130.54,46.222L131.72,71.047L132.91,56.743L134.1,60.957L135.28,65.248L136.47,50.861L137.65,77.33L138.84,69.139L140.03,48.67L141.21,51.355L142.4,51.644L143.58,50.634L144.77,68.097L145.96,51.941L147.14,53.502L148.33,55.981L149.51,60.786L150.7,54.056L151.89,71.43L153.07,56.365L154.26,54.22L155.44,56.854L156.63,64.857L157.82,56.377L159,55.185L160.19,70.147L161.37,63.697L162.56,54.85L163.75,56.09L164.93,60.074L166.12,56.895L167.3,56.386L168.49,64.16L169.68,59.5L170.86,60.154L172.05,61.444L173.23,56.888L174.42,62.371L175.61,60.226L176.79,56.468L177.98,65.292L179.16,59.016L180.35,57.443L181.54,58.557L182.72,56.929L183.91,56.987L185.09,57.785L186.28,54.594L187.47,58.651L188.65,57.785L189.84,55.012L191.03,57.607L192.21,59.961L193.4,55.395L194.58,57.17L195.77,56.794L196.96,58.121L198.14,59.006L199.33,55.135L200.51,58.892L201.7,59.344L202.89,54.92L204.07,55.943L205.26,55.041L206.44,55.028L207.63,56.343L208.82,54.495L210,54.204L211.19,56.051L212.37,54.782L213.56,53.263L214.75,56.382L215.93,54.616L217.12,53.434L218.3,54.618L219.49,55.4L220.68,54.423L221.86,53.687L223.05,55.412L224.23,55.542L225.42,53.521L226.61,53.398L227.79,53.393L228.98,53.61L230.16,53.417L231.35,53.4L232.54,53.709L233.72,53.415L234.91,52.961L236.09,52.718L237.28,52.74L238.47,52.559L239.65,52.809L240.84,53.277L242.02,52.67L243.21,52.479L244.4,52.51L245.58,51.695L246.77,52.115L247.96,52.532L249.14,51.133L250.33,51.623L251.51,52.392L252.7,51.372L253.89,51.087L255.07,51.538L256.26,51.136L257.44,51.232L258.63,50.955L259.82,50.959L261,51.138L262.19,50.964L263.37,50.723L264.56,50.841L265.75,50.699L266.93,50.482L268.12,50.496L269.3,50.388L270.49,50.294L271.68,50.096L272.86,49.983L274.05,50.168L275.23,49.749L276.42,49.652L277.61,49.609L278.79,49.442L279.98,49.295L281.16,49.392L282.35,49.252L283.54,49.353L284.72,49.097L285.91,49.15L287.09,49.114L288.28,49.1L289.47,48.796L290.65,48.806L291.84,48.856L293.02,48.642L294.21,48.552L295.4,48.516L296.58,48.362L297.77,48.429L298.96,48.379L300.14,48.306L301.33,48.258L302.51,48.42L303.7,48.263L304.89,48.166L306.07,48.108L307.26,48.099L308.44,47.858L309.63,47.826L310.82,47.841L312,47.751L313.19,47.795L314.37,47.778L315.56,47.638L316.75,47.561L317.93,47.484L319.12,47.578L320.3,47.421L321.49,47.245L322.68,47.255L323.86,47.505L325.05,47.226L326.23,47.351L327.42,47.107L328.61,47.107L329.79,47.144L330.98,47.04L332.16,46.917L333.35,46.972L334.54,46.905L335.72,46.91L336.91,46.9L338.09,46.729L339.28,46.731L340.47,46.731L341.65,46.678L342.84,46.661L344.02,46.596L345.21,46.56L346.4,46.541L347.58,46.521L348.77,46.463L349.95,46.447L351.14,46.406L352.33,46.42L353.51,46.369L354.7,46.234L355.89,46.357L357.07,46.348L358.26,46.244L359.44,46.184L360.63,46.239L361.82,46.104L363,46.099L364.19,46.114L365.37,46.087L366.56,46.114L367.75,46.051L368.93,45.967L370.12,46.053L371.3,45.943L372.49,46.046L373.68,45.998L374.86,45.967L376.05,45.94L377.23,45.923L378.42,45.851L379.61,45.897L380.79,45.737L381.98,45.901L383.16,45.747L384.35,45.856L385.54,45.822L386.72,45.793L387.91,45.725L389.09,45.771L390.28,45.682L391.47,45.718L392.65,45.658L393.84,45.716L395.02,45.672L396.21,45.622L397.4,45.564L398.58,45.607L399.77,45.605L400.95,45.66L402.14,45.602L403.33,45.576L404.51,45.523L405.7,45.566L406.88,45.561L408.07,45.545L409.26,45.549L410.44,45.554L411.63,45.525L412.82,45.532L414,45.52L415.19,45.455L416.37,45.475L417.56,45.472L418.75,45.453L419.93,45.426L421.12,45.419L422.3,45.438L423.49,45.455L424.68,45.393L425.86,45.419L427.05,45.422L428.23,45.383L429.42,45.381L430.61,45.349L431.79,45.371L432.98,45.383L434.16,45.393L435.35,45.376L436.54,45.306L437.72,45.306L438.91,45.34L440.09,45.385L441.28,45.311L442.47,45.332L443.65,45.298L444.84,45.332L446.02,45.335L447.21,45.303L448.4,45.342L449.58,45.294L450.77,45.282L451.95,45.296L453.14,45.272L454.33,45.272L455.51,45.255L456.7,45.25L457.88,45.267L459.07,45.274L460.26,45.294L461.44,45.245L462.63,45.279L463.81,45.219L465,45.25L466.19,45.238L467.37,45.241L468.56,45.221L469.75,45.231L470.93,45.245L472.12,45.233L473.3,45.219L474.49,45.231L475.68,45.212L476.86,45.255L478.05,45.226L479.23,45.26L480.42,45.216L481.61,45.209L482.79,45.195L483.98,45.226L485.16,45.221L486.35,45.212L487.54,45.202L488.72,45.212L489.91,45.209L491.09,45.221L492.28,45.221L493.47,45.197L494.65,45.204L495.84,45.2L497.02,45.175L498.21,45.202L499.4,45.2L500.58,45.195L501.77,45.188L502.95,45.195L504.14,45.175L505.33,45.168L506.51,45.18L507.7,45.175L508.88,45.173L510.07,45.166L511.26,45.173L512.44,45.173L513.63,45.173L514.81,45.173L516,45.185L517.19,45.183L518.37,45.183L519.56,45.168L520.74,45.178L521.93,45.171L523.12,45.168L524.3,45.168L525.49,45.175L526.68,45.18L527.86,45.175L529.05,45.159L530.23,45.173L531.42,45.159L532.61,45.161L533.79,45.171L534.98,45.173L536.16,45.156L537.35,45.163L538.54,45.166L539.72,45.18L540.91,45.173L542.09,45.161L543.28,45.166L544.47,45.161L545.65,45.159L546.84,45.161L548.02,45.166L549.21,45.154L550.4,45.159L551.58,45.151L552.77,45.154L553.95,45.159L555.14,45.166L556.33,45.159L557.51,45.159L558.7,45.159L559.88,45.159L561.07,45.156L562.26,45.159L563.44,45.159L564.63,45.156L565.81,45.161L567,45.154L568.19,45.159L569.37,45.159L570.56,45.154L571.74,45.154L572.93,45.151L574.12,45.156L575.3,45.156L577.67,45.154L578.86,45.151L581.23,45.156L582.42,45.151L583.61,45.154L584.79,45.151L588.35,45.151L589.54,45.159L590.72,45.151L591.91,45.156L594.28,45.151L595.47,45.151L596.65,45.151L597.84,45.154L599.02,45.156L600.21,45.151L601.4,45.151L602.58,45.151L606.14,45.154L607.33,45.151L609.7,45.151L610.88,45.154L612.07,45.151L614.44,45.151L616.81,45.156L621.56,45.151L622.74,45.151L623.93,45.154L627.49,45.154L628.67,45.151L629.86,45.151L631.05,45.151L633.42,45.151L635.79,45.151L640.54,45.154L642.91,45.151L645.28,45.151L653.58,45.151L658.33,45.151L663.07,45.151L670.19,45.151L673.74,45.151L720,45.151" style="fill:none;stroke:#0000FF" />
</g>
</svg>
