<?xml version="1.0"?>
<!-- Generated by SVGo and Plotinum VG -->
<svg width="720pt" height="432pt" viewBox="0 0 720 432"
	xmlns="http://www.w3.org/2000/svg"
	xmlns:xlink="http://www.w3.org/1999/xlink">
<g transform="scale(1, -1) translate(0, -432)">
<path d="M0,0L720,0L720,432L0,432Z" style="fill:#FFFFFF" />
<text x="358.5" y="-420.45" transform="scale(1, -1)"
	style="font-family:Times;font-weight:normal;font-style:normal;font-size:12px"> </text>
<text x="376.81" y="-3.8613" transform="scale(1, -1)"
	style="font-family:Times;font-weight:normal;font-style:normal;font-size:12px">Costs</text>
<text x="57.805" y="-18.634" transform="scale(1, -1)"
	style="font-family:Times;font-weight:normal;font-style:normal;font-size:10px">0</text>
<text x="319.89" y="-18.634" transform="scale(1, -1)"
	style="font-family:Times;font-weight:normal;font-style:normal;font-size:10px">200</text>
<text x="586.97" y="-18.634" transform="scale(1, -1)"
	style="font-family:Times;font-weight:normal;font-style:normal;font-size:10px">400</text>
<path d="M60.305,28.263L60.305,36.263" style="fill:none;stroke:#000000;stroke-width:0.5" />
<path d="M327.39,28.263L327.39,36.263" style="fill:none;stroke:#000000;stroke-width:0.5" />
<path d="M594.47,28.263L594.47,36.263" style="fill:none;stroke:#000000;stroke-width:0.5" />
<path d="M193.85,32.263L193.85,36.263" style="fill:none;stroke:#000000;stroke-width:0.5" />
<path d="M460.93,32.263L460.93,36.263" style="fill:none;stroke:#000000;stroke-width:0.5" />
<path d="M60.305,36.263L720,36.263" style="fill:none;stroke:#000000;stroke-width:0.5" />
<g transform="rotate(90)">
<text x="152.55" y="11.555" transform="scale(1, -1)"
	style="font-family:Times;font-weight:normal;font-style:normal;font-size:12px">Number of trials (1000000 total)</text>
</g>
<text x="19.055" y="-124.67" transform="scale(1, -1)"
	style="font-family:Times;font-weight:normal;font-style:normal;font-size:10px">20000</text>
<text x="19.055" y="-207.4" transform="scale(1, -1)"
	style="font-family:Times;font-weight:normal;font-style:normal;font-size:10px">40000</text>
<text x="19.055" y="-290.13" transform="scale(1, -1)"
	style="font-family:Times;font-weight:normal;font-style:normal;font-size:10px">60000</text>
<text x="19.055" y="-372.85" transform="scale(1, -1)"
	style="font-family:Times;font-weight:normal;font-style:normal;font-size:10px">80000</text>
<path d="M46.555,127.88L54.555,127.88" style="fill:none;stroke:#000000;stroke-width:0.5" />
<path d="M46.555,210.6L54.555,210.6" style="fill:none;stroke:#000000;stroke-width:0.5" />
<path d="M46.555,293.33L54.555,293.33" style="fill:none;stroke:#000000;stroke-width:0.5" />
<path d="M46.555,376.06L54.555,376.06" style="fill:none;stroke:#000000;stroke-width:0.5" />
<path d="M50.555,86.511L54.555,86.511" style="fill:none;stroke:#000000;stroke-width:0.5" />
<path d="M50.555,169.24L54.555,169.24" style="fill:none;stroke:#000000;stroke-width:0.5" />
<path d="M50.555,251.97L54.555,251.97" style="fill:none;stroke:#000000;stroke-width:0.5" />
<path d="M50.555,334.7L54.555,334.7" style="fill:none;stroke:#000000;stroke-width:0.5" />
<path d="M54.555,45.151L54.555,416.58" style="fill:none;stroke:#000000;stroke-width:0.5" />
<path d="M60.305,416.58L91.019,52.402L95.025,66.264L96.361,71.211L99.032,57.577L101.7,106.75L103.04,137.61L104.37,51.84L105.71,85.605L107.04,57.205L108.38,57.685L111.05,57.275L112.39,55.815L113.72,48.671L115.06,133.61L116.39,99.16L117.73,82.015L119.06,123.74L121.73,82.098L125.74,70.16L127.08,70.292L128.41,56.874L129.75,45.714L131.08,110.61L132.42,127.34L133.75,59.836L135.09,46.082L136.42,49.573L137.76,54.793L139.09,52.436L140.43,61.966L141.77,90.503L143.1,65.238L144.44,98.788L145.77,55.571L147.11,55.588L148.44,58.421L149.78,58.04L151.11,59.012L152.45,55.269L153.78,60.708L155.12,56.58L156.45,64.559L157.79,81.924L159.13,75.719L160.46,80.571L161.8,76.505L163.13,88.538L164.47,67.041L165.8,56.688L167.14,71.537L168.47,65.383L169.81,69.097L171.14,69.064L172.48,70.983L173.82,101.2L175.15,80.22L176.49,76.828L177.82,70.83L179.16,60.349L180.49,67.62L181.83,59.418L183.16,70.71L184.5,70.9L185.83,80.6L187.17,93.597L188.5,73.457L189.84,77.3L191.18,66.764L192.51,62.665L193.85,61.573L195.18,57.226L196.52,67.368L197.85,72.336L199.19,80.389L200.52,73.262L201.86,66.553L203.19,80.294L204.53,66.628L205.86,67.6L207.2,57.449L208.54,61.763L209.87,62.847L211.21,60.969L212.54,68.175L213.88,70.814L215.21,73.498L216.55,72.675L217.88,68.923L219.22,65.42L220.55,62.102L221.89,66.776L223.23,61.507L224.56,63.807L225.9,66.388L227.23,61.867L228.57,69.006L229.9,69.014L231.24,67.889L232.57,67.612L233.91,65.565L235.24,67.711L236.58,59.583L237.91,60.837L239.25,63.645L240.59,63.827L241.92,67.219L243.26,65.047L244.59,68.386L245.93,66.748L247.26,63.951L248.6,62.537L249.93,58.173L251.27,60.373L252.6,59.98L253.94,60.597L255.28,63.798L256.61,62.872L257.95,65.838L259.28,62.731L260.62,61.871L261.95,60.067L263.29,57.776L264.62,58.921L265.96,56.597L267.29,58.992L268.63,60.109L269.96,60.837L271.3,61.68L272.64,59.844L273.97,59.294L275.31,58.119L276.64,59.033L277.98,57.416L279.31,56.154L280.65,57.374L281.98,56.754L283.32,57.945L284.65,57.846L285.99,57.453L287.33,58.62L288.66,57.019L290,57.879L291.33,55.633L292.67,55.41L294,55.592L295.34,54.893L296.67,56.076L298.01,56.055L299.34,55.823L300.68,56.241L302.01,55.935L303.35,55.343L304.69,54.132L306.02,54.611L307.36,53.813L308.69,53.139L310.03,53.478L311.36,53.842L312.7,54.413L314.03,54.62L315.37,54.061L316.7,53.85L318.04,53.168L319.38,52.986L320.71,52.063L322.05,51.836L323.38,52.547L324.72,52.394L326.05,52.721L327.39,52.572L328.72,52.626L330.06,51.856L331.39,51.592L332.73,51.406L334.06,51.236L335.4,51.224L336.74,51.013L338.07,50.88L339.41,51.377L340.74,51.062L342.08,51.149L343.41,51.021L344.75,50.798L346.08,50.202L347.42,50.111L348.75,50.256L350.09,49.515L351.43,50.099L352.76,49.933L354.1,50.103L355.43,49.933L356.77,49.54L358.1,49.615L359.44,49.391L360.77,49.581L362.11,49.234L363.44,48.618L364.78,49.06L366.11,48.638L367.45,48.957L368.79,48.936L370.12,48.775L371.46,48.841L372.79,48.638L374.13,48.609L375.46,48.299L376.8,48.096L378.13,48.225L379.47,48.171L380.8,48.192L382.14,48.039L383.48,48.088L384.81,48.051L386.15,47.894L387.48,47.828L388.82,47.737L390.15,47.633L391.49,47.617L392.82,47.505L394.16,47.546L395.49,47.277L396.83,47.377L398.16,47.484L399.5,47.385L400.84,47.178L402.17,47.224L403.51,47.162L404.84,47.095L406.18,46.971L407.51,46.955L408.85,46.769L410.18,46.843L411.52,46.901L412.85,46.731L414.19,46.645L415.53,46.802L416.86,46.669L418.2,46.653L419.53,46.554L420.87,46.516L422.2,46.454L423.54,46.396L424.87,46.438L426.21,46.458L427.54,46.425L428.88,46.285L430.21,46.289L431.55,46.343L432.89,46.128L434.22,46.227L435.56,46.268L436.89,46.103L438.23,46.165L439.56,46.094L440.9,46.016L442.23,46.152L443.57,46.003L444.9,46.003L446.24,45.908L447.58,45.97L448.91,45.954L450.25,45.838L451.58,45.954L452.92,45.892L454.25,45.896L455.59,45.78L456.92,45.793L458.26,45.793L459.59,45.702L460.93,45.689L462.26,45.784L463.6,45.586L464.94,45.668L466.27,45.714L467.61,45.644L468.94,45.639L470.28,45.606L471.61,45.685L472.95,45.565L474.28,45.577L475.62,45.602L476.95,45.474L478.29,45.586L479.63,45.511L480.96,45.524L482.3,45.54L483.63,45.54L484.97,45.569L486.3,45.449L487.64,45.47L488.97,45.474L490.31,45.47L491.64,45.47L492.98,45.424L494.31,45.387L495.65,45.486L496.99,45.408L498.32,45.416L499.66,45.449L500.99,45.42L502.33,45.379L503.66,45.375L505,45.338L506.33,45.333L507.67,45.371L509,45.358L510.34,45.317L511.68,45.342L513.01,45.313L514.35,45.342L515.68,45.313L517.02,45.309L518.35,45.3L519.69,45.259L521.02,45.309L522.36,45.247L523.69,45.292L525.03,45.28L526.36,45.267L527.7,45.271L529.04,45.296L530.37,45.242L531.71,45.267L533.04,45.271L534.38,45.23L535.71,45.242L537.05,45.234L538.38,45.251L539.72,45.222L541.05,45.218L542.39,45.238L543.73,45.226L545.06,45.226L546.4,45.234L547.73,45.234L549.07,45.189L550.4,45.218L551.74,45.201L553.07,45.168L554.41,45.234L555.74,45.222L557.08,45.193L558.41,45.197L559.75,45.172L561.09,45.189L562.42,45.184L563.76,45.205L565.09,45.172L566.43,45.209L567.76,45.184L569.1,45.201L570.43,45.18L571.77,45.189L573.1,45.168L574.44,45.18L575.78,45.193L577.11,45.176L578.45,45.197L579.78,45.168L581.12,45.156L582.45,45.18L583.79,45.176L585.12,45.18L586.46,45.176L587.79,45.16L589.13,45.172L590.46,45.16L591.8,45.176L593.14,45.168L594.47,45.172L595.81,45.18L597.14,45.164L598.48,45.164L599.81,45.172L601.15,45.156L602.48,45.168L603.82,45.16L605.15,45.156L606.49,45.176L607.83,45.156L609.16,45.168L610.5,45.16L611.83,45.164L613.17,45.151L614.5,45.151L615.84,45.16L617.17,45.16L618.51,45.151L619.84,45.16L621.18,45.164L622.51,45.151L623.85,45.16L625.19,45.156L626.52,45.16L627.86,45.16L629.19,45.156L630.53,45.168L633.2,45.156L634.53,45.151L635.87,45.164L637.2,45.151L638.54,45.151L639.88,45.16L641.21,45.151L643.88,45.156L647.89,45.164L649.22,45.156L650.56,45.151L651.89,45.156L653.23,45.151L654.56,45.164L657.24,45.151L658.57,45.151L659.91,45.151L662.58,45.151L667.92,45.156L669.25,45.151L671.93,45.156L677.27,45.151L678.6,45.151L681.27,45.156L685.28,45.151L697.3,45.151L714.66,45.151L718.66,45.151L720,45.151" style="fill:none;stroke:#0000FF" />
</g>
</svg>
