<?xml version="1.0"?>
<!-- Generated by SVGo and Plotinum VG -->
<svg width="720pt" height="432pt" viewBox="0 0 720 432"
	xmlns="http://www.w3.org/2000/svg"
	xmlns:xlink="http://www.w3.org/1999/xlink">
<g transform="scale(1, -1) translate(0, -432)">
<path d="M0,0L720,0L720,432L0,432Z" style="fill:#FFFFFF" />
<text x="358.5" y="-420.45" transform="scale(1, -1)"
	style="font-family:Times;font-weight:normal;font-style:normal;font-size:12px"> </text>
<text x="379.31" y="-3.8613" transform="scale(1, -1)"
	style="font-family:Times;font-weight:normal;font-style:normal;font-size:12px">Costs</text>
<text x="62.805" y="-18.634" transform="scale(1, -1)"
	style="font-family:Times;font-weight:normal;font-style:normal;font-size:10px">0</text>
<text x="337.59" y="-18.634" transform="scale(1, -1)"
	style="font-family:Times;font-weight:normal;font-style:normal;font-size:10px">200</text>
<text x="617.37" y="-18.634" transform="scale(1, -1)"
	style="font-family:Times;font-weight:normal;font-style:normal;font-size:10px">400</text>
<path d="M65.305,28.263L65.305,36.263" style="fill:none;stroke:#000000;stroke-width:0.5" />
<path d="M345.09,28.263L345.09,36.263" style="fill:none;stroke:#000000;stroke-width:0.5" />
<path d="M624.87,28.263L624.87,36.263" style="fill:none;stroke:#000000;stroke-width:0.5" />
<path d="M205.2,32.263L205.2,36.263" style="fill:none;stroke:#000000;stroke-width:0.5" />
<path d="M484.98,32.263L484.98,36.263" style="fill:none;stroke:#000000;stroke-width:0.5" />
<path d="M65.305,36.263L720,36.263" style="fill:none;stroke:#000000;stroke-width:0.5" />
<g transform="rotate(90)">
<text x="152.55" y="11.555" transform="scale(1, -1)"
	style="font-family:Times;font-weight:normal;font-style:normal;font-size:12px">Number of trials (1000000 total)</text>
</g>
<text x="24.055" y="-93.137" transform="scale(1, -1)"
	style="font-family:Times;font-weight:normal;font-style:normal;font-size:10px">50000</text>
<text x="19.055" y="-246.71" transform="scale(1, -1)"
	style="font-family:Times;font-weight:normal;font-style:normal;font-size:10px">200000</text>
<text x="19.055" y="-400.29" transform="scale(1, -1)"
	style="font-family:Times;font-weight:normal;font-style:normal;font-size:10px">350000</text>
<path d="M51.555,96.342L59.555,96.342" style="fill:none;stroke:#000000;stroke-width:0.5" />
<path d="M51.555,249.92L59.555,249.92" style="fill:none;stroke:#000000;stroke-width:0.5" />
<path d="M51.555,403.5L59.555,403.5" style="fill:none;stroke:#000000;stroke-width:0.5" />
<path d="M55.555,173.13L59.555,173.13" style="fill:none;stroke:#000000;stroke-width:0.5" />
<path d="M55.555,326.71L59.555,326.71" style="fill:none;stroke:#000000;stroke-width:0.5" />
<path d="M59.555,45.151L59.555,416.58" style="fill:none;stroke:#000000;stroke-width:0.5" />
<path d="M65.305,416.58L103.08,55.557L105.87,68.014L112.87,71.151L114.27,70.937L118.46,78.005L121.26,68.313L124.06,48.602L126.86,78.363L133.85,70.264L135.25,62.387L136.65,48.725L143.64,68.547L145.04,88.252L149.24,67.825L150.64,49.355L152.04,45.92L153.44,57.043L154.84,46.545L156.23,46.054L159.03,70.624L160.43,45.363L161.83,48.066L163.23,45.364L164.63,46.351L166.03,47.575L167.43,49.581L168.82,50.11L170.22,46.51L171.62,46.096L173.02,45.834L174.42,51.389L175.82,48.631L177.22,68.29L178.62,62.761L180.02,47.967L181.42,47.607L182.81,51.421L184.21,47.781L185.61,48.374L187.01,48.114L188.41,46.828L189.81,48.155L191.21,48.168L192.61,50.021L194.01,49.017L195.4,47.432L196.8,50.762L198.2,50.988L199.6,47.854L201,48.663L202.4,48.39L203.8,47.041L205.2,48.835L206.6,51.957L207.99,46.921L209.39,46.082L210.79,47.343L212.19,49.482L213.59,48.799L214.99,50.517L216.39,46.395L217.79,48.519L219.19,47.609L220.58,47.932L221.98,46.416L223.38,48.917L224.78,47.995L226.18,47.901L227.58,49.505L228.98,49.594L230.38,48.691L231.78,47.847L233.18,47.791L234.57,46.889L235.97,46.095L237.37,47.949L238.77,50.716L240.17,47.11L241.57,45.62L242.97,46.915L244.37,46.152L245.77,47.65L247.16,49.138L248.56,47.143L249.96,45.92L251.36,45.804L252.76,46.243L254.16,46.312L255.56,47.183L256.96,49.35L258.36,47.976L259.75,46.038L261.15,47.133L262.55,47.688L263.95,46.068L265.35,46.553L266.75,46.525L268.15,46.172L269.55,45.943L270.95,47.263L272.35,46.867L273.74,45.923L275.14,46.013L276.54,46.316L277.94,46.055L279.34,46.117L280.74,46.287L282.14,46.103L283.54,45.836L284.94,46.043L286.33,46.205L287.73,46.024L289.13,45.811L290.53,47.02L291.93,45.976L293.33,45.845L294.73,46.062L296.13,45.997L297.53,45.85L298.92,45.968L300.32,46.032L301.72,45.635L303.12,45.734L304.52,45.752L305.92,45.853L307.32,46.048L308.72,46.043L310.12,45.953L311.51,45.823L312.91,45.657L314.31,45.678L315.71,45.652L317.11,45.85L318.51,45.999L319.91,45.652L321.31,45.459L322.71,45.636L324.11,45.658L325.5,45.729L326.9,45.815L328.3,45.597L329.7,45.431L331.1,45.561L332.5,45.54L333.9,45.519L335.3,45.535L336.7,45.542L338.09,45.449L339.49,45.478L340.89,45.652L342.29,45.58L343.69,45.463L345.09,45.423L346.49,45.468L347.89,45.359L349.29,45.417L350.68,45.587L352.08,45.499L353.48,45.301L354.88,45.357L356.28,45.414L357.68,45.317L359.08,45.428L360.48,45.432L361.88,45.339L363.27,45.263L364.67,45.345L366.07,45.33L367.47,45.325L368.87,45.331L370.27,45.382L371.67,45.272L373.07,45.294L374.47,45.349L375.87,45.311L377.26,45.262L378.66,45.31L380.06,45.298L381.46,45.261L382.86,45.248L384.26,45.291L385.66,45.252L387.06,45.259L388.46,45.278L389.85,45.275L391.25,45.246L392.65,45.257L394.05,45.254L395.45,45.245L396.85,45.273L398.25,45.263L399.65,45.244L401.05,45.226L402.44,45.211L403.84,45.241L405.24,45.229L406.64,45.198L408.04,45.228L409.44,45.209L410.84,45.231L412.24,45.23L413.64,45.213L415.04,45.196L416.43,45.203L417.83,45.194L419.23,45.208L420.63,45.208L422.03,45.216L423.43,45.21L424.83,45.198L426.23,45.191L427.63,45.194L429.02,45.202L430.42,45.19L431.82,45.194L433.22,45.17L434.62,45.18L436.02,45.188L437.42,45.193L438.82,45.188L440.22,45.184L441.61,45.168L443.01,45.172L444.41,45.185L445.81,45.184L447.21,45.166L448.61,45.182L450.01,45.167L451.41,45.168L452.81,45.172L454.2,45.174L455.6,45.168L457,45.166L458.4,45.169L459.8,45.17L461.2,45.168L462.6,45.165L464,45.185L465.4,45.164L466.8,45.158L468.19,45.161L469.59,45.161L470.99,45.164L472.39,45.167L473.79,45.164L475.19,45.162L476.59,45.156L477.99,45.159L479.39,45.163L480.78,45.159L482.18,45.162L483.58,45.163L484.98,45.16L486.38,45.156L487.78,45.156L489.18,45.161L490.58,45.16L491.98,45.156L493.37,45.163L494.77,45.155L496.17,45.159L497.57,45.156L498.97,45.159L500.37,45.155L501.77,45.161L503.17,45.152L504.57,45.151L505.96,45.153L507.36,45.153L508.76,45.154L510.16,45.154L511.56,45.155L512.96,45.153L514.36,45.152L515.76,45.152L517.16,45.153L518.56,45.151L519.95,45.155L521.35,45.151L522.75,45.155L524.15,45.152L525.55,45.153L526.95,45.156L528.35,45.152L529.75,45.153L531.15,45.153L533.94,45.154L535.34,45.151L536.74,45.151L538.14,45.151L539.54,45.153L540.94,45.152L542.34,45.153L543.74,45.152L545.13,45.151L547.93,45.156L549.33,45.153L552.13,45.152L554.93,45.153L561.92,45.152L563.32,45.151L566.12,45.152L567.52,45.151L568.92,45.152L570.32,45.152L580.11,45.152L585.7,45.151L587.1,45.152L589.9,45.151L601.09,45.151L605.29,45.151L608.09,45.151L612.28,45.151L616.48,45.151L708.81,45.151L720,45.151" style="fill:none;stroke:#0000FF" />
</g>
</svg>
