<?xml version="1.0"?>
<!-- Generated by SVGo and Plotinum VG -->
<svg width="720pt" height="432pt" viewBox="0 0 720 432"
	xmlns="http://www.w3.org/2000/svg"
	xmlns:xlink="http://www.w3.org/1999/xlink">
<g transform="scale(1, -1) translate(0, -432)">
<path d="M0,0L720,0L720,432L0,432Z" style="fill:#FFFFFF" />
<text x="358.5" y="-420.45" transform="scale(1, -1)"
	style="font-family:Times;font-weight:normal;font-style:normal;font-size:12px"> </text>
<text x="379.31" y="-3.8613" transform="scale(1, -1)"
	style="font-family:Times;font-weight:normal;font-style:normal;font-size:12px">Costs</text>
<text x="62.805" y="-18.634" transform="scale(1, -1)"
	style="font-family:Times;font-weight:normal;font-style:normal;font-size:10px">0</text>
<text x="222.72" y="-18.634" transform="scale(1, -1)"
	style="font-family:Times;font-weight:normal;font-style:normal;font-size:10px">100</text>
<text x="387.63" y="-18.634" transform="scale(1, -1)"
	style="font-family:Times;font-weight:normal;font-style:normal;font-size:10px">200</text>
<text x="552.54" y="-18.634" transform="scale(1, -1)"
	style="font-family:Times;font-weight:normal;font-style:normal;font-size:10px">300</text>
<path d="M65.305,28.263L65.305,36.263" style="fill:none;stroke:#000000;stroke-width:0.5" />
<path d="M230.22,28.263L230.22,36.263" style="fill:none;stroke:#000000;stroke-width:0.5" />
<path d="M395.13,28.263L395.13,36.263" style="fill:none;stroke:#000000;stroke-width:0.5" />
<path d="M560.04,28.263L560.04,36.263" style="fill:none;stroke:#000000;stroke-width:0.5" />
<path d="M98.287,32.263L98.287,36.263" style="fill:none;stroke:#000000;stroke-width:0.5" />
<path d="M131.27,32.263L131.27,36.263" style="fill:none;stroke:#000000;stroke-width:0.5" />
<path d="M164.25,32.263L164.25,36.263" style="fill:none;stroke:#000000;stroke-width:0.5" />
<path d="M197.23,32.263L197.23,36.263" style="fill:none;stroke:#000000;stroke-width:0.5" />
<path d="M263.2,32.263L263.2,36.263" style="fill:none;stroke:#000000;stroke-width:0.5" />
<path d="M296.18,32.263L296.18,36.263" style="fill:none;stroke:#000000;stroke-width:0.5" />
<path d="M329.16,32.263L329.16,36.263" style="fill:none;stroke:#000000;stroke-width:0.5" />
<path d="M362.14,32.263L362.14,36.263" style="fill:none;stroke:#000000;stroke-width:0.5" />
<path d="M428.11,32.263L428.11,36.263" style="fill:none;stroke:#000000;stroke-width:0.5" />
<path d="M461.09,32.263L461.09,36.263" style="fill:none;stroke:#000000;stroke-width:0.5" />
<path d="M494.07,32.263L494.07,36.263" style="fill:none;stroke:#000000;stroke-width:0.5" />
<path d="M527.05,32.263L527.05,36.263" style="fill:none;stroke:#000000;stroke-width:0.5" />
<path d="M593.02,32.263L593.02,36.263" style="fill:none;stroke:#000000;stroke-width:0.5" />
<path d="M626,32.263L626,36.263" style="fill:none;stroke:#000000;stroke-width:0.5" />
<path d="M658.98,32.263L658.98,36.263" style="fill:none;stroke:#000000;stroke-width:0.5" />
<path d="M691.97,32.263L691.97,36.263" style="fill:none;stroke:#000000;stroke-width:0.5" />
<path d="M65.305,36.263L720,36.263" style="fill:none;stroke:#000000;stroke-width:0.5" />
<g transform="rotate(90)">
<text x="152.55" y="11.555" transform="scale(1, -1)"
	style="font-family:Times;font-weight:normal;font-style:normal;font-size:12px">Number of trials (1000000 total)</text>
</g>
<text x="24.055" y="-92.195" transform="scale(1, -1)"
	style="font-family:Times;font-weight:normal;font-style:normal;font-size:10px">40000</text>
<text x="19.055" y="-242.95" transform="scale(1, -1)"
	style="font-family:Times;font-weight:normal;font-style:normal;font-size:10px">160000</text>
<text x="19.055" y="-393.7" transform="scale(1, -1)"
	style="font-family:Times;font-weight:normal;font-style:normal;font-size:10px">280000</text>
<path d="M51.555,95.4L59.555,95.4" style="fill:none;stroke:#000000;stroke-width:0.5" />
<path d="M51.555,246.15L59.555,246.15" style="fill:none;stroke:#000000;stroke-width:0.5" />
<path d="M51.555,396.9L59.555,396.9" style="fill:none;stroke:#000000;stroke-width:0.5" />
<path d="M55.555,170.78L59.555,170.78" style="fill:none;stroke:#000000;stroke-width:0.5" />
<path d="M55.555,321.53L59.555,321.53" style="fill:none;stroke:#000000;stroke-width:0.5" />
<path d="M59.555,45.151L59.555,416.58" style="fill:none;stroke:#000000;stroke-width:0.5" />
<path d="M65.305,416.58L103.23,59.549L108.18,59.458L109.83,77.621L113.13,64.696L116.43,64.834L118.08,63.456L119.73,55.363L121.37,71.813L123.02,64.872L124.67,48.767L127.97,48.764L129.62,62.934L131.27,48.674L132.92,115.35L134.57,52.429L136.22,88.35L137.87,59.823L141.16,48.784L146.11,45.518L147.76,85.614L149.41,48.845L151.06,45.913L152.71,60.455L154.36,61.245L156.01,50.194L157.65,47.188L159.3,46.934L160.95,48.386L162.6,47.292L164.25,67.777L165.9,49.381L167.55,71.518L169.2,51.465L170.85,49.703L172.5,48.119L174.15,50.396L175.79,50.758L177.44,53.593L179.09,49.418L180.74,53.915L182.39,48.215L184.04,51.404L185.69,53.044L187.34,57.351L188.99,53.313L190.64,52.774L192.29,53.744L193.94,48.817L195.58,49.418L197.23,58.02L198.88,49.86L200.53,55.341L202.18,50.646L203.83,55.798L205.48,53.194L207.13,49.258L208.78,51.002L210.43,48.769L212.08,52.077L213.72,46.952L215.37,53.841L217.02,49.092L218.67,52.071L220.32,53.296L221.97,50.497L223.62,50.506L225.27,49.811L226.92,47.272L228.57,47.566L230.22,47.855L231.86,51.547L233.51,47.379L235.16,54.328L236.81,50.289L238.46,49.693L240.11,48.739L241.76,48.114L243.41,47.795L245.06,47.854L246.71,48.597L248.36,47.784L250,49.125L251.65,48.631L253.3,48.433L254.95,49.542L256.6,48.588L258.25,48.335L259.9,47.783L261.55,47.129L263.2,47.232L264.85,48.315L266.5,48.066L268.14,48.43L269.79,48.132L271.44,47.411L273.09,47.176L274.74,47.195L276.39,47.517L278.04,46.785L279.69,48.09L281.34,46.606L282.99,47.031L284.64,47.007L286.28,47.477L287.93,47.261L289.58,47.175L291.23,47.085L292.88,46.747L294.53,46.55L296.18,46.718L297.83,46.337L299.48,47.096L301.13,46.381L302.78,46.986L304.43,46.524L306.07,46.577L307.72,46.659L309.37,46.31L311.02,46.336L312.67,46.111L314.32,46.277L315.97,45.928L317.62,46.303L319.27,46.37L320.92,46.222L322.57,46.393L324.21,46.184L325.86,46.097L327.51,45.998L329.16,45.836L330.81,45.821L332.46,45.899L334.11,45.983L335.76,45.888L337.41,46.041L339.06,45.934L340.71,45.823L342.35,45.768L344,45.753L345.65,45.65L347.3,45.749L348.95,45.7L350.6,45.708L352.25,45.742L353.9,45.674L355.55,45.704L357.2,45.682L358.85,45.617L360.49,45.56L362.14,45.577L363.79,45.589L365.44,45.455L367.09,45.656L368.74,45.501L370.39,45.546L372.04,45.556L373.69,45.459L375.34,45.494L376.99,45.442L378.63,45.483L380.28,45.414L381.93,45.462L383.58,45.404L385.23,45.403L386.88,45.457L388.53,45.413L390.18,45.416L391.83,45.383L393.48,45.361L395.13,45.361L396.78,45.308L398.42,45.366L400.07,45.322L401.72,45.342L403.37,45.318L405.02,45.332L406.67,45.327L408.32,45.328L409.97,45.312L411.62,45.283L413.27,45.293L414.92,45.287L416.56,45.269L418.21,45.264L419.86,45.261L421.51,45.281L423.16,45.269L424.81,45.263L426.46,45.261L428.11,45.252L429.76,45.253L431.41,45.236L433.06,45.238L434.7,45.247L436.35,45.247L438,45.239L439.65,45.234L441.3,45.222L442.95,45.214L444.6,45.214L446.25,45.214L447.9,45.198L449.55,45.212L451.2,45.209L452.84,45.204L454.49,45.205L456.14,45.214L457.79,45.19L459.44,45.193L461.09,45.187L462.74,45.187L464.39,45.189L466.04,45.19L467.69,45.182L469.34,45.192L470.98,45.176L472.63,45.182L474.28,45.189L475.93,45.188L477.58,45.18L479.23,45.174L480.88,45.166L482.53,45.175L484.18,45.179L485.83,45.17L487.48,45.17L489.13,45.166L490.77,45.171L492.42,45.169L494.07,45.17L495.72,45.166L497.37,45.163L499.02,45.163L500.67,45.165L502.32,45.16L503.97,45.166L505.62,45.165L507.27,45.156L508.91,45.16L510.56,45.161L512.21,45.166L513.86,45.159L515.51,45.161L517.16,45.161L518.81,45.156L520.46,45.166L522.11,45.156L523.76,45.156L525.41,45.156L527.05,45.16L528.7,45.154L530.35,45.155L532,45.155L533.65,45.153L535.3,45.158L536.95,45.156L538.6,45.153L540.25,45.159L541.9,45.151L543.55,45.153L545.19,45.156L546.84,45.156L548.49,45.153L550.14,45.151L551.79,45.151L553.44,45.158L555.09,45.151L556.74,45.153L558.39,45.153L561.69,45.151L563.33,45.155L564.98,45.151L566.63,45.151L568.28,45.151L569.93,45.155L571.58,45.153L574.88,45.151L576.53,45.154L578.18,45.151L583.12,45.158L586.42,45.151L588.07,45.151L591.37,45.151L593.02,45.151L596.32,45.153L599.62,45.151L602.91,45.151L604.56,45.154L606.21,45.151L612.81,45.153L634.25,45.151L640.84,45.151L645.79,45.151L658.98,45.151L680.42,45.151L720,45.151" style="fill:none;stroke:#0000FF" />
</g>
</svg>
