<?xml version="1.0"?>
<!-- Generated by SVGo and Plotinum VG -->
<svg width="720pt" height="432pt" viewBox="0 0 720 432"
	xmlns="http://www.w3.org/2000/svg"
	xmlns:xlink="http://www.w3.org/1999/xlink">
<g transform="scale(1, -1) translate(0, -432)">
<path d="M0,0L720,0L720,432L0,432Z" style="fill:#FFFFFF" />
<text x="358.5" y="-420.45" transform="scale(1, -1)"
	style="font-family:Times;font-weight:normal;font-style:normal;font-size:12px"> </text>
<text x="385.56" y="-3.8613" transform="scale(1, -1)"
	style="font-family:Times;font-weight:normal;font-style:normal;font-size:12px">Costs</text>
<text x="69.055" y="-18.634" transform="scale(1, -1)"
	style="font-family:Times;font-weight:normal;font-style:normal;font-size:10px">0.00</text>
<text x="372.21" y="-18.634" transform="scale(1, -1)"
	style="font-family:Times;font-weight:normal;font-style:normal;font-size:10px">250.00</text>
<text x="680.36" y="-18.634" transform="scale(1, -1)"
	style="font-family:Times;font-weight:normal;font-style:normal;font-size:10px">500.00</text>
<path d="M77.805,28.263L77.805,36.263" style="fill:none;stroke:#000000;stroke-width:0.5" />
<path d="M385.96,28.263L385.96,36.263" style="fill:none;stroke:#000000;stroke-width:0.5" />
<path d="M694.11,28.263L694.11,36.263" style="fill:none;stroke:#000000;stroke-width:0.5" />
<path d="M139.44,32.263L139.44,36.263" style="fill:none;stroke:#000000;stroke-width:0.5" />
<path d="M201.07,32.263L201.07,36.263" style="fill:none;stroke:#000000;stroke-width:0.5" />
<path d="M262.7,32.263L262.7,36.263" style="fill:none;stroke:#000000;stroke-width:0.5" />
<path d="M324.33,32.263L324.33,36.263" style="fill:none;stroke:#000000;stroke-width:0.5" />
<path d="M447.59,32.263L447.59,36.263" style="fill:none;stroke:#000000;stroke-width:0.5" />
<path d="M509.22,32.263L509.22,36.263" style="fill:none;stroke:#000000;stroke-width:0.5" />
<path d="M570.85,32.263L570.85,36.263" style="fill:none;stroke:#000000;stroke-width:0.5" />
<path d="M632.48,32.263L632.48,36.263" style="fill:none;stroke:#000000;stroke-width:0.5" />
<path d="M77.805,36.263L720,36.263" style="fill:none;stroke:#000000;stroke-width:0.5" />
<g transform="rotate(90)">
<text x="152.55" y="11.555" transform="scale(1, -1)"
	style="font-family:Times;font-weight:normal;font-style:normal;font-size:12px">Number of trials (1000000 total)</text>
</g>
<text x="24.055" y="-112.87" transform="scale(1, -1)"
	style="font-family:Times;font-weight:normal;font-style:normal;font-size:10px">25000.00</text>
<text x="24.055" y="-254.73" transform="scale(1, -1)"
	style="font-family:Times;font-weight:normal;font-style:normal;font-size:10px">75000.00</text>
<text x="19.055" y="-396.59" transform="scale(1, -1)"
	style="font-family:Times;font-weight:normal;font-style:normal;font-size:10px">125000.00</text>
<path d="M64.055,116.08L72.055,116.08" style="fill:none;stroke:#000000;stroke-width:0.5" />
<path d="M64.055,257.94L72.055,257.94" style="fill:none;stroke:#000000;stroke-width:0.5" />
<path d="M64.055,399.79L72.055,399.79" style="fill:none;stroke:#000000;stroke-width:0.5" />
<path d="M68.055,59.334L72.055,59.334" style="fill:none;stroke:#000000;stroke-width:0.5" />
<path d="M68.055,87.706L72.055,87.706" style="fill:none;stroke:#000000;stroke-width:0.5" />
<path d="M68.055,144.45L72.055,144.45" style="fill:none;stroke:#000000;stroke-width:0.5" />
<path d="M68.055,172.82L72.055,172.82" style="fill:none;stroke:#000000;stroke-width:0.5" />
<path d="M68.055,201.19L72.055,201.19" style="fill:none;stroke:#000000;stroke-width:0.5" />
<path d="M68.055,229.56L72.055,229.56" style="fill:none;stroke:#000000;stroke-width:0.5" />
<path d="M68.055,286.31L72.055,286.31" style="fill:none;stroke:#000000;stroke-width:0.5" />
<path d="M68.055,314.68L72.055,314.68" style="fill:none;stroke:#000000;stroke-width:0.5" />
<path d="M68.055,343.05L72.055,343.05" style="fill:none;stroke:#000000;stroke-width:0.5" />
<path d="M68.055,371.42L72.055,371.42" style="fill:none;stroke:#000000;stroke-width:0.5" />
<path d="M72.055,45.151L72.055,416.58" style="fill:none;stroke:#000000;stroke-width:0.5" />
<path d="M77.805,416.58L106.15,69.971L107.39,67.505L111.09,85.496L112.32,71.032L113.55,48.641L114.78,48.536L116.02,52.244L117.25,64.855L118.48,52.139L119.71,55.334L120.95,107.16L122.18,60.5L123.41,48.547L124.64,66.416L125.88,59.794L127.11,71.381L128.34,76.054L129.57,52.647L130.81,48.82L132.04,146.62L133.27,63.99L134.51,48.97L135.74,46.553L136.97,58.733L138.2,95.488L139.44,51.197L140.67,68.884L141.9,46.698L143.13,78.596L144.37,62.486L145.6,49.345L146.83,66.495L148.06,61.678L149.3,54.505L150.53,71.645L151.76,48.403L152.99,112.94L154.23,59.717L155.46,61.51L156.69,50.803L157.93,51.498L159.16,51.004L160.39,60.095L161.62,59.442L162.86,52.188L164.09,50.661L165.32,85.135L166.55,62.021L167.79,65.539L169.02,68.68L170.25,56.304L171.48,66.555L172.72,61.513L173.95,55.124L175.18,68.093L176.41,62.032L177.65,65.343L178.88,57.78L180.11,59.649L181.34,71.259L182.58,67.278L183.81,58.934L185.04,55.022L186.28,70.876L187.51,67.451L188.74,56.809L189.97,57.238L191.21,59.34L192.44,68.178L193.67,61.891L194.9,60.974L196.14,61.806L197.37,66.972L198.6,61.3L199.83,58.236L201.07,62.186L202.3,61.777L203.53,63.579L204.76,61.255L206,55.198L207.23,70.626L208.46,62.364L209.7,58.648L210.93,57.05L212.16,59.116L213.39,62.64L214.63,56.764L215.86,62.83L217.09,54.599L218.32,58.801L219.56,63.437L220.79,57.78L222.02,59.102L223.25,59.357L224.49,55.765L225.72,62.245L226.95,55.728L228.18,58.236L229.42,56.707L230.65,58.398L231.88,57.876L233.11,54.225L234.35,56.457L235.58,57.309L236.81,56.659L238.05,57.371L239.28,53.532L240.51,60.577L241.74,57.059L242.98,56.855L244.21,57.351L245.44,54.344L246.67,56.622L247.91,56.157L249.14,53.949L250.37,55.442L251.6,54.965L252.84,56.103L254.07,54.006L255.3,54.423L256.53,55.938L257.77,55.175L259,54.923L260.23,53.05L261.47,54.256L262.7,54.951L263.93,53.643L265.16,53.626L266.4,53.399L267.63,53.904L268.86,53.825L270.09,53.887L271.33,52.023L272.56,53.842L273.79,53.223L275.02,52.627L276.26,52.437L277.49,52.485L278.72,52.23L279.95,52.554L281.19,51.796L282.42,52.145L283.65,51.941L284.88,52.037L286.12,51.62L287.35,51.132L288.58,51.538L289.82,50.888L291.05,51.226L292.28,51.044L293.51,50.409L294.75,51.623L295.98,50.548L297.21,50.777L298.44,50.871L299.68,50.131L300.91,50.61L302.14,49.938L303.37,50.227L304.61,49.765L305.84,50.065L307.07,50.224L308.3,49.35L309.54,49.753L310.77,49.844L312,49.24L313.24,49.975L314.47,48.899L315.7,49.447L316.93,49.35L318.17,48.982L319.4,49.129L320.63,48.706L321.86,48.692L323.1,48.871L324.33,48.692L325.56,48.738L326.79,48.315L328.03,48.536L329.26,48.167L330.49,48.335L331.72,48.596L332.96,48.176L334.19,48.156L335.42,48.023L336.66,47.994L337.89,48.122L339.12,47.895L340.35,47.73L341.59,47.733L342.82,47.645L344.05,47.549L345.28,47.588L346.52,47.376L347.75,47.404L348.98,47.398L350.21,47.254L351.45,47.228L352.68,47.398L353.91,47.194L355.14,47.152L356.38,47.12L357.61,47.174L358.84,46.936L360.07,46.891L361.31,46.976L362.54,46.723L363.77,46.893L365.01,46.78L366.24,46.76L367.47,46.839L368.7,46.564L369.94,46.681L371.17,46.544L372.4,46.513L373.63,46.539L374.87,46.422L376.1,46.422L377.33,46.573L378.56,46.519L379.8,46.369L381.03,46.266L382.26,46.388L383.49,46.332L384.73,46.181L385.96,46.224L387.19,46.099L388.43,46.105L389.66,46.17L390.89,46.068L392.12,46.107L393.36,46.045L394.59,46.122L395.82,46.022L397.05,45.994L398.29,45.932L399.52,45.951L400.75,45.951L401.98,45.946L403.22,45.841L404.45,45.906L405.68,45.903L406.91,45.846L408.15,45.858L409.38,45.73L410.61,45.827L411.84,45.846L413.08,45.756L414.31,45.722L415.54,45.75L416.78,45.619L418.01,45.648L419.24,45.617L420.47,45.602L421.71,45.656L422.94,45.594L424.17,45.557L425.4,45.588L426.64,45.54L427.87,45.563L429.1,45.6L430.33,45.56L431.57,45.546L432.8,45.574L434.03,45.506L435.26,45.486L436.5,45.534L437.73,45.5L438.96,45.5L440.2,45.441L441.43,45.415L442.66,45.469L443.89,45.395L445.13,45.424L446.36,45.429L447.59,45.395L448.82,45.401L450.06,45.33L451.29,45.418L452.52,45.367L453.75,45.358L454.99,45.367L456.22,45.381L457.45,45.31L458.68,45.322L459.92,45.316L461.15,45.364L462.38,45.307L463.61,45.336L464.85,45.324L466.08,45.29L467.31,45.33L468.55,45.322L469.78,45.236L471.01,45.251L472.24,45.293L473.48,45.271L474.71,45.288L475.94,45.271L477.17,45.282L478.41,45.271L479.64,45.256L480.87,45.254L482.1,45.285L483.34,45.268L484.57,45.225L485.8,45.231L487.03,45.236L488.27,45.214L489.5,45.259L490.73,45.236L491.97,45.222L493.2,45.211L494.43,45.242L495.66,45.219L496.9,45.205L498.13,45.239L499.36,45.236L500.59,45.214L501.83,45.219L503.06,45.214L504.29,45.211L505.52,45.219L506.76,45.219L507.99,45.205L509.22,45.202L510.45,45.202L511.69,45.185L512.92,45.194L514.15,45.211L515.38,45.197L516.62,45.188L517.85,45.177L519.08,45.191L520.32,45.18L521.55,45.183L522.78,45.174L524.01,45.197L525.25,45.166L526.48,45.154L527.71,45.188L528.94,45.183L530.18,45.168L531.41,45.18L532.64,45.183L533.87,45.174L535.11,45.168L536.34,45.151L537.57,45.168L538.8,45.166L540.04,45.163L541.27,45.163L542.5,45.166L543.74,45.16L544.97,45.166L546.2,45.16L547.43,45.171L548.67,45.174L549.9,45.151L551.13,45.166L552.36,45.154L553.6,45.157L554.83,45.157L556.06,45.166L557.29,45.168L558.53,45.163L559.76,45.168L560.99,45.157L562.22,45.154L563.46,45.16L564.69,45.163L565.92,45.157L567.16,45.151L568.39,45.166L569.62,45.16L570.85,45.166L572.09,45.154L573.32,45.154L574.55,45.157L575.78,45.163L577.02,45.151L578.25,45.154L579.48,45.16L580.71,45.157L584.41,45.151L585.64,45.154L586.88,45.151L588.11,45.16L589.34,45.154L590.57,45.151L591.81,45.154L594.27,45.154L595.51,45.157L596.74,45.154L597.97,45.151L599.2,45.151L600.44,45.151L602.9,45.154L605.37,45.154L607.83,45.151L609.06,45.151L612.76,45.157L613.99,45.151L615.23,45.154L617.69,45.151L618.93,45.151L622.62,45.151L625.09,45.151L628.79,45.151L634.95,45.157L647.28,45.151L648.51,45.151L649.74,45.151L650.97,45.151L683.02,45.151L720,45.151" style="fill:none;stroke:#0000FF" />
</g>
</svg>
