<?xml version="1.0"?>
<!-- Generated by SVGo and Plotinum VG -->
<svg width="720pt" height="432pt" viewBox="0 0 720 432"
	xmlns="http://www.w3.org/2000/svg"
	xmlns:xlink="http://www.w3.org/1999/xlink">
<g transform="scale(1, -1) translate(0, -432)">
<path d="M0,0L720,0L720,432L0,432Z" style="fill:#FFFFFF" />
<text x="358.5" y="-420.45" transform="scale(1, -1)"
	style="font-family:Times;font-weight:normal;font-style:normal;font-size:12px"> </text>
<text x="385.56" y="-3.8613" transform="scale(1, -1)"
	style="font-family:Times;font-weight:normal;font-style:normal;font-size:12px">Costs</text>
<text x="69.055" y="-18.634" transform="scale(1, -1)"
	style="font-family:Times;font-weight:normal;font-style:normal;font-size:10px">0.00</text>
<text x="368.12" y="-18.634" transform="scale(1, -1)"
	style="font-family:Times;font-weight:normal;font-style:normal;font-size:10px">250.00</text>
<text x="672.19" y="-18.634" transform="scale(1, -1)"
	style="font-family:Times;font-weight:normal;font-style:normal;font-size:10px">500.00</text>
<path d="M77.805,28.263L77.805,36.263" style="fill:none;stroke:#000000;stroke-width:0.5" />
<path d="M381.87,28.263L381.87,36.263" style="fill:none;stroke:#000000;stroke-width:0.5" />
<path d="M685.94,28.263L685.94,36.263" style="fill:none;stroke:#000000;stroke-width:0.5" />
<path d="M138.62,32.263L138.62,36.263" style="fill:none;stroke:#000000;stroke-width:0.5" />
<path d="M199.43,32.263L199.43,36.263" style="fill:none;stroke:#000000;stroke-width:0.5" />
<path d="M260.25,32.263L260.25,36.263" style="fill:none;stroke:#000000;stroke-width:0.5" />
<path d="M321.06,32.263L321.06,36.263" style="fill:none;stroke:#000000;stroke-width:0.5" />
<path d="M442.69,32.263L442.69,36.263" style="fill:none;stroke:#000000;stroke-width:0.5" />
<path d="M503.5,32.263L503.5,36.263" style="fill:none;stroke:#000000;stroke-width:0.5" />
<path d="M564.32,32.263L564.32,36.263" style="fill:none;stroke:#000000;stroke-width:0.5" />
<path d="M625.13,32.263L625.13,36.263" style="fill:none;stroke:#000000;stroke-width:0.5" />
<path d="M77.805,36.263L720,36.263" style="fill:none;stroke:#000000;stroke-width:0.5" />
<g transform="rotate(90)">
<text x="152.55" y="11.555" transform="scale(1, -1)"
	style="font-family:Times;font-weight:normal;font-style:normal;font-size:12px">Number of trials (1000000 total)</text>
</g>
<text x="24.055" y="-113.73" transform="scale(1, -1)"
	style="font-family:Times;font-weight:normal;font-style:normal;font-size:10px">25000.00</text>
<text x="24.055" y="-257.32" transform="scale(1, -1)"
	style="font-family:Times;font-weight:normal;font-style:normal;font-size:10px">75000.00</text>
<text x="19.055" y="-400.9" transform="scale(1, -1)"
	style="font-family:Times;font-weight:normal;font-style:normal;font-size:10px">125000.00</text>
<path d="M64.055,116.94L72.055,116.94" style="fill:none;stroke:#000000;stroke-width:0.5" />
<path d="M64.055,260.52L72.055,260.52" style="fill:none;stroke:#000000;stroke-width:0.5" />
<path d="M64.055,404.11L72.055,404.11" style="fill:none;stroke:#000000;stroke-width:0.5" />
<path d="M68.055,59.507L72.055,59.507" style="fill:none;stroke:#000000;stroke-width:0.5" />
<path d="M68.055,88.223L72.055,88.223" style="fill:none;stroke:#000000;stroke-width:0.5" />
<path d="M68.055,145.66L72.055,145.66" style="fill:none;stroke:#000000;stroke-width:0.5" />
<path d="M68.055,174.37L72.055,174.37" style="fill:none;stroke:#000000;stroke-width:0.5" />
<path d="M68.055,203.09L72.055,203.09" style="fill:none;stroke:#000000;stroke-width:0.5" />
<path d="M68.055,231.81L72.055,231.81" style="fill:none;stroke:#000000;stroke-width:0.5" />
<path d="M68.055,289.24L72.055,289.24" style="fill:none;stroke:#000000;stroke-width:0.5" />
<path d="M68.055,317.96L72.055,317.96" style="fill:none;stroke:#000000;stroke-width:0.5" />
<path d="M68.055,346.67L72.055,346.67" style="fill:none;stroke:#000000;stroke-width:0.5" />
<path d="M68.055,375.39L72.055,375.39" style="fill:none;stroke:#000000;stroke-width:0.5" />
<path d="M72.055,45.151L72.055,416.58" style="fill:none;stroke:#000000;stroke-width:0.5" />
<path d="M77.805,416.58L107,58.881L110.64,62.08L111.86,73.17L113.08,51.911L115.51,65.919L116.73,59.484L117.94,95.664L119.16,84.72L120.37,62.416L121.59,62.657L122.81,63.114L124.02,58.597L125.24,76.616L126.46,51.917L127.67,66.514L128.89,80.286L130.1,79.637L131.32,77.291L132.54,58.347L133.75,66.275L136.19,59.047L137.4,77.61L138.62,69.845L139.83,60.601L141.05,46.26L142.27,85.068L143.48,62.758L144.7,54.26L145.92,67.901L147.13,61.727L148.35,47.581L149.57,66.14L150.78,67.875L152,62.117L153.21,65.319L154.43,50.03L155.65,50.872L156.86,52.302L158.08,53.672L159.3,74.618L160.51,53.594L161.73,54.636L162.94,57.209L164.16,66.12L165.38,57.362L166.59,71.496L167.81,59.963L169.03,59.266L170.24,60.822L171.46,78.181L172.67,60.406L173.89,58.097L175.11,59.524L176.32,79.927L177.54,61.454L178.76,62.838L179.97,62.898L181.19,61.284L182.4,62.565L183.62,65.638L184.84,63.099L186.05,61.609L187.27,61.985L188.49,60.503L189.7,63.363L190.92,62.717L192.13,61.962L193.35,64.15L194.57,59.627L195.78,59.024L197,60.193L198.22,61.103L199.43,59.599L200.65,60.44L201.87,59.992L203.08,59.165L204.3,60.805L205.51,61.382L206.73,60.417L207.95,57.408L209.16,58.826L210.38,60.635L211.6,62.361L212.81,58.47L214.03,58.841L215.24,59.165L216.46,58.806L217.68,60.813L218.89,60.767L220.11,58.206L221.33,57.459L222.54,58.065L223.76,59.803L224.97,58.171L226.19,57.712L227.41,59.022L228.62,58.436L229.84,56.403L231.06,59.487L232.27,58.924L233.49,56.368L234.7,56.983L235.92,58.645L237.14,56.908L238.35,56.983L239.57,56.833L240.79,57.942L242,56.026L243.22,56.095L244.43,56.638L245.65,56.411L246.87,55.257L248.08,56.368L249.3,55.326L250.52,55.153L251.73,55.779L252.95,55.88L254.17,54.579L255.38,54.203L256.6,54.464L257.81,56.003L259.03,54.16L260.25,54.7L261.46,53.973L262.68,54.289L263.9,53.832L265.11,55.001L266.33,54.094L267.54,53.462L268.76,53.62L269.98,53.95L271.19,53.511L272.41,53.517L273.63,52.98L274.84,52.721L276.06,52.859L277.27,53.252L278.49,53.224L279.71,52.675L280.92,52.454L282.14,52.408L283.36,52.56L284.57,52.354L285.79,51.957L287,52.173L288.22,51.796L289.44,51.518L290.65,51.934L291.87,51.9L293.09,51.469L294.3,51.185L295.52,51.328L296.73,51.093L297.95,50.961L299.17,51.205L300.38,51.067L301.6,50.803L302.82,50.676L304.03,50.737L305.25,50.475L306.47,50.338L307.68,50.122L308.9,50.148L310.11,50.226L311.33,49.947L312.55,50.05L313.76,49.812L314.98,49.508L316.2,49.62L317.41,49.72L318.63,49.534L319.84,49.493L321.06,49.252L322.28,49.223L323.49,49.35L324.71,49.353L325.93,49.206L327.14,48.856L328.36,48.936L329.57,49.114L330.79,48.712L332.01,48.738L333.22,48.741L334.44,48.818L335.66,48.534L336.87,48.474L338.09,48.557L339.3,48.391L340.52,48.227L341.74,48.316L342.95,48.152L344.17,48.224L345.39,48.227L346.6,48.132L347.82,47.73L349.03,47.788L350.25,47.765L351.47,47.77L352.68,47.667L353.9,47.696L355.12,47.541L356.33,47.526L357.55,47.538L358.77,47.297L359.98,47.42L361.2,47.253L362.41,47.104L363.63,47.268L364.85,47.271L366.06,47.236L367.28,46.998L368.5,47.093L369.71,47.006L370.93,47.113L372.14,47.067L373.36,46.851L374.58,46.777L375.79,46.788L377.01,46.926L378.23,46.728L379.44,46.719L380.66,46.625L381.87,46.685L383.09,46.693L384.31,46.501L385.52,46.538L386.74,46.507L387.96,46.481L389.17,46.28L390.39,46.538L391.6,46.438L392.82,46.378L394.04,46.263L395.25,46.306L396.47,46.312L397.69,46.225L398.9,46.314L400.12,46.194L401.33,46.24L402.55,46.168L403.77,46.217L404.98,46.154L406.2,46.171L407.42,46.013L408.63,46.019L409.85,46.03L411.07,46.036L412.28,45.97L413.5,45.895L414.71,45.912L415.93,45.973L417.15,45.895L418.36,45.987L419.58,45.843L420.8,45.783L422.01,45.858L423.23,45.795L424.44,45.752L425.66,45.869L426.88,45.789L428.09,45.823L429.31,45.685L430.53,45.688L431.74,45.714L432.96,45.737L434.17,45.685L435.39,45.651L436.61,45.691L437.82,45.617L439.04,45.637L440.26,45.663L441.47,45.571L442.69,45.545L443.9,45.594L445.12,45.602L446.34,45.548L447.55,45.516L448.77,45.539L449.99,45.525L451.2,45.507L452.42,45.528L453.63,45.493L454.85,45.49L456.07,45.51L457.28,45.482L458.5,45.447L459.72,45.401L460.93,45.444L462.15,45.436L463.37,45.476L464.58,45.387L465.8,45.43L467.01,45.418L468.23,45.439L469.45,45.407L470.66,45.341L471.88,45.407L473.1,45.358L474.31,45.398L475.53,45.37L476.74,45.338L477.96,45.358L479.18,45.347L480.39,45.318L481.61,45.327L482.83,45.338L484.04,45.298L485.26,45.332L486.47,45.292L487.69,45.347L488.91,45.344L490.12,45.306L491.34,45.278L492.56,45.269L493.77,45.286L494.99,45.289L496.2,45.258L497.42,45.269L498.64,45.281L499.85,45.246L501.07,45.278L502.29,45.24L503.5,45.275L504.72,45.258L505.93,45.263L507.15,45.246L508.37,45.263L509.58,45.249L510.8,45.229L512.02,45.238L513.23,45.223L514.45,45.235L515.67,45.24L516.88,45.215L518.1,45.229L519.31,45.235L520.53,45.215L521.75,45.235L522.96,45.22L524.18,45.209L525.4,45.226L526.61,45.217L527.83,45.212L529.04,45.206L530.26,45.206L531.48,45.22L532.69,45.18L533.91,45.197L535.13,45.194L536.34,45.212L537.56,45.197L538.77,45.192L539.99,45.174L541.21,45.194L542.42,45.186L543.64,45.171L544.86,45.186L546.07,45.197L547.29,45.192L548.5,45.177L549.72,45.192L550.94,45.183L552.15,45.177L553.37,45.174L554.59,45.169L555.8,45.171L557.02,45.186L558.23,45.169L559.45,45.166L560.67,45.169L561.88,45.177L563.1,45.189L564.32,45.183L565.53,45.171L566.75,45.166L567.97,45.169L569.18,45.177L570.4,45.18L571.61,45.16L572.83,45.169L574.05,45.174L575.26,45.166L576.48,45.163L577.7,45.154L578.91,45.157L580.13,45.171L581.34,45.163L582.56,45.157L583.78,45.16L584.99,45.16L586.21,45.16L587.43,45.163L588.64,45.154L589.86,45.16L592.29,45.16L593.51,45.154L594.72,45.157L595.94,45.157L597.16,45.16L598.37,45.154L599.59,45.163L600.8,45.151L602.02,45.157L603.24,45.157L604.45,45.157L605.67,45.151L606.89,45.16L608.1,45.151L609.32,45.154L610.53,45.154L611.75,45.154L612.97,45.151L614.18,45.157L615.4,45.151L616.62,45.151L617.83,45.154L619.05,45.157L620.27,45.154L622.7,45.151L623.91,45.151L625.13,45.151L627.56,45.154L628.78,45.154L630,45.154L631.21,45.154L632.43,45.151L633.64,45.157L634.86,45.151L636.08,45.154L637.29,45.151L638.51,45.151L640.94,45.151L644.59,45.154L645.81,45.151L648.24,45.151L649.46,45.151L651.89,45.154L654.32,45.151L657.97,45.151L660.4,45.151L661.62,45.154L662.83,45.151L664.05,45.151L668.92,45.151L671.35,45.151L672.57,45.151L701.76,45.151L712.7,45.151L720,45.151" style="fill:none;stroke:#0000FF" />
</g>
</svg>
