<?xml version="1.0"?>
<!-- Generated by SVGo and Plotinum VG -->
<svg width="720pt" height="432pt" viewBox="0 0 720 432"
	xmlns="http://www.w3.org/2000/svg"
	xmlns:xlink="http://www.w3.org/1999/xlink">
<g transform="scale(1, -1) translate(0, -432)">
<path d="M0,0L720,0L720,432L0,432Z" style="fill:#FFFFFF" />
<text x="358.5" y="-420.45" transform="scale(1, -1)"
	style="font-family:Times;font-weight:normal;font-style:normal;font-size:12px"> </text>
<text x="385.56" y="-3.8613" transform="scale(1, -1)"
	style="font-family:Times;font-weight:normal;font-style:normal;font-size:12px">Costs</text>
<text x="69.055" y="-18.634" transform="scale(1, -1)"
	style="font-family:Times;font-weight:normal;font-style:normal;font-size:10px">0.00</text>
<text x="350.24" y="-18.634" transform="scale(1, -1)"
	style="font-family:Times;font-weight:normal;font-style:normal;font-size:10px">250.00</text>
<text x="636.42" y="-18.634" transform="scale(1, -1)"
	style="font-family:Times;font-weight:normal;font-style:normal;font-size:10px">500.00</text>
<path d="M77.805,28.263L77.805,36.263" style="fill:none;stroke:#000000;stroke-width:0.5" />
<path d="M363.99,28.263L363.99,36.263" style="fill:none;stroke:#000000;stroke-width:0.5" />
<path d="M650.17,28.263L650.17,36.263" style="fill:none;stroke:#000000;stroke-width:0.5" />
<path d="M135.04,32.263L135.04,36.263" style="fill:none;stroke:#000000;stroke-width:0.5" />
<path d="M192.28,32.263L192.28,36.263" style="fill:none;stroke:#000000;stroke-width:0.5" />
<path d="M249.51,32.263L249.51,36.263" style="fill:none;stroke:#000000;stroke-width:0.5" />
<path d="M306.75,32.263L306.75,36.263" style="fill:none;stroke:#000000;stroke-width:0.5" />
<path d="M421.22,32.263L421.22,36.263" style="fill:none;stroke:#000000;stroke-width:0.5" />
<path d="M478.46,32.263L478.46,36.263" style="fill:none;stroke:#000000;stroke-width:0.5" />
<path d="M535.7,32.263L535.7,36.263" style="fill:none;stroke:#000000;stroke-width:0.5" />
<path d="M592.93,32.263L592.93,36.263" style="fill:none;stroke:#000000;stroke-width:0.5" />
<path d="M707.41,32.263L707.41,36.263" style="fill:none;stroke:#000000;stroke-width:0.5" />
<path d="M77.805,36.263L720,36.263" style="fill:none;stroke:#000000;stroke-width:0.5" />
<g transform="rotate(90)">
<text x="152.55" y="11.555" transform="scale(1, -1)"
	style="font-family:Times;font-weight:normal;font-style:normal;font-size:12px">Number of trials (1000000 total)</text>
</g>
<text x="24.055" y="-111.26" transform="scale(1, -1)"
	style="font-family:Times;font-weight:normal;font-style:normal;font-size:10px">25000.00</text>
<text x="24.055" y="-249.9" transform="scale(1, -1)"
	style="font-family:Times;font-weight:normal;font-style:normal;font-size:10px">75000.00</text>
<text x="19.055" y="-388.53" transform="scale(1, -1)"
	style="font-family:Times;font-weight:normal;font-style:normal;font-size:10px">125000.00</text>
<path d="M64.055,114.47L72.055,114.47" style="fill:none;stroke:#000000;stroke-width:0.5" />
<path d="M64.055,253.1L72.055,253.1" style="fill:none;stroke:#000000;stroke-width:0.5" />
<path d="M64.055,391.74L72.055,391.74" style="fill:none;stroke:#000000;stroke-width:0.5" />
<path d="M68.055,59.012L72.055,59.012" style="fill:none;stroke:#000000;stroke-width:0.5" />
<path d="M68.055,86.739L72.055,86.739" style="fill:none;stroke:#000000;stroke-width:0.5" />
<path d="M68.055,142.19L72.055,142.19" style="fill:none;stroke:#000000;stroke-width:0.5" />
<path d="M68.055,169.92L72.055,169.92" style="fill:none;stroke:#000000;stroke-width:0.5" />
<path d="M68.055,197.65L72.055,197.65" style="fill:none;stroke:#000000;stroke-width:0.5" />
<path d="M68.055,225.37L72.055,225.37" style="fill:none;stroke:#000000;stroke-width:0.5" />
<path d="M68.055,280.83L72.055,280.83" style="fill:none;stroke:#000000;stroke-width:0.5" />
<path d="M68.055,308.56L72.055,308.56" style="fill:none;stroke:#000000;stroke-width:0.5" />
<path d="M68.055,336.28L72.055,336.28" style="fill:none;stroke:#000000;stroke-width:0.5" />
<path d="M68.055,364.01L72.055,364.01" style="fill:none;stroke:#000000;stroke-width:0.5" />
<path d="M72.055,45.151L72.055,416.58" style="fill:none;stroke:#000000;stroke-width:0.5" />
<path d="M77.805,416.58L102.99,51.972L104.13,55.391L105.28,52.125L107.57,70.253L108.71,55.571L109.86,65.805L111,55.793L112.15,51.856L113.29,55.904L115.58,66.429L116.73,73.131L117.87,80.052L119.02,51.906L120.16,48.551L121.3,69.379L122.45,73.816L123.59,69.127L124.74,66.052L125.88,58.926L127.03,73.073L128.17,99.571L129.32,55.563L130.46,81.507L131.61,45.34L132.75,56.763L133.9,74.506L135.04,74.279L136.19,52.934L137.33,46.424L138.48,99.377L139.62,71.398L140.77,46.901L141.91,60.956L143.05,55.111L144.2,54.174L145.34,73.963L146.49,55.549L147.63,67.896L148.78,60.776L149.92,70.777L151.07,50.331L152.21,50.669L153.36,52.208L154.5,67.674L155.65,53.605L156.79,54.814L157.94,54.856L159.08,60.046L160.23,57.861L161.37,60.318L162.51,56.625L163.66,56.384L164.8,57.501L165.95,70.358L167.09,58.874L168.24,63.374L169.38,62.021L170.53,81.233L171.67,60.235L172.82,61.438L173.96,63.06L175.11,61.011L176.25,58.613L177.4,64.391L178.54,63.648L179.69,62.392L180.83,59.938L181.98,58.666L183.12,61.76L184.26,63.332L185.41,63.396L186.55,59.517L187.7,60.914L188.84,65.278L189.99,60.473L191.13,61.477L192.28,59.176L193.42,58.103L194.57,62.073L195.71,62.711L196.86,58.214L198,59.667L199.15,59.533L200.29,63.285L201.44,56.736L202.58,59.018L203.73,57.382L204.87,58.155L206.01,59.988L207.16,57.637L208.3,56.783L209.45,58.627L210.59,60.06L211.74,57.684L212.88,54.196L214.03,56.761L215.17,59.411L216.32,58.768L217.46,57.019L218.61,56.877L219.75,57.44L220.9,58.203L222.04,57.057L223.19,57.346L224.33,55.147L225.48,55.305L226.62,58.918L227.76,56.822L228.91,55.688L230.05,55.549L231.2,58.039L232.34,56.095L233.49,55.624L234.63,55.94L235.78,56.234L236.92,55.155L238.07,56.885L239.21,54.958L240.36,55.433L241.5,55.158L242.65,55.568L243.79,53.536L244.94,54.293L246.08,54.651L247.23,55.064L248.37,53.68L249.51,54.154L250.66,53.894L251.8,53.733L252.95,53.489L254.09,53.353L255.24,53.547L256.38,53.547L257.53,52.993L258.67,53.697L259.82,52.968L260.96,53.27L262.11,53.151L263.25,52.388L264.4,52.141L265.54,52.532L266.69,52.358L267.83,52.333L268.98,51.703L270.12,51.947L271.26,51.956L272.41,52.194L273.55,51.473L274.7,51.243L275.84,51.565L276.99,51.811L278.13,51.523L279.28,51.31L280.42,50.766L281.57,51.165L282.71,51.052L283.86,50.896L285,50.359L286.15,50.661L287.29,50.722L288.44,50.677L289.58,50.178L290.73,50.261L291.87,50.42L293.01,50.22L294.16,50.017L295.3,50.081L296.45,49.846L297.59,49.74L298.74,50.012L299.88,49.532L301.03,49.396L302.17,49.518L303.32,49.438L304.46,49.097L305.61,49.202L306.75,49.005L307.9,49.086L309.04,49.136L310.19,48.82L311.33,48.717L312.47,48.881L313.62,48.626L314.76,48.834L315.91,48.287L317.05,48.495L318.2,48.498L319.34,48.368L320.49,48.468L321.63,48.182L322.78,48.235L323.92,48.093L325.07,47.991L326.21,47.941L327.36,47.874L328.5,47.894L329.65,47.838L330.79,47.891L331.94,47.766L333.08,47.849L334.22,47.788L335.37,47.614L336.51,47.716L337.66,47.569L338.8,47.392L339.95,47.336L341.09,47.375L342.24,47.195L343.38,47.292L344.53,47.381L345.67,47.023L346.82,47.07L347.96,46.934L349.11,47.006L350.25,46.909L351.4,46.97L352.54,46.959L353.69,46.973L354.83,46.923L355.97,46.812L357.12,46.735L358.26,46.723L359.41,46.662L360.55,46.599L361.7,46.66L362.84,46.554L363.99,46.599L365.13,46.585L366.28,46.385L367.42,46.449L368.57,46.446L369.71,46.432L370.86,46.43L372,46.355L373.15,46.321L374.29,46.302L375.44,46.244L376.58,46.316L377.72,46.211L378.87,46.089L380.01,46.197L381.16,46.122L382.3,46.177L383.45,46.15L384.59,46.028L385.74,46.028L386.88,46.113L388.03,46.072L389.17,45.98L390.32,46.086L391.46,46L392.61,45.919L393.75,45.975L394.9,45.919L396.04,45.886L397.19,45.894L398.33,45.82L399.47,45.842L400.62,45.809L401.76,45.778L402.91,45.748L404.05,45.775L405.2,45.836L406.34,45.7L407.49,45.731L408.63,45.706L409.78,45.67L410.92,45.65L412.07,45.642L413.21,45.637L414.36,45.603L415.5,45.648L416.65,45.659L417.79,45.592L418.94,45.626L420.08,45.614L421.22,45.595L422.37,45.576L423.51,45.534L424.66,45.517L425.8,45.517L426.95,45.559L428.09,45.47L429.24,45.492L430.38,45.473L431.53,45.506L432.67,45.487L433.82,45.49L434.96,45.409L436.11,45.501L437.25,45.492L438.4,45.445L439.54,45.412L440.69,45.376L441.83,45.398L442.97,45.39L444.12,45.393L445.26,45.337L446.41,45.418L447.55,45.368L448.7,45.387L449.84,45.34L450.99,45.329L452.13,45.379L453.28,45.282L454.42,45.362L455.57,45.323L456.71,45.351L457.86,45.332L459,45.298L460.15,45.298L461.29,45.326L462.44,45.323L463.58,45.287L464.72,45.298L465.87,45.282L467.01,45.276L468.16,45.282L469.3,45.301L470.45,45.293L471.59,45.268L472.74,45.296L473.88,45.265L475.03,45.251L476.17,45.257L477.32,45.232L478.46,45.262L479.61,45.24L480.75,45.243L481.9,45.207L483.04,45.221L484.18,45.243L485.33,45.246L486.47,45.237L487.62,45.254L488.76,45.212L489.91,45.223L491.05,45.207L492.2,45.221L493.34,45.235L494.49,45.218L495.63,45.201L496.78,45.21L497.92,45.246L499.07,45.19L500.21,45.201L501.36,45.21L502.5,45.199L503.65,45.215L504.79,45.201L505.93,45.218L507.08,45.212L508.22,45.19L509.37,45.199L510.51,45.199L511.66,45.179L512.8,45.187L513.95,45.179L515.09,45.187L516.24,45.193L517.38,45.193L518.53,45.204L519.67,45.19L520.82,45.19L521.96,45.179L523.11,45.196L524.25,45.179L525.4,45.199L526.54,45.174L527.68,45.199L528.83,45.187L529.97,45.168L531.12,45.165L532.26,45.157L533.41,45.179L534.55,45.187L535.7,45.174L536.84,45.174L537.99,45.171L539.13,45.168L540.28,45.162L541.42,45.16L542.57,45.168L543.71,45.174L544.86,45.168L546,45.162L547.15,45.162L548.29,45.179L549.43,45.165L550.58,45.162L551.72,45.157L552.87,45.174L554.01,45.162L555.16,45.168L556.3,45.157L557.45,45.154L558.59,45.165L559.74,45.157L560.88,45.168L562.03,45.16L563.17,45.157L564.32,45.162L565.46,45.174L566.61,45.162L567.75,45.157L568.9,45.154L570.04,45.151L571.18,45.154L572.33,45.16L573.47,45.157L574.62,45.154L575.76,45.151L576.91,45.151L578.05,45.16L579.2,45.157L580.34,45.151L581.49,45.162L582.63,45.16L583.78,45.171L584.92,45.162L587.21,45.162L588.36,45.157L589.5,45.154L590.65,45.16L592.93,45.154L594.08,45.16L599.8,45.154L600.95,45.154L602.09,45.151L605.53,45.151L606.67,45.151L607.82,45.151L608.96,45.154L611.25,45.151L613.54,45.157L615.83,45.151L616.97,45.154L619.26,45.151L621.55,45.151L622.7,45.151L626.13,45.151L627.28,45.151L630.71,45.151L631.86,45.151L635.29,45.151L637.58,45.151L638.72,45.151L642.16,45.151L644.45,45.151L653.61,45.154L654.75,45.151L659.33,45.151L669.63,45.151L715.42,45.151L716.57,45.151L720,45.151" style="fill:none;stroke:#0000FF" />
</g>
</svg>
