<?xml version="1.0"?>
<!-- Generated by SVGo and Plotinum VG -->
<svg width="720pt" height="432pt" viewBox="0 0 720 432"
	xmlns="http://www.w3.org/2000/svg"
	xmlns:xlink="http://www.w3.org/1999/xlink">
<g transform="scale(1, -1) translate(0, -432)">
<path d="M0,0L720,0L720,432L0,432Z" style="fill:#FFFFFF" />
<text x="358.5" y="-420.45" transform="scale(1, -1)"
	style="font-family:Times;font-weight:normal;font-style:normal;font-size:12px"> </text>
<text x="379.31" y="-3.8613" transform="scale(1, -1)"
	style="font-family:Times;font-weight:normal;font-style:normal;font-size:12px">Costs</text>
<text x="62.805" y="-18.634" transform="scale(1, -1)"
	style="font-family:Times;font-weight:normal;font-style:normal;font-size:10px">0</text>
<text x="328.34" y="-18.634" transform="scale(1, -1)"
	style="font-family:Times;font-weight:normal;font-style:normal;font-size:10px">200</text>
<text x="598.88" y="-18.634" transform="scale(1, -1)"
	style="font-family:Times;font-weight:normal;font-style:normal;font-size:10px">400</text>
<path d="M65.305,28.263L65.305,36.263" style="fill:none;stroke:#000000;stroke-width:0.5" />
<path d="M335.84,28.263L335.84,36.263" style="fill:none;stroke:#000000;stroke-width:0.5" />
<path d="M606.38,28.263L606.38,36.263" style="fill:none;stroke:#000000;stroke-width:0.5" />
<path d="M200.57,32.263L200.57,36.263" style="fill:none;stroke:#000000;stroke-width:0.5" />
<path d="M471.11,32.263L471.11,36.263" style="fill:none;stroke:#000000;stroke-width:0.5" />
<path d="M65.305,36.263L720,36.263" style="fill:none;stroke:#000000;stroke-width:0.5" />
<g transform="rotate(90)">
<text x="152.55" y="11.555" transform="scale(1, -1)"
	style="font-family:Times;font-weight:normal;font-style:normal;font-size:12px">Number of trials (1000000 total)</text>
</g>
<text x="24.055" y="-106.84" transform="scale(1, -1)"
	style="font-family:Times;font-weight:normal;font-style:normal;font-size:10px">50000</text>
<text x="19.055" y="-236.64" transform="scale(1, -1)"
	style="font-family:Times;font-weight:normal;font-style:normal;font-size:10px">150000</text>
<text x="19.055" y="-366.45" transform="scale(1, -1)"
	style="font-family:Times;font-weight:normal;font-style:normal;font-size:10px">250000</text>
<path d="M51.555,110.05L59.555,110.05" style="fill:none;stroke:#000000;stroke-width:0.5" />
<path d="M51.555,239.85L59.555,239.85" style="fill:none;stroke:#000000;stroke-width:0.5" />
<path d="M51.555,369.65L59.555,369.65" style="fill:none;stroke:#000000;stroke-width:0.5" />
<path d="M55.555,174.95L59.555,174.95" style="fill:none;stroke:#000000;stroke-width:0.5" />
<path d="M55.555,304.75L59.555,304.75" style="fill:none;stroke:#000000;stroke-width:0.5" />
<path d="M59.555,45.151L59.555,416.58" style="fill:none;stroke:#000000;stroke-width:0.5" />
<path d="M65.305,416.58L96.416,52.276L100.47,69.655L101.83,62.591L103.18,62.817L104.53,59.069L107.24,55.911L108.59,65.875L109.94,55.539L111.3,84.215L112.65,59.058L114,55.512L115.35,62.656L116.71,69.637L118.06,62.704L119.41,66.681L120.76,48.603L122.12,48.631L124.82,63.057L126.18,55.6L127.53,58.996L131.59,67.006L132.94,62.92L134.29,45.491L135.64,45.717L137,81.185L138.35,50.265L139.7,47.259L141.05,49.492L142.41,54.088L143.76,47.38L145.11,57.969L146.47,49.868L147.82,56.425L149.17,70.24L150.52,63.448L151.88,49.371L153.23,50.464L154.58,51.867L155.93,50.542L157.29,50.39L158.64,50.025L159.99,50.211L161.34,51.175L162.7,52.488L164.05,54.925L165.4,50.307L166.76,50.502L168.11,51.554L169.46,54.322L170.81,51.366L172.17,51.775L173.52,50.639L174.87,61.55L176.22,51.114L177.58,51.078L178.93,52.02L180.28,51.686L181.63,50.184L182.99,52.935L184.34,52.412L185.69,52.027L187.05,51.869L188.4,51.822L189.75,49.051L191.1,51.719L192.46,50.724L193.81,50.876L195.16,50.637L196.51,51.334L197.87,49.681L199.22,51.382L200.57,49.408L201.92,49.409L203.28,50.565L204.63,50.587L205.98,47.958L207.34,48.047L208.69,49.6L210.04,49.914L211.39,49.279L212.75,48.914L214.1,48.751L215.45,49.161L216.8,50.303L218.16,48.823L219.51,48.185L220.86,50.642L222.22,49.507L223.57,48.119L224.92,48.161L226.27,48.638L227.63,48.252L228.98,48.608L230.33,48.206L231.68,48.176L233.04,47.907L234.39,48.843L235.74,48.264L237.09,47.954L238.45,47.38L239.8,47.412L241.15,48.051L242.51,47.75L243.86,47.192L245.21,47.216L246.56,48.206L247.92,47.551L249.27,47.351L250.62,47.163L251.97,47.257L253.33,47.406L254.68,47.339L256.03,47.024L257.38,47.141L258.74,47.685L260.09,47.415L261.44,46.826L262.8,46.895L264.15,46.998L265.5,46.778L266.85,46.832L268.21,46.83L269.56,46.577L270.91,46.713L272.26,46.627L273.62,46.484L274.97,46.414L276.32,46.569L277.67,46.471L279.03,46.443L280.38,46.344L281.73,46.364L283.09,46.331L284.44,46.248L285.79,46.107L287.14,46.199L288.5,46.336L289.85,46.157L291.2,46.024L292.55,46.113L293.91,46.124L295.26,46.064L296.61,46.092L297.97,45.994L299.32,45.895L300.67,46.024L302.02,46.018L303.38,45.915L304.73,45.928L306.08,46.028L307.43,45.88L308.79,45.816L310.14,45.794L311.49,45.782L312.84,45.837L314.2,45.789L315.55,45.772L316.9,45.693L318.26,45.735L319.61,45.71L320.96,45.632L322.31,45.69L323.67,45.594L325.02,45.668L326.37,45.633L327.72,45.619L329.08,45.58L330.43,45.638L331.78,45.607L333.13,45.552L334.49,45.472L335.84,45.529L337.19,45.536L338.55,45.511L339.9,45.524L341.25,45.508L342.6,45.463L343.96,45.497L345.31,45.464L346.66,45.489L348.01,45.44L349.37,45.41L350.72,45.423L352.07,45.401L353.42,45.443L354.78,45.393L356.13,45.364L357.48,45.369L358.84,45.359L360.19,45.375L361.54,45.393L362.89,45.345L364.25,45.332L365.6,45.328L366.95,45.36L368.3,45.359L369.66,45.302L371.01,45.292L372.36,45.32L373.71,45.315L375.07,45.269L376.42,45.275L377.77,45.284L379.13,45.269L380.48,45.282L381.83,45.28L383.18,45.268L384.54,45.258L385.89,45.255L387.24,45.236L388.59,45.247L389.95,45.249L391.3,45.234L392.65,45.254L394.01,45.225L395.36,45.231L396.71,45.25L398.06,45.229L399.42,45.198L400.77,45.216L402.12,45.212L403.47,45.212L404.83,45.219L406.18,45.214L407.53,45.221L408.88,45.205L410.24,45.195L411.59,45.208L412.94,45.194L414.3,45.201L415.65,45.194L417,45.192L418.35,45.198L419.71,45.194L421.06,45.194L422.41,45.197L423.76,45.189L425.12,45.201L426.47,45.184L427.82,45.19L429.17,45.179L430.53,45.181L431.88,45.186L433.23,45.181L434.59,45.172L435.94,45.171L437.29,45.188L438.64,45.173L440,45.181L441.35,45.172L442.7,45.168L444.05,45.173L445.41,45.177L446.76,45.173L448.11,45.171L449.46,45.172L450.82,45.167L452.17,45.168L453.52,45.173L454.88,45.17L456.23,45.162L457.58,45.159L458.93,45.164L460.29,45.16L461.64,45.167L462.99,45.163L464.34,45.159L465.7,45.168L467.05,45.158L468.4,45.166L469.75,45.164L471.11,45.164L472.46,45.155L473.81,45.155L475.17,45.16L476.52,45.158L477.87,45.158L479.22,45.158L480.58,45.153L481.93,45.155L483.28,45.16L484.63,45.157L485.99,45.155L487.34,45.155L488.69,45.155L490.05,45.153L491.4,45.154L492.75,45.155L494.1,45.153L495.46,45.162L496.81,45.154L498.16,45.153L499.51,45.153L500.87,45.158L502.22,45.155L503.57,45.154L504.92,45.155L506.28,45.151L507.63,45.153L508.98,45.153L510.34,45.155L511.69,45.154L513.04,45.151L514.39,45.154L517.1,45.154L518.45,45.151L519.8,45.153L521.16,45.155L522.51,45.153L523.86,45.154L526.57,45.151L527.92,45.151L530.63,45.154L531.98,45.153L533.33,45.151L534.68,45.151L536.04,45.151L537.39,45.151L538.74,45.153L544.15,45.154L546.86,45.153L550.92,45.151L554.97,45.151L556.33,45.151L557.68,45.151L559.03,45.151L560.38,45.151L561.74,45.151L563.09,45.151L564.44,45.151L580.67,45.151L583.38,45.151L584.73,45.151L586.09,45.151L588.79,45.151L595.55,45.151L598.26,45.151L600.96,45.151L603.67,45.151L720,45.151" style="fill:none;stroke:#0000FF" />
</g>
</svg>
