<?xml version="1.0"?>
<!-- Generated by SVGo and Plotinum VG -->
<svg width="720pt" height="432pt" viewBox="0 0 720 432"
	xmlns="http://www.w3.org/2000/svg"
	xmlns:xlink="http://www.w3.org/1999/xlink">
<g transform="scale(1, -1) translate(0, -432)">
<path d="M0,0L720,0L720,432L0,432Z" style="fill:#FFFFFF" />
<text x="358.5" y="-420.45" transform="scale(1, -1)"
	style="font-family:Times;font-weight:normal;font-style:normal;font-size:12px"> </text>
<text x="379.31" y="-3.8613" transform="scale(1, -1)"
	style="font-family:Times;font-weight:normal;font-style:normal;font-size:12px">Costs</text>
<text x="62.805" y="-18.634" transform="scale(1, -1)"
	style="font-family:Times;font-weight:normal;font-style:normal;font-size:10px">0</text>
<text x="353.38" y="-18.634" transform="scale(1, -1)"
	style="font-family:Times;font-weight:normal;font-style:normal;font-size:10px">200</text>
<text x="648.95" y="-18.634" transform="scale(1, -1)"
	style="font-family:Times;font-weight:normal;font-style:normal;font-size:10px">400</text>
<path d="M65.305,28.263L65.305,36.263" style="fill:none;stroke:#000000;stroke-width:0.5" />
<path d="M360.88,28.263L360.88,36.263" style="fill:none;stroke:#000000;stroke-width:0.5" />
<path d="M656.45,28.263L656.45,36.263" style="fill:none;stroke:#000000;stroke-width:0.5" />
<path d="M213.09,32.263L213.09,36.263" style="fill:none;stroke:#000000;stroke-width:0.5" />
<path d="M508.66,32.263L508.66,36.263" style="fill:none;stroke:#000000;stroke-width:0.5" />
<path d="M65.305,36.263L720,36.263" style="fill:none;stroke:#000000;stroke-width:0.5" />
<g transform="rotate(90)">
<text x="152.55" y="11.555" transform="scale(1, -1)"
	style="font-family:Times;font-weight:normal;font-style:normal;font-size:12px">Number of trials (1000000 total)</text>
</g>
<text x="24.055" y="-107.13" transform="scale(1, -1)"
	style="font-family:Times;font-weight:normal;font-style:normal;font-size:10px">50000</text>
<text x="19.055" y="-237.49" transform="scale(1, -1)"
	style="font-family:Times;font-weight:normal;font-style:normal;font-size:10px">150000</text>
<text x="19.055" y="-367.85" transform="scale(1, -1)"
	style="font-family:Times;font-weight:normal;font-style:normal;font-size:10px">250000</text>
<path d="M51.555,110.33L59.555,110.33" style="fill:none;stroke:#000000;stroke-width:0.5" />
<path d="M51.555,240.69L59.555,240.69" style="fill:none;stroke:#000000;stroke-width:0.5" />
<path d="M51.555,371.06L59.555,371.06" style="fill:none;stroke:#000000;stroke-width:0.5" />
<path d="M55.555,175.51L59.555,175.51" style="fill:none;stroke:#000000;stroke-width:0.5" />
<path d="M55.555,305.88L59.555,305.88" style="fill:none;stroke:#000000;stroke-width:0.5" />
<path d="M59.555,45.151L59.555,416.58" style="fill:none;stroke:#000000;stroke-width:0.5" />
<path d="M65.305,416.58L97.818,48.549L99.296,48.55L103.73,48.405L105.21,62.745L106.68,48.569L108.16,48.596L109.64,48.46L111.12,77.269L112.6,63.031L115.55,80.141L117.03,59.228L118.51,59.423L119.99,55.198L121.46,66.835L122.94,55.633L124.42,48.654L125.9,69.424L130.33,59.534L131.81,45.176L133.29,69.773L136.24,48.626L137.72,48.719L139.2,63.022L140.68,48.732L142.15,45.222L143.63,66.616L145.11,74.366L146.59,45.49L148.07,52.763L149.54,46.133L151.02,57.563L152.5,63.895L153.98,46.229L155.45,51.187L156.93,47.205L158.41,51.559L159.89,46.657L161.37,49.674L162.84,49.078L164.32,58.349L165.8,49.7L167.28,49.409L168.76,48.755L170.23,62.495L171.71,50.392L173.19,64.406L174.67,50.571L176.14,50.302L177.62,48.374L179.1,71.491L180.58,49.129L182.06,48.025L183.53,68.471L185.01,64.727L186.49,49.494L187.97,47.718L189.45,50.859L190.92,52.197L192.4,48.929L193.88,50.773L195.36,50.856L196.83,49.276L198.31,51.465L199.79,49.645L201.27,50.043L202.75,49.25L204.22,50.182L205.7,49.578L207.18,48.263L208.66,49.332L210.14,49.332L211.61,49.198L213.09,50.483L214.57,47.619L216.05,49.461L217.53,49.573L219,51.22L220.48,50.714L221.96,48.056L223.44,51.586L224.91,51.732L226.39,50.593L227.87,48.025L229.35,51.861L230.83,52.741L232.3,49.895L233.78,49.934L235.26,50.799L236.74,48.551L238.22,50.451L239.69,49.783L241.17,49.315L242.65,48.013L244.13,50.382L245.6,48.035L247.08,48.822L248.56,48.379L250.04,48.71L251.52,49.373L252.99,50.091L254.47,47.352L255.95,47.601L257.43,49.563L258.91,49.778L260.38,47.633L261.86,48.134L263.34,49.124L264.82,48.425L266.29,48.324L267.77,46.784L269.25,48.056L270.73,48.211L272.21,48.263L273.68,47.126L275.16,46.984L276.64,47.292L278.12,48.082L279.6,47.091L281.07,47.091L282.55,47.396L284.03,48.296L285.51,46.931L286.98,47.65L288.46,47.8L289.94,47.248L291.42,47.697L292.9,47.319L294.37,46.986L295.85,46.687L297.33,48L298.81,47.877L300.29,46.661L301.76,46.558L303.24,47.641L304.72,46.854L306.2,46.643L307.67,46.697L309.15,46.957L310.63,46.648L312.11,46.718L313.59,46.598L315.06,46.557L316.54,46.578L318.02,46.651L319.5,46.351L320.98,46.272L322.45,46.413L323.93,46.366L325.41,46.392L326.89,46.345L328.37,46.318L329.84,46.267L331.32,46.339L332.8,46.223L334.28,46.243L335.75,46.064L337.23,46.408L338.71,46.27L340.19,46.121L341.67,46.053L343.14,46.288L344.62,46.215L346.1,46.072L347.58,46.004L349.06,46.121L350.53,45.96L352.01,46.069L353.49,45.875L354.97,45.898L356.44,46.043L357.92,45.918L359.4,45.821L360.88,45.763L362.36,45.883L363.83,45.778L365.31,45.845L366.79,45.836L368.27,45.704L369.75,45.785L371.22,45.808L372.7,45.686L374.18,45.658L375.66,45.67L377.13,45.79L378.61,45.665L380.09,45.632L381.57,45.649L383.05,45.678L384.52,45.601L386,45.561L387.48,45.576L388.96,45.572L390.44,45.572L391.91,45.541L393.39,45.537L394.87,45.514L396.35,45.574L397.82,45.519L399.3,45.453L400.78,45.489L402.26,45.542L403.74,45.463L405.21,45.505L406.69,45.464L408.17,45.46L409.65,45.411L411.13,45.463L412.6,45.439L414.08,45.381L415.56,45.4L417.04,45.494L418.52,45.369L419.99,45.383L421.47,45.385L422.95,45.394L424.43,45.373L425.9,45.365L427.38,45.37L428.86,45.378L430.34,45.35L431.82,45.365L433.29,45.305L434.77,45.361L436.25,45.347L437.73,45.296L439.21,45.312L440.68,45.303L442.16,45.3L443.64,45.29L445.12,45.299L446.59,45.305L448.07,45.292L449.55,45.279L451.03,45.28L452.51,45.265L453.98,45.253L455.46,45.284L456.94,45.28L458.42,45.256L459.9,45.253L461.37,45.243L462.85,45.262L464.33,45.257L465.81,45.24L467.28,45.237L468.76,45.247L470.24,45.244L471.72,45.222L473.2,45.222L474.67,45.248L476.15,45.243L477.63,45.211L479.11,45.218L480.59,45.215L482.06,45.21L483.54,45.211L485.02,45.21L486.5,45.209L487.97,45.211L489.45,45.2L490.93,45.207L492.41,45.204L493.89,45.197L495.36,45.194L496.84,45.206L498.32,45.204L499.8,45.189L501.28,45.181L502.75,45.192L504.23,45.198L505.71,45.181L507.19,45.189L508.66,45.184L510.14,45.185L511.62,45.188L513.1,45.183L514.58,45.184L516.05,45.184L517.53,45.185L519.01,45.172L520.49,45.174L521.97,45.177L523.44,45.168L524.92,45.183L526.4,45.171L527.88,45.18L529.36,45.166L530.83,45.167L532.31,45.164L533.79,45.171L535.27,45.171L536.74,45.171L538.22,45.168L539.7,45.16L541.18,45.17L542.66,45.167L544.13,45.162L545.61,45.168L547.09,45.163L548.57,45.166L550.05,45.164L551.52,45.16L553,45.166L554.48,45.17L555.96,45.163L557.43,45.16L558.91,45.157L560.39,45.164L561.87,45.158L563.35,45.158L564.82,45.159L566.3,45.158L567.78,45.159L569.26,45.155L570.74,45.159L572.21,45.16L573.69,45.158L575.17,45.155L576.65,45.162L578.12,45.155L579.6,45.157L581.08,45.158L582.56,45.163L584.04,45.159L585.51,45.159L586.99,45.158L588.47,45.155L589.95,45.157L591.43,45.155L592.9,45.153L595.86,45.16L597.34,45.151L600.29,45.154L601.77,45.153L603.25,45.153L604.73,45.154L606.2,45.153L607.68,45.155L609.16,45.151L610.64,45.153L612.12,45.153L613.59,45.155L615.07,45.154L616.55,45.153L618.03,45.154L619.51,45.154L620.98,45.155L622.46,45.154L623.94,45.151L626.89,45.151L628.37,45.153L629.85,45.153L631.33,45.154L632.81,45.153L635.76,45.154L637.24,45.153L638.72,45.151L640.2,45.151L641.67,45.151L644.63,45.153L646.11,45.151L649.06,45.151L650.54,45.151L652.02,45.153L653.5,45.154L656.45,45.151L657.93,45.153L660.89,45.153L662.36,45.151L671.23,45.151L672.71,45.151L674.19,45.151L677.14,45.151L683.05,45.151L688.96,45.151L700.79,45.151L708.18,45.151L714.09,45.151L720,45.151" style="fill:none;stroke:#0000FF" />
</g>
</svg>
