<?xml version="1.0"?>
<!-- Generated by SVGo and Plotinum VG -->
<svg width="720pt" height="432pt" viewBox="0 0 720 432"
	xmlns="http://www.w3.org/2000/svg"
	xmlns:xlink="http://www.w3.org/1999/xlink">
<g transform="scale(1, -1) translate(0, -432)">
<path d="M0,0L720,0L720,432L0,432Z" style="fill:#FFFFFF" />
<text x="358.5" y="-420.45" transform="scale(1, -1)"
	style="font-family:Times;font-weight:normal;font-style:normal;font-size:12px"> </text>
<text x="379.31" y="-3.8613" transform="scale(1, -1)"
	style="font-family:Times;font-weight:normal;font-style:normal;font-size:12px">Costs</text>
<text x="62.805" y="-18.634" transform="scale(1, -1)"
	style="font-family:Times;font-weight:normal;font-style:normal;font-size:10px">0</text>
<text x="221.89" y="-18.634" transform="scale(1, -1)"
	style="font-family:Times;font-weight:normal;font-style:normal;font-size:10px">100</text>
<text x="385.97" y="-18.634" transform="scale(1, -1)"
	style="font-family:Times;font-weight:normal;font-style:normal;font-size:10px">200</text>
<text x="550.06" y="-18.634" transform="scale(1, -1)"
	style="font-family:Times;font-weight:normal;font-style:normal;font-size:10px">300</text>
<path d="M65.305,28.263L65.305,36.263" style="fill:none;stroke:#000000;stroke-width:0.5" />
<path d="M229.39,28.263L229.39,36.263" style="fill:none;stroke:#000000;stroke-width:0.5" />
<path d="M393.47,28.263L393.47,36.263" style="fill:none;stroke:#000000;stroke-width:0.5" />
<path d="M557.56,28.263L557.56,36.263" style="fill:none;stroke:#000000;stroke-width:0.5" />
<path d="M98.121,32.263L98.121,36.263" style="fill:none;stroke:#000000;stroke-width:0.5" />
<path d="M130.94,32.263L130.94,36.263" style="fill:none;stroke:#000000;stroke-width:0.5" />
<path d="M163.76,32.263L163.76,36.263" style="fill:none;stroke:#000000;stroke-width:0.5" />
<path d="M196.57,32.263L196.57,36.263" style="fill:none;stroke:#000000;stroke-width:0.5" />
<path d="M262.21,32.263L262.21,36.263" style="fill:none;stroke:#000000;stroke-width:0.5" />
<path d="M295.02,32.263L295.02,36.263" style="fill:none;stroke:#000000;stroke-width:0.5" />
<path d="M327.84,32.263L327.84,36.263" style="fill:none;stroke:#000000;stroke-width:0.5" />
<path d="M360.66,32.263L360.66,36.263" style="fill:none;stroke:#000000;stroke-width:0.5" />
<path d="M426.29,32.263L426.29,36.263" style="fill:none;stroke:#000000;stroke-width:0.5" />
<path d="M459.11,32.263L459.11,36.263" style="fill:none;stroke:#000000;stroke-width:0.5" />
<path d="M491.92,32.263L491.92,36.263" style="fill:none;stroke:#000000;stroke-width:0.5" />
<path d="M524.74,32.263L524.74,36.263" style="fill:none;stroke:#000000;stroke-width:0.5" />
<path d="M590.37,32.263L590.37,36.263" style="fill:none;stroke:#000000;stroke-width:0.5" />
<path d="M623.19,32.263L623.19,36.263" style="fill:none;stroke:#000000;stroke-width:0.5" />
<path d="M656.01,32.263L656.01,36.263" style="fill:none;stroke:#000000;stroke-width:0.5" />
<path d="M688.82,32.263L688.82,36.263" style="fill:none;stroke:#000000;stroke-width:0.5" />
<path d="M65.305,36.263L720,36.263" style="fill:none;stroke:#000000;stroke-width:0.5" />
<g transform="rotate(90)">
<text x="151.36" y="11.555" transform="scale(1, -1)"
	style="font-family:Times;font-weight:normal;font-style:normal;font-size:12px">Number of trials (1000000 total)</text>
</g>
<text x="24.055" y="-94.089" transform="scale(1, -1)"
	style="font-family:Times;font-weight:normal;font-style:normal;font-size:10px">50000</text>
<text x="19.055" y="-250.52" transform="scale(1, -1)"
	style="font-family:Times;font-weight:normal;font-style:normal;font-size:10px">200000</text>
<text x="19.055" y="-406.96" transform="scale(1, -1)"
	style="font-family:Times;font-weight:normal;font-style:normal;font-size:10px">350000</text>
<path d="M51.555,97.295L59.555,97.295" style="fill:none;stroke:#000000;stroke-width:0.5" />
<path d="M51.555,253.73L59.555,253.73" style="fill:none;stroke:#000000;stroke-width:0.5" />
<path d="M51.555,410.16L59.555,410.16" style="fill:none;stroke:#000000;stroke-width:0.5" />
<path d="M55.555,175.51L59.555,175.51" style="fill:none;stroke:#000000;stroke-width:0.5" />
<path d="M55.555,331.94L59.555,331.94" style="fill:none;stroke:#000000;stroke-width:0.5" />
<path d="M59.555,45.151L59.555,414.21" style="fill:none;stroke:#000000;stroke-width:0.5" />
<path d="M65.305,414.21L107.97,66.926L109.61,59.748L111.25,51.974L116.17,63.313L117.81,55.715L121.09,62.622L122.73,66.525L124.37,70.158L126.02,48.508L130.94,100.31L132.58,52.261L137.5,48.881L140.78,48.537L145.71,55.633L147.35,48.651L148.99,59.719L152.27,70.312L153.91,70.71L155.55,45.414L157.19,55.491L158.83,49.565L160.47,60.921L162.11,52.735L163.76,60.162L165.4,54.16L167.04,47.885L168.68,47.236L170.32,45.732L171.96,46.095L173.6,49.867L175.24,49.562L176.88,47.424L178.52,46.362L180.16,46.545L181.8,49.606L183.45,47.591L185.09,49.468L186.73,62.423L188.37,49.352L190.01,50.043L191.65,57.617L193.29,45.985L194.93,47.035L196.57,53.3L198.21,69.478L199.85,47.185L201.49,46.508L203.14,48.985L204.78,49.614L206.42,48.917L208.06,49.135L209.7,48.828L211.34,50.681L212.98,48.999L214.62,49.388L216.26,47.803L217.9,50.842L219.54,51.531L221.18,47.712L222.83,48.296L224.47,47.14L226.11,47.981L227.75,47.172L229.39,49.385L231.03,47.576L232.67,47.034L234.31,47.127L235.95,47.382L237.59,47.522L239.23,46.947L240.87,49.852L242.52,48.844L244.16,48.937L245.8,48.123L247.44,48.332L249.08,49.062L250.72,48.804L252.36,49.905L254,48.143L255.64,47.839L257.28,49.243L258.92,46.843L260.56,46.449L262.21,47.01L263.85,49.616L265.49,46.603L267.13,46.335L268.77,46.372L270.41,46.882L272.05,46.542L273.69,47.628L275.33,47.299L276.97,46.387L278.61,47.748L280.25,47.267L281.9,47.202L283.54,46.824L285.18,48.336L286.82,48.14L288.46,46.257L290.1,46.956L291.74,46.574L293.38,46.879L295.02,46.729L296.66,46.86L298.3,46.512L299.94,46.232L301.59,46.212L303.23,46.172L304.87,46.028L306.51,46.552L308.15,46.389L309.79,46.222L311.43,46.168L313.07,46.378L314.71,46.051L316.35,46.068L317.99,46.319L319.63,46.746L321.28,45.945L322.92,46.05L324.56,46.502L326.2,45.726L327.84,45.799L329.48,46.202L331.12,45.932L332.76,45.96L334.4,45.816L336.04,45.953L337.68,45.979L339.33,46.007L340.97,45.983L342.61,45.796L344.25,46.052L345.89,45.937L347.53,45.775L349.17,45.741L350.81,45.918L352.45,45.856L354.09,45.616L355.73,45.671L357.37,45.594L359.02,45.589L360.66,45.575L362.3,45.732L363.94,45.579L365.58,45.545L367.22,45.602L368.86,45.583L370.5,45.57L372.14,45.589L373.78,45.626L375.42,45.58L377.06,45.628L378.71,45.612L380.35,45.564L381.99,45.514L383.63,45.529L385.27,45.614L386.91,45.429L388.55,45.412L390.19,45.478L391.83,45.376L393.47,45.392L395.11,45.425L396.75,45.385L398.4,45.374L400.04,45.393L401.68,45.399L403.32,45.347L404.96,45.389L406.6,45.419L408.24,45.402L409.88,45.352L411.52,45.393L413.16,45.368L414.8,45.327L416.44,45.336L418.09,45.367L419.73,45.364L421.37,45.3L423.01,45.277L424.65,45.291L426.29,45.292L427.93,45.306L429.57,45.29L431.21,45.278L432.85,45.284L434.49,45.288L436.13,45.261L437.78,45.269L439.42,45.288L441.06,45.247L442.7,45.254L444.34,45.278L445.98,45.243L447.62,45.25L449.26,45.251L450.9,45.258L452.54,45.231L454.18,45.223L455.82,45.224L457.47,45.223L459.11,45.223L460.75,45.211L462.39,45.233L464.03,45.218L465.67,45.209L467.31,45.225L468.95,45.218L470.59,45.22L472.23,45.225L473.87,45.211L475.51,45.189L477.16,45.207L478.8,45.21L480.44,45.192L482.08,45.2L483.72,45.2L485.36,45.193L487,45.197L488.64,45.191L490.28,45.183L491.92,45.178L493.56,45.191L495.2,45.177L496.85,45.193L498.49,45.177L500.13,45.177L501.77,45.181L503.41,45.191L505.05,45.185L506.69,45.172L508.33,45.177L509.97,45.172L511.61,45.176L513.25,45.174L514.89,45.168L516.54,45.171L518.18,45.173L519.82,45.168L521.46,45.168L523.1,45.172L524.74,45.162L526.38,45.167L528.02,45.166L529.66,45.17L531.3,45.166L532.94,45.164L534.59,45.163L536.23,45.164L537.87,45.161L539.51,45.168L541.15,45.159L542.79,45.164L544.43,45.159L546.07,45.162L547.71,45.158L549.35,45.158L550.99,45.158L552.63,45.159L554.28,45.16L555.92,45.166L557.56,45.161L559.2,45.163L560.84,45.157L562.48,45.16L564.12,45.159L565.76,45.16L567.4,45.159L569.04,45.158L570.68,45.156L572.32,45.159L573.97,45.16L575.61,45.153L577.25,45.154L578.89,45.156L580.53,45.154L582.17,45.156L583.81,45.16L585.45,45.153L587.09,45.152L588.73,45.153L590.37,45.152L592.01,45.151L593.66,45.156L595.3,45.154L596.94,45.158L598.58,45.154L600.22,45.156L601.86,45.154L603.5,45.152L605.14,45.154L606.78,45.151L608.42,45.153L614.99,45.152L616.63,45.153L618.27,45.153L619.91,45.152L621.55,45.153L623.19,45.152L624.83,45.152L626.47,45.151L628.11,45.153L629.75,45.153L631.39,45.153L634.68,45.151L637.96,45.153L639.6,45.152L644.52,45.152L657.65,45.151L672.42,45.151L675.7,45.152L678.98,45.151L685.54,45.151L711.8,45.151L715.08,45.151L720,45.151" style="fill:none;stroke:#0000FF" />
</g>
</svg>
