<?xml version="1.0"?>
<!-- Generated by SVGo and Plotinum VG -->
<svg width="720pt" height="432pt" viewBox="0 0 720 432"
	xmlns="http://www.w3.org/2000/svg"
	xmlns:xlink="http://www.w3.org/1999/xlink">
<g transform="scale(1, -1) translate(0, -432)">
<path d="M0,0L720,0L720,432L0,432Z" style="fill:#FFFFFF" />
<text x="358.5" y="-420.45" transform="scale(1, -1)"
	style="font-family:Times;font-weight:normal;font-style:normal;font-size:12px"> </text>
<text x="379.13" y="-3.8613" transform="scale(1, -1)"
	style="font-family:Times;font-weight:normal;font-style:normal;font-size:12px">Costs</text>
<text x="62.434" y="-18.634" transform="scale(1, -1)"
	style="font-family:Times;font-weight:normal;font-style:normal;font-size:10px">0</text>
<text x="319.99" y="-18.634" transform="scale(1, -1)"
	style="font-family:Times;font-weight:normal;font-style:normal;font-size:10px">200</text>
<text x="582.54" y="-18.634" transform="scale(1, -1)"
	style="font-family:Times;font-weight:normal;font-style:normal;font-size:10px">400</text>
<path d="M64.934,28.263L64.934,36.263" style="fill:none;stroke:#000000;stroke-width:0.5" />
<path d="M327.49,28.263L327.49,36.263" style="fill:none;stroke:#000000;stroke-width:0.5" />
<path d="M590.04,28.263L590.04,36.263" style="fill:none;stroke:#000000;stroke-width:0.5" />
<path d="M196.21,32.263L196.21,36.263" style="fill:none;stroke:#000000;stroke-width:0.5" />
<path d="M458.76,32.263L458.76,36.263" style="fill:none;stroke:#000000;stroke-width:0.5" />
<path d="M64.934,36.263L720,36.263" style="fill:none;stroke:#000000;stroke-width:0.5" />
<g transform="rotate(90)">
<text x="152.55" y="11.555" transform="scale(1, -1)"
	style="font-family:Times;font-weight:normal;font-style:normal;font-size:12px">Number of trials (1000000 total)</text>
</g>
<text x="23.684" y="-72.11" transform="scale(1, -1)"
	style="font-family:Times;font-weight:normal;font-style:normal;font-size:10px">10000</text>
<text x="23.684" y="-222.94" transform="scale(1, -1)"
	style="font-family:Times;font-weight:normal;font-style:normal;font-size:10px">60000</text>
<text x="19.055" y="-373.78" transform="scale(1, -1)"
	style="font-family:Times;font-weight:normal;font-style:normal;font-size:10px">110000</text>
<path d="M51.184,75.315L59.184,75.315" style="fill:none;stroke:#000000;stroke-width:0.5" />
<path d="M51.184,226.15L59.184,226.15" style="fill:none;stroke:#000000;stroke-width:0.5" />
<path d="M51.184,376.98L59.184,376.98" style="fill:none;stroke:#000000;stroke-width:0.5" />
<path d="M55.184,105.48L59.184,105.48" style="fill:none;stroke:#000000;stroke-width:0.5" />
<path d="M55.184,135.65L59.184,135.65" style="fill:none;stroke:#000000;stroke-width:0.5" />
<path d="M55.184,165.82L59.184,165.82" style="fill:none;stroke:#000000;stroke-width:0.5" />
<path d="M55.184,195.98L59.184,195.98" style="fill:none;stroke:#000000;stroke-width:0.5" />
<path d="M55.184,256.32L59.184,256.32" style="fill:none;stroke:#000000;stroke-width:0.5" />
<path d="M55.184,286.48L59.184,286.48" style="fill:none;stroke:#000000;stroke-width:0.5" />
<path d="M55.184,316.65L59.184,316.65" style="fill:none;stroke:#000000;stroke-width:0.5" />
<path d="M55.184,346.82L59.184,346.82" style="fill:none;stroke:#000000;stroke-width:0.5" />
<path d="M55.184,407.15L59.184,407.15" style="fill:none;stroke:#000000;stroke-width:0.5" />
<path d="M59.184,45.151L59.184,416.58" style="fill:none;stroke:#000000;stroke-width:0.5" />
<path d="M64.934,416.58L93.814,65.457L95.127,52.066L99.065,52.422L100.38,63.176L101.69,68.82L103,65.17L105.63,72.033L106.94,79.083L108.25,62.147L109.57,68.437L110.88,68.172L112.19,68.675L113.51,85.213L114.82,48.768L116.13,72.534L117.44,65.659L118.76,123.24L120.07,60.036L121.38,88.266L122.69,95.24L124.01,65.876L125.32,52.494L127.95,45.547L129.26,69.659L130.57,86.018L131.88,50.415L133.2,45.556L134.51,72.09L135.82,78.091L137.14,51.785L138.45,68.054L139.76,88.58L141.07,48.657L142.39,71.288L143.7,70.464L145.01,54.597L146.32,69.939L147.64,63.698L148.95,53.568L150.26,54.434L151.58,56.102L152.89,55.966L154.2,58.542L155.51,58.92L156.83,58.108L158.14,80.706L159.45,64.319L160.76,62.778L162.08,65.14L163.39,63.176L164.7,65.203L166.02,67.366L167.33,67.249L168.64,60.793L169.95,64.693L171.27,65.608L172.58,67.777L173.89,62.742L175.21,66.422L176.52,70.848L177.83,65.454L179.14,65.366L180.46,64.25L181.77,63.816L183.08,65.779L184.39,67.246L185.71,62.078L187.02,65.478L188.33,69.897L189.65,63.282L190.96,61.454L192.27,64.733L193.58,67.333L194.9,63.927L196.21,65.825L197.52,61.653L198.83,60.533L200.15,65.979L201.46,61.309L202.77,58.769L204.09,61.444L205.4,61.209L206.71,57.158L208.02,58.654L209.34,61.122L210.65,59.885L211.96,62.051L213.28,61.306L214.59,60.217L215.9,60.497L217.21,61.23L218.53,59.375L219.84,58.008L221.15,59.384L222.46,58.223L223.78,59.858L225.09,58.232L226.4,56.841L227.72,58.099L229.03,58.886L230.34,57.595L231.65,57.61L232.97,59.309L234.28,56.735L235.59,58.307L236.9,59.466L238.22,57.257L239.53,58.229L240.84,58.416L242.16,57.079L243.47,56.548L244.78,56.585L246.09,56.687L247.41,56.473L248.72,56.316L250.03,56.008L251.35,55.945L252.66,55.734L253.97,56.488L255.28,55.2L256.6,55.043L257.91,55.64L259.22,55.396L260.53,54.678L261.85,54.277L263.16,54.476L264.47,53.882L265.79,54.129L267.1,54.437L268.41,53.701L269.72,54.141L271.04,53.502L272.35,52.928L273.66,53.152L274.97,53.245L276.29,53.161L277.6,53.097L278.91,52.892L280.23,51.93L281.54,52.352L282.85,52.108L284.16,51.673L285.48,51.526L286.79,51.752L288.1,51.649L289.42,51.613L290.73,51.523L292.04,51.227L293.35,51.097L294.67,51.559L295.98,50.609L297.29,50.723L298.6,50.784L299.92,50.434L301.23,50.458L302.54,50.473L303.86,50.419L305.17,50.168L306.48,50.213L307.79,50.026L309.11,49.758L310.42,49.891L311.73,49.604L313.04,49.604L314.36,49.529L315.67,49.417L316.98,49.323L318.3,49.17L319.61,49.136L320.92,49.067L322.23,48.786L323.55,48.946L324.86,48.802L326.17,48.714L327.49,48.596L328.8,48.636L330.11,48.47L331.42,48.337L332.74,48.434L334.05,48.228L335.36,48.256L336.67,48.135L337.99,47.993L339.3,47.981L340.61,47.906L341.93,47.716L343.24,47.562L344.55,47.731L345.86,47.619L347.18,47.459L348.49,47.459L349.8,47.145L351.11,47.236L352.43,47.42L353.74,47.233L355.05,47.118L356.37,47.17L357.68,47.151L358.99,47.064L360.3,47.182L361.62,47.01L362.93,46.949L364.24,46.765L365.56,46.88L366.87,46.732L368.18,46.72L369.49,46.696L370.81,46.696L372.12,46.512L373.43,46.584L374.74,46.542L376.06,46.449L377.37,46.494L378.68,46.418L380,46.313L381.31,46.237L382.62,46.198L383.93,46.37L385.25,46.243L386.56,46.265L387.87,46.18L389.18,46.111L390.5,46.156L391.81,46.081L393.12,46.111L394.44,46.099L395.75,46.138L397.06,46.02L398.37,46.041L399.69,45.872L401,45.915L402.31,45.972L403.63,45.903L404.94,45.93L406.25,45.833L407.56,45.788L408.88,45.791L410.19,45.794L411.5,45.752L412.81,45.7L414.13,45.719L415.44,45.77L416.75,45.679L418.07,45.685L419.38,45.664L420.69,45.664L422,45.661L423.32,45.586L424.63,45.571L425.94,45.595L427.25,45.577L428.57,45.541L429.88,45.631L431.19,45.553L432.51,45.471L433.82,45.562L435.13,45.483L436.44,45.541L437.76,45.447L439.07,45.516L440.38,45.435L441.7,45.438L443.01,45.414L444.32,45.456L445.63,45.408L446.95,45.429L448.26,45.387L449.57,45.384L450.88,45.375L452.2,45.381L453.51,45.381L454.82,45.387L456.14,45.344L457.45,45.344L458.76,45.341L460.07,45.323L461.39,45.332L462.7,45.308L464.01,45.335L465.32,45.308L466.64,45.302L467.95,45.299L469.26,45.266L470.58,45.299L471.89,45.272L473.2,45.299L474.51,45.281L475.83,45.254L477.14,45.257L478.45,45.248L479.77,45.248L481.08,45.263L482.39,45.248L483.7,45.254L485.02,45.242L486.33,45.248L487.64,45.233L488.95,45.254L490.27,45.224L491.58,45.221L492.89,45.209L494.21,45.209L495.52,45.23L496.83,45.197L498.14,45.239L499.46,45.197L500.77,45.23L502.08,45.215L503.39,45.194L504.71,45.215L506.02,45.206L507.33,45.209L508.65,45.172L509.96,45.218L511.27,45.197L512.58,45.188L513.9,45.206L515.21,45.188L516.52,45.182L517.84,45.194L519.15,45.2L520.46,45.206L521.77,45.172L523.09,45.182L524.4,45.166L525.71,45.172L527.02,45.185L528.34,45.169L529.65,45.154L530.96,45.169L532.28,45.163L533.59,45.166L534.9,45.172L536.21,45.182L537.53,45.179L538.84,45.163L540.15,45.176L541.46,45.172L542.78,45.163L544.09,45.163L545.4,45.163L546.72,45.166L548.03,45.163L549.34,45.172L550.65,45.172L551.97,45.166L553.28,45.154L554.59,45.16L555.91,45.157L557.22,45.163L558.53,45.163L559.84,45.166L561.16,45.163L562.47,45.163L563.78,45.151L565.09,45.157L566.41,45.154L567.72,45.154L569.03,45.16L570.35,45.154L571.66,45.157L572.97,45.154L574.28,45.163L575.6,45.157L576.91,45.154L578.22,45.151L579.53,45.157L580.85,45.154L584.79,45.151L586.1,45.151L587.41,45.16L588.72,45.154L590.04,45.154L591.35,45.154L592.66,45.16L596.6,45.151L597.91,45.154L599.23,45.151L603.16,45.151L605.79,45.151L608.42,45.151L611.04,45.154L612.35,45.151L613.67,45.151L620.23,45.154L622.86,45.151L624.17,45.151L628.11,45.151L630.73,45.151L641.23,45.151L643.86,45.151L645.17,45.151L646.49,45.151L651.74,45.151L655.67,45.151L668.8,45.151L680.62,45.151L687.18,45.151L720,45.151" style="fill:none;stroke:#0000FF" />
</g>
</svg>
