<?xml version="1.0"?>
<!-- Generated by SVGo and Plotinum VG -->
<svg width="720pt" height="432pt" viewBox="0 0 720 432"
	xmlns="http://www.w3.org/2000/svg"
	xmlns:xlink="http://www.w3.org/1999/xlink">
<g transform="scale(1, -1) translate(0, -432)">
<path d="M0,0L720,0L720,432L0,432Z" style="fill:#FFFFFF" />
<text x="358.5" y="-420.45" transform="scale(1, -1)"
	style="font-family:Times;font-weight:normal;font-style:normal;font-size:12px"> </text>
<text x="379.31" y="-3.8613" transform="scale(1, -1)"
	style="font-family:Times;font-weight:normal;font-style:normal;font-size:12px">Costs</text>
<text x="62.805" y="-18.634" transform="scale(1, -1)"
	style="font-family:Times;font-weight:normal;font-style:normal;font-size:10px">0</text>
<text x="343.7" y="-18.634" transform="scale(1, -1)"
	style="font-family:Times;font-weight:normal;font-style:normal;font-size:10px">200</text>
<text x="629.59" y="-18.634" transform="scale(1, -1)"
	style="font-family:Times;font-weight:normal;font-style:normal;font-size:10px">400</text>
<path d="M65.305,28.263L65.305,36.263" style="fill:none;stroke:#000000;stroke-width:0.5" />
<path d="M351.2,28.263L351.2,36.263" style="fill:none;stroke:#000000;stroke-width:0.5" />
<path d="M637.09,28.263L637.09,36.263" style="fill:none;stroke:#000000;stroke-width:0.5" />
<path d="M208.25,32.263L208.25,36.263" style="fill:none;stroke:#000000;stroke-width:0.5" />
<path d="M494.14,32.263L494.14,36.263" style="fill:none;stroke:#000000;stroke-width:0.5" />
<path d="M65.305,36.263L720,36.263" style="fill:none;stroke:#000000;stroke-width:0.5" />
<g transform="rotate(90)">
<text x="150.27" y="11.555" transform="scale(1, -1)"
	style="font-family:Times;font-weight:normal;font-style:normal;font-size:12px">Number of trials (1000000 total)</text>
</g>
<text x="24.055" y="-114.95" transform="scale(1, -1)"
	style="font-family:Times;font-weight:normal;font-style:normal;font-size:10px">40000</text>
<text x="19.055" y="-260.95" transform="scale(1, -1)"
	style="font-family:Times;font-weight:normal;font-style:normal;font-size:10px">120000</text>
<text x="19.055" y="-406.96" transform="scale(1, -1)"
	style="font-family:Times;font-weight:normal;font-style:normal;font-size:10px">200000</text>
<path d="M51.555,118.15L59.555,118.15" style="fill:none;stroke:#000000;stroke-width:0.5" />
<path d="M51.555,264.16L59.555,264.16" style="fill:none;stroke:#000000;stroke-width:0.5" />
<path d="M51.555,410.16L59.555,410.16" style="fill:none;stroke:#000000;stroke-width:0.5" />
<path d="M55.555,191.15L59.555,191.15" style="fill:none;stroke:#000000;stroke-width:0.5" />
<path d="M55.555,337.16L59.555,337.16" style="fill:none;stroke:#000000;stroke-width:0.5" />
<path d="M59.555,45.151L59.555,412.02" style="fill:none;stroke:#000000;stroke-width:0.5" />
<path d="M65.305,412.02L98.182,55.713L102.47,69.529L103.9,74.181L108.19,55.286L109.62,66.056L111.05,66.233L112.48,51.824L113.91,79.711L115.34,58.458L116.77,59.098L118.19,51.784L119.62,55.724L121.05,52.023L122.48,62.953L123.91,72.622L125.34,48.581L126.77,48.488L128.2,96.979L129.63,55.722L131.06,83.735L133.92,55.401L135.35,66.707L136.78,93.147L138.21,48.519L139.64,45.513L141.07,79.189L142.5,59.892L143.93,56.146L145.35,71.916L146.78,58.64L148.21,48.586L149.64,58.179L151.07,54.875L152.5,53.162L153.93,62.542L155.36,51.785L156.79,48.714L158.22,49.429L159.65,49.898L161.08,52.167L162.51,50.891L163.94,49.446L165.37,51.937L166.8,60.23L168.23,53.311L169.66,59.597L171.09,53.84L172.51,54.468L173.94,57.523L175.37,54.775L176.8,54.299L178.23,54.136L179.66,65.678L181.09,62.568L182.52,56.352L183.95,54.591L185.38,57.675L186.81,57.419L188.24,54.925L189.67,57.354L191.1,55.406L192.53,55.339L193.96,59.77L195.39,54.932L196.82,52.736L198.25,54.651L199.67,59.922L201.1,53.983L202.53,55.704L203.96,56.029L205.39,53.235L206.82,56.016L208.25,55.456L209.68,52.638L211.11,53.273L212.54,56.843L213.97,52.837L215.4,53.618L216.83,55.875L218.26,54.207L219.69,52.136L221.12,53.136L222.55,51.842L223.98,51.979L225.4,52.964L226.83,51.557L228.26,50.953L229.69,53.202L231.12,51.543L232.55,52.231L233.98,50.935L235.41,51.072L236.84,50.829L238.27,52.178L239.7,51.006L241.13,50.815L242.56,51.983L243.99,51.526L245.42,51.539L246.85,51.302L248.28,50.773L249.71,51.178L251.14,52.034L252.56,51.295L253.99,50.116L255.42,51.019L256.85,51.163L258.28,50.778L259.71,50.526L261.14,50.659L262.57,50.128L264,50.179L265.43,50.532L266.86,49.803L268.29,49.654L269.72,50.156L271.15,49.738L272.58,49.241L274.01,49.28L275.44,49.747L276.87,49.031L278.3,49.292L279.72,49.126L281.15,49.188L282.58,49.322L284.01,49.159L285.44,48.577L286.87,48.829L288.3,48.971L289.73,48.442L291.16,48.52L292.59,48.648L294.02,48.358L295.45,48.628L296.88,48.241L298.31,48.101L299.74,47.977L301.17,48.177L302.6,48.04L304.03,47.978L305.45,47.82L306.88,47.796L308.31,48.061L309.74,47.71L311.17,47.562L312.6,47.36L314.03,47.57L315.46,47.451L316.89,47.458L318.32,47.48L319.75,47.429L321.18,47.442L322.61,47.289L324.04,47.325L325.47,47.201L326.9,47.181L328.33,47.122L329.76,47.066L331.19,46.986L332.61,46.996L334.04,46.955L335.47,47.018L336.9,46.885L338.33,46.787L339.76,46.699L341.19,46.788L342.62,46.584L344.05,46.608L345.48,46.604L346.91,46.641L348.34,46.517L349.77,46.356L351.2,46.445L352.63,46.511L354.06,46.396L355.49,46.385L356.92,46.281L358.35,46.349L359.77,46.325L361.2,46.232L362.63,46.274L364.06,46.192L365.49,46.119L366.92,46.157L368.35,46.075L369.78,46.1L371.21,46.078L372.64,46.049L374.07,46.035L375.5,45.987L376.93,45.934L378.36,45.922L379.79,45.938L381.22,45.883L382.65,45.83L384.08,45.85L385.51,45.828L386.93,45.81L388.36,45.768L389.79,45.732L391.22,45.737L392.65,45.788L394.08,45.748L395.51,45.704L396.94,45.708L398.37,45.693L399.8,45.692L401.23,45.679L402.66,45.653L404.09,45.664L405.52,45.624L406.95,45.644L408.38,45.542L409.81,45.588L411.24,45.588L412.66,45.567L414.09,45.551L415.52,45.529L416.95,45.536L418.38,45.489L419.81,45.456L421.24,45.505L422.67,45.469L424.1,45.414L425.53,45.462L426.96,45.431L428.39,45.443L429.82,45.4L431.25,45.442L432.68,45.416L434.11,45.429L435.54,45.423L436.97,45.414L438.4,45.381L439.82,45.39L441.25,45.414L442.68,45.339L444.11,45.332L445.54,45.365L446.97,45.341L448.4,45.328L449.83,45.35L451.26,45.334L452.69,45.314L454.12,45.338L455.55,45.339L456.98,45.305L458.41,45.301L459.84,45.31L461.27,45.325L462.7,45.279L464.13,45.288L465.56,45.306L466.98,45.294L468.41,45.261L469.84,45.281L471.27,45.257L472.7,45.246L474.13,45.266L475.56,45.265L476.99,45.261L478.42,45.241L479.85,45.244L481.28,45.223L482.71,45.246L484.14,45.221L485.57,45.224L487,45.235L488.43,45.219L489.86,45.237L491.29,45.219L492.71,45.208L494.14,45.202L495.57,45.21L497,45.201L498.43,45.221L499.86,45.21L501.29,45.219L502.72,45.182L504.15,45.192L505.58,45.197L507.01,45.193L508.44,45.193L509.87,45.201L511.3,45.199L512.73,45.195L514.16,45.184L515.59,45.179L517.02,45.199L518.45,45.184L519.87,45.195L521.3,45.175L522.73,45.186L524.16,45.173L525.59,45.177L527.02,45.182L528.45,45.173L529.88,45.182L531.31,45.177L532.74,45.182L534.17,45.177L535.6,45.166L537.03,45.179L538.46,45.188L539.89,45.175L541.32,45.177L542.75,45.179L544.18,45.17L545.61,45.162L547.03,45.17L548.46,45.168L549.89,45.182L551.32,45.168L552.75,45.157L554.18,45.162L555.61,45.166L557.04,45.168L558.47,45.166L559.9,45.162L561.33,45.159L562.76,45.16L564.19,45.159L565.62,45.155L567.05,45.164L568.48,45.164L569.91,45.159L571.34,45.164L572.77,45.164L574.19,45.157L575.62,45.159L577.05,45.16L578.48,45.16L579.91,45.166L581.34,45.166L582.77,45.157L584.2,45.159L585.63,45.164L587.06,45.159L588.49,45.151L589.92,45.16L591.35,45.155L592.78,45.153L594.21,45.155L595.64,45.155L597.07,45.16L598.5,45.155L599.92,45.153L601.35,45.155L602.78,45.155L605.64,45.151L608.5,45.151L609.93,45.151L612.79,45.153L614.22,45.155L615.65,45.151L617.08,45.157L619.94,45.155L622.8,45.153L624.23,45.151L625.66,45.155L627.08,45.151L628.51,45.151L629.94,45.151L634.23,45.153L635.66,45.153L637.09,45.153L638.52,45.151L639.95,45.151L641.38,45.151L642.81,45.151L644.24,45.151L647.1,45.151L648.53,45.151L652.82,45.151L654.24,45.153L657.1,45.151L658.53,45.153L659.96,45.151L668.54,45.151L671.4,45.153L675.69,45.151L688.55,45.151L697.13,45.151L715.71,45.151L720,45.151" style="fill:none;stroke:#0000FF" />
</g>
</svg>
