<?xml version="1.0"?>
<!-- Generated by SVGo and Plotinum VG -->
<svg width="720pt" height="432pt" viewBox="0 0 720 432"
	xmlns="http://www.w3.org/2000/svg"
	xmlns:xlink="http://www.w3.org/1999/xlink">
<g transform="scale(1, -1) translate(0, -432)">
<path d="M0,0L720,0L720,432L0,432Z" style="fill:#FFFFFF" />
<text x="358.5" y="-420.45" transform="scale(1, -1)"
	style="font-family:Times;font-weight:normal;font-style:normal;font-size:12px"> </text>
<text x="376.81" y="-3.8613" transform="scale(1, -1)"
	style="font-family:Times;font-weight:normal;font-style:normal;font-size:12px">Costs</text>
<text x="51.555" y="-18.634" transform="scale(1, -1)"
	style="font-family:Times;font-weight:normal;font-style:normal;font-size:10px">0.00</text>
<text x="341.59" y="-18.634" transform="scale(1, -1)"
	style="font-family:Times;font-weight:normal;font-style:normal;font-size:10px">250.00</text>
<text x="636.62" y="-18.634" transform="scale(1, -1)"
	style="font-family:Times;font-weight:normal;font-style:normal;font-size:10px">500.00</text>
<path d="M60.305,28.263L60.305,36.263" style="fill:none;stroke:#000000;stroke-width:0.5" />
<path d="M355.34,28.263L355.34,36.263" style="fill:none;stroke:#000000;stroke-width:0.5" />
<path d="M650.37,28.263L650.37,36.263" style="fill:none;stroke:#000000;stroke-width:0.5" />
<path d="M119.31,32.263L119.31,36.263" style="fill:none;stroke:#000000;stroke-width:0.5" />
<path d="M178.32,32.263L178.32,36.263" style="fill:none;stroke:#000000;stroke-width:0.5" />
<path d="M237.32,32.263L237.32,36.263" style="fill:none;stroke:#000000;stroke-width:0.5" />
<path d="M296.33,32.263L296.33,36.263" style="fill:none;stroke:#000000;stroke-width:0.5" />
<path d="M414.35,32.263L414.35,36.263" style="fill:none;stroke:#000000;stroke-width:0.5" />
<path d="M473.35,32.263L473.35,36.263" style="fill:none;stroke:#000000;stroke-width:0.5" />
<path d="M532.36,32.263L532.36,36.263" style="fill:none;stroke:#000000;stroke-width:0.5" />
<path d="M591.37,32.263L591.37,36.263" style="fill:none;stroke:#000000;stroke-width:0.5" />
<path d="M709.38,32.263L709.38,36.263" style="fill:none;stroke:#000000;stroke-width:0.5" />
<path d="M60.305,36.263L720,36.263" style="fill:none;stroke:#000000;stroke-width:0.5" />
<g transform="rotate(90)">
<text x="152.55" y="11.555" transform="scale(1, -1)"
	style="font-family:Times;font-weight:normal;font-style:normal;font-size:12px">Number of trials (1000000 total)</text>
</g>
<text x="19.055" y="-84.538" transform="scale(1, -1)"
	style="font-family:Times;font-weight:normal;font-style:normal;font-size:10px">10000</text>
<text x="19.055" y="-212.33" transform="scale(1, -1)"
	style="font-family:Times;font-weight:normal;font-style:normal;font-size:10px">40000</text>
<text x="19.055" y="-340.11" transform="scale(1, -1)"
	style="font-family:Times;font-weight:normal;font-style:normal;font-size:10px">70000</text>
<path d="M46.555,87.743L54.555,87.743" style="fill:none;stroke:#000000;stroke-width:0.5" />
<path d="M46.555,215.53L54.555,215.53" style="fill:none;stroke:#000000;stroke-width:0.5" />
<path d="M46.555,343.32L54.555,343.32" style="fill:none;stroke:#000000;stroke-width:0.5" />
<path d="M50.555,130.34L54.555,130.34" style="fill:none;stroke:#000000;stroke-width:0.5" />
<path d="M50.555,172.94L54.555,172.94" style="fill:none;stroke:#000000;stroke-width:0.5" />
<path d="M50.555,258.13L54.555,258.13" style="fill:none;stroke:#000000;stroke-width:0.5" />
<path d="M50.555,300.72L54.555,300.72" style="fill:none;stroke:#000000;stroke-width:0.5" />
<path d="M50.555,385.91L54.555,385.91" style="fill:none;stroke:#000000;stroke-width:0.5" />
<path d="M54.555,45.151L54.555,416.58" style="fill:none;stroke:#000000;stroke-width:0.5" />
<path d="M60.305,416.58L88.628,51.72L90.988,66.092L92.168,65.683L93.348,66.794L94.529,81.038L96.889,69.056L98.069,62.177L99.249,59.357L100.43,92.403L101.61,118.65L102.79,58.633L103.97,73.269L105.15,81.707L106.33,88.949L107.51,76.804L108.69,80.114L109.87,52.129L111.05,122.35L112.23,94.729L113.41,61.968L114.59,70.074L116.95,52.095L118.13,48.606L119.31,86.883L120.49,59.762L121.67,45.854L122.85,96.952L124.03,57.215L125.21,52.235L126.39,62.028L127.57,48.832L128.75,78.708L129.93,74.027L131.11,52.197L132.29,58.322L133.47,54.825L134.65,65.018L135.83,58.416L137.01,57.159L138.19,60.712L139.37,66.117L140.55,61.24L141.73,68.477L142.91,68.617L144.09,72.928L145.27,73.384L146.45,76.165L147.63,100.47L148.81,70.624L149.99,67.076L151.18,87.385L152.36,78.777L153.54,76.11L154.72,84.067L155.9,75.642L157.08,74.048L158.26,68.524L159.44,73.835L160.62,73.567L161.8,66.943L162.98,75.863L164.16,71.77L165.34,67.996L166.52,66.692L167.7,65.41L168.88,64.507L170.06,72.702L171.24,71.442L172.42,60.494L173.6,70.969L174.78,67.651L175.96,63.668L177.14,65.563L178.32,62.007L179.5,65.678L180.68,68.196L181.86,68.707L183.04,64.907L184.22,62.633L185.4,67.719L186.58,64.345L187.76,68.784L188.94,72.881L190.12,63.365L191.3,70.138L192.48,71.88L193.66,68.008L194.84,70.211L196.02,70.33L197.2,67.57L198.38,74.338L199.56,70.172L200.74,66.752L201.92,69.137L203.1,67.506L204.28,66.437L205.46,67.702L206.64,69.06L207.82,66.79L209,64.575L210.18,68.724L211.36,65.419L212.54,63.114L213.72,67.229L214.9,64.954L216.08,65.41L217.26,66.326L218.44,62.586L219.62,63.225L220.8,63.774L221.98,63.387L223.16,63.003L224.34,61.585L225.52,62.603L226.7,61.487L227.88,61.163L229.06,61.755L230.24,61.73L231.42,61.717L232.6,62.403L233.78,61.887L234.96,61.108L236.14,61.334L237.32,60.759L238.51,62.266L239.69,62.569L240.87,61.376L242.05,62.066L243.23,61.385L244.41,60.644L245.59,61.014L246.77,60.669L247.95,60.511L249.13,59.736L250.31,60.537L251.49,60.239L252.67,58.897L253.85,58.808L255.03,59.834L256.21,58.258L257.39,59.613L258.57,58.774L259.75,57.538L260.93,58.007L262.11,58.514L263.29,56.844L264.47,57.551L265.65,57.376L266.83,57.07L268.01,56.699L269.19,56.976L270.37,56.52L271.55,56.026L272.73,55.928L273.91,55.562L275.09,55.485L276.27,56.052L277.45,55.481L278.63,55.238L279.81,56.056L280.99,54.77L282.17,54.978L283.35,54.821L284.53,54.718L285.71,54.71L286.89,54.378L288.07,54.356L289.25,54.241L290.43,54.39L291.61,53.79L292.79,53.884L293.97,53.428L295.15,53.411L296.33,53.53L297.51,53.56L298.69,53.151L299.87,53.326L301.05,53.215L302.23,53.032L303.41,52.307L304.59,52.772L305.77,52.095L306.95,52.06L308.13,51.975L309.31,51.856L310.49,51.617L311.67,51.634L312.85,51.852L314.03,51.66L315.21,51.268L316.39,51.094L317.57,51.034L318.75,50.659L319.93,51.426L321.11,50.791L322.29,50.625L323.47,50.518L324.65,50.237L325.84,50.199L327.02,50.378L328.2,50.169L329.38,49.973L330.56,50.259L331.74,49.939L332.92,49.769L334.1,49.692L335.28,49.492L336.46,49.56L337.64,49.445L338.82,49.317L340,49.479L341.18,49.398L342.36,49.347L343.54,49.266L344.72,49.096L345.9,48.793L347.08,48.853L348.26,48.806L349.44,48.576L350.62,48.576L351.8,48.572L352.98,48.465L354.16,48.47L355.34,48.359L356.52,48.193L357.7,48.282L358.88,48.095L360.06,47.993L361.24,47.967L362.42,48.056L363.6,47.929L364.78,47.954L365.96,47.831L367.14,47.469L368.32,47.592L369.5,47.656L370.68,47.562L371.86,47.477L373.04,47.596L374.22,47.456L375.4,47.417L376.58,47.158L377.76,47.222L378.94,47.094L380.12,47.162L381.3,47.107L382.48,47.03L383.66,46.953L384.84,46.992L386.02,46.83L387.2,46.953L388.38,46.864L389.56,46.825L390.74,46.902L391.92,46.783L393.1,46.672L394.28,46.681L395.46,46.715L396.64,46.519L397.82,46.476L399,46.455L400.18,46.634L401.36,46.323L402.54,46.31L403.72,46.451L404.9,46.476L406.08,46.289L407.26,46.395L408.44,46.233L409.62,46.327L410.8,46.233L411.98,46.267L413.16,46.233L414.35,46.123L415.53,46.148L416.71,46.054L417.89,46.11L419.07,46.08L420.25,45.944L421.43,46.093L422.61,46.11L423.79,45.978L424.97,45.969L426.15,45.914L427.33,45.91L428.51,45.829L429.69,45.769L430.87,45.786L432.05,45.786L433.23,45.82L434.41,45.82L435.59,45.739L436.77,45.718L437.95,45.76L439.13,45.718L440.31,45.743L441.49,45.667L442.67,45.722L443.85,45.697L445.03,45.603L446.21,45.582L447.39,45.663L448.57,45.641L449.75,45.518L450.93,45.628L452.11,45.59L453.29,45.603L454.47,45.556L455.65,45.518L456.83,45.496L458.01,45.488L459.19,45.548L460.37,45.513L461.55,45.535L462.73,45.479L463.91,45.552L465.09,45.492L466.27,45.488L467.45,45.415L468.63,45.386L469.81,45.403L470.99,45.475L472.17,45.458L473.35,45.36L474.53,45.356L475.71,45.343L476.89,45.394L478.07,45.386L479.25,45.343L480.43,45.317L481.61,45.339L482.79,45.424L483.97,45.394L485.15,45.347L486.33,45.356L487.51,45.313L488.69,45.317L489.87,45.305L491.05,45.317L492.23,45.288L493.41,45.305L494.59,45.322L495.77,45.335L496.95,45.335L498.13,45.3L499.31,45.296L500.49,45.266L501.68,45.296L502.86,45.258L504.04,45.232L505.22,45.262L506.4,45.249L507.58,45.254L508.76,45.271L509.94,45.275L511.12,45.275L512.3,45.266L513.48,45.224L514.66,45.228L515.84,45.232L517.02,45.211L518.2,45.271L519.38,45.211L520.56,45.228L521.74,45.215L522.92,45.224L524.1,45.207L525.28,45.19L526.46,45.215L527.64,45.207L528.82,45.22L530,45.202L531.18,45.19L532.36,45.211L533.54,45.202L534.72,45.19L535.9,45.211L537.08,45.202L538.26,45.215L539.44,45.185L540.62,45.194L541.8,45.211L542.98,45.177L544.16,45.19L545.34,45.194L546.52,45.202L547.7,45.177L548.88,45.181L550.06,45.198L551.24,45.185L552.42,45.207L553.6,45.198L554.78,45.164L555.96,45.194L557.14,45.16L558.32,45.19L559.5,45.16L560.68,45.164L561.86,45.173L563.04,45.173L564.22,45.173L565.4,45.168L566.58,45.164L567.76,45.185L568.94,45.16L570.12,45.16L571.3,45.164L572.48,45.164L573.66,45.151L574.84,45.16L576.02,45.16L577.2,45.164L578.38,45.164L579.56,45.164L580.74,45.151L581.92,45.168L583.1,45.16L584.28,45.156L585.46,45.168L586.64,45.16L587.82,45.16L589.01,45.168L590.19,45.164L591.37,45.151L592.55,45.156L593.73,45.16L594.91,45.151L597.27,45.151L598.45,45.151L599.63,45.168L600.81,45.16L601.99,45.151L603.17,45.156L604.35,45.151L605.53,45.151L606.71,45.168L607.89,45.156L610.25,45.156L611.43,45.156L612.61,45.151L613.79,45.16L614.97,45.156L616.15,45.156L617.33,45.156L618.51,45.151L620.87,45.156L622.05,45.151L623.23,45.151L624.41,45.156L626.77,45.151L627.95,45.151L629.13,45.151L631.49,45.151L633.85,45.156L636.21,45.16L638.57,45.151L642.11,45.16L643.29,45.151L645.65,45.156L648.01,45.151L652.73,45.151L653.91,45.151L671.61,45.151L673.97,45.151L684.6,45.151L707.02,45.151L720,45.151" style="fill:none;stroke:#0000FF" />
</g>
</svg>
