<?xml version="1.0"?>
<!-- Generated by SVGo and Plotinum VG -->
<svg width="720pt" height="432pt" viewBox="0 0 720 432"
	xmlns="http://www.w3.org/2000/svg"
	xmlns:xlink="http://www.w3.org/1999/xlink">
<g transform="scale(1, -1) translate(0, -432)">
<path d="M0,0L720,0L720,432L0,432Z" style="fill:#FFFFFF" />
<text x="358.5" y="-420.45" transform="scale(1, -1)"
	style="font-family:Times;font-weight:normal;font-style:normal;font-size:12px"> </text>
<text x="376.81" y="-3.8613" transform="scale(1, -1)"
	style="font-family:Times;font-weight:normal;font-style:normal;font-size:12px">Costs</text>
<text x="51.555" y="-18.634" transform="scale(1, -1)"
	style="font-family:Times;font-weight:normal;font-style:normal;font-size:10px">0.00</text>
<text x="335.89" y="-18.634" transform="scale(1, -1)"
	style="font-family:Times;font-weight:normal;font-style:normal;font-size:10px">250.00</text>
<text x="625.23" y="-18.634" transform="scale(1, -1)"
	style="font-family:Times;font-weight:normal;font-style:normal;font-size:10px">500.00</text>
<path d="M60.305,28.263L60.305,36.263" style="fill:none;stroke:#000000;stroke-width:0.5" />
<path d="M349.64,28.263L349.64,36.263" style="fill:none;stroke:#000000;stroke-width:0.5" />
<path d="M638.98,28.263L638.98,36.263" style="fill:none;stroke:#000000;stroke-width:0.5" />
<path d="M118.17,32.263L118.17,36.263" style="fill:none;stroke:#000000;stroke-width:0.5" />
<path d="M176.04,32.263L176.04,36.263" style="fill:none;stroke:#000000;stroke-width:0.5" />
<path d="M233.91,32.263L233.91,36.263" style="fill:none;stroke:#000000;stroke-width:0.5" />
<path d="M291.78,32.263L291.78,36.263" style="fill:none;stroke:#000000;stroke-width:0.5" />
<path d="M407.51,32.263L407.51,36.263" style="fill:none;stroke:#000000;stroke-width:0.5" />
<path d="M465.38,32.263L465.38,36.263" style="fill:none;stroke:#000000;stroke-width:0.5" />
<path d="M523.25,32.263L523.25,36.263" style="fill:none;stroke:#000000;stroke-width:0.5" />
<path d="M581.12,32.263L581.12,36.263" style="fill:none;stroke:#000000;stroke-width:0.5" />
<path d="M696.85,32.263L696.85,36.263" style="fill:none;stroke:#000000;stroke-width:0.5" />
<path d="M60.305,36.263L720,36.263" style="fill:none;stroke:#000000;stroke-width:0.5" />
<g transform="rotate(90)">
<text x="152.55" y="11.555" transform="scale(1, -1)"
	style="font-family:Times;font-weight:normal;font-style:normal;font-size:12px">Number of trials (1000000 total)</text>
</g>
<text x="24.055" y="-68.99" transform="scale(1, -1)"
	style="font-family:Times;font-weight:normal;font-style:normal;font-size:10px">5000</text>
<text x="19.055" y="-177.19" transform="scale(1, -1)"
	style="font-family:Times;font-weight:normal;font-style:normal;font-size:10px">25000</text>
<text x="19.055" y="-285.39" transform="scale(1, -1)"
	style="font-family:Times;font-weight:normal;font-style:normal;font-size:10px">45000</text>
<text x="19.055" y="-393.59" transform="scale(1, -1)"
	style="font-family:Times;font-weight:normal;font-style:normal;font-size:10px">65000</text>
<path d="M46.555,72.196L54.555,72.196" style="fill:none;stroke:#000000;stroke-width:0.5" />
<path d="M46.555,180.4L54.555,180.4" style="fill:none;stroke:#000000;stroke-width:0.5" />
<path d="M46.555,288.59L54.555,288.59" style="fill:none;stroke:#000000;stroke-width:0.5" />
<path d="M46.555,396.79L54.555,396.79" style="fill:none;stroke:#000000;stroke-width:0.5" />
<path d="M50.555,126.3L54.555,126.3" style="fill:none;stroke:#000000;stroke-width:0.5" />
<path d="M50.555,234.5L54.555,234.5" style="fill:none;stroke:#000000;stroke-width:0.5" />
<path d="M50.555,342.69L54.555,342.69" style="fill:none;stroke:#000000;stroke-width:0.5" />
<path d="M54.555,45.151L54.555,416.58" style="fill:none;stroke:#000000;stroke-width:0.5" />
<path d="M60.305,416.58L86.924,51.871L91.553,58.833L92.711,87.728L93.868,48.587L95.025,67.76L96.183,121.66L97.34,88.258L98.498,79.727L99.655,108.64L101.97,73.516L103.13,48.506L104.28,87.966L105.44,54.992L106.6,94.296L107.76,131.26L108.91,48.484L110.07,81.88L111.23,75.123L112.39,64.427L113.54,63.102L115.86,64.644L117.02,74.257L118.17,126.02L119.33,68.901L120.49,45.205L121.64,90.741L122.8,73.245L123.96,51.135L125.12,49.366L126.27,70.567L127.43,108.75L128.59,62.734L129.75,62.81L130.9,114.12L132.06,81.793L133.22,57.93L134.38,60.732L135.53,64.47L136.69,60.299L137.85,60.494L139.01,65.239L140.16,66.472L141.32,61.733L142.48,71.298L143.63,81.69L144.79,75.539L145.95,79.613L147.11,73.083L148.26,65.412L149.42,74.603L150.58,72.374L151.74,72.006L152.89,69.659L154.05,97.109L155.21,81.382L156.37,72.483L157.52,91.185L158.68,77.281L159.84,76.93L161,73.229L162.15,77.914L163.31,87.014L164.47,82.837L165.62,91.785L166.78,86.548L167.94,81.387L169.1,87.187L170.25,79.018L171.41,72.044L172.57,70.091L173.73,75.274L174.88,84.406L176.04,68.82L177.2,78.525L178.36,82.242L179.51,78.904L180.67,75.593L181.83,70.383L182.98,70.383L184.14,74.582L185.3,75.328L186.46,69.329L187.61,70.172L188.77,84.779L189.93,78.58L191.09,68.598L192.24,73.732L193.4,78.206L194.56,67.224L195.72,68.079L196.87,72.547L198.03,77.535L199.19,72.38L200.35,71.433L201.5,77.13L202.66,75.42L203.82,73.235L204.97,74.008L206.13,71.119L207.29,72.147L208.45,69.994L209.6,71.666L210.76,73.375L211.92,73.543L213.08,73.721L214.23,72.12L215.39,74.133L216.55,74.95L217.71,70.811L218.86,70.551L220.02,71.568L221.18,72.818L222.34,71.049L223.49,69.339L224.65,74.787L225.81,70.941L226.96,69.48L228.12,70.762L229.28,69.004L230.44,68.49L231.59,68.306L232.75,68.901L233.91,67.522L235.07,68.62L236.22,69.686L237.38,68.128L238.54,66.283L239.7,66.726L240.85,65.92L242.01,64.681L243.17,64.6L244.32,64.676L245.48,64.946L246.64,65.136L247.8,64.692L248.95,64.779L250.11,64.892L251.27,65.482L252.43,63.221L253.58,63.296L254.74,63.307L255.9,63.556L257.06,63.54L258.21,62.469L259.37,63.605L260.53,63.194L261.69,61.782L262.84,61.798L264,62.901L265.16,61.419L266.31,61.262L267.47,61.306L268.63,61.874L269.79,61.327L270.94,60.927L272.1,61.176L273.26,60.532L274.42,60.332L275.57,59.472L276.73,59.531L277.89,59.401L279.05,58.574L280.2,58.574L281.36,58.476L282.52,59.093L283.68,58.633L284.83,57.789L285.99,58.427L287.15,57.989L288.3,57.519L289.46,57.134L290.62,57.08L291.78,56.988L292.93,56.815L294.09,56.875L295.25,57.21L296.41,56.128L297.56,56.388L298.72,56.226L299.88,55.452L301.04,55.349L302.19,54.835L303.35,55.1L304.51,54.841L305.67,54.657L306.82,54.597L307.98,54.716L309.14,53.97L310.29,54.722L311.45,53.953L312.61,53.769L313.77,53.613L314.92,53.418L316.08,53.131L317.24,53.456L318.4,53.672L319.55,53.115L320.71,52.806L321.87,52.85L323.03,52.655L324.18,52.32L325.34,52.476L326.5,52.125L327.65,51.968L328.81,51.568L329.97,51.93L331.13,51.871L332.28,51.486L333.44,51.4L334.6,51.589L335.76,51.016L336.91,51.119L338.07,50.762L339.23,50.648L340.39,50.686L341.54,50.345L342.7,50.172L343.86,50.101L345.02,50.399L346.17,50.02L347.33,49.939L348.49,49.847L349.64,49.869L350.8,49.55L351.96,49.717L353.12,49.701L354.27,49.414L355.43,49.268L356.59,49.317L357.75,49.095L358.9,48.771L360.06,48.852L361.22,48.933L362.38,48.722L363.53,48.603L364.69,48.608L365.85,48.338L367.01,48.295L368.16,48.462L369.32,48.354L370.48,48.278L371.63,48.127L372.79,47.873L373.95,48.024L375.11,47.9L376.26,47.921L377.42,47.948L378.58,47.818L379.74,47.613L380.89,47.564L382.05,47.478L383.21,47.694L384.37,47.207L385.52,47.424L386.68,47.164L387.84,47.342L388.99,47.391L390.15,47.315L391.31,47.294L392.47,47.218L393.62,47.11L394.78,46.958L395.94,47.056L397.1,46.915L398.25,46.861L399.41,46.834L400.57,46.758L401.73,46.801L402.88,46.623L404.04,46.704L405.2,46.726L406.36,46.688L407.51,46.461L408.67,46.471L409.83,46.639L410.98,46.401L412.14,46.488L413.3,46.461L414.46,46.39L415.61,46.304L416.77,46.315L417.93,46.293L419.09,46.158L420.24,46.266L421.4,46.098L422.56,46.168L423.72,46.125L424.87,46.212L426.03,45.974L427.19,46.114L428.35,46.006L429.5,45.947L430.66,45.979L431.82,45.871L432.97,45.828L434.13,45.957L435.29,45.871L436.45,45.849L437.6,45.698L438.76,45.79L439.92,45.838L441.08,45.79L442.23,45.698L443.39,45.833L444.55,45.665L445.71,45.79L446.86,45.649L448.02,45.763L449.18,45.698L450.34,45.503L451.49,45.6L452.65,45.611L453.81,45.638L454.96,45.579L456.12,45.535L457.28,45.541L458.44,45.59L459.59,45.535L460.75,45.433L461.91,45.584L463.07,45.546L464.22,45.444L465.38,45.546L466.54,45.427L467.7,45.46L468.85,45.471L470.01,45.487L471.17,45.46L472.32,45.433L473.48,45.341L474.64,45.427L475.8,45.444L476.95,45.346L478.11,45.395L479.27,45.406L480.43,45.411L481.58,45.416L482.74,45.352L483.9,45.314L485.06,45.346L486.21,45.335L487.37,45.335L488.53,45.357L489.69,45.319L490.84,45.352L492,45.287L493.16,45.33L494.31,45.341L495.47,45.319L496.63,45.287L497.79,45.341L498.94,45.276L500.1,45.324L501.26,45.297L502.42,45.27L503.57,45.265L504.73,45.254L505.89,45.254L507.05,45.216L508.2,45.26L509.36,45.233L510.52,45.297L511.68,45.222L512.83,45.281L513.99,45.249L515.15,45.238L516.3,45.211L517.46,45.216L518.62,45.216L519.78,45.216L520.93,45.238L522.09,45.227L523.25,45.233L524.41,45.211L525.56,45.233L526.72,45.216L527.88,45.195L529.04,45.211L530.19,45.233L531.35,45.222L532.51,45.2L533.67,45.222L534.82,45.189L535.98,45.189L537.14,45.2L538.29,45.2L539.45,45.189L540.61,45.173L541.77,45.205L542.92,45.189L544.08,45.211L545.24,45.184L546.4,45.168L547.55,45.184L548.71,45.205L549.87,45.2L551.03,45.189L552.18,45.189L553.34,45.168L554.5,45.173L555.65,45.178L556.81,45.162L557.97,45.151L559.13,45.162L560.28,45.151L561.44,45.184L563.76,45.184L564.91,45.151L566.07,45.157L567.23,45.157L568.39,45.189L569.54,45.178L570.7,45.189L571.86,45.151L573.02,45.173L574.17,45.151L575.33,45.151L576.49,45.168L577.64,45.162L578.8,45.157L579.96,45.157L581.12,45.162L582.27,45.151L583.43,45.151L584.59,45.151L585.75,45.157L586.9,45.162L588.06,45.162L589.22,45.151L590.38,45.157L592.69,45.162L593.85,45.162L595.01,45.157L597.32,45.151L598.48,45.151L599.63,45.157L600.79,45.162L601.95,45.151L603.11,45.151L604.26,45.151L605.42,45.162L606.58,45.157L607.74,45.151L611.21,45.151L612.37,45.151L614.68,45.151L618.15,45.151L620.47,45.151L621.62,45.151L625.1,45.157L627.41,45.151L628.57,45.151L630.88,45.151L635.51,45.151L640.14,45.151L648.24,45.151L655.19,45.151L656.35,45.157L658.66,45.151L663.29,45.151L664.45,45.151L669.08,45.151L695.7,45.151L720,45.151" style="fill:none;stroke:#0000FF" />
</g>
</svg>
