<?xml version="1.0"?>
<!-- Generated by SVGo and Plotinum VG -->
<svg width="720pt" height="432pt" viewBox="0 0 720 432"
	xmlns="http://www.w3.org/2000/svg"
	xmlns:xlink="http://www.w3.org/1999/xlink">
<g transform="scale(1, -1) translate(0, -432)">
<path d="M0,0L720,0L720,432L0,432Z" style="fill:#FFFFFF" />
<text x="358.5" y="-420.45" transform="scale(1, -1)"
	style="font-family:Times;font-weight:normal;font-style:normal;font-size:12px"> </text>
<text x="377.57" y="-3.8613" transform="scale(1, -1)"
	style="font-family:Times;font-weight:normal;font-style:normal;font-size:12px">Costs</text>
<text x="56.555" y="-18.634" transform="scale(1, -1)"
	style="font-family:Times;font-weight:normal;font-style:normal;font-size:10px">0.00</text>
<text x="372.03" y="-18.634" transform="scale(1, -1)"
	style="font-family:Times;font-weight:normal;font-style:normal;font-size:10px">250.00</text>
<text x="692.5" y="-18.634" transform="scale(1, -1)"
	style="font-family:Times;font-weight:normal;font-style:normal;font-size:10px">500.00</text>
<path d="M65.305,28.263L65.305,36.263" style="fill:none;stroke:#000000;stroke-width:0.5" />
<path d="M385.78,28.263L385.78,36.263" style="fill:none;stroke:#000000;stroke-width:0.5" />
<path d="M706.25,28.263L706.25,36.263" style="fill:none;stroke:#000000;stroke-width:0.5" />
<path d="M129.4,32.263L129.4,36.263" style="fill:none;stroke:#000000;stroke-width:0.5" />
<path d="M193.49,32.263L193.49,36.263" style="fill:none;stroke:#000000;stroke-width:0.5" />
<path d="M257.59,32.263L257.59,36.263" style="fill:none;stroke:#000000;stroke-width:0.5" />
<path d="M321.68,32.263L321.68,36.263" style="fill:none;stroke:#000000;stroke-width:0.5" />
<path d="M449.87,32.263L449.87,36.263" style="fill:none;stroke:#000000;stroke-width:0.5" />
<path d="M513.97,32.263L513.97,36.263" style="fill:none;stroke:#000000;stroke-width:0.5" />
<path d="M578.06,32.263L578.06,36.263" style="fill:none;stroke:#000000;stroke-width:0.5" />
<path d="M642.16,32.263L642.16,36.263" style="fill:none;stroke:#000000;stroke-width:0.5" />
<path d="M65.305,36.263L716.51,36.263" style="fill:none;stroke:#000000;stroke-width:0.5" />
<g transform="rotate(90)">
<text x="152.55" y="11.555" transform="scale(1, -1)"
	style="font-family:Times;font-weight:normal;font-style:normal;font-size:12px">Number of trials (1000000 total)</text>
</g>
<text x="24.055" y="-111.14" transform="scale(1, -1)"
	style="font-family:Times;font-weight:normal;font-style:normal;font-size:10px">40000</text>
<text x="19.055" y="-249.53" transform="scale(1, -1)"
	style="font-family:Times;font-weight:normal;font-style:normal;font-size:10px">120000</text>
<text x="19.055" y="-387.92" transform="scale(1, -1)"
	style="font-family:Times;font-weight:normal;font-style:normal;font-size:10px">200000</text>
<path d="M51.555,114.35L59.555,114.35" style="fill:none;stroke:#000000;stroke-width:0.5" />
<path d="M51.555,252.74L59.555,252.74" style="fill:none;stroke:#000000;stroke-width:0.5" />
<path d="M51.555,391.13L59.555,391.13" style="fill:none;stroke:#000000;stroke-width:0.5" />
<path d="M55.555,183.54L59.555,183.54" style="fill:none;stroke:#000000;stroke-width:0.5" />
<path d="M55.555,321.93L59.555,321.93" style="fill:none;stroke:#000000;stroke-width:0.5" />
<path d="M59.555,45.151L59.555,416.58" style="fill:none;stroke:#000000;stroke-width:0.5" />
<path d="M65.305,416.58L96.07,59.21L98.634,73.667L99.916,55.515L101.2,58.826L102.48,63.051L103.76,55.588L105.04,48.606L106.33,52.054L107.61,55.87L108.89,52.097L110.17,83.88L111.45,48.596L112.73,48.611L114.02,73.105L115.3,70.309L116.58,58.966L117.86,55.586L119.14,65.858L120.43,59.07L121.71,52.087L122.99,51.981L124.27,66.73L126.84,55.693L128.12,73.987L129.4,74.703L130.68,45.534L131.96,46.193L133.24,88.773L134.53,67.905L135.81,53.92L137.09,64.275L138.37,57.124L139.65,53.559L140.94,51.658L142.22,60.724L143.5,56.157L144.78,52.042L146.06,65.881L147.35,50.218L148.63,49.772L149.91,49.135L151.19,68.322L152.47,51.078L153.76,50.025L155.04,50.786L156.32,49.443L157.6,50.908L158.88,52.055L160.16,52.241L161.45,51.725L162.73,52.258L164.01,57.57L165.29,52.469L166.57,54.062L167.86,63.68L169.14,72.082L170.42,54L171.7,54.027L172.98,55.069L174.27,54.429L175.55,52.317L176.83,53.718L178.11,58.098L179.39,55.731L180.67,51.777L181.96,56.662L183.24,55.839L184.52,54.521L185.8,52.82L187.08,55.82L188.37,54.647L189.65,51.613L190.93,53.758L192.21,54.687L193.49,51.298L194.78,51.524L196.06,55.827L197.34,54.418L198.62,51.296L199.9,52.983L201.19,54.541L202.47,54.1L203.75,51.408L205.03,54.337L206.31,53.358L207.59,51.102L208.88,51.178L210.16,52.817L211.44,50.654L212.72,51.512L214,54.699L215.29,51.742L216.57,50.268L217.85,51.824L219.13,52.183L220.41,50.919L221.7,50.372L222.98,51.841L224.26,50.087L225.54,49.692L226.82,50.376L228.1,50.81L229.39,49.388L230.67,50.229L231.95,52.407L233.23,50.723L234.51,48.942L235.8,50.384L237.08,51.82L238.36,50.21L239.64,49.703L240.92,50.535L242.21,49.872L243.49,49.198L244.77,49.5L246.05,50.042L247.33,49.62L248.62,49.49L249.9,49.954L251.18,49.16L252.46,48.628L253.74,49.22L255.02,50.071L256.31,48.857L257.59,48.462L258.87,48.76L260.15,48.82L261.43,48.284L262.72,48.319L264,48.731L265.28,48.563L266.56,48.263L267.84,48.545L269.13,48.329L270.41,48.158L271.69,48.5L272.97,48.089L274.25,48.065L275.53,47.888L276.82,48.011L278.1,47.987L279.38,47.568L280.66,47.746L281.94,48.068L283.23,47.755L284.51,47.511L285.79,47.625L287.07,47.573L288.35,47.428L289.64,47.338L290.92,47.546L292.2,47.194L293.48,47.077L294.76,47.347L296.04,47.198L297.33,46.978L298.61,47.113L299.89,47.248L301.17,47.02L302.45,46.812L303.74,47.096L305.02,46.976L306.3,46.791L307.58,46.75L308.86,46.852L310.15,46.703L311.43,46.658L312.71,46.67L313.99,46.698L315.27,46.492L316.56,46.606L317.84,46.637L319.12,46.537L320.4,46.437L321.68,46.497L322.96,46.568L324.25,46.309L325.53,46.336L326.81,46.324L328.09,46.238L329.37,46.163L330.66,46.177L331.94,46.274L333.22,46.189L334.5,46.153L335.78,46.201L337.07,46.037L338.35,46.054L339.63,46.111L340.91,46.047L342.19,46.037L343.47,45.906L344.76,45.913L346.04,45.947L347.32,45.921L348.6,45.854L349.88,45.893L351.17,45.878L352.45,45.895L353.73,45.862L355.01,45.824L356.29,45.772L357.58,45.752L358.86,45.746L360.14,45.741L361.42,45.727L362.7,45.776L363.99,45.722L365.27,45.648L366.55,45.625L367.83,45.689L369.11,45.703L370.39,45.618L371.68,45.648L372.96,45.596L374.24,45.613L375.52,45.577L376.8,45.594L378.09,45.537L379.37,45.508L380.65,45.579L381.93,45.567L383.21,45.515L384.5,45.556L385.78,45.522L387.06,45.487L388.34,45.466L389.62,45.515L390.9,45.48L392.19,45.451L393.47,45.454L394.75,45.454L396.03,45.421L397.31,45.418L398.6,45.378L399.88,45.418L401.16,45.394L402.44,45.399L403.72,45.402L405.01,45.357L406.29,45.328L407.57,45.369L408.85,45.406L410.13,45.378L411.42,45.336L412.7,45.381L413.98,45.319L415.26,45.324L416.54,45.333L417.82,45.333L419.11,45.333L420.39,45.314L421.67,45.314L422.95,45.312L424.23,45.298L425.52,45.274L426.8,45.283L428.08,45.317L429.36,45.293L430.64,45.29L431.93,45.278L433.21,45.25L434.49,45.243L435.77,45.257L437.05,45.247L438.33,45.26L439.62,45.255L440.9,45.231L442.18,45.269L443.46,45.227L444.74,45.253L446.03,45.222L447.31,45.224L448.59,45.233L449.87,45.234L451.15,45.224L452.44,45.202L453.72,45.221L455,45.221L456.28,45.217L457.56,45.217L458.85,45.212L460.13,45.195L461.41,45.212L462.69,45.215L463.97,45.2L465.25,45.196L466.54,45.208L467.82,45.207L469.1,45.195L470.38,45.191L471.66,45.215L472.95,45.177L474.23,45.198L475.51,45.196L476.79,45.198L478.07,45.188L479.36,45.174L480.64,45.177L481.92,45.184L483.2,45.189L484.48,45.188L485.76,45.188L487.05,45.17L488.33,45.186L489.61,45.165L490.89,45.177L492.17,45.184L493.46,45.165L494.74,45.174L496.02,45.179L497.3,45.17L498.58,45.174L499.87,45.176L501.15,45.165L502.43,45.184L503.71,45.169L504.99,45.162L506.28,45.162L507.56,45.167L508.84,45.162L510.12,45.163L511.4,45.165L512.68,45.167L513.97,45.16L515.25,45.172L516.53,45.16L517.81,45.158L519.09,45.163L520.38,45.155L521.66,45.163L522.94,45.157L524.22,45.163L525.5,45.162L526.79,45.162L528.07,45.157L529.35,45.158L530.63,45.169L531.91,45.162L533.19,45.153L534.48,45.155L535.76,45.153L537.04,45.153L538.32,45.157L539.6,45.155L540.89,45.162L542.17,45.153L543.45,45.151L544.73,45.155L546.01,45.162L547.3,45.153L548.58,45.151L549.86,45.16L551.14,45.153L552.42,45.151L553.71,45.157L554.99,45.155L556.27,45.153L557.55,45.16L558.83,45.153L561.4,45.151L562.68,45.16L565.24,45.153L566.52,45.153L567.81,45.155L569.09,45.155L570.37,45.157L571.65,45.151L572.93,45.155L574.22,45.153L575.5,45.153L576.78,45.153L578.06,45.151L579.34,45.151L580.62,45.157L581.91,45.158L583.19,45.153L584.47,45.151L588.32,45.153L589.6,45.151L592.16,45.153L594.73,45.151L599.85,45.151L608.83,45.151L612.67,45.151L613.95,45.151L616.52,45.151L621.65,45.151L630.62,45.155L642.16,45.151L648.56,45.151L652.41,45.151L663.95,45.151L666.51,45.151L670.36,45.151L687.02,45.151L693.43,45.151L716.51,45.151" style="fill:none;stroke:#0000FF" />
</g>
</svg>
