<?xml version="1.0"?>
<!-- Generated by SVGo and Plotinum VG -->
<svg width="720pt" height="432pt" viewBox="0 0 720 432"
	xmlns="http://www.w3.org/2000/svg"
	xmlns:xlink="http://www.w3.org/1999/xlink">
<g transform="scale(1, -1) translate(0, -432)">
<path d="M0,0L720,0L720,432L0,432Z" style="fill:#FFFFFF" />
<text x="358.5" y="-420.45" transform="scale(1, -1)"
	style="font-family:Times;font-weight:normal;font-style:normal;font-size:12px"> </text>
<text x="385.56" y="-3.8613" transform="scale(1, -1)"
	style="font-family:Times;font-weight:normal;font-style:normal;font-size:12px">Costs</text>
<text x="75.305" y="-18.634" transform="scale(1, -1)"
	style="font-family:Times;font-weight:normal;font-style:normal;font-size:10px">0</text>
<text x="350.13" y="-18.634" transform="scale(1, -1)"
	style="font-family:Times;font-weight:normal;font-style:normal;font-size:10px">200</text>
<text x="629.95" y="-18.634" transform="scale(1, -1)"
	style="font-family:Times;font-weight:normal;font-style:normal;font-size:10px">400</text>
<path d="M77.805,28.263L77.805,36.263" style="fill:none;stroke:#000000;stroke-width:0.5" />
<path d="M357.63,28.263L357.63,36.263" style="fill:none;stroke:#000000;stroke-width:0.5" />
<path d="M637.45,28.263L637.45,36.263" style="fill:none;stroke:#000000;stroke-width:0.5" />
<path d="M217.72,32.263L217.72,36.263" style="fill:none;stroke:#000000;stroke-width:0.5" />
<path d="M497.54,32.263L497.54,36.263" style="fill:none;stroke:#000000;stroke-width:0.5" />
<path d="M77.805,36.263L720,36.263" style="fill:none;stroke:#000000;stroke-width:0.5" />
<g transform="rotate(90)">
<text x="149.37" y="11.555" transform="scale(1, -1)"
	style="font-family:Times;font-weight:normal;font-style:normal;font-size:12px">Number of trials (1000000 total)</text>
</g>
<text x="24.055" y="-82.501" transform="scale(1, -1)"
	style="font-family:Times;font-weight:normal;font-style:normal;font-size:10px">25000.00</text>
<text x="19.055" y="-244.73" transform="scale(1, -1)"
	style="font-family:Times;font-weight:normal;font-style:normal;font-size:10px">125000.00</text>
<text x="19.055" y="-406.96" transform="scale(1, -1)"
	style="font-family:Times;font-weight:normal;font-style:normal;font-size:10px">225000.00</text>
<path d="M64.055,85.707L72.055,85.707" style="fill:none;stroke:#000000;stroke-width:0.5" />
<path d="M64.055,247.93L72.055,247.93" style="fill:none;stroke:#000000;stroke-width:0.5" />
<path d="M64.055,410.16L72.055,410.16" style="fill:none;stroke:#000000;stroke-width:0.5" />
<path d="M68.055,166.82L72.055,166.82" style="fill:none;stroke:#000000;stroke-width:0.5" />
<path d="M68.055,329.05L72.055,329.05" style="fill:none;stroke:#000000;stroke-width:0.5" />
<path d="M72.055,45.151L72.055,410.23" style="fill:none;stroke:#000000;stroke-width:0.5" />
<path d="M77.805,410.23L108.59,48.44L109.98,48.417L114.18,69.836L115.58,48.464L116.98,61.995L118.38,51.91L119.78,51.76L122.58,48.484L123.98,59.103L125.37,76.299L126.77,86.753L128.17,55.474L130.97,55.725L132.37,79.638L133.77,75.668L135.17,66.163L136.57,51.981L137.97,58.694L139.37,66.186L140.77,45.185L142.16,62.742L144.96,55.98L146.36,73.028L147.76,62.398L149.16,45.323L150.56,45.69L151.96,69.605L153.36,73.663L154.76,49.173L156.16,60.076L157.55,52.856L158.95,52.916L160.35,56.726L161.75,61.541L163.15,66.588L164.55,48.584L165.95,51.913L167.35,47.887L168.75,48.754L170.15,48.947L171.55,64.39L172.94,50.654L174.34,52.335L175.74,50.79L177.14,55.342L178.54,50.516L179.94,55.098L181.34,54.586L182.74,54.233L184.14,52.46L185.54,61.922L186.94,52.411L188.34,54.517L189.73,59.687L191.13,62.489L192.53,53.428L193.93,54.885L195.33,55.151L196.73,52.693L198.13,51.003L199.53,54.027L200.93,56.339L202.33,56.958L203.73,52.544L205.12,51.118L206.52,53.011L207.92,56.012L209.32,54.922L210.72,54.637L212.12,53.165L213.52,52.86L214.92,51.892L216.32,53.104L217.72,53.162L219.12,51.934L220.51,53.649L221.91,52.946L223.31,50.943L224.71,50.716L226.11,52.015L227.51,53.584L228.91,51.193L230.31,52.069L231.71,52.515L233.11,51.671L234.51,50.863L235.91,51.47L237.3,51.504L238.7,52.568L240.1,52.414L241.5,51.593L242.9,49.369L244.3,50.24L245.7,51.754L247.1,52.005L248.5,49.921L249.9,50.578L251.3,49.934L252.69,49.945L254.09,50.127L255.49,50.562L256.89,50.219L258.29,49.849L259.69,50.495L261.09,50.015L262.49,49.058L263.89,49.89L265.29,50.231L266.69,49.481L268.08,49.355L269.48,49.629L270.88,49.858L272.28,48.787L273.68,49.379L275.08,49.36L276.48,49.385L277.88,48.727L279.28,49.04L280.68,48.388L282.08,48.292L283.48,48.621L284.87,48.896L286.27,48.496L287.67,48.462L289.07,48.375L290.47,48.198L291.87,48.107L293.27,48.276L294.67,48.183L296.07,48.18L297.47,48.107L298.87,47.997L300.26,47.804L301.66,47.948L303.06,47.908L304.46,47.624L305.86,47.726L307.26,47.684L308.66,47.633L310.06,47.633L311.46,47.372L312.86,47.423L314.26,47.442L315.65,47.617L317.05,47.337L318.45,47.075L319.85,47.207L321.25,47.254L322.65,47.207L324.05,47.127L325.45,47.056L326.85,46.929L328.25,46.866L329.65,46.905L331.05,46.886L332.44,46.772L333.84,46.868L335.24,46.754L336.64,46.72L338.04,46.697L339.44,46.667L340.84,46.678L342.24,46.538L343.64,46.548L345.04,46.491L346.44,46.477L347.83,46.477L349.23,46.456L350.63,46.41L352.03,46.37L353.43,46.399L354.83,46.41L356.23,46.201L357.63,46.229L359.03,46.211L360.43,46.191L361.83,46.143L363.22,46.154L364.62,46.076L366.02,46.058L367.42,46.081L368.82,46.066L370.22,46.044L371.62,45.958L373.02,45.98L374.42,45.972L375.82,45.963L377.22,45.927L378.62,45.932L380.01,45.839L381.41,45.854L382.81,45.865L384.21,45.81L385.61,45.846L387.01,45.792L388.41,45.734L389.81,45.724L391.21,45.716L392.61,45.729L394.01,45.68L395.4,45.666L396.8,45.688L398.2,45.656L399.6,45.648L401,45.619L402.4,45.585L403.8,45.641L405.2,45.602L406.6,45.61L408,45.578L409.4,45.565L410.79,45.56L412.19,45.541L413.59,45.557L414.99,45.529L416.39,45.474L417.79,45.458L419.19,45.477L420.59,45.474L421.99,45.443L423.39,45.463L424.79,45.453L426.19,45.434L427.58,45.463L428.98,45.413L430.38,45.435L431.78,45.393L433.18,45.364L434.58,45.406L435.98,45.335L437.38,45.404L438.78,45.393L440.18,45.359L441.58,45.351L442.97,45.349L444.37,45.335L445.77,45.325L447.17,45.317L448.57,45.325L449.97,45.305L451.37,45.317L452.77,45.325L454.17,45.309L455.57,45.333L456.97,45.293L458.36,45.301L459.76,45.278L461.16,45.28L462.56,45.305L463.96,45.283L465.36,45.276L466.76,45.289L468.16,45.276L469.56,45.278L470.96,45.242L472.36,45.262L473.76,45.27L475.15,45.265L476.55,45.232L477.95,45.247L479.35,45.245L480.75,45.237L482.15,45.242L483.55,45.249L484.95,45.252L486.35,45.234L487.75,45.242L489.15,45.232L490.54,45.236L491.94,45.231L493.34,45.22L494.74,45.228L496.14,45.213L497.54,45.203L498.94,45.239L500.34,45.216L501.74,45.197L503.14,45.22L504.54,45.221L505.93,45.187L507.33,45.202L508.73,45.202L510.13,45.184L511.53,45.198L512.93,45.194L514.33,45.194L515.73,45.198L517.13,45.187L518.53,45.185L519.93,45.181L521.33,45.176L522.72,45.176L524.12,45.179L525.52,45.182L526.92,45.184L528.32,45.177L529.72,45.189L531.12,45.172L532.52,45.177L533.92,45.176L535.32,45.171L536.72,45.168L538.11,45.177L539.51,45.182L540.91,45.181L542.31,45.169L543.71,45.179L545.11,45.174L546.51,45.158L547.91,45.176L549.31,45.163L550.71,45.163L552.11,45.161L553.5,45.172L554.9,45.171L556.3,45.163L557.7,45.163L559.1,45.168L560.5,45.158L561.9,45.163L563.3,45.156L564.7,45.163L566.1,45.156L567.5,45.158L568.9,45.158L570.29,45.155L571.69,45.159L573.09,45.161L574.49,45.155L575.89,45.155L577.29,45.159L578.69,45.161L580.09,45.163L581.49,45.158L582.89,45.163L584.29,45.155L585.68,45.155L587.08,45.163L588.48,45.158L589.88,45.155L591.28,45.151L592.68,45.155L594.08,45.153L595.48,45.156L596.88,45.155L598.28,45.159L599.68,45.155L602.47,45.156L603.87,45.153L605.27,45.155L606.67,45.151L608.07,45.156L609.47,45.155L610.87,45.155L612.27,45.156L613.67,45.156L615.07,45.156L616.47,45.151L617.86,45.158L619.26,45.151L624.86,45.151L630.46,45.151L633.25,45.151L634.65,45.153L637.45,45.151L643.05,45.155L645.85,45.151L647.25,45.151L648.64,45.153L651.44,45.153L652.84,45.151L654.24,45.151L655.64,45.156L657.04,45.151L658.44,45.153L664.04,45.151L665.43,45.155L671.03,45.151L679.43,45.151L680.82,45.151L686.42,45.151L692.02,45.151L697.61,45.151L708.81,45.151L720,45.151" style="fill:none;stroke:#0000FF" />
</g>
</svg>
