<?xml version="1.0"?>
<!-- Generated by SVGo and Plotinum VG -->
<svg width="720pt" height="432pt" viewBox="0 0 720 432"
	xmlns="http://www.w3.org/2000/svg"
	xmlns:xlink="http://www.w3.org/1999/xlink">
<g transform="scale(1, -1) translate(0, -432)">
<path d="M0,0L720,0L720,432L0,432Z" style="fill:#FFFFFF" />
<text x="358.5" y="-420.45" transform="scale(1, -1)"
	style="font-family:Times;font-weight:normal;font-style:normal;font-size:12px"> </text>
<text x="376.81" y="-3.8613" transform="scale(1, -1)"
	style="font-family:Times;font-weight:normal;font-style:normal;font-size:12px">Costs</text>
<text x="57.805" y="-18.634" transform="scale(1, -1)"
	style="font-family:Times;font-weight:normal;font-style:normal;font-size:10px">0</text>
<text x="333.92" y="-18.634" transform="scale(1, -1)"
	style="font-family:Times;font-weight:normal;font-style:normal;font-size:10px">300</text>
<text x="615.05" y="-18.634" transform="scale(1, -1)"
	style="font-family:Times;font-weight:normal;font-style:normal;font-size:10px">600</text>
<path d="M60.305,28.263L60.305,36.263" style="fill:none;stroke:#000000;stroke-width:0.5" />
<path d="M341.42,28.263L341.42,36.263" style="fill:none;stroke:#000000;stroke-width:0.5" />
<path d="M622.55,28.263L622.55,36.263" style="fill:none;stroke:#000000;stroke-width:0.5" />
<path d="M154.01,32.263L154.01,36.263" style="fill:none;stroke:#000000;stroke-width:0.5" />
<path d="M247.72,32.263L247.72,36.263" style="fill:none;stroke:#000000;stroke-width:0.5" />
<path d="M435.13,32.263L435.13,36.263" style="fill:none;stroke:#000000;stroke-width:0.5" />
<path d="M528.84,32.263L528.84,36.263" style="fill:none;stroke:#000000;stroke-width:0.5" />
<path d="M716.25,32.263L716.25,36.263" style="fill:none;stroke:#000000;stroke-width:0.5" />
<path d="M60.305,36.263L720,36.263" style="fill:none;stroke:#000000;stroke-width:0.5" />
<g transform="rotate(90)">
<text x="152.55" y="11.555" transform="scale(1, -1)"
	style="font-family:Times;font-weight:normal;font-style:normal;font-size:12px">Number of trials (1000000 total)</text>
</g>
<text x="19.055" y="-89.675" transform="scale(1, -1)"
	style="font-family:Times;font-weight:normal;font-style:normal;font-size:10px">10000</text>
<text x="19.055" y="-232.88" transform="scale(1, -1)"
	style="font-family:Times;font-weight:normal;font-style:normal;font-size:10px">40000</text>
<text x="19.055" y="-376.08" transform="scale(1, -1)"
	style="font-family:Times;font-weight:normal;font-style:normal;font-size:10px">70000</text>
<path d="M46.555,92.881L54.555,92.881" style="fill:none;stroke:#000000;stroke-width:0.5" />
<path d="M46.555,236.08L54.555,236.08" style="fill:none;stroke:#000000;stroke-width:0.5" />
<path d="M46.555,379.28L54.555,379.28" style="fill:none;stroke:#000000;stroke-width:0.5" />
<path d="M50.555,140.61L54.555,140.61" style="fill:none;stroke:#000000;stroke-width:0.5" />
<path d="M50.555,188.35L54.555,188.35" style="fill:none;stroke:#000000;stroke-width:0.5" />
<path d="M50.555,283.82L54.555,283.82" style="fill:none;stroke:#000000;stroke-width:0.5" />
<path d="M50.555,331.55L54.555,331.55" style="fill:none;stroke:#000000;stroke-width:0.5" />
<path d="M54.555,45.151L54.555,416.58" style="fill:none;stroke:#000000;stroke-width:0.5" />
<path d="M60.305,416.58L81.857,48.846L84.668,96.375L85.606,51.829L89.354,99.387L90.291,48.431L91.228,55.347L92.165,136.74L93.102,82.255L95.913,66.851L96.85,138.89L97.787,96.117L98.724,116.96L100.6,81.725L101.54,55.825L103.41,59.295L106.22,78.785L107.16,52.092L108.1,52.221L109.97,56.154L110.91,45.724L111.84,45.17L112.78,77.276L113.72,122.72L114.65,79.816L115.59,46.665L116.53,65.3L117.47,90.074L118.4,98.652L119.34,67.949L120.28,50.106L121.21,71.606L122.15,60.359L123.09,104.28L124.03,54.994L124.96,62.856L125.9,60.603L126.84,75.133L127.77,65.801L128.71,86.432L129.65,75.009L130.58,74.513L131.52,55.037L132.46,63.161L133.4,61.262L134.33,64.703L135.27,85.506L136.21,92.637L137.14,64.861L138.08,71.691L139.02,68.111L139.96,54.789L140.89,49.271L141.83,63.348L142.77,72.641L143.7,64.207L144.64,66.274L145.58,72.388L146.51,74.56L147.45,66.57L148.39,58.746L149.33,72.059L150.26,89.425L151.2,85.229L152.14,76.393L153.07,67.076L154.01,75.711L154.95,86.231L155.89,77.568L156.82,66.045L157.76,63.586L158.7,68.823L159.63,80.565L160.57,73.897L161.51,69.104L162.45,56.951L163.38,67.319L164.32,66.164L165.26,68.975L166.19,67.338L167.13,74.221L168.07,73.348L169,64.99L169.94,60.856L170.88,71.62L171.82,75.41L172.75,75.582L173.69,66.045L174.63,69.878L175.56,71.687L176.5,73.524L177.44,63.467L178.38,59.944L179.31,64.789L180.25,68.026L181.19,71.4L182.12,71.267L183.06,67.663L184,67.825L184.93,64.76L185.87,65.873L186.81,65.553L187.75,68.345L188.68,70.732L189.62,73.314L190.56,65.524L191.49,67.93L192.43,68.837L193.37,67.491L194.31,63.968L195.24,65.071L196.18,65.076L197.12,66.164L198.05,64.102L198.99,64.665L199.93,62.321L200.86,63.276L201.8,62.732L202.74,64.04L203.68,65.286L204.61,68.054L205.55,64.188L206.49,62.493L207.42,63.524L208.36,65.472L209.3,65.505L210.24,62.336L211.17,63.114L212.11,63.548L213.05,65.729L213.98,64.651L214.92,60.135L215.86,59.271L216.79,60.622L217.73,62.756L218.67,62.889L219.61,61.3L220.54,61.128L221.48,61.729L222.42,61.061L223.35,59.309L224.29,59.954L225.23,60.951L226.17,62.407L227.1,61.147L228.04,60.307L228.98,59.954L229.91,60.732L230.85,60.76L231.79,58.522L232.73,57.72L233.66,59.166L234.6,59.758L235.54,59.242L236.47,57.83L237.41,57.519L238.35,57.858L239.28,57.376L240.22,57.333L241.16,57.963L242.1,57.495L243.03,57.691L243.97,56.727L244.91,57.581L245.84,57.118L246.78,57.176L247.72,57.114L248.66,56.383L249.59,55.963L250.53,56.927L251.47,56.264L252.4,55.495L253.34,55.171L254.28,55.448L255.21,55.347L256.15,55.491L257.09,55.629L258.03,55.051L258.96,55.271L259.9,54.607L260.84,54.221L261.77,54.407L262.71,54.316L263.65,54.574L264.59,53.519L265.52,53.982L266.46,54.078L267.4,54.307L268.33,53.209L269.27,52.679L270.21,52.994L271.14,53.514L272.08,53.128L273.02,53.233L273.96,52.622L274.89,52.421L275.83,52.603L276.77,52.302L277.7,52.111L278.64,52.14L279.58,52.264L280.52,52.063L281.45,51.591L282.39,51.524L283.33,51.858L284.26,52.025L285.2,51.209L286.14,51.032L287.07,51.395L288.01,51.07L288.95,51.08L289.89,50.918L290.82,50.526L291.76,50.851L292.7,50.727L293.63,50.751L294.57,50.364L295.51,50.345L296.45,50.421L297.38,50.039L298.32,49.968L299.26,49.748L300.19,49.729L301.13,49.839L302.07,49.49L303.01,49.715L303.94,49.591L304.88,49.648L305.82,49.295L306.75,49.228L307.69,49.075L308.63,49.199L309.56,49.027L310.5,49.089L311.44,48.521L312.38,48.946L313.31,48.822L314.25,48.474L315.19,48.712L316.12,48.645L317.06,48.292L318,48.297L318.94,48.259L319.87,48.283L320.81,48.235L321.75,48.173L322.68,47.958L323.62,48.073L324.56,48.073L325.49,47.801L326.43,47.877L327.37,47.662L328.31,47.605L329.24,47.777L330.18,47.457L331.12,47.662L332.05,47.395L332.99,47.4L333.93,47.424L334.87,47.357L335.8,47.357L336.74,47.213L337.68,47.357L338.61,47.175L339.55,47.223L340.49,47.104L341.42,47.142L342.36,47.266L343.3,47.066L344.24,47.108L345.17,46.946L346.11,46.932L347.05,46.98L347.98,46.951L348.92,46.898L349.86,46.86L350.8,46.698L351.73,46.617L352.67,46.688L353.61,46.622L354.54,46.474L355.48,46.631L356.42,46.636L357.35,46.56L358.29,46.321L359.23,46.507L360.17,46.588L361.1,46.373L362.04,46.321L362.98,46.302L363.91,46.221L364.85,46.307L365.79,46.211L366.73,46.211L367.66,46.235L368.6,46.149L369.54,46.197L370.47,46.101L371.41,46.097L372.35,46.13L373.29,46.068L374.22,45.987L375.16,45.915L376.1,45.949L377.03,46.001L377.97,45.968L378.91,45.896L379.84,45.991L380.78,45.872L381.72,45.877L382.66,45.815L383.59,45.891L384.53,45.858L385.47,45.781L386.4,45.743L387.34,45.82L388.28,45.715L389.22,45.7L390.15,45.858L391.09,45.738L392.03,45.681L392.96,45.662L393.9,45.619L394.84,45.662L395.77,45.653L396.71,45.595L397.65,45.667L398.59,45.552L399.52,45.543L400.46,45.633L401.4,45.576L402.33,45.576L403.27,45.576L404.21,45.629L405.15,45.571L406.08,45.486L407.02,45.462L407.96,45.514L408.89,45.528L409.83,45.514L410.77,45.471L411.7,45.457L412.64,45.567L413.58,45.409L414.52,45.366L415.45,45.423L416.39,45.476L417.33,45.414L418.26,45.39L419.2,45.428L420.14,45.428L421.08,45.447L422.01,45.414L422.95,45.357L423.89,45.314L424.82,45.38L425.76,45.333L426.7,45.342L427.64,45.338L428.57,45.342L429.51,45.366L430.45,45.333L431.38,45.323L432.32,45.261L433.26,45.295L434.19,45.247L435.13,45.309L436.07,45.266L437.01,45.309L437.94,45.295L438.88,45.252L439.82,45.228L440.75,45.271L441.69,45.275L442.63,45.275L443.57,45.275L444.5,45.252L445.44,45.256L446.38,45.247L447.31,45.228L448.25,45.233L449.19,45.233L450.12,45.233L451.06,45.29L452,45.237L452.94,45.223L453.87,45.252L454.81,45.194L455.75,45.228L456.68,45.242L457.62,45.242L458.56,45.256L459.5,45.213L460.43,45.209L461.37,45.218L462.31,45.218L463.24,45.199L464.18,45.233L465.12,45.228L466.05,45.19L466.99,45.237L467.93,45.185L468.87,45.204L469.8,45.185L470.74,45.18L471.68,45.223L472.61,45.213L473.55,45.185L474.49,45.18L475.43,45.18L476.36,45.175L477.3,45.194L478.24,45.18L479.17,45.194L480.11,45.194L481.05,45.185L481.98,45.161L482.92,45.18L483.86,45.194L484.8,45.199L485.73,45.17L486.67,45.18L487.61,45.18L488.54,45.185L489.48,45.175L490.42,45.185L491.36,45.166L492.29,45.17L493.23,45.19L494.17,45.161L495.1,45.156L496.04,45.166L496.98,45.18L497.92,45.161L498.85,45.161L499.79,45.166L500.73,45.156L501.66,45.156L502.6,45.151L503.54,45.156L504.47,45.156L505.41,45.161L506.35,45.175L507.29,45.166L508.22,45.156L509.16,45.156L510.1,45.161L511.03,45.166L512.91,45.17L513.85,45.161L514.78,45.161L515.72,45.151L516.66,45.156L517.59,45.166L518.53,45.156L519.47,45.151L520.4,45.156L521.34,45.151L522.28,45.156L523.22,45.151L524.15,45.151L525.09,45.151L526.96,45.151L527.9,45.151L528.84,45.156L530.71,45.156L532.59,45.151L533.52,45.161L534.46,45.18L535.4,45.156L536.33,45.161L537.27,45.151L539.15,45.161L541.02,45.151L541.96,45.151L543.83,45.151L545.71,45.151L546.64,45.156L549.45,45.151L552.26,45.151L553.2,45.151L559.76,45.151L560.7,45.151L562.57,45.161L563.51,45.151L567.26,45.156L571.01,45.151L577.57,45.151L578.5,45.151L615.99,45.151L644.1,45.151L720,45.151" style="fill:none;stroke:#0000FF" />
</g>
</svg>
