<?xml version="1.0"?>
<!-- Generated by SVGo and Plotinum VG -->
<svg width="720pt" height="432pt" viewBox="0 0 720 432"
	xmlns="http://www.w3.org/2000/svg"
	xmlns:xlink="http://www.w3.org/1999/xlink">
<g transform="scale(1, -1) translate(0, -432)">
<path d="M0,0L720,0L720,432L0,432Z" style="fill:#FFFFFF" />
<text x="358.5" y="-420.45" transform="scale(1, -1)"
	style="font-family:Times;font-weight:normal;font-style:normal;font-size:12px"> </text>
<text x="385.56" y="-3.8613" transform="scale(1, -1)"
	style="font-family:Times;font-weight:normal;font-style:normal;font-size:12px">Costs</text>
<text x="69.055" y="-18.634" transform="scale(1, -1)"
	style="font-family:Times;font-weight:normal;font-style:normal;font-size:10px">0.00</text>
<text x="353.85" y="-18.634" transform="scale(1, -1)"
	style="font-family:Times;font-weight:normal;font-style:normal;font-size:10px">250.00</text>
<text x="643.65" y="-18.634" transform="scale(1, -1)"
	style="font-family:Times;font-weight:normal;font-style:normal;font-size:10px">500.00</text>
<path d="M77.805,28.263L77.805,36.263" style="fill:none;stroke:#000000;stroke-width:0.5" />
<path d="M367.6,28.263L367.6,36.263" style="fill:none;stroke:#000000;stroke-width:0.5" />
<path d="M657.4,28.263L657.4,36.263" style="fill:none;stroke:#000000;stroke-width:0.5" />
<path d="M135.76,32.263L135.76,36.263" style="fill:none;stroke:#000000;stroke-width:0.5" />
<path d="M193.72,32.263L193.72,36.263" style="fill:none;stroke:#000000;stroke-width:0.5" />
<path d="M251.68,32.263L251.68,36.263" style="fill:none;stroke:#000000;stroke-width:0.5" />
<path d="M309.64,32.263L309.64,36.263" style="fill:none;stroke:#000000;stroke-width:0.5" />
<path d="M425.56,32.263L425.56,36.263" style="fill:none;stroke:#000000;stroke-width:0.5" />
<path d="M483.52,32.263L483.52,36.263" style="fill:none;stroke:#000000;stroke-width:0.5" />
<path d="M541.48,32.263L541.48,36.263" style="fill:none;stroke:#000000;stroke-width:0.5" />
<path d="M599.44,32.263L599.44,36.263" style="fill:none;stroke:#000000;stroke-width:0.5" />
<path d="M715.36,32.263L715.36,36.263" style="fill:none;stroke:#000000;stroke-width:0.5" />
<path d="M77.805,36.263L720,36.263" style="fill:none;stroke:#000000;stroke-width:0.5" />
<g transform="rotate(90)">
<text x="152.55" y="11.555" transform="scale(1, -1)"
	style="font-family:Times;font-weight:normal;font-style:normal;font-size:12px">Number of trials (1000000 total)</text>
</g>
<text x="24.055" y="-82.024" transform="scale(1, -1)"
	style="font-family:Times;font-weight:normal;font-style:normal;font-size:10px">25000.00</text>
<text x="19.055" y="-242.34" transform="scale(1, -1)"
	style="font-family:Times;font-weight:normal;font-style:normal;font-size:10px">125000.00</text>
<text x="19.055" y="-402.66" transform="scale(1, -1)"
	style="font-family:Times;font-weight:normal;font-style:normal;font-size:10px">225000.00</text>
<path d="M64.055,85.229L72.055,85.229" style="fill:none;stroke:#000000;stroke-width:0.5" />
<path d="M64.055,245.55L72.055,245.55" style="fill:none;stroke:#000000;stroke-width:0.5" />
<path d="M64.055,405.87L72.055,405.87" style="fill:none;stroke:#000000;stroke-width:0.5" />
<path d="M68.055,165.39L72.055,165.39" style="fill:none;stroke:#000000;stroke-width:0.5" />
<path d="M68.055,325.71L72.055,325.71" style="fill:none;stroke:#000000;stroke-width:0.5" />
<path d="M72.055,45.151L72.055,416.58" style="fill:none;stroke:#000000;stroke-width:0.5" />
<path d="M77.805,416.58L110.26,56.164L113.74,62.95L114.9,55.421L117.22,99.558L118.38,58.937L123.01,62.49L124.17,66.132L125.33,73.746L126.49,58.695L128.81,92.891L131.13,58.977L134.61,55.787L139.24,66.645L140.4,77.056L142.72,66.87L143.88,59.2L145.04,70.86L146.2,45.701L147.36,45.499L149.67,85.837L150.83,97.396L153.15,47.846L154.31,47.239L155.47,45.977L156.63,47.657L157.79,48.055L158.95,46.431L160.11,46.655L161.27,48.348L162.43,85.558L163.59,82.728L164.74,52.403L165.9,49.65L167.06,46.471L168.22,52.694L169.38,47.946L170.54,71.472L171.7,52.1L172.86,47.059L174.02,50.235L175.18,50.12L176.34,51.872L177.5,49.345L178.65,50.503L179.81,54.463L180.97,48.375L182.13,52.813L183.29,49.844L184.45,50.336L185.61,52.199L186.77,51.955L187.93,51.019L189.09,54.131L190.25,60.754L191.41,54.475L192.57,48.605L193.72,50.254L194.88,50.128L196.04,55.378L197.2,52.715L198.36,53.491L199.52,50.689L200.68,52.045L201.84,59.625L203,54.508L204.16,50.552L205.32,48.396L206.48,50.527L207.63,51.918L208.79,50.516L209.95,55.186L211.11,54.647L212.27,53.784L213.43,55.243L214.59,52.667L215.75,53.438L216.91,53.581L218.07,50.985L219.23,48.63L220.39,47.309L221.55,49.943L222.7,52.645L223.86,50.729L225.02,52.172L226.18,49.935L227.34,50.124L228.5,50.262L229.66,51.069L230.82,49.999L231.98,48.161L233.14,49.254L234.3,51.463L235.46,57.47L236.61,53.538L237.77,49.773L238.93,47.874L240.09,47.317L241.25,48.024L242.41,49.924L243.57,51.176L244.73,47.888L245.89,47.455L247.05,48.169L248.21,51.292L249.37,48.454L250.53,48.298L251.68,48.023L252.84,48.516L254,48.026L255.16,50.402L256.32,50.318L257.48,48.382L258.64,48.234L259.8,47.83L260.96,48.236L262.12,48.757L263.28,48.751L264.44,48.964L265.59,47.741L266.75,47.768L267.91,47.882L269.07,48.167L270.23,47.84L271.39,47.76L272.55,47.838L273.71,48.191L274.87,48.815L276.03,48.707L277.19,47.673L278.35,47.593L279.51,47.625L280.66,47.925L281.82,48.011L282.98,48.29L284.14,47.962L285.3,47.388L286.46,47.561L287.62,47.886L288.78,47.481L289.94,47.216L291.1,46.979L292.26,46.912L293.42,46.676L294.57,47.216L295.73,47.279L296.89,47.389L298.05,47.157L299.21,47.327L300.37,47.024L301.53,47.341L302.69,47.093L303.85,46.793L305.01,46.516L306.17,46.644L307.33,47.069L308.48,47.075L309.64,46.854L310.8,46.621L311.96,46.112L313.12,46.339L314.28,46.211L315.44,46.572L316.6,46.24L317.76,46.359L318.92,46.299L320.08,46.543L321.24,46.743L322.4,46.325L323.55,46.339L324.71,46.057L325.87,46.064L327.03,46.285L328.19,46.535L329.35,46.384L330.51,46.112L331.67,46.015L332.83,45.955L333.99,45.961L335.15,46.04L336.31,46.017L337.46,45.98L338.62,45.956L339.78,45.967L340.94,46.147L342.1,45.99L343.26,45.921L344.42,45.879L345.58,45.868L346.74,45.94L347.9,45.948L349.06,45.969L350.22,45.876L351.38,45.786L352.53,45.801L353.69,45.785L354.85,45.841L356.01,45.778L357.17,45.765L358.33,45.666L359.49,45.688L360.65,45.733L361.81,45.719L362.97,45.65L364.13,45.719L365.29,45.661L366.44,45.621L367.6,45.65L368.76,45.648L369.92,45.688L371.08,45.586L372.24,45.619L373.4,45.522L374.56,45.599L375.72,45.57L376.88,45.533L378.04,45.482L379.2,45.472L380.36,45.493L381.51,45.467L382.67,45.451L383.83,45.445L384.99,45.458L386.15,45.446L387.31,45.453L388.47,45.466L389.63,45.442L390.79,45.408L391.95,45.416L393.11,45.456L394.27,45.482L395.42,45.389L396.58,45.422L397.74,45.313L398.9,45.376L400.06,45.35L401.22,45.369L402.38,45.379L403.54,45.344L404.7,45.357L405.86,45.304L407.02,45.315L408.18,45.344L409.34,45.318L410.49,45.305L411.65,45.318L412.81,45.296L413.97,45.349L415.13,45.325L416.29,45.265L417.45,45.296L418.61,45.264L419.77,45.312L420.93,45.26L422.09,45.284L423.25,45.275L424.4,45.268L425.56,45.272L426.72,45.241L427.88,45.272L429.04,45.246L430.2,45.243L431.36,45.251L432.52,45.246L433.68,45.232L434.84,45.257L436,45.257L437.16,45.249L438.32,45.233L439.47,45.256L440.63,45.224L441.79,45.228L442.95,45.23L444.11,45.227L445.27,45.209L446.43,45.224L447.59,45.227L448.75,45.23L449.91,45.206L451.07,45.199L452.23,45.214L453.38,45.209L454.54,45.203L455.7,45.207L456.86,45.207L458.02,45.198L459.18,45.209L460.34,45.196L461.5,45.193L462.66,45.196L463.82,45.19L464.98,45.18L466.14,45.195L467.29,45.193L468.45,45.187L469.61,45.175L470.77,45.183L471.93,45.177L473.09,45.188L474.25,45.18L475.41,45.172L476.57,45.195L477.73,45.18L478.89,45.171L480.05,45.18L481.21,45.185L482.36,45.172L483.52,45.172L484.68,45.177L485.84,45.172L487,45.169L488.16,45.171L489.32,45.164L490.48,45.166L491.64,45.172L492.8,45.163L493.96,45.174L495.12,45.179L496.27,45.169L497.43,45.161L498.59,45.167L499.75,45.164L500.91,45.161L502.07,45.166L503.23,45.167L504.39,45.161L505.55,45.163L506.71,45.158L507.87,45.166L509.03,45.164L510.19,45.153L511.34,45.151L512.5,45.158L513.66,45.164L514.82,45.151L515.98,45.161L517.14,45.153L518.3,45.158L519.46,45.159L520.62,45.153L521.78,45.161L522.94,45.156L524.1,45.167L525.25,45.155L526.41,45.153L527.57,45.159L528.73,45.156L529.89,45.155L531.05,45.158L532.21,45.156L533.37,45.151L534.53,45.159L535.69,45.153L536.85,45.155L538.01,45.153L539.17,45.153L540.32,45.156L541.48,45.156L542.64,45.153L543.8,45.153L546.12,45.153L547.28,45.151L548.44,45.151L549.6,45.155L550.76,45.153L551.92,45.153L553.08,45.153L554.23,45.156L558.87,45.153L560.03,45.151L561.19,45.151L562.35,45.155L563.51,45.151L564.67,45.155L565.83,45.151L566.99,45.155L568.15,45.151L569.3,45.153L570.46,45.151L573.94,45.151L575.1,45.151L579.74,45.151L580.9,45.153L586.69,45.151L587.85,45.153L589.01,45.153L590.17,45.153L591.33,45.151L592.49,45.151L598.28,45.153L602.92,45.151L604.08,45.153L608.72,45.151L622.63,45.151L680.59,45.153L720,45.151" style="fill:none;stroke:#0000FF" />
</g>
</svg>
