<?xml version="1.0"?>
<!-- Generated by SVGo and Plotinum VG -->
<svg width="720pt" height="432pt" viewBox="0 0 720 432"
	xmlns="http://www.w3.org/2000/svg"
	xmlns:xlink="http://www.w3.org/1999/xlink">
<g transform="scale(1, -1) translate(0, -432)">
<path d="M0,0L720,0L720,432L0,432Z" style="fill:#FFFFFF" />
<text x="358.5" y="-420.45" transform="scale(1, -1)"
	style="font-family:Times;font-weight:normal;font-style:normal;font-size:12px"> </text>
<text x="385.56" y="-3.8613" transform="scale(1, -1)"
	style="font-family:Times;font-weight:normal;font-style:normal;font-size:12px">Costs</text>
<text x="69.055" y="-18.634" transform="scale(1, -1)"
	style="font-family:Times;font-weight:normal;font-style:normal;font-size:10px">0.00</text>
<text x="346.71" y="-18.634" transform="scale(1, -1)"
	style="font-family:Times;font-weight:normal;font-style:normal;font-size:10px">250.00</text>
<text x="629.37" y="-18.634" transform="scale(1, -1)"
	style="font-family:Times;font-weight:normal;font-style:normal;font-size:10px">500.00</text>
<path d="M77.805,28.263L77.805,36.263" style="fill:none;stroke:#000000;stroke-width:0.5" />
<path d="M360.46,28.263L360.46,36.263" style="fill:none;stroke:#000000;stroke-width:0.5" />
<path d="M643.12,28.263L643.12,36.263" style="fill:none;stroke:#000000;stroke-width:0.5" />
<path d="M134.34,32.263L134.34,36.263" style="fill:none;stroke:#000000;stroke-width:0.5" />
<path d="M190.87,32.263L190.87,36.263" style="fill:none;stroke:#000000;stroke-width:0.5" />
<path d="M247.4,32.263L247.4,36.263" style="fill:none;stroke:#000000;stroke-width:0.5" />
<path d="M303.93,32.263L303.93,36.263" style="fill:none;stroke:#000000;stroke-width:0.5" />
<path d="M416.99,32.263L416.99,36.263" style="fill:none;stroke:#000000;stroke-width:0.5" />
<path d="M473.52,32.263L473.52,36.263" style="fill:none;stroke:#000000;stroke-width:0.5" />
<path d="M530.05,32.263L530.05,36.263" style="fill:none;stroke:#000000;stroke-width:0.5" />
<path d="M586.59,32.263L586.59,36.263" style="fill:none;stroke:#000000;stroke-width:0.5" />
<path d="M699.65,32.263L699.65,36.263" style="fill:none;stroke:#000000;stroke-width:0.5" />
<path d="M77.805,36.263L720,36.263" style="fill:none;stroke:#000000;stroke-width:0.5" />
<g transform="rotate(90)">
<text x="152.55" y="11.555" transform="scale(1, -1)"
	style="font-family:Times;font-weight:normal;font-style:normal;font-size:12px">Number of trials (1000000 total)</text>
</g>
<text x="24.055" y="-90.807" transform="scale(1, -1)"
	style="font-family:Times;font-weight:normal;font-style:normal;font-size:10px">25000.00</text>
<text x="19.055" y="-237.4" transform="scale(1, -1)"
	style="font-family:Times;font-weight:normal;font-style:normal;font-size:10px">100000.00</text>
<text x="19.055" y="-383.98" transform="scale(1, -1)"
	style="font-family:Times;font-weight:normal;font-style:normal;font-size:10px">175000.00</text>
<path d="M64.055,94.012L72.055,94.012" style="fill:none;stroke:#000000;stroke-width:0.5" />
<path d="M64.055,240.6L72.055,240.6" style="fill:none;stroke:#000000;stroke-width:0.5" />
<path d="M64.055,387.19L72.055,387.19" style="fill:none;stroke:#000000;stroke-width:0.5" />
<path d="M68.055,167.31L72.055,167.31" style="fill:none;stroke:#000000;stroke-width:0.5" />
<path d="M68.055,313.9L72.055,313.9" style="fill:none;stroke:#000000;stroke-width:0.5" />
<path d="M72.055,45.151L72.055,416.58" style="fill:none;stroke:#000000;stroke-width:0.5" />
<path d="M77.805,416.58L102.68,48.623L107.2,51.765L108.33,55.919L109.46,52.078L110.59,59.066L112.85,89.323L113.98,62.666L116.25,83.716L117.38,55.588L118.51,59.367L119.64,52.211L120.77,59.169L121.9,59.355L123.03,76.664L124.16,48.652L125.29,66.522L126.42,55.71L127.55,76.502L128.68,52.061L129.81,59.101L132.07,48.671L133.21,105.76L134.34,55.716L135.47,48.703L136.6,45.169L137.73,103.9L138.86,59.519L139.99,49.119L141.12,52.825L142.25,56.703L143.38,50.253L144.51,46.541L145.64,51.308L146.77,64.253L147.9,54.533L149.03,78.521L150.16,46.742L151.3,51.001L152.43,50.075L153.56,49.074L154.69,49.887L155.82,50.071L156.95,50.556L158.08,60.144L159.21,50.045L160.34,58.489L161.47,62.334L162.6,53.675L163.73,52.788L164.86,65.701L165.99,53.972L167.12,50.661L168.25,72.827L169.39,83.614L170.52,53.433L171.65,55.665L172.78,58.983L173.91,55.921L175.04,51.846L176.17,56.908L177.3,55.764L178.43,56.884L179.56,52.369L180.69,54.67L181.82,54.998L182.95,58.933L184.08,54.377L185.21,56.22L186.34,51.167L187.48,56.984L188.61,52.835L189.74,53.605L190.87,50.689L192,51.195L193.13,59.243L194.26,55.577L195.39,50.689L196.52,54.398L197.65,54.693L198.78,54.644L199.91,52.62L201.04,53.052L202.17,54.222L203.3,54.066L204.43,57.563L205.57,52.428L206.7,53.878L207.83,54.885L208.96,56.061L210.09,52.977L211.22,51.527L212.35,52.332L213.48,53.722L214.61,52.719L215.74,51.584L216.87,53.898L218,54.027L219.13,52.833L220.26,54.154L221.39,52.686L222.52,49.993L223.66,52.291L224.79,56.089L225.92,51.474L227.05,49.651L228.18,52.543L229.31,55.6L230.44,51.111L231.57,50.89L232.7,51.666L233.83,51.16L234.96,49.999L236.09,50.284L237.22,50.716L238.35,51.312L239.48,51.263L240.61,51.838L241.75,49.649L242.88,50.085L244.01,49.821L245.14,49.776L246.27,49.043L247.4,50.038L248.53,50.237L249.66,50.214L250.79,49.328L251.92,50.386L253.05,50.417L254.18,49.842L255.31,49.741L256.44,50.694L257.57,49.092L258.7,49.406L259.84,50.479L260.97,48.937L262.1,49.121L263.23,49.475L264.36,49.774L265.49,49.113L266.62,48.787L267.75,49.244L268.88,49.041L270.01,49.197L271.14,48.486L272.27,48.455L273.4,48.828L274.53,48.765L275.66,48.451L276.79,48.562L277.93,48.224L279.06,48.37L280.19,48.234L281.32,47.888L282.45,47.692L283.58,47.937L284.71,48.421L285.84,48.114L286.97,47.675L288.1,47.982L289.23,48.23L290.36,47.727L291.49,47.679L292.62,47.628L293.75,47.714L294.88,47.622L296.02,47.665L297.15,47.231L298.28,47.501L299.41,47.405L300.54,47.598L301.67,47.239L302.8,47.229L303.93,47.198L305.06,47.221L306.19,46.903L307.32,47.045L308.45,47.184L309.58,47.024L310.71,47.01L311.84,47.159L312.97,46.914L314.11,46.748L315.24,46.844L316.37,46.918L317.5,46.692L318.63,46.563L319.76,46.891L320.89,46.631L322.02,46.568L323.15,46.649L324.28,46.649L325.41,46.512L326.54,46.391L327.67,46.381L328.8,46.383L329.93,46.412L331.06,46.367L332.2,46.289L333.33,46.31L334.46,46.338L335.59,46.279L336.72,46.254L337.85,46.176L338.98,46.299L340.11,46.283L341.24,46.142L342.37,46.117L343.5,46.142L344.63,46.17L345.76,46.058L346.89,46.06L348.02,45.949L349.15,45.921L350.29,45.974L351.42,45.886L352.55,45.869L353.68,45.925L354.81,45.841L355.94,45.955L357.07,45.878L358.2,45.861L359.33,45.859L360.46,45.843L361.59,45.796L362.72,45.798L363.85,45.749L364.98,45.771L366.11,45.742L367.24,45.697L368.38,45.691L369.51,45.609L370.64,45.667L371.77,45.71L372.9,45.683L374.03,45.613L375.16,45.62L376.29,45.607L377.42,45.564L378.55,45.56L379.68,45.605L380.81,45.632L381.94,45.599L383.07,45.525L384.2,45.603L385.33,45.54L386.47,45.521L387.6,45.489L388.73,45.468L389.86,45.462L390.99,45.489L392.12,45.462L393.25,45.452L394.38,45.446L395.51,45.441L396.64,45.425L397.77,45.458L398.9,45.433L400.03,45.402L401.16,45.423L402.29,45.4L403.42,45.38L404.56,45.392L405.69,45.394L406.82,45.386L407.95,45.353L409.08,45.374L410.21,45.368L411.34,45.343L412.47,45.341L413.6,45.316L414.73,45.341L415.86,45.323L416.99,45.308L418.12,45.327L419.25,45.337L420.38,45.329L421.51,45.304L422.65,45.306L423.78,45.329L424.91,45.302L426.04,45.292L427.17,45.284L428.3,45.253L429.43,45.286L430.56,45.265L431.69,45.276L432.82,45.255L433.95,45.251L435.08,45.276L436.21,45.251L437.34,45.241L438.47,45.259L439.6,45.216L440.74,45.249L441.87,45.247L443,45.241L444.13,45.249L445.26,45.239L446.39,45.245L447.52,45.214L448.65,45.247L449.78,45.226L450.91,45.224L452.04,45.218L453.17,45.224L454.3,45.243L455.43,45.212L456.56,45.196L457.69,45.192L458.83,45.198L459.96,45.212L461.09,45.194L462.22,45.189L463.35,45.212L464.48,45.194L465.61,45.183L466.74,45.175L467.87,45.202L469,45.183L470.13,45.181L471.26,45.204L472.39,45.196L473.52,45.181L474.65,45.189L475.78,45.198L476.92,45.175L478.05,45.179L479.18,45.183L480.31,45.181L481.44,45.183L482.57,45.185L483.7,45.19L484.83,45.177L485.96,45.171L487.09,45.173L488.22,45.189L489.35,45.167L490.48,45.175L491.61,45.167L492.74,45.179L493.87,45.171L495.01,45.163L496.14,45.159L497.27,45.169L498.4,45.177L499.53,45.171L500.66,45.167L501.79,45.159L502.92,45.173L504.05,45.165L505.18,45.157L506.31,45.165L507.44,45.159L508.57,45.163L509.7,45.169L510.83,45.173L511.96,45.157L513.1,45.163L514.23,45.163L515.36,45.157L516.49,45.165L517.62,45.169L518.75,45.157L519.88,45.155L521.01,45.151L522.14,45.157L523.27,45.161L524.4,45.155L525.53,45.155L526.66,45.157L527.79,45.153L528.92,45.155L530.05,45.153L531.19,45.169L532.32,45.157L533.45,45.153L534.58,45.153L535.71,45.155L536.84,45.157L537.97,45.153L539.1,45.161L540.23,45.157L541.36,45.151L542.49,45.153L544.75,45.155L545.88,45.161L548.14,45.151L549.28,45.155L550.41,45.151L551.54,45.153L552.67,45.153L553.8,45.151L554.93,45.151L556.06,45.153L557.19,45.151L558.32,45.153L562.84,45.151L563.97,45.155L566.23,45.155L568.5,45.151L569.63,45.151L570.76,45.153L571.89,45.151L577.54,45.151L582.06,45.151L583.19,45.155L585.46,45.151L587.72,45.151L589.98,45.151L591.11,45.151L595.63,45.151L597.89,45.153L604.68,45.151L606.94,45.151L611.46,45.151L612.59,45.151L614.85,45.151L615.98,45.153L634.07,45.151L638.59,45.153L640.86,45.151L649.9,45.151L656.68,45.151L720,45.151" style="fill:none;stroke:#0000FF" />
</g>
</svg>
