<?xml version="1.0"?>
<!-- Generated by SVGo and Plotinum VG -->
<svg width="720pt" height="432pt" viewBox="0 0 720 432"
	xmlns="http://www.w3.org/2000/svg"
	xmlns:xlink="http://www.w3.org/1999/xlink">
<g transform="scale(1, -1) translate(0, -432)">
<path d="M0,0L720,0L720,432L0,432Z" style="fill:#FFFFFF" />
<text x="358.5" y="-420.45" transform="scale(1, -1)"
	style="font-family:Times;font-weight:normal;font-style:normal;font-size:12px"> </text>
<text x="383.06" y="-3.8613" transform="scale(1, -1)"
	style="font-family:Times;font-weight:normal;font-style:normal;font-size:12px">Costs</text>
<text x="70.305" y="-18.634" transform="scale(1, -1)"
	style="font-family:Times;font-weight:normal;font-style:normal;font-size:10px">0</text>
<text x="331.28" y="-18.634" transform="scale(1, -1)"
	style="font-family:Times;font-weight:normal;font-style:normal;font-size:10px">300</text>
<text x="597.25" y="-18.634" transform="scale(1, -1)"
	style="font-family:Times;font-weight:normal;font-style:normal;font-size:10px">600</text>
<path d="M72.805,28.263L72.805,36.263" style="fill:none;stroke:#000000;stroke-width:0.5" />
<path d="M338.78,28.263L338.78,36.263" style="fill:none;stroke:#000000;stroke-width:0.5" />
<path d="M604.75,28.263L604.75,36.263" style="fill:none;stroke:#000000;stroke-width:0.5" />
<path d="M161.46,32.263L161.46,36.263" style="fill:none;stroke:#000000;stroke-width:0.5" />
<path d="M250.12,32.263L250.12,36.263" style="fill:none;stroke:#000000;stroke-width:0.5" />
<path d="M427.43,32.263L427.43,36.263" style="fill:none;stroke:#000000;stroke-width:0.5" />
<path d="M516.09,32.263L516.09,36.263" style="fill:none;stroke:#000000;stroke-width:0.5" />
<path d="M693.4,32.263L693.4,36.263" style="fill:none;stroke:#000000;stroke-width:0.5" />
<path d="M72.805,36.263L720,36.263" style="fill:none;stroke:#000000;stroke-width:0.5" />
<g transform="rotate(90)">
<text x="149.81" y="11.555" transform="scale(1, -1)"
	style="font-family:Times;font-weight:normal;font-style:normal;font-size:12px">Number of trials (1000000 total)</text>
</g>
<text x="24.055" y="-82.488" transform="scale(1, -1)"
	style="font-family:Times;font-weight:normal;font-style:normal;font-size:10px">2500.00</text>
<text x="19.055" y="-244.72" transform="scale(1, -1)"
	style="font-family:Times;font-weight:normal;font-style:normal;font-size:10px">12500.00</text>
<text x="19.055" y="-406.96" transform="scale(1, -1)"
	style="font-family:Times;font-weight:normal;font-style:normal;font-size:10px">22500.00</text>
<path d="M59.055,85.694L67.055,85.694" style="fill:none;stroke:#000000;stroke-width:0.5" />
<path d="M59.055,247.93L67.055,247.93" style="fill:none;stroke:#000000;stroke-width:0.5" />
<path d="M59.055,410.16L67.055,410.16" style="fill:none;stroke:#000000;stroke-width:0.5" />
<path d="M63.055,166.81L67.055,166.81" style="fill:none;stroke:#000000;stroke-width:0.5" />
<path d="M63.055,329.04L67.055,329.04" style="fill:none;stroke:#000000;stroke-width:0.5" />
<path d="M67.055,45.151L67.055,411.1" style="fill:none;stroke:#000000;stroke-width:0.5" />
<path d="M72.805,411.1L92.309,60.823L93.196,48.315L95.855,61.699L96.742,58.049L98.515,63.224L101.17,126.3L102.06,77.939L102.95,84.023L103.83,120.36L104.72,114.3L105.61,48.785L106.49,52.16L107.38,81.427L108.27,76.008L109.15,136.86L110.04,130.08L110.93,93.302L111.81,91.518L112.7,98.072L113.59,77.923L115.36,49.013L116.25,94.292L117.13,69.632L118.02,126.24L118.91,45.281L119.79,104.35L120.68,115.01L121.57,48.039L122.45,118.24L123.34,48.461L124.23,56.719L125.11,109.75L126,48.104L126.89,59.087L127.77,102.89L128.66,82.222L129.55,57.806L130.43,60.953L131.32,59.071L132.2,88.305L133.09,78.766L133.98,68.481L134.86,66.209L135.75,80.032L136.64,66.631L137.52,123.9L138.41,137.22L139.3,92.475L140.18,101.5L141.07,113.5L141.96,100.12L142.84,83.795L143.73,103L144.62,135.95L145.5,90.804L146.39,107.71L147.28,98.672L148.16,121.61L149.05,117.64L149.94,101.43L150.82,110.32L151.71,102.57L152.6,97.358L153.48,108.5L154.37,107.32L155.26,99.013L156.14,117.44L157.03,130.81L157.92,103.77L158.8,110.06L159.69,106.56L160.58,96.936L161.46,105.18L162.35,91.226L163.23,98.461L164.12,104.16L165.01,103.25L165.89,111.07L166.78,94.86L167.67,113.13L168.55,105.79L169.44,113.24L170.33,111.99L171.21,83.309L172.1,106.82L172.99,117.54L173.87,101.77L174.76,125.72L175.65,129.82L176.53,115.01L177.42,117.64L178.31,108.55L179.19,104.45L180.08,110L180.97,117.22L181.85,117.02L182.74,117.23L183.63,117.46L184.51,116.42L185.4,128.38L186.29,114.12L187.17,119.5L188.06,125.59L188.95,113.42L189.83,123.53L190.72,113.95L191.6,115.22L192.49,119.28L193.38,125.12L194.26,122.37L195.15,110.06L196.04,118.12L196.92,121.48L197.81,113.78L198.7,115.59L199.58,114.23L200.47,114.67L201.36,113.14L202.24,110.86L203.13,118.29L204.02,120.48L204.9,118.27L205.79,118.9L206.68,120.2L207.56,112.22L208.45,112.54L209.34,123.09L210.22,118.76L211.11,114.98L212,118.09L212.88,120.75L213.77,120.05L214.66,117.07L215.54,116.34L216.43,114.51L217.32,116.83L218.2,115.43L219.09,114.68L219.98,118.64L220.86,118.29L221.75,120.01L222.63,120.56L223.52,115.5L224.41,118.27L225.29,120.54L226.18,114.55L227.07,114.55L227.95,114.64L228.84,116.96L229.73,115.22L230.61,117.75L231.5,113.86L232.39,111.5L233.27,115.46L234.16,111.07L235.05,111.99L235.93,112.2L236.82,112.28L237.71,114.52L238.59,109.23L239.48,111.78L240.37,111.68L241.25,113.29L242.14,111.05L243.03,109.9L243.91,111.2L244.8,109.57L245.69,108.34L246.57,111.03L247.46,106.38L248.35,109.66L249.23,108.99L250.12,107.81L251.01,108.08L251.89,106.1L252.78,107.9L253.66,107.85L254.55,103.69L255.44,105.23L256.32,105.73L257.21,106.65L258.1,104.89L258.98,107.85L259.87,105.44L260.76,103.6L261.64,104.67L262.53,103.15L263.42,101.59L264.3,100.02L265.19,102.11L266.08,100.52L266.96,100.96L267.85,100.73L268.74,98.851L269.62,98.64L270.51,98.542L271.4,98.737L272.28,98.364L273.17,98.023L274.06,96.466L274.94,97.488L275.83,95.444L276.72,97.391L277.6,94.925L278.49,98.088L279.38,94.584L280.26,94.405L281.15,94L282.03,93.172L282.92,92.848L283.81,93.059L284.69,93.091L285.58,90.707L286.47,91.226L287.35,91.745L288.24,90.512L289.13,90.058L290.01,90.431L290.9,90.398L291.79,89.976L292.67,87.494L293.56,89.701L294.45,87.884L295.33,87.105L296.22,87.997L297.11,85.239L297.99,86.537L298.88,85.807L299.77,85.499L300.65,86.359L301.54,84.12L302.43,84.607L303.31,83.893L304.2,83.714L305.09,82.676L305.97,82.206L306.86,80.745L307.75,81.654L308.63,81.686L309.52,80.648L310.41,79.577L311.29,80.324L312.18,79.707L313.06,79.772L313.95,79.415L314.84,78.02L315.72,76.836L316.61,77.355L317.5,76.592L318.38,75.667L319.27,76.738L320.16,76.008L321.04,76.203L321.93,73.98L322.82,74.418L323.7,73.137L324.59,74.678L325.48,73.494L326.36,73.753L327.25,71.904L328.14,71.985L329.02,72.455L329.91,72.293L330.8,72.098L331.68,71.579L332.57,70.979L333.46,71.401L334.34,70.444L335.23,70.087L336.12,69.6L337,69.438L337.89,69.016L338.78,69.827L339.66,66.793L340.55,68.091L341.44,67.848L342.32,67.199L343.21,67.231L344.09,67.134L344.98,65.966L345.87,65.447L346.75,66.144L347.64,65.69L348.53,65.366L349.41,64.603L350.3,64.473L351.19,64.019L352.07,64.084L352.96,64.603L353.85,64.344L354.73,62.267L355.62,62.689L356.51,62.591L357.39,62.689L358.28,61.277L359.17,61.131L360.05,61.732L360.94,60.92L361.83,60.693L362.71,61.358L363.6,60.677L364.49,60.223L365.37,60.677L366.26,60.158L367.15,60.012L368.03,59.655L368.92,59.574L369.81,59.006L370.69,58.471L371.58,57.854L372.46,57.773L373.35,58.325L374.24,58.065L375.12,57.854L376.01,57.108L376.9,57.108L377.78,57.416L378.67,56.605L379.56,56.994L380.44,56.946L381.33,56.151L382.22,56.394L383.1,56.264L383.99,56.07L384.88,55.291L385.76,55.096L386.65,55.129L387.54,54.707L388.42,55.21L389.31,54.464L390.2,54.691L391.08,54.123L391.97,54.918L392.86,54.155L393.74,53.49L394.63,53.896L395.52,53.815L396.4,54.123L397.29,52.663L398.18,53.409L399.06,52.922L399.95,53.328L400.84,52.306L401.72,52.533L402.61,52.176L403.49,52.452L404.38,51.803L405.27,52.257L406.15,51.998L407.04,51.624L407.93,51.527L408.81,51.381L409.7,51.154L410.59,51.43L411.47,52.111L412.36,51.414L413.25,50.538L414.13,50.878L415.02,50.44L415.91,50.684L416.79,50.911L417.68,50.489L418.57,50.489L419.45,50.765L420.34,50.181L421.23,49.905L422.11,49.402L423,49.905L423.89,50.164L424.77,49.678L425.66,49.71L426.55,50.148L427.43,49.126L428.32,49.305L429.21,49.175L430.09,49.532L430.98,49.207L431.87,48.867L432.75,49.094L433.64,49.094L434.52,48.607L435.41,49.11L436.3,48.948L437.18,48.234L438.07,48.445L438.96,48.688L439.84,48.493L440.73,47.65L441.62,48.153L442.5,48.315L443.39,48.007L444.28,48.218L445.16,48.12L446.05,47.747L446.94,47.763L447.82,47.65L448.71,47.406L449.6,47.698L450.48,47.471L451.37,47.39L452.26,47.715L453.14,47.358L454.03,47.406L454.92,47.342L455.8,47.536L456.69,47.114L457.58,47.196L458.46,46.871L459.35,47.017L460.24,46.774L461.12,46.887L462.01,47.163L462.9,47.082L463.78,47.001L464.67,46.725L465.55,47.082L466.44,46.693L467.33,46.709L468.21,46.887L469.1,46.709L469.99,46.53L470.87,46.66L471.76,46.449L472.65,46.66L473.53,46.563L474.42,46.238L475.31,46.579L476.19,46.384L477.08,46.125L477.97,45.995L478.85,46.238L479.74,46.384L480.63,46.498L481.51,46.449L482.4,46.433L483.29,46.206L484.17,46.206L485.06,46.157L485.95,46.092L486.83,46.157L487.72,46.011L488.61,46.076L489.49,46.027L490.38,46.011L491.27,46.027L492.15,46.076L493.04,45.817L493.92,45.898L494.81,45.8L495.7,45.8L496.58,45.8L497.47,45.8L498.36,45.833L499.24,45.898L500.13,45.768L501.02,45.752L501.9,45.671L502.79,45.8L503.68,45.687L504.56,45.638L505.45,45.865L506.34,45.687L507.22,45.606L508.11,45.719L509,45.752L509.88,45.735L510.77,45.865L511.66,45.833L512.54,45.589L513.43,45.833L514.32,45.541L515.2,45.735L516.09,45.525L516.98,45.525L517.86,45.638L518.75,45.622L519.64,45.492L520.52,45.703L521.41,45.541L522.3,45.476L523.18,45.476L524.07,45.541L524.95,45.362L525.84,45.443L526.73,45.362L527.61,45.476L528.5,45.427L529.39,45.427L530.27,45.476L531.16,45.33L532.05,45.346L532.93,45.46L533.82,45.411L534.71,45.378L535.59,45.411L536.48,45.427L537.37,45.46L538.25,45.346L539.14,45.297L540.03,45.249L540.91,45.443L541.8,45.33L542.69,45.378L543.57,45.314L544.46,45.249L545.35,45.314L546.23,45.346L547.12,45.265L548.01,45.184L548.89,45.265L549.78,45.346L550.67,45.216L551.55,45.232L552.44,45.297L553.33,45.281L554.21,45.265L555.1,45.362L555.98,45.346L556.87,45.281L557.76,45.314L558.64,45.314L559.53,45.265L560.42,45.265L561.3,45.232L562.19,45.184L563.08,45.249L563.96,45.232L564.85,45.265L565.74,45.2L566.62,45.216L567.51,45.265L568.4,45.184L569.28,45.184L570.17,45.216L571.06,45.216L571.94,45.2L572.83,45.2L573.72,45.184L574.6,45.216L575.49,45.216L576.38,45.2L577.26,45.168L578.15,45.168L579.04,45.184L579.92,45.232L580.81,45.184L581.7,45.249L582.58,45.249L583.47,45.232L584.35,45.232L585.24,45.216L586.13,45.151L587.01,45.216L587.9,45.184L589.67,45.216L590.56,45.249L591.45,45.168L592.33,45.151L593.22,45.168L594.11,45.184L594.99,45.151L595.88,45.151L596.77,45.184L597.65,45.184L598.54,45.151L599.43,45.168L600.31,45.168L601.2,45.151L602.09,45.168L602.97,45.168L604.75,45.184L605.63,45.168L607.41,45.151L609.18,45.168L610.07,45.151L610.95,45.151L611.84,45.168L612.73,45.151L613.61,45.151L614.5,45.151L615.38,45.151L616.27,45.168L617.16,45.151L618.04,45.151L618.93,45.151L620.7,45.151L621.59,45.168L625.14,45.151L626.02,45.184L627.8,45.151L629.57,45.151L633.12,45.151L634,45.151L634.89,45.151L636.66,45.151L638.44,45.151L641.98,45.151L643.76,45.151L649.96,45.151L652.62,45.151L662.37,45.151L666.81,45.151L676.56,45.151L680.99,45.151L687.2,45.151L713.79,45.151L720,45.151" style="fill:none;stroke:#0000FF" />
</g>
</svg>
