<?xml version="1.0"?>
<!-- Generated by SVGo and Plotinum VG -->
<svg width="720pt" height="432pt" viewBox="0 0 720 432"
	xmlns="http://www.w3.org/2000/svg"
	xmlns:xlink="http://www.w3.org/1999/xlink">
<g transform="scale(1, -1) translate(0, -432)">
<path d="M0,0L720,0L720,432L0,432Z" style="fill:#FFFFFF" />
<text x="358.5" y="-420.45" transform="scale(1, -1)"
	style="font-family:Times;font-weight:normal;font-style:normal;font-size:12px"> </text>
<text x="376.81" y="-3.8613" transform="scale(1, -1)"
	style="font-family:Times;font-weight:normal;font-style:normal;font-size:12px">Costs</text>
<text x="57.805" y="-18.634" transform="scale(1, -1)"
	style="font-family:Times;font-weight:normal;font-style:normal;font-size:10px">0</text>
<text x="362.04" y="-18.634" transform="scale(1, -1)"
	style="font-family:Times;font-weight:normal;font-style:normal;font-size:10px">300</text>
<text x="671.27" y="-18.634" transform="scale(1, -1)"
	style="font-family:Times;font-weight:normal;font-style:normal;font-size:10px">600</text>
<path d="M60.305,28.263L60.305,36.263" style="fill:none;stroke:#000000;stroke-width:0.5" />
<path d="M369.54,28.263L369.54,36.263" style="fill:none;stroke:#000000;stroke-width:0.5" />
<path d="M678.77,28.263L678.77,36.263" style="fill:none;stroke:#000000;stroke-width:0.5" />
<path d="M163.38,32.263L163.38,36.263" style="fill:none;stroke:#000000;stroke-width:0.5" />
<path d="M266.46,32.263L266.46,36.263" style="fill:none;stroke:#000000;stroke-width:0.5" />
<path d="M472.61,32.263L472.61,36.263" style="fill:none;stroke:#000000;stroke-width:0.5" />
<path d="M575.69,32.263L575.69,36.263" style="fill:none;stroke:#000000;stroke-width:0.5" />
<path d="M60.305,36.263L720,36.263" style="fill:none;stroke:#000000;stroke-width:0.5" />
<g transform="rotate(90)">
<text x="152.55" y="11.555" transform="scale(1, -1)"
	style="font-family:Times;font-weight:normal;font-style:normal;font-size:12px">Number of trials (1000000 total)</text>
</g>
<text x="24.055" y="-87.014" transform="scale(1, -1)"
	style="font-family:Times;font-weight:normal;font-style:normal;font-size:10px">4000</text>
<text x="19.055" y="-222.25" transform="scale(1, -1)"
	style="font-family:Times;font-weight:normal;font-style:normal;font-size:10px">16000</text>
<text x="19.055" y="-357.49" transform="scale(1, -1)"
	style="font-family:Times;font-weight:normal;font-style:normal;font-size:10px">28000</text>
<path d="M46.555,90.22L54.555,90.22" style="fill:none;stroke:#000000;stroke-width:0.5" />
<path d="M46.555,225.46L54.555,225.46" style="fill:none;stroke:#000000;stroke-width:0.5" />
<path d="M46.555,360.7L54.555,360.7" style="fill:none;stroke:#000000;stroke-width:0.5" />
<path d="M50.555,157.84L54.555,157.84" style="fill:none;stroke:#000000;stroke-width:0.5" />
<path d="M50.555,293.08L54.555,293.08" style="fill:none;stroke:#000000;stroke-width:0.5" />
<path d="M54.555,45.151L54.555,416.58" style="fill:none;stroke:#000000;stroke-width:0.5" />
<path d="M60.305,416.58L82.982,52.049L84.012,55.441L88.136,58.777L89.166,59.949L90.197,70.858L91.228,68.829L92.259,113.6L93.289,78.792L94.32,105.43L95.351,109.51L96.382,59.295L97.413,58.596L99.474,63.161L100.5,102.26L101.54,92.834L102.57,142.55L103.6,52.229L104.63,79.051L105.66,107.98L106.69,93.961L109.78,86.568L110.81,80.234L111.84,147.26L112.87,80.099L113.9,46.154L114.94,166.3L115.97,98.92L117,65.978L118.03,59.442L119.06,97.804L120.09,75.952L121.12,68.457L122.15,53.401L123.18,136.28L124.21,103.6L125.24,63.657L126.27,64.073L127.3,63.792L128.34,62.034L129.37,66.136L130.4,62.541L131.43,64.299L132.46,71.613L133.49,73.112L134.52,89.374L135.55,86.208L136.58,93.499L137.61,87.74L138.64,78.792L139.67,88.383L140.71,81.08L141.74,85.419L142.77,90.332L143.8,97.973L144.83,101.6L145.86,102.57L146.89,125.95L147.92,105.12L148.95,99.202L149.98,98.469L151.01,99.754L152.04,111.8L153.07,101.07L154.11,110.8L155.14,116.22L156.17,115.49L157.2,133.53L158.23,111.34L159.26,90.997L160.29,98.514L161.32,110.62L162.35,90.321L163.38,91.313L164.41,104.76L165.44,112L166.47,115.44L167.51,99.923L168.54,96.057L169.57,107.44L170.6,104.54L171.63,86.399L172.66,87.628L173.69,97.432L174.72,110.71L175.75,103L176.78,86.005L177.81,105.47L178.84,109.76L179.87,94.153L180.91,88.8L181.94,98.638L182.97,94.198L184,93.555L185.03,90.039L186.06,95.122L187.09,104.65L188.12,96.283L189.15,101.92L190.18,99.438L191.21,101.82L192.24,101.13L193.27,100.1L194.31,101.31L195.34,99.596L196.37,102.97L197.4,107.52L198.43,110.83L199.46,111.25L200.49,106.02L201.52,106.85L202.55,106.93L203.58,105.13L204.61,101.33L205.64,103.44L206.67,110.13L207.71,107.43L208.74,108.27L209.77,110.01L210.8,107.07L211.83,104.34L212.86,104.57L213.89,98.345L214.92,100.25L215.95,101.61L216.98,101.65L218.01,99.269L219.04,100.51L220.07,101.78L221.11,99.72L222.14,95.021L223.17,93.837L224.2,97.939L225.23,97.229L226.26,92.913L227.29,92.924L228.32,93.544L229.35,97.252L230.38,95.945L231.41,91.865L232.44,92.44L233.47,96.925L234.51,91.978L235.54,90.58L236.57,90.873L237.6,93.048L238.63,93.826L239.66,90.208L240.69,90.332L241.72,91.989L242.75,93.815L243.78,91.279L244.81,90.253L245.84,90.839L246.87,89.307L247.91,90.017L248.94,89.679L249.97,90.873L251,90.558L252.03,91.561L253.06,90.197L254.09,90.344L255.12,88.191L256.15,87.706L257.18,89.048L258.21,87.887L259.24,88.022L260.27,85.238L261.31,88.878L262.34,88.011L263.37,86.625L264.4,85.419L265.43,86.309L266.46,85.407L267.49,83.548L268.52,83.289L269.55,82.612L270.58,83.108L271.61,82.263L272.64,82.015L273.67,80.651L274.71,79.648L275.74,79.93L276.77,79.13L277.8,78.623L278.83,77.789L279.86,78.026L280.89,77.53L281.92,76.256L282.95,76.493L283.98,77.879L285.01,77.135L286.04,75.58L287.07,74.126L288.11,75.411L289.14,74.329L290.17,74.385L291.2,73.754L292.23,73.258L293.26,74.994L294.29,73.281L295.32,72.684L296.35,72.661L297.38,72.391L298.41,71.196L299.44,71.805L300.48,71.106L301.51,71.951L302.54,71.534L303.57,70.768L304.6,70.204L305.63,70.88L306.66,70.114L307.69,69.697L308.72,67.905L309.75,68.3L310.78,68.728L311.81,68.007L312.84,66.925L313.88,67.409L314.91,66.62L315.94,66.97L316.97,65.403L318,65.392L319.03,65.212L320.06,65.246L321.09,64.648L322.12,64.389L323.15,64.637L324.18,63.814L325.21,63.6L326.24,63.138L327.28,62.958L328.31,62.383L329.34,61.774L330.37,62.304L331.4,61.684L332.43,61.098L333.46,60.85L334.49,61.414L335.52,60.636L336.55,60.061L337.58,60.152L338.61,60.636L339.64,59.836L340.68,59.194L341.71,58.743L342.74,59.149L343.77,58.923L344.8,58.698L345.83,58.371L346.86,57.898L347.89,57.436L348.92,57.165L349.95,57.064L350.98,57.131L352.01,57.447L353.04,57.323L354.08,56.421L355.11,56.478L356.14,56.365L357.17,56.049L358.2,55.948L359.23,56.038L360.26,55.531L361.29,55.013L362.32,55.531L363.35,55.666L364.38,54.9L365.41,55.035L366.44,54.719L367.48,54.438L368.51,53.401L369.54,54.088L370.57,53.48L371.6,53.187L372.63,54.088L373.66,53.852L374.69,53.221L375.72,52.623L376.75,53.367L377.78,52.229L378.81,52.443L379.84,51.981L380.88,52.082L381.91,52.274L382.94,51.462L383.97,51.756L385,51.395L386.03,51.26L387.06,51.023L388.09,50.944L389.12,50.967L390.15,51.192L391.18,50.505L392.21,50.538L393.24,50.64L394.28,50.257L395.31,50.347L396.34,49.907L397.37,50.257L398.4,49.637L399.43,49.975L400.46,49.648L401.49,49.907L402.52,49.84L403.55,49.502L404.58,49.648L405.61,49.197L406.64,49.22L407.68,49.468L408.71,49.423L409.74,49.276L410.77,48.656L411.8,48.668L412.83,48.566L413.86,48.803L414.89,48.577L415.92,48.363L416.95,48.307L417.98,48.397L419.01,48.183L420.04,48.239L421.08,47.856L422.11,48.115L423.14,47.845L424.17,47.507L425.2,47.789L426.23,47.439L427.26,47.766L428.29,47.71L429.32,47.619L430.35,47.834L431.38,47.586L432.41,47.608L433.44,47.608L434.48,47.45L435.51,47.067L436.54,47L437.57,47.101L438.6,47.056L439.63,47.214L440.66,46.639L441.69,47.112L442.72,47.022L443.75,46.673L444.78,46.549L445.81,47L446.84,46.898L447.88,46.628L448.91,46.752L449.94,46.459L450.97,46.65L452,46.425L453.03,46.616L454.06,46.414L455.09,46.425L456.12,46.222L457.15,46.583L458.18,46.481L459.21,46.312L460.24,46.256L461.28,46.143L462.31,46.154L463.34,46.335L464.37,46.335L465.4,46.301L466.43,46.199L467.46,45.952L468.49,46.087L469.52,46.03L470.55,46.222L471.58,46.154L472.61,45.85L473.65,45.974L474.68,45.906L475.71,46.019L476.74,45.805L477.77,45.839L478.8,45.94L479.83,45.737L480.86,45.794L481.89,45.828L482.92,45.715L483.95,45.692L484.98,45.67L486.01,45.805L487.05,45.76L488.08,45.726L489.11,45.67L490.14,45.681L491.17,45.692L492.2,45.715L493.23,45.715L494.26,45.512L495.29,45.568L496.32,45.613L497.35,45.546L498.38,45.523L499.41,45.557L500.45,45.58L501.48,45.58L502.51,45.478L503.54,45.523L504.57,45.568L505.6,45.456L506.63,45.501L507.66,45.557L508.69,45.523L509.72,45.365L510.75,45.411L511.78,45.535L512.81,45.467L513.85,45.388L514.88,45.377L515.91,45.32L516.94,45.422L517.97,45.365L519,45.354L520.03,45.287L521.06,45.298L522.09,45.287L523.12,45.365L524.15,45.287L525.18,45.433L526.21,45.388L527.25,45.32L528.28,45.354L529.31,45.332L530.34,45.332L531.37,45.32L532.4,45.208L533.43,45.242L534.46,45.23L535.49,45.343L536.52,45.242L537.55,45.287L538.58,45.219L539.61,45.343L540.65,45.196L541.68,45.287L542.71,45.208L543.74,45.264L544.77,45.253L545.8,45.23L546.83,45.264L547.86,45.219L548.89,45.264L549.92,45.219L550.95,45.275L551.98,45.174L553.01,45.208L554.05,45.208L555.08,45.23L556.11,45.185L557.14,45.219L558.17,45.208L559.2,45.242L560.23,45.219L561.26,45.196L562.29,45.23L563.32,45.163L564.35,45.219L565.38,45.174L566.41,45.174L567.45,45.242L568.48,45.163L569.51,45.208L570.54,45.185L571.57,45.174L572.6,45.185L573.63,45.208L574.66,45.208L575.69,45.196L576.72,45.163L577.75,45.151L578.78,45.174L579.81,45.163L580.85,45.185L581.88,45.208L582.91,45.174L583.94,45.185L584.97,45.174L587.03,45.185L588.06,45.174L589.09,45.174L591.15,45.185L592.18,45.151L593.21,45.185L594.25,45.174L595.28,45.151L596.31,45.163L597.34,45.151L598.37,45.163L600.43,45.151L602.49,45.185L604.55,45.163L605.58,45.163L606.61,45.151L607.65,45.174L609.71,45.185L610.74,45.151L612.8,45.151L613.83,45.151L614.86,45.151L615.89,45.163L617.95,45.163L622.08,45.151L623.11,45.151L624.14,45.174L626.2,45.151L629.29,45.151L633.41,45.151L634.45,45.151L637.54,45.151L638.57,45.151L643.72,45.163L645.78,45.151L660.22,45.151L666.4,45.151L673.62,45.151L691.14,45.151L692.17,45.151L698.35,45.151L706.6,45.151L720,45.151" style="fill:none;stroke:#0000FF" />
</g>
</svg>
