<?xml version="1.0"?>
<!-- Generated by SVGo and Plotinum VG -->
<svg width="720pt" height="432pt" viewBox="0 0 720 432"
	xmlns="http://www.w3.org/2000/svg"
	xmlns:xlink="http://www.w3.org/1999/xlink">
<g transform="scale(1, -1) translate(0, -432)">
<path d="M0,0L720,0L720,432L0,432Z" style="fill:#FFFFFF" />
<text x="358.5" y="-420.45" transform="scale(1, -1)"
	style="font-family:Times;font-weight:normal;font-style:normal;font-size:12px"> </text>
<text x="376.81" y="-3.8613" transform="scale(1, -1)"
	style="font-family:Times;font-weight:normal;font-style:normal;font-size:12px">Costs</text>
<text x="51.555" y="-18.634" transform="scale(1, -1)"
	style="font-family:Times;font-weight:normal;font-style:normal;font-size:10px">0.00</text>
<text x="346.42" y="-18.634" transform="scale(1, -1)"
	style="font-family:Times;font-weight:normal;font-style:normal;font-size:10px">250.00</text>
<text x="646.28" y="-18.634" transform="scale(1, -1)"
	style="font-family:Times;font-weight:normal;font-style:normal;font-size:10px">500.00</text>
<path d="M60.305,28.263L60.305,36.263" style="fill:none;stroke:#000000;stroke-width:0.5" />
<path d="M360.17,28.263L360.17,36.263" style="fill:none;stroke:#000000;stroke-width:0.5" />
<path d="M660.03,28.263L660.03,36.263" style="fill:none;stroke:#000000;stroke-width:0.5" />
<path d="M120.28,32.263L120.28,36.263" style="fill:none;stroke:#000000;stroke-width:0.5" />
<path d="M180.25,32.263L180.25,36.263" style="fill:none;stroke:#000000;stroke-width:0.5" />
<path d="M240.22,32.263L240.22,36.263" style="fill:none;stroke:#000000;stroke-width:0.5" />
<path d="M300.19,32.263L300.19,36.263" style="fill:none;stroke:#000000;stroke-width:0.5" />
<path d="M420.14,32.263L420.14,36.263" style="fill:none;stroke:#000000;stroke-width:0.5" />
<path d="M480.11,32.263L480.11,36.263" style="fill:none;stroke:#000000;stroke-width:0.5" />
<path d="M540.08,32.263L540.08,36.263" style="fill:none;stroke:#000000;stroke-width:0.5" />
<path d="M600.06,32.263L600.06,36.263" style="fill:none;stroke:#000000;stroke-width:0.5" />
<path d="M720,32.263L720,36.263" style="fill:none;stroke:#000000;stroke-width:0.5" />
<path d="M60.305,36.263L720,36.263" style="fill:none;stroke:#000000;stroke-width:0.5" />
<g transform="rotate(90)">
<text x="152.55" y="11.555" transform="scale(1, -1)"
	style="font-family:Times;font-weight:normal;font-style:normal;font-size:12px">Number of trials (1000000 total)</text>
</g>
<text x="19.055" y="-93.221" transform="scale(1, -1)"
	style="font-family:Times;font-weight:normal;font-style:normal;font-size:10px">10000</text>
<text x="19.055" y="-247.06" transform="scale(1, -1)"
	style="font-family:Times;font-weight:normal;font-style:normal;font-size:10px">40000</text>
<text x="19.055" y="-400.9" transform="scale(1, -1)"
	style="font-family:Times;font-weight:normal;font-style:normal;font-size:10px">70000</text>
<path d="M46.555,96.426L54.555,96.426" style="fill:none;stroke:#000000;stroke-width:0.5" />
<path d="M46.555,250.27L54.555,250.27" style="fill:none;stroke:#000000;stroke-width:0.5" />
<path d="M46.555,404.11L54.555,404.11" style="fill:none;stroke:#000000;stroke-width:0.5" />
<path d="M50.555,147.71L54.555,147.71" style="fill:none;stroke:#000000;stroke-width:0.5" />
<path d="M50.555,198.99L54.555,198.99" style="fill:none;stroke:#000000;stroke-width:0.5" />
<path d="M50.555,301.55L54.555,301.55" style="fill:none;stroke:#000000;stroke-width:0.5" />
<path d="M50.555,352.83L54.555,352.83" style="fill:none;stroke:#000000;stroke-width:0.5" />
<path d="M54.555,45.151L54.555,416.58" style="fill:none;stroke:#000000;stroke-width:0.5" />
<path d="M60.305,416.58L91.49,56.407L92.69,89.842L93.889,101.31L97.488,78.607L98.687,56.166L101.09,165.29L102.29,56.269L103.48,82.504L105.88,56.013L107.08,67.099L108.28,51.772L109.48,78.914L110.68,81.858L111.88,56.382L113.08,115.9L119.08,81.668L120.28,105.5L121.48,79.078L123.88,105.77L125.07,98.416L126.27,52.233L128.67,46.11L129.87,82.888L131.07,51.777L132.27,50.32L133.47,142.92L134.67,64.746L135.87,52.192L137.07,51.223L138.27,57.459L139.47,53.797L140.67,53.561L141.87,55.643L143.07,59.848L144.27,69.217L145.47,57.771L146.66,62.684L147.86,90.611L149.06,84.391L150.26,65.607L151.46,66.889L152.66,104.52L153.86,86.078L155.06,56.818L156.26,116.99L157.46,73.161L158.66,61.223L159.86,65.504L161.06,75.314L162.26,78.525L163.46,65.935L164.66,74.058L165.86,82.417L167.06,76.494L168.25,58.592L169.45,57.936L170.65,80.437L171.85,68.063L173.05,69.407L174.25,91.155L175.45,57.761L176.65,72.361L177.85,59.084L179.05,61.233L180.25,66.566L181.45,66.597L182.65,74.263L183.85,75.089L185.05,75.617L186.25,82.227L187.45,56.059L188.65,79.478L189.84,82.586L191.04,61.705L192.24,63.664L193.44,90.632L194.64,74.212L195.84,61.505L197.04,89.709L198.24,79.319L199.44,68.843L200.64,62.633L201.84,65.904L203.04,74.612L204.24,62.176L205.44,69.561L206.64,73.622L207.84,72.458L209.04,76.309L210.24,61.715L211.43,69.084L212.63,76.499L213.83,69.622L215.03,66.812L216.23,74.648L217.43,77.919L218.63,63.946L219.83,68.704L221.03,75.643L222.23,74.13L223.43,64.453L224.63,62.987L225.83,79.678L227.03,69.648L228.23,58.479L229.43,74.581L230.63,66.248L231.83,63.346L233.02,62.089L234.22,65.992L235.42,67.171L236.62,66.863L237.82,64.212L239.02,65.92L240.22,67.525L241.42,66.258L242.62,63.658L243.82,70.079L245.02,68.253L246.22,67.725L247.42,65.315L248.62,69.238L249.82,69.638L251.02,61.535L252.22,62.997L253.42,67.012L254.61,64.946L255.81,63.843L257.01,64.258L258.21,69.017L259.41,65.638L260.61,61.51L261.81,66.376L263.01,66.361L264.21,60.305L265.41,60.207L266.61,66.007L267.81,62.346L269.01,61.53L270.21,64.048L271.41,60.889L272.61,62.951L273.81,60.674L275.01,60.561L276.2,61.228L277.4,61.546L278.6,62.028L279.8,59.479L281,62.961L282.2,63.956L283.4,56.956L284.6,60.648L285.8,63.761L287,60.202L288.2,57.238L289.4,61.284L290.6,61.694L291.8,57.941L293,58.171L294.2,59.335L295.4,59.305L296.6,58.064L297.79,57.059L298.99,58.361L300.19,58.479L301.39,57.664L302.59,57.52L303.79,57.982L304.99,58.346L306.19,56.966L307.39,56.771L308.59,57.643L309.79,57.643L310.99,55.823L312.19,55.828L313.39,57.238L314.59,57.146L315.79,54.982L316.99,56.187L318.19,57.253L319.39,56.033L320.58,54.1L321.78,56.428L322.98,56.182L324.18,53.597L325.38,54.125L326.58,54.869L327.78,54.459L328.98,54.182L330.18,54.013L331.38,54.71L332.58,53.946L333.78,53.531L334.98,53.833L336.18,53.736L337.38,54.161L338.58,53.572L339.78,53.007L340.98,52.925L342.17,53.264L343.37,52.525L344.57,52.279L345.77,53.038L346.97,52.597L348.17,51.936L349.37,52.351L350.57,53.51L351.77,51.5L352.97,51.649L354.17,52.413L355.37,52.09L356.57,51.126L357.77,51.32L358.97,51.987L360.17,51.326L361.37,50.792L362.57,51.387L363.76,50.797L364.96,51.126L366.16,50.3L367.36,50.243L368.56,50.838L369.76,50.613L370.96,49.941L372.16,49.967L373.36,50.643L374.56,50.126L375.76,49.828L376.96,50.028L378.16,50.3L379.36,49.808L380.56,49.567L381.76,49.808L382.96,49.777L384.16,49.382L385.35,49.187L386.55,49.177L387.75,49.279L388.95,48.726L390.15,48.987L391.35,49.161L392.55,48.782L393.75,48.551L394.95,48.561L396.15,48.787L397.35,48.7L398.55,48.592L399.75,48.336L400.95,48.556L402.15,48.485L403.35,48.515L404.55,48.033L405.75,48.285L406.94,47.972L408.14,48.064L409.34,48.09L410.54,48.115L411.74,48.038L412.94,47.669L414.14,47.833L415.34,47.844L416.54,47.551L417.74,47.562L418.94,47.515L420.14,47.654L421.34,47.29L422.54,47.377L423.74,47.459L424.94,47.126L426.14,47.356L427.34,47.167L428.53,47.028L429.73,47.1L430.93,47.264L432.13,47.069L433.33,46.946L434.53,47.069L435.73,46.813L436.93,46.797L438.13,46.721L439.33,46.705L440.53,46.792L441.73,46.833L442.93,46.756L444.13,46.746L445.33,46.762L446.53,46.746L447.73,46.515L448.93,46.705L450.12,46.295L451.32,46.654L452.52,46.515L453.72,46.367L454.92,46.438L456.12,46.469L457.32,46.167L458.52,46.177L459.72,46.182L460.92,46.197L462.12,46.192L463.32,46.177L464.52,46.31L465.72,46.177L466.92,46.203L468.12,45.9L469.32,46.223L470.52,46.115L471.71,46.028L472.91,45.992L474.11,45.915L475.31,45.946L476.51,46.013L477.71,45.941L478.91,45.987L480.11,45.91L481.31,45.895L482.51,45.885L483.71,45.874L484.91,45.844L486.11,45.756L487.31,45.823L488.51,45.762L489.71,45.756L490.91,45.767L492.11,45.833L493.3,45.71L494.5,45.577L495.7,45.685L496.9,45.628L498.1,45.721L499.3,45.664L500.5,45.669L501.7,45.582L502.9,45.633L504.1,45.577L505.3,45.613L506.5,45.587L507.7,45.546L508.9,45.613L510.1,45.49L511.3,45.587L512.5,45.464L513.7,45.546L514.89,45.526L516.09,45.377L517.29,45.459L518.49,45.403L519.69,45.459L520.89,45.356L522.09,45.351L523.29,45.449L524.49,45.459L525.69,45.459L526.89,45.372L528.09,45.346L529.29,45.382L530.49,45.377L531.69,45.392L532.89,45.285L534.09,45.336L535.29,45.377L536.48,45.295L537.68,45.346L538.88,45.367L540.08,45.382L541.28,45.315L542.48,45.387L543.68,45.341L544.88,45.356L546.08,45.305L547.28,45.326L548.48,45.305L549.68,45.274L550.88,45.356L552.08,45.285L553.28,45.285L554.48,45.213L555.68,45.274L556.88,45.321L558.07,45.264L559.27,45.3L560.47,45.254L561.67,45.269L562.87,45.264L564.07,45.269L565.27,45.29L566.47,45.274L567.67,45.254L568.87,45.28L570.07,45.198L571.27,45.213L572.47,45.274L573.67,45.254L574.87,45.259L576.07,45.218L577.27,45.228L578.47,45.218L579.66,45.233L580.86,45.187L582.06,45.213L583.26,45.198L584.46,45.182L585.66,45.254L586.86,45.192L588.06,45.177L589.26,45.177L590.46,45.192L591.66,45.203L592.86,45.213L594.06,45.208L595.26,45.213L596.46,45.177L597.66,45.187L598.86,45.192L600.06,45.198L601.25,45.223L602.45,45.208L603.65,45.198L604.85,45.192L606.05,45.182L607.25,45.187L608.45,45.172L609.65,45.187L610.85,45.192L612.05,45.172L613.25,45.182L614.45,45.167L615.65,45.182L616.85,45.177L618.05,45.167L619.25,45.162L620.45,45.167L621.65,45.192L622.84,45.162L624.04,45.192L625.24,45.192L626.44,45.156L627.64,45.156L628.84,45.162L630.04,45.167L631.24,45.167L632.44,45.167L633.64,45.172L634.84,45.177L636.04,45.177L637.24,45.167L638.44,45.172L639.64,45.151L640.84,45.156L642.04,45.177L643.24,45.151L645.63,45.172L646.83,45.162L648.03,45.156L649.23,45.156L650.43,45.162L651.63,45.151L652.83,45.156L655.23,45.156L656.43,45.167L657.63,45.151L658.83,45.156L660.03,45.167L662.43,45.156L663.63,45.156L664.83,45.156L666.02,45.156L667.22,45.151L668.42,45.156L669.62,45.162L672.02,45.151L673.22,45.151L675.62,45.156L676.82,45.162L679.22,45.162L684.02,45.156L685.22,45.156L687.61,45.156L698.41,45.151L699.61,45.156L700.81,45.151L708.01,45.151L710.4,45.151L711.6,45.151L712.8,45.151L716.4,45.151L720,45.156" style="fill:none;stroke:#0000FF" />
</g>
</svg>
