<?xml version="1.0"?>
<!-- Generated by SVGo and Plotinum VG -->
<svg width="720pt" height="432pt" viewBox="0 0 720 432"
	xmlns="http://www.w3.org/2000/svg"
	xmlns:xlink="http://www.w3.org/1999/xlink">
<g transform="scale(1, -1) translate(0, -432)">
<path d="M0,0L720,0L720,432L0,432Z" style="fill:#FFFFFF" />
<text x="358.5" y="-420.45" transform="scale(1, -1)"
	style="font-family:Times;font-weight:normal;font-style:normal;font-size:12px"> </text>
<text x="379.31" y="-3.8613" transform="scale(1, -1)"
	style="font-family:Times;font-weight:normal;font-style:normal;font-size:12px">Costs</text>
<text x="62.805" y="-18.634" transform="scale(1, -1)"
	style="font-family:Times;font-weight:normal;font-style:normal;font-size:10px">0</text>
<text x="340" y="-18.634" transform="scale(1, -1)"
	style="font-family:Times;font-weight:normal;font-style:normal;font-size:10px">200</text>
<text x="622.2" y="-18.634" transform="scale(1, -1)"
	style="font-family:Times;font-weight:normal;font-style:normal;font-size:10px">400</text>
<path d="M65.305,28.263L65.305,36.263" style="fill:none;stroke:#000000;stroke-width:0.5" />
<path d="M347.5,28.263L347.5,36.263" style="fill:none;stroke:#000000;stroke-width:0.5" />
<path d="M629.7,28.263L629.7,36.263" style="fill:none;stroke:#000000;stroke-width:0.5" />
<path d="M206.4,32.263L206.4,36.263" style="fill:none;stroke:#000000;stroke-width:0.5" />
<path d="M488.6,32.263L488.6,36.263" style="fill:none;stroke:#000000;stroke-width:0.5" />
<path d="M65.305,36.263L720,36.263" style="fill:none;stroke:#000000;stroke-width:0.5" />
<g transform="rotate(90)">
<text x="152.55" y="11.555" transform="scale(1, -1)"
	style="font-family:Times;font-weight:normal;font-style:normal;font-size:12px">Number of trials (1000000 total)</text>
</g>
<text x="24.055" y="-106.83" transform="scale(1, -1)"
	style="font-family:Times;font-weight:normal;font-style:normal;font-size:10px">30000</text>
<text x="24.055" y="-236.59" transform="scale(1, -1)"
	style="font-family:Times;font-weight:normal;font-style:normal;font-size:10px">90000</text>
<text x="19.055" y="-366.35" transform="scale(1, -1)"
	style="font-family:Times;font-weight:normal;font-style:normal;font-size:10px">150000</text>
<path d="M51.555,110.03L59.555,110.03" style="fill:none;stroke:#000000;stroke-width:0.5" />
<path d="M51.555,239.8L59.555,239.8" style="fill:none;stroke:#000000;stroke-width:0.5" />
<path d="M51.555,369.56L59.555,369.56" style="fill:none;stroke:#000000;stroke-width:0.5" />
<path d="M55.555,174.91L59.555,174.91" style="fill:none;stroke:#000000;stroke-width:0.5" />
<path d="M55.555,304.68L59.555,304.68" style="fill:none;stroke:#000000;stroke-width:0.5" />
<path d="M59.555,45.151L59.555,416.58" style="fill:none;stroke:#000000;stroke-width:0.5" />
<path d="M65.305,416.58L96.346,71.202L99.168,48.642L103.4,77.495L104.81,63.057L106.22,55.898L109.05,71.156L110.46,55.753L111.87,96.594L113.28,52.944L114.69,81.693L116.1,63.641L117.51,66.889L118.92,52.128L120.33,87.848L121.74,62.845L123.15,63.312L124.57,74.314L125.98,55.651L127.39,73.687L128.8,78.728L130.21,45.387L133.03,52.918L134.44,50.707L135.85,84.029L137.26,53.229L138.68,45.285L140.09,79.738L141.5,75.761L142.91,61.002L144.32,63.781L145.73,70.54L147.14,67.114L148.55,63.463L149.96,51.614L151.37,58.77L152.79,59.508L154.2,51.177L155.61,54.07L157.02,50.069L158.43,56.77L159.84,54.029L161.25,55.699L162.66,53.456L164.07,55.833L165.48,54.717L166.9,62.624L168.31,55.902L169.72,69.993L171.13,58.77L172.54,57.996L173.95,60.466L175.36,59.579L176.77,56.661L178.18,57.875L179.59,61.848L181.01,56.175L182.42,61.164L183.83,59.957L185.24,59.934L186.65,61.156L188.06,59.748L189.47,57.886L190.88,63.137L192.29,59.962L193.7,56.549L195.11,61.545L196.53,59.114L197.94,58.934L199.35,60.701L200.76,57.738L202.17,56.815L203.58,58.826L204.99,56.147L206.4,54.607L207.81,56.309L209.22,54.22L210.64,56.289L212.05,54.884L213.46,53.439L214.87,54.313L216.28,56.951L217.69,54.077L219.1,55.468L220.51,54.401L221.92,55.476L223.33,55.262L224.75,54.882L226.16,54.114L227.57,54.051L228.98,54.33L230.39,53.268L231.8,53.21L233.21,53.461L234.62,52.55L236.03,51.986L237.44,52.539L238.86,52.245L240.27,53.125L241.68,52.749L243.09,52.118L244.5,53.493L245.91,53.056L247.32,52.758L248.73,53.028L250.14,53.095L251.55,52.632L252.97,52.626L254.38,52.165L255.79,51.951L257.2,51.852L258.61,51.687L260.02,51.218L261.43,51.259L262.84,51.508L264.25,51.038L265.66,51.283L267.08,50.984L268.49,50.874L269.9,50.619L271.31,50.77L272.72,50.597L274.13,50.576L275.54,50.433L276.95,50.182L278.36,50.106L279.77,50.139L281.18,49.767L282.6,49.615L284.01,49.589L285.42,49.431L286.83,49.297L288.24,49.029L289.65,49.224L291.06,49.15L292.47,48.91L293.88,48.817L295.29,48.919L296.71,48.783L298.12,48.707L299.53,48.77L300.94,48.633L302.35,48.581L303.76,48.59L305.17,48.473L306.58,48.395L307.99,48.142L309.4,48.127L310.82,48.043L312.23,48.008L313.64,47.814L315.05,47.887L316.46,47.645L317.87,47.766L319.28,47.734L320.69,47.727L322.1,47.675L323.51,47.69L324.93,47.472L326.34,47.552L327.75,47.427L329.16,47.29L330.57,47.342L331.98,47.219L333.39,47.245L334.8,47.141L336.21,47.109L337.62,46.91L339.04,46.975L340.45,46.856L341.86,46.808L343.27,46.864L344.68,46.743L346.09,46.81L347.5,46.607L348.91,46.696L350.32,46.756L351.73,46.546L353.14,46.54L354.56,46.438L355.97,46.447L357.38,46.412L358.79,46.51L360.2,46.35L361.61,46.317L363.02,46.393L364.43,46.265L365.84,46.237L367.25,46.166L368.67,46.138L370.08,46.161L371.49,46.129L372.9,46.103L374.31,46.062L375.72,46.062L377.13,46.032L378.54,46.06L379.95,45.96L381.36,45.917L382.78,45.999L384.19,45.913L385.6,45.874L387.01,45.863L388.42,45.824L389.83,45.848L391.24,45.815L392.65,45.885L394.06,45.755L395.47,45.688L396.89,45.724L398.3,45.699L399.71,45.673L401.12,45.623L402.53,45.683L403.94,45.64L405.35,45.595L406.76,45.619L408.17,45.673L409.58,45.621L411,45.619L412.41,45.577L413.82,45.564L415.23,45.506L416.64,45.502L418.05,45.536L419.46,45.536L420.87,45.482L422.28,45.51L423.69,45.521L425.1,45.495L426.52,45.465L427.93,45.445L429.34,45.376L430.75,45.402L432.16,45.443L433.57,45.417L434.98,45.422L436.39,45.409L437.8,45.361L439.21,45.357L440.63,45.361L442.04,45.353L443.45,45.337L444.86,45.344L446.27,45.333L447.68,45.329L449.09,45.335L450.5,45.335L451.91,45.344L453.32,45.292L454.74,45.301L456.15,45.298L457.56,45.307L458.97,45.301L460.38,45.247L461.79,45.294L463.2,45.292L464.61,45.268L466.02,45.279L467.43,45.281L468.85,45.26L470.26,45.249L471.67,45.225L473.08,45.257L474.49,45.225L475.9,45.231L477.31,45.262L478.72,45.225L480.13,45.221L481.54,45.242L482.96,45.231L484.37,45.225L485.78,45.24L487.19,45.229L488.6,45.212L490.01,45.216L491.42,45.218L492.83,45.19L494.24,45.218L495.65,45.216L497.06,45.201L498.48,45.192L499.89,45.201L501.3,45.201L502.71,45.182L504.12,45.205L505.53,45.186L506.94,45.208L508.35,45.218L509.76,45.195L511.17,45.192L512.59,45.21L514,45.175L515.41,45.184L516.82,45.182L518.23,45.173L519.64,45.184L521.05,45.184L522.46,45.169L523.87,45.192L525.28,45.179L526.7,45.164L528.11,45.179L529.52,45.173L530.93,45.162L532.34,45.173L533.75,45.169L535.16,45.171L536.57,45.162L537.98,45.169L539.39,45.16L540.81,45.169L542.22,45.154L543.63,45.154L545.04,45.164L546.45,45.169L547.86,45.169L549.27,45.158L550.68,45.16L552.09,45.162L553.5,45.164L554.92,45.162L556.33,45.177L557.74,45.156L559.15,45.156L560.56,45.156L561.97,45.164L563.38,45.16L564.79,45.162L566.2,45.164L567.61,45.156L569.03,45.164L570.44,45.156L571.85,45.156L573.26,45.154L574.67,45.164L576.08,45.162L577.49,45.154L578.9,45.16L580.31,45.158L581.72,45.154L583.13,45.151L584.55,45.151L585.96,45.158L587.37,45.164L588.78,45.156L590.19,45.154L593.01,45.156L594.42,45.151L595.83,45.156L597.24,45.156L598.66,45.154L600.07,45.151L601.48,45.156L602.89,45.151L604.3,45.154L607.12,45.158L608.53,45.151L609.94,45.154L611.35,45.151L612.77,45.154L614.18,45.151L615.59,45.154L618.41,45.151L628.29,45.151L629.7,45.151L638.16,45.151L642.4,45.151L646.63,45.151L660.74,45.151L662.15,45.151L664.97,45.151L669.2,45.151L679.08,45.151L711.53,45.151L720,45.151" style="fill:none;stroke:#0000FF" />
</g>
</svg>
