<?xml version="1.0"?>
<!-- Generated by SVGo and Plotinum VG -->
<svg width="720pt" height="432pt" viewBox="0 0 720 432"
	xmlns="http://www.w3.org/2000/svg"
	xmlns:xlink="http://www.w3.org/1999/xlink">
<g transform="scale(1, -1) translate(0, -432)">
<path d="M0,0L720,0L720,432L0,432Z" style="fill:#FFFFFF" />
<text x="358.5" y="-420.45" transform="scale(1, -1)"
	style="font-family:Times;font-weight:normal;font-style:normal;font-size:12px"> </text>
<text x="380.57" y="-3.8613" transform="scale(1, -1)"
	style="font-family:Times;font-weight:normal;font-style:normal;font-size:12px">Costs</text>
<text x="69.055" y="-18.634" transform="scale(1, -1)"
	style="font-family:Times;font-weight:normal;font-style:normal;font-size:10px">0.00</text>
<text x="378.28" y="-18.634" transform="scale(1, -1)"
	style="font-family:Times;font-weight:normal;font-style:normal;font-size:10px">250.00</text>
<text x="692.5" y="-18.634" transform="scale(1, -1)"
	style="font-family:Times;font-weight:normal;font-style:normal;font-size:10px">500.00</text>
<path d="M77.805,28.263L77.805,36.263" style="fill:none;stroke:#000000;stroke-width:0.5" />
<path d="M392.03,28.263L392.03,36.263" style="fill:none;stroke:#000000;stroke-width:0.5" />
<path d="M706.25,28.263L706.25,36.263" style="fill:none;stroke:#000000;stroke-width:0.5" />
<path d="M140.65,32.263L140.65,36.263" style="fill:none;stroke:#000000;stroke-width:0.5" />
<path d="M203.49,32.263L203.49,36.263" style="fill:none;stroke:#000000;stroke-width:0.5" />
<path d="M266.34,32.263L266.34,36.263" style="fill:none;stroke:#000000;stroke-width:0.5" />
<path d="M329.18,32.263L329.18,36.263" style="fill:none;stroke:#000000;stroke-width:0.5" />
<path d="M454.87,32.263L454.87,36.263" style="fill:none;stroke:#000000;stroke-width:0.5" />
<path d="M517.72,32.263L517.72,36.263" style="fill:none;stroke:#000000;stroke-width:0.5" />
<path d="M580.56,32.263L580.56,36.263" style="fill:none;stroke:#000000;stroke-width:0.5" />
<path d="M643.41,32.263L643.41,36.263" style="fill:none;stroke:#000000;stroke-width:0.5" />
<path d="M77.805,36.263L710.02,36.263" style="fill:none;stroke:#000000;stroke-width:0.5" />
<g transform="rotate(90)">
<text x="152.55" y="11.555" transform="scale(1, -1)"
	style="font-family:Times;font-weight:normal;font-style:normal;font-size:12px">Number of trials (1000000 total)</text>
</g>
<text x="24.055" y="-91.26" transform="scale(1, -1)"
	style="font-family:Times;font-weight:normal;font-style:normal;font-size:10px">25000.00</text>
<text x="19.055" y="-239.21" transform="scale(1, -1)"
	style="font-family:Times;font-weight:normal;font-style:normal;font-size:10px">100000.00</text>
<text x="19.055" y="-387.16" transform="scale(1, -1)"
	style="font-family:Times;font-weight:normal;font-style:normal;font-size:10px">175000.00</text>
<path d="M64.055,94.466L72.055,94.466" style="fill:none;stroke:#000000;stroke-width:0.5" />
<path d="M64.055,242.41L72.055,242.41" style="fill:none;stroke:#000000;stroke-width:0.5" />
<path d="M64.055,390.36L72.055,390.36" style="fill:none;stroke:#000000;stroke-width:0.5" />
<path d="M68.055,168.44L72.055,168.44" style="fill:none;stroke:#000000;stroke-width:0.5" />
<path d="M68.055,316.39L72.055,316.39" style="fill:none;stroke:#000000;stroke-width:0.5" />
<path d="M72.055,45.151L72.055,416.58" style="fill:none;stroke:#000000;stroke-width:0.5" />
<path d="M77.805,416.58L110.48,55.109L111.74,62.442L113,66.202L114.25,55.494L116.77,66.29L118.03,65.775L119.28,66.462L120.54,69.366L121.8,65.633L123.05,62.556L124.31,52.135L125.57,62.44L126.82,52.048L128.08,58.5L129.34,69.851L130.59,62.351L131.85,87.216L133.11,58.986L134.36,55.368L135.62,55.721L139.39,69.076L140.65,65.985L141.91,48.667L143.16,45.218L144.42,93.742L145.68,66.835L146.93,46.372L148.19,70.618L149.45,46.23L150.7,57.228L151.96,58.749L153.22,59.24L154.48,80.555L155.73,55.672L156.99,52.448L158.25,48.937L159.5,49.614L160.76,49.763L162.02,64.838L163.27,50.695L164.53,52.734L165.79,52.202L167.04,52.365L168.3,51.975L169.56,65.069L170.81,63.343L172.07,53.156L173.33,53.701L174.59,61.631L175.84,53.498L177.1,53.15L178.36,63.864L179.61,66.421L180.87,53.989L182.13,53.602L183.38,56.638L184.64,56.368L185.9,55.664L187.15,57.861L188.41,56.646L189.67,56.642L190.92,54.537L192.18,54.936L193.44,56.261L194.7,56.106L195.95,57.648L197.21,56.09L198.47,58.076L199.72,54.863L200.98,52.793L202.24,56.764L203.49,52.624L204.75,53.072L206.01,56.975L207.26,55.829L208.52,54.886L209.78,54.074L211.04,54.955L212.29,54.904L213.55,53.294L214.81,54.975L216.06,54.729L217.32,53.928L218.58,54.125L219.83,53.07L221.09,56.23L222.35,54.407L223.6,54.182L224.86,54.6L226.12,51.57L227.37,52.164L228.63,53.541L229.89,52.389L231.15,52.866L232.4,54.427L233.66,51.922L234.92,50.88L236.17,52.734L237.43,52.971L238.69,51.61L239.94,51.937L241.2,52.983L242.46,51.43L243.71,50.582L244.97,52.395L246.23,53.584L247.48,52.113L248.74,51.075L250,51.308L251.26,51.148L252.51,50.996L253.77,51.176L255.03,51.598L256.28,51.168L257.54,50.288L258.8,50.592L260.05,50.426L261.31,49.917L262.57,50.886L263.82,50.663L265.08,49.984L266.34,50.158L267.6,49.969L268.85,49.961L270.11,49.961L271.37,50.182L272.62,50.124L273.88,49.606L275.14,49.773L276.39,49.795L277.65,49.385L278.91,49.562L280.16,49.576L281.42,49.022L282.68,49.343L283.93,49.134L285.19,49.049L286.45,49.045L287.71,49.079L288.96,49.008L290.22,48.738L291.48,48.888L292.73,48.604L293.99,48.495L295.25,48.714L296.5,48.402L297.76,48.357L299.02,48.651L300.27,48.325L301.53,48.059L302.79,48.183L304.04,48.085L305.3,47.891L306.56,47.97L307.82,48.039L309.07,48.057L310.33,47.661L311.59,47.666L312.84,47.678L314.1,47.783L315.36,47.692L316.61,47.613L317.87,47.538L319.13,47.451L320.38,47.42L321.64,47.412L322.9,47.329L324.16,47.345L325.41,47.242L326.67,47.185L327.93,47.081L329.18,47.199L330.44,47.067L331.7,46.956L332.95,47.037L334.21,46.974L335.47,46.818L336.72,46.919L337.98,46.923L339.24,46.978L340.49,46.771L341.75,46.729L343.01,46.623L344.27,46.603L345.52,46.566L346.78,46.712L348.04,46.58L349.29,46.584L350.55,46.428L351.81,46.388L353.06,46.497L354.32,46.323L355.58,46.388L356.83,46.341L358.09,46.388L359.35,46.244L360.61,46.234L361.86,46.252L363.12,46.126L364.38,46.199L365.63,46.226L366.89,46.175L368.15,46.116L369.4,46.049L370.66,46.112L371.92,46.063L373.17,46.067L374.43,45.968L375.69,46.031L376.94,45.988L378.2,45.944L379.46,45.927L380.72,45.938L381.97,45.822L383.23,45.875L384.49,45.842L385.74,45.785L387,45.826L388.26,45.808L389.51,45.729L390.77,45.81L392.03,45.731L393.28,45.7L394.54,45.696L395.8,45.696L397.05,45.718L398.31,45.686L399.57,45.662L400.83,45.625L402.08,45.654L403.34,45.579L404.6,45.676L405.85,45.572L407.11,45.591L408.37,45.574L409.62,45.589L410.88,45.516L412.14,45.532L413.39,45.536L414.65,45.556L415.91,45.52L417.17,45.56L418.42,45.463L419.68,45.506L420.94,45.473L422.19,45.491L423.45,45.485L424.71,45.483L425.96,45.418L427.22,45.433L428.48,45.382L429.73,45.4L430.99,45.406L432.25,45.396L433.5,45.424L434.76,45.378L436.02,45.388L437.28,45.386L438.53,45.343L439.79,45.386L441.05,45.358L442.3,45.343L443.56,45.366L444.82,45.327L446.07,45.327L447.33,45.323L448.59,45.345L449.84,45.323L451.1,45.307L452.36,45.315L453.61,45.303L454.87,45.305L456.13,45.274L457.39,45.299L458.64,45.289L459.9,45.274L461.16,45.268L462.41,45.272L463.67,45.274L464.93,45.28L466.18,45.272L467.44,45.28L468.7,45.268L469.95,45.266L471.21,45.246L472.47,45.226L473.73,45.24L474.98,45.234L476.24,45.234L477.5,45.26L478.75,45.218L480.01,45.232L481.27,45.24L482.52,45.232L483.78,45.214L485.04,45.22L486.29,45.224L487.55,45.228L488.81,45.216L490.06,45.224L491.32,45.222L492.58,45.213L493.84,45.203L495.09,45.205L496.35,45.199L497.61,45.209L498.86,45.211L500.12,45.203L501.38,45.187L502.63,45.189L503.89,45.205L505.15,45.197L506.4,45.211L507.66,45.201L508.92,45.191L510.18,45.205L511.43,45.193L512.69,45.211L513.95,45.179L515.2,45.185L516.46,45.189L517.72,45.179L518.97,45.173L520.23,45.183L521.49,45.177L522.74,45.169L524,45.175L525.26,45.187L526.51,45.165L527.77,45.177L529.03,45.169L530.29,45.159L531.54,45.171L532.8,45.179L534.06,45.181L535.31,45.167L536.57,45.169L537.83,45.169L539.08,45.159L540.34,45.161L541.6,45.165L542.85,45.163L544.11,45.177L545.37,45.167L546.62,45.163L547.88,45.171L549.14,45.157L550.4,45.157L551.65,45.167L552.91,45.161L554.17,45.171L555.42,45.161L556.68,45.155L557.94,45.163L559.19,45.157L560.45,45.159L561.71,45.157L562.96,45.155L564.22,45.169L565.48,45.157L566.74,45.161L567.99,45.161L569.25,45.153L570.51,45.155L571.76,45.155L573.02,45.161L574.28,45.155L575.53,45.159L576.79,45.157L578.05,45.159L579.3,45.155L580.56,45.153L581.82,45.155L583.07,45.155L584.33,45.157L585.59,45.155L586.85,45.153L588.1,45.155L589.36,45.151L590.62,45.153L591.87,45.159L593.13,45.153L594.39,45.151L595.64,45.151L598.16,45.153L599.41,45.155L600.67,45.151L601.93,45.151L603.18,45.151L604.44,45.157L605.7,45.153L606.96,45.151L608.21,45.155L609.47,45.151L610.73,45.151L611.98,45.157L613.24,45.151L615.75,45.151L618.27,45.151L619.52,45.153L620.78,45.151L622.04,45.153L623.3,45.155L625.81,45.153L628.32,45.151L629.58,45.151L635.86,45.151L640.89,45.151L643.41,45.151L645.92,45.155L647.18,45.151L648.43,45.151L652.2,45.151L654.72,45.151L659.75,45.153L661,45.151L663.52,45.151L668.54,45.151L673.57,45.151L679.86,45.151L692.42,45.151L701.22,45.151L708.76,45.151L710.02,45.151" style="fill:none;stroke:#0000FF" />
</g>
</svg>
