<?xml version="1.0"?>
<!-- Generated by SVGo and Plotinum VG -->
<svg width="720pt" height="432pt" viewBox="0 0 720 432"
	xmlns="http://www.w3.org/2000/svg"
	xmlns:xlink="http://www.w3.org/1999/xlink">
<g transform="scale(1, -1) translate(0, -432)">
<path d="M0,0L720,0L720,432L0,432Z" style="fill:#FFFFFF" />
<text x="358.5" y="-420.45" transform="scale(1, -1)"
	style="font-family:Times;font-weight:normal;font-style:normal;font-size:12px"> </text>
<text x="379.31" y="-3.8613" transform="scale(1, -1)"
	style="font-family:Times;font-weight:normal;font-style:normal;font-size:12px">Costs</text>
<text x="56.555" y="-18.634" transform="scale(1, -1)"
	style="font-family:Times;font-weight:normal;font-style:normal;font-size:10px">0.00</text>
<text x="343.83" y="-18.634" transform="scale(1, -1)"
	style="font-family:Times;font-weight:normal;font-style:normal;font-size:10px">250.00</text>
<text x="636.1" y="-18.634" transform="scale(1, -1)"
	style="font-family:Times;font-weight:normal;font-style:normal;font-size:10px">500.00</text>
<path d="M65.305,28.263L65.305,36.263" style="fill:none;stroke:#000000;stroke-width:0.5" />
<path d="M357.58,28.263L357.58,36.263" style="fill:none;stroke:#000000;stroke-width:0.5" />
<path d="M649.85,28.263L649.85,36.263" style="fill:none;stroke:#000000;stroke-width:0.5" />
<path d="M123.76,32.263L123.76,36.263" style="fill:none;stroke:#000000;stroke-width:0.5" />
<path d="M182.21,32.263L182.21,36.263" style="fill:none;stroke:#000000;stroke-width:0.5" />
<path d="M240.67,32.263L240.67,36.263" style="fill:none;stroke:#000000;stroke-width:0.5" />
<path d="M299.12,32.263L299.12,36.263" style="fill:none;stroke:#000000;stroke-width:0.5" />
<path d="M416.03,32.263L416.03,36.263" style="fill:none;stroke:#000000;stroke-width:0.5" />
<path d="M474.49,32.263L474.49,36.263" style="fill:none;stroke:#000000;stroke-width:0.5" />
<path d="M532.94,32.263L532.94,36.263" style="fill:none;stroke:#000000;stroke-width:0.5" />
<path d="M591.4,32.263L591.4,36.263" style="fill:none;stroke:#000000;stroke-width:0.5" />
<path d="M708.31,32.263L708.31,36.263" style="fill:none;stroke:#000000;stroke-width:0.5" />
<path d="M65.305,36.263L720,36.263" style="fill:none;stroke:#000000;stroke-width:0.5" />
<g transform="rotate(90)">
<text x="152.55" y="11.555" transform="scale(1, -1)"
	style="font-family:Times;font-weight:normal;font-style:normal;font-size:12px">Number of trials (1000000 total)</text>
</g>
<text x="24.055" y="-106.66" transform="scale(1, -1)"
	style="font-family:Times;font-weight:normal;font-style:normal;font-size:10px">20000</text>
<text x="24.055" y="-236.09" transform="scale(1, -1)"
	style="font-family:Times;font-weight:normal;font-style:normal;font-size:10px">60000</text>
<text x="19.055" y="-365.52" transform="scale(1, -1)"
	style="font-family:Times;font-weight:normal;font-style:normal;font-size:10px">100000</text>
<path d="M51.555,109.86L59.555,109.86" style="fill:none;stroke:#000000;stroke-width:0.5" />
<path d="M51.555,239.29L59.555,239.29" style="fill:none;stroke:#000000;stroke-width:0.5" />
<path d="M51.555,368.72L59.555,368.72" style="fill:none;stroke:#000000;stroke-width:0.5" />
<path d="M55.555,77.506L59.555,77.506" style="fill:none;stroke:#000000;stroke-width:0.5" />
<path d="M55.555,142.22L59.555,142.22" style="fill:none;stroke:#000000;stroke-width:0.5" />
<path d="M55.555,174.58L59.555,174.58" style="fill:none;stroke:#000000;stroke-width:0.5" />
<path d="M55.555,206.94L59.555,206.94" style="fill:none;stroke:#000000;stroke-width:0.5" />
<path d="M55.555,271.65L59.555,271.65" style="fill:none;stroke:#000000;stroke-width:0.5" />
<path d="M55.555,304.01L59.555,304.01" style="fill:none;stroke:#000000;stroke-width:0.5" />
<path d="M55.555,336.37L59.555,336.37" style="fill:none;stroke:#000000;stroke-width:0.5" />
<path d="M55.555,401.08L59.555,401.08" style="fill:none;stroke:#000000;stroke-width:0.5" />
<path d="M59.555,45.151L59.555,416.58" style="fill:none;stroke:#000000;stroke-width:0.5" />
<path d="M65.305,416.58L95.701,62.676L96.87,98.564L98.039,82.418L99.209,70.225L101.55,55.671L102.72,66.401L103.88,51.853L105.05,77.897L106.22,62.618L107.39,80.201L108.56,114.48L109.73,51.781L110.9,78.101L112.07,55.687L113.24,62.612L114.41,51.989L115.58,80.839L116.75,120.52L117.91,77.182L119.08,63.081L121.42,63.181L124.93,51.914L127.27,86.32L128.44,47.19L129.61,55.011L130.77,60.136L131.94,58.531L133.11,51.435L134.28,78.412L135.45,50.717L136.62,56.324L137.79,66.708L138.96,111.51L140.13,59.712L141.3,58.166L142.47,57.839L143.63,64.692L144.8,55.791L145.97,56.344L147.14,61.498L148.31,70.898L149.48,66.727L150.65,95.467L151.82,56.771L152.99,59.318L154.16,60.913L155.33,61.162L156.49,60.427L157.66,60.557L158.83,100.52L160,78.599L161.17,63.395L162.34,60.56L163.51,58.289L164.68,62.068L165.85,56.784L167.02,64.045L168.19,60.55L169.35,65.52L170.52,70.193L171.69,60.722L172.86,61.317L174.03,56.328L175.2,58.842L176.37,58.803L177.54,61.984L178.71,64.576L179.88,60.948L181.05,64.495L182.21,69.319L183.38,62.032L184.55,62.191L185.72,60.732L186.89,60.664L188.06,57.861L189.23,64.65L190.4,73.658L191.57,65.757L192.74,63.822L193.91,62.589L195.07,58.997L196.24,61.751L197.41,55.525L198.58,59.855L199.75,59.771L200.92,67.274L202.09,67.672L203.26,60.913L204.43,60.055L205.6,58.793L206.77,59.059L207.93,59.793L209.1,58.224L210.27,64.754L211.44,61.984L212.61,63.543L213.78,55.444L214.95,57.622L216.12,57.269L217.29,57.243L218.46,55.723L219.63,57.45L220.79,59.57L221.96,58.674L223.13,58.043L224.3,62.116L225.47,56.444L226.64,56.392L227.81,57.916L228.98,58.162L230.15,56.104L231.32,57.383L232.49,62.531L233.65,59.738L234.82,56.489L235.99,55.926L237.16,55.522L238.33,55.871L239.5,55.266L240.67,56.069L241.84,56.502L243.01,56.706L244.18,59.337L245.35,55.464L246.51,54.512L247.68,54.276L248.85,54.574L250.02,54.354L251.19,54.839L252.36,55.506L253.53,55.677L254.7,54.59L255.87,54.729L257.04,53.969L258.21,53.849L259.38,53.089L260.54,53.703L261.71,53.364L262.88,54.221L264.05,54.81L265.22,52.911L266.39,53.102L267.56,52.959L268.73,52.403L269.9,52.581L271.07,52.325L272.24,52.778L273.4,52.354L274.57,52.946L275.74,53.461L276.91,52.38L278.08,51.927L279.25,52.008L280.42,51.908L281.59,51.16L282.76,51.264L283.93,52.322L285.1,51.794L286.26,51.823L287.43,51.011L288.6,50.846L289.77,51.06L290.94,50.694L292.11,50.542L293.28,50.717L294.45,50.885L295.62,50.998L296.79,50.675L297.96,50.147L299.12,49.95L300.29,49.999L301.46,49.824L302.63,49.834L303.8,49.688L304.97,50.147L306.14,50.105L307.31,49.164L308.48,49.264L309.65,49.39L310.82,49.206L311.98,49.167L313.15,49.397L314.32,49.102L315.49,49.29L316.66,49.057L317.83,49.167L319,48.837L320.17,48.652L321.34,48.452L322.51,48.921L323.68,48.633L324.84,48.28L326.01,48.549L327.18,48.772L328.35,48.361L329.52,48.193L330.69,48.271L331.86,47.915L333.03,47.963L334.2,48.131L335.37,48.018L336.54,47.844L337.7,47.954L338.87,47.84L340.04,47.623L341.21,47.507L342.38,47.614L343.55,47.552L344.72,47.594L345.89,47.497L347.06,47.352L348.23,47.442L349.4,47.484L350.56,47.128L351.73,47.264L352.9,47.09L354.07,47.093L355.24,46.98L356.41,47.145L357.58,47.138L358.75,46.973L359.92,46.912L361.09,46.876L362.26,46.889L363.42,46.708L364.59,46.682L365.76,46.617L366.93,46.711L368.1,46.666L369.27,46.698L370.44,46.669L371.61,46.452L372.78,46.497L373.95,46.442L375.12,46.429L376.28,46.407L377.45,46.423L378.62,46.387L379.79,46.446L380.96,46.229L382.13,46.19L383.3,46.177L384.47,46.316L385.64,46.077L386.81,46.142L387.98,46.054L389.15,46.177L390.31,46.08L391.48,46.099L392.65,46.006L393.82,46.044L394.99,46.012L396.16,45.989L397.33,45.866L398.5,45.957L399.67,45.931L400.84,45.918L402.01,45.727L403.17,45.844L404.34,45.766L405.51,45.811L406.68,45.847L407.85,45.747L409.02,45.831L410.19,45.689L411.36,45.802L412.53,45.76L413.7,45.656L414.87,45.74L416.03,45.598L417.2,45.708L418.37,45.705L419.54,45.627L420.71,45.624L421.88,45.601L423.05,45.608L424.22,45.614L425.39,45.627L426.56,45.608L427.73,45.527L428.89,45.546L430.06,45.523L431.23,45.53L432.4,45.475L433.57,45.472L434.74,45.501L435.91,45.462L437.08,45.436L438.25,45.481L439.42,45.41L440.59,45.478L441.75,45.459L442.92,45.462L444.09,45.394L445.26,45.404L446.43,45.384L447.6,45.391L448.77,45.397L449.94,45.41L451.11,45.378L452.28,45.362L453.45,45.358L454.61,45.355L455.78,45.329L456.95,45.313L458.12,45.384L459.29,45.281L460.46,45.365L461.63,45.284L462.8,45.287L463.97,45.303L465.14,45.31L466.31,45.307L467.47,45.316L468.64,45.261L469.81,45.342L470.98,45.346L472.15,45.303L473.32,45.255L474.49,45.274L475.66,45.226L476.83,45.287L478,45.258L479.17,45.252L480.33,45.248L481.5,45.245L482.67,45.235L483.84,45.232L485.01,45.291L486.18,45.252L487.35,45.216L488.52,45.242L489.69,45.258L490.86,45.245L492.03,45.229L493.19,45.223L494.36,45.261L495.53,45.21L496.7,45.219L497.87,45.219L499.04,45.235L500.21,45.216L501.38,45.2L502.55,45.206L503.72,45.197L504.89,45.226L506.05,45.206L507.22,45.203L508.39,45.174L509.56,45.177L510.73,45.255L511.9,45.213L513.07,45.21L514.24,45.19L515.41,45.174L516.58,45.223L517.75,45.187L518.92,45.19L520.08,45.18L521.25,45.174L522.42,45.184L523.59,45.19L524.76,45.184L525.93,45.19L527.1,45.187L528.27,45.184L529.44,45.177L530.61,45.161L531.78,45.174L532.94,45.171L534.11,45.171L535.28,45.18L536.45,45.177L537.62,45.174L538.79,45.168L539.96,45.193L541.13,45.168L542.3,45.171L543.47,45.164L544.64,45.168L545.8,45.177L546.97,45.164L548.14,45.161L549.31,45.168L550.48,45.164L551.65,45.161L552.82,45.164L553.99,45.158L555.16,45.155L556.33,45.168L557.5,45.155L558.66,45.155L559.83,45.161L561,45.158L562.17,45.155L563.34,45.155L564.51,45.151L565.68,45.158L566.85,45.158L568.02,45.164L569.19,45.151L570.36,45.161L571.52,45.155L572.69,45.164L575.03,45.168L576.2,45.155L577.37,45.151L578.54,45.158L579.71,45.155L582.05,45.161L583.22,45.155L584.38,45.158L585.55,45.155L586.72,45.155L587.89,45.158L589.06,45.151L590.23,45.155L591.4,45.151L593.74,45.158L594.91,45.158L597.24,45.155L599.58,45.151L600.75,45.158L603.09,45.151L604.26,45.151L605.43,45.158L606.6,45.151L607.77,45.155L611.27,45.151L614.78,45.155L619.46,45.151L621.8,45.151L624.13,45.151L628.81,45.151L633.49,45.151L634.66,45.151L638.16,45.155L640.5,45.151L642.84,45.151L646.35,45.151L655.7,45.151L665.05,45.151L669.73,45.151L670.9,45.151L680.25,45.151L686.1,45.155L720,45.151" style="fill:none;stroke:#0000FF" />
</g>
</svg>
