<?xml version="1.0"?>
<!-- Generated by SVGo and Plotinum VG -->
<svg width="720pt" height="432pt" viewBox="0 0 720 432"
	xmlns="http://www.w3.org/2000/svg"
	xmlns:xlink="http://www.w3.org/1999/xlink">
<g transform="scale(1, -1) translate(0, -432)">
<path d="M0,0L720,0L720,432L0,432Z" style="fill:#FFFFFF" />
<text x="358.5" y="-420.45" transform="scale(1, -1)"
	style="font-family:Times;font-weight:normal;font-style:normal;font-size:12px"> </text>
<text x="385.56" y="-3.8613" transform="scale(1, -1)"
	style="font-family:Times;font-weight:normal;font-style:normal;font-size:12px">Costs</text>
<text x="69.055" y="-18.634" transform="scale(1, -1)"
	style="font-family:Times;font-weight:normal;font-style:normal;font-size:10px">0.00</text>
<text x="369.86" y="-18.634" transform="scale(1, -1)"
	style="font-family:Times;font-weight:normal;font-style:normal;font-size:10px">250.00</text>
<text x="675.67" y="-18.634" transform="scale(1, -1)"
	style="font-family:Times;font-weight:normal;font-style:normal;font-size:10px">500.00</text>
<path d="M77.805,28.263L77.805,36.263" style="fill:none;stroke:#000000;stroke-width:0.5" />
<path d="M383.61,28.263L383.61,36.263" style="fill:none;stroke:#000000;stroke-width:0.5" />
<path d="M689.42,28.263L689.42,36.263" style="fill:none;stroke:#000000;stroke-width:0.5" />
<path d="M138.97,32.263L138.97,36.263" style="fill:none;stroke:#000000;stroke-width:0.5" />
<path d="M200.13,32.263L200.13,36.263" style="fill:none;stroke:#000000;stroke-width:0.5" />
<path d="M261.29,32.263L261.29,36.263" style="fill:none;stroke:#000000;stroke-width:0.5" />
<path d="M322.45,32.263L322.45,36.263" style="fill:none;stroke:#000000;stroke-width:0.5" />
<path d="M444.77,32.263L444.77,36.263" style="fill:none;stroke:#000000;stroke-width:0.5" />
<path d="M505.93,32.263L505.93,36.263" style="fill:none;stroke:#000000;stroke-width:0.5" />
<path d="M567.1,32.263L567.1,36.263" style="fill:none;stroke:#000000;stroke-width:0.5" />
<path d="M628.26,32.263L628.26,36.263" style="fill:none;stroke:#000000;stroke-width:0.5" />
<path d="M77.805,36.263L720,36.263" style="fill:none;stroke:#000000;stroke-width:0.5" />
<g transform="rotate(90)">
<text x="152.55" y="11.555" transform="scale(1, -1)"
	style="font-family:Times;font-weight:normal;font-style:normal;font-size:12px">Number of trials (1000000 total)</text>
</g>
<text x="24.055" y="-108.82" transform="scale(1, -1)"
	style="font-family:Times;font-weight:normal;font-style:normal;font-size:10px">25000.00</text>
<text x="24.055" y="-242.57" transform="scale(1, -1)"
	style="font-family:Times;font-weight:normal;font-style:normal;font-size:10px">75000.00</text>
<text x="19.055" y="-376.33" transform="scale(1, -1)"
	style="font-family:Times;font-weight:normal;font-style:normal;font-size:10px">125000.00</text>
<path d="M64.055,112.03L72.055,112.03" style="fill:none;stroke:#000000;stroke-width:0.5" />
<path d="M64.055,245.78L72.055,245.78" style="fill:none;stroke:#000000;stroke-width:0.5" />
<path d="M64.055,379.53L72.055,379.53" style="fill:none;stroke:#000000;stroke-width:0.5" />
<path d="M68.055,58.524L72.055,58.524" style="fill:none;stroke:#000000;stroke-width:0.5" />
<path d="M68.055,85.275L72.055,85.275" style="fill:none;stroke:#000000;stroke-width:0.5" />
<path d="M68.055,138.78L72.055,138.78" style="fill:none;stroke:#000000;stroke-width:0.5" />
<path d="M68.055,165.53L72.055,165.53" style="fill:none;stroke:#000000;stroke-width:0.5" />
<path d="M68.055,192.28L72.055,192.28" style="fill:none;stroke:#000000;stroke-width:0.5" />
<path d="M68.055,219.03L72.055,219.03" style="fill:none;stroke:#000000;stroke-width:0.5" />
<path d="M68.055,272.53L72.055,272.53" style="fill:none;stroke:#000000;stroke-width:0.5" />
<path d="M68.055,299.28L72.055,299.28" style="fill:none;stroke:#000000;stroke-width:0.5" />
<path d="M68.055,326.03L72.055,326.03" style="fill:none;stroke:#000000;stroke-width:0.5" />
<path d="M68.055,352.78L72.055,352.78" style="fill:none;stroke:#000000;stroke-width:0.5" />
<path d="M68.055,406.28L72.055,406.28" style="fill:none;stroke:#000000;stroke-width:0.5" />
<path d="M72.055,45.151L72.055,416.58" style="fill:none;stroke:#000000;stroke-width:0.5" />
<path d="M77.805,416.58L104.72,48.479L107.16,52.567L109.61,61.384L112.06,81.096L113.28,85.007L114.5,55.499L115.72,59.498L116.95,62.24L118.17,64.556L119.39,109.2L120.62,81.126L123.06,61.156L124.29,75.118L125.51,52.452L126.73,63.481L127.96,89.593L129.18,51.815L130.4,69.519L131.63,102.66L132.85,66.485L134.07,70.372L136.52,48.795L137.74,52.436L138.97,49.322L140.19,53.051L141.41,45.935L142.64,56.446L143.86,53.562L145.08,46.944L146.31,83.36L147.53,63.452L148.75,56.092L149.98,63.666L151.2,54.602L152.42,67.975L153.64,69.874L154.87,70.353L156.09,52.171L157.31,51.976L158.54,55.21L159.76,59.723L160.98,55.769L162.21,60.407L163.43,56.991L164.65,55.009L165.88,63.387L167.1,74.922L168.32,73.28L169.55,63.189L170.77,56.978L171.99,67.721L173.22,64.332L174.44,61.777L175.66,89.488L176.89,77.852L178.11,57.992L179.33,55.303L180.56,59.495L181.78,62.713L183,56.408L184.23,60.696L185.45,55.993L186.67,57.706L187.9,61.956L189.12,59.388L190.34,55.199L191.56,55.175L192.79,57.261L194.01,57.117L195.23,57.173L196.46,60.298L197.68,55.18L198.9,55.779L200.13,60.702L201.35,58.334L202.57,60.977L203.8,58.941L205.02,56.935L206.24,57.802L207.47,59.418L208.69,60.886L209.91,60.458L211.14,60.41L212.36,56.825L213.58,57.136L214.81,57.986L216.03,58.142L217.25,61.967L218.48,63.168L219.7,56.898L220.92,58.465L222.15,61.076L223.37,58.768L224.59,57.015L225.82,59.236L227.04,56.301L228.26,56.764L229.49,58.92L230.71,57.984L231.93,55.755L233.15,53.158L234.38,53.257L235.6,54.511L236.82,55.228L238.05,54.249L239.27,53.308L240.49,54.493L241.72,55.046L242.94,54.597L244.16,57.315L245.39,56.379L246.61,54.241L247.83,54.474L249.06,54.538L250.28,54.841L251.5,55.311L252.73,55.71L253.95,53.107L255.17,52.131L256.4,52.829L257.62,53.918L258.84,53.029L260.07,53.008L261.29,52.997L262.51,52.872L263.74,53.252L264.96,54.37L266.18,54.514L267.41,53.353L268.63,52.096L269.85,52.446L271.07,53.032L272.3,53.003L273.52,51.802L274.74,53.185L275.97,51.612L277.19,51.275L278.41,51.74L279.64,51.481L280.86,51.103L282.08,51.165L283.31,50.954L284.53,50.857L285.75,51.36L286.98,51.181L288.2,50.59L289.42,50.197L290.65,50.673L291.87,50.611L293.09,50.526L294.32,50.793L295.54,50.469L296.76,50.199L297.99,50.429L299.21,50.469L300.43,50.298L301.66,50.172L302.88,49.712L304.1,49.771L305.33,49.667L306.55,49.819L307.77,49.555L309,49.279L310.22,49.119L311.44,49.175L312.66,49.365L313.89,49.29L315.11,48.945L316.33,49.22L317.56,48.977L318.78,49.022L320,49.014L321.23,49.06L322.45,48.476L323.67,48.498L324.9,48.468L326.12,48.423L327.34,48.204L328.57,48.246L329.79,48.129L331.01,48.123L332.24,47.84L333.46,47.998L334.68,48.11L335.91,48.016L337.13,47.968L338.35,47.76L339.58,47.816L340.8,47.928L342.02,47.792L343.25,47.8L344.47,47.476L345.69,47.409L346.92,47.538L348.14,47.468L349.36,47.324L350.58,47.334L351.81,47.372L353.03,47.198L354.25,47.085L355.48,47.179L356.7,47.281L357.92,47.003L359.15,46.877L360.37,47.043L361.59,47.096L362.82,46.904L364.04,46.962L365.26,46.85L366.49,46.676L367.71,46.799L368.93,46.778L370.16,46.62L371.38,46.673L372.6,46.58L373.83,46.607L375.05,46.47L376.27,46.47L377.5,46.476L378.72,46.425L379.94,46.358L381.17,46.363L382.39,46.294L383.61,46.245L384.84,46.227L386.06,46.299L387.28,46.165L388.5,46.307L389.73,46.173L390.95,46.216L392.17,46.248L393.4,46.16L394.62,46.141L395.84,46.125L397.07,46.125L398.29,45.959L399.51,45.957L400.74,45.943L401.96,45.914L403.18,45.863L404.41,45.957L405.63,45.914L406.85,45.9L408.08,45.858L409.3,45.892L410.52,45.898L411.75,45.828L412.97,45.78L414.19,45.764L415.42,45.759L416.64,45.799L417.86,45.761L419.09,45.705L420.31,45.705L421.53,45.638L422.76,45.673L423.98,45.729L425.2,45.724L426.42,45.609L427.65,45.611L428.87,45.579L430.09,45.574L431.32,45.571L432.54,45.62L433.76,45.609L434.99,45.472L436.21,45.515L437.43,45.504L438.66,45.539L439.88,45.531L441.1,45.515L442.33,45.515L443.55,45.51L444.77,45.427L446,45.456L447.22,45.414L448.44,45.475L449.67,45.411L450.89,45.379L452.11,45.451L453.34,45.392L454.56,45.339L455.78,45.403L457.01,45.411L458.23,45.406L459.45,45.381L460.68,45.4L461.9,45.36L463.12,45.331L464.35,45.347L465.57,45.339L466.79,45.32L468.01,45.368L469.24,45.331L470.46,45.355L471.68,45.344L472.91,45.298L474.13,45.312L475.35,45.331L476.58,45.248L477.8,45.301L479.02,45.301L480.25,45.32L481.47,45.29L482.69,45.285L483.92,45.293L485.14,45.264L486.36,45.282L487.59,45.285L488.81,45.245L490.03,45.266L491.26,45.248L492.48,45.256L493.7,45.242L494.93,45.226L496.15,45.218L497.37,45.248L498.6,45.221L499.82,45.242L501.04,45.221L502.27,45.226L503.49,45.232L504.71,45.202L505.93,45.226L507.16,45.216L508.38,45.2L509.6,45.229L510.83,45.205L512.05,45.21L513.27,45.202L514.5,45.221L515.72,45.213L516.94,45.205L518.17,45.229L519.39,45.218L520.61,45.216L521.84,45.189L523.06,45.2L524.28,45.178L525.51,45.221L526.73,45.194L527.95,45.202L529.18,45.213L530.4,45.194L531.62,45.186L532.85,45.2L534.07,45.183L535.29,45.189L536.52,45.189L537.74,45.175L538.96,45.175L540.19,45.175L541.41,45.175L542.63,45.167L543.86,45.175L545.08,45.159L546.3,45.181L547.52,45.17L548.75,45.17L549.97,45.167L551.19,45.167L552.42,45.17L553.64,45.157L554.86,45.186L556.09,45.178L557.31,45.167L558.53,45.165L559.76,45.162L560.98,45.167L562.2,45.165L563.43,45.165L564.65,45.167L565.87,45.162L567.1,45.159L568.32,45.157L569.54,45.154L570.77,45.159L571.99,45.157L573.21,45.167L574.44,45.154L575.66,45.17L576.88,45.157L578.11,45.157L579.33,45.154L580.55,45.157L581.78,45.165L583,45.159L584.22,45.154L585.44,45.151L586.67,45.154L589.11,45.157L590.34,45.159L591.56,45.154L592.78,45.151L594.01,45.162L595.23,45.162L596.45,45.151L597.68,45.154L598.9,45.162L600.12,45.151L601.35,45.165L602.57,45.151L605.02,45.154L606.24,45.157L607.46,45.154L608.69,45.151L609.91,45.154L611.13,45.154L612.36,45.151L613.58,45.154L616.03,45.151L617.25,45.151L618.47,45.151L619.7,45.157L624.59,45.151L627.03,45.151L628.26,45.151L629.48,45.151L631.93,45.151L634.37,45.151L639.27,45.151L640.49,45.151L644.16,45.151L651.5,45.151L656.39,45.151L657.62,45.151L658.84,45.151L662.51,45.151L666.18,45.154L682.08,45.154L686.97,45.151L720,45.151" style="fill:none;stroke:#0000FF" />
</g>
</svg>
