<?xml version="1.0"?>
<!-- Generated by SVGo and Plotinum VG -->
<svg width="720pt" height="432pt" viewBox="0 0 720 432"
	xmlns="http://www.w3.org/2000/svg"
	xmlns:xlink="http://www.w3.org/1999/xlink">
<g transform="scale(1, -1) translate(0, -432)">
<path d="M0,0L720,0L720,432L0,432Z" style="fill:#FFFFFF" />
<text x="358.5" y="-420.45" transform="scale(1, -1)"
	style="font-family:Times;font-weight:normal;font-style:normal;font-size:12px"> </text>
<text x="379.32" y="-3.8613" transform="scale(1, -1)"
	style="font-family:Times;font-weight:normal;font-style:normal;font-size:12px">Costs</text>
<text x="69.055" y="-18.634" transform="scale(1, -1)"
	style="font-family:Times;font-weight:normal;font-style:normal;font-size:10px">0.00</text>
<text x="378.28" y="-18.634" transform="scale(1, -1)"
	style="font-family:Times;font-weight:normal;font-style:normal;font-size:10px">250.00</text>
<text x="692.5" y="-18.634" transform="scale(1, -1)"
	style="font-family:Times;font-weight:normal;font-style:normal;font-size:10px">500.00</text>
<path d="M77.805,28.263L77.805,36.263" style="fill:none;stroke:#000000;stroke-width:0.5" />
<path d="M392.03,28.263L392.03,36.263" style="fill:none;stroke:#000000;stroke-width:0.5" />
<path d="M706.25,28.263L706.25,36.263" style="fill:none;stroke:#000000;stroke-width:0.5" />
<path d="M140.65,32.263L140.65,36.263" style="fill:none;stroke:#000000;stroke-width:0.5" />
<path d="M203.49,32.263L203.49,36.263" style="fill:none;stroke:#000000;stroke-width:0.5" />
<path d="M266.34,32.263L266.34,36.263" style="fill:none;stroke:#000000;stroke-width:0.5" />
<path d="M329.18,32.263L329.18,36.263" style="fill:none;stroke:#000000;stroke-width:0.5" />
<path d="M454.87,32.263L454.87,36.263" style="fill:none;stroke:#000000;stroke-width:0.5" />
<path d="M517.72,32.263L517.72,36.263" style="fill:none;stroke:#000000;stroke-width:0.5" />
<path d="M580.56,32.263L580.56,36.263" style="fill:none;stroke:#000000;stroke-width:0.5" />
<path d="M643.41,32.263L643.41,36.263" style="fill:none;stroke:#000000;stroke-width:0.5" />
<path d="M77.805,36.263L707.51,36.263" style="fill:none;stroke:#000000;stroke-width:0.5" />
<g transform="rotate(90)">
<text x="152.55" y="11.555" transform="scale(1, -1)"
	style="font-family:Times;font-weight:normal;font-style:normal;font-size:12px">Number of trials (1000000 total)</text>
</g>
<text x="24.055" y="-89.73" transform="scale(1, -1)"
	style="font-family:Times;font-weight:normal;font-style:normal;font-size:10px">25000.00</text>
<text x="19.055" y="-233.09" transform="scale(1, -1)"
	style="font-family:Times;font-weight:normal;font-style:normal;font-size:10px">100000.00</text>
<text x="19.055" y="-376.45" transform="scale(1, -1)"
	style="font-family:Times;font-weight:normal;font-style:normal;font-size:10px">175000.00</text>
<path d="M64.055,92.935L72.055,92.935" style="fill:none;stroke:#000000;stroke-width:0.5" />
<path d="M64.055,236.29L72.055,236.29" style="fill:none;stroke:#000000;stroke-width:0.5" />
<path d="M64.055,379.65L72.055,379.65" style="fill:none;stroke:#000000;stroke-width:0.5" />
<path d="M68.055,164.61L72.055,164.61" style="fill:none;stroke:#000000;stroke-width:0.5" />
<path d="M68.055,307.97L72.055,307.97" style="fill:none;stroke:#000000;stroke-width:0.5" />
<path d="M72.055,45.151L72.055,416.58" style="fill:none;stroke:#000000;stroke-width:0.5" />
<path d="M77.805,416.58L110.48,59.447L111.74,55.376L113,48.531L114.25,51.933L116.77,55.307L118.03,70.545L119.28,48.531L120.54,76.963L121.8,104.28L123.05,48.632L124.31,48.582L125.57,59.258L126.82,73.217L128.08,65.885L129.34,52.258L131.85,51.906L133.11,89.415L134.36,48.575L135.62,66.993L138.14,48.634L139.39,48.812L141.91,48.605L143.16,45.253L144.42,155.67L145.68,52.356L146.93,45.478L148.19,82.725L149.45,56.542L150.7,56.991L151.96,71.625L153.22,84.535L154.48,59.357L155.73,61.192L156.99,57.369L158.25,46.942L159.5,47.871L160.76,50.589L162.02,62.006L163.27,47.328L164.53,51.723L165.79,51.627L167.04,50.226L168.3,50.106L169.56,55.444L170.81,55.186L172.07,51.838L173.33,50.245L174.59,51.683L175.84,53.531L177.1,58.77L178.36,59.558L179.61,50.987L180.87,51.501L182.13,51.723L183.38,53.732L184.64,57.803L185.9,51.264L187.15,59.221L188.41,69.408L189.67,51.45L190.92,54.2L192.18,59.852L193.44,60.34L194.7,58.78L195.95,58.78L197.21,57.411L198.47,54.645L199.72,65.292L200.98,53.808L202.24,58.9L203.49,55.307L204.75,52.885L206.01,54.408L207.26,50.966L208.52,53.734L209.78,50.983L211.04,61.819L212.29,52.516L213.55,49.295L214.81,59.948L216.06,51.623L217.32,52.575L218.58,56.15L219.83,61.54L221.09,53.741L222.35,55.808L223.6,55.146L224.86,51.602L226.12,51.809L227.37,53.684L228.63,53.816L229.89,51.098L231.15,51.509L232.4,51.941L233.66,50.291L234.92,49.922L236.17,52.111L237.43,51.79L238.69,50.173L239.94,50.372L241.2,50.744L242.46,50.62L243.71,51.444L244.97,52.681L246.23,50.658L247.48,50.203L248.74,51.17L250,50.461L251.26,50.559L252.51,50.224L253.77,50.993L255.03,51.612L256.28,49.613L257.54,50.27L258.8,50.918L260.05,50.205L261.31,50.289L262.57,51.157L263.82,50.935L265.08,49.725L266.34,51.209L267.6,50.159L268.85,50.203L270.11,50.779L271.37,49.834L272.62,50.096L273.88,49.104L275.14,49.666L276.39,49.121L277.65,49.55L278.91,48.982L280.16,48.54L281.42,49.357L282.68,48.321L283.93,48.227L285.19,48.665L286.45,49.123L287.71,48.63L288.96,48.768L290.22,48.861L291.48,48.353L292.73,48.282L293.99,48.701L295.25,48.3L296.5,48.084L297.76,48.038L299.02,48.219L300.27,47.65L301.53,47.68L302.79,47.934L304.05,47.745L305.3,47.495L306.56,47.539L307.82,47.416L309.07,47.371L310.33,47.256L311.59,47.629L312.84,47.311L314.1,47.298L315.36,47.39L316.61,47.233L317.87,47.101L319.13,47.214L320.38,47.307L321.64,47.153L322.9,46.977L324.16,47.048L325.41,46.992L326.67,46.776L327.93,46.765L329.18,46.847L330.44,46.746L331.7,46.637L332.95,46.824L334.21,46.746L335.47,46.549L336.72,46.755L337.98,46.734L339.24,46.573L340.49,46.478L341.75,46.65L343.01,46.35L344.27,46.489L345.52,46.413L346.78,46.275L348.04,46.38L349.29,46.275L350.55,46.203L351.81,46.214L353.06,46.157L354.32,46.187L355.58,46.212L356.83,46.107L358.09,46.077L359.35,46.109L360.61,46.034L361.86,45.996L363.12,45.985L364.38,45.987L365.63,45.968L366.89,45.945L368.15,45.918L369.4,45.916L370.66,45.876L371.92,45.847L373.17,45.887L374.43,45.853L375.69,45.769L376.94,45.79L378.2,45.752L379.46,45.708L380.72,45.692L381.97,45.704L383.23,45.669L384.49,45.69L385.74,45.702L387,45.671L388.26,45.696L389.51,45.66L390.77,45.601L392.03,45.637L393.28,45.601L394.54,45.601L395.8,45.604L397.05,45.585L398.31,45.572L399.57,45.541L400.83,45.555L402.08,45.522L403.34,45.465L404.6,45.505L405.85,45.459L407.11,45.492L408.37,45.539L409.62,45.476L410.88,45.436L412.14,45.461L413.39,45.43L414.65,45.476L415.91,45.444L417.17,45.411L418.42,45.392L419.68,45.411L420.94,45.362L422.19,45.352L423.45,45.35L424.71,45.352L425.96,45.364L427.22,45.346L428.48,45.31L429.73,45.344L430.99,45.32L432.25,45.304L433.5,45.337L434.76,45.321L436.02,45.329L437.28,45.344L438.53,45.308L439.79,45.314L441.05,45.306L442.3,45.293L443.56,45.299L444.82,45.299L446.07,45.274L447.33,45.232L448.59,45.281L449.84,45.26L451.1,45.245L452.36,45.266L453.61,45.232L454.87,45.279L456.13,45.222L457.39,45.222L458.64,45.245L459.9,45.264L461.16,45.234L462.41,45.226L463.67,45.228L464.93,45.214L466.18,45.232L467.44,45.243L468.7,45.214L469.95,45.216L471.21,45.214L472.47,45.216L473.73,45.228L474.98,45.222L476.24,45.201L477.5,45.205L478.75,45.209L480.01,45.193L481.27,45.211L482.52,45.205L483.78,45.201L485.04,45.193L486.29,45.188L487.55,45.182L488.81,45.186L490.06,45.18L491.32,45.192L492.58,45.18L493.84,45.176L495.09,45.182L496.35,45.172L497.61,45.184L498.86,45.18L500.12,45.178L501.38,45.184L502.63,45.186L503.89,45.184L505.15,45.178L506.4,45.167L507.66,45.19L508.92,45.18L510.18,45.161L511.43,45.169L512.69,45.163L513.95,45.172L515.2,45.169L516.46,45.174L517.72,45.167L518.97,45.169L520.23,45.161L521.49,45.159L522.74,45.17L524,45.157L525.26,45.17L526.51,45.155L527.77,45.172L529.03,45.165L530.29,45.163L531.54,45.174L532.8,45.157L534.06,45.157L535.31,45.161L536.57,45.161L537.83,45.159L539.08,45.178L540.34,45.151L541.6,45.161L542.85,45.151L544.11,45.161L545.37,45.155L546.62,45.159L547.88,45.153L549.14,45.157L550.4,45.155L551.65,45.155L552.91,45.157L554.17,45.155L555.42,45.155L556.68,45.159L557.94,45.153L559.19,45.163L560.45,45.157L561.71,45.153L562.96,45.153L564.22,45.153L565.48,45.161L566.74,45.157L567.99,45.155L569.25,45.153L570.51,45.155L571.76,45.153L573.02,45.151L574.28,45.155L575.53,45.159L576.79,45.159L579.3,45.151L580.56,45.151L581.82,45.151L583.07,45.159L584.33,45.151L585.59,45.151L588.1,45.151L590.62,45.153L591.87,45.151L595.64,45.151L600.67,45.151L601.93,45.151L604.44,45.151L609.47,45.151L611.98,45.151L613.24,45.151L614.5,45.151L617.01,45.151L619.52,45.151L629.58,45.151L632.09,45.153L634.61,45.153L643.41,45.151L645.92,45.151L659.75,45.151L661,45.151L663.52,45.151L667.29,45.151L668.54,45.151L673.57,45.151L703.74,45.151L707.51,45.151" style="fill:none;stroke:#0000FF" />
</g>
</svg>
