<?xml version="1.0"?>
<!-- Generated by SVGo and Plotinum VG -->
<svg width="720pt" height="432pt" viewBox="0 0 720 432"
	xmlns="http://www.w3.org/2000/svg"
	xmlns:xlink="http://www.w3.org/1999/xlink">
<g transform="scale(1, -1) translate(0, -432)">
<path d="M0,0L720,0L720,432L0,432Z" style="fill:#FFFFFF" />
<text x="358.5" y="-420.45" transform="scale(1, -1)"
	style="font-family:Times;font-weight:normal;font-style:normal;font-size:12px"> </text>
<text x="379.31" y="-3.8613" transform="scale(1, -1)"
	style="font-family:Times;font-weight:normal;font-style:normal;font-size:12px">Costs</text>
<text x="62.805" y="-18.634" transform="scale(1, -1)"
	style="font-family:Times;font-weight:normal;font-style:normal;font-size:10px">0</text>
<text x="226.98" y="-18.634" transform="scale(1, -1)"
	style="font-family:Times;font-weight:normal;font-style:normal;font-size:10px">100</text>
<text x="396.15" y="-18.634" transform="scale(1, -1)"
	style="font-family:Times;font-weight:normal;font-style:normal;font-size:10px">200</text>
<text x="565.32" y="-18.634" transform="scale(1, -1)"
	style="font-family:Times;font-weight:normal;font-style:normal;font-size:10px">300</text>
<path d="M65.305,28.263L65.305,36.263" style="fill:none;stroke:#000000;stroke-width:0.5" />
<path d="M234.48,28.263L234.48,36.263" style="fill:none;stroke:#000000;stroke-width:0.5" />
<path d="M403.65,28.263L403.65,36.263" style="fill:none;stroke:#000000;stroke-width:0.5" />
<path d="M572.82,28.263L572.82,36.263" style="fill:none;stroke:#000000;stroke-width:0.5" />
<path d="M99.139,32.263L99.139,36.263" style="fill:none;stroke:#000000;stroke-width:0.5" />
<path d="M132.97,32.263L132.97,36.263" style="fill:none;stroke:#000000;stroke-width:0.5" />
<path d="M166.81,32.263L166.81,36.263" style="fill:none;stroke:#000000;stroke-width:0.5" />
<path d="M200.64,32.263L200.64,36.263" style="fill:none;stroke:#000000;stroke-width:0.5" />
<path d="M268.31,32.263L268.31,36.263" style="fill:none;stroke:#000000;stroke-width:0.5" />
<path d="M302.15,32.263L302.15,36.263" style="fill:none;stroke:#000000;stroke-width:0.5" />
<path d="M335.98,32.263L335.98,36.263" style="fill:none;stroke:#000000;stroke-width:0.5" />
<path d="M369.81,32.263L369.81,36.263" style="fill:none;stroke:#000000;stroke-width:0.5" />
<path d="M437.48,32.263L437.48,36.263" style="fill:none;stroke:#000000;stroke-width:0.5" />
<path d="M471.32,32.263L471.32,36.263" style="fill:none;stroke:#000000;stroke-width:0.5" />
<path d="M505.15,32.263L505.15,36.263" style="fill:none;stroke:#000000;stroke-width:0.5" />
<path d="M538.99,32.263L538.99,36.263" style="fill:none;stroke:#000000;stroke-width:0.5" />
<path d="M606.65,32.263L606.65,36.263" style="fill:none;stroke:#000000;stroke-width:0.5" />
<path d="M640.49,32.263L640.49,36.263" style="fill:none;stroke:#000000;stroke-width:0.5" />
<path d="M674.32,32.263L674.32,36.263" style="fill:none;stroke:#000000;stroke-width:0.5" />
<path d="M708.16,32.263L708.16,36.263" style="fill:none;stroke:#000000;stroke-width:0.5" />
<path d="M65.305,36.263L720,36.263" style="fill:none;stroke:#000000;stroke-width:0.5" />
<g transform="rotate(90)">
<text x="152.55" y="11.555" transform="scale(1, -1)"
	style="font-family:Times;font-weight:normal;font-style:normal;font-size:12px">Number of trials (1000000 total)</text>
</g>
<text x="24.055" y="-92.222" transform="scale(1, -1)"
	style="font-family:Times;font-weight:normal;font-style:normal;font-size:10px">40000</text>
<text x="19.055" y="-243.06" transform="scale(1, -1)"
	style="font-family:Times;font-weight:normal;font-style:normal;font-size:10px">160000</text>
<text x="19.055" y="-393.89" transform="scale(1, -1)"
	style="font-family:Times;font-weight:normal;font-style:normal;font-size:10px">280000</text>
<path d="M51.555,95.428L59.555,95.428" style="fill:none;stroke:#000000;stroke-width:0.5" />
<path d="M51.555,246.26L59.555,246.26" style="fill:none;stroke:#000000;stroke-width:0.5" />
<path d="M51.555,397.09L59.555,397.09" style="fill:none;stroke:#000000;stroke-width:0.5" />
<path d="M55.555,170.84L59.555,170.84" style="fill:none;stroke:#000000;stroke-width:0.5" />
<path d="M55.555,321.68L59.555,321.68" style="fill:none;stroke:#000000;stroke-width:0.5" />
<path d="M59.555,45.151L59.555,416.58" style="fill:none;stroke:#000000;stroke-width:0.5" />
<path d="M65.305,416.58L110.98,48.509L112.67,48.556L114.36,56.317L116.06,48.566L117.75,52.13L119.44,62.243L121.13,55.827L122.82,70.159L124.51,73.377L126.21,52.158L127.9,48.52L129.59,98.113L131.28,48.624L132.97,62.882L134.67,70.221L136.36,59.12L138.05,48.572L139.74,95.388L141.43,59.213L143.12,62.613L148.2,66.225L149.89,55.483L154.97,48.489L156.66,66.062L158.35,45.182L160.04,56.277L161.73,80.815L163.42,45.248L165.12,45.472L166.81,56.618L168.5,46.059L170.19,56.766L171.88,46.545L173.57,46.568L175.27,47.063L176.96,47.597L178.65,59.885L180.34,47.881L182.03,49.084L183.73,49.795L185.42,49.005L187.11,51.199L188.8,53.362L190.49,49.9L192.18,50.801L193.88,51.638L195.57,50.168L197.26,53.826L198.95,54.903L200.64,62.393L202.33,53.843L204.03,54.707L205.72,51.599L207.41,53.629L209.1,51.682L210.79,51.405L212.48,51.692L214.18,50.608L215.87,52.32L217.56,51.747L219.25,51.711L220.94,52.513L222.63,49.864L224.33,51.865L226.02,54.594L227.71,48.446L229.4,49.619L231.09,53.235L232.78,49.009L234.48,50.657L236.17,52.444L237.86,49.293L239.55,49.698L241.24,48.217L242.94,48.768L244.63,50.106L246.32,48.279L248.01,47.8L249.7,47.605L251.39,47.992L253.09,50.991L254.78,47.781L256.47,48.98L258.16,48.888L259.85,47.733L261.54,48.819L263.24,48.585L264.93,48.975L266.62,48.747L268.31,47.467L270,48.538L271.69,48.276L273.39,47.773L275.08,49.911L276.77,48.101L278.46,47.69L280.15,47.925L281.84,47.405L283.54,48.504L285.23,47.93L286.92,47.346L288.61,47.426L290.3,47.555L292,47.771L293.69,47.822L295.38,47.802L297.07,48.15L298.76,47.457L300.45,47.467L302.15,47.395L303.84,47.277L305.53,47.271L307.22,46.99L308.91,46.937L310.6,46.797L312.3,46.838L313.99,47.092L315.68,46.657L317.37,46.819L319.06,46.454L320.75,46.676L322.45,46.684L324.14,46.48L325.83,46.548L327.52,46.705L329.21,46.394L330.9,46.508L332.6,46.356L334.29,46.418L335.98,46.381L337.67,46.406L339.36,46.383L341.05,46.197L342.75,46.151L344.44,46.206L346.13,46.088L347.82,46.178L349.51,46.217L351.21,46.035L352.9,46.053L354.59,46.078L356.28,46.012L357.97,46.071L359.66,45.983L361.36,46.039L363.05,45.869L364.74,45.854L366.43,45.977L368.12,45.882L369.81,45.844L371.51,45.906L373.2,45.737L374.89,45.742L376.58,45.76L378.27,45.712L379.96,45.771L381.66,45.694L383.35,45.635L385.04,45.681L386.73,45.605L388.42,45.698L390.11,45.665L391.81,45.603L393.5,45.547L395.19,45.635L396.88,45.556L398.57,45.581L400.27,45.55L401.96,45.564L403.65,45.512L405.34,45.512L407.03,45.483L408.72,45.463L410.42,45.469L412.11,45.464L413.8,45.471L415.49,45.445L417.18,45.423L418.87,45.418L420.57,45.428L422.26,45.414L423.95,45.427L425.64,45.385L427.33,45.383L429.02,45.365L430.72,45.408L432.41,45.38L434.1,45.359L435.79,45.371L437.48,45.321L439.17,45.36L440.87,45.345L442.56,45.314L444.25,45.339L445.94,45.305L447.63,45.306L449.32,45.278L451.02,45.28L452.71,45.29L454.4,45.278L456.09,45.283L457.78,45.301L459.48,45.283L461.17,45.259L462.86,45.243L464.55,45.281L466.24,45.266L467.93,45.256L469.63,45.241L471.32,45.239L473.01,45.238L474.7,45.244L476.39,45.252L478.08,45.226L479.78,45.244L481.47,45.213L483.16,45.214L484.85,45.213L486.54,45.209L488.23,45.212L489.93,45.224L491.62,45.219L493.31,45.199L495,45.2L496.69,45.197L498.38,45.205L500.08,45.207L501.77,45.215L503.46,45.192L505.15,45.189L506.84,45.197L508.54,45.192L510.23,45.183L511.92,45.194L513.61,45.188L515.3,45.175L516.99,45.182L518.69,45.183L520.38,45.184L522.07,45.195L523.76,45.178L525.45,45.183L527.14,45.171L528.84,45.183L530.53,45.175L532.22,45.163L533.91,45.168L535.6,45.166L537.29,45.174L538.99,45.168L540.68,45.165L542.37,45.169L544.06,45.169L545.75,45.173L547.44,45.163L549.14,45.16L550.83,45.165L552.52,45.166L554.21,45.164L555.9,45.16L557.59,45.165L559.29,45.163L560.98,45.165L562.67,45.159L564.36,45.156L566.05,45.158L567.75,45.165L569.44,45.156L571.13,45.173L572.82,45.164L574.51,45.158L576.2,45.164L577.9,45.158L579.59,45.154L581.28,45.158L582.97,45.156L584.66,45.151L586.35,45.154L588.05,45.165L589.74,45.155L591.43,45.153L593.12,45.158L594.81,45.159L596.5,45.154L598.2,45.153L599.89,45.155L601.58,45.154L603.27,45.155L604.96,45.154L606.65,45.153L608.35,45.153L610.04,45.151L611.73,45.151L613.42,45.153L615.11,45.151L618.5,45.154L621.88,45.155L623.57,45.153L625.26,45.154L628.65,45.153L630.34,45.154L632.03,45.154L633.72,45.151L635.41,45.154L637.11,45.151L638.8,45.151L640.49,45.153L642.18,45.153L643.87,45.151L645.56,45.153L647.26,45.151L648.95,45.153L652.33,45.151L660.79,45.151L670.94,45.153L694.62,45.151L720,45.151" style="fill:none;stroke:#0000FF" />
</g>
</svg>
