<?xml version="1.0"?>
<!-- Generated by SVGo and Plotinum VG -->
<svg width="720pt" height="432pt" viewBox="0 0 720 432"
	xmlns="http://www.w3.org/2000/svg"
	xmlns:xlink="http://www.w3.org/1999/xlink">
<g transform="scale(1, -1) translate(0, -432)">
<path d="M0,0L720,0L720,432L0,432Z" style="fill:#FFFFFF" />
<text x="358.5" y="-420.45" transform="scale(1, -1)"
	style="font-family:Times;font-weight:normal;font-style:normal;font-size:12px"> </text>
<text x="385.56" y="-3.8613" transform="scale(1, -1)"
	style="font-family:Times;font-weight:normal;font-style:normal;font-size:12px">Costs</text>
<text x="75.305" y="-18.634" transform="scale(1, -1)"
	style="font-family:Times;font-weight:normal;font-style:normal;font-size:10px">0</text>
<text x="358.28" y="-18.634" transform="scale(1, -1)"
	style="font-family:Times;font-weight:normal;font-style:normal;font-size:10px">200</text>
<text x="646.26" y="-18.634" transform="scale(1, -1)"
	style="font-family:Times;font-weight:normal;font-style:normal;font-size:10px">400</text>
<path d="M77.805,28.263L77.805,36.263" style="fill:none;stroke:#000000;stroke-width:0.5" />
<path d="M365.78,28.263L365.78,36.263" style="fill:none;stroke:#000000;stroke-width:0.5" />
<path d="M653.76,28.263L653.76,36.263" style="fill:none;stroke:#000000;stroke-width:0.5" />
<path d="M221.79,32.263L221.79,36.263" style="fill:none;stroke:#000000;stroke-width:0.5" />
<path d="M509.77,32.263L509.77,36.263" style="fill:none;stroke:#000000;stroke-width:0.5" />
<path d="M77.805,36.263L720,36.263" style="fill:none;stroke:#000000;stroke-width:0.5" />
<g transform="rotate(90)">
<text x="152.55" y="11.555" transform="scale(1, -1)"
	style="font-family:Times;font-weight:normal;font-style:normal;font-size:12px">Number of trials (1000000 total)</text>
</g>
<text x="24.055" y="-81.898" transform="scale(1, -1)"
	style="font-family:Times;font-weight:normal;font-style:normal;font-size:10px">25000.00</text>
<text x="19.055" y="-241.71" transform="scale(1, -1)"
	style="font-family:Times;font-weight:normal;font-style:normal;font-size:10px">125000.00</text>
<text x="19.055" y="-401.53" transform="scale(1, -1)"
	style="font-family:Times;font-weight:normal;font-style:normal;font-size:10px">225000.00</text>
<path d="M64.055,85.104L72.055,85.104" style="fill:none;stroke:#000000;stroke-width:0.5" />
<path d="M64.055,244.92L72.055,244.92" style="fill:none;stroke:#000000;stroke-width:0.5" />
<path d="M64.055,404.74L72.055,404.74" style="fill:none;stroke:#000000;stroke-width:0.5" />
<path d="M68.055,165.01L72.055,165.01" style="fill:none;stroke:#000000;stroke-width:0.5" />
<path d="M68.055,324.83L72.055,324.83" style="fill:none;stroke:#000000;stroke-width:0.5" />
<path d="M72.055,45.151L72.055,416.58" style="fill:none;stroke:#000000;stroke-width:0.5" />
<path d="M77.805,416.58L109.48,48.821L112.36,59.906L115.24,52.306L116.68,59.826L118.12,66.792L119.56,48.725L121,51.984L123.88,52.338L125.32,66.564L126.76,66.48L128.2,62.872L129.64,55.921L131.08,62.848L132.52,55.471L133.96,59.166L135.4,63.322L136.84,70.195L138.28,59.498L139.72,66.965L141.16,59.263L142.6,59.049L144.04,67.396L146.92,45.206L148.36,67.185L149.8,70.174L151.24,52.757L152.68,45.895L154.12,99.65L155.56,56.673L157,49.558L158.44,71.644L159.88,50.154L161.32,64.302L162.76,54.032L164.2,47.29L165.64,51.828L167.08,51.843L168.52,54.966L169.96,47.806L171.4,48.878L172.84,48.317L174.28,53.399L175.72,49.605L177.16,50.574L178.6,50.745L180.04,65.058L181.48,50.296L182.92,58.75L184.36,58.539L185.8,51.084L187.24,51.696L188.68,54.611L190.12,53.225L191.56,52.738L193,61.467L194.44,60.671L195.88,53.128L197.32,54.587L198.76,53.868L200.2,53.403L201.64,55.265L203.08,54.881L204.52,53.42L205.96,53.524L207.4,54.892L208.84,54.724L210.28,53.142L211.72,54.162L213.16,54.064L214.6,53.711L216.04,54.181L217.47,53.205L218.91,52.511L220.35,55.161L221.79,51.172L223.23,50.929L224.67,53.139L226.11,53.091L227.55,51.872L228.99,50.494L230.43,53.777L231.87,52.314L233.31,51.686L234.75,53.233L236.19,49.797L237.63,51.916L239.07,51.459L240.51,50.411L241.95,52.003L243.39,50.863L244.83,50.905L246.27,50.822L247.71,49.35L249.15,49.752L250.59,50.734L252.03,50.307L253.47,49.816L254.91,50.047L256.35,51.523L257.79,49.484L259.23,50.341L260.67,51.052L262.11,48.752L263.55,50.157L264.99,50.4L266.43,49.628L267.87,49.251L269.31,49.797L270.75,50.093L272.19,48.941L273.63,49.511L275.07,49.367L276.51,49.219L277.95,49.092L279.39,48.81L280.83,48.567L282.27,48.584L283.71,48.509L285.15,48.754L286.59,48.429L288.03,48.407L289.47,48.461L290.91,48.508L292.35,48.233L293.79,48.177L295.23,48.126L296.67,48.463L298.11,48.086L299.55,47.998L300.99,47.939L302.43,47.707L303.87,47.814L305.31,47.641L306.75,47.659L308.19,47.684L309.63,47.747L311.07,47.513L312.51,47.336L313.95,47.649L315.39,47.466L316.83,47.312L318.27,47.302L319.71,47.194L321.15,47.146L322.59,47.211L324.03,47.04L325.47,47.002L326.91,47.088L328.35,46.903L329.79,46.858L331.23,46.877L332.67,46.892L334.11,46.722L335.55,46.697L336.99,46.813L338.43,46.604L339.87,46.674L341.31,46.743L342.75,46.483L344.19,46.518L345.63,46.47L347.07,46.449L348.51,46.4L349.95,46.396L351.39,46.356L352.83,46.308L354.27,46.281L355.71,46.278L357.15,46.264L358.59,46.254L360.03,46.176L361.46,46.187L362.9,46.056L364.34,45.986L365.78,46.086L367.22,46.034L368.66,46.021L370.1,45.989L371.54,46.016L372.98,45.974L374.42,45.941L375.86,45.957L377.3,45.874L378.74,45.843L380.18,45.835L381.62,45.879L383.06,45.8L384.5,45.786L385.94,45.749L387.38,45.747L388.82,45.765L390.26,45.767L391.7,45.712L393.14,45.698L394.58,45.711L396.02,45.677L397.46,45.642L398.9,45.6L400.34,45.634L401.78,45.642L403.22,45.591L404.66,45.554L406.1,45.564L407.54,45.506L408.98,45.568L410.42,45.597L411.86,45.53L413.3,45.541L414.74,45.489L416.18,45.481L417.62,45.487L419.06,45.5L420.5,45.498L421.94,45.442L423.38,45.426L424.82,45.461L426.26,45.434L427.7,45.42L429.14,45.428L430.58,45.375L432.02,45.391L433.46,45.42L434.9,45.389L436.34,45.38L437.78,45.377L439.22,45.364L440.66,45.34L442.1,45.337L443.54,45.354L444.98,45.342L446.42,45.313L447.86,45.322L449.3,45.327L450.74,45.289L452.18,45.271L453.62,45.271L455.06,45.262L456.5,45.281L457.94,45.284L459.38,45.295L460.82,45.29L462.26,45.292L463.7,45.287L465.14,45.263L466.58,45.282L468.02,45.263L469.46,45.254L470.9,45.258L472.34,45.252L473.78,45.247L475.22,45.228L476.66,45.242L478.1,45.242L479.54,45.226L480.98,45.246L482.42,45.23L483.86,45.222L485.3,45.236L486.74,45.228L488.18,45.222L489.62,45.212L491.06,45.217L492.5,45.206L493.94,45.214L495.38,45.199L496.82,45.201L498.26,45.223L499.7,45.22L501.14,45.193L502.58,45.206L504.02,45.201L505.45,45.191L506.89,45.207L508.33,45.18L509.77,45.187L511.21,45.182L512.65,45.172L514.09,45.182L515.53,45.191L516.97,45.182L518.41,45.19L519.85,45.187L521.29,45.198L522.73,45.188L524.17,45.183L525.61,45.169L527.05,45.167L528.49,45.183L529.93,45.183L531.37,45.171L532.81,45.177L534.25,45.167L535.69,45.175L537.13,45.158L538.57,45.175L540.01,45.172L541.45,45.171L542.89,45.18L544.33,45.164L545.77,45.166L547.21,45.171L548.65,45.163L550.09,45.167L551.53,45.167L552.97,45.164L554.41,45.159L555.85,45.163L557.29,45.164L558.73,45.159L560.17,45.161L561.61,45.164L563.05,45.163L564.49,45.161L565.93,45.167L567.37,45.159L568.81,45.161L570.25,45.164L571.69,45.156L573.13,45.161L574.57,45.155L576.01,45.151L577.45,45.159L580.33,45.151L581.77,45.161L583.21,45.158L584.65,45.153L586.09,45.156L587.53,45.151L588.97,45.151L591.85,45.159L593.29,45.153L594.73,45.153L596.17,45.153L597.61,45.158L599.05,45.153L600.49,45.153L601.93,45.153L603.37,45.153L604.81,45.153L609.13,45.155L610.57,45.151L612.01,45.151L614.89,45.158L616.33,45.153L617.77,45.153L619.21,45.153L620.65,45.156L622.09,45.151L623.53,45.153L626.41,45.151L627.85,45.151L629.29,45.155L635.05,45.151L637.93,45.151L640.81,45.151L643.69,45.151L655.2,45.151L658.08,45.151L660.96,45.153L662.4,45.151L663.84,45.151L665.28,45.151L668.16,45.151L669.6,45.151L671.04,45.153L675.36,45.151L679.68,45.151L682.56,45.151L686.88,45.151L692.64,45.151L701.28,45.151L707.04,45.151L720,45.151" style="fill:none;stroke:#0000FF" />
</g>
</svg>
