<?xml version="1.0"?>
<!-- Generated by SVGo and Plotinum VG -->
<svg width="720pt" height="432pt" viewBox="0 0 720 432"
	xmlns="http://www.w3.org/2000/svg"
	xmlns:xlink="http://www.w3.org/1999/xlink">
<g transform="scale(1, -1) translate(0, -432)">
<path d="M0,0L720,0L720,432L0,432Z" style="fill:#FFFFFF" />
<text x="358.5" y="-420.45" transform="scale(1, -1)"
	style="font-family:Times;font-weight:normal;font-style:normal;font-size:12px"> </text>
<text x="379.31" y="-3.8613" transform="scale(1, -1)"
	style="font-family:Times;font-weight:normal;font-style:normal;font-size:12px">Costs</text>
<text x="62.805" y="-18.634" transform="scale(1, -1)"
	style="font-family:Times;font-weight:normal;font-style:normal;font-size:10px">0</text>
<text x="343.07" y="-18.634" transform="scale(1, -1)"
	style="font-family:Times;font-weight:normal;font-style:normal;font-size:10px">200</text>
<text x="628.35" y="-18.634" transform="scale(1, -1)"
	style="font-family:Times;font-weight:normal;font-style:normal;font-size:10px">400</text>
<path d="M65.305,28.263L65.305,36.263" style="fill:none;stroke:#000000;stroke-width:0.5" />
<path d="M350.57,28.263L350.57,36.263" style="fill:none;stroke:#000000;stroke-width:0.5" />
<path d="M635.85,28.263L635.85,36.263" style="fill:none;stroke:#000000;stroke-width:0.5" />
<path d="M207.94,32.263L207.94,36.263" style="fill:none;stroke:#000000;stroke-width:0.5" />
<path d="M493.21,32.263L493.21,36.263" style="fill:none;stroke:#000000;stroke-width:0.5" />
<path d="M65.305,36.263L720,36.263" style="fill:none;stroke:#000000;stroke-width:0.5" />
<g transform="rotate(90)">
<text x="150.11" y="11.555" transform="scale(1, -1)"
	style="font-family:Times;font-weight:normal;font-style:normal;font-size:12px">Number of trials (1000000 total)</text>
</g>
<text x="24.055" y="-114.95" transform="scale(1, -1)"
	style="font-family:Times;font-weight:normal;font-style:normal;font-size:10px">50000</text>
<text x="19.055" y="-260.95" transform="scale(1, -1)"
	style="font-family:Times;font-weight:normal;font-style:normal;font-size:10px">150000</text>
<text x="19.055" y="-406.96" transform="scale(1, -1)"
	style="font-family:Times;font-weight:normal;font-style:normal;font-size:10px">250000</text>
<path d="M51.555,118.15L59.555,118.15" style="fill:none;stroke:#000000;stroke-width:0.5" />
<path d="M51.555,264.16L59.555,264.16" style="fill:none;stroke:#000000;stroke-width:0.5" />
<path d="M51.555,410.16L59.555,410.16" style="fill:none;stroke:#000000;stroke-width:0.5" />
<path d="M55.555,191.15L59.555,191.15" style="fill:none;stroke:#000000;stroke-width:0.5" />
<path d="M55.555,337.16L59.555,337.16" style="fill:none;stroke:#000000;stroke-width:0.5" />
<path d="M59.555,45.151L59.555,411.7" style="fill:none;stroke:#000000;stroke-width:0.5" />
<path d="M65.305,411.7L102.39,51.808L105.24,78.429L109.52,48.597L113.8,112.04L120.93,55.35L122.36,51.875L123.79,81.073L125.21,55.09L126.64,58.889L128.06,111.89L129.49,51.824L135.2,52.135L136.62,52.024L138.05,55.205L140.9,133.79L142.33,52.538L146.61,48.629L149.46,45.496L150.89,46.408L152.31,52.114L153.74,84.127L155.16,78.576L158.02,45.994L159.44,45.261L160.87,46.819L162.3,49.003L163.72,48.653L165.15,47.302L166.58,46.584L168,51.484L169.43,47.614L170.85,60.475L172.28,52.269L173.71,47.184L175.13,81.979L176.56,57.238L177.99,49.083L179.41,67.475L180.84,57.684L182.27,46.408L183.69,49.745L185.12,50.015L186.54,54.617L187.97,47.714L189.4,64.431L190.82,50.681L192.25,47.905L193.68,48.869L195.1,49.878L196.53,49.177L197.96,49.146L199.38,56.23L200.81,51.497L202.23,54.928L203.66,67.499L205.09,48.638L206.51,45.613L207.94,46.008L209.37,47.328L210.79,50.533L212.22,52.24L213.65,52.698L215.07,52.314L216.5,59.231L217.92,53.417L219.35,50.892L220.78,46.048L222.2,46.318L223.63,52.533L225.06,47.639L226.48,48.286L227.91,52.469L229.34,57.195L230.76,55.944L232.19,47.69L233.61,52.027L235.04,48.899L236.47,48.276L237.89,54.716L239.32,48.54L240.75,48.293L242.17,51.383L243.6,51.936L245.02,47.095L246.45,50.403L247.88,49.056L249.3,47.382L250.73,55.496L252.16,50.456L253.58,46.921L255.01,51.11L256.44,48.476L257.86,47.007L259.29,48.588L260.71,48.891L262.14,49.304L263.57,50.52L264.99,51.076L266.42,48.371L267.85,48.915L269.27,48.886L270.7,47.261L272.13,46.798L273.55,47.486L274.98,48.044L276.4,47.816L277.83,48.854L279.26,48.872L280.68,48.076L282.11,47.156L283.54,46.467L284.96,47.429L286.39,48.274L287.82,47.609L289.24,49.641L290.67,48.616L292.09,48.88L293.52,47.701L294.95,47.53L296.37,46.788L297.8,46.181L299.23,47.962L300.65,47.286L302.08,47.019L303.51,47.65L304.93,47.636L306.36,47.463L307.78,46.687L309.21,47.737L310.64,46.782L312.06,46.626L313.49,48.352L314.92,46.588L316.34,46.616L317.77,47.267L319.2,47.293L320.62,46.216L322.05,46.75L323.47,46.778L324.9,46.413L326.33,47.298L327.75,47.014L329.18,46.449L330.61,46.511L332.03,46.423L333.46,46.081L334.89,46.279L336.31,46.395L337.74,46.606L339.16,46.849L340.59,46.743L342.02,46.144L343.44,46.506L344.87,46.368L346.3,45.953L347.72,46.086L349.15,46.128L350.57,46.128L352,46.246L353.43,46.284L354.85,45.83L356.28,46.046L357.71,46.081L359.13,45.766L360.56,45.846L361.99,46.076L363.41,45.779L364.84,46.27L366.26,45.965L367.69,45.982L369.12,45.843L370.54,45.842L371.97,45.751L373.4,45.692L374.82,45.902L376.25,45.849L377.68,45.864L379.1,45.921L380.53,45.753L381.95,45.751L383.38,45.662L384.81,45.751L386.23,45.623L387.66,45.673L389.09,45.765L390.51,45.56L391.94,45.63L393.37,45.64L394.79,45.604L396.22,45.535L397.64,45.651L399.07,45.645L400.5,45.566L401.92,45.608L403.35,45.601L404.78,45.537L406.2,45.557L407.63,45.508L409.06,45.442L410.48,45.474L411.91,45.462L413.33,45.475L414.76,45.499L416.19,45.496L417.61,45.376L419.04,45.457L420.47,45.414L421.89,45.365L423.32,45.395L424.75,45.389L426.17,45.42L427.6,45.429L429.02,45.416L430.45,45.327L431.88,45.332L433.3,45.343L434.73,45.312L436.16,45.338L437.58,45.36L439.01,45.315L440.44,45.359L441.86,45.343L443.29,45.293L444.71,45.309L446.14,45.325L447.57,45.308L448.99,45.271L450.42,45.277L451.85,45.274L453.27,45.319L454.7,45.332L456.12,45.286L457.55,45.284L458.98,45.293L460.4,45.267L461.83,45.268L463.26,45.28L464.68,45.258L466.11,45.268L467.54,45.255L468.96,45.233L470.39,45.246L471.81,45.248L473.24,45.221L474.67,45.238L476.09,45.229L477.52,45.258L478.95,45.246L480.37,45.236L481.8,45.232L483.23,45.227L484.65,45.22L486.08,45.227L487.5,45.214L488.93,45.211L490.36,45.202L491.78,45.229L493.21,45.219L494.64,45.2L496.06,45.185L497.49,45.204L498.92,45.194L500.34,45.197L501.77,45.2L503.19,45.201L504.62,45.191L506.05,45.186L507.47,45.192L508.9,45.188L510.33,45.183L511.75,45.175L513.18,45.191L514.61,45.172L516.03,45.183L517.46,45.181L518.88,45.185L520.31,45.192L521.74,45.169L523.16,45.166L524.59,45.165L526.02,45.185L527.44,45.178L528.87,45.176L530.3,45.179L531.72,45.17L533.15,45.17L534.57,45.165L536,45.172L537.43,45.166L538.85,45.182L540.28,45.169L541.71,45.163L543.13,45.173L544.56,45.166L545.99,45.169L547.41,45.166L548.84,45.166L550.26,45.16L551.69,45.16L553.12,45.159L554.54,45.163L555.97,45.169L557.4,45.163L558.82,45.156L560.25,45.163L561.67,45.163L563.1,45.156L564.53,45.156L565.95,45.154L567.38,45.162L568.81,45.154L570.23,45.154L571.66,45.151L573.09,45.16L574.51,45.159L575.94,45.154L577.36,45.156L578.79,45.157L581.64,45.153L583.07,45.157L584.5,45.156L585.92,45.156L587.35,45.154L588.78,45.154L590.2,45.151L591.63,45.157L593.05,45.156L594.48,45.157L595.91,45.151L597.33,45.151L598.76,45.151L600.19,45.154L601.61,45.159L603.04,45.151L604.47,45.151L605.89,45.159L607.32,45.151L608.74,45.151L610.17,45.153L611.6,45.151L613.02,45.151L614.45,45.151L615.88,45.153L617.3,45.153L618.73,45.153L620.16,45.153L623.01,45.153L624.43,45.153L625.86,45.151L627.29,45.151L628.71,45.153L630.14,45.151L634.42,45.151L635.85,45.151L642.98,45.156L645.83,45.151L647.26,45.153L648.68,45.151L650.11,45.151L651.54,45.153L652.96,45.153L654.39,45.154L655.81,45.151L661.52,45.151L662.95,45.156L668.65,45.151L670.08,45.151L677.21,45.151L678.64,45.151L692.9,45.151L694.33,45.151L695.75,45.153L714.29,45.151L715.72,45.151L720,45.151" style="fill:none;stroke:#0000FF" />
</g>
</svg>
