<?xml version="1.0"?>
<!-- Generated by SVGo and Plotinum VG -->
<svg width="720pt" height="432pt" viewBox="0 0 720 432"
	xmlns="http://www.w3.org/2000/svg"
	xmlns:xlink="http://www.w3.org/1999/xlink">
<g transform="scale(1, -1) translate(0, -432)">
<path d="M0,0L720,0L720,432L0,432Z" style="fill:#FFFFFF" />
<text x="358.5" y="-420.45" transform="scale(1, -1)"
	style="font-family:Times;font-weight:normal;font-style:normal;font-size:12px"> </text>
<text x="379.31" y="-3.8613" transform="scale(1, -1)"
	style="font-family:Times;font-weight:normal;font-style:normal;font-size:12px">Costs</text>
<text x="56.555" y="-18.634" transform="scale(1, -1)"
	style="font-family:Times;font-weight:normal;font-style:normal;font-size:10px">0.00</text>
<text x="346.99" y="-18.634" transform="scale(1, -1)"
	style="font-family:Times;font-weight:normal;font-style:normal;font-size:10px">250.00</text>
<text x="642.43" y="-18.634" transform="scale(1, -1)"
	style="font-family:Times;font-weight:normal;font-style:normal;font-size:10px">500.00</text>
<path d="M65.305,28.263L65.305,36.263" style="fill:none;stroke:#000000;stroke-width:0.5" />
<path d="M360.74,28.263L360.74,36.263" style="fill:none;stroke:#000000;stroke-width:0.5" />
<path d="M656.18,28.263L656.18,36.263" style="fill:none;stroke:#000000;stroke-width:0.5" />
<path d="M124.39,32.263L124.39,36.263" style="fill:none;stroke:#000000;stroke-width:0.5" />
<path d="M183.48,32.263L183.48,36.263" style="fill:none;stroke:#000000;stroke-width:0.5" />
<path d="M242.57,32.263L242.57,36.263" style="fill:none;stroke:#000000;stroke-width:0.5" />
<path d="M301.66,32.263L301.66,36.263" style="fill:none;stroke:#000000;stroke-width:0.5" />
<path d="M419.83,32.263L419.83,36.263" style="fill:none;stroke:#000000;stroke-width:0.5" />
<path d="M478.92,32.263L478.92,36.263" style="fill:none;stroke:#000000;stroke-width:0.5" />
<path d="M538.01,32.263L538.01,36.263" style="fill:none;stroke:#000000;stroke-width:0.5" />
<path d="M597.1,32.263L597.1,36.263" style="fill:none;stroke:#000000;stroke-width:0.5" />
<path d="M715.27,32.263L715.27,36.263" style="fill:none;stroke:#000000;stroke-width:0.5" />
<path d="M65.305,36.263L720,36.263" style="fill:none;stroke:#000000;stroke-width:0.5" />
<g transform="rotate(90)">
<text x="152.55" y="11.555" transform="scale(1, -1)"
	style="font-family:Times;font-weight:normal;font-style:normal;font-size:12px">Number of trials (1000000 total)</text>
</g>
<text x="24.055" y="-108.5" transform="scale(1, -1)"
	style="font-family:Times;font-weight:normal;font-style:normal;font-size:10px">20000</text>
<text x="24.055" y="-241.62" transform="scale(1, -1)"
	style="font-family:Times;font-weight:normal;font-style:normal;font-size:10px">60000</text>
<text x="19.055" y="-374.73" transform="scale(1, -1)"
	style="font-family:Times;font-weight:normal;font-style:normal;font-size:10px">100000</text>
<path d="M51.555,111.71L59.555,111.71" style="fill:none;stroke:#000000;stroke-width:0.5" />
<path d="M51.555,244.82L59.555,244.82" style="fill:none;stroke:#000000;stroke-width:0.5" />
<path d="M51.555,377.94L59.555,377.94" style="fill:none;stroke:#000000;stroke-width:0.5" />
<path d="M55.555,78.427L59.555,78.427" style="fill:none;stroke:#000000;stroke-width:0.5" />
<path d="M55.555,144.99L59.555,144.99" style="fill:none;stroke:#000000;stroke-width:0.5" />
<path d="M55.555,178.26L59.555,178.26" style="fill:none;stroke:#000000;stroke-width:0.5" />
<path d="M55.555,211.54L59.555,211.54" style="fill:none;stroke:#000000;stroke-width:0.5" />
<path d="M55.555,278.1L59.555,278.1" style="fill:none;stroke:#000000;stroke-width:0.5" />
<path d="M55.555,311.38L59.555,311.38" style="fill:none;stroke:#000000;stroke-width:0.5" />
<path d="M55.555,344.66L59.555,344.66" style="fill:none;stroke:#000000;stroke-width:0.5" />
<path d="M55.555,411.22L59.555,411.22" style="fill:none;stroke:#000000;stroke-width:0.5" />
<path d="M59.555,45.151L59.555,416.58" style="fill:none;stroke:#000000;stroke-width:0.5" />
<path d="M65.305,416.58L91.303,48.762L92.485,48.559L93.667,52.2L96.03,59.248L97.212,52.376L98.394,52.13L99.576,51.914L103.12,77.931L104.3,84.647L105.48,72.793L106.67,59.861L107.85,59.957L110.21,70.31L111.39,59.555L112.58,81.412L113.76,100.23L114.94,99.576L116.12,87.067L117.3,67.588L118.48,55.817L119.67,87.466L120.85,45.218L122.03,48.486L123.21,87.343L124.39,49.135L125.57,71.382L126.76,45.318L127.94,119.84L129.12,60.303L130.3,46.08L131.48,96.421L132.67,60.397L133.85,47.278L135.03,76.394L136.21,48.12L137.39,47.884L138.57,66.889L139.76,54.223L140.94,49.171L142.12,51.811L143.3,51.774L144.48,57.139L145.66,53.398L146.85,52.506L148.03,53.481L149.21,59.744L150.39,55.085L151.57,80.437L152.75,72.567L153.94,64.55L155.12,60.922L156.3,78.371L157.48,60.21L158.66,61.495L159.85,63.625L161.03,85.423L162.21,66.763L163.39,66.044L164.57,65.658L165.75,70.044L166.94,65.864L168.12,67.532L169.3,65.259L170.48,66.876L171.66,62.337L172.84,67.641L174.03,64.011L175.21,62.876L176.39,69.189L177.57,70.86L178.75,64.716L179.94,68.39L181.12,62.237L182.3,67.988L183.48,62.969L184.66,56.619L185.84,67.685L187.03,58.08L188.21,58.869L189.39,63.515L190.57,61.065L191.75,60.523L192.93,58.763L194.12,64.44L195.3,60.157L196.48,56.599L197.66,61.794L198.84,61.651L200.03,59.312L201.21,67.592L202.39,62.909L203.57,59.508L204.75,60.826L205.93,61.891L207.12,60.423L208.3,59.837L209.48,62.323L210.66,62.683L211.84,61.268L213.02,57.678L214.21,63.821L215.39,63.698L216.57,58.866L217.75,60.912L218.93,65.339L220.12,58.733L221.3,59.761L222.48,60.916L223.66,62.487L224.84,59.035L226.02,60.217L227.21,61.575L228.39,58.669L229.57,58.04L230.75,59.991L231.93,57.305L233.11,57.162L234.3,58.403L235.48,57.658L236.66,56.46L237.84,56.746L239.02,57.461L240.21,57.894L241.39,56.147L242.57,57.741L243.75,56.969L244.93,56L246.11,56.403L247.3,56.626L248.48,57.085L249.66,56.643L250.84,55.501L252.02,57.708L253.2,55.321L254.39,55.485L255.57,55.668L256.75,55.791L257.93,54.722L259.11,55.421L260.3,55.059L261.48,55.275L262.66,54.796L263.84,55.817L265.02,55.215L266.2,54.316L267.39,54.749L268.57,55.055L269.75,54.386L270.93,54.227L272.11,54.197L273.29,54.39L274.48,53.578L275.66,53.408L276.84,53.288L278.02,53.078L279.2,52.423L280.39,52.816L281.57,53.335L282.75,52.383L283.93,52.296L285.11,53.059L286.29,51.947L287.48,52.083L288.66,52.14L289.84,52.546L291.02,51.894L292.2,51.94L293.38,51.801L294.57,51.628L295.75,51.148L296.93,51.704L298.11,51.378L299.29,50.952L300.48,50.746L301.66,51.275L302.84,50.915L304.02,50.626L305.2,50.766L306.38,51.005L307.57,50.413L308.75,50.33L309.93,50.559L311.11,50.25L312.29,50.203L313.47,50.08L314.66,50.32L315.84,49.897L317.02,49.691L318.2,50.033L319.38,49.774L320.56,49.568L321.75,49.734L322.93,49.454L324.11,49.165L325.29,49.142L326.47,49.295L327.66,48.962L328.84,48.792L330.02,48.872L331.2,48.895L332.38,48.988L333.56,48.799L334.75,48.879L335.93,48.529L337.11,48.503L338.29,48.456L339.47,48.473L340.65,48.476L341.84,48.216L343.02,48.2L344.2,48.127L345.38,47.993L346.56,48.02L347.75,48.057L348.93,47.807L350.11,47.924L351.29,47.754L352.47,47.787L353.65,47.604L354.84,47.607L356.02,47.594L357.2,47.434L358.38,47.484L359.56,47.401L360.74,47.438L361.93,47.181L363.11,47.258L364.29,47.171L365.47,47.251L366.65,47.215L367.84,47.195L369.02,46.965L370.2,47.092L371.38,46.882L372.56,47.078L373.74,46.802L374.93,46.909L376.11,46.849L377.29,46.802L378.47,46.676L379.65,46.662L380.83,46.712L382.02,46.696L383.2,46.489L384.38,46.656L385.56,46.489L386.74,46.506L387.93,46.389L389.11,46.459L390.29,46.339L391.47,46.376L392.65,46.413L393.83,46.366L395.02,46.296L396.2,46.296L397.38,46.25L398.56,46.15L399.74,46.21L400.92,46.243L402.11,46.123L403.29,46.16L404.47,46.253L405.65,45.98L406.83,46.013L408.02,46.15L409.2,46.053L410.38,45.96L411.56,45.973L412.74,45.977L413.92,46.033L415.11,45.864L416.29,45.857L417.47,45.797L418.65,45.8L419.83,45.784L421.01,45.79L422.2,45.817L423.38,45.797L424.56,45.784L425.74,45.777L426.92,45.737L428.11,45.69L429.29,45.767L430.47,45.714L431.65,45.734L432.83,45.654L434.01,45.654L435.2,45.604L436.38,45.604L437.56,45.717L438.74,45.694L439.92,45.591L441.1,45.694L442.29,45.494L443.47,45.507L444.65,45.531L445.83,45.607L447.01,45.531L448.2,45.431L449.38,45.537L450.56,45.487L451.74,45.468L452.92,45.461L454.1,45.491L455.29,45.448L456.47,45.438L457.65,45.431L458.83,45.474L460.01,45.381L461.19,45.454L462.38,45.468L463.56,45.398L464.74,45.368L465.92,45.374L467.1,45.354L468.29,45.394L469.47,45.388L470.65,45.391L471.83,45.358L473.01,45.408L474.19,45.348L475.38,45.364L476.56,45.338L477.74,45.364L478.92,45.321L480.1,45.304L481.28,45.334L482.47,45.324L483.65,45.284L484.83,45.275L486.01,45.284L487.19,45.281L488.37,45.271L489.56,45.298L490.74,45.288L491.92,45.278L493.1,45.281L494.28,45.258L495.47,45.298L496.65,45.311L497.83,45.258L499.01,45.261L500.19,45.261L501.37,45.241L502.56,45.251L503.74,45.231L504.92,45.258L506.1,45.258L507.28,45.251L508.46,45.245L509.65,45.238L510.83,45.211L512.01,45.238L513.19,45.201L514.37,45.231L515.56,45.225L516.74,45.211L517.92,45.228L519.1,45.205L520.28,45.211L521.46,45.208L522.65,45.221L523.83,45.215L525.01,45.205L526.19,45.191L527.37,45.201L528.55,45.195L529.74,45.198L530.92,45.191L532.1,45.201L533.28,45.198L534.46,45.181L535.65,45.191L536.83,45.185L538.01,45.191L539.19,45.171L540.37,45.185L541.55,45.178L542.74,45.191L543.92,45.175L545.1,45.178L546.28,45.185L547.46,45.171L548.64,45.185L549.83,45.178L551.01,45.171L552.19,45.181L553.37,45.181L554.55,45.181L555.74,45.175L556.92,45.185L558.1,45.175L559.28,45.168L560.46,45.165L561.64,45.158L562.83,45.158L564.01,45.168L565.19,45.158L566.37,45.171L567.55,45.171L568.73,45.161L569.92,45.158L571.1,45.168L572.28,45.155L573.46,45.158L574.64,45.155L575.83,45.158L577.01,45.161L578.19,45.165L579.37,45.155L580.55,45.155L581.73,45.165L582.92,45.155L584.1,45.155L585.28,45.155L586.46,45.158L587.64,45.161L588.82,45.155L590.01,45.161L591.19,45.158L592.37,45.168L593.55,45.151L594.73,45.151L595.92,45.161L597.1,45.165L598.28,45.155L599.46,45.155L600.64,45.158L603.01,45.165L604.19,45.158L605.37,45.161L606.55,45.155L607.73,45.158L610.1,45.151L611.28,45.155L612.46,45.161L613.64,45.155L614.82,45.151L620.73,45.151L621.91,45.151L623.1,45.155L625.46,45.151L626.64,45.151L627.82,45.155L629,45.155L630.19,45.155L633.73,45.151L636.1,45.155L637.28,45.151L638.46,45.155L639.64,45.151L643.19,45.151L645.55,45.151L647.91,45.151L659.73,45.151L663.28,45.151L664.46,45.151L679.82,45.151L684.55,45.151L691.64,45.151L696.36,45.151L707,45.151L712.91,45.151L720,45.151" style="fill:none;stroke:#0000FF" />
</g>
</svg>
