<?xml version="1.0"?>
<!-- Generated by SVGo and Plotinum VG -->
<svg width="720pt" height="432pt" viewBox="0 0 720 432"
	xmlns="http://www.w3.org/2000/svg"
	xmlns:xlink="http://www.w3.org/1999/xlink">
<g transform="scale(1, -1) translate(0, -432)">
<path d="M0,0L720,0L720,432L0,432Z" style="fill:#FFFFFF" />
<text x="358.5" y="-420.45" transform="scale(1, -1)"
	style="font-family:Times;font-weight:normal;font-style:normal;font-size:12px"> </text>
<text x="379.31" y="-3.8613" transform="scale(1, -1)"
	style="font-family:Times;font-weight:normal;font-style:normal;font-size:12px">Costs</text>
<text x="62.805" y="-18.634" transform="scale(1, -1)"
	style="font-family:Times;font-weight:normal;font-style:normal;font-size:10px">0</text>
<text x="323.94" y="-18.634" transform="scale(1, -1)"
	style="font-family:Times;font-weight:normal;font-style:normal;font-size:10px">200</text>
<text x="590.08" y="-18.634" transform="scale(1, -1)"
	style="font-family:Times;font-weight:normal;font-style:normal;font-size:10px">400</text>
<path d="M65.305,28.263L65.305,36.263" style="fill:none;stroke:#000000;stroke-width:0.5" />
<path d="M331.44,28.263L331.44,36.263" style="fill:none;stroke:#000000;stroke-width:0.5" />
<path d="M597.58,28.263L597.58,36.263" style="fill:none;stroke:#000000;stroke-width:0.5" />
<path d="M198.37,32.263L198.37,36.263" style="fill:none;stroke:#000000;stroke-width:0.5" />
<path d="M464.51,32.263L464.51,36.263" style="fill:none;stroke:#000000;stroke-width:0.5" />
<path d="M65.305,36.263L720,36.263" style="fill:none;stroke:#000000;stroke-width:0.5" />
<g transform="rotate(90)">
<text x="152.55" y="11.555" transform="scale(1, -1)"
	style="font-family:Times;font-weight:normal;font-style:normal;font-size:12px">Number of trials (1000000 total)</text>
</g>
<text x="24.055" y="-106.78" transform="scale(1, -1)"
	style="font-family:Times;font-weight:normal;font-style:normal;font-size:10px">30000</text>
<text x="24.055" y="-236.45" transform="scale(1, -1)"
	style="font-family:Times;font-weight:normal;font-style:normal;font-size:10px">90000</text>
<text x="19.055" y="-366.12" transform="scale(1, -1)"
	style="font-family:Times;font-weight:normal;font-style:normal;font-size:10px">150000</text>
<path d="M51.555,109.98L59.555,109.98" style="fill:none;stroke:#000000;stroke-width:0.5" />
<path d="M51.555,239.66L59.555,239.66" style="fill:none;stroke:#000000;stroke-width:0.5" />
<path d="M51.555,369.33L59.555,369.33" style="fill:none;stroke:#000000;stroke-width:0.5" />
<path d="M55.555,174.82L59.555,174.82" style="fill:none;stroke:#000000;stroke-width:0.5" />
<path d="M55.555,304.49L59.555,304.49" style="fill:none;stroke:#000000;stroke-width:0.5" />
<path d="M59.555,45.151L59.555,416.58" style="fill:none;stroke:#000000;stroke-width:0.5" />
<path d="M65.305,416.58L97.241,48.581L99.902,52.169L101.23,48.518L102.56,90.685L103.89,48.553L106.56,74.245L107.89,62.631L109.22,52.136L110.55,66.489L111.88,106.18L113.21,69.914L115.87,48.864L118.53,119.41L119.86,52.29L121.19,87.446L122.52,55.709L123.85,70.383L125.19,56.063L126.52,66.791L129.18,48.454L130.51,62.294L131.84,55.81L133.17,48.48L134.5,45.599L135.83,126.34L137.16,60.474L138.49,49.374L139.82,52.735L141.15,91.684L142.48,56.42L143.81,53.217L145.15,51.786L146.48,58.293L147.81,56.057L149.14,57.788L150.47,50.25L151.8,47.377L153.13,52.914L154.46,54.563L155.79,58.043L157.12,51.646L158.45,54.669L159.78,57.079L161.11,53.455L162.44,67.39L163.78,58.557L165.11,60.975L166.44,56.683L167.77,58.574L169.1,54.559L170.43,53.221L171.76,67.234L173.09,66.659L174.42,59.4L175.75,51.557L177.08,63.964L178.41,62.547L179.74,58.561L181.07,54.211L182.4,67.379L183.74,62.834L185.07,53.725L186.4,54.749L187.73,57.066L189.06,69.117L190.39,54.691L191.72,60.567L193.05,54.246L194.38,64.604L195.71,55.008L197.04,60.096L198.37,51.89L199.7,56.009L201.03,56.534L202.36,56.815L203.7,52.303L205.03,51.533L206.36,57.446L207.69,55.972L209.02,54.896L210.35,53.059L211.68,60.267L213.01,54.838L214.34,52.731L215.67,54.885L217,53.379L218.33,56.139L219.66,55.004L220.99,53.104L222.33,51.615L223.66,52.873L224.99,54.972L226.32,53.427L227.65,52.521L228.98,52.51L230.31,53.87L231.64,52.458L232.97,55.242L234.3,52.988L235.63,53.297L236.96,52.705L238.29,54.22L239.62,52.527L240.95,51.752L242.29,54.369L243.62,53.481L244.95,52.958L246.28,50.792L247.61,53.593L248.94,52.925L250.27,52.275L251.6,50.213L252.93,52.361L254.26,52.067L255.59,51.263L256.92,50.42L258.25,51.14L259.58,51.624L260.91,50.684L262.25,50.824L263.58,49.919L264.91,51.412L266.24,50.265L267.57,50.647L268.9,50.241L270.23,50.234L271.56,50.414L272.89,50.04L274.22,49.53L275.55,49.536L276.88,49.791L278.21,49.631L279.54,49.625L280.88,49.357L282.21,49.383L283.54,49.534L284.87,49.169L286.2,49.312L287.53,48.557L288.86,49.333L290.19,48.884L291.52,49.003L292.85,48.585L294.18,48.981L295.51,48.821L296.84,48.588L298.17,48.588L299.5,48.376L300.84,48.41L302.17,48.346L303.5,48.397L304.83,47.918L306.16,48.097L307.49,47.807L308.82,48.343L310.15,47.816L311.48,47.632L312.81,47.807L314.14,47.76L315.47,47.769L316.8,47.524L318.13,47.654L319.46,47.615L320.8,47.529L322.13,47.393L323.46,47.427L324.79,47.375L326.12,47.354L327.45,47.185L328.78,47.036L330.11,47.101L331.44,47.088L332.77,47.045L334.1,46.748L335.43,46.904L336.76,46.991L338.09,46.755L339.43,46.893L340.76,46.697L342.09,46.766L343.42,46.742L344.75,46.61L346.08,46.645L347.41,46.589L348.74,46.433L350.07,46.541L351.4,46.524L352.73,46.372L354.06,46.292L355.39,46.34L356.72,46.405L358.05,46.204L359.39,46.321L360.72,46.359L362.05,46.295L363.38,46.21L364.71,46.189L366.04,46.13L367.37,46.143L368.7,46.076L370.03,46.091L371.36,45.999L372.69,46.126L374.02,46.063L375.35,46.031L376.68,45.966L378.01,45.947L379.35,45.921L380.68,45.882L382.01,45.886L383.34,45.895L384.67,45.871L386,45.823L387.33,45.932L388.66,45.735L389.99,45.791L391.32,45.731L392.65,45.772L393.98,45.72L395.31,45.689L396.64,45.722L397.98,45.674L399.31,45.709L400.64,45.651L401.97,45.642L403.3,45.659L404.63,45.59L405.96,45.556L407.29,45.517L408.62,45.519L409.95,45.538L411.28,45.603L412.61,45.549L413.94,45.543L415.27,45.495L416.6,45.469L417.94,45.447L419.27,45.452L420.6,45.454L421.93,45.389L423.26,45.415L424.59,45.432L425.92,45.441L427.25,45.426L428.58,45.411L429.91,45.432L431.24,45.378L432.57,45.372L433.9,45.402L435.23,45.363L436.56,45.376L437.9,45.331L439.23,45.333L440.56,45.344L441.89,45.365L443.22,45.346L444.55,45.35L445.88,45.326L447.21,45.357L448.54,45.303L449.87,45.296L451.2,45.303L452.53,45.316L453.86,45.29L455.19,45.298L456.53,45.253L457.86,45.283L459.19,45.268L460.52,45.268L461.85,45.294L463.18,45.27L464.51,45.266L465.84,45.246L467.17,45.24L468.5,45.249L469.83,45.249L471.16,45.223L472.49,45.233L473.82,45.244L475.15,45.268L476.49,45.229L477.82,45.218L479.15,45.244L480.48,45.238L481.81,45.214L483.14,45.205L484.47,45.218L485.8,45.218L487.13,45.214L488.46,45.21L489.79,45.197L491.12,45.214L492.45,45.218L493.78,45.216L495.11,45.203L496.45,45.208L497.78,45.212L499.11,45.214L500.44,45.195L501.77,45.192L503.1,45.192L504.43,45.192L505.76,45.179L507.09,45.19L508.42,45.173L509.75,45.19L511.08,45.173L512.41,45.184L513.74,45.179L515.08,45.175L516.41,45.188L517.74,45.175L519.07,45.182L520.4,45.179L521.73,45.169L523.06,45.182L524.39,45.177L525.72,45.182L527.05,45.171L528.38,45.177L529.71,45.175L531.04,45.169L532.37,45.16L533.7,45.169L535.04,45.16L536.37,45.16L537.7,45.166L539.03,45.156L540.36,45.164L541.69,45.162L543.02,45.162L544.35,45.16L545.68,45.166L547.01,45.162L548.34,45.16L549.67,45.158L551,45.164L552.33,45.16L553.66,45.158L555,45.16L556.33,45.154L557.66,45.164L558.99,45.154L560.32,45.154L561.65,45.156L562.98,45.166L564.31,45.151L565.64,45.156L566.97,45.158L568.3,45.158L569.63,45.16L570.96,45.154L572.29,45.154L573.63,45.156L574.96,45.154L576.29,45.154L577.62,45.156L578.95,45.158L580.28,45.151L582.94,45.154L584.27,45.151L585.6,45.154L586.93,45.151L588.26,45.154L589.59,45.151L590.92,45.151L592.25,45.154L593.59,45.154L594.92,45.151L596.25,45.154L597.58,45.154L598.91,45.156L600.24,45.151L602.9,45.151L604.23,45.154L605.56,45.154L608.22,45.158L616.21,45.154L617.54,45.154L620.2,45.154L625.52,45.151L626.85,45.151L630.84,45.156L633.51,45.151L634.84,45.151L637.5,45.151L638.83,45.154L641.49,45.154L646.81,45.151L660.12,45.151L670.76,45.151L676.09,45.151L678.75,45.151L688.06,45.151L709.35,45.151L720,45.154" style="fill:none;stroke:#0000FF" />
</g>
</svg>
