<?xml version="1.0"?>
<!-- Generated by SVGo and Plotinum VG -->
<svg width="720pt" height="432pt" viewBox="0 0 720 432"
	xmlns="http://www.w3.org/2000/svg"
	xmlns:xlink="http://www.w3.org/1999/xlink">
<g transform="scale(1, -1) translate(0, -432)">
<path d="M0,0L720,0L720,432L0,432Z" style="fill:#FFFFFF" />
<text x="358.5" y="-420.45" transform="scale(1, -1)"
	style="font-family:Times;font-weight:normal;font-style:normal;font-size:12px"> </text>
<text x="376.81" y="-3.8613" transform="scale(1, -1)"
	style="font-family:Times;font-weight:normal;font-style:normal;font-size:12px">Costs</text>
<text x="57.805" y="-18.634" transform="scale(1, -1)"
	style="font-family:Times;font-weight:normal;font-style:normal;font-size:10px">0</text>
<text x="353.58" y="-18.634" transform="scale(1, -1)"
	style="font-family:Times;font-weight:normal;font-style:normal;font-size:10px">300</text>
<text x="654.35" y="-18.634" transform="scale(1, -1)"
	style="font-family:Times;font-weight:normal;font-style:normal;font-size:10px">600</text>
<path d="M60.305,28.263L60.305,36.263" style="fill:none;stroke:#000000;stroke-width:0.5" />
<path d="M361.08,28.263L361.08,36.263" style="fill:none;stroke:#000000;stroke-width:0.5" />
<path d="M661.85,28.263L661.85,36.263" style="fill:none;stroke:#000000;stroke-width:0.5" />
<path d="M160.56,32.263L160.56,36.263" style="fill:none;stroke:#000000;stroke-width:0.5" />
<path d="M260.82,32.263L260.82,36.263" style="fill:none;stroke:#000000;stroke-width:0.5" />
<path d="M461.34,32.263L461.34,36.263" style="fill:none;stroke:#000000;stroke-width:0.5" />
<path d="M561.59,32.263L561.59,36.263" style="fill:none;stroke:#000000;stroke-width:0.5" />
<path d="M60.305,36.263L720,36.263" style="fill:none;stroke:#000000;stroke-width:0.5" />
<g transform="rotate(90)">
<text x="152.55" y="11.555" transform="scale(1, -1)"
	style="font-family:Times;font-weight:normal;font-style:normal;font-size:12px">Number of trials (1000000 total)</text>
</g>
<text x="19.055" y="-110.04" transform="scale(1, -1)"
	style="font-family:Times;font-weight:normal;font-style:normal;font-size:10px">10000</text>
<text x="19.055" y="-246.24" transform="scale(1, -1)"
	style="font-family:Times;font-weight:normal;font-style:normal;font-size:10px">30000</text>
<text x="19.055" y="-382.45" transform="scale(1, -1)"
	style="font-family:Times;font-weight:normal;font-style:normal;font-size:10px">50000</text>
<path d="M46.555,113.25L54.555,113.25" style="fill:none;stroke:#000000;stroke-width:0.5" />
<path d="M46.555,249.45L54.555,249.45" style="fill:none;stroke:#000000;stroke-width:0.5" />
<path d="M46.555,385.65L54.555,385.65" style="fill:none;stroke:#000000;stroke-width:0.5" />
<path d="M50.555,181.35L54.555,181.35" style="fill:none;stroke:#000000;stroke-width:0.5" />
<path d="M50.555,317.55L54.555,317.55" style="fill:none;stroke:#000000;stroke-width:0.5" />
<path d="M54.555,45.151L54.555,416.58" style="fill:none;stroke:#000000;stroke-width:0.5" />
<path d="M60.305,416.58L86.372,68.04L87.374,92.278L88.377,66.154L91.385,90.092L92.387,59.146L93.39,55.646L94.392,127.98L95.395,81.817L96.397,51.859L97.4,73.931L98.403,62.946L99.405,88.219L100.41,63.294L101.41,71.861L102.41,91.522L103.42,113.69L104.42,110.92L105.42,74.183L106.42,77.227L108.43,52.023L109.43,120.34L110.43,102.7L113.44,96.336L114.44,99.319L115.45,47.889L116.45,92.993L117.45,57.75L118.45,58.295L119.46,104.13L120.46,73.114L121.46,86.755L122.46,63.389L123.47,51.56L124.47,51.635L125.47,62.19L126.47,60.025L127.48,55.939L128.48,62.667L129.48,68.006L130.49,68.401L131.49,70.703L132.49,66.678L133.49,80.496L134.5,74.251L135.5,71.915L136.5,82.689L137.5,87.054L138.51,76.676L139.51,71.629L140.51,89.635L141.51,105.71L142.52,73.536L143.52,88.362L144.52,90.779L145.52,83.091L146.53,80.707L147.53,99.823L148.53,94.436L149.53,79.311L150.54,83.663L151.54,82.069L152.54,87.64L153.54,98.809L154.55,84.861L155.55,84.95L156.55,82.832L157.55,79.992L158.56,84.432L159.56,88.968L160.56,79.767L161.56,71.677L162.57,84.371L163.57,91.304L164.57,80.387L165.58,80.591L166.58,73.488L167.58,75.647L168.58,78.378L169.59,79.284L170.59,78.582L171.59,72.276L172.59,77.227L173.6,75.961L174.6,76.757L175.6,86.441L176.6,75.702L177.61,75.416L178.61,75.926L179.61,78.235L180.61,79.291L181.62,76.934L182.62,77.03L183.62,79.536L184.62,79.488L185.63,79.052L186.63,81.47L187.63,81.531L188.63,77.05L189.64,79.951L190.64,86.373L191.64,82.028L192.64,79.706L193.65,81.661L194.65,83.67L195.65,80.421L196.66,82.096L197.66,84.827L198.66,78.998L199.66,78.317L200.67,79.965L201.67,79.801L202.67,81.061L203.67,79.57L204.68,76.812L205.68,74.912L206.68,78.024L207.68,77.704L208.69,76.744L209.69,76.499L210.69,73.659L211.69,74.449L212.7,76.301L213.7,75.13L214.7,75.062L215.7,72.372L216.71,72.984L217.71,73.202L218.71,73.693L219.71,72.869L220.72,70.941L221.72,72.378L222.72,71.983L223.72,72.528L224.73,72.576L225.73,72.562L226.73,71.636L227.73,70.111L228.74,72.555L229.74,71.323L230.74,70.805L231.75,70.097L232.75,69.77L233.75,71.466L234.75,71.391L235.76,70.417L236.76,71.091L237.76,69.518L238.76,69.886L239.77,69.859L240.77,70.696L241.77,68.612L242.77,69.13L243.78,68.858L244.78,68.721L245.78,67.543L246.78,68.851L247.79,67.407L248.79,67.543L249.79,67.23L250.79,67.455L251.8,66.494L252.8,66.494L253.8,65.507L254.8,65.868L255.81,65.691L256.81,65.493L257.81,65.078L258.81,64.662L259.82,63.675L260.82,63.525L261.82,63.559L262.83,63.464L263.83,62.933L264.83,62.211L265.83,62.381L266.84,62.061L267.84,62.088L268.84,61.884L269.84,61.366L270.85,61.339L271.85,61.21L272.85,60.924L273.85,60.427L274.86,60.944L275.86,60.549L276.86,60.059L277.86,59.889L278.87,60.018L279.87,59.95L280.87,59.759L281.87,59.344L282.88,59.071L283.88,59.868L284.88,58.867L285.88,58.574L286.89,58.513L287.89,58.452L288.89,58.322L289.89,57.852L290.9,57.743L291.9,57.41L292.9,57.13L293.91,57.6L294.91,56.538L295.91,56.606L296.91,57.117L297.92,56.477L298.92,56.054L299.92,56.279L300.92,55.101L301.93,55.38L302.93,55.687L303.93,55.796L304.93,55.23L305.94,54.699L306.94,54.563L307.94,54.379L308.94,54.257L309.95,53.991L310.95,53.95L311.95,54.379L312.95,53.569L313.96,53.412L314.96,53.902L315.96,53.14L316.96,52.874L317.97,53.358L318.97,53.371L319.97,52.547L320.97,53.038L321.98,52.54L322.98,52.411L323.98,52.295L324.98,52.016L325.99,51.75L326.99,51.75L327.99,51.934L329,51.88L330,51.628L331,51.689L332,51.662L333.01,51.097L334.01,51.43L335.01,51.131L336.01,50.77L337.02,50.491L338.02,50.456L339.02,50.634L340.02,50.627L341.03,50.293L342.03,50.586L343.03,50.027L344.03,50.164L345.04,49.51L346.04,49.612L347.04,49.735L348.04,49.844L349.05,49.442L350.05,49.34L351.05,49.272L352.05,49.156L353.06,49.237L354.06,49.258L355.06,48.713L356.06,49.203L357.07,48.693L358.07,48.55L359.07,48.815L360.08,48.74L361.08,48.706L362.08,48.577L363.08,48.168L364.09,48.379L365.09,48.42L366.09,48.025L367.09,48.182L368.1,48.025L369.1,48.025L370.1,48.018L371.1,47.617L372.11,48.08L373.11,47.807L374.11,47.651L375.11,47.766L376.12,47.651L377.12,47.732L378.12,47.365L379.12,47.589L380.13,47.467L381.13,47.46L382.13,47.29L383.13,47.181L384.14,47.419L385.14,47.337L386.14,46.854L387.14,47.154L388.15,46.976L389.15,46.99L390.15,47.079L391.15,46.854L392.16,46.922L393.16,46.793L394.16,46.745L395.17,46.684L396.17,46.643L397.17,46.752L398.17,46.643L399.18,46.513L400.18,46.547L401.18,46.513L402.18,46.547L403.19,46.554L404.19,46.575L405.19,46.336L406.19,46.459L407.2,46.261L408.2,46.309L409.2,46.336L410.2,46.132L411.21,46.146L412.21,46.268L413.21,46.166L414.21,46.125L415.22,46.139L416.22,46.2L417.22,46.227L418.22,46.248L419.23,46.064L420.23,46.18L421.23,46.064L422.23,45.955L423.24,45.948L424.24,45.935L425.24,45.935L426.25,45.819L427.25,45.907L428.25,45.819L429.25,45.907L430.26,45.826L431.26,45.785L432.26,45.812L433.26,45.785L434.27,45.798L435.27,45.894L436.27,45.785L437.27,45.744L438.28,45.574L439.28,45.71L440.28,45.689L441.28,45.608L442.29,45.58L443.29,45.71L444.29,45.608L445.29,45.58L446.3,45.546L447.3,45.621L448.3,45.56L449.3,45.601L450.31,45.54L451.31,45.628L452.31,45.505L453.31,45.54L454.32,45.58L455.32,45.41L456.32,45.499L457.32,45.485L458.33,45.424L459.33,45.478L460.33,45.553L461.34,45.465L462.34,45.478L463.34,45.431L464.34,45.458L465.35,45.437L466.35,45.349L467.35,45.342L468.35,45.362L469.36,45.451L470.36,45.328L471.36,45.335L472.36,45.342L473.37,45.356L474.37,45.376L475.37,45.335L476.37,45.376L477.38,45.403L478.38,45.383L479.38,45.308L480.38,45.397L481.39,45.294L482.39,45.301L483.39,45.349L484.39,45.274L485.4,45.315L486.4,45.281L487.4,45.247L488.4,45.281L489.41,45.294L490.41,45.281L491.41,45.26L492.42,45.219L493.42,45.281L494.42,45.254L495.42,45.267L496.43,45.233L497.43,45.26L498.43,45.233L499.43,45.24L500.44,45.254L501.44,45.233L502.44,45.226L503.44,45.24L504.45,45.254L505.45,45.233L506.45,45.233L507.45,45.267L508.46,45.199L509.46,45.219L510.46,45.192L511.46,45.226L512.47,45.206L513.47,45.24L514.47,45.213L515.47,45.192L516.48,45.206L517.48,45.192L518.48,45.226L519.48,45.206L520.49,45.226L521.49,45.165L522.49,45.185L523.5,45.199L524.5,45.179L525.5,45.219L526.5,45.179L527.51,45.185L528.51,45.206L529.51,45.185L530.51,45.213L531.52,45.172L532.52,45.158L533.52,45.172L534.52,45.179L535.53,45.199L536.53,45.199L537.53,45.206L538.53,45.165L539.54,45.192L540.54,45.151L541.54,45.192L542.54,45.172L543.55,45.172L545.55,45.165L546.55,45.165L547.56,45.172L548.56,45.179L549.56,45.158L550.56,45.172L551.57,45.158L552.57,45.179L553.57,45.192L554.57,45.151L555.58,45.165L556.58,45.179L557.58,45.165L558.59,45.151L560.59,45.151L562.6,45.172L563.6,45.158L565.6,45.158L566.61,45.165L567.61,45.158L569.61,45.151L570.62,45.165L571.62,45.158L573.62,45.151L574.63,45.165L575.63,45.172L576.63,45.165L577.63,45.151L579.64,45.158L580.64,45.151L582.65,45.151L583.65,45.151L585.65,45.158L586.66,45.151L587.66,45.151L589.67,45.151L591.67,45.151L592.67,45.165L593.68,45.151L596.68,45.158L598.69,45.158L600.69,45.151L606.71,45.151L610.72,45.165L611.72,45.151L614.73,45.151L620.74,45.151L639.79,45.151L649.82,45.151L720,45.151" style="fill:none;stroke:#0000FF" />
</g>
</svg>
