<?xml version="1.0"?>
<!-- Generated by SVGo and Plotinum VG -->
<svg width="720pt" height="432pt" viewBox="0 0 720 432"
	xmlns="http://www.w3.org/2000/svg"
	xmlns:xlink="http://www.w3.org/1999/xlink">
<g transform="scale(1, -1) translate(0, -432)">
<path d="M0,0L720,0L720,432L0,432Z" style="fill:#FFFFFF" />
<text x="358.5" y="-420.45" transform="scale(1, -1)"
	style="font-family:Times;font-weight:normal;font-style:normal;font-size:12px"> </text>
<text x="379.31" y="-3.8613" transform="scale(1, -1)"
	style="font-family:Times;font-weight:normal;font-style:normal;font-size:12px">Costs</text>
<text x="62.805" y="-18.634" transform="scale(1, -1)"
	style="font-family:Times;font-weight:normal;font-style:normal;font-size:10px">0</text>
<text x="334.63" y="-18.634" transform="scale(1, -1)"
	style="font-family:Times;font-weight:normal;font-style:normal;font-size:10px">200</text>
<text x="611.46" y="-18.634" transform="scale(1, -1)"
	style="font-family:Times;font-weight:normal;font-style:normal;font-size:10px">400</text>
<path d="M65.305,28.263L65.305,36.263" style="fill:none;stroke:#000000;stroke-width:0.5" />
<path d="M342.13,28.263L342.13,36.263" style="fill:none;stroke:#000000;stroke-width:0.5" />
<path d="M618.96,28.263L618.96,36.263" style="fill:none;stroke:#000000;stroke-width:0.5" />
<path d="M203.72,32.263L203.72,36.263" style="fill:none;stroke:#000000;stroke-width:0.5" />
<path d="M480.54,32.263L480.54,36.263" style="fill:none;stroke:#000000;stroke-width:0.5" />
<path d="M65.305,36.263L720,36.263" style="fill:none;stroke:#000000;stroke-width:0.5" />
<g transform="rotate(90)">
<text x="152.55" y="11.555" transform="scale(1, -1)"
	style="font-family:Times;font-weight:normal;font-style:normal;font-size:12px">Number of trials (1000000 total)</text>
</g>
<text x="24.055" y="-109.65" transform="scale(1, -1)"
	style="font-family:Times;font-weight:normal;font-style:normal;font-size:10px">30000</text>
<text x="24.055" y="-245.05" transform="scale(1, -1)"
	style="font-family:Times;font-weight:normal;font-style:normal;font-size:10px">90000</text>
<text x="19.055" y="-380.45" transform="scale(1, -1)"
	style="font-family:Times;font-weight:normal;font-style:normal;font-size:10px">150000</text>
<path d="M51.555,112.85L59.555,112.85" style="fill:none;stroke:#000000;stroke-width:0.5" />
<path d="M51.555,248.25L59.555,248.25" style="fill:none;stroke:#000000;stroke-width:0.5" />
<path d="M51.555,383.66L59.555,383.66" style="fill:none;stroke:#000000;stroke-width:0.5" />
<path d="M55.555,180.55L59.555,180.55" style="fill:none;stroke:#000000;stroke-width:0.5" />
<path d="M55.555,315.96L59.555,315.96" style="fill:none;stroke:#000000;stroke-width:0.5" />
<path d="M59.555,45.151L59.555,416.58" style="fill:none;stroke:#000000;stroke-width:0.5" />
<path d="M65.305,416.58L98.524,48.661L101.29,55.275L102.68,90.548L104.06,70.23L105.44,66.538L106.83,48.676L108.21,48.645L109.6,55.695L110.98,59.306L112.37,78.476L113.75,52.1L116.52,93.942L117.9,55.528L119.29,67.676L120.67,51.732L122.05,59.572L123.44,51.987L124.82,134.77L126.21,100.47L127.59,62.846L128.97,48.448L131.74,52.344L133.13,52.134L134.51,55.623L135.9,60.066L137.28,45.449L138.66,72.155L140.05,50.037L141.43,56.011L142.82,52.034L144.2,50.757L145.58,46.609L146.97,73.196L148.35,48.636L149.74,61.781L151.12,52.524L152.51,87.916L153.89,51.976L155.27,51.163L156.66,52.35L158.04,51.026L159.43,50.687L160.81,52.204L162.19,61.565L163.58,63.747L164.96,59.163L166.35,53.291L167.73,54.09L169.11,52.788L170.5,55.717L171.88,123.92L173.27,57.342L174.65,52.084L176.04,84.367L177.42,57.911L178.8,58.692L180.19,54.56L181.57,53.982L182.96,54.239L184.34,57.665L185.72,66.087L187.11,58.428L188.49,54.083L189.88,56.997L191.26,53.368L192.65,55.456L194.03,53.801L195.41,55.029L196.8,52.052L198.18,59.236L199.57,55.884L200.95,54.648L202.33,51.4L203.72,55.763L205.1,51.319L206.49,56.884L207.87,55.476L209.25,63.099L210.64,56.548L212.02,63.523L213.41,58.236L214.79,54.248L216.18,54.02L217.56,53.1L218.94,55.799L220.33,53.289L221.71,51.75L223.1,63.907L224.48,53.494L225.86,56.557L227.25,54.345L228.63,53.896L230.02,52.565L231.4,66.046L232.78,61.389L234.17,55.873L235.55,56.248L236.94,55.537L238.32,53.025L239.71,51.563L241.09,51.77L242.47,52.734L243.86,50.87L245.24,56.045L246.63,52.52L248.01,51.741L249.39,53.652L250.78,51.588L252.16,51.066L253.55,54.783L254.93,50.807L256.32,52.409L257.7,52.75L259.08,57.678L260.47,52.037L261.85,50.355L263.24,53.592L264.62,50.301L266,50.744L267.39,50.721L268.77,51.829L270.16,52.177L271.54,51.813L272.92,51.565L274.31,51.195L275.69,50.229L277.08,50.322L278.46,50.845L279.85,50.552L281.23,49.787L282.61,55.76L284,50.732L285.38,50.577L286.77,50.218L288.15,50.035L289.53,49.757L290.92,50.261L292.3,51.54L293.69,50.437L295.07,49.766L296.46,50.735L297.84,49.52L299.22,49.261L300.61,49.042L301.99,49.252L303.38,48.823L304.76,49.832L306.14,49.401L307.53,49.051L308.91,48.839L310.3,49.493L311.68,48.582L313.06,49.11L314.45,48.749L315.83,48.679L317.22,48.378L318.6,49.581L319.99,49.604L321.37,48.426L322.75,48.575L324.14,48.076L325.52,47.801L326.91,47.911L328.29,47.796L329.67,48.388L331.06,47.823L332.44,47.864L333.83,48.058L335.21,47.528L336.59,47.582L337.98,47.625L339.36,47.553L340.75,47.613L342.13,48.318L343.52,48.209L344.9,47.577L346.28,47.085L347.67,47.099L349.05,47.04L350.44,47.155L351.82,47.167L353.2,47.239L354.59,47.002L355.97,47.471L357.36,47.094L358.74,47.004L360.13,46.876L361.51,46.934L362.89,46.819L364.28,46.973L365.66,46.839L367.05,46.821L368.43,46.469L369.81,47.074L371.2,46.557L372.58,46.548L373.97,46.609L375.35,46.467L376.73,46.386L378.12,46.503L379.5,46.548L380.89,46.542L382.27,46.356L383.66,46.266L385.04,46.219L386.42,46.259L387.81,46.117L389.19,46.25L390.58,46.11L391.96,46.189L393.34,46.318L394.73,46.147L396.11,46.122L397.5,45.993L398.88,45.993L400.27,45.989L401.65,45.989L403.03,46.083L404.42,46.007L405.8,45.876L407.19,45.937L408.57,45.946L409.95,45.831L411.34,45.896L412.72,45.763L414.11,45.815L415.49,45.817L416.87,45.826L418.26,45.788L419.64,45.664L421.03,45.736L422.41,45.695L423.8,45.725L425.18,45.675L426.56,45.65L427.95,45.65L429.33,45.7L430.72,45.7L432.1,45.63L433.48,45.562L434.87,45.567L436.25,45.512L437.64,45.567L439.02,45.562L440.4,45.603L441.79,45.515L443.17,45.544L444.56,45.526L445.94,45.479L447.33,45.463L448.71,45.474L450.09,45.474L451.48,45.474L452.86,45.42L454.25,45.429L455.63,45.485L457.01,45.427L458.4,45.377L459.78,45.404L461.17,45.388L462.55,45.411L463.94,45.427L465.32,45.348L466.7,45.438L468.09,45.379L469.47,45.354L470.86,45.345L472.24,45.339L473.62,45.334L475.01,45.33L476.39,45.33L477.78,45.309L479.16,45.339L480.54,45.325L481.93,45.309L483.31,45.296L484.7,45.287L486.08,45.298L487.47,45.275L488.85,45.3L490.23,45.309L491.62,45.269L493,45.257L494.39,45.262L495.77,45.242L497.15,45.266L498.54,45.251L499.92,45.287L501.31,45.253L502.69,45.253L504.08,45.235L505.46,45.244L506.84,45.248L508.23,45.221L509.61,45.239L511,45.248L512.38,45.203L513.76,45.206L515.15,45.212L516.53,45.219L517.92,45.203L519.3,45.206L520.68,45.21L522.07,45.201L523.45,45.208L524.84,45.21L526.22,45.212L527.61,45.215L528.99,45.208L530.37,45.217L531.76,45.199L533.14,45.201L534.53,45.194L535.91,45.194L537.29,45.178L538.68,45.19L540.06,45.185L541.45,45.199L542.83,45.176L544.22,45.183L545.6,45.183L546.98,45.192L548.37,45.181L549.75,45.176L551.14,45.176L552.52,45.178L553.9,45.187L555.29,45.169L556.67,45.165L558.06,45.174L559.44,45.178L560.82,45.178L562.21,45.167L563.59,45.163L564.98,45.169L566.36,45.169L567.75,45.163L569.13,45.156L570.51,45.167L571.9,45.163L573.28,45.176L574.67,45.163L576.05,45.158L577.43,45.172L578.82,45.163L580.2,45.165L581.59,45.181L582.97,45.163L584.35,45.163L585.74,45.167L587.12,45.163L588.51,45.151L589.89,45.156L591.28,45.154L592.66,45.156L594.04,45.16L595.43,45.16L596.81,45.156L598.2,45.156L599.58,45.154L600.96,45.165L602.35,45.158L603.73,45.156L605.12,45.156L606.5,45.158L607.89,45.165L609.27,45.16L610.65,45.151L612.04,45.154L613.42,45.154L614.81,45.151L616.19,45.151L617.57,45.151L618.96,45.154L620.34,45.151L621.73,45.156L623.11,45.158L624.49,45.154L628.65,45.151L630.03,45.154L631.42,45.156L634.18,45.151L635.57,45.151L638.34,45.156L639.72,45.151L641.1,45.154L643.87,45.151L645.26,45.154L646.64,45.151L648.03,45.151L652.18,45.151L657.71,45.151L659.1,45.151L666.02,45.151L670.17,45.151L671.56,45.154L672.94,45.154L675.71,45.154L682.63,45.151L684.01,45.151L689.55,45.151L696.47,45.151L706.16,45.151L720,45.151" style="fill:none;stroke:#0000FF" />
</g>
</svg>
