<?xml version="1.0"?>
<!-- Generated by SVGo and Plotinum VG -->
<svg width="720pt" height="432pt" viewBox="0 0 720 432"
	xmlns="http://www.w3.org/2000/svg"
	xmlns:xlink="http://www.w3.org/1999/xlink">
<g transform="scale(1, -1) translate(0, -432)">
<path d="M0,0L720,0L720,432L0,432Z" style="fill:#FFFFFF" />
<text x="358.5" y="-420.45" transform="scale(1, -1)"
	style="font-family:Times;font-weight:normal;font-style:normal;font-size:12px"> </text>
<text x="379.31" y="-3.8613" transform="scale(1, -1)"
	style="font-family:Times;font-weight:normal;font-style:normal;font-size:12px">Costs</text>
<text x="56.555" y="-18.634" transform="scale(1, -1)"
	style="font-family:Times;font-weight:normal;font-style:normal;font-size:10px">0.00</text>
<text x="366.31" y="-18.634" transform="scale(1, -1)"
	style="font-family:Times;font-weight:normal;font-style:normal;font-size:10px">250.00</text>
<text x="681.07" y="-18.634" transform="scale(1, -1)"
	style="font-family:Times;font-weight:normal;font-style:normal;font-size:10px">500.00</text>
<path d="M65.305,28.263L65.305,36.263" style="fill:none;stroke:#000000;stroke-width:0.5" />
<path d="M380.06,28.263L380.06,36.263" style="fill:none;stroke:#000000;stroke-width:0.5" />
<path d="M694.82,28.263L694.82,36.263" style="fill:none;stroke:#000000;stroke-width:0.5" />
<path d="M128.26,32.263L128.26,36.263" style="fill:none;stroke:#000000;stroke-width:0.5" />
<path d="M191.21,32.263L191.21,36.263" style="fill:none;stroke:#000000;stroke-width:0.5" />
<path d="M254.16,32.263L254.16,36.263" style="fill:none;stroke:#000000;stroke-width:0.5" />
<path d="M317.11,32.263L317.11,36.263" style="fill:none;stroke:#000000;stroke-width:0.5" />
<path d="M443.01,32.263L443.01,36.263" style="fill:none;stroke:#000000;stroke-width:0.5" />
<path d="M505.96,32.263L505.96,36.263" style="fill:none;stroke:#000000;stroke-width:0.5" />
<path d="M568.92,32.263L568.92,36.263" style="fill:none;stroke:#000000;stroke-width:0.5" />
<path d="M631.87,32.263L631.87,36.263" style="fill:none;stroke:#000000;stroke-width:0.5" />
<path d="M65.305,36.263L720,36.263" style="fill:none;stroke:#000000;stroke-width:0.5" />
<g transform="rotate(90)">
<text x="151.82" y="11.555" transform="scale(1, -1)"
	style="font-family:Times;font-weight:normal;font-style:normal;font-size:12px">Number of trials (1000000 total)</text>
</g>
<text x="24.055" y="-94.088" transform="scale(1, -1)"
	style="font-family:Times;font-weight:normal;font-style:normal;font-size:10px">20000</text>
<text x="24.055" y="-250.52" transform="scale(1, -1)"
	style="font-family:Times;font-weight:normal;font-style:normal;font-size:10px">80000</text>
<text x="19.055" y="-406.96" transform="scale(1, -1)"
	style="font-family:Times;font-weight:normal;font-style:normal;font-size:10px">140000</text>
<path d="M51.555,97.293L59.555,97.293" style="fill:none;stroke:#000000;stroke-width:0.5" />
<path d="M51.555,253.73L59.555,253.73" style="fill:none;stroke:#000000;stroke-width:0.5" />
<path d="M51.555,410.16L59.555,410.16" style="fill:none;stroke:#000000;stroke-width:0.5" />
<path d="M55.555,175.51L59.555,175.51" style="fill:none;stroke:#000000;stroke-width:0.5" />
<path d="M55.555,331.94L59.555,331.94" style="fill:none;stroke:#000000;stroke-width:0.5" />
<path d="M59.555,45.151L59.555,415.11" style="fill:none;stroke:#000000;stroke-width:0.5" />
<path d="M65.305,415.11L93.003,58.933L94.262,52.22L98.039,96.834L99.298,52.016L100.56,77.137L101.82,48.457L104.33,48.481L105.59,48.494L106.85,78.594L108.11,72.634L109.37,77.095L110.63,76.936L111.89,55.713L113.15,74.905L114.41,92.379L115.67,62.07L116.92,62.536L118.18,51.993L119.44,62.448L120.7,83.783L121.96,45.402L123.22,62.761L125.74,77.121L127,83.05L128.26,53.351L129.52,45.798L130.77,46.963L132.03,102.56L133.29,59.903L134.55,51.109L135.81,65.485L137.07,58.161L138.33,57.64L139.59,64.792L140.85,58.388L142.11,65.668L143.36,54.527L144.62,68.301L145.88,53.189L147.14,54.579L148.4,53.617L149.66,77.278L150.92,52.929L152.18,55.382L153.44,57.614L154.7,69.599L155.95,60.401L157.21,61.624L158.47,59.658L159.73,61.248L160.99,57.773L162.25,71.198L163.51,55.416L164.77,64.419L166.03,64.072L167.29,63.12L168.55,63.175L169.8,60.557L171.06,59.614L172.32,59.455L173.58,59.264L174.84,63.983L176.1,61.853L177.36,63.162L178.62,56.488L179.88,58.662L181.14,64.421L182.39,62.881L183.65,58.957L184.91,59.019L186.17,57.773L187.43,64.935L188.69,56.219L189.95,59.637L191.21,56.866L192.47,60.005L193.73,62.729L194.98,58.748L196.24,55.726L197.5,58.195L198.76,61.514L200.02,59.843L201.28,55.846L202.54,58.62L203.8,58.143L205.06,58.448L206.32,57.799L207.58,57.069L208.83,56.355L210.09,58.25L211.35,59.919L212.61,56.378L213.87,54.425L215.13,56.477L216.39,59.517L217.65,56.701L218.91,54.665L220.17,56.235L221.42,56.811L222.68,56.321L223.94,56.574L225.2,55.155L226.46,55.768L227.72,54.827L228.98,57.452L230.24,54.256L231.5,54.483L232.76,55.168L234.01,54.863L235.27,54.05L236.53,54.733L237.79,54.052L239.05,55.061L240.31,53.419L241.57,54.608L242.83,54.251L244.09,53.763L245.35,53.382L246.6,54.185L247.86,53.226L249.12,53.651L250.38,53.189L251.64,53.419L252.9,52.491L254.16,53.435L255.42,52.423L256.68,52.788L257.94,52.293L259.2,52.399L260.45,52.645L261.71,52.303L262.97,51.789L264.23,51.99L265.49,52.014L266.75,52.045L268.01,51.312L269.27,51.336L270.53,51.763L271.79,51.753L273.04,51.088L274.3,51.312L275.56,50.47L276.82,51.049L278.08,50.856L279.34,50.47L280.6,50.04L281.86,50.29L283.12,50.548L284.38,50.642L285.63,49.711L286.89,50.102L288.15,49.928L289.41,49.972L290.67,49.644L291.93,49.594L293.19,49.498L294.45,49.524L295.71,49.667L296.97,49.177L298.23,49.065L299.48,49.404L300.74,49.425L302,49.078L303.26,48.809L304.52,48.801L305.78,48.961L307.04,48.728L308.3,48.705L309.56,48.718L310.82,48.559L312.07,48.429L313.33,48.564L314.59,48.304L315.85,48.348L317.11,48.335L318.37,48.152L319.63,48.017L320.89,48.095L322.15,48.001L323.41,47.985L324.66,47.993L325.92,47.787L327.18,47.871L328.44,47.712L329.7,47.524L330.96,47.646L332.22,47.527L333.48,47.693L334.74,47.391L336,47.354L337.26,47.433L338.51,47.216L339.77,47.154L341.03,47.229L342.29,47.154L343.55,47.094L344.81,47.115L346.07,47.086L347.33,46.896L348.59,47.031L349.85,46.81L351.1,46.906L352.36,46.75L353.62,46.739L354.88,46.588L356.14,46.658L357.4,46.637L358.66,46.656L359.92,46.591L361.18,46.69L362.44,46.484L363.69,46.505L364.95,46.299L366.21,46.411L367.47,46.296L368.73,46.332L369.99,46.317L371.25,46.306L372.51,46.309L373.77,46.254L375.03,46.267L376.28,46.233L377.54,46.163L378.8,46.121L380.06,46.087L381.32,46.124L382.58,46.077L383.84,46.059L385.1,46.064L386.36,46.025L387.62,45.962L388.88,45.915L390.13,45.894L391.39,45.85L392.65,45.936L393.91,45.897L395.17,45.887L396.43,45.91L397.69,45.845L398.95,45.913L400.21,45.764L401.47,45.777L402.72,45.743L403.98,45.694L405.24,45.72L406.5,45.72L407.76,45.683L409.02,45.647L410.28,45.673L411.54,45.639L412.8,45.582L414.06,45.631L415.31,45.642L416.57,45.602L417.83,45.561L419.09,45.579L420.35,45.509L421.61,45.522L422.87,45.548L424.13,45.587L425.39,45.553L426.65,45.519L427.91,45.475L429.16,45.493L430.42,45.469L431.68,45.493L432.94,45.436L434.2,45.48L435.46,45.446L436.72,45.438L437.98,45.467L439.24,45.415L440.5,45.391L441.75,45.415L443.01,45.415L444.27,45.386L445.53,45.378L446.79,45.386L448.05,45.417L449.31,45.357L450.57,45.365L451.83,45.313L453.09,45.355L454.34,45.352L455.6,45.336L456.86,45.334L458.12,45.329L459.38,45.313L460.64,45.282L461.9,45.31L463.16,45.284L464.42,45.321L465.68,45.263L466.94,45.292L468.19,45.263L469.45,45.295L470.71,45.274L471.97,45.282L473.23,45.303L474.49,45.227L475.75,45.271L477.01,45.277L478.27,45.245L479.53,45.271L480.78,45.253L482.04,45.261L483.3,45.24L484.56,45.256L485.82,45.23L487.08,45.23L488.34,45.224L489.6,45.243L490.86,45.224L492.12,45.217L493.37,45.23L494.63,45.214L495.89,45.198L497.15,45.227L498.41,45.198L499.67,45.224L500.93,45.198L502.19,45.217L503.45,45.206L504.71,45.232L505.96,45.201L507.22,45.206L508.48,45.204L509.74,45.188L511,45.206L512.26,45.19L513.52,45.201L514.78,45.183L516.04,45.188L517.3,45.209L518.56,45.17L519.81,45.183L521.07,45.196L522.33,45.19L523.59,45.19L524.85,45.177L526.11,45.17L527.37,45.19L528.63,45.18L529.89,45.172L531.15,45.17L532.4,45.167L533.66,45.18L534.92,45.172L536.18,45.164L537.44,45.167L538.7,45.162L539.96,45.175L541.22,45.157L542.48,45.162L543.74,45.183L544.99,45.167L546.25,45.167L547.51,45.162L548.77,45.159L550.03,45.18L551.29,45.18L552.55,45.167L553.81,45.159L555.07,45.18L556.33,45.162L557.59,45.157L558.84,45.162L560.1,45.167L561.36,45.157L562.62,45.159L563.88,45.157L565.14,45.164L566.4,45.167L567.66,45.157L568.92,45.159L570.18,45.157L571.43,45.167L572.69,45.17L573.95,45.157L575.21,45.162L576.47,45.154L577.73,45.157L578.99,45.157L580.25,45.157L581.51,45.164L582.77,45.164L584.02,45.154L585.28,45.157L586.54,45.151L587.8,45.151L589.06,45.151L590.32,45.151L591.58,45.159L592.84,45.151L594.1,45.164L595.36,45.154L596.62,45.159L597.87,45.154L599.13,45.154L600.39,45.154L601.65,45.151L602.91,45.159L604.17,45.154L605.43,45.151L607.95,45.151L609.21,45.154L610.46,45.154L612.98,45.151L614.24,45.151L619.28,45.151L621.8,45.151L624.31,45.151L625.57,45.151L626.83,45.151L628.09,45.151L629.35,45.151L630.61,45.157L631.87,45.154L635.65,45.154L638.16,45.151L639.42,45.151L645.72,45.151L648.24,45.151L652.01,45.151L663.34,45.151L669.64,45.151L672.16,45.151L677.19,45.151L703.63,45.151L720,45.151" style="fill:none;stroke:#0000FF" />
</g>
</svg>
