<?xml version="1.0"?>
<!-- Generated by SVGo and Plotinum VG -->
<svg width="720pt" height="432pt" viewBox="0 0 720 432"
	xmlns="http://www.w3.org/2000/svg"
	xmlns:xlink="http://www.w3.org/1999/xlink">
<g transform="scale(1, -1) translate(0, -432)">
<path d="M0,0L720,0L720,432L0,432Z" style="fill:#FFFFFF" />
<text x="358.5" y="-420.45" transform="scale(1, -1)"
	style="font-family:Times;font-weight:normal;font-style:normal;font-size:12px"> </text>
<text x="379.31" y="-3.8613" transform="scale(1, -1)"
	style="font-family:Times;font-weight:normal;font-style:normal;font-size:12px">Costs</text>
<text x="56.555" y="-18.634" transform="scale(1, -1)"
	style="font-family:Times;font-weight:normal;font-style:normal;font-size:10px">0.00</text>
<text x="369.99" y="-18.634" transform="scale(1, -1)"
	style="font-family:Times;font-weight:normal;font-style:normal;font-size:10px">250.00</text>
<text x="688.42" y="-18.634" transform="scale(1, -1)"
	style="font-family:Times;font-weight:normal;font-style:normal;font-size:10px">500.00</text>
<path d="M65.305,28.263L65.305,36.263" style="fill:none;stroke:#000000;stroke-width:0.5" />
<path d="M383.74,28.263L383.74,36.263" style="fill:none;stroke:#000000;stroke-width:0.5" />
<path d="M702.17,28.263L702.17,36.263" style="fill:none;stroke:#000000;stroke-width:0.5" />
<path d="M128.99,32.263L128.99,36.263" style="fill:none;stroke:#000000;stroke-width:0.5" />
<path d="M192.68,32.263L192.68,36.263" style="fill:none;stroke:#000000;stroke-width:0.5" />
<path d="M256.36,32.263L256.36,36.263" style="fill:none;stroke:#000000;stroke-width:0.5" />
<path d="M320.05,32.263L320.05,36.263" style="fill:none;stroke:#000000;stroke-width:0.5" />
<path d="M447.42,32.263L447.42,36.263" style="fill:none;stroke:#000000;stroke-width:0.5" />
<path d="M511.11,32.263L511.11,36.263" style="fill:none;stroke:#000000;stroke-width:0.5" />
<path d="M574.8,32.263L574.8,36.263" style="fill:none;stroke:#000000;stroke-width:0.5" />
<path d="M638.48,32.263L638.48,36.263" style="fill:none;stroke:#000000;stroke-width:0.5" />
<path d="M65.305,36.263L720,36.263" style="fill:none;stroke:#000000;stroke-width:0.5" />
<g transform="rotate(90)">
<text x="152.55" y="11.555" transform="scale(1, -1)"
	style="font-family:Times;font-weight:normal;font-style:normal;font-size:12px">Number of trials (1000000 total)</text>
</g>
<text x="24.055" y="-113.48" transform="scale(1, -1)"
	style="font-family:Times;font-weight:normal;font-style:normal;font-size:10px">20000</text>
<text x="24.055" y="-256.55" transform="scale(1, -1)"
	style="font-family:Times;font-weight:normal;font-style:normal;font-size:10px">60000</text>
<text x="19.055" y="-399.62" transform="scale(1, -1)"
	style="font-family:Times;font-weight:normal;font-style:normal;font-size:10px">100000</text>
<path d="M51.555,116.68L59.555,116.68" style="fill:none;stroke:#000000;stroke-width:0.5" />
<path d="M51.555,259.75L59.555,259.75" style="fill:none;stroke:#000000;stroke-width:0.5" />
<path d="M51.555,402.82L59.555,402.82" style="fill:none;stroke:#000000;stroke-width:0.5" />
<path d="M55.555,80.915L59.555,80.915" style="fill:none;stroke:#000000;stroke-width:0.5" />
<path d="M55.555,152.45L59.555,152.45" style="fill:none;stroke:#000000;stroke-width:0.5" />
<path d="M55.555,188.22L59.555,188.22" style="fill:none;stroke:#000000;stroke-width:0.5" />
<path d="M55.555,223.99L59.555,223.99" style="fill:none;stroke:#000000;stroke-width:0.5" />
<path d="M55.555,295.52L59.555,295.52" style="fill:none;stroke:#000000;stroke-width:0.5" />
<path d="M55.555,331.29L59.555,331.29" style="fill:none;stroke:#000000;stroke-width:0.5" />
<path d="M55.555,367.06L59.555,367.06" style="fill:none;stroke:#000000;stroke-width:0.5" />
<path d="M59.555,45.151L59.555,416.58" style="fill:none;stroke:#000000;stroke-width:0.5" />
<path d="M65.305,416.58L93.327,48.574L94.6,48.406L98.422,51.861L99.695,59.562L100.97,48.868L103.52,59.838L104.79,98.742L106.06,52.015L107.34,98.32L108.61,115.04L109.89,48.517L111.16,112.09L113.71,48.664L114.98,48.471L116.25,74.47L117.53,78.362L118.8,51.944L120.07,92.647L121.35,84.954L122.62,60.185L123.9,74.334L126.44,56.558L127.72,70.325L128.99,116.54L130.26,70.99L131.54,45.284L132.81,86.914L134.09,70.99L135.36,49.275L136.63,60.374L137.91,72.957L139.18,90.905L140.45,57.877L141.73,70.461L143,54.168L144.28,67.506L145.55,51.554L146.82,56.393L148.1,56.962L149.37,52.688L150.64,66.887L151.92,53.75L153.19,57.384L154.47,61.665L155.74,54.118L157.01,57.302L158.29,62.205L159.56,79.839L160.83,61.723L162.11,65.725L163.38,77.239L164.66,59.269L165.93,65.31L167.2,67.674L168.48,72.717L169.75,64.802L171.02,67.513L172.3,80.847L173.57,67.263L174.85,72.564L176.12,73.783L177.39,63.343L178.67,71.584L179.94,71.011L181.21,71.727L182.49,68.758L183.76,74.992L185.03,76.967L186.31,63.193L187.58,68.54L188.86,62.838L190.13,63.693L191.4,65.278L192.68,65.045L193.95,66.512L195.22,61.737L196.5,68.472L197.77,66.186L199.05,60.034L200.32,62.413L201.59,66.744L202.87,68.429L204.14,61.343L205.41,66.033L206.69,63.793L207.96,61.701L209.24,61.279L210.51,60.821L211.78,63.289L213.06,58.897L214.33,64.452L215.6,62.334L216.88,59.877L218.15,63.207L219.43,59.398L220.7,59.787L221.97,61.819L223.25,63.339L224.52,61.765L225.79,60.742L227.07,64.788L228.34,60.964L229.62,60.024L230.89,62.61L232.16,61.737L233.44,62.198L234.71,60.582L235.98,63.268L237.26,62.137L238.53,60.742L239.81,62.431L241.08,60.621L242.35,61.408L243.63,60.796L244.9,60.424L246.17,59.823L247.45,60.467L248.72,60.914L249.99,59.104L251.27,59.226L252.54,59.394L253.82,58.8L255.09,58.332L256.36,58.089L257.64,59.183L258.91,57.13L260.18,57.463L261.46,58.067L262.73,56.897L264.01,56.472L265.28,56.912L266.55,57.08L267.83,55.746L269.1,56.232L270.37,56.833L271.65,55.206L272.92,55.764L274.2,55.309L275.47,55.281L276.74,55.327L278.02,55.581L279.29,55.528L280.56,54.49L281.84,54.959L283.11,54.705L284.39,54.462L285.66,54.233L286.93,54.319L288.21,54.204L289.48,54.179L290.75,54.004L292.03,53.457L293.3,53.521L294.58,53.893L295.85,53.492L297.12,53.46L298.4,53.292L299.67,53.532L300.94,53.192L302.22,52.68L303.49,52.63L304.77,52.781L306.04,52.598L307.31,52.148L308.59,52.169L309.86,52.001L311.13,52.026L312.41,51.979L313.68,51.511L314.96,51.382L316.23,51.489L317.5,51.436L318.78,51.121L320.05,51.146L321.32,51.01L322.6,50.656L323.87,50.474L325.14,50.72L326.42,50.602L327.69,50.624L328.97,50.359L330.24,50.445L331.51,50.077L332.79,49.69L334.06,49.851L335.33,49.858L336.61,49.658L337.88,49.597L339.16,49.519L340.43,49.426L341.7,49.368L342.98,49.279L344.25,49.172L345.52,49.204L346.8,49.225L348.07,48.911L349.35,48.878L350.62,48.839L351.89,48.957L353.17,48.732L354.44,48.875L355.71,48.596L356.99,48.539L358.26,48.571L359.54,48.281L360.81,48.091L362.08,48.174L363.36,47.988L364.63,47.998L365.9,48.038L367.18,48.091L368.45,47.791L369.73,47.83L371,47.798L372.27,47.68L373.55,47.845L374.82,47.644L376.09,47.473L377.37,47.523L378.64,47.337L379.92,47.394L381.19,47.405L382.46,47.358L383.74,47.165L385.01,47.151L386.28,47.197L387.56,46.997L388.83,47.058L390.1,46.822L391.38,46.875L392.65,46.976L393.93,46.868L395.2,46.822L396.47,46.807L397.75,46.65L399.02,46.604L400.29,46.714L401.57,46.657L402.84,46.596L404.12,46.632L405.39,46.621L406.66,46.357L407.94,46.435L409.21,46.332L410.48,46.518L411.76,46.389L413.03,46.285L414.31,46.568L415.58,46.317L416.85,46.332L418.13,46.289L419.4,46.242L420.67,46.121L421.95,46.228L423.22,46.156L424.5,46.063L425.77,46.006L427.04,46.088L428.32,46.063L429.59,45.974L430.86,46.067L432.14,45.949L433.41,45.91L434.69,45.956L435.96,45.942L437.23,45.92L438.51,45.881L439.78,45.845L441.05,45.82L442.33,45.863L443.6,45.745L444.88,45.763L446.15,45.767L447.42,45.72L448.7,45.699L449.97,45.681L451.24,45.652L452.52,45.684L453.79,45.666L455.06,45.609L456.34,45.591L457.61,45.591L458.89,45.613L460.16,45.645L461.43,45.556L462.71,45.566L463.98,45.531L465.25,45.523L466.53,45.509L467.8,45.459L469.08,45.516L470.35,45.473L471.62,45.488L472.9,45.463L474.17,45.498L475.44,45.466L476.72,45.445L477.99,45.427L479.27,45.405L480.54,45.445L481.81,45.412L483.09,45.348L484.36,45.463L485.63,45.448L486.91,45.391L488.18,45.416L489.46,45.38L490.73,45.402L492,45.398L493.28,45.355L494.55,45.345L495.82,45.327L497.1,45.352L498.37,45.341L499.65,45.373L500.92,45.302L502.19,45.273L503.47,45.291L504.74,45.309L506.01,45.287L507.29,45.287L508.56,45.269L509.84,45.305L511.11,45.291L512.38,45.323L513.66,45.312L514.93,45.266L516.2,45.269L517.48,45.28L518.75,45.269L520.02,45.266L521.3,45.277L522.57,45.266L523.85,45.259L525.12,45.244L526.39,45.237L527.67,45.262L528.94,45.234L530.21,45.216L531.49,45.237L532.76,45.241L534.04,45.223L535.31,45.237L536.58,45.223L537.86,45.234L539.13,45.226L540.4,45.223L541.68,45.212L542.95,45.201L544.23,45.209L545.5,45.205L546.77,45.216L548.05,45.201L549.32,45.176L550.59,45.194L551.87,45.201L553.14,45.194L554.42,45.205L555.69,45.194L556.96,45.176L558.24,45.184L559.51,45.169L560.78,45.169L562.06,45.169L563.33,45.194L564.61,45.191L565.88,45.169L567.15,45.187L568.43,45.169L569.7,45.18L570.97,45.169L572.25,45.184L573.52,45.169L574.8,45.184L576.07,45.155L577.34,45.18L578.62,45.173L579.89,45.176L581.16,45.166L582.44,45.155L583.71,45.155L584.99,45.184L586.26,45.166L587.53,45.166L588.81,45.151L590.08,45.159L591.35,45.151L592.63,45.184L593.9,45.162L595.17,45.155L596.45,45.155L597.72,45.159L599,45.162L600.27,45.176L601.54,45.155L602.82,45.159L605.36,45.159L606.64,45.155L607.91,45.155L609.19,45.151L610.46,45.159L611.73,45.166L613.01,45.155L614.28,45.151L615.55,45.151L616.83,45.155L618.1,45.151L619.38,45.162L621.92,45.151L628.29,45.155L629.57,45.159L630.84,45.151L632.11,45.151L633.39,45.151L634.66,45.151L637.21,45.155L638.48,45.162L639.76,45.151L642.3,45.151L643.58,45.151L644.85,45.159L646.12,45.151L652.49,45.159L653.77,45.151L655.04,45.151L656.31,45.151L658.86,45.159L660.13,45.155L661.41,45.151L662.68,45.151L665.23,45.151L671.6,45.151L672.87,45.151L679.24,45.151L680.51,45.151L681.79,45.155L683.06,45.151L686.88,45.151L688.16,45.151L690.7,45.151L695.8,45.151L698.35,45.155L709.81,45.151L716.18,45.151L720,45.151" style="fill:none;stroke:#0000FF" />
</g>
</svg>
