<?xml version="1.0"?>
<!-- Generated by SVGo and Plotinum VG -->
<svg width="720pt" height="432pt" viewBox="0 0 720 432"
	xmlns="http://www.w3.org/2000/svg"
	xmlns:xlink="http://www.w3.org/1999/xlink">
<g transform="scale(1, -1) translate(0, -432)">
<path d="M0,0L720,0L720,432L0,432Z" style="fill:#FFFFFF" />
<text x="358.5" y="-420.45" transform="scale(1, -1)"
	style="font-family:Times;font-weight:normal;font-style:normal;font-size:12px"> </text>
<text x="379.31" y="-3.8613" transform="scale(1, -1)"
	style="font-family:Times;font-weight:normal;font-style:normal;font-size:12px">Costs</text>
<text x="62.805" y="-18.634" transform="scale(1, -1)"
	style="font-family:Times;font-weight:normal;font-style:normal;font-size:10px">0</text>
<text x="328.9" y="-18.634" transform="scale(1, -1)"
	style="font-family:Times;font-weight:normal;font-style:normal;font-size:10px">200</text>
<text x="600" y="-18.634" transform="scale(1, -1)"
	style="font-family:Times;font-weight:normal;font-style:normal;font-size:10px">400</text>
<path d="M65.305,28.263L65.305,36.263" style="fill:none;stroke:#000000;stroke-width:0.5" />
<path d="M336.4,28.263L336.4,36.263" style="fill:none;stroke:#000000;stroke-width:0.5" />
<path d="M607.5,28.263L607.5,36.263" style="fill:none;stroke:#000000;stroke-width:0.5" />
<path d="M200.85,32.263L200.85,36.263" style="fill:none;stroke:#000000;stroke-width:0.5" />
<path d="M471.95,32.263L471.95,36.263" style="fill:none;stroke:#000000;stroke-width:0.5" />
<path d="M65.305,36.263L720,36.263" style="fill:none;stroke:#000000;stroke-width:0.5" />
<g transform="rotate(90)">
<text x="152.55" y="11.555" transform="scale(1, -1)"
	style="font-family:Times;font-weight:normal;font-style:normal;font-size:12px">Number of trials (1000000 total)</text>
</g>
<text x="24.055" y="-114.25" transform="scale(1, -1)"
	style="font-family:Times;font-weight:normal;font-style:normal;font-size:10px">40000</text>
<text x="19.055" y="-258.86" transform="scale(1, -1)"
	style="font-family:Times;font-weight:normal;font-style:normal;font-size:10px">120000</text>
<text x="19.055" y="-403.47" transform="scale(1, -1)"
	style="font-family:Times;font-weight:normal;font-style:normal;font-size:10px">200000</text>
<path d="M51.555,117.45L59.555,117.45" style="fill:none;stroke:#000000;stroke-width:0.5" />
<path d="M51.555,262.06L59.555,262.06" style="fill:none;stroke:#000000;stroke-width:0.5" />
<path d="M51.555,406.67L59.555,406.67" style="fill:none;stroke:#000000;stroke-width:0.5" />
<path d="M55.555,189.76L59.555,189.76" style="fill:none;stroke:#000000;stroke-width:0.5" />
<path d="M55.555,334.37L59.555,334.37" style="fill:none;stroke:#000000;stroke-width:0.5" />
<path d="M59.555,45.151L59.555,416.58" style="fill:none;stroke:#000000;stroke-width:0.5" />
<path d="M65.305,416.58L100.55,55.966L101.9,66.259L103.26,52.109L104.61,48.88L105.97,48.508L107.32,48.559L108.68,55.274L110.04,55.963L111.39,63.206L112.75,66.248L114.1,48.521L116.81,59.388L118.17,56.127L119.52,84.5L120.88,66.288L122.23,76.655L123.59,55.551L124.95,76.803L126.3,55.323L127.66,51.789L131.72,106.22L133.08,77.134L134.43,55.858L137.14,56.254L138.5,56.295L139.86,49.441L141.21,60.044L142.57,88.878L143.92,52.689L145.28,66.908L146.63,50.036L147.99,82.139L149.34,61.34L150.7,63.614L152.06,46.061L153.41,46.805L154.77,47.857L156.12,52.893L157.48,49.233L158.83,49.463L160.19,48.729L161.54,52.487L162.9,49.204L164.25,53.136L165.61,63.992L166.97,51.948L168.32,54.367L169.68,52.366L171.03,51.312L172.39,51.257L173.74,54.477L175.1,52.277L176.45,53.783L177.81,55.869L179.16,59.094L180.52,54.49L181.88,52.969L183.23,52.821L184.59,55.026L185.94,58.349L187.3,56.993L188.65,58.483L190.01,55.269L191.36,57.194L192.72,55.598L194.07,55.39L195.43,53.788L196.79,55.56L198.14,56.679L199.5,60.131L200.85,54.795L202.21,58.877L203.56,55.18L204.92,57.767L206.27,52.006L207.63,54.773L208.99,57.96L210.34,55.254L211.7,53.291L213.05,50.994L214.41,55.402L215.76,54.499L217.12,54.05L218.47,52.299L219.83,51.764L221.18,51.633L222.54,53.016L223.9,51.68L225.25,54.444L226.61,51.187L227.96,53.127L229.32,49.895L230.67,51.196L232.03,52.434L233.38,52.478L234.74,50.278L236.09,49.406L237.45,49.464L238.81,49.904L240.16,49.961L241.52,50.652L242.87,51.153L244.23,50.263L245.58,50.994L246.94,50.466L248.29,50.941L249.65,50.365L251.01,50.569L252.36,49.972L253.72,50.122L255.07,50.05L256.43,50.684L257.78,50.066L259.14,50.31L260.49,49.958L261.85,50.511L263.2,49.994L264.56,50.16L265.92,50.025L267.27,49.67L268.63,50.319L269.98,49.748L271.34,50.05L272.69,49.285L274.05,49.547L275.4,49.576L276.76,49.64L278.11,49.058L279.47,49.159L280.83,48.956L282.18,49.247L283.54,48.841L284.89,48.946L286.25,48.673L287.6,48.745L288.96,48.647L290.31,48.208L291.67,48.396L293.02,48.356L294.38,48.3L295.74,47.888L297.09,47.857L298.45,47.819L299.8,47.969L301.16,47.917L302.51,47.691L303.87,47.628L305.22,47.64L306.58,47.445L307.94,47.575L309.29,47.751L310.65,47.613L312,47.337L313.36,47.205L314.71,47.234L316.07,47.293L317.42,47.131L318.78,47.152L320.13,46.968L321.49,47.098L322.85,47.029L324.2,46.952L325.56,47.024L326.91,46.993L328.27,47.008L329.62,46.874L330.98,46.879L332.33,46.811L333.69,46.872L335.04,46.708L336.4,46.784L337.76,46.592L339.11,46.672L340.47,46.608L341.82,46.677L343.18,46.583L344.53,46.545L345.89,46.46L347.24,46.578L348.6,46.455L349.95,46.409L351.31,46.361L352.67,46.478L354.02,46.335L355.38,46.241L356.73,46.247L358.09,46.258L359.44,46.249L360.8,46.146L362.15,46.165L363.51,46.014L364.87,46.122L366.22,46.113L367.58,46.075L368.93,46.017L370.29,45.941L371.64,45.92L373,45.965L374.35,45.909L375.71,45.882L377.06,45.945L378.42,45.882L379.78,45.795L381.13,45.775L382.49,45.802L383.84,45.827L385.2,45.724L386.55,45.741L387.91,45.674L389.26,45.694L390.62,45.715L391.97,45.677L393.33,45.643L394.69,45.681L396.04,45.677L397.4,45.668L398.75,45.585L400.11,45.634L401.46,45.6L402.82,45.56L404.17,45.623L405.53,45.538L406.88,45.578L408.24,45.547L409.6,45.596L410.95,45.547L412.31,45.545L413.66,45.558L415.02,45.45L416.37,45.471L417.73,45.473L419.08,45.502L420.44,45.446L421.8,45.473L423.15,45.466L424.51,45.442L425.86,45.464L427.22,45.459L428.57,45.423L429.93,45.386L431.28,45.361L432.64,45.356L433.99,45.368L435.35,45.413L436.71,45.357L438.06,45.357L439.42,45.347L440.77,45.334L442.13,45.339L443.48,45.347L444.84,45.307L446.19,45.332L447.55,45.325L448.9,45.334L450.26,45.291L451.62,45.334L452.97,45.321L454.33,45.269L455.68,45.291L457.04,45.278L458.39,45.298L459.75,45.291L461.1,45.265L462.46,45.265L463.81,45.269L465.17,45.254L466.53,45.249L467.88,45.269L469.24,45.28L470.59,45.282L471.95,45.263L473.3,45.262L474.66,45.26L476.01,45.225L477.37,45.242L478.73,45.227L480.08,45.238L481.44,45.218L482.79,45.213L484.15,45.202L485.5,45.233L486.86,45.204L488.21,45.213L489.57,45.197L490.92,45.216L492.28,45.213L493.64,45.206L494.99,45.204L496.35,45.207L497.7,45.198L499.06,45.191L500.41,45.193L501.77,45.188L503.12,45.206L504.48,45.188L505.83,45.2L507.19,45.198L508.55,45.189L509.9,45.182L511.26,45.189L512.61,45.202L513.97,45.178L515.32,45.182L516.68,45.182L518.03,45.188L519.39,45.177L520.74,45.182L522.1,45.171L523.46,45.169L524.81,45.177L526.17,45.182L527.52,45.166L528.88,45.173L530.23,45.168L531.59,45.191L532.94,45.171L534.3,45.171L535.66,45.171L537.01,45.164L538.37,45.173L539.72,45.169L541.08,45.178L542.43,45.164L543.79,45.166L545.14,45.173L546.5,45.168L547.85,45.168L549.21,45.157L550.57,45.162L551.92,45.159L553.28,45.168L554.63,45.162L555.99,45.175L557.34,45.168L558.7,45.155L560.05,45.153L561.41,45.166L562.76,45.155L564.12,45.159L565.48,45.164L568.19,45.155L569.54,45.157L570.9,45.157L572.25,45.157L573.61,45.157L574.96,45.159L576.32,45.16L577.67,45.153L579.03,45.157L580.39,45.153L581.74,45.157L583.1,45.157L584.45,45.155L585.81,45.155L587.16,45.151L588.52,45.159L589.87,45.155L591.23,45.155L592.59,45.159L593.94,45.159L595.3,45.153L596.65,45.16L598.01,45.153L599.36,45.153L600.72,45.164L602.07,45.153L603.43,45.151L604.78,45.153L606.14,45.155L607.5,45.151L611.56,45.153L614.27,45.155L615.63,45.151L616.98,45.151L618.34,45.153L621.05,45.153L623.76,45.151L625.12,45.151L627.83,45.151L629.18,45.151L630.54,45.151L633.25,45.151L634.6,45.153L637.32,45.151L638.67,45.153L640.03,45.153L645.45,45.151L650.87,45.151L652.23,45.155L654.94,45.151L657.65,45.151L659,45.151L663.07,45.151L665.78,45.151L671.2,45.151L677.98,45.151L682.05,45.151L684.76,45.151L690.18,45.153L698.31,45.151L720,45.151" style="fill:none;stroke:#0000FF" />
</g>
</svg>
