<?xml version="1.0"?>
<!-- Generated by SVGo and Plotinum VG -->
<svg width="720pt" height="432pt" viewBox="0 0 720 432"
	xmlns="http://www.w3.org/2000/svg"
	xmlns:xlink="http://www.w3.org/1999/xlink">
<g transform="scale(1, -1) translate(0, -432)">
<path d="M0,0L720,0L720,432L0,432Z" style="fill:#FFFFFF" />
<text x="358.5" y="-420.45" transform="scale(1, -1)"
	style="font-family:Times;font-weight:normal;font-style:normal;font-size:12px"> </text>
<text x="385.56" y="-3.8613" transform="scale(1, -1)"
	style="font-family:Times;font-weight:normal;font-style:normal;font-size:12px">Costs</text>
<text x="75.305" y="-18.634" transform="scale(1, -1)"
	style="font-family:Times;font-weight:normal;font-style:normal;font-size:10px">0</text>
<text x="241.1" y="-18.634" transform="scale(1, -1)"
	style="font-family:Times;font-weight:normal;font-style:normal;font-size:10px">100</text>
<text x="411.9" y="-18.634" transform="scale(1, -1)"
	style="font-family:Times;font-weight:normal;font-style:normal;font-size:10px">200</text>
<text x="582.69" y="-18.634" transform="scale(1, -1)"
	style="font-family:Times;font-weight:normal;font-style:normal;font-size:10px">300</text>
<path d="M77.805,28.263L77.805,36.263" style="fill:none;stroke:#000000;stroke-width:0.5" />
<path d="M248.6,28.263L248.6,36.263" style="fill:none;stroke:#000000;stroke-width:0.5" />
<path d="M419.4,28.263L419.4,36.263" style="fill:none;stroke:#000000;stroke-width:0.5" />
<path d="M590.19,28.263L590.19,36.263" style="fill:none;stroke:#000000;stroke-width:0.5" />
<path d="M111.96,32.263L111.96,36.263" style="fill:none;stroke:#000000;stroke-width:0.5" />
<path d="M146.12,32.263L146.12,36.263" style="fill:none;stroke:#000000;stroke-width:0.5" />
<path d="M180.28,32.263L180.28,36.263" style="fill:none;stroke:#000000;stroke-width:0.5" />
<path d="M214.44,32.263L214.44,36.263" style="fill:none;stroke:#000000;stroke-width:0.5" />
<path d="M282.76,32.263L282.76,36.263" style="fill:none;stroke:#000000;stroke-width:0.5" />
<path d="M316.92,32.263L316.92,36.263" style="fill:none;stroke:#000000;stroke-width:0.5" />
<path d="M351.08,32.263L351.08,36.263" style="fill:none;stroke:#000000;stroke-width:0.5" />
<path d="M385.24,32.263L385.24,36.263" style="fill:none;stroke:#000000;stroke-width:0.5" />
<path d="M453.56,32.263L453.56,36.263" style="fill:none;stroke:#000000;stroke-width:0.5" />
<path d="M487.72,32.263L487.72,36.263" style="fill:none;stroke:#000000;stroke-width:0.5" />
<path d="M521.88,32.263L521.88,36.263" style="fill:none;stroke:#000000;stroke-width:0.5" />
<path d="M556.04,32.263L556.04,36.263" style="fill:none;stroke:#000000;stroke-width:0.5" />
<path d="M624.35,32.263L624.35,36.263" style="fill:none;stroke:#000000;stroke-width:0.5" />
<path d="M658.51,32.263L658.51,36.263" style="fill:none;stroke:#000000;stroke-width:0.5" />
<path d="M692.67,32.263L692.67,36.263" style="fill:none;stroke:#000000;stroke-width:0.5" />
<path d="M77.805,36.263L720,36.263" style="fill:none;stroke:#000000;stroke-width:0.5" />
<g transform="rotate(90)">
<text x="152.55" y="11.555" transform="scale(1, -1)"
	style="font-family:Times;font-weight:normal;font-style:normal;font-size:12px">Number of trials (1000000 total)</text>
</g>
<text x="24.055" y="-69.445" transform="scale(1, -1)"
	style="font-family:Times;font-weight:normal;font-style:normal;font-size:10px">25000.00</text>
<text x="19.055" y="-179.45" transform="scale(1, -1)"
	style="font-family:Times;font-weight:normal;font-style:normal;font-size:10px">125000.00</text>
<text x="19.055" y="-289.45" transform="scale(1, -1)"
	style="font-family:Times;font-weight:normal;font-style:normal;font-size:10px">225000.00</text>
<text x="19.055" y="-399.45" transform="scale(1, -1)"
	style="font-family:Times;font-weight:normal;font-style:normal;font-size:10px">325000.00</text>
<path d="M64.055,72.65L72.055,72.65" style="fill:none;stroke:#000000;stroke-width:0.5" />
<path d="M64.055,182.65L72.055,182.65" style="fill:none;stroke:#000000;stroke-width:0.5" />
<path d="M64.055,292.65L72.055,292.65" style="fill:none;stroke:#000000;stroke-width:0.5" />
<path d="M64.055,402.65L72.055,402.65" style="fill:none;stroke:#000000;stroke-width:0.5" />
<path d="M68.055,127.65L72.055,127.65" style="fill:none;stroke:#000000;stroke-width:0.5" />
<path d="M68.055,237.65L72.055,237.65" style="fill:none;stroke:#000000;stroke-width:0.5" />
<path d="M68.055,347.65L72.055,347.65" style="fill:none;stroke:#000000;stroke-width:0.5" />
<path d="M72.055,45.151L72.055,416.58" style="fill:none;stroke:#000000;stroke-width:0.5" />
<path d="M77.805,416.58L115.38,59.537L127.34,87.289L129.04,83.865L130.75,73.397L135.88,52.256L137.58,48.787L139.29,52.243L142.71,59.483L144.42,55.441L147.83,58.91L149.54,59.432L151.25,87.257L152.96,52.133L154.66,55.505L156.37,48.609L161.5,51.974L163.2,48.47L164.91,50.216L166.62,46.624L168.33,56.19L170.03,83.93L173.45,45.435L175.16,83.708L176.87,45.805L178.57,62.715L180.28,52.084L181.99,72.728L183.7,63.01L185.41,46.53L187.11,46.651L188.82,48.46L190.53,46.369L192.24,47.713L193.95,47.979L195.65,47.153L197.36,47.758L199.07,51.905L200.78,52.454L202.49,51.222L204.19,50.619L205.9,47.867L207.61,48.179L209.32,46.929L211.03,46.718L212.73,49.38L214.44,47.447L216.15,48.694L217.86,48.452L219.57,52.312L221.27,52.082L222.98,50.366L224.69,50.233L226.4,50.544L228.11,52.231L229.81,48.407L231.52,51.063L233.23,51.548L234.94,52.071L236.65,49.463L238.35,46.684L240.06,49.875L241.77,49.787L243.48,50.745L245.19,48.819L246.89,49.276L248.6,52.077L250.31,47.846L252.02,50.121L253.73,49.238L255.43,50.181L257.14,48.891L258.85,47.625L260.56,47.828L262.27,46.582L263.97,46.102L265.68,47.797L267.39,50.11L269.1,46.978L270.8,48.132L272.51,47.718L274.22,49.277L275.93,49.539L277.64,46.524L279.34,49.031L281.05,48.165L282.76,47.2L284.47,47.315L286.18,47.336L287.88,47.346L289.59,46.551L291.3,46.69L293.01,46.773L294.72,46.543L296.42,46.937L298.13,46.623L299.84,46.667L301.55,46.672L303.26,46.668L304.96,46.997L306.67,46.675L308.38,46.524L310.09,46.458L311.8,46.266L313.5,46.288L315.21,46.112L316.92,46.453L318.63,46.569L320.34,46.487L322.04,46.229L323.75,46.405L325.46,46.571L327.17,46.457L328.88,46.292L330.58,46.208L332.29,46.455L334,46.266L335.71,46.003L337.42,46.086L339.12,46.173L340.83,46.357L342.54,45.876L344.25,46.025L345.96,46.071L347.66,46.085L349.37,46.098L351.08,45.985L352.79,46.074L354.5,45.885L356.2,45.759L357.91,45.831L359.62,45.713L361.33,45.733L363.04,45.606L364.74,45.634L366.45,45.587L368.16,45.623L369.87,45.603L371.57,45.771L373.28,45.69L374.99,45.565L376.7,45.623L378.41,45.595L380.11,45.683L381.82,45.565L383.53,45.507L385.24,45.58L386.95,45.465L388.65,45.473L390.36,45.465L392.07,45.507L393.78,45.49L395.49,45.442L397.19,45.436L398.9,45.418L400.61,45.444L402.32,45.442L404.03,45.402L405.73,45.426L407.44,45.402L409.15,45.403L410.86,45.403L412.57,45.368L414.27,45.358L415.98,45.336L417.69,45.347L419.4,45.37L421.11,45.32L422.81,45.358L424.52,45.371L426.23,45.331L427.94,45.288L429.65,45.32L431.35,45.311L433.06,45.309L434.77,45.275L436.48,45.283L438.19,45.299L439.89,45.272L441.6,45.245L443.31,45.255L445.02,45.275L446.73,45.26L448.43,45.24L450.14,45.254L451.85,45.251L453.56,45.253L455.27,45.238L456.97,45.227L458.68,45.227L460.39,45.211L462.1,45.24L463.81,45.225L465.51,45.217L467.22,45.218L468.93,45.2L470.64,45.204L472.34,45.21L474.05,45.215L475.76,45.206L477.47,45.205L479.18,45.207L480.88,45.192L482.59,45.191L484.3,45.196L486.01,45.193L487.72,45.189L489.42,45.18L491.13,45.187L492.84,45.176L494.55,45.192L496.26,45.187L497.96,45.189L499.67,45.181L501.38,45.179L503.09,45.177L504.8,45.192L506.5,45.18L508.21,45.179L509.92,45.169L511.63,45.177L513.34,45.172L515.04,45.173L516.75,45.171L518.46,45.165L520.17,45.17L521.88,45.167L523.58,45.165L525.29,45.176L527,45.168L528.71,45.167L530.42,45.165L532.12,45.163L533.83,45.166L535.54,45.156L537.25,45.162L538.96,45.16L540.66,45.159L542.37,45.16L544.08,45.161L545.79,45.161L547.5,45.16L549.2,45.156L550.91,45.159L552.62,45.159L554.33,45.156L556.04,45.157L557.74,45.152L559.45,45.158L561.16,45.157L562.87,45.156L564.58,45.154L566.28,45.155L567.99,45.158L569.7,45.156L571.41,45.154L573.11,45.166L574.82,45.152L576.53,45.155L578.24,45.152L579.95,45.152L581.65,45.152L583.36,45.154L585.07,45.152L586.78,45.156L588.49,45.152L590.19,45.156L593.61,45.151L595.32,45.151L597.03,45.152L598.73,45.151L600.44,45.155L603.86,45.152L605.57,45.151L607.27,45.154L610.69,45.151L612.4,45.154L614.11,45.152L615.81,45.154L617.52,45.155L620.94,45.151L629.48,45.152L631.19,45.151L632.89,45.152L634.6,45.152L636.31,45.152L638.02,45.151L641.43,45.152L643.14,45.151L644.85,45.151L653.39,45.151L655.1,45.152L658.51,45.151L675.59,45.151L684.13,45.151L690.96,45.151L692.67,45.151L697.8,45.151L720,45.151" style="fill:none;stroke:#0000FF" />
</g>
</svg>
