<?xml version="1.0"?>
<!-- Generated by SVGo and Plotinum VG -->
<svg width="720pt" height="432pt" viewBox="0 0 720 432"
	xmlns="http://www.w3.org/2000/svg"
	xmlns:xlink="http://www.w3.org/1999/xlink">
<g transform="scale(1, -1) translate(0, -432)">
<path d="M0,0L720,0L720,432L0,432Z" style="fill:#FFFFFF" />
<text x="358.5" y="-420.45" transform="scale(1, -1)"
	style="font-family:Times;font-weight:normal;font-style:normal;font-size:12px"> </text>
<text x="376.81" y="-3.8613" transform="scale(1, -1)"
	style="font-family:Times;font-weight:normal;font-style:normal;font-size:12px">Costs</text>
<text x="51.555" y="-18.634" transform="scale(1, -1)"
	style="font-family:Times;font-weight:normal;font-style:normal;font-size:10px">0.00</text>
<text x="352.54" y="-18.634" transform="scale(1, -1)"
	style="font-family:Times;font-weight:normal;font-style:normal;font-size:10px">250.00</text>
<text x="658.52" y="-18.634" transform="scale(1, -1)"
	style="font-family:Times;font-weight:normal;font-style:normal;font-size:10px">500.00</text>
<path d="M60.305,28.263L60.305,36.263" style="fill:none;stroke:#000000;stroke-width:0.5" />
<path d="M366.29,28.263L366.29,36.263" style="fill:none;stroke:#000000;stroke-width:0.5" />
<path d="M672.27,28.263L672.27,36.263" style="fill:none;stroke:#000000;stroke-width:0.5" />
<path d="M121.5,32.263L121.5,36.263" style="fill:none;stroke:#000000;stroke-width:0.5" />
<path d="M182.7,32.263L182.7,36.263" style="fill:none;stroke:#000000;stroke-width:0.5" />
<path d="M243.89,32.263L243.89,36.263" style="fill:none;stroke:#000000;stroke-width:0.5" />
<path d="M305.09,32.263L305.09,36.263" style="fill:none;stroke:#000000;stroke-width:0.5" />
<path d="M427.48,32.263L427.48,36.263" style="fill:none;stroke:#000000;stroke-width:0.5" />
<path d="M488.68,32.263L488.68,36.263" style="fill:none;stroke:#000000;stroke-width:0.5" />
<path d="M549.87,32.263L549.87,36.263" style="fill:none;stroke:#000000;stroke-width:0.5" />
<path d="M611.07,32.263L611.07,36.263" style="fill:none;stroke:#000000;stroke-width:0.5" />
<path d="M60.305,36.263L720,36.263" style="fill:none;stroke:#000000;stroke-width:0.5" />
<g transform="rotate(90)">
<text x="152.55" y="11.555" transform="scale(1, -1)"
	style="font-family:Times;font-weight:normal;font-style:normal;font-size:12px">Number of trials (1000000 total)</text>
</g>
<text x="19.055" y="-88.108" transform="scale(1, -1)"
	style="font-family:Times;font-weight:normal;font-style:normal;font-size:10px">10000</text>
<text x="19.055" y="-226.61" transform="scale(1, -1)"
	style="font-family:Times;font-weight:normal;font-style:normal;font-size:10px">40000</text>
<text x="19.055" y="-365.11" transform="scale(1, -1)"
	style="font-family:Times;font-weight:normal;font-style:normal;font-size:10px">70000</text>
<path d="M46.555,91.313L54.555,91.313" style="fill:none;stroke:#000000;stroke-width:0.5" />
<path d="M46.555,229.81L54.555,229.81" style="fill:none;stroke:#000000;stroke-width:0.5" />
<path d="M46.555,368.31L54.555,368.31" style="fill:none;stroke:#000000;stroke-width:0.5" />
<path d="M50.555,137.48L54.555,137.48" style="fill:none;stroke:#000000;stroke-width:0.5" />
<path d="M50.555,183.65L54.555,183.65" style="fill:none;stroke:#000000;stroke-width:0.5" />
<path d="M50.555,275.98L54.555,275.98" style="fill:none;stroke:#000000;stroke-width:0.5" />
<path d="M50.555,322.15L54.555,322.15" style="fill:none;stroke:#000000;stroke-width:0.5" />
<path d="M50.555,414.48L54.555,414.48" style="fill:none;stroke:#000000;stroke-width:0.5" />
<path d="M54.555,45.151L54.555,416.58" style="fill:none;stroke:#000000;stroke-width:0.5" />
<path d="M60.305,416.58L87.231,51.989L88.455,56.388L89.679,59.223L92.127,77.597L93.351,68.036L94.575,84.891L95.798,112.17L97.022,56.388L98.246,68.165L99.47,55.557L100.69,59.661L101.92,95.667L103.14,61.901L104.37,77.939L105.59,52.206L106.81,63.526L108.04,81.23L109.26,81.069L110.49,89.277L111.71,70.344L112.93,88.109L114.16,89.056L115.38,59.426L116.61,59.666L117.83,45.622L119.05,48.891L120.28,83.46L121.5,68.036L122.72,85.616L123.95,49.717L125.17,73.558L126.4,63.913L127.62,54.888L128.84,71.692L130.07,63.775L131.29,58.189L132.52,88.137L133.74,61.037L134.96,87.098L136.19,92.153L137.41,77.403L138.64,59.126L139.86,62.727L141.08,60.34L142.31,77.214L143.53,67.911L144.76,69.029L145.98,71.125L147.2,72.805L148.43,69.786L149.65,69.966L150.88,72.994L152.1,69.186L153.32,64.467L154.55,75.367L155.77,71.743L156.99,71.669L158.22,78.834L159.44,84.887L160.67,70.266L161.89,73.322L163.11,71.6L164.34,78.308L165.56,67.224L166.79,74.384L168.01,73.913L169.23,72.279L170.46,77.519L171.68,72.246L172.91,71.9L174.13,72.422L175.35,70.968L176.58,74.961L177.8,70.294L179.03,70.654L180.25,67.621L181.47,68.318L182.7,72.228L183.92,70.705L185.14,73.456L186.37,73.664L187.59,70.146L188.82,72.122L190.04,69.693L191.26,69.158L192.49,68.733L193.71,68.272L194.94,72.948L196.16,69.412L197.38,71.429L198.61,69.518L199.83,68.41L201.06,69.883L202.28,68.881L203.5,67.958L204.73,68.092L205.95,66.956L207.18,70.261L208.4,71.443L209.62,69.523L210.85,69.934L212.07,69.652L213.3,68.821L214.52,66.623L215.74,65.465L216.97,66.674L218.19,66.716L219.41,67.293L220.64,67.237L221.86,67.699L223.09,66.18L224.31,66.351L225.53,65.197L226.76,65.899L227.98,65.34L229.21,65.169L230.43,65.206L231.65,66.226L232.88,65.58L234.1,65.982L235.33,66.3L236.55,64.92L237.77,63.498L239,64.024L240.22,62.612L241.45,64.075L242.67,63.17L243.89,62.727L245.12,63.475L246.34,63.073L247.57,62.154L248.79,62.856L250.01,62.118L251.24,61.54L252.46,61.859L253.68,61.277L254.91,61.18L256.13,60.211L257.36,61.882L258.58,60.396L259.8,60.839L261.03,60.7L262.25,60.206L263.48,60.414L264.7,59.897L265.92,59.131L267.15,59.888L268.37,59.329L269.6,59.537L270.82,59.491L272.04,58.886L273.27,59.015L274.49,58.609L275.72,58.544L276.94,57.806L278.16,57.298L279.39,57.229L280.61,57.404L281.84,56.85L283.06,57.658L284.28,57.284L285.51,57.293L286.73,56.656L287.95,56.167L289.18,56.065L290.4,56.037L291.63,55.423L292.85,56.102L294.07,55.225L295.3,55.622L296.52,55.345L297.75,54.989L298.97,55.16L300.19,55.169L301.42,54.745L302.64,54.463L303.87,54.038L305.09,54.094L306.31,53.752L307.54,54.062L308.76,53.738L309.99,53.798L311.21,53.581L312.43,53.392L313.66,53.018L314.88,52.944L316.1,52.806L317.33,52.833L318.55,52.543L319.78,52.455L321,52.136L322.22,51.822L323.45,52.026L324.67,52.344L325.9,51.693L327.12,51.472L328.34,51.809L329.57,51.684L330.79,51.185L332.02,51.444L333.24,51.398L334.46,51.19L335.69,50.839L336.91,50.557L338.14,50.641L339.36,50.627L340.58,50.65L341.81,50.405L343.03,50.479L344.26,50.382L345.48,50.202L346.7,49.953L347.93,49.939L349.15,49.657L350.37,49.5L351.6,49.703L352.82,49.786L354.05,49.366L355.27,49.486L356.49,49.579L357.72,49.159L358.94,49.237L360.17,49.071L361.39,48.909L362.61,48.992L363.84,48.951L365.06,48.785L366.29,48.849L367.51,48.632L368.73,48.577L369.96,48.332L371.18,48.462L372.41,48.332L373.63,48.152L374.85,48.198L376.08,48.018L377.3,48.138L378.53,48.046L379.75,47.843L380.97,47.843L382.2,47.852L383.42,47.778L384.64,47.617L385.87,47.741L387.09,47.658L388.32,47.437L389.54,47.769L390.76,47.4L391.99,47.317L393.21,47.381L394.44,47.492L395.66,47.238L396.88,47.118L398.11,47.261L399.33,47.012L400.56,47.067L401.78,46.961L403,47.049L404.23,46.966L405.45,46.883L406.68,46.933L407.9,46.929L409.12,46.924L410.35,46.79L411.57,46.786L412.79,46.721L414.02,46.569L415.24,46.703L416.47,46.504L417.69,46.513L418.91,46.49L420.14,46.481L421.36,46.384L422.59,46.356L423.81,46.462L425.03,46.282L426.26,46.412L427.48,46.222L428.71,46.269L429.93,46.13L431.15,46.079L432.38,46.204L433.6,46.139L434.83,46.13L436.05,46.033L437.27,46.199L438.5,46.107L439.72,46.07L440.95,46.01L442.17,46.07L443.39,45.908L444.62,45.844L445.84,45.959L447.06,45.927L448.29,45.872L449.51,45.798L450.74,45.913L451.96,45.715L453.18,45.867L454.41,45.77L455.63,45.761L456.86,45.715L458.08,45.858L459.3,45.678L460.53,45.756L461.75,45.618L462.98,45.719L464.2,45.608L465.42,45.747L466.65,45.705L467.87,45.641L469.1,45.65L470.32,45.571L471.54,45.645L472.77,45.604L473.99,45.511L475.22,45.451L476.44,45.613L477.66,45.53L478.89,45.493L480.11,45.502L481.33,45.516L482.56,45.47L483.78,45.438L485.01,45.424L486.23,45.451L487.45,45.465L488.68,45.41L489.9,45.424L491.13,45.396L492.35,45.419L493.57,45.424L494.8,45.41L496.02,45.419L497.25,45.364L498.47,45.368L499.69,45.396L500.92,45.345L502.14,45.318L503.37,45.341L504.59,45.331L505.81,45.364L507.04,45.341L508.26,45.341L509.48,45.364L510.71,45.354L511.93,45.318L513.16,45.304L514.38,45.336L515.6,45.299L516.83,45.35L518.05,45.308L519.28,45.299L520.5,45.225L521.72,45.281L522.95,45.248L524.17,45.308L525.4,45.281L526.62,45.267L527.84,45.253L529.07,45.258L530.29,45.276L531.52,45.244L532.74,45.258L533.96,45.258L535.19,45.23L536.41,45.193L537.64,45.225L538.86,45.244L540.08,45.271L541.31,45.216L542.53,45.234L543.75,45.281L544.98,45.211L546.2,45.225L547.43,45.23L548.65,45.23L549.87,45.211L551.1,45.239L552.32,45.211L553.55,45.211L554.77,45.207L555.99,45.211L557.22,45.207L558.44,45.174L559.67,45.198L560.89,45.216L562.11,45.198L563.34,45.207L564.56,45.184L565.79,45.202L567.01,45.198L568.23,45.17L569.46,45.198L570.68,45.184L571.91,45.174L573.13,45.165L574.35,45.193L575.58,45.165L576.8,45.188L578.02,45.188L579.25,45.184L580.47,45.179L581.7,45.188L582.92,45.174L584.14,45.179L585.37,45.165L586.59,45.198L587.82,45.179L589.04,45.188L590.26,45.17L591.49,45.165L592.71,45.165L593.94,45.165L595.16,45.174L596.38,45.174L597.61,45.165L598.83,45.17L600.06,45.17L601.28,45.17L602.5,45.165L603.73,45.151L604.95,45.156L606.18,45.161L607.4,45.156L608.62,45.156L609.85,45.17L611.07,45.156L612.29,45.151L613.52,45.151L614.74,45.156L615.97,45.151L618.41,45.161L619.64,45.151L623.31,45.161L624.53,45.156L625.76,45.156L626.98,45.165L629.43,45.156L630.65,45.156L631.88,45.156L633.1,45.151L634.33,45.151L635.55,45.156L638,45.156L639.22,45.17L640.44,45.151L642.89,45.156L644.12,45.151L645.34,45.156L646.56,45.156L647.79,45.156L651.46,45.156L655.13,45.151L658.8,45.156L661.25,45.151L662.48,45.151L663.7,45.156L673.49,45.151L675.94,45.161L680.83,45.151L684.51,45.151L720,45.151" style="fill:none;stroke:#0000FF" />
</g>
</svg>
