<?xml version="1.0"?>
<!-- Generated by SVGo and Plotinum VG -->
<svg width="720pt" height="432pt" viewBox="0 0 720 432"
	xmlns="http://www.w3.org/2000/svg"
	xmlns:xlink="http://www.w3.org/1999/xlink">
<g transform="scale(1, -1) translate(0, -432)">
<path d="M0,0L720,0L720,432L0,432Z" style="fill:#FFFFFF" />
<text x="358.5" y="-420.45" transform="scale(1, -1)"
	style="font-family:Times;font-weight:normal;font-style:normal;font-size:12px"> </text>
<text x="379.31" y="-3.8613" transform="scale(1, -1)"
	style="font-family:Times;font-weight:normal;font-style:normal;font-size:12px">Costs</text>
<text x="62.805" y="-18.634" transform="scale(1, -1)"
	style="font-family:Times;font-weight:normal;font-style:normal;font-size:10px">0</text>
<text x="336.4" y="-18.634" transform="scale(1, -1)"
	style="font-family:Times;font-weight:normal;font-style:normal;font-size:10px">200</text>
<text x="614.99" y="-18.634" transform="scale(1, -1)"
	style="font-family:Times;font-weight:normal;font-style:normal;font-size:10px">400</text>
<path d="M65.305,28.263L65.305,36.263" style="fill:none;stroke:#000000;stroke-width:0.5" />
<path d="M343.9,28.263L343.9,36.263" style="fill:none;stroke:#000000;stroke-width:0.5" />
<path d="M622.49,28.263L622.49,36.263" style="fill:none;stroke:#000000;stroke-width:0.5" />
<path d="M204.6,32.263L204.6,36.263" style="fill:none;stroke:#000000;stroke-width:0.5" />
<path d="M483.2,32.263L483.2,36.263" style="fill:none;stroke:#000000;stroke-width:0.5" />
<path d="M65.305,36.263L720,36.263" style="fill:none;stroke:#000000;stroke-width:0.5" />
<g transform="rotate(90)">
<text x="152.55" y="11.555" transform="scale(1, -1)"
	style="font-family:Times;font-weight:normal;font-style:normal;font-size:12px">Number of trials (1000000 total)</text>
</g>
<text x="24.055" y="-110.13" transform="scale(1, -1)"
	style="font-family:Times;font-weight:normal;font-style:normal;font-size:10px">50000</text>
<text x="19.055" y="-246.51" transform="scale(1, -1)"
	style="font-family:Times;font-weight:normal;font-style:normal;font-size:10px">150000</text>
<text x="19.055" y="-382.89" transform="scale(1, -1)"
	style="font-family:Times;font-weight:normal;font-style:normal;font-size:10px">250000</text>
<path d="M51.555,113.34L59.555,113.34" style="fill:none;stroke:#000000;stroke-width:0.5" />
<path d="M51.555,249.72L59.555,249.72" style="fill:none;stroke:#000000;stroke-width:0.5" />
<path d="M51.555,386.1L59.555,386.1" style="fill:none;stroke:#000000;stroke-width:0.5" />
<path d="M55.555,181.53L59.555,181.53" style="fill:none;stroke:#000000;stroke-width:0.5" />
<path d="M55.555,317.91L59.555,317.91" style="fill:none;stroke:#000000;stroke-width:0.5" />
<path d="M59.555,45.151L59.555,416.58" style="fill:none;stroke:#000000;stroke-width:0.5" />
<path d="M65.305,416.58L95.95,52.011L101.52,52.423L105.7,74.106L107.09,63.306L108.49,69.522L109.88,55.598L112.67,58.836L114.06,66.386L115.45,59.471L116.84,52.112L118.24,59.459L119.63,65.916L121.02,58.935L122.42,69.481L123.81,52.127L125.2,63.249L126.6,56.085L127.99,73.275L129.38,48.569L132.17,45.314L133.56,59.642L134.95,69.641L136.35,49.048L137.74,45.506L139.13,69.933L140.53,74.028L141.92,45.697L143.31,59.903L144.7,71.256L146.1,46.173L147.49,49.88L148.88,47.395L150.28,72.469L151.67,67.563L153.06,47.449L154.45,47.809L155.85,48.921L157.24,48.561L158.63,49.199L160.03,48.756L161.42,49.346L162.81,50.695L164.21,57.072L165.6,50.347L166.99,49.518L168.38,61.978L169.78,51.545L171.17,51.338L172.56,49.239L173.96,49.75L175.35,52.755L176.74,51.831L178.14,50.849L179.53,51.283L180.92,52.785L182.31,53.492L183.71,53.413L185.1,52.081L186.49,51.092L187.89,53.656L189.28,51.865L190.67,52.219L192.06,53.858L193.46,53.7L194.85,53.098L196.24,51.736L197.64,52.741L199.03,51.895L200.42,51.898L201.82,51.593L203.21,51.706L204.6,51.193L205.99,50.489L207.39,51.853L208.78,51.655L210.17,50.664L211.57,49.659L212.96,51.789L214.35,51.943L215.75,47.936L217.14,48.345L218.53,50.939L219.92,51.222L221.32,49.248L222.71,48.876L224.1,49.522L225.5,51.329L226.89,49.446L228.28,48.524L229.67,50.034L231.07,49.513L232.46,47.932L233.85,47.988L235.25,48.044L236.64,49.282L238.03,49.055L239.43,48.336L240.82,47.598L242.21,48.574L243.6,48.947L245,47.792L246.39,48.174L247.78,48.315L249.18,48.25L250.57,48.416L251.96,47.698L253.36,48.266L254.75,48.423L256.14,47.797L257.53,47.747L258.93,47.458L260.32,47.59L261.71,47.715L263.11,47.759L264.5,47.38L265.89,47.618L267.29,47.834L268.68,47.588L270.07,47.423L271.46,47.313L272.86,47.241L274.25,47.314L275.64,47.148L277.04,47.183L278.43,47.103L279.82,47.088L281.21,47.093L282.61,47.036L284,46.917L285.39,46.735L286.79,46.967L288.18,46.956L289.57,46.701L290.97,46.609L292.36,46.725L293.75,46.757L295.14,46.529L296.54,46.566L297.93,46.375L299.32,46.575L300.72,46.362L302.11,46.323L303.5,46.431L304.9,46.484L306.29,46.304L307.68,46.199L309.07,46.177L310.47,46.182L311.86,46.255L313.25,46.071L314.65,46.035L316.04,46.109L317.43,46.072L318.82,46.006L320.22,45.88L321.61,46.021L323,46.068L324.4,46.011L325.79,45.919L327.18,45.865L328.58,45.951L329.97,45.82L331.36,45.829L332.75,45.79L334.15,45.896L335.54,45.805L336.93,45.826L338.33,45.751L339.72,45.756L341.11,45.802L342.51,45.701L343.9,45.653L345.29,45.678L346.68,45.686L348.08,45.641L349.47,45.621L350.86,45.603L352.26,45.625L353.65,45.606L355.04,45.585L356.44,45.547L357.83,45.543L359.22,45.567L360.61,45.526L362.01,45.49L363.4,45.499L364.79,45.509L366.19,45.481L367.58,45.5L368.97,45.465L370.36,45.454L371.76,45.481L373.15,45.409L374.54,45.412L375.94,45.421L377.33,45.4L378.72,45.417L380.12,45.393L381.51,45.359L382.9,45.385L384.29,45.35L385.69,45.326L387.08,45.341L388.47,45.334L389.87,45.355L391.26,45.327L392.65,45.304L394.05,45.312L395.44,45.301L396.83,45.32L398.22,45.311L399.62,45.285L401.01,45.303L402.4,45.28L403.8,45.28L405.19,45.267L406.58,45.27L407.97,45.281L409.37,45.285L410.76,45.269L412.15,45.254L413.55,45.255L414.94,45.267L416.33,45.24L417.73,45.235L419.12,45.24L420.51,45.236L421.9,45.252L423.3,45.232L424.69,45.236L426.08,45.222L427.48,45.211L428.87,45.222L430.26,45.232L431.66,45.213L433.05,45.211L434.44,45.211L435.83,45.228L437.23,45.214L438.62,45.21L440.01,45.209L441.41,45.199L442.8,45.194L444.19,45.207L445.59,45.194L446.98,45.211L448.37,45.192L449.76,45.187L451.16,45.185L452.55,45.195L453.94,45.185L455.34,45.177L456.73,45.192L458.12,45.187L459.51,45.176L460.91,45.179L462.3,45.18L463.69,45.187L465.09,45.17L466.48,45.181L467.87,45.179L469.27,45.169L470.66,45.18L472.05,45.175L473.44,45.168L474.84,45.166L476.23,45.176L477.62,45.166L479.02,45.177L480.41,45.165L481.8,45.168L483.2,45.173L484.59,45.157L485.98,45.162L487.37,45.169L488.77,45.162L490.16,45.158L491.55,45.164L492.95,45.169L494.34,45.16L495.73,45.157L497.12,45.161L498.52,45.168L499.91,45.155L501.3,45.157L502.7,45.162L504.09,45.157L505.48,45.162L506.88,45.162L508.27,45.161L509.66,45.162L511.05,45.16L512.45,45.164L513.84,45.154L515.23,45.158L516.63,45.16L518.02,45.16L519.41,45.158L520.81,45.155L522.2,45.154L523.59,45.157L524.98,45.155L526.38,45.153L527.77,45.157L529.16,45.158L530.56,45.154L531.95,45.158L533.34,45.154L534.74,45.153L536.13,45.151L537.52,45.154L538.91,45.154L540.31,45.154L541.7,45.154L543.09,45.154L544.49,45.161L545.88,45.158L547.27,45.151L548.66,45.153L550.06,45.154L551.45,45.154L552.84,45.151L554.24,45.154L557.02,45.151L561.2,45.151L562.59,45.151L565.38,45.154L568.17,45.151L570.95,45.151L572.35,45.154L577.92,45.151L579.31,45.151L582.1,45.151L583.49,45.153L589.06,45.151L590.45,45.153L594.63,45.151L597.42,45.151L598.81,45.151L601.6,45.154L608.56,45.151L618.31,45.151L621.1,45.151L628.06,45.151L629.46,45.151L635.03,45.151L720,45.151" style="fill:none;stroke:#0000FF" />
</g>
</svg>
