<?xml version="1.0"?>
<!-- Generated by SVGo and Plotinum VG -->
<svg width="720pt" height="432pt" viewBox="0 0 720 432"
	xmlns="http://www.w3.org/2000/svg"
	xmlns:xlink="http://www.w3.org/1999/xlink">
<g transform="scale(1, -1) translate(0, -432)">
<path d="M0,0L720,0L720,432L0,432Z" style="fill:#FFFFFF" />
<text x="358.5" y="-420.45" transform="scale(1, -1)"
	style="font-family:Times;font-weight:normal;font-style:normal;font-size:12px"> </text>
<text x="376.81" y="-3.8613" transform="scale(1, -1)"
	style="font-family:Times;font-weight:normal;font-style:normal;font-size:12px">Costs</text>
<text x="51.555" y="-18.634" transform="scale(1, -1)"
	style="font-family:Times;font-weight:normal;font-style:normal;font-size:10px">0.00</text>
<text x="345.33" y="-18.634" transform="scale(1, -1)"
	style="font-family:Times;font-weight:normal;font-style:normal;font-size:10px">250.00</text>
<text x="644.1" y="-18.634" transform="scale(1, -1)"
	style="font-family:Times;font-weight:normal;font-style:normal;font-size:10px">500.00</text>
<path d="M60.305,28.263L60.305,36.263" style="fill:none;stroke:#000000;stroke-width:0.5" />
<path d="M359.08,28.263L359.08,36.263" style="fill:none;stroke:#000000;stroke-width:0.5" />
<path d="M657.85,28.263L657.85,36.263" style="fill:none;stroke:#000000;stroke-width:0.5" />
<path d="M120.06,32.263L120.06,36.263" style="fill:none;stroke:#000000;stroke-width:0.5" />
<path d="M179.81,32.263L179.81,36.263" style="fill:none;stroke:#000000;stroke-width:0.5" />
<path d="M239.57,32.263L239.57,36.263" style="fill:none;stroke:#000000;stroke-width:0.5" />
<path d="M299.32,32.263L299.32,36.263" style="fill:none;stroke:#000000;stroke-width:0.5" />
<path d="M418.83,32.263L418.83,36.263" style="fill:none;stroke:#000000;stroke-width:0.5" />
<path d="M478.59,32.263L478.59,36.263" style="fill:none;stroke:#000000;stroke-width:0.5" />
<path d="M538.34,32.263L538.34,36.263" style="fill:none;stroke:#000000;stroke-width:0.5" />
<path d="M598.1,32.263L598.1,36.263" style="fill:none;stroke:#000000;stroke-width:0.5" />
<path d="M717.61,32.263L717.61,36.263" style="fill:none;stroke:#000000;stroke-width:0.5" />
<path d="M60.305,36.263L720,36.263" style="fill:none;stroke:#000000;stroke-width:0.5" />
<g transform="rotate(90)">
<text x="150.8" y="11.555" transform="scale(1, -1)"
	style="font-family:Times;font-weight:normal;font-style:normal;font-size:12px">Number of trials (1000000 total)</text>
</g>
<text x="19.055" y="-114.94" transform="scale(1, -1)"
	style="font-family:Times;font-weight:normal;font-style:normal;font-size:10px">10000</text>
<text x="19.055" y="-260.95" transform="scale(1, -1)"
	style="font-family:Times;font-weight:normal;font-style:normal;font-size:10px">30000</text>
<text x="19.055" y="-406.96" transform="scale(1, -1)"
	style="font-family:Times;font-weight:normal;font-style:normal;font-size:10px">50000</text>
<path d="M46.555,118.15L54.555,118.15" style="fill:none;stroke:#000000;stroke-width:0.5" />
<path d="M46.555,264.15L54.555,264.15" style="fill:none;stroke:#000000;stroke-width:0.5" />
<path d="M46.555,410.16L54.555,410.16" style="fill:none;stroke:#000000;stroke-width:0.5" />
<path d="M50.555,191.15L54.555,191.15" style="fill:none;stroke:#000000;stroke-width:0.5" />
<path d="M50.555,337.16L54.555,337.16" style="fill:none;stroke:#000000;stroke-width:0.5" />
<path d="M54.555,45.151L54.555,413.07" style="fill:none;stroke:#000000;stroke-width:0.5" />
<path d="M60.305,413.07L86.597,84.128L91.377,55.007L92.572,77.025L93.767,63.278L94.963,48.59L96.158,67.271L97.353,109.89L98.548,52.335L99.743,138.6L100.94,95.443L102.13,89.713L103.33,85.347L104.52,72.659L106.91,73.426L108.11,107.22L109.3,94.494L110.5,83.412L111.69,71.557L112.89,79.215L114.08,102.74L115.28,56.058L117.67,65.475L118.86,78.222L120.06,115.5L121.25,67.739L122.45,47.633L123.64,104.92L124.84,81.303L126.04,62.555L127.23,51.043L128.43,87.099L129.62,90.793L130.82,65.198L132.01,59.124L133.21,66.184L134.4,93.107L135.6,75.411L136.79,71.338L137.99,62.351L139.18,70.746L140.38,80.368L141.57,73.104L142.77,69.761L143.96,74.572L145.16,87.471L146.35,82.303L147.55,90.457L148.74,92.932L149.94,88.318L151.13,92.282L152.33,86.041L153.52,82.047L154.72,82.42L155.91,88.683L157.11,98.013L158.3,80.733L159.5,87.311L160.69,98.948L161.89,93.786L163.08,91.37L164.28,83.726L165.47,83.347L166.67,88.304L167.86,93.465L169.06,85.822L170.25,82.558L171.45,92.625L172.64,90.151L173.84,91.516L175.03,79.682L176.23,79.85L177.42,88.815L178.62,86.121L179.81,76.251L181.01,77.66L182.2,84.661L183.4,90.078L184.6,85.814L185.79,77.536L186.99,81.821L188.18,92.99L189.38,86.566L190.57,78.66L191.77,80.507L192.96,87.011L194.16,87.661L195.35,83.062L196.55,82.186L197.74,86.522L198.94,85.216L200.13,84.617L201.33,81.098L202.52,84.004L203.72,85.632L204.91,86.318L206.11,83.478L207.3,82.982L208.5,86.559L209.69,86.457L210.89,86.281L212.08,83.69L213.28,83.756L214.47,85.208L215.67,84.507L216.86,83.858L218.06,82.084L219.25,83.004L220.45,84.318L221.64,84.223L222.84,82.266L224.03,81.5L225.23,82.843L226.42,82.076L227.62,79.492L228.81,78.908L230.01,79.908L231.2,82.033L232.4,80.164L233.59,79.58L234.79,78.083L235.98,80.222L237.18,79.346L238.37,77.828L239.57,76.083L240.76,77.382L241.96,79.66L243.16,77.302L244.35,74.864L245.55,75.681L246.74,77.82L247.94,77.601L249.13,75.243L250.33,73.725L251.52,76.506L252.72,76.389L253.91,74.791L255.11,73.681L256.3,74.762L257.5,76.054L258.69,74.243L259.89,72.907L261.08,73.513L262.28,73.958L263.47,73.126L264.67,72.104L265.86,71.717L267.06,71.411L268.25,71.746L269.45,71.367L270.64,70.622L271.84,70.52L273.03,70.294L274.23,70.345L275.42,69.805L276.62,69.403L277.81,68.826L279.01,69.33L280.2,69.418L281.4,68.337L282.59,68.819L283.79,67.76L284.98,67.476L286.18,67.892L287.37,66.6L288.57,66.352L289.76,67.009L290.96,66.403L292.15,65.293L293.35,64.979L294.54,65.87L295.74,64.855L296.93,64.592L298.13,63.753L299.32,64.307L300.52,64.709L301.71,63.636L302.91,62.774L304.11,62.665L305.3,63.395L306.5,63.169L307.69,62.833L308.89,62.504L310.08,62.125L311.28,61.957L312.47,61.504L313.67,61.307L314.86,60.767L316.06,60.212L317.25,60.957L318.45,60.343L319.64,59.818L320.84,60.154L322.03,59.832L323.23,59.19L324.42,58.898L325.62,58.891L326.81,58.234L328.01,58.825L329.2,57.212L330.4,57.971L331.59,57.657L332.79,57.774L333.98,57.255L335.18,56.868L336.37,56.832L337.57,56.993L338.76,56.627L339.96,56.533L341.15,56.562L342.35,55.54L343.54,56.204L344.74,55.708L345.93,55.357L347.13,55.094L348.32,55.043L349.52,54.576L350.71,54.941L351.91,54.832L353.1,54.503L354.3,53.934L355.49,54.496L356.69,53.452L357.88,53.883L359.08,53.43L360.27,53.693L361.47,52.7L362.67,53.028L363.86,52.736L365.06,52.722L366.25,52.817L367.45,52.422L368.64,52.255L369.84,52.496L371.03,51.379L372.23,51.933L373.42,51.744L374.62,51.824L375.81,51.525L377.01,51.364L378.2,51.437L379.4,51.014L380.59,50.78L381.79,51.087L382.98,50.751L384.18,50.517L385.37,50.627L386.57,50.59L387.76,50.4L388.96,50.247L390.15,50.232L391.35,49.977L392.54,49.809L393.74,49.634L394.93,49.276L396.13,49.444L397.32,49.225L398.52,49.225L399.71,49.283L400.91,49.524L402.1,49.378L403.3,49.13L404.49,49.079L405.69,49.05L406.88,48.743L408.08,48.677L409.27,48.51L410.47,48.626L411.66,48.794L412.86,48.531L414.05,48.276L415.25,48.444L416.44,48.261L417.64,48.298L418.83,47.889L420.03,47.867L421.22,47.779L422.42,47.765L423.62,47.429L424.81,47.648L426.01,47.94L427.2,47.626L428.4,47.451L429.59,47.473L430.79,47.458L431.98,47.422L433.18,47.473L434.37,47.473L435.57,47.195L436.76,47.152L437.96,47.217L439.15,46.947L440.35,46.94L441.54,47.079L442.74,47.057L443.93,46.991L445.13,46.955L446.32,46.816L447.52,46.969L448.71,46.626L449.91,46.611L451.1,46.838L452.3,46.546L453.49,46.699L454.69,46.487L455.88,46.451L457.08,46.495L458.27,46.582L459.47,46.371L460.66,46.13L461.86,46.356L463.05,46.407L464.25,46.444L465.44,46.283L466.64,46.319L467.83,46.225L469.03,46.327L470.22,46.115L471.42,46.079L472.61,46.137L473.81,46.195L475,46.137L476.2,46.13L477.39,46.108L478.59,45.874L479.78,45.808L480.98,45.991L482.18,45.947L483.37,45.925L484.57,45.998L485.76,45.867L486.96,45.852L488.15,45.838L489.35,45.874L490.54,45.867L491.74,45.83L492.93,45.808L494.13,45.706L495.32,45.728L496.52,45.743L497.71,45.765L498.91,45.626L500.1,45.677L501.3,45.611L502.49,45.633L503.69,45.575L504.88,45.56L506.08,45.487L507.27,45.538L508.47,45.67L509.66,45.516L510.86,45.597L512.05,45.509L513.25,45.487L514.44,45.516L515.64,45.494L516.83,45.516L518.03,45.546L519.22,45.473L520.42,45.392L521.61,45.546L522.81,45.524L524,45.4L525.2,45.451L526.39,45.458L527.59,45.436L528.78,45.37L529.98,45.421L531.17,45.4L532.37,45.436L533.56,45.348L534.76,45.37L535.95,45.356L537.15,45.334L538.34,45.356L539.54,45.421L540.73,45.341L541.93,45.305L543.13,45.37L544.32,45.319L545.52,45.297L546.71,45.254L547.91,45.29L549.1,45.341L550.3,45.334L551.49,45.312L552.69,45.297L553.88,45.254L555.08,45.327L556.27,45.29L557.47,45.261L558.66,45.275L559.86,45.261L561.05,45.254L562.25,45.275L563.44,45.224L564.64,45.319L565.83,45.232L567.03,45.297L568.22,45.254L569.42,45.254L570.61,45.232L571.81,45.29L573,45.21L574.2,45.195L575.39,45.21L576.59,45.202L577.78,45.239L578.98,45.21L580.17,45.224L581.37,45.232L582.56,45.21L583.76,45.202L584.95,45.166L586.15,45.224L587.34,45.173L588.54,45.188L589.73,45.232L590.93,45.188L592.12,45.188L593.32,45.195L594.51,45.173L595.71,45.173L596.9,45.173L598.1,45.173L599.29,45.181L600.49,45.21L601.69,45.21L602.88,45.202L604.08,45.195L605.27,45.181L606.47,45.181L607.66,45.166L608.86,45.188L610.05,45.188L611.25,45.173L612.44,45.166L613.64,45.181L614.83,45.173L616.03,45.173L617.22,45.159L618.42,45.173L619.61,45.166L620.81,45.173L622,45.166L623.2,45.202L624.39,45.166L625.59,45.166L626.78,45.166L627.98,45.173L629.17,45.173L630.37,45.151L631.56,45.151L633.95,45.159L635.15,45.151L636.34,45.159L637.54,45.159L638.73,45.151L639.93,45.151L641.12,45.151L642.32,45.166L644.71,45.151L645.9,45.159L647.1,45.151L649.49,45.151L651.88,45.166L653.07,45.151L657.85,45.151L659.05,45.159L661.44,45.151L662.64,45.159L663.83,45.159L675.78,45.151L676.98,45.166L681.76,45.151L682.95,45.151L687.73,45.151L688.93,45.151L692.51,45.151L720,45.151" style="fill:none;stroke:#0000FF" />
</g>
</svg>
