<?xml version="1.0"?>
<!-- Generated by SVGo and Plotinum VG -->
<svg width="720pt" height="432pt" viewBox="0 0 720 432"
	xmlns="http://www.w3.org/2000/svg"
	xmlns:xlink="http://www.w3.org/1999/xlink">
<g transform="scale(1, -1) translate(0, -432)">
<path d="M0,0L720,0L720,432L0,432Z" style="fill:#FFFFFF" />
<text x="358.5" y="-420.45" transform="scale(1, -1)"
	style="font-family:Times;font-weight:normal;font-style:normal;font-size:12px"> </text>
<text x="376.32" y="-3.8613" transform="scale(1, -1)"
	style="font-family:Times;font-weight:normal;font-style:normal;font-size:12px">Costs</text>
<text x="57.805" y="-18.634" transform="scale(1, -1)"
	style="font-family:Times;font-weight:normal;font-style:normal;font-size:10px">0</text>
<text x="378.9" y="-18.634" transform="scale(1, -1)"
	style="font-family:Times;font-weight:normal;font-style:normal;font-size:10px">300</text>
<text x="705" y="-18.634" transform="scale(1, -1)"
	style="font-family:Times;font-weight:normal;font-style:normal;font-size:10px">600</text>
<path d="M60.305,28.263L60.305,36.263" style="fill:none;stroke:#000000;stroke-width:0.5" />
<path d="M386.4,28.263L386.4,36.263" style="fill:none;stroke:#000000;stroke-width:0.5" />
<path d="M712.5,28.263L712.5,36.263" style="fill:none;stroke:#000000;stroke-width:0.5" />
<path d="M169,32.263L169,36.263" style="fill:none;stroke:#000000;stroke-width:0.5" />
<path d="M277.7,32.263L277.7,36.263" style="fill:none;stroke:#000000;stroke-width:0.5" />
<path d="M495.1,32.263L495.1,36.263" style="fill:none;stroke:#000000;stroke-width:0.5" />
<path d="M603.8,32.263L603.8,36.263" style="fill:none;stroke:#000000;stroke-width:0.5" />
<path d="M60.305,36.263L719.02,36.263" style="fill:none;stroke:#000000;stroke-width:0.5" />
<g transform="rotate(90)">
<text x="152.55" y="11.555" transform="scale(1, -1)"
	style="font-family:Times;font-weight:normal;font-style:normal;font-size:12px">Number of trials (1000000 total)</text>
</g>
<text x="19.055" y="-100.62" transform="scale(1, -1)"
	style="font-family:Times;font-weight:normal;font-style:normal;font-size:10px">10000</text>
<text x="19.055" y="-159.3" transform="scale(1, -1)"
	style="font-family:Times;font-weight:normal;font-style:normal;font-size:10px">20000</text>
<text x="19.055" y="-217.98" transform="scale(1, -1)"
	style="font-family:Times;font-weight:normal;font-style:normal;font-size:10px">30000</text>
<text x="19.055" y="-276.66" transform="scale(1, -1)"
	style="font-family:Times;font-weight:normal;font-style:normal;font-size:10px">40000</text>
<text x="19.055" y="-335.34" transform="scale(1, -1)"
	style="font-family:Times;font-weight:normal;font-style:normal;font-size:10px">50000</text>
<text x="19.055" y="-394.01" transform="scale(1, -1)"
	style="font-family:Times;font-weight:normal;font-style:normal;font-size:10px">60000</text>
<path d="M46.555,103.82L54.555,103.82" style="fill:none;stroke:#000000;stroke-width:0.5" />
<path d="M46.555,162.5L54.555,162.5" style="fill:none;stroke:#000000;stroke-width:0.5" />
<path d="M46.555,221.18L54.555,221.18" style="fill:none;stroke:#000000;stroke-width:0.5" />
<path d="M46.555,279.86L54.555,279.86" style="fill:none;stroke:#000000;stroke-width:0.5" />
<path d="M46.555,338.54L54.555,338.54" style="fill:none;stroke:#000000;stroke-width:0.5" />
<path d="M46.555,397.22L54.555,397.22" style="fill:none;stroke:#000000;stroke-width:0.5" />
<path d="M50.555,56.881L54.555,56.881" style="fill:none;stroke:#000000;stroke-width:0.5" />
<path d="M50.555,68.617L54.555,68.617" style="fill:none;stroke:#000000;stroke-width:0.5" />
<path d="M50.555,80.353L54.555,80.353" style="fill:none;stroke:#000000;stroke-width:0.5" />
<path d="M50.555,92.089L54.555,92.089" style="fill:none;stroke:#000000;stroke-width:0.5" />
<path d="M50.555,115.56L54.555,115.56" style="fill:none;stroke:#000000;stroke-width:0.5" />
<path d="M50.555,127.3L54.555,127.3" style="fill:none;stroke:#000000;stroke-width:0.5" />
<path d="M50.555,139.03L54.555,139.03" style="fill:none;stroke:#000000;stroke-width:0.5" />
<path d="M50.555,150.77L54.555,150.77" style="fill:none;stroke:#000000;stroke-width:0.5" />
<path d="M50.555,174.24L54.555,174.24" style="fill:none;stroke:#000000;stroke-width:0.5" />
<path d="M50.555,185.98L54.555,185.98" style="fill:none;stroke:#000000;stroke-width:0.5" />
<path d="M50.555,197.71L54.555,197.71" style="fill:none;stroke:#000000;stroke-width:0.5" />
<path d="M50.555,209.45L54.555,209.45" style="fill:none;stroke:#000000;stroke-width:0.5" />
<path d="M50.555,232.92L54.555,232.92" style="fill:none;stroke:#000000;stroke-width:0.5" />
<path d="M50.555,244.65L54.555,244.65" style="fill:none;stroke:#000000;stroke-width:0.5" />
<path d="M50.555,256.39L54.555,256.39" style="fill:none;stroke:#000000;stroke-width:0.5" />
<path d="M50.555,268.13L54.555,268.13" style="fill:none;stroke:#000000;stroke-width:0.5" />
<path d="M50.555,291.6L54.555,291.6" style="fill:none;stroke:#000000;stroke-width:0.5" />
<path d="M50.555,303.33L54.555,303.33" style="fill:none;stroke:#000000;stroke-width:0.5" />
<path d="M50.555,315.07L54.555,315.07" style="fill:none;stroke:#000000;stroke-width:0.5" />
<path d="M50.555,326.81L54.555,326.81" style="fill:none;stroke:#000000;stroke-width:0.5" />
<path d="M50.555,350.28L54.555,350.28" style="fill:none;stroke:#000000;stroke-width:0.5" />
<path d="M50.555,362.01L54.555,362.01" style="fill:none;stroke:#000000;stroke-width:0.5" />
<path d="M50.555,373.75L54.555,373.75" style="fill:none;stroke:#000000;stroke-width:0.5" />
<path d="M50.555,385.48L54.555,385.48" style="fill:none;stroke:#000000;stroke-width:0.5" />
<path d="M50.555,408.96L54.555,408.96" style="fill:none;stroke:#000000;stroke-width:0.5" />
<path d="M54.555,45.151L54.555,416.58" style="fill:none;stroke:#000000;stroke-width:0.5" />
<path d="M60.305,416.58L84.219,52.34L86.392,55.508L88.566,58.571L89.653,63.23L90.74,55.714L91.827,48.725L95.088,82.43L96.175,59.921L97.262,102.62L98.349,92.007L99.436,55.596L101.61,62.597L102.7,94.87L103.78,83.029L104.87,129.75L105.96,107.29L107.05,98.367L108.13,108.41L109.22,52.345L110.31,67.133L112.48,48.924L113.57,73.006L114.65,78.675L115.74,80.083L116.83,45.327L117.92,117.48L119,64.521L120.09,45.944L121.18,68.911L122.26,59.845L123.35,48.385L124.44,62.473L125.52,53.003L126.61,58.119L127.7,82.272L128.79,67.091L129.87,49.441L130.96,52.592L132.05,58.653L133.13,67.866L134.22,60.619L135.31,60.907L136.39,58.272L137.48,69.785L138.57,57.668L139.66,120.45L140.74,76.492L141.83,76.281L142.92,78.686L144,81.761L145.09,73.141L146.18,69.685L147.26,78.968L148.35,125.7L149.44,76.216L150.53,84.789L151.61,81.169L152.7,90.463L153.79,74.092L154.87,76.521L155.96,75.301L157.05,67.221L158.13,70.395L159.22,72.819L160.31,78.417L161.39,74.837L162.48,82.553L163.57,80.089L164.66,73.2L165.74,80.224L166.83,65.742L167.92,67.05L169,68.764L170.09,67.549L171.18,68.952L172.26,74.192L173.35,71.275L174.44,72.977L175.53,73.212L176.61,75.336L177.7,71.545L178.79,69.087L179.87,65.091L180.96,66.405L182.05,76.281L183.13,76.298L184.22,78.909L185.31,87.559L186.4,84.367L187.48,76.75L188.57,70.319L189.66,74.198L190.74,75.676L191.83,74.021L192.92,83.228L194,80.488L195.09,83.316L196.18,78.123L197.27,81.004L198.35,76.386L199.44,69.89L200.53,73.112L201.61,75.823L202.7,72.719L203.79,73.358L204.87,70.636L205.96,79.995L207.05,75.312L208.14,73.012L209.22,72.607L210.31,72.285L211.4,69.022L212.48,71.058L213.57,68.693L214.66,68.682L215.74,70.911L216.83,70.53L217.92,66.739L219.01,68.159L220.09,70.87L221.18,70.788L222.27,69.251L223.35,70.583L224.44,68.247L225.53,68.236L226.61,68.834L227.7,76.369L228.79,69.92L229.88,72.302L230.96,71.029L232.05,72.854L233.14,69.656L234.22,68.987L235.31,70.02L236.4,67.561L237.48,67.625L238.57,69.585L239.66,70.483L240.75,70.102L241.83,68.881L242.92,69.644L244.01,67.913L245.09,67.514L246.18,66.534L247.27,65.66L248.35,66.669L249.44,66.646L250.53,67.138L251.62,67.197L252.7,66.434L253.79,66.863L254.88,64.357L255.96,64.439L257.05,63.459L258.14,63.336L259.22,63.53L260.31,64.175L261.4,63.383L262.49,63.013L263.57,64.087L264.66,63.97L265.75,62.914L266.83,61.922L267.92,62.79L269.01,61.605L270.09,62.837L271.18,61.658L272.27,61.628L273.36,62.274L274.44,62.573L275.53,61.711L276.62,61.13L277.7,61.552L278.79,61.036L279.88,60.238L280.96,60.607L282.05,60.478L283.14,59.886L284.23,59.674L285.31,61.006L286.4,59.522L287.49,59.698L288.57,59.991L289.66,59.387L290.75,58.301L291.83,58.583L292.92,58.648L294.01,58.149L295.09,57.908L296.18,57.949L297.27,57.961L298.36,57.826L299.44,57.632L300.53,57.368L301.62,56.829L302.7,57.075L303.79,56.588L304.88,56.224L305.96,56.107L307.05,56.658L308.14,56.23L309.23,56.459L310.31,56.312L311.4,55.579L312.49,55.719L313.57,54.957L314.66,55.426L315.75,54.951L316.83,54.745L317.92,54.411L319.01,55.039L320.1,55.062L321.18,54.563L322.27,54.258L323.36,54.153L324.44,53.76L325.53,53.783L326.62,53.707L327.7,53.677L328.79,53.337L329.88,53.402L330.97,53.273L332.05,53.055L333.14,53.355L334.23,52.668L335.31,52.533L336.4,52.404L337.49,52.475L338.57,52.257L339.66,52.398L340.75,51.894L341.84,52.228L342.92,51.976L344.01,51.665L345.1,51.5L346.18,51.365L347.27,51.465L348.36,51.16L349.44,50.761L350.53,51.371L351.62,51.142L352.71,50.679L353.79,50.55L354.88,50.749L355.97,50.515L357.05,50.262L358.14,50.039L359.23,50.033L360.31,50.174L361.4,49.822L362.49,49.904L363.58,49.928L364.66,49.764L365.75,49.681L366.84,49.852L367.92,49.57L369.01,49.576L370.1,49.265L371.18,49.159L372.27,49.241L373.36,49.165L374.45,49.077L375.53,49.083L376.62,49.065L377.71,48.995L378.79,48.907L379.88,48.901L380.97,48.701L382.05,48.561L383.14,48.572L384.23,48.608L385.32,48.126L386.4,48.555L387.49,48.132L388.58,48.103L389.66,47.991L390.75,47.974L391.84,48.179L392.92,47.481L394.01,47.815L395.1,48.05L396.19,47.545L397.27,47.821L398.36,47.616L399.45,47.504L400.53,47.604L401.62,47.504L402.71,47.633L403.79,47.411L404.88,47.499L405.97,47.229L407.06,47.293L408.14,47.234L409.23,46.994L410.32,47.364L411.4,47.152L412.49,47.234L413.58,46.947L414.66,47.082L415.75,46.906L416.84,47.017L417.93,46.765L419.01,46.83L420.1,46.712L421.19,46.894L422.27,46.63L423.36,46.765L424.45,46.718L425.53,46.542L426.62,46.7L427.71,46.501L428.8,46.407L429.88,46.448L430.97,46.618L432.06,46.425L433.14,46.513L434.23,46.319L435.32,46.413L436.4,46.36L437.49,46.29L438.58,46.143L439.66,46.243L440.75,46.278L441.84,46.249L442.93,46.078L444.01,46.225L445.1,46.067L446.19,46.073L447.27,46.096L448.36,46.09L449.45,45.996L450.53,45.908L451.62,45.902L452.71,45.973L453.8,45.92L454.88,45.879L455.97,45.897L457.06,45.926L458.14,45.856L459.23,45.979L460.32,45.873L461.4,45.867L462.49,45.779L463.58,45.732L464.67,45.75L465.75,45.662L466.84,45.809L467.93,45.75L469.01,45.638L470.1,45.762L471.19,45.609L472.27,45.65L473.36,45.674L474.45,45.674L475.54,45.621L476.62,45.586L477.71,45.515L478.8,45.509L479.88,45.539L480.97,45.474L482.06,45.597L483.14,45.468L484.23,45.515L485.32,45.498L486.41,45.498L487.49,45.539L488.58,45.468L489.67,45.468L490.75,45.533L491.84,45.545L492.93,45.421L494.01,45.486L495.1,45.503L496.19,45.492L497.28,45.439L498.36,45.415L499.45,45.462L500.54,45.41L501.62,45.433L502.71,45.351L503.8,45.38L504.88,45.363L505.97,45.374L507.06,45.398L508.15,45.386L509.23,45.333L510.32,45.38L511.41,45.357L512.49,45.333L513.58,45.345L514.67,45.345L515.75,45.292L516.84,45.351L517.93,45.339L519.02,45.31L520.1,45.31L521.19,45.28L522.28,45.316L523.36,45.275L524.45,45.316L525.54,45.251L526.62,45.298L527.71,45.304L528.8,45.339L529.89,45.245L530.97,45.269L532.06,45.251L533.15,45.239L534.23,45.31L535.32,45.257L536.41,45.257L537.49,45.216L538.58,45.245L539.67,45.222L540.76,45.216L541.84,45.263L542.93,45.216L544.02,45.239L545.1,45.222L546.19,45.21L547.28,45.163L548.36,45.239L549.45,45.222L550.54,45.204L551.63,45.245L552.71,45.192L553.8,45.216L554.89,45.222L555.97,45.228L557.06,45.187L558.15,45.204L559.23,45.245L560.32,45.198L561.41,45.234L562.5,45.216L563.58,45.21L564.67,45.192L565.76,45.181L566.84,45.198L567.93,45.181L569.02,45.204L570.1,45.187L571.19,45.169L572.28,45.181L573.37,45.187L574.45,45.204L575.54,45.169L576.63,45.21L577.71,45.187L578.8,45.163L579.89,45.163L580.97,45.175L582.06,45.163L583.15,45.192L584.23,45.175L585.32,45.169L586.41,45.169L587.5,45.187L588.58,45.163L589.67,45.151L590.76,45.163L591.84,45.204L592.93,45.157L594.02,45.175L595.1,45.181L596.19,45.163L597.28,45.151L598.37,45.192L599.45,45.151L600.54,45.163L601.63,45.157L602.71,45.175L603.8,45.175L604.89,45.175L607.06,45.151L608.15,45.157L609.24,45.157L610.32,45.175L611.41,45.157L612.5,45.157L613.58,45.169L614.67,45.169L616.84,45.163L617.93,45.163L619.02,45.151L620.11,45.157L621.19,45.157L622.28,45.163L623.37,45.151L624.45,45.163L625.54,45.157L626.63,45.151L627.71,45.151L628.8,45.157L629.89,45.151L632.06,45.157L633.15,45.169L637.5,45.151L638.58,45.157L639.67,45.151L642.93,45.151L644.02,45.151L646.19,45.151L650.54,45.151L651.63,45.151L654.89,45.151L655.98,45.157L658.15,45.151L661.41,45.151L669.02,45.151L671.19,45.151L674.46,45.151L675.54,45.151L676.63,45.151L680.98,45.151L695.11,45.151L696.2,45.151L703.8,45.151L719.02,45.151" style="fill:none;stroke:#0000FF" />
</g>
</svg>
