<?xml version="1.0"?>
<!-- Generated by SVGo and Plotinum VG -->
<svg width="720pt" height="432pt" viewBox="0 0 720 432"
	xmlns="http://www.w3.org/2000/svg"
	xmlns:xlink="http://www.w3.org/1999/xlink">
<g transform="scale(1, -1) translate(0, -432)">
<path d="M0,0L720,0L720,432L0,432Z" style="fill:#FFFFFF" />
<text x="358.5" y="-420.45" transform="scale(1, -1)"
	style="font-family:Times;font-weight:normal;font-style:normal;font-size:12px"> </text>
<text x="376.81" y="-3.8613" transform="scale(1, -1)"
	style="font-family:Times;font-weight:normal;font-style:normal;font-size:12px">Costs</text>
<text x="51.555" y="-18.634" transform="scale(1, -1)"
	style="font-family:Times;font-weight:normal;font-style:normal;font-size:10px">0.00</text>
<text x="330.42" y="-18.634" transform="scale(1, -1)"
	style="font-family:Times;font-weight:normal;font-style:normal;font-size:10px">250.00</text>
<text x="614.28" y="-18.634" transform="scale(1, -1)"
	style="font-family:Times;font-weight:normal;font-style:normal;font-size:10px">500.00</text>
<path d="M60.305,28.263L60.305,36.263" style="fill:none;stroke:#000000;stroke-width:0.5" />
<path d="M344.17,28.263L344.17,36.263" style="fill:none;stroke:#000000;stroke-width:0.5" />
<path d="M628.03,28.263L628.03,36.263" style="fill:none;stroke:#000000;stroke-width:0.5" />
<path d="M117.08,32.263L117.08,36.263" style="fill:none;stroke:#000000;stroke-width:0.5" />
<path d="M173.85,32.263L173.85,36.263" style="fill:none;stroke:#000000;stroke-width:0.5" />
<path d="M230.62,32.263L230.62,36.263" style="fill:none;stroke:#000000;stroke-width:0.5" />
<path d="M287.39,32.263L287.39,36.263" style="fill:none;stroke:#000000;stroke-width:0.5" />
<path d="M400.94,32.263L400.94,36.263" style="fill:none;stroke:#000000;stroke-width:0.5" />
<path d="M457.71,32.263L457.71,36.263" style="fill:none;stroke:#000000;stroke-width:0.5" />
<path d="M514.48,32.263L514.48,36.263" style="fill:none;stroke:#000000;stroke-width:0.5" />
<path d="M571.26,32.263L571.26,36.263" style="fill:none;stroke:#000000;stroke-width:0.5" />
<path d="M684.8,32.263L684.8,36.263" style="fill:none;stroke:#000000;stroke-width:0.5" />
<path d="M60.305,36.263L720,36.263" style="fill:none;stroke:#000000;stroke-width:0.5" />
<g transform="rotate(90)">
<text x="152.55" y="11.555" transform="scale(1, -1)"
	style="font-family:Times;font-weight:normal;font-style:normal;font-size:12px">Number of trials (1000000 total)</text>
</g>
<text x="19.055" y="-89.943" transform="scale(1, -1)"
	style="font-family:Times;font-weight:normal;font-style:normal;font-size:10px">10000</text>
<text x="19.055" y="-233.95" transform="scale(1, -1)"
	style="font-family:Times;font-weight:normal;font-style:normal;font-size:10px">40000</text>
<text x="19.055" y="-377.95" transform="scale(1, -1)"
	style="font-family:Times;font-weight:normal;font-style:normal;font-size:10px">70000</text>
<path d="M46.555,93.148L54.555,93.148" style="fill:none;stroke:#000000;stroke-width:0.5" />
<path d="M46.555,237.15L54.555,237.15" style="fill:none;stroke:#000000;stroke-width:0.5" />
<path d="M46.555,381.16L54.555,381.16" style="fill:none;stroke:#000000;stroke-width:0.5" />
<path d="M50.555,141.15L54.555,141.15" style="fill:none;stroke:#000000;stroke-width:0.5" />
<path d="M50.555,189.15L54.555,189.15" style="fill:none;stroke:#000000;stroke-width:0.5" />
<path d="M50.555,285.16L54.555,285.16" style="fill:none;stroke:#000000;stroke-width:0.5" />
<path d="M50.555,333.16L54.555,333.16" style="fill:none;stroke:#000000;stroke-width:0.5" />
<path d="M54.555,45.151L54.555,416.58" style="fill:none;stroke:#000000;stroke-width:0.5" />
<path d="M60.305,416.58L85.285,48.454L86.42,52.654L87.555,48.703L89.826,86.361L90.962,76.084L92.097,62.518L93.233,51.996L94.368,52.601L95.504,79.9L96.639,59.681L97.774,52.491L98.91,118.78L100.05,66.426L101.18,59.259L102.32,74.912L103.45,70.203L104.59,85.602L105.72,80.581L106.86,63.45L107.99,84.071L109.13,73.252L110.26,127.29L111.4,59.729L112.54,81.997L113.67,45.223L114.81,48.963L115.94,84.196L117.08,83.145L118.21,52.88L119.35,46.073L120.48,76.828L121.62,87.873L122.75,54.646L123.89,101.1L125.03,58.059L126.16,54.017L127.3,71.874L128.43,69.339L129.57,77.303L130.7,68.845L131.84,68.711L132.97,54.718L134.11,62.048L135.24,60.925L136.38,65.763L137.52,64.664L138.65,62.014L139.79,66.877L140.92,71.207L142.06,67.261L143.19,71.072L144.33,79.127L145.46,68.797L146.6,72.215L147.73,71.749L148.87,75.056L150.01,69.416L151.14,75.964L152.28,92.447L153.41,73.511L154.55,78.556L155.68,77.466L156.82,71.951L157.95,72.412L159.09,78.676L160.22,80.634L161.36,70.88L162.5,80.068L163.63,68.019L164.77,69.047L165.9,78.551L167.04,76.626L168.17,73.981L169.31,72.868L170.44,72.762L171.58,75.085L172.71,73.002L173.85,77.836L174.98,67.631L176.12,70.093L177.26,72.004L178.39,68.663L179.53,74.005L180.66,69.771L181.8,70.626L182.93,67.213L184.07,70.352L185.2,70.314L186.34,68.015L187.47,67.866L188.61,69.2L189.75,67.832L190.88,73.794L192.02,70.77L193.15,71.255L194.29,69.68L195.42,68.571L196.56,69.843L197.69,70.122L198.83,68.259L199.96,70.664L201.1,70.165L202.24,71.14L203.37,67.395L204.51,70.338L205.64,68.744L206.78,67.626L207.91,69.805L209.05,68.773L210.18,68.365L211.32,68.25L212.45,69.387L213.59,68.663L214.73,68.058L215.86,70.827L217,66.651L218.13,66.666L219.27,67.419L220.4,67.213L221.54,66.747L222.67,67.179L223.81,66.891L224.94,64.098L226.08,64.914L227.22,65.139L228.35,64.338L229.49,65.312L230.62,64.496L231.76,64.107L232.89,63.032L234.03,63.459L235.16,63.843L236.3,64.122L237.43,63.622L238.57,63.013L239.71,62.778L240.84,63.368L241.98,62.475L243.11,62.245L244.25,62.053L245.38,61.472L246.52,61.602L247.65,61.938L248.79,60.762L249.92,61.438L251.06,61.002L252.2,61.227L253.33,60.632L254.47,60.762L255.6,60.162L256.74,60.171L257.87,60.368L259.01,59.763L260.14,60.238L261.28,59.653L262.41,59.513L263.55,59.072L264.69,58.573L265.82,59L266.96,58.376L268.09,58.097L269.23,58.414L270.36,58.265L271.5,58.213L272.63,57.91L273.77,57.454L274.9,57.113L276.04,57.027L277.18,56.787L278.31,56.398L279.45,56.264L280.58,56.686L281.72,55.856L282.85,55.803L283.99,55.875L285.12,55.491L286.26,55.136L287.39,54.853L288.53,55.198L289.67,54.795L290.8,54.958L291.94,54.857L293.07,54.305L294.21,54.651L295.34,54.022L296.48,53.849L297.61,53.897L298.75,53.883L299.88,53.585L301.02,53.552L302.16,53.057L303.29,53.004L304.43,52.697L305.56,53.009L306.7,52.856L307.83,52.736L308.97,52.505L310.1,52.558L311.24,52.486L312.37,52.184L313.51,51.977L314.65,52.073L315.78,51.526L316.92,51.891L318.05,51.728L319.19,51.142L320.32,51.238L321.46,51.478L322.59,50.854L323.73,51.108L324.86,50.624L326,50.662L327.13,50.547L328.27,50.571L329.41,50.681L330.54,50.297L331.68,50.47L332.81,50.091L333.95,49.87L335.08,49.836L336.22,49.928L337.35,49.712L338.49,49.827L339.62,49.582L340.76,49.385L341.9,49.424L343.03,49.428L344.17,49.193L345.3,49.059L346.44,49.304L347.57,48.924L348.71,48.929L349.84,48.891L350.98,48.588L352.11,48.42L353.25,48.617L354.39,48.367L355.52,48.631L356.66,48.545L357.79,48.353L358.93,48.367L360.06,48.055L361.2,48.228L362.33,47.83L363.47,48.089L364.6,47.955L365.74,47.811L366.88,47.739L368.01,47.657L369.15,47.839L370.28,47.518L371.42,47.575L372.55,47.345L373.69,47.614L374.82,47.355L375.96,47.484L377.09,47.398L378.23,47.076L379.37,47.292L380.5,47.196L381.64,47.201L382.77,47.153L383.91,47.014L385.04,47.047L386.18,47.095L387.31,46.731L388.45,46.793L389.58,46.822L390.72,46.918L391.86,46.836L392.99,46.707L394.13,46.812L395.26,46.687L396.4,46.543L397.53,46.644L398.67,46.467L399.8,46.438L400.94,46.423L402.07,46.519L403.21,46.308L404.35,46.462L405.48,46.38L406.62,46.246L407.75,46.289L408.89,46.212L410.02,46.337L411.16,46.188L412.29,46.198L413.43,46.289L414.56,46.14L415.7,46.092L416.84,46.063L417.97,46.102L419.11,45.953L420.24,46.054L421.38,46.03L422.51,46.044L423.65,46.054L424.78,45.91L425.92,45.996L427.05,45.977L428.19,45.905L429.33,45.857L430.46,45.713L431.6,45.742L432.73,45.919L433.87,45.756L435,45.833L436.14,45.756L437.27,45.723L438.41,45.713L439.54,45.718L440.68,45.622L441.82,45.617L442.95,45.588L444.09,45.583L445.22,45.655L446.36,45.569L447.49,45.535L448.63,45.636L449.76,45.526L450.9,45.531L452.03,45.559L453.17,45.588L454.31,45.511L455.44,45.545L456.58,45.598L457.71,45.492L458.85,45.492L459.98,45.521L461.12,45.459L462.25,45.468L463.39,45.454L464.52,45.516L465.66,45.492L466.8,45.478L467.93,45.401L469.07,45.401L470.2,45.444L471.34,45.43L472.47,45.353L473.61,45.401L474.74,45.343L475.88,45.42L477.01,45.348L478.15,45.396L479.29,45.387L480.42,45.329L481.56,45.348L482.69,45.315L483.83,45.334L484.96,45.358L486.1,45.315L487.23,45.339L488.37,45.3L489.5,45.358L490.64,45.267L491.77,45.3L492.91,45.271L494.05,45.271L495.18,45.315L496.32,45.291L497.45,45.271L498.59,45.276L499.72,45.257L500.86,45.233L501.99,45.262L503.13,45.209L504.26,45.223L505.4,45.257L506.54,45.281L507.67,45.281L508.81,45.219L509.94,45.252L511.08,45.233L512.21,45.262L513.35,45.209L514.48,45.209L515.62,45.195L516.75,45.228L517.89,45.209L519.03,45.233L520.16,45.238L521.3,45.19L522.43,45.214L523.57,45.243L524.7,45.19L525.84,45.199L526.97,45.199L528.11,45.219L529.24,45.238L530.38,45.228L531.52,45.219L532.65,45.19L533.79,45.214L534.92,45.195L536.06,45.185L537.19,45.209L538.33,45.175L539.46,45.175L540.6,45.199L541.73,45.19L542.87,45.185L544.01,45.18L545.14,45.175L546.28,45.19L547.41,45.185L548.55,45.171L549.68,45.18L550.82,45.171L551.95,45.204L553.09,45.166L554.22,45.175L555.36,45.166L556.5,45.166L557.63,45.166L558.77,45.18L559.9,45.171L561.04,45.151L562.17,45.171L563.31,45.161L564.44,45.171L565.58,45.161L566.71,45.156L567.85,45.166L568.99,45.171L570.12,45.161L571.26,45.175L572.39,45.171L573.53,45.161L574.66,45.166L575.8,45.151L576.93,45.151L578.07,45.156L580.34,45.156L581.48,45.156L582.61,45.151L583.75,45.151L584.88,45.166L586.02,45.151L587.15,45.161L588.29,45.171L589.42,45.151L590.56,45.161L591.69,45.156L592.83,45.151L593.97,45.151L595.1,45.156L597.37,45.151L598.51,45.151L600.78,45.151L601.91,45.156L604.18,45.151L605.32,45.156L606.46,45.151L607.59,45.156L608.73,45.151L611,45.151L612.13,45.156L613.27,45.161L618.95,45.151L621.22,45.151L622.35,45.156L623.49,45.161L626.89,45.151L631.44,45.156L632.57,45.151L634.84,45.151L638.25,45.151L641.65,45.151L645.06,45.151L648.47,45.156L660.96,45.151L662.09,45.151L663.23,45.151L670.04,45.151L682.53,45.151L687.07,45.151L720,45.151" style="fill:none;stroke:#0000FF" />
</g>
</svg>
