<?xml version="1.0"?>
<!-- Generated by SVGo and Plotinum VG -->
<svg width="720pt" height="432pt" viewBox="0 0 720 432"
	xmlns="http://www.w3.org/2000/svg"
	xmlns:xlink="http://www.w3.org/1999/xlink">
<g transform="scale(1, -1) translate(0, -432)">
<path d="M0,0L720,0L720,432L0,432Z" style="fill:#FFFFFF" />
<text x="358.5" y="-420.45" transform="scale(1, -1)"
	style="font-family:Times;font-weight:normal;font-style:normal;font-size:12px"> </text>
<text x="379.31" y="-3.8613" transform="scale(1, -1)"
	style="font-family:Times;font-weight:normal;font-style:normal;font-size:12px">Costs</text>
<text x="56.555" y="-18.634" transform="scale(1, -1)"
	style="font-family:Times;font-weight:normal;font-style:normal;font-size:10px">0.00</text>
<text x="368.14" y="-18.634" transform="scale(1, -1)"
	style="font-family:Times;font-weight:normal;font-style:normal;font-size:10px">250.00</text>
<text x="684.72" y="-18.634" transform="scale(1, -1)"
	style="font-family:Times;font-weight:normal;font-style:normal;font-size:10px">500.00</text>
<path d="M65.305,28.263L65.305,36.263" style="fill:none;stroke:#000000;stroke-width:0.5" />
<path d="M381.89,28.263L381.89,36.263" style="fill:none;stroke:#000000;stroke-width:0.5" />
<path d="M698.47,28.263L698.47,36.263" style="fill:none;stroke:#000000;stroke-width:0.5" />
<path d="M128.62,32.263L128.62,36.263" style="fill:none;stroke:#000000;stroke-width:0.5" />
<path d="M191.94,32.263L191.94,36.263" style="fill:none;stroke:#000000;stroke-width:0.5" />
<path d="M255.25,32.263L255.25,36.263" style="fill:none;stroke:#000000;stroke-width:0.5" />
<path d="M318.57,32.263L318.57,36.263" style="fill:none;stroke:#000000;stroke-width:0.5" />
<path d="M445.21,32.263L445.21,36.263" style="fill:none;stroke:#000000;stroke-width:0.5" />
<path d="M508.52,32.263L508.52,36.263" style="fill:none;stroke:#000000;stroke-width:0.5" />
<path d="M571.84,32.263L571.84,36.263" style="fill:none;stroke:#000000;stroke-width:0.5" />
<path d="M635.16,32.263L635.16,36.263" style="fill:none;stroke:#000000;stroke-width:0.5" />
<path d="M65.305,36.263L720,36.263" style="fill:none;stroke:#000000;stroke-width:0.5" />
<g transform="rotate(90)">
<text x="152.55" y="11.555" transform="scale(1, -1)"
	style="font-family:Times;font-weight:normal;font-style:normal;font-size:12px">Number of trials (1000000 total)</text>
</g>
<text x="24.055" y="-112.03" transform="scale(1, -1)"
	style="font-family:Times;font-weight:normal;font-style:normal;font-size:10px">30000</text>
<text x="24.055" y="-252.19" transform="scale(1, -1)"
	style="font-family:Times;font-weight:normal;font-style:normal;font-size:10px">90000</text>
<text x="19.055" y="-392.36" transform="scale(1, -1)"
	style="font-family:Times;font-weight:normal;font-style:normal;font-size:10px">150000</text>
<path d="M51.555,115.23L59.555,115.23" style="fill:none;stroke:#000000;stroke-width:0.5" />
<path d="M51.555,255.4L59.555,255.4" style="fill:none;stroke:#000000;stroke-width:0.5" />
<path d="M51.555,395.56L59.555,395.56" style="fill:none;stroke:#000000;stroke-width:0.5" />
<path d="M55.555,185.31L59.555,185.31" style="fill:none;stroke:#000000;stroke-width:0.5" />
<path d="M55.555,325.48L59.555,325.48" style="fill:none;stroke:#000000;stroke-width:0.5" />
<path d="M59.555,45.151L59.555,416.58" style="fill:none;stroke:#000000;stroke-width:0.5" />
<path d="M65.305,416.58L98.229,48.599L100.76,52.012L103.29,48.452L104.56,74.168L105.83,85.314L107.09,78.144L108.36,74.374L109.63,88.645L110.89,65.947L112.16,48.546L113.43,84.807L114.69,51.798L115.96,55.288L117.22,96.179L118.49,55.468L119.76,62.457L121.02,77.485L122.29,48.595L123.56,51.956L127.36,52.571L128.62,59.343L129.89,73.904L132.42,84.424L133.69,70.61L136.22,82.211L137.49,45.45L138.75,55.855L140.02,86.956L141.28,53.239L142.55,71.858L143.82,65.693L145.08,56.295L146.35,49.153L147.62,51.625L148.88,53.853L150.15,68.44L151.42,52.403L152.68,55.091L153.95,53.288L155.21,53.634L156.48,55.355L157.75,75.679L159.01,56.358L160.28,56.344L161.55,59.093L162.81,58.645L164.08,52.97L165.35,57.32L166.61,61.878L167.88,59.682L169.14,57.168L170.41,53.522L171.68,58.133L172.94,61.006L174.21,58.402L175.48,59.173L176.74,59.432L178.01,59.67L179.27,57.269L180.54,63.296L181.81,62.387L183.07,58.836L184.34,68.706L185.61,60.852L186.87,56.818L188.14,64.508L189.41,54.975L190.67,56.897L191.94,60.28L193.2,53.8L194.47,57.374L195.74,56.851L197,56.633L198.27,57.911L199.54,54.388L200.8,57.005L202.07,54.236L203.34,56.577L204.6,55.776L205.87,55.811L207.13,59.761L208.4,55.991L209.67,57.423L210.93,58.904L212.2,54.97L213.47,56.166L214.73,55.598L216,53.741L217.26,55.671L218.53,55.4L219.8,53.65L221.06,54.802L222.33,53.867L223.6,53.185L224.86,55.984L226.13,53.849L227.4,53.391L228.66,55.049L229.93,53.659L231.19,53.718L232.46,55.115L233.73,54.052L234.99,54.398L236.26,54.127L237.53,53.522L238.79,52.772L240.06,53.16L241.33,53.143L242.59,53.412L243.86,52.928L245.12,52.762L246.39,52.531L247.66,52.508L248.92,52.393L250.19,52.41L251.46,52.839L252.72,52.683L253.99,51.734L255.25,52.349L256.52,51.585L257.79,51.559L259.05,52.966L260.32,51.412L261.59,51.555L262.85,51.66L264.12,50.865L265.39,51.407L266.65,50.779L267.92,50.452L269.18,50.915L270.45,50.384L271.72,50.151L272.98,50.499L274.25,50.534L275.52,50.347L276.78,50.417L278.05,50.267L279.32,49.994L280.58,50.307L281.85,50.038L283.11,49.952L284.38,49.896L285.65,49.971L286.91,49.585L288.18,49.644L289.45,49.522L290.71,49.319L291.98,49.13L293.25,49.347L294.51,48.941L295.78,48.873L297.04,48.999L298.31,48.733L299.58,49.025L300.84,48.831L302.11,48.592L303.38,48.782L304.64,48.427L305.91,48.768L307.17,48.546L308.44,48.401L309.71,48.31L310.97,48.349L312.24,48.118L313.51,48.015L314.77,48.074L316.04,47.915L317.31,47.775L318.57,47.885L319.84,47.672L321.1,47.763L322.37,47.73L323.64,47.674L324.9,47.483L326.17,47.621L327.44,47.642L328.7,47.417L329.97,47.614L331.24,47.345L332.5,47.245L333.77,47.268L335.03,47.223L336.3,47.209L337.57,47.149L338.83,47.048L340.1,47.107L341.37,47.058L342.63,46.938L343.9,46.927L345.16,46.782L346.43,46.934L347.7,46.742L348.96,46.773L350.23,46.691L351.5,46.794L352.76,46.637L354.03,46.693L355.3,46.639L356.56,46.509L357.83,46.539L359.09,46.481L360.36,46.404L361.63,46.42L362.89,46.427L364.16,46.49L365.43,46.371L366.69,46.322L367.96,46.333L369.23,46.338L370.49,46.198L371.76,46.24L373.02,46.135L374.29,46.168L375.56,46.14L376.82,46.02L378.09,46.151L379.36,46.046L380.62,46.041L381.89,45.948L383.15,45.985L384.42,45.929L385.69,45.971L386.95,45.913L388.22,45.819L389.49,45.862L390.75,45.866L392.02,45.819L393.29,45.829L394.55,45.756L395.82,45.798L397.08,45.85L398.35,45.759L399.62,45.703L400.88,45.703L402.15,45.675L403.42,45.7L404.68,45.663L405.95,45.57L407.22,45.654L408.48,45.654L409.75,45.619L411.01,45.637L412.28,45.581L413.55,45.656L414.81,45.598L416.08,45.53L417.35,45.558L418.61,45.539L419.88,45.544L421.14,45.495L422.41,45.544L423.68,45.516L424.94,45.52L426.21,45.476L427.48,45.506L428.74,45.499L430.01,45.471L431.28,45.429L432.54,45.457L433.81,45.476L435.07,45.432L436.34,45.436L437.61,45.404L438.87,45.373L440.14,45.422L441.41,45.418L442.67,45.42L443.94,45.329L445.21,45.348L446.47,45.352L447.74,45.345L449,45.359L450.27,45.322L451.54,45.362L452.8,45.303L454.07,45.362L455.34,45.362L456.6,45.287L457.87,45.348L459.13,45.329L460.4,45.299L461.67,45.31L462.93,45.268L464.2,45.261L465.47,45.245L466.73,45.273L468,45.287L469.27,45.28L470.53,45.268L471.8,45.24L473.06,45.261L474.33,45.256L475.6,45.28L476.86,45.228L478.13,45.238L479.4,45.242L480.66,45.273L481.93,45.226L483.2,45.245L484.46,45.231L485.73,45.249L486.99,45.233L488.26,45.242L489.53,45.245L490.79,45.231L492.06,45.217L493.33,45.221L494.59,45.219L495.86,45.203L497.12,45.198L498.39,45.219L499.66,45.214L500.92,45.193L502.19,45.221L503.46,45.2L504.72,45.198L505.99,45.198L507.26,45.198L508.52,45.189L509.79,45.184L511.05,45.186L512.32,45.189L513.59,45.189L514.85,45.205L516.12,45.207L517.39,45.184L518.65,45.17L519.92,45.184L521.19,45.182L522.45,45.179L523.72,45.189L524.98,45.179L526.25,45.172L527.52,45.177L528.78,45.186L530.05,45.175L531.32,45.165L532.58,45.172L533.85,45.172L535.12,45.165L536.38,45.168L537.65,45.168L538.91,45.175L540.18,45.184L541.45,45.163L542.71,45.17L543.98,45.165L545.25,45.175L546.51,45.161L547.78,45.177L549.04,45.158L550.31,45.165L551.58,45.17L552.84,45.163L555.38,45.17L556.64,45.158L557.91,45.161L559.18,45.165L560.44,45.158L561.71,45.163L562.97,45.161L564.24,45.161L565.51,45.158L566.77,45.161L568.04,45.161L569.31,45.156L570.57,45.158L571.84,45.161L573.11,45.151L574.37,45.161L575.64,45.151L576.9,45.158L578.17,45.156L579.44,45.156L580.7,45.151L581.97,45.156L583.24,45.158L584.5,45.154L585.77,45.158L588.3,45.154L589.57,45.151L590.83,45.156L592.1,45.151L593.37,45.154L594.63,45.161L595.9,45.151L597.17,45.151L598.43,45.151L599.7,45.156L600.96,45.151L602.23,45.151L603.5,45.151L606.03,45.154L607.3,45.151L608.56,45.154L609.83,45.154L611.1,45.151L612.36,45.156L613.63,45.151L614.89,45.156L616.16,45.151L618.69,45.156L619.96,45.151L621.23,45.151L623.76,45.154L625.02,45.151L627.56,45.154L628.82,45.151L630.09,45.151L631.36,45.151L632.62,45.151L633.89,45.151L640.22,45.154L644.02,45.154L646.55,45.151L647.82,45.151L649.09,45.151L674.41,45.151L720,45.151" style="fill:none;stroke:#0000FF" />
</g>
</svg>
