<?xml version="1.0"?>
<!-- Generated by SVGo and Plotinum VG -->
<svg width="720pt" height="432pt" viewBox="0 0 720 432"
	xmlns="http://www.w3.org/2000/svg"
	xmlns:xlink="http://www.w3.org/1999/xlink">
<g transform="scale(1, -1) translate(0, -432)">
<path d="M0,0L720,0L720,432L0,432Z" style="fill:#FFFFFF" />
<text x="358.5" y="-420.45" transform="scale(1, -1)"
	style="font-family:Times;font-weight:normal;font-style:normal;font-size:12px"> </text>
<text x="385.56" y="-3.8613" transform="scale(1, -1)"
	style="font-family:Times;font-weight:normal;font-style:normal;font-size:12px">Costs</text>
<text x="69.055" y="-18.634" transform="scale(1, -1)"
	style="font-family:Times;font-weight:normal;font-style:normal;font-size:10px">0.00</text>
<text x="346.71" y="-18.634" transform="scale(1, -1)"
	style="font-family:Times;font-weight:normal;font-style:normal;font-size:10px">250.00</text>
<text x="629.37" y="-18.634" transform="scale(1, -1)"
	style="font-family:Times;font-weight:normal;font-style:normal;font-size:10px">500.00</text>
<path d="M77.805,28.263L77.805,36.263" style="fill:none;stroke:#000000;stroke-width:0.5" />
<path d="M360.46,28.263L360.46,36.263" style="fill:none;stroke:#000000;stroke-width:0.5" />
<path d="M643.12,28.263L643.12,36.263" style="fill:none;stroke:#000000;stroke-width:0.5" />
<path d="M134.34,32.263L134.34,36.263" style="fill:none;stroke:#000000;stroke-width:0.5" />
<path d="M190.87,32.263L190.87,36.263" style="fill:none;stroke:#000000;stroke-width:0.5" />
<path d="M247.4,32.263L247.4,36.263" style="fill:none;stroke:#000000;stroke-width:0.5" />
<path d="M303.93,32.263L303.93,36.263" style="fill:none;stroke:#000000;stroke-width:0.5" />
<path d="M416.99,32.263L416.99,36.263" style="fill:none;stroke:#000000;stroke-width:0.5" />
<path d="M473.52,32.263L473.52,36.263" style="fill:none;stroke:#000000;stroke-width:0.5" />
<path d="M530.05,32.263L530.05,36.263" style="fill:none;stroke:#000000;stroke-width:0.5" />
<path d="M586.59,32.263L586.59,36.263" style="fill:none;stroke:#000000;stroke-width:0.5" />
<path d="M699.65,32.263L699.65,36.263" style="fill:none;stroke:#000000;stroke-width:0.5" />
<path d="M77.805,36.263L720,36.263" style="fill:none;stroke:#000000;stroke-width:0.5" />
<g transform="rotate(90)">
<text x="152.55" y="11.555" transform="scale(1, -1)"
	style="font-family:Times;font-weight:normal;font-style:normal;font-size:12px">Number of trials (1000000 total)</text>
</g>
<text x="24.055" y="-113.24" transform="scale(1, -1)"
	style="font-family:Times;font-weight:normal;font-style:normal;font-size:10px">25000.00</text>
<text x="24.055" y="-255.84" transform="scale(1, -1)"
	style="font-family:Times;font-weight:normal;font-style:normal;font-size:10px">75000.00</text>
<text x="19.055" y="-398.45" transform="scale(1, -1)"
	style="font-family:Times;font-weight:normal;font-style:normal;font-size:10px">125000.00</text>
<path d="M64.055,116.45L72.055,116.45" style="fill:none;stroke:#000000;stroke-width:0.5" />
<path d="M64.055,259.05L72.055,259.05" style="fill:none;stroke:#000000;stroke-width:0.5" />
<path d="M64.055,401.65L72.055,401.65" style="fill:none;stroke:#000000;stroke-width:0.5" />
<path d="M68.055,59.409L72.055,59.409" style="fill:none;stroke:#000000;stroke-width:0.5" />
<path d="M68.055,87.929L72.055,87.929" style="fill:none;stroke:#000000;stroke-width:0.5" />
<path d="M68.055,144.97L72.055,144.97" style="fill:none;stroke:#000000;stroke-width:0.5" />
<path d="M68.055,173.49L72.055,173.49" style="fill:none;stroke:#000000;stroke-width:0.5" />
<path d="M68.055,202.01L72.055,202.01" style="fill:none;stroke:#000000;stroke-width:0.5" />
<path d="M68.055,230.53L72.055,230.53" style="fill:none;stroke:#000000;stroke-width:0.5" />
<path d="M68.055,287.57L72.055,287.57" style="fill:none;stroke:#000000;stroke-width:0.5" />
<path d="M68.055,316.09L72.055,316.09" style="fill:none;stroke:#000000;stroke-width:0.5" />
<path d="M68.055,344.61L72.055,344.61" style="fill:none;stroke:#000000;stroke-width:0.5" />
<path d="M68.055,373.13L72.055,373.13" style="fill:none;stroke:#000000;stroke-width:0.5" />
<path d="M72.055,45.151L72.055,416.58" style="fill:none;stroke:#000000;stroke-width:0.5" />
<path d="M77.805,416.58L104.94,63.399L107.2,52.164L108.33,76.846L109.46,66.932L110.59,48.557L113.98,74.647L115.12,76.563L116.25,69.399L117.38,77.191L118.51,59.754L119.64,51.985L120.77,55.595L121.9,52.085L123.03,81.86L124.16,100.2L125.29,77.359L126.42,69.83L127.55,92.161L128.68,56.397L129.81,63.199L133.21,81.497L134.34,56.06L135.47,72.502L136.6,45.964L137.73,95.535L138.86,57.563L139.99,50.314L141.12,76.278L142.25,50.393L143.38,50.391L144.51,71.227L145.64,50.767L146.77,70.965L147.9,68.951L149.03,52.464L150.16,49.392L151.3,51.748L152.43,51.389L153.56,55.173L154.69,59.28L155.82,56.348L156.95,54.771L158.08,72.468L159.21,53.933L160.34,77.391L161.47,67.91L162.6,59.28L163.73,62.4L164.86,74.017L165.99,60.127L167.12,57.555L168.25,61.984L169.39,80.442L170.52,59.931L171.65,62.922L172.78,63.41L173.91,66.31L175.04,64.32L176.17,60.954L177.3,61.61L178.43,61.499L179.56,60.729L180.69,60.495L181.82,57.68L182.95,62.56L184.08,65.366L185.21,63.053L186.34,59.223L187.48,64.728L188.61,58.245L189.74,58.042L190.87,61.405L192,57.426L193.13,62.52L194.26,60.849L195.39,59.782L196.52,61.365L197.65,60.15L198.78,58.522L199.91,58.373L201.04,59.454L202.17,57.378L203.3,57.13L204.43,61.647L205.57,58.832L206.7,61.75L207.83,63.424L208.96,58.005L210.09,60.686L211.22,58.949L212.35,55.641L213.48,58.057L214.61,58.661L215.74,59.899L216.87,57.874L218,59.158L219.13,57.098L220.26,58.43L221.39,59.172L222.52,55.484L223.66,56.631L224.79,59.745L225.92,55.601L227.05,57.535L228.18,56.517L229.31,58.405L230.44,56.522L231.57,56.211L232.7,56.254L233.83,55.718L234.96,55.285L236.09,55.692L237.22,54.82L238.35,55.47L239.48,54.868L240.61,55.441L241.75,54.572L242.88,54.603L244.01,55.173L245.14,54.928L246.27,54.178L247.4,54.572L248.53,54.346L249.66,54.366L250.79,53.933L251.92,54.386L253.05,54.09L254.18,53.921L255.31,53.796L256.44,54.403L257.57,53.217L258.7,52.963L259.84,53.234L260.97,52.587L262.1,52.675L263.23,52.843L264.36,52.778L265.49,52.877L266.62,52.589L267.75,52.532L268.88,52.099L270.01,52.224L271.14,52.435L272.27,51.591L273.4,51.842L274.53,51.896L275.66,51.839L276.79,51.865L277.93,51.135L279.06,51.349L280.19,51.275L281.32,50.975L282.45,50.855L283.58,50.462L284.71,50.978L285.84,50.53L286.97,50.644L288.1,50.633L289.23,50.242L290.36,50.607L291.49,50.405L292.62,49.889L293.75,50.048L294.88,49.794L296.02,50.04L297.15,49.504L298.28,49.792L299.41,49.589L300.54,49.498L301.67,49.466L302.8,49.335L303.93,49.324L305.06,49.073L306.19,48.896L307.32,49.076L308.45,48.984L309.58,48.833L310.71,48.779L311.84,48.839L312.97,48.534L314.11,48.762L315.24,48.585L316.37,48.44L317.5,48.508L318.63,48.237L319.76,48.249L320.89,48.26L322.02,48.072L323.15,48.286L324.28,47.821L325.41,48.015L326.54,47.972L327.67,47.715L328.8,47.658L329.93,47.764L331.06,47.664L332.2,47.727L333.33,47.587L334.46,47.581L335.59,47.524L336.72,47.413L337.85,47.467L338.98,47.233L340.11,47.313L341.24,47.422L342.37,47.373L343.5,47.065L344.63,47.131L345.76,47.151L346.89,46.908L348.02,46.982L349.15,46.894L350.29,46.826L351.42,46.854L352.55,46.734L353.68,46.8L354.81,46.691L355.94,46.62L357.07,46.828L358.2,46.72L359.33,46.788L360.46,46.649L361.59,46.509L362.72,46.46L363.85,46.443L364.98,46.612L366.11,46.432L367.24,46.401L368.38,46.375L369.51,46.281L370.64,46.295L371.77,46.312L372.9,46.315L374.03,46.272L375.16,46.227L376.29,46.258L377.42,46.044L378.55,46.155L379.68,46.035L380.81,46.078L381.94,46.101L383.07,45.993L384.2,46.064L385.33,46.016L386.47,46.035L387.6,45.927L388.73,45.862L389.86,45.947L390.99,45.904L392.12,45.91L393.25,45.859L394.38,45.927L395.51,45.836L396.64,45.836L397.77,45.745L398.9,45.796L400.03,45.767L401.16,45.682L402.29,45.722L403.42,45.742L404.56,45.648L405.69,45.685L406.82,45.653L407.95,45.593L409.08,45.619L410.21,45.622L411.34,45.665L412.47,45.625L413.6,45.593L414.73,45.554L415.86,45.565L416.99,45.579L418.12,45.599L419.25,45.548L420.38,45.476L421.51,45.471L422.65,45.505L423.78,45.522L424.91,45.468L426.04,45.488L427.17,45.505L428.3,45.488L429.43,45.457L430.56,45.462L431.69,45.405L432.82,45.474L433.95,45.408L435.08,45.488L436.21,45.391L437.34,45.371L438.47,45.391L439.6,45.371L440.74,45.365L441.87,45.362L443,45.32L444.13,45.399L445.26,45.317L446.39,45.337L447.52,45.317L448.65,45.305L449.78,45.345L450.91,45.308L452.04,45.314L453.17,45.325L454.3,45.308L455.43,45.32L456.56,45.34L457.69,45.283L458.83,45.305L459.96,45.285L461.09,45.271L462.22,45.297L463.35,45.3L464.48,45.245L465.61,45.248L466.74,45.251L467.87,45.277L469,45.274L470.13,45.251L471.26,45.26L472.39,45.248L473.52,45.265L474.65,45.251L475.78,45.237L476.92,45.217L478.05,45.217L479.18,45.211L480.31,45.254L481.44,45.234L482.57,45.223L483.7,45.211L484.83,45.223L485.96,45.228L487.09,45.211L488.22,45.22L489.35,45.208L490.48,45.203L491.61,45.206L492.74,45.214L493.87,45.206L495.01,45.223L496.14,45.206L497.27,45.183L498.4,45.197L499.53,45.206L500.66,45.171L501.79,45.174L502.92,45.183L504.05,45.186L505.18,45.168L506.31,45.177L507.44,45.186L508.57,45.186L509.7,45.188L510.83,45.203L511.96,45.177L513.1,45.183L514.23,45.177L515.36,45.174L516.49,45.18L517.62,45.2L518.75,45.168L519.88,45.171L521.01,45.171L522.14,45.16L523.27,45.186L524.4,45.188L525.53,45.16L526.66,45.16L527.79,45.18L528.92,45.154L530.05,45.168L531.19,45.174L532.32,45.163L533.45,45.171L534.58,45.168L535.71,45.163L536.84,45.166L537.97,45.16L539.1,45.163L540.23,45.157L541.36,45.16L542.49,45.171L543.62,45.163L544.75,45.171L545.88,45.163L547.01,45.16L548.14,45.16L549.28,45.16L550.41,45.154L551.54,45.151L552.67,45.166L553.8,45.16L554.93,45.157L556.06,45.16L557.19,45.157L558.32,45.154L559.45,45.16L560.58,45.163L561.71,45.154L562.84,45.157L565.1,45.151L566.23,45.163L567.37,45.157L568.5,45.151L569.63,45.151L570.76,45.16L571.89,45.154L573.02,45.154L574.15,45.151L575.28,45.154L576.41,45.163L578.67,45.16L580.93,45.157L582.06,45.151L583.19,45.151L584.32,45.151L585.46,45.151L588.85,45.154L589.98,45.151L591.11,45.151L592.24,45.151L594.5,45.157L595.63,45.157L596.76,45.151L597.89,45.151L599.02,45.151L600.15,45.157L601.28,45.154L602.41,45.151L605.81,45.154L606.94,45.151L608.07,45.151L609.2,45.154L610.33,45.151L611.46,45.154L613.72,45.151L614.85,45.151L615.98,45.151L625.03,45.151L634.07,45.154L636.33,45.151L653.29,45.151L662.34,45.151L665.73,45.151L703.04,45.151L720,45.151" style="fill:none;stroke:#0000FF" />
</g>
</svg>
