<?xml version="1.0"?>
<!-- Generated by SVGo and Plotinum VG -->
<svg width="720pt" height="432pt" viewBox="0 0 720 432"
	xmlns="http://www.w3.org/2000/svg"
	xmlns:xlink="http://www.w3.org/1999/xlink">
<g transform="scale(1, -1) translate(0, -432)">
<path d="M0,0L720,0L720,432L0,432Z" style="fill:#FFFFFF" />
<text x="358.5" y="-420.45" transform="scale(1, -1)"
	style="font-family:Times;font-weight:normal;font-style:normal;font-size:12px"> </text>
<text x="379.31" y="-3.8613" transform="scale(1, -1)"
	style="font-family:Times;font-weight:normal;font-style:normal;font-size:12px">Costs</text>
<text x="56.555" y="-18.634" transform="scale(1, -1)"
	style="font-family:Times;font-weight:normal;font-style:normal;font-size:10px">0.00</text>
<text x="328.97" y="-18.634" transform="scale(1, -1)"
	style="font-family:Times;font-weight:normal;font-style:normal;font-size:10px">250.00</text>
<text x="606.38" y="-18.634" transform="scale(1, -1)"
	style="font-family:Times;font-weight:normal;font-style:normal;font-size:10px">500.00</text>
<path d="M65.305,28.263L65.305,36.263" style="fill:none;stroke:#000000;stroke-width:0.5" />
<path d="M342.72,28.263L342.72,36.263" style="fill:none;stroke:#000000;stroke-width:0.5" />
<path d="M620.13,28.263L620.13,36.263" style="fill:none;stroke:#000000;stroke-width:0.5" />
<path d="M120.79,32.263L120.79,36.263" style="fill:none;stroke:#000000;stroke-width:0.5" />
<path d="M176.27,32.263L176.27,36.263" style="fill:none;stroke:#000000;stroke-width:0.5" />
<path d="M231.75,32.263L231.75,36.263" style="fill:none;stroke:#000000;stroke-width:0.5" />
<path d="M287.24,32.263L287.24,36.263" style="fill:none;stroke:#000000;stroke-width:0.5" />
<path d="M398.2,32.263L398.2,36.263" style="fill:none;stroke:#000000;stroke-width:0.5" />
<path d="M453.68,32.263L453.68,36.263" style="fill:none;stroke:#000000;stroke-width:0.5" />
<path d="M509.17,32.263L509.17,36.263" style="fill:none;stroke:#000000;stroke-width:0.5" />
<path d="M564.65,32.263L564.65,36.263" style="fill:none;stroke:#000000;stroke-width:0.5" />
<path d="M675.61,32.263L675.61,36.263" style="fill:none;stroke:#000000;stroke-width:0.5" />
<path d="M65.305,36.263L720,36.263" style="fill:none;stroke:#000000;stroke-width:0.5" />
<g transform="rotate(90)">
<text x="152.55" y="11.555" transform="scale(1, -1)"
	style="font-family:Times;font-weight:normal;font-style:normal;font-size:12px">Number of trials (1000000 total)</text>
</g>
<text x="24.055" y="-107.28" transform="scale(1, -1)"
	style="font-family:Times;font-weight:normal;font-style:normal;font-size:10px">30000</text>
<text x="24.055" y="-237.95" transform="scale(1, -1)"
	style="font-family:Times;font-weight:normal;font-style:normal;font-size:10px">90000</text>
<text x="19.055" y="-368.62" transform="scale(1, -1)"
	style="font-family:Times;font-weight:normal;font-style:normal;font-size:10px">150000</text>
<path d="M51.555,110.48L59.555,110.48" style="fill:none;stroke:#000000;stroke-width:0.5" />
<path d="M51.555,241.15L59.555,241.15" style="fill:none;stroke:#000000;stroke-width:0.5" />
<path d="M51.555,371.82L59.555,371.82" style="fill:none;stroke:#000000;stroke-width:0.5" />
<path d="M55.555,175.82L59.555,175.82" style="fill:none;stroke:#000000;stroke-width:0.5" />
<path d="M55.555,306.49L59.555,306.49" style="fill:none;stroke:#000000;stroke-width:0.5" />
<path d="M59.555,45.151L59.555,416.58" style="fill:none;stroke:#000000;stroke-width:0.5" />
<path d="M65.305,416.58L90.827,59.179L94.156,70.915L95.265,62.426L98.594,52.147L99.704,81.534L100.81,80.273L103.03,101.16L104.14,69.306L105.25,55.424L106.36,58.754L107.47,48.525L109.69,70.654L110.8,83.64L111.91,51.833L113.02,58.893L114.13,55.744L115.24,48.666L116.35,62.918L118.57,48.603L119.68,63.384L120.79,85.04L121.9,52.177L123.01,45.369L124.12,63.863L125.23,104.59L126.34,49.801L127.45,52.347L128.55,57.112L129.66,57.14L130.77,61.507L131.88,52.828L132.99,53.948L134.1,69.833L135.21,72.544L136.32,49.411L137.43,51.5L138.54,55.381L139.65,59.876L140.76,53.251L141.87,52.43L142.98,49.291L144.09,66.387L145.2,54.832L146.31,66.623L147.42,55.285L148.53,56.644L149.64,54.969L150.75,56.306L151.86,51.748L152.97,49.612L154.08,86.46L155.19,72.442L156.3,53.869L157.41,52.388L158.52,58.477L159.63,60.594L160.73,57.232L161.84,53.834L162.95,59.943L164.06,56.925L165.17,57.926L166.28,56.522L167.39,51.959L168.5,55.947L169.61,60.692L170.72,58.266L171.83,55.276L172.94,57.497L174.05,54.239L175.16,55.42L176.27,55.217L177.38,51.365L178.49,53.011L179.6,59.73L180.71,59.37L181.82,54.529L182.93,54.117L184.04,58.737L185.15,56.724L186.26,52.488L187.37,51.637L188.48,56.313L189.59,59.832L190.7,56.25L191.81,56.524L192.91,56.321L194.02,56.735L195.13,56.537L196.24,50.755L197.35,51.576L198.46,54.12L199.57,58.26L200.68,53.974L201.79,53.194L202.9,52.43L204.01,54.636L205.12,53.146L206.23,53.342L207.34,51.476L208.45,53.151L209.56,55.723L210.67,53.083L211.78,50.504L212.89,52.153L214,56.877L215.11,54.1L216.22,51.816L217.33,51.515L218.44,52.528L219.55,52.377L220.66,51.733L221.77,50.733L222.88,52.099L223.99,53.227L225.09,52.401L226.2,50.552L227.31,50.666L228.42,51.977L229.53,51.585L230.64,50.568L231.75,50.023L232.86,51.541L233.97,50.855L235.08,51.772L236.19,50.783L237.3,50.206L238.41,50.668L239.52,51.18L240.63,50.184L241.74,49.507L242.85,49.781L243.96,51.661L245.07,50.241L246.18,49.494L247.29,49.649L248.4,50.128L249.51,50.557L250.62,49.655L251.73,49.666L252.84,49.453L253.95,49.884L255.06,49.59L256.17,48.764L257.27,48.987L258.38,49.492L259.49,49.57L260.6,49.089L261.71,48.917L262.82,49.047L263.93,49.074L265.04,48.586L266.15,48.351L267.26,48.122L268.37,48.703L269.48,49.202L270.59,48.531L271.7,48.161L272.81,48.451L273.92,48.579L275.03,48.216L276.14,47.784L277.25,47.767L278.36,48.226L279.47,48.318L280.58,47.928L281.69,47.636L282.8,47.852L283.91,48.052L285.02,47.743L286.13,47.497L287.24,47.551L288.34,47.693L289.45,47.638L290.56,47.392L291.67,47.196L292.78,47.453L293.89,47.253L295,47.225L296.11,47.144L297.22,47.227L298.33,47.242L299.44,47.253L300.55,46.881L301.66,46.846L302.77,47.009L303.88,47.094L304.99,46.839L306.1,46.896L307.21,46.848L308.32,46.828L309.43,46.789L310.54,46.626L311.65,46.554L312.76,46.569L313.87,46.754L314.98,46.628L316.09,46.517L317.2,46.582L318.31,46.613L319.42,46.484L320.52,46.334L321.63,46.317L322.74,46.404L323.85,46.423L324.96,46.312L326.07,46.273L327.18,46.256L328.29,46.303L329.4,46.282L330.51,46.184L331.62,46.064L332.73,46.081L333.84,46.175L334.95,46.064L336.06,46.009L337.17,46.001L338.28,46.022L339.39,46.105L340.5,46.025L341.61,45.935L342.72,45.975L343.83,45.874L344.94,45.85L346.05,45.859L347.16,45.853L348.27,45.905L349.38,45.755L350.49,45.766L351.6,45.748L352.7,45.885L353.81,45.776L354.92,45.77L356.03,45.742L357.14,45.696L358.25,45.748L359.36,45.689L360.47,45.713L361.58,45.668L362.69,45.674L363.8,45.646L364.91,45.607L366.02,45.626L367.13,45.637L368.24,45.548L369.35,45.62L370.46,45.563L371.57,45.526L372.68,45.552L373.79,45.528L374.9,45.522L376.01,45.45L377.12,45.502L378.23,45.493L379.34,45.485L380.45,45.487L381.56,45.439L382.67,45.478L383.78,45.448L384.88,45.432L385.99,45.454L387.1,45.452L388.21,45.38L389.32,45.413L390.43,45.387L391.54,45.4L392.65,45.413L393.76,45.36L394.87,45.376L395.98,45.358L397.09,45.378L398.2,45.389L399.31,45.317L400.42,45.376L401.53,45.376L402.64,45.31L403.75,45.332L404.86,45.332L405.97,45.328L407.08,45.321L408.19,45.356L409.3,45.33L410.41,45.315L411.52,45.31L412.63,45.289L413.74,45.28L414.85,45.276L415.96,45.286L417.06,45.284L418.17,45.276L419.28,45.297L420.39,45.278L421.5,45.286L422.61,45.241L423.72,45.26L424.83,45.304L425.94,45.256L427.05,45.258L428.16,45.225L429.27,45.254L430.38,45.265L431.49,45.243L432.6,45.249L433.71,45.219L434.82,45.23L435.93,45.201L437.04,45.225L438.15,45.228L439.26,45.208L440.37,45.23L441.48,45.206L442.59,45.197L443.7,45.215L444.81,45.208L445.92,45.197L447.03,45.195L448.13,45.206L449.24,45.184L450.35,45.173L451.46,45.195L452.57,45.182L453.68,45.204L454.79,45.188L455.9,45.197L457.01,45.182L458.12,45.178L459.23,45.186L460.34,45.191L461.45,45.191L462.56,45.182L463.67,45.191L464.78,45.186L465.89,45.195L467,45.178L468.11,45.188L469.22,45.175L470.33,45.182L471.44,45.178L472.55,45.175L473.66,45.173L474.77,45.184L475.88,45.169L476.99,45.164L478.1,45.158L479.21,45.164L480.31,45.173L481.42,45.169L482.53,45.178L483.64,45.175L484.75,45.175L485.86,45.167L486.97,45.164L488.08,45.162L489.19,45.164L490.3,45.162L491.41,45.173L492.52,45.164L493.63,45.162L494.74,45.171L495.85,45.164L496.96,45.164L498.07,45.158L499.18,45.167L500.29,45.173L501.4,45.162L502.51,45.169L503.62,45.167L504.73,45.158L505.84,45.156L506.95,45.151L508.06,45.164L509.17,45.162L510.28,45.16L511.39,45.154L512.49,45.151L513.6,45.16L514.71,45.16L515.82,45.167L516.93,45.151L518.04,45.154L519.15,45.158L520.26,45.158L521.37,45.154L522.48,45.162L525.81,45.154L526.92,45.151L528.03,45.158L529.14,45.156L530.25,45.158L531.36,45.154L533.58,45.151L534.69,45.158L535.8,45.154L538.02,45.151L539.13,45.151L541.35,45.151L544.67,45.154L546.89,45.151L548,45.158L549.11,45.151L550.22,45.154L551.33,45.151L552.44,45.151L553.55,45.151L555.77,45.151L556.88,45.151L557.99,45.151L559.1,45.151L561.32,45.154L564.65,45.151L565.76,45.151L566.87,45.151L567.98,45.151L573.53,45.154L576.85,45.156L579.07,45.154L582.4,45.151L583.51,45.151L584.62,45.151L593.5,45.151L595.72,45.151L601.27,45.151L604.6,45.151L619.02,45.151L621.24,45.151L634.56,45.151L639,45.151L693.37,45.151L720,45.151" style="fill:none;stroke:#0000FF" />
</g>
</svg>
