<?xml version="1.0"?>
<!-- Generated by SVGo and Plotinum VG -->
<svg width="720pt" height="432pt" viewBox="0 0 720 432"
	xmlns="http://www.w3.org/2000/svg"
	xmlns:xlink="http://www.w3.org/1999/xlink">
<g transform="scale(1, -1) translate(0, -432)">
<path d="M0,0L720,0L720,432L0,432Z" style="fill:#FFFFFF" />
<text x="358.5" y="-420.45" transform="scale(1, -1)"
	style="font-family:Times;font-weight:normal;font-style:normal;font-size:12px"> </text>
<text x="379.31" y="-3.8613" transform="scale(1, -1)"
	style="font-family:Times;font-weight:normal;font-style:normal;font-size:12px">Costs</text>
<text x="56.555" y="-18.634" transform="scale(1, -1)"
	style="font-family:Times;font-weight:normal;font-style:normal;font-size:10px">0.00</text>
<text x="353.54" y="-18.634" transform="scale(1, -1)"
	style="font-family:Times;font-weight:normal;font-style:normal;font-size:10px">250.00</text>
<text x="655.52" y="-18.634" transform="scale(1, -1)"
	style="font-family:Times;font-weight:normal;font-style:normal;font-size:10px">500.00</text>
<path d="M65.305,28.263L65.305,36.263" style="fill:none;stroke:#000000;stroke-width:0.5" />
<path d="M367.29,28.263L367.29,36.263" style="fill:none;stroke:#000000;stroke-width:0.5" />
<path d="M669.27,28.263L669.27,36.263" style="fill:none;stroke:#000000;stroke-width:0.5" />
<path d="M125.7,32.263L125.7,36.263" style="fill:none;stroke:#000000;stroke-width:0.5" />
<path d="M186.1,32.263L186.1,36.263" style="fill:none;stroke:#000000;stroke-width:0.5" />
<path d="M246.49,32.263L246.49,36.263" style="fill:none;stroke:#000000;stroke-width:0.5" />
<path d="M306.89,32.263L306.89,36.263" style="fill:none;stroke:#000000;stroke-width:0.5" />
<path d="M427.68,32.263L427.68,36.263" style="fill:none;stroke:#000000;stroke-width:0.5" />
<path d="M488.08,32.263L488.08,36.263" style="fill:none;stroke:#000000;stroke-width:0.5" />
<path d="M548.47,32.263L548.47,36.263" style="fill:none;stroke:#000000;stroke-width:0.5" />
<path d="M608.87,32.263L608.87,36.263" style="fill:none;stroke:#000000;stroke-width:0.5" />
<path d="M65.305,36.263L720,36.263" style="fill:none;stroke:#000000;stroke-width:0.5" />
<g transform="rotate(90)">
<text x="152.55" y="11.555" transform="scale(1, -1)"
	style="font-family:Times;font-weight:normal;font-style:normal;font-size:12px">Number of trials (1000000 total)</text>
</g>
<text x="24.055" y="-109.58" transform="scale(1, -1)"
	style="font-family:Times;font-weight:normal;font-style:normal;font-size:10px">30000</text>
<text x="24.055" y="-244.84" transform="scale(1, -1)"
	style="font-family:Times;font-weight:normal;font-style:normal;font-size:10px">90000</text>
<text x="19.055" y="-380.1" transform="scale(1, -1)"
	style="font-family:Times;font-weight:normal;font-style:normal;font-size:10px">150000</text>
<path d="M51.555,112.78L59.555,112.78" style="fill:none;stroke:#000000;stroke-width:0.5" />
<path d="M51.555,248.05L59.555,248.05" style="fill:none;stroke:#000000;stroke-width:0.5" />
<path d="M51.555,383.31L59.555,383.31" style="fill:none;stroke:#000000;stroke-width:0.5" />
<path d="M55.555,180.41L59.555,180.41" style="fill:none;stroke:#000000;stroke-width:0.5" />
<path d="M55.555,315.68L59.555,315.68" style="fill:none;stroke:#000000;stroke-width:0.5" />
<path d="M59.555,45.151L59.555,416.58" style="fill:none;stroke:#000000;stroke-width:0.5" />
<path d="M65.305,416.58L94.295,60.366L96.711,53.026L99.127,60.853L100.33,74.844L101.54,63.108L102.75,66.349L103.96,48.45L105.17,59.742L106.37,112.51L107.58,60.853L110,63.227L111.21,53.227L112.41,59.985L113.62,107.06L114.83,74.069L117.25,69.204L118.45,94.947L119.66,58.869L120.87,62.896L124.49,60.429L125.7,59.095L126.91,60.285L128.12,45.76L129.32,61.453L130.53,63.845L131.74,46.497L132.95,61.435L134.16,68.342L135.36,64.176L136.57,62.972L137.78,48.459L138.99,61.971L140.2,64.348L141.4,69.839L142.61,52.636L143.82,51.732L145.03,49.444L146.24,51.144L147.44,57.095L148.65,56.313L149.86,53.887L151.07,55.001L152.28,54.435L153.48,56.879L154.69,78.359L155.9,59.361L157.11,50.118L158.31,60.071L159.52,60.535L160.73,55.945L161.94,92.079L163.15,70.921L164.35,52.368L165.56,58.709L166.77,62.379L167.98,59.566L169.19,55.416L170.39,58.935L171.6,55.706L172.81,55.429L174.02,58.54L175.23,58.4L176.43,55.828L177.64,57.379L178.85,57.154L180.06,55.483L181.27,56.924L182.47,59.32L183.68,56.166L184.89,54.255L186.1,54.895L187.31,55.19L188.51,57.643L189.72,58.168L190.93,54.631L192.14,53.907L193.34,54.268L194.55,55.72L195.76,57.12L196.97,55.668L198.18,53.953L199.38,55.42L200.59,54.101L201.8,54.349L203.01,61.55L204.22,57.979L205.42,52.111L206.63,55.24L207.84,55.713L209.05,54.843L210.26,58.996L211.46,57.251L212.67,51.784L213.88,53.946L215.09,57.6L216.3,55.24L217.5,52.961L218.71,52.476L219.92,51.75L221.13,52.027L222.33,53.605L223.54,54.237L224.75,52.163L225.96,52.958L227.17,53.463L228.37,52.181L229.58,53.159L230.79,54.25L232,53.342L233.21,52.53L234.41,51.401L235.62,52.016L236.83,52.744L238.04,53.353L239.25,51.651L240.45,50.641L241.66,50.747L242.87,51.033L244.08,51.089L245.29,50.783L246.49,50.282L247.7,50.817L248.91,50.564L250.12,50.596L251.33,52.654L252.53,51.637L253.74,49.753L254.95,50.537L256.16,50.898L257.36,50.497L258.57,50.318L259.78,51.263L260.99,49.214L262.2,49.712L263.4,50.634L264.61,50.267L265.82,49.554L267.03,49.685L268.24,49.635L269.44,49.18L270.65,49.345L271.86,49.924L273.07,49.207L274.28,49.239L275.48,49.358L276.69,49.027L277.9,49.148L279.11,49.245L280.32,49.144L281.52,48.429L282.73,48.641L283.94,48.824L285.15,48.533L286.35,48.625L287.56,48.339L288.77,48.204L289.98,48.082L291.19,48.274L292.39,48.247L293.6,47.994L294.81,47.908L296.02,47.857L297.23,47.881L298.43,47.897L299.64,48.118L300.85,47.945L302.06,47.667L303.27,47.622L304.47,47.927L305.68,47.604L306.89,47.541L308.1,47.606L309.31,47.248L310.51,47.119L311.72,47.349L312.93,47.394L314.14,47.086L315.35,47.032L316.55,47.002L317.76,46.923L318.97,47L320.18,47.165L321.38,47.079L322.59,46.766L323.8,46.82L325.01,46.937L326.22,46.894L327.42,46.856L328.63,46.835L329.84,46.655L331.05,46.723L332.26,46.538L333.46,46.481L334.67,46.614L335.88,46.599L337.09,46.43L338.3,46.59L339.5,46.432L340.71,46.531L341.92,46.321L343.13,46.373L344.34,46.373L345.54,46.195L346.75,46.319L347.96,46.071L349.17,46.276L350.37,46.215L351.58,46.064L352.79,46.179L354,46.091L355.21,46.064L356.41,45.985L357.62,45.949L358.83,45.898L360.04,46.013L361.25,45.954L362.45,45.938L363.66,45.925L364.87,45.834L366.08,45.859L367.29,45.927L368.49,45.798L369.7,45.783L370.91,45.816L372.12,45.785L373.33,45.812L374.53,45.805L375.74,45.807L376.95,45.783L378.16,45.713L379.37,45.695L380.57,45.71L381.78,45.618L382.99,45.665L384.2,45.625L385.4,45.586L386.61,45.586L387.82,45.641L389.03,45.609L390.24,45.566L391.44,45.571L392.65,45.627L393.86,45.568L395.07,45.499L396.28,45.505L397.48,45.508L398.69,45.496L399.9,45.519L401.11,45.483L402.32,45.465L403.52,45.456L404.73,45.458L405.94,45.406L407.15,45.435L408.36,45.424L409.56,45.449L410.77,45.411L411.98,45.37L413.19,45.406L414.39,45.402L415.6,45.359L416.81,45.361L418.02,45.37L419.23,45.379L420.43,45.366L421.64,45.35L422.85,45.35L424.06,45.388L425.27,45.357L426.47,45.325L427.68,45.3L428.89,45.293L430.1,45.336L431.31,45.28L432.51,45.298L433.72,45.334L434.93,45.318L436.14,45.289L437.35,45.314L438.55,45.305L439.76,45.32L440.97,45.284L442.18,45.264L443.39,45.278L444.59,45.239L445.8,45.275L447.01,45.251L448.22,45.228L449.42,45.253L450.63,45.248L451.84,45.257L453.05,45.221L454.26,45.246L455.46,45.242L456.67,45.192L457.88,45.226L459.09,45.255L460.3,45.237L461.5,45.23L462.71,45.21L463.92,45.226L465.13,45.226L466.34,45.21L467.54,45.21L468.75,45.203L469.96,45.205L471.17,45.205L472.38,45.185L473.58,45.183L474.79,45.196L476,45.185L477.21,45.208L478.42,45.208L479.62,45.187L480.83,45.208L482.04,45.187L483.25,45.192L484.45,45.208L485.66,45.181L486.87,45.19L488.08,45.181L489.29,45.172L490.49,45.192L491.7,45.165L492.91,45.183L494.12,45.19L495.33,45.183L496.53,45.165L497.74,45.163L498.95,45.165L500.16,45.174L501.37,45.172L502.57,45.183L503.78,45.181L504.99,45.167L506.2,45.174L507.41,45.165L508.61,45.167L509.82,45.172L511.03,45.158L512.24,45.165L513.44,45.154L514.65,45.154L515.86,45.174L517.07,45.16L518.28,45.169L519.48,45.154L520.69,45.158L521.9,45.158L523.11,45.16L524.32,45.16L525.52,45.154L526.73,45.16L527.94,45.165L529.15,45.158L530.36,45.154L531.56,45.16L532.77,45.158L533.98,45.154L535.19,45.156L536.4,45.163L537.6,45.156L538.81,45.154L540.02,45.156L541.23,45.151L542.44,45.151L543.64,45.151L544.85,45.154L546.06,45.151L547.27,45.156L548.47,45.16L549.68,45.156L550.89,45.156L552.1,45.165L553.31,45.156L554.51,45.154L555.72,45.151L558.14,45.156L559.35,45.151L560.55,45.154L561.76,45.156L562.97,45.151L564.18,45.151L565.39,45.154L566.59,45.156L569.01,45.158L570.22,45.158L572.63,45.158L573.84,45.151L578.67,45.151L579.88,45.151L584.71,45.151L587.13,45.154L591.96,45.151L593.17,45.156L596.79,45.151L598,45.151L605.25,45.151L606.46,45.151L610.08,45.151L613.7,45.151L628.2,45.156L630.61,45.151L637.86,45.151L643.9,45.151L660.81,45.151L671.68,45.151L720,45.151" style="fill:none;stroke:#0000FF" />
</g>
</svg>
