<?xml version="1.0"?>
<!-- Generated by SVGo and Plotinum VG -->
<svg width="720pt" height="432pt" viewBox="0 0 720 432"
	xmlns="http://www.w3.org/2000/svg"
	xmlns:xlink="http://www.w3.org/1999/xlink">
<g transform="scale(1, -1) translate(0, -432)">
<path d="M0,0L720,0L720,432L0,432Z" style="fill:#FFFFFF" />
<text x="358.5" y="-420.45" transform="scale(1, -1)"
	style="font-family:Times;font-weight:normal;font-style:normal;font-size:12px"> </text>
<text x="379.31" y="-3.8613" transform="scale(1, -1)"
	style="font-family:Times;font-weight:normal;font-style:normal;font-size:12px">Costs</text>
<text x="56.555" y="-18.634" transform="scale(1, -1)"
	style="font-family:Times;font-weight:normal;font-style:normal;font-size:10px">0.00</text>
<text x="368.75" y="-18.634" transform="scale(1, -1)"
	style="font-family:Times;font-weight:normal;font-style:normal;font-size:10px">250.00</text>
<text x="685.95" y="-18.634" transform="scale(1, -1)"
	style="font-family:Times;font-weight:normal;font-style:normal;font-size:10px">500.00</text>
<path d="M65.305,28.263L65.305,36.263" style="fill:none;stroke:#000000;stroke-width:0.5" />
<path d="M382.5,28.263L382.5,36.263" style="fill:none;stroke:#000000;stroke-width:0.5" />
<path d="M699.7,28.263L699.7,36.263" style="fill:none;stroke:#000000;stroke-width:0.5" />
<path d="M128.74,32.263L128.74,36.263" style="fill:none;stroke:#000000;stroke-width:0.5" />
<path d="M192.18,32.263L192.18,36.263" style="fill:none;stroke:#000000;stroke-width:0.5" />
<path d="M255.62,32.263L255.62,36.263" style="fill:none;stroke:#000000;stroke-width:0.5" />
<path d="M319.06,32.263L319.06,36.263" style="fill:none;stroke:#000000;stroke-width:0.5" />
<path d="M445.94,32.263L445.94,36.263" style="fill:none;stroke:#000000;stroke-width:0.5" />
<path d="M509.38,32.263L509.38,36.263" style="fill:none;stroke:#000000;stroke-width:0.5" />
<path d="M572.82,32.263L572.82,36.263" style="fill:none;stroke:#000000;stroke-width:0.5" />
<path d="M636.26,32.263L636.26,36.263" style="fill:none;stroke:#000000;stroke-width:0.5" />
<path d="M65.305,36.263L720,36.263" style="fill:none;stroke:#000000;stroke-width:0.5" />
<g transform="rotate(90)">
<text x="152.55" y="11.555" transform="scale(1, -1)"
	style="font-family:Times;font-weight:normal;font-style:normal;font-size:12px">Number of trials (1000000 total)</text>
</g>
<text x="24.055" y="-112.26" transform="scale(1, -1)"
	style="font-family:Times;font-weight:normal;font-style:normal;font-size:10px">40000</text>
<text x="19.055" y="-252.89" transform="scale(1, -1)"
	style="font-family:Times;font-weight:normal;font-style:normal;font-size:10px">120000</text>
<text x="19.055" y="-393.52" transform="scale(1, -1)"
	style="font-family:Times;font-weight:normal;font-style:normal;font-size:10px">200000</text>
<path d="M51.555,115.47L59.555,115.47" style="fill:none;stroke:#000000;stroke-width:0.5" />
<path d="M51.555,256.1L59.555,256.1" style="fill:none;stroke:#000000;stroke-width:0.5" />
<path d="M51.555,396.73L59.555,396.73" style="fill:none;stroke:#000000;stroke-width:0.5" />
<path d="M55.555,185.78L59.555,185.78" style="fill:none;stroke:#000000;stroke-width:0.5" />
<path d="M55.555,326.41L59.555,326.41" style="fill:none;stroke:#000000;stroke-width:0.5" />
<path d="M59.555,45.151L59.555,416.58" style="fill:none;stroke:#000000;stroke-width:0.5" />
<path d="M65.305,416.58L98.293,52.357L99.562,59.313L100.83,51.965L102.1,58.807L104.64,66.388L105.91,48.822L108.44,78.332L109.71,52.211L110.98,66.362L112.25,55.53L113.52,55.597L114.79,55.718L117.33,69.581L118.59,58.879L119.86,55.454L121.13,69.561L122.4,48.602L127.48,77.205L128.74,87.009L130.01,55.853L131.28,45.187L132.55,86.68L133.82,69.449L135.09,45.672L136.36,52.253L137.63,45.844L138.89,56.667L140.16,63.006L141.43,49.887L142.7,109.38L143.97,53.551L145.24,57.973L146.51,46.37L147.78,48.637L149.04,46.79L150.31,47.294L151.58,47.878L152.85,47.692L154.12,49.655L155.39,48.157L156.66,48.876L157.93,63.117L159.2,57.559L160.46,50.313L161.73,49.662L163,71.861L164.27,51.457L165.54,50.096L166.81,90.043L168.08,57.843L169.35,49.757L170.61,50.814L171.88,52.823L173.15,53.217L174.42,50.988L175.69,54.985L176.96,54.243L178.23,52.074L179.5,54.989L180.76,51.919L182.03,55.642L183.3,52.52L184.57,53.67L185.84,56.773L187.11,50.235L188.38,54.734L189.65,51.265L190.91,53.027L192.18,51.967L193.45,49.1L194.72,55.711L195.99,56.831L197.26,54.364L198.53,52.816L199.8,49.931L201.07,53.563L202.33,52.302L203.6,52.088L204.87,54.013L206.14,59.193L207.41,54.278L208.68,50.935L209.95,58.555L211.22,55.018L212.48,51.974L213.75,51.323L215.02,50.599L216.29,51.283L217.56,50.833L218.83,52.494L220.1,53.827L221.37,52.389L222.63,53.512L223.9,48.419L225.17,50.937L226.44,51.68L227.71,48.961L228.98,51.299L230.25,55.066L231.52,51.782L232.78,48.734L234.05,52.83L235.32,53.837L236.59,50.794L237.86,50.669L239.13,48.91L240.4,53.087L241.67,50.991L242.94,49.622L244.2,54.948L245.47,50.242L246.74,49.831L248.01,48.82L249.28,49.017L250.55,48.882L251.82,48.876L253.09,48.873L254.35,48.618L255.62,49.543L256.89,49.302L258.16,48.85L259.43,50.416L260.7,49.768L261.97,48.957L263.24,48.996L264.5,50.75L265.77,49.37L267.04,48.047L268.31,48.774L269.58,49.578L270.85,48.171L272.12,48.639L273.39,49.149L274.65,49.117L275.92,48.44L277.19,48.456L278.46,48.748L279.73,48.33L281,48.382L282.27,48.296L283.54,48.848L284.81,48.279L286.07,48.323L287.34,48.602L288.61,48.189L289.88,48.231L291.15,47.648L292.42,47.737L293.69,47.822L294.96,47.512L296.22,47.953L297.49,47.962L298.76,47.996L300.03,47.82L301.3,47.192L302.57,47.607L303.84,47.783L305.11,47.461L306.37,47.433L307.64,47.797L308.91,47.595L310.18,47.05L311.45,47.47L312.72,47.47L313.99,47.078L315.26,47.055L316.52,46.839L317.79,47.067L319.06,47.041L320.33,46.865L321.6,46.969L322.87,46.823L324.14,46.795L325.41,46.461L326.68,46.725L327.94,46.693L329.21,46.598L330.48,46.375L331.75,46.609L333.02,46.725L334.29,46.559L335.56,46.412L336.83,46.552L338.09,46.619L339.36,46.493L340.63,46.394L341.9,46.582L343.17,46.305L344.44,46.31L345.71,46.225L346.98,46.262L348.24,46.197L349.51,46.276L350.78,46.252L352.05,46.173L353.32,46.197L354.59,46.118L355.86,46.065L357.13,46.113L358.4,46.18L359.66,46.036L360.93,46.064L362.2,46.065L363.47,45.988L364.74,45.928L366.01,45.986L367.28,46.039L368.55,45.782L369.81,45.779L371.08,45.911L372.35,45.851L373.62,45.867L374.89,45.83L376.16,45.898L377.43,45.795L378.7,45.775L379.96,45.805L381.23,45.742L382.5,45.739L383.77,45.677L385.04,45.768L386.31,45.668L387.58,45.661L388.85,45.677L390.11,45.668L391.38,45.586L392.65,45.589L393.92,45.552L395.19,45.607L396.46,45.601L397.73,45.577L399,45.513L400.27,45.545L401.53,45.573L402.8,45.455L404.07,45.508L405.34,45.542L406.61,45.499L407.88,45.48L409.15,45.468L410.42,45.505L411.68,45.464L412.95,45.45L414.22,45.478L415.49,45.459L416.76,45.443L418.03,45.445L419.3,45.429L420.57,45.415L421.83,45.378L423.1,45.399L424.37,45.382L425.64,45.415L426.91,45.392L428.18,45.345L429.45,45.368L430.72,45.385L431.98,45.376L433.25,45.317L434.52,45.366L435.79,45.31L437.06,45.318L438.33,45.355L439.6,45.352L440.87,45.308L442.14,45.339L443.4,45.292L444.67,45.311L445.94,45.308L447.21,45.296L448.48,45.327L449.75,45.28L451.02,45.253L452.29,45.285L453.55,45.301L454.82,45.276L456.09,45.271L457.36,45.278L458.63,45.264L459.9,45.257L461.17,45.253L462.44,45.266L463.7,45.234L464.97,45.241L466.24,45.257L467.51,45.262L468.78,45.259L470.05,45.241L471.32,45.245L472.59,45.211L473.85,45.252L475.12,45.241L476.39,45.197L477.66,45.223L478.93,45.236L480.2,45.218L481.47,45.199L482.74,45.209L484.01,45.197L485.27,45.213L486.54,45.209L487.81,45.194L489.08,45.199L490.35,45.211L491.62,45.197L492.89,45.197L494.16,45.19L495.42,45.208L496.69,45.199L497.96,45.192L499.23,45.185L500.5,45.201L501.77,45.197L503.04,45.19L504.31,45.19L505.57,45.192L506.84,45.194L508.11,45.195L509.38,45.188L510.65,45.183L511.92,45.19L513.19,45.187L514.46,45.167L515.72,45.187L516.99,45.171L518.26,45.172L519.53,45.183L520.8,45.165L522.07,45.169L523.34,45.181L524.61,45.176L525.88,45.172L527.14,45.162L528.41,45.164L529.68,45.172L530.95,45.165L532.22,45.172L533.49,45.172L534.76,45.171L536.03,45.165L537.29,45.171L538.56,45.165L539.83,45.162L541.1,45.158L542.37,45.151L543.64,45.165L544.91,45.164L546.18,45.167L547.44,45.157L548.71,45.16L549.98,45.158L551.25,45.157L552.52,45.165L553.79,45.164L555.06,45.153L556.33,45.157L557.59,45.162L558.86,45.151L560.13,45.165L561.4,45.157L562.67,45.165L563.94,45.155L565.21,45.155L566.48,45.155L567.75,45.157L569.01,45.153L570.28,45.151L571.55,45.157L572.82,45.153L574.09,45.157L575.36,45.157L576.63,45.157L577.9,45.158L579.16,45.155L580.43,45.158L581.7,45.157L582.97,45.157L585.51,45.157L586.78,45.157L588.05,45.153L589.31,45.151L590.58,45.151L591.85,45.155L593.12,45.155L594.39,45.153L595.66,45.155L596.93,45.155L598.2,45.155L599.47,45.153L602,45.153L603.27,45.153L604.54,45.151L605.81,45.151L607.08,45.151L610.88,45.151L612.15,45.155L613.42,45.151L617.23,45.151L619.77,45.151L622.3,45.155L624.84,45.151L626.11,45.151L627.38,45.151L628.65,45.151L631.18,45.153L636.26,45.153L638.8,45.151L640.07,45.153L646.41,45.151L648.95,45.151L652.75,45.151L654.02,45.151L659.1,45.151L660.37,45.153L689.55,45.151L693.36,45.151L720,45.151" style="fill:none;stroke:#0000FF" />
</g>
</svg>
