<?xml version="1.0"?>
<!-- Generated by SVGo and Plotinum VG -->
<svg width="720pt" height="432pt" viewBox="0 0 720 432"
	xmlns="http://www.w3.org/2000/svg"
	xmlns:xlink="http://www.w3.org/1999/xlink">
<g transform="scale(1, -1) translate(0, -432)">
<path d="M0,0L720,0L720,432L0,432Z" style="fill:#FFFFFF" />
<text x="358.5" y="-420.45" transform="scale(1, -1)"
	style="font-family:Times;font-weight:normal;font-style:normal;font-size:12px"> </text>
<text x="379.31" y="-3.8613" transform="scale(1, -1)"
	style="font-family:Times;font-weight:normal;font-style:normal;font-size:12px">Costs</text>
<text x="62.805" y="-18.634" transform="scale(1, -1)"
	style="font-family:Times;font-weight:normal;font-style:normal;font-size:10px">0</text>
<text x="343.07" y="-18.634" transform="scale(1, -1)"
	style="font-family:Times;font-weight:normal;font-style:normal;font-size:10px">200</text>
<text x="628.35" y="-18.634" transform="scale(1, -1)"
	style="font-family:Times;font-weight:normal;font-style:normal;font-size:10px">400</text>
<path d="M65.305,28.263L65.305,36.263" style="fill:none;stroke:#000000;stroke-width:0.5" />
<path d="M350.57,28.263L350.57,36.263" style="fill:none;stroke:#000000;stroke-width:0.5" />
<path d="M635.85,28.263L635.85,36.263" style="fill:none;stroke:#000000;stroke-width:0.5" />
<path d="M207.94,32.263L207.94,36.263" style="fill:none;stroke:#000000;stroke-width:0.5" />
<path d="M493.21,32.263L493.21,36.263" style="fill:none;stroke:#000000;stroke-width:0.5" />
<path d="M65.305,36.263L720,36.263" style="fill:none;stroke:#000000;stroke-width:0.5" />
<g transform="rotate(90)">
<text x="151.22" y="11.555" transform="scale(1, -1)"
	style="font-family:Times;font-weight:normal;font-style:normal;font-size:12px">Number of trials (1000000 total)</text>
</g>
<text x="24.055" y="-94.089" transform="scale(1, -1)"
	style="font-family:Times;font-weight:normal;font-style:normal;font-size:10px">50000</text>
<text x="19.055" y="-250.52" transform="scale(1, -1)"
	style="font-family:Times;font-weight:normal;font-style:normal;font-size:10px">200000</text>
<text x="19.055" y="-406.96" transform="scale(1, -1)"
	style="font-family:Times;font-weight:normal;font-style:normal;font-size:10px">350000</text>
<path d="M51.555,97.295L59.555,97.295" style="fill:none;stroke:#000000;stroke-width:0.5" />
<path d="M51.555,253.73L59.555,253.73" style="fill:none;stroke:#000000;stroke-width:0.5" />
<path d="M51.555,410.16L59.555,410.16" style="fill:none;stroke:#000000;stroke-width:0.5" />
<path d="M55.555,175.51L59.555,175.51" style="fill:none;stroke:#000000;stroke-width:0.5" />
<path d="M55.555,331.94L59.555,331.94" style="fill:none;stroke:#000000;stroke-width:0.5" />
<path d="M59.555,45.151L59.555,413.93" style="fill:none;stroke:#000000;stroke-width:0.5" />
<path d="M65.305,413.93L96.684,48.561L103.82,66.662L106.67,48.844L109.52,55.755L112.37,59.555L113.8,66.543L115.23,51.943L116.65,63.077L120.93,55.586L122.36,48.503L123.79,70.235L125.21,59.323L126.64,66.12L128.06,55.617L130.92,59.395L133.77,52.129L135.2,45.353L136.62,66.947L138.05,66.968L140.9,55.852L142.33,48.868L143.75,48.634L145.18,49.193L146.61,48.563L148.03,56.417L149.46,58.975L150.89,52.85L152.31,56.938L153.74,52.794L155.16,46.653L156.59,45.677L158.02,46.15L159.44,46.041L160.87,53.61L162.3,47.274L163.72,47.021L165.15,48.089L166.58,49.612L168,46.625L169.43,47.434L170.85,50.591L172.28,48.441L173.71,47.408L175.13,49.381L176.56,48.249L177.99,47.424L179.41,93.647L180.84,61.046L182.27,48.136L183.69,47.642L185.12,49.785L186.54,49.549L187.97,48.83L189.4,49.052L190.82,47.245L192.25,48.762L193.68,47.58L195.1,48.463L196.53,49.334L197.96,48.855L199.38,50.313L200.81,48.186L202.23,48.053L203.66,48.039L205.09,47.468L206.51,47.583L207.94,47.919L209.37,49.494L210.79,48.37L212.22,48.211L213.65,47.726L215.07,47.187L216.5,46.81L217.92,49.561L219.35,48.176L220.78,47.919L222.2,47.765L223.63,48.548L225.06,47.766L226.48,48.762L227.91,49.457L229.34,48.255L230.76,48.4L232.19,47.685L233.61,46.78L235.04,47.776L236.47,47.464L237.89,49.494L239.32,49.009L240.75,49.215L242.17,48.22L243.6,46.64L245.02,48.012L246.45,46.796L247.88,47.214L249.3,46.382L250.73,48.747L252.16,49.242L253.58,46.936L255.01,47.432L256.44,46.82L257.86,46.739L259.29,46.632L260.71,46.482L262.14,47.49L263.57,48.074L264.99,47.329L266.42,47.559L267.85,47.355L269.27,46.344L270.7,46.144L272.13,46.13L273.55,45.951L274.98,46.898L276.4,46.31L277.83,46.05L279.26,46.191L280.68,46.514L282.11,46.114L283.54,46.11L284.96,46.536L286.39,46.303L287.82,46.104L289.24,46.158L290.67,46.246L292.09,45.949L293.52,46.019L294.95,47.641L296.37,46.057L297.8,45.97L299.23,46.138L300.65,46.203L302.08,46.06L303.51,46.043L304.93,45.912L306.36,45.911L307.78,45.883L309.21,45.903L310.64,46.001L312.06,46.004L313.49,46.197L314.92,45.927L316.34,45.823L317.77,45.817L319.2,45.749L320.62,45.757L322.05,45.802L323.47,45.912L324.9,45.846L326.33,45.81L327.75,45.772L329.18,45.652L330.61,45.614L332.03,45.602L333.46,45.761L334.89,45.679L336.31,45.688L337.74,45.632L339.16,45.647L340.59,45.577L342.02,45.556L343.44,45.615L344.87,45.466L346.3,45.612L347.72,45.546L349.15,45.493L350.57,45.536L352,45.482L353.43,45.522L354.85,45.479L356.28,45.487L357.71,45.448L359.13,45.387L360.56,45.48L361.99,45.387L363.41,45.442L364.84,45.362L366.26,45.462L367.69,45.451L369.12,45.335L370.54,45.376L371.97,45.368L373.4,45.361L374.82,45.346L376.25,45.33L377.68,45.352L379.1,45.375L380.53,45.347L381.95,45.367L383.38,45.36L384.81,45.323L386.23,45.294L387.66,45.329L389.09,45.302L390.51,45.312L391.94,45.269L393.37,45.275L394.79,45.286L396.22,45.297L397.64,45.272L399.07,45.288L400.5,45.297L401.92,45.266L403.35,45.266L404.78,45.281L406.2,45.262L407.63,45.246L409.06,45.28L410.48,45.239L411.91,45.257L413.33,45.235L414.76,45.223L416.19,45.23L417.61,45.214L419.04,45.232L420.47,45.236L421.89,45.219L423.32,45.225L424.75,45.22L426.17,45.225L427.6,45.219L429.02,45.215L430.45,45.208L431.88,45.213L433.3,45.202L434.73,45.193L436.16,45.211L437.58,45.209L439.01,45.193L440.44,45.188L441.86,45.2L443.29,45.204L444.71,45.192L446.14,45.189L447.57,45.189L448.99,45.182L450.42,45.199L451.85,45.183L453.27,45.181L454.7,45.181L456.12,45.182L457.55,45.172L458.98,45.181L460.4,45.18L461.83,45.182L463.26,45.184L464.68,45.177L466.11,45.176L467.54,45.178L468.96,45.168L470.39,45.171L471.81,45.173L473.24,45.167L474.67,45.169L476.09,45.17L477.52,45.171L478.95,45.16L480.37,45.168L481.8,45.169L483.23,45.169L484.65,45.16L486.08,45.169L487.5,45.16L488.93,45.166L490.36,45.164L491.78,45.159L493.21,45.162L494.64,45.16L496.06,45.162L497.49,45.163L498.92,45.16L500.34,45.159L501.77,45.154L503.19,45.158L504.62,45.16L506.05,45.162L507.47,45.159L508.9,45.157L510.33,45.156L511.75,45.159L513.18,45.154L514.61,45.158L516.03,45.16L517.46,45.153L518.88,45.158L520.31,45.156L521.74,45.157L523.16,45.151L524.59,45.154L526.02,45.156L527.44,45.161L528.87,45.154L530.3,45.157L531.72,45.157L533.15,45.157L534.57,45.152L536,45.152L537.43,45.156L538.85,45.154L540.28,45.156L541.71,45.153L543.13,45.152L544.56,45.152L545.99,45.154L547.41,45.152L548.84,45.152L550.26,45.153L551.69,45.152L553.12,45.151L554.54,45.154L555.97,45.153L557.4,45.157L558.82,45.151L560.25,45.157L561.67,45.151L563.1,45.151L565.95,45.153L567.38,45.153L568.81,45.152L570.23,45.151L573.09,45.151L574.51,45.152L575.94,45.151L577.36,45.152L580.22,45.152L581.64,45.153L584.5,45.151L585.92,45.152L587.35,45.151L588.78,45.151L590.2,45.151L595.91,45.151L597.33,45.151L603.04,45.151L608.74,45.151L610.17,45.151L613.02,45.151L614.45,45.151L615.88,45.151L618.73,45.151L623.01,45.151L632.99,45.151L681.49,45.151L720,45.151" style="fill:none;stroke:#0000FF" />
</g>
</svg>
