<?xml version="1.0"?>
<!-- Generated by SVGo and Plotinum VG -->
<svg width="720pt" height="432pt" viewBox="0 0 720 432"
	xmlns="http://www.w3.org/2000/svg"
	xmlns:xlink="http://www.w3.org/1999/xlink">
<g transform="scale(1, -1) translate(0, -432)">
<path d="M0,0L720,0L720,432L0,432Z" style="fill:#FFFFFF" />
<text x="358.5" y="-420.45" transform="scale(1, -1)"
	style="font-family:Times;font-weight:normal;font-style:normal;font-size:12px"> </text>
<text x="379.31" y="-3.8613" transform="scale(1, -1)"
	style="font-family:Times;font-weight:normal;font-style:normal;font-size:12px">Costs</text>
<text x="62.805" y="-18.634" transform="scale(1, -1)"
	style="font-family:Times;font-weight:normal;font-style:normal;font-size:10px">0</text>
<text x="368.09" y="-18.634" transform="scale(1, -1)"
	style="font-family:Times;font-weight:normal;font-style:normal;font-size:10px">200</text>
<text x="678.37" y="-18.634" transform="scale(1, -1)"
	style="font-family:Times;font-weight:normal;font-style:normal;font-size:10px">400</text>
<path d="M65.305,28.263L65.305,36.263" style="fill:none;stroke:#000000;stroke-width:0.5" />
<path d="M375.59,28.263L375.59,36.263" style="fill:none;stroke:#000000;stroke-width:0.5" />
<path d="M685.87,28.263L685.87,36.263" style="fill:none;stroke:#000000;stroke-width:0.5" />
<path d="M220.45,32.263L220.45,36.263" style="fill:none;stroke:#000000;stroke-width:0.5" />
<path d="M530.73,32.263L530.73,36.263" style="fill:none;stroke:#000000;stroke-width:0.5" />
<path d="M65.305,36.263L720,36.263" style="fill:none;stroke:#000000;stroke-width:0.5" />
<g transform="rotate(90)">
<text x="152.55" y="11.555" transform="scale(1, -1)"
	style="font-family:Times;font-weight:normal;font-style:normal;font-size:12px">Number of trials (1000000 total)</text>
</g>
<text x="24.055" y="-88.813" transform="scale(1, -1)"
	style="font-family:Times;font-weight:normal;font-style:normal;font-size:10px">40000</text>
<text x="19.055" y="-229.42" transform="scale(1, -1)"
	style="font-family:Times;font-weight:normal;font-style:normal;font-size:10px">160000</text>
<text x="19.055" y="-370.02" transform="scale(1, -1)"
	style="font-family:Times;font-weight:normal;font-style:normal;font-size:10px">280000</text>
<path d="M51.555,92.018L59.555,92.018" style="fill:none;stroke:#000000;stroke-width:0.5" />
<path d="M51.555,232.62L59.555,232.62" style="fill:none;stroke:#000000;stroke-width:0.5" />
<path d="M51.555,373.23L59.555,373.23" style="fill:none;stroke:#000000;stroke-width:0.5" />
<path d="M55.555,162.32L59.555,162.32" style="fill:none;stroke:#000000;stroke-width:0.5" />
<path d="M55.555,302.93L59.555,302.93" style="fill:none;stroke:#000000;stroke-width:0.5" />
<path d="M59.555,45.151L59.555,416.58" style="fill:none;stroke:#000000;stroke-width:0.5" />
<path d="M65.305,416.58L107.19,69.307L110.3,55.578L111.85,59.117L113.4,55.833L114.95,55.605L116.5,48.594L118.05,52.409L119.6,66.24L121.16,55.781L124.26,59.014L125.81,52.193L127.36,66.335L128.91,83.64L130.46,52.042L132.02,55.35L133.57,58.976L135.12,55.754L136.67,55.21L141.32,77.275L142.88,69.844L144.43,59.466L147.53,59.067L149.08,52.385L152.18,49.516L153.74,82.052L155.29,45.852L156.84,46.241L158.39,49.249L159.94,63.924L161.49,50.447L163.04,53.306L164.59,46.119L166.15,47.478L167.7,46.785L169.25,51.211L170.8,49.066L172.35,47.214L173.9,48.752L175.45,52.573L177.01,48.333L178.56,49.173L180.11,51.257L181.66,48.665L183.21,51.242L184.76,49.495L186.31,49.262L187.87,50.343L189.42,54.284L190.97,65.131L192.52,49.617L194.07,49.16L195.62,53.114L197.17,50.982L198.73,50.177L200.28,50.34L201.83,50.477L203.38,50.778L204.93,52.463L206.48,51.679L208.03,51.702L209.59,50.227L211.14,50.054L212.69,50.653L214.24,49.201L215.79,49.991L217.34,51.647L218.89,49.842L220.45,49.003L222,49.845L223.55,50.433L225.1,49.661L226.65,48.09L228.2,47.701L229.75,50.03L231.31,49.981L232.86,48.87L234.41,46.9L235.96,49.801L237.51,49.184L239.06,48.485L240.61,47.898L242.17,48.287L243.72,47.597L245.27,47.98L246.82,47.878L248.37,48.63L249.92,47.743L251.47,48.31L253.03,48.138L254.58,48.519L256.13,47.487L257.68,48.294L259.23,47.746L260.78,47.297L262.33,47.238L263.89,47.417L265.44,47.312L266.99,48.475L268.54,48.321L270.09,47.481L271.64,47.161L273.19,47.653L274.75,47.29L276.3,46.836L277.85,47.401L279.4,48.238L280.95,46.757L282.5,46.748L284.05,47.158L285.61,47.578L287.16,46.916L288.71,46.823L290.26,46.676L291.81,46.637L293.36,46.673L294.91,46.767L296.46,46.559L298.02,46.464L299.57,46.657L301.12,46.685L302.67,46.388L304.22,46.347L305.77,46.419L307.32,46.371L308.88,46.321L310.43,46.279L311.98,46.327L313.53,46.338L315.08,46.472L316.63,46.179L318.18,46.132L319.74,46.189L321.29,46.16L322.84,46.148L324.39,46.141L325.94,46.054L327.49,46.03L329.04,45.987L330.6,46.036L332.15,46.057L333.7,46.057L335.25,45.962L336.8,45.934L338.35,45.853L339.9,45.877L341.46,45.838L343.01,45.915L344.56,45.822L346.11,45.833L347.66,45.829L349.21,45.763L350.76,45.754L352.32,45.716L353.87,45.663L355.42,45.762L356.97,45.742L358.52,45.636L360.07,45.572L361.62,45.658L363.18,45.645L364.73,45.579L366.28,45.56L367.83,45.621L369.38,45.526L370.93,45.524L372.48,45.529L374.04,45.503L375.59,45.512L377.14,45.536L378.69,45.472L380.24,45.477L381.79,45.464L383.34,45.498L384.9,45.449L386.45,45.419L388,45.451L389.55,45.457L391.1,45.392L392.65,45.416L394.2,45.404L395.76,45.378L397.31,45.401L398.86,45.385L400.41,45.379L401.96,45.352L403.51,45.375L405.06,45.37L406.62,45.352L408.17,45.362L409.72,45.327L411.27,45.348L412.82,45.315L414.37,45.326L415.92,45.332L417.47,45.299L419.03,45.321L420.58,45.306L422.13,45.314L423.68,45.294L425.23,45.266L426.78,45.304L428.33,45.279L429.89,45.26L431.44,45.249L432.99,45.27L434.54,45.263L436.09,45.264L437.64,45.266L439.19,45.24L440.75,45.243L442.3,45.236L443.85,45.239L445.4,45.237L446.95,45.231L448.5,45.226L450.05,45.237L451.61,45.222L453.16,45.232L454.71,45.218L456.26,45.222L457.81,45.219L459.36,45.215L460.91,45.209L462.47,45.21L464.02,45.201L465.57,45.217L467.12,45.209L468.67,45.205L470.22,45.199L471.77,45.199L473.33,45.195L474.88,45.185L476.43,45.199L477.98,45.202L479.53,45.202L481.08,45.196L482.63,45.181L484.19,45.179L485.74,45.197L487.29,45.184L488.84,45.185L490.39,45.17L491.94,45.179L493.49,45.183L495.05,45.175L496.6,45.165L498.15,45.176L499.7,45.175L501.25,45.17L502.8,45.177L504.35,45.169L505.91,45.178L507.46,45.174L509.01,45.16L510.56,45.167L512.11,45.165L513.66,45.168L515.21,45.161L516.77,45.168L518.32,45.167L519.87,45.158L521.42,45.163L522.97,45.163L524.52,45.174L526.07,45.158L527.63,45.16L529.18,45.167L530.73,45.167L532.28,45.164L533.83,45.162L535.38,45.157L536.93,45.158L538.48,45.157L540.04,45.158L541.59,45.158L543.14,45.16L544.69,45.158L546.24,45.16L547.79,45.155L549.34,45.16L550.9,45.156L552.45,45.153L554,45.158L555.55,45.154L557.1,45.158L558.65,45.158L561.76,45.155L563.31,45.156L564.86,45.153L566.41,45.155L567.96,45.151L569.51,45.155L571.06,45.16L572.62,45.154L574.17,45.155L575.72,45.154L577.27,45.155L578.82,45.155L580.37,45.155L581.92,45.151L586.58,45.155L588.13,45.151L591.23,45.154L594.34,45.153L595.89,45.151L597.44,45.151L598.99,45.153L602.09,45.153L603.64,45.151L605.2,45.151L606.75,45.151L608.3,45.151L609.85,45.151L612.95,45.151L616.06,45.153L617.61,45.151L620.71,45.151L622.26,45.151L625.36,45.153L626.92,45.151L628.47,45.151L636.22,45.151L640.88,45.151L651.74,45.151L670.35,45.151L673.46,45.151L679.66,45.151L707.59,45.151L720,45.151" style="fill:none;stroke:#0000FF" />
</g>
</svg>
