<?xml version="1.0"?>
<!-- Generated by SVGo and Plotinum VG -->
<svg width="720pt" height="432pt" viewBox="0 0 720 432"
	xmlns="http://www.w3.org/2000/svg"
	xmlns:xlink="http://www.w3.org/1999/xlink">
<g transform="scale(1, -1) translate(0, -432)">
<path d="M0,0L720,0L720,432L0,432Z" style="fill:#FFFFFF" />
<text x="358.5" y="-420.45" transform="scale(1, -1)"
	style="font-family:Times;font-weight:normal;font-style:normal;font-size:12px"> </text>
<text x="379.31" y="-3.8613" transform="scale(1, -1)"
	style="font-family:Times;font-weight:normal;font-style:normal;font-size:12px">Costs</text>
<text x="62.805" y="-18.634" transform="scale(1, -1)"
	style="font-family:Times;font-weight:normal;font-style:normal;font-size:10px">0</text>
<text x="343.07" y="-18.634" transform="scale(1, -1)"
	style="font-family:Times;font-weight:normal;font-style:normal;font-size:10px">200</text>
<text x="628.35" y="-18.634" transform="scale(1, -1)"
	style="font-family:Times;font-weight:normal;font-style:normal;font-size:10px">400</text>
<path d="M65.305,28.263L65.305,36.263" style="fill:none;stroke:#000000;stroke-width:0.5" />
<path d="M350.57,28.263L350.57,36.263" style="fill:none;stroke:#000000;stroke-width:0.5" />
<path d="M635.85,28.263L635.85,36.263" style="fill:none;stroke:#000000;stroke-width:0.5" />
<path d="M207.94,32.263L207.94,36.263" style="fill:none;stroke:#000000;stroke-width:0.5" />
<path d="M493.21,32.263L493.21,36.263" style="fill:none;stroke:#000000;stroke-width:0.5" />
<path d="M65.305,36.263L720,36.263" style="fill:none;stroke:#000000;stroke-width:0.5" />
<g transform="rotate(90)">
<text x="152.55" y="11.555" transform="scale(1, -1)"
	style="font-family:Times;font-weight:normal;font-style:normal;font-size:12px">Number of trials (1000000 total)</text>
</g>
<text x="19.055" y="-149.1" transform="scale(1, -1)"
	style="font-family:Times;font-weight:normal;font-style:normal;font-size:10px">100000</text>
<text x="19.055" y="-363.4" transform="scale(1, -1)"
	style="font-family:Times;font-weight:normal;font-style:normal;font-size:10px">300000</text>
<path d="M51.555,152.3L59.555,152.3" style="fill:none;stroke:#000000;stroke-width:0.5" />
<path d="M51.555,366.61L59.555,366.61" style="fill:none;stroke:#000000;stroke-width:0.5" />
<path d="M55.555,259.45L59.555,259.45" style="fill:none;stroke:#000000;stroke-width:0.5" />
<path d="M59.555,45.151L59.555,416.58" style="fill:none;stroke:#000000;stroke-width:0.5" />
<path d="M65.305,416.58L98.111,48.605L102.39,59.708L103.82,48.69L105.24,48.573L108.1,48.486L109.52,73.374L110.95,66.589L113.8,59.713L115.23,73.225L116.65,63.287L119.51,48.553L122.36,70.061L123.79,52.05L125.21,48.534L128.06,58.695L129.49,48.523L130.92,66.623L135.2,55.503L136.62,62.913L138.05,52.187L140.9,77.197L142.33,52.488L143.75,48.79L145.18,55.562L146.61,49.816L148.03,46.597L149.46,49.218L150.89,49.201L152.31,53.898L153.74,61.206L155.16,47.439L156.59,45.766L158.02,46.569L159.44,49.175L160.87,48.678L162.3,46.677L163.72,46.855L165.15,47.273L166.58,66.854L168,48.284L169.43,64.633L170.85,53.636L172.28,48.787L173.71,49.171L175.13,47.908L176.56,47.59L177.99,47.902L179.41,55.889L180.84,67.686L182.27,48.506L183.69,46.583L185.12,50.137L186.54,50.686L187.97,49.237L189.4,48.643L190.82,49.826L192.25,48.606L193.68,48.658L195.1,48.065L196.53,47.49L197.96,49.662L199.38,48.658L200.81,47.75L202.23,48.55L203.66,49.696L205.09,47.163L206.51,48.997L207.94,47.247L209.37,47.158L210.79,49.414L212.22,49.005L213.65,48.328L215.07,48.717L216.5,50.016L217.92,49.626L219.35,48.844L220.78,48.532L222.2,47.07L223.63,48.842L225.06,49.121L226.48,48.907L227.91,47.277L229.34,49.472L230.76,48.397L232.19,48.84L233.61,46.774L235.04,47.507L236.47,47.508L237.89,48.433L239.32,47.354L240.75,47.325L242.17,48.501L243.6,47.256L245.02,48.242L246.45,48.437L247.88,46.641L249.3,46.88L250.73,47.49L252.16,47.233L253.58,46.927L255.01,47.649L256.44,48.269L257.86,47.3L259.29,46.655L260.71,46.918L262.14,46.455L263.57,46.4L264.99,46.446L266.42,46.44L267.85,46.842L269.27,47.044L270.7,46.878L272.13,46.329L273.55,46.248L274.98,46.691L276.4,46.231L277.83,46.151L279.26,46.141L280.68,46.436L282.11,46.922L283.54,46.432L284.96,46.729L286.39,46.539L287.82,46.222L289.24,46.234L290.67,46.223L292.09,46.166L293.52,46.043L294.95,46.514L296.37,46.154L297.8,45.934L299.23,46.004L300.65,45.987L302.08,46.076L303.51,46.059L304.93,45.967L306.36,45.91L307.78,46.029L309.21,45.784L310.64,45.821L312.06,45.807L313.49,45.818L314.92,45.85L316.34,45.8L317.77,45.791L319.2,45.807L320.62,45.83L322.05,45.795L323.47,45.675L324.9,45.684L326.33,45.763L327.75,45.736L329.18,45.668L330.61,45.718L332.03,45.739L333.46,45.692L334.89,45.635L336.31,45.592L337.74,45.537L339.16,45.526L340.59,45.575L342.02,45.536L343.44,45.547L344.87,45.541L346.3,45.542L347.72,45.539L349.15,45.447L350.57,45.506L352,45.521L353.43,45.437L354.85,45.44L356.28,45.472L357.71,45.493L359.13,45.431L360.56,45.504L361.99,45.399L363.41,45.404L364.84,45.394L366.26,45.401L367.69,45.379L369.12,45.381L370.54,45.432L371.97,45.376L373.4,45.354L374.82,45.37L376.25,45.346L377.68,45.328L379.1,45.317L380.53,45.314L381.95,45.329L383.38,45.33L384.81,45.322L386.23,45.32L387.66,45.308L389.09,45.282L390.51,45.296L391.94,45.272L393.37,45.289L394.79,45.269L396.22,45.292L397.64,45.271L399.07,45.289L400.5,45.256L401.92,45.247L403.35,45.238L404.78,45.251L406.2,45.252L407.63,45.246L409.06,45.255L410.48,45.246L411.91,45.24L413.33,45.232L414.76,45.226L416.19,45.239L417.61,45.235L419.04,45.226L420.47,45.212L421.89,45.221L423.32,45.215L424.75,45.221L426.17,45.215L427.6,45.212L429.02,45.208L430.45,45.207L431.88,45.203L433.3,45.204L434.73,45.192L436.16,45.212L437.58,45.191L439.01,45.189L440.44,45.197L441.86,45.204L443.29,45.182L444.71,45.19L446.14,45.185L447.57,45.186L448.99,45.185L450.42,45.186L451.85,45.174L453.27,45.171L454.7,45.175L456.12,45.174L457.55,45.181L458.98,45.179L460.4,45.178L461.83,45.182L463.26,45.169L464.68,45.173L466.11,45.182L467.54,45.172L468.96,45.17L470.39,45.169L471.81,45.167L473.24,45.169L474.67,45.169L476.09,45.164L477.52,45.17L478.95,45.171L480.37,45.165L481.8,45.164L483.23,45.165L484.65,45.169L486.08,45.16L487.5,45.167L488.93,45.16L490.36,45.161L491.78,45.159L493.21,45.163L494.64,45.161L496.06,45.16L497.49,45.162L498.92,45.161L500.34,45.161L501.77,45.159L503.19,45.154L504.62,45.16L506.05,45.158L507.47,45.152L508.9,45.162L510.33,45.158L511.75,45.156L513.18,45.155L514.61,45.156L516.03,45.158L517.46,45.159L518.88,45.154L520.31,45.156L521.74,45.154L523.16,45.155L524.59,45.152L526.02,45.156L527.44,45.155L528.87,45.156L530.3,45.157L531.72,45.157L533.15,45.155L534.57,45.152L536,45.151L537.43,45.154L538.85,45.151L540.28,45.155L541.71,45.152L543.13,45.154L544.56,45.152L545.99,45.151L547.41,45.154L548.84,45.151L550.26,45.154L551.69,45.152L553.12,45.152L554.54,45.151L555.97,45.151L557.4,45.151L558.82,45.151L560.25,45.154L561.67,45.151L563.1,45.154L564.53,45.151L567.38,45.151L570.23,45.152L571.66,45.152L574.51,45.151L580.22,45.154L584.5,45.154L585.92,45.151L588.78,45.151L590.2,45.151L591.63,45.151L593.05,45.151L594.48,45.151L601.61,45.151L603.04,45.151L604.47,45.152L605.89,45.151L608.74,45.152L617.3,45.151L634.42,45.151L720,45.151" style="fill:none;stroke:#0000FF" />
</g>
</svg>
