<?xml version="1.0"?>
<!-- Generated by SVGo and Plotinum VG -->
<svg width="720pt" height="432pt" viewBox="0 0 720 432"
	xmlns="http://www.w3.org/2000/svg"
	xmlns:xlink="http://www.w3.org/1999/xlink">
<g transform="scale(1, -1) translate(0, -432)">
<path d="M0,0L720,0L720,432L0,432Z" style="fill:#FFFFFF" />
<text x="358.5" y="-420.45" transform="scale(1, -1)"
	style="font-family:Times;font-weight:normal;font-style:normal;font-size:12px"> </text>
<text x="385.56" y="-3.8613" transform="scale(1, -1)"
	style="font-family:Times;font-weight:normal;font-style:normal;font-size:12px">Costs</text>
<text x="69.055" y="-18.634" transform="scale(1, -1)"
	style="font-family:Times;font-weight:normal;font-style:normal;font-size:10px">0.00</text>
<text x="349.22" y="-18.634" transform="scale(1, -1)"
	style="font-family:Times;font-weight:normal;font-style:normal;font-size:10px">250.00</text>
<text x="634.39" y="-18.634" transform="scale(1, -1)"
	style="font-family:Times;font-weight:normal;font-style:normal;font-size:10px">500.00</text>
<path d="M77.805,28.263L77.805,36.263" style="fill:none;stroke:#000000;stroke-width:0.5" />
<path d="M362.97,28.263L362.97,36.263" style="fill:none;stroke:#000000;stroke-width:0.5" />
<path d="M648.14,28.263L648.14,36.263" style="fill:none;stroke:#000000;stroke-width:0.5" />
<path d="M134.84,32.263L134.84,36.263" style="fill:none;stroke:#000000;stroke-width:0.5" />
<path d="M191.87,32.263L191.87,36.263" style="fill:none;stroke:#000000;stroke-width:0.5" />
<path d="M248.9,32.263L248.9,36.263" style="fill:none;stroke:#000000;stroke-width:0.5" />
<path d="M305.94,32.263L305.94,36.263" style="fill:none;stroke:#000000;stroke-width:0.5" />
<path d="M420,32.263L420,36.263" style="fill:none;stroke:#000000;stroke-width:0.5" />
<path d="M477.04,32.263L477.04,36.263" style="fill:none;stroke:#000000;stroke-width:0.5" />
<path d="M534.07,32.263L534.07,36.263" style="fill:none;stroke:#000000;stroke-width:0.5" />
<path d="M591.1,32.263L591.1,36.263" style="fill:none;stroke:#000000;stroke-width:0.5" />
<path d="M705.17,32.263L705.17,36.263" style="fill:none;stroke:#000000;stroke-width:0.5" />
<path d="M77.805,36.263L720,36.263" style="fill:none;stroke:#000000;stroke-width:0.5" />
<g transform="rotate(90)">
<text x="152.55" y="11.555" transform="scale(1, -1)"
	style="font-family:Times;font-weight:normal;font-style:normal;font-size:12px">Number of trials (1000000 total)</text>
</g>
<text x="24.055" y="-113.42" transform="scale(1, -1)"
	style="font-family:Times;font-weight:normal;font-style:normal;font-size:10px">25000.00</text>
<text x="24.055" y="-256.36" transform="scale(1, -1)"
	style="font-family:Times;font-weight:normal;font-style:normal;font-size:10px">75000.00</text>
<text x="19.055" y="-399.31" transform="scale(1, -1)"
	style="font-family:Times;font-weight:normal;font-style:normal;font-size:10px">125000.00</text>
<path d="M64.055,116.62L72.055,116.62" style="fill:none;stroke:#000000;stroke-width:0.5" />
<path d="M64.055,259.57L72.055,259.57" style="fill:none;stroke:#000000;stroke-width:0.5" />
<path d="M64.055,402.52L72.055,402.52" style="fill:none;stroke:#000000;stroke-width:0.5" />
<path d="M68.055,59.443L72.055,59.443" style="fill:none;stroke:#000000;stroke-width:0.5" />
<path d="M68.055,88.033L72.055,88.033" style="fill:none;stroke:#000000;stroke-width:0.5" />
<path d="M68.055,145.21L72.055,145.21" style="fill:none;stroke:#000000;stroke-width:0.5" />
<path d="M68.055,173.8L72.055,173.8" style="fill:none;stroke:#000000;stroke-width:0.5" />
<path d="M68.055,202.39L72.055,202.39" style="fill:none;stroke:#000000;stroke-width:0.5" />
<path d="M68.055,230.98L72.055,230.98" style="fill:none;stroke:#000000;stroke-width:0.5" />
<path d="M68.055,288.16L72.055,288.16" style="fill:none;stroke:#000000;stroke-width:0.5" />
<path d="M68.055,316.75L72.055,316.75" style="fill:none;stroke:#000000;stroke-width:0.5" />
<path d="M68.055,345.34L72.055,345.34" style="fill:none;stroke:#000000;stroke-width:0.5" />
<path d="M68.055,373.93L72.055,373.93" style="fill:none;stroke:#000000;stroke-width:0.5" />
<path d="M72.055,45.151L72.055,416.58" style="fill:none;stroke:#000000;stroke-width:0.5" />
<path d="M77.805,416.58L107.46,92.653L108.6,48.405L109.74,65.727L110.88,51.887L113.17,69.818L114.31,51.904L115.45,70.862L116.59,59.16L117.73,114.26L118.87,59.257L121.15,70.533L122.29,94.491L123.43,69.021L126.85,62.834L127.99,121L129.13,62.903L130.28,82.81L132.56,70.842L133.7,70.793L137.12,46.627L138.26,88.136L139.4,62.051L140.54,46.183L141.68,96.084L142.82,48.862L143.96,46.221L145.1,87.095L146.24,81.306L147.39,55.255L148.53,49.24L149.67,49.857L150.81,52.001L151.95,53.156L153.09,55.255L154.23,73.372L155.37,52.793L156.51,53.257L157.65,63.597L158.79,58.731L159.93,59.692L161.07,56.364L162.21,62.568L163.35,60.773L164.5,51.27L165.64,62.451L166.78,57.739L167.92,73.095L169.06,82.635L170.2,79.765L171.34,64.652L172.48,64.441L173.62,66.805L174.76,59.975L175.9,57.136L177.04,62.319L178.18,66.599L179.32,61.396L180.46,57.436L181.61,64.063L182.75,64.478L183.89,63.477L185.03,63.383L186.17,64.389L187.31,54.186L188.45,60.987L189.59,61.21L190.73,62.731L191.87,63.466L193.01,53.986L194.15,62.096L195.29,59.349L196.43,60.87L197.57,60.736L198.72,60.547L199.86,58.614L201,56.922L202.14,60.727L203.28,55.404L204.42,56.075L205.56,60.224L206.7,60.904L207.84,56.358L208.98,64.898L210.12,63.197L211.26,54.946L212.4,55.326L213.54,62.016L214.68,59.675L215.83,56.095L216.97,53.288L218.11,58.98L219.25,59.735L220.39,59.832L221.53,60.736L222.67,58.857L223.81,57.536L224.95,56.676L226.09,56.75L227.23,54.852L228.37,55.003L229.51,58.606L230.65,57.391L231.79,55.97L232.94,57.591L234.08,58.234L235.22,55.795L236.36,57.982L237.5,58.051L238.64,57.01L239.78,54.594L240.92,54.412L242.06,54.494L243.2,53.314L244.34,53.926L245.48,55.764L246.62,55.592L247.76,53.351L248.9,54.077L250.05,54.514L251.19,53.58L252.33,53.811L253.47,53.883L254.61,53.405L255.75,52.719L256.89,52.465L258.03,53.831L259.17,54.123L260.31,53.337L261.45,54.12L262.59,52.788L263.73,52.999L264.87,53.136L266.01,52.79L267.16,52.013L268.3,52.067L269.44,52.533L270.58,52.59L271.72,51.713L272.86,51.621L274,52.567L275.14,51.767L276.28,51.987L277.42,51.99L278.56,51.473L279.7,50.832L280.84,50.778L281.98,51.69L283.12,51.295L284.27,50.881L285.41,50.898L286.55,51.007L287.69,51.027L288.83,50.778L289.97,50.861L291.11,50.192L292.25,49.803L293.39,49.929L294.53,49.929L295.67,49.543L296.81,49.997L297.95,50.095L299.09,49.814L300.23,49.597L301.38,49.743L302.52,49.508L303.66,48.982L304.8,49.16L305.94,49.36L307.08,49.057L308.22,48.662L309.36,48.894L310.5,48.882L311.64,48.888L312.78,48.831L313.92,49.074L315.06,48.614L316.2,48.445L317.34,48.568L318.49,48.448L319.63,48.139L320.77,48.116L321.91,48.27L323.05,48.388L324.19,48.016L325.33,47.99L326.47,47.945L327.61,48.13L328.75,47.853L329.89,47.836L331.03,47.83L332.17,47.693L333.31,47.624L334.45,47.607L335.6,47.501L336.74,47.436L337.88,47.639L339.02,47.361L340.16,47.307L341.3,47.344L342.44,47.181L343.58,47.121L344.72,47.284L345.86,47.238L347,47.053L348.14,46.932L349.28,47.087L350.42,47.015L351.56,46.884L352.71,46.764L353.85,46.864L354.99,46.795L356.13,46.807L357.27,46.764L358.41,46.492L359.55,46.627L360.69,46.492L361.83,46.618L362.97,46.607L364.11,46.469L365.25,46.564L366.39,46.529L367.53,46.386L368.67,46.429L369.82,46.415L370.96,46.321L372.1,46.315L373.24,46.226L374.38,46.344L375.52,46.269L376.66,46.138L377.8,46.141L378.94,46.043L380.08,46.103L381.22,46.038L382.36,46.098L383.5,46.075L384.64,46.032L385.78,46.046L386.93,45.955L388.07,45.983L389.21,45.889L390.35,45.963L391.49,45.929L392.63,45.943L393.77,45.9L394.91,45.797L396.05,45.846L397.19,45.855L398.33,45.723L399.47,45.703L400.61,45.732L401.75,45.755L402.89,45.706L404.04,45.655L405.18,45.717L406.32,45.692L407.46,45.683L408.6,45.623L409.74,45.686L410.88,45.623L412.02,45.632L413.16,45.615L414.3,45.603L415.44,45.577L416.58,45.569L417.72,45.517L418.86,45.534L420,45.557L421.15,45.526L422.29,45.523L423.43,45.494L424.57,45.5L425.71,45.463L426.85,45.506L427.99,45.503L429.13,45.52L430.27,45.469L431.41,45.463L432.55,45.454L433.69,45.412L434.83,45.394L435.97,45.343L437.11,45.443L438.26,45.397L439.4,45.44L440.54,45.32L441.68,45.372L442.82,45.383L443.96,45.343L445.1,45.374L446.24,45.36L447.38,45.289L448.52,45.311L449.66,45.306L450.8,45.28L451.94,45.283L453.08,45.334L454.22,45.306L455.37,45.269L456.51,45.286L457.65,45.277L458.79,45.289L459.93,45.317L461.07,45.283L462.21,45.314L463.35,45.269L464.49,45.274L465.63,45.257L466.77,45.254L467.91,45.271L469.05,45.266L470.19,45.26L471.33,45.277L472.48,45.269L473.62,45.251L474.76,45.254L475.9,45.234L477.04,45.254L478.18,45.231L479.32,45.226L480.46,45.24L481.6,45.251L482.74,45.237L483.88,45.229L485.02,45.223L486.16,45.223L487.3,45.206L488.44,45.229L489.59,45.22L490.73,45.189L491.87,45.186L493.01,45.197L494.15,45.189L495.29,45.211L496.43,45.18L497.57,45.211L498.71,45.194L499.85,45.197L500.99,45.197L502.13,45.183L503.27,45.211L504.41,45.2L505.55,45.203L506.7,45.186L507.84,45.189L508.98,45.18L510.12,45.169L511.26,45.189L512.4,45.194L513.54,45.177L514.68,45.171L515.82,45.166L516.96,45.171L518.1,45.169L519.24,45.18L520.38,45.189L521.52,45.166L522.66,45.18L523.81,45.171L524.95,45.166L526.09,45.16L527.23,45.174L528.37,45.169L529.51,45.169L530.65,45.174L531.79,45.174L532.93,45.166L534.07,45.163L535.21,45.166L536.35,45.166L537.49,45.163L538.63,45.166L539.77,45.157L540.92,45.163L542.06,45.16L543.2,45.16L544.34,45.154L545.48,45.151L546.62,45.166L547.76,45.166L548.9,45.157L550.04,45.166L551.18,45.154L552.32,45.16L553.46,45.16L554.6,45.154L555.74,45.169L556.88,45.16L558.03,45.157L560.31,45.157L562.59,45.154L563.73,45.157L566.01,45.151L567.15,45.151L569.43,45.154L570.57,45.154L571.71,45.154L575.14,45.157L576.28,45.151L577.42,45.151L578.56,45.151L579.7,45.151L583.12,45.157L584.26,45.154L585.4,45.163L586.54,45.151L587.68,45.154L588.82,45.154L589.96,45.154L595.67,45.151L596.81,45.154L597.95,45.151L599.09,45.151L600.23,45.154L601.37,45.151L603.65,45.154L604.79,45.151L609.36,45.151L610.5,45.151L613.92,45.151L617.34,45.151L619.62,45.151L621.9,45.151L624.18,45.151L626.47,45.151L632.17,45.154L640.15,45.151L642.43,45.151L647,45.151L650.42,45.151L652.7,45.151L657.26,45.151L672.09,45.151L686.92,45.151L720,45.151" style="fill:none;stroke:#0000FF" />
</g>
</svg>
