<?xml version="1.0"?>
<!-- Generated by SVGo and Plotinum VG -->
<svg width="720pt" height="432pt" viewBox="0 0 720 432"
	xmlns="http://www.w3.org/2000/svg"
	xmlns:xlink="http://www.w3.org/1999/xlink">
<g transform="scale(1, -1) translate(0, -432)">
<path d="M0,0L720,0L720,432L0,432Z" style="fill:#FFFFFF" />
<text x="358.5" y="-420.45" transform="scale(1, -1)"
	style="font-family:Times;font-weight:normal;font-style:normal;font-size:12px"> </text>
<text x="376.81" y="-3.8613" transform="scale(1, -1)"
	style="font-family:Times;font-weight:normal;font-style:normal;font-size:12px">Costs</text>
<text x="57.805" y="-18.634" transform="scale(1, -1)"
	style="font-family:Times;font-weight:normal;font-style:normal;font-size:10px">0</text>
<text x="348.19" y="-18.634" transform="scale(1, -1)"
	style="font-family:Times;font-weight:normal;font-style:normal;font-size:10px">300</text>
<text x="643.58" y="-18.634" transform="scale(1, -1)"
	style="font-family:Times;font-weight:normal;font-style:normal;font-size:10px">600</text>
<path d="M60.305,28.263L60.305,36.263" style="fill:none;stroke:#000000;stroke-width:0.5" />
<path d="M355.69,28.263L355.69,36.263" style="fill:none;stroke:#000000;stroke-width:0.5" />
<path d="M651.08,28.263L651.08,36.263" style="fill:none;stroke:#000000;stroke-width:0.5" />
<path d="M158.77,32.263L158.77,36.263" style="fill:none;stroke:#000000;stroke-width:0.5" />
<path d="M257.23,32.263L257.23,36.263" style="fill:none;stroke:#000000;stroke-width:0.5" />
<path d="M454.15,32.263L454.15,36.263" style="fill:none;stroke:#000000;stroke-width:0.5" />
<path d="M552.61,32.263L552.61,36.263" style="fill:none;stroke:#000000;stroke-width:0.5" />
<path d="M60.305,36.263L720,36.263" style="fill:none;stroke:#000000;stroke-width:0.5" />
<g transform="rotate(90)">
<text x="152.55" y="11.555" transform="scale(1, -1)"
	style="font-family:Times;font-weight:normal;font-style:normal;font-size:12px">Number of trials (1000000 total)</text>
</g>
<text x="24.055" y="-108.15" transform="scale(1, -1)"
	style="font-family:Times;font-weight:normal;font-style:normal;font-size:10px">4000</text>
<text x="19.055" y="-240.58" transform="scale(1, -1)"
	style="font-family:Times;font-weight:normal;font-style:normal;font-size:10px">12000</text>
<text x="19.055" y="-373.02" transform="scale(1, -1)"
	style="font-family:Times;font-weight:normal;font-style:normal;font-size:10px">20000</text>
<path d="M46.555,111.35L54.555,111.35" style="fill:none;stroke:#000000;stroke-width:0.5" />
<path d="M46.555,243.79L54.555,243.79" style="fill:none;stroke:#000000;stroke-width:0.5" />
<path d="M46.555,376.22L54.555,376.22" style="fill:none;stroke:#000000;stroke-width:0.5" />
<path d="M50.555,177.57L54.555,177.57" style="fill:none;stroke:#000000;stroke-width:0.5" />
<path d="M50.555,310.01L54.555,310.01" style="fill:none;stroke:#000000;stroke-width:0.5" />
<path d="M54.555,45.151L54.555,416.58" style="fill:none;stroke:#000000;stroke-width:0.5" />
<path d="M60.305,416.58L81.966,70.314L86.889,59.19L87.874,55.697L88.859,51.26L89.843,84.203L90.828,116.63L91.813,94.318L92.797,126.7L93.782,119.88L94.766,69.801L95.751,66.358L97.72,56.011L98.705,89.882L99.689,122.38L100.67,170.68L101.66,87.15L102.64,85.246L103.63,98.854L104.61,106.24L105.6,66.821L107.57,82.167L108.55,84.419L109.54,137.21L110.52,85.279L111.5,48.131L112.49,143.29L113.47,98.407L114.46,86.289L115.44,50.78L116.43,99.417L117.41,83.624L118.4,49.605L119.38,51.939L120.37,87.067L121.35,100.54L122.34,74.734L123.32,73.062L124.3,77.135L125.29,73.393L126.27,75.794L127.26,66.507L128.24,68.51L129.23,74.502L130.21,88.806L131.2,106.27L132.18,127.99L133.17,138.45L134.15,116.73L135.14,103.59L136.12,99.318L137.11,87.382L138.09,97.563L139.07,103.41L140.06,140.34L141.04,116.63L142.03,122.92L143.01,137.67L144,128.78L144.98,121.47L145.97,117.26L146.95,112.64L147.94,122.54L148.92,114.43L149.91,125.39L150.89,112.45L151.87,119.56L152.86,134.99L153.84,128.3L154.83,112.56L155.81,103.22L156.8,117.69L157.78,108.24L158.77,92.199L159.75,100.74L160.74,108.62L161.72,124.6L162.71,113.82L163.69,109.02L164.67,116.37L165.66,121.72L166.64,114.6L167.63,91.686L168.61,97.844L169.6,110.56L170.58,115.99L171.57,111.93L172.55,122.91L173.54,133.72L174.52,117.99L175.51,117.18L176.49,116.37L177.47,117.94L178.46,116.02L179.44,117.3L180.43,126.38L181.41,128.73L182.4,129.91L183.38,132.51L184.37,135.74L185.35,133.22L186.34,128.93L187.32,128.82L188.31,127.49L189.29,131.17L190.27,125.85L191.26,123.45L192.24,136.7L193.23,134.31L194.21,134.93L195.2,129.83L196.18,131.93L197.17,128.42L198.15,121.83L199.14,119.68L200.12,122.36L201.11,125.13L202.09,123.59L203.07,125.21L204.06,123.45L205.04,128.97L206.03,127.66L207.01,120.94L208,113.79L208.98,118.22L209.97,118.7L210.95,117.35L211.94,117.64L212.92,117.92L213.91,126.25L214.89,124.13L215.87,120.77L216.86,119.88L217.84,120.18L218.83,117.01L219.81,119.23L220.8,117.15L221.78,121.15L222.77,125.54L223.75,121.95L224.74,121.96L225.72,124.45L226.71,123.29L227.69,120.95L228.67,118.77L229.66,120.46L230.64,120.57L231.63,117.33L232.61,119.85L233.6,124.27L234.58,119.6L235.57,121.67L236.55,121.8L237.54,120.69L238.52,115.95L239.51,115.31L240.49,114.42L241.47,115.16L242.46,113.02L243.44,115.81L244.43,114.02L245.41,115.92L246.4,114.32L247.38,111.78L248.37,112.41L249.35,112.05L250.34,111.5L251.32,107.94L252.31,109.38L253.29,111.34L254.27,109.45L255.26,108.57L256.24,108.51L257.23,109.04L258.21,107.89L259.2,106.92L260.18,105.41L261.17,105.91L262.15,105.36L263.14,105.49L264.12,104.13L265.11,104.13L266.09,104.35L267.07,104.18L268.06,103.89L269.04,101.72L270.03,103.26L271.01,98.655L272,102.74L272.98,100.86L273.97,101.12L274.95,100.05L275.94,101.06L276.92,100.05L277.91,99.351L278.89,98.059L279.87,96.735L280.86,96.106L281.84,94.153L282.83,95.411L283.81,95.179L284.8,95.047L285.78,95.08L286.77,94.169L287.75,91.835L288.74,92.712L289.72,91.686L290.71,90.511L291.69,91.156L292.67,91.156L293.66,91.173L294.64,89.55L295.63,88.971L296.61,87.564L297.6,86.968L298.58,87.415L299.57,86.951L300.55,85.561L301.54,87.001L302.52,84.303L303.51,84.17L304.49,85.759L305.48,85.561L306.46,83.127L307.44,84.203L308.43,83.343L309.41,82.167L310.4,83.376L311.38,80.71L312.37,81.306L313.35,80.197L314.34,81.025L315.32,79.8L316.31,78.922L317.29,78.956L318.28,78.757L319.26,78.277L320.24,77.035L321.23,78.128L322.21,77.052L323.2,75.413L324.18,76.323L325.17,75.281L326.15,75.297L327.14,73.41L328.12,74.072L329.11,74.519L330.09,73.393L331.08,72.615L332.06,73.062L333.04,72.698L334.03,72.748L335.01,71.622L336,70.149L336.98,70.082L337.97,71.291L338.95,69.288L339.94,68.626L340.92,68.377L341.91,70.099L342.89,68.559L343.88,67.616L344.86,68.924L345.84,66.854L346.83,66.192L347.81,65.662L348.8,66.424L349.78,66.887L350.77,65.397L351.75,64.636L352.74,64.007L353.72,64.984L354.71,64.139L355.69,64.222L356.68,63.643L357.66,62.567L358.64,62.649L359.63,61.954L360.61,63.461L361.6,63.146L362.58,61.822L363.57,61.524L364.55,60.696L365.54,60.216L366.52,61.027L367.51,60.514L368.49,59.901L369.48,59.653L370.46,60.497L371.44,59.421L372.43,59.272L373.41,58.908L374.4,58.892L375.38,58.676L376.37,58.511L377.35,58.296L378.34,58.312L379.32,57.882L380.31,57.203L381.29,57.518L382.28,56.839L383.26,56.739L384.24,56.309L385.23,56.491L386.21,56.276L387.2,55.647L388.18,56.309L389.17,55.597L390.15,55.432L391.14,55.68L392.12,54.654L393.11,54.339L394.09,54.753L395.08,54.455L396.06,54.836L397.04,54.488L398.03,53.727L399.01,53.578L400,53.28L400.98,53.495L401.97,53.743L402.95,53.197L403.94,53.064L404.92,52.617L405.91,52.518L406.89,52.899L407.88,52.303L408.86,52.866L409.84,52.319L410.83,52.204L411.81,52.071L412.8,51.591L413.78,51.872L414.77,51.955L415.75,51.657L416.74,51.128L417.72,51.061L418.71,50.383L419.69,51.508L420.68,50.714L421.66,50.498L422.64,50.962L423.63,50.846L424.61,50.283L425.6,50.647L426.58,50.184L427.57,49.886L428.55,49.571L429.54,49.588L430.52,49.257L431.51,50.002L432.49,49.456L433.48,49.224L434.46,49.273L435.44,49.124L436.43,49.108L437.41,48.545L438.4,48.942L439.38,48.843L440.37,48.959L441.35,48.396L442.34,48.727L443.32,48.429L444.31,48.512L445.29,48.479L446.28,47.999L447.26,48.462L448.24,48.197L449.23,47.85L450.21,48.131L451.2,48.164L452.18,47.933L453.17,47.767L454.15,47.717L455.14,47.734L456.12,47.668L457.11,47.303L458.09,47.684L459.08,47.37L460.06,47.502L461.04,47.535L462.03,47.419L463.01,47.039L464,47.37L464.98,47.154L465.97,46.724L466.95,47.105L467.94,47.27L468.92,46.608L469.91,47.088L470.89,47.204L471.88,46.856L472.86,46.939L473.85,46.807L474.83,46.724L475.81,46.625L476.8,46.89L477.78,46.393L478.77,46.509L479.75,46.31L480.74,46.542L481.72,46.691L482.71,46.327L483.69,46.294L484.68,46.31L485.66,46.128L486.65,46.343L487.63,46.178L488.61,46.327L489.6,45.996L490.58,46.343L491.57,46.227L492.55,46.227L493.54,46.078L494.52,45.996L495.51,46.078L496.49,46.078L497.48,45.88L498.46,45.979L499.45,45.863L500.43,46.095L501.41,45.83L502.4,45.979L503.38,46.045L504.37,45.731L505.35,45.896L506.34,45.83L507.32,45.896L508.31,45.896L509.29,45.797L510.28,45.648L511.26,45.863L512.25,45.747L513.23,45.814L514.21,45.747L515.2,45.731L516.18,45.698L517.17,45.582L518.15,45.731L519.14,45.665L520.12,45.747L521.11,45.549L522.09,45.482L523.08,45.565L524.06,45.449L525.05,45.615L526.03,45.582L527.01,45.681L528,45.665L528.98,45.648L529.97,45.449L530.95,45.532L531.94,45.4L532.92,45.4L533.91,45.549L534.89,45.466L535.88,45.466L536.86,45.284L537.85,45.516L538.83,45.499L539.81,45.367L540.8,45.449L541.78,45.4L542.77,45.4L543.75,45.4L544.74,45.433L545.72,45.433L546.71,45.383L547.69,45.449L548.68,45.433L549.66,45.4L550.65,45.449L551.63,45.317L552.61,45.317L553.6,45.317L554.58,45.416L555.57,45.267L556.55,45.35L557.54,45.333L558.52,45.317L559.51,45.3L560.49,45.3L561.48,45.3L562.46,45.35L563.45,45.218L564.43,45.284L565.41,45.3L566.4,45.267L567.38,45.218L568.37,45.3L569.35,45.201L570.34,45.251L571.32,45.267L572.31,45.317L573.29,45.234L574.28,45.184L575.26,45.201L576.25,45.218L577.23,45.184L578.21,45.201L579.2,45.201L580.18,45.201L581.17,45.218L582.15,45.234L583.14,45.267L584.12,45.251L585.11,45.168L586.09,45.168L587.08,45.168L588.06,45.184L589.05,45.201L590.03,45.218L591.01,45.151L592,45.284L592.98,45.168L593.97,45.218L594.95,45.168L595.94,45.201L596.92,45.218L597.91,45.201L598.89,45.184L600.86,45.168L601.85,45.168L602.83,45.168L603.81,45.151L604.8,45.201L605.78,45.201L606.77,45.184L607.75,45.184L608.74,45.151L609.72,45.168L610.71,45.151L611.69,45.151L612.68,45.201L613.66,45.151L614.65,45.168L615.63,45.184L616.61,45.168L618.58,45.218L619.57,45.151L620.55,45.168L621.54,45.168L622.52,45.151L623.51,45.168L624.49,45.168L625.48,45.151L626.46,45.168L628.43,45.151L629.41,45.168L632.37,45.151L634.34,45.151L638.28,45.151L639.26,45.151L640.25,45.184L643.2,45.151L644.18,45.168L648.12,45.151L651.08,45.184L656.98,45.168L657.97,45.168L659.94,45.151L663.88,45.151L666.83,45.151L668.8,45.151L678.65,45.151L683.57,45.151L685.54,45.151L688.49,45.151L696.37,45.151L702.28,45.151L715.08,45.151L718.03,45.151L720,45.168" style="fill:none;stroke:#0000FF" />
</g>
</svg>
