<?xml version="1.0"?>
<!-- Generated by SVGo and Plotinum VG -->
<svg width="720pt" height="432pt" viewBox="0 0 720 432"
	xmlns="http://www.w3.org/2000/svg"
	xmlns:xlink="http://www.w3.org/1999/xlink">
<g transform="scale(1, -1) translate(0, -432)">
<path d="M0,0L720,0L720,432L0,432Z" style="fill:#FFFFFF" />
<text x="358.5" y="-420.45" transform="scale(1, -1)"
	style="font-family:Times;font-weight:normal;font-style:normal;font-size:12px"> </text>
<text x="383.06" y="-3.8613" transform="scale(1, -1)"
	style="font-family:Times;font-weight:normal;font-style:normal;font-size:12px">Costs</text>
<text x="64.055" y="-18.634" transform="scale(1, -1)"
	style="font-family:Times;font-weight:normal;font-style:normal;font-size:10px">0.00</text>
<text x="268.91" y="-18.634" transform="scale(1, -1)"
	style="font-family:Times;font-weight:normal;font-style:normal;font-size:10px">250.00</text>
<text x="478.77" y="-18.634" transform="scale(1, -1)"
	style="font-family:Times;font-weight:normal;font-style:normal;font-size:10px">500.00</text>
<text x="688.62" y="-18.634" transform="scale(1, -1)"
	style="font-family:Times;font-weight:normal;font-style:normal;font-size:10px">750.00</text>
<path d="M72.805,28.263L72.805,36.263" style="fill:none;stroke:#000000;stroke-width:0.5" />
<path d="M282.66,28.263L282.66,36.263" style="fill:none;stroke:#000000;stroke-width:0.5" />
<path d="M492.52,28.263L492.52,36.263" style="fill:none;stroke:#000000;stroke-width:0.5" />
<path d="M702.37,28.263L702.37,36.263" style="fill:none;stroke:#000000;stroke-width:0.5" />
<path d="M114.78,32.263L114.78,36.263" style="fill:none;stroke:#000000;stroke-width:0.5" />
<path d="M156.75,32.263L156.75,36.263" style="fill:none;stroke:#000000;stroke-width:0.5" />
<path d="M198.72,32.263L198.72,36.263" style="fill:none;stroke:#000000;stroke-width:0.5" />
<path d="M240.69,32.263L240.69,36.263" style="fill:none;stroke:#000000;stroke-width:0.5" />
<path d="M324.63,32.263L324.63,36.263" style="fill:none;stroke:#000000;stroke-width:0.5" />
<path d="M366.6,32.263L366.6,36.263" style="fill:none;stroke:#000000;stroke-width:0.5" />
<path d="M408.57,32.263L408.57,36.263" style="fill:none;stroke:#000000;stroke-width:0.5" />
<path d="M450.55,32.263L450.55,36.263" style="fill:none;stroke:#000000;stroke-width:0.5" />
<path d="M534.49,32.263L534.49,36.263" style="fill:none;stroke:#000000;stroke-width:0.5" />
<path d="M576.46,32.263L576.46,36.263" style="fill:none;stroke:#000000;stroke-width:0.5" />
<path d="M618.43,32.263L618.43,36.263" style="fill:none;stroke:#000000;stroke-width:0.5" />
<path d="M660.4,32.263L660.4,36.263" style="fill:none;stroke:#000000;stroke-width:0.5" />
<path d="M72.805,36.263L720,36.263" style="fill:none;stroke:#000000;stroke-width:0.5" />
<g transform="rotate(90)">
<text x="151.13" y="11.555" transform="scale(1, -1)"
	style="font-family:Times;font-weight:normal;font-style:normal;font-size:12px">Number of trials (1000000 total)</text>
</g>
<text x="24.055" y="-82.488" transform="scale(1, -1)"
	style="font-family:Times;font-weight:normal;font-style:normal;font-size:10px">2500.00</text>
<text x="19.055" y="-244.72" transform="scale(1, -1)"
	style="font-family:Times;font-weight:normal;font-style:normal;font-size:10px">12500.00</text>
<text x="19.055" y="-406.96" transform="scale(1, -1)"
	style="font-family:Times;font-weight:normal;font-style:normal;font-size:10px">22500.00</text>
<path d="M59.055,85.694L67.055,85.694" style="fill:none;stroke:#000000;stroke-width:0.5" />
<path d="M59.055,247.93L67.055,247.93" style="fill:none;stroke:#000000;stroke-width:0.5" />
<path d="M59.055,410.16L67.055,410.16" style="fill:none;stroke:#000000;stroke-width:0.5" />
<path d="M63.055,166.81L67.055,166.81" style="fill:none;stroke:#000000;stroke-width:0.5" />
<path d="M63.055,329.04L67.055,329.04" style="fill:none;stroke:#000000;stroke-width:0.5" />
<path d="M67.055,45.151L67.055,413.75" style="fill:none;stroke:#000000;stroke-width:0.5" />
<path d="M72.805,413.75L92.951,48.85L94.63,61.813L95.469,69.389L96.309,48.574L98.827,54.756L99.666,113.61L100.51,95.541L101.35,162.67L102.18,79.237L103.02,79.204L106.38,83.292L107.22,135.48L108.06,96.823L108.9,104.72L109.74,137.59L110.58,80.08L111.42,96.32L113.94,105.81L114.78,45.265L115.62,113.81L117.29,176.74L118.13,79.415L118.97,45.46L119.81,128.8L120.65,46.319L121.49,50.992L122.33,85.694L123.17,54.577L124.01,65.22L124.85,86.18L125.69,60.255L126.53,50.164L127.37,59.541L128.21,71.222L129.05,74.824L129.89,74.451L130.72,68.286L131.56,66.647L132.4,61.05L133.24,60.272L134.08,179.94L134.92,118.43L135.76,104.42L136.6,103.91L137.44,103.52L138.28,104.48L139.12,82.611L139.96,86.797L140.8,181.05L141.64,75.7L142.48,102.91L143.32,89.993L144.16,135.61L145,105.47L145.83,131.56L146.67,105.53L147.51,95.979L148.35,105.91L149.19,79.431L150.03,85.515L150.87,102.52L151.71,112.62L152.55,112.25L153.39,102.83L154.23,126.97L155.07,87.754L155.91,93.335L156.75,108.39L157.59,71.612L158.43,103.18L159.27,81.881L160.1,94.259L160.94,112.11L161.78,102.89L162.62,138.09L163.46,103.43L164.3,112.27L165.14,88.987L165.98,78.15L166.82,95.476L167.66,109.31L168.5,118.84L169.34,149.29L170.18,112.74L171.02,124.94L171.86,112.09L172.7,112.23L173.54,98.526L174.37,104.58L175.21,132.6L176.05,108.03L176.89,123.45L177.73,119.45L178.57,139.15L179.41,133.41L180.25,106.65L181.09,132.66L181.93,127.78L182.77,109.43L183.61,129.07L184.45,100.26L185.29,144.31L186.13,112.88L186.97,108.88L187.81,125.73L188.65,109.14L189.48,110L190.32,122.24L191.16,113.29L192,106.15L192.84,114.68L193.68,98.429L194.52,94.957L195.36,107.55L196.2,118.29L197.04,121.6L197.88,121.47L198.72,119.76L199.56,115.93L200.4,104.98L201.24,109.28L202.08,130.79L202.92,116.94L203.75,120.49L204.59,114.7L205.43,129.61L206.27,123.51L207.11,124.71L207.95,121.9L208.79,113.06L209.63,114.52L210.47,112.64L211.31,109.87L212.15,123.75L212.99,119.84L213.83,134.14L214.67,119.05L215.51,124.78L216.35,121.35L217.19,111.55L218.02,113.48L218.86,112.77L219.7,122.03L220.54,114.62L221.38,113.57L222.22,121L223.06,111.12L223.9,116.6L224.74,118.35L225.58,111.85L226.42,115.95L227.26,104.9L228.1,112.28L228.94,108.62L229.78,108.76L230.62,119.67L231.46,110.71L232.3,114.41L233.13,108.28L233.97,106.01L234.81,110.81L235.65,107.38L236.49,108.73L237.33,112.04L238.17,105.15L239.01,107.4L239.85,107.87L240.69,110.94L241.53,106.36L242.37,109.88L243.21,113.65L244.05,106.43L244.89,107.6L245.73,103.96L246.57,111.89L247.4,107.3L248.24,107.72L249.08,109.67L249.92,107.32L250.76,105.49L251.6,106.23L252.44,105.24L253.28,103.39L254.12,104.32L254.96,104.35L255.8,98.624L256.64,103.65L257.48,102.27L258.32,103.04L259.16,102.27L260,100.78L260.84,100.55L261.67,97.18L262.51,95.314L263.35,95.979L264.19,98.51L265.03,98.834L265.87,96.904L266.71,97.099L267.55,98.834L268.39,92.248L269.23,96.109L270.07,92.264L270.91,92.67L271.75,94L272.59,89.668L273.43,95.784L274.27,91.437L275.11,96.45L275.95,94.681L276.78,90.69L277.62,95.59L278.46,90.171L279.3,89.311L280.14,89.912L280.98,89.49L281.82,90.269L282.66,88.192L283.5,90.204L284.34,89.279L285.18,88.208L286.02,87.494L286.86,84.753L287.7,87.056L288.54,85.353L289.38,84.769L290.22,84.444L291.05,83.584L291.89,85.385L292.73,84.493L293.57,84.688L294.41,84.379L295.25,82.124L296.09,81.411L296.93,81.589L297.77,80.664L298.61,81.135L299.45,80.178L300.29,79.431L301.13,79.967L301.97,80.226L302.81,77.679L303.65,79.204L304.49,76.673L305.32,77.549L306.16,76.608L307,75.619L307.84,75.181L308.68,77.387L309.52,74.467L310.36,76.252L311.2,75.943L312.04,76.284L312.88,73.104L313.72,73.575L314.56,73.477L315.4,73.283L316.24,73.915L317.08,71.563L317.92,71.758L318.76,72.309L319.6,72.52L320.43,71.498L321.27,69.941L322.11,71.06L322.95,69.714L323.79,68.951L324.63,69.584L325.47,69.649L326.31,67.621L327.15,67.523L327.99,67.231L328.83,69.357L329.67,67.669L330.51,67.832L331.35,66.939L332.19,65.95L333.03,66.144L333.87,65.674L334.7,65.366L335.54,64.181L336.38,65.187L337.22,64.327L338.06,64.376L338.9,64.116L339.74,63.922L340.58,63.338L341.42,62.056L342.26,62.04L343.1,63.078L343.94,62.137L344.78,61.553L345.62,61.813L346.46,61.602L347.3,61.488L348.14,62.413L348.97,61.018L349.81,60.126L350.65,60.19L351.49,60.044L352.33,59.574L353.17,60.45L354.01,60.126L354.85,59.136L355.69,58.779L356.53,59.006L357.37,58.487L358.21,58.179L359.05,58.422L359.89,57.903L360.73,57.806L361.57,57.497L362.41,57.254L363.25,57.368L364.08,56.199L364.92,56.865L365.76,56.086L366.6,56.54L367.44,56.037L368.28,54.918L369.12,56.167L369.96,55.048L370.8,54.966L371.64,54.61L372.48,54.253L373.32,55.194L374.16,54.382L375,53.88L375.84,54.042L376.68,53.88L377.52,53.734L378.35,53.295L379.19,53.117L380.03,53.198L380.87,53.458L381.71,53.085L382.55,52.825L383.39,52.436L384.23,52.403L385.07,52.663L385.91,52.095L386.75,52.517L387.59,51.738L388.43,51.397L389.27,51.884L390.11,51.17L390.95,51.04L391.79,51.3L392.62,51.381L393.46,51.414L394.3,51.089L395.14,50.392L395.98,50.927L396.82,50.359L397.66,50.651L398.5,50.294L399.34,50.116L400.18,50.197L401.02,49.824L401.86,50.018L402.7,50.067L403.54,50.099L404.38,49.84L405.22,49.386L406.06,49.175L406.9,49.418L407.73,49.451L408.57,49.159L409.41,49.451L410.25,49.077L411.09,49.094L411.93,48.558L412.77,48.753L413.61,48.785L414.45,48.591L415.29,48.623L416.13,48.737L416.97,48.282L417.81,48.153L418.65,48.315L419.49,48.234L420.33,48.266L421.17,47.942L422,47.958L422.84,47.909L423.68,47.731L424.52,47.974L425.36,47.585L426.2,47.52L427.04,47.698L427.88,48.234L428.72,47.179L429.56,47.455L430.4,46.968L431.24,47.471L432.08,47.179L432.92,47.634L433.76,47.001L434.6,47.212L435.44,47.049L436.27,47.131L437.11,46.871L437.95,47.066L438.79,47.033L439.63,47.082L440.47,46.822L441.31,46.693L442.15,47.082L442.99,46.741L443.83,46.417L444.67,46.822L445.51,46.449L446.35,46.92L447.19,46.336L448.03,46.255L448.87,46.303L449.71,46.595L450.55,46.839L451.38,46.433L452.22,46.384L453.06,46.433L453.9,46.19L454.74,46.319L455.58,46.076L456.42,46.401L457.26,46.287L458.1,46.287L458.94,46.173L459.78,45.995L460.62,46.141L461.46,46.206L462.3,45.817L463.14,46.173L463.98,46.076L464.82,45.979L465.65,45.654L466.49,45.93L467.33,46.157L468.17,45.963L469.01,46.044L469.85,46.06L470.69,45.784L471.53,45.849L472.37,45.735L473.21,45.833L474.05,45.768L474.89,45.817L475.73,45.752L476.57,45.622L477.41,45.719L478.25,45.671L479.09,45.719L479.92,45.833L480.76,45.557L481.6,45.589L482.44,45.606L483.28,45.589L484.12,45.606L484.96,45.622L485.8,45.622L486.64,45.492L487.48,45.525L488.32,45.687L489.16,45.395L490,45.46L490.84,45.638L491.68,45.525L492.52,45.476L493.36,45.427L494.2,45.443L495.03,45.622L495.87,45.508L496.71,45.443L497.55,45.411L498.39,45.476L499.23,45.427L500.07,45.249L500.91,45.378L501.75,45.46L502.59,45.362L503.43,45.443L504.27,45.411L505.11,45.411L505.95,45.378L506.79,45.476L507.63,45.362L508.47,45.346L509.3,45.33L510.14,45.297L510.98,45.395L511.82,45.297L512.66,45.395L513.5,45.297L514.34,45.249L515.18,45.362L516.02,45.265L516.86,45.281L517.7,45.265L518.54,45.2L519.38,45.232L520.22,45.249L521.06,45.232L521.9,45.216L522.74,45.297L523.57,45.314L524.41,45.249L525.25,45.216L526.09,45.265L526.93,45.232L527.77,45.297L528.61,45.184L529.45,45.249L530.29,45.168L531.13,45.2L531.97,45.216L532.81,45.184L533.65,45.2L534.49,45.216L535.33,45.249L536.17,45.232L537.01,45.2L537.85,45.168L538.68,45.281L539.52,45.2L540.36,45.2L541.2,45.184L542.04,45.2L542.88,45.168L543.72,45.151L544.56,45.2L545.4,45.168L546.24,45.168L547.08,45.232L547.92,45.168L548.76,45.168L550.44,45.168L551.28,45.184L552.12,45.168L552.95,45.151L553.79,45.184L554.63,45.184L555.47,45.184L556.31,45.184L557.15,45.168L558.83,45.184L559.67,45.216L560.51,45.184L561.35,45.168L562.19,45.184L563.03,45.151L563.87,45.232L564.71,45.184L565.55,45.151L566.39,45.151L568.06,45.184L568.9,45.168L570.58,45.151L571.42,45.168L573.1,45.151L573.94,45.151L574.78,45.168L575.62,45.168L576.46,45.151L577.3,45.168L578.14,45.151L578.98,45.151L579.82,45.151L582.33,45.151L584.85,45.168L586.53,45.151L587.37,45.151L590.73,45.151L594.09,45.151L594.93,45.151L595.77,45.151L596.6,45.151L597.44,45.151L600.8,45.151L605,45.151L605.84,45.168L611.71,45.151L613.39,45.184L621.79,45.151L672.99,45.151L675.51,45.151L720,45.151" style="fill:none;stroke:#0000FF" />
</g>
</svg>
