<?xml version="1.0"?>
<!-- Generated by SVGo and Plotinum VG -->
<svg width="720pt" height="432pt" viewBox="0 0 720 432"
	xmlns="http://www.w3.org/2000/svg"
	xmlns:xlink="http://www.w3.org/1999/xlink">
<g transform="scale(1, -1) translate(0, -432)">
<path d="M0,0L720,0L720,432L0,432Z" style="fill:#FFFFFF" />
<text x="358.5" y="-420.45" transform="scale(1, -1)"
	style="font-family:Times;font-weight:normal;font-style:normal;font-size:12px"> </text>
<text x="383.06" y="-3.8613" transform="scale(1, -1)"
	style="font-family:Times;font-weight:normal;font-style:normal;font-size:12px">Costs</text>
<text x="70.305" y="-18.634" transform="scale(1, -1)"
	style="font-family:Times;font-weight:normal;font-style:normal;font-size:10px">0</text>
<text x="369.63" y="-18.634" transform="scale(1, -1)"
	style="font-family:Times;font-weight:normal;font-style:normal;font-size:10px">300</text>
<text x="673.95" y="-18.634" transform="scale(1, -1)"
	style="font-family:Times;font-weight:normal;font-style:normal;font-size:10px">600</text>
<path d="M72.805,28.263L72.805,36.263" style="fill:none;stroke:#000000;stroke-width:0.5" />
<path d="M377.13,28.263L377.13,36.263" style="fill:none;stroke:#000000;stroke-width:0.5" />
<path d="M681.45,28.263L681.45,36.263" style="fill:none;stroke:#000000;stroke-width:0.5" />
<path d="M174.25,32.263L174.25,36.263" style="fill:none;stroke:#000000;stroke-width:0.5" />
<path d="M275.69,32.263L275.69,36.263" style="fill:none;stroke:#000000;stroke-width:0.5" />
<path d="M478.57,32.263L478.57,36.263" style="fill:none;stroke:#000000;stroke-width:0.5" />
<path d="M580.01,32.263L580.01,36.263" style="fill:none;stroke:#000000;stroke-width:0.5" />
<path d="M72.805,36.263L720,36.263" style="fill:none;stroke:#000000;stroke-width:0.5" />
<g transform="rotate(90)">
<text x="152.55" y="11.555" transform="scale(1, -1)"
	style="font-family:Times;font-weight:normal;font-style:normal;font-size:12px">Number of trials (1000000 total)</text>
</g>
<text x="24.055" y="-69.746" transform="scale(1, -1)"
	style="font-family:Times;font-weight:normal;font-style:normal;font-size:10px">2500.00</text>
<text x="19.055" y="-180.99" transform="scale(1, -1)"
	style="font-family:Times;font-weight:normal;font-style:normal;font-size:10px">12500.00</text>
<text x="19.055" y="-292.23" transform="scale(1, -1)"
	style="font-family:Times;font-weight:normal;font-style:normal;font-size:10px">22500.00</text>
<text x="19.055" y="-403.48" transform="scale(1, -1)"
	style="font-family:Times;font-weight:normal;font-style:normal;font-size:10px">32500.00</text>
<path d="M59.055,72.951L67.055,72.951" style="fill:none;stroke:#000000;stroke-width:0.5" />
<path d="M59.055,184.2L67.055,184.2" style="fill:none;stroke:#000000;stroke-width:0.5" />
<path d="M59.055,295.44L67.055,295.44" style="fill:none;stroke:#000000;stroke-width:0.5" />
<path d="M59.055,406.68L67.055,406.68" style="fill:none;stroke:#000000;stroke-width:0.5" />
<path d="M63.055,128.57L67.055,128.57" style="fill:none;stroke:#000000;stroke-width:0.5" />
<path d="M63.055,239.82L67.055,239.82" style="fill:none;stroke:#000000;stroke-width:0.5" />
<path d="M63.055,351.06L67.055,351.06" style="fill:none;stroke:#000000;stroke-width:0.5" />
<path d="M67.055,45.151L67.055,416.58" style="fill:none;stroke:#000000;stroke-width:0.5" />
<path d="M72.805,416.58L97.151,102.46L99.179,49.034L100.19,74.142L101.21,52.749L102.22,70.426L103.24,58.801L104.25,74.798L105.27,74.72L106.28,65.565L107.29,169.94L108.31,66.666L109.32,48.4L110.34,59.802L111.35,55.519L112.37,102.64L113.38,156.43L114.4,48.767L115.41,51.815L116.42,119.31L117.44,110.55L118.45,51.314L119.47,94.232L121.5,74.364L122.51,112.93L123.53,49.234L124.54,108.05L125.55,46.219L126.57,147.94L127.58,78.747L128.6,50.413L129.61,72.862L130.63,63.351L131.64,120.65L132.66,84.699L133.67,81.484L134.68,68.112L135.7,57.511L136.71,78.569L137.73,69.87L138.74,59.235L139.76,64.942L140.77,106.58L141.78,74.13L142.8,66.666L143.81,71.894L144.83,74.676L145.84,74.676L146.86,98.248L147.87,124.75L148.89,79.403L149.9,68.112L150.91,102.03L151.93,94.666L152.94,77.824L153.96,131.48L154.97,88.381L155.99,93.62L157,119.66L158.02,94.922L159.03,96.457L160.04,86.668L161.06,113.49L162.07,95.089L163.09,93.676L164.1,88.692L165.12,97.303L166.13,107L167.15,115.8L168.16,96.012L169.17,86.123L170.19,88.414L171.2,113.36L172.22,95.022L173.23,96.646L174.25,90.45L175.26,98.437L176.27,105.35L177.29,87.291L178.3,102.23L179.32,85.344L180.33,95.779L181.35,111.5L182.36,90.583L183.38,94.777L184.39,90.917L185.4,106.16L186.42,95.289L187.43,100.46L188.45,106.27L189.46,90.739L190.48,95.111L191.49,101.84L192.51,97.581L193.52,91.34L194.53,109.22L195.55,96.813L196.56,91.64L197.58,103.14L198.59,98.571L199.61,100.88L200.62,101.71L201.64,107.71L202.65,97.647L203.66,97.57L204.68,97.792L205.69,105L206.71,102.25L207.72,106.49L208.74,104.04L209.75,94.844L210.76,102.36L211.78,98.593L212.79,103.65L213.81,96.034L214.82,101.15L215.84,105.65L216.85,96.602L217.87,95.545L218.88,98.081L219.89,95.656L220.91,97.903L221.92,101.01L222.94,97.28L223.95,92.842L224.97,96.502L225.98,98.693L227,95.089L228.01,96.513L229.02,99.483L230.04,97.147L231.05,94.288L232.07,98.715L233.08,95.233L234.1,93.12L235.11,98.548L236.13,96.824L237.14,93.209L238.15,95.5L239.17,94.132L240.18,94.043L241.2,92.886L242.21,95.968L243.23,92.708L244.24,91.362L245.25,92.853L246.27,92.931L247.28,93.02L248.3,92.152L249.31,94.021L250.33,90.094L251.34,91.685L252.36,91.507L253.37,92.208L254.38,90.205L255.4,90.962L256.41,90.583L257.43,88.648L258.44,88.548L259.46,89.827L260.47,88.837L261.49,87.669L262.5,88.804L263.51,87.19L264.53,85.577L265.54,86.901L266.56,87.157L267.57,85.577L268.59,84.776L269.6,85.889L270.62,85.477L271.63,84.042L272.64,83.497L273.66,84.932L274.67,83.008L275.69,83.475L276.7,83.286L277.72,81.105L278.73,81.873L279.74,82.696L280.76,82.54L281.77,81.261L282.79,82.374L283.8,80.304L284.82,79.704L285.83,80.894L286.85,81.206L287.86,79.381L288.87,78.747L289.89,78.869L290.9,77.735L291.92,78.28L292.93,79.593L293.95,75.999L294.96,76.266L295.98,77.49L296.99,77.368L298,75.61L299.02,76.022L300.03,76.244L301.05,73.441L302.06,74.208L303.08,73.952L304.09,72.862L305.11,73.118L306.12,73.441L307.13,73.496L308.15,71.861L309.16,72.64L310.18,71.449L311.19,71.082L312.21,69.881L313.22,71.538L314.23,69.703L315.25,69.28L316.26,69.681L317.28,69.803L318.29,69.136L319.31,67.879L320.32,68.446L321.34,67.656L322.35,68.123L323.36,66.866L324.38,66.366L325.39,66.121L326.41,65.865L327.42,65.898L328.44,66.288L329.45,65.453L330.47,65.676L331.48,64.864L332.49,65.798L333.51,64.853L334.52,65.22L335.54,63.151L336.55,63.451L337.57,64.241L338.58,63.429L339.6,63.351L340.61,62.561L341.62,62.528L342.64,62.695L343.65,62.483L344.67,61.36L345.68,61.204L346.7,61.782L347.71,60.236L348.72,61.404L349.74,60.18L350.75,60.481L351.77,60.381L352.78,59.457L353.8,59.724L354.81,59.58L355.83,59.213L356.84,58.378L357.85,59.246L358.87,58.612L359.88,58.078L360.9,57.844L361.91,58.312L362.93,58.189L363.94,57.255L364.96,57.433L365.97,56.454L366.98,57.043L368,57.321L369.01,56.098L370.03,56.32L371.04,55.464L372.06,55.786L373.07,55.364L374.09,56.042L375.1,55.408L376.11,55.074L377.13,55.286L378.14,54.551L379.16,54.418L380.17,54.763L381.19,54.674L382.2,53.951L383.21,53.906L384.23,54.563L385.24,53.929L386.26,53.662L387.27,53.194L388.29,52.972L389.3,53.372L390.32,53.105L391.33,52.149L392.34,52.304L393.36,52.249L394.37,52.293L395.39,52.493L396.4,52.382L397.42,51.604L398.43,52.249L399.45,51.348L400.46,51.592L401.47,51.37L402.49,50.958L403.5,51.403L404.52,51.147L405.53,50.869L406.55,51.136L407.56,50.825L408.58,50.758L409.59,50.925L410.6,50.502L411.62,50.291L412.63,50.257L413.65,50.024L414.66,49.768L415.68,50.135L416.69,49.901L417.71,49.512L418.72,49.735L419.73,49.279L420.75,49.501L421.76,49.078L422.78,49.401L423.79,49.29L424.81,49.245L425.82,49.034L426.83,48.845L427.85,48.911L428.86,48.811L429.88,48.255L430.89,48.945L431.91,49.078L432.92,48.633L433.94,48.589L434.95,48.466L435.96,48.166L436.98,47.955L437.99,47.988L439.01,48.255L440.02,48.01L441.04,48.188L442.05,47.777L443.07,47.799L444.08,48.077L445.09,47.721L446.11,47.955L447.12,47.51L448.14,47.354L449.15,47.899L450.17,47.221L451.18,47.143L452.2,47.265L453.21,47.565L454.22,47.154L455.24,47.087L456.25,47.065L457.27,46.909L458.28,47.087L459.3,47.176L460.31,47.043L461.32,46.842L462.34,47.087L463.35,46.92L464.37,46.909L465.38,46.776L466.4,46.987L467.41,46.687L468.43,46.575L469.44,46.687L470.45,46.62L471.47,46.542L472.48,46.642L473.5,46.687L474.51,46.598L475.53,46.631L476.54,46.331L477.56,46.598L478.57,46.342L479.58,46.308L480.6,46.52L481.61,46.264L482.63,46.086L483.64,46.386L484.66,46.008L485.67,46.275L486.69,46.041L487.7,45.93L488.71,46.197L489.73,46.208L490.74,45.952L491.76,45.908L492.77,45.797L493.79,46.008L494.8,45.874L495.81,46.03L496.83,45.841L497.84,45.741L498.86,45.897L499.87,45.752L500.89,45.874L501.9,45.863L502.92,45.975L503.93,45.897L504.94,45.73L505.96,45.752L506.97,45.797L507.99,45.641L509,45.619L510.02,45.619L511.03,45.685L512.05,45.685L513.06,45.596L514.07,45.685L515.09,45.652L516.1,45.541L517.12,45.674L518.13,45.652L519.15,45.652L520.16,45.652L521.18,45.496L522.19,45.474L523.2,45.518L524.22,45.385L525.23,45.463L526.25,45.585L527.26,45.474L528.28,45.496L529.29,45.607L530.3,45.407L531.32,45.474L532.33,45.318L533.35,45.496L534.36,45.407L535.38,45.418L536.39,45.385L537.41,45.407L538.42,45.441L539.43,45.396L540.45,45.363L541.46,45.385L542.48,45.285L543.49,45.385L544.51,45.385L545.52,45.396L546.54,45.329L547.55,45.318L548.56,45.385L549.58,45.385L550.59,45.318L551.61,45.307L552.62,45.396L553.64,45.329L554.65,45.363L555.67,45.229L556.68,45.285L557.69,45.296L558.71,45.296L559.72,45.274L560.74,45.329L561.75,45.24L562.77,45.363L563.78,45.307L564.79,45.285L565.81,45.218L566.82,45.352L567.84,45.251L568.85,45.285L569.87,45.296L570.88,45.251L571.9,45.251L572.91,45.218L573.92,45.251L574.94,45.263L575.95,45.207L576.97,45.218L577.98,45.207L579,45.263L580.01,45.263L581.03,45.196L582.04,45.251L583.05,45.274L584.07,45.207L585.08,45.174L586.1,45.207L587.11,45.196L588.13,45.185L589.14,45.207L590.16,45.24L591.17,45.185L592.18,45.162L593.2,45.185L594.21,45.185L595.23,45.151L596.24,45.207L597.26,45.229L598.27,45.207L599.28,45.196L600.3,45.185L601.31,45.185L602.33,45.162L603.34,45.151L604.36,45.207L605.37,45.196L606.39,45.207L607.4,45.196L608.41,45.196L609.43,45.162L610.44,45.162L611.46,45.162L612.47,45.229L613.49,45.162L614.5,45.151L615.52,45.151L616.53,45.151L617.54,45.174L618.56,45.151L619.57,45.185L620.59,45.162L621.6,45.185L622.62,45.162L623.63,45.151L624.65,45.185L625.66,45.174L626.67,45.196L629.72,45.162L631.75,45.174L632.76,45.151L633.77,45.174L635.8,45.151L636.82,45.174L637.83,45.162L638.85,45.162L641.89,45.162L642.9,45.151L645.95,45.151L646.96,45.162L648.99,45.151L653.05,45.151L654.06,45.151L661.16,45.162L662.18,45.151L668.26,45.151L674.35,45.151L680.44,45.151L681.45,45.174L684.5,45.151L690.58,45.151L694.64,45.151L697.68,45.151L698.7,45.151L700.73,45.151L714.93,45.151L716.96,45.151L720,45.151" style="fill:none;stroke:#0000FF" />
</g>
</svg>
