<?xml version="1.0"?>
<!-- Generated by SVGo and Plotinum VG -->
<svg width="720pt" height="432pt" viewBox="0 0 720 432"
	xmlns="http://www.w3.org/2000/svg"
	xmlns:xlink="http://www.w3.org/1999/xlink">
<g transform="scale(1, -1) translate(0, -432)">
<path d="M0,0L720,0L720,432L0,432Z" style="fill:#FFFFFF" />
<text x="358.5" y="-420.45" transform="scale(1, -1)"
	style="font-family:Times;font-weight:normal;font-style:normal;font-size:12px"> </text>
<text x="379.31" y="-3.8613" transform="scale(1, -1)"
	style="font-family:Times;font-weight:normal;font-style:normal;font-size:12px">Costs</text>
<text x="56.555" y="-18.634" transform="scale(1, -1)"
	style="font-family:Times;font-weight:normal;font-style:normal;font-size:10px">0.00</text>
<text x="331.82" y="-18.634" transform="scale(1, -1)"
	style="font-family:Times;font-weight:normal;font-style:normal;font-size:10px">250.00</text>
<text x="612.08" y="-18.634" transform="scale(1, -1)"
	style="font-family:Times;font-weight:normal;font-style:normal;font-size:10px">500.00</text>
<path d="M65.305,28.263L65.305,36.263" style="fill:none;stroke:#000000;stroke-width:0.5" />
<path d="M345.57,28.263L345.57,36.263" style="fill:none;stroke:#000000;stroke-width:0.5" />
<path d="M625.83,28.263L625.83,36.263" style="fill:none;stroke:#000000;stroke-width:0.5" />
<path d="M121.36,32.263L121.36,36.263" style="fill:none;stroke:#000000;stroke-width:0.5" />
<path d="M177.41,32.263L177.41,36.263" style="fill:none;stroke:#000000;stroke-width:0.5" />
<path d="M233.46,32.263L233.46,36.263" style="fill:none;stroke:#000000;stroke-width:0.5" />
<path d="M289.52,32.263L289.52,36.263" style="fill:none;stroke:#000000;stroke-width:0.5" />
<path d="M401.62,32.263L401.62,36.263" style="fill:none;stroke:#000000;stroke-width:0.5" />
<path d="M457.67,32.263L457.67,36.263" style="fill:none;stroke:#000000;stroke-width:0.5" />
<path d="M513.73,32.263L513.73,36.263" style="fill:none;stroke:#000000;stroke-width:0.5" />
<path d="M569.78,32.263L569.78,36.263" style="fill:none;stroke:#000000;stroke-width:0.5" />
<path d="M681.88,32.263L681.88,36.263" style="fill:none;stroke:#000000;stroke-width:0.5" />
<path d="M65.305,36.263L720,36.263" style="fill:none;stroke:#000000;stroke-width:0.5" />
<g transform="rotate(90)">
<text x="149.72" y="11.555" transform="scale(1, -1)"
	style="font-family:Times;font-weight:normal;font-style:normal;font-size:12px">Number of trials (1000000 total)</text>
</g>
<text x="24.055" y="-114.94" transform="scale(1, -1)"
	style="font-family:Times;font-weight:normal;font-style:normal;font-size:10px">20000</text>
<text x="24.055" y="-260.95" transform="scale(1, -1)"
	style="font-family:Times;font-weight:normal;font-style:normal;font-size:10px">60000</text>
<text x="19.055" y="-406.96" transform="scale(1, -1)"
	style="font-family:Times;font-weight:normal;font-style:normal;font-size:10px">100000</text>
<path d="M51.555,118.15L59.555,118.15" style="fill:none;stroke:#000000;stroke-width:0.5" />
<path d="M51.555,264.16L59.555,264.16" style="fill:none;stroke:#000000;stroke-width:0.5" />
<path d="M51.555,410.16L59.555,410.16" style="fill:none;stroke:#000000;stroke-width:0.5" />
<path d="M55.555,81.649L59.555,81.649" style="fill:none;stroke:#000000;stroke-width:0.5" />
<path d="M55.555,154.65L59.555,154.65" style="fill:none;stroke:#000000;stroke-width:0.5" />
<path d="M55.555,191.15L59.555,191.15" style="fill:none;stroke:#000000;stroke-width:0.5" />
<path d="M55.555,227.65L59.555,227.65" style="fill:none;stroke:#000000;stroke-width:0.5" />
<path d="M55.555,300.66L59.555,300.66" style="fill:none;stroke:#000000;stroke-width:0.5" />
<path d="M55.555,337.16L59.555,337.16" style="fill:none;stroke:#000000;stroke-width:0.5" />
<path d="M55.555,373.66L59.555,373.66" style="fill:none;stroke:#000000;stroke-width:0.5" />
<path d="M59.555,45.151L59.555,410.92" style="fill:none;stroke:#000000;stroke-width:0.5" />
<path d="M65.305,410.92L94.452,80.112L95.573,78.09L96.694,70.374L97.815,66.264L100.06,48.509L103.42,108.04L104.54,84.562L106.78,100.48L107.9,73.746L109.03,82.587L111.27,48.655L113.51,105.6L114.63,113.42L115.75,70.118L116.87,81.072L119.12,70.348L120.24,58.23L121.36,74.024L123.6,45.819L124.72,62.187L125.84,50.729L126.96,49.63L128.08,72.078L129.2,46.965L130.33,45.484L131.45,86.485L132.57,51.181L133.69,54.788L134.81,53.083L135.93,107.36L137.05,54.985L138.17,55.802L139.29,53.744L140.42,71.582L141.54,50.897L142.66,58.095L143.78,58.602L144.9,66.479L146.02,69.658L147.14,84.244L148.26,83.503L149.38,56.43L150.5,56.879L151.63,77.966L152.75,67.286L153.87,60.57L154.99,102.8L156.11,87.033L157.23,68.611L158.35,67.078L159.47,59.777L160.59,61.475L161.72,56.43L162.84,70.629L163.96,61.924L165.08,65.176L166.2,63.909L167.32,61.008L168.44,58.796L169.56,67.432L170.68,64.774L171.8,54.145L172.93,59.38L174.05,63.687L175.17,62.212L176.29,58.452L177.41,66.578L178.53,62.687L179.65,67.994L180.77,60.799L181.89,59.624L183.02,58.091L184.14,68.202L185.26,73.232L186.38,68.757L187.5,67.359L188.62,60.391L189.74,68.063L190.86,61.964L191.98,60.661L193.1,61.705L194.23,67.837L195.35,65.293L196.47,70.721L197.59,66.68L198.71,67.136L199.83,61.836L200.95,59.748L202.07,64.077L203.19,65.756L204.32,67.596L205.44,62.552L206.56,66.125L207.68,59.766L208.8,59.708L209.92,59.223L211.04,64.406L212.16,57.423L213.28,58.102L214.4,61.708L215.53,57.179L216.65,57.321L217.77,64.026L218.89,61.77L220.01,56.116L221.13,59.511L222.25,62.146L223.37,58.456L224.49,56.733L225.62,63.143L226.74,61.741L227.86,59.19L228.98,59.058L230.1,60.467L231.22,58.087L232.34,57.076L233.46,59.949L234.58,59.234L235.7,59.664L236.83,60.621L237.95,61.325L239.07,58.365L240.19,57.828L241.31,59.314L242.43,57.741L243.55,57.08L244.67,57.832L245.79,59.978L246.92,57.076L248.04,57.164L249.16,56.507L250.28,56.657L251.4,56.08L252.52,57.259L253.64,55.806L254.76,55.959L255.88,56.452L257,55.645L258.13,54.901L259.25,55.525L260.37,56.379L261.49,54.627L262.61,55.007L263.73,54.565L264.85,55.12L265.97,54.821L267.09,55.492L268.22,55.171L269.34,54.7L270.46,54.463L271.58,54.153L272.7,53.408L273.82,54.404L274.94,54.237L276.06,54.164L277.18,54.605L278.3,53.74L279.43,53.266L280.55,53.313L281.67,53.525L282.79,52.517L283.91,52.992L285.03,53.39L286.15,52.78L287.27,52.839L288.39,52.981L289.52,52.89L290.64,52.068L291.76,52.119L292.88,52.579L294,51.853L295.12,51.495L296.24,52.083L297.36,51.576L298.48,51.057L299.6,51.181L300.73,51.587L301.85,51.178L302.97,50.565L304.09,51.163L305.21,51.006L306.33,50.762L307.45,50.966L308.57,51.426L309.69,50.568L310.82,49.988L311.94,50.612L313.06,50.294L314.18,49.977L315.3,50.207L316.42,50.389L317.54,49.74L318.66,49.966L319.78,49.897L320.9,49.758L322.03,49.309L323.15,49.597L324.27,49.407L325.39,49.283L326.51,49.294L327.63,49.462L328.75,49.039L329.87,48.984L330.99,48.955L332.12,48.842L333.24,49.035L334.36,48.78L335.48,48.944L336.6,48.743L337.72,48.546L338.84,48.32L339.96,48.367L341.08,48.298L342.2,48.418L343.33,48.316L344.45,48.276L345.57,48.006L346.69,47.969L347.81,47.995L348.93,48.064L350.05,47.831L351.17,47.907L352.29,47.714L353.42,47.918L354.54,47.955L355.66,47.71L356.78,47.597L357.9,47.769L359.02,47.393L360.14,47.506L361.26,47.458L362.38,47.528L363.5,47.334L364.63,47.265L365.75,47.225L366.87,47.203L367.99,47.25L369.11,47.203L370.23,47.049L371.35,47.053L372.47,46.951L373.59,47.02L374.72,46.75L375.84,47.042L376.96,46.75L378.08,46.947L379.2,46.663L380.32,46.71L381.44,46.575L382.56,46.579L383.68,46.622L384.8,46.725L385.93,46.524L387.05,46.684L388.17,46.509L389.29,46.506L390.41,46.374L391.53,46.341L392.65,46.363L393.77,46.447L394.89,46.422L396.02,46.316L397.14,46.232L398.26,46.319L399.38,46.465L400.5,46.206L401.62,46.254L402.74,46.239L403.86,46.086L404.98,46.082L406.1,46.049L407.23,46.068L408.35,45.918L409.47,45.976L410.59,45.922L411.71,45.951L412.83,45.947L413.95,46.027L415.07,45.845L416.19,45.874L417.32,45.823L418.44,45.885L419.56,45.87L420.68,45.772L421.8,45.79L422.92,45.841L424.04,45.757L425.16,45.786L426.28,45.713L427.41,45.761L428.53,45.743L429.65,45.703L430.77,45.63L431.89,45.673L433.01,45.695L434.13,45.662L435.25,45.67L436.37,45.604L437.49,45.633L438.62,45.597L439.74,45.622L440.86,45.546L441.98,45.564L443.1,45.553L444.22,45.553L445.34,45.575L446.46,45.531L447.58,45.473L448.71,45.458L449.83,45.473L450.95,45.458L452.07,45.462L453.19,45.473L454.31,45.469L455.43,45.425L456.55,45.447L457.67,45.462L458.79,45.381L459.92,45.421L461.04,45.447L462.16,45.359L463.28,45.4L464.4,45.37L465.52,45.33L466.64,45.374L467.76,45.392L468.88,45.381L470.01,45.348L471.13,45.374L472.25,45.334L473.37,45.381L474.49,45.316L475.61,45.319L476.73,45.338L477.85,45.301L478.97,45.316L480.09,45.275L481.22,45.272L482.34,45.261L483.46,45.308L484.58,45.279L485.7,45.254L486.82,45.319L487.94,45.297L489.06,45.283L490.18,45.275L491.31,45.239L492.43,45.246L493.55,45.257L494.67,45.279L495.79,45.294L496.91,45.254L498.03,45.217L499.15,45.257L500.27,45.254L501.39,45.261L502.52,45.239L503.64,45.265L504.76,45.243L505.88,45.221L507,45.224L508.12,45.232L509.24,45.235L510.36,45.235L511.48,45.21L512.61,45.213L513.73,45.21L514.85,45.21L515.97,45.254L517.09,45.202L518.21,45.232L519.33,45.202L520.45,45.21L521.57,45.199L522.69,45.232L523.82,45.199L524.94,45.195L526.06,45.181L527.18,45.184L528.3,45.217L529.42,45.173L530.54,45.228L531.66,45.177L532.78,45.188L533.91,45.192L535.03,45.181L536.15,45.188L537.27,45.206L538.39,45.192L539.51,45.188L540.63,45.199L541.75,45.181L542.87,45.199L543.99,45.192L545.12,45.181L546.24,45.173L547.36,45.188L548.48,45.177L549.6,45.17L550.72,45.173L551.84,45.184L552.96,45.177L554.08,45.177L555.21,45.162L556.33,45.166L557.45,45.181L558.57,45.181L559.69,45.166L560.81,45.166L561.93,45.166L563.05,45.159L564.17,45.17L565.29,45.159L566.42,45.162L567.54,45.166L568.66,45.159L569.78,45.166L570.9,45.166L573.14,45.173L574.26,45.166L575.38,45.166L576.51,45.17L577.63,45.155L578.75,45.166L582.11,45.151L583.23,45.162L584.35,45.151L585.47,45.162L586.59,45.159L588.84,45.151L589.96,45.159L593.32,45.162L594.44,45.151L596.68,45.151L597.81,45.151L598.93,45.155L601.17,45.155L602.29,45.159L603.41,45.151L604.53,45.151L605.65,45.155L606.77,45.155L607.89,45.151L609.02,45.155L610.14,45.159L611.26,45.151L613.5,45.155L614.62,45.159L616.86,45.155L617.98,45.155L619.11,45.151L621.35,45.151L622.47,45.151L625.83,45.151L626.95,45.159L629.19,45.155L630.32,45.155L632.56,45.151L635.92,45.151L639.28,45.151L640.41,45.151L641.53,45.151L642.65,45.151L643.77,45.151L649.37,45.151L651.62,45.155L652.74,45.151L654.98,45.151L670.67,45.151L676.28,45.151L678.52,45.151L683.01,45.151L696.46,45.151L707.67,45.151L720,45.151" style="fill:none;stroke:#0000FF" />
</g>
</svg>
