<?xml version="1.0"?>
<!-- Generated by SVGo and Plotinum VG -->
<svg width="720pt" height="432pt" viewBox="0 0 720 432"
	xmlns="http://www.w3.org/2000/svg"
	xmlns:xlink="http://www.w3.org/1999/xlink">
<g transform="scale(1, -1) translate(0, -432)">
<path d="M0,0L720,0L720,432L0,432Z" style="fill:#FFFFFF" />
<text x="358.5" y="-420.45" transform="scale(1, -1)"
	style="font-family:Times;font-weight:normal;font-style:normal;font-size:12px"> </text>
<text x="376.81" y="-3.8613" transform="scale(1, -1)"
	style="font-family:Times;font-weight:normal;font-style:normal;font-size:12px">Costs</text>
<text x="51.555" y="-18.634" transform="scale(1, -1)"
	style="font-family:Times;font-weight:normal;font-style:normal;font-size:10px">0.00</text>
<text x="326.09" y="-18.634" transform="scale(1, -1)"
	style="font-family:Times;font-weight:normal;font-style:normal;font-size:10px">250.00</text>
<text x="605.62" y="-18.634" transform="scale(1, -1)"
	style="font-family:Times;font-weight:normal;font-style:normal;font-size:10px">500.00</text>
<path d="M60.305,28.263L60.305,36.263" style="fill:none;stroke:#000000;stroke-width:0.5" />
<path d="M339.84,28.263L339.84,36.263" style="fill:none;stroke:#000000;stroke-width:0.5" />
<path d="M619.37,28.263L619.37,36.263" style="fill:none;stroke:#000000;stroke-width:0.5" />
<path d="M116.21,32.263L116.21,36.263" style="fill:none;stroke:#000000;stroke-width:0.5" />
<path d="M172.12,32.263L172.12,36.263" style="fill:none;stroke:#000000;stroke-width:0.5" />
<path d="M228.02,32.263L228.02,36.263" style="fill:none;stroke:#000000;stroke-width:0.5" />
<path d="M283.93,32.263L283.93,36.263" style="fill:none;stroke:#000000;stroke-width:0.5" />
<path d="M395.74,32.263L395.74,36.263" style="fill:none;stroke:#000000;stroke-width:0.5" />
<path d="M451.65,32.263L451.65,36.263" style="fill:none;stroke:#000000;stroke-width:0.5" />
<path d="M507.56,32.263L507.56,36.263" style="fill:none;stroke:#000000;stroke-width:0.5" />
<path d="M563.46,32.263L563.46,36.263" style="fill:none;stroke:#000000;stroke-width:0.5" />
<path d="M675.27,32.263L675.27,36.263" style="fill:none;stroke:#000000;stroke-width:0.5" />
<path d="M60.305,36.263L720,36.263" style="fill:none;stroke:#000000;stroke-width:0.5" />
<g transform="rotate(90)">
<text x="152.55" y="11.555" transform="scale(1, -1)"
	style="font-family:Times;font-weight:normal;font-style:normal;font-size:12px">Number of trials (1000000 total)</text>
</g>
<text x="19.055" y="-125.11" transform="scale(1, -1)"
	style="font-family:Times;font-weight:normal;font-style:normal;font-size:10px">20000</text>
<text x="19.055" y="-208.29" transform="scale(1, -1)"
	style="font-family:Times;font-weight:normal;font-style:normal;font-size:10px">40000</text>
<text x="19.055" y="-291.46" transform="scale(1, -1)"
	style="font-family:Times;font-weight:normal;font-style:normal;font-size:10px">60000</text>
<text x="19.055" y="-374.63" transform="scale(1, -1)"
	style="font-family:Times;font-weight:normal;font-style:normal;font-size:10px">80000</text>
<path d="M46.555,128.32L54.555,128.32" style="fill:none;stroke:#000000;stroke-width:0.5" />
<path d="M46.555,211.49L54.555,211.49" style="fill:none;stroke:#000000;stroke-width:0.5" />
<path d="M46.555,294.66L54.555,294.66" style="fill:none;stroke:#000000;stroke-width:0.5" />
<path d="M46.555,377.83L54.555,377.83" style="fill:none;stroke:#000000;stroke-width:0.5" />
<path d="M50.555,86.733L54.555,86.733" style="fill:none;stroke:#000000;stroke-width:0.5" />
<path d="M50.555,169.9L54.555,169.9" style="fill:none;stroke:#000000;stroke-width:0.5" />
<path d="M50.555,253.08L54.555,253.08" style="fill:none;stroke:#000000;stroke-width:0.5" />
<path d="M50.555,336.25L54.555,336.25" style="fill:none;stroke:#000000;stroke-width:0.5" />
<path d="M54.555,45.151L54.555,416.58" style="fill:none;stroke:#000000;stroke-width:0.5" />
<path d="M60.305,416.58L87.14,80.287L93.849,48.62L94.967,79.298L98.321,159.96L101.68,51.809L103.91,80.499L105.03,116.9L106.15,48.487L108.38,80.321L109.5,199.62L111.74,100.74L113.97,55.381L115.09,80.458L117.33,80.994L119.57,98.361L120.68,55.984L121.8,48.557L124.04,48.553L125.16,91.723L126.27,79.377L127.39,55.465L128.51,82.903L130.75,48.008L131.86,52.221L132.98,55.905L135.22,59.058L136.34,68.672L137.46,45.472L138.57,54.442L139.69,53.581L140.81,46.432L141.93,58.945L143.05,104.81L144.16,62.875L145.28,46.341L146.4,79.934L147.52,93.549L148.64,52.911L149.75,123.26L150.87,99.026L151.99,57.556L153.11,81.489L154.23,82.071L155.35,67.275L156.46,56.425L157.58,78.179L158.7,54.442L159.82,60.966L160.94,74.919L162.05,56.251L163.17,72.457L164.29,81.306L165.41,55.802L166.53,78.324L167.64,51.277L168.76,79.659L169.88,66.048L171,64.385L172.12,56.271L173.24,64.551L174.35,73.234L175.47,62.247L176.59,72.532L177.71,76.199L178.83,51.668L179.94,62.16L181.06,66.751L182.18,56.242L183.3,56.051L184.42,70.868L185.53,63.378L186.65,56.064L187.77,82.999L188.89,66.551L190.01,53.144L191.13,67.391L192.24,74.985L193.36,61.594L194.48,77.252L195.6,73.796L196.72,51.626L197.83,66.061L198.95,85.219L200.07,76.341L201.19,66.406L202.31,71.546L203.43,58.725L204.54,66.714L205.66,60.863L206.78,64.942L207.9,64.701L209.02,70.032L210.13,63.948L211.25,64.115L212.37,61.927L213.49,59.008L214.61,67.591L215.72,69.225L216.84,58.97L217.96,65.965L219.08,63.744L220.2,58.255L221.32,59.794L222.43,61.137L223.55,56.334L224.67,55.926L225.79,65.699L226.91,56.837L228.02,55.826L229.14,62.771L230.26,58.692L231.38,56.172L232.5,67.745L233.61,66.427L234.73,56.883L235.85,61.836L236.97,68.589L238.09,59.86L239.21,58.754L240.32,66.294L241.44,54.87L242.56,61.515L243.68,65.483L244.8,59.157L245.91,58.388L247.03,61.204L248.15,56.933L249.27,58.238L250.39,58.571L251.5,58.987L252.62,59.016L253.74,60.709L254.86,58.143L255.98,58.671L257.1,58.33L258.21,57.586L259.33,60.484L260.45,59.062L261.57,54.845L262.69,55.656L263.8,59.066L264.92,56.504L266.04,56.612L267.16,59.386L268.28,55.169L269.39,53.573L270.51,57.215L271.63,54.5L272.75,53.335L273.87,56.118L274.99,56.155L276.1,53.061L277.22,55.689L278.34,56.933L279.46,51.556L280.58,54.795L281.69,57.365L282.81,54.724L283.93,54.496L285.05,56.471L286.17,52.849L287.28,52.612L288.4,54.92L289.52,55.332L290.64,52.67L291.76,54.783L292.88,52.666L293.99,52.866L295.11,53.435L296.23,52.637L297.35,54.067L298.47,53.311L299.58,53.065L300.7,52.558L301.82,53.24L302.94,52.391L304.06,52.487L305.17,52.97L306.29,51.231L307.41,51.522L308.53,52.599L309.65,51.231L310.77,51.389L311.88,52.288L313,51.106L314.12,50.038L315.24,51.248L316.36,51.144L317.47,49.747L318.59,51.551L319.71,51.377L320.83,50.054L321.95,50.703L323.06,51.643L324.18,50.067L325.3,50.046L326.42,51.481L327.54,50.466L328.66,49.522L329.77,50.129L330.89,49.281L332.01,49.493L333.13,50.208L334.25,49.668L335.36,49.372L336.48,49.302L337.6,49.501L338.72,49.115L339.84,49.322L340.95,49.123L342.07,49.144L343.19,49.214L344.31,48.977L345.43,48.711L346.55,49.127L347.66,48.503L348.78,48.952L349.9,48.944L351.02,48.432L352.14,48.083L353.25,48.919L354.37,48.416L355.49,47.842L356.61,48.324L357.73,48.457L358.84,47.688L359.96,48.254L361.08,48.083L362.2,47.455L363.32,47.775L364.44,47.875L365.55,47.597L366.67,47.493L367.79,47.821L368.91,47.418L370.03,47.405L371.14,47.626L372.26,47.638L373.38,47.135L374.5,47.455L375.62,47.464L376.73,47.251L377.85,47.38L378.97,47.11L380.09,47.131L381.21,46.973L382.33,47.031L383.44,46.923L384.56,47.052L385.68,46.815L386.8,46.969L387.92,46.861L389.03,46.815L390.15,46.703L391.27,46.782L392.39,46.748L393.51,46.773L394.62,46.711L395.74,46.478L396.86,46.499L397.98,46.611L399.1,46.436L400.22,46.403L401.33,46.424L402.45,46.403L403.57,46.266L404.69,46.212L405.81,46.553L406.92,46.083L408.04,46.258L409.16,46.283L410.28,46.274L411.4,46.141L412.51,46.141L413.63,46.037L414.75,46.133L415.87,46.104L416.99,46.021L418.11,46.079L419.22,46.087L420.34,46.025L421.46,45.95L422.58,45.95L423.7,45.871L424.81,45.85L425.93,45.842L427.05,45.917L428.17,45.767L429.29,45.887L430.4,45.804L431.52,45.796L432.64,45.792L433.76,45.792L434.88,45.717L436,45.734L437.11,45.738L438.23,45.684L439.35,45.767L440.47,45.659L441.59,45.671L442.7,45.738L443.82,45.659L444.94,45.596L446.06,45.663L447.18,45.65L448.29,45.567L449.41,45.571L450.53,45.521L451.65,45.513L452.77,45.592L453.89,45.526L455,45.484L456.12,45.521L457.24,45.526L458.36,45.467L459.48,45.447L460.59,45.53L461.71,45.484L462.83,45.422L463.95,45.405L465.07,45.438L466.19,45.434L467.3,45.455L468.42,45.409L469.54,45.497L470.66,45.492L471.78,45.359L472.89,45.43L474.01,45.376L475.13,45.459L476.25,45.384L477.37,45.376L478.48,45.351L479.6,45.397L480.72,45.339L481.84,45.355L482.96,45.314L484.08,45.359L485.19,45.322L486.31,45.318L487.43,45.309L488.55,45.289L489.67,45.305L490.78,45.297L491.9,45.318L493.02,45.268L494.14,45.289L495.26,45.284L496.37,45.297L497.49,45.309L498.61,45.259L499.73,45.243L500.85,45.272L501.97,45.264L503.08,45.259L504.2,45.309L505.32,45.23L506.44,45.23L507.56,45.268L508.67,45.259L509.79,45.243L510.91,45.28L512.03,45.247L513.15,45.239L514.26,45.243L515.38,45.23L516.5,45.222L517.62,45.255L518.74,45.222L519.86,45.201L520.97,45.201L522.09,45.235L523.21,45.218L524.33,45.201L525.45,45.201L526.56,45.18L527.68,45.214L528.8,45.193L529.92,45.205L531.04,45.197L532.15,45.193L533.27,45.185L534.39,45.189L535.51,45.197L536.63,45.18L537.75,45.193L538.86,45.18L539.98,45.189L541.1,45.18L542.22,45.176L543.34,45.189L544.45,45.18L545.57,45.172L546.69,45.193L547.81,45.18L548.93,45.176L550.04,45.172L551.16,45.176L552.28,45.176L553.4,45.16L554.52,45.172L555.64,45.18L556.75,45.18L557.87,45.172L558.99,45.189L560.11,45.18L561.23,45.16L562.34,45.16L563.46,45.164L564.58,45.176L565.7,45.172L566.82,45.185L567.93,45.168L569.05,45.16L570.17,45.176L571.29,45.16L572.41,45.16L573.53,45.151L574.64,45.172L575.76,45.172L576.88,45.168L578,45.156L579.12,45.172L580.23,45.16L581.35,45.164L582.47,45.151L583.59,45.156L584.71,45.168L585.82,45.164L586.94,45.151L588.06,45.156L589.18,45.156L590.3,45.151L591.42,45.164L592.53,45.156L594.77,45.151L595.89,45.156L597.01,45.156L598.12,45.151L599.24,45.16L600.36,45.151L601.48,45.16L602.6,45.156L605.95,45.16L607.07,45.156L608.19,45.156L609.31,45.151L610.42,45.151L611.54,45.156L612.66,45.151L613.78,45.151L614.9,45.16L616.01,45.16L618.25,45.151L619.37,45.16L624.96,45.151L626.08,45.151L630.55,45.151L636.14,45.151L637.26,45.151L638.38,45.151L641.73,45.151L643.97,45.151L645.09,45.151L650.68,45.156L655.15,45.151L664.09,45.151L680.87,45.151L694.28,45.151L698.76,45.151L704.35,45.156L709.94,45.151L720,45.151" style="fill:none;stroke:#0000FF" />
</g>
</svg>
