<?xml version="1.0"?>
<!-- Generated by SVGo and Plotinum VG -->
<svg width="720pt" height="432pt" viewBox="0 0 720 432"
	xmlns="http://www.w3.org/2000/svg"
	xmlns:xlink="http://www.w3.org/1999/xlink">
<g transform="scale(1, -1) translate(0, -432)">
<path d="M0,0L720,0L720,432L0,432Z" style="fill:#FFFFFF" />
<text x="358.5" y="-420.45" transform="scale(1, -1)"
	style="font-family:Times;font-weight:normal;font-style:normal;font-size:12px"> </text>
<text x="379.31" y="-3.8613" transform="scale(1, -1)"
	style="font-family:Times;font-weight:normal;font-style:normal;font-size:12px">Costs</text>
<text x="62.805" y="-18.634" transform="scale(1, -1)"
	style="font-family:Times;font-weight:normal;font-style:normal;font-size:10px">0</text>
<text x="377.17" y="-18.634" transform="scale(1, -1)"
	style="font-family:Times;font-weight:normal;font-style:normal;font-size:10px">200</text>
<text x="696.53" y="-18.634" transform="scale(1, -1)"
	style="font-family:Times;font-weight:normal;font-style:normal;font-size:10px">400</text>
<path d="M65.305,28.263L65.305,36.263" style="fill:none;stroke:#000000;stroke-width:0.5" />
<path d="M384.67,28.263L384.67,36.263" style="fill:none;stroke:#000000;stroke-width:0.5" />
<path d="M704.03,28.263L704.03,36.263" style="fill:none;stroke:#000000;stroke-width:0.5" />
<path d="M224.99,32.263L224.99,36.263" style="fill:none;stroke:#000000;stroke-width:0.5" />
<path d="M544.35,32.263L544.35,36.263" style="fill:none;stroke:#000000;stroke-width:0.5" />
<path d="M65.305,36.263L720,36.263" style="fill:none;stroke:#000000;stroke-width:0.5" />
<g transform="rotate(90)">
<text x="152.55" y="11.555" transform="scale(1, -1)"
	style="font-family:Times;font-weight:normal;font-style:normal;font-size:12px">Number of trials (1000000 total)</text>
</g>
<text x="24.055" y="-107.32" transform="scale(1, -1)"
	style="font-family:Times;font-weight:normal;font-style:normal;font-size:10px">50000</text>
<text x="19.055" y="-238.08" transform="scale(1, -1)"
	style="font-family:Times;font-weight:normal;font-style:normal;font-size:10px">150000</text>
<text x="19.055" y="-368.84" transform="scale(1, -1)"
	style="font-family:Times;font-weight:normal;font-style:normal;font-size:10px">250000</text>
<path d="M51.555,110.53L59.555,110.53" style="fill:none;stroke:#000000;stroke-width:0.5" />
<path d="M51.555,241.29L59.555,241.29" style="fill:none;stroke:#000000;stroke-width:0.5" />
<path d="M51.555,372.05L59.555,372.05" style="fill:none;stroke:#000000;stroke-width:0.5" />
<path d="M55.555,175.91L59.555,175.91" style="fill:none;stroke:#000000;stroke-width:0.5" />
<path d="M55.555,306.67L59.555,306.67" style="fill:none;stroke:#000000;stroke-width:0.5" />
<path d="M59.555,45.151L59.555,416.58" style="fill:none;stroke:#000000;stroke-width:0.5" />
<path d="M65.305,416.58L102.03,48.597L106.82,66.594L108.42,48.484L110.02,55.255L111.61,58.886L114.81,52.049L116.4,48.606L118,58.881L119.6,59.309L121.19,80.953L124.39,48.529L125.98,52.274L127.58,66.445L129.18,81.842L130.77,59.4L132.37,48.691L133.97,52.002L135.56,88.902L137.16,48.554L138.76,70.079L141.95,52.334L143.55,66.506L145.15,55.585L146.74,45.222L148.34,45.55L149.94,80.323L151.53,52.717L153.13,46.086L154.73,63.165L156.32,46.005L157.92,45.783L159.52,71.175L161.11,64.298L162.71,61.941L164.31,46.624L165.9,47.344L167.5,47.327L169.1,46.859L170.69,48.869L172.29,63.026L173.89,48.78L175.49,49.133L177.08,50.047L178.68,47.374L180.28,50.366L181.87,60.682L183.47,50.255L185.07,52.388L186.66,48.976L188.26,49.631L189.86,50.2L191.45,55.531L193.05,48.725L194.65,58.183L196.24,50.588L197.84,51.127L199.44,53.959L201.03,52.482L202.63,51.187L204.23,51.489L205.82,54.049L207.42,51.442L209.02,51.855L210.62,49.06L212.21,50.267L213.81,54.68L215.41,53.628L217,50.852L218.6,50.716L220.2,51.544L221.79,49.687L223.39,53.682L224.99,52.512L226.58,49.89L228.18,51.663L229.78,50.148L231.37,49.43L232.97,50.744L234.57,49.759L236.16,50.469L237.76,49.775L239.36,50.25L240.95,48.567L242.55,48.62L244.15,49.889L245.75,50.907L247.34,49.047L248.94,48.611L250.54,49.231L252.13,48.973L253.73,47.266L255.33,49.315L256.92,49.721L258.52,48.875L260.12,48.101L261.71,48.358L263.31,47.071L264.91,48.127L266.5,49.086L268.1,48.636L269.7,48.405L271.29,47.95L272.89,47.659L274.49,47.487L276.08,48.321L277.68,47.935L279.28,48.781L280.88,47.68L282.47,47.223L284.07,47.903L285.67,47.508L287.26,47.462L288.86,48.322L290.46,47.505L292.05,47.586L293.65,47.513L295.25,47.211L296.84,47.189L298.44,47.372L300.04,47.096L301.63,47.387L303.23,47.041L304.83,46.904L306.42,46.862L308.02,47.064L309.62,47.101L311.21,47.144L312.81,46.909L314.41,46.715L316.01,46.675L317.6,46.798L319.2,46.652L320.8,46.774L322.39,46.694L323.99,46.502L325.59,46.496L327.18,46.311L328.78,46.445L330.38,46.477L331.97,46.486L333.57,46.323L335.17,46.38L336.76,46.275L338.36,46.152L339.96,46.255L341.55,46.25L343.15,46.187L344.75,46.179L346.34,46.093L347.94,45.993L349.54,45.999L351.14,45.963L352.73,46.106L354.33,46.018L355.93,45.954L357.52,45.922L359.12,45.871L360.72,45.806L362.31,45.986L363.91,45.877L365.51,45.805L367.1,45.793L368.7,45.803L370.3,45.718L371.89,45.797L373.49,45.757L375.09,45.792L376.68,45.728L378.28,45.686L379.88,45.613L381.47,45.672L383.07,45.707L384.67,45.695L386.27,45.644L387.86,45.617L389.46,45.562L391.06,45.633L392.65,45.554L394.25,45.533L395.85,45.627L397.44,45.504L399.04,45.508L400.64,45.461L402.23,45.485L403.83,45.5L405.43,45.478L407.02,45.48L408.62,45.465L410.22,45.452L411.81,45.457L413.41,45.422L415.01,45.439L416.6,45.412L418.2,45.422L419.8,45.385L421.4,45.375L422.99,45.383L424.59,45.389L426.19,45.389L427.78,45.348L429.38,45.363L430.98,45.358L432.57,45.348L434.17,45.312L435.77,45.333L437.36,45.312L438.96,45.317L440.56,45.3L442.15,45.327L443.75,45.297L445.35,45.278L446.94,45.27L448.54,45.282L450.14,45.289L451.73,45.283L453.33,45.265L454.93,45.26L456.53,45.261L458.12,45.248L459.72,45.255L461.32,45.249L462.91,45.246L464.51,45.259L466.11,45.269L467.7,45.248L469.3,45.232L470.9,45.229L472.49,45.246L474.09,45.218L475.69,45.239L477.28,45.219L478.88,45.204L480.48,45.226L482.07,45.222L483.67,45.208L485.27,45.209L486.86,45.21L488.46,45.21L490.06,45.213L491.66,45.198L493.25,45.188L494.85,45.2L496.45,45.209L498.04,45.192L499.64,45.195L501.24,45.193L502.83,45.195L504.43,45.208L506.03,45.175L507.62,45.193L509.22,45.185L510.82,45.179L512.41,45.195L514.01,45.185L515.61,45.176L517.2,45.178L518.8,45.181L520.4,45.174L521.99,45.178L523.59,45.178L525.19,45.178L526.79,45.166L528.38,45.167L529.98,45.171L531.58,45.17L533.17,45.174L534.77,45.174L536.37,45.163L537.96,45.175L539.56,45.168L541.16,45.171L542.75,45.167L544.35,45.161L545.95,45.166L547.54,45.163L549.14,45.163L550.74,45.159L552.33,45.159L553.93,45.162L555.53,45.158L557.12,45.168L558.72,45.159L560.32,45.157L561.92,45.168L563.51,45.162L565.11,45.158L566.71,45.158L568.3,45.155L569.9,45.157L571.5,45.161L573.09,45.155L574.69,45.155L576.29,45.155L577.88,45.154L579.48,45.157L581.08,45.157L582.67,45.157L584.27,45.154L585.87,45.155L589.06,45.154L590.66,45.161L592.25,45.154L593.85,45.154L595.45,45.157L597.05,45.153L598.64,45.155L600.24,45.158L601.84,45.153L603.43,45.151L605.03,45.153L606.63,45.153L609.82,45.154L611.42,45.151L613.01,45.154L614.61,45.155L616.21,45.153L617.8,45.155L619.4,45.151L621,45.151L622.59,45.151L624.19,45.151L625.79,45.153L627.38,45.151L630.58,45.151L632.18,45.151L633.77,45.151L636.97,45.153L646.55,45.155L649.74,45.151L656.13,45.151L667.31,45.153L668.9,45.151L676.89,45.151L684.87,45.151L689.66,45.153L696.05,45.151L707.23,45.151L708.82,45.151L716.81,45.151L720,45.151" style="fill:none;stroke:#0000FF" />
</g>
</svg>
