<?xml version="1.0"?>
<!-- Generated by SVGo and Plotinum VG -->
<svg width="720pt" height="432pt" viewBox="0 0 720 432"
	xmlns="http://www.w3.org/2000/svg"
	xmlns:xlink="http://www.w3.org/1999/xlink">
<g transform="scale(1, -1) translate(0, -432)">
<path d="M0,0L720,0L720,432L0,432Z" style="fill:#FFFFFF" />
<text x="358.5" y="-420.45" transform="scale(1, -1)"
	style="font-family:Times;font-weight:normal;font-style:normal;font-size:12px"> </text>
<text x="376.81" y="-3.8613" transform="scale(1, -1)"
	style="font-family:Times;font-weight:normal;font-style:normal;font-size:12px">Costs</text>
<text x="57.805" y="-18.634" transform="scale(1, -1)"
	style="font-family:Times;font-weight:normal;font-style:normal;font-size:10px">0</text>
<text x="377.78" y="-18.634" transform="scale(1, -1)"
	style="font-family:Times;font-weight:normal;font-style:normal;font-size:10px">300</text>
<text x="702.75" y="-18.634" transform="scale(1, -1)"
	style="font-family:Times;font-weight:normal;font-style:normal;font-size:10px">600</text>
<path d="M60.305,28.263L60.305,36.263" style="fill:none;stroke:#000000;stroke-width:0.5" />
<path d="M385.28,28.263L385.28,36.263" style="fill:none;stroke:#000000;stroke-width:0.5" />
<path d="M710.25,28.263L710.25,36.263" style="fill:none;stroke:#000000;stroke-width:0.5" />
<path d="M168.63,32.263L168.63,36.263" style="fill:none;stroke:#000000;stroke-width:0.5" />
<path d="M276.95,32.263L276.95,36.263" style="fill:none;stroke:#000000;stroke-width:0.5" />
<path d="M493.6,32.263L493.6,36.263" style="fill:none;stroke:#000000;stroke-width:0.5" />
<path d="M601.93,32.263L601.93,36.263" style="fill:none;stroke:#000000;stroke-width:0.5" />
<path d="M60.305,36.263L720,36.263" style="fill:none;stroke:#000000;stroke-width:0.5" />
<g transform="rotate(90)">
<text x="152.55" y="11.555" transform="scale(1, -1)"
	style="font-family:Times;font-weight:normal;font-style:normal;font-size:12px">Number of trials (1000000 total)</text>
</g>
<text x="24.055" y="-82.395" transform="scale(1, -1)"
	style="font-family:Times;font-weight:normal;font-style:normal;font-size:10px">5000</text>
<text x="19.055" y="-244.23" transform="scale(1, -1)"
	style="font-family:Times;font-weight:normal;font-style:normal;font-size:10px">25000</text>
<text x="19.055" y="-406.06" transform="scale(1, -1)"
	style="font-family:Times;font-weight:normal;font-style:normal;font-size:10px">45000</text>
<path d="M46.555,85.601L54.555,85.601" style="fill:none;stroke:#000000;stroke-width:0.5" />
<path d="M46.555,247.43L54.555,247.43" style="fill:none;stroke:#000000;stroke-width:0.5" />
<path d="M46.555,409.26L54.555,409.26" style="fill:none;stroke:#000000;stroke-width:0.5" />
<path d="M50.555,166.52L54.555,166.52" style="fill:none;stroke:#000000;stroke-width:0.5" />
<path d="M50.555,328.35L54.555,328.35" style="fill:none;stroke:#000000;stroke-width:0.5" />
<path d="M54.555,45.151L54.555,416.58" style="fill:none;stroke:#000000;stroke-width:0.5" />
<path d="M60.305,416.58L88.469,98.677L89.552,97.908L90.636,78.424L93.885,133.21L94.968,69.102L97.135,131.28L98.218,78.626L102.55,81.256L103.63,62.297L104.72,97.39L105.8,96.872L106.88,48.534L107.97,293.86L109.05,65.631L110.13,78.61L113.38,97.948L114.47,82.405L117.72,58.955L118.8,84.403L119.88,50.014L120.97,148.75L122.05,63.471L123.13,60.849L124.22,109.03L125.3,59.797L126.38,65.696L127.47,63.195L128.55,53.461L130.72,70.575L131.8,66.254L132.88,60.371L133.97,65.372L135.05,65.955L136.13,93.409L137.21,89.46L138.3,89.946L139.38,77.105L140.46,93.717L141.55,123.23L142.63,96.986L143.71,69.41L144.8,108.55L145.88,77L146.96,114.18L148.05,127.2L149.13,67.678L150.21,104.31L151.3,87.931L152.38,104.5L153.46,94.534L154.55,88.627L155.63,104.62L156.71,71.554L157.8,113.43L158.88,77.105L159.96,57.855L161.05,101.65L162.13,84.282L163.21,72.857L164.3,64.021L165.38,74.313L166.46,96.12L167.55,67.783L168.63,137.29L169.71,81.895L170.8,77.501L171.88,104.32L172.96,68.908L174.05,91.961L175.13,85.115L176.21,77.801L177.29,80.495L178.38,85.496L179.46,80.042L180.54,77.606L181.63,84.921L182.71,82.688L183.79,83.983L184.88,106.72L185.96,86.806L187.04,81.814L188.13,93.773L189.21,85.601L190.29,90.043L191.38,87.251L192.46,87.122L193.54,78.885L194.63,109.45L195.71,119.15L196.79,83.125L197.88,90.156L198.96,85.034L200.04,89.776L201.13,93.992L202.21,95.084L203.29,86.054L204.38,78.019L205.46,95.691L206.54,87.648L207.63,82.801L208.71,97.066L209.79,71.675L210.88,87.826L211.96,84.33L213.04,79.516L214.13,83.618L215.21,75.106L216.29,85.221L217.38,78.456L218.46,80.649L219.54,81.725L220.62,71.295L221.71,88.489L222.79,82.85L223.87,78.367L224.96,82.429L226.04,77.291L227.12,81.968L228.21,83.626L229.29,82.656L230.37,82.397L231.46,78.561L232.54,93.296L233.62,77.72L234.71,82.801L235.79,76.627L236.87,77.469L237.96,82.097L239.04,81.256L240.12,80.608L241.21,79.241L242.29,80.398L243.37,79.645L244.46,76.36L245.54,78.917L246.62,72.719L247.71,75.94L248.79,83.675L249.87,76.482L250.96,74.726L252.04,73.917L253.12,74.515L254.21,75.074L255.29,78.391L256.37,82.146L257.46,68.965L258.54,75.276L259.62,74.394L260.7,71.068L261.79,72.112L262.87,69.054L263.95,69.046L265.04,69.572L266.12,70.907L267.2,70.858L268.29,65.987L269.37,69.313L270.45,68.05L271.54,70.3L272.62,69.264L273.7,66.602L274.79,69.563L275.87,70.389L276.95,68.609L278.04,68.916L279.12,66.796L280.2,67.557L281.29,65.728L282.37,71.4L283.45,66.027L284.54,66.108L285.62,67.727L286.7,66.529L287.79,65.453L288.87,66.57L289.95,65.979L291.04,65.817L292.12,65.275L293.2,66.764L294.29,62.993L295.37,63.738L296.45,63.341L297.54,62.152L298.62,63.988L299.7,61.723L300.78,62.338L301.87,62.014L302.95,62.055L304.03,61.941L305.12,60.792L306.2,61.213L307.28,60.242L308.37,60.574L309.45,61.998L310.53,59.692L311.62,59.158L312.7,60.104L313.78,59.279L314.87,59.279L315.95,58.13L317.03,58.179L318.12,57.968L319.2,60.218L320.28,59.748L321.37,57.604L322.45,57.467L323.53,57.07L324.62,57.693L325.7,57.353L326.78,56.722L327.87,56.488L328.95,56.585L330.03,56.399L331.12,56.471L332.2,56.026L333.28,55.84L334.37,55.403L335.45,55.913L336.53,55.945L337.62,54.756L338.7,54.659L339.78,54.788L340.86,55.25L341.95,54.117L343.03,54.529L344.11,54.044L345.2,53.51L346.28,54.222L347.36,53.421L348.45,53.575L349.53,53.194L350.61,53.227L351.7,52.701L352.78,52.482L353.86,52.685L354.95,52.749L356.03,52.07L357.11,52.32L358.2,52.191L359.28,51.608L360.36,51.438L361.45,51.511L362.53,52.029L363.61,51.228L364.7,51.171L365.78,51.066L366.86,51.374L367.95,50.67L369.03,51.002L370.11,50.977L371.2,50.573L372.28,50.403L373.36,50.565L374.45,50.33L375.53,50.031L376.61,50.289L377.7,49.683L378.78,49.666L379.86,50.047L380.94,49.853L382.03,49.286L383.11,49.44L384.19,49.513L385.28,49.132L386.36,49.262L387.44,49.092L388.53,49.149L389.61,49.043L390.69,48.744L391.78,48.954L392.86,48.679L393.94,48.42L395.03,48.42L396.11,48.55L397.19,48.477L398.28,47.991L399.36,48.323L400.44,48.08L401.53,48.008L402.61,47.967L403.69,47.878L404.78,47.813L405.86,47.668L406.94,48.04L408.03,47.692L409.11,47.441L410.19,47.87L411.28,47.773L412.36,47.215L413.44,47.336L414.53,47.457L415.61,47.417L416.69,47.223L417.78,47.231L418.86,47.11L419.94,47.174L421.02,47.101L422.11,47.021L423.19,47.029L424.27,46.996L425.36,47.053L426.44,47.134L427.52,46.786L428.61,46.624L429.69,46.543L430.77,46.592L431.86,46.6L432.94,46.794L434.02,46.713L435.11,46.689L436.19,46.584L437.27,46.381L438.36,46.317L439.44,46.414L440.52,46.414L441.61,46.592L442.69,46.438L443.77,46.43L444.86,46.26L445.94,46.284L447.02,46.179L448.11,46.082L449.19,46.09L450.27,46.082L451.36,46.122L452.44,46.082L453.52,46.001L454.61,45.993L455.69,46.122L456.77,45.944L457.86,45.904L458.94,45.904L460.02,45.92L461.1,45.839L462.19,45.823L463.27,45.904L464.35,45.847L465.44,45.847L466.52,45.766L467.6,45.855L468.69,45.807L469.77,45.742L470.85,45.702L471.94,45.758L473.02,45.693L474.1,45.58L475.19,45.637L476.27,45.604L477.35,45.71L478.44,45.572L479.52,45.548L480.6,45.604L481.69,45.572L482.77,45.653L483.85,45.58L484.94,45.483L486.02,45.54L487.1,45.596L488.19,45.515L489.27,45.499L490.35,45.499L491.44,45.459L492.52,45.386L493.6,45.378L494.69,45.491L495.77,45.475L496.85,45.435L497.94,45.378L499.02,45.507L500.1,45.443L501.18,45.418L502.27,45.386L503.35,45.386L504.43,45.281L505.52,45.402L506.6,45.329L507.68,45.305L508.77,45.329L509.85,45.354L510.93,45.354L512.02,45.354L513.1,45.337L514.18,45.265L515.27,45.313L516.35,45.329L517.43,45.273L518.52,45.265L519.6,45.273L520.68,45.281L521.77,45.289L522.85,45.24L523.93,45.337L525.02,45.273L526.1,45.232L527.18,45.281L528.27,45.297L529.35,45.265L530.43,45.2L531.52,45.232L532.6,45.257L533.68,45.224L534.77,45.216L535.85,45.216L536.93,45.232L538.02,45.24L539.1,45.257L540.18,45.224L541.26,45.248L542.35,45.216L543.43,45.232L544.51,45.216L545.6,45.192L546.68,45.216L547.76,45.2L548.85,45.224L549.93,45.159L551.01,45.2L552.1,45.2L553.18,45.184L554.26,45.208L555.35,45.208L556.43,45.192L557.51,45.176L558.6,45.184L559.68,45.2L560.76,45.192L561.85,45.2L562.93,45.192L564.01,45.168L565.1,45.168L566.18,45.2L567.26,45.176L568.35,45.168L569.43,45.2L570.51,45.168L571.6,45.151L572.68,45.159L573.76,45.159L574.85,45.176L575.93,45.168L577.01,45.151L578.1,45.159L579.18,45.159L580.26,45.192L581.34,45.168L582.43,45.176L584.59,45.168L585.68,45.159L586.76,45.151L587.84,45.159L588.93,45.159L590.01,45.151L591.09,45.151L592.18,45.151L593.26,45.184L594.34,45.168L595.43,45.151L596.51,45.168L597.59,45.151L598.68,45.151L599.76,45.168L600.84,45.184L603.01,45.151L606.26,45.151L607.34,45.151L608.43,45.176L609.51,45.151L610.59,45.151L613.84,45.168L614.93,45.151L617.09,45.151L618.18,45.151L620.34,45.151L622.51,45.151L625.76,45.159L626.84,45.151L627.92,45.151L630.09,45.151L631.17,45.151L632.26,45.151L635.51,45.151L636.59,45.151L639.84,45.151L640.92,45.151L642.01,45.159L644.17,45.151L652.84,45.168L663.67,45.151L664.75,45.151L673.42,45.151L694,45.151L720,45.151" style="fill:none;stroke:#0000FF" />
</g>
</svg>
