<?xml version="1.0"?>
<!-- Generated by SVGo and Plotinum VG -->
<svg width="720pt" height="432pt" viewBox="0 0 720 432"
	xmlns="http://www.w3.org/2000/svg"
	xmlns:xlink="http://www.w3.org/1999/xlink">
<g transform="scale(1, -1) translate(0, -432)">
<path d="M0,0L720,0L720,432L0,432Z" style="fill:#FFFFFF" />
<text x="358.5" y="-420.45" transform="scale(1, -1)"
	style="font-family:Times;font-weight:normal;font-style:normal;font-size:12px"> </text>
<text x="379.31" y="-3.8613" transform="scale(1, -1)"
	style="font-family:Times;font-weight:normal;font-style:normal;font-size:12px">Costs</text>
<text x="62.805" y="-18.634" transform="scale(1, -1)"
	style="font-family:Times;font-weight:normal;font-style:normal;font-size:10px">0</text>
<text x="334.05" y="-18.634" transform="scale(1, -1)"
	style="font-family:Times;font-weight:normal;font-style:normal;font-size:10px">200</text>
<text x="610.29" y="-18.634" transform="scale(1, -1)"
	style="font-family:Times;font-weight:normal;font-style:normal;font-size:10px">400</text>
<path d="M65.305,28.263L65.305,36.263" style="fill:none;stroke:#000000;stroke-width:0.5" />
<path d="M341.55,28.263L341.55,36.263" style="fill:none;stroke:#000000;stroke-width:0.5" />
<path d="M617.79,28.263L617.79,36.263" style="fill:none;stroke:#000000;stroke-width:0.5" />
<path d="M203.43,32.263L203.43,36.263" style="fill:none;stroke:#000000;stroke-width:0.5" />
<path d="M479.67,32.263L479.67,36.263" style="fill:none;stroke:#000000;stroke-width:0.5" />
<path d="M65.305,36.263L720,36.263" style="fill:none;stroke:#000000;stroke-width:0.5" />
<g transform="rotate(90)">
<text x="152.55" y="11.555" transform="scale(1, -1)"
	style="font-family:Times;font-weight:normal;font-style:normal;font-size:12px">Number of trials (1000000 total)</text>
</g>
<text x="24.055" y="-89.939" transform="scale(1, -1)"
	style="font-family:Times;font-weight:normal;font-style:normal;font-size:10px">20000</text>
<text x="24.055" y="-233.93" transform="scale(1, -1)"
	style="font-family:Times;font-weight:normal;font-style:normal;font-size:10px">80000</text>
<text x="19.055" y="-377.91" transform="scale(1, -1)"
	style="font-family:Times;font-weight:normal;font-style:normal;font-size:10px">140000</text>
<path d="M51.555,93.144L59.555,93.144" style="fill:none;stroke:#000000;stroke-width:0.5" />
<path d="M51.555,237.13L59.555,237.13" style="fill:none;stroke:#000000;stroke-width:0.5" />
<path d="M51.555,381.12L59.555,381.12" style="fill:none;stroke:#000000;stroke-width:0.5" />
<path d="M55.555,165.14L59.555,165.14" style="fill:none;stroke:#000000;stroke-width:0.5" />
<path d="M55.555,309.12L59.555,309.12" style="fill:none;stroke:#000000;stroke-width:0.5" />
<path d="M59.555,45.151L59.555,416.58" style="fill:none;stroke:#000000;stroke-width:0.5" />
<path d="M65.305,416.58L95.691,52.06L101.22,55.118L102.6,62.507L103.98,55.624L105.36,48.612L106.74,48.441L108.12,67.124L109.5,91.64L110.88,74.556L112.27,114.87L113.65,69.694L115.03,48.386L117.79,55.401L119.17,81.304L120.55,58.669L121.93,91.714L123.32,69.356L124.7,98.909L126.08,69.61L127.46,63.507L128.84,59.152L131.6,45.341L132.98,59.24L134.37,63.466L135.75,66.344L137.13,45.279L138.51,80.62L139.89,64.124L141.27,46.222L142.65,72.684L144.03,56.363L145.42,62.694L146.8,55.382L148.18,65.425L149.56,65.101L150.94,56.32L152.32,53.817L153.7,50.275L155.08,55.514L156.46,58.698L157.85,57.059L159.23,55.674L160.61,54.813L161.99,54.139L163.37,55.305L164.75,57.16L166.13,66.764L167.51,60.58L168.9,66.584L170.28,63.13L171.66,71.532L173.04,60.241L174.42,56.246L175.8,65.377L177.18,60.287L178.56,60.848L179.95,61.988L181.33,65.468L182.71,66.154L184.09,59.91L185.47,63.265L186.85,62.478L188.23,58.283L189.61,59.024L191,57.777L192.38,62.526L193.76,59.944L195.14,62.394L196.52,61.17L197.9,59.252L199.28,59.156L200.66,55.264L202.04,58.842L203.43,57.069L204.81,57.172L206.19,56.903L207.57,56.944L208.95,57.222L210.33,55.163L211.71,55.415L213.09,57.071L214.48,53.714L215.86,56.728L217.24,55.326L218.62,56.769L220,55.751L221.38,54.923L222.76,57.198L224.14,55.734L225.53,56.653L226.91,55.118L228.29,56.042L229.67,56.164L231.05,54.945L232.43,54.87L233.81,54.688L235.19,54.995L236.58,54.379L237.96,54.201L239.34,55.396L240.72,54.654L242.1,54.82L243.48,54.335L244.86,54.722L246.24,54.213L247.62,53.042L249.01,54.65L250.39,54.177L251.77,53.735L253.15,53.858L254.53,53.781L255.91,53.872L257.29,52.497L258.67,52.521L260.06,52.423L261.44,52.305L262.82,52.468L264.2,51.984L265.58,52.005L266.96,52.063L268.34,52.214L269.72,51.669L271.11,51.268L272.49,51.508L273.87,50.884L275.25,50.906L276.63,51.182L278.01,50.947L279.39,50.868L280.77,50.752L282.16,50.899L283.54,50.616L284.92,50.342L286.3,50.289L287.68,50.318L289.06,50.205L290.44,49.956L291.82,50.205L293.2,50.006L294.59,49.86L295.97,49.829L297.35,49.646L298.73,49.634L300.11,49.613L301.49,49.481L302.87,49.476L304.25,49.137L305.64,49.159L307.02,49.351L308.4,49.101L309.78,49.202L311.16,48.806L312.54,48.919L313.92,48.912L315.3,48.722L316.69,48.54L318.07,48.456L319.45,48.499L320.83,48.444L322.21,48.254L323.59,48.321L324.97,48.216L326.35,48.168L327.74,47.93L329.12,47.837L330.5,47.885L331.88,47.832L333.26,47.791L334.64,47.645L336.02,47.501L337.4,47.652L338.79,47.664L340.17,47.52L341.55,47.429L342.93,47.419L344.31,47.297L345.69,47.285L347.07,47.16L348.45,47.076L349.83,47.246L351.22,47.071L352.6,47.09L353.98,46.944L355.36,46.867L356.74,47.028L358.12,46.877L359.5,46.838L360.88,46.838L362.27,46.817L363.65,46.759L365.03,46.807L366.41,46.649L367.79,46.634L369.17,46.577L370.55,46.493L371.93,46.558L373.32,46.493L374.7,46.469L376.08,46.392L377.46,46.358L378.84,46.447L380.22,46.399L381.6,46.291L382.98,46.255L384.37,46.142L385.75,46.174L387.13,46.13L388.51,46.128L389.89,46.171L391.27,46.051L392.65,45.994L394.03,46.027L395.41,46.013L396.8,45.965L398.18,46.001L399.56,45.982L400.94,45.924L402.32,45.835L403.7,45.9L405.08,45.859L406.46,45.914L407.85,45.811L409.23,45.723L410.61,45.737L411.99,45.792L413.37,45.766L414.75,45.795L416.13,45.73L417.51,45.677L418.9,45.648L420.28,45.667L421.66,45.66L423.04,45.648L424.42,45.583L425.8,45.639L427.18,45.641L428.56,45.564L429.95,45.607L431.33,45.519L432.71,45.499L434.09,45.545L435.47,45.569L436.85,45.545L438.23,45.504L439.61,45.427L440.99,45.466L442.38,45.487L443.76,45.466L445.14,45.471L446.52,45.403L447.9,45.444L449.28,45.425L450.66,45.48L452.04,45.423L453.43,45.391L454.81,45.444L456.19,45.396L457.57,45.413L458.95,45.387L460.33,45.367L461.71,45.399L463.09,45.317L464.48,45.348L465.86,45.363L467.24,45.384L468.62,45.334L470,45.329L471.38,45.315L472.76,45.319L474.14,45.281L475.53,45.305L476.91,45.288L478.29,45.324L479.67,45.317L481.05,45.262L482.43,45.324L483.81,45.3L485.19,45.3L486.57,45.252L487.96,45.267L489.34,45.262L490.72,45.255L492.1,45.255L493.48,45.238L494.86,45.255L496.24,45.243L497.62,45.245L499.01,45.245L500.39,45.209L501.77,45.243L503.15,45.238L504.53,45.255L505.91,45.243L507.29,45.221L508.67,45.238L510.06,45.219L511.44,45.207L512.82,45.195L514.2,45.216L515.58,45.19L516.96,45.192L518.34,45.204L519.72,45.197L521.11,45.207L522.49,45.197L523.87,45.207L525.25,45.197L526.63,45.192L528.01,45.195L529.39,45.195L530.77,45.202L532.15,45.195L533.54,45.187L534.92,45.187L536.3,45.173L537.68,45.18L539.06,45.175L540.44,45.19L541.82,45.175L543.2,45.173L544.59,45.171L545.97,45.183L547.35,45.178L548.73,45.178L550.11,45.178L551.49,45.178L552.87,45.178L554.25,45.175L555.64,45.18L557.02,45.185L558.4,45.168L559.78,45.168L561.16,45.161L562.54,45.166L563.92,45.175L565.3,45.159L566.69,45.171L568.07,45.173L569.45,45.163L570.83,45.161L572.21,45.156L573.59,45.159L574.97,45.156L576.35,45.166L577.73,45.159L579.12,45.156L580.5,45.163L581.88,45.151L583.26,45.161L584.64,45.166L586.02,45.171L587.4,45.159L588.78,45.156L590.17,45.156L591.55,45.156L592.93,45.159L594.31,45.156L595.69,45.154L597.07,45.151L598.45,45.154L599.83,45.156L601.22,45.159L602.6,45.159L603.98,45.154L605.36,45.154L606.74,45.151L608.12,45.156L609.5,45.159L610.88,45.159L612.27,45.151L613.65,45.154L615.03,45.159L616.41,45.151L617.79,45.154L619.17,45.156L620.55,45.151L621.93,45.156L623.32,45.154L624.7,45.154L626.08,45.151L627.46,45.151L628.84,45.154L630.22,45.154L632.98,45.154L634.36,45.151L637.13,45.151L638.51,45.154L639.89,45.151L641.27,45.151L644.03,45.151L646.8,45.151L649.56,45.151L650.94,45.154L655.08,45.151L656.46,45.151L657.85,45.151L659.23,45.151L660.61,45.151L661.99,45.151L666.13,45.151L670.28,45.151L671.66,45.151L673.04,45.151L675.8,45.151L677.18,45.151L682.71,45.151L688.23,45.151L696.52,45.151L700.66,45.151L720,45.151" style="fill:none;stroke:#0000FF" />
</g>
</svg>
