<?xml version="1.0"?>
<!-- Generated by SVGo and Plotinum VG -->
<svg width="720pt" height="432pt" viewBox="0 0 720 432"
	xmlns="http://www.w3.org/2000/svg"
	xmlns:xlink="http://www.w3.org/1999/xlink">
<g transform="scale(1, -1) translate(0, -432)">
<path d="M0,0L720,0L720,432L0,432Z" style="fill:#FFFFFF" />
<text x="358.5" y="-420.45" transform="scale(1, -1)"
	style="font-family:Times;font-weight:normal;font-style:normal;font-size:12px"> </text>
<text x="379.31" y="-3.8613" transform="scale(1, -1)"
	style="font-family:Times;font-weight:normal;font-style:normal;font-size:12px">Costs</text>
<text x="62.805" y="-18.634" transform="scale(1, -1)"
	style="font-family:Times;font-weight:normal;font-style:normal;font-size:10px">0</text>
<text x="360.2" y="-18.634" transform="scale(1, -1)"
	style="font-family:Times;font-weight:normal;font-style:normal;font-size:10px">200</text>
<text x="662.6" y="-18.634" transform="scale(1, -1)"
	style="font-family:Times;font-weight:normal;font-style:normal;font-size:10px">400</text>
<path d="M65.305,28.263L65.305,36.263" style="fill:none;stroke:#000000;stroke-width:0.5" />
<path d="M367.7,28.263L367.7,36.263" style="fill:none;stroke:#000000;stroke-width:0.5" />
<path d="M670.1,28.263L670.1,36.263" style="fill:none;stroke:#000000;stroke-width:0.5" />
<path d="M216.5,32.263L216.5,36.263" style="fill:none;stroke:#000000;stroke-width:0.5" />
<path d="M518.9,32.263L518.9,36.263" style="fill:none;stroke:#000000;stroke-width:0.5" />
<path d="M65.305,36.263L720,36.263" style="fill:none;stroke:#000000;stroke-width:0.5" />
<g transform="rotate(90)">
<text x="150.06" y="11.555" transform="scale(1, -1)"
	style="font-family:Times;font-weight:normal;font-style:normal;font-size:12px">Number of trials (1000000 total)</text>
</g>
<text x="24.055" y="-114.95" transform="scale(1, -1)"
	style="font-family:Times;font-weight:normal;font-style:normal;font-size:10px">50000</text>
<text x="19.055" y="-260.95" transform="scale(1, -1)"
	style="font-family:Times;font-weight:normal;font-style:normal;font-size:10px">150000</text>
<text x="19.055" y="-406.96" transform="scale(1, -1)"
	style="font-family:Times;font-weight:normal;font-style:normal;font-size:10px">250000</text>
<path d="M51.555,118.15L59.555,118.15" style="fill:none;stroke:#000000;stroke-width:0.5" />
<path d="M51.555,264.16L59.555,264.16" style="fill:none;stroke:#000000;stroke-width:0.5" />
<path d="M51.555,410.16L59.555,410.16" style="fill:none;stroke:#000000;stroke-width:0.5" />
<path d="M55.555,191.15L59.555,191.15" style="fill:none;stroke:#000000;stroke-width:0.5" />
<path d="M55.555,337.16L59.555,337.16" style="fill:none;stroke:#000000;stroke-width:0.5" />
<path d="M59.555,45.151L59.555,411.6" style="fill:none;stroke:#000000;stroke-width:0.5" />
<path d="M65.305,411.6L98.569,48.956L101.59,48.565L104.62,48.515L107.64,59.177L109.15,48.768L110.66,48.632L112.18,75.114L113.69,74.811L115.2,72.599L116.71,77.899L118.22,55.331L119.74,48.977L121.25,52.841L122.76,48.816L124.27,62.602L125.78,70.229L127.3,59.959L128.81,69.974L130.32,48.644L131.83,85.043L133.34,55.848L134.86,59.926L137.88,45.178L139.39,63.722L140.9,52.295L142.42,48.889L143.93,45.316L145.44,81.563L146.95,75.545L148.46,45.732L149.98,56.808L151.49,53.763L153,49.331L154.51,50.297L156.02,46.852L157.54,65.129L159.05,54.62L160.56,63.837L162.07,48.866L163.58,50.425L165.1,50.336L166.61,53.449L168.12,49.396L169.63,48.445L171.14,49.657L172.66,54.284L174.17,52.32L175.68,56.373L177.19,55.22L178.7,53.652L180.22,52.76L181.73,67.619L183.24,52.847L184.75,50.787L186.26,57.173L187.78,55.649L189.29,51.488L190.8,51.71L192.31,53.681L193.82,54.469L195.34,54.395L196.85,54.021L198.36,53.988L199.87,51.992L201.38,51.779L202.9,51.117L204.41,50.523L205.92,54.674L207.43,53.196L208.94,53.821L210.46,51.2L211.97,52.787L213.48,52.285L214.99,50.451L216.5,50.586L218.02,49.613L219.53,51.288L221.04,52.325L222.55,49.415L224.06,52.148L225.58,50.754L227.09,53.39L228.6,49.878L230.11,50.264L231.62,50.862L233.14,50.964L234.65,50.332L236.16,49.531L237.67,50.511L239.18,51.05L240.7,50.851L242.21,51.221L243.72,49.285L245.23,50.11L246.74,49.6L248.26,50.305L249.77,49.121L251.28,49.048L252.79,49.475L254.3,48.999L255.82,49.114L257.33,49.124L258.84,48.505L260.35,48.543L261.86,49.853L263.38,49.299L264.89,47.963L266.4,48.876L267.91,49.275L269.42,48.505L270.94,48.282L272.45,48.304L273.96,48.672L275.47,48.257L276.98,48.28L278.5,48.001L280.01,47.988L281.52,47.997L283.03,47.939L284.54,47.511L286.06,47.66L287.57,47.85L289.08,47.816L290.59,47.629L292.1,47.651L293.62,47.74L295.13,47.343L296.64,47.349L298.15,47.318L299.66,47.314L301.18,47.401L302.69,47.277L304.2,47.301L305.71,47.115L307.22,47.042L308.74,47.061L310.25,46.835L311.76,47.041L313.27,46.978L314.78,46.861L316.3,46.902L317.81,46.775L319.32,46.858L320.83,46.627L322.34,46.784L323.86,46.616L325.37,46.54L326.88,46.578L328.39,46.585L329.9,46.519L331.42,46.454L332.93,46.365L334.44,46.335L335.95,46.271L337.46,46.382L338.98,46.246L340.49,46.216L342,46.255L343.51,46.254L345.02,46.169L346.54,46.092L348.05,46.151L349.56,46.038L351.07,46.019L352.58,46.105L354.1,46.007L355.61,46.014L357.12,45.903L358.63,45.93L360.14,45.931L361.66,45.927L363.17,45.916L364.68,45.846L366.19,45.839L367.7,45.801L369.22,45.803L370.73,45.766L372.24,45.791L373.75,45.822L375.26,45.747L376.78,45.696L378.29,45.743L379.8,45.617L381.31,45.622L382.82,45.662L384.34,45.686L385.85,45.598L387.36,45.638L388.87,45.595L390.38,45.532L391.9,45.551L393.41,45.544L394.92,45.569L396.43,45.499L397.94,45.537L399.46,45.527L400.97,45.509L402.48,45.467L403.99,45.5L405.5,45.473L407.02,45.449L408.53,45.442L410.04,45.448L411.55,45.419L413.06,45.416L414.58,45.416L416.09,45.357L417.6,45.42L419.11,45.362L420.62,45.397L422.14,45.381L423.65,45.381L425.16,45.37L426.67,45.348L428.18,45.318L429.7,45.351L431.21,45.36L432.72,45.337L434.23,45.337L435.74,45.324L437.26,45.306L438.77,45.312L440.28,45.321L441.79,45.315L443.3,45.3L444.82,45.273L446.33,45.308L447.84,45.281L449.35,45.258L450.86,45.264L452.38,45.248L453.89,45.264L455.4,45.245L456.91,45.251L458.42,45.261L459.94,45.246L461.45,45.245L462.96,45.23L464.47,45.236L465.98,45.235L467.5,45.223L469.01,45.223L470.52,45.23L472.03,45.217L473.54,45.223L475.06,45.229L476.57,45.198L478.08,45.197L479.59,45.216L481.1,45.214L482.62,45.211L484.13,45.207L485.64,45.182L487.15,45.189L488.66,45.208L490.18,45.197L491.69,45.201L493.2,45.195L494.71,45.182L496.22,45.178L497.74,45.186L499.25,45.172L500.76,45.179L502.27,45.197L503.78,45.17L505.3,45.179L506.81,45.181L508.32,45.181L509.83,45.173L511.34,45.178L512.86,45.175L514.37,45.175L515.88,45.173L517.39,45.176L518.9,45.178L520.42,45.173L521.93,45.175L523.44,45.17L524.95,45.166L526.46,45.167L527.98,45.165L529.49,45.173L531,45.163L532.51,45.17L534.02,45.166L535.54,45.162L537.05,45.166L538.56,45.165L540.07,45.153L541.58,45.175L543.1,45.166L544.61,45.154L546.12,45.156L547.63,45.159L549.14,45.156L550.66,45.16L552.17,45.16L553.68,45.157L555.19,45.16L556.7,45.16L558.22,45.153L559.73,45.157L561.24,45.153L562.75,45.154L564.26,45.16L565.78,45.157L567.29,45.154L568.8,45.156L570.31,45.153L571.82,45.156L573.34,45.16L574.85,45.16L576.36,45.151L577.87,45.156L582.41,45.153L583.92,45.153L585.43,45.154L586.94,45.153L588.46,45.156L589.97,45.151L591.48,45.153L592.99,45.156L594.5,45.151L596.02,45.153L597.53,45.154L600.55,45.153L602.06,45.151L603.58,45.151L605.09,45.154L606.6,45.154L608.11,45.151L609.62,45.153L611.14,45.151L612.65,45.151L615.67,45.151L617.18,45.153L618.7,45.153L621.72,45.153L623.23,45.151L627.77,45.154L629.28,45.151L632.3,45.151L638.35,45.153L641.38,45.153L647.42,45.151L650.45,45.151L656.5,45.151L679.18,45.151L700.34,45.151L706.39,45.151L720,45.151" style="fill:none;stroke:#0000FF" />
</g>
</svg>
