<?xml version="1.0"?>
<!-- Generated by SVGo and Plotinum VG -->
<svg width="720pt" height="432pt" viewBox="0 0 720 432"
	xmlns="http://www.w3.org/2000/svg"
	xmlns:xlink="http://www.w3.org/1999/xlink">
<g transform="scale(1, -1) translate(0, -432)">
<path d="M0,0L720,0L720,432L0,432Z" style="fill:#FFFFFF" />
<text x="358.5" y="-420.45" transform="scale(1, -1)"
	style="font-family:Times;font-weight:normal;font-style:normal;font-size:12px"> </text>
<text x="385.56" y="-3.8613" transform="scale(1, -1)"
	style="font-family:Times;font-weight:normal;font-style:normal;font-size:12px">Costs</text>
<text x="69.055" y="-18.634" transform="scale(1, -1)"
	style="font-family:Times;font-weight:normal;font-style:normal;font-size:10px">0.00</text>
<text x="346.21" y="-18.634" transform="scale(1, -1)"
	style="font-family:Times;font-weight:normal;font-style:normal;font-size:10px">250.00</text>
<text x="628.37" y="-18.634" transform="scale(1, -1)"
	style="font-family:Times;font-weight:normal;font-style:normal;font-size:10px">500.00</text>
<path d="M77.805,28.263L77.805,36.263" style="fill:none;stroke:#000000;stroke-width:0.5" />
<path d="M359.96,28.263L359.96,36.263" style="fill:none;stroke:#000000;stroke-width:0.5" />
<path d="M642.12,28.263L642.12,36.263" style="fill:none;stroke:#000000;stroke-width:0.5" />
<path d="M134.24,32.263L134.24,36.263" style="fill:none;stroke:#000000;stroke-width:0.5" />
<path d="M190.67,32.263L190.67,36.263" style="fill:none;stroke:#000000;stroke-width:0.5" />
<path d="M247.1,32.263L247.1,36.263" style="fill:none;stroke:#000000;stroke-width:0.5" />
<path d="M303.53,32.263L303.53,36.263" style="fill:none;stroke:#000000;stroke-width:0.5" />
<path d="M416.4,32.263L416.4,36.263" style="fill:none;stroke:#000000;stroke-width:0.5" />
<path d="M472.83,32.263L472.83,36.263" style="fill:none;stroke:#000000;stroke-width:0.5" />
<path d="M529.26,32.263L529.26,36.263" style="fill:none;stroke:#000000;stroke-width:0.5" />
<path d="M585.69,32.263L585.69,36.263" style="fill:none;stroke:#000000;stroke-width:0.5" />
<path d="M698.56,32.263L698.56,36.263" style="fill:none;stroke:#000000;stroke-width:0.5" />
<path d="M77.805,36.263L720,36.263" style="fill:none;stroke:#000000;stroke-width:0.5" />
<g transform="rotate(90)">
<text x="152.55" y="11.555" transform="scale(1, -1)"
	style="font-family:Times;font-weight:normal;font-style:normal;font-size:12px">Number of trials (1000000 total)</text>
</g>
<text x="24.055" y="-114.57" transform="scale(1, -1)"
	style="font-family:Times;font-weight:normal;font-style:normal;font-size:10px">25000.00</text>
<text x="24.055" y="-259.83" transform="scale(1, -1)"
	style="font-family:Times;font-weight:normal;font-style:normal;font-size:10px">75000.00</text>
<text x="19.055" y="-405.1" transform="scale(1, -1)"
	style="font-family:Times;font-weight:normal;font-style:normal;font-size:10px">125000.00</text>
<path d="M64.055,117.78L72.055,117.78" style="fill:none;stroke:#000000;stroke-width:0.5" />
<path d="M64.055,263.04L72.055,263.04" style="fill:none;stroke:#000000;stroke-width:0.5" />
<path d="M64.055,408.3L72.055,408.3" style="fill:none;stroke:#000000;stroke-width:0.5" />
<path d="M68.055,59.675L72.055,59.675" style="fill:none;stroke:#000000;stroke-width:0.5" />
<path d="M68.055,88.727L72.055,88.727" style="fill:none;stroke:#000000;stroke-width:0.5" />
<path d="M68.055,146.83L72.055,146.83" style="fill:none;stroke:#000000;stroke-width:0.5" />
<path d="M68.055,175.88L72.055,175.88" style="fill:none;stroke:#000000;stroke-width:0.5" />
<path d="M68.055,204.94L72.055,204.94" style="fill:none;stroke:#000000;stroke-width:0.5" />
<path d="M68.055,233.99L72.055,233.99" style="fill:none;stroke:#000000;stroke-width:0.5" />
<path d="M68.055,292.09L72.055,292.09" style="fill:none;stroke:#000000;stroke-width:0.5" />
<path d="M68.055,321.14L72.055,321.14" style="fill:none;stroke:#000000;stroke-width:0.5" />
<path d="M68.055,350.2L72.055,350.2" style="fill:none;stroke:#000000;stroke-width:0.5" />
<path d="M68.055,379.25L72.055,379.25" style="fill:none;stroke:#000000;stroke-width:0.5" />
<path d="M72.055,45.151L72.055,416.58" style="fill:none;stroke:#000000;stroke-width:0.5" />
<path d="M77.805,416.58L102.63,52.127L103.76,66.975L107.15,48.545L108.28,84.552L109.41,77.954L112.79,63.018L113.92,108.96L115.05,58.614L116.18,84.616L117.31,131.6L118.44,52.17L119.56,48.911L120.69,59.39L121.82,48.437L122.95,69.788L124.08,62.867L125.21,63.62L126.34,95.208L127.46,87.28L128.59,63.21L131.98,55.468L133.11,56.79L134.24,69.076L135.37,83.46L137.62,88.099L138.75,69.398L139.88,55.776L141.01,50.564L142.14,55.848L143.27,67.01L144.39,57.684L145.52,52.85L146.65,55.767L147.78,62.263L148.91,72.524L150.04,50.604L151.17,53.46L152.29,61.598L153.42,73.989L154.55,56.113L155.68,60.166L156.81,62.132L157.94,59.314L159.07,59.044L160.2,75.258L161.32,63.966L162.45,65.331L163.58,67.004L164.71,68.126L165.84,68.742L166.97,63.178L168.1,74.543L169.22,81.339L170.35,58.542L171.48,62.129L172.61,60.744L173.74,71.359L174.87,66.9L176,60.366L177.12,65.247L178.25,60.569L179.38,57.621L180.51,57.83L181.64,57.336L182.77,61.633L183.9,63.335L185.03,61.258L186.15,60.851L187.28,60.712L188.41,60.122L189.54,55.738L190.67,56.078L191.8,60.898L192.93,59.733L194.05,57.711L195.18,60.279L196.31,59.738L197.44,59.628L198.57,61.455L199.7,64.05L200.83,59.698L201.95,56.996L203.08,59.462L204.21,61.304L205.34,61.142L206.47,58.783L207.6,61.554L208.73,64.398L209.86,59.372L210.98,58.234L212.11,56.586L213.24,58.727L214.37,58.835L215.5,56.961L216.63,58.08L217.76,61.275L218.88,58.239L220.01,57.539L221.14,55.968L222.27,56.877L223.4,56.952L224.53,57.048L225.66,57.807L226.78,56.403L227.91,56.066L229.04,57.388L230.17,55.851L231.3,55.97L232.43,54.779L233.56,55.36L234.69,55.95L235.81,55.314L236.94,54.047L238.07,54.384L239.2,54.878L240.33,55.015L241.46,53.315L242.59,53.765L243.71,54.927L244.84,55.02L245.97,53.725L247.1,53.655L248.23,54.434L249.36,53.928L250.49,53.486L251.62,54.245L252.74,53.556L253.87,53.745L255,53.318L256.13,53.542L257.26,53.608L258.39,52.969L259.52,53.655L260.64,52.237L261.77,52.359L262.9,52.106L264.03,52.33L265.16,52.629L266.29,52.284L267.42,51.976L268.54,51.99L269.67,51.427L270.8,51.316L271.93,51.063L273.06,50.773L274.19,51.389L275.32,51.435L276.45,50.939L277.57,50.712L278.7,50.529L279.83,50.808L280.96,50.151L282.09,50.195L283.22,50.233L284.35,50.34L285.47,50.035L286.6,49.986L287.73,49.939L288.86,49.922L289.99,49.962L291.12,49.715L292.25,49.599L293.37,49.442L294.5,49.756L295.63,49.684L296.76,49.111L297.89,49.254L299.02,49.193L300.15,49.158L301.28,48.957L302.4,48.841L303.53,48.556L304.66,48.783L305.79,48.8L306.92,48.565L308.05,48.832L309.18,48.611L310.3,48.53L311.43,48.123L312.56,48.184L313.69,48.176L314.82,48.295L315.95,48.213L317.08,48.019L318.2,48.019L319.33,47.699L320.46,47.781L321.59,47.612L322.72,47.647L323.85,47.406L324.98,47.734L326.11,47.821L327.23,47.574L328.36,47.47L329.49,47.261L330.62,47.263L331.75,47.223L332.88,47.17L334.01,47.165L335.13,47.211L336.26,47.293L337.39,47.092L338.52,47.002L339.65,46.88L340.78,46.95L341.91,46.976L343.03,46.77L344.16,46.851L345.29,46.868L346.42,46.691L347.55,46.717L348.68,46.746L349.81,46.674L350.94,46.528L352.06,46.584L353.19,46.488L354.32,46.47L355.45,46.566L356.58,46.43L357.71,46.517L358.84,46.424L359.96,46.334L361.09,46.261L362.22,46.284L363.35,46.267L364.48,46.284L365.61,46.223L366.74,46.191L367.86,46.171L368.99,46.191L370.12,46.055L371.25,46.014L372.38,45.988L373.51,46.003L374.64,45.921L375.77,46.055L376.89,46.029L378.02,45.913L379.15,45.82L380.28,45.907L381.41,45.918L382.54,45.825L383.67,45.878L384.79,45.883L385.92,45.883L387.05,45.863L388.18,45.741L389.31,45.759L390.44,45.77L391.57,45.753L392.69,45.735L393.82,45.671L394.95,45.619L396.08,45.654L397.21,45.692L398.34,45.613L399.47,45.663L400.6,45.57L401.72,45.593L402.85,45.578L403.98,45.576L405.11,45.576L406.24,45.552L407.37,45.529L408.5,45.503L409.62,45.538L410.75,45.544L411.88,45.512L413.01,45.5L414.14,45.494L415.27,45.459L416.4,45.407L417.52,45.436L418.65,45.445L419.78,45.474L420.91,45.445L422.04,45.459L423.17,45.39L424.3,45.384L425.43,45.43L426.55,45.43L427.68,45.384L428.81,45.378L429.94,45.352L431.07,45.363L432.2,45.355L433.33,45.294L434.45,45.366L435.58,45.395L436.71,45.273L437.84,45.329L438.97,45.276L440.1,45.334L441.23,45.349L442.35,45.323L443.48,45.297L444.61,45.291L445.74,45.273L446.87,45.305L448,45.297L449.13,45.27L450.26,45.256L451.38,45.262L452.51,45.282L453.64,45.27L454.77,45.288L455.9,45.262L457.03,45.247L458.16,45.23L459.28,45.239L460.41,45.244L461.54,45.244L462.67,45.224L463.8,45.262L464.93,45.209L466.06,45.233L467.18,45.215L468.31,45.244L469.44,45.198L470.57,45.247L471.7,45.212L472.83,45.212L473.96,45.209L475.09,45.212L476.21,45.178L477.34,45.221L478.47,45.221L479.6,45.195L480.73,45.198L481.86,45.195L482.99,45.195L484.11,45.195L485.24,45.201L486.37,45.189L487.5,45.207L488.63,45.189L489.76,45.178L490.89,45.192L492.02,45.195L493.14,45.18L494.27,45.18L495.4,45.172L496.53,45.18L497.66,45.183L498.79,45.178L499.92,45.178L501.04,45.189L502.17,45.189L503.3,45.192L504.43,45.178L505.56,45.175L506.69,45.175L507.82,45.178L508.94,45.175L510.07,45.172L511.2,45.163L512.33,45.169L513.46,45.157L514.59,45.169L515.72,45.169L516.85,45.169L517.97,45.157L519.1,45.169L520.23,45.154L521.36,45.166L522.49,45.169L523.62,45.175L524.75,45.169L525.87,45.163L527,45.169L528.13,45.157L529.26,45.154L530.39,45.172L531.52,45.16L532.65,45.163L533.77,45.16L534.9,45.154L536.03,45.16L537.16,45.157L538.29,45.151L539.42,45.16L540.55,45.157L541.68,45.157L542.8,45.166L543.93,45.157L545.06,45.16L546.19,45.157L548.45,45.154L549.58,45.154L550.7,45.154L551.83,45.16L552.96,45.151L554.09,45.157L555.22,45.16L556.35,45.157L557.48,45.16L558.6,45.154L559.73,45.151L560.86,45.157L561.99,45.154L563.12,45.154L564.25,45.151L565.38,45.151L566.51,45.157L567.63,45.151L568.76,45.151L569.89,45.154L571.02,45.151L572.15,45.157L573.28,45.151L574.41,45.151L576.66,45.154L580.05,45.151L583.43,45.151L585.69,45.157L589.08,45.154L590.21,45.151L595.85,45.151L596.98,45.151L600.36,45.154L603.75,45.151L604.88,45.151L607.14,45.154L638.74,45.151L651.15,45.151L720,45.151" style="fill:none;stroke:#0000FF" />
</g>
</svg>
