<?xml version="1.0"?>
<!-- Generated by SVGo and Plotinum VG -->
<svg width="720pt" height="432pt" viewBox="0 0 720 432"
	xmlns="http://www.w3.org/2000/svg"
	xmlns:xlink="http://www.w3.org/1999/xlink">
<g transform="scale(1, -1) translate(0, -432)">
<path d="M0,0L720,0L720,432L0,432Z" style="fill:#FFFFFF" />
<text x="358.5" y="-420.45" transform="scale(1, -1)"
	style="font-family:Times;font-weight:normal;font-style:normal;font-size:12px"> </text>
<text x="379.31" y="-3.8613" transform="scale(1, -1)"
	style="font-family:Times;font-weight:normal;font-style:normal;font-size:12px">Costs</text>
<text x="62.805" y="-18.634" transform="scale(1, -1)"
	style="font-family:Times;font-weight:normal;font-style:normal;font-size:10px">0</text>
<text x="368.82" y="-18.634" transform="scale(1, -1)"
	style="font-family:Times;font-weight:normal;font-style:normal;font-size:10px">200</text>
<text x="679.84" y="-18.634" transform="scale(1, -1)"
	style="font-family:Times;font-weight:normal;font-style:normal;font-size:10px">400</text>
<path d="M65.305,28.263L65.305,36.263" style="fill:none;stroke:#000000;stroke-width:0.5" />
<path d="M376.32,28.263L376.32,36.263" style="fill:none;stroke:#000000;stroke-width:0.5" />
<path d="M687.34,28.263L687.34,36.263" style="fill:none;stroke:#000000;stroke-width:0.5" />
<path d="M220.81,32.263L220.81,36.263" style="fill:none;stroke:#000000;stroke-width:0.5" />
<path d="M531.83,32.263L531.83,36.263" style="fill:none;stroke:#000000;stroke-width:0.5" />
<path d="M65.305,36.263L720,36.263" style="fill:none;stroke:#000000;stroke-width:0.5" />
<g transform="rotate(90)">
<text x="152.55" y="11.555" transform="scale(1, -1)"
	style="font-family:Times;font-weight:normal;font-style:normal;font-size:12px">Number of trials (1000000 total)</text>
</g>
<text x="24.055" y="-92.148" transform="scale(1, -1)"
	style="font-family:Times;font-weight:normal;font-style:normal;font-size:10px">40000</text>
<text x="19.055" y="-242.76" transform="scale(1, -1)"
	style="font-family:Times;font-weight:normal;font-style:normal;font-size:10px">160000</text>
<text x="19.055" y="-393.37" transform="scale(1, -1)"
	style="font-family:Times;font-weight:normal;font-style:normal;font-size:10px">280000</text>
<path d="M51.555,95.354L59.555,95.354" style="fill:none;stroke:#000000;stroke-width:0.5" />
<path d="M51.555,245.97L59.555,245.97" style="fill:none;stroke:#000000;stroke-width:0.5" />
<path d="M51.555,396.58L59.555,396.58" style="fill:none;stroke:#000000;stroke-width:0.5" />
<path d="M55.555,170.66L59.555,170.66" style="fill:none;stroke:#000000;stroke-width:0.5" />
<path d="M55.555,321.27L59.555,321.27" style="fill:none;stroke:#000000;stroke-width:0.5" />
<path d="M59.555,45.151L59.555,416.58" style="fill:none;stroke:#000000;stroke-width:0.5" />
<path d="M65.305,416.58L102.63,48.598L107.29,48.553L108.85,59.34L111.96,48.469L113.51,52.077L116.62,52.342L118.18,62.847L119.73,62.788L121.29,52.103L124.4,48.608L125.95,69.249L127.51,66.204L129.06,55.896L130.62,55.375L132.17,66.276L133.73,59.323L135.28,69.928L136.84,55.663L139.95,48.52L141.5,58.679L143.06,63.196L144.61,55.896L146.17,45.272L147.72,112.3L149.28,48.58L150.83,52.388L152.39,63.247L153.95,55.65L155.5,45.489L157.06,52.912L158.61,45.287L160.17,66.778L161.72,60.402L163.28,46.253L164.83,45.942L166.39,45.785L167.94,45.976L169.5,64.721L171.05,46.811L172.61,47.19L174.16,46.827L175.72,57.706L177.27,46.827L178.83,55.384L180.38,48.638L181.94,47.63L183.49,47.91L185.05,59.348L186.6,48.903L188.16,49.731L189.71,49.425L191.27,50.802L192.82,48.2L194.38,50.113L195.93,52.308L197.49,50.388L199.04,49.756L200.6,51.498L202.15,52.069L203.71,52.053L205.26,49.99L206.82,50.176L208.37,52.869L209.93,52.152L211.48,51.117L213.04,53.065L214.59,53.827L216.15,51.019L217.7,52.725L219.26,50.621L220.81,49.626L222.37,52.073L223.92,52.156L225.48,50.358L227.03,50.276L228.59,49.603L230.14,55.275L231.7,50.659L233.26,48.883L234.81,49.938L236.37,50.482L237.92,49.381L239.48,51.045L241.03,48.054L242.59,50.374L244.14,49.652L245.7,49.061L247.25,48.987L248.81,48.689L250.36,47.239L251.92,50.779L253.47,47.526L255.03,48.369L256.58,48.539L258.14,49.312L259.69,46.612L261.25,48.821L262.8,47.885L264.36,48.334L265.91,47.887L267.47,49.102L269.02,46.939L270.58,47.898L272.13,47.918L273.69,47.889L275.24,47.359L276.8,47.324L278.35,47.285L279.91,48.427L281.46,47.457L283.02,47.611L284.57,47.433L286.13,47.231L287.68,47.003L289.24,47.97L290.79,47.388L292.35,47.29L293.9,47.078L295.46,47.596L297.01,47.35L298.57,47.447L300.12,47.345L301.68,47.103L303.23,46.892L304.79,47.195L306.34,47.111L307.9,46.988L309.45,46.866L311.01,46.902L312.56,47.059L314.12,46.871L315.68,46.715L317.23,46.794L318.79,46.922L320.34,46.627L321.9,46.774L323.45,46.566L325.01,46.519L326.56,46.592L328.12,46.532L329.67,46.292L331.23,46.334L332.78,46.321L334.34,46.516L335.89,46.214L337.45,46.183L339,46.181L340.56,46.213L342.11,46.133L343.67,46.213L345.22,46.091L346.78,46.134L348.33,46.006L349.89,46.164L351.44,45.976L353,45.942L354.55,45.904L356.11,45.973L357.66,45.874L359.22,45.955L360.77,45.815L362.33,45.882L363.88,45.779L365.44,45.881L366.99,45.822L368.55,45.789L370.1,45.681L371.66,45.829L373.21,45.69L374.77,45.813L376.32,45.676L377.88,45.769L379.43,45.684L380.99,45.751L382.54,45.647L384.1,45.667L385.65,45.632L387.21,45.65L388.76,45.566L390.32,45.603L391.87,45.613L393.43,45.577L394.98,45.567L396.54,45.523L398.1,45.529L399.65,45.517L401.21,45.52L402.76,45.5L404.32,45.486L405.87,45.479L407.43,45.476L408.98,45.476L410.54,45.466L412.09,45.459L413.65,45.45L415.2,45.44L416.76,45.445L418.31,45.422L419.87,45.399L421.42,45.415L422.98,45.392L424.53,45.415L426.09,45.381L427.64,45.365L429.2,45.35L430.75,45.37L432.31,45.358L433.86,45.338L435.42,45.307L436.97,45.347L438.53,45.327L440.08,45.312L441.64,45.315L443.19,45.284L444.75,45.304L446.3,45.304L447.86,45.306L449.41,45.272L450.97,45.284L452.52,45.283L454.08,45.277L455.63,45.261L457.19,45.271L458.74,45.257L460.3,45.264L461.85,45.264L463.41,45.272L464.96,45.249L466.52,45.245L468.07,45.228L469.63,45.257L471.18,45.237L472.74,45.242L474.29,45.21L475.85,45.243L477.41,45.23L478.96,45.212L480.52,45.223L482.07,45.22L483.63,45.234L485.18,45.212L486.74,45.22L488.29,45.207L489.85,45.213L491.4,45.197L492.96,45.215L494.51,45.213L496.07,45.199L497.62,45.2L499.18,45.19L500.73,45.22L502.29,45.199L503.84,45.193L505.4,45.188L506.95,45.2L508.51,45.192L510.06,45.2L511.62,45.199L513.17,45.187L514.73,45.198L516.28,45.188L517.84,45.193L519.39,45.169L520.95,45.173L522.5,45.171L524.06,45.175L525.61,45.192L527.17,45.181L528.72,45.175L530.28,45.176L531.83,45.174L533.39,45.17L534.94,45.174L536.5,45.164L538.05,45.164L539.61,45.166L541.16,45.163L542.72,45.169L544.27,45.163L545.83,45.174L547.38,45.168L548.94,45.17L550.49,45.164L552.05,45.16L553.6,45.16L555.16,45.171L556.71,45.169L558.27,45.163L559.83,45.163L561.38,45.161L562.94,45.161L564.49,45.165L566.05,45.161L567.6,45.156L569.16,45.164L570.71,45.155L572.27,45.155L573.82,45.158L575.38,45.155L576.93,45.158L578.49,45.163L580.04,45.161L581.6,45.158L583.15,45.158L584.71,45.151L586.26,45.151L587.82,45.154L589.37,45.156L590.93,45.16L592.48,45.161L594.04,45.159L595.59,45.155L597.15,45.154L598.7,45.154L600.26,45.155L601.81,45.153L603.37,45.151L604.92,45.158L606.48,45.153L608.03,45.153L609.59,45.151L611.14,45.151L612.7,45.154L614.25,45.153L615.81,45.151L617.36,45.154L620.47,45.151L622.03,45.154L623.58,45.154L625.14,45.151L626.69,45.151L631.36,45.153L632.91,45.154L634.47,45.155L636.02,45.151L637.58,45.156L639.14,45.151L640.69,45.151L642.25,45.153L646.91,45.153L650.02,45.151L653.13,45.153L654.69,45.153L656.24,45.151L657.8,45.153L664.02,45.151L667.13,45.151L673.35,45.153L679.57,45.153L682.68,45.151L687.34,45.151L695.12,45.151L698.23,45.153L701.34,45.151L706,45.151L720,45.151" style="fill:none;stroke:#0000FF" />
</g>
</svg>
