<?xml version="1.0"?>
<!-- Generated by SVGo and Plotinum VG -->
<svg width="720pt" height="432pt" viewBox="0 0 720 432"
	xmlns="http://www.w3.org/2000/svg"
	xmlns:xlink="http://www.w3.org/1999/xlink">
<g transform="scale(1, -1) translate(0, -432)">
<path d="M0,0L720,0L720,432L0,432Z" style="fill:#FFFFFF" />
<text x="358.5" y="-420.45" transform="scale(1, -1)"
	style="font-family:Times;font-weight:normal;font-style:normal;font-size:12px"> </text>
<text x="376.81" y="-3.8613" transform="scale(1, -1)"
	style="font-family:Times;font-weight:normal;font-style:normal;font-size:12px">Costs</text>
<text x="51.555" y="-18.634" transform="scale(1, -1)"
	style="font-family:Times;font-weight:normal;font-style:normal;font-size:10px">0.00</text>
<text x="334.88" y="-18.634" transform="scale(1, -1)"
	style="font-family:Times;font-weight:normal;font-style:normal;font-size:10px">250.00</text>
<text x="623.21" y="-18.634" transform="scale(1, -1)"
	style="font-family:Times;font-weight:normal;font-style:normal;font-size:10px">500.00</text>
<path d="M60.305,28.263L60.305,36.263" style="fill:none;stroke:#000000;stroke-width:0.5" />
<path d="M348.63,28.263L348.63,36.263" style="fill:none;stroke:#000000;stroke-width:0.5" />
<path d="M636.96,28.263L636.96,36.263" style="fill:none;stroke:#000000;stroke-width:0.5" />
<path d="M117.97,32.263L117.97,36.263" style="fill:none;stroke:#000000;stroke-width:0.5" />
<path d="M175.64,32.263L175.64,36.263" style="fill:none;stroke:#000000;stroke-width:0.5" />
<path d="M233.3,32.263L233.3,36.263" style="fill:none;stroke:#000000;stroke-width:0.5" />
<path d="M290.97,32.263L290.97,36.263" style="fill:none;stroke:#000000;stroke-width:0.5" />
<path d="M406.3,32.263L406.3,36.263" style="fill:none;stroke:#000000;stroke-width:0.5" />
<path d="M463.96,32.263L463.96,36.263" style="fill:none;stroke:#000000;stroke-width:0.5" />
<path d="M521.63,32.263L521.63,36.263" style="fill:none;stroke:#000000;stroke-width:0.5" />
<path d="M579.3,32.263L579.3,36.263" style="fill:none;stroke:#000000;stroke-width:0.5" />
<path d="M694.63,32.263L694.63,36.263" style="fill:none;stroke:#000000;stroke-width:0.5" />
<path d="M60.305,36.263L720,36.263" style="fill:none;stroke:#000000;stroke-width:0.5" />
<g transform="rotate(90)">
<text x="152.55" y="11.555" transform="scale(1, -1)"
	style="font-family:Times;font-weight:normal;font-style:normal;font-size:12px">Number of trials (1000000 total)</text>
</g>
<text x="19.055" y="-87.379" transform="scale(1, -1)"
	style="font-family:Times;font-weight:normal;font-style:normal;font-size:10px">10000</text>
<text x="19.055" y="-223.69" transform="scale(1, -1)"
	style="font-family:Times;font-weight:normal;font-style:normal;font-size:10px">40000</text>
<text x="19.055" y="-360.01" transform="scale(1, -1)"
	style="font-family:Times;font-weight:normal;font-style:normal;font-size:10px">70000</text>
<path d="M46.555,90.585L54.555,90.585" style="fill:none;stroke:#000000;stroke-width:0.5" />
<path d="M46.555,226.9L54.555,226.9" style="fill:none;stroke:#000000;stroke-width:0.5" />
<path d="M46.555,363.21L54.555,363.21" style="fill:none;stroke:#000000;stroke-width:0.5" />
<path d="M50.555,136.02L54.555,136.02" style="fill:none;stroke:#000000;stroke-width:0.5" />
<path d="M50.555,181.46L54.555,181.46" style="fill:none;stroke:#000000;stroke-width:0.5" />
<path d="M50.555,272.34L54.555,272.34" style="fill:none;stroke:#000000;stroke-width:0.5" />
<path d="M50.555,317.77L54.555,317.77" style="fill:none;stroke:#000000;stroke-width:0.5" />
<path d="M50.555,408.65L54.555,408.65" style="fill:none;stroke:#000000;stroke-width:0.5" />
<path d="M54.555,45.151L54.555,416.58" style="fill:none;stroke:#000000;stroke-width:0.5" />
<path d="M60.305,416.58L85.678,48.736L86.831,51.667L90.291,62.313L91.444,62.354L92.597,59.901L94.904,55.57L96.057,117.62L97.211,60.405L98.364,93.874L99.517,93.516L100.67,48.546L101.82,70.079L104.13,66.316L106.44,67.62L107.59,94.888L108.74,69.12L109.9,73.246L111.05,96.115L112.2,72.255L113.36,77.117L115.66,68.743L116.82,55.97L117.97,110.74L119.12,63.308L120.28,45.265L121.43,104.03L122.58,88.177L123.74,46.455L124.89,57.311L126.04,83.951L127.2,87.55L128.35,51.122L129.5,57.179L130.66,66.88L131.81,79.97L132.96,62.245L134.12,58.596L135.27,58.537L136.42,53.048L137.58,60.755L138.73,54.275L139.88,57.524L141.04,54.589L142.19,69.652L143.34,63.854L144.5,84.328L145.65,80.093L146.8,68.697L147.96,68.243L149.11,74.568L150.26,63.363L151.42,65.721L152.57,65.276L153.72,97.814L154.88,66.126L156.03,65.817L157.18,83.133L158.34,72.632L159.49,71.714L160.64,73.714L161.8,73.427L162.95,73.055L164.1,68.756L165.26,75.477L166.41,69.611L167.56,69.17L168.72,78.485L169.87,72.264L171.02,70.042L172.18,67.684L173.33,71.378L174.48,70.324L175.64,66.348L176.79,67.798L177.94,68.984L179.1,74.073L180.25,76.89L181.4,66.507L182.56,69.72L183.71,77.449L184.86,70.142L186.02,62.99L187.17,64.144L188.32,71.846L189.48,71.351L190.63,63.49L191.78,69.756L192.94,75.618L194.09,65.489L195.24,68.179L196.4,66.562L197.55,68.002L198.7,64.976L199.86,66.707L201.01,67.148L202.16,67.339L203.32,67.734L204.47,68.879L205.62,67.311L206.78,70.556L207.93,64.876L209.08,66.862L210.24,66.948L211.39,70.969L212.54,65.953L213.7,63.358L214.85,70.251L216,70.092L217.16,64.19L218.31,66.212L219.46,67.552L220.62,65.648L221.77,63.317L222.92,64.017L224.08,64.849L225.23,64.681L226.38,65.38L227.54,65.212L228.69,62.822L229.84,63.922L231,64.344L232.15,63.636L233.3,63.208L234.46,62.554L235.61,63.976L236.76,62.922L237.91,63.74L239.07,63.976L240.22,62.559L241.37,62.668L242.53,62.245L243.68,61.127L244.83,61.391L245.99,62.359L247.14,61.541L248.29,60.423L249.45,60.668L250.6,63.499L251.75,60.278L252.91,60.178L254.06,60.864L255.21,60.559L256.37,59.741L257.52,59.969L258.67,60.328L259.83,59.664L260.98,59.419L262.13,59.851L263.29,59.155L264.44,59.373L265.59,58.755L266.75,58.337L267.9,58.565L269.05,58.156L270.21,57.579L271.36,57.438L272.51,57.819L273.67,57.81L274.82,56.911L275.97,56.893L277.13,58.069L278.28,56.824L279.43,55.752L280.59,56.184L281.74,56.924L282.89,56.034L284.05,55.679L285.2,56.111L286.35,55.934L287.51,55.702L288.66,55.902L289.81,55.425L290.97,55.152L292.12,55.025L293.27,54.684L294.43,54.284L295.58,54.212L296.73,54.298L297.89,54.039L299.04,54.071L300.19,54.371L301.35,53.935L302.5,53.748L303.65,53.462L304.81,53.853L305.96,53.339L307.11,53.43L308.27,53.494L309.42,52.871L310.57,52.499L311.73,52.912L312.88,52.712L314.03,52.521L315.19,52.558L316.34,52.417L317.49,51.976L318.65,51.917L319.8,51.84L320.95,51.767L322.11,51.522L323.26,51.413L324.41,51.276L325.57,51.49L326.72,50.958L327.87,51.199L329.03,50.986L330.18,50.722L331.33,50.718L332.49,50.758L333.64,50.431L334.79,50.245L335.95,50.386L337.1,50.122L338.25,50.345L339.41,50.331L340.56,49.795L341.71,49.4L342.87,49.668L344.02,49.659L345.17,49.532L346.33,49.318L347.48,49.781L348.63,49.136L349.79,49.291L350.94,49.241L352.09,48.832L353.25,48.968L354.4,49.136L355.55,48.855L356.71,48.696L357.86,48.705L359.01,48.646L360.17,48.777L361.32,48.514L362.47,48.541L363.63,48.5L364.78,48.218L365.93,48.264L367.09,48.377L368.24,48.268L369.39,48.087L370.55,48L371.7,48.059L372.85,47.755L374.01,47.878L375.16,47.723L376.31,47.846L377.47,47.809L378.62,47.364L379.77,47.301L380.93,47.41L382.08,47.323L383.23,47.591L384.39,47.401L385.54,47.478L386.69,47.496L387.85,47.205L389,47.223L390.15,47.023L391.31,46.901L392.46,47.069L393.61,47.087L394.77,46.96L395.92,47.028L397.07,46.942L398.23,46.955L399.38,46.783L400.53,46.76L401.69,46.728L402.84,46.628L403.99,46.61L405.15,46.587L406.3,46.628L407.45,46.537L408.61,46.419L409.76,46.428L410.91,46.351L412.07,46.528L413.22,46.378L414.37,46.31L415.53,46.228L416.68,46.387L417.83,46.337L418.99,46.405L420.14,46.124L421.29,46.319L422.45,46.183L423.6,46.178L424.75,46.151L425.91,46.156L427.06,46.069L428.21,46.137L429.37,46.06L430.52,46.115L431.67,46.119L432.82,45.942L433.98,46.006L435.13,45.983L436.28,45.878L437.44,45.942L438.59,45.824L439.74,45.815L440.9,45.778L442.05,45.81L443.2,45.683L444.36,45.783L445.51,45.724L446.66,45.81L447.82,45.665L448.97,45.706L450.12,45.738L451.28,45.738L452.43,45.656L453.58,45.669L454.74,45.628L455.89,45.628L457.04,45.569L458.2,45.578L459.35,45.578L460.5,45.506L461.66,45.647L462.81,45.588L463.96,45.588L465.12,45.574L466.27,45.619L467.42,45.583L468.58,45.442L469.73,45.556L470.88,45.497L472.04,45.524L473.19,45.488L474.34,45.46L475.5,45.501L476.65,45.41L477.8,45.501L478.96,45.41L480.11,45.488L481.26,45.433L482.42,45.31L483.57,45.365L484.72,45.451L485.88,45.401L487.03,45.451L488.18,45.388L489.34,45.342L490.49,45.347L491.64,45.306L492.8,45.292L493.95,45.342L495.1,45.301L496.26,45.297L497.41,45.292L498.56,45.319L499.72,45.333L500.87,45.324L502.02,45.301L503.18,45.324L504.33,45.329L505.48,45.319L506.64,45.301L507.79,45.306L508.94,45.292L510.1,45.283L511.25,45.306L512.4,45.301L513.56,45.265L514.71,45.274L515.86,45.274L517.02,45.251L518.17,45.265L519.32,45.238L520.48,45.26L521.63,45.233L522.78,45.229L523.94,45.251L525.09,45.201L526.24,45.206L527.4,45.21L528.55,45.215L529.7,45.26L530.86,45.22L532.01,45.233L533.16,45.215L534.32,45.215L535.47,45.197L536.62,45.242L537.78,45.192L538.93,45.206L540.08,45.224L541.24,45.201L542.39,45.215L543.54,45.233L544.7,45.192L545.85,45.192L547,45.229L548.16,45.197L549.31,45.201L550.46,45.17L551.62,45.183L552.77,45.206L553.92,45.197L555.08,45.192L556.23,45.229L557.38,45.197L558.54,45.183L559.69,45.183L560.84,45.17L562,45.188L563.15,45.188L564.3,45.17L565.46,45.188L566.61,45.16L567.76,45.17L568.92,45.17L570.07,45.179L571.22,45.174L572.38,45.197L573.53,45.165L574.68,45.192L575.84,45.151L576.99,45.179L578.14,45.16L579.3,45.165L580.45,45.17L581.6,45.174L582.76,45.16L583.91,45.16L585.06,45.165L586.22,45.16L587.37,45.17L588.52,45.156L589.68,45.156L590.83,45.17L591.98,45.165L593.14,45.165L594.29,45.165L595.44,45.179L596.6,45.151L597.75,45.156L600.06,45.151L601.21,45.151L602.36,45.16L603.52,45.16L605.82,45.16L606.98,45.151L609.28,45.156L610.44,45.156L611.59,45.156L613.9,45.156L616.2,45.16L617.36,45.151L618.51,45.16L619.66,45.151L620.82,45.16L621.97,45.16L623.12,45.156L624.27,45.156L625.43,45.16L626.58,45.16L627.73,45.16L628.89,45.156L630.04,45.151L631.19,45.156L633.5,45.156L635.81,45.151L636.96,45.16L638.11,45.151L639.27,45.151L641.57,45.151L646.19,45.16L647.34,45.151L649.65,45.16L651.95,45.156L653.11,45.151L655.41,45.151L656.57,45.151L657.72,45.156L658.87,45.151L662.33,45.151L669.25,45.151L670.41,45.151L673.87,45.151L675.02,45.16L685.4,45.151L700.39,45.151L701.55,45.151L720,45.151" style="fill:none;stroke:#0000FF" />
</g>
</svg>
