<?xml version="1.0"?>
<!-- Generated by SVGo and Plotinum VG -->
<svg width="720pt" height="432pt" viewBox="0 0 720 432"
	xmlns="http://www.w3.org/2000/svg"
	xmlns:xlink="http://www.w3.org/1999/xlink">
<g transform="scale(1, -1) translate(0, -432)">
<path d="M0,0L720,0L720,432L0,432Z" style="fill:#FFFFFF" />
<text x="358.5" y="-420.45" transform="scale(1, -1)"
	style="font-family:Times;font-weight:normal;font-style:normal;font-size:12px"> </text>
<text x="379.31" y="-3.8613" transform="scale(1, -1)"
	style="font-family:Times;font-weight:normal;font-style:normal;font-size:12px">Costs</text>
<text x="62.805" y="-18.634" transform="scale(1, -1)"
	style="font-family:Times;font-weight:normal;font-style:normal;font-size:10px">0</text>
<text x="360.9" y="-18.634" transform="scale(1, -1)"
	style="font-family:Times;font-weight:normal;font-style:normal;font-size:10px">200</text>
<text x="664" y="-18.634" transform="scale(1, -1)"
	style="font-family:Times;font-weight:normal;font-style:normal;font-size:10px">400</text>
<path d="M65.305,28.263L65.305,36.263" style="fill:none;stroke:#000000;stroke-width:0.5" />
<path d="M368.4,28.263L368.4,36.263" style="fill:none;stroke:#000000;stroke-width:0.5" />
<path d="M671.5,28.263L671.5,36.263" style="fill:none;stroke:#000000;stroke-width:0.5" />
<path d="M216.85,32.263L216.85,36.263" style="fill:none;stroke:#000000;stroke-width:0.5" />
<path d="M519.95,32.263L519.95,36.263" style="fill:none;stroke:#000000;stroke-width:0.5" />
<path d="M65.305,36.263L720,36.263" style="fill:none;stroke:#000000;stroke-width:0.5" />
<g transform="rotate(90)">
<text x="152.55" y="11.555" transform="scale(1, -1)"
	style="font-family:Times;font-weight:normal;font-style:normal;font-size:12px">Number of trials (1000000 total)</text>
</g>
<text x="24.055" y="-114.41" transform="scale(1, -1)"
	style="font-family:Times;font-weight:normal;font-style:normal;font-size:10px">40000</text>
<text x="19.055" y="-259.35" transform="scale(1, -1)"
	style="font-family:Times;font-weight:normal;font-style:normal;font-size:10px">120000</text>
<text x="19.055" y="-404.28" transform="scale(1, -1)"
	style="font-family:Times;font-weight:normal;font-style:normal;font-size:10px">200000</text>
<path d="M51.555,117.62L59.555,117.62" style="fill:none;stroke:#000000;stroke-width:0.5" />
<path d="M51.555,262.55L59.555,262.55" style="fill:none;stroke:#000000;stroke-width:0.5" />
<path d="M51.555,407.49L59.555,407.49" style="fill:none;stroke:#000000;stroke-width:0.5" />
<path d="M55.555,190.08L59.555,190.08" style="fill:none;stroke:#000000;stroke-width:0.5" />
<path d="M55.555,335.02L59.555,335.02" style="fill:none;stroke:#000000;stroke-width:0.5" />
<path d="M59.555,45.151L59.555,416.58" style="fill:none;stroke:#000000;stroke-width:0.5" />
<path d="M65.305,416.58L98.646,59.603L106.22,52.121L109.25,94.284L110.77,67.145L112.29,86.354L115.32,52.105L118.35,72.12L119.86,71.743L122.89,59.371L125.92,59.154L127.44,85.059L128.96,59.331L130.47,74.231L131.99,74.848L133.5,82.191L139.56,75.262L141.08,82.202L142.6,47.075L144.11,46.019L145.63,90.358L147.14,74.01L148.66,45.448L150.17,60.071L151.69,68.81L153.2,48.541L154.72,51.079L156.23,54.183L157.75,74.511L159.27,81.229L160.78,47.628L162.3,49.565L163.81,51.315L165.33,50.644L166.84,51.3L168.36,47.3L169.87,49.123L171.39,51.653L172.91,54.581L174.42,56.085L175.94,53.077L177.45,56.608L178.97,53.404L180.48,55.706L182,50.191L183.51,53.835L185.03,58.152L186.54,56.398L188.06,55.369L189.58,54.155L191.09,57.438L192.61,59.478L194.12,60.625L195.64,57.987L197.15,53.623L198.67,56.686L200.18,56.59L201.7,56.485L203.22,59.739L204.73,57.757L206.25,57.82L207.76,59.188L209.28,56.204L210.79,53.099L212.31,58.074L213.82,58.257L215.34,55.012L216.85,50.764L218.37,51.451L219.89,57.192L221.4,58.166L222.92,53.764L224.43,53.05L225.95,56.436L227.46,56.416L228.98,48.228L230.49,49.943L232.01,53.864L233.53,54.57L235.04,51.594L236.56,49.865L238.07,52.503L239.59,55.003L241.1,51.788L242.62,49.958L244.13,51.422L245.65,51.103L247.16,49.947L248.68,50.403L250.2,49.76L251.71,52.115L253.23,50.132L254.74,49.896L256.26,50.072L257.77,50.137L259.29,50.51L260.8,50.411L262.32,49.936L263.83,49.516L265.35,50.32L266.87,50.722L268.38,50.61L269.9,50.258L271.41,50.338L272.93,50.275L274.44,50.22L275.96,49.889L277.47,50.059L278.99,49.782L280.51,50.008L282.02,49.606L283.54,49.641L285.05,49.865L286.57,49.856L288.08,50.315L289.6,49.604L291.11,48.597L292.63,48.927L294.14,49.066L295.66,49.09L297.18,48.537L298.69,48.49L300.21,48.766L301.72,49.03L303.24,48.15L304.75,47.891L306.27,48.469L307.78,48.467L309.3,47.68L310.82,47.135L312.33,47.824L313.85,48.086L315.36,47.53L316.88,47.445L318.39,47.15L319.91,47.757L321.42,47.374L322.94,46.945L324.45,47.153L325.97,47.342L327.49,47.213L329,46.898L330.52,46.974L332.03,47.186L333.55,47.101L335.06,46.876L336.58,46.943L338.09,46.807L339.61,46.747L341.13,46.802L342.64,46.757L344.16,46.65L345.67,46.646L347.19,46.684L348.7,46.708L350.22,46.586L351.73,46.601L353.25,46.543L354.76,46.541L356.28,46.458L357.8,46.434L359.31,46.371L360.83,46.476L362.34,46.307L363.86,46.347L365.37,46.224L366.89,46.255L368.4,46.218L369.92,46.238L371.44,46.153L372.95,46.092L374.47,46.13L375.98,45.985L377.5,46.021L379.01,45.972L380.53,45.983L382.04,46.028L383.56,45.912L385.07,45.849L386.59,45.787L388.11,45.849L389.62,45.827L391.14,45.715L392.65,45.7L394.17,45.831L395.68,45.717L397.2,45.65L398.71,45.622L400.23,45.673L401.75,45.63L403.26,45.601L404.78,45.664L406.29,45.597L407.81,45.566L409.32,45.593L410.84,45.508L412.35,45.539L413.87,45.572L415.38,45.545L416.9,45.508L418.42,45.552L419.93,45.555L421.45,45.488L422.96,45.497L424.48,45.483L425.99,45.45L427.51,45.45L429.02,45.474L430.54,45.463L432.06,45.405L433.57,45.454L435.09,45.412L436.6,45.436L438.12,45.389L439.63,45.41L441.15,45.362L442.66,45.387L444.18,45.333L445.69,45.371L447.21,45.363L448.73,45.36L450.24,45.316L451.76,45.325L453.27,45.327L454.79,45.325L456.3,45.323L457.82,45.309L459.33,45.318L460.85,45.282L462.37,45.278L463.88,45.287L465.4,45.249L466.91,45.269L468.43,45.244L469.94,45.276L471.46,45.256L472.97,45.244L474.49,45.247L476,45.244L477.52,45.242L479.04,45.251L480.55,45.229L482.07,45.24L483.58,45.218L485.1,45.206L486.61,45.224L488.13,45.229L489.64,45.213L491.16,45.233L492.68,45.222L494.19,45.217L495.71,45.22L497.22,45.213L498.74,45.213L500.25,45.202L501.77,45.197L503.28,45.18L504.8,45.202L506.31,45.193L507.83,45.193L509.35,45.197L510.86,45.189L512.38,45.18L513.89,45.171L515.41,45.206L516.92,45.182L518.44,45.189L519.95,45.179L521.47,45.173L522.99,45.171L524.5,45.18L526.02,45.179L527.53,45.179L529.05,45.188L530.56,45.175L532.08,45.16L533.59,45.186L535.11,45.188L536.62,45.173L538.14,45.169L539.66,45.166L541.17,45.166L542.69,45.168L544.2,45.16L545.72,45.168L547.23,45.164L548.75,45.164L550.26,45.162L551.78,45.16L553.3,45.155L554.81,45.16L556.33,45.157L557.84,45.16L559.36,45.16L560.87,45.159L562.39,45.157L563.9,45.16L565.42,45.155L566.93,45.157L568.45,45.155L569.97,45.162L571.48,45.155L573,45.162L574.51,45.16L576.03,45.153L579.06,45.153L580.57,45.153L582.09,45.155L585.12,45.151L586.64,45.155L588.15,45.153L591.18,45.151L592.7,45.155L594.21,45.155L595.73,45.157L597.24,45.153L598.76,45.151L600.28,45.157L601.79,45.153L603.31,45.151L604.82,45.151L609.37,45.157L610.88,45.151L613.92,45.155L616.95,45.153L618.46,45.153L619.98,45.155L623.01,45.151L624.52,45.155L627.55,45.151L629.07,45.151L630.59,45.151L636.65,45.153L638.16,45.151L644.23,45.151L647.26,45.151L648.77,45.151L653.32,45.151L677.57,45.151L683.63,45.151L688.17,45.153L720,45.153" style="fill:none;stroke:#0000FF" />
</g>
</svg>
