<?xml version="1.0"?>
<!-- Generated by SVGo and Plotinum VG -->
<svg width="720pt" height="432pt" viewBox="0 0 720 432"
	xmlns="http://www.w3.org/2000/svg"
	xmlns:xlink="http://www.w3.org/1999/xlink">
<g transform="scale(1, -1) translate(0, -432)">
<path d="M0,0L720,0L720,432L0,432Z" style="fill:#FFFFFF" />
<text x="358.5" y="-420.45" transform="scale(1, -1)"
	style="font-family:Times;font-weight:normal;font-style:normal;font-size:12px"> </text>
<text x="379.31" y="-3.8613" transform="scale(1, -1)"
	style="font-family:Times;font-weight:normal;font-style:normal;font-size:12px">Costs</text>
<text x="56.555" y="-18.634" transform="scale(1, -1)"
	style="font-family:Times;font-weight:normal;font-style:normal;font-size:10px">0.00</text>
<text x="362.13" y="-18.634" transform="scale(1, -1)"
	style="font-family:Times;font-weight:normal;font-style:normal;font-size:10px">250.00</text>
<text x="672.71" y="-18.634" transform="scale(1, -1)"
	style="font-family:Times;font-weight:normal;font-style:normal;font-size:10px">500.00</text>
<path d="M65.305,28.263L65.305,36.263" style="fill:none;stroke:#000000;stroke-width:0.5" />
<path d="M375.88,28.263L375.88,36.263" style="fill:none;stroke:#000000;stroke-width:0.5" />
<path d="M686.46,28.263L686.46,36.263" style="fill:none;stroke:#000000;stroke-width:0.5" />
<path d="M127.42,32.263L127.42,36.263" style="fill:none;stroke:#000000;stroke-width:0.5" />
<path d="M189.54,32.263L189.54,36.263" style="fill:none;stroke:#000000;stroke-width:0.5" />
<path d="M251.65,32.263L251.65,36.263" style="fill:none;stroke:#000000;stroke-width:0.5" />
<path d="M313.77,32.263L313.77,36.263" style="fill:none;stroke:#000000;stroke-width:0.5" />
<path d="M438,32.263L438,36.263" style="fill:none;stroke:#000000;stroke-width:0.5" />
<path d="M500.11,32.263L500.11,36.263" style="fill:none;stroke:#000000;stroke-width:0.5" />
<path d="M562.23,32.263L562.23,36.263" style="fill:none;stroke:#000000;stroke-width:0.5" />
<path d="M624.34,32.263L624.34,36.263" style="fill:none;stroke:#000000;stroke-width:0.5" />
<path d="M65.305,36.263L720,36.263" style="fill:none;stroke:#000000;stroke-width:0.5" />
<g transform="rotate(90)">
<text x="152.55" y="11.555" transform="scale(1, -1)"
	style="font-family:Times;font-weight:normal;font-style:normal;font-size:12px">Number of trials (1000000 total)</text>
</g>
<text x="24.055" y="-93.084" transform="scale(1, -1)"
	style="font-family:Times;font-weight:normal;font-style:normal;font-size:10px">50000</text>
<text x="19.055" y="-246.5" transform="scale(1, -1)"
	style="font-family:Times;font-weight:normal;font-style:normal;font-size:10px">200000</text>
<text x="19.055" y="-399.92" transform="scale(1, -1)"
	style="font-family:Times;font-weight:normal;font-style:normal;font-size:10px">350000</text>
<path d="M51.555,96.289L59.555,96.289" style="fill:none;stroke:#000000;stroke-width:0.5" />
<path d="M51.555,249.71L59.555,249.71" style="fill:none;stroke:#000000;stroke-width:0.5" />
<path d="M51.555,403.12L59.555,403.12" style="fill:none;stroke:#000000;stroke-width:0.5" />
<path d="M55.555,173L59.555,173" style="fill:none;stroke:#000000;stroke-width:0.5" />
<path d="M55.555,326.41L59.555,326.41" style="fill:none;stroke:#000000;stroke-width:0.5" />
<path d="M59.555,45.151L59.555,416.58" style="fill:none;stroke:#000000;stroke-width:0.5" />
<path d="M65.305,416.58L93.878,48.478L98.847,55.603L105.06,52.484L106.3,55.878L107.54,119.88L108.79,55.906L110.03,52.474L112.51,55.531L113.75,51.979L117.48,48.639L118.72,55.901L119.97,82.753L121.21,52.47L122.45,55.916L126.18,59.298L127.42,45.231L128.66,52.427L131.15,86.417L132.39,52.471L133.63,45.22L134.87,63.193L136.12,52.811L137.36,45.251L138.6,56.365L139.84,45.464L141.09,50.91L142.33,45.532L143.57,45.347L146.05,45.731L147.3,46.96L148.54,47.797L149.78,50.222L151.02,47.815L152.27,47.314L153.51,46.793L154.75,47.767L155.99,77.439L157.24,52.903L158.48,45.61L159.72,47.651L160.96,52.09L162.2,52.931L163.45,48.31L164.69,49.457L165.93,76.804L167.17,47.042L168.42,49.57L169.66,46.481L170.9,47.991L172.14,47.104L173.39,54.645L174.63,49.51L175.87,47.898L177.11,50.52L178.35,48.711L179.6,47.295L180.84,49.262L182.08,46.567L183.32,48.1L184.57,46.898L185.81,49.855L187.05,47.272L188.29,47.083L189.54,48.897L190.78,46.627L192.02,47.711L193.26,47.078L194.5,46.903L195.75,47.388L196.99,47.553L198.23,52.376L199.47,49.127L200.72,48.136L201.96,47.087L203.2,47.304L204.44,48.311L205.69,47.004L206.93,47.084L208.17,51.862L209.41,47.792L210.65,49.459L211.9,47.044L213.14,47.542L214.38,46.736L215.62,46.45L216.87,47.224L218.11,46.598L219.35,47.328L220.59,48.778L221.84,49.556L223.08,48.331L224.32,45.817L225.56,47.336L226.8,48.229L228.05,46.489L229.29,47.48L230.53,46.224L231.77,49.46L233.02,46.524L234.26,46.02L235.5,47.293L236.74,46.38L237.99,45.861L239.23,46.853L240.47,46.15L241.71,46.39L242.95,46.127L244.2,45.922L245.44,45.74L246.68,46.127L247.92,46.429L249.17,45.812L250.41,46.084L251.65,46.33L252.89,46.343L254.14,45.89L255.38,46.111L256.62,47.995L257.86,46.295L259.1,45.916L260.35,45.773L261.59,46.227L262.83,46.075L264.07,46.269L265.32,46.164L266.56,45.693L267.8,45.899L269.04,46.087L270.29,45.698L271.53,45.877L272.77,45.676L274.01,46.266L275.25,45.791L276.5,45.851L277.74,45.951L278.98,45.681L280.22,45.69L281.47,45.768L282.71,45.621L283.95,45.71L285.19,45.556L286.44,45.736L287.68,45.55L288.92,45.585L290.16,45.735L291.4,45.529L292.65,45.646L293.89,45.54L295.13,45.56L296.37,45.544L297.62,45.539L298.86,45.794L300.1,45.558L301.34,45.524L302.59,45.481L303.83,45.458L305.07,45.539L306.31,45.415L307.55,45.385L308.8,45.386L310.04,45.398L311.28,45.5L312.52,45.433L313.77,45.414L315.01,45.308L316.25,45.349L317.49,45.454L318.74,45.368L319.98,45.369L321.22,45.321L322.46,45.486L323.7,45.417L324.95,45.297L326.19,45.363L327.43,45.377L328.67,45.34L329.92,45.338L331.16,45.296L332.4,45.324L333.64,45.254L334.89,45.312L336.13,45.242L337.37,45.269L338.61,45.278L339.85,45.27L341.1,45.298L342.34,45.255L343.58,45.271L344.82,45.262L346.07,45.236L347.31,45.272L348.55,45.265L349.79,45.244L351.04,45.224L352.28,45.264L353.52,45.238L354.76,45.221L356,45.233L357.25,45.218L358.49,45.224L359.73,45.223L360.97,45.214L362.22,45.203L363.46,45.199L364.7,45.248L365.94,45.233L367.19,45.2L368.43,45.215L369.67,45.205L370.91,45.203L372.15,45.216L373.4,45.194L374.64,45.208L375.88,45.197L377.12,45.197L378.37,45.198L379.61,45.196L380.85,45.187L382.09,45.184L383.34,45.187L384.58,45.187L385.82,45.18L387.06,45.184L388.3,45.181L389.55,45.183L390.79,45.186L392.03,45.178L393.27,45.174L394.52,45.18L395.76,45.175L397,45.167L398.24,45.184L399.49,45.168L400.73,45.171L401.97,45.173L403.21,45.175L404.45,45.165L405.7,45.174L406.94,45.165L408.18,45.162L409.42,45.166L410.67,45.166L411.91,45.164L413.15,45.162L414.39,45.165L415.64,45.166L416.88,45.162L418.12,45.166L419.36,45.162L420.6,45.159L421.85,45.159L423.09,45.164L424.33,45.163L425.57,45.155L426.82,45.16L428.06,45.154L429.3,45.158L430.54,45.153L431.78,45.154L433.03,45.156L434.27,45.153L435.51,45.158L436.75,45.154L438,45.155L439.24,45.158L440.48,45.154L441.72,45.152L442.97,45.155L444.21,45.154L445.45,45.152L446.69,45.153L447.93,45.154L449.18,45.152L450.42,45.156L451.66,45.156L452.9,45.153L454.15,45.153L455.39,45.156L456.63,45.154L457.87,45.153L459.12,45.152L460.36,45.153L461.6,45.153L464.08,45.152L465.33,45.151L466.57,45.153L467.81,45.151L470.3,45.151L472.78,45.151L474.02,45.151L476.51,45.152L477.75,45.151L478.99,45.151L480.23,45.152L481.48,45.151L483.96,45.152L486.45,45.152L487.69,45.151L490.17,45.151L492.66,45.151L493.9,45.151L496.38,45.151L497.63,45.153L503.84,45.153L513.78,45.151L516.26,45.151L519.99,45.151L524.96,45.151L528.68,45.151L537.38,45.151L544.83,45.151L547.32,45.151L552.29,45.151L720,45.151" style="fill:none;stroke:#0000FF" />
</g>
</svg>
