<?xml version="1.0"?>
<!-- Generated by SVGo and Plotinum VG -->
<svg width="720pt" height="432pt" viewBox="0 0 720 432"
	xmlns="http://www.w3.org/2000/svg"
	xmlns:xlink="http://www.w3.org/1999/xlink">
<g transform="scale(1, -1) translate(0, -432)">
<path d="M0,0L720,0L720,432L0,432Z" style="fill:#FFFFFF" />
<text x="358.5" y="-420.45" transform="scale(1, -1)"
	style="font-family:Times;font-weight:normal;font-style:normal;font-size:12px"> </text>
<text x="376.81" y="-3.8613" transform="scale(1, -1)"
	style="font-family:Times;font-weight:normal;font-style:normal;font-size:12px">Costs</text>
<text x="57.805" y="-18.634" transform="scale(1, -1)"
	style="font-family:Times;font-weight:normal;font-style:normal;font-size:10px">0</text>
<text x="350.41" y="-18.634" transform="scale(1, -1)"
	style="font-family:Times;font-weight:normal;font-style:normal;font-size:10px">300</text>
<text x="648.02" y="-18.634" transform="scale(1, -1)"
	style="font-family:Times;font-weight:normal;font-style:normal;font-size:10px">600</text>
<path d="M60.305,28.263L60.305,36.263" style="fill:none;stroke:#000000;stroke-width:0.5" />
<path d="M357.91,28.263L357.91,36.263" style="fill:none;stroke:#000000;stroke-width:0.5" />
<path d="M655.52,28.263L655.52,36.263" style="fill:none;stroke:#000000;stroke-width:0.5" />
<path d="M159.51,32.263L159.51,36.263" style="fill:none;stroke:#000000;stroke-width:0.5" />
<path d="M258.71,32.263L258.71,36.263" style="fill:none;stroke:#000000;stroke-width:0.5" />
<path d="M457.11,32.263L457.11,36.263" style="fill:none;stroke:#000000;stroke-width:0.5" />
<path d="M556.32,32.263L556.32,36.263" style="fill:none;stroke:#000000;stroke-width:0.5" />
<path d="M60.305,36.263L720,36.263" style="fill:none;stroke:#000000;stroke-width:0.5" />
<g transform="rotate(90)">
<text x="152.55" y="11.555" transform="scale(1, -1)"
	style="font-family:Times;font-weight:normal;font-style:normal;font-size:12px">Number of trials (1000000 total)</text>
</g>
<text x="19.055" y="-148.37" transform="scale(1, -1)"
	style="font-family:Times;font-weight:normal;font-style:normal;font-size:10px">10000</text>
<text x="19.055" y="-361.25" transform="scale(1, -1)"
	style="font-family:Times;font-weight:normal;font-style:normal;font-size:10px">30000</text>
<path d="M46.555,151.58L54.555,151.58" style="fill:none;stroke:#000000;stroke-width:0.5" />
<path d="M46.555,364.45L54.555,364.45" style="fill:none;stroke:#000000;stroke-width:0.5" />
<path d="M50.555,258.01L54.555,258.01" style="fill:none;stroke:#000000;stroke-width:0.5" />
<path d="M54.555,45.151L54.555,416.58" style="fill:none;stroke:#000000;stroke-width:0.5" />
<path d="M60.305,416.58L82.129,52.485L83.121,59.691L86.097,62.458L87.089,83.171L88.081,52.485L89.073,111.72L90.065,68.897L91.057,118.29L92.049,77.998L93.041,58.679L94.033,100.12L95.025,88.045L96.018,64.725L97.01,60.521L98.002,80.148L98.994,66.556L99.986,52.751L100.98,189.8L101.97,58.839L102.96,164.67L103.95,73.783L104.95,52.762L105.94,71.292L107.92,45.503L108.91,68.972L109.91,128.36L110.9,81.053L111.89,48.057L112.88,103.36L113.87,71.856L114.87,61.958L115.86,62.564L116.85,70.771L117.84,82.479L118.83,62.373L119.83,104.69L120.82,84.192L121.81,102.71L122.8,93.697L123.79,67.748L124.79,69.313L125.78,70.558L126.77,93.027L127.76,75.528L128.75,73.112L129.75,94.73L130.74,79.179L131.73,106.73L132.72,111.21L133.71,94.187L134.71,94.283L135.7,82.096L136.69,106.08L137.68,82.521L138.67,88.854L139.67,88.812L140.66,111.73L141.65,105.59L142.64,78.008L143.63,125.78L144.63,94.091L145.62,87.098L146.61,96.731L147.6,83.266L148.59,92.878L149.59,85.384L150.58,109.1L151.57,100.86L152.56,101.2L153.55,116.17L154.55,85.214L155.54,103.53L156.53,89.653L157.52,86.609L158.51,92.782L159.51,90.355L160.5,106L161.49,92.995L162.48,114.81L163.48,110.29L164.47,93.197L165.46,97.635L166.45,90.206L167.44,102.24L168.44,87.205L169.43,100.05L170.42,99.7L171.41,100.25L172.4,105.55L173.4,100.21L174.39,100.31L175.38,103.76L176.37,97.848L177.36,99.636L178.36,92.047L179.35,99.232L180.34,95.102L181.33,104.48L182.32,103.72L183.32,100.14L184.31,103.54L185.3,95.517L186.29,101L187.28,96.805L188.28,91.941L189.27,101.4L190.26,99.2L191.25,98.742L192.24,99.051L193.24,103.62L194.23,105.91L195.22,94.825L196.21,101.84L197.2,95.773L198.2,97.167L199.19,96.167L200.18,94.719L201.17,98.019L202.16,95.326L203.16,103.1L204.15,98.231L205.14,97.508L206.13,98.189L207.12,94.261L208.12,95.751L209.11,92.356L210.1,95.709L211.09,94.825L212.08,95.581L213.08,99.636L214.07,95.581L215.06,96.901L216.05,95.89L217.04,94.538L218.04,92.846L219.03,91.132L220.02,94.591L221.01,91.664L222,94.038L223,94.293L223.99,93.048L224.98,93.463L225.97,90.142L226.96,91.749L227.96,89.025L228.95,88.897L229.94,89.674L230.93,89.578L231.92,90.483L232.92,88.897L233.91,90.94L234.9,87.886L235.89,88.45L236.88,88.184L237.88,86.289L238.87,86.938L239.86,85.565L240.85,84.906L241.84,85.108L242.84,85.597L243.83,87.524L244.82,85.523L245.81,84.746L246.81,85.438L247.8,84.703L248.79,83.99L249.78,83.064L250.77,83.107L251.77,82.468L252.76,81.947L253.75,83.234L254.74,82.255L255.73,82.181L256.73,81.595L257.72,80.957L258.71,80.531L259.7,78.924L260.69,79.594L261.69,78.573L262.68,78.753L263.67,78.392L264.66,76.689L265.65,77.721L266.65,77.05L267.64,77.306L268.63,76.061L269.62,76.965L270.61,76.337L271.61,73.73L272.6,74.432L273.59,74.411L274.58,74.815L275.57,74.23L276.57,73.943L277.56,73.485L278.55,73.187L279.54,72.846L280.53,72.633L281.53,72.495L282.52,71.026L283.51,71.154L284.5,71.367L285.49,70.526L286.49,70.143L287.48,69.749L288.47,69.685L289.46,69.195L290.45,68.653L291.45,68.727L292.44,69.068L293.43,67.939L294.42,67.897L295.41,68.014L296.41,67.95L297.4,66.833L298.39,65.364L299.38,66.694L300.37,66.066L301.37,66.375L302.36,64.757L303.35,65.672L304.34,64.736L305.33,64.416L306.33,65.215L307.32,63.256L308.31,64.118L309.3,63.501L310.29,63.629L311.29,62.16L312.28,62.458L313.27,61.766L314.26,62.277L315.25,61.958L316.25,61.756L317.24,61.255L318.23,61.085L319.22,60.681L320.21,60.351L321.21,59.723L322.2,60.063L323.19,60.18L324.18,59.616L325.17,59.499L326.17,58.818L327.16,58.754L328.15,58.509L329.14,58.626L330.13,58.413L331.13,58.147L332.12,57.275L333.11,56.913L334.1,57.136L335.1,57.338L336.09,56.742L337.08,56.817L338.07,56.466L339.06,56.136L340.06,55.784L341.05,56.455L342.04,55.401L343.03,55.178L344.02,55.529L345.02,55.124L346.01,55.039L347,55.316L347.99,54.816L348.98,54.135L349.98,54.401L350.97,54.145L351.96,54.018L352.95,53.815L353.94,53.07L354.94,53.837L355.93,53.219L356.92,53.145L357.91,52.847L358.9,52.283L359.9,52.346L360.89,52.527L361.88,52.496L362.87,52.24L363.86,52.197L364.86,51.57L365.85,51.623L366.84,51.495L367.83,51.41L368.82,51.367L369.82,51.367L370.81,51.037L371.8,51.271L372.79,50.814L373.78,51.144L374.78,50.835L375.77,50.282L376.76,50.718L377.75,50.143L378.74,50.079L379.74,49.962L380.73,50.133L381.72,50.207L382.71,49.568L383.7,49.813L384.7,49.281L385.69,49.537L386.68,48.972L387.67,49.419L388.66,49.132L389.66,49.026L390.65,48.962L391.64,49.121L392.63,48.738L393.62,49.196L394.62,48.653L395.61,48.366L396.6,48.472L397.59,48.291L398.58,48.664L399.58,48.217L400.57,48.068L401.56,48.015L402.55,48.27L403.54,47.94L404.54,48.504L405.53,47.919L406.52,48.185L407.51,47.631L408.5,47.727L409.5,47.621L410.49,47.578L411.48,47.376L412.47,47.461L413.46,47.418L414.46,47.28L415.45,47.184L416.44,47.131L417.43,47.333L418.42,47.089L419.42,47.089L420.41,47.28L421.4,47.057L422.39,47.333L423.39,46.993L424.38,46.908L425.37,46.844L426.36,46.897L427.35,46.833L428.35,46.897L429.34,46.918L430.33,46.705L431.32,46.705L432.31,46.535L433.31,46.365L434.3,46.578L435.29,46.407L436.28,46.535L437.27,46.45L438.27,46.258L439.26,46.461L440.25,46.397L441.24,46.365L442.23,46.386L443.23,46.418L444.22,46.343L445.21,46.035L446.2,46.141L447.19,46.375L448.19,46.28L449.18,46.014L450.17,46.014L451.16,46.067L452.15,45.886L453.15,46.014L454.14,46.099L455.13,46.056L456.12,45.822L457.11,46.088L458.11,45.758L459.1,45.886L460.09,45.79L461.08,45.864L462.07,45.801L463.07,45.886L464.06,45.726L465.05,45.928L466.04,45.684L467.03,45.662L468.03,45.747L469.02,45.694L470.01,45.662L471,45.662L471.99,45.652L472.99,45.566L473.98,45.577L474.97,45.513L475.96,45.758L476.95,45.524L477.95,45.598L478.94,45.62L479.93,45.545L480.92,45.492L481.91,45.545L482.91,45.503L483.9,45.449L484.89,45.471L485.88,45.503L486.87,45.481L487.87,45.577L488.86,45.386L489.85,45.449L490.84,45.439L491.83,45.492L492.83,45.428L493.82,45.396L494.81,45.449L495.8,45.332L496.79,45.386L497.79,45.396L498.78,45.46L499.77,45.364L500.76,45.417L501.75,45.268L502.75,45.226L503.74,45.364L504.73,45.258L505.72,45.343L506.72,45.417L507.71,45.322L508.7,45.332L509.69,45.247L510.68,45.343L511.68,45.375L512.67,45.311L513.66,45.332L514.65,45.29L515.64,45.268L516.64,45.354L517.63,45.279L518.62,45.3L519.61,45.247L520.6,45.215L521.6,45.247L522.59,45.258L523.58,45.343L524.57,45.247L525.56,45.205L526.56,45.247L527.55,45.247L528.54,45.237L529.53,45.205L530.52,45.247L531.52,45.29L532.51,45.226L533.5,45.247L534.49,45.237L535.48,45.268L536.48,45.226L537.47,45.205L538.46,45.268L539.45,45.183L540.44,45.173L541.44,45.194L542.43,45.205L543.42,45.205L544.41,45.183L545.4,45.215L546.4,45.226L547.39,45.205L548.38,45.194L549.37,45.205L550.36,45.183L551.36,45.194L552.35,45.183L553.34,45.173L554.33,45.162L555.32,45.205L556.32,45.162L557.31,45.194L558.3,45.215L559.29,45.151L560.28,45.205L561.28,45.162L562.27,45.183L563.26,45.162L564.25,45.162L565.24,45.205L566.24,45.162L567.23,45.162L570.2,45.173L571.2,45.162L572.19,45.151L573.18,45.194L574.17,45.173L575.16,45.173L576.16,45.162L577.15,45.173L578.14,45.162L579.13,45.162L580.12,45.151L582.11,45.162L583.1,45.151L584.09,45.162L585.08,45.151L586.08,45.194L587.07,45.162L589.05,45.183L590.04,45.151L591.04,45.151L592.03,45.173L593.02,45.151L595.01,45.151L596.99,45.162L597.98,45.151L599.97,45.151L602.94,45.162L603.93,45.151L604.93,45.151L605.92,45.162L606.91,45.162L607.9,45.151L609.89,45.162L613.85,45.173L620.8,45.173L621.79,45.151L623.77,45.162L625.76,45.151L626.75,45.151L627.74,45.151L629.73,45.151L640.64,45.151L645.6,45.151L648.57,45.151L655.52,45.151L670.4,45.151L680.32,45.151L720,45.151" style="fill:none;stroke:#0000FF" />
</g>
</svg>
