<?xml version="1.0"?>
<!-- Generated by SVGo and Plotinum VG -->
<svg width="720pt" height="432pt" viewBox="0 0 720 432"
	xmlns="http://www.w3.org/2000/svg"
	xmlns:xlink="http://www.w3.org/1999/xlink">
<g transform="scale(1, -1) translate(0, -432)">
<path d="M0,0L720,0L720,432L0,432Z" style="fill:#FFFFFF" />
<text x="358.5" y="-420.45" transform="scale(1, -1)"
	style="font-family:Times;font-weight:normal;font-style:normal;font-size:12px"> </text>
<text x="379.31" y="-3.8613" transform="scale(1, -1)"
	style="font-family:Times;font-weight:normal;font-style:normal;font-size:12px">Costs</text>
<text x="62.805" y="-18.634" transform="scale(1, -1)"
	style="font-family:Times;font-weight:normal;font-style:normal;font-size:10px">0</text>
<text x="249.24" y="-18.634" transform="scale(1, -1)"
	style="font-family:Times;font-weight:normal;font-style:normal;font-size:10px">100</text>
<text x="440.67" y="-18.634" transform="scale(1, -1)"
	style="font-family:Times;font-weight:normal;font-style:normal;font-size:10px">200</text>
<text x="632.1" y="-18.634" transform="scale(1, -1)"
	style="font-family:Times;font-weight:normal;font-style:normal;font-size:10px">300</text>
<path d="M65.305,28.263L65.305,36.263" style="fill:none;stroke:#000000;stroke-width:0.5" />
<path d="M256.74,28.263L256.74,36.263" style="fill:none;stroke:#000000;stroke-width:0.5" />
<path d="M448.17,28.263L448.17,36.263" style="fill:none;stroke:#000000;stroke-width:0.5" />
<path d="M639.6,28.263L639.6,36.263" style="fill:none;stroke:#000000;stroke-width:0.5" />
<path d="M103.59,32.263L103.59,36.263" style="fill:none;stroke:#000000;stroke-width:0.5" />
<path d="M141.88,32.263L141.88,36.263" style="fill:none;stroke:#000000;stroke-width:0.5" />
<path d="M180.16,32.263L180.16,36.263" style="fill:none;stroke:#000000;stroke-width:0.5" />
<path d="M218.45,32.263L218.45,36.263" style="fill:none;stroke:#000000;stroke-width:0.5" />
<path d="M295.02,32.263L295.02,36.263" style="fill:none;stroke:#000000;stroke-width:0.5" />
<path d="M333.31,32.263L333.31,36.263" style="fill:none;stroke:#000000;stroke-width:0.5" />
<path d="M371.59,32.263L371.59,36.263" style="fill:none;stroke:#000000;stroke-width:0.5" />
<path d="M409.88,32.263L409.88,36.263" style="fill:none;stroke:#000000;stroke-width:0.5" />
<path d="M486.45,32.263L486.45,36.263" style="fill:none;stroke:#000000;stroke-width:0.5" />
<path d="M524.74,32.263L524.74,36.263" style="fill:none;stroke:#000000;stroke-width:0.5" />
<path d="M563.03,32.263L563.03,36.263" style="fill:none;stroke:#000000;stroke-width:0.5" />
<path d="M601.31,32.263L601.31,36.263" style="fill:none;stroke:#000000;stroke-width:0.5" />
<path d="M677.89,32.263L677.89,36.263" style="fill:none;stroke:#000000;stroke-width:0.5" />
<path d="M716.17,32.263L716.17,36.263" style="fill:none;stroke:#000000;stroke-width:0.5" />
<path d="M65.305,36.263L720,36.263" style="fill:none;stroke:#000000;stroke-width:0.5" />
<g transform="rotate(90)">
<text x="150.59" y="11.555" transform="scale(1, -1)"
	style="font-family:Times;font-weight:normal;font-style:normal;font-size:12px">Number of trials (1000000 total)</text>
</g>
<text x="19.055" y="-114.95" transform="scale(1, -1)"
	style="font-family:Times;font-weight:normal;font-style:normal;font-size:10px">100000</text>
<text x="19.055" y="-260.95" transform="scale(1, -1)"
	style="font-family:Times;font-weight:normal;font-style:normal;font-size:10px">300000</text>
<text x="19.055" y="-406.96" transform="scale(1, -1)"
	style="font-family:Times;font-weight:normal;font-style:normal;font-size:10px">500000</text>
<path d="M51.555,118.15L59.555,118.15" style="fill:none;stroke:#000000;stroke-width:0.5" />
<path d="M51.555,264.16L59.555,264.16" style="fill:none;stroke:#000000;stroke-width:0.5" />
<path d="M51.555,410.16L59.555,410.16" style="fill:none;stroke:#000000;stroke-width:0.5" />
<path d="M55.555,191.15L59.555,191.15" style="fill:none;stroke:#000000;stroke-width:0.5" />
<path d="M55.555,337.16L59.555,337.16" style="fill:none;stroke:#000000;stroke-width:0.5" />
<path d="M59.555,45.151L59.555,412.65" style="fill:none;stroke:#000000;stroke-width:0.5" />
<path d="M65.305,412.65L107.42,48.62L116.99,48.52L120.82,59.602L122.73,59.583L124.65,48.619L126.56,48.568L128.48,55.603L132.31,48.512L134.22,48.506L138.05,52.106L141.88,65.996L143.79,76.295L145.71,48.616L147.62,62.632L151.45,48.567L159.11,45.186L161.02,48.567L162.93,48.661L164.85,45.287L166.76,58.841L168.68,62.954L170.59,48.659L172.51,65.894L174.42,59.702L176.33,48.558L178.25,52.317L180.16,48.767L182.08,45.412L183.99,63.268L185.91,45.915L187.82,45.365L189.74,45.751L191.65,45.323L193.56,49.188L195.48,45.867L197.39,46.084L199.31,47.377L201.22,46.919L203.14,46.363L205.05,46.625L206.96,46.4L208.88,45.888L210.79,46.361L212.71,48.901L214.62,46.048L216.54,46.156L218.45,45.78L220.36,47.658L222.28,46.758L224.19,48.017L226.11,47.955L228.02,46.839L229.94,47.521L231.85,46.516L233.76,46.318L235.68,46.811L237.59,46.224L239.51,47.004L241.42,47.049L243.34,46.621L245.25,48.201L247.16,47.905L249.08,47.534L250.99,48.933L252.91,47.307L254.82,47.23L256.74,47.063L258.65,45.95L260.56,46.753L262.48,46.884L264.39,45.784L266.31,46.398L268.22,45.764L270.14,46.641L272.05,46.042L273.96,46.379L275.88,47.241L277.79,46.206L279.71,46.282L281.62,46.83L283.54,45.778L285.45,46.65L287.37,46.668L289.28,45.89L291.19,46.736L293.11,46.158L295.02,45.762L296.94,45.874L298.85,45.675L300.77,45.598L302.68,45.686L304.59,45.516L306.51,45.613L308.42,45.574L310.34,45.467L312.25,45.682L314.17,45.596L316.08,45.565L317.99,45.507L319.91,45.656L321.82,45.565L323.74,45.565L325.65,45.53L327.57,45.597L329.48,45.553L331.39,45.705L333.31,45.585L335.22,45.434L337.14,45.451L339.05,45.489L340.97,45.47L342.88,45.483L344.79,45.452L346.71,45.444L348.62,45.497L350.54,45.404L352.45,45.521L354.37,45.544L356.28,45.47L358.19,45.467L360.11,45.455L362.02,45.373L363.94,45.446L365.85,45.39L367.77,45.392L369.68,45.435L371.59,45.334L373.51,45.342L375.42,45.321L377.34,45.323L379.25,45.308L381.17,45.289L383.08,45.308L385,45.288L386.91,45.273L388.82,45.314L390.74,45.27L392.65,45.316L394.57,45.316L396.48,45.292L398.4,45.269L400.31,45.286L402.22,45.238L404.14,45.247L406.05,45.229L407.97,45.222L409.88,45.226L411.8,45.211L413.71,45.208L415.62,45.213L417.54,45.208L419.45,45.209L421.37,45.232L423.28,45.213L425.2,45.197L427.11,45.209L429.02,45.206L430.94,45.205L432.85,45.2L434.77,45.209L436.68,45.197L438.6,45.194L440.51,45.192L442.42,45.19L444.34,45.181L446.25,45.2L448.17,45.189L450.08,45.197L452,45.191L453.91,45.183L455.82,45.184L457.74,45.185L459.65,45.184L461.57,45.178L463.48,45.172L465.4,45.173L467.31,45.185L469.22,45.174L471.14,45.18L473.05,45.175L474.97,45.171L476.88,45.175L478.8,45.173L480.71,45.167L482.63,45.166L484.54,45.167L486.45,45.171L488.37,45.16L490.28,45.169L492.2,45.161L494.11,45.161L496.03,45.166L497.94,45.165L499.85,45.161L501.77,45.161L503.68,45.157L505.6,45.167L507.51,45.166L509.43,45.161L511.34,45.162L513.25,45.159L515.17,45.161L517.08,45.158L519,45.158L520.91,45.153L522.83,45.16L524.74,45.157L526.65,45.159L528.57,45.157L530.48,45.158L532.4,45.158L534.31,45.156L536.23,45.154L538.14,45.154L540.05,45.156L541.97,45.156L543.88,45.155L545.8,45.157L547.71,45.154L549.63,45.154L551.54,45.153L553.45,45.155L555.37,45.154L557.28,45.151L559.2,45.152L561.11,45.154L563.03,45.155L564.94,45.154L566.85,45.153L568.77,45.153L570.68,45.153L572.6,45.153L576.43,45.154L580.26,45.154L582.17,45.152L584.08,45.154L586,45.152L587.91,45.153L593.66,45.151L595.57,45.151L597.48,45.151L599.4,45.151L603.23,45.152L607.06,45.152L612.8,45.151L616.63,45.151L618.54,45.151L620.46,45.152L626.2,45.151L630.03,45.151L643.43,45.151L647.26,45.152L649.17,45.151L653,45.151L656.83,45.151L672.14,45.152L679.8,45.151L681.71,45.151L695.11,45.151L700.86,45.151L712.34,45.151L720,45.151" style="fill:none;stroke:#0000FF" />
</g>
</svg>
