<?xml version="1.0"?>
<!-- Generated by SVGo and Plotinum VG -->
<svg width="720pt" height="432pt" viewBox="0 0 720 432"
	xmlns="http://www.w3.org/2000/svg"
	xmlns:xlink="http://www.w3.org/1999/xlink">
<g transform="scale(1, -1) translate(0, -432)">
<path d="M0,0L720,0L720,432L0,432Z" style="fill:#FFFFFF" />
<text x="358.5" y="-420.45" transform="scale(1, -1)"
	style="font-family:Times;font-weight:normal;font-style:normal;font-size:12px"> </text>
<text x="385.56" y="-3.8613" transform="scale(1, -1)"
	style="font-family:Times;font-weight:normal;font-style:normal;font-size:12px">Costs</text>
<text x="69.055" y="-18.634" transform="scale(1, -1)"
	style="font-family:Times;font-weight:normal;font-style:normal;font-size:10px">0.00</text>
<text x="360.27" y="-18.634" transform="scale(1, -1)"
	style="font-family:Times;font-weight:normal;font-style:normal;font-size:10px">250.00</text>
<text x="656.49" y="-18.634" transform="scale(1, -1)"
	style="font-family:Times;font-weight:normal;font-style:normal;font-size:10px">500.00</text>
<path d="M77.805,28.263L77.805,36.263" style="fill:none;stroke:#000000;stroke-width:0.5" />
<path d="M374.02,28.263L374.02,36.263" style="fill:none;stroke:#000000;stroke-width:0.5" />
<path d="M670.24,28.263L670.24,36.263" style="fill:none;stroke:#000000;stroke-width:0.5" />
<path d="M137.05,32.263L137.05,36.263" style="fill:none;stroke:#000000;stroke-width:0.5" />
<path d="M196.29,32.263L196.29,36.263" style="fill:none;stroke:#000000;stroke-width:0.5" />
<path d="M255.53,32.263L255.53,36.263" style="fill:none;stroke:#000000;stroke-width:0.5" />
<path d="M314.78,32.263L314.78,36.263" style="fill:none;stroke:#000000;stroke-width:0.5" />
<path d="M433.26,32.263L433.26,36.263" style="fill:none;stroke:#000000;stroke-width:0.5" />
<path d="M492.51,32.263L492.51,36.263" style="fill:none;stroke:#000000;stroke-width:0.5" />
<path d="M551.75,32.263L551.75,36.263" style="fill:none;stroke:#000000;stroke-width:0.5" />
<path d="M610.99,32.263L610.99,36.263" style="fill:none;stroke:#000000;stroke-width:0.5" />
<path d="M77.805,36.263L720,36.263" style="fill:none;stroke:#000000;stroke-width:0.5" />
<g transform="rotate(90)">
<text x="152.55" y="11.555" transform="scale(1, -1)"
	style="font-family:Times;font-weight:normal;font-style:normal;font-size:12px">Number of trials (1000000 total)</text>
</g>
<text x="24.055" y="-90.457" transform="scale(1, -1)"
	style="font-family:Times;font-weight:normal;font-style:normal;font-size:10px">25000.00</text>
<text x="19.055" y="-236" transform="scale(1, -1)"
	style="font-family:Times;font-weight:normal;font-style:normal;font-size:10px">100000.00</text>
<text x="19.055" y="-381.54" transform="scale(1, -1)"
	style="font-family:Times;font-weight:normal;font-style:normal;font-size:10px">175000.00</text>
<path d="M64.055,93.663L72.055,93.663" style="fill:none;stroke:#000000;stroke-width:0.5" />
<path d="M64.055,239.2L72.055,239.2" style="fill:none;stroke:#000000;stroke-width:0.5" />
<path d="M64.055,384.74L72.055,384.74" style="fill:none;stroke:#000000;stroke-width:0.5" />
<path d="M68.055,166.43L72.055,166.43" style="fill:none;stroke:#000000;stroke-width:0.5" />
<path d="M68.055,311.97L72.055,311.97" style="fill:none;stroke:#000000;stroke-width:0.5" />
<path d="M72.055,45.151L72.055,416.58" style="fill:none;stroke:#000000;stroke-width:0.5" />
<path d="M77.805,416.58L103.87,62.843L105.06,48.569L106.24,60.031L108.61,81.641L109.8,55.663L110.98,66.62L112.17,52.26L114.54,80.425L115.72,58.881L116.91,48.592L118.09,63.453L119.27,73.596L120.46,48.518L121.64,48.493L122.83,58.813L124.01,80.3L125.2,55.359L126.38,62.478L127.57,72.719L128.75,48.619L129.94,80.374L131.12,48.627L132.31,60.683L133.49,45.25L134.68,46.853L135.86,56.11L137.05,69.42L138.23,70.695L139.42,46.578L140.6,75.752L141.79,65.612L142.97,62.806L144.16,47.051L145.34,75.123L146.53,48.4L147.71,63.934L148.9,66.767L150.08,54.196L151.27,60.074L152.45,75.693L153.64,49.7L154.82,52.108L156.01,54.264L157.19,51.413L158.38,52.487L159.56,50.707L160.75,55.199L161.93,50.418L163.11,53.098L164.3,54.404L165.48,51.769L166.67,54.547L167.85,53.674L169.04,63.635L170.22,52.543L171.41,56.523L172.59,67.535L173.78,75.486L174.96,54.503L176.15,56.205L177.33,54.938L178.52,58.885L179.7,56.325L180.89,52.527L182.07,57.72L183.26,56.358L184.44,55.595L185.63,55.003L186.81,56.451L188,54.202L189.18,57.179L190.37,56.428L191.55,53.6L192.74,55.24L193.92,54.229L195.11,55.042L196.29,51.305L197.48,55.98L198.66,53.455L199.85,55.155L201.03,55.615L202.22,53.758L203.4,53.385L204.58,55.813L205.77,54.002L206.95,52.535L208.14,52.912L209.32,53.306L210.51,55.13L211.69,53.612L212.88,53.533L214.06,52.663L215.25,54.652L216.43,52.263L217.62,51.313L218.8,53.265L219.99,53.49L221.17,51.837L222.36,52.811L223.54,52.921L224.73,51.095L225.91,52.38L227.1,50.93L228.28,50.758L229.47,50.036L230.65,50.354L231.84,51.817L233.02,51.707L234.21,51.367L235.39,50.814L236.58,52.498L237.76,51.413L238.95,51.119L240.13,50.756L241.32,51.266L242.5,50.626L243.69,51.705L244.87,50.521L246.06,50.212L247.24,51.256L248.42,50.622L249.61,49.624L250.79,49.622L251.98,49.622L253.16,49.325L254.35,49.337L255.53,49.217L256.72,49.523L257.9,49.069L259.09,49.06L260.27,49.236L261.46,48.9L262.64,49.209L263.83,49.234L265.01,49.461L266.2,48.697L267.38,48.772L268.57,49.463L269.75,48.821L270.94,48.47L272.12,48.685L273.31,48.543L274.49,48.807L275.68,48.384L276.86,48.179L278.05,48.27L279.23,48.345L280.42,48.113L281.6,48.221L282.79,48.062L283.97,47.95L285.16,48.138L286.34,47.763L287.53,47.62L288.71,47.761L289.9,47.672L291.08,47.659L292.26,47.43L293.45,47.544L294.63,47.503L295.82,47.424L297,47.513L298.19,47.272L299.37,47.292L300.56,47.208L301.74,47.193L302.93,47.034L304.11,47.061L305.3,47.111L306.48,47.104L307.67,47.055L308.85,47.041L310.04,46.861L311.22,46.915L312.41,46.776L313.59,46.681L314.78,46.845L315.96,46.653L317.15,46.706L318.33,46.605L319.52,46.533L320.7,46.519L321.89,46.494L323.07,46.442L324.26,46.372L325.44,46.29L326.63,46.36L327.81,46.389L329,46.351L330.18,46.271L331.37,46.347L332.55,46.323L333.73,46.151L334.92,46.254L336.1,46.184L337.29,46.131L338.47,46.18L339.66,46.157L340.84,46.069L342.03,46.005L343.21,46.11L344.4,46.048L345.58,45.955L346.77,45.959L347.95,45.986L349.14,45.935L350.32,45.813L351.51,45.961L352.69,45.871L353.88,45.86L355.06,45.796L356.25,45.809L357.43,45.846L358.62,45.743L359.8,45.774L360.99,45.728L362.17,45.73L363.36,45.767L364.54,45.702L365.73,45.687L366.91,45.646L368.1,45.598L369.28,45.668L370.47,45.611L371.65,45.561L372.84,45.545L374.02,45.574L375.21,45.547L376.39,45.58L377.57,45.518L378.76,45.571L379.94,45.516L381.13,45.555L382.31,45.503L383.5,45.52L384.68,45.493L385.87,45.45L387.05,45.477L388.24,45.441L389.42,45.501L390.61,45.431L391.79,45.431L392.98,45.446L394.16,45.398L395.35,45.417L396.53,45.394L397.72,45.409L398.9,45.402L400.09,45.419L401.27,45.411L402.46,45.371L403.64,45.371L404.83,45.345L406.01,45.322L407.2,45.33L408.38,45.361L409.57,45.343L410.75,45.297L411.94,45.295L413.12,45.324L414.31,45.326L415.49,45.312L416.68,45.312L417.86,45.278L419.05,45.338L420.23,45.303L421.41,45.285L422.6,45.26L423.78,45.289L424.97,45.272L426.15,45.305L427.34,45.279L428.52,45.268L429.71,45.264L430.89,45.256L432.08,45.276L433.26,45.25L434.45,45.252L435.63,45.248L436.82,45.221L438,45.229L439.19,45.233L440.37,45.237L441.56,45.227L442.74,45.246L443.93,45.243L445.11,45.227L446.3,45.208L447.48,45.215L448.67,45.233L449.85,45.2L451.04,45.21L452.22,45.204L453.41,45.2L454.59,45.21L455.78,45.204L456.96,45.192L458.15,45.196L459.33,45.217L460.52,45.194L461.7,45.2L462.88,45.194L464.07,45.182L465.25,45.18L466.44,45.186L467.62,45.184L468.81,45.19L469.99,45.167L471.18,45.186L472.36,45.186L473.55,45.18L474.73,45.167L475.92,45.179L477.1,45.177L478.29,45.177L479.47,45.169L480.66,45.179L481.84,45.171L483.03,45.175L484.21,45.186L485.4,45.167L486.58,45.173L487.77,45.179L488.95,45.161L490.14,45.163L491.32,45.177L492.51,45.163L493.69,45.179L494.88,45.163L496.06,45.171L497.25,45.167L498.43,45.163L499.62,45.161L500.8,45.163L501.99,45.155L503.17,45.161L504.36,45.161L505.54,45.159L506.72,45.163L507.91,45.165L509.09,45.161L510.28,45.163L511.46,45.153L512.65,45.153L513.83,45.155L515.02,45.159L516.2,45.161L517.39,45.155L518.57,45.165L519.76,45.157L520.94,45.153L522.13,45.159L523.31,45.159L524.5,45.153L525.68,45.161L526.87,45.151L528.05,45.159L529.24,45.159L530.42,45.157L531.61,45.155L532.79,45.153L533.98,45.157L535.16,45.157L536.35,45.157L537.53,45.151L538.72,45.157L539.9,45.155L541.09,45.153L542.27,45.153L543.46,45.155L544.64,45.153L545.83,45.155L547.01,45.151L548.19,45.155L549.38,45.153L550.56,45.155L552.93,45.155L555.3,45.151L556.49,45.155L557.67,45.155L558.86,45.153L561.23,45.155L563.6,45.151L565.97,45.151L569.52,45.153L571.89,45.151L573.08,45.153L574.26,45.157L577.82,45.153L580.19,45.153L581.37,45.151L589.67,45.151L596.77,45.151L607.44,45.151L612.18,45.151L616.92,45.151L618.1,45.151L622.84,45.151L624.03,45.151L626.4,45.151L628.77,45.153L671.42,45.151L679.71,45.151L720,45.151" style="fill:none;stroke:#0000FF" />
</g>
</svg>
