<?xml version="1.0"?>
<!-- Generated by SVGo and Plotinum VG -->
<svg width="720pt" height="432pt" viewBox="0 0 720 432"
	xmlns="http://www.w3.org/2000/svg"
	xmlns:xlink="http://www.w3.org/1999/xlink">
<g transform="scale(1, -1) translate(0, -432)">
<path d="M0,0L720,0L720,432L0,432Z" style="fill:#FFFFFF" />
<text x="358.5" y="-420.45" transform="scale(1, -1)"
	style="font-family:Times;font-weight:normal;font-style:normal;font-size:12px"> </text>
<text x="385.56" y="-3.8613" transform="scale(1, -1)"
	style="font-family:Times;font-weight:normal;font-style:normal;font-size:12px">Costs</text>
<text x="75.305" y="-18.634" transform="scale(1, -1)"
	style="font-family:Times;font-weight:normal;font-style:normal;font-size:10px">0</text>
<text x="332.96" y="-18.634" transform="scale(1, -1)"
	style="font-family:Times;font-weight:normal;font-style:normal;font-size:10px">200</text>
<text x="595.62" y="-18.634" transform="scale(1, -1)"
	style="font-family:Times;font-weight:normal;font-style:normal;font-size:10px">400</text>
<path d="M77.805,28.263L77.805,36.263" style="fill:none;stroke:#000000;stroke-width:0.5" />
<path d="M340.46,28.263L340.46,36.263" style="fill:none;stroke:#000000;stroke-width:0.5" />
<path d="M603.12,28.263L603.12,36.263" style="fill:none;stroke:#000000;stroke-width:0.5" />
<path d="M209.13,32.263L209.13,36.263" style="fill:none;stroke:#000000;stroke-width:0.5" />
<path d="M471.79,32.263L471.79,36.263" style="fill:none;stroke:#000000;stroke-width:0.5" />
<path d="M77.805,36.263L720,36.263" style="fill:none;stroke:#000000;stroke-width:0.5" />
<g transform="rotate(90)">
<text x="152.55" y="11.555" transform="scale(1, -1)"
	style="font-family:Times;font-weight:normal;font-style:normal;font-size:12px">Number of trials (1000000 total)</text>
</g>
<text x="24.055" y="-90.481" transform="scale(1, -1)"
	style="font-family:Times;font-weight:normal;font-style:normal;font-size:10px">25000.00</text>
<text x="19.055" y="-236.09" transform="scale(1, -1)"
	style="font-family:Times;font-weight:normal;font-style:normal;font-size:10px">100000.00</text>
<text x="19.055" y="-381.7" transform="scale(1, -1)"
	style="font-family:Times;font-weight:normal;font-style:normal;font-size:10px">175000.00</text>
<path d="M64.055,93.686L72.055,93.686" style="fill:none;stroke:#000000;stroke-width:0.5" />
<path d="M64.055,239.3L72.055,239.3" style="fill:none;stroke:#000000;stroke-width:0.5" />
<path d="M64.055,384.91L72.055,384.91" style="fill:none;stroke:#000000;stroke-width:0.5" />
<path d="M68.055,166.49L72.055,166.49" style="fill:none;stroke:#000000;stroke-width:0.5" />
<path d="M68.055,312.1L72.055,312.1" style="fill:none;stroke:#000000;stroke-width:0.5" />
<path d="M72.055,45.151L72.055,416.58" style="fill:none;stroke:#000000;stroke-width:0.5" />
<path d="M77.805,416.58L106.7,55.804L113.26,66.045L114.58,55.973L115.89,48.662L117.2,60.05L118.52,74.846L119.83,48.852L121.14,71.722L122.46,82.742L123.77,65.931L126.4,52.378L127.71,55.633L129.02,58.963L130.34,82.018L131.65,79.166L132.96,72.93L134.28,69.907L135.59,64.201L136.9,71.544L138.22,52.11L140.84,60.501L142.16,60.677L143.47,71.297L144.78,63.545L146.1,45.526L147.41,91.174L148.72,67.997L150.04,46.277L151.35,50.129L152.66,62.452L153.98,50.813L155.29,57.027L156.6,50.685L157.91,67.385L159.23,71.977L160.54,58.744L161.85,49.646L163.17,50.562L164.48,49.351L165.79,51.257L167.11,51.937L168.42,51.455L169.73,51.298L171.05,63.892L172.36,54.529L173.67,58.513L174.99,55.191L176.3,57.194L177.61,55.93L178.93,60.784L180.24,54.62L181.55,54.89L182.87,56.257L184.18,60.934L185.49,56.22L186.81,58.179L188.12,61.699L189.43,58.08L190.75,55.833L192.06,57.891L193.37,57.955L194.69,55.202L196,56.563L197.31,57.056L198.63,57.26L199.94,59.701L201.25,59.056L202.57,58.027L203.88,57.862L205.19,55.257L206.51,54.878L207.82,54.719L209.13,52.478L210.45,55.016L211.76,56.515L213.07,56.544L214.39,57.06L215.7,54.074L217.01,54.23L218.33,54.391L219.64,51.91L220.95,50.753L222.27,53.158L223.58,54.47L224.89,54.026L226.21,52.913L227.52,53.04L228.83,54.313L230.15,53.618L231.46,51.488L232.77,51.531L234.09,51.935L235.4,51.77L236.71,52.218L238.03,52.135L239.34,51.807L240.65,52.82L241.97,52.234L243.28,51.634L244.59,51.319L245.9,51.37L247.22,50.832L248.53,52.016L249.84,51.028L251.16,51.428L252.47,51.533L253.78,51.908L255.1,51.376L256.41,51.096L257.72,50.844L259.04,51.246L260.35,50.72L261.66,50.232L262.98,50.238L264.29,50.269L265.6,50.508L266.92,50.601L268.23,50.355L269.54,50.176L270.86,50.046L272.17,49.869L273.48,49.621L274.8,49.477L276.11,49.269L277.42,49.473L278.74,49.269L280.05,49.199L281.36,49.448L282.68,49.201L283.99,49.172L285.3,48.984L286.62,48.646L287.93,48.607L289.24,48.625L290.56,48.363L291.87,48.295L293.18,48.65L294.5,48.485L295.81,48.405L297.12,48.199L298.44,48.091L299.75,48.06L301.06,47.862L302.38,47.842L303.69,47.908L305,47.937L306.32,47.912L307.63,47.833L308.94,47.724L310.26,47.629L311.57,47.704L312.88,47.528L314.2,47.326L315.51,47.332L316.82,47.351L318.14,47.318L319.45,47.27L320.76,47.058L322.08,47.18L323.39,47.139L324.7,47.004L326.02,46.951L327.33,46.916L328.64,46.879L329.95,46.994L331.27,46.743L332.58,46.751L333.89,46.765L335.21,46.8L336.52,46.741L337.83,46.72L339.15,46.602L340.46,46.54L341.77,46.528L343.09,46.526L344.4,46.491L345.71,46.417L347.03,46.361L348.34,46.493L349.65,46.386L350.97,46.209L352.28,46.301L353.59,46.161L354.91,46.25L356.22,46.105L357.53,46.14L358.85,46.116L360.16,46.105L361.47,46.05L362.79,46.079L364.1,46.023L365.41,46.031L366.73,45.928L368.04,45.922L369.35,45.909L370.67,45.942L371.98,45.846L373.29,45.876L374.61,45.843L375.92,45.876L377.23,45.802L378.55,45.784L379.86,45.753L381.17,45.72L382.49,45.777L383.8,45.705L385.11,45.718L386.43,45.697L387.74,45.683L389.05,45.681L390.37,45.615L391.68,45.641L392.99,45.639L394.31,45.598L395.62,45.621L396.93,45.563L398.25,45.557L399.56,45.602L400.87,45.559L402.19,45.53L403.5,45.478L404.81,45.483L406.13,45.47L407.44,45.514L408.75,45.46L410.07,45.425L411.38,45.46L412.69,45.456L414.01,45.458L415.32,45.406L416.63,45.458L417.94,45.423L419.26,45.446L420.57,45.384L421.88,45.386L423.2,45.392L424.51,45.386L425.82,45.373L427.14,45.371L428.45,45.351L429.76,45.342L431.08,45.338L432.39,45.375L433.7,45.338L435.02,45.336L436.33,45.291L437.64,45.324L438.96,45.322L440.27,45.295L441.58,45.291L442.9,45.281L444.21,45.299L445.52,45.264L446.84,45.252L448.15,45.266L449.46,45.25L450.78,45.27L452.09,45.258L453.4,45.243L454.72,45.256L456.03,45.262L457.34,45.252L458.66,45.252L459.97,45.25L461.28,45.256L462.6,45.239L463.91,45.241L465.22,45.239L466.54,45.233L467.85,45.225L469.16,45.215L470.48,45.219L471.79,45.21L473.1,45.21L474.42,45.213L475.73,45.219L477.04,45.196L478.36,45.21L479.67,45.202L480.98,45.204L482.3,45.192L483.61,45.2L484.92,45.194L486.24,45.196L487.55,45.21L488.86,45.192L490.18,45.177L491.49,45.165L492.8,45.188L494.12,45.196L495.43,45.188L496.74,45.18L498.06,45.177L499.37,45.188L500.68,45.188L502,45.175L503.31,45.182L504.62,45.169L505.93,45.192L507.25,45.173L508.56,45.177L509.87,45.177L511.19,45.18L512.5,45.179L513.81,45.179L515.13,45.159L516.44,45.161L517.75,45.177L519.07,45.169L520.38,45.177L521.69,45.161L523.01,45.171L524.32,45.173L525.63,45.167L526.95,45.167L528.26,45.153L529.57,45.165L530.89,45.163L532.2,45.161L533.51,45.153L534.83,45.163L536.14,45.159L537.45,45.159L538.77,45.165L540.08,45.167L541.39,45.157L542.71,45.159L544.02,45.159L545.33,45.155L546.65,45.159L547.96,45.157L549.27,45.159L550.59,45.153L551.9,45.157L553.21,45.153L554.53,45.157L555.84,45.157L557.15,45.155L558.47,45.161L559.78,45.153L561.09,45.153L562.41,45.153L563.72,45.157L565.03,45.155L566.35,45.151L567.66,45.155L568.97,45.157L570.29,45.151L571.6,45.153L572.91,45.151L575.54,45.153L576.85,45.153L578.17,45.153L579.48,45.159L582.11,45.153L583.42,45.155L586.05,45.157L587.36,45.155L588.67,45.151L589.98,45.151L591.3,45.153L592.61,45.151L593.92,45.153L595.24,45.151L597.86,45.151L599.18,45.151L601.8,45.153L605.74,45.151L607.06,45.151L611,45.153L614.94,45.153L621.5,45.151L622.82,45.151L624.13,45.151L629.38,45.153L630.7,45.153L632.01,45.151L633.32,45.151L634.64,45.151L638.58,45.151L651.71,45.155L666.16,45.151L671.41,45.151L676.66,45.151L720,45.151" style="fill:none;stroke:#0000FF" />
</g>
</svg>
