<?xml version="1.0"?>
<!-- Generated by SVGo and Plotinum VG -->
<svg width="720pt" height="432pt" viewBox="0 0 720 432"
	xmlns="http://www.w3.org/2000/svg"
	xmlns:xlink="http://www.w3.org/1999/xlink">
<g transform="scale(1, -1) translate(0, -432)">
<path d="M0,0L720,0L720,432L0,432Z" style="fill:#FFFFFF" />
<text x="358.5" y="-420.45" transform="scale(1, -1)"
	style="font-family:Times;font-weight:normal;font-style:normal;font-size:12px"> </text>
<text x="379.31" y="-3.8613" transform="scale(1, -1)"
	style="font-family:Times;font-weight:normal;font-style:normal;font-size:12px">Costs</text>
<text x="62.805" y="-18.634" transform="scale(1, -1)"
	style="font-family:Times;font-weight:normal;font-style:normal;font-size:10px">0</text>
<text x="241.71" y="-18.634" transform="scale(1, -1)"
	style="font-family:Times;font-weight:normal;font-style:normal;font-size:10px">100</text>
<text x="425.61" y="-18.634" transform="scale(1, -1)"
	style="font-family:Times;font-weight:normal;font-style:normal;font-size:10px">200</text>
<text x="609.51" y="-18.634" transform="scale(1, -1)"
	style="font-family:Times;font-weight:normal;font-style:normal;font-size:10px">300</text>
<path d="M65.305,28.263L65.305,36.263" style="fill:none;stroke:#000000;stroke-width:0.5" />
<path d="M249.21,28.263L249.21,36.263" style="fill:none;stroke:#000000;stroke-width:0.5" />
<path d="M433.11,28.263L433.11,36.263" style="fill:none;stroke:#000000;stroke-width:0.5" />
<path d="M617.01,28.263L617.01,36.263" style="fill:none;stroke:#000000;stroke-width:0.5" />
<path d="M102.09,32.263L102.09,36.263" style="fill:none;stroke:#000000;stroke-width:0.5" />
<path d="M138.87,32.263L138.87,36.263" style="fill:none;stroke:#000000;stroke-width:0.5" />
<path d="M175.65,32.263L175.65,36.263" style="fill:none;stroke:#000000;stroke-width:0.5" />
<path d="M212.43,32.263L212.43,36.263" style="fill:none;stroke:#000000;stroke-width:0.5" />
<path d="M285.99,32.263L285.99,36.263" style="fill:none;stroke:#000000;stroke-width:0.5" />
<path d="M322.77,32.263L322.77,36.263" style="fill:none;stroke:#000000;stroke-width:0.5" />
<path d="M359.55,32.263L359.55,36.263" style="fill:none;stroke:#000000;stroke-width:0.5" />
<path d="M396.33,32.263L396.33,36.263" style="fill:none;stroke:#000000;stroke-width:0.5" />
<path d="M469.89,32.263L469.89,36.263" style="fill:none;stroke:#000000;stroke-width:0.5" />
<path d="M506.67,32.263L506.67,36.263" style="fill:none;stroke:#000000;stroke-width:0.5" />
<path d="M543.45,32.263L543.45,36.263" style="fill:none;stroke:#000000;stroke-width:0.5" />
<path d="M580.23,32.263L580.23,36.263" style="fill:none;stroke:#000000;stroke-width:0.5" />
<path d="M653.79,32.263L653.79,36.263" style="fill:none;stroke:#000000;stroke-width:0.5" />
<path d="M690.58,32.263L690.58,36.263" style="fill:none;stroke:#000000;stroke-width:0.5" />
<path d="M65.305,36.263L720,36.263" style="fill:none;stroke:#000000;stroke-width:0.5" />
<g transform="rotate(90)">
<text x="152.55" y="11.555" transform="scale(1, -1)"
	style="font-family:Times;font-weight:normal;font-style:normal;font-size:12px">Number of trials (1000000 total)</text>
</g>
<text x="19.055" y="-127.75" transform="scale(1, -1)"
	style="font-family:Times;font-weight:normal;font-style:normal;font-size:10px">100000</text>
<text x="19.055" y="-213.55" transform="scale(1, -1)"
	style="font-family:Times;font-weight:normal;font-style:normal;font-size:10px">200000</text>
<text x="19.055" y="-299.35" transform="scale(1, -1)"
	style="font-family:Times;font-weight:normal;font-style:normal;font-size:10px">300000</text>
<text x="19.055" y="-385.15" transform="scale(1, -1)"
	style="font-family:Times;font-weight:normal;font-style:normal;font-size:10px">400000</text>
<path d="M51.555,130.95L59.555,130.95" style="fill:none;stroke:#000000;stroke-width:0.5" />
<path d="M51.555,216.75L59.555,216.75" style="fill:none;stroke:#000000;stroke-width:0.5" />
<path d="M51.555,302.55L59.555,302.55" style="fill:none;stroke:#000000;stroke-width:0.5" />
<path d="M51.555,388.35L59.555,388.35" style="fill:none;stroke:#000000;stroke-width:0.5" />
<path d="M55.555,62.311L59.555,62.311" style="fill:none;stroke:#000000;stroke-width:0.5" />
<path d="M55.555,79.471L59.555,79.471" style="fill:none;stroke:#000000;stroke-width:0.5" />
<path d="M55.555,96.631L59.555,96.631" style="fill:none;stroke:#000000;stroke-width:0.5" />
<path d="M55.555,113.79L59.555,113.79" style="fill:none;stroke:#000000;stroke-width:0.5" />
<path d="M55.555,148.11L59.555,148.11" style="fill:none;stroke:#000000;stroke-width:0.5" />
<path d="M55.555,165.27L59.555,165.27" style="fill:none;stroke:#000000;stroke-width:0.5" />
<path d="M55.555,182.43L59.555,182.43" style="fill:none;stroke:#000000;stroke-width:0.5" />
<path d="M55.555,199.59L59.555,199.59" style="fill:none;stroke:#000000;stroke-width:0.5" />
<path d="M55.555,233.91L59.555,233.91" style="fill:none;stroke:#000000;stroke-width:0.5" />
<path d="M55.555,251.07L59.555,251.07" style="fill:none;stroke:#000000;stroke-width:0.5" />
<path d="M55.555,268.23L59.555,268.23" style="fill:none;stroke:#000000;stroke-width:0.5" />
<path d="M55.555,285.39L59.555,285.39" style="fill:none;stroke:#000000;stroke-width:0.5" />
<path d="M55.555,319.71L59.555,319.71" style="fill:none;stroke:#000000;stroke-width:0.5" />
<path d="M55.555,336.87L59.555,336.87" style="fill:none;stroke:#000000;stroke-width:0.5" />
<path d="M55.555,354.03L59.555,354.03" style="fill:none;stroke:#000000;stroke-width:0.5" />
<path d="M55.555,371.19L59.555,371.19" style="fill:none;stroke:#000000;stroke-width:0.5" />
<path d="M55.555,405.51L59.555,405.51" style="fill:none;stroke:#000000;stroke-width:0.5" />
<path d="M59.555,45.151L59.555,416.58" style="fill:none;stroke:#000000;stroke-width:0.5" />
<path d="M65.305,416.58L105.76,48.683L107.6,48.643L113.12,48.602L114.96,52.076L124.15,48.643L125.99,48.757L127.83,74.301L129.67,69.836L135.19,48.649L137.03,48.689L138.87,73.162L140.7,66.508L142.54,73.418L144.38,66.441L146.22,66.37L148.06,45.189L153.58,45.184L155.42,59.002L157.26,55.468L162.77,77.02L164.61,48.656L166.45,48.708L168.29,63.732L170.13,45.598L171.97,45.398L173.81,48.718L175.65,45.498L177.49,66.853L179.32,45.89L181.16,45.554L183,45.639L184.84,45.729L186.68,46.146L188.52,46.486L190.36,46.442L192.2,47.779L194.04,46.293L195.88,49.139L197.71,45.898L199.55,46.219L201.39,48.009L203.23,49.557L205.07,49.847L206.91,48.856L208.75,48.713L210.59,47.319L212.43,50.307L214.27,47.449L216.11,48.062L217.94,50.215L219.78,50.516L221.62,49.006L223.46,47.493L225.3,49.18L227.14,48.722L228.98,47.082L230.82,48.09L232.66,48.306L234.5,47.061L236.33,49.596L238.17,48.292L240.01,49.895L241.85,50.086L243.69,48.596L245.53,47.229L247.37,47.251L249.21,46.813L251.05,47.115L252.89,47.991L254.72,48.183L256.56,46.835L258.4,47.441L260.24,46.903L262.08,45.764L263.92,45.858L265.76,47.238L267.6,46.518L269.44,46.49L271.28,46.003L273.12,45.781L274.95,47.777L276.79,46.393L278.63,45.876L280.47,46.814L282.31,45.966L284.15,45.88L285.99,46.333L287.83,45.886L289.67,46.34L291.51,45.974L293.34,46.275L295.18,45.987L297.02,45.872L298.86,46.079L300.7,45.954L302.54,45.984L304.38,46.111L306.22,45.947L308.06,45.991L309.9,46.111L311.73,45.881L313.57,45.957L315.41,46.224L317.25,46.124L319.09,45.937L320.93,45.867L322.77,45.854L324.61,45.847L326.45,45.659L328.29,45.761L330.13,45.84L331.96,45.742L333.8,45.775L335.64,45.63L337.48,45.644L339.32,45.731L341.16,45.59L343,45.643L344.84,45.615L346.68,45.489L348.52,45.547L350.35,45.569L352.19,45.586L354.03,45.542L355.87,45.596L357.71,45.482L359.55,45.398L361.39,45.38L363.23,45.392L365.07,45.421L366.91,45.416L368.74,45.338L370.58,45.387L372.42,45.416L374.26,45.355L376.1,45.309L377.94,45.434L379.78,45.337L381.62,45.332L383.46,45.352L385.3,45.334L387.14,45.358L388.97,45.332L390.81,45.313L392.65,45.326L394.49,45.284L396.33,45.311L398.17,45.294L400.01,45.284L401.85,45.285L403.69,45.288L405.53,45.298L407.36,45.275L409.2,45.282L411.04,45.262L412.88,45.284L414.72,45.259L416.56,45.268L418.4,45.253L420.24,45.237L422.08,45.255L423.92,45.234L425.75,45.228L427.59,45.232L429.43,45.236L431.27,45.223L433.11,45.221L434.95,45.221L436.79,45.216L438.63,45.215L440.47,45.205L442.31,45.211L444.15,45.204L445.98,45.22L447.82,45.193L449.66,45.205L451.5,45.203L453.34,45.198L455.18,45.201L457.02,45.193L458.86,45.175L460.7,45.181L462.54,45.193L464.37,45.193L466.21,45.175L468.05,45.189L469.89,45.184L471.73,45.169L473.57,45.172L475.41,45.169L477.25,45.17L479.09,45.174L480.93,45.172L482.76,45.17L484.6,45.163L486.44,45.172L488.28,45.179L490.12,45.176L491.96,45.164L493.8,45.177L495.64,45.169L497.48,45.164L499.32,45.163L501.16,45.169L502.99,45.163L504.83,45.166L506.67,45.165L508.51,45.166L510.35,45.165L512.19,45.162L514.03,45.157L515.87,45.164L517.71,45.157L519.55,45.166L521.38,45.159L523.22,45.162L525.06,45.16L526.9,45.162L528.74,45.156L530.58,45.155L532.42,45.156L534.26,45.157L536.1,45.159L537.94,45.154L539.77,45.154L541.61,45.154L543.45,45.157L545.29,45.158L547.13,45.153L548.97,45.157L550.81,45.157L552.65,45.155L554.49,45.156L556.33,45.153L558.17,45.157L560,45.155L561.84,45.153L563.68,45.152L565.52,45.156L567.36,45.152L569.2,45.153L571.04,45.155L572.88,45.154L574.72,45.151L576.56,45.154L578.39,45.151L580.23,45.153L582.07,45.151L585.75,45.152L587.59,45.151L589.43,45.151L594.95,45.156L596.78,45.151L598.62,45.151L600.46,45.151L602.3,45.153L604.14,45.151L605.98,45.151L609.66,45.152L611.5,45.151L617.01,45.151L618.85,45.151L622.53,45.152L624.37,45.151L626.21,45.151L628.05,45.151L631.73,45.151L635.4,45.152L642.76,45.151L646.44,45.151L650.12,45.151L651.96,45.151L657.47,45.151L664.83,45.151L668.51,45.151L670.35,45.151L677.7,45.151L686.9,45.151L694.25,45.151L718.16,45.151L720,45.151" style="fill:none;stroke:#0000FF" />
</g>
</svg>
