<?xml version="1.0"?>
<!-- Generated by SVGo and Plotinum VG -->
<svg width="720pt" height="432pt" viewBox="0 0 720 432"
	xmlns="http://www.w3.org/2000/svg"
	xmlns:xlink="http://www.w3.org/1999/xlink">
<g transform="scale(1, -1) translate(0, -432)">
<path d="M0,0L720,0L720,432L0,432Z" style="fill:#FFFFFF" />
<text x="358.5" y="-420.45" transform="scale(1, -1)"
	style="font-family:Times;font-weight:normal;font-style:normal;font-size:12px"> </text>
<text x="376.81" y="-3.8613" transform="scale(1, -1)"
	style="font-family:Times;font-weight:normal;font-style:normal;font-size:12px">Costs</text>
<text x="57.805" y="-18.634" transform="scale(1, -1)"
	style="font-family:Times;font-weight:normal;font-style:normal;font-size:10px">0</text>
<text x="363.49" y="-18.634" transform="scale(1, -1)"
	style="font-family:Times;font-weight:normal;font-style:normal;font-size:10px">300</text>
<text x="674.18" y="-18.634" transform="scale(1, -1)"
	style="font-family:Times;font-weight:normal;font-style:normal;font-size:10px">600</text>
<path d="M60.305,28.263L60.305,36.263" style="fill:none;stroke:#000000;stroke-width:0.5" />
<path d="M370.99,28.263L370.99,36.263" style="fill:none;stroke:#000000;stroke-width:0.5" />
<path d="M681.68,28.263L681.68,36.263" style="fill:none;stroke:#000000;stroke-width:0.5" />
<path d="M163.87,32.263L163.87,36.263" style="fill:none;stroke:#000000;stroke-width:0.5" />
<path d="M267.43,32.263L267.43,36.263" style="fill:none;stroke:#000000;stroke-width:0.5" />
<path d="M474.56,32.263L474.56,36.263" style="fill:none;stroke:#000000;stroke-width:0.5" />
<path d="M578.12,32.263L578.12,36.263" style="fill:none;stroke:#000000;stroke-width:0.5" />
<path d="M60.305,36.263L720,36.263" style="fill:none;stroke:#000000;stroke-width:0.5" />
<g transform="rotate(90)">
<text x="152.55" y="11.555" transform="scale(1, -1)"
	style="font-family:Times;font-weight:normal;font-style:normal;font-size:12px">Number of trials (1000000 total)</text>
</g>
<text x="19.055" y="-110.33" transform="scale(1, -1)"
	style="font-family:Times;font-weight:normal;font-style:normal;font-size:10px">10000</text>
<text x="19.055" y="-247.12" transform="scale(1, -1)"
	style="font-family:Times;font-weight:normal;font-style:normal;font-size:10px">30000</text>
<text x="19.055" y="-383.91" transform="scale(1, -1)"
	style="font-family:Times;font-weight:normal;font-style:normal;font-size:10px">50000</text>
<path d="M46.555,113.54L54.555,113.54" style="fill:none;stroke:#000000;stroke-width:0.5" />
<path d="M46.555,250.33L54.555,250.33" style="fill:none;stroke:#000000;stroke-width:0.5" />
<path d="M46.555,387.12L54.555,387.12" style="fill:none;stroke:#000000;stroke-width:0.5" />
<path d="M50.555,181.93L54.555,181.93" style="fill:none;stroke:#000000;stroke-width:0.5" />
<path d="M50.555,318.72L54.555,318.72" style="fill:none;stroke:#000000;stroke-width:0.5" />
<path d="M54.555,45.151L54.555,416.58" style="fill:none;stroke:#000000;stroke-width:0.5" />
<path d="M60.305,416.58L89.302,63.153L92.409,82.563L93.445,55.609L94.48,164.78L95.516,102.29L96.552,55.479L97.587,78.104L99.659,78.952L101.73,66.333L102.77,78.993L104.84,122.29L105.87,48.66L107.94,48.441L111.05,111.82L112.09,100.8L115.19,126.91L116.23,79.739L118.3,129.34L120.37,82.297L121.41,80.997L122.44,105.52L123.48,103.36L124.51,48.017L125.55,46.841L126.58,59.473L127.62,54.063L128.66,58.536L129.69,117.49L130.73,52.736L131.76,62.558L132.8,51.286L133.83,63.126L134.87,54.665L135.91,87.755L136.94,70.526L137.98,53.749L139.01,71.429L140.05,64.521L141.08,52.531L142.12,56.108L143.15,90.265L144.19,127.17L145.23,69.637L146.26,78.405L147.3,76.011L148.33,57.757L149.37,82.741L150.4,86.592L151.44,63.173L152.48,92.05L153.51,74.773L154.55,78.61L155.58,93.664L156.62,89.136L157.65,93.965L158.69,65.403L159.73,78.569L160.76,70.717L161.8,61.737L162.83,87.378L163.87,72.619L164.9,72.632L165.94,78.378L166.97,82.105L168.01,68.987L169.05,71.702L170.08,76.538L171.12,74.91L172.15,70.245L173.19,89.034L174.22,90.251L175.26,73.474L176.3,74.855L177.33,83.145L178.37,106.39L179.4,74.636L180.44,88.274L181.47,87.666L182.51,65.095L183.54,73.111L184.58,78.46L185.62,77.229L186.65,72.605L187.69,85.99L188.72,74.534L189.76,70.902L190.79,75.156L191.83,79.527L192.87,68.378L193.9,77.618L194.94,83.446L195.97,73.535L197.01,70.936L198.04,77.564L199.08,88.049L200.11,73.569L201.15,76.004L202.19,83.767L203.22,68.159L204.26,76.428L205.29,85.429L206.33,82.215L207.36,84.349L208.4,75.102L209.44,72.407L210.47,74.472L211.51,71.866L212.54,81.339L213.58,82.987L214.61,74.37L215.65,77.646L216.68,69.671L217.72,75.943L218.76,75.437L219.79,77.858L220.83,73.371L221.86,71.866L222.9,74.267L223.93,69.897L224.97,73.44L226.01,72.824L227.04,75.293L228.08,71.935L229.11,75.922L230.15,73.74L231.18,70.239L232.22,73.918L233.25,75.847L234.29,72.249L235.33,74.144L236.36,78.542L237.4,69.541L238.43,73.884L239.47,75.382L240.5,74.397L241.54,72.865L242.58,71.36L243.61,71.559L244.65,67.441L245.68,68.043L246.72,71.538L247.75,70.423L248.79,69.568L249.82,73.296L250.86,70.916L251.9,67.434L252.93,69.486L253.97,69.055L255,68.214L256.04,68.112L257.07,72.12L258.11,68.713L259.15,67.175L260.18,66.552L261.22,68.891L262.25,68.303L263.29,67.947L264.32,69.315L265.36,65.991L266.39,64.37L267.43,66.559L268.47,67.633L269.5,66.272L270.54,66.313L271.57,66.155L272.61,63.269L273.64,65.191L274.68,65.882L275.72,65.15L276.75,64.37L277.79,65.506L278.82,62.702L279.86,62.113L280.89,63.44L281.93,64.09L282.96,63.803L284,62.414L285.04,63.673L286.07,61.087L287.11,62.414L288.14,62.989L289.18,63.023L290.21,62.763L291.25,62.332L292.29,62.236L293.32,60.698L294.36,61.293L295.39,60.568L296.43,61.525L297.46,60.8L298.5,61.655L299.53,60.533L300.57,59.179L301.61,60.417L302.64,59.877L303.68,59.699L304.71,59.384L305.75,59.795L306.78,58.68L307.82,58.837L308.86,59.713L309.89,58.126L310.93,58.03L311.96,58.228L313,58.406L314.03,57.668L315.07,57.244L316.1,57.688L317.14,57.319L318.18,57.182L319.21,57.777L320.25,57.196L321.28,56.696L322.32,56.307L323.35,56.724L324.39,56.197L325.43,56.683L326.46,56.539L327.5,54.946L328.53,55.5L329.57,55.739L330.6,55.664L331.64,54.98L332.67,54.822L333.71,55.486L334.75,55.185L335.78,54.214L336.82,54.651L337.85,54.309L338.89,53.838L339.92,54.056L340.96,54.248L342,53.133L343.03,53.612L344.07,53.639L345.1,53.496L346.14,53.113L347.17,53.482L348.21,52.435L349.25,52.716L350.28,52.415L351.32,53.208L352.35,52.476L353.39,52.107L354.42,52.654L355.46,51.977L356.49,51.991L357.53,51.615L358.57,52.223L359.6,51.813L360.64,51.656L361.67,51.232L362.71,51.218L363.74,51.095L364.78,51.245L365.82,50.856L366.85,51.006L367.89,51.04L368.92,50.944L369.96,50.602L370.99,50.643L372.03,50.609L373.06,50.445L374.1,50.397L375.14,50.308L376.17,49.843L377.21,49.98L378.24,49.946L379.28,49.768L380.31,49.727L381.35,49.522L382.39,49.57L383.42,49.344L384.46,49.317L385.49,49.098L386.53,49.296L387.56,49.159L388.6,49.303L389.63,48.961L390.67,48.852L391.71,48.886L392.74,48.735L393.78,48.824L394.81,48.687L395.85,48.879L396.88,48.414L397.92,48.687L398.96,48.475L399.99,48.339L401.03,48.133L402.06,48.366L403.1,48.174L404.13,48.058L405.17,47.921L406.2,48.092L407.24,47.785L408.28,47.88L409.31,47.86L410.35,47.716L411.38,47.511L412.42,47.579L413.45,47.744L414.49,47.709L415.53,47.422L416.56,47.504L417.6,47.06L418.63,47.436L419.67,47.299L420.7,47.367L421.74,47.196L422.77,47.402L423.81,47.203L424.85,47.101L425.88,47.149L426.92,46.991L427.95,47.046L428.99,46.943L430.02,46.834L431.06,46.779L432.1,46.779L433.13,46.745L434.17,46.731L435.2,46.827L436.24,46.759L437.27,46.779L438.31,46.581L439.34,46.69L440.38,46.56L441.42,46.683L442.45,46.608L443.49,46.677L444.52,46.512L445.56,46.294L446.59,46.287L447.63,46.225L448.67,46.444L449.7,46.396L450.74,46.355L451.77,46.136L452.81,46.184L453.84,46.198L454.88,46.191L455.91,46.15L456.95,46.205L457.99,46.095L459.02,45.993L460.06,46.047L461.09,46.02L462.13,45.965L463.16,46.027L464.2,46.116L465.24,45.999L466.27,46.047L467.31,45.904L468.34,45.856L469.38,45.746L470.41,45.849L471.45,45.842L472.48,45.822L473.52,45.774L474.56,45.753L475.59,45.787L476.63,45.787L477.66,45.753L478.7,45.664L479.73,45.507L480.77,45.794L481.81,45.678L482.84,45.616L483.88,45.664L484.91,45.74L485.95,45.637L486.98,45.589L488.02,45.678L489.05,45.63L490.09,45.623L491.13,45.589L492.16,45.589L493.2,45.466L494.23,45.562L495.27,45.623L496.3,45.48L497.34,45.514L498.38,45.473L499.41,45.466L500.45,45.473L501.48,45.528L502.52,45.445L503.55,45.562L504.59,45.425L505.62,45.466L506.66,45.439L507.7,45.439L508.73,45.418L509.77,45.432L510.8,45.384L511.84,45.322L512.87,45.452L513.91,45.418L514.95,45.398L515.98,45.357L517.02,45.404L518.05,45.439L519.09,45.302L520.12,45.384L521.16,45.363L522.19,45.357L523.23,45.336L524.27,45.309L525.3,45.343L526.34,45.295L527.37,45.37L528.41,45.309L529.44,45.316L530.48,45.357L531.52,45.274L532.55,45.329L533.59,45.302L534.62,45.274L535.66,45.316L536.69,45.302L537.73,45.281L538.77,45.329L539.8,45.268L540.84,45.24L541.87,45.268L542.91,45.295L543.94,45.233L544.98,45.254L546.01,45.233L547.05,45.227L548.09,45.274L549.12,45.268L550.16,45.261L551.19,45.192L552.23,45.213L553.26,45.199L554.3,45.281L555.34,45.213L556.37,45.199L557.41,45.22L558.44,45.247L559.48,45.247L560.51,45.227L561.55,45.261L562.58,45.213L563.62,45.172L564.66,45.213L565.69,45.179L566.73,45.206L567.76,45.172L568.8,45.199L569.83,45.213L570.87,45.22L571.91,45.192L572.94,45.192L573.98,45.186L575.01,45.186L576.05,45.179L577.08,45.213L578.12,45.206L579.15,45.165L580.19,45.179L581.23,45.165L582.26,45.179L583.3,45.172L584.33,45.179L585.37,45.186L586.4,45.151L587.44,45.186L588.48,45.179L589.51,45.179L590.55,45.179L591.58,45.172L592.62,45.172L593.65,45.199L595.72,45.165L596.76,45.179L597.8,45.165L598.83,45.199L599.87,45.165L600.9,45.172L601.94,45.151L602.97,45.172L604.01,45.192L605.05,45.158L608.15,45.158L609.19,45.165L610.22,45.165L611.26,45.158L612.29,45.151L613.33,45.151L614.37,45.158L615.4,45.172L616.44,45.158L618.51,45.158L620.58,45.165L621.62,45.165L622.65,45.151L623.69,45.151L624.72,45.165L625.76,45.151L626.79,45.151L627.83,45.158L629.9,45.158L630.94,45.151L631.97,45.151L633.01,45.158L634.04,45.158L635.08,45.158L636.11,45.158L637.15,45.151L641.29,45.158L642.33,45.151L644.4,45.151L645.43,45.151L647.51,45.151L648.54,45.165L650.61,45.158L654.76,45.151L657.86,45.158L659.93,45.151L660.97,45.151L662,45.151L667.18,45.151L673.4,45.165L676.5,45.151L677.54,45.151L687.9,45.151L695.14,45.151L707.57,45.151L720,45.151" style="fill:none;stroke:#0000FF" />
</g>
</svg>
