<?xml version="1.0"?>
<!-- Generated by SVGo and Plotinum VG -->
<svg width="720pt" height="432pt" viewBox="0 0 720 432"
	xmlns="http://www.w3.org/2000/svg"
	xmlns:xlink="http://www.w3.org/1999/xlink">
<g transform="scale(1, -1) translate(0, -432)">
<path d="M0,0L720,0L720,432L0,432Z" style="fill:#FFFFFF" />
<text x="358.5" y="-420.45" transform="scale(1, -1)"
	style="font-family:Times;font-weight:normal;font-style:normal;font-size:12px"> </text>
<text x="385.56" y="-3.8613" transform="scale(1, -1)"
	style="font-family:Times;font-weight:normal;font-style:normal;font-size:12px">Costs</text>
<text x="69.055" y="-18.634" transform="scale(1, -1)"
	style="font-family:Times;font-weight:normal;font-style:normal;font-size:10px">0.00</text>
<text x="345.72" y="-18.634" transform="scale(1, -1)"
	style="font-family:Times;font-weight:normal;font-style:normal;font-size:10px">250.00</text>
<text x="627.38" y="-18.634" transform="scale(1, -1)"
	style="font-family:Times;font-weight:normal;font-style:normal;font-size:10px">500.00</text>
<path d="M77.805,28.263L77.805,36.263" style="fill:none;stroke:#000000;stroke-width:0.5" />
<path d="M359.47,28.263L359.47,36.263" style="fill:none;stroke:#000000;stroke-width:0.5" />
<path d="M641.13,28.263L641.13,36.263" style="fill:none;stroke:#000000;stroke-width:0.5" />
<path d="M134.14,32.263L134.14,36.263" style="fill:none;stroke:#000000;stroke-width:0.5" />
<path d="M190.47,32.263L190.47,36.263" style="fill:none;stroke:#000000;stroke-width:0.5" />
<path d="M246.8,32.263L246.8,36.263" style="fill:none;stroke:#000000;stroke-width:0.5" />
<path d="M303.14,32.263L303.14,36.263" style="fill:none;stroke:#000000;stroke-width:0.5" />
<path d="M415.8,32.263L415.8,36.263" style="fill:none;stroke:#000000;stroke-width:0.5" />
<path d="M472.14,32.263L472.14,36.263" style="fill:none;stroke:#000000;stroke-width:0.5" />
<path d="M528.47,32.263L528.47,36.263" style="fill:none;stroke:#000000;stroke-width:0.5" />
<path d="M584.8,32.263L584.8,36.263" style="fill:none;stroke:#000000;stroke-width:0.5" />
<path d="M697.47,32.263L697.47,36.263" style="fill:none;stroke:#000000;stroke-width:0.5" />
<path d="M77.805,36.263L720,36.263" style="fill:none;stroke:#000000;stroke-width:0.5" />
<g transform="rotate(90)">
<text x="152.55" y="11.555" transform="scale(1, -1)"
	style="font-family:Times;font-weight:normal;font-style:normal;font-size:12px">Number of trials (1000000 total)</text>
</g>
<text x="24.055" y="-109.21" transform="scale(1, -1)"
	style="font-family:Times;font-weight:normal;font-style:normal;font-size:10px">25000.00</text>
<text x="24.055" y="-243.75" transform="scale(1, -1)"
	style="font-family:Times;font-weight:normal;font-style:normal;font-size:10px">75000.00</text>
<text x="19.055" y="-378.28" transform="scale(1, -1)"
	style="font-family:Times;font-weight:normal;font-style:normal;font-size:10px">125000.00</text>
<path d="M64.055,112.42L72.055,112.42" style="fill:none;stroke:#000000;stroke-width:0.5" />
<path d="M64.055,246.95L72.055,246.95" style="fill:none;stroke:#000000;stroke-width:0.5" />
<path d="M64.055,381.49L72.055,381.49" style="fill:none;stroke:#000000;stroke-width:0.5" />
<path d="M68.055,58.602L72.055,58.602" style="fill:none;stroke:#000000;stroke-width:0.5" />
<path d="M68.055,85.51L72.055,85.51" style="fill:none;stroke:#000000;stroke-width:0.5" />
<path d="M68.055,139.32L72.055,139.32" style="fill:none;stroke:#000000;stroke-width:0.5" />
<path d="M68.055,166.23L72.055,166.23" style="fill:none;stroke:#000000;stroke-width:0.5" />
<path d="M68.055,193.14L72.055,193.14" style="fill:none;stroke:#000000;stroke-width:0.5" />
<path d="M68.055,220.05L72.055,220.05" style="fill:none;stroke:#000000;stroke-width:0.5" />
<path d="M68.055,273.86L72.055,273.86" style="fill:none;stroke:#000000;stroke-width:0.5" />
<path d="M68.055,300.77L72.055,300.77" style="fill:none;stroke:#000000;stroke-width:0.5" />
<path d="M68.055,327.67L72.055,327.67" style="fill:none;stroke:#000000;stroke-width:0.5" />
<path d="M68.055,354.58L72.055,354.58" style="fill:none;stroke:#000000;stroke-width:0.5" />
<path d="M68.055,408.4L72.055,408.4" style="fill:none;stroke:#000000;stroke-width:0.5" />
<path d="M72.055,45.151L72.055,416.58" style="fill:none;stroke:#000000;stroke-width:0.5" />
<path d="M77.805,416.58L102.59,52.093L103.72,48.824L107.1,56.501L108.22,52.22L109.35,62.507L110.48,51.954L112.73,63.217L113.86,55.747L114.98,48.77L116.11,78.142L117.24,124.65L119.49,52.252L121.74,95.476L122.87,59.345L124,74.082L125.12,113.64L126.25,124.32L127.38,66.535L128.5,45.229L129.63,59.544L131.88,45.388L133.01,67.813L134.14,52.658L135.26,52.414L136.39,45.216L137.52,56.565L138.64,52.718L139.77,45.819L140.9,83.793L142.02,58.064L143.15,68.52L144.28,114.77L145.4,46.995L146.53,67.344L147.66,63.76L148.78,58.102L149.91,48.499L151.04,50.554L152.16,52.411L153.29,62.62L154.42,51.13L155.54,57.849L156.67,55.971L157.8,53.702L158.92,51.905L160.05,61.662L161.18,64.137L162.3,56.038L163.43,60.386L164.56,72.414L165.68,67.802L166.81,54.224L167.94,57.585L169.06,99.135L170.19,62.512L171.32,60.615L172.44,61.772L173.57,69.513L174.7,56.832L175.82,57.698L176.95,57.642L178.08,55.387L179.2,57.9L180.33,62.337L181.46,59.138L182.58,64.266L183.71,63.833L184.84,57.494L185.96,59.636L187.09,58.32L188.22,66.656L189.34,62.394L190.47,64.323L191.6,68.205L192.72,69.54L193.85,58.08L194.98,57.324L196.1,58.968L197.23,53.31L198.36,53.926L199.48,58.021L200.61,56.21L201.74,55.581L202.86,52.519L203.99,57.136L205.12,54.666L206.24,53.697L207.37,63.758L208.5,64.718L209.62,59.084L210.75,55.19L211.88,55.416L213,63.728L214.13,56.315L215.26,57.609L216.38,61.161L217.51,61.963L218.64,55.371L219.76,55.567L220.89,54.623L222.02,53.84L223.14,53.821L224.27,55.688L225.4,54.02L226.52,55.002L227.65,55.387L228.78,55.809L229.9,55.425L231.03,56.304L232.16,58.102L233.28,54.518L234.41,56.366L235.54,61.145L236.66,54.416L237.79,55.677L238.92,55.613L240.04,55.793L241.17,52.446L242.3,52.554L243.42,52.771L244.55,53.6L245.68,52.438L246.8,53.237L247.93,52.987L249.06,52.898L250.18,51.176L251.31,53.404L252.44,53.315L253.56,52.658L254.69,52.804L255.82,54.542L256.94,54.235L258.07,52.067L259.2,52.145L260.32,52.147L261.45,52.43L262.58,51.999L263.7,51.919L264.83,52.411L265.96,50.78L267.08,51.014L268.21,50.834L269.34,50.39L270.46,50.549L271.59,51.165L272.72,51.039L273.84,51.351L274.97,51.41L276.1,50.651L277.22,50.7L278.35,51.082L279.48,51.421L280.6,50.24L281.73,50.791L282.86,51.275L283.98,51.195L285.11,50.019L286.24,49.505L287.36,49.521L288.49,49.107L289.62,48.961L290.74,49.389L291.87,49.265L293,49.083L294.12,49.072L295.25,49.085L296.38,48.881L297.5,48.9L298.63,49.446L299.76,49.048L300.88,49.174L302.01,48.709L303.14,48.87L304.26,48.972L305.39,48.595L306.52,48.485L307.64,48.211L308.77,48.117L309.9,48.006L311.02,48.17L312.15,47.982L313.28,47.858L314.4,47.807L315.53,47.829L316.66,47.745L317.78,48.092L318.91,47.974L320.04,47.753L321.16,47.767L322.29,47.928L323.42,47.57L324.54,47.63L325.67,47.538L326.8,47.519L327.92,47.592L329.05,47.352L330.18,47.363L331.3,47.452L332.43,47.073L333.56,47.124L334.68,46.995L335.81,47.024L336.94,46.916L338.06,47.108L339.19,46.892L340.32,46.908L341.44,46.744L342.57,47.003L343.7,46.768L344.82,46.779L345.95,46.666L347.08,46.661L348.2,46.825L349.33,46.596L350.46,46.494L351.58,46.33L352.71,46.639L353.84,46.464L354.96,46.443L356.09,46.316L357.22,46.327L358.34,46.265L359.47,46.341L360.6,46.142L361.72,46.209L362.85,46.26L363.98,46.163L365.1,46.195L366.23,46.061L367.36,46.177L368.48,45.972L369.61,46.074L370.74,45.961L371.86,45.988L372.99,45.907L374.12,45.894L375.24,45.918L376.37,45.942L377.5,45.862L378.62,45.84L379.75,45.902L380.88,45.829L382,45.84L383.13,45.894L384.26,45.899L385.38,45.776L386.51,45.789L387.64,45.856L388.76,45.759L389.89,45.684L391.02,45.703L392.14,45.692L393.27,45.663L394.4,45.617L395.52,45.633L396.65,45.636L397.78,45.603L398.9,45.601L400.03,45.577L401.16,45.593L402.28,45.585L403.41,45.582L404.54,45.528L405.66,45.512L406.79,45.493L407.92,45.498L409.04,45.531L410.17,45.477L411.3,45.498L412.42,45.52L413.55,45.461L414.68,45.42L415.8,45.466L416.93,45.412L418.06,45.391L419.18,45.426L420.31,45.399L421.44,45.394L422.56,45.455L423.69,45.429L424.82,45.404L425.94,45.356L427.07,45.364L428.2,45.35L429.32,45.348L430.45,45.34L431.58,45.35L432.7,45.305L433.83,45.337L434.96,45.329L436.08,45.342L437.21,45.31L438.34,45.34L439.46,45.313L440.59,45.294L441.72,45.307L442.84,45.297L443.97,45.334L445.1,45.297L446.22,45.275L447.35,45.307L448.48,45.283L449.6,45.272L450.73,45.235L451.86,45.275L452.98,45.235L454.11,45.246L455.24,45.254L456.36,45.24L457.49,45.251L458.62,45.246L459.74,45.237L460.87,45.213L462,45.208L463.12,45.194L464.25,45.229L465.38,45.202L466.5,45.2L467.63,45.205L468.76,45.208L469.88,45.197L471.01,45.221L472.14,45.192L473.26,45.208L474.39,45.213L475.52,45.227L476.64,45.192L477.77,45.192L478.9,45.186L480.02,45.202L481.15,45.2L482.28,45.205L483.4,45.208L484.53,45.168L485.66,45.192L486.78,45.189L487.91,45.197L489.04,45.181L490.16,45.202L491.29,45.176L492.41,45.178L493.54,45.173L494.67,45.184L495.79,45.197L496.92,45.184L498.05,45.17L499.17,45.17L500.3,45.168L501.43,45.184L502.55,45.181L503.68,45.181L504.81,45.168L505.93,45.173L507.06,45.168L508.19,45.162L509.31,45.154L510.44,45.168L511.57,45.168L512.69,45.159L513.82,45.165L514.95,45.159L516.07,45.173L517.2,45.176L518.33,45.17L519.45,45.168L520.58,45.154L521.71,45.17L522.83,45.168L523.96,45.154L525.09,45.157L526.21,45.168L527.34,45.154L528.47,45.165L529.59,45.159L530.72,45.165L531.85,45.162L532.97,45.154L534.1,45.168L535.23,45.154L536.35,45.157L537.48,45.151L538.61,45.157L539.73,45.157L540.86,45.157L541.99,45.157L543.11,45.17L544.24,45.154L545.37,45.154L546.49,45.154L547.62,45.151L548.75,45.151L549.87,45.151L555.51,45.151L556.63,45.154L557.76,45.151L560.01,45.157L561.14,45.154L562.27,45.154L563.39,45.154L564.52,45.154L567.9,45.151L569.03,45.151L570.15,45.151L572.41,45.151L573.53,45.151L574.66,45.151L575.79,45.154L583.67,45.154L584.8,45.151L585.93,45.151L587.05,45.151L588.18,45.151L590.43,45.151L592.69,45.151L593.81,45.151L594.94,45.151L598.32,45.154L599.45,45.151L600.57,45.151L605.08,45.151L606.21,45.151L623.11,45.151L628.74,45.151L652.4,45.151L658.03,45.151L662.54,45.151L720,45.151" style="fill:none;stroke:#0000FF" />
</g>
</svg>
