<?xml version="1.0"?>
<!-- Generated by SVGo and Plotinum VG -->
<svg width="720pt" height="432pt" viewBox="0 0 720 432"
	xmlns="http://www.w3.org/2000/svg"
	xmlns:xlink="http://www.w3.org/1999/xlink">
<g transform="scale(1, -1) translate(0, -432)">
<path d="M0,0L720,0L720,432L0,432Z" style="fill:#FFFFFF" />
<text x="358.5" y="-420.45" transform="scale(1, -1)"
	style="font-family:Times;font-weight:normal;font-style:normal;font-size:12px"> </text>
<text x="379.31" y="-3.8613" transform="scale(1, -1)"
	style="font-family:Times;font-weight:normal;font-style:normal;font-size:12px">Costs</text>
<text x="62.805" y="-18.634" transform="scale(1, -1)"
	style="font-family:Times;font-weight:normal;font-style:normal;font-size:10px">0</text>
<text x="347.49" y="-18.634" transform="scale(1, -1)"
	style="font-family:Times;font-weight:normal;font-style:normal;font-size:10px">200</text>
<text x="637.18" y="-18.634" transform="scale(1, -1)"
	style="font-family:Times;font-weight:normal;font-style:normal;font-size:10px">400</text>
<path d="M65.305,28.263L65.305,36.263" style="fill:none;stroke:#000000;stroke-width:0.5" />
<path d="M354.99,28.263L354.99,36.263" style="fill:none;stroke:#000000;stroke-width:0.5" />
<path d="M644.68,28.263L644.68,36.263" style="fill:none;stroke:#000000;stroke-width:0.5" />
<path d="M210.15,32.263L210.15,36.263" style="fill:none;stroke:#000000;stroke-width:0.5" />
<path d="M499.84,32.263L499.84,36.263" style="fill:none;stroke:#000000;stroke-width:0.5" />
<path d="M65.305,36.263L720,36.263" style="fill:none;stroke:#000000;stroke-width:0.5" />
<g transform="rotate(90)">
<text x="152.55" y="11.555" transform="scale(1, -1)"
	style="font-family:Times;font-weight:normal;font-style:normal;font-size:12px">Number of trials (1000000 total)</text>
</g>
<text x="24.055" y="-108.56" transform="scale(1, -1)"
	style="font-family:Times;font-weight:normal;font-style:normal;font-size:10px">50000</text>
<text x="19.055" y="-241.78" transform="scale(1, -1)"
	style="font-family:Times;font-weight:normal;font-style:normal;font-size:10px">150000</text>
<text x="19.055" y="-375" transform="scale(1, -1)"
	style="font-family:Times;font-weight:normal;font-style:normal;font-size:10px">250000</text>
<path d="M51.555,111.76L59.555,111.76" style="fill:none;stroke:#000000;stroke-width:0.5" />
<path d="M51.555,244.98L59.555,244.98" style="fill:none;stroke:#000000;stroke-width:0.5" />
<path d="M51.555,378.21L59.555,378.21" style="fill:none;stroke:#000000;stroke-width:0.5" />
<path d="M55.555,178.37L59.555,178.37" style="fill:none;stroke:#000000;stroke-width:0.5" />
<path d="M55.555,311.6L59.555,311.6" style="fill:none;stroke:#000000;stroke-width:0.5" />
<path d="M59.555,45.151L59.555,416.58" style="fill:none;stroke:#000000;stroke-width:0.5" />
<path d="M65.305,416.58L100.07,52.048L102.96,77.771L104.41,59.138L107.31,52.196L110.21,51.83L111.65,48.522L113.1,59.439L114.55,52.055L116,77.064L118.9,58.969L120.35,69.642L121.79,73.412L123.24,69.552L124.69,62.385L126.14,55.447L127.59,52.004L130.48,62.238L131.93,52.172L134.83,59.574L136.28,73.14L137.73,52.701L139.18,48.858L140.62,45.863L142.07,78.396L143.52,52.18L144.97,49.396L146.42,55.9L147.87,52.941L149.31,49.385L150.76,64.35L152.21,53.377L153.66,62.201L155.11,57.574L156.56,64.361L158,49.076L159.45,49.152L160.9,49.376L162.35,66.884L163.8,48.619L165.25,48.16L166.7,47.912L168.14,48.634L169.59,50.087L171.04,49.893L172.49,50.511L173.94,51.963L175.39,50.673L176.83,50.807L178.28,50.203L179.73,52.264L181.18,55.319L182.63,56.421L184.08,50.307L185.53,51.168L186.97,51.507L188.42,50.675L189.87,51.847L191.32,51.967L192.77,54.358L194.22,51.926L195.66,51.048L197.11,51.791L198.56,51.132L200.01,52.391L201.46,53.592L202.91,50.476L204.36,51.124L205.8,50.715L207.25,53.277L208.7,50.897L210.15,50.793L211.6,51.967L213.05,53.73L214.49,49.622L215.94,50.119L217.39,50.057L218.84,50.586L220.29,50.753L221.74,50.451L223.18,49.474L224.63,49.311L226.08,48.69L227.53,51.01L228.98,48.683L230.43,48.971L231.88,49.72L233.32,50.959L234.77,48.487L236.22,48.275L237.67,48.727L239.12,50.51L240.57,48.831L242.01,48.69L243.46,48.591L244.91,48.478L246.36,48.072L247.81,48.842L249.26,47.854L250.71,48.454L252.15,48.347L253.6,48.755L255.05,47.573L256.5,47.463L257.95,47.756L259.4,48.202L260.84,47.568L262.29,47.548L263.74,47.691L265.19,47.593L266.64,47.723L268.09,47.814L269.53,47.719L270.98,47.922L272.43,47.711L273.88,47.507L275.33,47.222L276.78,47.382L278.23,47.592L279.67,47.399L281.12,47.124L282.57,47.268L284.02,47.198L285.47,46.99L286.92,47.028L288.36,47.02L289.81,47.084L291.26,47.007L292.71,46.843L294.16,46.757L295.61,46.741L297.06,46.762L298.5,46.942L299.95,46.574L301.4,46.662L302.85,46.675L304.3,46.714L305.75,46.49L307.19,46.42L308.64,46.505L310.09,46.557L311.54,46.346L312.99,46.233L314.44,46.185L315.88,46.285L317.33,46.261L318.78,46.23L320.23,46.201L321.68,46.222L323.13,46.112L324.58,46.108L326.02,46.051L327.47,46.104L328.92,46.101L330.37,46.036L331.82,45.915L333.27,45.895L334.71,45.889L336.16,45.896L337.61,45.983L339.06,45.897L340.51,45.855L341.96,45.805L343.41,45.8L344.85,45.829L346.3,45.75L347.75,45.74L349.2,45.774L350.65,45.712L352.1,45.76L353.54,45.679L354.99,45.727L356.44,45.704L357.89,45.62L359.34,45.638L360.79,45.683L362.24,45.626L363.68,45.596L365.13,45.57L366.58,45.606L368.03,45.592L369.48,45.563L370.93,45.53L372.37,45.539L373.82,45.536L375.27,45.516L376.72,45.48L378.17,45.483L379.62,45.471L381.06,45.478L382.51,45.483L383.96,45.423L385.41,45.431L386.86,45.446L388.31,45.422L389.76,45.415L391.2,45.393L392.65,45.373L394.1,45.381L395.55,45.383L397,45.404L398.45,45.386L399.89,45.357L401.34,45.351L402.79,45.346L404.24,45.337L405.69,45.338L407.14,45.339L408.59,45.341L410.03,45.311L411.48,45.33L412.93,45.314L414.38,45.294L415.83,45.305L417.28,45.298L418.72,45.282L420.17,45.307L421.62,45.306L423.07,45.285L424.52,45.279L425.97,45.259L427.41,45.27L428.86,45.265L430.31,45.267L431.76,45.254L433.21,45.257L434.66,45.251L436.11,45.238L437.55,45.233L439,45.237L440.45,45.231L441.9,45.226L443.35,45.23L444.8,45.258L446.24,45.251L447.69,45.225L449.14,45.215L450.59,45.223L452.04,45.242L453.49,45.219L454.94,45.218L456.38,45.222L457.83,45.213L459.28,45.203L460.73,45.201L462.18,45.213L463.63,45.197L465.07,45.207L466.52,45.214L467.97,45.185L469.42,45.187L470.87,45.191L472.32,45.181L473.77,45.187L475.21,45.193L476.66,45.185L478.11,45.189L479.56,45.179L481.01,45.179L482.46,45.17L483.9,45.179L485.35,45.179L486.8,45.183L488.25,45.175L489.7,45.165L491.15,45.182L492.59,45.173L494.04,45.177L495.49,45.166L496.94,45.171L498.39,45.167L499.84,45.165L501.29,45.165L502.73,45.169L504.18,45.181L505.63,45.175L507.08,45.167L508.53,45.17L509.98,45.163L511.42,45.167L512.87,45.161L514.32,45.166L515.77,45.173L517.22,45.166L518.67,45.155L520.12,45.163L521.56,45.158L523.01,45.162L524.46,45.159L525.91,45.159L527.36,45.153L528.81,45.158L530.25,45.162L531.7,45.163L533.15,45.161L534.6,45.166L536.05,45.166L537.5,45.161L538.94,45.151L540.39,45.159L541.84,45.157L543.29,45.154L544.74,45.155L546.19,45.153L547.64,45.154L549.08,45.153L550.53,45.155L553.43,45.153L554.88,45.155L556.33,45.153L557.77,45.154L559.22,45.154L560.67,45.157L562.12,45.155L565.02,45.154L566.47,45.154L567.91,45.151L569.36,45.157L570.81,45.155L572.26,45.153L573.71,45.154L576.6,45.157L578.05,45.153L579.5,45.158L580.95,45.153L582.4,45.153L583.85,45.153L585.29,45.151L588.19,45.154L589.64,45.153L591.09,45.151L592.54,45.154L595.43,45.154L598.33,45.151L599.78,45.153L601.23,45.151L604.12,45.151L608.47,45.151L611.37,45.153L615.71,45.151L620.06,45.151L622.95,45.151L627.3,45.151L630.2,45.151L634.54,45.151L637.44,45.151L641.78,45.151L644.68,45.151L646.13,45.151L649.03,45.153L653.37,45.151L657.72,45.151L666.41,45.151L704.07,45.151L720,45.151" style="fill:none;stroke:#0000FF" />
</g>
</svg>
