<?xml version="1.0"?>
<!-- Generated by SVGo and Plotinum VG -->
<svg width="720pt" height="432pt" viewBox="0 0 720 432"
	xmlns="http://www.w3.org/2000/svg"
	xmlns:xlink="http://www.w3.org/1999/xlink">
<g transform="scale(1, -1) translate(0, -432)">
<path d="M0,0L720,0L720,432L0,432Z" style="fill:#FFFFFF" />
<text x="358.5" y="-420.45" transform="scale(1, -1)"
	style="font-family:Times;font-weight:normal;font-style:normal;font-size:12px"> </text>
<text x="376.81" y="-3.8613" transform="scale(1, -1)"
	style="font-family:Times;font-weight:normal;font-style:normal;font-size:12px">Costs</text>
<text x="51.555" y="-18.634" transform="scale(1, -1)"
	style="font-family:Times;font-weight:normal;font-style:normal;font-size:10px">0.00</text>
<text x="337.94" y="-18.634" transform="scale(1, -1)"
	style="font-family:Times;font-weight:normal;font-style:normal;font-size:10px">250.00</text>
<text x="629.32" y="-18.634" transform="scale(1, -1)"
	style="font-family:Times;font-weight:normal;font-style:normal;font-size:10px">500.00</text>
<path d="M60.305,28.263L60.305,36.263" style="fill:none;stroke:#000000;stroke-width:0.5" />
<path d="M351.69,28.263L351.69,36.263" style="fill:none;stroke:#000000;stroke-width:0.5" />
<path d="M643.07,28.263L643.07,36.263" style="fill:none;stroke:#000000;stroke-width:0.5" />
<path d="M118.58,32.263L118.58,36.263" style="fill:none;stroke:#000000;stroke-width:0.5" />
<path d="M176.86,32.263L176.86,36.263" style="fill:none;stroke:#000000;stroke-width:0.5" />
<path d="M235.14,32.263L235.14,36.263" style="fill:none;stroke:#000000;stroke-width:0.5" />
<path d="M293.41,32.263L293.41,36.263" style="fill:none;stroke:#000000;stroke-width:0.5" />
<path d="M409.97,32.263L409.97,36.263" style="fill:none;stroke:#000000;stroke-width:0.5" />
<path d="M468.24,32.263L468.24,36.263" style="fill:none;stroke:#000000;stroke-width:0.5" />
<path d="M526.52,32.263L526.52,36.263" style="fill:none;stroke:#000000;stroke-width:0.5" />
<path d="M584.8,32.263L584.8,36.263" style="fill:none;stroke:#000000;stroke-width:0.5" />
<path d="M701.35,32.263L701.35,36.263" style="fill:none;stroke:#000000;stroke-width:0.5" />
<path d="M60.305,36.263L720,36.263" style="fill:none;stroke:#000000;stroke-width:0.5" />
<g transform="rotate(90)">
<text x="152.55" y="11.555" transform="scale(1, -1)"
	style="font-family:Times;font-weight:normal;font-style:normal;font-size:12px">Number of trials (1000000 total)</text>
</g>
<text x="19.055" y="-85.993" transform="scale(1, -1)"
	style="font-family:Times;font-weight:normal;font-style:normal;font-size:10px">10000</text>
<text x="19.055" y="-218.15" transform="scale(1, -1)"
	style="font-family:Times;font-weight:normal;font-style:normal;font-size:10px">40000</text>
<text x="19.055" y="-350.3" transform="scale(1, -1)"
	style="font-family:Times;font-weight:normal;font-style:normal;font-size:10px">70000</text>
<path d="M46.555,89.199L54.555,89.199" style="fill:none;stroke:#000000;stroke-width:0.5" />
<path d="M46.555,221.35L54.555,221.35" style="fill:none;stroke:#000000;stroke-width:0.5" />
<path d="M46.555,353.51L54.555,353.51" style="fill:none;stroke:#000000;stroke-width:0.5" />
<path d="M50.555,133.25L54.555,133.25" style="fill:none;stroke:#000000;stroke-width:0.5" />
<path d="M50.555,177.3L54.555,177.3" style="fill:none;stroke:#000000;stroke-width:0.5" />
<path d="M50.555,265.41L54.555,265.41" style="fill:none;stroke:#000000;stroke-width:0.5" />
<path d="M50.555,309.46L54.555,309.46" style="fill:none;stroke:#000000;stroke-width:0.5" />
<path d="M50.555,397.56L54.555,397.56" style="fill:none;stroke:#000000;stroke-width:0.5" />
<path d="M54.555,45.151L54.555,416.58" style="fill:none;stroke:#000000;stroke-width:0.5" />
<path d="M60.305,416.58L87.112,68.521L88.278,52.098L91.774,59.799L92.94,73.842L94.105,72.75L95.271,68.724L96.436,70.538L97.602,55.239L98.767,75.256L99.933,70.16L101.1,62.543L102.26,65.587L103.43,52.279L104.6,94.503L105.76,90.595L106.93,78.252L108.09,59.741L109.26,104.26L110.42,95.868L111.59,63.133L112.75,74.111L113.92,74.948L115.09,45.57L116.25,48.517L117.42,63.138L118.58,101.7L119.75,61.204L120.91,47.372L122.08,92.146L123.24,76.75L124.41,47.526L125.57,74.27L126.74,60.68L127.91,53.09L129.07,61.371L130.24,70.82L131.4,95.622L132.57,79.869L133.73,76.516L134.9,53.398L136.06,56.719L137.23,58.631L138.4,82.635L139.56,59.658L140.73,62.768L141.89,61.834L143.06,63.777L144.22,65.191L145.39,69.314L146.55,80.772L147.72,62.407L148.89,66.649L150.05,68.961L151.22,67.829L152.38,68.82L153.55,72.248L154.71,73.856L155.88,71.891L157.04,72.446L158.21,75.913L159.38,73.908L160.54,68.693L161.71,68.627L162.87,74.613L164.04,74.908L165.2,70.864L166.37,71.798L167.53,78.067L168.7,74.063L169.87,70.486L171.03,76.265L172.2,77.283L173.36,67.23L174.53,68.613L175.69,74.776L176.86,71.16L178.02,69.904L179.19,69.182L180.36,75.851L181.52,72.221L182.69,70.014L183.85,71.856L185.02,69.38L186.18,62.411L187.35,67.098L188.51,68.662L189.68,67.336L190.85,68.825L192.01,69.34L193.18,67.442L194.34,66.644L195.51,68.675L196.67,70.01L197.84,64.477L199,65.332L200.17,66.389L201.33,66.446L202.5,66.345L203.67,69.217L204.83,68.371L206,65.327L207.16,65.08L208.33,67.217L209.49,67.367L210.66,65.477L211.82,66.75L212.99,65.155L214.16,65.252L215.32,66.199L216.49,66.697L217.65,66.085L218.82,65.543L219.98,65.565L221.15,65.442L222.31,64.512L223.48,64.226L224.65,65.6L225.81,64.957L226.98,63.785L228.14,64.803L229.31,64.962L230.47,64.354L231.64,63.34L232.8,63.314L233.97,63.292L235.14,62.31L236.3,62.314L237.47,62.477L238.63,62.741L239.8,62.089L240.96,62.288L242.13,62.186L243.29,61.089L244.46,61.019L245.63,61.116L246.79,61.006L247.96,59.803L249.12,59.948L250.29,60.407L251.45,59.129L252.62,59.442L253.78,60.261L254.95,59.508L256.12,58.481L257.28,58.521L258.45,58.838L259.61,57.697L260.78,57.966L261.94,58.64L263.11,58.248L264.27,57.142L265.44,57.874L266.61,57.693L267.77,57.64L268.94,57.169L270.1,57.455L271.27,56.935L272.43,56.235L273.6,56.9L274.76,56.543L275.93,55.781L277.1,56.402L278.26,56.134L279.43,55.283L280.59,55.292L281.76,55.609L282.92,56.015L284.09,54.922L285.25,54.737L286.42,55.204L287.58,55.125L288.75,54.49L289.92,55.006L291.08,54.288L292.25,53.944L293.41,53.759L294.58,53.702L295.74,53.799L296.91,53.451L298.07,53.371L299.24,53.314L300.41,52.988L301.57,52.715L302.74,53.204L303.9,52.975L305.07,52.715L306.23,52.142L307.4,52.543L308.56,52.134L309.73,51.887L310.9,52.019L312.06,51.856L313.23,51.548L314.39,52.006L315.56,51.477L316.72,51.526L317.89,51.085L319.05,51.103L320.22,50.781L321.39,50.777L322.55,51.094L323.72,50.825L324.88,50.702L326.05,50.372L327.21,50.305L328.38,50.473L329.54,50.31L330.71,50.125L331.88,50.222L333.04,49.957L334.21,49.79L335.37,49.636L336.54,49.808L337.7,49.803L338.87,49.327L340.03,49.482L341.2,49.592L342.37,49.195L343.53,49.292L344.7,48.755L345.86,48.786L347.03,49.002L348.19,48.918L349.36,48.821L350.52,48.803L351.69,48.693L352.86,48.618L354.02,48.464L355.19,48.389L356.35,48.085L357.52,48.38L358.68,48.191L359.85,48.332L361.01,48.231L362.18,48.125L363.34,48.01L364.51,47.759L365.68,47.803L366.84,47.68L368.01,47.843L369.17,47.649L370.34,47.495L371.5,47.376L372.67,47.358L373.83,47.495L375,47.261L376.17,47.376L377.33,47.363L378.5,47.261L379.66,47.138L380.83,47.261L381.99,47.05L383.16,47.006L384.32,46.869L385.49,47.098L386.66,46.772L387.82,46.755L388.99,46.949L390.15,46.742L391.32,46.742L392.48,46.693L393.65,46.605L394.81,46.623L395.98,46.548L397.15,46.482L398.31,46.504L399.48,46.623L400.64,46.438L401.81,46.429L402.97,46.451L404.14,46.389L405.3,46.204L406.47,46.394L407.64,46.253L408.8,46.125L409.97,46.195L411.13,46.301L412.3,46.16L413.46,46.094L414.63,46.222L415.79,45.98L416.96,46.125L418.13,46.037L419.29,45.988L420.46,45.975L421.62,45.953L422.79,45.931L423.95,45.931L425.12,45.922L426.28,45.883L427.45,45.808L428.62,45.953L429.78,45.931L430.95,45.861L432.11,45.909L433.28,45.711L434.44,45.777L435.61,45.671L436.77,45.706L437.94,45.746L439.1,45.737L440.27,45.72L441.44,45.64L442.6,45.689L443.77,45.565L444.93,45.627L446.1,45.64L447.26,45.579L448.43,45.64L449.59,45.57L450.76,45.539L451.93,45.636L453.09,45.548L454.26,45.513L455.42,45.557L456.59,45.482L457.75,45.499L458.92,45.486L460.08,45.557L461.25,45.416L462.42,45.495L463.58,45.451L464.75,45.455L465.91,45.407L467.08,45.433L468.24,45.451L469.41,45.429L470.57,45.447L471.74,45.345L472.91,45.407L474.07,45.35L475.24,45.332L476.4,45.376L477.57,45.402L478.73,45.389L479.9,45.354L481.06,45.358L482.23,45.31L483.4,45.402L484.56,45.367L485.73,45.341L486.89,45.35L488.06,45.288L489.22,45.288L490.39,45.275L491.55,45.279L492.72,45.31L493.89,45.266L495.05,45.266L496.22,45.336L497.38,45.27L498.55,45.266L499.71,45.279L500.88,45.239L502.04,45.261L503.21,45.248L504.38,45.275L505.54,45.239L506.71,45.248L507.87,45.27L509.04,45.244L510.2,45.244L511.37,45.226L512.53,45.231L513.7,45.226L514.87,45.235L516.03,45.248L517.2,45.231L518.36,45.217L519.53,45.257L520.69,45.235L521.86,45.187L523.02,45.217L524.19,45.2L525.35,45.239L526.52,45.204L527.69,45.191L528.85,45.213L530.02,45.2L531.18,45.209L532.35,45.182L533.51,45.178L534.68,45.187L535.84,45.173L537.01,45.187L538.18,45.191L539.34,45.195L540.51,45.195L541.67,45.195L542.84,45.187L544,45.2L545.17,45.195L546.33,45.151L547.5,45.182L548.67,45.182L549.83,45.173L551,45.156L552.16,45.178L553.33,45.178L554.49,45.182L555.66,45.178L556.82,45.173L557.99,45.178L559.16,45.173L560.32,45.182L561.49,45.156L562.65,45.165L563.82,45.156L564.98,45.173L566.15,45.187L567.31,45.16L568.48,45.165L569.65,45.173L570.81,45.169L571.98,45.165L573.14,45.156L574.31,45.165L575.47,45.169L576.64,45.16L577.8,45.16L578.97,45.156L581.3,45.151L582.47,45.165L584.8,45.165L585.96,45.16L587.13,45.156L588.29,45.173L589.46,45.173L590.63,45.151L591.79,45.156L592.96,45.156L595.29,45.165L597.62,45.151L599.95,45.16L601.11,45.156L603.45,45.156L604.61,45.151L605.78,45.151L608.11,45.16L609.27,45.151L610.44,45.151L611.6,45.156L613.94,45.151L615.1,45.151L616.27,45.151L617.43,45.165L618.6,45.151L619.76,45.156L620.93,45.151L622.09,45.151L623.26,45.151L624.43,45.151L627.92,45.151L629.09,45.151L630.25,45.151L639.58,45.151L674.54,45.151L686.2,45.151L687.36,45.151L694.36,45.151L710.68,45.151L720,45.151" style="fill:none;stroke:#0000FF" />
</g>
</svg>
