<?xml version="1.0"?>
<!-- Generated by SVGo and Plotinum VG -->
<svg width="720pt" height="432pt" viewBox="0 0 720 432"
	xmlns="http://www.w3.org/2000/svg"
	xmlns:xlink="http://www.w3.org/1999/xlink">
<g transform="scale(1, -1) translate(0, -432)">
<path d="M0,0L720,0L720,432L0,432Z" style="fill:#FFFFFF" />
<text x="358.5" y="-420.45" transform="scale(1, -1)"
	style="font-family:Times;font-weight:normal;font-style:normal;font-size:12px"> </text>
<text x="385.56" y="-3.8613" transform="scale(1, -1)"
	style="font-family:Times;font-weight:normal;font-style:normal;font-size:12px">Costs</text>
<text x="69.055" y="-18.634" transform="scale(1, -1)"
	style="font-family:Times;font-weight:normal;font-style:normal;font-size:10px">0.00</text>
<text x="333.43" y="-18.634" transform="scale(1, -1)"
	style="font-family:Times;font-weight:normal;font-style:normal;font-size:10px">250.00</text>
<text x="602.81" y="-18.634" transform="scale(1, -1)"
	style="font-family:Times;font-weight:normal;font-style:normal;font-size:10px">500.00</text>
<path d="M77.805,28.263L77.805,36.263" style="fill:none;stroke:#000000;stroke-width:0.5" />
<path d="M347.18,28.263L347.18,36.263" style="fill:none;stroke:#000000;stroke-width:0.5" />
<path d="M616.56,28.263L616.56,36.263" style="fill:none;stroke:#000000;stroke-width:0.5" />
<path d="M131.68,32.263L131.68,36.263" style="fill:none;stroke:#000000;stroke-width:0.5" />
<path d="M185.56,32.263L185.56,36.263" style="fill:none;stroke:#000000;stroke-width:0.5" />
<path d="M239.43,32.263L239.43,36.263" style="fill:none;stroke:#000000;stroke-width:0.5" />
<path d="M293.31,32.263L293.31,36.263" style="fill:none;stroke:#000000;stroke-width:0.5" />
<path d="M401.06,32.263L401.06,36.263" style="fill:none;stroke:#000000;stroke-width:0.5" />
<path d="M454.93,32.263L454.93,36.263" style="fill:none;stroke:#000000;stroke-width:0.5" />
<path d="M508.81,32.263L508.81,36.263" style="fill:none;stroke:#000000;stroke-width:0.5" />
<path d="M562.68,32.263L562.68,36.263" style="fill:none;stroke:#000000;stroke-width:0.5" />
<path d="M670.43,32.263L670.43,36.263" style="fill:none;stroke:#000000;stroke-width:0.5" />
<path d="M77.805,36.263L720,36.263" style="fill:none;stroke:#000000;stroke-width:0.5" />
<g transform="rotate(90)">
<text x="152.55" y="11.555" transform="scale(1, -1)"
	style="font-family:Times;font-weight:normal;font-style:normal;font-size:12px">Number of trials (1000000 total)</text>
</g>
<text x="24.055" y="-88.673" transform="scale(1, -1)"
	style="font-family:Times;font-weight:normal;font-style:normal;font-size:10px">25000.00</text>
<text x="19.055" y="-228.86" transform="scale(1, -1)"
	style="font-family:Times;font-weight:normal;font-style:normal;font-size:10px">100000.00</text>
<text x="19.055" y="-369.05" transform="scale(1, -1)"
	style="font-family:Times;font-weight:normal;font-style:normal;font-size:10px">175000.00</text>
<path d="M64.055,91.879L72.055,91.879" style="fill:none;stroke:#000000;stroke-width:0.5" />
<path d="M64.055,232.07L72.055,232.07" style="fill:none;stroke:#000000;stroke-width:0.5" />
<path d="M64.055,372.25L72.055,372.25" style="fill:none;stroke:#000000;stroke-width:0.5" />
<path d="M68.055,161.97L72.055,161.97" style="fill:none;stroke:#000000;stroke-width:0.5" />
<path d="M68.055,302.16L72.055,302.16" style="fill:none;stroke:#000000;stroke-width:0.5" />
<path d="M72.055,45.151L72.055,416.58" style="fill:none;stroke:#000000;stroke-width:0.5" />
<path d="M77.805,416.58L101.51,48.422L102.59,51.955L103.66,64.305L106.9,55.46L109.05,51.893L110.13,51.966L111.21,62.804L112.28,55.443L113.36,52.049L114.44,85.52L115.52,52.329L116.6,59.183L119.83,70.445L120.91,84.937L121.98,62.286L123.06,65.849L124.14,70.395L125.22,74.389L126.29,55.555L127.37,74.178L128.45,45.499L129.53,59.469L130.6,60.133L131.68,52.247L132.76,68.398L133.84,45.336L134.91,82.051L135.99,63.258L137.07,46.336L138.15,53.374L139.22,56.669L140.3,62.974L141.38,57.165L142.46,60.862L143.53,46.901L144.61,53.467L145.69,65.742L146.77,48.8L147.84,48.86L148.92,49.424L150,63.783L151.08,49.454L152.15,48.994L153.23,51.15L154.31,56.839L155.39,49.985L156.46,52.94L157.54,64.381L158.62,53.557L159.7,52.95L160.77,63.593L161.85,53.262L162.93,52.144L164.01,76.884L165.08,66.387L166.16,54.907L167.24,55.353L168.32,55.69L169.39,56.837L170.47,54.275L171.55,57.211L172.63,54.041L173.7,54.002L174.78,54.69L175.86,54.015L176.94,54.643L178.01,56.193L179.09,56.335L180.17,53.862L181.25,53.617L182.32,57.116L183.4,53.637L184.48,55.344L185.56,53.041L186.63,53.918L187.71,54.194L188.79,54.277L189.87,54.888L190.94,52.664L192.02,53.058L193.1,54.314L194.18,52.439L195.25,52.43L196.33,52.107L197.41,54.918L198.49,52.065L199.56,53.834L200.64,54.108L201.72,52.344L202.8,53.781L203.87,52.905L204.95,50.989L206.03,51.699L207.11,55.527L208.18,53.2L209.26,51.927L210.34,53.122L211.42,52.538L212.49,52.606L213.57,51.978L214.65,51.893L215.73,51.336L216.8,51.062L217.88,52.163L218.96,51.748L220.04,50.441L221.11,52.307L222.19,52.794L223.27,50.211L224.35,50.215L225.42,51.054L226.5,51.131L227.58,50.834L228.66,51.155L229.73,50.045L230.81,49.602L231.89,50.622L232.97,50.351L234.04,49.63L235.12,49.172L236.2,50.475L237.28,49.985L238.35,49.131L239.43,49.389L240.51,49.886L241.59,49.428L242.66,49.228L243.74,49.946L244.82,49.703L245.9,49.462L246.97,49.841L248.05,49.249L249.13,48.914L250.21,48.987L251.28,49.568L252.36,48.774L253.44,48.65L254.52,48.94L255.59,48.755L256.67,48.643L257.75,48.574L258.83,48.486L259.9,48.363L260.98,48.366L262.06,48.35L263.14,48.065L264.21,48.338L265.29,48.25L266.37,48.148L267.45,48.09L268.52,48.105L269.6,48.028L270.68,47.761L271.76,47.927L272.83,47.602L273.91,47.665L274.99,47.824L276.07,47.75L277.14,47.346L278.22,47.471L279.3,47.529L280.38,47.441L281.45,47.295L282.53,47.217L283.61,47.355L284.69,47.037L285.76,47.241L286.84,47.179L287.92,47.105L289,47.037L290.07,47.054L291.15,46.946L292.23,46.744L293.31,46.815L294.38,46.86L295.46,46.764L296.54,46.776L297.62,46.721L298.69,46.615L299.77,46.587L300.85,46.606L301.93,46.589L303,46.493L304.08,46.555L305.16,46.563L306.24,46.45L307.31,46.376L308.39,46.48L309.47,46.421L310.55,46.394L311.62,46.387L312.7,46.301L313.78,46.267L314.86,46.308L315.93,46.23L317.01,46.148L318.09,46.125L319.17,46.183L320.24,46.142L321.32,46.09L322.4,46.071L323.48,46.163L324.55,46.022L325.63,45.979L326.71,46.024L327.79,46.03L328.86,45.933L329.94,45.878L331.02,45.978L332.1,45.892L333.17,45.893L334.25,45.871L335.33,45.877L336.41,45.865L337.48,45.835L338.56,45.798L339.64,45.783L340.72,45.834L341.79,45.778L342.87,45.673L343.95,45.776L345.03,45.74L346.1,45.703L347.18,45.654L348.26,45.697L349.34,45.654L350.41,45.652L351.49,45.626L352.57,45.622L353.65,45.591L354.72,45.592L355.8,45.591L356.88,45.54L357.96,45.51L359.03,45.525L360.11,45.559L361.19,45.525L362.27,45.493L363.34,45.497L364.42,45.533L365.5,45.471L366.58,45.464L367.65,45.426L368.73,45.411L369.81,45.465L370.89,45.415L371.96,45.434L373.04,45.43L374.12,45.443L375.2,45.379L376.27,45.4L377.35,45.445L378.43,45.4L379.51,45.355L380.58,45.351L381.66,45.335L382.74,45.335L383.82,45.372L384.89,45.355L385.97,45.378L387.05,45.338L388.13,45.331L389.2,45.316L390.28,45.297L391.36,45.359L392.44,45.307L393.51,45.316L394.59,45.303L395.67,45.314L396.75,45.29L397.82,45.29L398.9,45.277L399.98,45.288L401.06,45.295L402.13,45.264L403.21,45.235L404.29,45.303L405.37,45.26L406.44,45.249L407.52,45.23L408.6,45.288L409.68,45.252L410.75,45.235L411.83,45.26L412.91,45.239L413.99,45.241L415.06,45.224L416.14,45.254L417.22,45.249L418.3,45.249L419.38,45.211L420.45,45.228L421.53,45.207L422.61,45.221L423.69,45.221L424.76,45.241L425.84,45.23L426.92,45.202L428,45.219L429.07,45.211L430.15,45.215L431.23,45.213L432.31,45.185L433.38,45.194L434.46,45.209L435.54,45.207L436.62,45.2L437.69,45.207L438.77,45.204L439.85,45.198L440.93,45.206L442,45.192L443.08,45.191L444.16,45.183L445.24,45.187L446.31,45.179L447.39,45.183L448.47,45.178L449.55,45.168L450.62,45.185L451.7,45.168L452.78,45.192L453.86,45.168L454.93,45.181L456.01,45.179L457.09,45.179L458.17,45.164L459.24,45.172L460.32,45.172L461.4,45.176L462.48,45.166L463.55,45.179L464.63,45.187L465.71,45.163L466.79,45.163L467.86,45.163L468.94,45.166L470.02,45.164L471.1,45.164L472.17,45.17L473.25,45.166L474.33,45.172L475.41,45.163L476.48,45.157L477.56,45.166L478.64,45.163L479.72,45.157L480.79,45.166L481.87,45.159L482.95,45.157L484.03,45.159L485.1,45.157L486.18,45.153L487.26,45.161L488.34,45.163L489.41,45.161L490.49,45.155L491.57,45.157L492.65,45.159L493.72,45.159L494.8,45.155L495.88,45.163L496.96,45.155L498.03,45.157L499.11,45.159L500.19,45.161L501.27,45.153L502.34,45.153L503.42,45.153L504.5,45.153L505.58,45.155L506.65,45.151L507.73,45.153L508.81,45.153L509.89,45.161L510.96,45.153L512.04,45.153L513.12,45.151L514.2,45.155L515.27,45.151L516.35,45.153L517.43,45.155L518.51,45.151L519.58,45.157L521.74,45.151L522.82,45.157L523.89,45.151L524.97,45.153L528.2,45.151L529.28,45.153L530.36,45.151L531.44,45.151L532.51,45.151L533.59,45.151L534.67,45.155L535.75,45.153L536.82,45.151L537.9,45.153L538.98,45.151L540.06,45.151L541.13,45.153L546.52,45.151L547.6,45.151L548.68,45.151L549.75,45.151L550.83,45.153L551.91,45.151L556.22,45.151L557.3,45.151L558.37,45.153L559.45,45.151L560.53,45.153L562.68,45.151L564.84,45.151L568.07,45.151L569.15,45.151L570.23,45.153L573.46,45.153L579.92,45.151L590.7,45.151L592.85,45.151L602.55,45.151L603.63,45.151L613.33,45.151L615.48,45.151L625.18,45.151L644.57,45.151L720,45.151" style="fill:none;stroke:#0000FF" />
</g>
</svg>
