<?xml version="1.0"?>
<!-- Generated by SVGo and Plotinum VG -->
<svg width="720pt" height="432pt" viewBox="0 0 720 432"
	xmlns="http://www.w3.org/2000/svg"
	xmlns:xlink="http://www.w3.org/1999/xlink">
<g transform="scale(1, -1) translate(0, -432)">
<path d="M0,0L720,0L720,432L0,432Z" style="fill:#FFFFFF" />
<text x="358.5" y="-420.45" transform="scale(1, -1)"
	style="font-family:Times;font-weight:normal;font-style:normal;font-size:12px"> </text>
<text x="376.81" y="-3.8613" transform="scale(1, -1)"
	style="font-family:Times;font-weight:normal;font-style:normal;font-size:12px">Costs</text>
<text x="57.805" y="-18.634" transform="scale(1, -1)"
	style="font-family:Times;font-weight:normal;font-style:normal;font-size:10px">0</text>
<text x="365.46" y="-18.634" transform="scale(1, -1)"
	style="font-family:Times;font-weight:normal;font-style:normal;font-size:10px">300</text>
<text x="678.11" y="-18.634" transform="scale(1, -1)"
	style="font-family:Times;font-weight:normal;font-style:normal;font-size:10px">600</text>
<path d="M60.305,28.263L60.305,36.263" style="fill:none;stroke:#000000;stroke-width:0.5" />
<path d="M372.96,28.263L372.96,36.263" style="fill:none;stroke:#000000;stroke-width:0.5" />
<path d="M685.61,28.263L685.61,36.263" style="fill:none;stroke:#000000;stroke-width:0.5" />
<path d="M164.52,32.263L164.52,36.263" style="fill:none;stroke:#000000;stroke-width:0.5" />
<path d="M268.74,32.263L268.74,36.263" style="fill:none;stroke:#000000;stroke-width:0.5" />
<path d="M477.17,32.263L477.17,36.263" style="fill:none;stroke:#000000;stroke-width:0.5" />
<path d="M581.39,32.263L581.39,36.263" style="fill:none;stroke:#000000;stroke-width:0.5" />
<path d="M60.305,36.263L720,36.263" style="fill:none;stroke:#000000;stroke-width:0.5" />
<g transform="rotate(90)">
<text x="149.88" y="11.555" transform="scale(1, -1)"
	style="font-family:Times;font-weight:normal;font-style:normal;font-size:12px">Number of trials (1000000 total)</text>
</g>
<text x="24.055" y="-94.081" transform="scale(1, -1)"
	style="font-family:Times;font-weight:normal;font-style:normal;font-size:10px">5000</text>
<text x="19.055" y="-250.52" transform="scale(1, -1)"
	style="font-family:Times;font-weight:normal;font-style:normal;font-size:10px">20000</text>
<text x="19.055" y="-406.96" transform="scale(1, -1)"
	style="font-family:Times;font-weight:normal;font-style:normal;font-size:10px">35000</text>
<path d="M46.555,97.287L54.555,97.287" style="fill:none;stroke:#000000;stroke-width:0.5" />
<path d="M46.555,253.72L54.555,253.72" style="fill:none;stroke:#000000;stroke-width:0.5" />
<path d="M46.555,410.16L54.555,410.16" style="fill:none;stroke:#000000;stroke-width:0.5" />
<path d="M50.555,175.51L54.555,175.51" style="fill:none;stroke:#000000;stroke-width:0.5" />
<path d="M50.555,331.94L54.555,331.94" style="fill:none;stroke:#000000;stroke-width:0.5" />
<path d="M54.555,45.151L54.555,411.23" style="fill:none;stroke:#000000;stroke-width:0.5" />
<path d="M60.305,411.23L87.401,71.026L88.443,98.257L89.486,84.135L92.612,134.76L93.654,59.648L95.739,161.74L96.781,96.682L97.823,48.218L98.865,66.698L99.907,79.495L100.95,55.883L101.99,69.879L103.03,67.48L104.08,128.04L105.12,69.952L106.16,180.32L107.2,71.214L108.24,88.286L111.37,97.339L112.41,169.98L113.46,48.593L114.5,45.35L115.54,48.833L116.58,127.06L117.62,50.356L118.67,131.49L119.71,51.2L120.75,58.72L121.79,79.171L122.84,68.44L123.88,89.694L124.92,97.318L125.96,55.153L127,51.117L128.05,81.664L129.09,69.118L130.13,53.995L131.17,76.136L132.21,86.534L133.26,72.059L134.3,82.561L135.34,86.388L136.38,87.243L137.43,101.87L138.47,97.214L139.51,102.51L140.55,101.64L141.59,108.83L142.64,81.288L143.68,91.78L144.72,129.5L145.76,86.159L146.81,88.589L147.85,121.16L148.89,100.97L149.93,92.531L150.97,102.76L152.02,121.48L153.06,85.22L154.1,109.02L155.14,91.06L156.18,97.266L157.23,100.77L158.27,120.86L159.31,83.843L160.35,105.7L161.4,71.026L162.44,103.1L163.48,91.008L164.52,119.55L165.56,77.138L166.61,82.446L167.65,92.813L168.69,102.79L169.73,100.27L170.77,109.43L171.82,76.96L172.86,91.863L173.9,90.518L174.94,99.831L175.99,90.987L177.03,98.403L178.07,85.251L179.11,84.031L180.15,108.65L181.2,101.76L182.24,92.187L183.28,105.61L184.32,98.267L185.37,94.69L186.41,99.508L187.45,98.788L188.49,100.62L189.53,103.64L190.58,107.87L191.62,96.233L192.66,102.81L193.7,104.21L194.74,95.816L195.79,107.13L196.83,104.86L197.87,99.425L198.91,97.652L199.96,102.85L201,102.06L202.04,98.945L203.08,105.72L204.12,101.71L205.17,92.833L206.21,101.47L207.25,91.3L208.29,96.348L209.34,97.015L210.38,97.798L211.42,90.351L212.46,94.158L213.5,91.884L214.55,94.189L215.59,96.327L216.63,100.81L217.67,86.638L218.71,93.324L219.76,90.675L220.8,94.064L221.84,95.993L222.88,91.79L223.93,87.462L224.97,92.781L226.01,95.451L227.05,93.511L228.09,91.843L229.14,92.667L230.18,87.702L231.22,89.955L232.26,95.92L233.31,91.665L234.35,92.155L235.39,92.062L236.43,90.8L237.47,89.444L238.52,90.414L239.56,91.686L240.6,87.786L241.64,90.977L242.68,90.216L243.73,86.899L244.77,89.298L245.81,87.327L246.85,88.401L247.9,86.962L248.94,88.526L249.98,84.991L251.02,85.001L252.06,87.421L253.11,84.699L254.15,84.396L255.19,84.365L256.23,81.664L257.28,83.207L258.32,82.54L259.36,83.312L260.4,81.831L261.44,81.038L262.49,81.632L263.53,78.994L264.57,81.069L265.61,80.099L266.65,79.171L267.7,82.071L268.74,78.858L269.78,77.701L270.82,77.826L271.87,79.422L272.91,78.16L273.95,76.919L274.99,76.679L276.03,75.636L277.08,76.449L278.12,77.909L279.16,75.636L280.2,76.074L281.25,74.332L282.29,75.271L283.33,75.271L284.37,75.552L285.41,73.925L286.46,74.197L287.5,73.727L288.54,73.091L289.58,72.57L290.62,73.091L291.67,71.537L292.71,70.369L293.75,71.568L294.79,70.004L295.84,70.421L296.88,70.546L297.92,69.608L298.96,69.973L300,69.17L301.05,68.44L302.09,67.845L303.13,68.304L304.17,67.793L305.22,67.334L306.26,67.814L307.3,65.791L308.34,66.354L309.38,65.363L310.43,65.572L311.47,65.29L312.51,64.623L313.55,65.895L314.59,64.643L315.64,64.164L316.68,63.945L317.72,63.402L318.76,62.86L319.81,63.548L320.85,63.037L321.89,62.996L322.93,62.328L323.97,61.796L325.02,60.92L326.06,60.899L327.1,61.181L328.14,60.993L329.19,61.337L330.23,61.327L331.27,60.128L332.31,60.388L333.35,59.45L334.4,59.585L335.44,58.772L336.48,59.158L337.52,59.304L338.56,58.699L339.61,57.99L340.65,58.177L341.69,57.969L342.73,58L343.78,57.072L344.82,56.926L345.86,57.155L346.9,57.155L347.94,57.051L348.99,56.165L350.03,55.998L351.07,55.539L352.11,55.862L353.16,56.039L354.2,55.8L355.24,54.986L356.28,55.351L357.32,54.986L358.37,54.412L359.41,55.122L360.45,54.402L361.49,54.402L362.53,53.954L363.58,54.454L364.62,53.474L365.66,53.536L366.7,53.307L367.75,52.817L368.79,53.328L369.83,52.65L370.87,52.817L371.91,52.671L372.96,52.483L374,52.921L375.04,52.035L376.08,52.566L377.13,52.358L378.17,51.795L379.21,51.889L380.25,51.305L381.29,51.482L382.34,51.398L383.38,51.054L384.42,51.179L385.46,51.013L386.5,51.19L387.55,50.345L388.59,50.846L389.63,50.658L390.67,50.387L391.72,50.575L392.76,49.834L393.8,49.844L394.84,50.074L395.88,49.709L396.93,49.521L397.97,49.594L399.01,49.865L400.05,49.406L401.1,49.375L402.14,49.459L403.18,49.292L404.22,49.25L405.26,48.875L406.31,48.614L407.35,48.927L408.39,48.843L409.43,48.76L410.47,48.583L411.52,48.645L412.56,48.603L413.6,48.374L414.64,48.405L415.69,48.186L416.73,48.238L417.77,47.738L418.81,48.082L419.85,47.769L420.9,47.675L421.94,47.686L422.98,47.863L424.02,47.738L425.07,47.467L426.11,47.414L427.15,47.435L428.19,47.404L429.23,47.414L430.28,47.31L431.32,47.018L432.36,47.227L433.4,47.362L434.44,47.341L435.49,46.935L436.53,47.216L437.57,46.82L438.61,46.945L439.66,46.976L440.7,47.049L441.74,46.538L442.78,46.778L443.82,46.716L444.87,46.945L445.91,46.465L446.95,46.737L447.99,46.664L449.04,46.497L450.08,46.361L451.12,46.497L452.16,46.705L453.2,46.445L454.25,46.246L455.29,46.372L456.33,46.278L457.37,46.465L458.41,46.413L459.46,46.351L460.5,46.184L461.54,46.194L462.58,46.246L463.63,46.246L464.67,46.132L465.71,46.121L466.75,46.007L467.79,45.892L468.84,45.881L469.88,45.996L470.92,45.829L471.96,45.923L473.01,45.85L474.05,45.85L475.09,45.861L476.13,45.85L477.17,45.913L478.22,45.84L479.26,45.777L480.3,45.673L481.34,45.85L482.38,45.673L483.43,45.725L484.47,45.808L485.51,45.516L486.55,45.621L487.6,45.715L488.64,45.548L489.68,45.673L490.72,45.746L491.76,45.61L492.81,45.735L493.85,45.683L494.89,45.443L495.93,45.516L496.98,45.652L498.02,45.506L499.06,45.496L500.1,45.464L501.14,45.464L502.19,45.537L503.23,45.548L504.27,45.423L505.31,45.485L506.35,45.402L507.4,45.496L508.44,45.454L509.48,45.485L510.52,45.475L511.57,45.339L512.61,45.36L513.65,45.433L514.69,45.391L515.73,45.391L516.78,45.381L517.82,45.339L518.86,45.329L519.9,45.36L520.95,45.37L521.99,45.308L523.03,45.381L524.07,45.391L525.11,45.37L526.16,45.245L527.2,45.339L528.24,45.402L529.28,45.329L530.32,45.245L531.37,45.308L532.41,45.297L533.45,45.277L534.49,45.256L535.54,45.235L536.58,45.297L537.62,45.266L538.66,45.308L539.7,45.224L540.75,45.287L541.79,45.318L542.83,45.287L543.87,45.245L544.91,45.224L545.96,45.204L547,45.224L548.04,45.224L549.08,45.214L550.13,45.235L551.17,45.245L552.21,45.235L553.25,45.214L554.29,45.235L555.34,45.193L556.38,45.277L557.42,45.204L558.46,45.224L559.51,45.204L560.55,45.235L561.59,45.193L562.63,45.214L563.67,45.214L564.72,45.245L565.76,45.193L566.8,45.193L567.84,45.172L568.88,45.204L569.93,45.224L570.97,45.183L572.01,45.183L573.05,45.183L574.1,45.193L575.14,45.214L576.18,45.151L577.22,45.162L578.26,45.162L579.31,45.172L580.35,45.162L581.39,45.162L582.43,45.193L583.48,45.193L584.52,45.193L585.56,45.151L586.6,45.172L587.64,45.162L588.69,45.183L589.73,45.183L590.77,45.172L591.81,45.162L592.85,45.151L593.9,45.183L594.94,45.162L595.98,45.151L597.02,45.151L598.07,45.151L599.11,45.162L600.15,45.151L603.28,45.151L604.32,45.151L605.36,45.172L606.4,45.172L609.53,45.151L610.57,45.151L611.61,45.162L612.66,45.162L613.7,45.172L614.74,45.151L615.78,45.151L616.82,45.151L618.91,45.151L619.95,45.151L620.99,45.172L622.04,45.151L623.08,45.162L624.12,45.162L627.25,45.172L628.29,45.183L629.33,45.151L634.54,45.151L639.75,45.151L642.88,45.172L646.01,45.151L649.13,45.151L651.22,45.151L653.3,45.151L655.39,45.151L661.64,45.151L662.68,45.151L666.85,45.151L667.89,45.151L674.14,45.151L675.19,45.151L680.4,45.151L711.66,45.151L720,45.151" style="fill:none;stroke:#0000FF" />
</g>
</svg>
