<?xml version="1.0"?>
<!-- Generated by SVGo and Plotinum VG -->
<svg width="720pt" height="432pt" viewBox="0 0 720 432"
	xmlns="http://www.w3.org/2000/svg"
	xmlns:xlink="http://www.w3.org/1999/xlink">
<g transform="scale(1, -1) translate(0, -432)">
<path d="M0,0L720,0L720,432L0,432Z" style="fill:#FFFFFF" />
<text x="358.5" y="-420.45" transform="scale(1, -1)"
	style="font-family:Times;font-weight:normal;font-style:normal;font-size:12px"> </text>
<text x="379.31" y="-3.8613" transform="scale(1, -1)"
	style="font-family:Times;font-weight:normal;font-style:normal;font-size:12px">Costs</text>
<text x="56.555" y="-18.634" transform="scale(1, -1)"
	style="font-family:Times;font-weight:normal;font-style:normal;font-size:10px">0.00</text>
<text x="347.53" y="-18.634" transform="scale(1, -1)"
	style="font-family:Times;font-weight:normal;font-style:normal;font-size:10px">250.00</text>
<text x="643.5" y="-18.634" transform="scale(1, -1)"
	style="font-family:Times;font-weight:normal;font-style:normal;font-size:10px">500.00</text>
<path d="M65.305,28.263L65.305,36.263" style="fill:none;stroke:#000000;stroke-width:0.5" />
<path d="M361.28,28.263L361.28,36.263" style="fill:none;stroke:#000000;stroke-width:0.5" />
<path d="M657.25,28.263L657.25,36.263" style="fill:none;stroke:#000000;stroke-width:0.5" />
<path d="M124.5,32.263L124.5,36.263" style="fill:none;stroke:#000000;stroke-width:0.5" />
<path d="M183.69,32.263L183.69,36.263" style="fill:none;stroke:#000000;stroke-width:0.5" />
<path d="M242.89,32.263L242.89,36.263" style="fill:none;stroke:#000000;stroke-width:0.5" />
<path d="M302.08,32.263L302.08,36.263" style="fill:none;stroke:#000000;stroke-width:0.5" />
<path d="M420.47,32.263L420.47,36.263" style="fill:none;stroke:#000000;stroke-width:0.5" />
<path d="M479.67,32.263L479.67,36.263" style="fill:none;stroke:#000000;stroke-width:0.5" />
<path d="M538.86,32.263L538.86,36.263" style="fill:none;stroke:#000000;stroke-width:0.5" />
<path d="M598.06,32.263L598.06,36.263" style="fill:none;stroke:#000000;stroke-width:0.5" />
<path d="M716.45,32.263L716.45,36.263" style="fill:none;stroke:#000000;stroke-width:0.5" />
<path d="M65.305,36.263L720,36.263" style="fill:none;stroke:#000000;stroke-width:0.5" />
<g transform="rotate(90)">
<text x="152.55" y="11.555" transform="scale(1, -1)"
	style="font-family:Times;font-weight:normal;font-style:normal;font-size:12px">Number of trials (1000000 total)</text>
</g>
<text x="24.055" y="-105.89" transform="scale(1, -1)"
	style="font-family:Times;font-weight:normal;font-style:normal;font-size:10px">20000</text>
<text x="24.055" y="-233.79" transform="scale(1, -1)"
	style="font-family:Times;font-weight:normal;font-style:normal;font-size:10px">60000</text>
<text x="19.055" y="-361.7" transform="scale(1, -1)"
	style="font-family:Times;font-weight:normal;font-style:normal;font-size:10px">100000</text>
<path d="M51.555,109.1L59.555,109.1" style="fill:none;stroke:#000000;stroke-width:0.5" />
<path d="M51.555,237L59.555,237" style="fill:none;stroke:#000000;stroke-width:0.5" />
<path d="M51.555,364.9L59.555,364.9" style="fill:none;stroke:#000000;stroke-width:0.5" />
<path d="M55.555,77.124L59.555,77.124" style="fill:none;stroke:#000000;stroke-width:0.5" />
<path d="M55.555,141.07L59.555,141.07" style="fill:none;stroke:#000000;stroke-width:0.5" />
<path d="M55.555,173.05L59.555,173.05" style="fill:none;stroke:#000000;stroke-width:0.5" />
<path d="M55.555,205.03L59.555,205.03" style="fill:none;stroke:#000000;stroke-width:0.5" />
<path d="M55.555,268.98L59.555,268.98" style="fill:none;stroke:#000000;stroke-width:0.5" />
<path d="M55.555,300.95L59.555,300.95" style="fill:none;stroke:#000000;stroke-width:0.5" />
<path d="M55.555,332.93L59.555,332.93" style="fill:none;stroke:#000000;stroke-width:0.5" />
<path d="M55.555,396.88L59.555,396.88" style="fill:none;stroke:#000000;stroke-width:0.5" />
<path d="M59.555,45.151L59.555,416.58" style="fill:none;stroke:#000000;stroke-width:0.5" />
<path d="M65.305,416.58L96.086,66.872L97.27,71.509L98.454,69.788L99.638,59.304L102.01,85.789L103.19,73.05L104.37,48.355L105.56,109.91L106.74,66.588L107.92,52.096L109.11,52.071L110.29,59.994L111.48,55.87L112.66,66.105L113.84,77.443L115.03,95.132L116.21,65.481L117.4,118.48L118.58,66.236L119.76,70.709L122.13,48.534L123.32,82.051L124.5,81.795L125.68,58.888L126.87,45.417L128.05,63.544L129.24,82.863L130.42,47.534L131.6,86.182L132.79,54.811L133.97,52.992L135.15,75.41L136.34,55.639L137.52,62.488L138.71,67.042L139.89,52.643L141.07,48.813L142.26,54.6L143.44,55.486L144.63,52.905L145.81,58.28L146.99,58.888L148.18,59.163L149.36,59.144L150.55,61.59L151.73,72.033L152.91,72.356L154.1,65.689L155.28,69.2L156.46,63.572L157.65,68.1L158.83,59.515L160.02,73.632L161.2,77.389L162.38,63.767L163.57,66.476L164.75,68.583L165.94,69.712L167.12,66.831L168.3,67.381L169.49,71.713L170.67,60.519L171.86,68.829L173.04,64.25L174.22,60.567L175.41,67.288L176.59,65.756L177.77,63.828L178.96,61.804L180.14,60.564L181.33,64.634L182.51,61.663L183.69,66.341L184.88,60.922L186.06,59.959L187.25,64.017L188.43,60.867L189.61,63.074L190.8,60.883L191.98,61.024L193.17,60.583L194.35,59.451L195.53,60.352L196.72,57.679L197.9,61.037L199.09,59.739L200.27,58.917L201.45,64.452L202.64,60.765L203.82,60.295L205,61.587L206.19,59.761L207.37,59.102L208.56,59.08L209.74,60.663L210.92,60.992L212.11,61.344L213.29,61.27L214.48,59.125L215.66,60.362L216.84,58.846L218.03,60.257L219.21,61.52L220.4,59.662L221.58,59.179L222.76,58.674L223.95,60.084L225.13,59.755L226.31,58.616L227.5,59.444L228.68,57.196L229.87,57.679L231.05,57.769L232.23,57.225L233.42,57.388L234.6,56.784L235.79,56.96L236.97,56.16L238.15,55.953L239.34,56.787L240.52,55.297L241.71,56.381L242.89,55.425L244.07,54.875L245.26,55.447L246.44,54.984L247.62,55.687L248.81,55.3L249.99,54.949L251.18,55.16L252.36,54.917L253.54,55.192L254.73,54.907L255.91,54.702L257.1,54.411L258.28,54.159L259.46,54.255L260.65,53.919L261.83,53.602L263.02,53.679L264.2,53.574L265.38,53.321L266.57,53.097L267.75,53.235L268.94,53.184L270.12,53.196L271.3,52.95L272.49,52.618L273.67,52.56L274.85,52.592L276.04,52.339L277.22,52.205L278.41,52.237L279.59,52.055L280.77,51.582L281.96,51.783L283.14,51.639L284.33,51.415L285.51,51.377L286.69,50.904L287.88,51.172L289.06,50.964L290.25,50.929L291.43,50.98L292.61,50.488L293.8,50.331L294.98,50.351L296.16,50.223L297.35,50.475L298.53,50.044L299.72,50.127L300.9,49.928L302.08,49.794L303.27,49.663L304.45,49.468L305.64,49.724L306.82,49.606L308,49.49L309.19,49.439L310.37,49.267L311.56,49.58L312.74,49.123L313.92,49.225L315.11,49.024L316.29,48.972L317.47,48.892L318.66,48.755L319.84,48.886L321.03,48.672L322.21,48.701L323.39,48.522L324.58,48.47L325.76,48.41L326.95,48.384L328.13,48.349L329.31,48.336L330.5,48.128L331.68,48.202L332.87,48.167L334.05,47.965L335.23,47.815L336.42,47.85L337.6,47.812L338.79,47.7L339.97,47.661L341.15,47.658L342.34,47.54L343.52,47.45L344.7,47.284L345.89,47.294L347.07,47.31L348.26,47.281L349.44,47.127L350.62,47.271L351.81,47.342L352.99,47.121L354.18,47.076L355.36,46.862L356.54,46.964L357.73,47.016L358.91,46.907L360.1,46.897L361.28,46.868L362.46,46.737L363.65,46.779L364.83,46.686L366.01,46.552L367.2,46.67L368.38,46.523L369.57,46.577L370.75,46.641L371.93,46.558L373.12,46.398L374.3,46.466L375.49,46.402L376.67,46.318L377.85,46.376L379.04,46.299L380.22,46.168L381.41,46.216L382.59,46.152L383.77,46.226L384.96,46.197L386.14,46.066L387.32,46.133L388.51,46.069L389.69,46.098L390.88,46.12L392.06,46.072L393.24,45.922L394.43,45.976L395.61,45.976L396.8,45.96L397.98,45.948L399.16,45.858L400.35,45.996L401.53,45.877L402.72,45.839L403.9,45.839L405.08,45.804L406.27,45.82L407.45,45.756L408.63,45.653L409.82,45.804L411,45.701L412.19,45.65L413.37,45.717L414.55,45.724L415.74,45.708L416.92,45.641L418.11,45.605L419.29,45.701L420.47,45.653L421.66,45.564L422.84,45.621L424.03,45.561L425.21,45.605L426.39,45.535L427.58,45.538L428.76,45.577L429.95,45.557L431.13,45.541L432.31,45.58L433.5,45.42L434.68,45.49L435.86,45.468L437.05,45.478L438.23,45.42L439.42,45.506L440.6,45.433L441.78,45.436L442.97,45.433L444.15,45.398L445.34,45.423L446.52,45.327L447.7,45.42L448.89,45.401L450.07,45.321L451.26,45.394L452.44,45.423L453.62,45.34L454.81,45.334L455.99,45.42L457.17,45.353L458.36,45.324L459.54,45.279L460.73,45.33L461.91,45.27L463.09,45.334L464.28,45.298L465.46,45.305L466.65,45.286L467.83,45.324L469.01,45.282L470.2,45.305L471.38,45.266L472.57,45.263L473.75,45.311L474.93,45.244L476.12,45.26L477.3,45.263L478.48,45.311L479.67,45.298L480.85,45.225L482.04,45.25L483.22,45.231L484.4,45.282L485.59,45.257L486.77,45.225L487.96,45.238L489.14,45.244L490.32,45.257L491.51,45.219L492.69,45.212L493.88,45.206L495.06,45.228L496.24,45.231L497.43,45.212L498.61,45.212L499.8,45.203L500.98,45.209L502.16,45.199L503.35,45.212L504.53,45.203L505.71,45.215L506.9,45.222L508.08,45.19L509.27,45.203L510.45,45.187L511.63,45.187L512.82,45.199L514,45.18L515.19,45.199L516.37,45.167L517.55,45.19L518.74,45.183L519.92,45.171L521.11,45.177L522.29,45.193L523.47,45.18L524.66,45.174L525.84,45.183L527.02,45.177L528.21,45.187L529.39,45.183L530.58,45.18L531.76,45.171L532.94,45.167L534.13,45.167L535.31,45.164L536.5,45.18L537.68,45.167L538.86,45.171L540.05,45.174L541.23,45.187L542.42,45.187L543.6,45.164L544.78,45.167L545.97,45.183L547.15,45.171L548.33,45.167L549.52,45.155L550.7,45.167L551.89,45.167L553.07,45.167L554.25,45.161L555.44,45.161L556.62,45.155L557.81,45.161L558.99,45.155L561.36,45.164L562.54,45.151L563.73,45.158L564.91,45.161L567.28,45.167L568.46,45.161L569.65,45.164L570.83,45.155L572.01,45.155L573.2,45.161L574.38,45.161L575.56,45.151L576.75,45.158L579.12,45.151L580.3,45.151L582.67,45.158L583.85,45.155L586.22,45.155L587.4,45.155L589.77,45.151L590.96,45.151L592.14,45.155L593.32,45.158L594.51,45.155L595.69,45.151L598.06,45.155L599.24,45.151L600.43,45.151L601.61,45.158L602.79,45.151L603.98,45.151L605.16,45.158L611.08,45.151L612.27,45.151L615.82,45.151L619.37,45.155L621.74,45.151L622.92,45.151L632.39,45.151L634.76,45.151L635.94,45.155L641.86,45.151L645.41,45.151L652.52,45.151L654.89,45.151L660.81,45.151L665.54,45.151L679.75,45.151L710.53,45.151L720,45.151" style="fill:none;stroke:#0000FF" />
</g>
</svg>
