<?xml version="1.0"?>
<!-- Generated by SVGo and Plotinum VG -->
<svg width="720pt" height="432pt" viewBox="0 0 720 432"
	xmlns="http://www.w3.org/2000/svg"
	xmlns:xlink="http://www.w3.org/1999/xlink">
<g transform="scale(1, -1) translate(0, -432)">
<path d="M0,0L720,0L720,432L0,432Z" style="fill:#FFFFFF" />
<text x="358.5" y="-420.45" transform="scale(1, -1)"
	style="font-family:Times;font-weight:normal;font-style:normal;font-size:12px"> </text>
<text x="379.31" y="-3.8613" transform="scale(1, -1)"
	style="font-family:Times;font-weight:normal;font-style:normal;font-size:12px">Costs</text>
<text x="56.555" y="-18.634" transform="scale(1, -1)"
	style="font-family:Times;font-weight:normal;font-style:normal;font-size:10px">0.00</text>
<text x="369.37" y="-18.634" transform="scale(1, -1)"
	style="font-family:Times;font-weight:normal;font-style:normal;font-size:10px">250.00</text>
<text x="687.18" y="-18.634" transform="scale(1, -1)"
	style="font-family:Times;font-weight:normal;font-style:normal;font-size:10px">500.00</text>
<path d="M65.305,28.263L65.305,36.263" style="fill:none;stroke:#000000;stroke-width:0.5" />
<path d="M383.12,28.263L383.12,36.263" style="fill:none;stroke:#000000;stroke-width:0.5" />
<path d="M700.93,28.263L700.93,36.263" style="fill:none;stroke:#000000;stroke-width:0.5" />
<path d="M128.87,32.263L128.87,36.263" style="fill:none;stroke:#000000;stroke-width:0.5" />
<path d="M192.43,32.263L192.43,36.263" style="fill:none;stroke:#000000;stroke-width:0.5" />
<path d="M255.99,32.263L255.99,36.263" style="fill:none;stroke:#000000;stroke-width:0.5" />
<path d="M319.56,32.263L319.56,36.263" style="fill:none;stroke:#000000;stroke-width:0.5" />
<path d="M446.68,32.263L446.68,36.263" style="fill:none;stroke:#000000;stroke-width:0.5" />
<path d="M510.24,32.263L510.24,36.263" style="fill:none;stroke:#000000;stroke-width:0.5" />
<path d="M573.81,32.263L573.81,36.263" style="fill:none;stroke:#000000;stroke-width:0.5" />
<path d="M637.37,32.263L637.37,36.263" style="fill:none;stroke:#000000;stroke-width:0.5" />
<path d="M65.305,36.263L720,36.263" style="fill:none;stroke:#000000;stroke-width:0.5" />
<g transform="rotate(90)">
<text x="152.55" y="11.555" transform="scale(1, -1)"
	style="font-family:Times;font-weight:normal;font-style:normal;font-size:12px">Number of trials (1000000 total)</text>
</g>
<text x="24.055" y="-106.41" transform="scale(1, -1)"
	style="font-family:Times;font-weight:normal;font-style:normal;font-size:10px">30000</text>
<text x="24.055" y="-235.34" transform="scale(1, -1)"
	style="font-family:Times;font-weight:normal;font-style:normal;font-size:10px">90000</text>
<text x="19.055" y="-364.27" transform="scale(1, -1)"
	style="font-family:Times;font-weight:normal;font-style:normal;font-size:10px">150000</text>
<path d="M51.555,109.61L59.555,109.61" style="fill:none;stroke:#000000;stroke-width:0.5" />
<path d="M51.555,238.55L59.555,238.55" style="fill:none;stroke:#000000;stroke-width:0.5" />
<path d="M51.555,367.48L59.555,367.48" style="fill:none;stroke:#000000;stroke-width:0.5" />
<path d="M55.555,174.08L59.555,174.08" style="fill:none;stroke:#000000;stroke-width:0.5" />
<path d="M55.555,303.01L59.555,303.01" style="fill:none;stroke:#000000;stroke-width:0.5" />
<path d="M59.555,45.151L59.555,416.58" style="fill:none;stroke:#000000;stroke-width:0.5" />
<path d="M65.305,416.58L93.272,52.17L98.357,48.403L99.629,69.158L100.9,68.898L102.17,52.255L103.44,52.268L104.71,69.61L107.26,51.808L108.53,102.41L109.8,73.419L111.07,55.55L112.34,69.994L113.61,52.395L114.88,59.256L116.15,58.627L117.43,62.299L118.7,80.24L119.97,51.961L121.24,77.642L122.51,48.506L123.78,48.622L126.32,45.224L127.6,49.155L128.87,59.519L130.14,45.293L131.41,45.244L132.68,98.406L133.95,74.303L135.22,46.898L136.49,79.271L137.77,46.763L139.04,57.832L140.31,57.95L141.58,46.793L142.85,71.69L144.12,83.831L145.39,70.557L146.66,50.184L147.94,51.991L149.21,49.892L150.48,52.861L151.75,53.1L153.02,54.183L154.29,52.29L155.56,72.229L156.83,53.059L158.11,58.951L159.38,71.586L160.65,53.889L161.92,54.701L163.19,55.926L164.46,54.546L165.73,52.292L167,75.435L168.28,62.993L169.55,51.377L170.82,53.465L172.09,57.275L173.36,52.638L174.63,52.305L175.9,59.733L177.17,57.496L178.45,55.395L179.72,60.387L180.99,54.464L182.26,54.806L183.53,57.002L184.8,54.492L186.07,59.108L187.34,59.824L188.62,60.099L189.89,58.371L191.16,53.588L192.43,54.615L193.7,53.128L194.97,55.055L196.24,55.373L197.52,54.589L198.79,56.826L200.06,56.102L201.33,56.955L202.6,55.279L203.87,55.765L205.14,52.881L206.41,54.856L207.69,54.546L208.96,52.698L210.23,57.183L211.5,61.771L212.77,57.213L214.04,55.799L215.31,54.718L216.58,52.806L217.86,52.195L219.13,52.986L220.4,52.496L221.67,53.416L222.94,56.927L224.21,54.119L225.48,51.409L226.75,55.532L228.03,51.596L229.3,51.974L230.57,54.071L231.84,51.147L233.11,52.255L234.38,55.651L235.65,54.746L236.92,52.576L238.2,54.411L239.47,52.554L240.74,51.258L242.01,51.529L243.28,51.05L244.55,51.843L245.82,52.838L247.09,52.797L248.37,51.215L249.64,51.503L250.91,50.82L252.18,50.801L253.45,50.768L254.72,51.228L255.99,50.706L257.26,52.492L258.54,51.037L259.81,50.478L261.08,51.533L262.35,50.691L263.62,50.438L264.89,50.433L266.16,50.573L267.43,50.405L268.71,50.072L269.98,50.725L271.25,49.778L272.52,49.84L273.79,49.855L275.06,49.707L276.33,49.352L277.6,50.203L278.88,50.283L280.15,49.75L281.42,49.812L282.69,49.685L283.96,49.247L285.23,49.183L286.5,49.168L287.77,48.966L289.05,49.193L290.32,49.576L291.59,49.492L292.86,48.753L294.13,48.873L295.4,48.731L296.67,48.394L297.94,48.701L299.22,48.175L300.49,48.508L301.76,48.725L303.03,48.525L304.3,48.299L305.57,48.596L306.84,48.005L308.11,48.209L309.39,47.932L310.66,47.958L311.93,47.951L313.2,48.19L314.47,48.037L315.74,47.947L317.01,48.048L318.28,47.668L319.56,47.496L320.83,47.457L322.1,47.315L323.37,47.427L324.64,47.423L325.91,47.507L327.18,47.309L328.45,47.528L329.73,47.287L331,47.135L332.27,47.246L333.54,47.105L334.81,47.128L336.08,47.133L337.35,46.941L338.62,46.922L339.9,46.92L341.17,46.879L342.44,46.735L343.71,46.737L344.98,46.765L346.25,46.754L347.52,46.737L348.79,46.769L350.07,46.733L351.34,46.748L352.61,46.636L353.88,46.434L355.15,46.527L356.42,46.469L357.69,46.613L358.96,46.576L360.24,46.432L361.51,46.396L362.78,46.376L364.05,46.267L365.32,46.204L366.59,46.28L367.86,46.301L369.13,46.181L370.41,46.275L371.68,46.221L372.95,46.12L374.22,46.157L375.49,46.142L376.76,46.075L378.03,46.004L379.3,46.065L380.58,46.084L381.85,46.054L383.12,45.97L384.39,45.979L385.66,45.957L386.93,45.858L388.2,45.837L389.47,45.843L390.75,45.813L392.02,45.888L393.29,45.798L394.56,45.768L395.83,45.753L397.1,45.807L398.37,45.798L399.64,45.729L400.92,45.695L402.19,45.701L403.46,45.74L404.73,45.646L406,45.708L407.27,45.663L408.54,45.704L409.81,45.639L411.09,45.749L412.36,45.637L413.63,45.603L414.9,45.575L416.17,45.566L417.44,45.568L418.71,45.594L419.98,45.568L421.26,45.521L422.53,45.515L423.8,45.553L425.07,45.51L426.34,45.495L427.61,45.515L428.88,45.495L430.15,45.444L431.43,45.463L432.7,45.452L433.97,45.446L435.24,45.401L436.51,45.444L437.78,45.429L439.05,45.446L440.32,45.409L441.6,45.409L442.87,45.39L444.14,45.431L445.41,45.383L446.68,45.371L447.95,45.353L449.22,45.39L450.49,45.368L451.77,45.351L453.04,45.351L454.31,45.343L455.58,45.371L456.85,45.325L458.12,45.343L459.39,45.334L460.66,45.313L461.94,45.282L463.21,45.295L464.48,45.334L465.75,45.321L467.02,45.291L468.29,45.27L469.56,45.297L470.83,45.257L472.11,45.263L473.38,45.278L474.65,45.265L475.92,45.27L477.19,45.257L478.46,45.265L479.73,45.267L481,45.231L482.28,45.244L483.55,45.25L484.82,45.257L486.09,45.265L487.36,45.246L488.63,45.257L489.9,45.257L491.17,45.248L492.45,45.222L493.72,45.244L494.99,45.239L496.26,45.207L497.53,45.216L498.8,45.214L500.07,45.214L501.34,45.209L502.62,45.203L503.89,45.179L505.16,45.203L506.43,45.192L507.7,45.194L508.97,45.19L510.24,45.201L511.51,45.203L512.79,45.196L514.06,45.188L515.33,45.184L516.6,45.186L517.87,45.201L519.14,45.181L520.41,45.184L521.68,45.203L522.96,45.209L524.23,45.181L525.5,45.19L526.77,45.175L528.04,45.199L529.31,45.194L530.58,45.171L531.85,45.194L533.13,45.181L534.4,45.19L535.67,45.173L536.94,45.186L538.21,45.179L539.48,45.177L540.75,45.184L542.02,45.169L543.3,45.175L544.57,45.169L545.84,45.186L547.11,45.177L548.38,45.171L549.65,45.169L550.92,45.16L552.19,45.171L553.47,45.162L554.74,45.16L556.01,45.166L557.28,45.171L558.55,45.16L559.82,45.179L561.09,45.156L562.36,45.162L563.64,45.16L564.91,45.164L566.18,45.166L567.45,45.158L568.72,45.16L569.99,45.156L571.26,45.154L572.53,45.164L573.81,45.162L575.08,45.158L576.35,45.156L577.62,45.158L578.89,45.158L580.16,45.158L581.43,45.158L582.7,45.16L583.98,45.162L585.25,45.16L586.52,45.162L587.79,45.158L589.06,45.16L590.33,45.16L591.6,45.154L592.87,45.166L594.15,45.151L595.42,45.154L596.69,45.156L597.96,45.151L599.23,45.158L600.5,45.156L601.77,45.154L603.04,45.158L604.32,45.151L605.59,45.156L606.86,45.16L608.13,45.158L609.4,45.158L610.67,45.156L611.94,45.158L613.21,45.156L615.76,45.151L617.03,45.151L618.3,45.151L622.11,45.154L623.38,45.151L624.66,45.154L625.93,45.154L628.47,45.151L629.74,45.154L632.28,45.156L633.55,45.151L634.83,45.151L636.1,45.151L637.37,45.154L639.91,45.156L641.18,45.151L643.72,45.154L651.35,45.151L652.62,45.151L653.89,45.151L655.17,45.151L657.71,45.151L660.25,45.151L664.06,45.151L666.61,45.151L667.88,45.151L676.78,45.151L679.32,45.151L681.86,45.151L683.13,45.151L686.95,45.151L693.3,45.151L702.2,45.151L706.02,45.151L720,45.151" style="fill:none;stroke:#0000FF" />
</g>
</svg>
