<?xml version="1.0"?>
<!-- Generated by SVGo and Plotinum VG -->
<svg width="720pt" height="432pt" viewBox="0 0 720 432"
	xmlns="http://www.w3.org/2000/svg"
	xmlns:xlink="http://www.w3.org/1999/xlink">
<g transform="scale(1, -1) translate(0, -432)">
<path d="M0,0L720,0L720,432L0,432Z" style="fill:#FFFFFF" />
<text x="358.5" y="-420.45" transform="scale(1, -1)"
	style="font-family:Times;font-weight:normal;font-style:normal;font-size:12px"> </text>
<text x="385.56" y="-3.8613" transform="scale(1, -1)"
	style="font-family:Times;font-weight:normal;font-style:normal;font-size:12px">Costs</text>
<text x="69.055" y="-18.634" transform="scale(1, -1)"
	style="font-family:Times;font-weight:normal;font-style:normal;font-size:10px">0.00</text>
<text x="344.24" y="-18.634" transform="scale(1, -1)"
	style="font-family:Times;font-weight:normal;font-style:normal;font-size:10px">250.00</text>
<text x="624.43" y="-18.634" transform="scale(1, -1)"
	style="font-family:Times;font-weight:normal;font-style:normal;font-size:10px">500.00</text>
<path d="M77.805,28.263L77.805,36.263" style="fill:none;stroke:#000000;stroke-width:0.5" />
<path d="M357.99,28.263L357.99,36.263" style="fill:none;stroke:#000000;stroke-width:0.5" />
<path d="M638.18,28.263L638.18,36.263" style="fill:none;stroke:#000000;stroke-width:0.5" />
<path d="M133.84,32.263L133.84,36.263" style="fill:none;stroke:#000000;stroke-width:0.5" />
<path d="M189.88,32.263L189.88,36.263" style="fill:none;stroke:#000000;stroke-width:0.5" />
<path d="M245.92,32.263L245.92,36.263" style="fill:none;stroke:#000000;stroke-width:0.5" />
<path d="M301.96,32.263L301.96,36.263" style="fill:none;stroke:#000000;stroke-width:0.5" />
<path d="M414.03,32.263L414.03,36.263" style="fill:none;stroke:#000000;stroke-width:0.5" />
<path d="M470.07,32.263L470.07,36.263" style="fill:none;stroke:#000000;stroke-width:0.5" />
<path d="M526.11,32.263L526.11,36.263" style="fill:none;stroke:#000000;stroke-width:0.5" />
<path d="M582.15,32.263L582.15,36.263" style="fill:none;stroke:#000000;stroke-width:0.5" />
<path d="M694.22,32.263L694.22,36.263" style="fill:none;stroke:#000000;stroke-width:0.5" />
<path d="M77.805,36.263L720,36.263" style="fill:none;stroke:#000000;stroke-width:0.5" />
<g transform="rotate(90)">
<text x="152.55" y="11.555" transform="scale(1, -1)"
	style="font-family:Times;font-weight:normal;font-style:normal;font-size:12px">Number of trials (1000000 total)</text>
</g>
<text x="24.055" y="-91.173" transform="scale(1, -1)"
	style="font-family:Times;font-weight:normal;font-style:normal;font-size:10px">25000.00</text>
<text x="19.055" y="-238.86" transform="scale(1, -1)"
	style="font-family:Times;font-weight:normal;font-style:normal;font-size:10px">100000.00</text>
<text x="19.055" y="-386.54" transform="scale(1, -1)"
	style="font-family:Times;font-weight:normal;font-style:normal;font-size:10px">175000.00</text>
<path d="M64.055,94.378L72.055,94.378" style="fill:none;stroke:#000000;stroke-width:0.5" />
<path d="M64.055,242.06L72.055,242.06" style="fill:none;stroke:#000000;stroke-width:0.5" />
<path d="M64.055,389.75L72.055,389.75" style="fill:none;stroke:#000000;stroke-width:0.5" />
<path d="M68.055,168.22L72.055,168.22" style="fill:none;stroke:#000000;stroke-width:0.5" />
<path d="M68.055,315.91L72.055,315.91" style="fill:none;stroke:#000000;stroke-width:0.5" />
<path d="M72.055,45.151L72.055,416.58" style="fill:none;stroke:#000000;stroke-width:0.5" />
<path d="M77.805,416.58L103.58,59.26L104.7,52.591L106.94,78.56L108.07,63.122L109.19,59.16L110.31,75.74L111.43,48.619L112.55,48.889L113.67,58.813L114.79,59.308L115.91,89.408L117.03,55.456L118.15,52.238L121.51,52.488L122.64,56.198L123.76,66.085L124.88,63.405L126,80.594L127.12,59.365L128.24,59.073L129.36,56.021L130.48,45.394L132.72,57.167L133.84,64.272L134.96,56.901L136.08,46.951L137.2,62.257L138.33,57.126L139.45,48.775L140.57,78.31L141.69,78.526L142.81,54.83L143.93,69.405L145.05,60.491L146.17,86.958L147.29,49.633L148.41,53.784L149.53,47.753L150.65,48.639L151.77,50.253L152.9,51.153L154.02,51.557L155.14,53.215L156.26,51.626L157.38,50.539L158.5,51.622L159.62,94.114L160.74,58.108L161.86,52.634L162.98,53.191L164.1,57.844L165.22,51.331L166.34,52.813L167.47,66.113L168.59,74.71L169.71,53.294L170.83,55.6L171.95,56.198L173.07,57.831L174.19,54.015L175.31,56.027L176.43,54.938L177.55,53.668L178.67,55.696L179.79,53.894L180.91,52.681L182.04,54.572L183.16,52.581L184.28,54.219L185.4,53.719L186.52,53.113L187.64,51.191L188.76,57.279L189.88,56.899L191,54.739L192.12,57.701L193.24,54.28L194.36,54.775L195.48,53.004L196.61,55.265L197.73,59.262L198.85,53.034L199.97,53.286L201.09,54.432L202.21,51.715L203.33,52.022L204.45,54.02L205.57,55.633L206.69,56.712L207.81,56.277L208.93,55.147L210.05,53.247L211.18,52.03L212.3,51.996L213.42,50.758L214.54,53.05L215.66,53.636L216.78,53.56L217.9,50.328L219.02,52.266L220.14,51.122L221.26,49.543L222.38,52.658L223.5,54.605L224.62,51.994L225.74,52.27L226.87,52.032L227.99,55.092L229.11,50.85L230.23,51.268L231.35,52.597L232.47,52L233.59,50.464L234.71,51.222L235.83,51.628L236.95,52.329L238.07,49.858L239.19,49.808L240.31,49.617L241.44,49.438L242.56,50.1L243.68,49.598L244.8,49.643L245.92,50.259L247.04,49.257L248.16,49.436L249.28,50.797L250.4,51.683L251.52,49.456L252.64,49.586L253.76,49.7L254.88,49.988L256.01,49.21L257.13,49.623L258.25,50.129L259.37,48.794L260.49,49.202L261.61,49.196L262.73,49.029L263.85,49.212L264.97,48.719L266.09,48.694L267.21,48.519L268.33,48.526L269.45,48.595L270.58,48.503L271.7,48.584L272.82,48.475L273.94,48.487L275.06,48.586L276.18,48.436L277.3,47.898L278.42,48.158L279.54,48.263L280.66,48.089L281.78,47.902L282.9,48.261L284.02,47.877L285.15,47.822L286.27,47.739L287.39,47.894L288.51,47.806L289.63,47.491L290.75,47.662L291.87,47.569L292.99,47.418L294.11,47.408L295.23,47.26L296.35,47.355L297.47,47.325L298.59,47.373L299.72,47.25L300.84,47.117L301.96,46.945L303.08,46.949L304.2,46.805L305.32,46.973L306.44,46.951L307.56,46.713L308.68,46.811L309.8,46.823L310.92,46.672L312.04,46.683L313.16,46.894L314.28,46.918L315.41,46.711L316.53,46.65L317.65,46.863L318.77,46.813L319.89,46.475L321.01,46.53L322.13,46.51L323.25,46.349L324.37,46.262L325.49,46.323L326.61,46.419L327.73,46.28L328.85,46.256L329.98,46.152L331.1,46.209L332.22,46.207L333.34,46.215L334.46,46.179L335.58,46.191L336.7,46.043L337.82,46.069L338.94,46.034L340.06,46.063L341.18,46.053L342.3,46.026L343.42,45.941L344.55,46.006L345.67,45.882L346.79,45.992L347.91,45.971L349.03,45.896L350.15,45.902L351.27,45.815L352.39,45.833L353.51,45.774L354.63,45.801L355.75,45.827L356.87,45.724L357.99,45.758L359.12,45.713L360.24,45.677L361.36,45.695L362.48,45.748L363.6,45.677L364.72,45.62L365.84,45.616L366.96,45.628L368.08,45.598L369.2,45.549L370.32,45.502L371.44,45.571L372.56,45.569L373.69,45.602L374.81,45.553L375.93,45.492L377.05,45.514L378.17,45.571L379.29,45.49L380.41,45.51L381.53,45.494L382.65,45.466L383.77,45.455L384.89,45.439L386.01,45.417L387.13,45.429L388.26,45.435L389.38,45.407L390.5,45.421L391.62,45.405L392.74,45.35L393.86,45.376L394.98,45.346L396.1,45.372L397.22,45.333L398.34,45.36L399.46,45.348L400.58,45.338L401.7,45.364L402.83,45.336L403.95,45.317L405.07,45.305L406.19,45.311L407.31,45.307L408.43,45.313L409.55,45.303L410.67,45.299L411.79,45.305L412.91,45.293L414.03,45.289L415.15,45.307L416.27,45.283L417.39,45.289L418.52,45.268L419.64,45.26L420.76,45.289L421.88,45.275L423,45.254L424.12,45.234L425.24,45.264L426.36,45.238L427.48,45.236L428.6,45.279L429.72,45.228L430.84,45.24L431.96,45.23L433.09,45.228L434.21,45.23L435.33,45.228L436.45,45.246L437.57,45.25L438.69,45.228L439.81,45.212L440.93,45.199L442.05,45.214L443.17,45.226L444.29,45.207L445.41,45.208L446.53,45.21L447.66,45.216L448.78,45.193L449.9,45.212L451.02,45.197L452.14,45.212L453.26,45.179L454.38,45.161L455.5,45.193L456.62,45.183L457.74,45.201L458.86,45.197L459.98,45.179L461.1,45.191L462.23,45.181L463.35,45.187L464.47,45.187L465.59,45.183L466.71,45.177L467.83,45.169L468.95,45.175L470.07,45.181L471.19,45.195L472.31,45.181L473.43,45.171L474.55,45.177L475.67,45.175L476.8,45.167L477.92,45.157L479.04,45.179L480.16,45.171L481.28,45.167L482.4,45.171L483.52,45.165L484.64,45.169L485.76,45.165L486.88,45.167L488,45.173L489.12,45.167L490.24,45.157L491.37,45.167L492.49,45.157L493.61,45.159L494.73,45.157L495.85,45.163L496.97,45.157L498.09,45.161L499.21,45.159L500.33,45.155L501.45,45.161L502.57,45.169L503.69,45.153L504.81,45.165L505.93,45.159L507.06,45.161L508.18,45.151L509.3,45.171L510.42,45.161L511.54,45.155L512.66,45.155L513.78,45.157L514.9,45.157L516.02,45.155L517.14,45.151L518.26,45.159L519.38,45.151L520.5,45.163L521.63,45.151L522.75,45.155L523.87,45.159L524.99,45.151L527.23,45.151L528.35,45.151L529.47,45.151L530.59,45.157L531.71,45.153L532.83,45.163L535.07,45.157L536.2,45.153L537.32,45.155L538.44,45.153L540.68,45.151L541.8,45.153L542.92,45.153L545.16,45.155L546.28,45.153L547.4,45.151L548.52,45.153L553.01,45.151L554.13,45.151L555.25,45.153L557.49,45.151L558.61,45.151L560.85,45.153L564.21,45.151L565.34,45.151L567.58,45.151L572.06,45.151L573.18,45.151L574.3,45.153L575.42,45.151L576.54,45.151L577.66,45.151L579.91,45.151L581.03,45.151L584.39,45.151L595.6,45.151L601.2,45.153L611.29,45.151L612.41,45.153L631.46,45.151L720,45.151" style="fill:none;stroke:#0000FF" />
</g>
</svg>
