<?xml version="1.0"?>
<!-- Generated by SVGo and Plotinum VG -->
<svg width="720pt" height="432pt" viewBox="0 0 720 432"
	xmlns="http://www.w3.org/2000/svg"
	xmlns:xlink="http://www.w3.org/1999/xlink">
<g transform="scale(1, -1) translate(0, -432)">
<path d="M0,0L720,0L720,432L0,432Z" style="fill:#FFFFFF" />
<text x="358.5" y="-420.45" transform="scale(1, -1)"
	style="font-family:Times;font-weight:normal;font-style:normal;font-size:12px"> </text>
<text x="379.31" y="-3.8613" transform="scale(1, -1)"
	style="font-family:Times;font-weight:normal;font-style:normal;font-size:12px">Costs</text>
<text x="62.805" y="-18.634" transform="scale(1, -1)"
	style="font-family:Times;font-weight:normal;font-style:normal;font-size:10px">0</text>
<text x="363.02" y="-18.634" transform="scale(1, -1)"
	style="font-family:Times;font-weight:normal;font-style:normal;font-size:10px">200</text>
<text x="668.24" y="-18.634" transform="scale(1, -1)"
	style="font-family:Times;font-weight:normal;font-style:normal;font-size:10px">400</text>
<path d="M65.305,28.263L65.305,36.263" style="fill:none;stroke:#000000;stroke-width:0.5" />
<path d="M370.52,28.263L370.52,36.263" style="fill:none;stroke:#000000;stroke-width:0.5" />
<path d="M675.74,28.263L675.74,36.263" style="fill:none;stroke:#000000;stroke-width:0.5" />
<path d="M217.91,32.263L217.91,36.263" style="fill:none;stroke:#000000;stroke-width:0.5" />
<path d="M523.13,32.263L523.13,36.263" style="fill:none;stroke:#000000;stroke-width:0.5" />
<path d="M65.305,36.263L720,36.263" style="fill:none;stroke:#000000;stroke-width:0.5" />
<g transform="rotate(90)">
<text x="152.55" y="11.555" transform="scale(1, -1)"
	style="font-family:Times;font-weight:normal;font-style:normal;font-size:12px">Number of trials (1000000 total)</text>
</g>
<text x="24.055" y="-111.58" transform="scale(1, -1)"
	style="font-family:Times;font-weight:normal;font-style:normal;font-size:10px">50000</text>
<text x="19.055" y="-250.84" transform="scale(1, -1)"
	style="font-family:Times;font-weight:normal;font-style:normal;font-size:10px">150000</text>
<text x="19.055" y="-390.1" transform="scale(1, -1)"
	style="font-family:Times;font-weight:normal;font-style:normal;font-size:10px">250000</text>
<path d="M51.555,114.78L59.555,114.78" style="fill:none;stroke:#000000;stroke-width:0.5" />
<path d="M51.555,254.04L59.555,254.04" style="fill:none;stroke:#000000;stroke-width:0.5" />
<path d="M51.555,393.3L59.555,393.3" style="fill:none;stroke:#000000;stroke-width:0.5" />
<path d="M55.555,184.41L59.555,184.41" style="fill:none;stroke:#000000;stroke-width:0.5" />
<path d="M55.555,323.67L59.555,323.67" style="fill:none;stroke:#000000;stroke-width:0.5" />
<path d="M59.555,45.151L59.555,416.58" style="fill:none;stroke:#000000;stroke-width:0.5" />
<path d="M65.305,416.58L98.879,55.909L106.51,58.82L108.04,65.861L109.56,48.675L111.09,48.712L112.61,59.302L114.14,66.22L115.67,63.166L117.19,66.351L118.72,52.158L120.24,55.749L121.77,62.18L124.82,48.657L127.87,66.227L129.4,91.404L132.45,66.27L133.98,63.509L140.08,56.003L141.61,56.173L143.14,52.013L144.66,45.266L146.19,113.04L147.71,75.125L149.24,46.334L150.77,56.931L152.29,45.658L153.82,46.119L155.34,76.097L156.87,47.158L158.4,54.432L159.92,60.99L161.45,47.536L162.97,48.96L164.5,48.008L166.03,47.595L167.55,51.204L169.08,48.061L170.61,49.971L172.13,49.548L173.66,55.305L175.18,48.879L176.71,57.032L178.24,56.075L179.76,51.694L181.29,51.503L182.81,49.647L184.34,50.534L185.87,49.247L187.39,60.225L188.92,64.645L190.44,50.236L191.97,51.13L193.5,52.017L195.02,52.291L196.55,55.88L198.08,55.661L199.6,50.154L201.13,50.757L202.65,52.5L204.18,50.669L205.71,49.744L207.23,50.197L208.76,52.236L210.28,58.728L211.81,52.041L213.34,50.684L214.86,53.102L216.39,48.467L217.91,48.547L219.44,51.088L220.97,49.267L222.49,52.988L224.02,51.699L225.54,48.267L227.07,52.6L228.6,53.382L230.12,49.209L231.65,50.557L233.18,48.648L234.7,47.953L236.23,53.79L237.75,51.193L239.28,49.484L240.81,53.197L242.33,49.552L243.86,48.64L245.38,49.172L246.91,47.327L248.44,48.598L249.96,49.062L251.49,49.417L253.01,49.573L254.54,49.239L256.07,48.953L257.59,49.448L259.12,49.46L260.65,48.353L262.17,48.393L263.7,48.774L265.22,48.002L266.75,48.205L268.28,49.746L269.8,50.482L271.33,48.852L272.85,48.087L274.38,48.12L275.91,47.675L277.43,48.602L278.96,49.003L280.48,47.427L282.01,47.783L283.54,47.747L285.06,47.587L286.59,47.659L288.11,47.491L289.64,47.58L291.17,47.969L292.69,47.62L294.22,46.972L295.75,47.473L297.27,47.169L298.8,47.059L300.32,47.913L301.85,47.302L303.38,47.385L304.9,47.608L306.43,46.898L307.95,46.835L309.48,47.16L311.01,46.98L312.53,46.923L314.06,46.813L315.58,46.65L317.11,46.98L318.64,47.166L320.16,46.692L321.69,47.101L323.21,46.757L324.74,46.416L326.27,46.635L327.79,46.41L329.32,46.334L330.85,46.618L332.37,46.565L333.9,46.623L335.42,46.462L336.95,46.402L338.48,46.299L340,46.206L341.53,46.295L343.05,46.189L344.58,46.292L346.11,46.261L347.63,46.194L349.16,46.242L350.68,46.278L352.21,46.135L353.74,46.057L355.26,45.984L356.79,45.888L358.32,45.98L359.84,46.07L361.37,45.96L362.89,45.96L364.42,45.967L365.95,45.869L367.47,45.889L369,45.873L370.52,45.838L372.05,45.814L373.58,45.768L375.1,45.752L376.63,45.778L378.15,45.725L379.68,45.731L381.21,45.796L382.73,45.745L384.26,45.672L385.78,45.675L387.31,45.678L388.84,45.618L390.36,45.649L391.89,45.632L393.42,45.605L394.94,45.632L396.47,45.614L397.99,45.571L399.52,45.603L401.05,45.591L402.57,45.52L404.1,45.525L405.62,45.505L407.15,45.561L408.68,45.513L410.2,45.438L411.73,45.515L413.25,45.476L414.78,45.459L416.31,45.444L417.83,45.419L419.36,45.463L420.89,45.416L422.41,45.44L423.94,45.387L425.46,45.412L426.99,45.417L428.52,45.399L430.04,45.364L431.57,45.391L433.09,45.373L434.62,45.36L436.15,45.342L437.67,45.324L439.2,45.337L440.72,45.345L442.25,45.353L443.78,45.312L445.3,45.325L446.83,45.309L448.35,45.31L449.88,45.277L451.41,45.291L452.93,45.298L454.46,45.295L455.99,45.277L457.51,45.252L459.04,45.275L460.56,45.279L462.09,45.278L463.62,45.284L465.14,45.254L466.67,45.243L468.19,45.257L469.72,45.267L471.25,45.247L472.77,45.253L474.3,45.238L475.82,45.247L477.35,45.214L478.88,45.225L480.4,45.231L481.93,45.24L483.46,45.22L484.98,45.238L486.51,45.206L488.03,45.213L489.56,45.211L491.09,45.208L492.61,45.207L494.14,45.234L495.66,45.193L497.19,45.208L498.72,45.197L500.24,45.206L501.77,45.202L503.29,45.195L504.82,45.203L506.35,45.203L507.87,45.19L509.4,45.19L510.92,45.192L512.45,45.183L513.98,45.189L515.5,45.188L517.03,45.188L518.56,45.183L520.08,45.197L521.61,45.179L523.13,45.182L524.66,45.183L526.19,45.178L527.71,45.178L529.24,45.176L530.76,45.178L532.29,45.164L533.82,45.188L535.34,45.182L536.87,45.178L538.39,45.167L539.92,45.165L541.45,45.175L542.97,45.163L544.5,45.172L546.03,45.167L547.55,45.165L549.08,45.156L550.6,45.164L552.13,45.175L553.66,45.156L555.18,45.161L556.71,45.163L558.23,45.164L559.76,45.163L561.29,45.158L562.81,45.158L564.34,45.168L565.86,45.165L567.39,45.154L568.92,45.165L570.44,45.157L571.97,45.163L573.49,45.157L575.02,45.16L576.55,45.151L578.07,45.161L579.6,45.153L581.13,45.156L582.65,45.157L584.18,45.158L585.7,45.164L587.23,45.151L588.76,45.157L590.28,45.158L591.81,45.153L593.33,45.154L594.86,45.156L596.39,45.156L597.91,45.163L599.44,45.157L600.96,45.153L602.49,45.153L604.02,45.154L605.54,45.153L607.07,45.153L608.59,45.156L610.12,45.154L611.65,45.154L613.17,45.154L614.7,45.153L616.23,45.156L617.75,45.154L619.28,45.156L620.8,45.156L622.33,45.154L623.86,45.153L625.38,45.157L626.91,45.151L628.43,45.153L631.49,45.153L633.01,45.153L634.54,45.151L637.59,45.156L639.12,45.154L640.64,45.151L642.17,45.153L643.7,45.153L646.75,45.153L651.33,45.151L652.85,45.153L654.38,45.153L655.9,45.151L657.43,45.151L658.96,45.151L662.01,45.153L663.53,45.153L668.11,45.153L671.16,45.153L675.74,45.151L678.8,45.151L683.37,45.151L686.43,45.153L689.48,45.151L691,45.151L692.53,45.153L695.58,45.151L701.69,45.151L706.27,45.153L720,45.151" style="fill:none;stroke:#0000FF" />
</g>
</svg>
