<?xml version="1.0"?>
<!-- Generated by SVGo and Plotinum VG -->
<svg width="720pt" height="432pt" viewBox="0 0 720 432"
	xmlns="http://www.w3.org/2000/svg"
	xmlns:xlink="http://www.w3.org/1999/xlink">
<g transform="scale(1, -1) translate(0, -432)">
<path d="M0,0L720,0L720,432L0,432Z" style="fill:#FFFFFF" />
<text x="358.5" y="-420.45" transform="scale(1, -1)"
	style="font-family:Times;font-weight:normal;font-style:normal;font-size:12px"> </text>
<text x="385.56" y="-3.8613" transform="scale(1, -1)"
	style="font-family:Times;font-weight:normal;font-style:normal;font-size:12px">Costs</text>
<text x="69.055" y="-18.634" transform="scale(1, -1)"
	style="font-family:Times;font-weight:normal;font-style:normal;font-size:10px">0.00</text>
<text x="374.59" y="-18.634" transform="scale(1, -1)"
	style="font-family:Times;font-weight:normal;font-style:normal;font-size:10px">250.00</text>
<text x="685.13" y="-18.634" transform="scale(1, -1)"
	style="font-family:Times;font-weight:normal;font-style:normal;font-size:10px">500.00</text>
<path d="M77.805,28.263L77.805,36.263" style="fill:none;stroke:#000000;stroke-width:0.5" />
<path d="M388.34,28.263L388.34,36.263" style="fill:none;stroke:#000000;stroke-width:0.5" />
<path d="M698.88,28.263L698.88,36.263" style="fill:none;stroke:#000000;stroke-width:0.5" />
<path d="M139.91,32.263L139.91,36.263" style="fill:none;stroke:#000000;stroke-width:0.5" />
<path d="M202.02,32.263L202.02,36.263" style="fill:none;stroke:#000000;stroke-width:0.5" />
<path d="M264.13,32.263L264.13,36.263" style="fill:none;stroke:#000000;stroke-width:0.5" />
<path d="M326.24,32.263L326.24,36.263" style="fill:none;stroke:#000000;stroke-width:0.5" />
<path d="M450.45,32.263L450.45,36.263" style="fill:none;stroke:#000000;stroke-width:0.5" />
<path d="M512.56,32.263L512.56,36.263" style="fill:none;stroke:#000000;stroke-width:0.5" />
<path d="M574.67,32.263L574.67,36.263" style="fill:none;stroke:#000000;stroke-width:0.5" />
<path d="M636.78,32.263L636.78,36.263" style="fill:none;stroke:#000000;stroke-width:0.5" />
<path d="M77.805,36.263L720,36.263" style="fill:none;stroke:#000000;stroke-width:0.5" />
<g transform="rotate(90)">
<text x="152.55" y="11.555" transform="scale(1, -1)"
	style="font-family:Times;font-weight:normal;font-style:normal;font-size:12px">Number of trials (1000000 total)</text>
</g>
<text x="24.055" y="-82.353" transform="scale(1, -1)"
	style="font-family:Times;font-weight:normal;font-style:normal;font-size:10px">25000.00</text>
<text x="19.055" y="-243.99" transform="scale(1, -1)"
	style="font-family:Times;font-weight:normal;font-style:normal;font-size:10px">125000.00</text>
<text x="19.055" y="-405.62" transform="scale(1, -1)"
	style="font-family:Times;font-weight:normal;font-style:normal;font-size:10px">225000.00</text>
<path d="M64.055,85.558L72.055,85.558" style="fill:none;stroke:#000000;stroke-width:0.5" />
<path d="M64.055,247.19L72.055,247.19" style="fill:none;stroke:#000000;stroke-width:0.5" />
<path d="M64.055,408.83L72.055,408.83" style="fill:none;stroke:#000000;stroke-width:0.5" />
<path d="M68.055,166.38L72.055,166.38" style="fill:none;stroke:#000000;stroke-width:0.5" />
<path d="M68.055,328.01L72.055,328.01" style="fill:none;stroke:#000000;stroke-width:0.5" />
<path d="M72.055,45.151L72.055,416.58" style="fill:none;stroke:#000000;stroke-width:0.5" />
<path d="M77.805,416.58L106.37,55.729L110.1,48.547L111.34,69.678L112.59,73.483L113.83,51.937L116.31,55.184L117.55,58.989L118.8,59.121L120.04,83.898L121.28,55.637L122.52,48.706L123.76,48.492L125.01,52.448L126.25,52.111L127.49,55.414L128.73,55.355L129.98,72.639L131.22,58.85L132.46,83.994L133.7,55.444L134.94,55.572L137.43,48.463L138.67,52.126L139.91,49.28L141.15,56.22L142.4,45.349L143.64,73.515L144.88,70.381L146.12,47.43L147.37,64.859L148.61,53.595L149.85,57.004L151.09,50.584L152.33,58.438L153.58,56.201L154.82,70.735L156.06,68.879L157.3,46.551L158.54,48.365L159.79,48.491L161.03,52.965L162.27,49.134L163.51,49.979L164.76,49.692L166,53.978L167.24,51.057L168.48,63.479L169.72,63.426L170.97,49.768L172.21,52.396L173.45,65.343L174.69,51.874L175.94,50.168L177.18,68.676L178.42,62.128L179.66,50.851L180.9,50.663L182.15,51.599L183.39,53.198L184.63,53.264L185.87,53.666L187.11,54.017L188.36,52.136L189.6,53.647L190.84,51.546L192.08,50.463L193.33,50.535L194.57,51.735L195.81,53.411L197.05,53.417L198.29,54.445L199.54,52.396L200.78,50.172L202.02,52.399L203.26,51.801L204.5,52.126L205.75,51.045L206.99,53.432L208.23,53.49L209.47,52.41L210.72,55.174L211.96,52.63L213.2,51.565L214.44,49.958L215.68,51.793L216.93,50.699L218.17,51.133L219.41,52.535L220.65,53.288L221.89,53.207L223.14,51.901L224.38,51.298L225.62,51.549L226.86,50.416L228.11,50.784L229.35,50.844L230.59,50.873L231.83,51.193L233.07,51.316L234.32,49.798L235.56,50.19L236.8,49.313L238.04,49.325L239.29,50.468L240.53,50.24L241.77,48.846L243.01,50.458L244.25,51.205L245.5,50.164L246.74,50.388L247.98,49.753L249.22,49.189L250.46,49.667L251.71,49.701L252.95,49.058L254.19,49.375L255.43,49.642L256.68,49.066L257.92,48.263L259.16,48.143L260.4,48.874L261.64,48.615L262.89,48.26L264.13,48.709L265.37,49.089L266.61,48.187L267.85,48.793L269.1,48.979L270.34,48.321L271.58,47.909L272.82,48.814L274.07,48.631L275.31,48.1L276.55,48.051L277.79,48.384L279.03,47.812L280.28,47.705L281.52,47.791L282.76,47.681L284,47.749L285.24,47.936L286.49,47.917L287.73,47.636L288.97,47.616L290.21,47.577L291.46,47.552L292.7,47.324L293.94,47.338L295.18,47.429L296.42,47.387L297.67,47.498L298.91,47.437L300.15,47.188L301.39,47.085L302.64,47.151L303.88,47.06L305.12,46.944L306.36,47.052L307.6,46.971L308.85,46.849L310.09,46.829L311.33,46.874L312.57,46.878L313.81,46.773L315.06,46.719L316.3,46.685L317.54,46.724L318.78,46.679L320.03,46.558L321.27,46.635L322.51,46.566L323.75,46.577L324.99,46.388L326.24,46.396L327.48,46.362L328.72,46.37L329.96,46.326L331.2,46.304L332.45,46.357L333.69,46.213L334.93,46.226L336.17,46.118L337.42,46.142L338.66,46.166L339.9,46.234L341.14,46.181L342.38,46.16L343.63,46.113L344.87,46.082L346.11,46.103L347.35,46.027L348.59,45.99L349.84,45.968L351.08,45.955L352.32,46.01L353.56,45.871L354.81,45.864L356.05,45.885L357.29,45.814L358.53,45.869L359.77,45.843L361.02,45.803L362.26,45.829L363.5,45.806L364.74,45.766L365.99,45.728L367.23,45.706L368.47,45.746L369.71,45.732L370.95,45.728L372.2,45.686L373.44,45.682L374.68,45.644L375.92,45.648L377.16,45.627L378.41,45.644L379.65,45.57L380.89,45.607L382.13,45.589L383.38,45.565L384.62,45.517L385.86,45.544L387.1,45.531L388.34,45.518L389.59,45.552L390.83,45.5L392.07,45.46L393.31,45.533L394.55,45.486L395.8,45.505L397.04,45.447L398.28,45.446L399.52,45.426L400.77,45.423L402.01,45.452L403.25,45.421L404.49,45.399L405.73,45.421L406.98,45.421L408.22,45.368L409.46,45.374L410.7,45.379L411.94,45.352L413.19,45.376L414.43,45.37L415.67,45.368L416.91,45.376L418.16,45.36L419.4,45.368L420.64,45.326L421.88,45.339L423.12,45.319L424.37,45.287L425.61,45.287L426.85,45.3L428.09,45.308L429.34,45.316L430.58,45.294L431.82,45.295L433.06,45.297L434.3,45.303L435.55,45.253L436.79,45.256L438.03,45.276L439.27,45.276L440.51,45.279L441.76,45.261L443,45.274L444.24,45.277L445.48,45.276L446.73,45.243L447.97,45.243L449.21,45.231L450.45,45.231L451.69,45.239L452.94,45.25L454.18,45.247L455.42,45.224L456.66,45.232L457.9,45.201L459.15,45.235L460.39,45.224L461.63,45.229L462.87,45.218L464.12,45.219L465.36,45.216L466.6,45.218L467.84,45.195L469.08,45.197L470.33,45.198L471.57,45.195L472.81,45.208L474.05,45.201L475.3,45.203L476.54,45.19L477.78,45.205L479.02,45.189L480.26,45.185L481.51,45.189L482.75,45.189L483.99,45.19L485.23,45.182L486.47,45.184L487.72,45.193L488.96,45.187L490.2,45.195L491.44,45.185L492.69,45.19L493.93,45.176L495.17,45.177L496.41,45.166L497.65,45.187L498.9,45.179L500.14,45.176L501.38,45.169L502.62,45.172L503.86,45.177L505.11,45.189L506.35,45.171L507.59,45.179L508.83,45.177L510.08,45.171L511.32,45.164L512.56,45.168L513.8,45.158L515.04,45.166L516.29,45.161L517.53,45.172L518.77,45.161L520.01,45.169L521.25,45.161L522.5,45.159L523.74,45.158L524.98,45.159L526.22,45.159L527.47,45.161L528.71,45.163L529.95,45.158L531.19,45.156L532.43,45.153L533.68,45.169L534.92,45.161L536.16,45.159L537.4,45.161L538.65,45.159L539.89,45.163L541.13,45.161L542.37,45.155L543.61,45.159L544.86,45.151L546.1,45.153L547.34,45.153L548.58,45.159L549.82,45.158L551.07,45.156L552.31,45.155L553.55,45.158L554.79,45.156L556.04,45.156L557.28,45.155L558.52,45.161L559.76,45.156L561,45.155L562.25,45.156L565.97,45.151L567.21,45.155L568.46,45.153L569.7,45.159L570.94,45.151L572.18,45.153L573.43,45.155L574.67,45.153L575.91,45.159L577.15,45.153L578.39,45.151L579.64,45.153L582.12,45.155L583.36,45.153L584.6,45.153L585.85,45.153L587.09,45.155L588.33,45.153L589.57,45.153L590.82,45.151L592.06,45.151L593.3,45.155L594.54,45.153L595.78,45.155L597.03,45.151L598.27,45.153L599.51,45.151L602,45.151L603.24,45.155L604.48,45.151L605.72,45.151L606.96,45.151L609.45,45.151L613.17,45.153L614.42,45.151L616.9,45.156L618.14,45.151L619.39,45.153L620.63,45.151L623.11,45.151L629.32,45.151L630.56,45.151L633.05,45.151L642.99,45.151L649.2,45.151L651.68,45.151L661.62,45.153L666.59,45.151L720,45.151" style="fill:none;stroke:#0000FF" />
</g>
</svg>
