<?xml version="1.0"?>
<!-- Generated by SVGo and Plotinum VG -->
<svg width="720pt" height="432pt" viewBox="0 0 720 432"
	xmlns="http://www.w3.org/2000/svg"
	xmlns:xlink="http://www.w3.org/1999/xlink">
<g transform="scale(1, -1) translate(0, -432)">
<path d="M0,0L720,0L720,432L0,432Z" style="fill:#FFFFFF" />
<text x="358.5" y="-420.45" transform="scale(1, -1)"
	style="font-family:Times;font-weight:normal;font-style:normal;font-size:12px"> </text>
<text x="385.56" y="-3.8613" transform="scale(1, -1)"
	style="font-family:Times;font-weight:normal;font-style:normal;font-size:12px">Costs</text>
<text x="75.305" y="-18.634" transform="scale(1, -1)"
	style="font-family:Times;font-weight:normal;font-style:normal;font-size:10px">0</text>
<text x="339.01" y="-18.634" transform="scale(1, -1)"
	style="font-family:Times;font-weight:normal;font-style:normal;font-size:10px">200</text>
<text x="607.71" y="-18.634" transform="scale(1, -1)"
	style="font-family:Times;font-weight:normal;font-style:normal;font-size:10px">400</text>
<path d="M77.805,28.263L77.805,36.263" style="fill:none;stroke:#000000;stroke-width:0.5" />
<path d="M346.51,28.263L346.51,36.263" style="fill:none;stroke:#000000;stroke-width:0.5" />
<path d="M615.21,28.263L615.21,36.263" style="fill:none;stroke:#000000;stroke-width:0.5" />
<path d="M212.16,32.263L212.16,36.263" style="fill:none;stroke:#000000;stroke-width:0.5" />
<path d="M480.86,32.263L480.86,36.263" style="fill:none;stroke:#000000;stroke-width:0.5" />
<path d="M77.805,36.263L720,36.263" style="fill:none;stroke:#000000;stroke-width:0.5" />
<g transform="rotate(90)">
<text x="152.55" y="11.555" transform="scale(1, -1)"
	style="font-family:Times;font-weight:normal;font-style:normal;font-size:12px">Number of trials (1000000 total)</text>
</g>
<text x="24.055" y="-80.05" transform="scale(1, -1)"
	style="font-family:Times;font-weight:normal;font-style:normal;font-size:10px">25000.00</text>
<text x="19.055" y="-232.47" transform="scale(1, -1)"
	style="font-family:Times;font-weight:normal;font-style:normal;font-size:10px">125000.00</text>
<text x="19.055" y="-384.89" transform="scale(1, -1)"
	style="font-family:Times;font-weight:normal;font-style:normal;font-size:10px">225000.00</text>
<path d="M64.055,83.255L72.055,83.255" style="fill:none;stroke:#000000;stroke-width:0.5" />
<path d="M64.055,235.68L72.055,235.68" style="fill:none;stroke:#000000;stroke-width:0.5" />
<path d="M64.055,388.1L72.055,388.1" style="fill:none;stroke:#000000;stroke-width:0.5" />
<path d="M68.055,159.47L72.055,159.47" style="fill:none;stroke:#000000;stroke-width:0.5" />
<path d="M68.055,311.89L72.055,311.89" style="fill:none;stroke:#000000;stroke-width:0.5" />
<path d="M72.055,45.151L72.055,416.58" style="fill:none;stroke:#000000;stroke-width:0.5" />
<path d="M77.805,416.58L112.74,48.75L114.08,62.114L116.77,71.327L118.11,55.694L119.45,55.888L120.8,52.019L122.14,48.727L123.48,71.336L124.83,81.633L126.17,55.496L128.86,58.613L130.2,52.21L131.54,74.366L132.89,72.573L134.23,55.539L135.58,51.904L136.92,69.571L138.26,52.242L139.61,55.37L143.64,73.269L144.98,62.335L146.32,55.836L149.01,55.514L150.35,48.826L151.7,45.415L153.04,73.392L154.38,74.067L155.73,45.935L157.07,46.269L158.41,69.103L159.76,64.885L161.1,50.916L162.45,68.298L163.79,48.427L165.13,48.404L166.48,47.64L167.82,71.618L169.16,48.227L170.51,50.495L171.85,50.62L173.19,53.362L174.54,48.697L175.88,50.692L177.22,56.661L178.57,52.141L179.91,51.942L181.25,49.162L182.6,51.786L183.94,52.251L185.29,73.744L186.63,57.135L187.97,49.861L189.32,51.632L190.66,53.9L192,53.16L193.35,51.83L194.69,51.637L196.03,50.509L197.38,52.061L198.72,54.478L200.06,54.659L201.41,53.688L202.75,51.05L204.09,52.547L205.44,53.117L206.78,53.181L208.12,53.945L209.47,53.321L210.81,50.834L212.16,51.463L213.5,54.059L214.84,52.708L216.19,51.297L217.53,50.328L218.87,51.812L220.22,51.922L221.56,53.033L222.9,50.18L224.25,52.125L225.59,51.594L226.93,51.082L228.28,50.358L229.62,51.783L230.96,50.378L232.31,50.251L233.65,52.106L234.99,51.42L236.34,50.469L237.68,49.893L239.03,51.707L240.37,50.914L241.71,48.872L243.06,51.152L244.4,52.44L245.74,49.044L247.09,48.785L248.43,49.319L249.77,48.991L251.12,49.556L252.46,51.151L253.8,49.541L255.15,48.343L256.49,48.512L257.83,48.86L259.18,48.38L260.52,49.643L261.86,50.431L263.21,48.573L264.55,47.823L265.9,49.23L267.24,49.908L268.58,48.56L269.93,49.32L271.27,48.265L272.61,48.008L273.96,48.081L275.3,49.32L276.64,48.209L277.99,47.773L279.33,47.965L280.67,48.431L282.02,48.04L283.36,47.826L284.7,48.241L286.05,47.825L287.39,47.564L288.73,47.839L290.08,47.817L291.42,47.75L292.77,47.566L294.11,47.993L295.45,47.465L296.8,47.509L298.14,47.525L299.48,47.464L300.83,47.386L302.17,47.258L303.51,47.204L304.86,47.18L306.2,47.264L307.54,47.163L308.89,47.168L310.23,47.134L311.57,46.91L312.92,46.816L314.26,46.977L315.61,46.884L316.95,46.881L318.29,46.692L319.64,46.842L320.98,46.811L322.32,46.607L323.67,46.583L325.01,46.677L326.35,46.593L327.7,46.517L329.04,46.58L330.38,46.418L331.73,46.397L333.07,46.421L334.41,46.404L335.76,46.345L337.1,46.371L338.44,46.278L339.79,46.115L341.13,46.136L342.48,46.331L343.82,46.278L345.16,46.116L346.51,46.157L347.85,46.104L349.19,45.923L350.54,46.075L351.88,46.133L353.22,45.984L354.57,45.897L355.91,45.977L357.25,46.089L358.6,45.853L359.94,46.031L361.28,45.874L362.63,45.83L363.97,45.842L365.31,45.827L366.66,45.828L368,45.724L369.35,45.801L370.69,45.779L372.03,45.697L373.38,45.743L374.72,45.749L376.06,45.738L377.41,45.659L378.75,45.677L380.09,45.685L381.44,45.667L382.78,45.656L384.12,45.604L385.47,45.592L386.81,45.581L388.15,45.607L389.5,45.592L390.84,45.545L392.18,45.571L393.53,45.522L394.87,45.523L396.22,45.561L397.56,45.51L398.9,45.482L400.25,45.478L401.59,45.494L402.93,45.485L404.28,45.446L405.62,45.427L406.96,45.455L408.31,45.435L409.65,45.438L410.99,45.412L412.34,45.4L413.68,45.389L415.02,45.406L416.37,45.374L417.71,45.385L419.05,45.357L420.4,45.35L421.74,45.342L423.09,45.366L424.43,45.33L425.77,45.328L427.12,45.343L428.46,45.319L429.8,45.351L431.15,45.318L432.49,45.298L433.83,45.319L435.18,45.299L436.52,45.302L437.86,45.305L439.21,45.273L440.55,45.304L441.89,45.305L443.24,45.263L444.58,45.264L445.93,45.26L447.27,45.266L448.61,45.264L449.96,45.261L451.3,45.261L452.64,45.266L453.99,45.241L455.33,45.255L456.67,45.264L458.02,45.221L459.36,45.241L460.7,45.232L462.05,45.231L463.39,45.246L464.73,45.246L466.08,45.232L467.42,45.235L468.76,45.221L470.11,45.215L471.45,45.208L472.8,45.221L474.14,45.223L475.48,45.215L476.83,45.193L478.17,45.194L479.51,45.205L480.86,45.218L482.2,45.205L483.54,45.188L484.89,45.193L486.23,45.191L487.57,45.202L488.92,45.2L490.26,45.191L491.6,45.188L492.95,45.189L494.29,45.183L495.63,45.171L496.98,45.194L498.32,45.188L499.67,45.179L501.01,45.188L502.35,45.182L503.7,45.186L505.04,45.179L506.38,45.174L507.73,45.182L509.07,45.18L510.41,45.176L511.76,45.179L513.1,45.18L514.44,45.171L515.79,45.168L517.13,45.174L518.47,45.174L519.82,45.168L521.16,45.167L522.5,45.161L523.85,45.17L525.19,45.165L526.54,45.157L527.88,45.177L529.22,45.176L530.57,45.167L531.91,45.161L533.25,45.168L534.6,45.164L535.94,45.162L537.28,45.161L538.63,45.159L539.97,45.159L541.31,45.164L542.66,45.154L544,45.167L545.34,45.159L546.69,45.156L548.03,45.159L549.37,45.157L550.72,45.162L552.06,45.156L553.41,45.161L554.75,45.156L556.09,45.156L557.44,45.154L558.78,45.157L560.12,45.154L561.47,45.157L562.81,45.156L564.15,45.156L565.5,45.157L566.84,45.157L568.18,45.153L569.53,45.154L570.87,45.156L572.21,45.154L573.56,45.154L574.9,45.151L576.24,45.153L577.59,45.153L578.93,45.151L580.28,45.151L581.62,45.151L582.96,45.156L584.31,45.153L585.65,45.159L586.99,45.151L588.34,45.154L589.68,45.151L592.37,45.151L593.71,45.153L595.05,45.151L599.08,45.153L600.43,45.151L601.77,45.151L603.12,45.153L605.8,45.151L607.15,45.151L608.49,45.151L616.55,45.151L617.89,45.151L619.24,45.153L620.58,45.151L621.92,45.153L625.95,45.151L628.64,45.151L631.33,45.151L638.05,45.151L640.73,45.153L656.86,45.151L659.54,45.151L671.63,45.151L687.76,45.151L691.79,45.151L710.6,45.151L720,45.151" style="fill:none;stroke:#0000FF" />
</g>
</svg>
