<?xml version="1.0"?>
<!-- Generated by SVGo and Plotinum VG -->
<svg width="720pt" height="432pt" viewBox="0 0 720 432"
	xmlns="http://www.w3.org/2000/svg"
	xmlns:xlink="http://www.w3.org/1999/xlink">
<g transform="scale(1, -1) translate(0, -432)">
<path d="M0,0L720,0L720,432L0,432Z" style="fill:#FFFFFF" />
<text x="358.5" y="-420.45" transform="scale(1, -1)"
	style="font-family:Times;font-weight:normal;font-style:normal;font-size:12px"> </text>
<text x="379.31" y="-3.8613" transform="scale(1, -1)"
	style="font-family:Times;font-weight:normal;font-style:normal;font-size:12px">Costs</text>
<text x="62.805" y="-18.634" transform="scale(1, -1)"
	style="font-family:Times;font-weight:normal;font-style:normal;font-size:10px">0</text>
<text x="348.14" y="-18.634" transform="scale(1, -1)"
	style="font-family:Times;font-weight:normal;font-style:normal;font-size:10px">200</text>
<text x="638.47" y="-18.634" transform="scale(1, -1)"
	style="font-family:Times;font-weight:normal;font-style:normal;font-size:10px">400</text>
<path d="M65.305,28.263L65.305,36.263" style="fill:none;stroke:#000000;stroke-width:0.5" />
<path d="M355.64,28.263L355.64,36.263" style="fill:none;stroke:#000000;stroke-width:0.5" />
<path d="M645.97,28.263L645.97,36.263" style="fill:none;stroke:#000000;stroke-width:0.5" />
<path d="M210.47,32.263L210.47,36.263" style="fill:none;stroke:#000000;stroke-width:0.5" />
<path d="M500.8,32.263L500.8,36.263" style="fill:none;stroke:#000000;stroke-width:0.5" />
<path d="M65.305,36.263L720,36.263" style="fill:none;stroke:#000000;stroke-width:0.5" />
<g transform="rotate(90)">
<text x="152.55" y="11.555" transform="scale(1, -1)"
	style="font-family:Times;font-weight:normal;font-style:normal;font-size:12px">Number of trials (1000000 total)</text>
</g>
<text x="24.055" y="-113.25" transform="scale(1, -1)"
	style="font-family:Times;font-weight:normal;font-style:normal;font-size:10px">50000</text>
<text x="19.055" y="-255.87" transform="scale(1, -1)"
	style="font-family:Times;font-weight:normal;font-style:normal;font-size:10px">150000</text>
<text x="19.055" y="-398.49" transform="scale(1, -1)"
	style="font-family:Times;font-weight:normal;font-style:normal;font-size:10px">250000</text>
<path d="M51.555,116.46L59.555,116.46" style="fill:none;stroke:#000000;stroke-width:0.5" />
<path d="M51.555,259.08L59.555,259.08" style="fill:none;stroke:#000000;stroke-width:0.5" />
<path d="M51.555,401.69L59.555,401.69" style="fill:none;stroke:#000000;stroke-width:0.5" />
<path d="M55.555,187.77L59.555,187.77" style="fill:none;stroke:#000000;stroke-width:0.5" />
<path d="M55.555,330.38L59.555,330.38" style="fill:none;stroke:#000000;stroke-width:0.5" />
<path d="M59.555,45.151L59.555,416.58" style="fill:none;stroke:#000000;stroke-width:0.5" />
<path d="M65.305,416.58L98.693,48.526L100.14,48.516L107.4,62.404L110.31,64.432L111.76,78.485L113.21,79.13L114.66,64.39L116.11,58.767L117.56,59.098L120.47,55.758L121.92,78.665L123.37,48.651L124.82,85.185L126.27,62.361L127.73,62.673L129.18,62.518L130.63,64.445L132.08,52.258L133.53,45.184L136.44,51.934L137.89,81.947L139.34,58.901L140.79,45.308L142.24,84.029L143.69,48.735L145.15,49.008L146.6,52.575L148.05,56.034L149.5,64.967L150.95,52.284L152.4,65.363L153.86,57.3L155.31,47.208L156.76,51.486L158.21,48.658L159.66,49.899L161.11,48.303L162.57,52.953L164.02,49.544L165.47,48.136L166.92,50.601L168.37,53.681L169.82,51.929L171.28,53L172.73,54.266L174.18,52.895L175.63,52.055L177.08,56.537L178.53,50.792L179.99,51.12L181.44,55.284L182.89,51.167L184.34,55.364L185.79,54.404L187.24,54.919L188.7,55.073L190.15,54.673L191.6,52.272L193.05,51.759L194.5,54.894L195.95,51.917L197.41,54.849L198.86,56.682L200.31,52.703L201.76,55.745L203.21,52.789L204.66,52.306L206.11,51.081L207.57,51.019L209.02,52.552L210.47,51.414L211.92,51.361L213.37,51.278L214.82,53.037L216.28,50.812L217.73,48.626L219.18,50.692L220.63,48.906L222.08,49.972L223.53,49.871L224.99,50.712L226.44,51.184L227.89,49.411L229.34,50.487L230.79,49.413L232.24,48.742L233.7,49.096L235.15,49.126L236.6,49.36L238.05,48.862L239.5,48.487L240.95,49.307L242.41,48.346L243.86,48.426L245.31,48.914L246.76,48.638L248.21,48.5L249.66,49.055L251.12,48.628L252.57,48.168L254.02,49.016L255.47,48.372L256.92,48.312L258.37,48.81L259.83,48.493L261.28,48.697L262.73,48.29L264.18,48.417L265.63,48.342L267.08,47.834L268.54,47.951L269.99,47.767L271.44,48.196L272.89,47.873L274.34,47.921L275.79,47.902L277.25,47.592L278.7,47.586L280.15,47.345L281.6,47.38L283.05,47.389L284.5,47.413L285.96,47.436L287.41,47.308L288.86,47.187L290.31,47.032L291.76,47.042L293.21,46.891L294.67,46.709L296.12,46.793L297.57,46.739L299.02,46.682L300.47,46.74L301.92,46.693L303.38,46.657L304.83,46.438L306.28,46.535L307.73,46.523L309.18,46.433L310.63,46.481L312.09,46.439L313.54,46.345L314.99,46.312L316.44,46.294L317.89,46.354L319.34,46.165L320.8,46.262L322.25,46.167L323.7,46.194L325.15,46.24L326.6,46.145L328.05,46.081L329.51,46.026L330.96,46.093L332.41,46.078L333.86,45.99L335.31,46.026L336.76,45.987L338.22,45.944L339.67,45.907L341.12,45.956L342.57,45.912L344.02,45.889L345.47,45.832L346.93,45.783L348.38,45.797L349.83,45.745L351.28,45.739L352.73,45.786L354.18,45.733L355.64,45.705L357.09,45.653L358.54,45.635L359.99,45.641L361.44,45.651L362.89,45.593L364.35,45.623L365.8,45.623L367.25,45.611L368.7,45.495L370.15,45.548L371.6,45.534L373.06,45.511L374.51,45.504L375.96,45.514L377.41,45.497L378.86,45.471L380.31,45.492L381.76,45.499L383.22,45.429L384.67,45.442L386.12,45.441L387.57,45.441L389.02,45.442L390.47,45.392L391.93,45.412L393.38,45.367L394.83,45.372L396.28,45.354L397.73,45.367L399.18,45.315L400.64,45.357L402.09,45.36L403.54,45.311L404.99,45.325L406.44,45.354L407.89,45.334L409.35,45.318L410.8,45.32L412.25,45.305L413.7,45.285L415.15,45.284L416.6,45.301L418.06,45.261L419.51,45.324L420.96,45.278L422.41,45.274L423.86,45.261L425.31,45.248L426.77,45.24L428.22,45.257L429.67,45.241L431.12,45.253L432.57,45.273L434.02,45.244L435.48,45.224L436.93,45.238L438.38,45.223L439.83,45.206L441.28,45.236L442.73,45.21L444.19,45.206L445.64,45.22L447.09,45.206L448.54,45.21L449.99,45.213L451.44,45.216L452.9,45.201L454.35,45.198L455.8,45.203L457.25,45.188L458.7,45.196L460.15,45.18L461.61,45.206L463.06,45.194L464.51,45.178L465.96,45.187L467.41,45.194L468.86,45.184L470.32,45.191L471.77,45.196L473.22,45.188L474.67,45.184L476.12,45.186L477.57,45.178L479.03,45.184L480.48,45.181L481.93,45.184L483.38,45.173L484.83,45.171L486.28,45.171L487.74,45.166L489.19,45.168L490.64,45.174L492.09,45.163L493.54,45.158L494.99,45.168L496.45,45.164L497.9,45.166L499.35,45.174L500.8,45.163L502.25,45.158L503.7,45.167L505.16,45.161L506.61,45.166L508.06,45.17L509.51,45.164L510.96,45.164L512.41,45.157L513.87,45.163L515.32,45.164L516.77,45.16L518.22,45.166L519.67,45.161L521.12,45.157L522.58,45.156L524.03,45.161L525.48,45.163L526.93,45.156L528.38,45.157L529.83,45.157L531.29,45.16L532.74,45.154L534.19,45.157L535.64,45.166L537.09,45.151L538.54,45.16L540,45.153L541.45,45.157L542.9,45.158L544.35,45.153L545.8,45.154L547.25,45.156L548.7,45.154L550.16,45.156L551.61,45.154L553.06,45.154L554.51,45.153L555.96,45.156L557.41,45.151L560.32,45.153L561.77,45.156L563.22,45.151L564.67,45.151L566.12,45.156L569.03,45.151L570.48,45.153L571.93,45.151L574.83,45.153L576.29,45.151L577.74,45.154L579.19,45.153L582.09,45.153L583.54,45.153L586.45,45.151L589.35,45.151L595.16,45.153L596.61,45.151L598.06,45.151L603.87,45.151L605.32,45.151L608.22,45.153L612.58,45.151L615.48,45.151L621.29,45.151L625.64,45.151L643.06,45.151L645.97,45.151L647.42,45.151L653.22,45.151L661.93,45.151L676.45,45.151L720,45.151" style="fill:none;stroke:#0000FF" />
</g>
</svg>
