<?xml version="1.0"?>
<!-- Generated by SVGo and Plotinum VG -->
<svg width="720pt" height="432pt" viewBox="0 0 720 432"
	xmlns="http://www.w3.org/2000/svg"
	xmlns:xlink="http://www.w3.org/1999/xlink">
<g transform="scale(1, -1) translate(0, -432)">
<path d="M0,0L720,0L720,432L0,432Z" style="fill:#FFFFFF" />
<text x="358.5" y="-420.45" transform="scale(1, -1)"
	style="font-family:Times;font-weight:normal;font-style:normal;font-size:12px"> </text>
<text x="379.31" y="-3.8613" transform="scale(1, -1)"
	style="font-family:Times;font-weight:normal;font-style:normal;font-size:12px">Costs</text>
<text x="56.555" y="-18.634" transform="scale(1, -1)"
	style="font-family:Times;font-weight:normal;font-style:normal;font-size:10px">0.00</text>
<text x="358.06" y="-18.634" transform="scale(1, -1)"
	style="font-family:Times;font-weight:normal;font-style:normal;font-size:10px">250.00</text>
<text x="664.57" y="-18.634" transform="scale(1, -1)"
	style="font-family:Times;font-weight:normal;font-style:normal;font-size:10px">500.00</text>
<path d="M65.305,28.263L65.305,36.263" style="fill:none;stroke:#000000;stroke-width:0.5" />
<path d="M371.81,28.263L371.81,36.263" style="fill:none;stroke:#000000;stroke-width:0.5" />
<path d="M678.32,28.263L678.32,36.263" style="fill:none;stroke:#000000;stroke-width:0.5" />
<path d="M126.61,32.263L126.61,36.263" style="fill:none;stroke:#000000;stroke-width:0.5" />
<path d="M187.91,32.263L187.91,36.263" style="fill:none;stroke:#000000;stroke-width:0.5" />
<path d="M249.21,32.263L249.21,36.263" style="fill:none;stroke:#000000;stroke-width:0.5" />
<path d="M310.51,32.263L310.51,36.263" style="fill:none;stroke:#000000;stroke-width:0.5" />
<path d="M433.11,32.263L433.11,36.263" style="fill:none;stroke:#000000;stroke-width:0.5" />
<path d="M494.41,32.263L494.41,36.263" style="fill:none;stroke:#000000;stroke-width:0.5" />
<path d="M555.71,32.263L555.71,36.263" style="fill:none;stroke:#000000;stroke-width:0.5" />
<path d="M617.01,32.263L617.01,36.263" style="fill:none;stroke:#000000;stroke-width:0.5" />
<path d="M65.305,36.263L720,36.263" style="fill:none;stroke:#000000;stroke-width:0.5" />
<g transform="rotate(90)">
<text x="152.55" y="11.555" transform="scale(1, -1)"
	style="font-family:Times;font-weight:normal;font-style:normal;font-size:12px">Number of trials (1000000 total)</text>
</g>
<text x="24.055" y="-89.916" transform="scale(1, -1)"
	style="font-family:Times;font-weight:normal;font-style:normal;font-size:10px">20000</text>
<text x="24.055" y="-233.83" transform="scale(1, -1)"
	style="font-family:Times;font-weight:normal;font-style:normal;font-size:10px">80000</text>
<text x="19.055" y="-377.75" transform="scale(1, -1)"
	style="font-family:Times;font-weight:normal;font-style:normal;font-size:10px">140000</text>
<path d="M51.555,93.122L59.555,93.122" style="fill:none;stroke:#000000;stroke-width:0.5" />
<path d="M51.555,237.04L59.555,237.04" style="fill:none;stroke:#000000;stroke-width:0.5" />
<path d="M51.555,380.96L59.555,380.96" style="fill:none;stroke:#000000;stroke-width:0.5" />
<path d="M55.555,165.08L59.555,165.08" style="fill:none;stroke:#000000;stroke-width:0.5" />
<path d="M55.555,309L59.555,309" style="fill:none;stroke:#000000;stroke-width:0.5" />
<path d="M59.555,45.151L59.555,416.58" style="fill:none;stroke:#000000;stroke-width:0.5" />
<path d="M65.305,416.58L92.277,48.61L93.503,48.617L97.181,55.422L98.407,65.904L99.633,55.518L100.86,73.268L102.09,52.021L103.31,70.186L104.54,48.414L105.76,72.927L106.99,80.049L108.22,55.648L110.67,59.987L111.89,59.095L113.12,55.238L114.35,80.43L115.57,77.089L116.8,80.637L118.02,76.602L119.25,65.952L120.48,59.49L121.7,59.263L124.15,48.414L125.38,59.498L126.61,55.657L127.83,70.505L129.06,45.559L130.28,81.527L131.51,56.173L132.74,50.169L133.96,72.424L135.19,61.702L136.41,51.042L137.64,76.401L138.87,53.523L140.09,73.789L141.32,71.205L142.54,78.435L143.77,50.061L145,50.258L146.22,50.337L147.45,52.316L148.67,52.973L149.9,54.055L151.13,53.791L152.35,59.042L153.58,54.923L154.8,73.822L156.03,56.01L157.26,55.996L158.48,55.223L159.71,66.175L160.93,54.626L162.16,54.959L163.39,63.669L164.61,65.386L165.84,58.941L167.06,58.908L168.29,60.04L169.52,59.411L170.74,58.927L171.97,58.797L173.19,57.823L174.42,56.636L175.65,60.87L176.87,58.533L178.1,58.888L179.32,60.263L180.55,59.55L181.78,58.677L183,60.879L184.23,59.14L185.45,55.89L186.68,58.452L187.91,58.512L189.13,58.248L190.36,59.939L191.58,59.003L192.81,60.354L194.04,56.96L195.26,57.807L196.49,57.471L197.71,54.65L198.94,54.326L200.17,56.418L201.39,54.815L202.62,57.44L203.85,56.523L205.07,58.332L206.3,58.085L207.52,56.938L208.75,55.578L209.98,55.801L211.2,55.78L212.43,55.684L213.65,54.883L214.88,56.674L216.11,55.027L217.33,56.442L218.56,54.031L219.78,55.178L221.01,53.002L222.24,52.954L223.46,53.223L224.69,54.506L225.91,53.427L227.14,54.643L228.37,53.976L229.59,55.458L230.82,53.537L232.04,55.185L233.27,53.283L234.5,53.211L235.72,53.443L236.95,53.957L238.17,52.779L239.4,53.213L240.63,53.604L241.85,53.347L243.08,52.566L244.3,52.46L245.53,52.294L246.76,52.354L247.98,52.206L249.21,52.354L250.43,51.613L251.66,51.966L252.89,52.158L254.11,52.201L255.34,51.652L256.56,52.035L257.79,51.726L259.02,52.014L260.24,51.311L261.47,51.189L262.69,51.018L263.92,50.827L265.15,51.172L266.37,50.839L267.6,50.848L268.82,50.719L270.05,50.767L271.28,50.184L272.5,50.356L273.73,50.21L274.95,50.155L276.18,50.172L277.41,50.304L278.63,49.98L279.86,49.956L281.08,50.095L282.31,50.064L283.54,49.728L284.76,49.45L285.99,49.426L287.21,49.51L288.44,49.402L289.67,49.416L290.89,49.131L292.12,49.071L293.34,48.908L294.57,49.001L295.8,48.838L297.02,48.843L298.25,48.723L299.47,48.625L300.7,48.665L301.93,48.584L303.15,48.473L304.38,48.404L305.6,48.298L306.83,48.342L308.06,48.361L309.28,48.205L310.51,48.092L311.73,47.951L312.96,48.121L314.19,48.042L315.41,47.771L316.64,47.744L317.87,47.735L319.09,47.754L320.32,47.588L321.54,47.478L322.77,47.622L324,47.528L325.22,47.531L326.45,47.372L327.67,47.32L328.9,47.387L330.13,47.289L331.35,47.368L332.58,47.154L333.8,47.238L335.03,47.253L336.26,47.106L337.48,47.082L338.71,47.075L339.93,46.917L341.16,46.953L342.39,46.84L343.61,46.77L344.84,46.773L346.06,46.739L347.29,46.677L348.52,46.691L349.74,46.619L350.97,46.641L352.19,46.519L353.42,46.526L354.65,46.576L355.87,46.466L357.1,46.343L358.32,46.389L359.55,46.413L360.78,46.394L362,46.367L363.23,46.331L364.45,46.214L365.68,46.284L366.91,46.212L368.13,46.221L369.36,46.135L370.58,46.159L371.81,46.137L373.04,46.135L374.26,46.096L375.49,46.08L376.71,46.108L377.94,46.012L379.17,46.053L380.39,45.924L381.62,45.969L382.84,45.993L384.07,45.84L385.3,45.933L386.52,45.873L387.75,45.876L388.97,45.809L390.2,45.825L391.43,45.761L392.65,45.789L393.88,45.734L395.1,45.696L396.33,45.765L397.56,45.71L398.78,45.681L400.01,45.71L401.23,45.636L402.46,45.633L403.69,45.624L404.91,45.638L406.14,45.667L407.36,45.59L408.59,45.619L409.82,45.614L411.04,45.593L412.27,45.576L413.49,45.564L414.72,45.571L415.95,45.518L417.17,45.509L418.4,45.518L419.62,45.516L420.85,45.595L422.08,45.497L423.3,45.475L424.53,45.466L425.75,45.444L426.98,45.439L428.21,45.408L429.43,45.473L430.66,45.394L431.89,45.422L433.11,45.406L434.34,45.432L435.56,45.398L436.79,45.413L438.02,45.379L439.24,45.418L440.47,45.386L441.69,45.384L442.92,45.355L444.15,45.36L445.37,45.348L446.6,45.329L447.82,45.379L449.05,45.338L450.28,45.348L451.5,45.326L452.73,45.3L453.95,45.324L455.18,45.334L456.41,45.319L457.63,45.3L458.86,45.264L460.08,45.305L461.31,45.326L462.54,45.264L463.76,45.269L464.99,45.278L466.21,45.245L467.44,45.283L468.67,45.262L469.89,45.264L471.12,45.271L472.34,45.257L473.57,45.235L474.8,45.233L476.02,45.221L477.25,45.247L478.47,45.274L479.7,45.243L480.93,45.223L482.15,45.231L483.38,45.247L484.6,45.214L485.83,45.216L487.06,45.221L488.28,45.204L489.51,45.235L490.73,45.226L491.96,45.226L493.19,45.226L494.41,45.204L495.64,45.204L496.86,45.209L498.09,45.202L499.32,45.207L500.54,45.211L501.77,45.199L502.99,45.207L504.22,45.207L505.45,45.192L506.67,45.202L507.9,45.19L509.12,45.192L510.35,45.207L511.58,45.183L512.8,45.18L514.03,45.19L515.25,45.175L516.48,45.185L517.71,45.18L518.93,45.199L520.16,45.175L521.38,45.175L522.61,45.183L523.84,45.18L525.06,45.19L526.29,45.178L527.51,45.197L528.74,45.187L529.97,45.163L531.19,45.166L532.42,45.173L533.64,45.166L534.87,45.178L536.1,45.161L537.32,45.18L538.55,45.178L539.77,45.159L541,45.168L542.23,45.173L543.45,45.161L544.68,45.156L545.9,45.166L547.13,45.161L548.36,45.159L549.58,45.156L550.81,45.166L552.04,45.163L553.26,45.154L554.49,45.156L555.71,45.154L556.94,45.163L558.17,45.166L559.39,45.156L560.62,45.159L561.84,45.151L563.07,45.151L564.3,45.154L565.52,45.156L566.75,45.166L567.97,45.161L569.2,45.168L570.43,45.154L571.65,45.163L572.88,45.161L574.1,45.156L575.33,45.159L576.56,45.151L577.78,45.161L582.69,45.154L583.91,45.159L585.14,45.151L586.36,45.154L587.59,45.151L588.82,45.151L592.49,45.156L593.72,45.156L594.95,45.156L597.4,45.151L598.62,45.154L599.85,45.156L602.3,45.154L604.75,45.154L607.21,45.154L608.43,45.151L609.66,45.151L612.11,45.154L614.56,45.151L615.79,45.151L618.24,45.151L621.92,45.151L623.14,45.151L626.82,45.151L628.05,45.154L631.73,45.151L632.95,45.151L634.18,45.151L635.4,45.151L637.86,45.151L639.08,45.151L641.53,45.151L643.99,45.151L645.21,45.151L647.66,45.151L650.12,45.151L653.79,45.151L655.02,45.151L656.25,45.151L662.38,45.151L663.6,45.151L664.83,45.151L669.73,45.151L672.19,45.151L674.64,45.151L680.77,45.151L700.38,45.151L720,45.151" style="fill:none;stroke:#0000FF" />
</g>
</svg>
