<?xml version="1.0"?>
<!-- Generated by SVGo and Plotinum VG -->
<svg width="720pt" height="432pt" viewBox="0 0 720 432"
	xmlns="http://www.w3.org/2000/svg"
	xmlns:xlink="http://www.w3.org/1999/xlink">
<g transform="scale(1, -1) translate(0, -432)">
<path d="M0,0L720,0L720,432L0,432Z" style="fill:#FFFFFF" />
<text x="358.5" y="-420.45" transform="scale(1, -1)"
	style="font-family:Times;font-weight:normal;font-style:normal;font-size:12px"> </text>
<text x="379.31" y="-3.8613" transform="scale(1, -1)"
	style="font-family:Times;font-weight:normal;font-style:normal;font-size:12px">Costs</text>
<text x="56.555" y="-18.634" transform="scale(1, -1)"
	style="font-family:Times;font-weight:normal;font-style:normal;font-size:10px">0.00</text>
<text x="366.31" y="-18.634" transform="scale(1, -1)"
	style="font-family:Times;font-weight:normal;font-style:normal;font-size:10px">250.00</text>
<text x="681.07" y="-18.634" transform="scale(1, -1)"
	style="font-family:Times;font-weight:normal;font-style:normal;font-size:10px">500.00</text>
<path d="M65.305,28.263L65.305,36.263" style="fill:none;stroke:#000000;stroke-width:0.5" />
<path d="M380.06,28.263L380.06,36.263" style="fill:none;stroke:#000000;stroke-width:0.5" />
<path d="M694.82,28.263L694.82,36.263" style="fill:none;stroke:#000000;stroke-width:0.5" />
<path d="M128.26,32.263L128.26,36.263" style="fill:none;stroke:#000000;stroke-width:0.5" />
<path d="M191.21,32.263L191.21,36.263" style="fill:none;stroke:#000000;stroke-width:0.5" />
<path d="M254.16,32.263L254.16,36.263" style="fill:none;stroke:#000000;stroke-width:0.5" />
<path d="M317.11,32.263L317.11,36.263" style="fill:none;stroke:#000000;stroke-width:0.5" />
<path d="M443.01,32.263L443.01,36.263" style="fill:none;stroke:#000000;stroke-width:0.5" />
<path d="M505.96,32.263L505.96,36.263" style="fill:none;stroke:#000000;stroke-width:0.5" />
<path d="M568.92,32.263L568.92,36.263" style="fill:none;stroke:#000000;stroke-width:0.5" />
<path d="M631.87,32.263L631.87,36.263" style="fill:none;stroke:#000000;stroke-width:0.5" />
<path d="M65.305,36.263L720,36.263" style="fill:none;stroke:#000000;stroke-width:0.5" />
<g transform="rotate(90)">
<text x="152.55" y="11.555" transform="scale(1, -1)"
	style="font-family:Times;font-weight:normal;font-style:normal;font-size:12px">Number of trials (1000000 total)</text>
</g>
<text x="24.055" y="-92.464" transform="scale(1, -1)"
	style="font-family:Times;font-weight:normal;font-style:normal;font-size:10px">20000</text>
<text x="24.055" y="-244.02" transform="scale(1, -1)"
	style="font-family:Times;font-weight:normal;font-style:normal;font-size:10px">80000</text>
<text x="19.055" y="-395.59" transform="scale(1, -1)"
	style="font-family:Times;font-weight:normal;font-style:normal;font-size:10px">140000</text>
<path d="M51.555,95.669L59.555,95.669" style="fill:none;stroke:#000000;stroke-width:0.5" />
<path d="M51.555,247.23L59.555,247.23" style="fill:none;stroke:#000000;stroke-width:0.5" />
<path d="M51.555,398.79L59.555,398.79" style="fill:none;stroke:#000000;stroke-width:0.5" />
<path d="M55.555,171.45L59.555,171.45" style="fill:none;stroke:#000000;stroke-width:0.5" />
<path d="M55.555,323.01L59.555,323.01" style="fill:none;stroke:#000000;stroke-width:0.5" />
<path d="M59.555,45.151L59.555,416.58" style="fill:none;stroke:#000000;stroke-width:0.5" />
<path d="M65.305,416.58L93.003,59.029L95.521,62.77L98.039,56.233L99.298,59.433L100.56,48.549L101.82,59.044L104.33,62.679L105.59,55.579L106.85,72.806L108.11,115.33L109.37,65.726L110.63,51.759L111.89,59.678L113.15,55.884L114.41,81.097L115.67,69.969L116.92,66.564L118.18,69.848L119.44,62.573L120.7,107.24L121.96,83.893L123.22,71.27L125.74,48.87L127,74.332L128.26,45.775L129.52,49.797L130.77,45.326L132.03,78.416L133.29,66.984L134.55,47.68L135.81,97.314L137.07,61.492L138.33,53.179L139.59,66.1L140.85,53.285L142.11,57.948L143.36,49.448L144.62,51.565L145.88,50.052L147.14,52.729L148.4,55.288L149.66,55.975L150.92,58.175L152.18,54.758L153.44,54.707L154.7,64.137L155.95,56.008L157.21,75.469L158.47,64.389L159.73,60.179L160.99,59.423L162.25,61.197L163.51,68.61L164.77,63.912L166.03,69.583L167.29,68.525L168.55,58.81L169.8,65.951L171.06,60.265L172.32,60.876L173.58,59.353L174.84,64.801L176.1,63.659L177.36,62.263L178.62,66.312L179.88,59.272L181.14,56.099L182.39,62.538L183.65,57.39L184.91,60.78L186.17,56.455L187.43,59.974L188.69,61.773L189.95,58.261L191.21,61.952L192.47,58.453L193.73,59.426L194.98,56.107L196.24,54.538L197.5,58.85L198.76,54.687L200.02,57.332L201.28,54.359L202.54,56.2L203.8,57.461L205.06,53.889L206.32,56.314L207.58,57.984L208.83,57.041L210.09,59.534L211.35,56.066L212.61,57.908L213.87,56.501L215.13,55.958L216.39,56.066L217.65,54.851L218.91,56.539L220.17,55.528L221.42,56.374L222.68,56.316L223.94,56.223L225.2,56.971L226.46,54.217L227.72,57.074L228.98,56.016L230.24,54.634L231.5,55.442L232.76,54.834L234.01,55.642L235.27,54.104L236.53,54.485L237.79,55.036L239.05,53.389L240.31,54.083L241.57,53.28L242.83,52.745L244.09,52.931L245.35,53.015L246.6,53.098L247.86,52.179L249.12,52.548L250.38,52.323L251.64,51.797L252.9,52.242L254.16,51.878L255.42,52.1L256.68,51.656L257.94,51.936L259.2,52.57L260.45,51.31L261.71,51.264L262.97,51.098L264.23,51.615L265.49,51.618L266.75,51.333L268.01,51.411L269.27,50.673L270.53,50.779L271.79,50.562L273.04,50.246L274.3,50.628L275.56,50.34L276.82,50.635L278.08,50.557L279.34,50.368L280.6,50.585L281.86,50.067L283.12,50.155L284.38,49.933L285.63,49.766L286.89,49.688L288.15,49.549L289.41,49.749L290.67,49.39L291.93,49.312L293.19,49.211L294.45,49.069L295.71,49.185L296.97,48.796L298.23,48.716L299.48,48.759L300.74,48.733L302,48.673L303.26,48.526L304.52,48.561L305.78,48.367L307.04,48.215L308.3,48.407L309.56,48.253L310.82,48.059L312.07,48.175L313.33,48.039L314.59,47.998L315.85,47.93L317.11,47.763L318.37,47.594L319.63,47.778L320.89,47.738L322.15,47.622L323.41,47.526L324.66,47.483L325.92,47.554L327.18,47.427L328.44,47.455L329.7,47.389L330.96,47.256L332.22,47.238L333.48,47.182L334.74,47.172L336,47.122L337.26,47.026L338.51,46.861L339.77,46.942L341.03,47.011L342.29,46.821L343.55,46.816L344.81,46.869L346.07,46.723L347.33,46.692L348.59,46.589L349.85,46.518L351.1,46.69L352.36,46.553L353.62,46.589L354.88,46.467L356.14,46.442L357.4,46.44L358.66,46.402L359.92,46.326L361.18,46.326L362.44,46.326L363.69,46.334L364.95,46.2L366.21,46.258L367.47,46.119L368.73,46.134L369.99,46.202L371.25,46.144L372.51,46.071L373.77,46.046L375.03,46.02L376.28,46.099L377.54,45.975L378.8,46.066L380.06,45.934L381.32,45.907L382.58,45.97L383.84,45.927L385.1,45.922L386.36,45.985L387.62,45.808L388.88,45.745L390.13,45.725L391.39,45.722L392.65,45.725L393.91,45.722L395.17,45.717L396.43,45.689L397.69,45.717L398.95,45.682L400.21,45.657L401.47,45.725L402.72,45.679L403.98,45.626L405.24,45.601L406.5,45.641L407.76,45.606L409.02,45.568L410.28,45.568L411.54,45.53L412.8,45.581L414.06,45.523L415.31,45.513L416.57,45.502L417.83,45.5L419.09,45.515L420.35,45.475L421.61,45.49L422.87,45.492L424.13,45.477L425.39,45.422L426.65,45.432L427.91,45.457L429.16,45.452L430.42,45.394L431.68,45.427L432.94,45.366L434.2,45.389L435.46,45.341L436.72,45.356L437.98,45.379L439.24,45.326L440.5,45.394L441.75,45.333L443.01,45.359L444.27,45.331L445.53,45.29L446.79,45.321L448.05,45.326L449.31,45.328L450.57,45.293L451.83,45.331L453.09,45.3L454.34,45.278L455.6,45.29L456.86,45.278L458.12,45.285L459.38,45.275L460.64,45.275L461.9,45.283L463.16,45.227L464.42,45.247L465.68,45.245L466.94,45.242L468.19,45.27L469.45,45.28L470.71,45.245L471.97,45.257L473.23,45.217L474.49,45.232L475.75,45.232L477.01,45.232L478.27,45.242L479.53,45.212L480.78,45.232L482.04,45.204L483.3,45.22L484.56,45.217L485.82,45.209L487.08,45.209L488.34,45.225L489.6,45.222L490.86,45.212L492.12,45.189L493.37,45.199L494.63,45.184L495.89,45.215L497.15,45.187L498.41,45.189L499.67,45.199L500.93,45.212L502.19,45.172L503.45,45.179L504.71,45.194L505.96,45.192L507.22,45.184L508.48,45.177L509.74,45.197L511,45.172L512.26,45.197L513.52,45.172L514.78,45.184L516.04,45.184L517.3,45.172L518.56,45.177L519.81,45.164L521.07,45.164L522.33,45.174L523.59,45.167L524.85,45.172L526.11,45.174L527.37,45.156L528.63,45.164L529.89,45.161L531.15,45.169L532.4,45.169L533.66,45.167L534.92,45.161L536.18,45.174L537.44,45.172L538.7,45.169L539.96,45.159L541.22,45.164L542.48,45.161L543.74,45.161L544.99,45.179L546.25,45.159L547.51,45.161L548.77,45.164L550.03,45.154L551.29,45.154L552.55,45.154L553.81,45.154L555.07,45.167L556.33,45.154L557.59,45.159L560.1,45.151L561.36,45.156L563.88,45.164L565.14,45.159L566.4,45.151L567.66,45.156L568.92,45.156L570.18,45.156L571.43,45.161L572.69,45.161L573.95,45.159L575.21,45.151L576.47,45.151L577.73,45.154L578.99,45.159L581.51,45.154L582.77,45.164L585.28,45.156L586.54,45.151L587.8,45.151L589.06,45.154L590.32,45.159L591.58,45.151L592.84,45.151L594.1,45.154L595.36,45.156L596.62,45.151L599.13,45.151L600.39,45.151L601.65,45.151L604.17,45.151L605.43,45.154L609.21,45.151L610.46,45.151L611.72,45.151L614.24,45.151L615.5,45.151L616.76,45.151L623.05,45.151L631.87,45.151L633.13,45.154L636.9,45.151L640.68,45.154L641.94,45.151L645.72,45.151L652.01,45.151L653.27,45.151L664.6,45.151L679.71,45.151L720,45.151" style="fill:none;stroke:#0000FF" />
</g>
</svg>
