<?xml version="1.0"?>
<!-- Generated by SVGo and Plotinum VG -->
<svg width="720pt" height="432pt" viewBox="0 0 720 432"
	xmlns="http://www.w3.org/2000/svg"
	xmlns:xlink="http://www.w3.org/1999/xlink">
<g transform="scale(1, -1) translate(0, -432)">
<path d="M0,0L720,0L720,432L0,432Z" style="fill:#FFFFFF" />
<text x="358.5" y="-420.45" transform="scale(1, -1)"
	style="font-family:Times;font-weight:normal;font-style:normal;font-size:12px"> </text>
<text x="376.81" y="-3.8613" transform="scale(1, -1)"
	style="font-family:Times;font-weight:normal;font-style:normal;font-size:12px">Costs</text>
<text x="57.805" y="-18.634" transform="scale(1, -1)"
	style="font-family:Times;font-weight:normal;font-style:normal;font-size:10px">0</text>
<text x="375.66" y="-18.634" transform="scale(1, -1)"
	style="font-family:Times;font-weight:normal;font-style:normal;font-size:10px">300</text>
<text x="698.51" y="-18.634" transform="scale(1, -1)"
	style="font-family:Times;font-weight:normal;font-style:normal;font-size:10px">600</text>
<path d="M60.305,28.263L60.305,36.263" style="fill:none;stroke:#000000;stroke-width:0.5" />
<path d="M383.16,28.263L383.16,36.263" style="fill:none;stroke:#000000;stroke-width:0.5" />
<path d="M706.01,28.263L706.01,36.263" style="fill:none;stroke:#000000;stroke-width:0.5" />
<path d="M167.92,32.263L167.92,36.263" style="fill:none;stroke:#000000;stroke-width:0.5" />
<path d="M275.54,32.263L275.54,36.263" style="fill:none;stroke:#000000;stroke-width:0.5" />
<path d="M490.77,32.263L490.77,36.263" style="fill:none;stroke:#000000;stroke-width:0.5" />
<path d="M598.39,32.263L598.39,36.263" style="fill:none;stroke:#000000;stroke-width:0.5" />
<path d="M60.305,36.263L720,36.263" style="fill:none;stroke:#000000;stroke-width:0.5" />
<g transform="rotate(90)">
<text x="152.55" y="11.555" transform="scale(1, -1)"
	style="font-family:Times;font-weight:normal;font-style:normal;font-size:12px">Number of trials (1000000 total)</text>
</g>
<text x="19.055" y="-148.38" transform="scale(1, -1)"
	style="font-family:Times;font-weight:normal;font-style:normal;font-size:10px">10000</text>
<text x="19.055" y="-361.27" transform="scale(1, -1)"
	style="font-family:Times;font-weight:normal;font-style:normal;font-size:10px">30000</text>
<path d="M46.555,151.59L54.555,151.59" style="fill:none;stroke:#000000;stroke-width:0.5" />
<path d="M46.555,364.48L54.555,364.48" style="fill:none;stroke:#000000;stroke-width:0.5" />
<path d="M50.555,258.03L54.555,258.03" style="fill:none;stroke:#000000;stroke-width:0.5" />
<path d="M54.555,45.151L54.555,416.58" style="fill:none;stroke:#000000;stroke-width:0.5" />
<path d="M60.305,416.58L88.285,55.285L90.438,81.13L93.666,97.597L94.742,156.97L95.818,149.49L96.895,163.56L97.971,84.26L101.2,82.344L102.28,155.59L104.43,118.36L106.58,172.93L107.66,113.71L108.73,97.959L109.81,63.151L113.04,48.451L114.11,99.779L115.19,62.768L117.34,85.995L118.42,46.269L120.57,77.585L121.65,46.674L122.72,101.44L123.8,60.501L124.88,112.47L125.95,91.604L127.03,56.839L128.1,64.258L129.18,69.464L130.26,94.872L131.33,90.008L132.41,101L133.48,69.229L134.56,75.212L135.64,75.052L136.71,101.99L137.79,104.18L138.87,147.62L139.94,98.917L141.02,116.07L142.09,118.44L143.17,135.88L144.25,115.99L145.32,85.665L146.4,81.886L147.47,107.25L148.55,113.85L149.63,93.233L150.7,121.22L151.78,89.039L152.86,89.114L153.93,93.371L155.01,93.616L156.08,98.183L157.16,81.481L158.24,91.817L159.31,104.62L160.39,103.75L161.47,106.23L162.54,89.486L163.62,80.758L164.69,85.824L165.77,71.699L166.85,109.31L167.92,79.108L169,100.81L170.07,85.91L171.15,100.35L172.23,107.46L173.3,102.08L174.38,105.7L175.46,92.701L176.53,96.309L177.61,96.49L178.68,101.37L179.76,105.44L180.84,103.37L181.91,97.587L182.99,113.77L184.06,105.39L185.14,120.04L186.22,106.94L187.29,108.73L188.37,103.46L189.45,105.69L190.52,100.98L191.6,99.545L192.67,101.33L193.75,102.38L194.83,106.6L195.9,106.17L196.98,103.35L198.06,97.47L199.13,94.021L200.21,92.2L201.28,102.45L202.36,97.757L203.44,102.73L204.51,102.87L205.59,96.863L206.66,96.682L207.74,100.48L208.82,101.86L209.89,93.35L210.97,95.149L212.05,90.199L213.12,99.343L214.2,91.956L215.27,97.054L216.35,98.14L217.43,94.862L218.5,99.141L219.58,98.353L220.65,99.63L221.73,96.299L222.81,95.043L223.88,96.245L224.96,95.277L226.04,99.556L227.11,98.481L228.19,93.957L229.26,97.587L230.34,95.011L231.42,95.905L232.49,92.786L233.57,91.668L234.65,93.073L235.72,90.774L236.8,94.191L237.87,94.862L238.95,92.296L240.03,92.169L241.1,91.913L242.18,91.253L243.25,90.625L244.33,88.347L245.41,91.211L246.48,88.241L247.56,89.784L248.64,89.156L249.71,90.093L250.79,88.326L251.86,86.814L252.94,85.963L254.02,86.24L255.09,83.972L256.17,85.164L257.24,84.973L258.32,84.685L259.4,85.292L260.47,84.494L261.55,84.323L262.63,82.801L263.7,83.791L264.78,81.598L265.85,82.588L266.93,82.258L268.01,82.386L269.08,80.96L270.16,80.161L271.23,80.768L272.31,81.077L273.39,81.535L274.46,78.597L275.54,80.502L276.62,79.48L277.69,78.682L278.77,77.852L279.84,77.617L280.92,76.808L282,76.287L283.07,77.096L284.15,76.638L285.23,76.021L286.3,76.67L287.38,75.936L288.45,76.031L289.53,73.775L290.61,75.19L291.68,74.743L292.76,73.317L293.83,72.976L294.91,72.891L295.99,72.487L297.06,72.487L298.14,71.444L299.22,70.89L300.29,69.549L301.37,69.666L302.44,70.688L303.52,70.666L304.6,69.602L305.67,68.548L306.75,68.346L307.82,69.559L308.9,67.643L309.98,67.207L311.05,66.845L312.13,68.186L313.21,66.43L314.28,65.6L315.36,65.355L316.43,65.749L317.51,65.376L318.59,64.503L319.66,65.376L320.74,64.801L321.82,64.727L322.89,63.375L323.97,63.173L325.04,63.268L326.12,62.587L327.2,62.14L328.27,62.566L329.35,61.789L330.42,62.459L331.5,61.054L332.58,61.331L333.65,60.788L334.73,61.257L335.81,60.001L336.88,60.543L337.96,59.937L339.03,59.181L340.11,59.596L341.19,59.49L342.26,58.297L343.34,58.766L344.41,58.383L345.49,58.095L346.57,57.861L347.64,57.627L348.72,57.084L349.8,57.904L350.87,57.51L351.95,57.244L353.02,56.733L354.1,56.733L355.18,56.924L356.25,56.839L357.33,56.051L358.41,55.817L359.48,55.466L360.56,54.806L361.63,55.328L362.71,54.859L363.79,54.582L364.86,55.03L365.94,54.625L367.01,54.402L368.09,54.582L369.17,54.21L370.24,53.965L371.32,53.656L372.4,53.401L373.47,53.699L374.55,53.263L375.62,53.05L376.7,53.071L377.78,52.869L378.85,52.635L379.93,52.39L381,52.517L382.08,52.209L383.16,52.113L384.23,51.943L385.31,51.794L386.39,51.634L387.46,52.145L388.54,51.655L389.61,51.517L390.69,51.208L391.77,51.134L392.84,50.58L393.92,50.836L395,50.665L396.07,50.208L397.15,50.261L398.22,50.335L399.3,49.995L400.38,50.41L401.45,50.176L402.53,49.803L403.6,49.941L404.68,49.622L405.76,49.132L406.83,49.388L407.91,49.228L408.99,49.452L410.06,48.994L411.14,48.845L412.21,49.143L413.29,48.728L414.37,48.76L415.44,48.441L416.52,48.866L417.59,48.653L418.67,48.685L419.75,48.068L420.82,48.26L421.9,48.355L422.98,48.057L424.05,47.898L425.13,47.983L426.2,48.302L427.28,47.674L428.36,48.036L429.43,48.174L430.51,47.94L431.59,47.759L432.66,47.632L433.74,47.663L434.81,47.483L435.89,47.334L436.97,47.291L438.04,47.408L439.12,47.067L440.19,47.163L441.27,47.312L442.35,46.982L443.42,46.865L444.5,47.153L445.58,47.035L446.65,46.716L447.73,46.727L448.8,46.961L449.88,46.514L450.96,46.908L452.03,46.716L453.11,46.727L454.18,46.493L455.26,46.631L456.34,46.652L457.41,46.514L458.49,46.418L459.57,46.035L460.64,46.588L461.72,46.45L462.79,46.386L463.87,46.163L464.95,46.226L466.02,46.269L467.1,46.354L468.18,46.088L469.25,46.322L470.33,46.024L471.4,46.248L472.48,46.077L473.56,46.173L474.63,46.269L475.71,45.971L476.78,45.982L477.86,46.152L478.94,46.077L480.01,45.95L481.09,46.046L482.17,45.833L483.24,45.95L484.32,45.875L485.39,45.843L486.47,45.652L487.55,45.822L488.62,45.737L489.7,45.779L490.77,45.907L491.85,45.747L492.93,45.705L494,45.652L495.08,45.662L496.16,45.716L497.23,45.652L498.31,45.524L499.38,45.545L500.46,45.609L501.54,45.662L502.61,45.694L503.69,45.609L504.76,45.673L505.84,45.577L506.92,45.577L507.99,45.492L509.07,45.609L510.15,45.545L511.22,45.535L512.3,45.513L513.37,45.449L514.45,45.545L515.53,45.343L516.6,45.449L517.68,45.535L518.76,45.332L519.83,45.417L520.91,45.428L521.98,45.471L523.06,45.343L524.14,45.386L525.21,45.428L526.29,45.439L527.36,45.3L528.44,45.343L529.52,45.332L530.59,45.417L531.67,45.322L532.75,45.386L533.82,45.364L534.9,45.343L535.97,45.3L537.05,45.343L538.13,45.386L539.2,45.258L540.28,45.215L541.35,45.364L542.43,45.375L543.51,45.354L544.58,45.311L545.66,45.268L546.74,45.3L547.81,45.268L548.89,45.258L549.96,45.247L551.04,45.268L552.12,45.247L553.19,45.247L554.27,45.247L555.35,45.205L556.42,45.3L557.5,45.237L558.57,45.268L559.65,45.3L560.73,45.3L561.8,45.215L562.88,45.215L563.95,45.226L565.03,45.205L566.11,45.226L567.18,45.237L568.26,45.205L569.34,45.226L570.41,45.226L571.49,45.215L572.56,45.215L573.64,45.183L574.72,45.226L575.79,45.268L576.87,45.226L577.94,45.247L579.02,45.215L580.1,45.183L581.17,45.194L582.25,45.205L583.33,45.215L584.4,45.173L585.48,45.162L586.55,45.205L587.63,45.194L588.71,45.162L589.78,45.173L590.86,45.151L591.94,45.162L593.01,45.194L594.09,45.173L595.16,45.151L596.24,45.215L597.32,45.162L598.39,45.183L599.47,45.162L600.54,45.183L601.62,45.162L602.7,45.173L604.85,45.162L605.93,45.173L607,45.151L608.08,45.151L609.15,45.162L610.23,45.151L611.31,45.162L612.38,45.173L613.46,45.183L614.53,45.173L615.61,45.183L616.69,45.151L619.92,45.151L624.22,45.151L625.3,45.151L626.37,45.151L628.53,45.151L630.68,45.151L632.83,45.151L633.91,45.183L638.21,45.151L639.29,45.151L643.59,45.173L645.74,45.151L653.28,45.162L654.35,45.162L655.43,45.151L657.58,45.151L664.04,45.151L666.19,45.151L668.34,45.151L674.8,45.151L681.26,45.151L704.93,45.151L720,45.162" style="fill:none;stroke:#0000FF" />
</g>
</svg>
