<?xml version="1.0"?>
<!-- Generated by SVGo and Plotinum VG -->
<svg width="720pt" height="432pt" viewBox="0 0 720 432"
	xmlns="http://www.w3.org/2000/svg"
	xmlns:xlink="http://www.w3.org/1999/xlink">
<g transform="scale(1, -1) translate(0, -432)">
<path d="M0,0L720,0L720,432L0,432Z" style="fill:#FFFFFF" />
<text x="358.5" y="-420.45" transform="scale(1, -1)"
	style="font-family:Times;font-weight:normal;font-style:normal;font-size:12px"> </text>
<text x="379.31" y="-3.8613" transform="scale(1, -1)"
	style="font-family:Times;font-weight:normal;font-style:normal;font-size:12px">Costs</text>
<text x="56.555" y="-18.634" transform="scale(1, -1)"
	style="font-family:Times;font-weight:normal;font-style:normal;font-size:10px">0.00</text>
<text x="346.99" y="-18.634" transform="scale(1, -1)"
	style="font-family:Times;font-weight:normal;font-style:normal;font-size:10px">250.00</text>
<text x="642.43" y="-18.634" transform="scale(1, -1)"
	style="font-family:Times;font-weight:normal;font-style:normal;font-size:10px">500.00</text>
<path d="M65.305,28.263L65.305,36.263" style="fill:none;stroke:#000000;stroke-width:0.5" />
<path d="M360.74,28.263L360.74,36.263" style="fill:none;stroke:#000000;stroke-width:0.5" />
<path d="M656.18,28.263L656.18,36.263" style="fill:none;stroke:#000000;stroke-width:0.5" />
<path d="M124.39,32.263L124.39,36.263" style="fill:none;stroke:#000000;stroke-width:0.5" />
<path d="M183.48,32.263L183.48,36.263" style="fill:none;stroke:#000000;stroke-width:0.5" />
<path d="M242.57,32.263L242.57,36.263" style="fill:none;stroke:#000000;stroke-width:0.5" />
<path d="M301.66,32.263L301.66,36.263" style="fill:none;stroke:#000000;stroke-width:0.5" />
<path d="M419.83,32.263L419.83,36.263" style="fill:none;stroke:#000000;stroke-width:0.5" />
<path d="M478.92,32.263L478.92,36.263" style="fill:none;stroke:#000000;stroke-width:0.5" />
<path d="M538.01,32.263L538.01,36.263" style="fill:none;stroke:#000000;stroke-width:0.5" />
<path d="M597.1,32.263L597.1,36.263" style="fill:none;stroke:#000000;stroke-width:0.5" />
<path d="M715.27,32.263L715.27,36.263" style="fill:none;stroke:#000000;stroke-width:0.5" />
<path d="M65.305,36.263L720,36.263" style="fill:none;stroke:#000000;stroke-width:0.5" />
<g transform="rotate(90)">
<text x="152.55" y="11.555" transform="scale(1, -1)"
	style="font-family:Times;font-weight:normal;font-style:normal;font-size:12px">Number of trials (1000000 total)</text>
</g>
<text x="24.055" y="-106.66" transform="scale(1, -1)"
	style="font-family:Times;font-weight:normal;font-style:normal;font-size:10px">20000</text>
<text x="24.055" y="-236.1" transform="scale(1, -1)"
	style="font-family:Times;font-weight:normal;font-style:normal;font-size:10px">60000</text>
<text x="19.055" y="-365.54" transform="scale(1, -1)"
	style="font-family:Times;font-weight:normal;font-style:normal;font-size:10px">100000</text>
<path d="M51.555,109.87L59.555,109.87" style="fill:none;stroke:#000000;stroke-width:0.5" />
<path d="M51.555,239.31L59.555,239.31" style="fill:none;stroke:#000000;stroke-width:0.5" />
<path d="M51.555,368.75L59.555,368.75" style="fill:none;stroke:#000000;stroke-width:0.5" />
<path d="M55.555,77.508L59.555,77.508" style="fill:none;stroke:#000000;stroke-width:0.5" />
<path d="M55.555,142.23L59.555,142.23" style="fill:none;stroke:#000000;stroke-width:0.5" />
<path d="M55.555,174.59L59.555,174.59" style="fill:none;stroke:#000000;stroke-width:0.5" />
<path d="M55.555,206.95L59.555,206.95" style="fill:none;stroke:#000000;stroke-width:0.5" />
<path d="M55.555,271.67L59.555,271.67" style="fill:none;stroke:#000000;stroke-width:0.5" />
<path d="M55.555,304.03L59.555,304.03" style="fill:none;stroke:#000000;stroke-width:0.5" />
<path d="M55.555,336.39L59.555,336.39" style="fill:none;stroke:#000000;stroke-width:0.5" />
<path d="M55.555,401.11L59.555,401.11" style="fill:none;stroke:#000000;stroke-width:0.5" />
<path d="M59.555,45.151L59.555,416.58" style="fill:none;stroke:#000000;stroke-width:0.5" />
<path d="M65.305,416.58L91.303,59.859L93.667,48.543L96.03,51.898L97.212,69.515L98.394,52.115L100.76,59.759L101.94,84.443L104.3,89.067L105.48,89.513L106.67,59.416L107.85,62.716L109.03,51.979L110.21,55.759L111.39,52.073L112.58,80.718L113.76,75.311L114.94,69.486L116.12,84.812L117.3,78.482L118.48,75.631L119.67,70.039L122.03,60.872L123.21,74.722L124.39,89.083L125.57,78.039L126.76,45.808L127.94,101.85L129.12,72.088L130.3,47.352L131.48,65.402L132.67,63.014L133.85,63.215L135.03,60.674L136.21,56.438L137.39,57.849L138.57,72.285L139.76,60.267L140.94,53.144L142.12,53.047L143.3,52.012L144.48,56.817L145.66,54.154L146.85,53.591L148.03,54.471L149.21,68.149L150.39,56.659L151.57,76.777L152.75,60.581L153.94,61.745L155.12,64.062L156.3,66.684L157.48,61.144L158.66,61.752L159.85,63.363L161.03,81.158L162.21,62.189L163.39,66.282L164.57,73.207L165.75,65.648L166.94,66.519L168.12,68.913L169.3,63.351L170.48,66.101L171.66,66.091L172.84,65.499L174.03,64.211L175.21,70.208L176.39,67.742L177.57,66.499L178.75,66.959L179.94,64.273L181.12,62.642L182.3,64.875L183.48,61.59L184.66,61.862L185.84,63.639L187.03,65.098L188.21,66.884L189.39,60.286L190.57,63.166L191.75,64.36L192.93,59.684L194.12,59.464L195.3,59.03L196.48,60.901L197.66,62.263L198.84,60.762L200.03,60.775L201.21,62.399L202.39,60.81L203.57,60.063L204.75,58.632L205.93,58.089L207.12,58.584L208.3,60.516L209.48,60.072L210.66,59.545L211.84,61.739L213.02,59.231L214.21,61.085L215.39,60.273L216.57,57.707L217.75,59.571L218.93,60.914L220.12,60.115L221.3,59.772L222.48,58.561L223.66,61.137L224.84,60.257L226.02,58.59L227.21,59.393L228.39,58.82L229.57,58.717L230.75,58.565L231.93,57.374L233.11,57.71L234.3,58.192L235.48,58.451L236.66,56.908L237.84,57.416L239.02,57.205L240.21,56.908L241.39,56.665L242.57,56.312L243.75,55.464L244.93,56.704L246.11,55.646L247.3,56.134L248.48,55.652L249.66,55.558L250.84,56.228L252.02,55.484L253.2,54.348L254.39,54.924L255.57,54.555L256.75,54.047L257.93,54.209L259.11,54.633L260.3,54.623L261.48,54.092L262.66,53.982L263.84,53.956L265.02,53.497L266.2,53.63L267.39,53.342L268.57,53.478L269.75,52.982L270.93,53.487L272.11,52.999L273.29,53.06L274.48,53.235L275.66,52.927L276.84,52.633L278.02,52.785L279.2,52.177L280.39,52.128L281.57,52.135L282.75,51.931L283.93,52.063L285.11,51.798L286.29,51.523L287.48,52.015L288.66,51.397L289.84,51.439L291.02,51.161L292.2,50.788L293.38,51.122L294.57,50.863L295.75,50.64L296.93,50.555L298.11,50.2L299.29,50.355L300.48,50.439L301.66,50.167L302.84,49.889L304.02,49.996L305.2,50.002L306.38,49.989L307.57,49.905L308.75,49.844L309.93,49.85L311.11,49.575L312.29,49.562L313.47,49.394L314.66,49.368L315.84,49.18L317.02,48.976L318.2,49.132L319.38,49.018L320.56,49.193L321.75,48.86L322.93,48.808L324.11,48.562L325.29,48.336L326.47,48.455L327.66,48.556L328.84,48.171L330.02,48.336L331.2,48.329L332.38,48.112L333.56,48.397L334.75,48.116L335.93,48.067L337.11,47.84L338.29,47.895L339.47,47.879L340.65,47.74L341.84,47.75L343.02,47.611L344.2,47.578L345.38,47.588L346.56,47.595L347.75,47.51L348.93,47.358L350.11,47.404L351.29,47.277L352.47,47.417L353.65,47.19L354.84,46.967L356.02,47.116L357.2,47.232L358.38,46.944L359.56,47.08L360.74,47.07L361.93,46.873L363.11,46.918L364.29,46.76L365.47,46.798L366.65,46.721L367.84,46.695L369.02,46.666L370.2,46.614L371.38,46.546L372.56,46.527L373.74,46.523L374.93,46.588L376.11,46.397L377.29,46.4L378.47,46.42L379.65,46.465L380.83,46.439L382.02,46.378L383.2,46.277L384.38,46.219L385.56,46.277L386.74,46.09L387.93,46.187L389.11,46.161L390.29,46.109L391.47,46.174L392.65,46.1L393.83,46.07L395.02,46.061L396.2,46.012L397.38,45.912L398.56,45.925L399.74,45.944L400.92,45.957L402.11,45.967L403.29,45.905L404.47,45.922L405.65,45.873L406.83,45.815L408.02,45.837L409.2,45.812L410.38,45.812L411.56,45.812L412.74,45.792L413.92,45.727L415.11,45.747L416.29,45.718L417.47,45.705L418.65,45.656L419.83,45.65L421.01,45.734L422.2,45.672L423.38,45.695L424.56,45.604L425.74,45.617L426.92,45.604L428.11,45.507L429.29,45.617L430.47,45.585L431.65,45.569L432.83,45.572L434.01,45.504L435.2,45.562L436.38,45.498L437.56,45.481L438.74,45.481L439.92,45.527L441.1,45.494L442.29,45.439L443.47,45.426L444.65,45.43L445.83,45.459L447.01,45.384L448.2,45.456L449.38,45.407L450.56,45.426L451.74,45.397L452.92,45.397L454.1,45.42L455.29,45.358L456.47,45.316L457.65,45.365L458.83,45.352L460.01,45.346L461.19,45.358L462.38,45.358L463.56,45.303L464.74,45.355L465.92,45.323L467.1,45.346L468.29,45.291L469.47,45.316L470.65,45.274L471.83,45.303L473.01,45.291L474.19,45.31L475.38,45.255L476.56,45.265L477.74,45.239L478.92,45.32L480.1,45.291L481.28,45.268L482.47,45.274L483.65,45.261L484.83,45.261L486.01,45.268L487.19,45.245L488.37,45.261L489.56,45.255L490.74,45.242L491.92,45.261L493.1,45.239L494.28,45.252L495.47,45.239L496.65,45.216L497.83,45.252L499.01,45.229L500.19,45.226L501.37,45.252L502.56,45.2L503.74,45.223L504.92,45.226L506.1,45.216L507.28,45.226L508.46,45.216L509.65,45.206L510.83,45.203L512.01,45.171L513.19,45.187L514.37,45.197L515.56,45.203L516.74,45.203L517.92,45.2L519.1,45.184L520.28,45.18L521.46,45.193L522.65,45.184L523.83,45.184L525.01,45.177L526.19,45.197L527.37,45.18L528.55,45.193L529.74,45.18L530.92,45.184L532.1,45.164L533.28,45.18L534.46,45.151L535.65,45.168L536.83,45.19L538.01,45.168L539.19,45.177L540.37,45.18L541.55,45.168L542.74,45.19L543.92,45.18L545.1,45.161L546.28,45.168L547.46,45.177L548.64,45.155L549.83,45.174L551.01,45.177L552.19,45.161L553.37,45.164L554.55,45.164L555.74,45.161L556.92,45.171L558.1,45.168L559.28,45.171L560.46,45.164L561.64,45.161L562.83,45.155L564.01,45.161L565.19,45.168L566.37,45.151L567.55,45.164L568.73,45.168L569.92,45.151L571.1,45.155L572.28,45.155L573.46,45.155L574.64,45.151L577.01,45.151L578.19,45.151L579.37,45.158L580.55,45.151L581.73,45.155L582.92,45.164L584.1,45.151L585.28,45.151L586.46,45.151L587.64,45.155L590.01,45.161L591.19,45.158L592.37,45.158L593.55,45.155L594.73,45.158L595.92,45.158L597.1,45.161L598.28,45.151L599.46,45.155L603.01,45.151L606.55,45.155L608.91,45.161L610.1,45.158L616.01,45.151L617.19,45.151L618.37,45.151L619.55,45.151L621.91,45.151L623.1,45.151L625.46,45.155L627.82,45.158L630.19,45.151L640.82,45.151L642,45.151L643.19,45.151L651.46,45.155L671.55,45.151L686.91,45.151L691.64,45.151L703.46,45.151L712.91,45.151L720,45.151" style="fill:none;stroke:#0000FF" />
</g>
</svg>
