<?xml version="1.0"?>
<!-- Generated by SVGo and Plotinum VG -->
<svg width="720pt" height="432pt" viewBox="0 0 720 432"
	xmlns="http://www.w3.org/2000/svg"
	xmlns:xlink="http://www.w3.org/1999/xlink">
<g transform="scale(1, -1) translate(0, -432)">
<path d="M0,0L720,0L720,432L0,432Z" style="fill:#FFFFFF" />
<text x="358.5" y="-420.45" transform="scale(1, -1)"
	style="font-family:Times;font-weight:normal;font-style:normal;font-size:12px"> </text>
<text x="379.31" y="-3.8613" transform="scale(1, -1)"
	style="font-family:Times;font-weight:normal;font-style:normal;font-size:12px">Costs</text>
<text x="62.805" y="-18.634" transform="scale(1, -1)"
	style="font-family:Times;font-weight:normal;font-style:normal;font-size:10px">0</text>
<text x="331.74" y="-18.634" transform="scale(1, -1)"
	style="font-family:Times;font-weight:normal;font-style:normal;font-size:10px">200</text>
<text x="605.67" y="-18.634" transform="scale(1, -1)"
	style="font-family:Times;font-weight:normal;font-style:normal;font-size:10px">400</text>
<path d="M65.305,28.263L65.305,36.263" style="fill:none;stroke:#000000;stroke-width:0.5" />
<path d="M339.24,28.263L339.24,36.263" style="fill:none;stroke:#000000;stroke-width:0.5" />
<path d="M613.17,28.263L613.17,36.263" style="fill:none;stroke:#000000;stroke-width:0.5" />
<path d="M202.27,32.263L202.27,36.263" style="fill:none;stroke:#000000;stroke-width:0.5" />
<path d="M476.2,32.263L476.2,36.263" style="fill:none;stroke:#000000;stroke-width:0.5" />
<path d="M65.305,36.263L720,36.263" style="fill:none;stroke:#000000;stroke-width:0.5" />
<g transform="rotate(90)">
<text x="152.55" y="11.555" transform="scale(1, -1)"
	style="font-family:Times;font-weight:normal;font-style:normal;font-size:12px">Number of trials (1000000 total)</text>
</g>
<text x="24.055" y="-112.6" transform="scale(1, -1)"
	style="font-family:Times;font-weight:normal;font-style:normal;font-size:10px">40000</text>
<text x="19.055" y="-253.91" transform="scale(1, -1)"
	style="font-family:Times;font-weight:normal;font-style:normal;font-size:10px">120000</text>
<text x="19.055" y="-395.22" transform="scale(1, -1)"
	style="font-family:Times;font-weight:normal;font-style:normal;font-size:10px">200000</text>
<path d="M51.555,115.81L59.555,115.81" style="fill:none;stroke:#000000;stroke-width:0.5" />
<path d="M51.555,257.12L59.555,257.12" style="fill:none;stroke:#000000;stroke-width:0.5" />
<path d="M51.555,398.43L59.555,398.43" style="fill:none;stroke:#000000;stroke-width:0.5" />
<path d="M55.555,186.46L59.555,186.46" style="fill:none;stroke:#000000;stroke-width:0.5" />
<path d="M55.555,327.77L59.555,327.77" style="fill:none;stroke:#000000;stroke-width:0.5" />
<path d="M59.555,45.151L59.555,416.58" style="fill:none;stroke:#000000;stroke-width:0.5" />
<path d="M65.305,416.58L95.437,48.651L96.807,59.634L100.92,63.437L102.29,48.46L103.66,80.979L105.02,51.853L106.39,59.855L107.76,81.373L109.13,63.472L110.5,67.002L111.87,55.161L113.24,55.214L115.98,59.101L117.35,48.534L118.72,63.329L120.09,81.659L121.46,84.665L122.83,73.486L124.2,55.108L125.57,70.142L126.94,48.659L128.31,67.049L131.05,45.303L132.42,49.295L133.79,59.436L135.16,75.722L136.53,45.572L137.9,73.998L139.27,66.664L140.64,61.425L142.01,54.771L143.38,68.641L144.74,47.916L146.11,53.77L147.48,55.439L148.85,50.018L150.22,67.703L151.59,61.957L152.96,49.845L154.33,50.903L155.7,49.868L157.07,55.167L158.44,52.999L159.81,53.3L161.18,53.96L162.55,53.558L163.92,57.294L165.29,61.466L166.66,58.443L168.03,52.809L169.4,52.823L170.77,57.445L172.14,51.235L173.51,55.368L174.88,56.271L176.25,64.993L177.62,56.599L178.99,57.896L180.36,56.961L181.73,58.097L183.1,56.477L184.46,53.641L185.83,55.388L187.2,51.127L188.57,55.928L189.94,54.803L191.31,54.423L192.68,55.714L194.05,56.529L195.42,56.626L196.79,54.347L198.16,55.562L199.53,52.362L200.9,53.395L202.27,51.934L203.64,53.286L205.01,51.948L206.38,53.858L207.75,54.909L209.12,52.457L210.49,52.969L211.86,52.651L213.23,53.058L214.6,51.307L215.97,51.807L217.34,51.494L218.71,51.825L220.08,53.43L221.45,52.471L222.82,51.588L224.18,52.162L225.55,51.687L226.92,51.003L228.29,51.251L229.66,50.781L231.03,51.028L232.4,51.026L233.77,50.998L235.14,50.733L236.51,51.21L237.88,50.576L239.25,51.025L240.62,50.171L241.99,49.725L243.36,50.297L244.73,50.016L246.1,50.173L247.47,49.599L248.84,50.668L250.21,50.286L251.58,50.491L252.95,49.696L254.32,49.717L255.69,49.421L257.06,49.343L258.43,49.297L259.8,48.76L261.17,49.504L262.54,49.235L263.9,48.969L265.27,48.836L266.64,48.999L268.01,48.87L269.38,48.532L270.75,48.739L272.12,48.366L273.49,48.359L274.86,48.412L276.23,48.53L277.6,48.209L278.97,48.227L280.34,48.165L281.71,48.154L283.08,47.87L284.45,47.849L285.82,47.997L287.19,47.79L288.56,47.646L289.93,47.589L291.3,47.54L292.67,47.593L294.04,47.593L295.41,47.49L296.78,47.363L298.15,47.395L299.52,47.351L300.89,47.287L302.26,47.17L303.62,47.181L304.99,47.063L306.36,47.19L307.73,47.022L309.1,47.073L310.47,46.884L311.84,46.997L313.21,46.835L314.58,46.828L315.95,46.729L317.32,46.678L318.69,46.773L320.06,46.67L321.43,46.69L322.8,46.556L324.17,46.557L325.54,46.497L326.91,46.45L328.28,46.45L329.65,46.292L331.02,46.388L332.39,46.331L333.76,46.317L335.13,46.298L336.5,46.31L337.87,46.269L339.24,46.153L340.61,46.183L341.98,46.109L343.34,46.133L344.71,46.072L346.08,45.962L347.45,46.068L348.82,46.052L350.19,46.013L351.56,45.983L352.93,45.944L354.3,45.929L355.67,45.959L357.04,45.851L358.41,45.814L359.78,45.828L361.15,45.784L362.52,45.807L363.89,45.814L365.26,45.764L366.63,45.757L368,45.722L369.37,45.681L370.74,45.715L372.11,45.722L373.48,45.683L374.85,45.593L376.22,45.667L377.59,45.596L378.96,45.634L380.33,45.627L381.7,45.604L383.06,45.517L384.43,45.561L385.8,45.535L387.17,45.538L388.54,45.563L389.91,45.544L391.28,45.491L392.65,45.503L394.02,45.469L395.39,45.466L396.76,45.46L398.13,45.48L399.5,45.439L400.87,45.416L402.24,45.429L403.61,45.443L404.98,45.367L406.35,45.376L407.72,45.418L409.09,45.367L410.46,45.363L411.83,45.388L413.2,45.381L414.57,45.346L415.94,45.355L417.31,45.344L418.68,45.323L420.05,45.328L421.42,45.321L422.78,45.339L424.15,45.317L425.52,45.332L426.89,45.3L428.26,45.279L429.63,45.31L431,45.284L432.37,45.264L433.74,45.286L435.11,45.293L436.48,45.284L437.85,45.289L439.22,45.264L440.59,45.256L441.96,45.249L443.33,45.261L444.7,45.24L446.07,45.257L447.44,45.247L448.81,45.241L450.18,45.226L451.55,45.233L452.92,45.238L454.29,45.224L455.66,45.224L457.03,45.22L458.4,45.241L459.77,45.229L461.14,45.245L462.5,45.211L463.87,45.211L465.24,45.206L466.61,45.196L467.98,45.224L469.35,45.188L470.72,45.215L472.09,45.203L473.46,45.217L474.83,45.188L476.2,45.196L477.57,45.208L478.94,45.194L480.31,45.188L481.68,45.181L483.05,45.204L484.42,45.185L485.79,45.176L487.16,45.176L488.53,45.192L489.9,45.188L491.27,45.169L492.64,45.181L494.01,45.174L495.38,45.185L496.75,45.185L498.12,45.169L499.49,45.164L500.86,45.183L502.22,45.174L503.59,45.173L504.96,45.174L506.33,45.167L507.7,45.169L509.07,45.176L510.44,45.18L511.81,45.165L513.18,45.167L514.55,45.167L515.92,45.162L517.29,45.16L518.66,45.167L520.03,45.165L521.4,45.158L522.77,45.165L524.14,45.173L525.51,45.157L526.88,45.16L528.25,45.167L529.62,45.162L530.99,45.162L532.36,45.16L533.73,45.158L535.1,45.158L536.47,45.16L537.84,45.157L539.21,45.158L540.58,45.153L541.94,45.157L543.31,45.157L544.68,45.158L546.05,45.151L547.42,45.162L548.79,45.155L550.16,45.157L551.53,45.16L552.9,45.153L554.27,45.153L555.64,45.151L557.01,45.155L558.38,45.157L559.75,45.151L561.12,45.151L562.49,45.155L563.86,45.16L565.23,45.151L566.6,45.155L567.97,45.153L569.34,45.153L570.71,45.153L572.08,45.153L573.45,45.157L576.19,45.151L577.56,45.155L578.93,45.155L580.3,45.153L581.66,45.164L584.4,45.151L585.77,45.153L588.51,45.151L589.88,45.151L591.25,45.155L592.62,45.151L595.36,45.151L596.73,45.153L599.47,45.151L609.06,45.153L611.8,45.151L615.91,45.153L618.65,45.151L624.12,45.151L648.78,45.151L658.37,45.151L667.95,45.151L720,45.151" style="fill:none;stroke:#0000FF" />
</g>
</svg>
