<?xml version="1.0"?>
<!-- Generated by SVGo and Plotinum VG -->
<svg width="720pt" height="432pt" viewBox="0 0 720 432"
	xmlns="http://www.w3.org/2000/svg"
	xmlns:xlink="http://www.w3.org/1999/xlink">
<g transform="scale(1, -1) translate(0, -432)">
<path d="M0,0L720,0L720,432L0,432Z" style="fill:#FFFFFF" />
<text x="358.5" y="-420.45" transform="scale(1, -1)"
	style="font-family:Times;font-weight:normal;font-style:normal;font-size:12px"> </text>
<text x="379.31" y="-3.8613" transform="scale(1, -1)"
	style="font-family:Times;font-weight:normal;font-style:normal;font-size:12px">Costs</text>
<text x="62.805" y="-18.634" transform="scale(1, -1)"
	style="font-family:Times;font-weight:normal;font-style:normal;font-size:10px">0</text>
<text x="325.03" y="-18.634" transform="scale(1, -1)"
	style="font-family:Times;font-weight:normal;font-style:normal;font-size:10px">200</text>
<text x="592.25" y="-18.634" transform="scale(1, -1)"
	style="font-family:Times;font-weight:normal;font-style:normal;font-size:10px">400</text>
<path d="M65.305,28.263L65.305,36.263" style="fill:none;stroke:#000000;stroke-width:0.5" />
<path d="M332.53,28.263L332.53,36.263" style="fill:none;stroke:#000000;stroke-width:0.5" />
<path d="M599.75,28.263L599.75,36.263" style="fill:none;stroke:#000000;stroke-width:0.5" />
<path d="M198.92,32.263L198.92,36.263" style="fill:none;stroke:#000000;stroke-width:0.5" />
<path d="M466.14,32.263L466.14,36.263" style="fill:none;stroke:#000000;stroke-width:0.5" />
<path d="M65.305,36.263L720,36.263" style="fill:none;stroke:#000000;stroke-width:0.5" />
<g transform="rotate(90)">
<text x="152.55" y="11.555" transform="scale(1, -1)"
	style="font-family:Times;font-weight:normal;font-style:normal;font-size:12px">Number of trials (1000000 total)</text>
</g>
<text x="24.055" y="-112.82" transform="scale(1, -1)"
	style="font-family:Times;font-weight:normal;font-style:normal;font-size:10px">40000</text>
<text x="19.055" y="-254.57" transform="scale(1, -1)"
	style="font-family:Times;font-weight:normal;font-style:normal;font-size:10px">120000</text>
<text x="19.055" y="-396.32" transform="scale(1, -1)"
	style="font-family:Times;font-weight:normal;font-style:normal;font-size:10px">200000</text>
<path d="M51.555,116.02L59.555,116.02" style="fill:none;stroke:#000000;stroke-width:0.5" />
<path d="M51.555,257.77L59.555,257.77" style="fill:none;stroke:#000000;stroke-width:0.5" />
<path d="M51.555,399.52L59.555,399.52" style="fill:none;stroke:#000000;stroke-width:0.5" />
<path d="M55.555,186.9L59.555,186.9" style="fill:none;stroke:#000000;stroke-width:0.5" />
<path d="M55.555,328.65L59.555,328.65" style="fill:none;stroke:#000000;stroke-width:0.5" />
<path d="M59.555,45.151L59.555,416.58" style="fill:none;stroke:#000000;stroke-width:0.5" />
<path d="M65.305,416.58L97.371,52.474L100.04,52.985L101.38,66.821L102.72,60.831L104.05,86.679L105.39,52.016L106.72,51.72L108.06,66.431L109.4,63.375L110.73,89.377L112.07,71.313L113.4,55.363L114.74,59.714L116.08,70.2L117.41,52.411L118.75,59.945L120.09,63.015L121.42,48.649L122.76,78.611L124.09,66.912L126.77,58.892L130.77,66.77L132.11,52.086L133.45,56.575L134.78,45.511L136.12,96.433L137.45,45.713L138.79,50.364L140.13,74.536L141.46,57.544L142.8,55.166L144.14,48.08L145.47,48.996L146.81,54.9L148.14,59.622L149.48,66.256L150.82,51.131L152.15,51.02L153.49,51.801L154.82,53.883L156.16,51.916L157.5,52.978L158.83,53.913L160.17,56.07L161.5,55.481L162.84,64.015L164.18,50.839L165.51,54.082L166.85,52.239L168.19,58.166L169.52,55.751L170.86,52.707L172.19,79.311L173.53,71.658L174.87,56.16L176.2,53.667L177.54,54.163L178.87,55.628L180.21,53.701L181.55,58.144L182.88,52.737L184.22,53.128L185.55,55.653L186.89,54.629L188.23,53.339L189.56,52.404L190.9,53.022L192.24,51.456L193.57,54.712L194.91,54.005L196.24,49.5L197.58,53.167L198.92,52.274L200.25,50.494L201.59,53.258L202.92,49.834L204.26,51.651L205.6,51.879L206.93,54.813L208.27,53.311L209.6,51.968L210.94,56.814L212.28,52.684L213.61,51.654L214.95,52.09L216.29,52.37L217.62,54.602L218.96,54.475L220.29,53.536L221.63,51.215L222.97,52.001L224.3,52.191L225.64,51.22L226.97,51.227L228.31,50.433L229.65,51.557L230.98,52.549L232.32,50.081L233.65,51.507L234.99,49.59L236.33,49.175L237.66,50.651L239,50.77L240.34,50.084L241.67,49.005L243.01,52.391L244.34,51.477L245.68,49.181L247.02,51.218L248.35,50.467L249.69,49.721L251.02,49.115L252.36,49.269L253.7,48.963L255.03,49.446L256.37,50.623L257.7,49.475L259.04,48.741L260.38,48.585L261.71,48.725L263.05,48.569L264.39,48.5L265.72,48.814L267.06,48.663L268.39,48.612L269.73,49.326L271.07,48.52L272.4,48.298L273.74,48.07L275.07,48.335L276.41,48.61L277.75,48.222L279.08,48.025L280.42,48.817L281.75,48.204L283.09,48.064L284.43,47.905L285.76,48.018L287.1,47.735L288.44,47.979L289.77,47.823L291.11,47.513L292.44,47.768L293.78,47.651L295.12,47.69L296.45,47.423L297.79,47.24L299.12,47.182L300.46,47.347L301.8,47.465L303.13,46.98L304.47,47.201L305.81,47.129L307.14,46.852L308.48,47.049L309.81,46.858L311.15,46.741L312.49,46.725L313.82,47.035L315.16,46.842L316.49,46.663L317.83,46.872L319.17,46.732L320.5,46.714L321.84,46.502L323.17,46.546L324.51,46.634L325.85,46.665L327.18,46.688L328.52,46.528L329.86,46.362L331.19,46.473L332.53,46.346L333.86,46.315L335.2,46.266L336.54,46.195L337.87,46.324L339.21,46.19L340.54,46.202L341.88,46.204L343.22,46.046L344.55,46.11L345.89,46.17L347.22,46.098L348.56,45.933L349.9,45.982L351.23,46.16L352.57,45.981L353.91,46.03L355.24,45.988L356.58,45.956L357.91,45.887L359.25,45.881L360.59,45.791L361.92,45.789L363.26,45.913L364.59,45.837L365.93,45.825L367.27,45.708L368.6,45.676L369.94,45.708L371.27,45.662L372.61,45.766L373.95,45.66L375.28,45.704L376.62,45.656L377.96,45.644L379.29,45.568L380.63,45.596L381.96,45.555L383.3,45.639L384.64,45.546L385.97,45.57L387.31,45.57L388.64,45.497L389.98,45.506L391.32,45.561L392.65,45.484L393.99,45.516L395.32,45.476L396.66,45.456L398,45.476L399.33,45.442L400.67,45.461L402.01,45.43L403.34,45.442L404.68,45.428L406.01,45.414L407.35,45.412L408.69,45.412L410.02,45.426L411.36,45.412L412.69,45.394L414.03,45.38L415.37,45.375L416.7,45.383L418.04,45.355L419.37,45.359L420.71,45.345L422.05,45.357L423.38,45.375L424.72,45.298L426.06,45.318L427.39,45.291L428.73,45.318L430.06,45.309L431.4,45.282L432.74,45.272L434.07,45.282L435.41,45.275L436.74,45.293L438.08,45.254L439.42,45.265L440.75,45.249L442.09,45.258L443.42,45.267L444.76,45.249L446.1,45.277L447.43,45.256L448.77,45.235L450.11,45.267L451.44,45.244L452.78,45.251L454.11,45.247L455.45,45.267L456.79,45.251L458.12,45.233L459.46,45.206L460.79,45.222L462.13,45.229L463.47,45.212L464.8,45.219L466.14,45.206L467.47,45.24L468.81,45.194L470.15,45.229L471.48,45.206L472.82,45.197L474.16,45.197L475.49,45.181L476.83,45.217L478.16,45.176L479.5,45.224L480.84,45.21L482.17,45.199L483.51,45.203L484.84,45.189L486.18,45.171L487.52,45.19L488.85,45.183L490.19,45.201L491.52,45.194L492.86,45.173L494.2,45.169L495.53,45.176L496.87,45.19L498.21,45.171L499.54,45.167L500.88,45.173L502.21,45.169L503.55,45.181L504.89,45.18L506.22,45.16L507.56,45.169L508.89,45.174L510.23,45.157L511.57,45.166L512.9,45.169L514.24,45.164L515.57,45.16L516.91,45.166L518.25,45.171L519.58,45.166L520.92,45.16L522.26,45.158L523.59,45.174L524.93,45.162L526.26,45.155L527.6,45.16L528.94,45.169L530.27,45.166L531.61,45.16L532.94,45.167L534.28,45.164L535.62,45.157L536.95,45.155L538.29,45.16L539.62,45.162L540.96,45.153L542.3,45.157L543.63,45.158L544.97,45.157L546.31,45.153L547.64,45.153L548.98,45.155L550.31,45.157L551.65,45.155L552.99,45.153L554.32,45.153L555.66,45.157L556.99,45.157L558.33,45.155L559.67,45.16L561,45.155L562.34,45.151L565.01,45.155L567.68,45.155L569.02,45.151L570.36,45.151L571.69,45.153L573.03,45.153L574.36,45.157L575.7,45.151L577.04,45.153L578.37,45.151L579.71,45.153L581.04,45.151L582.38,45.151L586.39,45.155L587.72,45.151L591.73,45.151L594.41,45.151L597.08,45.151L601.09,45.151L603.76,45.151L607.77,45.151L609.1,45.151L618.46,45.151L623.8,45.151L625.14,45.151L630.48,45.151L631.82,45.153L642.51,45.151L655.87,45.151L658.54,45.151L720,45.151" style="fill:none;stroke:#0000FF" />
</g>
</svg>
