<?xml version="1.0"?>
<!-- Generated by SVGo and Plotinum VG -->
<svg width="720pt" height="432pt" viewBox="0 0 720 432"
	xmlns="http://www.w3.org/2000/svg"
	xmlns:xlink="http://www.w3.org/1999/xlink">
<g transform="scale(1, -1) translate(0, -432)">
<path d="M0,0L720,0L720,432L0,432Z" style="fill:#FFFFFF" />
<text x="358.5" y="-420.45" transform="scale(1, -1)"
	style="font-family:Times;font-weight:normal;font-style:normal;font-size:12px"> </text>
<text x="372.44" y="-3.8613" transform="scale(1, -1)"
	style="font-family:Times;font-weight:normal;font-style:normal;font-size:12px">Costs</text>
<text x="56.555" y="-18.634" transform="scale(1, -1)"
	style="font-family:Times;font-weight:normal;font-style:normal;font-size:10px">0.00</text>
<text x="372.03" y="-18.634" transform="scale(1, -1)"
	style="font-family:Times;font-weight:normal;font-style:normal;font-size:10px">250.00</text>
<text x="692.5" y="-18.634" transform="scale(1, -1)"
	style="font-family:Times;font-weight:normal;font-style:normal;font-size:10px">500.00</text>
<path d="M65.305,28.263L65.305,36.263" style="fill:none;stroke:#000000;stroke-width:0.5" />
<path d="M385.78,28.263L385.78,36.263" style="fill:none;stroke:#000000;stroke-width:0.5" />
<path d="M706.25,28.263L706.25,36.263" style="fill:none;stroke:#000000;stroke-width:0.5" />
<path d="M129.4,32.263L129.4,36.263" style="fill:none;stroke:#000000;stroke-width:0.5" />
<path d="M193.49,32.263L193.49,36.263" style="fill:none;stroke:#000000;stroke-width:0.5" />
<path d="M257.59,32.263L257.59,36.263" style="fill:none;stroke:#000000;stroke-width:0.5" />
<path d="M321.68,32.263L321.68,36.263" style="fill:none;stroke:#000000;stroke-width:0.5" />
<path d="M449.87,32.263L449.87,36.263" style="fill:none;stroke:#000000;stroke-width:0.5" />
<path d="M513.97,32.263L513.97,36.263" style="fill:none;stroke:#000000;stroke-width:0.5" />
<path d="M578.06,32.263L578.06,36.263" style="fill:none;stroke:#000000;stroke-width:0.5" />
<path d="M642.16,32.263L642.16,36.263" style="fill:none;stroke:#000000;stroke-width:0.5" />
<path d="M65.305,36.263L706.25,36.263" style="fill:none;stroke:#000000;stroke-width:0.5" />
<g transform="rotate(90)">
<text x="152.55" y="11.555" transform="scale(1, -1)"
	style="font-family:Times;font-weight:normal;font-style:normal;font-size:12px">Number of trials (1000000 total)</text>
</g>
<text x="24.055" y="-89.474" transform="scale(1, -1)"
	style="font-family:Times;font-weight:normal;font-style:normal;font-size:10px">20000</text>
<text x="24.055" y="-232.07" transform="scale(1, -1)"
	style="font-family:Times;font-weight:normal;font-style:normal;font-size:10px">80000</text>
<text x="19.055" y="-374.66" transform="scale(1, -1)"
	style="font-family:Times;font-weight:normal;font-style:normal;font-size:10px">140000</text>
<path d="M51.555,92.68L59.555,92.68" style="fill:none;stroke:#000000;stroke-width:0.5" />
<path d="M51.555,235.27L59.555,235.27" style="fill:none;stroke:#000000;stroke-width:0.5" />
<path d="M51.555,377.86L59.555,377.86" style="fill:none;stroke:#000000;stroke-width:0.5" />
<path d="M55.555,163.98L59.555,163.98" style="fill:none;stroke:#000000;stroke-width:0.5" />
<path d="M55.555,306.57L59.555,306.57" style="fill:none;stroke:#000000;stroke-width:0.5" />
<path d="M59.555,45.151L59.555,416.58" style="fill:none;stroke:#000000;stroke-width:0.5" />
<path d="M65.305,416.58L94.788,48.493L98.634,55.551L99.916,51.963L102.48,62.533L105.04,62.902L106.33,51.82L107.61,83.333L108.89,83.539L110.17,55.577L112.73,82.988L114.02,54.971L115.3,62.417L116.58,115.98L117.86,59.624L119.14,101.3L120.43,62.505L121.71,62.624L122.99,55.969L124.27,48.419L126.84,48.395L128.12,55.594L129.4,55.627L130.68,62.93L131.96,45.275L133.24,66.573L134.53,55.42L135.81,52.749L137.09,67.139L138.37,60.233L139.65,49.339L140.94,88.644L142.22,48.003L143.5,88.468L144.78,89.293L146.06,73.646L147.35,48.628L148.63,48.961L149.91,51.575L151.19,51.718L152.47,51.884L153.76,52.302L155.04,51.796L156.32,67.588L157.6,52.093L158.88,65.428L160.16,63.748L161.45,57.165L162.73,56.342L164.01,65.841L165.29,53.134L166.57,57.291L167.86,55.82L169.14,61.293L170.42,61.868L171.7,55.946L172.98,56.863L174.27,56.302L175.55,55.285L176.83,55.023L178.11,56.823L179.39,54.006L180.67,59.986L181.96,58.056L183.24,58.291L184.52,63.013L185.8,59.822L187.08,62.75L188.37,66.162L189.65,57.792L190.93,58.826L192.21,63.705L193.49,57.652L194.78,64.903L196.06,61.961L197.34,62.795L198.62,60.368L199.9,58.191L201.19,54.886L202.47,54.232L203.75,53.928L205.03,52.124L206.31,55.67L207.59,55.653L208.88,57.022L210.16,57.124L211.44,57.158L212.72,58.324L214,57.046L215.29,55.855L216.57,55.717L217.85,55.047L219.13,56.017L220.41,56.582L221.7,54.955L222.98,55.839L224.26,55.378L225.54,54.94L226.82,52.621L228.1,52.851L229.39,52.668L230.67,52.395L231.95,54.919L233.23,52.302L234.51,55.016L235.8,54.879L237.08,54.864L238.36,54.945L239.64,55.744L240.92,53.498L242.21,54.28L243.49,53.479L244.77,53.331L246.05,52.721L247.33,52.956L248.62,53.137L249.9,53.341L251.18,52.445L252.46,52.172L253.74,52.153L255.02,52.062L256.31,51.898L257.59,51.913L258.87,51.827L260.15,52.516L261.43,51.998L262.72,52.509L264,52.367L265.28,52.103L266.56,51.834L267.84,52.15L269.13,51.34L270.41,51.285L271.69,51.083L272.97,51.017L274.25,50.957L275.53,50.981L276.82,50.72L278.1,50.406L279.38,50.442L280.66,49.743L281.94,50.375L283.23,50.071L284.51,49.543L285.79,50.327L287.07,50.182L288.35,50.382L289.64,50.004L290.92,50.159L292.2,49.912L293.48,49.731L294.76,49.282L296.04,49.139L297.33,49.096L298.61,48.928L299.89,48.975L301.17,49.092L302.45,48.642L303.74,48.923L305.02,48.669L306.3,48.545L307.58,48.666L308.86,48.495L310.15,48.5L311.43,48.735L312.71,48.464L313.99,48.374L315.27,48.471L316.56,48.457L317.84,48.274L319.12,48.229L320.4,48.212L321.68,47.987L322.96,47.87L324.25,47.69L325.53,47.894L326.81,47.782L328.09,47.906L329.37,47.642L330.66,47.728L331.94,47.533L333.22,47.49L334.5,47.518L335.78,47.495L337.07,47.426L338.35,47.359L339.63,47.407L340.91,47.307L342.19,47.271L343.47,47.29L344.76,47.029L346.04,47.083L347.32,47.057L348.6,46.967L349.88,46.915L351.17,46.939L352.45,46.834L353.73,46.862L355.01,46.753L356.29,46.729L357.58,46.786L358.86,46.708L360.14,46.668L361.42,46.67L362.7,46.599L363.99,46.475L365.27,46.544L366.55,46.542L367.83,46.435L369.11,46.309L370.39,46.304L371.68,46.404L372.96,46.366L374.24,46.28L375.52,46.34L376.8,46.157L378.09,46.228L379.37,46.145L380.65,46.157L381.93,46.111L383.21,46.154L384.5,46.121L385.78,46.057L387.06,46.002L388.34,46.095L389.62,46.078L390.9,45.997L392.19,46.009L393.47,45.924L394.75,46.002L396.03,45.931L397.31,45.919L398.6,45.898L399.88,45.869L401.16,45.85L402.44,45.779L403.72,45.738L405.01,45.712L406.29,45.71L407.57,45.736L408.85,45.736L410.13,45.76L411.42,45.662L412.7,45.617L413.98,45.665L415.26,45.639L416.54,45.662L417.82,45.582L419.11,45.65L420.39,45.631L421.67,45.555L422.95,45.617L424.23,45.534L425.52,45.524L426.8,45.465L428.08,45.501L429.36,45.539L430.64,45.498L431.93,45.57L433.21,45.425L434.49,45.456L435.77,45.429L437.05,45.491L438.33,45.41L439.62,45.451L440.9,45.422L442.18,45.439L443.46,45.418L444.74,45.375L446.03,45.451L447.31,45.427L448.59,45.408L449.87,45.42L451.15,45.377L452.44,45.365L453.72,45.377L455,45.375L456.28,45.368L457.56,45.363L458.85,45.334L460.13,45.389L461.41,45.356L462.69,45.349L463.97,45.301L465.25,45.299L466.54,45.261L467.82,45.296L469.1,45.311L470.38,45.289L471.66,45.275L472.95,45.292L474.23,45.265L475.51,45.275L476.79,45.294L478.07,45.273L479.36,45.263L480.64,45.275L481.92,45.246L483.2,45.27L484.48,45.261L485.76,45.235L487.05,45.23L488.33,45.239L489.61,45.223L490.89,45.211L492.17,45.232L493.46,45.244L494.74,45.216L496.02,45.237L497.3,45.235L498.58,45.239L499.87,45.244L501.15,45.201L502.43,45.201L503.71,45.235L504.99,45.227L506.28,45.211L507.56,45.23L508.84,45.204L510.12,45.201L511.4,45.211L512.68,45.211L513.97,45.197L515.25,45.192L516.53,45.216L517.81,45.189L519.09,45.197L520.38,45.197L521.66,45.192L522.94,45.178L524.22,45.175L525.5,45.197L526.79,45.199L528.07,45.197L529.35,45.192L530.63,45.185L531.91,45.175L533.19,45.182L534.48,45.17L535.76,45.185L537.04,45.175L538.32,45.168L539.6,45.163L540.89,45.192L542.17,45.166L543.45,45.168L544.73,45.163L546.01,45.166L547.3,45.168L548.58,45.168L549.86,45.166L551.14,45.175L552.42,45.173L553.71,45.166L554.99,45.173L556.27,45.158L557.55,45.166L558.83,45.163L560.11,45.178L561.4,45.168L562.68,45.175L563.96,45.158L565.24,45.163L566.52,45.156L567.81,45.163L569.09,45.158L570.37,45.151L571.65,45.163L572.93,45.156L574.22,45.161L575.5,45.168L576.78,45.158L578.06,45.154L579.34,45.161L580.62,45.161L581.91,45.163L583.19,45.154L584.47,45.156L585.75,45.154L587.03,45.158L588.32,45.156L589.6,45.154L590.88,45.151L592.16,45.151L593.44,45.151L594.73,45.156L596.01,45.154L597.29,45.156L598.57,45.156L601.13,45.151L602.42,45.156L603.7,45.158L604.98,45.156L606.26,45.151L607.54,45.156L608.83,45.151L610.11,45.161L611.39,45.151L612.67,45.151L613.95,45.156L615.24,45.151L616.52,45.156L617.8,45.154L620.36,45.154L622.93,45.154L624.21,45.154L626.77,45.154L628.05,45.151L629.34,45.156L630.62,45.154L631.9,45.151L633.18,45.151L635.75,45.151L637.03,45.151L638.31,45.154L640.87,45.151L642.16,45.154L643.44,45.154L646,45.151L647.28,45.151L648.56,45.151L649.85,45.151L651.13,45.151L658.82,45.154L661.38,45.151L662.67,45.154L665.23,45.151L671.64,45.151L678.05,45.151L683.18,45.151L687.02,45.151L706.25,45.151" style="fill:none;stroke:#0000FF" />
</g>
</svg>
