<?xml version="1.0"?>
<!-- Generated by SVGo and Plotinum VG -->
<svg width="720pt" height="432pt" viewBox="0 0 720 432"
	xmlns="http://www.w3.org/2000/svg"
	xmlns:xlink="http://www.w3.org/1999/xlink">
<g transform="scale(1, -1) translate(0, -432)">
<path d="M0,0L720,0L720,432L0,432Z" style="fill:#FFFFFF" />
<text x="358.5" y="-420.45" transform="scale(1, -1)"
	style="font-family:Times;font-weight:normal;font-style:normal;font-size:12px"> </text>
<text x="379.31" y="-3.8613" transform="scale(1, -1)"
	style="font-family:Times;font-weight:normal;font-style:normal;font-size:12px">Costs</text>
<text x="56.555" y="-18.634" transform="scale(1, -1)"
	style="font-family:Times;font-weight:normal;font-style:normal;font-size:10px">0.00</text>
<text x="371.23" y="-18.634" transform="scale(1, -1)"
	style="font-family:Times;font-weight:normal;font-style:normal;font-size:10px">250.00</text>
<text x="690.91" y="-18.634" transform="scale(1, -1)"
	style="font-family:Times;font-weight:normal;font-style:normal;font-size:10px">500.00</text>
<path d="M65.305,28.263L65.305,36.263" style="fill:none;stroke:#000000;stroke-width:0.5" />
<path d="M384.98,28.263L384.98,36.263" style="fill:none;stroke:#000000;stroke-width:0.5" />
<path d="M704.66,28.263L704.66,36.263" style="fill:none;stroke:#000000;stroke-width:0.5" />
<path d="M129.24,32.263L129.24,36.263" style="fill:none;stroke:#000000;stroke-width:0.5" />
<path d="M193.17,32.263L193.17,36.263" style="fill:none;stroke:#000000;stroke-width:0.5" />
<path d="M257.11,32.263L257.11,36.263" style="fill:none;stroke:#000000;stroke-width:0.5" />
<path d="M321.05,32.263L321.05,36.263" style="fill:none;stroke:#000000;stroke-width:0.5" />
<path d="M448.92,32.263L448.92,36.263" style="fill:none;stroke:#000000;stroke-width:0.5" />
<path d="M512.85,32.263L512.85,36.263" style="fill:none;stroke:#000000;stroke-width:0.5" />
<path d="M576.79,32.263L576.79,36.263" style="fill:none;stroke:#000000;stroke-width:0.5" />
<path d="M640.72,32.263L640.72,36.263" style="fill:none;stroke:#000000;stroke-width:0.5" />
<path d="M65.305,36.263L720,36.263" style="fill:none;stroke:#000000;stroke-width:0.5" />
<g transform="rotate(90)">
<text x="152.55" y="11.555" transform="scale(1, -1)"
	style="font-family:Times;font-weight:normal;font-style:normal;font-size:12px">Number of trials (1000000 total)</text>
</g>
<text x="24.055" y="-106.79" transform="scale(1, -1)"
	style="font-family:Times;font-weight:normal;font-style:normal;font-size:10px">20000</text>
<text x="24.055" y="-236.47" transform="scale(1, -1)"
	style="font-family:Times;font-weight:normal;font-style:normal;font-size:10px">60000</text>
<text x="19.055" y="-366.16" transform="scale(1, -1)"
	style="font-family:Times;font-weight:normal;font-style:normal;font-size:10px">100000</text>
<path d="M51.555,109.99L59.555,109.99" style="fill:none;stroke:#000000;stroke-width:0.5" />
<path d="M51.555,239.68L59.555,239.68" style="fill:none;stroke:#000000;stroke-width:0.5" />
<path d="M51.555,369.37L59.555,369.37" style="fill:none;stroke:#000000;stroke-width:0.5" />
<path d="M55.555,77.57L59.555,77.57" style="fill:none;stroke:#000000;stroke-width:0.5" />
<path d="M55.555,142.41L59.555,142.41" style="fill:none;stroke:#000000;stroke-width:0.5" />
<path d="M55.555,174.83L59.555,174.83" style="fill:none;stroke:#000000;stroke-width:0.5" />
<path d="M55.555,207.26L59.555,207.26" style="fill:none;stroke:#000000;stroke-width:0.5" />
<path d="M55.555,272.1L59.555,272.1" style="fill:none;stroke:#000000;stroke-width:0.5" />
<path d="M55.555,304.52L59.555,304.52" style="fill:none;stroke:#000000;stroke-width:0.5" />
<path d="M55.555,336.94L59.555,336.94" style="fill:none;stroke:#000000;stroke-width:0.5" />
<path d="M55.555,401.79L59.555,401.79" style="fill:none;stroke:#000000;stroke-width:0.5" />
<path d="M59.555,45.151L59.555,416.58" style="fill:none;stroke:#000000;stroke-width:0.5" />
<path d="M65.305,416.58L95.994,48.656L98.551,70.966L99.83,64.368L101.11,75.342L102.39,48.423L104.94,90.568L106.22,55.536L108.78,119.75L110.06,71.653L111.34,55.26L112.62,52.42L113.9,78.293L115.17,63.012L116.45,59.158L117.73,59.855L119.01,87.351L120.29,48.617L121.57,131.6L122.85,56.052L124.12,86.236L126.68,48.585L127.96,64.387L129.24,87.131L130.52,59.222L131.8,45.939L133.08,56.826L134.35,87.572L135.63,47.366L136.91,91.21L138.19,48.419L139.47,52.158L140.75,63.791L142.03,114.58L143.31,54.135L144.58,66.232L145.86,53.474L147.14,49.318L148.42,57.87L149.7,55.63L150.98,50.926L152.26,56.651L153.54,58.13L154.81,60.386L156.09,55.403L157.37,64.533L158.65,63.959L159.93,94.244L161.21,62.578L162.49,62.662L163.76,61.297L165.04,69.87L166.32,58.895L167.6,66.508L168.88,72.544L170.16,65.755L171.44,60.273L172.72,70.187L173.99,64.611L175.27,65.979L176.55,64.634L177.83,78.594L179.11,58.094L180.39,71.65L181.67,65.071L182.95,61.032L184.22,60.056L185.5,77.803L186.78,63.661L188.06,63.213L189.34,57.763L190.62,69.455L191.9,57.974L193.17,72.139L194.45,58.969L195.73,66.128L197.01,58.036L198.29,71.997L199.57,63.084L200.85,66.919L202.13,56.467L203.4,62.64L204.68,61.78L205.96,65.639L207.24,56.71L208.52,59.832L209.8,59.31L211.08,63.272L212.36,59.929L213.63,68.401L214.91,55.99L216.19,65.334L217.47,60.318L218.75,59.647L220.03,56.839L221.31,59.923L222.59,59.089L223.86,60.827L225.14,60.451L226.42,57.575L227.7,57.844L228.98,62.075L230.26,57.783L231.54,61.933L232.81,57.994L234.09,60.548L235.37,58.564L236.65,64.802L237.93,58.804L239.21,58.957L240.49,58.626L241.77,59.342L243.04,56.58L244.32,59.06L245.6,58.042L246.88,58.165L248.16,56.505L249.44,59.573L250.72,55.565L252,56.781L253.27,55.698L254.55,57.54L255.83,55.286L257.11,58.062L258.39,54.768L259.67,55.977L260.95,55.056L262.22,56.82L263.5,55.637L264.78,56.1L266.06,53.98L267.34,55.906L268.62,54.414L269.9,56.337L271.18,53.86L272.45,55.144L273.73,53.526L275.01,54.252L276.29,54.077L277.57,53.908L278.85,53.147L280.13,54.593L281.41,53.912L282.68,53.575L283.96,52.592L285.24,53.698L286.52,52.365L287.8,53.033L289.08,52.975L290.36,52.767L291.63,52.086L292.91,53.292L294.19,52.411L295.47,52.193L296.75,52.041L298.03,51.467L299.31,51.681L300.59,52.43L301.86,51.509L303.14,51.357L304.42,51.286L305.7,51.72L306.98,51.072L308.26,51.616L309.54,50.809L310.82,50.504L312.09,50.764L313.37,50.657L314.65,50.365L315.93,50.475L317.21,50.196L318.49,50.141L319.77,50.423L321.05,49.966L322.32,49.603L323.6,49.603L324.88,49.716L326.16,49.697L327.44,49.454L328.72,49.564L330,49.162L331.27,49.032L332.55,49.237L333.83,49.237L335.11,49.013L336.39,48.779L337.67,49.032L338.95,48.906L340.23,48.98L341.5,48.899L342.78,48.595L344.06,48.526L345.34,48.322L346.62,48.403L347.9,48.225L349.18,48.39L350.46,48.257L351.73,48.118L353.01,48.098L354.29,48.04L355.57,48.047L356.85,48.137L358.13,47.726L359.41,47.7L360.68,47.82L361.96,47.564L363.24,47.528L364.52,47.551L365.8,47.233L367.08,47.132L368.36,47.46L369.64,47.162L370.91,47.301L372.19,47.275L373.47,47.213L374.75,46.993L376.03,46.909L377.31,46.896L378.59,47.074L379.87,46.821L381.14,47.009L382.42,46.717L383.7,46.837L384.98,46.73L386.26,46.649L387.54,46.617L388.82,46.604L390.09,46.565L391.37,46.526L392.65,46.607L393.93,46.526L395.21,46.49L396.49,46.468L397.77,46.354L399.05,46.299L400.32,46.344L401.6,46.341L402.88,46.118L404.16,46.221L405.44,46.179L406.72,46.189L408,46.105L409.28,46.14L410.55,46.098L411.83,46.153L413.11,46.043L414.39,46.046L415.67,46.033L416.95,45.998L418.23,45.965L419.51,46.007L420.78,45.978L422.06,45.917L423.34,45.835L424.62,45.904L425.9,45.842L427.18,45.751L428.46,45.8L429.73,45.822L431.01,45.777L432.29,45.758L433.57,45.732L434.85,45.651L436.13,45.79L437.41,45.641L438.69,45.625L439.96,45.618L441.24,45.628L442.52,45.634L443.8,45.544L445.08,45.634L446.36,45.641L447.64,45.605L448.92,45.553L450.19,45.55L451.47,45.489L452.75,45.514L454.03,45.498L455.31,45.482L456.59,45.521L457.87,45.534L459.14,45.521L460.42,45.45L461.7,45.472L462.98,45.511L464.26,45.469L465.54,45.407L466.82,45.437L468.1,45.433L469.37,45.424L470.65,45.443L471.93,45.359L473.21,45.382L474.49,45.365L475.77,45.365L477.05,45.359L478.33,45.356L479.6,45.401L480.88,45.375L482.16,45.388L483.44,45.333L484.72,45.333L486,45.336L487.28,45.291L488.55,45.291L489.83,45.317L491.11,45.304L492.39,45.265L493.67,45.307L494.95,45.288L496.23,45.313L497.51,45.258L498.78,45.333L500.06,45.252L501.34,45.304L502.62,45.265L503.9,45.258L505.18,45.255L506.46,45.242L507.74,45.239L509.01,45.258L510.29,45.239L511.57,45.255L512.85,45.242L514.13,45.213L515.41,45.219L516.69,45.206L517.97,45.226L519.24,45.194L520.52,45.203L521.8,45.245L523.08,45.236L524.36,45.223L525.64,45.226L526.92,45.239L528.19,45.236L529.47,45.236L530.75,45.226L532.03,45.226L533.31,45.2L534.59,45.187L535.87,45.197L537.15,45.2L538.42,45.187L539.7,45.2L540.98,45.194L542.26,45.184L543.54,45.197L544.82,45.187L546.1,45.164L547.38,45.19L548.65,45.171L549.93,45.174L551.21,45.181L552.49,45.194L553.77,45.161L555.05,45.184L556.33,45.197L557.6,45.181L558.88,45.177L560.16,45.177L561.44,45.184L562.72,45.164L564,45.174L565.28,45.171L566.56,45.161L567.83,45.194L569.11,45.164L570.39,45.158L571.67,45.158L572.95,45.168L574.23,45.158L575.51,45.171L576.79,45.171L578.06,45.161L579.34,45.164L580.62,45.158L581.9,45.158L584.46,45.168L585.74,45.158L587.02,45.161L588.29,45.155L589.57,45.158L592.13,45.151L593.41,45.155L594.69,45.151L595.97,45.168L597.24,45.161L598.52,45.161L599.8,45.155L601.08,45.161L602.36,45.161L603.64,45.158L607.47,45.155L608.75,45.158L610.03,45.151L611.31,45.155L612.59,45.155L613.87,45.161L615.15,45.151L616.43,45.151L617.7,45.151L618.98,45.158L622.82,45.151L626.65,45.151L627.93,45.151L629.21,45.151L631.77,45.155L634.33,45.155L636.88,45.151L638.16,45.151L639.44,45.151L642,45.158L643.28,45.151L644.56,45.151L645.84,45.155L652.23,45.151L654.79,45.151L656.06,45.151L668.85,45.151L676.52,45.151L682.92,45.151L686.75,45.151L688.03,45.151L689.31,45.151L691.87,45.158L709.77,45.151L716.16,45.151L720,45.151" style="fill:none;stroke:#0000FF" />
</g>
</svg>
