<?xml version="1.0"?>
<!-- Generated by SVGo and Plotinum VG -->
<svg width="720pt" height="432pt" viewBox="0 0 720 432"
	xmlns="http://www.w3.org/2000/svg"
	xmlns:xlink="http://www.w3.org/1999/xlink">
<g transform="scale(1, -1) translate(0, -432)">
<path d="M0,0L720,0L720,432L0,432Z" style="fill:#FFFFFF" />
<text x="358.5" y="-420.45" transform="scale(1, -1)"
	style="font-family:Times;font-weight:normal;font-style:normal;font-size:12px"> </text>
<text x="379.31" y="-3.8613" transform="scale(1, -1)"
	style="font-family:Times;font-weight:normal;font-style:normal;font-size:12px">Costs</text>
<text x="56.555" y="-18.634" transform="scale(1, -1)"
	style="font-family:Times;font-weight:normal;font-style:normal;font-size:10px">0.00</text>
<text x="332.78" y="-18.634" transform="scale(1, -1)"
	style="font-family:Times;font-weight:normal;font-style:normal;font-size:10px">250.00</text>
<text x="614.01" y="-18.634" transform="scale(1, -1)"
	style="font-family:Times;font-weight:normal;font-style:normal;font-size:10px">500.00</text>
<path d="M65.305,28.263L65.305,36.263" style="fill:none;stroke:#000000;stroke-width:0.5" />
<path d="M346.53,28.263L346.53,36.263" style="fill:none;stroke:#000000;stroke-width:0.5" />
<path d="M627.76,28.263L627.76,36.263" style="fill:none;stroke:#000000;stroke-width:0.5" />
<path d="M121.55,32.263L121.55,36.263" style="fill:none;stroke:#000000;stroke-width:0.5" />
<path d="M177.8,32.263L177.8,36.263" style="fill:none;stroke:#000000;stroke-width:0.5" />
<path d="M234.04,32.263L234.04,36.263" style="fill:none;stroke:#000000;stroke-width:0.5" />
<path d="M290.29,32.263L290.29,36.263" style="fill:none;stroke:#000000;stroke-width:0.5" />
<path d="M402.78,32.263L402.78,36.263" style="fill:none;stroke:#000000;stroke-width:0.5" />
<path d="M459.02,32.263L459.02,36.263" style="fill:none;stroke:#000000;stroke-width:0.5" />
<path d="M515.27,32.263L515.27,36.263" style="fill:none;stroke:#000000;stroke-width:0.5" />
<path d="M571.51,32.263L571.51,36.263" style="fill:none;stroke:#000000;stroke-width:0.5" />
<path d="M684,32.263L684,36.263" style="fill:none;stroke:#000000;stroke-width:0.5" />
<path d="M65.305,36.263L720,36.263" style="fill:none;stroke:#000000;stroke-width:0.5" />
<g transform="rotate(90)">
<text x="152.55" y="11.555" transform="scale(1, -1)"
	style="font-family:Times;font-weight:normal;font-style:normal;font-size:12px">Number of trials (1000000 total)</text>
</g>
<text x="24.055" y="-107" transform="scale(1, -1)"
	style="font-family:Times;font-weight:normal;font-style:normal;font-size:10px">20000</text>
<text x="24.055" y="-237.12" transform="scale(1, -1)"
	style="font-family:Times;font-weight:normal;font-style:normal;font-size:10px">60000</text>
<text x="19.055" y="-367.23" transform="scale(1, -1)"
	style="font-family:Times;font-weight:normal;font-style:normal;font-size:10px">100000</text>
<path d="M51.555,110.21L59.555,110.21" style="fill:none;stroke:#000000;stroke-width:0.5" />
<path d="M51.555,240.32L59.555,240.32" style="fill:none;stroke:#000000;stroke-width:0.5" />
<path d="M51.555,370.44L59.555,370.44" style="fill:none;stroke:#000000;stroke-width:0.5" />
<path d="M55.555,77.677L59.555,77.677" style="fill:none;stroke:#000000;stroke-width:0.5" />
<path d="M55.555,142.74L59.555,142.74" style="fill:none;stroke:#000000;stroke-width:0.5" />
<path d="M55.555,175.26L59.555,175.26" style="fill:none;stroke:#000000;stroke-width:0.5" />
<path d="M55.555,207.79L59.555,207.79" style="fill:none;stroke:#000000;stroke-width:0.5" />
<path d="M55.555,272.85L59.555,272.85" style="fill:none;stroke:#000000;stroke-width:0.5" />
<path d="M55.555,305.38L59.555,305.38" style="fill:none;stroke:#000000;stroke-width:0.5" />
<path d="M55.555,337.91L59.555,337.91" style="fill:none;stroke:#000000;stroke-width:0.5" />
<path d="M55.555,402.97L59.555,402.97" style="fill:none;stroke:#000000;stroke-width:0.5" />
<path d="M59.555,45.151L59.555,416.58" style="fill:none;stroke:#000000;stroke-width:0.5" />
<path d="M65.305,416.58L92.302,59.032L94.552,55.658L95.677,62.281L96.802,51.712L97.927,65.648L100.18,88.122L101.3,58.775L102.43,87.95L103.55,94.091L104.68,55.365L105.8,62.294L106.93,48.476L108.05,59.354L109.18,61.995L110.3,55.792L111.43,101.37L112.55,65.729L113.68,84.196L114.8,80.143L115.93,62.327L117.05,66.682L119.3,59.012L120.43,99.023L121.55,70.013L122.67,53.212L123.8,45.402L124.92,77.739L126.05,66.588L127.17,54.699L128.3,75.114L129.42,51.768L130.55,56.524L131.67,69.317L132.8,69.965L133.92,63.986L135.05,58.404L136.17,68.696L137.3,52.031L138.42,56.813L139.55,51.765L140.67,71.516L141.8,55.372L142.92,54.416L144.05,57.763L145.17,53.531L146.3,60.938L147.42,72.339L148.55,76.402L149.67,64.971L150.8,61.136L151.92,65.31L153.05,60.177L154.17,59.786L155.3,71.149L156.42,77.414L157.55,66.341L158.67,66.201L159.8,66.562L160.92,65.576L162.05,61.546L163.17,70.134L164.3,62.141L165.42,64.262L166.55,67.473L167.67,63.582L168.8,65.508L169.92,63.999L171.05,67.486L172.17,62.668L173.3,61.23L174.42,64.077L175.55,62.346L176.67,63.241L177.8,61.178L178.92,60.759L180.05,64.314L181.17,62.457L182.29,63.293L183.42,62.974L184.54,61.52L185.67,62.411L186.79,63.28L187.92,62.369L189.04,60.235L190.17,59.367L191.29,62.226L192.42,60.622L193.54,62.154L194.67,62.467L195.79,63.361L196.92,61.374L198.04,59.412L199.17,59.653L200.29,58.901L201.42,60.177L202.54,62.496L203.67,62.932L204.79,60.186L205.92,59.103L207.04,59.695L208.17,60.066L209.29,59.009L210.42,59.607L211.54,61.419L212.67,58.579L213.79,58.456L214.92,59.858L216.04,59.728L217.17,59.168L218.29,59.386L219.42,58.84L220.54,57.75L221.67,57.792L222.79,59.054L223.92,58.703L225.04,56.911L226.17,58.101L227.29,57.516L228.42,56.624L229.54,56.543L230.67,57.584L231.79,57.812L232.92,56.53L234.04,56.429L235.17,56.208L236.29,55.801L237.42,56.497L238.54,56.823L239.67,56.065L240.79,55.671L241.91,55.811L243.04,55.756L244.16,54.816L245.29,55.33L246.41,55.509L247.54,54.513L248.66,54.695L249.79,55.056L250.91,54.549L252.04,54.321L253.16,54.5L254.29,54.204L255.41,53.71L256.54,53.863L257.66,54.233L258.79,53.729L259.91,53.612L261.04,53.352L262.16,53.443L263.29,53.088L264.41,52.945L265.54,52.923L266.66,52.75L267.79,52.737L268.91,52.425L270.04,52.448L271.16,52.584L272.29,52.37L273.41,52.304L274.54,51.862L275.66,51.908L276.79,51.82L277.91,51.699L279.04,51.566L280.16,51.429L281.29,50.922L282.41,51.081L283.54,51.153L284.66,50.818L285.79,51.273L286.91,51.007L288.04,50.711L289.16,50.402L290.29,50.535L291.41,50.629L292.54,50.31L293.66,50.606L294.79,50.08L295.91,50.086L297.04,50.047L298.16,50.014L299.29,50.122L300.41,49.904L301.53,49.826L302.66,49.546L303.78,49.585L304.91,49.364L306.03,49.435L307.16,49.068L308.28,49.234L309.41,49.26L310.53,48.925L311.66,48.749L312.78,48.912L313.91,48.961L315.03,48.577L316.16,48.769L317.28,48.651L318.41,48.622L319.53,48.401L320.66,48.333L321.78,48.424L322.91,48.408L324.03,48.238L325.16,48.053L326.28,48.183L327.41,48.033L328.53,48.112L329.66,47.981L330.78,47.832L331.91,47.64L333.03,47.724L334.16,47.78L335.28,47.656L336.41,47.695L337.53,47.633L338.66,47.448L339.78,47.461L340.91,47.305L342.03,47.539L343.16,47.354L344.28,47.217L345.41,47.279L346.53,47.129L347.66,47.061L348.78,47.142L349.91,46.879L351.03,46.983L352.16,47.09L353.28,46.94L354.41,46.921L355.53,46.973L356.66,46.765L357.78,46.804L358.91,46.814L360.03,46.823L361.15,46.677L362.28,46.618L363.4,46.573L364.53,46.596L365.65,46.459L366.78,46.531L367.9,46.41L369.03,46.283L370.15,46.296L371.28,46.384L372.4,46.3L373.53,46.316L374.65,46.283L375.78,46.173L376.9,46.335L378.03,46.222L379.15,46.241L380.28,46.16L381.4,46.189L382.53,46.088L383.65,46.163L384.78,46.17L385.9,46.039L387.03,46.013L388.15,46.033L389.28,45.978L390.4,45.965L391.53,45.893L392.65,45.935L393.78,45.916L394.9,45.906L396.03,45.844L397.15,45.844L398.28,45.867L399.4,45.773L400.53,45.799L401.65,45.789L402.78,45.802L403.9,45.773L405.03,45.669L406.15,45.695L407.28,45.646L408.4,45.652L409.53,45.688L410.65,45.737L411.78,45.665L412.9,45.568L414.03,45.61L415.15,45.701L416.28,45.558L417.4,45.633L418.53,45.626L419.65,45.597L420.77,45.545L421.9,45.542L423.02,45.535L424.15,45.516L425.27,45.473L426.4,45.529L427.52,45.499L428.65,45.454L429.77,45.425L430.9,45.509L432.02,45.467L433.15,45.47L434.27,45.49L435.4,45.473L436.52,45.412L437.65,45.46L438.77,45.431L439.9,45.46L441.02,45.353L442.15,45.366L443.27,45.382L444.4,45.395L445.52,45.386L446.65,45.356L447.77,45.353L448.9,45.34L450.02,45.311L451.15,45.33L452.27,45.317L453.4,45.285L454.52,45.343L455.65,45.334L456.77,45.317L457.9,45.308L459.02,45.301L460.15,45.321L461.27,45.288L462.4,45.304L463.52,45.288L464.65,45.281L465.77,45.285L466.9,45.233L468.02,45.259L469.15,45.285L470.27,45.242L471.4,45.242L472.52,45.278L473.65,45.259L474.77,45.252L475.9,45.272L477.02,45.255L478.15,45.22L479.27,45.259L480.4,45.252L481.52,45.239L482.64,45.22L483.77,45.233L484.89,45.216L486.02,45.22L487.14,45.223L488.27,45.216L489.39,45.22L490.52,45.246L491.64,45.22L492.77,45.223L493.89,45.216L495.02,45.22L496.14,45.223L497.27,45.213L498.39,45.19L499.52,45.207L500.64,45.203L501.77,45.207L502.89,45.194L504.02,45.184L505.14,45.203L506.27,45.203L507.39,45.187L508.52,45.197L509.64,45.203L510.77,45.177L511.89,45.181L513.02,45.177L514.14,45.181L515.27,45.19L516.39,45.187L517.52,45.194L518.64,45.168L519.77,45.177L520.89,45.187L522.02,45.177L523.14,45.171L524.27,45.181L525.39,45.161L526.52,45.184L527.64,45.181L528.77,45.171L529.89,45.174L531.02,45.171L532.14,45.181L533.27,45.164L534.39,45.164L535.52,45.158L536.64,45.164L537.77,45.168L538.89,45.164L540.02,45.168L541.14,45.158L542.26,45.171L543.39,45.164L544.51,45.151L545.64,45.171L547.89,45.158L549.01,45.155L550.14,45.158L551.26,45.155L552.39,45.161L553.51,45.168L554.64,45.161L555.76,45.155L556.89,45.155L558.01,45.161L559.14,45.158L560.26,45.158L561.39,45.151L562.51,45.161L563.64,45.155L565.89,45.155L567.01,45.158L568.14,45.155L569.26,45.151L570.39,45.155L571.51,45.155L572.64,45.161L573.76,45.151L574.89,45.155L576.01,45.164L578.26,45.158L579.39,45.155L580.51,45.151L581.64,45.151L582.76,45.151L583.89,45.155L586.14,45.151L587.26,45.155L588.39,45.158L590.64,45.151L592.89,45.155L594.01,45.151L595.14,45.155L597.39,45.151L598.51,45.151L599.64,45.151L600.76,45.151L601.88,45.158L604.13,45.151L606.38,45.151L607.51,45.155L608.63,45.151L609.76,45.151L613.13,45.151L618.76,45.151L626.63,45.151L633.38,45.155L640.13,45.151L650.26,45.151L658.13,45.151L663.75,45.151L670.5,45.151L690.75,45.151L720,45.151" style="fill:none;stroke:#0000FF" />
</g>
</svg>
