<?xml version="1.0"?>
<!-- Generated by SVGo and Plotinum VG -->
<svg width="720pt" height="432pt" viewBox="0 0 720 432"
	xmlns="http://www.w3.org/2000/svg"
	xmlns:xlink="http://www.w3.org/1999/xlink">
<g transform="scale(1, -1) translate(0, -432)">
<path d="M0,0L720,0L720,432L0,432Z" style="fill:#FFFFFF" />
<text x="358.5" y="-420.45" transform="scale(1, -1)"
	style="font-family:Times;font-weight:normal;font-style:normal;font-size:12px"> </text>
<text x="376.81" y="-3.8613" transform="scale(1, -1)"
	style="font-family:Times;font-weight:normal;font-style:normal;font-size:12px">Costs</text>
<text x="51.555" y="-18.634" transform="scale(1, -1)"
	style="font-family:Times;font-weight:normal;font-style:normal;font-size:10px">0.00</text>
<text x="339.49" y="-18.634" transform="scale(1, -1)"
	style="font-family:Times;font-weight:normal;font-style:normal;font-size:10px">250.00</text>
<text x="632.43" y="-18.634" transform="scale(1, -1)"
	style="font-family:Times;font-weight:normal;font-style:normal;font-size:10px">500.00</text>
<path d="M60.305,28.263L60.305,36.263" style="fill:none;stroke:#000000;stroke-width:0.5" />
<path d="M353.24,28.263L353.24,36.263" style="fill:none;stroke:#000000;stroke-width:0.5" />
<path d="M646.18,28.263L646.18,36.263" style="fill:none;stroke:#000000;stroke-width:0.5" />
<path d="M118.89,32.263L118.89,36.263" style="fill:none;stroke:#000000;stroke-width:0.5" />
<path d="M177.48,32.263L177.48,36.263" style="fill:none;stroke:#000000;stroke-width:0.5" />
<path d="M236.07,32.263L236.07,36.263" style="fill:none;stroke:#000000;stroke-width:0.5" />
<path d="M294.65,32.263L294.65,36.263" style="fill:none;stroke:#000000;stroke-width:0.5" />
<path d="M411.83,32.263L411.83,36.263" style="fill:none;stroke:#000000;stroke-width:0.5" />
<path d="M470.42,32.263L470.42,36.263" style="fill:none;stroke:#000000;stroke-width:0.5" />
<path d="M529,32.263L529,36.263" style="fill:none;stroke:#000000;stroke-width:0.5" />
<path d="M587.59,32.263L587.59,36.263" style="fill:none;stroke:#000000;stroke-width:0.5" />
<path d="M704.77,32.263L704.77,36.263" style="fill:none;stroke:#000000;stroke-width:0.5" />
<path d="M60.305,36.263L720,36.263" style="fill:none;stroke:#000000;stroke-width:0.5" />
<g transform="rotate(90)">
<text x="152.55" y="11.555" transform="scale(1, -1)"
	style="font-family:Times;font-weight:normal;font-style:normal;font-size:12px">Number of trials (1000000 total)</text>
</g>
<text x="19.055" y="-84.029" transform="scale(1, -1)"
	style="font-family:Times;font-weight:normal;font-style:normal;font-size:10px">10000</text>
<text x="19.055" y="-210.29" transform="scale(1, -1)"
	style="font-family:Times;font-weight:normal;font-style:normal;font-size:10px">40000</text>
<text x="19.055" y="-336.56" transform="scale(1, -1)"
	style="font-family:Times;font-weight:normal;font-style:normal;font-size:10px">70000</text>
<path d="M46.555,87.235L54.555,87.235" style="fill:none;stroke:#000000;stroke-width:0.5" />
<path d="M46.555,213.5L54.555,213.5" style="fill:none;stroke:#000000;stroke-width:0.5" />
<path d="M46.555,339.76L54.555,339.76" style="fill:none;stroke:#000000;stroke-width:0.5" />
<path d="M50.555,129.32L54.555,129.32" style="fill:none;stroke:#000000;stroke-width:0.5" />
<path d="M50.555,171.41L54.555,171.41" style="fill:none;stroke:#000000;stroke-width:0.5" />
<path d="M50.555,255.59L54.555,255.59" style="fill:none;stroke:#000000;stroke-width:0.5" />
<path d="M50.555,297.67L54.555,297.67" style="fill:none;stroke:#000000;stroke-width:0.5" />
<path d="M50.555,381.85L54.555,381.85" style="fill:none;stroke:#000000;stroke-width:0.5" />
<path d="M54.555,45.151L54.555,416.58" style="fill:none;stroke:#000000;stroke-width:0.5" />
<path d="M60.305,416.58L86.083,56.797L87.255,59.045L90.77,73.767L91.942,73.607L93.114,60.589L94.285,71.427L95.457,56.136L96.629,82.891L97.801,74.684L98.972,68.704L100.14,79.192L101.32,63.737L102.49,56.473L103.66,68.619L104.83,56.321L106,81.806L107.17,81.406L108.35,105.44L109.52,73.805L110.69,86.902L111.86,93.556L113.03,57.348L114.21,56.107L116.55,46.056L117.72,69.722L118.89,84.196L120.06,57.723L121.24,46.991L122.41,89.684L123.58,78.788L124.75,50.265L125.92,68.918L127.09,75.547L128.27,63.199L129.44,64.007L130.61,70.248L131.78,80.152L132.95,81.187L134.12,68.325L135.3,56.928L136.47,57.879L137.64,60.922L138.81,73.363L139.98,62.399L141.16,62.273L142.33,65.147L143.5,77.698L144.67,67.058L145.84,77.757L147.01,70.682L148.19,68.535L149.36,68.527L150.53,76.7L151.7,64.726L152.87,66.321L154.04,69.676L155.22,79.933L156.39,70.724L157.56,74.23L158.73,73.35L159.9,73.758L161.08,66.334L162.25,70.227L163.42,70.084L164.59,68.775L165.76,70.353L166.93,68.194L168.11,68.413L169.28,72.433L170.45,75.084L171.62,69.423L172.79,67.824L173.96,71.094L175.14,68.657L176.31,69.175L177.48,71.069L178.65,68.851L179.82,70.429L180.99,72.883L182.17,70.863L183.34,66.502L184.51,68.582L185.68,68.518L186.85,64.84L188.03,63.325L189.2,68.742L190.37,68.923L191.54,68.531L192.71,67.437L193.88,68.834L195.06,69.419L196.23,67.622L197.4,68.169L198.57,66.78L199.74,65L200.91,66.696L202.09,66.814L203.26,65.488L204.43,66.646L205.6,66.427L206.77,65.16L207.95,64.369L209.12,65.665L210.29,63.767L211.46,63.859L212.63,66.086L213.8,65.568L214.98,63.704L216.15,65.046L217.32,65.943L218.49,64.276L219.66,63.767L220.83,63.632L222.01,64.247L223.18,62.605L224.35,63.072L225.52,62.744L226.69,62.845L227.86,63.535L229.04,63.598L230.21,62.066L231.38,61.747L232.55,62.656L233.72,61.961L234.9,60.989L236.07,61.747L237.24,61.162L238.41,61.162L239.58,60.547L240.75,61.01L241.93,60.539L243.1,60.598L244.27,60.48L245.44,59.853L246.61,59.444L247.78,59.566L248.96,59.537L250.13,58.939L251.3,58.674L252.47,59.023L253.64,58.784L254.82,58.43L255.99,57.858L257.16,57.651L258.33,57.576L259.5,57.361L260.67,57.555L261.85,57.138L263.02,56.843L264.19,57.125L265.36,57.012L266.53,56.751L267.7,56.385L268.88,56.435L270.05,56.002L271.22,55.741L272.39,55.564L273.56,55.783L274.73,55.475L275.91,55.757L277.08,55.147L278.25,54.84L279.42,54.895L280.59,54.625L281.77,54.756L282.94,54.061L284.11,54.558L285.28,53.666L286.45,53.914L287.62,53.699L288.8,53.535L289.97,53.388L291.14,53.598L292.31,52.992L293.48,53.173L294.65,52.816L295.83,52.933L297,52.496L298.17,52.323L299.34,52.538L300.51,51.923L301.69,52.231L302.86,52.34L304.03,51.578L305.2,51.574L306.37,51.957L307.54,51.574L308.72,51.183L309.89,51.233L311.06,51.267L312.23,51.212L313.4,51.023L314.57,51.065L315.75,50.648L316.92,50.85L318.09,50.555L319.26,50.097L320.43,50.105L321.6,50.252L322.78,50.303L323.95,50.008L325.12,50.139L326.29,49.815L327.46,49.507L328.64,49.869L329.81,49.373L330.98,49.604L332.15,49.276L333.32,49.318L334.49,49.167L335.67,49.268L336.84,48.956L338.01,49.289L339.18,48.708L340.35,48.729L341.52,48.657L342.7,48.531L343.87,48.472L345.04,48.363L346.21,48.375L347.38,48.556L348.56,48.401L349.73,48.203L350.9,48.194L352.07,48.266L353.24,47.807L354.41,47.82L355.59,47.727L356.76,48.098L357.93,47.592L359.1,47.744L360.27,47.613L361.44,47.466L362.62,47.529L363.79,47.323L364.96,47.433L366.13,47.365L367.3,47.193L368.47,47.34L369.65,47.273L370.82,47.117L371.99,47.243L373.16,47.273L374.33,47.02L375.51,46.742L376.68,46.923L377.85,46.805L379.02,46.856L380.19,46.814L381.36,46.789L382.54,46.633L383.71,46.843L384.88,46.721L386.05,46.759L387.22,46.688L388.39,46.595L389.57,46.486L390.74,46.486L391.91,46.616L393.08,46.452L394.25,46.326L395.43,46.372L396.6,46.448L397.77,46.406L398.94,46.284L400.11,46.187L401.28,46.241L402.46,46.292L403.63,46.178L404.8,46.204L405.97,46.073L407.14,46.069L408.31,46.048L409.49,46.098L410.66,46.018L411.83,45.968L413,46.006L414.17,45.951L415.34,45.892L416.52,45.829L417.69,45.85L418.86,45.985L420.03,45.896L421.2,45.858L422.38,45.77L423.55,45.787L424.72,45.774L425.89,45.778L427.06,45.85L428.23,45.699L429.41,45.787L430.58,45.724L431.75,45.673L432.92,45.677L434.09,45.72L435.26,45.682L436.44,45.648L437.61,45.69L438.78,45.602L439.95,45.635L441.12,45.576L442.3,45.661L443.47,45.547L444.64,45.576L445.81,45.522L446.98,45.555L448.15,45.513L449.33,45.555L450.5,45.484L451.67,45.484L452.84,45.551L454.01,45.475L455.18,45.459L456.36,45.463L457.53,45.45L458.7,45.379L459.87,45.442L461.04,45.429L462.21,45.379L463.39,45.4L464.56,45.395L465.73,45.337L466.9,45.395L468.07,45.337L469.25,45.337L470.42,45.37L471.59,45.353L472.76,45.349L473.93,45.299L475.1,45.269L476.28,45.332L477.45,45.303L478.62,45.349L479.79,45.353L480.96,45.269L482.13,45.278L483.31,45.32L484.48,45.366L485.65,45.265L486.82,45.311L487.99,45.294L489.17,45.248L490.34,45.24L491.51,45.24L492.68,45.29L493.85,45.252L495.02,45.24L496.2,45.236L497.37,45.244L498.54,45.261L499.71,45.248L500.88,45.261L502.05,45.227L503.23,45.227L504.4,45.21L505.57,45.236L506.74,45.227L507.91,45.219L509.08,45.214L510.26,45.202L511.43,45.248L512.6,45.177L513.77,45.214L514.94,45.219L516.12,45.227L517.29,45.219L518.46,45.202L519.63,45.198L520.8,45.193L521.97,45.185L523.15,45.206L524.32,45.193L525.49,45.177L526.66,45.198L527.83,45.206L529,45.193L530.18,45.206L531.35,45.193L532.52,45.181L533.69,45.172L534.86,45.189L536.04,45.168L537.21,45.189L538.38,45.185L539.55,45.177L540.72,45.177L541.89,45.181L543.07,45.177L544.24,45.181L545.41,45.168L546.58,45.172L547.75,45.168L548.92,45.177L550.1,45.172L551.27,45.16L552.44,45.156L553.61,45.164L554.78,45.16L555.95,45.156L557.13,45.164L558.3,45.164L559.47,45.151L560.64,45.156L561.81,45.172L562.99,45.172L564.16,45.156L565.33,45.16L566.5,45.151L567.67,45.151L568.84,45.151L570.02,45.16L571.19,45.177L572.36,45.16L573.53,45.16L574.7,45.172L575.87,45.151L577.05,45.16L578.22,45.151L579.39,45.164L580.56,45.16L581.73,45.156L582.91,45.151L584.08,45.151L585.25,45.151L586.42,45.156L587.59,45.156L588.76,45.156L589.94,45.156L591.11,45.156L592.28,45.151L593.45,45.151L594.62,45.151L598.14,45.151L600.48,45.16L601.65,45.151L602.82,45.156L604,45.151L606.34,45.151L607.51,45.156L608.68,45.151L609.86,45.16L612.2,45.156L616.89,45.151L618.06,45.151L620.4,45.156L621.57,45.151L622.74,45.151L626.26,45.151L628.6,45.156L630.95,45.151L632.12,45.151L634.46,45.151L635.63,45.156L639.15,45.151L642.66,45.151L647.35,45.151L650.87,45.156L653.21,45.151L654.38,45.151L655.55,45.151L720,45.151" style="fill:none;stroke:#0000FF" />
</g>
</svg>
