<?xml version="1.0"?>
<!-- Generated by SVGo and Plotinum VG -->
<svg width="720pt" height="432pt" viewBox="0 0 720 432"
	xmlns="http://www.w3.org/2000/svg"
	xmlns:xlink="http://www.w3.org/1999/xlink">
<g transform="scale(1, -1) translate(0, -432)">
<path d="M0,0L720,0L720,432L0,432Z" style="fill:#FFFFFF" />
<text x="358.5" y="-420.45" transform="scale(1, -1)"
	style="font-family:Times;font-weight:normal;font-style:normal;font-size:12px"> </text>
<text x="385.56" y="-3.8613" transform="scale(1, -1)"
	style="font-family:Times;font-weight:normal;font-style:normal;font-size:12px">Costs</text>
<text x="69.055" y="-18.634" transform="scale(1, -1)"
	style="font-family:Times;font-weight:normal;font-style:normal;font-size:10px">0.00</text>
<text x="342.3" y="-18.634" transform="scale(1, -1)"
	style="font-family:Times;font-weight:normal;font-style:normal;font-size:10px">250.00</text>
<text x="620.55" y="-18.634" transform="scale(1, -1)"
	style="font-family:Times;font-weight:normal;font-style:normal;font-size:10px">500.00</text>
<path d="M77.805,28.263L77.805,36.263" style="fill:none;stroke:#000000;stroke-width:0.5" />
<path d="M356.05,28.263L356.05,36.263" style="fill:none;stroke:#000000;stroke-width:0.5" />
<path d="M634.3,28.263L634.3,36.263" style="fill:none;stroke:#000000;stroke-width:0.5" />
<path d="M133.45,32.263L133.45,36.263" style="fill:none;stroke:#000000;stroke-width:0.5" />
<path d="M189.1,32.263L189.1,36.263" style="fill:none;stroke:#000000;stroke-width:0.5" />
<path d="M244.75,32.263L244.75,36.263" style="fill:none;stroke:#000000;stroke-width:0.5" />
<path d="M300.4,32.263L300.4,36.263" style="fill:none;stroke:#000000;stroke-width:0.5" />
<path d="M411.7,32.263L411.7,36.263" style="fill:none;stroke:#000000;stroke-width:0.5" />
<path d="M467.35,32.263L467.35,36.263" style="fill:none;stroke:#000000;stroke-width:0.5" />
<path d="M523,32.263L523,36.263" style="fill:none;stroke:#000000;stroke-width:0.5" />
<path d="M578.65,32.263L578.65,36.263" style="fill:none;stroke:#000000;stroke-width:0.5" />
<path d="M689.95,32.263L689.95,36.263" style="fill:none;stroke:#000000;stroke-width:0.5" />
<path d="M77.805,36.263L720,36.263" style="fill:none;stroke:#000000;stroke-width:0.5" />
<g transform="rotate(90)">
<text x="152.55" y="11.555" transform="scale(1, -1)"
	style="font-family:Times;font-weight:normal;font-style:normal;font-size:12px">Number of trials (1000000 total)</text>
</g>
<text x="24.055" y="-112.75" transform="scale(1, -1)"
	style="font-family:Times;font-weight:normal;font-style:normal;font-size:10px">25000.00</text>
<text x="24.055" y="-254.36" transform="scale(1, -1)"
	style="font-family:Times;font-weight:normal;font-style:normal;font-size:10px">75000.00</text>
<text x="19.055" y="-395.96" transform="scale(1, -1)"
	style="font-family:Times;font-weight:normal;font-style:normal;font-size:10px">125000.00</text>
<path d="M64.055,115.95L72.055,115.95" style="fill:none;stroke:#000000;stroke-width:0.5" />
<path d="M64.055,257.56L72.055,257.56" style="fill:none;stroke:#000000;stroke-width:0.5" />
<path d="M64.055,399.17L72.055,399.17" style="fill:none;stroke:#000000;stroke-width:0.5" />
<path d="M68.055,59.309L72.055,59.309" style="fill:none;stroke:#000000;stroke-width:0.5" />
<path d="M68.055,87.631L72.055,87.631" style="fill:none;stroke:#000000;stroke-width:0.5" />
<path d="M68.055,144.27L72.055,144.27" style="fill:none;stroke:#000000;stroke-width:0.5" />
<path d="M68.055,172.6L72.055,172.6" style="fill:none;stroke:#000000;stroke-width:0.5" />
<path d="M68.055,200.92L72.055,200.92" style="fill:none;stroke:#000000;stroke-width:0.5" />
<path d="M68.055,229.24L72.055,229.24" style="fill:none;stroke:#000000;stroke-width:0.5" />
<path d="M68.055,285.88L72.055,285.88" style="fill:none;stroke:#000000;stroke-width:0.5" />
<path d="M68.055,314.2L72.055,314.2" style="fill:none;stroke:#000000;stroke-width:0.5" />
<path d="M68.055,342.53L72.055,342.53" style="fill:none;stroke:#000000;stroke-width:0.5" />
<path d="M68.055,370.85L72.055,370.85" style="fill:none;stroke:#000000;stroke-width:0.5" />
<path d="M72.055,45.151L72.055,416.58" style="fill:none;stroke:#000000;stroke-width:0.5" />
<path d="M77.805,416.58L102.29,55.367L106.74,69.449L107.86,51.886L108.97,48.437L111.19,55.908L112.31,78.177L113.42,48.629L114.53,76.563L115.65,91.341L116.76,58.986L117.87,55.659L118.99,59.539L120.1,69.788L121.21,62.314L122.32,83.938L123.44,70.465L124.55,94.958L125.66,69.545L126.78,62.549L127.89,63.849L131.23,45.828L132.34,67.033L133.45,76.58L134.57,81.154L135.68,45.715L136.79,91.919L137.91,49.057L139.02,53.056L140.13,65.781L141.25,72.926L142.36,46.381L143.47,62.354L144.58,52.858L145.7,80.771L146.81,66.03L147.92,62.462L149.04,52.325L150.15,52.348L151.26,51.719L152.38,63.897L153.49,54.333L154.6,53.308L155.71,53.008L156.83,56.007L157.94,55.395L159.05,80.109L160.17,60.003L161.28,60.085L162.39,60.572L163.5,76.891L164.62,56.392L165.73,58.904L166.84,60.182L167.96,80.318L169.07,60.507L170.18,62.903L171.3,64.977L172.41,60.102L173.52,58.148L174.63,63.104L175.75,57.834L176.86,58.754L177.97,60.592L179.09,63.439L180.2,62.583L181.31,65.787L182.43,61.787L183.54,65.69L184.65,60.451L185.76,58.695L186.88,58.171L187.99,60.759L189.1,58.839L190.22,61.38L191.33,58.924L192.44,62.091L193.56,61.255L194.67,56.106L195.78,60.301L196.89,60.864L198.01,57.99L199.12,55.95L200.23,60.091L201.35,59.593L202.46,62.031L203.57,58.669L204.69,60.989L205.8,61.793L206.91,58.992L208.02,58.751L209.14,59.649L210.25,57.67L211.36,57.754L212.48,56.718L213.59,57.545L214.7,59.91L215.82,59.29L216.93,55.684L218.04,58.887L219.15,55.905L220.27,56.698L221.38,55.404L222.49,59.374L223.61,55.438L224.72,56.814L225.83,55.503L226.95,60.244L228.06,56.03L229.17,56.59L230.28,56.273L231.4,57.48L232.51,54.656L233.62,55.987L234.74,54.418L235.85,56.214L236.96,55.279L238.08,56.109L239.19,54.548L240.3,54.718L241.41,53.835L242.53,55.361L243.64,54.056L244.75,55.061L245.87,53.942L246.98,54.26L248.09,53.9L249.21,55.367L250.32,53.908L251.43,54.177L252.54,54.237L253.66,54.183L254.77,52.648L255.88,53.333L257,52.906L258.11,52.807L259.22,52.911L260.34,53.127L261.45,52.897L262.56,52.552L263.67,52.427L264.79,53.319L265.9,52.209L267.01,52.28L268.13,52.266L269.24,52.155L270.35,52.305L271.46,52.107L272.58,51.988L273.69,51.9L274.8,51.631L275.92,51.391L277.03,51.252L278.14,51.419L279.26,51.289L280.37,50.926L281.48,51.059L282.59,51.107L283.71,50.915L284.82,50.465L285.93,50.847L287.05,50.68L288.16,50.544L289.27,50.187L290.39,50.544L291.5,50.144L292.61,50.181L293.72,49.892L294.84,49.997L295.95,49.856L297.06,49.904L298.18,49.643L299.29,49.728L300.4,49.612L301.52,49.499L302.63,49.06L303.74,49.371L304.85,49.02L305.97,49.165L307.08,49.085L308.19,49.131L309.31,48.779L310.42,48.864L311.53,48.811L312.65,48.881L313.76,48.635L314.87,48.505L315.98,48.462L317.1,48.349L318.21,48.321L319.32,48.258L320.44,48.153L321.55,48.352L322.66,48.196L323.78,47.995L324.89,47.842L326,47.78L327.11,47.91L328.23,47.791L329.34,47.737L330.45,47.68L331.57,47.547L332.68,47.709L333.79,47.655L334.91,47.505L336.02,47.448L337.13,47.494L338.24,47.445L339.36,47.437L340.47,47.25L341.58,47.27L342.7,47.329L343.81,47.179L344.92,47.038L346.04,46.972L347.15,47.171L348.26,47.06L349.37,46.93L350.49,46.936L351.6,46.791L352.71,46.893L353.83,46.93L354.94,46.786L356.05,46.664L357.17,46.791L358.28,46.771L359.39,46.641L360.5,46.618L361.62,46.672L362.73,46.505L363.84,46.55L364.96,46.443L366.07,46.338L367.18,46.349L368.3,46.352L369.41,46.406L370.52,46.304L371.63,46.349L372.75,46.236L373.86,46.293L374.97,46.293L376.09,46.191L377.2,46.205L378.31,46.27L379.43,46.228L380.54,46.018L381.65,46.06L382.76,46.111L383.88,46.038L384.99,45.97L386.1,46.021L387.22,45.967L388.33,46.041L389.44,45.95L390.55,45.936L391.67,45.933L392.78,45.817L393.89,45.817L395.01,45.857L396.12,45.831L397.23,45.871L398.35,45.831L399.46,45.811L400.57,45.786L401.68,45.757L402.8,45.723L403.91,45.67L405.02,45.684L406.14,45.675L407.25,45.644L408.36,45.593L409.48,45.644L410.59,45.605L411.7,45.65L412.81,45.607L413.93,45.588L415.04,45.647L416.15,45.556L417.27,45.562L418.38,45.593L419.49,45.514L420.61,45.503L421.72,45.494L422.83,45.537L423.94,45.517L425.06,45.525L426.17,45.511L427.28,45.474L428.4,45.412L429.51,45.412L430.62,45.483L431.74,45.412L432.85,45.474L433.96,45.457L435.07,45.454L436.19,45.454L437.3,45.381L438.41,45.386L439.53,45.409L440.64,45.386L441.75,45.352L442.87,45.364L443.98,45.398L445.09,45.384L446.2,45.35L447.32,45.307L448.43,45.347L449.54,45.381L450.66,45.327L451.77,45.293L452.88,45.344L454,45.304L455.11,45.313L456.22,45.307L457.33,45.282L458.45,45.282L459.56,45.259L460.67,45.301L461.79,45.267L462.9,45.29L464.01,45.296L465.13,45.301L466.24,45.267L467.35,45.276L468.46,45.219L469.58,45.282L470.69,45.273L471.8,45.276L472.92,45.253L474.03,45.242L475.14,45.253L476.26,45.265L477.37,45.239L478.48,45.205L479.59,45.242L480.71,45.214L481.82,45.211L482.93,45.228L484.05,45.228L485.16,45.233L486.27,45.222L487.39,45.231L488.5,45.217L489.61,45.242L490.72,45.219L491.84,45.208L492.95,45.217L494.06,45.208L495.18,45.194L496.29,45.208L497.4,45.205L498.51,45.205L499.63,45.211L500.74,45.194L501.85,45.191L502.97,45.194L504.08,45.2L505.19,45.188L506.31,45.191L507.42,45.194L508.53,45.177L509.64,45.174L510.76,45.191L511.87,45.191L512.98,45.183L514.1,45.171L515.21,45.171L516.32,45.171L517.44,45.174L518.55,45.171L519.66,45.191L520.77,45.191L521.89,45.166L523,45.174L524.11,45.163L525.23,45.163L526.34,45.166L527.45,45.185L528.57,45.188L529.68,45.163L530.79,45.174L531.9,45.18L533.02,45.166L534.13,45.171L535.24,45.171L536.36,45.18L537.47,45.154L538.58,45.154L539.7,45.166L540.81,45.163L541.92,45.168L543.03,45.16L544.15,45.157L545.26,45.166L546.37,45.16L547.49,45.16L548.6,45.157L549.71,45.171L550.83,45.16L551.94,45.157L553.05,45.154L554.16,45.154L555.28,45.157L556.39,45.166L557.5,45.157L558.62,45.151L563.07,45.151L564.18,45.157L565.29,45.154L566.41,45.157L567.52,45.163L568.63,45.157L569.75,45.151L570.86,45.154L571.97,45.154L573.09,45.151L574.2,45.154L575.31,45.154L576.42,45.157L577.54,45.151L578.65,45.151L579.76,45.151L580.88,45.154L581.99,45.154L583.1,45.157L585.33,45.151L586.44,45.151L587.55,45.151L588.67,45.154L589.78,45.151L590.89,45.151L594.23,45.151L595.35,45.154L596.46,45.151L597.57,45.151L599.8,45.151L600.91,45.151L602.02,45.151L604.25,45.151L605.36,45.154L608.7,45.151L609.81,45.151L610.93,45.151L619.83,45.154L623.17,45.154L626.51,45.151L628.73,45.151L629.85,45.151L630.96,45.154L634.3,45.151L638.75,45.151L643.2,45.151L647.66,45.151L649.88,45.151L667.69,45.151L668.8,45.151L692.18,45.151L720,45.151" style="fill:none;stroke:#0000FF" />
</g>
</svg>
