<?xml version="1.0"?>
<!-- Generated by SVGo and Plotinum VG -->
<svg width="720pt" height="432pt" viewBox="0 0 720 432"
	xmlns="http://www.w3.org/2000/svg"
	xmlns:xlink="http://www.w3.org/1999/xlink">
<g transform="scale(1, -1) translate(0, -432)">
<path d="M0,0L720,0L720,432L0,432Z" style="fill:#FFFFFF" />
<text x="358.5" y="-420.45" transform="scale(1, -1)"
	style="font-family:Times;font-weight:normal;font-style:normal;font-size:12px"> </text>
<text x="379.31" y="-3.8613" transform="scale(1, -1)"
	style="font-family:Times;font-weight:normal;font-style:normal;font-size:12px">Costs</text>
<text x="62.805" y="-18.634" transform="scale(1, -1)"
	style="font-family:Times;font-weight:normal;font-style:normal;font-size:10px">0</text>
<text x="330.03" y="-18.634" transform="scale(1, -1)"
	style="font-family:Times;font-weight:normal;font-style:normal;font-size:10px">200</text>
<text x="602.25" y="-18.634" transform="scale(1, -1)"
	style="font-family:Times;font-weight:normal;font-style:normal;font-size:10px">400</text>
<path d="M65.305,28.263L65.305,36.263" style="fill:none;stroke:#000000;stroke-width:0.5" />
<path d="M337.53,28.263L337.53,36.263" style="fill:none;stroke:#000000;stroke-width:0.5" />
<path d="M609.75,28.263L609.75,36.263" style="fill:none;stroke:#000000;stroke-width:0.5" />
<path d="M201.42,32.263L201.42,36.263" style="fill:none;stroke:#000000;stroke-width:0.5" />
<path d="M473.64,32.263L473.64,36.263" style="fill:none;stroke:#000000;stroke-width:0.5" />
<path d="M65.305,36.263L720,36.263" style="fill:none;stroke:#000000;stroke-width:0.5" />
<g transform="rotate(90)">
<text x="152.55" y="11.555" transform="scale(1, -1)"
	style="font-family:Times;font-weight:normal;font-style:normal;font-size:12px">Number of trials (1000000 total)</text>
</g>
<text x="24.055" y="-92.261" transform="scale(1, -1)"
	style="font-family:Times;font-weight:normal;font-style:normal;font-size:10px">40000</text>
<text x="19.055" y="-243.21" transform="scale(1, -1)"
	style="font-family:Times;font-weight:normal;font-style:normal;font-size:10px">160000</text>
<text x="19.055" y="-394.16" transform="scale(1, -1)"
	style="font-family:Times;font-weight:normal;font-style:normal;font-size:10px">280000</text>
<path d="M51.555,95.466L59.555,95.466" style="fill:none;stroke:#000000;stroke-width:0.5" />
<path d="M51.555,246.41L59.555,246.41" style="fill:none;stroke:#000000;stroke-width:0.5" />
<path d="M51.555,397.36L59.555,397.36" style="fill:none;stroke:#000000;stroke-width:0.5" />
<path d="M55.555,170.94L59.555,170.94" style="fill:none;stroke:#000000;stroke-width:0.5" />
<path d="M55.555,321.89L59.555,321.89" style="fill:none;stroke:#000000;stroke-width:0.5" />
<path d="M59.555,45.151L59.555,416.58" style="fill:none;stroke:#000000;stroke-width:0.5" />
<path d="M65.305,416.58L97.971,55.367L100.69,51.933L102.05,59.006L103.42,48.796L107.5,77.423L110.22,63.698L111.58,66.913L114.3,62.89L115.67,58.839L117.03,55.688L118.39,48.69L119.75,48.599L121.11,52.964L122.47,58.914L123.83,55.615L125.19,56.449L126.55,52.725L127.92,81.804L130.64,52.694L133.36,66.833L134.72,48.98L136.08,45.241L137.44,74.786L138.8,63.615L140.17,46.096L141.53,48.569L142.89,54.069L144.25,57.694L145.61,45.777L146.97,53.847L148.33,46.554L149.69,71.897L151.05,60.288L152.42,47.496L153.78,47.71L155.14,45.969L156.5,48.208L157.86,47.608L159.22,47.846L160.58,48.926L161.94,61.791L163.3,48.029L164.67,78.175L166.03,48.338L167.39,48.009L168.75,47.769L170.11,55.002L171.47,47.824L172.83,49.692L174.19,50.037L175.55,78.951L176.92,48.946L178.28,48.423L179.64,51.676L181,48.597L182.36,49.509L183.72,50.785L185.08,49.801L186.44,50.394L187.8,50.258L189.17,49.754L190.53,48.257L191.89,49.592L193.25,49.682L194.61,49.323L195.97,52.035L197.33,49.443L198.69,48.95L200.05,51.757L201.42,50.874L202.78,47.978L204.14,48.247L205.5,48.979L206.86,53.046L208.22,48.945L209.58,50.226L210.94,51.082L212.3,51.601L213.67,49.544L215.03,48.843L216.39,48.77L217.75,50.984L219.11,48.676L220.47,49.242L221.83,51.482L223.19,49.541L224.55,50.872L225.92,48.555L227.28,50.646L228.64,47.658L230,48.51L231.36,47.563L232.72,49.826L234.08,49.035L235.44,48.797L236.8,49.268L238.17,50.965L239.53,46.65L240.89,47.651L242.25,47.579L243.61,49.671L244.97,46.812L246.33,48.08L247.69,49.336L249.05,50.219L250.42,47.604L251.78,46.989L253.14,47.251L254.5,47.77L255.86,46.889L257.22,47.339L258.58,46.714L259.94,48.814L261.3,48.958L262.67,46.672L264.03,46.883L265.39,46.588L266.75,46.821L268.11,46.789L269.47,47.297L270.83,46.666L272.19,47.912L273.55,46.767L274.92,48.711L276.28,46.595L277.64,46.568L279,46.793L280.36,47.177L281.72,46.598L283.08,46.716L284.44,46.824L285.8,46.697L287.17,46.461L288.53,46.348L289.89,46.614L291.25,46.559L292.61,46.559L293.97,46.514L295.33,46.704L296.69,46.514L298.05,46.436L299.42,46.446L300.78,46.27L302.14,46.163L303.5,46.212L304.86,46.209L306.22,46.485L307.58,46.207L308.94,46.219L310.31,46.27L311.67,46.39L313.03,45.946L314.39,45.953L315.75,46.046L317.11,46.312L318.47,45.992L319.83,46.135L321.19,46.146L322.56,46.124L323.92,46.012L325.28,45.843L326.64,45.862L328,45.822L329.36,45.877L330.72,45.812L332.08,45.872L333.44,45.933L334.81,45.984L336.17,45.611L337.53,45.807L338.89,45.667L340.25,45.717L341.61,45.614L342.97,45.799L344.33,45.69L345.69,45.721L347.06,45.716L348.42,45.675L349.78,45.535L351.14,45.556L352.5,45.568L353.86,45.617L355.22,45.556L356.58,45.612L357.94,45.546L359.31,45.609L360.67,45.593L362.03,45.471L363.39,45.507L364.75,45.48L366.11,45.485L367.47,45.465L368.83,45.466L370.19,45.436L371.56,45.49L372.92,45.413L374.28,45.452L375.64,45.421L377,45.429L378.36,45.405L379.72,45.47L381.08,45.389L382.44,45.364L383.81,45.398L385.17,45.373L386.53,45.36L387.89,45.345L389.25,45.379L390.61,45.364L391.97,45.368L393.33,45.345L394.69,45.336L396.06,45.346L397.42,45.312L398.78,45.299L400.14,45.324L401.5,45.353L402.86,45.306L404.22,45.31L405.58,45.299L406.94,45.278L408.31,45.305L409.67,45.263L411.03,45.261L412.39,45.268L413.75,45.292L415.11,45.271L416.47,45.266L417.83,45.251L419.19,45.283L420.56,45.263L421.92,45.241L423.28,45.233L424.64,45.242L426,45.234L427.36,45.242L428.72,45.232L430.08,45.219L431.44,45.223L432.81,45.214L434.17,45.222L435.53,45.214L436.89,45.213L438.25,45.213L439.61,45.226L440.97,45.205L442.33,45.205L443.69,45.197L445.06,45.209L446.42,45.193L447.78,45.198L449.14,45.188L450.5,45.204L451.86,45.199L453.22,45.193L454.58,45.193L455.94,45.189L457.31,45.188L458.67,45.183L460.03,45.19L461.39,45.182L462.75,45.169L464.11,45.185L465.47,45.182L466.83,45.179L468.19,45.179L469.56,45.183L470.92,45.175L472.28,45.182L473.64,45.182L475,45.184L476.36,45.169L477.72,45.171L479.08,45.183L480.44,45.165L481.81,45.169L483.17,45.177L484.53,45.17L485.89,45.173L487.25,45.17L488.61,45.17L489.97,45.168L491.33,45.166L492.69,45.17L494.06,45.166L495.42,45.165L496.78,45.165L498.14,45.163L499.5,45.168L500.86,45.163L502.22,45.16L503.58,45.168L504.94,45.159L506.31,45.164L507.67,45.164L509.03,45.16L510.39,45.165L511.75,45.161L513.11,45.158L514.47,45.153L515.83,45.161L517.19,45.153L518.56,45.161L519.92,45.154L521.28,45.155L522.64,45.156L524,45.153L525.36,45.155L526.72,45.159L528.08,45.154L529.44,45.155L530.81,45.158L532.17,45.154L533.53,45.155L534.89,45.155L536.25,45.154L537.61,45.158L538.97,45.153L540.33,45.151L541.69,45.155L543.06,45.156L545.78,45.155L547.14,45.155L548.5,45.153L549.86,45.153L551.22,45.151L552.58,45.151L553.94,45.153L555.31,45.155L556.67,45.151L558.03,45.153L559.39,45.154L560.75,45.153L562.11,45.151L563.47,45.153L564.83,45.151L566.19,45.154L567.56,45.153L568.92,45.154L570.28,45.151L571.64,45.151L573,45.153L574.36,45.154L575.72,45.154L577.08,45.151L578.44,45.153L583.89,45.153L590.69,45.151L594.78,45.151L600.22,45.151L601.58,45.151L604.31,45.151L605.67,45.153L609.75,45.151L611.11,45.153L612.47,45.151L616.56,45.151L617.92,45.151L632.89,45.151L642.42,45.151L653.31,45.151L720,45.151" style="fill:none;stroke:#0000FF" />
</g>
</svg>
