<?xml version="1.0"?>
<!-- Generated by SVGo and Plotinum VG -->
<svg width="720pt" height="432pt" viewBox="0 0 720 432"
	xmlns="http://www.w3.org/2000/svg"
	xmlns:xlink="http://www.w3.org/1999/xlink">
<g transform="scale(1, -1) translate(0, -432)">
<path d="M0,0L720,0L720,432L0,432Z" style="fill:#FFFFFF" />
<text x="358.5" y="-420.45" transform="scale(1, -1)"
	style="font-family:Times;font-weight:normal;font-style:normal;font-size:12px"> </text>
<text x="379.31" y="-3.8613" transform="scale(1, -1)"
	style="font-family:Times;font-weight:normal;font-style:normal;font-size:12px">Costs</text>
<text x="62.805" y="-18.634" transform="scale(1, -1)"
	style="font-family:Times;font-weight:normal;font-style:normal;font-size:10px">0</text>
<text x="328.9" y="-18.634" transform="scale(1, -1)"
	style="font-family:Times;font-weight:normal;font-style:normal;font-size:10px">200</text>
<text x="600" y="-18.634" transform="scale(1, -1)"
	style="font-family:Times;font-weight:normal;font-style:normal;font-size:10px">400</text>
<path d="M65.305,28.263L65.305,36.263" style="fill:none;stroke:#000000;stroke-width:0.5" />
<path d="M336.4,28.263L336.4,36.263" style="fill:none;stroke:#000000;stroke-width:0.5" />
<path d="M607.5,28.263L607.5,36.263" style="fill:none;stroke:#000000;stroke-width:0.5" />
<path d="M200.85,32.263L200.85,36.263" style="fill:none;stroke:#000000;stroke-width:0.5" />
<path d="M471.95,32.263L471.95,36.263" style="fill:none;stroke:#000000;stroke-width:0.5" />
<path d="M65.305,36.263L720,36.263" style="fill:none;stroke:#000000;stroke-width:0.5" />
<g transform="rotate(90)">
<text x="152.55" y="11.555" transform="scale(1, -1)"
	style="font-family:Times;font-weight:normal;font-style:normal;font-size:12px">Number of trials (1000000 total)</text>
</g>
<text x="24.055" y="-89.798" transform="scale(1, -1)"
	style="font-family:Times;font-weight:normal;font-style:normal;font-size:10px">20000</text>
<text x="24.055" y="-233.36" transform="scale(1, -1)"
	style="font-family:Times;font-weight:normal;font-style:normal;font-size:10px">80000</text>
<text x="19.055" y="-376.93" transform="scale(1, -1)"
	style="font-family:Times;font-weight:normal;font-style:normal;font-size:10px">140000</text>
<path d="M51.555,93.004L59.555,93.004" style="fill:none;stroke:#000000;stroke-width:0.5" />
<path d="M51.555,236.57L59.555,236.57" style="fill:none;stroke:#000000;stroke-width:0.5" />
<path d="M51.555,380.13L59.555,380.13" style="fill:none;stroke:#000000;stroke-width:0.5" />
<path d="M55.555,164.79L59.555,164.79" style="fill:none;stroke:#000000;stroke-width:0.5" />
<path d="M55.555,308.35L59.555,308.35" style="fill:none;stroke:#000000;stroke-width:0.5" />
<path d="M59.555,45.151L59.555,416.58" style="fill:none;stroke:#000000;stroke-width:0.5" />
<path d="M65.305,416.58L95.125,52.078L96.481,48.678L100.55,55.959L105.97,48.482L107.32,86.539L108.68,114.02L110.04,55.536L111.39,73.455L112.75,66.796L114.1,86.06L115.46,48.472L116.81,73.788L118.17,48.525L119.52,55.691L120.88,69.201L123.59,48.506L126.3,63.348L127.66,99.708L130.37,45.343L131.72,55.806L133.08,63.025L134.43,48.592L135.79,45.204L137.14,102.39L138.5,50.198L139.86,64.088L141.21,45.898L142.57,46.898L143.92,55.177L145.28,52.504L146.63,53.172L147.99,46.518L149.34,58.493L150.7,56.823L152.06,48.075L153.41,50.502L154.77,53.083L156.12,62.585L157.48,55.861L158.83,52.224L160.19,53.954L161.54,117.11L162.9,54.567L164.25,117.75L165.61,50.246L166.97,50.255L168.32,51.858L169.68,58.005L171.03,57.173L172.39,52.251L173.74,55.445L175.1,121.5L176.45,55.746L177.81,49.387L179.16,57.831L180.52,59.912L181.88,54.981L183.23,57.79L184.59,51.428L185.94,55.342L187.3,50.731L188.65,57.601L190.01,49.461L191.36,52.59L192.72,54.808L194.07,52.107L195.43,53.107L196.79,50.121L198.14,51.789L199.5,59.269L200.85,49.451L202.21,51.789L203.56,56.373L204.92,64.985L206.27,59.831L207.63,66.112L208.99,55.845L210.34,62.913L211.7,57.467L213.05,61.647L214.41,48.731L215.76,57.141L217.12,62.563L218.47,64.482L219.83,55.337L221.18,55.007L222.54,57.919L223.9,66.083L225.25,53.425L226.61,63.561L227.96,52.418L229.32,54.514L230.67,56.01L232.03,52.356L233.38,59.302L234.74,49.851L236.09,65.743L237.45,59.261L238.81,51.925L240.16,49.982L241.52,52.76L242.87,55.143L244.23,50.525L245.58,52.117L246.94,60.577L248.29,52.645L249.65,54.258L251.01,50.554L252.36,51.483L253.72,53.009L255.07,53.878L256.43,52.255L257.78,50.078L259.14,52.65L260.49,62.91L261.85,50.334L263.2,50.243L264.56,51.052L265.92,53.409L267.27,52.406L268.63,51.585L269.98,52.547L271.34,62.453L272.69,52.497L274.05,61.817L275.4,51.439L276.76,50.748L278.11,51.717L279.47,53.799L280.83,51.212L282.18,51.772L283.54,50.592L284.89,52.411L286.25,49.896L287.6,50.47L288.96,51.04L290.31,51.255L291.67,51.064L293.02,50.059L294.38,49.769L295.74,51.047L297.09,49.281L298.45,51.662L299.8,48.372L301.16,49.686L302.51,50.686L303.87,51.066L305.22,49.497L306.58,49.212L307.94,50.255L309.29,51.002L310.65,48.492L312,49.308L313.36,49.298L314.71,51.229L316.07,50.674L317.42,51.181L318.78,49.269L320.13,49.982L321.49,49.944L322.85,51.21L324.2,47.841L325.56,49.171L326.91,49.391L328.27,49.03L329.62,48.322L330.98,47.786L332.33,49.961L333.69,49.396L335.04,48.561L336.4,48.982L337.76,47.925L339.11,48.379L340.47,48.231L341.82,48.035L343.18,48.894L344.53,47.893L345.89,49.733L347.24,47.535L348.6,47.625L349.95,47.587L351.31,47.86L352.67,47.858L354.02,47.508L355.38,47.515L356.73,47.439L358.09,47.482L359.44,47.13L360.8,47.156L362.15,47.365L363.51,47.511L364.87,47.621L366.22,47.314L367.58,46.941L368.93,47.08L370.29,48.848L371.64,46.999L373,46.836L374.35,46.996L375.71,47.214L377.06,47.008L378.42,47.113L379.78,46.822L381.13,47.03L382.49,46.845L383.84,46.841L385.2,46.707L386.55,46.683L387.91,46.946L389.26,46.936L390.62,46.522L391.97,46.585L393.33,46.436L394.69,46.79L396.04,46.247L397.4,46.544L398.75,46.302L400.11,46.388L401.46,46.415L402.82,46.183L404.17,46.149L405.53,46.369L406.88,46.274L408.24,46.214L409.6,45.991L410.95,46.132L412.31,46.242L413.66,46.319L415.02,46.006L416.37,46.056L417.73,46.135L419.08,46.037L420.44,45.958L421.8,45.977L423.15,45.888L424.51,45.907L425.86,45.963L427.22,45.967L428.57,45.79L429.93,45.821L431.28,45.884L432.64,46.015L433.99,45.726L435.35,45.762L436.71,45.833L438.06,45.857L439.42,45.673L440.77,45.695L442.13,45.951L443.48,45.726L444.84,45.721L446.19,45.697L447.55,45.546L448.9,45.687L450.26,45.757L451.62,45.666L452.97,45.539L454.33,45.668L455.68,45.611L457.04,45.596L458.39,45.551L459.75,45.592L461.1,45.58L462.46,45.515L463.81,45.482L465.17,45.517L466.53,45.498L467.88,45.491L469.24,45.484L470.59,45.446L471.95,45.477L473.3,45.462L474.66,45.474L476.01,45.455L477.37,45.376L478.73,45.453L480.08,45.441L481.44,45.395L482.79,45.407L484.15,45.405L485.5,45.391L486.86,45.352L488.21,45.383L489.57,45.316L490.92,45.376L492.28,45.364L493.64,45.316L494.99,45.305L496.35,45.343L497.7,45.369L499.06,45.324L500.41,45.319L501.77,45.271L503.12,45.305L504.48,45.348L505.83,45.302L507.19,45.285L508.55,45.3L509.9,45.29L511.26,45.293L512.61,45.276L513.97,45.252L515.32,45.269L516.68,45.245L518.03,45.278L519.39,45.233L520.74,45.285L522.1,45.247L523.46,45.252L524.81,45.216L526.17,45.23L527.52,45.226L528.88,45.247L530.23,45.233L531.59,45.221L532.94,45.214L534.3,45.221L535.66,45.247L537.01,45.226L538.37,45.194L539.72,45.216L541.08,45.223L542.43,45.216L543.79,45.18L545.14,45.221L546.5,45.202L547.85,45.197L549.21,45.202L550.57,45.202L551.92,45.187L553.28,45.199L554.63,45.202L555.99,45.182L557.34,45.178L558.7,45.182L560.05,45.178L561.41,45.185L562.76,45.182L564.12,45.182L565.48,45.19L566.83,45.175L568.19,45.187L569.54,45.19L570.9,45.173L572.25,45.173L573.61,45.171L574.96,45.173L576.32,45.18L577.67,45.178L579.03,45.192L580.39,45.178L581.74,45.178L583.1,45.178L584.45,45.171L585.81,45.173L587.16,45.171L588.52,45.156L589.87,45.18L591.23,45.159L592.59,45.159L593.94,45.163L595.3,45.161L596.65,45.168L598.01,45.163L599.36,45.166L600.72,45.168L602.07,45.163L603.43,45.159L604.78,45.154L606.14,45.156L607.5,45.161L608.85,45.151L610.21,45.154L611.56,45.154L612.92,45.154L614.27,45.166L615.63,45.156L616.98,45.156L618.34,45.156L619.69,45.154L621.05,45.154L622.41,45.151L623.76,45.151L625.12,45.151L626.47,45.151L627.83,45.154L629.18,45.154L630.54,45.151L631.89,45.151L633.25,45.154L634.6,45.154L635.96,45.154L637.32,45.154L638.67,45.159L640.03,45.156L641.38,45.154L642.74,45.151L644.09,45.154L645.45,45.151L646.8,45.154L649.52,45.154L650.87,45.154L652.23,45.151L653.58,45.156L654.94,45.151L659,45.154L660.36,45.154L661.71,45.151L663.07,45.151L665.78,45.151L668.49,45.151L669.85,45.151L677.98,45.151L679.34,45.154L680.69,45.151L682.05,45.156L684.76,45.151L688.82,45.151L690.18,45.154L711.87,45.151L718.64,45.151L720,45.151" style="fill:none;stroke:#0000FF" />
</g>
</svg>
