<?xml version="1.0"?>
<!-- Generated by SVGo and Plotinum VG -->
<svg width="720pt" height="432pt" viewBox="0 0 720 432"
	xmlns="http://www.w3.org/2000/svg"
	xmlns:xlink="http://www.w3.org/1999/xlink">
<g transform="scale(1, -1) translate(0, -432)">
<path d="M0,0L720,0L720,432L0,432Z" style="fill:#FFFFFF" />
<text x="358.5" y="-420.45" transform="scale(1, -1)"
	style="font-family:Times;font-weight:normal;font-style:normal;font-size:12px"> </text>
<text x="383.72" y="-3.8613" transform="scale(1, -1)"
	style="font-family:Times;font-weight:normal;font-style:normal;font-size:12px">Costs</text>
<text x="69.055" y="-18.634" transform="scale(1, -1)"
	style="font-family:Times;font-weight:normal;font-style:normal;font-size:10px">0.00</text>
<text x="378.28" y="-18.634" transform="scale(1, -1)"
	style="font-family:Times;font-weight:normal;font-style:normal;font-size:10px">250.00</text>
<text x="692.5" y="-18.634" transform="scale(1, -1)"
	style="font-family:Times;font-weight:normal;font-style:normal;font-size:10px">500.00</text>
<path d="M77.805,28.263L77.805,36.263" style="fill:none;stroke:#000000;stroke-width:0.5" />
<path d="M392.03,28.263L392.03,36.263" style="fill:none;stroke:#000000;stroke-width:0.5" />
<path d="M706.25,28.263L706.25,36.263" style="fill:none;stroke:#000000;stroke-width:0.5" />
<path d="M140.65,32.263L140.65,36.263" style="fill:none;stroke:#000000;stroke-width:0.5" />
<path d="M203.49,32.263L203.49,36.263" style="fill:none;stroke:#000000;stroke-width:0.5" />
<path d="M266.34,32.263L266.34,36.263" style="fill:none;stroke:#000000;stroke-width:0.5" />
<path d="M329.18,32.263L329.18,36.263" style="fill:none;stroke:#000000;stroke-width:0.5" />
<path d="M454.87,32.263L454.87,36.263" style="fill:none;stroke:#000000;stroke-width:0.5" />
<path d="M517.72,32.263L517.72,36.263" style="fill:none;stroke:#000000;stroke-width:0.5" />
<path d="M580.56,32.263L580.56,36.263" style="fill:none;stroke:#000000;stroke-width:0.5" />
<path d="M643.41,32.263L643.41,36.263" style="fill:none;stroke:#000000;stroke-width:0.5" />
<path d="M77.805,36.263L716.31,36.263" style="fill:none;stroke:#000000;stroke-width:0.5" />
<g transform="rotate(90)">
<text x="152.55" y="11.555" transform="scale(1, -1)"
	style="font-family:Times;font-weight:normal;font-style:normal;font-size:12px">Number of trials (1000000 total)</text>
</g>
<text x="24.055" y="-82.346" transform="scale(1, -1)"
	style="font-family:Times;font-weight:normal;font-style:normal;font-size:10px">25000.00</text>
<text x="19.055" y="-243.95" transform="scale(1, -1)"
	style="font-family:Times;font-weight:normal;font-style:normal;font-size:10px">125000.00</text>
<text x="19.055" y="-405.56" transform="scale(1, -1)"
	style="font-family:Times;font-weight:normal;font-style:normal;font-size:10px">225000.00</text>
<path d="M64.055,85.551L72.055,85.551" style="fill:none;stroke:#000000;stroke-width:0.5" />
<path d="M64.055,247.16L72.055,247.16" style="fill:none;stroke:#000000;stroke-width:0.5" />
<path d="M64.055,408.76L72.055,408.76" style="fill:none;stroke:#000000;stroke-width:0.5" />
<path d="M68.055,166.35L72.055,166.35" style="fill:none;stroke:#000000;stroke-width:0.5" />
<path d="M68.055,327.96L72.055,327.96" style="fill:none;stroke:#000000;stroke-width:0.5" />
<path d="M72.055,45.151L72.055,416.58" style="fill:none;stroke:#000000;stroke-width:0.5" />
<path d="M77.805,416.58L106.71,48.43L110.48,48.708L111.74,55.851L113,51.994L114.25,48.521L116.77,73.402L118.03,59.077L119.28,59.654L120.54,70.548L121.8,48.812L123.05,88.276L124.31,58.909L125.57,52.175L126.82,59.321L128.08,51.944L129.34,66.458L130.59,65.86L131.85,48.794L133.11,73.683L134.36,52.033L135.62,62.652L139.39,69.876L140.65,70.65L141.91,52.327L143.16,45.182L144.42,81.338L145.68,59.452L146.93,45.5L148.19,59.059L149.45,49.148L150.7,53.094L151.96,53.183L153.22,46.449L154.48,89.048L155.73,46.85L156.99,54.788L158.25,47.907L159.5,48.721L160.76,47.049L162.02,50.046L163.27,49.718L164.53,49.242L165.79,51.018L167.04,48.993L168.3,50.302L169.56,66.125L170.81,55.895L172.07,52.133L173.33,51.065L174.59,55.898L175.84,52.294L177.1,49.044L178.36,75.832L179.61,81.172L180.87,51.882L182.13,51.524L183.38,52.58L184.64,54.119L185.9,53.544L187.15,53.713L188.41,51.735L189.67,54.043L190.92,54.187L192.18,50.887L193.44,54.796L194.7,52.063L195.95,53.704L197.21,55.2L198.47,49.602L199.72,55.447L200.98,50.833L202.24,52.047L203.49,51.33L204.75,48.619L206.01,52.228L207.26,52.774L208.52,50.326L209.78,52.157L211.04,50.355L212.29,53.224L213.55,49.759L214.81,51.257L216.06,51.853L217.32,52.372L218.58,52.769L219.83,50.536L221.09,54.911L222.35,52.016L223.6,51.208L224.86,54.282L226.12,50.155L227.37,50.858L228.63,50.05L229.89,49.843L231.15,53.322L232.4,51.094L233.66,51.168L234.92,50.47L236.17,51.454L237.43,50.515L238.69,48.164L239.94,49.883L241.2,51.958L242.46,51.267L243.71,48.539L244.97,50.182L246.23,53.345L247.48,49.747L248.74,49.51L250,49.263L251.26,49.151L252.51,49.203L253.77,48.474L255.03,50.743L256.28,51.417L257.54,48.8L258.8,48.72L260.05,48.109L261.31,48.295L262.57,48.312L263.82,48.356L265.08,48.052L266.34,48.417L267.6,48.387L268.85,47.807L270.11,49.153L271.37,49.423L272.62,48.584L273.88,48.178L275.14,48.046L276.39,48.566L277.65,47.781L278.91,48.018L280.16,49.675L281.42,47.566L282.68,47.797L283.93,47.826L285.19,47.892L286.45,47.849L287.71,47.828L288.96,47.934L290.22,47.553L291.48,47.958L292.73,47.553L293.99,47.48L295.25,47.647L296.5,47.323L297.76,47.805L299.02,47.579L300.27,47.183L301.53,47.386L302.79,47.021L304.04,47.192L305.3,46.835L306.56,46.766L307.82,47.186L309.07,47.008L310.33,46.999L311.59,46.79L312.84,47.065L314.1,46.913L315.36,46.57L316.61,46.742L317.87,46.835L319.13,46.824L320.38,46.504L321.64,46.606L322.9,46.885L324.16,46.451L325.41,46.562L326.67,46.41L327.93,46.326L329.18,46.347L330.44,46.289L331.7,46.349L332.95,46.365L334.21,46.252L335.47,46.363L336.72,46.118L337.98,46.263L339.24,46.145L340.49,46.073L341.75,46.174L343.01,46.2L344.27,46.09L345.52,46L346.78,46.194L348.04,46.148L349.29,46.05L350.55,46.053L351.81,45.951L353.06,45.95L354.32,45.956L355.58,45.893L356.83,46.06L358.09,45.866L359.35,45.883L360.61,45.837L361.86,45.867L363.12,45.79L364.38,45.811L365.63,45.775L366.89,45.722L368.15,45.769L369.4,45.723L370.66,45.736L371.92,45.761L373.17,45.701L374.43,45.699L375.69,45.67L376.94,45.647L378.2,45.672L379.46,45.683L380.72,45.669L381.97,45.576L383.23,45.563L384.49,45.617L385.74,45.562L387,45.531L388.26,45.507L389.51,45.601L390.77,45.517L392.03,45.515L393.28,45.509L394.54,45.499L395.8,45.478L397.05,45.445L398.31,45.479L399.57,45.466L400.83,45.416L402.08,45.479L403.34,45.407L404.6,45.42L405.85,45.415L407.11,45.423L408.37,45.397L409.62,45.429L410.88,45.387L412.14,45.384L413.39,45.345L414.65,45.386L415.91,45.358L417.17,45.371L418.42,45.363L419.68,45.342L420.94,45.355L422.19,45.324L423.45,45.337L424.71,45.328L425.96,45.313L427.22,45.308L428.48,45.302L429.73,45.313L430.99,45.295L432.25,45.318L433.5,45.287L434.76,45.274L436.02,45.279L437.28,45.273L438.53,45.255L439.79,45.274L441.05,45.26L442.3,45.26L443.56,45.271L444.82,45.253L446.07,45.255L447.33,45.253L448.59,45.248L449.84,45.24L451.1,45.263L452.36,45.253L453.61,45.243L454.87,45.226L456.13,45.222L457.39,45.216L458.64,45.231L459.9,45.231L461.16,45.216L462.41,45.206L463.67,45.226L464.93,45.208L466.18,45.206L467.44,45.221L468.7,45.2L469.95,45.205L471.21,45.201L472.47,45.216L473.73,45.19L474.98,45.193L476.24,45.19L477.5,45.19L478.75,45.193L480.01,45.193L481.27,45.198L482.52,45.177L483.78,45.184L485.04,45.189L486.29,45.193L487.55,45.192L488.81,45.177L490.06,45.193L491.32,45.18L492.58,45.184L493.84,45.187L495.09,45.187L496.35,45.176L497.61,45.182L498.86,45.182L500.12,45.174L501.38,45.176L502.63,45.176L503.89,45.166L505.15,45.168L506.4,45.174L507.66,45.174L508.92,45.164L510.18,45.179L511.43,45.159L512.69,45.172L513.95,45.161L515.2,45.174L516.46,45.164L517.72,45.159L518.97,45.168L520.23,45.161L521.49,45.161L522.74,45.166L524,45.156L525.26,45.168L526.51,45.166L527.77,45.164L529.03,45.163L530.29,45.159L531.54,45.161L532.8,45.161L534.06,45.164L535.31,45.158L536.57,45.161L537.83,45.156L539.08,45.156L540.34,45.156L541.6,45.153L542.85,45.158L544.11,45.155L545.37,45.153L546.62,45.163L547.88,45.153L549.14,45.156L550.4,45.155L551.65,45.156L552.91,45.156L554.17,45.159L555.42,45.151L556.68,45.151L557.94,45.155L559.19,45.155L561.71,45.155L562.96,45.155L564.22,45.153L565.48,45.155L566.74,45.151L567.99,45.158L569.25,45.153L570.51,45.158L571.76,45.155L573.02,45.158L574.28,45.151L575.53,45.151L576.79,45.155L578.05,45.151L579.3,45.155L580.56,45.151L581.82,45.153L583.07,45.153L584.33,45.151L585.59,45.153L586.85,45.153L589.36,45.153L593.13,45.153L594.39,45.153L595.64,45.151L598.16,45.153L599.41,45.151L600.67,45.153L603.18,45.151L605.7,45.151L606.96,45.151L618.27,45.151L620.78,45.153L623.3,45.151L624.55,45.151L628.32,45.151L629.58,45.151L632.09,45.151L642.15,45.151L644.66,45.151L648.43,45.151L657.23,45.151L664.77,45.151L668.54,45.151L673.57,45.151L679.86,45.151L696.19,45.151L716.31,45.151" style="fill:none;stroke:#0000FF" />
</g>
</svg>
