<?xml version="1.0"?>
<!-- Generated by SVGo and Plotinum VG -->
<svg width="720pt" height="432pt" viewBox="0 0 720 432"
	xmlns="http://www.w3.org/2000/svg"
	xmlns:xlink="http://www.w3.org/1999/xlink">
<g transform="scale(1, -1) translate(0, -432)">
<path d="M0,0L720,0L720,432L0,432Z" style="fill:#FFFFFF" />
<text x="358.5" y="-420.45" transform="scale(1, -1)"
	style="font-family:Times;font-weight:normal;font-style:normal;font-size:12px"> </text>
<text x="375" y="-3.8613" transform="scale(1, -1)"
	style="font-family:Times;font-weight:normal;font-style:normal;font-size:12px">Costs</text>
<text x="56.555" y="-18.634" transform="scale(1, -1)"
	style="font-family:Times;font-weight:normal;font-style:normal;font-size:10px">0.00</text>
<text x="372.03" y="-18.634" transform="scale(1, -1)"
	style="font-family:Times;font-weight:normal;font-style:normal;font-size:10px">250.00</text>
<text x="692.5" y="-18.634" transform="scale(1, -1)"
	style="font-family:Times;font-weight:normal;font-style:normal;font-size:10px">500.00</text>
<path d="M65.305,28.263L65.305,36.263" style="fill:none;stroke:#000000;stroke-width:0.5" />
<path d="M385.78,28.263L385.78,36.263" style="fill:none;stroke:#000000;stroke-width:0.5" />
<path d="M706.25,28.263L706.25,36.263" style="fill:none;stroke:#000000;stroke-width:0.5" />
<path d="M129.4,32.263L129.4,36.263" style="fill:none;stroke:#000000;stroke-width:0.5" />
<path d="M193.49,32.263L193.49,36.263" style="fill:none;stroke:#000000;stroke-width:0.5" />
<path d="M257.59,32.263L257.59,36.263" style="fill:none;stroke:#000000;stroke-width:0.5" />
<path d="M321.68,32.263L321.68,36.263" style="fill:none;stroke:#000000;stroke-width:0.5" />
<path d="M449.87,32.263L449.87,36.263" style="fill:none;stroke:#000000;stroke-width:0.5" />
<path d="M513.97,32.263L513.97,36.263" style="fill:none;stroke:#000000;stroke-width:0.5" />
<path d="M578.06,32.263L578.06,36.263" style="fill:none;stroke:#000000;stroke-width:0.5" />
<path d="M642.16,32.263L642.16,36.263" style="fill:none;stroke:#000000;stroke-width:0.5" />
<path d="M65.305,36.263L711.38,36.263" style="fill:none;stroke:#000000;stroke-width:0.5" />
<g transform="rotate(90)">
<text x="150.66" y="11.555" transform="scale(1, -1)"
	style="font-family:Times;font-weight:normal;font-style:normal;font-size:12px">Number of trials (1000000 total)</text>
</g>
<text x="24.055" y="-114.95" transform="scale(1, -1)"
	style="font-family:Times;font-weight:normal;font-style:normal;font-size:10px">40000</text>
<text x="19.055" y="-260.95" transform="scale(1, -1)"
	style="font-family:Times;font-weight:normal;font-style:normal;font-size:10px">120000</text>
<text x="19.055" y="-406.96" transform="scale(1, -1)"
	style="font-family:Times;font-weight:normal;font-style:normal;font-size:10px">200000</text>
<path d="M51.555,118.15L59.555,118.15" style="fill:none;stroke:#000000;stroke-width:0.5" />
<path d="M51.555,264.16L59.555,264.16" style="fill:none;stroke:#000000;stroke-width:0.5" />
<path d="M51.555,410.16L59.555,410.16" style="fill:none;stroke:#000000;stroke-width:0.5" />
<path d="M55.555,191.15L59.555,191.15" style="fill:none;stroke:#000000;stroke-width:0.5" />
<path d="M55.555,337.16L59.555,337.16" style="fill:none;stroke:#000000;stroke-width:0.5" />
<path d="M59.555,45.151L59.555,412.81" style="fill:none;stroke:#000000;stroke-width:0.5" />
<path d="M65.305,412.81L93.506,55.523L94.788,48.442L96.07,63.528L98.634,80.539L99.916,52.145L101.2,63.668L102.48,52.001L105.04,65.375L106.33,55.253L108.89,80.859L111.45,62.113L112.73,65.977L114.02,58.85L115.3,69.498L117.86,55.302L119.14,79.915L120.43,55.399L121.71,66.293L122.99,51.966L124.27,64.046L125.55,45.348L126.84,46.151L128.12,56.206L129.4,83.35L130.68,52.877L131.96,46.569L133.24,64.214L134.53,68.406L135.81,65.486L137.09,64.272L138.37,54.636L139.65,48.562L140.94,69.202L142.22,69.041L143.5,65.178L144.78,67.205L146.06,57.08L147.35,48.896L148.63,52.335L149.91,50.192L151.19,49.506L152.47,53.424L153.76,49.097L155.04,52.952L156.32,50.276L157.6,51.484L158.88,67.191L160.16,64.112L161.45,51.674L162.73,55.403L164.01,55.863L165.29,54.342L166.57,52.253L167.86,57.399L169.14,65.99L170.42,53.647L171.7,53.643L172.98,55.218L174.27,55.123L175.55,54.505L176.83,56.653L178.11,56.365L179.39,54.107L180.67,53.468L181.96,54.012L183.24,55.242L184.52,54.746L185.8,53.802L187.08,54.361L188.37,55.843L189.65,54.638L190.93,54.786L192.21,56.005L193.49,54.583L194.78,53.742L196.06,52.955L197.34,54.158L198.62,54.669L199.9,54.625L201.19,52.652L202.47,53.552L203.75,52.037L205.03,53.561L206.31,53.494L207.59,53.302L208.88,53.514L210.16,53.103L211.44,51.953L212.72,54.777L214,53.753L215.29,52.598L216.57,52.216L217.85,52.258L219.13,51.495L220.41,50.794L221.7,51.355L222.98,52.952L224.26,51.579L225.54,50.081L226.82,50.51L228.1,51.391L229.39,50.623L230.67,50.543L231.95,50.94L233.23,50.805L234.51,50.495L235.8,51.245L237.08,51.32L238.36,51.336L239.64,51.307L240.92,50.652L242.21,49.913L243.49,49.789L244.77,50.07L246.05,50.241L247.33,50.064L248.62,49.975L249.9,49.375L251.18,49.263L252.46,49.349L253.74,49.716L255.02,49.172L256.31,49.424L257.59,49.283L258.87,49.163L260.15,48.933L261.43,49.128L262.72,49.411L264,49.187L265.28,48.613L266.56,48.964L267.84,48.818L269.13,48.769L270.41,48.572L271.69,48.637L272.97,48.394L274.25,48.165L275.53,48.387L276.82,48.362L278.1,48.29L279.38,48.205L280.66,48.19L281.94,48.128L283.23,47.905L284.51,47.876L285.79,47.882L287.07,47.809L288.35,47.617L289.64,47.681L290.92,47.595L292.2,47.622L293.48,47.635L294.76,47.475L296.04,47.526L297.33,47.219L298.61,47.281L299.89,47.281L301.17,47.174L302.45,47.183L303.74,47.205L305.02,47.077L306.3,47.139L307.58,47.017L308.86,47.037L310.15,46.98L311.43,46.898L312.71,46.825L313.99,46.756L315.27,46.807L316.56,46.799L317.84,46.756L319.12,46.586L320.4,46.703L321.68,46.549L322.96,46.498L324.25,46.495L325.53,46.5L326.81,46.549L328.09,46.418L329.37,46.299L330.66,46.385L331.94,46.392L333.22,46.266L334.5,46.235L335.78,46.363L337.07,46.274L338.35,46.212L339.63,46.144L340.91,46.186L342.19,46.159L343.47,46.082L344.76,46.029L346.04,46.005L347.32,46.004L348.6,45.964L349.88,46.022L351.17,45.985L352.45,45.927L353.73,45.892L355.01,45.885L356.29,45.932L357.58,45.9L358.86,45.872L360.14,45.812L361.42,45.776L362.7,45.776L363.99,45.741L365.27,45.799L366.55,45.786L367.83,45.697L369.11,45.77L370.39,45.737L371.68,45.693L372.96,45.73L374.24,45.67L375.52,45.693L376.8,45.599L378.09,45.615L379.37,45.62L380.65,45.599L381.93,45.63L383.21,45.569L384.5,45.551L385.78,45.513L387.06,45.546L388.34,45.558L389.62,45.531L390.9,45.504L392.19,45.504L393.47,45.471L394.75,45.482L396.03,45.465L397.31,45.436L398.6,45.425L399.88,45.436L401.16,45.42L402.44,45.412L403.72,45.427L405.01,45.414L406.29,45.401L407.57,45.4L408.85,45.381L410.13,45.369L411.42,45.376L412.7,45.376L413.98,45.37L415.26,45.358L416.54,45.328L417.82,45.319L419.11,45.334L420.39,45.348L421.67,45.345L422.95,45.316L424.23,45.297L425.52,45.347L426.8,45.316L428.08,45.292L429.36,45.308L430.64,45.294L431.93,45.274L433.21,45.286L434.49,45.294L435.77,45.248L437.05,45.254L438.33,45.266L439.62,45.257L440.9,45.244L442.18,45.252L443.46,45.248L444.74,45.265L446.03,45.237L447.31,45.25L448.59,45.233L449.87,45.233L451.15,45.232L452.44,45.23L453.72,45.235L455,45.224L456.28,45.25L457.56,45.233L458.85,45.237L460.13,45.228L461.41,45.221L462.69,45.21L463.97,45.201L465.25,45.21L466.54,45.21L467.82,45.206L469.1,45.195L470.38,45.206L471.66,45.186L472.95,45.197L474.23,45.186L475.51,45.199L476.79,45.204L478.07,45.193L479.36,45.201L480.64,45.188L481.92,45.181L483.2,45.19L484.48,45.168L485.76,45.193L487.05,45.188L488.33,45.173L489.61,45.173L490.89,45.184L492.17,45.171L493.46,45.17L494.74,45.175L496.02,45.182L497.3,45.186L498.58,45.159L499.87,45.179L501.15,45.177L502.43,45.168L503.71,45.171L504.99,45.16L506.28,45.166L507.56,45.181L508.84,45.181L510.12,45.181L511.4,45.164L512.68,45.166L513.97,45.164L515.25,45.16L516.53,45.171L517.81,45.16L519.09,45.164L520.38,45.159L521.66,45.159L522.94,45.168L524.22,45.162L525.5,45.162L526.79,45.159L528.07,45.157L529.35,45.162L530.63,45.162L531.91,45.157L533.19,45.16L534.48,45.153L535.76,45.157L537.04,45.157L538.32,45.157L539.6,45.155L540.89,45.162L542.17,45.157L543.45,45.157L544.73,45.153L546.01,45.157L547.3,45.16L548.58,45.153L549.86,45.162L551.14,45.157L552.42,45.153L553.71,45.151L556.27,45.159L558.83,45.159L560.11,45.153L561.4,45.155L562.68,45.155L563.96,45.151L565.24,45.153L566.52,45.151L569.09,45.151L570.37,45.151L571.65,45.155L572.93,45.151L574.22,45.153L575.5,45.159L576.78,45.155L578.06,45.155L579.34,45.151L580.62,45.153L584.47,45.151L585.75,45.151L590.88,45.153L594.73,45.153L596.01,45.151L601.13,45.153L602.42,45.151L603.7,45.151L606.26,45.151L625.49,45.151L628.05,45.153L633.18,45.151L634.46,45.151L637.03,45.151L638.31,45.151L640.87,45.151L646,45.151L660.1,45.151L661.38,45.151L663.95,45.151L665.23,45.151L697.28,45.151L711.38,45.151" style="fill:none;stroke:#0000FF" />
</g>
</svg>
