<?xml version="1.0"?>
<!-- Generated by SVGo and Plotinum VG -->
<svg width="720pt" height="432pt" viewBox="0 0 720 432"
	xmlns="http://www.w3.org/2000/svg"
	xmlns:xlink="http://www.w3.org/1999/xlink">
<g transform="scale(1, -1) translate(0, -432)">
<path d="M0,0L720,0L720,432L0,432Z" style="fill:#FFFFFF" />
<text x="358.5" y="-420.45" transform="scale(1, -1)"
	style="font-family:Times;font-weight:normal;font-style:normal;font-size:12px"> </text>
<text x="379.31" y="-3.8613" transform="scale(1, -1)"
	style="font-family:Times;font-weight:normal;font-style:normal;font-size:12px">Costs</text>
<text x="62.805" y="-18.634" transform="scale(1, -1)"
	style="font-family:Times;font-weight:normal;font-style:normal;font-size:10px">0</text>
<text x="338.79" y="-18.634" transform="scale(1, -1)"
	style="font-family:Times;font-weight:normal;font-style:normal;font-size:10px">200</text>
<text x="619.77" y="-18.634" transform="scale(1, -1)"
	style="font-family:Times;font-weight:normal;font-style:normal;font-size:10px">400</text>
<path d="M65.305,28.263L65.305,36.263" style="fill:none;stroke:#000000;stroke-width:0.5" />
<path d="M346.29,28.263L346.29,36.263" style="fill:none;stroke:#000000;stroke-width:0.5" />
<path d="M627.27,28.263L627.27,36.263" style="fill:none;stroke:#000000;stroke-width:0.5" />
<path d="M205.8,32.263L205.8,36.263" style="fill:none;stroke:#000000;stroke-width:0.5" />
<path d="M486.78,32.263L486.78,36.263" style="fill:none;stroke:#000000;stroke-width:0.5" />
<path d="M65.305,36.263L720,36.263" style="fill:none;stroke:#000000;stroke-width:0.5" />
<g transform="rotate(90)">
<text x="152.55" y="11.555" transform="scale(1, -1)"
	style="font-family:Times;font-weight:normal;font-style:normal;font-size:12px">Number of trials (1000000 total)</text>
</g>
<text x="24.055" y="-114.4" transform="scale(1, -1)"
	style="font-family:Times;font-weight:normal;font-style:normal;font-size:10px">40000</text>
<text x="19.055" y="-259.32" transform="scale(1, -1)"
	style="font-family:Times;font-weight:normal;font-style:normal;font-size:10px">120000</text>
<text x="19.055" y="-404.23" transform="scale(1, -1)"
	style="font-family:Times;font-weight:normal;font-style:normal;font-size:10px">200000</text>
<path d="M51.555,117.61L59.555,117.61" style="fill:none;stroke:#000000;stroke-width:0.5" />
<path d="M51.555,262.52L59.555,262.52" style="fill:none;stroke:#000000;stroke-width:0.5" />
<path d="M51.555,407.44L59.555,407.44" style="fill:none;stroke:#000000;stroke-width:0.5" />
<path d="M55.555,190.07L59.555,190.07" style="fill:none;stroke:#000000;stroke-width:0.5" />
<path d="M55.555,334.98L59.555,334.98" style="fill:none;stroke:#000000;stroke-width:0.5" />
<path d="M59.555,45.151L59.555,416.58" style="fill:none;stroke:#000000;stroke-width:0.5" />
<path d="M65.305,416.58L96.213,52.145L101.83,55.714L104.64,55.526L106.05,62.94L108.86,66.065L110.26,51.789L111.67,52.221L113.07,110.61L115.88,59.038L117.29,48.562L118.69,81.379L120.1,81.882L121.5,74.912L122.91,55.254L124.31,55.536L125.72,55.515L127.12,78.263L128.53,48.401L129.93,55.582L132.74,52.136L134.15,66.478L135.55,55.795L136.96,52.43L139.77,90.66L141.17,56.078L142.58,52.72L143.98,63.69L145.39,52.781L146.79,45.731L148.2,52.743L149.6,48.934L151.01,63.599L152.41,55.538L153.81,89.411L155.22,47.16L156.62,50.955L158.03,48.964L159.43,50.307L160.84,52.432L162.24,49.58L163.65,52.265L165.05,49.881L166.46,54.727L167.86,64.972L169.27,56.41L170.67,53.049L172.08,50.694L173.48,79.145L174.89,56.252L176.29,52.644L177.7,59.23L179.1,62.036L180.51,55.997L181.91,55.489L183.32,55.134L184.72,53.374L186.13,50.207L187.53,59.784L188.94,53.192L190.34,54.54L191.75,53.846L193.15,54.663L194.56,56.1L195.96,56.067L197.37,54.594L198.77,55.924L200.18,51.852L201.58,59.839L202.99,49.522L204.39,54.163L205.8,51.714L207.2,54.971L208.61,55.279L210.01,54.276L211.42,51.16L212.82,52.185L214.23,53.375L215.63,54.85L217.04,51.394L218.44,52.658L219.85,50.914L221.25,55.305L222.66,53.145L224.06,52.218L225.47,52.654L226.87,54.301L228.28,57.112L229.68,53.64L231.09,51.388L232.49,52.79L233.9,51.636L235.3,52.202L236.71,50.533L238.11,51.01L239.52,51.43L240.92,51.165L242.33,53.171L243.73,50.745L245.14,50.263L246.54,49.829L247.95,52.933L249.35,50.754L250.75,49.705L252.16,51.575L253.56,51.142L254.97,50.309L256.37,51.403L257.78,50.285L259.18,50.347L260.59,49.515L261.99,52.202L263.4,49.729L264.8,49.457L266.21,50.102L267.61,49.995L269.02,49.519L270.42,49.294L271.83,49.24L273.23,49.135L274.64,48.769L276.04,50.43L277.45,49.24L278.85,48.941L280.26,49.086L281.66,49.26L283.07,49.164L284.47,48.939L285.88,49.022L287.28,49.388L288.69,48.51L290.09,48.979L291.5,48.53L292.9,48.345L294.31,48.224L295.71,48.814L297.12,48.336L298.52,48.303L299.93,48.08L301.33,48.303L302.74,48.334L304.14,48.341L305.55,47.783L306.95,48.158L308.36,47.711L309.76,48.33L311.17,47.671L312.57,47.791L313.98,47.713L315.38,47.782L316.79,47.691L318.19,47.59L319.6,47.26L321,47.421L322.41,47.374L323.81,47.49L325.22,47.077L326.62,47.26L328.03,47.104L329.43,47.102L330.84,47.253L332.24,47.124L333.65,46.972L335.05,46.956L336.46,47.048L337.86,46.93L339.27,46.8L340.67,46.867L342.08,46.758L343.48,46.769L344.88,46.74L346.29,46.626L347.69,46.582L349.1,46.521L350.5,46.709L351.91,46.572L353.31,46.45L354.72,46.508L356.12,46.492L357.53,46.428L358.93,46.336L360.34,46.356L361.74,46.425L363.15,46.352L364.55,46.322L365.96,46.325L367.36,46.139L368.77,46.226L370.17,46.175L371.58,46.231L372.98,46.144L374.39,46.206L375.79,46.077L377.2,46.015L378.6,45.972L380.01,46.059L381.41,45.996L382.82,45.934L384.22,45.948L385.63,45.901L387.03,45.977L388.44,45.871L389.84,45.914L391.25,45.861L392.65,45.872L394.06,45.793L395.46,45.825L396.87,45.767L398.27,45.789L399.68,45.776L401.08,45.735L402.49,45.662L403.89,45.738L405.3,45.698L406.7,45.659L408.11,45.608L409.51,45.61L410.92,45.633L412.32,45.63L413.73,45.646L415.13,45.554L416.54,45.626L417.94,45.622L419.35,45.572L420.75,45.539L422.16,45.544L423.56,45.602L424.97,45.497L426.37,45.543L427.78,45.525L429.18,45.483L430.59,45.515L431.99,45.401L433.4,45.463L434.8,45.481L436.21,45.409L437.61,45.461L439.01,45.421L440.42,45.445L441.82,45.436L443.23,45.374L444.63,45.372L446.04,45.405L447.44,45.381L448.85,45.36L450.25,45.38L451.66,45.351L453.06,45.365L454.47,45.361L455.87,45.358L457.28,45.361L458.68,45.378L460.09,45.352L461.49,45.323L462.9,45.354L464.3,45.32L465.71,45.343L467.11,45.3L468.52,45.316L469.92,45.307L471.33,45.307L472.73,45.282L474.14,45.264L475.54,45.282L476.95,45.249L478.35,45.276L479.76,45.24L481.16,45.271L482.57,45.262L483.97,45.293L485.38,45.278L486.78,45.26L488.19,45.249L489.59,45.235L491,45.255L492.4,45.258L493.81,45.246L495.21,45.231L496.62,45.26L498.02,45.227L499.43,45.233L500.83,45.218L502.24,45.208L503.64,45.238L505.05,45.227L506.45,45.22L507.86,45.204L509.26,45.211L510.67,45.208L512.07,45.226L513.48,45.186L514.88,45.206L516.29,45.195L517.69,45.197L519.1,45.206L520.5,45.2L521.91,45.197L523.31,45.2L524.72,45.191L526.12,45.179L527.53,45.204L528.93,45.193L530.34,45.188L531.74,45.189L533.14,45.186L534.55,45.18L535.95,45.177L537.36,45.186L538.76,45.175L540.17,45.171L541.57,45.179L542.98,45.179L544.38,45.166L545.79,45.175L547.19,45.171L548.6,45.18L550,45.182L551.41,45.18L552.81,45.186L554.22,45.164L555.62,45.175L557.03,45.173L558.43,45.157L559.84,45.171L561.24,45.169L562.65,45.16L564.05,45.166L565.46,45.164L566.86,45.16L568.27,45.171L569.67,45.162L571.08,45.164L572.48,45.168L573.89,45.153L575.29,45.168L576.7,45.168L578.1,45.162L579.51,45.159L580.91,45.162L582.32,45.159L583.72,45.169L585.13,45.16L586.53,45.157L587.94,45.164L589.34,45.155L590.75,45.16L592.15,45.168L593.56,45.153L594.96,45.16L596.37,45.157L597.77,45.155L599.18,45.153L600.58,45.16L601.99,45.153L603.39,45.157L604.8,45.162L606.2,45.153L607.61,45.153L610.42,45.151L611.82,45.157L613.23,45.151L614.63,45.153L616.04,45.157L617.44,45.151L618.85,45.153L620.25,45.151L624.47,45.151L625.87,45.153L627.27,45.155L628.68,45.151L631.49,45.151L634.3,45.155L635.7,45.151L637.11,45.153L639.92,45.16L641.32,45.151L642.73,45.153L644.13,45.153L645.54,45.151L646.94,45.155L648.35,45.151L649.75,45.155L651.16,45.151L652.56,45.151L653.97,45.151L659.59,45.151L660.99,45.151L662.4,45.151L663.8,45.153L665.21,45.157L670.83,45.151L677.85,45.151L679.26,45.151L682.07,45.151L689.09,45.151L693.31,45.151L698.93,45.151L714.38,45.151L720,45.151" style="fill:none;stroke:#0000FF" />
</g>
</svg>
