<?xml version="1.0"?>
<!-- Generated by SVGo and Plotinum VG -->
<svg width="720pt" height="432pt" viewBox="0 0 720 432"
	xmlns="http://www.w3.org/2000/svg"
	xmlns:xlink="http://www.w3.org/1999/xlink">
<g transform="scale(1, -1) translate(0, -432)">
<path d="M0,0L720,0L720,432L0,432Z" style="fill:#FFFFFF" />
<text x="358.5" y="-420.45" transform="scale(1, -1)"
	style="font-family:Times;font-weight:normal;font-style:normal;font-size:12px"> </text>
<text x="379.31" y="-3.8613" transform="scale(1, -1)"
	style="font-family:Times;font-weight:normal;font-style:normal;font-size:12px">Costs</text>
<text x="56.555" y="-18.634" transform="scale(1, -1)"
	style="font-family:Times;font-weight:normal;font-style:normal;font-size:10px">0.00</text>
<text x="350.78" y="-18.634" transform="scale(1, -1)"
	style="font-family:Times;font-weight:normal;font-style:normal;font-size:10px">250.00</text>
<text x="650" y="-18.634" transform="scale(1, -1)"
	style="font-family:Times;font-weight:normal;font-style:normal;font-size:10px">500.00</text>
<path d="M65.305,28.263L65.305,36.263" style="fill:none;stroke:#000000;stroke-width:0.5" />
<path d="M364.53,28.263L364.53,36.263" style="fill:none;stroke:#000000;stroke-width:0.5" />
<path d="M663.75,28.263L663.75,36.263" style="fill:none;stroke:#000000;stroke-width:0.5" />
<path d="M125.15,32.263L125.15,36.263" style="fill:none;stroke:#000000;stroke-width:0.5" />
<path d="M184.99,32.263L184.99,36.263" style="fill:none;stroke:#000000;stroke-width:0.5" />
<path d="M244.84,32.263L244.84,36.263" style="fill:none;stroke:#000000;stroke-width:0.5" />
<path d="M304.68,32.263L304.68,36.263" style="fill:none;stroke:#000000;stroke-width:0.5" />
<path d="M424.37,32.263L424.37,36.263" style="fill:none;stroke:#000000;stroke-width:0.5" />
<path d="M484.21,32.263L484.21,36.263" style="fill:none;stroke:#000000;stroke-width:0.5" />
<path d="M544.06,32.263L544.06,36.263" style="fill:none;stroke:#000000;stroke-width:0.5" />
<path d="M603.9,32.263L603.9,36.263" style="fill:none;stroke:#000000;stroke-width:0.5" />
<path d="M65.305,36.263L720,36.263" style="fill:none;stroke:#000000;stroke-width:0.5" />
<g transform="rotate(90)">
<text x="152.55" y="11.555" transform="scale(1, -1)"
	style="font-family:Times;font-weight:normal;font-style:normal;font-size:12px">Number of trials (1000000 total)</text>
</g>
<text x="24.055" y="-113.16" transform="scale(1, -1)"
	style="font-family:Times;font-weight:normal;font-style:normal;font-size:10px">40000</text>
<text x="19.055" y="-255.59" transform="scale(1, -1)"
	style="font-family:Times;font-weight:normal;font-style:normal;font-size:10px">120000</text>
<text x="19.055" y="-398.03" transform="scale(1, -1)"
	style="font-family:Times;font-weight:normal;font-style:normal;font-size:10px">200000</text>
<path d="M51.555,116.37L59.555,116.37" style="fill:none;stroke:#000000;stroke-width:0.5" />
<path d="M51.555,258.8L59.555,258.8" style="fill:none;stroke:#000000;stroke-width:0.5" />
<path d="M51.555,401.23L59.555,401.23" style="fill:none;stroke:#000000;stroke-width:0.5" />
<path d="M55.555,187.58L59.555,187.58" style="fill:none;stroke:#000000;stroke-width:0.5" />
<path d="M55.555,330.02L59.555,330.02" style="fill:none;stroke:#000000;stroke-width:0.5" />
<path d="M59.555,45.151L59.555,416.58" style="fill:none;stroke:#000000;stroke-width:0.5" />
<path d="M65.305,416.58L91.636,48.814L92.833,48.618L96.424,62.517L97.621,48.588L98.817,62.688L101.21,48.589L102.41,60.296L103.6,67.244L104.8,56.918L106,101.86L107.2,89.111L108.39,48.611L109.59,52.129L110.79,48.55L111.98,63.73L113.18,55.366L114.38,70.622L115.57,55.533L116.77,67.613L117.97,93.037L119.16,56.749L120.36,52.118L122.76,45.319L123.95,63.114L125.15,60.593L126.35,62.523L127.54,45.321L128.74,55.761L129.94,49.795L131.13,49.163L132.33,79.179L133.53,50.258L134.72,58.437L135.92,46.658L137.12,60.901L138.31,96.534L139.51,52.405L140.71,48.931L141.91,46.989L143.1,49.739L144.3,51.513L145.5,62.761L146.69,51.012L147.89,55.106L149.09,50.534L150.28,50.532L151.48,51.632L152.68,62.259L153.87,52.033L155.07,54.791L156.27,55.127L157.46,71.961L158.66,58.008L159.86,55.202L161.06,61.827L162.25,61.893L163.45,51.696L164.65,54.511L165.84,56.736L167.04,55.476L168.24,52.186L169.43,55.034L170.63,53.722L171.83,53.712L173.02,55.122L174.22,53.421L175.42,53.443L176.61,55.529L177.81,54.187L179.01,60.992L180.21,55.009L181.4,52.136L182.6,50.031L183.8,52.342L184.99,55.805L186.19,53.753L187.39,54.477L188.58,50.984L189.78,53.186L190.98,56.735L192.17,52.198L193.37,52.971L194.57,51.016L195.76,51.317L196.96,52.212L198.16,55.627L199.36,54.539L200.55,50.396L201.75,53.007L202.95,52.018L204.14,52.773L205.34,55.205L206.54,51.839L207.73,51.324L208.93,50.61L210.13,53.475L211.32,52.036L212.52,51.614L213.72,51.045L214.92,50.578L216.11,50.348L217.31,50.477L218.51,51.531L219.7,50.405L220.9,50.455L222.1,49.857L223.29,49.269L224.49,51.094L225.69,51.324L226.88,49.974L228.08,50.382L229.28,50.534L230.47,51.876L231.67,50.092L232.87,49.946L234.07,50.083L235.26,50.153L236.46,48.637L237.66,49.277L238.85,49.44L240.05,49.3L241.25,48.758L242.44,48.846L243.64,48.931L244.84,49.259L246.03,49.139L247.23,48.675L248.43,48.732L249.62,48.698L250.82,48.787L252.02,48.83L253.22,48.796L254.41,48.865L255.61,47.907L256.81,48.29L258,48.764L259.2,48.231L260.4,47.854L261.59,47.954L262.79,47.939L263.99,47.966L265.18,48.132L266.38,47.897L267.58,47.656L268.77,47.749L269.97,47.678L271.17,48.114L272.37,47.696L273.56,47.639L274.76,47.468L275.96,47.439L277.15,47.489L278.35,47.423L279.55,47.361L280.74,47.208L281.94,47.22L283.14,47.275L284.33,47.085L285.53,47.213L286.73,47.06L287.93,46.962L289.12,46.937L290.32,46.82L291.52,46.85L292.71,46.773L293.91,46.866L295.11,46.829L296.3,46.618L297.5,46.818L298.7,46.643L299.89,46.604L301.09,46.478L302.29,46.579L303.48,46.419L304.68,46.48L305.88,46.435L307.08,46.412L308.27,46.31L309.47,46.216L310.67,46.387L311.86,46.22L313.06,46.253L314.26,46.214L315.45,46.184L316.65,46.122L317.85,46.229L319.04,46.143L320.24,46.113L321.44,46.116L322.63,46.027L323.83,46.052L325.03,46.113L326.23,46.102L327.42,46.061L328.62,45.874L329.82,45.94L331.01,45.944L332.21,45.921L333.41,45.929L334.6,45.83L335.8,45.888L337,45.775L338.19,45.817L339.39,45.776L340.59,45.766L341.78,45.735L342.98,45.742L344.18,45.748L345.38,45.63L346.57,45.726L347.77,45.702L348.97,45.675L350.16,45.621L351.36,45.621L352.56,45.648L353.75,45.598L354.95,45.596L356.15,45.589L357.34,45.539L358.54,45.548L359.74,45.534L360.93,45.491L362.13,45.532L363.33,45.538L364.53,45.433L365.72,45.513L366.92,45.477L368.12,45.459L369.31,45.479L370.51,45.429L371.71,45.454L372.9,45.44L374.1,45.445L375.3,45.433L376.49,45.424L377.69,45.392L378.89,45.404L380.09,45.37L381.28,45.395L382.48,45.379L383.68,45.342L384.87,45.321L386.07,45.351L387.27,45.349L388.46,45.315L389.66,45.358L390.86,45.303L392.05,45.319L393.25,45.324L394.45,45.329L395.64,45.308L396.84,45.308L398.04,45.313L399.24,45.299L400.43,45.278L401.63,45.274L402.83,45.28L404.02,45.288L405.22,45.278L406.42,45.269L407.61,45.262L408.81,45.255L410.01,45.271L411.2,45.249L412.4,45.267L413.6,45.258L414.79,45.244L415.99,45.233L417.19,45.244L418.39,45.246L419.58,45.224L420.78,45.223L421.98,45.226L423.17,45.231L424.37,45.215L425.57,45.231L426.76,45.242L427.96,45.207L429.16,45.237L430.35,45.212L431.55,45.205L432.75,45.191L433.94,45.21L435.14,45.201L436.34,45.201L437.54,45.196L438.73,45.191L439.93,45.208L441.13,45.199L442.32,45.18L443.52,45.21L444.72,45.208L445.91,45.196L447.11,45.198L448.31,45.192L449.5,45.18L450.7,45.183L451.9,45.187L453.09,45.189L454.29,45.178L455.49,45.169L456.69,45.178L457.88,45.175L459.08,45.164L460.28,45.178L461.47,45.169L462.67,45.157L463.87,45.178L465.06,45.171L466.26,45.169L467.46,45.178L468.65,45.166L469.85,45.164L471.05,45.16L472.25,45.164L473.44,45.169L474.64,45.162L475.84,45.167L477.03,45.162L478.23,45.166L479.43,45.153L480.62,45.167L481.82,45.162L483.02,45.155L484.21,45.16L485.41,45.153L486.61,45.166L487.8,45.157L489,45.157L490.2,45.16L491.4,45.157L492.59,45.167L493.79,45.16L494.99,45.155L496.18,45.158L497.38,45.162L498.58,45.16L499.77,45.16L500.97,45.16L502.17,45.16L503.36,45.155L504.56,45.155L505.76,45.151L506.95,45.16L508.15,45.158L509.35,45.157L510.55,45.153L511.74,45.153L512.94,45.16L514.14,45.153L515.33,45.151L517.73,45.157L518.92,45.155L521.32,45.151L522.51,45.157L523.71,45.153L524.91,45.155L526.1,45.151L527.3,45.153L528.5,45.16L529.7,45.155L532.09,45.151L534.48,45.153L535.68,45.155L536.88,45.151L538.07,45.151L539.27,45.151L540.47,45.153L541.66,45.151L542.86,45.153L544.06,45.151L545.25,45.151L546.45,45.153L547.65,45.151L548.85,45.155L550.04,45.153L551.24,45.153L553.63,45.151L554.83,45.151L568,45.151L569.19,45.151L571.59,45.153L575.18,45.151L576.37,45.151L578.77,45.151L584.75,45.151L587.15,45.151L589.54,45.151L590.74,45.151L593.13,45.151L595.52,45.151L600.31,45.151L621.86,45.151L720,45.151" style="fill:none;stroke:#0000FF" />
</g>
</svg>
