<?xml version="1.0"?>
<!-- Generated by SVGo and Plotinum VG -->
<svg width="720pt" height="432pt" viewBox="0 0 720 432"
	xmlns="http://www.w3.org/2000/svg"
	xmlns:xlink="http://www.w3.org/1999/xlink">
<g transform="scale(1, -1) translate(0, -432)">
<path d="M0,0L720,0L720,432L0,432Z" style="fill:#FFFFFF" />
<text x="358.5" y="-420.45" transform="scale(1, -1)"
	style="font-family:Times;font-weight:normal;font-style:normal;font-size:12px"> </text>
<text x="376.81" y="-3.8613" transform="scale(1, -1)"
	style="font-family:Times;font-weight:normal;font-style:normal;font-size:12px">Costs</text>
<text x="51.555" y="-18.634" transform="scale(1, -1)"
	style="font-family:Times;font-weight:normal;font-style:normal;font-size:10px">0.00</text>
<text x="349.72" y="-18.634" transform="scale(1, -1)"
	style="font-family:Times;font-weight:normal;font-style:normal;font-size:10px">250.00</text>
<text x="652.89" y="-18.634" transform="scale(1, -1)"
	style="font-family:Times;font-weight:normal;font-style:normal;font-size:10px">500.00</text>
<path d="M60.305,28.263L60.305,36.263" style="fill:none;stroke:#000000;stroke-width:0.5" />
<path d="M363.47,28.263L363.47,36.263" style="fill:none;stroke:#000000;stroke-width:0.5" />
<path d="M666.64,28.263L666.64,36.263" style="fill:none;stroke:#000000;stroke-width:0.5" />
<path d="M120.94,32.263L120.94,36.263" style="fill:none;stroke:#000000;stroke-width:0.5" />
<path d="M181.57,32.263L181.57,36.263" style="fill:none;stroke:#000000;stroke-width:0.5" />
<path d="M242.21,32.263L242.21,36.263" style="fill:none;stroke:#000000;stroke-width:0.5" />
<path d="M302.84,32.263L302.84,36.263" style="fill:none;stroke:#000000;stroke-width:0.5" />
<path d="M424.11,32.263L424.11,36.263" style="fill:none;stroke:#000000;stroke-width:0.5" />
<path d="M484.74,32.263L484.74,36.263" style="fill:none;stroke:#000000;stroke-width:0.5" />
<path d="M545.37,32.263L545.37,36.263" style="fill:none;stroke:#000000;stroke-width:0.5" />
<path d="M606.01,32.263L606.01,36.263" style="fill:none;stroke:#000000;stroke-width:0.5" />
<path d="M60.305,36.263L720,36.263" style="fill:none;stroke:#000000;stroke-width:0.5" />
<g transform="rotate(90)">
<text x="152.55" y="11.555" transform="scale(1, -1)"
	style="font-family:Times;font-weight:normal;font-style:normal;font-size:12px">Number of trials (1000000 total)</text>
</g>
<text x="19.055" y="-83.84" transform="scale(1, -1)"
	style="font-family:Times;font-weight:normal;font-style:normal;font-size:10px">10000</text>
<text x="19.055" y="-209.53" transform="scale(1, -1)"
	style="font-family:Times;font-weight:normal;font-style:normal;font-size:10px">40000</text>
<text x="19.055" y="-335.23" transform="scale(1, -1)"
	style="font-family:Times;font-weight:normal;font-style:normal;font-size:10px">70000</text>
<path d="M46.555,87.045L54.555,87.045" style="fill:none;stroke:#000000;stroke-width:0.5" />
<path d="M46.555,212.74L54.555,212.74" style="fill:none;stroke:#000000;stroke-width:0.5" />
<path d="M46.555,338.44L54.555,338.44" style="fill:none;stroke:#000000;stroke-width:0.5" />
<path d="M50.555,128.94L54.555,128.94" style="fill:none;stroke:#000000;stroke-width:0.5" />
<path d="M50.555,170.84L54.555,170.84" style="fill:none;stroke:#000000;stroke-width:0.5" />
<path d="M50.555,254.64L54.555,254.64" style="fill:none;stroke:#000000;stroke-width:0.5" />
<path d="M50.555,296.54L54.555,296.54" style="fill:none;stroke:#000000;stroke-width:0.5" />
<path d="M50.555,380.33L54.555,380.33" style="fill:none;stroke:#000000;stroke-width:0.5" />
<path d="M54.555,45.151L54.555,416.58" style="fill:none;stroke:#000000;stroke-width:0.5" />
<path d="M60.305,416.58L86.984,48.696L88.196,48.495L89.409,75.373L91.834,48.503L93.047,88.931L94.26,79.65L95.472,52.044L96.685,49.01L99.11,70.529L100.32,66.926L101.54,77.057L102.75,74.166L103.96,59.162L106.39,84.314L107.6,83.911L108.81,91.122L110.02,113.19L111.24,92.337L112.45,84.737L113.66,63.532L114.88,55.99L116.09,71.258L117.3,45.373L118.51,45.177L119.73,71.124L120.94,66.98L122.15,71.216L123.36,47.598L124.58,108.4L125.79,58.161L127,49.492L128.21,78.004L129.43,66.189L130.64,48.797L131.85,80.291L133.07,52.073L134.28,56.074L135.49,78.268L136.7,58.144L137.92,52.525L139.13,58.266L140.34,60.44L141.55,65.983L142.77,63.737L143.98,62.481L145.19,62.485L146.4,89.455L147.62,59.099L148.83,84.557L150.04,73.169L151.26,64.546L152.47,64.257L153.68,92.576L154.89,66.918L156.11,66.323L157.32,76.63L158.53,94.227L159.74,67.6L160.96,73.223L162.17,71.363L163.38,69.938L164.59,66.989L165.81,66.871L167.02,64.622L168.23,66.804L169.45,64.358L170.66,71.292L171.87,68.895L173.08,66.892L174.3,72.025L175.51,72.31L176.72,66.825L177.93,69.633L179.15,66.654L180.36,67.906L181.57,67.655L182.78,66.046L184,65.983L185.21,66.838L186.42,66.18L187.64,67.843L188.85,65.971L190.06,63.968L191.27,64.475L192.49,70.32L193.7,65.598L194.91,65.916L196.12,72.699L197.34,69.004L198.55,66.369L199.76,72.838L200.98,68.074L202.19,65.392L203.4,66.721L204.61,66.306L205.83,67.885L207.04,67.353L208.25,67.793L209.46,66.704L210.68,69.553L211.89,61.927L213.1,66.758L214.31,67.843L215.53,63.197L216.74,62.129L217.95,69.561L219.17,62.145L220.38,63.788L221.59,65.983L222.8,66.31L224.02,61.814L225.23,64.416L226.44,63.365L227.65,61.982L228.87,62.2L230.08,63.318L231.29,60.708L232.5,61.383L233.72,62.778L234.93,63.704L236.14,61.249L237.36,61.169L238.57,61.513L239.78,62.954L240.99,60.189L242.21,62.388L243.42,62.204L244.63,61.961L245.84,60.758L247.06,62.028L248.27,61.144L249.48,60.633L250.69,60.629L251.91,61.894L253.12,59.208L254.33,59.531L255.55,59.506L256.76,60.063L257.97,58.856L259.18,59.229L260.4,59.489L261.61,59.372L262.82,58.069L264.03,58.848L265.25,58.232L266.46,57.595L267.67,58.366L268.88,57.591L270.1,57.868L271.31,57.75L272.52,57.298L273.74,56.937L274.95,57.172L276.16,56.548L277.37,56.011L278.59,56.263L279.8,55.882L281.01,55.697L282.22,55.902L283.44,55.349L284.65,54.96L285.86,55.974L287.07,55.349L288.29,54.801L289.5,55.157L290.71,54.574L291.93,54.662L293.14,54.662L294.35,55.081L295.56,54.247L296.78,54.055L297.99,54.327L299.2,54.176L300.41,53.565L301.63,53.682L302.84,53.527L304.05,53.644L305.27,52.957L306.48,53.284L307.69,53.472L308.9,52.781L310.12,52.643L311.33,52.718L312.54,52.626L313.75,52.555L314.97,52.446L316.18,52.396L317.39,51.905L318.6,51.977L319.82,51.889L321.03,51.47L322.24,51.394L323.46,51.252L324.67,51.189L325.88,51L327.09,51.093L328.31,51.168L329.52,50.669L330.73,50.611L331.94,50.824L333.16,50.791L334.37,50.397L335.58,50.506L336.79,50.372L338.01,50.242L339.22,50.074L340.43,50.087L341.65,49.898L342.86,49.601L344.07,49.735L345.28,49.664L346.5,49.735L347.71,49.312L348.92,49.102L350.13,49.299L351.35,49.228L352.56,49.211L353.77,49.232L354.98,48.977L356.2,48.813L357.41,48.972L358.62,48.876L359.84,48.528L361.05,48.683L362.26,48.826L363.47,48.562L364.69,48.382L365.9,48.453L367.11,48.264L368.32,48.026L369.54,48.097L370.75,48L371.96,48.063L373.17,47.938L374.39,47.9L375.6,47.829L376.81,47.762L378.03,47.586L379.24,47.787L380.45,47.778L381.66,47.678L382.88,47.569L384.09,47.519L385.3,47.309L386.51,47.401L387.73,47.519L388.94,47.309L390.15,47.225L391.37,47.162L392.58,47.33L393.79,47.217L395,47.016L396.22,47.02L397.43,46.911L398.64,46.831L399.85,46.861L401.07,46.794L402.28,46.861L403.49,46.769L404.7,46.785L405.92,46.727L407.13,46.584L408.34,46.538L409.56,46.538L410.77,46.509L411.98,46.505L413.19,46.467L414.41,46.404L415.62,46.45L416.83,46.475L418.04,46.404L419.26,46.371L420.47,46.249L421.68,46.312L422.89,46.216L424.11,46.241L425.32,46.283L426.53,46.283L427.75,46.169L428.96,46.178L430.17,46.09L431.38,46.086L432.6,45.926L433.81,46.119L435.02,46.002L436.23,45.989L437.45,45.931L438.66,45.91L439.87,45.797L441.08,45.968L442.3,45.834L443.51,45.885L444.72,45.83L445.94,46.002L447.15,45.822L448.36,45.759L449.57,45.717L450.79,45.834L452,45.838L453.21,45.591L454.42,45.73L455.64,45.7L456.85,45.642L458.06,45.65L459.27,45.65L460.49,45.663L461.7,45.646L462.91,45.612L464.13,45.575L465.34,45.591L466.55,45.554L467.76,45.65L468.98,45.579L470.19,45.52L471.4,45.52L472.61,45.545L473.83,45.482L475.04,45.461L476.25,45.499L477.46,45.545L478.68,45.491L479.89,45.386L481.1,45.44L482.32,45.457L483.53,45.428L484.74,45.411L485.95,45.453L487.17,45.411L488.38,45.474L489.59,45.399L490.8,45.403L492.02,45.306L493.23,45.336L494.44,45.369L495.66,45.369L496.87,45.424L498.08,45.369L499.29,45.365L500.51,45.348L501.72,45.332L502.93,45.315L504.14,45.323L505.36,45.29L506.57,45.277L507.78,45.344L508.99,45.319L510.21,45.285L511.42,45.319L512.63,45.298L513.85,45.319L515.06,45.34L516.27,45.285L517.48,45.248L518.7,45.256L519.91,45.277L521.12,45.281L522.33,45.269L523.55,45.231L524.76,45.248L525.97,45.244L527.18,45.252L528.4,45.227L529.61,45.218L530.82,45.248L532.04,45.235L533.25,45.218L534.46,45.214L535.67,45.26L536.89,45.218L538.1,45.231L539.31,45.227L540.52,45.206L541.74,45.214L542.95,45.248L544.16,45.206L545.37,45.214L546.59,45.197L547.8,45.231L549.01,45.197L550.23,45.193L551.44,45.235L552.65,45.223L553.86,45.206L555.08,45.181L556.29,45.189L557.5,45.202L558.71,45.202L559.93,45.185L561.14,45.189L562.35,45.177L563.56,45.177L564.78,45.177L565.99,45.181L567.2,45.181L568.42,45.193L569.63,45.164L570.84,45.168L572.05,45.177L573.27,45.172L574.48,45.185L575.69,45.172L576.9,45.168L578.12,45.189L579.33,45.164L580.54,45.172L581.76,45.189L582.97,45.189L584.18,45.181L585.39,45.189L586.61,45.164L587.82,45.172L589.03,45.185L590.24,45.16L591.46,45.16L592.67,45.151L593.88,45.181L595.09,45.16L596.31,45.177L597.52,45.164L599.95,45.156L601.16,45.164L602.37,45.151L603.58,45.156L604.8,45.156L606.01,45.16L607.22,45.151L608.43,45.151L609.65,45.16L610.86,45.156L612.07,45.156L613.28,45.16L614.5,45.151L615.71,45.185L616.92,45.164L618.14,45.156L619.35,45.156L620.56,45.156L621.77,45.151L624.2,45.151L625.41,45.156L626.62,45.156L627.84,45.156L629.05,45.156L630.26,45.151L631.47,45.156L632.69,45.156L633.9,45.156L635.11,45.151L636.33,45.151L637.54,45.151L638.75,45.151L639.96,45.151L643.6,45.151L646.03,45.156L647.24,45.164L648.45,45.16L650.88,45.151L652.09,45.151L653.3,45.151L658.15,45.156L660.58,45.151L663,45.151L665.43,45.151L666.64,45.16L667.85,45.156L675.13,45.151L677.56,45.156L679.98,45.151L684.83,45.151L693.32,45.151L695.75,45.151L696.96,45.151L701.81,45.151L703.02,45.151L704.24,45.151L715.15,45.151L720,45.151" style="fill:none;stroke:#0000FF" />
</g>
</svg>
