<?xml version="1.0"?>
<!-- Generated by SVGo and Plotinum VG -->
<svg width="720pt" height="432pt" viewBox="0 0 720 432"
	xmlns="http://www.w3.org/2000/svg"
	xmlns:xlink="http://www.w3.org/1999/xlink">
<g transform="scale(1, -1) translate(0, -432)">
<path d="M0,0L720,0L720,432L0,432Z" style="fill:#FFFFFF" />
<text x="358.5" y="-420.45" transform="scale(1, -1)"
	style="font-family:Times;font-weight:normal;font-style:normal;font-size:12px"> </text>
<text x="379.31" y="-3.8613" transform="scale(1, -1)"
	style="font-family:Times;font-weight:normal;font-style:normal;font-size:12px">Costs</text>
<text x="62.805" y="-18.634" transform="scale(1, -1)"
	style="font-family:Times;font-weight:normal;font-style:normal;font-size:10px">0</text>
<text x="330.59" y="-18.634" transform="scale(1, -1)"
	style="font-family:Times;font-weight:normal;font-style:normal;font-size:10px">200</text>
<text x="603.38" y="-18.634" transform="scale(1, -1)"
	style="font-family:Times;font-weight:normal;font-style:normal;font-size:10px">400</text>
<path d="M65.305,28.263L65.305,36.263" style="fill:none;stroke:#000000;stroke-width:0.5" />
<path d="M338.09,28.263L338.09,36.263" style="fill:none;stroke:#000000;stroke-width:0.5" />
<path d="M610.88,28.263L610.88,36.263" style="fill:none;stroke:#000000;stroke-width:0.5" />
<path d="M201.7,32.263L201.7,36.263" style="fill:none;stroke:#000000;stroke-width:0.5" />
<path d="M474.49,32.263L474.49,36.263" style="fill:none;stroke:#000000;stroke-width:0.5" />
<path d="M65.305,36.263L720,36.263" style="fill:none;stroke:#000000;stroke-width:0.5" />
<g transform="rotate(90)">
<text x="152.55" y="11.555" transform="scale(1, -1)"
	style="font-family:Times;font-weight:normal;font-style:normal;font-size:12px">Number of trials (1000000 total)</text>
</g>
<text x="24.055" y="-108.49" transform="scale(1, -1)"
	style="font-family:Times;font-weight:normal;font-style:normal;font-size:10px">50000</text>
<text x="19.055" y="-241.58" transform="scale(1, -1)"
	style="font-family:Times;font-weight:normal;font-style:normal;font-size:10px">150000</text>
<text x="19.055" y="-374.67" transform="scale(1, -1)"
	style="font-family:Times;font-weight:normal;font-style:normal;font-size:10px">250000</text>
<path d="M51.555,111.7L59.555,111.7" style="fill:none;stroke:#000000;stroke-width:0.5" />
<path d="M51.555,244.79L59.555,244.79" style="fill:none;stroke:#000000;stroke-width:0.5" />
<path d="M51.555,377.88L59.555,377.88" style="fill:none;stroke:#000000;stroke-width:0.5" />
<path d="M55.555,178.24L59.555,178.24" style="fill:none;stroke:#000000;stroke-width:0.5" />
<path d="M55.555,311.33L59.555,311.33" style="fill:none;stroke:#000000;stroke-width:0.5" />
<path d="M59.555,45.151L59.555,416.58" style="fill:none;stroke:#000000;stroke-width:0.5" />
<path d="M65.305,416.58L95.312,48.685L100.77,55.502L102.13,55.61L103.5,59.316L104.86,52.274L106.22,52.177L107.59,59.129L108.95,66.155L110.31,51.962L111.68,83.46L113.04,59.347L115.77,52.147L117.13,52.32L118.5,52.213L121.23,62.538L122.59,55.409L123.95,69.62L125.32,73.172L126.68,52.069L128.05,55.439L130.77,48.803L132.14,66.559L133.5,55.755L134.87,59.166L136.23,45.298L137.59,101.44L138.96,59.416L140.32,49.231L141.69,49.117L143.05,53.159L144.41,46.327L145.78,53.717L147.14,51.041L148.51,54.512L149.87,61.756L151.23,58.116L152.6,47.186L153.96,48.079L155.33,48.762L156.69,47.707L158.05,48.351L159.42,49.016L160.78,48.166L162.15,48.858L163.51,49.12L164.87,52.443L166.24,58.86L167.6,51.357L168.96,50.741L170.33,61.597L171.69,51.091L173.06,50.629L174.42,57.452L175.78,62.184L177.15,50.117L178.51,51.714L179.88,51.645L181.24,53.796L182.6,50.278L183.97,55.493L185.33,52.445L186.7,49.543L188.06,50.164L189.42,50.451L190.79,50.878L192.15,50.496L193.52,52.368L194.88,51.526L196.24,52.458L197.61,53.19L198.97,49.384L200.34,49.631L201.7,49.156L203.06,48.662L204.43,50.664L205.79,50.522L207.16,50.904L208.52,49.787L209.88,52.973L211.25,51.13L212.61,50.254L213.98,49.127L215.34,48.955L216.7,49.623L218.07,50.152L219.43,49.058L220.79,49.456L222.16,51.286L223.52,50.274L224.89,48.251L226.25,48.763L227.61,48.437L228.98,48.399L230.34,48.384L231.71,48.701L233.07,49.07L234.43,48.819L235.8,48.991L237.16,48.718L238.53,49.243L239.89,48.368L241.25,48.062L242.62,49.694L243.98,48.692L245.35,47.884L246.71,48.436L248.07,49.398L249.44,48.019L250.8,48.135L252.17,48.077L253.53,48.057L254.89,47.788L256.26,48.015L257.62,47.592L258.99,47.59L260.35,47.747L261.71,47.504L263.08,47.181L264.44,47.214L265.81,47.341L267.17,47.134L268.53,47.282L269.9,47.349L271.26,47.301L272.62,46.91L273.99,46.957L275.35,47.136L276.72,47.258L278.08,47.073L279.44,47.233L280.81,47.257L282.17,46.996L283.54,46.874L284.9,47.045L286.26,46.685L287.63,46.508L288.99,46.654L290.36,46.691L291.72,46.679L293.08,46.544L294.45,46.703L295.81,46.603L297.18,46.381L298.54,46.425L299.9,46.323L301.27,46.373L302.63,46.37L304,46.368L305.36,46.348L306.72,46.356L308.09,46.259L309.45,46.174L310.82,46.209L312.18,46.168L313.54,46.066L314.91,46.261L316.27,46.127L317.64,46.075L319,46.056L320.36,46.09L321.73,45.971L323.09,46.064L324.45,46.028L325.82,45.953L327.18,45.933L328.55,45.949L329.91,45.862L331.27,45.818L332.64,45.867L334,45.802L335.37,45.77L336.73,45.746L338.09,45.769L339.46,45.696L340.82,45.737L342.19,45.768L343.55,45.76L344.91,45.664L346.28,45.633L347.64,45.658L349.01,45.702L350.37,45.64L351.73,45.641L353.1,45.636L354.46,45.627L355.83,45.605L357.19,45.528L358.55,45.533L359.92,45.573L361.28,45.583L362.65,45.549L364.01,45.488L365.37,45.535L366.74,45.521L368.1,45.495L369.47,45.457L370.83,45.457L372.19,45.456L373.56,45.468L374.92,45.436L376.28,45.455L377.65,45.422L379.01,45.424L380.38,45.424L381.74,45.403L383.1,45.4L384.47,45.346L385.83,45.376L387.2,45.352L388.56,45.407L389.92,45.391L391.29,45.375L392.65,45.342L394.02,45.348L395.38,45.322L396.74,45.308L398.11,45.31L399.47,45.307L400.84,45.327L402.2,45.316L403.56,45.302L404.93,45.311L406.29,45.295L407.66,45.287L409.02,45.264L410.38,45.299L411.75,45.278L413.11,45.275L414.48,45.258L415.84,45.268L417.2,45.272L418.57,45.276L419.93,45.286L421.3,45.25L422.66,45.264L424.02,45.241L425.39,45.257L426.75,45.229L428.12,45.218L429.48,45.233L430.84,45.227L432.21,45.223L433.57,45.219L434.93,45.218L436.3,45.223L437.66,45.199L439.03,45.218L440.39,45.206L441.75,45.202L443.12,45.207L444.48,45.207L445.85,45.205L447.21,45.223L448.57,45.203L449.94,45.203L451.3,45.186L452.67,45.193L454.03,45.198L455.39,45.185L456.76,45.201L458.12,45.186L459.49,45.19L460.85,45.197L462.21,45.185L463.58,45.186L464.94,45.186L466.31,45.182L467.67,45.195L469.03,45.19L470.4,45.19L471.76,45.179L473.13,45.19L474.49,45.173L475.85,45.178L477.22,45.177L478.58,45.167L479.95,45.181L481.31,45.178L482.67,45.177L484.04,45.174L485.4,45.181L486.76,45.163L488.13,45.177L489.49,45.174L490.86,45.163L492.22,45.165L493.58,45.165L494.95,45.163L496.31,45.157L497.68,45.157L499.04,45.169L500.4,45.163L501.77,45.165L503.13,45.163L504.5,45.163L505.86,45.159L507.22,45.163L508.59,45.162L509.95,45.161L511.32,45.166L512.68,45.169L514.04,45.159L515.41,45.158L516.77,45.162L518.14,45.169L519.5,45.154L520.86,45.158L523.59,45.161L524.96,45.151L526.32,45.159L527.68,45.161L529.05,45.158L530.41,45.154L531.78,45.165L533.14,45.161L534.5,45.154L537.23,45.157L538.59,45.158L539.96,45.155L541.32,45.154L542.69,45.151L544.05,45.157L545.41,45.155L546.78,45.155L548.14,45.155L549.51,45.157L550.87,45.153L552.23,45.151L553.6,45.153L554.96,45.153L556.33,45.151L557.69,45.151L559.05,45.154L561.78,45.158L563.15,45.155L564.51,45.153L565.87,45.151L567.24,45.153L569.97,45.153L571.33,45.153L572.69,45.154L575.42,45.153L576.79,45.151L578.15,45.155L580.88,45.151L583.61,45.151L584.97,45.151L587.7,45.153L590.42,45.154L591.79,45.151L595.88,45.151L604.06,45.151L606.79,45.151L608.16,45.151L610.88,45.151L614.98,45.151L617.7,45.151L619.07,45.151L620.43,45.151L623.16,45.151L625.89,45.153L627.25,45.151L629.98,45.151L639.53,45.151L650.44,45.151L707.72,45.151L720,45.151" style="fill:none;stroke:#0000FF" />
</g>
</svg>
