<?xml version="1.0"?>
<!-- Generated by SVGo and Plotinum VG -->
<svg width="720pt" height="432pt" viewBox="0 0 720 432"
	xmlns="http://www.w3.org/2000/svg"
	xmlns:xlink="http://www.w3.org/1999/xlink">
<g transform="scale(1, -1) translate(0, -432)">
<path d="M0,0L720,0L720,432L0,432Z" style="fill:#FFFFFF" />
<text x="358.5" y="-420.45" transform="scale(1, -1)"
	style="font-family:Times;font-weight:normal;font-style:normal;font-size:12px"> </text>
<text x="385.56" y="-3.8613" transform="scale(1, -1)"
	style="font-family:Times;font-weight:normal;font-style:normal;font-size:12px">Costs</text>
<text x="69.055" y="-18.634" transform="scale(1, -1)"
	style="font-family:Times;font-weight:normal;font-style:normal;font-size:10px">0.00</text>
<text x="357.03" y="-18.634" transform="scale(1, -1)"
	style="font-family:Times;font-weight:normal;font-style:normal;font-size:10px">250.00</text>
<text x="650" y="-18.634" transform="scale(1, -1)"
	style="font-family:Times;font-weight:normal;font-style:normal;font-size:10px">500.00</text>
<path d="M77.805,28.263L77.805,36.263" style="fill:none;stroke:#000000;stroke-width:0.5" />
<path d="M370.78,28.263L370.78,36.263" style="fill:none;stroke:#000000;stroke-width:0.5" />
<path d="M663.75,28.263L663.75,36.263" style="fill:none;stroke:#000000;stroke-width:0.5" />
<path d="M136.4,32.263L136.4,36.263" style="fill:none;stroke:#000000;stroke-width:0.5" />
<path d="M194.99,32.263L194.99,36.263" style="fill:none;stroke:#000000;stroke-width:0.5" />
<path d="M253.59,32.263L253.59,36.263" style="fill:none;stroke:#000000;stroke-width:0.5" />
<path d="M312.18,32.263L312.18,36.263" style="fill:none;stroke:#000000;stroke-width:0.5" />
<path d="M429.37,32.263L429.37,36.263" style="fill:none;stroke:#000000;stroke-width:0.5" />
<path d="M487.97,32.263L487.97,36.263" style="fill:none;stroke:#000000;stroke-width:0.5" />
<path d="M546.56,32.263L546.56,36.263" style="fill:none;stroke:#000000;stroke-width:0.5" />
<path d="M605.15,32.263L605.15,36.263" style="fill:none;stroke:#000000;stroke-width:0.5" />
<path d="M77.805,36.263L720,36.263" style="fill:none;stroke:#000000;stroke-width:0.5" />
<g transform="rotate(90)">
<text x="152.55" y="11.555" transform="scale(1, -1)"
	style="font-family:Times;font-weight:normal;font-style:normal;font-size:12px">Number of trials (1000000 total)</text>
</g>
<text x="24.055" y="-110.5" transform="scale(1, -1)"
	style="font-family:Times;font-weight:normal;font-style:normal;font-size:10px">25000.00</text>
<text x="24.055" y="-247.61" transform="scale(1, -1)"
	style="font-family:Times;font-weight:normal;font-style:normal;font-size:10px">75000.00</text>
<text x="19.055" y="-384.72" transform="scale(1, -1)"
	style="font-family:Times;font-weight:normal;font-style:normal;font-size:10px">125000.00</text>
<path d="M64.055,113.7L72.055,113.7" style="fill:none;stroke:#000000;stroke-width:0.5" />
<path d="M64.055,250.81L72.055,250.81" style="fill:none;stroke:#000000;stroke-width:0.5" />
<path d="M64.055,387.92L72.055,387.92" style="fill:none;stroke:#000000;stroke-width:0.5" />
<path d="M68.055,58.86L72.055,58.86" style="fill:none;stroke:#000000;stroke-width:0.5" />
<path d="M68.055,86.282L72.055,86.282" style="fill:none;stroke:#000000;stroke-width:0.5" />
<path d="M68.055,141.13L72.055,141.13" style="fill:none;stroke:#000000;stroke-width:0.5" />
<path d="M68.055,168.55L72.055,168.55" style="fill:none;stroke:#000000;stroke-width:0.5" />
<path d="M68.055,195.97L72.055,195.97" style="fill:none;stroke:#000000;stroke-width:0.5" />
<path d="M68.055,223.39L72.055,223.39" style="fill:none;stroke:#000000;stroke-width:0.5" />
<path d="M68.055,278.23L72.055,278.23" style="fill:none;stroke:#000000;stroke-width:0.5" />
<path d="M68.055,305.66L72.055,305.66" style="fill:none;stroke:#000000;stroke-width:0.5" />
<path d="M68.055,333.08L72.055,333.08" style="fill:none;stroke:#000000;stroke-width:0.5" />
<path d="M68.055,360.5L72.055,360.5" style="fill:none;stroke:#000000;stroke-width:0.5" />
<path d="M68.055,415.34L72.055,415.34" style="fill:none;stroke:#000000;stroke-width:0.5" />
<path d="M72.055,45.151L72.055,416.58" style="fill:none;stroke:#000000;stroke-width:0.5" />
<path d="M77.805,416.58L103.59,70.092L104.76,48.692L105.93,48.598L108.27,51.801L109.45,69.423L110.62,58.98L111.79,65.973L112.96,48.472L114.13,55.643L115.31,62.263L116.48,48.631L117.65,83.575L118.82,66.713L121.16,70.207L122.34,65.995L123.51,72.285L124.68,69.584L125.85,59.191L127.02,114.04L128.2,84.378L129.37,73.544L130.54,52.314L131.71,52.492L132.88,45.195L134.06,48.796L135.23,86.594L136.4,90.195L137.57,79.835L138.74,45.738L139.91,60.516L141.09,72.14L142.26,54.244L143.43,56.466L144.6,66.253L145.77,60.76L146.95,48.851L148.12,59.422L149.29,65.677L150.46,68.356L151.63,60.922L152.81,53.808L153.98,52.882L155.15,54.686L156.32,59.424L157.49,53.32L158.67,56.32L159.84,54.464L161.01,63.738L162.18,58.204L163.35,72.033L164.52,70.07L165.7,55.207L166.87,62.252L168.04,66.469L169.21,60.505L170.38,60.571L171.56,60.162L172.73,68.507L173.9,61.783L175.07,63.716L176.24,64.98L177.42,65.117L178.59,61.223L179.76,59.669L180.93,62.4L182.1,61.308L183.27,59.282L184.45,64.607L185.62,67.3L186.79,66.17L187.96,61.33L189.13,61.018L190.31,61.624L191.48,58.391L192.65,57.56L193.82,61.999L194.99,62.701L196.17,60.458L197.34,57.491L198.51,60.952L199.68,61.533L200.85,60.302L202.02,57.842L203.2,58.733L204.37,57.434L205.54,56.197L206.71,57.19L207.88,60.623L209.06,59.276L210.23,58.385L211.4,56.51L212.57,59.375L213.74,59.951L214.92,57.793L216.09,56.649L217.26,56.084L218.43,56.578L219.6,56.337L220.78,56.998L221.95,59.446L223.12,57.793L224.29,56.844L225.46,56.008L226.63,57.472L227.81,56.46L228.98,55.418L230.15,56.745L231.32,56.965L232.49,56.027L233.67,55.467L234.84,56.71L236.01,56.946L237.18,55.415L238.35,55.171L239.53,55.528L240.7,54.938L241.87,54.297L243.04,54.834L244.21,54.639L245.38,55.333L246.56,54.552L247.73,54.595L248.9,54.105L250.07,54.508L251.24,53.617L252.42,53.745L253.59,54.014L254.76,53.222L255.93,53.038L257.1,53.348L258.28,53.946L259.45,53.309L260.62,52.805L261.79,52.766L262.96,52.986L264.14,52.583L265.31,52.424L266.48,52.399L267.65,52.47L268.82,51.801L269.99,51.936L271.17,51.993L272.34,52.204L273.51,52.042L274.68,51.672L275.85,51.261L277.03,51.373L278.2,50.957L279.37,51.568L280.54,51.099L281.71,51.146L282.89,50.734L284.06,50.658L285.23,50.913L286.4,50.611L287.57,50.298L288.74,50.117L289.92,50.394L291.09,50.043L292.26,49.904L293.43,50.101L294.6,50.104L295.78,49.841L296.95,49.605L298.12,49.561L299.29,49.405L300.46,49.402L301.64,49.193L302.81,49.415L303.98,49.226L305.15,48.955L306.32,49.001L307.49,49.149L308.67,48.826L309.84,48.905L311.01,48.692L312.18,48.604L313.35,48.746L314.53,48.406L315.7,48.423L316.87,48.423L318.04,48.343L319.21,48.346L320.39,48.368L321.56,48.228L322.73,48.053L323.9,47.935L325.07,47.981L326.25,48.014L327.42,47.77L328.59,47.817L329.76,47.759L330.93,47.713L332.1,47.567L333.28,47.564L334.45,47.438L335.62,47.436L336.79,47.219L337.96,47.255L339.14,47.238L340.31,47.34L341.48,47.246L342.65,47.137L343.82,47.246L345,47.172L346.17,47.022L347.34,46.975L348.51,46.794L349.68,46.838L350.85,46.909L352.03,46.783L353.2,46.876L354.37,46.761L355.54,46.783L356.71,46.599L357.89,46.569L359.06,46.64L360.23,46.602L361.4,46.566L362.57,46.517L363.75,46.451L364.92,46.531L366.09,46.38L367.26,46.347L368.43,46.374L369.61,46.292L370.78,46.383L371.95,46.41L373.12,46.235L374.29,46.16L375.46,46.185L376.64,46.128L377.81,46.163L378.98,46.106L380.15,46.081L381.32,46.097L382.5,45.993L383.67,46.015L384.84,45.974L386.01,45.993L387.18,45.947L388.36,45.845L389.53,45.84L390.7,45.84L391.87,45.933L393.04,45.862L394.21,45.933L395.39,45.848L396.56,45.793L397.73,45.705L398.9,45.727L400.07,45.76L401.25,45.757L402.42,45.681L403.59,45.703L404.76,45.73L405.93,45.631L407.11,45.637L408.28,45.675L409.45,45.604L410.62,45.697L411.79,45.601L412.97,45.541L414.14,45.585L415.31,45.618L416.48,45.554L417.65,45.546L418.82,45.587L420,45.527L421.17,45.552L422.34,45.497L423.51,45.464L424.68,45.461L425.86,45.489L427.03,45.428L428.2,45.472L429.37,45.478L430.54,45.456L431.72,45.42L432.89,45.475L434.06,45.384L435.23,45.398L436.4,45.406L437.57,45.382L438.75,45.398L439.92,45.354L441.09,45.36L442.26,45.384L443.43,45.379L444.61,45.373L445.78,45.338L446.95,45.321L448.12,45.346L449.29,45.299L450.47,45.346L451.64,45.324L452.81,45.324L453.98,45.319L455.15,45.308L456.32,45.321L457.5,45.272L458.67,45.286L459.84,45.321L461.01,45.288L462.18,45.269L463.36,45.278L464.53,45.269L465.7,45.267L466.87,45.283L468.04,45.288L469.22,45.234L470.39,45.228L471.56,45.264L472.73,45.258L473.9,45.245L475.08,45.239L476.25,45.269L477.42,45.214L478.59,45.231L479.76,45.22L480.93,45.217L482.11,45.214L483.28,45.22L484.45,45.195L485.62,45.203L486.79,45.225L487.97,45.22L489.14,45.225L490.31,45.223L491.48,45.212L492.65,45.239L493.83,45.212L495,45.209L496.17,45.214L497.34,45.203L498.51,45.201L499.68,45.179L500.86,45.198L502.03,45.182L503.2,45.203L504.37,45.182L505.54,45.206L506.72,45.209L507.89,45.19L509.06,45.184L510.23,45.165L511.4,45.187L512.58,45.176L513.75,45.179L514.92,45.184L516.09,45.179L517.26,45.16L518.44,45.171L519.61,45.19L520.78,45.176L521.95,45.182L523.12,45.182L524.29,45.176L525.47,45.168L526.64,45.168L527.81,45.173L528.98,45.168L530.15,45.162L531.33,45.168L532.5,45.171L533.67,45.173L534.84,45.165L536.01,45.157L537.19,45.162L538.36,45.157L539.53,45.162L540.7,45.157L541.87,45.168L543.04,45.173L544.22,45.162L545.39,45.16L546.56,45.157L547.73,45.165L548.9,45.162L550.08,45.16L551.25,45.176L552.42,45.16L553.59,45.162L554.76,45.168L555.94,45.154L557.11,45.165L558.28,45.16L559.45,45.16L560.62,45.157L561.79,45.157L564.14,45.154L565.31,45.151L566.48,45.154L570,45.154L571.17,45.154L572.34,45.151L573.51,45.151L574.69,45.162L575.86,45.151L577.03,45.157L578.2,45.154L579.37,45.157L580.55,45.151L582.89,45.154L585.23,45.154L586.4,45.151L587.58,45.151L589.92,45.151L591.09,45.151L595.78,45.151L596.95,45.151L598.12,45.151L599.3,45.151L601.64,45.151L602.81,45.154L603.98,45.151L606.33,45.151L607.5,45.151L608.67,45.157L609.84,45.151L611.01,45.151L612.19,45.151L614.53,45.151L615.7,45.154L620.39,45.151L625.08,45.151L626.25,45.151L633.28,45.151L637.97,45.154L639.14,45.151L642.66,45.151L686.02,45.151L690.7,45.151L720,45.151" style="fill:none;stroke:#0000FF" />
</g>
</svg>
