<?xml version="1.0"?>
<!-- Generated by SVGo and Plotinum VG -->
<svg width="720pt" height="432pt" viewBox="0 0 720 432"
	xmlns="http://www.w3.org/2000/svg"
	xmlns:xlink="http://www.w3.org/1999/xlink">
<g transform="scale(1, -1) translate(0, -432)">
<path d="M0,0L720,0L720,432L0,432Z" style="fill:#FFFFFF" />
<text x="358.5" y="-420.45" transform="scale(1, -1)"
	style="font-family:Times;font-weight:normal;font-style:normal;font-size:12px"> </text>
<text x="379.31" y="-3.8613" transform="scale(1, -1)"
	style="font-family:Times;font-weight:normal;font-style:normal;font-size:12px">Costs</text>
<text x="62.805" y="-18.634" transform="scale(1, -1)"
	style="font-family:Times;font-weight:normal;font-style:normal;font-size:10px">0</text>
<text x="346.85" y="-18.634" transform="scale(1, -1)"
	style="font-family:Times;font-weight:normal;font-style:normal;font-size:10px">200</text>
<text x="635.9" y="-18.634" transform="scale(1, -1)"
	style="font-family:Times;font-weight:normal;font-style:normal;font-size:10px">400</text>
<path d="M65.305,28.263L65.305,36.263" style="fill:none;stroke:#000000;stroke-width:0.5" />
<path d="M354.35,28.263L354.35,36.263" style="fill:none;stroke:#000000;stroke-width:0.5" />
<path d="M643.4,28.263L643.4,36.263" style="fill:none;stroke:#000000;stroke-width:0.5" />
<path d="M209.83,32.263L209.83,36.263" style="fill:none;stroke:#000000;stroke-width:0.5" />
<path d="M498.88,32.263L498.88,36.263" style="fill:none;stroke:#000000;stroke-width:0.5" />
<path d="M65.305,36.263L720,36.263" style="fill:none;stroke:#000000;stroke-width:0.5" />
<g transform="rotate(90)">
<text x="152.55" y="11.555" transform="scale(1, -1)"
	style="font-family:Times;font-weight:normal;font-style:normal;font-size:12px">Number of trials (1000000 total)</text>
</g>
<text x="24.055" y="-92.855" transform="scale(1, -1)"
	style="font-family:Times;font-weight:normal;font-style:normal;font-size:10px">20000</text>
<text x="24.055" y="-245.59" transform="scale(1, -1)"
	style="font-family:Times;font-weight:normal;font-style:normal;font-size:10px">80000</text>
<text x="19.055" y="-398.33" transform="scale(1, -1)"
	style="font-family:Times;font-weight:normal;font-style:normal;font-size:10px">140000</text>
<path d="M51.555,96.061L59.555,96.061" style="fill:none;stroke:#000000;stroke-width:0.5" />
<path d="M51.555,248.8L59.555,248.8" style="fill:none;stroke:#000000;stroke-width:0.5" />
<path d="M51.555,401.53L59.555,401.53" style="fill:none;stroke:#000000;stroke-width:0.5" />
<path d="M55.555,172.43L59.555,172.43" style="fill:none;stroke:#000000;stroke-width:0.5" />
<path d="M55.555,325.16L59.555,325.16" style="fill:none;stroke:#000000;stroke-width:0.5" />
<path d="M59.555,45.151L59.555,416.58" style="fill:none;stroke:#000000;stroke-width:0.5" />
<path d="M65.305,416.58L98.545,55.298L99.991,60.02L102.88,61.115L104.33,55.716L105.77,77.452L107.22,88.523L108.66,48.618L110.11,59.376L111.55,52.027L113,67.657L114.44,105.5L115.89,77.358L117.33,48.786L118.78,67.83L120.22,74.55L121.67,60.188L123.11,102.18L124.56,78.351L126,48.715L127.45,88.243L128.9,66.616L130.34,48.519L131.79,62.815L133.23,45.62L134.68,48.463L136.12,64.205L137.57,70.625L139.01,65.351L140.46,47.582L141.9,69.976L143.35,64.162L144.79,48.318L146.24,80.324L147.68,54.949L149.13,65.384L150.57,63.859L152.02,54.728L153.46,52.307L154.91,74.469L156.36,57.398L157.8,54.641L159.25,53.297L160.69,56.775L162.14,62.673L163.58,59.926L165.03,63.673L166.47,55.886L167.92,61.731L169.36,62.576L170.81,69.317L172.25,78.015L173.7,62.823L175.14,56.187L176.59,71.05L178.03,64.386L179.48,60.59L180.92,64.9L182.37,61.553L183.81,59.183L185.26,63.627L186.71,65.539L188.15,60.748L189.6,58.765L191.04,62.525L192.49,59.188L193.93,59.409L195.38,62.395L196.82,61.212L198.27,57.454L199.71,61.229L201.16,60.407L202.6,56.115L204.05,63.279L205.49,60.046L206.94,54.794L208.38,60.417L209.83,58.353L211.27,56.93L212.72,60.842L214.16,58.032L215.61,55.018L217.06,57.666L218.5,57.607L219.95,58.498L221.39,58.803L222.84,57.816L224.28,55.993L225.73,58.101L227.17,58.982L228.62,57.192L230.06,58.579L231.51,58.126L232.95,55.919L234.4,58.101L235.84,57.093L237.29,54.478L238.73,56.08L240.18,55.555L241.62,54.858L243.07,56.062L244.51,55.782L245.96,54.878L247.41,54.127L248.85,55.68L250.3,54.995L251.74,54.45L253.19,55.805L254.63,55.117L256.08,53.773L257.52,54.588L258.97,53.643L260.41,53.463L261.86,54.746L263.3,53.646L264.75,52.523L266.19,53.384L267.64,53.453L269.08,52.528L270.53,52.803L271.97,52.775L273.42,52.078L274.86,52.523L276.31,52.462L277.76,52.635L279.2,51.953L280.65,52.058L282.09,52.03L283.54,52.086L284.98,51.905L286.43,51.485L287.87,51.378L289.32,51.467L290.76,51.228L292.21,51.044L293.65,51.134L295.1,50.492L296.54,50.803L297.99,50.752L299.43,50.377L300.88,50.344L302.32,50.853L303.77,50.23L305.22,49.983L306.66,50.245L308.11,49.774L309.55,49.571L311,50.069L312.44,49.652L313.89,49.214L315.33,49.652L316.78,49.385L318.22,48.985L319.67,49.293L321.11,48.919L322.56,48.764L324,48.863L325.45,48.891L326.89,48.71L328.34,48.69L329.78,48.473L331.23,48.509L332.67,48.552L334.12,48.445L335.57,48.351L337.01,48.239L338.46,48.038L339.9,48.053L341.35,48.038L342.79,48.056L344.24,48.03L345.68,47.868L347.13,47.687L348.57,47.613L350.02,47.605L351.46,47.529L352.91,47.45L354.35,47.496L355.8,47.358L357.24,47.407L358.69,47.384L360.13,47.178L361.58,47.302L363.02,47.094L364.47,47.061L365.92,47.111L367.36,47.081L368.81,47.005L370.25,46.989L371.7,46.859L373.14,46.781L374.59,46.714L376.03,46.691L377.48,46.763L378.92,46.725L380.37,46.582L381.81,46.554L383.26,46.579L384.7,46.587L386.15,46.483L387.59,46.564L389.04,46.432L390.48,46.429L391.93,46.327L393.37,46.282L394.82,46.299L396.27,46.246L397.71,46.256L399.16,46.147L400.6,46.208L402.05,46.078L403.49,46.106L404.94,46.081L406.38,46.063L407.83,46.032L409.27,45.943L410.72,46.007L412.16,45.895L413.61,45.979L415.05,45.963L416.5,45.928L417.94,45.946L419.39,45.946L420.83,45.859L422.28,45.874L423.73,45.869L425.17,45.762L426.62,45.747L428.06,45.714L429.51,45.747L430.95,45.714L432.4,45.729L433.84,45.701L435.29,45.673L436.73,45.701L438.18,45.681L439.62,45.732L441.07,45.584L442.51,45.62L443.96,45.602L445.4,45.625L446.85,45.65L448.29,45.513L449.74,45.536L451.18,45.523L452.63,45.49L454.08,45.533L455.52,45.498L456.97,45.528L458.41,45.462L459.86,45.464L461.3,45.436L462.75,45.414L464.19,45.467L465.64,45.421L467.08,45.421L468.53,45.424L469.97,45.391L471.42,45.401L472.86,45.365L474.31,45.386L475.75,45.368L477.2,45.383L478.64,45.352L480.09,45.347L481.53,45.319L482.98,45.304L484.43,45.388L485.87,45.312L487.32,45.314L488.76,45.342L490.21,45.299L491.65,45.304L493.1,45.332L494.54,45.291L495.99,45.291L497.43,45.296L498.88,45.284L500.32,45.258L501.77,45.294L503.21,45.266L504.66,45.281L506.1,45.253L507.55,45.253L508.99,45.253L510.44,45.256L511.88,45.225L513.33,45.299L514.78,45.24L516.22,45.266L517.67,45.225L519.11,45.22L520.56,45.218L522,45.233L523.45,45.207L524.89,45.22L526.34,45.192L527.78,45.202L529.23,45.22L530.67,45.233L532.12,45.207L533.56,45.187L535.01,45.22L536.45,45.197L537.9,45.192L539.34,45.21L540.79,45.223L542.24,45.2L543.68,45.187L545.13,45.2L546.57,45.205L548.02,45.205L549.46,45.184L550.91,45.202L552.35,45.19L553.8,45.177L555.24,45.174L556.69,45.19L558.13,45.197L559.58,45.192L561.02,45.187L562.47,45.177L563.91,45.174L565.36,45.167L566.8,45.174L568.25,45.167L569.69,45.172L571.14,45.162L572.59,45.164L574.03,45.167L575.48,45.174L576.92,45.169L578.37,45.172L579.81,45.172L581.26,45.174L582.7,45.156L584.15,45.169L585.59,45.159L587.04,45.162L588.48,45.164L589.93,45.156L591.37,45.159L592.82,45.164L594.26,45.167L595.71,45.159L597.15,45.159L598.6,45.154L600.04,45.159L601.49,45.162L602.94,45.156L604.38,45.159L605.83,45.156L607.27,45.151L610.16,45.156L611.61,45.156L613.05,45.159L614.5,45.159L615.94,45.164L617.39,45.156L618.83,45.154L620.28,45.156L621.72,45.159L623.17,45.156L624.61,45.156L626.06,45.151L627.5,45.156L628.95,45.156L630.39,45.154L631.84,45.151L633.29,45.151L634.73,45.156L636.18,45.162L637.62,45.151L639.07,45.162L641.96,45.151L643.4,45.159L644.85,45.159L647.74,45.151L650.63,45.151L652.07,45.156L653.52,45.151L654.96,45.154L656.41,45.151L659.3,45.151L660.75,45.154L662.19,45.151L663.64,45.156L667.97,45.151L669.42,45.151L670.86,45.154L673.75,45.151L675.2,45.151L683.87,45.151L686.76,45.154L693.99,45.151L706.99,45.151L717.11,45.151L720,45.151" style="fill:none;stroke:#0000FF" />
</g>
</svg>
