<?xml version="1.0"?>
<!-- Generated by SVGo and Plotinum VG -->
<svg width="720pt" height="432pt" viewBox="0 0 720 432"
	xmlns="http://www.w3.org/2000/svg"
	xmlns:xlink="http://www.w3.org/1999/xlink">
<g transform="scale(1, -1) translate(0, -432)">
<path d="M0,0L720,0L720,432L0,432Z" style="fill:#FFFFFF" />
<text x="358.5" y="-420.45" transform="scale(1, -1)"
	style="font-family:Times;font-weight:normal;font-style:normal;font-size:12px"> </text>
<text x="376.81" y="-3.8613" transform="scale(1, -1)"
	style="font-family:Times;font-weight:normal;font-style:normal;font-size:12px">Costs</text>
<text x="51.555" y="-18.634" transform="scale(1, -1)"
	style="font-family:Times;font-weight:normal;font-style:normal;font-size:10px">0.00</text>
<text x="324.67" y="-18.634" transform="scale(1, -1)"
	style="font-family:Times;font-weight:normal;font-style:normal;font-size:10px">250.00</text>
<text x="602.79" y="-18.634" transform="scale(1, -1)"
	style="font-family:Times;font-weight:normal;font-style:normal;font-size:10px">500.00</text>
<path d="M60.305,28.263L60.305,36.263" style="fill:none;stroke:#000000;stroke-width:0.5" />
<path d="M338.42,28.263L338.42,36.263" style="fill:none;stroke:#000000;stroke-width:0.5" />
<path d="M616.54,28.263L616.54,36.263" style="fill:none;stroke:#000000;stroke-width:0.5" />
<path d="M115.93,32.263L115.93,36.263" style="fill:none;stroke:#000000;stroke-width:0.5" />
<path d="M171.55,32.263L171.55,36.263" style="fill:none;stroke:#000000;stroke-width:0.5" />
<path d="M227.18,32.263L227.18,36.263" style="fill:none;stroke:#000000;stroke-width:0.5" />
<path d="M282.8,32.263L282.8,36.263" style="fill:none;stroke:#000000;stroke-width:0.5" />
<path d="M394.05,32.263L394.05,36.263" style="fill:none;stroke:#000000;stroke-width:0.5" />
<path d="M449.67,32.263L449.67,36.263" style="fill:none;stroke:#000000;stroke-width:0.5" />
<path d="M505.29,32.263L505.29,36.263" style="fill:none;stroke:#000000;stroke-width:0.5" />
<path d="M560.92,32.263L560.92,36.263" style="fill:none;stroke:#000000;stroke-width:0.5" />
<path d="M672.16,32.263L672.16,36.263" style="fill:none;stroke:#000000;stroke-width:0.5" />
<path d="M60.305,36.263L720,36.263" style="fill:none;stroke:#000000;stroke-width:0.5" />
<g transform="rotate(90)">
<text x="151.13" y="11.555" transform="scale(1, -1)"
	style="font-family:Times;font-weight:normal;font-style:normal;font-size:12px">Number of trials (1000000 total)</text>
</g>
<text x="19.055" y="-82.499" transform="scale(1, -1)"
	style="font-family:Times;font-weight:normal;font-style:normal;font-size:10px">10000</text>
<text x="19.055" y="-244.73" transform="scale(1, -1)"
	style="font-family:Times;font-weight:normal;font-style:normal;font-size:10px">50000</text>
<text x="19.055" y="-406.96" transform="scale(1, -1)"
	style="font-family:Times;font-weight:normal;font-style:normal;font-size:10px">90000</text>
<path d="M46.555,85.704L54.555,85.704" style="fill:none;stroke:#000000;stroke-width:0.5" />
<path d="M46.555,247.93L54.555,247.93" style="fill:none;stroke:#000000;stroke-width:0.5" />
<path d="M46.555,410.16L54.555,410.16" style="fill:none;stroke:#000000;stroke-width:0.5" />
<path d="M50.555,126.26L54.555,126.26" style="fill:none;stroke:#000000;stroke-width:0.5" />
<path d="M50.555,166.82L54.555,166.82" style="fill:none;stroke:#000000;stroke-width:0.5" />
<path d="M50.555,207.38L54.555,207.38" style="fill:none;stroke:#000000;stroke-width:0.5" />
<path d="M50.555,288.49L54.555,288.49" style="fill:none;stroke:#000000;stroke-width:0.5" />
<path d="M50.555,329.05L54.555,329.05" style="fill:none;stroke:#000000;stroke-width:0.5" />
<path d="M50.555,369.6L54.555,369.6" style="fill:none;stroke:#000000;stroke-width:0.5" />
<path d="M54.555,45.151L54.555,413.74" style="fill:none;stroke:#000000;stroke-width:0.5" />
<path d="M60.305,413.74L85.892,55.465L87.004,48.603L89.229,59.123L90.341,113.79L91.454,48.343L92.566,71.12L93.679,62.295L94.791,58.73L95.904,91.63L97.016,96.902L98.129,89.776L99.241,68.983L100.35,62.923L102.58,52.188L103.69,67.462L105.92,140.01L107.03,78.696L108.14,51.912L109.25,66.44L110.37,55.064L111.48,48.534L112.59,45.249L114.82,55.862L115.93,99.392L117.04,82.719L118.15,46.06L119.27,95.158L120.38,70.183L121.49,48.124L122.6,74.811L123.72,63.966L124.83,54.309L125.94,64.74L127.05,57.825L128.17,76.591L129.28,57.444L130.39,56.236L131.5,54.804L132.62,60.06L133.73,58.628L134.84,70.479L135.95,73.083L137.07,58.487L138.18,58.876L139.29,64.448L140.4,56.937L141.52,68.662L142.63,98.378L143.74,65.118L144.85,64.838L145.96,68.528L147.08,59.565L148.19,56.597L149.3,142.48L150.41,89.484L151.53,68.577L152.64,76.575L153.75,67.596L154.86,69.984L155.98,68.752L157.09,61.188L158.2,62.396L159.31,60.454L160.43,60.068L161.54,68.942L162.65,69.786L163.76,58.645L164.88,71.607L165.99,66.622L167.1,56.686L168.21,62.141L169.33,59.756L170.44,57.128L171.55,63.382L172.66,66.261L173.78,61.208L174.89,66.61L176,64.148L177.11,57.716L178.23,67.661L179.34,79.775L180.45,68.439L181.56,68.459L182.68,67.137L183.79,62.713L184.9,70.585L186.01,73.107L187.13,72.033L188.24,74.945L189.35,66.042L190.46,61.54L191.58,63.017L192.69,63.26L193.8,59.338L194.91,77.374L196.03,71.449L197.14,62.425L198.25,68.707L199.36,64.136L200.48,59.926L201.59,63.317L202.7,59.148L203.81,58.434L204.93,70.787L206.04,69.031L207.15,59.131L208.26,68.654L209.38,66.46L210.49,62.056L211.6,64.485L212.71,62.246L213.83,59.484L214.94,60.928L216.05,59.825L217.16,64.108L218.28,61.82L219.39,58.584L220.5,58.718L221.61,60.527L222.73,58.3L223.84,62.157L224.95,63.179L226.06,59.565L227.18,58.551L228.29,60.441L229.4,58.028L230.51,59.959L231.63,66.188L232.74,61.484L233.85,59.561L234.96,61.042L236.08,58.933L237.19,57.254L238.3,59.943L239.41,63.731L240.52,58.442L241.64,61.261L242.75,59.513L243.86,60.166L244.97,59.947L246.09,57.602L247.2,57.797L248.31,56.828L249.42,55.704L250.54,57.679L251.65,58.381L252.76,56.15L253.87,58.393L254.99,57.793L256.1,55.197L257.21,55.964L258.32,55.193L259.44,54.305L260.55,55.729L261.66,56.102L262.77,55.335L263.89,55.7L265,55.968L266.11,54.484L267.22,55.161L268.34,56.325L269.45,56.053L270.56,55.185L271.67,54.451L272.79,54.293L273.9,54.208L275.01,54.366L276.12,54.216L277.24,55.457L278.35,54.192L279.46,53.437L280.57,53.762L281.69,52.857L282.8,52.78L283.91,52.821L285.02,53.758L286.14,52.841L287.25,53.721L288.36,53.421L289.47,52.383L290.59,52.902L291.7,52.663L292.81,51.868L293.92,52.022L295.04,52.736L296.15,52.091L297.26,51.421L298.37,52.269L299.49,52.01L300.6,51.811L301.71,51.47L302.82,51.19L303.94,50.992L305.05,50.805L306.16,50.777L307.27,51.486L308.39,50.351L309.5,50.582L310.61,50.412L311.72,50.29L312.84,50.282L313.95,50.663L315.06,50.184L316.17,49.876L317.29,50.12L318.4,49.706L319.51,49.828L320.62,49.836L321.74,50.176L322.85,49.596L323.96,49.661L325.07,49.718L326.19,49.511L327.3,49.377L328.41,49.231L329.52,48.972L330.64,49.272L331.75,49.008L332.86,48.911L333.97,49L335.09,48.777L336.2,48.611L337.31,48.676L338.42,48.574L339.53,48.25L340.65,48.473L341.76,48.465L342.87,48.181L343.98,48.416L345.1,48.149L346.21,48.007L347.32,48.063L348.43,47.897L349.55,47.917L350.66,47.93L351.77,47.885L352.88,47.812L354,47.727L355.11,47.617L356.22,47.471L357.33,47.682L358.45,47.504L359.56,47.471L360.67,47.41L361.78,47.301L362.9,47.341L364.01,47.244L365.12,47.191L366.23,46.989L367.35,47.398L368.46,46.895L369.57,47.066L370.68,46.989L371.8,46.944L372.91,46.875L374.02,46.855L375.13,46.737L376.25,46.656L377.36,46.899L378.47,46.753L379.58,46.656L380.7,46.802L381.81,46.583L382.92,46.494L384.03,46.413L385.15,46.571L386.26,46.421L387.37,46.551L388.48,46.514L389.6,46.421L390.71,46.344L391.82,46.433L392.93,46.25L394.05,46.259L395.16,46.206L396.27,46.169L397.38,46.255L398.5,46.198L399.61,46.113L400.72,46.153L401.83,46.109L402.95,46.068L404.06,46.173L405.17,46.161L406.28,45.987L407.4,45.958L408.51,45.991L409.62,45.91L410.73,45.885L411.85,45.877L412.96,45.914L414.07,45.942L415.18,45.942L416.3,45.841L417.41,45.95L418.52,45.731L419.63,45.825L420.75,45.825L421.86,45.743L422.97,45.715L424.08,45.743L425.2,45.63L426.31,45.78L427.42,45.719L428.53,45.602L429.65,45.768L430.76,45.614L431.87,45.589L432.98,45.61L434.09,45.634L435.21,45.618L436.32,45.585L437.43,45.512L438.54,45.61L439.66,45.524L440.77,45.597L441.88,45.573L442.99,45.52L444.11,45.451L445.22,45.5L446.33,45.472L447.44,45.508L448.56,45.468L449.67,45.492L450.78,45.472L451.89,45.464L453.01,45.447L454.12,45.46L455.23,45.427L456.34,45.431L457.46,45.427L458.57,45.411L459.68,45.399L460.79,45.387L461.91,45.334L463.02,45.334L464.13,45.346L465.24,45.33L466.36,45.358L467.47,45.358L468.58,45.289L469.69,45.378L470.81,45.334L471.92,45.273L473.03,45.358L474.14,45.305L475.26,45.31L476.37,45.273L477.48,45.334L478.59,45.318L479.71,45.318L480.82,45.261L481.93,45.305L483.04,45.301L484.16,45.261L485.27,45.261L486.38,45.224L487.49,45.241L488.61,45.224L489.72,45.245L490.83,45.253L491.94,45.289L493.06,45.253L494.17,45.253L495.28,45.232L496.39,45.228L497.51,45.228L498.62,45.22L499.73,45.237L500.84,45.196L501.96,45.245L503.07,45.228L504.18,45.204L505.29,45.241L506.41,45.208L507.52,45.212L508.63,45.216L509.74,45.241L510.86,45.224L511.97,45.2L513.08,45.2L514.19,45.224L515.31,45.188L516.42,45.18L517.53,45.212L518.64,45.192L519.76,45.212L520.87,45.188L521.98,45.188L523.09,45.212L524.21,45.2L525.32,45.184L526.43,45.192L527.54,45.168L528.65,45.176L529.77,45.192L530.88,45.184L531.99,45.168L533.1,45.224L534.22,45.188L535.33,45.184L536.44,45.176L537.55,45.184L538.67,45.192L539.78,45.184L540.89,45.196L542,45.188L543.12,45.176L544.23,45.164L545.34,45.164L546.45,45.176L547.57,45.176L548.68,45.184L549.79,45.151L550.9,45.155L552.02,45.164L553.13,45.164L554.24,45.164L555.35,45.164L556.47,45.151L557.58,45.168L558.69,45.164L559.8,45.159L560.92,45.176L562.03,45.168L563.14,45.151L564.25,45.151L565.37,45.164L566.48,45.159L567.59,45.155L568.7,45.164L569.82,45.155L570.93,45.164L572.04,45.159L573.15,45.159L574.27,45.155L575.38,45.151L576.49,45.155L577.6,45.151L578.72,45.151L579.83,45.164L582.05,45.159L584.28,45.159L586.5,45.151L587.62,45.151L588.73,45.151L589.84,45.151L592.07,45.151L593.18,45.151L595.4,45.151L600.97,45.151L602.08,45.159L603.19,45.151L605.42,45.159L608.75,45.155L610.98,45.151L612.09,45.151L614.32,45.151L615.43,45.151L619.88,45.151L620.99,45.151L622.1,45.151L627.66,45.151L628.78,45.151L631,45.151L637.68,45.151L644.35,45.151L649.91,45.151L653.25,45.151L659.93,45.151L720,45.151" style="fill:none;stroke:#0000FF" />
</g>
</svg>
