<?xml version="1.0"?>
<!-- Generated by SVGo and Plotinum VG -->
<svg width="720pt" height="432pt" viewBox="0 0 720 432"
	xmlns="http://www.w3.org/2000/svg"
	xmlns:xlink="http://www.w3.org/1999/xlink">
<g transform="scale(1, -1) translate(0, -432)">
<path d="M0,0L720,0L720,432L0,432Z" style="fill:#FFFFFF" />
<text x="358.5" y="-420.45" transform="scale(1, -1)"
	style="font-family:Times;font-weight:normal;font-style:normal;font-size:12px"> </text>
<text x="379.31" y="-3.8613" transform="scale(1, -1)"
	style="font-family:Times;font-weight:normal;font-style:normal;font-size:12px">Costs</text>
<text x="62.805" y="-18.634" transform="scale(1, -1)"
	style="font-family:Times;font-weight:normal;font-style:normal;font-size:10px">0</text>
<text x="374.85" y="-18.634" transform="scale(1, -1)"
	style="font-family:Times;font-weight:normal;font-style:normal;font-size:10px">200</text>
<text x="691.89" y="-18.634" transform="scale(1, -1)"
	style="font-family:Times;font-weight:normal;font-style:normal;font-size:10px">400</text>
<path d="M65.305,28.263L65.305,36.263" style="fill:none;stroke:#000000;stroke-width:0.5" />
<path d="M382.35,28.263L382.35,36.263" style="fill:none;stroke:#000000;stroke-width:0.5" />
<path d="M699.39,28.263L699.39,36.263" style="fill:none;stroke:#000000;stroke-width:0.5" />
<path d="M223.83,32.263L223.83,36.263" style="fill:none;stroke:#000000;stroke-width:0.5" />
<path d="M540.87,32.263L540.87,36.263" style="fill:none;stroke:#000000;stroke-width:0.5" />
<path d="M65.305,36.263L720,36.263" style="fill:none;stroke:#000000;stroke-width:0.5" />
<g transform="rotate(90)">
<text x="152.55" y="11.555" transform="scale(1, -1)"
	style="font-family:Times;font-weight:normal;font-style:normal;font-size:12px">Number of trials (1000000 total)</text>
</g>
<text x="19.055" y="-127.42" transform="scale(1, -1)"
	style="font-family:Times;font-weight:normal;font-style:normal;font-size:10px">100000</text>
<text x="19.055" y="-212.9" transform="scale(1, -1)"
	style="font-family:Times;font-weight:normal;font-style:normal;font-size:10px">200000</text>
<text x="19.055" y="-298.38" transform="scale(1, -1)"
	style="font-family:Times;font-weight:normal;font-style:normal;font-size:10px">300000</text>
<text x="19.055" y="-383.86" transform="scale(1, -1)"
	style="font-family:Times;font-weight:normal;font-style:normal;font-size:10px">400000</text>
<path d="M51.555,130.63L59.555,130.63" style="fill:none;stroke:#000000;stroke-width:0.5" />
<path d="M51.555,216.11L59.555,216.11" style="fill:none;stroke:#000000;stroke-width:0.5" />
<path d="M51.555,301.58L59.555,301.58" style="fill:none;stroke:#000000;stroke-width:0.5" />
<path d="M51.555,387.06L59.555,387.06" style="fill:none;stroke:#000000;stroke-width:0.5" />
<path d="M55.555,62.246L59.555,62.246" style="fill:none;stroke:#000000;stroke-width:0.5" />
<path d="M55.555,79.342L59.555,79.342" style="fill:none;stroke:#000000;stroke-width:0.5" />
<path d="M55.555,96.437L59.555,96.437" style="fill:none;stroke:#000000;stroke-width:0.5" />
<path d="M55.555,113.53L59.555,113.53" style="fill:none;stroke:#000000;stroke-width:0.5" />
<path d="M55.555,147.72L59.555,147.72" style="fill:none;stroke:#000000;stroke-width:0.5" />
<path d="M55.555,164.82L59.555,164.82" style="fill:none;stroke:#000000;stroke-width:0.5" />
<path d="M55.555,181.91L59.555,181.91" style="fill:none;stroke:#000000;stroke-width:0.5" />
<path d="M55.555,199.01L59.555,199.01" style="fill:none;stroke:#000000;stroke-width:0.5" />
<path d="M55.555,233.2L59.555,233.2" style="fill:none;stroke:#000000;stroke-width:0.5" />
<path d="M55.555,250.3L59.555,250.3" style="fill:none;stroke:#000000;stroke-width:0.5" />
<path d="M55.555,267.39L59.555,267.39" style="fill:none;stroke:#000000;stroke-width:0.5" />
<path d="M55.555,284.49L59.555,284.49" style="fill:none;stroke:#000000;stroke-width:0.5" />
<path d="M55.555,318.68L59.555,318.68" style="fill:none;stroke:#000000;stroke-width:0.5" />
<path d="M55.555,335.77L59.555,335.77" style="fill:none;stroke:#000000;stroke-width:0.5" />
<path d="M55.555,352.87L59.555,352.87" style="fill:none;stroke:#000000;stroke-width:0.5" />
<path d="M55.555,369.97L59.555,369.97" style="fill:none;stroke:#000000;stroke-width:0.5" />
<path d="M55.555,404.16L59.555,404.16" style="fill:none;stroke:#000000;stroke-width:0.5" />
<path d="M59.555,45.151L59.555,416.58" style="fill:none;stroke:#000000;stroke-width:0.5" />
<path d="M65.305,416.58L106.52,55.253L109.69,62.851L114.45,69.625L116.03,48.539L119.2,70.249L123.96,48.617L127.13,52.231L130.3,66.443L131.88,69.677L133.47,52.234L135.05,73.584L136.64,48.612L138.22,62.445L142.98,59.186L144.57,51.998L146.15,48.54L147.74,45.207L149.32,62.217L150.91,45.674L154.08,52.473L155.66,56.079L157.25,48.665L158.83,46.3L160.42,45.986L162,52.137L163.59,57.276L165.17,59.554L168.34,47.099L169.93,45.406L171.51,46.045L173.1,46.486L174.68,46.394L176.27,47.558L177.86,52.695L179.44,48.304L181.03,47.496L182.61,46.587L184.2,48.993L185.78,47.497L187.37,61.942L188.95,47.494L190.54,46.259L192.12,47.506L193.71,54.371L195.29,45.698L196.88,48.547L198.46,47.943L200.05,48.458L201.63,47.564L203.22,48.784L204.8,48.375L206.39,46.858L207.97,48.476L209.56,48.197L211.14,47.341L212.73,47.473L214.32,48.049L215.9,48.031L217.49,46.755L219.07,48.248L220.66,46.556L222.24,47.743L223.83,46.649L225.41,46.543L227,47.67L228.58,47.835L230.17,47.383L231.75,48.449L233.34,47.362L234.92,47.27L236.51,47.126L238.09,46.999L239.68,46.241L241.26,46.998L242.85,47.046L244.43,46.58L246.02,46.345L247.6,47.139L249.19,46.641L250.78,46.009L252.36,46.953L253.95,47.241L255.53,46.707L257.12,46.903L258.7,46.295L260.29,46.876L261.87,46.328L263.46,46.632L265.04,46.216L266.63,46.477L268.21,45.998L269.8,45.779L271.38,46.506L272.97,45.898L274.55,45.873L276.14,46.17L277.72,46.69L279.31,45.788L280.89,45.792L282.48,45.873L284.06,46.199L285.65,46.182L287.24,46.088L288.82,45.697L290.41,45.736L291.99,45.911L293.58,45.933L295.16,45.588L296.75,45.754L298.33,45.714L299.92,45.968L301.5,45.745L303.09,45.701L304.67,45.645L306.26,45.809L307.84,45.658L309.43,45.627L311.01,45.569L312.6,45.609L314.18,45.572L315.77,45.81L317.35,45.509L318.94,45.575L320.52,45.568L322.11,45.586L323.7,45.479L325.28,45.567L326.87,45.562L328.45,45.474L330.04,45.506L331.62,45.534L333.21,45.472L334.79,45.417L336.38,45.48L337.96,45.446L339.55,45.392L341.13,45.431L342.72,45.375L344.3,45.436L345.89,45.38L347.47,45.413L349.06,45.361L350.64,45.393L352.23,45.383L353.81,45.37L355.4,45.354L356.98,45.334L358.57,45.327L360.16,45.347L361.74,45.315L363.33,45.297L364.91,45.32L366.5,45.281L368.08,45.281L369.67,45.305L371.25,45.295L372.84,45.273L374.42,45.273L376.01,45.282L377.59,45.267L379.18,45.254L380.76,45.252L382.35,45.255L383.93,45.25L385.52,45.26L387.1,45.231L388.69,45.243L390.27,45.239L391.86,45.232L393.44,45.205L395.03,45.234L396.62,45.239L398.2,45.239L399.79,45.237L401.37,45.217L402.96,45.212L404.54,45.224L406.13,45.227L407.71,45.215L409.3,45.205L410.88,45.197L412.47,45.201L414.05,45.205L415.64,45.203L417.22,45.191L418.81,45.192L420.39,45.204L421.98,45.189L423.56,45.19L425.15,45.191L426.73,45.189L428.32,45.192L429.9,45.189L431.49,45.193L433.08,45.186L434.66,45.186L436.25,45.183L437.83,45.181L439.42,45.169L441,45.18L442.59,45.187L444.17,45.173L445.76,45.168L447.34,45.177L448.93,45.176L450.51,45.168L452.1,45.172L453.68,45.168L455.27,45.167L456.85,45.169L458.44,45.168L460.02,45.177L461.61,45.161L463.19,45.162L464.78,45.17L466.37,45.166L467.95,45.164L469.54,45.162L471.12,45.165L472.71,45.162L474.29,45.165L475.88,45.16L477.46,45.163L479.05,45.159L480.63,45.161L482.22,45.161L483.8,45.157L485.39,45.156L486.97,45.156L488.56,45.158L490.14,45.156L491.73,45.161L493.31,45.155L494.9,45.156L496.48,45.155L498.07,45.157L499.65,45.154L501.24,45.155L502.83,45.154L504.41,45.158L506,45.153L507.58,45.156L509.17,45.153L510.75,45.155L512.34,45.152L513.92,45.153L515.51,45.153L517.09,45.154L518.68,45.152L520.26,45.156L521.85,45.157L523.43,45.153L525.02,45.152L526.6,45.153L528.19,45.152L529.77,45.154L531.36,45.152L534.53,45.152L536.11,45.151L537.7,45.153L539.29,45.151L540.87,45.153L542.46,45.153L545.63,45.153L547.21,45.151L548.8,45.152L550.38,45.152L551.97,45.152L553.55,45.153L555.14,45.151L556.72,45.151L558.31,45.152L559.89,45.153L563.06,45.153L564.65,45.151L567.82,45.151L569.4,45.153L572.57,45.152L574.16,45.151L575.75,45.151L578.92,45.151L582.09,45.153L586.84,45.151L588.43,45.151L593.18,45.151L597.94,45.152L599.52,45.151L605.86,45.151L607.45,45.152L612.21,45.151L631.23,45.151L639.15,45.151L662.93,45.152L704.15,45.151L720,45.151" style="fill:none;stroke:#0000FF" />
</g>
</svg>
