<?xml version="1.0"?>
<!-- Generated by SVGo and Plotinum VG -->
<svg width="720pt" height="432pt" viewBox="0 0 720 432"
	xmlns="http://www.w3.org/2000/svg"
	xmlns:xlink="http://www.w3.org/1999/xlink">
<g transform="scale(1, -1) translate(0, -432)">
<path d="M0,0L720,0L720,432L0,432Z" style="fill:#FFFFFF" />
<text x="358.5" y="-420.45" transform="scale(1, -1)"
	style="font-family:Times;font-weight:normal;font-style:normal;font-size:12px"> </text>
<text x="384.34" y="-3.8613" transform="scale(1, -1)"
	style="font-family:Times;font-weight:normal;font-style:normal;font-size:12px">Costs</text>
<text x="69.055" y="-18.634" transform="scale(1, -1)"
	style="font-family:Times;font-weight:normal;font-style:normal;font-size:10px">0.00</text>
<text x="378.28" y="-18.634" transform="scale(1, -1)"
	style="font-family:Times;font-weight:normal;font-style:normal;font-size:10px">250.00</text>
<text x="692.5" y="-18.634" transform="scale(1, -1)"
	style="font-family:Times;font-weight:normal;font-style:normal;font-size:10px">500.00</text>
<path d="M77.805,28.263L77.805,36.263" style="fill:none;stroke:#000000;stroke-width:0.5" />
<path d="M392.03,28.263L392.03,36.263" style="fill:none;stroke:#000000;stroke-width:0.5" />
<path d="M706.25,28.263L706.25,36.263" style="fill:none;stroke:#000000;stroke-width:0.5" />
<path d="M140.65,32.263L140.65,36.263" style="fill:none;stroke:#000000;stroke-width:0.5" />
<path d="M203.49,32.263L203.49,36.263" style="fill:none;stroke:#000000;stroke-width:0.5" />
<path d="M266.34,32.263L266.34,36.263" style="fill:none;stroke:#000000;stroke-width:0.5" />
<path d="M329.18,32.263L329.18,36.263" style="fill:none;stroke:#000000;stroke-width:0.5" />
<path d="M454.87,32.263L454.87,36.263" style="fill:none;stroke:#000000;stroke-width:0.5" />
<path d="M517.72,32.263L517.72,36.263" style="fill:none;stroke:#000000;stroke-width:0.5" />
<path d="M580.56,32.263L580.56,36.263" style="fill:none;stroke:#000000;stroke-width:0.5" />
<path d="M643.41,32.263L643.41,36.263" style="fill:none;stroke:#000000;stroke-width:0.5" />
<path d="M77.805,36.263L717.56,36.263" style="fill:none;stroke:#000000;stroke-width:0.5" />
<g transform="rotate(90)">
<text x="152.55" y="11.555" transform="scale(1, -1)"
	style="font-family:Times;font-weight:normal;font-style:normal;font-size:12px">Number of trials (1000000 total)</text>
</g>
<text x="24.055" y="-93.247" transform="scale(1, -1)"
	style="font-family:Times;font-weight:normal;font-style:normal;font-size:10px">25000.00</text>
<text x="19.055" y="-247.16" transform="scale(1, -1)"
	style="font-family:Times;font-weight:normal;font-style:normal;font-size:10px">100000.00</text>
<text x="19.055" y="-401.07" transform="scale(1, -1)"
	style="font-family:Times;font-weight:normal;font-style:normal;font-size:10px">175000.00</text>
<path d="M64.055,96.453L72.055,96.453" style="fill:none;stroke:#000000;stroke-width:0.5" />
<path d="M64.055,250.36L72.055,250.36" style="fill:none;stroke:#000000;stroke-width:0.5" />
<path d="M64.055,404.27L72.055,404.27" style="fill:none;stroke:#000000;stroke-width:0.5" />
<path d="M68.055,173.41L72.055,173.41" style="fill:none;stroke:#000000;stroke-width:0.5" />
<path d="M68.055,327.32L72.055,327.32" style="fill:none;stroke:#000000;stroke-width:0.5" />
<path d="M72.055,45.151L72.055,416.58" style="fill:none;stroke:#000000;stroke-width:0.5" />
<path d="M77.805,416.58L113,79.059L116.77,70.368L118.03,70.356L120.54,144.24L124.31,70.356L125.57,59.336L126.82,66.307L128.08,59.139L130.59,65.693L133.11,120.19L134.36,70.432L135.62,55.431L139.39,102.99L141.91,62.139L144.42,95.89L150.7,48.609L151.96,47.45L153.22,47.378L155.73,87.393L156.99,84.595L159.5,54.542L160.76,53.206L162.02,47.043L163.27,57.481L164.53,47.554L165.79,49.426L167.04,57.743L168.3,56.114L169.56,54.382L170.81,51.02L172.07,51.577L173.33,58.899L174.59,92.006L175.84,65.611L177.1,55.677L178.36,55.533L179.61,85.942L180.87,51.663L182.13,68.375L183.38,53.559L184.64,54.688L185.9,54.152L187.15,62.369L188.41,54.064L189.67,53.688L190.92,54.374L192.18,55.747L193.44,48.95L194.7,63.028L195.95,54.679L197.21,55.628L198.47,56.042L199.72,66.528L200.98,51.505L202.24,50.871L203.49,53.208L204.75,49.272L206.01,58.457L207.26,48.297L208.52,51.351L209.78,53.44L211.04,56.171L212.29,57.052L213.55,53.446L214.81,54.246L216.06,48.849L217.32,64.766L218.58,56.5L219.83,51.501L221.09,53.604L222.35,63.801L223.6,55.929L224.86,51.638L226.12,50.735L227.37,52.063L228.63,51.759L229.89,58.769L231.15,52.322L232.4,51.964L233.66,50.536L234.92,60.183L236.17,56.442L237.43,52.305L238.69,52.11L239.94,50.69L241.2,58.54L242.46,51.244L243.71,50.772L244.97,49.728L246.23,53.82L247.48,49.795L248.74,50.828L250,48.954L251.26,49.483L252.51,54.113L253.77,53.579L255.03,50.308L256.28,50.477L257.54,52.839L258.8,52.354L260.05,50.134L261.31,51.626L262.57,49.28L263.82,50.204L265.08,51.088L266.34,50.261L267.6,49.576L268.85,49.233L270.11,50.241L271.37,48.968L272.62,50.996L273.88,50.152L275.14,50.074L276.39,52.441L277.65,50.858L278.91,51.164L280.16,48.858L281.42,49.303L282.68,48.609L283.93,51.031L285.19,49.241L286.45,48.63L287.71,48.874L288.96,49.161L290.22,48.585L291.48,49.566L292.73,48.252L293.99,48.607L295.25,48.383L296.5,50.6L297.76,47.987L299.02,48.279L300.27,48.404L301.53,49.313L302.79,48.365L304.05,47.616L305.3,47.591L306.56,47.614L307.82,48.566L309.07,47.928L310.33,47.534L311.59,47.542L312.84,47.86L314.1,48.344L315.36,48.01L316.61,47.536L317.87,47.279L319.13,48.663L320.38,47.838L321.64,47.136L322.9,47.113L324.16,47.398L325.41,47.374L326.67,47.247L327.93,46.916L329.18,46.892L330.44,46.974L331.7,47.764L332.95,46.898L334.21,47.082L335.47,46.703L336.72,47.162L337.98,46.951L339.24,46.949L340.49,46.752L341.75,46.594L343.01,46.838L344.27,46.578L345.52,46.553L346.78,46.457L348.04,46.452L349.29,46.459L350.55,46.374L351.81,46.479L353.06,46.376L354.32,46.553L355.58,46.6L356.83,46.461L358.09,46.51L359.35,46.225L360.61,46.221L361.86,46.243L363.12,46.393L364.38,46.081L365.63,46.079L366.89,46.069L368.15,46.091L369.4,46.091L370.66,45.991L371.92,46.06L373.17,45.894L374.43,46.165L375.69,46.042L376.94,45.863L378.2,45.909L379.46,45.985L380.72,45.939L381.97,45.888L383.23,45.796L384.49,45.792L385.74,45.849L387,45.872L388.26,45.757L389.51,45.705L390.77,45.705L392.03,45.732L393.28,45.759L394.54,45.718L395.8,45.732L397.05,45.689L398.31,45.79L399.57,45.525L400.83,45.619L402.08,45.658L403.34,45.63L404.6,45.646L405.85,45.535L407.11,45.572L408.37,45.554L409.62,45.595L410.88,45.562L412.14,45.527L413.39,45.531L414.65,45.515L415.91,45.549L417.17,45.492L418.42,45.463L419.68,45.502L420.94,45.465L422.19,45.478L423.45,45.447L424.71,45.422L425.96,45.385L427.22,45.398L428.48,45.4L429.73,45.402L430.99,45.371L432.25,45.394L433.5,45.402L434.76,45.34L436.02,45.402L437.28,45.357L438.53,45.326L439.79,45.328L441.05,45.394L442.3,45.295L443.56,45.311L444.82,45.324L446.07,45.348L447.33,45.295L448.59,45.313L449.84,45.303L451.1,45.281L452.36,45.279L453.61,45.297L454.87,45.305L456.13,45.26L457.39,45.291L458.64,45.285L459.9,45.307L461.16,45.279L462.41,45.277L463.67,45.233L464.93,45.244L466.18,45.238L467.44,45.24L468.7,45.246L469.95,45.229L471.21,45.266L472.47,45.252L473.73,45.227L474.98,45.233L476.24,45.236L477.5,45.25L478.75,45.217L480.01,45.211L481.27,45.213L482.52,45.236L483.78,45.213L485.04,45.229L486.29,45.207L487.55,45.194L488.81,45.209L490.06,45.192L491.32,45.192L492.58,45.19L493.84,45.197L495.09,45.209L496.35,45.197L497.61,45.207L498.86,45.199L500.12,45.207L501.38,45.213L502.63,45.186L503.89,45.19L505.15,45.188L506.4,45.19L507.66,45.19L508.92,45.182L510.18,45.168L511.43,45.18L512.69,45.174L513.95,45.178L515.2,45.174L516.46,45.168L517.72,45.18L518.97,45.172L520.23,45.174L521.49,45.178L522.74,45.186L524,45.182L525.26,45.174L526.51,45.174L527.77,45.164L529.03,45.172L530.29,45.168L531.54,45.168L532.8,45.174L534.06,45.166L535.31,45.166L536.57,45.17L537.83,45.168L539.08,45.162L540.34,45.162L541.6,45.158L542.85,45.162L544.11,45.158L545.37,45.155L546.62,45.155L547.88,45.17L549.14,45.155L550.4,45.16L551.65,45.168L552.91,45.153L554.17,45.164L555.42,45.16L556.68,45.155L557.94,45.158L559.19,45.153L560.45,45.162L561.71,45.155L562.96,45.153L564.22,45.153L565.48,45.153L566.74,45.151L567.99,45.153L569.25,45.153L570.51,45.162L571.76,45.16L573.02,45.155L574.28,45.155L575.53,45.153L576.79,45.158L578.05,45.158L579.3,45.151L580.56,45.151L583.07,45.158L584.33,45.153L585.59,45.151L586.85,45.155L588.1,45.153L591.87,45.151L593.13,45.155L596.9,45.151L598.16,45.151L599.41,45.151L601.93,45.155L603.18,45.155L604.44,45.153L605.7,45.151L608.21,45.153L609.47,45.151L615.75,45.151L617.01,45.151L619.52,45.153L622.04,45.151L624.55,45.153L632.09,45.151L634.61,45.153L639.63,45.153L642.15,45.151L643.41,45.151L649.69,45.151L653.46,45.153L682.37,45.151L713.79,45.151L717.56,45.151" style="fill:none;stroke:#0000FF" />
</g>
</svg>
