<?xml version="1.0"?>
<!-- Generated by SVGo and Plotinum VG -->
<svg width="720pt" height="432pt" viewBox="0 0 720 432"
	xmlns="http://www.w3.org/2000/svg"
	xmlns:xlink="http://www.w3.org/1999/xlink">
<g transform="scale(1, -1) translate(0, -432)">
<path d="M0,0L720,0L720,432L0,432Z" style="fill:#FFFFFF" />
<text x="358.5" y="-420.45" transform="scale(1, -1)"
	style="font-family:Times;font-weight:normal;font-style:normal;font-size:12px"> </text>
<text x="385.56" y="-3.8613" transform="scale(1, -1)"
	style="font-family:Times;font-weight:normal;font-style:normal;font-size:12px">Costs</text>
<text x="75.305" y="-18.634" transform="scale(1, -1)"
	style="font-family:Times;font-weight:normal;font-style:normal;font-size:10px">0</text>
<text x="333.5" y="-18.634" transform="scale(1, -1)"
	style="font-family:Times;font-weight:normal;font-style:normal;font-size:10px">200</text>
<text x="596.69" y="-18.634" transform="scale(1, -1)"
	style="font-family:Times;font-weight:normal;font-style:normal;font-size:10px">400</text>
<path d="M77.805,28.263L77.805,36.263" style="fill:none;stroke:#000000;stroke-width:0.5" />
<path d="M341,28.263L341,36.263" style="fill:none;stroke:#000000;stroke-width:0.5" />
<path d="M604.19,28.263L604.19,36.263" style="fill:none;stroke:#000000;stroke-width:0.5" />
<path d="M209.4,32.263L209.4,36.263" style="fill:none;stroke:#000000;stroke-width:0.5" />
<path d="M472.6,32.263L472.6,36.263" style="fill:none;stroke:#000000;stroke-width:0.5" />
<path d="M77.805,36.263L720,36.263" style="fill:none;stroke:#000000;stroke-width:0.5" />
<g transform="rotate(90)">
<text x="149.62" y="11.555" transform="scale(1, -1)"
	style="font-family:Times;font-weight:normal;font-style:normal;font-size:12px">Number of trials (1000000 total)</text>
</g>
<text x="24.055" y="-82.501" transform="scale(1, -1)"
	style="font-family:Times;font-weight:normal;font-style:normal;font-size:10px">25000.00</text>
<text x="19.055" y="-244.73" transform="scale(1, -1)"
	style="font-family:Times;font-weight:normal;font-style:normal;font-size:10px">125000.00</text>
<text x="19.055" y="-406.96" transform="scale(1, -1)"
	style="font-family:Times;font-weight:normal;font-style:normal;font-size:10px">225000.00</text>
<path d="M64.055,85.707L72.055,85.707" style="fill:none;stroke:#000000;stroke-width:0.5" />
<path d="M64.055,247.93L72.055,247.93" style="fill:none;stroke:#000000;stroke-width:0.5" />
<path d="M64.055,410.16L72.055,410.16" style="fill:none;stroke:#000000;stroke-width:0.5" />
<path d="M68.055,166.82L72.055,166.82" style="fill:none;stroke:#000000;stroke-width:0.5" />
<path d="M68.055,329.05L72.055,329.05" style="fill:none;stroke:#000000;stroke-width:0.5" />
<path d="M72.055,45.151L72.055,410.72" style="fill:none;stroke:#000000;stroke-width:0.5" />
<path d="M77.805,410.72L112.02,62.636L117.28,48.363L118.6,66.403L119.92,58.678L121.23,55.427L122.55,62.257L123.86,69.236L125.18,58.645L126.5,62.115L127.81,55.308L129.13,78.903L130.44,66.205L131.76,51.736L133.08,48.471L134.39,79.887L135.71,97.341L137.02,62.579L138.34,62.966L142.29,52.158L144.92,72.85L147.55,59.255L148.87,65.9L150.18,55.36L151.5,62.443L152.82,62.711L154.13,45.855L155.45,52.241L156.76,63.178L158.08,56.869L159.4,60.024L160.71,46.856L162.03,46.542L163.34,48.42L164.66,48.204L165.97,47.703L167.29,47.77L168.61,49.95L169.92,51.859L171.24,68.012L172.55,49.653L173.87,52.873L175.19,65.521L176.5,53.208L177.82,52.208L179.13,56.483L180.45,53.032L181.77,54.389L183.08,56.416L184.4,69.688L185.71,54.22L187.03,55.933L188.35,53.099L189.66,52.69L190.98,53.006L192.29,54.866L193.61,56.056L194.93,54.074L196.24,54.525L197.56,52.834L198.87,52.132L200.19,52.7L201.51,53.824L202.82,55.094L204.14,53.125L205.45,55.073L206.77,52.474L208.09,53.113L209.4,55.039L210.72,51.78L212.03,50.959L213.35,50.657L214.67,51.916L215.98,53.642L217.3,52.564L218.61,51.606L219.93,51.069L221.25,49.872L222.56,51.527L223.88,51.825L225.19,50.73L226.51,52.581L227.83,52.335L229.14,53.078L230.46,52.202L231.77,52.705L233.09,51.834L234.41,50.247L235.72,51.3L237.04,50.266L238.35,50.526L239.67,49.384L240.99,51.227L242.3,52.778L243.62,50.12L244.93,50.604L246.25,50.519L247.57,49.035L248.88,50.317L250.2,50.787L251.51,50.576L252.83,50.109L254.15,50.425L255.46,50.052L256.78,49.786L258.09,49.579L259.41,49.557L260.73,49.012L262.04,49.163L263.36,49.608L264.67,49.147L265.99,49.184L267.3,48.776L268.62,49.136L269.94,48.477L271.25,48.411L272.57,48.703L273.88,48.443L275.2,48.55L276.52,48.891L277.83,48.993L279.15,48.229L280.46,48.625L281.78,48.811L283.1,48.331L284.41,48.326L285.73,48.329L287.04,48.141L288.36,48.076L289.68,48.336L290.99,47.947L292.31,47.68L293.62,47.833L294.94,47.629L296.26,47.792L297.57,47.799L298.89,47.875L300.2,47.633L301.52,47.664L302.84,47.63L304.15,47.463L305.47,47.447L306.78,47.372L308.1,47.411L309.42,47.392L310.73,47.265L312.05,47.179L313.36,47.079L314.68,46.967L316,47.14L317.31,46.954L318.63,46.817L319.94,47.002L321.26,46.905L322.58,46.97L323.89,46.884L325.21,46.829L326.52,46.834L327.84,46.657L329.16,46.715L330.47,46.733L331.79,46.512L333.1,46.568L334.42,46.582L335.74,46.564L337.05,46.413L338.37,46.538L339.68,46.375L341,46.303L342.32,46.306L343.63,46.311L344.95,46.326L346.26,46.199L347.58,46.245L348.9,46.245L350.21,46.162L351.53,46.143L352.84,46.092L354.16,46.053L355.48,46.178L356.79,46.044L358.11,46.066L359.42,46.099L360.74,46.019L362.06,46L363.37,45.953L364.69,45.902L366,45.911L367.32,45.842L368.63,45.844L369.95,45.854L371.27,45.852L372.58,45.807L373.9,45.893L375.21,45.816L376.53,45.721L377.85,45.808L379.16,45.787L380.48,45.758L381.79,45.714L383.11,45.696L384.43,45.731L385.74,45.664L387.06,45.659L388.37,45.632L389.69,45.659L391.01,45.606L392.32,45.602L393.64,45.562L394.95,45.576L396.27,45.612L397.59,45.572L398.9,45.544L400.22,45.518L401.53,45.534L402.85,45.524L404.17,45.531L405.48,45.481L406.8,45.494L408.11,45.477L409.43,45.508L410.75,45.479L412.06,45.435L413.38,45.458L414.69,45.456L416.01,45.458L417.33,45.45L418.64,45.385L419.96,45.408L421.27,45.424L422.59,45.362L423.91,45.353L425.22,45.357L426.54,45.366L427.85,45.387L429.17,45.372L430.49,45.359L431.8,45.357L433.12,45.356L434.43,45.346L435.75,45.31L437.07,45.331L438.38,45.343L439.7,45.318L441.01,45.286L442.33,45.293L443.65,45.304L444.96,45.294L446.28,45.296L447.59,45.312L448.91,45.299L450.23,45.273L451.54,45.27L452.86,45.286L454.17,45.265L455.49,45.273L456.81,45.257L458.12,45.252L459.44,45.28L460.75,45.242L462.07,45.257L463.39,45.262L464.7,45.249L466.02,45.234L467.33,45.213L468.65,45.228L469.96,45.229L471.28,45.231L472.6,45.241L473.91,45.218L475.23,45.236L476.54,45.218L477.86,45.224L479.18,45.203L480.49,45.216L481.81,45.207L483.12,45.223L484.44,45.231L485.76,45.2L487.07,45.221L488.39,45.202L489.7,45.205L491.02,45.202L492.34,45.189L493.65,45.185L494.97,45.181L496.28,45.198L497.6,45.203L498.92,45.192L500.23,45.2L501.55,45.198L502.86,45.187L504.18,45.205L505.5,45.192L506.81,45.171L508.13,45.181L509.44,45.187L510.76,45.179L512.08,45.185L513.39,45.176L514.71,45.182L516.02,45.172L517.34,45.192L518.66,45.174L519.97,45.168L521.29,45.171L522.6,45.164L523.92,45.176L525.24,45.174L526.55,45.171L527.87,45.168L529.18,45.169L530.5,45.169L531.82,45.174L533.13,45.172L534.45,45.166L535.76,45.168L537.08,45.169L538.4,45.159L539.71,45.168L541.03,45.156L542.34,45.171L543.66,45.166L544.98,45.163L546.29,45.159L547.61,45.163L548.92,45.161L550.24,45.161L551.56,45.158L552.87,45.159L554.19,45.158L555.5,45.158L556.82,45.163L558.14,45.159L559.45,45.153L560.77,45.155L562.08,45.151L563.4,45.155L564.72,45.161L566.03,45.159L567.35,45.155L568.66,45.161L569.98,45.158L571.29,45.156L572.61,45.161L573.93,45.159L575.24,45.156L576.56,45.153L577.87,45.158L579.19,45.156L580.51,45.155L581.82,45.155L583.14,45.155L584.45,45.158L585.77,45.155L587.09,45.156L588.4,45.153L591.03,45.155L594.98,45.155L597.61,45.155L600.25,45.151L602.88,45.151L604.19,45.151L606.83,45.153L608.14,45.153L609.46,45.155L610.77,45.151L612.09,45.151L613.41,45.153L614.72,45.151L617.35,45.151L618.67,45.151L619.99,45.153L621.3,45.153L625.25,45.151L626.57,45.153L629.2,45.153L633.15,45.153L634.46,45.153L635.78,45.151L637.09,45.151L639.73,45.155L644.99,45.151L652.89,45.153L655.52,45.151L671.31,45.151L672.62,45.151L673.94,45.151L684.47,45.151L693.68,45.151L698.94,45.153L705.52,45.151L709.47,45.151L720,45.151" style="fill:none;stroke:#0000FF" />
</g>
</svg>
