<?xml version="1.0"?>
<!-- Generated by SVGo and Plotinum VG -->
<svg width="720pt" height="432pt" viewBox="0 0 720 432"
	xmlns="http://www.w3.org/2000/svg"
	xmlns:xlink="http://www.w3.org/1999/xlink">
<g transform="scale(1, -1) translate(0, -432)">
<path d="M0,0L720,0L720,432L0,432Z" style="fill:#FFFFFF" />
<text x="358.5" y="-420.45" transform="scale(1, -1)"
	style="font-family:Times;font-weight:normal;font-style:normal;font-size:12px"> </text>
<text x="379.31" y="-3.8613" transform="scale(1, -1)"
	style="font-family:Times;font-weight:normal;font-style:normal;font-size:12px">Costs</text>
<text x="62.805" y="-18.634" transform="scale(1, -1)"
	style="font-family:Times;font-weight:normal;font-style:normal;font-size:10px">0</text>
<text x="338.19" y="-18.634" transform="scale(1, -1)"
	style="font-family:Times;font-weight:normal;font-style:normal;font-size:10px">200</text>
<text x="618.57" y="-18.634" transform="scale(1, -1)"
	style="font-family:Times;font-weight:normal;font-style:normal;font-size:10px">400</text>
<path d="M65.305,28.263L65.305,36.263" style="fill:none;stroke:#000000;stroke-width:0.5" />
<path d="M345.69,28.263L345.69,36.263" style="fill:none;stroke:#000000;stroke-width:0.5" />
<path d="M626.07,28.263L626.07,36.263" style="fill:none;stroke:#000000;stroke-width:0.5" />
<path d="M205.5,32.263L205.5,36.263" style="fill:none;stroke:#000000;stroke-width:0.5" />
<path d="M485.88,32.263L485.88,36.263" style="fill:none;stroke:#000000;stroke-width:0.5" />
<path d="M65.305,36.263L720,36.263" style="fill:none;stroke:#000000;stroke-width:0.5" />
<g transform="rotate(90)">
<text x="152.55" y="11.555" transform="scale(1, -1)"
	style="font-family:Times;font-weight:normal;font-style:normal;font-size:12px">Number of trials (1000000 total)</text>
</g>
<text x="24.055" y="-89.641" transform="scale(1, -1)"
	style="font-family:Times;font-weight:normal;font-style:normal;font-size:10px">20000</text>
<text x="24.055" y="-232.73" transform="scale(1, -1)"
	style="font-family:Times;font-weight:normal;font-style:normal;font-size:10px">80000</text>
<text x="19.055" y="-375.83" transform="scale(1, -1)"
	style="font-family:Times;font-weight:normal;font-style:normal;font-size:10px">140000</text>
<path d="M51.555,92.847L59.555,92.847" style="fill:none;stroke:#000000;stroke-width:0.5" />
<path d="M51.555,235.94L59.555,235.94" style="fill:none;stroke:#000000;stroke-width:0.5" />
<path d="M51.555,379.03L59.555,379.03" style="fill:none;stroke:#000000;stroke-width:0.5" />
<path d="M55.555,164.39L59.555,164.39" style="fill:none;stroke:#000000;stroke-width:0.5" />
<path d="M55.555,307.49L59.555,307.49" style="fill:none;stroke:#000000;stroke-width:0.5" />
<path d="M59.555,45.151L59.555,416.58" style="fill:none;stroke:#000000;stroke-width:0.5" />
<path d="M65.305,416.58L96.147,48.533L97.549,48.5L101.75,69.668L105.96,66.012L107.36,52.151L108.76,78.506L110.17,99.999L111.57,79.475L112.97,92.842L114.37,76.861L115.77,62.561L118.58,52.373L119.98,86.157L121.38,51.805L122.78,92.434L124.19,62.256L125.59,87.795L126.99,77.421L128.39,71.54L129.79,55.869L132.6,45.368L134,55.762L135.4,71.628L136.8,55.926L138.2,45.781L139.61,65.988L141.01,56.224L142.41,50.62L143.81,60.133L145.21,48.104L146.62,72.482L148.02,57.887L149.42,73.24L150.82,82.997L152.22,57.505L153.63,53.727L155.03,54.383L156.43,58.612L157.83,56.661L159.23,66.455L160.64,56.756L162.04,55.466L163.44,57.908L164.84,57.369L166.24,58.564L167.64,62.852L169.05,62.666L170.45,66.391L171.85,64.996L173.25,63.522L174.65,59.759L176.06,58.655L177.46,65.342L178.86,55.642L180.26,61.483L181.66,58.712L183.07,63.803L184.47,62.709L185.87,59.489L187.27,61.421L188.67,58.602L190.08,59.69L191.48,58.683L192.88,58.5L194.28,62.931L195.68,63.966L197.08,63.41L198.49,60.977L199.89,57.596L201.29,57.782L202.69,54.674L204.09,59.143L205.5,57.801L206.9,58.752L208.3,59.504L209.7,58.69L211.1,58.65L212.51,56.437L213.91,57.309L215.31,54.197L216.71,54.686L218.11,55.158L219.52,55.328L220.92,57.231L222.32,55.695L223.72,54.605L225.12,56.014L226.53,54.815L227.93,54.729L229.33,55.251L230.73,55.361L232.13,56.778L233.53,54.884L234.94,56.32L236.34,53.921L237.74,54.937L239.14,53.973L240.54,54.533L241.95,54.312L243.35,54.204L244.75,54.591L246.15,53.904L247.55,53.735L248.96,52.921L250.36,53.112L251.76,53.944L253.16,53.718L254.56,53.673L255.97,53.699L257.37,53.019L258.77,53.348L260.17,52.256L261.57,52.745L262.98,52.425L264.38,52.177L265.78,52.27L267.18,51.819L268.58,52.28L269.98,51.614L271.39,51.684L272.79,51.123L274.19,51.025L275.59,51.145L276.99,50.956L278.4,51.09L279.8,51.047L281.2,50.904L282.6,50.749L284,50.272L285.41,50.305L286.81,50.291L288.21,49.909L289.61,50.446L291.01,49.869L292.42,50.224L293.82,49.678L295.22,49.907L296.62,49.675L298.02,49.163L299.42,49.27L300.83,49.294L302.23,49.287L303.63,48.998L305.03,49.342L306.43,49.11L307.84,49.101L309.24,48.886L310.64,48.853L312.04,48.826L313.44,48.631L314.85,48.55L316.25,48.7L317.65,48.536L319.05,48.361L320.45,48.316L321.86,48.285L323.26,48.295L324.66,48.008L326.06,48.087L327.46,48.075L328.87,48.018L330.27,47.78L331.67,47.684L333.07,47.56L334.47,47.627L335.87,47.551L337.28,47.489L338.68,47.467L340.08,47.329L341.48,47.381L342.88,47.384L344.29,47.233L345.69,47.057L347.09,47.176L348.49,47.157L349.89,46.99L351.3,46.966L352.7,47.007L354.1,46.835L355.5,46.818L356.9,46.923L358.31,46.816L359.71,46.673L361.11,46.609L362.51,46.513L363.91,46.597L365.31,46.544L366.72,46.527L368.12,46.485L369.52,46.475L370.92,46.353L372.32,46.38L373.73,46.315L375.13,46.358L376.53,46.356L377.93,46.229L379.33,46.26L380.74,46.225L382.14,46.132L383.54,46.172L384.94,46.096L386.34,46.141L387.75,46.098L389.15,46.019L390.55,45.993L391.95,46.027L393.35,45.915L394.76,45.862L396.16,45.905L397.56,45.957L398.96,45.864L400.36,45.817L401.76,45.838L403.17,45.833L404.57,45.781L405.97,45.891L407.37,45.767L408.77,45.783L410.18,45.733L411.58,45.736L412.98,45.7L414.38,45.633L415.78,45.674L417.19,45.657L418.59,45.619L419.99,45.631L421.39,45.6L422.79,45.583L424.2,45.545L425.6,45.593L427,45.542L428.4,45.571L429.8,45.533L431.21,45.531L432.61,45.409L434.01,45.509L435.41,45.464L436.81,45.461L438.21,45.478L439.62,45.435L441.02,45.476L442.42,45.461L443.82,45.407L445.22,45.407L446.63,45.395L448.03,45.466L449.43,45.407L450.83,45.426L452.23,45.404L453.64,45.395L455.04,45.337L456.44,45.373L457.84,45.347L459.24,45.376L460.65,45.373L462.05,45.33L463.45,45.361L464.85,45.311L466.25,45.316L467.65,45.311L469.06,45.306L470.46,45.314L471.86,45.292L473.26,45.271L474.66,45.309L476.07,45.285L477.47,45.259L478.87,45.278L480.27,45.273L481.67,45.237L483.08,45.266L484.48,45.273L485.88,45.263L487.28,45.242L488.68,45.278L490.09,45.249L491.49,45.23L492.89,45.23L494.29,45.221L495.69,45.221L497.1,45.211L498.5,45.252L499.9,45.213L501.3,45.221L502.7,45.223L504.1,45.242L505.51,45.201L506.91,45.216L508.31,45.197L509.71,45.201L511.11,45.199L512.52,45.19L513.92,45.199L515.32,45.199L516.72,45.182L518.12,45.197L519.53,45.213L520.93,45.199L522.33,45.175L523.73,45.182L525.13,45.19L526.54,45.182L527.94,45.178L529.34,45.192L530.74,45.182L532.14,45.182L533.55,45.178L534.95,45.194L536.35,45.18L537.75,45.182L539.15,45.182L540.55,45.173L541.96,45.19L543.36,45.175L544.76,45.161L546.16,45.175L547.56,45.168L548.97,45.166L550.37,45.156L551.77,45.175L553.17,45.173L554.57,45.159L555.98,45.17L557.38,45.173L558.78,45.166L560.18,45.168L561.58,45.156L562.99,45.159L564.39,45.166L565.79,45.156L567.19,45.154L568.59,45.154L569.99,45.163L571.4,45.163L572.8,45.159L574.2,45.163L575.6,45.161L577,45.161L578.41,45.163L579.81,45.173L581.21,45.163L582.61,45.154L584.01,45.156L585.42,45.156L586.82,45.159L588.22,45.156L591.02,45.156L592.43,45.151L593.83,45.159L595.23,45.154L596.63,45.161L598.03,45.151L599.44,45.151L600.84,45.154L602.24,45.154L603.64,45.159L605.04,45.154L606.44,45.163L607.85,45.154L610.65,45.154L612.05,45.151L613.45,45.151L614.86,45.154L616.26,45.151L617.66,45.154L619.06,45.159L620.46,45.154L623.27,45.151L624.67,45.151L628.88,45.151L631.68,45.154L633.08,45.151L637.29,45.151L638.69,45.151L644.3,45.151L647.1,45.151L654.11,45.151L655.51,45.151L656.91,45.151L658.32,45.151L663.92,45.151L669.53,45.151L673.74,45.151L683.55,45.151L686.35,45.151L694.77,45.151L701.78,45.151L720,45.151" style="fill:none;stroke:#0000FF" />
</g>
</svg>
