<?xml version="1.0"?>
<!-- Generated by SVGo and Plotinum VG -->
<svg width="720pt" height="432pt" viewBox="0 0 720 432"
	xmlns="http://www.w3.org/2000/svg"
	xmlns:xlink="http://www.w3.org/1999/xlink">
<g transform="scale(1, -1) translate(0, -432)">
<path d="M0,0L720,0L720,432L0,432Z" style="fill:#FFFFFF" />
<text x="358.5" y="-420.45" transform="scale(1, -1)"
	style="font-family:Times;font-weight:normal;font-style:normal;font-size:12px"> </text>
<text x="376.28" y="-3.8613" transform="scale(1, -1)"
	style="font-family:Times;font-weight:normal;font-style:normal;font-size:12px">Costs</text>
<text x="56.555" y="-18.634" transform="scale(1, -1)"
	style="font-family:Times;font-weight:normal;font-style:normal;font-size:10px">0.00</text>
<text x="372.03" y="-18.634" transform="scale(1, -1)"
	style="font-family:Times;font-weight:normal;font-style:normal;font-size:10px">250.00</text>
<text x="692.5" y="-18.634" transform="scale(1, -1)"
	style="font-family:Times;font-weight:normal;font-style:normal;font-size:10px">500.00</text>
<path d="M65.305,28.263L65.305,36.263" style="fill:none;stroke:#000000;stroke-width:0.5" />
<path d="M385.78,28.263L385.78,36.263" style="fill:none;stroke:#000000;stroke-width:0.5" />
<path d="M706.25,28.263L706.25,36.263" style="fill:none;stroke:#000000;stroke-width:0.5" />
<path d="M129.4,32.263L129.4,36.263" style="fill:none;stroke:#000000;stroke-width:0.5" />
<path d="M193.49,32.263L193.49,36.263" style="fill:none;stroke:#000000;stroke-width:0.5" />
<path d="M257.59,32.263L257.59,36.263" style="fill:none;stroke:#000000;stroke-width:0.5" />
<path d="M321.68,32.263L321.68,36.263" style="fill:none;stroke:#000000;stroke-width:0.5" />
<path d="M449.87,32.263L449.87,36.263" style="fill:none;stroke:#000000;stroke-width:0.5" />
<path d="M513.97,32.263L513.97,36.263" style="fill:none;stroke:#000000;stroke-width:0.5" />
<path d="M578.06,32.263L578.06,36.263" style="fill:none;stroke:#000000;stroke-width:0.5" />
<path d="M642.16,32.263L642.16,36.263" style="fill:none;stroke:#000000;stroke-width:0.5" />
<path d="M65.305,36.263L713.94,36.263" style="fill:none;stroke:#000000;stroke-width:0.5" />
<g transform="rotate(90)">
<text x="152.55" y="11.555" transform="scale(1, -1)"
	style="font-family:Times;font-weight:normal;font-style:normal;font-size:12px">Number of trials (1000000 total)</text>
</g>
<text x="24.055" y="-107.69" transform="scale(1, -1)"
	style="font-family:Times;font-weight:normal;font-style:normal;font-size:10px">30000</text>
<text x="24.055" y="-239.19" transform="scale(1, -1)"
	style="font-family:Times;font-weight:normal;font-style:normal;font-size:10px">90000</text>
<text x="19.055" y="-370.68" transform="scale(1, -1)"
	style="font-family:Times;font-weight:normal;font-style:normal;font-size:10px">150000</text>
<path d="M51.555,110.9L59.555,110.9" style="fill:none;stroke:#000000;stroke-width:0.5" />
<path d="M51.555,242.39L59.555,242.39" style="fill:none;stroke:#000000;stroke-width:0.5" />
<path d="M51.555,373.89L59.555,373.89" style="fill:none;stroke:#000000;stroke-width:0.5" />
<path d="M55.555,176.64L59.555,176.64" style="fill:none;stroke:#000000;stroke-width:0.5" />
<path d="M55.555,308.14L59.555,308.14" style="fill:none;stroke:#000000;stroke-width:0.5" />
<path d="M59.555,45.151L59.555,416.58" style="fill:none;stroke:#000000;stroke-width:0.5" />
<path d="M65.305,416.58L94.788,48.476L96.07,55.776L98.634,59.708L99.916,62.969L101.2,55.715L102.48,48.765L103.76,48.41L105.04,66.331L106.33,83.837L107.61,48.377L108.89,82.04L110.17,77.62L111.45,136.15L112.73,62.811L114.02,92.654L115.3,65.682L116.58,65.531L117.86,52.046L119.14,51.989L120.43,77.742L121.71,73.969L122.99,52.182L124.27,52.101L125.55,45.23L128.12,52.147L129.4,67.97L130.68,45.726L131.96,45.487L133.24,70.646L134.53,46.006L135.81,50.313L137.09,49.964L138.37,53.543L139.65,52.509L140.94,53.23L142.22,57.639L143.5,53.311L144.78,60.315L146.06,113.67L147.35,52.55L148.63,52.544L149.91,55.27L151.19,61.409L152.47,59.585L153.76,55.943L155.04,64.578L156.32,61.481L157.6,60.521L158.88,72.204L160.16,86.945L161.45,61.132L162.73,58.91L164.01,57.698L165.29,57.238L166.57,60.194L167.86,62.18L169.14,59.583L170.42,56.076L171.7,51.671L172.98,53.604L174.27,53.799L175.55,55.095L176.83,55.511L178.11,53.628L179.39,58.776L180.67,53.504L181.96,54.621L183.24,52.281L184.52,54.805L185.8,56.269L187.08,57.768L188.37,54.786L189.65,59.092L190.93,58.581L192.21,66.826L193.49,55.237L194.78,60.372L196.06,55.461L197.34,57.017L198.62,53.116L199.9,55.835L201.19,60.488L202.47,57.472L203.75,55.853L205.03,57.738L206.31,58.257L207.59,54.805L208.88,56.381L210.16,57.909L211.44,52.953L212.72,52.489L214,57.315L215.29,55.119L216.57,53.762L217.85,52.296L219.13,52.59L220.41,51.321L221.7,51.257L222.98,53.806L224.26,52.833L225.54,52.552L226.82,53.517L228.1,52.576L229.39,50.762L230.67,51.404L231.95,52.57L233.23,52.487L234.51,51.531L235.8,53.138L237.08,52.568L238.36,52.156L239.64,53.826L240.92,56.085L242.21,51.511L243.49,51.375L244.77,51.321L246.05,51.886L247.33,51.888L248.62,51.912L249.9,51.877L251.18,51.082L252.46,50.389L253.74,51.595L255.02,51.036L256.31,50.696L257.59,50.554L258.87,50.093L260.15,50.565L261.43,50.054L262.72,50.297L264,49.819L265.28,49.69L266.56,49.278L267.84,49.177L269.13,49.418L270.41,49.442L271.69,49.484L272.97,49.484L274.25,49.041L275.53,48.816L276.82,48.68L278.1,48.969L279.38,48.404L280.66,48.776L281.94,49.013L283.23,48.625L284.51,48.789L285.79,48.982L287.07,49.287L288.35,48.583L289.64,48.702L290.92,48.485L292.2,48.101L293.48,48.158L294.76,48.494L296.04,48.5L297.33,48.112L298.61,47.77L299.89,48.143L301.17,47.54L302.45,47.604L303.74,47.865L305.02,47.735L306.3,47.365L307.58,47.38L308.86,47.547L310.15,47.404L311.43,47.273L312.71,47.19L313.99,47.233L315.27,47.111L316.56,47.135L317.84,47.091L319.12,46.97L320.4,46.938L321.68,47.06L322.96,46.848L324.25,46.718L325.53,46.723L326.81,46.927L328.09,46.758L329.37,46.736L330.66,46.859L331.94,46.67L333.22,46.613L334.5,46.675L335.78,46.615L337.07,46.482L338.35,46.412L339.63,46.414L340.91,46.447L342.19,46.355L343.47,46.381L344.76,46.346L346.04,46.265L347.32,46.225L348.6,46.236L349.88,46.131L351.17,46.105L352.45,46.203L353.73,46.118L355.01,46.118L356.29,46.063L357.58,46.021L358.86,45.973L360.14,45.971L361.42,46.028L362.7,45.973L363.99,45.938L365.27,45.932L366.55,45.818L367.83,45.901L369.11,45.778L370.39,45.791L371.68,45.809L372.96,45.789L374.24,45.723L375.52,45.767L376.8,45.732L378.09,45.754L379.37,45.743L380.65,45.693L381.93,45.647L383.21,45.601L384.5,45.636L385.78,45.618L387.06,45.548L388.34,45.566L389.62,45.631L390.9,45.572L392.19,45.577L393.47,45.52L394.75,45.539L396.03,45.482L397.31,45.539L398.6,45.476L399.88,45.465L401.16,45.509L402.44,45.48L403.72,45.441L405.01,45.434L406.29,45.449L407.57,45.408L408.85,45.438L410.13,45.399L411.42,45.397L412.7,45.441L413.98,45.381L415.26,45.392L416.54,45.39L417.82,45.386L419.11,45.403L420.39,45.368L421.67,45.355L422.95,45.307L424.23,45.355L425.52,45.36L426.8,45.34L428.08,45.314L429.36,45.351L430.64,45.362L431.93,45.307L433.21,45.314L434.49,45.294L435.77,45.276L437.05,45.303L438.33,45.248L439.62,45.3L440.9,45.283L442.18,45.278L443.46,45.232L444.74,45.243L446.03,45.243L447.31,45.265L448.59,45.265L449.87,45.252L451.15,45.246L452.44,45.248L453.72,45.241L455,45.228L456.28,45.208L457.56,45.235L458.85,45.224L460.13,45.228L461.41,45.221L462.69,45.237L463.97,45.237L465.25,45.202L466.54,45.237L467.82,45.211L469.1,45.202L470.38,45.221L471.66,45.191L472.95,45.204L474.23,45.2L475.51,45.189L476.79,45.208L478.07,45.189L479.36,45.182L480.64,45.195L481.92,45.189L483.2,45.184L484.48,45.195L485.76,45.204L487.05,45.18L488.33,45.184L489.61,45.184L490.89,45.186L492.17,45.18L493.46,45.189L494.74,45.191L496.02,45.175L497.3,45.173L498.58,45.184L499.87,45.178L501.15,45.191L502.43,45.173L503.71,45.173L504.99,45.165L506.28,45.178L507.56,45.165L508.84,45.169L510.12,45.171L511.4,45.158L512.68,45.175L513.97,45.162L515.25,45.169L516.53,45.169L517.81,45.162L519.09,45.165L520.38,45.171L521.66,45.169L522.94,45.162L524.22,45.162L525.5,45.16L526.79,45.158L528.07,45.167L529.35,45.162L530.63,45.156L531.91,45.16L533.19,45.162L534.48,45.16L535.76,45.165L537.04,45.162L538.32,45.162L539.6,45.158L540.89,45.167L542.17,45.158L543.45,45.156L544.73,45.158L546.01,45.16L547.3,45.156L548.58,45.158L549.86,45.156L551.14,45.158L552.42,45.154L553.71,45.154L554.99,45.154L556.27,45.156L557.55,45.156L558.83,45.151L560.11,45.151L561.4,45.151L562.68,45.151L566.52,45.156L567.81,45.156L570.37,45.151L571.65,45.151L572.93,45.154L575.5,45.151L576.78,45.156L578.06,45.151L579.34,45.151L580.62,45.154L581.91,45.151L583.19,45.151L584.47,45.154L585.75,45.151L587.03,45.151L588.32,45.154L589.6,45.151L590.88,45.151L592.16,45.151L597.29,45.151L598.57,45.151L601.13,45.151L603.7,45.154L604.98,45.151L608.83,45.151L610.11,45.151L611.39,45.151L612.67,45.151L615.24,45.151L628.05,45.154L637.03,45.151L638.31,45.151L649.85,45.151L713.94,45.151" style="fill:none;stroke:#0000FF" />
</g>
</svg>
