<?xml version="1.0"?>
<!-- Generated by SVGo and Plotinum VG -->
<svg width="720pt" height="432pt" viewBox="0 0 720 432"
	xmlns="http://www.w3.org/2000/svg"
	xmlns:xlink="http://www.w3.org/1999/xlink">
<g transform="scale(1, -1) translate(0, -432)">
<path d="M0,0L720,0L720,432L0,432Z" style="fill:#FFFFFF" />
<text x="358.5" y="-420.45" transform="scale(1, -1)"
	style="font-family:Times;font-weight:normal;font-style:normal;font-size:12px"> </text>
<text x="376.81" y="-3.8613" transform="scale(1, -1)"
	style="font-family:Times;font-weight:normal;font-style:normal;font-size:12px">Costs</text>
<text x="51.555" y="-18.634" transform="scale(1, -1)"
	style="font-family:Times;font-weight:normal;font-style:normal;font-size:10px">0.00</text>
<text x="349.17" y="-18.634" transform="scale(1, -1)"
	style="font-family:Times;font-weight:normal;font-style:normal;font-size:10px">250.00</text>
<text x="651.78" y="-18.634" transform="scale(1, -1)"
	style="font-family:Times;font-weight:normal;font-style:normal;font-size:10px">500.00</text>
<path d="M60.305,28.263L60.305,36.263" style="fill:none;stroke:#000000;stroke-width:0.5" />
<path d="M362.92,28.263L362.92,36.263" style="fill:none;stroke:#000000;stroke-width:0.5" />
<path d="M665.53,28.263L665.53,36.263" style="fill:none;stroke:#000000;stroke-width:0.5" />
<path d="M120.83,32.263L120.83,36.263" style="fill:none;stroke:#000000;stroke-width:0.5" />
<path d="M181.35,32.263L181.35,36.263" style="fill:none;stroke:#000000;stroke-width:0.5" />
<path d="M241.87,32.263L241.87,36.263" style="fill:none;stroke:#000000;stroke-width:0.5" />
<path d="M302.39,32.263L302.39,36.263" style="fill:none;stroke:#000000;stroke-width:0.5" />
<path d="M423.44,32.263L423.44,36.263" style="fill:none;stroke:#000000;stroke-width:0.5" />
<path d="M483.96,32.263L483.96,36.263" style="fill:none;stroke:#000000;stroke-width:0.5" />
<path d="M544.48,32.263L544.48,36.263" style="fill:none;stroke:#000000;stroke-width:0.5" />
<path d="M605.01,32.263L605.01,36.263" style="fill:none;stroke:#000000;stroke-width:0.5" />
<path d="M60.305,36.263L720,36.263" style="fill:none;stroke:#000000;stroke-width:0.5" />
<g transform="rotate(90)">
<text x="152.55" y="11.555" transform="scale(1, -1)"
	style="font-family:Times;font-weight:normal;font-style:normal;font-size:12px">Number of trials (1000000 total)</text>
</g>
<text x="19.055" y="-99.396" transform="scale(1, -1)"
	style="font-family:Times;font-weight:normal;font-style:normal;font-size:10px">10000</text>
<text x="19.055" y="-156.85" transform="scale(1, -1)"
	style="font-family:Times;font-weight:normal;font-style:normal;font-size:10px">20000</text>
<text x="19.055" y="-214.31" transform="scale(1, -1)"
	style="font-family:Times;font-weight:normal;font-style:normal;font-size:10px">30000</text>
<text x="19.055" y="-271.77" transform="scale(1, -1)"
	style="font-family:Times;font-weight:normal;font-style:normal;font-size:10px">40000</text>
<text x="19.055" y="-329.22" transform="scale(1, -1)"
	style="font-family:Times;font-weight:normal;font-style:normal;font-size:10px">50000</text>
<text x="19.055" y="-386.68" transform="scale(1, -1)"
	style="font-family:Times;font-weight:normal;font-style:normal;font-size:10px">60000</text>
<path d="M46.555,102.6L54.555,102.6" style="fill:none;stroke:#000000;stroke-width:0.5" />
<path d="M46.555,160.06L54.555,160.06" style="fill:none;stroke:#000000;stroke-width:0.5" />
<path d="M46.555,217.51L54.555,217.51" style="fill:none;stroke:#000000;stroke-width:0.5" />
<path d="M46.555,274.97L54.555,274.97" style="fill:none;stroke:#000000;stroke-width:0.5" />
<path d="M46.555,332.43L54.555,332.43" style="fill:none;stroke:#000000;stroke-width:0.5" />
<path d="M46.555,389.88L54.555,389.88" style="fill:none;stroke:#000000;stroke-width:0.5" />
<path d="M50.555,56.637L54.555,56.637" style="fill:none;stroke:#000000;stroke-width:0.5" />
<path d="M50.555,68.128L54.555,68.128" style="fill:none;stroke:#000000;stroke-width:0.5" />
<path d="M50.555,79.619L54.555,79.619" style="fill:none;stroke:#000000;stroke-width:0.5" />
<path d="M50.555,91.111L54.555,91.111" style="fill:none;stroke:#000000;stroke-width:0.5" />
<path d="M50.555,114.09L54.555,114.09" style="fill:none;stroke:#000000;stroke-width:0.5" />
<path d="M50.555,125.58L54.555,125.58" style="fill:none;stroke:#000000;stroke-width:0.5" />
<path d="M50.555,137.08L54.555,137.08" style="fill:none;stroke:#000000;stroke-width:0.5" />
<path d="M50.555,148.57L54.555,148.57" style="fill:none;stroke:#000000;stroke-width:0.5" />
<path d="M50.555,171.55L54.555,171.55" style="fill:none;stroke:#000000;stroke-width:0.5" />
<path d="M50.555,183.04L54.555,183.04" style="fill:none;stroke:#000000;stroke-width:0.5" />
<path d="M50.555,194.53L54.555,194.53" style="fill:none;stroke:#000000;stroke-width:0.5" />
<path d="M50.555,206.02L54.555,206.02" style="fill:none;stroke:#000000;stroke-width:0.5" />
<path d="M50.555,229.01L54.555,229.01" style="fill:none;stroke:#000000;stroke-width:0.5" />
<path d="M50.555,240.5L54.555,240.5" style="fill:none;stroke:#000000;stroke-width:0.5" />
<path d="M50.555,251.99L54.555,251.99" style="fill:none;stroke:#000000;stroke-width:0.5" />
<path d="M50.555,263.48L54.555,263.48" style="fill:none;stroke:#000000;stroke-width:0.5" />
<path d="M50.555,286.46L54.555,286.46" style="fill:none;stroke:#000000;stroke-width:0.5" />
<path d="M50.555,297.95L54.555,297.95" style="fill:none;stroke:#000000;stroke-width:0.5" />
<path d="M50.555,309.45L54.555,309.45" style="fill:none;stroke:#000000;stroke-width:0.5" />
<path d="M50.555,320.94L54.555,320.94" style="fill:none;stroke:#000000;stroke-width:0.5" />
<path d="M50.555,343.92L54.555,343.92" style="fill:none;stroke:#000000;stroke-width:0.5" />
<path d="M50.555,355.41L54.555,355.41" style="fill:none;stroke:#000000;stroke-width:0.5" />
<path d="M50.555,366.9L54.555,366.9" style="fill:none;stroke:#000000;stroke-width:0.5" />
<path d="M50.555,378.39L54.555,378.39" style="fill:none;stroke:#000000;stroke-width:0.5" />
<path d="M50.555,401.38L54.555,401.38" style="fill:none;stroke:#000000;stroke-width:0.5" />
<path d="M50.555,412.87L54.555,412.87" style="fill:none;stroke:#000000;stroke-width:0.5" />
<path d="M54.555,45.151L54.555,416.58" style="fill:none;stroke:#000000;stroke-width:0.5" />
<path d="M60.305,416.58L86.935,48.57L88.145,64.009L91.776,81.797L92.987,93.357L94.197,58.723L95.408,55.649L96.618,64.164L97.829,97.437L99.039,88.267L100.25,64.342L101.46,86.566L102.67,52.264L103.88,62.704L106.3,104.39L107.51,70.909L108.72,82.354L109.93,74.592L111.14,109.19L112.35,64.112L113.56,103.72L114.77,75.799L115.99,51.868L118.41,45.554L119.62,114.77L120.83,101.79L122.04,67.565L123.25,46.852L124.46,103.63L125.67,83.544L126.88,50.483L128.09,56.476L129.3,58.131L130.51,56.792L131.72,74.713L132.93,80.74L134.14,81.148L135.35,80.792L136.56,83.584L137.77,60.061L138.98,67.157L140.19,62.733L141.4,82.785L142.62,65.514L143.83,67.95L145.04,70.024L146.25,75.575L147.46,74.891L148.67,73.443L149.88,76.586L151.09,72.035L152.3,84.498L153.51,74.414L154.72,69.904L155.93,69.576L157.14,84.475L158.35,97.552L159.56,80.596L160.77,80.832L161.98,81.343L163.19,77.723L164.4,76.08L165.61,81.722L166.82,78.43L168.03,78.597L169.25,73.552L170.46,84.624L171.67,80.763L172.88,86.52L174.09,87.324L175.3,81.366L176.51,70.128L177.72,72.742L178.93,76.678L180.14,79.551L181.35,72.185L182.56,75.299L183.77,77.792L184.98,85.055L186.19,79.596L187.4,76.459L188.61,72.259L189.82,76.649L191.03,71.57L192.24,74.862L193.45,74.42L194.66,77.126L195.88,80.769L197.09,79.074L198.3,74.839L199.51,75.236L200.72,78.579L201.93,73.874L203.14,70.61L204.35,73.891L205.56,75.356L206.77,76.747L207.98,74.322L209.19,77.384L210.4,73.65L211.61,78.982L212.82,74.356L214.03,74.19L215.24,71.759L216.45,72.776L217.66,76.051L218.87,74.931L220.08,73.345L221.29,74.385L222.51,75.241L223.72,75.195L224.93,72.937L226.14,72.57L227.35,71.846L228.56,70.639L229.77,71.007L230.98,72.897L232.19,73.259L233.4,73.949L234.61,72.656L235.82,70.88L237.03,70.725L238.24,71.874L239.45,70.76L240.66,68.875L241.87,68.806L243.08,68.364L244.29,68.933L245.5,69.318L246.71,69.697L247.92,68.312L249.13,68.082L250.35,67.68L251.56,67.376L252.77,66.404L253.98,66.807L255.19,67.617L256.4,66.588L257.61,66.812L258.82,66.629L260.03,67.525L261.24,66.18L262.45,65.623L263.66,65.675L264.87,64.928L266.08,65.485L267.29,64.692L268.5,64.612L269.71,64.462L270.92,64.652L272.13,64.439L273.34,63.704L274.55,63.342L275.76,62.94L276.98,63.221L278.19,62.997L279.4,62.239L280.61,62.273L281.82,62.411L283.03,62.273L284.24,61.768L285.45,62.239L286.66,61.05L287.87,60.791L289.08,60.584L290.29,60.676L291.5,60.107L292.71,59.998L293.92,59.78L295.13,59.918L296.34,59.044L297.55,60.107L298.76,59.538L299.97,58.792L301.18,58.625L302.39,57.855L303.61,58.142L304.82,57.861L306.03,57.912L307.24,58.205L308.45,57.706L309.66,57.66L310.87,57.522L312.08,57.051L313.29,56.591L314.5,56.39L315.71,56.298L316.92,56.344L318.13,55.545L319.34,56.166L320.55,55.901L321.76,55.2L322.97,54.821L324.18,55.476L325.39,55.126L326.6,54.988L327.81,54.649L329.02,54.764L330.24,54.402L331.45,54.373L332.66,54.229L333.87,54.011L335.08,53.5L336.29,53.724L337.5,53.408L338.71,53.385L339.92,52.874L341.13,52.81L342.34,52.822L343.55,52.557L344.76,52.517L345.97,52.598L347.18,52.282L348.39,52.161L349.6,52.287L350.81,51.874L352.02,51.954L353.23,51.851L354.44,51.604L355.65,51.133L356.86,51.736L358.08,51.253L359.29,50.995L360.5,51.023L361.71,50.897L362.92,50.817L364.13,50.771L365.34,50.518L366.55,50.322L367.76,50.242L368.97,50.294L370.18,50.121L371.39,49.823L372.6,49.639L373.81,49.598L375.02,49.541L376.23,49.667L377.44,49.518L378.65,49.57L379.86,49.311L381.07,49.156L382.28,49.254L383.49,48.972L384.71,48.656L385.92,48.811L387.13,48.754L388.34,48.679L389.55,48.737L390.76,48.49L391.97,48.352L393.18,48.409L394.39,48.61L395.6,48.3L396.81,48.329L398.02,48.288L399.23,47.99L400.44,47.858L401.65,47.829L402.86,47.858L404.07,47.886L405.28,47.812L406.49,47.863L407.7,47.593L408.91,47.662L410.12,47.524L411.34,47.628L412.55,47.478L413.76,47.496L414.97,47.208L416.18,47.289L417.39,47.111L418.6,47.243L419.81,47.237L421.02,47.272L422.23,47.116L423.44,47.024L424.65,46.961L425.86,46.978L427.07,47.019L428.28,46.726L429.49,46.703L430.7,46.68L431.91,46.668L433.12,46.594L434.33,46.668L435.54,46.588L436.75,46.473L437.97,46.553L439.18,46.318L440.39,46.507L441.6,46.381L442.81,46.45L444.02,46.41L445.23,46.358L446.44,46.289L447.65,46.249L448.86,46.168L450.07,46.099L451.28,46.22L452.49,46.134L453.7,46.082L454.91,46.03L456.12,46.232L457.33,46.013L458.54,46.013L459.75,45.956L460.96,46.002L462.17,45.904L463.38,45.939L464.6,45.893L465.81,45.996L467.02,45.789L468.23,45.76L469.44,45.898L470.65,45.967L471.86,45.795L473.07,45.812L474.28,45.847L475.49,45.766L476.7,45.703L477.91,45.76L479.12,45.697L480.33,45.795L481.54,45.651L482.75,45.64L483.96,45.623L485.17,45.697L486.38,45.697L487.59,45.645L488.8,45.542L490.01,45.588L491.22,45.634L492.44,45.536L493.65,45.611L494.86,45.467L496.07,45.49L497.28,45.536L498.49,45.519L499.7,45.542L500.91,45.416L502.12,45.439L503.33,45.473L504.54,45.542L505.75,45.404L506.96,45.375L508.17,45.479L509.38,45.387L510.59,45.433L511.8,45.398L513.01,45.387L514.22,45.41L515.43,45.341L516.64,45.37L517.85,45.404L519.07,45.375L520.28,45.381L521.49,45.335L522.7,45.335L523.91,45.324L525.12,45.37L526.33,45.37L527.54,45.329L528.75,45.393L529.96,45.347L531.17,45.318L532.38,45.312L533.59,45.272L534.8,45.284L536.01,45.238L537.22,45.295L538.43,45.226L539.64,45.318L540.85,45.266L542.06,45.289L543.27,45.243L544.48,45.249L545.7,45.243L546.91,45.226L548.12,45.215L549.33,45.249L550.54,45.255L551.75,45.226L552.96,45.255L554.17,45.238L555.38,45.209L556.59,45.226L557.8,45.266L559.01,45.238L560.22,45.203L561.43,45.22L562.64,45.232L563.85,45.243L565.06,45.226L566.27,45.209L567.48,45.197L568.69,45.203L569.9,45.232L571.11,45.186L572.33,45.18L573.54,45.22L574.75,45.169L575.96,45.249L577.17,45.22L578.38,45.174L579.59,45.209L580.8,45.18L582.01,45.186L583.22,45.174L584.43,45.186L585.64,45.186L586.85,45.18L588.06,45.192L589.27,45.192L590.48,45.18L591.69,45.192L592.9,45.174L594.11,45.174L595.32,45.18L596.53,45.186L597.74,45.169L598.95,45.169L600.17,45.18L601.38,45.157L602.59,45.174L603.8,45.169L605.01,45.163L606.22,45.157L607.43,45.157L608.64,45.169L609.85,45.151L612.27,45.197L613.48,45.18L614.69,45.163L615.9,45.163L617.11,45.192L618.32,45.18L619.53,45.157L620.74,45.18L621.95,45.169L623.16,45.157L625.58,45.151L626.8,45.157L628.01,45.169L629.22,45.169L630.43,45.157L631.64,45.151L632.85,45.163L634.06,45.163L635.27,45.163L636.48,45.157L637.69,45.151L641.32,45.157L642.53,45.157L643.74,45.151L644.95,45.163L646.16,45.151L647.37,45.157L648.58,45.151L649.79,45.157L651,45.151L654.64,45.151L655.85,45.151L657.06,45.151L658.27,45.151L659.48,45.151L665.53,45.151L667.95,45.151L670.37,45.151L681.27,45.151L682.48,45.157L684.9,45.151L687.32,45.151L688.53,45.151L689.74,45.151L698.21,45.157L699.42,45.151L704.26,45.151L711.53,45.151L720,45.151" style="fill:none;stroke:#0000FF" />
</g>
</svg>
