<?xml version="1.0"?>
<!-- Generated by SVGo and Plotinum VG -->
<svg width="720pt" height="432pt" viewBox="0 0 720 432"
	xmlns="http://www.w3.org/2000/svg"
	xmlns:xlink="http://www.w3.org/1999/xlink">
<g transform="scale(1, -1) translate(0, -432)">
<path d="M0,0L720,0L720,432L0,432Z" style="fill:#FFFFFF" />
<text x="358.5" y="-420.45" transform="scale(1, -1)"
	style="font-family:Times;font-weight:normal;font-style:normal;font-size:12px"> </text>
<text x="379.31" y="-3.8613" transform="scale(1, -1)"
	style="font-family:Times;font-weight:normal;font-style:normal;font-size:12px">Costs</text>
<text x="62.805" y="-18.634" transform="scale(1, -1)"
	style="font-family:Times;font-weight:normal;font-style:normal;font-size:10px">0</text>
<text x="366.62" y="-18.634" transform="scale(1, -1)"
	style="font-family:Times;font-weight:normal;font-style:normal;font-size:10px">200</text>
<text x="675.44" y="-18.634" transform="scale(1, -1)"
	style="font-family:Times;font-weight:normal;font-style:normal;font-size:10px">400</text>
<path d="M65.305,28.263L65.305,36.263" style="fill:none;stroke:#000000;stroke-width:0.5" />
<path d="M374.12,28.263L374.12,36.263" style="fill:none;stroke:#000000;stroke-width:0.5" />
<path d="M682.94,28.263L682.94,36.263" style="fill:none;stroke:#000000;stroke-width:0.5" />
<path d="M219.71,32.263L219.71,36.263" style="fill:none;stroke:#000000;stroke-width:0.5" />
<path d="M528.53,32.263L528.53,36.263" style="fill:none;stroke:#000000;stroke-width:0.5" />
<path d="M65.305,36.263L720,36.263" style="fill:none;stroke:#000000;stroke-width:0.5" />
<g transform="rotate(90)">
<text x="152.55" y="11.555" transform="scale(1, -1)"
	style="font-family:Times;font-weight:normal;font-style:normal;font-size:12px">Number of trials (1000000 total)</text>
</g>
<text x="24.055" y="-89.967" transform="scale(1, -1)"
	style="font-family:Times;font-weight:normal;font-style:normal;font-size:10px">40000</text>
<text x="19.055" y="-234.03" transform="scale(1, -1)"
	style="font-family:Times;font-weight:normal;font-style:normal;font-size:10px">160000</text>
<text x="19.055" y="-378.1" transform="scale(1, -1)"
	style="font-family:Times;font-weight:normal;font-style:normal;font-size:10px">280000</text>
<path d="M51.555,93.172L59.555,93.172" style="fill:none;stroke:#000000;stroke-width:0.5" />
<path d="M51.555,237.24L59.555,237.24" style="fill:none;stroke:#000000;stroke-width:0.5" />
<path d="M51.555,381.31L59.555,381.31" style="fill:none;stroke:#000000;stroke-width:0.5" />
<path d="M55.555,165.21L59.555,165.21" style="fill:none;stroke:#000000;stroke-width:0.5" />
<path d="M55.555,309.27L59.555,309.27" style="fill:none;stroke:#000000;stroke-width:0.5" />
<path d="M59.555,45.151L59.555,416.58" style="fill:none;stroke:#000000;stroke-width:0.5" />
<path d="M65.305,416.58L99.275,52.182L105.45,48.466L107,48.508L108.54,66.658L113.17,52.129L117.8,109.84L123.98,62.935L125.52,66.542L127.07,63.131L128.61,55.362L130.16,48.533L131.7,48.56L133.24,85.286L134.79,48.61L136.33,51.931L139.42,52.23L140.97,62.701L142.51,66.234L144.05,92.306L147.14,62.496L148.69,52.298L150.23,52.267L151.77,49.961L153.32,45.215L154.86,45.216L156.41,45.573L157.95,52.839L159.49,52.92L161.04,67.013L162.58,66.899L164.13,45.383L165.67,46.89L167.21,47.38L168.76,46.778L170.3,50.41L171.85,46.196L173.39,46.199L174.94,49.652L176.48,51.006L178.02,53.356L179.57,48.567L181.11,48.189L182.66,46.548L184.2,70.344L185.74,54.272L187.29,50.287L188.83,47.58L190.38,54.494L191.92,50.201L193.46,51.566L195.01,52.029L196.55,55.701L198.1,46.519L199.64,50.075L201.18,50.565L202.73,52.17L204.27,51.99L205.82,50.754L207.36,49.185L208.91,49.793L210.45,51.305L211.99,53.249L213.54,49.77L215.08,52.159L216.63,47.26L218.17,49.729L219.71,50.332L221.26,51.477L222.8,49.759L224.35,48.736L225.89,50.285L227.43,50.062L228.98,49.489L230.52,49.586L232.07,46.983L233.61,47.303L235.15,46.932L236.7,52.463L238.24,49.692L239.79,50.26L241.33,48.949L242.88,49.622L244.42,49.132L245.96,48.829L247.51,47.613L249.05,47.346L250.6,46.646L252.14,49.174L253.68,47.871L255.23,48.375L256.77,47.697L258.32,48.985L259.86,47.661L261.4,48.059L262.95,49.806L264.49,47.261L266.04,47.685L267.58,47.536L269.12,47.892L270.67,47.47L272.21,47.444L273.76,47.564L275.3,47.088L276.85,47.025L278.39,47.378L279.93,48.013L281.48,47.892L283.02,46.952L284.57,46.605L286.11,47.034L287.65,47.222L289.2,47.315L290.74,46.778L292.29,46.767L293.83,46.945L295.37,46.726L296.92,47.011L298.46,46.674L300.01,46.633L301.55,46.526L303.09,46.6L304.64,46.865L306.18,46.542L307.73,46.519L309.27,46.717L310.82,46.42L312.36,46.395L313.9,46.4L315.45,46.69L316.99,46.219L318.54,46.335L320.08,46.357L321.62,46.502L323.17,46.338L324.71,46.269L326.26,46.141L327.8,46.089L329.34,46.106L330.89,46.214L332.43,46.072L333.98,46.183L335.52,45.922L337.07,46.137L338.61,45.977L340.15,46.165L341.7,45.937L343.24,45.852L344.79,45.886L346.33,45.866L347.87,45.908L349.42,45.919L350.96,45.804L352.51,45.772L354.05,45.73L355.59,45.798L357.14,45.834L358.68,45.91L360.23,45.741L361.77,45.766L363.31,45.65L364.86,45.692L366.4,45.633L367.95,45.627L369.49,45.59L371.04,45.58L372.58,45.578L374.12,45.64L375.67,45.576L377.21,45.6L378.76,45.526L380.3,45.521L381.84,45.498L383.39,45.524L384.93,45.471L386.48,45.482L388.02,45.471L389.56,45.496L391.11,45.44L392.65,45.501L394.2,45.43L395.74,45.414L397.28,45.435L398.83,45.395L400.37,45.396L401.92,45.413L403.46,45.376L405.01,45.403L406.55,45.403L408.09,45.373L409.64,45.388L411.18,45.335L412.73,45.363L414.27,45.363L415.81,45.331L417.36,45.366L418.9,45.342L420.45,45.337L421.99,45.322L423.53,45.293L425.08,45.346L426.62,45.311L428.17,45.282L429.71,45.268L431.25,45.276L432.8,45.257L434.34,45.286L435.89,45.271L437.43,45.261L438.98,45.274L440.52,45.262L442.06,45.268L443.61,45.264L445.15,45.258L446.7,45.247L448.24,45.237L449.78,45.252L451.33,45.246L452.87,45.221L454.42,45.217L455.96,45.247L457.5,45.243L459.05,45.231L460.59,45.213L462.14,45.208L463.68,45.215L465.22,45.215L466.77,45.213L468.31,45.219L469.86,45.204L471.4,45.205L472.95,45.203L474.49,45.205L476.03,45.207L477.58,45.209L479.12,45.196L480.67,45.202L482.21,45.185L483.75,45.193L485.3,45.185L486.84,45.195L488.39,45.191L489.93,45.19L491.47,45.181L493.02,45.184L494.56,45.19L496.11,45.19L497.65,45.175L499.19,45.179L500.74,45.18L502.28,45.18L503.83,45.177L505.37,45.169L506.92,45.171L508.46,45.173L510,45.174L511.55,45.175L513.09,45.178L514.64,45.166L516.18,45.168L517.72,45.172L519.27,45.162L520.81,45.175L522.36,45.168L523.9,45.166L525.44,45.178L526.99,45.167L528.53,45.166L530.08,45.165L531.62,45.165L533.16,45.167L534.71,45.159L536.25,45.16L537.8,45.165L539.34,45.163L540.89,45.157L542.43,45.155L543.97,45.162L545.52,45.157L547.06,45.155L548.61,45.16L550.15,45.157L551.69,45.159L553.24,45.156L554.78,45.159L556.33,45.163L557.87,45.156L559.41,45.16L560.96,45.159L562.5,45.159L564.05,45.153L565.59,45.156L567.13,45.162L568.68,45.155L570.22,45.154L571.77,45.155L573.31,45.159L574.86,45.153L576.4,45.151L577.94,45.153L579.49,45.155L581.03,45.151L582.58,45.151L584.12,45.156L585.66,45.151L587.21,45.157L588.75,45.155L590.3,45.151L591.84,45.155L593.38,45.153L594.93,45.151L596.47,45.151L598.02,45.151L601.1,45.153L602.65,45.151L604.19,45.151L605.74,45.153L607.28,45.153L610.37,45.151L611.91,45.151L613.46,45.151L615,45.151L616.55,45.153L619.63,45.154L621.18,45.154L622.72,45.151L624.27,45.153L625.81,45.151L627.35,45.151L630.44,45.151L631.99,45.151L635.07,45.153L638.16,45.151L641.25,45.151L645.88,45.151L647.43,45.151L650.52,45.151L656.69,45.153L658.24,45.151L659.78,45.151L662.87,45.151L664.41,45.153L679.85,45.151L690.66,45.151L720,45.151" style="fill:none;stroke:#0000FF" />
</g>
</svg>
