<?xml version="1.0"?>
<!-- Generated by SVGo and Plotinum VG -->
<svg width="720pt" height="432pt" viewBox="0 0 720 432"
	xmlns="http://www.w3.org/2000/svg"
	xmlns:xlink="http://www.w3.org/1999/xlink">
<g transform="scale(1, -1) translate(0, -432)">
<path d="M0,0L720,0L720,432L0,432Z" style="fill:#FFFFFF" />
<text x="358.5" y="-420.45" transform="scale(1, -1)"
	style="font-family:Times;font-weight:normal;font-style:normal;font-size:12px"> </text>
<text x="379.31" y="-3.8613" transform="scale(1, -1)"
	style="font-family:Times;font-weight:normal;font-style:normal;font-size:12px">Costs</text>
<text x="62.805" y="-18.634" transform="scale(1, -1)"
	style="font-family:Times;font-weight:normal;font-style:normal;font-size:10px">0</text>
<text x="363.74" y="-18.634" transform="scale(1, -1)"
	style="font-family:Times;font-weight:normal;font-style:normal;font-size:10px">200</text>
<text x="669.67" y="-18.634" transform="scale(1, -1)"
	style="font-family:Times;font-weight:normal;font-style:normal;font-size:10px">400</text>
<path d="M65.305,28.263L65.305,36.263" style="fill:none;stroke:#000000;stroke-width:0.5" />
<path d="M371.24,28.263L371.24,36.263" style="fill:none;stroke:#000000;stroke-width:0.5" />
<path d="M677.17,28.263L677.17,36.263" style="fill:none;stroke:#000000;stroke-width:0.5" />
<path d="M218.27,32.263L218.27,36.263" style="fill:none;stroke:#000000;stroke-width:0.5" />
<path d="M524.2,32.263L524.2,36.263" style="fill:none;stroke:#000000;stroke-width:0.5" />
<path d="M65.305,36.263L720,36.263" style="fill:none;stroke:#000000;stroke-width:0.5" />
<g transform="rotate(90)">
<text x="152.55" y="11.555" transform="scale(1, -1)"
	style="font-family:Times;font-weight:normal;font-style:normal;font-size:12px">Number of trials (1000000 total)</text>
</g>
<text x="24.055" y="-109.73" transform="scale(1, -1)"
	style="font-family:Times;font-weight:normal;font-style:normal;font-size:10px">40000</text>
<text x="19.055" y="-245.31" transform="scale(1, -1)"
	style="font-family:Times;font-weight:normal;font-style:normal;font-size:10px">120000</text>
<text x="19.055" y="-380.88" transform="scale(1, -1)"
	style="font-family:Times;font-weight:normal;font-style:normal;font-size:10px">200000</text>
<path d="M51.555,112.94L59.555,112.94" style="fill:none;stroke:#000000;stroke-width:0.5" />
<path d="M51.555,248.51L59.555,248.51" style="fill:none;stroke:#000000;stroke-width:0.5" />
<path d="M51.555,384.09L59.555,384.09" style="fill:none;stroke:#000000;stroke-width:0.5" />
<path d="M55.555,180.73L59.555,180.73" style="fill:none;stroke:#000000;stroke-width:0.5" />
<path d="M55.555,316.3L59.555,316.3" style="fill:none;stroke:#000000;stroke-width:0.5" />
<path d="M59.555,45.151L59.555,416.58" style="fill:none;stroke:#000000;stroke-width:0.5" />
<path d="M65.305,416.58L105.08,63.952L106.61,69.362L109.66,48.719L111.19,70.838L112.72,70.587L114.25,48.622L115.78,66.798L117.31,73.671L118.84,66.081L120.37,67.374L123.43,59.283L124.96,85.929L126.49,59.129L128.02,132.04L129.55,52.003L131.08,52.205L132.61,87.949L134.14,70.326L135.67,48.568L140.26,59.427L141.79,48.517L146.38,75.273L147.91,52.545L149.44,45.301L150.97,68.833L152.5,76.564L154.03,47.034L155.55,46.511L157.08,51.639L158.61,49.851L160.14,51.764L161.67,62.59L163.2,49.575L164.73,51.842L166.26,52.161L167.79,56.663L169.32,54.615L170.85,52.683L172.38,54.387L173.91,65.478L175.44,56.852L176.97,52.062L178.5,61.668L180.03,60.609L181.56,55.055L183.09,55.252L184.62,52.535L186.15,57.623L187.68,65.745L189.21,55.133L190.74,57.789L192.27,58.672L193.8,56.562L195.33,58.506L196.86,55.814L198.39,54.337L199.91,53.916L201.44,53.679L202.97,54.176L204.5,51.813L206.03,52.913L207.56,52.398L209.09,56.667L210.62,52.389L212.15,52.093L213.68,57.631L215.21,58.489L216.74,49.575L218.27,50.463L219.8,54.709L221.33,53.137L222.86,49.647L224.39,52.081L225.92,50.291L227.45,51.344L228.98,51.871L230.51,50.486L232.04,51.093L233.57,53.14L235.1,50.544L236.63,51.949L238.16,52.223L239.69,50.342L241.22,51.761L242.75,52.074L244.28,50.042L245.8,50.293L247.33,51.323L248.86,52.001L250.39,51.186L251.92,50.027L253.45,50.037L254.98,51.766L256.51,50.718L258.04,49.734L259.57,50.307L261.1,50.678L262.63,49.646L264.16,49.678L265.69,49.705L267.22,49.358L268.75,49.629L270.28,49.583L271.81,48.985L273.34,49.383L274.87,49.832L276.4,49.558L277.93,48.827L279.46,48.609L280.99,48.688L282.52,49.114L284.05,48.847L285.58,47.836L287.11,48.244L288.64,48.398L290.16,48.092L291.69,48.144L293.22,47.897L294.75,47.98L296.28,48.527L297.81,47.673L299.34,47.648L300.87,48.319L302.4,47.844L303.93,47.415L305.46,47.651L306.99,47.592L308.52,47.443L310.05,47.665L311.58,47.507L313.11,47.099L314.64,47.297L316.17,47.324L317.7,47.354L319.23,47.187L320.76,47.1L322.29,47.149L323.82,47.216L325.35,46.882L326.88,46.888L328.41,46.982L329.94,46.902L331.47,46.773L333,46.733L334.53,46.741L336.05,46.712L337.58,46.666L339.11,46.504L340.64,46.487L342.17,46.612L343.7,46.526L345.23,46.436L346.76,46.275L348.29,46.305L349.82,46.309L351.35,46.28L352.88,46.238L354.41,46.166L355.94,46.153L357.47,46.17L359,46.175L360.53,46.155L362.06,46.05L363.59,46.121L365.12,46.083L366.65,45.992L368.18,45.951L369.71,46L371.24,45.936L372.77,45.906L374.3,45.872L375.83,45.848L377.36,45.897L378.89,45.855L380.42,45.851L381.94,45.804L383.47,45.761L385,45.745L386.53,45.728L388.06,45.753L389.59,45.728L391.12,45.739L392.65,45.709L394.18,45.633L395.71,45.616L397.24,45.587L398.77,45.617L400.3,45.577L401.83,45.568L403.36,45.543L404.89,45.565L406.42,45.578L407.95,45.545L409.48,45.526L411.01,45.473L412.54,45.497L414.07,45.47L415.6,45.467L417.13,45.448L418.66,45.417L420.19,45.428L421.72,45.453L423.25,45.439L424.78,45.434L426.3,45.423L427.83,45.377L429.36,45.404L430.89,45.367L432.42,45.368L433.95,45.346L435.48,45.348L437.01,45.353L438.54,45.362L440.07,45.35L441.6,45.331L443.13,45.365L444.66,45.358L446.19,45.297L447.72,45.323L449.25,45.299L450.78,45.306L452.31,45.314L453.84,45.287L455.37,45.292L456.9,45.26L458.43,45.285L459.96,45.253L461.49,45.285L463.02,45.262L464.55,45.256L466.08,45.273L467.61,45.267L469.14,45.27L470.67,45.251L472.19,45.241L473.72,45.236L475.25,45.243L476.78,45.238L478.31,45.231L479.84,45.233L481.37,45.255L482.9,45.233L484.43,45.219L485.96,45.206L487.49,45.204L489.02,45.223L490.55,45.216L492.08,45.197L493.61,45.207L495.14,45.199L496.67,45.221L498.2,45.202L499.73,45.185L501.26,45.189L502.79,45.189L504.32,45.204L505.85,45.195L507.38,45.194L508.91,45.195L510.44,45.184L511.97,45.178L513.5,45.189L515.03,45.182L516.55,45.177L518.08,45.182L519.61,45.178L521.14,45.175L522.67,45.17L524.2,45.173L525.73,45.172L527.26,45.172L528.79,45.162L530.32,45.16L531.85,45.17L533.38,45.16L534.91,45.168L536.44,45.178L537.97,45.168L539.5,45.177L541.03,45.165L542.56,45.172L544.09,45.167L545.62,45.163L547.15,45.17L548.68,45.156L550.21,45.163L551.74,45.155L553.27,45.168L554.8,45.156L556.33,45.163L557.86,45.165L559.39,45.162L560.92,45.158L562.44,45.165L563.97,45.153L565.5,45.158L567.03,45.163L568.56,45.156L570.09,45.158L571.62,45.163L573.15,45.155L574.68,45.163L576.21,45.155L577.74,45.158L579.27,45.162L580.8,45.16L582.33,45.158L583.86,45.153L586.92,45.151L588.45,45.156L589.98,45.151L591.51,45.153L593.04,45.153L594.57,45.153L596.1,45.151L597.63,45.151L599.16,45.153L600.69,45.155L602.22,45.153L603.75,45.151L605.28,45.151L608.33,45.156L609.86,45.153L611.39,45.151L612.92,45.155L614.45,45.153L615.98,45.156L617.51,45.153L619.04,45.151L620.57,45.153L622.1,45.153L623.63,45.151L628.22,45.151L631.28,45.153L640.46,45.151L645.05,45.151L648.11,45.151L651.17,45.151L655.75,45.151L657.28,45.153L669.52,45.151L671.05,45.151L677.17,45.151L686.35,45.151L689.41,45.151L690.94,45.151L706.23,45.151L707.76,45.151L720,45.151" style="fill:none;stroke:#0000FF" />
</g>
</svg>
