<?xml version="1.0"?>
<!-- Generated by SVGo and Plotinum VG -->
<svg width="720pt" height="432pt" viewBox="0 0 720 432"
	xmlns="http://www.w3.org/2000/svg"
	xmlns:xlink="http://www.w3.org/1999/xlink">
<g transform="scale(1, -1) translate(0, -432)">
<path d="M0,0L720,0L720,432L0,432Z" style="fill:#FFFFFF" />
<text x="358.5" y="-420.45" transform="scale(1, -1)"
	style="font-family:Times;font-weight:normal;font-style:normal;font-size:12px"> </text>
<text x="385.56" y="-3.8613" transform="scale(1, -1)"
	style="font-family:Times;font-weight:normal;font-style:normal;font-size:12px">Costs</text>
<text x="75.305" y="-18.634" transform="scale(1, -1)"
	style="font-family:Times;font-weight:normal;font-style:normal;font-size:10px">0</text>
<text x="344.16" y="-18.634" transform="scale(1, -1)"
	style="font-family:Times;font-weight:normal;font-style:normal;font-size:10px">200</text>
<text x="618.02" y="-18.634" transform="scale(1, -1)"
	style="font-family:Times;font-weight:normal;font-style:normal;font-size:10px">400</text>
<path d="M77.805,28.263L77.805,36.263" style="fill:none;stroke:#000000;stroke-width:0.5" />
<path d="M351.66,28.263L351.66,36.263" style="fill:none;stroke:#000000;stroke-width:0.5" />
<path d="M625.52,28.263L625.52,36.263" style="fill:none;stroke:#000000;stroke-width:0.5" />
<path d="M214.73,32.263L214.73,36.263" style="fill:none;stroke:#000000;stroke-width:0.5" />
<path d="M488.59,32.263L488.59,36.263" style="fill:none;stroke:#000000;stroke-width:0.5" />
<path d="M77.805,36.263L720,36.263" style="fill:none;stroke:#000000;stroke-width:0.5" />
<g transform="rotate(90)">
<text x="152.03" y="11.555" transform="scale(1, -1)"
	style="font-family:Times;font-weight:normal;font-style:normal;font-size:12px">Number of trials (1000000 total)</text>
</g>
<text x="24.055" y="-94.088" transform="scale(1, -1)"
	style="font-family:Times;font-weight:normal;font-style:normal;font-size:10px">25000.00</text>
<text x="19.055" y="-250.52" transform="scale(1, -1)"
	style="font-family:Times;font-weight:normal;font-style:normal;font-size:10px">100000.00</text>
<text x="19.055" y="-406.96" transform="scale(1, -1)"
	style="font-family:Times;font-weight:normal;font-style:normal;font-size:10px">175000.00</text>
<path d="M64.055,97.294L72.055,97.294" style="fill:none;stroke:#000000;stroke-width:0.5" />
<path d="M64.055,253.73L72.055,253.73" style="fill:none;stroke:#000000;stroke-width:0.5" />
<path d="M64.055,410.16L72.055,410.16" style="fill:none;stroke:#000000;stroke-width:0.5" />
<path d="M68.055,175.51L72.055,175.51" style="fill:none;stroke:#000000;stroke-width:0.5" />
<path d="M68.055,331.94L72.055,331.94" style="fill:none;stroke:#000000;stroke-width:0.5" />
<path d="M72.055,45.151L72.055,415.55" style="fill:none;stroke:#000000;stroke-width:0.5" />
<path d="M77.805,415.55L113.41,63.198L114.78,48.503L116.14,48.484L120.25,95.771L121.62,48.643L124.36,97.661L125.73,76.782L127.1,96.291L129.84,59.566L131.21,51.851L132.58,73.71L133.95,90.077L135.31,48.514L138.05,52.187L139.42,59.381L140.79,117.56L144.9,51.976L146.27,73.622L147.64,55.728L150.38,120.35L151.75,51.968L153.12,59.084L154.48,48.624L155.85,50.768L157.22,63.414L158.59,45.71L159.96,65.338L161.33,60.872L162.7,66.443L164.07,52.944L165.44,46.344L166.81,52.754L168.18,51.511L169.55,72.02L170.92,49.342L172.29,52.124L173.65,54.191L175.02,57.712L176.39,57.443L177.76,52.477L179.13,62.974L180.5,56.154L181.87,56.659L183.24,62.369L184.61,48.714L185.98,53.964L187.35,60.559L188.72,65.646L190.09,58.834L191.46,47.498L192.82,63.994L194.19,55.415L195.56,60.455L196.93,67.916L198.3,55.954L199.67,62.257L201.04,52.666L202.41,60.763L203.78,54.558L205.15,57.668L206.52,62.76L207.89,54.489L209.26,60.484L210.63,55.297L211.99,56.717L213.36,65.634L214.73,51.786L216.1,56.913L217.47,54.243L218.84,59.429L220.21,54.654L221.58,51.949L222.95,57.115L224.32,55.58L225.69,59.739L227.06,51.884L228.43,52.072L229.8,55.601L231.16,52.656L232.53,58.054L233.9,52.285L235.27,56.415L236.64,52.416L238.01,53.192L239.38,52.26L240.75,50.8L242.12,57.518L243.49,52.9L244.86,53.505L246.23,52.062L247.6,51.782L248.97,52.739L250.33,51.023L251.7,55.326L253.07,52.059L254.44,52.151L255.81,53.18L257.18,51.252L258.55,52.089L259.92,52.039L261.29,53.328L262.66,52.381L264.03,50.589L265.4,52.587L266.77,51.188L268.14,52.514L269.5,51.828L270.87,51.246L272.24,52.116L273.61,50.764L274.98,51.78L276.35,50.159L277.72,50.305L279.09,51.373L280.46,50.987L281.83,52.051L283.2,49.675L284.57,50.608L285.94,50.278L287.31,49.805L288.67,50.775L290.04,49.634L291.41,50.291L292.78,49.782L294.15,49.64L295.52,49.427L296.89,49.477L298.26,50.38L299.63,49.127L301,49.194L302.37,48.897L303.74,49.331L305.11,49.294L306.48,48.551L307.84,49.144L309.21,48.401L310.58,48.791L311.95,48.482L313.32,48.203L314.69,48.879L316.06,48.309L317.43,48.681L318.8,48.209L320.17,48.013L321.54,48.234L322.91,47.823L324.28,48.336L325.65,47.832L327.01,48.053L328.38,47.884L329.75,47.865L331.12,47.9L332.49,47.487L333.86,47.665L335.23,47.546L336.6,47.575L337.97,47.481L339.34,47.281L340.71,47.335L342.08,47.316L343.45,47.454L344.82,47.254L346.18,47.225L347.55,47.156L348.92,46.983L350.29,47.037L351.66,46.891L353.03,47.052L354.4,47.001L355.77,46.678L357.14,46.941L358.51,46.78L359.88,46.849L361.25,46.741L362.62,46.666L363.99,46.77L365.35,46.566L366.72,46.63L368.09,46.515L369.46,46.401L370.83,46.465L372.2,46.388L373.57,46.411L374.94,46.317L376.31,46.236L377.68,46.365L379.05,46.223L380.42,46.29L381.79,46.182L383.16,46.209L384.52,46.109L385.89,46.069L387.26,46.08L388.63,46.017L390,46.082L391.37,45.959L392.74,46.013L394.11,45.975L395.48,45.946L396.85,45.979L398.22,45.854L399.59,45.871L400.96,45.844L402.33,45.865L403.69,45.921L405.06,45.831L406.43,45.788L407.8,45.808L409.17,45.779L410.54,45.771L411.91,45.765L413.28,45.656L414.65,45.692L416.02,45.717L417.39,45.687L418.76,45.635L420.13,45.623L421.5,45.696L422.86,45.637L424.23,45.598L425.6,45.604L426.97,45.569L428.34,45.598L429.71,45.558L431.08,45.493L432.45,45.508L433.82,45.539L435.19,45.514L436.56,45.512L437.93,45.496L439.3,45.5L440.67,45.402L442.03,45.435L443.4,45.429L444.77,45.483L446.14,45.416L447.51,45.408L448.88,45.408L450.25,45.441L451.62,45.439L452.99,45.395L454.36,45.383L455.73,45.375L457.1,45.381L458.47,45.385L459.84,45.347L461.2,45.347L462.57,45.339L463.94,45.32L465.31,45.362L466.68,45.335L468.05,45.335L469.42,45.329L470.79,45.279L472.16,45.343L473.53,45.272L474.9,45.318L476.27,45.299L477.64,45.302L479.01,45.281L480.37,45.262L481.74,45.297L483.11,45.256L484.48,45.239L485.85,45.233L487.22,45.243L488.59,45.247L489.96,45.239L491.33,45.231L492.7,45.222L494.07,45.231L495.44,45.224L496.81,45.249L498.18,45.245L499.54,45.251L500.91,45.218L502.28,45.224L503.65,45.212L505.02,45.247L506.39,45.206L507.76,45.231L509.13,45.187L510.5,45.199L511.87,45.214L513.24,45.218L514.61,45.21L515.98,45.185L517.35,45.199L518.71,45.216L520.08,45.187L521.45,45.212L522.82,45.204L524.19,45.176L525.56,45.185L526.93,45.187L528.3,45.181L529.67,45.191L531.04,45.191L532.41,45.164L533.78,45.185L535.15,45.185L536.52,45.187L537.88,45.189L539.25,45.183L540.62,45.168L541.99,45.17L543.36,45.176L544.73,45.168L546.1,45.181L547.47,45.172L548.84,45.172L550.21,45.166L551.58,45.176L552.95,45.178L554.32,45.181L555.69,45.164L557.05,45.17L558.42,45.158L559.79,45.166L561.16,45.16L562.53,45.158L563.9,45.174L565.27,45.172L566.64,45.16L568.01,45.16L569.38,45.164L570.75,45.166L572.12,45.164L573.49,45.178L574.86,45.162L576.22,45.164L577.59,45.156L578.96,45.16L580.33,45.162L581.7,45.16L583.07,45.17L584.44,45.164L585.81,45.153L587.18,45.156L588.55,45.158L589.92,45.16L591.29,45.158L592.66,45.162L594.03,45.162L595.39,45.153L596.76,45.153L598.13,45.153L599.5,45.151L600.87,45.151L602.24,45.153L603.61,45.158L604.98,45.16L606.35,45.151L607.72,45.158L609.09,45.153L610.46,45.151L611.83,45.156L613.2,45.151L614.56,45.16L618.67,45.156L620.04,45.156L621.41,45.151L625.52,45.151L626.89,45.158L628.26,45.151L632.37,45.153L639.21,45.151L641.95,45.153L643.32,45.151L644.69,45.153L646.06,45.151L648.8,45.151L650.17,45.151L651.54,45.151L654.27,45.151L655.64,45.151L662.49,45.153L674.81,45.151L677.55,45.151L684.4,45.151L685.77,45.151L688.51,45.151L706.31,45.151L710.41,45.151L714.52,45.153L720,45.151" style="fill:none;stroke:#0000FF" />
</g>
</svg>
