<?xml version="1.0"?>
<!-- Generated by SVGo and Plotinum VG -->
<svg width="720pt" height="432pt" viewBox="0 0 720 432"
	xmlns="http://www.w3.org/2000/svg"
	xmlns:xlink="http://www.w3.org/1999/xlink">
<g transform="scale(1, -1) translate(0, -432)">
<path d="M0,0L720,0L720,432L0,432Z" style="fill:#FFFFFF" />
<text x="358.5" y="-420.45" transform="scale(1, -1)"
	style="font-family:Times;font-weight:normal;font-style:normal;font-size:12px"> </text>
<text x="374.69" y="-3.8613" transform="scale(1, -1)"
	style="font-family:Times;font-weight:normal;font-style:normal;font-size:12px">Costs</text>
<text x="57.805" y="-18.634" transform="scale(1, -1)"
	style="font-family:Times;font-weight:normal;font-style:normal;font-size:10px">0</text>
<text x="378.9" y="-18.634" transform="scale(1, -1)"
	style="font-family:Times;font-weight:normal;font-style:normal;font-size:10px">300</text>
<text x="705" y="-18.634" transform="scale(1, -1)"
	style="font-family:Times;font-weight:normal;font-style:normal;font-size:10px">600</text>
<path d="M60.305,28.263L60.305,36.263" style="fill:none;stroke:#000000;stroke-width:0.5" />
<path d="M386.4,28.263L386.4,36.263" style="fill:none;stroke:#000000;stroke-width:0.5" />
<path d="M712.5,28.263L712.5,36.263" style="fill:none;stroke:#000000;stroke-width:0.5" />
<path d="M169,32.263L169,36.263" style="fill:none;stroke:#000000;stroke-width:0.5" />
<path d="M277.7,32.263L277.7,36.263" style="fill:none;stroke:#000000;stroke-width:0.5" />
<path d="M495.1,32.263L495.1,36.263" style="fill:none;stroke:#000000;stroke-width:0.5" />
<path d="M603.8,32.263L603.8,36.263" style="fill:none;stroke:#000000;stroke-width:0.5" />
<path d="M60.305,36.263L715.76,36.263" style="fill:none;stroke:#000000;stroke-width:0.5" />
<g transform="rotate(90)">
<text x="152.55" y="11.555" transform="scale(1, -1)"
	style="font-family:Times;font-weight:normal;font-style:normal;font-size:12px">Number of trials (1000000 total)</text>
</g>
<text x="19.055" y="-80.196" transform="scale(1, -1)"
	style="font-family:Times;font-weight:normal;font-style:normal;font-size:10px">10000</text>
<text x="19.055" y="-233.21" transform="scale(1, -1)"
	style="font-family:Times;font-weight:normal;font-style:normal;font-size:10px">50000</text>
<text x="19.055" y="-386.23" transform="scale(1, -1)"
	style="font-family:Times;font-weight:normal;font-style:normal;font-size:10px">90000</text>
<path d="M46.555,83.402L54.555,83.402" style="fill:none;stroke:#000000;stroke-width:0.5" />
<path d="M46.555,236.42L54.555,236.42" style="fill:none;stroke:#000000;stroke-width:0.5" />
<path d="M46.555,389.44L54.555,389.44" style="fill:none;stroke:#000000;stroke-width:0.5" />
<path d="M50.555,121.66L54.555,121.66" style="fill:none;stroke:#000000;stroke-width:0.5" />
<path d="M50.555,159.91L54.555,159.91" style="fill:none;stroke:#000000;stroke-width:0.5" />
<path d="M50.555,198.16L54.555,198.16" style="fill:none;stroke:#000000;stroke-width:0.5" />
<path d="M50.555,274.67L54.555,274.67" style="fill:none;stroke:#000000;stroke-width:0.5" />
<path d="M50.555,312.93L54.555,312.93" style="fill:none;stroke:#000000;stroke-width:0.5" />
<path d="M50.555,351.18L54.555,351.18" style="fill:none;stroke:#000000;stroke-width:0.5" />
<path d="M54.555,45.151L54.555,416.58" style="fill:none;stroke:#000000;stroke-width:0.5" />
<path d="M60.305,416.58L84.219,67.27L86.392,52.014L88.566,48.258L89.653,80.177L90.74,73.192L91.827,80.204L92.914,48.483L94.001,78.685L95.088,71.114L96.175,78.957L97.262,103.23L98.349,90.685L99.436,73.949L101.61,51.922L102.7,84.603L103.78,65.468L104.87,122.21L105.96,70.556L107.05,66.359L108.13,66.187L109.22,75.774L110.31,48.9L112.48,45.343L113.57,64.412L114.65,76.436L115.74,51.41L116.83,45.909L117.92,97.644L119,76.994L120.09,50.603L121.18,66.868L122.26,58.364L123.35,74.97L124.44,54.944L125.52,78.325L126.61,82.732L127.7,63.349L128.79,68.364L129.87,56.769L130.96,58.697L132.05,59.845L133.13,64.286L134.22,67.951L135.31,66.815L136.39,67.595L137.48,68.46L138.57,66.199L139.66,81.03L140.74,79.159L141.83,72.733L142.92,69.5L144,70.625L145.09,63.181L146.18,62.197L147.26,79.32L148.35,80.85L149.44,68.261L150.53,66.585L151.61,69.297L152.7,70.686L153.79,67.174L154.87,68.597L155.96,68.567L157.05,68.907L158.13,64.095L159.22,64.301L160.31,68.127L161.39,65.874L162.48,73.444L163.57,72.209L164.66,64.477L165.74,64.917L166.83,63.655L167.92,65.453L169,62.167L170.09,64.99L171.18,69.206L172.26,68.307L173.35,64.718L174.44,62.102L175.53,64.535L176.61,66.421L177.7,65.288L178.79,65.189L179.87,64.81L180.96,65.602L182.05,65.583L183.13,65.835L184.22,71.195L185.31,69.125L186.4,66.164L187.48,63.494L188.57,63.536L189.66,63.517L190.74,62.955L191.83,65.082L192.92,65.491L194,64.11L195.09,63.349L196.18,61.953L197.27,63.28L198.35,62.794L199.44,61.566L200.53,61.8L201.61,62.947L202.7,62.186L203.79,60.319L204.87,62.075L205.96,64.198L207.05,62.102L208.14,60.767L209.22,60.709L210.31,61.015L211.4,60.051L212.48,59.914L213.57,60.908L214.66,60.204L215.74,60.086L216.83,59.608L217.92,59.106L219.01,59.099L220.09,59.742L221.18,59.661L222.27,58.923L223.35,58.2L224.44,58.586L225.53,58.72L226.61,58.521L227.7,58.793L228.79,58.931L229.88,58.257L230.96,57.622L232.05,57.136L233.14,56.658L234.22,57.094L235.31,56.96L236.4,56.957L237.48,56.937L238.57,56.367L239.66,56.758L240.75,56.004L241.83,56.226L242.92,56.115L244.01,55.801L245.09,55.537L246.18,55.338L247.27,55.675L248.35,54.833L249.44,54.918L250.53,55.254L251.62,55.032L252.7,54.351L253.79,53.969L254.88,53.732L255.96,54.026L257.05,53.445L258.14,53.804L259.22,53.579L260.31,53.579L261.4,53.158L262.49,53.112L263.57,53.357L264.66,53.154L265.75,52.718L266.83,52.554L267.92,52.504L269.01,52.515L270.09,51.88L271.18,52.332L272.27,52.408L273.36,52.072L274.44,51.662L275.53,51.731L276.62,51.368L277.7,51.41L278.79,51.379L279.88,51.203L280.96,51.287L282.05,50.928L283.14,50.867L284.23,50.79L285.31,50.813L286.4,50.817L287.49,50.763L288.57,50.396L289.66,50.243L290.75,50.101L291.83,50.01L292.92,49.857L294.01,49.838L295.09,49.86L296.18,49.707L297.27,49.386L298.36,49.39L299.44,49.493L300.53,49.405L301.62,49.333L302.7,49.103L303.79,49.298L304.88,49.183L305.96,49.046L307.05,48.824L308.14,48.896L309.23,48.782L310.31,48.629L311.4,48.763L312.49,48.529L313.57,48.388L314.66,48.33L315.75,48.479L316.83,48.296L317.92,48.411L319.01,48.124L320.1,47.971L321.18,48.078L322.27,47.929L323.36,47.718L324.44,47.745L325.53,47.841L326.62,47.707L327.7,47.791L328.79,47.688L329.88,47.684L330.97,47.573L332.05,47.332L333.14,47.512L334.23,47.412L335.31,47.259L336.4,47.064L337.49,47.259L338.57,47.229L339.66,47.152L340.75,46.858L341.84,46.892L342.92,47.041L344.01,46.953L345.1,46.861L346.18,46.739L347.27,46.888L348.36,46.796L349.44,46.796L350.53,46.678L351.62,46.659L352.71,46.555L353.79,46.414L354.88,46.567L355.97,46.525L357.05,46.586L358.14,46.437L359.23,46.517L360.31,46.483L361.4,46.31L362.49,46.295L363.58,46.341L364.66,46.249L365.75,46.207L366.84,46.104L367.92,46.242L369.01,46.073L370.1,46.215L371.18,46.131L372.27,46.1L373.36,46.108L374.45,46.073L375.53,46.062L376.62,46.035L377.71,45.939L378.79,45.92L379.88,45.936L380.97,45.916L382.05,45.886L383.14,45.817L384.23,45.821L385.32,45.832L386.4,45.905L387.49,45.802L388.58,45.859L389.66,45.848L390.75,45.771L391.84,45.794L392.92,45.618L394.01,45.798L395.1,45.714L396.19,45.679L397.27,45.721L398.36,45.614L399.45,45.603L400.53,45.633L401.62,45.633L402.71,45.561L403.79,45.584L404.88,45.545L405.97,45.641L407.06,45.522L408.14,45.584L409.23,45.622L410.32,45.542L411.4,45.53L412.49,45.48L413.58,45.526L414.66,45.507L415.75,45.477L416.84,45.446L417.93,45.423L419.01,45.411L420.1,45.396L421.19,45.419L422.27,45.45L423.36,45.419L424.45,45.389L425.53,45.369L426.62,45.362L427.71,45.381L428.8,45.354L429.88,45.423L430.97,45.358L432.06,45.377L433.14,45.346L434.23,45.335L435.32,45.32L436.4,45.362L437.49,45.312L438.58,45.335L439.66,45.339L440.75,45.32L441.84,45.316L442.93,45.32L444.01,45.369L445.1,45.293L446.19,45.289L447.27,45.301L448.36,45.258L449.45,45.304L450.53,45.251L451.62,45.247L452.71,45.289L453.8,45.278L454.88,45.251L455.97,45.247L457.06,45.232L458.14,45.251L459.23,45.236L460.32,45.262L461.4,45.247L462.49,45.232L463.58,45.255L464.67,45.243L465.75,45.213L466.84,45.251L467.93,45.232L469.01,45.22L470.1,45.239L471.19,45.228L472.27,45.213L473.36,45.22L474.45,45.201L475.54,45.182L476.62,45.201L477.71,45.224L478.8,45.213L479.88,45.209L480.97,45.182L482.06,45.216L483.14,45.205L484.23,45.193L485.32,45.197L486.41,45.19L487.49,45.186L488.58,45.19L489.67,45.205L490.75,45.182L491.84,45.178L492.93,45.197L494.01,45.178L495.1,45.182L496.19,45.193L497.28,45.174L498.36,45.178L499.45,45.186L500.54,45.178L501.62,45.182L502.71,45.174L503.8,45.167L504.88,45.167L505.97,45.178L507.06,45.163L508.15,45.155L509.23,45.174L510.32,45.174L511.41,45.17L512.49,45.163L513.58,45.163L514.67,45.159L515.75,45.167L517.93,45.167L519.02,45.17L520.1,45.151L521.19,45.155L523.36,45.159L524.45,45.178L525.54,45.159L526.62,45.163L527.71,45.167L528.8,45.155L529.89,45.163L530.97,45.155L532.06,45.151L533.15,45.155L534.23,45.163L535.32,45.159L536.41,45.155L537.49,45.163L539.67,45.155L540.76,45.163L541.84,45.155L545.1,45.17L546.19,45.163L547.28,45.155L548.36,45.159L550.54,45.159L551.63,45.151L552.71,45.155L553.8,45.159L555.97,45.159L557.06,45.159L558.15,45.151L561.41,45.151L562.5,45.151L563.58,45.151L564.67,45.151L565.76,45.155L569.02,45.151L571.19,45.151L572.28,45.151L573.37,45.155L575.54,45.155L580.97,45.159L589.67,45.155L591.84,45.155L592.93,45.151L598.37,45.151L599.45,45.151L603.8,45.151L609.24,45.155L612.5,45.151L615.76,45.151L616.84,45.151L622.28,45.151L634.24,45.151L715.76,45.151" style="fill:none;stroke:#0000FF" />
</g>
</svg>
