<?xml version="1.0"?>
<!-- Generated by SVGo and Plotinum VG -->
<svg width="720pt" height="432pt" viewBox="0 0 720 432"
	xmlns="http://www.w3.org/2000/svg"
	xmlns:xlink="http://www.w3.org/1999/xlink">
<g transform="scale(1, -1) translate(0, -432)">
<path d="M0,0L720,0L720,432L0,432Z" style="fill:#FFFFFF" />
<text x="358.5" y="-420.45" transform="scale(1, -1)"
	style="font-family:Times;font-weight:normal;font-style:normal;font-size:12px"> </text>
<text x="379.31" y="-3.8613" transform="scale(1, -1)"
	style="font-family:Times;font-weight:normal;font-style:normal;font-size:12px">Costs</text>
<text x="62.805" y="-18.634" transform="scale(1, -1)"
	style="font-family:Times;font-weight:normal;font-style:normal;font-size:10px">0</text>
<text x="322.86" y="-18.634" transform="scale(1, -1)"
	style="font-family:Times;font-weight:normal;font-style:normal;font-size:10px">200</text>
<text x="587.92" y="-18.634" transform="scale(1, -1)"
	style="font-family:Times;font-weight:normal;font-style:normal;font-size:10px">400</text>
<path d="M65.305,28.263L65.305,36.263" style="fill:none;stroke:#000000;stroke-width:0.5" />
<path d="M330.36,28.263L330.36,36.263" style="fill:none;stroke:#000000;stroke-width:0.5" />
<path d="M595.42,28.263L595.42,36.263" style="fill:none;stroke:#000000;stroke-width:0.5" />
<path d="M197.83,32.263L197.83,36.263" style="fill:none;stroke:#000000;stroke-width:0.5" />
<path d="M462.89,32.263L462.89,36.263" style="fill:none;stroke:#000000;stroke-width:0.5" />
<path d="M65.305,36.263L720,36.263" style="fill:none;stroke:#000000;stroke-width:0.5" />
<g transform="rotate(90)">
<text x="152.55" y="11.555" transform="scale(1, -1)"
	style="font-family:Times;font-weight:normal;font-style:normal;font-size:12px">Number of trials (1000000 total)</text>
</g>
<text x="24.055" y="-112.96" transform="scale(1, -1)"
	style="font-family:Times;font-weight:normal;font-style:normal;font-size:10px">50000</text>
<text x="19.055" y="-255" transform="scale(1, -1)"
	style="font-family:Times;font-weight:normal;font-style:normal;font-size:10px">150000</text>
<text x="19.055" y="-397.03" transform="scale(1, -1)"
	style="font-family:Times;font-weight:normal;font-style:normal;font-size:10px">250000</text>
<path d="M51.555,116.17L59.555,116.17" style="fill:none;stroke:#000000;stroke-width:0.5" />
<path d="M51.555,258.2L59.555,258.2" style="fill:none;stroke:#000000;stroke-width:0.5" />
<path d="M51.555,400.24L59.555,400.24" style="fill:none;stroke:#000000;stroke-width:0.5" />
<path d="M55.555,187.18L59.555,187.18" style="fill:none;stroke:#000000;stroke-width:0.5" />
<path d="M55.555,329.22L59.555,329.22" style="fill:none;stroke:#000000;stroke-width:0.5" />
<path d="M59.555,45.151L59.555,416.58" style="fill:none;stroke:#000000;stroke-width:0.5" />
<path d="M65.305,416.58L99.762,52.027L101.09,55.604L102.41,48.394L103.74,55.568L106.39,62.749L107.71,51.897L109.04,62.33L110.36,97.117L111.69,59.135L114.34,52.188L116.99,48.468L118.32,48.55L119.64,55.274L120.97,52.11L122.29,55.324L123.62,90.371L124.94,52.134L128.92,48.57L130.24,48.438L132.89,48.573L135.55,80.705L136.87,55.483L138.2,45.408L139.52,84.05L140.85,48.929L142.17,52.715L143.5,52.685L144.82,47.086L146.15,61.113L147.47,84.961L148.8,61.137L150.12,46.592L151.45,48.04L152.77,47.239L154.1,48.151L155.42,48.275L156.75,47.788L158.08,47.002L159.4,55.064L160.73,47.021L162.05,72.642L163.38,57.544L164.7,49.648L166.03,48.384L167.35,56.001L168.68,52.212L170,48.874L171.33,85.677L172.65,64.489L173.98,48.187L175.3,47.905L176.63,48.489L177.95,49.797L179.28,48.711L180.61,54.551L181.93,51.252L183.26,50.194L184.58,52.855L185.91,49.12L187.23,48.733L188.56,50.32L189.88,48.935L191.21,51.36L192.53,53.269L193.86,54.73L195.18,49.199L196.51,48.343L197.83,51.566L199.16,48.346L200.48,48.975L201.81,48.613L203.14,49.513L204.46,51.064L205.79,54.029L207.11,54.558L208.44,49.665L209.76,51.425L211.09,48.981L212.41,50.145L213.74,49.059L215.06,49.309L216.39,55.114L217.71,56.104L219.04,50.306L220.36,51.996L221.69,52.087L223.01,48.915L224.34,48.14L225.67,49.53L226.99,48.55L228.32,49.289L229.64,52.553L230.97,51.046L232.29,48.897L233.62,48.83L234.94,47.249L236.27,49.743L237.59,48.927L238.92,48.238L240.24,47.579L241.57,52.066L242.89,50.892L244.22,50.223L245.54,52.326L246.87,49.299L248.2,48.195L249.52,48.701L250.85,48.104L252.17,48.918L253.5,51.009L254.82,50.418L256.15,48.117L257.47,47.055L258.8,47.012L260.12,47.543L261.45,47.449L262.77,47.67L264.1,47.975L265.42,48.439L266.75,47.582L268.07,49.716L269.4,49.154L270.73,47.391L272.05,46.964L273.38,47.684L274.7,47.913L276.03,47.718L277.35,47.3L278.68,48.84L280,47.153L281.33,47.12L282.65,47.029L283.98,46.833L285.3,46.886L286.63,47.576L287.95,47.668L289.28,47.437L290.6,47.631L291.93,47.332L293.26,46.8L294.58,46.927L295.91,46.85L297.23,46.702L298.56,47.174L299.88,47.391L301.21,47.11L302.53,46.765L303.86,46.87L305.18,46.563L306.51,46.559L307.83,46.489L309.16,46.572L310.48,46.512L311.81,46.95L313.13,47.032L314.46,46.745L315.79,46.682L317.11,46.45L318.44,46.59L319.76,46.484L321.09,46.161L322.41,46.329L323.74,46.792L325.06,46.583L326.39,46.546L327.71,46.594L329.04,46.293L330.36,46.104L331.69,46.067L333.01,46.016L334.34,46.087L335.66,46.07L336.99,46.198L338.32,46.235L339.64,46.082L340.97,45.937L342.29,46.048L343.62,46.079L344.94,45.972L346.27,45.985L347.59,46.009L348.92,46.16L350.24,46.072L351.57,45.96L352.89,45.971L354.22,45.768L355.54,45.82L356.87,45.83L358.19,45.773L359.52,45.815L360.85,45.796L362.17,45.783L363.5,45.697L364.82,45.657L366.15,45.622L367.47,45.67L368.8,45.68L370.12,45.749L371.45,45.67L372.77,45.677L374.1,45.634L375.42,45.717L376.75,45.59L378.07,45.55L379.4,45.541L380.72,45.6L382.05,45.577L383.38,45.586L384.7,45.56L386.03,45.528L387.35,45.536L388.68,45.539L390,45.539L391.33,45.437L392.65,45.521L393.98,45.505L395.3,45.536L396.63,45.519L397.95,45.447L399.28,45.438L400.6,45.454L401.93,45.418L403.25,45.417L404.58,45.435L405.91,45.396L407.23,45.397L408.56,45.39L409.88,45.38L411.21,45.393L412.53,45.363L413.86,45.389L415.18,45.356L416.51,45.356L417.83,45.342L419.16,45.346L420.48,45.381L421.81,45.337L423.13,45.312L424.46,45.318L425.78,45.35L427.11,45.308L428.44,45.288L429.76,45.305L431.09,45.306L432.41,45.303L433.74,45.302L435.06,45.308L436.39,45.278L437.71,45.259L439.04,45.265L440.36,45.272L441.69,45.279L443.01,45.271L444.34,45.249L445.66,45.265L446.99,45.259L448.31,45.225L449.64,45.259L450.97,45.241L452.29,45.274L453.62,45.255L454.94,45.232L456.27,45.227L457.59,45.229L458.92,45.258L460.24,45.225L461.57,45.221L462.89,45.225L464.22,45.232L465.54,45.205L466.87,45.229L468.19,45.225L469.52,45.234L470.84,45.21L472.17,45.187L473.5,45.215L474.82,45.22L476.15,45.205L477.47,45.212L478.8,45.201L480.12,45.191L481.45,45.194L482.77,45.198L484.1,45.188L485.42,45.198L486.75,45.18L488.07,45.191L489.4,45.178L490.72,45.194L492.05,45.204L493.37,45.187L494.7,45.185L496.03,45.184L497.35,45.188L498.68,45.183L500,45.187L501.33,45.177L502.65,45.174L503.98,45.176L505.3,45.19L506.63,45.183L507.95,45.174L509.28,45.176L510.6,45.17L511.93,45.167L513.25,45.167L514.58,45.171L515.9,45.166L517.23,45.17L518.56,45.17L519.88,45.17L521.21,45.176L522.53,45.168L523.86,45.177L525.18,45.168L526.51,45.174L527.83,45.167L529.16,45.164L530.48,45.166L531.81,45.171L533.13,45.161L534.46,45.163L535.78,45.153L537.11,45.156L538.43,45.163L539.76,45.163L541.09,45.16L542.41,45.174L543.74,45.161L545.06,45.16L546.39,45.16L547.71,45.166L549.04,45.157L550.36,45.166L551.69,45.16L553.01,45.157L554.34,45.158L555.66,45.166L556.99,45.151L558.31,45.156L559.64,45.154L560.96,45.156L562.29,45.158L563.62,45.157L564.94,45.154L566.27,45.156L567.59,45.156L568.92,45.156L570.24,45.153L571.57,45.154L572.89,45.157L574.22,45.158L575.54,45.151L576.87,45.153L578.19,45.151L579.52,45.154L580.84,45.154L582.17,45.151L584.82,45.153L586.15,45.154L587.47,45.154L588.8,45.154L590.12,45.151L591.45,45.153L592.77,45.151L594.1,45.153L595.42,45.151L596.75,45.151L598.07,45.154L599.4,45.154L600.72,45.151L602.05,45.153L603.37,45.151L606.02,45.151L607.35,45.154L611.33,45.154L612.65,45.154L613.98,45.153L616.63,45.153L617.95,45.153L619.28,45.151L620.6,45.153L621.93,45.153L625.9,45.153L628.55,45.151L629.88,45.151L633.86,45.151L635.18,45.153L636.51,45.151L643.13,45.153L644.46,45.151L645.78,45.151L647.11,45.151L649.76,45.151L651.08,45.151L665.66,45.151L670.96,45.151L677.59,45.151L685.54,45.151L709.4,45.151L720,45.151" style="fill:none;stroke:#0000FF" />
</g>
</svg>
