<?xml version="1.0"?>
<!-- Generated by SVGo and Plotinum VG -->
<svg width="720pt" height="432pt" viewBox="0 0 720 432"
	xmlns="http://www.w3.org/2000/svg"
	xmlns:xlink="http://www.w3.org/1999/xlink">
<g transform="scale(1, -1) translate(0, -432)">
<path d="M0,0L720,0L720,432L0,432Z" style="fill:#FFFFFF" />
<text x="358.5" y="-420.45" transform="scale(1, -1)"
	style="font-family:Times;font-weight:normal;font-style:normal;font-size:12px"> </text>
<text x="376.81" y="-3.8613" transform="scale(1, -1)"
	style="font-family:Times;font-weight:normal;font-style:normal;font-size:12px">Costs</text>
<text x="51.555" y="-18.634" transform="scale(1, -1)"
	style="font-family:Times;font-weight:normal;font-style:normal;font-size:10px">0.00</text>
<text x="340.54" y="-18.634" transform="scale(1, -1)"
	style="font-family:Times;font-weight:normal;font-style:normal;font-size:10px">250.00</text>
<text x="634.52" y="-18.634" transform="scale(1, -1)"
	style="font-family:Times;font-weight:normal;font-style:normal;font-size:10px">500.00</text>
<path d="M60.305,28.263L60.305,36.263" style="fill:none;stroke:#000000;stroke-width:0.5" />
<path d="M354.29,28.263L354.29,36.263" style="fill:none;stroke:#000000;stroke-width:0.5" />
<path d="M648.27,28.263L648.27,36.263" style="fill:none;stroke:#000000;stroke-width:0.5" />
<path d="M119.1,32.263L119.1,36.263" style="fill:none;stroke:#000000;stroke-width:0.5" />
<path d="M177.9,32.263L177.9,36.263" style="fill:none;stroke:#000000;stroke-width:0.5" />
<path d="M236.69,32.263L236.69,36.263" style="fill:none;stroke:#000000;stroke-width:0.5" />
<path d="M295.49,32.263L295.49,36.263" style="fill:none;stroke:#000000;stroke-width:0.5" />
<path d="M413.08,32.263L413.08,36.263" style="fill:none;stroke:#000000;stroke-width:0.5" />
<path d="M471.88,32.263L471.88,36.263" style="fill:none;stroke:#000000;stroke-width:0.5" />
<path d="M530.68,32.263L530.68,36.263" style="fill:none;stroke:#000000;stroke-width:0.5" />
<path d="M589.47,32.263L589.47,36.263" style="fill:none;stroke:#000000;stroke-width:0.5" />
<path d="M707.06,32.263L707.06,36.263" style="fill:none;stroke:#000000;stroke-width:0.5" />
<path d="M60.305,36.263L720,36.263" style="fill:none;stroke:#000000;stroke-width:0.5" />
<g transform="rotate(90)">
<text x="152.55" y="11.555" transform="scale(1, -1)"
	style="font-family:Times;font-weight:normal;font-style:normal;font-size:12px">Number of trials (1000000 total)</text>
</g>
<text x="19.055" y="-87.757" transform="scale(1, -1)"
	style="font-family:Times;font-weight:normal;font-style:normal;font-size:10px">10000</text>
<text x="19.055" y="-225.2" transform="scale(1, -1)"
	style="font-family:Times;font-weight:normal;font-style:normal;font-size:10px">40000</text>
<text x="19.055" y="-362.65" transform="scale(1, -1)"
	style="font-family:Times;font-weight:normal;font-style:normal;font-size:10px">70000</text>
<path d="M46.555,90.963L54.555,90.963" style="fill:none;stroke:#000000;stroke-width:0.5" />
<path d="M46.555,228.41L54.555,228.41" style="fill:none;stroke:#000000;stroke-width:0.5" />
<path d="M46.555,365.86L54.555,365.86" style="fill:none;stroke:#000000;stroke-width:0.5" />
<path d="M50.555,136.78L54.555,136.78" style="fill:none;stroke:#000000;stroke-width:0.5" />
<path d="M50.555,182.59L54.555,182.59" style="fill:none;stroke:#000000;stroke-width:0.5" />
<path d="M50.555,274.23L54.555,274.23" style="fill:none;stroke:#000000;stroke-width:0.5" />
<path d="M50.555,320.04L54.555,320.04" style="fill:none;stroke:#000000;stroke-width:0.5" />
<path d="M50.555,411.67L54.555,411.67" style="fill:none;stroke:#000000;stroke-width:0.5" />
<path d="M54.555,45.151L54.555,416.58" style="fill:none;stroke:#000000;stroke-width:0.5" />
<path d="M60.305,416.58L86.175,78.885L93.231,91.824L94.407,64.202L95.583,52.601L96.758,56.665L97.934,59.418L99.11,70.62L100.29,77.914L101.46,70.359L102.64,78.986L103.81,111.64L104.99,52.67L106.17,104.58L107.34,124.5L108.52,85.9L109.69,52.413L110.87,75.468L112.05,103.24L113.22,77.754L117.93,78.372L119.1,82.047L120.28,54.053L121.45,45.862L122.63,60.72L123.8,61.375L124.98,47.648L126.16,94.243L127.33,116.27L128.51,56.042L129.68,85.561L130.86,59.812L132.04,54.186L133.21,95.278L134.39,54.928L135.56,52.037L136.74,59.57L137.92,56.83L139.09,68.224L140.27,64.298L141.44,62.52L142.62,59.45L143.8,100.02L144.97,69.777L146.15,77.52L147.32,69.589L148.5,65.594L149.68,71.248L150.85,76.027L152.03,75.619L153.2,77.351L154.38,83.829L155.55,82.5L156.73,66.717L157.91,68.962L159.08,79.156L160.26,75.399L161.43,65.961L162.61,68.678L163.79,67.619L164.96,73.131L166.14,77.108L167.31,67.899L168.49,66.451L169.67,78.798L170.84,78.368L172.02,70.341L173.19,79.577L174.37,77.158L175.55,71.972L176.72,79.467L177.9,73.369L179.07,75.692L180.25,73.213L181.43,67.78L182.6,62.772L183.78,65.168L184.95,73.722L186.13,71.234L187.3,68.091L188.48,64.724L189.66,69.534L190.83,72.852L192.01,70.721L193.18,71.326L194.36,68.151L195.54,72.288L196.71,74.102L197.89,67.542L199.06,69.177L200.24,71.5L201.42,68.398L202.59,71.766L203.77,66.066L204.94,64.586L206.12,68.943L207.3,66.52L208.47,64.312L209.65,67.706L210.82,69.718L212,67.995L213.18,70.698L214.35,66.378L215.53,65.095L216.7,70.126L217.88,67.093L219.05,66.648L220.23,67.216L221.41,67.28L222.58,67.729L223.76,66.767L224.93,66.364L226.11,64.829L227.29,65.113L228.46,65.755L229.64,64.641L230.81,63.331L231.99,64.224L233.17,64.027L234.34,62.79L235.52,63.546L236.69,64.018L237.87,64.321L239.05,64.023L240.22,62.822L241.4,62.584L242.57,63.024L243.75,63.753L244.93,62.149L246.1,62.007L247.28,61.718L248.45,61.915L249.63,61.274L250.8,60.074L251.98,60.133L253.16,60.504L254.33,59.941L255.51,59.721L256.68,59.757L257.86,60.064L259.04,59.551L260.21,59.858L261.39,58.69L262.56,59.322L263.74,59.51L264.92,58.869L266.09,58.236L267.27,57.76L268.44,58.397L269.62,58.763L270.8,57.691L271.97,57.604L273.15,56.743L274.32,56.899L275.5,56.564L276.68,56.679L277.85,55.973L279.03,56.816L280.2,56.477L281.38,56.248L282.55,55.859L283.73,56.326L284.91,55.464L286.08,55.391L287.26,55.41L288.43,54.773L289.61,54.649L290.79,55.148L291.96,54.159L293.14,54.731L294.31,53.916L295.49,54.383L296.67,54.177L297.84,53.792L299.02,53.586L300.19,53.719L301.37,53.485L302.55,52.935L303.72,52.926L304.9,53.1L306.07,53.229L307.25,52.871L308.43,52.633L309.6,52.583L310.78,52.253L311.95,52.271L313.13,51.808L314.31,51.648L315.48,51.946L316.66,51.785L317.83,51.465L319.01,51.717L320.18,51.249L321.36,51.112L322.54,51.149L323.71,50.828L324.89,50.663L326.06,50.759L327.24,50.778L328.42,50.31L329.59,50.429L330.77,50.443L331.94,50.04L333.12,50.507L334.3,50.104L335.47,49.673L336.65,49.774L337.82,49.559L339,49.742L340.18,49.595L341.35,49.421L342.53,49.243L343.7,49.041L344.88,49.082L346.06,48.904L347.23,49.059L348.41,49.018L349.58,48.771L350.76,48.73L351.93,48.743L353.11,48.436L354.29,48.349L355.46,48.381L356.64,48.482L357.81,48.299L358.99,48.207L360.17,48.395L361.34,48.125L362.52,48.262L363.69,47.964L364.87,47.923L366.05,47.813L367.22,47.625L368.4,47.79L369.57,47.552L370.75,47.616L371.93,47.493L373.1,47.355L374.28,47.415L375.45,47.351L376.63,47.525L377.81,47.231L378.98,47.383L380.16,47.071L381.33,47.016L382.51,47.181L383.68,46.966L384.86,47.108L386.04,46.86L387.21,46.851L388.39,46.824L389.56,46.792L390.74,46.682L391.92,46.631L393.09,46.627L394.27,46.457L395.44,46.682L396.62,46.434L397.8,46.572L398.97,46.562L400.15,46.329L401.32,46.503L402.5,46.37L403.68,46.297L404.85,46.329L406.03,46.21L407.2,46.15L408.38,46.292L409.56,46.104L410.73,46.178L411.91,46.049L413.08,46.228L414.26,46.146L415.43,46.081L416.61,46.049L417.79,45.958L418.96,45.99L420.14,45.953L421.31,46.036L422.49,45.935L423.67,45.939L424.84,45.916L426.02,45.774L427.19,45.88L428.37,45.811L429.55,45.834L430.72,45.77L431.9,45.811L433.07,45.71L434.25,45.724L435.43,45.674L436.6,45.655L437.78,45.752L438.95,45.669L440.13,45.637L441.31,45.642L442.48,45.559L443.66,45.614L444.83,45.651L446.01,45.637L447.18,45.596L448.36,45.669L449.54,45.541L450.71,45.559L451.89,45.513L453.06,45.541L454.24,45.504L455.42,45.481L456.59,45.417L457.77,45.5L458.94,45.449L460.12,45.435L461.3,45.445L462.47,45.385L463.65,45.399L464.82,45.463L466,45.39L467.18,45.399L468.35,45.422L469.53,45.413L470.7,45.39L471.88,45.298L473.06,45.39L474.23,45.33L475.41,45.385L476.58,45.348L477.76,45.344L478.93,45.339L480.11,45.321L481.29,45.316L482.46,45.376L483.64,45.289L484.81,45.325L485.99,45.339L487.17,45.293L488.34,45.353L489.52,45.27L490.69,45.27L491.87,45.312L493.05,45.289L494.22,45.28L495.4,45.257L496.57,45.298L497.75,45.243L498.93,45.22L500.1,45.211L501.28,45.248L502.45,45.266L503.63,45.225L504.81,45.275L505.98,45.234L507.16,45.243L508.33,45.238L509.51,45.234L510.68,45.211L511.86,45.229L513.04,45.202L514.21,45.202L515.39,45.238L516.56,45.216L517.74,45.229L518.92,45.229L520.09,45.202L521.27,45.22L522.44,45.202L523.62,45.193L524.8,45.211L525.97,45.202L527.15,45.183L528.32,45.193L529.5,45.183L530.68,45.206L531.85,45.17L533.03,45.234L534.2,45.202L535.38,45.22L536.56,45.179L537.73,45.183L538.91,45.183L540.08,45.17L541.26,45.183L542.43,45.183L543.61,45.174L544.79,45.193L545.96,45.179L547.14,45.161L548.31,45.161L549.49,45.17L550.67,45.183L551.84,45.165L553.02,45.183L554.19,45.165L555.37,45.174L556.55,45.17L557.72,45.17L558.9,45.165L560.07,45.165L561.25,45.17L562.43,45.156L563.6,45.17L564.78,45.151L565.95,45.151L567.13,45.165L568.31,45.161L569.48,45.156L570.66,45.165L571.83,45.165L573.01,45.165L574.18,45.156L575.36,45.17L576.54,45.17L577.71,45.165L580.06,45.165L581.24,45.156L582.42,45.165L583.59,45.17L584.77,45.161L585.94,45.165L587.12,45.174L588.3,45.156L589.47,45.156L590.65,45.151L591.82,45.151L593,45.151L594.18,45.151L595.35,45.156L596.53,45.156L598.88,45.151L601.23,45.156L603.58,45.151L604.76,45.156L605.94,45.156L609.46,45.151L610.64,45.151L612.99,45.151L614.17,45.161L615.34,45.151L617.69,45.151L618.87,45.151L621.22,45.151L623.57,45.151L627.1,45.151L629.45,45.151L640.04,45.151L644.74,45.151L647.09,45.151L654.15,45.151L664.73,45.151L667.08,45.151L671.79,45.151L675.31,45.151L680.02,45.156L687.07,45.151L696.48,45.151L720,45.151" style="fill:none;stroke:#0000FF" />
</g>
</svg>
