<?xml version="1.0"?>
<!-- Generated by SVGo and Plotinum VG -->
<svg width="720pt" height="432pt" viewBox="0 0 720 432"
	xmlns="http://www.w3.org/2000/svg"
	xmlns:xlink="http://www.w3.org/1999/xlink">
<g transform="scale(1, -1) translate(0, -432)">
<path d="M0,0L720,0L720,432L0,432Z" style="fill:#FFFFFF" />
<text x="358.5" y="-420.45" transform="scale(1, -1)"
	style="font-family:Times;font-weight:normal;font-style:normal;font-size:12px"> </text>
<text x="376.81" y="-3.8613" transform="scale(1, -1)"
	style="font-family:Times;font-weight:normal;font-style:normal;font-size:12px">Costs</text>
<text x="57.805" y="-18.634" transform="scale(1, -1)"
	style="font-family:Times;font-weight:normal;font-style:normal;font-size:10px">0</text>
<text x="370.47" y="-18.634" transform="scale(1, -1)"
	style="font-family:Times;font-weight:normal;font-style:normal;font-size:10px">300</text>
<text x="688.15" y="-18.634" transform="scale(1, -1)"
	style="font-family:Times;font-weight:normal;font-style:normal;font-size:10px">600</text>
<path d="M60.305,28.263L60.305,36.263" style="fill:none;stroke:#000000;stroke-width:0.5" />
<path d="M377.97,28.263L377.97,36.263" style="fill:none;stroke:#000000;stroke-width:0.5" />
<path d="M695.65,28.263L695.65,36.263" style="fill:none;stroke:#000000;stroke-width:0.5" />
<path d="M166.19,32.263L166.19,36.263" style="fill:none;stroke:#000000;stroke-width:0.5" />
<path d="M272.08,32.263L272.08,36.263" style="fill:none;stroke:#000000;stroke-width:0.5" />
<path d="M483.87,32.263L483.87,36.263" style="fill:none;stroke:#000000;stroke-width:0.5" />
<path d="M589.76,32.263L589.76,36.263" style="fill:none;stroke:#000000;stroke-width:0.5" />
<path d="M60.305,36.263L720,36.263" style="fill:none;stroke:#000000;stroke-width:0.5" />
<g transform="rotate(90)">
<text x="150.27" y="11.555" transform="scale(1, -1)"
	style="font-family:Times;font-weight:normal;font-style:normal;font-size:12px">Number of trials (1000000 total)</text>
</g>
<text x="24.055" y="-94.081" transform="scale(1, -1)"
	style="font-family:Times;font-weight:normal;font-style:normal;font-size:10px">5000</text>
<text x="19.055" y="-250.52" transform="scale(1, -1)"
	style="font-family:Times;font-weight:normal;font-style:normal;font-size:10px">20000</text>
<text x="19.055" y="-406.96" transform="scale(1, -1)"
	style="font-family:Times;font-weight:normal;font-style:normal;font-size:10px">35000</text>
<path d="M46.555,97.287L54.555,97.287" style="fill:none;stroke:#000000;stroke-width:0.5" />
<path d="M46.555,253.72L54.555,253.72" style="fill:none;stroke:#000000;stroke-width:0.5" />
<path d="M46.555,410.16L54.555,410.16" style="fill:none;stroke:#000000;stroke-width:0.5" />
<path d="M50.555,175.51L54.555,175.51" style="fill:none;stroke:#000000;stroke-width:0.5" />
<path d="M50.555,331.94L54.555,331.94" style="fill:none;stroke:#000000;stroke-width:0.5" />
<path d="M54.555,45.151L54.555,412.02" style="fill:none;stroke:#000000;stroke-width:0.5" />
<path d="M60.305,412.02L83.601,52.306L84.659,48.343L85.718,55.122L87.836,59.627L88.895,59.168L89.954,55.195L91.013,84.24L94.19,86.482L95.248,83.791L96.307,114.43L97.366,106.76L98.425,104.88L100.54,83.916L101.6,124.29L102.66,78.858L103.72,123.68L104.78,107.3L105.84,83.937L106.9,75.302L107.96,63.736L109.01,87.598L110.07,45.318L111.13,45.402L112.19,80.381L113.25,89.016L114.31,88.62L115.37,45.642L116.43,120.66L117.49,72.799L118.54,48.447L119.6,102.5L120.66,78.566L121.72,50.825L122.78,79.505L123.84,52.921L124.9,57.343L125.96,121.78L127.02,66.281L128.07,58.553L129.13,63.517L130.19,61.066L131.25,79.348L132.31,77.012L133.37,72.747L134.43,75.896L135.49,88.38L136.55,74.05L137.6,115.8L138.66,109.06L139.72,95.92L140.78,86.117L141.84,107.07L142.9,90.841L143.96,88.683L145.02,101.68L146.08,118.84L147.13,95.159L148.19,92.385L149.25,89.152L150.31,104.23L151.37,87.389L152.43,89.11L153.49,97.506L154.55,95.295L155.61,89.913L156.66,99.06L157.72,102.9L158.78,85.408L159.84,93.981L160.9,104.66L161.96,93.407L163.02,95.806L164.08,91.634L165.14,83.896L166.19,86.618L167.25,88.839L168.31,88.13L169.37,94.93L170.43,87.827L171.49,87.608L172.55,91.874L173.61,95.91L174.67,92.969L175.72,97.391L176.78,91.728L177.84,86.659L178.9,103.29L179.96,104.2L181.02,91.676L182.08,110.91L183.14,102.56L184.2,92.124L185.26,98.83L186.31,98.674L187.37,96.327L188.43,95.295L189.49,96.411L190.55,99.758L191.61,103.07L192.67,95.722L193.73,99.414L194.79,101.77L195.84,91.332L196.9,97.537L197.96,104.98L199.02,97.641L200.08,96.296L201.14,97.798L202.2,99.696L203.26,99.08L204.32,98.924L205.37,96.963L206.43,94.502L207.49,93.052L208.55,92.938L209.61,93.793L210.67,94.627L211.73,95.837L212.79,94.565L213.85,92.833L214.9,91.978L215.96,95.847L217.02,95.43L218.08,93.303L219.14,94.784L220.2,95.722L221.26,93.313L222.32,93.845L223.38,96.567L224.43,93.136L225.49,93.49L226.55,92.687L227.61,93.438L228.67,92.374L229.73,90.028L230.79,92.301L231.85,92.552L232.91,91.332L233.96,90.018L235.02,92.322L236.08,92.27L237.14,89.746L238.2,90.862L239.26,92.593L240.32,89.965L241.38,89.997L242.44,91.707L243.49,87.546L244.55,89.34L245.61,88.818L246.67,88.203L247.73,88.683L248.79,87.41L249.85,86.722L250.91,85.272L251.97,84.459L253.02,85.022L254.08,86.305L255.14,84.866L256.2,83.604L257.26,84.97L258.32,83.134L259.38,86.096L260.44,85.241L261.5,82.947L262.55,82.696L263.61,83.51L264.67,83.75L265.73,82.696L266.79,81.184L267.85,82.123L268.91,82.06L269.97,80.256L271.03,80.642L272.08,80.204L273.14,80.172L274.2,79.369L275.26,79.432L276.32,80.037L277.38,79.568L278.44,78.337L279.5,78.994L280.56,78.034L281.61,76.47L282.67,77.336L283.73,76.919L284.79,77.19L285.85,74.676L286.91,75.573L287.97,75.615L289.03,75.406L290.09,74.666L291.15,74.301L292.2,73.477L293.26,73.644L294.32,72.809L295.38,73.56L296.44,72.069L297.5,72.236L298.56,72.403L299.62,71.527L300.68,71.026L301.73,71.527L302.79,71.85L303.85,70.16L304.91,70.129L305.97,69.889L307.03,69.389L308.09,68.075L309.15,69.232L310.21,68.554L311.26,67.897L312.32,68.356L313.38,68.273L314.44,66.688L315.5,66.771L316.56,66.969L317.62,67.345L318.68,66.771L319.74,65.707L320.79,65.905L321.85,65.791L322.91,64.748L323.97,64.789L325.03,64.643L326.09,64.153L327.15,64.998L328.21,64.57L329.27,63.757L330.32,63.173L331.38,63.423L332.44,62.349L333.5,62.255L334.56,62.245L335.62,61.442L336.68,61.838L337.74,61.463L338.8,61.41L339.85,60.983L340.91,61.035L341.97,60.43L343.03,60.576L344.09,59.961L345.15,60.075L346.21,59.335L347.27,59.575L348.33,58.887L349.38,58.115L350.44,58.469L351.5,57.708L352.56,57.864L353.62,57.677L354.68,58.574L355.74,57.26L356.8,57.906L357.86,57.572L358.91,56.707L359.97,57.249L361.03,57.02L362.09,56.571L363.15,56.039L364.21,55.935L365.27,56.019L366.33,55.946L367.39,55.893L368.44,55.069L369.5,55.361L370.56,55.581L371.62,55.299L372.68,54.402L373.74,54.131L374.8,54.256L375.86,54.277L376.92,54.047L377.97,53.995L379.03,54.047L380.09,53.787L381.15,53.411L382.21,52.952L383.27,53.119L384.33,53.224L385.39,52.671L386.45,52.525L387.51,52.483L388.56,52.629L389.62,52.118L390.68,52.118L391.74,51.868L392.8,51.93L393.86,51.795L394.92,51.503L395.98,51.555L397.04,51.649L398.09,51.232L399.15,51.513L400.21,50.898L401.27,50.867L402.33,51.054L403.39,50.877L404.45,50.773L405.51,50.376L406.57,50.324L407.62,50.648L408.68,50.575L409.74,50.157L410.8,50.22L411.86,49.792L412.92,49.876L413.98,49.844L415.04,49.521L416.1,49.354L417.15,49.26L418.21,49.448L419.27,49.302L420.33,49.511L421.39,49.229L422.45,49.01L423.51,48.468L424.57,49.125L425.63,48.781L426.68,48.729L427.74,48.52L428.8,48.28L429.86,48.322L430.92,48.614L431.98,48.238L433.04,48.562L434.1,48.447L435.16,47.873L436.21,48.124L437.27,47.999L438.33,47.988L439.39,47.842L440.45,47.686L441.51,47.487L442.57,47.644L443.63,47.707L444.69,47.498L445.74,47.686L446.8,47.435L447.86,47.414L448.92,47.467L449.98,47.122L451.04,46.956L452.1,47.289L453.16,46.945L454.22,47.321L455.27,47.122L456.33,46.945L457.39,46.966L458.45,46.997L459.51,46.935L460.57,47.008L461.63,47.039L462.69,46.945L463.75,46.611L464.8,46.747L465.86,46.591L466.92,46.684L467.98,46.757L469.04,46.695L470.1,46.497L471.16,46.538L472.22,46.684L473.28,46.632L474.33,46.34L475.39,46.611L476.45,46.226L477.51,46.476L478.57,46.257L479.63,46.059L480.69,46.184L481.75,46.1L482.81,46.382L483.87,46.205L484.92,46.111L485.98,46.1L487.04,46.038L488.1,46.236L489.16,46.184L490.22,46.09L491.28,46.121L492.34,45.934L493.4,45.975L494.45,45.829L495.51,45.954L496.57,45.746L497.63,45.923L498.69,45.913L499.75,45.986L500.81,45.808L501.87,45.902L502.93,45.892L503.98,45.788L505.04,45.756L506.1,45.704L507.16,45.652L508.22,45.746L509.28,45.683L510.34,45.808L511.4,45.662L512.46,45.694L513.51,45.798L514.57,45.516L515.63,45.61L516.69,45.569L517.75,45.652L518.81,45.485L519.87,45.631L520.93,45.61L521.99,45.475L523.04,45.579L524.1,45.704L525.16,45.464L526.22,45.579L527.28,45.485L528.34,45.454L529.4,45.391L530.46,45.391L531.52,45.454L532.57,45.516L533.63,45.433L534.69,45.423L535.75,45.412L536.81,45.37L537.87,45.412L538.93,45.35L539.99,45.381L541.05,45.412L542.1,45.287L543.16,45.381L544.22,45.36L545.28,45.339L546.34,45.36L547.4,45.433L548.46,45.318L549.52,45.339L550.58,45.381L551.63,45.329L552.69,45.256L553.75,45.287L554.81,45.256L555.87,45.318L556.93,45.329L557.99,45.339L559.05,45.287L560.11,45.224L561.16,45.297L562.22,45.224L563.28,45.287L564.34,45.308L565.4,45.277L566.46,45.214L567.52,45.277L568.58,45.308L569.64,45.214L570.69,45.214L571.75,45.235L572.81,45.308L573.87,45.297L574.93,45.256L575.99,45.224L577.05,45.214L578.11,45.214L579.17,45.214L580.23,45.214L581.28,45.224L582.34,45.204L583.4,45.204L584.46,45.235L585.52,45.204L586.58,45.235L587.64,45.193L588.7,45.151L589.76,45.204L590.81,45.204L591.87,45.214L592.93,45.193L593.99,45.214L595.05,45.235L596.11,45.214L597.17,45.183L598.23,45.172L599.29,45.183L600.34,45.193L601.4,45.162L602.46,45.224L603.52,45.193L604.58,45.204L605.64,45.183L606.7,45.172L607.76,45.193L608.82,45.204L609.87,45.172L610.93,45.183L613.05,45.193L614.11,45.214L615.17,45.162L616.23,45.172L617.29,45.183L618.35,45.151L619.4,45.172L620.46,45.151L621.52,45.172L622.58,45.183L623.64,45.172L624.7,45.151L625.76,45.193L626.82,45.172L627.88,45.172L628.93,45.151L631.05,45.183L632.11,45.162L633.17,45.151L635.29,45.162L636.35,45.151L637.41,45.151L638.46,45.183L640.58,45.162L642.7,45.162L643.76,45.162L644.82,45.162L645.88,45.162L646.94,45.162L647.99,45.162L649.05,45.151L652.23,45.172L653.29,45.183L655.41,45.151L656.47,45.162L660.7,45.151L662.82,45.151L664.94,45.151L666,45.151L667.05,45.151L669.17,45.162L670.23,45.151L675.53,45.151L676.59,45.151L680.82,45.151L690.35,45.151L693.53,45.162L695.65,45.151L700.94,45.151L713.65,45.151L720,45.151" style="fill:none;stroke:#0000FF" />
</g>
</svg>
