<?xml version="1.0"?>
<!-- Generated by SVGo and Plotinum VG -->
<svg width="720pt" height="432pt" viewBox="0 0 720 432"
	xmlns="http://www.w3.org/2000/svg"
	xmlns:xlink="http://www.w3.org/1999/xlink">
<g transform="scale(1, -1) translate(0, -432)">
<path d="M0,0L720,0L720,432L0,432Z" style="fill:#FFFFFF" />
<text x="358.5" y="-420.45" transform="scale(1, -1)"
	style="font-family:Times;font-weight:normal;font-style:normal;font-size:12px"> </text>
<text x="376.81" y="-3.8613" transform="scale(1, -1)"
	style="font-family:Times;font-weight:normal;font-style:normal;font-size:12px">Costs</text>
<text x="51.555" y="-18.634" transform="scale(1, -1)"
	style="font-family:Times;font-weight:normal;font-style:normal;font-size:10px">0.00</text>
<text x="334.88" y="-18.634" transform="scale(1, -1)"
	style="font-family:Times;font-weight:normal;font-style:normal;font-size:10px">250.00</text>
<text x="623.21" y="-18.634" transform="scale(1, -1)"
	style="font-family:Times;font-weight:normal;font-style:normal;font-size:10px">500.00</text>
<path d="M60.305,28.263L60.305,36.263" style="fill:none;stroke:#000000;stroke-width:0.5" />
<path d="M348.63,28.263L348.63,36.263" style="fill:none;stroke:#000000;stroke-width:0.5" />
<path d="M636.96,28.263L636.96,36.263" style="fill:none;stroke:#000000;stroke-width:0.5" />
<path d="M117.97,32.263L117.97,36.263" style="fill:none;stroke:#000000;stroke-width:0.5" />
<path d="M175.64,32.263L175.64,36.263" style="fill:none;stroke:#000000;stroke-width:0.5" />
<path d="M233.3,32.263L233.3,36.263" style="fill:none;stroke:#000000;stroke-width:0.5" />
<path d="M290.97,32.263L290.97,36.263" style="fill:none;stroke:#000000;stroke-width:0.5" />
<path d="M406.3,32.263L406.3,36.263" style="fill:none;stroke:#000000;stroke-width:0.5" />
<path d="M463.96,32.263L463.96,36.263" style="fill:none;stroke:#000000;stroke-width:0.5" />
<path d="M521.63,32.263L521.63,36.263" style="fill:none;stroke:#000000;stroke-width:0.5" />
<path d="M579.3,32.263L579.3,36.263" style="fill:none;stroke:#000000;stroke-width:0.5" />
<path d="M694.63,32.263L694.63,36.263" style="fill:none;stroke:#000000;stroke-width:0.5" />
<path d="M60.305,36.263L720,36.263" style="fill:none;stroke:#000000;stroke-width:0.5" />
<g transform="rotate(90)">
<text x="152.55" y="11.555" transform="scale(1, -1)"
	style="font-family:Times;font-weight:normal;font-style:normal;font-size:12px">Number of trials (1000000 total)</text>
</g>
<text x="24.055" y="-82.301" transform="scale(1, -1)"
	style="font-family:Times;font-weight:normal;font-style:normal;font-size:10px">5000</text>
<text x="19.055" y="-243.76" transform="scale(1, -1)"
	style="font-family:Times;font-weight:normal;font-style:normal;font-size:10px">25000</text>
<text x="19.055" y="-405.21" transform="scale(1, -1)"
	style="font-family:Times;font-weight:normal;font-style:normal;font-size:10px">45000</text>
<path d="M46.555,85.507L54.555,85.507" style="fill:none;stroke:#000000;stroke-width:0.5" />
<path d="M46.555,246.96L54.555,246.96" style="fill:none;stroke:#000000;stroke-width:0.5" />
<path d="M46.555,408.41L54.555,408.41" style="fill:none;stroke:#000000;stroke-width:0.5" />
<path d="M50.555,166.23L54.555,166.23" style="fill:none;stroke:#000000;stroke-width:0.5" />
<path d="M50.555,327.69L54.555,327.69" style="fill:none;stroke:#000000;stroke-width:0.5" />
<path d="M54.555,45.151L54.555,416.58" style="fill:none;stroke:#000000;stroke-width:0.5" />
<path d="M60.305,416.58L85.678,54.58L86.831,59.4L90.291,59.036L91.444,82.052L92.597,64.897L93.751,85.886L94.904,48.8L96.057,128.43L97.211,91.795L98.364,61.717L99.517,106.09L100.67,93.337L101.82,63.153L102.98,63.436L104.13,56.921L105.28,72.05L106.44,58.043L107.59,186.29L108.74,64.138L109.9,133.98L111.05,94.387L112.2,54.806L113.36,76.595L115.66,45.515L116.82,77.991L117.97,121.73L119.12,59.311L120.28,46.976L121.43,97.551L122.58,90.722L123.74,59.884L124.89,61.289L126.04,72.97L127.2,61.894L128.35,65.454L129.5,99.448L130.66,83.682L131.81,104.7L132.96,101.58L134.12,64.946L135.27,67.836L136.42,73.365L137.58,73.47L138.73,75.698L139.88,73.713L141.04,83.416L142.19,80.389L143.34,98.132L144.5,89.914L145.65,82.35L146.8,99.23L147.96,87.275L149.11,112.74L150.26,85.216L151.42,76.473L152.57,84.635L153.72,92.691L154.88,98.302L156.03,80.033L157.18,112.91L158.34,104.09L159.49,80.373L160.64,94.564L161.8,84.021L162.95,87.848L164.1,87.299L165.26,102.85L166.41,90.011L167.56,93.321L168.72,107.76L169.87,91.626L171.02,92.231L172.18,89.18L173.33,83.004L174.48,83.505L175.64,83.626L176.79,86.903L177.94,85.684L179.1,106.7L180.25,106.38L181.4,86.193L182.56,92.837L183.71,86.879L184.86,83.028L186.02,84.449L187.17,85.854L188.32,87.912L189.48,92.732L190.63,92.215L191.78,86.887L192.94,88.55L194.09,95.896L195.24,86.903L196.4,93.515L197.55,85.773L198.7,88.478L199.86,90.027L201.01,89.648L202.16,91.416L203.32,86.371L204.47,93.66L205.62,90.14L206.78,89.705L207.93,88.841L209.08,83.634L210.24,88.486L211.39,89.043L212.54,86.702L213.7,87L214.85,91.109L216,90.576L217.16,86.451L218.31,90.375L219.46,89.527L220.62,86.379L221.77,87.17L222.92,83.642L224.08,82.859L225.23,83.852L226.38,87.525L227.54,86.314L228.69,84.732L229.84,87.259L231,84.611L232.15,81.616L233.3,80.921L234.46,80.623L235.61,82.173L236.76,82.044L237.91,83.537L239.07,81.89L240.22,82.633L241.37,81.713L242.53,80.122L243.68,79.759L244.83,78.306L245.99,79.275L247.14,78.5L248.29,78.5L249.45,80.082L250.6,78.459L251.75,79.46L252.91,76.821L254.06,77.539L255.21,77.079L256.37,75.254L257.52,77.442L258.67,75.803L259.83,74.802L260.98,75.666L262.13,74.488L263.29,76.086L264.44,73.535L265.59,74.237L266.75,73.39L267.9,74.891L269.05,73.511L270.21,72.259L271.36,72.276L272.51,72.34L273.67,70.831L274.82,72.017L275.97,70.968L277.13,71.194L278.28,69.684L279.43,70.266L280.59,70.048L281.74,68.546L282.89,69.571L284.05,68.062L285.2,68.538L286.35,68.11L287.51,68.885L288.66,67.924L289.81,67.739L290.97,67.004L292.12,66.528L293.27,66.197L294.43,65.365L295.58,64.445L296.73,64.623L297.89,65.131L299.04,64.857L300.19,64.3L301.35,64.154L302.5,64.122L303.65,63.057L304.81,63.71L305.96,62.718L307.11,62.516L308.27,62.871L309.42,62.572L310.57,62.023L311.73,61.119L312.88,61.741L314.03,61.006L315.19,60.28L316.34,60.385L317.49,59.303L318.65,60.28L319.8,59.497L320.95,59.787L322.11,59.133L323.26,59.053L324.41,58.536L325.57,58.302L326.72,58.358L327.87,58.011L329.03,57.834L330.18,57.89L331.33,57.47L332.49,57.075L333.64,57.293L334.79,56.841L335.95,56.38L337.1,56.033L338.25,55.525L339.41,55.622L340.56,55.63L341.71,55.751L342.87,55.073L344.02,54.879L345.17,55.291L346.33,54.863L347.48,54.33L348.63,54.806L349.79,53.878L350.94,54.233L352.09,53.216L353.25,53.628L354.4,53.45L355.55,52.764L356.71,53.176L357.86,52.78L359.01,52.804L360.17,52.441L361.32,52.441L362.47,51.771L363.63,52.28L364.78,51.658L365.93,51.9L367.09,51.698L368.24,51.085L369.39,51.577L370.55,51.053L371.7,51.561L372.85,51.634L374.01,50.81L375.16,50.778L376.31,50.641L377.47,50.972L378.62,50.431L379.77,50.261L380.93,50.407L382.08,49.963L383.23,49.914L384.39,49.43L385.54,50.181L386.69,49.446L387.85,49.785L389,49.196L390.15,49.478L391.31,49.236L392.46,49.26L393.61,49.277L394.77,48.921L395.92,48.606L397.07,48.623L398.23,48.292L399.38,48.752L400.53,48.719L401.69,48.558L402.84,48.502L403.99,48.389L405.15,48.09L406.3,48.356L407.45,47.945L408.61,48.138L409.76,48.251L410.91,47.848L412.07,47.832L413.22,47.323L414.37,47.67L415.53,47.751L416.68,47.331L417.83,47.541L418.99,47.307L420.14,47.541L421.29,47.242L422.45,47.266L423.6,47.161L424.75,47.097L425.91,47.17L427.06,47.218L428.21,47.024L429.37,47.145L430.52,46.879L431.67,46.822L432.82,46.847L433.98,46.847L435.13,46.701L436.28,46.653L437.44,46.726L438.59,46.475L439.74,46.322L440.9,46.693L442.05,46.354L443.2,46.532L444.36,46.532L445.51,46.419L446.66,46.467L447.82,46.257L448.97,46.29L450.12,46.217L451.28,46.201L452.43,46.056L453.58,46.152L454.74,46.169L455.89,46.152L457.04,46.064L458.2,45.967L459.35,45.862L460.5,46.023L461.66,45.862L462.81,45.942L463.96,45.951L465.12,45.87L466.27,45.829L467.42,45.951L468.58,45.805L469.73,45.733L470.88,45.789L472.04,45.87L473.19,45.725L474.34,45.733L475.5,45.91L476.65,45.805L477.8,45.757L478.96,45.797L480.11,45.612L481.26,45.644L482.42,45.555L483.57,45.507L484.72,45.62L485.88,45.579L487.03,45.716L488.18,45.595L489.34,45.66L490.49,45.507L491.64,45.595L492.8,45.458L493.95,45.498L495.1,45.458L496.26,45.442L497.41,45.394L498.56,45.498L499.72,45.474L500.87,45.498L502.02,45.41L503.18,45.41L504.33,45.418L505.48,45.41L506.64,45.418L507.79,45.442L508.94,45.361L510.1,45.361L511.25,45.353L512.4,45.313L513.56,45.402L514.71,45.41L515.86,45.418L517.02,45.272L518.17,45.329L519.32,45.41L520.48,45.345L521.63,45.353L522.78,45.281L523.94,45.345L525.09,45.321L526.24,45.272L527.4,45.313L528.55,45.208L529.7,45.24L530.86,45.264L532.01,45.24L533.16,45.264L534.32,45.272L535.47,45.24L536.62,45.321L537.78,45.256L538.93,45.24L540.08,45.289L541.24,45.192L542.39,45.24L543.54,45.216L544.7,45.224L545.85,45.192L547,45.2L548.16,45.24L549.31,45.176L550.46,45.208L551.62,45.24L552.77,45.2L553.92,45.168L555.08,45.208L556.23,45.208L557.38,45.176L558.54,45.208L559.69,45.192L560.84,45.192L562,45.224L563.15,45.168L564.3,45.184L565.46,45.168L566.61,45.159L567.76,45.184L568.92,45.159L570.07,45.168L571.22,45.176L572.38,45.159L573.53,45.168L574.68,45.192L575.84,45.159L576.99,45.168L578.14,45.192L579.3,45.192L580.45,45.192L581.6,45.168L582.76,45.208L583.91,45.176L585.06,45.176L586.22,45.184L587.37,45.159L588.52,45.168L589.68,45.151L590.83,45.159L591.98,45.168L593.14,45.168L594.29,45.176L595.44,45.176L596.6,45.159L597.75,45.159L598.9,45.151L601.21,45.168L602.36,45.159L604.67,45.159L605.82,45.184L609.28,45.168L610.44,45.151L612.74,45.151L613.9,45.159L617.36,45.151L618.51,45.159L620.82,45.151L624.27,45.151L625.43,45.159L626.58,45.151L628.89,45.168L633.5,45.151L638.11,45.151L647.34,45.151L648.49,45.151L649.65,45.151L651.95,45.151L655.41,45.151L656.57,45.151L660.03,45.151L662.33,45.151L673.87,45.151L676.17,45.151L677.33,45.151L683.09,45.151L684.25,45.151L720,45.151" style="fill:none;stroke:#0000FF" />
</g>
</svg>
