<?xml version="1.0"?>
<!-- Generated by SVGo and Plotinum VG -->
<svg width="720pt" height="432pt" viewBox="0 0 720 432"
	xmlns="http://www.w3.org/2000/svg"
	xmlns:xlink="http://www.w3.org/1999/xlink">
<g transform="scale(1, -1) translate(0, -432)">
<path d="M0,0L720,0L720,432L0,432Z" style="fill:#FFFFFF" />
<text x="358.5" y="-420.45" transform="scale(1, -1)"
	style="font-family:Times;font-weight:normal;font-style:normal;font-size:12px"> </text>
<text x="376.81" y="-3.8613" transform="scale(1, -1)"
	style="font-family:Times;font-weight:normal;font-style:normal;font-size:12px">Costs</text>
<text x="51.555" y="-18.634" transform="scale(1, -1)"
	style="font-family:Times;font-weight:normal;font-style:normal;font-size:10px">0.00</text>
<text x="334.88" y="-18.634" transform="scale(1, -1)"
	style="font-family:Times;font-weight:normal;font-style:normal;font-size:10px">250.00</text>
<text x="623.21" y="-18.634" transform="scale(1, -1)"
	style="font-family:Times;font-weight:normal;font-style:normal;font-size:10px">500.00</text>
<path d="M60.305,28.263L60.305,36.263" style="fill:none;stroke:#000000;stroke-width:0.5" />
<path d="M348.63,28.263L348.63,36.263" style="fill:none;stroke:#000000;stroke-width:0.5" />
<path d="M636.96,28.263L636.96,36.263" style="fill:none;stroke:#000000;stroke-width:0.5" />
<path d="M117.97,32.263L117.97,36.263" style="fill:none;stroke:#000000;stroke-width:0.5" />
<path d="M175.64,32.263L175.64,36.263" style="fill:none;stroke:#000000;stroke-width:0.5" />
<path d="M233.3,32.263L233.3,36.263" style="fill:none;stroke:#000000;stroke-width:0.5" />
<path d="M290.97,32.263L290.97,36.263" style="fill:none;stroke:#000000;stroke-width:0.5" />
<path d="M406.3,32.263L406.3,36.263" style="fill:none;stroke:#000000;stroke-width:0.5" />
<path d="M463.96,32.263L463.96,36.263" style="fill:none;stroke:#000000;stroke-width:0.5" />
<path d="M521.63,32.263L521.63,36.263" style="fill:none;stroke:#000000;stroke-width:0.5" />
<path d="M579.3,32.263L579.3,36.263" style="fill:none;stroke:#000000;stroke-width:0.5" />
<path d="M694.63,32.263L694.63,36.263" style="fill:none;stroke:#000000;stroke-width:0.5" />
<path d="M60.305,36.263L720,36.263" style="fill:none;stroke:#000000;stroke-width:0.5" />
<g transform="rotate(90)">
<text x="152.55" y="11.555" transform="scale(1, -1)"
	style="font-family:Times;font-weight:normal;font-style:normal;font-size:12px">Number of trials (1000000 total)</text>
</g>
<text x="19.055" y="-83.762" transform="scale(1, -1)"
	style="font-family:Times;font-weight:normal;font-style:normal;font-size:10px">10000</text>
<text x="19.055" y="-209.22" transform="scale(1, -1)"
	style="font-family:Times;font-weight:normal;font-style:normal;font-size:10px">40000</text>
<text x="19.055" y="-334.68" transform="scale(1, -1)"
	style="font-family:Times;font-weight:normal;font-style:normal;font-size:10px">70000</text>
<path d="M46.555,86.968L54.555,86.968" style="fill:none;stroke:#000000;stroke-width:0.5" />
<path d="M46.555,212.43L54.555,212.43" style="fill:none;stroke:#000000;stroke-width:0.5" />
<path d="M46.555,337.89L54.555,337.89" style="fill:none;stroke:#000000;stroke-width:0.5" />
<path d="M50.555,128.79L54.555,128.79" style="fill:none;stroke:#000000;stroke-width:0.5" />
<path d="M50.555,170.61L54.555,170.61" style="fill:none;stroke:#000000;stroke-width:0.5" />
<path d="M50.555,254.25L54.555,254.25" style="fill:none;stroke:#000000;stroke-width:0.5" />
<path d="M50.555,296.07L54.555,296.07" style="fill:none;stroke:#000000;stroke-width:0.5" />
<path d="M50.555,379.71L54.555,379.71" style="fill:none;stroke:#000000;stroke-width:0.5" />
<path d="M54.555,45.151L54.555,416.58" style="fill:none;stroke:#000000;stroke-width:0.5" />
<path d="M60.305,416.58L85.678,70.068L86.831,71.398L90.291,66.635L91.444,59.609L92.597,48.422L93.751,51.784L96.057,94.035L98.364,72.021L99.517,114.71L100.67,70.193L104.13,51.914L105.28,129.33L106.44,66.793L107.59,137.83L108.74,72.661L109.9,62.549L111.05,108.25L112.2,46.749L113.36,71.586L115.66,46.649L116.82,85.37L117.97,46.452L119.12,98.669L120.28,45.645L121.43,49.342L122.58,51.939L123.74,47.46L124.89,84.818L126.04,95.273L127.2,86.19L128.35,74.94L129.5,51.529L130.66,70.185L131.81,78.457L132.96,57.999L134.12,57.392L135.27,62.532L136.42,58.358L137.58,61.06L138.73,59.094L139.88,55.929L141.04,63.377L142.19,57.48L143.34,69.252L144.5,82.719L145.65,67.345L146.8,76.981L147.96,59.939L149.11,73.476L150.26,70.382L151.42,63.724L152.57,83.338L153.72,96.197L154.88,73.999L156.03,79.712L157.18,68.266L158.34,84.99L159.49,58.459L160.64,63.189L161.8,67.977L162.95,60.278L164.1,87.231L165.26,66.195L166.41,75.626L167.56,69.424L168.72,54.737L169.87,73.769L171.02,68.424L172.18,74.539L173.33,72.293L174.48,67.856L175.64,78.202L176.79,68.01L177.94,69.186L179.1,70.068L180.25,63.368L181.4,63.481L182.56,64.899L183.71,67.814L184.86,68.019L186.02,61.516L187.17,61.549L188.32,61.691L189.48,67.228L190.63,64.861L191.78,69.708L192.94,72L194.09,68.416L195.24,65.292L196.4,65.639L197.55,67.529L198.7,70.06L199.86,67.053L201.01,70.248L202.16,65.777L203.32,68.374L204.47,65.794L205.62,64.665L206.78,62.503L207.93,60.742L209.08,64.769L210.24,65.108L211.39,66.133L212.54,68.215L213.7,61.7L214.85,66.124L216,61.825L217.16,64.163L218.31,64.318L219.46,65.455L220.62,67.111L221.77,63.669L222.92,64.468L224.08,63.774L225.23,62.716L226.38,62.051L227.54,58.567L228.69,61.524L229.84,61.34L231,61.382L232.15,60.939L233.3,59.207L234.46,60.215L235.61,59.826L236.76,59.914L237.91,61.863L239.07,59.278L240.22,60.909L241.37,59.592L242.53,60.349L243.68,59.885L244.83,58.396L245.99,60.182L247.14,58.751L248.29,59.408L249.45,59.91L250.6,58.563L251.75,59.178L252.91,56.727L254.06,57.346L255.21,56.853L256.37,57.3L257.52,58.517L258.67,57.447L259.83,57.852L260.98,57.237L262.13,56.79L263.29,57.045L264.44,56.522L265.59,57.083L266.75,56.359L267.9,56.317L269.05,56.961L270.21,55.736L271.36,55.657L272.51,55.021L273.67,54.611L274.82,54.653L275.97,54.791L277.13,54.875L278.28,54.381L279.43,54.741L280.59,54.072L281.74,53.804L282.89,53.98L284.05,53.503L285.2,53.578L286.35,53.474L287.51,53.415L288.66,53.532L289.81,52.989L290.97,53.403L292.12,53.051L293.27,52.625L294.43,52.445L295.58,52.215L296.73,52.821L297.89,51.989L299.04,52.198L300.19,51.897L301.35,51.834L302.5,51.805L303.65,51.483L304.81,51.767L305.96,51.588L307.11,51.47L308.27,51.713L309.42,51.337L310.57,51.345L311.73,50.964L312.88,50.764L314.03,50.835L315.19,50.864L316.34,50.713L317.49,50.793L318.65,50.316L319.8,50.266L320.95,49.76L322.11,49.885L323.26,50.04L324.41,49.722L325.57,49.71L326.72,49.722L327.87,49.543L329.03,49.329L330.18,49.388L331.33,49.216L332.49,49.158L333.64,49.342L334.79,48.936L335.95,48.894L337.1,48.576L338.25,48.706L339.41,48.919L340.56,48.944L341.71,48.547L342.87,48.497L344.02,48.263L345.17,48.489L346.33,48.238L347.48,48.259L348.63,48.154L349.79,47.983L350.94,48.096L352.09,47.97L353.25,47.978L354.4,48.041L355.55,47.907L356.71,47.84L357.86,47.602L359.01,47.682L360.17,47.531L361.32,47.648L362.47,47.502L363.63,47.564L364.78,47.426L365.93,47.297L367.09,47.351L368.24,47.213L369.39,47.372L370.55,47.063L371.7,47.037L372.85,47.058L374.01,46.941L375.16,47.067L376.31,46.858L377.47,46.841L378.62,46.858L379.77,46.699L380.93,46.795L382.08,46.732L383.23,46.828L384.39,46.582L385.54,46.674L386.69,46.448L387.85,46.674L389,46.544L390.15,46.469L391.31,46.523L392.46,46.402L393.61,46.485L394.77,46.393L395.92,46.427L397.07,46.23L398.23,46.247L399.38,46.101L400.53,46.222L401.69,46.172L402.84,46.109L403.99,46.076L405.15,46.117L406.3,46.134L407.45,46.013L408.61,46.051L409.76,46.063L410.91,45.979L412.07,45.967L413.22,45.929L414.37,45.929L415.53,46.021L416.68,45.812L417.83,45.984L418.99,45.896L420.14,45.866L421.29,45.879L422.45,45.699L423.6,45.762L424.75,45.691L425.91,45.795L427.06,45.699L428.21,45.749L429.37,45.699L430.52,45.749L431.67,45.628L432.82,45.544L433.98,45.632L435.13,45.632L436.28,45.59L437.44,45.57L438.59,45.524L439.74,45.607L440.9,45.528L442.05,45.628L443.2,45.528L444.36,45.624L445.51,45.486L446.66,45.503L447.82,45.494L448.97,45.498L450.12,45.486L451.28,45.528L452.43,45.457L453.58,45.457L454.74,45.423L455.89,45.448L457.04,45.448L458.2,45.427L459.35,45.432L460.5,45.365L461.66,45.398L462.81,45.419L463.96,45.415L465.12,45.373L466.27,45.352L467.42,45.369L468.58,45.356L469.73,45.411L470.88,45.352L472.04,45.381L473.19,45.344L474.34,45.323L475.5,45.352L476.65,45.352L477.8,45.335L478.96,45.298L480.11,45.335L481.26,45.344L482.42,45.294L483.57,45.306L484.72,45.306L485.88,45.235L487.03,45.264L488.18,45.273L489.34,45.248L490.49,45.273L491.64,45.277L492.8,45.222L493.95,45.248L495.1,45.26L496.26,45.256L497.41,45.256L498.56,45.285L499.72,45.214L500.87,45.235L502.02,45.235L503.18,45.239L504.33,45.227L505.48,45.231L506.64,45.239L507.79,45.239L508.94,45.248L510.1,45.21L511.25,45.202L512.4,45.218L513.56,45.193L514.71,45.222L515.86,45.235L517.02,45.185L518.17,45.214L519.32,45.218L520.48,45.21L521.63,45.202L522.78,45.181L523.94,45.185L525.09,45.202L526.24,45.176L527.4,45.206L528.55,45.197L529.7,45.176L530.86,45.222L532.01,45.176L533.16,45.181L534.32,45.181L535.47,45.185L536.62,45.185L537.78,45.172L538.93,45.156L540.08,45.197L541.24,45.189L542.39,45.185L543.54,45.176L544.7,45.164L545.85,45.181L547,45.168L548.16,45.181L549.31,45.168L550.46,45.168L551.62,45.176L552.77,45.16L553.92,45.176L555.08,45.168L556.23,45.176L557.38,45.181L558.54,45.16L559.69,45.164L560.84,45.168L562,45.156L563.15,45.172L564.3,45.16L565.46,45.168L566.61,45.16L567.76,45.151L568.92,45.156L570.07,45.16L571.22,45.164L574.68,45.151L575.84,45.156L576.99,45.164L578.14,45.151L579.3,45.16L580.45,45.16L581.6,45.156L582.76,45.151L583.91,45.156L586.22,45.164L587.37,45.156L588.52,45.151L589.68,45.164L590.83,45.156L591.98,45.16L593.14,45.156L594.29,45.151L596.6,45.168L597.75,45.151L598.9,45.151L600.06,45.151L601.21,45.156L602.36,45.16L604.67,45.156L605.82,45.16L609.28,45.151L610.44,45.151L615.05,45.151L616.2,45.156L617.36,45.151L619.66,45.156L620.82,45.156L621.97,45.151L624.27,45.151L625.43,45.151L627.73,45.156L634.65,45.151L638.11,45.151L640.42,45.151L646.19,45.151L649.65,45.151L658.87,45.151L662.33,45.151L687.71,45.151L720,45.151" style="fill:none;stroke:#0000FF" />
</g>
</svg>
