<?xml version="1.0"?>
<!-- Generated by SVGo and Plotinum VG -->
<svg width="720pt" height="432pt" viewBox="0 0 720 432"
	xmlns="http://www.w3.org/2000/svg"
	xmlns:xlink="http://www.w3.org/1999/xlink">
<g transform="scale(1, -1) translate(0, -432)">
<path d="M0,0L720,0L720,432L0,432Z" style="fill:#FFFFFF" />
<text x="358.5" y="-420.45" transform="scale(1, -1)"
	style="font-family:Times;font-weight:normal;font-style:normal;font-size:12px"> </text>
<text x="379.31" y="-3.8613" transform="scale(1, -1)"
	style="font-family:Times;font-weight:normal;font-style:normal;font-size:12px">Costs</text>
<text x="62.805" y="-18.634" transform="scale(1, -1)"
	style="font-family:Times;font-weight:normal;font-style:normal;font-size:10px">0</text>
<text x="335.81" y="-18.634" transform="scale(1, -1)"
	style="font-family:Times;font-weight:normal;font-style:normal;font-size:10px">200</text>
<text x="613.81" y="-18.634" transform="scale(1, -1)"
	style="font-family:Times;font-weight:normal;font-style:normal;font-size:10px">400</text>
<path d="M65.305,28.263L65.305,36.263" style="fill:none;stroke:#000000;stroke-width:0.5" />
<path d="M343.31,28.263L343.31,36.263" style="fill:none;stroke:#000000;stroke-width:0.5" />
<path d="M621.31,28.263L621.31,36.263" style="fill:none;stroke:#000000;stroke-width:0.5" />
<path d="M204.31,32.263L204.31,36.263" style="fill:none;stroke:#000000;stroke-width:0.5" />
<path d="M482.31,32.263L482.31,36.263" style="fill:none;stroke:#000000;stroke-width:0.5" />
<path d="M65.305,36.263L720,36.263" style="fill:none;stroke:#000000;stroke-width:0.5" />
<g transform="rotate(90)">
<text x="152.55" y="11.555" transform="scale(1, -1)"
	style="font-family:Times;font-weight:normal;font-style:normal;font-size:12px">Number of trials (1000000 total)</text>
</g>
<text x="24.055" y="-114.34" transform="scale(1, -1)"
	style="font-family:Times;font-weight:normal;font-style:normal;font-size:10px">50000</text>
<text x="19.055" y="-259.14" transform="scale(1, -1)"
	style="font-family:Times;font-weight:normal;font-style:normal;font-size:10px">150000</text>
<text x="19.055" y="-403.93" transform="scale(1, -1)"
	style="font-family:Times;font-weight:normal;font-style:normal;font-size:10px">250000</text>
<path d="M51.555,117.55L59.555,117.55" style="fill:none;stroke:#000000;stroke-width:0.5" />
<path d="M51.555,262.34L59.555,262.34" style="fill:none;stroke:#000000;stroke-width:0.5" />
<path d="M51.555,407.14L59.555,407.14" style="fill:none;stroke:#000000;stroke-width:0.5" />
<path d="M55.555,189.95L59.555,189.95" style="fill:none;stroke:#000000;stroke-width:0.5" />
<path d="M55.555,334.74L59.555,334.74" style="fill:none;stroke:#000000;stroke-width:0.5" />
<path d="M59.555,45.151L59.555,416.58" style="fill:none;stroke:#000000;stroke-width:0.5" />
<path d="M65.305,416.58L95.885,55.672L101.44,62.255L102.83,59.1L104.23,58.885L105.62,48.638L107.01,59.075L108.4,63.393L109.79,51.894L111.18,66.024L112.57,83.987L113.96,62.764L115.35,52.042L118.13,59.049L119.52,48.454L120.91,52.005L122.3,66.677L123.69,80.037L125.08,62.714L126.47,69.422L127.86,48.78L129.25,48.503L132.03,45.621L133.42,52.393L134.81,59.226L136.2,77.216L137.59,45.668L138.98,98.781L140.37,49.55L141.76,46.36L143.15,50.839L144.54,50.645L145.93,46.856L147.32,50.609L148.71,48.644L150.1,49.029L151.49,55.43L152.88,62.402L154.27,49.61L155.66,49.484L157.05,48.929L158.44,56.471L159.83,50.83L161.22,51.062L162.61,50.121L164,49.701L165.39,50.745L166.78,61.341L168.17,67.754L169.56,53.159L170.95,52.792L172.34,56.67L173.73,51.658L175.12,52.081L176.51,57.867L177.9,68.572L179.29,50.387L180.68,52.319L182.07,54.685L183.46,54.475L184.85,53.047L186.24,54.108L187.63,50.167L189.02,50.005L190.41,48.454L191.8,51.029L193.19,50.436L194.58,52.362L195.97,52.485L197.36,54.714L198.75,51.343L200.14,52.28L201.53,48.619L202.92,48.574L204.31,49.345L205.7,50.284L207.09,49.82L208.48,50.596L209.87,53.602L211.26,49.986L212.65,52.258L214.04,51.984L215.43,51.082L216.82,50.276L218.21,49.167L219.6,49.497L220.99,50.092L222.38,49.55L223.77,50.99L225.16,52.451L226.55,52.529L227.94,49.662L229.33,49.856L230.72,49.019L232.11,49.285L233.5,48.587L234.89,49.346L236.28,50.171L237.67,50.205L239.06,50.438L240.45,49.403L241.84,50.762L243.23,48.189L244.62,48.075L246.01,49.094L247.4,49.088L248.79,48.729L250.18,48.434L251.57,49.961L252.96,47.862L254.35,48.388L255.74,48.796L257.13,48.092L258.52,47.73L259.91,47.975L261.3,47.497L262.69,47.517L264.08,47.788L265.47,48.215L266.86,47.564L268.25,47.704L269.64,48.199L271.03,48.095L272.42,47.517L273.81,47.548L275.2,47.346L276.59,47.066L277.98,47.199L279.37,47.992L280.76,47.952L282.15,47.265L283.54,47.571L284.93,47.642L286.32,47.297L287.71,47.31L289.1,47.29L290.49,46.905L291.88,46.767L293.27,46.85L294.66,47.058L296.05,47.038L297.44,47.092L298.83,46.976L300.22,46.796L301.61,46.669L303,46.622L304.39,46.479L305.78,46.515L307.17,46.495L308.56,46.589L309.95,46.664L311.34,46.608L312.73,46.653L314.12,46.302L315.51,46.331L316.9,46.41L318.29,46.213L319.68,46.245L321.07,46.281L322.46,46.298L323.85,46.207L325.24,46.305L326.63,46.219L328.02,46.291L329.41,46.139L330.8,46.062L332.19,46.014L333.58,46.042L334.97,45.98L336.36,45.996L337.75,46.023L339.14,46.081L340.53,45.92L341.92,45.907L343.31,45.936L344.7,45.971L346.09,45.846L347.48,45.874L348.87,45.922L350.26,45.894L351.65,45.774L353.04,45.832L354.43,45.761L355.82,45.703L357.21,45.754L358.6,45.725L359.99,45.706L361.38,45.603L362.77,45.665L364.16,45.542L365.55,45.581L366.94,45.662L368.33,45.579L369.72,45.589L371.11,45.558L372.5,45.57L373.89,45.538L375.28,45.516L376.67,45.512L378.06,45.531L379.45,45.502L380.84,45.523L382.23,45.499L383.62,45.492L385.01,45.457L386.4,45.474L387.79,45.455L389.18,45.444L390.57,45.447L391.96,45.431L393.35,45.393L394.74,45.419L396.13,45.455L397.52,45.374L398.91,45.392L400.3,45.396L401.69,45.371L403.08,45.366L404.47,45.382L405.86,45.354L407.25,45.34L408.64,45.354L410.03,45.329L411.42,45.327L412.81,45.319L414.2,45.327L415.59,45.344L416.98,45.329L418.37,45.306L419.76,45.301L421.15,45.299L422.54,45.283L423.93,45.305L425.32,45.293L426.71,45.274L428.1,45.267L429.49,45.266L430.88,45.272L432.27,45.259L433.66,45.27L435.05,45.263L436.44,45.247L437.83,45.251L439.22,45.231L440.61,45.259L442,45.238L443.39,45.227L444.78,45.208L446.17,45.238L447.56,45.23L448.95,45.231L450.34,45.231L451.73,45.206L453.12,45.238L454.51,45.224L455.9,45.227L457.29,45.206L458.68,45.206L460.07,45.215L461.46,45.232L462.85,45.205L464.24,45.209L465.63,45.203L467.02,45.192L468.41,45.199L469.8,45.209L471.19,45.196L472.58,45.188L473.97,45.205L475.36,45.182L476.75,45.206L478.14,45.182L479.53,45.209L480.92,45.177L482.31,45.19L483.7,45.193L485.09,45.177L486.48,45.175L487.87,45.186L489.26,45.183L490.65,45.173L492.04,45.176L493.43,45.172L494.82,45.185L496.21,45.173L497.6,45.179L498.99,45.172L500.38,45.17L501.77,45.179L503.16,45.17L504.55,45.172L505.94,45.176L507.33,45.172L508.72,45.167L510.11,45.166L511.5,45.162L512.89,45.173L514.28,45.169L515.67,45.159L517.06,45.169L518.45,45.159L519.84,45.166L521.23,45.164L522.62,45.164L524.01,45.163L525.4,45.166L526.79,45.16L528.18,45.159L529.57,45.16L530.96,45.162L532.35,45.166L533.74,45.157L535.13,45.151L536.52,45.157L537.91,45.16L539.3,45.159L540.69,45.159L542.08,45.151L543.47,45.154L544.86,45.156L546.25,45.154L547.64,45.151L549.03,45.157L550.42,45.153L551.81,45.159L553.2,45.157L554.59,45.154L555.98,45.151L557.37,45.154L558.76,45.159L560.15,45.154L561.54,45.156L562.93,45.159L564.32,45.153L565.71,45.151L567.1,45.159L568.49,45.157L569.88,45.156L571.27,45.154L572.66,45.151L574.05,45.151L575.44,45.151L576.83,45.151L578.22,45.154L579.61,45.151L582.39,45.154L583.78,45.151L585.17,45.151L589.34,45.153L590.73,45.151L594.9,45.151L597.68,45.153L599.07,45.151L601.85,45.153L603.24,45.151L607.41,45.153L608.8,45.151L611.58,45.151L612.97,45.153L615.75,45.151L629.65,45.151L632.43,45.151L633.82,45.151L637.99,45.151L640.77,45.151L642.16,45.151L657.45,45.151L658.84,45.151L663.01,45.151L667.18,45.151L669.96,45.151L676.91,45.151L678.3,45.151L718.61,45.151L720,45.151" style="fill:none;stroke:#0000FF" />
</g>
</svg>
