<?xml version="1.0"?>
<!-- Generated by SVGo and Plotinum VG -->
<svg width="720pt" height="432pt" viewBox="0 0 720 432"
	xmlns="http://www.w3.org/2000/svg"
	xmlns:xlink="http://www.w3.org/1999/xlink">
<g transform="scale(1, -1) translate(0, -432)">
<path d="M0,0L720,0L720,432L0,432Z" style="fill:#FFFFFF" />
<text x="358.5" y="-420.45" transform="scale(1, -1)"
	style="font-family:Times;font-weight:normal;font-style:normal;font-size:12px"> </text>
<text x="378.21" y="-3.8613" transform="scale(1, -1)"
	style="font-family:Times;font-weight:normal;font-style:normal;font-size:12px">Costs</text>
<text x="56.555" y="-18.634" transform="scale(1, -1)"
	style="font-family:Times;font-weight:normal;font-style:normal;font-size:10px">0.00</text>
<text x="372.03" y="-18.634" transform="scale(1, -1)"
	style="font-family:Times;font-weight:normal;font-style:normal;font-size:10px">250.00</text>
<text x="692.5" y="-18.634" transform="scale(1, -1)"
	style="font-family:Times;font-weight:normal;font-style:normal;font-size:10px">500.00</text>
<path d="M65.305,28.263L65.305,36.263" style="fill:none;stroke:#000000;stroke-width:0.5" />
<path d="M385.78,28.263L385.78,36.263" style="fill:none;stroke:#000000;stroke-width:0.5" />
<path d="M706.25,28.263L706.25,36.263" style="fill:none;stroke:#000000;stroke-width:0.5" />
<path d="M129.4,32.263L129.4,36.263" style="fill:none;stroke:#000000;stroke-width:0.5" />
<path d="M193.49,32.263L193.49,36.263" style="fill:none;stroke:#000000;stroke-width:0.5" />
<path d="M257.59,32.263L257.59,36.263" style="fill:none;stroke:#000000;stroke-width:0.5" />
<path d="M321.68,32.263L321.68,36.263" style="fill:none;stroke:#000000;stroke-width:0.5" />
<path d="M449.87,32.263L449.87,36.263" style="fill:none;stroke:#000000;stroke-width:0.5" />
<path d="M513.97,32.263L513.97,36.263" style="fill:none;stroke:#000000;stroke-width:0.5" />
<path d="M578.06,32.263L578.06,36.263" style="fill:none;stroke:#000000;stroke-width:0.5" />
<path d="M642.16,32.263L642.16,36.263" style="fill:none;stroke:#000000;stroke-width:0.5" />
<path d="M65.305,36.263L717.79,36.263" style="fill:none;stroke:#000000;stroke-width:0.5" />
<g transform="rotate(90)">
<text x="150.8" y="11.555" transform="scale(1, -1)"
	style="font-family:Times;font-weight:normal;font-style:normal;font-size:12px">Number of trials (1000000 total)</text>
</g>
<text x="24.055" y="-94.088" transform="scale(1, -1)"
	style="font-family:Times;font-weight:normal;font-style:normal;font-size:10px">20000</text>
<text x="24.055" y="-250.52" transform="scale(1, -1)"
	style="font-family:Times;font-weight:normal;font-style:normal;font-size:10px">80000</text>
<text x="19.055" y="-406.96" transform="scale(1, -1)"
	style="font-family:Times;font-weight:normal;font-style:normal;font-size:10px">140000</text>
<path d="M51.555,97.293L59.555,97.293" style="fill:none;stroke:#000000;stroke-width:0.5" />
<path d="M51.555,253.73L59.555,253.73" style="fill:none;stroke:#000000;stroke-width:0.5" />
<path d="M51.555,410.16L59.555,410.16" style="fill:none;stroke:#000000;stroke-width:0.5" />
<path d="M55.555,175.51L59.555,175.51" style="fill:none;stroke:#000000;stroke-width:0.5" />
<path d="M55.555,331.94L59.555,331.94" style="fill:none;stroke:#000000;stroke-width:0.5" />
<path d="M59.555,45.151L59.555,413.07" style="fill:none;stroke:#000000;stroke-width:0.5" />
<path d="M65.305,413.07L93.506,51.815L96.07,51.818L98.634,80.172L99.916,58.816L101.2,55.672L103.76,59.71L105.04,88.207L106.33,52.12L107.61,80.85L108.89,73.625L110.17,69.146L111.45,80.719L112.73,51.988L114.02,48.812L115.3,55.664L116.58,81.34L117.86,74.092L119.14,55.593L120.43,73.604L121.71,66.296L122.99,59.882L124.27,51.868L126.84,53.674L128.12,73.682L129.4,100.85L130.68,70.337L131.96,46.116L133.24,83.574L134.53,57.822L135.81,50.116L137.09,64.255L138.37,61.838L139.65,74.352L140.94,79.856L142.22,53.706L143.5,68.781L144.78,60.5L146.06,60.912L147.35,52.574L148.63,52.358L149.91,55.309L151.19,57.676L152.47,53.461L153.76,55.132L155.04,55.406L156.32,67.667L157.6,55.283L158.88,58.151L160.16,61.825L161.45,59.494L162.73,63.386L164.01,64.234L165.29,55.458L166.57,58.837L167.86,63.556L169.14,65.107L170.42,58.915L171.7,61.66L172.98,67.905L174.27,64.643L175.55,63.378L176.83,60.894L178.11,57.817L179.39,64.354L180.67,64.221L181.96,61.759L183.24,63.016L184.52,64.878L185.8,64.009L187.08,59.76L188.37,58.284L189.65,58.907L190.93,58.55L192.21,62.56L193.49,59.066L194.78,60.075L196.06,60.341L197.34,60.607L198.62,59.421L199.9,55.828L201.19,57.614L202.47,59.713L203.75,59.137L205.03,59.353L206.31,57.296L207.59,59.538L208.88,59.838L210.16,56.274L211.44,57.254L212.72,56.913L214,56.621L215.29,57.622L216.57,54.73L217.85,55.781L219.13,57.317L220.41,56.946L221.7,55.669L222.98,54.897L224.26,56.488L225.54,55.439L226.82,55.161L228.1,55.458L229.39,54.819L230.67,55.234L231.95,56.381L233.23,54.866L234.51,54.97L235.8,55.393L237.08,55.726L238.36,55.001L239.64,54.574L240.92,54.668L242.21,54.801L243.49,54.563L244.77,54.17L246.05,53.846L247.33,54.298L248.62,54.655L249.9,53.904L251.18,53.998L252.46,53.463L253.74,53.236L255.02,53.257L256.31,52.775L257.59,52.77L258.87,52.585L260.15,52.952L261.43,52.384L262.72,51.943L264,52.509L265.28,51.901L266.56,52.003L267.84,51.675L269.13,51.45L270.41,51.625L271.69,51.583L272.97,51.336L274.25,51.195L275.53,51.153L276.82,51.198L278.1,50.83L279.38,50.992L280.66,50.616L281.94,50.527L283.23,50.825L284.51,50.277L285.79,50.311L287.07,50.415L288.35,50.329L289.64,50.022L290.92,49.698L292.2,49.816L293.48,49.644L294.76,49.573L296.04,49.662L297.33,49.581L298.61,49.357L299.89,49.38L301.17,49.396L302.45,49.315L303.74,49.273L305.02,49.133L306.3,49.216L307.58,48.874L308.86,48.851L310.15,48.752L311.43,48.666L312.71,48.71L313.99,48.635L315.27,48.387L316.56,48.358L317.84,48.236L319.12,48.207L320.4,47.894L321.68,48.147L322.96,48.032L324.25,47.996L325.53,48.074L326.81,47.806L328.09,48.022L329.37,47.662L330.66,47.665L331.94,47.68L333.22,47.727L334.5,47.594L335.78,47.56L337.07,47.433L338.35,47.521L339.63,47.3L340.91,47.164L342.19,47.391L343.47,47.036L344.76,47.138L346.04,46.979L347.32,46.95L348.6,46.969L349.88,46.911L351.17,46.927L352.45,46.851L353.73,46.823L355.01,46.828L356.29,46.734L357.58,46.737L358.86,46.658L360.14,46.729L361.42,46.609L362.7,46.523L363.99,46.58L365.27,46.557L366.55,46.505L367.83,46.473L369.11,46.408L370.39,46.359L371.68,46.257L372.96,46.348L374.24,46.272L375.52,46.223L376.8,46.228L378.09,46.166L379.37,46.239L380.65,46.155L381.93,46.067L383.21,46.158L384.5,46.059L385.78,46.02L387.06,46.035L388.34,46.007L389.62,45.978L390.9,45.98L392.19,45.957L393.47,45.92L394.75,45.894L396.03,45.785L397.31,45.9L398.6,45.876L399.88,45.855L401.16,45.733L402.44,45.876L403.72,45.793L405.01,45.743L406.29,45.73L407.57,45.741L408.85,45.73L410.13,45.668L411.42,45.662L412.7,45.725L413.98,45.652L415.26,45.636L416.54,45.66L417.82,45.608L419.11,45.584L420.39,45.548L421.67,45.605L422.95,45.55L424.23,45.571L425.52,45.514L426.8,45.537L428.08,45.477L429.36,45.522L430.64,45.43L431.93,45.464L433.21,45.49L434.49,45.436L435.77,45.462L437.05,45.428L438.33,45.451L439.62,45.436L440.9,45.443L442.18,45.449L443.46,45.389L444.74,45.378L446.03,45.378L447.31,45.352L448.59,45.37L449.87,45.373L451.15,45.386L452.44,45.347L453.72,45.35L455,45.386L456.28,45.381L457.56,45.342L458.85,45.295L460.13,45.331L461.41,45.284L462.69,45.329L463.97,45.336L465.25,45.352L466.54,45.282L467.82,45.248L469.1,45.248L470.38,45.321L471.66,45.282L472.95,45.263L474.23,45.266L475.51,45.245L476.79,45.245L478.07,45.258L479.36,45.245L480.64,45.245L481.92,45.271L483.2,45.248L484.48,45.222L485.76,45.232L487.05,45.235L488.33,45.227L489.61,45.206L490.89,45.214L492.17,45.217L493.46,45.209L494.74,45.24L496.02,45.224L497.3,45.188L498.58,45.214L499.87,45.204L501.15,45.209L502.43,45.206L503.71,45.209L504.99,45.222L506.28,45.198L507.56,45.204L508.84,45.201L510.12,45.204L511.4,45.198L512.68,45.227L513.97,45.188L515.25,45.177L516.53,45.183L517.81,45.175L519.09,45.177L520.38,45.183L521.66,45.17L522.94,45.177L524.22,45.18L525.5,45.17L526.79,45.18L528.07,45.183L529.35,45.175L530.63,45.172L531.91,45.172L533.19,45.175L534.48,45.167L535.76,45.183L537.04,45.162L538.32,45.167L539.6,45.17L540.89,45.162L542.17,45.159L543.45,45.167L544.73,45.172L546.01,45.17L547.3,45.17L548.58,45.164L549.86,45.159L551.14,45.157L552.42,45.162L553.71,45.162L554.99,45.162L556.27,45.151L557.55,45.162L558.83,45.177L560.11,45.162L561.4,45.162L562.68,45.17L563.96,45.164L565.24,45.172L566.52,45.17L567.81,45.154L569.09,45.162L570.37,45.154L571.65,45.157L572.93,45.162L574.22,45.159L575.5,45.164L576.78,45.162L578.06,45.151L579.34,45.151L580.62,45.159L581.91,45.151L584.47,45.151L585.75,45.154L587.03,45.154L588.32,45.151L589.6,45.159L590.88,45.154L592.16,45.157L593.44,45.154L594.73,45.154L596.01,45.154L597.29,45.151L598.57,45.154L601.13,45.154L602.42,45.151L604.98,45.154L606.26,45.154L608.83,45.154L610.11,45.151L612.67,45.151L613.95,45.154L616.52,45.151L617.8,45.157L620.36,45.154L621.65,45.151L622.93,45.151L628.05,45.154L629.34,45.151L631.9,45.151L633.18,45.151L635.75,45.151L637.03,45.151L642.16,45.151L646,45.151L648.56,45.151L649.85,45.151L658.82,45.151L662.67,45.151L671.64,45.151L672.92,45.154L675.48,45.151L680.61,45.151L688.3,45.151L717.79,45.151" style="fill:none;stroke:#0000FF" />
</g>
</svg>
