<?xml version="1.0"?>
<!-- Generated by SVGo and Plotinum VG -->
<svg width="720pt" height="432pt" viewBox="0 0 720 432"
	xmlns="http://www.w3.org/2000/svg"
	xmlns:xlink="http://www.w3.org/1999/xlink">
<g transform="scale(1, -1) translate(0, -432)">
<path d="M0,0L720,0L720,432L0,432Z" style="fill:#FFFFFF" />
<text x="358.5" y="-420.45" transform="scale(1, -1)"
	style="font-family:Times;font-weight:normal;font-style:normal;font-size:12px"> </text>
<text x="379.31" y="-3.8613" transform="scale(1, -1)"
	style="font-family:Times;font-weight:normal;font-style:normal;font-size:12px">Costs</text>
<text x="62.805" y="-18.634" transform="scale(1, -1)"
	style="font-family:Times;font-weight:normal;font-style:normal;font-size:10px">0</text>
<text x="322.33" y="-18.634" transform="scale(1, -1)"
	style="font-family:Times;font-weight:normal;font-style:normal;font-size:10px">200</text>
<text x="586.85" y="-18.634" transform="scale(1, -1)"
	style="font-family:Times;font-weight:normal;font-style:normal;font-size:10px">400</text>
<path d="M65.305,28.263L65.305,36.263" style="fill:none;stroke:#000000;stroke-width:0.5" />
<path d="M329.83,28.263L329.83,36.263" style="fill:none;stroke:#000000;stroke-width:0.5" />
<path d="M594.35,28.263L594.35,36.263" style="fill:none;stroke:#000000;stroke-width:0.5" />
<path d="M197.57,32.263L197.57,36.263" style="fill:none;stroke:#000000;stroke-width:0.5" />
<path d="M462.09,32.263L462.09,36.263" style="fill:none;stroke:#000000;stroke-width:0.5" />
<path d="M65.305,36.263L720,36.263" style="fill:none;stroke:#000000;stroke-width:0.5" />
<g transform="rotate(90)">
<text x="152.55" y="11.555" transform="scale(1, -1)"
	style="font-family:Times;font-weight:normal;font-style:normal;font-size:12px">Number of trials (1000000 total)</text>
</g>
<text x="24.055" y="-89.616" transform="scale(1, -1)"
	style="font-family:Times;font-weight:normal;font-style:normal;font-size:10px">20000</text>
<text x="24.055" y="-232.63" transform="scale(1, -1)"
	style="font-family:Times;font-weight:normal;font-style:normal;font-size:10px">80000</text>
<text x="19.055" y="-375.65" transform="scale(1, -1)"
	style="font-family:Times;font-weight:normal;font-style:normal;font-size:10px">140000</text>
<path d="M51.555,92.821L59.555,92.821" style="fill:none;stroke:#000000;stroke-width:0.5" />
<path d="M51.555,235.84L59.555,235.84" style="fill:none;stroke:#000000;stroke-width:0.5" />
<path d="M51.555,378.85L59.555,378.85" style="fill:none;stroke:#000000;stroke-width:0.5" />
<path d="M55.555,164.33L59.555,164.33" style="fill:none;stroke:#000000;stroke-width:0.5" />
<path d="M55.555,307.35L59.555,307.35" style="fill:none;stroke:#000000;stroke-width:0.5" />
<path d="M59.555,45.151L59.555,416.58" style="fill:none;stroke:#000000;stroke-width:0.5" />
<path d="M65.305,416.58L94.402,48.446L97.047,60.499L99.693,61.129L101.02,48.708L102.34,76.908L103.66,88.645L104.98,52.431L106.31,58.855L107.63,73.152L108.95,78.829L110.27,94.335L111.6,95.05L114.24,61.396L115.56,71.938L116.89,63.887L118.21,78.884L119.53,71.519L122.18,80.91L123.5,73.914L124.82,48.472L126.15,59.074L128.79,45.297L130.11,60.33L131.44,46.038L132.76,60.976L134.08,46.558L135.4,69.412L136.73,46.715L138.05,47.816L139.37,95.05L140.69,64.897L142.02,65.238L143.34,54.343L144.66,51.854L145.98,61.422L147.31,71.454L148.63,74.811L149.95,55.251L151.27,53.93L152.6,56.833L153.92,60.366L155.24,59.339L156.57,61.293L157.89,56.795L159.21,55.627L160.53,62.909L161.86,71.502L163.18,61.11L164.5,60.933L165.82,55.294L167.15,58.514L168.47,60.783L169.79,56.643L171.11,80.574L172.44,75.716L173.76,56.404L175.08,55.475L176.4,60.29L177.73,59.358L179.05,56.695L180.37,58.769L181.69,56.421L183.02,57.375L184.34,61.095L185.66,62.173L186.99,57.231L188.31,55.83L189.63,57.174L190.95,57.251L192.28,61.276L193.6,59.999L194.92,53.859L196.24,56.559L197.57,57.279L198.89,56.423L200.21,58.483L201.53,54.202L202.86,54.791L204.18,55.418L205.5,56.826L206.82,57.794L208.15,55.651L209.47,59.722L210.79,54.648L212.12,53.964L213.44,56.705L214.76,58.078L216.08,59.756L217.41,59.329L218.73,56.068L220.05,54.338L221.37,56.302L222.7,57.777L224.02,56.059L225.34,55.72L226.66,53.248L227.99,54.362L229.31,56.097L230.63,54.495L231.95,53.47L233.28,52.019L234.6,51.799L235.92,54.262L237.24,53.403L238.57,53.368L239.89,52.109L241.21,52.686L242.54,52.779L243.86,52.057L245.18,55.277L246.5,54.569L247.83,53.058L249.15,52.081L250.47,51.945L251.79,52.014L253.12,52.915L254.44,53.556L255.76,51.907L257.08,51.118L258.41,51.237L259.73,51.716L261.05,51.537L262.37,51.318L263.7,51.132L265.02,50.708L266.34,51.091L267.67,52.128L268.99,51.415L270.31,50.641L271.63,50.097L272.96,50.376L274.28,50.815L275.6,50.186L276.92,49.93L278.25,50.801L279.57,49.773L280.89,49.821L282.21,50.054L283.54,49.737L284.86,49.47L286.18,49.466L287.5,49.482L288.83,49.437L290.15,49.704L291.47,49.671L292.79,49.342L294.12,48.875L295.44,48.999L296.76,48.944L298.09,49.432L299.41,49.285L300.73,48.629L302.05,48.429L303.38,48.674L304.7,48.653L306.02,48.648L307.34,48.102L308.67,47.909L309.99,48.047L311.31,48.422L312.63,48.376L313.96,48.019L315.28,47.957L316.6,47.804L317.92,47.747L319.25,47.745L320.57,47.931L321.89,47.761L323.21,47.702L324.54,47.48L325.86,47.38L327.18,47.428L328.51,47.478L329.83,47.371L331.15,47.34L332.47,47.213L333.8,47.168L335.12,47.101L336.44,47.261L337.76,47.154L339.09,46.884L340.41,46.922L341.73,46.841L343.05,47.051L344.38,46.856L345.7,46.736L347.02,46.736L348.34,46.722L349.67,46.679L350.99,46.777L352.31,46.684L353.64,46.567L354.96,46.493L356.28,46.503L357.6,46.484L358.93,46.443L360.25,46.481L361.57,46.439L362.89,46.248L364.22,46.415L365.54,46.355L366.86,46.319L368.18,46.195L369.51,46.183L370.83,46.04L372.15,46.079L373.47,46.253L374.8,46.15L376.12,45.962L377.44,46.04L378.76,45.978L380.09,45.952L381.41,45.905L382.73,45.931L384.06,45.919L385.38,45.938L386.7,45.843L388.02,45.855L389.35,45.909L390.67,45.809L391.99,45.785L393.31,45.723L394.64,45.709L395.96,45.8L397.28,45.766L398.6,45.704L399.93,45.685L401.25,45.676L402.57,45.64L403.89,45.731L405.22,45.607L406.54,45.647L407.86,45.619L409.19,45.545L410.51,45.602L411.83,45.614L413.15,45.514L414.48,45.604L415.8,45.518L417.12,45.557L418.44,45.487L419.77,45.471L421.09,45.495L422.41,45.497L423.73,45.514L425.06,45.454L426.38,45.464L427.7,45.459L429.02,45.473L430.35,45.43L431.67,45.447L432.99,45.44L434.31,45.43L435.64,45.461L436.96,45.39L438.28,45.38L439.61,45.423L440.93,45.404L442.25,45.344L443.57,45.333L444.9,45.361L446.22,45.318L447.54,45.38L448.86,45.309L450.19,45.318L451.51,45.304L452.83,45.306L454.15,45.313L455.48,45.323L456.8,45.297L458.12,45.304L459.44,45.28L460.77,45.273L462.09,45.285L463.41,45.285L464.73,45.259L466.06,45.271L467.38,45.263L468.7,45.263L470.03,45.254L471.35,45.263L472.67,45.263L473.99,45.256L475.32,45.244L476.64,45.24L477.96,45.223L479.28,45.249L480.61,45.251L481.93,45.232L483.25,45.218L484.57,45.228L485.9,45.225L487.22,45.235L488.54,45.216L489.86,45.216L491.19,45.209L492.51,45.206L493.83,45.211L495.16,45.213L496.48,45.206L497.8,45.201L499.12,45.209L500.45,45.197L501.77,45.194L503.09,45.211L504.41,45.192L505.74,45.187L507.06,45.187L508.38,45.185L509.7,45.182L511.03,45.182L512.35,45.206L513.67,45.19L514.99,45.201L516.32,45.182L517.64,45.185L518.96,45.173L520.28,45.187L521.61,45.175L522.93,45.18L524.25,45.182L525.58,45.192L526.9,45.175L528.22,45.17L529.54,45.173L530.87,45.175L532.19,45.18L533.51,45.161L534.83,45.161L536.16,45.163L537.48,45.161L538.8,45.175L540.12,45.156L541.45,45.178L542.77,45.173L544.09,45.154L545.41,45.173L546.74,45.178L548.06,45.168L549.38,45.166L550.71,45.154L552.03,45.161L553.35,45.161L554.67,45.163L556,45.156L557.32,45.166L558.64,45.151L559.96,45.161L561.29,45.156L562.61,45.163L563.93,45.151L565.25,45.156L566.58,45.154L567.9,45.154L569.22,45.156L573.19,45.156L574.51,45.151L575.83,45.156L577.16,45.161L578.48,45.161L582.45,45.154L583.77,45.156L585.09,45.151L586.42,45.156L589.06,45.159L590.38,45.151L591.71,45.156L594.35,45.154L595.67,45.154L597,45.151L599.64,45.156L600.96,45.156L602.29,45.151L603.61,45.154L604.93,45.151L607.58,45.154L608.9,45.154L610.22,45.151L611.55,45.151L614.19,45.154L616.84,45.151L619.48,45.151L623.45,45.151L624.77,45.151L626.09,45.151L631.38,45.151L634.03,45.154L639.32,45.151L641.97,45.151L648.58,45.151L655.19,45.151L664.45,45.151L665.77,45.151L676.35,45.151L686.93,45.151L710.74,45.151L720,45.151" style="fill:none;stroke:#0000FF" />
</g>
</svg>
