<?xml version="1.0"?>
<!-- Generated by SVGo and Plotinum VG -->
<svg width="720pt" height="432pt" viewBox="0 0 720 432"
	xmlns="http://www.w3.org/2000/svg"
	xmlns:xlink="http://www.w3.org/1999/xlink">
<g transform="scale(1, -1) translate(0, -432)">
<path d="M0,0L720,0L720,432L0,432Z" style="fill:#FFFFFF" />
<text x="358.5" y="-420.45" transform="scale(1, -1)"
	style="font-family:Times;font-weight:normal;font-style:normal;font-size:12px"> </text>
<text x="379.31" y="-3.8613" transform="scale(1, -1)"
	style="font-family:Times;font-weight:normal;font-style:normal;font-size:12px">Costs</text>
<text x="56.555" y="-18.634" transform="scale(1, -1)"
	style="font-family:Times;font-weight:normal;font-style:normal;font-size:10px">0.00</text>
<text x="340.73" y="-18.634" transform="scale(1, -1)"
	style="font-family:Times;font-weight:normal;font-style:normal;font-size:10px">250.00</text>
<text x="629.91" y="-18.634" transform="scale(1, -1)"
	style="font-family:Times;font-weight:normal;font-style:normal;font-size:10px">500.00</text>
<path d="M65.305,28.263L65.305,36.263" style="fill:none;stroke:#000000;stroke-width:0.5" />
<path d="M354.48,28.263L354.48,36.263" style="fill:none;stroke:#000000;stroke-width:0.5" />
<path d="M643.66,28.263L643.66,36.263" style="fill:none;stroke:#000000;stroke-width:0.5" />
<path d="M123.14,32.263L123.14,36.263" style="fill:none;stroke:#000000;stroke-width:0.5" />
<path d="M180.98,32.263L180.98,36.263" style="fill:none;stroke:#000000;stroke-width:0.5" />
<path d="M238.81,32.263L238.81,36.263" style="fill:none;stroke:#000000;stroke-width:0.5" />
<path d="M296.65,32.263L296.65,36.263" style="fill:none;stroke:#000000;stroke-width:0.5" />
<path d="M412.32,32.263L412.32,36.263" style="fill:none;stroke:#000000;stroke-width:0.5" />
<path d="M470.15,32.263L470.15,36.263" style="fill:none;stroke:#000000;stroke-width:0.5" />
<path d="M527.99,32.263L527.99,36.263" style="fill:none;stroke:#000000;stroke-width:0.5" />
<path d="M585.82,32.263L585.82,36.263" style="fill:none;stroke:#000000;stroke-width:0.5" />
<path d="M701.49,32.263L701.49,36.263" style="fill:none;stroke:#000000;stroke-width:0.5" />
<path d="M65.305,36.263L720,36.263" style="fill:none;stroke:#000000;stroke-width:0.5" />
<g transform="rotate(90)">
<text x="152.55" y="11.555" transform="scale(1, -1)"
	style="font-family:Times;font-weight:normal;font-style:normal;font-size:12px">Number of trials (1000000 total)</text>
</g>
<text x="24.055" y="-107.08" transform="scale(1, -1)"
	style="font-family:Times;font-weight:normal;font-style:normal;font-size:10px">20000</text>
<text x="24.055" y="-237.37" transform="scale(1, -1)"
	style="font-family:Times;font-weight:normal;font-style:normal;font-size:10px">60000</text>
<text x="19.055" y="-367.65" transform="scale(1, -1)"
	style="font-family:Times;font-weight:normal;font-style:normal;font-size:10px">100000</text>
<path d="M51.555,110.29L59.555,110.29" style="fill:none;stroke:#000000;stroke-width:0.5" />
<path d="M51.555,240.57L59.555,240.57" style="fill:none;stroke:#000000;stroke-width:0.5" />
<path d="M51.555,370.86L59.555,370.86" style="fill:none;stroke:#000000;stroke-width:0.5" />
<path d="M55.555,77.719L59.555,77.719" style="fill:none;stroke:#000000;stroke-width:0.5" />
<path d="M55.555,142.86L59.555,142.86" style="fill:none;stroke:#000000;stroke-width:0.5" />
<path d="M55.555,175.43L59.555,175.43" style="fill:none;stroke:#000000;stroke-width:0.5" />
<path d="M55.555,208L59.555,208" style="fill:none;stroke:#000000;stroke-width:0.5" />
<path d="M55.555,273.14L59.555,273.14" style="fill:none;stroke:#000000;stroke-width:0.5" />
<path d="M55.555,305.72L59.555,305.72" style="fill:none;stroke:#000000;stroke-width:0.5" />
<path d="M55.555,338.29L59.555,338.29" style="fill:none;stroke:#000000;stroke-width:0.5" />
<path d="M55.555,403.43L59.555,403.43" style="fill:none;stroke:#000000;stroke-width:0.5" />
<path d="M59.555,45.151L59.555,416.58" style="fill:none;stroke:#000000;stroke-width:0.5" />
<path d="M65.305,416.58L93.066,48.627L95.379,78.612L96.536,71.553L97.692,62.691L98.849,55.623L101.16,83.005L102.32,62.499L104.63,107.14L105.79,59.082L106.95,55.284L109.26,59.453L110.42,59.202L111.57,61.893L112.73,74.592L113.89,84.377L115.04,83.526L116.2,131.82L117.36,65.534L118.51,78.866L121.98,93.516L123.14,73.697L124.3,59.297L125.45,45.757L126.61,68.287L127.77,64.616L128.92,47.633L130.08,99.708L131.24,62.561L132.39,49.816L133.55,91.119L134.71,52.766L135.86,61.264L137.02,57.942L138.18,50.148L139.33,47.304L140.49,54.053L141.65,52.991L142.8,51.796L143.96,56.73L145.12,57.007L146.27,62.417L147.43,58.613L148.59,60.766L149.74,63.453L150.9,78.015L152.06,66.59L153.21,65.179L154.37,64.665L155.53,68.006L156.68,58.079L157.84,72.039L159,82.396L160.15,62.124L161.31,69.352L162.47,68.153L163.62,71.941L164.78,64.941L165.94,73.801L167.09,70.824L168.25,60.505L169.41,72.732L170.56,63.407L171.72,59.642L172.88,71.873L174.04,63.74L175.19,65.218L176.35,58.971L177.51,62.58L178.66,62.789L179.82,64.323L180.98,71.775L182.13,63.365L183.29,63.87L184.45,66.743L185.6,56.584L186.76,67.72L187.92,60.02L189.07,58.603L190.23,61.701L191.39,60.632L192.54,59.675L193.7,55.789L194.86,59.574L196.01,59.567L197.17,57.538L198.33,66.84L199.48,60.329L200.64,60.141L201.8,61.903L202.95,59.307L204.11,59.746L205.27,59.3L206.42,58.87L207.58,61.639L208.74,62.303L209.89,63.017L211.05,59.362L212.21,61.31L213.36,58.916L214.52,60.44L215.68,62.938L216.83,61.606L217.99,58.984L219.15,60.593L220.3,60.346L221.46,59.007L222.62,59.238L223.77,61.567L224.93,57.04L226.09,58.613L227.24,58.965L228.4,57.362L229.56,57.405L230.71,58.03L231.87,57.965L233.03,55.796L234.18,57.206L235.34,56.965L236.5,55.151L237.65,57.082L238.81,55.906L239.97,55.717L241.12,55.571L242.28,55.089L243.44,55.597L244.59,55.698L245.75,55.076L246.91,55.053L248.06,55.147L249.22,56.31L250.38,54.128L251.53,55.19L252.69,54.157L253.85,53.62L255,55.32L256.16,54.434L257.32,54.073L258.47,54.235L259.63,54.402L260.79,53.9L261.94,53.366L263.1,53.779L264.26,53.402L265.41,53.06L266.57,53.779L267.73,53.2L268.88,53.144L270.04,53.226L271.2,52.428L272.35,52.473L273.51,52.659L274.67,52.77L275.83,52.122L276.98,52.333L278.14,51.946L279.3,51.796L280.45,52.099L281.61,51.659L282.77,51.223L283.92,51.418L285.08,51.493L286.24,51.03L287.39,50.428L288.55,50.708L289.71,50.372L290.86,50.669L292.02,50.646L293.18,50.206L294.33,50.285L295.49,50.262L296.65,50.144L297.8,49.871L298.96,50.079L300.12,49.956L301.27,49.89L302.43,49.575L303.59,49.868L304.74,49.19L305.9,49.711L307.06,49.369L308.21,49.33L309.37,49.281L310.53,48.982L311.68,49.05L312.84,49.089L314,48.79L315.15,48.926L316.31,48.943L317.47,48.75L318.62,48.428L319.78,48.832L320.94,48.715L322.09,48.552L323.25,48.307L324.41,48.239L325.56,48.148L326.72,48.06L327.88,47.959L329.03,48.089L330.19,47.913L331.35,47.982L332.5,47.76L333.66,47.832L334.82,47.809L335.97,47.65L337.13,47.627L338.29,47.49L339.44,47.448L340.6,47.503L341.76,47.386L342.91,47.262L344.07,47.249L345.23,47.399L346.38,47.138L347.54,47.174L348.7,46.982L349.85,46.972L351.01,47.027L352.17,47.027L353.32,46.848L354.48,46.92L355.64,46.907L356.79,46.949L357.95,46.721L359.11,46.721L360.26,46.637L361.42,46.584L362.58,46.656L363.73,46.64L364.89,46.624L366.05,46.562L367.2,46.493L368.36,46.484L369.52,46.337L370.67,46.415L371.83,46.259L372.99,46.33L374.15,46.324L375.3,46.343L376.46,46.301L377.62,46.158L378.77,46.278L379.93,46.148L381.09,46.138L382.24,46.112L383.4,46.028L384.56,46.073L385.71,46.031L386.87,45.946L388.03,46.021L389.18,46.031L390.34,46.028L391.5,45.894L392.65,45.927L393.81,45.871L394.97,45.878L396.12,45.832L397.28,45.734L398.44,45.832L399.59,45.848L400.75,45.842L401.91,45.712L403.06,45.705L404.22,45.695L405.38,45.747L406.53,45.712L407.69,45.692L408.85,45.708L410,45.699L411.16,45.669L412.32,45.617L413.47,45.666L414.63,45.611L415.79,45.523L416.94,45.559L418.1,45.539L419.26,45.65L420.41,45.601L421.57,45.598L422.73,45.536L423.88,45.467L425.04,45.536L426.2,45.562L427.35,45.49L428.51,45.487L429.67,45.484L430.82,45.477L431.98,45.418L433.14,45.51L434.29,45.389L435.45,45.409L436.61,45.373L437.76,45.389L438.92,45.396L440.08,45.386L441.23,45.344L442.39,45.337L443.55,45.366L444.7,45.353L445.86,45.373L447.02,45.331L448.17,45.314L449.33,45.366L450.49,45.324L451.64,45.337L452.8,45.317L453.96,45.314L455.11,45.304L456.27,45.295L457.43,45.288L458.58,45.282L459.74,45.275L460.9,45.295L462.05,45.298L463.21,45.256L464.37,45.256L465.52,45.282L466.68,45.252L467.84,45.252L468.99,45.249L470.15,45.262L471.31,45.285L472.47,45.265L473.62,45.23L474.78,45.236L475.94,45.256L477.09,45.233L478.25,45.249L479.41,45.239L480.56,45.223L481.72,45.23L482.88,45.239L484.03,45.223L485.19,45.213L486.35,45.223L487.5,45.217L488.66,45.22L489.82,45.197L490.97,45.236L492.13,45.177L493.29,45.19L494.44,45.19L495.6,45.2L496.76,45.2L497.91,45.19L499.07,45.187L500.23,45.203L501.38,45.164L502.54,45.197L503.7,45.213L504.85,45.197L506.01,45.168L507.17,45.187L508.32,45.181L509.48,45.184L510.64,45.197L511.79,45.177L512.95,45.174L514.11,45.194L515.26,45.168L516.42,45.174L517.58,45.171L518.73,45.194L519.89,45.187L521.05,45.194L522.2,45.168L523.36,45.171L524.52,45.168L525.67,45.158L526.83,45.168L527.99,45.171L529.14,45.171L530.3,45.168L531.46,45.161L532.61,45.164L533.77,45.155L534.93,45.161L536.08,45.164L537.24,45.168L538.4,45.155L539.55,45.158L540.71,45.168L541.87,45.164L543.02,45.164L544.18,45.171L545.34,45.158L546.49,45.151L547.65,45.161L548.81,45.161L549.96,45.174L551.12,45.151L552.28,45.151L553.43,45.161L554.59,45.151L555.75,45.161L556.9,45.158L558.06,45.151L559.22,45.155L560.37,45.155L561.53,45.158L562.69,45.155L563.84,45.155L565,45.151L566.16,45.164L567.31,45.158L568.47,45.161L569.63,45.155L570.78,45.151L571.94,45.158L573.1,45.151L574.26,45.155L575.41,45.155L577.73,45.151L578.88,45.158L580.04,45.161L581.2,45.151L582.35,45.151L583.51,45.155L584.67,45.158L586.98,45.158L588.14,45.151L589.29,45.151L590.45,45.151L591.61,45.155L593.92,45.155L598.55,45.155L602.02,45.151L605.49,45.151L610.11,45.155L611.27,45.151L621.68,45.151L623.99,45.151L632.09,45.151L633.25,45.155L635.56,45.151L643.66,45.151L647.13,45.151L694.55,45.151L720,45.151" style="fill:none;stroke:#0000FF" />
</g>
</svg>
