<?xml version="1.0"?>
<!-- Generated by SVGo and Plotinum VG -->
<svg width="720pt" height="432pt" viewBox="0 0 720 432"
	xmlns="http://www.w3.org/2000/svg"
	xmlns:xlink="http://www.w3.org/1999/xlink">
<g transform="scale(1, -1) translate(0, -432)">
<path d="M0,0L720,0L720,432L0,432Z" style="fill:#FFFFFF" />
<text x="358.5" y="-420.45" transform="scale(1, -1)"
	style="font-family:Times;font-weight:normal;font-style:normal;font-size:12px"> </text>
<text x="379.31" y="-3.8613" transform="scale(1, -1)"
	style="font-family:Times;font-weight:normal;font-style:normal;font-size:12px">Costs</text>
<text x="56.555" y="-18.634" transform="scale(1, -1)"
	style="font-family:Times;font-weight:normal;font-style:normal;font-size:10px">0.00</text>
<text x="338.7" y="-18.634" transform="scale(1, -1)"
	style="font-family:Times;font-weight:normal;font-style:normal;font-size:10px">250.00</text>
<text x="625.85" y="-18.634" transform="scale(1, -1)"
	style="font-family:Times;font-weight:normal;font-style:normal;font-size:10px">500.00</text>
<path d="M65.305,28.263L65.305,36.263" style="fill:none;stroke:#000000;stroke-width:0.5" />
<path d="M352.45,28.263L352.45,36.263" style="fill:none;stroke:#000000;stroke-width:0.5" />
<path d="M639.6,28.263L639.6,36.263" style="fill:none;stroke:#000000;stroke-width:0.5" />
<path d="M122.73,32.263L122.73,36.263" style="fill:none;stroke:#000000;stroke-width:0.5" />
<path d="M180.16,32.263L180.16,36.263" style="fill:none;stroke:#000000;stroke-width:0.5" />
<path d="M237.59,32.263L237.59,36.263" style="fill:none;stroke:#000000;stroke-width:0.5" />
<path d="M295.02,32.263L295.02,36.263" style="fill:none;stroke:#000000;stroke-width:0.5" />
<path d="M409.88,32.263L409.88,36.263" style="fill:none;stroke:#000000;stroke-width:0.5" />
<path d="M467.31,32.263L467.31,36.263" style="fill:none;stroke:#000000;stroke-width:0.5" />
<path d="M524.74,32.263L524.74,36.263" style="fill:none;stroke:#000000;stroke-width:0.5" />
<path d="M582.17,32.263L582.17,36.263" style="fill:none;stroke:#000000;stroke-width:0.5" />
<path d="M697.03,32.263L697.03,36.263" style="fill:none;stroke:#000000;stroke-width:0.5" />
<path d="M65.305,36.263L720,36.263" style="fill:none;stroke:#000000;stroke-width:0.5" />
<g transform="rotate(90)">
<text x="152.55" y="11.555" transform="scale(1, -1)"
	style="font-family:Times;font-weight:normal;font-style:normal;font-size:12px">Number of trials (1000000 total)</text>
</g>
<text x="24.055" y="-103.95" transform="scale(1, -1)"
	style="font-family:Times;font-weight:normal;font-style:normal;font-size:10px">20000</text>
<text x="24.055" y="-227.96" transform="scale(1, -1)"
	style="font-family:Times;font-weight:normal;font-style:normal;font-size:10px">60000</text>
<text x="19.055" y="-351.97" transform="scale(1, -1)"
	style="font-family:Times;font-weight:normal;font-style:normal;font-size:10px">100000</text>
<path d="M51.555,107.15L59.555,107.15" style="fill:none;stroke:#000000;stroke-width:0.5" />
<path d="M51.555,231.17L59.555,231.17" style="fill:none;stroke:#000000;stroke-width:0.5" />
<path d="M51.555,355.18L59.555,355.18" style="fill:none;stroke:#000000;stroke-width:0.5" />
<path d="M55.555,76.151L59.555,76.151" style="fill:none;stroke:#000000;stroke-width:0.5" />
<path d="M55.555,138.16L59.555,138.16" style="fill:none;stroke:#000000;stroke-width:0.5" />
<path d="M55.555,169.16L59.555,169.16" style="fill:none;stroke:#000000;stroke-width:0.5" />
<path d="M55.555,200.16L59.555,200.16" style="fill:none;stroke:#000000;stroke-width:0.5" />
<path d="M55.555,262.17L59.555,262.17" style="fill:none;stroke:#000000;stroke-width:0.5" />
<path d="M55.555,293.17L59.555,293.17" style="fill:none;stroke:#000000;stroke-width:0.5" />
<path d="M55.555,324.17L59.555,324.17" style="fill:none;stroke:#000000;stroke-width:0.5" />
<path d="M55.555,386.18L59.555,386.18" style="fill:none;stroke:#000000;stroke-width:0.5" />
<path d="M59.555,45.151L59.555,416.58" style="fill:none;stroke:#000000;stroke-width:0.5" />
<path d="M65.305,416.58L90.574,55.212L92.871,52.279L95.168,90.794L96.317,51.739L97.465,69.743L98.614,48.447L100.91,48.438L102.06,51.95L103.21,52.158L104.36,73.832L105.51,107.42L106.65,66.357L107.8,55.559L108.95,62.609L110.1,101.27L111.25,55.32L112.4,95.785L113.55,72.967L114.69,73.051L115.84,83.195L116.99,51.901L118.14,62.656L120.44,53.454L121.59,77.481L122.73,50.065L123.88,59.078L125.03,46.308L126.18,94.908L127.33,80.281L128.48,52.868L129.63,59.992L130.77,57.794L131.92,57.553L133.07,61.366L134.22,60.767L135.37,98.656L136.52,61.908L137.67,57.215L138.81,50.351L139.96,54.973L141.11,51.346L142.26,95.878L143.41,54.052L144.56,58.222L145.71,58.746L146.85,55.618L148,55.528L149.15,66.422L150.3,59.726L151.45,61.13L152.6,62.246L153.75,67.433L154.89,60.209L156.04,65.641L157.19,68.493L158.34,68.785L159.49,62.057L160.64,64.262L161.79,62.609L162.93,64.035L164.08,58.151L165.23,66.264L166.38,68.146L167.53,64.978L168.68,61.397L169.83,58.762L170.97,64.758L172.12,67.442L173.27,64.085L174.42,69.765L175.57,66.472L176.72,65.706L177.87,60.808L179.01,61.818L180.16,64.2L181.31,60.783L182.46,70.484L183.61,63.012L184.76,59.748L185.91,61.006L187.06,61.127L188.2,61.254L189.35,61.846L190.5,59.72L191.65,61.164L192.8,60.789L193.95,59.397L195.1,57.856L196.24,62.234L197.39,62.014L198.54,61.961L199.69,58.173L200.84,58.548L201.99,57.435L203.14,62.612L204.28,61.155L205.43,59.841L206.58,59.18L207.73,58.12L208.88,56.827L210.03,58.7L211.18,57.915L212.32,61.921L213.47,58.3L214.62,58.455L215.77,57.171L216.92,57.022L218.07,57.103L219.22,59.459L220.36,57.413L221.51,58.089L222.66,57.742L223.81,57.956L224.96,56.489L226.11,58.191L227.26,57.472L228.4,57.49L229.55,56.418L230.7,56.889L231.85,55.553L233,56.666L234.15,56.049L235.3,56.557L236.44,55.919L237.59,55.835L238.74,55.32L239.89,54.917L241.04,55.001L242.19,55.116L243.34,55.41L244.48,55.454L245.63,54.471L246.78,54.663L247.93,54.254L249.08,54.319L250.23,54.393L251.38,54.4L252.52,54.015L253.67,54.018L254.82,53.476L255.97,53.221L257.12,53.29L258.27,53.104L259.42,53.683L260.56,53.104L261.71,52.728L262.86,53.163L264.01,52.453L265.16,52.592L266.31,52.325L267.46,52.155L268.6,52.158L269.75,52.074L270.9,51.541L272.05,51.544L273.2,52.124L274.35,51.842L275.5,51.405L276.64,51.144L277.79,51.076L278.94,51.095L280.09,51.036L281.24,50.769L282.39,51.15L283.54,50.856L284.69,50.862L285.83,50.506L286.98,50.763L288.13,50.267L289.28,50.378L290.43,50.099L291.58,50.025L292.73,50.152L293.87,49.926L295.02,49.647L296.17,49.882L297.32,49.721L298.47,49.755L299.62,49.464L300.77,49.448L301.91,49.374L303.06,49.346L304.21,49.324L305.36,49.303L306.51,48.779L307.66,48.918L308.81,48.791L309.95,48.897L311.1,48.8L312.25,48.676L313.4,48.726L314.55,48.506L315.7,48.41L316.85,48.475L317.99,48.379L319.14,48.199L320.29,48.137L321.44,48.249L322.59,48.084L323.74,47.939L324.89,47.926L326.03,47.774L327.18,47.697L328.33,47.957L329.48,47.622L330.63,47.582L331.78,47.694L332.93,47.483L334.07,47.47L335.22,47.449L336.37,47.563L337.52,47.244L338.67,47.278L339.82,47.272L340.97,47.064L342.11,47.176L343.26,47.145L344.41,47.219L345.56,47.151L346.71,46.962L347.86,46.999L349.01,46.909L350.15,46.739L351.3,46.987L352.45,46.844L353.6,46.751L354.75,46.677L355.9,46.649L357.05,46.627L358.19,46.643L359.34,46.599L360.49,46.488L361.64,46.515L362.79,46.453L363.94,46.317L365.09,46.531L366.23,46.497L367.38,46.292L368.53,46.24L369.68,46.271L370.83,46.255L371.98,46.298L373.13,46.196L374.27,46.249L375.42,46.178L376.57,46.081L377.72,46.14L378.87,46.187L380.02,46.05L381.17,46.029L382.32,46.026L383.46,46.109L384.61,45.954L385.76,45.936L386.91,45.899L388.06,45.936L389.21,45.948L390.36,45.895L391.5,45.942L392.65,45.908L393.8,45.796L394.95,45.806L396.1,45.781L397.25,45.843L398.4,45.815L399.54,45.7L400.69,45.694L401.84,45.675L402.99,45.61L404.14,45.703L405.29,45.713L406.44,45.678L407.58,45.644L408.73,45.644L409.88,45.595L411.03,45.601L412.18,45.582L413.33,45.542L414.48,45.604L415.62,45.592L416.77,45.551L417.92,45.523L419.07,45.53L420.22,45.548L421.37,45.536L422.52,45.52L423.66,45.477L424.81,45.486L425.96,45.461L427.11,45.427L428.26,45.458L429.41,45.505L430.56,45.406L431.7,45.424L432.85,45.412L434,45.399L435.15,45.362L436.3,45.427L437.45,45.396L438.6,45.443L439.74,45.378L440.89,45.406L442.04,45.334L443.19,45.306L444.34,45.365L445.49,45.322L446.64,45.334L447.78,45.313L448.93,45.337L450.08,45.309L451.23,45.328L452.38,45.291L453.53,45.328L454.68,45.313L455.82,45.288L456.97,45.309L458.12,45.278L459.27,45.254L460.42,45.257L461.57,45.294L462.72,45.291L463.86,45.285L465.01,45.275L466.16,45.254L467.31,45.254L468.46,45.241L469.61,45.235L470.76,45.257L471.9,45.254L473.05,45.223L474.2,45.226L475.35,45.26L476.5,45.226L477.65,45.254L478.8,45.238L479.95,45.229L481.09,45.263L482.24,45.235L483.39,45.22L484.54,45.226L485.69,45.213L486.84,45.229L487.99,45.216L489.13,45.207L490.28,45.198L491.43,45.216L492.58,45.198L493.73,45.195L494.88,45.21L496.03,45.201L497.17,45.204L498.32,45.216L499.47,45.189L500.62,45.195L501.77,45.192L502.92,45.185L504.07,45.207L505.21,45.173L506.36,45.185L507.51,45.17L508.66,45.17L509.81,45.185L510.96,45.182L512.11,45.176L513.25,45.182L514.4,45.189L515.55,45.17L516.7,45.17L517.85,45.182L519,45.176L520.15,45.164L521.29,45.161L522.44,45.164L523.59,45.167L524.74,45.182L525.89,45.185L527.04,45.154L528.19,45.176L529.33,45.17L530.48,45.167L531.63,45.158L532.78,45.179L533.93,45.167L535.08,45.167L536.23,45.164L537.37,45.167L538.52,45.154L539.67,45.164L540.82,45.164L541.97,45.167L543.12,45.158L544.27,45.167L545.41,45.161L546.56,45.164L547.71,45.158L548.86,45.158L550.01,45.151L551.16,45.154L552.31,45.154L553.45,45.154L554.6,45.158L555.75,45.158L556.9,45.164L558.05,45.158L559.2,45.151L560.35,45.161L561.49,45.164L562.64,45.164L563.79,45.151L564.94,45.158L566.09,45.158L567.24,45.158L568.39,45.158L569.53,45.154L572.98,45.151L574.13,45.158L576.43,45.154L577.58,45.158L581.02,45.151L582.17,45.154L584.47,45.154L586.76,45.154L587.91,45.151L589.06,45.154L590.21,45.154L591.36,45.154L593.66,45.151L594.8,45.151L601.7,45.154L603.99,45.151L605.14,45.151L606.29,45.154L607.44,45.151L610.88,45.154L613.18,45.151L615.48,45.151L622.37,45.151L639.6,45.151L641.9,45.151L649.94,45.151L670.61,45.151L720,45.151" style="fill:none;stroke:#0000FF" />
</g>
</svg>
