<?xml version="1.0"?>
<!-- Generated by SVGo and Plotinum VG -->
<svg width="720pt" height="432pt" viewBox="0 0 720 432"
	xmlns="http://www.w3.org/2000/svg"
	xmlns:xlink="http://www.w3.org/1999/xlink">
<g transform="scale(1, -1) translate(0, -432)">
<path d="M0,0L720,0L720,432L0,432Z" style="fill:#FFFFFF" />
<text x="358.5" y="-420.45" transform="scale(1, -1)"
	style="font-family:Times;font-weight:normal;font-style:normal;font-size:12px"> </text>
<text x="379.31" y="-3.8613" transform="scale(1, -1)"
	style="font-family:Times;font-weight:normal;font-style:normal;font-size:12px">Costs</text>
<text x="62.805" y="-18.634" transform="scale(1, -1)"
	style="font-family:Times;font-weight:normal;font-style:normal;font-size:10px">0</text>
<text x="226.11" y="-18.634" transform="scale(1, -1)"
	style="font-family:Times;font-weight:normal;font-style:normal;font-size:10px">100</text>
<text x="394.41" y="-18.634" transform="scale(1, -1)"
	style="font-family:Times;font-weight:normal;font-style:normal;font-size:10px">200</text>
<text x="562.71" y="-18.634" transform="scale(1, -1)"
	style="font-family:Times;font-weight:normal;font-style:normal;font-size:10px">300</text>
<path d="M65.305,28.263L65.305,36.263" style="fill:none;stroke:#000000;stroke-width:0.5" />
<path d="M233.61,28.263L233.61,36.263" style="fill:none;stroke:#000000;stroke-width:0.5" />
<path d="M401.91,28.263L401.91,36.263" style="fill:none;stroke:#000000;stroke-width:0.5" />
<path d="M570.21,28.263L570.21,36.263" style="fill:none;stroke:#000000;stroke-width:0.5" />
<path d="M98.965,32.263L98.965,36.263" style="fill:none;stroke:#000000;stroke-width:0.5" />
<path d="M132.63,32.263L132.63,36.263" style="fill:none;stroke:#000000;stroke-width:0.5" />
<path d="M166.29,32.263L166.29,36.263" style="fill:none;stroke:#000000;stroke-width:0.5" />
<path d="M199.95,32.263L199.95,36.263" style="fill:none;stroke:#000000;stroke-width:0.5" />
<path d="M267.27,32.263L267.27,36.263" style="fill:none;stroke:#000000;stroke-width:0.5" />
<path d="M300.93,32.263L300.93,36.263" style="fill:none;stroke:#000000;stroke-width:0.5" />
<path d="M334.59,32.263L334.59,36.263" style="fill:none;stroke:#000000;stroke-width:0.5" />
<path d="M368.25,32.263L368.25,36.263" style="fill:none;stroke:#000000;stroke-width:0.5" />
<path d="M435.57,32.263L435.57,36.263" style="fill:none;stroke:#000000;stroke-width:0.5" />
<path d="M469.23,32.263L469.23,36.263" style="fill:none;stroke:#000000;stroke-width:0.5" />
<path d="M502.89,32.263L502.89,36.263" style="fill:none;stroke:#000000;stroke-width:0.5" />
<path d="M536.55,32.263L536.55,36.263" style="fill:none;stroke:#000000;stroke-width:0.5" />
<path d="M603.87,32.263L603.87,36.263" style="fill:none;stroke:#000000;stroke-width:0.5" />
<path d="M637.53,32.263L637.53,36.263" style="fill:none;stroke:#000000;stroke-width:0.5" />
<path d="M671.19,32.263L671.19,36.263" style="fill:none;stroke:#000000;stroke-width:0.5" />
<path d="M704.85,32.263L704.85,36.263" style="fill:none;stroke:#000000;stroke-width:0.5" />
<path d="M65.305,36.263L720,36.263" style="fill:none;stroke:#000000;stroke-width:0.5" />
<g transform="rotate(90)">
<text x="152.55" y="11.555" transform="scale(1, -1)"
	style="font-family:Times;font-weight:normal;font-style:normal;font-size:12px">Number of trials (1000000 total)</text>
</g>
<text x="24.055" y="-87.739" transform="scale(1, -1)"
	style="font-family:Times;font-weight:normal;font-style:normal;font-size:10px">50000</text>
<text x="19.055" y="-225.12" transform="scale(1, -1)"
	style="font-family:Times;font-weight:normal;font-style:normal;font-size:10px">200000</text>
<text x="19.055" y="-362.5" transform="scale(1, -1)"
	style="font-family:Times;font-weight:normal;font-style:normal;font-size:10px">350000</text>
<path d="M51.555,90.944L59.555,90.944" style="fill:none;stroke:#000000;stroke-width:0.5" />
<path d="M51.555,228.33L59.555,228.33" style="fill:none;stroke:#000000;stroke-width:0.5" />
<path d="M51.555,365.71L59.555,365.71" style="fill:none;stroke:#000000;stroke-width:0.5" />
<path d="M55.555,159.63L59.555,159.63" style="fill:none;stroke:#000000;stroke-width:0.5" />
<path d="M55.555,297.02L59.555,297.02" style="fill:none;stroke:#000000;stroke-width:0.5" />
<path d="M59.555,45.151L59.555,416.58" style="fill:none;stroke:#000000;stroke-width:0.5" />
<path d="M65.305,416.58L102.33,55.818L112.43,51.895L114.11,70.972L115.8,67.348L117.48,66.216L120.84,51.91L122.53,52.021L124.21,52.126L125.89,52.172L127.58,48.567L129.26,55.663L130.94,48.564L134.31,70.047L135.99,55.792L137.67,77.419L139.36,58.827L141.04,48.583L147.77,52.114L149.46,45.359L151.14,49.267L152.82,45.796L154.5,52.564L156.19,67.183L157.87,52.28L159.55,45.355L161.24,67.741L162.92,52.896L164.6,53.849L166.29,46.791L167.97,56.854L169.65,74.331L171.34,53.765L173.02,46.726L174.7,47.371L176.38,46.691L178.07,46.825L179.75,46.378L181.43,46.577L183.12,47.525L184.8,48.621L186.48,49.7L188.17,48.827L189.85,48.821L191.53,47.09L193.21,47.186L194.9,47.061L196.58,46.962L198.26,47.973L199.95,46.98L201.63,46.986L203.31,47.323L205,48.439L206.68,50.44L208.36,49.538L210.04,48.444L211.73,48.965L213.41,48.764L215.09,47.155L216.78,48.382L218.46,49.291L220.14,50.196L221.83,48.768L223.51,47.377L225.19,48.644L226.87,48.167L228.56,48.564L230.24,49.172L231.92,47.651L233.61,48.966L235.29,47.628L236.97,47.501L238.66,48.26L240.34,48.057L242.02,48.778L243.7,47.862L245.39,46.601L247.07,46.106L248.75,46.021L250.44,46.185L252.12,47.314L253.8,46.817L255.49,46.466L257.17,46.256L258.85,47.412L260.54,48.271L262.22,46.816L263.9,46.535L265.58,47.621L267.27,46.938L268.95,46.478L270.63,46.077L272.32,46.61L274,46.406L275.68,46.486L277.37,46.037L279.05,46.073L280.73,45.995L282.41,45.994L284.1,45.925L285.78,45.931L287.46,45.902L289.15,46.058L290.83,46.061L292.51,45.978L294.2,45.959L295.88,45.816L297.56,45.873L299.24,45.804L300.93,45.822L302.61,45.943L304.29,45.861L305.98,45.731L307.66,45.77L309.34,45.851L311.03,45.91L312.71,45.939L314.39,45.753L316.07,45.813L317.76,45.789L319.44,45.589L321.12,45.728L322.81,45.697L324.49,45.758L326.17,45.64L327.86,45.633L329.54,45.71L331.22,45.655L332.91,45.673L334.59,45.677L336.27,45.592L337.95,45.602L339.64,45.507L341.32,45.531L343,45.432L344.69,45.48L346.37,45.424L348.05,45.424L349.74,45.422L351.42,45.368L353.1,45.377L354.78,45.369L356.47,45.441L358.15,45.403L359.83,45.358L361.52,45.347L363.2,45.397L364.88,45.392L366.57,45.368L368.25,45.341L369.93,45.327L371.61,45.383L373.3,45.333L374.98,45.291L376.66,45.309L378.35,45.287L380.03,45.294L381.71,45.291L383.4,45.291L385.08,45.276L386.76,45.273L388.44,45.279L390.13,45.259L391.81,45.258L393.49,45.268L395.18,45.254L396.86,45.26L398.54,45.258L400.23,45.244L401.91,45.241L403.59,45.23L405.28,45.234L406.96,45.238L408.64,45.245L410.32,45.23L412.01,45.231L413.69,45.229L415.37,45.21L417.06,45.216L418.74,45.196L420.42,45.203L422.11,45.209L423.79,45.215L425.47,45.193L427.15,45.214L428.84,45.193L430.52,45.194L432.2,45.199L433.89,45.2L435.57,45.186L437.25,45.186L438.94,45.201L440.62,45.19L442.3,45.193L443.98,45.182L445.67,45.182L447.35,45.187L449.03,45.171L450.72,45.166L452.4,45.175L454.08,45.171L455.77,45.17L457.45,45.171L459.13,45.178L460.81,45.173L462.5,45.165L464.18,45.165L465.86,45.17L467.55,45.163L469.23,45.168L470.91,45.164L472.6,45.165L474.28,45.16L475.96,45.161L477.64,45.161L479.33,45.164L481.01,45.165L482.69,45.163L484.38,45.166L486.06,45.161L487.74,45.159L489.43,45.159L491.11,45.161L492.79,45.161L494.48,45.163L496.16,45.159L497.84,45.164L499.52,45.16L501.21,45.156L502.89,45.156L504.57,45.155L506.26,45.161L507.94,45.158L509.62,45.159L511.31,45.155L512.99,45.154L514.67,45.155L516.35,45.157L518.04,45.157L519.72,45.157L521.4,45.156L523.09,45.153L524.77,45.153L526.45,45.154L528.14,45.154L529.82,45.154L531.5,45.152L533.18,45.154L534.87,45.154L536.55,45.153L538.23,45.152L539.92,45.151L543.28,45.151L544.97,45.152L546.65,45.151L548.33,45.152L550.01,45.152L551.7,45.153L553.38,45.152L555.06,45.151L556.75,45.151L558.43,45.151L560.11,45.151L561.8,45.151L563.48,45.152L565.16,45.152L568.53,45.153L570.21,45.151L571.89,45.153L573.58,45.151L576.94,45.151L578.63,45.151L581.99,45.152L583.68,45.151L588.72,45.151L590.41,45.152L592.09,45.152L598.82,45.151L608.92,45.151L615.65,45.151L617.34,45.151L619.02,45.151L620.7,45.151L622.38,45.151L627.43,45.151L630.8,45.151L659.41,45.151L664.46,45.151L688.02,45.151L720,45.151" style="fill:none;stroke:#0000FF" />
</g>
</svg>
