<?xml version="1.0"?>
<!-- Generated by SVGo and Plotinum VG -->
<svg width="720pt" height="432pt" viewBox="0 0 720 432"
	xmlns="http://www.w3.org/2000/svg"
	xmlns:xlink="http://www.w3.org/1999/xlink">
<g transform="scale(1, -1) translate(0, -432)">
<path d="M0,0L720,0L720,432L0,432Z" style="fill:#FFFFFF" />
<text x="358.5" y="-420.45" transform="scale(1, -1)"
	style="font-family:Times;font-weight:normal;font-style:normal;font-size:12px"> </text>
<text x="376.81" y="-3.8613" transform="scale(1, -1)"
	style="font-family:Times;font-weight:normal;font-style:normal;font-size:12px">Costs</text>
<text x="57.805" y="-18.634" transform="scale(1, -1)"
	style="font-family:Times;font-weight:normal;font-style:normal;font-size:10px">0</text>
<text x="364.96" y="-18.634" transform="scale(1, -1)"
	style="font-family:Times;font-weight:normal;font-style:normal;font-size:10px">300</text>
<text x="677.12" y="-18.634" transform="scale(1, -1)"
	style="font-family:Times;font-weight:normal;font-style:normal;font-size:10px">600</text>
<path d="M60.305,28.263L60.305,36.263" style="fill:none;stroke:#000000;stroke-width:0.5" />
<path d="M372.46,28.263L372.46,36.263" style="fill:none;stroke:#000000;stroke-width:0.5" />
<path d="M684.62,28.263L684.62,36.263" style="fill:none;stroke:#000000;stroke-width:0.5" />
<path d="M164.36,32.263L164.36,36.263" style="fill:none;stroke:#000000;stroke-width:0.5" />
<path d="M268.41,32.263L268.41,36.263" style="fill:none;stroke:#000000;stroke-width:0.5" />
<path d="M476.52,32.263L476.52,36.263" style="fill:none;stroke:#000000;stroke-width:0.5" />
<path d="M580.57,32.263L580.57,36.263" style="fill:none;stroke:#000000;stroke-width:0.5" />
<path d="M60.305,36.263L720,36.263" style="fill:none;stroke:#000000;stroke-width:0.5" />
<g transform="rotate(90)">
<text x="152.55" y="11.555" transform="scale(1, -1)"
	style="font-family:Times;font-weight:normal;font-style:normal;font-size:12px">Number of trials (1000000 total)</text>
</g>
<text x="24.055" y="-68.903" transform="scale(1, -1)"
	style="font-family:Times;font-weight:normal;font-style:normal;font-size:10px">5000</text>
<text x="19.055" y="-176.76" transform="scale(1, -1)"
	style="font-family:Times;font-weight:normal;font-style:normal;font-size:10px">25000</text>
<text x="19.055" y="-284.61" transform="scale(1, -1)"
	style="font-family:Times;font-weight:normal;font-style:normal;font-size:10px">45000</text>
<text x="19.055" y="-392.46" transform="scale(1, -1)"
	style="font-family:Times;font-weight:normal;font-style:normal;font-size:10px">65000</text>
<path d="M46.555,72.109L54.555,72.109" style="fill:none;stroke:#000000;stroke-width:0.5" />
<path d="M46.555,179.96L54.555,179.96" style="fill:none;stroke:#000000;stroke-width:0.5" />
<path d="M46.555,287.81L54.555,287.81" style="fill:none;stroke:#000000;stroke-width:0.5" />
<path d="M46.555,395.67L54.555,395.67" style="fill:none;stroke:#000000;stroke-width:0.5" />
<path d="M50.555,126.04L54.555,126.04" style="fill:none;stroke:#000000;stroke-width:0.5" />
<path d="M50.555,233.89L54.555,233.89" style="fill:none;stroke:#000000;stroke-width:0.5" />
<path d="M50.555,341.74L54.555,341.74" style="fill:none;stroke:#000000;stroke-width:0.5" />
<path d="M54.555,45.151L54.555,416.58" style="fill:none;stroke:#000000;stroke-width:0.5" />
<path d="M60.305,416.58L87.358,80.624L88.399,127.84L89.439,58.811L90.48,58.735L92.561,74.6L93.602,77.426L94.642,48.565L95.683,123.72L96.723,79.734L97.764,75.404L99.845,77.351L100.89,108.7L101.93,72.341L102.97,74.983L104.01,58.865L105.05,76.768L106.09,82.727L108.17,51.72L111.29,70.173L112.33,96.559L113.37,96.225L114.41,45.486L115.45,78.116L116.49,118.32L117.53,49.767L118.57,51.757L119.61,48.608L120.66,105.18L121.7,56.6L122.74,58.617L123.78,119.14L124.82,61.432L125.86,62.111L126.9,50.398L127.94,65.185L128.98,71.597L130.02,63.217L131.06,65.649L132.1,63.335L133.14,71.51L134.18,65.751L135.22,59.728L136.26,97.061L137.3,114.73L138.34,67.854L139.38,66.938L140.43,95.049L141.47,75.275L142.51,65.438L143.55,91.727L144.59,74.013L145.63,67.245L146.67,68.615L147.71,72.718L148.75,87.397L149.79,66.112L150.83,70.912L151.87,85.618L152.91,77.496L153.95,76.224L154.99,59.652L156.03,83.439L157.07,81.541L158.11,72.756L159.15,74.034L160.2,66.673L161.24,76.003L162.28,63.395L163.32,68.539L164.36,83.66L165.4,81.411L166.44,69.445L167.48,67.768L168.52,80.376L169.56,76.569L170.6,63.626L171.64,76.488L172.68,81.967L173.72,73.673L174.76,66.161L175.8,78.817L176.84,90.476L177.88,72.842L178.92,74.746L179.97,79.211L181.01,72.524L182.05,71.214L183.09,68.598L184.13,77.216L185.17,70.189L186.21,68.043L187.25,67.946L188.29,73.948L189.33,79.691L190.37,68.243L191.41,66.975L192.45,79.508L193.49,78.645L194.53,66.609L195.57,67.137L196.61,77.782L197.65,72.902L198.7,67.45L199.74,74.573L200.78,78.489L201.82,66.84L202.86,65.487L203.9,73.511L204.94,71.16L205.98,66.625L207.02,68.922L208.06,67.763L209.1,69.418L210.14,67.391L211.18,66.447L212.22,69.526L213.26,71.457L214.3,66.468L215.34,65.616L216.38,68.555L217.42,71.823L218.47,64.786L219.51,68.733L220.55,70.788L221.59,68.14L222.63,63.335L223.67,66.042L224.71,68.226L225.75,65.891L226.79,62.898L227.83,66.134L228.87,69.391L229.91,65.676L230.95,63.616L231.99,66.382L233.03,66.943L234.07,64.549L235.11,64.592L236.15,64.629L237.19,64.295L238.24,62.478L239.28,62.063L240.32,64.662L241.36,64.22L242.4,62.268L243.44,60.704L244.48,62.289L245.52,63.206L246.56,60.326L247.6,60.412L248.64,62.58L249.68,61.626L250.72,59.167L251.76,60.547L252.8,63.087L253.84,61.2L254.88,59.436L255.92,60.898L256.96,61.415L258.01,58.498L259.05,59.156L260.09,59.463L261.13,59.933L262.17,58.956L263.21,58.347L264.25,59.205L265.29,58.692L266.33,57.484L267.37,57.56L268.41,58.056L269.45,59.08L270.49,57.231L271.53,56.918L272.57,57.506L273.61,58.234L274.65,56.201L275.69,56.735L276.73,57.684L277.78,56.244L278.82,55.036L279.86,56.357L280.9,56.988L281.94,55.44L282.98,54.831L284.02,55.845L285.06,55.597L286.1,54.928L287.14,54.389L288.18,54.561L289.22,55.289L290.26,54.249L291.3,53.828L292.34,54.572L293.38,54.766L294.42,53.364L295.46,53.44L296.5,53.904L297.55,53.203L298.59,52.911L299.63,52.733L300.67,53.553L301.71,53.235L302.75,52.307L303.79,52.334L304.83,53.111L305.87,52.491L306.91,51.768L307.95,51.881L308.99,52.313L310.03,51.676L311.07,51.633L312.11,51.881L313.15,51.989L314.19,51.401L315.23,50.814L316.27,51.407L317.32,51.207L318.36,50.83L319.4,50.706L320.44,50.377L321.48,50.781L322.52,50.145L323.56,50.355L324.6,50.226L325.64,50.458L326.68,50.032L327.72,49.708L328.76,50.102L329.8,49.681L330.84,49.347L331.88,49.681L332.92,49.843L333.96,49.519L335,49.131L336.04,49.282L337.09,49.46L338.13,48.959L339.17,49.11L340.21,48.953L341.25,48.802L342.29,48.791L343.33,48.527L344.37,48.754L345.41,48.673L346.45,48.5L347.49,48.516L348.53,48.425L349.57,48.662L350.61,48.214L351.65,48.284L352.69,48.252L353.73,47.934L354.77,47.977L355.81,47.977L356.86,47.74L357.9,47.664L358.94,47.637L359.98,47.821L361.02,47.643L362.06,47.718L363.1,47.443L364.14,47.632L365.18,47.481L366.22,47.335L367.26,47.292L368.3,47.389L369.34,47.303L370.38,47.093L371.42,47.19L372.46,47.271L373.5,47.017L374.54,47.055L375.58,47.028L376.63,46.996L377.67,46.996L378.71,46.909L379.75,46.726L380.79,46.661L381.83,46.775L382.87,46.737L383.91,46.672L384.95,46.64L385.99,46.408L387.03,46.586L388.07,46.537L389.11,46.473L390.15,46.489L391.19,46.559L392.23,46.375L393.27,46.397L394.31,46.316L395.35,46.278L396.4,46.203L397.44,46.235L398.48,46.187L399.52,46.111L400.56,46.165L401.6,46.165L402.64,46.122L403.68,46.068L404.72,46.165L405.76,46.084L406.8,45.993L407.84,45.982L408.88,46.09L409.92,46.122L410.96,45.906L412,45.917L413.04,45.917L414.08,45.879L415.13,45.923L416.17,45.923L417.21,45.917L418.25,45.847L419.29,45.755L420.33,45.836L421.37,45.804L422.41,45.766L423.45,45.615L424.49,45.664L425.53,45.728L426.57,45.615L427.61,45.701L428.65,45.529L429.69,45.723L430.73,45.669L431.77,45.642L432.81,45.599L433.85,45.55L434.9,45.599L435.94,45.545L436.98,45.507L438.02,45.55L439.06,45.443L440.1,45.615L441.14,45.556L442.18,45.491L443.22,45.529L444.26,45.502L445.3,45.426L446.34,45.491L447.38,45.416L448.42,45.389L449.46,45.399L450.5,45.329L451.54,45.389L452.58,45.421L453.62,45.459L454.67,45.426L455.71,45.432L456.75,45.367L457.79,45.372L458.83,45.335L459.87,45.378L460.91,45.383L461.95,45.362L462.99,45.367L464.03,45.324L465.07,45.378L466.11,45.335L467.15,45.372L468.19,45.367L469.23,45.34L470.27,45.302L471.31,45.329L472.35,45.27L473.39,45.313L474.44,45.302L475.48,45.313L476.52,45.297L477.56,45.297L478.6,45.227L479.64,45.27L480.68,45.259L481.72,45.238L482.76,45.232L483.8,45.221L484.84,45.286L485.88,45.248L486.92,45.248L487.96,45.248L489,45.216L490.04,45.232L491.08,45.27L492.12,45.227L493.16,45.216L494.21,45.221L495.25,45.238L496.29,45.238L497.33,45.195L498.37,45.238L499.41,45.232L500.45,45.238L501.49,45.211L502.53,45.211L503.57,45.211L504.61,45.205L505.65,45.205L506.69,45.189L507.73,45.216L508.77,45.195L509.81,45.205L510.85,45.243L511.89,45.189L512.93,45.178L513.98,45.205L515.02,45.173L516.06,45.189L517.1,45.2L518.14,45.173L519.18,45.184L520.22,45.184L521.26,45.189L522.3,45.173L523.34,45.173L524.38,45.178L525.42,45.151L526.46,45.178L527.5,45.184L528.54,45.173L529.58,45.157L530.62,45.168L531.66,45.168L532.7,45.173L533.75,45.157L534.79,45.184L535.83,45.189L536.87,45.157L537.91,45.168L538.95,45.151L539.99,45.162L541.03,45.173L542.07,45.162L543.11,45.162L544.15,45.173L545.19,45.157L546.23,45.162L547.27,45.173L548.31,45.168L549.35,45.157L550.39,45.173L551.43,45.157L552.47,45.151L553.52,45.168L554.56,45.178L555.6,45.157L556.64,45.151L557.68,45.168L558.72,45.168L559.76,45.173L560.8,45.151L561.84,45.157L562.88,45.157L563.92,45.157L564.96,45.151L566,45.151L567.04,45.157L568.08,45.151L569.12,45.157L570.16,45.157L572.24,45.151L573.29,45.151L574.33,45.151L576.41,45.151L577.45,45.157L578.49,45.151L579.53,45.151L580.57,45.151L581.61,45.157L582.65,45.151L583.69,45.157L587.85,45.151L588.89,45.151L589.93,45.151L592.01,45.151L593.06,45.151L595.14,45.151L596.18,45.157L597.22,45.151L599.3,45.151L602.42,45.151L603.46,45.151L606.58,45.151L610.74,45.151L611.78,45.151L612.83,45.151L614.91,45.157L615.95,45.151L628.43,45.151L633.64,45.151L637.8,45.151L657.57,45.151L720,45.151" style="fill:none;stroke:#0000FF" />
</g>
</svg>
