<?xml version="1.0"?>
<!-- Generated by SVGo and Plotinum VG -->
<svg width="720pt" height="432pt" viewBox="0 0 720 432"
	xmlns="http://www.w3.org/2000/svg"
	xmlns:xlink="http://www.w3.org/1999/xlink">
<g transform="scale(1, -1) translate(0, -432)">
<path d="M0,0L720,0L720,432L0,432Z" style="fill:#FFFFFF" />
<text x="358.5" y="-420.45" transform="scale(1, -1)"
	style="font-family:Times;font-weight:normal;font-style:normal;font-size:12px"> </text>
<text x="385.56" y="-3.8613" transform="scale(1, -1)"
	style="font-family:Times;font-weight:normal;font-style:normal;font-size:12px">Costs</text>
<text x="75.305" y="-18.634" transform="scale(1, -1)"
	style="font-family:Times;font-weight:normal;font-style:normal;font-size:10px">0</text>
<text x="334.04" y="-18.634" transform="scale(1, -1)"
	style="font-family:Times;font-weight:normal;font-style:normal;font-size:10px">200</text>
<text x="597.78" y="-18.634" transform="scale(1, -1)"
	style="font-family:Times;font-weight:normal;font-style:normal;font-size:10px">400</text>
<path d="M77.805,28.263L77.805,36.263" style="fill:none;stroke:#000000;stroke-width:0.5" />
<path d="M341.54,28.263L341.54,36.263" style="fill:none;stroke:#000000;stroke-width:0.5" />
<path d="M605.28,28.263L605.28,36.263" style="fill:none;stroke:#000000;stroke-width:0.5" />
<path d="M209.67,32.263L209.67,36.263" style="fill:none;stroke:#000000;stroke-width:0.5" />
<path d="M473.41,32.263L473.41,36.263" style="fill:none;stroke:#000000;stroke-width:0.5" />
<path d="M77.805,36.263L720,36.263" style="fill:none;stroke:#000000;stroke-width:0.5" />
<g transform="rotate(90)">
<text x="152.55" y="11.555" transform="scale(1, -1)"
	style="font-family:Times;font-weight:normal;font-style:normal;font-size:12px">Number of trials (1000000 total)</text>
</g>
<text x="24.055" y="-79.325" transform="scale(1, -1)"
	style="font-family:Times;font-weight:normal;font-style:normal;font-size:10px">25000.00</text>
<text x="19.055" y="-228.85" transform="scale(1, -1)"
	style="font-family:Times;font-weight:normal;font-style:normal;font-size:10px">125000.00</text>
<text x="19.055" y="-378.37" transform="scale(1, -1)"
	style="font-family:Times;font-weight:normal;font-style:normal;font-size:10px">225000.00</text>
<path d="M64.055,82.531L72.055,82.531" style="fill:none;stroke:#000000;stroke-width:0.5" />
<path d="M64.055,232.06L72.055,232.06" style="fill:none;stroke:#000000;stroke-width:0.5" />
<path d="M64.055,381.58L72.055,381.58" style="fill:none;stroke:#000000;stroke-width:0.5" />
<path d="M68.055,157.29L72.055,157.29" style="fill:none;stroke:#000000;stroke-width:0.5" />
<path d="M68.055,306.82L72.055,306.82" style="fill:none;stroke:#000000;stroke-width:0.5" />
<path d="M72.055,45.151L72.055,416.58" style="fill:none;stroke:#000000;stroke-width:0.5" />
<path d="M77.805,416.58L106.82,66.512L109.45,48.596L112.09,73.817L113.41,52.329L114.73,48.635L116.05,48.643L118.68,52.046L120,48.707L121.32,48.724L122.64,52.05L123.96,59.213L125.28,48.538L126.6,62.393L127.91,73.195L129.23,102.22L130.55,58.697L131.87,55.726L133.19,83.959L134.51,48.649L135.83,73.572L138.46,48.882L141.1,46.814L142.42,48.934L143.74,59.924L145.06,55.91L146.38,45.549L147.69,66.662L149.01,59.951L150.33,49.287L151.65,63.462L152.97,57.058L154.29,49.272L155.61,64.815L156.93,61.626L158.24,59.896L159.56,61.14L160.88,72.45L162.2,50.157L163.52,50.736L164.84,49.98L166.16,47.21L167.47,50.017L168.79,47.348L170.11,49.141L171.43,47.771L172.75,48.581L174.07,49.257L175.39,48.514L176.71,50.382L178.02,52.142L179.34,60.748L180.66,52.453L181.98,53.553L183.3,66.285L184.62,76.158L185.94,52.276L187.25,53.033L188.57,50.261L189.89,51.366L191.21,51.079L192.53,49.187L193.85,51.253L195.17,51.91L196.49,50.685L197.8,50.467L199.12,53.187L200.44,51.94L201.76,51.726L203.08,53.676L204.4,51.807L205.72,52.267L207.03,54.139L208.35,53.064L209.67,52.998L210.99,53.715L212.31,53.828L213.63,53.04L214.95,50.859L216.27,50.956L217.58,50.325L218.9,52.402L220.22,47.98L221.54,49.115L222.86,49.254L224.18,48.505L225.5,49.885L226.82,50.19L228.13,50.047L229.45,50.624L230.77,52.266L232.09,50.648L233.41,51.004L234.73,54.205L236.05,52.64L237.36,50.627L238.68,51.406L240,51.325L241.32,49.223L242.64,50.274L243.96,47.784L245.28,48.034L246.6,47.608L247.91,47.656L249.23,48.593L250.55,49.159L251.87,48.333L253.19,48.852L254.51,49.386L255.83,48.803L257.14,49.051L258.46,49.61L259.78,48.886L261.1,49.199L262.42,50.18L263.74,49.419L265.06,49.295L266.38,49.61L267.69,49.254L269.01,47.974L270.33,47.767L271.65,47.433L272.97,47.463L274.29,47.441L275.61,47.173L276.92,47.451L278.24,47.412L279.56,47.512L280.88,47.547L282.2,47.577L283.52,47.702L284.84,47.895L286.16,48.224L287.47,47.713L288.79,47.792L290.11,48.393L291.43,47.514L292.75,47.311L294.07,47.236L295.39,47.004L296.7,46.919L298.02,46.796L299.34,46.706L300.66,46.961L301.98,46.787L303.3,46.68L304.62,46.989L305.94,46.976L307.25,46.935L308.57,47.016L309.89,47.011L311.21,46.718L312.53,47.055L313.85,46.961L315.17,46.786L316.49,46.82L317.8,46.783L319.12,46.774L320.44,46.6L321.76,46.376L323.08,46.3L324.4,46.297L325.72,46.204L327.03,46.08L328.35,46.232L329.67,46.14L330.99,46.057L332.31,46.283L333.63,46.259L334.95,46.229L336.27,46.328L337.58,46.33L338.9,46.161L340.22,46.128L341.54,46.262L342.86,46.069L344.18,46.116L345.5,46.054L346.81,45.929L348.13,45.896L349.45,45.874L350.77,45.749L352.09,45.824L353.41,45.751L354.73,45.784L356.05,45.862L357.36,45.799L358.68,45.757L360,45.788L361.32,45.811L362.64,45.77L363.96,45.742L365.28,45.776L366.59,45.738L367.91,45.779L369.23,45.802L370.55,45.727L371.87,45.715L373.19,45.676L374.51,45.612L375.83,45.61L377.14,45.581L378.46,45.566L379.78,45.533L381.1,45.509L382.42,45.555L383.74,45.534L385.06,45.56L386.37,45.549L387.69,45.564L389.01,45.537L390.33,45.548L391.65,45.516L392.97,45.515L394.29,45.503L395.61,45.438L396.92,45.458L398.24,45.452L399.56,45.419L400.88,45.413L402.2,45.418L403.52,45.406L404.84,45.397L406.16,45.365L407.47,45.404L408.79,45.371L410.11,45.349L411.43,45.374L412.75,45.364L414.07,45.359L415.39,45.359L416.7,45.356L418.02,45.374L419.34,45.373L420.66,45.326L421.98,45.356L423.3,45.331L424.62,45.335L425.94,45.317L427.25,45.289L428.57,45.293L429.89,45.295L431.21,45.29L432.53,45.264L433.85,45.264L435.17,45.278L436.48,45.252L437.8,45.267L439.12,45.283L440.44,45.238L441.76,45.261L443.08,45.283L444.4,45.262L445.72,45.244L447.03,45.243L448.35,45.241L449.67,45.253L450.99,45.228L452.31,45.241L453.63,45.217L454.95,45.229L456.26,45.225L457.58,45.204L458.9,45.208L460.22,45.199L461.54,45.201L462.86,45.22L464.18,45.217L465.5,45.198L466.81,45.214L468.13,45.208L469.45,45.237L470.77,45.219L472.09,45.195L473.41,45.196L474.73,45.196L476.04,45.198L477.36,45.208L478.68,45.192L480,45.183L481.32,45.181L482.64,45.193L483.96,45.184L485.28,45.183L486.59,45.189L487.91,45.186L489.23,45.189L490.55,45.186L491.87,45.177L493.19,45.181L494.51,45.178L495.83,45.178L497.14,45.178L498.46,45.175L499.78,45.169L501.1,45.177L502.42,45.171L503.74,45.18L505.06,45.175L506.37,45.178L507.69,45.172L509.01,45.166L510.33,45.166L511.65,45.166L512.97,45.168L514.29,45.175L515.61,45.174L516.92,45.169L518.24,45.157L519.56,45.159L520.88,45.165L522.2,45.16L523.52,45.165L524.84,45.16L526.15,45.163L527.47,45.162L528.79,45.157L530.11,45.16L531.43,45.159L532.75,45.169L534.07,45.159L535.39,45.154L536.7,45.154L538.02,45.163L539.34,45.169L540.66,45.156L541.98,45.153L543.3,45.157L544.62,45.154L545.93,45.157L547.25,45.157L548.57,45.151L549.89,45.159L551.21,45.156L552.53,45.154L553.85,45.151L555.17,45.153L557.8,45.16L559.12,45.156L560.44,45.154L561.76,45.154L563.08,45.153L564.4,45.151L565.71,45.151L567.03,45.154L568.35,45.159L569.67,45.153L570.99,45.151L572.31,45.156L573.63,45.154L574.95,45.159L577.58,45.151L578.9,45.156L580.22,45.151L581.54,45.151L582.86,45.153L584.18,45.154L585.5,45.151L586.81,45.153L589.45,45.151L590.77,45.151L592.09,45.153L593.41,45.151L594.73,45.151L598.68,45.151L600,45.151L601.32,45.151L602.64,45.153L603.96,45.153L606.59,45.151L609.23,45.151L610.55,45.151L613.19,45.151L615.82,45.151L617.14,45.151L618.46,45.151L619.78,45.153L623.74,45.151L629.01,45.151L631.65,45.151L632.97,45.151L634.29,45.151L643.52,45.151L646.15,45.151L651.43,45.151L675.17,45.151L677.8,45.151L683.08,45.151L684.4,45.151L685.71,45.151L692.31,45.151L720,45.151" style="fill:none;stroke:#0000FF" />
</g>
</svg>
