<?xml version="1.0"?>
<!-- Generated by SVGo and Plotinum VG -->
<svg width="720pt" height="432pt" viewBox="0 0 720 432"
	xmlns="http://www.w3.org/2000/svg"
	xmlns:xlink="http://www.w3.org/1999/xlink">
<g transform="scale(1, -1) translate(0, -432)">
<path d="M0,0L720,0L720,432L0,432Z" style="fill:#FFFFFF" />
<text x="358.5" y="-420.45" transform="scale(1, -1)"
	style="font-family:Times;font-weight:normal;font-style:normal;font-size:12px"> </text>
<text x="376.81" y="-3.8613" transform="scale(1, -1)"
	style="font-family:Times;font-weight:normal;font-style:normal;font-size:12px">Costs</text>
<text x="51.555" y="-18.634" transform="scale(1, -1)"
	style="font-family:Times;font-weight:normal;font-style:normal;font-size:10px">0.00</text>
<text x="336.91" y="-18.634" transform="scale(1, -1)"
	style="font-family:Times;font-weight:normal;font-style:normal;font-size:10px">250.00</text>
<text x="627.27" y="-18.634" transform="scale(1, -1)"
	style="font-family:Times;font-weight:normal;font-style:normal;font-size:10px">500.00</text>
<path d="M60.305,28.263L60.305,36.263" style="fill:none;stroke:#000000;stroke-width:0.5" />
<path d="M350.66,28.263L350.66,36.263" style="fill:none;stroke:#000000;stroke-width:0.5" />
<path d="M641.02,28.263L641.02,36.263" style="fill:none;stroke:#000000;stroke-width:0.5" />
<path d="M118.38,32.263L118.38,36.263" style="fill:none;stroke:#000000;stroke-width:0.5" />
<path d="M176.45,32.263L176.45,36.263" style="fill:none;stroke:#000000;stroke-width:0.5" />
<path d="M234.52,32.263L234.52,36.263" style="fill:none;stroke:#000000;stroke-width:0.5" />
<path d="M292.59,32.263L292.59,36.263" style="fill:none;stroke:#000000;stroke-width:0.5" />
<path d="M408.74,32.263L408.74,36.263" style="fill:none;stroke:#000000;stroke-width:0.5" />
<path d="M466.81,32.263L466.81,36.263" style="fill:none;stroke:#000000;stroke-width:0.5" />
<path d="M524.88,32.263L524.88,36.263" style="fill:none;stroke:#000000;stroke-width:0.5" />
<path d="M582.95,32.263L582.95,36.263" style="fill:none;stroke:#000000;stroke-width:0.5" />
<path d="M699.09,32.263L699.09,36.263" style="fill:none;stroke:#000000;stroke-width:0.5" />
<path d="M60.305,36.263L720,36.263" style="fill:none;stroke:#000000;stroke-width:0.5" />
<g transform="rotate(90)">
<text x="152.55" y="11.555" transform="scale(1, -1)"
	style="font-family:Times;font-weight:normal;font-style:normal;font-size:12px">Number of trials (1000000 total)</text>
</g>
<text x="19.055" y="-80.474" transform="scale(1, -1)"
	style="font-family:Times;font-weight:normal;font-style:normal;font-size:10px">10000</text>
<text x="19.055" y="-234.6" transform="scale(1, -1)"
	style="font-family:Times;font-weight:normal;font-style:normal;font-size:10px">50000</text>
<text x="19.055" y="-388.73" transform="scale(1, -1)"
	style="font-family:Times;font-weight:normal;font-style:normal;font-size:10px">90000</text>
<path d="M46.555,83.679L54.555,83.679" style="fill:none;stroke:#000000;stroke-width:0.5" />
<path d="M46.555,237.81L54.555,237.81" style="fill:none;stroke:#000000;stroke-width:0.5" />
<path d="M46.555,391.94L54.555,391.94" style="fill:none;stroke:#000000;stroke-width:0.5" />
<path d="M50.555,122.21L54.555,122.21" style="fill:none;stroke:#000000;stroke-width:0.5" />
<path d="M50.555,160.74L54.555,160.74" style="fill:none;stroke:#000000;stroke-width:0.5" />
<path d="M50.555,199.28L54.555,199.28" style="fill:none;stroke:#000000;stroke-width:0.5" />
<path d="M50.555,276.34L54.555,276.34" style="fill:none;stroke:#000000;stroke-width:0.5" />
<path d="M50.555,314.87L54.555,314.87" style="fill:none;stroke:#000000;stroke-width:0.5" />
<path d="M50.555,353.4L54.555,353.4" style="fill:none;stroke:#000000;stroke-width:0.5" />
<path d="M54.555,45.151L54.555,416.58" style="fill:none;stroke:#000000;stroke-width:0.5" />
<path d="M60.305,416.58L85.856,48.454L87.018,52.654L90.502,101.31L91.663,84.177L92.825,59.57L93.986,51.729L95.148,63.57L96.309,91.609L97.471,62.579L98.632,52.43L99.793,87.367L100.95,62.749L102.12,55.694L104.44,51.86L105.6,119.05L106.76,90.423L107.92,149.48L109.08,69.839L110.25,66.228L111.41,69.492L112.57,58.68L113.73,63.296L116.05,63.234L117.22,63.716L118.38,46.153L119.54,60.117L120.7,47.259L121.86,82.978L123.02,63.612L124.18,55.335L125.35,63.088L126.51,61.065L127.67,67.573L128.83,68.132L129.99,53.794L131.15,94.538L132.31,102.7L133.48,52.16L134.64,52.295L135.8,64.013L136.96,64.413L138.12,86.982L139.28,65.489L140.44,62.76L141.61,66.764L142.77,66.305L143.93,69.138L145.09,73.372L146.25,64.433L147.41,71.869L148.57,61.909L149.74,66.652L150.9,58.965L152.06,68.163L153.22,78.705L154.38,81.005L155.54,72.324L156.7,68.66L157.87,69.322L159.03,70.922L160.19,60.179L161.35,71.002L162.51,71.515L163.67,68.502L164.83,65.55L166,58.325L167.16,70.848L168.32,71.106L169.48,69.97L170.64,67.442L171.8,66.933L172.96,67.639L174.13,65.103L175.29,64.876L176.45,70.667L177.61,73.731L178.77,75.21L179.93,73.515L181.09,63.45L182.26,62.468L183.42,66.571L184.58,67.365L185.74,66.725L186.9,61.924L188.06,63.554L189.22,64.514L190.39,64.387L191.55,62.93L192.71,65.053L193.87,67.843L195.03,65.165L196.19,61.381L197.35,62.849L198.52,62.784L199.68,67.673L200.84,65.358L202,64.799L203.16,66.984L204.32,62.861L205.48,61.092L206.65,62.602L207.81,61.608L208.97,64.41L210.13,64.872L211.29,61.662L212.45,60.68L213.61,61.917L214.78,62.217L215.94,63.982L217.1,62.306L218.26,61.516L219.42,60.441L220.58,61.651L221.74,60.614L222.91,60.853L224.07,61.851L225.23,62.93L226.39,62.109L227.55,60.306L228.71,59.697L229.87,60.379L231.04,59.747L232.2,59.693L233.36,59.693L234.52,58.487L235.68,58.476L236.84,57.774L238,57.825L239.17,59.111L240.33,58.799L241.49,58.691L242.65,57.485L243.81,56.969L244.97,57.312L246.13,57.582L247.3,57.381L248.46,57.012L249.62,56.688L250.78,57.455L251.94,56.091L253.1,56.017L254.26,55.436L255.43,56.033L256.59,56.842L257.75,55.358L258.91,55.143L260.07,55.023L261.23,55.32L262.39,55.397L263.56,55.073L264.72,54.781L265.88,54.703L267.04,54.014L268.2,54.43L269.36,54.098L270.52,53.956L271.69,54.214L272.85,54.01L274.01,53.632L275.17,53.224L276.33,53.193L277.49,53.351L278.65,53.162L279.82,52.742L280.98,53.004L282.14,52.507L283.3,52.365L284.46,52.16L285.62,52.241L286.78,52.264L287.95,52.234L289.11,51.929L290.27,51.632L291.43,51.802L292.59,51.721L293.75,51.521L294.91,51.378L296.08,50.997L297.24,51.051L298.4,51.081L299.56,50.446L300.72,50.607L301.88,50.742L303.04,50.446L304.21,50.739L305.37,50.28L306.53,50.203L307.69,49.837L308.85,49.899L310.01,49.845L311.17,49.91L312.34,49.702L313.5,49.767L314.66,49.513L315.82,49.498L316.98,49.448L318.14,49.328L319.3,49.374L320.47,49.247L321.63,48.87L322.79,48.885L323.95,48.831L325.11,48.947L326.27,48.7L327.43,48.681L328.6,48.746L329.76,48.523L330.92,48.515L332.08,48.245L333.24,48.376L334.4,48.211L335.56,48.126L336.73,48.088L337.89,48.007L339.05,47.91L340.21,47.953L341.37,47.91L342.53,47.664L343.69,47.756L344.86,47.621L346.02,47.698L347.18,47.533L348.34,47.44L349.5,47.629L350.66,47.436L351.82,47.44L352.99,47.321L354.15,47.248L355.31,47.19L356.47,47.113L357.63,47.016L358.79,47.078L359.96,47.059L361.12,46.985L362.28,46.835L363.44,46.962L364.6,46.974L365.76,46.72L366.92,46.828L368.09,46.685L369.25,46.658L370.41,46.592L371.57,46.569L372.73,46.604L373.89,46.604L375.05,46.481L376.22,46.592L377.38,46.454L378.54,46.396L379.7,46.323L380.86,46.392L382.02,46.388L383.18,46.273L384.35,46.215L385.51,46.319L386.67,46.226L387.83,46.253L388.99,46.257L390.15,46.242L391.31,46.126L392.48,46.072L393.64,46.057L394.8,46.038L395.96,46.03L397.12,46.034L398.28,45.98L399.44,45.918L400.61,45.887L401.77,45.968L402.93,45.88L404.09,45.91L405.25,45.864L406.41,45.833L407.57,45.814L408.74,45.772L409.9,45.826L411.06,45.799L412.22,45.768L413.38,45.695L414.54,45.779L415.7,45.691L416.87,45.699L418.03,45.625L419.19,45.664L420.35,45.602L421.51,45.675L422.67,45.583L423.83,45.648L425,45.591L426.16,45.598L427.32,45.51L428.48,45.587L429.64,45.556L430.8,45.494L431.96,45.483L433.13,45.467L434.29,45.498L435.45,45.556L436.61,45.425L437.77,45.46L438.93,45.429L440.09,45.437L441.26,45.398L442.42,45.402L443.58,45.383L444.74,45.413L445.9,45.394L447.06,45.371L448.22,45.41L449.39,45.359L450.55,45.375L451.71,45.352L452.87,45.375L454.03,45.386L455.19,45.348L456.35,45.352L457.52,45.348L458.68,45.332L459.84,45.298L461,45.298L462.16,45.309L463.32,45.344L464.48,45.332L465.65,45.359L466.81,45.313L467.97,45.298L469.13,45.298L470.29,45.286L471.45,45.263L472.61,45.255L473.78,45.236L474.94,45.298L476.1,45.263L477.26,45.29L478.42,45.282L479.58,45.29L480.74,45.232L481.91,45.24L483.07,45.248L484.23,45.24L485.39,45.24L486.55,45.232L487.71,45.236L488.87,45.217L490.04,45.255L491.2,45.217L492.36,45.24L493.52,45.232L494.68,45.24L495.84,45.213L497,45.24L498.17,45.217L499.33,45.201L500.49,45.201L501.65,45.228L502.81,45.201L503.97,45.198L505.13,45.209L506.3,45.209L507.46,45.221L508.62,45.198L509.78,45.182L510.94,45.186L512.1,45.198L513.26,45.19L514.43,45.163L515.59,45.205L516.75,45.19L517.91,45.194L519.07,45.174L520.23,45.205L521.39,45.19L522.56,45.182L523.72,45.186L524.88,45.163L526.04,45.178L527.2,45.174L528.36,45.186L529.52,45.174L530.69,45.171L531.85,45.163L533.01,45.171L534.17,45.167L535.33,45.167L536.49,45.182L537.65,45.174L538.82,45.151L539.98,45.171L541.14,45.178L542.3,45.178L543.46,45.174L544.62,45.174L545.78,45.167L546.95,45.167L548.11,45.151L549.27,45.171L550.43,45.163L552.75,45.155L553.91,45.155L555.08,45.155L556.24,45.159L557.4,45.151L558.56,45.163L559.72,45.159L560.88,45.159L562.04,45.159L563.21,45.155L565.53,45.151L566.69,45.167L567.85,45.155L569.01,45.151L570.17,45.167L571.34,45.167L572.5,45.151L573.66,45.155L574.82,45.151L575.98,45.171L577.14,45.159L578.3,45.159L580.63,45.151L581.79,45.155L582.95,45.151L584.11,45.151L586.43,45.151L587.6,45.167L589.92,45.151L591.08,45.151L594.56,45.151L595.73,45.151L596.89,45.151L600.37,45.151L601.53,45.159L602.7,45.151L603.86,45.151L605.02,45.151L609.66,45.151L610.83,45.151L613.15,45.151L615.47,45.151L618.96,45.151L621.28,45.151L625.92,45.151L628.25,45.151L636.38,45.151L653.8,45.151L667.74,45.151L720,45.151" style="fill:none;stroke:#0000FF" />
</g>
</svg>
