<?xml version="1.0"?>
<!-- Generated by SVGo and Plotinum VG -->
<svg width="720pt" height="432pt" viewBox="0 0 720 432"
	xmlns="http://www.w3.org/2000/svg"
	xmlns:xlink="http://www.w3.org/1999/xlink">
<g transform="scale(1, -1) translate(0, -432)">
<path d="M0,0L720,0L720,432L0,432Z" style="fill:#FFFFFF" />
<text x="358.5" y="-420.45" transform="scale(1, -1)"
	style="font-family:Times;font-weight:normal;font-style:normal;font-size:12px"> </text>
<text x="385.56" y="-3.8613" transform="scale(1, -1)"
	style="font-family:Times;font-weight:normal;font-style:normal;font-size:12px">Costs</text>
<text x="75.305" y="-18.634" transform="scale(1, -1)"
	style="font-family:Times;font-weight:normal;font-style:normal;font-size:10px">0</text>
<text x="327.7" y="-18.634" transform="scale(1, -1)"
	style="font-family:Times;font-weight:normal;font-style:normal;font-size:10px">200</text>
<text x="585.09" y="-18.634" transform="scale(1, -1)"
	style="font-family:Times;font-weight:normal;font-style:normal;font-size:10px">400</text>
<path d="M77.805,28.263L77.805,36.263" style="fill:none;stroke:#000000;stroke-width:0.5" />
<path d="M335.2,28.263L335.2,36.263" style="fill:none;stroke:#000000;stroke-width:0.5" />
<path d="M592.59,28.263L592.59,36.263" style="fill:none;stroke:#000000;stroke-width:0.5" />
<path d="M206.5,32.263L206.5,36.263" style="fill:none;stroke:#000000;stroke-width:0.5" />
<path d="M463.89,32.263L463.89,36.263" style="fill:none;stroke:#000000;stroke-width:0.5" />
<path d="M77.805,36.263L720,36.263" style="fill:none;stroke:#000000;stroke-width:0.5" />
<g transform="rotate(90)">
<text x="152.55" y="11.555" transform="scale(1, -1)"
	style="font-family:Times;font-weight:normal;font-style:normal;font-size:12px">Number of trials (1000000 total)</text>
</g>
<text x="24.055" y="-82.422" transform="scale(1, -1)"
	style="font-family:Times;font-weight:normal;font-style:normal;font-size:10px">25000.00</text>
<text x="19.055" y="-244.33" transform="scale(1, -1)"
	style="font-family:Times;font-weight:normal;font-style:normal;font-size:10px">125000.00</text>
<text x="19.055" y="-406.24" transform="scale(1, -1)"
	style="font-family:Times;font-weight:normal;font-style:normal;font-size:10px">225000.00</text>
<path d="M64.055,85.628L72.055,85.628" style="fill:none;stroke:#000000;stroke-width:0.5" />
<path d="M64.055,247.54L72.055,247.54" style="fill:none;stroke:#000000;stroke-width:0.5" />
<path d="M64.055,409.45L72.055,409.45" style="fill:none;stroke:#000000;stroke-width:0.5" />
<path d="M68.055,166.58L72.055,166.58" style="fill:none;stroke:#000000;stroke-width:0.5" />
<path d="M68.055,328.49L72.055,328.49" style="fill:none;stroke:#000000;stroke-width:0.5" />
<path d="M72.055,45.151L72.055,416.58" style="fill:none;stroke:#000000;stroke-width:0.5" />
<path d="M77.805,416.58L106.12,48.558L112.55,88.406L113.84,66.47L115.13,52.101L117.7,63.415L118.99,59.081L120.27,62.364L121.56,76.261L122.85,51.856L124.14,48.623L125.42,59.738L126.71,55.693L128,52.097L129.28,76.841L130.57,85.357L131.86,95.456L133.14,59.008L134.43,55.745L135.72,48.642L139.58,48.568L140.87,49.094L142.15,52.199L143.44,66.582L146.01,66.768L147.3,67.202L148.59,47.582L149.87,56.958L151.16,49.212L152.45,47.235L153.74,62.319L155.02,48.396L156.31,64.676L157.6,88.297L158.88,69.372L160.17,48.704L161.46,49.672L162.74,48.608L164.03,54.782L165.32,53.718L166.61,55.875L167.89,51.944L169.18,58.671L170.47,50.766L171.75,58.841L173.04,52.523L174.33,53.818L175.61,52.441L176.9,54.1L178.19,52.306L179.47,50.846L180.76,55.475L182.05,61.788L183.34,54.134L184.62,55.326L185.91,54.16L187.2,52.831L188.48,51.574L189.77,50.843L191.06,51.604L192.34,53.519L193.63,55.182L194.92,53.232L196.21,51.96L197.49,55.261L198.78,54.984L200.07,56.016L201.35,56.252L202.64,52.025L203.93,51.333L205.21,51.215L206.5,52.041L207.79,52.491L209.08,54.069L210.36,55.948L211.65,57.654L212.94,53.895L214.22,50.002L215.51,51.385L216.8,49.991L218.08,49.814L219.37,50.553L220.66,50.077L221.94,51.808L223.23,52.964L224.52,51.032L225.81,53.079L227.09,51.903L228.38,50.29L229.67,50.261L230.95,49.406L232.24,49.526L233.53,51.181L234.81,50.961L236.1,51.558L237.39,51.505L238.68,51.123L239.96,49.306L241.25,49.01L242.54,48.809L243.82,48.951L245.11,49.609L246.4,49.465L247.68,49.928L248.97,49.479L250.26,49.92L251.54,49.761L252.83,49.418L254.12,49.018L255.41,48.938L256.69,48.815L257.98,48.754L259.27,48.296L260.55,48.958L261.84,49.35L263.13,49.241L264.41,48.72L265.7,48.611L266.99,48.401L268.28,48.16L269.56,47.993L270.85,47.954L272.14,47.946L273.42,48.119L274.71,47.964L276,48.208L277.28,48.208L278.57,48.121L279.86,48.118L281.15,48.032L282.43,47.57L283.72,47.327L285.01,47.501L286.29,47.306L287.58,47.562L288.87,47.476L290.15,47.621L291.44,47.721L292.73,47.415L294.01,47.123L295.3,47.196L296.59,46.963L297.88,46.923L299.16,47.02L300.45,46.894L301.74,47.031L303.02,47.156L304.31,47.055L305.6,46.918L306.88,46.832L308.17,46.683L309.46,46.604L310.75,46.612L312.03,46.482L313.32,46.584L314.61,46.665L315.89,46.638L317.18,46.753L318.47,46.494L319.75,46.463L321.04,46.298L322.33,46.212L323.61,46.236L324.9,46.293L326.19,46.296L327.48,46.23L328.76,46.296L330.05,46.314L331.34,46.249L332.62,46.201L333.91,46.121L335.2,46.045L336.48,45.979L337.77,46.081L339.06,46.056L340.35,45.977L341.63,46.079L342.92,46.032L344.21,45.969L345.49,45.895L346.78,45.941L348.07,45.88L349.35,45.852L350.64,45.801L351.93,45.744L353.22,45.815L354.5,45.737L355.79,45.77L357.08,45.822L358.36,45.75L359.65,45.721L360.94,45.674L362.22,45.684L363.51,45.635L364.8,45.707L366.08,45.681L367.37,45.632L368.66,45.559L369.95,45.627L371.23,45.621L372.52,45.606L373.81,45.627L375.09,45.524L376.38,45.543L377.67,45.456L378.95,45.538L380.24,45.483L381.53,45.493L382.82,45.472L384.1,45.487L385.39,45.475L386.68,45.459L387.96,45.443L389.25,45.427L390.54,45.402L391.82,45.427L393.11,45.394L394.4,45.406L395.68,45.431L396.97,45.399L398.26,45.412L399.55,45.37L400.83,45.347L402.12,45.386L403.41,45.339L404.69,45.349L405.98,45.347L407.27,45.292L408.55,45.344L409.84,45.334L411.13,45.329L412.42,45.325L413.7,45.304L414.99,45.313L416.28,45.307L417.56,45.304L418.85,45.315L420.14,45.283L421.42,45.3L422.71,45.281L424,45.297L425.29,45.278L426.57,45.25L427.86,45.266L429.15,45.26L430.43,45.227L431.72,45.239L433.01,45.263L434.29,45.265L435.58,45.234L436.87,45.215L438.15,45.24L439.44,45.231L440.73,45.216L442.02,45.226L443.3,45.236L444.59,45.226L445.88,45.24L447.16,45.224L448.45,45.224L449.74,45.219L451.02,45.205L452.31,45.2L453.6,45.211L454.89,45.216L456.17,45.193L457.46,45.193L458.75,45.197L460.03,45.187L461.32,45.197L462.61,45.189L463.89,45.189L465.18,45.185L466.47,45.182L467.75,45.184L469.04,45.192L470.33,45.177L471.62,45.181L472.9,45.181L474.19,45.184L475.48,45.174L476.76,45.182L478.05,45.182L479.34,45.177L480.62,45.181L481.91,45.181L483.2,45.177L484.49,45.168L485.77,45.185L487.06,45.181L488.35,45.168L489.63,45.168L490.92,45.166L492.21,45.166L493.49,45.185L494.78,45.164L496.07,45.179L497.36,45.174L498.64,45.176L499.93,45.176L501.22,45.158L502.5,45.169L503.79,45.164L505.08,45.164L506.36,45.163L507.65,45.174L508.94,45.164L510.22,45.161L511.51,45.166L512.8,45.155L514.09,45.159L515.37,45.159L516.66,45.164L517.95,45.163L519.23,45.163L520.52,45.156L521.81,45.161L523.09,45.156L524.38,45.161L525.67,45.161L526.96,45.156L528.24,45.156L529.53,45.155L532.1,45.153L533.39,45.159L534.68,45.159L535.96,45.155L537.25,45.156L538.54,45.159L539.82,45.156L541.11,45.155L542.4,45.153L543.69,45.155L544.97,45.156L546.26,45.153L547.55,45.161L548.83,45.155L550.12,45.153L551.41,45.158L553.98,45.156L555.27,45.151L556.56,45.153L557.84,45.156L559.13,45.153L560.42,45.155L561.7,45.151L562.99,45.153L565.56,45.155L566.85,45.158L568.14,45.153L572,45.151L573.29,45.153L574.57,45.151L578.43,45.151L581.01,45.155L583.58,45.151L584.87,45.151L586.16,45.151L587.44,45.153L588.73,45.151L590.02,45.151L591.3,45.151L596.45,45.151L602.89,45.151L604.17,45.151L608.03,45.151L609.32,45.151L620.9,45.151L629.91,45.151L636.35,45.151L642.78,45.151L716.14,45.151L720,45.151" style="fill:none;stroke:#0000FF" />
</g>
</svg>
