<?xml version="1.0"?>
<!-- Generated by SVGo and Plotinum VG -->
<svg width="720pt" height="432pt" viewBox="0 0 720 432"
	xmlns="http://www.w3.org/2000/svg"
	xmlns:xlink="http://www.w3.org/1999/xlink">
<g transform="scale(1, -1) translate(0, -432)">
<path d="M0,0L720,0L720,432L0,432Z" style="fill:#FFFFFF" />
<text x="358.5" y="-420.45" transform="scale(1, -1)"
	style="font-family:Times;font-weight:normal;font-style:normal;font-size:12px"> </text>
<text x="385.56" y="-3.8613" transform="scale(1, -1)"
	style="font-family:Times;font-weight:normal;font-style:normal;font-size:12px">Costs</text>
<text x="75.305" y="-18.634" transform="scale(1, -1)"
	style="font-family:Times;font-weight:normal;font-style:normal;font-size:10px">0</text>
<text x="342.42" y="-18.634" transform="scale(1, -1)"
	style="font-family:Times;font-weight:normal;font-style:normal;font-size:10px">200</text>
<text x="614.54" y="-18.634" transform="scale(1, -1)"
	style="font-family:Times;font-weight:normal;font-style:normal;font-size:10px">400</text>
<path d="M77.805,28.263L77.805,36.263" style="fill:none;stroke:#000000;stroke-width:0.5" />
<path d="M349.92,28.263L349.92,36.263" style="fill:none;stroke:#000000;stroke-width:0.5" />
<path d="M622.04,28.263L622.04,36.263" style="fill:none;stroke:#000000;stroke-width:0.5" />
<path d="M213.86,32.263L213.86,36.263" style="fill:none;stroke:#000000;stroke-width:0.5" />
<path d="M485.98,32.263L485.98,36.263" style="fill:none;stroke:#000000;stroke-width:0.5" />
<path d="M77.805,36.263L720,36.263" style="fill:none;stroke:#000000;stroke-width:0.5" />
<g transform="rotate(90)">
<text x="152.55" y="11.555" transform="scale(1, -1)"
	style="font-family:Times;font-weight:normal;font-style:normal;font-size:12px">Number of trials (1000000 total)</text>
</g>
<text x="24.055" y="-93.961" transform="scale(1, -1)"
	style="font-family:Times;font-weight:normal;font-style:normal;font-size:10px">25000.00</text>
<text x="19.055" y="-250.01" transform="scale(1, -1)"
	style="font-family:Times;font-weight:normal;font-style:normal;font-size:10px">100000.00</text>
<text x="19.055" y="-406.06" transform="scale(1, -1)"
	style="font-family:Times;font-weight:normal;font-style:normal;font-size:10px">175000.00</text>
<path d="M64.055,97.167L72.055,97.167" style="fill:none;stroke:#000000;stroke-width:0.5" />
<path d="M64.055,253.22L72.055,253.22" style="fill:none;stroke:#000000;stroke-width:0.5" />
<path d="M64.055,409.27L72.055,409.27" style="fill:none;stroke:#000000;stroke-width:0.5" />
<path d="M68.055,175.19L72.055,175.19" style="fill:none;stroke:#000000;stroke-width:0.5" />
<path d="M68.055,331.24L72.055,331.24" style="fill:none;stroke:#000000;stroke-width:0.5" />
<path d="M72.055,45.151L72.055,416.58" style="fill:none;stroke:#000000;stroke-width:0.5" />
<path d="M77.805,416.58L107.74,51.943L110.46,48.568L113.18,55.455L114.54,69.724L115.9,66.429L117.26,66.223L119.98,62.219L121.34,69.117L122.7,52.024L124.06,69.743L125.43,69.641L126.79,52.066L128.15,73.578L129.51,62.958L130.87,59.267L132.23,55.384L133.59,59.281L134.95,65.567L136.31,77.695L137.67,84.262L139.03,59.032L140.39,66.185L143.11,52.351L144.47,58.975L145.83,74.219L147.19,59.608L148.56,45.432L149.92,70.692L151.28,64.163L152.64,50.83L154,68.965L155.36,47.224L156.72,50.622L158.08,69.687L159.44,49.132L160.8,59.987L162.16,56.148L163.52,65.234L164.88,50.513L166.24,51.063L167.6,52.519L168.96,61.574L170.32,51.541L171.68,53.26L173.05,53.917L174.41,55.143L175.77,55.569L177.13,75.611L178.49,63.582L179.85,55.218L181.21,54.974L182.57,56.574L183.93,57.554L185.29,55.84L186.65,67.017L188.01,68.291L189.37,56.932L190.73,56.92L192.09,55.311L193.45,57.943L194.81,55.888L196.18,58.855L197.54,58.659L198.9,55.313L200.26,57.29L201.62,56.264L202.98,54.766L204.34,56.874L205.7,57.527L207.06,55.703L208.42,56.079L209.78,55.742L211.14,54.837L212.5,55.688L213.86,56.381L215.22,55.139L216.58,55.669L217.94,54.444L219.31,55.176L220.67,56.008L222.03,54.571L223.39,55.898L224.75,54.35L226.11,55.63L227.47,54.44L228.83,53.919L230.19,55.06L231.55,53.884L232.91,52.969L234.27,54.571L235.63,54.743L236.99,56.148L238.35,54.435L239.71,53.037L241.07,52.525L242.44,52.253L243.8,53.391L245.16,54.492L246.52,54.352L247.88,52.648L249.24,53.376L250.6,52.756L251.96,51.755L253.32,52.758L254.68,52.842L256.04,52.38L257.4,52.48L258.76,52.149L260.12,52.721L261.48,51.562L262.84,52.384L264.2,51.431L265.57,51.023L266.93,51.273L268.29,51.67L269.65,51.054L271.01,50.855L272.37,51.046L273.73,51.002L275.09,50.486L276.45,50.545L277.81,51.202L279.17,50.555L280.53,50.305L281.89,50.353L283.25,50.366L284.61,50.076L285.97,50.638L287.33,50.773L288.7,50.197L290.06,49.714L291.42,49.762L292.78,49.827L294.14,49.614L295.5,49.633L296.86,50.058L298.22,49.288L299.58,49.344L300.94,49.159L302.3,49.217L303.66,49.065L305.02,49.254L306.38,49.269L307.74,48.98L309.1,48.732L310.46,48.895L311.83,48.528L313.19,48.628L314.55,48.607L315.91,48.595L317.27,48.468L318.63,48.431L319.99,48.314L321.35,48.291L322.71,48.154L324.07,48.052L325.43,48.156L326.79,48.023L328.15,48.062L329.51,47.883L330.87,47.846L332.23,47.713L333.59,47.709L334.95,47.686L336.32,47.694L337.68,47.542L339.04,47.53L340.4,47.428L341.76,47.378L343.12,47.465L344.48,47.374L345.84,47.284L347.2,47.29L348.56,47.195L349.92,47.147L351.28,47.093L352.64,46.955L354,47.122L355.36,47.014L356.72,46.874L358.08,46.795L359.45,46.801L360.81,46.747L362.17,46.745L363.53,46.745L364.89,46.656L366.25,46.662L367.61,46.697L368.97,46.649L370.33,46.516L371.69,46.587L373.05,46.597L374.41,46.483L375.77,46.366L377.13,46.306L378.49,46.387L379.85,46.335L381.21,46.302L382.58,46.373L383.94,46.312L385.3,46.283L386.66,46.194L388.02,46.248L389.38,46.171L390.74,46.121L392.1,46.117L393.46,46.2L394.82,46.05L396.18,46.079L397.54,46.034L398.9,45.957L400.26,45.957L401.62,46.004L402.98,45.934L404.34,45.971L405.71,45.923L407.07,45.884L408.43,45.798L409.79,45.905L411.15,45.819L412.51,45.819L413.87,45.778L415.23,45.749L416.59,45.742L417.95,45.78L419.31,45.699L420.67,45.663L422.03,45.711L423.39,45.732L424.75,45.659L426.11,45.634L427.47,45.611L428.84,45.549L430.2,45.603L431.56,45.574L432.92,45.628L434.28,45.503L435.64,45.561L437,45.553L438.36,45.549L439.72,45.501L441.08,45.534L442.44,45.54L443.8,45.507L445.16,45.434L446.52,45.484L447.88,45.484L449.24,45.463L450.6,45.447L451.97,45.43L453.33,45.424L454.69,45.422L456.05,45.424L457.41,45.418L458.77,45.409L460.13,45.386L461.49,45.414L462.85,45.343L464.21,45.409L465.57,45.386L466.93,45.38L468.29,45.353L469.65,45.368L471.01,45.368L472.37,45.37L473.73,45.343L475.1,45.334L476.46,45.305L477.82,45.299L479.18,45.349L480.54,45.293L481.9,45.301L483.26,45.303L484.62,45.301L485.98,45.26L487.34,45.293L488.7,45.274L490.06,45.27L491.42,45.282L492.78,45.27L494.14,45.285L495.5,45.28L496.86,45.245L498.22,45.247L499.59,45.243L500.95,45.226L502.31,45.212L503.67,45.257L505.03,45.23L506.39,45.23L507.75,45.239L509.11,45.212L510.47,45.214L511.83,45.224L513.19,45.205L514.55,45.228L515.91,45.205L517.27,45.208L518.63,45.233L519.99,45.22L521.35,45.205L522.72,45.199L524.08,45.218L525.44,45.22L526.8,45.203L528.16,45.203L529.52,45.212L530.88,45.222L532.24,45.191L533.6,45.197L534.96,45.205L536.32,45.201L537.68,45.203L539.04,45.199L540.4,45.189L541.76,45.183L543.12,45.189L544.48,45.191L545.85,45.197L547.21,45.187L548.57,45.172L549.93,45.178L551.29,45.166L552.65,45.193L554.01,45.17L555.37,45.176L556.73,45.189L558.09,45.185L559.45,45.176L560.81,45.178L562.17,45.183L563.53,45.174L564.89,45.164L566.25,45.166L567.61,45.17L568.98,45.174L570.34,45.166L571.7,45.16L573.06,45.164L574.42,45.153L575.78,45.176L577.14,45.158L578.5,45.166L579.86,45.158L581.22,45.17L582.58,45.164L583.94,45.162L585.3,45.162L586.66,45.162L588.02,45.164L589.38,45.153L590.74,45.158L592.11,45.156L593.47,45.156L594.83,45.158L596.19,45.162L597.55,45.158L598.91,45.153L600.27,45.164L601.63,45.151L602.99,45.164L604.35,45.151L605.71,45.153L607.07,45.156L608.43,45.156L609.79,45.158L611.15,45.16L612.51,45.153L613.87,45.16L615.24,45.153L616.6,45.156L617.96,45.151L619.32,45.153L620.68,45.16L622.04,45.153L623.4,45.151L624.76,45.156L626.12,45.151L627.48,45.16L628.84,45.151L630.2,45.153L631.56,45.151L632.92,45.158L634.28,45.151L637,45.151L638.37,45.151L639.73,45.156L641.09,45.151L642.45,45.151L643.81,45.151L646.53,45.156L647.89,45.151L650.61,45.151L654.69,45.153L656.05,45.151L657.41,45.153L658.77,45.153L662.86,45.153L665.58,45.153L666.94,45.151L668.3,45.156L671.02,45.151L672.38,45.151L677.82,45.153L679.18,45.151L681.9,45.151L683.26,45.151L690.07,45.151L692.79,45.151L710.48,45.151L714.56,45.151L720,45.151" style="fill:none;stroke:#0000FF" />
</g>
</svg>
