<?xml version="1.0"?>
<!-- Generated by SVGo and Plotinum VG -->
<svg width="720pt" height="432pt" viewBox="0 0 720 432"
	xmlns="http://www.w3.org/2000/svg"
	xmlns:xlink="http://www.w3.org/1999/xlink">
<g transform="scale(1, -1) translate(0, -432)">
<path d="M0,0L720,0L720,432L0,432Z" style="fill:#FFFFFF" />
<text x="358.5" y="-420.45" transform="scale(1, -1)"
	style="font-family:Times;font-weight:normal;font-style:normal;font-size:12px"> </text>
<text x="379.31" y="-3.8613" transform="scale(1, -1)"
	style="font-family:Times;font-weight:normal;font-style:normal;font-size:12px">Costs</text>
<text x="62.805" y="-18.634" transform="scale(1, -1)"
	style="font-family:Times;font-weight:normal;font-style:normal;font-size:10px">0</text>
<text x="349.43" y="-18.634" transform="scale(1, -1)"
	style="font-family:Times;font-weight:normal;font-style:normal;font-size:10px">200</text>
<text x="641.05" y="-18.634" transform="scale(1, -1)"
	style="font-family:Times;font-weight:normal;font-style:normal;font-size:10px">400</text>
<path d="M65.305,28.263L65.305,36.263" style="fill:none;stroke:#000000;stroke-width:0.5" />
<path d="M356.93,28.263L356.93,36.263" style="fill:none;stroke:#000000;stroke-width:0.5" />
<path d="M648.55,28.263L648.55,36.263" style="fill:none;stroke:#000000;stroke-width:0.5" />
<path d="M211.12,32.263L211.12,36.263" style="fill:none;stroke:#000000;stroke-width:0.5" />
<path d="M502.74,32.263L502.74,36.263" style="fill:none;stroke:#000000;stroke-width:0.5" />
<path d="M65.305,36.263L720,36.263" style="fill:none;stroke:#000000;stroke-width:0.5" />
<g transform="rotate(90)">
<text x="152.55" y="11.555" transform="scale(1, -1)"
	style="font-family:Times;font-weight:normal;font-style:normal;font-size:12px">Number of trials (1000000 total)</text>
</g>
<text x="24.055" y="-114.44" transform="scale(1, -1)"
	style="font-family:Times;font-weight:normal;font-style:normal;font-size:10px">50000</text>
<text x="19.055" y="-259.43" transform="scale(1, -1)"
	style="font-family:Times;font-weight:normal;font-style:normal;font-size:10px">150000</text>
<text x="19.055" y="-404.41" transform="scale(1, -1)"
	style="font-family:Times;font-weight:normal;font-style:normal;font-size:10px">250000</text>
<path d="M51.555,117.64L59.555,117.64" style="fill:none;stroke:#000000;stroke-width:0.5" />
<path d="M51.555,262.63L59.555,262.63" style="fill:none;stroke:#000000;stroke-width:0.5" />
<path d="M51.555,407.62L59.555,407.62" style="fill:none;stroke:#000000;stroke-width:0.5" />
<path d="M55.555,190.14L59.555,190.14" style="fill:none;stroke:#000000;stroke-width:0.5" />
<path d="M55.555,335.13L59.555,335.13" style="fill:none;stroke:#000000;stroke-width:0.5" />
<path d="M59.555,45.151L59.555,416.58" style="fill:none;stroke:#000000;stroke-width:0.5" />
<path d="M65.305,416.58L97.383,52.063L103.22,62.385L104.67,58.948L106.13,70.424L107.59,48.635L109.05,51.957L110.51,59.36L111.96,63.057L114.88,77.734L116.34,62.557L119.26,48.502L122.17,62.693L125.09,55.36L126.55,62.383L128,62.425L129.46,80.736L130.92,55.186L132.38,48.498L135.29,52.447L136.75,66.531L138.21,66.389L139.67,59.075L141.13,45.479L142.58,98.785L144.04,71.162L145.5,53.016L146.96,49.82L148.42,53.439L149.88,50.314L151.33,46.711L152.79,47.858L154.25,61.987L155.71,69.995L157.17,58.308L158.62,46.582L160.08,48.044L161.54,48.741L163,47.899L164.46,47.241L165.91,49.32L167.37,49.743L168.83,50.074L170.29,49.405L171.75,53.06L173.21,55.648L174.66,50.716L176.12,52.031L177.58,61.67L179.04,51.68L180.5,52.34L181.95,57.978L183.41,64.151L184.87,50.919L186.33,52.682L187.79,52.686L189.24,54.01L190.7,50.081L192.16,54.013L193.62,54.757L195.08,52.175L196.54,50.224L197.99,49.581L199.45,52.678L200.91,52.376L202.37,52.144L203.83,52.776L205.28,52.668L206.74,54.886L208.2,51.406L209.66,50.265L211.12,49.469L212.57,50.107L214.03,51.199L215.49,52.969L216.95,52.686L218.41,51.915L219.87,53.392L221.32,53.218L222.78,51.025L224.24,49.494L225.7,49.208L227.16,51.196L228.61,50.586L230.07,49.124L231.53,49.961L232.99,52.743L234.45,51.763L235.9,48.737L237.36,48.888L238.82,48.972L240.28,48.727L241.74,48.314L243.2,48.725L244.65,49.694L246.11,49.759L247.57,49.846L249.03,48.978L250.49,49.507L251.94,48.554L253.4,48.454L254.86,50.068L256.32,49.507L257.78,48.514L259.23,48.683L260.69,49.92L262.15,49.086L263.61,48.605L265.07,48.318L266.53,48.712L267.98,48.575L269.44,48.012L270.9,48.231L272.36,48.662L273.82,48.445L275.27,47.877L276.73,47.51L278.19,47.905L279.65,47.812L281.11,47.692L282.56,47.703L284.02,47.86L285.48,47.802L286.94,47.267L288.4,47.323L289.85,47.555L291.31,47.593L292.77,47.494L294.23,47.663L295.69,47.731L297.15,47.375L298.6,47.487L300.06,47.433L301.52,47.07L302.98,46.842L304.44,47.065L305.89,47.094L307.35,47.057L308.81,46.826L310.27,47.045L311.73,47.057L313.18,46.904L314.64,46.691L316.1,46.646L317.56,46.697L319.02,46.593L320.48,46.532L321.93,46.633L323.39,46.652L324.85,46.63L326.31,46.577L327.77,46.514L329.22,46.342L330.68,46.268L332.14,46.35L333.6,46.395L335.06,46.408L336.51,46.314L337.97,46.363L339.43,46.419L340.89,46.191L342.35,46.181L343.81,46.149L345.26,46.187L346.72,46.111L348.18,46.014L349.64,46.026L351.1,46.123L352.55,46.002L354.01,45.895L355.47,45.931L356.93,46.011L358.39,45.902L359.84,45.871L361.3,45.884L362.76,45.875L364.22,45.857L365.68,45.801L367.14,45.786L368.59,45.815L370.05,45.752L371.51,45.805L372.97,45.85L374.43,45.792L375.88,45.724L377.34,45.71L378.8,45.67L380.26,45.699L381.72,45.692L383.17,45.66L384.63,45.66L386.09,45.654L387.55,45.607L389.01,45.607L390.47,45.556L391.92,45.575L393.38,45.538L394.84,45.541L396.3,45.525L397.76,45.508L399.21,45.462L400.67,45.509L402.13,45.502L403.59,45.475L405.05,45.488L406.5,45.46L407.96,45.499L409.42,45.457L410.88,45.427L412.34,45.447L413.8,45.436L415.25,45.409L416.71,45.405L418.17,45.396L419.63,45.388L421.09,45.391L422.54,45.405L424,45.38L425.46,45.383L426.92,45.344L428.38,45.357L429.83,45.343L431.29,45.321L432.75,45.35L434.21,45.331L435.67,45.309L437.12,45.304L438.58,45.321L440.04,45.295L441.5,45.293L442.96,45.308L444.42,45.304L445.87,45.296L447.33,45.275L448.79,45.278L450.25,45.276L451.71,45.314L453.16,45.264L454.62,45.262L456.08,45.249L457.54,45.273L459,45.25L460.45,45.241L461.91,45.25L463.37,45.256L464.83,45.25L466.29,45.235L467.75,45.231L469.2,45.234L470.66,45.218L472.12,45.221L473.58,45.238L475.04,45.218L476.49,45.221L477.95,45.224L479.41,45.233L480.87,45.208L482.33,45.224L483.78,45.206L485.24,45.209L486.7,45.204L488.16,45.199L489.62,45.209L491.08,45.212L492.53,45.204L493.99,45.191L495.45,45.196L496.91,45.201L498.37,45.182L499.82,45.189L501.28,45.188L502.74,45.205L504.2,45.195L505.66,45.198L507.11,45.188L508.57,45.193L510.03,45.172L511.49,45.179L512.95,45.18L514.41,45.18L515.86,45.175L517.32,45.183L518.78,45.164L520.24,45.182L521.7,45.182L523.15,45.17L524.61,45.169L526.07,45.167L527.53,45.172L528.99,45.172L530.44,45.169L531.9,45.169L533.36,45.172L534.82,45.162L536.28,45.175L537.74,45.164L539.19,45.179L540.65,45.173L542.11,45.169L543.57,45.162L545.03,45.163L546.48,45.167L547.94,45.16L549.4,45.166L550.86,45.163L552.32,45.16L553.77,45.163L555.23,45.16L556.69,45.162L558.15,45.159L559.61,45.167L561.07,45.154L562.52,45.166L563.98,45.169L565.44,45.154L566.9,45.162L568.36,45.162L569.81,45.157L571.27,45.156L572.73,45.153L574.19,45.154L575.65,45.156L577.1,45.16L578.56,45.154L580.02,45.154L581.48,45.156L582.94,45.154L584.39,45.156L585.85,45.157L587.31,45.151L588.77,45.154L590.23,45.153L591.69,45.156L593.14,45.156L594.6,45.154L596.06,45.154L597.52,45.151L598.98,45.153L601.89,45.151L603.35,45.153L604.81,45.156L606.27,45.156L607.72,45.151L609.18,45.153L612.1,45.153L615.02,45.154L616.47,45.151L617.93,45.153L620.85,45.159L622.31,45.151L626.68,45.153L628.14,45.151L632.51,45.151L633.97,45.151L635.43,45.151L639.8,45.151L641.26,45.151L642.72,45.151L644.18,45.151L648.55,45.153L650.01,45.153L654.38,45.156L655.84,45.151L660.22,45.151L664.59,45.151L668.97,45.151L670.42,45.151L677.71,45.151L679.17,45.151L680.63,45.154L686.46,45.151L690.84,45.151L692.3,45.151L702.5,45.151L720,45.151" style="fill:none;stroke:#0000FF" />
</g>
</svg>
