<?xml version="1.0"?>
<!-- Generated by SVGo and Plotinum VG -->
<svg width="720pt" height="432pt" viewBox="0 0 720 432"
	xmlns="http://www.w3.org/2000/svg"
	xmlns:xlink="http://www.w3.org/1999/xlink">
<g transform="scale(1, -1) translate(0, -432)">
<path d="M0,0L720,0L720,432L0,432Z" style="fill:#FFFFFF" />
<text x="358.5" y="-420.45" transform="scale(1, -1)"
	style="font-family:Times;font-weight:normal;font-style:normal;font-size:12px"> </text>
<text x="376.81" y="-3.8613" transform="scale(1, -1)"
	style="font-family:Times;font-weight:normal;font-style:normal;font-size:12px">Costs</text>
<text x="57.805" y="-18.634" transform="scale(1, -1)"
	style="font-family:Times;font-weight:normal;font-style:normal;font-size:10px">0</text>
<text x="373.56" y="-18.634" transform="scale(1, -1)"
	style="font-family:Times;font-weight:normal;font-style:normal;font-size:10px">300</text>
<text x="694.32" y="-18.634" transform="scale(1, -1)"
	style="font-family:Times;font-weight:normal;font-style:normal;font-size:10px">600</text>
<path d="M60.305,28.263L60.305,36.263" style="fill:none;stroke:#000000;stroke-width:0.5" />
<path d="M381.06,28.263L381.06,36.263" style="fill:none;stroke:#000000;stroke-width:0.5" />
<path d="M701.82,28.263L701.82,36.263" style="fill:none;stroke:#000000;stroke-width:0.5" />
<path d="M167.22,32.263L167.22,36.263" style="fill:none;stroke:#000000;stroke-width:0.5" />
<path d="M274.14,32.263L274.14,36.263" style="fill:none;stroke:#000000;stroke-width:0.5" />
<path d="M487.98,32.263L487.98,36.263" style="fill:none;stroke:#000000;stroke-width:0.5" />
<path d="M594.9,32.263L594.9,36.263" style="fill:none;stroke:#000000;stroke-width:0.5" />
<path d="M60.305,36.263L720,36.263" style="fill:none;stroke:#000000;stroke-width:0.5" />
<g transform="rotate(90)">
<text x="152.55" y="11.555" transform="scale(1, -1)"
	style="font-family:Times;font-weight:normal;font-style:normal;font-size:12px">Number of trials (1000000 total)</text>
</g>
<text x="19.055" y="-109.55" transform="scale(1, -1)"
	style="font-family:Times;font-weight:normal;font-style:normal;font-size:10px">10000</text>
<text x="19.055" y="-244.78" transform="scale(1, -1)"
	style="font-family:Times;font-weight:normal;font-style:normal;font-size:10px">30000</text>
<text x="19.055" y="-380" transform="scale(1, -1)"
	style="font-family:Times;font-weight:normal;font-style:normal;font-size:10px">50000</text>
<path d="M46.555,112.76L54.555,112.76" style="fill:none;stroke:#000000;stroke-width:0.5" />
<path d="M46.555,247.98L54.555,247.98" style="fill:none;stroke:#000000;stroke-width:0.5" />
<path d="M46.555,383.21L54.555,383.21" style="fill:none;stroke:#000000;stroke-width:0.5" />
<path d="M50.555,180.37L54.555,180.37" style="fill:none;stroke:#000000;stroke-width:0.5" />
<path d="M50.555,315.6L54.555,315.6" style="fill:none;stroke:#000000;stroke-width:0.5" />
<path d="M54.555,45.151L54.555,416.58" style="fill:none;stroke:#000000;stroke-width:0.5" />
<path d="M60.305,416.58L83.827,86.226L84.896,55.74L88.104,108.34L89.173,59.31L90.242,92.69L92.381,59.749L93.45,95.523L94.519,55.767L95.588,66.7L96.657,121.99L97.727,84.678L98.796,66.193L99.865,69.614L102,112.72L103.07,112.07L104.14,125.89L105.21,89.161L106.28,90.033L107.35,76.537L108.42,52.778L109.49,55.787L111.63,58.688L112.7,69.58L113.76,53.853L114.83,68.309L115.9,49.249L116.97,71.717L118.04,73.657L119.11,60.466L120.18,75.854L121.25,78.525L122.32,75.645L123.39,73.603L124.46,72.285L125.53,84.313L126.59,105.32L127.66,72.568L128.73,61.892L129.8,78.769L130.87,73.089L131.94,88.363L133.01,76.646L134.08,78.255L135.15,77.173L136.22,76.882L137.29,73.515L138.36,112.12L139.43,84.448L140.49,87.653L141.56,80.723L142.63,109.03L143.7,74.333L144.77,79.154L145.84,84.55L146.91,98.478L147.98,83.515L149.05,85.537L150.12,85.415L151.19,80.297L152.26,69.979L153.32,73.474L154.39,78.18L155.46,75.53L156.53,78.289L157.6,74.063L158.67,77.166L159.74,81.142L160.81,76.733L161.88,83.109L162.95,82.643L164.02,82.359L165.09,79.445L166.16,87.991L167.22,80.702L168.29,87.234L169.36,83.17L170.43,88.126L171.5,82.724L172.57,80.439L173.64,77.383L174.71,84.915L175.78,82.71L176.85,78.478L177.92,79.533L178.99,83.082L180.05,82.873L181.12,83.008L182.19,84.766L183.26,85.131L184.33,87.491L185.4,84.232L186.47,83.819L187.54,79.553L188.61,81.588L189.68,81.662L190.75,80.98L191.82,80.344L192.89,79.35L193.95,76.449L195.02,77.531L196.09,75.983L197.16,75.719L198.23,76.078L199.3,78.539L200.37,78.045L201.44,77.065L202.51,77.558L203.58,79.965L204.65,81.047L205.72,77.362L206.78,76.774L207.85,78.518L208.92,78.16L209.99,78.038L211.06,75.361L212.13,77.355L213.2,77.315L214.27,76.199L215.34,75.016L216.41,74.266L217.48,74.766L218.55,75.063L219.62,74.495L220.68,76.49L221.75,74.529L222.82,74.698L223.89,73.515L224.96,75.726L226.03,73.427L227.1,73.684L228.17,74.245L229.24,75.043L230.31,71.811L231.38,73.021L232.45,72.041L233.51,70.953L234.58,70.77L235.65,70.398L236.72,70.824L237.79,70.817L238.86,69.641L239.93,69.796L241,70.006L242.07,70.141L243.14,69.641L244.21,68.667L245.28,69.708L246.35,69.343L247.41,68.356L248.48,69.546L249.55,68.079L250.62,68.363L251.69,66.95L252.76,67.45L253.83,67.105L254.9,66.037L255.97,66.368L257.04,67.362L258.11,65.347L259.18,64.387L260.24,64.529L261.31,65.273L262.38,65.672L263.45,64.888L264.52,63.731L265.59,64.279L266.66,64.232L267.73,63.65L268.8,63.373L269.87,63.123L270.94,63.657L272.01,62.528L273.08,62.859L274.14,62.21L275.21,61.865L276.28,61.48L277.35,60.953L278.42,61.392L279.49,60.696L280.56,60.297L281.63,61.162L282.7,59.85L283.77,60.175L284.84,59.397L285.91,59.986L286.97,60.533L288.04,59.621L289.11,59.005L290.18,59.127L291.25,58.694L292.32,58.89L293.39,58.302L294.46,58.065L295.53,57.923L296.6,57.849L297.67,56.97L298.74,57.396L299.81,56.842L300.87,57.153L301.94,56.524L303.01,56.713L304.08,56.091L305.15,56.186L306.22,55.841L307.29,56.051L308.36,55.361L309.43,55.949L310.5,55.658L311.57,55.07L312.64,54.867L313.7,55.3L314.77,54.82L315.84,54.759L316.91,53.968L317.98,53.623L319.05,54.009L320.12,53.853L321.19,53.63L322.26,53.738L323.33,53.265L324.4,53.049L325.47,53.278L326.54,52.643L327.6,52.873L328.67,52.521L329.74,52.372L330.81,52.805L331.88,52.251L332.95,52.366L334.02,52.318L335.09,51.919L336.16,51.987L337.23,51.581L338.3,51.703L339.37,51.284L340.43,51.311L341.5,50.993L342.57,51.297L343.64,50.959L344.71,50.871L345.78,50.432L346.85,50.479L347.92,50.209L348.99,50.635L350.06,50.297L351.13,50.216L352.2,49.992L353.27,50.148L354.33,49.911L355.4,49.932L356.47,49.857L357.54,49.553L358.61,49.533L359.68,49.316L360.75,49.35L361.82,49.303L362.89,49.073L363.96,49.141L365.03,49.141L366.1,48.823L367.16,48.512L368.23,48.681L369.3,48.559L370.37,48.688L371.44,48.519L372.51,48.431L373.58,48.546L374.65,48.275L375.72,48.37L376.79,48.295L377.86,47.917L378.93,47.991L379.99,48.262L381.06,47.971L382.13,47.917L383.2,48.011L384.27,47.667L385.34,47.7L386.41,47.612L387.48,47.633L388.55,47.308L389.62,47.491L390.69,47.626L391.76,47.443L392.83,47.349L393.89,47.227L394.96,47.403L396.03,47.41L397.1,47.207L398.17,47.247L399.24,46.943L400.31,46.889L401.38,47.065L402.45,46.821L403.52,46.862L404.59,46.862L405.66,46.957L406.72,46.788L407.79,46.923L408.86,46.855L409.93,46.578L411,46.666L412.07,46.713L413.14,46.605L414.21,46.436L415.28,46.578L416.35,46.355L417.42,46.402L418.49,46.395L419.56,46.328L420.62,46.362L421.69,46.321L422.76,46.199L423.83,46.206L424.9,46.294L425.97,46.111L427.04,46.064L428.11,46.051L429.18,46.159L430.25,46.132L431.32,46.017L432.39,46.017L433.45,45.909L434.52,46.091L435.59,45.963L436.66,45.942L437.73,45.848L438.8,45.963L439.87,45.834L440.94,45.753L442.01,45.841L443.08,45.868L444.15,45.834L445.22,45.76L446.29,45.645L447.35,45.74L448.42,45.814L449.49,45.692L450.56,45.658L451.63,45.713L452.7,45.618L453.77,45.544L454.84,45.604L455.91,45.618L456.98,45.638L458.05,45.719L459.12,45.564L460.18,45.746L461.25,45.611L462.32,45.584L463.39,45.557L464.46,45.469L465.53,45.577L466.6,45.516L467.67,45.537L468.74,45.476L469.81,45.456L470.88,45.571L471.95,45.408L473.02,45.429L474.08,45.571L475.15,45.456L476.22,45.408L477.29,45.449L478.36,45.422L479.43,45.374L480.5,45.408L481.57,45.381L482.64,45.374L483.71,45.456L484.78,45.361L485.85,45.3L486.91,45.368L487.98,45.327L489.05,45.347L490.12,45.408L491.19,45.381L492.26,45.334L493.33,45.388L494.4,45.402L495.47,45.314L496.54,45.266L497.61,45.334L498.68,45.253L499.75,45.307L500.81,45.395L501.88,45.28L502.95,45.334L504.02,45.273L505.09,45.293L506.16,45.239L507.23,45.239L508.3,45.26L509.37,45.233L510.44,45.26L511.51,45.253L512.58,45.246L513.64,45.219L514.71,45.253L515.78,45.233L516.85,45.233L517.92,45.253L518.99,45.239L520.06,45.239L521.13,45.219L522.2,45.239L523.27,45.26L524.34,45.219L525.41,45.172L526.48,45.199L527.54,45.219L528.61,45.212L529.68,45.233L530.75,45.226L531.82,45.219L532.89,45.219L533.96,45.212L535.03,45.192L536.1,45.185L537.17,45.178L538.24,45.172L539.31,45.212L540.37,45.192L541.44,45.165L542.51,45.178L543.58,45.158L544.65,45.212L545.72,45.192L546.79,45.185L547.86,45.178L548.93,45.165L550,45.205L551.07,45.212L552.14,45.199L553.21,45.165L554.27,45.185L555.34,45.151L556.41,45.158L557.48,45.158L558.55,45.178L559.62,45.165L560.69,45.178L561.76,45.172L562.83,45.151L563.9,45.165L564.97,45.165L566.04,45.158L568.17,45.158L569.24,45.151L570.31,45.158L571.38,45.178L572.45,45.158L573.52,45.178L574.59,45.165L575.66,45.158L576.73,45.165L577.8,45.165L578.87,45.158L579.94,45.158L582.07,45.165L583.14,45.158L584.21,45.158L585.28,45.172L586.35,45.158L587.42,45.151L590.63,45.172L591.7,45.158L592.77,45.151L594.9,45.158L595.97,45.158L597.04,45.158L598.11,45.165L599.18,45.151L600.25,45.151L603.46,45.165L604.53,45.158L605.6,45.165L606.66,45.151L608.8,45.158L610.94,45.151L612.01,45.151L613.08,45.158L615.22,45.151L616.29,45.151L619.5,45.151L621.63,45.151L629.12,45.158L631.26,45.151L633.39,45.151L634.46,45.151L635.53,45.151L636.6,45.151L640.88,45.151L641.95,45.151L646.23,45.158L650.5,45.151L652.64,45.158L653.71,45.151L659.06,45.151L667.61,45.151L680.44,45.151L716.79,45.151L720,45.151" style="fill:none;stroke:#0000FF" />
</g>
</svg>
