<?xml version="1.0"?>
<!-- Generated by SVGo and Plotinum VG -->
<svg width="720pt" height="432pt" viewBox="0 0 720 432"
	xmlns="http://www.w3.org/2000/svg"
	xmlns:xlink="http://www.w3.org/1999/xlink">
<g transform="scale(1, -1) translate(0, -432)">
<path d="M0,0L720,0L720,432L0,432Z" style="fill:#FFFFFF" />
<text x="358.5" y="-420.45" transform="scale(1, -1)"
	style="font-family:Times;font-weight:normal;font-style:normal;font-size:12px"> </text>
<text x="385.56" y="-3.8613" transform="scale(1, -1)"
	style="font-family:Times;font-weight:normal;font-style:normal;font-size:12px">Costs</text>
<text x="69.055" y="-18.634" transform="scale(1, -1)"
	style="font-family:Times;font-weight:normal;font-style:normal;font-size:10px">0.00</text>
<text x="354.38" y="-18.634" transform="scale(1, -1)"
	style="font-family:Times;font-weight:normal;font-style:normal;font-size:10px">250.00</text>
<text x="644.7" y="-18.634" transform="scale(1, -1)"
	style="font-family:Times;font-weight:normal;font-style:normal;font-size:10px">500.00</text>
<path d="M77.805,28.263L77.805,36.263" style="fill:none;stroke:#000000;stroke-width:0.5" />
<path d="M368.13,28.263L368.13,36.263" style="fill:none;stroke:#000000;stroke-width:0.5" />
<path d="M658.45,28.263L658.45,36.263" style="fill:none;stroke:#000000;stroke-width:0.5" />
<path d="M135.87,32.263L135.87,36.263" style="fill:none;stroke:#000000;stroke-width:0.5" />
<path d="M193.93,32.263L193.93,36.263" style="fill:none;stroke:#000000;stroke-width:0.5" />
<path d="M252,32.263L252,36.263" style="fill:none;stroke:#000000;stroke-width:0.5" />
<path d="M310.06,32.263L310.06,36.263" style="fill:none;stroke:#000000;stroke-width:0.5" />
<path d="M426.19,32.263L426.19,36.263" style="fill:none;stroke:#000000;stroke-width:0.5" />
<path d="M484.26,32.263L484.26,36.263" style="fill:none;stroke:#000000;stroke-width:0.5" />
<path d="M542.32,32.263L542.32,36.263" style="fill:none;stroke:#000000;stroke-width:0.5" />
<path d="M600.39,32.263L600.39,36.263" style="fill:none;stroke:#000000;stroke-width:0.5" />
<path d="M716.52,32.263L716.52,36.263" style="fill:none;stroke:#000000;stroke-width:0.5" />
<path d="M77.805,36.263L720,36.263" style="fill:none;stroke:#000000;stroke-width:0.5" />
<g transform="rotate(90)">
<text x="152.55" y="11.555" transform="scale(1, -1)"
	style="font-family:Times;font-weight:normal;font-style:normal;font-size:12px">Number of trials (1000000 total)</text>
</g>
<text x="24.055" y="-110.97" transform="scale(1, -1)"
	style="font-family:Times;font-weight:normal;font-style:normal;font-size:10px">25000.00</text>
<text x="24.055" y="-249.03" transform="scale(1, -1)"
	style="font-family:Times;font-weight:normal;font-style:normal;font-size:10px">75000.00</text>
<text x="19.055" y="-387.09" transform="scale(1, -1)"
	style="font-family:Times;font-weight:normal;font-style:normal;font-size:10px">125000.00</text>
<path d="M64.055,114.18L72.055,114.18" style="fill:none;stroke:#000000;stroke-width:0.5" />
<path d="M64.055,252.24L72.055,252.24" style="fill:none;stroke:#000000;stroke-width:0.5" />
<path d="M64.055,390.3L72.055,390.3" style="fill:none;stroke:#000000;stroke-width:0.5" />
<path d="M68.055,58.955L72.055,58.955" style="fill:none;stroke:#000000;stroke-width:0.5" />
<path d="M68.055,86.566L72.055,86.566" style="fill:none;stroke:#000000;stroke-width:0.5" />
<path d="M68.055,141.79L72.055,141.79" style="fill:none;stroke:#000000;stroke-width:0.5" />
<path d="M68.055,169.4L72.055,169.4" style="fill:none;stroke:#000000;stroke-width:0.5" />
<path d="M68.055,197.01L72.055,197.01" style="fill:none;stroke:#000000;stroke-width:0.5" />
<path d="M68.055,224.63L72.055,224.63" style="fill:none;stroke:#000000;stroke-width:0.5" />
<path d="M68.055,279.85L72.055,279.85" style="fill:none;stroke:#000000;stroke-width:0.5" />
<path d="M68.055,307.46L72.055,307.46" style="fill:none;stroke:#000000;stroke-width:0.5" />
<path d="M68.055,335.07L72.055,335.07" style="fill:none;stroke:#000000;stroke-width:0.5" />
<path d="M68.055,362.69L72.055,362.69" style="fill:none;stroke:#000000;stroke-width:0.5" />
<path d="M72.055,45.151L72.055,416.58" style="fill:none;stroke:#000000;stroke-width:0.5" />
<path d="M77.805,416.58L103.35,56.033L108,48.542L109.16,59.33L110.32,48.459L111.48,56.135L112.64,55.934L113.8,59.474L114.97,48.47L116.13,58.91L117.29,99.351L118.45,81.679L119.61,70.756L120.77,69.668L121.93,74.958L123.1,59.363L125.42,87.663L126.58,83.645L127.74,51.875L128.9,88.193L130.06,62.638L131.22,63.232L133.55,45.237L134.71,45.579L135.87,48.611L137.03,66.181L138.19,45.45L139.35,102.57L140.51,62.936L141.68,45.709L142.84,68.309L144,50.011L145.16,68.108L146.32,64.079L147.48,47.418L148.64,70.262L149.8,65.661L150.97,92.959L152.13,50.503L153.29,50.784L154.45,50.585L155.61,51.022L156.77,54.388L157.93,54.898L159.1,53.794L160.26,63.591L161.42,56.356L162.58,63.077L163.74,66.368L164.9,59.725L166.06,58.667L167.22,70.797L168.39,59.777L169.55,59.896L170.71,75.928L171.87,84.728L173.03,55.647L174.19,57.845L175.35,54.437L176.51,58.955L177.68,57.704L178.84,62.362L180,61.545L181.16,58.317L182.32,59.951L183.48,57.317L184.64,60.647L185.8,57.27L186.97,61.009L188.13,64.237L189.29,59.347L190.45,68.539L191.61,61.589L192.77,59.841L193.93,59.935L195.1,55.517L196.26,56.583L197.42,56.967L198.58,61.13L199.74,58.919L200.9,56.826L202.06,61.418L203.22,56.469L204.39,59.231L205.55,54.978L206.71,57.494L207.87,59.46L209.03,55.174L210.19,62.028L211.35,64.609L212.51,64.099L213.68,59.396L214.84,58.049L216,60.225L217.16,55.221L218.32,57.615L219.48,59.827L220.64,56.561L221.81,58.449L222.97,58.8L224.13,56.072L225.29,56.191L226.45,53.498L227.61,53.835L228.77,55.898L229.93,55.854L231.1,56.083L232.26,57.099L233.42,59.993L234.58,55.848L235.74,56.238L236.9,56.058L238.06,55.66L239.22,56.63L240.39,56.047L241.55,54.523L242.71,55.533L243.87,56.036L245.03,56.155L246.19,53.189L247.35,53.106L248.51,53.048L249.68,54.15L250.84,53.835L252,54.625L253.16,54.628L254.32,54.042L255.48,54.211L256.64,54.374L257.81,54.084L258.97,53.694L260.13,54.004L261.29,54.813L262.45,53.137L263.61,53.689L264.77,54.219L265.93,52.093L267.1,52.369L268.26,52.01L269.42,52.399L270.58,52.355L271.74,52.402L272.9,52.952L274.06,52.463L275.22,52.499L276.39,52.275L277.55,51.902L278.71,51.676L279.87,51.842L281.03,52.187L282.19,51.751L283.35,52.17L284.51,52.521L285.68,51.303L286.84,51.196L288,50.801L289.16,50.458L290.32,50.544L291.48,50.732L292.64,50.781L293.81,50.668L294.97,50.508L296.13,50.696L297.29,50.367L298.45,50.492L299.61,50.177L300.77,50.359L301.93,50.249L303.1,49.931L304.26,49.983L305.42,50.116L306.58,49.948L307.74,49.68L308.9,49.277L310.06,49.268L311.22,49.448L312.39,49.426L313.55,49.15L314.71,48.882L315.87,49.017L317.03,48.785L318.19,48.987L319.35,48.846L320.52,48.653L321.68,48.727L322.84,48.771L324,48.882L325.16,48.865L326.32,48.981L327.48,48.31L328.64,48.457L329.81,48.332L330.97,48.274L332.13,48.387L333.29,48.183L334.45,48.07L335.61,47.926L336.77,48.114L337.93,48.023L339.1,47.741L340.26,47.752L341.42,47.694L342.58,47.722L343.74,47.697L344.9,47.714L346.06,47.725L347.22,47.551L348.39,47.54L349.55,47.457L350.71,47.294L351.87,47.471L353.03,47.302L354.19,47.233L355.35,47.327L356.52,47.192L357.68,47.247L358.84,47.059L360,47.128L361.16,47.001L362.32,46.979L363.48,47.01L364.64,47.048L365.81,46.847L366.97,46.852L368.13,46.836L369.29,46.822L370.45,46.825L371.61,46.792L372.77,46.756L373.93,46.711L375.1,46.557L376.26,46.728L377.42,46.524L378.58,46.678L379.74,46.504L380.9,46.513L382.06,46.369L383.22,46.355L384.39,46.394L385.55,46.419L386.71,46.311L387.87,46.25L389.03,46.261L390.19,46.228L391.35,46.195L392.52,46.159L393.68,46.231L394.84,46.179L396,46.06L397.16,46.065L398.32,46.151L399.48,46.046L400.64,46.112L401.81,46.06L402.97,45.985L404.13,45.936L405.29,46.01L406.45,45.999L407.61,45.996L408.77,45.894L409.93,45.93L411.1,45.855L412.26,45.897L413.42,45.842L414.58,45.889L415.74,45.811L416.9,45.822L418.06,45.731L419.22,45.767L420.39,45.72L421.55,45.77L422.71,45.753L423.87,45.659L425.03,45.734L426.19,45.69L427.35,45.687L428.52,45.69L429.68,45.607L430.84,45.662L432,45.629L433.16,45.582L434.32,45.577L435.48,45.612L436.64,45.521L437.81,45.568L438.97,45.543L440.13,45.521L441.29,45.543L442.45,45.483L443.61,45.505L444.77,45.505L445.93,45.466L447.1,45.516L448.26,45.524L449.42,45.455L450.58,45.466L451.74,45.483L452.9,45.45L454.06,45.427L455.23,45.403L456.39,45.419L457.55,45.433L458.71,45.358L459.87,45.433L461.03,45.397L462.19,45.394L463.35,45.381L464.52,45.392L465.68,45.364L466.84,45.381L468,45.347L469.16,45.334L470.32,45.32L471.48,45.314L472.64,45.378L473.81,45.276L474.97,45.298L476.13,45.347L477.29,45.303L478.45,45.273L479.61,45.331L480.77,45.323L481.93,45.309L483.1,45.3L484.26,45.27L485.42,45.289L486.58,45.281L487.74,45.256L488.9,45.273L490.06,45.259L491.23,45.262L492.39,45.259L493.55,45.273L494.71,45.234L495.87,45.256L497.03,45.265L498.19,45.262L499.35,45.237L500.52,45.237L501.68,45.229L502.84,45.22L504,45.231L505.16,45.223L506.32,45.259L507.48,45.22L508.64,45.251L509.81,45.229L510.97,45.234L512.13,45.237L513.29,45.204L514.45,45.207L515.61,45.207L516.77,45.196L517.93,45.207L519.1,45.223L520.26,45.231L521.42,45.182L522.58,45.198L523.74,45.201L524.9,45.185L526.06,45.209L527.23,45.193L528.39,45.198L529.55,45.196L530.71,45.198L531.87,45.196L533.03,45.201L534.19,45.19L535.35,45.179L536.52,45.185L537.68,45.176L538.84,45.185L540,45.171L541.16,45.179L542.32,45.173L543.48,45.187L544.64,45.168L545.81,45.173L546.97,45.179L548.13,45.173L549.29,45.168L550.45,45.173L551.61,45.187L552.77,45.19L553.94,45.176L555.1,45.16L556.26,45.182L557.42,45.182L558.58,45.165L559.74,45.173L560.9,45.176L562.06,45.168L563.23,45.168L564.39,45.173L565.55,45.16L566.71,45.157L567.87,45.168L569.03,45.173L570.19,45.151L571.35,45.154L572.52,45.162L573.68,45.151L574.84,45.16L576,45.154L577.16,45.162L578.32,45.157L579.48,45.16L580.64,45.165L581.81,45.16L582.97,45.157L584.13,45.168L585.29,45.162L586.45,45.165L587.61,45.16L588.77,45.16L589.94,45.165L591.1,45.154L592.26,45.154L593.42,45.162L594.58,45.171L595.74,45.162L596.9,45.151L598.06,45.154L599.23,45.154L600.39,45.154L602.71,45.151L603.87,45.157L605.03,45.151L606.19,45.151L607.35,45.157L608.52,45.16L609.68,45.154L610.84,45.157L612,45.154L613.16,45.151L615.48,45.157L616.64,45.151L617.81,45.151L618.97,45.151L620.13,45.151L622.45,45.151L623.61,45.151L624.77,45.151L627.1,45.157L629.42,45.151L630.58,45.151L634.06,45.154L635.23,45.151L636.39,45.154L638.71,45.151L641.03,45.162L645.68,45.157L650.32,45.151L652.64,45.151L657.29,45.157L667.74,45.151L668.9,45.151L673.55,45.151L696.77,45.151L701.42,45.151L713.03,45.151L720,45.151" style="fill:none;stroke:#0000FF" />
</g>
</svg>
