<?xml version="1.0"?>
<!-- Generated by SVGo and Plotinum VG -->
<svg width="720pt" height="432pt" viewBox="0 0 720 432"
	xmlns="http://www.w3.org/2000/svg"
	xmlns:xlink="http://www.w3.org/1999/xlink">
<g transform="scale(1, -1) translate(0, -432)">
<path d="M0,0L720,0L720,432L0,432Z" style="fill:#FFFFFF" />
<text x="358.5" y="-420.45" transform="scale(1, -1)"
	style="font-family:Times;font-weight:normal;font-style:normal;font-size:12px"> </text>
<text x="379.31" y="-3.8613" transform="scale(1, -1)"
	style="font-family:Times;font-weight:normal;font-style:normal;font-size:12px">Costs</text>
<text x="56.555" y="-18.634" transform="scale(1, -1)"
	style="font-family:Times;font-weight:normal;font-style:normal;font-size:10px">0.00</text>
<text x="328.03" y="-18.634" transform="scale(1, -1)"
	style="font-family:Times;font-weight:normal;font-style:normal;font-size:10px">250.00</text>
<text x="604.51" y="-18.634" transform="scale(1, -1)"
	style="font-family:Times;font-weight:normal;font-style:normal;font-size:10px">500.00</text>
<path d="M65.305,28.263L65.305,36.263" style="fill:none;stroke:#000000;stroke-width:0.5" />
<path d="M341.78,28.263L341.78,36.263" style="fill:none;stroke:#000000;stroke-width:0.5" />
<path d="M618.26,28.263L618.26,36.263" style="fill:none;stroke:#000000;stroke-width:0.5" />
<path d="M120.6,32.263L120.6,36.263" style="fill:none;stroke:#000000;stroke-width:0.5" />
<path d="M175.9,32.263L175.9,36.263" style="fill:none;stroke:#000000;stroke-width:0.5" />
<path d="M231.19,32.263L231.19,36.263" style="fill:none;stroke:#000000;stroke-width:0.5" />
<path d="M286.49,32.263L286.49,36.263" style="fill:none;stroke:#000000;stroke-width:0.5" />
<path d="M397.08,32.263L397.08,36.263" style="fill:none;stroke:#000000;stroke-width:0.5" />
<path d="M452.37,32.263L452.37,36.263" style="fill:none;stroke:#000000;stroke-width:0.5" />
<path d="M507.67,32.263L507.67,36.263" style="fill:none;stroke:#000000;stroke-width:0.5" />
<path d="M562.96,32.263L562.96,36.263" style="fill:none;stroke:#000000;stroke-width:0.5" />
<path d="M673.55,32.263L673.55,36.263" style="fill:none;stroke:#000000;stroke-width:0.5" />
<path d="M65.305,36.263L720,36.263" style="fill:none;stroke:#000000;stroke-width:0.5" />
<g transform="rotate(90)">
<text x="152.55" y="11.555" transform="scale(1, -1)"
	style="font-family:Times;font-weight:normal;font-style:normal;font-size:12px">Number of trials (1000000 total)</text>
</g>
<text x="24.055" y="-111.41" transform="scale(1, -1)"
	style="font-family:Times;font-weight:normal;font-style:normal;font-size:10px">20000</text>
<text x="24.055" y="-250.34" transform="scale(1, -1)"
	style="font-family:Times;font-weight:normal;font-style:normal;font-size:10px">60000</text>
<text x="19.055" y="-389.26" transform="scale(1, -1)"
	style="font-family:Times;font-weight:normal;font-style:normal;font-size:10px">100000</text>
<path d="M51.555,114.61L59.555,114.61" style="fill:none;stroke:#000000;stroke-width:0.5" />
<path d="M51.555,253.54L59.555,253.54" style="fill:none;stroke:#000000;stroke-width:0.5" />
<path d="M51.555,392.47L59.555,392.47" style="fill:none;stroke:#000000;stroke-width:0.5" />
<path d="M55.555,79.88L59.555,79.88" style="fill:none;stroke:#000000;stroke-width:0.5" />
<path d="M55.555,149.34L59.555,149.34" style="fill:none;stroke:#000000;stroke-width:0.5" />
<path d="M55.555,184.08L59.555,184.08" style="fill:none;stroke:#000000;stroke-width:0.5" />
<path d="M55.555,218.81L59.555,218.81" style="fill:none;stroke:#000000;stroke-width:0.5" />
<path d="M55.555,288.27L59.555,288.27" style="fill:none;stroke:#000000;stroke-width:0.5" />
<path d="M55.555,323.01L59.555,323.01" style="fill:none;stroke:#000000;stroke-width:0.5" />
<path d="M55.555,357.74L59.555,357.74" style="fill:none;stroke:#000000;stroke-width:0.5" />
<path d="M59.555,45.151L59.555,416.58" style="fill:none;stroke:#000000;stroke-width:0.5" />
<path d="M65.305,416.58L89.635,52.462L91.846,56.009L94.058,59.096L95.164,62.858L96.27,63.316L97.376,52.258L98.482,52.403L100.69,74.701L101.8,66.765L102.91,84.083L104.01,67.502L105.12,67.269L106.22,48.496L107.33,66.39L108.43,62.959L109.54,84.579L110.65,99.552L111.75,95.905L112.86,74.042L113.96,67.154L115.07,67.189L116.18,67.015L118.39,48.652L119.49,73.986L120.6,56.78L121.71,71.471L122.81,45.683L123.92,104.15L125.02,69.356L126.13,53.272L127.24,76.643L128.34,53.449L129.45,51.608L130.55,74.007L131.66,50.476L132.76,49.809L133.87,69.94L134.98,70.864L136.08,50.827L137.19,51.716L138.29,54.234L139.4,62.934L140.51,57.068L141.61,56.53L142.72,56.804L143.82,66.369L144.93,56.804L146.04,81.849L147.14,75.615L148.25,63.136L149.35,62.403L150.46,74.205L151.57,61.423L152.67,61.312L153.78,77.14L154.88,87.497L155.99,63.813L157.09,67.585L158.2,63.799L159.31,68.113L160.41,64.004L161.52,66.425L162.62,62.851L163.73,63.66L164.84,62.448L165.94,65.233L167.05,61.767L168.15,63.837L169.26,67.144L170.37,68.787L171.47,64.706L172.58,65.789L173.68,62.92L174.79,63.143L175.9,61.472L177,60.51L178.11,62.761L179.21,62.069L180.32,63.143L181.42,63.292L182.53,61.264L183.64,64.796L184.74,62.288L185.85,63.625L186.95,59.003L188.06,59.451L189.17,64.334L190.27,64.157L191.38,63.285L192.48,67.783L193.59,65.984L194.7,61.437L195.8,61.983L196.91,62.024L198.01,61.104L199.12,62.205L200.23,64.886L201.33,62.504L202.44,62.014L203.54,60.621L204.65,62.99L205.75,62.392L206.86,58.28L207.97,60.697L209.07,62.837L210.18,59.961L211.28,60.117L212.39,61.139L213.5,62.17L214.6,59.725L215.71,61.746L216.81,60.312L217.92,58.096L219.03,58.999L220.13,60.041L221.24,57.29L222.34,57.7L223.45,58.499L224.55,59.256L225.66,57.391L226.77,57.061L227.87,58.53L228.98,57.867L230.08,57.231L231.19,58.388L232.3,57.408L233.4,57.19L234.51,57.401L235.61,58.322L236.72,57.787L237.83,56.669L238.93,56.967L240.04,57.613L241.14,56.293L242.25,56.464L243.36,57.214L244.46,55.793L245.57,55.894L246.67,55.891L247.78,55.877L248.88,56.043L249.99,55.568L251.1,55.554L252.2,55.39L253.31,55.168L254.41,55.29L255.52,55.137L256.63,54.317L257.73,54.616L258.84,54.751L259.94,54.522L261.05,54.421L262.16,54.206L263.26,54.088L264.37,53.855L265.47,53.501L266.58,53.452L267.69,53.366L268.79,53.147L269.9,53.459L271,53.359L272.11,53.206L273.21,53.07L274.32,53.046L275.43,52.674L276.53,52.553L277.64,52.383L278.74,52.522L279.85,52.247L280.96,52.396L282.06,52.139L283.17,52.122L284.27,51.698L285.38,51.514L286.49,51.618L287.59,51.57L288.7,51.202L289.8,51.58L290.91,51.32L292.02,50.927L293.12,51.25L294.23,50.837L295.33,50.743L296.44,50.775L297.54,50.938L298.65,50.441L299.76,50.75L300.86,50.254L301.97,50.205L303.07,50.163L304.18,49.805L305.29,49.965L306.39,49.767L307.5,49.903L308.6,49.642L309.71,49.764L310.82,49.427L311.92,49.284L313.03,49.521L314.13,49.146L315.24,49.017L316.34,49.354L317.45,49.055L318.56,48.923L319.66,49.163L320.77,48.916L321.87,48.718L322.98,48.496L324.09,48.625L325.19,48.652L326.3,48.489L327.4,48.427L328.51,48.552L329.62,48.427L330.72,48.305L331.83,48.239L332.93,48.1L334.04,48.02L335.15,48.003L336.25,48.038L337.36,47.916L338.46,47.77L339.57,47.767L340.67,47.826L341.78,47.676L342.89,47.728L343.99,47.76L345.1,47.645L346.2,47.392L347.31,47.517L348.42,47.218L349.52,47.322L350.63,47.235L351.73,47.385L352.84,47.062L353.95,47.086L355.05,47.096L356.16,47.082L357.26,47.02L358.37,47.117L359.48,47.076L360.58,46.985L361.69,46.957L362.79,46.916L363.9,46.961L365,46.704L366.11,46.753L367.22,46.617L368.32,46.68L369.43,46.624L370.53,46.617L371.64,46.509L372.75,46.468L373.85,46.485L374.96,46.506L376.06,46.475L377.17,46.384L378.28,46.336L379.38,46.44L380.49,46.183L381.59,46.242L382.7,46.138L383.81,46.35L384.91,46.232L386.02,46.166L387.12,46.075L388.23,46.159L389.33,46.214L390.44,46.152L391.55,46.113L392.65,46.082L393.76,46.179L394.86,46.127L395.97,45.981L397.08,45.933L398.18,46.023L399.29,46.006L400.39,45.912L401.5,46.002L402.61,45.905L403.71,45.863L404.82,45.794L405.92,45.856L407.03,45.856L408.14,45.797L409.24,45.846L410.35,45.79L411.45,45.714L412.56,45.77L413.66,45.735L414.77,45.645L415.88,45.711L416.98,45.669L418.09,45.652L419.19,45.655L420.3,45.586L421.41,45.613L422.51,45.627L423.62,45.565L424.72,45.537L425.83,45.652L426.94,45.603L428.04,45.544L429.15,45.551L430.25,45.558L431.36,45.551L432.46,45.499L433.57,45.551L434.68,45.506L435.78,45.45L436.89,45.447L437.99,45.537L439.1,45.474L440.21,45.488L441.31,45.356L442.42,45.481L443.52,45.419L444.63,45.471L445.74,45.433L446.84,45.464L447.95,45.408L449.05,45.356L450.16,45.384L451.27,45.405L452.37,45.37L453.48,45.384L454.58,45.36L455.69,45.318L456.79,45.381L457.9,45.401L459.01,45.335L460.11,45.297L461.22,45.356L462.32,45.311L463.43,45.325L464.54,45.342L465.64,45.339L466.75,45.301L467.85,45.297L468.96,45.339L470.07,45.297L471.17,45.308L472.28,45.276L473.38,45.301L474.49,45.263L475.6,45.256L476.7,45.256L477.81,45.252L478.91,45.231L480.02,45.287L481.12,45.294L482.23,45.252L483.34,45.266L484.44,45.256L485.55,45.224L486.65,45.256L487.76,45.214L488.87,45.235L489.97,45.217L491.08,45.228L492.18,45.21L493.29,45.245L494.4,45.235L495.5,45.217L496.61,45.217L497.71,45.2L498.82,45.221L499.93,45.2L501.03,45.245L502.14,45.203L503.24,45.21L504.35,45.21L505.45,45.207L506.56,45.2L507.67,45.179L508.77,45.21L509.88,45.21L510.98,45.193L512.09,45.221L513.2,45.193L514.3,45.214L515.41,45.186L516.51,45.193L517.62,45.21L518.73,45.19L519.83,45.186L520.94,45.183L522.04,45.183L523.15,45.183L524.25,45.172L525.36,45.183L526.47,45.19L527.57,45.172L528.68,45.162L529.78,45.169L530.89,45.162L532,45.172L533.1,45.162L534.21,45.179L535.31,45.169L536.42,45.176L537.53,45.176L538.63,45.169L539.74,45.165L540.84,45.155L541.95,45.169L543.06,45.169L544.16,45.158L545.27,45.162L546.37,45.158L547.48,45.162L548.58,45.155L549.69,45.169L550.8,45.162L551.9,45.165L553.01,45.169L554.11,45.155L555.22,45.169L556.33,45.162L557.43,45.162L558.54,45.162L559.64,45.162L560.75,45.162L561.86,45.165L562.96,45.162L564.07,45.162L565.17,45.155L566.28,45.158L567.39,45.151L568.49,45.158L569.6,45.155L570.7,45.158L571.81,45.151L572.91,45.155L574.02,45.162L576.23,45.151L577.34,45.151L578.44,45.165L579.55,45.151L580.66,45.158L581.76,45.158L582.87,45.165L583.97,45.155L585.08,45.151L586.19,45.158L588.4,45.155L589.5,45.158L590.61,45.155L595.03,45.155L599.46,45.151L600.56,45.155L601.67,45.155L602.77,45.151L607.2,45.155L609.41,45.151L610.52,45.151L616.05,45.151L617.15,45.155L619.36,45.151L622.68,45.151L624.89,45.155L629.32,45.151L634.85,45.151L660.28,45.151L663.6,45.151L670.23,45.151L672.45,45.151L720,45.151" style="fill:none;stroke:#0000FF" />
</g>
</svg>
