<?xml version="1.0"?>
<!-- Generated by SVGo and Plotinum VG -->
<svg width="720pt" height="432pt" viewBox="0 0 720 432"
	xmlns="http://www.w3.org/2000/svg"
	xmlns:xlink="http://www.w3.org/1999/xlink">
<g transform="scale(1, -1) translate(0, -432)">
<path d="M0,0L720,0L720,432L0,432Z" style="fill:#FFFFFF" />
<text x="358.5" y="-420.45" transform="scale(1, -1)"
	style="font-family:Times;font-weight:normal;font-style:normal;font-size:12px"> </text>
<text x="379.31" y="-3.8613" transform="scale(1, -1)"
	style="font-family:Times;font-weight:normal;font-style:normal;font-size:12px">Costs</text>
<text x="62.805" y="-18.634" transform="scale(1, -1)"
	style="font-family:Times;font-weight:normal;font-style:normal;font-size:10px">0</text>
<text x="235.23" y="-18.634" transform="scale(1, -1)"
	style="font-family:Times;font-weight:normal;font-style:normal;font-size:10px">100</text>
<text x="412.65" y="-18.634" transform="scale(1, -1)"
	style="font-family:Times;font-weight:normal;font-style:normal;font-size:10px">200</text>
<text x="590.08" y="-18.634" transform="scale(1, -1)"
	style="font-family:Times;font-weight:normal;font-style:normal;font-size:10px">300</text>
<path d="M65.305,28.263L65.305,36.263" style="fill:none;stroke:#000000;stroke-width:0.5" />
<path d="M242.73,28.263L242.73,36.263" style="fill:none;stroke:#000000;stroke-width:0.5" />
<path d="M420.15,28.263L420.15,36.263" style="fill:none;stroke:#000000;stroke-width:0.5" />
<path d="M597.58,28.263L597.58,36.263" style="fill:none;stroke:#000000;stroke-width:0.5" />
<path d="M100.79,32.263L100.79,36.263" style="fill:none;stroke:#000000;stroke-width:0.5" />
<path d="M136.27,32.263L136.27,36.263" style="fill:none;stroke:#000000;stroke-width:0.5" />
<path d="M171.76,32.263L171.76,36.263" style="fill:none;stroke:#000000;stroke-width:0.5" />
<path d="M207.24,32.263L207.24,36.263" style="fill:none;stroke:#000000;stroke-width:0.5" />
<path d="M278.21,32.263L278.21,36.263" style="fill:none;stroke:#000000;stroke-width:0.5" />
<path d="M313.7,32.263L313.7,36.263" style="fill:none;stroke:#000000;stroke-width:0.5" />
<path d="M349.18,32.263L349.18,36.263" style="fill:none;stroke:#000000;stroke-width:0.5" />
<path d="M384.67,32.263L384.67,36.263" style="fill:none;stroke:#000000;stroke-width:0.5" />
<path d="M455.64,32.263L455.64,36.263" style="fill:none;stroke:#000000;stroke-width:0.5" />
<path d="M491.12,32.263L491.12,36.263" style="fill:none;stroke:#000000;stroke-width:0.5" />
<path d="M526.61,32.263L526.61,36.263" style="fill:none;stroke:#000000;stroke-width:0.5" />
<path d="M562.09,32.263L562.09,36.263" style="fill:none;stroke:#000000;stroke-width:0.5" />
<path d="M633.06,32.263L633.06,36.263" style="fill:none;stroke:#000000;stroke-width:0.5" />
<path d="M668.55,32.263L668.55,36.263" style="fill:none;stroke:#000000;stroke-width:0.5" />
<path d="M704.03,32.263L704.03,36.263" style="fill:none;stroke:#000000;stroke-width:0.5" />
<path d="M65.305,36.263L720,36.263" style="fill:none;stroke:#000000;stroke-width:0.5" />
<g transform="rotate(90)">
<text x="152.55" y="11.555" transform="scale(1, -1)"
	style="font-family:Times;font-weight:normal;font-style:normal;font-size:12px">Number of trials (1000000 total)</text>
</g>
<text x="24.055" y="-89.339" transform="scale(1, -1)"
	style="font-family:Times;font-weight:normal;font-style:normal;font-size:10px">40000</text>
<text x="19.055" y="-231.52" transform="scale(1, -1)"
	style="font-family:Times;font-weight:normal;font-style:normal;font-size:10px">160000</text>
<text x="19.055" y="-373.71" transform="scale(1, -1)"
	style="font-family:Times;font-weight:normal;font-style:normal;font-size:10px">280000</text>
<path d="M51.555,92.545L59.555,92.545" style="fill:none;stroke:#000000;stroke-width:0.5" />
<path d="M51.555,234.73L59.555,234.73" style="fill:none;stroke:#000000;stroke-width:0.5" />
<path d="M51.555,376.91L59.555,376.91" style="fill:none;stroke:#000000;stroke-width:0.5" />
<path d="M55.555,163.64L59.555,163.64" style="fill:none;stroke:#000000;stroke-width:0.5" />
<path d="M55.555,305.82L59.555,305.82" style="fill:none;stroke:#000000;stroke-width:0.5" />
<path d="M59.555,45.151L59.555,416.58" style="fill:none;stroke:#000000;stroke-width:0.5" />
<path d="M65.305,416.58L104.34,48.582L113.21,52.123L116.76,51.834L118.53,55.738L120.31,74.062L122.08,85.76L123.85,78.202L125.63,63.478L127.4,62.458L129.18,52.053L132.73,52.448L134.5,63.684L136.27,52.089L138.05,59.713L139.82,58.947L141.6,81.026L143.37,73.087L145.15,63.556L152.24,52.135L154.02,74.089L155.79,45.222L157.57,45.244L159.34,77.001L161.11,55.993L162.89,45.443L164.66,45.437L166.44,45.469L168.21,56.844L169.98,46.1L171.76,57.647L173.53,57.578L175.31,61.988L177.08,49.683L178.86,49.361L180.63,50.935L182.4,50.097L184.18,49.404L185.95,48.578L187.73,48.035L189.5,48.977L191.28,49.628L193.05,50.448L194.82,51.077L196.6,53.092L198.37,54.389L200.15,54.204L201.92,52.752L203.7,50.462L205.47,49.103L207.24,52.992L209.02,50.315L210.79,52.038L212.57,52.159L214.34,52.564L216.12,53.926L217.89,51.855L219.66,51.647L221.44,50.919L223.21,50.462L224.99,48.168L226.76,49.396L228.53,51.633L230.31,53.567L232.08,52.649L233.86,50.719L235.63,50.603L237.41,50.294L239.18,48.894L240.95,47.792L242.73,47.757L244.5,48.112L246.28,48.467L248.05,51.001L249.83,49.388L251.6,48.924L253.37,48.904L255.15,48.643L256.92,47.497L258.7,46.941L260.47,47.642L262.25,48.791L264.02,48.419L265.79,47.89L267.57,48.13L269.34,48.802L271.12,47.683L272.89,47.209L274.67,47.547L276.44,47.6L278.21,47.619L279.99,47.448L281.76,47.486L283.54,47.706L285.31,47.526L287.08,47.464L288.86,47.454L290.63,47.468L292.41,47.3L294.18,47.302L295.96,47.345L297.73,46.771L299.5,46.82L301.28,47.105L303.05,47.042L304.83,47.058L306.6,47.108L308.38,47.102L310.15,47.176L311.92,46.713L313.7,46.599L315.47,46.518L317.25,46.657L319.02,46.395L320.8,46.381L322.57,46.546L324.34,46.745L326.12,46.61L327.89,46.327L329.67,46.219L331.44,46.258L333.22,46.091L334.99,46.031L336.76,46.106L338.54,46.205L340.31,46.163L342.09,46.14L343.86,46.087L345.63,45.999L347.41,45.937L349.18,45.817L350.96,45.852L352.73,45.842L354.51,45.816L356.28,45.868L358.05,45.959L359.83,45.808L361.6,45.813L363.38,45.79L365.15,45.77L366.93,45.657L368.7,45.687L370.47,45.714L372.25,45.7L374.02,45.654L375.8,45.595L377.57,45.618L379.35,45.629L381.12,45.621L382.89,45.605L384.67,45.541L386.44,45.568L388.22,45.558L389.99,45.548L391.77,45.485L393.54,45.493L395.31,45.502L397.09,45.541L398.86,45.497L400.64,45.461L402.41,45.444L404.18,45.487L405.96,45.422L407.73,45.419L409.51,45.42L411.28,45.381L413.06,45.379L414.83,45.417L416.6,45.374L418.38,45.376L420.15,45.375L421.93,45.355L423.7,45.315L425.48,45.346L427.25,45.328L429.02,45.329L430.8,45.309L432.57,45.323L434.35,45.296L436.12,45.305L437.9,45.289L439.67,45.285L441.44,45.254L443.22,45.266L444.99,45.256L446.77,45.247L448.54,45.265L450.32,45.276L452.09,45.267L453.86,45.247L455.64,45.249L457.41,45.243L459.19,45.232L460.96,45.252L462.73,45.23L464.51,45.228L466.28,45.233L468.06,45.23L469.83,45.228L471.61,45.219L473.38,45.226L475.15,45.212L476.93,45.211L478.7,45.211L480.48,45.208L482.25,45.217L484.03,45.211L485.8,45.2L487.57,45.212L489.35,45.199L491.12,45.192L492.9,45.209L494.67,45.206L496.45,45.193L498.22,45.187L499.99,45.177L501.77,45.179L503.54,45.192L505.32,45.188L507.09,45.174L508.87,45.174L510.64,45.181L512.41,45.182L514.19,45.177L515.96,45.179L517.74,45.186L519.51,45.174L521.28,45.162L523.06,45.164L524.83,45.174L526.61,45.17L528.38,45.17L530.16,45.17L531.93,45.167L533.7,45.163L535.48,45.157L537.25,45.167L539.03,45.164L540.8,45.16L542.58,45.162L544.35,45.168L546.12,45.173L547.9,45.166L549.67,45.164L551.45,45.157L553.22,45.157L555,45.157L556.77,45.164L558.54,45.16L560.32,45.16L562.09,45.156L563.87,45.158L565.64,45.158L567.42,45.157L569.19,45.158L570.96,45.155L572.74,45.155L574.51,45.158L576.29,45.157L578.06,45.155L579.83,45.156L581.61,45.153L583.38,45.154L585.16,45.156L586.93,45.157L588.71,45.154L592.25,45.154L594.03,45.151L595.8,45.155L597.58,45.154L599.35,45.151L601.13,45.155L602.9,45.154L604.67,45.151L606.45,45.153L610,45.154L611.77,45.154L613.55,45.151L615.32,45.151L617.09,45.151L620.64,45.154L625.97,45.151L629.51,45.154L634.84,45.151L636.61,45.155L641.93,45.153L643.71,45.153L645.48,45.153L647.26,45.151L649.03,45.151L652.58,45.151L665,45.153L670.32,45.151L691.61,45.151L695.16,45.151L705.81,45.154L709.35,45.151L720,45.151" style="fill:none;stroke:#0000FF" />
</g>
</svg>
