<?xml version="1.0"?>
<!-- Generated by SVGo and Plotinum VG -->
<svg width="720pt" height="432pt" viewBox="0 0 720 432"
	xmlns="http://www.w3.org/2000/svg"
	xmlns:xlink="http://www.w3.org/1999/xlink">
<g transform="scale(1, -1) translate(0, -432)">
<path d="M0,0L720,0L720,432L0,432Z" style="fill:#FFFFFF" />
<text x="358.5" y="-420.45" transform="scale(1, -1)"
	style="font-family:Times;font-weight:normal;font-style:normal;font-size:12px"> </text>
<text x="385.56" y="-3.8613" transform="scale(1, -1)"
	style="font-family:Times;font-weight:normal;font-style:normal;font-size:12px">Costs</text>
<text x="69.055" y="-18.634" transform="scale(1, -1)"
	style="font-family:Times;font-weight:normal;font-style:normal;font-size:10px">0.00</text>
<text x="377.63" y="-18.634" transform="scale(1, -1)"
	style="font-family:Times;font-weight:normal;font-style:normal;font-size:10px">250.00</text>
<text x="691.2" y="-18.634" transform="scale(1, -1)"
	style="font-family:Times;font-weight:normal;font-style:normal;font-size:10px">500.00</text>
<path d="M77.805,28.263L77.805,36.263" style="fill:none;stroke:#000000;stroke-width:0.5" />
<path d="M391.38,28.263L391.38,36.263" style="fill:none;stroke:#000000;stroke-width:0.5" />
<path d="M704.95,28.263L704.95,36.263" style="fill:none;stroke:#000000;stroke-width:0.5" />
<path d="M140.52,32.263L140.52,36.263" style="fill:none;stroke:#000000;stroke-width:0.5" />
<path d="M203.23,32.263L203.23,36.263" style="fill:none;stroke:#000000;stroke-width:0.5" />
<path d="M265.95,32.263L265.95,36.263" style="fill:none;stroke:#000000;stroke-width:0.5" />
<path d="M328.66,32.263L328.66,36.263" style="fill:none;stroke:#000000;stroke-width:0.5" />
<path d="M454.09,32.263L454.09,36.263" style="fill:none;stroke:#000000;stroke-width:0.5" />
<path d="M516.81,32.263L516.81,36.263" style="fill:none;stroke:#000000;stroke-width:0.5" />
<path d="M579.52,32.263L579.52,36.263" style="fill:none;stroke:#000000;stroke-width:0.5" />
<path d="M642.23,32.263L642.23,36.263" style="fill:none;stroke:#000000;stroke-width:0.5" />
<path d="M77.805,36.263L720,36.263" style="fill:none;stroke:#000000;stroke-width:0.5" />
<g transform="rotate(90)">
<text x="152.55" y="11.555" transform="scale(1, -1)"
	style="font-family:Times;font-weight:normal;font-style:normal;font-size:12px">Number of trials (1000000 total)</text>
</g>
<text x="24.055" y="-91.437" transform="scale(1, -1)"
	style="font-family:Times;font-weight:normal;font-style:normal;font-size:10px">25000.00</text>
<text x="19.055" y="-239.92" transform="scale(1, -1)"
	style="font-family:Times;font-weight:normal;font-style:normal;font-size:10px">100000.00</text>
<text x="19.055" y="-388.39" transform="scale(1, -1)"
	style="font-family:Times;font-weight:normal;font-style:normal;font-size:10px">175000.00</text>
<path d="M64.055,94.642L72.055,94.642" style="fill:none;stroke:#000000;stroke-width:0.5" />
<path d="M64.055,243.12L72.055,243.12" style="fill:none;stroke:#000000;stroke-width:0.5" />
<path d="M64.055,391.6L72.055,391.6" style="fill:none;stroke:#000000;stroke-width:0.5" />
<path d="M68.055,168.88L72.055,168.88" style="fill:none;stroke:#000000;stroke-width:0.5" />
<path d="M68.055,317.36L72.055,317.36" style="fill:none;stroke:#000000;stroke-width:0.5" />
<path d="M72.055,45.151L72.055,416.58" style="fill:none;stroke:#000000;stroke-width:0.5" />
<path d="M77.805,416.58L105.4,48.355L106.65,48.568L107.91,52.559L110.42,63.59L111.67,66.847L112.92,49.03L114.18,67.54L116.69,59.178L119.2,73.863L120.45,74.263L121.7,55.402L122.96,59.471L125.47,48.568L126.72,48.853L127.98,59.813L129.23,81.384L130.48,66.586L131.74,52.185L132.99,52.3L134.25,48.689L135.5,67.071L136.76,45.205L138.01,45.351L139.26,48.968L140.52,85.11L141.77,63.739L143.03,45.371L144.28,75.397L145.54,59.457L146.79,46.87L148.04,69.258L149.3,86.957L150.55,61.175L151.81,61.017L153.06,49.196L154.32,88.529L155.57,48.946L156.82,51.805L158.08,47.844L159.33,48.416L160.59,47.666L161.84,57.833L163.1,50.12L164.35,50.225L165.6,50.079L166.86,51.787L168.11,49.194L169.37,76.033L170.62,61.209L171.88,52.266L173.13,51.661L174.38,56.46L175.64,49.239L176.89,52.672L178.15,89.37L179.4,73.135L180.66,52.078L181.91,55.295L183.16,56.168L184.42,53.852L185.67,54.296L186.93,55.462L188.18,53.815L189.44,50.999L190.69,55.982L191.94,55.703L193.2,55.998L194.45,52.072L195.71,55.309L196.96,53.912L198.22,53.108L199.47,54.308L200.72,52.991L201.98,54.446L203.23,55.048L204.49,52.987L205.74,54.87L207,55.828L208.25,53.48L209.5,50.019L210.76,54.65L212.01,61.5L213.27,54.175L214.52,54.939L215.78,54.116L217.03,56.125L218.28,52.451L219.54,54.812L220.79,59.819L222.05,56.511L223.3,52.399L224.56,53.082L225.81,53.225L227.06,51.71L228.32,52.597L229.57,52.605L230.83,53.379L232.08,53.46L233.34,53.193L234.59,49.97L235.84,53.138L237.1,51.958L238.35,49.984L239.61,50.388L240.86,56.721L242.12,54.838L243.37,51.441L244.62,52.538L245.88,55.262L247.13,50.847L248.39,51.859L249.64,54.945L250.9,53.258L252.15,50.849L253.4,51.112L254.66,53.973L255.91,51.653L257.17,49.853L258.42,49.875L259.68,49.649L260.93,49.214L262.18,51.17L263.44,50.374L264.69,49.715L265.95,49.798L267.2,49.725L268.46,49.546L269.71,52.158L270.96,51.56L272.22,49.905L273.47,49.57L274.73,50.259L275.98,49.463L277.24,49.42L278.49,49.643L279.75,51.76L281,48.632L282.25,49.566L283.51,50.099L284.76,49.519L286.02,49.182L287.27,49.396L288.53,49.521L289.78,48.709L291.03,49.327L292.29,49.471L293.54,49.236L294.8,48.671L296.05,48.915L297.31,48.628L298.56,48.713L299.81,48.749L301.07,48.279L302.32,48.289L303.58,48.749L304.83,48.408L306.09,48.242L307.34,48.576L308.59,48.404L309.85,47.923L311.1,47.818L312.36,48.923L313.61,48.531L314.87,47.99L316.12,47.986L317.37,48.325L318.63,47.923L319.88,47.557L321.14,48.265L322.39,48.036L323.65,47.325L324.9,47.454L326.15,47.47L327.41,47.339L328.66,47.289L329.92,47.016L331.17,47.024L332.43,47.371L333.68,47.303L334.93,47.062L336.19,46.977L337.44,47.066L338.7,46.919L339.95,46.929L341.21,47.21L342.46,47.167L343.71,46.937L344.97,46.688L346.22,47.074L347.48,46.802L348.73,46.624L349.99,46.698L351.24,46.777L352.49,46.531L353.75,46.642L355,46.63L356.26,46.767L357.51,46.436L358.77,46.557L360.02,46.355L361.27,46.448L362.53,46.42L363.78,46.41L365.04,46.44L366.29,46.296L367.55,46.306L368.8,46.335L370.05,46.288L371.31,46.339L372.56,46.175L373.82,46.1L375.07,46.1L376.33,46.189L377.58,46.121L378.83,46.143L380.09,46.135L381.34,46.003L382.6,46.036L383.85,46.086L385.11,46.092L386.36,45.935L387.61,45.947L388.87,46.032L390.12,45.939L391.38,45.902L392.63,45.941L393.89,45.876L395.14,45.832L396.39,45.822L397.65,45.799L398.9,45.791L400.16,45.819L401.41,45.684L402.67,45.731L403.92,45.755L405.17,45.787L406.43,45.64L407.68,45.724L408.94,45.702L410.19,45.7L411.45,45.603L412.7,45.605L413.95,45.678L415.21,45.605L416.46,45.585L417.72,45.611L418.97,45.674L420.23,45.533L421.48,45.529L422.73,45.611L423.99,45.529L425.24,45.524L426.5,45.528L427.75,45.508L429.01,45.506L430.26,45.478L431.51,45.5L432.77,45.476L434.02,45.454L435.28,45.458L436.53,45.417L437.79,45.45L439.04,45.484L440.29,45.405L441.55,45.399L442.8,45.434L444.06,45.407L445.31,45.407L446.57,45.387L447.82,45.361L449.07,45.389L450.33,45.407L451.58,45.349L452.84,45.359L454.09,45.341L455.35,45.369L456.6,45.381L457.85,45.347L459.11,45.324L460.36,45.359L461.62,45.298L462.87,45.316L464.13,45.304L465.38,45.274L466.63,45.31L467.89,45.355L469.14,45.282L470.4,45.28L471.65,45.26L472.91,45.306L474.16,45.264L475.41,45.256L476.67,45.31L477.92,45.28L479.18,45.266L480.43,45.246L481.69,45.238L482.94,45.238L484.19,45.256L485.45,45.25L486.7,45.229L487.96,45.238L489.21,45.258L490.47,45.236L491.72,45.229L492.97,45.238L494.23,45.215L495.48,45.238L496.74,45.219L497.99,45.231L499.25,45.223L500.5,45.215L501.75,45.205L503.01,45.221L504.26,45.211L505.52,45.217L506.77,45.213L508.03,45.185L509.28,45.209L510.53,45.203L511.79,45.207L513.04,45.189L514.3,45.219L515.55,45.191L516.81,45.189L518.06,45.207L519.31,45.201L520.57,45.189L521.82,45.187L523.08,45.183L524.33,45.209L525.59,45.179L526.84,45.179L528.09,45.183L529.35,45.191L530.6,45.181L531.86,45.185L533.11,45.185L534.37,45.187L535.62,45.161L536.87,45.179L538.13,45.179L539.38,45.175L540.64,45.179L541.89,45.161L543.15,45.169L544.4,45.185L545.65,45.173L546.91,45.161L548.16,45.165L549.42,45.163L550.67,45.175L551.93,45.169L553.18,45.163L554.43,45.159L555.69,45.163L556.94,45.163L558.2,45.161L559.45,45.161L560.71,45.153L561.96,45.173L563.21,45.165L564.47,45.175L565.72,45.159L566.98,45.159L568.23,45.167L569.49,45.161L570.74,45.167L571.99,45.161L573.25,45.155L574.5,45.155L575.76,45.159L577.01,45.151L578.27,45.169L579.52,45.157L580.77,45.161L582.03,45.159L583.28,45.169L584.54,45.153L585.79,45.157L587.05,45.153L588.3,45.155L589.55,45.151L590.81,45.155L592.06,45.153L593.32,45.155L594.57,45.153L595.83,45.153L597.08,45.155L598.33,45.157L599.59,45.161L600.84,45.155L603.35,45.151L604.61,45.157L605.86,45.153L607.11,45.151L608.37,45.151L609.62,45.153L610.88,45.155L612.13,45.151L613.39,45.151L614.64,45.155L617.15,45.155L618.4,45.157L619.66,45.155L620.91,45.155L622.17,45.153L623.42,45.155L624.67,45.151L627.18,45.151L628.44,45.151L630.95,45.151L633.45,45.151L634.71,45.153L635.96,45.155L638.47,45.153L639.73,45.153L640.98,45.153L643.49,45.151L649.76,45.153L651.01,45.151L652.27,45.151L656.03,45.151L664.81,45.151L667.32,45.155L672.34,45.151L682.37,45.151L706.2,45.151L716.24,45.151L720,45.151" style="fill:none;stroke:#0000FF" />
</g>
</svg>
