<?xml version="1.0"?>
<!-- Generated by SVGo and Plotinum VG -->
<svg width="720pt" height="432pt" viewBox="0 0 720 432"
	xmlns="http://www.w3.org/2000/svg"
	xmlns:xlink="http://www.w3.org/1999/xlink">
<g transform="scale(1, -1) translate(0, -432)">
<path d="M0,0L720,0L720,432L0,432Z" style="fill:#FFFFFF" />
<text x="358.5" y="-420.45" transform="scale(1, -1)"
	style="font-family:Times;font-weight:normal;font-style:normal;font-size:12px"> </text>
<text x="379.31" y="-3.8613" transform="scale(1, -1)"
	style="font-family:Times;font-weight:normal;font-style:normal;font-size:12px">Costs</text>
<text x="62.805" y="-18.634" transform="scale(1, -1)"
	style="font-family:Times;font-weight:normal;font-style:normal;font-size:10px">0</text>
<text x="368.09" y="-18.634" transform="scale(1, -1)"
	style="font-family:Times;font-weight:normal;font-style:normal;font-size:10px">200</text>
<text x="678.37" y="-18.634" transform="scale(1, -1)"
	style="font-family:Times;font-weight:normal;font-style:normal;font-size:10px">400</text>
<path d="M65.305,28.263L65.305,36.263" style="fill:none;stroke:#000000;stroke-width:0.5" />
<path d="M375.59,28.263L375.59,36.263" style="fill:none;stroke:#000000;stroke-width:0.5" />
<path d="M685.87,28.263L685.87,36.263" style="fill:none;stroke:#000000;stroke-width:0.5" />
<path d="M220.45,32.263L220.45,36.263" style="fill:none;stroke:#000000;stroke-width:0.5" />
<path d="M530.73,32.263L530.73,36.263" style="fill:none;stroke:#000000;stroke-width:0.5" />
<path d="M65.305,36.263L720,36.263" style="fill:none;stroke:#000000;stroke-width:0.5" />
<g transform="rotate(90)">
<text x="152.55" y="11.555" transform="scale(1, -1)"
	style="font-family:Times;font-weight:normal;font-style:normal;font-size:12px">Number of trials (1000000 total)</text>
</g>
<text x="24.055" y="-89.454" transform="scale(1, -1)"
	style="font-family:Times;font-weight:normal;font-style:normal;font-size:10px">40000</text>
<text x="19.055" y="-231.98" transform="scale(1, -1)"
	style="font-family:Times;font-weight:normal;font-style:normal;font-size:10px">160000</text>
<text x="19.055" y="-374.51" transform="scale(1, -1)"
	style="font-family:Times;font-weight:normal;font-style:normal;font-size:10px">280000</text>
<path d="M51.555,92.66L59.555,92.66" style="fill:none;stroke:#000000;stroke-width:0.5" />
<path d="M51.555,235.19L59.555,235.19" style="fill:none;stroke:#000000;stroke-width:0.5" />
<path d="M51.555,377.72L59.555,377.72" style="fill:none;stroke:#000000;stroke-width:0.5" />
<path d="M55.555,163.92L59.555,163.92" style="fill:none;stroke:#000000;stroke-width:0.5" />
<path d="M55.555,306.45L59.555,306.45" style="fill:none;stroke:#000000;stroke-width:0.5" />
<path d="M59.555,45.151L59.555,416.58" style="fill:none;stroke:#000000;stroke-width:0.5" />
<path d="M65.305,416.58L107.19,76.685L110.3,55.74L111.85,48.571L113.4,52.121L114.95,55.55L118.05,55.911L119.6,73.832L121.16,52.241L124.26,55.57L125.81,52.188L127.36,77.07L128.91,88.129L132.02,58.962L133.57,55.576L135.12,52.189L141.32,92.814L142.88,66.161L144.43,48.596L147.53,48.494L149.08,45.94L152.18,53.242L153.74,121.45L155.29,45.82L156.84,46.146L158.39,52.654L159.94,60.35L161.49,47.858L163.04,53.084L164.59,45.998L166.15,46.708L167.7,46.719L169.25,56.104L170.8,49.294L172.35,46.982L173.9,48.899L175.45,58.237L177.01,48.023L178.56,47.801L180.11,47.251L181.66,49.457L183.21,53.245L184.76,48.534L186.31,49.161L187.87,49.342L189.42,56.105L190.97,51.163L192.52,47.979L194.07,48.939L195.62,58.582L197.17,49.958L198.73,48.96L200.28,48.621L201.83,50.157L203.38,52.319L204.93,53.896L206.48,51.002L208.03,54.271L209.59,49.557L211.14,48.511L212.69,49.102L214.24,48.808L215.79,53.419L217.34,56.896L218.89,49.238L220.45,50.198L222,50.493L223.55,50.02L225.1,47.178L226.65,47.109L228.2,47.663L229.75,56.34L231.31,51.705L232.86,47.635L234.41,47.114L235.96,49.262L237.51,48.331L239.06,48.294L240.61,47.927L242.17,49.955L243.72,46.903L245.27,47.954L246.82,48.715L248.37,49.381L249.92,47.09L251.47,49.963L253.03,48.006L254.58,46.649L256.13,46.831L257.68,49.143L259.23,47.511L260.78,46.591L262.33,46.998L263.89,49.211L265.44,47.812L266.99,47.425L268.54,46.882L270.09,47.347L271.64,47.931L273.19,47.116L274.75,46.77L276.3,46.786L277.85,48.319L279.4,47.264L280.95,46.711L282.5,46.979L284.05,47.909L285.61,46.945L287.16,46.48L288.71,46.458L290.26,46.699L291.81,47.008L293.36,47.699L294.91,46.798L296.46,46.661L298.02,46.609L299.57,46.909L301.12,46.415L302.67,46.274L304.22,46.3L305.77,46.842L307.32,46.549L308.88,46.293L310.43,46.351L311.98,46.451L313.53,46.198L315.08,46.222L316.63,46.172L318.18,46.451L319.74,46.175L321.29,46.003L322.84,45.965L324.39,46.189L325.94,46.156L327.49,46.239L329.04,45.95L330.6,45.792L332.15,45.837L333.7,46.099L335.25,45.871L336.8,45.84L338.35,45.737L339.9,46.131L341.46,46.045L343.01,45.732L344.56,45.657L346.11,45.902L347.66,45.731L349.21,45.664L350.76,45.649L352.32,45.761L353.87,45.781L355.42,45.74L356.97,45.604L358.52,45.666L360.07,45.638L361.62,45.616L363.18,45.548L364.73,45.53L366.28,45.573L367.83,45.528L369.38,45.521L370.93,45.565L372.48,45.567L374.04,45.49L375.59,45.536L377.14,45.422L378.69,45.441L380.24,45.466L381.79,45.528L383.34,45.435L384.9,45.401L386.45,45.406L388,45.455L389.55,45.409L391.1,45.362L392.65,45.373L394.2,45.392L395.76,45.372L397.31,45.344L398.86,45.332L400.41,45.382L401.96,45.377L403.51,45.362L405.06,45.326L406.62,45.321L408.17,45.325L409.72,45.309L411.27,45.313L412.82,45.293L414.37,45.303L415.92,45.288L417.47,45.311L419.03,45.281L420.58,45.284L422.13,45.277L423.68,45.28L425.23,45.258L426.78,45.251L428.33,45.274L429.89,45.249L431.44,45.259L432.99,45.249L434.54,45.274L436.09,45.249L437.64,45.235L439.19,45.256L440.75,45.224L442.3,45.225L443.85,45.245L445.4,45.219L446.95,45.211L448.5,45.22L450.05,45.23L451.61,45.202L453.16,45.199L454.71,45.198L456.26,45.212L457.81,45.213L459.36,45.197L460.91,45.183L462.47,45.201L464.02,45.204L465.57,45.185L467.12,45.2L468.67,45.17L470.22,45.198L471.77,45.198L473.33,45.18L474.88,45.17L476.43,45.179L477.98,45.18L479.53,45.186L481.08,45.177L482.63,45.188L484.19,45.176L485.74,45.182L487.29,45.173L488.84,45.167L490.39,45.18L491.94,45.174L493.49,45.172L495.05,45.177L496.6,45.167L498.15,45.177L499.7,45.161L501.25,45.157L502.8,45.169L504.35,45.168L505.91,45.176L507.46,45.172L509.01,45.166L510.56,45.162L512.11,45.17L513.66,45.16L515.21,45.166L516.77,45.166L518.32,45.162L519.87,45.162L521.42,45.167L522.97,45.162L524.52,45.161L526.07,45.162L527.63,45.161L529.18,45.156L530.73,45.158L532.28,45.16L533.83,45.16L535.38,45.156L536.93,45.156L538.48,45.157L540.04,45.155L541.59,45.158L543.14,45.154L544.69,45.155L546.24,45.154L547.79,45.155L549.34,45.155L550.9,45.154L552.45,45.154L554,45.16L555.55,45.151L557.1,45.153L558.65,45.156L560.2,45.154L561.76,45.158L563.31,45.157L567.96,45.154L569.51,45.158L571.06,45.155L574.17,45.151L575.72,45.153L577.27,45.151L578.82,45.153L580.37,45.153L583.48,45.153L585.03,45.151L588.13,45.153L589.68,45.151L591.23,45.151L594.34,45.151L598.99,45.151L600.54,45.153L602.09,45.154L603.64,45.151L605.2,45.151L606.75,45.151L608.3,45.151L609.85,45.153L611.4,45.153L612.95,45.151L614.5,45.151L619.16,45.151L626.92,45.151L628.47,45.151L636.22,45.151L640.88,45.151L642.43,45.151L657.94,45.151L692.07,45.153L718.45,45.151L720,45.151" style="fill:none;stroke:#0000FF" />
</g>
</svg>
