<?xml version="1.0"?>
<!-- Generated by SVGo and Plotinum VG -->
<svg width="720pt" height="432pt" viewBox="0 0 720 432"
	xmlns="http://www.w3.org/2000/svg"
	xmlns:xlink="http://www.w3.org/1999/xlink">
<g transform="scale(1, -1) translate(0, -432)">
<path d="M0,0L720,0L720,432L0,432Z" style="fill:#FFFFFF" />
<text x="358.5" y="-420.45" transform="scale(1, -1)"
	style="font-family:Times;font-weight:normal;font-style:normal;font-size:12px"> </text>
<text x="376.81" y="-3.8613" transform="scale(1, -1)"
	style="font-family:Times;font-weight:normal;font-style:normal;font-size:12px">Costs</text>
<text x="51.555" y="-18.634" transform="scale(1, -1)"
	style="font-family:Times;font-weight:normal;font-style:normal;font-size:10px">0.00</text>
<text x="350.84" y="-18.634" transform="scale(1, -1)"
	style="font-family:Times;font-weight:normal;font-style:normal;font-size:10px">250.00</text>
<text x="655.13" y="-18.634" transform="scale(1, -1)"
	style="font-family:Times;font-weight:normal;font-style:normal;font-size:10px">500.00</text>
<path d="M60.305,28.263L60.305,36.263" style="fill:none;stroke:#000000;stroke-width:0.5" />
<path d="M364.59,28.263L364.59,36.263" style="fill:none;stroke:#000000;stroke-width:0.5" />
<path d="M668.88,28.263L668.88,36.263" style="fill:none;stroke:#000000;stroke-width:0.5" />
<path d="M121.16,32.263L121.16,36.263" style="fill:none;stroke:#000000;stroke-width:0.5" />
<path d="M182.02,32.263L182.02,36.263" style="fill:none;stroke:#000000;stroke-width:0.5" />
<path d="M242.88,32.263L242.88,36.263" style="fill:none;stroke:#000000;stroke-width:0.5" />
<path d="M303.73,32.263L303.73,36.263" style="fill:none;stroke:#000000;stroke-width:0.5" />
<path d="M425.45,32.263L425.45,36.263" style="fill:none;stroke:#000000;stroke-width:0.5" />
<path d="M486.31,32.263L486.31,36.263" style="fill:none;stroke:#000000;stroke-width:0.5" />
<path d="M547.16,32.263L547.16,36.263" style="fill:none;stroke:#000000;stroke-width:0.5" />
<path d="M608.02,32.263L608.02,36.263" style="fill:none;stroke:#000000;stroke-width:0.5" />
<path d="M60.305,36.263L720,36.263" style="fill:none;stroke:#000000;stroke-width:0.5" />
<g transform="rotate(90)">
<text x="152.55" y="11.555" transform="scale(1, -1)"
	style="font-family:Times;font-weight:normal;font-style:normal;font-size:12px">Number of trials (1000000 total)</text>
</g>
<text x="19.055" y="-87.487" transform="scale(1, -1)"
	style="font-family:Times;font-weight:normal;font-style:normal;font-size:10px">10000</text>
<text x="19.055" y="-224.12" transform="scale(1, -1)"
	style="font-family:Times;font-weight:normal;font-style:normal;font-size:10px">40000</text>
<text x="19.055" y="-360.76" transform="scale(1, -1)"
	style="font-family:Times;font-weight:normal;font-style:normal;font-size:10px">70000</text>
<path d="M46.555,90.692L54.555,90.692" style="fill:none;stroke:#000000;stroke-width:0.5" />
<path d="M46.555,227.33L54.555,227.33" style="fill:none;stroke:#000000;stroke-width:0.5" />
<path d="M46.555,363.97L54.555,363.97" style="fill:none;stroke:#000000;stroke-width:0.5" />
<path d="M50.555,136.24L54.555,136.24" style="fill:none;stroke:#000000;stroke-width:0.5" />
<path d="M50.555,181.78L54.555,181.78" style="fill:none;stroke:#000000;stroke-width:0.5" />
<path d="M50.555,272.87L54.555,272.87" style="fill:none;stroke:#000000;stroke-width:0.5" />
<path d="M50.555,318.42L54.555,318.42" style="fill:none;stroke:#000000;stroke-width:0.5" />
<path d="M50.555,409.51L54.555,409.51" style="fill:none;stroke:#000000;stroke-width:0.5" />
<path d="M54.555,45.151L54.555,416.58" style="fill:none;stroke:#000000;stroke-width:0.5" />
<path d="M60.305,416.58L87.082,55.404L88.299,48.513L91.951,48.595L93.168,52.102L95.602,92.974L98.036,107.39L99.253,48.408L100.47,69.536L101.69,77.557L102.9,54.903L104.12,55.672L105.34,63.297L106.56,52.024L107.77,48.271L108.99,95.543L110.21,103.38L111.42,117.17L112.64,108.1L113.86,77.88L115.08,59.371L116.29,74.833L118.73,48.467L119.95,55.882L121.16,69.322L122.38,98.349L123.6,45.589L124.81,128.88L126.03,45.739L127.25,49.492L128.47,75.407L129.68,60.414L130.9,51.259L132.12,94.473L133.33,54.074L134.55,65.232L135.77,73.904L136.99,120.26L138.2,53.732L139.42,54.666L140.64,51.901L141.85,62.017L143.07,52.644L144.29,56.492L145.51,56.866L146.72,66.804L147.94,64.818L149.16,78.135L150.37,67.323L151.59,69.213L152.81,62.623L154.03,75.794L155.24,59.439L156.46,60.71L157.68,66.321L158.89,64.267L160.11,80.135L161.33,71.049L162.55,84.694L163.76,77.675L164.98,73.758L166.2,74.045L167.41,68.867L168.63,61.602L169.85,73.339L171.07,66.931L172.28,77.293L173.5,82.385L174.72,85.596L175.93,75.84L177.15,80.235L178.37,73.749L179.59,64.982L180.8,73.321L182.02,69.218L183.24,69.026L184.45,70.579L185.67,77.388L186.89,83.801L188.11,74.178L189.32,76.263L190.54,67.678L191.76,63.953L192.97,69.628L194.19,65.674L195.41,59.147L196.63,72.77L197.84,67.072L199.06,72.67L200.28,68.68L201.49,77.211L202.71,62.809L203.93,65.333L205.15,67.792L206.36,66.193L207.58,62.45L208.8,69.423L210.01,64.554L211.23,67.669L212.45,67.159L213.67,71.167L214.88,64.686L216.1,66.07L217.32,63.625L218.53,68.211L219.75,62.313L220.97,65.269L222.19,66.111L223.4,67.419L224.62,68.521L225.84,70.461L227.05,67.491L228.27,67.974L229.49,65.897L230.71,67.838L231.92,65.187L233.14,63.219L234.36,66.07L235.57,65.442L236.79,66.972L238.01,67.186L239.23,67.642L240.44,64.768L241.66,65.364L242.88,65.469L244.09,62.6L245.31,63.187L246.53,64.007L247.75,62.668L248.96,64.262L250.18,64.781L251.4,64.394L252.61,62.887L253.83,62.941L255.05,62.208L256.27,60.414L257.48,61.038L258.7,60.824L259.92,59.894L261.13,60.573L262.35,60.773L263.57,61.111L264.79,59.667L266,60.468L267.22,59.038L268.44,59.516L269.65,59.576L270.87,58.76L272.09,58.132L273.31,58.619L274.52,58.483L275.74,59.129L276.96,59.425L278.17,58.592L279.39,58.273L280.61,57.872L281.83,57.471L283.04,57.699L284.26,57.317L285.48,57.139L286.69,57.435L287.91,57.476L289.13,56.638L290.35,57.79L291.56,56.879L292.78,57.143L294,56.287L295.21,56.629L296.43,55.431L297.65,56.078L298.87,55.8L300.08,55.827L301.3,55.568L302.52,55.768L303.73,55.467L304.95,55.486L306.17,55.099L307.39,54.657L308.6,54.516L309.82,54.005L311.04,54.06L312.25,54.502L313.47,53.996L314.69,54.074L315.91,53.523L317.12,53.586L318.34,53.445L319.56,53.135L320.77,53.058L321.99,52.78L323.21,52.908L324.43,52.789L325.64,52.507L326.86,52.297L328.08,52.407L329.29,52.12L330.51,52.266L331.73,52.056L332.95,51.519L334.16,51.573L335.38,51.409L336.6,51.232L337.81,51.264L339.03,51.295L340.25,50.904L341.47,51.05L342.68,51.131L343.9,50.794L345.12,50.776L346.33,50.621L347.55,50.348L348.77,50.202L349.99,49.897L351.2,50.189L352.42,50.198L353.64,50.07L354.85,50.289L356.07,49.61L357.29,49.843L358.51,49.478L359.72,49.893L360.94,49.515L362.16,49.228L363.38,49.392L364.59,49.269L365.81,49.332L367.03,48.868L368.24,48.772L369.46,48.918L370.68,48.74L371.9,48.804L373.11,48.895L374.33,48.463L375.55,48.435L376.76,48.567L377.98,48.308L379.2,48.371L380.42,48.094L381.63,48.157L382.85,48.221L384.07,47.893L385.28,47.916L386.5,47.966L387.72,47.688L388.94,47.729L390.15,47.716L391.37,47.643L392.59,47.634L393.8,47.684L395.02,47.474L396.24,47.36L397.46,47.42L398.67,47.205L399.89,47.429L401.11,47.429L402.32,47.151L403.54,47.169L404.76,47.06L405.98,47.051L407.19,46.909L408.41,46.919L409.63,46.755L410.84,47.046L412.06,46.891L413.28,46.764L414.5,46.896L415.71,46.595L416.93,46.668L418.15,46.563L419.36,46.559L420.58,46.691L421.8,46.7L423.02,46.536L424.23,46.536L425.45,46.463L426.67,46.468L427.88,46.372L429.1,46.308L430.32,46.358L431.54,46.536L432.75,46.267L433.97,46.199L435.19,46.176L436.4,46.24L437.62,46.19L438.84,46.158L440.06,46.103L441.27,46.158L442.49,46.053L443.71,45.989L444.92,46.08L446.14,45.935L447.36,46.008L448.58,45.971L449.79,46.017L451.01,46.053L452.23,45.912L453.44,45.839L454.66,45.93L455.88,45.939L457.1,45.844L458.31,45.762L459.53,45.73L460.75,45.784L461.96,45.739L463.18,45.725L464.4,45.757L465.62,45.725L466.83,45.671L468.05,45.648L469.27,45.616L470.48,45.666L471.7,45.593L472.92,45.593L474.14,45.575L475.35,45.652L476.57,45.566L477.79,45.534L479,45.639L480.22,45.579L481.44,45.525L482.66,45.493L483.87,45.484L485.09,45.516L486.31,45.484L487.52,45.529L488.74,45.52L489.96,45.457L491.18,45.475L492.39,45.443L493.61,45.511L494.83,45.466L496.04,45.434L497.26,45.411L498.48,45.429L499.7,45.416L500.91,45.411L502.13,45.447L503.35,45.402L504.56,45.406L505.78,45.356L507,45.42L508.22,45.315L509.43,45.352L510.65,45.334L511.87,45.306L513.08,45.347L514.3,45.311L515.52,45.302L516.74,45.302L517.95,45.356L519.17,45.334L520.39,45.297L521.6,45.283L522.82,45.302L524.04,45.261L525.26,45.324L526.47,45.247L527.69,45.256L528.91,45.274L530.12,45.306L531.34,45.274L532.56,45.252L533.78,45.22L534.99,45.265L536.21,45.283L537.43,45.238L538.64,45.22L539.86,45.224L541.08,45.238L542.3,45.215L543.51,45.238L544.73,45.22L545.95,45.229L547.16,45.188L548.38,45.211L549.6,45.224L550.82,45.233L552.03,45.229L553.25,45.247L554.47,45.22L555.68,45.192L556.9,45.197L558.12,45.229L559.34,45.206L560.55,45.211L561.77,45.211L562.99,45.201L564.2,45.188L565.42,45.156L566.64,45.192L567.86,45.183L569.07,45.201L570.29,45.188L571.51,45.22L572.72,45.197L573.94,45.188L575.16,45.17L576.38,45.165L577.59,45.165L578.81,45.179L580.03,45.179L581.24,45.183L582.46,45.17L583.68,45.174L584.9,45.179L586.11,45.179L587.33,45.183L588.55,45.174L589.76,45.17L590.98,45.17L592.2,45.165L593.42,45.17L594.63,45.165L595.85,45.165L597.07,45.156L598.28,45.156L599.5,45.174L600.72,45.17L601.94,45.165L603.15,45.165L604.37,45.151L605.59,45.156L606.81,45.179L609.24,45.17L610.46,45.16L611.67,45.165L612.89,45.156L615.33,45.151L616.54,45.151L617.76,45.156L618.98,45.151L620.19,45.151L621.41,45.151L622.63,45.16L623.85,45.16L625.06,45.16L626.28,45.156L627.5,45.156L628.71,45.165L629.93,45.151L631.15,45.17L632.37,45.151L633.58,45.151L634.8,45.16L636.02,45.165L637.23,45.151L638.45,45.165L639.67,45.156L640.89,45.151L643.32,45.151L645.75,45.151L646.97,45.151L648.19,45.151L650.62,45.151L651.84,45.151L653.06,45.151L654.27,45.151L655.49,45.16L656.71,45.156L659.14,45.151L660.36,45.151L664.01,45.151L668.88,45.151L671.31,45.151L672.53,45.156L673.75,45.151L676.18,45.151L684.7,45.151L687.14,45.151L689.57,45.151L692.01,45.151L693.22,45.151L698.09,45.156L713.91,45.151L720,45.151" style="fill:none;stroke:#0000FF" />
</g>
</svg>
