<?xml version="1.0"?>
<!-- Generated by SVGo and Plotinum VG -->
<svg width="720pt" height="432pt" viewBox="0 0 720 432"
	xmlns="http://www.w3.org/2000/svg"
	xmlns:xlink="http://www.w3.org/1999/xlink">
<g transform="scale(1, -1) translate(0, -432)">
<path d="M0,0L720,0L720,432L0,432Z" style="fill:#FFFFFF" />
<text x="358.5" y="-420.45" transform="scale(1, -1)"
	style="font-family:Times;font-weight:normal;font-style:normal;font-size:12px"> </text>
<text x="385.56" y="-3.8613" transform="scale(1, -1)"
	style="font-family:Times;font-weight:normal;font-style:normal;font-size:12px">Costs</text>
<text x="69.055" y="-18.634" transform="scale(1, -1)"
	style="font-family:Times;font-weight:normal;font-style:normal;font-size:10px">0.00</text>
<text x="352.29" y="-18.634" transform="scale(1, -1)"
	style="font-family:Times;font-weight:normal;font-style:normal;font-size:10px">250.00</text>
<text x="640.53" y="-18.634" transform="scale(1, -1)"
	style="font-family:Times;font-weight:normal;font-style:normal;font-size:10px">500.00</text>
<path d="M77.805,28.263L77.805,36.263" style="fill:none;stroke:#000000;stroke-width:0.5" />
<path d="M366.04,28.263L366.04,36.263" style="fill:none;stroke:#000000;stroke-width:0.5" />
<path d="M654.28,28.263L654.28,36.263" style="fill:none;stroke:#000000;stroke-width:0.5" />
<path d="M135.45,32.263L135.45,36.263" style="fill:none;stroke:#000000;stroke-width:0.5" />
<path d="M193.1,32.263L193.1,36.263" style="fill:none;stroke:#000000;stroke-width:0.5" />
<path d="M250.75,32.263L250.75,36.263" style="fill:none;stroke:#000000;stroke-width:0.5" />
<path d="M308.4,32.263L308.4,36.263" style="fill:none;stroke:#000000;stroke-width:0.5" />
<path d="M423.69,32.263L423.69,36.263" style="fill:none;stroke:#000000;stroke-width:0.5" />
<path d="M481.34,32.263L481.34,36.263" style="fill:none;stroke:#000000;stroke-width:0.5" />
<path d="M538.99,32.263L538.99,36.263" style="fill:none;stroke:#000000;stroke-width:0.5" />
<path d="M596.63,32.263L596.63,36.263" style="fill:none;stroke:#000000;stroke-width:0.5" />
<path d="M711.93,32.263L711.93,36.263" style="fill:none;stroke:#000000;stroke-width:0.5" />
<path d="M77.805,36.263L720,36.263" style="fill:none;stroke:#000000;stroke-width:0.5" />
<g transform="rotate(90)">
<text x="152.55" y="11.555" transform="scale(1, -1)"
	style="font-family:Times;font-weight:normal;font-style:normal;font-size:12px">Number of trials (1000000 total)</text>
</g>
<text x="24.055" y="-112.63" transform="scale(1, -1)"
	style="font-family:Times;font-weight:normal;font-style:normal;font-size:10px">25000.00</text>
<text x="24.055" y="-254.02" transform="scale(1, -1)"
	style="font-family:Times;font-weight:normal;font-style:normal;font-size:10px">75000.00</text>
<text x="19.055" y="-395.4" transform="scale(1, -1)"
	style="font-family:Times;font-weight:normal;font-style:normal;font-size:10px">125000.00</text>
<path d="M64.055,115.84L72.055,115.84" style="fill:none;stroke:#000000;stroke-width:0.5" />
<path d="M64.055,257.22L72.055,257.22" style="fill:none;stroke:#000000;stroke-width:0.5" />
<path d="M64.055,398.61L72.055,398.61" style="fill:none;stroke:#000000;stroke-width:0.5" />
<path d="M68.055,59.287L72.055,59.287" style="fill:none;stroke:#000000;stroke-width:0.5" />
<path d="M68.055,87.563L72.055,87.563" style="fill:none;stroke:#000000;stroke-width:0.5" />
<path d="M68.055,144.12L72.055,144.12" style="fill:none;stroke:#000000;stroke-width:0.5" />
<path d="M68.055,172.39L72.055,172.39" style="fill:none;stroke:#000000;stroke-width:0.5" />
<path d="M68.055,200.67L72.055,200.67" style="fill:none;stroke:#000000;stroke-width:0.5" />
<path d="M68.055,228.95L72.055,228.95" style="fill:none;stroke:#000000;stroke-width:0.5" />
<path d="M68.055,285.5L72.055,285.5" style="fill:none;stroke:#000000;stroke-width:0.5" />
<path d="M68.055,313.78L72.055,313.78" style="fill:none;stroke:#000000;stroke-width:0.5" />
<path d="M68.055,342.05L72.055,342.05" style="fill:none;stroke:#000000;stroke-width:0.5" />
<path d="M68.055,370.33L72.055,370.33" style="fill:none;stroke:#000000;stroke-width:0.5" />
<path d="M72.055,45.151L72.055,416.58" style="fill:none;stroke:#000000;stroke-width:0.5" />
<path d="M77.805,416.58L103.17,52.017L104.32,48.539L107.78,48.488L108.93,73.926L110.09,69.608L111.24,77.344L113.55,66.158L114.7,65.488L115.85,48.618L117.01,73.518L118.16,69.693L120.46,87.874L121.62,69.512L122.77,87.032L123.92,52.184L125.08,59.298L126.23,62.171L127.38,84.326L128.53,95.119L129.69,55.274L130.84,74.757L133.15,48.562L134.3,49.034L135.45,63.135L136.61,59.734L137.76,45.42L138.91,70.247L140.06,56.779L141.22,54.757L142.37,77.463L143.52,55.17L144.68,65.55L145.83,62.92L146.98,49.497L148.13,57.746L149.29,57.022L150.44,83.042L151.59,51.692L152.75,53.018L153.9,57.811L155.05,78.546L156.21,54.494L157.36,54.466L158.51,55.6L159.66,59.171L160.82,59.208L161.97,92.944L163.12,67.032L164.28,58.325L165.43,57.313L166.58,57.876L167.74,59.714L168.89,56.592L170.04,69.973L171.19,86.97L172.35,60.76L173.5,61.795L174.65,57.898L175.81,62.298L176.96,55.764L178.11,61.798L179.26,59.915L180.42,57.904L181.57,62.963L182.72,57.438L183.88,58.014L185.03,58.113L186.18,60.528L187.34,61.654L188.49,59.762L189.64,59.49L190.79,58.294L191.95,58.614L193.1,63.398L194.25,61.736L195.41,64.227L196.56,55.696L197.71,59.869L198.86,58.314L200.02,59.844L201.17,60.616L202.32,59.674L203.48,60.537L204.63,60.896L205.78,60.489L206.94,60.726L208.09,58.591L209.24,56.649L210.39,58.201L211.55,60.18L212.7,61.795L213.85,60.087L215.01,60.528L216.16,58.571L217.31,55.877L218.47,56.685L219.62,58.116L220.77,60.243L221.92,58.908L223.08,58.19L224.23,56.366L225.38,54.782L226.54,56.748L227.69,57.115L228.84,56.637L229.99,55.758L231.15,54.893L232.3,56.264L233.45,55.515L234.61,58.41L235.76,56.697L236.91,54.833L238.07,56.137L239.22,57.132L240.37,55.133L241.52,53.759L242.68,55.385L243.83,56.323L244.98,54.449L246.14,54.596L247.29,55.764L248.44,55.993L249.59,53.697L250.75,53.798L251.9,53.651L253.05,54.005L254.21,54.89L255.36,56.343L256.51,54.231L257.67,53.626L258.82,53.484L259.97,53.521L261.12,53.165L262.28,53.074L263.43,53.861L264.58,52.953L265.74,53.21L266.89,52.769L268.04,52.153L269.2,52.433L270.35,52.532L271.5,52.597L272.65,52.204L273.81,52.24L274.96,52.189L276.11,51.579L277.27,52.24L278.42,51.827L279.57,52.008L280.72,51.621L281.88,51.341L283.03,51.279L284.18,51.132L285.34,51.081L286.49,51.245L287.64,51.33L288.8,51.013L289.95,50.694L291.1,50.756L292.25,50.838L293.41,50.394L294.56,50.49L295.71,50.354L296.87,50.552L298.02,50.261L299.17,50.233L300.32,50.001L301.48,49.687L302.63,49.435L303.78,49.534L304.94,50.094L306.09,49.735L307.24,49.478L308.4,49.495L309.55,49.288L310.7,49.042L311.85,49.243L313.01,49.235L314.16,49.201L315.31,48.974L316.47,48.841L317.62,48.898L318.77,48.624L319.93,48.839L321.08,48.731L322.23,48.595L323.38,48.59L324.54,48.44L325.69,48.299L326.84,48.168L328,48.378L329.15,48.211L330.3,48.055L331.45,48.219L332.61,48.225L333.76,48.004L334.91,47.832L336.07,47.891L337.22,47.659L338.37,47.691L339.53,47.79L340.68,47.6L341.83,47.45L342.98,47.518L344.14,47.43L345.29,47.329L346.44,47.337L347.6,47.464L348.75,47.19L349.9,47.286L351.05,47.173L352.21,47.303L353.36,47.077L354.51,47.043L355.67,47.069L356.82,46.916L357.97,46.961L359.13,46.93L360.28,46.817L361.43,46.76L362.58,46.741L363.74,46.791L364.89,46.845L366.04,46.814L367.2,46.647L368.35,46.574L369.5,46.661L370.65,46.63L371.81,46.523L372.96,46.421L374.11,46.511L375.27,46.435L376.42,46.438L377.57,46.393L378.73,46.495L379.88,46.319L381.03,46.282L382.18,46.169L383.34,46.226L384.49,46.282L385.64,46.192L386.8,46.152L387.95,46.113L389.1,46.099L390.26,46.192L391.41,46.008L392.56,46.09L393.71,46.031L394.87,45.974L396.02,45.954L397.17,46.005L398.33,45.889L399.48,45.861L400.63,45.997L401.78,45.974L402.94,45.889L404.09,45.79L405.24,45.875L406.4,45.79L407.55,45.906L408.7,45.816L409.86,45.904L411.01,45.782L412.16,45.799L413.31,45.708L414.47,45.708L415.62,45.751L416.77,45.773L417.93,45.655L419.08,45.663L420.23,45.683L421.38,45.658L422.54,45.641L423.69,45.618L424.84,45.629L426,45.559L427.15,45.578L428.3,45.587L429.46,45.539L430.61,45.527L431.76,45.544L432.91,45.525L434.07,45.539L435.22,45.544L436.37,45.55L437.53,45.527L438.68,45.488L439.83,45.536L440.99,45.454L442.14,45.44L443.29,45.482L444.44,45.505L445.6,45.471L446.75,45.462L447.9,45.372L449.06,45.38L450.21,45.403L451.36,45.397L452.51,45.412L453.67,45.392L454.82,45.366L455.97,45.369L457.13,45.378L458.28,45.406L459.43,45.341L460.59,45.378L461.74,45.355L462.89,45.363L464.04,45.31L465.2,45.262L466.35,45.324L467.5,45.324L468.66,45.279L469.81,45.298L470.96,45.296L472.11,45.307L473.27,45.304L474.42,45.256L475.57,45.279L476.73,45.315L477.88,45.242L479.03,45.25L480.19,45.31L481.34,45.273L482.49,45.276L483.64,45.259L484.8,45.264L485.95,45.222L487.1,45.284L488.26,45.242L489.41,45.281L490.56,45.205L491.72,45.231L492.87,45.225L494.02,45.233L495.17,45.245L496.33,45.225L497.48,45.236L498.63,45.219L499.79,45.202L500.94,45.222L502.09,45.245L503.24,45.219L504.4,45.199L505.55,45.194L506.7,45.231L507.86,45.208L509.01,45.208L510.16,45.216L511.32,45.194L512.47,45.205L513.62,45.197L514.77,45.177L515.93,45.219L517.08,45.211L518.23,45.197L519.39,45.202L520.54,45.188L521.69,45.191L522.84,45.185L524,45.18L525.15,45.18L526.3,45.18L527.46,45.185L528.61,45.182L529.76,45.188L530.92,45.199L532.07,45.171L533.22,45.188L534.37,45.18L535.53,45.171L536.68,45.18L537.83,45.163L538.99,45.157L540.14,45.18L541.29,45.171L542.45,45.18L543.6,45.185L544.75,45.177L545.9,45.177L547.06,45.168L548.21,45.163L549.36,45.16L550.52,45.157L551.67,45.16L552.82,45.157L553.97,45.171L555.13,45.166L556.28,45.163L557.43,45.166L558.59,45.16L559.74,45.16L560.89,45.16L562.05,45.154L563.2,45.154L564.35,45.163L565.5,45.154L566.66,45.16L567.81,45.154L568.96,45.16L570.12,45.163L571.27,45.154L572.42,45.157L573.57,45.154L574.73,45.157L575.88,45.166L578.19,45.154L581.65,45.157L582.8,45.154L583.95,45.154L585.1,45.157L586.26,45.157L589.72,45.154L590.87,45.157L592.02,45.154L593.18,45.151L594.33,45.163L595.48,45.151L596.63,45.151L597.79,45.157L598.94,45.151L600.09,45.157L601.25,45.154L602.4,45.154L604.7,45.154L608.16,45.154L613.93,45.154L615.08,45.154L618.54,45.154L619.69,45.151L620.85,45.151L622,45.154L625.46,45.151L626.61,45.151L627.76,45.154L628.92,45.151L631.22,45.151L635.83,45.151L636.99,45.151L638.14,45.151L642.75,45.151L643.91,45.154L647.36,45.151L650.82,45.151L653.13,45.151L654.28,45.151L660.05,45.151L665.81,45.151L720,45.151" style="fill:none;stroke:#0000FF" />
</g>
</svg>
