<?xml version="1.0"?>
<!-- Generated by SVGo and Plotinum VG -->
<svg width="720pt" height="432pt" viewBox="0 0 720 432"
	xmlns="http://www.w3.org/2000/svg"
	xmlns:xlink="http://www.w3.org/1999/xlink">
<g transform="scale(1, -1) translate(0, -432)">
<path d="M0,0L720,0L720,432L0,432Z" style="fill:#FFFFFF" />
<text x="358.5" y="-420.45" transform="scale(1, -1)"
	style="font-family:Times;font-weight:normal;font-style:normal;font-size:12px"> </text>
<text x="379.31" y="-3.8613" transform="scale(1, -1)"
	style="font-family:Times;font-weight:normal;font-style:normal;font-size:12px">Costs</text>
<text x="62.805" y="-18.634" transform="scale(1, -1)"
	style="font-family:Times;font-weight:normal;font-style:normal;font-size:10px">0</text>
<text x="373.32" y="-18.634" transform="scale(1, -1)"
	style="font-family:Times;font-weight:normal;font-style:normal;font-size:10px">200</text>
<text x="688.84" y="-18.634" transform="scale(1, -1)"
	style="font-family:Times;font-weight:normal;font-style:normal;font-size:10px">400</text>
<path d="M65.305,28.263L65.305,36.263" style="fill:none;stroke:#000000;stroke-width:0.5" />
<path d="M380.82,28.263L380.82,36.263" style="fill:none;stroke:#000000;stroke-width:0.5" />
<path d="M696.34,28.263L696.34,36.263" style="fill:none;stroke:#000000;stroke-width:0.5" />
<path d="M223.06,32.263L223.06,36.263" style="fill:none;stroke:#000000;stroke-width:0.5" />
<path d="M538.58,32.263L538.58,36.263" style="fill:none;stroke:#000000;stroke-width:0.5" />
<path d="M65.305,36.263L720,36.263" style="fill:none;stroke:#000000;stroke-width:0.5" />
<g transform="rotate(90)">
<text x="152.55" y="11.555" transform="scale(1, -1)"
	style="font-family:Times;font-weight:normal;font-style:normal;font-size:12px">Number of trials (1000000 total)</text>
</g>
<text x="24.055" y="-87.038" transform="scale(1, -1)"
	style="font-family:Times;font-weight:normal;font-style:normal;font-size:10px">40000</text>
<text x="19.055" y="-222.32" transform="scale(1, -1)"
	style="font-family:Times;font-weight:normal;font-style:normal;font-size:10px">160000</text>
<text x="19.055" y="-357.6" transform="scale(1, -1)"
	style="font-family:Times;font-weight:normal;font-style:normal;font-size:10px">280000</text>
<path d="M51.555,90.243L59.555,90.243" style="fill:none;stroke:#000000;stroke-width:0.5" />
<path d="M51.555,225.52L59.555,225.52" style="fill:none;stroke:#000000;stroke-width:0.5" />
<path d="M51.555,360.8L59.555,360.8" style="fill:none;stroke:#000000;stroke-width:0.5" />
<path d="M55.555,157.88L59.555,157.88" style="fill:none;stroke:#000000;stroke-width:0.5" />
<path d="M55.555,293.16L59.555,293.16" style="fill:none;stroke:#000000;stroke-width:0.5" />
<path d="M59.555,45.151L59.555,416.58" style="fill:none;stroke:#000000;stroke-width:0.5" />
<path d="M65.305,416.58L101.59,63.344L106.32,51.966L107.9,66.944L109.48,52.26L111.05,55.74L112.63,52.19L114.21,48.628L115.79,70.816L117.36,48.566L118.94,58.948L120.52,70.436L122.1,55.446L123.68,88.933L125.25,55.665L126.83,55.712L128.41,70.653L131.56,48.64L133.14,59.205L134.72,52.057L136.3,77.463L142.61,55.879L144.18,53.084L145.76,52.216L147.34,45.66L148.92,49.378L150.49,52.649L152.07,46.96L153.65,49.602L155.23,53.364L156.8,47.045L158.38,50.985L159.96,48.182L161.54,65.694L163.11,73.349L164.69,59.317L166.27,48.94L167.85,47.898L169.42,49.735L171,50.197L172.58,49.427L174.16,50.452L175.74,48.658L177.31,49.997L178.89,53.084L180.47,66.745L182.05,53.465L183.62,49.992L185.2,49.04L186.78,52.176L188.36,48.203L189.93,49.076L191.51,50.866L193.09,48.807L194.67,50.83L196.24,48.811L197.82,49.024L199.4,50.371L200.98,48.875L202.55,48.002L204.13,50.145L205.71,49.999L207.29,49.012L208.86,48.869L210.44,47.849L212.02,48.94L213.6,50.742L215.17,48.609L216.75,50.446L218.33,49.222L219.91,50.247L221.49,50.975L223.06,50.154L224.64,49.378L226.22,49.23L227.8,47.806L229.37,47.901L230.95,48.988L232.53,49.404L234.11,49.657L235.68,48.744L237.26,47.268L238.84,49.135L240.42,48.524L241.99,48.188L243.57,48.323L245.15,46.993L246.73,47.132L248.3,47.771L249.88,47.425L251.46,48.47L253.04,47.296L254.61,46.856L256.19,46.714L257.77,47.228L259.35,48.205L260.92,47.644L262.5,47.352L264.08,46.682L265.66,46.832L267.23,46.698L268.81,46.751L270.39,46.819L271.97,46.638L273.55,46.646L275.12,46.718L276.7,47.436L278.28,47.883L279.86,47.271L281.43,46.514L283.01,46.496L284.59,46.595L286.17,46.378L287.74,46.373L289.32,46.501L290.9,46.451L292.48,46.398L294.05,46.467L295.63,46.273L297.21,46.448L298.79,46.217L300.36,46.151L301.94,46.375L303.52,46.166L305.1,46.04L306.67,46.079L308.25,45.93L309.83,46.223L311.41,45.999L312.98,46.007L314.56,45.959L316.14,45.812L317.72,45.921L319.29,45.991L320.87,45.952L322.45,45.842L324.03,45.8L325.61,45.736L327.18,45.747L328.76,45.882L330.34,45.819L331.92,45.798L333.49,45.729L335.07,45.705L336.65,45.757L338.23,45.722L339.8,45.717L341.38,45.629L342.96,45.575L344.54,45.588L346.11,45.59L347.69,45.612L349.27,45.607L350.85,45.537L352.42,45.491L354,45.456L355.58,45.536L357.16,45.536L358.73,45.483L360.31,45.479L361.89,45.43L363.47,45.45L365.04,45.422L366.62,45.421L368.2,45.426L369.78,45.407L371.36,45.396L372.93,45.417L374.51,45.41L376.09,45.41L377.67,45.372L379.24,45.369L380.82,45.366L382.4,45.352L383.98,45.355L385.55,45.346L387.13,45.32L388.71,45.32L390.29,45.315L391.86,45.327L393.44,45.318L395.02,45.299L396.6,45.309L398.17,45.298L399.75,45.322L401.33,45.29L402.91,45.271L404.48,45.277L406.06,45.247L407.64,45.264L409.22,45.254L410.79,45.257L412.37,45.246L413.95,45.249L415.53,45.24L417.1,45.252L418.68,45.257L420.26,45.237L421.84,45.22L423.42,45.216L424.99,45.218L426.57,45.218L428.15,45.225L429.73,45.226L431.3,45.208L432.88,45.212L434.46,45.207L436.04,45.207L437.61,45.204L439.19,45.19L440.77,45.202L442.35,45.2L443.92,45.199L445.5,45.199L447.08,45.205L448.66,45.193L450.23,45.185L451.81,45.183L453.39,45.185L454.97,45.194L456.54,45.184L458.12,45.184L459.7,45.177L461.28,45.194L462.85,45.172L464.43,45.181L466.01,45.176L467.59,45.175L469.16,45.176L470.74,45.171L472.32,45.171L473.9,45.172L475.48,45.169L477.05,45.174L478.63,45.175L480.21,45.172L481.79,45.169L483.36,45.157L484.94,45.164L486.52,45.169L488.1,45.171L489.67,45.162L491.25,45.169L492.83,45.166L494.41,45.163L495.98,45.157L497.56,45.165L499.14,45.166L500.72,45.156L502.29,45.156L503.87,45.158L505.45,45.165L507.03,45.158L508.6,45.16L510.18,45.157L511.76,45.159L513.34,45.16L514.91,45.16L516.49,45.157L518.07,45.158L519.65,45.159L521.23,45.16L522.8,45.155L524.38,45.156L525.96,45.154L529.11,45.155L530.69,45.152L532.27,45.151L533.85,45.154L535.42,45.158L537,45.152L538.58,45.154L540.16,45.152L543.31,45.156L544.89,45.154L546.47,45.151L548.04,45.152L549.62,45.154L551.2,45.152L554.35,45.152L555.93,45.154L557.51,45.154L560.66,45.155L562.24,45.151L563.82,45.151L566.97,45.151L568.55,45.154L570.13,45.152L571.71,45.151L573.29,45.152L578.02,45.151L579.6,45.151L581.17,45.152L582.75,45.151L587.48,45.152L589.06,45.151L590.64,45.151L592.22,45.151L593.79,45.151L604.84,45.152L606.41,45.151L611.15,45.151L617.46,45.151L639.54,45.151L641.12,45.152L649.01,45.151L650.59,45.151L720,45.151" style="fill:none;stroke:#0000FF" />
</g>
</svg>
