<?xml version="1.0"?>
<!-- Generated by SVGo and Plotinum VG -->
<svg width="720pt" height="432pt" viewBox="0 0 720 432"
	xmlns="http://www.w3.org/2000/svg"
	xmlns:xlink="http://www.w3.org/1999/xlink">
<g transform="scale(1, -1) translate(0, -432)">
<path d="M0,0L720,0L720,432L0,432Z" style="fill:#FFFFFF" />
<text x="358.5" y="-420.45" transform="scale(1, -1)"
	style="font-family:Times;font-weight:normal;font-style:normal;font-size:12px"> </text>
<text x="376.81" y="-3.8613" transform="scale(1, -1)"
	style="font-family:Times;font-weight:normal;font-style:normal;font-size:12px">Costs</text>
<text x="51.555" y="-18.634" transform="scale(1, -1)"
	style="font-family:Times;font-weight:normal;font-style:normal;font-size:10px">0.00</text>
<text x="358.91" y="-18.634" transform="scale(1, -1)"
	style="font-family:Times;font-weight:normal;font-style:normal;font-size:10px">250.00</text>
<text x="671.27" y="-18.634" transform="scale(1, -1)"
	style="font-family:Times;font-weight:normal;font-style:normal;font-size:10px">500.00</text>
<path d="M60.305,28.263L60.305,36.263" style="fill:none;stroke:#000000;stroke-width:0.5" />
<path d="M372.66,28.263L372.66,36.263" style="fill:none;stroke:#000000;stroke-width:0.5" />
<path d="M685.02,28.263L685.02,36.263" style="fill:none;stroke:#000000;stroke-width:0.5" />
<path d="M122.78,32.263L122.78,36.263" style="fill:none;stroke:#000000;stroke-width:0.5" />
<path d="M185.25,32.263L185.25,36.263" style="fill:none;stroke:#000000;stroke-width:0.5" />
<path d="M247.72,32.263L247.72,36.263" style="fill:none;stroke:#000000;stroke-width:0.5" />
<path d="M310.19,32.263L310.19,36.263" style="fill:none;stroke:#000000;stroke-width:0.5" />
<path d="M435.13,32.263L435.13,36.263" style="fill:none;stroke:#000000;stroke-width:0.5" />
<path d="M497.6,32.263L497.6,36.263" style="fill:none;stroke:#000000;stroke-width:0.5" />
<path d="M560.07,32.263L560.07,36.263" style="fill:none;stroke:#000000;stroke-width:0.5" />
<path d="M622.55,32.263L622.55,36.263" style="fill:none;stroke:#000000;stroke-width:0.5" />
<path d="M60.305,36.263L720,36.263" style="fill:none;stroke:#000000;stroke-width:0.5" />
<g transform="rotate(90)">
<text x="152.55" y="11.555" transform="scale(1, -1)"
	style="font-family:Times;font-weight:normal;font-style:normal;font-size:12px">Number of trials (1000000 total)</text>
</g>
<text x="19.055" y="-89.54" transform="scale(1, -1)"
	style="font-family:Times;font-weight:normal;font-style:normal;font-size:10px">10000</text>
<text x="19.055" y="-232.34" transform="scale(1, -1)"
	style="font-family:Times;font-weight:normal;font-style:normal;font-size:10px">40000</text>
<text x="19.055" y="-375.13" transform="scale(1, -1)"
	style="font-family:Times;font-weight:normal;font-style:normal;font-size:10px">70000</text>
<path d="M46.555,92.745L54.555,92.745" style="fill:none;stroke:#000000;stroke-width:0.5" />
<path d="M46.555,235.54L54.555,235.54" style="fill:none;stroke:#000000;stroke-width:0.5" />
<path d="M46.555,378.34L54.555,378.34" style="fill:none;stroke:#000000;stroke-width:0.5" />
<path d="M50.555,140.34L54.555,140.34" style="fill:none;stroke:#000000;stroke-width:0.5" />
<path d="M50.555,187.94L54.555,187.94" style="fill:none;stroke:#000000;stroke-width:0.5" />
<path d="M50.555,283.14L54.555,283.14" style="fill:none;stroke:#000000;stroke-width:0.5" />
<path d="M50.555,330.74L54.555,330.74" style="fill:none;stroke:#000000;stroke-width:0.5" />
<path d="M54.555,45.151L54.555,416.58" style="fill:none;stroke:#000000;stroke-width:0.5" />
<path d="M60.305,416.58L87.792,49.235L89.041,48.726L90.291,59.241L92.79,52.239L94.039,67.033L95.289,59.174L96.538,72.073L97.787,48.75L99.037,98.719L100.29,74.253L101.54,87.586L102.79,109.64L104.03,78.718L105.28,64.338L106.53,52.51L107.78,64.267L109.03,62.596L110.28,88.647L111.53,138.17L112.78,55.799L114.03,111.57L115.28,77.971L116.53,49.121L117.78,75.448L119.03,45.289L120.28,45.199L121.53,64.086L122.78,106.48L124.03,65.21L125.27,46.037L126.52,76.448L127.77,61.097L129.02,64.081L130.27,66.842L131.52,57.841L132.77,55.837L134.02,54.866L135.27,78.075L136.52,72.625L137.77,90.851L139.02,88.918L140.27,59.264L141.52,64.572L142.77,60.754L144.02,70.783L145.27,65.114L146.51,66.214L147.76,66.509L149.01,67.823L150.26,74.725L151.51,73.368L152.76,89.732L154.01,80.317L155.26,71.178L156.51,92.803L157.76,69.679L159.01,68.437L160.26,67.842L161.51,79.96L162.76,75.115L164.01,72.802L165.26,87.533L166.51,75.02L167.76,69.774L169,76.438L170.25,66.471L171.5,72.33L172.75,73.825L174,77.533L175.25,70.812L176.5,76.571L177.75,81.898L179,71.769L180.25,79.451L181.5,73.135L182.75,65.486L184,69.013L185.25,69.37L186.5,71.916L187.75,70.431L189,78.428L190.24,76.433L191.49,72.687L192.74,75.61L193.99,67.761L195.24,70.15L196.49,67.894L197.74,68.58L198.99,70.769L200.24,72.416L201.49,72.078L202.74,69.26L203.99,72.954L205.24,71.064L206.49,73.22L207.74,73.482L208.99,66.614L210.24,68.803L211.48,68.689L212.73,68.503L213.98,70.75L215.23,70.76L216.48,70.75L217.73,66.971L218.98,70.612L220.23,68.656L221.48,66.542L222.73,68.708L223.98,67.271L225.23,67.152L226.48,67.442L227.73,69.013L228.98,68.361L230.23,67.994L231.48,69.831L232.73,66.652L233.97,67.133L235.22,67.632L236.47,64.81L237.72,64.933L238.97,64.638L240.22,66.29L241.47,65.814L242.72,66.323L243.97,66.171L245.22,64.067L246.47,64.572L247.72,64.215L248.97,63.939L250.22,63.415L251.47,63.129L252.72,63.263L253.97,63.391L255.21,62.844L256.46,62.658L257.71,63.082L258.96,62.653L260.21,61.106L261.46,62.206L262.71,60.492L263.96,60.754L265.21,60.645L266.46,61.459L267.71,61.264L268.96,60.269L270.21,61.559L271.46,59.774L272.71,59.859L273.96,60.221L275.21,59.417L276.45,59.936L277.7,59.569L278.95,58.627L280.2,58.569L281.45,59.031L282.7,59.126L283.95,58.189L285.2,58.351L286.45,57.741L287.7,57.118L288.95,57.622L290.2,57.142L291.45,57.394L292.7,57.032L293.95,57.522L295.2,56.575L296.45,56.618L297.7,56.47L298.94,55.752L300.19,56.018L301.44,55.685L302.69,55.699L303.94,55.252L305.19,55.318L306.44,55.019L307.69,54.505L308.94,54.643L310.19,54.576L311.44,54.095L312.69,54.624L313.94,53.876L315.19,53.933L316.44,54.071L317.69,53.586L318.94,53.676L320.18,53.405L321.43,52.972L322.68,52.972L323.93,52.881L325.18,52.724L326.43,52.372L327.68,52.463L328.93,52.006L330.18,51.91L331.43,51.963L332.68,52.139L333.93,52.134L335.18,51.225L336.43,51.801L337.68,51.187L338.93,51.453L340.18,51.12L341.42,51.125L342.67,50.982L343.92,50.778L345.17,50.682L346.42,50.601L347.67,50.659L348.92,50.359L350.17,50.363L351.42,50.316L352.67,50.078L353.92,49.992L355.17,50.035L356.42,49.664L357.67,49.564L358.92,49.783L360.17,49.431L361.42,49.545L362.67,49.221L363.91,49.288L365.16,49.24L366.41,48.964L367.66,48.94L368.91,49.069L370.16,48.778L371.41,48.921L372.66,48.978L373.91,48.379L375.16,48.764L376.41,48.521L377.66,48.517L378.91,48.36L380.16,48.288L381.41,47.988L382.66,48.155L383.91,48.102L385.15,47.86L386.4,47.812L387.65,47.96L388.9,47.884L390.15,47.726L391.4,47.741L392.65,47.574L393.9,47.574L395.15,47.398L396.4,47.27L397.65,47.412L398.9,47.284L400.15,47.265L401.4,47.108L402.65,46.989L403.9,47.141L405.15,47.07L406.39,47.036L407.64,46.741L408.89,46.927L410.14,46.96L411.39,46.86L412.64,47.084L413.89,47.051L415.14,46.727L416.39,46.808L417.64,46.622L418.89,46.617L420.14,46.594L421.39,46.598L422.64,46.465L423.89,46.365L425.14,46.313L426.39,46.437L427.64,46.27L428.88,46.403L430.13,46.265L431.38,46.398L432.63,46.213L433.88,46.26L435.13,46.127L436.38,46.284L437.63,46.156L438.88,46.141L440.13,46.099L441.38,46.08L442.63,45.994L443.88,46.032L445.13,46.003L446.38,46.037L447.63,45.922L448.88,45.832L450.12,45.865L451.37,45.865L452.62,45.87L453.87,45.837L455.12,45.837L456.37,45.756L457.62,45.799L458.87,45.67L460.12,45.675L461.37,45.737L462.62,45.665L463.87,45.799L465.12,45.699L466.37,45.637L467.62,45.699L468.87,45.675L470.12,45.699L471.36,45.637L472.61,45.713L473.86,45.618L475.11,45.546L476.36,45.608L477.61,45.48L478.86,45.513L480.11,45.532L481.36,45.489L482.61,45.466L483.86,45.446L485.11,45.508L486.36,45.518L487.61,45.485L488.86,45.427L490.11,45.451L491.36,45.385L492.61,45.375L493.85,45.437L495.1,45.375L496.35,45.437L497.6,45.394L498.85,45.347L500.1,45.451L501.35,45.323L502.6,45.361L503.85,45.399L505.1,45.342L506.35,45.389L507.6,45.347L508.85,45.351L510.1,45.332L511.35,45.366L512.6,45.294L513.85,45.289L515.09,45.261L516.34,45.313L517.59,45.28L518.84,45.266L520.09,45.327L521.34,45.261L522.59,45.308L523.84,45.304L525.09,45.275L526.34,45.218L527.59,45.28L528.84,45.228L530.09,45.251L531.34,45.261L532.59,45.256L533.84,45.266L535.09,45.27L536.33,45.256L537.58,45.218L538.83,45.256L540.08,45.247L541.33,45.275L542.58,45.256L543.83,45.213L545.08,45.247L546.33,45.218L547.58,45.223L548.83,45.237L550.08,45.208L551.33,45.218L552.58,45.208L553.83,45.208L555.08,45.18L556.33,45.204L557.58,45.204L558.82,45.18L560.07,45.185L561.32,45.194L562.57,45.18L563.82,45.208L565.07,45.18L566.32,45.18L567.57,45.228L568.82,45.18L570.07,45.185L571.32,45.166L572.57,45.18L573.82,45.17L575.07,45.204L576.32,45.17L577.57,45.17L578.82,45.189L580.06,45.17L581.31,45.213L582.56,45.175L583.81,45.161L585.06,45.17L586.31,45.175L587.56,45.166L588.81,45.18L590.06,45.151L591.31,45.166L592.56,45.17L593.81,45.166L595.06,45.166L596.31,45.18L597.56,45.156L598.81,45.166L600.06,45.199L601.3,45.161L602.55,45.156L603.8,45.175L605.05,45.161L606.3,45.161L607.55,45.151L608.8,45.161L610.05,45.166L611.3,45.161L613.8,45.166L615.05,45.166L616.3,45.156L617.55,45.151L620.05,45.156L621.3,45.166L622.55,45.156L623.79,45.161L626.29,45.151L628.79,45.151L630.04,45.156L631.29,45.151L633.79,45.156L635.04,45.166L637.54,45.151L638.79,45.156L640.04,45.156L641.29,45.161L643.79,45.156L645.03,45.151L647.53,45.17L651.28,45.156L657.53,45.151L662.53,45.161L667.52,45.151L670.02,45.151L680.02,45.151L692.51,45.151L705.01,45.151L720,45.151" style="fill:none;stroke:#0000FF" />
</g>
</svg>
