<?xml version="1.0"?>
<!-- Generated by SVGo and Plotinum VG -->
<svg width="720pt" height="432pt" viewBox="0 0 720 432"
	xmlns="http://www.w3.org/2000/svg"
	xmlns:xlink="http://www.w3.org/1999/xlink">
<g transform="scale(1, -1) translate(0, -432)">
<path d="M0,0L720,0L720,432L0,432Z" style="fill:#FFFFFF" />
<text x="358.5" y="-420.45" transform="scale(1, -1)"
	style="font-family:Times;font-weight:normal;font-style:normal;font-size:12px"> </text>
<text x="376.81" y="-3.8613" transform="scale(1, -1)"
	style="font-family:Times;font-weight:normal;font-style:normal;font-size:12px">Costs</text>
<text x="51.555" y="-18.634" transform="scale(1, -1)"
	style="font-family:Times;font-weight:normal;font-style:normal;font-size:10px">0.00</text>
<text x="335.39" y="-18.634" transform="scale(1, -1)"
	style="font-family:Times;font-weight:normal;font-style:normal;font-size:10px">250.00</text>
<text x="624.22" y="-18.634" transform="scale(1, -1)"
	style="font-family:Times;font-weight:normal;font-style:normal;font-size:10px">500.00</text>
<path d="M60.305,28.263L60.305,36.263" style="fill:none;stroke:#000000;stroke-width:0.5" />
<path d="M349.14,28.263L349.14,36.263" style="fill:none;stroke:#000000;stroke-width:0.5" />
<path d="M637.97,28.263L637.97,36.263" style="fill:none;stroke:#000000;stroke-width:0.5" />
<path d="M118.07,32.263L118.07,36.263" style="fill:none;stroke:#000000;stroke-width:0.5" />
<path d="M175.84,32.263L175.84,36.263" style="fill:none;stroke:#000000;stroke-width:0.5" />
<path d="M233.6,32.263L233.6,36.263" style="fill:none;stroke:#000000;stroke-width:0.5" />
<path d="M291.37,32.263L291.37,36.263" style="fill:none;stroke:#000000;stroke-width:0.5" />
<path d="M406.9,32.263L406.9,36.263" style="fill:none;stroke:#000000;stroke-width:0.5" />
<path d="M464.67,32.263L464.67,36.263" style="fill:none;stroke:#000000;stroke-width:0.5" />
<path d="M522.44,32.263L522.44,36.263" style="fill:none;stroke:#000000;stroke-width:0.5" />
<path d="M580.2,32.263L580.2,36.263" style="fill:none;stroke:#000000;stroke-width:0.5" />
<path d="M695.74,32.263L695.74,36.263" style="fill:none;stroke:#000000;stroke-width:0.5" />
<path d="M60.305,36.263L720,36.263" style="fill:none;stroke:#000000;stroke-width:0.5" />
<g transform="rotate(90)">
<text x="152.55" y="11.555" transform="scale(1, -1)"
	style="font-family:Times;font-weight:normal;font-style:normal;font-size:12px">Number of trials (1000000 total)</text>
</g>
<text x="19.055" y="-81.966" transform="scale(1, -1)"
	style="font-family:Times;font-weight:normal;font-style:normal;font-size:10px">10000</text>
<text x="19.055" y="-242.06" transform="scale(1, -1)"
	style="font-family:Times;font-weight:normal;font-style:normal;font-size:10px">50000</text>
<text x="19.055" y="-402.16" transform="scale(1, -1)"
	style="font-family:Times;font-weight:normal;font-style:normal;font-size:10px">90000</text>
<path d="M46.555,85.172L54.555,85.172" style="fill:none;stroke:#000000;stroke-width:0.5" />
<path d="M46.555,245.27L54.555,245.27" style="fill:none;stroke:#000000;stroke-width:0.5" />
<path d="M46.555,405.37L54.555,405.37" style="fill:none;stroke:#000000;stroke-width:0.5" />
<path d="M50.555,125.2L54.555,125.2" style="fill:none;stroke:#000000;stroke-width:0.5" />
<path d="M50.555,165.22L54.555,165.22" style="fill:none;stroke:#000000;stroke-width:0.5" />
<path d="M50.555,205.25L54.555,205.25" style="fill:none;stroke:#000000;stroke-width:0.5" />
<path d="M50.555,285.3L54.555,285.3" style="fill:none;stroke:#000000;stroke-width:0.5" />
<path d="M50.555,325.32L54.555,325.32" style="fill:none;stroke:#000000;stroke-width:0.5" />
<path d="M50.555,365.34L54.555,365.34" style="fill:none;stroke:#000000;stroke-width:0.5" />
<path d="M54.555,45.151L54.555,416.58" style="fill:none;stroke:#000000;stroke-width:0.5" />
<path d="M60.305,416.58L86.877,48.389L88.033,55.91L90.343,55.606L91.499,63.399L92.654,55.85L93.809,48.734L96.12,55.198L97.275,78.848L98.431,67.185L99.586,104.43L100.74,82.098L101.9,72.12L103.05,48.609L104.21,48.485L105.36,48.746L106.52,67.049L107.67,88.758L108.83,69.771L109.98,80.697L111.14,103.57L112.29,68.246L113.45,66.781L114.61,45.239L115.76,55.246L116.92,91.82L118.07,52.728L119.23,79.621L120.38,45.372L121.54,115.07L122.69,68.077L123.85,46.396L125,91.92L126.16,46.644L127.31,52.48L128.47,75.402L129.62,49.914L130.78,71.151L131.94,64.299L133.09,69.999L134.25,48.794L135.4,51.091L136.56,53.785L137.71,56.118L138.87,57.567L140.02,57.403L141.18,56.326L142.33,64.795L143.49,54.277L144.64,94.678L145.8,79.356L146.95,63.983L148.11,66.925L149.27,71.007L150.42,65.984L151.58,62.566L152.73,64.683L153.89,98.872L155.04,59.848L156.2,65.648L157.35,66.008L158.51,74.874L159.66,66.144L160.82,73.329L161.97,70.163L163.13,66.813L164.28,68.21L165.44,62.434L166.6,62.498L167.75,68.306L168.91,69.698L170.06,70.331L171.22,65.5L172.37,76.607L173.53,63.879L174.68,63.823L175.84,66.513L176.99,59.064L178.15,68.874L179.3,62.318L180.46,66.196L181.61,70.807L182.77,65.092L183.93,73.289L185.08,65.056L186.24,67.865L187.39,61.449L188.55,57.207L189.7,66.633L190.86,61.866L192.01,67.325L193.17,71.632L194.32,68.049L195.48,68.594L196.63,63.178L197.79,62.898L198.94,61.081L200.1,61.722L201.26,68.858L202.41,62.926L203.57,66.969L204.72,65.232L205.88,67.477L207.03,67.789L208.19,60.005L209.34,65.084L210.5,67.965L211.65,60.961L212.81,65.416L213.96,60.461L215.12,68.85L216.27,63.13L217.43,62.89L218.59,65.468L219.74,61.161L220.9,60.869L222.05,63.21L223.21,60.861L224.36,61.313L225.52,61.461L226.67,62.242L227.83,58.516L228.98,60.221L230.14,61.798L231.29,60.673L232.45,61.125L233.6,61.638L234.76,60.973L235.92,59.916L237.07,60.269L238.23,61.766L239.38,60.521L240.54,60.633L241.69,59.16L242.85,62.334L244,59.44L245.16,59.524L246.31,59.9L247.47,58.327L248.62,58.788L249.78,58.211L250.93,58.271L252.09,59.26L253.25,58.279L254.4,59.78L255.56,58.235L256.71,59.044L257.87,58.524L259.02,56.787L260.18,57.311L261.33,57.015L262.49,57.807L263.64,57.755L264.8,56.734L265.95,57.851L267.11,56.266L268.26,56.923L269.42,56.362L270.58,56.018L271.73,56.658L272.89,54.961L274.04,56.106L275.2,55.874L276.35,55.053L277.51,56.426L278.66,55.346L279.82,55.254L280.97,54.717L282.13,54.381L283.28,54.893L284.44,54.113L285.59,54.353L286.75,54.453L287.91,53.853L289.06,54.389L290.22,53.408L291.37,54.125L292.53,53.484L293.68,53.02L294.84,53.825L295.99,53.008L297.15,53.136L298.3,53.032L299.46,52.988L300.61,52.82L301.77,52.564L302.92,52.532L304.08,52.556L305.24,52.12L306.39,52.152L307.55,52.428L308.7,51.872L309.86,51.751L311.01,51.912L312.17,51.667L313.32,51.679L314.48,51.371L315.63,51.275L316.79,51.143L317.94,50.759L319.1,51.303L320.25,51.127L321.41,50.683L322.57,50.895L323.72,50.839L324.88,50.767L326.03,50.259L327.19,50.475L328.34,50.415L329.5,49.774L330.65,50.158L331.81,50.078L332.96,49.926L334.12,49.778L335.27,49.498L336.43,50.202L337.58,49.358L338.74,49.398L339.9,49.626L341.05,49.178L342.21,49.394L343.36,49.126L344.52,49.198L345.67,48.982L346.83,48.838L347.98,49.022L349.14,48.75L350.29,49.086L351.45,48.802L352.6,48.501L353.76,48.537L354.91,48.269L356.07,48.253L357.23,48.461L358.38,48.213L359.54,48.317L360.69,48.325L361.85,48.061L363,48.021L364.16,48.085L365.31,47.933L366.47,47.693L367.62,47.677L368.78,48.037L369.93,47.773L371.09,47.601L372.24,47.605L373.4,47.557L374.56,47.701L375.71,47.533L376.87,47.393L378.02,47.525L379.18,47.277L380.33,47.225L381.49,47.217L382.64,47.145L383.8,47.161L384.95,47.041L386.11,47.025L387.26,47.189L388.42,47.013L389.57,47.081L390.73,46.712L391.89,46.948L393.04,46.9L394.2,46.836L395.35,46.776L396.51,46.744L397.66,46.648L398.82,46.608L399.97,46.6L401.13,46.532L402.28,46.564L403.44,46.468L404.59,46.528L405.75,46.404L406.9,46.472L408.06,46.344L409.22,46.228L410.37,46.404L411.53,46.396L412.68,46.3L413.84,46.24L414.99,46.232L416.15,46.184L417.3,46.152L418.46,46.224L419.61,46.136L420.77,46.22L421.92,46.116L423.08,46.08L424.23,45.988L425.39,46.036L426.55,46.052L427.7,46.02L428.86,45.924L430.01,45.904L431.17,45.808L432.32,46L433.48,45.896L434.63,45.92L435.79,45.864L436.94,45.808L438.1,45.784L439.25,45.776L440.41,45.744L441.56,45.752L442.72,45.672L443.88,45.716L445.03,45.784L446.19,45.704L447.34,45.792L448.5,45.708L449.65,45.644L450.81,45.672L451.96,45.628L453.12,45.64L454.27,45.596L455.43,45.604L456.58,45.576L457.74,45.568L458.89,45.512L460.05,45.628L461.21,45.572L462.36,45.576L463.52,45.5L464.67,45.524L465.83,45.48L466.98,45.448L468.14,45.496L469.29,45.472L470.45,45.416L471.6,45.492L472.76,45.428L473.91,45.484L475.07,45.452L476.22,45.432L477.38,45.408L478.54,45.444L479.69,45.444L480.85,45.38L482,45.404L483.16,45.432L484.31,45.355L485.47,45.351L486.62,45.319L487.78,45.396L488.93,45.347L490.09,45.335L491.24,45.307L492.4,45.392L493.55,45.319L494.71,45.299L495.87,45.343L497.02,45.295L498.18,45.355L499.33,45.323L500.49,45.263L501.64,45.347L502.8,45.303L503.95,45.307L505.11,45.295L506.26,45.319L507.42,45.307L508.57,45.299L509.73,45.307L510.88,45.231L512.04,45.283L513.2,45.287L514.35,45.263L515.51,45.239L516.66,45.271L517.82,45.303L518.97,45.255L520.13,45.275L521.28,45.267L522.44,45.243L523.59,45.203L524.75,45.239L525.9,45.231L527.06,45.223L528.21,45.239L529.37,45.231L530.53,45.243L531.68,45.223L532.84,45.219L533.99,45.199L535.15,45.211L536.3,45.219L537.46,45.195L538.61,45.195L539.77,45.211L540.92,45.187L542.08,45.191L543.23,45.191L544.39,45.179L545.54,45.183L546.7,45.203L547.86,45.183L549.01,45.187L550.17,45.187L551.32,45.215L552.48,45.195L553.63,45.171L554.79,45.179L555.94,45.179L557.1,45.171L558.25,45.167L559.41,45.195L560.56,45.191L561.72,45.187L562.87,45.199L564.03,45.199L565.19,45.171L566.34,45.171L567.5,45.163L568.65,45.163L569.81,45.179L570.96,45.163L572.12,45.155L573.27,45.167L574.43,45.171L575.58,45.155L576.74,45.163L577.89,45.171L579.05,45.155L580.2,45.183L581.36,45.167L582.52,45.163L583.67,45.171L584.83,45.155L585.98,45.155L587.14,45.183L588.29,45.179L589.45,45.175L590.6,45.167L591.76,45.175L592.91,45.155L594.07,45.159L595.22,45.151L596.38,45.155L597.53,45.159L598.69,45.155L599.85,45.155L601,45.151L602.16,45.163L603.31,45.151L604.47,45.151L605.62,45.151L606.78,45.151L607.93,45.155L609.09,45.159L610.24,45.155L611.4,45.151L612.55,45.159L613.71,45.151L614.86,45.159L616.02,45.151L617.18,45.163L618.33,45.155L619.49,45.151L620.64,45.155L621.8,45.155L622.95,45.159L626.42,45.151L627.57,45.151L634.51,45.151L635.66,45.155L636.82,45.151L639.13,45.151L642.59,45.151L643.75,45.151L644.9,45.151L646.06,45.151L648.37,45.151L650.68,45.151L651.84,45.151L655.3,45.151L657.61,45.155L661.08,45.155L664.54,45.151L669.17,45.159L671.48,45.151L672.63,45.151L680.72,45.155L687.65,45.151L694.58,45.151L718.84,45.151L720,45.151" style="fill:none;stroke:#0000FF" />
</g>
</svg>
