<?xml version="1.0"?>
<!-- Generated by SVGo and Plotinum VG -->
<svg width="720pt" height="432pt" viewBox="0 0 720 432"
	xmlns="http://www.w3.org/2000/svg"
	xmlns:xlink="http://www.w3.org/1999/xlink">
<g transform="scale(1, -1) translate(0, -432)">
<path d="M0,0L720,0L720,432L0,432Z" style="fill:#FFFFFF" />
<text x="358.5" y="-420.45" transform="scale(1, -1)"
	style="font-family:Times;font-weight:normal;font-style:normal;font-size:12px"> </text>
<text x="376.81" y="-3.8613" transform="scale(1, -1)"
	style="font-family:Times;font-weight:normal;font-style:normal;font-size:12px">Costs</text>
<text x="57.805" y="-18.634" transform="scale(1, -1)"
	style="font-family:Times;font-weight:normal;font-style:normal;font-size:10px">0</text>
<text x="331.16" y="-18.634" transform="scale(1, -1)"
	style="font-family:Times;font-weight:normal;font-style:normal;font-size:10px">300</text>
<text x="609.51" y="-18.634" transform="scale(1, -1)"
	style="font-family:Times;font-weight:normal;font-style:normal;font-size:10px">600</text>
<path d="M60.305,28.263L60.305,36.263" style="fill:none;stroke:#000000;stroke-width:0.5" />
<path d="M338.66,28.263L338.66,36.263" style="fill:none;stroke:#000000;stroke-width:0.5" />
<path d="M617.01,28.263L617.01,36.263" style="fill:none;stroke:#000000;stroke-width:0.5" />
<path d="M153.09,32.263L153.09,36.263" style="fill:none;stroke:#000000;stroke-width:0.5" />
<path d="M245.87,32.263L245.87,36.263" style="fill:none;stroke:#000000;stroke-width:0.5" />
<path d="M431.44,32.263L431.44,36.263" style="fill:none;stroke:#000000;stroke-width:0.5" />
<path d="M524.23,32.263L524.23,36.263" style="fill:none;stroke:#000000;stroke-width:0.5" />
<path d="M709.79,32.263L709.79,36.263" style="fill:none;stroke:#000000;stroke-width:0.5" />
<path d="M60.305,36.263L720,36.263" style="fill:none;stroke:#000000;stroke-width:0.5" />
<g transform="rotate(90)">
<text x="152.55" y="11.555" transform="scale(1, -1)"
	style="font-family:Times;font-weight:normal;font-style:normal;font-size:12px">Number of trials (1000000 total)</text>
</g>
<text x="24.055" y="-89.195" transform="scale(1, -1)"
	style="font-family:Times;font-weight:normal;font-style:normal;font-size:10px">4000</text>
<text x="19.055" y="-230.98" transform="scale(1, -1)"
	style="font-family:Times;font-weight:normal;font-style:normal;font-size:10px">16000</text>
<text x="19.055" y="-372.76" transform="scale(1, -1)"
	style="font-family:Times;font-weight:normal;font-style:normal;font-size:10px">28000</text>
<path d="M46.555,92.4L54.555,92.4" style="fill:none;stroke:#000000;stroke-width:0.5" />
<path d="M46.555,234.18L54.555,234.18" style="fill:none;stroke:#000000;stroke-width:0.5" />
<path d="M46.555,375.96L54.555,375.96" style="fill:none;stroke:#000000;stroke-width:0.5" />
<path d="M50.555,163.29L54.555,163.29" style="fill:none;stroke:#000000;stroke-width:0.5" />
<path d="M50.555,305.07L54.555,305.07" style="fill:none;stroke:#000000;stroke-width:0.5" />
<path d="M54.555,45.151L54.555,416.58" style="fill:none;stroke:#000000;stroke-width:0.5" />
<path d="M60.305,416.58L80.717,51.567L85.356,58.384L86.284,69.065L87.212,73.449L89.068,137.64L89.996,51.945L90.923,81.554L91.851,91.171L93.707,51.366L94.635,96.417L97.418,134.15L98.346,78.293L99.274,128.78L100.2,88.442L101.13,77.548L102.06,105.13L102.99,55.785L105.77,106.25L106.7,56.009L107.62,83.397L109.48,97.209L110.41,52.229L111.34,46.581L112.26,126.27L113.19,108.45L114.12,49.322L115.05,111.98L115.98,53.906L116.9,97.504L117.83,109.13L118.76,103.62L119.69,58.101L120.61,62.697L121.54,50.551L122.47,62.65L123.4,66.537L124.33,59.589L125.25,60.18L126.18,86.268L127.11,62.957L128.04,172.68L128.96,76.875L129.89,67.884L130.82,80.101L131.75,134.5L132.68,69.561L133.6,70.176L134.53,99.253L135.46,70.034L136.39,92.01L137.32,78.6L138.24,86.965L139.17,91.408L140.1,82.972L141.03,96.134L141.95,85.228L142.88,81.92L143.81,103.09L144.74,89.033L145.67,84L146.59,108.41L147.52,96.134L148.45,82.381L149.38,101.72L150.31,83.444L151.23,90.805L152.16,100.73L153.09,87.32L154.02,103.27L154.94,105.43L155.87,88.832L156.8,116.62L157.73,97.445L158.66,99.395L159.58,94.751L160.51,101.01L161.44,77.147L162.37,102.6L163.3,84.614L164.22,88.466L165.15,110.95L166.08,95.059L167.01,107.03L167.93,99.69L168.86,102.87L169.79,109.56L170.72,104.59L171.65,98.19L172.57,86.658L173.5,109.04L174.43,85.949L175.36,95.2L176.28,86.221L177.21,104L178.14,87.355L179.07,86.989L180,102.43L180.92,109.74L181.85,83.692L182.78,100.59L183.71,103.23L184.64,107.94L185.56,101.04L186.49,117.2L187.42,90.9L188.35,98.296L189.27,101.53L190.2,95.815L191.13,96.748L192.06,94.822L192.99,94.007L193.91,101.06L194.84,91.526L195.77,98.627L196.7,98.308L197.63,96.11L198.55,98.745L199.48,114.59L200.41,94.397L201.34,95.271L202.26,101.96L203.19,92.991L204.12,100.02L205.05,95.212L205.98,102.51L206.9,98.768L207.83,97.941L208.76,99.666L209.69,98.816L210.62,97.173L211.54,99.371L212.47,98.875L213.4,94.94L214.33,101.42L215.25,99.489L216.18,94.468L217.11,98.485L218.04,97.209L218.97,95.555L219.89,96.169L220.82,96.016L221.75,96.122L222.68,98.32L223.6,96.358L224.53,95.165L225.46,97.422L226.39,96.323L227.32,92.566L228.24,97.351L229.17,90.273L230.1,91.467L231.03,90.226L231.96,91.774L232.88,91.573L233.81,90.817L234.74,89.21L235.67,90.77L236.59,92.365L237.52,90.533L238.45,94.68L239.38,92.766L240.31,88.336L241.23,93.818L242.16,87.851L243.09,90.569L244.02,88.82L244.95,89.872L245.87,88.147L246.8,87.91L247.73,86.682L248.66,88.572L249.58,86.02L250.51,84.602L251.44,89.293L252.37,86.894L253.3,85.087L254.22,88.607L255.15,84.401L256.08,87.083L257.01,86.221L257.93,85.205L258.86,84.425L259.79,85.937L260.72,83.279L261.65,82.405L262.57,84.106L263.5,82.806L264.43,83.409L265.36,83.066L266.29,81.53L267.21,83.054L268.14,81.388L269.07,78.966L270,80.762L270.92,80.502L271.85,80.065L272.78,80.018L273.71,79.982L274.64,78.163L275.56,79.474L276.49,77.938L277.42,78.127L278.35,78.931L279.28,75.41L280.2,77.513L281.13,76.769L282.06,75.304L282.99,77.029L283.91,77.076L284.84,74.973L285.77,75.481L286.7,74.536L287.63,73.201L288.55,74.654L289.48,72.279L290.41,73.661L291.34,73.366L292.27,71.464L293.19,72.161L294.12,73.283L295.05,71.605L295.98,72.574L296.9,71.558L297.83,71.476L298.76,70.601L299.69,69.585L300.62,69.644L301.54,69.29L302.47,69.219L303.4,69.349L304.33,68.983L305.25,68.652L306.18,68.699L307.11,68.002L308.04,67.423L308.97,67.801L309.89,67.009L310.82,67.659L311.75,65.97L312.68,66.773L313.61,66.36L314.53,66.395L315.46,66.49L316.39,64.694L317.32,64.93L318.24,63.831L319.17,64.753L320.1,64.552L321.03,63.524L321.96,63.418L322.88,63.807L323.81,63.418L324.74,63.004L325.67,63.571L326.6,62.555L327.52,61.48L328.45,61.917L329.38,61.752L330.31,61.504L331.23,62.059L332.16,61.043L333.09,61.893L334.02,60.665L334.95,60.227L335.87,60.074L336.8,60.736L337.73,59.802L338.66,59.33L339.58,59.081L340.51,58.668L341.44,59.601L342.37,58.928L343.3,58.514L344.22,58.727L345.15,58.597L346.08,58.384L347.01,57.734L347.94,57.829L348.86,57.628L349.79,57.356L350.72,56.848L351.65,57.321L352.57,56.47L353.5,56.092L354.43,55.927L355.36,55.608L356.29,55.927L357.21,55.62L358.14,55.041L359.07,55.289L360,55.241L360.93,54.745L361.85,55.1L362.78,55.277L363.71,54.828L364.64,54.391L365.56,54.19L366.49,53.918L367.42,53.942L368.35,53.682L369.28,53.942L370.2,53.505L371.13,53.032L372.06,52.973L372.99,53.127L373.92,52.926L374.84,52.382L375.77,53.138L376.7,52.205L377.63,52.453L378.55,52.229L379.48,52.004L380.41,52.264L381.34,51.638L382.27,51.626L383.19,51.106L384.12,51.496L385.05,51.213L385.98,51.413L386.9,51.094L387.83,50.917L388.76,50.575L389.69,50.87L390.62,50.622L391.54,50.61L392.47,50.752L393.4,50.22L394.33,50.326L395.26,50.196L396.18,50.645L397.11,49.925L398.04,49.913L398.97,49.488L399.89,49.854L400.82,49.972L401.75,49.488L402.68,49.369L403.61,49.369L404.53,49.381L405.46,48.968L406.39,49.157L407.32,49.145L408.25,48.897L409.17,48.944L410.1,49.192L411.03,49.074L411.96,48.554L412.88,48.412L413.81,48.436L414.74,48.436L415.67,48.294L416.6,48.152L417.52,48.578L418.45,48.436L419.38,48.188L420.31,47.904L421.24,48.034L422.16,48.046L423.09,48.011L424.02,47.904L424.95,47.881L425.87,47.869L426.8,47.692L427.73,47.396L428.66,47.314L429.59,47.396L430.51,47.751L431.44,47.373L432.37,47.786L433.3,47.349L434.22,47.55L435.15,47.396L436.08,47.113L437.01,47.136L437.94,47.136L438.86,47.042L439.79,47.302L440.72,47.16L441.65,47.065L442.58,46.782L443.5,46.723L444.43,46.853L445.36,46.995L446.29,46.995L447.21,46.534L448.14,46.664L449.07,46.581L450,46.357L450.93,46.664L451.85,46.593L452.78,46.581L453.71,46.605L454.64,46.546L455.57,46.546L456.49,46.427L457.42,46.463L458.35,46.215L459.28,46.522L460.2,46.156L461.13,46.203L462.06,46.167L462.99,46.297L463.92,46.049L464.84,46.191L465.77,46.191L466.7,46.286L467.63,46.108L468.55,45.955L469.48,45.872L470.41,45.978L471.34,46.049L472.27,45.978L473.19,45.955L474.12,46.014L475.05,45.955L475.98,45.742L476.91,46.073L477.83,45.99L478.76,45.801L479.69,45.695L480.62,45.742L481.54,45.789L482.47,45.884L483.4,45.695L484.33,45.648L485.26,45.636L486.18,45.648L487.11,45.707L488.04,45.754L488.97,45.659L489.9,45.648L490.82,45.695L491.75,45.624L492.68,45.683L493.61,45.659L494.53,45.695L495.46,45.589L496.39,45.683L497.32,45.659L498.25,45.577L499.17,45.683L500.1,45.612L501.03,45.447L501.96,45.399L502.89,45.565L503.81,45.553L504.74,45.47L505.67,45.541L506.6,45.482L507.52,45.47L508.45,45.376L509.38,45.388L510.31,45.376L511.24,45.34L512.16,45.399L513.09,45.388L514.02,45.376L514.95,45.329L515.87,45.317L516.8,45.376L517.73,45.411L518.66,45.447L519.59,45.305L520.51,45.258L521.44,45.317L522.37,45.258L523.3,45.376L524.23,45.435L525.15,45.317L526.08,45.364L527.01,45.293L527.94,45.34L528.86,45.293L529.79,45.388L530.72,45.376L531.65,45.34L532.58,45.246L533.5,45.246L534.43,45.352L535.36,45.329L536.29,45.27L537.22,45.246L538.14,45.34L539.07,45.258L540,45.234L540.93,45.222L541.85,45.222L542.78,45.246L543.71,45.246L544.64,45.246L545.57,45.222L546.49,45.246L547.42,45.27L548.35,45.175L549.28,45.222L550.21,45.187L551.13,45.187L552.06,45.27L552.99,45.234L553.92,45.222L554.84,45.234L555.77,45.21L556.7,45.187L557.63,45.27L558.56,45.21L559.48,45.222L560.41,45.187L561.34,45.222L562.27,45.199L563.19,45.199L564.12,45.222L565.05,45.175L565.98,45.234L566.91,45.199L567.83,45.163L568.76,45.187L569.69,45.175L570.62,45.187L571.55,45.199L572.47,45.187L573.4,45.175L574.33,45.187L575.26,45.187L576.18,45.151L577.11,45.187L578.04,45.163L578.97,45.187L579.9,45.151L581.75,45.151L582.68,45.163L583.61,45.175L584.54,45.222L585.46,45.199L586.39,45.151L587.32,45.187L588.25,45.151L589.17,45.199L590.1,45.163L591.96,45.163L593.81,45.175L595.67,45.163L596.6,45.175L597.52,45.163L598.45,45.151L599.38,45.163L600.31,45.175L601.24,45.163L602.16,45.151L603.09,45.163L604.02,45.199L605.88,45.151L607.73,45.151L608.66,45.151L609.59,45.163L611.44,45.151L613.3,45.151L615.15,45.163L617.01,45.163L617.94,45.151L618.87,45.163L619.79,45.163L622.58,45.151L623.5,45.163L625.36,45.151L626.29,45.151L627.22,45.151L629.07,45.163L632.78,45.151L638.35,45.151L640.21,45.151L642.99,45.151L649.48,45.151L679.17,45.151L684.74,45.151L720,45.151" style="fill:none;stroke:#0000FF" />
</g>
</svg>
