<?xml version="1.0"?>
<!-- Generated by SVGo and Plotinum VG -->
<svg width="720pt" height="432pt" viewBox="0 0 720 432"
	xmlns="http://www.w3.org/2000/svg"
	xmlns:xlink="http://www.w3.org/1999/xlink">
<g transform="scale(1, -1) translate(0, -432)">
<path d="M0,0L720,0L720,432L0,432Z" style="fill:#FFFFFF" />
<text x="358.5" y="-420.45" transform="scale(1, -1)"
	style="font-family:Times;font-weight:normal;font-style:normal;font-size:12px"> </text>
<text x="385.56" y="-3.8613" transform="scale(1, -1)"
	style="font-family:Times;font-weight:normal;font-style:normal;font-size:12px">Costs</text>
<text x="75.305" y="-18.634" transform="scale(1, -1)"
	style="font-family:Times;font-weight:normal;font-style:normal;font-size:10px">0</text>
<text x="380.05" y="-18.634" transform="scale(1, -1)"
	style="font-family:Times;font-weight:normal;font-style:normal;font-size:10px">300</text>
<text x="689.79" y="-18.634" transform="scale(1, -1)"
	style="font-family:Times;font-weight:normal;font-style:normal;font-size:10px">600</text>
<path d="M77.805,28.263L77.805,36.263" style="fill:none;stroke:#000000;stroke-width:0.5" />
<path d="M387.55,28.263L387.55,36.263" style="fill:none;stroke:#000000;stroke-width:0.5" />
<path d="M697.29,28.263L697.29,36.263" style="fill:none;stroke:#000000;stroke-width:0.5" />
<path d="M181.05,32.263L181.05,36.263" style="fill:none;stroke:#000000;stroke-width:0.5" />
<path d="M284.3,32.263L284.3,36.263" style="fill:none;stroke:#000000;stroke-width:0.5" />
<path d="M490.79,32.263L490.79,36.263" style="fill:none;stroke:#000000;stroke-width:0.5" />
<path d="M594.04,32.263L594.04,36.263" style="fill:none;stroke:#000000;stroke-width:0.5" />
<path d="M77.805,36.263L720,36.263" style="fill:none;stroke:#000000;stroke-width:0.5" />
<g transform="rotate(90)">
<text x="152.55" y="11.555" transform="scale(1, -1)"
	style="font-family:Times;font-weight:normal;font-style:normal;font-size:12px">Number of trials (1000000 total)</text>
</g>
<text x="24.055" y="-114.07" transform="scale(1, -1)"
	style="font-family:Times;font-weight:normal;font-style:normal;font-size:10px">25000.00</text>
<text x="24.055" y="-258.32" transform="scale(1, -1)"
	style="font-family:Times;font-weight:normal;font-style:normal;font-size:10px">75000.00</text>
<text x="19.055" y="-402.57" transform="scale(1, -1)"
	style="font-family:Times;font-weight:normal;font-style:normal;font-size:10px">125000.00</text>
<path d="M64.055,117.27L72.055,117.27" style="fill:none;stroke:#000000;stroke-width:0.5" />
<path d="M64.055,261.52L72.055,261.52" style="fill:none;stroke:#000000;stroke-width:0.5" />
<path d="M64.055,405.77L72.055,405.77" style="fill:none;stroke:#000000;stroke-width:0.5" />
<path d="M68.055,59.573L72.055,59.573" style="fill:none;stroke:#000000;stroke-width:0.5" />
<path d="M68.055,88.424L72.055,88.424" style="fill:none;stroke:#000000;stroke-width:0.5" />
<path d="M68.055,146.12L72.055,146.12" style="fill:none;stroke:#000000;stroke-width:0.5" />
<path d="M68.055,174.97L72.055,174.97" style="fill:none;stroke:#000000;stroke-width:0.5" />
<path d="M68.055,203.82L72.055,203.82" style="fill:none;stroke:#000000;stroke-width:0.5" />
<path d="M68.055,232.67L72.055,232.67" style="fill:none;stroke:#000000;stroke-width:0.5" />
<path d="M68.055,290.37L72.055,290.37" style="fill:none;stroke:#000000;stroke-width:0.5" />
<path d="M68.055,319.22L72.055,319.22" style="fill:none;stroke:#000000;stroke-width:0.5" />
<path d="M68.055,348.07L72.055,348.07" style="fill:none;stroke:#000000;stroke-width:0.5" />
<path d="M68.055,376.92L72.055,376.92" style="fill:none;stroke:#000000;stroke-width:0.5" />
<path d="M72.055,45.151L72.055,416.58" style="fill:none;stroke:#000000;stroke-width:0.5" />
<path d="M77.805,416.58L101.55,55.491L102.58,59.983L104.65,69.46L105.68,62.571L106.71,56.761L107.75,52.159L109.81,59.1L110.84,48.481L111.88,66.587L112.91,86.799L113.94,58.994L114.97,66.492L116.01,48.619L117.04,48.475L118.07,55.598L119.1,89.944L120.14,80.155L121.17,66.425L122.2,98.674L123.23,77.325L124.27,59.426L125.3,63.01L126.33,45.535L127.36,55.552L128.4,53.12L129.43,74.163L130.46,67.96L131.49,46.002L132.53,71.526L133.56,56.55L134.59,46.784L135.62,53.452L136.66,62.389L137.69,55.073L138.72,69.336L139.75,56.853L140.79,81.387L141.82,70.73L142.85,60.482L143.88,49.629L144.92,50.31L145.95,52.433L146.98,67.115L148.01,54.121L149.05,55.347L150.08,54.854L151.11,53.053L152.14,52.367L153.17,79.965L154.21,58.402L155.24,56.541L156.27,58.789L157.3,72.94L158.34,56.406L159.37,57.387L160.4,89.627L161.43,98.215L162.47,56.44L163.5,60.704L164.53,63.627L165.56,62.591L166.6,60.456L167.63,61.397L168.66,57.476L169.69,57.831L170.73,57.773L171.76,57.825L172.79,56.899L173.82,61.46L174.86,61.391L175.89,58.95L176.92,60L177.95,59.317L178.99,54.712L180.02,57.932L181.05,58.544L182.08,61.212L183.12,60.315L184.15,60.497L185.18,63.367L186.21,59.135L187.25,59.037L188.28,63.439L189.31,58.287L190.34,56.971L191.38,57.225L192.41,57.776L193.44,58.166L194.47,59.438L195.51,61.079L196.54,60.866L197.57,60.448L198.6,59.363L199.64,56.368L200.67,56.403L201.7,61.734L202.73,62.513L203.77,59.868L204.8,63.641L205.83,64.039L206.86,57.776L207.9,57.868L208.93,56.394L209.96,55.082L210.99,55.079L212.03,58.105L213.06,58.151L214.09,56.579L215.12,55.382L216.16,59.452L217.19,55.785L218.22,55.552L219.25,55.497L220.29,56.541L221.32,56.403L222.35,57.338L223.38,56.579L224.42,58.489L225.45,56.677L226.48,54.989L227.51,53.276L228.55,53.708L229.58,55.408L230.61,55.396L231.64,53.708L232.67,54.845L233.71,53.388L234.74,53.131L235.77,55.621L236.8,56.839L237.84,53.827L238.87,53.746L239.9,55.283L240.93,55.272L241.97,53.198L243,53.437L244.03,57.139L245.06,53.224L246.1,53.382L247.13,53.879L248.16,53.789L249.19,53.703L250.23,53.446L251.26,53.048L252.29,52.525L253.32,52.367L254.36,52.332L255.39,52.205L256.42,52.263L257.45,53.177L258.49,52.566L259.52,52.306L260.55,52.41L261.58,52.067L262.62,51.343L263.65,51.545L264.68,51.784L265.71,52.185L266.75,52.098L267.78,52.087L268.81,51.484L269.84,50.901L270.88,51.178L271.91,51.106L272.94,50.416L273.97,50.549L275.01,50.584L276.04,50.665L277.07,50.702L278.1,50.287L279.14,50.59L280.17,50.379L281.2,50.601L282.23,50.108L283.27,49.834L284.3,49.923L285.33,50.448L286.36,49.802L287.4,49.86L288.43,50.212L289.46,49.724L290.49,49.329L291.53,49.548L292.56,49.366L293.59,49.138L294.62,49.242L295.66,49.453L296.69,48.763L297.72,48.859L298.75,48.991L299.79,48.983L300.82,48.911L301.85,48.844L302.88,48.887L303.92,48.608L304.95,48.801L305.98,48.599L307.01,48.385L308.05,48.429L309.08,48.302L310.11,48.137L311.14,48.002L312.18,48.267L313.21,47.993L314.24,47.771L315.27,48.036L316.3,47.93L317.34,47.78L318.37,47.863L319.4,48.008L320.43,47.687L321.47,47.563L322.5,47.656L323.53,47.612L324.56,47.405L325.6,47.586L326.63,47.465L327.66,47.295L328.69,47.335L329.73,47.073L330.76,47.312L331.79,47.246L332.82,47.156L333.86,47.107L334.89,46.98L335.92,47.154L336.95,46.969L337.99,46.802L339.02,46.874L340.05,46.963L341.08,46.943L342.12,46.75L343.15,46.787L344.18,46.75L345.21,46.493L346.25,46.66L347.28,46.695L348.31,46.692L349.34,46.502L350.38,46.579L351.41,46.453L352.44,46.447L353.47,46.403L354.51,46.542L355.54,46.352L356.57,46.225L357.6,46.357L358.64,46.311L359.67,46.305L360.7,46.343L361.73,46.236L362.77,46.308L363.8,46.124L364.83,46.161L365.86,46.152L366.9,46.181L367.93,46.072L368.96,46.034L369.99,46.049L371.03,46.092L372.06,46.086L373.09,45.971L374.12,45.93L375.16,45.985L376.19,45.942L377.22,45.893L378.25,45.939L379.29,45.951L380.32,45.919L381.35,45.858L382.38,45.864L383.42,45.829L384.45,45.867L385.48,45.855L386.51,45.867L387.55,45.835L388.58,45.708L389.61,45.711L390.64,45.685L391.68,45.711L392.71,45.72L393.74,45.639L394.77,45.627L395.8,45.679L396.84,45.668L397.87,45.584L398.9,45.622L399.93,45.679L400.97,45.532L402,45.561L403.03,45.509L404.06,45.521L405.1,45.561L406.13,45.492L407.16,45.538L408.19,45.492L409.23,45.558L410.26,45.503L411.29,45.495L412.32,45.469L413.36,45.509L414.39,45.463L415.42,45.417L416.45,45.414L417.49,45.402L418.52,45.48L419.55,45.423L420.58,45.391L421.62,45.423L422.65,45.379L423.68,45.371L424.71,45.388L425.75,45.324L426.78,45.339L427.81,45.376L428.84,45.365L429.88,45.376L430.91,45.33L431.94,45.33L432.97,45.359L434.01,45.324L435.04,45.333L436.07,45.356L437.1,45.342L438.14,45.324L439.17,45.255L440.2,45.267L441.23,45.316L442.27,45.299L443.3,45.316L444.33,45.284L445.36,45.296L446.4,45.284L447.43,45.313L448.46,45.261L449.49,45.281L450.53,45.27L451.56,45.241L452.59,45.281L453.62,45.244L454.66,45.238L455.69,45.27L456.72,45.252L457.75,45.229L458.79,45.238L459.82,45.229L460.85,45.223L461.88,45.258L462.92,45.221L463.95,45.229L464.98,45.218L466.01,45.212L467.05,45.249L468.08,45.209L469.11,45.198L470.14,45.2L471.18,45.223L472.21,45.209L473.24,45.206L474.27,45.221L475.31,45.221L476.34,45.183L477.37,45.218L478.4,45.226L479.43,45.209L480.47,45.212L481.5,45.198L482.53,45.212L483.56,45.186L484.6,45.206L485.63,45.203L486.66,45.189L487.69,45.186L488.73,45.172L489.76,45.192L490.79,45.195L491.82,45.183L492.86,45.183L493.89,45.174L494.92,45.172L495.95,45.177L496.99,45.192L498.02,45.177L499.05,45.177L500.08,45.166L501.12,45.163L502.15,45.186L503.18,45.198L504.21,45.174L505.25,45.172L506.28,45.18L507.31,45.174L508.34,45.163L509.38,45.166L510.41,45.166L511.44,45.172L512.47,45.177L513.51,45.177L514.54,45.169L515.57,45.169L516.6,45.169L517.64,45.166L518.67,45.154L519.7,45.169L520.73,45.163L521.77,45.166L522.8,45.169L523.83,45.166L524.86,45.157L525.9,45.169L526.93,45.166L527.96,45.154L528.99,45.157L532.09,45.154L533.12,45.157L534.16,45.157L535.19,45.154L536.22,45.163L537.25,45.154L538.29,45.16L539.32,45.157L540.35,45.166L542.42,45.16L544.48,45.157L545.51,45.151L546.55,45.151L548.61,45.157L549.64,45.151L550.68,45.151L551.71,45.151L552.74,45.157L553.77,45.154L554.81,45.154L555.84,45.154L556.87,45.157L557.9,45.151L558.93,45.154L559.97,45.151L562.03,45.151L563.06,45.154L564.1,45.154L566.16,45.157L567.19,45.157L568.23,45.151L570.29,45.151L577.52,45.154L579.58,45.151L580.62,45.154L582.68,45.151L585.78,45.154L586.81,45.157L591.97,45.151L598.17,45.151L599.2,45.151L604.36,45.151L605.4,45.151L606.43,45.151L607.46,45.151L609.53,45.151L611.59,45.151L614.69,45.151L618.82,45.151L634.31,45.151L640.5,45.151L647.73,45.151L651.86,45.151L657.02,45.151L711.74,45.151L720,45.151" style="fill:none;stroke:#0000FF" />
</g>
</svg>
