<?xml version="1.0"?>
<!-- Generated by SVGo and Plotinum VG -->
<svg width="720pt" height="432pt" viewBox="0 0 720 432"
	xmlns="http://www.w3.org/2000/svg"
	xmlns:xlink="http://www.w3.org/1999/xlink">
<g transform="scale(1, -1) translate(0, -432)">
<path d="M0,0L720,0L720,432L0,432Z" style="fill:#FFFFFF" />
<text x="358.5" y="-420.45" transform="scale(1, -1)"
	style="font-family:Times;font-weight:normal;font-style:normal;font-size:12px"> </text>
<text x="379.31" y="-3.8613" transform="scale(1, -1)"
	style="font-family:Times;font-weight:normal;font-style:normal;font-size:12px">Costs</text>
<text x="62.805" y="-18.634" transform="scale(1, -1)"
	style="font-family:Times;font-weight:normal;font-style:normal;font-size:10px">0</text>
<text x="360.2" y="-18.634" transform="scale(1, -1)"
	style="font-family:Times;font-weight:normal;font-style:normal;font-size:10px">200</text>
<text x="662.6" y="-18.634" transform="scale(1, -1)"
	style="font-family:Times;font-weight:normal;font-style:normal;font-size:10px">400</text>
<path d="M65.305,28.263L65.305,36.263" style="fill:none;stroke:#000000;stroke-width:0.5" />
<path d="M367.7,28.263L367.7,36.263" style="fill:none;stroke:#000000;stroke-width:0.5" />
<path d="M670.1,28.263L670.1,36.263" style="fill:none;stroke:#000000;stroke-width:0.5" />
<path d="M216.5,32.263L216.5,36.263" style="fill:none;stroke:#000000;stroke-width:0.5" />
<path d="M518.9,32.263L518.9,36.263" style="fill:none;stroke:#000000;stroke-width:0.5" />
<path d="M65.305,36.263L720,36.263" style="fill:none;stroke:#000000;stroke-width:0.5" />
<g transform="rotate(90)">
<text x="152.55" y="11.555" transform="scale(1, -1)"
	style="font-family:Times;font-weight:normal;font-style:normal;font-size:12px">Number of trials (1000000 total)</text>
</g>
<text x="24.055" y="-111.62" transform="scale(1, -1)"
	style="font-family:Times;font-weight:normal;font-style:normal;font-size:10px">50000</text>
<text x="19.055" y="-250.96" transform="scale(1, -1)"
	style="font-family:Times;font-weight:normal;font-style:normal;font-size:10px">150000</text>
<text x="19.055" y="-390.3" transform="scale(1, -1)"
	style="font-family:Times;font-weight:normal;font-style:normal;font-size:10px">250000</text>
<path d="M51.555,114.82L59.555,114.82" style="fill:none;stroke:#000000;stroke-width:0.5" />
<path d="M51.555,254.17L59.555,254.17" style="fill:none;stroke:#000000;stroke-width:0.5" />
<path d="M51.555,393.51L59.555,393.51" style="fill:none;stroke:#000000;stroke-width:0.5" />
<path d="M55.555,184.49L59.555,184.49" style="fill:none;stroke:#000000;stroke-width:0.5" />
<path d="M55.555,323.84L59.555,323.84" style="fill:none;stroke:#000000;stroke-width:0.5" />
<path d="M59.555,45.151L59.555,416.58" style="fill:none;stroke:#000000;stroke-width:0.5" />
<path d="M65.305,416.58L104.62,48.82L106.13,48.519L109.15,59.532L110.66,51.985L112.18,66.715L113.69,58.835L115.2,66.615L116.71,73.697L118.22,59.445L119.74,66.729L121.25,55.514L122.76,62.426L124.27,88.037L125.78,66.096L127.3,77.076L128.81,52.195L130.32,52.117L131.83,58.846L133.34,66.956L134.86,48.48L139.39,77.358L140.9,55.626L145.44,51.969L146.95,70.186L148.46,48.744L149.98,56.115L151.49,81.339L153,45.628L154.51,52.665L156.02,53.792L157.54,49.846L159.05,57.316L160.56,51.082L162.07,47.788L163.58,49.319L165.1,48.702L166.61,56.826L168.12,50.29L169.63,50.46L171.14,52.364L172.66,51.872L174.17,52.615L175.68,56.987L177.19,52.843L178.7,53.494L180.22,52.035L181.73,52.068L183.24,52.662L184.75,53.094L186.26,60.91L187.78,55.195L189.29,51.218L190.8,53.434L192.31,52.498L193.82,52.474L195.34,52.107L196.85,51.167L198.36,55.172L199.87,53.148L201.38,54.263L202.9,52.251L204.41,51.462L205.92,54.273L207.43,53.196L208.94,53.211L210.46,53.137L211.97,50.87L213.48,53.516L214.99,51.331L216.5,49.691L218.02,50.835L219.53,50.888L221.04,50.915L222.55,48.93L224.06,48.798L225.58,51.532L227.09,49.583L228.6,48.765L230.11,48.691L231.62,49.524L233.14,51.386L234.65,49.648L236.16,49.821L237.67,49.734L239.18,48.631L240.7,50.095L242.21,49.276L243.72,48.857L245.23,50.006L246.74,48.994L248.26,49.145L249.77,49.014L251.28,48.413L252.79,49.339L254.3,48.614L255.82,48.458L257.33,48.405L258.84,48.259L260.35,49.265L261.86,49.093L263.38,48.079L264.89,48.305L266.4,48.242L267.91,48.496L269.42,48.234L270.94,48.112L272.45,48.677L273.96,48.047L275.47,47.866L276.98,47.848L278.5,47.396L280.01,47.774L281.52,47.708L283.03,47.317L284.54,47.435L286.06,47.301L287.57,47.384L289.08,47.389L290.59,47.145L292.1,47.286L293.62,47.281L295.13,47.264L296.64,46.952L298.15,46.98L299.66,47.038L301.18,46.936L302.69,46.706L304.2,46.819L305.71,46.726L307.22,46.913L308.74,46.757L310.25,46.603L311.76,46.575L313.27,46.51L314.78,46.563L316.3,46.438L317.81,46.414L319.32,46.516L320.83,46.393L322.34,46.47L323.86,46.398L325.37,46.284L326.88,46.371L328.39,46.396L329.9,46.295L331.42,46.259L332.93,46.081L334.44,46.284L335.95,46.13L337.46,46.036L338.98,46.116L340.49,46.008L342,46.063L343.51,46.018L345.02,45.946L346.54,45.946L348.05,45.932L349.56,45.872L351.07,45.809L352.58,45.865L354.1,45.852L355.61,45.902L357.12,45.753L358.63,45.831L360.14,45.73L361.66,45.706L363.17,45.713L364.68,45.679L366.19,45.728L367.7,45.699L369.22,45.656L370.73,45.703L372.24,45.618L373.75,45.625L375.26,45.615L376.78,45.599L378.29,45.572L379.8,45.539L381.31,45.548L382.82,45.523L384.34,45.494L385.85,45.539L387.36,45.497L388.87,45.497L390.38,45.501L391.9,45.455L393.41,45.477L394.92,45.438L396.43,45.412L397.94,45.409L399.46,45.434L400.97,45.401L402.48,45.445L403.99,45.394L405.5,45.412L407.02,45.369L408.53,45.378L410.04,45.359L411.55,45.346L413.06,45.363L414.58,45.327L416.09,45.333L417.6,45.36L419.11,45.317L420.62,45.314L422.14,45.303L423.65,45.31L425.16,45.291L426.67,45.305L428.18,45.298L429.7,45.3L431.21,45.28L432.72,45.296L434.23,45.267L435.74,45.254L437.26,45.267L438.77,45.253L440.28,45.264L441.79,45.268L443.3,45.235L444.82,45.263L446.33,45.245L447.84,45.256L449.35,45.242L450.86,45.232L452.38,45.232L453.89,45.235L455.4,45.227L456.91,45.213L458.42,45.241L459.94,45.234L461.45,45.211L462.96,45.22L464.47,45.199L465.98,45.203L467.5,45.207L469.01,45.2L470.52,45.199L472.03,45.207L473.54,45.196L475.06,45.195L476.57,45.203L478.08,45.188L479.59,45.197L481.1,45.192L482.62,45.192L484.13,45.189L485.64,45.188L487.15,45.195L488.66,45.174L490.18,45.195L491.69,45.175L493.2,45.188L494.71,45.167L496.22,45.178L497.74,45.171L499.25,45.188L500.76,45.174L502.27,45.175L503.78,45.181L505.3,45.172L506.81,45.182L508.32,45.185L509.83,45.167L511.34,45.158L512.86,45.168L514.37,45.169L515.88,45.164L517.39,45.171L518.9,45.165L520.42,45.171L521.93,45.163L523.44,45.169L524.95,45.156L526.46,45.164L527.98,45.16L529.49,45.161L531,45.158L532.51,45.157L534.02,45.164L535.54,45.163L537.05,45.16L538.56,45.153L540.07,45.168L541.58,45.163L543.1,45.156L544.61,45.163L546.12,45.157L547.63,45.158L549.14,45.156L550.66,45.154L552.17,45.16L553.68,45.163L555.19,45.154L556.7,45.156L558.22,45.156L559.73,45.151L561.24,45.156L562.75,45.157L564.26,45.156L565.78,45.156L567.29,45.157L568.8,45.156L570.31,45.153L571.82,45.157L573.34,45.157L574.85,45.154L576.36,45.151L577.87,45.153L579.38,45.156L580.9,45.157L582.41,45.154L585.43,45.154L588.46,45.154L589.97,45.156L591.48,45.156L592.99,45.153L594.5,45.154L596.02,45.153L597.53,45.156L599.04,45.153L600.55,45.151L602.06,45.151L606.6,45.153L609.62,45.151L611.14,45.154L614.16,45.151L615.67,45.151L617.18,45.153L618.7,45.153L623.23,45.151L626.26,45.151L627.77,45.151L633.82,45.153L635.33,45.151L636.84,45.151L638.35,45.151L645.91,45.151L664.06,45.153L673.13,45.151L694.3,45.151L703.37,45.151L710.93,45.151L720,45.151" style="fill:none;stroke:#0000FF" />
</g>
</svg>
