<?xml version="1.0"?>
<!-- Generated by SVGo and Plotinum VG -->
<svg width="720pt" height="432pt" viewBox="0 0 720 432"
	xmlns="http://www.w3.org/2000/svg"
	xmlns:xlink="http://www.w3.org/1999/xlink">
<g transform="scale(1, -1) translate(0, -432)">
<path d="M0,0L720,0L720,432L0,432Z" style="fill:#FFFFFF" />
<text x="358.5" y="-420.45" transform="scale(1, -1)"
	style="font-family:Times;font-weight:normal;font-style:normal;font-size:12px"> </text>
<text x="379.31" y="-3.8613" transform="scale(1, -1)"
	style="font-family:Times;font-weight:normal;font-style:normal;font-size:12px">Costs</text>
<text x="62.805" y="-18.634" transform="scale(1, -1)"
	style="font-family:Times;font-weight:normal;font-style:normal;font-size:10px">0</text>
<text x="223.97" y="-18.634" transform="scale(1, -1)"
	style="font-family:Times;font-weight:normal;font-style:normal;font-size:10px">100</text>
<text x="390.14" y="-18.634" transform="scale(1, -1)"
	style="font-family:Times;font-weight:normal;font-style:normal;font-size:10px">200</text>
<text x="556.3" y="-18.634" transform="scale(1, -1)"
	style="font-family:Times;font-weight:normal;font-style:normal;font-size:10px">300</text>
<path d="M65.305,28.263L65.305,36.263" style="fill:none;stroke:#000000;stroke-width:0.5" />
<path d="M231.47,28.263L231.47,36.263" style="fill:none;stroke:#000000;stroke-width:0.5" />
<path d="M397.64,28.263L397.64,36.263" style="fill:none;stroke:#000000;stroke-width:0.5" />
<path d="M563.8,28.263L563.8,36.263" style="fill:none;stroke:#000000;stroke-width:0.5" />
<path d="M98.538,32.263L98.538,36.263" style="fill:none;stroke:#000000;stroke-width:0.5" />
<path d="M131.77,32.263L131.77,36.263" style="fill:none;stroke:#000000;stroke-width:0.5" />
<path d="M165,32.263L165,36.263" style="fill:none;stroke:#000000;stroke-width:0.5" />
<path d="M198.24,32.263L198.24,36.263" style="fill:none;stroke:#000000;stroke-width:0.5" />
<path d="M264.7,32.263L264.7,36.263" style="fill:none;stroke:#000000;stroke-width:0.5" />
<path d="M297.94,32.263L297.94,36.263" style="fill:none;stroke:#000000;stroke-width:0.5" />
<path d="M331.17,32.263L331.17,36.263" style="fill:none;stroke:#000000;stroke-width:0.5" />
<path d="M364.4,32.263L364.4,36.263" style="fill:none;stroke:#000000;stroke-width:0.5" />
<path d="M430.87,32.263L430.87,36.263" style="fill:none;stroke:#000000;stroke-width:0.5" />
<path d="M464.1,32.263L464.1,36.263" style="fill:none;stroke:#000000;stroke-width:0.5" />
<path d="M497.34,32.263L497.34,36.263" style="fill:none;stroke:#000000;stroke-width:0.5" />
<path d="M530.57,32.263L530.57,36.263" style="fill:none;stroke:#000000;stroke-width:0.5" />
<path d="M597.04,32.263L597.04,36.263" style="fill:none;stroke:#000000;stroke-width:0.5" />
<path d="M630.27,32.263L630.27,36.263" style="fill:none;stroke:#000000;stroke-width:0.5" />
<path d="M663.5,32.263L663.5,36.263" style="fill:none;stroke:#000000;stroke-width:0.5" />
<path d="M696.74,32.263L696.74,36.263" style="fill:none;stroke:#000000;stroke-width:0.5" />
<path d="M65.305,36.263L720,36.263" style="fill:none;stroke:#000000;stroke-width:0.5" />
<g transform="rotate(90)">
<text x="152.55" y="11.555" transform="scale(1, -1)"
	style="font-family:Times;font-weight:normal;font-style:normal;font-size:12px">Number of trials (1000000 total)</text>
</g>
<text x="24.055" y="-106.29" transform="scale(1, -1)"
	style="font-family:Times;font-weight:normal;font-style:normal;font-size:10px">50000</text>
<text x="19.055" y="-234.99" transform="scale(1, -1)"
	style="font-family:Times;font-weight:normal;font-style:normal;font-size:10px">150000</text>
<text x="19.055" y="-363.68" transform="scale(1, -1)"
	style="font-family:Times;font-weight:normal;font-style:normal;font-size:10px">250000</text>
<path d="M51.555,109.5L59.555,109.5" style="fill:none;stroke:#000000;stroke-width:0.5" />
<path d="M51.555,238.19L59.555,238.19" style="fill:none;stroke:#000000;stroke-width:0.5" />
<path d="M51.555,366.89L59.555,366.89" style="fill:none;stroke:#000000;stroke-width:0.5" />
<path d="M55.555,173.84L59.555,173.84" style="fill:none;stroke:#000000;stroke-width:0.5" />
<path d="M55.555,302.54L59.555,302.54" style="fill:none;stroke:#000000;stroke-width:0.5" />
<path d="M59.555,45.151L59.555,416.58" style="fill:none;stroke:#000000;stroke-width:0.5" />
<path d="M65.305,416.58L103.52,52.057L108.51,55.47L110.17,66.165L113.49,48.478L115.15,48.541L116.82,59.241L118.48,52.214L121.8,73.048L125.12,51.923L126.79,65.862L130.11,55.577L131.77,92.933L133.43,55.681L135.09,59.101L136.76,58.824L138.42,73.615L141.74,73.276L146.73,45.335L148.39,66.659L150.05,74.996L151.71,45.209L153.37,89.99L155.03,52.635L156.7,45.312L158.36,56.157L160.02,53.249L161.68,46.187L163.34,52.603L165,46.333L166.67,76.959L168.33,56.346L169.99,50.974L171.65,46.575L173.31,46.877L174.97,48.062L176.64,49.016L178.3,47.769L179.96,47.751L181.62,48.263L183.28,50.445L184.94,47.463L186.61,49.367L188.27,80.743L189.93,47.738L191.59,49.791L193.25,52.074L194.91,50.407L196.58,49.279L198.24,53.78L199.9,50.06L201.56,50.167L203.22,51.491L204.88,53.28L206.55,51.118L208.21,50.981L209.87,53.47L211.53,51.427L213.19,48.604L214.85,55.051L216.52,50.787L218.18,50.033L219.84,55.389L221.5,50.697L223.16,52.2L224.82,51.585L226.49,53.847L228.15,48.643L229.81,50.842L231.47,49.549L233.13,53.84L234.79,48.82L236.46,51.433L238.12,51.26L239.78,50.68L241.44,49.204L243.1,50.662L244.76,49.661L246.43,48.001L248.09,48.331L249.75,49.971L251.41,49.569L253.07,48.597L254.73,53.632L256.4,49.275L258.06,48.361L259.72,48.837L261.38,49.753L263.04,46.969L264.7,49.956L266.37,47.117L268.03,47.001L269.69,47.689L271.35,49.505L273.01,49.146L274.67,47.008L276.34,50.698L278,47.679L279.66,47.055L281.32,48.351L282.98,47.884L284.64,47.147L286.31,47.884L287.97,47.396L289.63,49.37L291.29,48.122L292.95,47.943L294.61,47.342L296.28,47.245L297.94,47.177L299.6,47.661L301.26,46.842L302.92,47.427L304.58,47.213L306.25,47.182L307.91,47.056L309.57,47.428L311.23,47.159L312.89,46.935L314.55,47.084L316.22,47.283L317.88,46.872L319.54,46.723L321.2,47.32L322.86,46.703L324.52,46.648L326.19,46.878L327.85,47.051L329.51,46.473L331.17,46.727L332.83,46.577L334.49,46.438L336.16,46.289L337.82,46.794L339.48,46.353L341.14,46.299L342.8,46.603L344.46,46.208L346.13,46.355L347.79,46.29L349.45,46.373L351.11,45.981L352.77,46.182L354.43,46.082L356.1,46.18L357.76,45.993L359.42,46.198L361.08,46.064L362.74,46.015L364.4,45.912L366.07,46.066L367.73,45.81L369.39,45.863L371.05,45.828L372.71,45.85L374.37,45.944L376.04,45.801L377.7,45.96L379.36,45.796L381.02,45.733L382.68,45.804L384.34,45.732L386.01,45.648L387.67,45.718L389.33,45.679L390.99,45.616L392.65,45.676L394.31,45.666L395.98,45.637L397.64,45.582L399.3,45.593L400.96,45.536L402.62,45.545L404.28,45.58L405.95,45.541L407.61,45.531L409.27,45.495L410.93,45.559L412.59,45.505L414.25,45.543L415.92,45.48L417.58,45.45L419.24,45.477L420.9,45.422L422.56,45.422L424.22,45.422L425.89,45.472L427.55,45.387L429.21,45.407L430.87,45.392L432.53,45.411L434.19,45.365L435.86,45.378L437.52,45.374L439.18,45.37L440.84,45.348L442.5,45.339L444.16,45.359L445.83,45.335L447.49,45.312L449.15,45.306L450.81,45.343L452.47,45.319L454.13,45.314L455.8,45.258L457.46,45.288L459.12,45.272L460.78,45.303L462.44,45.256L464.1,45.28L465.77,45.285L467.43,45.254L469.09,45.249L470.75,45.249L472.41,45.261L474.07,45.247L475.74,45.247L477.4,45.265L479.06,45.235L480.72,45.245L482.38,45.218L484.04,45.213L485.71,45.227L487.37,45.229L489.03,45.229L490.69,45.217L492.35,45.208L494.01,45.229L495.68,45.222L497.34,45.204L499,45.225L500.66,45.208L502.32,45.2L503.98,45.2L505.65,45.2L507.31,45.204L508.97,45.198L510.63,45.184L512.29,45.186L513.95,45.191L515.62,45.177L517.28,45.193L518.94,45.176L520.6,45.19L522.26,45.185L523.92,45.187L525.59,45.181L527.25,45.184L528.91,45.177L530.57,45.172L532.23,45.182L533.89,45.176L535.56,45.175L537.22,45.175L538.88,45.167L540.54,45.177L542.2,45.164L543.86,45.169L545.53,45.168L547.19,45.175L548.85,45.166L550.51,45.167L552.17,45.167L553.83,45.166L555.5,45.163L557.16,45.16L558.82,45.163L560.48,45.159L562.14,45.16L563.8,45.164L565.47,45.163L567.13,45.16L568.79,45.159L570.45,45.158L572.11,45.166L573.77,45.159L575.44,45.16L577.1,45.153L578.76,45.158L580.42,45.158L582.08,45.153L583.74,45.162L585.41,45.159L587.07,45.16L588.73,45.16L590.39,45.153L592.05,45.163L593.71,45.16L595.38,45.155L597.04,45.158L600.36,45.153L602.02,45.153L603.68,45.154L605.35,45.155L607.01,45.157L608.67,45.157L610.33,45.151L611.99,45.158L613.65,45.154L615.32,45.155L616.98,45.153L618.64,45.154L620.3,45.154L623.62,45.158L625.29,45.153L626.95,45.157L628.61,45.153L630.27,45.155L631.93,45.151L635.26,45.151L638.58,45.151L643.56,45.154L648.55,45.151L650.21,45.151L653.53,45.151L655.2,45.153L658.52,45.151L660.18,45.151L675.14,45.151L680.12,45.151L683.44,45.151L693.41,45.151L710.03,45.151L711.69,45.151L720,45.151" style="fill:none;stroke:#0000FF" />
</g>
</svg>
