<?xml version="1.0"?>
<!-- Generated by SVGo and Plotinum VG -->
<svg width="720pt" height="432pt" viewBox="0 0 720 432"
	xmlns="http://www.w3.org/2000/svg"
	xmlns:xlink="http://www.w3.org/1999/xlink">
<g transform="scale(1, -1) translate(0, -432)">
<path d="M0,0L720,0L720,432L0,432Z" style="fill:#FFFFFF" />
<text x="358.5" y="-420.45" transform="scale(1, -1)"
	style="font-family:Times;font-weight:normal;font-style:normal;font-size:12px"> </text>
<text x="379.31" y="-3.8613" transform="scale(1, -1)"
	style="font-family:Times;font-weight:normal;font-style:normal;font-size:12px">Costs</text>
<text x="56.555" y="-18.634" transform="scale(1, -1)"
	style="font-family:Times;font-weight:normal;font-style:normal;font-size:10px">0.00</text>
<text x="369.37" y="-18.634" transform="scale(1, -1)"
	style="font-family:Times;font-weight:normal;font-style:normal;font-size:10px">250.00</text>
<text x="687.18" y="-18.634" transform="scale(1, -1)"
	style="font-family:Times;font-weight:normal;font-style:normal;font-size:10px">500.00</text>
<path d="M65.305,28.263L65.305,36.263" style="fill:none;stroke:#000000;stroke-width:0.5" />
<path d="M383.12,28.263L383.12,36.263" style="fill:none;stroke:#000000;stroke-width:0.5" />
<path d="M700.93,28.263L700.93,36.263" style="fill:none;stroke:#000000;stroke-width:0.5" />
<path d="M128.87,32.263L128.87,36.263" style="fill:none;stroke:#000000;stroke-width:0.5" />
<path d="M192.43,32.263L192.43,36.263" style="fill:none;stroke:#000000;stroke-width:0.5" />
<path d="M255.99,32.263L255.99,36.263" style="fill:none;stroke:#000000;stroke-width:0.5" />
<path d="M319.56,32.263L319.56,36.263" style="fill:none;stroke:#000000;stroke-width:0.5" />
<path d="M446.68,32.263L446.68,36.263" style="fill:none;stroke:#000000;stroke-width:0.5" />
<path d="M510.24,32.263L510.24,36.263" style="fill:none;stroke:#000000;stroke-width:0.5" />
<path d="M573.81,32.263L573.81,36.263" style="fill:none;stroke:#000000;stroke-width:0.5" />
<path d="M637.37,32.263L637.37,36.263" style="fill:none;stroke:#000000;stroke-width:0.5" />
<path d="M65.305,36.263L720,36.263" style="fill:none;stroke:#000000;stroke-width:0.5" />
<g transform="rotate(90)">
<text x="152.55" y="11.555" transform="scale(1, -1)"
	style="font-family:Times;font-weight:normal;font-style:normal;font-size:12px">Number of trials (1000000 total)</text>
</g>
<text x="24.055" y="-106.57" transform="scale(1, -1)"
	style="font-family:Times;font-weight:normal;font-style:normal;font-size:10px">30000</text>
<text x="24.055" y="-235.82" transform="scale(1, -1)"
	style="font-family:Times;font-weight:normal;font-style:normal;font-size:10px">90000</text>
<text x="19.055" y="-365.08" transform="scale(1, -1)"
	style="font-family:Times;font-weight:normal;font-style:normal;font-size:10px">150000</text>
<path d="M51.555,109.78L59.555,109.78" style="fill:none;stroke:#000000;stroke-width:0.5" />
<path d="M51.555,239.03L59.555,239.03" style="fill:none;stroke:#000000;stroke-width:0.5" />
<path d="M51.555,368.28L59.555,368.28" style="fill:none;stroke:#000000;stroke-width:0.5" />
<path d="M55.555,174.4L59.555,174.4" style="fill:none;stroke:#000000;stroke-width:0.5" />
<path d="M55.555,303.66L59.555,303.66" style="fill:none;stroke:#000000;stroke-width:0.5" />
<path d="M59.555,45.151L59.555,416.58" style="fill:none;stroke:#000000;stroke-width:0.5" />
<path d="M65.305,416.58L93.272,51.926L94.544,48.518L98.357,55.425L99.629,55.53L100.9,51.907L102.17,51.978L103.44,70.235L104.71,59.447L105.98,55.541L107.26,77.473L108.53,62.497L109.8,66.151L111.07,62.816L112.34,63.355L113.61,72.926L114.88,48.421L116.15,73.626L117.43,83.242L118.7,112.96L119.97,52.049L121.24,55.281L122.51,52.129L126.32,48.708L127.6,56.058L128.87,59.089L130.14,66.56L131.41,45.72L132.68,81.172L133.95,59.789L135.22,60.862L136.49,60.61L137.77,68.895L139.04,46.855L140.31,65.464L141.58,47.633L142.85,69.99L144.12,74.065L145.39,64.005L146.66,51.138L147.94,50.653L149.21,50.244L150.48,69.425L151.75,53.91L153.02,52.907L154.29,53.273L155.56,55.386L156.83,55.582L158.11,62.066L159.38,58.016L160.65,58.126L161.92,55.158L163.19,62.997L164.46,55.97L165.73,55.737L167,56.013L168.28,68.35L169.55,57.275L170.82,60.472L172.09,58.352L173.36,54.813L174.63,56.487L175.9,55.539L177.17,54.701L178.45,56.782L179.72,56.231L180.99,59.19L182.26,58.941L183.53,59.557L184.8,58.439L186.07,62.454L187.34,57.553L188.62,59.471L189.89,56.366L191.16,57.575L192.43,54.964L193.7,55.951L194.97,54.542L196.24,58.986L197.52,58.777L198.79,55.054L200.06,53.161L201.33,54.477L202.6,54.731L203.87,55.356L205.14,54.35L206.41,54.087L207.69,55.593L208.96,53.986L210.23,55.515L211.5,55.931L212.77,55.688L214.04,54.264L215.31,54.962L216.58,54.087L217.86,53.57L219.13,53.167L220.4,53.322L221.67,55.586L222.94,53.71L224.21,52.448L225.48,52.879L226.75,51.616L228.03,53.083L229.3,52.777L230.57,53.32L231.84,52.191L233.11,52.461L234.38,51.773L235.65,53.878L236.92,52.435L238.2,52.896L239.47,52.325L240.74,52.631L242.01,51.681L243.28,52.336L244.55,51.086L245.82,51.812L247.09,51.84L248.37,51.808L249.64,51.127L250.91,51.407L252.18,50.869L253.45,51.549L254.72,50.772L255.99,51.03L257.26,50.681L258.54,50.651L259.81,50.55L261.08,51.076L262.35,50.466L263.62,50.655L264.89,50.233L266.16,50.821L267.43,49.919L268.71,49.973L269.98,49.8L271.25,49.723L272.52,49.647L273.79,49.537L275.06,49.714L276.33,49.486L277.6,49.395L278.88,49.264L280.15,49.035L281.42,49.341L282.69,49.16L283.96,49.238L285.23,48.902L286.5,49.046L287.77,48.63L289.05,48.882L290.32,48.702L291.59,48.643L292.86,48.506L294.13,48.63L295.4,48.348L296.67,48.475L297.94,48.126L299.22,48.137L300.49,48.178L301.76,48.137L303.03,47.96L304.3,47.984L305.57,47.861L306.84,47.726L308.11,47.814L309.39,47.687L310.66,47.749L311.93,47.665L313.2,47.536L314.47,47.575L315.74,47.439L317.01,47.525L318.28,47.465L319.56,47.353L320.83,47.297L322.1,47.127L323.37,47.172L324.64,47.198L325.91,47.157L327.18,46.974L328.45,47.101L329.73,46.926L331,46.907L332.27,46.937L333.54,46.858L334.81,46.806L336.08,46.767L337.35,46.806L338.62,46.763L339.9,46.711L341.17,46.726L342.44,46.664L343.71,46.565L344.98,46.446L346.25,46.539L347.52,46.455L348.79,46.379L350.07,46.407L351.34,46.427L352.61,46.33L353.88,46.31L355.15,46.347L356.42,46.302L357.69,46.198L358.96,46.261L360.24,46.216L361.51,46.28L362.78,46.112L364.05,46.06L365.32,46.067L366.59,46.011L367.86,46.08L369.13,46.104L370.41,45.94L371.68,46.002L372.95,45.953L374.22,45.955L375.49,45.996L376.76,45.916L378.03,45.927L379.3,45.815L380.58,45.787L381.85,45.819L383.12,45.785L384.39,45.793L385.66,45.77L386.93,45.765L388.2,45.752L389.47,45.692L390.75,45.714L392.02,45.675L393.29,45.683L394.56,45.722L395.83,45.735L397.1,45.606L398.37,45.604L399.64,45.634L400.92,45.625L402.19,45.617L403.46,45.52L404.73,45.58L406,45.559L407.27,45.533L408.54,45.543L409.81,45.537L411.09,45.587L412.36,45.429L413.63,45.485L414.9,45.481L416.17,45.455L417.44,45.449L418.71,45.468L419.98,45.47L421.26,45.44L422.53,45.427L423.8,45.416L425.07,45.408L426.34,45.421L427.61,45.399L428.88,45.354L430.15,45.362L431.43,45.408L432.7,45.375L433.97,45.339L435.24,45.365L436.51,45.369L437.78,45.367L439.05,45.326L440.32,45.324L441.6,45.324L442.87,45.302L444.14,45.317L445.41,45.343L446.68,45.306L447.95,45.298L449.22,45.289L450.49,45.311L451.77,45.283L453.04,45.326L454.31,45.289L455.58,45.253L456.85,45.3L458.12,45.27L459.39,45.263L460.66,45.27L461.94,45.268L463.21,45.248L464.48,45.255L465.75,45.235L467.02,45.257L468.29,45.24L469.56,45.235L470.83,45.246L472.11,45.231L473.38,45.218L474.65,45.212L475.92,45.225L477.19,45.242L478.46,45.25L479.73,45.238L481,45.214L482.28,45.205L483.55,45.21L484.82,45.205L486.09,45.214L487.36,45.22L488.63,45.222L489.9,45.207L491.17,45.201L492.45,45.201L493.72,45.199L494.99,45.203L496.26,45.203L497.53,45.194L498.8,45.203L500.07,45.205L501.34,45.19L502.62,45.199L503.89,45.186L505.16,45.175L506.43,45.173L507.7,45.179L508.97,45.192L510.24,45.188L511.51,45.182L512.79,45.166L514.06,45.169L515.33,45.173L516.6,45.182L517.87,45.179L519.14,45.171L520.41,45.182L521.68,45.171L522.96,45.179L524.23,45.177L525.5,45.164L526.77,45.16L528.04,45.169L529.31,45.166L530.58,45.177L531.85,45.16L533.13,45.175L534.4,45.175L535.67,45.156L536.94,45.166L538.21,45.173L539.48,45.162L540.75,45.156L542.02,45.164L543.3,45.16L544.57,45.162L545.84,45.169L547.11,45.156L548.38,45.164L549.65,45.16L550.92,45.16L552.19,45.164L553.47,45.158L554.74,45.158L556.01,45.158L557.28,45.151L558.55,45.16L559.82,45.156L561.09,45.158L562.36,45.156L563.64,45.151L564.91,45.151L566.18,45.154L567.45,45.162L568.72,45.154L569.99,45.151L572.53,45.151L573.81,45.151L575.08,45.16L576.35,45.16L577.62,45.158L578.89,45.162L580.16,45.156L581.43,45.151L582.7,45.16L583.98,45.16L585.25,45.151L586.52,45.16L587.79,45.156L589.06,45.158L590.33,45.151L591.6,45.151L592.87,45.151L594.15,45.162L595.42,45.154L596.69,45.151L597.96,45.151L600.5,45.151L601.77,45.156L609.4,45.162L610.67,45.156L614.49,45.151L615.76,45.154L618.3,45.154L622.11,45.151L624.66,45.151L627.2,45.151L629.74,45.151L632.28,45.154L634.83,45.151L639.91,45.151L643.72,45.154L645,45.151L655.17,45.151L656.44,45.151L658.98,45.151L704.74,45.151L707.29,45.151L720,45.151" style="fill:none;stroke:#0000FF" />
</g>
</svg>
