<?xml version="1.0"?>
<!-- Generated by SVGo and Plotinum VG -->
<svg width="720pt" height="432pt" viewBox="0 0 720 432"
	xmlns="http://www.w3.org/2000/svg"
	xmlns:xlink="http://www.w3.org/1999/xlink">
<g transform="scale(1, -1) translate(0, -432)">
<path d="M0,0L720,0L720,432L0,432Z" style="fill:#FFFFFF" />
<text x="358.5" y="-420.45" transform="scale(1, -1)"
	style="font-family:Times;font-weight:normal;font-style:normal;font-size:12px"> </text>
<text x="379.31" y="-3.8613" transform="scale(1, -1)"
	style="font-family:Times;font-weight:normal;font-style:normal;font-size:12px">Costs</text>
<text x="62.805" y="-18.634" transform="scale(1, -1)"
	style="font-family:Times;font-weight:normal;font-style:normal;font-size:10px">0</text>
<text x="330.59" y="-18.634" transform="scale(1, -1)"
	style="font-family:Times;font-weight:normal;font-style:normal;font-size:10px">200</text>
<text x="603.38" y="-18.634" transform="scale(1, -1)"
	style="font-family:Times;font-weight:normal;font-style:normal;font-size:10px">400</text>
<path d="M65.305,28.263L65.305,36.263" style="fill:none;stroke:#000000;stroke-width:0.5" />
<path d="M338.09,28.263L338.09,36.263" style="fill:none;stroke:#000000;stroke-width:0.5" />
<path d="M610.88,28.263L610.88,36.263" style="fill:none;stroke:#000000;stroke-width:0.5" />
<path d="M201.7,32.263L201.7,36.263" style="fill:none;stroke:#000000;stroke-width:0.5" />
<path d="M474.49,32.263L474.49,36.263" style="fill:none;stroke:#000000;stroke-width:0.5" />
<path d="M65.305,36.263L720,36.263" style="fill:none;stroke:#000000;stroke-width:0.5" />
<g transform="rotate(90)">
<text x="152.55" y="11.555" transform="scale(1, -1)"
	style="font-family:Times;font-weight:normal;font-style:normal;font-size:12px">Number of trials (1000000 total)</text>
</g>
<text x="24.055" y="-112.62" transform="scale(1, -1)"
	style="font-family:Times;font-weight:normal;font-style:normal;font-size:10px">40000</text>
<text x="19.055" y="-253.96" transform="scale(1, -1)"
	style="font-family:Times;font-weight:normal;font-style:normal;font-size:10px">120000</text>
<text x="19.055" y="-395.31" transform="scale(1, -1)"
	style="font-family:Times;font-weight:normal;font-style:normal;font-size:10px">200000</text>
<path d="M51.555,115.82L59.555,115.82" style="fill:none;stroke:#000000;stroke-width:0.5" />
<path d="M51.555,257.17L59.555,257.17" style="fill:none;stroke:#000000;stroke-width:0.5" />
<path d="M51.555,398.51L59.555,398.51" style="fill:none;stroke:#000000;stroke-width:0.5" />
<path d="M55.555,186.49L59.555,186.49" style="fill:none;stroke:#000000;stroke-width:0.5" />
<path d="M55.555,327.84L59.555,327.84" style="fill:none;stroke:#000000;stroke-width:0.5" />
<path d="M59.555,45.151L59.555,416.58" style="fill:none;stroke:#000000;stroke-width:0.5" />
<path d="M65.305,416.58L98.039,48.508L100.77,77.852L103.5,48.484L104.86,55.607L107.59,55.6L108.95,52.067L110.31,55.855L111.68,58.92L113.04,99.232L114.41,48.664L115.77,48.501L117.13,58.993L118.5,77.288L119.86,65.843L121.23,59.199L122.59,52.045L123.95,66.078L125.32,66.235L126.68,58.895L128.05,65.754L130.77,55.701L132.14,73.088L133.5,56.295L134.87,48.547L136.23,45.879L137.59,84.573L138.96,58.929L140.32,53.079L141.69,77.445L143.05,56.427L144.41,52.897L145.78,63.689L147.14,68.104L148.51,60.337L149.87,49.409L151.23,46.904L152.6,48.439L153.96,48.597L155.33,49.042L156.69,70.634L158.05,48.871L159.42,50.447L160.78,51.651L162.15,55.752L163.51,50.609L164.87,50.438L166.24,53.144L167.6,53.27L168.96,50.332L170.33,54.454L171.69,52.21L173.06,55.759L174.42,55.685L175.78,77.647L177.15,54.213L178.51,53.768L179.88,56.657L181.24,54.572L182.6,52.729L183.97,53.355L185.33,58.042L186.7,54.878L188.06,52.459L189.42,56.037L190.79,55.417L192.15,56.349L193.52,55.775L194.88,56.012L196.24,54.577L197.61,54.005L198.97,53.676L200.34,55.754L201.7,53.468L203.06,52.455L204.43,57.003L205.79,52.148L207.16,51.938L208.52,53.275L209.88,54.408L211.25,54.095L212.61,50.984L213.98,53.964L215.34,53.457L216.7,51.038L218.07,52.581L219.43,53.143L220.79,51.726L222.16,53.014L223.52,55.614L224.89,51.291L226.25,49.669L227.61,50.948L228.98,53.899L230.34,51.515L231.71,50.24L233.07,51.381L234.43,51.593L235.8,50.821L237.16,51.141L238.53,52.037L239.89,50.12L241.25,50.113L242.62,51.492L243.98,50.335L245.35,49.749L246.71,50.1L248.07,52.212L249.44,50.04L250.8,50.01L252.17,51.765L253.53,50.507L254.89,49.98L256.26,50.791L257.62,51.038L258.99,50.268L260.35,49.208L261.71,49.648L263.08,49.234L264.44,49.072L265.81,49.446L267.17,50.832L268.53,49.169L269.9,49.173L271.26,49.254L272.62,49.432L273.99,48.909L275.35,48.71L276.72,49.208L278.08,48.902L279.44,48.445L280.81,48.832L282.17,48.669L283.54,48.708L284.9,48.639L286.26,48.641L287.63,48.337L288.99,48.166L290.36,48.45L291.72,48.36L293.08,47.897L294.45,47.931L295.81,48.519L297.18,47.961L298.54,47.689L299.9,48.054L301.27,47.893L302.63,47.634L304,47.869L305.36,48.03L306.72,47.717L308.09,47.461L309.45,47.501L310.82,47.749L312.18,47.431L313.54,47.328L314.91,47.657L316.27,47.176L317.64,47.143L319,47.356L320.36,47.291L321.73,47.19L323.09,46.931L324.45,47.141L325.82,46.971L327.18,46.858L328.55,46.922L329.91,46.872L331.27,46.745L332.64,46.869L334,46.844L335.37,46.688L336.73,46.685L338.09,46.567L339.46,46.6L340.82,46.519L342.19,46.425L343.55,46.538L344.91,46.395L346.28,46.349L347.64,46.441L349.01,46.36L350.37,46.316L351.73,46.291L353.1,46.319L354.46,46.224L355.83,46.211L357.19,46.197L358.55,46.164L359.92,46.171L361.28,46.148L362.65,46.15L364.01,46.15L365.37,46.088L366.74,46.109L368.1,45.954L369.47,46.095L370.83,46.01L372.19,45.95L373.56,45.952L374.92,45.89L376.28,45.888L377.65,45.915L379.01,45.867L380.38,45.825L381.74,45.847L383.1,45.844L384.47,45.791L385.83,45.779L387.2,45.8L388.56,45.764L389.92,45.722L391.29,45.71L392.65,45.703L394.02,45.683L395.38,45.667L396.74,45.651L398.11,45.63L399.47,45.616L400.84,45.63L402.2,45.634L403.56,45.611L404.93,45.602L406.29,45.547L407.66,45.558L409.02,45.524L410.38,45.514L411.75,45.491L413.11,45.484L414.48,45.51L415.84,45.48L417.2,45.476L418.57,45.438L419.93,45.505L421.3,45.485L422.66,45.487L424.02,45.448L425.39,45.453L426.75,45.431L428.12,45.411L429.48,45.429L430.84,45.434L432.21,45.4L433.57,45.392L434.93,45.393L436.3,45.388L437.66,45.369L439.03,45.413L440.39,45.372L441.75,45.31L443.12,45.351L444.48,45.347L445.85,45.351L447.21,45.337L448.57,45.326L449.94,45.3L451.3,45.3L452.67,45.328L454.03,45.328L455.39,45.323L456.76,45.298L458.12,45.326L459.49,45.326L460.85,45.303L462.21,45.286L463.58,45.273L464.94,45.287L466.31,45.284L467.67,45.284L469.03,45.286L470.4,45.266L471.76,45.263L473.13,45.266L474.49,45.249L475.85,45.27L477.22,45.249L478.58,45.238L479.95,45.263L481.31,45.243L482.67,45.25L484.04,45.224L485.4,45.219L486.76,45.219L488.13,45.206L489.49,45.234L490.86,45.203L492.22,45.222L493.58,45.222L494.95,45.194L496.31,45.194L497.68,45.203L499.04,45.215L500.4,45.203L501.77,45.215L503.13,45.211L504.5,45.197L505.86,45.203L507.22,45.203L508.59,45.196L509.95,45.188L511.32,45.201L512.68,45.199L514.04,45.185L515.41,45.169L516.77,45.192L518.14,45.185L519.5,45.181L520.86,45.187L522.23,45.166L523.59,45.167L524.96,45.181L526.32,45.18L527.68,45.173L529.05,45.171L530.41,45.176L531.78,45.176L533.14,45.169L534.5,45.178L535.87,45.173L537.23,45.181L538.59,45.167L539.96,45.167L541.32,45.164L542.69,45.171L544.05,45.178L545.41,45.167L546.78,45.166L548.14,45.169L549.51,45.167L550.87,45.176L552.23,45.171L553.6,45.167L554.96,45.166L556.33,45.158L557.69,45.164L559.05,45.158L560.42,45.166L561.78,45.16L563.15,45.173L564.51,45.16L565.87,45.157L567.24,45.158L568.6,45.166L569.97,45.155L571.33,45.157L572.69,45.16L574.06,45.158L575.42,45.16L576.79,45.153L578.15,45.158L579.51,45.157L580.88,45.157L582.24,45.157L583.61,45.158L584.97,45.157L586.33,45.162L587.7,45.157L590.42,45.151L591.79,45.158L593.15,45.153L594.52,45.16L598.61,45.153L599.97,45.153L601.34,45.153L602.7,45.153L604.06,45.157L605.43,45.153L606.79,45.155L608.16,45.158L609.52,45.155L610.88,45.153L612.25,45.153L613.61,45.151L614.98,45.153L616.34,45.153L617.7,45.157L619.07,45.153L620.43,45.153L621.8,45.151L624.52,45.151L625.89,45.155L628.62,45.153L629.98,45.151L632.71,45.151L634.07,45.153L635.44,45.153L636.8,45.155L638.16,45.155L640.89,45.151L642.25,45.151L643.62,45.153L644.98,45.151L647.71,45.151L650.44,45.151L651.8,45.151L654.53,45.151L655.89,45.151L658.62,45.153L659.99,45.151L662.71,45.151L665.44,45.151L673.63,45.151L689.99,45.151L695.45,45.151L702.27,45.151L703.63,45.151L720,45.151" style="fill:none;stroke:#0000FF" />
</g>
</svg>
