<?xml version="1.0"?>
<!-- Generated by SVGo and Plotinum VG -->
<svg width="720pt" height="432pt" viewBox="0 0 720 432"
	xmlns="http://www.w3.org/2000/svg"
	xmlns:xlink="http://www.w3.org/1999/xlink">
<g transform="scale(1, -1) translate(0, -432)">
<path d="M0,0L720,0L720,432L0,432Z" style="fill:#FFFFFF" />
<text x="358.5" y="-420.45" transform="scale(1, -1)"
	style="font-family:Times;font-weight:normal;font-style:normal;font-size:12px"> </text>
<text x="376.81" y="-3.8613" transform="scale(1, -1)"
	style="font-family:Times;font-weight:normal;font-style:normal;font-size:12px">Costs</text>
<text x="51.555" y="-18.634" transform="scale(1, -1)"
	style="font-family:Times;font-weight:normal;font-style:normal;font-size:10px">0.00</text>
<text x="335.39" y="-18.634" transform="scale(1, -1)"
	style="font-family:Times;font-weight:normal;font-style:normal;font-size:10px">250.00</text>
<text x="624.22" y="-18.634" transform="scale(1, -1)"
	style="font-family:Times;font-weight:normal;font-style:normal;font-size:10px">500.00</text>
<path d="M60.305,28.263L60.305,36.263" style="fill:none;stroke:#000000;stroke-width:0.5" />
<path d="M349.14,28.263L349.14,36.263" style="fill:none;stroke:#000000;stroke-width:0.5" />
<path d="M637.97,28.263L637.97,36.263" style="fill:none;stroke:#000000;stroke-width:0.5" />
<path d="M118.07,32.263L118.07,36.263" style="fill:none;stroke:#000000;stroke-width:0.5" />
<path d="M175.84,32.263L175.84,36.263" style="fill:none;stroke:#000000;stroke-width:0.5" />
<path d="M233.6,32.263L233.6,36.263" style="fill:none;stroke:#000000;stroke-width:0.5" />
<path d="M291.37,32.263L291.37,36.263" style="fill:none;stroke:#000000;stroke-width:0.5" />
<path d="M406.9,32.263L406.9,36.263" style="fill:none;stroke:#000000;stroke-width:0.5" />
<path d="M464.67,32.263L464.67,36.263" style="fill:none;stroke:#000000;stroke-width:0.5" />
<path d="M522.44,32.263L522.44,36.263" style="fill:none;stroke:#000000;stroke-width:0.5" />
<path d="M580.2,32.263L580.2,36.263" style="fill:none;stroke:#000000;stroke-width:0.5" />
<path d="M695.74,32.263L695.74,36.263" style="fill:none;stroke:#000000;stroke-width:0.5" />
<path d="M60.305,36.263L720,36.263" style="fill:none;stroke:#000000;stroke-width:0.5" />
<g transform="rotate(90)">
<text x="152.55" y="11.555" transform="scale(1, -1)"
	style="font-family:Times;font-weight:normal;font-style:normal;font-size:12px">Number of trials (1000000 total)</text>
</g>
<text x="19.055" y="-91.223" transform="scale(1, -1)"
	style="font-family:Times;font-weight:normal;font-style:normal;font-size:10px">10000</text>
<text x="19.055" y="-239.07" transform="scale(1, -1)"
	style="font-family:Times;font-weight:normal;font-style:normal;font-size:10px">40000</text>
<text x="19.055" y="-386.92" transform="scale(1, -1)"
	style="font-family:Times;font-weight:normal;font-style:normal;font-size:10px">70000</text>
<path d="M46.555,94.429L54.555,94.429" style="fill:none;stroke:#000000;stroke-width:0.5" />
<path d="M46.555,242.28L54.555,242.28" style="fill:none;stroke:#000000;stroke-width:0.5" />
<path d="M46.555,390.12L54.555,390.12" style="fill:none;stroke:#000000;stroke-width:0.5" />
<path d="M50.555,143.71L54.555,143.71" style="fill:none;stroke:#000000;stroke-width:0.5" />
<path d="M50.555,192.99L54.555,192.99" style="fill:none;stroke:#000000;stroke-width:0.5" />
<path d="M50.555,291.56L54.555,291.56" style="fill:none;stroke:#000000;stroke-width:0.5" />
<path d="M50.555,340.84L54.555,340.84" style="fill:none;stroke:#000000;stroke-width:0.5" />
<path d="M54.555,45.151L54.555,416.58" style="fill:none;stroke:#000000;stroke-width:0.5" />
<path d="M60.305,416.58L88.033,48.325L90.343,51.923L91.499,55.343L92.654,59.345L93.809,62.075L96.12,95.548L97.275,78.457L98.431,63.647L99.586,70.764L100.74,92.487L101.9,70.014L104.21,67.757L105.36,75.8L106.52,66.436L107.67,85.967L108.83,116.93L109.98,91.388L111.14,77.131L112.29,88.229L113.45,58.975L115.76,48.626L116.92,52.721L118.07,89.841L119.23,49.02L120.38,45.284L121.54,124.63L122.69,74.824L123.85,64.81L125,102.68L126.16,50.134L127.31,50.942L128.47,75.835L129.62,57.6L130.78,93L131.94,62.159L133.09,53.175L134.25,51.844L135.4,52.795L136.56,56.693L137.71,92.098L138.87,54.959L140.02,58.177L141.18,61.912L142.33,65.308L143.49,60.542L144.64,85.691L145.8,79.24L146.95,65.155L148.11,68.664L149.27,78.461L150.42,65.737L151.58,64.312L152.73,69.403L153.89,78.92L155.04,68.28L156.2,68.378L157.35,79.836L158.51,83.296L159.66,72.759L160.82,77.742L161.97,79.171L163.13,71.222L164.28,66.106L165.44,72.414L166.6,76.594L167.75,69.901L168.91,75.15L170.06,83.932L171.22,78.604L172.37,73.277L173.53,82.335L174.68,72.385L175.84,68.235L176.99,70.463L178.15,69.482L179.3,76.441L180.46,69.817L181.61,67.802L182.77,76.229L183.93,66.703L185.08,66.752L186.24,80.157L187.39,66.643L188.55,68.812L189.7,74.445L190.86,65.126L192.01,71.685L193.17,73.233L194.32,70.699L195.48,73.992L196.63,65.717L197.79,64.845L198.94,72.671L200.1,65.84L201.26,66.89L202.41,73.011L203.57,66.101L204.72,64.283L205.88,72.617L207.03,72.424L208.19,70.409L209.34,69.758L210.5,70.847L211.65,67.373L212.81,66.722L213.96,69.048L215.12,70.616L216.27,68.314L217.43,67.062L218.59,69.26L219.74,69.152L220.9,67.299L222.05,70.024L223.21,69.605L224.36,67.738L225.52,66.126L226.67,68.083L227.83,66.604L228.98,65.535L230.14,66.919L231.29,68.334L232.45,65.914L233.6,66.008L234.76,66.614L235.92,66.476L237.07,64.899L238.23,66.22L239.38,65.377L240.54,64.914L241.69,64.879L242.85,64.332L244,65.5L245.16,63.233L246.31,62.933L247.47,65.047L248.62,61.671L249.78,62.765L250.93,64.421L252.09,62.144L253.25,62.164L254.4,62.814L255.56,61.631L256.71,62.381L257.87,61.745L259.02,61.769L260.18,62.326L261.33,60.784L262.49,60.503L263.64,61.484L264.8,60.789L265.95,59.759L267.11,60.592L268.26,60.385L269.42,59.783L270.58,60.853L271.73,59.7L272.89,59.749L274.04,59.157L275.2,59.936L276.35,58.911L277.51,58.837L278.66,58.837L279.82,58.985L280.97,58.571L282.13,57.911L283.28,58.152L284.44,58.108L285.59,57.339L286.75,57.585L287.91,57.083L289.06,57.92L290.22,57.117L291.37,57.206L292.53,56.935L293.68,56.861L294.84,56.718L295.99,56.481L297.15,56.462L298.3,56.245L299.46,55.594L300.61,55.55L301.77,55.535L302.92,55.195L304.08,55.225L305.24,55.259L306.39,54.702L307.55,54.747L308.7,54.707L309.86,54.298L311.01,53.889L312.17,54.274L313.32,53.884L314.48,53.874L315.63,54.022L316.79,53.426L317.94,53.303L319.1,53.224L320.25,53.253L321.41,52.839L322.57,53.086L323.72,52.879L324.88,52.839L326.03,52.342L327.19,52.647L328.34,51.992L329.5,51.967L330.65,51.671L331.81,52.14L332.96,51.972L334.12,51.785L335.27,51.346L336.43,51.425L337.58,51.588L338.74,51.026L339.9,51.001L341.05,50.646L342.21,50.779L343.36,50.568L344.52,50.706L345.67,50.745L346.83,50.37L347.98,50.479L349.14,50.277L350.29,50.316L351.45,50.183L352.6,50.075L353.76,50.02L354.91,49.922L356.07,49.813L357.23,49.538L358.38,49.69L359.54,49.409L360.69,49.488L361.85,49.331L363,49.271L364.16,49.114L365.31,49.168L366.47,49.168L367.62,49.035L368.78,48.655L369.93,48.798L371.09,48.981L372.24,48.586L373.4,48.596L374.56,48.567L375.71,48.33L376.87,48.458L378.02,48.394L379.18,48.074L380.33,48.291L381.49,48.049L382.64,48.133L383.8,48.118L384.95,48.192L386.11,47.655L387.26,47.96L388.42,47.803L389.57,47.615L390.73,47.763L391.89,47.566L393.04,47.611L394.2,47.409L395.35,47.453L396.51,47.433L397.66,47.463L398.82,47.157L399.97,47.285L401.13,47.251L402.28,47.3L403.44,47.344L404.59,46.995L405.75,47.197L406.9,46.96L408.06,46.94L409.22,46.995L410.37,47.083L411.53,46.926L412.68,46.709L413.84,46.758L414.99,46.733L416.15,46.551L417.3,46.561L418.46,46.807L419.61,46.585L420.77,46.605L421.92,46.507L423.08,46.447L424.23,46.536L425.39,46.393L426.55,46.576L427.7,46.339L428.86,46.516L430.01,46.26L431.17,46.172L432.32,46.152L433.48,46.354L434.63,46.117L435.79,46.349L436.94,46.172L438.1,46.063L439.25,46.186L440.41,46.078L441.56,46.196L442.72,45.905L443.88,45.969L445.03,46.043L446.19,46.063L447.34,46.029L448.5,45.925L449.65,45.836L450.81,45.9L451.96,45.935L453.12,45.881L454.27,45.836L455.43,45.851L456.58,45.728L457.74,45.871L458.89,45.703L460.05,45.738L461.21,45.723L462.36,45.753L463.52,45.748L464.67,45.6L465.83,45.689L466.98,45.684L468.14,45.738L469.29,45.639L470.45,45.634L471.6,45.595L472.76,45.713L473.91,45.605L475.07,45.585L476.22,45.6L477.38,45.506L478.54,45.58L479.69,45.536L480.85,45.521L482,45.551L483.16,45.541L484.31,45.521L485.47,45.491L486.62,45.417L487.78,45.477L488.93,45.486L490.09,45.442L491.24,45.413L492.4,45.486L493.55,45.403L494.71,45.462L495.87,45.408L497.02,45.368L498.18,45.417L499.33,45.413L500.49,45.383L501.64,45.383L502.8,45.368L503.95,45.358L505.11,45.378L506.26,45.358L507.42,45.413L508.57,45.353L509.73,45.309L510.88,45.319L512.04,45.348L513.2,45.348L514.35,45.339L515.51,45.373L516.66,45.26L517.82,45.324L518.97,45.324L520.13,45.299L521.28,45.324L522.44,45.289L523.59,45.265L524.75,45.28L525.9,45.299L527.06,45.265L528.21,45.294L529.37,45.265L530.53,45.255L531.68,45.299L532.84,45.26L533.99,45.255L535.15,45.255L536.3,45.23L537.46,45.275L538.61,45.215L539.77,45.265L540.92,45.215L542.08,45.215L543.23,45.24L544.39,45.191L545.54,45.22L546.7,45.215L547.86,45.22L549.01,45.215L550.17,45.225L551.32,45.196L552.48,45.206L553.63,45.235L554.79,45.225L555.94,45.235L557.1,45.211L558.25,45.235L559.41,45.215L560.56,45.201L561.72,45.225L562.87,45.191L564.03,45.186L565.19,45.206L566.34,45.211L567.5,45.201L568.65,45.191L569.81,45.211L570.96,45.201L572.12,45.211L573.27,45.215L574.43,45.191L575.58,45.191L576.74,45.181L577.89,45.176L579.05,45.211L580.2,45.191L581.36,45.191L582.52,45.156L583.67,45.166L584.83,45.171L585.98,45.176L587.14,45.161L588.29,45.161L589.45,45.171L590.6,45.176L591.76,45.166L592.91,45.166L594.07,45.176L595.22,45.151L596.38,45.166L597.53,45.181L598.69,45.171L599.85,45.156L601,45.156L602.16,45.156L603.31,45.176L604.47,45.176L605.62,45.156L606.78,45.181L607.93,45.156L609.09,45.161L610.24,45.166L611.4,45.151L612.55,45.156L613.71,45.151L614.86,45.156L616.02,45.161L617.18,45.156L618.33,45.176L619.49,45.181L620.64,45.151L621.8,45.156L622.95,45.166L624.11,45.151L625.26,45.151L626.42,45.156L627.57,45.151L629.88,45.161L631.04,45.151L633.35,45.166L634.51,45.161L635.66,45.151L636.82,45.166L639.13,45.161L641.44,45.151L643.75,45.151L644.9,45.151L647.21,45.156L650.68,45.151L654.15,45.151L655.3,45.156L656.46,45.156L661.08,45.161L662.23,45.156L665.7,45.151L666.85,45.151L683.03,45.151L685.34,45.151L689.96,45.156L691.12,45.151L693.43,45.151L694.58,45.151L701.51,45.151L707.29,45.151L709.6,45.151L711.91,45.151L720,45.151" style="fill:none;stroke:#0000FF" />
</g>
</svg>
