<?xml version="1.0"?>
<!-- Generated by SVGo and Plotinum VG -->
<svg width="720pt" height="432pt" viewBox="0 0 720 432"
	xmlns="http://www.w3.org/2000/svg"
	xmlns:xlink="http://www.w3.org/1999/xlink">
<g transform="scale(1, -1) translate(0, -432)">
<path d="M0,0L720,0L720,432L0,432Z" style="fill:#FFFFFF" />
<text x="358.5" y="-420.45" transform="scale(1, -1)"
	style="font-family:Times;font-weight:normal;font-style:normal;font-size:12px"> </text>
<text x="372.44" y="-3.8613" transform="scale(1, -1)"
	style="font-family:Times;font-weight:normal;font-style:normal;font-size:12px">Costs</text>
<text x="56.555" y="-18.634" transform="scale(1, -1)"
	style="font-family:Times;font-weight:normal;font-style:normal;font-size:10px">0.00</text>
<text x="372.03" y="-18.634" transform="scale(1, -1)"
	style="font-family:Times;font-weight:normal;font-style:normal;font-size:10px">250.00</text>
<text x="692.5" y="-18.634" transform="scale(1, -1)"
	style="font-family:Times;font-weight:normal;font-style:normal;font-size:10px">500.00</text>
<path d="M65.305,28.263L65.305,36.263" style="fill:none;stroke:#000000;stroke-width:0.5" />
<path d="M385.78,28.263L385.78,36.263" style="fill:none;stroke:#000000;stroke-width:0.5" />
<path d="M706.25,28.263L706.25,36.263" style="fill:none;stroke:#000000;stroke-width:0.5" />
<path d="M129.4,32.263L129.4,36.263" style="fill:none;stroke:#000000;stroke-width:0.5" />
<path d="M193.49,32.263L193.49,36.263" style="fill:none;stroke:#000000;stroke-width:0.5" />
<path d="M257.59,32.263L257.59,36.263" style="fill:none;stroke:#000000;stroke-width:0.5" />
<path d="M321.68,32.263L321.68,36.263" style="fill:none;stroke:#000000;stroke-width:0.5" />
<path d="M449.87,32.263L449.87,36.263" style="fill:none;stroke:#000000;stroke-width:0.5" />
<path d="M513.97,32.263L513.97,36.263" style="fill:none;stroke:#000000;stroke-width:0.5" />
<path d="M578.06,32.263L578.06,36.263" style="fill:none;stroke:#000000;stroke-width:0.5" />
<path d="M642.16,32.263L642.16,36.263" style="fill:none;stroke:#000000;stroke-width:0.5" />
<path d="M65.305,36.263L706.25,36.263" style="fill:none;stroke:#000000;stroke-width:0.5" />
<g transform="rotate(90)">
<text x="152.55" y="11.555" transform="scale(1, -1)"
	style="font-family:Times;font-weight:normal;font-style:normal;font-size:12px">Number of trials (1000000 total)</text>
</g>
<text x="24.055" y="-107.55" transform="scale(1, -1)"
	style="font-family:Times;font-weight:normal;font-style:normal;font-size:10px">30000</text>
<text x="24.055" y="-238.75" transform="scale(1, -1)"
	style="font-family:Times;font-weight:normal;font-style:normal;font-size:10px">90000</text>
<text x="19.055" y="-369.96" transform="scale(1, -1)"
	style="font-family:Times;font-weight:normal;font-style:normal;font-size:10px">150000</text>
<path d="M51.555,110.75L59.555,110.75" style="fill:none;stroke:#000000;stroke-width:0.5" />
<path d="M51.555,241.96L59.555,241.96" style="fill:none;stroke:#000000;stroke-width:0.5" />
<path d="M51.555,373.16L59.555,373.16" style="fill:none;stroke:#000000;stroke-width:0.5" />
<path d="M55.555,176.35L59.555,176.35" style="fill:none;stroke:#000000;stroke-width:0.5" />
<path d="M55.555,307.56L59.555,307.56" style="fill:none;stroke:#000000;stroke-width:0.5" />
<path d="M59.555,45.151L59.555,416.58" style="fill:none;stroke:#000000;stroke-width:0.5" />
<path d="M65.305,416.58L93.506,52L94.788,48.62L96.07,60.31L98.634,52.897L101.2,64.06L102.48,60.986L103.76,48.541L105.04,63.059L106.33,66.216L107.61,84.655L108.89,97.784L110.17,71.554L111.45,55.56L112.73,56.577L114.02,60.117L115.3,67.159L116.58,75.329L117.86,73.804L120.43,69.158L121.71,95.02L122.99,48.578L124.27,73.708L125.55,45.28L126.84,45.307L128.12,63.678L129.4,49.203L130.68,60.752L131.96,46.142L133.24,78.289L134.53,46.142L135.81,50.354L137.09,74.161L138.37,51.985L139.65,63.605L140.94,59.236L142.22,48.873L143.5,70.334L144.78,59.096L146.06,62.147L147.35,50.561L148.63,52.978L149.91,53.71L151.19,56.103L152.47,56.297L153.76,55.108L155.04,53.931L156.32,53.168L157.6,57.447L158.88,64.705L160.16,68.381L161.45,58.727L162.73,54.758L164.01,77.08L165.29,59.175L166.57,57.848L167.86,74.342L169.14,69.98L170.42,55.392L171.7,56.111L172.98,59.525L174.27,58.191L175.55,55.092L176.83,60.535L178.11,52.599L179.39,56.328L180.67,59.363L181.96,53.997L183.24,56.595L184.52,56.326L185.8,55.818L187.08,56.953L188.37,56.59L189.65,58.76L190.93,51.403L192.21,55.53L193.49,55.084L194.78,53.769L196.06,58.628L197.34,52.847L198.62,54.047L199.9,56.089L201.19,54.672L202.47,56.52L203.75,54.749L205.03,56.431L206.31,54.15L207.59,55.475L208.88,56.21L210.16,55.44L211.44,59.243L212.72,56.455L214,54.32L215.29,55.665L216.57,55.484L217.85,54.301L219.13,55.624L220.41,56.011L221.7,52.094L222.98,53.855L224.26,54.644L225.54,53.131L226.82,53.231L228.1,52.838L229.39,51.806L230.67,51.884L231.95,54.082L233.23,51.93L234.51,51.342L235.8,53.872L237.08,52.25L238.36,52.186L239.64,53.126L240.92,51.889L242.21,52.394L243.49,52.009L244.77,51.766L246.05,51.231L247.33,51.414L248.62,51.817L249.9,50.209L251.18,50.675L252.46,50.73L253.74,50.437L255.02,51.139L256.31,50.5L257.59,50.804L258.87,50.87L260.15,50.323L261.43,50.636L262.72,50.843L264,50.791L265.28,49.897L266.56,50.808L267.84,51.204L269.13,49.908L270.41,49.851L271.69,50.301L272.97,49.247L274.25,49.615L275.53,49.711L276.82,49.201L278.1,49.112L279.38,49.44L280.66,49.09L281.94,49.153L283.23,49.252L284.51,48.919L285.79,48.84L287.07,48.913L288.35,49.018L289.64,48.46L290.92,48.801L292.2,48.694L293.48,48.232L294.76,48.543L296.04,48.11L297.33,48.112L298.61,48.32L299.89,47.918L301.17,47.966L302.45,47.992L303.74,47.924L305.02,47.955L306.3,47.867L307.58,47.765L308.86,47.712L310.15,47.73L311.43,47.815L312.71,47.546L313.99,47.57L315.27,47.472L316.56,47.428L317.84,47.358L319.12,47.386L320.4,47.321L321.68,47.041L322.96,47.323L324.25,47.056L325.53,47.023L326.81,47.115L328.09,46.979L329.37,46.955L330.66,47.157L331.94,46.835L333.22,46.752L334.5,46.925L335.78,46.796L337.07,46.695L338.35,46.8L339.63,46.695L340.91,46.706L342.19,46.671L343.47,46.571L344.76,46.455L346.04,46.477L347.32,46.549L348.6,46.42L349.88,46.398L351.17,46.282L352.45,46.223L353.73,46.378L355.01,46.369L356.29,46.234L357.58,46.232L358.86,46.179L360.14,46.175L361.42,46.076L362.7,46.129L363.99,46.094L365.27,46.076L366.55,46.052L367.83,46.011L369.11,46.02L370.39,45.993L371.68,45.932L372.96,45.917L374.24,45.928L375.52,45.921L376.8,45.862L378.09,45.862L379.37,45.858L380.65,45.792L381.93,45.871L383.21,45.783L384.5,45.766L385.78,45.794L387.06,45.818L388.34,45.7L389.62,45.685L390.9,45.801L392.19,45.707L393.47,45.718L394.75,45.622L396.03,45.663L397.31,45.657L398.6,45.622L399.88,45.591L401.16,45.619L402.44,45.565L403.72,45.517L405.01,45.558L406.29,45.562L407.57,45.517L408.85,45.503L410.13,45.517L411.42,45.484L412.7,45.458L413.98,45.49L415.26,45.493L416.54,45.484L417.82,45.444L419.11,45.423L420.39,45.442L421.67,45.405L422.95,45.427L424.23,45.409L425.52,45.396L426.8,45.427L428.08,45.346L429.36,45.377L430.64,45.372L431.93,45.405L433.21,45.366L434.49,45.309L435.77,45.37L437.05,45.403L438.33,45.35L439.62,45.335L440.9,45.337L442.18,45.333L443.46,45.311L444.74,45.318L446.03,45.287L447.31,45.294L448.59,45.298L449.87,45.291L451.15,45.3L452.44,45.269L453.72,45.289L455,45.28L456.28,45.263L457.56,45.289L458.85,45.243L460.13,45.263L461.41,45.256L462.69,45.265L463.97,45.269L465.25,45.23L466.54,45.259L467.82,45.248L469.1,45.217L470.38,45.232L471.66,45.261L472.95,45.241L474.23,45.237L475.51,45.226L476.79,45.206L478.07,45.237L479.36,45.237L480.64,45.224L481.92,45.199L483.2,45.219L484.48,45.204L485.76,45.221L487.05,45.228L488.33,45.217L489.61,45.204L490.89,45.204L492.17,45.208L493.46,45.204L494.74,45.186L496.02,45.208L497.3,45.202L498.58,45.18L499.87,45.184L501.15,45.175L502.43,45.189L503.71,45.178L504.99,45.18L506.28,45.175L507.56,45.18L508.84,45.175L510.12,45.175L511.4,45.169L512.68,45.18L513.97,45.171L515.25,45.169L516.53,45.191L517.81,45.171L519.09,45.178L520.38,45.169L521.66,45.175L522.94,45.167L524.22,45.175L525.5,45.167L526.79,45.173L528.07,45.162L529.35,45.162L530.63,45.175L531.91,45.175L533.19,45.162L534.48,45.154L535.76,45.162L537.04,45.162L538.32,45.164L539.6,45.162L540.89,45.16L542.17,45.156L543.45,45.167L544.73,45.169L546.01,45.16L547.3,45.156L548.58,45.173L549.86,45.156L551.14,45.162L552.42,45.171L553.71,45.16L554.99,45.154L556.27,45.156L557.55,45.158L558.83,45.154L560.11,45.16L561.4,45.156L562.68,45.167L563.96,45.156L565.24,45.156L567.81,45.158L569.09,45.154L570.37,45.151L574.22,45.151L575.5,45.151L576.78,45.151L578.06,45.151L579.34,45.154L580.62,45.154L581.91,45.151L583.19,45.154L585.75,45.154L587.03,45.154L589.6,45.151L592.16,45.151L594.73,45.154L596.01,45.151L597.29,45.156L599.85,45.151L601.13,45.151L602.42,45.151L603.7,45.151L604.98,45.154L607.54,45.154L608.83,45.151L611.39,45.151L615.24,45.151L616.52,45.151L619.08,45.154L620.36,45.154L621.65,45.151L626.77,45.151L628.05,45.154L629.34,45.151L630.62,45.151L631.9,45.154L639.59,45.151L647.28,45.151L652.41,45.151L657.54,45.151L663.95,45.151L678.05,45.151L687.02,45.151L706.25,45.151" style="fill:none;stroke:#0000FF" />
</g>
</svg>
