<?xml version="1.0"?>
<!-- Generated by SVGo and Plotinum VG -->
<svg width="720pt" height="432pt" viewBox="0 0 720 432"
	xmlns="http://www.w3.org/2000/svg"
	xmlns:xlink="http://www.w3.org/1999/xlink">
<g transform="scale(1, -1) translate(0, -432)">
<path d="M0,0L720,0L720,432L0,432Z" style="fill:#FFFFFF" />
<text x="358.5" y="-420.45" transform="scale(1, -1)"
	style="font-family:Times;font-weight:normal;font-style:normal;font-size:12px"> </text>
<text x="385.56" y="-3.8613" transform="scale(1, -1)"
	style="font-family:Times;font-weight:normal;font-style:normal;font-size:12px">Costs</text>
<text x="69.055" y="-18.634" transform="scale(1, -1)"
	style="font-family:Times;font-weight:normal;font-style:normal;font-size:10px">0.00</text>
<text x="354.9" y="-18.634" transform="scale(1, -1)"
	style="font-family:Times;font-weight:normal;font-style:normal;font-size:10px">250.00</text>
<text x="645.75" y="-18.634" transform="scale(1, -1)"
	style="font-family:Times;font-weight:normal;font-style:normal;font-size:10px">500.00</text>
<path d="M77.805,28.263L77.805,36.263" style="fill:none;stroke:#000000;stroke-width:0.5" />
<path d="M368.65,28.263L368.65,36.263" style="fill:none;stroke:#000000;stroke-width:0.5" />
<path d="M659.5,28.263L659.5,36.263" style="fill:none;stroke:#000000;stroke-width:0.5" />
<path d="M135.97,32.263L135.97,36.263" style="fill:none;stroke:#000000;stroke-width:0.5" />
<path d="M194.14,32.263L194.14,36.263" style="fill:none;stroke:#000000;stroke-width:0.5" />
<path d="M252.31,32.263L252.31,36.263" style="fill:none;stroke:#000000;stroke-width:0.5" />
<path d="M310.48,32.263L310.48,36.263" style="fill:none;stroke:#000000;stroke-width:0.5" />
<path d="M426.82,32.263L426.82,36.263" style="fill:none;stroke:#000000;stroke-width:0.5" />
<path d="M484.99,32.263L484.99,36.263" style="fill:none;stroke:#000000;stroke-width:0.5" />
<path d="M543.16,32.263L543.16,36.263" style="fill:none;stroke:#000000;stroke-width:0.5" />
<path d="M601.33,32.263L601.33,36.263" style="fill:none;stroke:#000000;stroke-width:0.5" />
<path d="M717.67,32.263L717.67,36.263" style="fill:none;stroke:#000000;stroke-width:0.5" />
<path d="M77.805,36.263L720,36.263" style="fill:none;stroke:#000000;stroke-width:0.5" />
<g transform="rotate(90)">
<text x="152.55" y="11.555" transform="scale(1, -1)"
	style="font-family:Times;font-weight:normal;font-style:normal;font-size:12px">Number of trials (1000000 total)</text>
</g>
<text x="24.055" y="-110.52" transform="scale(1, -1)"
	style="font-family:Times;font-weight:normal;font-style:normal;font-size:10px">25000.00</text>
<text x="24.055" y="-247.67" transform="scale(1, -1)"
	style="font-family:Times;font-weight:normal;font-style:normal;font-size:10px">75000.00</text>
<text x="19.055" y="-384.82" transform="scale(1, -1)"
	style="font-family:Times;font-weight:normal;font-style:normal;font-size:10px">125000.00</text>
<path d="M64.055,113.72L72.055,113.72" style="fill:none;stroke:#000000;stroke-width:0.5" />
<path d="M64.055,250.87L72.055,250.87" style="fill:none;stroke:#000000;stroke-width:0.5" />
<path d="M64.055,388.02L72.055,388.02" style="fill:none;stroke:#000000;stroke-width:0.5" />
<path d="M68.055,58.864L72.055,58.864" style="fill:none;stroke:#000000;stroke-width:0.5" />
<path d="M68.055,86.293L72.055,86.293" style="fill:none;stroke:#000000;stroke-width:0.5" />
<path d="M68.055,141.15L72.055,141.15" style="fill:none;stroke:#000000;stroke-width:0.5" />
<path d="M68.055,168.58L72.055,168.58" style="fill:none;stroke:#000000;stroke-width:0.5" />
<path d="M68.055,196.01L72.055,196.01" style="fill:none;stroke:#000000;stroke-width:0.5" />
<path d="M68.055,223.44L72.055,223.44" style="fill:none;stroke:#000000;stroke-width:0.5" />
<path d="M68.055,278.3L72.055,278.3" style="fill:none;stroke:#000000;stroke-width:0.5" />
<path d="M68.055,305.73L72.055,305.73" style="fill:none;stroke:#000000;stroke-width:0.5" />
<path d="M68.055,333.16L72.055,333.16" style="fill:none;stroke:#000000;stroke-width:0.5" />
<path d="M68.055,360.59L72.055,360.59" style="fill:none;stroke:#000000;stroke-width:0.5" />
<path d="M68.055,415.45L72.055,415.45" style="fill:none;stroke:#000000;stroke-width:0.5" />
<path d="M72.055,45.151L72.055,416.58" style="fill:none;stroke:#000000;stroke-width:0.5" />
<path d="M77.805,416.58L103.4,52.165L105.73,48.506L108.05,55.558L109.22,69.814L110.38,66.486L111.54,70.052L112.71,48.643L113.87,62.29L115.03,65.37L116.2,52.014L117.36,97.079L118.52,77.401L119.69,58.803L120.85,73.341L122.01,70.318L123.18,76.836L124.34,55.399L125.5,59.579L126.67,65.768L127.83,84.65L128.99,83.72L130.16,58.968L131.32,65.96L133.65,52.182L134.81,59.697L135.97,81.792L137.14,52.78L138.3,45.544L139.46,71.421L140.63,63.732L141.79,50.997L142.95,69.473L144.12,47.914L145.28,51.54L146.45,77.925L147.61,60.635L148.77,62.248L149.94,58.943L151.1,68.283L152.26,52.102L153.43,54.264L154.59,56.274L155.75,64.399L156.92,54.886L158.08,56.367L159.24,57.626L160.41,59.865L161.57,60.29L162.73,77.189L163.9,75.876L165.06,58.362L166.22,58.48L167.39,62.394L168.55,63.014L169.71,59.999L170.88,78.366L172.04,70.974L173.2,60.943L174.37,59.832L175.53,60.224L176.69,61.425L177.86,57.862L179.02,63.817L180.18,63.461L181.35,59.692L182.51,60.452L183.67,58.334L184.84,58.285L186,61.607L187.16,61.154L188.33,59.637L189.49,59.703L190.65,59.708L191.82,58.474L192.98,59.083L194.14,58.872L195.31,58.438L196.47,60.334L197.63,59.662L198.8,58.227L199.96,58.737L201.12,58.817L202.29,59.272L203.45,59.401L204.61,60.987L205.78,57.673L206.94,58.035L208.11,59.769L209.27,58.595L210.43,57.533L211.6,59.703L212.76,59.311L213.92,60.594L215.09,58.526L216.25,58.449L217.41,57.05L218.58,56.255L219.74,57.514L220.9,59.393L222.07,58.68L223.23,55.723L224.39,56.938L225.56,56.529L226.72,55.246L227.88,55.975L229.05,57.081L230.21,55.355L231.37,55.539L232.54,57.031L233.7,56.241L234.86,55.191L236.03,56.233L237.19,54.826L238.35,53.745L239.52,54.905L240.68,55.586L241.84,55.078L243.01,54.198L244.17,54.76L245.33,53.956L246.5,53.731L247.66,53.792L248.82,55.084L249.99,53.531L251.15,53.122L252.31,53.378L253.48,53.624L254.64,53.271L255.8,54.104L256.97,54.305L258.13,53.347L259.29,52.843L260.46,52.736L261.62,52.876L262.78,52.505L263.95,52.503L265.11,53.002L266.28,52.264L267.44,52.195L268.6,51.962L269.77,52.217L270.93,51.927L272.09,52.042L273.26,51.968L274.42,51.63L275.58,51.589L276.75,51.4L277.91,51.197L279.07,51.375L280.24,51.098L281.4,50.975L282.56,50.925L283.73,50.827L284.89,50.774L286.05,50.547L287.22,50.086L288.38,50.316L289.54,50.316L290.71,50.283L291.87,50.122L293.03,50.113L294.2,50.037L295.36,49.592L296.52,49.771L297.69,49.842L298.85,49.836L300.01,49.88L301.18,49.293L302.34,49.332L303.5,49.211L304.67,49.175L305.83,49.312L306.99,49.447L308.16,49.03L309.32,48.857L310.48,48.981L311.65,48.673L312.81,48.747L313.97,48.827L315.14,48.512L316.3,48.586L317.46,48.366L318.63,48.492L319.79,48.402L320.95,48.138L322.12,48.248L323.28,48.042L324.44,48.13L325.61,48.133L326.77,48.051L327.94,47.861L329.1,47.779L330.26,47.968L331.43,47.568L332.59,47.59L333.75,47.579L334.92,47.675L336.08,47.469L337.24,47.505L338.41,47.365L339.57,47.22L340.73,47.206L341.9,47.324L343.06,47.305L344.22,47.2L345.39,47.003L346.55,47.014L347.71,47.096L348.88,46.91L350.04,46.945L351.2,46.995L352.37,46.918L353.53,46.786L354.69,46.797L355.86,46.655L357.02,46.761L358.18,46.742L359.35,46.729L360.51,46.605L361.67,46.569L362.84,46.644L364,46.539L365.16,46.657L366.33,46.523L367.49,46.287L368.65,46.306L369.82,46.427L370.98,46.364L372.14,46.279L373.31,46.32L374.47,46.323L375.63,46.21L376.8,46.312L377.96,46.199L379.12,46.136L380.29,46.109L381.45,46.076L382.61,46.098L383.78,46.051L384.94,46.021L386.1,45.966L387.27,46.054L388.43,46.04L389.6,45.928L390.76,45.865L391.92,45.999L393.09,45.963L394.25,45.865L395.41,45.81L396.58,45.884L397.74,45.818L398.9,45.76L400.07,45.812L401.23,45.76L402.39,45.752L403.56,45.771L404.72,45.749L405.88,45.747L407.05,45.73L408.21,45.714L409.37,45.634L410.54,45.692L411.7,45.67L412.86,45.637L414.03,45.59L415.19,45.577L416.35,45.609L417.52,45.618L418.68,45.626L419.84,45.645L421.01,45.552L422.17,45.511L423.33,45.585L424.5,45.483L425.66,45.527L426.82,45.53L427.99,45.489L429.15,45.502L430.31,45.459L431.48,45.483L432.64,45.491L433.8,45.486L434.97,45.426L436.13,45.409L437.29,45.437L438.46,45.437L439.62,45.445L440.78,45.431L441.95,45.368L443.11,45.382L444.27,45.401L445.44,45.343L446.6,45.31L447.77,45.387L448.93,45.357L450.09,45.401L451.26,45.338L452.42,45.39L453.58,45.313L454.75,45.332L455.91,45.316L457.07,45.324L458.24,45.261L459.4,45.302L460.56,45.289L461.73,45.299L462.89,45.324L464.05,45.299L465.22,45.264L466.38,45.31L467.54,45.253L468.71,45.275L469.87,45.286L471.03,45.25L472.2,45.247L473.36,45.25L474.52,45.242L475.69,45.269L476.85,45.253L478.01,45.242L479.18,45.256L480.34,45.231L481.5,45.258L482.67,45.236L483.83,45.239L484.99,45.245L486.16,45.212L487.32,45.198L488.48,45.225L489.65,45.214L490.81,45.253L491.97,45.206L493.14,45.234L494.3,45.195L495.46,45.231L496.63,45.236L497.79,45.228L498.95,45.206L500.12,45.187L501.28,45.203L502.44,45.209L503.61,45.203L504.77,45.187L505.93,45.187L507.1,45.195L508.26,45.187L509.43,45.217L510.59,45.19L511.75,45.203L512.92,45.19L514.08,45.184L515.24,45.201L516.41,45.173L517.57,45.168L518.73,45.19L519.9,45.195L521.06,45.173L522.22,45.182L523.39,45.193L524.55,45.171L525.71,45.162L526.88,45.171L528.04,45.171L529.2,45.162L530.37,45.171L531.53,45.173L532.69,45.182L533.86,45.179L535.02,45.182L536.18,45.162L537.35,45.179L538.51,45.176L539.67,45.171L540.84,45.16L542,45.168L543.16,45.173L544.33,45.16L545.49,45.162L546.65,45.162L547.82,45.165L548.98,45.162L550.14,45.168L551.31,45.16L552.47,45.16L553.63,45.151L554.8,45.16L555.96,45.168L557.12,45.151L558.29,45.162L559.45,45.157L560.61,45.154L561.78,45.157L562.94,45.162L564.1,45.165L565.27,45.154L566.43,45.16L567.59,45.162L568.76,45.162L569.92,45.154L571.09,45.154L572.25,45.162L573.41,45.16L575.74,45.154L576.9,45.151L578.07,45.151L579.23,45.151L580.39,45.151L581.56,45.151L582.72,45.154L583.88,45.157L585.05,45.151L586.21,45.151L587.37,45.157L588.54,45.162L589.7,45.16L590.86,45.154L592.03,45.157L593.19,45.151L594.35,45.154L597.84,45.154L600.17,45.154L601.33,45.154L602.5,45.151L604.82,45.154L605.99,45.151L607.15,45.151L608.31,45.154L616.46,45.151L619.95,45.151L621.11,45.154L622.27,45.151L624.6,45.151L626.93,45.154L631.58,45.151L633.91,45.151L635.07,45.151L639.73,45.151L656.01,45.151L662.99,45.151L667.65,45.151L674.63,45.151L688.59,45.151L690.92,45.151L696.73,45.151L717.67,45.151L720,45.151" style="fill:none;stroke:#0000FF" />
</g>
</svg>
