<?xml version="1.0"?>
<!-- Generated by SVGo and Plotinum VG -->
<svg width="720pt" height="432pt" viewBox="0 0 720 432"
	xmlns="http://www.w3.org/2000/svg"
	xmlns:xlink="http://www.w3.org/1999/xlink">
<g transform="scale(1, -1) translate(0, -432)">
<path d="M0,0L720,0L720,432L0,432Z" style="fill:#FFFFFF" />
<text x="358.5" y="-420.45" transform="scale(1, -1)"
	style="font-family:Times;font-weight:normal;font-style:normal;font-size:12px"> </text>
<text x="379.31" y="-3.8613" transform="scale(1, -1)"
	style="font-family:Times;font-weight:normal;font-style:normal;font-size:12px">Costs</text>
<text x="62.805" y="-18.634" transform="scale(1, -1)"
	style="font-family:Times;font-weight:normal;font-style:normal;font-size:10px">0</text>
<text x="227.86" y="-18.634" transform="scale(1, -1)"
	style="font-family:Times;font-weight:normal;font-style:normal;font-size:10px">100</text>
<text x="397.91" y="-18.634" transform="scale(1, -1)"
	style="font-family:Times;font-weight:normal;font-style:normal;font-size:10px">200</text>
<text x="567.96" y="-18.634" transform="scale(1, -1)"
	style="font-family:Times;font-weight:normal;font-style:normal;font-size:10px">300</text>
<path d="M65.305,28.263L65.305,36.263" style="fill:none;stroke:#000000;stroke-width:0.5" />
<path d="M235.36,28.263L235.36,36.263" style="fill:none;stroke:#000000;stroke-width:0.5" />
<path d="M405.41,28.263L405.41,36.263" style="fill:none;stroke:#000000;stroke-width:0.5" />
<path d="M575.46,28.263L575.46,36.263" style="fill:none;stroke:#000000;stroke-width:0.5" />
<path d="M99.315,32.263L99.315,36.263" style="fill:none;stroke:#000000;stroke-width:0.5" />
<path d="M133.32,32.263L133.32,36.263" style="fill:none;stroke:#000000;stroke-width:0.5" />
<path d="M167.34,32.263L167.34,36.263" style="fill:none;stroke:#000000;stroke-width:0.5" />
<path d="M201.35,32.263L201.35,36.263" style="fill:none;stroke:#000000;stroke-width:0.5" />
<path d="M269.37,32.263L269.37,36.263" style="fill:none;stroke:#000000;stroke-width:0.5" />
<path d="M303.38,32.263L303.38,36.263" style="fill:none;stroke:#000000;stroke-width:0.5" />
<path d="M337.39,32.263L337.39,36.263" style="fill:none;stroke:#000000;stroke-width:0.5" />
<path d="M371.4,32.263L371.4,36.263" style="fill:none;stroke:#000000;stroke-width:0.5" />
<path d="M439.42,32.263L439.42,36.263" style="fill:none;stroke:#000000;stroke-width:0.5" />
<path d="M473.43,32.263L473.43,36.263" style="fill:none;stroke:#000000;stroke-width:0.5" />
<path d="M507.44,32.263L507.44,36.263" style="fill:none;stroke:#000000;stroke-width:0.5" />
<path d="M541.45,32.263L541.45,36.263" style="fill:none;stroke:#000000;stroke-width:0.5" />
<path d="M609.47,32.263L609.47,36.263" style="fill:none;stroke:#000000;stroke-width:0.5" />
<path d="M643.48,32.263L643.48,36.263" style="fill:none;stroke:#000000;stroke-width:0.5" />
<path d="M677.49,32.263L677.49,36.263" style="fill:none;stroke:#000000;stroke-width:0.5" />
<path d="M711.5,32.263L711.5,36.263" style="fill:none;stroke:#000000;stroke-width:0.5" />
<path d="M65.305,36.263L720,36.263" style="fill:none;stroke:#000000;stroke-width:0.5" />
<g transform="rotate(90)">
<text x="152.55" y="11.555" transform="scale(1, -1)"
	style="font-family:Times;font-weight:normal;font-style:normal;font-size:12px">Number of trials (1000000 total)</text>
</g>
<text x="24.055" y="-87.79" transform="scale(1, -1)"
	style="font-family:Times;font-weight:normal;font-style:normal;font-size:10px">50000</text>
<text x="19.055" y="-225.32" transform="scale(1, -1)"
	style="font-family:Times;font-weight:normal;font-style:normal;font-size:10px">200000</text>
<text x="19.055" y="-362.86" transform="scale(1, -1)"
	style="font-family:Times;font-weight:normal;font-style:normal;font-size:10px">350000</text>
<path d="M51.555,90.995L59.555,90.995" style="fill:none;stroke:#000000;stroke-width:0.5" />
<path d="M51.555,228.53L59.555,228.53" style="fill:none;stroke:#000000;stroke-width:0.5" />
<path d="M51.555,366.07L59.555,366.07" style="fill:none;stroke:#000000;stroke-width:0.5" />
<path d="M55.555,159.76L59.555,159.76" style="fill:none;stroke:#000000;stroke-width:0.5" />
<path d="M55.555,297.3L59.555,297.3" style="fill:none;stroke:#000000;stroke-width:0.5" />
<path d="M59.555,45.151L59.555,416.58" style="fill:none;stroke:#000000;stroke-width:0.5" />
<path d="M65.305,416.58L102.72,55.684L112.92,51.996L114.62,70.833L116.32,67.259L118.02,66.417L121.42,52.11L123.12,52.058L124.82,52.043L126.52,52.131L128.22,48.402L129.92,55.57L131.62,48.466L135.03,69.928L136.73,55.632L138.43,77.544L140.13,59.042L141.83,48.399L148.63,52.215L150.33,45.333L152.03,49.38L153.73,45.788L155.43,52.516L157.13,67.225L158.83,52.351L160.53,45.355L162.23,68.048L163.93,52.865L165.63,53.925L167.34,46.816L169.04,57.254L170.74,74.139L172.44,53.639L174.14,46.71L175.84,47.361L177.54,46.758L179.24,46.771L180.94,46.307L182.64,46.646L184.34,47.593L186.04,48.548L187.74,49.689L189.44,48.809L191.14,48.799L192.84,47.101L194.54,47.305L196.24,47.09L197.94,46.979L199.64,48.007L201.35,47.037L203.05,46.948L204.75,47.377L206.45,48.495L208.15,50.313L209.85,49.475L211.55,48.437L213.25,49.022L214.95,48.629L216.65,47.123L218.35,48.526L220.05,49.272L221.75,50.202L223.45,48.763L225.15,47.291L226.85,48.838L228.55,48.31L230.25,48.578L231.95,49.035L233.65,47.636L235.36,48.873L237.06,47.554L238.76,47.49L240.46,48.307L242.16,48.013L243.86,48.774L245.56,47.767L247.26,46.683L248.96,46.147L250.66,46.13L252.36,46.22L254.06,47.292L255.76,46.818L257.46,46.532L259.16,46.197L260.86,47.449L262.56,48.224L264.26,46.807L265.96,46.496L267.67,47.649L269.37,46.97L271.07,46.538L272.77,46.067L274.47,46.634L276.17,46.456L277.87,46.506L279.57,46.011L281.27,46.014L282.97,46.095L284.67,45.999L286.37,45.92L288.07,46.026L289.77,45.961L291.47,46.079L293.17,46.081L294.87,45.977L296.57,46.005L298.27,45.831L299.97,45.854L301.68,45.834L303.38,45.814L305.08,45.911L306.78,45.817L308.48,45.782L310.18,45.808L311.88,45.911L313.58,45.981L315.28,45.896L316.98,45.766L318.68,45.834L320.38,45.747L322.08,45.643L323.78,45.691L325.48,45.754L327.18,45.796L328.88,45.662L330.58,45.615L332.28,45.631L333.98,45.657L335.69,45.702L337.39,45.673L339.09,45.598L340.79,45.643L342.49,45.511L344.19,45.521L345.89,45.481L347.59,45.472L349.29,45.424L350.99,45.433L352.69,45.423L354.39,45.371L356.09,45.368L357.79,45.385L359.49,45.411L361.19,45.43L362.89,45.384L364.59,45.349L366.29,45.397L367.99,45.394L369.7,45.332L371.4,45.35L373.1,45.326L374.8,45.349L376.5,45.32L378.2,45.295L379.9,45.282L381.6,45.282L383.3,45.293L385,45.288L386.7,45.285L388.4,45.274L390.1,45.28L391.8,45.26L393.5,45.279L395.2,45.265L396.9,45.249L398.6,45.257L400.3,45.261L402.01,45.231L403.71,45.246L405.41,45.233L407.11,45.235L408.81,45.243L410.51,45.226L412.21,45.23L413.91,45.226L415.61,45.224L417.31,45.231L419.01,45.219L420.71,45.198L422.41,45.215L424.11,45.211L425.81,45.202L427.51,45.205L429.21,45.202L430.91,45.205L432.61,45.22L434.31,45.2L436.02,45.191L437.72,45.189L439.42,45.194L441.12,45.202L442.82,45.191L444.52,45.184L446.22,45.18L447.92,45.185L449.62,45.176L451.32,45.171L453.02,45.18L454.72,45.169L456.42,45.185L458.12,45.176L459.82,45.172L461.52,45.175L463.22,45.168L464.92,45.181L466.62,45.164L468.32,45.167L470.03,45.173L471.73,45.173L473.43,45.168L475.13,45.168L476.83,45.168L478.53,45.169L480.23,45.162L481.93,45.164L483.63,45.165L485.33,45.165L487.03,45.169L488.73,45.164L490.43,45.159L492.13,45.16L493.83,45.161L495.53,45.162L497.23,45.161L498.93,45.157L500.63,45.159L502.34,45.161L504.04,45.161L505.74,45.154L507.44,45.158L509.14,45.156L510.84,45.155L512.54,45.155L514.24,45.159L515.94,45.159L517.64,45.154L519.34,45.153L521.04,45.154L522.74,45.154L524.44,45.155L526.14,45.151L527.84,45.156L529.54,45.156L531.24,45.151L532.94,45.156L534.64,45.152L536.35,45.152L538.05,45.151L539.75,45.152L541.45,45.151L543.15,45.153L544.85,45.152L546.55,45.152L548.25,45.153L549.95,45.154L551.65,45.151L553.35,45.151L555.05,45.153L556.75,45.151L558.45,45.151L560.15,45.153L561.85,45.152L563.55,45.152L565.25,45.154L566.95,45.154L573.76,45.151L575.46,45.151L577.16,45.151L587.36,45.151L590.76,45.151L592.46,45.152L594.16,45.152L595.86,45.151L597.56,45.151L606.07,45.151L612.87,45.151L614.57,45.151L617.97,45.151L624.77,45.151L629.87,45.151L638.38,45.151L653.68,45.151L697.89,45.151L720,45.151" style="fill:none;stroke:#0000FF" />
</g>
</svg>
