<?xml version="1.0"?>
<!-- Generated by SVGo and Plotinum VG -->
<svg width="720pt" height="432pt" viewBox="0 0 720 432"
	xmlns="http://www.w3.org/2000/svg"
	xmlns:xlink="http://www.w3.org/1999/xlink">
<g transform="scale(1, -1) translate(0, -432)">
<path d="M0,0L720,0L720,432L0,432Z" style="fill:#FFFFFF" />
<text x="358.5" y="-420.45" transform="scale(1, -1)"
	style="font-family:Times;font-weight:normal;font-style:normal;font-size:12px"> </text>
<text x="376.81" y="-3.8613" transform="scale(1, -1)"
	style="font-family:Times;font-weight:normal;font-style:normal;font-size:12px">Costs</text>
<text x="51.555" y="-18.634" transform="scale(1, -1)"
	style="font-family:Times;font-weight:normal;font-style:normal;font-size:10px">0.00</text>
<text x="332.38" y="-18.634" transform="scale(1, -1)"
	style="font-family:Times;font-weight:normal;font-style:normal;font-size:10px">250.00</text>
<text x="618.21" y="-18.634" transform="scale(1, -1)"
	style="font-family:Times;font-weight:normal;font-style:normal;font-size:10px">500.00</text>
<path d="M60.305,28.263L60.305,36.263" style="fill:none;stroke:#000000;stroke-width:0.5" />
<path d="M346.13,28.263L346.13,36.263" style="fill:none;stroke:#000000;stroke-width:0.5" />
<path d="M631.96,28.263L631.96,36.263" style="fill:none;stroke:#000000;stroke-width:0.5" />
<path d="M117.47,32.263L117.47,36.263" style="fill:none;stroke:#000000;stroke-width:0.5" />
<path d="M174.64,32.263L174.64,36.263" style="fill:none;stroke:#000000;stroke-width:0.5" />
<path d="M231.8,32.263L231.8,36.263" style="fill:none;stroke:#000000;stroke-width:0.5" />
<path d="M288.97,32.263L288.97,36.263" style="fill:none;stroke:#000000;stroke-width:0.5" />
<path d="M403.3,32.263L403.3,36.263" style="fill:none;stroke:#000000;stroke-width:0.5" />
<path d="M460.47,32.263L460.47,36.263" style="fill:none;stroke:#000000;stroke-width:0.5" />
<path d="M517.63,32.263L517.63,36.263" style="fill:none;stroke:#000000;stroke-width:0.5" />
<path d="M574.8,32.263L574.8,36.263" style="fill:none;stroke:#000000;stroke-width:0.5" />
<path d="M689.13,32.263L689.13,36.263" style="fill:none;stroke:#000000;stroke-width:0.5" />
<path d="M60.305,36.263L720,36.263" style="fill:none;stroke:#000000;stroke-width:0.5" />
<g transform="rotate(90)">
<text x="152.55" y="11.555" transform="scale(1, -1)"
	style="font-family:Times;font-weight:normal;font-style:normal;font-size:12px">Number of trials (1000000 total)</text>
</g>
<text x="19.055" y="-81.992" transform="scale(1, -1)"
	style="font-family:Times;font-weight:normal;font-style:normal;font-size:10px">10000</text>
<text x="19.055" y="-242.19" transform="scale(1, -1)"
	style="font-family:Times;font-weight:normal;font-style:normal;font-size:10px">50000</text>
<text x="19.055" y="-402.39" transform="scale(1, -1)"
	style="font-family:Times;font-weight:normal;font-style:normal;font-size:10px">90000</text>
<path d="M46.555,85.197L54.555,85.197" style="fill:none;stroke:#000000;stroke-width:0.5" />
<path d="M46.555,245.4L54.555,245.4" style="fill:none;stroke:#000000;stroke-width:0.5" />
<path d="M46.555,405.6L54.555,405.6" style="fill:none;stroke:#000000;stroke-width:0.5" />
<path d="M50.555,125.25L54.555,125.25" style="fill:none;stroke:#000000;stroke-width:0.5" />
<path d="M50.555,165.3L54.555,165.3" style="fill:none;stroke:#000000;stroke-width:0.5" />
<path d="M50.555,205.35L54.555,205.35" style="fill:none;stroke:#000000;stroke-width:0.5" />
<path d="M50.555,285.45L54.555,285.45" style="fill:none;stroke:#000000;stroke-width:0.5" />
<path d="M50.555,325.5L54.555,325.5" style="fill:none;stroke:#000000;stroke-width:0.5" />
<path d="M50.555,365.55L54.555,365.55" style="fill:none;stroke:#000000;stroke-width:0.5" />
<path d="M54.555,45.151L54.555,416.58" style="fill:none;stroke:#000000;stroke-width:0.5" />
<path d="M60.305,416.58L90.031,48.447L91.174,59.645L95.748,95.474L96.891,82.154L99.178,78.401L100.32,81.925L102.61,81.801L103.75,62.429L104.89,55.26L107.18,84.304L109.47,78.637L110.61,129.35L112.9,95.478L118.61,48.612L120.9,157.57L122.04,79.078L123.19,51.936L124.33,107.93L125.47,59.702L126.62,47.35L127.76,46.633L128.9,45.388L130.05,46.753L131.19,80.608L132.33,64.091L133.48,46.982L134.62,50.666L135.76,53.534L136.91,49.305L138.05,51.303L139.19,54.819L140.34,50.538L141.48,55.705L142.62,55.853L143.77,117.35L144.91,50.726L146.05,64.435L147.2,58.528L148.34,79.919L149.48,65.321L150.63,56.241L151.77,121.88L152.91,112.06L154.06,52.481L155.2,55.657L156.34,67.087L157.49,71.548L158.63,49.869L159.77,77.175L160.92,72.446L162.06,56.437L163.2,74.003L164.35,61.492L165.49,52.284L166.63,57.971L167.78,67.127L168.92,53.734L170.06,59.489L171.21,85.77L172.35,56.658L173.49,71.969L174.64,72.898L175.78,51.896L176.92,55.801L178.07,52.637L179.21,58.8L180.35,56.59L181.5,68.404L182.64,69.854L183.78,65.725L184.93,73.491L186.07,65.525L187.21,65.617L188.36,66.65L189.5,56.866L190.64,63.743L191.79,72.558L192.93,69.674L194.07,73.022L195.22,67.391L196.36,69.738L197.5,55.008L198.65,64.932L199.79,59.878L200.93,59.605L202.08,73.659L203.22,66.714L204.36,79.23L205.51,64.087L206.65,57.799L207.79,64.439L208.94,62.561L210.08,62.193L211.22,55.677L212.37,77.772L213.51,80.207L214.65,65.1L215.8,66.626L216.94,66.542L218.08,58.488L219.23,55.28L220.37,59.87L221.51,59.025L222.66,60.094L223.8,66.979L224.94,59.67L226.09,53.902L227.23,57.315L228.37,56.177L229.52,55.905L230.66,56.558L231.8,64.752L232.95,58.456L234.09,59.79L235.23,72.121L236.38,65.289L237.52,57.275L238.66,57.447L239.81,61.824L240.95,61.916L242.09,57.455L243.24,60.907L244.38,69.27L245.52,60.102L246.67,59.065L247.81,59.193L248.95,59.485L250.1,56.421L251.24,59.778L252.38,61.175L253.53,58.464L254.67,63.018L255.81,60.326L256.96,58.937L258.1,56.95L259.24,57.987L260.39,56.77L261.53,55.208L262.67,61.019L263.82,58.1L264.96,59.313L266.1,59.641L267.25,56.349L268.39,56.277L269.53,54.771L270.68,55.717L271.82,54.435L272.96,56.734L274.11,58.336L275.25,58.015L276.39,57.531L277.54,57.226L278.68,55.572L279.82,55.12L280.97,53.93L282.11,55.072L283.25,55.404L284.4,57.202L285.54,56.069L286.68,55.817L287.83,55.192L288.97,53.526L290.11,52.817L291.26,53.586L292.4,53.454L293.54,53.754L294.69,54.531L295.83,55.953L296.97,56.329L298.12,53.025L299.26,53.654L300.4,54.435L301.55,53.886L302.69,52.861L303.83,53.105L304.98,56.177L306.12,53.734L307.26,53.197L308.41,53.522L309.55,52.1L310.69,51.912L311.83,52.453L312.98,52.408L314.12,51.483L315.26,53.173L316.41,52.304L317.55,51.527L318.69,51.415L319.84,50.955L320.98,50.802L322.12,50.907L323.27,52.024L324.41,51.752L325.55,51.331L326.7,51.571L327.84,52.284L328.98,50.834L330.13,50.33L331.27,50.598L332.41,50.81L333.56,50.394L334.7,50.686L335.84,51.035L336.99,50.983L338.13,50.342L339.27,50.202L340.42,50.142L341.56,49.521L342.7,49.837L343.85,50.342L344.99,50.045L346.13,49.917L347.28,50.522L348.42,49.833L349.56,49.605L350.71,49.589L351.85,49.373L352.99,48.696L354.14,49.108L355.28,49.413L356.42,49.261L357.57,49.537L358.71,49.196L359.85,48.832L361,49.156L362.14,48.52L363.28,48.664L364.43,48.267L365.57,48.732L366.71,48.744L367.86,48.844L369,48.8L370.14,48.187L371.29,48.171L372.43,48.035L373.57,48.023L374.72,47.971L375.86,48.367L377,47.987L378.15,48.019L379.29,47.799L380.43,47.819L381.58,47.458L382.72,47.654L383.86,47.711L385.01,47.851L386.15,47.546L387.29,47.835L388.44,48.183L389.58,47.614L390.72,47.35L391.87,47.334L393.01,47.398L394.15,47.314L395.3,47.03L396.44,47.406L397.58,47.178L398.73,47.09L399.87,46.99L401.01,46.886L402.16,46.914L403.3,46.978L404.44,46.97L405.59,46.653L406.73,46.689L407.87,46.769L409.02,46.898L410.16,46.597L411.3,46.729L412.45,46.725L413.59,46.489L414.73,46.477L415.88,46.557L417.02,46.457L418.16,46.485L419.31,46.645L420.45,46.381L421.59,46.477L422.74,46.297L423.88,46.269L425.02,46.277L426.17,46.309L427.31,46.457L428.45,46.313L429.6,46.257L430.74,46.109L431.88,46.153L433.03,46.141L434.17,46.121L435.31,46.253L436.46,46.008L437.6,46.121L438.74,46.185L439.89,45.904L441.03,46.044L442.17,45.956L443.32,45.96L444.46,45.96L445.6,45.82L446.75,45.968L447.89,45.92L449.03,45.904L450.18,45.912L451.32,45.848L452.46,45.844L453.61,45.784L454.75,45.856L455.89,45.768L457.04,45.824L458.18,45.808L459.32,45.748L460.47,45.776L461.61,45.668L462.75,45.732L463.9,45.684L465.04,45.656L466.18,45.7L467.33,45.676L468.47,45.596L469.61,45.684L470.76,45.612L471.9,45.556L473.04,45.568L474.19,45.6L475.33,45.568L476.47,45.6L477.62,45.612L478.76,45.544L479.9,45.588L481.05,45.508L482.19,45.516L483.33,45.512L484.48,45.5L485.62,45.472L486.76,45.472L487.91,45.484L489.05,45.52L490.19,45.456L491.34,45.384L492.48,45.444L493.62,45.392L494.77,45.44L495.91,45.42L497.05,45.456L498.2,45.324L499.34,45.472L500.48,45.384L501.63,45.424L502.77,45.42L503.91,45.348L505.06,45.424L506.2,45.384L507.34,45.384L508.49,45.392L509.63,45.332L510.77,45.336L511.92,45.344L513.06,45.292L514.2,45.312L515.35,45.332L516.49,45.32L517.63,45.288L518.78,45.296L519.92,45.292L521.06,45.34L522.21,45.3L523.35,45.292L524.49,45.268L525.64,45.276L526.78,45.268L527.92,45.28L529.07,45.264L530.21,45.308L531.35,45.223L532.5,45.255L533.64,45.28L534.78,45.247L535.93,45.264L537.07,45.247L538.21,45.251L539.36,45.235L540.5,45.231L541.64,45.243L542.79,45.227L543.93,45.28L545.07,45.247L546.22,45.227L547.36,45.219L548.5,45.215L549.65,45.227L550.79,45.211L551.93,45.207L553.08,45.211L554.22,45.203L555.36,45.187L556.51,45.215L557.65,45.211L558.79,45.211L559.94,45.231L561.08,45.219L562.22,45.207L563.37,45.191L564.51,45.223L565.65,45.199L566.8,45.207L567.94,45.207L569.08,45.175L570.23,45.195L571.37,45.203L572.51,45.187L573.66,45.175L574.8,45.171L575.94,45.179L577.09,45.191L578.23,45.167L579.37,45.183L580.52,45.199L581.66,45.171L582.8,45.171L583.94,45.183L585.09,45.179L586.23,45.199L587.37,45.179L588.52,45.155L589.66,45.159L590.8,45.155L591.95,45.179L593.09,45.171L594.23,45.179L596.52,45.171L597.66,45.167L598.81,45.159L602.24,45.159L603.38,45.167L604.52,45.171L605.67,45.175L606.81,45.159L607.95,45.163L609.1,45.155L610.24,45.163L611.38,45.163L612.53,45.155L613.67,45.167L614.81,45.159L615.96,45.155L617.1,45.159L618.24,45.151L619.39,45.159L621.67,45.159L622.82,45.151L623.96,45.155L625.1,45.155L626.25,45.167L627.39,45.159L628.53,45.163L629.68,45.155L630.82,45.151L631.96,45.151L633.11,45.155L634.25,45.155L635.39,45.167L637.68,45.155L638.82,45.159L639.97,45.151L641.11,45.151L642.25,45.159L644.54,45.151L645.68,45.159L647.97,45.151L650.26,45.151L651.4,45.151L652.54,45.155L655.97,45.155L659.4,45.151L674.27,45.155L686.84,45.159L695.99,45.151L697.13,45.155L698.28,45.151L701.71,45.151L709.71,45.151L720,45.151" style="fill:none;stroke:#0000FF" />
</g>
</svg>
