<?xml version="1.0"?>
<!-- Generated by SVGo and Plotinum VG -->
<svg width="720pt" height="432pt" viewBox="0 0 720 432"
	xmlns="http://www.w3.org/2000/svg"
	xmlns:xlink="http://www.w3.org/1999/xlink">
<g transform="scale(1, -1) translate(0, -432)">
<path d="M0,0L720,0L720,432L0,432Z" style="fill:#FFFFFF" />
<text x="358.5" y="-420.45" transform="scale(1, -1)"
	style="font-family:Times;font-weight:normal;font-style:normal;font-size:12px"> </text>
<text x="385.56" y="-3.8613" transform="scale(1, -1)"
	style="font-family:Times;font-weight:normal;font-style:normal;font-size:12px">Costs</text>
<text x="69.055" y="-18.634" transform="scale(1, -1)"
	style="font-family:Times;font-weight:normal;font-style:normal;font-size:10px">0.00</text>
<text x="352.29" y="-18.634" transform="scale(1, -1)"
	style="font-family:Times;font-weight:normal;font-style:normal;font-size:10px">250.00</text>
<text x="640.53" y="-18.634" transform="scale(1, -1)"
	style="font-family:Times;font-weight:normal;font-style:normal;font-size:10px">500.00</text>
<path d="M77.805,28.263L77.805,36.263" style="fill:none;stroke:#000000;stroke-width:0.5" />
<path d="M366.04,28.263L366.04,36.263" style="fill:none;stroke:#000000;stroke-width:0.5" />
<path d="M654.28,28.263L654.28,36.263" style="fill:none;stroke:#000000;stroke-width:0.5" />
<path d="M135.45,32.263L135.45,36.263" style="fill:none;stroke:#000000;stroke-width:0.5" />
<path d="M193.1,32.263L193.1,36.263" style="fill:none;stroke:#000000;stroke-width:0.5" />
<path d="M250.75,32.263L250.75,36.263" style="fill:none;stroke:#000000;stroke-width:0.5" />
<path d="M308.4,32.263L308.4,36.263" style="fill:none;stroke:#000000;stroke-width:0.5" />
<path d="M423.69,32.263L423.69,36.263" style="fill:none;stroke:#000000;stroke-width:0.5" />
<path d="M481.34,32.263L481.34,36.263" style="fill:none;stroke:#000000;stroke-width:0.5" />
<path d="M538.99,32.263L538.99,36.263" style="fill:none;stroke:#000000;stroke-width:0.5" />
<path d="M596.63,32.263L596.63,36.263" style="fill:none;stroke:#000000;stroke-width:0.5" />
<path d="M711.93,32.263L711.93,36.263" style="fill:none;stroke:#000000;stroke-width:0.5" />
<path d="M77.805,36.263L720,36.263" style="fill:none;stroke:#000000;stroke-width:0.5" />
<g transform="rotate(90)">
<text x="152.55" y="11.555" transform="scale(1, -1)"
	style="font-family:Times;font-weight:normal;font-style:normal;font-size:12px">Number of trials (1000000 total)</text>
</g>
<text x="24.055" y="-111.05" transform="scale(1, -1)"
	style="font-family:Times;font-weight:normal;font-style:normal;font-size:10px">25000.00</text>
<text x="24.055" y="-249.26" transform="scale(1, -1)"
	style="font-family:Times;font-weight:normal;font-style:normal;font-size:10px">75000.00</text>
<text x="19.055" y="-387.47" transform="scale(1, -1)"
	style="font-family:Times;font-weight:normal;font-style:normal;font-size:10px">125000.00</text>
<path d="M64.055,114.25L72.055,114.25" style="fill:none;stroke:#000000;stroke-width:0.5" />
<path d="M64.055,252.47L72.055,252.47" style="fill:none;stroke:#000000;stroke-width:0.5" />
<path d="M64.055,390.68L72.055,390.68" style="fill:none;stroke:#000000;stroke-width:0.5" />
<path d="M68.055,58.97L72.055,58.97" style="fill:none;stroke:#000000;stroke-width:0.5" />
<path d="M68.055,86.612L72.055,86.612" style="fill:none;stroke:#000000;stroke-width:0.5" />
<path d="M68.055,141.9L72.055,141.9" style="fill:none;stroke:#000000;stroke-width:0.5" />
<path d="M68.055,169.54L72.055,169.54" style="fill:none;stroke:#000000;stroke-width:0.5" />
<path d="M68.055,197.18L72.055,197.18" style="fill:none;stroke:#000000;stroke-width:0.5" />
<path d="M68.055,224.83L72.055,224.83" style="fill:none;stroke:#000000;stroke-width:0.5" />
<path d="M68.055,280.11L72.055,280.11" style="fill:none;stroke:#000000;stroke-width:0.5" />
<path d="M68.055,307.75L72.055,307.75" style="fill:none;stroke:#000000;stroke-width:0.5" />
<path d="M68.055,335.4L72.055,335.4" style="fill:none;stroke:#000000;stroke-width:0.5" />
<path d="M68.055,363.04L72.055,363.04" style="fill:none;stroke:#000000;stroke-width:0.5" />
<path d="M72.055,45.151L72.055,416.58" style="fill:none;stroke:#000000;stroke-width:0.5" />
<path d="M77.805,416.58L103.17,52.029L104.32,48.551L107.78,48.728L108.93,73.952L110.09,69.726L111.24,66.652L113.55,65.728L114.7,65.994L115.85,48.623L117.01,73.43L118.16,69.715L120.46,88.616L121.62,69.679L122.77,87.077L123.92,52.09L125.08,59.083L126.23,62.375L127.38,84.716L128.53,95.226L129.69,55.89L130.84,74.287L133.15,48.811L134.3,49.201L135.45,63.299L136.61,59.89L137.76,45.312L138.91,70.48L140.06,56.725L141.22,54.425L142.37,77.703L143.52,54.398L144.68,64.706L145.83,63.531L146.98,49.121L148.13,57.143L149.29,56.805L150.44,82.231L151.59,50.735L152.75,52.977L153.9,56.684L155.05,78.485L156.21,53.792L157.36,54.141L158.51,55.036L159.66,58.768L160.82,58.599L161.97,91.928L163.12,66.624L164.28,57.267L165.43,57.148L166.58,57.411L167.74,60.117L168.89,55.832L170.04,69.491L171.19,87.328L172.35,60.175L173.5,61.914L174.65,57.654L175.81,61.38L176.96,55.597L178.11,61.002L179.26,59.984L180.42,57.823L181.57,62.638L182.72,57.104L183.88,57.046L185.03,57.828L186.18,60.822L187.34,61.303L188.49,58.826L189.64,59.362L190.79,58.091L191.95,58.378L193.1,62.917L194.25,61.405L195.41,62.934L196.56,55.188L197.71,59.285L198.86,58.481L200.02,60.123L201.17,60.322L202.32,59.061L203.48,60.153L204.63,60.222L205.78,60.338L206.94,60.393L208.09,58.956L209.24,56.247L210.39,57.784L211.55,59.971L212.7,61.803L213.85,59.968L215.01,59.791L216.16,58.561L217.31,55.705L218.47,55.866L219.62,57.795L220.77,59.514L221.92,58.113L223.08,57.925L224.23,56.208L225.38,54.373L226.54,56.405L227.69,56.833L228.84,56.203L229.99,55.617L231.15,54.558L232.3,56.206L233.45,54.55L234.61,57.955L235.76,56.277L236.91,55.271L238.07,55.78L239.22,56.535L240.37,54.439L241.52,53.668L242.68,55.34L243.83,56.051L244.98,53.895L246.14,54.041L247.29,55.208L248.44,55.202L249.59,53.206L250.75,53.593L251.9,53.455L253.05,53.549L254.21,54.483L255.36,56.291L256.51,54.16L257.67,53.248L258.82,53.154L259.97,53.345L261.12,53.043L262.28,52.905L263.43,53.616L264.58,52.842L265.74,52.933L266.89,52.781L268.04,52.029L269.2,52.04L270.35,52.361L271.5,52.502L272.65,52.192L273.81,51.896L274.96,51.924L276.11,51.592L277.27,51.965L278.42,51.725L279.57,51.725L280.72,51.385L281.88,51.155L283.03,51.056L284.18,50.945L285.34,51.144L286.49,51.238L287.64,50.73L288.8,50.837L289.95,50.589L291.1,50.409L292.25,50.249L293.41,50.257L294.56,50.086L295.71,50.196L296.87,50.069L298.02,50.03L299.17,49.986L300.32,49.972L301.48,49.641L302.63,49.58L303.78,49.538L304.94,49.643L306.09,49.942L307.24,49.32L308.4,49.312L309.55,49.077L310.7,48.969L311.85,49.06L313.01,49.085L314.16,48.574L315.31,48.878L316.47,48.836L317.62,48.723L318.77,48.43L319.93,48.665L321.08,48.416L322.23,48.499L323.38,48.341L324.54,48.386L325.69,48.314L326.84,48.272L328,48.278L329.15,48.148L330.3,47.905L331.45,48.106L332.61,47.96L333.76,47.686L334.91,47.717L336.07,47.617L337.22,47.844L338.37,47.565L339.53,47.598L340.68,47.606L341.83,47.49L342.98,47.429L344.14,47.567L345.29,47.41L346.44,47.142L347.6,47.426L348.75,47.164L349.9,47.178L351.05,47.164L352.21,47.147L353.36,47.006L354.51,46.97L355.67,47.092L356.82,46.907L357.97,46.904L359.13,46.815L360.28,46.802L361.43,46.716L362.58,46.716L363.74,46.71L364.89,46.63L366.04,46.6L367.2,46.6L368.35,46.531L369.5,46.484L370.65,46.462L371.81,46.365L372.96,46.445L374.11,46.373L375.27,46.442L376.42,46.401L377.57,46.323L378.73,46.323L379.88,46.365L381.03,46.155L382.18,46.232L383.34,46.265L384.49,46.146L385.64,46.055L386.8,46.113L387.95,46.066L389.1,46.003L390.26,45.961L391.41,46.022L392.56,46.03L393.71,46.017L394.87,45.878L396.02,46.028L397.17,45.989L398.33,45.923L399.48,45.845L400.63,46.011L401.78,45.912L402.94,45.79L404.09,45.768L405.24,45.732L406.4,45.798L407.55,45.842L408.7,45.688L409.86,45.707L411.01,45.707L412.16,45.74L413.31,45.652L414.47,45.724L415.62,45.707L416.77,45.682L417.93,45.668L419.08,45.574L420.23,45.649L421.38,45.66L422.54,45.646L423.69,45.574L424.84,45.552L426,45.607L427.15,45.583L428.3,45.566L429.46,45.583L430.61,45.525L431.76,45.508L432.91,45.486L434.07,45.505L435.22,45.439L436.37,45.475L437.53,45.505L438.68,45.483L439.83,45.431L440.99,45.433L442.14,45.419L443.29,45.461L444.44,45.444L445.6,45.375L446.75,45.406L447.9,45.428L449.06,45.397L450.21,45.411L451.36,45.375L452.51,45.345L453.67,45.331L454.82,45.4L455.97,45.328L457.13,45.326L458.28,45.334L459.43,45.334L460.59,45.32L461.74,45.326L462.89,45.284L464.04,45.323L465.2,45.295L466.35,45.303L467.5,45.339L468.66,45.281L469.81,45.306L470.96,45.27L472.11,45.24L473.27,45.323L474.42,45.32L475.57,45.259L476.73,45.281L477.88,45.243L479.03,45.29L480.19,45.267L481.34,45.254L482.49,45.243L483.64,45.259L484.8,45.24L485.95,45.248L487.1,45.265L488.26,45.229L489.41,45.254L490.56,45.237L491.72,45.245L492.87,45.215L494.02,45.215L495.17,45.251L496.33,45.24L497.48,45.234L498.63,45.204L499.79,45.215L500.94,45.196L502.09,45.212L503.24,45.19L504.4,45.207L505.55,45.204L506.7,45.223L507.86,45.196L509.01,45.196L510.16,45.201L511.32,45.187L512.47,45.201L513.62,45.204L514.77,45.185L515.93,45.179L517.08,45.171L518.23,45.187L519.39,45.193L520.54,45.212L521.69,45.185L522.84,45.182L524,45.198L525.15,45.185L526.3,45.173L527.46,45.182L528.61,45.187L529.76,45.168L530.92,45.171L532.07,45.187L533.22,45.185L534.37,45.182L535.53,45.179L536.68,45.16L537.83,45.168L538.99,45.168L540.14,45.171L541.29,45.168L542.45,45.165L543.6,45.171L544.75,45.157L545.9,45.179L547.06,45.165L548.21,45.165L549.36,45.179L550.52,45.171L551.67,45.168L552.82,45.162L553.97,45.162L555.13,45.16L556.28,45.162L557.43,45.162L558.59,45.168L559.74,45.162L560.89,45.168L562.05,45.16L563.2,45.16L564.35,45.162L565.5,45.16L566.66,45.168L567.81,45.165L568.96,45.154L570.12,45.157L571.27,45.157L572.42,45.157L573.57,45.157L574.73,45.154L575.88,45.157L577.03,45.16L578.19,45.165L579.34,45.16L580.49,45.157L581.65,45.154L582.8,45.157L583.95,45.154L585.1,45.154L586.26,45.157L588.56,45.151L589.72,45.157L590.87,45.154L592.02,45.151L593.18,45.151L594.33,45.154L595.48,45.151L596.63,45.151L598.94,45.151L600.09,45.157L601.25,45.151L603.55,45.162L604.7,45.154L607.01,45.157L608.16,45.154L612.78,45.16L615.08,45.157L616.23,45.157L617.39,45.151L618.54,45.154L619.69,45.151L620.85,45.154L623.15,45.151L624.3,45.157L626.61,45.151L628.92,45.151L635.83,45.151L638.14,45.151L639.29,45.151L646.21,45.151L656.59,45.151L662.35,45.154L672.73,45.151L683.11,45.151L688.87,45.151L715.39,45.151L720,45.151" style="fill:none;stroke:#0000FF" />
</g>
</svg>
