<?xml version="1.0"?>
<!-- Generated by SVGo and Plotinum VG -->
<svg width="720pt" height="432pt" viewBox="0 0 720 432"
	xmlns="http://www.w3.org/2000/svg"
	xmlns:xlink="http://www.w3.org/1999/xlink">
<g transform="scale(1, -1) translate(0, -432)">
<path d="M0,0L720,0L720,432L0,432Z" style="fill:#FFFFFF" />
<text x="358.5" y="-420.45" transform="scale(1, -1)"
	style="font-family:Times;font-weight:normal;font-style:normal;font-size:12px"> </text>
<text x="379.31" y="-3.8613" transform="scale(1, -1)"
	style="font-family:Times;font-weight:normal;font-style:normal;font-size:12px">Costs</text>
<text x="62.805" y="-18.634" transform="scale(1, -1)"
	style="font-family:Times;font-weight:normal;font-style:normal;font-size:10px">0</text>
<text x="330.59" y="-18.634" transform="scale(1, -1)"
	style="font-family:Times;font-weight:normal;font-style:normal;font-size:10px">200</text>
<text x="603.38" y="-18.634" transform="scale(1, -1)"
	style="font-family:Times;font-weight:normal;font-style:normal;font-size:10px">400</text>
<path d="M65.305,28.263L65.305,36.263" style="fill:none;stroke:#000000;stroke-width:0.5" />
<path d="M338.09,28.263L338.09,36.263" style="fill:none;stroke:#000000;stroke-width:0.5" />
<path d="M610.88,28.263L610.88,36.263" style="fill:none;stroke:#000000;stroke-width:0.5" />
<path d="M201.7,32.263L201.7,36.263" style="fill:none;stroke:#000000;stroke-width:0.5" />
<path d="M474.49,32.263L474.49,36.263" style="fill:none;stroke:#000000;stroke-width:0.5" />
<path d="M65.305,36.263L720,36.263" style="fill:none;stroke:#000000;stroke-width:0.5" />
<g transform="rotate(90)">
<text x="152.55" y="11.555" transform="scale(1, -1)"
	style="font-family:Times;font-weight:normal;font-style:normal;font-size:12px">Number of trials (1000000 total)</text>
</g>
<text x="24.055" y="-111.66" transform="scale(1, -1)"
	style="font-family:Times;font-weight:normal;font-style:normal;font-size:10px">30000</text>
<text x="24.055" y="-251.1" transform="scale(1, -1)"
	style="font-family:Times;font-weight:normal;font-style:normal;font-size:10px">90000</text>
<text x="19.055" y="-390.53" transform="scale(1, -1)"
	style="font-family:Times;font-weight:normal;font-style:normal;font-size:10px">150000</text>
<path d="M51.555,114.87L59.555,114.87" style="fill:none;stroke:#000000;stroke-width:0.5" />
<path d="M51.555,254.3L59.555,254.3" style="fill:none;stroke:#000000;stroke-width:0.5" />
<path d="M51.555,393.74L59.555,393.74" style="fill:none;stroke:#000000;stroke-width:0.5" />
<path d="M55.555,184.59L59.555,184.59" style="fill:none;stroke:#000000;stroke-width:0.5" />
<path d="M55.555,324.02L59.555,324.02" style="fill:none;stroke:#000000;stroke-width:0.5" />
<path d="M59.555,45.151L59.555,416.58" style="fill:none;stroke:#000000;stroke-width:0.5" />
<path d="M65.305,416.58L95.312,56.664L100.77,66.813L102.13,66.973L106.22,48.814L107.59,74.419L108.95,60.236L110.31,88.607L111.68,62.834L113.04,67.252L114.41,59.901L115.77,48.512L118.5,60.204L119.86,52.349L121.23,79.334L122.59,99.671L123.95,52.053L125.32,74.967L126.68,71.5L128.05,69.397L130.77,61.135L132.14,53.013L133.5,82.713L134.87,48.642L136.23,45.584L137.59,79.013L138.96,75.639L140.32,61.451L141.69,61.112L143.05,77.768L144.41,59.467L145.78,59.03L147.14,55.625L148.51,62.816L149.87,66.329L151.23,52.218L152.6,50.345L153.96,49.653L155.33,51.507L156.69,52.551L158.05,54.296L159.42,51.728L160.78,50.564L162.15,57.694L163.51,54.398L164.87,71.175L166.24,69.151L167.6,58.888L168.96,57.062L170.33,59.632L171.69,53.822L173.06,56.032L174.42,55.993L175.78,75.869L177.15,53.622L178.51,59.827L179.88,59.488L181.24,58.581L182.6,61.277L183.97,60.949L185.33,60.517L186.7,59.546L188.06,59.769L189.42,57.643L190.79,59.757L192.15,55.714L193.52,58.468L194.88,61.263L196.24,58.972L197.61,56.348L198.97,58.904L200.34,60.048L201.7,57.656L203.06,56.936L204.43,55.839L205.79,59.966L207.16,58.884L208.52,56.083L209.88,56.383L211.25,60.485L212.61,56.146L213.98,54.289L215.34,55.639L216.7,54.454L218.07,56.627L219.43,54.958L220.79,56.539L222.16,58.577L223.52,56.99L224.89,55.344L226.25,54.624L227.61,54.819L228.98,53.543L230.34,53.401L231.71,54.02L233.07,56.046L234.43,53.408L235.8,53.427L237.16,54.017L238.53,55.163L239.89,53.471L241.25,54.05L242.62,54.268L243.98,55.688L245.35,53.208L246.71,52.978L248.07,54.84L249.44,54.617L250.8,53.566L252.17,53.006L253.53,53.583L254.89,52.525L256.26,52.855L257.62,52.495L258.99,52.56L260.35,52.679L261.71,52.165L263.08,52.277L264.44,51.844L265.81,52.416L267.17,51.893L268.53,52.216L269.9,51.301L271.26,51.273L272.62,51.6L273.99,51.161L275.35,51.558L276.72,51.558L278.08,51.029L279.44,51.342L280.81,51.029L282.17,50.724L283.54,50.894L284.9,50.857L286.26,50.568L287.63,50.262L288.99,50.478L290.36,50.415L291.72,50.027L293.08,50.027L294.45,50.001L295.81,50.141L297.18,49.883L298.54,49.667L299.9,49.648L301.27,49.746L302.63,49.453L304,49.513L305.36,49.525L306.72,49.474L308.09,49.248L309.45,48.909L310.82,49.158L312.18,49.051L313.54,48.905L314.91,48.584L316.27,48.809L317.64,48.712L319,48.686L320.36,48.54L321.73,48.64L323.09,48.351L324.45,48.303L325.82,48.3L327.18,48.219L328.55,48.114L329.91,48.107L331.27,48.024L332.64,48.07L334,47.915L335.37,47.815L336.73,47.78L338.09,47.856L339.46,47.645L340.82,47.55L342.19,47.626L343.55,47.573L344.91,47.454L346.28,47.38L347.64,47.431L349.01,47.371L350.37,47.155L351.73,47.192L353.1,47.259L354.46,47.034L355.83,47.217L357.19,47.045L358.55,46.885L359.92,46.932L361.28,46.871L362.65,46.925L364.01,46.911L365.37,46.681L366.74,46.808L368.1,46.708L369.47,46.792L370.83,46.648L372.19,46.678L373.56,46.625L374.92,46.546L376.28,46.548L377.65,46.513L379.01,46.448L380.38,46.39L381.74,46.404L383.1,46.383L384.47,46.304L385.83,46.462L387.2,46.304L388.56,46.255L389.92,46.22L391.29,46.174L392.65,46.12L394.02,46.195L395.38,46.141L396.74,46.155L398.11,46.051L399.47,46.062L400.84,45.939L402.2,46.079L403.56,46.014L404.93,45.932L406.29,45.99L407.66,45.993L409.02,45.874L410.38,45.893L411.75,45.953L413.11,45.928L414.48,45.793L415.84,45.828L417.2,45.832L418.57,45.742L419.93,45.8L421.3,45.756L422.66,45.718L424.02,45.774L425.39,45.707L426.75,45.653L428.12,45.691L429.48,45.711L430.84,45.598L432.21,45.651L433.57,45.642L434.93,45.632L436.3,45.6L437.66,45.565L439.03,45.57L440.39,45.574L441.75,45.586L443.12,45.528L444.48,45.563L445.85,45.551L447.21,45.486L448.57,45.507L449.94,45.512L451.3,45.435L452.67,45.453L454.03,45.391L455.39,45.472L456.76,45.393L458.12,45.416L459.49,45.409L460.85,45.435L462.21,45.419L463.58,45.386L464.94,45.395L466.31,45.398L467.67,45.402L469.03,45.363L470.4,45.386L471.76,45.33L473.13,45.381L474.49,45.335L475.85,45.323L477.22,45.342L478.58,45.321L479.95,45.33L481.31,45.302L482.67,45.3L484.04,45.3L485.4,45.314L486.76,45.284L488.13,45.286L489.49,45.298L490.86,45.256L492.22,45.323L493.58,45.282L494.95,45.277L496.31,45.237L497.68,45.284L499.04,45.279L500.4,45.242L501.77,45.251L503.13,45.23L504.5,45.233L505.86,45.237L507.22,45.249L508.59,45.219L509.95,45.223L511.32,45.221L512.68,45.23L514.04,45.23L515.41,45.209L516.77,45.226L518.14,45.214L519.5,45.193L520.86,45.23L522.23,45.214L523.59,45.196L524.96,45.214L526.32,45.228L527.68,45.2L529.05,45.214L530.41,45.189L531.78,45.2L533.14,45.175L534.5,45.216L535.87,45.193L537.23,45.198L538.59,45.189L539.96,45.189L541.32,45.172L542.69,45.186L544.05,45.182L545.41,45.193L546.78,45.184L548.14,45.179L549.51,45.179L550.87,45.191L552.23,45.193L553.6,45.184L554.96,45.184L556.33,45.172L557.69,45.175L559.05,45.177L560.42,45.165L561.78,45.175L563.15,45.17L564.51,45.177L565.87,45.163L567.24,45.17L568.6,45.175L569.97,45.163L571.33,45.175L572.69,45.17L574.06,45.172L575.42,45.161L576.79,45.168L578.15,45.156L579.51,45.163L580.88,45.168L582.24,45.168L583.61,45.163L584.97,45.156L586.33,45.163L587.7,45.161L589.06,45.156L590.42,45.168L591.79,45.161L593.15,45.165L594.52,45.158L595.88,45.151L597.24,45.151L598.61,45.168L599.97,45.158L601.34,45.156L602.7,45.156L604.06,45.154L605.43,45.154L606.79,45.161L608.16,45.158L609.52,45.161L610.88,45.151L613.61,45.156L614.98,45.154L616.34,45.154L621.8,45.154L624.52,45.154L625.89,45.156L627.25,45.151L628.62,45.154L629.98,45.151L631.34,45.151L632.71,45.151L635.44,45.154L636.8,45.151L638.16,45.156L639.53,45.156L640.89,45.154L642.25,45.151L643.62,45.154L646.35,45.151L647.71,45.154L649.07,45.154L653.17,45.158L654.53,45.154L655.89,45.154L657.26,45.154L661.35,45.154L662.71,45.154L664.08,45.154L666.81,45.151L669.53,45.151L673.63,45.151L674.99,45.151L677.72,45.151L681.81,45.151L683.17,45.151L698.18,45.151L702.27,45.151L703.63,45.151L706.36,45.151L711.82,45.151L720,45.151" style="fill:none;stroke:#0000FF" />
</g>
</svg>
