<?xml version="1.0"?>
<!-- Generated by SVGo and Plotinum VG -->
<svg width="720pt" height="432pt" viewBox="0 0 720 432"
	xmlns="http://www.w3.org/2000/svg"
	xmlns:xlink="http://www.w3.org/1999/xlink">
<g transform="scale(1, -1) translate(0, -432)">
<path d="M0,0L720,0L720,432L0,432Z" style="fill:#FFFFFF" />
<text x="358.5" y="-420.45" transform="scale(1, -1)"
	style="font-family:Times;font-weight:normal;font-style:normal;font-size:12px"> </text>
<text x="379.31" y="-3.8613" transform="scale(1, -1)"
	style="font-family:Times;font-weight:normal;font-style:normal;font-size:12px">Costs</text>
<text x="62.805" y="-18.634" transform="scale(1, -1)"
	style="font-family:Times;font-weight:normal;font-style:normal;font-size:10px">0</text>
<text x="325.03" y="-18.634" transform="scale(1, -1)"
	style="font-family:Times;font-weight:normal;font-style:normal;font-size:10px">200</text>
<text x="592.25" y="-18.634" transform="scale(1, -1)"
	style="font-family:Times;font-weight:normal;font-style:normal;font-size:10px">400</text>
<path d="M65.305,28.263L65.305,36.263" style="fill:none;stroke:#000000;stroke-width:0.5" />
<path d="M332.53,28.263L332.53,36.263" style="fill:none;stroke:#000000;stroke-width:0.5" />
<path d="M599.75,28.263L599.75,36.263" style="fill:none;stroke:#000000;stroke-width:0.5" />
<path d="M198.92,32.263L198.92,36.263" style="fill:none;stroke:#000000;stroke-width:0.5" />
<path d="M466.14,32.263L466.14,36.263" style="fill:none;stroke:#000000;stroke-width:0.5" />
<path d="M65.305,36.263L720,36.263" style="fill:none;stroke:#000000;stroke-width:0.5" />
<g transform="rotate(90)">
<text x="152.55" y="11.555" transform="scale(1, -1)"
	style="font-family:Times;font-weight:normal;font-style:normal;font-size:12px">Number of trials (1000000 total)</text>
</g>
<text x="24.055" y="-108.02" transform="scale(1, -1)"
	style="font-family:Times;font-weight:normal;font-style:normal;font-size:10px">20000</text>
<text x="24.055" y="-240.19" transform="scale(1, -1)"
	style="font-family:Times;font-weight:normal;font-style:normal;font-size:10px">60000</text>
<text x="19.055" y="-372.35" transform="scale(1, -1)"
	style="font-family:Times;font-weight:normal;font-style:normal;font-size:10px">100000</text>
<path d="M51.555,111.23L59.555,111.23" style="fill:none;stroke:#000000;stroke-width:0.5" />
<path d="M51.555,243.39L59.555,243.39" style="fill:none;stroke:#000000;stroke-width:0.5" />
<path d="M51.555,375.56L59.555,375.56" style="fill:none;stroke:#000000;stroke-width:0.5" />
<path d="M55.555,78.189L59.555,78.189" style="fill:none;stroke:#000000;stroke-width:0.5" />
<path d="M55.555,144.27L59.555,144.27" style="fill:none;stroke:#000000;stroke-width:0.5" />
<path d="M55.555,177.31L59.555,177.31" style="fill:none;stroke:#000000;stroke-width:0.5" />
<path d="M55.555,210.35L59.555,210.35" style="fill:none;stroke:#000000;stroke-width:0.5" />
<path d="M55.555,276.43L59.555,276.43" style="fill:none;stroke:#000000;stroke-width:0.5" />
<path d="M55.555,309.48L59.555,309.48" style="fill:none;stroke:#000000;stroke-width:0.5" />
<path d="M55.555,342.52L59.555,342.52" style="fill:none;stroke:#000000;stroke-width:0.5" />
<path d="M55.555,408.6L59.555,408.6" style="fill:none;stroke:#000000;stroke-width:0.5" />
<path d="M59.555,45.151L59.555,416.58" style="fill:none;stroke:#000000;stroke-width:0.5" />
<path d="M65.305,416.58L94.699,65.61L96.035,51.988L100.04,52.004L101.38,63.076L102.72,72.622L104.05,64.824L106.72,71.789L108.06,77.994L109.4,62.382L110.73,67.943L112.07,89.089L113.4,69.119L114.74,65.521L116.08,48.964L117.41,52.136L118.75,65.709L120.09,122.55L121.42,80.465L122.76,88.603L124.09,94.769L125.43,66.033L126.77,52.311L129.44,45.492L130.77,70.183L132.11,86.201L133.45,50.431L134.78,45.492L136.12,71.538L137.45,97.518L138.79,52.073L140.13,68.756L141.46,89.667L142.8,48.931L144.14,74.237L145.47,70.213L146.81,60.826L148.14,71.323L149.48,65.088L150.82,54.974L152.15,54L153.49,55.916L154.82,56.98L156.16,57.73L157.5,59.6L158.83,58.692L160.17,80.584L161.5,63.998L162.84,62.571L164.18,65.514L165.51,63.631L166.85,69.671L168.19,69.998L169.52,66.542L170.86,63.007L172.19,59.937L173.53,64.784L174.87,67.18L176.2,66.172L177.54,68.525L178.87,77.287L180.21,68.749L181.55,65.653L182.88,67.051L184.22,66.41L185.55,66.773L186.89,68.934L188.23,64.933L189.56,65.217L190.9,70.956L192.24,69.79L193.57,63.578L194.91,68.452L196.24,71.617L197.58,65.455L198.92,66.803L200.25,62.789L201.59,63.043L202.92,68.868L204.26,66.506L205.6,60.634L206.93,62.917L208.27,63.212L209.6,58.516L210.94,59.438L212.28,62.161L213.61,62.838L214.95,62.706L216.29,63.41L217.62,61.959L218.96,62.006L220.29,63.479L221.63,62.101L222.97,60.654L224.3,61.064L225.64,60.059L226.97,61.004L228.31,58.949L229.65,58.143L230.98,59.323L232.32,60.581L233.65,59.534L234.99,59.699L236.33,60.879L237.66,58.992L239,60.178L240.34,60.942L241.67,59.395L243.01,59.967L244.34,59.802L245.68,59.26L247.02,58.364L248.35,58.503L249.69,59.124L251.02,59.141L252.36,58.232L253.7,58.239L255.03,57.687L256.37,57.608L257.7,58.219L259.04,58.004L260.38,56.904L261.71,57.489L263.05,57.191L264.39,56.435L265.72,55.956L267.06,55.741L268.39,56.028L269.73,55.906L271.07,56.289L272.4,55.348L273.74,55.933L275.07,55.467L276.41,54.542L277.75,54.588L279.08,54.604L280.42,54.304L281.75,54.327L283.09,54.02L284.43,53.415L285.76,53.841L287.1,53.871L288.44,53.108L289.77,53.464L291.11,53.141L292.44,52.966L293.78,52.671L295.12,52.721L296.45,52.747L297.79,52.553L299.12,52.49L300.46,52.371L301.8,51.819L303.13,51.885L304.47,51.746L305.81,51.469L307.14,51.67L308.48,51.489L309.81,51.284L311.15,51.208L312.49,51.132L313.82,50.99L315.16,50.927L316.49,50.864L317.83,50.772L319.17,50.62L320.5,50.507L321.84,50.316L323.17,50.154L324.51,50.022L325.85,50.094L327.18,49.698L328.52,49.903L329.86,49.896L331.19,49.632L332.53,49.433L333.86,49.437L335.2,49.377L336.54,49.044L337.87,49.182L339.21,49.024L340.54,49.024L341.88,49.007L343.22,48.796L344.55,48.644L345.89,48.631L347.22,48.439L348.56,48.512L349.9,48.469L351.23,48.284L352.57,48.142L353.91,48.294L355.24,48.122L356.58,47.993L357.91,47.947L359.25,47.927L360.59,47.838L361.92,47.841L363.26,47.699L364.59,47.573L365.93,47.51L367.27,47.484L368.6,47.544L369.94,47.329L371.27,47.292L372.61,47.292L373.95,47.246L375.28,47.074L376.62,46.959L377.96,47.088L379.29,46.969L380.63,46.879L381.96,47.091L383.3,46.85L384.64,46.939L385.97,46.78L387.31,46.817L388.64,46.691L389.98,46.661L391.32,46.648L392.65,46.741L393.99,46.645L395.32,46.45L396.66,46.433L398,46.371L399.33,46.331L400.67,46.271L402.01,46.361L403.34,46.252L404.68,46.321L406.01,46.034L407.35,46.344L408.69,46.133L410.02,46.235L411.36,46.08L412.69,46.047L414.03,46.129L415.37,46.067L416.7,45.948L418.04,45.967L419.37,46.047L420.71,45.931L422.05,45.882L423.38,45.885L424.72,45.802L426.06,45.835L427.39,45.839L428.73,45.839L430.06,45.759L431.4,45.796L432.74,45.905L434.07,45.716L435.41,45.802L436.74,45.766L438.08,45.683L439.42,45.66L440.75,45.578L442.09,45.687L443.42,45.634L444.76,45.551L446.1,45.644L447.43,45.614L448.77,45.551L450.11,45.541L451.44,45.541L452.78,45.551L454.11,45.515L455.45,45.518L456.79,45.475L458.12,45.495L459.46,45.452L460.79,45.452L462.13,45.416L463.47,45.445L464.8,45.465L466.14,45.416L467.47,45.389L468.81,45.379L470.15,45.346L471.48,45.35L472.82,45.369L474.16,45.386L475.49,45.356L476.83,45.356L478.16,45.386L479.5,45.34L480.84,45.323L482.17,45.336L483.51,45.346L484.84,45.34L486.18,45.346L487.52,45.32L488.85,45.28L490.19,45.35L491.52,45.333L492.86,45.293L494.2,45.303L495.53,45.264L496.87,45.297L498.21,45.313L499.54,45.254L500.88,45.234L502.21,45.25L503.55,45.303L504.89,45.25L506.22,45.25L507.56,45.234L508.89,45.26L510.23,45.247L511.57,45.247L512.9,45.221L514.24,45.214L515.57,45.244L516.91,45.237L518.25,45.204L519.58,45.217L520.92,45.227L522.26,45.224L523.59,45.208L524.93,45.231L526.26,45.221L527.6,45.208L528.94,45.217L530.27,45.184L531.61,45.204L532.94,45.208L534.28,45.198L535.62,45.191L536.95,45.174L538.29,45.174L539.62,45.208L540.96,45.191L542.3,45.178L543.63,45.178L544.97,45.188L546.31,45.191L547.64,45.178L548.98,45.181L550.31,45.178L551.65,45.184L552.99,45.178L554.32,45.174L555.66,45.191L556.99,45.168L558.33,45.168L559.67,45.161L561,45.181L562.34,45.158L563.67,45.161L565.01,45.171L566.35,45.161L567.68,45.174L569.02,45.178L570.36,45.168L571.69,45.151L573.03,45.155L574.36,45.165L575.7,45.151L577.04,45.161L578.37,45.158L579.71,45.168L581.04,45.158L582.38,45.158L583.72,45.165L585.05,45.158L586.39,45.151L587.72,45.161L589.06,45.155L590.4,45.158L591.73,45.165L593.07,45.161L594.41,45.151L595.74,45.161L597.08,45.158L598.41,45.155L599.75,45.158L601.09,45.155L602.42,45.151L605.09,45.151L607.77,45.155L609.1,45.151L610.44,45.151L611.77,45.161L613.11,45.151L614.45,45.155L618.46,45.151L619.79,45.151L621.13,45.151L622.46,45.151L625.14,45.151L626.47,45.155L627.81,45.151L633.15,45.155L634.49,45.151L635.82,45.155L638.5,45.151L641.17,45.151L647.85,45.151L651.86,45.151L653.19,45.151L655.87,45.155L661.21,45.151L669.23,45.151L671.9,45.151L675.91,45.151L681.25,45.158L685.26,45.151L720,45.151" style="fill:none;stroke:#0000FF" />
</g>
</svg>
