<?xml version="1.0"?>
<!-- Generated by SVGo and Plotinum VG -->
<svg width="720pt" height="432pt" viewBox="0 0 720 432"
	xmlns="http://www.w3.org/2000/svg"
	xmlns:xlink="http://www.w3.org/1999/xlink">
<g transform="scale(1, -1) translate(0, -432)">
<path d="M0,0L720,0L720,432L0,432Z" style="fill:#FFFFFF" />
<text x="358.5" y="-420.45" transform="scale(1, -1)"
	style="font-family:Times;font-weight:normal;font-style:normal;font-size:12px"> </text>
<text x="385.56" y="-3.8613" transform="scale(1, -1)"
	style="font-family:Times;font-weight:normal;font-style:normal;font-size:12px">Costs</text>
<text x="69.055" y="-18.634" transform="scale(1, -1)"
	style="font-family:Times;font-weight:normal;font-style:normal;font-size:10px">0.00</text>
<text x="360.82" y="-18.634" transform="scale(1, -1)"
	style="font-family:Times;font-weight:normal;font-style:normal;font-size:10px">250.00</text>
<text x="657.58" y="-18.634" transform="scale(1, -1)"
	style="font-family:Times;font-weight:normal;font-style:normal;font-size:10px">500.00</text>
<path d="M77.805,28.263L77.805,36.263" style="fill:none;stroke:#000000;stroke-width:0.5" />
<path d="M374.57,28.263L374.57,36.263" style="fill:none;stroke:#000000;stroke-width:0.5" />
<path d="M671.33,28.263L671.33,36.263" style="fill:none;stroke:#000000;stroke-width:0.5" />
<path d="M137.16,32.263L137.16,36.263" style="fill:none;stroke:#000000;stroke-width:0.5" />
<path d="M196.51,32.263L196.51,36.263" style="fill:none;stroke:#000000;stroke-width:0.5" />
<path d="M255.86,32.263L255.86,36.263" style="fill:none;stroke:#000000;stroke-width:0.5" />
<path d="M315.22,32.263L315.22,36.263" style="fill:none;stroke:#000000;stroke-width:0.5" />
<path d="M433.92,32.263L433.92,36.263" style="fill:none;stroke:#000000;stroke-width:0.5" />
<path d="M493.27,32.263L493.27,36.263" style="fill:none;stroke:#000000;stroke-width:0.5" />
<path d="M552.63,32.263L552.63,36.263" style="fill:none;stroke:#000000;stroke-width:0.5" />
<path d="M611.98,32.263L611.98,36.263" style="fill:none;stroke:#000000;stroke-width:0.5" />
<path d="M77.805,36.263L720,36.263" style="fill:none;stroke:#000000;stroke-width:0.5" />
<g transform="rotate(90)">
<text x="150.43" y="11.555" transform="scale(1, -1)"
	style="font-family:Times;font-weight:normal;font-style:normal;font-size:12px">Number of trials (1000000 total)</text>
</g>
<text x="24.055" y="-94.088" transform="scale(1, -1)"
	style="font-family:Times;font-weight:normal;font-style:normal;font-size:10px">25000.00</text>
<text x="19.055" y="-250.52" transform="scale(1, -1)"
	style="font-family:Times;font-weight:normal;font-style:normal;font-size:10px">100000.00</text>
<text x="19.055" y="-406.96" transform="scale(1, -1)"
	style="font-family:Times;font-weight:normal;font-style:normal;font-size:10px">175000.00</text>
<path d="M64.055,97.294L72.055,97.294" style="fill:none;stroke:#000000;stroke-width:0.5" />
<path d="M64.055,253.73L72.055,253.73" style="fill:none;stroke:#000000;stroke-width:0.5" />
<path d="M64.055,410.16L72.055,410.16" style="fill:none;stroke:#000000;stroke-width:0.5" />
<path d="M68.055,175.51L72.055,175.51" style="fill:none;stroke:#000000;stroke-width:0.5" />
<path d="M68.055,331.94L72.055,331.94" style="fill:none;stroke:#000000;stroke-width:0.5" />
<path d="M72.055,45.151L72.055,412.33" style="fill:none;stroke:#000000;stroke-width:0.5" />
<path d="M77.805,412.33L105.11,48.576L106.29,52.253L108.67,51.932L109.86,81.826L111.04,52.118L112.23,60.426L113.42,58.97L114.6,59.349L115.79,52.101L116.98,95.381L118.16,66.848L120.54,52.212L121.73,55.146L124.1,60.019L125.29,59.195L126.47,83.252L127.66,77.681L128.85,73.405L130.03,58.872L131.22,48.422L132.41,59.245L133.6,45.201L134.78,48.687L135.97,65.592L137.16,86.195L138.34,64.13L139.53,45.372L140.72,85.812L141.91,63.498L143.09,46.557L144.28,62.146L145.47,65.442L146.65,53.932L147.84,51.146L149.03,58.329L150.21,63.145L151.4,48.247L152.59,53.006L153.78,49.486L154.96,48.685L156.15,50.9L157.34,62.549L158.52,51.411L159.71,51.953L160.9,53.626L162.09,54.371L163.27,52.429L164.46,57.418L165.65,65.2L166.83,54.946L168.02,55.632L169.21,55.607L170.39,52.212L171.58,52.833L172.77,100.7L173.96,75.524L175.14,55.897L176.33,61.481L177.52,59.126L178.7,54.713L179.89,56.631L181.08,57.19L182.27,52.646L183.45,53.33L184.64,56.504L185.83,56.565L187.01,56.175L188.2,56.068L189.39,58.333L190.57,54.629L191.76,54.806L192.95,53.484L194.14,52.727L195.32,54.854L196.51,55.505L197.7,53.578L198.88,53.538L200.07,56.004L201.26,55.282L202.45,51.094L203.63,54.116L204.82,60.215L206.01,54.786L207.19,53.757L208.38,56.367L209.57,54.95L210.75,52.118L211.94,58.283L213.13,57.912L214.32,52.301L215.5,52.322L216.69,54.122L217.88,51.563L219.06,51.482L220.25,53.653L221.44,55.787L222.63,55.927L223.81,56.323L225,55.376L226.19,51.717L227.37,52.36L228.56,52.312L229.75,50.902L230.93,52.704L232.12,56.882L233.31,54.809L234.5,51.152L235.68,55.171L236.87,54.865L238.06,51.113L239.24,52.101L240.43,53.63L241.62,51.77L242.8,50.435L243.99,51.826L245.18,52.731L246.37,50.722L247.55,50.541L248.74,50.631L249.93,49.903L251.11,50.001L252.3,51.548L253.49,50.66L254.68,49.97L255.86,50.36L257.05,50.291L258.24,49.792L259.42,50.533L260.61,51.402L261.8,50.508L262.98,50.095L264.17,50.339L265.36,49.565L266.55,49.221L267.73,49.934L268.92,52.028L270.11,49.298L271.29,50.22L272.48,50.385L273.67,49.54L274.86,49.471L276.04,49.686L277.23,49.064L278.42,48.701L279.6,49.348L280.79,49.2L281.98,49.002L283.16,49.106L284.35,49.557L285.54,48.891L286.73,48.676L287.91,48.616L289.1,48.409L290.29,48.455L291.47,48.906L292.66,48.532L293.85,48.28L295.04,48.382L296.22,48.522L297.41,47.965L298.6,47.877L299.78,48.257L300.97,48.101L302.16,47.736L303.34,48.053L304.53,47.88L305.72,47.515L306.91,47.512L308.09,48.042L309.28,47.608L310.47,47.481L311.65,47.656L312.84,47.412L314.03,47.004L315.22,47.318L316.4,47.258L317.59,47.312L318.78,47.383L319.96,47.506L321.15,47.216L322.34,46.987L323.52,47.191L324.71,46.943L325.9,46.972L327.09,46.941L328.27,47.026L329.46,46.889L330.65,46.745L331.83,47.07L333.02,46.837L334.21,46.734L335.4,46.826L336.58,46.687L337.77,46.472L338.96,46.641L340.14,46.697L341.33,46.578L342.52,46.522L343.7,46.515L344.89,46.417L346.08,46.278L347.27,46.434L348.45,46.359L349.64,46.361L350.83,46.401L352.01,46.353L353.2,46.271L354.39,46.207L355.57,46.276L356.76,46.186L357.95,46.05L359.14,46.23L360.32,46.142L361.51,46.057L362.7,46.123L363.88,45.996L365.07,45.977L366.26,46.013L367.45,45.982L368.63,45.959L369.82,45.806L371.01,45.858L372.19,45.917L373.38,45.848L374.57,45.792L375.75,45.909L376.94,45.75L378.13,45.806L379.32,45.823L380.5,45.8L381.69,45.729L382.88,45.746L384.06,45.754L385.25,45.696L386.44,45.687L387.63,45.721L388.81,45.689L390,45.631L391.19,45.669L392.37,45.627L393.56,45.575L394.75,45.61L395.93,45.575L397.12,45.6L398.31,45.541L399.5,45.569L400.68,45.579L401.87,45.525L403.06,45.512L404.24,45.537L405.43,45.523L406.62,45.51L407.81,45.448L408.99,45.46L410.18,45.46L411.37,45.466L412.55,45.473L413.74,45.423L414.93,45.429L416.11,45.41L417.3,45.414L418.49,45.408L419.68,45.393L420.86,45.416L422.05,45.389L423.24,45.397L424.42,45.408L425.61,45.381L426.8,45.356L427.99,45.343L429.17,45.358L430.36,45.339L431.55,45.341L432.73,45.327L433.92,45.352L435.11,45.318L436.29,45.324L437.48,45.314L438.67,45.285L439.86,45.297L441.04,45.31L442.23,45.304L443.42,45.297L444.6,45.285L445.79,45.27L446.98,45.27L448.17,45.262L449.35,45.272L450.54,45.299L451.73,45.262L452.91,45.235L454.1,45.272L455.29,45.256L456.47,45.249L457.66,45.222L458.85,45.26L460.04,45.235L461.22,45.258L462.41,45.229L463.6,45.214L464.78,45.245L465.97,45.233L467.16,45.224L468.34,45.214L469.53,45.241L470.72,45.214L471.91,45.222L473.09,45.216L474.28,45.183L475.47,45.199L476.65,45.222L477.84,45.189L479.03,45.222L480.22,45.208L481.4,45.193L482.59,45.189L483.78,45.201L484.96,45.191L486.15,45.208L487.34,45.187L488.52,45.195L489.71,45.187L490.9,45.185L492.09,45.183L493.27,45.176L494.46,45.195L495.65,45.185L496.83,45.183L498.02,45.178L499.21,45.178L500.4,45.185L501.58,45.185L502.77,45.174L503.96,45.17L505.14,45.199L506.33,45.176L507.52,45.197L508.7,45.189L509.89,45.17L511.08,45.172L512.27,45.17L513.45,45.166L514.64,45.168L515.83,45.17L517.01,45.174L518.2,45.181L519.39,45.164L520.58,45.168L521.76,45.172L522.95,45.162L524.14,45.16L525.32,45.162L526.51,45.164L527.7,45.166L528.88,45.162L530.07,45.164L531.26,45.166L532.45,45.174L533.63,45.162L534.82,45.162L536.01,45.166L537.19,45.16L538.38,45.16L539.57,45.158L540.76,45.153L541.94,45.16L543.13,45.166L544.32,45.156L545.5,45.166L546.69,45.162L547.88,45.151L549.06,45.156L550.25,45.168L551.44,45.151L552.63,45.158L553.81,45.153L555,45.158L556.19,45.16L557.37,45.151L558.56,45.158L559.75,45.153L560.93,45.16L562.12,45.153L563.31,45.151L564.5,45.151L565.68,45.151L566.87,45.156L568.06,45.158L569.24,45.156L570.43,45.158L571.62,45.151L572.81,45.153L575.18,45.156L576.37,45.158L577.55,45.151L578.74,45.153L579.93,45.151L581.11,45.153L582.3,45.153L583.49,45.153L590.61,45.151L592.99,45.153L594.17,45.151L597.73,45.151L598.92,45.156L601.29,45.153L602.48,45.151L604.86,45.151L606.04,45.153L607.23,45.151L608.42,45.153L620.29,45.151L623.85,45.153L625.04,45.151L626.22,45.151L628.6,45.151L635.72,45.151L645.22,45.151L646.4,45.151L647.59,45.151L652.34,45.151L654.71,45.151L655.9,45.151L668.96,45.151L673.7,45.151L690.32,45.151L717.63,45.151L720,45.151" style="fill:none;stroke:#0000FF" />
</g>
</svg>
