<?xml version="1.0"?>
<!-- Generated by SVGo and Plotinum VG -->
<svg width="720pt" height="432pt" viewBox="0 0 720 432"
	xmlns="http://www.w3.org/2000/svg"
	xmlns:xlink="http://www.w3.org/1999/xlink">
<g transform="scale(1, -1) translate(0, -432)">
<path d="M0,0L720,0L720,432L0,432Z" style="fill:#FFFFFF" />
<text x="358.5" y="-420.45" transform="scale(1, -1)"
	style="font-family:Times;font-weight:normal;font-style:normal;font-size:12px"> </text>
<text x="375" y="-3.8613" transform="scale(1, -1)"
	style="font-family:Times;font-weight:normal;font-style:normal;font-size:12px">Costs</text>
<text x="56.555" y="-18.634" transform="scale(1, -1)"
	style="font-family:Times;font-weight:normal;font-style:normal;font-size:10px">0.00</text>
<text x="372.03" y="-18.634" transform="scale(1, -1)"
	style="font-family:Times;font-weight:normal;font-style:normal;font-size:10px">250.00</text>
<text x="692.5" y="-18.634" transform="scale(1, -1)"
	style="font-family:Times;font-weight:normal;font-style:normal;font-size:10px">500.00</text>
<path d="M65.305,28.263L65.305,36.263" style="fill:none;stroke:#000000;stroke-width:0.5" />
<path d="M385.78,28.263L385.78,36.263" style="fill:none;stroke:#000000;stroke-width:0.5" />
<path d="M706.25,28.263L706.25,36.263" style="fill:none;stroke:#000000;stroke-width:0.5" />
<path d="M129.4,32.263L129.4,36.263" style="fill:none;stroke:#000000;stroke-width:0.5" />
<path d="M193.49,32.263L193.49,36.263" style="fill:none;stroke:#000000;stroke-width:0.5" />
<path d="M257.59,32.263L257.59,36.263" style="fill:none;stroke:#000000;stroke-width:0.5" />
<path d="M321.68,32.263L321.68,36.263" style="fill:none;stroke:#000000;stroke-width:0.5" />
<path d="M449.87,32.263L449.87,36.263" style="fill:none;stroke:#000000;stroke-width:0.5" />
<path d="M513.97,32.263L513.97,36.263" style="fill:none;stroke:#000000;stroke-width:0.5" />
<path d="M578.06,32.263L578.06,36.263" style="fill:none;stroke:#000000;stroke-width:0.5" />
<path d="M642.16,32.263L642.16,36.263" style="fill:none;stroke:#000000;stroke-width:0.5" />
<path d="M65.305,36.263L711.38,36.263" style="fill:none;stroke:#000000;stroke-width:0.5" />
<g transform="rotate(90)">
<text x="152.55" y="11.555" transform="scale(1, -1)"
	style="font-family:Times;font-weight:normal;font-style:normal;font-size:12px">Number of trials (1000000 total)</text>
</g>
<text x="24.055" y="-106.58" transform="scale(1, -1)"
	style="font-family:Times;font-weight:normal;font-style:normal;font-size:10px">20000</text>
<text x="24.055" y="-235.86" transform="scale(1, -1)"
	style="font-family:Times;font-weight:normal;font-style:normal;font-size:10px">60000</text>
<text x="19.055" y="-365.14" transform="scale(1, -1)"
	style="font-family:Times;font-weight:normal;font-style:normal;font-size:10px">100000</text>
<path d="M51.555,109.79L59.555,109.79" style="fill:none;stroke:#000000;stroke-width:0.5" />
<path d="M51.555,239.07L59.555,239.07" style="fill:none;stroke:#000000;stroke-width:0.5" />
<path d="M51.555,368.35L59.555,368.35" style="fill:none;stroke:#000000;stroke-width:0.5" />
<path d="M55.555,77.468L59.555,77.468" style="fill:none;stroke:#000000;stroke-width:0.5" />
<path d="M55.555,142.11L59.555,142.11" style="fill:none;stroke:#000000;stroke-width:0.5" />
<path d="M55.555,174.43L59.555,174.43" style="fill:none;stroke:#000000;stroke-width:0.5" />
<path d="M55.555,206.75L59.555,206.75" style="fill:none;stroke:#000000;stroke-width:0.5" />
<path d="M55.555,271.39L59.555,271.39" style="fill:none;stroke:#000000;stroke-width:0.5" />
<path d="M55.555,303.71L59.555,303.71" style="fill:none;stroke:#000000;stroke-width:0.5" />
<path d="M55.555,336.03L59.555,336.03" style="fill:none;stroke:#000000;stroke-width:0.5" />
<path d="M55.555,400.67L59.555,400.67" style="fill:none;stroke:#000000;stroke-width:0.5" />
<path d="M59.555,45.151L59.555,416.58" style="fill:none;stroke:#000000;stroke-width:0.5" />
<path d="M65.305,416.58L98.634,59.052L99.916,159.93L102.48,48.442L105.04,80.293L106.33,52.184L108.89,52.236L110.17,58.917L111.45,62.957L112.73,51.977L114.02,55.516L115.3,59.954L116.58,51.793L117.86,62.559L119.14,79.75L120.43,52.407L121.71,66.305L129.4,66.499L130.68,151.23L131.96,45.29L133.24,77.035L134.53,157.81L135.81,45.252L137.09,46.211L138.37,46.502L139.65,162.85L140.94,54.182L142.22,49.13L143.5,75.859L144.78,51.111L146.06,51.751L147.35,47.863L148.63,49.683L149.91,51.421L151.19,49.809L152.47,53.37L153.76,57.582L155.04,50.374L156.32,53.328L157.6,47.336L158.88,64.072L160.16,153.49L161.45,48.652L162.73,48.377L164.01,58.273L165.29,79.42L166.57,49.023L167.86,76.386L169.14,84.689L170.42,57.772L171.7,50.95L172.98,54.03L174.27,92.203L175.55,56.68L176.83,54.896L178.11,60.406L179.39,65.568L180.67,58.926L181.96,51.548L183.24,61.964L184.52,66.473L185.8,58.461L187.08,62.863L188.37,61.673L189.65,55.62L190.93,55.106L192.21,52.582L193.49,67.229L194.78,86.873L196.06,54.696L197.34,51.796L198.62,63.59L199.9,89.2L201.19,49.915L202.47,61.001L203.75,58.832L205.03,83.276L206.31,55.045L207.59,63.506L208.88,94.036L210.16,56.004L211.44,54.534L212.72,63.69L214,63.723L215.29,56.118L216.57,56.438L217.85,60.516L219.13,54.059L220.41,52.627L221.7,54.421L222.98,53.813L224.26,62.692L225.54,80.493L226.82,51.606L228.1,65.397L229.39,81.657L230.67,50.665L231.95,50.917L233.23,63.765L234.51,90.878L235.8,52.769L237.08,58.289L238.36,62.746L239.64,61.166L240.92,51.955L242.21,58.959L243.49,64.007L244.77,55.083L246.05,53.726L247.33,55.219L248.62,58.012L249.9,53.509L251.18,53.687L252.46,55.769L253.74,59.24L255.02,53.345L256.31,53.351L257.59,53.186L258.87,58.096L260.15,58.338L261.43,54.337L262.72,62.31L264,61.99L265.28,53.519L266.56,51.198L267.84,56.173L269.13,63.215L270.41,51.528L271.69,53.532L272.97,58.086L274.25,62.62L275.53,52.491L276.82,55.012L278.1,56.728L279.38,54.75L280.66,53.441L281.94,54.653L283.23,56.392L284.51,52.01L285.79,52.352L287.07,54.366L288.35,54.379L289.64,52.113L290.92,51.68L292.2,51.163L293.48,55.843L294.76,56.619L296.04,50.329L297.33,53.535L298.61,52.976L299.89,57.081L301.17,49.809L302.45,55.642L303.74,60.29L305.02,49.253L306.3,50.271L307.58,53.787L308.86,52.359L310.15,50.125L311.43,51.367L312.71,52.827L313.99,50.455L315.27,49.77L316.56,50.222L317.84,50.471L319.12,50.604L320.4,49.372L321.68,49.964L322.96,50.959L324.25,48.846L325.53,48.791L326.81,49.715L328.09,53.141L329.37,50.652L330.66,49.172L331.94,50.756L333.22,49.696L334.5,50.177L335.78,48.335L337.07,51.412L338.35,51.483L339.63,48.949L340.91,49.253L342.19,49.747L343.47,49.321L344.76,48.283L346.04,48.616L347.32,49.531L348.6,48.797L349.88,48.597L351.17,48.432L352.45,49.014L353.73,48.668L355.01,47.931L356.29,48.694L357.58,48.736L358.86,47.892L360.14,47.627L361.42,47.96L362.7,48.412L363.99,47.718L365.27,47.32L366.55,47.75L367.83,48.619L369.11,48.994L370.39,47.2L371.68,48.425L372.96,47.692L374.24,46.88L375.52,47.284L376.8,47.743L378.09,47.708L379.37,47.032L380.65,47.158L381.93,47.711L383.21,46.89L384.5,46.784L385.78,47.175L387.06,47.165L388.34,47.168L389.62,46.557L390.9,46.984L392.19,46.919L393.47,46.835L394.75,46.457L396.03,46.68L397.31,47.233L398.6,46.519L399.88,46.292L401.16,46.499L402.44,46.835L403.72,46.784L405.01,46.38L406.29,47.058L407.57,46.535L408.85,46.35L410.13,46.302L411.42,46.428L412.7,46.328L413.98,46.066L415.26,46.321L416.54,46.344L417.82,46.163L419.11,46.06L420.39,46.024L421.67,46.244L422.95,46.189L424.23,45.979L425.52,46.008L426.8,45.972L428.08,45.901L429.36,45.798L430.64,45.953L431.93,46.089L433.21,45.84L434.49,45.769L435.77,45.837L437.05,46.024L438.33,45.772L439.62,45.717L440.9,45.849L442.18,45.772L443.46,45.665L444.74,45.74L446.03,45.749L447.31,45.814L448.59,45.601L449.87,45.736L451.15,45.675L452.44,45.633L453.72,45.575L455,45.685L456.28,45.717L457.56,45.61L458.85,45.539L460.13,45.617L461.41,45.594L462.69,45.588L463.97,45.471L465.25,45.52L466.54,45.559L467.82,45.458L469.1,45.416L470.38,45.5L471.66,45.636L472.95,45.4L474.23,45.439L475.51,45.462L476.79,45.403L478.07,45.371L479.36,45.394L480.64,45.449L481.92,45.468L483.2,45.355L484.48,45.413L485.76,45.329L487.05,45.381L488.33,45.352L489.61,45.371L490.89,45.329L492.17,45.323L493.46,45.358L494.74,45.3L496.02,45.271L497.3,45.332L498.58,45.277L499.87,45.303L501.15,45.332L502.43,45.235L503.71,45.29L504.99,45.307L506.28,45.264L507.56,45.268L508.84,45.29L510.12,45.313L511.4,45.284L512.68,45.274L513.97,45.277L515.25,45.258L516.53,45.261L517.81,45.271L519.09,45.29L520.38,45.245L521.66,45.235L522.94,45.226L524.22,45.213L525.5,45.261L526.79,45.229L528.07,45.219L529.35,45.264L530.63,45.232L531.91,45.219L533.19,45.213L534.48,45.255L535.76,45.197L537.04,45.187L538.32,45.203L539.6,45.206L540.89,45.203L542.17,45.187L543.45,45.206L544.73,45.21L546.01,45.216L547.3,45.187L548.58,45.193L549.86,45.19L551.14,45.187L552.42,45.18L553.71,45.184L554.99,45.187L556.27,45.168L557.55,45.18L558.83,45.2L560.11,45.193L561.4,45.18L562.68,45.177L563.96,45.177L565.24,45.18L566.52,45.18L567.81,45.164L569.09,45.164L570.37,45.164L571.65,45.164L572.93,45.171L574.22,45.177L575.5,45.168L576.78,45.168L578.06,45.161L579.34,45.158L580.62,45.168L581.91,45.164L583.19,45.171L584.47,45.174L585.75,45.164L587.03,45.151L588.32,45.168L589.6,45.171L590.88,45.164L592.16,45.155L593.44,45.164L594.73,45.161L596.01,45.151L597.29,45.155L598.57,45.164L599.85,45.155L601.13,45.158L602.42,45.151L603.7,45.155L604.98,45.158L606.26,45.155L607.54,45.168L608.83,45.155L610.11,45.161L611.39,45.155L612.67,45.151L613.95,45.158L615.24,45.161L616.52,45.155L617.8,45.151L619.08,45.151L620.36,45.151L621.65,45.151L622.93,45.151L624.21,45.158L626.77,45.151L628.05,45.151L631.9,45.155L640.87,45.155L642.16,45.151L644.72,45.151L647.28,45.155L649.85,45.155L651.13,45.151L652.41,45.151L653.69,45.155L658.82,45.151L660.1,45.151L661.38,45.151L663.95,45.151L665.23,45.151L672.92,45.155L674.2,45.151L678.05,45.151L681.89,45.151L698.56,45.151L711.38,45.151" style="fill:none;stroke:#0000FF" />
</g>
</svg>
