<?xml version="1.0"?>
<!-- Generated by SVGo and Plotinum VG -->
<svg width="720pt" height="432pt" viewBox="0 0 720 432"
	xmlns="http://www.w3.org/2000/svg"
	xmlns:xlink="http://www.w3.org/1999/xlink">
<g transform="scale(1, -1) translate(0, -432)">
<path d="M0,0L720,0L720,432L0,432Z" style="fill:#FFFFFF" />
<text x="358.5" y="-420.45" transform="scale(1, -1)"
	style="font-family:Times;font-weight:normal;font-style:normal;font-size:12px"> </text>
<text x="385.56" y="-3.8613" transform="scale(1, -1)"
	style="font-family:Times;font-weight:normal;font-style:normal;font-size:12px">Costs</text>
<text x="75.305" y="-18.634" transform="scale(1, -1)"
	style="font-family:Times;font-weight:normal;font-style:normal;font-size:10px">0</text>
<text x="355.09" y="-18.634" transform="scale(1, -1)"
	style="font-family:Times;font-weight:normal;font-style:normal;font-size:10px">200</text>
<text x="639.88" y="-18.634" transform="scale(1, -1)"
	style="font-family:Times;font-weight:normal;font-style:normal;font-size:10px">400</text>
<path d="M77.805,28.263L77.805,36.263" style="fill:none;stroke:#000000;stroke-width:0.5" />
<path d="M362.59,28.263L362.59,36.263" style="fill:none;stroke:#000000;stroke-width:0.5" />
<path d="M647.38,28.263L647.38,36.263" style="fill:none;stroke:#000000;stroke-width:0.5" />
<path d="M220.2,32.263L220.2,36.263" style="fill:none;stroke:#000000;stroke-width:0.5" />
<path d="M504.99,32.263L504.99,36.263" style="fill:none;stroke:#000000;stroke-width:0.5" />
<path d="M77.805,36.263L720,36.263" style="fill:none;stroke:#000000;stroke-width:0.5" />
<g transform="rotate(90)">
<text x="152.55" y="11.555" transform="scale(1, -1)"
	style="font-family:Times;font-weight:normal;font-style:normal;font-size:12px">Number of trials (1000000 total)</text>
</g>
<text x="24.055" y="-91.259" transform="scale(1, -1)"
	style="font-family:Times;font-weight:normal;font-style:normal;font-size:10px">25000.00</text>
<text x="19.055" y="-239.2" transform="scale(1, -1)"
	style="font-family:Times;font-weight:normal;font-style:normal;font-size:10px">100000.00</text>
<text x="19.055" y="-387.15" transform="scale(1, -1)"
	style="font-family:Times;font-weight:normal;font-style:normal;font-size:10px">175000.00</text>
<path d="M64.055,94.464L72.055,94.464" style="fill:none;stroke:#000000;stroke-width:0.5" />
<path d="M64.055,242.41L72.055,242.41" style="fill:none;stroke:#000000;stroke-width:0.5" />
<path d="M64.055,390.35L72.055,390.35" style="fill:none;stroke:#000000;stroke-width:0.5" />
<path d="M68.055,168.44L72.055,168.44" style="fill:none;stroke:#000000;stroke-width:0.5" />
<path d="M68.055,316.38L72.055,316.38" style="fill:none;stroke:#000000;stroke-width:0.5" />
<path d="M72.055,45.151L72.055,416.58" style="fill:none;stroke:#000000;stroke-width:0.5" />
<path d="M77.805,416.58L117.67,129.4L120.52,55.466L121.95,51.89L123.37,78.029L126.22,96.18L127.64,51.88L133.34,48.463L136.19,79.693L137.61,81.449L139.03,52.071L140.46,130.11L143.31,91.896L147.58,79.49L154.7,55.651L156.12,95.665L157.55,63.763L160.39,47.536L161.82,46.759L163.24,52.742L164.66,80.031L166.09,91.476L167.51,47.286L168.94,46.645L170.36,46.331L171.78,49.886L173.21,46.52L176.06,53.791L177.48,53.438L178.9,48L180.33,65.672L181.75,56.2L183.18,61.879L184.6,52.182L186.02,59.741L187.45,54.973L188.87,60.33L190.3,47.68L191.72,114.43L193.14,52.566L194.57,47.588L195.99,65.4L197.42,49.923L198.84,55.257L200.26,55.847L201.69,56.214L203.11,58.003L204.54,59.971L205.96,70.213L207.38,50.122L208.81,49.067L210.23,56.648L211.65,49.623L213.08,55.379L214.5,56.553L215.93,53.186L217.35,50.237L218.77,56.837L220.2,51.217L221.62,54.496L223.05,51.466L224.47,54.259L225.89,57.496L227.32,56.671L228.74,56.296L230.17,51.902L231.59,66.72L233.01,48.972L234.44,51.55L235.86,54.29L237.29,52.107L238.71,48.11L240.13,56.971L241.56,51.937L242.98,54.306L244.41,56.452L245.83,52.097L247.25,49.83L248.68,48.868L250.1,55.598L251.52,56.03L252.95,52.88L254.37,64.514L255.8,49.41L257.22,55.17L258.64,51.219L260.07,48.895L261.49,55.888L262.92,48.773L264.34,50.357L265.76,50.122L267.19,50.057L268.61,52.412L270.04,58.63L271.46,52.951L272.88,48.988L274.31,49.387L275.73,50.298L277.16,49.726L278.58,54.148L280,56.334L281.43,48.949L282.85,48.755L284.28,50.58L285.7,48.911L287.12,48.848L288.55,49.177L289.97,50.071L291.4,50.221L292.82,49.45L294.24,51.424L295.67,49.195L297.09,49.604L298.51,48.852L299.94,49.144L301.36,49.688L302.79,49.972L304.21,48.169L305.63,49.118L307.06,49.308L308.48,47.881L309.91,50.998L311.33,47.726L312.75,48.862L314.18,49.221L315.6,48.972L317.03,48.799L318.45,49.584L319.87,50.781L321.3,47.653L322.72,47.337L324.15,48.822L325.57,47.201L326.99,48.519L328.42,48.576L329.84,48.209L331.27,47.952L332.69,48.903L334.11,47.684L335.54,47.943L336.96,47.42L338.39,48.002L339.81,48.369L341.23,48.373L342.66,48.16L344.08,47.384L345.5,47.367L346.93,47.197L348.35,47.073L349.78,47.639L351.2,46.386L352.62,46.745L354.05,46.82L355.47,47.207L356.9,47.651L358.32,48.053L359.74,46.939L361.17,46.54L362.59,46.514L364.02,46.688L365.44,46.591L366.86,46.978L368.29,46.791L369.71,46.653L371.14,46.264L372.56,46.976L373.98,46.382L375.41,46.619L376.83,46.295L378.26,46.658L379.68,46.471L381.1,46.568L382.53,46.538L383.95,46.365L385.37,46.317L386.8,46.167L388.22,46.215L389.65,46.365L391.07,46.195L392.49,46.104L393.92,46.14L395.34,46.179L396.77,46.045L398.19,46.479L399.61,45.946L401.04,46.041L402.46,46.098L403.89,46.029L405.31,46.019L406.73,46.159L408.16,45.976L409.58,45.822L411.01,45.662L412.43,45.816L413.85,45.702L415.28,45.899L416.7,45.783L418.13,45.832L419.55,45.861L420.97,45.824L422.4,45.775L423.82,45.718L425.25,45.615L426.67,45.674L428.09,45.633L429.52,45.668L430.94,45.516L432.36,45.648L433.79,45.57L435.21,45.556L436.64,45.536L438.06,45.568L439.48,45.491L440.91,45.487L442.33,45.542L443.76,45.56L445.18,45.544L446.6,45.574L448.03,45.528L449.45,45.457L450.88,45.433L452.3,45.439L453.72,45.424L455.15,45.499L456.57,45.406L458,45.404L459.42,45.41L460.84,45.439L462.27,45.404L463.69,45.426L465.12,45.422L466.54,45.418L467.96,45.386L469.39,45.345L470.81,45.349L472.24,45.323L473.66,45.311L475.08,45.349L476.51,45.272L477.93,45.323L479.35,45.333L480.78,45.297L482.2,45.305L483.63,45.266L485.05,45.307L486.47,45.295L487.9,45.262L489.32,45.274L490.75,45.264L492.17,45.278L493.59,45.252L495.02,45.295L496.44,45.264L497.87,45.254L499.29,45.258L500.71,45.244L502.14,45.26L503.56,45.248L504.99,45.25L506.41,45.264L507.83,45.252L509.26,45.24L510.68,45.236L512.11,45.216L513.53,45.238L514.95,45.23L516.38,45.238L517.8,45.211L519.22,45.201L520.65,45.197L522.07,45.199L523.5,45.193L524.92,45.214L526.34,45.205L527.77,45.216L529.19,45.209L530.62,45.213L532.04,45.187L533.46,45.213L534.89,45.203L536.31,45.191L537.74,45.187L539.16,45.189L540.58,45.197L542.01,45.195L543.43,45.201L544.86,45.193L546.28,45.183L547.7,45.195L549.13,45.191L550.55,45.177L551.98,45.169L553.4,45.175L554.82,45.169L556.25,45.165L557.67,45.183L559.1,45.163L560.52,45.171L561.94,45.159L563.37,45.183L564.79,45.169L566.21,45.163L567.64,45.173L569.06,45.161L570.49,45.167L571.91,45.169L573.33,45.159L574.76,45.157L576.18,45.161L577.61,45.157L579.03,45.159L580.45,45.163L581.88,45.161L583.3,45.159L584.73,45.167L586.15,45.169L587.57,45.167L589,45.157L590.42,45.159L591.85,45.163L593.27,45.161L594.69,45.161L596.12,45.157L597.54,45.157L598.97,45.157L600.39,45.163L601.81,45.153L603.24,45.159L604.66,45.153L606.09,45.155L607.51,45.155L608.93,45.153L610.36,45.151L611.78,45.157L613.2,45.157L614.63,45.157L616.05,45.157L617.48,45.157L618.9,45.159L620.32,45.151L621.75,45.151L624.6,45.151L627.44,45.157L633.14,45.155L634.56,45.153L635.99,45.153L637.41,45.151L638.84,45.153L641.68,45.151L645.96,45.151L647.38,45.151L650.23,45.151L651.65,45.151L654.5,45.153L655.92,45.151L657.35,45.151L658.77,45.151L663.04,45.151L673.01,45.151L678.71,45.151L680.13,45.151L682.98,45.151L685.83,45.153L690.1,45.151L692.95,45.151L694.37,45.153L718.58,45.151L720,45.151" style="fill:none;stroke:#0000FF" />
</g>
</svg>
