<?xml version="1.0"?>
<!-- Generated by SVGo and Plotinum VG -->
<svg width="720pt" height="432pt" viewBox="0 0 720 432"
	xmlns="http://www.w3.org/2000/svg"
	xmlns:xlink="http://www.w3.org/1999/xlink">
<g transform="scale(1, -1) translate(0, -432)">
<path d="M0,0L720,0L720,432L0,432Z" style="fill:#FFFFFF" />
<text x="358.5" y="-420.45" transform="scale(1, -1)"
	style="font-family:Times;font-weight:normal;font-style:normal;font-size:12px"> </text>
<text x="372.44" y="-3.8613" transform="scale(1, -1)"
	style="font-family:Times;font-weight:normal;font-style:normal;font-size:12px">Costs</text>
<text x="56.555" y="-18.634" transform="scale(1, -1)"
	style="font-family:Times;font-weight:normal;font-style:normal;font-size:10px">0.00</text>
<text x="372.03" y="-18.634" transform="scale(1, -1)"
	style="font-family:Times;font-weight:normal;font-style:normal;font-size:10px">250.00</text>
<text x="692.5" y="-18.634" transform="scale(1, -1)"
	style="font-family:Times;font-weight:normal;font-style:normal;font-size:10px">500.00</text>
<path d="M65.305,28.263L65.305,36.263" style="fill:none;stroke:#000000;stroke-width:0.5" />
<path d="M385.78,28.263L385.78,36.263" style="fill:none;stroke:#000000;stroke-width:0.5" />
<path d="M706.25,28.263L706.25,36.263" style="fill:none;stroke:#000000;stroke-width:0.5" />
<path d="M129.4,32.263L129.4,36.263" style="fill:none;stroke:#000000;stroke-width:0.5" />
<path d="M193.49,32.263L193.49,36.263" style="fill:none;stroke:#000000;stroke-width:0.5" />
<path d="M257.59,32.263L257.59,36.263" style="fill:none;stroke:#000000;stroke-width:0.5" />
<path d="M321.68,32.263L321.68,36.263" style="fill:none;stroke:#000000;stroke-width:0.5" />
<path d="M449.87,32.263L449.87,36.263" style="fill:none;stroke:#000000;stroke-width:0.5" />
<path d="M513.97,32.263L513.97,36.263" style="fill:none;stroke:#000000;stroke-width:0.5" />
<path d="M578.06,32.263L578.06,36.263" style="fill:none;stroke:#000000;stroke-width:0.5" />
<path d="M642.16,32.263L642.16,36.263" style="fill:none;stroke:#000000;stroke-width:0.5" />
<path d="M65.305,36.263L706.25,36.263" style="fill:none;stroke:#000000;stroke-width:0.5" />
<g transform="rotate(90)">
<text x="152.55" y="11.555" transform="scale(1, -1)"
	style="font-family:Times;font-weight:normal;font-style:normal;font-size:12px">Number of trials (1000000 total)</text>
</g>
<text x="24.055" y="-89.717" transform="scale(1, -1)"
	style="font-family:Times;font-weight:normal;font-style:normal;font-size:10px">20000</text>
<text x="24.055" y="-233.04" transform="scale(1, -1)"
	style="font-family:Times;font-weight:normal;font-style:normal;font-size:10px">80000</text>
<text x="19.055" y="-376.36" transform="scale(1, -1)"
	style="font-family:Times;font-weight:normal;font-style:normal;font-size:10px">140000</text>
<path d="M51.555,92.923L59.555,92.923" style="fill:none;stroke:#000000;stroke-width:0.5" />
<path d="M51.555,236.24L59.555,236.24" style="fill:none;stroke:#000000;stroke-width:0.5" />
<path d="M51.555,379.56L59.555,379.56" style="fill:none;stroke:#000000;stroke-width:0.5" />
<path d="M55.555,164.58L59.555,164.58" style="fill:none;stroke:#000000;stroke-width:0.5" />
<path d="M55.555,307.9L59.555,307.9" style="fill:none;stroke:#000000;stroke-width:0.5" />
<path d="M59.555,45.151L59.555,416.58" style="fill:none;stroke:#000000;stroke-width:0.5" />
<path d="M65.305,416.58L93.506,51.732L94.788,48.491L98.634,55.903L103.76,48.5L105.04,87.235L106.33,114.15L107.61,55.306L108.89,73.534L110.17,66.769L111.45,86.609L112.73,48.625L114.02,73.622L115.3,48.481L116.58,55.74L117.86,69.339L120.43,48.484L122.99,63.16L124.27,100.31L126.84,45.34L128.12,55.891L129.4,62.438L130.68,48.636L131.96,45.218L133.24,102.17L134.53,50.215L135.81,63.683L137.09,45.808L138.37,47.024L139.65,55.052L140.94,52.501L142.22,53.392L143.5,46.446L144.78,58.179L146.06,56.808L147.35,48.218L148.63,50.59L149.91,53.426L151.19,62.706L152.47,55.931L153.76,52.308L155.04,54.111L156.32,116.8L157.6,54.773L158.88,117.13L160.16,50.175L161.45,50.292L162.73,51.804L164.01,58.423L165.29,57.03L166.57,51.942L167.86,55.439L169.14,121.31L170.42,55.518L171.7,49.494L172.98,57.723L174.27,60.035L175.55,54.742L176.83,58.129L178.11,51.152L179.39,55.564L180.67,50.567L181.96,57.616L183.24,49.418L184.52,52.394L185.8,55.026L187.08,52.1L188.37,53.096L189.65,50.191L190.93,51.828L192.21,59.252L193.49,49.623L194.78,51.715L196.06,56.333L197.34,65.104L198.62,59.837L199.9,66.074L201.19,55.764L202.47,62.787L203.75,57.336L205.03,61.605L206.31,48.892L207.59,57.004L208.88,62.677L210.16,64.55L211.44,55.138L212.72,55.196L214,57.594L215.29,66L216.57,53.216L217.85,63.332L219.13,52.776L220.41,54.728L221.7,56.235L222.98,52.344L224.26,59.135L225.54,49.914L226.82,65.732L228.1,59.328L229.39,51.761L230.67,50.285L231.95,52.509L233.23,55.267L234.51,50.452L235.8,52.093L237.08,60.262L238.36,52.432L239.64,54.011L240.92,50.361L242.21,51.77L243.49,52.938L244.77,53.935L246.05,52.148L247.33,50.01L248.62,52.848L249.9,62.926L251.18,50.337L252.46,50.309L253.74,50.753L255.02,53.249L256.31,52.551L257.59,51.632L258.87,52.356L260.15,62.168L261.43,52.291L262.72,61.75L264,51.195L265.28,50.786L266.56,51.79L267.84,53.822L269.13,51.2L270.41,51.768L271.69,50.638L272.97,52.528L274.25,49.549L275.53,50.399L276.82,50.875L278.1,51.529L279.38,51.09L280.66,50.072L281.94,49.819L283.23,50.863L284.51,49.272L285.79,51.613L287.07,48.388L288.35,49.637L289.64,50.867L290.92,50.836L292.2,49.379L293.48,49.236L294.76,49.929L296.04,51.037L297.33,48.558L298.61,49.52L299.89,49.183L301.17,51.028L302.45,50.397L303.74,51.073L305.02,49.255L306.3,49.993L307.58,49.936L308.86,51.462L310.15,47.956L311.43,48.992L312.71,49.351L313.99,49.064L315.27,48.378L316.56,47.815L317.84,49.948L319.12,49.422L320.4,48.675L321.68,49.004L322.96,48.02L324.25,48.285L325.53,47.946L326.81,48.312L328.09,48.675L329.37,48.008L330.66,49.415L331.94,47.428L333.22,47.49L334.5,47.602L335.78,47.922L337.07,47.784L338.35,47.459L339.63,47.645L340.91,47.399L342.19,47.476L343.47,47.397L344.76,47.203L346.04,47.263L347.32,47.423L348.6,47.595L349.88,47.261L351.17,46.948L352.45,47.215L353.73,48.625L355.01,46.967L356.29,46.828L357.58,47L358.86,47.179L360.14,47.036L361.42,47.019L362.7,46.905L363.99,46.862L365.27,46.821L366.55,46.838L367.83,46.649L369.11,46.651L370.39,47.007L371.68,46.988L372.96,46.554L374.24,46.721L375.52,46.472L376.8,46.866L378.09,46.116L379.37,46.515L380.65,46.286L381.93,46.284L383.21,46.377L384.5,46.155L385.78,46.286L387.06,46.248L388.34,46.157L389.62,46.264L390.9,45.932L392.19,46.147L393.47,46.229L394.75,46.331L396.03,46.021L397.31,46.083L398.6,46.21L399.88,46.109L401.16,46.033L402.44,45.94L403.72,45.844L405.01,45.971L406.29,46.033L407.57,45.875L408.85,45.753L410.13,45.835L411.42,45.882L412.7,46.026L413.98,45.77L415.26,45.751L416.54,45.887L417.82,45.875L419.11,45.729L420.39,45.729L421.67,45.897L422.95,45.706L424.23,45.729L425.52,45.629L426.8,45.591L428.08,45.663L429.36,45.741L430.64,45.586L431.93,45.517L433.21,45.636L434.49,45.588L435.77,45.557L437.05,45.467L438.33,45.581L439.62,45.574L440.9,45.534L442.18,45.488L443.46,45.464L444.74,45.505L446.03,45.433L447.31,45.481L448.59,45.426L449.87,45.481L451.15,45.469L452.44,45.445L453.72,45.424L455,45.371L456.28,45.476L457.56,45.448L458.85,45.474L460.13,45.383L461.41,45.44L462.69,45.438L463.97,45.362L465.25,45.354L466.54,45.34L467.82,45.347L469.1,45.323L470.38,45.359L471.66,45.311L472.95,45.335L474.23,45.342L475.51,45.35L476.79,45.316L478.07,45.295L479.36,45.28L480.64,45.342L481.92,45.268L483.2,45.278L484.48,45.273L485.76,45.29L487.05,45.292L488.33,45.285L489.61,45.276L490.89,45.271L492.17,45.271L493.46,45.268L494.74,45.276L496.02,45.249L497.3,45.259L498.58,45.256L499.87,45.24L501.15,45.202L502.43,45.249L503.71,45.247L504.99,45.223L506.28,45.221L507.56,45.256L508.84,45.245L510.12,45.245L511.4,45.221L512.68,45.216L513.97,45.228L515.25,45.202L516.53,45.235L517.81,45.194L519.09,45.211L520.38,45.19L521.66,45.202L522.94,45.182L524.22,45.192L525.5,45.19L526.79,45.197L528.07,45.185L529.35,45.228L530.63,45.187L531.91,45.187L533.19,45.202L534.48,45.18L535.76,45.18L537.04,45.19L538.32,45.197L539.6,45.175L540.89,45.175L542.17,45.182L543.45,45.19L544.73,45.17L546.01,45.178L547.3,45.175L548.58,45.17L549.86,45.182L551.14,45.178L552.42,45.168L553.71,45.19L554.99,45.175L556.27,45.175L557.55,45.166L558.83,45.161L560.11,45.168L561.4,45.159L562.68,45.159L563.96,45.154L565.24,45.151L566.52,45.166L567.81,45.154L569.09,45.166L570.37,45.161L571.65,45.159L572.93,45.163L574.22,45.166L575.5,45.154L576.78,45.161L578.06,45.159L579.34,45.161L580.62,45.166L581.91,45.156L583.19,45.166L584.47,45.163L585.75,45.154L587.03,45.159L588.32,45.156L589.6,45.154L590.88,45.154L592.16,45.159L593.44,45.161L594.73,45.156L596.01,45.161L597.29,45.156L598.57,45.154L601.13,45.151L602.42,45.151L603.7,45.151L604.98,45.154L606.26,45.151L610.11,45.154L611.39,45.151L613.95,45.154L615.24,45.159L616.52,45.151L617.8,45.156L619.08,45.154L620.36,45.151L621.65,45.151L626.77,45.154L628.05,45.151L629.34,45.151L630.62,45.151L633.18,45.156L635.75,45.151L637.03,45.151L639.59,45.154L640.87,45.151L642.16,45.151L643.44,45.154L647.28,45.154L648.56,45.151L651.13,45.151L654.97,45.154L656.26,45.151L657.54,45.151L660.1,45.151L666.51,45.151L674.2,45.151L675.48,45.151L676.77,45.151L687.02,45.151L689.59,45.151L690.87,45.151L693.43,45.154L702.4,45.151L706.25,45.151" style="fill:none;stroke:#0000FF" />
</g>
</svg>
