<?xml version="1.0"?>
<!-- Generated by SVGo and Plotinum VG -->
<svg width="720pt" height="432pt" viewBox="0 0 720 432"
	xmlns="http://www.w3.org/2000/svg"
	xmlns:xlink="http://www.w3.org/1999/xlink">
<g transform="scale(1, -1) translate(0, -432)">
<path d="M0,0L720,0L720,432L0,432Z" style="fill:#FFFFFF" />
<text x="358.5" y="-420.45" transform="scale(1, -1)"
	style="font-family:Times;font-weight:normal;font-style:normal;font-size:12px"> </text>
<text x="379.31" y="-3.8613" transform="scale(1, -1)"
	style="font-family:Times;font-weight:normal;font-style:normal;font-size:12px">Costs</text>
<text x="56.555" y="-18.634" transform="scale(1, -1)"
	style="font-family:Times;font-weight:normal;font-style:normal;font-size:10px">0.00</text>
<text x="353.54" y="-18.634" transform="scale(1, -1)"
	style="font-family:Times;font-weight:normal;font-style:normal;font-size:10px">250.00</text>
<text x="655.52" y="-18.634" transform="scale(1, -1)"
	style="font-family:Times;font-weight:normal;font-style:normal;font-size:10px">500.00</text>
<path d="M65.305,28.263L65.305,36.263" style="fill:none;stroke:#000000;stroke-width:0.5" />
<path d="M367.29,28.263L367.29,36.263" style="fill:none;stroke:#000000;stroke-width:0.5" />
<path d="M669.27,28.263L669.27,36.263" style="fill:none;stroke:#000000;stroke-width:0.5" />
<path d="M125.7,32.263L125.7,36.263" style="fill:none;stroke:#000000;stroke-width:0.5" />
<path d="M186.1,32.263L186.1,36.263" style="fill:none;stroke:#000000;stroke-width:0.5" />
<path d="M246.49,32.263L246.49,36.263" style="fill:none;stroke:#000000;stroke-width:0.5" />
<path d="M306.89,32.263L306.89,36.263" style="fill:none;stroke:#000000;stroke-width:0.5" />
<path d="M427.68,32.263L427.68,36.263" style="fill:none;stroke:#000000;stroke-width:0.5" />
<path d="M488.08,32.263L488.08,36.263" style="fill:none;stroke:#000000;stroke-width:0.5" />
<path d="M548.47,32.263L548.47,36.263" style="fill:none;stroke:#000000;stroke-width:0.5" />
<path d="M608.87,32.263L608.87,36.263" style="fill:none;stroke:#000000;stroke-width:0.5" />
<path d="M65.305,36.263L720,36.263" style="fill:none;stroke:#000000;stroke-width:0.5" />
<g transform="rotate(90)">
<text x="151.1" y="11.555" transform="scale(1, -1)"
	style="font-family:Times;font-weight:normal;font-style:normal;font-size:12px">Number of trials (1000000 total)</text>
</g>
<text x="24.055" y="-94.088" transform="scale(1, -1)"
	style="font-family:Times;font-weight:normal;font-style:normal;font-size:10px">20000</text>
<text x="24.055" y="-250.52" transform="scale(1, -1)"
	style="font-family:Times;font-weight:normal;font-style:normal;font-size:10px">80000</text>
<text x="19.055" y="-406.96" transform="scale(1, -1)"
	style="font-family:Times;font-weight:normal;font-style:normal;font-size:10px">140000</text>
<path d="M51.555,97.293L59.555,97.293" style="fill:none;stroke:#000000;stroke-width:0.5" />
<path d="M51.555,253.73L59.555,253.73" style="fill:none;stroke:#000000;stroke-width:0.5" />
<path d="M51.555,410.16L59.555,410.16" style="fill:none;stroke:#000000;stroke-width:0.5" />
<path d="M55.555,175.51L59.555,175.51" style="fill:none;stroke:#000000;stroke-width:0.5" />
<path d="M55.555,331.94L59.555,331.94" style="fill:none;stroke:#000000;stroke-width:0.5" />
<path d="M59.555,45.151L59.555,413.68" style="fill:none;stroke:#000000;stroke-width:0.5" />
<path d="M65.305,413.68L94.295,48.473L96.711,51.948L97.919,48.439L99.127,58.798L100.33,76.519L101.54,48.434L102.75,84.763L103.96,62.137L105.17,70.288L106.37,83.814L107.58,69.651L108.79,48.549L110,55.494L111.21,52.214L112.41,83.175L113.62,59.113L114.83,74.188L116.04,83.777L117.25,55.552L118.45,88.564L119.66,58.331L120.87,69.659L123.29,48.481L124.49,52.136L125.7,65.957L126.91,55.898L128.12,45.282L129.32,98.172L130.53,56.167L131.74,64.554L132.95,67.159L134.16,60.891L135.36,57.145L136.57,65.981L137.78,56.894L138.99,66.179L140.2,71.651L141.4,62.487L142.61,51.138L143.82,52.405L145.03,52.329L146.24,66.098L147.44,54.887L148.65,52.381L149.86,56.519L151.07,65.086L152.28,56.276L153.48,60.664L154.69,60.099L155.9,59.178L157.11,57.111L158.31,67.704L159.52,56.681L160.73,58.078L161.94,66.731L163.15,66.309L164.35,58.078L165.56,59.721L166.77,62.656L167.98,61.991L169.19,61.157L170.39,62.578L171.6,62.586L172.81,58.975L174.02,61.692L175.23,58.881L176.43,62.349L177.64,58.933L178.85,62.137L180.06,63.227L181.27,60.352L182.47,62.132L183.68,59.603L184.89,59.867L186.1,59.011L187.31,59.827L188.51,58.566L189.72,59.619L190.93,57.77L192.14,57.708L193.34,61.1L194.55,56.986L195.76,58.25L196.97,58.61L198.18,56.029L199.38,58.753L200.59,59.358L201.8,57.53L203.01,57.205L204.22,59.538L205.42,57.575L206.63,56.636L207.84,57.009L209.05,56.344L210.26,57.238L211.46,56.941L212.67,56.287L213.88,56.151L215.09,56.824L216.3,55.614L217.5,55.758L218.71,55.927L219.92,54.962L221.13,54.973L222.33,56.803L223.54,54.806L224.75,54.775L225.96,56.253L227.17,56.224L228.37,54.378L229.58,55.166L230.79,54.519L232,55.124L233.21,54.725L234.41,54.981L235.62,54.477L236.83,54.514L238.04,54.449L239.25,54.086L240.45,53.727L241.66,53.614L242.87,53.94L244.08,53.63L245.29,53.182L246.49,53.458L247.7,53.317L248.91,53.101L250.12,52.858L251.33,53.049L252.53,52.822L253.74,52.616L254.95,52.637L256.16,52.827L257.36,52.139L258.57,51.948L259.78,52.399L260.99,51.969L262.2,51.544L263.4,51.826L264.61,51.623L265.82,51.458L267.03,51.477L268.24,51.32L269.44,51.33L270.65,50.926L271.86,50.934L273.07,50.806L274.28,50.903L275.48,50.859L276.69,50.77L277.9,50.465L279.11,50.598L280.32,50.181L281.52,50.452L282.73,49.954L283.94,49.97L285.15,49.967L286.35,49.852L287.56,49.777L288.77,49.756L289.98,49.743L291.19,49.401L292.39,49.412L293.6,49.61L294.81,49.245L296.02,49.313L297.23,49.313L298.43,49.054L299.64,49.062L300.85,48.848L302.06,49L303.27,48.854L304.47,48.765L305.68,48.726L306.89,48.708L308.1,48.476L309.31,48.502L310.51,48.275L311.72,48.366L312.93,48.251L314.14,48.194L315.35,48.332L316.55,48.084L317.76,47.928L318.97,48.082L320.18,47.965L321.38,47.931L322.59,47.842L323.8,47.688L325.01,47.644L326.22,47.675L327.42,47.581L328.63,47.417L329.84,47.472L331.05,47.654L332.26,47.357L333.46,47.381L334.67,47.268L335.88,47.297L337.09,47.219L338.3,47.19L339.5,47.104L340.71,47.078L341.92,47.099L343.13,47.01L344.34,46.924L345.54,46.909L346.75,46.982L347.96,46.75L349.17,46.734L350.37,46.731L351.58,46.731L352.79,46.765L354,46.57L355.21,46.69L356.41,46.695L357.62,46.515L358.83,46.585L360.04,46.416L361.25,46.507L362.45,46.531L363.66,46.377L364.87,46.309L366.08,46.395L367.29,46.327L368.49,46.317L369.7,46.142L370.91,46.252L372.12,46.189L373.33,46.181L374.53,46.207L375.74,46.124L376.95,46.126L378.16,46.09L379.37,46.08L380.57,46.043L381.78,46.046L382.99,45.905L384.2,46.004L385.4,45.965L386.61,46.007L387.82,45.871L389.03,45.85L390.24,45.894L391.44,45.889L392.65,45.879L393.86,45.855L395.07,45.845L396.28,45.751L397.48,45.72L398.69,45.772L399.9,45.751L401.11,45.751L402.32,45.72L403.52,45.741L404.73,45.701L405.94,45.66L407.15,45.628L408.36,45.696L409.56,45.626L410.77,45.613L411.98,45.626L413.19,45.587L414.39,45.589L415.6,45.595L416.81,45.529L418.02,45.488L419.23,45.529L420.43,45.506L421.64,45.503L422.85,45.493L424.06,45.511L425.27,45.446L426.47,45.433L427.68,45.532L428.89,45.438L430.1,45.412L431.31,45.43L432.51,45.456L433.72,45.423L434.93,45.441L436.14,45.42L437.35,45.436L438.55,45.36L439.76,45.347L440.97,45.352L442.18,45.378L443.39,45.399L444.59,45.35L445.8,45.336L447.01,45.331L448.22,45.326L449.42,45.376L450.63,45.365L451.84,45.284L453.05,45.323L454.26,45.316L455.46,45.323L456.67,45.339L457.88,45.308L459.09,45.318L460.3,45.284L461.5,45.292L462.71,45.266L463.92,45.256L465.13,45.284L466.34,45.253L467.54,45.284L468.75,45.284L469.96,45.271L471.17,45.277L472.38,45.256L473.58,45.237L474.79,45.263L476,45.256L477.21,45.248L478.42,45.224L479.62,45.235L480.83,45.232L482.04,45.243L483.25,45.209L484.45,45.245L485.66,45.232L486.87,45.243L488.08,45.235L489.29,45.245L490.49,45.24L491.7,45.204L492.91,45.227L494.12,45.206L495.33,45.204L496.53,45.198L497.74,45.219L498.95,45.211L500.16,45.201L501.37,45.18L502.57,45.214L503.78,45.19L504.99,45.198L506.2,45.204L507.41,45.206L508.61,45.188L509.82,45.18L511.03,45.185L512.24,45.201L513.44,45.19L514.65,45.196L515.86,45.188L517.07,45.177L518.28,45.18L519.48,45.172L520.69,45.164L521.9,45.185L523.11,45.17L524.32,45.17L525.52,45.177L526.73,45.18L527.94,45.201L529.15,45.19L530.36,45.17L531.56,45.167L532.77,45.172L533.98,45.175L535.19,45.159L536.4,45.175L537.6,45.18L538.81,45.183L540.02,45.17L541.23,45.167L542.44,45.172L543.64,45.159L544.85,45.177L546.06,45.172L547.27,45.162L548.47,45.167L549.68,45.162L550.89,45.167L552.1,45.157L553.31,45.164L554.51,45.164L555.72,45.159L556.93,45.162L558.14,45.162L559.35,45.151L560.55,45.154L561.76,45.157L562.97,45.159L564.18,45.164L565.39,45.154L566.59,45.162L567.8,45.154L569.01,45.159L570.22,45.157L571.43,45.157L572.63,45.157L573.84,45.151L575.05,45.159L576.26,45.162L577.46,45.154L578.67,45.157L579.88,45.159L582.3,45.157L583.5,45.157L584.71,45.151L585.92,45.154L587.13,45.154L588.34,45.159L589.54,45.151L590.75,45.157L591.96,45.151L593.17,45.154L594.38,45.154L595.58,45.159L596.79,45.154L599.21,45.154L600.42,45.154L601.62,45.154L602.83,45.151L604.04,45.151L605.25,45.151L606.46,45.151L610.08,45.151L611.29,45.151L612.49,45.151L616.12,45.151L617.33,45.154L618.53,45.154L619.74,45.154L620.95,45.154L622.16,45.159L625.78,45.151L628.2,45.151L635.45,45.151L639.07,45.151L643.9,45.151L645.11,45.151L648.73,45.151L654.77,45.151L665.64,45.151L666.85,45.151L680.14,45.151L687.39,45.151L703.09,45.151L715.17,45.151L720,45.151" style="fill:none;stroke:#0000FF" />
</g>
</svg>
