<?xml version="1.0"?>
<!-- Generated by SVGo and Plotinum VG -->
<svg width="720pt" height="432pt" viewBox="0 0 720 432"
	xmlns="http://www.w3.org/2000/svg"
	xmlns:xlink="http://www.w3.org/1999/xlink">
<g transform="scale(1, -1) translate(0, -432)">
<path d="M0,0L720,0L720,432L0,432Z" style="fill:#FFFFFF" />
<text x="358.5" y="-420.45" transform="scale(1, -1)"
	style="font-family:Times;font-weight:normal;font-style:normal;font-size:12px"> </text>
<text x="385.56" y="-3.8613" transform="scale(1, -1)"
	style="font-family:Times;font-weight:normal;font-style:normal;font-size:12px">Costs</text>
<text x="69.055" y="-18.634" transform="scale(1, -1)"
	style="font-family:Times;font-weight:normal;font-style:normal;font-size:10px">0.00</text>
<text x="352.29" y="-18.634" transform="scale(1, -1)"
	style="font-family:Times;font-weight:normal;font-style:normal;font-size:10px">250.00</text>
<text x="640.53" y="-18.634" transform="scale(1, -1)"
	style="font-family:Times;font-weight:normal;font-style:normal;font-size:10px">500.00</text>
<path d="M77.805,28.263L77.805,36.263" style="fill:none;stroke:#000000;stroke-width:0.5" />
<path d="M366.04,28.263L366.04,36.263" style="fill:none;stroke:#000000;stroke-width:0.5" />
<path d="M654.28,28.263L654.28,36.263" style="fill:none;stroke:#000000;stroke-width:0.5" />
<path d="M135.45,32.263L135.45,36.263" style="fill:none;stroke:#000000;stroke-width:0.5" />
<path d="M193.1,32.263L193.1,36.263" style="fill:none;stroke:#000000;stroke-width:0.5" />
<path d="M250.75,32.263L250.75,36.263" style="fill:none;stroke:#000000;stroke-width:0.5" />
<path d="M308.4,32.263L308.4,36.263" style="fill:none;stroke:#000000;stroke-width:0.5" />
<path d="M423.69,32.263L423.69,36.263" style="fill:none;stroke:#000000;stroke-width:0.5" />
<path d="M481.34,32.263L481.34,36.263" style="fill:none;stroke:#000000;stroke-width:0.5" />
<path d="M538.99,32.263L538.99,36.263" style="fill:none;stroke:#000000;stroke-width:0.5" />
<path d="M596.63,32.263L596.63,36.263" style="fill:none;stroke:#000000;stroke-width:0.5" />
<path d="M711.93,32.263L711.93,36.263" style="fill:none;stroke:#000000;stroke-width:0.5" />
<path d="M77.805,36.263L720,36.263" style="fill:none;stroke:#000000;stroke-width:0.5" />
<g transform="rotate(90)">
<text x="152.55" y="11.555" transform="scale(1, -1)"
	style="font-family:Times;font-weight:normal;font-style:normal;font-size:12px">Number of trials (1000000 total)</text>
</g>
<text x="24.055" y="-110.65" transform="scale(1, -1)"
	style="font-family:Times;font-weight:normal;font-style:normal;font-size:10px">25000.00</text>
<text x="24.055" y="-248.06" transform="scale(1, -1)"
	style="font-family:Times;font-weight:normal;font-style:normal;font-size:10px">75000.00</text>
<text x="19.055" y="-385.47" transform="scale(1, -1)"
	style="font-family:Times;font-weight:normal;font-style:normal;font-size:10px">125000.00</text>
<path d="M64.055,113.85L72.055,113.85" style="fill:none;stroke:#000000;stroke-width:0.5" />
<path d="M64.055,251.26L72.055,251.26" style="fill:none;stroke:#000000;stroke-width:0.5" />
<path d="M64.055,388.67L72.055,388.67" style="fill:none;stroke:#000000;stroke-width:0.5" />
<path d="M68.055,58.89L72.055,58.89" style="fill:none;stroke:#000000;stroke-width:0.5" />
<path d="M68.055,86.372L72.055,86.372" style="fill:none;stroke:#000000;stroke-width:0.5" />
<path d="M68.055,141.34L72.055,141.34" style="fill:none;stroke:#000000;stroke-width:0.5" />
<path d="M68.055,168.82L72.055,168.82" style="fill:none;stroke:#000000;stroke-width:0.5" />
<path d="M68.055,196.3L72.055,196.3" style="fill:none;stroke:#000000;stroke-width:0.5" />
<path d="M68.055,223.78L72.055,223.78" style="fill:none;stroke:#000000;stroke-width:0.5" />
<path d="M68.055,278.75L72.055,278.75" style="fill:none;stroke:#000000;stroke-width:0.5" />
<path d="M68.055,306.23L72.055,306.23" style="fill:none;stroke:#000000;stroke-width:0.5" />
<path d="M68.055,333.71L72.055,333.71" style="fill:none;stroke:#000000;stroke-width:0.5" />
<path d="M68.055,361.19L72.055,361.19" style="fill:none;stroke:#000000;stroke-width:0.5" />
<path d="M68.055,416.16L72.055,416.16" style="fill:none;stroke:#000000;stroke-width:0.5" />
<path d="M72.055,45.151L72.055,416.58" style="fill:none;stroke:#000000;stroke-width:0.5" />
<path d="M77.805,416.58L103.17,55.534L104.32,74.579L107.78,66.799L108.93,55.336L111.24,48.383L112.39,55.704L113.55,59.236L114.7,81.675L115.85,73.01L117.01,72.963L118.16,66.104L119.31,48.573L120.46,55.303L121.62,59.395L122.77,83.882L123.92,69.44L125.08,90.249L126.23,52.113L127.38,90.843L128.53,77.349L129.69,77.767L130.84,59.546L133.15,45.709L134.3,57.304L135.45,60.165L136.61,70.831L137.76,45.739L138.91,90.189L140.06,61.893L141.22,66.513L142.37,84.822L143.52,66.931L144.68,49.18L145.83,48.532L146.98,52.412L148.13,50.035L149.29,65.812L150.44,54.932L151.59,52.445L152.75,53.5L153.9,57.051L155.05,56.738L156.21,53.341L157.36,54.358L158.51,53.871L159.66,78.273L160.82,57.04L161.97,76.948L163.12,64.867L164.28,59.758L165.43,62.237L166.58,64.271L167.74,60.756L168.89,61.484L170.04,77.412L171.19,70.765L172.35,60.907L173.5,62.182L174.65,63.919L175.81,63.083L176.96,61.715L178.11,60.772L179.26,62.968L180.42,61.547L181.57,59.395L182.72,56.892L183.88,58.516L185.03,57.543L186.18,65.384L187.34,60.981L188.49,64.817L189.64,62.031L190.79,58.727L191.95,59.607L193.1,58.92L194.25,57.136L195.41,55.421L196.56,58.615L197.71,57.752L198.86,57.755L200.02,60.25L201.17,59.733L202.32,57.164L203.48,57.483L204.63,58.005L205.78,57.859L206.94,60.398L208.09,59.324L209.24,59.601L210.39,58.384L211.55,59.016L212.7,57.7L213.85,57.892L215.01,57.815L216.16,56.949L217.31,57.054L218.47,57.441L219.62,57.037L220.77,60.849L221.92,56.947L223.08,58.763L224.23,57.87L225.38,56.922L226.54,56.631L227.69,56.878L228.84,56.031L229.99,54.809L231.15,57.433L232.3,56.441L233.45,56.218L234.61,56.493L235.76,56.413L236.91,55.006L238.07,54.097L239.22,54.127L240.37,53.602L241.52,53.987L242.68,53.561L243.83,54.503L244.98,53.778L246.14,53.286L247.29,54.006L248.44,53.325L249.59,53.484L250.75,53.844L251.9,54.275L253.05,53.962L254.21,53.767L255.36,53.841L256.51,52.91L257.67,53.242L258.82,53.176L259.97,52.981L261.12,52.72L262.28,52.646L263.43,52.879L264.58,52.286L265.74,52.357L266.89,52.03L268.04,52.327L269.2,52.038L270.35,52.06L271.5,51.994L272.65,52.011L273.81,51.585L274.96,51.546L276.11,51.129L277.27,50.727L278.42,51.211L279.57,51.016L280.72,50.925L281.88,51.074L283.03,50.703L284.18,50.464L285.34,50.609L286.49,50.071L287.64,50.167L288.8,50.269L289.95,50.073L291.1,49.889L292.25,50.057L293.41,49.881L294.56,49.801L295.71,49.757L296.87,49.763L298.02,49.474L299.17,49.417L300.32,49.579L301.48,49.353L302.63,49.263L303.78,49.123L304.94,49.035L306.09,49.087L307.24,48.872L308.4,49.018L309.55,48.749L310.7,48.702L311.85,48.727L313.01,48.565L314.16,48.468L315.31,48.617L316.47,48.642L317.62,48.449L318.77,48.402L319.93,48.43L321.08,48.166L322.23,48.144L323.38,48.042L324.54,48.232L325.69,47.971L326.84,47.905L328,47.809L329.15,47.671L330.3,47.702L331.45,47.79L332.61,47.567L333.76,47.556L334.91,47.597L336.07,47.347L337.22,47.474L338.37,47.3L339.53,47.372L340.68,47.342L341.83,47.309L342.98,47.237L344.14,47.094L345.29,47.006L346.44,47.031L347.6,46.943L348.75,47.004L349.9,46.921L351.05,46.839L352.21,46.817L353.36,46.822L354.51,46.803L355.67,46.715L356.82,46.756L357.97,46.685L359.13,46.693L360.28,46.564L361.43,46.553L362.58,46.575L363.74,46.583L364.89,46.514L366.04,46.523L367.2,46.501L368.35,46.374L369.5,46.344L370.65,46.295L371.81,46.182L372.96,46.231L374.11,46.22L375.27,46.218L376.42,46.196L377.57,46.089L378.73,46.179L379.88,46.053L381.03,46.042L382.18,46.207L383.34,46.075L384.49,45.973L385.64,46.001L386.8,45.973L387.95,45.948L389.1,45.88L390.26,46.017L391.41,45.924L392.56,45.88L393.71,45.937L394.87,45.825L396.02,45.841L397.17,45.772L398.33,45.858L399.48,45.808L400.63,45.748L401.78,45.756L402.94,45.737L404.09,45.723L405.24,45.778L406.4,45.693L407.55,45.701L408.7,45.657L409.86,45.676L411.01,45.632L412.16,45.66L413.31,45.61L414.47,45.555L415.62,45.588L416.77,45.58L417.93,45.539L419.08,45.481L420.23,45.555L421.38,45.555L422.54,45.542L423.69,45.533L424.84,45.558L426,45.456L427.15,45.525L428.3,45.498L429.46,45.503L430.61,45.445L431.76,45.388L432.91,45.459L434.07,45.415L435.22,45.423L436.37,45.368L437.53,45.399L438.68,45.415L439.83,45.407L440.99,45.363L442.14,45.404L443.29,45.355L444.44,45.335L445.6,45.385L446.75,45.316L447.9,45.357L449.06,45.357L450.21,45.366L451.36,45.33L452.51,45.314L453.67,45.344L454.82,45.319L455.97,45.303L457.13,45.311L458.28,45.308L459.43,45.319L460.59,45.311L461.74,45.308L462.89,45.261L464.04,45.297L465.2,45.272L466.35,45.253L467.5,45.261L468.66,45.278L469.81,45.245L470.96,45.256L472.11,45.253L473.27,45.283L474.42,45.275L475.57,45.245L476.73,45.259L477.88,45.264L479.03,45.264L480.19,45.212L481.34,45.248L482.49,45.228L483.64,45.245L484.8,45.231L485.95,45.237L487.1,45.195L488.26,45.215L489.41,45.237L490.56,45.201L491.72,45.22L492.87,45.187L494.02,45.215L495.17,45.217L496.33,45.209L497.48,45.204L498.63,45.206L499.79,45.209L500.94,45.206L502.09,45.184L503.24,45.206L504.4,45.209L505.55,45.19L506.7,45.187L507.86,45.184L509.01,45.184L510.16,45.193L511.32,45.173L512.47,45.198L513.62,45.182L514.77,45.184L515.93,45.179L517.08,45.179L518.23,45.19L519.39,45.168L520.54,45.184L521.69,45.198L522.84,45.182L524,45.182L525.15,45.187L526.3,45.179L527.46,45.171L528.61,45.171L529.76,45.176L530.92,45.173L532.07,45.173L533.22,45.176L534.37,45.184L535.53,45.173L536.68,45.162L537.83,45.168L538.99,45.165L540.14,45.165L541.29,45.16L542.45,45.165L543.6,45.173L544.75,45.171L545.9,45.16L547.06,45.162L548.21,45.168L549.36,45.171L550.52,45.16L551.67,45.16L553.97,45.165L555.13,45.16L556.28,45.165L557.43,45.16L558.59,45.171L559.74,45.154L560.89,45.154L562.05,45.157L563.2,45.162L564.35,45.171L565.5,45.16L566.66,45.162L567.81,45.151L568.96,45.154L570.12,45.154L571.27,45.162L572.42,45.157L573.57,45.151L574.73,45.151L575.88,45.16L577.03,45.157L578.19,45.154L579.34,45.157L581.65,45.157L582.8,45.151L583.95,45.154L585.1,45.154L586.26,45.154L588.56,45.151L589.72,45.154L590.87,45.154L592.02,45.154L593.18,45.154L595.48,45.154L596.63,45.154L597.79,45.157L598.94,45.154L600.09,45.154L601.25,45.154L602.4,45.151L605.86,45.151L607.01,45.157L608.16,45.151L609.32,45.151L622,45.151L626.61,45.154L633.53,45.151L636.99,45.151L647.36,45.151L673.88,45.154L684.26,45.151L707.32,45.151L720,45.151" style="fill:none;stroke:#0000FF" />
</g>
</svg>
