<?xml version="1.0"?>
<!-- Generated by SVGo and Plotinum VG -->
<svg width="720pt" height="432pt" viewBox="0 0 720 432"
	xmlns="http://www.w3.org/2000/svg"
	xmlns:xlink="http://www.w3.org/1999/xlink">
<g transform="scale(1, -1) translate(0, -432)">
<path d="M0,0L720,0L720,432L0,432Z" style="fill:#FFFFFF" />
<text x="358.5" y="-420.45" transform="scale(1, -1)"
	style="font-family:Times;font-weight:normal;font-style:normal;font-size:12px"> </text>
<text x="385.56" y="-3.8613" transform="scale(1, -1)"
	style="font-family:Times;font-weight:normal;font-style:normal;font-size:12px">Costs</text>
<text x="75.305" y="-18.634" transform="scale(1, -1)"
	style="font-family:Times;font-weight:normal;font-style:normal;font-size:10px">0</text>
<text x="328.21" y="-18.634" transform="scale(1, -1)"
	style="font-family:Times;font-weight:normal;font-style:normal;font-size:10px">200</text>
<text x="586.12" y="-18.634" transform="scale(1, -1)"
	style="font-family:Times;font-weight:normal;font-style:normal;font-size:10px">400</text>
<path d="M77.805,28.263L77.805,36.263" style="fill:none;stroke:#000000;stroke-width:0.5" />
<path d="M335.71,28.263L335.71,36.263" style="fill:none;stroke:#000000;stroke-width:0.5" />
<path d="M593.62,28.263L593.62,36.263" style="fill:none;stroke:#000000;stroke-width:0.5" />
<path d="M206.76,32.263L206.76,36.263" style="fill:none;stroke:#000000;stroke-width:0.5" />
<path d="M464.67,32.263L464.67,36.263" style="fill:none;stroke:#000000;stroke-width:0.5" />
<path d="M77.805,36.263L720,36.263" style="fill:none;stroke:#000000;stroke-width:0.5" />
<g transform="rotate(90)">
<text x="152.55" y="11.555" transform="scale(1, -1)"
	style="font-family:Times;font-weight:normal;font-style:normal;font-size:12px">Number of trials (1000000 total)</text>
</g>
<text x="24.055" y="-80.089" transform="scale(1, -1)"
	style="font-family:Times;font-weight:normal;font-style:normal;font-size:10px">25000.00</text>
<text x="19.055" y="-232.67" transform="scale(1, -1)"
	style="font-family:Times;font-weight:normal;font-style:normal;font-size:10px">125000.00</text>
<text x="19.055" y="-385.25" transform="scale(1, -1)"
	style="font-family:Times;font-weight:normal;font-style:normal;font-size:10px">225000.00</text>
<path d="M64.055,83.295L72.055,83.295" style="fill:none;stroke:#000000;stroke-width:0.5" />
<path d="M64.055,235.88L72.055,235.88" style="fill:none;stroke:#000000;stroke-width:0.5" />
<path d="M64.055,388.46L72.055,388.46" style="fill:none;stroke:#000000;stroke-width:0.5" />
<path d="M68.055,159.59L72.055,159.59" style="fill:none;stroke:#000000;stroke-width:0.5" />
<path d="M68.055,312.17L72.055,312.17" style="fill:none;stroke:#000000;stroke-width:0.5" />
<path d="M72.055,45.151L72.055,416.58" style="fill:none;stroke:#000000;stroke-width:0.5" />
<path d="M77.805,416.58L111.33,48.645L112.62,62.347L115.2,71.769L116.49,55.623L117.78,55.843L119.07,52.03L120.36,48.626L121.65,71.243L122.94,81.85L124.23,55.562L126.81,59.012L128.1,52.112L129.39,74.483L130.68,72.967L131.97,55.495L133.26,51.953L134.54,69.47L135.83,52.103L137.12,55.321L140.99,73.27L142.28,62.852L143.57,55.589L146.15,55.66L147.44,48.8L148.73,45.429L150.02,72.828L151.31,73.829L152.6,45.94L153.89,46.178L155.18,69.11L156.47,64.801L157.76,50.885L159.05,68.147L160.34,48.36L161.63,48.461L162.91,47.689L164.2,71.49L165.49,48.217L166.78,50.617L168.07,50.534L169.36,53.328L170.65,48.682L171.94,50.562L173.23,56.915L174.52,52.098L175.81,52.021L177.1,49.166L178.39,51.741L179.68,52.1L180.97,73.659L182.26,57.451L183.55,49.915L184.84,51.476L186.13,53.928L187.42,53.124L188.71,51.895L190,51.441L191.28,50.702L192.57,52.008L193.86,54.311L195.15,54.61L196.44,53.379L197.73,50.917L199.02,52.37L200.31,53.311L201.6,53.131L202.89,53.877L204.18,53.302L205.47,50.487L206.76,51.447L208.05,54.39L209.34,52.664L210.63,51.705L211.92,50.122L213.21,51.967L214.5,52.167L215.79,52.953L217.08,50.119L218.37,52.158L219.66,51.738L220.94,50.936L222.23,50.365L223.52,51.859L224.81,50.438L226.1,50.284L227.39,52.124L228.68,51.607L229.97,50.582L231.26,49.796L232.55,51.757L233.84,50.734L235.13,48.975L236.42,51.247L237.71,52.257L239,49.21L240.29,48.728L241.58,49.221L242.87,49.071L244.16,49.649L245.45,51.331L246.74,49.669L248.03,48.418L249.31,48.507L250.6,48.836L251.89,48.371L253.18,49.744L254.47,50.531L255.76,48.594L257.05,47.899L258.34,49.155L259.63,50.107L260.92,48.369L262.21,49.295L263.5,48.253L264.79,48.064L266.08,48.151L267.37,49.314L268.66,48.224L269.95,47.741L271.24,47.912L272.53,48.238L273.82,47.947L275.11,47.93L276.4,48.203L277.68,47.844L278.97,47.696L280.26,47.782L281.55,47.869L282.84,47.667L284.13,47.489L285.42,47.941L286.71,47.527L288,47.506L289.29,47.593L290.58,47.431L291.87,47.31L293.16,47.225L294.45,47.175L295.74,47.211L297.03,47.333L298.32,47.187L299.61,47.045L300.9,47.063L302.19,47.028L303.48,46.766L304.77,47.014L306.05,47.014L307.34,46.853L308.63,46.712L309.92,46.85L311.21,46.862L312.5,46.67L313.79,46.569L315.08,46.558L316.37,46.639L317.66,46.625L318.95,46.644L320.24,46.433L321.53,46.25L322.82,46.459L324.11,46.413L325.4,46.294L326.69,46.36L327.98,46.224L329.27,46.125L330.56,46.23L331.85,46.393L333.14,46.302L334.42,46.103L335.71,46.183L337,46.126L338.29,46.076L339.58,46.134L340.87,46.209L342.16,45.986L343.45,45.896L344.74,45.939L346.03,45.969L347.32,45.907L348.61,45.971L349.9,45.954L351.19,45.893L352.48,45.788L353.77,45.858L355.06,45.833L356.35,45.78L357.64,45.756L358.93,45.789L360.22,45.78L361.51,45.707L362.79,45.762L364.08,45.69L365.37,45.626L366.66,45.702L367.95,45.643L369.24,45.653L370.53,45.644L371.82,45.698L373.11,45.577L374.4,45.582L375.69,45.637L376.98,45.603L378.27,45.574L379.56,45.556L380.85,45.54L382.14,45.498L383.43,45.542L384.72,45.556L386.01,45.467L387.3,45.493L388.59,45.499L389.88,45.515L391.17,45.452L392.45,45.47L393.74,45.443L395.03,45.417L396.32,45.4L397.61,45.446L398.9,45.409L400.19,45.4L401.48,45.388L402.77,45.452L404.06,45.37L405.35,45.374L406.64,45.362L407.93,45.341L409.22,45.344L410.51,45.341L411.8,45.356L413.09,45.35L414.38,45.363L415.67,45.327L416.96,45.301L418.25,45.313L419.54,45.292L420.82,45.307L422.11,45.284L423.4,45.324L424.69,45.289L425.98,45.283L427.27,45.26L428.56,45.278L429.85,45.257L431.14,45.269L432.43,45.283L433.72,45.278L435.01,45.266L436.3,45.243L437.59,45.241L438.88,45.243L440.17,45.266L441.46,45.244L442.75,45.229L444.04,45.251L445.33,45.255L446.62,45.237L447.91,45.235L449.19,45.22L450.48,45.223L451.77,45.243L453.06,45.225L454.35,45.219L455.64,45.211L456.93,45.234L458.22,45.212L459.51,45.223L460.8,45.203L462.09,45.208L463.38,45.197L464.67,45.196L465.96,45.205L467.25,45.194L468.54,45.183L469.83,45.197L471.12,45.199L472.41,45.174L473.7,45.191L474.99,45.203L476.28,45.177L477.56,45.193L478.85,45.186L480.14,45.191L481.43,45.185L482.72,45.179L484.01,45.186L485.3,45.165L486.59,45.18L487.88,45.171L489.17,45.168L490.46,45.164L491.75,45.176L493.04,45.177L494.33,45.182L495.62,45.168L496.91,45.173L498.2,45.179L499.49,45.174L500.78,45.165L502.07,45.173L503.36,45.17L504.65,45.162L505.93,45.177L507.22,45.173L508.51,45.177L509.8,45.165L511.09,45.168L512.38,45.165L513.67,45.161L514.96,45.164L516.25,45.167L517.54,45.164L518.83,45.165L520.12,45.162L521.41,45.165L522.7,45.17L523.99,45.162L525.28,45.165L526.57,45.157L527.86,45.165L529.15,45.164L530.44,45.156L531.73,45.154L533.02,45.153L534.3,45.153L535.59,45.164L536.88,45.162L538.17,45.161L539.46,45.162L540.75,45.157L542.04,45.153L543.33,45.157L544.62,45.154L545.91,45.162L547.2,45.153L548.49,45.154L549.78,45.157L552.36,45.161L553.65,45.156L554.94,45.156L556.23,45.153L557.52,45.154L558.81,45.151L560.1,45.154L561.39,45.153L562.68,45.156L563.96,45.157L565.25,45.151L566.54,45.151L569.12,45.153L570.41,45.151L572.99,45.153L574.28,45.153L575.57,45.154L580.73,45.157L582.02,45.151L583.31,45.151L584.6,45.156L587.18,45.151L588.47,45.151L592.33,45.151L602.65,45.151L603.94,45.151L616.84,45.153L618.13,45.151L625.86,45.151L632.31,45.153L636.18,45.153L647.79,45.151L655.52,45.151L660.68,45.151L664.55,45.151L668.42,45.151L674.87,45.151L676.16,45.151L701.95,45.151L720,45.151" style="fill:none;stroke:#0000FF" />
</g>
</svg>
