<?xml version="1.0"?>
<!-- Generated by SVGo and Plotinum VG -->
<svg width="720pt" height="432pt" viewBox="0 0 720 432"
	xmlns="http://www.w3.org/2000/svg"
	xmlns:xlink="http://www.w3.org/1999/xlink">
<g transform="scale(1, -1) translate(0, -432)">
<path d="M0,0L720,0L720,432L0,432Z" style="fill:#FFFFFF" />
<text x="358.5" y="-420.45" transform="scale(1, -1)"
	style="font-family:Times;font-weight:normal;font-style:normal;font-size:12px"> </text>
<text x="373.61" y="-3.8613" transform="scale(1, -1)"
	style="font-family:Times;font-weight:normal;font-style:normal;font-size:12px">Costs</text>
<text x="57.805" y="-18.634" transform="scale(1, -1)"
	style="font-family:Times;font-weight:normal;font-style:normal;font-size:10px">0</text>
<text x="378.9" y="-18.634" transform="scale(1, -1)"
	style="font-family:Times;font-weight:normal;font-style:normal;font-size:10px">300</text>
<text x="705" y="-18.634" transform="scale(1, -1)"
	style="font-family:Times;font-weight:normal;font-style:normal;font-size:10px">600</text>
<path d="M60.305,28.263L60.305,36.263" style="fill:none;stroke:#000000;stroke-width:0.5" />
<path d="M386.4,28.263L386.4,36.263" style="fill:none;stroke:#000000;stroke-width:0.5" />
<path d="M712.5,28.263L712.5,36.263" style="fill:none;stroke:#000000;stroke-width:0.5" />
<path d="M169,32.263L169,36.263" style="fill:none;stroke:#000000;stroke-width:0.5" />
<path d="M277.7,32.263L277.7,36.263" style="fill:none;stroke:#000000;stroke-width:0.5" />
<path d="M495.1,32.263L495.1,36.263" style="fill:none;stroke:#000000;stroke-width:0.5" />
<path d="M603.8,32.263L603.8,36.263" style="fill:none;stroke:#000000;stroke-width:0.5" />
<path d="M60.305,36.263L713.59,36.263" style="fill:none;stroke:#000000;stroke-width:0.5" />
<g transform="rotate(90)">
<text x="152.55" y="11.555" transform="scale(1, -1)"
	style="font-family:Times;font-weight:normal;font-style:normal;font-size:12px">Number of trials (1000000 total)</text>
</g>
<text x="19.055" y="-80.058" transform="scale(1, -1)"
	style="font-family:Times;font-weight:normal;font-style:normal;font-size:10px">10000</text>
<text x="19.055" y="-232.52" transform="scale(1, -1)"
	style="font-family:Times;font-weight:normal;font-style:normal;font-size:10px">50000</text>
<text x="19.055" y="-384.98" transform="scale(1, -1)"
	style="font-family:Times;font-weight:normal;font-style:normal;font-size:10px">90000</text>
<path d="M46.555,83.263L54.555,83.263" style="fill:none;stroke:#000000;stroke-width:0.5" />
<path d="M46.555,235.73L54.555,235.73" style="fill:none;stroke:#000000;stroke-width:0.5" />
<path d="M46.555,388.19L54.555,388.19" style="fill:none;stroke:#000000;stroke-width:0.5" />
<path d="M50.555,121.38L54.555,121.38" style="fill:none;stroke:#000000;stroke-width:0.5" />
<path d="M50.555,159.49L54.555,159.49" style="fill:none;stroke:#000000;stroke-width:0.5" />
<path d="M50.555,197.61L54.555,197.61" style="fill:none;stroke:#000000;stroke-width:0.5" />
<path d="M50.555,273.84L54.555,273.84" style="fill:none;stroke:#000000;stroke-width:0.5" />
<path d="M50.555,311.96L54.555,311.96" style="fill:none;stroke:#000000;stroke-width:0.5" />
<path d="M50.555,350.07L54.555,350.07" style="fill:none;stroke:#000000;stroke-width:0.5" />
<path d="M54.555,45.151L54.555,416.58" style="fill:none;stroke:#000000;stroke-width:0.5" />
<path d="M60.305,416.58L86.392,51.989L88.566,65.555L89.653,65.913L90.74,66.851L91.827,80.728L94.001,69.035L95.088,62.261L96.175,55.355L97.262,92.342L98.349,114.72L99.436,58.827L100.52,73.544L101.61,82.44L102.7,85.058L103.78,76.052L104.87,76.296L105.96,52.005L107.05,122.34L108.13,95.487L109.22,62.818L110.31,67.19L112.48,52.184L113.57,48.33L114.65,86.221L115.74,55.824L116.83,45.86L117.92,97.042L119,57.177L120.09,52.622L121.18,58.084L122.26,48.666L123.35,74.657L124.44,74.096L125.52,51.955L126.61,57.657L127.7,54.356L128.79,64.895L129.87,57.928L130.96,56.312L132.05,60.375L133.13,61.347L134.22,60.062L135.31,67.781L136.39,68.154L137.48,68.375L138.57,71.71L139.66,70.803L140.74,98.814L141.83,68.768L142.92,65.231L144,85.893L145.09,77.755L146.18,74.824L147.26,82.695L148.35,70.643L149.44,71.722L150.53,67.178L151.61,72.065L152.7,70.853L153.79,65.158L154.87,75.145L155.96,71.95L157.05,66.172L158.13,64.213L159.22,63.31L160.31,62.726L161.39,70.975L162.48,69.259L163.57,58.682L164.66,69.069L165.74,65.688L166.83,62.441L167.92,62.608L169,59.818L170.09,64.137L171.18,65.646L172.26,67.971L173.35,62.33L174.44,60.161L175.53,65.265L176.61,61.663L177.7,66.538L178.79,70.159L179.87,60.706L180.96,67.209L182.05,69.904L183.13,65.673L184.22,67.03L185.31,67.586L186.4,64.564L187.48,70.62L188.57,67.091L189.66,64.057L190.74,66.591L191.83,64.857L192.92,64.785L194,66.081L195.09,66.267L196.18,63.226L197.27,61.438L198.35,66.206L199.44,63.256L200.53,60.821L201.61,64.468L202.7,62.513L203.79,62.62L204.87,63.801L205.96,59.814L207.05,60.531L208.14,60.695L209.22,61.148L210.31,60.062L211.4,59.319L212.48,59.955L213.57,58.682L214.66,58.557L215.74,59.452L216.83,58.621L217.92,58.423L219.01,60.135L220.09,59.407L221.18,58.141L222.27,59.037L223.35,57.932L224.44,59.662L225.53,60.032L226.61,58.469L227.7,59.319L228.79,58.907L229.88,58.755L230.96,58.465L232.05,57.996L233.14,58.553L234.22,57.074L235.31,57.947L236.4,57.794L237.48,56.811L238.57,56.834L239.66,56.956L240.75,56.197L241.83,57.066L242.92,56.312L244.01,55.408L245.09,55.999L246.18,55.751L247.27,54.84L248.35,55.313L249.44,54.905L250.53,54.692L251.62,54.84L252.7,54.242L253.79,54.082L254.88,53.655L255.96,54.131L257.05,53.754L258.14,53.773L259.22,53.926L260.31,53.03L261.4,53.14L262.49,53.552L263.57,52.637L264.66,52.973L265.75,53.232L266.83,52.755L267.92,52.839L269.01,52.462L270.09,52.664L271.18,52.439L272.27,52.218L273.36,52.077L274.44,51.89L275.53,51.791L276.62,52.104L277.7,51.871L278.79,51.482L279.88,51.631L280.96,51.242L282.05,51.048L283.14,51.277L284.23,51.044L285.31,50.934L286.4,50.529L287.49,50.716L288.57,50.556L289.66,50.427L290.75,50.354L291.83,50.11L292.92,50.023L294.01,50.03L295.1,50.16L296.18,49.729L297.27,49.558L298.36,49.394L299.44,49.599L300.53,49.371L301.62,49.188L302.7,49.214L303.79,49.081L304.88,49.035L305.96,48.875L307.05,48.967L308.14,48.83L309.23,48.875L310.31,48.753L311.4,48.605L312.49,48.589L313.57,48.62L314.66,48.414L315.75,48.254L316.83,48.479L317.92,48.063L319.01,48.128L320.1,47.88L321.18,48.231L322.27,47.88L323.36,47.854L324.44,47.919L325.53,47.77L326.62,47.717L327.7,47.617L328.79,47.568L329.88,47.553L330.97,47.48L332.05,47.419L333.14,47.366L334.23,47.419L335.31,47.343L336.4,47.236L337.49,47.145L338.57,47.137L339.66,47.114L340.75,47.091L341.84,47.027L342.92,47.023L344.01,46.962L345.1,46.794L346.18,46.943L347.27,46.809L348.36,46.798L349.44,46.779L350.53,46.691L351.62,46.68L352.71,46.512L353.79,46.581L354.88,46.581L355.97,46.52L357.05,46.39L358.14,46.341L359.23,46.39L360.31,46.287L361.4,46.379L362.49,46.31L363.58,46.238L364.66,46.291L365.75,46.18L366.84,46.302L367.92,46.18L369.01,46.081L370.1,46.024L371.18,45.956L372.27,46.1L373.36,46.062L374.45,46.062L375.53,46.005L376.62,45.99L377.71,45.967L378.79,45.998L379.88,45.982L380.97,45.929L382.05,45.796L383.14,45.811L384.23,45.902L385.32,45.784L386.4,45.807L387.49,45.822L388.58,45.78L389.66,45.773L390.75,45.708L391.84,45.776L392.92,45.715L394.01,45.757L395.1,45.776L396.19,45.677L397.27,45.67L398.36,45.681L399.45,45.613L400.53,45.586L401.62,45.635L402.71,45.605L403.79,45.594L404.88,45.51L405.97,45.544L407.06,45.494L408.14,45.616L409.23,45.441L410.32,45.472L411.4,45.456L412.49,45.46L413.58,45.533L414.66,45.491L415.75,45.452L416.84,45.475L417.93,45.46L419.01,45.494L420.1,45.38L421.19,45.441L422.27,45.418L423.36,45.452L424.45,45.433L425.53,45.38L426.62,45.388L427.71,45.369L428.8,45.411L429.88,45.395L430.97,45.365L432.06,45.35L433.14,45.3L434.23,45.334L435.32,45.35L436.4,45.273L437.49,45.327L438.58,45.315L439.66,45.273L440.75,45.277L441.84,45.304L442.93,45.323L444.01,45.304L445.1,45.281L446.19,45.289L447.27,45.346L448.36,45.258L449.45,45.281L450.53,45.289L451.62,45.308L452.71,45.277L453.8,45.27L454.88,45.266L455.97,45.262L457.06,45.228L458.14,45.27L459.23,45.25L460.32,45.22L461.4,45.239L462.49,45.247L463.58,45.247L464.67,45.212L465.75,45.239L466.84,45.212L467.93,45.212L469.01,45.216L470.1,45.216L471.19,45.228L472.27,45.224L473.36,45.231L474.45,45.186L475.54,45.201L476.62,45.205L477.71,45.186L478.8,45.228L479.88,45.186L480.97,45.197L482.06,45.201L483.14,45.22L484.23,45.216L485.32,45.189L486.41,45.216L487.49,45.205L488.58,45.178L489.67,45.209L490.75,45.178L491.84,45.186L492.93,45.182L494.01,45.178L495.1,45.178L496.19,45.197L497.28,45.17L498.36,45.209L499.45,45.186L500.54,45.174L501.62,45.189L502.71,45.155L503.8,45.167L504.88,45.159L505.97,45.186L507.06,45.167L508.15,45.159L509.23,45.186L510.32,45.167L511.41,45.159L512.49,45.159L513.58,45.17L514.67,45.159L515.75,45.151L516.84,45.182L517.93,45.159L519.02,45.167L520.1,45.167L521.19,45.159L522.28,45.17L523.36,45.167L524.45,45.151L525.54,45.151L526.62,45.163L527.71,45.167L528.8,45.163L529.89,45.159L530.97,45.151L532.06,45.159L533.15,45.151L534.23,45.155L535.32,45.155L536.41,45.159L537.49,45.163L538.58,45.159L539.67,45.151L540.76,45.155L541.84,45.151L542.93,45.155L544.02,45.155L545.1,45.155L546.19,45.151L547.28,45.155L548.36,45.151L549.45,45.163L552.71,45.151L555.97,45.151L557.06,45.151L559.23,45.151L561.41,45.151L562.5,45.155L563.58,45.151L564.67,45.151L565.76,45.155L569.02,45.159L572.28,45.151L573.36,45.151L575.54,45.155L580.97,45.151L582.06,45.155L583.15,45.151L585.32,45.151L591.84,45.151L594.02,45.151L596.19,45.151L598.37,45.151L601.63,45.151L612.5,45.151L625.54,45.151L628.8,45.151L649.45,45.159L713.59,45.151" style="fill:none;stroke:#0000FF" />
</g>
</svg>
