<?xml version="1.0"?>
<!-- Generated by SVGo and Plotinum VG -->
<svg width="720pt" height="432pt" viewBox="0 0 720 432"
	xmlns="http://www.w3.org/2000/svg"
	xmlns:xlink="http://www.w3.org/1999/xlink">
<g transform="scale(1, -1) translate(0, -432)">
<path d="M0,0L720,0L720,432L0,432Z" style="fill:#FFFFFF" />
<text x="358.5" y="-420.45" transform="scale(1, -1)"
	style="font-family:Times;font-weight:normal;font-style:normal;font-size:12px"> </text>
<text x="379.31" y="-3.8613" transform="scale(1, -1)"
	style="font-family:Times;font-weight:normal;font-style:normal;font-size:12px">Costs</text>
<text x="56.555" y="-18.634" transform="scale(1, -1)"
	style="font-family:Times;font-weight:normal;font-style:normal;font-size:10px">0.00</text>
<text x="356.35" y="-18.634" transform="scale(1, -1)"
	style="font-family:Times;font-weight:normal;font-style:normal;font-size:10px">250.00</text>
<text x="661.14" y="-18.634" transform="scale(1, -1)"
	style="font-family:Times;font-weight:normal;font-style:normal;font-size:10px">500.00</text>
<path d="M65.305,28.263L65.305,36.263" style="fill:none;stroke:#000000;stroke-width:0.5" />
<path d="M370.1,28.263L370.1,36.263" style="fill:none;stroke:#000000;stroke-width:0.5" />
<path d="M674.89,28.263L674.89,36.263" style="fill:none;stroke:#000000;stroke-width:0.5" />
<path d="M126.26,32.263L126.26,36.263" style="fill:none;stroke:#000000;stroke-width:0.5" />
<path d="M187.22,32.263L187.22,36.263" style="fill:none;stroke:#000000;stroke-width:0.5" />
<path d="M248.18,32.263L248.18,36.263" style="fill:none;stroke:#000000;stroke-width:0.5" />
<path d="M309.14,32.263L309.14,36.263" style="fill:none;stroke:#000000;stroke-width:0.5" />
<path d="M431.06,32.263L431.06,36.263" style="fill:none;stroke:#000000;stroke-width:0.5" />
<path d="M492.01,32.263L492.01,36.263" style="fill:none;stroke:#000000;stroke-width:0.5" />
<path d="M552.97,32.263L552.97,36.263" style="fill:none;stroke:#000000;stroke-width:0.5" />
<path d="M613.93,32.263L613.93,36.263" style="fill:none;stroke:#000000;stroke-width:0.5" />
<path d="M65.305,36.263L720,36.263" style="fill:none;stroke:#000000;stroke-width:0.5" />
<g transform="rotate(90)">
<text x="152.55" y="11.555" transform="scale(1, -1)"
	style="font-family:Times;font-weight:normal;font-style:normal;font-size:12px">Number of trials (1000000 total)</text>
</g>
<text x="24.055" y="-110.03" transform="scale(1, -1)"
	style="font-family:Times;font-weight:normal;font-style:normal;font-size:10px">30000</text>
<text x="24.055" y="-246.19" transform="scale(1, -1)"
	style="font-family:Times;font-weight:normal;font-style:normal;font-size:10px">90000</text>
<text x="19.055" y="-382.36" transform="scale(1, -1)"
	style="font-family:Times;font-weight:normal;font-style:normal;font-size:10px">150000</text>
<path d="M51.555,113.23L59.555,113.23" style="fill:none;stroke:#000000;stroke-width:0.5" />
<path d="M51.555,249.4L59.555,249.4" style="fill:none;stroke:#000000;stroke-width:0.5" />
<path d="M51.555,385.57L59.555,385.57" style="fill:none;stroke:#000000;stroke-width:0.5" />
<path d="M55.555,181.32L59.555,181.32" style="fill:none;stroke:#000000;stroke-width:0.5" />
<path d="M55.555,317.48L59.555,317.48" style="fill:none;stroke:#000000;stroke-width:0.5" />
<path d="M59.555,45.151L59.555,416.58" style="fill:none;stroke:#000000;stroke-width:0.5" />
<path d="M65.305,416.58L93.346,51.783L97.003,52.405L98.222,48.435L100.66,71.486L101.88,55.961L103.1,55.334L104.32,51.724L105.54,59.344L106.76,89.58L107.98,85.684L109.19,55.482L111.63,73.177L112.85,62.329L114.07,92.655L115.29,79.937L116.51,62.826L117.73,51.926L118.95,73.315L120.17,59.201L121.39,48.333L125.04,87.876L126.26,51.987L127.48,48.576L128.7,45.66L129.92,62.905L131.14,63.148L132.36,45.787L133.58,79.54L134.8,89.188L136.02,46.129L137.24,67.503L138.46,73.812L139.67,61.823L140.89,57.699L142.11,49.765L143.33,50.689L144.55,49.52L145.77,48.935L146.99,78.655L148.21,51.49L149.43,54.821L150.65,53.017L151.87,58.557L153.09,53.085L154.3,55.625L155.52,64.072L156.74,57.524L157.96,54.733L159.18,51.973L160.4,57.443L161.62,58.133L162.84,82.254L164.06,63.196L165.28,55.341L166.5,58.639L167.72,57.91L168.93,55.893L170.15,54.715L171.37,55.654L172.59,56.349L173.81,59.236L175.03,59.649L176.25,60.917L177.47,56.735L178.69,58.144L179.91,60.436L181.13,59.088L182.35,58.439L183.56,60.688L184.78,59.437L186,56.067L187.22,58.373L188.44,60.277L189.66,57.706L190.88,54.992L192.1,51.42L193.32,56.875L194.54,56.905L195.76,53.573L196.98,54.377L198.19,57.597L199.41,56.213L200.63,55.668L201.85,53.065L203.07,57.325L204.29,56.115L205.51,56.925L206.73,59.708L207.95,54.508L209.17,55.359L210.39,54.998L211.61,56.024L212.82,56.483L214.04,53.056L215.26,54.556L216.48,56.315L217.7,52.613L218.92,52.831L220.14,53.203L221.36,53.101L222.58,54.996L223.8,54.138L225.02,53.532L226.24,52.119L227.45,53.001L228.67,53.696L229.89,52.355L231.11,54.043L232.33,55.198L233.55,52.892L234.77,52.963L235.99,53.896L237.21,53.719L238.43,52.418L239.65,51.642L240.87,51.329L242.08,51.581L243.3,51.467L244.52,52.963L245.74,51.878L246.96,51.41L248.18,51.792L249.4,52.178L250.62,51.236L251.84,51.193L253.06,52.048L254.28,51.442L255.5,51.161L256.71,50.982L257.93,51.059L259.15,50.911L260.37,50.482L261.59,51.011L262.81,50.628L264.03,50.464L265.25,50.462L266.47,50.426L267.69,50.003L268.91,50.103L270.13,49.922L271.34,50.106L272.56,50.185L273.78,49.763L275,50.121L276.22,49.838L277.44,49.495L278.66,49.307L279.88,49.388L281.1,49.486L282.32,49.477L283.54,49.137L284.76,49.255L285.97,49.227L287.19,49.055L288.41,48.93L289.63,48.61L290.85,48.68L292.07,48.778L293.29,48.558L294.51,48.442L295.73,48.335L296.95,48.526L298.17,48.472L299.39,48.213L300.6,48.372L301.82,48.201L303.04,48.238L304.26,48.431L305.48,48.163L306.7,47.904L307.92,47.866L309.14,47.661L310.36,47.664L311.58,47.6L312.8,47.711L314.02,47.602L315.23,47.586L316.45,47.459L317.67,47.371L318.89,47.398L320.11,47.153L321.33,47.409L322.55,47.328L323.77,47.217L324.99,47.185L326.21,47.185L327.43,47.205L328.65,47.046L329.86,46.958L331.08,47.033L332.3,46.894L333.52,46.872L334.74,46.924L335.96,46.828L337.18,46.683L338.4,46.654L339.62,46.667L340.84,46.699L342.06,46.561L343.28,46.599L344.5,46.504L345.71,46.688L346.93,46.54L348.15,46.456L349.37,46.402L350.59,46.472L351.81,46.443L353.03,46.336L354.25,46.295L355.47,46.309L356.69,46.311L357.91,46.254L359.13,46.198L360.34,46.243L361.56,46.1L362.78,46.154L364,46.021L365.22,46.041L366.44,46.084L367.66,46.052L368.88,46.077L370.1,46.03L371.32,46.002L372.54,45.962L373.76,45.948L374.97,45.871L376.19,45.962L377.41,45.887L378.63,45.844L379.85,45.83L381.07,45.834L382.29,45.766L383.51,45.83L384.73,45.791L385.95,45.739L387.17,45.769L388.39,45.75L389.6,45.714L390.82,45.687L392.04,45.642L393.26,45.737L394.48,45.707L395.7,45.642L396.92,45.58L398.14,45.61L399.36,45.612L400.58,45.614L401.8,45.646L403.02,45.655L404.23,45.58L405.45,45.537L406.67,45.562L407.89,45.56L409.11,45.519L410.33,45.555L411.55,45.487L412.77,45.503L413.99,45.519L415.21,45.446L416.43,45.453L417.65,45.399L418.86,45.49L420.08,45.399L421.3,45.421L422.52,45.424L423.74,45.449L424.96,45.426L426.18,45.381L427.4,45.444L428.62,45.349L429.84,45.385L431.06,45.39L432.28,45.362L433.49,45.324L434.71,45.403L435.93,45.333L437.15,45.326L438.37,45.333L439.59,45.337L440.81,45.351L442.03,45.353L443.25,45.301L444.47,45.335L445.69,45.301L446.91,45.288L448.12,45.285L449.34,45.319L450.56,45.265L451.78,45.303L453,45.292L454.22,45.281L455.44,45.263L456.66,45.263L457.88,45.256L459.1,45.278L460.32,45.267L461.54,45.249L462.75,45.26L463.97,45.231L465.19,45.233L466.41,45.233L467.63,45.249L468.85,45.204L470.07,45.219L471.29,45.251L472.51,45.249L473.73,45.238L474.95,45.21L476.17,45.229L477.38,45.238L478.6,45.215L479.82,45.222L481.04,45.197L482.26,45.208L483.48,45.208L484.7,45.183L485.92,45.201L487.14,45.199L488.36,45.208L489.58,45.199L490.8,45.199L492.01,45.208L493.23,45.197L494.45,45.206L495.67,45.206L496.89,45.181L498.11,45.199L499.33,45.19L500.55,45.197L501.77,45.194L502.99,45.185L504.21,45.192L505.43,45.188L506.64,45.185L507.86,45.174L509.08,45.19L510.3,45.174L511.52,45.179L512.74,45.201L513.96,45.188L515.18,45.181L516.4,45.183L517.62,45.174L518.84,45.181L520.06,45.174L521.27,45.176L522.49,45.172L523.71,45.17L524.93,45.172L526.15,45.17L527.37,45.17L528.59,45.17L529.81,45.172L531.03,45.163L532.25,45.165L533.47,45.158L534.69,45.17L535.91,45.174L537.12,45.163L538.34,45.16L539.56,45.165L540.78,45.16L542,45.167L543.22,45.172L544.44,45.163L545.66,45.158L546.88,45.154L548.1,45.154L549.32,45.158L550.54,45.16L551.75,45.156L552.97,45.165L554.19,45.158L555.41,45.156L556.63,45.156L557.85,45.163L559.07,45.154L560.29,45.156L561.51,45.16L562.73,45.151L563.95,45.151L565.17,45.158L566.38,45.154L567.6,45.156L568.82,45.154L570.04,45.156L571.26,45.154L572.48,45.151L573.7,45.154L574.92,45.156L576.14,45.154L577.36,45.154L578.58,45.151L579.8,45.154L581.01,45.158L582.23,45.154L583.45,45.154L584.67,45.154L585.89,45.151L587.11,45.151L588.33,45.151L589.55,45.154L590.77,45.156L596.86,45.154L598.08,45.151L599.3,45.151L600.52,45.154L601.74,45.151L604.18,45.151L605.4,45.151L606.62,45.151L610.27,45.151L613.93,45.151L615.15,45.151L617.59,45.154L618.81,45.151L623.69,45.151L626.12,45.151L633.44,45.151L634.66,45.151L635.88,45.151L637.1,45.151L641.97,45.154L655.38,45.151L659.04,45.151L667.58,45.151L679.77,45.151L720,45.151" style="fill:none;stroke:#0000FF" />
</g>
</svg>
