<?xml version="1.0"?>
<!-- Generated by SVGo and Plotinum VG -->
<svg width="720pt" height="432pt" viewBox="0 0 720 432"
	xmlns="http://www.w3.org/2000/svg"
	xmlns:xlink="http://www.w3.org/1999/xlink">
<g transform="scale(1, -1) translate(0, -432)">
<path d="M0,0L720,0L720,432L0,432Z" style="fill:#FFFFFF" />
<text x="358.5" y="-420.45" transform="scale(1, -1)"
	style="font-family:Times;font-weight:normal;font-style:normal;font-size:12px"> </text>
<text x="379.31" y="-3.8613" transform="scale(1, -1)"
	style="font-family:Times;font-weight:normal;font-style:normal;font-size:12px">Costs</text>
<text x="56.555" y="-18.634" transform="scale(1, -1)"
	style="font-family:Times;font-weight:normal;font-style:normal;font-size:10px">0.00</text>
<text x="332.3" y="-18.634" transform="scale(1, -1)"
	style="font-family:Times;font-weight:normal;font-style:normal;font-size:10px">250.00</text>
<text x="613.04" y="-18.634" transform="scale(1, -1)"
	style="font-family:Times;font-weight:normal;font-style:normal;font-size:10px">500.00</text>
<path d="M65.305,28.263L65.305,36.263" style="fill:none;stroke:#000000;stroke-width:0.5" />
<path d="M346.05,28.263L346.05,36.263" style="fill:none;stroke:#000000;stroke-width:0.5" />
<path d="M626.79,28.263L626.79,36.263" style="fill:none;stroke:#000000;stroke-width:0.5" />
<path d="M121.45,32.263L121.45,36.263" style="fill:none;stroke:#000000;stroke-width:0.5" />
<path d="M177.6,32.263L177.6,36.263" style="fill:none;stroke:#000000;stroke-width:0.5" />
<path d="M233.75,32.263L233.75,36.263" style="fill:none;stroke:#000000;stroke-width:0.5" />
<path d="M289.9,32.263L289.9,36.263" style="fill:none;stroke:#000000;stroke-width:0.5" />
<path d="M402.2,32.263L402.2,36.263" style="fill:none;stroke:#000000;stroke-width:0.5" />
<path d="M458.35,32.263L458.35,36.263" style="fill:none;stroke:#000000;stroke-width:0.5" />
<path d="M514.5,32.263L514.5,36.263" style="fill:none;stroke:#000000;stroke-width:0.5" />
<path d="M570.64,32.263L570.64,36.263" style="fill:none;stroke:#000000;stroke-width:0.5" />
<path d="M682.94,32.263L682.94,36.263" style="fill:none;stroke:#000000;stroke-width:0.5" />
<path d="M65.305,36.263L720,36.263" style="fill:none;stroke:#000000;stroke-width:0.5" />
<g transform="rotate(90)">
<text x="152.55" y="11.555" transform="scale(1, -1)"
	style="font-family:Times;font-weight:normal;font-style:normal;font-size:12px">Number of trials (1000000 total)</text>
</g>
<text x="24.055" y="-106.77" transform="scale(1, -1)"
	style="font-family:Times;font-weight:normal;font-style:normal;font-size:10px">20000</text>
<text x="24.055" y="-236.44" transform="scale(1, -1)"
	style="font-family:Times;font-weight:normal;font-style:normal;font-size:10px">60000</text>
<text x="19.055" y="-366.1" transform="scale(1, -1)"
	style="font-family:Times;font-weight:normal;font-style:normal;font-size:10px">100000</text>
<path d="M51.555,109.98L59.555,109.98" style="fill:none;stroke:#000000;stroke-width:0.5" />
<path d="M51.555,239.64L59.555,239.64" style="fill:none;stroke:#000000;stroke-width:0.5" />
<path d="M51.555,369.3L59.555,369.3" style="fill:none;stroke:#000000;stroke-width:0.5" />
<path d="M55.555,77.564L59.555,77.564" style="fill:none;stroke:#000000;stroke-width:0.5" />
<path d="M55.555,142.39L59.555,142.39" style="fill:none;stroke:#000000;stroke-width:0.5" />
<path d="M55.555,174.81L59.555,174.81" style="fill:none;stroke:#000000;stroke-width:0.5" />
<path d="M55.555,207.23L59.555,207.23" style="fill:none;stroke:#000000;stroke-width:0.5" />
<path d="M55.555,272.06L59.555,272.06" style="fill:none;stroke:#000000;stroke-width:0.5" />
<path d="M55.555,304.47L59.555,304.47" style="fill:none;stroke:#000000;stroke-width:0.5" />
<path d="M55.555,336.89L59.555,336.89" style="fill:none;stroke:#000000;stroke-width:0.5" />
<path d="M55.555,401.72L59.555,401.72" style="fill:none;stroke:#000000;stroke-width:0.5" />
<path d="M59.555,45.151L59.555,416.58" style="fill:none;stroke:#000000;stroke-width:0.5" />
<path d="M65.305,416.58L90.01,48.516L91.133,48.425L92.256,55.988L94.502,52.104L95.625,89.687L97.871,63.952L100.12,73.729L101.24,51.861L102.36,79.615L103.49,100.5L104.61,51.913L105.73,66.941L106.85,58.814L107.98,48.467L109.1,63.414L111.35,84.257L112.47,81.077L113.59,77.418L114.72,93.697L115.84,51.868L116.96,51.981L118.08,45.252L119.21,52.263L120.33,52.746L121.45,86.3L122.58,79.946L123.7,45.326L124.82,94.536L125.95,74.899L127.07,72.011L128.19,66.481L129.31,54.707L130.44,54.15L131.56,83.654L132.68,59.366L133.81,73.771L134.93,63.68L136.05,59.184L137.18,50.386L138.3,54.25L139.42,51.207L140.54,61.369L141.67,56.886L142.79,53.56L143.91,58.419L145.04,59.641L146.16,53.528L147.28,63.032L148.4,65.314L149.53,62.374L150.65,58.513L151.77,64.717L152.9,62.383L154.02,55.447L155.14,103.28L156.27,71.544L157.39,60.639L158.51,61.972L159.63,66.163L160.76,65.884L161.88,66.789L163,67.845L164.13,63.071L165.25,61.605L166.37,61.291L167.5,58.575L168.62,65.492L169.74,64.669L170.86,67.713L171.99,67.304L173.11,63.576L174.23,64.698L175.36,61.969L176.48,57.638L177.6,61.226L178.73,61.68L179.85,58.798L180.97,64.552L182.09,65.907L183.22,61.544L184.34,60.289L185.46,64.811L186.59,59.988L187.71,63.197L188.83,59.677L189.96,61.67L191.08,63.57L192.2,62.419L193.32,66.704L194.45,62.432L195.57,60.776L196.69,60.241L197.82,58.808L198.94,57.917L200.06,57.767L201.18,60.87L202.31,61.612L203.43,61.077L204.55,63.495L205.68,58.341L206.8,57.576L207.92,57.378L209.05,57.981L210.17,57.849L211.29,61.748L212.41,61.067L213.54,57.291L214.66,61.482L215.78,61.395L216.91,60.056L218.03,59.793L219.15,58.153L220.28,57.8L221.4,60.549L222.52,58.717L223.64,59.242L224.77,58.63L225.89,57.395L227.01,56.503L228.14,56.889L229.26,56.451L230.38,57.891L231.51,57.21L232.63,55.842L233.75,56.011L234.87,56.545L236,54.967L237.12,56.137L238.24,56.798L239.37,56.011L240.49,55.673L241.61,56.001L242.73,55.848L243.86,54.477L244.98,55.408L246.1,55.904L247.23,54.581L248.35,54.779L249.47,55.278L250.6,55.323L251.72,55.119L252.84,55.447L253.96,54.542L255.09,53.55L256.21,53.829L257.33,53.592L258.46,53.871L259.58,53.602L260.7,54.328L261.83,54.062L262.95,53.443L264.07,53.485L265.19,53.116L266.32,52.63L267.44,52.51L268.56,52.558L269.69,52.276L270.81,52.526L271.93,52.886L273.06,52.361L274.18,51.994L275.3,51.784L276.42,51.852L277.55,52.082L278.67,51.855L279.79,51.21L280.92,51.683L282.04,51.255L283.16,51.599L284.29,51.333L285.41,51.09L286.53,50.886L287.65,50.902L288.78,50.341L289.9,50.587L291.02,50.694L292.15,50.49L293.27,50.205L294.39,50.406L295.51,50.134L296.64,50.095L297.76,49.874L298.88,49.903L300.01,50.059L301.13,49.732L302.25,49.78L303.38,49.573L304.5,49.677L305.62,49.816L306.74,49.502L307.87,49.547L308.99,49.537L310.11,49.281L311.24,49.33L312.36,49.197L313.48,48.795L314.61,48.895L315.73,49.242L316.85,48.834L317.97,48.74L319.1,48.707L320.22,48.63L321.34,48.662L322.47,48.286L323.59,48.279L324.71,48.292L325.84,48.192L326.96,48.069L328.08,48.127L329.2,48.26L330.33,48.049L331.45,47.972L332.57,48.017L333.7,47.884L334.82,47.796L335.94,47.599L337.07,47.728L338.19,47.784L339.31,47.68L340.43,47.459L341.56,47.524L342.68,47.446L343.8,47.365L344.93,47.417L346.05,47.288L347.17,47.288L348.29,47.284L349.42,47.207L350.54,47.002L351.66,47.151L352.79,47.158L353.91,47.041L355.03,46.934L356.16,46.843L357.28,46.746L358.4,47.064L359.52,46.97L360.65,46.717L361.77,46.73L362.89,46.73L364.02,46.724L365.14,46.613L366.26,46.548L367.39,46.432L368.51,46.574L369.63,46.623L370.75,46.396L371.88,46.526L373,46.296L374.12,46.39L375.25,46.338L376.37,46.26L377.49,46.383L378.62,46.305L379.74,46.25L380.86,46.283L381.98,46.182L383.11,46.351L384.23,46.014L385.35,46.208L386.48,46.017L387.6,46.153L388.72,46.088L389.84,45.991L390.97,46.007L392.09,46.007L393.21,45.949L394.34,45.887L395.46,45.903L396.58,45.858L397.71,45.959L398.83,45.903L399.95,45.855L401.07,45.9L402.2,45.826L403.32,45.774L404.44,45.722L405.57,45.751L406.69,45.732L407.81,45.813L408.94,45.787L410.06,45.774L411.18,45.676L412.3,45.693L413.43,45.628L414.55,45.647L415.67,45.676L416.8,45.576L417.92,45.634L419.04,45.634L420.17,45.595L421.29,45.57L422.41,45.641L423.53,45.534L424.66,45.544L425.78,45.579L426.9,45.612L428.03,45.547L429.15,45.466L430.27,45.505L431.4,45.44L432.52,45.505L433.64,45.54L434.76,45.472L435.89,45.492L437.01,45.472L438.13,45.463L439.26,45.456L440.38,45.417L441.5,45.407L442.62,45.378L443.75,45.394L444.87,45.359L445.99,45.369L447.12,45.394L448.24,45.365L449.36,45.45L450.49,45.391L451.61,45.339L452.73,45.339L453.85,45.33L454.98,45.365L456.1,45.359L457.22,45.288L458.35,45.326L459.47,45.313L460.59,45.326L461.72,45.304L462.84,45.33L463.96,45.333L465.08,45.262L466.21,45.3L467.33,45.313L468.45,45.258L469.58,45.284L470.7,45.291L471.82,45.288L472.95,45.288L474.07,45.288L475.19,45.291L476.31,45.245L477.44,45.3L478.56,45.252L479.68,45.281L480.81,45.265L481.93,45.268L483.05,45.226L484.17,45.265L485.3,45.226L486.42,45.226L487.54,45.242L488.67,45.2L489.79,45.21L490.91,45.213L492.04,45.197L493.16,45.226L494.28,45.197L495.4,45.223L496.53,45.187L497.65,45.229L498.77,45.223L499.9,45.21L501.02,45.203L502.14,45.213L503.27,45.21L504.39,45.21L505.51,45.187L506.63,45.187L507.76,45.181L508.88,45.2L510,45.2L511.13,45.184L512.25,45.197L513.37,45.19L514.5,45.184L515.62,45.177L516.74,45.177L517.86,45.184L518.99,45.187L520.11,45.168L521.23,45.19L522.36,45.181L523.48,45.177L524.6,45.177L525.73,45.177L526.85,45.168L527.97,45.168L529.09,45.181L530.22,45.177L531.34,45.177L532.46,45.168L533.59,45.177L534.71,45.177L535.83,45.171L536.95,45.177L538.08,45.161L539.2,45.168L540.32,45.155L541.45,45.168L542.57,45.181L543.69,45.161L544.82,45.171L545.94,45.161L548.18,45.164L549.31,45.155L550.43,45.171L551.55,45.164L552.68,45.171L553.8,45.155L554.92,45.174L556.05,45.155L557.17,45.155L558.29,45.168L559.41,45.158L560.54,45.158L561.66,45.161L562.78,45.158L563.91,45.171L565.03,45.168L566.15,45.161L567.28,45.168L568.4,45.155L569.52,45.151L570.64,45.161L571.77,45.151L572.89,45.155L574.01,45.155L575.14,45.151L576.26,45.151L577.38,45.158L579.63,45.151L580.75,45.155L584.12,45.158L585.24,45.158L586.37,45.151L587.49,45.155L590.86,45.155L595.35,45.155L596.47,45.151L597.6,45.151L598.72,45.155L599.84,45.155L600.96,45.151L604.33,45.151L605.46,45.151L606.58,45.151L607.7,45.151L608.83,45.151L613.32,45.155L615.56,45.151L621.18,45.155L624.55,45.151L625.67,45.155L640.27,45.151L650.38,45.151L658.24,45.155L676.2,45.151L720,45.151" style="fill:none;stroke:#0000FF" />
</g>
</svg>
