<?xml version="1.0"?>
<!-- Generated by SVGo and Plotinum VG -->
<svg width="720pt" height="432pt" viewBox="0 0 720 432"
	xmlns="http://www.w3.org/2000/svg"
	xmlns:xlink="http://www.w3.org/1999/xlink">
<g transform="scale(1, -1) translate(0, -432)">
<path d="M0,0L720,0L720,432L0,432Z" style="fill:#FFFFFF" />
<text x="358.5" y="-420.45" transform="scale(1, -1)"
	style="font-family:Times;font-weight:normal;font-style:normal;font-size:12px"> </text>
<text x="385.56" y="-3.8613" transform="scale(1, -1)"
	style="font-family:Times;font-weight:normal;font-style:normal;font-size:12px">Costs</text>
<text x="75.305" y="-18.634" transform="scale(1, -1)"
	style="font-family:Times;font-weight:normal;font-style:normal;font-size:10px">0</text>
<text x="374.66" y="-18.634" transform="scale(1, -1)"
	style="font-family:Times;font-weight:normal;font-style:normal;font-size:10px">200</text>
<text x="679.02" y="-18.634" transform="scale(1, -1)"
	style="font-family:Times;font-weight:normal;font-style:normal;font-size:10px">400</text>
<path d="M77.805,28.263L77.805,36.263" style="fill:none;stroke:#000000;stroke-width:0.5" />
<path d="M382.16,28.263L382.16,36.263" style="fill:none;stroke:#000000;stroke-width:0.5" />
<path d="M686.52,28.263L686.52,36.263" style="fill:none;stroke:#000000;stroke-width:0.5" />
<path d="M229.98,32.263L229.98,36.263" style="fill:none;stroke:#000000;stroke-width:0.5" />
<path d="M534.34,32.263L534.34,36.263" style="fill:none;stroke:#000000;stroke-width:0.5" />
<path d="M77.805,36.263L720,36.263" style="fill:none;stroke:#000000;stroke-width:0.5" />
<g transform="rotate(90)">
<text x="152.55" y="11.555" transform="scale(1, -1)"
	style="font-family:Times;font-weight:normal;font-style:normal;font-size:12px">Number of trials (1000000 total)</text>
</g>
<text x="24.055" y="-91.733" transform="scale(1, -1)"
	style="font-family:Times;font-weight:normal;font-style:normal;font-size:10px">25000.00</text>
<text x="19.055" y="-241.1" transform="scale(1, -1)"
	style="font-family:Times;font-weight:normal;font-style:normal;font-size:10px">100000.00</text>
<text x="19.055" y="-390.47" transform="scale(1, -1)"
	style="font-family:Times;font-weight:normal;font-style:normal;font-size:10px">175000.00</text>
<path d="M64.055,94.939L72.055,94.939" style="fill:none;stroke:#000000;stroke-width:0.5" />
<path d="M64.055,244.31L72.055,244.31" style="fill:none;stroke:#000000;stroke-width:0.5" />
<path d="M64.055,393.68L72.055,393.68" style="fill:none;stroke:#000000;stroke-width:0.5" />
<path d="M68.055,169.62L72.055,169.62" style="fill:none;stroke:#000000;stroke-width:0.5" />
<path d="M68.055,318.99L72.055,318.99" style="fill:none;stroke:#000000;stroke-width:0.5" />
<path d="M72.055,45.151L72.055,416.58" style="fill:none;stroke:#000000;stroke-width:0.5" />
<path d="M77.805,416.58L111.28,60.514L112.81,60.672L117.37,64.199L118.89,55.532L120.41,82.229L121.94,62.442L124.98,55.426L126.5,71.683L128.02,55.761L129.55,89.215L131.07,77.584L132.59,55.506L134.11,64.207L135.63,59.347L137.15,76.24L138.68,61.13L140.2,67.951L141.72,71.291L143.24,70.484L144.76,74.967L146.29,56.448L147.81,67.367L150.85,49.385L152.37,60.441L153.89,64.322L155.42,47.374L156.94,46.151L158.46,87.684L159.98,48.639L161.5,48.493L163.02,57.796L164.55,65.318L166.07,48.432L167.59,72.325L169.11,51.568L170.63,70.06L172.16,56.404L173.68,65.503L175.2,51.401L176.72,53.622L178.24,55L179.76,55.518L181.29,54.554L182.81,55.99L184.33,55.298L185.85,60.664L187.37,56.938L188.9,70.891L190.42,70.359L191.94,56.987L193.46,58.133L194.98,60.003L196.5,57.523L198.03,57.085L199.55,59.732L201.07,59.395L202.59,55.426L204.11,55.462L205.64,57.077L207.16,59.176L208.68,53.962L210.2,58.523L211.72,56.203L213.24,55.882L214.77,55.553L216.29,56.254L217.81,55.46L219.33,55.822L220.85,55.135L222.37,56.738L223.9,55.486L225.42,55.366L226.94,54.241L228.46,55.633L229.98,54.872L231.51,54.948L233.03,56.816L234.55,56.221L236.07,52.421L237.59,55.095L239.11,54.689L240.64,54.57L242.16,54.356L243.68,53.972L245.2,53.45L246.72,52.399L248.25,55.187L249.77,53.11L251.29,54.102L252.81,53.395L254.33,54.414L255.85,53.169L257.38,53.046L258.9,52.174L260.42,53.008L261.94,51.16L263.46,52.285L264.98,51.901L266.51,52.271L268.03,50.222L269.55,52.245L271.07,52.086L272.59,50.377L274.12,50.877L275.64,52.034L277.16,50.644L278.68,50.931L280.2,51.331L281.72,51.222L283.25,50.602L284.77,50.997L286.29,50.776L287.81,50.087L289.33,49.883L290.86,50.15L292.38,49.933L293.9,49.991L295.42,49.766L296.94,49.788L298.46,49.66L299.99,49.682L301.51,50.005L303.03,49.491L304.55,49.188L306.07,49.378L307.59,49.184L309.12,49.154L310.64,48.904L312.16,48.846L313.68,48.655L315.2,48.728L316.73,48.527L318.25,48.844L319.77,48.368L321.29,48.322L322.81,48.21L324.33,48.326L325.86,48.047L327.38,48.007L328.9,48.035L330.42,47.794L331.94,47.808L333.47,47.792L334.99,47.866L336.51,47.772L338.03,47.378L339.55,47.525L341.07,47.681L342.6,47.378L344.12,47.438L345.64,47.396L347.16,47.308L348.68,47.169L350.21,47.254L351.73,47.151L353.25,47.053L354.77,46.912L356.29,47.041L357.81,46.804L359.34,46.856L360.86,46.858L362.38,46.775L363.9,46.719L365.42,46.701L366.94,46.725L368.47,46.653L369.99,46.549L371.51,46.595L373.03,46.526L374.55,46.41L376.08,46.496L377.6,46.47L379.12,46.35L380.64,46.338L382.16,46.306L383.68,46.231L385.21,46.255L386.73,46.165L388.25,46.207L389.77,46.121L391.29,46.109L392.82,46.149L394.34,46.129L395.86,46.066L397.38,46.079L398.9,46L400.42,46.032L401.95,45.95L403.47,45.962L404.99,45.9L406.51,45.858L408.03,45.888L409.55,45.817L411.08,45.85L412.6,45.785L414.12,45.737L415.64,45.743L417.16,45.685L418.69,45.691L420.21,45.663L421.73,45.705L423.25,45.649L424.77,45.661L426.29,45.623L427.82,45.595L429.34,45.584L430.86,45.59L432.38,45.554L433.9,45.554L435.43,45.566L436.95,45.566L438.47,45.504L439.99,45.508L441.51,45.516L443.03,45.464L444.56,45.48L446.08,45.506L447.6,45.412L449.12,45.486L450.64,45.436L452.16,45.406L453.69,45.426L455.21,45.412L456.73,45.408L458.25,45.392L459.77,45.386L461.3,45.382L462.82,45.349L464.34,45.339L465.86,45.349L467.38,45.357L468.9,45.36L470.43,45.366L471.95,45.319L473.47,45.299L474.99,45.311L476.51,45.323L478.04,45.307L479.56,45.299L481.08,45.283L482.6,45.269L484.12,45.309L485.64,45.285L487.17,45.269L488.69,45.299L490.21,45.281L491.73,45.267L493.25,45.281L494.78,45.243L496.3,45.241L497.82,45.259L499.34,45.239L500.86,45.241L502.38,45.255L503.91,45.251L505.43,45.227L506.95,45.219L508.47,45.201L509.99,45.221L511.51,45.209L513.04,45.207L514.56,45.245L516.08,45.209L517.6,45.213L519.12,45.201L520.65,45.201L522.17,45.199L523.69,45.203L525.21,45.203L526.73,45.203L528.25,45.203L529.78,45.193L531.3,45.207L532.82,45.193L534.34,45.191L535.86,45.175L537.39,45.191L538.91,45.191L540.43,45.177L541.95,45.201L543.47,45.189L544.99,45.189L546.52,45.175L548.04,45.169L549.56,45.173L551.08,45.177L552.6,45.177L554.12,45.181L555.65,45.171L557.17,45.171L558.69,45.173L560.21,45.169L561.73,45.175L563.26,45.157L564.78,45.171L566.3,45.167L567.82,45.157L569.34,45.161L570.86,45.161L572.39,45.157L573.91,45.163L575.43,45.167L576.95,45.163L578.47,45.161L580,45.167L581.52,45.167L583.04,45.167L584.56,45.161L586.08,45.159L587.6,45.163L589.13,45.169L590.65,45.161L592.17,45.157L593.69,45.155L595.21,45.157L596.74,45.153L598.26,45.163L599.78,45.161L601.3,45.155L602.82,45.155L604.34,45.151L607.39,45.155L608.91,45.157L610.43,45.153L611.95,45.153L613.47,45.159L615,45.157L616.52,45.153L618.04,45.153L619.56,45.159L622.61,45.157L624.13,45.151L625.65,45.155L627.17,45.151L628.69,45.157L630.21,45.151L631.74,45.153L633.26,45.151L634.78,45.153L636.3,45.155L639.35,45.151L640.87,45.153L643.91,45.155L645.43,45.155L648.48,45.153L651.52,45.151L659.13,45.153L665.22,45.151L672.82,45.153L675.87,45.151L680.43,45.151L683.48,45.151L689.56,45.151L695.65,45.151L697.17,45.151L698.69,45.151L720,45.151" style="fill:none;stroke:#0000FF" />
</g>
</svg>
