<?xml version="1.0"?>
<!-- Generated by SVGo and Plotinum VG -->
<svg width="720pt" height="432pt" viewBox="0 0 720 432"
	xmlns="http://www.w3.org/2000/svg"
	xmlns:xlink="http://www.w3.org/1999/xlink">
<g transform="scale(1, -1) translate(0, -432)">
<path d="M0,0L720,0L720,432L0,432Z" style="fill:#FFFFFF" />
<text x="358.5" y="-420.45" transform="scale(1, -1)"
	style="font-family:Times;font-weight:normal;font-style:normal;font-size:12px"> </text>
<text x="379.31" y="-3.8613" transform="scale(1, -1)"
	style="font-family:Times;font-weight:normal;font-style:normal;font-size:12px">Costs</text>
<text x="62.805" y="-18.634" transform="scale(1, -1)"
	style="font-family:Times;font-weight:normal;font-style:normal;font-size:10px">0</text>
<text x="244.86" y="-18.634" transform="scale(1, -1)"
	style="font-family:Times;font-weight:normal;font-style:normal;font-size:10px">100</text>
<text x="431.92" y="-18.634" transform="scale(1, -1)"
	style="font-family:Times;font-weight:normal;font-style:normal;font-size:10px">200</text>
<text x="618.97" y="-18.634" transform="scale(1, -1)"
	style="font-family:Times;font-weight:normal;font-style:normal;font-size:10px">300</text>
<path d="M65.305,28.263L65.305,36.263" style="fill:none;stroke:#000000;stroke-width:0.5" />
<path d="M252.36,28.263L252.36,36.263" style="fill:none;stroke:#000000;stroke-width:0.5" />
<path d="M439.42,28.263L439.42,36.263" style="fill:none;stroke:#000000;stroke-width:0.5" />
<path d="M626.47,28.263L626.47,36.263" style="fill:none;stroke:#000000;stroke-width:0.5" />
<path d="M102.72,32.263L102.72,36.263" style="fill:none;stroke:#000000;stroke-width:0.5" />
<path d="M140.13,32.263L140.13,36.263" style="fill:none;stroke:#000000;stroke-width:0.5" />
<path d="M177.54,32.263L177.54,36.263" style="fill:none;stroke:#000000;stroke-width:0.5" />
<path d="M214.95,32.263L214.95,36.263" style="fill:none;stroke:#000000;stroke-width:0.5" />
<path d="M289.77,32.263L289.77,36.263" style="fill:none;stroke:#000000;stroke-width:0.5" />
<path d="M327.18,32.263L327.18,36.263" style="fill:none;stroke:#000000;stroke-width:0.5" />
<path d="M364.59,32.263L364.59,36.263" style="fill:none;stroke:#000000;stroke-width:0.5" />
<path d="M402.01,32.263L402.01,36.263" style="fill:none;stroke:#000000;stroke-width:0.5" />
<path d="M476.83,32.263L476.83,36.263" style="fill:none;stroke:#000000;stroke-width:0.5" />
<path d="M514.24,32.263L514.24,36.263" style="fill:none;stroke:#000000;stroke-width:0.5" />
<path d="M551.65,32.263L551.65,36.263" style="fill:none;stroke:#000000;stroke-width:0.5" />
<path d="M589.06,32.263L589.06,36.263" style="fill:none;stroke:#000000;stroke-width:0.5" />
<path d="M663.88,32.263L663.88,36.263" style="fill:none;stroke:#000000;stroke-width:0.5" />
<path d="M701.29,32.263L701.29,36.263" style="fill:none;stroke:#000000;stroke-width:0.5" />
<path d="M65.305,36.263L720,36.263" style="fill:none;stroke:#000000;stroke-width:0.5" />
<g transform="rotate(90)">
<text x="152.55" y="11.555" transform="scale(1, -1)"
	style="font-family:Times;font-weight:normal;font-style:normal;font-size:12px">Number of trials (1000000 total)</text>
</g>
<text x="19.055" y="-113.9" transform="scale(1, -1)"
	style="font-family:Times;font-weight:normal;font-style:normal;font-size:10px">100000</text>
<text x="19.055" y="-257.81" transform="scale(1, -1)"
	style="font-family:Times;font-weight:normal;font-style:normal;font-size:10px">300000</text>
<text x="19.055" y="-401.72" transform="scale(1, -1)"
	style="font-family:Times;font-weight:normal;font-style:normal;font-size:10px">500000</text>
<path d="M51.555,117.1L59.555,117.1" style="fill:none;stroke:#000000;stroke-width:0.5" />
<path d="M51.555,261.01L59.555,261.01" style="fill:none;stroke:#000000;stroke-width:0.5" />
<path d="M51.555,404.92L59.555,404.92" style="fill:none;stroke:#000000;stroke-width:0.5" />
<path d="M55.555,189.06L59.555,189.06" style="fill:none;stroke:#000000;stroke-width:0.5" />
<path d="M55.555,332.97L59.555,332.97" style="fill:none;stroke:#000000;stroke-width:0.5" />
<path d="M59.555,45.151L59.555,416.58" style="fill:none;stroke:#000000;stroke-width:0.5" />
<path d="M65.305,416.58L108.33,48.571L115.81,52.259L117.68,84.805L123.29,51.998L125.16,48.567L128.9,82.829L138.26,51.961L140.13,59.07L142,48.522L143.87,55.647L151.35,55.49L156.96,52.191L158.83,55.714L160.7,52.549L164.44,55.801L166.31,52.269L168.19,45.94L170.06,45.941L171.93,45.492L173.8,52.301L175.67,52.892L177.54,45.526L179.41,56.692L181.28,66.44L183.15,45.354L186.89,45.918L188.76,45.647L190.63,46.159L192.5,46.726L194.37,45.828L196.24,46.428L198.11,45.468L199.98,45.385L201.86,46.421L203.73,54.728L205.6,45.523L207.47,46.418L209.34,53.217L211.21,46.442L213.08,46.199L214.95,57.094L216.82,47.043L218.69,46.657L220.56,45.965L222.43,46.48L224.3,46.534L226.17,46.452L228.04,47.101L229.91,46.53L231.78,47.327L233.65,47.889L235.53,45.77L237.4,46.649L239.27,47.111L241.14,45.736L243.01,46.818L244.88,47.569L246.75,45.604L248.62,45.565L250.49,46.053L252.36,46.057L254.23,46.531L256.1,47.121L257.97,46.039L259.84,46.508L261.71,46.388L263.58,45.272L265.45,46.113L267.32,48.186L269.2,45.585L271.07,45.601L272.94,46.858L274.81,46.456L276.68,45.931L278.55,46.837L280.42,46.17L282.29,46.064L284.16,45.713L286.03,45.394L287.9,45.906L289.77,46.508L291.64,45.809L293.51,45.58L295.38,46.252L297.25,45.706L299.12,45.371L301,45.687L302.87,45.828L304.74,45.552L306.61,45.607L308.48,45.792L310.35,45.667L312.22,45.461L314.09,45.697L315.96,45.529L317.83,45.795L319.7,45.934L321.57,45.31L323.44,45.811L325.31,45.957L327.18,45.336L329.05,45.611L330.92,45.979L332.79,45.391L334.67,45.384L336.54,45.359L338.41,45.349L340.28,45.4L342.15,45.413L344.02,45.351L345.89,45.364L347.76,45.531L349.63,45.29L351.5,45.347L353.37,45.635L355.24,45.336L357.11,45.27L358.98,45.561L360.85,45.318L362.72,45.268L364.59,45.288L366.46,45.349L368.34,45.302L370.21,45.315L372.08,45.313L373.95,45.29L375.82,45.329L377.69,45.303L379.56,45.234L381.43,45.323L383.3,45.361L385.17,45.222L387.04,45.256L388.91,45.311L390.78,45.228L392.65,45.237L394.52,45.293L396.39,45.243L398.26,45.238L400.13,45.224L402.01,45.211L403.88,45.243L405.75,45.256L407.62,45.199L409.49,45.225L411.36,45.261L413.23,45.201L415.1,45.201L416.97,45.236L418.84,45.213L420.71,45.199L422.58,45.214L424.45,45.212L426.32,45.213L428.19,45.203L430.06,45.195L431.93,45.191L433.8,45.215L435.68,45.19L437.55,45.175L439.42,45.217L441.29,45.193L443.16,45.172L445.03,45.192L446.9,45.195L448.77,45.184L450.64,45.169L452.51,45.182L454.38,45.174L456.25,45.178L458.12,45.179L459.99,45.164L461.86,45.172L463.73,45.179L465.6,45.171L467.47,45.175L469.35,45.185L471.22,45.159L473.09,45.169L474.96,45.174L476.83,45.166L478.7,45.164L480.57,45.168L482.44,45.161L484.31,45.166L486.18,45.165L488.05,45.159L489.92,45.162L491.79,45.164L493.66,45.16L495.53,45.161L497.4,45.169L499.27,45.159L501.14,45.159L503.02,45.157L504.89,45.166L506.76,45.156L508.63,45.161L510.5,45.157L512.37,45.156L514.24,45.156L516.11,45.16L517.98,45.156L519.85,45.155L521.72,45.155L523.59,45.154L525.46,45.16L527.33,45.158L529.2,45.154L531.07,45.155L532.94,45.161L534.81,45.155L536.69,45.155L538.56,45.154L540.43,45.155L542.3,45.154L544.17,45.155L546.04,45.151L547.91,45.154L549.78,45.157L551.65,45.152L553.52,45.153L555.39,45.154L557.26,45.151L559.13,45.151L561,45.154L562.87,45.153L564.74,45.153L568.48,45.151L570.36,45.152L572.23,45.153L577.84,45.151L579.71,45.152L581.58,45.154L583.45,45.153L585.32,45.151L587.19,45.151L589.06,45.152L590.93,45.151L592.8,45.151L594.67,45.153L598.41,45.151L600.28,45.152L602.15,45.151L605.9,45.151L607.77,45.151L609.64,45.151L613.38,45.151L618.99,45.151L620.86,45.151L630.21,45.151L648.92,45.151L658.27,45.151L675.11,45.151L693.81,45.151L720,45.151" style="fill:none;stroke:#0000FF" />
</g>
</svg>
