<?xml version="1.0"?>
<!-- Generated by SVGo and Plotinum VG -->
<svg width="720pt" height="432pt" viewBox="0 0 720 432"
	xmlns="http://www.w3.org/2000/svg"
	xmlns:xlink="http://www.w3.org/1999/xlink">
<g transform="scale(1, -1) translate(0, -432)">
<path d="M0,0L720,0L720,432L0,432Z" style="fill:#FFFFFF" />
<text x="358.5" y="-420.45" transform="scale(1, -1)"
	style="font-family:Times;font-weight:normal;font-style:normal;font-size:12px"> </text>
<text x="374.36" y="-3.8613" transform="scale(1, -1)"
	style="font-family:Times;font-weight:normal;font-style:normal;font-size:12px">Costs</text>
<text x="56.555" y="-18.634" transform="scale(1, -1)"
	style="font-family:Times;font-weight:normal;font-style:normal;font-size:10px">0.00</text>
<text x="372.03" y="-18.634" transform="scale(1, -1)"
	style="font-family:Times;font-weight:normal;font-style:normal;font-size:10px">250.00</text>
<text x="692.5" y="-18.634" transform="scale(1, -1)"
	style="font-family:Times;font-weight:normal;font-style:normal;font-size:10px">500.00</text>
<path d="M65.305,28.263L65.305,36.263" style="fill:none;stroke:#000000;stroke-width:0.5" />
<path d="M385.78,28.263L385.78,36.263" style="fill:none;stroke:#000000;stroke-width:0.5" />
<path d="M706.25,28.263L706.25,36.263" style="fill:none;stroke:#000000;stroke-width:0.5" />
<path d="M129.4,32.263L129.4,36.263" style="fill:none;stroke:#000000;stroke-width:0.5" />
<path d="M193.49,32.263L193.49,36.263" style="fill:none;stroke:#000000;stroke-width:0.5" />
<path d="M257.59,32.263L257.59,36.263" style="fill:none;stroke:#000000;stroke-width:0.5" />
<path d="M321.68,32.263L321.68,36.263" style="fill:none;stroke:#000000;stroke-width:0.5" />
<path d="M449.87,32.263L449.87,36.263" style="fill:none;stroke:#000000;stroke-width:0.5" />
<path d="M513.97,32.263L513.97,36.263" style="fill:none;stroke:#000000;stroke-width:0.5" />
<path d="M578.06,32.263L578.06,36.263" style="fill:none;stroke:#000000;stroke-width:0.5" />
<path d="M642.16,32.263L642.16,36.263" style="fill:none;stroke:#000000;stroke-width:0.5" />
<path d="M65.305,36.263L710.1,36.263" style="fill:none;stroke:#000000;stroke-width:0.5" />
<g transform="rotate(90)">
<text x="152.55" y="11.555" transform="scale(1, -1)"
	style="font-family:Times;font-weight:normal;font-style:normal;font-size:12px">Number of trials (1000000 total)</text>
</g>
<text x="24.055" y="-108.95" transform="scale(1, -1)"
	style="font-family:Times;font-weight:normal;font-style:normal;font-size:10px">30000</text>
<text x="24.055" y="-242.95" transform="scale(1, -1)"
	style="font-family:Times;font-weight:normal;font-style:normal;font-size:10px">90000</text>
<text x="19.055" y="-376.95" transform="scale(1, -1)"
	style="font-family:Times;font-weight:normal;font-style:normal;font-size:10px">150000</text>
<path d="M51.555,112.15L59.555,112.15" style="fill:none;stroke:#000000;stroke-width:0.5" />
<path d="M51.555,246.15L59.555,246.15" style="fill:none;stroke:#000000;stroke-width:0.5" />
<path d="M51.555,380.16L59.555,380.16" style="fill:none;stroke:#000000;stroke-width:0.5" />
<path d="M55.555,179.15L59.555,179.15" style="fill:none;stroke:#000000;stroke-width:0.5" />
<path d="M55.555,313.16L59.555,313.16" style="fill:none;stroke:#000000;stroke-width:0.5" />
<path d="M59.555,45.151L59.555,416.58" style="fill:none;stroke:#000000;stroke-width:0.5" />
<path d="M65.305,416.58L93.506,51.907L94.788,48.593L96.07,59.959L98.634,52.948L101.2,64.041L102.48,64.254L103.76,48.557L105.04,62.78L106.33,65.962L107.61,84.685L108.89,98.045L110.17,71.202L111.45,55.519L112.73,56.12L114.02,66.916L115.3,63.537L116.58,75.108L117.86,80.988L120.43,68.792L121.71,86.281L122.99,48.459L124.27,77.448L125.55,45.299L126.84,45.288L128.12,63.744L129.4,49.16L130.68,61.107L131.96,46.212L133.24,78.583L134.53,46.063L135.81,50.44L137.09,74.596L138.37,52.209L139.65,63.45L140.94,62.594L142.22,49.149L143.5,63.023L144.78,59.742L146.06,62.212L147.35,50.775L148.63,53.165L149.91,53.886L151.19,56.202L152.47,55.927L153.76,55.874L155.04,54.572L156.32,54.022L157.6,58.185L158.88,71.677L160.16,73.265L161.45,59.7L162.73,54.777L164.01,77.091L165.29,59.137L166.57,58.06L167.86,71.083L169.14,66.911L170.42,56.325L171.7,55.01L172.98,59.548L174.27,58.268L175.55,55.659L176.83,60.892L178.11,52.89L179.39,56.484L180.67,59.485L181.96,55.027L183.24,56.542L184.52,56.323L185.8,56.314L187.08,56.124L188.37,56.841L189.65,59.206L190.93,51.662L192.21,57.024L193.49,54.616L194.78,53.607L196.06,58.78L197.34,53.841L198.62,54.444L199.9,55.758L201.19,55.68L202.47,57.498L203.75,55.84L205.03,57.212L206.31,54.67L207.59,56.026L208.88,56.953L210.16,55.816L211.44,58.784L212.72,57.198L214,54.364L215.29,56.376L216.57,55.822L217.85,55.081L219.13,55.206L220.41,55.568L221.7,52.738L222.98,54.219L224.26,53.942L225.54,52.736L226.82,54.125L228.1,52.888L229.39,51.957L230.67,52.066L231.95,54.494L233.23,52.392L234.51,52.055L235.8,54.016L237.08,52.104L238.36,52.495L239.64,53.435L240.92,52.021L242.21,52.032L243.49,51.957L244.77,52.077L246.05,51.269L247.33,51.383L248.62,52.086L249.9,50.581L251.18,50.864L252.46,51.135L253.74,51.112L255.02,51.11L256.31,50.793L257.59,51.615L258.87,51.369L260.15,50.84L261.43,51.228L262.72,51.186L264,51.249L265.28,50.219L266.56,50.963L267.84,51.126L269.13,49.864L270.41,50.176L271.69,50.232L272.97,49.716L274.25,49.674L275.53,49.806L276.82,49.634L278.1,49.482L279.38,49.667L280.66,49.377L281.94,49.145L283.23,49.408L284.51,49.176L285.79,48.781L287.07,48.975L288.35,48.993L289.64,48.669L290.92,48.81L292.2,48.843L293.48,48.403L294.76,48.571L296.05,48.262L297.33,48.144L298.61,48.314L299.89,48.262L301.17,48.309L302.45,47.907L303.74,48.249L305.02,47.974L306.3,47.941L307.58,47.986L308.86,47.849L310.15,47.948L311.43,47.927L312.71,47.767L313.99,47.825L315.27,47.659L316.56,47.673L317.84,47.575L319.12,47.487L320.4,47.371L321.68,47.342L322.96,47.251L324.25,47.159L325.53,47.164L326.81,47.15L328.09,47.059L329.37,47.059L330.66,47.083L331.94,46.884L333.22,46.949L334.5,46.989L335.78,46.911L337.07,46.728L338.35,46.786L339.63,46.764L340.91,46.73L342.19,46.679L343.47,46.679L344.76,46.507L346.04,46.63L347.32,46.451L348.6,46.576L349.88,46.346L351.17,46.429L352.45,46.413L353.73,46.335L355.01,46.357L356.29,46.255L357.58,46.331L358.86,46.362L360.14,46.246L361.42,46.25L362.7,46.096L363.99,46.094L365.27,46.109L366.55,46.181L367.83,46.065L369.11,46.04L370.39,45.982L371.68,46.031L372.96,45.922L374.24,45.944L375.52,45.982L376.8,45.853L378.09,45.989L379.37,45.875L380.65,45.873L381.93,45.868L383.21,45.779L384.5,45.833L385.78,45.833L387.06,45.792L388.34,45.73L389.62,45.725L390.9,45.69L392.19,45.752L393.47,45.656L394.75,45.649L396.03,45.67L397.31,45.667L398.6,45.663L399.88,45.634L401.16,45.58L402.44,45.531L403.72,45.62L405.01,45.504L406.29,45.551L407.57,45.538L408.85,45.598L410.13,45.522L411.42,45.491L412.7,45.462L413.98,45.493L415.26,45.466L416.54,45.48L417.82,45.498L419.11,45.491L420.39,45.41L421.67,45.446L422.95,45.466L424.23,45.413L425.52,45.444L426.8,45.39L428.08,45.379L429.36,45.433L430.64,45.366L431.93,45.395L433.21,45.368L434.49,45.366L435.77,45.381L437.05,45.375L438.33,45.355L439.62,45.341L440.9,45.359L442.18,45.33L443.46,45.308L444.74,45.305L446.03,45.297L447.31,45.281L448.59,45.314L449.87,45.285L451.15,45.31L452.44,45.305L453.72,45.276L455,45.294L456.28,45.265L457.56,45.297L458.85,45.283L460.13,45.279L461.41,45.23L462.69,45.263L463.97,45.265L465.25,45.272L466.54,45.252L467.82,45.243L469.1,45.236L470.38,45.265L471.66,45.268L472.95,45.243L474.23,45.216L475.51,45.221L476.79,45.247L478.07,45.238L479.36,45.212L480.64,45.214L481.92,45.234L483.2,45.212L484.48,45.218L485.76,45.201L487.05,45.227L488.33,45.209L489.61,45.221L490.89,45.205L492.17,45.209L493.46,45.198L494.74,45.207L496.02,45.201L497.3,45.192L498.58,45.203L499.87,45.194L501.15,45.216L502.43,45.183L503.71,45.194L504.99,45.198L506.28,45.185L507.56,45.169L508.84,45.178L510.12,45.196L511.4,45.18L512.68,45.178L513.97,45.174L515.25,45.176L516.53,45.185L517.81,45.174L519.09,45.18L520.38,45.189L521.66,45.178L522.94,45.189L524.22,45.18L525.5,45.167L526.79,45.174L528.07,45.18L529.35,45.176L530.63,45.18L531.91,45.165L533.19,45.176L534.48,45.167L535.76,45.16L537.04,45.16L538.32,45.156L539.6,45.16L540.89,45.171L542.17,45.165L543.45,45.156L544.73,45.169L546.01,45.16L547.3,45.165L548.58,45.167L549.86,45.16L551.14,45.16L552.42,45.16L553.71,45.156L554.99,45.16L556.27,45.156L557.55,45.163L558.83,45.167L560.11,45.154L561.4,45.158L562.68,45.154L563.96,45.154L565.24,45.151L566.52,45.156L567.81,45.156L569.09,45.156L570.37,45.169L571.65,45.158L572.93,45.154L574.22,45.156L575.5,45.16L576.78,45.158L578.06,45.156L579.34,45.158L580.62,45.151L581.91,45.154L583.19,45.151L584.47,45.154L585.75,45.156L587.03,45.151L588.32,45.154L589.6,45.151L590.88,45.16L593.44,45.154L594.73,45.154L596.01,45.151L597.29,45.154L598.57,45.154L599.85,45.151L601.13,45.154L602.42,45.156L603.7,45.154L604.98,45.154L606.26,45.158L608.83,45.154L610.11,45.151L612.67,45.154L613.95,45.154L615.24,45.151L617.8,45.151L620.36,45.154L625.49,45.154L629.34,45.151L631.9,45.151L633.18,45.151L634.46,45.151L637.03,45.151L639.59,45.154L640.87,45.154L642.16,45.151L643.44,45.151L647.28,45.151L649.85,45.151L652.41,45.151L660.1,45.154L666.51,45.151L693.43,45.151L701.12,45.151L707.53,45.151L710.1,45.151" style="fill:none;stroke:#0000FF" />
</g>
</svg>
