<?xml version="1.0"?>
<!-- Generated by SVGo and Plotinum VG -->
<svg width="720pt" height="432pt" viewBox="0 0 720 432"
	xmlns="http://www.w3.org/2000/svg"
	xmlns:xlink="http://www.w3.org/1999/xlink">
<g transform="scale(1, -1) translate(0, -432)">
<path d="M0,0L720,0L720,432L0,432Z" style="fill:#FFFFFF" />
<text x="358.5" y="-420.45" transform="scale(1, -1)"
	style="font-family:Times;font-weight:normal;font-style:normal;font-size:12px"> </text>
<text x="385.56" y="-3.8613" transform="scale(1, -1)"
	style="font-family:Times;font-weight:normal;font-style:normal;font-size:12px">Costs</text>
<text x="69.055" y="-18.634" transform="scale(1, -1)"
	style="font-family:Times;font-weight:normal;font-style:normal;font-size:10px">0.00</text>
<text x="355.43" y="-18.634" transform="scale(1, -1)"
	style="font-family:Times;font-weight:normal;font-style:normal;font-size:10px">250.00</text>
<text x="646.81" y="-18.634" transform="scale(1, -1)"
	style="font-family:Times;font-weight:normal;font-style:normal;font-size:10px">500.00</text>
<path d="M77.805,28.263L77.805,36.263" style="fill:none;stroke:#000000;stroke-width:0.5" />
<path d="M369.18,28.263L369.18,36.263" style="fill:none;stroke:#000000;stroke-width:0.5" />
<path d="M660.56,28.263L660.56,36.263" style="fill:none;stroke:#000000;stroke-width:0.5" />
<path d="M136.08,32.263L136.08,36.263" style="fill:none;stroke:#000000;stroke-width:0.5" />
<path d="M194.36,32.263L194.36,36.263" style="fill:none;stroke:#000000;stroke-width:0.5" />
<path d="M252.63,32.263L252.63,36.263" style="fill:none;stroke:#000000;stroke-width:0.5" />
<path d="M310.91,32.263L310.91,36.263" style="fill:none;stroke:#000000;stroke-width:0.5" />
<path d="M427.46,32.263L427.46,36.263" style="fill:none;stroke:#000000;stroke-width:0.5" />
<path d="M485.73,32.263L485.73,36.263" style="fill:none;stroke:#000000;stroke-width:0.5" />
<path d="M544.01,32.263L544.01,36.263" style="fill:none;stroke:#000000;stroke-width:0.5" />
<path d="M602.28,32.263L602.28,36.263" style="fill:none;stroke:#000000;stroke-width:0.5" />
<path d="M718.83,32.263L718.83,36.263" style="fill:none;stroke:#000000;stroke-width:0.5" />
<path d="M77.805,36.263L720,36.263" style="fill:none;stroke:#000000;stroke-width:0.5" />
<g transform="rotate(90)">
<text x="152.55" y="11.555" transform="scale(1, -1)"
	style="font-family:Times;font-weight:normal;font-style:normal;font-size:12px">Number of trials (1000000 total)</text>
</g>
<text x="24.055" y="-110.75" transform="scale(1, -1)"
	style="font-family:Times;font-weight:normal;font-style:normal;font-size:10px">25000.00</text>
<text x="24.055" y="-248.35" transform="scale(1, -1)"
	style="font-family:Times;font-weight:normal;font-style:normal;font-size:10px">75000.00</text>
<text x="19.055" y="-385.96" transform="scale(1, -1)"
	style="font-family:Times;font-weight:normal;font-style:normal;font-size:10px">125000.00</text>
<path d="M64.055,113.95L72.055,113.95" style="fill:none;stroke:#000000;stroke-width:0.5" />
<path d="M64.055,251.56L72.055,251.56" style="fill:none;stroke:#000000;stroke-width:0.5" />
<path d="M64.055,389.17L72.055,389.17" style="fill:none;stroke:#000000;stroke-width:0.5" />
<path d="M68.055,58.909L72.055,58.909" style="fill:none;stroke:#000000;stroke-width:0.5" />
<path d="M68.055,86.431L72.055,86.431" style="fill:none;stroke:#000000;stroke-width:0.5" />
<path d="M68.055,141.47L72.055,141.47" style="fill:none;stroke:#000000;stroke-width:0.5" />
<path d="M68.055,169L72.055,169" style="fill:none;stroke:#000000;stroke-width:0.5" />
<path d="M68.055,196.52L72.055,196.52" style="fill:none;stroke:#000000;stroke-width:0.5" />
<path d="M68.055,224.04L72.055,224.04" style="fill:none;stroke:#000000;stroke-width:0.5" />
<path d="M68.055,279.08L72.055,279.08" style="fill:none;stroke:#000000;stroke-width:0.5" />
<path d="M68.055,306.6L72.055,306.6" style="fill:none;stroke:#000000;stroke-width:0.5" />
<path d="M68.055,334.12L72.055,334.12" style="fill:none;stroke:#000000;stroke-width:0.5" />
<path d="M68.055,361.65L72.055,361.65" style="fill:none;stroke:#000000;stroke-width:0.5" />
<path d="M72.055,45.151L72.055,416.58" style="fill:none;stroke:#000000;stroke-width:0.5" />
<path d="M77.805,416.58L103.45,51.845L104.61,55.483L105.78,52.125L108.11,69.951L109.27,55.428L110.44,65.181L111.6,55.626L112.77,52.007L113.94,55.312L116.27,65.988L117.43,72.857L118.6,80.456L119.76,52.01L120.93,48.503L122.09,69.081L123.26,72.962L124.43,69.546L125.59,65.424L126.76,58.75L127.92,72.067L129.09,99.71L130.25,55.51L131.42,81.293L132.58,45.347L133.75,56.053L134.91,73.933L136.08,73.482L137.25,52.687L138.41,46.401L139.58,99.005L140.74,70.493L141.91,46.904L143.07,60.921L144.24,55.191L145.4,54.195L146.57,73.358L147.74,55.461L148.9,67.978L150.07,60.552L151.23,71.203L152.4,50.485L153.56,50.802L154.73,52.131L155.89,67.581L157.06,53.975L158.22,54.553L159.39,54.93L160.56,60.368L161.72,58.175L162.89,59.95L164.05,56.498L165.22,55.835L166.38,56.917L167.55,70.507L168.71,58.791L169.88,62.85L171.05,61.995L172.21,80.431L173.38,59.911L174.54,61.54L175.71,63.076L176.87,61.067L178.04,58.956L179.2,64.802L180.37,63.957L181.53,62.812L182.7,59.966L183.87,58.909L185.03,61.43L186.2,63.313L187.36,63.949L188.53,59.556L189.69,60.574L190.86,64.835L192.02,60.602L193.19,61.301L194.36,59.435L195.52,57.93L196.69,61.876L197.85,62.473L199.02,58.117L200.18,59.143L201.35,59.306L202.51,62.38L203.68,56.361L204.85,58.673L206.01,57.049L207.18,57.935L208.34,59.859L209.51,57.685L210.67,56.727L211.84,58.904L213,60.184L214.17,57.376L215.33,54.192L216.5,55.943L217.67,59.493L218.83,58.386L220,56.831L221.16,56.735L222.33,57.418L223.49,58.334L224.66,57.195L225.82,57.434L226.99,55.095L228.16,55.31L229.32,59.028L230.49,56.735L231.65,55.177L232.82,55.318L233.98,58.1L235.15,56.022L236.31,55.626L237.48,55.772L238.64,56.405L239.81,55.065L240.98,56.79L242.14,54.792L243.31,55.406L244.47,55.026L245.64,55.332L246.8,53.79L247.97,54.443L249.13,54.184L250.3,54.822L251.47,53.865L252.63,53.777L253.8,53.958L254.96,53.556L256.13,53.515L257.29,53.08L258.46,53.419L259.62,53.529L260.79,52.945L261.96,53.463L263.12,52.747L264.29,53.083L265.45,52.794L266.62,52.522L267.78,52.233L268.95,52.475L270.11,52.654L271.28,52.42L272.44,51.779L273.61,51.908L274.78,51.836L275.94,52.114L277.11,51.242L278.27,51.368L279.44,51.47L280.6,51.729L281.77,51.333L282.93,51.413L284.1,51.052L285.27,51.137L286.43,51.187L287.6,50.986L288.76,50.502L289.93,50.535L291.09,50.771L292.26,50.719L293.42,49.78L294.59,50.526L295.75,50.102L296.92,50.102L298.09,49.926L299.25,49.811L300.42,49.78L301.58,49.769L302.75,49.761L303.91,49.673L305.08,49.189L306.24,49.483L307.41,49.453L308.58,49.186L309.74,49.189L310.91,49.015L312.07,49.161L313.24,48.892L314.4,48.831L315.57,48.892L316.73,48.655L317.9,48.564L319.06,48.537L320.23,48.437L321.4,48.371L322.56,48.294L323.73,48.36L324.89,48.27L326.06,48.074L327.22,48.292L328.39,48.165L329.55,48.08L330.72,48.198L331.89,47.953L333.05,47.881L334.22,47.862L335.38,47.788L336.55,47.606L337.71,47.526L338.88,47.609L340.04,47.609L341.21,47.502L342.38,47.573L343.54,47.32L344.71,47.301L345.87,47.331L347.04,47.293L348.2,47.276L349.37,47.257L350.53,47.293L351.7,47.155L352.86,47.026L354.03,47.119L355.2,46.896L356.36,46.979L357.53,46.858L358.69,46.918L359.86,46.899L361.02,46.723L362.19,46.8L363.35,46.69L364.52,46.673L365.69,46.69L366.85,46.69L368.02,46.508L369.18,46.508L370.35,46.53L371.51,46.483L372.68,46.393L373.84,46.398L375.01,46.395L376.17,46.368L377.34,46.241L378.51,46.406L379.67,46.338L380.84,46.318L382,46.285L383.17,46.238L384.33,46.192L385.5,46.159L386.66,46.175L387.83,46.178L389,46.082L390.16,46.101L391.33,46.117L392.49,45.955L393.66,45.927L394.82,45.947L395.99,45.974L397.15,45.914L398.32,45.969L399.49,45.911L400.65,45.828L401.82,45.905L402.98,45.776L404.15,45.861L405.31,45.834L406.48,45.702L407.64,45.804L408.81,45.79L409.97,45.713L411.14,45.773L412.31,45.771L413.47,45.762L414.64,45.68L415.8,45.721L416.97,45.663L418.13,45.677L419.3,45.674L420.46,45.625L421.63,45.616L422.8,45.644L423.96,45.586L425.13,45.515L426.29,45.594L427.46,45.542L428.62,45.542L429.79,45.487L430.95,45.534L432.12,45.537L433.28,45.471L434.45,45.454L435.62,45.523L436.78,45.506L437.95,45.44L439.11,45.399L440.28,45.487L441.44,45.457L442.61,45.468L443.77,45.473L444.94,45.413L446.11,45.429L447.27,45.369L448.44,45.396L449.6,45.416L450.77,45.396L451.93,45.339L453.1,45.372L454.26,45.361L455.43,45.394L456.6,45.35L457.76,45.363L458.93,45.344L460.09,45.339L461.26,45.328L462.42,45.358L463.59,45.339L464.75,45.314L465.92,45.319L467.08,45.352L468.25,45.297L469.42,45.347L470.58,45.278L471.75,45.286L472.91,45.289L474.08,45.3L475.24,45.314L476.41,45.294L477.57,45.261L478.74,45.308L479.91,45.283L481.07,45.3L482.24,45.289L483.4,45.25L484.57,45.275L485.73,45.253L486.9,45.245L488.06,45.253L489.23,45.237L490.39,45.237L491.56,45.228L492.73,45.248L493.89,45.228L495.06,45.212L496.22,45.22L497.39,45.22L498.55,45.223L499.72,45.209L500.88,45.226L502.05,45.237L503.22,45.22L504.38,45.212L505.55,45.195L506.71,45.204L507.88,45.215L509.04,45.239L510.21,45.209L511.37,45.195L512.54,45.182L513.7,45.198L514.87,45.176L516.04,45.206L517.2,45.204L518.37,45.182L519.53,45.201L520.7,45.179L521.86,45.193L523.03,45.193L524.19,45.182L525.36,45.204L526.53,45.173L527.69,45.184L528.86,45.19L530.02,45.182L531.19,45.179L532.35,45.168L533.52,45.198L534.68,45.182L535.85,45.193L537.02,45.165L538.18,45.171L539.35,45.173L540.51,45.171L541.68,45.182L542.84,45.179L544.01,45.182L545.17,45.171L546.34,45.165L547.5,45.168L548.67,45.187L549.84,45.162L551,45.157L552.17,45.171L553.33,45.154L554.5,45.151L555.66,45.168L556.83,45.157L557.99,45.165L559.16,45.16L560.33,45.154L561.49,45.162L562.66,45.165L563.82,45.162L564.99,45.165L566.15,45.171L567.32,45.162L568.48,45.168L569.65,45.157L570.81,45.173L571.98,45.16L573.15,45.157L574.31,45.162L575.48,45.16L576.64,45.151L577.81,45.157L578.97,45.157L580.14,45.151L581.3,45.154L583.64,45.151L584.8,45.154L585.97,45.154L587.13,45.157L588.3,45.151L589.46,45.151L590.63,45.154L591.79,45.16L592.96,45.154L594.13,45.154L595.29,45.151L598.79,45.154L599.95,45.151L602.28,45.157L604.61,45.157L605.78,45.154L606.95,45.151L608.11,45.151L609.28,45.154L611.61,45.151L612.77,45.151L613.94,45.151L615.1,45.154L616.27,45.154L617.44,45.16L618.6,45.154L619.77,45.151L624.43,45.154L626.76,45.16L629.09,45.154L631.42,45.151L634.92,45.151L636.08,45.151L639.58,45.151L641.91,45.151L645.41,45.151L647.74,45.151L648.9,45.151L651.23,45.151L654.73,45.16L657.06,45.151L658.23,45.151L665.22,45.151L669.88,45.151L673.38,45.154L687.37,45.151L720,45.151" style="fill:none;stroke:#0000FF" />
</g>
</svg>
