<?xml version="1.0"?>
<!-- Generated by SVGo and Plotinum VG -->
<svg width="720pt" height="432pt" viewBox="0 0 720 432"
	xmlns="http://www.w3.org/2000/svg"
	xmlns:xlink="http://www.w3.org/1999/xlink">
<g transform="scale(1, -1) translate(0, -432)">
<path d="M0,0L720,0L720,432L0,432Z" style="fill:#FFFFFF" />
<text x="358.5" y="-420.45" transform="scale(1, -1)"
	style="font-family:Times;font-weight:normal;font-style:normal;font-size:12px"> </text>
<text x="379.31" y="-3.8613" transform="scale(1, -1)"
	style="font-family:Times;font-weight:normal;font-style:normal;font-size:12px">Costs</text>
<text x="62.805" y="-18.634" transform="scale(1, -1)"
	style="font-family:Times;font-weight:normal;font-style:normal;font-size:10px">0</text>
<text x="356.75" y="-18.634" transform="scale(1, -1)"
	style="font-family:Times;font-weight:normal;font-style:normal;font-size:10px">200</text>
<text x="655.7" y="-18.634" transform="scale(1, -1)"
	style="font-family:Times;font-weight:normal;font-style:normal;font-size:10px">400</text>
<path d="M65.305,28.263L65.305,36.263" style="fill:none;stroke:#000000;stroke-width:0.5" />
<path d="M364.25,28.263L364.25,36.263" style="fill:none;stroke:#000000;stroke-width:0.5" />
<path d="M663.2,28.263L663.2,36.263" style="fill:none;stroke:#000000;stroke-width:0.5" />
<path d="M214.78,32.263L214.78,36.263" style="fill:none;stroke:#000000;stroke-width:0.5" />
<path d="M513.73,32.263L513.73,36.263" style="fill:none;stroke:#000000;stroke-width:0.5" />
<path d="M65.305,36.263L720,36.263" style="fill:none;stroke:#000000;stroke-width:0.5" />
<g transform="rotate(90)">
<text x="152.55" y="11.555" transform="scale(1, -1)"
	style="font-family:Times;font-weight:normal;font-style:normal;font-size:12px">Number of trials (1000000 total)</text>
</g>
<text x="24.055" y="-88.787" transform="scale(1, -1)"
	style="font-family:Times;font-weight:normal;font-style:normal;font-size:10px">40000</text>
<text x="19.055" y="-229.32" transform="scale(1, -1)"
	style="font-family:Times;font-weight:normal;font-style:normal;font-size:10px">160000</text>
<text x="19.055" y="-369.84" transform="scale(1, -1)"
	style="font-family:Times;font-weight:normal;font-style:normal;font-size:10px">280000</text>
<path d="M51.555,91.993L59.555,91.993" style="fill:none;stroke:#000000;stroke-width:0.5" />
<path d="M51.555,232.52L59.555,232.52" style="fill:none;stroke:#000000;stroke-width:0.5" />
<path d="M51.555,373.05L59.555,373.05" style="fill:none;stroke:#000000;stroke-width:0.5" />
<path d="M55.555,162.26L59.555,162.26" style="fill:none;stroke:#000000;stroke-width:0.5" />
<path d="M55.555,302.79L59.555,302.79" style="fill:none;stroke:#000000;stroke-width:0.5" />
<path d="M59.555,45.151L59.555,416.58" style="fill:none;stroke:#000000;stroke-width:0.5" />
<path d="M65.305,416.58L98.189,48.58L99.684,48.494L104.17,55.726L105.66,51.891L107.16,52.029L108.65,55.923L111.64,48.686L114.63,48.595L116.13,80.754L117.62,62.731L119.12,48.409L120.61,62.914L123.6,70.126L125.09,59.64L126.59,59.328L128.08,58.955L129.58,69.361L131.07,48.511L132.57,66.508L134.06,55.799L137.05,45.263L138.55,62.873L140.04,59.142L141.54,48.7L143.03,45.257L144.53,73.15L146.02,52.432L147.52,45.626L149.01,55.973L150.5,52.68L152,48.802L153.49,55.775L154.99,53.156L156.48,60.449L157.98,46.725L159.47,47.376L160.97,46.273L162.46,46.842L163.96,46.907L165.45,57.596L166.95,48.323L168.44,48.526L169.94,47.229L171.43,59.061L172.93,48.12L174.42,48.888L175.92,48.646L177.41,48.421L178.9,49.884L180.4,63.802L181.89,48.961L183.39,50.545L184.88,50.387L186.38,77.377L187.87,50.01L189.37,49.737L190.86,50.746L192.36,49.682L193.85,49.181L195.35,51.008L196.84,50.934L198.34,49.046L199.83,49.922L201.33,48.786L202.82,49.802L204.32,50.024L205.81,49.853L207.3,50.488L208.8,50.323L210.29,47.825L211.79,49.688L213.28,49.389L214.78,48.797L216.27,48.806L217.77,49.405L219.26,49.346L220.76,48.899L222.25,48.332L223.75,49.671L225.24,48.508L226.74,48.073L228.23,48.268L229.73,50.024L231.22,48.45L232.72,48.957L234.21,47.705L235.7,49.037L237.2,49.473L238.69,49.967L240.19,48.124L241.68,48.522L243.18,47.203L244.67,50.72L246.17,48.523L247.66,48.648L249.16,48.193L250.65,49.303L252.15,47.034L253.64,49.144L255.14,48.174L256.63,47.149L258.13,46.664L259.62,49.281L261.12,47.947L262.61,47.114L264.1,47.036L265.6,48.888L267.09,47.202L268.59,46.993L270.08,47.631L271.58,47.955L273.07,46.712L274.57,47.248L276.06,47.102L277.56,47.677L279.05,46.56L280.55,47.036L282.04,46.513L283.54,46.509L285.03,46.466L286.53,47.614L288.02,46.602L289.52,46.539L291.01,46.423L292.5,47.127L294,46.452L295.49,46.578L296.99,46.512L298.48,46.428L299.98,46.54L301.47,47.556L302.97,46.492L304.46,46.438L305.96,46.465L307.45,46.288L308.95,46.373L310.44,46.358L311.94,46.382L313.43,46.217L314.93,46.281L316.42,46.298L317.92,46.38L319.41,46.164L320.9,46.156L322.4,46.085L323.89,46.225L325.39,46.08L326.88,46.123L328.38,46.12L329.87,46.071L331.37,45.855L332.86,46.012L334.36,45.945L335.85,45.95L337.35,45.908L338.84,45.995L340.34,45.865L341.83,45.88L343.33,45.805L344.82,45.937L346.32,45.731L347.81,45.705L349.3,45.681L350.8,45.827L352.29,45.717L353.79,45.765L355.28,45.692L356.78,45.696L358.27,45.52L359.77,45.703L361.26,45.68L362.76,45.583L364.25,45.569L365.75,45.671L367.24,45.552L368.74,45.596L370.23,45.514L371.73,45.543L373.22,45.491L374.72,45.525L376.21,45.546L377.7,45.496L379.2,45.428L380.69,45.521L382.19,45.461L383.68,45.483L385.18,45.45L386.67,45.448L388.17,45.411L389.66,45.434L391.16,45.42L392.65,45.462L394.15,45.4L395.64,45.393L397.14,45.368L398.63,45.357L400.13,45.354L401.62,45.43L403.12,45.35L404.61,45.346L406.1,45.343L407.6,45.375L409.09,45.329L410.59,45.352L412.08,45.356L413.58,45.319L415.07,45.299L416.57,45.306L418.06,45.308L419.56,45.321L421.05,45.295L422.55,45.298L424.04,45.295L425.54,45.302L427.03,45.267L428.53,45.277L430.02,45.278L431.52,45.238L433.01,45.254L434.51,45.274L436,45.279L437.49,45.251L438.99,45.236L440.48,45.257L441.98,45.243L443.47,45.231L444.97,45.256L446.46,45.226L447.96,45.251L449.45,45.216L450.95,45.219L452.44,45.225L453.94,45.236L455.43,45.209L456.93,45.238L458.42,45.211L459.92,45.22L461.41,45.203L462.91,45.199L464.4,45.209L465.89,45.211L467.39,45.202L468.88,45.206L470.38,45.19L471.87,45.211L473.37,45.181L474.86,45.203L476.36,45.203L477.85,45.188L479.35,45.192L480.84,45.184L482.34,45.19L483.83,45.188L485.33,45.181L486.82,45.194L488.32,45.176L489.81,45.184L491.31,45.177L492.8,45.182L494.29,45.177L495.79,45.177L497.28,45.172L498.78,45.175L500.27,45.188L501.77,45.168L503.26,45.174L504.76,45.168L506.25,45.171L507.75,45.181L509.24,45.167L510.74,45.174L512.23,45.178L513.73,45.174L515.22,45.17L516.72,45.168L518.21,45.163L519.71,45.168L521.2,45.176L522.69,45.168L524.19,45.158L525.68,45.167L527.18,45.162L528.67,45.163L530.17,45.155L531.66,45.164L533.16,45.158L534.65,45.16L536.15,45.167L537.64,45.156L539.14,45.155L540.63,45.165L542.13,45.153L543.62,45.163L545.12,45.157L546.61,45.158L548.11,45.155L549.6,45.157L551.09,45.155L552.59,45.154L554.08,45.155L555.58,45.154L557.07,45.162L558.57,45.154L560.06,45.157L561.56,45.154L563.05,45.156L564.55,45.153L566.04,45.156L567.54,45.158L569.03,45.153L570.53,45.156L572.02,45.151L573.52,45.155L575.01,45.156L576.51,45.155L579.49,45.151L580.99,45.154L582.48,45.153L583.98,45.154L585.47,45.161L586.97,45.153L589.96,45.153L591.45,45.153L594.44,45.151L595.94,45.154L597.43,45.153L601.92,45.151L603.41,45.151L604.91,45.154L607.89,45.153L609.39,45.153L610.88,45.154L612.38,45.151L613.87,45.151L616.86,45.154L619.85,45.151L624.34,45.154L625.83,45.151L627.33,45.151L628.82,45.151L633.31,45.151L636.29,45.153L640.78,45.153L642.27,45.151L651.24,45.151L654.23,45.151L657.22,45.153L660.21,45.151L663.2,45.151L669.18,45.153L690.11,45.151L720,45.151" style="fill:none;stroke:#0000FF" />
</g>
</svg>
