<?xml version="1.0"?>
<!-- Generated by SVGo and Plotinum VG -->
<svg width="720pt" height="432pt" viewBox="0 0 720 432"
	xmlns="http://www.w3.org/2000/svg"
	xmlns:xlink="http://www.w3.org/1999/xlink">
<g transform="scale(1, -1) translate(0, -432)">
<path d="M0,0L720,0L720,432L0,432Z" style="fill:#FFFFFF" />
<text x="358.5" y="-420.45" transform="scale(1, -1)"
	style="font-family:Times;font-weight:normal;font-style:normal;font-size:12px"> </text>
<text x="379.31" y="-3.8613" transform="scale(1, -1)"
	style="font-family:Times;font-weight:normal;font-style:normal;font-size:12px">Costs</text>
<text x="56.555" y="-18.634" transform="scale(1, -1)"
	style="font-family:Times;font-weight:normal;font-style:normal;font-size:10px">0.00</text>
<text x="354.65" y="-18.634" transform="scale(1, -1)"
	style="font-family:Times;font-weight:normal;font-style:normal;font-size:10px">250.00</text>
<text x="657.75" y="-18.634" transform="scale(1, -1)"
	style="font-family:Times;font-weight:normal;font-style:normal;font-size:10px">500.00</text>
<path d="M65.305,28.263L65.305,36.263" style="fill:none;stroke:#000000;stroke-width:0.5" />
<path d="M368.4,28.263L368.4,36.263" style="fill:none;stroke:#000000;stroke-width:0.5" />
<path d="M671.5,28.263L671.5,36.263" style="fill:none;stroke:#000000;stroke-width:0.5" />
<path d="M125.92,32.263L125.92,36.263" style="fill:none;stroke:#000000;stroke-width:0.5" />
<path d="M186.54,32.263L186.54,36.263" style="fill:none;stroke:#000000;stroke-width:0.5" />
<path d="M247.16,32.263L247.16,36.263" style="fill:none;stroke:#000000;stroke-width:0.5" />
<path d="M307.78,32.263L307.78,36.263" style="fill:none;stroke:#000000;stroke-width:0.5" />
<path d="M429.02,32.263L429.02,36.263" style="fill:none;stroke:#000000;stroke-width:0.5" />
<path d="M489.64,32.263L489.64,36.263" style="fill:none;stroke:#000000;stroke-width:0.5" />
<path d="M550.26,32.263L550.26,36.263" style="fill:none;stroke:#000000;stroke-width:0.5" />
<path d="M610.88,32.263L610.88,36.263" style="fill:none;stroke:#000000;stroke-width:0.5" />
<path d="M65.305,36.263L720,36.263" style="fill:none;stroke:#000000;stroke-width:0.5" />
<g transform="rotate(90)">
<text x="152.55" y="11.555" transform="scale(1, -1)"
	style="font-family:Times;font-weight:normal;font-style:normal;font-size:12px">Number of trials (1000000 total)</text>
</g>
<text x="24.055" y="-106.13" transform="scale(1, -1)"
	style="font-family:Times;font-weight:normal;font-style:normal;font-size:10px">30000</text>
<text x="24.055" y="-234.51" transform="scale(1, -1)"
	style="font-family:Times;font-weight:normal;font-style:normal;font-size:10px">90000</text>
<text x="19.055" y="-362.89" transform="scale(1, -1)"
	style="font-family:Times;font-weight:normal;font-style:normal;font-size:10px">150000</text>
<path d="M51.555,109.34L59.555,109.34" style="fill:none;stroke:#000000;stroke-width:0.5" />
<path d="M51.555,237.72L59.555,237.72" style="fill:none;stroke:#000000;stroke-width:0.5" />
<path d="M51.555,366.09L59.555,366.09" style="fill:none;stroke:#000000;stroke-width:0.5" />
<path d="M55.555,173.53L59.555,173.53" style="fill:none;stroke:#000000;stroke-width:0.5" />
<path d="M55.555,301.9L59.555,301.9" style="fill:none;stroke:#000000;stroke-width:0.5" />
<path d="M59.555,45.151L59.555,416.58" style="fill:none;stroke:#000000;stroke-width:0.5" />
<path d="M65.305,416.58L91.977,48.481L94.402,48.444L96.827,51.692L98.039,72.904L99.252,66.083L100.46,55.663L102.89,69.199L104.1,87.46L105.31,51.823L106.53,62.643L107.74,62.544L108.95,51.748L110.16,62.925L111.38,58.22L112.59,51.778L113.8,62.377L115.01,80.601L116.23,73.065L117.44,59.29L118.65,65.72L119.86,48.596L121.08,78.724L123.5,45.213L124.71,45.406L125.92,59.688L127.14,45.509L128.35,45.361L129.56,66.817L130.77,71.137L131.99,57.756L133.2,90.832L134.41,56.853L135.62,54.799L136.84,64.453L138.05,49.232L139.26,72.9L140.47,58.903L141.69,60.826L142.9,49.948L144.11,49.822L145.32,50.607L146.54,80.684L147.75,52.527L148.96,53.87L150.17,52.088L151.38,51.793L152.6,53.447L153.81,93.524L155.02,53.982L156.23,52.854L157.45,52.032L158.66,53.252L159.87,55.131L161.08,51.01L162.3,52.223L163.51,84.379L164.72,54.996L165.93,56.378L167.15,55.385L168.36,57.018L169.57,55.019L170.78,57.394L172,59.483L173.21,54.298L174.42,56.046L175.63,54.938L176.85,52.922L178.06,55.484L179.27,57.495L180.48,56.77L181.69,56.896L182.91,56.222L184.12,57.217L185.33,59.014L186.54,58.507L187.76,55.537L188.97,57.253L190.18,54.018L191.39,55.278L192.61,57.42L193.82,51.731L195.03,55.77L196.24,56.776L197.46,57.266L198.67,55.285L199.88,54.221L201.09,54.39L202.31,58.486L203.52,55.471L204.73,56.789L205.94,53.736L207.16,56.795L208.37,52.91L209.58,55.31L210.79,52.642L212,52.922L213.22,54.138L214.43,57.05L215.64,51.968L216.85,52.364L218.07,53.575L219.28,54.825L220.49,53.254L221.7,55.094L222.92,52.142L224.13,52.259L225.34,51.778L226.55,49.991L227.77,54.602L228.98,53.303L230.19,52.61L231.4,53.746L232.62,51.266L233.83,51.177L235.04,54.981L236.25,50.89L237.47,52.67L238.68,51.476L239.89,51.639L241.1,50.633L242.31,50.858L243.53,50.458L244.74,52.751L245.95,50.772L247.16,50.729L248.38,50.77L249.59,50.321L250.8,50.276L252.01,53.415L253.23,50.963L254.44,50.552L255.65,50.391L256.86,50.545L258.08,50.31L259.29,50.197L260.5,50.293L261.71,49.645L262.93,50.087L264.14,49.888L265.35,49.653L266.56,49.683L267.78,49.764L268.99,49.67L270.2,49.936L271.41,49.527L272.62,49.471L273.84,49.598L275.05,49.018L276.26,48.868L277.47,48.962L278.69,49.204L279.9,48.896L281.11,48.662L282.32,48.748L283.54,48.896L284.75,48.714L285.96,48.894L287.17,48.549L288.39,48.369L289.6,48.331L290.81,48.543L292.02,47.847L293.24,48.158L294.45,47.974L295.66,48.277L296.87,48.016L298.09,47.892L299.3,47.886L300.51,47.933L301.72,47.83L302.93,47.978L304.15,47.606L305.36,47.894L306.57,47.505L307.78,47.456L309,47.558L310.21,47.338L311.42,47.312L312.63,47.389L313.85,47.158L315.06,46.97L316.27,47.235L317.48,47.154L318.7,47.238L319.91,47.201L321.12,47.079L322.33,46.983L323.55,46.949L324.76,46.947L325.97,46.949L327.18,46.852L328.4,46.906L329.61,46.722L330.82,46.656L332.03,46.739L333.24,46.715L334.46,46.534L335.67,46.566L336.88,46.623L338.09,46.621L339.31,46.499L340.52,46.512L341.73,46.45L342.94,46.296L344.16,46.365L345.37,46.38L346.58,46.388L347.79,46.307L349.01,46.243L350.22,46.262L351.43,46.281L352.64,46.249L353.86,46.148L355.07,46.193L356.28,46.131L357.49,46.071L358.71,46.063L359.92,46.071L361.13,46.031L362.34,46.007L363.55,45.93L364.77,45.962L365.98,45.898L367.19,45.919L368.4,45.836L369.62,45.911L370.83,45.969L372.04,45.872L373.25,45.791L374.47,45.842L375.68,45.748L376.89,45.81L378.1,45.701L379.32,45.71L380.53,45.744L381.74,45.721L382.95,45.731L384.17,45.669L385.38,45.68L386.59,45.667L387.8,45.639L389.02,45.626L390.23,45.549L391.44,45.581L392.65,45.633L393.86,45.605L395.08,45.601L396.29,45.569L397.5,45.599L398.71,45.5L399.93,45.498L401.14,45.511L402.35,45.539L403.56,45.526L404.78,45.477L405.99,45.481L407.2,45.451L408.41,45.509L409.63,45.453L410.84,45.442L412.05,45.419L413.26,45.391L414.48,45.447L415.69,45.41L416.9,45.421L418.11,45.406L419.33,45.367L420.54,45.395L421.75,45.402L422.96,45.35L424.17,45.425L425.39,45.387L426.6,45.342L427.81,45.338L429.02,45.327L430.24,45.348L431.45,45.331L432.66,45.318L433.87,45.316L435.09,45.284L436.3,45.303L437.51,45.335L438.72,45.312L439.94,45.286L441.15,45.286L442.36,45.308L443.57,45.278L444.79,45.237L446,45.246L447.21,45.275L448.42,45.275L449.64,45.271L450.85,45.252L452.06,45.265L453.27,45.248L454.48,45.273L455.7,45.26L456.91,45.252L458.12,45.239L459.33,45.241L460.55,45.211L461.76,45.25L462.97,45.241L464.18,45.22L465.4,45.233L466.61,45.213L467.82,45.211L469.03,45.224L470.25,45.228L471.46,45.201L472.67,45.209L473.88,45.209L475.1,45.216L476.31,45.19L477.52,45.207L478.73,45.207L479.95,45.186L481.16,45.192L482.37,45.194L483.58,45.188L484.79,45.194L486.01,45.205L487.22,45.183L488.43,45.207L489.64,45.192L490.86,45.211L492.07,45.183L493.28,45.177L494.49,45.196L495.71,45.166L496.92,45.181L498.13,45.186L499.34,45.175L500.56,45.181L501.77,45.186L502.98,45.175L504.19,45.175L505.41,45.175L506.62,45.166L507.83,45.181L509.04,45.179L510.26,45.181L511.47,45.173L512.68,45.173L513.89,45.171L515.1,45.171L516.32,45.168L517.53,45.175L518.74,45.16L519.95,45.171L521.17,45.166L522.38,45.168L523.59,45.16L524.8,45.168L526.02,45.164L527.23,45.164L528.44,45.162L529.65,45.164L530.87,45.168L532.08,45.164L533.29,45.164L534.5,45.16L535.72,45.162L536.93,45.158L538.14,45.162L539.35,45.156L540.56,45.16L541.78,45.158L542.99,45.164L544.2,45.162L545.41,45.154L547.84,45.154L549.05,45.156L550.26,45.162L551.48,45.156L552.69,45.158L553.9,45.156L555.11,45.154L556.33,45.162L557.54,45.16L558.75,45.151L561.18,45.154L562.39,45.151L563.6,45.154L564.81,45.158L567.24,45.154L568.45,45.154L569.66,45.154L570.87,45.16L573.3,45.151L574.51,45.154L575.72,45.151L578.15,45.156L580.57,45.151L581.79,45.158L585.42,45.154L586.64,45.154L587.85,45.154L589.06,45.151L590.27,45.151L591.49,45.154L595.12,45.151L596.34,45.151L598.76,45.154L602.4,45.151L606.03,45.154L613.31,45.151L615.73,45.151L619.37,45.151L620.58,45.151L621.8,45.151L627.86,45.151L630.28,45.151L638.77,45.151L681.2,45.151L720,45.151" style="fill:none;stroke:#0000FF" />
</g>
</svg>
