<?xml version="1.0"?>
<!-- Generated by SVGo and Plotinum VG -->
<svg width="720pt" height="432pt" viewBox="0 0 720 432"
	xmlns="http://www.w3.org/2000/svg"
	xmlns:xlink="http://www.w3.org/1999/xlink">
<g transform="scale(1, -1) translate(0, -432)">
<path d="M0,0L720,0L720,432L0,432Z" style="fill:#FFFFFF" />
<text x="358.5" y="-420.45" transform="scale(1, -1)"
	style="font-family:Times;font-weight:normal;font-style:normal;font-size:12px"> </text>
<text x="379.31" y="-3.8613" transform="scale(1, -1)"
	style="font-family:Times;font-weight:normal;font-style:normal;font-size:12px">Costs</text>
<text x="62.805" y="-18.634" transform="scale(1, -1)"
	style="font-family:Times;font-weight:normal;font-style:normal;font-size:10px">0</text>
<text x="352.05" y="-18.634" transform="scale(1, -1)"
	style="font-family:Times;font-weight:normal;font-style:normal;font-size:10px">200</text>
<text x="646.29" y="-18.634" transform="scale(1, -1)"
	style="font-family:Times;font-weight:normal;font-style:normal;font-size:10px">400</text>
<path d="M65.305,28.263L65.305,36.263" style="fill:none;stroke:#000000;stroke-width:0.5" />
<path d="M359.55,28.263L359.55,36.263" style="fill:none;stroke:#000000;stroke-width:0.5" />
<path d="M653.79,28.263L653.79,36.263" style="fill:none;stroke:#000000;stroke-width:0.5" />
<path d="M212.43,32.263L212.43,36.263" style="fill:none;stroke:#000000;stroke-width:0.5" />
<path d="M506.67,32.263L506.67,36.263" style="fill:none;stroke:#000000;stroke-width:0.5" />
<path d="M65.305,36.263L720,36.263" style="fill:none;stroke:#000000;stroke-width:0.5" />
<g transform="rotate(90)">
<text x="152.55" y="11.555" transform="scale(1, -1)"
	style="font-family:Times;font-weight:normal;font-style:normal;font-size:12px">Number of trials (1000000 total)</text>
</g>
<text x="24.055" y="-106.35" transform="scale(1, -1)"
	style="font-family:Times;font-weight:normal;font-style:normal;font-size:10px">50000</text>
<text x="19.055" y="-235.16" transform="scale(1, -1)"
	style="font-family:Times;font-weight:normal;font-style:normal;font-size:10px">150000</text>
<text x="19.055" y="-363.97" transform="scale(1, -1)"
	style="font-family:Times;font-weight:normal;font-style:normal;font-size:10px">250000</text>
<path d="M51.555,109.56L59.555,109.56" style="fill:none;stroke:#000000;stroke-width:0.5" />
<path d="M51.555,238.37L59.555,238.37" style="fill:none;stroke:#000000;stroke-width:0.5" />
<path d="M51.555,367.18L59.555,367.18" style="fill:none;stroke:#000000;stroke-width:0.5" />
<path d="M55.555,173.96L59.555,173.96" style="fill:none;stroke:#000000;stroke-width:0.5" />
<path d="M55.555,302.77L59.555,302.77" style="fill:none;stroke:#000000;stroke-width:0.5" />
<path d="M59.555,45.151L59.555,416.58" style="fill:none;stroke:#000000;stroke-width:0.5" />
<path d="M65.305,416.58L99.143,52.014L103.56,55.429L105.03,62.496L107.97,67.482L109.44,63.036L110.91,48.772L112.38,55.391L115.33,64.158L116.8,63.745L118.27,48.723L119.74,48.582L121.21,59.433L122.68,48.669L124.15,70.735L125.62,69.91L127.1,48.636L128.57,51.919L130.04,62.529L131.51,51.985L132.98,48.457L137.39,70.164L138.87,55.776L140.34,48.75L141.81,45.57L143.28,81.131L144.75,48.902L146.22,45.941L147.69,65.263L149.16,81.854L150.64,46.181L152.11,60.511L153.58,64.711L155.05,58.111L156.52,50.027L157.99,60.854L159.46,47.977L160.93,47.25L162.41,47.333L163.88,67.486L165.35,47.652L166.82,48.043L168.29,49.186L169.76,51.605L171.23,48.461L172.7,48.549L174.18,48.017L175.65,49.141L177.12,49.557L178.59,47.002L180.06,49.315L181.53,50.717L183,68.917L184.47,51.973L185.95,49.477L187.42,51.654L188.89,51.06L190.36,50.206L191.83,51.338L193.3,51.665L194.77,50.479L196.24,51.454L197.71,51.643L199.19,51.82L200.66,50.281L202.13,52.179L203.6,52.411L205.07,49.862L206.54,49.707L208.01,53.777L209.48,51.463L210.96,49.603L212.43,50.09L213.9,51.324L215.37,51.096L216.84,50.126L218.31,48.615L219.78,49.181L221.25,50.997L222.73,50.232L224.2,48.896L225.67,50.695L227.14,52.586L228.61,48.363L230.08,49.719L231.55,50.722L233.02,49.029L234.5,48.413L235.97,51.464L237.44,49.617L238.91,48.569L240.38,48.506L241.85,51.538L243.32,48.968L244.79,47.835L246.27,48.862L247.74,50.308L249.21,47.447L250.68,47.77L252.15,47.846L253.62,47.815L255.09,48.324L256.56,48.329L258.04,47.323L259.51,47.227L260.98,48.803L262.45,47.497L263.92,47.085L265.39,47.89L266.86,49.156L268.33,47.497L269.81,47.771L271.28,48.148L272.75,47.768L274.22,47.455L275.69,47.912L277.16,47.121L278.63,46.975L280.1,47.161L281.57,47.98L283.05,47.147L284.52,46.88L285.99,47.43L287.46,47.264L288.93,46.886L290.4,47.002L291.87,47.054L293.34,46.825L294.82,47.009L296.29,46.764L297.76,46.865L299.23,46.799L300.7,46.778L302.17,46.751L303.64,46.686L305.11,46.683L306.59,46.667L308.06,46.55L309.53,46.544L311,46.482L312.47,46.416L313.94,46.554L315.41,46.584L316.88,46.322L318.36,46.329L319.83,46.505L321.3,46.251L322.77,46.078L324.24,46.217L325.71,46.427L327.18,46.139L328.65,46.093L330.13,46.115L331.6,46.059L333.07,46.092L334.54,46.067L336.01,45.956L337.48,45.896L338.95,46.023L340.42,45.995L341.9,45.886L343.37,45.853L344.84,45.968L346.31,45.879L347.78,45.789L349.25,45.83L350.72,45.775L352.19,45.753L353.66,45.855L355.14,45.755L356.61,45.696L358.08,45.701L359.55,45.767L361.02,45.673L362.49,45.641L363.96,45.676L365.43,45.722L366.91,45.622L368.38,45.589L369.85,45.625L371.32,45.605L372.79,45.553L374.26,45.598L375.73,45.521L377.2,45.512L378.68,45.503L380.15,45.526L381.62,45.471L383.09,45.455L384.56,45.512L386.03,45.503L387.5,45.459L388.97,45.468L390.45,45.449L391.92,45.448L393.39,45.423L394.86,45.406L396.33,45.392L397.8,45.4L399.27,45.415L400.74,45.385L402.22,45.39L403.69,45.386L405.16,45.379L406.63,45.369L408.1,45.356L409.57,45.368L411.04,45.37L412.51,45.359L413.99,45.334L415.46,45.31L416.93,45.336L418.4,45.348L419.87,45.303L421.34,45.297L422.81,45.306L424.28,45.279L425.75,45.318L427.23,45.29L428.7,45.292L430.17,45.279L431.64,45.266L433.11,45.274L434.58,45.242L436.05,45.27L437.52,45.272L439,45.269L440.47,45.258L441.94,45.233L443.41,45.248L444.88,45.253L446.35,45.236L447.82,45.253L449.29,45.236L450.77,45.23L452.24,45.227L453.71,45.225L455.18,45.221L456.65,45.211L458.12,45.227L459.59,45.221L461.06,45.214L462.54,45.193L464.01,45.212L465.48,45.209L466.95,45.208L468.42,45.214L469.89,45.195L471.36,45.213L472.83,45.205L474.31,45.195L475.78,45.196L477.25,45.194L478.72,45.195L480.19,45.194L481.66,45.186L483.13,45.185L484.6,45.182L486.08,45.182L487.55,45.181L489.02,45.175L490.49,45.187L491.96,45.18L493.43,45.185L494.9,45.181L496.37,45.18L497.84,45.176L499.32,45.182L500.79,45.18L502.26,45.172L503.73,45.166L505.2,45.168L506.67,45.176L508.14,45.177L509.61,45.176L511.09,45.162L512.56,45.169L514.03,45.162L515.5,45.163L516.97,45.166L518.44,45.164L519.91,45.162L521.38,45.166L522.86,45.163L524.33,45.16L525.8,45.166L527.27,45.169L528.74,45.164L530.21,45.163L531.68,45.166L533.15,45.16L534.63,45.155L536.1,45.157L537.57,45.16L539.04,45.155L540.51,45.164L541.98,45.162L543.45,45.157L544.92,45.153L546.4,45.157L547.87,45.157L549.34,45.158L550.81,45.154L552.28,45.153L553.75,45.151L555.22,45.16L558.17,45.157L559.64,45.159L561.11,45.153L562.58,45.155L564.05,45.159L565.52,45.16L566.99,45.151L569.94,45.153L571.41,45.154L572.88,45.153L574.35,45.151L575.82,45.151L577.29,45.151L578.76,45.153L580.23,45.153L583.18,45.151L584.65,45.151L586.12,45.155L587.59,45.151L590.53,45.151L592,45.154L593.47,45.155L597.89,45.153L600.83,45.151L602.3,45.153L603.77,45.151L606.72,45.151L608.19,45.151L609.66,45.151L611.13,45.153L612.6,45.151L614.07,45.151L615.54,45.153L622.9,45.151L624.37,45.153L625.84,45.151L630.26,45.151L633.2,45.151L636.14,45.151L639.08,45.151L653.79,45.151L659.68,45.153L662.62,45.151L667.04,45.153L681.75,45.151L693.52,45.151L720,45.151" style="fill:none;stroke:#0000FF" />
</g>
</svg>
