<?xml version="1.0"?>
<!-- Generated by SVGo and Plotinum VG -->
<svg width="720pt" height="432pt" viewBox="0 0 720 432"
	xmlns="http://www.w3.org/2000/svg"
	xmlns:xlink="http://www.w3.org/1999/xlink">
<g transform="scale(1, -1) translate(0, -432)">
<path d="M0,0L720,0L720,432L0,432Z" style="fill:#FFFFFF" />
<text x="358.5" y="-420.45" transform="scale(1, -1)"
	style="font-family:Times;font-weight:normal;font-style:normal;font-size:12px"> </text>
<text x="379.31" y="-3.8613" transform="scale(1, -1)"
	style="font-family:Times;font-weight:normal;font-style:normal;font-size:12px">Costs</text>
<text x="62.805" y="-18.634" transform="scale(1, -1)"
	style="font-family:Times;font-weight:normal;font-style:normal;font-size:10px">0</text>
<text x="266.31" y="-18.634" transform="scale(1, -1)"
	style="font-family:Times;font-weight:normal;font-style:normal;font-size:10px">100</text>
<text x="474.81" y="-18.634" transform="scale(1, -1)"
	style="font-family:Times;font-weight:normal;font-style:normal;font-size:10px">200</text>
<text x="683.31" y="-18.634" transform="scale(1, -1)"
	style="font-family:Times;font-weight:normal;font-style:normal;font-size:10px">300</text>
<path d="M65.305,28.263L65.305,36.263" style="fill:none;stroke:#000000;stroke-width:0.5" />
<path d="M273.81,28.263L273.81,36.263" style="fill:none;stroke:#000000;stroke-width:0.5" />
<path d="M482.31,28.263L482.31,36.263" style="fill:none;stroke:#000000;stroke-width:0.5" />
<path d="M690.81,28.263L690.81,36.263" style="fill:none;stroke:#000000;stroke-width:0.5" />
<path d="M107.01,32.263L107.01,36.263" style="fill:none;stroke:#000000;stroke-width:0.5" />
<path d="M148.71,32.263L148.71,36.263" style="fill:none;stroke:#000000;stroke-width:0.5" />
<path d="M190.41,32.263L190.41,36.263" style="fill:none;stroke:#000000;stroke-width:0.5" />
<path d="M232.11,32.263L232.11,36.263" style="fill:none;stroke:#000000;stroke-width:0.5" />
<path d="M315.51,32.263L315.51,36.263" style="fill:none;stroke:#000000;stroke-width:0.5" />
<path d="M357.21,32.263L357.21,36.263" style="fill:none;stroke:#000000;stroke-width:0.5" />
<path d="M398.91,32.263L398.91,36.263" style="fill:none;stroke:#000000;stroke-width:0.5" />
<path d="M440.61,32.263L440.61,36.263" style="fill:none;stroke:#000000;stroke-width:0.5" />
<path d="M524.01,32.263L524.01,36.263" style="fill:none;stroke:#000000;stroke-width:0.5" />
<path d="M565.71,32.263L565.71,36.263" style="fill:none;stroke:#000000;stroke-width:0.5" />
<path d="M607.41,32.263L607.41,36.263" style="fill:none;stroke:#000000;stroke-width:0.5" />
<path d="M649.11,32.263L649.11,36.263" style="fill:none;stroke:#000000;stroke-width:0.5" />
<path d="M65.305,36.263L720,36.263" style="fill:none;stroke:#000000;stroke-width:0.5" />
<g transform="rotate(90)">
<text x="152.55" y="11.555" transform="scale(1, -1)"
	style="font-family:Times;font-weight:normal;font-style:normal;font-size:12px">Number of trials (1000000 total)</text>
</g>
<text x="19.055" y="-113.87" transform="scale(1, -1)"
	style="font-family:Times;font-weight:normal;font-style:normal;font-size:10px">100000</text>
<text x="19.055" y="-257.72" transform="scale(1, -1)"
	style="font-family:Times;font-weight:normal;font-style:normal;font-size:10px">300000</text>
<text x="19.055" y="-401.58" transform="scale(1, -1)"
	style="font-family:Times;font-weight:normal;font-style:normal;font-size:10px">500000</text>
<path d="M51.555,117.08L59.555,117.08" style="fill:none;stroke:#000000;stroke-width:0.5" />
<path d="M51.555,260.93L59.555,260.93" style="fill:none;stroke:#000000;stroke-width:0.5" />
<path d="M51.555,404.78L59.555,404.78" style="fill:none;stroke:#000000;stroke-width:0.5" />
<path d="M55.555,189L59.555,189" style="fill:none;stroke:#000000;stroke-width:0.5" />
<path d="M55.555,332.86L59.555,332.86" style="fill:none;stroke:#000000;stroke-width:0.5" />
<path d="M59.555,45.151L59.555,416.58" style="fill:none;stroke:#000000;stroke-width:0.5" />
<path d="M65.305,416.58L113.26,48.477L121.6,52.119L125.77,52.561L127.86,48.645L129.94,55.582L134.11,48.579L136.2,56.02L138.28,63.354L140.37,55.619L144.54,69.886L146.62,48.534L148.71,55.944L150.79,62.73L157.05,66.385L159.13,48.584L161.22,48.497L167.47,59.258L169.56,45.203L173.73,45.217L175.81,51.987L177.9,48.717L182.07,52.755L184.15,73.682L186.24,45.492L188.32,45.32L190.41,52.9L192.49,45.666L194.58,45.684L196.66,55.703L198.75,45.789L200.83,46.258L202.92,45.853L205,53.613L207.09,46.061L209.17,46.533L211.26,46.114L213.34,46.721L215.43,46.635L217.51,47.01L219.6,46.646L221.68,46.901L223.77,46.891L225.85,46.188L227.94,46.852L230.02,47.727L232.11,54.354L234.19,45.971L236.28,46.957L238.36,46.348L240.45,47.47L242.53,46.929L244.62,46.158L246.7,47.03L248.79,46.673L250.87,46.269L252.96,46.88L255.04,46.933L257.13,47.346L259.21,47.155L261.3,46.791L263.38,47.777L265.47,45.999L267.55,47.106L269.64,48.084L271.72,45.677L273.81,45.881L275.89,48.117L277.98,46.195L280.06,46.273L282.15,46.244L284.23,46.115L286.32,46.271L288.4,46.233L290.49,45.72L292.57,45.918L294.66,45.978L296.74,46.217L298.83,45.797L300.91,46.226L303,46.016L305.08,45.617L307.17,46.128L309.25,46.087L311.34,45.894L313.42,45.658L315.51,46.437L317.59,45.776L319.68,45.428L321.76,45.674L323.85,46.431L325.93,45.484L328.02,45.558L330.1,45.466L332.19,45.501L334.27,45.731L336.36,45.664L338.44,45.46L340.53,45.463L342.61,45.618L344.7,45.469L346.78,45.467L348.87,45.585L350.95,45.971L353.04,45.42L355.12,45.486L357.21,45.441L359.29,45.443L361.38,45.46L363.46,45.576L365.55,45.376L367.63,45.374L369.72,45.398L371.8,45.47L373.89,45.356L375.97,45.335L378.06,45.351L380.14,45.397L382.23,45.338L384.31,45.318L386.4,45.376L388.48,45.366L390.57,45.283L392.65,45.308L394.74,45.351L396.82,45.305L398.91,45.325L400.99,45.305L403.08,45.315L405.16,45.274L407.25,45.319L409.33,45.264L411.42,45.24L413.5,45.24L415.59,45.289L417.67,45.248L419.76,45.252L421.84,45.218L423.93,45.23L426.01,45.242L428.1,45.241L430.18,45.223L432.27,45.229L434.35,45.236L436.44,45.224L438.52,45.207L440.61,45.218L442.69,45.248L444.78,45.212L446.86,45.201L448.95,45.204L451.03,45.189L453.12,45.194L455.2,45.221L457.29,45.189L459.37,45.192L461.46,45.192L463.54,45.189L465.63,45.187L467.71,45.188L469.8,45.187L471.88,45.181L473.97,45.179L476.05,45.172L478.14,45.174L480.22,45.189L482.31,45.191L484.39,45.169L486.48,45.169L488.56,45.172L490.65,45.18L492.73,45.167L494.82,45.169L496.9,45.163L498.99,45.174L501.07,45.16L503.16,45.172L505.24,45.169L507.33,45.164L509.41,45.167L511.5,45.164L513.58,45.164L515.67,45.164L517.75,45.16L519.84,45.163L521.92,45.161L524.01,45.164L526.09,45.156L528.18,45.159L530.26,45.161L532.35,45.161L534.43,45.159L536.52,45.156L538.6,45.155L540.69,45.156L542.77,45.157L544.86,45.159L546.94,45.158L549.03,45.154L551.11,45.154L553.2,45.155L555.28,45.158L557.37,45.155L559.45,45.156L561.54,45.158L563.62,45.154L565.71,45.154L567.79,45.155L569.88,45.156L571.96,45.153L574.05,45.154L576.13,45.154L578.22,45.153L580.3,45.154L582.39,45.152L584.47,45.154L586.56,45.153L588.64,45.153L590.73,45.153L592.81,45.154L594.9,45.154L599.07,45.153L601.15,45.154L603.24,45.152L605.32,45.153L607.41,45.151L609.49,45.152L611.58,45.152L613.66,45.151L615.75,45.152L617.83,45.154L619.92,45.152L622,45.154L626.17,45.152L628.26,45.151L630.34,45.152L632.43,45.151L636.6,45.151L638.68,45.151L640.77,45.152L644.94,45.153L647.02,45.153L649.11,45.151L653.28,45.151L657.45,45.151L676.21,45.152L709.57,45.151L713.74,45.151L720,45.151" style="fill:none;stroke:#0000FF" />
</g>
</svg>
