<?xml version="1.0"?>
<!-- Generated by SVGo and Plotinum VG -->
<svg width="720pt" height="432pt" viewBox="0 0 720 432"
	xmlns="http://www.w3.org/2000/svg"
	xmlns:xlink="http://www.w3.org/1999/xlink">
<g transform="scale(1, -1) translate(0, -432)">
<path d="M0,0L720,0L720,432L0,432Z" style="fill:#FFFFFF" />
<text x="358.5" y="-420.45" transform="scale(1, -1)"
	style="font-family:Times;font-weight:normal;font-style:normal;font-size:12px"> </text>
<text x="379.13" y="-3.8613" transform="scale(1, -1)"
	style="font-family:Times;font-weight:normal;font-style:normal;font-size:12px">Costs</text>
<text x="56.184" y="-18.634" transform="scale(1, -1)"
	style="font-family:Times;font-weight:normal;font-style:normal;font-size:10px">0.00</text>
<text x="345.73" y="-18.634" transform="scale(1, -1)"
	style="font-family:Times;font-weight:normal;font-style:normal;font-size:10px">250.00</text>
<text x="640.27" y="-18.634" transform="scale(1, -1)"
	style="font-family:Times;font-weight:normal;font-style:normal;font-size:10px">500.00</text>
<path d="M64.934,28.263L64.934,36.263" style="fill:none;stroke:#000000;stroke-width:0.5" />
<path d="M359.48,28.263L359.48,36.263" style="fill:none;stroke:#000000;stroke-width:0.5" />
<path d="M654.02,28.263L654.02,36.263" style="fill:none;stroke:#000000;stroke-width:0.5" />
<path d="M123.84,32.263L123.84,36.263" style="fill:none;stroke:#000000;stroke-width:0.5" />
<path d="M182.75,32.263L182.75,36.263" style="fill:none;stroke:#000000;stroke-width:0.5" />
<path d="M241.66,32.263L241.66,36.263" style="fill:none;stroke:#000000;stroke-width:0.5" />
<path d="M300.57,32.263L300.57,36.263" style="fill:none;stroke:#000000;stroke-width:0.5" />
<path d="M418.39,32.263L418.39,36.263" style="fill:none;stroke:#000000;stroke-width:0.5" />
<path d="M477.3,32.263L477.3,36.263" style="fill:none;stroke:#000000;stroke-width:0.5" />
<path d="M536.2,32.263L536.2,36.263" style="fill:none;stroke:#000000;stroke-width:0.5" />
<path d="M595.11,32.263L595.11,36.263" style="fill:none;stroke:#000000;stroke-width:0.5" />
<path d="M712.93,32.263L712.93,36.263" style="fill:none;stroke:#000000;stroke-width:0.5" />
<path d="M64.934,36.263L720,36.263" style="fill:none;stroke:#000000;stroke-width:0.5" />
<g transform="rotate(90)">
<text x="152.55" y="11.555" transform="scale(1, -1)"
	style="font-family:Times;font-weight:normal;font-style:normal;font-size:12px">Number of trials (1000000 total)</text>
</g>
<text x="23.684" y="-71.899" transform="scale(1, -1)"
	style="font-family:Times;font-weight:normal;font-style:normal;font-size:10px">10000</text>
<text x="23.684" y="-221.68" transform="scale(1, -1)"
	style="font-family:Times;font-weight:normal;font-style:normal;font-size:10px">60000</text>
<text x="19.055" y="-371.46" transform="scale(1, -1)"
	style="font-family:Times;font-weight:normal;font-style:normal;font-size:10px">110000</text>
<path d="M51.184,75.105L59.184,75.105" style="fill:none;stroke:#000000;stroke-width:0.5" />
<path d="M51.184,224.89L59.184,224.89" style="fill:none;stroke:#000000;stroke-width:0.5" />
<path d="M51.184,374.67L59.184,374.67" style="fill:none;stroke:#000000;stroke-width:0.5" />
<path d="M55.184,105.06L59.184,105.06" style="fill:none;stroke:#000000;stroke-width:0.5" />
<path d="M55.184,135.02L59.184,135.02" style="fill:none;stroke:#000000;stroke-width:0.5" />
<path d="M55.184,164.97L59.184,164.97" style="fill:none;stroke:#000000;stroke-width:0.5" />
<path d="M55.184,194.93L59.184,194.93" style="fill:none;stroke:#000000;stroke-width:0.5" />
<path d="M55.184,254.84L59.184,254.84" style="fill:none;stroke:#000000;stroke-width:0.5" />
<path d="M55.184,284.8L59.184,284.8" style="fill:none;stroke:#000000;stroke-width:0.5" />
<path d="M55.184,314.75L59.184,314.75" style="fill:none;stroke:#000000;stroke-width:0.5" />
<path d="M55.184,344.71L59.184,344.71" style="fill:none;stroke:#000000;stroke-width:0.5" />
<path d="M55.184,404.62L59.184,404.62" style="fill:none;stroke:#000000;stroke-width:0.5" />
<path d="M59.184,45.151L59.184,416.58" style="fill:none;stroke:#000000;stroke-width:0.5" />
<path d="M64.934,416.58L90.853,78.963L92.032,78.759L95.566,80.769L96.744,55.304L97.923,55.031L102.64,51.945L104.99,105.33L107.35,55.552L108.53,78.801L110.88,123.04L112.06,55.277L114.42,112.86L115.6,48.342L116.77,112.73L117.95,51.143L119.13,48.872L121.49,48.378L122.66,56.097L123.84,57.317L125.02,46.068L126.2,45.831L127.38,79.343L128.56,61.322L129.73,45.999L130.91,61.22L132.09,50.549L133.27,46.739L134.45,48.962L135.62,86.236L136.8,99.794L137.98,69.958L139.16,49.552L140.34,52.589L141.52,60.067L142.69,56.127L143.87,54.414L145.05,54.243L146.23,48.321L147.41,54.71L148.58,55.69L149.76,49.222L150.94,105.04L152.12,94.432L153.3,51.065L154.48,70.896L155.65,48.474L156.83,63.242L158.01,58.799L159.19,101.1L160.37,100.63L161.54,53.222L162.72,68.466L163.9,60.004L165.08,49.255L166.26,62.769L167.43,59.503L168.61,57.203L169.79,52.017L170.97,52.661L172.15,48.95L173.33,56.553L174.5,54.219L175.68,54.477L176.86,66.525L178.04,61.762L179.22,61.316L180.39,57.373L181.57,61.933L182.75,66.19L183.93,55.318L185.11,61.28L186.29,65.396L187.46,61.984L188.64,59.072L189.82,58.395L191,63.125L192.18,58.131L193.35,54.003L194.53,58.266L195.71,53.659L196.89,60.651L198.07,64.045L199.25,62.697L200.42,69.299L201.6,59.986L202.78,67.238L203.96,63.832L205.14,60.411L206.31,61.915L207.49,55.846L208.67,63.209L209.85,63.065L211.03,60.216L212.21,59.156L213.38,57.149L214.56,56.673L215.74,52.613L216.92,54.429L218.1,54.743L219.27,52.907L220.45,51.256L221.63,59.932L222.81,67.493L223.99,59.914L225.17,56.939L226.34,55.28L227.52,53.287L228.7,55.169L229.88,58.149L231.06,63.176L232.23,60.312L233.41,54.405L234.59,53.914L235.77,53.009L236.95,54.051L238.13,59.156L239.3,52.251L240.48,53.836L241.66,53.012L242.84,52.883L244.02,53.476L245.19,59.054L246.37,64.177L247.55,57.664L248.73,55.879L249.91,55.963L251.09,53.102L252.26,54.618L253.44,54.264L254.62,58.458L255.8,53.198L256.98,53.479L258.15,52.97L259.33,51.993L260.51,52.548L261.69,53.231L262.87,53.359L264.05,52.634L265.22,51.915L266.4,51.259L267.58,51.34L268.76,53.311L269.94,51.93L271.11,53.177L272.29,54.662L273.47,53.815L274.65,53.272L275.83,52.946L277.01,52.841L278.18,52.368L279.36,50.421L280.54,52.059L281.72,51.951L282.9,51.059L284.07,51.442L285.25,51.625L286.43,51.649L287.61,51.313L288.79,50.19L289.97,51.328L291.14,50.25L292.32,51.46L293.5,51.718L294.68,52.299L295.86,51.721L297.03,51.373L298.21,51.334L299.39,50.04L300.57,50.531L301.75,49.588L302.93,49.501L304.1,50.352L305.28,49.201L306.46,49.615L307.64,49.42L308.82,50.136L309.99,49.938L311.17,49.148L312.35,49.357L313.53,48.62L314.71,48.974L315.89,49.228L317.06,50.597L318.24,50.579L319.42,49.564L320.6,49.246L321.78,48.578L322.95,48.42L324.13,48.815L325.31,48.803L326.49,48.815L327.67,48.548L328.85,47.988L330.02,48.165L331.2,47.925L332.38,48.782L333.56,48.611L334.74,48.177L335.91,48.111L337.09,47.907L338.27,47.904L339.45,48L340.63,48.462L341.81,48.228L342.98,47.85L344.16,48.114L345.34,47.638L346.52,47.785L347.7,47.767L348.87,47.491L350.05,47.62L351.23,47.329L352.41,47.245L353.59,47.125L354.77,47.113L355.94,47.308L357.12,47.203L358.3,47.296L359.48,47.272L360.66,47.29L361.83,47.015L363.01,47.167L364.19,47.078L365.37,46.844L366.55,47.122L367.73,47.048L368.9,47.116L370.08,46.886L371.26,46.73L372.44,46.721L373.62,46.502L374.79,46.589L375.97,46.637L377.15,46.41L378.33,46.553L379.51,46.454L380.69,46.532L381.86,46.565L383.04,46.32L384.22,46.478L385.4,46.356L386.58,46.26L387.75,46.398L388.93,46.302L390.11,46.469L391.29,46.314L392.47,46.251L393.64,46.194L394.82,46.248L396,46.098L397.18,46.083L398.36,46.086L399.54,46.05L400.71,45.993L401.89,45.843L403.07,45.954L404.25,46.068L405.43,46.047L406.6,46.017L407.78,45.906L408.96,45.969L410.14,45.852L411.32,45.909L412.5,45.993L413.67,45.846L414.85,45.852L416.03,45.852L417.21,45.762L418.39,45.795L419.56,45.771L420.74,45.676L421.92,45.691L423.1,45.697L424.28,45.694L425.46,45.649L426.63,45.64L427.81,45.724L428.99,45.685L430.17,45.577L431.35,45.718L432.52,45.595L433.7,45.64L434.88,45.667L436.06,45.55L437.24,45.559L438.42,45.589L439.59,45.559L440.77,45.574L441.95,45.556L443.13,45.481L444.31,45.508L445.48,45.538L446.66,45.553L447.84,45.439L449.02,45.475L450.2,45.457L451.38,45.457L452.55,45.445L453.73,45.505L454.91,45.424L456.09,45.457L457.27,45.481L458.44,45.448L459.62,45.445L460.8,45.355L461.98,45.406L463.16,45.433L464.34,45.358L465.51,45.403L466.69,45.385L467.87,45.349L469.05,45.334L470.23,45.358L471.4,45.373L472.58,45.358L473.76,45.346L474.94,45.304L476.12,45.313L477.3,45.325L478.47,45.289L479.65,45.322L480.83,45.265L482.01,45.295L483.19,45.298L484.36,45.295L485.54,45.352L486.72,45.271L487.9,45.262L489.08,45.328L490.26,45.256L491.43,45.217L492.61,45.268L493.79,45.271L494.97,45.271L496.15,45.277L497.32,45.235L498.5,45.259L499.68,45.241L500.86,45.274L502.04,45.271L503.22,45.265L504.39,45.232L505.57,45.25L506.75,45.235L507.93,45.241L509.11,45.223L510.28,45.22L511.46,45.199L512.64,45.22L513.82,45.205L515,45.199L516.18,45.241L517.35,45.217L518.53,45.193L519.71,45.184L520.89,45.196L522.07,45.211L523.24,45.214L524.42,45.208L525.6,45.199L526.78,45.169L527.96,45.193L529.14,45.187L530.31,45.178L531.49,45.184L532.67,45.184L533.85,45.184L535.03,45.187L536.2,45.178L537.38,45.196L538.56,45.187L539.74,45.172L540.92,45.166L542.1,45.172L543.27,45.184L544.45,45.184L545.63,45.175L546.81,45.178L547.99,45.199L549.16,45.184L550.34,45.181L551.52,45.193L552.7,45.172L553.88,45.166L555.06,45.169L556.23,45.175L557.41,45.166L558.59,45.169L559.77,45.178L560.95,45.175L562.12,45.16L563.3,45.169L564.48,45.16L565.66,45.166L566.84,45.16L568.02,45.154L569.19,45.175L570.37,45.16L571.55,45.166L572.73,45.163L573.91,45.163L575.08,45.16L576.26,45.151L577.44,45.157L578.62,45.16L579.8,45.163L580.98,45.16L582.15,45.166L583.33,45.154L584.51,45.163L585.69,45.166L586.87,45.166L588.04,45.154L589.22,45.154L590.4,45.157L591.58,45.151L592.76,45.154L593.94,45.154L595.11,45.16L596.29,45.151L597.47,45.151L598.65,45.154L599.83,45.154L602.18,45.151L603.36,45.154L604.54,45.151L605.72,45.151L606.9,45.151L608.07,45.157L609.25,45.151L610.43,45.154L611.61,45.151L612.79,45.151L613.96,45.151L615.14,45.154L616.32,45.16L617.5,45.154L618.68,45.151L619.85,45.154L621.03,45.151L625.75,45.154L626.92,45.151L628.1,45.151L630.46,45.151L631.64,45.151L632.81,45.154L635.17,45.151L641.06,45.157L644.6,45.154L646.95,45.151L650.49,45.151L651.67,45.151L654.02,45.151L655.2,45.151L656.38,45.151L658.73,45.154L664.63,45.151L666.98,45.151L702.33,45.151L720,45.151" style="fill:none;stroke:#0000FF" />
</g>
</svg>
