<?xml version="1.0"?>
<!-- Generated by SVGo and Plotinum VG -->
<svg width="720pt" height="432pt" viewBox="0 0 720 432"
	xmlns="http://www.w3.org/2000/svg"
	xmlns:xlink="http://www.w3.org/1999/xlink">
<g transform="scale(1, -1) translate(0, -432)">
<path d="M0,0L720,0L720,432L0,432Z" style="fill:#FFFFFF" />
<text x="358.5" y="-420.45" transform="scale(1, -1)"
	style="font-family:Times;font-weight:normal;font-style:normal;font-size:12px"> </text>
<text x="379.31" y="-3.8613" transform="scale(1, -1)"
	style="font-family:Times;font-weight:normal;font-style:normal;font-size:12px">Costs</text>
<text x="62.805" y="-18.634" transform="scale(1, -1)"
	style="font-family:Times;font-weight:normal;font-style:normal;font-size:10px">0</text>
<text x="332.31" y="-18.634" transform="scale(1, -1)"
	style="font-family:Times;font-weight:normal;font-style:normal;font-size:10px">200</text>
<text x="606.82" y="-18.634" transform="scale(1, -1)"
	style="font-family:Times;font-weight:normal;font-style:normal;font-size:10px">400</text>
<path d="M65.305,28.263L65.305,36.263" style="fill:none;stroke:#000000;stroke-width:0.5" />
<path d="M339.81,28.263L339.81,36.263" style="fill:none;stroke:#000000;stroke-width:0.5" />
<path d="M614.32,28.263L614.32,36.263" style="fill:none;stroke:#000000;stroke-width:0.5" />
<path d="M202.56,32.263L202.56,36.263" style="fill:none;stroke:#000000;stroke-width:0.5" />
<path d="M477.06,32.263L477.06,36.263" style="fill:none;stroke:#000000;stroke-width:0.5" />
<path d="M65.305,36.263L720,36.263" style="fill:none;stroke:#000000;stroke-width:0.5" />
<g transform="rotate(90)">
<text x="152.55" y="11.555" transform="scale(1, -1)"
	style="font-family:Times;font-weight:normal;font-style:normal;font-size:12px">Number of trials (1000000 total)</text>
</g>
<text x="24.055" y="-108.42" transform="scale(1, -1)"
	style="font-family:Times;font-weight:normal;font-style:normal;font-size:10px">40000</text>
<text x="19.055" y="-241.38" transform="scale(1, -1)"
	style="font-family:Times;font-weight:normal;font-style:normal;font-size:10px">120000</text>
<text x="19.055" y="-374.34" transform="scale(1, -1)"
	style="font-family:Times;font-weight:normal;font-style:normal;font-size:10px">200000</text>
<path d="M51.555,111.63L59.555,111.63" style="fill:none;stroke:#000000;stroke-width:0.5" />
<path d="M51.555,244.59L59.555,244.59" style="fill:none;stroke:#000000;stroke-width:0.5" />
<path d="M51.555,377.55L59.555,377.55" style="fill:none;stroke:#000000;stroke-width:0.5" />
<path d="M55.555,178.11L59.555,178.11" style="fill:none;stroke:#000000;stroke-width:0.5" />
<path d="M55.555,311.07L59.555,311.07" style="fill:none;stroke:#000000;stroke-width:0.5" />
<path d="M59.555,45.151L59.555,416.58" style="fill:none;stroke:#000000;stroke-width:0.5" />
<path d="M65.305,416.58L95.5,51.957L96.873,55.582L100.99,59.516L102.36,77.427L103.74,62.707L105.11,48.608L107.85,73.937L109.23,62.808L110.6,48.396L111.97,83.899L113.34,58.62L114.72,66.688L116.09,48.485L117.46,51.818L118.83,55.682L120.21,62.95L121.58,66.372L122.95,48.519L124.32,62.659L125.7,84.921L127.07,48.848L128.44,74.152L131.19,45.434L132.56,49.516L133.93,86.058L135.3,49.18L136.68,45.258L138.05,75.629L139.42,65.021L140.79,47.295L142.17,68.069L143.54,61.575L144.91,52.685L146.28,59.479L147.66,48.1L149.03,56.802L150.4,64.808L151.77,60.638L153.15,47.935L154.52,50.107L155.89,50.96L157.26,55.291L158.64,51.585L160.01,50.44L161.38,51.959L162.75,59.612L164.13,53.112L165.5,59.275L166.87,54.08L168.24,53.712L169.62,52.737L170.99,55.305L172.36,54.829L173.73,51.833L175.11,62.393L176.48,61.815L177.85,52.946L179.22,51.309L180.6,57.972L181.97,55.787L183.34,52.865L184.71,55.261L186.09,53.88L187.46,54.311L188.83,57.5L190.2,52.335L191.58,50.81L192.95,54.058L194.32,56.077L195.69,51.784L197.07,54.593L198.44,55.17L199.81,52.268L201.18,52.409L202.56,53.574L203.93,50.912L205.3,51.967L206.67,54.69L208.05,51.552L209.42,51.279L210.79,52.83L212.17,54.781L213.54,51.317L214.91,52.185L216.28,50.51L217.66,51.196L219.03,52.542L220.4,51.778L221.77,50.664L223.15,52.482L224.52,51.507L225.89,51.479L227.26,50.181L228.64,50.41L230.01,50.437L231.38,50.993L232.75,49.464L234.13,50.189L235.5,51.214L236.87,50.563L238.24,49.83L239.62,50.28L240.99,49.509L242.36,49.519L243.73,50.782L245.11,49.955L246.48,49.044L247.85,49.627L249.22,50.33L250.6,49.298L251.97,49.119L253.34,49.478L254.71,49.139L256.09,48.927L257.46,49.102L258.83,48.655L260.2,48.736L261.58,49.345L262.95,48.793L264.32,48.105L265.69,48.524L267.07,48.785L268.44,48.372L269.81,48.165L271.18,48.253L272.56,48.357L273.93,48.204L275.3,48.439L276.67,47.839L278.05,47.834L279.42,47.93L280.79,47.939L282.16,47.764L283.54,47.789L284.91,47.711L286.28,47.862L287.65,47.443L289.03,47.488L290.4,47.458L291.77,47.58L293.14,47.535L294.52,47.141L295.89,47.211L297.26,47.181L298.63,47.249L300.01,47.216L301.38,46.906L302.75,47.056L304.12,47.123L305.5,46.862L306.87,46.842L308.24,46.956L309.61,46.883L310.99,46.782L312.36,46.865L313.73,46.745L315.1,46.541L316.48,46.514L317.85,46.644L319.22,46.532L320.59,46.519L321.97,46.542L323.34,46.486L324.71,46.396L326.08,46.396L327.46,46.296L328.83,46.28L330.2,46.267L331.57,46.263L332.95,46.2L334.32,46.154L335.69,46.263L337.07,46.102L338.44,46.065L339.81,46.031L341.18,46.052L342.56,46.085L343.93,46.034L345.3,45.964L346.67,46.044L348.05,45.987L349.42,45.889L350.79,45.901L352.16,45.941L353.54,45.928L354.91,45.906L356.28,45.788L357.65,45.859L359.03,45.811L360.4,45.721L361.77,45.723L363.14,45.823L364.52,45.755L365.89,45.723L367.26,45.715L368.63,45.72L370.01,45.703L371.38,45.662L372.75,45.638L374.12,45.615L375.5,45.605L376.87,45.635L378.24,45.625L379.61,45.545L380.99,45.574L382.36,45.575L383.73,45.55L385.1,45.512L386.48,45.504L387.85,45.48L389.22,45.504L390.59,45.479L391.97,45.459L393.34,45.489L394.71,45.449L396.08,45.454L397.46,45.422L398.83,45.399L400.2,45.414L401.57,45.47L402.95,45.417L404.32,45.396L405.69,45.387L407.06,45.424L408.44,45.362L409.81,45.356L411.18,45.367L412.55,45.318L413.93,45.377L415.3,45.344L416.67,45.303L418.04,45.352L419.42,45.333L420.79,45.299L422.16,45.341L423.53,45.309L424.91,45.291L426.28,45.304L427.65,45.288L429.02,45.284L430.4,45.276L431.77,45.293L433.14,45.261L434.51,45.279L435.89,45.281L437.26,45.271L438.63,45.263L440,45.231L441.38,45.254L442.75,45.249L444.12,45.248L445.49,45.243L446.87,45.254L448.24,45.229L449.61,45.233L450.98,45.221L452.36,45.246L453.73,45.228L455.1,45.223L456.47,45.226L457.85,45.211L459.22,45.22L460.59,45.193L461.96,45.215L463.34,45.218L464.71,45.201L466.08,45.208L467.46,45.196L468.83,45.201L470.2,45.206L471.57,45.198L472.95,45.203L474.32,45.203L475.69,45.193L477.06,45.206L478.44,45.193L479.81,45.196L481.18,45.183L482.55,45.185L483.93,45.186L485.3,45.183L486.67,45.186L488.04,45.193L489.42,45.183L490.79,45.178L492.16,45.201L493.53,45.176L494.91,45.178L496.28,45.175L497.65,45.181L499.02,45.173L500.4,45.171L501.77,45.175L503.14,45.168L504.51,45.176L505.89,45.173L507.26,45.166L508.63,45.173L510,45.173L511.38,45.175L512.75,45.17L514.12,45.161L515.49,45.166L516.87,45.168L518.24,45.165L519.61,45.166L520.98,45.166L522.36,45.166L523.73,45.161L525.1,45.161L526.47,45.163L527.85,45.158L529.22,45.151L530.59,45.171L531.96,45.158L533.34,45.16L534.71,45.165L536.08,45.163L537.45,45.156L538.83,45.161L540.2,45.158L541.57,45.156L542.94,45.156L544.32,45.156L545.69,45.156L547.06,45.153L548.43,45.156L549.81,45.155L551.18,45.158L552.55,45.151L553.92,45.153L555.3,45.153L556.67,45.156L558.04,45.153L559.41,45.16L560.79,45.153L562.16,45.156L563.53,45.151L564.9,45.153L566.28,45.153L567.65,45.153L569.02,45.155L570.39,45.155L571.77,45.155L573.14,45.153L574.51,45.153L577.26,45.155L578.63,45.153L581.37,45.151L584.12,45.151L585.49,45.153L588.24,45.151L590.98,45.151L593.73,45.151L595.1,45.151L599.22,45.153L604.71,45.151L608.83,45.151L611.57,45.153L612.94,45.151L614.32,45.153L619.81,45.153L622.55,45.151L623.92,45.153L629.41,45.151L630.79,45.151L643.14,45.151L655.49,45.151L658.24,45.151L689.8,45.153L720,45.151" style="fill:none;stroke:#0000FF" />
</g>
</svg>
