<?xml version="1.0"?>
<!-- Generated by SVGo and Plotinum VG -->
<svg width="720pt" height="432pt" viewBox="0 0 720 432"
	xmlns="http://www.w3.org/2000/svg"
	xmlns:xlink="http://www.w3.org/1999/xlink">
<g transform="scale(1, -1) translate(0, -432)">
<path d="M0,0L720,0L720,432L0,432Z" style="fill:#FFFFFF" />
<text x="358.5" y="-420.45" transform="scale(1, -1)"
	style="font-family:Times;font-weight:normal;font-style:normal;font-size:12px"> </text>
<text x="379.31" y="-3.8613" transform="scale(1, -1)"
	style="font-family:Times;font-weight:normal;font-style:normal;font-size:12px">Costs</text>
<text x="56.555" y="-18.634" transform="scale(1, -1)"
	style="font-family:Times;font-weight:normal;font-style:normal;font-size:10px">0.00</text>
<text x="362.13" y="-18.634" transform="scale(1, -1)"
	style="font-family:Times;font-weight:normal;font-style:normal;font-size:10px">250.00</text>
<text x="672.71" y="-18.634" transform="scale(1, -1)"
	style="font-family:Times;font-weight:normal;font-style:normal;font-size:10px">500.00</text>
<path d="M65.305,28.263L65.305,36.263" style="fill:none;stroke:#000000;stroke-width:0.5" />
<path d="M375.88,28.263L375.88,36.263" style="fill:none;stroke:#000000;stroke-width:0.5" />
<path d="M686.46,28.263L686.46,36.263" style="fill:none;stroke:#000000;stroke-width:0.5" />
<path d="M127.42,32.263L127.42,36.263" style="fill:none;stroke:#000000;stroke-width:0.5" />
<path d="M189.54,32.263L189.54,36.263" style="fill:none;stroke:#000000;stroke-width:0.5" />
<path d="M251.65,32.263L251.65,36.263" style="fill:none;stroke:#000000;stroke-width:0.5" />
<path d="M313.77,32.263L313.77,36.263" style="fill:none;stroke:#000000;stroke-width:0.5" />
<path d="M438,32.263L438,36.263" style="fill:none;stroke:#000000;stroke-width:0.5" />
<path d="M500.11,32.263L500.11,36.263" style="fill:none;stroke:#000000;stroke-width:0.5" />
<path d="M562.23,32.263L562.23,36.263" style="fill:none;stroke:#000000;stroke-width:0.5" />
<path d="M624.34,32.263L624.34,36.263" style="fill:none;stroke:#000000;stroke-width:0.5" />
<path d="M65.305,36.263L720,36.263" style="fill:none;stroke:#000000;stroke-width:0.5" />
<g transform="rotate(90)">
<text x="149.91" y="11.555" transform="scale(1, -1)"
	style="font-family:Times;font-weight:normal;font-style:normal;font-size:12px">Number of trials (1000000 total)</text>
</g>
<text x="24.055" y="-94.088" transform="scale(1, -1)"
	style="font-family:Times;font-weight:normal;font-style:normal;font-size:10px">20000</text>
<text x="24.055" y="-250.52" transform="scale(1, -1)"
	style="font-family:Times;font-weight:normal;font-style:normal;font-size:10px">80000</text>
<text x="19.055" y="-406.96" transform="scale(1, -1)"
	style="font-family:Times;font-weight:normal;font-style:normal;font-size:10px">140000</text>
<path d="M51.555,97.293L59.555,97.293" style="fill:none;stroke:#000000;stroke-width:0.5" />
<path d="M51.555,253.73L59.555,253.73" style="fill:none;stroke:#000000;stroke-width:0.5" />
<path d="M51.555,410.16L59.555,410.16" style="fill:none;stroke:#000000;stroke-width:0.5" />
<path d="M55.555,175.51L59.555,175.51" style="fill:none;stroke:#000000;stroke-width:0.5" />
<path d="M55.555,331.94L59.555,331.94" style="fill:none;stroke:#000000;stroke-width:0.5" />
<path d="M59.555,45.151L59.555,411.31" style="fill:none;stroke:#000000;stroke-width:0.5" />
<path d="M65.305,411.31L93.878,48.473L97.605,48.491L98.847,55.288L100.09,80.028L102.57,58.824L103.82,73.127L105.06,55.476L106.3,52.402L107.54,90.856L108.79,58.712L110.03,69.432L111.27,69.683L112.51,59.548L113.75,89.881L115,55.301L116.24,66.617L117.48,75.536L118.72,55.262L119.97,68.95L121.21,58.628L122.45,72.467L126.18,51.787L127.42,65.449L128.66,59.376L131.15,100.09L132.39,76.782L133.63,46.163L134.87,70.455L136.12,63.342L137.36,61.233L138.6,69.928L139.84,46.812L141.09,79.507L142.33,68.791L143.57,48.619L144.81,50.684L146.05,52.452L147.3,51.247L148.54,64.432L149.78,52.209L151.02,53.862L152.27,56.897L153.51,67.746L154.75,55.234L155.99,72.253L157.24,57.736L158.48,55.52L159.72,57.523L160.96,65.853L162.2,57.278L163.45,55.252L164.69,71.855L165.93,62.137L167.17,56.67L168.42,56.993L169.66,62.203L170.9,60.211L172.14,56.104L173.39,63.587L174.63,60.597L175.87,61.488L177.11,63.183L178.35,57.955L179.6,63.884L180.84,61.522L182.08,57.288L183.32,65.803L184.57,60.213L185.81,59.804L187.05,61.394L188.29,59.734L189.54,59.65L190.78,58.602L192.02,55.948L193.26,59.616L194.5,58.367L195.75,57.528L196.99,57.731L198.23,62.122L199.47,57.387L200.72,56.876L201.96,58.706L203.2,59.032L204.44,60.354L205.69,56.605L206.93,59.074L208.17,60.917L209.41,56.347L210.65,57.353L211.9,56.292L213.14,56.949L214.38,56.581L215.62,55.705L216.87,54.942L218.11,56.871L219.35,56.553L220.59,54.357L221.84,57.165L223.08,56.115L224.32,54.707L225.56,55.643L226.8,56.842L228.05,55.51L229.29,55.374L230.53,56.548L231.77,56.793L233.02,54.736L234.26,54.738L235.5,53.81L236.74,55.252L237.99,54.441L239.23,54.188L240.47,55.009L241.71,54.162L242.95,53.927L244.2,54.079L245.44,54.099L246.68,54.047L247.92,53.557L249.17,54L250.41,53.594L251.65,53.484L252.89,54.295L254.14,52.835L255.38,53.614L256.62,53.375L257.86,52.392L259.1,52.676L260.35,52.91L261.59,52.801L262.83,51.907L264.07,52.598L265.32,52.35L266.56,52.097L267.8,51.985L269.04,52.22L270.29,52.016L271.53,51.784L272.77,51.44L274.01,52.047L275.25,51.641L276.5,51.341L277.74,51.041L278.98,51.364L280.22,51.19L281.47,50.655L282.71,50.752L283.95,50.945L285.19,50.512L286.44,50.556L287.68,50.397L288.92,50.395L290.16,50.363L291.4,50.259L292.65,50.335L293.89,50.009L295.13,50.032L296.37,49.777L297.62,50.035L298.86,50.011L300.1,49.354L301.34,49.625L302.59,49.472L303.83,49.607L305.07,49.372L306.31,49.378L307.55,49.169L308.8,48.895L310.04,49.091L311.28,48.89L312.52,48.947L313.77,48.861L315.01,48.807L316.25,48.854L317.49,48.648L318.74,48.507L319.98,48.64L321.22,48.536L322.46,48.264L323.7,48.28L324.95,48.144L326.19,48.225L327.43,48.215L328.67,48.178L329.92,48.03L331.16,47.967L332.4,47.881L333.64,47.66L334.89,47.753L336.13,47.886L337.37,47.764L338.61,47.639L339.85,47.472L341.1,47.485L342.34,47.464L343.58,47.498L344.82,47.31L346.07,47.388L347.31,47.354L348.55,47.237L349.79,47.235L351.04,47.042L352.28,47.245L353.52,47.193L354.76,46.997L356,47.01L357.25,46.875L358.49,46.935L359.73,46.927L360.97,47.065L362.22,46.966L363.46,46.757L364.7,46.69L365.94,46.737L367.19,46.648L368.43,46.703L369.67,46.575L370.91,46.578L372.15,46.45L373.4,46.494L374.64,46.494L375.88,46.546L377.12,46.445L378.37,46.364L379.61,46.288L380.85,46.309L382.09,46.16L383.34,46.426L384.58,46.275L385.82,46.304L387.06,46.223L388.3,46.176L389.55,46.106L390.79,46.08L392.03,46.1L393.27,45.994L394.52,45.973L395.76,46.085L397,46.093L398.24,46.014L399.49,45.811L400.73,46.051L401.97,46.043L403.21,45.944L404.45,45.889L405.7,45.84L406.94,45.913L408.18,45.814L409.42,45.868L410.67,45.73L411.91,45.853L413.15,45.761L414.39,45.717L415.64,45.827L416.88,45.709L418.12,45.772L419.36,45.678L420.6,45.696L421.85,45.657L423.09,45.592L424.33,45.694L425.57,45.67L426.82,45.636L428.06,45.571L429.3,45.545L430.54,45.631L431.78,45.647L433.03,45.584L434.27,45.514L435.51,45.519L436.75,45.449L438,45.55L439.24,45.584L440.48,45.563L441.72,45.49L442.97,45.506L444.21,45.475L445.45,45.425L446.69,45.464L447.93,45.488L449.18,45.48L450.42,45.454L451.66,45.386L452.9,45.446L454.15,45.438L455.39,45.451L456.63,45.373L457.87,45.399L459.12,45.386L460.36,45.394L461.6,45.376L462.84,45.347L464.08,45.409L465.33,45.394L466.57,45.352L467.81,45.326L469.05,45.357L470.3,45.404L471.54,45.3L472.78,45.316L474.02,45.297L475.27,45.326L476.51,45.326L477.75,45.277L478.99,45.323L480.23,45.29L481.48,45.323L482.72,45.279L483.96,45.313L485.2,45.271L486.45,45.303L487.69,45.261L488.93,45.237L490.17,45.263L491.42,45.284L492.66,45.248L493.9,45.248L495.14,45.271L496.38,45.297L497.63,45.25L498.87,45.232L500.11,45.23L501.35,45.253L502.6,45.266L503.84,45.248L505.08,45.243L506.32,45.232L507.57,45.219L508.81,45.214L510.05,45.219L511.29,45.24L512.53,45.232L513.78,45.224L515.02,45.217L516.26,45.19L517.5,45.214L518.75,45.23L519.99,45.222L521.23,45.206L522.47,45.217L523.72,45.198L524.96,45.211L526.2,45.198L527.44,45.204L528.68,45.175L529.93,45.185L531.17,45.193L532.41,45.214L533.65,45.183L534.9,45.206L536.14,45.196L537.38,45.19L538.62,45.193L539.87,45.18L541.11,45.175L542.35,45.204L543.59,45.167L544.83,45.175L546.08,45.18L547.32,45.17L548.56,45.19L549.8,45.188L551.05,45.167L552.29,45.164L553.53,45.183L554.77,45.172L556.02,45.183L557.26,45.17L558.5,45.18L559.74,45.17L560.98,45.162L562.23,45.19L563.47,45.172L564.71,45.167L565.95,45.164L567.2,45.177L568.44,45.167L569.68,45.18L570.92,45.164L572.17,45.164L573.41,45.17L574.65,45.175L575.89,45.159L577.13,45.159L578.38,45.157L579.62,45.157L580.86,45.157L582.1,45.164L583.35,45.159L584.59,45.162L585.83,45.162L587.07,45.154L588.32,45.167L589.56,45.17L590.8,45.159L592.04,45.167L593.28,45.164L594.53,45.154L595.77,45.154L597.01,45.157L598.25,45.159L599.5,45.157L600.74,45.154L601.98,45.157L603.22,45.154L604.47,45.154L606.95,45.154L608.19,45.154L609.43,45.151L610.68,45.157L611.92,45.154L613.16,45.154L614.4,45.151L615.65,45.167L616.89,45.154L618.13,45.154L619.37,45.154L621.86,45.151L623.1,45.151L624.34,45.151L625.58,45.154L626.83,45.151L628.07,45.154L629.31,45.151L631.8,45.154L633.04,45.154L634.28,45.151L635.52,45.151L636.77,45.151L638.01,45.154L641.73,45.151L646.7,45.159L647.95,45.154L650.43,45.151L651.67,45.154L652.92,45.151L656.64,45.151L659.13,45.151L670.31,45.151L672.79,45.151L677.76,45.151L682.73,45.151L720,45.151" style="fill:none;stroke:#0000FF" />
</g>
</svg>
