<?xml version="1.0"?>
<!-- Generated by SVGo and Plotinum VG -->
<svg width="720pt" height="432pt" viewBox="0 0 720 432"
	xmlns="http://www.w3.org/2000/svg"
	xmlns:xlink="http://www.w3.org/1999/xlink">
<g transform="scale(1, -1) translate(0, -432)">
<path d="M0,0L720,0L720,432L0,432Z" style="fill:#FFFFFF" />
<text x="358.5" y="-420.45" transform="scale(1, -1)"
	style="font-family:Times;font-weight:normal;font-style:normal;font-size:12px"> </text>
<text x="376.81" y="-3.8613" transform="scale(1, -1)"
	style="font-family:Times;font-weight:normal;font-style:normal;font-size:12px">Costs</text>
<text x="51.555" y="-18.634" transform="scale(1, -1)"
	style="font-family:Times;font-weight:normal;font-style:normal;font-size:10px">0.00</text>
<text x="332.38" y="-18.634" transform="scale(1, -1)"
	style="font-family:Times;font-weight:normal;font-style:normal;font-size:10px">250.00</text>
<text x="618.21" y="-18.634" transform="scale(1, -1)"
	style="font-family:Times;font-weight:normal;font-style:normal;font-size:10px">500.00</text>
<path d="M60.305,28.263L60.305,36.263" style="fill:none;stroke:#000000;stroke-width:0.5" />
<path d="M346.13,28.263L346.13,36.263" style="fill:none;stroke:#000000;stroke-width:0.5" />
<path d="M631.96,28.263L631.96,36.263" style="fill:none;stroke:#000000;stroke-width:0.5" />
<path d="M117.47,32.263L117.47,36.263" style="fill:none;stroke:#000000;stroke-width:0.5" />
<path d="M174.64,32.263L174.64,36.263" style="fill:none;stroke:#000000;stroke-width:0.5" />
<path d="M231.8,32.263L231.8,36.263" style="fill:none;stroke:#000000;stroke-width:0.5" />
<path d="M288.97,32.263L288.97,36.263" style="fill:none;stroke:#000000;stroke-width:0.5" />
<path d="M403.3,32.263L403.3,36.263" style="fill:none;stroke:#000000;stroke-width:0.5" />
<path d="M460.47,32.263L460.47,36.263" style="fill:none;stroke:#000000;stroke-width:0.5" />
<path d="M517.63,32.263L517.63,36.263" style="fill:none;stroke:#000000;stroke-width:0.5" />
<path d="M574.8,32.263L574.8,36.263" style="fill:none;stroke:#000000;stroke-width:0.5" />
<path d="M689.13,32.263L689.13,36.263" style="fill:none;stroke:#000000;stroke-width:0.5" />
<path d="M60.305,36.263L720,36.263" style="fill:none;stroke:#000000;stroke-width:0.5" />
<g transform="rotate(90)">
<text x="152.55" y="11.555" transform="scale(1, -1)"
	style="font-family:Times;font-weight:normal;font-style:normal;font-size:12px">Number of trials (1000000 total)</text>
</g>
<text x="24.055" y="-68.956" transform="scale(1, -1)"
	style="font-family:Times;font-weight:normal;font-style:normal;font-size:10px">5000</text>
<text x="19.055" y="-177.02" transform="scale(1, -1)"
	style="font-family:Times;font-weight:normal;font-style:normal;font-size:10px">25000</text>
<text x="19.055" y="-285.08" transform="scale(1, -1)"
	style="font-family:Times;font-weight:normal;font-style:normal;font-size:10px">45000</text>
<text x="19.055" y="-393.15" transform="scale(1, -1)"
	style="font-family:Times;font-weight:normal;font-style:normal;font-size:10px">65000</text>
<path d="M46.555,72.162L54.555,72.162" style="fill:none;stroke:#000000;stroke-width:0.5" />
<path d="M46.555,180.23L54.555,180.23" style="fill:none;stroke:#000000;stroke-width:0.5" />
<path d="M46.555,288.29L54.555,288.29" style="fill:none;stroke:#000000;stroke-width:0.5" />
<path d="M46.555,396.35L54.555,396.35" style="fill:none;stroke:#000000;stroke-width:0.5" />
<path d="M50.555,126.19L54.555,126.19" style="fill:none;stroke:#000000;stroke-width:0.5" />
<path d="M50.555,234.26L54.555,234.26" style="fill:none;stroke:#000000;stroke-width:0.5" />
<path d="M50.555,342.32L54.555,342.32" style="fill:none;stroke:#000000;stroke-width:0.5" />
<path d="M54.555,45.151L54.555,416.58" style="fill:none;stroke:#000000;stroke-width:0.5" />
<path d="M60.305,416.58L85.458,49.031L86.601,48.896L87.744,77.079L90.031,63.447L91.174,89.269L92.318,79.537L93.461,52.149L94.604,48.501L95.748,75.177L96.891,79.121L98.034,66.607L99.178,69.174L100.32,74.118L101.46,67.758L103.75,111.04L104.89,84.789L106.04,90.754L107.18,115.36L108.32,93.515L109.47,82.126L110.61,60.07L111.75,63.128L112.9,70.795L114.04,45.486L115.18,45.405L116.33,70.492L117.47,68.996L118.61,71.2L119.76,47.68L120.9,107.64L122.04,67.802L123.19,83.276L124.33,63.506L125.47,67.429L126.62,53.051L127.76,92.845L128.9,55.061L130.05,53.424L131.19,82.552L132.33,61.285L133.48,59.07L134.62,65.613L135.76,67.499L136.91,71.654L138.05,66.289L139.19,70.595L140.34,70.033L141.48,96.714L142.62,68.218L143.77,88.566L144.91,78.576L146.05,66.937L147.2,70.098L148.34,100.22L149.48,72.059L150.63,76.711L151.77,82.417L152.91,99.075L154.06,76.728L155.2,77.452L156.34,77.862L157.49,74.815L158.63,73.237L159.77,74.604L160.92,70.455L162.06,73.34L163.2,70.195L164.35,78.738L165.49,72.778L166.63,76.079L167.78,79.364L168.92,78.424L170.06,72.286L171.21,77.711L172.35,74.069L173.49,72.205L174.64,74.853L175.78,71.557L176.92,71.665L178.07,73.232L179.21,75.02L180.35,75.193L181.5,70.719L182.64,70.298L183.78,77.014L184.93,76.906L186.07,71.632L187.21,73.394L188.36,82.839L189.5,75.312L190.64,73.896L191.79,78.311L192.93,75.344L194.07,73.237L195.22,72L196.36,74.631L197.5,73.199L198.65,74.615L199.79,74.28L200.93,72.162L202.08,75.15L203.22,69.763L204.36,75.507L205.51,72.762L206.65,70.99L207.79,68.569L208.94,76.117L210.08,69.369L211.22,72.67L212.37,71.649L213.51,71.789L214.65,69.952L215.8,73.378L216.94,69.082L218.08,68.677L219.23,70.163L220.37,71.195L221.51,67.677L222.66,67.964L223.8,68.952L224.94,69.914L226.09,67.699L227.23,67.11L228.37,68.034L229.52,69.271L230.66,66.494L231.8,69.179L232.95,67.893L234.09,68.839L235.23,67.893L236.38,68.282L237.52,66.418L238.66,66.413L239.81,66.424L240.95,67.602L242.09,65.721L243.24,65.176L244.38,65.349L245.52,65.954L246.67,64.381L247.81,65.1L248.95,64.516L250.1,64.689L251.24,64.587L252.38,64.657L253.53,62.917L254.67,62.95L255.81,64.041L256.96,63.549L258.1,62.404L259.24,63.236L260.39,62.285L261.53,62.258L262.67,61.993L263.82,61.637L264.96,61.966L266.1,60.578L267.25,60.777L268.39,61.534L269.53,61.075L270.68,60.713L271.82,60.507L272.96,60.043L274.11,59.578L275.25,59.567L276.39,60.107L277.54,59.659L278.68,59.41L279.82,59.383L280.97,59.275L282.11,58.643L283.25,58.773L284.4,58.087L285.54,58.281L286.68,57.914L287.83,57.654L288.97,57.303L290.11,57.692L291.26,56.92L292.4,56.893L293.54,56.79L294.69,56.736L295.83,56.455L296.97,56.558L298.12,56.131L299.26,55.715L300.4,55.482L301.55,55.731L302.69,55.407L303.83,55.239L304.98,54.931L306.12,55.012L307.26,54.369L308.41,54.688L309.55,54.731L310.69,53.996L311.83,54.569L312.98,54.045L314.12,53.715L315.26,53.624L316.41,54.05L317.55,53.332L318.69,53.083L319.84,53.159L320.98,52.797L322.12,53.175L323.27,52.764L324.41,52.316L325.55,52.462L326.7,51.976L327.84,52.235L328.98,51.911L330.13,51.506L331.27,51.992L332.41,51.657L333.56,51.77L334.7,51.635L335.84,51.57L336.99,51.181L338.13,50.927L339.27,50.976L340.42,50.998L341.56,50.722L342.7,50.846L343.85,50.522L344.99,50.29L346.13,50.598L347.28,50.387L348.42,50.468L349.56,49.939L350.71,50.333L351.85,49.885L352.99,49.701L354.14,49.312L355.28,49.42L356.42,49.49L357.57,49.404L358.71,49.285L359.85,49.22L361,49.02L362.14,48.982L363.28,48.928L364.43,48.88L365.57,49.004L366.71,48.755L367.86,48.744L369,48.723L370.14,48.539L371.29,48.382L372.43,48.269L373.57,48.242L374.72,48.22L375.86,47.902L377,48.064L378.15,47.788L379.29,48.026L380.43,48.193L381.58,47.972L382.72,47.734L383.86,47.891L385.01,47.761L386.15,47.669L387.29,47.869L388.44,47.55L389.58,47.437L390.72,47.464L391.87,47.415L393.01,47.356L394.15,47.124L395.3,47.064L396.44,47.156L397.58,47.113L398.73,46.94L399.87,47.102L401.01,47.026L402.16,46.934L403.3,46.853L404.44,46.799L405.59,46.832L406.73,46.762L407.87,46.751L409.02,46.632L410.16,46.789L411.3,46.61L412.45,46.502L413.59,46.502L414.73,46.491L415.88,46.562L417.02,46.508L418.16,46.459L419.31,46.405L420.45,46.405L421.59,46.286L422.74,46.194L423.88,46.291L425.02,46.216L426.17,46.189L427.31,46.318L428.45,46.227L429.6,46.156L430.74,46.092L431.88,46.135L433.03,46.097L434.17,46.081L435.31,45.973L436.46,45.989L437.6,46.059L438.74,46.037L439.89,45.929L441.03,45.778L442.17,45.73L443.32,45.892L444.46,45.886L445.6,45.913L446.75,45.778L447.89,45.913L449.03,45.843L450.18,45.627L451.32,45.902L452.46,45.735L453.61,45.832L454.75,45.702L455.89,45.648L457.04,45.702L458.18,45.681L459.32,45.702L460.47,45.681L461.61,45.67L462.75,45.616L463.9,45.692L465.04,45.589L466.18,45.638L467.33,45.513L468.47,45.562L469.61,45.567L470.76,45.53L471.9,45.524L473.04,45.47L474.19,45.503L475.33,45.459L476.47,45.411L477.62,45.454L478.76,45.449L479.9,45.476L481.05,45.486L482.19,45.454L483.33,45.524L484.48,45.422L485.62,45.346L486.76,45.422L487.91,45.367L489.05,45.422L490.19,45.378L491.34,45.357L492.48,45.389L493.62,45.346L494.77,45.351L495.91,45.395L497.05,45.351L498.2,45.384L499.34,45.373L500.48,45.367L501.63,45.324L502.77,45.367L503.91,45.254L505.06,45.303L506.2,45.33L507.34,45.308L508.49,45.297L509.63,45.297L510.77,45.276L511.92,45.281L513.06,45.286L514.2,45.319L515.35,45.243L516.49,45.276L517.63,45.243L518.78,45.254L519.92,45.243L521.06,45.265L522.21,45.259L523.35,45.259L524.49,45.222L525.64,45.195L526.78,45.232L527.92,45.249L529.07,45.243L530.21,45.243L531.35,45.211L532.5,45.189L533.64,45.195L534.78,45.227L535.93,45.216L537.07,45.243L538.21,45.2L539.36,45.238L540.5,45.222L541.64,45.205L542.79,45.232L543.93,45.189L545.07,45.195L546.22,45.195L547.36,45.189L548.5,45.205L549.65,45.173L550.79,45.184L551.93,45.178L553.08,45.189L554.22,45.184L555.36,45.178L556.51,45.178L557.65,45.157L558.79,45.168L559.94,45.189L561.08,45.184L562.22,45.173L563.37,45.178L564.51,45.162L565.65,45.211L566.8,45.157L567.94,45.173L569.08,45.162L570.23,45.178L571.37,45.178L572.51,45.178L573.66,45.173L574.8,45.157L575.94,45.184L577.09,45.189L578.23,45.189L579.37,45.162L580.52,45.168L581.66,45.173L582.8,45.151L583.94,45.162L587.37,45.162L588.52,45.178L589.66,45.157L590.8,45.162L593.09,45.162L594.23,45.157L595.38,45.157L596.52,45.162L598.81,45.157L599.95,45.151L601.09,45.151L602.24,45.151L603.38,45.173L604.52,45.157L605.67,45.168L606.81,45.151L607.95,45.157L611.38,45.162L612.53,45.151L613.67,45.157L614.81,45.151L617.1,45.151L618.24,45.151L621.67,45.162L622.82,45.162L623.96,45.151L625.1,45.157L626.25,45.157L629.68,45.151L630.82,45.151L633.11,45.151L634.25,45.151L636.54,45.162L639.97,45.157L641.11,45.151L643.4,45.151L647.97,45.151L649.11,45.151L651.4,45.157L655.97,45.151L657.12,45.151L658.26,45.151L659.4,45.157L661.69,45.151L670.84,45.151L682.27,45.151L683.41,45.151L685.7,45.151L703.99,45.151L708.57,45.151L720,45.151" style="fill:none;stroke:#0000FF" />
</g>
</svg>
