<?xml version="1.0"?>
<!-- Generated by SVGo and Plotinum VG -->
<svg width="720pt" height="432pt" viewBox="0 0 720 432"
	xmlns="http://www.w3.org/2000/svg"
	xmlns:xlink="http://www.w3.org/1999/xlink">
<g transform="scale(1, -1) translate(0, -432)">
<path d="M0,0L720,0L720,432L0,432Z" style="fill:#FFFFFF" />
<text x="358.5" y="-420.45" transform="scale(1, -1)"
	style="font-family:Times;font-weight:normal;font-style:normal;font-size:12px"> </text>
<text x="385.56" y="-3.8613" transform="scale(1, -1)"
	style="font-family:Times;font-weight:normal;font-style:normal;font-size:12px">Costs</text>
<text x="75.305" y="-18.634" transform="scale(1, -1)"
	style="font-family:Times;font-weight:normal;font-style:normal;font-size:10px">0</text>
<text x="342.42" y="-18.634" transform="scale(1, -1)"
	style="font-family:Times;font-weight:normal;font-style:normal;font-size:10px">200</text>
<text x="614.54" y="-18.634" transform="scale(1, -1)"
	style="font-family:Times;font-weight:normal;font-style:normal;font-size:10px">400</text>
<path d="M77.805,28.263L77.805,36.263" style="fill:none;stroke:#000000;stroke-width:0.5" />
<path d="M349.92,28.263L349.92,36.263" style="fill:none;stroke:#000000;stroke-width:0.5" />
<path d="M622.04,28.263L622.04,36.263" style="fill:none;stroke:#000000;stroke-width:0.5" />
<path d="M213.86,32.263L213.86,36.263" style="fill:none;stroke:#000000;stroke-width:0.5" />
<path d="M485.98,32.263L485.98,36.263" style="fill:none;stroke:#000000;stroke-width:0.5" />
<path d="M77.805,36.263L720,36.263" style="fill:none;stroke:#000000;stroke-width:0.5" />
<g transform="rotate(90)">
<text x="152.55" y="11.555" transform="scale(1, -1)"
	style="font-family:Times;font-weight:normal;font-style:normal;font-size:12px">Number of trials (1000000 total)</text>
</g>
<text x="24.055" y="-82.153" transform="scale(1, -1)"
	style="font-family:Times;font-weight:normal;font-style:normal;font-size:10px">25000.00</text>
<text x="19.055" y="-242.99" transform="scale(1, -1)"
	style="font-family:Times;font-weight:normal;font-style:normal;font-size:10px">125000.00</text>
<text x="19.055" y="-403.83" transform="scale(1, -1)"
	style="font-family:Times;font-weight:normal;font-style:normal;font-size:10px">225000.00</text>
<path d="M64.055,85.359L72.055,85.359" style="fill:none;stroke:#000000;stroke-width:0.5" />
<path d="M64.055,246.2L72.055,246.2" style="fill:none;stroke:#000000;stroke-width:0.5" />
<path d="M64.055,407.03L72.055,407.03" style="fill:none;stroke:#000000;stroke-width:0.5" />
<path d="M68.055,165.78L72.055,165.78" style="fill:none;stroke:#000000;stroke-width:0.5" />
<path d="M68.055,326.61L72.055,326.61" style="fill:none;stroke:#000000;stroke-width:0.5" />
<path d="M72.055,45.151L72.055,416.58" style="fill:none;stroke:#000000;stroke-width:0.5" />
<path d="M77.805,416.58L107.74,48.571L109.1,58.969L113.18,66.525L114.54,72.817L115.9,59.355L119.98,56.042L121.34,51.926L122.7,58.604L124.06,97.095L125.43,73.279L128.15,66.152L129.51,62.303L130.87,62.284L132.23,86.996L133.59,66.697L134.95,73.192L136.31,62.708L137.67,70.599L139.03,45.28L140.39,55.461L143.11,45.354L144.47,46.287L145.83,52.978L147.19,84.579L148.56,45.442L149.92,53.898L151.28,46.874L152.64,60.481L154,60.166L155.36,61.843L156.72,47.455L158.08,57.837L159.44,60.782L160.8,55.435L162.16,53.693L163.52,52.728L164.88,49.259L166.24,51.025L167.6,51.826L168.96,53.434L170.32,52.987L171.68,54.11L173.05,51.247L174.41,55.882L175.77,52.481L177.13,53.164L178.49,66.829L179.85,54.186L181.21,53.631L182.57,57.206L183.93,57.092L185.29,54.583L186.65,59.649L188.01,71.278L189.37,54.173L190.73,54.604L192.09,54.827L193.45,55.749L194.81,53.849L196.18,50.76L197.54,52.064L198.9,51.677L200.26,53.46L201.62,54.517L202.98,51.746L204.34,53.451L205.7,53.582L207.06,54.128L208.42,51.461L209.78,54.033L211.14,50.816L212.5,51.678L213.86,51.488L215.22,52.487L216.58,51.122L217.94,50.243L219.31,50.433L220.67,49.467L222.03,50.813L223.39,51.612L224.75,53.114L226.11,50.198L227.47,49.775L228.83,51.091L230.19,51.078L231.55,50.929L232.91,51.976L234.27,52.881L235.63,51.5L236.99,50.546L238.35,51.207L239.71,50.316L241.07,50.703L242.44,51.278L243.8,50.694L245.16,50.449L246.52,50.168L247.88,51.064L249.24,48.875L250.6,49.203L251.96,48.806L253.32,49.011L254.68,49.085L256.04,49.915L257.4,50.292L258.76,48.905L260.12,49.309L261.48,48.925L262.84,49.33L264.2,49.293L265.57,48.777L266.93,48.165L268.29,48.72L269.65,48.954L271.01,48.389L272.37,48.029L273.73,47.91L275.09,47.972L276.45,48.017L277.81,47.787L279.17,48.135L280.53,47.837L281.89,47.898L283.25,47.704L284.61,48.05L285.97,47.569L287.33,47.828L288.7,48.231L290.06,47.601L291.42,47.519L292.78,47.641L294.14,47.656L295.5,47.385L296.86,47.475L298.22,47.044L299.58,47.183L300.94,47.258L302.3,47.348L303.66,47.151L305.02,47.051L306.38,47.049L307.74,47.052L309.1,46.916L310.46,46.978L311.83,46.892L313.19,46.769L314.55,46.882L315.91,46.906L317.27,46.671L318.63,46.613L319.99,46.62L321.35,46.494L322.71,46.538L324.07,46.491L325.43,46.568L326.79,46.371L328.15,46.26L329.51,46.231L330.87,46.203L332.23,46.258L333.59,46.219L334.95,46.276L336.32,46.166L337.68,46.26L339.04,46.234L340.4,46.189L341.76,46.086L343.12,46.095L344.48,46.094L345.84,46.062L347.2,46.018L348.56,46.012L349.92,45.97L351.28,45.933L352.64,45.875L354,45.904L355.36,45.796L356.72,45.901L358.08,45.906L359.45,45.791L360.81,45.759L362.17,45.838L363.53,45.767L364.89,45.758L366.25,45.763L367.61,45.689L368.97,45.708L370.33,45.69L371.69,45.655L373.05,45.655L374.41,45.642L375.77,45.61L377.13,45.558L378.49,45.594L379.85,45.553L381.21,45.573L382.58,45.521L383.94,45.542L385.3,45.557L386.66,45.483L388.02,45.507L389.38,45.502L390.74,45.484L392.1,45.499L393.46,45.468L394.82,45.455L396.18,45.402L397.54,45.454L398.9,45.446L400.26,45.409L401.62,45.386L402.98,45.414L404.34,45.404L405.71,45.356L407.07,45.402L408.43,45.407L409.79,45.383L411.15,45.359L412.51,45.38L413.87,45.341L415.23,45.335L416.59,45.301L417.95,45.328L419.31,45.341L420.67,45.319L422.03,45.303L423.39,45.333L424.75,45.301L426.11,45.32L427.47,45.293L428.84,45.301L430.2,45.275L431.56,45.282L432.92,45.277L434.28,45.269L435.64,45.261L437,45.288L438.36,45.246L439.72,45.258L441.08,45.259L442.44,45.261L443.8,45.229L445.16,45.259L446.52,45.253L447.88,45.245L449.24,45.251L450.6,45.246L451.97,45.227L453.33,45.237L454.69,45.243L456.05,45.233L457.41,45.211L458.77,45.208L460.13,45.216L461.49,45.198L462.85,45.217L464.21,45.23L465.57,45.203L466.93,45.2L468.29,45.2L469.65,45.216L471.01,45.209L472.37,45.184L473.73,45.193L475.1,45.201L476.46,45.2L477.82,45.185L479.18,45.2L480.54,45.188L481.9,45.198L483.26,45.19L484.62,45.192L485.98,45.18L487.34,45.182L488.7,45.19L490.06,45.182L491.42,45.179L492.78,45.187L494.14,45.182L495.5,45.18L496.86,45.166L498.22,45.172L499.59,45.174L500.95,45.179L502.31,45.172L503.67,45.174L505.03,45.156L506.39,45.177L507.75,45.175L509.11,45.161L510.47,45.166L511.83,45.166L513.19,45.169L514.55,45.164L515.91,45.174L517.27,45.174L518.63,45.161L519.99,45.169L521.35,45.155L522.72,45.155L524.08,45.158L525.44,45.164L526.8,45.158L528.16,45.163L529.52,45.167L530.88,45.156L532.24,45.159L533.6,45.166L534.96,45.153L536.32,45.161L537.68,45.158L539.04,45.158L540.4,45.153L541.76,45.159L543.12,45.155L544.48,45.163L545.85,45.158L547.21,45.161L548.57,45.156L549.93,45.156L551.29,45.153L552.65,45.158L554.01,45.161L555.37,45.156L556.73,45.156L558.09,45.155L559.45,45.153L560.81,45.153L562.17,45.155L563.53,45.153L564.89,45.153L566.25,45.151L568.98,45.151L570.34,45.153L571.7,45.153L573.06,45.153L574.42,45.156L577.14,45.151L582.58,45.151L583.94,45.155L585.3,45.153L588.02,45.156L589.38,45.156L594.83,45.151L597.55,45.151L600.27,45.153L602.99,45.155L605.71,45.151L612.51,45.151L620.68,45.151L627.48,45.151L634.28,45.151L639.73,45.151L650.61,45.151L656.05,45.151L665.58,45.151L713.2,45.151L715.92,45.151L720,45.151" style="fill:none;stroke:#0000FF" />
</g>
</svg>
