<?xml version="1.0"?>
<!-- Generated by SVGo and Plotinum VG -->
<svg width="720pt" height="432pt" viewBox="0 0 720 432"
	xmlns="http://www.w3.org/2000/svg"
	xmlns:xlink="http://www.w3.org/1999/xlink">
<g transform="scale(1, -1) translate(0, -432)">
<path d="M0,0L720,0L720,432L0,432Z" style="fill:#FFFFFF" />
<text x="358.5" y="-420.45" transform="scale(1, -1)"
	style="font-family:Times;font-weight:normal;font-style:normal;font-size:12px"> </text>
<text x="376.81" y="-3.8613" transform="scale(1, -1)"
	style="font-family:Times;font-weight:normal;font-style:normal;font-size:12px">Costs</text>
<text x="51.555" y="-18.634" transform="scale(1, -1)"
	style="font-family:Times;font-weight:normal;font-style:normal;font-size:10px">0.00</text>
<text x="346.42" y="-18.634" transform="scale(1, -1)"
	style="font-family:Times;font-weight:normal;font-style:normal;font-size:10px">250.00</text>
<text x="646.28" y="-18.634" transform="scale(1, -1)"
	style="font-family:Times;font-weight:normal;font-style:normal;font-size:10px">500.00</text>
<path d="M60.305,28.263L60.305,36.263" style="fill:none;stroke:#000000;stroke-width:0.5" />
<path d="M360.17,28.263L360.17,36.263" style="fill:none;stroke:#000000;stroke-width:0.5" />
<path d="M660.03,28.263L660.03,36.263" style="fill:none;stroke:#000000;stroke-width:0.5" />
<path d="M120.28,32.263L120.28,36.263" style="fill:none;stroke:#000000;stroke-width:0.5" />
<path d="M180.25,32.263L180.25,36.263" style="fill:none;stroke:#000000;stroke-width:0.5" />
<path d="M240.22,32.263L240.22,36.263" style="fill:none;stroke:#000000;stroke-width:0.5" />
<path d="M300.19,32.263L300.19,36.263" style="fill:none;stroke:#000000;stroke-width:0.5" />
<path d="M420.14,32.263L420.14,36.263" style="fill:none;stroke:#000000;stroke-width:0.5" />
<path d="M480.11,32.263L480.11,36.263" style="fill:none;stroke:#000000;stroke-width:0.5" />
<path d="M540.08,32.263L540.08,36.263" style="fill:none;stroke:#000000;stroke-width:0.5" />
<path d="M600.06,32.263L600.06,36.263" style="fill:none;stroke:#000000;stroke-width:0.5" />
<path d="M720,32.263L720,36.263" style="fill:none;stroke:#000000;stroke-width:0.5" />
<path d="M60.305,36.263L720,36.263" style="fill:none;stroke:#000000;stroke-width:0.5" />
<g transform="rotate(90)">
<text x="152.55" y="11.555" transform="scale(1, -1)"
	style="font-family:Times;font-weight:normal;font-style:normal;font-size:12px">Number of trials (1000000 total)</text>
</g>
<text x="19.055" y="-81.687" transform="scale(1, -1)"
	style="font-family:Times;font-weight:normal;font-style:normal;font-size:10px">10000</text>
<text x="19.055" y="-240.67" transform="scale(1, -1)"
	style="font-family:Times;font-weight:normal;font-style:normal;font-size:10px">50000</text>
<text x="19.055" y="-399.65" transform="scale(1, -1)"
	style="font-family:Times;font-weight:normal;font-style:normal;font-size:10px">90000</text>
<path d="M46.555,84.892L54.555,84.892" style="fill:none;stroke:#000000;stroke-width:0.5" />
<path d="M46.555,243.87L54.555,243.87" style="fill:none;stroke:#000000;stroke-width:0.5" />
<path d="M46.555,402.85L54.555,402.85" style="fill:none;stroke:#000000;stroke-width:0.5" />
<path d="M50.555,124.64L54.555,124.64" style="fill:none;stroke:#000000;stroke-width:0.5" />
<path d="M50.555,164.38L54.555,164.38" style="fill:none;stroke:#000000;stroke-width:0.5" />
<path d="M50.555,204.13L54.555,204.13" style="fill:none;stroke:#000000;stroke-width:0.5" />
<path d="M50.555,283.62L54.555,283.62" style="fill:none;stroke:#000000;stroke-width:0.5" />
<path d="M50.555,323.36L54.555,323.36" style="fill:none;stroke:#000000;stroke-width:0.5" />
<path d="M50.555,363.11L54.555,363.11" style="fill:none;stroke:#000000;stroke-width:0.5" />
<path d="M54.555,45.151L54.555,416.58" style="fill:none;stroke:#000000;stroke-width:0.5" />
<path d="M60.305,416.58L86.692,56.618L87.892,48.51L91.49,52.154L92.69,52.023L93.889,60.052L95.089,67.341L96.288,52.77L97.488,97.42L98.687,74.598L99.886,75.918L101.09,86.899L102.29,76.093L103.48,57.075L104.68,63.963L105.88,52.496L107.08,58.812L108.28,81.005L109.48,105.59L110.68,74.944L111.88,83.259L113.08,93.954L114.28,57.182L115.48,63.347L117.88,45.406L119.08,76.613L120.28,83.553L121.48,53.446L122.68,45.632L123.88,91.283L125.07,88.398L126.27,47.218L127.47,66.339L128.67,72.556L129.87,55.314L131.07,61.208L132.27,66.796L133.47,80.135L134.67,79.654L135.87,74.304L137.07,54.841L138.27,57.063L139.47,57.52L140.67,64.05L141.87,57.357L143.07,58.851L144.27,58.12L145.47,72.866L146.66,66.471L147.86,71.602L149.06,72.138L150.26,71.153L151.46,66.192L152.66,83.791L153.86,64.877L155.06,61.86L156.26,62.874L157.46,74.968L158.66,66.832L159.86,68.605L161.06,73.382L162.26,75.059L163.46,66.308L164.66,71.236L165.86,68.808L167.06,66.49L168.25,71.109L169.45,68.49L170.65,67.313L171.85,71.844L173.05,76.141L174.25,71.598L175.45,68.442L176.65,70.298L177.85,67.321L179.05,65.791L180.25,66.542L181.45,62.977L182.65,69.34L183.85,73.374L185.05,70.493L186.25,66.212L187.45,68.243L188.65,68.088L189.84,63.665L191.04,62.599L192.24,65.974L193.44,66.991L194.64,66.793L195.84,64.853L197.04,66.769L198.24,67.615L199.44,67.003L200.64,67.413L201.84,66.117L203.04,64.018L204.24,64.805L205.44,65.843L206.64,63.291L207.84,64.769L209.04,64.702L210.24,64.404L211.43,63.605L212.63,64.777L213.83,63.184L215.03,61.848L216.23,63.68L217.43,64.134L218.63,62.027L219.83,62.945L221.03,65.151L222.23,63.243L223.43,63.013L224.63,63.017L225.83,63.669L227.03,62.595L228.23,61.928L229.43,61.355L230.63,60.974L231.83,61.832L233.02,62.075L234.22,60.986L235.42,61.284L236.62,61.618L237.82,62.21L239.02,60.25L240.22,60.223L241.42,60.382L242.62,60.334L243.82,59.956L245.02,59.595L246.22,59.619L247.42,59.885L248.62,59.225L249.82,59.165L251.02,59.126L252.22,59.102L253.42,58.573L254.61,58.076L255.81,57.957L257.01,58.001L258.21,58.061L259.41,58.033L260.61,57.623L261.81,57.544L263.01,57.115L264.21,56.693L265.41,57.154L266.61,56.391L267.81,56.165L269.01,56.677L270.21,56.2L271.41,56.026L272.61,56.034L273.81,55.406L275.01,55.35L276.2,55.421L277.4,54.881L278.6,54.718L279.8,54.817L281,54.829L282.2,54.038L283.4,54.313L284.6,54.4L285.8,54.448L287,53.784L288.2,53.494L289.4,53.585L290.6,53.867L291.8,53.534L293,53.581L294.2,52.81L295.4,52.592L296.6,52.806L297.79,52.751L298.99,52.492L300.19,52.29L301.39,52.357L302.59,52.242L303.79,51.868L304.99,51.848L306.19,52.007L307.39,51.809L308.59,51.519L309.79,51.602L310.99,51.519L312.19,51.554L313.39,51.391L314.59,51.097L315.79,50.994L316.99,50.823L318.19,50.843L319.39,50.688L320.58,50.596L321.78,50.569L322.98,50.469L324.18,50.334L325.38,50.426L326.58,50.072L327.78,49.837L328.98,49.893L330.18,49.889L331.38,49.639L332.58,49.619L333.78,49.484L334.98,49.555L336.18,49.174L337.38,49.086L338.58,49.134L339.78,49.09L340.98,48.86L342.17,48.911L343.37,48.935L344.57,48.903L345.77,48.915L346.97,48.657L348.17,48.41L349.37,48.685L350.57,48.387L351.77,48.267L352.97,48.192L354.17,48.037L355.37,48.045L356.57,48.176L357.77,47.898L358.97,47.941L360.17,47.914L361.37,47.691L362.57,47.56L363.76,47.612L364.96,47.536L366.16,47.711L367.36,47.504L368.56,47.401L369.76,47.651L370.96,47.461L372.16,47.286L373.36,47.282L374.56,47.131L375.76,47.111L376.96,47.075L378.16,47.107L379.36,47.091L380.56,47.067L381.76,46.98L382.96,46.984L384.16,46.884L385.35,46.964L386.55,46.837L387.75,46.757L388.95,46.602L390.15,46.745L391.35,46.817L392.55,46.622L393.75,46.658L394.95,46.574L396.15,46.63L397.35,46.503L398.55,46.519L399.75,46.34L400.95,46.248L402.15,46.344L403.35,46.296L404.55,46.232L405.75,46.244L406.94,46.169L408.14,46.145L409.34,46.157L410.54,46.05L411.74,46.161L412.94,46.292L414.14,46.03L415.34,46.022L416.54,46.105L417.74,46.05L418.94,46.018L420.14,45.99L421.34,45.994L422.54,45.91L423.74,45.775L424.94,45.835L426.14,45.831L427.34,45.855L428.53,45.863L429.73,45.755L430.93,45.755L432.13,45.803L433.33,45.831L434.53,45.728L435.73,45.724L436.93,45.712L438.13,45.636L439.33,45.72L440.53,45.569L441.73,45.696L442.93,45.612L444.13,45.569L445.33,45.573L446.53,45.668L447.73,45.648L448.93,45.577L450.12,45.573L451.32,45.497L452.52,45.438L453.72,45.541L454.92,45.469L456.12,45.442L457.32,45.529L458.52,45.493L459.72,45.481L460.92,45.422L462.12,45.473L463.32,45.418L464.52,45.445L465.72,45.386L466.92,45.382L468.12,45.354L469.32,45.406L470.52,45.386L471.71,45.366L472.91,45.457L474.11,45.362L475.31,45.338L476.51,45.294L477.71,45.302L478.91,45.358L480.11,45.394L481.31,45.306L482.51,45.302L483.71,45.334L484.91,45.334L486.11,45.302L487.31,45.29L488.51,45.35L489.71,45.275L490.91,45.334L492.11,45.302L493.3,45.287L494.5,45.239L495.7,45.338L496.9,45.31L498.1,45.259L499.3,45.275L500.5,45.287L501.7,45.267L502.9,45.239L504.1,45.235L505.3,45.251L506.5,45.243L507.7,45.223L508.9,45.215L510.1,45.243L511.3,45.279L512.5,45.235L513.7,45.267L514.89,45.211L516.09,45.231L517.29,45.219L518.49,45.223L519.69,45.219L520.89,45.223L522.09,45.223L523.29,45.183L524.49,45.223L525.69,45.207L526.89,45.191L528.09,45.203L529.29,45.223L530.49,45.239L531.69,45.187L532.89,45.211L534.09,45.199L535.29,45.179L536.48,45.191L537.68,45.171L538.88,45.183L540.08,45.175L541.28,45.179L542.48,45.183L543.68,45.203L544.88,45.187L546.08,45.175L547.28,45.175L548.48,45.191L549.68,45.163L550.88,45.171L552.08,45.195L553.28,45.167L554.48,45.163L555.68,45.175L556.88,45.175L558.07,45.179L559.27,45.163L560.47,45.171L561.67,45.175L562.87,45.167L564.07,45.183L565.27,45.171L566.47,45.159L567.67,45.163L568.87,45.163L570.07,45.163L571.27,45.171L572.47,45.167L573.67,45.167L574.87,45.159L576.07,45.151L577.27,45.183L578.47,45.151L580.86,45.155L582.06,45.155L583.26,45.159L584.46,45.163L585.66,45.151L586.86,45.155L588.06,45.171L589.26,45.159L590.46,45.155L591.66,45.151L592.86,45.171L594.06,45.151L595.26,45.155L596.46,45.155L598.86,45.151L600.06,45.155L601.25,45.155L603.65,45.155L606.05,45.167L607.25,45.151L608.45,45.151L609.65,45.151L612.05,45.151L613.25,45.151L615.65,45.151L619.25,45.151L620.45,45.151L630.04,45.151L633.64,45.151L634.84,45.151L637.24,45.151L640.84,45.151L643.24,45.151L646.83,45.151L648.03,45.151L650.43,45.151L651.63,45.151L654.03,45.151L656.43,45.159L660.03,45.151L662.43,45.151L663.63,45.151L666.02,45.151L668.42,45.151L679.22,45.151L685.22,45.151L691.21,45.151L696.01,45.151L709.2,45.151L720,45.151" style="fill:none;stroke:#0000FF" />
</g>
</svg>
