<?xml version="1.0"?>
<!-- Generated by SVGo and Plotinum VG -->
<svg width="720pt" height="432pt" viewBox="0 0 720 432"
	xmlns="http://www.w3.org/2000/svg"
	xmlns:xlink="http://www.w3.org/1999/xlink">
<g transform="scale(1, -1) translate(0, -432)">
<path d="M0,0L720,0L720,432L0,432Z" style="fill:#FFFFFF" />
<text x="358.5" y="-420.45" transform="scale(1, -1)"
	style="font-family:Times;font-weight:normal;font-style:normal;font-size:12px"> </text>
<text x="385.56" y="-3.8613" transform="scale(1, -1)"
	style="font-family:Times;font-weight:normal;font-style:normal;font-size:12px">Costs</text>
<text x="69.055" y="-18.634" transform="scale(1, -1)"
	style="font-family:Times;font-weight:normal;font-style:normal;font-size:10px">0.00</text>
<text x="364.15" y="-18.634" transform="scale(1, -1)"
	style="font-family:Times;font-weight:normal;font-style:normal;font-size:10px">250.00</text>
<text x="664.24" y="-18.634" transform="scale(1, -1)"
	style="font-family:Times;font-weight:normal;font-style:normal;font-size:10px">500.00</text>
<path d="M77.805,28.263L77.805,36.263" style="fill:none;stroke:#000000;stroke-width:0.5" />
<path d="M377.9,28.263L377.9,36.263" style="fill:none;stroke:#000000;stroke-width:0.5" />
<path d="M677.99,28.263L677.99,36.263" style="fill:none;stroke:#000000;stroke-width:0.5" />
<path d="M137.82,32.263L137.82,36.263" style="fill:none;stroke:#000000;stroke-width:0.5" />
<path d="M197.84,32.263L197.84,36.263" style="fill:none;stroke:#000000;stroke-width:0.5" />
<path d="M257.86,32.263L257.86,36.263" style="fill:none;stroke:#000000;stroke-width:0.5" />
<path d="M317.88,32.263L317.88,36.263" style="fill:none;stroke:#000000;stroke-width:0.5" />
<path d="M437.91,32.263L437.91,36.263" style="fill:none;stroke:#000000;stroke-width:0.5" />
<path d="M497.93,32.263L497.93,36.263" style="fill:none;stroke:#000000;stroke-width:0.5" />
<path d="M557.95,32.263L557.95,36.263" style="fill:none;stroke:#000000;stroke-width:0.5" />
<path d="M617.97,32.263L617.97,36.263" style="fill:none;stroke:#000000;stroke-width:0.5" />
<path d="M77.805,36.263L720,36.263" style="fill:none;stroke:#000000;stroke-width:0.5" />
<g transform="rotate(90)">
<text x="152.55" y="11.555" transform="scale(1, -1)"
	style="font-family:Times;font-weight:normal;font-style:normal;font-size:12px">Number of trials (1000000 total)</text>
</g>
<text x="24.055" y="-89.612" transform="scale(1, -1)"
	style="font-family:Times;font-weight:normal;font-style:normal;font-size:10px">25000.00</text>
<text x="19.055" y="-232.61" transform="scale(1, -1)"
	style="font-family:Times;font-weight:normal;font-style:normal;font-size:10px">100000.00</text>
<text x="19.055" y="-375.62" transform="scale(1, -1)"
	style="font-family:Times;font-weight:normal;font-style:normal;font-size:10px">175000.00</text>
<path d="M64.055,92.817L72.055,92.817" style="fill:none;stroke:#000000;stroke-width:0.5" />
<path d="M64.055,235.82L72.055,235.82" style="fill:none;stroke:#000000;stroke-width:0.5" />
<path d="M64.055,378.82L72.055,378.82" style="fill:none;stroke:#000000;stroke-width:0.5" />
<path d="M68.055,164.32L72.055,164.32" style="fill:none;stroke:#000000;stroke-width:0.5" />
<path d="M68.055,307.32L72.055,307.32" style="fill:none;stroke:#000000;stroke-width:0.5" />
<path d="M72.055,45.151L72.055,416.58" style="fill:none;stroke:#000000;stroke-width:0.5" />
<path d="M77.805,416.58L109.01,59.688L110.21,55.415L111.41,48.519L112.62,51.958L115.02,55.524L116.22,70.526L117.42,48.69L118.62,76.702L119.82,103.81L121.02,48.509L122.22,48.62L123.42,58.988L124.62,73.058L125.82,66.201L127.02,52.101L129.42,51.827L130.62,89.41L131.82,48.343L133.02,67.353L135.42,48.721L136.62,48.759L139.02,48.622L140.22,45.256L141.42,154.79L142.62,52.433L143.82,45.523L145.03,82.94L146.23,55.924L147.43,57.259L148.63,71.689L149.83,84.168L151.03,59.236L152.23,61.349L153.43,57.404L154.63,46.919L155.83,47.714L157.03,50.629L158.23,61.557L159.43,47.333L160.63,51.823L161.83,51.613L163.03,50.16L164.23,50.32L165.43,55.606L166.63,55.364L167.83,51.581L169.03,50.216L170.23,52.096L171.43,53.27L172.63,58.739L173.83,59.198L175.03,51.024L176.23,51.59L177.43,51.741L178.64,53.754L179.84,57.774L181.04,51.27L182.24,59.028L183.44,69.628L184.64,51.644L185.84,54.04L187.04,59.595L188.24,60.798L189.44,58.508L190.64,58.603L191.84,57.392L193.04,54.725L194.24,65.557L195.44,53.878L196.64,58.836L197.84,55.131L199.04,52.965L200.24,54.652L201.44,51.055L202.64,53.402L203.84,50.921L205.04,61.953L206.24,52.317L207.44,49.316L208.64,59.753L209.84,51.104L211.05,52.441L212.25,56.123L213.45,61.427L214.65,53.806L215.85,55.772L217.05,55.11L218.25,51.165L219.45,51.781L220.65,53.716L221.85,53.84L223.05,51.104L224.25,51.403L225.45,52.282L226.65,50.139L227.85,49.846L229.05,52.17L230.25,51.949L231.45,50.181L232.65,50.46L233.85,50.841L235.05,50.637L236.25,51.512L237.45,52.492L238.65,50.515L239.85,50.031L241.05,50.969L242.25,50.521L243.46,50.618L244.66,50.376L245.86,50.892L247.06,51.632L248.26,49.377L249.46,50.237L250.66,50.717L251.86,50.166L253.06,50.181L254.26,51.039L255.46,50.934L256.66,49.849L257.86,51.293L259.06,50.033L260.26,50.319L261.46,50.702L262.66,49.848L263.86,49.93L265.06,49.201L266.26,49.897L267.46,49.152L268.66,49.472L269.86,49.022L271.06,48.547L272.26,49.237L273.46,48.225L274.66,48.414L275.86,48.591L277.07,48.99L278.27,48.601L279.47,48.856L280.67,48.837L281.87,48.292L283.07,48.425L284.27,48.637L285.47,48.263L286.67,48.063L287.87,48.059L289.07,48.09L290.27,47.819L291.47,47.636L292.67,47.739L293.87,47.853L295.07,47.361L296.27,47.622L297.47,47.436L298.67,47.314L299.87,47.455L301.07,47.714L302.27,47.35L303.47,47.127L304.67,47.291L305.87,47.272L307.07,47.142L308.27,47.245L309.48,47.073L310.68,47.102L311.88,46.89L313.08,46.978L314.28,46.913L315.48,46.818L316.68,46.837L317.88,46.791L319.08,46.784L320.28,46.795L321.48,46.787L322.68,46.688L323.88,46.663L325.08,46.757L326.28,46.572L327.48,46.589L328.68,46.499L329.88,46.604L331.08,46.591L332.28,46.377L333.48,46.427L334.68,46.324L335.88,46.379L337.08,46.248L338.28,46.204L339.48,46.181L340.68,46.198L341.89,46.211L343.09,46.16L344.29,46.271L345.49,46.023L346.69,46.122L347.89,46.097L349.09,46.044L350.29,45.983L351.49,46.088L352.69,46.019L353.89,45.985L355.09,45.887L356.29,45.939L357.49,45.815L358.69,45.777L359.89,45.851L361.09,45.782L362.29,45.777L363.49,45.735L364.69,45.794L365.89,45.662L367.09,45.7L368.29,45.706L369.49,45.67L370.69,45.702L371.89,45.685L373.09,45.683L374.29,45.683L375.5,45.632L376.7,45.563L377.9,45.628L379.1,45.619L380.3,45.59L381.5,45.563L382.7,45.519L383.9,45.512L385.1,45.563L386.3,45.504L387.5,45.516L388.7,45.498L389.9,45.498L391.1,45.483L392.3,45.489L393.5,45.422L394.7,45.449L395.9,45.411L397.1,45.464L398.3,45.428L399.5,45.447L400.7,45.424L401.9,45.386L403.1,45.416L404.3,45.39L405.5,45.365L406.7,45.39L407.91,45.344L409.11,45.334L410.31,45.325L411.51,45.325L412.71,45.331L413.91,45.321L415.11,45.352L416.31,45.348L417.51,45.34L418.71,45.329L419.91,45.327L421.11,45.331L422.31,45.294L423.51,45.279L424.71,45.283L425.91,45.268L427.11,45.296L428.31,45.271L429.51,45.271L430.71,45.281L431.91,45.241L433.11,45.249L434.31,45.275L435.51,45.245L436.71,45.27L437.91,45.268L439.11,45.26L440.31,45.216L441.52,45.245L442.72,45.241L443.92,45.231L445.12,45.207L446.32,45.228L447.52,45.254L448.72,45.233L449.92,45.218L451.12,45.212L452.32,45.216L453.52,45.209L454.72,45.214L455.92,45.212L457.12,45.205L458.32,45.22L459.52,45.207L460.72,45.203L461.92,45.203L463.12,45.186L464.32,45.19L465.52,45.191L466.72,45.184L467.92,45.191L469.12,45.191L470.32,45.193L471.52,45.186L472.72,45.197L473.93,45.184L475.13,45.19L476.33,45.193L477.53,45.186L478.73,45.18L479.93,45.17L481.13,45.172L482.33,45.174L483.53,45.18L484.73,45.184L485.93,45.18L487.13,45.178L488.33,45.169L489.53,45.163L490.73,45.17L491.93,45.17L493.13,45.174L494.33,45.169L495.53,45.17L496.73,45.165L497.93,45.167L499.13,45.163L500.33,45.163L501.53,45.159L502.73,45.159L503.93,45.165L505.13,45.165L506.34,45.161L507.54,45.165L508.74,45.172L509.94,45.172L511.14,45.153L512.34,45.167L513.54,45.172L514.74,45.159L515.94,45.169L517.14,45.163L518.34,45.163L519.54,45.159L520.74,45.161L521.94,45.157L523.14,45.155L524.34,45.17L525.54,45.155L526.74,45.159L527.94,45.153L529.14,45.157L530.34,45.161L531.54,45.155L532.74,45.155L533.94,45.155L535.14,45.155L536.34,45.153L537.54,45.153L538.74,45.151L539.95,45.151L541.15,45.161L542.35,45.157L543.55,45.153L544.75,45.151L545.95,45.155L547.15,45.157L548.35,45.153L549.55,45.151L550.75,45.151L551.95,45.153L553.15,45.153L554.35,45.153L556.75,45.151L557.95,45.153L559.15,45.153L561.55,45.155L562.75,45.151L566.35,45.151L567.55,45.151L568.75,45.151L571.15,45.153L572.36,45.155L574.76,45.151L577.16,45.151L578.36,45.151L583.16,45.153L585.56,45.151L587.96,45.151L589.16,45.151L592.76,45.151L593.96,45.151L595.16,45.151L602.36,45.151L604.76,45.151L607.17,45.153L614.37,45.151L617.97,45.151L619.17,45.151L637.17,45.151L720,45.151" style="fill:none;stroke:#0000FF" />
</g>
</svg>
