<?xml version="1.0"?>
<!-- Generated by SVGo and Plotinum VG -->
<svg width="720pt" height="432pt" viewBox="0 0 720 432"
	xmlns="http://www.w3.org/2000/svg"
	xmlns:xlink="http://www.w3.org/1999/xlink">
<g transform="scale(1, -1) translate(0, -432)">
<path d="M0,0L720,0L720,432L0,432Z" style="fill:#FFFFFF" />
<text x="358.5" y="-420.45" transform="scale(1, -1)"
	style="font-family:Times;font-weight:normal;font-style:normal;font-size:12px"> </text>
<text x="379.31" y="-3.8613" transform="scale(1, -1)"
	style="font-family:Times;font-weight:normal;font-style:normal;font-size:12px">Costs</text>
<text x="56.555" y="-18.634" transform="scale(1, -1)"
	style="font-family:Times;font-weight:normal;font-style:normal;font-size:10px">0.00</text>
<text x="357.49" y="-18.634" transform="scale(1, -1)"
	style="font-family:Times;font-weight:normal;font-style:normal;font-size:10px">250.00</text>
<text x="663.42" y="-18.634" transform="scale(1, -1)"
	style="font-family:Times;font-weight:normal;font-style:normal;font-size:10px">500.00</text>
<path d="M65.305,28.263L65.305,36.263" style="fill:none;stroke:#000000;stroke-width:0.5" />
<path d="M371.24,28.263L371.24,36.263" style="fill:none;stroke:#000000;stroke-width:0.5" />
<path d="M677.17,28.263L677.17,36.263" style="fill:none;stroke:#000000;stroke-width:0.5" />
<path d="M126.49,32.263L126.49,36.263" style="fill:none;stroke:#000000;stroke-width:0.5" />
<path d="M187.68,32.263L187.68,36.263" style="fill:none;stroke:#000000;stroke-width:0.5" />
<path d="M248.86,32.263L248.86,36.263" style="fill:none;stroke:#000000;stroke-width:0.5" />
<path d="M310.05,32.263L310.05,36.263" style="fill:none;stroke:#000000;stroke-width:0.5" />
<path d="M432.42,32.263L432.42,36.263" style="fill:none;stroke:#000000;stroke-width:0.5" />
<path d="M493.61,32.263L493.61,36.263" style="fill:none;stroke:#000000;stroke-width:0.5" />
<path d="M554.8,32.263L554.8,36.263" style="fill:none;stroke:#000000;stroke-width:0.5" />
<path d="M615.98,32.263L615.98,36.263" style="fill:none;stroke:#000000;stroke-width:0.5" />
<path d="M65.305,36.263L720,36.263" style="fill:none;stroke:#000000;stroke-width:0.5" />
<g transform="rotate(90)">
<text x="152.55" y="11.555" transform="scale(1, -1)"
	style="font-family:Times;font-weight:normal;font-style:normal;font-size:12px">Number of trials (1000000 total)</text>
</g>
<text x="24.055" y="-109.42" transform="scale(1, -1)"
	style="font-family:Times;font-weight:normal;font-style:normal;font-size:10px">30000</text>
<text x="24.055" y="-244.38" transform="scale(1, -1)"
	style="font-family:Times;font-weight:normal;font-style:normal;font-size:10px">90000</text>
<text x="19.055" y="-379.34" transform="scale(1, -1)"
	style="font-family:Times;font-weight:normal;font-style:normal;font-size:10px">150000</text>
<path d="M51.555,112.63L59.555,112.63" style="fill:none;stroke:#000000;stroke-width:0.5" />
<path d="M51.555,247.59L59.555,247.59" style="fill:none;stroke:#000000;stroke-width:0.5" />
<path d="M51.555,382.55L59.555,382.55" style="fill:none;stroke:#000000;stroke-width:0.5" />
<path d="M55.555,180.11L59.555,180.11" style="fill:none;stroke:#000000;stroke-width:0.5" />
<path d="M55.555,315.07L59.555,315.07" style="fill:none;stroke:#000000;stroke-width:0.5" />
<path d="M59.555,45.151L59.555,416.58" style="fill:none;stroke:#000000;stroke-width:0.5" />
<path d="M65.305,416.58L92.227,48.647L93.45,48.566L97.122,66.356L98.345,55.606L99.569,51.956L100.79,48.642L104.46,55.635L105.69,48.759L106.91,74.415L109.36,52.167L110.58,48.683L111.81,55.606L113.03,120.2L114.25,62.804L115.48,52.246L116.7,168.38L117.93,55.615L119.15,77.98L120.37,48.611L121.6,55.746L124.04,45.41L125.27,55.698L126.49,52.194L127.71,48.636L128.94,45.374L130.16,119.4L131.39,91.098L132.61,45.678L133.83,59.918L135.06,49.16L136.28,49.207L137.5,52.966L138.73,53.883L139.95,64.765L141.18,84.964L142.4,56.614L143.62,47.299L144.85,51.112L146.07,49.499L147.29,48.186L148.52,54.083L149.74,49.594L150.97,50.183L152.19,49.951L153.41,48.899L154.64,69.903L155.86,68.252L157.08,50.163L158.31,58.485L159.53,53.472L160.76,55.797L161.98,54.976L163.2,79.049L164.43,76.732L165.65,56.771L166.87,56.846L168.1,62.053L169.32,55.246L170.55,59.511L171.77,55.494L172.99,58.686L174.22,51.616L175.44,51.317L176.66,52.795L177.89,64.702L179.11,61.423L180.34,52.154L181.56,75.749L182.78,67.651L184.01,56.184L185.23,57.689L186.45,53.892L187.68,56.366L188.9,58.132L190.13,56.373L191.35,57.554L192.57,61.934L193.8,54.068L195.02,54.47L196.24,60.807L197.47,51.333L198.69,51.371L199.91,51.326L201.14,50.617L202.36,55.237L203.59,55.264L204.81,55.075L206.03,65.407L207.26,61.74L208.48,52.435L209.7,53.4L210.93,56.029L212.15,52.99L213.38,51.749L214.6,59.063L215.82,55.539L217.05,52.788L218.27,51.861L219.49,54.374L220.72,56.279L221.94,52.007L223.17,51.958L224.39,52.9L225.61,51.393L226.84,50.961L228.06,55.141L229.28,58.074L230.51,55.818L231.73,54.18L232.96,53.69L234.18,52.518L235.4,52.835L236.63,51.812L237.85,52.876L239.07,54.122L240.3,52.705L241.52,50.941L242.75,50.716L243.97,51.967L245.19,51.069L246.42,50.955L247.64,52.9L248.86,49.954L250.09,50.876L251.31,50.017L252.54,51.706L253.76,53.474L254.98,51.827L256.21,51.301L257.43,52.873L258.65,51.872L259.88,50.709L261.1,50.473L262.33,51.108L263.55,49.911L264.77,49.36L266,49.589L267.22,50.091L268.44,50.131L269.67,49.243L270.89,50.307L272.11,51.38L273.34,49.387L274.56,49.166L275.79,49.702L277.01,49.49L278.23,49.115L279.46,50.523L280.68,50.545L281.9,49.787L283.13,49.589L284.35,48.858L285.58,49.108L286.8,49.153L288.02,48.451L289.25,48.728L290.47,48.669L291.69,48.316L292.92,48.195L294.14,48.48L295.37,48.683L296.59,48.793L297.81,48.071L299.04,48.051L300.26,48.1L301.48,48.305L302.71,47.839L303.93,48.822L305.16,48.759L306.38,48.075L307.6,47.826L308.83,47.767L310.05,47.662L311.27,47.673L312.5,47.484L313.72,47.601L314.95,47.317L316.17,47.171L317.39,47.115L318.62,47.63L319.84,47.536L321.06,47.268L322.29,47.342L323.51,47.367L324.74,47.086L325.96,47.036L327.18,47.187L328.41,47.394L329.63,47.218L330.85,47.009L332.08,47.003L333.3,46.996L334.53,46.863L335.75,46.721L336.97,46.859L338.2,46.793L339.42,46.49L340.64,46.505L341.87,46.584L343.09,46.474L344.32,46.501L345.54,46.665L346.76,46.62L347.99,46.523L349.21,46.474L350.43,46.429L351.66,46.476L352.88,46.418L354.1,46.332L355.33,46.404L356.55,46.393L357.78,46.256L359,46.116L360.22,46.056L361.45,46.26L362.67,46.089L363.89,46.053L365.12,46.125L366.34,46.062L367.57,45.957L368.79,46.076L370.01,46.164L371.24,46.017L372.46,46.047L373.68,45.995L374.91,45.903L376.13,45.772L377.36,45.909L378.58,45.819L379.8,45.941L381.03,45.869L382.25,45.824L383.47,45.831L384.7,45.765L385.92,45.727L387.15,45.671L388.37,45.678L389.59,45.68L390.82,45.684L392.04,45.682L393.26,45.687L394.49,45.718L395.71,45.648L396.94,45.637L398.16,45.59L399.38,45.594L400.61,45.621L401.83,45.505L403.05,45.594L404.28,45.536L405.5,45.561L406.73,45.536L407.95,45.514L409.17,45.498L410.4,45.487L411.62,45.536L412.84,45.509L414.07,45.412L415.29,45.444L416.52,45.43L417.74,45.446L418.96,45.489L420.19,45.428L421.41,45.471L422.63,45.419L423.86,45.412L425.08,45.401L426.3,45.349L427.53,45.412L428.75,45.367L429.98,45.367L431.2,45.365L432.42,45.39L433.65,45.367L434.87,45.39L436.09,45.331L437.32,45.322L438.54,45.379L439.77,45.318L440.99,45.322L442.21,45.37L443.44,45.295L444.66,45.32L445.88,45.325L447.11,45.286L448.33,45.298L449.56,45.282L450.78,45.298L452,45.246L453.23,45.273L454.45,45.295L455.67,45.298L456.9,45.237L458.12,45.291L459.35,45.259L460.57,45.275L461.79,45.268L463.02,45.271L464.24,45.232L465.46,45.241L466.69,45.248L467.91,45.259L469.14,45.244L470.36,45.221L471.58,45.246L472.81,45.223L474.03,45.219L475.25,45.208L476.48,45.192L477.7,45.221L478.93,45.187L480.15,45.217L481.37,45.194L482.6,45.214L483.82,45.219L485.04,45.203L486.27,45.212L487.49,45.194L488.72,45.203L489.94,45.19L491.16,45.214L492.39,45.194L493.61,45.21L494.83,45.203L496.06,45.201L497.28,45.187L498.5,45.212L499.73,45.192L500.95,45.192L502.18,45.196L503.4,45.196L504.62,45.183L505.85,45.185L507.07,45.187L508.29,45.176L509.52,45.172L510.74,45.187L511.97,45.19L513.19,45.167L514.41,45.165L515.64,45.185L516.86,45.169L518.08,45.178L519.31,45.16L520.53,45.172L521.76,45.167L522.98,45.16L524.2,45.178L525.43,45.169L526.65,45.174L527.87,45.16L529.1,45.158L530.32,45.167L531.55,45.172L532.77,45.167L533.99,45.158L535.22,45.163L536.44,45.163L537.66,45.151L538.89,45.158L540.11,45.158L541.34,45.167L542.56,45.156L543.78,45.165L545.01,45.165L546.23,45.151L547.45,45.156L548.68,45.167L549.9,45.16L551.13,45.154L552.35,45.156L553.57,45.151L554.8,45.158L556.02,45.154L557.24,45.151L558.47,45.158L559.69,45.156L560.92,45.158L562.14,45.154L563.36,45.156L564.59,45.156L565.81,45.156L568.26,45.151L569.48,45.154L570.7,45.156L571.93,45.151L573.15,45.151L574.38,45.156L575.6,45.154L576.82,45.154L578.05,45.151L580.49,45.156L581.72,45.154L585.39,45.154L586.61,45.154L587.84,45.154L589.06,45.154L590.28,45.151L593.96,45.151L595.18,45.154L596.4,45.151L597.63,45.154L598.85,45.154L602.52,45.151L603.75,45.151L606.19,45.154L608.64,45.151L613.54,45.154L617.21,45.151L619.65,45.151L622.1,45.151L623.33,45.151L627,45.151L629.44,45.154L636.79,45.154L639.23,45.151L644.13,45.151L649.02,45.151L651.47,45.151L652.69,45.151L662.48,45.151L664.93,45.151L720,45.151" style="fill:none;stroke:#0000FF" />
</g>
</svg>
