<?xml version="1.0"?>
<!-- Generated by SVGo and Plotinum VG -->
<svg width="720pt" height="432pt" viewBox="0 0 720 432"
	xmlns="http://www.w3.org/2000/svg"
	xmlns:xlink="http://www.w3.org/1999/xlink">
<g transform="scale(1, -1) translate(0, -432)">
<path d="M0,0L720,0L720,432L0,432Z" style="fill:#FFFFFF" />
<text x="358.5" y="-420.45" transform="scale(1, -1)"
	style="font-family:Times;font-weight:normal;font-style:normal;font-size:12px"> </text>
<text x="376.81" y="-3.8613" transform="scale(1, -1)"
	style="font-family:Times;font-weight:normal;font-style:normal;font-size:12px">Costs</text>
<text x="51.555" y="-18.634" transform="scale(1, -1)"
	style="font-family:Times;font-weight:normal;font-style:normal;font-size:10px">0.00</text>
<text x="348.06" y="-18.634" transform="scale(1, -1)"
	style="font-family:Times;font-weight:normal;font-style:normal;font-size:10px">250.00</text>
<text x="649.57" y="-18.634" transform="scale(1, -1)"
	style="font-family:Times;font-weight:normal;font-style:normal;font-size:10px">500.00</text>
<path d="M60.305,28.263L60.305,36.263" style="fill:none;stroke:#000000;stroke-width:0.5" />
<path d="M361.81,28.263L361.81,36.263" style="fill:none;stroke:#000000;stroke-width:0.5" />
<path d="M663.32,28.263L663.32,36.263" style="fill:none;stroke:#000000;stroke-width:0.5" />
<path d="M120.61,32.263L120.61,36.263" style="fill:none;stroke:#000000;stroke-width:0.5" />
<path d="M180.91,32.263L180.91,36.263" style="fill:none;stroke:#000000;stroke-width:0.5" />
<path d="M241.21,32.263L241.21,36.263" style="fill:none;stroke:#000000;stroke-width:0.5" />
<path d="M301.51,32.263L301.51,36.263" style="fill:none;stroke:#000000;stroke-width:0.5" />
<path d="M422.11,32.263L422.11,36.263" style="fill:none;stroke:#000000;stroke-width:0.5" />
<path d="M482.41,32.263L482.41,36.263" style="fill:none;stroke:#000000;stroke-width:0.5" />
<path d="M542.71,32.263L542.71,36.263" style="fill:none;stroke:#000000;stroke-width:0.5" />
<path d="M603.02,32.263L603.02,36.263" style="fill:none;stroke:#000000;stroke-width:0.5" />
<path d="M60.305,36.263L720,36.263" style="fill:none;stroke:#000000;stroke-width:0.5" />
<g transform="rotate(90)">
<text x="152.55" y="11.555" transform="scale(1, -1)"
	style="font-family:Times;font-weight:normal;font-style:normal;font-size:12px">Number of trials (1000000 total)</text>
</g>
<text x="19.055" y="-80.698" transform="scale(1, -1)"
	style="font-family:Times;font-weight:normal;font-style:normal;font-size:10px">10000</text>
<text x="19.055" y="-235.72" transform="scale(1, -1)"
	style="font-family:Times;font-weight:normal;font-style:normal;font-size:10px">50000</text>
<text x="19.055" y="-390.75" transform="scale(1, -1)"
	style="font-family:Times;font-weight:normal;font-style:normal;font-size:10px">90000</text>
<path d="M46.555,83.904L54.555,83.904" style="fill:none;stroke:#000000;stroke-width:0.5" />
<path d="M46.555,238.93L54.555,238.93" style="fill:none;stroke:#000000;stroke-width:0.5" />
<path d="M46.555,393.95L54.555,393.95" style="fill:none;stroke:#000000;stroke-width:0.5" />
<path d="M50.555,122.66L54.555,122.66" style="fill:none;stroke:#000000;stroke-width:0.5" />
<path d="M50.555,161.42L54.555,161.42" style="fill:none;stroke:#000000;stroke-width:0.5" />
<path d="M50.555,200.17L54.555,200.17" style="fill:none;stroke:#000000;stroke-width:0.5" />
<path d="M50.555,277.69L54.555,277.69" style="fill:none;stroke:#000000;stroke-width:0.5" />
<path d="M50.555,316.44L54.555,316.44" style="fill:none;stroke:#000000;stroke-width:0.5" />
<path d="M50.555,355.2L54.555,355.2" style="fill:none;stroke:#000000;stroke-width:0.5" />
<path d="M54.555,45.151L54.555,416.58" style="fill:none;stroke:#000000;stroke-width:0.5" />
<path d="M60.305,416.58L86.837,56.623L91.661,48.69L92.867,48.895L94.073,67.615L95.279,59.557L96.485,56.612L97.691,110.84L98.897,94.442L100.1,48.577L101.31,87.183L102.52,66.882L103.72,60.371L104.93,57.073L106.13,60.123L107.34,52.062L108.55,56.802L109.75,83.032L110.96,83.567L112.16,67.463L113.37,103.19L114.58,56.821L115.78,80.013L118.19,45.244L119.4,88.295L120.61,53.054L121.81,60.708L123.02,45.539L124.22,112.61L125.43,103.54L126.64,49.449L127.84,59.17L129.05,71.269L130.25,58.542L131.46,65.797L132.67,55.127L133.87,85.004L135.08,56.677L136.28,92.783L137.49,51.515L138.7,54.918L139.9,58.41L141.11,64.398L142.31,53.744L143.52,55.592L144.73,55.181L145.93,68.583L147.14,61.247L148.34,73.614L149.55,60.541L150.76,68.684L151.96,64.685L153.17,93.143L154.37,62.975L155.58,57.286L156.79,70.719L157.99,75.583L159.2,62.557L160.4,64.685L161.61,69.006L162.82,79.462L164.02,65.731L165.23,68.754L166.43,71.897L167.64,66.258L168.85,68.835L170.05,66.177L171.26,65.425L172.46,68.657L173.67,67.994L174.88,76.494L176.08,62.522L177.29,70.924L178.5,68.386L179.7,67.064L180.91,64.181L182.11,59.921L183.32,68.382L184.53,70.048L185.73,64.592L186.94,69.343L188.14,63.378L189.35,74.738L190.56,66.235L191.76,65.874L192.97,63.801L194.17,65.56L195.38,69.056L196.59,63.138L197.79,65.886L199,66.824L200.2,66.975L201.41,67.622L202.62,61.991L203.82,63.619L205.03,65.467L206.23,65.343L207.44,62.987L208.65,61.913L209.85,64.332L211.06,61.359L212.26,65.704L213.47,62.193L214.68,60.805L215.88,61.561L217.09,67.242L218.29,64.479L219.5,60.914L220.71,61.119L221.91,67.51L223.12,62.014L224.32,63.034L225.53,60.933L226.74,64.44L227.94,61.712L229.15,62.615L230.35,60.879L231.56,60.921L232.77,60.604L233.97,62.964L235.18,59.053L236.38,60.371L237.59,59.844L238.8,62.037L240,59.995L241.21,59.669L242.41,60.561L243.62,59.7L244.83,59.483L246.03,58.584L247.24,58.08L248.44,60.138L249.65,58.883L250.86,60.204L252.06,57.875L253.27,58.371L254.47,59.057L255.68,58.627L256.89,57.309L258.09,57.925L259.3,58.003L260.5,58.131L261.71,56.724L262.92,57.677L264.12,56.592L265.33,57.456L266.53,56.34L267.74,56.402L268.95,56.096L270.15,56.844L271.36,56.135L272.56,55.926L273.77,55.612L274.98,56.007L276.18,55.112L277.39,55.782L278.6,54.519L279.8,55.116L281.01,54.647L282.21,55.712L283.42,54.437L284.63,53.837L285.83,54.515L287.04,54.41L288.24,53.779L289.45,53.488L290.66,53.833L291.86,54.061L293.07,53.868L294.27,53.465L295.48,52.91L296.69,52.527L297.89,53.217L299.1,52.453L300.3,52.627L301.51,52.379L302.72,52.786L303.92,52.635L305.13,52.077L306.33,52.143L307.54,51.713L308.75,51.779L309.95,51.593L311.16,51.248L312.36,51.221L313.57,51.403L314.78,51.426L315.98,50.93L317.19,50.647L318.39,50.969L319.6,51.097L320.81,50.976L322.01,50.635L323.22,50.55L324.42,50.476L325.63,50.066L326.84,50.232L328.04,50.042L329.25,50.104L330.45,50.17L331.66,49.845L332.87,49.593L334.07,49.763L335.28,49.566L336.48,49.585L337.69,49.322L338.9,49.407L340.1,49.221L341.31,49.356L342.51,49.066L343.72,49.178L344.93,48.899L346.13,49L347.34,48.88L348.54,48.55L349.75,48.612L350.96,48.682L352.16,48.372L353.37,48.391L354.57,48.457L355.78,48.368L356.99,48.422L358.19,48.186L359.4,48.093L360.6,48.05L361.81,47.872L363.02,48.066L364.22,47.961L365.43,47.764L366.63,47.651L367.84,47.605L369.05,47.632L370.25,47.69L371.46,47.624L372.66,47.384L373.87,47.388L375.08,47.364L376.28,47.353L377.49,47.291L378.7,47.287L379.9,47.205L381.11,47.174L382.31,46.895L383.52,47.171L384.73,46.996L385.93,46.95L387.14,47.016L388.34,46.651L389.55,46.864L390.76,46.841L391.96,46.833L393.17,46.667L394.37,46.659L395.58,46.663L396.79,46.516L397.99,46.446L399.2,46.527L400.4,46.539L401.61,46.411L402.82,46.376L404.02,46.403L405.23,46.333L406.43,46.473L407.64,46.268L408.85,46.353L410.05,46.194L411.26,46.252L412.46,46.105L413.67,46.082L414.88,46.175L416.08,46.105L417.29,46.151L418.49,46.082L419.7,46.066L420.91,46.062L422.11,46.082L423.32,45.872L424.52,45.95L425.73,46.078L426.94,45.872L428.14,45.923L429.35,45.911L430.55,45.884L431.76,45.81L432.97,45.837L434.17,45.764L435.38,45.752L436.58,45.833L437.79,45.787L439,45.725L440.2,45.682L441.41,45.725L442.61,45.768L443.82,45.706L445.03,45.717L446.23,45.651L447.44,45.655L448.64,45.659L449.85,45.609L451.06,45.578L452.26,45.616L453.47,45.554L454.67,45.578L455.88,45.531L457.09,45.512L458.29,45.504L459.5,45.527L460.7,45.489L461.91,45.481L463.12,45.492L464.32,45.516L465.53,45.45L466.73,45.551L467.94,45.396L469.15,45.43L470.35,45.45L471.56,45.45L472.77,45.45L473.97,45.392L475.18,45.372L476.38,45.446L477.59,45.403L478.8,45.403L480,45.423L481.21,45.337L482.41,45.368L483.62,45.326L484.83,45.357L486.03,45.384L487.24,45.322L488.44,45.349L489.65,45.299L490.86,45.322L492.06,45.349L493.27,45.326L494.47,45.299L495.68,45.291L496.89,45.279L498.09,45.279L499.3,45.268L500.5,45.264L501.71,45.252L502.92,45.283L504.12,45.256L505.33,45.283L506.53,45.272L507.74,45.252L508.95,45.283L510.15,45.229L511.36,45.213L512.56,45.233L513.77,45.244L514.98,45.229L516.18,45.225L517.39,45.233L518.59,45.221L519.8,45.241L521.01,45.217L522.21,45.233L523.42,45.229L524.62,45.217L525.83,45.233L527.04,45.233L528.24,45.233L529.45,45.221L530.65,45.182L531.86,45.206L533.07,45.221L534.27,45.217L535.48,45.171L536.68,45.202L537.89,45.217L539.1,45.171L540.3,45.202L541.51,45.178L542.71,45.175L543.92,45.19L545.13,45.198L546.33,45.194L547.54,45.186L548.74,45.217L549.95,45.182L551.16,45.178L552.36,45.171L553.57,45.171L554.77,45.159L555.98,45.178L557.19,45.186L558.39,45.171L559.6,45.182L560.8,45.178L562.01,45.171L563.22,45.171L564.42,45.163L565.63,45.178L566.83,45.186L568.04,45.171L569.25,45.167L570.45,45.171L571.66,45.151L572.87,45.163L574.07,45.155L575.28,45.151L576.48,45.155L577.69,45.167L578.9,45.171L580.1,45.159L581.31,45.151L582.51,45.163L583.72,45.163L584.93,45.182L586.13,45.159L587.34,45.151L588.54,45.159L589.75,45.151L590.96,45.159L592.16,45.159L594.57,45.151L595.78,45.167L596.99,45.155L598.19,45.155L599.4,45.167L600.6,45.163L601.81,45.151L603.02,45.155L604.22,45.159L605.43,45.151L606.63,45.155L607.84,45.159L609.05,45.155L610.25,45.155L611.46,45.155L612.66,45.155L613.87,45.151L616.28,45.159L617.49,45.151L618.69,45.151L619.9,45.155L621.11,45.155L622.31,45.155L624.72,45.151L625.93,45.151L627.14,45.151L630.75,45.151L631.96,45.151L634.37,45.151L636.78,45.151L639.2,45.155L646.43,45.155L647.64,45.155L651.26,45.151L652.46,45.151L653.67,45.151L657.29,45.151L681.41,45.151L698.29,45.151L720,45.151" style="fill:none;stroke:#0000FF" />
</g>
</svg>
