<?xml version="1.0"?>
<!-- Generated by SVGo and Plotinum VG -->
<svg width="720pt" height="432pt" viewBox="0 0 720 432"
	xmlns="http://www.w3.org/2000/svg"
	xmlns:xlink="http://www.w3.org/1999/xlink">
<g transform="scale(1, -1) translate(0, -432)">
<path d="M0,0L720,0L720,432L0,432Z" style="fill:#FFFFFF" />
<text x="358.5" y="-420.45" transform="scale(1, -1)"
	style="font-family:Times;font-weight:normal;font-style:normal;font-size:12px"> </text>
<text x="376.81" y="-3.8613" transform="scale(1, -1)"
	style="font-family:Times;font-weight:normal;font-style:normal;font-size:12px">Costs</text>
<text x="51.555" y="-18.634" transform="scale(1, -1)"
	style="font-family:Times;font-weight:normal;font-style:normal;font-size:10px">0.00</text>
<text x="324.67" y="-18.634" transform="scale(1, -1)"
	style="font-family:Times;font-weight:normal;font-style:normal;font-size:10px">250.00</text>
<text x="602.79" y="-18.634" transform="scale(1, -1)"
	style="font-family:Times;font-weight:normal;font-style:normal;font-size:10px">500.00</text>
<path d="M60.305,28.263L60.305,36.263" style="fill:none;stroke:#000000;stroke-width:0.5" />
<path d="M338.42,28.263L338.42,36.263" style="fill:none;stroke:#000000;stroke-width:0.5" />
<path d="M616.54,28.263L616.54,36.263" style="fill:none;stroke:#000000;stroke-width:0.5" />
<path d="M115.93,32.263L115.93,36.263" style="fill:none;stroke:#000000;stroke-width:0.5" />
<path d="M171.55,32.263L171.55,36.263" style="fill:none;stroke:#000000;stroke-width:0.5" />
<path d="M227.18,32.263L227.18,36.263" style="fill:none;stroke:#000000;stroke-width:0.5" />
<path d="M282.8,32.263L282.8,36.263" style="fill:none;stroke:#000000;stroke-width:0.5" />
<path d="M394.05,32.263L394.05,36.263" style="fill:none;stroke:#000000;stroke-width:0.5" />
<path d="M449.67,32.263L449.67,36.263" style="fill:none;stroke:#000000;stroke-width:0.5" />
<path d="M505.29,32.263L505.29,36.263" style="fill:none;stroke:#000000;stroke-width:0.5" />
<path d="M560.92,32.263L560.92,36.263" style="fill:none;stroke:#000000;stroke-width:0.5" />
<path d="M672.16,32.263L672.16,36.263" style="fill:none;stroke:#000000;stroke-width:0.5" />
<path d="M60.305,36.263L720,36.263" style="fill:none;stroke:#000000;stroke-width:0.5" />
<g transform="rotate(90)">
<text x="152.55" y="11.555" transform="scale(1, -1)"
	style="font-family:Times;font-weight:normal;font-style:normal;font-size:12px">Number of trials (1000000 total)</text>
</g>
<text x="19.055" y="-87.759" transform="scale(1, -1)"
	style="font-family:Times;font-weight:normal;font-style:normal;font-size:10px">10000</text>
<text x="19.055" y="-225.21" transform="scale(1, -1)"
	style="font-family:Times;font-weight:normal;font-style:normal;font-size:10px">40000</text>
<text x="19.055" y="-362.67" transform="scale(1, -1)"
	style="font-family:Times;font-weight:normal;font-style:normal;font-size:10px">70000</text>
<path d="M46.555,90.965L54.555,90.965" style="fill:none;stroke:#000000;stroke-width:0.5" />
<path d="M46.555,228.42L54.555,228.42" style="fill:none;stroke:#000000;stroke-width:0.5" />
<path d="M46.555,365.87L54.555,365.87" style="fill:none;stroke:#000000;stroke-width:0.5" />
<path d="M50.555,136.78L54.555,136.78" style="fill:none;stroke:#000000;stroke-width:0.5" />
<path d="M50.555,182.6L54.555,182.6" style="fill:none;stroke:#000000;stroke-width:0.5" />
<path d="M50.555,274.24L54.555,274.24" style="fill:none;stroke:#000000;stroke-width:0.5" />
<path d="M50.555,320.05L54.555,320.05" style="fill:none;stroke:#000000;stroke-width:0.5" />
<path d="M50.555,411.69L54.555,411.69" style="fill:none;stroke:#000000;stroke-width:0.5" />
<path d="M54.555,45.151L54.555,416.58" style="fill:none;stroke:#000000;stroke-width:0.5" />
<path d="M60.305,416.58L87.004,80.917L93.679,51.983L94.791,79.157L98.129,166.37L101.47,55.24L103.69,80.546L104.8,117.17L105.92,48.427L108.14,80.262L109.25,210.04L111.48,99.739L113.7,55.749L114.82,80.807L117.04,80.555L119.27,98.438L120.38,56.074L121.49,48.588L123.72,52.125L124.83,92.55L125.94,78.828L127.05,55.887L128.17,91.945L130.39,48.152L131.5,53.202L132.62,56.262L134.84,58.562L135.95,72.129L137.07,45.912L138.18,55.021L139.29,55.131L140.4,46.434L141.52,59.85L142.63,108.63L143.74,63.836L144.85,47.057L145.96,81.311L147.08,100.39L148.19,53.192L149.3,128.58L150.41,100.58L151.53,57.893L152.64,84.761L153.75,84.078L154.86,69.49L155.98,56.478L157.09,79.9L158.2,55.996L159.31,61.366L160.43,77.49L161.54,57.266L162.65,74.356L163.76,82.259L164.88,56.294L165.99,83.148L167.1,51.424L168.21,82.896L169.33,67.323L170.44,63.845L171.55,57.545L172.66,68.102L173.78,76.097L174.89,64.093L176,74.672L177.11,81.183L178.23,52.139L179.34,64.051L180.45,68.638L181.56,57.133L182.68,58.1L183.79,74.163L184.9,65.678L186.01,56.78L187.13,87.794L188.24,70.37L189.35,53.848L190.46,69.366L191.58,78.566L192.69,63.721L193.8,79.895L194.91,76.276L196.03,52.084L197.14,67.281L198.25,90.988L199.36,78.401L200.48,69.568L201.59,73.114L202.7,59.63L203.81,68.683L204.93,62.617L206.04,67.295L207.15,66.603L208.26,71.886L209.38,65.055L210.49,67.46L211.6,64.097L212.71,61.11L213.83,71.158L214.94,72.738L216.05,59.85L217.16,70.278L218.28,65.948L219.39,59.428L220.5,61.499L221.61,64.253L222.73,57.403L223.84,57.38L224.95,68.409L226.06,58.452L227.18,57.256L228.29,65.627L229.4,61.16L230.51,57.976L231.63,70.938L232.74,68.693L233.85,58.654L234.96,64.161L236.08,72.156L237.19,62.741L238.3,60.404L239.41,68.39L240.52,56.166L241.64,64.212L242.75,67.593L243.86,61.394L244.97,58.801L246.09,63.02L247.2,59.195L248.31,60.542L249.42,60.661L250.54,60.844L251.65,62.113L252.76,62.952L253.87,59.873L254.99,61L256.1,60.532L257.21,59.983L258.32,63.039L259.44,60.817L260.55,56.693L261.66,57.605L262.77,62.182L263.89,57.696L265,58.622L266.11,62.329L267.22,56.94L268.34,55.424L269.45,59.185L270.56,56.102L271.67,55.172L272.79,58.017L273.9,57.559L275.01,54.709L276.12,57.403L277.24,58.713L278.35,52.812L279.46,56.253L280.57,59.799L281.69,56.386L282.8,55.799L283.91,58.104L285.02,54.462L286.14,54.205L287.25,55.777L288.36,56.519L289.47,54.113L290.59,56.345L291.7,54.127L292.81,54.888L293.92,55.259L295.04,53.16L296.15,56.088L297.26,54.654L298.37,54.287L299.49,53.999L300.6,54.86L301.71,53.632L302.82,54.402L303.94,54.64L305.05,52.656L306.16,52.853L307.27,54.333L308.39,52.212L309.5,52.505L310.61,53.6L311.72,52.633L312.84,51.025L313.95,53.037L315.06,52.606L316.17,51.144L317.29,52.459L318.4,52.702L319.51,51.163L320.62,51.891L321.74,52.643L322.85,50.837L323.96,51.14L325.07,52.446L326.19,51.978L327.3,50.512L328.41,51.314L329.52,50.201L330.64,50.654L331.75,51.167L332.86,50.53L333.97,50.178L335.09,50.228L336.2,50.507L337.31,50.013L338.42,50.269L339.53,50.132L340.65,50.255L341.76,49.811L342.87,49.678L343.98,49.403L345.1,50.182L346.21,49.05L347.32,49.962L348.43,49.687L349.55,49.193L350.66,49.014L351.77,49.692L352.88,48.986L354,48.601L355.11,49.234L356.22,49.115L357.33,48.308L358.45,48.675L359.56,48.812L360.67,48.272L361.78,48.743L362.9,48.716L364.01,48.042L365.12,48.166L366.23,48.693L367.35,47.786L368.46,48.006L369.57,48.336L370.68,48.116L371.8,47.612L372.91,47.937L374.02,48.038L375.13,47.566L376.25,47.951L377.36,47.593L378.47,47.232L379.58,47.754L380.7,47.465L381.81,47.456L382.92,47.461L384.03,47.383L385.15,47.429L386.26,47.296L387.37,47.332L388.48,47.067L389.6,47.245L390.71,47.016L391.82,47.131L392.93,47.296L394.05,46.773L395.16,46.7L396.27,46.966L397.38,46.705L398.5,46.728L399.61,46.782L400.72,46.773L401.83,46.563L402.95,46.585L404.06,46.888L405.17,46.407L406.28,46.622L407.4,46.654L408.51,46.636L409.62,46.453L410.73,46.544L411.85,46.411L412.96,46.384L414.07,46.421L415.18,46.278L416.3,46.375L417.41,46.233L418.52,46.274L419.63,46.123L420.75,46.375L421.86,46.136L422.97,46.045L424.08,46.132L425.2,46.109L426.31,46.1L427.42,46.086L428.53,46.017L429.65,46.068L430.76,45.985L431.87,45.93L432.98,45.93L434.09,46.026L435.21,45.967L436.32,45.898L437.43,45.976L438.54,45.866L439.66,45.807L440.77,45.848L441.88,45.752L442.99,45.674L444.11,45.765L445.22,45.637L446.33,45.724L447.44,45.683L448.56,45.669L449.67,45.683L450.78,45.605L451.89,45.752L453.01,45.623L454.12,45.628L455.23,45.623L456.34,45.582L457.46,45.623L458.57,45.577L459.68,45.573L460.79,45.577L461.91,45.577L463.02,45.577L464.13,45.495L465.24,45.587L466.36,45.532L467.47,45.536L468.58,45.541L469.69,45.518L470.81,45.426L471.92,45.477L473.03,45.472L474.14,45.541L475.26,45.431L476.37,45.417L477.48,45.468L478.59,45.413L479.71,45.417L480.82,45.472L481.93,45.44L483.04,45.463L484.16,45.394L485.27,45.371L486.38,45.353L487.49,45.362L488.61,45.362L489.72,45.321L490.83,45.367L491.94,45.293L493.06,45.348L494.17,45.348L495.28,45.348L496.39,45.307L497.51,45.344L498.62,45.303L499.73,45.284L500.84,45.261L501.96,45.261L503.07,45.252L504.18,45.312L505.29,45.325L506.41,45.266L507.52,45.284L508.63,45.266L509.74,45.284L510.86,45.312L511.97,45.261L513.08,45.248L514.19,45.252L515.31,45.243L516.42,45.22L517.53,45.28L518.64,45.252L519.76,45.211L520.87,45.206L521.98,45.216L523.09,45.225L524.21,45.257L525.32,45.206L526.43,45.211L527.54,45.225L528.65,45.243L529.77,45.243L530.88,45.238L531.99,45.179L533.1,45.202L534.22,45.211L535.33,45.193L536.44,45.229L537.55,45.197L538.67,45.202L539.78,45.193L540.89,45.183L542,45.202L543.12,45.216L544.23,45.197L545.34,45.193L546.45,45.197L547.57,45.197L548.68,45.197L549.79,45.202L550.9,45.174L552.02,45.197L553.13,45.202L554.24,45.17L555.35,45.17L556.47,45.165L557.58,45.188L558.69,45.183L559.8,45.17L560.92,45.174L562.03,45.183L563.14,45.202L564.25,45.165L565.37,45.17L566.48,45.183L567.59,45.179L568.7,45.188L569.82,45.174L570.93,45.188L572.04,45.161L573.15,45.179L574.27,45.174L575.38,45.161L576.49,45.161L577.6,45.174L578.72,45.165L579.83,45.165L580.94,45.17L582.05,45.161L583.17,45.161L584.28,45.188L585.39,45.156L586.5,45.17L587.62,45.156L588.73,45.17L589.84,45.165L590.95,45.165L592.07,45.165L593.18,45.156L594.29,45.151L596.52,45.151L597.63,45.156L598.74,45.156L600.97,45.156L602.08,45.156L603.19,45.151L605.42,45.151L606.53,45.151L607.64,45.17L608.75,45.151L609.87,45.156L610.98,45.165L612.09,45.151L614.32,45.156L615.43,45.156L616.54,45.151L617.65,45.151L618.77,45.151L619.88,45.151L620.99,45.156L624.33,45.151L626.55,45.151L627.66,45.151L628.78,45.156L631,45.151L632.11,45.151L633.23,45.151L634.34,45.151L636.56,45.156L637.68,45.151L638.79,45.151L641.01,45.151L644.35,45.151L645.46,45.151L646.58,45.151L647.69,45.151L649.91,45.151L672.16,45.151L677.73,45.156L694.41,45.151L699.98,45.151L705.54,45.151L720,45.151" style="fill:none;stroke:#0000FF" />
</g>
</svg>
