<?xml version="1.0"?>
<!-- Generated by SVGo and Plotinum VG -->
<svg width="720pt" height="432pt" viewBox="0 0 720 432"
	xmlns="http://www.w3.org/2000/svg"
	xmlns:xlink="http://www.w3.org/1999/xlink">
<g transform="scale(1, -1) translate(0, -432)">
<path d="M0,0L720,0L720,432L0,432Z" style="fill:#FFFFFF" />
<text x="358.5" y="-420.45" transform="scale(1, -1)"
	style="font-family:Times;font-weight:normal;font-style:normal;font-size:12px"> </text>
<text x="379.31" y="-3.8613" transform="scale(1, -1)"
	style="font-family:Times;font-weight:normal;font-style:normal;font-size:12px">Costs</text>
<text x="62.805" y="-18.634" transform="scale(1, -1)"
	style="font-family:Times;font-weight:normal;font-style:normal;font-size:10px">0</text>
<text x="350.73" y="-18.634" transform="scale(1, -1)"
	style="font-family:Times;font-weight:normal;font-style:normal;font-size:10px">200</text>
<text x="643.66" y="-18.634" transform="scale(1, -1)"
	style="font-family:Times;font-weight:normal;font-style:normal;font-size:10px">400</text>
<path d="M65.305,28.263L65.305,36.263" style="fill:none;stroke:#000000;stroke-width:0.5" />
<path d="M358.23,28.263L358.23,36.263" style="fill:none;stroke:#000000;stroke-width:0.5" />
<path d="M651.16,28.263L651.16,36.263" style="fill:none;stroke:#000000;stroke-width:0.5" />
<path d="M211.77,32.263L211.77,36.263" style="fill:none;stroke:#000000;stroke-width:0.5" />
<path d="M504.7,32.263L504.7,36.263" style="fill:none;stroke:#000000;stroke-width:0.5" />
<path d="M65.305,36.263L720,36.263" style="fill:none;stroke:#000000;stroke-width:0.5" />
<g transform="rotate(90)">
<text x="152.55" y="11.555" transform="scale(1, -1)"
	style="font-family:Times;font-weight:normal;font-style:normal;font-size:12px">Number of trials (1000000 total)</text>
</g>
<text x="24.055" y="-109.98" transform="scale(1, -1)"
	style="font-family:Times;font-weight:normal;font-style:normal;font-size:10px">40000</text>
<text x="19.055" y="-246.06" transform="scale(1, -1)"
	style="font-family:Times;font-weight:normal;font-style:normal;font-size:10px">120000</text>
<text x="19.055" y="-382.14" transform="scale(1, -1)"
	style="font-family:Times;font-weight:normal;font-style:normal;font-size:10px">200000</text>
<path d="M51.555,113.19L59.555,113.19" style="fill:none;stroke:#000000;stroke-width:0.5" />
<path d="M51.555,249.27L59.555,249.27" style="fill:none;stroke:#000000;stroke-width:0.5" />
<path d="M51.555,385.35L59.555,385.35" style="fill:none;stroke:#000000;stroke-width:0.5" />
<path d="M55.555,181.23L59.555,181.23" style="fill:none;stroke:#000000;stroke-width:0.5" />
<path d="M55.555,317.31L59.555,317.31" style="fill:none;stroke:#000000;stroke-width:0.5" />
<path d="M59.555,45.151L59.555,416.58" style="fill:none;stroke:#000000;stroke-width:0.5" />
<path d="M65.305,416.58L98.991,48.543L100.46,89.073L104.85,52.282L106.31,48.368L109.24,51.986L110.71,52.294L112.17,63.367L115.1,82.175L118.03,52.343L119.5,51.998L122.43,90.452L123.89,101.37L125.36,73.641L126.82,48.558L128.28,68.417L129.75,104.32L131.21,48.513L132.68,60.086L134.14,45.532L137.07,68.722L138.54,77.61L140,65.601L141.47,45.573L142.93,78.749L144.4,60.047L145.86,49.516L147.32,47.082L148.79,59.246L150.25,69.353L151.72,52.887L153.18,46.143L154.65,50.188L156.11,46.267L157.58,50.965L159.04,52.739L160.51,49.336L161.97,48.501L163.44,49.952L164.9,54.279L166.37,47.179L167.83,49.778L169.29,50.865L170.76,49.351L172.22,54.553L173.69,59.843L175.15,53.199L176.62,51.212L178.08,82.949L179.55,56.031L181.01,53.333L182.48,66.604L183.94,58.912L185.41,53.318L186.87,60.29L188.33,60.773L189.8,57.189L191.26,50.326L192.73,54.48L194.19,53.561L195.66,55.924L197.12,58.45L198.59,52.915L200.05,54.444L201.52,58.695L202.98,57.172L204.45,52.835L205.91,51.261L207.38,57.046L208.84,54.207L210.3,52.842L211.77,50.494L213.23,54.958L214.7,52.233L216.16,52.114L217.63,52.639L219.09,49.261L220.56,48.541L222.02,51.949L223.49,52.047L224.95,50.365L226.42,48.921L227.88,53.156L229.34,49.618L230.81,49.317L232.27,50.872L233.74,49.593L235.2,52.158L236.67,54.221L238.13,51.826L239.6,49.977L241.06,52.348L242.53,54.507L243.99,48.985L245.46,51.219L246.92,51.576L248.39,49.795L249.85,50.904L251.31,52.287L252.78,50.727L254.24,49.781L255.71,52.617L257.17,51.27L258.64,49.576L260.1,50.578L261.57,51.071L263.03,51.05L264.5,49.501L265.96,49.56L267.43,50.016L268.89,48.649L270.35,48.652L271.82,49.031L273.28,48.712L274.75,48.715L276.21,48.492L277.68,48.584L279.14,47.967L280.61,48.439L282.07,48.433L283.54,47.568L285,48.07L286.47,48.858L287.93,48.065L289.4,47.693L290.86,48.052L292.32,48.162L293.79,47.718L295.25,48.778L296.72,48.242L298.18,47.528L299.65,47.982L301.11,48.166L302.58,47.769L304.04,47.335L305.51,47.8L306.97,47.591L308.44,47.437L309.9,47.856L311.36,47.307L312.83,47.437L314.29,47.863L315.76,47.594L317.22,47.208L318.69,47.223L320.15,47.703L321.62,47.266L323.08,47.152L324.55,46.941L326.01,47.131L327.48,47.026L328.94,46.9L330.41,46.907L331.87,46.682L333.33,46.558L334.8,46.732L336.26,46.653L337.73,46.485L339.19,46.471L340.66,46.471L342.12,46.385L343.59,46.172L345.05,46.561L346.52,46.31L347.98,46.172L349.45,46.315L350.91,46.24L352.37,46.163L353.84,46.25L355.3,46.247L356.77,46.007L358.23,46.106L359.7,46.279L361.16,46.055L362.63,45.985L364.09,46.038L365.56,46.015L367.02,45.942L368.49,46.049L369.95,46.063L371.42,45.942L372.88,46.015L374.34,45.97L375.81,45.915L377.27,45.886L378.74,45.862L380.2,45.896L381.67,45.852L383.13,45.767L384.6,45.83L386.06,45.738L387.53,45.754L388.99,45.663L390.46,45.711L391.92,45.634L393.38,45.674L394.85,45.674L396.31,45.612L397.78,45.619L399.24,45.604L400.71,45.674L402.17,45.531L403.64,45.577L405.1,45.514L406.57,45.485L408.03,45.522L409.5,45.509L410.96,45.503L412.43,45.5L413.89,45.514L415.35,45.435L416.82,45.493L418.28,45.446L419.75,45.432L421.21,45.424L422.68,45.413L424.14,45.437L425.61,45.405L427.07,45.432L428.54,45.393L430,45.362L431.47,45.413L432.93,45.386L434.39,45.415L435.86,45.337L437.32,45.403L438.79,45.332L440.25,45.366L441.72,45.344L443.18,45.33L444.65,45.32L446.11,45.311L447.58,45.347L449.04,45.325L450.51,45.287L451.97,45.335L453.44,45.318L454.9,45.299L456.36,45.315L457.83,45.281L459.29,45.27L460.76,45.303L462.22,45.26L463.69,45.281L465.15,45.236L466.62,45.274L468.08,45.252L469.55,45.238L471.01,45.228L472.48,45.24L473.94,45.248L475.4,45.259L476.87,45.221L478.33,45.228L479.8,45.221L481.26,45.197L482.73,45.238L484.19,45.218L485.66,45.206L487.12,45.23L488.59,45.211L490.05,45.214L491.52,45.219L492.98,45.184L494.45,45.194L495.91,45.207L497.37,45.221L498.84,45.196L500.3,45.197L501.77,45.189L503.23,45.211L504.7,45.197L506.16,45.201L507.63,45.197L509.09,45.177L510.56,45.18L512.02,45.189L513.49,45.197L514.95,45.18L516.41,45.179L517.88,45.187L519.34,45.172L520.81,45.185L522.27,45.17L523.74,45.177L525.2,45.179L526.67,45.172L528.13,45.172L529.6,45.18L531.06,45.179L532.53,45.172L533.99,45.167L535.46,45.168L536.92,45.167L538.38,45.168L539.85,45.167L541.31,45.163L542.78,45.168L544.24,45.165L545.71,45.17L547.17,45.168L548.64,45.158L550.1,45.165L551.57,45.16L553.03,45.163L554.5,45.162L555.96,45.16L557.42,45.16L558.89,45.155L560.35,45.153L561.82,45.165L563.28,45.16L564.75,45.165L566.21,45.156L567.68,45.156L569.14,45.155L570.61,45.162L572.07,45.155L573.54,45.16L575,45.158L576.47,45.155L577.93,45.158L579.39,45.158L580.86,45.151L582.32,45.151L583.79,45.158L586.72,45.155L588.18,45.155L589.65,45.153L591.11,45.151L592.58,45.151L594.04,45.155L595.51,45.158L598.43,45.156L601.36,45.155L602.83,45.153L604.29,45.151L605.76,45.153L608.69,45.151L610.15,45.151L611.62,45.151L614.55,45.151L616.01,45.155L620.4,45.153L624.8,45.151L629.19,45.151L630.66,45.155L635.05,45.153L640.91,45.151L645.3,45.151L657.02,45.151L658.49,45.151L659.95,45.151L665.81,45.155L667.27,45.151L676.06,45.151L681.92,45.151L699.5,45.153L717.07,45.151L720,45.151" style="fill:none;stroke:#0000FF" />
</g>
</svg>
