<?xml version="1.0"?>
<!-- Generated by SVGo and Plotinum VG -->
<svg width="720pt" height="432pt" viewBox="0 0 720 432"
	xmlns="http://www.w3.org/2000/svg"
	xmlns:xlink="http://www.w3.org/1999/xlink">
<g transform="scale(1, -1) translate(0, -432)">
<path d="M0,0L720,0L720,432L0,432Z" style="fill:#FFFFFF" />
<text x="358.5" y="-420.45" transform="scale(1, -1)"
	style="font-family:Times;font-weight:normal;font-style:normal;font-size:12px"> </text>
<text x="385.56" y="-3.8613" transform="scale(1, -1)"
	style="font-family:Times;font-weight:normal;font-style:normal;font-size:12px">Costs</text>
<text x="75.305" y="-18.634" transform="scale(1, -1)"
	style="font-family:Times;font-weight:normal;font-style:normal;font-size:10px">0</text>
<text x="334.58" y="-18.634" transform="scale(1, -1)"
	style="font-family:Times;font-weight:normal;font-style:normal;font-size:10px">200</text>
<text x="598.86" y="-18.634" transform="scale(1, -1)"
	style="font-family:Times;font-weight:normal;font-style:normal;font-size:10px">400</text>
<path d="M77.805,28.263L77.805,36.263" style="fill:none;stroke:#000000;stroke-width:0.5" />
<path d="M342.08,28.263L342.08,36.263" style="fill:none;stroke:#000000;stroke-width:0.5" />
<path d="M606.36,28.263L606.36,36.263" style="fill:none;stroke:#000000;stroke-width:0.5" />
<path d="M209.94,32.263L209.94,36.263" style="fill:none;stroke:#000000;stroke-width:0.5" />
<path d="M474.22,32.263L474.22,36.263" style="fill:none;stroke:#000000;stroke-width:0.5" />
<path d="M77.805,36.263L720,36.263" style="fill:none;stroke:#000000;stroke-width:0.5" />
<g transform="rotate(90)">
<text x="152.55" y="11.555" transform="scale(1, -1)"
	style="font-family:Times;font-weight:normal;font-style:normal;font-size:12px">Number of trials (1000000 total)</text>
</g>
<text x="24.055" y="-80.27" transform="scale(1, -1)"
	style="font-family:Times;font-weight:normal;font-style:normal;font-size:10px">25000.00</text>
<text x="19.055" y="-233.57" transform="scale(1, -1)"
	style="font-family:Times;font-weight:normal;font-style:normal;font-size:10px">125000.00</text>
<text x="19.055" y="-386.88" transform="scale(1, -1)"
	style="font-family:Times;font-weight:normal;font-style:normal;font-size:10px">225000.00</text>
<path d="M64.055,83.476L72.055,83.476" style="fill:none;stroke:#000000;stroke-width:0.5" />
<path d="M64.055,236.78L72.055,236.78" style="fill:none;stroke:#000000;stroke-width:0.5" />
<path d="M64.055,390.08L72.055,390.08" style="fill:none;stroke:#000000;stroke-width:0.5" />
<path d="M68.055,160.13L72.055,160.13" style="fill:none;stroke:#000000;stroke-width:0.5" />
<path d="M68.055,313.43L72.055,313.43" style="fill:none;stroke:#000000;stroke-width:0.5" />
<path d="M72.055,45.151L72.055,416.58" style="fill:none;stroke:#000000;stroke-width:0.5" />
<path d="M77.805,416.58L106.88,48.559L108.2,48.625L112.16,55.729L113.48,55.524L114.8,88.971L117.45,51.831L120.09,55.392L121.41,55.398L122.73,77.267L124.05,55.42L126.7,55.939L128.02,65.804L129.34,62.602L131.98,78.042L133.3,62.674L134.62,62.084L135.95,99.765L137.27,52.2L138.59,62.591L141.23,45.253L142.55,67.721L143.87,49.077L145.2,48.878L146.52,45.216L147.84,52.401L149.16,56.893L150.48,68.371L151.8,64.471L153.12,52.637L154.45,49.862L155.77,45.814L157.09,47.935L158.41,70.379L159.73,74.543L161.05,54.021L162.37,47.206L163.7,48.176L165.02,49.714L166.34,50.071L167.66,48.182L168.98,51.331L170.3,50.348L171.62,55.161L172.94,54.995L174.27,50.065L175.59,60.801L176.91,50.397L178.23,51.739L179.55,52.53L180.87,52.809L182.19,51.146L183.52,75.441L184.84,65.358L186.16,52.771L187.48,55.642L188.8,52.22L190.12,53.658L191.44,50.989L192.77,53.283L194.09,54.054L195.41,53.497L196.73,55.395L198.05,50.201L199.37,49.593L200.69,51.944L202.02,50.977L203.34,52.645L204.66,52.094L205.98,51.535L207.3,51.011L208.62,53.594L209.94,53.014L211.27,50.483L212.59,51.429L213.91,50.998L215.23,51.386L216.55,52.769L217.87,52.599L219.19,50.946L220.51,52.709L221.84,50.204L223.16,49.333L224.48,50.592L225.8,50.134L227.12,49.68L228.44,50.457L229.76,51.815L231.09,50.65L232.41,51.555L233.73,53.076L235.05,50.37L236.37,48.946L237.69,49.93L239.01,50.111L240.34,51.573L241.66,52.818L242.98,50.932L244.3,49.366L245.62,49.131L246.94,48.391L248.26,50.128L249.59,49.18L250.91,48.547L252.23,48.263L253.55,48.762L254.87,49.188L256.19,50.008L257.51,50.453L258.84,49.028L260.16,48.385L261.48,48.236L262.8,48.007L264.12,49.338L265.44,50.338L266.76,49.554L268.08,48.332L269.41,48.058L270.73,47.986L272.05,47.8L273.37,47.62L274.69,47.909L276.01,47.885L277.33,47.975L278.66,48.127L279.98,47.463L281.3,48.055L282.62,47.741L283.94,47.498L285.26,47.727L286.58,47.566L287.91,47.439L289.23,47.472L290.55,48.57L291.87,47.598L293.19,47.402L294.51,47.321L295.83,47.219L297.16,47.083L298.48,47.256L299.8,47.291L301.12,47.216L302.44,47.252L303.76,47.002L305.08,46.795L306.41,46.916L307.73,46.908L309.05,46.819L310.37,46.927L311.69,46.85L313.01,46.792L314.33,46.976L315.65,47.017L316.98,46.678L318.3,46.499L319.62,46.522L320.94,46.473L322.26,46.678L323.58,46.654L324.9,46.447L326.23,46.287L327.55,46.384L328.87,46.191L330.19,46.37L331.51,46.3L332.83,46.186L334.15,46.042L335.48,46.234L336.8,46.261L338.12,46.321L339.44,46.333L340.76,46.228L342.08,46.113L343.4,45.975L344.73,46.07L346.05,46.027L347.37,46.064L348.69,46.128L350.01,45.903L351.33,45.947L352.65,45.972L353.98,45.864L355.3,45.889L356.62,45.8L357.94,45.794L359.26,45.78L360.58,45.765L361.9,45.829L363.22,45.84L364.55,45.757L365.87,45.685L367.19,45.699L368.51,45.708L369.83,45.67L371.15,45.746L372.47,45.708L373.8,45.64L375.12,45.624L376.44,45.578L377.76,45.61L379.08,45.596L380.4,45.561L381.72,45.545L383.05,45.562L384.37,45.53L385.69,45.483L387.01,45.512L388.33,45.536L389.65,45.502L390.97,45.499L392.3,45.469L393.62,45.455L394.94,45.444L396.26,45.475L397.58,45.473L398.9,45.472L400.22,45.449L401.55,45.4L402.87,45.406L404.19,45.4L405.51,45.398L406.83,45.4L408.15,45.377L409.47,45.38L410.79,45.357L412.12,45.334L413.44,45.381L414.76,45.343L416.08,45.318L417.4,45.334L418.72,45.383L420.04,45.334L421.37,45.348L422.69,45.351L424.01,45.323L425.33,45.294L426.65,45.288L427.97,45.325L429.29,45.299L430.62,45.317L431.94,45.291L433.26,45.291L434.58,45.276L435.9,45.276L437.22,45.285L438.54,45.272L439.87,45.285L441.19,45.251L442.51,45.262L443.83,45.249L445.15,45.259L446.47,45.257L447.79,45.262L449.12,45.239L450.44,45.234L451.76,45.226L453.08,45.231L454.4,45.234L455.72,45.237L457.04,45.225L458.36,45.231L459.69,45.231L461.01,45.217L462.33,45.231L463.65,45.207L464.97,45.217L466.29,45.2L467.61,45.197L468.94,45.22L470.26,45.197L471.58,45.185L472.9,45.199L474.22,45.203L475.54,45.199L476.86,45.18L478.19,45.199L479.51,45.199L480.83,45.191L482.15,45.191L483.47,45.188L484.79,45.191L486.11,45.184L487.44,45.184L488.76,45.196L490.08,45.191L491.4,45.182L492.72,45.176L494.04,45.19L495.36,45.18L496.69,45.174L498.01,45.179L499.33,45.179L500.65,45.18L501.97,45.173L503.29,45.184L504.61,45.167L505.93,45.177L507.26,45.171L508.58,45.17L509.9,45.171L511.22,45.173L512.54,45.174L513.86,45.173L515.18,45.171L516.51,45.162L517.83,45.164L519.15,45.161L520.47,45.162L521.79,45.165L523.11,45.159L524.43,45.164L525.76,45.165L527.08,45.164L528.4,45.159L529.72,45.159L531.04,45.164L532.36,45.159L533.68,45.157L535.01,45.151L536.33,45.159L537.65,45.157L538.97,45.161L540.29,45.164L541.61,45.153L542.93,45.162L544.26,45.153L545.58,45.164L546.9,45.162L548.22,45.156L549.54,45.156L552.18,45.153L553.5,45.156L554.83,45.154L556.15,45.156L557.47,45.159L558.79,45.154L560.11,45.156L561.43,45.153L562.75,45.151L565.4,45.159L566.72,45.153L568.04,45.159L569.36,45.153L570.68,45.151L572,45.156L573.33,45.154L574.65,45.153L575.97,45.156L577.29,45.151L578.61,45.157L581.25,45.156L582.58,45.151L583.9,45.151L585.22,45.154L586.54,45.153L591.83,45.153L593.15,45.151L594.47,45.151L595.79,45.153L597.11,45.151L598.43,45.153L599.75,45.153L601.07,45.151L607.68,45.151L611.65,45.151L614.29,45.151L616.93,45.153L618.25,45.151L623.54,45.151L624.86,45.151L627.5,45.151L634.11,45.151L636.75,45.151L643.36,45.151L644.68,45.151L657.89,45.151L661.86,45.151L675.07,45.151L720,45.151" style="fill:none;stroke:#0000FF" />
</g>
</svg>
