<?xml version="1.0"?>
<!-- Generated by SVGo and Plotinum VG -->
<svg width="720pt" height="432pt" viewBox="0 0 720 432"
	xmlns="http://www.w3.org/2000/svg"
	xmlns:xlink="http://www.w3.org/1999/xlink">
<g transform="scale(1, -1) translate(0, -432)">
<path d="M0,0L720,0L720,432L0,432Z" style="fill:#FFFFFF" />
<text x="358.5" y="-420.45" transform="scale(1, -1)"
	style="font-family:Times;font-weight:normal;font-style:normal;font-size:12px"> </text>
<text x="379.31" y="-3.8613" transform="scale(1, -1)"
	style="font-family:Times;font-weight:normal;font-style:normal;font-size:12px">Costs</text>
<text x="56.555" y="-18.634" transform="scale(1, -1)"
	style="font-family:Times;font-weight:normal;font-style:normal;font-size:10px">0.00</text>
<text x="338.2" y="-18.634" transform="scale(1, -1)"
	style="font-family:Times;font-weight:normal;font-style:normal;font-size:10px">250.00</text>
<text x="624.84" y="-18.634" transform="scale(1, -1)"
	style="font-family:Times;font-weight:normal;font-style:normal;font-size:10px">500.00</text>
<path d="M65.305,28.263L65.305,36.263" style="fill:none;stroke:#000000;stroke-width:0.5" />
<path d="M351.95,28.263L351.95,36.263" style="fill:none;stroke:#000000;stroke-width:0.5" />
<path d="M638.59,28.263L638.59,36.263" style="fill:none;stroke:#000000;stroke-width:0.5" />
<path d="M122.63,32.263L122.63,36.263" style="fill:none;stroke:#000000;stroke-width:0.5" />
<path d="M179.96,32.263L179.96,36.263" style="fill:none;stroke:#000000;stroke-width:0.5" />
<path d="M237.29,32.263L237.29,36.263" style="fill:none;stroke:#000000;stroke-width:0.5" />
<path d="M294.62,32.263L294.62,36.263" style="fill:none;stroke:#000000;stroke-width:0.5" />
<path d="M409.28,32.263L409.28,36.263" style="fill:none;stroke:#000000;stroke-width:0.5" />
<path d="M466.61,32.263L466.61,36.263" style="fill:none;stroke:#000000;stroke-width:0.5" />
<path d="M523.94,32.263L523.94,36.263" style="fill:none;stroke:#000000;stroke-width:0.5" />
<path d="M581.26,32.263L581.26,36.263" style="fill:none;stroke:#000000;stroke-width:0.5" />
<path d="M695.92,32.263L695.92,36.263" style="fill:none;stroke:#000000;stroke-width:0.5" />
<path d="M65.305,36.263L720,36.263" style="fill:none;stroke:#000000;stroke-width:0.5" />
<g transform="rotate(90)">
<text x="152.55" y="11.555" transform="scale(1, -1)"
	style="font-family:Times;font-weight:normal;font-style:normal;font-size:12px">Number of trials (1000000 total)</text>
</g>
<text x="24.055" y="-106.06" transform="scale(1, -1)"
	style="font-family:Times;font-weight:normal;font-style:normal;font-size:10px">30000</text>
<text x="24.055" y="-234.29" transform="scale(1, -1)"
	style="font-family:Times;font-weight:normal;font-style:normal;font-size:10px">90000</text>
<text x="19.055" y="-362.52" transform="scale(1, -1)"
	style="font-family:Times;font-weight:normal;font-style:normal;font-size:10px">150000</text>
<path d="M51.555,109.26L59.555,109.26" style="fill:none;stroke:#000000;stroke-width:0.5" />
<path d="M51.555,237.49L59.555,237.49" style="fill:none;stroke:#000000;stroke-width:0.5" />
<path d="M51.555,365.72L59.555,365.72" style="fill:none;stroke:#000000;stroke-width:0.5" />
<path d="M55.555,173.38L59.555,173.38" style="fill:none;stroke:#000000;stroke-width:0.5" />
<path d="M55.555,301.61L59.555,301.61" style="fill:none;stroke:#000000;stroke-width:0.5" />
<path d="M59.555,45.151L59.555,416.58" style="fill:none;stroke:#000000;stroke-width:0.5" />
<path d="M65.305,416.58L91.676,48.419L92.823,52.046L95.116,52.012L96.262,51.804L97.409,48.678L98.555,74.2L99.702,48.498L100.85,69.62L102,62.546L103.14,59.18L104.29,81.272L105.43,74.666L106.58,69.983L108.87,76.773L110.02,65.987L111.17,74.165L112.31,66.125L113.46,62.304L114.61,58.769L115.75,66.215L116.9,62.625L118.05,52.151L119.19,45.205L121.49,84.155L122.63,77.046L123.78,63.317L124.93,45.528L126.07,56L127.22,73.191L128.37,46.344L129.51,68.517L130.66,74.685L131.81,47.425L132.95,47.043L134.1,67.324L135.25,76.375L136.39,59.464L137.54,53.903L138.69,50.099L139.83,51.911L140.98,50.732L142.13,71.804L143.27,51.89L144.42,54.194L145.57,53.694L146.71,53.544L147.86,54.292L149,55.848L150.15,59.87L151.3,54.818L152.44,55.262L153.59,54.657L154.74,57.258L155.88,56.701L157.03,75.991L158.18,59.584L159.32,55.514L160.47,59.024L161.62,58.626L162.76,60.511L163.91,56.218L165.06,56.23L166.2,59.045L167.35,59.656L168.5,59.346L169.64,58.831L170.79,59.588L171.94,57.639L173.08,58.579L174.23,59.727L175.38,58.459L176.52,54.987L177.67,56.354L178.82,57.947L179.96,56.451L181.11,56.786L182.26,54.589L183.4,56.145L184.55,53.518L185.7,56.267L186.84,56.63L187.99,55.344L189.13,52.238L190.28,53.638L191.43,56.728L192.57,57.286L193.72,53.927L194.87,53.467L196.01,54.256L197.16,53.612L198.31,55.057L199.45,55.301L200.6,55.882L201.75,52.899L202.89,52.663L204.04,54.666L205.19,53.095L206.33,54.348L207.48,54.234L208.63,52.373L209.77,51.589L210.92,52.089L212.07,53.031L213.21,54.046L214.36,53.948L215.51,52.469L216.65,51.323L217.8,52.044L218.95,53.523L220.09,52.108L221.24,52.593L222.39,52.852L223.53,51.398L224.68,51.424L225.83,52.042L226.97,53.04L228.12,51.785L229.27,51.418L230.41,51.366L231.56,51.229L232.7,51.159L233.85,51.52L235,50.982L236.14,50.699L237.29,50.672L238.44,50.59L239.58,50.793L240.73,50.238L241.88,50.287L243.02,50.347L244.17,50.116L245.32,49.836L246.46,49.693L247.61,49.81L248.76,49.834L249.9,50.026L251.05,49.62L252.2,49.445L253.34,49.353L254.49,49.233L255.64,49.419L256.78,49.396L257.93,49.191L259.08,48.906L260.22,49.024L261.37,48.992L262.52,49.06L263.66,48.84L264.81,48.78L265.96,48.654L267.1,48.396L268.25,48.498L269.4,48.475L270.54,48.648L271.69,48.302L272.84,48.269L273.98,48.12L275.13,47.97L276.27,48.175L277.42,48.269L278.57,48.043L279.71,47.757L280.86,47.605L282.01,47.543L283.15,47.786L284.3,47.806L285.45,47.425L286.59,47.4L287.74,47.338L288.89,47.427L290.03,47.34L291.18,47.408L292.33,47.214L293.47,47.216L294.62,47.092L295.77,47.081L296.91,47.113L298.06,47.058L299.21,47.09L300.35,46.844L301.5,46.998L302.65,46.915L303.79,46.714L304.94,46.752L306.09,46.902L307.23,46.737L308.38,46.705L309.53,46.684L310.67,46.688L311.82,46.6L312.97,46.47L314.11,46.577L315.26,46.449L316.4,46.464L317.55,46.466L318.7,46.419L319.84,46.419L320.99,46.237L322.14,46.305L323.28,46.406L324.43,46.226L325.58,46.228L326.72,46.181L327.87,46.137L329.02,46.122L330.16,46.036L331.31,46.025L332.46,46.113L333.6,46.028L334.75,46.034L335.9,46.023L337.04,45.906L338.19,45.993L339.34,45.925L340.48,45.861L341.63,45.919L342.78,45.916L343.92,45.807L345.07,45.891L346.22,45.814L347.36,45.784L348.51,45.831L349.66,45.741L350.8,45.795L351.95,45.769L353.1,45.711L354.24,45.713L355.39,45.707L356.54,45.613L357.68,45.615L358.83,45.647L359.97,45.617L361.12,45.634L362.27,45.622L363.41,45.523L364.56,45.564L365.71,45.542L366.85,45.577L368,45.557L369.15,45.506L370.29,45.547L371.44,45.487L372.59,45.519L373.73,45.493L374.88,45.525L376.03,45.438L377.17,45.425L378.32,45.483L379.47,45.457L380.61,45.453L381.76,45.436L382.91,45.442L384.05,45.429L385.2,45.376L386.35,45.453L387.49,45.357L388.64,45.438L389.79,45.389L390.93,45.339L392.08,45.363L393.23,45.391L394.37,45.322L395.52,45.369L396.67,45.361L397.81,45.35L398.96,45.324L400.11,45.324L401.25,45.269L402.4,45.316L403.54,45.303L404.69,45.273L405.84,45.286L406.98,45.303L408.13,45.277L409.28,45.271L410.42,45.295L411.57,45.277L412.72,45.31L413.86,45.301L415.01,45.254L416.16,45.256L417.3,45.245L418.45,45.23L419.6,45.235L420.74,45.25L421.89,45.241L423.04,45.254L424.18,45.233L425.33,45.22L426.48,45.237L427.62,45.222L428.77,45.241L429.92,45.239L431.06,45.245L432.21,45.211L433.36,45.235L434.5,45.211L435.65,45.19L436.8,45.239L437.94,45.218L439.09,45.224L440.24,45.226L441.38,45.188L442.53,45.22L443.68,45.207L444.82,45.203L445.97,45.188L447.11,45.192L448.26,45.186L449.41,45.181L450.55,45.188L451.7,45.194L452.85,45.207L453.99,45.188L455.14,45.196L456.29,45.168L457.43,45.175L458.58,45.188L459.73,45.183L460.87,45.186L462.02,45.171L463.17,45.168L464.31,45.177L465.46,45.173L466.61,45.171L467.75,45.164L468.9,45.162L470.05,45.175L471.19,45.164L472.34,45.166L473.49,45.171L474.63,45.177L475.78,45.168L476.93,45.162L478.07,45.173L479.22,45.173L480.37,45.175L481.51,45.156L482.66,45.162L483.81,45.162L484.95,45.173L486.1,45.158L487.24,45.166L488.39,45.16L489.54,45.162L490.68,45.162L491.83,45.16L492.98,45.158L494.12,45.156L495.27,45.16L496.42,45.16L497.56,45.175L498.71,45.16L499.86,45.162L501,45.156L502.15,45.164L503.3,45.154L504.44,45.154L505.59,45.16L506.74,45.162L507.88,45.154L509.03,45.16L510.18,45.16L511.32,45.16L512.47,45.154L513.62,45.158L514.76,45.158L515.91,45.164L517.06,45.158L518.2,45.154L519.35,45.151L520.5,45.151L522.79,45.156L523.94,45.151L525.08,45.154L528.52,45.156L529.67,45.154L530.81,45.151L531.96,45.156L533.11,45.154L534.25,45.156L539.99,45.154L542.28,45.151L543.43,45.151L544.57,45.151L545.72,45.158L546.87,45.151L548.01,45.151L550.31,45.151L552.6,45.151L553.75,45.156L556.04,45.154L557.19,45.151L559.48,45.151L560.63,45.151L561.77,45.156L562.92,45.151L567.51,45.154L568.65,45.151L573.24,45.151L575.53,45.151L583.56,45.151L588.14,45.151L596.17,45.151L600.76,45.151L616.81,45.151L625.98,45.151L720,45.151" style="fill:none;stroke:#0000FF" />
</g>
</svg>
