<?xml version="1.0"?>
<!-- Generated by SVGo and Plotinum VG -->
<svg width="720pt" height="432pt" viewBox="0 0 720 432"
	xmlns="http://www.w3.org/2000/svg"
	xmlns:xlink="http://www.w3.org/1999/xlink">
<g transform="scale(1, -1) translate(0, -432)">
<path d="M0,0L720,0L720,432L0,432Z" style="fill:#FFFFFF" />
<text x="358.5" y="-420.45" transform="scale(1, -1)"
	style="font-family:Times;font-weight:normal;font-style:normal;font-size:12px"> </text>
<text x="385.56" y="-3.8613" transform="scale(1, -1)"
	style="font-family:Times;font-weight:normal;font-style:normal;font-size:12px">Costs</text>
<text x="69.055" y="-18.634" transform="scale(1, -1)"
	style="font-family:Times;font-weight:normal;font-style:normal;font-size:10px">0.00</text>
<text x="348.21" y="-18.634" transform="scale(1, -1)"
	style="font-family:Times;font-weight:normal;font-style:normal;font-size:10px">250.00</text>
<text x="632.37" y="-18.634" transform="scale(1, -1)"
	style="font-family:Times;font-weight:normal;font-style:normal;font-size:10px">500.00</text>
<path d="M77.805,28.263L77.805,36.263" style="fill:none;stroke:#000000;stroke-width:0.5" />
<path d="M361.96,28.263L361.96,36.263" style="fill:none;stroke:#000000;stroke-width:0.5" />
<path d="M646.12,28.263L646.12,36.263" style="fill:none;stroke:#000000;stroke-width:0.5" />
<path d="M134.64,32.263L134.64,36.263" style="fill:none;stroke:#000000;stroke-width:0.5" />
<path d="M191.47,32.263L191.47,36.263" style="fill:none;stroke:#000000;stroke-width:0.5" />
<path d="M248.3,32.263L248.3,36.263" style="fill:none;stroke:#000000;stroke-width:0.5" />
<path d="M305.13,32.263L305.13,36.263" style="fill:none;stroke:#000000;stroke-width:0.5" />
<path d="M418.79,32.263L418.79,36.263" style="fill:none;stroke:#000000;stroke-width:0.5" />
<path d="M475.62,32.263L475.62,36.263" style="fill:none;stroke:#000000;stroke-width:0.5" />
<path d="M532.46,32.263L532.46,36.263" style="fill:none;stroke:#000000;stroke-width:0.5" />
<path d="M589.29,32.263L589.29,36.263" style="fill:none;stroke:#000000;stroke-width:0.5" />
<path d="M702.95,32.263L702.95,36.263" style="fill:none;stroke:#000000;stroke-width:0.5" />
<path d="M77.805,36.263L720,36.263" style="fill:none;stroke:#000000;stroke-width:0.5" />
<g transform="rotate(90)">
<text x="152.55" y="11.555" transform="scale(1, -1)"
	style="font-family:Times;font-weight:normal;font-style:normal;font-size:12px">Number of trials (1000000 total)</text>
</g>
<text x="24.055" y="-110.9" transform="scale(1, -1)"
	style="font-family:Times;font-weight:normal;font-style:normal;font-size:10px">25000.00</text>
<text x="24.055" y="-248.82" transform="scale(1, -1)"
	style="font-family:Times;font-weight:normal;font-style:normal;font-size:10px">75000.00</text>
<text x="19.055" y="-386.74" transform="scale(1, -1)"
	style="font-family:Times;font-weight:normal;font-style:normal;font-size:10px">125000.00</text>
<path d="M64.055,114.11L72.055,114.11" style="fill:none;stroke:#000000;stroke-width:0.5" />
<path d="M64.055,252.02L72.055,252.02" style="fill:none;stroke:#000000;stroke-width:0.5" />
<path d="M64.055,389.94L72.055,389.94" style="fill:none;stroke:#000000;stroke-width:0.5" />
<path d="M68.055,58.94L72.055,58.94" style="fill:none;stroke:#000000;stroke-width:0.5" />
<path d="M68.055,86.524L72.055,86.524" style="fill:none;stroke:#000000;stroke-width:0.5" />
<path d="M68.055,141.69L72.055,141.69" style="fill:none;stroke:#000000;stroke-width:0.5" />
<path d="M68.055,169.27L72.055,169.27" style="fill:none;stroke:#000000;stroke-width:0.5" />
<path d="M68.055,196.86L72.055,196.86" style="fill:none;stroke:#000000;stroke-width:0.5" />
<path d="M68.055,224.44L72.055,224.44" style="fill:none;stroke:#000000;stroke-width:0.5" />
<path d="M68.055,279.61L72.055,279.61" style="fill:none;stroke:#000000;stroke-width:0.5" />
<path d="M68.055,307.19L72.055,307.19" style="fill:none;stroke:#000000;stroke-width:0.5" />
<path d="M68.055,334.77L72.055,334.77" style="fill:none;stroke:#000000;stroke-width:0.5" />
<path d="M68.055,362.36L72.055,362.36" style="fill:none;stroke:#000000;stroke-width:0.5" />
<path d="M72.055,45.151L72.055,416.58" style="fill:none;stroke:#000000;stroke-width:0.5" />
<path d="M77.805,416.58L103.95,51.722L105.08,55.349L107.36,48.439L108.49,76.42L109.63,79.876L113.04,76.881L114.18,51.904L115.31,55.639L116.45,90.344L117.59,65.756L118.72,59.144L119.86,59.296L121,66.78L122.13,62.09L123.27,55.142L124.41,80.836L125.54,80.033L126.68,91.089L127.82,73.195L128.95,51.857L130.09,65.908L131.23,45.353L132.36,55.297L133.5,69.226L134.64,70.156L135.77,60.849L136.91,46.106L138.05,80.861L139.18,75.256L140.32,49.09L141.46,78.434L142.59,63.516L143.73,63.649L144.87,67.764L146,51.129L147.14,72.211L148.28,56.331L149.41,53.076L150.55,49.769L151.69,54.036L152.82,53.037L153.96,70.536L155.1,54.521L156.23,57.363L157.37,57.456L158.51,59.569L159.64,56.196L160.78,66.768L161.92,66.992L163.05,57.123L164.19,58.728L165.33,63.817L166.46,59.415L167.6,56.822L168.73,75.526L169.87,65.522L171.01,59.224L172.14,60.248L173.28,65.742L174.42,63.916L175.55,59.073L176.69,65.213L177.83,61.575L178.96,60.394L180.1,61.428L181.24,61.679L182.37,63.116L183.51,60.565L184.65,62.079L185.78,63.789L186.92,60.673L188.06,61.9L189.19,60.317L190.33,61.624L191.47,61.599L192.6,60.551L193.74,61.398L194.88,58.535L196.01,60.165L197.15,58.838L198.29,56.436L199.42,60.841L200.56,59.224L201.7,58.587L202.83,59.966L203.97,59.453L205.11,58.193L206.24,56.918L207.38,58.411L208.52,59.68L209.65,57.867L210.79,58.75L211.93,57.056L213.06,55.953L214.2,57.324L215.34,57.095L216.47,57.114L217.61,58.706L218.75,57.316L219.88,55.611L221.02,56.965L222.16,56.662L223.29,56.347L224.43,56.427L225.57,57.465L226.7,56.301L227.84,55.636L228.98,56.758L230.11,56.965L231.25,55.84L232.39,56.276L233.52,56.157L234.66,55.721L235.8,55.258L236.93,55.203L238.07,56.138L239.21,54.734L240.34,54.301L241.48,54.748L242.62,54.566L243.75,54.097L244.89,54.971L246.03,54.215L247.16,53.744L248.3,54.022L249.44,54L250.57,53.493L251.71,53.633L252.85,53.945L253.98,53.551L255.12,53.308L256.26,53.297L257.39,53.051L258.53,52.389L259.67,52.585L260.8,52.535L261.94,52.089L263.08,52.345L264.21,52.384L265.35,52.279L266.49,52.031L267.62,51.937L268.76,51.92L269.89,51.702L271.03,51.344L272.17,51.465L273.3,51.46L274.44,51.258L275.58,51.181L276.71,51.211L277.85,51.01L278.99,50.723L280.12,50.883L281.26,50.707L282.4,50.577L283.53,50.566L284.67,50.34L285.81,50.436L286.94,50.034L288.08,50.042L289.22,49.777L290.35,49.918L291.49,49.956L292.63,49.78L293.76,49.852L294.9,49.623L296.04,49.678L297.17,49.314L298.31,49.441L299.45,49.176L300.58,49.3L301.72,49.419L302.86,48.966L303.99,48.903L305.13,48.897L306.27,49.027L307.4,48.966L308.54,48.613L309.68,48.831L310.81,48.406L311.95,48.619L313.09,48.715L314.22,48.586L315.36,48.307L316.5,48.227L317.63,48.249L318.77,48.299L319.91,48.048L321.04,47.918L322.18,48.028L323.32,47.99L324.45,47.689L325.59,47.722L326.73,47.684L327.86,47.786L329,47.606L330.14,47.513L331.27,47.427L332.41,47.493L333.55,47.402L334.68,47.295L335.82,47.297L336.96,47.353L338.09,47.388L339.23,47.085L340.37,47.333L341.5,47.204L342.64,47.052L343.78,46.933L344.91,47.035L346.05,46.991L347.19,46.878L348.32,46.834L349.46,46.842L350.6,46.831L351.73,46.801L352.87,46.641L354.01,46.666L355.14,46.682L356.28,46.644L357.42,46.497L358.55,46.475L359.69,46.495L360.83,46.462L361.96,46.506L363.1,46.384L364.24,46.313L365.37,46.351L366.51,46.321L367.65,46.371L368.78,46.23L369.92,46.186L371.05,46.246L372.19,46.172L373.33,46.147L374.46,46.166L375.6,46.053L376.74,46.086L377.87,46.131L379.01,46.117L380.15,45.971L381.28,46.084L382.42,45.987L383.56,45.987L384.69,45.962L385.83,45.987L386.97,45.88L388.1,45.949L389.24,45.904L390.38,45.949L391.51,45.83L392.65,45.904L393.79,45.802L394.92,45.7L396.06,45.75L397.2,45.728L398.33,45.667L399.47,45.747L400.61,45.717L401.74,45.626L402.88,45.686L404.02,45.656L405.15,45.659L406.29,45.656L407.43,45.662L408.56,45.664L409.7,45.593L410.84,45.64L411.97,45.538L413.11,45.601L414.25,45.529L415.38,45.565L416.52,45.529L417.66,45.538L418.79,45.477L419.93,45.482L421.07,45.485L422.2,45.455L423.34,45.452L424.48,45.477L425.61,45.444L426.75,45.411L427.89,45.444L429.02,45.499L430.16,45.427L431.3,45.347L432.43,45.455L433.57,45.413L434.71,45.427L435.84,45.422L436.98,45.408L438.12,45.369L439.25,45.383L440.39,45.389L441.53,45.361L442.66,45.378L443.8,45.325L444.94,45.342L446.07,45.331L447.21,45.328L448.35,45.309L449.48,45.322L450.62,45.275L451.76,45.295L452.89,45.328L454.03,45.32L455.17,45.284L456.3,45.317L457.44,45.275L458.58,45.281L459.71,45.275L460.85,45.275L461.99,45.3L463.12,45.259L464.26,45.298L465.4,45.231L466.53,45.251L467.67,45.253L468.81,45.275L469.94,45.234L471.08,45.27L472.21,45.253L473.35,45.262L474.49,45.234L475.62,45.24L476.76,45.237L477.9,45.231L479.03,45.22L480.17,45.231L481.31,45.234L482.44,45.22L483.58,45.207L484.72,45.184L485.85,45.204L486.99,45.245L488.13,45.198L489.26,45.187L490.4,45.215L491.54,45.201L492.67,45.226L493.81,45.184L494.95,45.193L496.08,45.196L497.22,45.204L498.36,45.198L499.49,45.198L500.63,45.171L501.77,45.209L502.9,45.187L504.04,45.22L505.18,45.204L506.31,45.184L507.45,45.162L508.59,45.16L509.72,45.193L510.86,45.193L512,45.179L513.13,45.184L514.27,45.162L515.41,45.193L516.54,45.182L517.68,45.173L518.82,45.171L519.95,45.184L521.09,45.171L522.23,45.165L523.36,45.165L524.5,45.173L525.64,45.16L526.77,45.173L527.91,45.179L529.05,45.165L530.18,45.151L531.32,45.179L532.46,45.154L533.59,45.165L534.73,45.179L535.87,45.176L537,45.168L538.14,45.162L539.28,45.165L540.41,45.165L541.55,45.162L542.69,45.162L543.82,45.151L544.96,45.165L546.1,45.157L547.23,45.157L548.37,45.162L549.51,45.165L550.64,45.157L551.78,45.162L552.92,45.16L554.05,45.162L555.19,45.157L556.33,45.16L557.46,45.154L558.6,45.154L559.74,45.157L560.87,45.168L562.01,45.151L563.15,45.16L564.28,45.157L565.42,45.157L566.56,45.154L567.69,45.151L568.83,45.151L569.96,45.157L571.1,45.157L572.24,45.151L573.37,45.16L574.51,45.162L575.65,45.154L576.78,45.151L577.92,45.154L579.06,45.154L581.33,45.154L583.6,45.154L584.74,45.154L587.01,45.151L588.15,45.151L589.29,45.151L592.7,45.151L593.83,45.154L594.97,45.157L596.11,45.157L597.24,45.151L599.52,45.151L600.65,45.151L604.06,45.151L607.47,45.154L609.75,45.151L613.16,45.151L614.29,45.151L615.43,45.157L618.84,45.151L621.11,45.151L624.52,45.151L627.93,45.151L630.21,45.151L635.89,45.151L637.03,45.151L648.39,45.151L654.08,45.154L663.17,45.151L672.26,45.151L683.63,45.151L720,45.151" style="fill:none;stroke:#0000FF" />
</g>
</svg>
