<?xml version="1.0"?>
<!-- Generated by SVGo and Plotinum VG -->
<svg width="720pt" height="432pt" viewBox="0 0 720 432"
	xmlns="http://www.w3.org/2000/svg"
	xmlns:xlink="http://www.w3.org/1999/xlink">
<g transform="scale(1, -1) translate(0, -432)">
<path d="M0,0L720,0L720,432L0,432Z" style="fill:#FFFFFF" />
<text x="358.5" y="-420.45" transform="scale(1, -1)"
	style="font-family:Times;font-weight:normal;font-style:normal;font-size:12px"> </text>
<text x="385.56" y="-3.8613" transform="scale(1, -1)"
	style="font-family:Times;font-weight:normal;font-style:normal;font-size:12px">Costs</text>
<text x="75.305" y="-18.634" transform="scale(1, -1)"
	style="font-family:Times;font-weight:normal;font-style:normal;font-size:10px">0</text>
<text x="348.91" y="-18.634" transform="scale(1, -1)"
	style="font-family:Times;font-weight:normal;font-style:normal;font-size:10px">200</text>
<text x="627.52" y="-18.634" transform="scale(1, -1)"
	style="font-family:Times;font-weight:normal;font-style:normal;font-size:10px">400</text>
<path d="M77.805,28.263L77.805,36.263" style="fill:none;stroke:#000000;stroke-width:0.5" />
<path d="M356.41,28.263L356.41,36.263" style="fill:none;stroke:#000000;stroke-width:0.5" />
<path d="M635.02,28.263L635.02,36.263" style="fill:none;stroke:#000000;stroke-width:0.5" />
<path d="M217.11,32.263L217.11,36.263" style="fill:none;stroke:#000000;stroke-width:0.5" />
<path d="M495.72,32.263L495.72,36.263" style="fill:none;stroke:#000000;stroke-width:0.5" />
<path d="M77.805,36.263L720,36.263" style="fill:none;stroke:#000000;stroke-width:0.5" />
<g transform="rotate(90)">
<text x="152.55" y="11.555" transform="scale(1, -1)"
	style="font-family:Times;font-weight:normal;font-style:normal;font-size:12px">Number of trials (1000000 total)</text>
</g>
<text x="24.055" y="-81.907" transform="scale(1, -1)"
	style="font-family:Times;font-weight:normal;font-style:normal;font-size:10px">25000.00</text>
<text x="19.055" y="-241.76" transform="scale(1, -1)"
	style="font-family:Times;font-weight:normal;font-style:normal;font-size:10px">125000.00</text>
<text x="19.055" y="-401.61" transform="scale(1, -1)"
	style="font-family:Times;font-weight:normal;font-style:normal;font-size:10px">225000.00</text>
<path d="M64.055,85.112L72.055,85.112" style="fill:none;stroke:#000000;stroke-width:0.5" />
<path d="M64.055,244.96L72.055,244.96" style="fill:none;stroke:#000000;stroke-width:0.5" />
<path d="M64.055,404.81L72.055,404.81" style="fill:none;stroke:#000000;stroke-width:0.5" />
<path d="M68.055,165.04L72.055,165.04" style="fill:none;stroke:#000000;stroke-width:0.5" />
<path d="M68.055,324.89L72.055,324.89" style="fill:none;stroke:#000000;stroke-width:0.5" />
<path d="M72.055,45.151L72.055,416.58" style="fill:none;stroke:#000000;stroke-width:0.5" />
<path d="M77.805,416.58L108.45,48.671L109.84,48.542L114.02,58.795L115.42,58.761L116.81,48.508L119.6,55.466L120.99,52.461L122.38,48.537L123.78,69.586L125.17,69.521L126.56,76.99L129.35,59.376L130.74,76.968L132.13,51.993L133.53,70.219L134.92,80.579L136.31,98.161L137.71,55.623L139.1,69.612L140.49,52.325L144.67,45.271L146.06,52.96L147.46,48.63L148.85,59.498L150.24,45.364L151.64,84.649L153.03,56.02L154.42,56.418L155.82,53.36L157.21,64.426L158.6,45.941L159.99,60.742L161.39,47.383L162.78,62.3L164.17,72.011L165.57,47.199L166.96,48.806L168.35,48.965L169.75,48.366L171.14,49.849L172.53,52.276L173.93,50.879L175.32,49.947L176.71,54.718L178.1,52.017L179.5,55.182L180.89,64.858L182.28,55.687L183.68,54.725L185.07,61.685L186.46,52.372L187.86,55.068L189.25,54.161L190.64,66.308L192.03,53.575L193.43,55.23L194.82,54.368L196.21,52.262L197.61,54.883L199,52.329L200.39,53.224L201.79,51.21L203.18,51.306L204.57,53.85L205.97,52.722L207.36,53.735L208.75,54.838L210.14,58.288L211.54,53.884L212.93,55.748L214.32,51.373L215.72,52.934L217.11,52.153L218.5,51.473L219.9,50.965L221.29,52.795L222.68,53.174L224.07,49.606L225.47,51.485L226.86,50.593L228.25,50.721L229.65,50.289L231.04,50.816L232.43,50.534L233.83,52.495L235.22,50.473L236.61,52.383L238.01,54.567L239.4,52.847L240.79,50.206L242.18,51.512L243.58,51.721L244.97,49.212L246.36,50.631L247.76,49.753L249.15,51.387L250.54,49.734L251.94,50.038L253.33,49.303L254.72,50.07L256.11,49.558L257.51,48.906L258.9,50.289L260.29,49.376L261.69,49.514L263.08,49.445L264.47,50.265L265.87,49.662L267.26,50.199L268.65,49.255L270.05,49.578L271.44,48.999L272.83,48.636L274.22,48.304L275.62,48.836L277.01,48.93L278.4,48.091L279.8,48.615L281.19,48.177L282.58,48.182L283.98,48.439L285.37,48.227L286.76,48.197L288.15,48.099L289.55,48.144L290.94,48.049L292.33,48.212L293.73,48.363L295.12,48.131L296.51,48.096L297.91,48.051L299.3,47.503L300.69,47.621L302.09,47.538L303.48,47.29L304.87,47.386L306.26,47.242L307.66,47.48L309.05,47.276L310.44,47.343L311.84,47.29L313.23,47.541L314.62,47.181L316.02,47.193L317.41,47.319L318.8,47.113L320.2,47.108L321.59,46.847L322.98,47.132L324.37,47.05L325.77,47.03L327.16,46.601L328.55,46.852L329.95,46.635L331.34,46.515L332.73,46.505L334.13,46.544L335.52,46.585L336.91,46.47L338.3,46.473L339.7,46.425L341.09,46.489L342.48,46.411L343.88,46.417L345.27,46.337L346.66,46.405L348.06,46.197L349.45,46.307L350.84,46.248L352.24,46.208L353.63,46.243L355.02,46.101L356.41,46.173L357.81,46.032L359.2,46.034L360.59,45.96L361.99,46.023L363.38,45.954L364.77,45.967L366.17,45.962L367.56,45.938L368.95,45.946L370.34,45.883L371.74,45.962L373.13,45.901L374.52,45.767L375.92,45.852L377.31,45.797L378.7,45.804L380.1,45.797L381.49,45.756L382.88,45.706L384.28,45.778L385.67,45.711L387.06,45.672L388.45,45.653L389.85,45.642L391.24,45.664L392.63,45.661L394.03,45.62L395.42,45.54L396.81,45.601L398.21,45.567L399.6,45.61L400.99,45.561L402.38,45.517L403.78,45.511L405.17,45.546L406.56,45.476L407.96,45.541L409.35,45.447L410.74,45.501L412.14,45.46L413.53,45.463L414.92,45.441L416.32,45.434L417.71,45.444L419.1,45.399L420.49,45.423L421.89,45.433L423.28,45.409L424.67,45.374L426.07,45.396L427.46,45.35L428.85,45.385L430.25,45.402L431.64,45.377L433.03,45.335L434.43,45.362L435.82,45.351L437.21,45.338L438.6,45.345L440,45.326L441.39,45.306L442.78,45.305L444.18,45.31L445.57,45.266L446.96,45.292L448.36,45.324L449.75,45.273L451.14,45.287L452.53,45.282L453.93,45.274L455.32,45.274L456.71,45.266L458.11,45.242L459.5,45.278L460.89,45.255L462.29,45.254L463.68,45.23L465.07,45.255L466.47,45.266L467.86,45.222L469.25,45.222L470.64,45.239L472.04,45.249L473.43,45.206L474.82,45.211L476.22,45.215L477.61,45.23L479,45.217L480.4,45.215L481.79,45.212L483.18,45.203L484.57,45.211L485.97,45.207L487.36,45.206L488.75,45.206L490.15,45.198L491.54,45.212L492.93,45.187L494.33,45.191L495.72,45.188L497.11,45.204L498.51,45.188L499.9,45.195L501.29,45.18L502.68,45.193L504.08,45.195L505.47,45.191L506.86,45.188L508.26,45.191L509.65,45.199L511.04,45.19L512.44,45.177L513.83,45.18L515.22,45.182L516.61,45.18L518.01,45.18L519.4,45.172L520.79,45.169L522.19,45.175L523.58,45.167L524.97,45.169L526.37,45.174L527.76,45.164L529.15,45.175L530.55,45.169L531.94,45.172L533.33,45.166L534.72,45.166L536.12,45.172L537.51,45.164L538.9,45.163L540.3,45.164L541.69,45.167L543.08,45.169L544.48,45.158L545.87,45.164L547.26,45.163L548.66,45.158L550.05,45.163L551.44,45.163L552.83,45.163L554.23,45.155L555.62,45.155L557.01,45.159L558.41,45.159L559.8,45.155L561.19,45.161L562.59,45.153L563.98,45.156L565.37,45.163L566.76,45.155L568.16,45.158L569.55,45.155L570.94,45.156L572.34,45.158L573.73,45.153L575.12,45.153L576.52,45.155L577.91,45.156L579.3,45.153L580.7,45.164L582.09,45.151L583.48,45.151L584.87,45.155L586.27,45.153L587.66,45.151L589.05,45.151L590.45,45.151L591.84,45.153L593.23,45.158L596.02,45.153L597.41,45.156L602.98,45.151L604.38,45.151L605.77,45.153L607.16,45.153L609.95,45.151L612.74,45.153L614.13,45.155L615.52,45.155L616.91,45.151L621.09,45.153L623.88,45.153L625.27,45.156L626.67,45.151L629.45,45.155L630.84,45.151L633.63,45.151L635.02,45.151L636.42,45.151L637.81,45.151L647.56,45.151L648.95,45.153L651.74,45.151L654.53,45.151L658.71,45.151L669.85,45.151L674.03,45.151L678.21,45.151L682.39,45.151L683.78,45.151L720,45.151" style="fill:none;stroke:#0000FF" />
</g>
</svg>
