<?xml version="1.0"?>
<!-- Generated by SVGo and Plotinum VG -->
<svg width="720pt" height="432pt" viewBox="0 0 720 432"
	xmlns="http://www.w3.org/2000/svg"
	xmlns:xlink="http://www.w3.org/1999/xlink">
<g transform="scale(1, -1) translate(0, -432)">
<path d="M0,0L720,0L720,432L0,432Z" style="fill:#FFFFFF" />
<text x="358.5" y="-420.45" transform="scale(1, -1)"
	style="font-family:Times;font-weight:normal;font-style:normal;font-size:12px"> </text>
<text x="385.56" y="-3.8613" transform="scale(1, -1)"
	style="font-family:Times;font-weight:normal;font-style:normal;font-size:12px">Costs</text>
<text x="75.305" y="-18.634" transform="scale(1, -1)"
	style="font-family:Times;font-weight:normal;font-style:normal;font-size:10px">0</text>
<text x="340.13" y="-18.634" transform="scale(1, -1)"
	style="font-family:Times;font-weight:normal;font-style:normal;font-size:10px">200</text>
<text x="609.96" y="-18.634" transform="scale(1, -1)"
	style="font-family:Times;font-weight:normal;font-style:normal;font-size:10px">400</text>
<path d="M77.805,28.263L77.805,36.263" style="fill:none;stroke:#000000;stroke-width:0.5" />
<path d="M347.63,28.263L347.63,36.263" style="fill:none;stroke:#000000;stroke-width:0.5" />
<path d="M617.46,28.263L617.46,36.263" style="fill:none;stroke:#000000;stroke-width:0.5" />
<path d="M212.72,32.263L212.72,36.263" style="fill:none;stroke:#000000;stroke-width:0.5" />
<path d="M482.55,32.263L482.55,36.263" style="fill:none;stroke:#000000;stroke-width:0.5" />
<path d="M77.805,36.263L720,36.263" style="fill:none;stroke:#000000;stroke-width:0.5" />
<g transform="rotate(90)">
<text x="152.55" y="11.555" transform="scale(1, -1)"
	style="font-family:Times;font-weight:normal;font-style:normal;font-size:12px">Number of trials (1000000 total)</text>
</g>
<text x="24.055" y="-79.45" transform="scale(1, -1)"
	style="font-family:Times;font-weight:normal;font-style:normal;font-size:10px">25000.00</text>
<text x="19.055" y="-229.47" transform="scale(1, -1)"
	style="font-family:Times;font-weight:normal;font-style:normal;font-size:10px">125000.00</text>
<text x="19.055" y="-379.5" transform="scale(1, -1)"
	style="font-family:Times;font-weight:normal;font-style:normal;font-size:10px">225000.00</text>
<path d="M64.055,82.656L72.055,82.656" style="fill:none;stroke:#000000;stroke-width:0.5" />
<path d="M64.055,232.68L72.055,232.68" style="fill:none;stroke:#000000;stroke-width:0.5" />
<path d="M64.055,382.7L72.055,382.7" style="fill:none;stroke:#000000;stroke-width:0.5" />
<path d="M68.055,157.67L72.055,157.67" style="fill:none;stroke:#000000;stroke-width:0.5" />
<path d="M68.055,307.69L72.055,307.69" style="fill:none;stroke:#000000;stroke-width:0.5" />
<path d="M72.055,45.151L72.055,416.58" style="fill:none;stroke:#000000;stroke-width:0.5" />
<path d="M77.805,416.58L107.49,63.688L112.88,55.478L114.23,77.085L115.58,48.561L116.93,55.796L118.28,59.036L119.63,51.976L120.98,69.373L123.68,73.317L125.02,66.612L127.72,66.959L129.07,52.045L130.42,48.576L131.77,55.916L133.12,66.189L134.47,80.665L135.82,51.838L137.17,55.554L138.52,63.316L139.87,52.094L142.56,45.666L143.91,53.448L145.26,48.725L146.61,56.328L147.96,45.775L149.31,107.95L150.66,47.162L152.01,56.493L153.36,69.172L154.71,51.008L156.06,53.616L157.4,62.07L158.75,46.77L160.1,63.288L161.45,84.461L162.8,48.278L164.15,50.893L165.5,47.688L166.85,49.08L168.2,49.769L169.55,49.762L170.9,52.237L172.25,47.909L173.59,61.199L174.94,51.347L176.29,53.088L177.64,53.163L178.99,52.462L180.34,51.211L181.69,61.43L183.04,50.561L184.39,52.177L185.74,54.189L187.09,53.323L188.43,51.1L189.78,54.799L191.13,51.551L192.48,54.247L193.83,51.292L195.18,54.978L196.53,55.38L197.88,51.473L199.23,53.511L200.58,52.458L201.93,50.152L203.28,53.805L204.62,53.871L205.97,54.372L207.32,53.493L208.67,52.488L210.02,53.736L211.37,52.121L212.72,50.026L214.07,50.683L215.42,50.761L216.77,52.506L218.12,53.85L219.47,49.42L220.81,52.992L222.16,50.33L223.51,50.78L224.86,52.072L226.21,48.681L227.56,51.071L228.91,51.566L230.26,49.847L231.61,51.238L232.96,54.97L234.31,48.86L235.66,50.507L237,50.938L238.35,49.334L239.7,49.375L241.05,49.484L242.4,49.1L243.75,49.496L245.1,50.312L246.45,48.204L247.8,49.12L249.15,49.126L250.5,48.48L251.85,48.446L253.19,50.572L254.54,48.228L255.89,48.908L257.24,49.991L258.59,48.594L259.94,48.515L261.29,49.097L262.64,48.036L263.99,48.594L265.34,48.972L266.69,48.111L268.03,48.168L269.38,48.042L270.73,48.297L272.08,48.06L273.43,47.961L274.78,48.015L276.13,47.979L277.48,48.02L278.83,48.057L280.18,47.85L281.53,47.721L282.88,47.825L284.22,47.553L285.57,47.547L286.92,47.375L288.27,47.559L289.62,47.759L290.97,47.354L292.32,47.31L293.67,47.501L295.02,47.021L296.37,47.169L297.72,46.959L299.07,47.117L300.41,47.135L301.76,46.967L303.11,46.967L304.46,47.016L305.81,46.653L307.16,46.98L308.51,46.896L309.86,46.617L311.21,46.742L312.56,46.719L313.91,46.55L315.26,46.691L316.6,46.541L317.95,46.413L319.3,46.472L320.65,46.499L322,46.29L323.35,46.31L324.7,46.286L326.05,46.157L327.4,46.298L328.75,46.334L330.1,46.142L331.44,46.31L332.79,46.25L334.14,46.133L335.49,46.133L336.84,46.212L338.19,45.99L339.54,46.097L340.89,46.022L342.24,45.975L343.59,46.002L344.94,45.96L346.29,45.94L347.63,45.931L348.98,45.96L350.33,45.859L351.68,45.871L353.03,45.799L354.38,45.814L355.73,45.772L357.08,45.784L358.43,45.778L359.78,45.726L361.13,45.748L362.48,45.706L363.82,45.681L365.17,45.687L366.52,45.642L367.87,45.648L369.22,45.585L370.57,45.624L371.92,45.61L373.27,45.571L374.62,45.627L375.97,45.577L377.32,45.561L378.67,45.532L380.01,45.552L381.36,45.484L382.71,45.501L384.06,45.513L385.41,45.532L386.76,45.498L388.11,45.489L389.46,45.453L390.81,45.49L392.16,45.439L393.51,45.366L394.85,45.445L396.2,45.433L397.55,45.4L398.9,45.435L400.25,45.384L401.6,45.409L402.95,45.381L404.3,45.372L405.65,45.37L407,45.352L408.35,45.358L409.7,45.337L411.04,45.358L412.39,45.318L413.74,45.327L415.09,45.316L416.44,45.318L417.79,45.31L419.14,45.327L420.49,45.309L421.84,45.289L423.19,45.283L424.54,45.276L425.89,45.301L427.23,45.274L428.58,45.259L429.93,45.27L431.28,45.268L432.63,45.262L433.98,45.271L435.33,45.24L436.68,45.27L438.03,45.247L439.38,45.234L440.73,45.243L442.08,45.244L443.42,45.22L444.77,45.235L446.12,45.252L447.47,45.225L448.82,45.243L450.17,45.226L451.52,45.214L452.87,45.228L454.22,45.205L455.57,45.207L456.92,45.213L458.26,45.205L459.61,45.208L460.96,45.208L462.31,45.214L463.66,45.214L465.01,45.208L466.36,45.222L467.71,45.184L469.06,45.202L470.41,45.201L471.76,45.178L473.11,45.184L474.45,45.184L475.8,45.192L477.15,45.181L478.5,45.174L479.85,45.181L481.2,45.189L482.55,45.192L483.9,45.181L485.25,45.183L486.6,45.18L487.95,45.181L489.3,45.183L490.64,45.184L491.99,45.18L493.34,45.171L494.69,45.177L496.04,45.165L497.39,45.174L498.74,45.169L500.09,45.169L501.44,45.171L502.79,45.168L504.14,45.169L505.49,45.169L506.83,45.177L508.18,45.171L509.53,45.162L510.88,45.159L512.23,45.157L513.58,45.16L514.93,45.178L516.28,45.159L517.63,45.166L518.98,45.154L520.33,45.162L521.67,45.159L523.02,45.169L524.37,45.159L525.72,45.165L527.07,45.157L528.42,45.162L529.77,45.159L531.12,45.156L532.47,45.16L533.82,45.157L535.17,45.153L536.52,45.16L537.86,45.154L539.21,45.162L540.56,45.157L541.91,45.153L543.26,45.153L544.61,45.153L545.96,45.156L547.31,45.151L548.66,45.154L550.01,45.157L551.36,45.154L552.71,45.16L554.05,45.153L555.4,45.151L556.75,45.156L558.1,45.157L559.45,45.154L560.8,45.159L562.15,45.151L563.5,45.159L566.2,45.157L567.55,45.154L568.9,45.151L570.24,45.153L571.59,45.156L572.94,45.156L575.64,45.151L576.99,45.151L581.04,45.153L582.39,45.156L583.74,45.151L587.78,45.154L589.13,45.153L590.48,45.153L593.18,45.151L594.53,45.154L599.93,45.151L605.32,45.151L606.67,45.153L608.02,45.151L609.37,45.153L610.72,45.156L613.42,45.151L614.77,45.154L636.35,45.151L644.45,45.151L645.8,45.151L652.54,45.151L659.29,45.151L664.68,45.151L684.92,45.151L694.37,45.151L720,45.151" style="fill:none;stroke:#0000FF" />
</g>
</svg>
