<?xml version="1.0"?>
<!-- Generated by SVGo and Plotinum VG -->
<svg width="720pt" height="432pt" viewBox="0 0 720 432"
	xmlns="http://www.w3.org/2000/svg"
	xmlns:xlink="http://www.w3.org/1999/xlink">
<g transform="scale(1, -1) translate(0, -432)">
<path d="M0,0L720,0L720,432L0,432Z" style="fill:#FFFFFF" />
<text x="358.5" y="-420.45" transform="scale(1, -1)"
	style="font-family:Times;font-weight:normal;font-style:normal;font-size:12px"> </text>
<text x="376.81" y="-3.8613" transform="scale(1, -1)"
	style="font-family:Times;font-weight:normal;font-style:normal;font-size:12px">Costs</text>
<text x="51.555" y="-18.634" transform="scale(1, -1)"
	style="font-family:Times;font-weight:normal;font-style:normal;font-size:10px">0.00</text>
<text x="356.56" y="-18.634" transform="scale(1, -1)"
	style="font-family:Times;font-weight:normal;font-style:normal;font-size:10px">250.00</text>
<text x="666.57" y="-18.634" transform="scale(1, -1)"
	style="font-family:Times;font-weight:normal;font-style:normal;font-size:10px">500.00</text>
<path d="M60.305,28.263L60.305,36.263" style="fill:none;stroke:#000000;stroke-width:0.5" />
<path d="M370.31,28.263L370.31,36.263" style="fill:none;stroke:#000000;stroke-width:0.5" />
<path d="M680.32,28.263L680.32,36.263" style="fill:none;stroke:#000000;stroke-width:0.5" />
<path d="M122.31,32.263L122.31,36.263" style="fill:none;stroke:#000000;stroke-width:0.5" />
<path d="M184.31,32.263L184.31,36.263" style="fill:none;stroke:#000000;stroke-width:0.5" />
<path d="M246.31,32.263L246.31,36.263" style="fill:none;stroke:#000000;stroke-width:0.5" />
<path d="M308.31,32.263L308.31,36.263" style="fill:none;stroke:#000000;stroke-width:0.5" />
<path d="M432.31,32.263L432.31,36.263" style="fill:none;stroke:#000000;stroke-width:0.5" />
<path d="M494.31,32.263L494.31,36.263" style="fill:none;stroke:#000000;stroke-width:0.5" />
<path d="M556.32,32.263L556.32,36.263" style="fill:none;stroke:#000000;stroke-width:0.5" />
<path d="M618.32,32.263L618.32,36.263" style="fill:none;stroke:#000000;stroke-width:0.5" />
<path d="M60.305,36.263L720,36.263" style="fill:none;stroke:#000000;stroke-width:0.5" />
<g transform="rotate(90)">
<text x="152.55" y="11.555" transform="scale(1, -1)"
	style="font-family:Times;font-weight:normal;font-style:normal;font-size:12px">Number of trials (1000000 total)</text>
</g>
<text x="24.055" y="-68.904" transform="scale(1, -1)"
	style="font-family:Times;font-weight:normal;font-style:normal;font-size:10px">5000</text>
<text x="19.055" y="-176.76" transform="scale(1, -1)"
	style="font-family:Times;font-weight:normal;font-style:normal;font-size:10px">25000</text>
<text x="19.055" y="-284.61" transform="scale(1, -1)"
	style="font-family:Times;font-weight:normal;font-style:normal;font-size:10px">45000</text>
<text x="19.055" y="-392.47" transform="scale(1, -1)"
	style="font-family:Times;font-weight:normal;font-style:normal;font-size:10px">65000</text>
<path d="M46.555,72.109L54.555,72.109" style="fill:none;stroke:#000000;stroke-width:0.5" />
<path d="M46.555,179.96L54.555,179.96" style="fill:none;stroke:#000000;stroke-width:0.5" />
<path d="M46.555,287.82L54.555,287.82" style="fill:none;stroke:#000000;stroke-width:0.5" />
<path d="M46.555,395.67L54.555,395.67" style="fill:none;stroke:#000000;stroke-width:0.5" />
<path d="M50.555,126.04L54.555,126.04" style="fill:none;stroke:#000000;stroke-width:0.5" />
<path d="M50.555,233.89L54.555,233.89" style="fill:none;stroke:#000000;stroke-width:0.5" />
<path d="M50.555,341.74L54.555,341.74" style="fill:none;stroke:#000000;stroke-width:0.5" />
<path d="M54.555,45.151L54.555,416.58" style="fill:none;stroke:#000000;stroke-width:0.5" />
<path d="M60.305,416.58L87.585,77.853L88.825,78.861L92.545,63.265L93.785,59.237L95.025,48.84L96.266,51.838L98.746,97.326L101.23,80.63L102.47,134.04L103.71,88.465L107.43,48.824L108.67,134.69L109.91,62.953L111.15,136.02L112.39,87.915L113.63,81.493L114.87,123.78L116.11,48.274L117.35,80.306L119.83,46.737L121.07,97.687L122.31,46.963L123.55,115.73L124.79,45.696L126.03,50.781L127.27,53.424L128.51,48.527L129.75,69.92L130.99,69.974L132.23,100.68L133.47,95.196L134.71,52.054L135.95,73.846L137.19,77.75L138.43,60.558L139.67,62.494L140.91,69.683L142.15,65.956L143.39,66.264L144.63,65.261L145.87,63.352L147.11,65.746L148.35,59.884L149.59,74.164L150.83,93.61L152.07,79.368L153.31,87.387L154.55,72.784L155.79,85.85L157.03,80.047L158.27,66.091L159.51,89.938L160.75,87.22L161.99,84.06L163.23,92.699L164.47,78.991L165.71,101.87L166.95,68.901L168.19,68.696L169.43,72.045L170.67,65.169L171.91,96.258L173.15,67.542L174.39,90.838L175.63,88.266L176.87,64.242L178.11,81.498L179.35,64.144L180.59,78.333L181.83,73.199L183.07,73.323L184.31,91.065L185.55,72.174L186.79,79.692L188.03,75.83L189.27,70.13L190.51,70.653L191.75,69.143L192.99,76.1L194.23,76.219L195.47,71.867L196.71,72.368L197.95,68.405L199.19,72.924L200.43,69.683L201.67,74.897L202.91,75.874L204.15,76.704L205.39,78.43L206.63,73.091L207.87,74.865L209.11,75.194L210.35,74.029L211.59,74.347L212.83,73.565L214.07,79.859L215.31,72.859L216.55,74.196L217.79,71.009L219.03,69.71L220.27,71.969L221.51,68.421L222.75,75.043L223.99,74.746L225.23,71.592L226.47,77.486L227.71,69.731L228.95,73.361L230.19,67.952L231.43,68.664L232.67,73.83L233.91,67.332L235.15,72.347L236.39,69.791L237.63,69.823L238.87,70.454L240.11,65.784L241.35,68.588L242.59,66.107L243.83,67.989L245.07,67.833L246.31,66.215L247.55,69.898L248.79,66.312L250.03,65.681L251.27,66.976L252.51,64.748L253.75,66.393L254.99,64.285L256.23,67.833L257.47,65.347L258.71,63.513L259.95,66.102L261.19,63.616L262.43,64.959L263.67,63.94L264.91,64.57L266.15,65.25L267.39,63.001L268.63,63.869L269.87,61.82L271.11,62.829L272.35,63.066L273.59,62.057L274.83,63.524L276.07,61.707L277.31,62.953L278.55,61.777L279.79,61.977L281.03,61.906L282.27,60.521L283.51,61.081L284.75,60.876L285.99,61.13L287.23,60.456L288.47,59.491L289.71,60.413L290.95,58.671L292.19,58.698L293.43,58.061L294.67,57.954L295.91,59.016L297.15,58.245L298.39,58.644L299.63,58.412L300.87,57.285L302.11,57.635L303.35,56.643L304.59,57.517L305.83,56.913L307.07,56.271L308.31,56.535L309.55,56.357L310.79,56.174L312.03,55.495L313.27,55.516L314.51,56.185L315.75,55.414L316.99,55.333L318.23,54.896L319.47,55.43L320.71,54.842L321.95,54.378L323.19,54.324L324.43,53.834L325.67,54.675L326.91,54.4L328.15,54.098L329.39,54.2L330.63,53.445L331.87,53.656L333.11,53.046L334.35,53.149L335.59,53.478L336.83,52.906L338.07,52.852L339.31,52.938L340.55,52.324L341.79,52.173L343.03,51.644L344.27,51.854L345.51,51.747L346.75,51.801L347.99,51.633L349.23,51.774L350.47,51.871L351.71,51.083L352.95,51.407L354.19,51.008L355.43,51.067L356.67,51.202L357.91,50.42L359.15,50.668L360.39,50.296L361.63,50.512L362.87,50.231L364.11,50.183L365.35,50.048L366.59,49.525L367.83,49.924L369.07,49.681L370.31,49.757L371.55,49.595L372.79,49.487L374.03,49.39L375.27,49.331L376.51,49.131L377.75,49.212L378.99,49.034L380.23,49.029L381.47,48.705L382.71,48.705L383.95,48.862L385.19,48.592L386.43,48.738L387.67,48.436L388.91,48.36L390.15,48.344L391.39,48.101L392.63,48.09L393.87,48.306L395.11,47.654L396.35,48.026L397.59,47.864L398.83,48.063L400.07,47.691L401.31,47.724L402.55,47.459L403.79,47.557L405.03,47.508L406.27,47.481L407.51,47.476L408.75,47.492L409.99,47.443L411.23,47.373L412.47,47.217L413.71,47.19L414.95,47.174L416.19,46.985L417.43,47.104L418.67,47.017L419.91,46.915L421.15,46.704L422.39,46.909L423.63,46.764L424.87,46.634L426.11,46.634L427.35,46.586L428.59,46.812L429.83,46.489L431.07,46.602L432.31,46.478L433.55,46.44L434.79,46.408L436.03,46.553L437.27,46.424L438.51,46.278L439.75,46.332L440.99,46.198L442.23,46.392L443.47,46.429L444.71,46.235L445.95,46.23L447.19,46.144L448.43,46.09L449.67,45.976L450.91,46.138L452.15,46.138L453.39,46.176L454.63,46.165L455.87,45.901L457.11,45.993L458.35,46.025L459.59,45.944L460.83,45.971L462.07,45.879L463.31,45.825L464.55,45.82L465.79,45.734L467.03,45.75L468.27,45.777L469.51,45.772L470.75,45.68L471.99,45.696L473.23,45.75L474.47,45.621L475.71,45.723L476.95,45.739L478.19,45.707L479.43,45.68L480.67,45.642L481.91,45.664L483.15,45.621L484.39,45.637L485.63,45.529L486.87,45.588L488.11,45.572L489.35,45.513L490.59,45.604L491.83,45.523L493.07,45.577L494.31,45.561L495.55,45.448L496.79,45.48L498.03,45.432L499.27,45.486L500.51,45.502L501.75,45.372L502.99,45.48L504.23,45.443L505.48,45.437L506.72,45.41L507.96,45.399L509.2,45.421L510.44,45.405L511.68,45.453L512.92,45.335L514.16,45.335L515.4,45.394L516.64,45.351L517.88,45.367L519.12,45.356L520.36,45.324L521.6,45.302L522.84,45.372L524.08,45.329L525.32,45.297L526.56,45.319L527.8,45.313L529.04,45.265L530.28,45.329L531.52,45.297L532.76,45.281L534,45.259L535.24,45.302L536.48,45.281L537.72,45.27L538.96,45.265L540.2,45.254L541.44,45.275L542.68,45.238L543.92,45.254L545.16,45.238L546.4,45.27L547.64,45.216L548.88,45.259L550.12,45.243L551.36,45.216L552.6,45.265L553.84,45.254L555.08,45.189L556.32,45.254L557.56,45.195L558.8,45.232L560.04,45.211L561.28,45.211L562.52,45.227L563.76,45.216L565,45.189L566.24,45.189L567.48,45.195L568.72,45.205L569.96,45.2L571.2,45.2L572.44,45.2L573.68,45.178L574.92,45.211L576.16,45.189L577.4,45.178L578.64,45.2L579.88,45.189L581.12,45.178L582.36,45.195L583.6,45.189L584.84,45.195L586.08,45.178L587.32,45.2L588.56,45.178L589.8,45.173L591.04,45.178L592.28,45.151L593.52,45.162L594.76,45.189L596,45.205L597.24,45.151L598.48,45.184L599.72,45.168L600.96,45.162L602.2,45.168L603.44,45.168L604.68,45.157L605.92,45.184L607.16,45.178L608.4,45.173L609.64,45.162L610.88,45.189L612.12,45.162L613.36,45.162L614.6,45.157L615.84,45.151L617.08,45.151L618.32,45.173L619.56,45.157L620.8,45.151L622.04,45.173L623.28,45.162L624.52,45.157L625.76,45.162L627,45.173L628.24,45.162L629.48,45.173L630.72,45.157L634.44,45.168L635.68,45.168L636.92,45.151L638.16,45.157L640.64,45.151L641.88,45.162L643.12,45.151L644.36,45.151L645.6,45.151L646.84,45.157L649.32,45.168L653.04,45.151L655.52,45.151L656.76,45.162L658,45.157L659.24,45.151L664.2,45.151L667.92,45.157L669.16,45.151L670.4,45.151L674.12,45.151L676.6,45.151L677.84,45.151L679.08,45.151L685.28,45.151L692.72,45.151L693.96,45.157L695.2,45.151L703.88,45.151L716.28,45.151L720,45.151" style="fill:none;stroke:#0000FF" />
</g>
</svg>
