<?xml version="1.0"?>
<!-- Generated by SVGo and Plotinum VG -->
<svg width="720pt" height="432pt" viewBox="0 0 720 432"
	xmlns="http://www.w3.org/2000/svg"
	xmlns:xlink="http://www.w3.org/1999/xlink">
<g transform="scale(1, -1) translate(0, -432)">
<path d="M0,0L720,0L720,432L0,432Z" style="fill:#FFFFFF" />
<text x="358.5" y="-420.45" transform="scale(1, -1)"
	style="font-family:Times;font-weight:normal;font-style:normal;font-size:12px"> </text>
<text x="385.56" y="-3.8613" transform="scale(1, -1)"
	style="font-family:Times;font-weight:normal;font-style:normal;font-size:12px">Costs</text>
<text x="69.055" y="-18.634" transform="scale(1, -1)"
	style="font-family:Times;font-weight:normal;font-style:normal;font-size:10px">0.00</text>
<text x="345.23" y="-18.634" transform="scale(1, -1)"
	style="font-family:Times;font-weight:normal;font-style:normal;font-size:10px">250.00</text>
<text x="626.4" y="-18.634" transform="scale(1, -1)"
	style="font-family:Times;font-weight:normal;font-style:normal;font-size:10px">500.00</text>
<path d="M77.805,28.263L77.805,36.263" style="fill:none;stroke:#000000;stroke-width:0.5" />
<path d="M358.98,28.263L358.98,36.263" style="fill:none;stroke:#000000;stroke-width:0.5" />
<path d="M640.15,28.263L640.15,36.263" style="fill:none;stroke:#000000;stroke-width:0.5" />
<path d="M134.04,32.263L134.04,36.263" style="fill:none;stroke:#000000;stroke-width:0.5" />
<path d="M190.27,32.263L190.27,36.263" style="fill:none;stroke:#000000;stroke-width:0.5" />
<path d="M246.51,32.263L246.51,36.263" style="fill:none;stroke:#000000;stroke-width:0.5" />
<path d="M302.74,32.263L302.74,36.263" style="fill:none;stroke:#000000;stroke-width:0.5" />
<path d="M415.21,32.263L415.21,36.263" style="fill:none;stroke:#000000;stroke-width:0.5" />
<path d="M471.44,32.263L471.44,36.263" style="fill:none;stroke:#000000;stroke-width:0.5" />
<path d="M527.68,32.263L527.68,36.263" style="fill:none;stroke:#000000;stroke-width:0.5" />
<path d="M583.91,32.263L583.91,36.263" style="fill:none;stroke:#000000;stroke-width:0.5" />
<path d="M696.38,32.263L696.38,36.263" style="fill:none;stroke:#000000;stroke-width:0.5" />
<path d="M77.805,36.263L720,36.263" style="fill:none;stroke:#000000;stroke-width:0.5" />
<g transform="rotate(90)">
<text x="152.55" y="11.555" transform="scale(1, -1)"
	style="font-family:Times;font-weight:normal;font-style:normal;font-size:12px">Number of trials (1000000 total)</text>
</g>
<text x="24.055" y="-89.597" transform="scale(1, -1)"
	style="font-family:Times;font-weight:normal;font-style:normal;font-size:10px">25000.00</text>
<text x="19.055" y="-232.56" transform="scale(1, -1)"
	style="font-family:Times;font-weight:normal;font-style:normal;font-size:10px">100000.00</text>
<text x="19.055" y="-375.52" transform="scale(1, -1)"
	style="font-family:Times;font-weight:normal;font-style:normal;font-size:10px">175000.00</text>
<path d="M64.055,92.803L72.055,92.803" style="fill:none;stroke:#000000;stroke-width:0.5" />
<path d="M64.055,235.76L72.055,235.76" style="fill:none;stroke:#000000;stroke-width:0.5" />
<path d="M64.055,378.72L72.055,378.72" style="fill:none;stroke:#000000;stroke-width:0.5" />
<path d="M68.055,164.28L72.055,164.28" style="fill:none;stroke:#000000;stroke-width:0.5" />
<path d="M68.055,307.24L72.055,307.24" style="fill:none;stroke:#000000;stroke-width:0.5" />
<path d="M72.055,45.151L72.055,416.58" style="fill:none;stroke:#000000;stroke-width:0.5" />
<path d="M77.805,416.58L107.05,67.261L108.17,81.974L109.3,77.068L110.42,48.449L112.67,55.887L113.79,60.366L116.04,93.703L117.17,67.133L118.29,66.146L119.42,48.617L120.54,60.4L121.67,85.661L122.79,51.693L123.92,56.014L125.04,58.748L126.17,60.193L127.29,55.931L128.42,48.712L129.54,52.067L132.91,51.96L134.04,82.394L135.16,66.737L136.29,45.405L137.41,89.774L138.54,79.99L139.66,48.493L140.79,52.82L141.91,46.099L143.04,68.66L144.16,50.63L145.29,59.636L146.41,83.983L147.54,55.685L148.66,50.307L149.78,48.241L150.91,50.466L152.03,53.171L153.16,51.377L154.28,50.416L155.41,51.655L156.53,53.031L157.66,51.009L158.78,49.987L159.91,63.725L161.03,72.165L162.16,50.176L163.28,51.682L164.41,62.421L165.53,55.254L166.65,53.245L167.78,77.197L168.9,66.777L170.03,53.365L171.15,50.166L172.28,54.831L173.4,57.238L174.53,53.721L175.65,57.465L176.78,59.768L177.9,59.261L179.03,53.906L180.15,50.386L181.28,58.458L182.4,55.765L183.53,53.235L184.65,55.824L185.77,54.019L186.9,54.335L188.02,49.688L189.15,52.286L190.27,55.986L191.4,54.078L192.52,51.434L193.65,53.782L194.77,55.936L195.9,51.878L197.02,52.225L198.15,56.861L199.27,57.267L200.4,52.938L201.52,51.011L202.64,55.906L203.77,56.19L204.89,53.216L206.02,56.38L207.14,55.891L208.27,53.327L209.39,50.868L210.52,50.696L211.64,54.516L212.77,51.88L213.89,50.754L215.02,50.975L216.14,52.404L217.27,53.113L218.39,50.058L219.52,50.454L220.64,53.796L221.76,51.381L222.89,49.455L224.01,52.587L225.14,53.254L226.26,50.706L227.39,51.647L228.51,54.272L229.64,52.711L230.76,49.623L231.89,49.41L233.01,51.691L234.14,50.782L235.26,50.155L236.39,51.415L237.51,51.354L238.63,49.877L239.76,48.92L240.88,49.515L242.01,49.865L243.13,50.166L244.26,49.311L245.38,49.368L246.51,49.766L247.63,49.65L248.76,48.647L249.88,49.999L251.01,50.847L252.13,49.322L253.26,48.451L254.38,49.429L255.5,49.433L256.63,48.426L257.75,48.628L258.88,49.768L260,49.215L261.13,48.357L262.25,48.52L263.38,48.943L264.5,48.769L265.63,48.445L266.75,48.622L267.88,48.987L269,48.354L270.13,47.704L271.25,48.293L272.38,48.561L273.5,48.083L274.62,47.902L275.75,47.809L276.87,48.155L278,47.589L279.12,47.336L280.25,47.807L281.37,47.942L282.5,47.484L283.62,47.343L284.75,47.675L285.87,47.727L287,47.281L288.12,47.374L289.25,47.629L290.37,47.443L291.49,47.035L292.62,47.151L293.74,47.361L294.87,47.361L295.99,46.972L297.12,47.109L298.24,47.038L299.37,46.911L300.49,46.751L301.62,46.756L302.74,46.913L303.87,46.751L304.99,46.522L306.12,46.604L307.24,46.77L308.37,46.579L309.49,46.55L310.61,46.699L311.74,46.793L312.86,46.385L313.99,46.339L315.11,46.499L316.24,46.423L317.36,46.457L318.49,46.409L319.61,46.543L320.74,46.364L321.86,46.221L322.99,46.184L324.11,46.284L325.24,46.204L326.36,46.133L327.48,46.101L328.61,46.076L329.73,46.116L330.86,46.036L331.98,46.064L333.11,46.139L334.23,45.988L335.36,45.91L336.48,45.977L337.61,46.036L338.73,45.967L339.86,45.862L340.98,45.906L342.11,45.857L343.23,45.819L344.36,45.773L345.48,45.849L346.6,45.759L347.73,45.742L348.85,45.717L349.98,45.807L351.1,45.761L352.23,45.679L353.35,45.737L354.48,45.727L355.6,45.685L356.73,45.634L357.85,45.683L358.98,45.66L360.1,45.603L361.23,45.639L362.35,45.637L363.47,45.555L364.6,45.613L365.72,45.561L366.85,45.567L367.97,45.554L369.1,45.481L370.22,45.487L371.35,45.536L372.47,45.496L373.6,45.458L374.72,45.472L375.85,45.535L376.97,45.454L378.1,45.462L379.22,45.405L380.35,45.487L381.47,45.409L382.59,45.416L383.72,45.395L384.84,45.458L385.97,45.382L387.09,45.418L388.22,45.34L389.34,45.395L390.47,45.363L391.59,45.346L392.72,45.384L393.84,45.332L394.97,45.361L396.09,45.342L397.22,45.323L398.34,45.34L399.46,45.315L400.59,45.338L401.71,45.353L402.84,45.346L403.96,45.262L405.09,45.273L406.21,45.3L407.34,45.281L408.46,45.262L409.59,45.281L410.71,45.285L411.84,45.26L412.96,45.252L414.09,45.237L415.21,45.289L416.33,45.285L417.46,45.26L418.58,45.262L419.71,45.273L420.83,45.247L421.96,45.241L423.08,45.22L424.21,45.256L425.33,45.224L426.46,45.224L427.58,45.237L428.71,45.195L429.83,45.231L430.96,45.237L432.08,45.222L433.21,45.216L434.33,45.205L435.45,45.218L436.58,45.205L437.7,45.218L438.83,45.209L439.95,45.216L441.08,45.199L442.2,45.207L443.33,45.197L444.45,45.214L445.58,45.188L446.7,45.207L447.83,45.197L448.95,45.197L450.08,45.195L451.2,45.195L452.32,45.188L453.45,45.197L454.57,45.172L455.7,45.178L456.82,45.172L457.95,45.186L459.07,45.178L460.2,45.182L461.32,45.178L462.45,45.178L463.57,45.17L464.7,45.163L465.82,45.182L466.95,45.182L468.07,45.172L469.2,45.169L470.32,45.165L471.44,45.161L472.57,45.182L473.69,45.176L474.82,45.17L475.94,45.17L477.07,45.167L478.19,45.163L479.32,45.169L480.44,45.157L481.57,45.167L482.69,45.174L483.82,45.163L484.94,45.169L486.07,45.165L487.19,45.172L488.31,45.167L489.44,45.155L490.56,45.159L491.69,45.165L492.81,45.159L493.94,45.169L495.06,45.163L496.19,45.155L497.31,45.161L498.44,45.159L499.56,45.153L500.69,45.153L501.81,45.159L502.94,45.155L504.06,45.153L505.19,45.161L506.31,45.151L507.43,45.157L508.56,45.155L509.68,45.155L510.81,45.161L513.06,45.157L514.18,45.155L515.31,45.151L516.43,45.155L517.56,45.161L518.68,45.151L519.81,45.153L520.93,45.153L522.06,45.153L523.18,45.157L524.3,45.159L525.43,45.159L527.68,45.153L528.8,45.155L529.93,45.155L531.05,45.151L532.18,45.151L533.3,45.153L534.43,45.151L536.68,45.151L537.8,45.151L538.93,45.151L540.05,45.155L542.3,45.153L543.42,45.153L544.55,45.151L545.67,45.153L547.92,45.155L549.05,45.151L550.17,45.153L552.42,45.153L554.67,45.153L560.29,45.153L562.54,45.151L564.79,45.151L565.92,45.151L569.29,45.151L574.92,45.151L576.04,45.153L577.16,45.153L579.41,45.151L583.91,45.151L585.04,45.151L596.28,45.151L619.9,45.151L632.27,45.151L720,45.151" style="fill:none;stroke:#0000FF" />
</g>
</svg>
