<?xml version="1.0"?>
<!-- Generated by SVGo and Plotinum VG -->
<svg width="720pt" height="432pt" viewBox="0 0 720 432"
	xmlns="http://www.w3.org/2000/svg"
	xmlns:xlink="http://www.w3.org/1999/xlink">
<g transform="scale(1, -1) translate(0, -432)">
<path d="M0,0L720,0L720,432L0,432Z" style="fill:#FFFFFF" />
<text x="358.5" y="-420.45" transform="scale(1, -1)"
	style="font-family:Times;font-weight:normal;font-style:normal;font-size:12px"> </text>
<text x="385.56" y="-3.8613" transform="scale(1, -1)"
	style="font-family:Times;font-weight:normal;font-style:normal;font-size:12px">Costs</text>
<text x="75.305" y="-18.634" transform="scale(1, -1)"
	style="font-family:Times;font-weight:normal;font-style:normal;font-size:10px">0</text>
<text x="332.96" y="-18.634" transform="scale(1, -1)"
	style="font-family:Times;font-weight:normal;font-style:normal;font-size:10px">200</text>
<text x="595.62" y="-18.634" transform="scale(1, -1)"
	style="font-family:Times;font-weight:normal;font-style:normal;font-size:10px">400</text>
<path d="M77.805,28.263L77.805,36.263" style="fill:none;stroke:#000000;stroke-width:0.5" />
<path d="M340.46,28.263L340.46,36.263" style="fill:none;stroke:#000000;stroke-width:0.5" />
<path d="M603.12,28.263L603.12,36.263" style="fill:none;stroke:#000000;stroke-width:0.5" />
<path d="M209.13,32.263L209.13,36.263" style="fill:none;stroke:#000000;stroke-width:0.5" />
<path d="M471.79,32.263L471.79,36.263" style="fill:none;stroke:#000000;stroke-width:0.5" />
<path d="M77.805,36.263L720,36.263" style="fill:none;stroke:#000000;stroke-width:0.5" />
<g transform="rotate(90)">
<text x="149.98" y="11.555" transform="scale(1, -1)"
	style="font-family:Times;font-weight:normal;font-style:normal;font-size:12px">Number of trials (1000000 total)</text>
</g>
<text x="24.055" y="-82.501" transform="scale(1, -1)"
	style="font-family:Times;font-weight:normal;font-style:normal;font-size:10px">25000.00</text>
<text x="19.055" y="-244.73" transform="scale(1, -1)"
	style="font-family:Times;font-weight:normal;font-style:normal;font-size:10px">125000.00</text>
<text x="19.055" y="-406.96" transform="scale(1, -1)"
	style="font-family:Times;font-weight:normal;font-style:normal;font-size:10px">225000.00</text>
<path d="M64.055,85.707L72.055,85.707" style="fill:none;stroke:#000000;stroke-width:0.5" />
<path d="M64.055,247.93L72.055,247.93" style="fill:none;stroke:#000000;stroke-width:0.5" />
<path d="M64.055,410.16L72.055,410.16" style="fill:none;stroke:#000000;stroke-width:0.5" />
<path d="M68.055,166.82L72.055,166.82" style="fill:none;stroke:#000000;stroke-width:0.5" />
<path d="M68.055,329.05L72.055,329.05" style="fill:none;stroke:#000000;stroke-width:0.5" />
<path d="M72.055,45.151L72.055,411.43" style="fill:none;stroke:#000000;stroke-width:0.5" />
<path d="M77.805,411.43L111.95,55.946L113.26,65.697L114.58,52.009L117.2,48.516L118.52,48.438L119.83,55.115L121.14,55.844L122.46,59.466L123.77,62.82L125.08,48.605L127.71,58.548L129.02,55.92L130.34,77.152L131.65,65.89L132.96,76.404L134.28,55.526L135.59,76.093L136.9,55.69L138.22,51.723L142.16,101.88L143.47,76.612L144.78,55.581L147.41,56.304L148.72,56.11L150.04,48.964L151.35,56.285L152.66,87.835L153.98,52.701L155.29,66.523L156.6,46.25L157.91,81.339L159.23,60.342L160.54,63.535L161.85,45.799L163.17,46.772L164.48,47.58L165.79,48.419L167.11,48.633L168.42,48.466L169.73,48.033L171.05,52.065L172.36,48.814L173.67,51.996L174.99,62.716L176.3,50.727L177.61,53.388L178.93,51.614L180.24,49.877L181.55,50.041L182.87,49.812L184.18,51.467L185.49,53.138L186.81,54.604L188.12,56.989L189.43,53.096L190.75,51.73L192.06,52.432L193.37,54.087L194.69,56.574L196,55.25L197.31,56.893L198.63,54.234L199.94,55.933L201.25,54.577L202.57,54.259L203.88,52.635L205.19,53.706L206.51,55.331L207.82,58.731L209.13,53.952L210.45,57.309L211.76,53.758L213.07,56.519L214.39,51.397L215.7,53.381L217.01,56.363L218.33,54.079L219.64,52.671L220.95,49.465L222.27,53.702L223.58,53.255L224.89,53.107L226.21,51.008L227.52,50.86L228.83,50.709L230.15,51.782L231.46,49.947L232.77,53.268L234.09,50.506L235.4,52.087L236.71,48.724L238.03,50.117L239.34,51.451L240.65,50.925L241.97,49.322L243.28,48.38L244.59,48.587L245.9,48.926L247.22,48.579L248.53,49.347L249.84,50.262L251.16,49.767L252.47,50.279L253.78,49.585L255.1,50.195L256.41,49.423L257.72,49.626L259.04,49.192L260.35,49.123L261.66,49.392L262.98,49.429L264.29,48.969L265.6,49.535L266.92,49.079L268.23,49.557L269.54,49.162L270.86,49.387L272.17,49.311L273.48,48.853L274.8,49.433L276.11,48.969L277.42,49.126L278.74,48.793L280.05,48.78L281.36,48.659L282.68,48.743L283.99,48.307L285.3,48.37L286.62,48.159L287.93,48.649L289.24,48.198L290.56,48.409L291.87,47.898L293.18,48.044L294.5,47.922L295.81,47.598L297.12,47.775L298.44,47.719L299.75,47.867L301.06,47.34L302.38,47.215L303.69,47.178L305,47.481L306.32,47.286L307.63,47.131L308.94,47.075L310.26,47.194L311.57,46.962L312.88,47.066L314.2,47.015L315.51,46.939L316.82,46.746L318.14,46.813L319.45,46.899L320.76,46.72L322.08,46.743L323.39,46.667L324.7,46.579L326.02,46.611L327.33,46.503L328.64,46.623L329.95,46.581L331.27,46.626L332.58,46.598L333.89,46.511L335.21,46.399L336.52,46.428L337.83,46.376L339.15,46.404L340.46,46.282L341.77,46.302L343.09,46.282L344.4,46.251L345.71,46.274L347.03,46.217L348.34,46.186L349.65,46.191L350.97,46.219L352.28,46.19L353.59,46.123L354.91,46.118L356.22,46.061L357.53,46.003L358.85,46.053L360.16,46.023L361.47,45.979L362.79,45.959L364.1,45.971L365.41,45.954L366.73,45.851L368.04,45.842L369.35,45.784L370.67,45.769L371.98,45.758L373.29,45.831L374.61,45.748L375.92,45.753L377.23,45.753L378.55,45.693L379.86,45.709L381.17,45.674L382.49,45.696L383.8,45.627L385.11,45.632L386.43,45.594L387.74,45.617L389.05,45.601L390.37,45.563L391.68,45.555L392.99,45.573L394.31,45.578L395.62,45.531L396.93,45.554L398.25,45.521L399.56,45.507L400.87,45.482L402.19,45.531L403.5,45.455L404.81,45.46L406.13,45.435L407.44,45.461L408.75,45.432L410.07,45.455L411.38,45.435L412.69,45.417L414.01,45.421L415.32,45.372L416.63,45.404L417.94,45.374L419.26,45.366L420.57,45.366L421.88,45.375L423.2,45.351L424.51,45.33L425.82,45.401L427.14,45.359L428.45,45.356L429.76,45.328L431.08,45.341L432.39,45.341L433.7,45.304L435.02,45.309L436.33,45.305L437.64,45.314L438.96,45.314L440.27,45.301L441.58,45.284L442.9,45.288L444.21,45.286L445.52,45.283L446.84,45.254L448.15,45.257L449.46,45.257L450.78,45.281L452.09,45.249L453.4,45.254L454.72,45.232L456.03,45.255L457.34,45.232L458.66,45.244L459.97,45.247L461.28,45.224L462.6,45.231L463.91,45.242L465.22,45.228L466.54,45.218L467.85,45.223L469.16,45.221L470.48,45.213L471.79,45.221L473.1,45.224L474.42,45.202L475.73,45.202L477.04,45.223L478.36,45.2L479.67,45.2L480.98,45.207L482.3,45.198L483.61,45.184L484.92,45.19L486.24,45.208L487.55,45.195L488.86,45.194L490.18,45.181L491.49,45.189L492.8,45.189L494.12,45.187L495.43,45.176L496.74,45.192L498.06,45.174L499.37,45.172L500.68,45.185L502,45.181L503.31,45.179L504.62,45.176L505.93,45.176L507.25,45.169L508.56,45.174L509.87,45.172L511.19,45.179L512.5,45.168L513.81,45.166L515.13,45.174L516.44,45.174L517.75,45.168L519.07,45.171L520.38,45.179L521.69,45.166L523.01,45.166L524.32,45.169L525.63,45.164L526.95,45.169L528.26,45.161L529.57,45.169L530.89,45.172L532.2,45.159L533.51,45.159L534.83,45.163L536.14,45.161L537.45,45.172L538.77,45.158L540.08,45.159L541.39,45.156L542.71,45.156L544.02,45.164L545.33,45.156L546.65,45.153L547.96,45.161L549.27,45.158L550.59,45.159L551.9,45.163L553.21,45.163L554.53,45.163L555.84,45.153L557.15,45.155L558.47,45.161L559.78,45.155L561.09,45.155L562.41,45.159L563.72,45.155L565.03,45.155L566.35,45.153L567.66,45.156L570.29,45.153L571.6,45.156L572.91,45.158L574.23,45.155L576.85,45.153L578.17,45.153L579.48,45.151L580.79,45.153L582.11,45.153L583.42,45.153L586.05,45.153L587.36,45.156L588.67,45.153L592.61,45.151L593.92,45.153L595.24,45.153L596.55,45.151L597.86,45.151L601.8,45.151L603.12,45.153L604.43,45.151L607.06,45.153L609.68,45.151L611,45.153L613.62,45.153L614.94,45.151L617.56,45.153L625.44,45.151L626.76,45.151L633.32,45.151L639.89,45.151L645.14,45.151L649.08,45.151L651.71,45.151L655.65,45.151L660.9,45.151L668.78,45.153L674.04,45.151L685.85,45.151L709.49,45.151L720,45.151" style="fill:none;stroke:#0000FF" />
</g>
</svg>
