<?xml version="1.0"?>
<!-- Generated by SVGo and Plotinum VG -->
<svg width="720pt" height="432pt" viewBox="0 0 720 432"
	xmlns="http://www.w3.org/2000/svg"
	xmlns:xlink="http://www.w3.org/1999/xlink">
<g transform="scale(1, -1) translate(0, -432)">
<path d="M0,0L720,0L720,432L0,432Z" style="fill:#FFFFFF" />
<text x="358.5" y="-420.45" transform="scale(1, -1)"
	style="font-family:Times;font-weight:normal;font-style:normal;font-size:12px"> </text>
<text x="376.81" y="-3.8613" transform="scale(1, -1)"
	style="font-family:Times;font-weight:normal;font-style:normal;font-size:12px">Costs</text>
<text x="57.805" y="-18.634" transform="scale(1, -1)"
	style="font-family:Times;font-weight:normal;font-style:normal;font-size:10px">0</text>
<text x="356.35" y="-18.634" transform="scale(1, -1)"
	style="font-family:Times;font-weight:normal;font-style:normal;font-size:10px">300</text>
<text x="659.89" y="-18.634" transform="scale(1, -1)"
	style="font-family:Times;font-weight:normal;font-style:normal;font-size:10px">600</text>
<path d="M60.305,28.263L60.305,36.263" style="fill:none;stroke:#000000;stroke-width:0.5" />
<path d="M363.85,28.263L363.85,36.263" style="fill:none;stroke:#000000;stroke-width:0.5" />
<path d="M667.39,28.263L667.39,36.263" style="fill:none;stroke:#000000;stroke-width:0.5" />
<path d="M161.48,32.263L161.48,36.263" style="fill:none;stroke:#000000;stroke-width:0.5" />
<path d="M262.67,32.263L262.67,36.263" style="fill:none;stroke:#000000;stroke-width:0.5" />
<path d="M465.03,32.263L465.03,36.263" style="fill:none;stroke:#000000;stroke-width:0.5" />
<path d="M566.21,32.263L566.21,36.263" style="fill:none;stroke:#000000;stroke-width:0.5" />
<path d="M60.305,36.263L720,36.263" style="fill:none;stroke:#000000;stroke-width:0.5" />
<g transform="rotate(90)">
<text x="152.55" y="11.555" transform="scale(1, -1)"
	style="font-family:Times;font-weight:normal;font-style:normal;font-size:12px">Number of trials (1000000 total)</text>
</g>
<text x="19.055" y="-101.81" transform="scale(1, -1)"
	style="font-family:Times;font-weight:normal;font-style:normal;font-size:10px">10000</text>
<text x="19.055" y="-161.68" transform="scale(1, -1)"
	style="font-family:Times;font-weight:normal;font-style:normal;font-size:10px">20000</text>
<text x="19.055" y="-221.56" transform="scale(1, -1)"
	style="font-family:Times;font-weight:normal;font-style:normal;font-size:10px">30000</text>
<text x="19.055" y="-281.43" transform="scale(1, -1)"
	style="font-family:Times;font-weight:normal;font-style:normal;font-size:10px">40000</text>
<text x="19.055" y="-341.3" transform="scale(1, -1)"
	style="font-family:Times;font-weight:normal;font-style:normal;font-size:10px">50000</text>
<text x="19.055" y="-401.17" transform="scale(1, -1)"
	style="font-family:Times;font-weight:normal;font-style:normal;font-size:10px">60000</text>
<path d="M46.555,105.02L54.555,105.02" style="fill:none;stroke:#000000;stroke-width:0.5" />
<path d="M46.555,164.89L54.555,164.89" style="fill:none;stroke:#000000;stroke-width:0.5" />
<path d="M46.555,224.76L54.555,224.76" style="fill:none;stroke:#000000;stroke-width:0.5" />
<path d="M46.555,284.63L54.555,284.63" style="fill:none;stroke:#000000;stroke-width:0.5" />
<path d="M46.555,344.5L54.555,344.5" style="fill:none;stroke:#000000;stroke-width:0.5" />
<path d="M46.555,404.38L54.555,404.38" style="fill:none;stroke:#000000;stroke-width:0.5" />
<path d="M50.555,57.12L54.555,57.12" style="fill:none;stroke:#000000;stroke-width:0.5" />
<path d="M50.555,69.094L54.555,69.094" style="fill:none;stroke:#000000;stroke-width:0.5" />
<path d="M50.555,81.068L54.555,81.068" style="fill:none;stroke:#000000;stroke-width:0.5" />
<path d="M50.555,93.043L54.555,93.043" style="fill:none;stroke:#000000;stroke-width:0.5" />
<path d="M50.555,116.99L54.555,116.99" style="fill:none;stroke:#000000;stroke-width:0.5" />
<path d="M50.555,128.97L54.555,128.97" style="fill:none;stroke:#000000;stroke-width:0.5" />
<path d="M50.555,140.94L54.555,140.94" style="fill:none;stroke:#000000;stroke-width:0.5" />
<path d="M50.555,152.91L54.555,152.91" style="fill:none;stroke:#000000;stroke-width:0.5" />
<path d="M50.555,176.86L54.555,176.86" style="fill:none;stroke:#000000;stroke-width:0.5" />
<path d="M50.555,188.84L54.555,188.84" style="fill:none;stroke:#000000;stroke-width:0.5" />
<path d="M50.555,200.81L54.555,200.81" style="fill:none;stroke:#000000;stroke-width:0.5" />
<path d="M50.555,212.79L54.555,212.79" style="fill:none;stroke:#000000;stroke-width:0.5" />
<path d="M50.555,236.74L54.555,236.74" style="fill:none;stroke:#000000;stroke-width:0.5" />
<path d="M50.555,248.71L54.555,248.71" style="fill:none;stroke:#000000;stroke-width:0.5" />
<path d="M50.555,260.68L54.555,260.68" style="fill:none;stroke:#000000;stroke-width:0.5" />
<path d="M50.555,272.66L54.555,272.66" style="fill:none;stroke:#000000;stroke-width:0.5" />
<path d="M50.555,296.61L54.555,296.61" style="fill:none;stroke:#000000;stroke-width:0.5" />
<path d="M50.555,308.58L54.555,308.58" style="fill:none;stroke:#000000;stroke-width:0.5" />
<path d="M50.555,320.56L54.555,320.56" style="fill:none;stroke:#000000;stroke-width:0.5" />
<path d="M50.555,332.53L54.555,332.53" style="fill:none;stroke:#000000;stroke-width:0.5" />
<path d="M50.555,356.48L54.555,356.48" style="fill:none;stroke:#000000;stroke-width:0.5" />
<path d="M50.555,368.45L54.555,368.45" style="fill:none;stroke:#000000;stroke-width:0.5" />
<path d="M50.555,380.43L54.555,380.43" style="fill:none;stroke:#000000;stroke-width:0.5" />
<path d="M50.555,392.4L54.555,392.4" style="fill:none;stroke:#000000;stroke-width:0.5" />
<path d="M50.555,416.35L54.555,416.35" style="fill:none;stroke:#000000;stroke-width:0.5" />
<path d="M54.555,45.151L54.555,416.58" style="fill:none;stroke:#000000;stroke-width:0.5" />
<path d="M60.305,416.58L86.612,78.877L89.647,55.348L91.671,73.249L92.682,92.636L93.694,59.018L94.706,62.191L95.718,62.053L96.73,55.21L98.753,52.33L99.765,79.105L100.78,90.965L101.79,48.426L103.81,75.812L104.82,160.63L105.84,80.949L106.85,63.568L108.87,48.582L109.88,150.38L111.91,78.739L113.93,171.86L114.94,96.18L115.95,46.014L116.97,70.453L117.98,47.678L118.99,49.265L120,62.814L121.01,47.343L122.02,104.55L123.04,101.02L124.05,95.875L125.06,48.468L126.07,51.21L127.08,52.893L128.1,49.33L129.11,48.007L130.12,51.019L131.13,59.634L132.14,90.061L133.15,55.336L134.17,74.968L135.18,53.138L136.19,71.214L137.2,65.089L138.21,63.053L139.23,58.934L140.24,69.501L141.25,88.852L142.26,78.763L143.27,63.664L144.28,70.567L145.3,78.967L146.31,78.757L147.32,61.155L148.33,73.177L149.34,86.349L150.36,82.853L151.37,60.179L152.38,59.197L153.39,74.692L154.4,109.79L155.41,80.422L156.43,75.051L157.44,70.088L158.45,100.65L159.46,85.499L160.47,66.675L161.48,73.453L162.5,63.622L163.51,100.14L164.52,77.314L165.53,68.831L166.54,86.505L167.56,92.264L168.57,92.935L169.58,61.556L170.59,63.388L171.6,74.632L172.61,73.561L173.63,79.386L174.64,63.837L175.65,81.775L176.66,92.48L177.67,84.337L178.69,71.776L179.7,60.179L180.71,64.987L181.72,73.92L182.73,62.508L183.74,68.112L184.76,69.501L185.77,89.798L186.78,79.177L187.79,70.621L188.8,65.963L189.82,67.142L190.83,73.1L191.84,67.986L192.85,65.424L193.86,74.956L194.87,81.733L195.89,81.781L196.9,67.891L197.91,72.818L198.92,75.321L199.93,73.237L200.95,67.537L201.96,68.573L202.97,74.854L203.98,80.284L204.99,73.842L206,70.753L207.02,70.022L208.03,81.021L209.04,74.674L210.05,70.627L211.06,71.064L212.08,73.59L213.09,77.033L214.1,68.25L215.11,68.316L216.12,70.878L217.13,75.405L218.15,77.039L219.16,66.454L220.17,72.064L221.18,73.159L222.19,74.111L223.2,68.693L224.22,63.771L225.23,69.226L226.24,72.543L227.25,71.058L228.26,68.226L229.28,67.585L230.29,74.255L231.3,70.573L232.31,66.568L233.32,62.263L234.33,64.502L235.35,69.208L236.36,67.388L237.37,65.598L238.38,67.208L239.39,70.052L240.41,70.435L241.42,64.179L242.43,64.322L243.44,63.963L244.45,65.741L245.46,65.388L246.48,62.736L247.49,65.143L248.5,67.196L249.51,68.052L250.52,64.951L251.54,62.987L252.55,64.047L253.56,64.197L254.57,62.353L255.58,62.233L256.59,63.544L257.61,65.406L258.62,64.598L259.63,63.514L260.64,62.526L261.65,63.071L262.67,63.017L263.68,61.263L264.69,60.808L265.7,61.909L266.71,62.778L267.72,63.113L268.74,60.934L269.75,61.88L270.76,62.221L271.77,62.64L272.78,60.85L273.8,60.371L274.81,61.155L275.82,60.802L276.83,60.676L277.84,59.072L278.85,59.646L279.87,60.964L280.88,59.778L281.89,59.281L282.9,58.832L283.91,59.473L284.92,59.479L285.94,57.599L286.95,56.743L287.96,57.341L288.97,58.652L289.98,58.323L291,57.126L292.01,57.796L293.02,57.509L294.03,57.551L295.04,56.641L296.05,56.21L297.07,55.958L298.08,56.958L299.09,56.605L300.1,56.144L301.11,55.832L302.13,56.784L303.14,56.234L304.15,55.455L305.16,54.982L306.17,54.683L307.18,55.3L308.2,55.234L309.21,54.551L310.22,54.527L311.23,54.467L312.24,54.779L313.26,54.378L314.27,53.929L315.28,53.809L316.29,53.953L317.3,53.575L318.31,53.042L319.33,53.366L320.34,53.599L321.35,53.557L322.36,53.09L323.37,52.905L324.39,52.719L325.4,52.528L326.41,52.39L327.42,52.102L328.43,52.444L329.44,52.575L330.46,52.3L331.47,52.246L332.48,51.773L333.49,51.665L334.5,51.791L335.52,51.707L336.53,51.198L337.54,51.576L338.55,51.306L339.56,51.097L340.57,50.797L341.59,50.54L342.6,51.013L343.61,50.791L344.62,50.785L345.63,50.444L346.64,50.552L347.66,50.342L348.67,49.953L349.68,49.702L350.69,49.929L351.7,50.103L352.72,50.324L353.73,49.57L354.74,49.6L355.75,49.636L356.76,49.45L357.77,49.785L358.79,49.133L359.8,49.169L360.81,49.223L361.82,49.306L362.83,49.103L363.85,48.995L364.86,48.66L365.87,48.833L366.88,48.654L367.89,48.355L368.9,48.642L369.92,48.438L370.93,48.474L371.94,48.546L372.95,48.223L373.96,48.6L374.98,48.289L375.99,48.331L377,48.091L378.01,47.989L379.02,47.804L380.03,48.079L381.05,48.001L382.06,47.888L383.07,47.792L384.08,47.606L385.09,47.66L386.11,47.756L387.12,47.552L388.13,47.426L389.14,47.594L390.15,47.45L391.16,47.307L392.18,47.444L393.19,47.325L394.2,47.313L395.21,47.51L396.22,47.157L397.23,47.498L398.25,47.043L399.26,46.954L400.27,46.9L401.28,46.971L402.29,46.822L403.31,46.816L404.32,46.816L405.33,46.81L406.34,46.81L407.35,46.971L408.36,46.576L409.38,46.475L410.39,46.54L411.4,46.582L412.41,46.463L413.42,46.57L414.44,46.588L415.45,46.433L416.46,46.516L417.47,46.475L418.48,46.516L419.49,46.355L420.51,46.289L421.52,46.289L422.53,46.313L423.54,46.127L424.55,46.241L425.57,46.217L426.58,46.319L427.59,46.037L428.6,46.079L429.61,46.139L430.62,46.085L431.64,46.043L432.65,45.966L433.66,46.002L434.67,46.061L435.68,45.984L436.7,45.984L437.71,45.96L438.72,45.84L439.73,46.02L440.74,45.894L441.75,45.948L442.77,45.936L443.78,45.726L444.79,45.822L445.8,45.756L446.81,45.756L447.83,45.774L448.84,45.642L449.85,45.672L450.86,45.756L451.87,45.78L452.88,45.684L453.9,45.606L454.91,45.72L455.92,45.66L456.93,45.726L457.94,45.636L458.95,45.576L459.97,45.523L460.98,45.612L461.99,45.582L463,45.612L464.01,45.564L465.03,45.487L466.04,45.66L467.05,45.547L468.06,45.594L469.07,45.636L470.08,45.427L471.1,45.517L472.11,45.445L473.12,45.481L474.13,45.451L475.14,45.505L476.16,45.475L477.17,45.433L478.18,45.439L479.19,45.463L480.2,45.433L481.21,45.517L482.23,45.445L483.24,45.451L484.25,45.403L485.26,45.385L486.27,45.367L487.29,45.325L488.3,45.385L489.31,45.349L490.32,45.331L491.33,45.373L492.34,45.337L493.36,45.415L494.37,45.355L495.38,45.355L496.39,45.337L497.4,45.319L498.42,45.259L499.43,45.325L500.44,45.337L501.45,45.319L502.46,45.319L503.47,45.325L504.49,45.319L505.5,45.307L506.51,45.277L507.52,45.361L508.53,45.253L509.55,45.211L510.56,45.241L511.57,45.265L512.58,45.283L513.59,45.283L514.6,45.271L515.62,45.265L516.63,45.253L517.64,45.277L518.65,45.289L519.66,45.271L520.67,45.235L521.69,45.241L522.7,45.247L523.71,45.235L524.72,45.211L525.73,45.205L526.75,45.199L527.76,45.217L528.77,45.217L529.78,45.241L530.79,45.223L531.8,45.199L532.82,45.205L533.83,45.223L534.84,45.205L535.85,45.175L536.86,45.211L537.88,45.187L538.89,45.211L539.9,45.211L540.91,45.229L541.92,45.193L542.93,45.193L543.95,45.181L544.96,45.217L545.97,45.193L546.98,45.187L547.99,45.175L549.01,45.181L550.02,45.163L551.03,45.175L552.04,45.157L553.05,45.175L554.06,45.181L555.08,45.205L556.09,45.175L557.1,45.175L558.11,45.193L559.12,45.163L560.14,45.163L561.15,45.175L562.16,45.157L563.17,45.169L564.18,45.199L565.19,45.157L566.21,45.169L567.22,45.157L568.23,45.169L569.24,45.181L570.25,45.187L571.27,45.181L572.28,45.175L573.29,45.157L574.3,45.163L575.31,45.169L576.32,45.151L577.34,45.157L578.35,45.157L580.37,45.157L581.38,45.175L582.39,45.157L583.41,45.151L584.42,45.163L585.43,45.157L586.44,45.163L587.45,45.157L588.47,45.157L589.48,45.169L592.51,45.157L593.52,45.151L595.55,45.157L596.56,45.151L602.63,45.157L603.64,45.157L604.65,45.175L605.67,45.151L610.73,45.151L612.75,45.157L613.76,45.151L616.8,45.157L618.82,45.151L622.87,45.151L623.88,45.151L625.9,45.151L627.93,45.157L628.94,45.157L630.96,45.151L631.97,45.151L632.98,45.163L635.01,45.151L636.02,45.157L646.14,45.151L650.19,45.151L661.32,45.157L665.36,45.151L677.5,45.151L681.55,45.151L696.73,45.151L698.75,45.151L720,45.151" style="fill:none;stroke:#0000FF" />
</g>
</svg>
