<?xml version="1.0"?>
<!-- Generated by SVGo and Plotinum VG -->
<svg width="720pt" height="432pt" viewBox="0 0 720 432"
	xmlns="http://www.w3.org/2000/svg"
	xmlns:xlink="http://www.w3.org/1999/xlink">
<g transform="scale(1, -1) translate(0, -432)">
<path d="M0,0L720,0L720,432L0,432Z" style="fill:#FFFFFF" />
<text x="358.5" y="-420.45" transform="scale(1, -1)"
	style="font-family:Times;font-weight:normal;font-style:normal;font-size:12px"> </text>
<text x="379.31" y="-3.8613" transform="scale(1, -1)"
	style="font-family:Times;font-weight:normal;font-style:normal;font-size:12px">Costs</text>
<text x="62.805" y="-18.634" transform="scale(1, -1)"
	style="font-family:Times;font-weight:normal;font-style:normal;font-size:10px">0</text>
<text x="361.61" y="-18.634" transform="scale(1, -1)"
	style="font-family:Times;font-weight:normal;font-style:normal;font-size:10px">200</text>
<text x="665.41" y="-18.634" transform="scale(1, -1)"
	style="font-family:Times;font-weight:normal;font-style:normal;font-size:10px">400</text>
<path d="M65.305,28.263L65.305,36.263" style="fill:none;stroke:#000000;stroke-width:0.5" />
<path d="M369.11,28.263L369.11,36.263" style="fill:none;stroke:#000000;stroke-width:0.5" />
<path d="M672.91,28.263L672.91,36.263" style="fill:none;stroke:#000000;stroke-width:0.5" />
<path d="M217.21,32.263L217.21,36.263" style="fill:none;stroke:#000000;stroke-width:0.5" />
<path d="M521.01,32.263L521.01,36.263" style="fill:none;stroke:#000000;stroke-width:0.5" />
<path d="M65.305,36.263L720,36.263" style="fill:none;stroke:#000000;stroke-width:0.5" />
<g transform="rotate(90)">
<text x="152.1" y="11.555" transform="scale(1, -1)"
	style="font-family:Times;font-weight:normal;font-style:normal;font-size:12px">Number of trials (1000000 total)</text>
</g>
<text x="24.055" y="-114.95" transform="scale(1, -1)"
	style="font-family:Times;font-weight:normal;font-style:normal;font-size:10px">50000</text>
<text x="19.055" y="-260.95" transform="scale(1, -1)"
	style="font-family:Times;font-weight:normal;font-style:normal;font-size:10px">150000</text>
<text x="19.055" y="-406.96" transform="scale(1, -1)"
	style="font-family:Times;font-weight:normal;font-style:normal;font-size:10px">250000</text>
<path d="M51.555,118.15L59.555,118.15" style="fill:none;stroke:#000000;stroke-width:0.5" />
<path d="M51.555,264.16L59.555,264.16" style="fill:none;stroke:#000000;stroke-width:0.5" />
<path d="M51.555,410.16L59.555,410.16" style="fill:none;stroke:#000000;stroke-width:0.5" />
<path d="M55.555,191.15L59.555,191.15" style="fill:none;stroke:#000000;stroke-width:0.5" />
<path d="M55.555,337.16L59.555,337.16" style="fill:none;stroke:#000000;stroke-width:0.5" />
<path d="M59.555,45.151L59.555,415.69" style="fill:none;stroke:#000000;stroke-width:0.5" />
<path d="M65.305,415.69L98.723,55.437L101.76,56.135L104.8,53.113L106.32,48.515L107.84,60.889L109.36,64.587L110.88,48.439L112.39,66.661L113.91,55.694L115.43,62.948L116.95,82.635L118.47,67.817L119.99,48.613L121.51,56.297L123.03,53.018L124.55,59.488L126.07,77.307L127.58,80.642L129.1,48.464L130.62,63.887L132.14,66.719L133.66,55.43L135.18,78.315L138.22,45.362L139.74,70.12L141.26,45.791L142.77,53.202L144.29,45.737L145.81,67.499L147.33,45.686L148.85,46.671L150.37,70.368L151.89,50.771L153.41,54.442L154.93,65.974L156.45,47.949L157.96,47.904L159.48,56.899L161,57.007L162.52,48.819L164.04,50.275L165.56,49.978L167.08,50.396L168.6,51.764L170.12,52.164L171.64,51.174L173.15,51.25L174.67,52.687L176.19,52.509L177.71,72.618L179.23,56.132L180.75,50.984L182.27,67.147L183.79,53.541L185.31,52.579L186.83,58.187L188.34,54.033L189.86,51.618L191.38,52.964L192.9,54.164L194.42,52.871L195.94,53.056L197.46,55.048L198.98,50.796L200.5,51.933L202.02,54.047L203.54,50.508L205.05,51.022L206.57,52.241L208.09,51.119L209.61,50.627L211.13,51.548L212.65,51.933L214.17,49.961L215.69,52.075L217.21,51.139L218.73,48.888L220.24,53.259L221.76,50.748L223.28,49.499L224.8,51.742L226.32,49.929L227.84,49.673L229.36,52.16L230.88,51.18L232.4,48.819L233.92,50.581L235.43,50.723L236.95,48.961L238.47,50.64L239.99,52.011L241.51,49.029L243.03,50.317L244.55,50.87L246.07,49.137L247.59,50.352L249.11,49.705L250.62,48.565L252.14,50.559L253.66,48.308L255.18,48.479L256.7,49.145L258.22,49.095L259.74,48.288L261.26,47.893L262.78,50.038L264.3,48.115L265.81,47.946L267.33,49.521L268.85,47.85L270.37,47.613L271.89,49.086L273.41,48.057L274.93,47.451L276.45,48.095L277.97,47.844L279.49,47.311L281,47.644L282.52,47.772L284.04,47.249L285.56,47.341L287.08,47.562L288.6,47.068L290.12,47.381L291.64,47.508L293.16,47.099L294.68,47.939L296.19,47.359L297.71,47.041L299.23,47.289L300.75,47.282L302.27,46.966L303.79,47.092L305.31,47.041L306.83,46.773L308.35,46.87L309.87,47.143L311.39,46.714L312.9,46.734L314.42,46.839L315.94,46.517L317.46,46.457L318.98,46.623L320.5,46.457L322.02,46.397L323.54,46.5L325.06,46.474L326.58,46.268L328.09,46.385L329.61,46.353L331.13,46.198L332.65,46.407L334.17,46.283L335.69,46.062L337.21,46.279L338.73,46.154L340.25,46.038L341.77,46.149L343.28,46.052L344.8,45.973L346.32,46.051L347.84,45.982L349.36,45.861L350.88,45.827L352.4,45.918L353.92,45.836L355.44,45.881L356.96,45.921L358.47,45.753L359.99,45.768L361.51,45.757L363.03,45.797L364.55,45.737L366.07,45.711L367.59,45.695L369.11,45.708L370.63,45.668L372.15,45.671L373.66,45.6L375.18,45.677L376.7,45.565L378.22,45.588L379.74,45.667L381.26,45.566L382.78,45.5L384.3,45.614L385.82,45.534L387.34,45.49L388.85,45.511L390.37,45.518L391.89,45.489L393.41,45.493L394.93,45.442L396.45,45.497L397.97,45.438L399.49,45.448L401.01,45.43L402.53,45.43L404.04,45.398L405.56,45.43L407.08,45.381L408.6,45.408L410.12,45.389L411.64,45.401L413.16,45.365L414.68,45.37L416.2,45.338L417.72,45.35L419.24,45.344L420.75,45.338L422.27,45.313L423.79,45.318L425.31,45.315L426.83,45.313L428.35,45.305L429.87,45.302L431.39,45.275L432.91,45.277L434.43,45.29L435.94,45.289L437.46,45.27L438.98,45.261L440.5,45.274L442.02,45.246L443.54,45.246L445.06,45.261L446.58,45.254L448.1,45.243L449.62,45.243L451.13,45.262L452.65,45.233L454.17,45.236L455.69,45.236L457.21,45.226L458.73,45.208L460.25,45.238L461.77,45.221L463.29,45.235L464.81,45.224L466.32,45.205L467.84,45.213L469.36,45.204L470.88,45.197L472.4,45.2L473.92,45.2L475.44,45.2L476.96,45.191L478.48,45.201L480,45.186L481.51,45.192L483.03,45.198L484.55,45.192L486.07,45.183L487.59,45.198L489.11,45.191L490.63,45.194L492.15,45.181L493.67,45.185L495.19,45.182L496.7,45.176L498.22,45.179L499.74,45.173L501.26,45.178L502.78,45.182L504.3,45.172L505.82,45.172L507.34,45.17L508.86,45.176L510.38,45.173L511.89,45.175L513.41,45.167L514.93,45.173L516.45,45.169L517.97,45.163L519.49,45.169L521.01,45.163L522.53,45.16L524.05,45.163L525.57,45.157L527.09,45.16L528.6,45.162L530.12,45.167L531.64,45.162L533.16,45.166L534.68,45.165L536.2,45.16L537.72,45.157L539.24,45.159L540.76,45.153L542.28,45.157L543.79,45.157L545.31,45.163L546.83,45.157L548.35,45.16L549.87,45.159L551.39,45.163L552.91,45.151L554.43,45.159L555.95,45.154L557.47,45.153L558.98,45.154L560.5,45.154L562.02,45.153L563.54,45.156L565.06,45.154L566.58,45.156L569.62,45.151L571.14,45.154L572.66,45.151L575.69,45.151L577.21,45.153L578.73,45.153L580.25,45.151L581.77,45.153L583.29,45.153L584.81,45.151L586.33,45.154L587.85,45.156L589.36,45.156L590.88,45.153L592.4,45.153L593.92,45.151L595.44,45.151L598.48,45.151L600,45.153L601.52,45.151L604.55,45.153L606.07,45.151L607.59,45.151L609.11,45.153L613.67,45.151L615.19,45.151L621.26,45.151L624.3,45.153L625.82,45.151L633.42,45.151L634.94,45.151L636.45,45.151L639.49,45.151L650.13,45.151L653.16,45.151L663.8,45.153L686.58,45.151L707.85,45.151L720,45.151" style="fill:none;stroke:#0000FF" />
</g>
</svg>
