<?xml version="1.0"?>
<!-- Generated by SVGo and Plotinum VG -->
<svg width="720pt" height="432pt" viewBox="0 0 720 432"
	xmlns="http://www.w3.org/2000/svg"
	xmlns:xlink="http://www.w3.org/1999/xlink">
<g transform="scale(1, -1) translate(0, -432)">
<path d="M0,0L720,0L720,432L0,432Z" style="fill:#FFFFFF" />
<text x="358.5" y="-420.45" transform="scale(1, -1)"
	style="font-family:Times;font-weight:normal;font-style:normal;font-size:12px"> </text>
<text x="385.56" y="-3.8613" transform="scale(1, -1)"
	style="font-family:Times;font-weight:normal;font-style:normal;font-size:12px">Costs</text>
<text x="75.305" y="-18.634" transform="scale(1, -1)"
	style="font-family:Times;font-weight:normal;font-style:normal;font-size:10px">0</text>
<text x="340.7" y="-18.634" transform="scale(1, -1)"
	style="font-family:Times;font-weight:normal;font-style:normal;font-size:10px">200</text>
<text x="611.1" y="-18.634" transform="scale(1, -1)"
	style="font-family:Times;font-weight:normal;font-style:normal;font-size:10px">400</text>
<path d="M77.805,28.263L77.805,36.263" style="fill:none;stroke:#000000;stroke-width:0.5" />
<path d="M348.2,28.263L348.2,36.263" style="fill:none;stroke:#000000;stroke-width:0.5" />
<path d="M618.6,28.263L618.6,36.263" style="fill:none;stroke:#000000;stroke-width:0.5" />
<path d="M213,32.263L213,36.263" style="fill:none;stroke:#000000;stroke-width:0.5" />
<path d="M483.4,32.263L483.4,36.263" style="fill:none;stroke:#000000;stroke-width:0.5" />
<path d="M77.805,36.263L720,36.263" style="fill:none;stroke:#000000;stroke-width:0.5" />
<g transform="rotate(90)">
<text x="152.55" y="11.555" transform="scale(1, -1)"
	style="font-family:Times;font-weight:normal;font-style:normal;font-size:12px">Number of trials (1000000 total)</text>
</g>
<text x="24.055" y="-80.863" transform="scale(1, -1)"
	style="font-family:Times;font-weight:normal;font-style:normal;font-size:10px">25000.00</text>
<text x="19.055" y="-236.54" transform="scale(1, -1)"
	style="font-family:Times;font-weight:normal;font-style:normal;font-size:10px">125000.00</text>
<text x="19.055" y="-392.22" transform="scale(1, -1)"
	style="font-family:Times;font-weight:normal;font-style:normal;font-size:10px">225000.00</text>
<path d="M64.055,84.069L72.055,84.069" style="fill:none;stroke:#000000;stroke-width:0.5" />
<path d="M64.055,239.75L72.055,239.75" style="fill:none;stroke:#000000;stroke-width:0.5" />
<path d="M64.055,395.42L72.055,395.42" style="fill:none;stroke:#000000;stroke-width:0.5" />
<path d="M68.055,161.91L72.055,161.91" style="fill:none;stroke:#000000;stroke-width:0.5" />
<path d="M68.055,317.58L72.055,317.58" style="fill:none;stroke:#000000;stroke-width:0.5" />
<path d="M72.055,45.151L72.055,416.58" style="fill:none;stroke:#000000;stroke-width:0.5" />
<path d="M77.805,416.58L107.55,66.91L108.9,67.161L110.25,48.771L112.96,73.38L114.31,52.193L115.66,48.804L117.01,48.603L119.72,52.13L121.07,48.411L122.42,48.534L123.77,66.021L125.12,59.444L126.48,51.986L127.83,66.938L129.18,62.382L130.53,98.211L131.88,58.916L133.24,55.607L134.59,80.314L135.94,52.146L137.29,73.914L138.64,46.286L140,48.995L141.35,45.329L142.7,46.903L144.05,50.735L145.4,60.412L146.76,56.301L148.11,45.777L149.46,67.002L150.81,60.12L152.16,49.476L153.52,60.532L154.87,58.28L156.22,50.477L157.57,54.209L158.92,63.489L160.28,61.367L161.63,64.826L162.98,73.86L164.33,50.061L165.68,52.948L167.04,50.43L168.39,49.155L169.74,50.049L171.09,48.207L172.44,49.576L173.8,48.721L175.15,49.513L176.5,52.023L177.85,49.562L179.2,50.932L180.56,54.828L181.91,59.852L183.26,53.116L184.61,54.313L185.96,66.451L187.32,76.245L188.67,52.158L190.02,53.846L191.37,51.765L192.72,52.306L194.08,52.383L195.43,50.574L196.78,51.634L198.13,52.336L199.48,51.514L200.84,50.539L202.19,52.954L203.54,52.079L204.89,51.972L206.24,53.564L207.6,52.137L208.95,52.845L210.3,52.453L211.65,53.147L213,52.901L214.36,52.369L215.71,53.958L217.06,53.289L218.41,52.512L219.76,51.297L221.12,50.784L222.47,52.616L223.82,48.301L225.17,48.863L226.52,49.056L227.88,49.235L229.23,49.739L230.58,50.36L231.93,50.544L233.28,51.277L234.64,52.247L235.99,51.184L237.34,50.862L238.69,53.192L240.04,52.842L241.4,50.398L242.75,50.882L244.1,51.458L245.45,49.856L246.8,50.67L248.16,48.444L249.51,48.206L250.86,47.929L252.21,48.164L253.56,48.9L254.92,49.261L256.27,48.537L257.62,48.993L258.97,49.9L260.32,48.875L261.68,48.941L263.03,49.546L264.38,49.076L265.73,48.984L267.08,49.471L268.44,49.412L269.79,49.437L271.14,49.949L272.49,49.442L273.84,48.02L275.2,47.912L276.55,47.585L277.9,47.488L279.25,47.641L280.6,47.398L281.96,47.413L283.31,47.432L284.66,47.658L286.01,47.619L287.36,47.648L288.72,47.827L290.07,48.095L291.42,48.252L292.77,47.653L294.12,47.644L295.48,48.399L296.83,47.505L298.18,47.342L299.53,47.297L300.88,47.192L302.24,47.015L303.59,47.018L304.94,46.772L306.29,46.923L307.64,46.917L309,46.764L310.35,46.89L311.7,47.013L313.05,46.882L314.4,46.939L315.75,46.968L317.11,46.858L318.46,46.844L319.81,46.828L321.16,46.884L322.51,46.728L323.87,46.696L325.22,46.71L326.57,46.559L327.92,46.526L329.27,46.475L330.63,46.45L331.98,46.23L333.33,46.145L334.68,46.109L336.03,46.101L337.39,46.215L338.74,46.236L340.09,46.196L341.44,46.215L342.79,46.321L344.15,46.224L345.5,46.201L346.85,46.21L348.2,46.224L349.55,46.092L350.91,46.042L352.26,46.076L353.61,45.99L354.96,45.984L356.31,45.914L357.67,45.796L359.02,45.822L360.37,45.794L361.72,45.839L363.07,45.816L364.43,45.829L365.78,45.718L367.13,45.829L368.48,45.754L369.83,45.738L371.19,45.734L372.54,45.724L373.89,45.743L375.24,45.766L376.59,45.754L377.95,45.713L379.3,45.706L380.65,45.662L382,45.611L383.35,45.553L384.71,45.55L386.06,45.502L387.41,45.555L388.76,45.499L390.11,45.539L391.47,45.525L392.82,45.556L394.17,45.573L395.52,45.489L396.87,45.513L398.23,45.46L399.58,45.534L400.93,45.506L402.28,45.477L403.63,45.488L404.99,45.441L406.34,45.416L407.69,45.442L409.04,45.41L410.39,45.382L411.75,45.399L413.1,45.354L414.45,45.376L415.8,45.413L417.15,45.349L418.51,45.348L419.86,45.357L421.21,45.354L422.56,45.369L423.91,45.348L425.27,45.357L426.62,45.344L427.97,45.33L429.32,45.324L430.67,45.327L432.03,45.323L433.38,45.33L434.73,45.304L436.08,45.302L437.43,45.26L438.79,45.284L440.14,45.302L441.49,45.245L442.84,45.268L444.19,45.279L445.55,45.24L446.9,45.246L448.25,45.262L449.6,45.256L450.95,45.259L452.31,45.26L453.66,45.253L455.01,45.256L456.36,45.24L457.71,45.235L459.07,45.221L460.42,45.235L461.77,45.234L463.12,45.237L464.47,45.193L465.83,45.22L467.18,45.214L468.53,45.231L469.88,45.206L471.23,45.207L472.59,45.209L473.94,45.184L475.29,45.206L476.64,45.203L477.99,45.217L479.35,45.217L480.7,45.201L482.05,45.206L483.4,45.201L484.75,45.209L486.11,45.212L487.46,45.207L488.81,45.184L490.16,45.187L491.51,45.183L492.87,45.189L494.22,45.178L495.57,45.179L496.92,45.187L498.27,45.176L499.63,45.183L500.98,45.167L502.33,45.179L503.68,45.178L505.03,45.192L506.39,45.17L507.74,45.175L509.09,45.172L510.44,45.173L511.79,45.181L513.15,45.176L514.5,45.173L515.85,45.168L517.2,45.164L518.55,45.176L519.91,45.165L521.26,45.161L522.61,45.161L523.96,45.167L525.31,45.172L526.67,45.168L528.02,45.173L529.37,45.165L530.72,45.161L532.07,45.167L533.43,45.164L534.78,45.165L536.13,45.167L537.48,45.158L538.83,45.161L540.19,45.159L541.54,45.164L542.89,45.158L544.24,45.165L545.59,45.156L546.95,45.161L548.3,45.158L549.65,45.158L551,45.161L552.35,45.158L553.71,45.156L555.06,45.156L556.41,45.156L557.76,45.158L559.11,45.153L560.47,45.161L561.82,45.154L563.17,45.158L564.52,45.156L565.87,45.154L567.23,45.154L568.58,45.154L569.93,45.156L571.28,45.156L572.63,45.158L573.99,45.156L575.34,45.154L576.69,45.156L578.04,45.154L579.39,45.153L580.75,45.158L582.1,45.154L583.45,45.154L584.8,45.153L586.15,45.154L587.5,45.154L588.86,45.151L591.56,45.151L594.26,45.153L595.62,45.151L596.97,45.151L598.32,45.151L599.67,45.153L601.02,45.154L602.38,45.153L603.73,45.154L605.08,45.153L607.78,45.151L609.14,45.153L610.49,45.151L611.84,45.151L613.19,45.154L614.54,45.153L615.9,45.153L617.25,45.151L619.95,45.153L621.3,45.151L622.66,45.151L625.36,45.151L626.71,45.151L628.06,45.154L632.12,45.151L633.47,45.151L636.18,45.151L638.88,45.151L641.58,45.151L642.94,45.151L644.29,45.151L651.05,45.153L664.57,45.151L669.98,45.151L680.79,45.151L686.2,45.151L692.96,45.151L710.54,45.151L720,45.151" style="fill:none;stroke:#0000FF" />
</g>
</svg>
