<?xml version="1.0"?>
<!-- Generated by SVGo and Plotinum VG -->
<svg width="720pt" height="432pt" viewBox="0 0 720 432"
	xmlns="http://www.w3.org/2000/svg"
	xmlns:xlink="http://www.w3.org/1999/xlink">
<g transform="scale(1, -1) translate(0, -432)">
<path d="M0,0L720,0L720,432L0,432Z" style="fill:#FFFFFF" />
<text x="358.5" y="-420.45" transform="scale(1, -1)"
	style="font-family:Times;font-weight:normal;font-style:normal;font-size:12px"> </text>
<text x="379.31" y="-3.8613" transform="scale(1, -1)"
	style="font-family:Times;font-weight:normal;font-style:normal;font-size:12px">Costs</text>
<text x="62.805" y="-18.634" transform="scale(1, -1)"
	style="font-family:Times;font-weight:normal;font-style:normal;font-size:10px">0</text>
<text x="371.06" y="-18.634" transform="scale(1, -1)"
	style="font-family:Times;font-weight:normal;font-style:normal;font-size:10px">200</text>
<text x="684.31" y="-18.634" transform="scale(1, -1)"
	style="font-family:Times;font-weight:normal;font-style:normal;font-size:10px">400</text>
<path d="M65.305,28.263L65.305,36.263" style="fill:none;stroke:#000000;stroke-width:0.5" />
<path d="M378.56,28.263L378.56,36.263" style="fill:none;stroke:#000000;stroke-width:0.5" />
<path d="M691.81,28.263L691.81,36.263" style="fill:none;stroke:#000000;stroke-width:0.5" />
<path d="M221.93,32.263L221.93,36.263" style="fill:none;stroke:#000000;stroke-width:0.5" />
<path d="M535.18,32.263L535.18,36.263" style="fill:none;stroke:#000000;stroke-width:0.5" />
<path d="M65.305,36.263L720,36.263" style="fill:none;stroke:#000000;stroke-width:0.5" />
<g transform="rotate(90)">
<text x="152.55" y="11.555" transform="scale(1, -1)"
	style="font-family:Times;font-weight:normal;font-style:normal;font-size:12px">Number of trials (1000000 total)</text>
</g>
<text x="24.055" y="-81.152" transform="scale(1, -1)"
	style="font-family:Times;font-weight:normal;font-style:normal;font-size:10px">50000</text>
<text x="19.055" y="-237.98" transform="scale(1, -1)"
	style="font-family:Times;font-weight:normal;font-style:normal;font-size:10px">250000</text>
<text x="19.055" y="-394.81" transform="scale(1, -1)"
	style="font-family:Times;font-weight:normal;font-style:normal;font-size:10px">450000</text>
<path d="M51.555,84.358L59.555,84.358" style="fill:none;stroke:#000000;stroke-width:0.5" />
<path d="M51.555,241.19L59.555,241.19" style="fill:none;stroke:#000000;stroke-width:0.5" />
<path d="M51.555,398.01L59.555,398.01" style="fill:none;stroke:#000000;stroke-width:0.5" />
<path d="M55.555,162.77L59.555,162.77" style="fill:none;stroke:#000000;stroke-width:0.5" />
<path d="M55.555,319.6L59.555,319.6" style="fill:none;stroke:#000000;stroke-width:0.5" />
<path d="M59.555,45.151L59.555,416.58" style="fill:none;stroke:#000000;stroke-width:0.5" />
<path d="M65.305,416.58L106.03,48.616L107.59,52.297L109.16,51.951L110.73,51.936L113.86,66.889L115.42,48.547L116.99,52.166L118.56,66.602L120.12,48.655L121.69,70.544L123.26,48.519L127.95,48.59L129.52,63.48L131.09,51.981L134.22,63.523L137.35,52.28L142.05,59.169L145.18,52.269L148.32,52.44L149.88,62.649L151.45,45.33L153.02,45.289L154.58,48.899L156.15,52.674L157.71,49.146L159.28,45.965L160.85,64.262L162.41,49.435L163.98,46.351L165.55,46.218L167.11,47.07L168.68,45.666L170.24,47.113L171.81,46.365L173.38,46.457L174.94,47.384L176.51,46.262L178.08,46.923L179.64,65.151L181.21,52.942L182.77,47.576L184.34,46.385L185.91,54.371L187.47,47.25L189.04,45.641L190.61,47.829L192.17,52.833L193.74,46.719L195.3,46.694L196.87,46.114L198.44,48.582L200,46.215L201.57,47.038L203.14,46.999L204.7,46.764L206.27,48.282L207.83,46.119L209.4,46.967L210.97,46.948L212.53,46.735L214.1,48.25L215.67,45.974L217.23,46.849L218.8,46.885L220.36,46.058L221.93,46.611L223.5,46.14L225.06,47.017L226.63,46.891L228.2,46.735L229.76,47.099L231.33,46.221L232.89,47.54L234.46,46.921L236.03,46.786L237.59,47.009L239.16,46.286L240.73,46.507L242.29,46.327L243.86,46.757L245.42,47.426L246.99,45.841L248.56,46.677L250.12,46.348L251.69,46.381L253.26,45.724L254.82,45.99L256.39,46.504L257.95,46.135L259.52,45.884L261.09,45.803L262.65,46.12L264.22,46.588L265.79,45.862L267.35,45.534L268.92,45.975L270.48,46.332L272.05,45.838L273.62,45.489L275.18,46.459L276.75,46.399L278.32,45.673L279.88,45.446L281.45,45.952L283.01,45.738L284.58,45.499L286.15,45.547L287.71,45.854L289.28,45.555L290.85,45.552L292.41,45.431L293.98,45.55L295.54,45.829L297.11,45.511L298.68,45.504L300.24,45.796L301.81,45.627L303.38,45.427L304.94,45.4L306.51,45.823L308.07,45.517L309.64,45.49L311.21,45.387L312.77,45.562L314.34,45.429L315.91,45.369L317.47,45.409L319.04,45.407L320.6,45.42L322.17,45.412L323.74,45.378L325.3,45.402L326.87,45.385L328.44,45.434L330,45.372L331.57,45.347L333.13,45.368L334.7,45.363L336.27,45.305L337.83,45.29L339.4,45.295L340.97,45.399L342.53,45.289L344.1,45.314L345.66,45.278L347.23,45.322L348.8,45.301L350.36,45.269L351.93,45.303L353.5,45.295L355.06,45.282L356.63,45.268L358.19,45.244L359.76,45.316L361.33,45.258L362.89,45.239L364.46,45.261L366.03,45.253L367.59,45.233L369.16,45.231L370.72,45.241L372.29,45.255L373.86,45.213L375.42,45.231L376.99,45.21L378.56,45.22L380.12,45.218L381.69,45.2L383.25,45.209L384.82,45.226L386.39,45.213L387.95,45.18L389.52,45.198L391.09,45.227L392.65,45.199L394.22,45.187L395.78,45.198L397.35,45.209L398.92,45.189L400.48,45.188L402.05,45.19L403.62,45.194L405.18,45.184L406.75,45.179L408.31,45.173L409.88,45.184L411.45,45.176L413.01,45.176L414.58,45.176L416.15,45.18L417.71,45.178L419.28,45.176L420.84,45.176L422.41,45.176L423.98,45.18L425.54,45.17L427.11,45.171L428.68,45.169L430.24,45.163L431.81,45.166L433.38,45.168L434.94,45.167L436.51,45.173L438.07,45.17L439.64,45.164L441.21,45.167L442.77,45.165L444.34,45.169L445.91,45.163L447.47,45.162L449.04,45.165L450.6,45.159L452.17,45.16L453.74,45.162L455.3,45.158L456.87,45.156L458.44,45.162L460,45.159L461.57,45.16L463.13,45.16L464.7,45.159L466.27,45.162L467.83,45.156L469.4,45.158L470.97,45.155L472.53,45.155L474.1,45.153L475.66,45.154L477.23,45.155L478.8,45.156L480.36,45.157L481.93,45.157L483.5,45.158L485.06,45.155L486.63,45.153L488.19,45.155L489.76,45.153L491.33,45.155L492.89,45.156L494.46,45.154L496.03,45.153L497.59,45.155L499.16,45.152L500.72,45.155L502.29,45.153L503.86,45.151L505.42,45.152L506.99,45.153L508.56,45.152L510.12,45.153L511.69,45.154L513.25,45.154L514.82,45.153L516.39,45.151L517.95,45.153L521.09,45.153L522.65,45.151L524.22,45.152L525.78,45.152L527.35,45.152L528.92,45.153L530.48,45.154L533.62,45.151L535.18,45.151L536.75,45.151L538.31,45.152L539.88,45.151L541.45,45.152L546.15,45.152L547.71,45.151L549.28,45.151L553.98,45.151L555.54,45.151L557.11,45.151L563.37,45.151L564.94,45.151L566.51,45.151L572.77,45.153L577.47,45.152L580.6,45.151L586.87,45.151L590,45.151L607.23,45.151L608.8,45.151L629.16,45.151L720,45.151" style="fill:none;stroke:#0000FF" />
</g>
</svg>
