<?xml version="1.0"?>
<!-- Generated by SVGo and Plotinum VG -->
<svg width="720pt" height="432pt" viewBox="0 0 720 432"
	xmlns="http://www.w3.org/2000/svg"
	xmlns:xlink="http://www.w3.org/1999/xlink">
<g transform="scale(1, -1) translate(0, -432)">
<path d="M0,0L720,0L720,432L0,432Z" style="fill:#FFFFFF" />
<text x="358.5" y="-420.45" transform="scale(1, -1)"
	style="font-family:Times;font-weight:normal;font-style:normal;font-size:12px"> </text>
<text x="379.31" y="-3.8613" transform="scale(1, -1)"
	style="font-family:Times;font-weight:normal;font-style:normal;font-size:12px">Costs</text>
<text x="62.805" y="-18.634" transform="scale(1, -1)"
	style="font-family:Times;font-weight:normal;font-style:normal;font-size:10px">0</text>
<text x="342.45" y="-18.634" transform="scale(1, -1)"
	style="font-family:Times;font-weight:normal;font-style:normal;font-size:10px">200</text>
<text x="627.1" y="-18.634" transform="scale(1, -1)"
	style="font-family:Times;font-weight:normal;font-style:normal;font-size:10px">400</text>
<path d="M65.305,28.263L65.305,36.263" style="fill:none;stroke:#000000;stroke-width:0.5" />
<path d="M349.95,28.263L349.95,36.263" style="fill:none;stroke:#000000;stroke-width:0.5" />
<path d="M634.6,28.263L634.6,36.263" style="fill:none;stroke:#000000;stroke-width:0.5" />
<path d="M207.63,32.263L207.63,36.263" style="fill:none;stroke:#000000;stroke-width:0.5" />
<path d="M492.28,32.263L492.28,36.263" style="fill:none;stroke:#000000;stroke-width:0.5" />
<path d="M65.305,36.263L720,36.263" style="fill:none;stroke:#000000;stroke-width:0.5" />
<g transform="rotate(90)">
<text x="152.55" y="11.555" transform="scale(1, -1)"
	style="font-family:Times;font-weight:normal;font-style:normal;font-size:12px">Number of trials (1000000 total)</text>
</g>
<text x="19.055" y="-148.93" transform="scale(1, -1)"
	style="font-family:Times;font-weight:normal;font-style:normal;font-size:10px">100000</text>
<text x="19.055" y="-362.9" transform="scale(1, -1)"
	style="font-family:Times;font-weight:normal;font-style:normal;font-size:10px">300000</text>
<path d="M51.555,152.14L59.555,152.14" style="fill:none;stroke:#000000;stroke-width:0.5" />
<path d="M51.555,366.11L59.555,366.11" style="fill:none;stroke:#000000;stroke-width:0.5" />
<path d="M55.555,259.12L59.555,259.12" style="fill:none;stroke:#000000;stroke-width:0.5" />
<path d="M59.555,45.151L59.555,416.58" style="fill:none;stroke:#000000;stroke-width:0.5" />
<path d="M65.305,416.58L96.616,48.668L102.31,55.753L103.73,72.925L105.16,62.868L108,55.749L113.7,66.641L115.12,65.987L117.96,62.68L119.39,65.932L122.23,51.937L123.66,63.112L125.08,55.434L126.5,59.064L127.93,62.679L130.77,70.393L133.62,45.248L135.04,52.543L136.47,48.813L137.89,48.56L139.31,45.256L140.74,59.797L142.16,56.513L143.58,57.198L145.01,81.487L146.43,46.125L147.85,45.649L149.28,45.313L150.7,45.967L152.12,61.567L153.55,58.335L154.97,46.718L156.39,47.79L157.82,48.05L159.24,46.493L160.66,46.503L162.09,48.149L163.51,48.33L164.93,47.7L166.36,51.941L167.78,48.986L169.2,48.687L170.63,58.148L172.05,47.833L173.47,48.527L174.89,47.58L176.32,48.773L177.74,48.338L179.16,78.091L180.59,57.533L182.01,48.728L183.43,51.294L184.86,50.356L186.28,46.979L187.7,47.875L189.13,48.919L190.55,49.233L191.97,48.958L193.4,50.771L194.82,49.419L196.24,47.283L197.67,48.329L199.09,48.514L200.51,47.916L201.94,49.078L203.36,49.215L204.78,48.335L206.21,49.781L207.63,48.849L209.05,47.467L210.48,49.696L211.9,46.906L213.32,47.165L214.75,47.724L216.17,47.808L217.59,49.896L219.02,49.582L220.44,48.679L221.86,48.035L223.29,47.783L224.71,47.473L226.13,46.03L227.56,48.405L228.98,49.421L230.4,47.404L231.83,49.926L233.25,49.603L234.67,46.43L236.09,47.27L237.52,47.678L238.94,47.372L240.36,47.829L241.79,48.131L243.21,46.787L244.63,48.346L246.06,47.308L247.48,46.444L248.9,47.026L250.33,47.379L251.75,46.431L253.17,46.35L254.6,47.407L256.02,47.208L257.44,47.738L258.87,49.467L260.29,47.047L261.71,46.091L263.14,46.062L264.56,46.112L265.98,47.23L267.41,47.354L268.83,46.485L270.25,46.269L271.68,46.468L273.1,46.124L274.52,45.985L275.95,46.01L277.37,46.169L278.79,46.048L280.22,46.417L281.64,46.391L283.06,46.158L284.49,46.847L285.91,46.398L287.33,45.966L288.76,45.964L290.18,46.065L291.6,45.955L293.02,46.075L294.45,46.692L295.87,46.034L297.29,46.172L298.72,46.181L300.14,45.828L301.56,45.744L302.99,45.861L304.41,45.856L305.83,45.906L307.26,46.081L308.68,45.988L310.1,45.754L311.53,45.877L312.95,45.8L314.37,45.651L315.8,45.8L317.22,45.763L318.64,45.718L320.07,45.886L321.49,45.817L322.91,45.638L324.34,45.748L325.76,45.589L327.18,45.539L328.61,45.617L330.03,45.5L331.45,45.557L332.88,45.623L334.3,45.649L335.72,45.534L337.15,45.59L338.57,45.538L339.99,45.407L341.42,45.446L342.84,45.501L344.26,45.483L345.69,45.586L347.11,45.62L348.53,45.437L349.95,45.394L351.38,45.412L352.8,45.384L354.22,45.397L355.65,45.412L357.07,45.413L358.49,45.376L359.92,45.432L361.34,45.392L362.76,45.367L364.19,45.406L365.61,45.355L367.03,45.334L368.46,45.327L369.88,45.343L371.3,45.336L372.73,45.344L374.15,45.393L375.57,45.317L377,45.328L378.42,45.29L379.84,45.292L381.27,45.301L382.69,45.301L384.11,45.28L385.54,45.301L386.96,45.288L388.38,45.275L389.81,45.24L391.23,45.256L392.65,45.263L394.08,45.26L395.5,45.263L396.92,45.27L398.35,45.243L399.77,45.274L401.19,45.233L402.62,45.249L404.04,45.25L405.46,45.239L406.88,45.216L408.31,45.223L409.73,45.218L411.15,45.225L412.58,45.236L414,45.216L415.42,45.198L416.85,45.209L418.27,45.198L419.69,45.209L421.12,45.206L422.54,45.205L423.96,45.213L425.39,45.221L426.81,45.202L428.23,45.182L429.66,45.191L431.08,45.204L432.5,45.183L433.93,45.183L435.35,45.198L436.77,45.19L438.2,45.201L439.62,45.183L441.04,45.185L442.47,45.179L443.89,45.18L445.31,45.17L446.74,45.177L448.16,45.176L449.58,45.185L451.01,45.174L452.43,45.179L453.85,45.176L455.28,45.17L456.7,45.171L458.12,45.175L459.55,45.172L460.97,45.179L462.39,45.171L463.81,45.17L465.24,45.162L466.66,45.163L468.08,45.165L469.51,45.168L470.93,45.164L472.35,45.171L473.78,45.168L475.2,45.161L476.62,45.165L478.05,45.165L479.47,45.17L480.89,45.162L482.32,45.168L483.74,45.162L485.16,45.158L486.59,45.16L488.01,45.165L489.43,45.157L490.86,45.163L492.28,45.161L493.7,45.159L495.13,45.156L496.55,45.156L497.97,45.158L499.4,45.158L500.82,45.159L502.24,45.157L503.67,45.156L505.09,45.152L506.51,45.154L507.94,45.151L509.36,45.157L510.78,45.158L512.21,45.159L513.63,45.152L515.05,45.155L516.48,45.157L517.9,45.155L519.32,45.152L522.17,45.155L523.59,45.156L525.01,45.157L526.44,45.156L527.86,45.155L529.28,45.154L530.71,45.152L532.13,45.151L533.55,45.154L534.98,45.155L536.4,45.151L537.82,45.154L539.25,45.154L540.67,45.152L542.09,45.151L544.94,45.154L546.36,45.152L547.79,45.151L549.21,45.152L550.63,45.151L552.06,45.151L554.9,45.151L557.75,45.152L560.6,45.151L562.02,45.151L564.87,45.154L567.71,45.152L570.56,45.152L571.98,45.151L573.41,45.151L576.25,45.151L581.94,45.154L583.37,45.151L584.79,45.151L597.6,45.151L603.29,45.151L606.14,45.151L608.99,45.151L631.76,45.151L658.8,45.151L687.27,45.151L720,45.151" style="fill:none;stroke:#0000FF" />
</g>
</svg>
