<?xml version="1.0"?>
<!-- Generated by SVGo and Plotinum VG -->
<svg width="720pt" height="432pt" viewBox="0 0 720 432"
	xmlns="http://www.w3.org/2000/svg"
	xmlns:xlink="http://www.w3.org/1999/xlink">
<g transform="scale(1, -1) translate(0, -432)">
<path d="M0,0L720,0L720,432L0,432Z" style="fill:#FFFFFF" />
<text x="358.5" y="-420.45" transform="scale(1, -1)"
	style="font-family:Times;font-weight:normal;font-style:normal;font-size:12px"> </text>
<text x="385.56" y="-3.8613" transform="scale(1, -1)"
	style="font-family:Times;font-weight:normal;font-style:normal;font-size:12px">Costs</text>
<text x="75.305" y="-18.634" transform="scale(1, -1)"
	style="font-family:Times;font-weight:normal;font-style:normal;font-size:10px">0</text>
<text x="382.05" y="-18.634" transform="scale(1, -1)"
	style="font-family:Times;font-weight:normal;font-style:normal;font-size:10px">200</text>
<text x="693.8" y="-18.634" transform="scale(1, -1)"
	style="font-family:Times;font-weight:normal;font-style:normal;font-size:10px">400</text>
<path d="M77.805,28.263L77.805,36.263" style="fill:none;stroke:#000000;stroke-width:0.5" />
<path d="M389.55,28.263L389.55,36.263" style="fill:none;stroke:#000000;stroke-width:0.5" />
<path d="M701.3,28.263L701.3,36.263" style="fill:none;stroke:#000000;stroke-width:0.5" />
<path d="M233.68,32.263L233.68,36.263" style="fill:none;stroke:#000000;stroke-width:0.5" />
<path d="M545.42,32.263L545.42,36.263" style="fill:none;stroke:#000000;stroke-width:0.5" />
<path d="M77.805,36.263L720,36.263" style="fill:none;stroke:#000000;stroke-width:0.5" />
<g transform="rotate(90)">
<text x="152.55" y="11.555" transform="scale(1, -1)"
	style="font-family:Times;font-weight:normal;font-style:normal;font-size:12px">Number of trials (1000000 total)</text>
</g>
<text x="24.055" y="-89.392" transform="scale(1, -1)"
	style="font-family:Times;font-weight:normal;font-style:normal;font-size:10px">25000.00</text>
<text x="19.055" y="-231.74" transform="scale(1, -1)"
	style="font-family:Times;font-weight:normal;font-style:normal;font-size:10px">100000.00</text>
<text x="19.055" y="-374.08" transform="scale(1, -1)"
	style="font-family:Times;font-weight:normal;font-style:normal;font-size:10px">175000.00</text>
<path d="M64.055,92.598L72.055,92.598" style="fill:none;stroke:#000000;stroke-width:0.5" />
<path d="M64.055,234.94L72.055,234.94" style="fill:none;stroke:#000000;stroke-width:0.5" />
<path d="M64.055,377.29L72.055,377.29" style="fill:none;stroke:#000000;stroke-width:0.5" />
<path d="M68.055,163.77L72.055,163.77" style="fill:none;stroke:#000000;stroke-width:0.5" />
<path d="M68.055,306.12L72.055,306.12" style="fill:none;stroke:#000000;stroke-width:0.5" />
<path d="M72.055,45.151L72.055,416.58" style="fill:none;stroke:#000000;stroke-width:0.5" />
<path d="M77.805,416.58L118.33,63.244L121.45,52.047L123.01,71.085L129.24,48.617L132.36,167.82L133.92,48.583L137.04,48.706L138.6,62.861L140.15,65.909L141.71,52.077L143.27,52.039L144.83,62.383L146.39,73.732L149.51,84.86L152.62,48.613L154.18,74.254L155.74,70.709L158.86,45.277L160.42,59.475L161.98,55.941L163.53,46.374L165.09,150.08L166.65,45.62L169.77,59.49L171.33,150.52L172.89,58.158L174.45,45.571L176,50.76L177.56,53.781L179.12,46.079L180.68,46.184L182.24,60.496L183.8,48.247L185.36,47.651L186.92,52.396L188.47,47.165L190.03,48.917L191.59,48.552L193.15,52.035L194.71,56.044L196.27,49.268L197.83,48.826L199.39,53.798L200.94,58.471L202.5,46.611L204.06,59.407L205.62,53.449L207.18,49.725L208.74,59.283L210.3,64.744L211.86,53.607L213.41,48.507L214.97,55.611L216.53,62.724L218.09,51.007L219.65,80.081L221.21,50.433L222.77,51.549L224.32,54.258L225.88,87.61L227.44,59.075L229,49.388L230.56,51.487L232.12,60.162L233.68,61.599L235.24,48.44L236.79,65.649L238.35,54.1L239.91,56.175L241.47,56.524L243.03,64.882L244.59,49.082L246.15,48.551L247.71,60.193L249.26,58.65L250.82,48.114L252.38,46.901L253.94,53.043L255.5,50.515L257.06,50.98L258.62,76.177L260.18,51.415L261.73,46.97L263.29,52.76L264.85,50.263L266.41,51.21L267.97,47.461L269.53,53.172L271.09,50.891L272.65,48.663L274.2,48.985L275.76,51.899L277.32,50.067L278.88,48.79L280.44,50.953L282,50.988L283.56,48.904L285.12,48.699L286.67,51.53L288.23,53.256L289.79,47.736L291.35,51.857L292.91,50.168L294.47,51.407L296.03,50.274L297.59,53.347L299.14,50.175L300.7,48.771L302.26,52.646L303.82,54.377L305.38,49.122L306.94,47.431L308.5,50.378L310.05,50.485L311.61,49.885L313.17,56.063L314.73,49.667L316.29,47.92L317.85,49.344L319.41,49.991L320.97,50.289L322.52,47.44L324.08,49.112L325.64,49.581L327.2,49.211L328.76,47.034L330.32,51.022L331.88,48.067L333.44,47.298L334.99,49.49L336.55,48.955L338.11,47.302L339.67,46.884L341.23,48.473L342.79,48.019L344.35,46.801L345.91,46.909L347.46,47.364L349.02,46.772L350.58,47.585L352.14,47.125L353.7,47.915L355.26,46.601L356.82,46.989L358.38,47.596L359.93,46.934L361.49,46.478L363.05,47.807L364.61,47.152L366.17,46.886L367.73,46.907L369.29,46.717L370.85,47.006L372.4,46.721L373.96,47.121L375.52,47.387L377.08,46.588L378.64,46.596L380.2,47.131L381.76,47.144L383.32,46.167L384.87,46.983L386.43,46.677L387.99,46.29L389.55,46.911L391.11,46.901L392.67,46.345L394.23,46.182L395.78,46.617L397.34,46.522L398.9,46.25L400.46,45.994L402.02,46.21L403.58,46.169L405.14,46.235L406.7,46.059L408.25,46.334L409.81,45.869L411.37,45.84L412.93,45.962L414.49,45.846L416.05,45.766L417.61,46.007L419.17,45.837L420.72,45.707L422.28,45.717L423.84,45.649L425.4,45.812L426.96,45.685L428.52,45.664L430.08,45.728L431.64,45.7L433.19,45.552L434.75,45.761L436.31,45.649L437.87,45.55L439.43,45.652L440.99,45.628L442.55,45.624L444.11,45.559L445.66,45.603L447.22,45.577L448.78,45.529L450.34,45.539L451.9,45.529L453.46,45.607L455.02,45.478L456.58,45.516L458.13,45.578L459.69,45.491L461.25,45.461L462.81,45.548L464.37,45.425L465.93,45.421L467.49,45.446L469.05,45.455L470.6,45.402L472.16,45.385L473.72,45.408L475.28,45.33L476.84,45.354L478.4,45.362L479.96,45.4L481.51,45.335L483.07,45.318L484.63,45.343L486.19,45.339L487.75,45.303L489.31,45.322L490.87,45.296L492.43,45.313L493.98,45.298L495.54,45.286L497.1,45.29L498.66,45.273L500.22,45.252L501.78,45.265L503.34,45.269L504.9,45.239L506.45,45.241L508.01,45.256L509.57,45.256L511.13,45.267L512.69,45.252L514.25,45.218L515.81,45.235L517.37,45.239L518.92,45.222L520.48,45.206L522.04,45.225L523.6,45.199L525.16,45.22L526.72,45.231L528.28,45.227L529.84,45.206L531.39,45.203L532.95,45.187L534.51,45.203L536.07,45.195L537.63,45.203L539.19,45.187L540.75,45.197L542.31,45.187L543.86,45.195L545.42,45.203L546.98,45.195L548.54,45.186L550.1,45.189L551.66,45.184L553.22,45.193L554.77,45.18L556.33,45.182L557.89,45.184L559.45,45.178L561.01,45.172L562.57,45.167L564.13,45.168L565.69,45.172L567.24,45.187L568.8,45.159L570.36,45.174L571.92,45.163L573.48,45.18L575.04,45.176L576.6,45.168L578.16,45.174L579.71,45.168L581.27,45.167L582.83,45.165L584.39,45.159L585.95,45.157L587.51,45.159L589.07,45.167L590.63,45.167L592.18,45.17L593.74,45.165L595.3,45.151L596.86,45.159L598.42,45.167L599.98,45.157L601.54,45.151L603.1,45.151L604.65,45.155L606.21,45.153L607.77,45.157L609.33,45.155L610.89,45.159L612.45,45.153L614.01,45.157L615.57,45.157L617.12,45.155L618.68,45.153L620.24,45.155L621.8,45.155L623.36,45.155L624.92,45.155L628.04,45.151L629.59,45.153L631.15,45.153L632.71,45.151L634.27,45.151L635.83,45.151L637.39,45.151L643.62,45.151L646.74,45.153L648.3,45.151L649.86,45.153L651.42,45.151L652.97,45.153L654.53,45.153L656.09,45.151L657.65,45.151L660.77,45.151L662.33,45.151L671.68,45.151L676.36,45.151L677.91,45.153L679.47,45.151L685.71,45.151L701.3,45.151L707.53,45.151L720,45.151" style="fill:none;stroke:#0000FF" />
</g>
</svg>
