<?xml version="1.0"?>
<!-- Generated by SVGo and Plotinum VG -->
<svg width="720pt" height="432pt" viewBox="0 0 720 432"
	xmlns="http://www.w3.org/2000/svg"
	xmlns:xlink="http://www.w3.org/1999/xlink">
<g transform="scale(1, -1) translate(0, -432)">
<path d="M0,0L720,0L720,432L0,432Z" style="fill:#FFFFFF" />
<text x="358.5" y="-420.45" transform="scale(1, -1)"
	style="font-family:Times;font-weight:normal;font-style:normal;font-size:12px"> </text>
<text x="385.56" y="-3.8613" transform="scale(1, -1)"
	style="font-family:Times;font-weight:normal;font-style:normal;font-size:12px">Costs</text>
<text x="75.305" y="-18.634" transform="scale(1, -1)"
	style="font-family:Times;font-weight:normal;font-style:normal;font-size:10px">0</text>
<text x="340.7" y="-18.634" transform="scale(1, -1)"
	style="font-family:Times;font-weight:normal;font-style:normal;font-size:10px">200</text>
<text x="611.1" y="-18.634" transform="scale(1, -1)"
	style="font-family:Times;font-weight:normal;font-style:normal;font-size:10px">400</text>
<path d="M77.805,28.263L77.805,36.263" style="fill:none;stroke:#000000;stroke-width:0.5" />
<path d="M348.2,28.263L348.2,36.263" style="fill:none;stroke:#000000;stroke-width:0.5" />
<path d="M618.6,28.263L618.6,36.263" style="fill:none;stroke:#000000;stroke-width:0.5" />
<path d="M213,32.263L213,36.263" style="fill:none;stroke:#000000;stroke-width:0.5" />
<path d="M483.4,32.263L483.4,36.263" style="fill:none;stroke:#000000;stroke-width:0.5" />
<path d="M77.805,36.263L720,36.263" style="fill:none;stroke:#000000;stroke-width:0.5" />
<g transform="rotate(90)">
<text x="152.55" y="11.555" transform="scale(1, -1)"
	style="font-family:Times;font-weight:normal;font-style:normal;font-size:12px">Number of trials (1000000 total)</text>
</g>
<text x="24.055" y="-92.039" transform="scale(1, -1)"
	style="font-family:Times;font-weight:normal;font-style:normal;font-size:10px">25000.00</text>
<text x="19.055" y="-242.33" transform="scale(1, -1)"
	style="font-family:Times;font-weight:normal;font-style:normal;font-size:10px">100000.00</text>
<text x="19.055" y="-392.61" transform="scale(1, -1)"
	style="font-family:Times;font-weight:normal;font-style:normal;font-size:10px">175000.00</text>
<path d="M64.055,95.245L72.055,95.245" style="fill:none;stroke:#000000;stroke-width:0.5" />
<path d="M64.055,245.53L72.055,245.53" style="fill:none;stroke:#000000;stroke-width:0.5" />
<path d="M64.055,395.82L72.055,395.82" style="fill:none;stroke:#000000;stroke-width:0.5" />
<path d="M68.055,170.39L72.055,170.39" style="fill:none;stroke:#000000;stroke-width:0.5" />
<path d="M68.055,320.67L72.055,320.67" style="fill:none;stroke:#000000;stroke-width:0.5" />
<path d="M72.055,45.151L72.055,416.58" style="fill:none;stroke:#000000;stroke-width:0.5" />
<path d="M77.805,416.58L107.55,52.083L114.31,55.621L117.01,98.24L118.36,62.993L119.72,86.913L122.42,51.992L125.12,79.717L126.48,79.899L129.18,51.918L131.88,77.729L133.24,65.743L134.59,52.061L135.94,73.874L137.29,83.667L138.64,90.634L144.05,83.895L145.4,90.995L146.76,46.175L148.11,45.484L149.46,98.365L150.81,73.561L152.16,45.28L153.52,79.37L154.87,64.284L156.22,48.68L157.57,50.808L158.92,54.183L160.28,81.569L161.63,62.374L162.98,46.794L164.33,50.506L165.68,52.155L167.04,51.007L168.39,51.357L169.74,46.7L171.09,51.536L172.44,50.461L173.8,55.549L175.15,54.281L176.5,53.359L177.85,57.884L179.2,55.657L180.56,57.615L181.91,49.76L183.26,55.625L184.61,60.404L185.96,60.467L187.32,57.968L188.67,55.124L190.02,57.878L191.37,61.525L192.72,67.706L194.08,58.715L195.43,55.18L196.78,58.717L198.13,62.763L199.48,59.94L200.84,57.018L202.19,59.05L203.54,60.629L204.89,62.244L206.24,55.118L207.6,56.407L208.95,60.947L210.3,58.28L211.65,58.03L213,51.968L214.36,55.976L215.71,57.829L217.06,57.731L218.41,54.237L219.76,55.495L221.12,59.815L222.47,55.549L223.82,48.512L225.17,53.716L226.52,57.317L227.88,54.994L229.23,50.7L230.58,50.778L231.93,54.657L233.28,54.455L234.64,51.301L235.99,52.61L237.34,52.856L238.69,50.808L240.04,51.061L241.4,50.966L242.75,50.323L244.1,52.165L245.45,51.183L246.8,51.253L248.16,50.82L249.51,51.059L250.86,52.151L252.21,51.622L253.56,51.548L254.92,50.582L256.27,51.966L257.62,51.692L258.97,52.383L260.32,51.986L261.68,51.035L263.03,51.778L264.38,52.163L265.73,51.728L267.08,51.011L268.44,51.171L269.79,51.63L271.14,50.51L272.49,50.552L273.84,50.784L275.2,51.612L276.55,51.069L277.9,50.095L279.25,49.828L280.6,50.49L281.96,49.987L283.31,49.58L284.66,49.147L286.01,49.47L287.36,49.688L288.72,48.874L290.07,48.42L291.42,48.927L292.77,49.434L294.12,49.075L295.48,48.009L296.83,47.939L298.18,48.716L299.53,48.428L300.88,47.857L302.24,47.899L303.59,48.127L304.94,48.193L306.29,47.476L307.64,47.838L309,48.005L310.35,47.64L311.7,47.488L313.05,47.49L314.4,47.311L315.75,47.462L317.11,47.548L318.46,47.305L319.81,47.402L321.16,47.344L322.51,47.362L323.87,47.265L325.22,47.384L326.57,47.243L327.92,47.213L329.27,47.137L330.63,47.159L331.98,47.227L333.33,47.165L334.68,47.043L336.03,46.999L337.39,46.903L338.74,46.794L340.09,46.893L341.44,46.863L342.79,46.708L344.15,46.596L345.5,46.608L346.85,46.58L348.2,46.656L349.55,46.384L350.91,46.416L352.26,46.438L353.61,46.396L354.96,46.298L356.31,46.223L357.67,46.205L359.02,46.263L360.37,46.221L361.72,46.077L363.07,46.135L364.43,46.063L365.78,46.015L367.13,45.941L368.48,45.969L369.83,46.007L371.19,45.899L372.54,45.877L373.89,45.885L375.24,45.877L376.59,45.893L377.95,45.807L379.3,45.785L380.65,45.827L382,45.809L383.35,45.773L384.71,45.69L386.06,45.753L387.41,45.656L388.76,45.714L390.11,45.716L391.47,45.66L392.82,45.638L394.17,45.644L395.52,45.64L396.87,45.608L398.23,45.586L399.58,45.63L400.93,45.622L402.28,45.552L403.63,45.576L404.99,45.508L406.34,45.556L407.69,45.572L409.04,45.49L410.39,45.488L411.75,45.504L413.1,45.482L414.45,45.492L415.8,45.462L417.15,45.43L418.51,45.418L419.86,45.47L421.21,45.426L422.56,45.428L423.91,45.39L425.27,45.388L426.62,45.362L427.97,45.388L429.32,45.376L430.67,45.348L432.03,45.338L433.38,45.354L434.73,45.348L436.08,45.346L437.43,45.314L438.79,45.268L440.14,45.298L441.49,45.294L442.84,45.29L444.19,45.266L445.55,45.284L446.9,45.3L448.25,45.288L449.6,45.25L450.95,45.26L452.31,45.286L453.66,45.298L455.01,45.266L456.36,45.268L457.71,45.254L459.07,45.262L460.42,45.242L461.77,45.234L463.12,45.213L464.47,45.217L465.83,45.244L467.18,45.246L468.53,45.228L469.88,45.234L471.23,45.211L472.59,45.209L473.94,45.222L475.29,45.228L476.64,45.201L477.99,45.191L479.35,45.203L480.7,45.205L482.05,45.213L483.4,45.193L484.75,45.189L486.11,45.189L487.46,45.213L488.81,45.179L490.16,45.193L491.51,45.185L492.87,45.169L494.22,45.181L495.57,45.201L496.92,45.189L498.27,45.181L499.63,45.181L500.98,45.179L502.33,45.179L503.68,45.173L505.03,45.175L506.39,45.169L507.74,45.177L509.09,45.175L510.44,45.173L511.79,45.167L513.15,45.169L514.5,45.165L515.85,45.167L517.2,45.165L518.55,45.163L519.91,45.163L521.26,45.175L522.61,45.169L523.96,45.157L525.31,45.175L526.67,45.161L528.02,45.163L529.37,45.159L530.72,45.161L532.07,45.165L533.43,45.159L534.78,45.161L536.13,45.155L537.48,45.155L538.83,45.169L540.19,45.155L541.54,45.157L542.89,45.159L544.24,45.155L545.59,45.159L546.95,45.159L548.3,45.159L549.65,45.157L551,45.161L552.35,45.157L553.71,45.157L555.06,45.157L556.41,45.155L557.76,45.153L559.11,45.153L560.47,45.153L561.82,45.153L563.17,45.155L564.52,45.155L565.87,45.155L567.23,45.151L568.58,45.153L569.93,45.153L571.28,45.151L572.63,45.151L575.34,45.151L576.69,45.151L578.04,45.153L579.39,45.153L580.75,45.151L583.45,45.153L586.15,45.153L590.21,45.151L594.26,45.151L601.02,45.153L603.73,45.155L605.08,45.151L611.84,45.151L617.25,45.151L619.95,45.151L621.3,45.151L629.42,45.151L632.12,45.153L646.99,45.151L720,45.151" style="fill:none;stroke:#0000FF" />
</g>
</svg>
