<?xml version="1.0"?>
<!-- Generated by SVGo and Plotinum VG -->
<svg width="720pt" height="432pt" viewBox="0 0 720 432"
	xmlns="http://www.w3.org/2000/svg"
	xmlns:xlink="http://www.w3.org/1999/xlink">
<g transform="scale(1, -1) translate(0, -432)">
<path d="M0,0L720,0L720,432L0,432Z" style="fill:#FFFFFF" />
<text x="358.5" y="-420.45" transform="scale(1, -1)"
	style="font-family:Times;font-weight:normal;font-style:normal;font-size:12px"> </text>
<text x="379.31" y="-3.8613" transform="scale(1, -1)"
	style="font-family:Times;font-weight:normal;font-style:normal;font-size:12px">Costs</text>
<text x="62.805" y="-18.634" transform="scale(1, -1)"
	style="font-family:Times;font-weight:normal;font-style:normal;font-size:10px">0</text>
<text x="224.82" y="-18.634" transform="scale(1, -1)"
	style="font-family:Times;font-weight:normal;font-style:normal;font-size:10px">100</text>
<text x="391.83" y="-18.634" transform="scale(1, -1)"
	style="font-family:Times;font-weight:normal;font-style:normal;font-size:10px">200</text>
<text x="558.85" y="-18.634" transform="scale(1, -1)"
	style="font-family:Times;font-weight:normal;font-style:normal;font-size:10px">300</text>
<path d="M65.305,28.263L65.305,36.263" style="fill:none;stroke:#000000;stroke-width:0.5" />
<path d="M232.32,28.263L232.32,36.263" style="fill:none;stroke:#000000;stroke-width:0.5" />
<path d="M399.33,28.263L399.33,36.263" style="fill:none;stroke:#000000;stroke-width:0.5" />
<path d="M566.35,28.263L566.35,36.263" style="fill:none;stroke:#000000;stroke-width:0.5" />
<path d="M98.708,32.263L98.708,36.263" style="fill:none;stroke:#000000;stroke-width:0.5" />
<path d="M132.11,32.263L132.11,36.263" style="fill:none;stroke:#000000;stroke-width:0.5" />
<path d="M165.51,32.263L165.51,36.263" style="fill:none;stroke:#000000;stroke-width:0.5" />
<path d="M198.92,32.263L198.92,36.263" style="fill:none;stroke:#000000;stroke-width:0.5" />
<path d="M265.72,32.263L265.72,36.263" style="fill:none;stroke:#000000;stroke-width:0.5" />
<path d="M299.12,32.263L299.12,36.263" style="fill:none;stroke:#000000;stroke-width:0.5" />
<path d="M332.53,32.263L332.53,36.263" style="fill:none;stroke:#000000;stroke-width:0.5" />
<path d="M365.93,32.263L365.93,36.263" style="fill:none;stroke:#000000;stroke-width:0.5" />
<path d="M432.74,32.263L432.74,36.263" style="fill:none;stroke:#000000;stroke-width:0.5" />
<path d="M466.14,32.263L466.14,36.263" style="fill:none;stroke:#000000;stroke-width:0.5" />
<path d="M499.54,32.263L499.54,36.263" style="fill:none;stroke:#000000;stroke-width:0.5" />
<path d="M532.94,32.263L532.94,36.263" style="fill:none;stroke:#000000;stroke-width:0.5" />
<path d="M599.75,32.263L599.75,36.263" style="fill:none;stroke:#000000;stroke-width:0.5" />
<path d="M633.15,32.263L633.15,36.263" style="fill:none;stroke:#000000;stroke-width:0.5" />
<path d="M666.56,32.263L666.56,36.263" style="fill:none;stroke:#000000;stroke-width:0.5" />
<path d="M699.96,32.263L699.96,36.263" style="fill:none;stroke:#000000;stroke-width:0.5" />
<path d="M65.305,36.263L720,36.263" style="fill:none;stroke:#000000;stroke-width:0.5" />
<g transform="rotate(90)">
<text x="152.55" y="11.555" transform="scale(1, -1)"
	style="font-family:Times;font-weight:normal;font-style:normal;font-size:12px">Number of trials (1000000 total)</text>
</g>
<text x="24.055" y="-87.149" transform="scale(1, -1)"
	style="font-family:Times;font-weight:normal;font-style:normal;font-size:10px">50000</text>
<text x="19.055" y="-222.76" transform="scale(1, -1)"
	style="font-family:Times;font-weight:normal;font-style:normal;font-size:10px">200000</text>
<text x="19.055" y="-358.37" transform="scale(1, -1)"
	style="font-family:Times;font-weight:normal;font-style:normal;font-size:10px">350000</text>
<path d="M51.555,90.355L59.555,90.355" style="fill:none;stroke:#000000;stroke-width:0.5" />
<path d="M51.555,225.97L59.555,225.97" style="fill:none;stroke:#000000;stroke-width:0.5" />
<path d="M51.555,361.58L59.555,361.58" style="fill:none;stroke:#000000;stroke-width:0.5" />
<path d="M55.555,158.16L59.555,158.16" style="fill:none;stroke:#000000;stroke-width:0.5" />
<path d="M55.555,293.77L59.555,293.77" style="fill:none;stroke:#000000;stroke-width:0.5" />
<path d="M59.555,45.151L59.555,416.58" style="fill:none;stroke:#000000;stroke-width:0.5" />
<path d="M65.305,416.58L110.4,55.547L113.74,68.209L122.09,71.095L123.76,71.376L128.77,59.341L132.11,68.053L135.45,48.543L138.79,59.154L147.14,66.518L148.81,62.483L150.48,48.514L158.83,68.928L160.5,80.591L165.51,68.075L167.18,49.434L168.85,45.937L170.52,56.925L172.19,46.514L173.86,45.555L177.2,69.576L178.87,45.38L180.54,48.11L182.21,45.373L183.88,45.755L185.55,46.141L187.22,47.052L188.9,49.993L190.57,46.49L192.24,45.987L193.91,45.879L195.58,48.468L197.25,47.231L198.92,68.127L200.59,62.691L202.26,45.784L203.93,47.355L205.6,49.867L207.27,47.766L208.94,47.697L210.61,46.57L212.28,45.874L213.95,47.846L215.62,48.009L217.29,49.646L218.96,48.566L220.63,45.998L222.3,48.69L223.97,48.285L225.64,47.713L227.31,48.047L228.98,47.213L230.65,46.596L232.32,47.474L233.99,48.773L235.66,46.852L237.33,46.099L239,46.119L240.67,47.617L242.34,48.066L244.01,49.39L245.68,46.28L247.35,48.178L249.02,47.565L250.69,46.535L252.36,46.102L254.03,48.329L255.7,47.659L257.37,47.93L259.04,49.092L260.71,48.838L262.38,47.072L264.05,46.749L265.72,47.623L267.39,46.772L269.06,45.665L270.73,47.752L272.4,48.942L274.07,46.169L275.74,45.587L277.41,46.711L279.08,45.789L280.75,46.917L282.42,48.468L284.09,46.881L285.76,45.713L287.43,45.51L289.1,45.94L290.77,45.757L292.44,46.848L294.11,48.861L295.78,47.228L297.45,45.569L299.12,46.847L300.79,47.339L302.46,45.835L304.13,46.242L305.81,46.214L307.48,45.75L309.15,45.715L310.82,47.004L312.49,46.708L314.16,45.634L315.83,45.738L317.5,45.936L319.17,45.692L320.84,45.702L322.51,45.887L324.18,45.786L325.85,45.641L327.52,45.724L329.19,45.849L330.86,45.768L332.53,45.511L334.2,46.582L335.87,45.581L337.54,45.613L339.21,45.783L340.88,45.756L342.55,45.769L344.22,45.707L345.89,45.554L347.56,45.471L349.23,45.626L350.9,45.645L352.57,45.688L354.24,45.756L355.91,45.65L357.58,45.59L359.25,45.594L360.92,45.561L362.59,45.482L364.26,45.558L365.93,45.622L367.6,45.616L369.27,45.456L370.94,45.388L372.61,45.454L374.28,45.445L375.95,45.53L377.62,45.631L379.29,45.486L380.96,45.349L382.63,45.501L384.3,45.41L385.97,45.355L387.64,45.419L389.31,45.421L390.98,45.329L392.65,45.423L394.32,45.55L395.99,45.463L397.66,45.334L399.33,45.336L401,45.384L402.67,45.263L404.34,45.34L406.01,45.48L407.68,45.379L409.35,45.236L411.02,45.319L412.69,45.332L414.36,45.242L416.03,45.348L417.7,45.339L419.37,45.256L421.04,45.217L422.71,45.258L424.39,45.244L426.06,45.262L427.73,45.275L429.4,45.297L431.07,45.213L432.74,45.235L434.41,45.298L436.08,45.261L437.75,45.222L439.42,45.255L441.09,45.234L442.76,45.218L444.43,45.233L446.1,45.28L447.77,45.209L449.44,45.215L451.11,45.223L452.78,45.199L454.45,45.216L456.12,45.204L457.79,45.209L459.46,45.191L461.13,45.208L462.8,45.2L464.47,45.201L466.14,45.197L467.81,45.191L469.48,45.196L471.15,45.199L472.82,45.191L474.49,45.197L476.16,45.191L477.83,45.203L479.5,45.191L481.17,45.179L482.84,45.178L484.51,45.182L486.18,45.193L487.85,45.187L489.52,45.189L491.19,45.182L492.86,45.174L494.53,45.175L496.2,45.181L497.87,45.169L499.54,45.175L501.21,45.184L502.88,45.17L504.55,45.166L506.22,45.178L507.89,45.168L509.56,45.168L511.23,45.177L512.9,45.177L514.57,45.159L516.24,45.163L517.91,45.168L519.58,45.166L521.25,45.162L522.92,45.173L524.59,45.164L526.26,45.168L527.93,45.166L529.6,45.161L531.27,45.167L532.94,45.161L534.61,45.162L536.28,45.159L537.95,45.157L539.62,45.16L541.29,45.163L542.97,45.161L544.64,45.158L546.31,45.158L547.98,45.156L549.65,45.157L551.32,45.159L552.99,45.153L554.66,45.153L556.33,45.155L558,45.159L559.67,45.158L561.34,45.157L563.01,45.153L564.68,45.152L566.35,45.152L568.02,45.155L569.69,45.152L571.36,45.158L573.03,45.155L574.7,45.155L578.04,45.152L579.71,45.151L581.38,45.152L583.05,45.153L584.72,45.153L586.39,45.154L588.06,45.154L589.73,45.152L591.4,45.152L593.07,45.153L594.74,45.151L596.41,45.152L598.08,45.152L599.75,45.153L601.42,45.151L604.76,45.153L606.43,45.151L609.77,45.153L611.44,45.151L613.11,45.151L614.78,45.153L618.12,45.151L619.79,45.151L621.46,45.151L623.13,45.152L624.8,45.152L626.47,45.152L628.14,45.153L629.81,45.151L631.48,45.152L633.15,45.151L634.82,45.152L636.49,45.152L638.16,45.151L639.83,45.152L641.5,45.152L646.51,45.151L656.53,45.151L658.2,45.152L659.87,45.151L661.55,45.152L681.59,45.151L683.26,45.151L696.62,45.151L703.3,45.151L708.31,45.151L720,45.151" style="fill:none;stroke:#0000FF" />
</g>
</svg>
