<?xml version="1.0"?>
<!-- Generated by SVGo and Plotinum VG -->
<svg width="720pt" height="432pt" viewBox="0 0 720 432"
	xmlns="http://www.w3.org/2000/svg"
	xmlns:xlink="http://www.w3.org/1999/xlink">
<g transform="scale(1, -1) translate(0, -432)">
<path d="M0,0L720,0L720,432L0,432Z" style="fill:#FFFFFF" />
<text x="358.5" y="-420.45" transform="scale(1, -1)"
	style="font-family:Times;font-weight:normal;font-style:normal;font-size:12px"> </text>
<text x="385.56" y="-3.8613" transform="scale(1, -1)"
	style="font-family:Times;font-weight:normal;font-style:normal;font-size:12px">Costs</text>
<text x="75.305" y="-18.634" transform="scale(1, -1)"
	style="font-family:Times;font-weight:normal;font-style:normal;font-size:10px">0</text>
<text x="343.58" y="-18.634" transform="scale(1, -1)"
	style="font-family:Times;font-weight:normal;font-style:normal;font-size:10px">200</text>
<text x="616.85" y="-18.634" transform="scale(1, -1)"
	style="font-family:Times;font-weight:normal;font-style:normal;font-size:10px">400</text>
<path d="M77.805,28.263L77.805,36.263" style="fill:none;stroke:#000000;stroke-width:0.5" />
<path d="M351.08,28.263L351.08,36.263" style="fill:none;stroke:#000000;stroke-width:0.5" />
<path d="M624.35,28.263L624.35,36.263" style="fill:none;stroke:#000000;stroke-width:0.5" />
<path d="M214.44,32.263L214.44,36.263" style="fill:none;stroke:#000000;stroke-width:0.5" />
<path d="M487.72,32.263L487.72,36.263" style="fill:none;stroke:#000000;stroke-width:0.5" />
<path d="M77.805,36.263L720,36.263" style="fill:none;stroke:#000000;stroke-width:0.5" />
<g transform="rotate(90)">
<text x="152.55" y="11.555" transform="scale(1, -1)"
	style="font-family:Times;font-weight:normal;font-style:normal;font-size:12px">Number of trials (1000000 total)</text>
</g>
<text x="24.055" y="-92.036" transform="scale(1, -1)"
	style="font-family:Times;font-weight:normal;font-style:normal;font-size:10px">25000.00</text>
<text x="19.055" y="-242.31" transform="scale(1, -1)"
	style="font-family:Times;font-weight:normal;font-style:normal;font-size:10px">100000.00</text>
<text x="19.055" y="-392.59" transform="scale(1, -1)"
	style="font-family:Times;font-weight:normal;font-style:normal;font-size:10px">175000.00</text>
<path d="M64.055,95.241L72.055,95.241" style="fill:none;stroke:#000000;stroke-width:0.5" />
<path d="M64.055,245.52L72.055,245.52" style="fill:none;stroke:#000000;stroke-width:0.5" />
<path d="M64.055,395.79L72.055,395.79" style="fill:none;stroke:#000000;stroke-width:0.5" />
<path d="M68.055,170.38L72.055,170.38" style="fill:none;stroke:#000000;stroke-width:0.5" />
<path d="M68.055,320.65L72.055,320.65" style="fill:none;stroke:#000000;stroke-width:0.5" />
<path d="M72.055,45.151L72.055,416.58" style="fill:none;stroke:#000000;stroke-width:0.5" />
<path d="M77.805,416.58L109.23,70.672L110.6,68.117L113.33,49.179L114.7,82.221L116.06,71.187L117.43,48.548L118.8,48.59L120.16,60.307L121.53,49.235L122.89,52.01L124.26,52.202L125.63,86.213L128.36,48.618L129.73,86.229L131.09,59.882L132.46,71.8L133.83,76.154L135.19,52.735L136.56,52.13L137.93,97.056L139.29,48.566L140.66,48.726L142.02,46.612L143.39,62.477L144.76,70.836L146.12,51.717L147.49,71.964L148.86,46.822L150.22,79.685L151.59,47.696L152.96,71.874L154.32,65.262L155.69,61.792L157.05,53.581L158.42,52.621L159.79,46.526L161.15,82.247L162.52,57.406L163.89,57.742L165.25,50.179L166.62,52.323L167.99,52.29L169.35,53.729L170.72,54.713L172.08,51.216L173.45,49.672L174.82,77.557L176.18,55.474L177.55,61.608L178.92,69.5L180.28,54.667L181.65,56.807L183.02,57.191L184.38,54.841L185.75,60.119L187.11,54.737L188.48,61.427L189.85,57.316L191.21,55.276L192.58,59.94L193.95,55.831L195.31,54.911L196.68,53.22L198.05,58.985L199.41,56.468L200.78,55.194L202.14,55.466L203.51,55.753L204.88,55.544L206.24,56.16L207.61,56.274L208.98,55.48L210.34,58.446L211.71,54.03L213.08,58.109L214.44,55.478L215.81,57.65L217.17,56.274L218.54,51.85L219.91,54.999L221.27,55.715L222.64,55.747L224.01,51.639L225.37,53.342L226.74,56.428L228.11,53.354L229.47,53.849L230.84,57.189L232.2,51.501L233.57,54.855L234.94,54.661L236.3,53.591L237.67,52.916L239.04,53.713L240.4,52.391L241.77,52.449L243.14,50.914L244.5,53.885L245.87,51.808L247.23,53.174L248.6,51.952L249.97,51.956L251.33,52.681L252.7,51.94L254.07,52.154L255.43,51.749L256.8,50.353L258.17,53.332L259.53,50.647L260.9,51.98L262.27,51.988L263.63,50.9L265,51.088L266.36,50.537L267.73,50.319L269.1,50.299L270.46,50.157L271.83,50.629L273.2,50.044L274.56,50.425L275.93,51.082L277.3,49.792L278.66,50.014L280.03,49.642L281.39,49.469L282.76,50.163L284.13,49.395L285.49,50.088L286.86,49.734L288.23,49.213L289.59,49.93L290.96,49.375L292.33,49.139L293.69,49.309L295.06,49.101L296.42,49.177L297.79,48.76L299.16,48.966L300.52,48.688L301.89,48.367L303.26,48.778L304.62,48.449L305.99,48.748L307.36,48.351L308.72,48.183L310.09,48.353L311.45,48.227L312.82,48.199L314.19,48.387L315.55,47.93L316.92,47.936L318.29,47.884L319.65,47.672L321.02,47.684L322.39,47.71L323.75,47.67L325.12,47.546L326.48,47.576L327.85,47.638L329.22,47.235L330.58,47.512L331.95,47.213L333.32,47.275L334.68,47.189L336.05,47.217L337.42,47.213L338.78,46.985L340.15,46.848L341.51,47.035L342.88,46.84L344.25,46.848L345.61,46.903L346.98,46.76L348.35,46.778L349.71,46.776L351.08,46.728L352.45,46.634L353.81,46.576L355.18,46.636L356.54,46.474L357.91,46.524L359.28,46.586L360.64,46.378L362.01,46.432L363.38,46.376L364.74,46.309L366.11,46.332L367.48,46.271L368.84,46.372L370.21,46.185L371.57,46.205L372.94,46.157L374.31,46.161L375.67,46.093L377.04,46.121L378.41,46.091L379.77,46.047L381.14,46.073L382.51,46.089L383.87,45.987L385.24,45.861L386.6,45.945L387.97,45.877L389.34,45.899L390.7,45.899L392.07,45.907L393.44,45.869L394.8,45.789L396.17,45.714L397.54,45.817L398.9,45.698L400.27,45.833L401.64,45.748L403,45.712L404.37,45.628L405.73,45.684L407.1,45.688L408.47,45.668L409.83,45.616L411.2,45.662L412.57,45.632L413.93,45.57L415.3,45.54L416.67,45.526L418.03,45.55L419.4,45.562L420.76,45.562L422.13,45.514L423.5,45.516L424.86,45.49L426.23,45.528L427.6,45.482L428.96,45.464L430.33,45.476L431.7,45.48L433.06,45.434L434.43,45.406L435.79,45.454L437.16,45.42L438.53,45.408L439.89,45.402L441.26,45.398L442.63,45.38L443.99,45.352L445.36,45.34L446.73,45.386L448.09,45.36L449.46,45.374L450.82,45.31L452.19,45.318L453.56,45.304L454.92,45.308L456.29,45.34L457.66,45.31L459.02,45.32L460.39,45.324L461.76,45.302L463.12,45.272L464.49,45.304L465.85,45.298L467.22,45.278L468.59,45.272L469.95,45.256L471.32,45.274L472.69,45.266L474.05,45.248L475.42,45.26L476.79,45.248L478.15,45.264L479.52,45.252L480.88,45.242L482.25,45.276L483.62,45.228L484.98,45.242L486.35,45.248L487.72,45.228L489.08,45.223L490.45,45.23L491.82,45.226L493.18,45.219L494.55,45.217L495.91,45.215L497.28,45.207L498.65,45.217L500.01,45.207L501.38,45.223L502.75,45.223L504.11,45.203L505.48,45.183L506.85,45.193L508.21,45.187L509.58,45.187L510.94,45.185L512.31,45.189L513.68,45.185L515.04,45.191L516.41,45.193L517.78,45.179L519.14,45.193L520.51,45.197L521.88,45.177L523.24,45.179L524.61,45.179L525.98,45.179L527.34,45.171L528.71,45.181L530.07,45.175L531.44,45.161L532.81,45.171L534.17,45.165L535.54,45.173L536.91,45.183L538.27,45.173L539.64,45.163L541.01,45.169L542.37,45.171L543.74,45.167L545.1,45.169L546.47,45.163L547.84,45.167L549.2,45.171L550.57,45.165L551.94,45.169L553.3,45.165L554.67,45.167L556.04,45.155L557.4,45.169L558.77,45.151L560.13,45.159L561.5,45.159L562.87,45.155L564.23,45.167L565.6,45.151L566.97,45.151L568.33,45.159L569.7,45.157L571.07,45.163L572.43,45.157L573.8,45.155L575.16,45.161L576.53,45.155L577.9,45.153L579.26,45.163L582,45.157L583.36,45.161L584.73,45.157L586.1,45.151L587.46,45.151L588.83,45.157L590.19,45.153L592.93,45.161L595.66,45.155L597.03,45.159L598.39,45.151L599.76,45.151L601.13,45.155L602.49,45.155L603.86,45.153L605.22,45.151L606.59,45.155L609.32,45.155L610.69,45.151L613.42,45.153L616.16,45.151L620.25,45.151L621.62,45.151L622.99,45.153L624.35,45.151L629.82,45.151L631.19,45.157L633.92,45.151L636.65,45.151L638.02,45.151L640.75,45.151L643.48,45.151L646.22,45.151L647.58,45.153L653.05,45.151L654.41,45.151L657.15,45.151L658.51,45.151L669.44,45.151L683.11,45.151L685.84,45.151L715.9,45.153L720,45.151" style="fill:none;stroke:#0000FF" />
</g>
</svg>
