<?xml version="1.0"?>
<!-- Generated by SVGo and Plotinum VG -->
<svg width="720pt" height="432pt" viewBox="0 0 720 432"
	xmlns="http://www.w3.org/2000/svg"
	xmlns:xlink="http://www.w3.org/1999/xlink">
<g transform="scale(1, -1) translate(0, -432)">
<path d="M0,0L720,0L720,432L0,432Z" style="fill:#FFFFFF" />
<text x="358.5" y="-420.45" transform="scale(1, -1)"
	style="font-family:Times;font-weight:normal;font-style:normal;font-size:12px"> </text>
<text x="385.56" y="-3.8613" transform="scale(1, -1)"
	style="font-family:Times;font-weight:normal;font-style:normal;font-size:12px">Costs</text>
<text x="69.055" y="-18.634" transform="scale(1, -1)"
	style="font-family:Times;font-weight:normal;font-style:normal;font-size:10px">0.00</text>
<text x="372.21" y="-18.634" transform="scale(1, -1)"
	style="font-family:Times;font-weight:normal;font-style:normal;font-size:10px">250.00</text>
<text x="680.36" y="-18.634" transform="scale(1, -1)"
	style="font-family:Times;font-weight:normal;font-style:normal;font-size:10px">500.00</text>
<path d="M77.805,28.263L77.805,36.263" style="fill:none;stroke:#000000;stroke-width:0.5" />
<path d="M385.96,28.263L385.96,36.263" style="fill:none;stroke:#000000;stroke-width:0.5" />
<path d="M694.11,28.263L694.11,36.263" style="fill:none;stroke:#000000;stroke-width:0.5" />
<path d="M139.44,32.263L139.44,36.263" style="fill:none;stroke:#000000;stroke-width:0.5" />
<path d="M201.07,32.263L201.07,36.263" style="fill:none;stroke:#000000;stroke-width:0.5" />
<path d="M262.7,32.263L262.7,36.263" style="fill:none;stroke:#000000;stroke-width:0.5" />
<path d="M324.33,32.263L324.33,36.263" style="fill:none;stroke:#000000;stroke-width:0.5" />
<path d="M447.59,32.263L447.59,36.263" style="fill:none;stroke:#000000;stroke-width:0.5" />
<path d="M509.22,32.263L509.22,36.263" style="fill:none;stroke:#000000;stroke-width:0.5" />
<path d="M570.85,32.263L570.85,36.263" style="fill:none;stroke:#000000;stroke-width:0.5" />
<path d="M632.48,32.263L632.48,36.263" style="fill:none;stroke:#000000;stroke-width:0.5" />
<path d="M77.805,36.263L720,36.263" style="fill:none;stroke:#000000;stroke-width:0.5" />
<g transform="rotate(90)">
<text x="152.55" y="11.555" transform="scale(1, -1)"
	style="font-family:Times;font-weight:normal;font-style:normal;font-size:12px">Number of trials (1000000 total)</text>
</g>
<text x="24.055" y="-90.525" transform="scale(1, -1)"
	style="font-family:Times;font-weight:normal;font-style:normal;font-size:10px">25000.00</text>
<text x="19.055" y="-236.27" transform="scale(1, -1)"
	style="font-family:Times;font-weight:normal;font-style:normal;font-size:10px">100000.00</text>
<text x="19.055" y="-382.01" transform="scale(1, -1)"
	style="font-family:Times;font-weight:normal;font-style:normal;font-size:10px">175000.00</text>
<path d="M64.055,93.73L72.055,93.73" style="fill:none;stroke:#000000;stroke-width:0.5" />
<path d="M64.055,239.47L72.055,239.47" style="fill:none;stroke:#000000;stroke-width:0.5" />
<path d="M64.055,385.22L72.055,385.22" style="fill:none;stroke:#000000;stroke-width:0.5" />
<path d="M68.055,166.6L72.055,166.6" style="fill:none;stroke:#000000;stroke-width:0.5" />
<path d="M68.055,312.34L72.055,312.34" style="fill:none;stroke:#000000;stroke-width:0.5" />
<path d="M72.055,45.151L72.055,416.58" style="fill:none;stroke:#000000;stroke-width:0.5" />
<path d="M77.805,416.58L111.09,52.176L116.02,48.556L119.71,92.638L120.95,66.57L127.11,59.133L128.34,100.03L130.81,82.143L132.04,79.556L133.27,52.198L134.51,78.834L138.2,55.035L140.67,62.547L143.13,171.16L144.37,52.184L145.6,59.716L148.06,55.406L149.3,78.155L152.99,53.012L154.23,63.424L157.93,45.558L159.16,45.352L160.39,45.412L161.62,47.646L162.86,47.919L164.09,46.067L165.32,45.977L166.55,45.629L167.79,45.828L169.02,61.511L170.25,53.367L171.48,48.494L172.72,50.478L173.95,51.564L175.18,47.798L176.41,115.36L177.65,111.75L178.88,47.306L180.11,47.889L181.34,53.484L182.58,53.43L183.81,48.742L185.04,69.088L186.28,54.001L187.51,52.576L188.74,50.101L189.97,47.876L191.21,53.515L192.44,52.93L193.67,65.996L194.9,49.982L196.14,62.965L197.37,59.871L198.6,52.518L199.83,62.291L201.07,47.728L202.3,51.331L203.53,54.005L204.76,49.708L206,55.66L207.23,48.191L208.46,63.713L209.7,50.76L210.93,55.493L212.16,48.068L213.39,49.44L214.63,57.835L215.86,47.592L217.09,47.512L218.32,56.879L219.56,66.807L220.79,49.926L222.02,47.732L223.25,47.872L224.49,48.025L225.72,51.323L226.95,58.894L228.18,56.276L229.42,53.284L230.65,58.814L231.88,54.143L233.11,53.325L234.35,57.518L235.58,49.384L236.81,49.473L238.05,50.177L239.28,51.788L240.51,51.562L241.74,70.326L242.98,70.466L244.21,51.309L245.44,50.896L246.67,50.519L247.91,56.885L249.14,53.404L250.37,50.999L251.6,49.026L252.84,53.581L254.07,51.288L255.3,47.182L256.53,49.559L257.77,47.796L259,49.741L260.23,48.21L261.47,50.668L262.7,49.312L263.93,48.299L265.16,49.84L266.4,47.153L267.63,50.934L268.86,52.205L270.09,49.327L271.33,49.376L272.56,48.886L273.79,49.483L275.02,48.449L276.26,60.002L277.49,47.819L278.72,47.407L279.95,49.341L281.19,49.044L282.42,48.698L283.65,50.878L284.88,53.101L286.12,48.779L287.35,48.62L288.58,47.713L289.82,48.414L291.05,49.667L292.28,51.113L293.51,50.596L294.75,50.179L295.98,51.603L297.21,49.998L298.44,50.214L299.68,49.846L300.91,47.804L302.14,48.591L303.37,48.437L304.61,48.849L305.84,48.748L307.07,49.551L308.3,49.978L309.54,48.608L310.77,48.502L312,47.299L313.24,48.985L314.47,48.517L315.7,46.99L316.93,46.9L318.17,49.91L319.4,48.536L320.63,46.541L321.86,47.029L323.1,46.801L324.33,47.159L325.56,47.122L326.79,48.231L328.03,46.535L329.26,47.409L330.49,47.522L331.72,46.409L332.96,48.163L334.19,47.575L335.42,46.809L336.66,46.904L337.89,46.885L339.12,47.355L340.35,46.809L341.59,50.124L342.82,46.688L344.05,46.859L345.28,46.755L346.52,47.108L347.75,47.714L348.98,46.852L350.21,46.988L351.45,46.723L352.68,47.271L353.91,46.267L355.14,46.498L356.38,46.778L357.61,46.644L358.84,46.646L360.07,46.673L361.31,46.791L362.54,46.648L363.77,46.657L365.01,46.397L366.24,46.245L367.47,46.879L368.7,46.413L369.94,46.275L371.17,46.346L372.4,46.286L373.63,46.061L374.87,46.218L376.1,46.226L377.33,45.843L378.56,46.045L379.8,46.105L381.03,46.014L382.26,45.88L383.49,46.58L384.73,46.162L385.96,45.944L387.19,45.931L388.43,45.775L389.66,46.022L390.89,45.977L392.12,46.16L393.36,45.697L394.59,46.135L395.82,46.024L397.05,45.826L398.29,46.154L399.52,45.725L400.75,45.826L401.98,45.851L403.22,45.653L404.45,45.977L405.68,45.713L406.91,46.084L408.15,45.645L409.38,45.816L410.61,45.754L411.84,45.69L413.08,45.913L414.31,45.653L415.54,45.587L416.78,45.612L418.01,45.785L419.24,45.497L420.47,45.554L421.71,45.589L422.94,45.507L424.17,45.554L425.4,45.517L426.64,45.48L427.87,45.478L429.1,45.507L430.33,45.491L431.57,45.421L432.8,45.589L434.03,45.48L435.26,45.47L436.5,45.453L437.73,45.464L438.96,45.433L440.2,45.488L441.43,45.441L442.66,45.392L443.89,45.412L445.13,45.431L446.36,45.443L447.59,45.344L448.82,45.431L450.06,45.363L451.29,45.359L452.52,45.353L453.75,45.291L454.99,45.412L456.22,45.375L457.45,45.381L458.68,45.346L459.92,45.402L461.15,45.352L462.38,45.334L463.61,45.386L464.85,45.305L466.08,45.315L467.31,45.326L468.55,45.33L469.78,45.348L471.01,45.293L472.24,45.305L473.48,45.272L474.71,45.295L475.94,45.293L477.17,45.268L478.41,45.28L479.64,45.254L480.87,45.268L482.1,45.252L483.34,45.266L484.57,45.233L485.8,45.256L487.03,45.231L488.27,45.243L489.5,45.241L490.73,45.227L491.97,45.229L493.2,45.229L494.43,45.217L495.66,45.206L496.9,45.204L498.13,45.227L499.36,45.235L500.59,45.212L501.83,45.202L503.06,45.208L504.29,45.21L505.52,45.21L506.76,45.2L507.99,45.208L509.22,45.215L510.45,45.2L511.69,45.2L512.92,45.198L514.15,45.212L515.38,45.182L516.62,45.215L517.85,45.2L519.08,45.192L520.32,45.19L521.55,45.182L522.78,45.19L524.01,45.188L525.25,45.198L526.48,45.173L527.71,45.175L528.94,45.175L530.18,45.186L531.41,45.177L532.64,45.186L533.87,45.181L535.11,45.173L536.34,45.167L537.57,45.173L538.8,45.173L540.04,45.181L541.27,45.163L542.5,45.159L543.74,45.181L544.97,45.157L546.2,45.184L547.43,45.167L548.67,45.175L549.9,45.165L551.13,45.159L552.36,45.171L553.6,45.171L554.83,45.167L556.06,45.163L557.29,45.167L558.53,45.169L559.76,45.163L560.99,45.167L562.22,45.161L563.46,45.161L564.69,45.159L565.92,45.163L567.16,45.165L568.39,45.159L569.62,45.161L570.85,45.159L572.09,45.157L573.32,45.159L574.55,45.159L575.78,45.163L577.02,45.155L578.25,45.157L579.48,45.159L580.71,45.157L581.95,45.159L583.18,45.163L584.41,45.155L585.64,45.153L586.88,45.155L588.11,45.157L589.34,45.157L590.57,45.157L591.81,45.153L593.04,45.163L594.27,45.153L595.51,45.151L596.74,45.153L597.97,45.153L599.2,45.153L600.44,45.153L602.9,45.155L604.13,45.155L605.37,45.161L606.6,45.155L607.83,45.155L609.06,45.153L610.3,45.155L611.53,45.155L613.99,45.153L615.23,45.151L616.46,45.157L617.69,45.155L620.16,45.157L625.09,45.155L627.55,45.155L628.79,45.151L630.02,45.151L631.25,45.151L633.72,45.153L634.95,45.151L636.18,45.155L637.41,45.151L639.88,45.151L641.11,45.151L643.58,45.151L646.04,45.153L647.28,45.153L649.74,45.151L652.21,45.151L654.67,45.151L658.37,45.151L660.83,45.151L663.3,45.151L664.53,45.153L674.39,45.153L676.86,45.151L679.32,45.151L684.25,45.151L696.58,45.151L702.74,45.151L711.37,45.151L720,45.151" style="fill:none;stroke:#0000FF" />
</g>
</svg>
