<?xml version="1.0"?>
<!-- Generated by SVGo and Plotinum VG -->
<svg width="720pt" height="432pt" viewBox="0 0 720 432"
	xmlns="http://www.w3.org/2000/svg"
	xmlns:xlink="http://www.w3.org/1999/xlink">
<g transform="scale(1, -1) translate(0, -432)">
<path d="M0,0L720,0L720,432L0,432Z" style="fill:#FFFFFF" />
<text x="358.5" y="-420.45" transform="scale(1, -1)"
	style="font-family:Times;font-weight:normal;font-style:normal;font-size:12px"> </text>
<text x="385.56" y="-3.8613" transform="scale(1, -1)"
	style="font-family:Times;font-weight:normal;font-style:normal;font-size:12px">Costs</text>
<text x="69.055" y="-18.634" transform="scale(1, -1)"
	style="font-family:Times;font-weight:normal;font-style:normal;font-size:10px">0.00</text>
<text x="366.41" y="-18.634" transform="scale(1, -1)"
	style="font-family:Times;font-weight:normal;font-style:normal;font-size:10px">250.00</text>
<text x="668.76" y="-18.634" transform="scale(1, -1)"
	style="font-family:Times;font-weight:normal;font-style:normal;font-size:10px">500.00</text>
<path d="M77.805,28.263L77.805,36.263" style="fill:none;stroke:#000000;stroke-width:0.5" />
<path d="M380.16,28.263L380.16,36.263" style="fill:none;stroke:#000000;stroke-width:0.5" />
<path d="M682.51,28.263L682.51,36.263" style="fill:none;stroke:#000000;stroke-width:0.5" />
<path d="M138.28,32.263L138.28,36.263" style="fill:none;stroke:#000000;stroke-width:0.5" />
<path d="M198.75,32.263L198.75,36.263" style="fill:none;stroke:#000000;stroke-width:0.5" />
<path d="M259.22,32.263L259.22,36.263" style="fill:none;stroke:#000000;stroke-width:0.5" />
<path d="M319.69,32.263L319.69,36.263" style="fill:none;stroke:#000000;stroke-width:0.5" />
<path d="M440.63,32.263L440.63,36.263" style="fill:none;stroke:#000000;stroke-width:0.5" />
<path d="M501.1,32.263L501.1,36.263" style="fill:none;stroke:#000000;stroke-width:0.5" />
<path d="M561.57,32.263L561.57,36.263" style="fill:none;stroke:#000000;stroke-width:0.5" />
<path d="M622.04,32.263L622.04,36.263" style="fill:none;stroke:#000000;stroke-width:0.5" />
<path d="M77.805,36.263L720,36.263" style="fill:none;stroke:#000000;stroke-width:0.5" />
<g transform="rotate(90)">
<text x="152.55" y="11.555" transform="scale(1, -1)"
	style="font-family:Times;font-weight:normal;font-style:normal;font-size:12px">Number of trials (1000000 total)</text>
</g>
<text x="24.055" y="-110.62" transform="scale(1, -1)"
	style="font-family:Times;font-weight:normal;font-style:normal;font-size:10px">25000.00</text>
<text x="24.055" y="-247.98" transform="scale(1, -1)"
	style="font-family:Times;font-weight:normal;font-style:normal;font-size:10px">75000.00</text>
<text x="19.055" y="-385.35" transform="scale(1, -1)"
	style="font-family:Times;font-weight:normal;font-style:normal;font-size:10px">125000.00</text>
<path d="M64.055,113.83L72.055,113.83" style="fill:none;stroke:#000000;stroke-width:0.5" />
<path d="M64.055,251.19L72.055,251.19" style="fill:none;stroke:#000000;stroke-width:0.5" />
<path d="M64.055,388.55L72.055,388.55" style="fill:none;stroke:#000000;stroke-width:0.5" />
<path d="M68.055,58.885L72.055,58.885" style="fill:none;stroke:#000000;stroke-width:0.5" />
<path d="M68.055,86.357L72.055,86.357" style="fill:none;stroke:#000000;stroke-width:0.5" />
<path d="M68.055,141.3L72.055,141.3" style="fill:none;stroke:#000000;stroke-width:0.5" />
<path d="M68.055,168.77L72.055,168.77" style="fill:none;stroke:#000000;stroke-width:0.5" />
<path d="M68.055,196.25L72.055,196.25" style="fill:none;stroke:#000000;stroke-width:0.5" />
<path d="M68.055,223.72L72.055,223.72" style="fill:none;stroke:#000000;stroke-width:0.5" />
<path d="M68.055,278.66L72.055,278.66" style="fill:none;stroke:#000000;stroke-width:0.5" />
<path d="M68.055,306.13L72.055,306.13" style="fill:none;stroke:#000000;stroke-width:0.5" />
<path d="M68.055,333.61L72.055,333.61" style="fill:none;stroke:#000000;stroke-width:0.5" />
<path d="M68.055,361.08L72.055,361.08" style="fill:none;stroke:#000000;stroke-width:0.5" />
<path d="M68.055,416.02L72.055,416.02" style="fill:none;stroke:#000000;stroke-width:0.5" />
<path d="M72.055,45.151L72.055,416.58" style="fill:none;stroke:#000000;stroke-width:0.5" />
<path d="M77.805,416.58L104.41,55.264L109.25,69.541L110.46,51.874L111.67,48.426L114.09,55.42L115.3,78.187L116.51,48.605L117.72,76.217L118.92,87.096L120.13,58.739L121.34,55.28L122.55,59.747L123.76,69.709L124.97,62.278L126.18,84.225L127.39,66.299L128.6,94.659L129.81,65.486L131.02,62.789L132.23,63.695L135.86,45.868L137.07,67.058L138.28,76.744L139.48,80.577L140.69,45.753L141.9,92.25L143.11,49.044L144.32,52.956L145.53,65.055L146.74,73.206L147.95,46.333L149.16,62.453L150.37,52.698L151.58,80.678L152.79,66.473L154,62.036L155.21,52.157L156.42,51.951L157.63,51.412L158.83,63.484L160.04,53.558L161.25,52.868L162.46,52.363L163.67,56.039L164.88,54.607L166.09,79.89L167.3,59.176L168.51,59.44L169.72,59.904L170.93,75.396L172.14,55.681L173.35,57.951L174.56,60.143L175.77,79.489L176.98,60.374L178.19,62.118L179.39,64.069L180.6,59.333L181.81,58.223L183.02,62.728L184.23,57.703L185.44,58.561L186.65,60.245L187.86,62.865L189.07,61.695L190.28,65.195L191.49,60.772L192.7,66.014L193.91,59.637L195.12,58.17L196.33,57.605L197.54,60.179L198.75,58.247L199.95,60.679L201.16,57.962L202.37,61.846L203.58,61.176L204.79,55.561L206,59.89L207.21,60.599L208.42,57.495L209.63,55.522L210.84,59.25L212.05,58.934L213.26,61.173L214.47,58.017L215.68,60.613L216.89,60.874L218.1,58.55L219.31,58.544L220.51,59.052L221.72,57.484L222.93,57.236L224.14,56.047L225.35,57.137L226.56,59.478L227.77,58.478L228.98,55.055L230.19,58.352L231.4,55.673L232.61,56.162L233.82,54.808L235.03,58.813L236.24,55.143L237.45,56.662L238.66,55.258L239.87,59.528L241.07,55.555L242.28,56.184L243.49,55.898L244.7,57.239L245.91,54.41L247.12,56.03L248.33,54.278L249.54,55.712L250.75,54.824L251.96,55.673L253.17,54.094L254.38,54.333L255.59,53.772L256.8,54.654L258.01,53.621L259.22,54.522L260.43,53.393L261.63,53.931L262.84,53.453L264.05,55.201L265.26,53.371L266.47,53.833L267.68,53.629L268.89,53.75L270.1,52.577L271.31,53.3L272.52,53.011L273.73,52.695L274.94,52.448L276.15,52.791L277.36,52.671L278.57,52.363L279.78,52.467L280.99,52.877L282.19,51.879L283.4,51.846L284.61,51.618L285.82,51.824L287.03,51.844L288.24,51.849L289.45,51.121L290.66,51.942L291.87,51.61L293.08,50.951L294.29,51.036L295.5,51.008L296.71,50.86L297.92,50.464L299.13,50.55L300.34,50.541L301.55,50.728L302.75,50.385L303.96,50.225L305.17,50.069L306.38,50.055L307.59,49.866L308.8,50.225L310.01,49.893L311.22,50.017L312.43,49.621L313.64,49.717L314.85,49.558L316.06,49.451L317.27,49.297L318.48,49.333L319.69,49.327L320.9,49.371L322.1,49.094L323.31,49.187L324.52,48.802L325.73,48.83L326.94,48.805L328.15,48.874L329.36,48.66L330.57,48.794L331.78,48.522L332.99,48.566L334.2,48.297L335.41,48.377L336.62,48.454L337.83,48.39L339.04,48.063L340.25,48.209L341.46,48.127L342.66,48.058L343.87,48.036L345.08,48.008L346.29,47.841L347.5,47.866L348.71,47.712L349.92,47.605L351.13,47.574L352.34,47.616L353.55,47.467L354.76,47.401L355.97,47.368L357.18,47.371L358.39,47.242L359.6,47.289L360.81,47.338L362.02,47.237L363.22,47.116L364.43,47.047L365.64,47.052L366.85,46.91L368.06,46.954L369.27,47.014L370.48,46.937L371.69,46.866L372.9,46.844L374.11,46.871L375.32,46.819L376.53,46.78L377.74,46.687L378.95,46.75L380.16,46.797L381.37,46.662L382.58,46.632L383.78,46.544L384.99,46.55L386.2,46.484L387.41,46.44L388.62,46.377L389.83,46.253L391.04,46.396L392.25,46.363L393.46,46.258L394.67,46.302L395.88,46.206L397.09,46.264L398.3,46.261L399.51,46.157L400.72,46.204L401.93,46.085L403.14,46.151L404.34,46.102L405.55,46.058L406.76,46.052L407.97,46.058L409.18,45.921L410.39,46.006L411.6,45.992L412.81,45.89L414.02,45.94L415.23,45.951L416.44,45.965L417.65,45.844L418.86,45.877L420.07,45.888L421.28,45.849L422.49,45.866L423.7,45.767L424.9,45.759L426.11,45.808L427.32,45.651L428.53,45.764L429.74,45.632L430.95,45.649L432.16,45.643L433.37,45.715L434.58,45.69L435.79,45.69L437,45.607L438.21,45.629L439.42,45.591L440.63,45.616L441.84,45.528L443.05,45.654L444.26,45.525L445.46,45.519L446.67,45.566L447.88,45.613L449.09,45.55L450.3,45.525L451.51,45.476L452.72,45.5L453.93,45.503L455.14,45.53L456.35,45.454L457.56,45.445L458.77,45.489L459.98,45.41L461.19,45.454L462.4,45.418L463.61,45.426L464.82,45.445L466.02,45.407L467.23,45.459L468.44,45.404L469.65,45.357L470.86,45.374L472.07,45.379L473.28,45.393L474.49,45.363L475.7,45.363L476.91,45.313L478.12,45.294L479.33,45.366L480.54,45.333L481.75,45.374L482.96,45.311L484.17,45.291L485.37,45.297L486.58,45.335L487.79,45.3L489,45.313L490.21,45.322L491.42,45.275L492.63,45.313L493.84,45.261L495.05,45.278L496.26,45.261L497.47,45.289L498.68,45.269L499.89,45.267L501.1,45.259L502.31,45.267L503.52,45.272L504.73,45.278L505.93,45.269L507.14,45.25L508.35,45.248L509.56,45.245L510.77,45.22L511.98,45.264L513.19,45.245L514.4,45.217L515.61,45.242L516.82,45.201L518.03,45.234L519.24,45.237L520.45,45.209L521.66,45.201L522.87,45.204L524.08,45.206L525.29,45.22L526.49,45.187L527.7,45.223L528.91,45.204L530.12,45.198L531.33,45.195L532.54,45.22L533.75,45.193L534.96,45.179L536.17,45.184L537.38,45.19L538.59,45.184L539.8,45.198L541.01,45.19L542.22,45.198L543.43,45.201L544.64,45.168L545.85,45.198L547.05,45.179L548.26,45.171L549.47,45.179L550.68,45.195L551.89,45.179L553.1,45.187L554.31,45.179L555.52,45.176L556.73,45.171L557.94,45.193L559.15,45.184L560.36,45.162L561.57,45.184L562.78,45.168L563.99,45.157L565.2,45.16L566.41,45.165L567.61,45.168L568.82,45.182L570.03,45.165L571.24,45.171L572.45,45.168L573.66,45.176L574.87,45.173L576.08,45.168L577.29,45.16L578.5,45.165L579.71,45.157L580.92,45.165L582.13,45.168L583.34,45.157L584.55,45.165L585.76,45.162L586.97,45.16L588.17,45.162L589.38,45.157L590.59,45.171L591.8,45.16L593.01,45.162L594.22,45.16L595.43,45.162L596.64,45.157L597.85,45.162L599.06,45.171L600.27,45.157L601.48,45.157L602.69,45.154L603.9,45.157L605.11,45.154L606.32,45.157L607.53,45.151L608.73,45.154L609.94,45.151L612.36,45.154L613.57,45.154L614.78,45.16L615.99,45.154L617.2,45.151L618.41,45.157L619.62,45.162L620.83,45.157L622.04,45.162L623.25,45.154L624.46,45.154L625.67,45.157L628.09,45.154L630.5,45.157L631.71,45.151L632.92,45.151L634.13,45.154L635.34,45.151L636.55,45.154L637.76,45.154L640.18,45.154L641.39,45.151L642.6,45.154L643.81,45.151L645.02,45.154L647.44,45.154L648.64,45.154L653.48,45.154L655.9,45.151L657.11,45.154L659.53,45.154L674.04,45.151L675.25,45.151L677.67,45.154L681.3,45.151L687.35,45.151L694.6,45.151L697.02,45.151L705.49,45.151L720,45.151" style="fill:none;stroke:#0000FF" />
</g>
</svg>
