<?xml version="1.0"?>
<!-- Generated by SVGo and Plotinum VG -->
<svg width="720pt" height="432pt" viewBox="0 0 720 432"
	xmlns="http://www.w3.org/2000/svg"
	xmlns:xlink="http://www.w3.org/1999/xlink">
<g transform="scale(1, -1) translate(0, -432)">
<path d="M0,0L720,0L720,432L0,432Z" style="fill:#FFFFFF" />
<text x="358.5" y="-420.45" transform="scale(1, -1)"
	style="font-family:Times;font-weight:normal;font-style:normal;font-size:12px"> </text>
<text x="379.31" y="-3.8613" transform="scale(1, -1)"
	style="font-family:Times;font-weight:normal;font-style:normal;font-size:12px">Costs</text>
<text x="62.805" y="-18.634" transform="scale(1, -1)"
	style="font-family:Times;font-weight:normal;font-style:normal;font-size:10px">0</text>
<text x="331.16" y="-18.634" transform="scale(1, -1)"
	style="font-family:Times;font-weight:normal;font-style:normal;font-size:10px">200</text>
<text x="604.52" y="-18.634" transform="scale(1, -1)"
	style="font-family:Times;font-weight:normal;font-style:normal;font-size:10px">400</text>
<path d="M65.305,28.263L65.305,36.263" style="fill:none;stroke:#000000;stroke-width:0.5" />
<path d="M338.66,28.263L338.66,36.263" style="fill:none;stroke:#000000;stroke-width:0.5" />
<path d="M612.02,28.263L612.02,36.263" style="fill:none;stroke:#000000;stroke-width:0.5" />
<path d="M201.98,32.263L201.98,36.263" style="fill:none;stroke:#000000;stroke-width:0.5" />
<path d="M475.34,32.263L475.34,36.263" style="fill:none;stroke:#000000;stroke-width:0.5" />
<path d="M65.305,36.263L720,36.263" style="fill:none;stroke:#000000;stroke-width:0.5" />
<g transform="rotate(90)">
<text x="152.55" y="11.555" transform="scale(1, -1)"
	style="font-family:Times;font-weight:normal;font-style:normal;font-size:12px">Number of trials (1000000 total)</text>
</g>
<text x="24.055" y="-111.06" transform="scale(1, -1)"
	style="font-family:Times;font-weight:normal;font-style:normal;font-size:10px">40000</text>
<text x="19.055" y="-249.28" transform="scale(1, -1)"
	style="font-family:Times;font-weight:normal;font-style:normal;font-size:10px">120000</text>
<text x="19.055" y="-387.5" transform="scale(1, -1)"
	style="font-family:Times;font-weight:normal;font-style:normal;font-size:10px">200000</text>
<path d="M51.555,114.26L59.555,114.26" style="fill:none;stroke:#000000;stroke-width:0.5" />
<path d="M51.555,252.48L59.555,252.48" style="fill:none;stroke:#000000;stroke-width:0.5" />
<path d="M51.555,390.71L59.555,390.71" style="fill:none;stroke:#000000;stroke-width:0.5" />
<path d="M55.555,183.37L59.555,183.37" style="fill:none;stroke:#000000;stroke-width:0.5" />
<path d="M55.555,321.6L59.555,321.6" style="fill:none;stroke:#000000;stroke-width:0.5" />
<path d="M59.555,45.151L59.555,416.58" style="fill:none;stroke:#000000;stroke-width:0.5" />
<path d="M65.305,416.58L98.108,48.655L100.84,48.588L102.21,72.644L103.57,62.903L106.31,51.898L107.68,59.511L109.04,59.212L110.41,59.673L111.78,77.072L113.14,73.408L114.51,66.543L115.88,63.24L117.24,59.217L118.61,55.406L119.98,75.966L121.34,66.591L122.71,69.72L124.08,48.61L125.44,59.134L126.81,48.628L128.18,58.975L130.91,48.557L132.28,55.421L133.64,66.388L135.01,59.628L136.38,45.316L137.74,86.938L139.11,63.549L140.48,46.639L141.85,66.785L143.21,52.885L144.58,50.342L145.95,61.752L147.31,50.905L148.68,59.411L150.05,59.775L151.41,55.941L152.78,49.035L154.15,49.486L155.51,49.735L156.88,65.541L158.25,52.261L159.61,52.767L160.98,51.527L162.35,58.723L163.71,51.269L165.08,74.106L166.45,62.77L167.81,52.332L169.18,53.457L170.55,53.916L171.91,53.163L173.28,51.415L174.65,57.776L176.02,57.966L177.38,52.363L178.75,53.168L180.12,54.535L181.48,53.457L182.85,54.357L184.22,55.202L185.58,54.967L186.95,54.601L188.32,55.784L189.68,54.884L191.05,53.094L192.42,55.183L193.78,55.496L195.15,55.304L196.52,53.471L197.88,53.429L199.25,52.871L200.62,53.034L201.98,53.106L203.35,53.785L204.72,52.745L206.08,53.55L207.45,53.091L208.82,52.052L210.19,52.764L211.55,55.375L212.92,52.996L214.29,54.138L215.65,52.144L217.02,52.044L218.39,52.546L219.75,53.116L221.12,52.047L222.49,53.37L223.85,51.677L225.22,51.47L226.59,50.577L227.95,50.219L229.32,51.491L230.69,50.853L232.05,50.649L233.42,51.508L234.79,51.715L236.15,49.979L237.52,52.107L238.89,51.712L240.25,49.763L241.62,50.717L242.99,50.939L244.35,50.025L245.72,50.143L247.09,50.101L248.46,50.492L249.82,50.036L251.19,49.977L252.56,49.479L253.92,49.355L255.29,49.343L256.66,50.081L258.02,49.695L259.39,49.25L260.76,49.262L262.12,49.455L263.49,49.003L264.86,48.972L266.22,49.606L267.59,49.067L268.96,48.838L270.32,48.635L271.69,48.766L273.06,48.598L274.42,48.857L275.79,48.904L277.16,48.515L278.52,48.398L279.89,48.526L281.26,48.334L282.63,48.199L283.99,48.374L285.36,48.346L286.73,48.239L288.09,48.13L289.46,48.104L290.83,47.883L292.19,48.108L293.56,47.824L294.93,47.869L296.29,47.662L297.66,47.731L299.03,47.632L300.39,47.534L301.76,47.451L303.13,47.522L304.49,47.34L305.86,47.325L307.23,47.344L308.59,47.192L309.96,47.154L311.33,47.33L312.69,47.076L314.06,47.062L315.43,47.076L316.8,46.877L318.16,46.922L319.53,46.877L320.9,46.826L322.26,46.834L323.63,46.827L325,46.687L326.36,46.655L327.73,46.585L329.1,46.625L330.46,46.604L331.83,46.527L333.2,46.478L334.56,46.499L335.93,46.542L337.3,46.335L338.66,46.487L340.03,46.376L341.4,46.369L342.76,46.366L344.13,46.217L345.5,46.274L346.86,46.273L348.23,46.19L349.6,46.221L350.97,46.095L352.33,46.117L353.7,46.072L355.07,46.084L356.43,46.027L357.8,46.034L359.17,45.988L360.53,46.038L361.9,45.96L363.27,45.982L364.63,45.97L366,45.893L367.37,45.863L368.73,45.903L370.1,45.777L371.47,45.87L372.83,45.827L374.2,45.775L375.57,45.777L376.93,45.73L378.3,45.734L379.67,45.746L381.03,45.753L382.4,45.671L383.77,45.666L385.13,45.753L386.5,45.659L387.87,45.675L389.24,45.658L390.6,45.601L391.97,45.627L393.34,45.606L394.7,45.531L396.07,45.559L397.44,45.533L398.8,45.547L400.17,45.53L401.54,45.499L402.9,45.488L404.27,45.509L405.64,45.447L407,45.483L408.37,45.509L409.74,45.492L411.1,45.405L412.47,45.417L413.84,45.445L415.2,45.455L416.57,45.476L417.94,45.378L419.3,45.397L420.67,45.473L422.04,45.388L423.41,45.357L424.77,45.398L426.14,45.328L427.51,45.378L428.87,45.322L430.24,45.364L431.61,45.326L432.97,45.324L434.34,45.335L435.71,45.297L437.07,45.29L438.44,45.319L439.81,45.295L441.17,45.328L442.54,45.297L443.91,45.305L445.27,45.321L446.64,45.297L448.01,45.312L449.37,45.288L450.74,45.257L452.11,45.279L453.47,45.264L454.84,45.288L456.21,45.288L457.58,45.252L458.94,45.269L460.31,45.25L461.68,45.243L463.04,45.243L464.41,45.258L465.78,45.226L467.14,45.236L468.51,45.22L469.88,45.229L471.24,45.224L472.61,45.25L473.98,45.222L475.34,45.229L476.71,45.208L478.08,45.201L479.44,45.21L480.81,45.214L482.18,45.201L483.54,45.205L484.91,45.205L486.28,45.201L487.64,45.229L489.01,45.195L490.38,45.191L491.75,45.189L493.11,45.2L494.48,45.191L495.85,45.196L497.21,45.191L498.58,45.203L499.95,45.186L501.31,45.186L502.68,45.176L504.05,45.179L505.41,45.176L506.78,45.174L508.15,45.184L509.51,45.182L510.88,45.176L512.25,45.184L513.61,45.179L514.98,45.198L516.35,45.174L517.71,45.172L519.08,45.184L520.45,45.172L521.81,45.163L523.18,45.174L524.55,45.157L525.91,45.17L527.28,45.167L528.65,45.167L530.02,45.165L531.38,45.167L532.75,45.169L534.12,45.169L535.48,45.162L536.85,45.167L538.22,45.165L539.58,45.181L540.95,45.163L542.32,45.169L543.68,45.167L545.05,45.16L546.42,45.157L547.78,45.169L549.15,45.163L550.52,45.162L551.88,45.155L553.25,45.157L554.62,45.163L555.98,45.155L557.35,45.158L558.72,45.16L560.08,45.162L561.45,45.163L562.82,45.158L564.19,45.157L565.55,45.153L566.92,45.151L568.29,45.155L569.65,45.16L571.02,45.165L572.39,45.157L573.75,45.162L575.12,45.157L576.49,45.153L577.85,45.16L579.22,45.16L580.59,45.151L581.95,45.155L583.32,45.155L584.69,45.153L586.05,45.153L587.42,45.157L588.79,45.157L590.15,45.151L591.52,45.16L592.89,45.153L594.25,45.151L595.62,45.153L596.99,45.151L598.36,45.158L602.46,45.151L605.19,45.151L606.56,45.151L607.92,45.151L609.29,45.153L610.66,45.151L612.02,45.151L614.76,45.153L616.12,45.151L617.49,45.153L618.86,45.151L621.59,45.153L622.96,45.151L627.06,45.151L628.42,45.151L629.79,45.155L632.53,45.151L633.89,45.153L640.73,45.151L642.09,45.151L646.19,45.151L648.93,45.153L650.29,45.151L654.39,45.151L665.33,45.151L668.06,45.151L685.83,45.153L713.17,45.151L720,45.151" style="fill:none;stroke:#0000FF" />
</g>
</svg>
