<?xml version="1.0"?>
<!-- Generated by SVGo and Plotinum VG -->
<svg width="720pt" height="432pt" viewBox="0 0 720 432"
	xmlns="http://www.w3.org/2000/svg"
	xmlns:xlink="http://www.w3.org/1999/xlink">
<g transform="scale(1, -1) translate(0, -432)">
<path d="M0,0L720,0L720,432L0,432Z" style="fill:#FFFFFF" />
<text x="358.5" y="-420.45" transform="scale(1, -1)"
	style="font-family:Times;font-weight:normal;font-style:normal;font-size:12px"> </text>
<text x="379.31" y="-3.8613" transform="scale(1, -1)"
	style="font-family:Times;font-weight:normal;font-style:normal;font-size:12px">Costs</text>
<text x="62.805" y="-18.634" transform="scale(1, -1)"
	style="font-family:Times;font-weight:normal;font-style:normal;font-size:10px">0</text>
<text x="320.21" y="-18.634" transform="scale(1, -1)"
	style="font-family:Times;font-weight:normal;font-style:normal;font-size:10px">200</text>
<text x="582.61" y="-18.634" transform="scale(1, -1)"
	style="font-family:Times;font-weight:normal;font-style:normal;font-size:10px">400</text>
<path d="M65.305,28.263L65.305,36.263" style="fill:none;stroke:#000000;stroke-width:0.5" />
<path d="M327.71,28.263L327.71,36.263" style="fill:none;stroke:#000000;stroke-width:0.5" />
<path d="M590.11,28.263L590.11,36.263" style="fill:none;stroke:#000000;stroke-width:0.5" />
<path d="M196.51,32.263L196.51,36.263" style="fill:none;stroke:#000000;stroke-width:0.5" />
<path d="M458.91,32.263L458.91,36.263" style="fill:none;stroke:#000000;stroke-width:0.5" />
<path d="M65.305,36.263L720,36.263" style="fill:none;stroke:#000000;stroke-width:0.5" />
<g transform="rotate(90)">
<text x="149.57" y="11.555" transform="scale(1, -1)"
	style="font-family:Times;font-weight:normal;font-style:normal;font-size:12px">Number of trials (1000000 total)</text>
</g>
<text x="24.055" y="-114.95" transform="scale(1, -1)"
	style="font-family:Times;font-weight:normal;font-style:normal;font-size:10px">40000</text>
<text x="19.055" y="-260.95" transform="scale(1, -1)"
	style="font-family:Times;font-weight:normal;font-style:normal;font-size:10px">120000</text>
<text x="19.055" y="-406.96" transform="scale(1, -1)"
	style="font-family:Times;font-weight:normal;font-style:normal;font-size:10px">200000</text>
<path d="M51.555,118.15L59.555,118.15" style="fill:none;stroke:#000000;stroke-width:0.5" />
<path d="M51.555,264.16L59.555,264.16" style="fill:none;stroke:#000000;stroke-width:0.5" />
<path d="M51.555,410.16L59.555,410.16" style="fill:none;stroke:#000000;stroke-width:0.5" />
<path d="M55.555,191.15L59.555,191.15" style="fill:none;stroke:#000000;stroke-width:0.5" />
<path d="M55.555,337.16L59.555,337.16" style="fill:none;stroke:#000000;stroke-width:0.5" />
<path d="M59.555,45.151L59.555,410.61" style="fill:none;stroke:#000000;stroke-width:0.5" />
<path d="M65.305,410.61L94.169,51.844L99.417,48.46L100.73,79.904L103.35,55.87L104.67,55.808L105.98,73.63L107.29,77.468L108.6,65.548L109.91,83.395L111.23,72.659L112.54,48.491L115.16,48.685L116.47,54.831L117.79,55.474L119.1,58.425L120.41,55.379L121.72,69.77L123.03,62.617L124.35,69.346L125.66,59.385L128.28,45.217L129.59,91.229L130.91,73.562L132.22,48.712L133.53,45.356L134.84,101.26L136.15,56.746L137.47,56.038L138.78,78.298L140.09,46.96L141.4,54.87L142.71,58.686L144.03,48.345L145.34,61.59L146.65,63.663L147.96,49.97L149.27,49.628L150.59,51.893L151.9,52.475L153.21,51.754L154.52,50.515L155.83,50.424L157.15,50.566L158.46,57.388L159.77,51.742L161.08,64.76L162.39,62.245L163.71,53.988L165.02,57.388L166.33,55.397L167.64,53.492L168.95,52.955L170.27,58.79L171.58,54.875L172.89,54.669L174.2,58.693L175.51,59.608L176.83,58.233L178.14,54.897L179.45,58.241L180.76,59.374L182.07,56.217L183.39,54.977L184.7,53.996L186.01,54.226L187.32,55.768L188.63,56.182L189.95,54.926L191.26,55.229L192.57,52.092L193.88,54.651L195.19,55.702L196.51,52.417L197.82,52.244L199.13,57.739L200.44,55.746L201.75,53.497L203.07,56.397L204.38,56.52L205.69,54.147L207,53.55L208.31,54.775L209.63,50.864L210.94,53.151L212.25,52.464L213.56,49.495L214.87,52.636L216.19,53.28L217.5,51.621L218.81,52.165L220.12,52.045L221.43,50.864L222.75,51.119L224.06,50.375L225.37,51.309L226.68,52.32L227.99,51.384L229.31,49.986L230.62,52.141L231.93,52.36L233.24,50.428L234.55,51.749L235.87,51.17L237.18,49.931L238.49,50.782L239.8,50.791L241.11,50.628L242.43,50.734L243.74,50.926L245.05,50.398L246.36,50.428L247.67,50.064L248.99,49.811L250.3,49.926L251.61,49.698L252.92,49.555L254.23,49.774L255.55,49.608L256.86,49.263L258.17,49.88L259.48,49.298L260.79,49.451L262.11,49.086L263.42,49.044L264.73,49.159L266.04,48.807L267.35,48.874L268.67,48.895L269.98,48.911L271.29,48.752L272.6,48.931L273.92,48.708L275.23,48.464L276.54,48.506L277.85,48.369L279.16,48.245L280.48,48.225L281.79,48.099L283.1,47.794L284.41,48.006L285.72,47.874L287.04,47.772L288.35,47.758L289.66,47.571L290.97,47.608L292.28,47.644L293.6,47.383L294.91,47.31L296.22,47.489L297.53,47.305L298.84,47.309L300.16,47.444L301.47,47.261L302.78,47.21L304.09,47.104L305.4,47.172L306.72,47.071L308.03,46.984L309.34,46.996L310.65,46.922L311.96,46.922L313.28,46.931L314.59,46.818L315.9,46.787L317.21,46.666L318.52,46.604L319.84,46.652L321.15,46.622L322.46,46.538L323.77,46.548L325.08,46.524L326.4,46.524L327.71,46.487L329.02,46.352L330.33,46.296L331.64,46.376L332.96,46.323L334.27,46.172L335.58,46.204L336.89,46.217L338.2,46.188L339.52,46.219L340.83,46.204L342.14,46.164L343.45,46.157L344.76,46.119L346.08,46.038L347.39,45.985L348.7,45.943L350.01,46.011L351.32,45.958L352.64,45.905L353.95,45.964L355.26,45.881L356.57,45.889L357.88,45.792L359.2,45.856L360.51,45.847L361.82,45.776L363.13,45.812L364.44,45.774L365.76,45.75L367.07,45.692L368.38,45.721L369.69,45.745L371,45.664L372.32,45.677L373.63,45.639L374.94,45.695L376.25,45.608L377.56,45.622L378.88,45.593L380.19,45.586L381.5,45.571L382.81,45.522L384.12,45.593L385.44,45.591L386.75,45.509L388.06,45.522L389.37,45.467L390.68,45.5L392,45.494L393.31,45.474L394.62,45.487L395.93,45.471L397.24,45.445L398.56,45.463L399.87,45.453L401.18,45.398L402.49,45.429L403.8,45.4L405.12,45.44L406.43,45.356L407.74,45.367L409.05,45.416L410.36,45.367L411.68,45.367L412.99,45.354L414.3,45.365L415.61,45.347L416.92,45.35L418.24,45.332L419.55,45.325L420.86,45.345L422.17,45.348L423.48,45.306L424.8,45.31L426.11,45.314L427.42,45.296L428.73,45.308L430.04,45.268L431.36,45.292L432.67,45.305L433.98,45.266L435.29,45.263L436.6,45.274L437.92,45.257L439.23,45.254L440.54,45.268L441.85,45.263L443.16,45.235L444.48,45.213L445.79,45.255L447.1,45.244L448.41,45.259L449.72,45.235L451.04,45.233L452.35,45.232L453.66,45.208L454.97,45.235L456.29,45.23L457.6,45.219L458.91,45.224L460.22,45.202L461.53,45.204L462.85,45.208L464.16,45.21L465.47,45.213L466.78,45.197L468.09,45.213L469.41,45.21L470.72,45.204L472.03,45.177L473.34,45.197L474.65,45.199L475.97,45.199L477.28,45.201L478.59,45.199L479.9,45.17L481.21,45.179L482.53,45.171L483.84,45.192L485.15,45.184L486.46,45.192L487.77,45.188L489.09,45.175L490.4,45.19L491.71,45.181L493.02,45.177L494.33,45.188L495.65,45.173L496.96,45.179L498.27,45.177L499.58,45.166L500.89,45.164L502.21,45.17L503.52,45.17L504.83,45.179L506.14,45.17L507.45,45.168L508.77,45.16L510.08,45.171L511.39,45.164L512.7,45.159L514.01,45.16L515.33,45.155L516.64,45.162L517.95,45.166L519.26,45.166L520.57,45.16L521.89,45.159L523.2,45.162L524.51,45.155L525.82,45.159L527.13,45.162L528.45,45.168L529.76,45.157L531.07,45.159L532.38,45.16L533.69,45.16L535.01,45.155L536.32,45.155L537.63,45.157L538.94,45.157L540.25,45.155L541.57,45.151L542.88,45.155L544.19,45.155L545.5,45.159L546.81,45.157L548.13,45.159L550.75,45.153L552.06,45.157L553.37,45.162L554.69,45.153L556,45.155L557.31,45.157L558.62,45.155L559.93,45.155L561.25,45.153L562.56,45.151L563.87,45.153L565.18,45.155L566.49,45.151L567.81,45.153L569.12,45.155L574.37,45.151L575.68,45.151L576.99,45.151L578.3,45.151L580.93,45.151L582.24,45.155L583.55,45.151L584.86,45.151L586.17,45.151L587.49,45.151L591.42,45.155L594.05,45.151L596.67,45.151L599.29,45.151L600.61,45.151L604.54,45.151L609.79,45.151L611.1,45.153L616.35,45.151L618.97,45.151L625.53,45.151L629.47,45.151L642.59,45.151L671.46,45.151L720,45.151" style="fill:none;stroke:#0000FF" />
</g>
</svg>
