<?xml version="1.0"?>
<!-- Generated by SVGo and Plotinum VG -->
<svg width="720pt" height="432pt" viewBox="0 0 720 432"
	xmlns="http://www.w3.org/2000/svg"
	xmlns:xlink="http://www.w3.org/1999/xlink">
<g transform="scale(1, -1) translate(0, -432)">
<path d="M0,0L720,0L720,432L0,432Z" style="fill:#FFFFFF" />
<text x="358.5" y="-420.45" transform="scale(1, -1)"
	style="font-family:Times;font-weight:normal;font-style:normal;font-size:12px"> </text>
<text x="379.31" y="-3.8613" transform="scale(1, -1)"
	style="font-family:Times;font-weight:normal;font-style:normal;font-size:12px">Costs</text>
<text x="62.805" y="-18.634" transform="scale(1, -1)"
	style="font-family:Times;font-weight:normal;font-style:normal;font-size:10px">0</text>
<text x="360.9" y="-18.634" transform="scale(1, -1)"
	style="font-family:Times;font-weight:normal;font-style:normal;font-size:10px">200</text>
<text x="664" y="-18.634" transform="scale(1, -1)"
	style="font-family:Times;font-weight:normal;font-style:normal;font-size:10px">400</text>
<path d="M65.305,28.263L65.305,36.263" style="fill:none;stroke:#000000;stroke-width:0.5" />
<path d="M368.4,28.263L368.4,36.263" style="fill:none;stroke:#000000;stroke-width:0.5" />
<path d="M671.5,28.263L671.5,36.263" style="fill:none;stroke:#000000;stroke-width:0.5" />
<path d="M216.85,32.263L216.85,36.263" style="fill:none;stroke:#000000;stroke-width:0.5" />
<path d="M519.95,32.263L519.95,36.263" style="fill:none;stroke:#000000;stroke-width:0.5" />
<path d="M65.305,36.263L720,36.263" style="fill:none;stroke:#000000;stroke-width:0.5" />
<g transform="rotate(90)">
<text x="152.55" y="11.555" transform="scale(1, -1)"
	style="font-family:Times;font-weight:normal;font-style:normal;font-size:12px">Number of trials (1000000 total)</text>
</g>
<text x="24.055" y="-92.873" transform="scale(1, -1)"
	style="font-family:Times;font-weight:normal;font-style:normal;font-size:10px">40000</text>
<text x="19.055" y="-245.66" transform="scale(1, -1)"
	style="font-family:Times;font-weight:normal;font-style:normal;font-size:10px">160000</text>
<text x="19.055" y="-398.44" transform="scale(1, -1)"
	style="font-family:Times;font-weight:normal;font-style:normal;font-size:10px">280000</text>
<path d="M51.555,96.079L59.555,96.079" style="fill:none;stroke:#000000;stroke-width:0.5" />
<path d="M51.555,248.86L59.555,248.86" style="fill:none;stroke:#000000;stroke-width:0.5" />
<path d="M51.555,401.65L59.555,401.65" style="fill:none;stroke:#000000;stroke-width:0.5" />
<path d="M55.555,172.47L59.555,172.47" style="fill:none;stroke:#000000;stroke-width:0.5" />
<path d="M55.555,325.26L59.555,325.26" style="fill:none;stroke:#000000;stroke-width:0.5" />
<path d="M59.555,45.151L59.555,416.58" style="fill:none;stroke:#000000;stroke-width:0.5" />
<path d="M65.305,416.58L98.646,48.9L100.16,51.99L104.71,48.828L107.74,59.187L110.77,56.253L112.29,59.071L115.32,69.966L116.83,91.896L118.35,48.974L119.86,52.411L122.89,52.043L125.92,67.38L127.44,56.181L128.96,69.354L130.47,66.597L131.99,67.438L133.5,48.882L135.02,70.538L139.56,56.102L141.08,52.657L142.6,56.362L144.11,45.249L145.63,93.409L147.14,74.819L148.66,45.387L150.17,46.215L151.69,46.083L153.2,49.405L154.72,46.012L156.23,45.689L157.75,46.715L159.27,73.084L160.78,56.862L162.3,48.211L163.81,47.793L165.33,46.716L166.84,49.065L168.36,48.968L169.87,47.387L171.39,47.542L172.91,47.649L174.42,48.528L175.94,74.177L177.45,51.135L178.97,49.787L180.48,52.255L182,54.996L183.51,49.243L185.03,49.358L186.54,50.484L188.06,74.23L189.58,49.829L191.09,50.15L192.61,52.714L194.12,50.769L195.64,52.379L197.15,55.538L198.67,51.524L200.18,48.938L201.7,49.016L203.22,48.393L204.73,48.161L206.25,51.155L207.76,49.855L209.28,53.126L210.79,55.076L212.31,51.943L213.82,48.227L215.34,49.95L216.85,48.468L218.37,47.136L219.89,48.872L221.4,49.832L222.92,51.585L224.43,49.014L225.95,50.887L227.46,54.068L228.98,48.743L230.49,48.449L232.01,46.44L233.53,48.981L235.04,48.248L236.56,48.749L238.07,49.044L239.59,54.237L241.1,51.382L242.62,49.6L244.13,47.209L245.65,48.64L247.16,47.252L248.68,48.611L250.2,48.192L251.71,49.03L253.23,48.948L254.74,48.69L256.26,50.439L257.77,50.607L259.29,47.047L260.8,47.255L262.32,48.504L263.83,47.966L265.35,47.436L266.87,46.695L268.38,49.917L269.9,50.347L271.41,47.397L272.93,47.175L274.44,47.341L275.96,47.672L277.47,47.211L278.99,47.012L280.51,46.637L282.02,48.304L283.54,47.186L285.05,46.663L286.57,46.845L288.08,46.976L289.6,47.01L291.11,47.452L292.63,47.239L294.14,46.642L295.66,46.353L297.18,46.585L298.69,47.634L300.21,46.649L301.72,46.617L303.24,47.106L304.75,47.315L306.27,46.854L307.78,46.823L309.3,46.771L310.82,46.287L312.33,46.295L313.85,46.257L315.36,46.419L316.88,46.548L318.39,46.533L319.91,46.893L321.42,46.864L322.94,46.417L324.45,46.151L325.97,46.072L327.49,46.001L329,46.099L330.52,46.109L332.03,46.341L333.55,46.563L335.06,46.265L336.58,46.088L338.09,46.212L339.61,45.994L341.13,45.777L342.64,45.886L344.16,45.993L345.67,45.95L347.19,45.819L348.7,45.957L350.22,46.188L351.73,45.92L353.25,45.745L354.76,45.701L356.28,45.834L357.8,45.732L359.31,45.789L360.83,45.605L362.34,45.799L363.86,45.866L365.37,45.732L366.89,45.602L368.4,45.635L369.92,45.616L371.44,45.617L372.95,45.649L374.47,45.47L375.98,45.533L377.5,45.53L379.01,45.712L380.53,45.626L382.04,45.51L383.56,45.528L385.07,45.568L386.59,45.575L388.11,45.522L389.62,45.431L391.14,45.407L392.65,45.569L394.17,45.463L395.68,45.467L397.2,45.484L398.71,45.449L400.23,45.459L401.75,45.47L403.26,45.435L404.78,45.363L406.29,45.368L407.81,45.365L409.32,45.363L410.84,45.392L412.35,45.367L413.87,45.396L415.38,45.415L416.9,45.34L418.42,45.299L419.93,45.326L421.45,45.316L422.96,45.308L424.48,45.322L425.99,45.345L427.51,45.316L429.02,45.313L430.54,45.298L432.06,45.331L433.57,45.276L435.09,45.261L436.6,45.269L438.12,45.261L439.63,45.277L441.15,45.229L442.66,45.271L444.18,45.28L445.69,45.267L447.21,45.265L448.73,45.242L450.24,45.24L451.76,45.232L453.27,45.24L454.79,45.232L456.3,45.218L457.82,45.238L459.33,45.225L460.85,45.238L462.37,45.233L463.88,45.223L465.4,45.212L466.91,45.216L468.43,45.204L469.94,45.209L471.46,45.195L472.97,45.202L474.49,45.211L476,45.202L477.52,45.181L479.04,45.206L480.55,45.197L482.07,45.193L483.58,45.195L485.1,45.187L486.61,45.187L488.13,45.187L489.64,45.192L491.16,45.184L492.68,45.183L494.19,45.186L495.71,45.187L497.22,45.192L498.74,45.173L500.25,45.183L501.77,45.173L503.28,45.17L504.8,45.173L506.31,45.181L507.83,45.173L509.35,45.183L510.86,45.167L512.38,45.181L513.89,45.17L515.41,45.164L516.92,45.173L518.44,45.159L519.95,45.17L521.47,45.173L522.99,45.167L524.5,45.164L526.02,45.16L527.53,45.167L529.05,45.162L530.56,45.155L532.08,45.168L533.59,45.16L535.11,45.156L536.62,45.163L538.14,45.162L539.66,45.163L541.17,45.163L542.69,45.163L544.2,45.156L545.72,45.168L547.23,45.158L548.75,45.156L550.26,45.156L551.78,45.153L553.3,45.154L554.81,45.156L556.33,45.159L557.84,45.156L559.36,45.158L560.87,45.154L562.39,45.156L563.9,45.16L565.42,45.153L566.93,45.155L568.45,45.162L569.97,45.154L571.48,45.155L573,45.154L574.51,45.156L576.03,45.151L577.54,45.154L579.06,45.154L580.57,45.151L582.09,45.151L583.61,45.151L586.64,45.151L588.15,45.151L589.67,45.155L591.18,45.151L592.7,45.151L594.21,45.154L595.73,45.151L598.76,45.153L600.28,45.153L601.79,45.156L603.31,45.153L607.85,45.153L609.37,45.154L610.88,45.151L612.4,45.151L613.92,45.151L615.43,45.153L616.95,45.151L619.98,45.151L621.49,45.151L623.01,45.151L624.52,45.151L626.04,45.154L627.55,45.151L629.07,45.154L635.13,45.151L636.65,45.153L638.16,45.153L642.71,45.151L647.26,45.151L653.32,45.151L662.41,45.151L668.47,45.151L669.99,45.151L674.54,45.151L676.05,45.151L683.63,45.151L720,45.151" style="fill:none;stroke:#0000FF" />
</g>
</svg>
