<?xml version="1.0"?>
<!-- Generated by SVGo and Plotinum VG -->
<svg width="720pt" height="432pt" viewBox="0 0 720 432"
	xmlns="http://www.w3.org/2000/svg"
	xmlns:xlink="http://www.w3.org/1999/xlink">
<g transform="scale(1, -1) translate(0, -432)">
<path d="M0,0L720,0L720,432L0,432Z" style="fill:#FFFFFF" />
<text x="358.5" y="-420.45" transform="scale(1, -1)"
	style="font-family:Times;font-weight:normal;font-style:normal;font-size:12px"> </text>
<text x="379.13" y="-3.8613" transform="scale(1, -1)"
	style="font-family:Times;font-weight:normal;font-style:normal;font-size:12px">Costs</text>
<text x="62.434" y="-18.634" transform="scale(1, -1)"
	style="font-family:Times;font-weight:normal;font-style:normal;font-size:10px">0</text>
<text x="324.26" y="-18.634" transform="scale(1, -1)"
	style="font-family:Times;font-weight:normal;font-style:normal;font-size:10px">200</text>
<text x="591.09" y="-18.634" transform="scale(1, -1)"
	style="font-family:Times;font-weight:normal;font-style:normal;font-size:10px">400</text>
<path d="M64.934,28.263L64.934,36.263" style="fill:none;stroke:#000000;stroke-width:0.5" />
<path d="M331.76,28.263L331.76,36.263" style="fill:none;stroke:#000000;stroke-width:0.5" />
<path d="M598.59,28.263L598.59,36.263" style="fill:none;stroke:#000000;stroke-width:0.5" />
<path d="M198.35,32.263L198.35,36.263" style="fill:none;stroke:#000000;stroke-width:0.5" />
<path d="M465.18,32.263L465.18,36.263" style="fill:none;stroke:#000000;stroke-width:0.5" />
<path d="M64.934,36.263L720,36.263" style="fill:none;stroke:#000000;stroke-width:0.5" />
<g transform="rotate(90)">
<text x="152.55" y="11.555" transform="scale(1, -1)"
	style="font-family:Times;font-weight:normal;font-style:normal;font-size:12px">Number of trials (1000000 total)</text>
</g>
<text x="23.684" y="-72.429" transform="scale(1, -1)"
	style="font-family:Times;font-weight:normal;font-style:normal;font-size:10px">10000</text>
<text x="23.684" y="-224.86" transform="scale(1, -1)"
	style="font-family:Times;font-weight:normal;font-style:normal;font-size:10px">60000</text>
<text x="19.055" y="-377.29" transform="scale(1, -1)"
	style="font-family:Times;font-weight:normal;font-style:normal;font-size:10px">110000</text>
<path d="M51.184,75.634L59.184,75.634" style="fill:none;stroke:#000000;stroke-width:0.5" />
<path d="M51.184,228.06L59.184,228.06" style="fill:none;stroke:#000000;stroke-width:0.5" />
<path d="M51.184,380.49L59.184,380.49" style="fill:none;stroke:#000000;stroke-width:0.5" />
<path d="M55.184,106.12L59.184,106.12" style="fill:none;stroke:#000000;stroke-width:0.5" />
<path d="M55.184,136.61L59.184,136.61" style="fill:none;stroke:#000000;stroke-width:0.5" />
<path d="M55.184,167.09L59.184,167.09" style="fill:none;stroke:#000000;stroke-width:0.5" />
<path d="M55.184,197.58L59.184,197.58" style="fill:none;stroke:#000000;stroke-width:0.5" />
<path d="M55.184,258.55L59.184,258.55" style="fill:none;stroke:#000000;stroke-width:0.5" />
<path d="M55.184,289.04L59.184,289.04" style="fill:none;stroke:#000000;stroke-width:0.5" />
<path d="M55.184,319.52L59.184,319.52" style="fill:none;stroke:#000000;stroke-width:0.5" />
<path d="M55.184,350.01L59.184,350.01" style="fill:none;stroke:#000000;stroke-width:0.5" />
<path d="M55.184,410.98L59.184,410.98" style="fill:none;stroke:#000000;stroke-width:0.5" />
<path d="M59.184,45.151L59.184,416.58" style="fill:none;stroke:#000000;stroke-width:0.5" />
<path d="M64.934,416.58L94.285,56.59L95.619,48.749L99.621,66.516L100.96,90.21L102.29,61.007L104.96,52.511L106.29,71.275L107.63,56.224L108.96,81.844L110.29,74.156L111.63,82.384L112.96,60.056L114.3,74.046L116.97,71.525L118.3,75.095L119.63,74.878L120.97,92.423L122.3,78.646L123.64,71.638L124.97,67.522L126.3,70.699L128.97,57.663L130.31,57.577L131.64,80.637L132.98,68.129L134.31,45.685L135.64,67.138L136.98,59.574L138.31,58.955L139.65,73.842L140.98,71.824L142.31,61.385L143.65,61.501L144.98,70.699L146.32,64.946L147.65,71.714L148.98,55.846L150.32,53.364L151.65,53.309L152.99,56.132L154.32,57.806L155.66,60.053L156.99,59.684L158.32,60.41L159.66,76.884L160.99,60.519L162.33,67.363L163.66,70.936L164.99,61.614L166.33,65.229L167.66,70.537L169,62.797L170.33,62.925L171.67,60.989L173,70.308L174.33,63.537L175.67,66.778L177,66.583L178.34,66.04L179.67,64.394L181,65.452L182.34,64.638L183.67,63.559L185.01,65.022L186.34,63.333L187.68,63.37L189.01,65.172L190.34,62.327L191.68,63.696L193.01,63.87L194.35,63.751L195.68,63.251L197.01,64.028L198.35,62.553L199.68,63.833L201.02,62.37L202.35,61.336L203.68,63.3L205.02,60.885L206.35,60.864L207.69,60.888L209.02,60.833L210.36,57.995L211.69,60.516L213.02,59.977L214.36,60.474L215.69,62.068L217.03,60.675L218.36,60.352L219.69,61.925L221.03,60.422L222.36,59.958L223.7,59.178L225.03,58.401L226.37,58.888L227.7,58.779L229.03,58.327L230.37,58.998L231.7,58.401L233.04,57.66L234.37,59.337L235.7,58.282L237.04,57.638L238.37,58.459L239.71,58.968L241.04,58.239L242.38,58.163L243.71,58.135L245.04,57.446L246.38,57.227L247.71,56.821L249.05,57.038L250.38,56.727L251.71,56.154L253.05,56.44L254.38,55.761L255.72,56.209L257.05,56.19L258.38,55.465L259.72,55.166L261.05,55.571L262.39,55.065L263.72,55.264L265.06,55.163L266.39,54.584L267.72,54.684L269.06,54.203L270.39,54.181L271.73,54.355L273.06,53.995L274.39,54.069L275.73,54.075L277.06,53.657L278.4,53.648L279.73,53.666L281.07,53.105L282.4,52.931L283.73,53.09L285.07,52.532L286.4,52.514L287.74,52.712L289.07,52.34L290.4,51.98L291.74,52.236L293.07,52.008L294.41,52.166L295.74,51.88L297.08,51.718L298.41,51.825L299.74,51.276L301.08,51.197L302.41,51.395L303.75,51.026L305.08,50.999L306.41,51.02L307.75,50.807L309.08,50.706L310.42,50.532L311.75,50.395L313.09,50.276L314.42,50.124L315.75,50.273L317.09,50.114L318.42,49.871L319.76,49.868L321.09,50.142L322.42,49.822L323.76,49.733L325.09,49.618L326.43,49.191L327.76,49.365L329.09,49.2L330.43,49.221L331.76,48.965L333.1,48.91L334.43,49.041L335.77,48.904L337.1,48.767L338.43,48.767L339.77,48.541L341.1,48.596L342.44,48.541L343.77,48.282L345.1,48.334L346.44,48.368L347.77,48.234L349.11,48.118L350.44,48.298L351.78,47.956L353.11,47.865L354.44,47.926L355.78,47.913L357.11,47.67L358.45,47.779L359.78,47.715L361.11,47.557L362.45,47.572L363.78,47.487L365.12,47.468L366.45,47.316L367.79,47.212L369.12,47.349L370.45,47.096L371.79,47.176L373.12,47.13L374.46,47.023L375.79,47.032L377.12,47.051L378.46,46.999L379.79,46.828L381.13,46.904L382.46,46.721L383.79,46.892L385.13,46.657L386.46,46.612L387.8,46.538L389.13,46.63L390.47,46.526L391.8,46.548L393.13,46.599L394.47,46.441L395.8,46.432L397.14,46.42L398.47,46.459L399.8,46.288L401.14,46.307L402.47,46.38L403.81,46.276L405.14,46.139L406.48,46.212L407.81,46.243L409.14,46.185L410.48,46.127L411.81,46.051L413.15,46.011L414.48,46.069L415.81,46.066L417.15,46.109L418.48,45.923L419.82,45.871L421.15,45.932L422.49,45.91L423.82,45.868L425.15,45.856L426.49,45.853L427.82,45.789L429.16,45.731L430.49,45.886L431.82,45.853L433.16,45.77L434.49,45.758L435.83,45.679L437.16,45.7L438.49,45.685L439.83,45.682L441.16,45.721L442.5,45.651L443.83,45.615L445.17,45.642L446.5,45.593L447.83,45.636L449.17,45.636L450.5,45.532L451.84,45.523L453.17,45.487L454.5,45.535L455.84,45.526L457.17,45.462L458.51,45.52L459.84,45.499L461.18,45.447L462.51,45.478L463.84,45.468L465.18,45.441L466.51,45.456L467.85,45.429L469.18,45.386L470.51,45.395L471.85,45.417L473.18,45.435L474.52,45.395L475.85,45.34L477.19,45.383L478.52,45.353L479.85,45.368L481.19,45.346L482.52,45.337L483.86,45.359L485.19,45.328L486.52,45.362L487.86,45.286L489.19,45.325L490.53,45.331L491.86,45.316L493.19,45.325L494.53,45.261L495.86,45.31L497.2,45.276L498.53,45.304L499.87,45.27L501.2,45.295L502.53,45.282L503.87,45.264L505.2,45.255L506.54,45.27L507.87,45.234L509.2,45.267L510.54,45.231L511.87,45.267L513.21,45.237L514.54,45.24L515.88,45.255L517.21,45.228L518.54,45.252L519.88,45.234L521.21,45.24L522.55,45.212L523.88,45.215L525.21,45.246L526.55,45.218L527.88,45.203L529.22,45.209L530.55,45.231L531.89,45.185L533.22,45.194L534.55,45.209L535.89,45.194L537.22,45.206L538.56,45.197L539.89,45.197L541.22,45.206L542.56,45.2L543.89,45.182L545.23,45.185L546.56,45.188L547.89,45.176L549.23,45.182L550.56,45.179L551.9,45.176L553.23,45.197L554.57,45.188L555.9,45.185L557.23,45.191L558.57,45.167L559.9,45.179L561.24,45.182L562.57,45.182L563.9,45.17L565.24,45.182L566.57,45.191L567.91,45.185L569.24,45.161L570.58,45.164L571.91,45.173L573.24,45.173L574.58,45.17L575.91,45.17L577.25,45.173L578.58,45.167L579.91,45.17L581.25,45.167L582.58,45.157L583.92,45.17L585.25,45.161L586.59,45.164L587.92,45.164L589.25,45.161L590.59,45.161L591.92,45.17L593.26,45.167L594.59,45.154L595.92,45.161L597.26,45.154L598.59,45.17L599.93,45.157L601.26,45.161L602.6,45.154L603.93,45.154L605.26,45.157L606.6,45.151L607.93,45.164L609.27,45.151L611.93,45.161L613.27,45.154L614.6,45.157L615.94,45.157L617.27,45.151L618.6,45.154L619.94,45.157L621.27,45.151L622.61,45.151L623.94,45.154L625.28,45.157L627.94,45.154L629.28,45.151L630.61,45.151L633.28,45.161L634.61,45.154L637.28,45.151L639.95,45.154L642.62,45.151L643.95,45.151L646.62,45.151L647.96,45.151L649.29,45.151L653.29,45.151L654.63,45.151L659.96,45.151L663.97,45.151L669.3,45.151L670.64,45.151L673.3,45.151L675.97,45.157L678.64,45.151L679.98,45.151L681.31,45.151L689.31,45.151L701.32,45.151L710.66,45.151L720,45.151" style="fill:none;stroke:#0000FF" />
</g>
</svg>
