<?xml version="1.0"?>
<!-- Generated by SVGo and Plotinum VG -->
<svg width="720pt" height="432pt" viewBox="0 0 720 432"
	xmlns="http://www.w3.org/2000/svg"
	xmlns:xlink="http://www.w3.org/1999/xlink">
<g transform="scale(1, -1) translate(0, -432)">
<path d="M0,0L720,0L720,432L0,432Z" style="fill:#FFFFFF" />
<text x="358.5" y="-420.45" transform="scale(1, -1)"
	style="font-family:Times;font-weight:normal;font-style:normal;font-size:12px"> </text>
<text x="385.56" y="-3.8613" transform="scale(1, -1)"
	style="font-family:Times;font-weight:normal;font-style:normal;font-size:12px">Costs</text>
<text x="69.055" y="-18.634" transform="scale(1, -1)"
	style="font-family:Times;font-weight:normal;font-style:normal;font-size:10px">0.00</text>
<text x="351.78" y="-18.634" transform="scale(1, -1)"
	style="font-family:Times;font-weight:normal;font-style:normal;font-size:10px">250.00</text>
<text x="639.5" y="-18.634" transform="scale(1, -1)"
	style="font-family:Times;font-weight:normal;font-style:normal;font-size:10px">500.00</text>
<path d="M77.805,28.263L77.805,36.263" style="fill:none;stroke:#000000;stroke-width:0.5" />
<path d="M365.53,28.263L365.53,36.263" style="fill:none;stroke:#000000;stroke-width:0.5" />
<path d="M653.25,28.263L653.25,36.263" style="fill:none;stroke:#000000;stroke-width:0.5" />
<path d="M135.35,32.263L135.35,36.263" style="fill:none;stroke:#000000;stroke-width:0.5" />
<path d="M192.89,32.263L192.89,36.263" style="fill:none;stroke:#000000;stroke-width:0.5" />
<path d="M250.44,32.263L250.44,36.263" style="fill:none;stroke:#000000;stroke-width:0.5" />
<path d="M307.98,32.263L307.98,36.263" style="fill:none;stroke:#000000;stroke-width:0.5" />
<path d="M423.07,32.263L423.07,36.263" style="fill:none;stroke:#000000;stroke-width:0.5" />
<path d="M480.62,32.263L480.62,36.263" style="fill:none;stroke:#000000;stroke-width:0.5" />
<path d="M538.16,32.263L538.16,36.263" style="fill:none;stroke:#000000;stroke-width:0.5" />
<path d="M595.7,32.263L595.7,36.263" style="fill:none;stroke:#000000;stroke-width:0.5" />
<path d="M710.79,32.263L710.79,36.263" style="fill:none;stroke:#000000;stroke-width:0.5" />
<path d="M77.805,36.263L720,36.263" style="fill:none;stroke:#000000;stroke-width:0.5" />
<g transform="rotate(90)">
<text x="152.55" y="11.555" transform="scale(1, -1)"
	style="font-family:Times;font-weight:normal;font-style:normal;font-size:12px">Number of trials (1000000 total)</text>
</g>
<text x="24.055" y="-113.7" transform="scale(1, -1)"
	style="font-family:Times;font-weight:normal;font-style:normal;font-size:10px">25000.00</text>
<text x="24.055" y="-257.22" transform="scale(1, -1)"
	style="font-family:Times;font-weight:normal;font-style:normal;font-size:10px">75000.00</text>
<text x="19.055" y="-400.73" transform="scale(1, -1)"
	style="font-family:Times;font-weight:normal;font-style:normal;font-size:10px">125000.00</text>
<path d="M64.055,116.91L72.055,116.91" style="fill:none;stroke:#000000;stroke-width:0.5" />
<path d="M64.055,260.42L72.055,260.42" style="fill:none;stroke:#000000;stroke-width:0.5" />
<path d="M64.055,403.94L72.055,403.94" style="fill:none;stroke:#000000;stroke-width:0.5" />
<path d="M68.055,59.5L72.055,59.5" style="fill:none;stroke:#000000;stroke-width:0.5" />
<path d="M68.055,88.203L72.055,88.203" style="fill:none;stroke:#000000;stroke-width:0.5" />
<path d="M68.055,145.61L72.055,145.61" style="fill:none;stroke:#000000;stroke-width:0.5" />
<path d="M68.055,174.31L72.055,174.31" style="fill:none;stroke:#000000;stroke-width:0.5" />
<path d="M68.055,203.02L72.055,203.02" style="fill:none;stroke:#000000;stroke-width:0.5" />
<path d="M68.055,231.72L72.055,231.72" style="fill:none;stroke:#000000;stroke-width:0.5" />
<path d="M68.055,289.13L72.055,289.13" style="fill:none;stroke:#000000;stroke-width:0.5" />
<path d="M68.055,317.83L72.055,317.83" style="fill:none;stroke:#000000;stroke-width:0.5" />
<path d="M68.055,346.53L72.055,346.53" style="fill:none;stroke:#000000;stroke-width:0.5" />
<path d="M68.055,375.24L72.055,375.24" style="fill:none;stroke:#000000;stroke-width:0.5" />
<path d="M72.055,45.151L72.055,416.58" style="fill:none;stroke:#000000;stroke-width:0.5" />
<path d="M77.805,416.58L105.43,59.21L108.88,61.814L110.03,73.407L111.18,51.874L113.48,65.881L114.63,59.127L115.78,96.817L116.93,84.581L118.09,62.517L119.24,62.548L120.39,62.732L121.54,58.972L122.69,75.881L123.84,51.788L124.99,66.854L126.14,80.264L127.29,80.494L128.44,77.394L129.59,58.909L130.75,66.435L133.05,59.113L134.2,76.983L135.35,69.572L136.5,60.456L137.65,46.159L138.8,85.419L139.95,62.488L141.1,54.049L142.25,68.074L143.41,61.374L144.56,47.657L145.71,65.769L146.86,67.87L148.01,62.233L149.16,65.281L150.31,49.945L151.46,50.835L152.61,52.273L153.76,53.894L154.91,74.457L156.07,54.029L157.22,54.979L158.37,57.431L159.52,66.217L160.67,57.23L161.82,71.432L162.97,60.112L164.12,59.116L165.27,60.99L166.42,78.083L167.57,60.31L168.72,57.901L169.88,59.626L171.03,80.35L172.18,61.748L173.33,62.525L174.48,62.833L175.63,61.217L176.78,62.333L177.93,65.298L179.08,63.022L180.23,61.822L181.38,61.98L182.54,60.427L183.69,62.873L184.84,62.586L185.99,62.491L187.14,63.691L188.29,59.853L189.44,59.394L190.59,60.726L191.74,61.024L192.89,59.925L194.04,60.229L195.2,60.404L196.35,59.207L197.5,61.423L198.65,60.766L199.8,60.373L200.95,57.703L202.1,58.78L203.25,60.456L204.4,62.121L205.55,58.699L206.7,58.625L207.85,59.029L209.01,58.932L210.16,60.666L211.31,60.376L212.46,57.95L213.61,57.25L214.76,57.985L215.91,59.325L217.06,58.252L218.21,58.206L219.36,58.903L220.51,57.792L221.67,56.693L222.82,58.849L223.97,58.662L225.12,56.102L226.27,56.871L227.42,58.702L228.57,57.02L229.72,56.997L230.87,56.696L232.02,57.723L233.17,56.107L234.33,56.28L235.48,57.017L236.63,56.455L237.78,54.959L238.93,56.222L240.08,55.419L241.23,55.045L242.38,55.774L243.53,55.861L244.68,54.253L245.83,54.199L246.99,54.81L248.14,56.087L249.29,53.932L250.44,54.928L251.59,54.121L252.74,54.331L253.89,54.187L255.04,54.991L256.19,53.576L257.34,53.249L258.49,53.418L259.64,54.477L260.8,53.639L261.95,53.53L263.1,53.174L264.25,53.059L265.4,52.907L266.55,53.079L267.7,52.936L268.85,52.841L270,52.583L271.15,52.657L272.3,52.396L273.46,52.37L274.61,52.23L275.76,51.994L276.91,51.905L278.06,51.624L279.21,51.991L280.36,51.793L281.51,51.274L282.66,51.251L283.81,51.081L284.96,51.15L286.12,50.987L287.27,50.944L288.42,51.076L289.57,50.625L290.72,50.852L291.87,50.7L293.02,50.614L294.17,50.507L295.32,50.332L296.47,50.235L297.62,50.057L298.78,49.939L299.93,50.14L301.08,49.758L302.23,49.408L303.38,49.709L304.53,49.609L305.68,49.649L306.83,49.471L307.98,49.477L309.13,49.25L310.28,49.158L311.43,49.084L312.59,49.224L313.74,48.957L314.89,48.909L316.04,48.992L317.19,48.943L318.34,48.633L319.49,48.564L320.64,48.682L321.79,48.323L322.94,48.472L324.09,48.426L325.25,48.188L326.4,48.203L327.55,48.114L328.7,48.108L329.85,48.18L331,47.979L332.15,48.111L333.3,47.982L334.45,47.93L335.6,47.878L336.75,47.732L337.91,47.712L339.06,47.717L340.21,47.517L341.36,47.494L342.51,47.557L343.66,47.64L344.81,47.488L345.96,47.419L347.11,47.258L348.26,47.436L349.41,47.195L350.57,47.178L351.72,47.02L352.87,47.172L354.02,47.037L355.17,46.848L356.32,47.083L357.47,46.905L358.62,46.839L359.77,46.856L360.92,46.813L362.07,46.624L363.22,46.756L364.38,46.681L365.53,46.658L366.68,46.595L367.83,46.538L368.98,46.509L370.13,46.515L371.28,46.432L372.43,46.543L373.58,46.454L374.73,46.363L375.88,46.357L377.04,46.426L378.19,46.233L379.34,46.371L380.49,46.268L381.64,46.182L382.79,46.182L383.94,46.133L385.09,46.113L386.24,46.19L387.39,46.096L388.54,46.004L389.7,46.101L390.85,45.998L392,46.004L393.15,46.073L394.3,46.038L395.45,45.99L396.6,45.932L397.75,45.906L398.9,45.926L400.05,45.921L401.2,45.866L402.36,45.886L403.51,45.723L404.66,45.766L405.81,45.863L406.96,45.757L408.11,45.794L409.26,45.743L410.41,45.723L411.56,45.665L412.71,45.677L413.86,45.654L415.01,45.645L416.17,45.648L417.32,45.576L418.47,45.68L419.62,45.636L420.77,45.619L421.92,45.562L423.07,45.625L424.22,45.593L425.37,45.507L426.52,45.559L427.67,45.562L428.83,45.51L429.98,45.513L431.13,45.499L432.28,45.479L433.43,45.458L434.58,45.487L435.73,45.484L436.88,45.395L438.03,45.493L439.18,45.479L440.33,45.453L441.49,45.444L442.64,45.456L443.79,45.387L444.94,45.401L446.09,45.372L447.24,45.413L448.39,45.407L449.54,45.358L450.69,45.407L451.84,45.355L452.99,45.378L454.14,45.318L455.3,45.358L456.45,45.384L457.6,45.384L458.75,45.301L459.9,45.347L461.05,45.349L462.2,45.312L463.35,45.315L464.5,45.289L465.65,45.292L466.8,45.332L467.96,45.283L469.11,45.289L470.26,45.286L471.41,45.266L472.56,45.272L473.71,45.329L474.86,45.255L476.01,45.255L477.16,45.286L478.31,45.243L479.46,45.255L480.62,45.281L481.77,45.255L482.92,45.26L484.07,45.255L485.22,45.22L486.37,45.255L487.52,45.263L488.67,45.22L489.82,45.258L490.97,45.226L492.12,45.215L493.28,45.203L494.43,45.212L495.58,45.237L496.73,45.243L497.88,45.243L499.03,45.197L500.18,45.217L501.33,45.226L502.48,45.177L503.63,45.189L504.78,45.237L505.93,45.192L507.09,45.189L508.24,45.197L509.39,45.206L510.54,45.226L511.69,45.192L512.84,45.197L513.99,45.197L515.14,45.177L516.29,45.194L517.44,45.183L518.59,45.183L519.75,45.183L520.9,45.183L522.05,45.186L523.2,45.177L524.35,45.171L525.5,45.169L526.65,45.2L527.8,45.169L528.95,45.166L530.1,45.18L531.25,45.169L532.41,45.177L533.56,45.166L534.71,45.169L535.86,45.171L537.01,45.174L538.16,45.186L539.31,45.177L540.46,45.163L541.61,45.163L542.76,45.171L543.91,45.174L545.07,45.16L546.22,45.163L547.37,45.166L548.52,45.16L549.67,45.151L550.82,45.16L551.97,45.157L553.12,45.163L554.27,45.163L555.42,45.171L556.57,45.157L557.72,45.154L558.88,45.154L560.03,45.151L561.18,45.151L562.33,45.157L563.48,45.154L564.63,45.154L565.78,45.16L566.93,45.157L568.08,45.166L569.23,45.166L570.38,45.16L571.54,45.157L572.69,45.16L573.84,45.157L574.99,45.157L576.14,45.154L577.29,45.16L578.44,45.163L579.59,45.154L580.74,45.157L581.89,45.163L583.04,45.157L584.2,45.157L585.35,45.151L586.5,45.151L588.8,45.151L589.95,45.157L591.1,45.151L593.4,45.154L595.7,45.154L596.86,45.16L598.01,45.154L599.16,45.154L600.31,45.151L606.06,45.151L607.21,45.154L608.36,45.151L611.82,45.151L614.12,45.151L615.27,45.154L616.42,45.151L621.02,45.151L622.17,45.151L626.78,45.154L629.08,45.151L633.68,45.151L635.99,45.157L638.29,45.151L644.04,45.154L653.25,45.151L655.55,45.154L678.57,45.151L694.68,45.151L700.43,45.151L701.59,45.151L720,45.151" style="fill:none;stroke:#0000FF" />
</g>
</svg>
