<?xml version="1.0"?>
<!-- Generated by SVGo and Plotinum VG -->
<svg width="720pt" height="432pt" viewBox="0 0 720 432"
	xmlns="http://www.w3.org/2000/svg"
	xmlns:xlink="http://www.w3.org/1999/xlink">
<g transform="scale(1, -1) translate(0, -432)">
<path d="M0,0L720,0L720,432L0,432Z" style="fill:#FFFFFF" />
<text x="358.5" y="-420.45" transform="scale(1, -1)"
	style="font-family:Times;font-weight:normal;font-style:normal;font-size:12px"> </text>
<text x="379.31" y="-3.8613" transform="scale(1, -1)"
	style="font-family:Times;font-weight:normal;font-style:normal;font-size:12px">Costs</text>
<text x="56.555" y="-18.634" transform="scale(1, -1)"
	style="font-family:Times;font-weight:normal;font-style:normal;font-size:10px">0.00</text>
<text x="369.99" y="-18.634" transform="scale(1, -1)"
	style="font-family:Times;font-weight:normal;font-style:normal;font-size:10px">250.00</text>
<text x="688.42" y="-18.634" transform="scale(1, -1)"
	style="font-family:Times;font-weight:normal;font-style:normal;font-size:10px">500.00</text>
<path d="M65.305,28.263L65.305,36.263" style="fill:none;stroke:#000000;stroke-width:0.5" />
<path d="M383.74,28.263L383.74,36.263" style="fill:none;stroke:#000000;stroke-width:0.5" />
<path d="M702.17,28.263L702.17,36.263" style="fill:none;stroke:#000000;stroke-width:0.5" />
<path d="M128.99,32.263L128.99,36.263" style="fill:none;stroke:#000000;stroke-width:0.5" />
<path d="M192.68,32.263L192.68,36.263" style="fill:none;stroke:#000000;stroke-width:0.5" />
<path d="M256.36,32.263L256.36,36.263" style="fill:none;stroke:#000000;stroke-width:0.5" />
<path d="M320.05,32.263L320.05,36.263" style="fill:none;stroke:#000000;stroke-width:0.5" />
<path d="M447.42,32.263L447.42,36.263" style="fill:none;stroke:#000000;stroke-width:0.5" />
<path d="M511.11,32.263L511.11,36.263" style="fill:none;stroke:#000000;stroke-width:0.5" />
<path d="M574.8,32.263L574.8,36.263" style="fill:none;stroke:#000000;stroke-width:0.5" />
<path d="M638.48,32.263L638.48,36.263" style="fill:none;stroke:#000000;stroke-width:0.5" />
<path d="M65.305,36.263L720,36.263" style="fill:none;stroke:#000000;stroke-width:0.5" />
<g transform="rotate(90)">
<text x="152.55" y="11.555" transform="scale(1, -1)"
	style="font-family:Times;font-weight:normal;font-style:normal;font-size:12px">Number of trials (1000000 total)</text>
</g>
<text x="24.055" y="-113.59" transform="scale(1, -1)"
	style="font-family:Times;font-weight:normal;font-style:normal;font-size:10px">40000</text>
<text x="19.055" y="-256.87" transform="scale(1, -1)"
	style="font-family:Times;font-weight:normal;font-style:normal;font-size:10px">120000</text>
<text x="19.055" y="-400.15" transform="scale(1, -1)"
	style="font-family:Times;font-weight:normal;font-style:normal;font-size:10px">200000</text>
<path d="M51.555,116.79L59.555,116.79" style="fill:none;stroke:#000000;stroke-width:0.5" />
<path d="M51.555,260.07L59.555,260.07" style="fill:none;stroke:#000000;stroke-width:0.5" />
<path d="M51.555,403.36L59.555,403.36" style="fill:none;stroke:#000000;stroke-width:0.5" />
<path d="M55.555,188.43L59.555,188.43" style="fill:none;stroke:#000000;stroke-width:0.5" />
<path d="M55.555,331.72L59.555,331.72" style="fill:none;stroke:#000000;stroke-width:0.5" />
<path d="M59.555,45.151L59.555,416.58" style="fill:none;stroke:#000000;stroke-width:0.5" />
<path d="M65.305,416.58L94.6,55.591L95.874,55.783L98.422,63.105L99.695,55.462L100.97,73.948L102.24,48.567L103.52,48.639L104.79,59.182L106.06,61.932L107.34,55.421L108.61,73.778L109.89,48.468L112.43,59.906L113.71,51.887L114.98,66.187L116.25,58.708L117.53,80.789L118.8,76.692L120.07,76.543L121.35,74.057L123.9,58.975L125.17,45.44L127.72,56.422L128.99,56.358L130.26,56.609L131.54,46.251L132.81,92.308L134.09,61.183L135.36,65.082L136.63,61.392L137.91,57.499L139.18,47.67L140.45,47.308L141.73,52.239L143,58.615L144.28,58.91L145.55,54.617L146.82,48.06L148.1,50.931L149.37,50.361L150.64,61.808L151.92,50.933L153.19,52.015L154.47,52.367L155.74,62.249L157.01,51.977L158.29,51.823L159.56,66.332L160.83,52.48L162.11,53.261L163.38,53.519L164.66,51.705L165.93,52.833L167.2,56.931L168.48,93.941L169.75,53.485L171.02,55.908L172.3,55.907L173.57,56.935L174.85,53.025L176.12,56.014L177.39,52.52L178.67,51.429L179.94,53.191L181.21,51.461L182.49,52.846L183.76,53.353L185.03,56.229L186.31,56.541L187.58,55.102L188.86,56.374L190.13,52.641L191.4,54.013L192.68,51.239L193.95,51.32L195.22,52.192L196.5,51.997L197.77,53.979L199.05,53.075L200.32,52.733L201.59,53.087L202.87,54.069L204.14,54.52L205.41,51.456L206.69,51.579L207.96,51.841L209.24,52.932L210.51,52.09L211.78,55.156L213.06,51.726L214.33,51.415L215.6,52.292L216.88,49.695L218.15,52.858L219.43,50.721L220.7,53.179L221.97,53.379L223.25,54.567L224.52,52.699L225.79,49.468L227.07,52.776L228.34,50.071L229.62,50.005L230.89,50.675L232.16,50.514L233.44,49.959L234.71,49.337L235.98,53.795L237.26,50.756L238.53,51.843L239.81,50.904L241.08,50.781L242.35,49.018L243.63,49.038L244.9,50.037L246.17,50L247.45,50.113L248.72,49.43L249.99,48.982L251.27,48.717L252.54,49.067L253.82,50.188L255.09,48.941L256.36,49.135L257.64,49.002L258.91,49.908L260.18,48.434L261.46,48.864L262.73,50.05L264.01,48.554L265.28,48.578L266.55,48.644L267.83,48.524L269.1,48.373L270.37,48.787L271.65,48.556L272.92,48.232L274.2,48.538L275.47,48.379L276.74,48.338L278.02,48.116L279.29,48.28L280.56,47.997L281.84,47.739L283.11,48.019L284.39,47.605L285.66,47.759L286.93,47.612L288.21,47.935L289.48,47.856L290.75,47.816L292.03,47.942L293.3,47.526L294.58,47.602L295.85,47.356L297.12,47.295L298.4,47.222L299.67,47.242L300.94,47.216L302.22,47.143L303.49,47.147L304.77,47.012L306.04,47.216L307.31,46.975L308.59,46.969L309.86,46.878L311.13,46.835L312.41,46.819L313.68,46.842L314.96,46.858L316.23,46.738L317.5,46.894L318.78,46.702L320.05,46.403L321.32,46.584L322.6,46.441L323.87,46.505L325.14,46.554L326.42,46.563L327.69,46.326L328.97,46.348L330.24,46.414L331.51,46.271L332.79,46.416L334.06,46.301L335.33,46.296L336.61,46.102L337.88,46.203L339.16,46.086L340.43,46.156L341.7,46.192L342.98,46.172L344.25,46.129L345.52,46.004L346.8,46.049L348.07,46.113L349.35,45.979L350.62,45.939L351.89,45.909L353.17,45.929L354.44,45.882L355.71,45.873L356.99,45.853L358.26,45.868L359.54,45.887L360.81,45.843L362.08,45.784L363.36,45.708L364.63,45.75L365.9,45.755L367.18,45.748L368.45,45.698L369.73,45.714L371,45.651L372.27,45.708L373.55,45.651L374.82,45.628L376.09,45.622L377.37,45.579L378.64,45.587L379.92,45.592L381.19,45.613L382.46,45.606L383.74,45.551L385.01,45.597L386.28,45.536L387.56,45.506L388.83,45.551L390.1,45.463L391.38,45.502L392.65,45.442L393.93,45.51L395.2,45.479L396.47,45.481L397.75,45.456L399.02,45.427L400.29,45.429L401.57,45.379L402.84,45.434L404.12,45.424L405.39,45.399L406.66,45.348L407.94,45.361L409.21,45.379L410.48,45.386L411.76,45.348L413.03,45.336L414.31,45.336L415.58,45.354L416.85,45.318L418.13,45.343L419.4,45.332L420.67,45.293L421.95,45.307L423.22,45.329L424.5,45.32L425.77,45.318L427.04,45.296L428.32,45.262L429.59,45.311L430.86,45.275L432.14,45.284L433.41,45.286L434.69,45.277L435.96,45.286L437.23,45.273L438.51,45.286L439.78,45.271L441.05,45.25L442.33,45.248L443.6,45.248L444.88,45.248L446.15,45.261L447.42,45.228L448.7,45.218L449.97,45.232L451.24,45.253L452.52,45.23L453.79,45.23L455.06,45.234L456.34,45.209L457.61,45.221L458.89,45.214L460.16,45.212L461.43,45.221L462.71,45.221L463.98,45.205L465.25,45.214L466.53,45.203L467.8,45.202L469.08,45.202L470.35,45.205L471.62,45.189L472.9,45.205L474.17,45.189L475.44,45.202L476.72,45.205L477.99,45.18L479.27,45.196L480.54,45.2L481.81,45.198L483.09,45.191L484.36,45.176L485.63,45.185L486.91,45.189L488.18,45.187L489.46,45.185L490.73,45.185L492,45.176L493.28,45.176L494.55,45.173L495.82,45.184L497.1,45.175L498.37,45.176L499.65,45.182L500.92,45.171L502.19,45.169L503.47,45.18L504.74,45.164L506.01,45.173L507.29,45.155L508.56,45.164L509.84,45.167L511.11,45.166L512.38,45.171L513.66,45.169L514.93,45.169L516.2,45.166L517.48,45.169L518.75,45.162L520.02,45.155L521.3,45.16L522.57,45.159L523.85,45.159L525.12,45.159L526.39,45.162L527.67,45.16L528.94,45.155L530.21,45.153L531.49,45.157L532.76,45.164L534.04,45.155L535.31,45.153L536.58,45.164L537.86,45.164L539.13,45.16L540.4,45.157L541.68,45.157L542.95,45.16L544.23,45.157L545.5,45.157L546.77,45.157L548.05,45.159L549.32,45.155L550.59,45.151L551.87,45.151L553.14,45.153L554.42,45.155L555.69,45.155L556.96,45.157L558.24,45.153L559.51,45.153L560.78,45.155L562.06,45.166L563.33,45.151L565.88,45.157L567.15,45.153L568.43,45.159L569.7,45.153L572.25,45.159L573.52,45.153L574.8,45.151L576.07,45.153L582.44,45.155L583.71,45.153L584.99,45.151L586.26,45.151L590.08,45.151L591.35,45.151L595.17,45.151L597.72,45.153L599,45.155L601.54,45.151L602.82,45.151L604.09,45.151L606.64,45.151L607.91,45.151L609.19,45.151L611.73,45.151L614.28,45.151L615.55,45.151L616.83,45.151L619.38,45.151L623.2,45.151L627.02,45.155L628.29,45.151L644.85,45.151L648.67,45.151L652.49,45.151L666.5,45.151L680.51,45.151L681.79,45.151L684.34,45.151L693.25,45.151L707.26,45.151L720,45.151" style="fill:none;stroke:#0000FF" />
</g>
</svg>
