<?xml version="1.0"?>
<!-- Generated by SVGo and Plotinum VG -->
<svg width="720pt" height="432pt" viewBox="0 0 720 432"
	xmlns="http://www.w3.org/2000/svg"
	xmlns:xlink="http://www.w3.org/1999/xlink">
<g transform="scale(1, -1) translate(0, -432)">
<path d="M0,0L720,0L720,432L0,432Z" style="fill:#FFFFFF" />
<text x="358.5" y="-420.45" transform="scale(1, -1)"
	style="font-family:Times;font-weight:normal;font-style:normal;font-size:12px"> </text>
<text x="379.31" y="-3.8613" transform="scale(1, -1)"
	style="font-family:Times;font-weight:normal;font-style:normal;font-size:12px">Costs</text>
<text x="62.805" y="-18.634" transform="scale(1, -1)"
	style="font-family:Times;font-weight:normal;font-style:normal;font-size:10px">0</text>
<text x="337.59" y="-18.634" transform="scale(1, -1)"
	style="font-family:Times;font-weight:normal;font-style:normal;font-size:10px">200</text>
<text x="617.37" y="-18.634" transform="scale(1, -1)"
	style="font-family:Times;font-weight:normal;font-style:normal;font-size:10px">400</text>
<path d="M65.305,28.263L65.305,36.263" style="fill:none;stroke:#000000;stroke-width:0.5" />
<path d="M345.09,28.263L345.09,36.263" style="fill:none;stroke:#000000;stroke-width:0.5" />
<path d="M624.87,28.263L624.87,36.263" style="fill:none;stroke:#000000;stroke-width:0.5" />
<path d="M205.2,32.263L205.2,36.263" style="fill:none;stroke:#000000;stroke-width:0.5" />
<path d="M484.98,32.263L484.98,36.263" style="fill:none;stroke:#000000;stroke-width:0.5" />
<path d="M65.305,36.263L720,36.263" style="fill:none;stroke:#000000;stroke-width:0.5" />
<g transform="rotate(90)">
<text x="152.55" y="11.555" transform="scale(1, -1)"
	style="font-family:Times;font-weight:normal;font-style:normal;font-size:12px">Number of trials (1000000 total)</text>
</g>
<text x="24.055" y="-109.04" transform="scale(1, -1)"
	style="font-family:Times;font-weight:normal;font-style:normal;font-size:10px">50000</text>
<text x="19.055" y="-243.24" transform="scale(1, -1)"
	style="font-family:Times;font-weight:normal;font-style:normal;font-size:10px">150000</text>
<text x="19.055" y="-377.44" transform="scale(1, -1)"
	style="font-family:Times;font-weight:normal;font-style:normal;font-size:10px">250000</text>
<path d="M51.555,112.25L59.555,112.25" style="fill:none;stroke:#000000;stroke-width:0.5" />
<path d="M51.555,246.45L59.555,246.45" style="fill:none;stroke:#000000;stroke-width:0.5" />
<path d="M51.555,380.65L59.555,380.65" style="fill:none;stroke:#000000;stroke-width:0.5" />
<path d="M55.555,179.35L59.555,179.35" style="fill:none;stroke:#000000;stroke-width:0.5" />
<path d="M55.555,313.55L59.555,313.55" style="fill:none;stroke:#000000;stroke-width:0.5" />
<path d="M59.555,45.151L59.555,416.58" style="fill:none;stroke:#000000;stroke-width:0.5" />
<path d="M65.305,416.58L96.081,48.624L103.08,85.897L105.87,51.922L107.27,48.568L108.67,55.461L110.07,52.197L111.47,58.72L112.87,62.382L114.27,55.694L117.06,55.363L118.46,55.405L119.86,65.805L121.26,62.314L122.66,98.538L125.46,80.315L126.86,66.312L128.26,59.38L129.66,55.624L133.85,45.527L136.65,45.197L138.05,45.177L139.45,62.326L140.85,48.96L142.25,48.71L143.64,90.011L145.04,48.993L146.44,46.352L147.84,46.116L149.24,53.806L150.64,47.488L152.04,46.754L153.44,71.756L154.84,46.994L156.23,47.511L157.63,48.516L159.03,48.269L160.43,52.259L161.83,46.645L163.23,51.252L164.63,49.713L166.03,50.764L167.43,78.873L168.82,50.07L170.22,49.936L171.62,49.415L173.02,59.363L174.42,50.357L175.82,49.31L177.22,81.664L178.62,60.445L180.02,51.365L181.42,53.664L182.81,53.206L184.21,50.913L185.61,50.121L187.01,51.645L188.41,48.391L189.81,49.057L191.21,51.186L192.61,47.748L194.01,47.129L195.4,48.151L196.8,50.556L198.2,49.569L199.6,50.529L201,54.482L202.4,48.156L203.8,50.833L205.2,52.908L206.6,49.228L207.99,49.546L209.39,48.175L210.79,51.731L212.19,46.913L213.59,50.106L214.99,52.491L216.39,49.663L217.79,49.726L219.19,48.367L220.58,49.196L221.98,50.428L223.38,49.909L224.78,53.229L226.18,48.23L227.58,52.244L228.98,49.826L230.38,50.482L231.78,52.183L233.18,49.807L234.57,52.065L235.97,48.581L237.37,50.291L238.77,49.855L240.17,48.207L241.57,49.558L242.97,47.38L244.37,47.292L245.77,49.914L247.16,47.662L248.56,46.993L249.96,46.566L251.36,50.012L252.76,47.694L254.16,47.077L255.56,52.185L256.96,48.608L258.36,47.214L259.75,46.911L261.15,48.624L262.55,47.509L263.95,46.791L265.35,49.427L266.75,47.59L268.15,47.107L269.55,47.021L270.95,47.176L272.35,47.233L273.74,46.746L275.14,48.061L276.54,47.077L277.94,47.072L279.34,49.344L280.74,47.776L282.14,46.932L283.54,46.999L284.94,48.152L286.33,47.248L287.73,46.967L289.13,47.458L290.53,47.634L291.93,47.031L293.33,47.308L294.73,46.96L296.13,46.662L297.53,46.505L298.92,46.876L300.32,46.402L301.72,46.539L303.12,46.892L304.52,46.269L305.92,46.394L307.32,46.385L308.72,46.534L310.12,46.401L311.51,46.503L312.91,46.879L314.31,46.193L315.71,46.46L317.11,46.617L318.51,46.391L319.91,46.259L321.31,46.073L322.71,46.33L324.11,46.021L325.5,46.148L326.9,46.115L328.3,46.03L329.7,46.218L331.1,45.946L332.5,46.005L333.9,46.197L335.3,46.138L336.7,46.179L338.09,45.853L339.49,46.249L340.89,45.983L342.29,45.924L343.69,46.048L345.09,45.879L346.49,45.828L347.89,45.83L349.29,45.767L350.68,45.753L352.08,45.692L353.48,45.872L354.88,45.675L356.28,45.673L357.68,45.847L359.08,45.71L360.48,45.668L361.88,45.558L363.27,45.83L364.67,45.621L366.07,45.566L367.47,45.751L368.87,45.7L370.27,45.561L371.67,45.514L373.07,45.62L374.47,45.588L375.87,45.465L377.26,45.551L378.66,45.523L380.06,45.496L381.46,45.515L382.86,45.491L384.26,45.432L385.66,45.463L387.06,45.507L388.46,45.437L389.85,45.48L391.25,45.471L392.65,45.494L394.05,45.441L395.45,45.444L396.85,45.483L398.25,45.426L399.65,45.402L401.05,45.437L402.44,45.392L403.84,45.365L405.24,45.377L406.64,45.346L408.04,45.307L409.44,45.327L410.84,45.365L412.24,45.312L413.64,45.324L415.04,45.343L416.43,45.338L417.83,45.329L419.23,45.304L420.63,45.334L422.03,45.294L423.43,45.302L424.83,45.3L426.23,45.28L427.63,45.282L429.02,45.299L430.42,45.291L431.82,45.292L433.22,45.244L434.62,45.276L436.02,45.275L437.42,45.267L438.82,45.255L440.22,45.245L441.61,45.26L443.01,45.249L444.41,45.228L445.81,45.252L447.21,45.235L448.61,45.255L450.01,45.241L451.41,45.243L452.81,45.237L454.2,45.209L455.6,45.204L457,45.239L458.4,45.217L459.8,45.208L461.2,45.19L462.6,45.225L464,45.197L465.4,45.212L466.8,45.208L468.19,45.204L469.59,45.201L470.99,45.193L472.39,45.196L473.79,45.2L475.19,45.193L476.59,45.184L477.99,45.186L479.39,45.185L480.78,45.197L482.18,45.177L483.58,45.185L484.98,45.192L486.38,45.181L487.78,45.177L489.18,45.182L490.58,45.182L491.98,45.174L493.37,45.176L494.77,45.177L496.17,45.18L497.57,45.171L498.97,45.165L500.37,45.163L501.77,45.177L503.17,45.174L504.57,45.178L505.96,45.17L507.36,45.17L508.76,45.176L510.16,45.174L511.56,45.163L512.96,45.171L514.36,45.169L515.76,45.162L517.16,45.157L518.56,45.166L519.95,45.161L521.35,45.162L522.75,45.165L524.15,45.163L525.55,45.159L526.95,45.161L528.35,45.158L529.75,45.163L531.15,45.166L532.54,45.163L533.94,45.158L535.34,45.161L536.74,45.157L538.14,45.154L539.54,45.159L540.94,45.159L542.34,45.159L543.74,45.161L545.13,45.155L546.53,45.161L547.93,45.155L549.33,45.155L550.73,45.158L552.13,45.153L553.53,45.157L554.93,45.155L556.33,45.153L557.73,45.154L559.12,45.153L560.52,45.163L561.92,45.153L563.32,45.151L564.72,45.154L566.12,45.153L567.52,45.154L568.92,45.151L570.32,45.157L571.71,45.153L574.51,45.151L575.91,45.151L577.31,45.153L578.71,45.157L580.11,45.153L581.51,45.153L582.91,45.153L584.3,45.153L585.7,45.153L587.1,45.153L588.5,45.154L589.9,45.155L591.3,45.151L592.7,45.153L594.1,45.155L595.5,45.151L596.89,45.151L598.29,45.154L599.69,45.154L601.09,45.153L602.49,45.151L606.69,45.154L609.49,45.153L612.28,45.154L619.28,45.151L624.87,45.151L626.27,45.151L634.67,45.151L637.46,45.151L644.46,45.151L647.26,45.151L648.65,45.153L661.25,45.151L666.84,45.151L678.03,45.151L689.22,45.151L696.22,45.151L699.02,45.151L700.42,45.151L713.01,45.151L720,45.151" style="fill:none;stroke:#0000FF" />
</g>
</svg>
