<?xml version="1.0"?>
<!-- Generated by SVGo and Plotinum VG -->
<svg width="720pt" height="432pt" viewBox="0 0 720 432"
	xmlns="http://www.w3.org/2000/svg"
	xmlns:xlink="http://www.w3.org/1999/xlink">
<g transform="scale(1, -1) translate(0, -432)">
<path d="M0,0L720,0L720,432L0,432Z" style="fill:#FFFFFF" />
<text x="358.5" y="-420.45" transform="scale(1, -1)"
	style="font-family:Times;font-weight:normal;font-style:normal;font-size:12px"> </text>
<text x="379.31" y="-3.8613" transform="scale(1, -1)"
	style="font-family:Times;font-weight:normal;font-style:normal;font-size:12px">Costs</text>
<text x="62.805" y="-18.634" transform="scale(1, -1)"
	style="font-family:Times;font-weight:normal;font-style:normal;font-size:10px">0</text>
<text x="355.39" y="-18.634" transform="scale(1, -1)"
	style="font-family:Times;font-weight:normal;font-style:normal;font-size:10px">200</text>
<text x="652.98" y="-18.634" transform="scale(1, -1)"
	style="font-family:Times;font-weight:normal;font-style:normal;font-size:10px">400</text>
<path d="M65.305,28.263L65.305,36.263" style="fill:none;stroke:#000000;stroke-width:0.5" />
<path d="M362.89,28.263L362.89,36.263" style="fill:none;stroke:#000000;stroke-width:0.5" />
<path d="M660.48,28.263L660.48,36.263" style="fill:none;stroke:#000000;stroke-width:0.5" />
<path d="M214.1,32.263L214.1,36.263" style="fill:none;stroke:#000000;stroke-width:0.5" />
<path d="M511.69,32.263L511.69,36.263" style="fill:none;stroke:#000000;stroke-width:0.5" />
<path d="M65.305,36.263L720,36.263" style="fill:none;stroke:#000000;stroke-width:0.5" />
<g transform="rotate(90)">
<text x="152.55" y="11.555" transform="scale(1, -1)"
	style="font-family:Times;font-weight:normal;font-style:normal;font-size:12px">Number of trials (1000000 total)</text>
</g>
<text x="24.055" y="-108.02" transform="scale(1, -1)"
	style="font-family:Times;font-weight:normal;font-style:normal;font-size:10px">30000</text>
<text x="24.055" y="-240.17" transform="scale(1, -1)"
	style="font-family:Times;font-weight:normal;font-style:normal;font-size:10px">90000</text>
<text x="19.055" y="-372.31" transform="scale(1, -1)"
	style="font-family:Times;font-weight:normal;font-style:normal;font-size:10px">150000</text>
<path d="M51.555,111.22L59.555,111.22" style="fill:none;stroke:#000000;stroke-width:0.5" />
<path d="M51.555,243.37L59.555,243.37" style="fill:none;stroke:#000000;stroke-width:0.5" />
<path d="M51.555,375.52L59.555,375.52" style="fill:none;stroke:#000000;stroke-width:0.5" />
<path d="M55.555,177.3L59.555,177.3" style="fill:none;stroke:#000000;stroke-width:0.5" />
<path d="M55.555,309.45L59.555,309.45" style="fill:none;stroke:#000000;stroke-width:0.5" />
<path d="M59.555,45.151L59.555,416.58" style="fill:none;stroke:#000000;stroke-width:0.5" />
<path d="M65.305,416.58L98.039,51.829L99.527,48.633L101.02,55.547L103.99,108.72L105.48,55.64L106.97,95.341L108.46,48.444L109.94,48.638L112.92,67.099L114.41,55.644L115.89,69.493L117.38,48.543L118.87,52.166L120.36,48.53L121.85,66.062L123.33,63.055L124.82,52.127L126.31,94.161L127.8,69.671L129.29,69.581L130.77,98.174L132.26,45.213L133.75,70.2L135.24,45.233L136.73,49.706L138.21,85.388L139.7,54.888L141.19,45.979L142.68,46.72L144.17,46.933L145.65,57.833L147.14,58.181L148.63,51.342L150.12,49.647L151.61,50.29L153.09,47.627L154.58,116.42L156.07,93.965L157.56,96.746L159.05,66.088L160.53,51.254L162.02,51.864L163.51,53.138L165,58.41L166.48,54.996L167.97,57.333L169.46,61.41L170.95,56.58L172.44,59.452L173.92,52.232L175.41,53.618L176.9,58.335L178.39,54.959L179.88,55.587L181.36,53.499L182.85,51.153L184.34,52.706L185.83,57.261L187.32,56.19L188.8,58.168L190.29,56.428L191.78,58.062L193.27,62.551L194.76,65.777L196.24,70.226L197.73,60.45L199.22,62.146L200.71,53.424L202.2,55.294L203.68,57.692L205.17,57.164L206.66,56.888L208.15,54.84L209.64,52.82L211.12,54.754L212.61,56.75L214.1,54.946L215.59,61.058L217.07,59.635L218.56,62.115L220.05,67.308L221.54,58.844L223.03,60.172L224.51,54.452L226,52.64L227.49,58.619L228.98,55.496L230.47,55.741L231.95,52.508L233.44,50.942L234.93,51.539L236.42,53.611L237.91,53.648L239.39,52.794L240.88,51.635L242.37,51.191L243.86,51.05L245.35,58.492L246.83,59.452L248.32,58.906L249.81,53.413L251.3,53.378L252.79,51.129L254.27,52.226L255.76,52.193L257.25,53.003L258.74,53.704L260.23,53.622L261.71,53.748L263.2,52.395L264.69,51.801L266.18,51.607L267.67,51.572L269.15,51.816L270.64,51.248L272.13,50.578L273.62,49.997L275.1,50.717L276.59,50.884L278.08,51.746L279.57,51.369L281.06,51.825L282.54,50.838L284.03,52.107L285.52,51.915L287.01,52.776L288.5,52.221L289.98,50.825L291.47,49.966L292.96,50.358L294.45,49.495L295.94,50.169L297.42,49.673L298.91,49.204L300.4,49.041L301.89,49.466L303.38,49.107L304.86,49.03L306.35,49.255L307.84,49.589L309.33,50.149L310.82,50.488L312.3,49.849L313.79,49.627L315.28,48.561L316.77,48.466L318.26,48.761L319.74,49.065L321.23,48.856L322.72,48.338L324.21,48.056L325.69,48.083L327.18,48.233L328.67,48.341L330.16,48.028L331.65,47.904L333.13,47.594L334.62,47.612L336.11,47.592L337.6,48.38L339.09,47.858L340.57,47.898L342.06,47.675L343.55,47.565L345.04,47.393L346.53,47.431L348.01,47.389L349.5,47.561L350.99,47.411L352.48,47.554L353.97,47.164L355.45,47.072L356.94,47.101L358.43,46.94L359.92,47.008L361.41,46.962L362.89,46.863L364.38,46.72L365.87,46.728L367.36,46.733L368.85,46.779L370.33,46.863L371.82,46.691L373.31,46.673L374.8,46.689L376.28,46.618L377.77,46.64L379.26,46.686L380.75,46.557L382.24,46.314L383.72,46.292L385.21,46.363L386.7,46.246L388.19,46.279L389.68,46.257L391.16,46.14L392.65,46.105L394.14,46.09L395.63,46.105L397.12,46.09L398.6,46.094L400.09,46.09L401.58,46.07L403.07,46.092L404.56,46.008L406.04,45.953L407.53,45.88L409.02,45.938L410.51,45.825L412,45.887L413.48,45.872L414.97,45.858L416.46,45.755L417.95,45.788L419.44,45.737L420.92,45.722L422.41,45.737L423.9,45.733L425.39,45.651L426.88,45.717L428.36,45.706L429.85,45.638L431.34,45.684L432.83,45.601L434.31,45.552L435.8,45.616L437.29,45.59L438.78,45.57L440.27,45.565L441.75,45.502L443.24,45.587L444.73,45.524L446.22,45.53L447.71,45.546L449.19,45.48L450.68,45.506L452.17,45.446L453.66,45.466L455.15,45.442L456.63,45.422L458.12,45.387L459.61,45.429L461.1,45.4L462.59,45.374L464.07,45.369L465.56,45.374L467.05,45.416L468.54,45.391L470.03,45.391L471.51,45.352L473,45.367L474.49,45.345L475.98,45.341L477.47,45.328L478.95,45.328L480.44,45.317L481.93,45.297L483.42,45.306L484.9,45.295L486.39,45.281L487.88,45.308L489.37,45.29L490.86,45.317L492.34,45.264L493.83,45.295L495.32,45.244L496.81,45.306L498.3,45.248L499.78,45.268L501.27,45.246L502.76,45.279L504.25,45.259L505.74,45.233L507.22,45.228L508.71,45.25L510.2,45.233L511.69,45.222L513.18,45.233L514.66,45.2L516.15,45.228L517.64,45.224L519.13,45.209L520.62,45.228L522.1,45.217L523.59,45.244L525.08,45.209L526.57,45.215L528.06,45.198L529.54,45.202L531.03,45.195L532.52,45.206L534.01,45.198L535.49,45.198L536.98,45.198L538.47,45.193L539.96,45.209L541.45,45.184L542.93,45.189L544.42,45.206L545.91,45.182L547.4,45.171L548.89,45.176L550.37,45.167L551.86,45.176L553.35,45.173L554.84,45.176L556.33,45.18L557.81,45.176L559.3,45.178L560.79,45.18L562.28,45.167L563.77,45.167L565.25,45.162L566.74,45.169L568.23,45.18L569.72,45.178L571.21,45.16L572.69,45.167L574.18,45.158L575.67,45.167L577.16,45.169L578.65,45.165L580.13,45.169L581.62,45.173L583.11,45.169L584.6,45.167L586.09,45.156L587.57,45.158L589.06,45.165L590.55,45.16L592.04,45.16L593.52,45.158L595.01,45.154L596.5,45.154L597.99,45.156L599.48,45.162L600.96,45.16L602.45,45.165L603.94,45.16L605.43,45.154L606.92,45.151L608.4,45.158L609.89,45.162L611.38,45.154L614.36,45.154L615.84,45.154L617.33,45.16L618.82,45.151L620.31,45.151L621.8,45.156L623.28,45.154L624.77,45.156L626.26,45.151L627.75,45.156L629.24,45.151L630.72,45.154L633.7,45.151L638.16,45.154L639.65,45.154L641.14,45.154L642.63,45.151L645.6,45.151L647.09,45.16L648.58,45.151L651.55,45.151L653.04,45.151L654.53,45.154L661.97,45.154L664.95,45.154L666.43,45.151L667.92,45.151L669.41,45.156L681.31,45.154L687.27,45.151L690.24,45.151L691.73,45.151L693.22,45.151L700.66,45.154L708.1,45.151L714.05,45.151L720,45.151" style="fill:none;stroke:#0000FF" />
</g>
</svg>
