<?xml version="1.0"?>
<!-- Generated by SVGo and Plotinum VG -->
<svg width="720pt" height="432pt" viewBox="0 0 720 432"
	xmlns="http://www.w3.org/2000/svg"
	xmlns:xlink="http://www.w3.org/1999/xlink">
<g transform="scale(1, -1) translate(0, -432)">
<path d="M0,0L720,0L720,432L0,432Z" style="fill:#FFFFFF" />
<text x="358.5" y="-420.45" transform="scale(1, -1)"
	style="font-family:Times;font-weight:normal;font-style:normal;font-size:12px"> </text>
<text x="379.31" y="-3.8613" transform="scale(1, -1)"
	style="font-family:Times;font-weight:normal;font-style:normal;font-size:12px">Costs</text>
<text x="62.805" y="-18.634" transform="scale(1, -1)"
	style="font-family:Times;font-weight:normal;font-style:normal;font-size:10px">0</text>
<text x="343.07" y="-18.634" transform="scale(1, -1)"
	style="font-family:Times;font-weight:normal;font-style:normal;font-size:10px">200</text>
<text x="628.35" y="-18.634" transform="scale(1, -1)"
	style="font-family:Times;font-weight:normal;font-style:normal;font-size:10px">400</text>
<path d="M65.305,28.263L65.305,36.263" style="fill:none;stroke:#000000;stroke-width:0.5" />
<path d="M350.57,28.263L350.57,36.263" style="fill:none;stroke:#000000;stroke-width:0.5" />
<path d="M635.85,28.263L635.85,36.263" style="fill:none;stroke:#000000;stroke-width:0.5" />
<path d="M207.94,32.263L207.94,36.263" style="fill:none;stroke:#000000;stroke-width:0.5" />
<path d="M493.21,32.263L493.21,36.263" style="fill:none;stroke:#000000;stroke-width:0.5" />
<path d="M65.305,36.263L720,36.263" style="fill:none;stroke:#000000;stroke-width:0.5" />
<g transform="rotate(90)">
<text x="152.55" y="11.555" transform="scale(1, -1)"
	style="font-family:Times;font-weight:normal;font-style:normal;font-size:12px">Number of trials (1000000 total)</text>
</g>
<text x="24.055" y="-113.29" transform="scale(1, -1)"
	style="font-family:Times;font-weight:normal;font-style:normal;font-size:10px">50000</text>
<text x="19.055" y="-255.97" transform="scale(1, -1)"
	style="font-family:Times;font-weight:normal;font-style:normal;font-size:10px">150000</text>
<text x="19.055" y="-398.66" transform="scale(1, -1)"
	style="font-family:Times;font-weight:normal;font-style:normal;font-size:10px">250000</text>
<path d="M51.555,116.49L59.555,116.49" style="fill:none;stroke:#000000;stroke-width:0.5" />
<path d="M51.555,259.18L59.555,259.18" style="fill:none;stroke:#000000;stroke-width:0.5" />
<path d="M51.555,401.86L59.555,401.86" style="fill:none;stroke:#000000;stroke-width:0.5" />
<path d="M55.555,187.84L59.555,187.84" style="fill:none;stroke:#000000;stroke-width:0.5" />
<path d="M55.555,330.52L59.555,330.52" style="fill:none;stroke:#000000;stroke-width:0.5" />
<path d="M59.555,45.151L59.555,416.58" style="fill:none;stroke:#000000;stroke-width:0.5" />
<path d="M65.305,416.58L98.111,48.693L102.39,55.742L103.82,62.592L105.24,52.183L109.52,59.23L110.95,52.027L112.37,52L113.8,73.696L115.23,87.145L116.65,70.392L119.51,55.53L120.93,48.473L122.36,66.496L123.79,72.971L125.21,70.457L126.64,59.282L128.06,66.79L129.49,55.692L130.92,59.521L135.2,62.628L136.62,48.721L138.05,52.096L140.9,101.87L142.33,59.389L143.75,63.485L145.18,55.478L146.61,49.159L148.03,60.283L149.46,49.475L150.89,46.426L152.31,72.548L153.74,55.346L155.16,50.797L156.59,46.501L158.02,47.267L159.44,48.452L160.87,49.53L162.3,49.502L163.72,51.27L165.15,50.926L166.58,50.575L168,48.988L169.43,49.46L170.85,67.993L172.28,51.848L173.71,54.209L175.13,53.043L176.56,51.207L177.99,52.428L179.41,53.651L180.84,52.498L182.27,51.004L183.69,50.859L185.12,53.41L186.54,52.888L187.97,51.758L189.4,54.473L190.82,56.334L192.25,56.242L193.68,51.905L195.1,52.17L196.53,50.725L197.96,53.822L199.38,53.821L200.81,54.766L202.23,54.64L203.66,54.851L205.09,51.391L206.51,51.632L207.94,49.963L209.37,50.377L210.79,52.832L212.22,50.401L213.65,50.335L215.07,49.886L216.5,51.424L217.92,51.037L219.35,51.435L220.78,51.064L222.2,49.963L223.63,50.211L225.06,49.306L226.48,47.928L227.91,52.284L229.34,50.827L230.76,50.506L232.19,49.054L233.61,48.858L235.04,49.058L236.47,49.061L237.89,47.932L239.32,48.218L240.75,49.298L242.17,48.426L243.6,48.226L245.02,47.842L246.45,50.692L247.88,48.831L249.3,49.304L250.73,49.102L252.16,48.417L253.58,49.022L255.01,48.339L256.44,48.289L257.86,49.265L259.29,48.375L260.71,48.416L262.14,48.288L263.57,47.852L264.99,48.004L266.42,48.046L267.85,48.139L269.27,47.949L270.7,47.705L272.13,47.677L273.55,47.802L274.98,47.673L276.4,47.778L277.83,47.871L279.26,47.881L280.68,47.517L282.11,47.479L283.54,47.193L284.96,47.339L286.39,47.302L287.82,47.145L289.24,47.029L290.67,47.16L292.09,46.931L293.52,46.919L294.95,46.874L296.37,46.932L297.8,46.878L299.23,46.628L300.65,46.632L302.08,46.528L303.51,46.678L304.93,46.642L306.36,46.762L307.78,46.688L309.21,46.505L310.64,46.508L312.06,46.434L313.49,46.256L314.92,46.257L316.34,46.457L317.77,46.343L319.2,46.32L320.62,46.112L322.05,46.299L323.47,46.283L324.9,46.216L326.33,46.136L327.75,46.059L329.18,46.116L330.61,46.067L332.03,45.985L333.46,46.164L334.89,46.126L336.31,46.016L337.74,45.952L339.16,45.923L340.59,45.923L342.02,45.893L343.44,45.831L344.87,45.889L346.3,45.822L347.72,45.775L349.15,45.769L350.57,45.786L352,45.741L353.43,45.782L354.85,45.748L356.28,45.709L357.71,45.701L359.13,45.652L360.56,45.654L361.99,45.668L363.41,45.595L364.84,45.632L366.26,45.588L367.69,45.595L369.12,45.579L370.54,45.602L371.97,45.532L373.4,45.541L374.82,45.474L376.25,45.535L377.68,45.485L379.1,45.531L380.53,45.477L381.95,45.47L383.38,45.471L384.81,45.418L386.23,45.43L387.66,45.422L389.09,45.418L390.51,45.4L391.94,45.437L393.37,45.383L394.79,45.38L396.22,45.363L397.64,45.368L399.07,45.367L400.5,45.374L401.92,45.331L403.35,45.4L404.78,45.345L406.2,45.308L407.63,45.348L409.06,45.338L410.48,45.317L411.91,45.318L413.33,45.314L414.76,45.297L416.19,45.301L417.61,45.268L419.04,45.285L420.47,45.281L421.89,45.26L423.32,45.274L424.75,45.281L426.17,45.27L427.6,45.248L429.02,45.261L430.45,45.271L431.88,45.246L433.3,45.263L434.73,45.247L436.16,45.226L437.58,45.23L439.01,45.24L440.44,45.251L441.86,45.21L443.29,45.233L444.71,45.231L446.14,45.218L447.57,45.228L448.99,45.204L450.42,45.214L451.85,45.213L453.27,45.2L454.7,45.214L456.12,45.203L457.55,45.211L458.98,45.213L460.4,45.203L461.83,45.198L463.26,45.21L464.68,45.197L466.11,45.194L467.54,45.19L468.96,45.191L470.39,45.181L471.81,45.186L473.24,45.167L474.67,45.18L476.09,45.181L477.52,45.174L478.95,45.18L480.37,45.186L481.8,45.181L483.23,45.181L484.65,45.184L486.08,45.168L487.5,45.176L488.93,45.166L490.36,45.171L491.78,45.174L493.21,45.166L494.64,45.17L496.06,45.174L497.49,45.171L498.92,45.164L500.34,45.174L501.77,45.17L503.19,45.168L504.62,45.168L506.05,45.168L507.47,45.173L508.9,45.164L510.33,45.157L511.75,45.16L513.18,45.16L514.61,45.166L516.03,45.159L517.46,45.166L518.88,45.161L520.31,45.163L521.74,45.161L523.16,45.161L524.59,45.16L526.02,45.16L527.44,45.159L528.87,45.16L530.3,45.161L531.72,45.157L533.15,45.163L534.57,45.156L536,45.156L537.43,45.161L538.85,45.154L540.28,45.154L541.71,45.156L543.13,45.159L544.56,45.154L545.99,45.156L547.41,45.154L548.84,45.154L550.26,45.154L551.69,45.154L553.12,45.161L554.54,45.156L555.97,45.159L557.4,45.156L558.82,45.156L560.25,45.154L561.67,45.153L563.1,45.151L564.53,45.151L565.95,45.151L567.38,45.151L568.81,45.151L570.23,45.151L571.66,45.151L573.09,45.153L574.51,45.151L575.94,45.153L580.22,45.151L583.07,45.151L585.92,45.151L587.35,45.153L588.78,45.151L590.2,45.154L593.05,45.154L594.48,45.153L597.33,45.156L598.76,45.151L601.61,45.153L603.04,45.151L605.89,45.151L608.74,45.153L610.17,45.153L611.6,45.151L615.88,45.151L624.43,45.151L627.29,45.151L630.14,45.151L631.57,45.151L632.99,45.151L657.24,45.151L661.52,45.151L672.93,45.151L720,45.151" style="fill:none;stroke:#0000FF" />
</g>
</svg>
