<?xml version="1.0"?>
<!-- Generated by SVGo and Plotinum VG -->
<svg width="720pt" height="432pt" viewBox="0 0 720 432"
	xmlns="http://www.w3.org/2000/svg"
	xmlns:xlink="http://www.w3.org/1999/xlink">
<g transform="scale(1, -1) translate(0, -432)">
<path d="M0,0L720,0L720,432L0,432Z" style="fill:#FFFFFF" />
<text x="358.5" y="-420.45" transform="scale(1, -1)"
	style="font-family:Times;font-weight:normal;font-style:normal;font-size:12px"> </text>
<text x="379.31" y="-3.8613" transform="scale(1, -1)"
	style="font-family:Times;font-weight:normal;font-style:normal;font-size:12px">Costs</text>
<text x="62.805" y="-18.634" transform="scale(1, -1)"
	style="font-family:Times;font-weight:normal;font-style:normal;font-size:10px">0</text>
<text x="348.14" y="-18.634" transform="scale(1, -1)"
	style="font-family:Times;font-weight:normal;font-style:normal;font-size:10px">200</text>
<text x="638.47" y="-18.634" transform="scale(1, -1)"
	style="font-family:Times;font-weight:normal;font-style:normal;font-size:10px">400</text>
<path d="M65.305,28.263L65.305,36.263" style="fill:none;stroke:#000000;stroke-width:0.5" />
<path d="M355.64,28.263L355.64,36.263" style="fill:none;stroke:#000000;stroke-width:0.5" />
<path d="M645.97,28.263L645.97,36.263" style="fill:none;stroke:#000000;stroke-width:0.5" />
<path d="M210.47,32.263L210.47,36.263" style="fill:none;stroke:#000000;stroke-width:0.5" />
<path d="M500.8,32.263L500.8,36.263" style="fill:none;stroke:#000000;stroke-width:0.5" />
<path d="M65.305,36.263L720,36.263" style="fill:none;stroke:#000000;stroke-width:0.5" />
<g transform="rotate(90)">
<text x="152.55" y="11.555" transform="scale(1, -1)"
	style="font-family:Times;font-weight:normal;font-style:normal;font-size:12px">Number of trials (1000000 total)</text>
</g>
<text x="24.055" y="-113.12" transform="scale(1, -1)"
	style="font-family:Times;font-weight:normal;font-style:normal;font-size:10px">50000</text>
<text x="19.055" y="-255.48" transform="scale(1, -1)"
	style="font-family:Times;font-weight:normal;font-style:normal;font-size:10px">150000</text>
<text x="19.055" y="-397.84" transform="scale(1, -1)"
	style="font-family:Times;font-weight:normal;font-style:normal;font-size:10px">250000</text>
<path d="M51.555,116.33L59.555,116.33" style="fill:none;stroke:#000000;stroke-width:0.5" />
<path d="M51.555,258.69L59.555,258.69" style="fill:none;stroke:#000000;stroke-width:0.5" />
<path d="M51.555,401.05L59.555,401.05" style="fill:none;stroke:#000000;stroke-width:0.5" />
<path d="M55.555,187.51L59.555,187.51" style="fill:none;stroke:#000000;stroke-width:0.5" />
<path d="M55.555,329.87L59.555,329.87" style="fill:none;stroke:#000000;stroke-width:0.5" />
<path d="M59.555,45.151L59.555,416.58" style="fill:none;stroke:#000000;stroke-width:0.5" />
<path d="M65.305,416.58L103.05,59.137L107.4,70.46L108.85,60.058L110.31,55.884L111.76,70.61L113.21,55.736L114.66,59.376L116.11,70.5L117.56,55.944L119.02,59.086L120.47,77.447L121.92,79.918L123.37,70.218L124.82,62.85L127.73,66.305L129.18,66.176L130.63,59.14L136.44,56.18L137.89,55.568L142.24,79.853L143.69,69.95L145.15,46.209L146.6,56.47L148.05,74.069L149.5,46.487L150.95,60.096L152.4,46.233L153.86,59.551L155.31,47.291L156.76,51.209L158.21,49.283L159.66,49.264L161.11,48.967L162.57,65.789L164.02,50.567L165.47,51.939L166.92,52.454L168.37,54.775L169.82,51.787L171.28,52.901L172.73,62.898L174.18,52.856L175.63,51.975L177.08,55.501L178.53,52.286L179.99,53.901L181.44,51.078L182.89,50.646L184.34,53.563L185.79,54.631L187.24,51.955L188.7,52.323L190.15,51.492L191.6,51.711L193.05,54.285L194.5,53.472L195.95,51.022L197.41,52.706L198.86,54.477L200.31,54.295L201.76,53.262L203.21,51.511L204.66,53.176L206.11,53.657L207.57,52.336L209.02,50.582L210.47,51.029L211.92,50.031L213.37,51.046L214.82,50.548L216.28,49.584L217.73,49.089L219.18,52.043L220.63,51.533L222.08,49.187L223.53,49.518L224.99,52.312L226.44,50.832L227.89,50.646L229.34,50.135L230.79,50.047L232.24,49.486L233.7,49.639L235.15,49.239L236.6,49.22L238.05,47.99L239.5,49.916L240.95,49.145L242.41,48.046L243.86,48.712L245.31,49.812L246.76,48.071L248.21,48.793L249.66,49.174L251.12,49.469L252.57,48.068L254.02,48.998L255.47,49.224L256.92,48.346L258.37,48.618L259.83,48.094L261.28,48.209L262.73,48.169L264.18,47.939L265.63,48.14L267.08,47.715L268.54,47.767L269.99,48.195L271.44,47.838L272.89,47.433L274.34,47.65L275.79,47.63L277.25,47.607L278.7,47.512L280.15,47.462L281.6,47.549L283.05,47.493L284.5,47.453L285.96,47.196L287.41,47.191L288.86,47.189L290.31,47.08L291.76,47.04L293.21,46.863L294.67,46.786L296.12,46.928L297.57,46.84L299.02,46.67L300.47,46.687L301.92,46.824L303.38,46.751L304.83,46.687L306.28,46.606L307.73,46.612L309.18,46.514L310.63,46.555L312.09,46.508L313.54,46.541L314.99,46.289L316.44,46.373L317.89,46.333L319.34,46.202L320.8,46.165L322.25,46.303L323.7,46.094L325.15,46.08L326.6,46.135L328.05,46.171L329.51,46.053L330.96,46.02L332.41,46.122L333.86,46.04L335.31,45.95L336.76,45.984L338.22,45.973L339.67,45.95L341.12,45.983L342.57,45.869L344.02,45.855L345.47,45.835L346.93,45.893L348.38,45.82L349.83,45.717L351.28,45.742L352.73,45.772L354.18,45.672L355.64,45.727L357.09,45.682L358.54,45.749L359.99,45.724L361.44,45.674L362.89,45.62L364.35,45.593L365.8,45.638L367.25,45.618L368.7,45.578L370.15,45.62L371.6,45.544L373.06,45.573L374.51,45.566L375.96,45.554L377.41,45.497L378.86,45.513L380.31,45.492L381.76,45.438L383.22,45.499L384.67,45.465L386.12,45.472L387.57,45.419L389.02,45.402L390.47,45.455L391.93,45.455L393.38,45.395L394.83,45.416L396.28,45.365L397.73,45.369L399.18,45.363L400.64,45.348L402.09,45.363L403.54,45.335L404.99,45.346L406.44,45.325L407.89,45.325L409.35,45.331L410.8,45.342L412.25,45.288L413.7,45.307L415.15,45.298L416.6,45.272L418.06,45.312L419.51,45.294L420.96,45.264L422.41,45.272L423.86,45.274L425.31,45.277L426.77,45.247L428.22,45.267L429.67,45.242L431.12,45.248L432.57,45.261L434.02,45.245L435.48,45.245L436.93,45.218L438.38,45.24L439.83,45.238L441.28,45.251L442.73,45.228L444.19,45.225L445.64,45.224L447.09,45.218L448.54,45.215L449.99,45.224L451.44,45.194L452.9,45.201L454.35,45.205L455.8,45.207L457.25,45.194L458.7,45.195L460.15,45.193L461.61,45.205L463.06,45.205L464.51,45.184L465.96,45.201L467.41,45.19L468.86,45.198L470.32,45.194L471.77,45.171L473.22,45.184L474.67,45.171L476.12,45.186L477.57,45.176L479.03,45.187L480.48,45.197L481.93,45.177L483.38,45.173L484.83,45.183L486.28,45.177L487.74,45.174L489.19,45.167L490.64,45.17L492.09,45.176L493.54,45.174L494.99,45.166L496.45,45.173L497.9,45.161L499.35,45.161L500.8,45.184L502.25,45.171L503.7,45.166L505.16,45.171L506.61,45.158L508.06,45.166L509.51,45.171L510.96,45.163L512.41,45.16L513.87,45.163L515.32,45.16L516.77,45.163L518.22,45.16L519.67,45.164L521.12,45.161L522.58,45.161L524.03,45.17L525.48,45.151L526.93,45.161L528.38,45.16L529.83,45.156L531.29,45.16L532.74,45.154L534.19,45.161L535.64,45.154L537.09,45.151L538.54,45.16L540,45.157L541.45,45.151L542.9,45.156L544.35,45.161L545.8,45.156L547.25,45.153L548.7,45.154L550.16,45.153L551.61,45.158L553.06,45.158L554.51,45.157L555.96,45.153L557.41,45.156L558.87,45.153L560.32,45.153L561.77,45.153L563.22,45.154L566.12,45.153L569.03,45.151L570.48,45.151L574.83,45.151L576.29,45.153L579.19,45.153L580.64,45.153L582.09,45.154L583.54,45.153L585,45.156L586.45,45.151L587.9,45.151L589.35,45.153L593.71,45.153L596.61,45.151L598.06,45.151L599.51,45.153L600.96,45.151L602.42,45.153L603.87,45.151L606.77,45.153L608.22,45.153L611.13,45.151L614.03,45.151L619.84,45.151L624.19,45.151L625.64,45.151L627.09,45.151L634.35,45.151L635.8,45.151L641.61,45.151L644.51,45.151L650.32,45.151L653.22,45.151L676.45,45.151L720,45.151" style="fill:none;stroke:#0000FF" />
</g>
</svg>
