<?xml version="1.0"?>
<!-- Generated by SVGo and Plotinum VG -->
<svg width="720pt" height="432pt" viewBox="0 0 720 432"
	xmlns="http://www.w3.org/2000/svg"
	xmlns:xlink="http://www.w3.org/1999/xlink">
<g transform="scale(1, -1) translate(0, -432)">
<path d="M0,0L720,0L720,432L0,432Z" style="fill:#FFFFFF" />
<text x="358.5" y="-420.45" transform="scale(1, -1)"
	style="font-family:Times;font-weight:normal;font-style:normal;font-size:12px"> </text>
<text x="379.31" y="-3.8613" transform="scale(1, -1)"
	style="font-family:Times;font-weight:normal;font-style:normal;font-size:12px">Costs</text>
<text x="56.555" y="-18.634" transform="scale(1, -1)"
	style="font-family:Times;font-weight:normal;font-style:normal;font-size:10px">0.00</text>
<text x="354.09" y="-18.634" transform="scale(1, -1)"
	style="font-family:Times;font-weight:normal;font-style:normal;font-size:10px">250.00</text>
<text x="656.63" y="-18.634" transform="scale(1, -1)"
	style="font-family:Times;font-weight:normal;font-style:normal;font-size:10px">500.00</text>
<path d="M65.305,28.263L65.305,36.263" style="fill:none;stroke:#000000;stroke-width:0.5" />
<path d="M367.84,28.263L367.84,36.263" style="fill:none;stroke:#000000;stroke-width:0.5" />
<path d="M670.38,28.263L670.38,36.263" style="fill:none;stroke:#000000;stroke-width:0.5" />
<path d="M125.81,32.263L125.81,36.263" style="fill:none;stroke:#000000;stroke-width:0.5" />
<path d="M186.32,32.263L186.32,36.263" style="fill:none;stroke:#000000;stroke-width:0.5" />
<path d="M246.83,32.263L246.83,36.263" style="fill:none;stroke:#000000;stroke-width:0.5" />
<path d="M307.34,32.263L307.34,36.263" style="fill:none;stroke:#000000;stroke-width:0.5" />
<path d="M428.35,32.263L428.35,36.263" style="fill:none;stroke:#000000;stroke-width:0.5" />
<path d="M488.86,32.263L488.86,36.263" style="fill:none;stroke:#000000;stroke-width:0.5" />
<path d="M549.37,32.263L549.37,36.263" style="fill:none;stroke:#000000;stroke-width:0.5" />
<path d="M609.88,32.263L609.88,36.263" style="fill:none;stroke:#000000;stroke-width:0.5" />
<path d="M65.305,36.263L720,36.263" style="fill:none;stroke:#000000;stroke-width:0.5" />
<g transform="rotate(90)">
<text x="152.55" y="11.555" transform="scale(1, -1)"
	style="font-family:Times;font-weight:normal;font-style:normal;font-size:12px">Number of trials (1000000 total)</text>
</g>
<text x="24.055" y="-109.47" transform="scale(1, -1)"
	style="font-family:Times;font-weight:normal;font-style:normal;font-size:10px">30000</text>
<text x="24.055" y="-244.53" transform="scale(1, -1)"
	style="font-family:Times;font-weight:normal;font-style:normal;font-size:10px">90000</text>
<text x="19.055" y="-379.6" transform="scale(1, -1)"
	style="font-family:Times;font-weight:normal;font-style:normal;font-size:10px">150000</text>
<path d="M51.555,112.68L59.555,112.68" style="fill:none;stroke:#000000;stroke-width:0.5" />
<path d="M51.555,247.74L59.555,247.74" style="fill:none;stroke:#000000;stroke-width:0.5" />
<path d="M51.555,382.8L59.555,382.8" style="fill:none;stroke:#000000;stroke-width:0.5" />
<path d="M55.555,180.21L59.555,180.21" style="fill:none;stroke:#000000;stroke-width:0.5" />
<path d="M55.555,315.27L59.555,315.27" style="fill:none;stroke:#000000;stroke-width:0.5" />
<path d="M59.555,45.151L59.555,416.58" style="fill:none;stroke:#000000;stroke-width:0.5" />
<path d="M65.305,416.58L93.138,48.618L96.769,59.394L97.979,58.993L100.4,55.427L101.61,52.024L102.82,59.258L104.03,62.876L105.24,52.143L106.45,73.116L107.66,58.968L108.87,51.886L110.08,65.667L111.29,62.25L112.5,69.365L113.71,62.772L114.92,65.363L116.13,48.42L117.34,69.57L118.55,102.18L119.76,59.02L120.97,59.355L123.39,48.652L124.6,59.445L125.81,45.259L127.02,62.464L128.23,45.338L129.44,111.59L130.65,81.237L131.86,52.548L133.07,77.663L134.28,53.147L135.49,49.757L136.7,49.617L137.91,50.425L139.12,54.792L140.33,83.112L141.54,58.239L142.75,47.882L143.96,48.508L145.18,49.59L146.39,49.419L147.6,49.25L148.81,49.926L150.02,52.024L151.23,62.628L152.44,51.15L153.65,73.579L154.86,64.958L156.07,53.552L157.28,53.064L158.49,59.535L159.7,54.91L160.91,54.761L162.12,77.289L163.33,68.269L164.54,55.936L165.75,57.221L166.96,55.256L168.17,58.041L169.38,53.779L170.59,59.258L171.8,60.319L173.01,56.078L174.22,57.426L175.43,55.583L176.64,56.539L177.85,57.964L179.06,57.665L180.27,56.316L181.48,57.179L182.69,64.222L183.9,57.399L185.11,57.257L186.32,58.464L187.53,53.491L188.74,55.297L189.95,53.028L191.16,53.777L192.37,55.9L193.58,59.855L194.79,61.188L196,54.41L197.21,56.413L198.42,55.22L199.63,54.552L200.84,54.072L202.05,54.194L203.26,55.466L204.47,60.058L205.68,57.109L206.89,57.44L208.1,56.845L209.31,54.209L210.52,52.947L211.73,52.751L212.94,52.256L214.15,52.886L215.36,57.662L216.57,55.227L217.78,55.531L218.99,55.776L220.2,52.695L221.42,53.314L222.63,53.478L223.84,52.94L225.05,52.229L226.26,56.382L227.47,56.445L228.68,54.565L229.89,55.083L231.1,53.185L232.31,51.664L233.52,51.873L234.73,51.826L235.94,52.071L237.15,53.273L238.36,53.354L239.57,52.053L240.78,51.436L241.99,51.306L243.2,51.817L244.41,51.22L245.62,50.95L246.83,52.334L248.04,52.429L249.25,51.409L250.46,52.406L251.67,52.161L252.88,51.378L254.09,50.851L255.3,50.99L256.51,51.171L257.72,51.283L258.93,51.159L260.14,51.814L261.35,51.067L262.56,50.705L263.77,50.405L264.98,50.18L266.19,50.065L267.4,50.335L268.61,50.813L269.82,50.734L271.03,50.63L272.24,50.644L273.45,50.079L274.66,49.849L275.87,49.933L277.08,49.487L278.29,49.485L279.5,50.155L280.71,49.824L281.92,49.876L283.13,49.854L284.34,49.183L285.55,49.109L286.76,48.803L287.97,48.875L289.18,48.701L290.39,49.154L291.6,49.361L292.81,49.266L294.02,49.149L295.23,48.706L296.44,48.652L297.65,48.411L298.87,48.436L300.08,48.204L301.29,48.467L302.5,48.683L303.71,48.368L304.92,48.413L306.13,48.037L307.34,47.929L308.55,47.805L309.76,47.632L310.97,47.828L312.18,47.814L313.39,48.003L314.6,47.967L315.81,47.916L317.02,47.783L318.23,47.607L319.44,47.526L320.65,47.65L321.86,47.546L323.07,47.546L324.28,47.555L325.49,47.551L326.7,47.526L327.91,47.267L329.12,47.256L330.33,47.076L331.54,47.089L332.75,46.995L333.96,47.103L335.17,47.159L336.38,47.049L337.59,46.993L338.8,46.871L340.01,46.975L341.22,46.858L342.43,46.727L343.64,46.871L344.85,46.822L346.06,46.682L347.27,46.588L348.48,46.657L349.69,46.63L350.9,46.522L352.11,46.515L353.32,46.441L354.53,46.554L355.74,46.592L356.95,46.477L358.16,46.495L359.37,46.34L360.58,46.396L361.79,46.286L363,46.315L364.21,46.259L365.42,46.151L366.63,46.329L367.84,46.149L369.05,46.351L370.26,46.182L371.47,46.092L372.68,46.149L373.89,46.099L375.11,46.083L376.32,45.986L377.53,46.086L378.74,45.973L379.95,46.014L381.16,46.097L382.37,45.995L383.58,45.971L384.79,45.858L386,45.892L387.21,45.923L388.42,45.894L389.63,45.919L390.84,45.822L392.05,45.851L393.26,45.775L394.47,45.836L395.68,45.773L396.89,45.757L398.1,45.784L399.31,45.707L400.52,45.624L401.73,45.701L402.94,45.676L404.15,45.719L405.36,45.631L406.57,45.617L407.78,45.669L408.99,45.611L410.2,45.622L411.41,45.662L412.62,45.575L413.83,45.557L415.04,45.566L416.25,45.568L417.46,45.566L418.67,45.507L419.88,45.494L421.09,45.489L422.3,45.491L423.51,45.489L424.72,45.471L425.93,45.476L427.14,45.485L428.35,45.435L429.56,45.428L430.77,45.406L431.98,45.449L433.19,45.415L434.4,45.433L435.61,45.439L436.82,45.374L438.03,45.394L439.24,45.401L440.45,45.318L441.66,45.403L442.87,45.383L444.08,45.325L445.29,45.361L446.5,45.352L447.71,45.372L448.92,45.349L450.13,45.318L451.34,45.329L452.56,45.334L453.77,45.325L454.98,45.318L456.19,45.322L457.4,45.322L458.61,45.295L459.82,45.282L461.03,45.291L462.24,45.282L463.45,45.275L464.66,45.322L465.87,45.28L467.08,45.293L468.29,45.282L469.5,45.244L470.71,45.271L471.92,45.298L473.13,45.253L474.34,45.268L475.55,45.264L476.76,45.259L477.97,45.241L479.18,45.255L480.39,45.244L481.6,45.262L482.81,45.253L484.02,45.221L485.23,45.228L486.44,45.244L487.65,45.232L488.86,45.228L490.07,45.212L491.28,45.23L492.49,45.226L493.7,45.223L494.91,45.192L496.12,45.217L497.33,45.219L498.54,45.23L499.75,45.21L500.96,45.214L502.17,45.219L503.38,45.194L504.59,45.192L505.8,45.192L507.01,45.203L508.22,45.208L509.43,45.183L510.64,45.196L511.85,45.187L513.06,45.208L514.27,45.194L515.48,45.183L516.69,45.187L517.9,45.199L519.11,45.176L520.32,45.199L521.53,45.19L522.74,45.185L523.95,45.174L525.16,45.192L526.37,45.176L527.58,45.187L528.8,45.192L530.01,45.172L531.22,45.169L532.43,45.178L533.64,45.176L534.85,45.174L536.06,45.163L537.27,45.165L538.48,45.181L539.69,45.176L540.9,45.165L542.11,45.174L543.32,45.176L544.53,45.16L545.74,45.167L546.95,45.16L548.16,45.163L549.37,45.169L550.58,45.183L551.79,45.174L553,45.158L554.21,45.167L555.42,45.169L556.63,45.167L557.84,45.172L559.05,45.165L560.26,45.154L561.47,45.165L562.68,45.165L563.89,45.16L565.1,45.158L566.31,45.165L567.52,45.163L568.73,45.172L569.94,45.156L571.15,45.158L572.36,45.158L573.57,45.16L574.78,45.156L575.99,45.156L577.2,45.156L578.41,45.156L579.62,45.165L580.83,45.154L582.04,45.158L583.25,45.16L585.67,45.151L586.88,45.156L588.09,45.154L589.3,45.154L590.51,45.151L591.72,45.154L592.93,45.156L594.14,45.156L595.35,45.154L596.56,45.151L597.77,45.154L598.98,45.154L600.19,45.154L601.4,45.154L602.61,45.151L603.82,45.154L605.04,45.156L606.25,45.151L607.46,45.151L608.67,45.154L609.88,45.154L611.09,45.151L612.3,45.154L613.51,45.154L614.72,45.151L615.93,45.151L617.14,45.151L619.56,45.151L620.77,45.151L621.98,45.156L623.19,45.154L629.24,45.154L630.45,45.151L632.87,45.151L636.5,45.151L637.71,45.151L638.92,45.151L640.13,45.151L643.76,45.151L646.18,45.151L647.39,45.154L658.28,45.151L660.7,45.151L669.17,45.151L670.38,45.151L678.85,45.151L694.59,45.154L700.64,45.151L720,45.151" style="fill:none;stroke:#0000FF" />
</g>
</svg>
