<?xml version="1.0"?>
<!-- Generated by SVGo and Plotinum VG -->
<svg width="720pt" height="432pt" viewBox="0 0 720 432"
	xmlns="http://www.w3.org/2000/svg"
	xmlns:xlink="http://www.w3.org/1999/xlink">
<g transform="scale(1, -1) translate(0, -432)">
<path d="M0,0L720,0L720,432L0,432Z" style="fill:#FFFFFF" />
<text x="358.5" y="-420.45" transform="scale(1, -1)"
	style="font-family:Times;font-weight:normal;font-style:normal;font-size:12px"> </text>
<text x="379.31" y="-3.8613" transform="scale(1, -1)"
	style="font-family:Times;font-weight:normal;font-style:normal;font-size:12px">Costs</text>
<text x="62.805" y="-18.634" transform="scale(1, -1)"
	style="font-family:Times;font-weight:normal;font-style:normal;font-size:10px">0</text>
<text x="236.68" y="-18.634" transform="scale(1, -1)"
	style="font-family:Times;font-weight:normal;font-style:normal;font-size:10px">100</text>
<text x="415.56" y="-18.634" transform="scale(1, -1)"
	style="font-family:Times;font-weight:normal;font-style:normal;font-size:10px">200</text>
<text x="594.44" y="-18.634" transform="scale(1, -1)"
	style="font-family:Times;font-weight:normal;font-style:normal;font-size:10px">300</text>
<path d="M65.305,28.263L65.305,36.263" style="fill:none;stroke:#000000;stroke-width:0.5" />
<path d="M244.18,28.263L244.18,36.263" style="fill:none;stroke:#000000;stroke-width:0.5" />
<path d="M423.06,28.263L423.06,36.263" style="fill:none;stroke:#000000;stroke-width:0.5" />
<path d="M601.94,28.263L601.94,36.263" style="fill:none;stroke:#000000;stroke-width:0.5" />
<path d="M101.08,32.263L101.08,36.263" style="fill:none;stroke:#000000;stroke-width:0.5" />
<path d="M136.86,32.263L136.86,36.263" style="fill:none;stroke:#000000;stroke-width:0.5" />
<path d="M172.63,32.263L172.63,36.263" style="fill:none;stroke:#000000;stroke-width:0.5" />
<path d="M208.41,32.263L208.41,36.263" style="fill:none;stroke:#000000;stroke-width:0.5" />
<path d="M279.96,32.263L279.96,36.263" style="fill:none;stroke:#000000;stroke-width:0.5" />
<path d="M315.73,32.263L315.73,36.263" style="fill:none;stroke:#000000;stroke-width:0.5" />
<path d="M351.51,32.263L351.51,36.263" style="fill:none;stroke:#000000;stroke-width:0.5" />
<path d="M387.29,32.263L387.29,36.263" style="fill:none;stroke:#000000;stroke-width:0.5" />
<path d="M458.84,32.263L458.84,36.263" style="fill:none;stroke:#000000;stroke-width:0.5" />
<path d="M494.61,32.263L494.61,36.263" style="fill:none;stroke:#000000;stroke-width:0.5" />
<path d="M530.39,32.263L530.39,36.263" style="fill:none;stroke:#000000;stroke-width:0.5" />
<path d="M566.16,32.263L566.16,36.263" style="fill:none;stroke:#000000;stroke-width:0.5" />
<path d="M637.72,32.263L637.72,36.263" style="fill:none;stroke:#000000;stroke-width:0.5" />
<path d="M673.49,32.263L673.49,36.263" style="fill:none;stroke:#000000;stroke-width:0.5" />
<path d="M709.27,32.263L709.27,36.263" style="fill:none;stroke:#000000;stroke-width:0.5" />
<path d="M65.305,36.263L720,36.263" style="fill:none;stroke:#000000;stroke-width:0.5" />
<g transform="rotate(90)">
<text x="152.55" y="11.555" transform="scale(1, -1)"
	style="font-family:Times;font-weight:normal;font-style:normal;font-size:12px">Number of trials (1000000 total)</text>
</g>
<text x="24.055" y="-81.146" transform="scale(1, -1)"
	style="font-family:Times;font-weight:normal;font-style:normal;font-size:10px">50000</text>
<text x="19.055" y="-237.95" transform="scale(1, -1)"
	style="font-family:Times;font-weight:normal;font-style:normal;font-size:10px">250000</text>
<text x="19.055" y="-394.75" transform="scale(1, -1)"
	style="font-family:Times;font-weight:normal;font-style:normal;font-size:10px">450000</text>
<path d="M51.555,84.352L59.555,84.352" style="fill:none;stroke:#000000;stroke-width:0.5" />
<path d="M51.555,241.16L59.555,241.16" style="fill:none;stroke:#000000;stroke-width:0.5" />
<path d="M51.555,397.96L59.555,397.96" style="fill:none;stroke:#000000;stroke-width:0.5" />
<path d="M55.555,162.75L59.555,162.75" style="fill:none;stroke:#000000;stroke-width:0.5" />
<path d="M55.555,319.56L59.555,319.56" style="fill:none;stroke:#000000;stroke-width:0.5" />
<path d="M59.555,45.151L59.555,416.58" style="fill:none;stroke:#000000;stroke-width:0.5" />
<path d="M65.305,416.58L104.66,48.556L111.81,48.552L113.6,48.599L120.76,52.064L124.33,62.914L126.12,67.46L127.91,48.548L129.7,48.591L138.64,59.146L140.43,48.57L142.22,55.608L144.01,74.048L145.8,62.928L147.59,67.258L151.17,45.179L152.96,52.085L156.53,48.585L160.11,110.67L163.69,45.309L165.48,48.832L167.27,48.658L169.05,63.167L170.84,48.713L172.63,45.514L174.42,48.852L176.21,48.626L178,45.294L179.79,45.521L181.58,45.693L183.36,45.503L185.15,46.628L186.94,45.674L188.73,45.634L190.52,45.737L192.31,45.663L194.1,45.787L195.89,45.456L197.67,45.971L199.46,47.388L201.25,46.403L203.04,47.786L204.83,47.549L206.62,48.258L208.41,54.6L210.2,52.511L211.99,45.898L213.77,45.77L215.56,47.125L217.35,46.777L219.14,49.374L220.93,50.601L222.72,47.017L224.51,48.243L226.3,47.316L228.08,47.388L229.87,46.823L231.66,46.171L233.45,48.444L235.24,46.873L237.03,47.448L238.82,50.168L240.61,48.599L242.39,49.455L244.18,45.886L245.97,46.153L247.76,48.559L249.55,46.755L251.34,47.144L253.13,45.839L254.92,49.576L256.7,46.074L258.49,45.641L260.28,46.046L262.07,45.946L263.86,48.44L265.65,46.055L267.44,45.761L269.23,46.749L271.01,46.507L272.8,45.45L274.59,45.592L276.38,45.469L278.17,45.586L279.96,45.827L281.75,45.699L283.54,45.742L285.33,45.748L287.11,46.126L288.9,46.353L290.69,46.135L292.48,45.853L294.27,45.635L296.06,45.655L297.85,45.855L299.64,45.754L301.42,45.868L303.21,46.889L305,46.714L306.79,45.588L308.58,45.586L310.37,45.725L312.16,46.004L313.95,45.996L315.73,45.872L317.52,45.574L319.31,45.83L321.1,45.652L322.89,45.623L324.68,45.579L326.47,45.49L328.26,45.623L330.04,45.592L331.83,45.47L333.62,45.586L335.41,45.499L337.2,45.567L338.99,45.379L340.78,45.408L342.57,45.623L344.36,45.507L346.14,45.52L347.93,45.404L349.72,45.44L351.51,45.416L353.3,45.43L355.09,45.269L356.88,45.321L358.67,45.424L360.45,45.314L362.24,45.321L364.03,45.434L365.82,45.41L367.61,45.302L369.4,45.337L371.19,45.296L372.98,45.322L374.76,45.311L376.55,45.303L378.34,45.3L380.13,45.289L381.92,45.338L383.71,45.345L385.5,45.356L387.29,45.314L389.07,45.243L390.86,45.293L392.65,45.305L394.44,45.268L396.23,45.266L398.02,45.288L399.81,45.297L401.6,45.245L403.39,45.234L405.17,45.233L406.96,45.276L408.75,45.265L410.54,45.216L412.33,45.232L414.12,45.235L415.91,45.206L417.7,45.221L419.48,45.215L421.27,45.209L423.06,45.205L424.85,45.205L426.64,45.196L428.43,45.185L430.22,45.197L432.01,45.205L433.79,45.185L435.58,45.194L437.37,45.198L439.16,45.187L440.95,45.184L442.74,45.176L444.53,45.182L446.32,45.194L448.1,45.187L449.89,45.177L451.68,45.173L453.47,45.175L455.26,45.173L457.05,45.182L458.84,45.183L460.63,45.181L462.41,45.177L464.2,45.177L465.99,45.174L467.78,45.169L469.57,45.173L471.36,45.166L473.15,45.173L474.94,45.168L476.73,45.17L478.51,45.188L480.3,45.169L482.09,45.171L483.88,45.165L485.67,45.176L487.46,45.166L489.25,45.178L491.04,45.164L492.82,45.165L494.61,45.163L496.4,45.16L498.19,45.16L499.98,45.165L501.77,45.158L503.56,45.161L505.35,45.157L507.13,45.16L508.92,45.158L510.71,45.16L512.5,45.155L514.29,45.156L516.08,45.158L517.87,45.154L519.66,45.155L521.44,45.158L523.23,45.152L525.02,45.152L526.81,45.153L528.6,45.155L530.39,45.154L532.18,45.155L533.97,45.155L535.76,45.155L537.54,45.155L539.33,45.157L541.12,45.155L542.91,45.155L544.7,45.152L548.28,45.155L550.07,45.155L551.85,45.155L553.64,45.151L555.43,45.155L557.22,45.153L559.01,45.155L560.8,45.153L562.59,45.151L564.38,45.156L566.16,45.153L567.95,45.154L569.74,45.152L571.53,45.153L578.69,45.152L580.47,45.151L582.26,45.153L584.05,45.151L585.84,45.151L587.63,45.153L589.42,45.152L591.21,45.151L593,45.153L594.79,45.152L596.57,45.151L598.36,45.152L600.15,45.151L605.52,45.151L616.25,45.151L621.62,45.152L628.77,45.151L635.93,45.151L637.72,45.151L657.39,45.151L662.76,45.151L678.86,45.151L707.48,45.151L720,45.151" style="fill:none;stroke:#0000FF" />
</g>
</svg>
