<?xml version="1.0"?>
<!-- Generated by SVGo and Plotinum VG -->
<svg width="720pt" height="432pt" viewBox="0 0 720 432"
	xmlns="http://www.w3.org/2000/svg"
	xmlns:xlink="http://www.w3.org/1999/xlink">
<g transform="scale(1, -1) translate(0, -432)">
<path d="M0,0L720,0L720,432L0,432Z" style="fill:#FFFFFF" />
<text x="358.5" y="-420.45" transform="scale(1, -1)"
	style="font-family:Times;font-weight:normal;font-style:normal;font-size:12px"> </text>
<text x="379.31" y="-3.8613" transform="scale(1, -1)"
	style="font-family:Times;font-weight:normal;font-style:normal;font-size:12px">Costs</text>
<text x="62.805" y="-18.634" transform="scale(1, -1)"
	style="font-family:Times;font-weight:normal;font-style:normal;font-size:10px">0</text>
<text x="241.71" y="-18.634" transform="scale(1, -1)"
	style="font-family:Times;font-weight:normal;font-style:normal;font-size:10px">100</text>
<text x="425.61" y="-18.634" transform="scale(1, -1)"
	style="font-family:Times;font-weight:normal;font-style:normal;font-size:10px">200</text>
<text x="609.51" y="-18.634" transform="scale(1, -1)"
	style="font-family:Times;font-weight:normal;font-style:normal;font-size:10px">300</text>
<path d="M65.305,28.263L65.305,36.263" style="fill:none;stroke:#000000;stroke-width:0.5" />
<path d="M249.21,28.263L249.21,36.263" style="fill:none;stroke:#000000;stroke-width:0.5" />
<path d="M433.11,28.263L433.11,36.263" style="fill:none;stroke:#000000;stroke-width:0.5" />
<path d="M617.01,28.263L617.01,36.263" style="fill:none;stroke:#000000;stroke-width:0.5" />
<path d="M102.09,32.263L102.09,36.263" style="fill:none;stroke:#000000;stroke-width:0.5" />
<path d="M138.87,32.263L138.87,36.263" style="fill:none;stroke:#000000;stroke-width:0.5" />
<path d="M175.65,32.263L175.65,36.263" style="fill:none;stroke:#000000;stroke-width:0.5" />
<path d="M212.43,32.263L212.43,36.263" style="fill:none;stroke:#000000;stroke-width:0.5" />
<path d="M285.99,32.263L285.99,36.263" style="fill:none;stroke:#000000;stroke-width:0.5" />
<path d="M322.77,32.263L322.77,36.263" style="fill:none;stroke:#000000;stroke-width:0.5" />
<path d="M359.55,32.263L359.55,36.263" style="fill:none;stroke:#000000;stroke-width:0.5" />
<path d="M396.33,32.263L396.33,36.263" style="fill:none;stroke:#000000;stroke-width:0.5" />
<path d="M469.89,32.263L469.89,36.263" style="fill:none;stroke:#000000;stroke-width:0.5" />
<path d="M506.67,32.263L506.67,36.263" style="fill:none;stroke:#000000;stroke-width:0.5" />
<path d="M543.45,32.263L543.45,36.263" style="fill:none;stroke:#000000;stroke-width:0.5" />
<path d="M580.23,32.263L580.23,36.263" style="fill:none;stroke:#000000;stroke-width:0.5" />
<path d="M653.79,32.263L653.79,36.263" style="fill:none;stroke:#000000;stroke-width:0.5" />
<path d="M690.58,32.263L690.58,36.263" style="fill:none;stroke:#000000;stroke-width:0.5" />
<path d="M65.305,36.263L720,36.263" style="fill:none;stroke:#000000;stroke-width:0.5" />
<g transform="rotate(90)">
<text x="150.02" y="11.555" transform="scale(1, -1)"
	style="font-family:Times;font-weight:normal;font-style:normal;font-size:12px">Number of trials (1000000 total)</text>
</g>
<text x="19.055" y="-114.95" transform="scale(1, -1)"
	style="font-family:Times;font-weight:normal;font-style:normal;font-size:10px">100000</text>
<text x="19.055" y="-260.95" transform="scale(1, -1)"
	style="font-family:Times;font-weight:normal;font-style:normal;font-size:10px">300000</text>
<text x="19.055" y="-406.96" transform="scale(1, -1)"
	style="font-family:Times;font-weight:normal;font-style:normal;font-size:10px">500000</text>
<path d="M51.555,118.15L59.555,118.15" style="fill:none;stroke:#000000;stroke-width:0.5" />
<path d="M51.555,264.16L59.555,264.16" style="fill:none;stroke:#000000;stroke-width:0.5" />
<path d="M51.555,410.16L59.555,410.16" style="fill:none;stroke:#000000;stroke-width:0.5" />
<path d="M55.555,191.15L59.555,191.15" style="fill:none;stroke:#000000;stroke-width:0.5" />
<path d="M55.555,337.16L59.555,337.16" style="fill:none;stroke:#000000;stroke-width:0.5" />
<path d="M59.555,45.151L59.555,411.51" style="fill:none;stroke:#000000;stroke-width:0.5" />
<path d="M65.305,411.51L105.76,48.72L114.96,48.606L118.64,59.533L120.48,59.31L122.31,48.613L124.15,48.563L125.99,55.502L129.67,48.569L131.51,48.563L135.19,52.006L138.87,66.255L140.7,76.23L142.54,48.514L144.38,63.029L148.06,48.545L155.42,45.186L157.26,48.691L159.1,48.716L160.93,45.3L162.77,58.856L164.61,62.78L166.45,48.67L168.29,66.204L170.13,59.799L171.97,48.574L173.81,52.325L175.65,48.693L177.49,45.438L179.32,63.619L181.16,45.902L183,45.383L184.84,45.747L186.68,45.319L188.52,49.138L190.36,45.886L192.2,46.148L194.04,47.357L195.88,46.929L197.71,46.333L199.55,46.68L201.39,46.385L203.23,45.931L205.07,46.366L206.91,48.98L208.75,46.022L210.59,46.175L212.43,45.776L214.27,47.701L216.11,46.771L217.94,47.933L219.78,47.885L221.62,46.813L223.46,47.538L225.3,46.55L227.14,46.315L228.98,46.931L230.82,46.22L232.66,47.022L234.5,47.035L236.33,46.6L238.17,48.285L240.01,47.9L241.85,47.625L243.69,49.003L245.53,47.335L247.37,47.286L249.21,47.034L251.05,45.936L252.89,46.8L254.72,46.925L256.56,45.778L258.4,46.356L260.24,45.787L262.08,46.7L263.92,46.016L265.76,46.366L267.6,47.244L269.44,46.273L271.28,46.223L273.12,46.803L274.95,45.778L276.79,46.599L278.63,46.644L280.47,45.854L282.31,46.686L284.15,46.195L285.99,45.711L287.83,45.864L289.67,45.601L291.51,45.616L293.34,45.691L295.18,45.508L297.02,45.563L298.86,45.619L300.7,45.464L302.54,45.69L304.38,45.581L306.22,45.581L308.06,45.52L309.9,45.651L311.73,45.56L313.57,45.541L315.41,45.566L317.25,45.586L319.09,45.532L320.93,45.651L322.77,45.543L324.61,45.436L326.45,45.421L328.29,45.5L330.13,45.426L331.96,45.497L333.8,45.441L335.64,45.448L337.48,45.532L339.32,45.424L341.16,45.51L343,45.526L344.84,45.464L346.68,45.475L348.52,45.434L350.35,45.36L352.19,45.496L354.03,45.369L355.87,45.402L357.71,45.414L359.55,45.334L361.39,45.349L363.23,45.31L365.07,45.302L366.91,45.311L368.74,45.299L370.58,45.304L372.42,45.281L374.26,45.284L376.1,45.307L377.94,45.279L379.78,45.302L381.62,45.347L383.46,45.269L385.3,45.265L387.14,45.292L388.97,45.242L390.81,45.238L392.65,45.229L394.49,45.213L396.33,45.221L398.17,45.22L400.01,45.21L401.85,45.21L403.69,45.214L405.53,45.219L407.36,45.219L409.2,45.212L411.04,45.201L412.88,45.217L414.72,45.21L416.56,45.202L418.4,45.22L420.24,45.218L422.08,45.185L423.92,45.2L425.75,45.198L427.59,45.199L429.43,45.186L431.27,45.192L433.11,45.193L434.95,45.2L436.79,45.189L438.63,45.192L440.47,45.174L442.31,45.182L444.15,45.183L445.98,45.18L447.82,45.178L449.66,45.18L451.5,45.181L453.34,45.17L455.18,45.183L457.02,45.176L458.86,45.17L460.7,45.175L462.54,45.17L464.37,45.172L466.21,45.167L468.05,45.171L469.89,45.173L471.73,45.166L473.57,45.164L475.41,45.161L477.25,45.167L479.09,45.167L480.93,45.165L482.76,45.158L484.6,45.166L486.44,45.16L488.28,45.16L490.12,45.163L491.96,45.159L493.8,45.162L495.64,45.158L497.48,45.155L499.32,45.158L501.16,45.154L502.99,45.154L504.83,45.156L506.67,45.156L508.51,45.158L510.35,45.159L512.19,45.155L514.03,45.153L515.87,45.159L517.71,45.156L519.55,45.157L521.38,45.156L523.22,45.154L525.06,45.156L526.9,45.153L528.74,45.153L530.58,45.153L532.42,45.156L534.26,45.154L536.1,45.154L537.94,45.156L539.77,45.151L541.61,45.153L543.45,45.154L545.29,45.153L547.13,45.153L548.97,45.154L550.81,45.153L552.65,45.151L556.33,45.152L558.17,45.152L560,45.153L561.84,45.152L563.68,45.152L565.52,45.152L567.36,45.151L569.2,45.153L571.04,45.151L574.72,45.152L576.56,45.152L578.39,45.151L580.23,45.152L582.07,45.151L583.91,45.151L587.59,45.152L591.27,45.155L594.95,45.151L596.78,45.153L600.46,45.152L613.34,45.151L618.85,45.151L622.53,45.153L631.73,45.151L635.4,45.151L644.6,45.151L651.96,45.151L664.83,45.151L672.19,45.151L720,45.151" style="fill:none;stroke:#0000FF" />
</g>
</svg>
