<?xml version="1.0"?>
<!-- Generated by SVGo and Plotinum VG -->
<svg width="720pt" height="432pt" viewBox="0 0 720 432"
	xmlns="http://www.w3.org/2000/svg"
	xmlns:xlink="http://www.w3.org/1999/xlink">
<g transform="scale(1, -1) translate(0, -432)">
<path d="M0,0L720,0L720,432L0,432Z" style="fill:#FFFFFF" />
<text x="358.5" y="-420.45" transform="scale(1, -1)"
	style="font-family:Times;font-weight:normal;font-style:normal;font-size:12px"> </text>
<text x="379.31" y="-3.8613" transform="scale(1, -1)"
	style="font-family:Times;font-weight:normal;font-style:normal;font-size:12px">Costs</text>
<text x="56.555" y="-18.634" transform="scale(1, -1)"
	style="font-family:Times;font-weight:normal;font-style:normal;font-size:10px">0.00</text>
<text x="330.39" y="-18.634" transform="scale(1, -1)"
	style="font-family:Times;font-weight:normal;font-style:normal;font-size:10px">250.00</text>
<text x="609.22" y="-18.634" transform="scale(1, -1)"
	style="font-family:Times;font-weight:normal;font-style:normal;font-size:10px">500.00</text>
<path d="M65.305,28.263L65.305,36.263" style="fill:none;stroke:#000000;stroke-width:0.5" />
<path d="M344.14,28.263L344.14,36.263" style="fill:none;stroke:#000000;stroke-width:0.5" />
<path d="M622.97,28.263L622.97,36.263" style="fill:none;stroke:#000000;stroke-width:0.5" />
<path d="M121.07,32.263L121.07,36.263" style="fill:none;stroke:#000000;stroke-width:0.5" />
<path d="M176.84,32.263L176.84,36.263" style="fill:none;stroke:#000000;stroke-width:0.5" />
<path d="M232.6,32.263L232.6,36.263" style="fill:none;stroke:#000000;stroke-width:0.5" />
<path d="M288.37,32.263L288.37,36.263" style="fill:none;stroke:#000000;stroke-width:0.5" />
<path d="M399.9,32.263L399.9,36.263" style="fill:none;stroke:#000000;stroke-width:0.5" />
<path d="M455.67,32.263L455.67,36.263" style="fill:none;stroke:#000000;stroke-width:0.5" />
<path d="M511.43,32.263L511.43,36.263" style="fill:none;stroke:#000000;stroke-width:0.5" />
<path d="M567.2,32.263L567.2,36.263" style="fill:none;stroke:#000000;stroke-width:0.5" />
<path d="M678.73,32.263L678.73,36.263" style="fill:none;stroke:#000000;stroke-width:0.5" />
<path d="M65.305,36.263L720,36.263" style="fill:none;stroke:#000000;stroke-width:0.5" />
<g transform="rotate(90)">
<text x="152.55" y="11.555" transform="scale(1, -1)"
	style="font-family:Times;font-weight:normal;font-style:normal;font-size:12px">Number of trials (1000000 total)</text>
</g>
<text x="24.055" y="-89.691" transform="scale(1, -1)"
	style="font-family:Times;font-weight:normal;font-style:normal;font-size:10px">20000</text>
<text x="24.055" y="-232.93" transform="scale(1, -1)"
	style="font-family:Times;font-weight:normal;font-style:normal;font-size:10px">80000</text>
<text x="19.055" y="-376.17" transform="scale(1, -1)"
	style="font-family:Times;font-weight:normal;font-style:normal;font-size:10px">140000</text>
<path d="M51.555,92.896L59.555,92.896" style="fill:none;stroke:#000000;stroke-width:0.5" />
<path d="M51.555,236.14L59.555,236.14" style="fill:none;stroke:#000000;stroke-width:0.5" />
<path d="M51.555,379.38L59.555,379.38" style="fill:none;stroke:#000000;stroke-width:0.5" />
<path d="M55.555,164.52L59.555,164.52" style="fill:none;stroke:#000000;stroke-width:0.5" />
<path d="M55.555,307.76L59.555,307.76" style="fill:none;stroke:#000000;stroke-width:0.5" />
<path d="M59.555,45.151L59.555,416.58" style="fill:none;stroke:#000000;stroke-width:0.5" />
<path d="M65.305,416.58L89.842,48.539L94.303,77.352L95.418,66.077L96.534,70.539L97.649,51.936L98.764,48.594L99.88,70.319L101,58.9L102.11,58.819L103.23,73.549L104.34,72.771L106.57,81.358L107.69,51.659L108.8,65.563L109.92,62.176L111.03,85.92L112.15,75.898L113.26,66.05L114.38,70.438L116.61,76.844L118.84,45.443L119.96,63.656L121.07,62.636L122.19,48.596L123.3,45.631L124.42,78.613L125.53,61.135L126.65,57.983L127.76,90.506L128.88,48.36L129.99,48.064L131.11,52.76L132.22,56.632L133.34,68.626L134.45,67.106L135.57,55.35L136.69,49.888L137.8,52.92L138.92,52.204L140.03,60.59L141.15,55.949L142.26,55.357L143.38,55.068L144.49,57.394L145.61,57.666L146.72,79.26L147.84,81.141L148.95,56.152L150.07,57.262L151.18,59.92L152.3,55.93L153.42,56.532L154.53,57.348L155.65,84.999L156.76,56.537L157.88,60.06L158.99,58.573L160.11,56.444L161.22,55.154L162.34,60.877L163.45,58.669L164.57,55.35L165.68,59.967L166.8,55.914L167.91,54.359L169.03,58.124L170.15,56.164L171.26,58.535L172.38,57.738L173.49,58.117L174.61,55.501L175.72,59.268L176.84,58.105L177.95,55.238L179.07,59.659L180.18,55.806L181.3,55.799L182.41,56.771L183.53,55.978L184.64,57.709L185.76,57.833L186.88,58.654L187.99,55.343L189.11,56.508L190.22,56.396L191.34,55.243L192.45,57.42L193.57,59.731L194.68,58.657L195.8,56.857L196.91,57.482L198.03,53.677L199.14,55.033L200.26,53.278L201.37,56.205L202.49,57.499L203.6,54.336L204.72,53.533L205.84,53.66L206.95,57.671L208.07,53.641L209.18,55.524L210.3,56.009L211.41,52.784L212.53,52.168L213.64,52.913L214.76,55.446L215.87,54.536L216.99,53.961L218.1,55.36L219.22,51.552L220.33,51.834L221.45,52.445L222.57,52.688L223.68,52.956L224.8,53.426L225.91,52.218L227.03,51.676L228.14,51.767L229.26,53.018L230.37,52.287L231.49,52.003L232.6,52.254L233.72,51.991L234.83,51.757L235.95,51.378L237.06,53.149L238.18,53.218L239.3,51.191L240.41,51.409L241.53,51.571L242.64,50.8L243.76,50.972L244.87,51.11L245.99,51.175L247.1,50.757L248.22,51.105L249.33,50.392L250.45,50.196L251.56,50.425L252.68,50.628L253.79,50.466L254.91,50.251L256.03,50.511L257.14,49.957L258.26,49.945L259.37,49.527L260.49,49.761L261.6,49.933L262.72,49.661L263.83,49.819L264.95,49.578L266.06,49.356L267.18,49.243L268.29,49.176L269.41,49.234L270.52,49.038L271.64,48.974L272.75,49.05L273.87,48.623L274.99,48.716L276.1,49.026L277.22,49.145L278.33,48.814L279.45,48.405L280.56,48.317L281.68,48.296L282.79,48.367L283.91,48.415L285.02,48.353L286.14,48.224L287.25,48.002L288.37,48.059L289.48,47.892L290.6,47.66L291.72,47.825L292.83,47.933L293.95,47.675L295.06,47.627L296.18,47.68L297.29,47.684L298.41,47.665L299.52,47.553L300.64,47.632L301.75,47.307L302.87,47.314L303.98,47.369L305.1,47.317L306.21,47.336L307.33,47.214L308.45,47.092L309.56,46.947L310.68,47.033L311.79,47.054L312.91,47.033L314.02,46.992L315.14,46.894L316.25,46.911L317.37,46.746L318.48,46.715L319.6,46.794L320.71,46.727L321.83,46.651L322.94,46.689L324.06,46.581L325.18,46.612L326.29,46.519L327.41,46.567L328.52,46.481L329.64,46.467L330.75,46.371L331.87,46.398L332.98,46.369L334.1,46.285L335.21,46.271L336.33,46.235L337.44,46.285L338.56,46.226L339.67,46.19L340.79,46.13L341.91,46.073L343.02,46.118L344.14,46.092L345.25,46.113L346.37,46.071L347.48,46.097L348.6,45.965L349.71,45.982L350.83,45.982L351.94,45.994L353.06,45.889L354.17,45.87L355.29,45.913L356.4,45.913L357.52,45.806L358.63,45.834L359.75,45.922L360.87,45.832L361.98,45.772L363.1,45.746L364.21,45.698L365.33,45.71L366.44,45.734L367.56,45.803L368.67,45.717L369.79,45.741L370.9,45.634L372.02,45.662L373.13,45.629L374.25,45.65L375.36,45.612L376.48,45.564L377.6,45.603L378.71,45.557L379.83,45.595L380.94,45.514L382.06,45.65L383.17,45.531L384.29,45.564L385.4,45.5L386.52,45.526L387.63,45.55L388.75,45.514L389.86,45.486L390.98,45.447L392.09,45.455L393.21,45.45L394.33,45.455L395.44,45.438L396.56,45.424L397.67,45.483L398.79,45.409L399.9,45.424L401.02,45.424L402.13,45.383L403.25,45.371L404.36,45.352L405.48,45.388L406.59,45.369L407.71,45.359L408.82,45.357L409.94,45.361L411.06,45.321L412.17,45.361L413.29,45.314L414.4,45.345L415.52,45.316L416.63,45.314L417.75,45.28L418.86,45.299L419.98,45.307L421.09,45.302L422.21,45.302L423.32,45.268L424.44,45.256L425.55,45.311L426.67,45.285L427.79,45.271L428.9,45.261L430.02,45.299L431.13,45.276L432.25,45.23L433.36,45.273L434.48,45.266L435.59,45.278L436.71,45.271L437.82,45.249L438.94,45.235L440.05,45.268L441.17,45.237L442.28,45.225L443.4,45.244L444.51,45.259L445.63,45.244L446.75,45.247L447.86,45.199L448.98,45.249L450.09,45.206L451.21,45.233L452.32,45.23L453.44,45.197L454.55,45.204L455.67,45.202L456.78,45.197L457.9,45.221L459.01,45.19L460.13,45.197L461.24,45.194L462.36,45.18L463.48,45.194L464.59,45.209L465.71,45.202L466.82,45.19L467.94,45.19L469.05,45.187L470.17,45.19L471.28,45.185L472.4,45.168L473.51,45.19L474.63,45.187L475.74,45.163L476.86,45.182L477.97,45.182L479.09,45.17L480.21,45.166L481.32,45.173L482.44,45.173L483.55,45.168L484.67,45.178L485.78,45.178L486.9,45.185L488.01,45.166L489.13,45.168L490.24,45.166L491.36,45.159L492.47,45.17L493.59,45.17L494.7,45.17L495.82,45.168L496.94,45.17L498.05,45.166L499.17,45.173L500.28,45.178L501.4,45.161L502.51,45.161L503.63,45.161L504.74,45.178L505.86,45.166L506.97,45.161L508.09,45.18L509.2,45.166L510.32,45.161L511.43,45.17L512.55,45.163L513.67,45.161L514.78,45.159L515.9,45.159L517.01,45.166L518.13,45.166L519.24,45.159L520.36,45.161L521.47,45.161L522.59,45.156L523.7,45.156L524.82,45.159L525.93,45.159L527.05,45.154L528.16,45.154L529.28,45.161L530.39,45.156L531.51,45.154L532.63,45.154L534.86,45.154L537.09,45.151L538.2,45.151L539.32,45.151L540.43,45.154L541.55,45.159L542.66,45.154L543.78,45.151L544.89,45.154L546.01,45.151L548.24,45.151L549.36,45.154L550.47,45.151L552.7,45.151L553.82,45.151L554.93,45.151L557.16,45.151L558.28,45.151L560.51,45.151L562.74,45.154L563.85,45.151L564.97,45.151L566.09,45.151L568.32,45.151L570.55,45.151L572.78,45.151L577.24,45.154L586.16,45.151L587.28,45.156L593.97,45.151L598.43,45.151L599.54,45.154L601.78,45.151L602.89,45.151L607.35,45.154L615.16,45.151L616.27,45.154L619.62,45.151L621.85,45.151L624.08,45.151L629.66,45.151L672.04,45.151L720,45.151" style="fill:none;stroke:#0000FF" />
</g>
</svg>
