<?xml version="1.0"?>
<!-- Generated by SVGo and Plotinum VG -->
<svg width="720pt" height="432pt" viewBox="0 0 720 432"
	xmlns="http://www.w3.org/2000/svg"
	xmlns:xlink="http://www.w3.org/1999/xlink">
<g transform="scale(1, -1) translate(0, -432)">
<path d="M0,0L720,0L720,432L0,432Z" style="fill:#FFFFFF" />
<text x="358.5" y="-420.45" transform="scale(1, -1)"
	style="font-family:Times;font-weight:normal;font-style:normal;font-size:12px"> </text>
<text x="379.31" y="-3.8613" transform="scale(1, -1)"
	style="font-family:Times;font-weight:normal;font-style:normal;font-size:12px">Costs</text>
<text x="56.555" y="-18.634" transform="scale(1, -1)"
	style="font-family:Times;font-weight:normal;font-style:normal;font-size:10px">0.00</text>
<text x="349.14" y="-18.634" transform="scale(1, -1)"
	style="font-family:Times;font-weight:normal;font-style:normal;font-size:10px">250.00</text>
<text x="646.73" y="-18.634" transform="scale(1, -1)"
	style="font-family:Times;font-weight:normal;font-style:normal;font-size:10px">500.00</text>
<path d="M65.305,28.263L65.305,36.263" style="fill:none;stroke:#000000;stroke-width:0.5" />
<path d="M362.89,28.263L362.89,36.263" style="fill:none;stroke:#000000;stroke-width:0.5" />
<path d="M660.48,28.263L660.48,36.263" style="fill:none;stroke:#000000;stroke-width:0.5" />
<path d="M124.82,32.263L124.82,36.263" style="fill:none;stroke:#000000;stroke-width:0.5" />
<path d="M184.34,32.263L184.34,36.263" style="fill:none;stroke:#000000;stroke-width:0.5" />
<path d="M243.86,32.263L243.86,36.263" style="fill:none;stroke:#000000;stroke-width:0.5" />
<path d="M303.38,32.263L303.38,36.263" style="fill:none;stroke:#000000;stroke-width:0.5" />
<path d="M422.41,32.263L422.41,36.263" style="fill:none;stroke:#000000;stroke-width:0.5" />
<path d="M481.93,32.263L481.93,36.263" style="fill:none;stroke:#000000;stroke-width:0.5" />
<path d="M541.45,32.263L541.45,36.263" style="fill:none;stroke:#000000;stroke-width:0.5" />
<path d="M600.96,32.263L600.96,36.263" style="fill:none;stroke:#000000;stroke-width:0.5" />
<path d="M720,32.263L720,36.263" style="fill:none;stroke:#000000;stroke-width:0.5" />
<path d="M65.305,36.263L720,36.263" style="fill:none;stroke:#000000;stroke-width:0.5" />
<g transform="rotate(90)">
<text x="152.55" y="11.555" transform="scale(1, -1)"
	style="font-family:Times;font-weight:normal;font-style:normal;font-size:12px">Number of trials (1000000 total)</text>
</g>
<text x="24.055" y="-108.87" transform="scale(1, -1)"
	style="font-family:Times;font-weight:normal;font-style:normal;font-size:10px">30000</text>
<text x="24.055" y="-242.71" transform="scale(1, -1)"
	style="font-family:Times;font-weight:normal;font-style:normal;font-size:10px">90000</text>
<text x="19.055" y="-376.55" transform="scale(1, -1)"
	style="font-family:Times;font-weight:normal;font-style:normal;font-size:10px">150000</text>
<path d="M51.555,112.07L59.555,112.07" style="fill:none;stroke:#000000;stroke-width:0.5" />
<path d="M51.555,245.92L59.555,245.92" style="fill:none;stroke:#000000;stroke-width:0.5" />
<path d="M51.555,379.76L59.555,379.76" style="fill:none;stroke:#000000;stroke-width:0.5" />
<path d="M55.555,178.99L59.555,178.99" style="fill:none;stroke:#000000;stroke-width:0.5" />
<path d="M55.555,312.84L59.555,312.84" style="fill:none;stroke:#000000;stroke-width:0.5" />
<path d="M59.555,45.151L59.555,416.58" style="fill:none;stroke:#000000;stroke-width:0.5" />
<path d="M65.305,416.58L91.493,48.513L96.254,52.06L97.444,62.564L98.635,48.567L99.825,66.29L102.21,74.526L103.4,51.968L104.59,58.699L105.78,84.294L106.97,55.448L109.35,59.698L110.54,66.346L111.73,55.493L112.92,73.232L114.11,62.549L115.3,73.272L116.49,84.747L117.68,70.173L118.87,71.38L120.06,52.252L122.44,45.207L123.63,67.633L124.82,55.437L126.01,63.049L128.39,63.073L129.58,55.779L130.77,49.321L131.96,83.29L133.15,71.755L134.35,50.385L135.54,67.494L136.73,48.475L137.92,72.625L139.11,72.496L140.3,69.752L141.49,48.018L142.68,50.13L143.87,49.017L145.06,49.956L146.25,49.863L147.44,52.091L148.63,50.443L149.82,57.034L151.01,53.657L152.2,82.57L153.39,57.641L154.58,53.43L155.77,54.489L156.96,77.098L158.15,54.518L159.34,52.879L160.53,61.268L161.72,63.397L162.91,55.121L164.1,57.869L165.29,56.577L166.48,57.708L167.68,55.228L168.87,57.436L170.06,57.347L171.25,55.355L172.44,58.17L173.63,56.744L174.82,55.355L176.01,57.244L177.2,57.759L178.39,56.388L179.58,58.534L180.77,56.894L181.96,54.947L183.15,58.502L184.34,58.937L185.53,57.003L186.72,58.119L187.91,55.339L189.1,58.226L190.29,57.445L191.48,58.261L192.67,57.951L193.86,55.408L195.05,51.674L196.24,54.866L197.43,56.14L198.62,56.158L199.81,55.772L201.01,55.428L202.2,57.753L203.39,56.747L204.58,56.773L205.77,57.316L206.96,56.144L208.15,55.515L209.34,53.55L210.53,55.326L211.72,53.807L212.91,54.558L214.1,52.638L215.29,53.894L216.48,52.377L217.67,52.147L218.86,53.588L220.05,54.683L221.24,52.029L222.43,53.044L223.62,53.555L224.81,55.163L226,53.521L227.19,54.819L228.38,52.803L229.57,53.325L230.76,53.035L231.95,53.117L233.14,51.38L234.34,52.412L235.53,51.904L236.72,52.263L237.91,51.192L239.1,51.402L240.29,51.337L241.48,51.371L242.67,51.154L243.86,52.832L245.05,51.293L246.24,51.143L247.43,51.469L248.62,51.625L249.81,51.232L251,51.199L252.19,51.297L253.38,51.701L254.57,50.617L255.76,50.708L256.95,50.998L258.14,50.652L259.33,50.516L260.52,50.378L261.71,50.195L262.9,50.318L264.09,50.171L265.28,50.041L266.47,50.106L267.67,49.898L268.86,49.68L270.05,49.814L271.24,49.901L272.43,49.736L273.62,49.434L274.81,49.593L276,49.767L277.19,49.584L278.38,49.548L279.57,49.392L280.76,49.093L281.95,48.917L283.14,48.995L284.33,48.988L285.52,48.6L286.71,48.631L287.9,48.518L289.09,48.638L290.28,48.46L291.47,48.413L292.66,48.495L293.85,48.558L295.04,48.457L296.23,48.283L297.42,48.31L298.61,48.245L299.8,48.225L301,48L302.19,47.969L303.38,47.888L304.57,47.955L305.76,47.623L306.95,47.746L308.14,47.442L309.33,47.605L310.52,47.663L311.71,47.536L312.9,47.277L314.09,47.418L315.28,47.494L316.47,47.498L317.66,47.416L318.85,47.333L320.04,47.206L321.23,47.353L322.42,47.083L323.61,47.094L324.8,47.034L325.99,47.036L327.18,47.021L328.37,46.969L329.56,46.84L330.75,46.766L331.94,46.795L333.13,46.775L334.32,46.715L335.52,46.715L336.71,46.724L337.9,46.65L339.09,46.592L340.28,46.664L341.47,46.488L342.66,46.572L343.85,46.494L345.04,46.499L346.23,46.463L347.42,46.445L348.61,46.363L349.8,46.392L350.99,46.34L352.18,46.421L353.37,46.28L354.56,46.296L355.75,46.218L356.94,46.218L358.13,46.265L359.32,46.26L360.51,46.102L361.7,46.028L362.89,46.099L364.08,46.122L365.27,46.026L366.46,46.006L367.65,45.97L368.85,46.008L370.04,45.923L371.23,45.854L372.42,45.888L373.61,45.932L374.8,45.865L375.99,45.888L377.18,45.859L378.37,45.838L379.56,45.756L380.75,45.756L381.94,45.774L383.13,45.747L384.32,45.74L385.51,45.722L386.7,45.772L387.89,45.751L389.08,45.68L390.27,45.66L391.46,45.7L392.65,45.638L393.84,45.622L395.03,45.62L396.22,45.604L397.41,45.598L398.6,45.606L399.79,45.544L400.98,45.571L402.18,45.553L403.37,45.522L404.56,45.513L405.75,45.515L406.94,45.506L408.13,45.562L409.32,45.424L410.51,45.47L411.7,45.453L412.89,45.528L414.08,45.519L415.27,45.419L416.46,45.417L417.65,45.424L418.84,45.417L420.03,45.432L421.22,45.415L422.41,45.435L423.6,45.421L424.79,45.357L425.98,45.388L427.17,45.386L428.36,45.377L429.55,45.377L430.74,45.354L431.93,45.366L433.12,45.366L434.31,45.345L435.51,45.345L436.7,45.357L437.89,45.352L439.08,45.332L440.27,45.354L441.46,45.314L442.65,45.325L443.84,45.272L445.03,45.272L446.22,45.308L447.41,45.299L448.6,45.287L449.79,45.294L450.98,45.285L452.17,45.31L453.36,45.265L454.55,45.263L455.74,45.287L456.93,45.285L458.12,45.229L459.31,45.254L460.5,45.25L461.69,45.25L462.88,45.252L464.07,45.258L465.26,45.234L466.45,45.225L467.64,45.236L468.84,45.223L470.03,45.218L471.22,45.225L472.41,45.218L473.6,45.216L474.79,45.223L475.98,45.2L477.17,45.207L478.36,45.209L479.55,45.207L480.74,45.189L481.93,45.212L483.12,45.207L484.31,45.216L485.5,45.209L486.69,45.205L487.88,45.192L489.07,45.221L490.26,45.185L491.45,45.198L492.64,45.194L493.83,45.192L495.02,45.2L496.21,45.176L497.4,45.176L498.59,45.196L499.78,45.203L500.97,45.192L502.17,45.183L503.36,45.189L504.55,45.194L505.74,45.171L506.93,45.169L508.12,45.163L509.31,45.178L510.5,45.183L511.69,45.169L512.88,45.178L514.07,45.18L515.26,45.183L516.45,45.18L517.64,45.169L518.83,45.169L520.02,45.167L521.21,45.16L522.4,45.167L523.59,45.171L524.78,45.167L525.97,45.171L527.16,45.158L528.35,45.151L529.54,45.165L530.73,45.16L531.92,45.16L533.11,45.174L534.3,45.165L535.49,45.16L536.69,45.163L537.88,45.156L539.07,45.158L540.26,45.158L541.45,45.156L542.64,45.154L543.83,45.156L545.02,45.167L546.21,45.16L547.4,45.158L548.59,45.154L549.78,45.165L550.97,45.163L552.16,45.154L554.54,45.156L555.73,45.16L558.11,45.154L559.3,45.156L560.49,45.156L561.68,45.16L562.87,45.151L564.06,45.151L565.25,45.156L566.44,45.156L567.63,45.158L568.82,45.158L570.02,45.154L571.21,45.16L572.4,45.156L573.59,45.154L574.78,45.156L577.16,45.154L578.35,45.158L579.54,45.154L580.73,45.158L581.92,45.158L583.11,45.154L584.3,45.156L586.68,45.151L589.06,45.154L591.44,45.151L592.63,45.154L595.01,45.156L596.2,45.151L600.96,45.151L602.15,45.151L603.35,45.151L604.54,45.154L608.11,45.151L609.3,45.151L610.49,45.151L611.68,45.156L614.06,45.151L617.63,45.151L621.2,45.151L622.39,45.151L625.96,45.151L636.68,45.151L637.87,45.151L639.06,45.151L640.25,45.154L641.44,45.151L643.82,45.151L648.58,45.151L656.91,45.151L661.67,45.151L665.24,45.151L678.34,45.151L687.86,45.154L695,45.151L720,45.151" style="fill:none;stroke:#0000FF" />
</g>
</svg>
