<?xml version="1.0"?>
<!-- Generated by SVGo and Plotinum VG -->
<svg width="720pt" height="432pt" viewBox="0 0 720 432"
	xmlns="http://www.w3.org/2000/svg"
	xmlns:xlink="http://www.w3.org/1999/xlink">
<g transform="scale(1, -1) translate(0, -432)">
<path d="M0,0L720,0L720,432L0,432Z" style="fill:#FFFFFF" />
<text x="358.5" y="-420.45" transform="scale(1, -1)"
	style="font-family:Times;font-weight:normal;font-style:normal;font-size:12px"> </text>
<text x="385.56" y="-3.8613" transform="scale(1, -1)"
	style="font-family:Times;font-weight:normal;font-style:normal;font-size:12px">Costs</text>
<text x="75.305" y="-18.634" transform="scale(1, -1)"
	style="font-family:Times;font-weight:normal;font-style:normal;font-size:10px">0</text>
<text x="357" y="-18.634" transform="scale(1, -1)"
	style="font-family:Times;font-weight:normal;font-style:normal;font-size:10px">200</text>
<text x="643.69" y="-18.634" transform="scale(1, -1)"
	style="font-family:Times;font-weight:normal;font-style:normal;font-size:10px">400</text>
<path d="M77.805,28.263L77.805,36.263" style="fill:none;stroke:#000000;stroke-width:0.5" />
<path d="M364.5,28.263L364.5,36.263" style="fill:none;stroke:#000000;stroke-width:0.5" />
<path d="M651.19,28.263L651.19,36.263" style="fill:none;stroke:#000000;stroke-width:0.5" />
<path d="M221.15,32.263L221.15,36.263" style="fill:none;stroke:#000000;stroke-width:0.5" />
<path d="M507.85,32.263L507.85,36.263" style="fill:none;stroke:#000000;stroke-width:0.5" />
<path d="M77.805,36.263L720,36.263" style="fill:none;stroke:#000000;stroke-width:0.5" />
<g transform="rotate(90)">
<text x="152.55" y="11.555" transform="scale(1, -1)"
	style="font-family:Times;font-weight:normal;font-style:normal;font-size:12px">Number of trials (1000000 total)</text>
</g>
<text x="24.055" y="-92.099" transform="scale(1, -1)"
	style="font-family:Times;font-weight:normal;font-style:normal;font-size:10px">25000.00</text>
<text x="19.055" y="-242.57" transform="scale(1, -1)"
	style="font-family:Times;font-weight:normal;font-style:normal;font-size:10px">100000.00</text>
<text x="19.055" y="-393.03" transform="scale(1, -1)"
	style="font-family:Times;font-weight:normal;font-style:normal;font-size:10px">175000.00</text>
<path d="M64.055,95.305L72.055,95.305" style="fill:none;stroke:#000000;stroke-width:0.5" />
<path d="M64.055,245.77L72.055,245.77" style="fill:none;stroke:#000000;stroke-width:0.5" />
<path d="M64.055,396.24L72.055,396.24" style="fill:none;stroke:#000000;stroke-width:0.5" />
<path d="M68.055,170.54L72.055,170.54" style="fill:none;stroke:#000000;stroke-width:0.5" />
<path d="M68.055,321.01L72.055,321.01" style="fill:none;stroke:#000000;stroke-width:0.5" />
<path d="M72.055,45.151L72.055,416.58" style="fill:none;stroke:#000000;stroke-width:0.5" />
<path d="M77.805,416.58L109.34,56.625L115.07,59.225L116.51,55.427L117.94,51.894L119.38,72.031L123.68,55.612L125.11,73.688L126.54,102.82L127.98,86.201L129.41,79.933L130.84,52.113L133.71,91.018L136.58,67.894L138.01,79.131L139.44,80.17L142.31,52.428L143.74,74.274L146.61,45.609L148.04,63.725L149.48,80.256L150.91,53.236L153.78,92.201L155.21,64.441L156.65,47.23L158.08,81.673L159.51,50.426L160.95,46.604L162.38,54.135L163.81,48.407L165.25,51.056L166.68,77.921L168.11,57.604L169.55,49.555L170.98,51.15L172.41,49.094L173.85,64.471L175.28,57.227L176.71,56.864L178.15,54.781L179.58,54.9L181.01,55.297L182.45,53.961L183.88,60.314L185.32,60.28L186.75,58.633L188.18,58.569L189.62,59.291L191.05,56.432L192.48,68.079L193.92,55.193L195.35,59.993L196.78,55.321L198.22,57.718L199.65,62.796L201.08,55.225L202.52,58.011L203.95,61.917L205.38,62.431L206.82,55.869L208.25,56.721L209.68,61.468L211.12,54.007L212.55,51.615L213.98,60.459L215.42,61.191L216.85,54.773L218.28,54.643L219.72,57.211L221.15,50.933L222.59,53.868L224.02,55.532L225.45,56.603L226.89,53.909L228.32,54.073L229.75,55.873L231.19,52.823L232.62,53.174L234.05,56.625L235.49,53.279L236.92,51.341L238.35,53.874L239.79,53.794L241.22,51.623L242.65,55.546L244.09,54.587L245.52,52.651L246.95,52.98L248.39,52.386L249.82,52.035L251.25,52.35L252.69,51.521L254.12,53.622L255.56,52.115L256.99,51.993L258.42,51.854L259.86,51.698L261.29,51.633L262.72,52.456L264.16,53.13L265.59,52.069L267.02,50.685L268.46,51.967L269.89,51.104L271.32,51.214L272.76,51.942L274.19,50.907L275.62,51.581L277.06,50.512L278.49,50.109L279.92,50.849L281.36,51.226L282.79,50.119L284.22,50.026L285.66,50.62L287.09,49.569L288.53,49.703L289.96,49.882L291.39,50.077L292.83,49.537L294.26,49.742L295.69,49.808L297.13,48.694L298.56,49.236L299.99,49.154L301.43,48.899L302.86,48.791L304.29,49.156L305.73,48.859L307.16,48.484L308.59,48.496L310.03,48.548L311.46,48.389L312.89,48.267L314.33,48.424L315.76,48.233L317.19,47.769L318.63,48.167L320.06,48.205L321.49,47.876L322.93,48.273L324.36,48.064L325.8,47.763L327.23,47.545L328.66,47.563L330.1,47.707L331.53,47.557L332.96,47.555L334.4,47.505L335.83,47.416L337.26,47.398L338.7,47.324L340.13,47.21L341.56,47.246L343,47.071L344.43,47.113L345.86,47.011L347.3,46.993L348.73,46.917L350.16,46.929L351.6,46.877L353.03,46.933L354.46,46.712L355.9,46.656L357.33,46.74L358.77,46.492L360.2,46.618L361.63,46.536L363.07,46.514L364.5,46.512L365.93,46.351L367.37,46.379L368.8,46.375L370.23,46.355L371.67,46.377L373.1,46.148L374.53,46.193L375.97,46.227L377.4,46.229L378.83,46.116L380.27,46.158L381.7,46.096L383.13,46.038L384.57,46.108L386,46.01L387.43,46.02L388.87,45.954L390.3,45.932L391.73,45.968L393.17,45.894L394.6,45.884L396.04,45.846L397.47,45.801L398.9,45.846L400.34,45.819L401.77,45.779L403.2,45.753L404.64,45.705L406.07,45.799L407.5,45.625L408.94,45.721L410.37,45.671L411.8,45.623L413.24,45.673L414.67,45.639L416.1,45.593L417.54,45.577L418.97,45.581L420.4,45.575L421.84,45.551L423.27,45.571L424.7,45.521L426.14,45.494L427.57,45.527L429.01,45.49L430.44,45.494L431.87,45.472L433.31,45.492L434.74,45.45L436.17,45.442L437.61,45.468L439.04,45.458L440.47,45.356L441.91,45.4L443.34,45.432L444.77,45.412L446.21,45.428L447.64,45.35L449.07,45.356L450.51,45.382L451.94,45.36L453.37,45.328L454.81,45.348L456.24,45.336L457.67,45.358L459.11,45.336L460.54,45.33L461.98,45.356L463.41,45.308L464.84,45.298L466.28,45.322L467.71,45.296L469.14,45.272L470.58,45.284L472.01,45.284L473.44,45.26L474.88,45.268L476.31,45.296L477.74,45.27L479.18,45.258L480.61,45.256L482.04,45.256L483.48,45.26L484.91,45.242L486.34,45.26L487.78,45.24L489.21,45.22L490.64,45.226L492.08,45.216L493.51,45.218L494.94,45.224L496.38,45.228L497.81,45.224L499.25,45.232L500.68,45.222L502.11,45.222L503.55,45.193L504.98,45.193L506.41,45.204L507.85,45.185L509.28,45.218L510.71,45.202L512.15,45.206L513.58,45.2L515.01,45.196L516.45,45.181L517.88,45.179L519.31,45.185L520.75,45.196L522.18,45.183L523.61,45.175L525.05,45.179L526.48,45.185L527.91,45.179L529.35,45.171L530.78,45.193L532.22,45.179L533.65,45.171L535.08,45.181L536.52,45.157L537.95,45.177L539.38,45.171L540.82,45.171L542.25,45.179L543.68,45.179L545.12,45.183L546.55,45.165L547.98,45.155L549.42,45.159L550.85,45.159L552.28,45.167L553.72,45.157L555.15,45.157L556.58,45.167L558.02,45.163L559.45,45.155L560.88,45.153L562.32,45.161L563.75,45.155L565.19,45.163L566.62,45.157L568.05,45.155L569.49,45.167L570.92,45.161L572.35,45.159L573.79,45.155L575.22,45.155L576.65,45.161L578.09,45.161L579.52,45.163L580.95,45.153L582.39,45.153L583.82,45.153L585.25,45.161L586.69,45.157L588.12,45.155L589.55,45.153L590.99,45.153L592.42,45.155L593.85,45.153L596.72,45.153L598.15,45.155L599.59,45.157L602.46,45.153L603.89,45.153L605.32,45.151L606.76,45.153L608.19,45.155L609.62,45.153L611.06,45.151L612.49,45.151L613.92,45.151L615.36,45.151L616.79,45.151L619.66,45.151L621.09,45.151L626.82,45.151L628.26,45.153L629.69,45.151L631.12,45.153L633.99,45.151L635.43,45.151L638.29,45.151L639.73,45.151L642.59,45.151L644.03,45.151L645.46,45.151L648.33,45.151L649.76,45.151L651.19,45.151L681.3,45.151L684.16,45.151L689.9,45.151L720,45.151" style="fill:none;stroke:#0000FF" />
</g>
</svg>
