<?xml version="1.0"?>
<!-- Generated by SVGo and Plotinum VG -->
<svg width="720pt" height="432pt" viewBox="0 0 720 432"
	xmlns="http://www.w3.org/2000/svg"
	xmlns:xlink="http://www.w3.org/1999/xlink">
<g transform="scale(1, -1) translate(0, -432)">
<path d="M0,0L720,0L720,432L0,432Z" style="fill:#FFFFFF" />
<text x="358.5" y="-420.45" transform="scale(1, -1)"
	style="font-family:Times;font-weight:normal;font-style:normal;font-size:12px"> </text>
<text x="376.81" y="-3.8613" transform="scale(1, -1)"
	style="font-family:Times;font-weight:normal;font-style:normal;font-size:12px">Costs</text>
<text x="51.555" y="-18.634" transform="scale(1, -1)"
	style="font-family:Times;font-weight:normal;font-style:normal;font-size:10px">0.00</text>
<text x="360.7" y="-18.634" transform="scale(1, -1)"
	style="font-family:Times;font-weight:normal;font-style:normal;font-size:10px">250.00</text>
<text x="674.84" y="-18.634" transform="scale(1, -1)"
	style="font-family:Times;font-weight:normal;font-style:normal;font-size:10px">500.00</text>
<path d="M60.305,28.263L60.305,36.263" style="fill:none;stroke:#000000;stroke-width:0.5" />
<path d="M374.45,28.263L374.45,36.263" style="fill:none;stroke:#000000;stroke-width:0.5" />
<path d="M688.59,28.263L688.59,36.263" style="fill:none;stroke:#000000;stroke-width:0.5" />
<path d="M123.13,32.263L123.13,36.263" style="fill:none;stroke:#000000;stroke-width:0.5" />
<path d="M185.96,32.263L185.96,36.263" style="fill:none;stroke:#000000;stroke-width:0.5" />
<path d="M248.79,32.263L248.79,36.263" style="fill:none;stroke:#000000;stroke-width:0.5" />
<path d="M311.62,32.263L311.62,36.263" style="fill:none;stroke:#000000;stroke-width:0.5" />
<path d="M437.27,32.263L437.27,36.263" style="fill:none;stroke:#000000;stroke-width:0.5" />
<path d="M500.1,32.263L500.1,36.263" style="fill:none;stroke:#000000;stroke-width:0.5" />
<path d="M562.93,32.263L562.93,36.263" style="fill:none;stroke:#000000;stroke-width:0.5" />
<path d="M625.76,32.263L625.76,36.263" style="fill:none;stroke:#000000;stroke-width:0.5" />
<path d="M60.305,36.263L720,36.263" style="fill:none;stroke:#000000;stroke-width:0.5" />
<g transform="rotate(90)">
<text x="152.55" y="11.555" transform="scale(1, -1)"
	style="font-family:Times;font-weight:normal;font-style:normal;font-size:12px">Number of trials (1000000 total)</text>
</g>
<text x="19.055" y="-85.218" transform="scale(1, -1)"
	style="font-family:Times;font-weight:normal;font-style:normal;font-size:10px">10000</text>
<text x="19.055" y="-215.05" transform="scale(1, -1)"
	style="font-family:Times;font-weight:normal;font-style:normal;font-size:10px">40000</text>
<text x="19.055" y="-344.88" transform="scale(1, -1)"
	style="font-family:Times;font-weight:normal;font-style:normal;font-size:10px">70000</text>
<path d="M46.555,88.424L54.555,88.424" style="fill:none;stroke:#000000;stroke-width:0.5" />
<path d="M46.555,218.25L54.555,218.25" style="fill:none;stroke:#000000;stroke-width:0.5" />
<path d="M46.555,348.09L54.555,348.09" style="fill:none;stroke:#000000;stroke-width:0.5" />
<path d="M50.555,131.7L54.555,131.7" style="fill:none;stroke:#000000;stroke-width:0.5" />
<path d="M50.555,174.98L54.555,174.98" style="fill:none;stroke:#000000;stroke-width:0.5" />
<path d="M50.555,261.53L54.555,261.53" style="fill:none;stroke:#000000;stroke-width:0.5" />
<path d="M50.555,304.81L54.555,304.81" style="fill:none;stroke:#000000;stroke-width:0.5" />
<path d="M50.555,391.36L54.555,391.36" style="fill:none;stroke:#000000;stroke-width:0.5" />
<path d="M54.555,45.151L54.555,416.58" style="fill:none;stroke:#000000;stroke-width:0.5" />
<path d="M60.305,416.58L87.949,72.403L90.462,48.458L92.975,82.456L94.232,82.374L95.488,64.258L96.745,56.468L99.258,92.782L100.51,67.768L101.77,97.845L103.03,52.305L104.28,102.64L105.54,72.299L106.8,66.933L108.05,63.488L109.31,89.718L110.57,64.258L111.82,74.826L113.08,79.505L114.34,67.049L115.59,93.513L116.85,80.106L118.11,52.218L120.62,54.789L121.88,51.128L123.13,121.86L124.39,65.492L125.65,46.199L126.9,96.794L128.16,74.099L129.42,62.964L130.67,76.904L131.93,72.377L133.19,93.552L134.44,66.928L135.7,61.99L136.95,76.7L138.21,64.561L139.47,58.874L140.72,61.121L141.98,59.312L143.24,66.409L144.49,62.228L145.75,67.106L147.01,61.934L148.26,68.374L149.52,74.078L150.78,71.377L152.03,64.011L153.29,76.847L154.55,70.408L155.8,74.138L157.06,77.293L158.32,68.967L159.57,71.472L160.83,72.173L162.09,75.895L163.34,70.603L164.6,76.873L165.86,74.06L167.11,79.933L168.37,77.328L169.63,72.766L170.88,74.121L172.14,81.197L173.4,70.075L174.65,72.944L175.91,75.618L177.16,74.904L178.42,77.103L179.68,75.54L180.93,70.854L182.19,72.139L183.45,71.948L184.7,67.772L185.96,71.957L187.22,70.672L188.47,66.521L189.73,73.649L190.99,69.278L192.24,65.05L193.5,70.308L194.76,69.495L196.01,69.205L197.27,69.629L198.53,67.27L199.78,71.693L201.04,69.122L202.3,67.43L203.55,68.993L204.81,68.75L206.07,66.314L207.32,66.504L208.58,67.067L209.84,66.764L211.09,65.942L212.35,66.764L213.61,66.024L214.86,64.457L216.12,68.577L217.38,66.673L218.63,65.604L219.89,68.002L221.14,66.552L222.4,66.184L223.66,67.27L224.91,65.249L226.17,66.517L227.43,65.859L228.68,65.539L229.94,65.401L231.2,64.713L232.45,64.972L233.71,64.782L234.97,65.037L236.22,64.024L237.48,63.033L238.74,64.57L239.99,63.505L241.25,63.137L242.51,63.566L243.76,62.878L245.02,63.033L246.28,62.557L247.53,61.869L248.79,61.644L250.05,61.073L251.3,60.363L252.56,60.887L253.82,60.424L255.07,59.757L256.33,60.017L257.59,59.385L258.84,58.913L260.1,59.446L261.35,58.385L262.61,58.688L263.87,58.836L265.12,58.654L266.38,58.243L267.64,58.589L268.89,57.55L270.15,57.472L271.41,57.736L272.66,57.516L273.92,57.338L275.18,57.442L276.43,56.84L277.69,56.252L278.95,56.481L280.2,56.122L281.46,55.858L282.72,56.235L283.97,55.75L285.23,55.313L286.49,55.469L287.74,55.3L289,55.581L290.26,55.512L291.51,54.897L292.77,54.625L294.03,54.482L295.28,54.192L296.54,54.248L297.79,54.235L299.05,54.114L300.31,53.694L301.56,53.66L302.82,53.525L304.08,53.214L305.33,53.621L306.59,52.772L307.85,52.846L309.1,52.656L310.36,52.387L311.62,52.418L312.87,52.469L314.13,51.937L315.39,51.954L316.64,51.699L317.9,51.504L319.16,51.362L320.41,51.409L321.67,50.968L322.93,51.383L324.18,51.124L325.44,51.05L326.7,50.604L327.95,50.552L329.21,50.777L330.47,50.275L331.72,50.063L332.98,50.115L334.24,50.44L335.49,49.882L336.75,49.903L338,49.734L339.26,49.483L340.52,49.916L341.77,49.354L343.03,49.306L344.29,49.475L345.54,49.371L346.8,49.141L348.06,49.085L349.31,48.999L350.57,49.016L351.83,48.8L353.08,48.575L354.34,48.51L355.6,48.57L356.85,48.311L358.11,48.363L359.37,48.276L360.62,47.895L361.88,48.194L363.14,48.155L364.39,48.155L365.65,47.956L366.91,47.791L368.16,47.644L369.42,47.8L370.68,47.635L371.93,47.536L373.19,47.341L374.45,47.501L375.7,47.484L376.96,47.233L378.21,47.341L379.47,47.22L380.73,47.082L381.98,47.198L383.24,47.133L384.5,47.112L385.75,46.93L387.01,46.939L388.27,46.978L389.52,46.904L390.78,46.818L392.04,46.766L393.29,46.653L394.55,46.757L395.81,46.61L397.06,46.631L398.32,46.653L399.58,46.592L400.83,46.58L402.09,46.454L403.35,46.415L404.6,46.285L405.86,46.389L407.12,46.294L408.37,46.181L409.63,46.303L410.89,46.216L412.14,46.264L413.4,46.121L414.66,46.147L415.91,46.151L417.17,46.073L418.42,45.956L419.68,46.116L420.94,46.06L422.19,45.93L423.45,45.926L424.71,45.9L425.96,45.939L427.22,45.939L428.48,45.896L429.73,45.904L430.99,45.904L432.25,45.844L433.5,45.766L434.76,45.865L436.02,45.736L437.27,45.792L438.53,45.623L439.79,45.688L441.04,45.727L442.3,45.727L443.56,45.736L444.81,45.645L446.07,45.684L447.33,45.614L448.58,45.606L449.84,45.627L451.1,45.567L452.35,45.571L453.61,45.55L454.87,45.528L456.12,45.532L457.38,45.558L458.63,45.506L459.89,45.519L461.15,45.519L462.4,45.489L463.66,45.433L464.92,45.476L466.17,45.394L467.43,45.394L468.69,45.433L469.94,45.385L471.2,45.476L472.46,45.389L473.71,45.35L474.97,45.355L476.23,45.385L477.48,45.363L478.74,45.402L480,45.35L481.25,45.333L482.51,45.32L483.77,45.281L485.02,45.394L486.28,45.333L487.54,45.299L488.79,45.316L490.05,45.268L491.31,45.32L492.56,45.299L493.82,45.286L495.08,45.307L496.33,45.311L497.59,45.268L498.85,45.251L500.1,45.281L501.36,45.29L502.61,45.286L503.87,45.255L505.13,45.212L506.38,45.26L507.64,45.251L508.9,45.212L510.15,45.264L511.41,45.273L512.67,45.229L513.92,45.234L515.18,45.225L516.44,45.19L517.69,45.221L518.95,45.242L520.21,45.221L521.46,45.234L522.72,45.216L523.98,45.182L525.23,45.19L526.49,45.212L527.75,45.19L529,45.212L530.26,45.177L531.52,45.203L532.77,45.195L534.03,45.203L535.29,45.177L536.54,45.182L537.8,45.186L539.06,45.195L540.31,45.173L541.57,45.177L542.82,45.186L544.08,45.177L545.34,45.186L546.59,45.186L547.85,45.199L549.11,45.177L550.36,45.177L551.62,45.177L552.88,45.177L554.13,45.199L555.39,45.156L556.65,45.164L557.9,45.164L559.16,45.156L560.42,45.199L561.67,45.199L562.93,45.173L564.19,45.156L565.44,45.186L566.7,45.177L567.96,45.169L569.21,45.169L570.47,45.16L571.73,45.16L572.98,45.16L574.24,45.169L575.5,45.16L576.75,45.16L578.01,45.156L579.26,45.16L580.52,45.16L581.78,45.16L583.03,45.16L584.29,45.151L585.55,45.151L586.8,45.16L588.06,45.16L589.32,45.151L590.57,45.151L591.83,45.156L593.09,45.16L594.34,45.151L595.6,45.156L598.11,45.156L599.37,45.151L600.63,45.16L601.88,45.151L603.14,45.156L604.4,45.151L606.91,45.156L608.17,45.151L611.94,45.151L613.19,45.151L615.71,45.16L616.96,45.156L618.22,45.151L619.48,45.151L620.73,45.164L623.24,45.156L627.01,45.156L628.27,45.151L630.78,45.156L632.04,45.151L638.32,45.151L639.58,45.156L640.84,45.151L643.35,45.151L649.63,45.151L662.2,45.151L669.74,45.151L718.74,45.151L720,45.151" style="fill:none;stroke:#0000FF" />
</g>
</svg>
