<?xml version="1.0"?>
<!-- Generated by SVGo and Plotinum VG -->
<svg width="720pt" height="432pt" viewBox="0 0 720 432"
	xmlns="http://www.w3.org/2000/svg"
	xmlns:xlink="http://www.w3.org/1999/xlink">
<g transform="scale(1, -1) translate(0, -432)">
<path d="M0,0L720,0L720,432L0,432Z" style="fill:#FFFFFF" />
<text x="358.5" y="-420.45" transform="scale(1, -1)"
	style="font-family:Times;font-weight:normal;font-style:normal;font-size:12px"> </text>
<text x="376.81" y="-3.8613" transform="scale(1, -1)"
	style="font-family:Times;font-weight:normal;font-style:normal;font-size:12px">Costs</text>
<text x="51.555" y="-18.634" transform="scale(1, -1)"
	style="font-family:Times;font-weight:normal;font-style:normal;font-size:10px">0.00</text>
<text x="335.39" y="-18.634" transform="scale(1, -1)"
	style="font-family:Times;font-weight:normal;font-style:normal;font-size:10px">250.00</text>
<text x="624.22" y="-18.634" transform="scale(1, -1)"
	style="font-family:Times;font-weight:normal;font-style:normal;font-size:10px">500.00</text>
<path d="M60.305,28.263L60.305,36.263" style="fill:none;stroke:#000000;stroke-width:0.5" />
<path d="M349.14,28.263L349.14,36.263" style="fill:none;stroke:#000000;stroke-width:0.5" />
<path d="M637.97,28.263L637.97,36.263" style="fill:none;stroke:#000000;stroke-width:0.5" />
<path d="M118.07,32.263L118.07,36.263" style="fill:none;stroke:#000000;stroke-width:0.5" />
<path d="M175.84,32.263L175.84,36.263" style="fill:none;stroke:#000000;stroke-width:0.5" />
<path d="M233.6,32.263L233.6,36.263" style="fill:none;stroke:#000000;stroke-width:0.5" />
<path d="M291.37,32.263L291.37,36.263" style="fill:none;stroke:#000000;stroke-width:0.5" />
<path d="M406.9,32.263L406.9,36.263" style="fill:none;stroke:#000000;stroke-width:0.5" />
<path d="M464.67,32.263L464.67,36.263" style="fill:none;stroke:#000000;stroke-width:0.5" />
<path d="M522.44,32.263L522.44,36.263" style="fill:none;stroke:#000000;stroke-width:0.5" />
<path d="M580.2,32.263L580.2,36.263" style="fill:none;stroke:#000000;stroke-width:0.5" />
<path d="M695.74,32.263L695.74,36.263" style="fill:none;stroke:#000000;stroke-width:0.5" />
<path d="M60.305,36.263L720,36.263" style="fill:none;stroke:#000000;stroke-width:0.5" />
<g transform="rotate(90)">
<text x="152.55" y="11.555" transform="scale(1, -1)"
	style="font-family:Times;font-weight:normal;font-style:normal;font-size:12px">Number of trials (1000000 total)</text>
</g>
<text x="19.055" y="-85.959" transform="scale(1, -1)"
	style="font-family:Times;font-weight:normal;font-style:normal;font-size:10px">10000</text>
<text x="19.055" y="-218.01" transform="scale(1, -1)"
	style="font-family:Times;font-weight:normal;font-style:normal;font-size:10px">40000</text>
<text x="19.055" y="-350.07" transform="scale(1, -1)"
	style="font-family:Times;font-weight:normal;font-style:normal;font-size:10px">70000</text>
<path d="M46.555,89.165L54.555,89.165" style="fill:none;stroke:#000000;stroke-width:0.5" />
<path d="M46.555,221.22L54.555,221.22" style="fill:none;stroke:#000000;stroke-width:0.5" />
<path d="M46.555,353.27L54.555,353.27" style="fill:none;stroke:#000000;stroke-width:0.5" />
<path d="M50.555,133.18L54.555,133.18" style="fill:none;stroke:#000000;stroke-width:0.5" />
<path d="M50.555,177.2L54.555,177.2" style="fill:none;stroke:#000000;stroke-width:0.5" />
<path d="M50.555,265.24L54.555,265.24" style="fill:none;stroke:#000000;stroke-width:0.5" />
<path d="M50.555,309.25L54.555,309.25" style="fill:none;stroke:#000000;stroke-width:0.5" />
<path d="M50.555,397.29L54.555,397.29" style="fill:none;stroke:#000000;stroke-width:0.5" />
<path d="M54.555,45.151L54.555,416.58" style="fill:none;stroke:#000000;stroke-width:0.5" />
<path d="M60.305,416.58L86.877,48.726L88.033,67.455L90.343,60.126L91.499,71.232L92.654,71.175L93.809,60.126L94.965,48.387L96.12,76.343L97.275,67.737L98.431,59.422L99.586,127.55L100.74,84.798L101.9,67.917L104.21,85.481L105.36,71.285L106.52,83.214L107.67,98.642L108.83,75.158L109.98,66.61L111.14,85.278L112.29,55.887L113.45,59.268L114.61,45.31L116.92,63.111L118.07,68.939L119.23,76.563L120.38,46.608L121.54,102.34L122.69,54.215L123.85,72.416L125,77.329L126.16,52.546L127.31,54.149L128.47,74.366L129.62,54.021L130.78,58.546L131.94,89.139L133.09,56.332L134.25,54.893L135.4,61.117L136.56,61.918L137.71,61.795L138.87,66.549L140.02,67.719L141.18,64.559L142.33,82.259L143.49,67.165L144.64,101.24L145.8,81.625L146.95,71.562L148.11,68.446L149.27,83.958L150.42,69.031L151.58,68.296L152.73,68.798L153.89,100.64L155.04,66.887L156.2,67.821L157.35,71.254L158.51,72.328L159.66,64.709L160.82,73.649L161.97,65.932L163.13,67.97L164.28,68.785L165.44,68.569L166.6,61.746L167.75,68.996L168.91,70.576L170.06,67.116L171.22,68.842L172.37,72.671L173.53,62.208L174.68,63.894L175.84,69.062L176.99,65.092L178.15,65.69L179.3,66.76L180.46,67.803L181.61,70.99L182.77,69.062L183.93,70.493L185.08,71.699L186.24,71.435L187.39,63.595L188.55,70.651L189.7,74.313L190.86,69.74L192.01,68.274L193.17,80.577L194.32,67.354L195.48,69.586L196.63,67.372L197.79,66.306L198.94,64.893L200.1,68.49L201.26,68.525L202.41,65.879L203.57,70.088L204.72,65.347L205.88,68.098L207.03,67.482L208.19,65.637L209.34,63.731L210.5,67.006L211.65,63.907L212.81,66.826L213.96,64.612L215.12,66.747L216.27,65.215L217.43,65.483L218.59,63.978L219.74,61.627L220.9,62.587L222.05,64.026L223.21,61.108L224.36,62.01L225.52,64.599L226.67,63.454L227.83,61.874L228.98,62.869L230.14,63.784L231.29,63.005L232.45,62.908L233.6,64.101L234.76,62.244L235.92,63.643L237.07,61.561L238.23,64.035L239.38,62.472L240.54,62.235L241.69,60.787L242.85,62.64L244,61.13L245.16,60.681L246.31,60.298L247.47,60.54L248.62,59.259L249.78,60.734L250.93,59.867L252.09,60.051L253.25,60.069L254.4,60.241L255.56,58.572L256.71,59.303L257.87,59.149L259.02,58.304L260.18,57.789L261.33,58.115L262.49,57.965L263.64,57.459L264.8,58.027L265.95,57.608L267.11,57.573L268.26,56.913L269.42,57.001L270.58,56.838L271.73,56.64L272.89,56.041L274.04,56.605L275.2,57.129L276.35,56.319L277.51,56.301L278.66,56.442L279.82,55.967L280.97,55.095L282.13,55.504L283.28,55.403L284.44,54.853L285.59,55.104L286.75,55.227L287.91,54.791L289.06,54.518L290.22,54.188L291.37,54.298L292.53,53.766L293.68,53.766L294.84,54.03L295.99,53.224L297.15,53.563L298.3,53.259L299.46,53.237L300.61,53.361L301.77,53.365L302.92,52.85L304.08,52.463L305.24,52.63L306.39,52.243L307.55,52.454L308.7,51.913L309.86,51.987L311.01,52.084L312.17,51.604L313.32,51.714L314.48,51.653L315.63,51.78L316.79,51.054L317.94,51.424L319.1,51.424L320.25,51.076L321.41,50.927L322.57,50.83L323.72,50.861L324.88,50.513L326.03,50.605L327.19,50.733L328.34,50.412L329.5,50.213L330.65,50.209L331.81,50.051L332.96,50.007L334.12,49.852L335.27,49.681L336.43,49.839L337.58,49.628L338.74,49.632L339.9,49.597L341.05,49.593L342.21,49.214L343.36,49.492L344.52,49.126L345.67,49.047L346.83,48.756L347.98,49.038L349.14,48.787L350.29,48.699L351.45,48.589L352.6,48.849L353.76,48.29L354.91,48.554L356.07,48.563L357.23,48.321L358.38,48.255L359.54,48.114L360.69,48.123L361.85,48.123L363,48.149L364.16,47.995L365.31,47.938L366.47,47.836L367.62,48.039L368.78,47.819L369.93,47.405L371.09,47.735L372.24,47.814L373.4,47.37L374.56,47.339L375.71,47.52L376.87,47.476L378.02,47.343L379.18,47.308L380.33,47.22L381.49,47.194L382.64,47.137L383.8,47.123L384.95,47.203L386.11,47.079L387.26,46.886L388.42,46.987L389.57,46.776L390.73,46.754L391.89,46.908L393.04,46.78L394.2,46.688L395.35,46.635L396.51,46.617L397.66,46.56L398.82,46.56L399.97,46.71L401.13,46.586L402.28,46.472L403.44,46.454L404.59,46.432L405.75,46.371L406.9,46.269L408.06,46.3L409.22,46.34L410.37,46.239L411.53,46.269L412.68,46.313L413.84,46.102L414.99,46.093L416.15,46.12L417.3,46.133L418.46,46.036L419.61,46.01L420.77,46.058L421.92,46.023L423.08,46.014L424.23,45.948L425.39,45.952L426.55,45.882L427.7,45.922L428.86,46.036L430.01,45.913L431.17,45.856L432.32,45.816L433.48,45.816L434.63,45.917L435.79,45.781L436.94,45.763L438.1,45.754L439.25,45.834L440.41,45.618L441.56,45.719L442.72,45.64L443.88,45.754L445.03,45.658L446.19,45.693L447.34,45.631L448.5,45.662L449.65,45.565L450.81,45.548L451.96,45.561L453.12,45.539L454.27,45.526L455.43,45.614L456.58,45.548L457.74,45.543L458.89,45.499L460.05,45.574L461.21,45.534L462.36,45.451L463.52,45.508L464.67,45.424L465.83,45.459L466.98,45.424L468.14,45.429L469.29,45.42L470.45,45.446L471.6,45.415L472.76,45.495L473.91,45.407L475.07,45.407L476.22,45.446L477.38,45.424L478.54,45.385L479.69,45.371L480.85,45.411L482,45.371L483.16,45.358L484.31,45.336L485.47,45.319L486.62,45.301L487.78,45.319L488.93,45.345L490.09,45.363L491.24,45.314L492.4,45.341L493.55,45.305L494.71,45.314L495.87,45.292L497.02,45.288L498.18,45.248L499.33,45.275L500.49,45.327L501.64,45.244L502.8,45.323L503.95,45.248L505.11,45.27L506.26,45.266L507.42,45.257L508.57,45.244L509.73,45.288L510.88,45.257L512.04,45.222L513.2,45.275L514.35,45.222L515.51,45.231L516.66,45.235L517.82,45.226L518.97,45.2L520.13,45.244L521.28,45.231L522.44,45.209L523.59,45.217L524.75,45.191L525.9,45.213L527.06,45.239L528.21,45.235L529.37,45.209L530.53,45.187L531.68,45.226L532.84,45.209L533.99,45.204L535.15,45.231L536.3,45.182L537.46,45.187L538.61,45.187L539.77,45.2L540.92,45.182L542.08,45.213L543.23,45.178L544.39,45.182L545.54,45.178L546.7,45.178L547.86,45.204L549.01,45.178L550.17,45.204L551.32,45.173L552.48,45.187L553.63,45.195L554.79,45.178L555.94,45.195L557.1,45.165L558.25,45.16L559.41,45.16L560.56,45.173L561.72,45.173L562.87,45.178L564.03,45.173L565.19,45.169L566.34,45.182L567.5,45.151L568.65,45.173L569.81,45.195L570.96,45.173L572.12,45.165L573.27,45.16L574.43,45.173L575.58,45.165L576.74,45.173L577.89,45.16L579.05,45.165L580.2,45.16L581.36,45.16L582.52,45.16L583.67,45.169L584.83,45.169L585.98,45.165L588.29,45.151L589.45,45.165L591.76,45.16L592.91,45.156L594.07,45.16L595.22,45.16L596.38,45.156L597.53,45.16L598.69,45.151L599.85,45.156L601,45.16L602.16,45.151L603.31,45.151L605.62,45.151L609.09,45.151L610.24,45.151L613.71,45.156L614.86,45.16L616.02,45.151L617.18,45.151L618.33,45.151L619.49,45.151L620.64,45.156L621.8,45.151L624.11,45.16L625.26,45.151L628.73,45.151L640.28,45.156L641.44,45.156L643.75,45.156L646.06,45.151L647.21,45.151L648.37,45.151L655.3,45.151L668.01,45.151L679.56,45.151L681.87,45.151L713.07,45.151L720,45.151" style="fill:none;stroke:#0000FF" />
</g>
</svg>
