<?xml version="1.0"?>
<!-- Generated by SVGo and Plotinum VG -->
<svg width="720pt" height="432pt" viewBox="0 0 720 432"
	xmlns="http://www.w3.org/2000/svg"
	xmlns:xlink="http://www.w3.org/1999/xlink">
<g transform="scale(1, -1) translate(0, -432)">
<path d="M0,0L720,0L720,432L0,432Z" style="fill:#FFFFFF" />
<text x="358.5" y="-420.45" transform="scale(1, -1)"
	style="font-family:Times;font-weight:normal;font-style:normal;font-size:12px"> </text>
<text x="385.56" y="-3.8613" transform="scale(1, -1)"
	style="font-family:Times;font-weight:normal;font-style:normal;font-size:12px">Costs</text>
<text x="75.305" y="-18.634" transform="scale(1, -1)"
	style="font-family:Times;font-weight:normal;font-style:normal;font-size:10px">0</text>
<text x="329.78" y="-18.634" transform="scale(1, -1)"
	style="font-family:Times;font-weight:normal;font-style:normal;font-size:10px">200</text>
<text x="589.25" y="-18.634" transform="scale(1, -1)"
	style="font-family:Times;font-weight:normal;font-style:normal;font-size:10px">400</text>
<path d="M77.805,28.263L77.805,36.263" style="fill:none;stroke:#000000;stroke-width:0.5" />
<path d="M337.28,28.263L337.28,36.263" style="fill:none;stroke:#000000;stroke-width:0.5" />
<path d="M596.75,28.263L596.75,36.263" style="fill:none;stroke:#000000;stroke-width:0.5" />
<path d="M207.54,32.263L207.54,36.263" style="fill:none;stroke:#000000;stroke-width:0.5" />
<path d="M467.01,32.263L467.01,36.263" style="fill:none;stroke:#000000;stroke-width:0.5" />
<path d="M77.805,36.263L720,36.263" style="fill:none;stroke:#000000;stroke-width:0.5" />
<g transform="rotate(90)">
<text x="152.55" y="11.555" transform="scale(1, -1)"
	style="font-family:Times;font-weight:normal;font-style:normal;font-size:12px">Number of trials (1000000 total)</text>
</g>
<text x="24.055" y="-89.874" transform="scale(1, -1)"
	style="font-family:Times;font-weight:normal;font-style:normal;font-size:10px">25000.00</text>
<text x="19.055" y="-233.66" transform="scale(1, -1)"
	style="font-family:Times;font-weight:normal;font-style:normal;font-size:10px">100000.00</text>
<text x="19.055" y="-377.46" transform="scale(1, -1)"
	style="font-family:Times;font-weight:normal;font-style:normal;font-size:10px">175000.00</text>
<path d="M64.055,93.08L72.055,93.08" style="fill:none;stroke:#000000;stroke-width:0.5" />
<path d="M64.055,236.87L72.055,236.87" style="fill:none;stroke:#000000;stroke-width:0.5" />
<path d="M64.055,380.66L72.055,380.66" style="fill:none;stroke:#000000;stroke-width:0.5" />
<path d="M68.055,164.98L72.055,164.98" style="fill:none;stroke:#000000;stroke-width:0.5" />
<path d="M68.055,308.77L72.055,308.77" style="fill:none;stroke:#000000;stroke-width:0.5" />
<path d="M72.055,45.151L72.055,416.58" style="fill:none;stroke:#000000;stroke-width:0.5" />
<path d="M77.805,416.58L111.54,69.766L112.83,76.684L114.13,52.251L115.43,63.217L116.73,52.304L118.02,63.016L119.32,62.74L120.62,55.512L121.92,77.454L123.21,66.016L124.51,52.049L125.81,52.109L127.1,62.454L128.4,51.775L129.7,66.632L131,62.023L132.29,55.136L133.59,66.471L134.89,77.295L136.19,48.535L137.48,70.554L140.08,48.451L141.38,69.442L142.67,66.266L143.97,51.877L145.27,45.514L146.56,110.81L147.86,63.388L149.16,57.669L150.46,53.982L151.75,54.206L153.05,62.107L154.35,51.194L155.65,59.46L156.94,64.73L158.24,59.329L159.54,60.129L160.84,49.122L162.13,50.096L163.43,50.466L164.73,58.545L166.03,50.474L167.32,52.211L168.62,52.926L169.92,52.368L171.21,52.705L172.51,56.273L173.81,61.833L175.11,53.917L176.4,54.22L177.7,53.351L179,53.859L180.3,55.884L181.59,68.44L182.89,65.758L184.19,55.506L185.49,54.327L186.78,58.562L188.08,56.31L189.38,54.636L190.68,59.707L191.97,57.68L193.27,56.373L194.57,55.757L195.86,54.789L197.16,54.387L198.46,57.617L199.76,56.287L201.05,55.086L202.35,56.446L203.65,56.643L204.95,52.837L206.24,56.49L207.54,52.828L208.84,53.593L210.14,55.681L211.43,55.447L212.73,53.959L214.03,52.051L215.33,56.488L216.62,56.77L217.92,54.482L219.22,53.018L220.51,52.542L221.81,54.201L223.11,52.734L224.41,53.503L225.7,54.252L227,53.694L228.3,53.785L229.6,51.632L230.89,51.854L232.19,51.237L233.49,52.851L234.79,51.714L236.08,51.288L237.38,52.295L238.68,52.437L239.98,51.394L241.27,51.033L242.57,52.703L243.87,50.778L245.16,51.332L246.46,51.831L247.76,51.191L249.06,50.41L250.35,52.303L251.65,52.653L252.95,51.336L254.25,50.888L255.54,51.058L256.84,50.769L258.14,50.362L259.44,50.679L260.73,50.809L262.03,50.838L263.33,50.615L264.63,49.778L265.92,49.68L267.22,49.85L268.52,50.276L269.81,49.701L271.11,49.626L272.41,49.632L273.71,49.365L275,49.294L276.3,49.321L277.6,49.572L278.9,49.48L280.19,49.164L281.49,49.254L282.79,48.83L284.09,48.896L285.38,49.201L286.68,49.074L287.98,48.79L289.28,48.568L290.57,48.679L291.87,48.637L293.17,48.319L294.46,48.384L295.76,48.593L297.06,48.351L298.36,48.163L299.65,48.165L300.95,47.918L302.25,48.142L303.55,48.043L304.84,47.914L306.14,47.857L307.44,47.822L308.74,47.682L310.03,47.536L311.33,47.768L312.63,47.632L313.92,47.467L315.22,47.579L316.52,47.617L317.82,47.216L319.11,47.404L320.41,47.492L321.71,47.427L323.01,47.232L324.3,47.299L325.6,47.136L326.9,47.07L328.2,47.061L329.49,47.047L330.79,46.975L332.09,46.894L333.39,46.944L334.68,46.769L335.98,46.72L337.28,46.656L338.57,46.679L339.87,46.662L341.17,46.631L342.47,46.576L343.76,46.566L345.06,46.553L346.36,46.595L347.66,46.459L348.95,46.444L350.25,46.511L351.55,46.378L352.85,46.254L354.14,46.273L355.44,46.396L356.74,46.267L358.04,46.304L359.33,46.269L360.63,46.156L361.93,46.214L363.22,46.167L364.52,46.1L365.82,46.098L367.12,46.098L368.41,46.081L369.71,46.022L371.01,45.962L372.31,46.081L373.6,45.966L374.9,45.978L376.2,45.909L377.5,45.911L378.79,45.878L380.09,45.805L381.39,45.884L382.69,45.84L383.98,45.734L385.28,45.813L386.58,45.843L387.87,45.742L389.17,45.734L390.47,45.728L391.77,45.711L393.06,45.707L394.36,45.704L395.66,45.659L396.96,45.604L398.25,45.669L399.55,45.677L400.85,45.633L402.15,45.567L403.44,45.59L404.74,45.562L406.04,45.516L407.34,45.579L408.63,45.504L409.93,45.483L411.23,45.552L412.52,45.506L413.82,45.5L415.12,45.518L416.42,45.495L417.71,45.519L419.01,45.496L420.31,45.464L421.61,45.437L422.9,45.45L424.2,45.422L425.5,45.393L426.8,45.397L428.09,45.416L429.39,45.387L430.69,45.401L431.99,45.395L433.28,45.353L434.58,45.357L435.88,45.372L437.17,45.37L438.47,45.353L439.77,45.362L441.07,45.316L442.36,45.33L443.66,45.326L444.96,45.307L446.26,45.337L447.55,45.326L448.85,45.318L450.15,45.322L451.45,45.293L452.74,45.287L454.04,45.332L455.34,45.286L456.64,45.266L457.93,45.295L459.23,45.276L460.53,45.259L461.82,45.272L463.12,45.263L464.42,45.27L465.72,45.263L467.01,45.247L468.31,45.234L469.61,45.261L470.91,45.224L472.2,45.253L473.5,45.224L474.8,45.23L476.1,45.238L477.39,45.232L478.69,45.215L479.99,45.226L481.28,45.226L482.58,45.224L483.88,45.207L485.18,45.22L486.47,45.218L487.77,45.22L489.07,45.22L490.37,45.222L491.66,45.205L492.96,45.222L494.26,45.194L495.56,45.194L496.85,45.203L498.15,45.205L499.45,45.201L500.75,45.192L502.04,45.195L503.34,45.192L504.64,45.194L505.93,45.199L507.23,45.188L508.53,45.184L509.83,45.197L511.12,45.165L512.42,45.184L513.72,45.188L515.02,45.176L516.31,45.188L517.61,45.19L518.91,45.192L520.21,45.182L521.5,45.169L522.8,45.186L524.1,45.171L525.4,45.176L526.69,45.174L527.99,45.174L529.29,45.182L530.58,45.167L531.88,45.174L533.18,45.176L534.48,45.167L535.77,45.171L537.07,45.172L538.37,45.163L539.67,45.159L540.96,45.161L542.26,45.165L543.56,45.165L544.86,45.163L546.15,45.161L547.45,45.165L548.75,45.159L550.05,45.159L551.34,45.163L552.64,45.161L553.94,45.159L555.23,45.153L556.53,45.161L557.83,45.163L559.13,45.157L560.42,45.159L561.72,45.155L563.02,45.161L564.32,45.155L565.61,45.169L566.91,45.151L568.21,45.157L569.51,45.161L570.8,45.153L572.1,45.163L573.4,45.157L574.7,45.155L575.99,45.155L577.29,45.155L578.59,45.155L579.88,45.155L581.18,45.157L582.48,45.153L583.78,45.151L585.07,45.159L586.37,45.155L587.67,45.157L588.97,45.153L590.26,45.153L591.56,45.151L592.86,45.159L594.16,45.155L595.45,45.151L596.75,45.151L599.35,45.153L600.64,45.153L601.94,45.155L603.24,45.153L604.53,45.153L605.83,45.159L607.13,45.153L609.72,45.153L611.02,45.151L612.32,45.151L613.62,45.153L616.21,45.155L618.81,45.151L624,45.151L627.89,45.151L631.78,45.153L639.56,45.153L644.75,45.151L653.83,45.151L669.4,45.151L674.59,45.151L684.97,45.151L691.46,45.151L720,45.151" style="fill:none;stroke:#0000FF" />
</g>
</svg>
