<?xml version="1.0"?>
<!-- Generated by SVGo and Plotinum VG -->
<svg width="720pt" height="432pt" viewBox="0 0 720 432"
	xmlns="http://www.w3.org/2000/svg"
	xmlns:xlink="http://www.w3.org/1999/xlink">
<g transform="scale(1, -1) translate(0, -432)">
<path d="M0,0L720,0L720,432L0,432Z" style="fill:#FFFFFF" />
<text x="358.5" y="-420.45" transform="scale(1, -1)"
	style="font-family:Times;font-weight:normal;font-style:normal;font-size:12px"> </text>
<text x="379.31" y="-3.8613" transform="scale(1, -1)"
	style="font-family:Times;font-weight:normal;font-style:normal;font-size:12px">Costs</text>
<text x="62.805" y="-18.634" transform="scale(1, -1)"
	style="font-family:Times;font-weight:normal;font-style:normal;font-size:10px">0</text>
<text x="331.16" y="-18.634" transform="scale(1, -1)"
	style="font-family:Times;font-weight:normal;font-style:normal;font-size:10px">200</text>
<text x="604.52" y="-18.634" transform="scale(1, -1)"
	style="font-family:Times;font-weight:normal;font-style:normal;font-size:10px">400</text>
<path d="M65.305,28.263L65.305,36.263" style="fill:none;stroke:#000000;stroke-width:0.5" />
<path d="M338.66,28.263L338.66,36.263" style="fill:none;stroke:#000000;stroke-width:0.5" />
<path d="M612.02,28.263L612.02,36.263" style="fill:none;stroke:#000000;stroke-width:0.5" />
<path d="M201.98,32.263L201.98,36.263" style="fill:none;stroke:#000000;stroke-width:0.5" />
<path d="M475.34,32.263L475.34,36.263" style="fill:none;stroke:#000000;stroke-width:0.5" />
<path d="M65.305,36.263L720,36.263" style="fill:none;stroke:#000000;stroke-width:0.5" />
<g transform="rotate(90)">
<text x="152.51" y="11.555" transform="scale(1, -1)"
	style="font-family:Times;font-weight:normal;font-style:normal;font-size:12px">Number of trials (1000000 total)</text>
</g>
<text x="24.055" y="-114.95" transform="scale(1, -1)"
	style="font-family:Times;font-weight:normal;font-style:normal;font-size:10px">40000</text>
<text x="19.055" y="-260.95" transform="scale(1, -1)"
	style="font-family:Times;font-weight:normal;font-style:normal;font-size:10px">120000</text>
<text x="19.055" y="-406.96" transform="scale(1, -1)"
	style="font-family:Times;font-weight:normal;font-style:normal;font-size:10px">200000</text>
<path d="M51.555,118.15L59.555,118.15" style="fill:none;stroke:#000000;stroke-width:0.5" />
<path d="M51.555,264.16L59.555,264.16" style="fill:none;stroke:#000000;stroke-width:0.5" />
<path d="M51.555,410.16L59.555,410.16" style="fill:none;stroke:#000000;stroke-width:0.5" />
<path d="M55.555,191.15L59.555,191.15" style="fill:none;stroke:#000000;stroke-width:0.5" />
<path d="M55.555,337.16L59.555,337.16" style="fill:none;stroke:#000000;stroke-width:0.5" />
<path d="M59.555,45.151L59.555,416.5" style="fill:none;stroke:#000000;stroke-width:0.5" />
<path d="M65.305,416.5L100.84,74.245L102.21,66.121L103.57,51.935L104.94,52.015L107.68,84.361L111.78,83.843L113.14,55.262L114.51,67.132L115.88,62.029L119.98,99.843L121.34,69.534L122.71,48.632L124.08,55.195L125.44,66.676L126.81,48.478L128.18,78.21L130.91,52.039L133.64,77.924L135.01,71.011L136.38,45.573L137.74,94.18L139.11,73.77L140.48,46.093L141.85,56.306L143.21,51.687L144.58,50.992L145.95,49.143L147.31,59.173L148.68,77.67L150.05,71.135L151.41,52.087L152.78,46.67L154.15,49.955L155.51,50.729L156.88,55.815L158.25,50.804L159.61,48.626L160.98,50.316L162.35,55.034L163.71,51.658L165.08,48.858L166.45,79.493L167.81,52.718L169.18,52.269L170.55,57.481L171.91,51.172L173.28,52.565L174.65,69.003L176.02,56.771L177.38,53.837L178.75,49.904L180.12,58.164L181.48,54.883L182.85,54.684L184.22,60.36L185.58,56.396L186.95,52.99L188.32,58.547L189.68,55.47L191.05,52.713L192.42,57.673L193.78,58.429L195.15,53.651L196.52,55.81L197.88,56.686L199.25,52.798L200.62,53.098L201.98,53.642L203.35,56.678L204.72,54.039L206.08,54.744L207.45,54.667L208.82,54.207L210.19,52.791L211.55,56.151L212.92,53.671L214.29,50.53L215.65,51.731L217.02,54.799L218.39,51.847L219.75,51.612L221.12,57.204L222.49,55.651L223.85,51.563L225.22,51.333L226.59,51.422L227.95,49.154L229.32,53.512L230.69,51.433L232.05,50.47L233.42,50.909L234.79,52.364L236.15,51.117L237.52,49.858L238.89,53.176L240.25,52.046L241.62,49.093L242.99,51.599L244.35,50.762L245.72,49.577L247.09,51.108L248.46,51.424L249.82,51.242L251.19,51.222L252.56,50.249L253.92,50.103L255.29,49.5L256.66,50.061L258.02,51.282L259.39,50.053L260.76,49.696L262.12,49.594L263.49,49.351L264.86,49.13L266.22,49.718L267.59,49.595L268.96,49.311L270.32,49.125L271.69,49.572L273.06,48.909L274.42,48.61L275.79,50.077L277.16,49.223L278.52,48.562L279.89,48.869L281.26,48.778L282.63,48.44L283.99,48.486L285.36,48.847L286.73,48.274L288.09,47.962L289.46,48.63L290.83,48.207L292.19,47.898L293.56,48.418L294.93,48.274L296.29,48.017L297.66,48.05L299.03,48.002L300.39,47.416L301.76,47.692L303.13,47.723L304.49,47.621L305.86,47.581L307.23,47.577L308.59,47.551L309.96,47.168L311.33,47.223L312.69,47.661L314.06,47.059L315.43,47.101L316.8,47.108L318.16,47.199L319.53,46.969L320.9,47.124L322.26,47.028L323.63,47.09L325,46.823L326.36,46.964L327.73,46.759L329.1,46.639L330.46,46.777L331.83,46.841L333.2,46.507L334.56,46.697L335.93,46.546L337.3,46.431L338.66,46.485L340.03,46.531L341.4,46.442L342.76,46.414L344.13,46.427L345.5,46.418L346.86,46.246L348.23,46.478L349.6,46.358L350.97,46.237L352.33,46.201L353.7,46.303L355.07,46.193L356.43,46.159L357.8,46.186L359.17,46.15L360.53,46.031L361.9,46.022L363.27,46.022L364.63,46.053L366,45.993L367.37,45.925L368.73,45.927L370.1,45.898L371.47,45.927L372.83,45.923L374.2,45.847L375.57,45.85L376.93,45.832L378.3,45.827L379.67,45.763L381.03,45.801L382.4,45.774L383.77,45.717L385.13,45.776L386.5,45.741L387.87,45.704L389.24,45.679L390.6,45.686L391.97,45.619L393.34,45.613L394.7,45.602L396.07,45.591L397.44,45.551L398.8,45.573L400.17,45.602L401.54,45.577L402.9,45.487L404.27,45.564L405.64,45.482L407,45.478L408.37,45.511L409.74,45.451L411.1,45.412L412.47,45.438L413.84,45.5L415.2,45.451L416.57,45.458L417.94,45.484L419.3,45.409L420.67,45.389L422.04,45.436L423.41,45.411L424.77,45.407L426.14,45.385L427.51,45.359L428.87,45.369L430.24,45.341L431.61,45.392L432.97,45.37L434.34,45.339L435.71,45.31L437.07,45.325L438.44,45.288L439.81,45.31L441.17,45.283L442.54,45.301L443.91,45.305L445.27,45.31L446.64,45.319L448.01,45.312L449.37,45.294L450.74,45.275L452.11,45.288L453.47,45.281L454.84,45.263L456.21,45.279L457.58,45.275L458.94,45.279L460.31,45.274L461.68,45.261L463.04,45.25L464.41,45.25L465.78,45.246L467.14,45.263L468.51,45.268L469.88,45.23L471.24,45.21L472.61,45.215L473.98,45.212L475.34,45.226L476.71,45.208L478.08,45.213L479.44,45.224L480.81,45.232L482.18,45.215L483.54,45.201L484.91,45.21L486.28,45.233L487.64,45.199L489.01,45.219L490.38,45.197L491.75,45.193L493.11,45.186L494.48,45.186L495.85,45.215L497.21,45.21L498.58,45.184L499.95,45.199L501.31,45.193L502.68,45.197L504.05,45.177L505.41,45.184L506.78,45.188L508.15,45.186L509.51,45.171L510.88,45.173L512.25,45.184L513.61,45.177L514.98,45.175L516.35,45.182L517.71,45.175L519.08,45.17L520.45,45.181L521.81,45.173L523.18,45.17L524.55,45.168L525.91,45.164L527.28,45.182L528.65,45.166L530.02,45.171L531.38,45.17L532.75,45.166L534.12,45.166L535.48,45.175L536.85,45.16L538.22,45.17L539.58,45.159L540.95,45.164L542.32,45.159L543.68,45.171L545.05,45.16L546.42,45.159L547.78,45.155L549.15,45.164L550.52,45.164L551.88,45.159L553.25,45.166L554.62,45.164L555.98,45.16L557.35,45.159L558.72,45.157L560.08,45.153L561.45,45.157L562.82,45.155L564.19,45.157L565.55,45.157L566.92,45.155L568.29,45.168L569.65,45.155L571.02,45.155L572.39,45.153L573.75,45.155L575.12,45.153L576.49,45.16L577.85,45.157L579.22,45.157L580.59,45.157L581.95,45.159L583.32,45.159L584.69,45.153L586.05,45.155L587.42,45.153L590.15,45.151L591.52,45.155L592.89,45.151L594.25,45.157L595.62,45.151L596.99,45.157L598.36,45.151L601.09,45.151L602.46,45.151L603.82,45.151L605.19,45.151L606.56,45.151L609.29,45.151L610.66,45.151L612.02,45.151L616.12,45.151L617.49,45.153L620.22,45.151L621.59,45.151L622.96,45.151L627.06,45.151L628.42,45.151L631.16,45.153L633.89,45.153L636.63,45.153L639.36,45.151L640.73,45.151L643.46,45.151L646.19,45.153L662.59,45.151L677.63,45.151L681.73,45.151L703.6,45.151L710.43,45.151L720,45.151" style="fill:none;stroke:#0000FF" />
</g>
</svg>
