<?xml version="1.0"?>
<!-- Generated by SVGo and Plotinum VG -->
<svg width="720pt" height="432pt" viewBox="0 0 720 432"
	xmlns="http://www.w3.org/2000/svg"
	xmlns:xlink="http://www.w3.org/1999/xlink">
<g transform="scale(1, -1) translate(0, -432)">
<path d="M0,0L720,0L720,432L0,432Z" style="fill:#FFFFFF" />
<text x="358.5" y="-420.45" transform="scale(1, -1)"
	style="font-family:Times;font-weight:normal;font-style:normal;font-size:12px"> </text>
<text x="379.31" y="-3.8613" transform="scale(1, -1)"
	style="font-family:Times;font-weight:normal;font-style:normal;font-size:12px">Costs</text>
<text x="62.805" y="-18.634" transform="scale(1, -1)"
	style="font-family:Times;font-weight:normal;font-style:normal;font-size:10px">0</text>
<text x="226.54" y="-18.634" transform="scale(1, -1)"
	style="font-family:Times;font-weight:normal;font-style:normal;font-size:10px">100</text>
<text x="395.28" y="-18.634" transform="scale(1, -1)"
	style="font-family:Times;font-weight:normal;font-style:normal;font-size:10px">200</text>
<text x="564.01" y="-18.634" transform="scale(1, -1)"
	style="font-family:Times;font-weight:normal;font-style:normal;font-size:10px">300</text>
<path d="M65.305,28.263L65.305,36.263" style="fill:none;stroke:#000000;stroke-width:0.5" />
<path d="M234.04,28.263L234.04,36.263" style="fill:none;stroke:#000000;stroke-width:0.5" />
<path d="M402.78,28.263L402.78,36.263" style="fill:none;stroke:#000000;stroke-width:0.5" />
<path d="M571.51,28.263L571.51,36.263" style="fill:none;stroke:#000000;stroke-width:0.5" />
<path d="M99.052,32.263L99.052,36.263" style="fill:none;stroke:#000000;stroke-width:0.5" />
<path d="M132.8,32.263L132.8,36.263" style="fill:none;stroke:#000000;stroke-width:0.5" />
<path d="M166.55,32.263L166.55,36.263" style="fill:none;stroke:#000000;stroke-width:0.5" />
<path d="M200.29,32.263L200.29,36.263" style="fill:none;stroke:#000000;stroke-width:0.5" />
<path d="M267.79,32.263L267.79,36.263" style="fill:none;stroke:#000000;stroke-width:0.5" />
<path d="M301.53,32.263L301.53,36.263" style="fill:none;stroke:#000000;stroke-width:0.5" />
<path d="M335.28,32.263L335.28,36.263" style="fill:none;stroke:#000000;stroke-width:0.5" />
<path d="M369.03,32.263L369.03,36.263" style="fill:none;stroke:#000000;stroke-width:0.5" />
<path d="M436.52,32.263L436.52,36.263" style="fill:none;stroke:#000000;stroke-width:0.5" />
<path d="M470.27,32.263L470.27,36.263" style="fill:none;stroke:#000000;stroke-width:0.5" />
<path d="M504.02,32.263L504.02,36.263" style="fill:none;stroke:#000000;stroke-width:0.5" />
<path d="M537.77,32.263L537.77,36.263" style="fill:none;stroke:#000000;stroke-width:0.5" />
<path d="M605.26,32.263L605.26,36.263" style="fill:none;stroke:#000000;stroke-width:0.5" />
<path d="M639.01,32.263L639.01,36.263" style="fill:none;stroke:#000000;stroke-width:0.5" />
<path d="M672.75,32.263L672.75,36.263" style="fill:none;stroke:#000000;stroke-width:0.5" />
<path d="M706.5,32.263L706.5,36.263" style="fill:none;stroke:#000000;stroke-width:0.5" />
<path d="M65.305,36.263L720,36.263" style="fill:none;stroke:#000000;stroke-width:0.5" />
<g transform="rotate(90)">
<text x="150.54" y="11.555" transform="scale(1, -1)"
	style="font-family:Times;font-weight:normal;font-style:normal;font-size:12px">Number of trials (1000000 total)</text>
</g>
<text x="19.055" y="-114.95" transform="scale(1, -1)"
	style="font-family:Times;font-weight:normal;font-style:normal;font-size:10px">100000</text>
<text x="19.055" y="-260.95" transform="scale(1, -1)"
	style="font-family:Times;font-weight:normal;font-style:normal;font-size:10px">300000</text>
<text x="19.055" y="-406.96" transform="scale(1, -1)"
	style="font-family:Times;font-weight:normal;font-style:normal;font-size:10px">500000</text>
<path d="M51.555,118.15L59.555,118.15" style="fill:none;stroke:#000000;stroke-width:0.5" />
<path d="M51.555,264.16L59.555,264.16" style="fill:none;stroke:#000000;stroke-width:0.5" />
<path d="M51.555,410.16L59.555,410.16" style="fill:none;stroke:#000000;stroke-width:0.5" />
<path d="M55.555,191.15L59.555,191.15" style="fill:none;stroke:#000000;stroke-width:0.5" />
<path d="M55.555,337.16L59.555,337.16" style="fill:none;stroke:#000000;stroke-width:0.5" />
<path d="M59.555,45.151L59.555,412.56" style="fill:none;stroke:#000000;stroke-width:0.5" />
<path d="M65.305,412.56L110.86,52.047L114.24,55.371L117.61,48.48L120.99,58.899L122.67,62.394L129.42,48.542L132.8,72.721L134.49,51.911L136.17,51.883L139.55,48.404L142.92,52.142L147.99,52.129L149.67,69.829L151.36,52.107L154.73,69.941L156.42,65.984L159.8,55.57L163.17,52.285L166.55,45.494L168.23,63.732L169.92,45.539L171.61,45.646L173.3,45.265L174.98,45.383L176.67,45.273L178.36,46.343L180.05,45.494L181.73,46.062L183.42,45.342L185.11,52.683L186.79,45.373L188.48,46.437L190.17,53.818L191.86,45.97L193.54,45.573L195.23,45.816L196.92,45.835L198.61,46.097L200.29,64.747L201.98,46.222L203.67,46.743L205.36,47.206L207.04,47.186L208.73,46.068L210.42,46.656L212.1,47.576L213.79,46.83L215.48,46.213L217.17,48.212L218.85,46.746L220.54,46.384L222.23,47.171L223.92,48.17L225.6,47.018L227.29,46.886L228.98,45.669L230.67,46.212L232.35,46.353L234.04,46.479L235.73,47.163L237.42,46.254L239.1,47.595L240.79,47.349L242.48,46.225L244.16,46.23L245.85,47.896L247.54,46.292L249.23,46.546L250.91,46.163L252.6,47.478L254.29,46.096L255.98,46.097L257.66,47.815L259.35,46.482L261.04,45.421L262.73,45.968L264.41,45.474L266.1,45.606L267.79,46.968L269.48,46.078L271.16,45.794L272.85,45.53L274.54,46.552L276.22,45.819L277.91,45.657L279.6,46.095L281.29,45.769L282.97,45.816L284.66,46.593L286.35,45.697L288.04,45.83L289.72,46.428L291.41,46.537L293.1,45.756L294.79,45.987L296.47,45.474L298.16,45.816L299.85,45.347L301.53,45.494L303.22,46.183L304.91,45.42L306.6,45.532L308.28,45.543L309.97,45.597L311.66,45.397L313.35,45.502L315.03,45.504L316.72,45.467L318.41,45.377L320.1,45.77L321.78,45.395L323.47,45.446L325.16,45.78L326.85,45.435L328.53,45.346L330.22,45.472L331.91,45.381L333.59,45.343L335.28,45.421L336.97,45.435L338.66,45.353L340.34,45.394L342.03,45.431L343.72,45.408L345.41,45.314L347.09,45.407L348.78,45.405L350.47,45.316L352.16,45.397L353.84,45.302L355.53,45.31L357.22,45.333L358.91,45.373L360.59,45.332L362.28,45.318L363.97,45.27L365.65,45.324L367.34,45.269L369.03,45.305L370.72,45.324L372.4,45.259L374.09,45.3L375.78,45.311L377.47,45.311L379.15,45.262L380.84,45.305L382.53,45.258L384.22,45.25L385.9,45.232L387.59,45.279L389.28,45.222L390.96,45.189L392.65,45.276L394.34,45.238L396.03,45.195L397.71,45.225L399.4,45.197L401.09,45.206L402.78,45.208L404.46,45.206L406.15,45.197L407.84,45.192L409.53,45.223L411.21,45.194L412.9,45.182L414.59,45.226L416.28,45.2L417.96,45.19L419.65,45.197L421.34,45.181L423.02,45.193L424.71,45.179L426.4,45.186L428.09,45.194L429.77,45.175L431.46,45.185L433.15,45.178L434.84,45.176L436.52,45.173L438.21,45.174L439.9,45.181L441.59,45.173L443.27,45.173L444.96,45.183L446.65,45.175L448.34,45.173L450.02,45.173L451.71,45.17L453.4,45.17L455.08,45.167L456.77,45.165L458.46,45.167L460.15,45.173L461.83,45.167L463.52,45.163L465.21,45.162L466.9,45.165L468.58,45.166L470.27,45.165L471.96,45.164L473.65,45.16L475.33,45.159L477.02,45.163L478.71,45.166L480.4,45.156L482.08,45.162L483.77,45.164L485.46,45.158L487.14,45.156L488.83,45.156L490.52,45.156L492.21,45.154L493.89,45.157L495.58,45.156L497.27,45.157L498.96,45.158L500.64,45.16L502.33,45.154L504.02,45.156L505.71,45.153L507.39,45.156L509.08,45.155L510.77,45.152L512.45,45.156L514.14,45.158L515.83,45.154L517.52,45.156L519.2,45.154L520.89,45.154L522.58,45.152L524.27,45.151L525.95,45.152L527.64,45.154L529.33,45.153L531.02,45.151L532.7,45.152L534.39,45.151L536.08,45.152L537.77,45.154L539.45,45.152L541.14,45.154L542.83,45.153L546.2,45.151L547.89,45.154L549.58,45.153L551.26,45.152L554.64,45.151L558.01,45.153L559.7,45.151L561.39,45.151L563.08,45.152L564.76,45.151L568.14,45.151L569.83,45.152L571.51,45.151L573.2,45.152L574.89,45.153L581.64,45.151L586.7,45.153L590.07,45.151L600.2,45.151L601.88,45.151L613.7,45.151L625.51,45.151L627.2,45.151L628.88,45.152L659.26,45.151L662.63,45.151L686.25,45.151L720,45.151" style="fill:none;stroke:#0000FF" />
</g>
</svg>
