<?xml version="1.0"?>
<!-- Generated by SVGo and Plotinum VG -->
<svg width="720pt" height="432pt" viewBox="0 0 720 432"
	xmlns="http://www.w3.org/2000/svg"
	xmlns:xlink="http://www.w3.org/1999/xlink">
<g transform="scale(1, -1) translate(0, -432)">
<path d="M0,0L720,0L720,432L0,432Z" style="fill:#FFFFFF" />
<text x="358.5" y="-420.45" transform="scale(1, -1)"
	style="font-family:Times;font-weight:normal;font-style:normal;font-size:12px"> </text>
<text x="379.31" y="-3.8613" transform="scale(1, -1)"
	style="font-family:Times;font-weight:normal;font-style:normal;font-size:12px">Costs</text>
<text x="62.805" y="-18.634" transform="scale(1, -1)"
	style="font-family:Times;font-weight:normal;font-style:normal;font-size:10px">0</text>
<text x="376.39" y="-18.634" transform="scale(1, -1)"
	style="font-family:Times;font-weight:normal;font-style:normal;font-size:10px">200</text>
<text x="694.98" y="-18.634" transform="scale(1, -1)"
	style="font-family:Times;font-weight:normal;font-style:normal;font-size:10px">400</text>
<path d="M65.305,28.263L65.305,36.263" style="fill:none;stroke:#000000;stroke-width:0.5" />
<path d="M383.89,28.263L383.89,36.263" style="fill:none;stroke:#000000;stroke-width:0.5" />
<path d="M702.48,28.263L702.48,36.263" style="fill:none;stroke:#000000;stroke-width:0.5" />
<path d="M224.6,32.263L224.6,36.263" style="fill:none;stroke:#000000;stroke-width:0.5" />
<path d="M543.18,32.263L543.18,36.263" style="fill:none;stroke:#000000;stroke-width:0.5" />
<path d="M65.305,36.263L720,36.263" style="fill:none;stroke:#000000;stroke-width:0.5" />
<g transform="rotate(90)">
<text x="152.55" y="11.555" transform="scale(1, -1)"
	style="font-family:Times;font-weight:normal;font-style:normal;font-size:12px">Number of trials (1000000 total)</text>
</g>
<text x="24.055" y="-88.493" transform="scale(1, -1)"
	style="font-family:Times;font-weight:normal;font-style:normal;font-size:10px">50000</text>
<text x="19.055" y="-228.14" transform="scale(1, -1)"
	style="font-family:Times;font-weight:normal;font-style:normal;font-size:10px">200000</text>
<text x="19.055" y="-367.78" transform="scale(1, -1)"
	style="font-family:Times;font-weight:normal;font-style:normal;font-size:10px">350000</text>
<path d="M51.555,91.699L59.555,91.699" style="fill:none;stroke:#000000;stroke-width:0.5" />
<path d="M51.555,231.34L59.555,231.34" style="fill:none;stroke:#000000;stroke-width:0.5" />
<path d="M51.555,370.99L59.555,370.99" style="fill:none;stroke:#000000;stroke-width:0.5" />
<path d="M55.555,161.52L59.555,161.52" style="fill:none;stroke:#000000;stroke-width:0.5" />
<path d="M55.555,301.17L59.555,301.17" style="fill:none;stroke:#000000;stroke-width:0.5" />
<path d="M59.555,45.151L59.555,416.58" style="fill:none;stroke:#000000;stroke-width:0.5" />
<path d="M65.305,416.58L106.72,48.597L109.91,62.627L111.5,58.73L114.69,65.937L116.28,48.67L117.87,55.948L119.46,70.245L121.06,48.501L122.65,66.337L124.24,55.568L129.02,59.278L130.61,52.409L132.21,58.946L133.8,48.481L135.39,55.704L138.58,66.375L143.36,66.554L144.95,59.19L149.73,70.21L151.32,45.319L152.92,45.289L154.51,45.357L156.1,45.983L157.69,45.285L159.29,49.511L160.88,46.297L162.47,67.103L164.07,64.806L165.66,46.509L167.25,46.809L168.85,47.983L170.44,46.094L172.03,47.013L173.62,47.21L175.22,47.007L176.81,48.016L178.4,47.497L180,46.782L181.59,54.582L183.18,47.558L184.77,47.678L186.37,47.283L187.96,59.142L189.55,48.584L191.15,47.112L192.74,62.701L194.33,62.028L195.93,48.465L197.52,47.827L199.11,48.292L200.7,46.958L202.3,48.454L203.89,48.034L205.48,46.577L207.08,48.595L208.67,49.206L210.26,46.987L211.85,47.52L213.45,48.403L215.04,47.01L216.63,49.411L218.23,47.924L219.82,47.415L221.41,47.223L223.01,48.153L224.6,45.397L226.19,46.749L227.78,47.955L229.38,47.595L230.97,46.624L232.56,46.865L234.16,47.194L235.75,47.432L237.34,48.088L238.93,47.357L240.53,47.809L242.12,48.744L243.71,47.532L245.31,47.039L246.9,48.796L248.49,48.272L250.08,46.681L251.68,47.342L253.27,46.368L254.86,46.491L256.46,46.579L258.05,47.005L259.64,47.275L261.24,48.386L262.83,46.389L264.42,46.09L266.01,47.731L267.61,47.078L269.2,45.728L270.79,46.56L272.39,47.778L273.98,46.378L275.57,45.883L277.16,46.575L278.76,46.975L280.35,46.148L281.94,45.897L283.54,45.726L285.13,46.422L286.72,46.625L288.32,45.867L289.91,46.47L291.5,47.362L293.09,46.557L294.69,45.777L296.28,45.868L297.87,45.773L299.47,45.736L301.06,45.826L302.65,45.759L304.24,45.91L305.84,45.849L307.43,45.823L309.02,45.881L310.62,46.053L312.21,45.772L313.8,45.765L315.4,46.196L316.99,46.151L318.58,45.694L320.17,45.725L321.77,46.234L323.36,45.59L324.95,45.731L326.55,45.729L328.14,45.591L329.73,45.621L331.32,45.657L332.92,45.538L334.51,45.602L336.1,45.624L337.7,45.579L339.29,45.666L340.88,45.624L342.47,45.492L344.07,45.585L345.66,45.702L347.25,45.419L348.85,45.432L350.44,45.536L352.03,45.454L353.63,45.357L355.22,45.503L356.81,45.493L358.4,45.507L360,45.435L361.59,45.396L363.18,45.451L364.78,45.462L366.37,45.423L367.96,45.381L369.55,45.499L371.15,45.493L372.74,45.352L374.33,45.357L375.93,45.389L377.52,45.36L379.11,45.337L380.71,45.338L382.3,45.324L383.89,45.329L385.48,45.315L387.08,45.283L388.67,45.388L390.26,45.347L391.86,45.269L393.45,45.284L395.04,45.365L396.63,45.269L398.23,45.253L399.82,45.307L401.41,45.29L403.01,45.277L404.6,45.255L406.19,45.277L407.79,45.256L409.38,45.263L410.97,45.232L412.56,45.253L414.16,45.271L415.75,45.263L417.34,45.242L418.94,45.249L420.53,45.25L422.12,45.217L423.71,45.218L425.31,45.219L426.9,45.219L428.49,45.221L430.09,45.219L431.68,45.217L433.27,45.225L434.87,45.213L436.46,45.217L438.05,45.215L439.64,45.19L441.24,45.199L442.83,45.204L444.42,45.213L446.02,45.201L447.61,45.188L449.2,45.2L450.79,45.187L452.39,45.184L453.98,45.189L455.57,45.187L457.17,45.185L458.76,45.189L460.35,45.19L461.94,45.194L463.54,45.188L465.13,45.19L466.72,45.187L468.32,45.176L469.91,45.177L471.5,45.168L473.1,45.182L474.69,45.175L476.28,45.162L477.87,45.177L479.47,45.177L481.06,45.169L482.65,45.167L484.25,45.17L485.84,45.168L487.43,45.172L489.02,45.166L490.62,45.17L492.21,45.167L493.8,45.169L495.4,45.167L496.99,45.167L498.58,45.163L500.18,45.166L501.77,45.169L503.36,45.16L504.95,45.163L506.55,45.156L508.14,45.163L509.73,45.161L511.33,45.169L512.92,45.159L514.51,45.16L516.1,45.162L517.7,45.157L519.29,45.155L520.88,45.161L522.48,45.155L524.07,45.16L525.66,45.155L527.26,45.162L528.85,45.156L530.44,45.158L532.03,45.158L533.63,45.155L535.22,45.152L536.81,45.156L538.41,45.156L540,45.153L541.59,45.156L543.18,45.154L544.78,45.153L546.37,45.153L547.96,45.154L549.56,45.156L551.15,45.157L552.74,45.154L554.34,45.157L555.93,45.151L559.11,45.157L560.71,45.154L562.3,45.154L563.89,45.154L565.49,45.152L567.08,45.156L570.26,45.152L571.86,45.151L573.45,45.152L575.04,45.152L576.64,45.153L578.23,45.153L579.82,45.151L583.01,45.151L586.19,45.153L587.79,45.152L589.38,45.154L590.97,45.151L592.57,45.153L595.75,45.151L597.34,45.151L598.94,45.152L600.53,45.152L605.31,45.151L606.9,45.154L608.49,45.151L614.87,45.152L616.46,45.151L618.05,45.151L619.65,45.151L627.61,45.152L630.8,45.151L633.98,45.151L635.57,45.151L657.88,45.151L661.06,45.151L664.25,45.151L697.7,45.152L702.48,45.151L704.07,45.151L720,45.151" style="fill:none;stroke:#0000FF" />
</g>
</svg>
