<?xml version="1.0"?>
<!-- Generated by SVGo and Plotinum VG -->
<svg width="720pt" height="432pt" viewBox="0 0 720 432"
	xmlns="http://www.w3.org/2000/svg"
	xmlns:xlink="http://www.w3.org/1999/xlink">
<g transform="scale(1, -1) translate(0, -432)">
<path d="M0,0L720,0L720,432L0,432Z" style="fill:#FFFFFF" />
<text x="358.5" y="-420.45" transform="scale(1, -1)"
	style="font-family:Times;font-weight:normal;font-style:normal;font-size:12px"> </text>
<text x="376.81" y="-3.8613" transform="scale(1, -1)"
	style="font-family:Times;font-weight:normal;font-style:normal;font-size:12px">Costs</text>
<text x="57.805" y="-18.634" transform="scale(1, -1)"
	style="font-family:Times;font-weight:normal;font-style:normal;font-size:10px">0</text>
<text x="344.71" y="-18.634" transform="scale(1, -1)"
	style="font-family:Times;font-weight:normal;font-style:normal;font-size:10px">300</text>
<text x="636.61" y="-18.634" transform="scale(1, -1)"
	style="font-family:Times;font-weight:normal;font-style:normal;font-size:10px">600</text>
<path d="M60.305,28.263L60.305,36.263" style="fill:none;stroke:#000000;stroke-width:0.5" />
<path d="M352.21,28.263L352.21,36.263" style="fill:none;stroke:#000000;stroke-width:0.5" />
<path d="M644.11,28.263L644.11,36.263" style="fill:none;stroke:#000000;stroke-width:0.5" />
<path d="M157.6,32.263L157.6,36.263" style="fill:none;stroke:#000000;stroke-width:0.5" />
<path d="M254.91,32.263L254.91,36.263" style="fill:none;stroke:#000000;stroke-width:0.5" />
<path d="M449.51,32.263L449.51,36.263" style="fill:none;stroke:#000000;stroke-width:0.5" />
<path d="M546.81,32.263L546.81,36.263" style="fill:none;stroke:#000000;stroke-width:0.5" />
<path d="M60.305,36.263L720,36.263" style="fill:none;stroke:#000000;stroke-width:0.5" />
<g transform="rotate(90)">
<text x="152.55" y="11.555" transform="scale(1, -1)"
	style="font-family:Times;font-weight:normal;font-style:normal;font-size:12px">Number of trials (1000000 total)</text>
</g>
<text x="24.055" y="-89.118" transform="scale(1, -1)"
	style="font-family:Times;font-weight:normal;font-style:normal;font-size:10px">2000</text>
<text x="24.055" y="-230.71" transform="scale(1, -1)"
	style="font-family:Times;font-weight:normal;font-style:normal;font-size:10px">8000</text>
<text x="19.055" y="-372.29" transform="scale(1, -1)"
	style="font-family:Times;font-weight:normal;font-style:normal;font-size:10px">14000</text>
<path d="M46.555,92.324L54.555,92.324" style="fill:none;stroke:#000000;stroke-width:0.5" />
<path d="M46.555,233.91L54.555,233.91" style="fill:none;stroke:#000000;stroke-width:0.5" />
<path d="M46.555,375.5L54.555,375.5" style="fill:none;stroke:#000000;stroke-width:0.5" />
<path d="M50.555,163.12L54.555,163.12" style="fill:none;stroke:#000000;stroke-width:0.5" />
<path d="M50.555,304.71L54.555,304.71" style="fill:none;stroke:#000000;stroke-width:0.5" />
<path d="M54.555,45.151L54.555,416.58" style="fill:none;stroke:#000000;stroke-width:0.5" />
<path d="M60.305,416.58L83.657,60.018L85.603,83.475L86.576,66.649L87.549,122.18L88.522,160.05L90.468,104.83L91.441,109.01L92.414,126.92L93.387,186.27L94.36,167.88L95.333,48.62L96.306,82.129L97.279,88.855L98.252,69.009L99.225,74.106L100.2,116.04L101.17,48.408L102.14,117.9L103.12,122.84L104.09,59.098L105.06,102.19L107.01,52.018L107.98,69.245L108.95,50.083L109.93,60.16L110.9,48.502L111.87,96.453L112.85,58.437L113.82,65.823L114.79,188.44L115.77,79.557L116.74,83.333L117.71,123.59L118.68,105.63L119.66,109.57L120.63,147.71L121.6,176.12L122.58,106.53L123.55,97.917L124.52,118.49L125.5,133.69L126.47,116.79L127.44,135.72L128.41,111.65L129.39,99.922L130.36,143.7L131.33,120.05L132.31,158.61L133.28,133.5L134.25,107.78L135.23,121.09L136.2,131.97L137.17,110.28L138.14,121.73L139.12,121.7L140.09,105.8L141.06,94.896L142.04,129.04L143.01,132.3L143.98,95.156L144.96,145.99L145.93,129.59L146.9,127.11L147.87,157.97L148.85,155.73L149.82,121.42L150.79,130.36L151.77,147.9L152.74,130.1L153.71,144.22L154.69,168.5L155.66,130.27L156.63,137.77L157.6,158.19L158.58,132.28L159.55,161.84L160.52,151.48L161.5,136.64L162.47,145.14L163.44,154.95L164.42,151.37L165.39,150.28L166.36,168.45L167.33,131.28L168.31,134.4L169.28,152.55L170.25,142.63L171.23,137.8L172.2,169.21L173.17,150.87L174.15,143.51L175.12,162.5L176.09,164.75L177.06,145.66L178.04,150.07L179.01,158.26L179.98,156.01L180.96,150.63L181.93,166.66L182.9,147.94L183.88,145.35L184.85,156.86L185.82,153.89L186.79,165.52L187.77,164.75L188.74,151.22L189.71,161.89L190.69,164.09L191.66,155.68L192.63,166.54L193.61,172.11L194.58,156.7L195.55,146.86L196.52,159.81L197.5,161.11L198.47,154.98L199.44,169.94L200.42,156.37L201.39,146.72L202.36,162.03L203.34,160.99L204.31,159.29L205.28,159.98L206.25,163.66L207.23,155.92L208.2,157.97L209.17,167.27L210.15,158.78L211.12,156.23L212.09,158.8L213.07,154.79L214.04,156.75L215.01,161.63L215.98,154.24L216.96,155.9L217.93,159.48L218.9,156.16L219.88,158L220.85,160.69L221.82,152.97L222.8,152.57L223.77,158.78L224.74,158.42L225.72,155.07L226.69,160.95L227.66,152.5L228.63,148.98L229.61,155.61L230.58,153.47L231.55,153.51L232.53,154.81L233.5,155.21L234.47,149.67L235.45,146.65L236.42,152.69L237.39,146.58L238.36,148.39L239.34,147.5L240.31,143.34L241.28,147.99L242.26,145.16L243.23,144.9L244.2,145.02L245.18,145.09L246.15,143.32L247.12,144.29L248.09,144.73L249.07,138.32L250.04,139.17L251.01,141.64L251.99,142.94L252.96,138.91L253.93,141.67L254.91,137.4L255.88,135.48L256.85,140.04L257.82,137.96L258.8,135.34L259.77,137.25L260.74,134.23L261.72,131.05L262.69,132.61L263.66,131.21L264.64,133.81L265.61,129.94L266.58,132.58L267.55,130.48L268.53,130.86L269.5,127.41L270.47,129.77L271.45,127.93L272.42,124.44L273.39,122.1L274.37,124.32L275.34,123.71L276.31,122.98L277.28,122.77L278.26,123.54L279.23,120.81L280.2,119.82L281.18,120.41L282.15,122.03L283.12,117.9L284.1,120.78L285.07,118.49L286.04,115.05L287.01,116.82L287.99,116.54L288.96,114.08L289.93,112.95L290.91,113.37L291.88,111.79L292.85,111.18L293.83,112.88L294.8,111.93L295.77,106.84L296.74,111.53L297.72,107.9L298.69,108.42L299.66,104.52L300.64,105.77L301.61,103.63L302.58,104.81L303.56,104.38L304.53,101.36L305.5,103.93L306.47,101.24L307.45,100.23L308.42,99.12L309.39,96.996L310.37,98.742L311.34,97.61L312.31,99.191L313.29,97.728L314.26,93.645L315.23,96.713L316.2,93.999L317.18,94.188L318.15,92.324L319.12,91.71L320.1,91.167L321.07,92.395L322.04,93.079L323.02,90.389L323.99,89.846L324.96,90.365L325.93,87.722L326.91,89.681L327.88,87.864L328.85,86.118L329.83,87.392L330.8,86.731L331.77,86.471L332.75,84.914L333.72,84.088L334.69,82.861L335.66,83.663L336.64,81.988L337.61,82.295L338.58,83.309L339.56,81.044L340.53,79.581L341.5,78.873L342.48,79.368L343.45,79.534L344.42,77.905L345.39,76.702L346.37,77.41L347.34,78.731L348.31,75.31L349.29,74.389L350.26,73.752L351.23,76.088L352.21,73.162L353.18,72.619L354.15,72.926L355.12,73.28L356.1,72.95L357.07,72.218L358.04,71.274L359.02,71.912L359.99,70.33L360.96,70.637L361.94,70L362.91,69.127L363.88,69.292L364.85,68.254L365.83,69.481L366.8,67.782L367.77,68.277L368.75,67.05L369.72,66.295L370.69,66.862L371.67,66.932L372.64,64.502L373.61,65.87L374.58,64.101L375.56,63.534L376.53,63.581L377.5,63.794L378.48,62.402L379.45,64.171L380.42,62.378L381.4,62.378L382.37,62.873L383.34,61.245L384.31,62.968L385.29,60.915L386.26,61.316L387.23,60.301L388.21,59.499L389.18,60.372L390.15,59.239L391.13,58.343L392.1,59.593L393.07,59.098L394.04,59.664L395.02,58.791L395.99,57.257L396.96,57.304L397.94,57.894L398.91,57.446L399.88,57.234L400.86,57.186L401.83,57.045L402.8,56.054L403.77,55.393L404.75,56.691L405.72,55.582L406.69,55.629L407.67,55.7L408.64,55.582L409.61,54.945L410.59,54.803L411.56,55.086L412.53,54.543L413.5,53.93L414.48,54.402L415.45,53.906L416.42,53.175L417.4,53.458L418.37,52.892L419.34,53.458L420.32,53.293L421.29,53.01L422.26,52.608L423.23,52.939L424.21,52.325L425.18,52.231L426.15,52.018L427.13,51.806L428.1,52.302L429.07,52.325L430.05,51.712L431.02,51.688L431.99,50.626L432.96,50.744L433.94,50.909L434.91,51.263L435.88,51.31L436.86,49.942L437.83,49.965L438.8,50.06L439.78,50.956L440.75,50.579L441.72,50.485L442.69,50.107L443.67,49.942L444.64,50.319L445.61,49.069L446.59,49.305L447.56,49.281L448.53,49.234L449.51,49.163L450.48,49.352L451.45,48.667L452.42,48.738L453.4,48.951L454.37,48.29L455.34,48.833L456.32,48.196L457.29,48.384L458.26,48.125L459.24,48.314L460.21,48.384L461.18,48.29L462.15,48.007L463.13,48.431L464.1,47.865L465.07,47.842L466.05,47.724L467.02,47.912L467.99,47.842L468.97,48.078L469.94,47.582L470.91,47.488L471.88,47.417L472.86,47.252L473.83,47.039L474.8,47.37L475.78,47.157L476.75,47.37L477.72,47.252L478.7,47.016L479.67,46.874L480.64,47.039L481.61,47.322L482.59,46.426L483.56,46.567L484.53,47.086L485.51,46.921L486.48,46.638L487.45,46.52L488.43,46.78L489.4,47.039L490.37,46.803L491.34,46.52L492.32,46.402L493.29,46.591L494.26,46.685L495.24,46.614L496.21,46.355L497.18,46.709L498.16,46.308L499.13,46.378L500.1,46.591L501.07,45.954L502.05,45.977L503.02,46.166L503.99,46.19L504.97,46.095L505.94,45.907L506.91,46.237L507.89,46.048L508.86,46.119L509.83,46.095L510.8,46.001L511.78,45.954L512.75,46.19L513.72,46.001L514.7,45.789L515.67,45.907L516.64,45.789L517.62,45.93L518.59,46.048L519.56,45.836L520.53,45.671L521.51,45.789L522.48,45.671L523.45,45.883L524.43,45.576L525.4,45.789L526.37,45.812L527.35,45.694L528.32,45.482L529.29,45.718L530.26,45.553L531.24,45.623L532.21,45.576L533.18,45.364L534.16,45.812L535.13,45.364L536.1,45.505L537.08,45.482L538.05,45.505L539.02,45.458L539.99,45.576L540.97,45.6L541.94,45.411L542.91,45.411L543.89,45.387L544.86,45.482L545.83,45.411L546.81,45.34L547.78,45.411L548.75,45.576L549.72,45.387L550.7,45.34L551.67,45.293L552.64,45.317L553.62,45.435L554.59,45.222L555.56,45.293L556.54,45.458L557.51,45.435L558.48,45.293L559.45,45.364L560.43,45.246L561.4,45.364L562.37,45.222L563.35,45.246L564.32,45.34L565.29,45.317L566.27,45.317L567.24,45.246L568.21,45.199L569.18,45.246L570.16,45.458L571.13,45.293L572.1,45.222L573.08,45.269L574.05,45.269L575.02,45.293L576,45.199L576.97,45.222L577.94,45.293L578.91,45.199L579.89,45.246L580.86,45.269L581.83,45.151L582.81,45.246L583.78,45.222L584.75,45.222L585.73,45.222L586.7,45.222L587.67,45.269L588.64,45.222L589.62,45.175L590.59,45.222L591.56,45.199L592.54,45.199L593.51,45.175L594.48,45.317L595.46,45.222L596.43,45.222L598.37,45.151L599.35,45.175L601.29,45.246L602.27,45.199L603.24,45.199L604.21,45.175L605.19,45.269L606.16,45.151L608.1,45.151L609.08,45.199L610.05,45.175L611.02,45.269L612,45.175L612.97,45.151L613.94,45.199L614.92,45.175L615.89,45.269L616.86,45.151L617.83,45.151L619.78,45.222L623.67,45.151L626.59,45.175L627.56,45.151L628.54,45.151L633.4,45.151L634.38,45.175L635.35,45.175L638.27,45.151L642.16,45.151L647.02,45.151L648.97,45.151L650.92,45.151L651.89,45.199L652.86,45.151L656.75,45.175L657.73,45.151L658.7,45.151L667.46,45.175L679.13,45.151L681.08,45.151L695.67,45.151L710.27,45.151L720,45.151" style="fill:none;stroke:#0000FF" />
</g>
</svg>
