<?xml version="1.0"?>
<!-- Generated by SVGo and Plotinum VG -->
<svg width="720pt" height="432pt" viewBox="0 0 720 432"
	xmlns="http://www.w3.org/2000/svg"
	xmlns:xlink="http://www.w3.org/1999/xlink">
<g transform="scale(1, -1) translate(0, -432)">
<path d="M0,0L720,0L720,432L0,432Z" style="fill:#FFFFFF" />
<text x="358.5" y="-420.45" transform="scale(1, -1)"
	style="font-family:Times;font-weight:normal;font-style:normal;font-size:12px"> </text>
<text x="379.31" y="-3.8613" transform="scale(1, -1)"
	style="font-family:Times;font-weight:normal;font-style:normal;font-size:12px">Costs</text>
<text x="62.805" y="-18.634" transform="scale(1, -1)"
	style="font-family:Times;font-weight:normal;font-style:normal;font-size:10px">0</text>
<text x="358.12" y="-18.634" transform="scale(1, -1)"
	style="font-family:Times;font-weight:normal;font-style:normal;font-size:10px">200</text>
<text x="658.44" y="-18.634" transform="scale(1, -1)"
	style="font-family:Times;font-weight:normal;font-style:normal;font-size:10px">400</text>
<path d="M65.305,28.263L65.305,36.263" style="fill:none;stroke:#000000;stroke-width:0.5" />
<path d="M365.62,28.263L365.62,36.263" style="fill:none;stroke:#000000;stroke-width:0.5" />
<path d="M665.94,28.263L665.94,36.263" style="fill:none;stroke:#000000;stroke-width:0.5" />
<path d="M215.46,32.263L215.46,36.263" style="fill:none;stroke:#000000;stroke-width:0.5" />
<path d="M515.78,32.263L515.78,36.263" style="fill:none;stroke:#000000;stroke-width:0.5" />
<path d="M65.305,36.263L720,36.263" style="fill:none;stroke:#000000;stroke-width:0.5" />
<g transform="rotate(90)">
<text x="152.55" y="11.555" transform="scale(1, -1)"
	style="font-family:Times;font-weight:normal;font-style:normal;font-size:12px">Number of trials (1000000 total)</text>
</g>
<text x="24.055" y="-109.6" transform="scale(1, -1)"
	style="font-family:Times;font-weight:normal;font-style:normal;font-size:10px">50000</text>
<text x="19.055" y="-244.92" transform="scale(1, -1)"
	style="font-family:Times;font-weight:normal;font-style:normal;font-size:10px">150000</text>
<text x="19.055" y="-380.23" transform="scale(1, -1)"
	style="font-family:Times;font-weight:normal;font-style:normal;font-size:10px">250000</text>
<path d="M51.555,112.81L59.555,112.81" style="fill:none;stroke:#000000;stroke-width:0.5" />
<path d="M51.555,248.12L59.555,248.12" style="fill:none;stroke:#000000;stroke-width:0.5" />
<path d="M51.555,383.44L59.555,383.44" style="fill:none;stroke:#000000;stroke-width:0.5" />
<path d="M55.555,180.47L59.555,180.47" style="fill:none;stroke:#000000;stroke-width:0.5" />
<path d="M55.555,315.78L59.555,315.78" style="fill:none;stroke:#000000;stroke-width:0.5" />
<path d="M59.555,45.151L59.555,416.58" style="fill:none;stroke:#000000;stroke-width:0.5" />
<path d="M65.305,416.58L104.35,52.391L105.85,48.469L108.85,48.632L110.35,48.76L111.85,51.875L113.36,92.749L114.86,55.73L116.36,59.008L117.86,52.223L119.36,56L120.86,48.494L122.37,95.435L123.87,59.014L125.37,93.299L126.87,77.189L129.87,52.247L131.37,52.146L132.88,48.556L141.89,55.835L144.89,103.2L146.39,52.063L147.89,52.077L149.39,45.239L150.9,55.809L152.4,52.958L153.9,52.602L155.4,48.931L156.9,52.688L158.4,70.389L159.91,75.648L161.41,46.569L162.91,47.499L164.41,48.165L165.91,95.195L167.41,47.713L168.91,47.787L170.42,52.78L171.92,56.663L173.42,53.498L174.92,52.184L176.42,49.72L177.92,49.191L179.43,48.743L180.93,49.346L182.43,52.231L183.93,52.839L185.43,47.457L186.93,50.647L188.44,48.027L189.94,48.863L191.44,48.441L192.94,53.621L194.44,48.458L195.94,49.054L197.45,47.804L198.95,51.073L200.45,48.061L201.95,55.904L203.45,50.755L204.95,56.282L206.45,56.477L207.96,53.502L209.46,50.747L210.96,51.28L212.46,51.143L213.96,54.885L215.46,51.94L216.97,53.87L218.47,51.713L219.97,53.893L221.47,50.921L222.97,52.767L224.47,50.411L225.98,53.32L227.48,51.729L228.98,47.385L230.48,49.407L231.98,49.638L233.48,48.735L234.98,47.818L236.49,48.463L237.99,50.419L239.49,51.533L240.99,47.471L242.49,48.295L243.99,47.419L245.5,54.775L247,48.325L248.5,48.188L250,47.751L251.5,50.005L253,50.069L254.51,48.138L256.01,47.343L257.51,48.107L259.01,50.415L260.51,50.986L262.01,47.426L263.52,48.201L265.02,48.153L266.52,48.481L268.02,47.624L269.52,47.484L271.02,47.618L272.52,48.4L274.03,47.559L275.53,47.598L277.03,47.463L278.53,47.36L280.03,46.944L281.53,47.379L283.04,47.227L284.54,47.505L286.04,47.159L287.54,47.77L289.04,46.892L290.54,47.047L292.05,46.97L293.55,47.62L295.05,47.153L296.55,47.318L298.05,47.011L299.55,47.651L301.06,47.034L302.56,47.366L304.06,46.817L305.56,47.391L307.06,47.448L308.56,47.055L310.06,46.755L311.57,46.756L313.07,46.782L314.57,46.556L316.07,46.545L317.57,46.725L319.07,46.598L320.58,46.739L322.08,46.383L323.58,46.095L325.08,46.35L326.58,46.311L328.08,46.151L329.59,45.993L331.09,46.088L332.59,46.372L334.09,45.984L335.59,45.866L337.09,45.971L338.59,46.264L340.1,46.33L341.6,45.858L343.1,45.947L344.6,45.932L346.1,46.023L347.6,45.92L349.11,45.902L350.61,45.877L352.11,45.961L353.61,46.069L355.11,45.848L356.61,45.763L358.12,45.802L359.62,45.751L361.12,45.699L362.62,45.675L364.12,45.778L365.62,45.716L367.13,45.814L368.63,45.664L370.13,45.617L371.63,45.616L373.13,45.583L374.63,45.598L376.13,45.583L377.64,45.533L379.14,45.602L380.64,45.548L382.14,45.544L383.64,45.523L385.14,45.536L386.65,45.519L388.15,45.545L389.65,45.496L391.15,45.503L392.65,45.51L394.15,45.514L395.66,45.457L397.16,45.506L398.66,45.464L400.16,45.477L401.66,45.48L403.16,45.408L404.67,45.407L406.17,45.411L407.67,45.368L409.17,45.339L410.67,45.38L412.17,45.337L413.67,45.349L415.18,45.303L416.68,45.308L418.18,45.31L419.68,45.311L421.18,45.321L422.68,45.281L424.19,45.319L425.69,45.295L427.19,45.3L428.69,45.284L430.19,45.289L431.69,45.279L433.2,45.304L434.7,45.28L436.2,45.257L437.7,45.272L439.2,45.269L440.7,45.264L442.2,45.25L443.71,45.257L445.21,45.302L446.71,45.257L448.21,45.258L449.71,45.253L451.21,45.222L452.72,45.23L454.22,45.246L455.72,45.235L457.22,45.238L458.72,45.231L460.22,45.22L461.73,45.211L463.23,45.214L464.73,45.203L466.23,45.212L467.73,45.195L469.23,45.212L470.74,45.214L472.24,45.197L473.74,45.208L475.24,45.197L476.74,45.193L478.24,45.199L479.74,45.2L481.25,45.195L482.75,45.192L484.25,45.189L485.75,45.184L487.25,45.205L488.75,45.185L490.26,45.176L491.76,45.178L493.26,45.193L494.76,45.174L496.26,45.177L497.76,45.172L499.27,45.174L500.77,45.166L502.27,45.168L503.77,45.174L505.27,45.18L506.77,45.173L508.28,45.165L509.78,45.172L511.28,45.174L512.78,45.177L514.28,45.176L515.78,45.166L517.28,45.164L518.79,45.178L520.29,45.165L521.79,45.172L523.29,45.162L524.79,45.172L526.29,45.164L527.8,45.159L529.3,45.155L530.8,45.158L532.3,45.164L533.8,45.155L535.3,45.158L536.81,45.161L538.31,45.161L539.81,45.162L541.31,45.157L542.81,45.154L544.31,45.161L545.82,45.158L547.32,45.154L548.82,45.159L550.32,45.154L551.82,45.153L553.32,45.153L554.82,45.164L556.33,45.155L557.83,45.157L559.33,45.157L560.83,45.151L562.33,45.154L563.83,45.154L565.34,45.151L566.84,45.158L568.34,45.151L569.84,45.151L571.34,45.151L572.84,45.153L575.85,45.151L577.35,45.154L578.85,45.157L580.35,45.151L581.85,45.151L584.86,45.154L587.86,45.151L590.86,45.153L592.36,45.154L593.87,45.153L595.37,45.154L596.87,45.153L598.37,45.154L601.37,45.155L604.38,45.151L605.88,45.153L607.38,45.151L610.38,45.151L614.89,45.153L616.39,45.151L620.89,45.153L622.4,45.151L625.4,45.151L626.9,45.151L628.4,45.151L631.41,45.151L640.42,45.151L644.92,45.151L646.42,45.151L647.92,45.151L662.94,45.151L668.95,45.151L683.96,45.151L691.47,45.151L712.49,45.151L720,45.151" style="fill:none;stroke:#0000FF" />
</g>
</svg>
