<?xml version="1.0"?>
<!-- Generated by SVGo and Plotinum VG -->
<svg width="720pt" height="432pt" viewBox="0 0 720 432"
	xmlns="http://www.w3.org/2000/svg"
	xmlns:xlink="http://www.w3.org/1999/xlink">
<g transform="scale(1, -1) translate(0, -432)">
<path d="M0,0L720,0L720,432L0,432Z" style="fill:#FFFFFF" />
<text x="358.5" y="-420.45" transform="scale(1, -1)"
	style="font-family:Times;font-weight:normal;font-style:normal;font-size:12px"> </text>
<text x="379.31" y="-3.8613" transform="scale(1, -1)"
	style="font-family:Times;font-weight:normal;font-style:normal;font-size:12px">Costs</text>
<text x="62.805" y="-18.634" transform="scale(1, -1)"
	style="font-family:Times;font-weight:normal;font-style:normal;font-size:10px">0</text>
<text x="256.2" y="-18.634" transform="scale(1, -1)"
	style="font-family:Times;font-weight:normal;font-style:normal;font-size:10px">100</text>
<text x="454.59" y="-18.634" transform="scale(1, -1)"
	style="font-family:Times;font-weight:normal;font-style:normal;font-size:10px">200</text>
<text x="652.98" y="-18.634" transform="scale(1, -1)"
	style="font-family:Times;font-weight:normal;font-style:normal;font-size:10px">300</text>
<path d="M65.305,28.263L65.305,36.263" style="fill:none;stroke:#000000;stroke-width:0.5" />
<path d="M263.7,28.263L263.7,36.263" style="fill:none;stroke:#000000;stroke-width:0.5" />
<path d="M462.09,28.263L462.09,36.263" style="fill:none;stroke:#000000;stroke-width:0.5" />
<path d="M660.48,28.263L660.48,36.263" style="fill:none;stroke:#000000;stroke-width:0.5" />
<path d="M104.98,32.263L104.98,36.263" style="fill:none;stroke:#000000;stroke-width:0.5" />
<path d="M144.66,32.263L144.66,36.263" style="fill:none;stroke:#000000;stroke-width:0.5" />
<path d="M184.34,32.263L184.34,36.263" style="fill:none;stroke:#000000;stroke-width:0.5" />
<path d="M224.02,32.263L224.02,36.263" style="fill:none;stroke:#000000;stroke-width:0.5" />
<path d="M303.38,32.263L303.38,36.263" style="fill:none;stroke:#000000;stroke-width:0.5" />
<path d="M343.05,32.263L343.05,36.263" style="fill:none;stroke:#000000;stroke-width:0.5" />
<path d="M382.73,32.263L382.73,36.263" style="fill:none;stroke:#000000;stroke-width:0.5" />
<path d="M422.41,32.263L422.41,36.263" style="fill:none;stroke:#000000;stroke-width:0.5" />
<path d="M501.77,32.263L501.77,36.263" style="fill:none;stroke:#000000;stroke-width:0.5" />
<path d="M541.45,32.263L541.45,36.263" style="fill:none;stroke:#000000;stroke-width:0.5" />
<path d="M581.13,32.263L581.13,36.263" style="fill:none;stroke:#000000;stroke-width:0.5" />
<path d="M620.8,32.263L620.8,36.263" style="fill:none;stroke:#000000;stroke-width:0.5" />
<path d="M700.16,32.263L700.16,36.263" style="fill:none;stroke:#000000;stroke-width:0.5" />
<path d="M65.305,36.263L720,36.263" style="fill:none;stroke:#000000;stroke-width:0.5" />
<g transform="rotate(90)">
<text x="152.55" y="11.555" transform="scale(1, -1)"
	style="font-family:Times;font-weight:normal;font-style:normal;font-size:12px">Number of trials (1000000 total)</text>
</g>
<text x="19.055" y="-128.33" transform="scale(1, -1)"
	style="font-family:Times;font-weight:normal;font-style:normal;font-size:10px">100000</text>
<text x="19.055" y="-214.72" transform="scale(1, -1)"
	style="font-family:Times;font-weight:normal;font-style:normal;font-size:10px">200000</text>
<text x="19.055" y="-301.11" transform="scale(1, -1)"
	style="font-family:Times;font-weight:normal;font-style:normal;font-size:10px">300000</text>
<text x="19.055" y="-387.49" transform="scale(1, -1)"
	style="font-family:Times;font-weight:normal;font-style:normal;font-size:10px">400000</text>
<path d="M51.555,131.54L59.555,131.54" style="fill:none;stroke:#000000;stroke-width:0.5" />
<path d="M51.555,217.92L59.555,217.92" style="fill:none;stroke:#000000;stroke-width:0.5" />
<path d="M51.555,304.31L59.555,304.31" style="fill:none;stroke:#000000;stroke-width:0.5" />
<path d="M51.555,390.7L59.555,390.7" style="fill:none;stroke:#000000;stroke-width:0.5" />
<path d="M55.555,62.428L59.555,62.428" style="fill:none;stroke:#000000;stroke-width:0.5" />
<path d="M55.555,79.705L59.555,79.705" style="fill:none;stroke:#000000;stroke-width:0.5" />
<path d="M55.555,96.983L59.555,96.983" style="fill:none;stroke:#000000;stroke-width:0.5" />
<path d="M55.555,114.26L59.555,114.26" style="fill:none;stroke:#000000;stroke-width:0.5" />
<path d="M55.555,148.81L59.555,148.81" style="fill:none;stroke:#000000;stroke-width:0.5" />
<path d="M55.555,166.09L59.555,166.09" style="fill:none;stroke:#000000;stroke-width:0.5" />
<path d="M55.555,183.37L59.555,183.37" style="fill:none;stroke:#000000;stroke-width:0.5" />
<path d="M55.555,200.65L59.555,200.65" style="fill:none;stroke:#000000;stroke-width:0.5" />
<path d="M55.555,235.2L59.555,235.2" style="fill:none;stroke:#000000;stroke-width:0.5" />
<path d="M55.555,252.48L59.555,252.48" style="fill:none;stroke:#000000;stroke-width:0.5" />
<path d="M55.555,269.76L59.555,269.76" style="fill:none;stroke:#000000;stroke-width:0.5" />
<path d="M55.555,287.03L59.555,287.03" style="fill:none;stroke:#000000;stroke-width:0.5" />
<path d="M55.555,321.59L59.555,321.59" style="fill:none;stroke:#000000;stroke-width:0.5" />
<path d="M55.555,338.87L59.555,338.87" style="fill:none;stroke:#000000;stroke-width:0.5" />
<path d="M55.555,356.14L59.555,356.14" style="fill:none;stroke:#000000;stroke-width:0.5" />
<path d="M55.555,373.42L59.555,373.42" style="fill:none;stroke:#000000;stroke-width:0.5" />
<path d="M55.555,407.97L59.555,407.97" style="fill:none;stroke:#000000;stroke-width:0.5" />
<path d="M59.555,45.151L59.555,416.58" style="fill:none;stroke:#000000;stroke-width:0.5" />
<path d="M65.305,416.58L108.95,55.703L116.89,59.552L122.84,48.683L126.81,63.025L130.77,62.737L132.76,66.441L134.74,63.058L136.73,48.632L138.71,59.091L140.69,55.689L142.68,59.641L144.66,51.986L146.65,52.074L148.63,66.274L150.61,69.417L152.6,52.136L154.58,52.154L160.53,45.563L162.52,48.735L164.5,52.112L166.48,45.251L170.45,70.295L174.42,49.193L176.4,52.81L178.39,60.769L180.37,48.638L182.36,49.602L184.34,46.152L186.32,53.031L188.31,59.782L190.29,60.031L192.28,47.03L194.26,47.308L196.24,46.576L198.23,46.914L200.21,47.996L202.2,47.596L204.18,47.267L206.16,47.521L208.15,47.968L210.13,47.718L212.12,47.702L214.1,48.653L216.08,49.039L218.07,48.787L220.05,48.028L222.03,48.844L224.02,47.438L226,47.776L227.99,47.677L229.97,47.587L231.95,48.558L233.94,47.737L235.92,47.53L237.91,48.395L239.89,48.752L241.87,47.13L243.86,47.848L245.84,47.617L247.83,48.438L249.81,47.684L251.79,48.096L253.78,48.806L255.76,49.378L257.75,48.216L259.73,47.983L261.71,47.708L263.7,48.027L265.68,47.3L267.67,47.167L269.65,46.856L271.63,47.08L273.62,47.404L275.6,47.524L277.58,46.363L279.57,46.218L281.55,46.117L283.54,46.737L285.52,46.185L287.5,46.426L289.49,46.201L291.47,46.293L293.46,46.755L295.44,46.88L297.42,46.013L299.41,46.534L301.39,46.647L303.38,46.506L305.36,46.034L307.34,46.026L309.33,45.99L311.31,46.204L313.3,46.315L315.28,45.876L317.26,45.854L319.25,45.858L321.23,45.94L323.21,45.902L325.2,45.882L327.18,45.865L329.17,45.849L331.15,45.877L333.13,45.819L335.12,45.791L337.1,45.832L339.09,45.81L341.07,45.821L343.05,45.793L345.04,45.754L347.02,45.695L349.01,45.639L350.99,45.633L352.97,45.587L354.96,45.609L356.94,45.651L358.93,45.589L360.91,45.612L362.89,45.641L364.88,45.534L366.86,45.557L368.85,45.607L370.83,45.563L372.81,45.539L374.8,45.529L376.78,45.512L378.76,45.553L380.75,45.479L382.73,45.462L384.72,45.428L386.7,45.43L388.68,45.414L390.67,45.387L392.65,45.342L394.64,45.35L396.62,45.343L398.6,45.36L400.59,45.326L402.57,45.301L404.56,45.322L406.54,45.338L408.52,45.325L410.51,45.306L412.49,45.301L414.48,45.294L416.46,45.305L418.44,45.296L420.43,45.276L422.41,45.288L424.4,45.293L426.38,45.292L428.36,45.251L430.35,45.245L432.33,45.261L434.31,45.255L436.3,45.233L438.28,45.239L440.27,45.24L442.25,45.24L444.23,45.251L446.22,45.235L448.2,45.235L450.19,45.226L452.17,45.225L454.15,45.229L456.14,45.219L458.12,45.219L460.11,45.219L462.09,45.22L464.07,45.21L466.06,45.208L468.04,45.208L470.03,45.191L472.01,45.189L473.99,45.195L475.98,45.19L477.96,45.189L479.95,45.189L481.93,45.19L483.91,45.185L485.9,45.19L487.88,45.18L489.86,45.189L491.85,45.192L493.83,45.189L495.82,45.174L497.8,45.176L499.78,45.18L501.77,45.179L503.75,45.176L505.74,45.171L507.72,45.164L509.7,45.179L511.69,45.166L513.67,45.172L515.66,45.165L517.64,45.166L519.62,45.163L521.61,45.168L523.59,45.167L525.58,45.159L527.56,45.168L529.54,45.161L531.53,45.166L533.51,45.159L535.49,45.16L537.48,45.161L539.46,45.163L541.45,45.157L543.43,45.158L545.41,45.159L547.4,45.161L549.38,45.157L551.37,45.157L553.35,45.156L555.33,45.159L557.32,45.156L559.3,45.152L561.29,45.157L563.27,45.157L565.25,45.16L567.24,45.156L569.22,45.153L571.21,45.157L573.19,45.157L575.17,45.154L577.16,45.158L579.14,45.155L581.13,45.153L583.11,45.156L585.09,45.155L587.08,45.155L589.06,45.152L591.04,45.158L593.03,45.153L595.01,45.151L597,45.155L598.98,45.154L600.96,45.152L602.95,45.151L604.93,45.156L606.92,45.153L608.9,45.153L610.88,45.152L612.87,45.152L616.84,45.151L618.82,45.152L620.8,45.151L622.79,45.152L624.77,45.151L626.76,45.151L628.74,45.151L630.72,45.151L632.71,45.152L634.69,45.151L636.68,45.154L638.66,45.151L642.63,45.152L644.61,45.151L646.59,45.152L648.58,45.152L658.5,45.152L660.48,45.151L664.45,45.151L672.39,45.151L674.37,45.151L678.34,45.151L680.32,45.152L720,45.151" style="fill:none;stroke:#0000FF" />
</g>
</svg>
