<?xml version="1.0"?>
<!-- Generated by SVGo and Plotinum VG -->
<svg width="720pt" height="432pt" viewBox="0 0 720 432"
	xmlns="http://www.w3.org/2000/svg"
	xmlns:xlink="http://www.w3.org/1999/xlink">
<g transform="scale(1, -1) translate(0, -432)">
<path d="M0,0L720,0L720,432L0,432Z" style="fill:#FFFFFF" />
<text x="358.5" y="-420.45" transform="scale(1, -1)"
	style="font-family:Times;font-weight:normal;font-style:normal;font-size:12px"> </text>
<text x="379.31" y="-3.8613" transform="scale(1, -1)"
	style="font-family:Times;font-weight:normal;font-style:normal;font-size:12px">Costs</text>
<text x="62.805" y="-18.634" transform="scale(1, -1)"
	style="font-family:Times;font-weight:normal;font-style:normal;font-size:10px">0</text>
<text x="351.39" y="-18.634" transform="scale(1, -1)"
	style="font-family:Times;font-weight:normal;font-style:normal;font-size:10px">200</text>
<text x="644.98" y="-18.634" transform="scale(1, -1)"
	style="font-family:Times;font-weight:normal;font-style:normal;font-size:10px">400</text>
<path d="M65.305,28.263L65.305,36.263" style="fill:none;stroke:#000000;stroke-width:0.5" />
<path d="M358.89,28.263L358.89,36.263" style="fill:none;stroke:#000000;stroke-width:0.5" />
<path d="M652.48,28.263L652.48,36.263" style="fill:none;stroke:#000000;stroke-width:0.5" />
<path d="M212.1,32.263L212.1,36.263" style="fill:none;stroke:#000000;stroke-width:0.5" />
<path d="M505.68,32.263L505.68,36.263" style="fill:none;stroke:#000000;stroke-width:0.5" />
<path d="M65.305,36.263L720,36.263" style="fill:none;stroke:#000000;stroke-width:0.5" />
<g transform="rotate(90)">
<text x="152.55" y="11.555" transform="scale(1, -1)"
	style="font-family:Times;font-weight:normal;font-style:normal;font-size:12px">Number of trials (1000000 total)</text>
</g>
<text x="19.055" y="-126.42" transform="scale(1, -1)"
	style="font-family:Times;font-weight:normal;font-style:normal;font-size:10px">100000</text>
<text x="19.055" y="-210.89" transform="scale(1, -1)"
	style="font-family:Times;font-weight:normal;font-style:normal;font-size:10px">200000</text>
<text x="19.055" y="-295.36" transform="scale(1, -1)"
	style="font-family:Times;font-weight:normal;font-style:normal;font-size:10px">300000</text>
<text x="19.055" y="-379.83" transform="scale(1, -1)"
	style="font-family:Times;font-weight:normal;font-style:normal;font-size:10px">400000</text>
<path d="M51.555,129.62L59.555,129.62" style="fill:none;stroke:#000000;stroke-width:0.5" />
<path d="M51.555,214.09L59.555,214.09" style="fill:none;stroke:#000000;stroke-width:0.5" />
<path d="M51.555,298.56L59.555,298.56" style="fill:none;stroke:#000000;stroke-width:0.5" />
<path d="M51.555,383.04L59.555,383.04" style="fill:none;stroke:#000000;stroke-width:0.5" />
<path d="M55.555,62.045L59.555,62.045" style="fill:none;stroke:#000000;stroke-width:0.5" />
<path d="M55.555,78.939L59.555,78.939" style="fill:none;stroke:#000000;stroke-width:0.5" />
<path d="M55.555,95.833L59.555,95.833" style="fill:none;stroke:#000000;stroke-width:0.5" />
<path d="M55.555,112.73L59.555,112.73" style="fill:none;stroke:#000000;stroke-width:0.5" />
<path d="M55.555,146.52L59.555,146.52" style="fill:none;stroke:#000000;stroke-width:0.5" />
<path d="M55.555,163.41L59.555,163.41" style="fill:none;stroke:#000000;stroke-width:0.5" />
<path d="M55.555,180.3L59.555,180.3" style="fill:none;stroke:#000000;stroke-width:0.5" />
<path d="M55.555,197.2L59.555,197.2" style="fill:none;stroke:#000000;stroke-width:0.5" />
<path d="M55.555,230.99L59.555,230.99" style="fill:none;stroke:#000000;stroke-width:0.5" />
<path d="M55.555,247.88L59.555,247.88" style="fill:none;stroke:#000000;stroke-width:0.5" />
<path d="M55.555,264.78L59.555,264.78" style="fill:none;stroke:#000000;stroke-width:0.5" />
<path d="M55.555,281.67L59.555,281.67" style="fill:none;stroke:#000000;stroke-width:0.5" />
<path d="M55.555,315.46L59.555,315.46" style="fill:none;stroke:#000000;stroke-width:0.5" />
<path d="M55.555,332.35L59.555,332.35" style="fill:none;stroke:#000000;stroke-width:0.5" />
<path d="M55.555,349.25L59.555,349.25" style="fill:none;stroke:#000000;stroke-width:0.5" />
<path d="M55.555,366.14L59.555,366.14" style="fill:none;stroke:#000000;stroke-width:0.5" />
<path d="M55.555,399.93L59.555,399.93" style="fill:none;stroke:#000000;stroke-width:0.5" />
<path d="M59.555,45.151L59.555,416.58" style="fill:none;stroke:#000000;stroke-width:0.5" />
<path d="M65.305,416.58L100.53,55.446L104.94,48.855L106.41,48.879L110.81,58.988L113.75,55.377L115.21,66.048L116.68,48.925L118.15,51.963L119.62,59.358L121.09,55.557L122.55,48.879L124.02,48.855L126.96,55.372L128.43,55.82L129.89,56.242L132.83,74.816L140.17,48.988L141.64,45.25L143.1,66.569L144.57,62.713L146.04,45.531L147.51,48.84L148.98,45.442L150.44,45.895L151.91,45.394L153.38,45.438L154.85,45.896L156.32,70.454L157.78,59.253L159.25,45.836L160.72,46.179L162.19,45.684L163.66,46.285L165.12,46.418L166.59,46.091L168.06,47.071L169.53,46.565L171,46.011L172.46,76.166L173.93,46.32L175.4,46.452L176.87,46.198L178.34,51.306L179.8,46.564L181.27,46.662L182.74,47.986L184.21,76.097L185.67,46.477L187.14,46.453L188.61,46.951L190.08,46.618L191.55,47.028L193.01,47.597L194.48,47.287L195.95,47.092L197.42,47.756L198.89,46.606L200.35,45.835L201.82,46.734L203.29,45.884L204.76,46.582L206.23,47.996L207.69,48.371L209.16,46.379L210.63,48.079L212.1,48.175L213.57,46.255L215.03,45.919L216.5,45.394L217.97,47.45L219.44,47.501L220.9,47.51L222.37,48.168L223.84,48.175L225.31,47.424L226.78,46.692L228.24,46.389L229.71,46.715L231.18,45.981L232.65,46.527L234.12,49.218L235.58,48.438L237.05,47.481L238.52,46.759L239.99,48.437L241.46,45.808L242.92,45.813L244.39,45.417L245.86,46.561L247.33,47.062L248.8,47.22L250.26,47.087L251.73,48.956L253.2,45.487L254.67,45.702L256.14,45.712L257.6,45.688L259.07,45.813L260.54,45.613L262.01,47.231L263.47,48.809L264.94,46.66L266.41,45.784L267.88,45.459L269.35,45.836L270.81,45.719L272.28,45.602L273.75,45.634L275.22,47.63L276.69,46.696L278.15,45.444L279.62,45.555L281.09,45.488L282.56,45.535L284.03,45.605L285.49,46.002L286.96,45.664L288.43,45.66L289.9,45.729L291.37,47.564L292.83,45.462L294.3,45.48L295.77,45.465L297.24,45.906L298.71,45.63L300.17,45.613L301.64,45.774L303.11,45.702L304.58,45.574L306.04,45.462L307.51,45.4L308.98,45.435L310.45,45.545L311.92,45.568L313.38,45.646L314.85,45.589L316.32,45.589L317.79,45.541L319.26,45.495L320.72,45.398L322.19,45.346L323.66,45.367L325.13,45.557L326.6,45.633L328.06,45.461L329.53,45.564L331,45.594L332.47,45.379L333.94,45.296L335.4,45.243L336.87,45.379L338.34,45.36L339.81,45.431L341.27,45.551L342.74,45.557L344.21,45.385L345.68,45.358L347.15,45.334L348.61,45.265L350.08,45.317L351.55,45.254L353.02,45.38L354.49,45.492L355.95,45.412L357.42,45.236L358.89,45.353L360.36,45.227L361.83,45.238L363.29,45.239L364.76,45.274L366.23,45.294L367.7,45.295L369.17,45.336L370.63,45.302L372.1,45.221L373.57,45.232L375.04,45.218L376.51,45.253L377.97,45.225L379.44,45.224L380.91,45.22L382.38,45.367L383.84,45.285L385.31,45.2L386.78,45.201L388.25,45.233L389.72,45.217L391.18,45.216L392.65,45.217L394.12,45.211L395.59,45.22L397.06,45.2L398.52,45.183L399.99,45.191L401.46,45.191L402.93,45.198L404.4,45.228L405.86,45.199L407.33,45.201L408.8,45.206L410.27,45.206L411.74,45.183L413.2,45.175L414.67,45.189L416.14,45.193L417.61,45.189L419.08,45.189L420.54,45.181L422.01,45.184L423.48,45.187L424.95,45.171L426.41,45.167L427.88,45.171L429.35,45.176L430.82,45.177L432.29,45.19L433.75,45.181L435.22,45.185L436.69,45.179L438.16,45.181L439.63,45.172L441.09,45.167L442.56,45.162L444.03,45.166L445.5,45.169L446.97,45.172L448.43,45.169L449.9,45.167L451.37,45.17L452.84,45.166L454.31,45.161L455.77,45.156L457.24,45.164L458.71,45.16L460.18,45.171L461.64,45.172L463.11,45.162L464.58,45.156L466.05,45.159L467.52,45.161L468.98,45.156L470.45,45.156L471.92,45.162L473.39,45.163L474.86,45.162L476.32,45.154L477.79,45.156L479.26,45.153L480.73,45.156L482.2,45.159L483.66,45.16L485.13,45.154L486.6,45.156L488.07,45.153L489.54,45.151L491,45.152L492.47,45.156L493.94,45.153L495.41,45.156L496.88,45.159L498.34,45.155L499.81,45.152L501.28,45.156L502.75,45.153L504.21,45.152L505.68,45.152L507.15,45.153L508.62,45.153L510.09,45.156L511.55,45.153L513.02,45.152L514.49,45.151L515.96,45.152L517.43,45.152L518.89,45.152L520.36,45.152L521.83,45.152L523.3,45.151L524.77,45.154L526.23,45.151L527.7,45.153L529.17,45.151L530.64,45.153L533.57,45.152L535.04,45.151L536.51,45.151L537.98,45.152L539.45,45.151L540.91,45.151L546.78,45.153L548.25,45.151L549.72,45.155L551.19,45.152L552.66,45.153L557.06,45.152L558.53,45.152L560,45.151L561.46,45.151L565.87,45.151L567.34,45.151L568.8,45.152L573.21,45.151L579.08,45.151L586.42,45.151L590.82,45.151L592.29,45.151L599.63,45.151L621.65,45.151L645.14,45.151L720,45.151" style="fill:none;stroke:#0000FF" />
</g>
</svg>
