<?xml version="1.0"?>
<!-- Generated by SVGo and Plotinum VG -->
<svg width="720pt" height="432pt" viewBox="0 0 720 432"
	xmlns="http://www.w3.org/2000/svg"
	xmlns:xlink="http://www.w3.org/1999/xlink">
<g transform="scale(1, -1) translate(0, -432)">
<path d="M0,0L720,0L720,432L0,432Z" style="fill:#FFFFFF" />
<text x="358.5" y="-420.45" transform="scale(1, -1)"
	style="font-family:Times;font-weight:normal;font-style:normal;font-size:12px"> </text>
<text x="385.56" y="-3.8613" transform="scale(1, -1)"
	style="font-family:Times;font-weight:normal;font-style:normal;font-size:12px">Costs</text>
<text x="69.055" y="-18.634" transform="scale(1, -1)"
	style="font-family:Times;font-weight:normal;font-style:normal;font-size:10px">0.00</text>
<text x="364.15" y="-18.634" transform="scale(1, -1)"
	style="font-family:Times;font-weight:normal;font-style:normal;font-size:10px">250.00</text>
<text x="664.24" y="-18.634" transform="scale(1, -1)"
	style="font-family:Times;font-weight:normal;font-style:normal;font-size:10px">500.00</text>
<path d="M77.805,28.263L77.805,36.263" style="fill:none;stroke:#000000;stroke-width:0.5" />
<path d="M377.9,28.263L377.9,36.263" style="fill:none;stroke:#000000;stroke-width:0.5" />
<path d="M677.99,28.263L677.99,36.263" style="fill:none;stroke:#000000;stroke-width:0.5" />
<path d="M137.82,32.263L137.82,36.263" style="fill:none;stroke:#000000;stroke-width:0.5" />
<path d="M197.84,32.263L197.84,36.263" style="fill:none;stroke:#000000;stroke-width:0.5" />
<path d="M257.86,32.263L257.86,36.263" style="fill:none;stroke:#000000;stroke-width:0.5" />
<path d="M317.88,32.263L317.88,36.263" style="fill:none;stroke:#000000;stroke-width:0.5" />
<path d="M437.91,32.263L437.91,36.263" style="fill:none;stroke:#000000;stroke-width:0.5" />
<path d="M497.93,32.263L497.93,36.263" style="fill:none;stroke:#000000;stroke-width:0.5" />
<path d="M557.95,32.263L557.95,36.263" style="fill:none;stroke:#000000;stroke-width:0.5" />
<path d="M617.97,32.263L617.97,36.263" style="fill:none;stroke:#000000;stroke-width:0.5" />
<path d="M77.805,36.263L720,36.263" style="fill:none;stroke:#000000;stroke-width:0.5" />
<g transform="rotate(90)">
<text x="152.55" y="11.555" transform="scale(1, -1)"
	style="font-family:Times;font-weight:normal;font-style:normal;font-size:12px">Number of trials (1000000 total)</text>
</g>
<text x="24.055" y="-89.497" transform="scale(1, -1)"
	style="font-family:Times;font-weight:normal;font-style:normal;font-size:10px">25000.00</text>
<text x="19.055" y="-232.15" transform="scale(1, -1)"
	style="font-family:Times;font-weight:normal;font-style:normal;font-size:10px">100000.00</text>
<text x="19.055" y="-374.81" transform="scale(1, -1)"
	style="font-family:Times;font-weight:normal;font-style:normal;font-size:10px">175000.00</text>
<path d="M64.055,92.702L72.055,92.702" style="fill:none;stroke:#000000;stroke-width:0.5" />
<path d="M64.055,235.36L72.055,235.36" style="fill:none;stroke:#000000;stroke-width:0.5" />
<path d="M64.055,378.02L72.055,378.02" style="fill:none;stroke:#000000;stroke-width:0.5" />
<path d="M68.055,164.03L72.055,164.03" style="fill:none;stroke:#000000;stroke-width:0.5" />
<path d="M68.055,306.69L72.055,306.69" style="fill:none;stroke:#000000;stroke-width:0.5" />
<path d="M72.055,45.151L72.055,416.58" style="fill:none;stroke:#000000;stroke-width:0.5" />
<path d="M77.805,416.58L109.01,63.402L110.21,51.889L113.82,48.571L115.02,66.584L116.22,74.006L117.42,55.404L118.62,62.244L119.82,69.883L121.02,65.974L122.22,62.407L123.42,55.153L124.62,97.937L125.82,73.124L127.02,51.82L128.22,48.482L129.42,80.384L130.62,92.073L131.82,62.571L133.02,63.433L139.02,74.079L141.42,87.918L142.62,66.183L143.82,55.721L145.03,62.746L146.23,63.311L147.43,46.742L148.63,52.939L149.83,63.511L151.03,57.102L152.23,61.578L153.43,48.103L154.63,47.238L155.83,49.779L157.03,50.143L158.23,49.905L159.43,48.963L160.63,51.122L161.83,54.207L163.03,73.519L164.23,52.267L165.43,54.738L166.63,53.564L167.83,56.033L169.03,55.385L170.23,58.099L171.43,55.761L172.63,57.989L173.83,58.303L175.03,70.881L176.23,56.14L177.43,59.714L178.64,56.127L179.84,56.634L181.04,54.827L182.24,56.876L183.44,57.671L184.64,56.355L185.84,57.06L187.04,54.831L188.24,57.306L189.44,56.722L190.64,56.045L191.84,55.891L193.04,57.468L194.24,58.98L195.44,54.865L196.64,55.894L197.84,54.85L199.04,52.906L200.24,51.881L201.44,51.628L202.64,54.34L203.84,53.667L205.04,54.11L206.24,53.935L207.44,52.298L208.64,51.067L209.84,54.264L211.05,52.967L212.25,52.081L213.45,54.316L214.65,53.758L215.85,54.822L217.05,54.009L218.25,53.357L219.45,51.539L220.65,51.434L221.85,52.469L223.05,51.967L224.25,52.261L225.45,50.896L226.65,54.046L227.85,53.207L229.05,51.86L230.25,51.761L231.45,51.166L232.65,50.477L233.85,51.036L235.05,51.727L236.25,52.516L237.45,51.596L238.65,52.764L239.85,51.25L241.05,51.154L242.25,51.227L243.46,51.219L244.66,50.312L245.86,50.629L247.06,50.945L248.26,50.574L249.46,50.626L250.66,50.12L251.86,49.53L253.06,49.697L254.26,49.458L255.46,49.741L256.66,49.589L257.86,49.871L259.06,49.517L260.26,50.247L261.46,49.54L262.66,49.591L263.86,49.129L265.06,49.325L266.26,49.051L267.46,49.249L268.66,49.005L269.86,49.007L271.06,49.074L272.26,48.491L273.46,48.484L274.66,48.716L275.86,48.48L277.07,48.693L278.27,48.531L279.47,48.528L280.67,48.311L281.87,48.41L283.07,48.208L284.27,48.267L285.47,48.1L286.67,48.05L287.87,47.965L289.07,47.917L290.27,47.942L291.47,48.05L292.67,47.791L293.87,47.662L295.07,47.48L296.27,47.438L297.47,47.514L298.67,47.457L299.87,47.356L301.07,47.246L302.27,47.424L303.47,47.217L304.67,47.15L305.87,47.093L307.07,47.295L308.27,47.133L309.48,47.139L310.68,47.137L311.88,47.057L313.08,47.04L314.28,46.936L315.48,46.84L316.68,46.778L317.88,46.677L319.08,46.667L320.28,46.627L321.48,46.664L322.68,46.705L323.88,46.591L325.08,46.532L326.28,46.5L327.48,46.492L328.68,46.511L329.88,46.431L331.08,46.397L332.28,46.468L333.48,46.224L334.68,46.407L335.88,46.334L337.08,46.165L338.28,46.268L339.48,46.142L340.68,46.171L341.89,46.177L343.09,46.114L344.29,46.093L345.49,46.07L346.69,46.072L347.89,46.12L349.09,45.99L350.29,45.969L351.49,45.929L352.69,45.958L353.89,46.032L355.09,45.967L356.29,45.829L357.49,45.889L358.69,45.846L359.89,45.846L361.09,45.922L362.29,45.787L363.49,45.811L364.69,45.836L365.89,45.709L367.09,45.701L368.29,45.773L369.49,45.69L370.69,45.714L371.89,45.663L373.09,45.64L374.29,45.566L375.5,45.644L376.7,45.644L377.9,45.642L379.1,45.671L380.3,45.591L381.5,45.577L382.7,45.526L383.9,45.574L385.1,45.566L386.3,45.498L387.5,45.463L388.7,45.522L389.9,45.509L391.1,45.494L392.3,45.494L393.5,45.454L394.7,45.452L395.9,45.45L397.1,45.418L398.3,45.44L399.5,45.423L400.7,45.363L401.9,45.399L403.1,45.442L404.3,45.389L405.5,45.364L406.7,45.364L407.91,45.399L409.11,45.366L410.31,45.351L411.51,45.321L412.71,45.347L413.91,45.347L415.11,45.37L416.31,45.336L417.51,45.34L418.71,45.298L419.91,45.317L421.11,45.321L422.31,45.307L423.51,45.283L424.71,45.271L425.91,45.271L427.11,45.3L428.31,45.288L429.51,45.302L430.71,45.296L431.91,45.267L433.11,45.281L434.31,45.246L435.51,45.239L436.71,45.265L437.91,45.237L439.11,45.243L440.31,45.245L441.52,45.237L442.72,45.231L443.92,45.246L445.12,45.246L446.32,45.262L447.52,45.229L448.72,45.227L449.92,45.205L451.12,45.231L452.32,45.229L453.52,45.214L454.72,45.229L455.92,45.22L457.12,45.205L458.32,45.203L459.52,45.203L460.72,45.233L461.92,45.218L463.12,45.189L464.32,45.188L465.52,45.214L466.72,45.193L467.92,45.214L469.12,45.214L470.32,45.189L471.52,45.186L472.72,45.188L473.93,45.189L475.13,45.184L476.33,45.199L477.53,45.176L478.73,45.182L479.93,45.18L481.13,45.178L482.33,45.174L483.53,45.186L484.73,45.165L485.93,45.172L487.13,45.178L488.33,45.178L489.53,45.178L490.73,45.188L491.93,45.174L493.13,45.172L494.33,45.174L495.53,45.172L496.73,45.174L497.93,45.168L499.13,45.17L500.33,45.168L501.53,45.167L502.73,45.163L503.93,45.159L505.13,45.165L506.34,45.161L507.54,45.161L508.74,45.168L509.94,45.17L511.14,45.159L512.34,45.163L513.54,45.163L514.74,45.161L515.94,45.153L517.14,45.157L518.34,45.159L519.54,45.157L520.74,45.157L521.94,45.161L523.14,45.153L524.34,45.157L525.54,45.163L526.74,45.151L527.94,45.155L529.14,45.153L530.34,45.159L531.54,45.168L532.74,45.159L533.94,45.161L535.14,45.155L536.34,45.157L537.54,45.155L538.74,45.153L539.95,45.153L541.15,45.153L542.35,45.153L543.55,45.151L544.75,45.151L545.95,45.155L547.15,45.153L548.35,45.159L549.55,45.161L550.75,45.153L551.95,45.151L553.15,45.155L554.35,45.157L555.55,45.151L556.75,45.157L557.95,45.155L559.15,45.155L560.35,45.153L561.55,45.155L562.75,45.155L563.95,45.151L566.35,45.153L567.55,45.151L568.75,45.151L569.95,45.155L571.15,45.153L572.36,45.151L578.36,45.151L579.56,45.153L583.16,45.157L584.36,45.151L587.96,45.151L589.16,45.151L591.56,45.151L592.76,45.153L593.96,45.151L595.16,45.151L596.36,45.151L598.76,45.151L599.96,45.151L604.76,45.151L608.37,45.153L609.57,45.151L611.97,45.151L614.37,45.151L615.57,45.151L616.77,45.151L617.97,45.153L625.17,45.151L629.97,45.151L633.57,45.151L641.98,45.153L664.78,45.151L720,45.151" style="fill:none;stroke:#0000FF" />
</g>
</svg>
