<?xml version="1.0"?>
<!-- Generated by SVGo and Plotinum VG -->
<svg width="720pt" height="432pt" viewBox="0 0 720 432"
	xmlns="http://www.w3.org/2000/svg"
	xmlns:xlink="http://www.w3.org/1999/xlink">
<g transform="scale(1, -1) translate(0, -432)">
<path d="M0,0L720,0L720,432L0,432Z" style="fill:#FFFFFF" />
<text x="358.5" y="-420.45" transform="scale(1, -1)"
	style="font-family:Times;font-weight:normal;font-style:normal;font-size:12px"> </text>
<text x="379.31" y="-3.8613" transform="scale(1, -1)"
	style="font-family:Times;font-weight:normal;font-style:normal;font-size:12px">Costs</text>
<text x="56.555" y="-18.634" transform="scale(1, -1)"
	style="font-family:Times;font-weight:normal;font-style:normal;font-size:10px">0.00</text>
<text x="339.21" y="-18.634" transform="scale(1, -1)"
	style="font-family:Times;font-weight:normal;font-style:normal;font-size:10px">250.00</text>
<text x="626.86" y="-18.634" transform="scale(1, -1)"
	style="font-family:Times;font-weight:normal;font-style:normal;font-size:10px">500.00</text>
<path d="M65.305,28.263L65.305,36.263" style="fill:none;stroke:#000000;stroke-width:0.5" />
<path d="M352.96,28.263L352.96,36.263" style="fill:none;stroke:#000000;stroke-width:0.5" />
<path d="M640.61,28.263L640.61,36.263" style="fill:none;stroke:#000000;stroke-width:0.5" />
<path d="M122.84,32.263L122.84,36.263" style="fill:none;stroke:#000000;stroke-width:0.5" />
<path d="M180.37,32.263L180.37,36.263" style="fill:none;stroke:#000000;stroke-width:0.5" />
<path d="M237.9,32.263L237.9,36.263" style="fill:none;stroke:#000000;stroke-width:0.5" />
<path d="M295.43,32.263L295.43,36.263" style="fill:none;stroke:#000000;stroke-width:0.5" />
<path d="M410.49,32.263L410.49,36.263" style="fill:none;stroke:#000000;stroke-width:0.5" />
<path d="M468.02,32.263L468.02,36.263" style="fill:none;stroke:#000000;stroke-width:0.5" />
<path d="M525.55,32.263L525.55,36.263" style="fill:none;stroke:#000000;stroke-width:0.5" />
<path d="M583.08,32.263L583.08,36.263" style="fill:none;stroke:#000000;stroke-width:0.5" />
<path d="M698.14,32.263L698.14,36.263" style="fill:none;stroke:#000000;stroke-width:0.5" />
<path d="M65.305,36.263L720,36.263" style="fill:none;stroke:#000000;stroke-width:0.5" />
<g transform="rotate(90)">
<text x="152.55" y="11.555" transform="scale(1, -1)"
	style="font-family:Times;font-weight:normal;font-style:normal;font-size:12px">Number of trials (1000000 total)</text>
</g>
<text x="24.055" y="-105.3" transform="scale(1, -1)"
	style="font-family:Times;font-weight:normal;font-style:normal;font-size:10px">20000</text>
<text x="24.055" y="-232.02" transform="scale(1, -1)"
	style="font-family:Times;font-weight:normal;font-style:normal;font-size:10px">60000</text>
<text x="19.055" y="-358.74" transform="scale(1, -1)"
	style="font-family:Times;font-weight:normal;font-style:normal;font-size:10px">100000</text>
<path d="M51.555,108.51L59.555,108.51" style="fill:none;stroke:#000000;stroke-width:0.5" />
<path d="M51.555,235.23L59.555,235.23" style="fill:none;stroke:#000000;stroke-width:0.5" />
<path d="M51.555,361.95L59.555,361.95" style="fill:none;stroke:#000000;stroke-width:0.5" />
<path d="M55.555,76.828L59.555,76.828" style="fill:none;stroke:#000000;stroke-width:0.5" />
<path d="M55.555,140.19L59.555,140.19" style="fill:none;stroke:#000000;stroke-width:0.5" />
<path d="M55.555,171.87L59.555,171.87" style="fill:none;stroke:#000000;stroke-width:0.5" />
<path d="M55.555,203.55L59.555,203.55" style="fill:none;stroke:#000000;stroke-width:0.5" />
<path d="M55.555,266.91L59.555,266.91" style="fill:none;stroke:#000000;stroke-width:0.5" />
<path d="M55.555,298.59L59.555,298.59" style="fill:none;stroke:#000000;stroke-width:0.5" />
<path d="M55.555,330.27L59.555,330.27" style="fill:none;stroke:#000000;stroke-width:0.5" />
<path d="M55.555,393.63L59.555,393.63" style="fill:none;stroke:#000000;stroke-width:0.5" />
<path d="M59.555,45.151L59.555,416.58" style="fill:none;stroke:#000000;stroke-width:0.5" />
<path d="M65.305,416.58L95.22,100.13L102.12,51.839L103.27,48.693L104.43,82.961L105.58,147.26L109.03,48.68L110.18,96.181L111.33,55.371L112.48,82.442L115.93,111.69L118.23,78.51L120.53,48.611L121.68,85.888L125.14,45.62L126.29,109.65L127.44,62.566L128.59,52.08L129.74,78.282L130.89,52.048L132.04,52.97L133.19,88.344L134.34,83.896L135.49,96.732L138.94,45.592L140.09,51.921L141.24,47.366L142.4,104.04L143.55,46.213L144.7,55.596L145.85,63.541L147,70.777L148.15,51.209L149.3,52.156L150.45,60.722L151.6,57.377L152.75,56.74L153.9,46.175L155.05,52.916L156.2,74.525L157.35,56.524L158.5,119L159.65,51.478L160.81,60.044L161.96,59.664L163.11,64.324L164.26,51.76L165.41,62.129L166.56,73.163L167.71,52.251L168.86,59.955L170.01,56.442L171.16,58.273L172.31,71.582L173.46,69.443L174.61,69.459L175.76,59.62L176.91,65.613L178.06,56.293L179.21,60.934L180.37,66.035L181.52,58.508L182.67,75.656L183.82,56.116L184.97,55.124L186.12,65.769L187.27,66.215L188.42,65.132L189.57,58.796L190.72,59.116L191.87,58.317L193.02,60.434L194.17,56.607L195.32,63.285L196.47,61.945L197.62,67.017L198.78,76.004L199.93,55.406L201.08,53.265L202.23,56.48L203.38,76.974L204.53,57.361L205.68,58.606L206.83,56.977L207.98,55.026L209.13,65.113L210.28,57.792L211.43,64.153L212.58,60.662L213.73,54.982L214.88,61.511L216.03,54.734L217.18,58.355L218.34,52.64L219.49,65.962L220.64,56.518L221.79,55.387L222.94,61.096L224.09,57.839L225.24,55.751L226.39,63.202L227.54,62.914L228.69,61.406L229.84,54.801L230.99,54.091L232.14,52.97L233.29,58.828L234.44,54.443L235.59,64.596L236.75,54.129L237.9,56.591L239.05,56.844L240.2,58.289L241.35,54.611L242.5,56.23L243.65,58.599L244.8,55.498L245.95,53.724L247.1,54.202L248.25,54.912L249.4,58.302L250.55,56.312L251.7,55.52L252.85,53.521L254,55.669L255.15,54.405L256.31,55.517L257.46,53.404L258.61,54.12L259.76,57.256L260.91,52.602L262.06,53.049L263.21,54.057L264.36,54.326L265.51,55.403L266.66,54.281L267.81,55.666L268.96,52.789L270.11,53.309L271.26,52.308L272.41,53.591L273.56,54.304L274.72,52.482L275.87,54.389L277.02,51.912L278.17,51.57L279.32,53.328L280.47,54.161L281.62,51.734L282.77,51.63L283.92,51.902L285.07,52.035L286.22,51.991L287.37,51.275L288.52,52.466L289.67,52.153L290.82,51.459L291.97,51.243L293.12,50.512L294.28,51.072L295.43,50.711L296.58,52.669L297.73,50.486L298.88,49.995L300.03,50.733L301.18,50.493L302.33,50.008L303.48,51.082L304.63,50.8L305.78,50.794L306.93,49.669L308.08,50.1L309.23,49.644L310.38,50.185L311.53,49.362L312.69,49.666L313.84,49.365L314.99,49.514L316.14,49.384L317.29,49.669L318.44,49.08L319.59,49.447L320.74,49.431L321.89,48.978L323.04,48.801L324.19,49.105L325.34,48.855L326.49,49.14L327.64,48.532L328.79,48.956L329.94,48.658L331.09,48.63L332.25,48.627L333.4,48.392L334.55,48.253L335.7,48.484L336.85,48.627L338,48.221L339.15,47.816L340.3,48.129L341.45,48.24L342.6,47.885L343.75,47.993L344.9,47.993L346.05,47.8L347.2,47.793L348.35,47.524L349.5,47.66L350.66,47.622L351.81,47.575L352.96,47.483L354.11,47.299L355.26,47.214L356.41,47.486L357.56,47.442L358.71,47.287L359.86,47.182L361.01,47.283L362.16,47.049L363.31,47.011L364.46,47.093L365.61,47.027L366.76,47.027L367.91,46.935L369.06,46.751L370.22,46.941L371.37,46.783L372.52,46.878L373.67,46.742L374.82,46.783L375.97,46.596L377.12,46.71L378.27,46.688L379.42,46.463L380.57,46.596L381.72,46.453L382.87,46.485L384.02,46.444L385.17,46.311L386.32,46.419L387.47,46.362L388.63,46.368L389.78,46.355L390.93,46.358L392.08,46.393L393.23,46.213L394.38,46.206L395.53,46.124L396.68,46.092L397.83,46.152L398.98,46.13L400.13,46.102L401.28,46.105L402.43,45.985L403.58,46.143L404.73,45.972L405.88,46.061L407.03,45.896L408.19,45.969L409.34,45.855L410.49,45.905L411.64,45.826L412.79,45.88L413.94,45.874L415.09,45.832L416.24,45.734L417.39,45.807L418.54,45.858L419.69,45.655L420.84,45.69L421.99,45.715L423.14,45.703L424.29,45.633L425.44,45.677L426.6,45.642L427.75,45.649L428.9,45.737L430.05,45.655L431.2,45.617L432.35,45.551L433.5,45.658L434.65,45.627L435.8,45.608L436.95,45.601L438.1,45.573L439.25,45.478L440.4,45.519L441.55,45.513L442.7,45.535L443.85,45.513L445,45.513L446.16,45.5L447.31,45.455L448.46,45.513L449.61,45.452L450.76,45.471L451.91,45.465L453.06,45.398L454.21,45.402L455.36,45.44L456.51,45.424L457.66,45.405L458.81,45.402L459.96,45.36L461.11,45.436L462.26,45.405L463.41,45.383L464.57,45.357L465.72,45.364L466.87,45.367L468.02,45.316L469.17,45.37L470.32,45.354L471.47,45.294L472.62,45.351L473.77,45.36L474.92,45.31L476.07,45.307L477.22,45.275L478.37,45.272L479.52,45.297L480.67,45.31L481.82,45.284L482.97,45.31L484.13,45.281L485.28,45.281L486.43,45.294L487.58,45.259L488.73,45.275L489.88,45.262L491.03,45.24L492.18,45.221L493.33,45.227L494.48,45.246L495.63,45.259L496.78,45.243L497.93,45.253L499.08,45.202L500.23,45.237L501.38,45.231L502.54,45.221L503.69,45.224L504.84,45.218L505.99,45.224L507.14,45.243L508.29,45.25L509.44,45.212L510.59,45.221L511.74,45.202L512.89,45.212L514.04,45.186L515.19,45.224L516.34,45.224L517.49,45.189L518.64,45.212L519.79,45.183L520.95,45.193L522.1,45.199L523.25,45.177L524.4,45.177L525.55,45.177L526.7,45.18L527.85,45.177L529,45.18L530.15,45.193L531.3,45.199L532.45,45.183L533.6,45.183L534.75,45.183L535.9,45.183L537.05,45.161L538.2,45.17L539.35,45.17L540.51,45.18L541.66,45.167L542.81,45.177L543.96,45.174L545.11,45.18L546.26,45.158L547.41,45.18L548.56,45.161L549.71,45.177L550.86,45.177L552.01,45.158L553.16,45.18L554.31,45.174L555.46,45.158L556.61,45.177L557.76,45.155L558.92,45.17L560.07,45.155L561.22,45.155L562.37,45.155L563.52,45.161L564.67,45.158L565.82,45.158L566.97,45.158L568.12,45.17L569.27,45.158L570.42,45.17L571.57,45.158L572.72,45.158L573.87,45.151L575.02,45.155L576.17,45.167L577.32,45.164L578.48,45.158L579.63,45.164L580.78,45.158L581.93,45.161L583.08,45.155L584.23,45.151L585.38,45.151L586.53,45.151L587.68,45.151L588.83,45.155L589.98,45.155L591.13,45.155L592.28,45.164L593.43,45.151L594.58,45.161L595.73,45.155L598.04,45.151L599.19,45.151L600.34,45.151L601.49,45.155L603.79,45.151L607.24,45.155L608.39,45.158L609.54,45.155L612.99,45.155L614.14,45.151L616.45,45.155L617.6,45.151L619.9,45.151L625.65,45.151L627.95,45.151L633.7,45.151L637.16,45.155L639.46,45.151L640.61,45.151L641.76,45.155L644.06,45.151L645.21,45.151L646.36,45.151L648.66,45.151L649.81,45.155L653.26,45.151L654.42,45.151L656.72,45.151L670.52,45.151L675.13,45.151L676.28,45.151L678.58,45.151L710.8,45.151L720,45.151" style="fill:none;stroke:#0000FF" />
</g>
</svg>
