<?xml version="1.0"?>
<!-- Generated by SVGo and Plotinum VG -->
<svg width="720pt" height="432pt" viewBox="0 0 720 432"
	xmlns="http://www.w3.org/2000/svg"
	xmlns:xlink="http://www.w3.org/1999/xlink">
<g transform="scale(1, -1) translate(0, -432)">
<path d="M0,0L720,0L720,432L0,432Z" style="fill:#FFFFFF" />
<text x="358.5" y="-420.45" transform="scale(1, -1)"
	style="font-family:Times;font-weight:normal;font-style:normal;font-size:12px"> </text>
<text x="379.31" y="-3.8613" transform="scale(1, -1)"
	style="font-family:Times;font-weight:normal;font-style:normal;font-size:12px">Costs</text>
<text x="62.805" y="-18.634" transform="scale(1, -1)"
	style="font-family:Times;font-weight:normal;font-style:normal;font-size:10px">0</text>
<text x="322.33" y="-18.634" transform="scale(1, -1)"
	style="font-family:Times;font-weight:normal;font-style:normal;font-size:10px">200</text>
<text x="586.85" y="-18.634" transform="scale(1, -1)"
	style="font-family:Times;font-weight:normal;font-style:normal;font-size:10px">400</text>
<path d="M65.305,28.263L65.305,36.263" style="fill:none;stroke:#000000;stroke-width:0.5" />
<path d="M329.83,28.263L329.83,36.263" style="fill:none;stroke:#000000;stroke-width:0.5" />
<path d="M594.35,28.263L594.35,36.263" style="fill:none;stroke:#000000;stroke-width:0.5" />
<path d="M197.57,32.263L197.57,36.263" style="fill:none;stroke:#000000;stroke-width:0.5" />
<path d="M462.09,32.263L462.09,36.263" style="fill:none;stroke:#000000;stroke-width:0.5" />
<path d="M65.305,36.263L720,36.263" style="fill:none;stroke:#000000;stroke-width:0.5" />
<g transform="rotate(90)">
<text x="152.55" y="11.555" transform="scale(1, -1)"
	style="font-family:Times;font-weight:normal;font-style:normal;font-size:12px">Number of trials (1000000 total)</text>
</g>
<text x="24.055" y="-114.52" transform="scale(1, -1)"
	style="font-family:Times;font-weight:normal;font-style:normal;font-size:10px">40000</text>
<text x="19.055" y="-259.68" transform="scale(1, -1)"
	style="font-family:Times;font-weight:normal;font-style:normal;font-size:10px">120000</text>
<text x="19.055" y="-404.84" transform="scale(1, -1)"
	style="font-family:Times;font-weight:normal;font-style:normal;font-size:10px">200000</text>
<path d="M51.555,117.73L59.555,117.73" style="fill:none;stroke:#000000;stroke-width:0.5" />
<path d="M51.555,262.89L59.555,262.89" style="fill:none;stroke:#000000;stroke-width:0.5" />
<path d="M51.555,408.05L59.555,408.05" style="fill:none;stroke:#000000;stroke-width:0.5" />
<path d="M55.555,190.31L59.555,190.31" style="fill:none;stroke:#000000;stroke-width:0.5" />
<path d="M55.555,335.47L59.555,335.47" style="fill:none;stroke:#000000;stroke-width:0.5" />
<path d="M59.555,45.151L59.555,416.58" style="fill:none;stroke:#000000;stroke-width:0.5" />
<path d="M65.305,416.58L94.402,48.457L101.02,62.707L103.66,51.892L106.31,78.573L107.63,58.849L108.95,48.354L110.27,62.473L111.6,58.914L114.24,63.287L115.56,48.644L116.89,72.051L118.21,73.84L119.53,81.082L120.85,84.55L122.18,51.974L123.5,55.541L124.82,63.518L128.79,48.425L130.11,64.129L131.44,55.703L132.76,70.552L135.4,83.758L136.73,52.308L138.05,48.644L139.37,70.848L140.69,67.06L142.02,46.717L143.34,64.245L144.66,52.709L145.98,67.823L147.31,82.909L148.63,68.023L149.95,47.095L151.27,47.131L152.6,48.806L153.92,47.302L155.24,49.198L156.57,49.27L157.89,49.121L159.21,54.286L160.53,51.448L161.86,70.322L163.18,50.241L164.5,50.154L165.82,52.469L167.15,68.27L168.47,50.386L169.79,51.264L171.11,53.823L172.44,64.345L173.76,54.396L175.08,53.738L176.4,55.447L177.73,52.547L179.05,52.157L180.37,52.529L181.69,54.418L183.02,51.834L184.34,56.472L185.66,54.703L186.99,55.723L188.31,58.528L189.63,56.86L190.95,56.285L192.28,55.538L193.6,54.11L194.92,56.109L196.24,53.075L197.57,54.797L198.89,55.258L200.21,57.25L201.53,55.371L202.86,58.829L204.18,52.451L205.5,52.42L206.82,52.776L208.15,53.179L209.47,50.758L210.79,53.632L212.12,51.776L213.44,56.327L214.76,54.554L216.08,53.995L217.41,55.298L218.73,53.886L220.05,51.796L221.37,54.336L222.7,53.36L224.02,50.974L225.34,51.328L226.66,52.66L227.99,51.86L229.31,52.331L230.63,51.048L231.95,51.838L233.28,49.562L234.6,50.027L235.92,49.853L237.24,52.063L238.57,49.504L239.89,50.996L241.21,50.932L242.54,52.317L243.86,51.451L245.18,51.241L246.5,50.446L247.83,50.696L249.15,51.059L250.47,50.66L251.79,49.577L253.12,50.07L254.44,50.718L255.76,50.324L257.08,49.425L258.41,49.742L259.73,49.617L261.05,49.348L262.37,49.53L263.7,50.114L265.02,49.296L266.34,49.448L267.67,49.666L268.99,49.804L270.31,49.406L271.63,49.19L272.96,49.611L274.28,49.633L275.6,48.88L276.92,48.818L278.25,48.902L279.57,48.388L280.89,48.891L282.21,48.706L283.54,48.724L284.86,48.75L286.18,48.606L287.5,48.37L288.83,48.441L290.15,48.439L291.47,48.307L292.79,48.283L294.12,48.287L295.44,48.325L296.76,48.274L298.09,48.138L299.41,48.114L300.73,47.904L302.05,47.886L303.38,47.634L304.7,47.757L306.02,47.381L307.34,47.467L308.67,47.472L309.99,47.608L311.31,47.463L312.63,47.36L313.96,47.175L315.28,47.39L316.6,47.207L317.92,47.133L319.25,47.253L320.57,47.207L321.89,47.109L323.21,47.02L324.54,47.04L325.86,46.999L327.18,46.975L328.51,46.957L329.83,46.951L331.15,46.768L332.47,46.663L333.8,46.65L335.12,46.567L336.44,46.614L337.76,46.625L339.09,46.563L340.41,46.498L341.73,46.568L343.05,46.369L344.38,46.559L345.7,46.483L347.02,46.478L348.34,46.362L349.67,46.411L350.99,46.345L352.31,46.264L353.64,46.255L354.96,46.322L356.28,46.258L357.6,46.249L358.93,46.118L360.25,46.12L361.57,46.106L362.89,46.059L364.22,46.124L365.54,46.037L366.86,46.026L368.18,46.048L369.51,46.024L370.83,46.026L372.15,45.95L373.47,45.977L374.8,45.924L376.12,45.861L377.44,45.953L378.76,45.906L380.09,45.81L381.41,45.737L382.73,45.774L384.06,45.794L385.38,45.75L386.7,45.754L388.02,45.707L389.35,45.71L390.67,45.688L391.99,45.652L393.31,45.681L394.64,45.674L395.96,45.643L397.28,45.632L398.6,45.632L399.93,45.616L401.25,45.625L402.57,45.634L403.89,45.536L405.22,45.561L406.54,45.512L407.86,45.522L409.19,45.536L410.51,45.496L411.83,45.527L413.15,45.531L414.48,45.463L415.8,45.425L417.12,45.511L418.44,45.482L419.77,45.489L421.09,45.42L422.41,45.449L423.73,45.467L425.06,45.407L426.38,45.431L427.7,45.434L429.02,45.387L430.35,45.413L431.67,45.36L432.99,45.38L434.31,45.356L435.64,45.385L436.96,45.34L438.28,45.356L439.61,45.376L440.93,45.347L442.25,45.369L443.57,45.32L444.9,45.295L446.22,45.316L447.54,45.322L448.86,45.307L450.19,45.315L451.51,45.298L452.83,45.275L454.15,45.309L455.48,45.293L456.8,45.271L458.12,45.278L459.44,45.289L460.77,45.257L462.09,45.293L463.41,45.264L464.73,45.228L466.06,45.248L467.38,45.255L468.7,45.26L470.03,45.271L471.35,45.26L472.67,45.217L473.99,45.235L475.32,45.222L476.64,45.22L477.96,45.229L479.28,45.226L480.61,45.246L481.93,45.217L483.25,45.228L484.57,45.228L485.9,45.213L487.22,45.195L488.54,45.215L489.86,45.219L491.19,45.184L492.51,45.209L493.83,45.215L495.16,45.211L496.48,45.208L497.8,45.177L499.12,45.197L500.45,45.189L501.77,45.204L503.09,45.206L504.41,45.206L505.74,45.195L507.06,45.184L508.38,45.186L509.7,45.179L511.03,45.193L512.35,45.184L513.67,45.199L514.99,45.191L516.32,45.175L517.64,45.177L518.96,45.184L520.28,45.175L521.61,45.182L522.93,45.173L524.25,45.182L525.58,45.175L526.9,45.177L528.22,45.17L529.54,45.17L530.87,45.168L532.19,45.182L533.51,45.162L534.83,45.157L536.16,45.168L537.48,45.164L538.8,45.162L540.12,45.168L541.45,45.168L542.77,45.173L544.09,45.166L545.41,45.175L546.74,45.17L548.06,45.173L549.38,45.17L550.71,45.159L552.03,45.166L553.35,45.16L554.67,45.157L556,45.164L557.32,45.162L558.64,45.155L559.96,45.168L561.29,45.157L562.61,45.153L563.93,45.164L566.58,45.151L567.9,45.159L569.22,45.159L570.54,45.157L571.87,45.159L573.19,45.155L574.51,45.153L575.83,45.162L577.16,45.16L578.48,45.155L579.8,45.151L581.13,45.155L582.45,45.157L583.77,45.151L585.09,45.151L586.42,45.153L587.74,45.155L591.71,45.153L593.03,45.153L594.35,45.155L595.67,45.155L597,45.16L598.32,45.155L599.64,45.155L602.29,45.153L603.61,45.151L604.93,45.159L606.25,45.151L608.9,45.151L610.22,45.159L611.55,45.151L612.87,45.157L615.51,45.151L616.84,45.151L618.16,45.157L619.48,45.151L620.8,45.151L622.13,45.151L623.45,45.153L627.42,45.151L628.74,45.155L630.06,45.151L634.03,45.153L636.68,45.151L638,45.155L641.97,45.151L644.61,45.151L645.93,45.151L647.26,45.153L649.9,45.151L652.55,45.151L661.8,45.151L663.13,45.151L671.06,45.151L672.39,45.153L704.13,45.151L708.1,45.151L718.68,45.151L720,45.151" style="fill:none;stroke:#0000FF" />
</g>
</svg>
