<?xml version="1.0"?>
<!-- Generated by SVGo and Plotinum VG -->
<svg width="720pt" height="432pt" viewBox="0 0 720 432"
	xmlns="http://www.w3.org/2000/svg"
	xmlns:xlink="http://www.w3.org/1999/xlink">
<g transform="scale(1, -1) translate(0, -432)">
<path d="M0,0L720,0L720,432L0,432Z" style="fill:#FFFFFF" />
<text x="358.5" y="-420.45" transform="scale(1, -1)"
	style="font-family:Times;font-weight:normal;font-style:normal;font-size:12px"> </text>
<text x="379.31" y="-3.8613" transform="scale(1, -1)"
	style="font-family:Times;font-weight:normal;font-style:normal;font-size:12px">Costs</text>
<text x="56.555" y="-18.634" transform="scale(1, -1)"
	style="font-family:Times;font-weight:normal;font-style:normal;font-size:10px">0.00</text>
<text x="356.35" y="-18.634" transform="scale(1, -1)"
	style="font-family:Times;font-weight:normal;font-style:normal;font-size:10px">250.00</text>
<text x="661.14" y="-18.634" transform="scale(1, -1)"
	style="font-family:Times;font-weight:normal;font-style:normal;font-size:10px">500.00</text>
<path d="M65.305,28.263L65.305,36.263" style="fill:none;stroke:#000000;stroke-width:0.5" />
<path d="M370.1,28.263L370.1,36.263" style="fill:none;stroke:#000000;stroke-width:0.5" />
<path d="M674.89,28.263L674.89,36.263" style="fill:none;stroke:#000000;stroke-width:0.5" />
<path d="M126.26,32.263L126.26,36.263" style="fill:none;stroke:#000000;stroke-width:0.5" />
<path d="M187.22,32.263L187.22,36.263" style="fill:none;stroke:#000000;stroke-width:0.5" />
<path d="M248.18,32.263L248.18,36.263" style="fill:none;stroke:#000000;stroke-width:0.5" />
<path d="M309.14,32.263L309.14,36.263" style="fill:none;stroke:#000000;stroke-width:0.5" />
<path d="M431.06,32.263L431.06,36.263" style="fill:none;stroke:#000000;stroke-width:0.5" />
<path d="M492.01,32.263L492.01,36.263" style="fill:none;stroke:#000000;stroke-width:0.5" />
<path d="M552.97,32.263L552.97,36.263" style="fill:none;stroke:#000000;stroke-width:0.5" />
<path d="M613.93,32.263L613.93,36.263" style="fill:none;stroke:#000000;stroke-width:0.5" />
<path d="M65.305,36.263L720,36.263" style="fill:none;stroke:#000000;stroke-width:0.5" />
<g transform="rotate(90)">
<text x="152.55" y="11.555" transform="scale(1, -1)"
	style="font-family:Times;font-weight:normal;font-style:normal;font-size:12px">Number of trials (1000000 total)</text>
</g>
<text x="24.055" y="-106.77" transform="scale(1, -1)"
	style="font-family:Times;font-weight:normal;font-style:normal;font-size:10px">20000</text>
<text x="24.055" y="-236.41" transform="scale(1, -1)"
	style="font-family:Times;font-weight:normal;font-style:normal;font-size:10px">60000</text>
<text x="19.055" y="-366.06" transform="scale(1, -1)"
	style="font-family:Times;font-weight:normal;font-style:normal;font-size:10px">100000</text>
<path d="M51.555,109.97L59.555,109.97" style="fill:none;stroke:#000000;stroke-width:0.5" />
<path d="M51.555,239.62L59.555,239.62" style="fill:none;stroke:#000000;stroke-width:0.5" />
<path d="M51.555,369.27L59.555,369.27" style="fill:none;stroke:#000000;stroke-width:0.5" />
<path d="M55.555,77.56L59.555,77.56" style="fill:none;stroke:#000000;stroke-width:0.5" />
<path d="M55.555,142.38L59.555,142.38" style="fill:none;stroke:#000000;stroke-width:0.5" />
<path d="M55.555,174.8L59.555,174.8" style="fill:none;stroke:#000000;stroke-width:0.5" />
<path d="M55.555,207.21L59.555,207.21" style="fill:none;stroke:#000000;stroke-width:0.5" />
<path d="M55.555,272.03L59.555,272.03" style="fill:none;stroke:#000000;stroke-width:0.5" />
<path d="M55.555,304.44L59.555,304.44" style="fill:none;stroke:#000000;stroke-width:0.5" />
<path d="M55.555,336.85L59.555,336.85" style="fill:none;stroke:#000000;stroke-width:0.5" />
<path d="M55.555,401.68L59.555,401.68" style="fill:none;stroke:#000000;stroke-width:0.5" />
<path d="M59.555,45.151L59.555,416.58" style="fill:none;stroke:#000000;stroke-width:0.5" />
<path d="M65.305,416.58L92.126,71.217L93.346,52.049L98.222,59.063L99.442,66.984L100.66,48.477L101.88,52.062L103.1,52.026L104.32,48.817L105.54,55.556L106.76,131.7L107.98,69.428L110.41,59.516L111.63,84.947L112.85,99.574L114.07,98.232L115.29,67.13L116.51,88.227L117.73,84.509L118.95,88.499L120.17,45.68L121.39,78.033L125.04,71.842L126.26,50.493L127.48,95.095L128.7,45.667L129.92,59.617L131.14,63.072L132.36,50.039L133.58,80.419L134.8,55.62L136.02,46.36L137.24,50.331L138.46,48.982L139.67,72.29L140.89,100.46L142.11,79.103L143.33,51.248L144.55,52.664L145.77,54.894L146.99,54.619L148.21,59.072L149.43,56.295L150.65,52.613L151.87,60.797L153.09,61.798L154.3,68.708L155.52,65.794L156.74,58.46L157.96,63.918L159.18,71.979L160.4,70.86L161.62,65.224L162.84,67.386L164.06,94.126L165.28,64.822L166.5,70.164L167.72,68.955L168.93,72.439L170.15,62.252L171.37,59.552L172.59,63.629L173.81,64.19L175.03,70.75L176.25,64.116L177.47,58.774L178.69,63.691L179.91,61.325L181.13,69.567L182.35,69.152L183.56,68.585L184.78,57.523L186,58.411L187.22,66.621L188.44,62.871L189.66,64.278L190.88,62.424L192.1,61.788L193.32,65.82L194.54,60.777L195.76,61.399L196.98,58.333L198.19,57.617L199.41,55.844L200.63,59.247L201.85,60.291L203.07,62.291L204.29,59.934L205.51,65.464L206.73,60.777L207.95,60.466L209.17,62.064L210.39,63.237L211.61,61.694L212.82,60.618L214.04,59.435L215.26,63.808L216.48,64.051L217.7,64.261L218.92,56.658L220.14,59.96L221.36,57.828L222.58,57.805L223.8,59.588L225.02,58.019L226.24,60.975L227.45,57.549L228.67,59.62L229.89,59.195L231.11,58.2L232.33,59.636L233.55,57.568L234.77,58.696L235.99,57.831L237.21,57.085L238.43,58.126L239.65,60.08L240.87,58.528L242.08,56.508L243.3,56.703L244.52,56.473L245.74,55.274L246.96,55.585L248.18,55.034L249.4,55.478L250.62,55.714L251.84,55.857L253.06,55.377L254.28,55.131L255.5,55.014L256.71,55.539L257.93,55.983L259.15,55.497L260.37,53.838L261.59,54.645L262.81,54.625L264.03,54.052L265.25,54.1L266.47,54.01L267.69,54.408L268.91,53.792L270.13,53.309L271.34,53.267L272.56,53.206L273.78,53.345L275,52.898L276.22,52.648L277.44,53.063L278.66,52.194L279.88,53.374L281.1,52.943L282.32,53.047L283.54,51.997L284.76,51.728L285.97,52.515L287.19,52.282L288.41,51.796L289.63,51.352L290.85,51.394L292.07,52.068L293.29,51.161L294.51,51.028L295.73,50.888L296.95,50.814L298.17,50.982L299.39,50.561L300.6,50.716L301.82,50.61L303.04,50.493L304.26,50.619L305.48,50.551L306.7,50.532L307.92,50.311L309.14,50.23L310.36,49.965L311.58,49.835L312.8,49.556L314.02,49.712L315.23,49.469L316.45,49.796L317.67,49.083L318.89,49.303L320.11,49.375L321.33,49.303L322.55,48.924L323.77,49.018L324.99,48.843L326.21,48.756L327.43,48.824L328.65,48.995L329.86,48.681L331.08,48.665L332.3,48.616L333.52,48.726L334.74,48.389L335.96,48.247L337.18,48.211L338.4,48.059L339.62,48.02L340.84,48.088L342.06,47.971L343.28,47.994L344.5,47.874L345.71,47.965L346.93,47.835L348.15,47.731L349.37,47.641L350.59,47.598L351.81,47.336L353.03,47.42L354.25,47.417L355.47,47.423L356.69,47.349L357.91,47.261L359.13,47.197L360.34,47.122L361.56,47.222L362.78,47.158L364,47.06L365.22,47.022L366.44,46.97L367.66,46.944L368.88,46.795L370.1,46.872L371.32,46.811L372.54,46.71L373.76,46.701L374.97,46.668L376.19,46.652L377.41,46.594L378.63,46.574L379.85,46.522L381.07,46.516L382.29,46.419L383.51,46.503L384.73,46.415L385.95,46.406L387.17,46.454L388.39,46.234L389.6,46.341L390.82,46.286L392.04,46.357L393.26,46.143L394.48,46.221L395.7,46.15L396.92,46.137L398.14,46.114L399.36,46.137L400.58,46.091L401.8,46.046L403.02,46.043L404.23,45.942L405.45,46.014L406.67,45.971L407.89,45.894L409.11,45.926L410.33,45.978L411.55,45.971L412.77,45.829L413.99,45.77L415.21,45.838L416.43,45.803L417.65,45.767L418.86,45.761L420.08,45.764L421.3,45.761L422.52,45.748L423.74,45.641L424.96,45.612L426.18,45.683L427.4,45.725L428.62,45.595L429.84,45.586L431.06,45.602L432.28,45.582L433.49,45.634L434.71,45.592L435.93,45.524L437.15,45.514L438.37,45.531L439.59,45.553L440.81,45.508L442.03,45.492L443.25,45.566L444.47,45.485L445.69,45.492L446.91,45.514L448.12,45.45L449.34,45.414L450.56,45.43L451.78,45.488L453,45.417L454.22,45.433L455.44,45.362L456.66,45.43L457.88,45.398L459.1,45.404L460.32,45.427L461.54,45.385L462.75,45.44L463.97,45.346L465.19,45.359L466.41,45.333L467.63,45.372L468.85,45.359L470.07,45.323L471.29,45.385L472.51,45.33L473.73,45.313L474.95,45.313L476.17,45.317L477.38,45.297L478.6,45.346L479.82,45.291L481.04,45.33L482.26,45.268L483.48,45.271L484.7,45.278L485.92,45.249L487.14,45.229L488.36,45.271L489.58,45.258L490.8,45.281L492.01,45.245L493.23,45.262L494.45,45.236L495.67,45.262L496.89,45.242L498.11,45.258L499.33,45.226L500.55,45.232L501.77,45.213L502.99,45.236L504.21,45.226L505.43,45.219L506.64,45.242L507.86,45.216L509.08,45.206L510.3,45.216L511.52,45.21L512.74,45.2L513.96,45.216L515.18,45.226L516.4,45.187L517.62,45.229L518.84,45.197L520.06,45.206L521.27,45.213L522.49,45.187L523.71,45.194L524.93,45.2L526.15,45.19L527.37,45.171L528.59,45.187L529.81,45.197L531.03,45.171L532.25,45.21L533.47,45.184L534.69,45.203L535.91,45.174L537.12,45.184L538.34,45.174L539.56,45.174L540.78,45.181L542,45.168L543.22,45.181L544.44,45.177L545.66,45.184L546.88,45.177L548.1,45.161L549.32,45.164L550.54,45.164L551.75,45.168L552.97,45.187L554.19,45.181L555.41,45.168L556.63,45.158L557.85,45.177L559.07,45.171L560.29,45.174L561.51,45.174L562.73,45.171L563.95,45.151L565.17,45.155L566.38,45.174L567.6,45.164L568.82,45.164L570.04,45.155L571.26,45.161L572.48,45.158L573.7,45.161L574.92,45.155L576.14,45.158L577.36,45.155L578.58,45.164L579.8,45.155L581.01,45.151L582.23,45.155L583.45,45.164L584.67,45.155L585.89,45.158L587.11,45.164L588.33,45.151L589.55,45.155L590.77,45.151L591.99,45.155L594.43,45.151L595.64,45.161L596.86,45.161L598.08,45.158L599.3,45.161L600.52,45.158L601.74,45.155L602.96,45.158L604.18,45.155L605.4,45.161L609.06,45.151L610.27,45.151L611.49,45.151L612.71,45.155L613.93,45.158L617.59,45.151L618.81,45.151L620.03,45.151L622.47,45.151L623.69,45.155L626.12,45.151L627.34,45.151L628.56,45.151L631,45.155L632.22,45.151L633.44,45.151L638.32,45.151L640.75,45.151L648.07,45.151L650.51,45.151L651.73,45.151L661.48,45.155L670.01,45.155L672.45,45.151L689.52,45.151L693.18,45.151L694.4,45.151L707.81,45.151L720,45.151" style="fill:none;stroke:#0000FF" />
</g>
</svg>
