<?xml version="1.0"?>
<!-- Generated by SVGo and Plotinum VG -->
<svg width="720pt" height="432pt" viewBox="0 0 720 432"
	xmlns="http://www.w3.org/2000/svg"
	xmlns:xlink="http://www.w3.org/1999/xlink">
<g transform="scale(1, -1) translate(0, -432)">
<path d="M0,0L720,0L720,432L0,432Z" style="fill:#FFFFFF" />
<text x="358.5" y="-420.45" transform="scale(1, -1)"
	style="font-family:Times;font-weight:normal;font-style:normal;font-size:12px"> </text>
<text x="379.95" y="-3.8613" transform="scale(1, -1)"
	style="font-family:Times;font-weight:normal;font-style:normal;font-size:12px">Costs</text>
<text x="69.055" y="-18.634" transform="scale(1, -1)"
	style="font-family:Times;font-weight:normal;font-style:normal;font-size:10px">0.00</text>
<text x="378.28" y="-18.634" transform="scale(1, -1)"
	style="font-family:Times;font-weight:normal;font-style:normal;font-size:10px">250.00</text>
<text x="692.5" y="-18.634" transform="scale(1, -1)"
	style="font-family:Times;font-weight:normal;font-style:normal;font-size:10px">500.00</text>
<path d="M77.805,28.263L77.805,36.263" style="fill:none;stroke:#000000;stroke-width:0.5" />
<path d="M392.03,28.263L392.03,36.263" style="fill:none;stroke:#000000;stroke-width:0.5" />
<path d="M706.25,28.263L706.25,36.263" style="fill:none;stroke:#000000;stroke-width:0.5" />
<path d="M140.65,32.263L140.65,36.263" style="fill:none;stroke:#000000;stroke-width:0.5" />
<path d="M203.49,32.263L203.49,36.263" style="fill:none;stroke:#000000;stroke-width:0.5" />
<path d="M266.34,32.263L266.34,36.263" style="fill:none;stroke:#000000;stroke-width:0.5" />
<path d="M329.18,32.263L329.18,36.263" style="fill:none;stroke:#000000;stroke-width:0.5" />
<path d="M454.87,32.263L454.87,36.263" style="fill:none;stroke:#000000;stroke-width:0.5" />
<path d="M517.72,32.263L517.72,36.263" style="fill:none;stroke:#000000;stroke-width:0.5" />
<path d="M580.56,32.263L580.56,36.263" style="fill:none;stroke:#000000;stroke-width:0.5" />
<path d="M643.41,32.263L643.41,36.263" style="fill:none;stroke:#000000;stroke-width:0.5" />
<path d="M77.805,36.263L708.76,36.263" style="fill:none;stroke:#000000;stroke-width:0.5" />
<g transform="rotate(90)">
<text x="152.55" y="11.555" transform="scale(1, -1)"
	style="font-family:Times;font-weight:normal;font-style:normal;font-size:12px">Number of trials (1000000 total)</text>
</g>
<text x="24.055" y="-81.081" transform="scale(1, -1)"
	style="font-family:Times;font-weight:normal;font-style:normal;font-size:10px">25000.00</text>
<text x="19.055" y="-237.63" transform="scale(1, -1)"
	style="font-family:Times;font-weight:normal;font-style:normal;font-size:10px">125000.00</text>
<text x="19.055" y="-394.17" transform="scale(1, -1)"
	style="font-family:Times;font-weight:normal;font-style:normal;font-size:10px">225000.00</text>
<path d="M64.055,84.286L72.055,84.286" style="fill:none;stroke:#000000;stroke-width:0.5" />
<path d="M64.055,240.83L72.055,240.83" style="fill:none;stroke:#000000;stroke-width:0.5" />
<path d="M64.055,397.38L72.055,397.38" style="fill:none;stroke:#000000;stroke-width:0.5" />
<path d="M68.055,162.56L72.055,162.56" style="fill:none;stroke:#000000;stroke-width:0.5" />
<path d="M68.055,319.11L72.055,319.11" style="fill:none;stroke:#000000;stroke-width:0.5" />
<path d="M72.055,45.151L72.055,416.58" style="fill:none;stroke:#000000;stroke-width:0.5" />
<path d="M77.805,416.58L105.46,48.647L111.74,88.156L113,66.064L114.25,52.143L116.77,59.5L118.03,58.992L119.28,62.057L120.54,86.788L121.8,51.897L123.05,48.465L124.31,55.8L125.57,55.645L126.82,51.886L128.08,73.482L129.34,84.729L130.59,91.553L131.85,62.63L133.11,59.458L138.14,48.527L139.39,45.549L140.65,52.268L141.91,73.719L144.42,70.15L145.68,67.376L146.93,47.645L148.19,53.404L149.45,45.615L150.7,46.887L151.96,58.265L153.22,48.24L154.48,62.24L155.73,84.905L156.99,68.885L158.25,48.021L159.5,49.458L160.76,48.779L162.02,54.751L163.27,53.966L164.53,55.048L165.79,52.27L167.04,58.729L168.3,50.499L169.56,54.38L170.81,52.976L172.07,54.544L173.33,53.447L174.59,50.721L175.84,53.174L177.1,50.45L178.36,55.184L179.61,68.553L180.87,53.426L182.13,54.317L183.38,53.768L184.64,54.264L185.9,51.095L187.15,50.934L188.41,51.169L189.67,52.492L190.92,53.633L192.18,52.34L193.44,51.945L194.7,54.981L195.95,54.954L197.21,56.614L198.47,55.953L199.72,52.367L200.98,49.898L202.24,49.43L203.49,50.223L204.75,51.293L206.01,52.85L207.26,54.848L208.52,56.51L209.78,54.09L211.04,50.227L212.29,50.751L213.55,49.998L214.81,49.672L216.06,49.596L217.32,48.716L218.58,51.463L219.83,52.813L221.09,51.357L222.35,52.977L223.6,51.297L224.86,49.804L226.12,49.344L227.37,48.667L228.63,48.896L229.89,50.732L231.15,51.504L232.4,51.618L233.66,51.169L234.92,50.978L236.17,48.717L237.43,48.591L238.69,48.213L239.94,48.971L241.2,48.821L242.46,49.023L243.71,49.704L244.97,49.092L246.23,49.915L247.48,49.541L248.74,48.847L250,48.938L251.26,48.475L252.51,48.188L253.77,48.271L255.03,47.902L256.28,48.677L257.54,49.857L258.8,49.095L260.05,48.204L261.31,48.386L262.57,48.411L263.82,48.037L265.08,48.001L266.34,47.686L267.6,47.557L268.85,47.874L270.11,47.611L271.37,47.905L272.62,47.946L273.88,48.126L275.14,47.894L276.39,47.781L277.65,47.349L278.91,47.016L280.16,47.133L281.42,47.11L282.68,47.313L283.93,47.404L285.19,47.468L286.45,47.521L287.71,47.276L288.96,47.083L290.22,46.864L291.48,46.728L292.73,46.851L293.99,46.809L295.25,46.659L296.5,46.931L297.76,46.972L299.02,47.124L300.27,46.812L301.53,46.65L302.79,46.471L304.04,46.361L305.3,46.318L306.56,46.368L307.82,46.405L309.07,46.592L310.33,46.679L311.59,46.618L312.84,46.413L314.1,46.285L315.36,46.213L316.61,46.152L317.87,46.066L319.13,46.138L320.38,46.119L321.64,46.219L322.9,46.192L324.16,46.222L325.41,46.156L326.67,46.098L327.93,45.943L329.18,45.939L330.44,45.915L331.7,45.907L332.95,45.961L334.21,45.892L335.47,45.961L336.72,45.945L337.98,45.787L339.24,45.837L340.49,45.814L341.75,45.782L343.01,45.759L344.27,45.745L345.52,45.748L346.78,45.698L348.04,45.765L349.29,45.693L350.55,45.803L351.81,45.712L353.06,45.735L354.32,45.619L355.58,45.615L356.83,45.651L358.09,45.524L359.35,45.555L360.61,45.634L361.86,45.565L363.12,45.635L364.38,45.594L365.63,45.536L366.89,45.524L368.15,45.488L369.4,45.519L370.66,45.464L371.92,45.428L373.17,45.464L374.43,45.477L375.69,45.477L376.94,45.475L378.2,45.446L379.46,45.416L380.72,45.389L381.97,45.422L383.23,45.371L384.49,45.383L385.74,45.392L387,45.399L388.26,45.386L389.51,45.397L390.77,45.358L392.03,45.367L393.28,45.325L394.54,45.349L395.8,45.311L397.05,45.319L398.31,45.345L399.57,45.324L400.83,45.314L402.08,45.308L403.34,45.305L404.6,45.319L405.85,45.277L407.11,45.258L408.37,45.264L409.62,45.284L410.88,45.273L412.14,45.261L413.39,45.258L414.65,45.277L415.91,45.259L417.17,45.266L418.42,45.259L419.68,45.25L420.94,45.242L422.19,45.248L423.45,45.23L424.71,45.225L425.96,45.223L427.22,45.245L428.48,45.231L429.73,45.214L430.99,45.211L432.25,45.216L433.5,45.205L434.76,45.212L436.02,45.192L437.28,45.217L438.53,45.209L439.79,45.191L441.05,45.2L442.3,45.211L443.56,45.191L444.82,45.184L446.07,45.2L447.33,45.195L448.59,45.191L449.84,45.201L451.1,45.198L452.36,45.197L453.61,45.189L454.87,45.191L456.13,45.192L457.39,45.175L458.64,45.184L459.9,45.169L461.16,45.184L462.41,45.183L463.67,45.186L464.93,45.176L466.18,45.176L467.44,45.173L468.7,45.176L469.95,45.175L471.21,45.173L472.47,45.164L473.73,45.175L474.98,45.159L476.24,45.173L477.5,45.183L478.75,45.176L480.01,45.165L481.27,45.162L482.52,45.161L483.78,45.165L485.04,45.173L486.29,45.164L487.55,45.162L488.81,45.161L490.06,45.161L491.32,45.17L492.58,45.158L493.84,45.159L495.09,45.153L496.35,45.167L497.61,45.165L498.86,45.165L500.12,45.161L501.38,45.161L502.63,45.151L503.89,45.154L505.15,45.156L506.4,45.164L507.66,45.158L508.92,45.153L510.18,45.161L511.43,45.156L512.69,45.154L513.95,45.158L515.2,45.151L516.46,45.156L517.72,45.158L518.97,45.153L520.23,45.156L521.49,45.156L522.74,45.156L524,45.156L525.26,45.151L526.51,45.153L527.77,45.151L530.29,45.158L531.54,45.151L532.8,45.158L534.06,45.159L535.31,45.159L536.57,45.153L537.83,45.151L539.08,45.153L540.34,45.156L541.6,45.154L542.85,45.153L544.11,45.151L545.37,45.151L546.62,45.151L550.4,45.151L554.17,45.151L555.42,45.151L556.68,45.156L559.19,45.153L562.96,45.151L564.22,45.151L565.48,45.151L566.74,45.154L574.28,45.153L575.53,45.154L576.79,45.151L580.56,45.151L583.07,45.153L585.59,45.151L586.85,45.151L588.1,45.151L591.87,45.154L594.39,45.151L596.9,45.151L603.18,45.151L608.21,45.151L609.47,45.153L617.01,45.151L652.2,45.151L662.26,45.151L663.52,45.151L681.11,45.151L708.76,45.151" style="fill:none;stroke:#0000FF" />
</g>
</svg>
