<?xml version="1.0"?>
<!-- Generated by SVGo and Plotinum VG -->
<svg width="720pt" height="432pt" viewBox="0 0 720 432"
	xmlns="http://www.w3.org/2000/svg"
	xmlns:xlink="http://www.w3.org/1999/xlink">
<g transform="scale(1, -1) translate(0, -432)">
<path d="M0,0L720,0L720,432L0,432Z" style="fill:#FFFFFF" />
<text x="358.5" y="-420.45" transform="scale(1, -1)"
	style="font-family:Times;font-weight:normal;font-style:normal;font-size:12px"> </text>
<text x="379.31" y="-3.8613" transform="scale(1, -1)"
	style="font-family:Times;font-weight:normal;font-style:normal;font-size:12px">Costs</text>
<text x="62.805" y="-18.634" transform="scale(1, -1)"
	style="font-family:Times;font-weight:normal;font-style:normal;font-size:10px">0</text>
<text x="352.71" y="-18.634" transform="scale(1, -1)"
	style="font-family:Times;font-weight:normal;font-style:normal;font-size:10px">200</text>
<text x="647.62" y="-18.634" transform="scale(1, -1)"
	style="font-family:Times;font-weight:normal;font-style:normal;font-size:10px">400</text>
<path d="M65.305,28.263L65.305,36.263" style="fill:none;stroke:#000000;stroke-width:0.5" />
<path d="M360.21,28.263L360.21,36.263" style="fill:none;stroke:#000000;stroke-width:0.5" />
<path d="M655.12,28.263L655.12,36.263" style="fill:none;stroke:#000000;stroke-width:0.5" />
<path d="M212.76,32.263L212.76,36.263" style="fill:none;stroke:#000000;stroke-width:0.5" />
<path d="M507.67,32.263L507.67,36.263" style="fill:none;stroke:#000000;stroke-width:0.5" />
<path d="M65.305,36.263L720,36.263" style="fill:none;stroke:#000000;stroke-width:0.5" />
<g transform="rotate(90)">
<text x="152.55" y="11.555" transform="scale(1, -1)"
	style="font-family:Times;font-weight:normal;font-style:normal;font-size:12px">Number of trials (1000000 total)</text>
</g>
<text x="24.055" y="-107.17" transform="scale(1, -1)"
	style="font-family:Times;font-weight:normal;font-style:normal;font-size:10px">50000</text>
<text x="19.055" y="-237.62" transform="scale(1, -1)"
	style="font-family:Times;font-weight:normal;font-style:normal;font-size:10px">150000</text>
<text x="19.055" y="-368.07" transform="scale(1, -1)"
	style="font-family:Times;font-weight:normal;font-style:normal;font-size:10px">250000</text>
<path d="M51.555,110.38L59.555,110.38" style="fill:none;stroke:#000000;stroke-width:0.5" />
<path d="M51.555,240.82L59.555,240.82" style="fill:none;stroke:#000000;stroke-width:0.5" />
<path d="M51.555,371.27L59.555,371.27" style="fill:none;stroke:#000000;stroke-width:0.5" />
<path d="M55.555,175.6L59.555,175.6" style="fill:none;stroke:#000000;stroke-width:0.5" />
<path d="M55.555,306.05L59.555,306.05" style="fill:none;stroke:#000000;stroke-width:0.5" />
<path d="M59.555,45.151L59.555,416.58" style="fill:none;stroke:#000000;stroke-width:0.5" />
<path d="M65.305,416.58L99.219,48.525L103.64,66.505L105.12,48.67L106.59,55.478L108.07,59.039L111.02,51.95L112.49,48.533L113.96,59.068L115.44,59.476L116.91,80.343L119.86,48.589L121.34,52.187L122.81,66.54L124.29,81.54L125.76,59.26L127.24,48.833L128.71,51.943L130.18,88.308L131.66,48.54L133.13,70.774L136.08,52.326L137.56,66.617L139.03,55.414L140.51,45.214L141.98,45.539L143.46,80.246L144.93,52.663L146.4,46.147L147.88,63.306L149.35,46.054L150.83,45.854L152.3,71.256L153.78,64.147L155.25,61.805L156.73,46.623L158.2,47.416L159.68,47.203L161.15,46.747L162.62,48.809L164.1,63.071L165.57,48.709L167.05,49.099L168.52,49.938L170,47.339L171.47,50.321L172.95,60.574L174.42,50.287L175.9,52.217L177.37,48.807L178.84,49.63L180.32,50.078L181.79,55.517L183.27,48.66L184.74,58.075L186.22,50.66L187.69,51.16L189.17,54.224L190.64,52.467L192.12,51.143L193.59,51.571L195.06,54.139L196.54,51.472L198.01,51.821L199.49,49.031L200.96,50.313L202.44,54.575L203.91,53.381L205.39,51.05L206.86,50.776L208.33,51.354L209.81,49.668L211.28,53.631L212.76,52.511L214.23,49.908L215.71,51.847L217.18,50.195L218.66,49.276L220.13,50.733L221.61,49.666L223.08,50.651L224.55,49.499L226.03,50.326L227.5,48.593L228.98,48.674L230.45,49.819L231.93,50.904L233.4,49.049L234.88,48.44L236.35,49.037L237.83,49.159L239.3,47.185L240.77,49.1L242.25,49.49L243.72,48.933L245.2,48.043L246.67,48.36L248.15,47.076L249.62,48.333L251.1,49.035L252.57,48.715L254.05,48.397L255.52,48.049L256.99,47.603L258.47,47.374L259.94,48.207L261.42,47.923L262.89,48.741L264.37,47.569L265.84,47.269L267.32,47.792L268.79,47.545L270.27,47.389L271.74,48.27L273.21,47.36L274.69,47.576L276.16,47.506L277.64,47.203L279.11,47.193L280.59,47.33L282.06,47.116L283.54,47.464L285.01,47.128L286.49,46.875L287.96,46.863L289.43,47.035L290.91,46.929L292.38,47.091L293.86,46.912L295.33,46.877L296.81,46.734L298.28,46.684L299.76,46.699L301.23,46.774L302.71,46.689L304.18,46.448L305.65,46.468L307.13,46.301L308.6,46.426L310.08,46.552L311.55,46.391L313.03,46.221L314.5,46.302L315.98,46.28L317.45,46.115L318.93,46.288L320.4,46.195L321.87,46.148L323.35,46.221L324.82,46.063L326.3,46.02L327.77,45.998L329.25,46.024L330.72,46.057L332.2,45.969L333.67,45.975L335.15,45.961L336.62,45.87L338.09,45.781L339.57,45.95L341.04,45.89L342.52,45.869L343.99,45.772L345.47,45.784L346.94,45.721L348.42,45.754L349.89,45.775L351.37,45.729L352.84,45.646L354.31,45.669L355.79,45.637L357.26,45.66L358.74,45.621L360.21,45.68L361.69,45.681L363.16,45.609L364.64,45.558L366.11,45.592L367.59,45.513L369.06,45.537L370.53,45.569L372.01,45.544L373.48,45.523L374.96,45.514L376.43,45.494L377.91,45.487L379.38,45.5L380.86,45.488L382.33,45.463L383.81,45.429L385.28,45.489L386.75,45.414L388.23,45.429L389.7,45.42L391.18,45.466L392.65,45.367L394.13,45.35L395.6,45.359L397.08,45.398L398.55,45.374L400.03,45.376L401.5,45.373L402.97,45.338L404.45,45.321L405.92,45.334L407.4,45.333L408.87,45.338L410.35,45.299L411.82,45.29L413.3,45.307L414.77,45.314L416.24,45.27L417.72,45.292L419.19,45.308L420.67,45.265L422.14,45.256L423.62,45.284L425.09,45.271L426.57,45.267L428.04,45.251L429.52,45.258L430.99,45.256L432.46,45.258L433.94,45.248L435.41,45.277L436.89,45.236L438.36,45.226L439.84,45.234L441.31,45.226L442.79,45.221L444.26,45.237L445.74,45.224L447.21,45.243L448.68,45.219L450.16,45.206L451.63,45.231L453.11,45.21L454.58,45.213L456.06,45.204L457.53,45.206L459.01,45.21L460.48,45.185L461.96,45.217L463.43,45.188L464.9,45.194L466.38,45.193L467.85,45.197L469.33,45.187L470.8,45.185L472.28,45.196L473.75,45.185L475.23,45.184L476.7,45.197L478.18,45.184L479.65,45.176L481.12,45.175L482.6,45.171L484.07,45.174L485.55,45.167L487.02,45.183L488.5,45.183L489.97,45.167L491.45,45.176L492.92,45.176L494.4,45.177L495.87,45.171L497.34,45.177L498.82,45.167L500.29,45.176L501.77,45.176L503.24,45.164L504.72,45.171L506.19,45.164L507.67,45.164L509.14,45.17L510.62,45.164L512.09,45.16L513.56,45.16L515.04,45.164L516.51,45.158L517.99,45.166L519.46,45.155L520.94,45.162L522.41,45.16L523.89,45.16L525.36,45.164L526.84,45.16L528.31,45.162L529.78,45.158L531.26,45.158L532.73,45.158L534.21,45.153L535.68,45.168L537.16,45.157L538.63,45.154L540.11,45.154L541.58,45.157L543.06,45.154L544.53,45.154L546,45.162L547.48,45.155L548.95,45.153L550.43,45.154L551.9,45.158L553.38,45.153L554.85,45.154L556.33,45.155L557.8,45.155L559.28,45.154L560.75,45.153L562.22,45.155L563.7,45.154L565.17,45.155L566.65,45.153L568.12,45.154L569.6,45.153L571.07,45.153L572.55,45.153L575.5,45.151L576.97,45.154L578.44,45.153L579.92,45.154L581.39,45.153L584.34,45.151L585.82,45.153L587.29,45.157L588.77,45.155L590.24,45.153L596.14,45.153L597.61,45.151L599.09,45.153L602.04,45.151L604.99,45.154L606.46,45.151L607.94,45.151L615.31,45.151L618.26,45.151L619.73,45.153L621.21,45.154L627.1,45.151L628.58,45.151L631.53,45.151L644.8,45.151L689.03,45.151L691.98,45.151L720,45.151" style="fill:none;stroke:#0000FF" />
</g>
</svg>
