<?xml version="1.0"?>
<!-- Generated by SVGo and Plotinum VG -->
<svg width="720pt" height="432pt" viewBox="0 0 720 432"
	xmlns="http://www.w3.org/2000/svg"
	xmlns:xlink="http://www.w3.org/1999/xlink">
<g transform="scale(1, -1) translate(0, -432)">
<path d="M0,0L720,0L720,432L0,432Z" style="fill:#FFFFFF" />
<text x="358.5" y="-420.45" transform="scale(1, -1)"
	style="font-family:Times;font-weight:normal;font-style:normal;font-size:12px"> </text>
<text x="379.31" y="-3.8613" transform="scale(1, -1)"
	style="font-family:Times;font-weight:normal;font-style:normal;font-size:12px">Costs</text>
<text x="56.555" y="-18.634" transform="scale(1, -1)"
	style="font-family:Times;font-weight:normal;font-style:normal;font-size:10px">0.00</text>
<text x="357.49" y="-18.634" transform="scale(1, -1)"
	style="font-family:Times;font-weight:normal;font-style:normal;font-size:10px">250.00</text>
<text x="663.42" y="-18.634" transform="scale(1, -1)"
	style="font-family:Times;font-weight:normal;font-style:normal;font-size:10px">500.00</text>
<path d="M65.305,28.263L65.305,36.263" style="fill:none;stroke:#000000;stroke-width:0.5" />
<path d="M371.24,28.263L371.24,36.263" style="fill:none;stroke:#000000;stroke-width:0.5" />
<path d="M677.17,28.263L677.17,36.263" style="fill:none;stroke:#000000;stroke-width:0.5" />
<path d="M126.49,32.263L126.49,36.263" style="fill:none;stroke:#000000;stroke-width:0.5" />
<path d="M187.68,32.263L187.68,36.263" style="fill:none;stroke:#000000;stroke-width:0.5" />
<path d="M248.86,32.263L248.86,36.263" style="fill:none;stroke:#000000;stroke-width:0.5" />
<path d="M310.05,32.263L310.05,36.263" style="fill:none;stroke:#000000;stroke-width:0.5" />
<path d="M432.42,32.263L432.42,36.263" style="fill:none;stroke:#000000;stroke-width:0.5" />
<path d="M493.61,32.263L493.61,36.263" style="fill:none;stroke:#000000;stroke-width:0.5" />
<path d="M554.8,32.263L554.8,36.263" style="fill:none;stroke:#000000;stroke-width:0.5" />
<path d="M615.98,32.263L615.98,36.263" style="fill:none;stroke:#000000;stroke-width:0.5" />
<path d="M65.305,36.263L720,36.263" style="fill:none;stroke:#000000;stroke-width:0.5" />
<g transform="rotate(90)">
<text x="152.55" y="11.555" transform="scale(1, -1)"
	style="font-family:Times;font-weight:normal;font-style:normal;font-size:12px">Number of trials (1000000 total)</text>
</g>
<text x="24.055" y="-107.69" transform="scale(1, -1)"
	style="font-family:Times;font-weight:normal;font-style:normal;font-size:10px">20000</text>
<text x="24.055" y="-239.17" transform="scale(1, -1)"
	style="font-family:Times;font-weight:normal;font-style:normal;font-size:10px">60000</text>
<text x="19.055" y="-370.66" transform="scale(1, -1)"
	style="font-family:Times;font-weight:normal;font-style:normal;font-size:10px">100000</text>
<path d="M51.555,110.89L59.555,110.89" style="fill:none;stroke:#000000;stroke-width:0.5" />
<path d="M51.555,242.38L59.555,242.38" style="fill:none;stroke:#000000;stroke-width:0.5" />
<path d="M51.555,373.86L59.555,373.86" style="fill:none;stroke:#000000;stroke-width:0.5" />
<path d="M55.555,78.019L59.555,78.019" style="fill:none;stroke:#000000;stroke-width:0.5" />
<path d="M55.555,143.76L59.555,143.76" style="fill:none;stroke:#000000;stroke-width:0.5" />
<path d="M55.555,176.63L59.555,176.63" style="fill:none;stroke:#000000;stroke-width:0.5" />
<path d="M55.555,209.5L59.555,209.5" style="fill:none;stroke:#000000;stroke-width:0.5" />
<path d="M55.555,275.25L59.555,275.25" style="fill:none;stroke:#000000;stroke-width:0.5" />
<path d="M55.555,308.12L59.555,308.12" style="fill:none;stroke:#000000;stroke-width:0.5" />
<path d="M55.555,340.99L59.555,340.99" style="fill:none;stroke:#000000;stroke-width:0.5" />
<path d="M55.555,406.73L59.555,406.73" style="fill:none;stroke:#000000;stroke-width:0.5" />
<path d="M59.555,45.151L59.555,416.58" style="fill:none;stroke:#000000;stroke-width:0.5" />
<path d="M65.305,416.58L92.227,52.091L93.45,71.136L97.122,59.053L98.345,92.236L99.569,81.464L102.02,55.299L103.24,66.393L104.46,83.943L105.69,68.552L106.91,84.081L108.14,116.98L109.36,52.038L110.58,48.728L111.81,69.046L113.03,48.31L114.25,69.677L115.48,66.994L116.7,69.92L117.93,69.716L119.15,102.13L120.37,66.636L124.04,55.867L125.27,57.186L126.49,69.594L127.71,87.233L128.94,45.329L130.16,104.79L131.39,70.479L132.61,55.789L133.83,51.946L135.06,58.02L136.28,73.746L137.5,57.153L138.73,54.214L139.95,61.239L141.18,63.549L142.4,76.504L143.62,52.505L144.85,57.754L146.07,61.078L147.29,71.041L148.52,59.963L149.74,61.442L150.97,62.366L152.19,61.715L153.41,62.429L154.64,74.683L155.86,66.025L157.08,63.267L158.31,69.65L159.53,70.055L160.76,67.468L161.98,67.842L163.2,75.465L164.43,84.968L165.65,61.117L166.87,62.047L168.1,64.999L169.32,72.306L170.55,70.15L171.77,61.939L172.99,69.387L174.22,64.595L175.44,58.823L176.66,62.103L177.89,59.868L179.11,64.47L180.34,64.22L181.56,66.136L182.78,62.478L184.01,64.743L185.23,63.451L186.45,58.343L187.68,58.688L188.9,62.179L190.13,61.778L191.35,61.403L192.57,64.749L193.8,60.384L195.02,62.468L196.24,65.778L197.47,65.154L198.69,61.686L199.91,57.458L201.14,63.365L202.36,63.007L203.59,62.149L204.81,62.455L206.03,62.662L207.26,65.154L208.48,60.726L209.7,60.69L210.93,59.109L212.15,60.266L213.38,61.814L214.6,59.592L215.82,60.108L217.05,62.241L218.27,61.607L219.49,60.506L220.72,58.606L221.94,58.612L223.17,58.931L224.39,60.045L225.61,59.779L226.84,59.178L228.06,58.237L229.28,60.417L230.51,57.919L231.73,57.781L232.96,56.824L234.18,57.452L235.4,58.681L236.63,56.985L237.85,56.577L239.07,56.794L240.3,56.926L241.52,57.202L242.75,55.374L243.97,56.285L245.19,56.423L246.42,56.903L247.64,55.897L248.86,55.71L250.09,56.219L251.31,55.585L252.54,55.18L253.76,55.838L254.98,55.194L256.21,55.282L257.43,55.378L258.65,55.22L259.88,55.042L261.1,54.954L262.33,55.128L263.55,54.263L264.77,53.675L266,53.77L267.22,54.227L268.44,54.191L269.67,53.971L270.89,53.951L272.11,53.708L273.34,53.198L274.56,53.218L275.79,52.702L277.01,52.383L278.23,52.988L279.46,52.768L280.68,52.192L281.9,52.413L283.13,52.35L284.35,52.291L285.58,51.568L286.8,51.542L288.02,52.005L289.25,51.762L290.47,51.272L291.69,51.496L292.92,51.118L294.14,51.269L295.37,51.341L296.59,51.292L297.81,50.608L299.04,50.434L300.26,50.828L301.48,50.615L302.71,50.352L303.93,50.368L305.16,50.2L306.38,50.309L307.6,50.197L308.83,50.115L310.05,49.773L311.27,49.609L312.5,49.638L313.72,49.648L314.95,49.392L316.17,49.599L317.39,49.599L318.62,49.287L319.84,49.119L321.06,49.05L322.29,49.178L323.51,49.224L324.74,48.82L325.96,48.922L327.18,48.856L328.41,48.593L329.63,48.508L330.85,48.429L332.08,48.56L333.3,48.442L334.53,48.307L335.75,48.133L336.97,48.251L338.2,48.189L339.42,48.047L340.64,48.021L341.87,47.847L343.09,47.906L344.32,47.939L345.54,47.804L346.76,47.633L347.99,47.613L349.21,47.689L350.43,47.643L351.66,47.334L352.88,47.512L354.1,47.459L355.33,47.341L356.55,47.4L357.78,47.291L359,47.249L360.22,47.222L361.45,47.127L362.67,47.032L363.89,46.956L365.12,46.93L366.34,46.979L367.57,46.874L368.79,46.805L370.01,46.825L371.24,46.713L372.46,46.7L373.68,46.654L374.91,46.581L376.13,46.667L377.36,46.529L378.58,46.637L379.8,46.466L381.03,46.512L382.25,46.358L383.47,46.404L384.7,46.456L385.92,46.348L387.15,46.308L388.37,46.322L389.59,46.22L390.82,46.207L392.04,46.111L393.26,46.177L394.49,46.157L395.71,46.131L396.94,46.118L398.16,46.013L399.38,46.045L400.61,46.141L401.83,46.082L403.05,45.927L404.28,45.924L405.5,46.036L406.73,45.937L407.95,45.911L409.17,45.792L410.4,45.865L411.62,45.812L412.84,45.809L414.07,45.756L415.29,45.763L416.52,45.769L417.74,45.707L418.96,45.75L420.19,45.674L421.41,45.766L422.63,45.615L423.86,45.756L425.08,45.727L426.3,45.615L427.53,45.654L428.75,45.608L429.98,45.635L431.2,45.516L432.42,45.618L433.65,45.546L434.87,45.572L436.09,45.5L437.32,45.552L438.54,45.605L439.77,45.648L440.99,45.536L442.21,45.493L443.44,45.477L444.66,45.549L445.88,45.454L447.11,45.503L448.33,45.47L449.56,45.483L450.78,45.418L452,45.457L453.23,45.437L454.45,45.424L455.67,45.427L456.9,45.332L458.12,45.427L459.35,45.414L460.57,45.395L461.79,45.385L463.02,45.381L464.24,45.352L465.46,45.362L466.69,45.332L467.91,45.316L469.14,45.319L470.36,45.312L471.58,45.316L472.81,45.339L474.03,45.319L475.25,45.329L476.48,45.306L477.7,45.293L478.93,45.293L480.15,45.303L481.37,45.299L482.6,45.326L483.82,45.296L485.04,45.266L486.27,45.243L487.49,45.296L488.72,45.266L489.94,45.217L491.16,45.263L492.39,45.25L493.61,45.253L494.83,45.263L496.06,45.253L497.28,45.24L498.5,45.234L499.73,45.247L500.95,45.217L502.18,45.224L503.4,45.237L504.62,45.234L505.85,45.214L507.07,45.217L508.29,45.207L509.52,45.217L510.74,45.214L511.97,45.211L513.19,45.214L514.41,45.197L515.64,45.214L516.86,45.234L518.08,45.181L519.31,45.201L520.53,45.194L521.76,45.201L522.98,45.194L524.2,45.191L525.43,45.188L526.65,45.197L527.87,45.191L529.1,45.197L530.32,45.188L531.55,45.174L532.77,45.174L533.99,45.178L535.22,45.181L536.44,45.191L537.66,45.168L538.89,45.194L540.11,45.181L541.34,45.178L542.56,45.168L543.78,45.184L545.01,45.178L546.23,45.174L547.45,45.161L548.68,45.165L549.9,45.158L551.13,45.158L552.35,45.168L553.57,45.178L554.8,45.174L556.02,45.174L557.24,45.171L558.47,45.158L559.69,45.168L560.92,45.171L562.14,45.181L563.36,45.168L564.59,45.171L565.81,45.161L567.03,45.161L568.26,45.165L569.48,45.168L570.7,45.155L571.93,45.165L573.15,45.168L574.38,45.165L575.6,45.151L576.82,45.168L578.05,45.171L579.27,45.158L580.49,45.158L581.72,45.161L582.94,45.151L584.17,45.161L585.39,45.151L587.84,45.158L589.06,45.151L590.28,45.155L591.51,45.151L592.73,45.158L593.96,45.161L595.18,45.155L596.4,45.151L597.63,45.151L598.85,45.151L600.07,45.151L601.3,45.151L602.52,45.151L604.97,45.155L606.19,45.151L607.42,45.158L608.64,45.151L609.86,45.158L611.09,45.151L613.54,45.151L614.76,45.158L615.98,45.151L617.21,45.151L618.43,45.151L619.65,45.151L620.88,45.151L622.1,45.151L624.55,45.151L625.77,45.155L631.89,45.151L633.12,45.151L635.56,45.158L642.91,45.151L649.02,45.155L650.25,45.151L658.81,45.155L660.04,45.151L662.48,45.151L678.39,45.155L679.62,45.151L689.41,45.151L693.08,45.151L700.42,45.151L720,45.151" style="fill:none;stroke:#0000FF" />
</g>
</svg>
