<?xml version="1.0"?>
<!-- Generated by SVGo and Plotinum VG -->
<svg width="720pt" height="432pt" viewBox="0 0 720 432"
	xmlns="http://www.w3.org/2000/svg"
	xmlns:xlink="http://www.w3.org/1999/xlink">
<g transform="scale(1, -1) translate(0, -432)">
<path d="M0,0L720,0L720,432L0,432Z" style="fill:#FFFFFF" />
<text x="358.5" y="-420.45" transform="scale(1, -1)"
	style="font-family:Times;font-weight:normal;font-style:normal;font-size:12px"> </text>
<text x="383.09" y="-3.8613" transform="scale(1, -1)"
	style="font-family:Times;font-weight:normal;font-style:normal;font-size:12px">Costs</text>
<text x="69.055" y="-18.634" transform="scale(1, -1)"
	style="font-family:Times;font-weight:normal;font-style:normal;font-size:10px">0.00</text>
<text x="378.28" y="-18.634" transform="scale(1, -1)"
	style="font-family:Times;font-weight:normal;font-style:normal;font-size:10px">250.00</text>
<text x="692.5" y="-18.634" transform="scale(1, -1)"
	style="font-family:Times;font-weight:normal;font-style:normal;font-size:10px">500.00</text>
<path d="M77.805,28.263L77.805,36.263" style="fill:none;stroke:#000000;stroke-width:0.5" />
<path d="M392.03,28.263L392.03,36.263" style="fill:none;stroke:#000000;stroke-width:0.5" />
<path d="M706.25,28.263L706.25,36.263" style="fill:none;stroke:#000000;stroke-width:0.5" />
<path d="M140.65,32.263L140.65,36.263" style="fill:none;stroke:#000000;stroke-width:0.5" />
<path d="M203.49,32.263L203.49,36.263" style="fill:none;stroke:#000000;stroke-width:0.5" />
<path d="M266.34,32.263L266.34,36.263" style="fill:none;stroke:#000000;stroke-width:0.5" />
<path d="M329.18,32.263L329.18,36.263" style="fill:none;stroke:#000000;stroke-width:0.5" />
<path d="M454.87,32.263L454.87,36.263" style="fill:none;stroke:#000000;stroke-width:0.5" />
<path d="M517.72,32.263L517.72,36.263" style="fill:none;stroke:#000000;stroke-width:0.5" />
<path d="M580.56,32.263L580.56,36.263" style="fill:none;stroke:#000000;stroke-width:0.5" />
<path d="M643.41,32.263L643.41,36.263" style="fill:none;stroke:#000000;stroke-width:0.5" />
<path d="M77.805,36.263L715.05,36.263" style="fill:none;stroke:#000000;stroke-width:0.5" />
<g transform="rotate(90)">
<text x="152.55" y="11.555" transform="scale(1, -1)"
	style="font-family:Times;font-weight:normal;font-style:normal;font-size:12px">Number of trials (1000000 total)</text>
</g>
<text x="24.055" y="-112.64" transform="scale(1, -1)"
	style="font-family:Times;font-weight:normal;font-style:normal;font-size:10px">25000.00</text>
<text x="24.055" y="-254.05" transform="scale(1, -1)"
	style="font-family:Times;font-weight:normal;font-style:normal;font-size:10px">75000.00</text>
<text x="19.055" y="-395.45" transform="scale(1, -1)"
	style="font-family:Times;font-weight:normal;font-style:normal;font-size:10px">125000.00</text>
<path d="M64.055,115.85L72.055,115.85" style="fill:none;stroke:#000000;stroke-width:0.5" />
<path d="M64.055,257.25L72.055,257.25" style="fill:none;stroke:#000000;stroke-width:0.5" />
<path d="M64.055,398.65L72.055,398.65" style="fill:none;stroke:#000000;stroke-width:0.5" />
<path d="M68.055,59.289L72.055,59.289" style="fill:none;stroke:#000000;stroke-width:0.5" />
<path d="M68.055,87.569L72.055,87.569" style="fill:none;stroke:#000000;stroke-width:0.5" />
<path d="M68.055,144.13L72.055,144.13" style="fill:none;stroke:#000000;stroke-width:0.5" />
<path d="M68.055,172.41L72.055,172.41" style="fill:none;stroke:#000000;stroke-width:0.5" />
<path d="M68.055,200.69L72.055,200.69" style="fill:none;stroke:#000000;stroke-width:0.5" />
<path d="M68.055,228.97L72.055,228.97" style="fill:none;stroke:#000000;stroke-width:0.5" />
<path d="M68.055,285.53L72.055,285.53" style="fill:none;stroke:#000000;stroke-width:0.5" />
<path d="M68.055,313.81L72.055,313.81" style="fill:none;stroke:#000000;stroke-width:0.5" />
<path d="M68.055,342.09L72.055,342.09" style="fill:none;stroke:#000000;stroke-width:0.5" />
<path d="M68.055,370.37L72.055,370.37" style="fill:none;stroke:#000000;stroke-width:0.5" />
<path d="M72.055,45.151L72.055,416.58" style="fill:none;stroke:#000000;stroke-width:0.5" />
<path d="M77.805,416.58L105.46,55.578L106.71,48.664L107.97,55.468L110.48,58.966L111.74,66.461L113,67.001L114.25,55.762L115.51,48.613L116.77,62.428L118.03,98.231L119.28,48.59L120.54,92.097L121.8,77.196L123.05,136.06L124.31,66.69L125.57,92.535L126.82,65.971L128.08,66.039L129.34,51.8L130.59,65.796L131.85,77.855L133.11,76.859L134.36,52.363L135.62,52.643L136.88,45.236L138.14,45.578L139.39,56.127L140.65,72.094L141.91,50.024L143.16,45.986L144.42,71.045L145.68,58.214L146.93,62.354L148.19,52.504L149.45,54.894L150.7,56.037L151.96,55.53L153.22,61.865L154.48,67.029L155.73,63.112L156.99,96.862L158.25,58.44L159.5,56.653L160.76,61.206L162.02,63.964L163.27,65.581L164.53,59.204L165.79,70.485L167.04,64.883L168.3,66.079L169.56,75.587L170.81,89.645L172.07,63.978L173.33,63.341L174.59,61.458L175.84,64.19L177.1,62.583L178.36,66.91L179.61,63.777L180.87,61.229L182.13,55.055L183.38,56.961L184.64,60.875L185.9,59.869L187.15,61.274L188.41,57.875L189.67,62.863L190.92,59.227L192.18,60.629L193.44,58.514L194.7,60.287L195.95,59.549L197.21,63.172L198.47,58.822L199.72,64.801L200.98,61.407L202.24,67.431L203.49,58.918L204.75,62.253L206.01,59.357L207.26,60.047L208.52,58.07L209.78,61.811L211.04,62.79L212.29,60.581L213.55,60.14L214.81,61.15L216.06,61.789L217.32,59.26L218.58,60.403L219.83,60.318L221.09,57.846L222.35,57.108L223.6,61.09L224.86,59.753L226.12,59.207L227.37,55.519L228.63,55.59L229.89,55.457L231.15,55.061L232.4,58.042L233.66,58.044L234.92,56.169L236.17,56.503L237.43,56.636L238.69,55.689L239.94,56.068L241.2,55.988L242.46,56.13L243.71,55.143L244.97,56.155L246.23,55.954L247.48,56.452L248.74,56.647L250,57.999L251.26,54.552L252.51,54.481L253.77,54.73L255.03,55.146L256.28,54.388L257.54,54.6L258.8,54.399L260.05,54.037L261.31,53.384L262.57,54.518L263.82,54.006L265.08,53.751L266.34,53.497L267.6,53.228L268.85,53.358L270.11,53.115L271.37,53.293L272.62,52.815L273.88,52.337L275.14,51.942L276.39,52.165L277.65,52.255L278.91,52.171L280.16,52.145L281.42,51.919L282.68,51.744L283.93,51.628L285.19,51.466L286.45,51.514L287.71,51.305L288.96,51.065L290.22,51.147L291.48,50.929L292.73,51.237L293.99,50.867L295.25,51.138L296.5,50.369L297.76,50.593L299.02,50.31L300.27,50.165L301.53,50.341L302.79,50.208L304.04,50.16L305.3,49.968L306.56,49.603L307.82,49.849L309.07,49.524L310.33,49.447L311.59,49.702L312.84,49.368L314.1,49.113L315.36,49.184L316.61,49.258L317.87,49.074L319.13,48.91L320.38,48.865L321.64,48.664L322.9,48.87L324.16,48.593L325.41,48.57L326.67,48.44L327.93,48.37L329.18,48.242L330.44,48.333L331.7,48.11L332.95,48.03L334.21,48.132L335.47,48.101L336.72,47.88L337.98,47.937L339.24,47.77L340.49,47.66L341.75,47.838L343.01,47.558L344.27,47.612L345.52,47.674L346.78,47.414L348.04,47.468L349.29,47.371L350.55,47.366L351.81,47.318L353.06,47.111L354.32,47.111L355.58,47.213L356.83,47.151L358.09,47.108L359.35,46.854L360.61,47.074L361.86,46.927L363.12,47.06L364.38,46.806L365.63,46.851L366.89,46.828L368.15,46.775L369.4,46.636L370.66,46.546L371.92,46.464L373.17,46.472L374.43,46.475L375.69,46.54L376.94,46.444L378.2,46.384L379.46,46.399L380.72,46.399L381.97,46.288L383.23,46.283L384.49,46.336L385.74,46.223L387,46.198L388.26,46.167L389.51,46.237L390.77,46.099L392.03,46.076L393.28,45.98L394.54,46.031L395.8,46.203L397.05,46.003L398.31,46.076L399.57,45.946L400.83,45.901L402.08,45.878L403.34,45.926L404.6,45.901L405.85,45.827L407.11,45.867L408.37,45.742L409.62,45.757L410.88,45.776L412.14,45.742L413.39,45.692L414.65,45.632L415.91,45.768L417.17,45.68L418.42,45.697L419.68,45.646L420.94,45.663L422.19,45.536L423.45,45.669L424.71,45.584L425.96,45.587L427.22,45.604L428.48,45.539L429.73,45.539L430.99,45.567L432.25,45.536L433.5,45.604L434.76,45.448L436.02,45.536L437.28,45.53L438.53,45.468L439.79,45.482L441.05,45.471L442.3,45.42L443.56,45.451L444.82,45.488L446.07,45.429L447.33,45.412L448.59,45.44L449.84,45.38L451.1,45.389L452.36,45.397L453.61,45.375L454.87,45.361L456.13,45.372L457.39,45.363L458.64,45.392L459.9,45.363L461.16,45.341L462.41,45.344L463.67,45.324L464.93,45.355L466.18,45.315L467.44,45.315L468.7,45.313L469.95,45.313L471.21,45.313L472.47,45.262L473.73,45.287L474.98,45.318L476.24,45.301L477.5,45.256L478.75,45.264L480.01,45.267L481.27,45.273L482.52,45.239L483.78,45.25L485.04,45.284L486.29,45.253L487.55,45.259L488.81,45.264L490.06,45.233L491.32,45.25L492.58,45.25L493.84,45.231L495.09,45.245L496.35,45.259L497.61,45.245L498.86,45.205L500.12,45.208L501.38,45.216L502.63,45.225L503.89,45.228L505.15,45.188L506.4,45.208L507.66,45.222L508.92,45.216L510.18,45.199L511.43,45.222L512.69,45.191L513.95,45.197L515.2,45.194L516.46,45.197L517.72,45.188L518.97,45.182L520.23,45.197L521.49,45.197L522.74,45.211L524,45.182L525.26,45.199L526.51,45.174L527.77,45.18L529.03,45.182L530.29,45.18L531.54,45.174L532.8,45.177L534.06,45.174L535.31,45.174L536.57,45.182L537.83,45.177L539.08,45.197L540.34,45.174L541.6,45.166L542.85,45.171L544.11,45.182L545.37,45.174L546.62,45.177L547.88,45.166L549.14,45.157L550.4,45.177L551.65,45.154L552.91,45.171L554.17,45.171L555.42,45.166L556.68,45.166L557.94,45.157L559.19,45.168L560.45,45.16L561.71,45.163L562.96,45.168L564.22,45.16L565.48,45.16L566.74,45.16L567.99,45.157L569.25,45.157L570.51,45.154L571.76,45.151L573.02,45.168L574.28,45.154L575.53,45.154L576.79,45.157L578.05,45.157L579.3,45.16L580.56,45.151L581.82,45.154L583.07,45.154L585.59,45.154L588.1,45.154L589.36,45.16L590.62,45.157L591.87,45.157L593.13,45.154L594.39,45.151L595.64,45.154L598.16,45.157L599.41,45.157L601.93,45.151L604.44,45.154L605.7,45.154L608.21,45.154L609.47,45.163L610.73,45.154L613.24,45.154L615.75,45.151L618.27,45.151L619.52,45.151L620.78,45.151L623.3,45.151L625.81,45.151L629.58,45.151L632.09,45.151L634.61,45.151L635.86,45.151L637.12,45.151L639.63,45.151L642.15,45.151L643.41,45.151L644.66,45.151L652.2,45.151L653.46,45.151L666.03,45.151L681.11,45.151L687.4,45.151L693.68,45.151L699.97,45.151L715.05,45.151" style="fill:none;stroke:#0000FF" />
</g>
</svg>
