<?xml version="1.0"?>
<!-- Generated by SVGo and Plotinum VG -->
<svg width="720pt" height="432pt" viewBox="0 0 720 432"
	xmlns="http://www.w3.org/2000/svg"
	xmlns:xlink="http://www.w3.org/1999/xlink">
<g transform="scale(1, -1) translate(0, -432)">
<path d="M0,0L720,0L720,432L0,432Z" style="fill:#FFFFFF" />
<text x="358.5" y="-420.45" transform="scale(1, -1)"
	style="font-family:Times;font-weight:normal;font-style:normal;font-size:12px"> </text>
<text x="379.13" y="-3.8613" transform="scale(1, -1)"
	style="font-family:Times;font-weight:normal;font-style:normal;font-size:12px">Costs</text>
<text x="56.184" y="-18.634" transform="scale(1, -1)"
	style="font-family:Times;font-weight:normal;font-style:normal;font-size:10px">0.00</text>
<text x="360.18" y="-18.634" transform="scale(1, -1)"
	style="font-family:Times;font-weight:normal;font-style:normal;font-size:10px">250.00</text>
<text x="669.17" y="-18.634" transform="scale(1, -1)"
	style="font-family:Times;font-weight:normal;font-style:normal;font-size:10px">500.00</text>
<path d="M64.934,28.263L64.934,36.263" style="fill:none;stroke:#000000;stroke-width:0.5" />
<path d="M373.93,28.263L373.93,36.263" style="fill:none;stroke:#000000;stroke-width:0.5" />
<path d="M682.92,28.263L682.92,36.263" style="fill:none;stroke:#000000;stroke-width:0.5" />
<path d="M126.73,32.263L126.73,36.263" style="fill:none;stroke:#000000;stroke-width:0.5" />
<path d="M188.53,32.263L188.53,36.263" style="fill:none;stroke:#000000;stroke-width:0.5" />
<path d="M250.33,32.263L250.33,36.263" style="fill:none;stroke:#000000;stroke-width:0.5" />
<path d="M312.13,32.263L312.13,36.263" style="fill:none;stroke:#000000;stroke-width:0.5" />
<path d="M435.73,32.263L435.73,36.263" style="fill:none;stroke:#000000;stroke-width:0.5" />
<path d="M497.52,32.263L497.52,36.263" style="fill:none;stroke:#000000;stroke-width:0.5" />
<path d="M559.32,32.263L559.32,36.263" style="fill:none;stroke:#000000;stroke-width:0.5" />
<path d="M621.12,32.263L621.12,36.263" style="fill:none;stroke:#000000;stroke-width:0.5" />
<path d="M64.934,36.263L720,36.263" style="fill:none;stroke:#000000;stroke-width:0.5" />
<g transform="rotate(90)">
<text x="152.55" y="11.555" transform="scale(1, -1)"
	style="font-family:Times;font-weight:normal;font-style:normal;font-size:12px">Number of trials (1000000 total)</text>
</g>
<text x="23.684" y="-72.446" transform="scale(1, -1)"
	style="font-family:Times;font-weight:normal;font-style:normal;font-size:10px">10000</text>
<text x="23.684" y="-224.96" transform="scale(1, -1)"
	style="font-family:Times;font-weight:normal;font-style:normal;font-size:10px">60000</text>
<text x="19.055" y="-377.48" transform="scale(1, -1)"
	style="font-family:Times;font-weight:normal;font-style:normal;font-size:10px">110000</text>
<path d="M51.184,75.651L59.184,75.651" style="fill:none;stroke:#000000;stroke-width:0.5" />
<path d="M51.184,228.17L59.184,228.17" style="fill:none;stroke:#000000;stroke-width:0.5" />
<path d="M51.184,380.68L59.184,380.68" style="fill:none;stroke:#000000;stroke-width:0.5" />
<path d="M55.184,106.15L59.184,106.15" style="fill:none;stroke:#000000;stroke-width:0.5" />
<path d="M55.184,136.66L59.184,136.66" style="fill:none;stroke:#000000;stroke-width:0.5" />
<path d="M55.184,167.16L59.184,167.16" style="fill:none;stroke:#000000;stroke-width:0.5" />
<path d="M55.184,197.66L59.184,197.66" style="fill:none;stroke:#000000;stroke-width:0.5" />
<path d="M55.184,258.67L59.184,258.67" style="fill:none;stroke:#000000;stroke-width:0.5" />
<path d="M55.184,289.17L59.184,289.17" style="fill:none;stroke:#000000;stroke-width:0.5" />
<path d="M55.184,319.68L59.184,319.68" style="fill:none;stroke:#000000;stroke-width:0.5" />
<path d="M55.184,350.18L59.184,350.18" style="fill:none;stroke:#000000;stroke-width:0.5" />
<path d="M55.184,411.18L59.184,411.18" style="fill:none;stroke:#000000;stroke-width:0.5" />
<path d="M59.184,45.151L59.184,416.58" style="fill:none;stroke:#000000;stroke-width:0.5" />
<path d="M64.934,416.58L93.361,48.473L94.597,56.34L97.069,67.339L98.305,63.432L99.541,55.922L100.78,48.912L103.25,78.836L104.48,56.66L105.72,66.943L106.96,107.83L108.19,80.843L109.43,48.735L110.66,48.684L111.9,59.729L113.14,48.958L114.37,68.288L115.61,79.714L116.84,60.156L118.08,66.937L119.32,103.78L121.79,66.915L123.02,45.231L124.26,55.257L125.5,92.367L126.73,53.186L127.97,78.513L129.2,45.792L130.44,115.63L131.68,46.292L132.91,57.999L134.15,71.241L135.38,48.348L136.62,52.957L137.86,52.46L139.09,50.813L140.33,72.339L141.56,65.823L142.8,69.066L144.04,49.605L145.27,53.668L146.51,52.744L147.74,54.33L148.98,55.702L150.22,56.605L151.45,53.506L152.69,63.847L153.92,55.489L155.16,93.303L156.4,77.268L157.63,64.628L158.87,57.688L160.1,65.835L161.34,60.72L162.58,59.979L163.81,59.985L165.05,95.478L166.28,59.735L167.52,60.205L168.76,67.303L169.99,62.236L171.23,58.646L172.46,69.374L173.7,61.693L174.94,58.673L176.17,62.633L177.41,57.081L178.64,57.212L179.88,62.541L181.12,61.287L182.35,63.386L183.59,59.723L184.82,70.631L186.06,54.235L187.3,60.571L188.53,60.418L189.77,55.815L191,64.509L192.24,54.854L193.47,64.957L194.71,62.84L195.95,63.209L197.18,65.418L198.42,62.767L199.65,61.016L200.89,54.708L202.13,57.896L203.36,61.766L204.6,56.776L205.83,64.875L207.07,65.427L208.31,63.249L209.54,61.391L210.78,58.612L212.01,58.347L213.25,55.58L214.49,57.331L215.72,63.261L216.96,58.115L218.19,62.697L219.43,61.574L220.67,61.062L221.9,60.211L223.14,56.868L224.37,58.176L225.61,61.608L226.85,56.395L228.08,58.387L229.32,55.196L230.55,64.054L231.79,56.959L233.03,58.67L234.26,58.082L235.5,55.498L236.73,55.175L237.97,55.785L239.21,55.004L240.44,56.267L241.68,56.52L242.91,56.398L244.15,54.986L245.39,55.458L246.62,56.389L247.86,56.01L249.09,54.72L250.33,56.224L251.57,54.592L252.8,55.105L254.04,54.607L255.27,56.892L256.51,56.794L257.75,54.97L258.98,55.022L260.22,56.157L261.45,54.125L262.69,55.178L263.93,54.473L265.16,53.558L266.4,53.662L267.63,53.54L268.87,54.138L270.11,53.582L271.34,54.119L272.58,55.303L273.81,53.335L275.05,53.75L276.29,53.25L277.52,52.521L278.76,52.286L279.99,52.609L281.23,53.131L282.47,52.597L283.7,52.756L284.94,53.625L286.17,51.96L287.41,52.216L288.64,52.332L289.88,51.499L291.12,52.073L292.35,51.017L293.59,52.231L294.82,51.151L296.06,51.767L297.3,51.813L298.53,51.697L299.77,51.011L301,50.81L302.24,50.843L303.48,50.682L304.71,50.27L305.95,50.727L307.18,50.602L308.42,50.38L309.66,50.636L310.89,49.928L312.13,50.227L313.36,49.751L314.6,49.751L315.84,50.203L317.07,49.751L318.31,49.87L319.54,49.315L320.78,49.834L322.02,49.757L323.25,49.559L324.49,49.275L325.72,49.452L326.96,49.147L328.2,49.123L329.43,49.065L330.67,48.83L331.9,49.034L333.14,48.745L334.38,49.077L335.61,48.696L336.85,48.467L338.08,48.58L339.32,48.296L340.56,48.394L341.79,48.467L343.03,48.113L344.26,48.128L345.5,47.958L346.74,48.165L347.97,48.244L349.21,48.04L350.44,48.254L351.68,47.75L352.92,47.781L354.15,47.866L355.39,47.543L356.62,47.714L357.86,47.558L359.1,47.552L360.33,47.738L361.57,47.406L362.8,47.479L364.04,47.442L365.28,47.265L366.51,47.351L367.75,47.21L368.98,47.104L370.22,47.341L371.46,47.177L372.69,47.134L373.93,46.936L375.16,46.963L376.4,47.015L377.64,46.908L378.87,46.951L380.11,46.738L381.34,46.853L382.58,46.774L383.81,46.722L385.05,46.616L386.29,46.576L387.52,46.673L388.76,46.536L389.99,46.567L391.23,46.429L392.47,46.551L393.7,46.368L394.94,46.359L396.17,46.454L397.41,46.384L398.65,46.393L399.88,46.283L401.12,46.292L402.35,46.307L403.59,46.256L404.83,46.237L406.06,46.256L407.3,46.176L408.53,46.158L409.77,46.097L411.01,46.094L412.24,46.121L413.48,46.018L414.71,46.051L415.95,45.987L417.19,45.978L418.42,45.914L419.66,45.89L420.89,45.883L422.13,45.966L423.37,45.832L424.6,45.844L425.84,45.896L427.07,45.792L428.31,45.777L429.55,45.771L430.78,45.749L432.02,45.749L433.25,45.829L434.49,45.746L435.73,45.752L436.96,45.633L438.2,45.691L439.43,45.697L440.67,45.624L441.91,45.646L443.14,45.606L444.38,45.578L445.61,45.6L446.85,45.609L448.09,45.6L449.32,45.6L450.56,45.53L451.79,45.52L453.03,45.6L454.27,45.575L455.5,45.524L456.74,45.481L457.97,45.539L459.21,45.478L460.45,45.496L461.68,45.536L462.92,45.462L464.15,45.496L465.39,45.493L466.63,45.459L467.86,45.395L469.1,45.438L470.33,45.411L471.57,45.408L472.81,45.395L474.04,45.392L475.28,45.405L476.51,45.453L477.75,45.362L478.99,45.347L480.22,45.389L481.46,45.322L482.69,45.398L483.93,45.368L485.16,45.316L486.4,45.344L487.64,45.337L488.87,45.334L490.11,45.261L491.34,45.334L492.58,45.289L493.82,45.27L495.05,45.334L496.29,45.298L497.52,45.295L498.76,45.286L500,45.286L501.23,45.27L502.47,45.255L503.7,45.276L504.94,45.243L506.18,45.252L507.41,45.292L508.65,45.243L509.88,45.267L511.12,45.252L512.36,45.267L513.59,45.255L514.83,45.258L516.06,45.267L517.3,45.24L518.54,45.228L519.77,45.243L521.01,45.27L522.24,45.228L523.48,45.237L524.72,45.209L525.95,45.222L527.19,45.212L528.42,45.182L529.66,45.194L530.9,45.188L532.13,45.222L533.37,45.212L534.6,45.197L535.84,45.209L537.08,45.191L538.31,45.228L539.55,45.194L540.78,45.215L542.02,45.2L543.26,45.182L544.49,45.188L545.73,45.203L546.96,45.188L548.2,45.2L549.44,45.191L550.67,45.185L551.91,45.182L553.14,45.191L554.38,45.185L555.62,45.176L556.85,45.185L558.09,45.173L559.32,45.179L560.56,45.188L561.8,45.188L563.03,45.176L564.27,45.164L565.5,45.179L566.74,45.173L567.98,45.164L569.21,45.167L570.45,45.164L571.68,45.179L572.92,45.17L574.16,45.176L575.39,45.164L576.63,45.191L577.86,45.167L579.1,45.157L580.33,45.157L581.57,45.164L582.81,45.154L584.04,45.164L585.28,45.154L586.51,45.161L587.75,45.167L588.99,45.157L590.22,45.17L591.46,45.164L592.69,45.167L593.93,45.179L595.17,45.157L596.4,45.154L597.64,45.154L598.87,45.161L600.11,45.154L601.35,45.161L602.58,45.17L603.82,45.151L606.29,45.157L607.53,45.151L608.76,45.157L610,45.161L611.23,45.154L612.47,45.164L613.71,45.154L614.94,45.154L616.18,45.151L617.41,45.154L618.65,45.154L619.89,45.157L622.36,45.154L623.59,45.157L624.83,45.151L626.07,45.151L628.54,45.151L631.01,45.151L632.25,45.157L637.19,45.151L638.43,45.151L639.66,45.154L649.55,45.154L654.49,45.154L655.73,45.154L661.91,45.151L663.15,45.151L666.85,45.151L668.09,45.151L669.33,45.154L671.8,45.154L694.04,45.154L696.52,45.151L705.17,45.151L710.11,45.151L715.06,45.154L716.29,45.151L720,45.151" style="fill:none;stroke:#0000FF" />
</g>
</svg>
