<?xml version="1.0"?>
<!-- Generated by SVGo and Plotinum VG -->
<svg width="720pt" height="432pt" viewBox="0 0 720 432"
	xmlns="http://www.w3.org/2000/svg"
	xmlns:xlink="http://www.w3.org/1999/xlink">
<g transform="scale(1, -1) translate(0, -432)">
<path d="M0,0L720,0L720,432L0,432Z" style="fill:#FFFFFF" />
<text x="358.5" y="-420.45" transform="scale(1, -1)"
	style="font-family:Times;font-weight:normal;font-style:normal;font-size:12px"> </text>
<text x="373.72" y="-3.8613" transform="scale(1, -1)"
	style="font-family:Times;font-weight:normal;font-style:normal;font-size:12px">Costs</text>
<text x="56.555" y="-18.634" transform="scale(1, -1)"
	style="font-family:Times;font-weight:normal;font-style:normal;font-size:10px">0.00</text>
<text x="372.03" y="-18.634" transform="scale(1, -1)"
	style="font-family:Times;font-weight:normal;font-style:normal;font-size:10px">250.00</text>
<text x="692.5" y="-18.634" transform="scale(1, -1)"
	style="font-family:Times;font-weight:normal;font-style:normal;font-size:10px">500.00</text>
<path d="M65.305,28.263L65.305,36.263" style="fill:none;stroke:#000000;stroke-width:0.5" />
<path d="M385.78,28.263L385.78,36.263" style="fill:none;stroke:#000000;stroke-width:0.5" />
<path d="M706.25,28.263L706.25,36.263" style="fill:none;stroke:#000000;stroke-width:0.5" />
<path d="M129.4,32.263L129.4,36.263" style="fill:none;stroke:#000000;stroke-width:0.5" />
<path d="M193.49,32.263L193.49,36.263" style="fill:none;stroke:#000000;stroke-width:0.5" />
<path d="M257.59,32.263L257.59,36.263" style="fill:none;stroke:#000000;stroke-width:0.5" />
<path d="M321.68,32.263L321.68,36.263" style="fill:none;stroke:#000000;stroke-width:0.5" />
<path d="M449.87,32.263L449.87,36.263" style="fill:none;stroke:#000000;stroke-width:0.5" />
<path d="M513.97,32.263L513.97,36.263" style="fill:none;stroke:#000000;stroke-width:0.5" />
<path d="M578.06,32.263L578.06,36.263" style="fill:none;stroke:#000000;stroke-width:0.5" />
<path d="M642.16,32.263L642.16,36.263" style="fill:none;stroke:#000000;stroke-width:0.5" />
<path d="M65.305,36.263L708.81,36.263" style="fill:none;stroke:#000000;stroke-width:0.5" />
<g transform="rotate(90)">
<text x="152.55" y="11.555" transform="scale(1, -1)"
	style="font-family:Times;font-weight:normal;font-style:normal;font-size:12px">Number of trials (1000000 total)</text>
</g>
<text x="24.055" y="-107.75" transform="scale(1, -1)"
	style="font-family:Times;font-weight:normal;font-style:normal;font-size:10px">30000</text>
<text x="24.055" y="-239.38" transform="scale(1, -1)"
	style="font-family:Times;font-weight:normal;font-style:normal;font-size:10px">90000</text>
<text x="19.055" y="-371" transform="scale(1, -1)"
	style="font-family:Times;font-weight:normal;font-style:normal;font-size:10px">150000</text>
<path d="M51.555,110.96L59.555,110.96" style="fill:none;stroke:#000000;stroke-width:0.5" />
<path d="M51.555,242.58L59.555,242.58" style="fill:none;stroke:#000000;stroke-width:0.5" />
<path d="M51.555,374.2L59.555,374.2" style="fill:none;stroke:#000000;stroke-width:0.5" />
<path d="M55.555,176.77L59.555,176.77" style="fill:none;stroke:#000000;stroke-width:0.5" />
<path d="M55.555,308.39L59.555,308.39" style="fill:none;stroke:#000000;stroke-width:0.5" />
<path d="M59.555,45.151L59.555,416.58" style="fill:none;stroke:#000000;stroke-width:0.5" />
<path d="M65.305,416.58L93.506,52.623L96.07,51.904L98.634,66.783L99.916,56.473L101.2,55.942L103.76,59.836L105.04,78.164L106.33,48.819L107.61,88.503L108.89,74.176L110.17,74.132L111.45,66.939L112.73,52.744L115.3,56.227L116.58,82.089L117.86,79.033L119.14,99.925L120.43,70.638L121.71,63.622L122.99,67.424L124.27,45.265L126.84,60.444L128.12,70.719L129.4,75.87L130.68,67.795L131.96,45.978L133.24,88.788L134.53,56.938L135.81,50.671L137.09,58.098L138.37,67.084L139.65,55.332L140.94,63.379L142.22,48.788L143.5,65.096L144.78,56.978L146.06,60.248L147.35,52.226L148.63,51.145L149.91,54.13L151.19,55.168L152.47,55.514L153.76,54.955L155.04,54.235L156.32,54.834L157.6,54.45L158.88,58.173L160.16,61.01L161.45,63.341L162.73,62.703L164.01,63.258L165.29,57.407L166.57,57.094L167.86,59.421L169.14,59.072L170.42,60.533L171.7,62.832L172.98,65.704L174.27,62.172L175.55,60.966L176.83,59.744L178.11,57.072L179.39,58.941L180.67,60.319L181.96,59.614L183.24,61.876L184.52,62.163L185.8,60.088L187.08,60.136L188.37,57.361L189.65,56.648L190.93,57.912L192.21,57.239L193.49,54.65L194.78,57.465L196.06,56.247L197.34,57.612L198.62,56.607L199.9,53.977L201.19,55.319L202.47,54.819L203.75,54.02L205.03,53.72L206.31,55.883L207.59,54.161L208.88,54.782L210.16,53.09L211.44,53.994L212.72,53.584L214,54.639L215.29,53.691L216.57,53.459L217.85,53.729L219.13,53.784L220.41,52.812L221.7,52.902L222.98,53.022L224.26,53.391L225.54,53.593L226.82,53.178L228.1,53.612L229.39,53.18L230.67,52.667L231.95,52.902L233.23,52.592L234.51,52.619L235.8,53.114L237.08,52.77L238.36,52.963L239.64,52.845L240.92,52.5L242.21,51.943L243.49,51.612L244.77,51.708L246.05,51.48L247.33,51.406L248.62,51.667L249.9,51.375L251.18,51.359L252.46,51.107L253.74,50.629L255.02,50.372L256.31,50.486L257.59,50.436L258.87,50.267L260.15,50.311L261.43,50.072L262.72,49.782L264,49.931L265.28,49.668L266.56,49.567L267.84,49.333L269.13,49.164L270.41,49.205L271.69,49.065L272.97,48.977L274.25,49.05L275.53,48.935L276.82,48.957L278.1,48.821L279.38,48.69L280.66,48.723L281.94,48.714L283.23,48.538L284.51,48.398L285.79,48.433L287.07,48.26L288.35,48.337L289.64,48.225L290.92,48.231L292.2,48.205L293.48,48.01L294.76,48.014L296.05,47.964L297.33,47.935L298.61,47.83L299.89,47.703L301.17,47.668L302.45,47.696L303.74,47.58L305.02,47.621L306.3,47.413L307.58,47.352L308.86,47.266L310.15,47.27L311.43,47.222L312.71,47.198L313.99,47.141L315.27,47.055L316.56,47.001L317.84,46.952L319.12,46.814L320.4,46.777L321.68,46.786L322.96,46.683L324.25,46.788L325.53,46.632L326.81,46.56L328.09,46.525L329.37,46.588L330.66,46.45L331.94,46.481L333.22,46.428L334.5,46.389L335.78,46.386L337.07,46.242L338.35,46.332L339.63,46.239L340.91,46.228L342.19,46.228L343.47,46.143L344.76,46.171L346.04,46.191L347.32,46.143L348.6,46.013L349.88,46.163L351.17,45.963L352.45,45.959L353.73,46.068L355.01,45.983L356.29,45.952L357.58,45.915L358.86,45.913L360.14,45.97L361.42,45.794L362.7,45.86L363.99,45.818L365.27,45.774L366.55,45.827L367.83,45.759L369.11,45.779L370.39,45.785L371.68,45.814L372.96,45.658L374.24,45.704L375.52,45.638L376.8,45.643L378.09,45.687L379.37,45.649L380.65,45.579L381.93,45.608L383.21,45.531L384.5,45.526L385.78,45.498L387.06,45.516L388.34,45.507L389.62,45.498L390.9,45.505L392.19,45.531L393.47,45.441L394.75,45.437L396.03,45.448L397.31,45.448L398.6,45.419L399.88,45.439L401.16,45.401L402.44,45.406L403.72,45.388L405.01,45.347L406.29,45.386L407.57,45.39L408.85,45.371L410.13,45.34L411.42,45.353L412.7,45.32L413.98,45.318L415.26,45.358L416.54,45.342L417.82,45.342L419.11,45.364L420.39,45.327L421.67,45.314L422.95,45.292L424.23,45.281L425.52,45.294L426.8,45.27L428.08,45.279L429.36,45.27L430.64,45.265L431.93,45.287L433.21,45.261L434.49,45.285L435.77,45.287L437.05,45.25L438.33,45.248L439.62,45.261L440.9,45.237L442.18,45.274L443.46,45.239L444.74,45.252L446.03,45.228L447.31,45.211L448.59,45.213L449.87,45.246L451.15,45.2L452.44,45.215L453.72,45.222L455,45.217L456.28,45.206L457.56,45.215L458.85,45.206L460.13,45.204L461.41,45.213L462.69,45.197L463.97,45.184L465.25,45.182L466.54,45.197L467.82,45.197L469.1,45.182L470.38,45.197L471.66,45.18L472.95,45.182L474.23,45.195L475.51,45.191L476.79,45.2L478.07,45.191L479.36,45.182L480.64,45.182L481.92,45.18L483.2,45.18L484.48,45.186L485.76,45.184L487.05,45.165L488.33,45.178L489.61,45.184L490.89,45.169L492.17,45.173L493.46,45.16L494.74,45.162L496.02,45.16L497.3,45.171L498.58,45.165L499.87,45.167L501.15,45.162L502.43,45.171L503.71,45.165L504.99,45.165L506.28,45.156L507.56,45.154L508.84,45.165L510.12,45.165L511.4,45.16L512.68,45.175L513.97,45.162L515.25,45.151L517.81,45.16L519.09,45.167L520.38,45.16L521.66,45.158L522.94,45.16L524.22,45.151L525.5,45.156L526.79,45.156L528.07,45.165L529.35,45.156L530.63,45.162L531.91,45.156L533.19,45.151L534.48,45.16L535.76,45.151L539.6,45.158L540.89,45.156L542.17,45.154L543.45,45.156L544.73,45.151L546.01,45.158L547.3,45.151L548.58,45.162L549.86,45.158L551.14,45.154L552.42,45.156L553.71,45.151L556.27,45.151L558.83,45.151L560.11,45.156L561.4,45.151L562.68,45.154L563.96,45.151L565.24,45.156L566.52,45.154L569.09,45.151L585.75,45.151L587.03,45.151L588.32,45.154L589.6,45.151L593.44,45.151L596.01,45.156L597.29,45.151L601.13,45.154L604.98,45.151L606.26,45.151L608.83,45.151L610.11,45.151L617.8,45.151L620.36,45.151L629.34,45.151L630.62,45.151L661.38,45.151L689.59,45.151L693.43,45.151L708.81,45.151" style="fill:none;stroke:#0000FF" />
</g>
</svg>
