<?xml version="1.0"?>
<!-- Generated by SVGo and Plotinum VG -->
<svg width="720pt" height="432pt" viewBox="0 0 720 432"
	xmlns="http://www.w3.org/2000/svg"
	xmlns:xlink="http://www.w3.org/1999/xlink">
<g transform="scale(1, -1) translate(0, -432)">
<path d="M0,0L720,0L720,432L0,432Z" style="fill:#FFFFFF" />
<text x="358.5" y="-420.45" transform="scale(1, -1)"
	style="font-family:Times;font-weight:normal;font-style:normal;font-size:12px"> </text>
<text x="385.56" y="-3.8613" transform="scale(1, -1)"
	style="font-family:Times;font-weight:normal;font-style:normal;font-size:12px">Costs</text>
<text x="75.305" y="-18.634" transform="scale(1, -1)"
	style="font-family:Times;font-weight:normal;font-style:normal;font-size:10px">0</text>
<text x="339.57" y="-18.634" transform="scale(1, -1)"
	style="font-family:Times;font-weight:normal;font-style:normal;font-size:10px">200</text>
<text x="608.83" y="-18.634" transform="scale(1, -1)"
	style="font-family:Times;font-weight:normal;font-style:normal;font-size:10px">400</text>
<path d="M77.805,28.263L77.805,36.263" style="fill:none;stroke:#000000;stroke-width:0.5" />
<path d="M347.07,28.263L347.07,36.263" style="fill:none;stroke:#000000;stroke-width:0.5" />
<path d="M616.33,28.263L616.33,36.263" style="fill:none;stroke:#000000;stroke-width:0.5" />
<path d="M212.44,32.263L212.44,36.263" style="fill:none;stroke:#000000;stroke-width:0.5" />
<path d="M481.7,32.263L481.7,36.263" style="fill:none;stroke:#000000;stroke-width:0.5" />
<path d="M77.805,36.263L720,36.263" style="fill:none;stroke:#000000;stroke-width:0.5" />
<g transform="rotate(90)">
<text x="152.55" y="11.555" transform="scale(1, -1)"
	style="font-family:Times;font-weight:normal;font-style:normal;font-size:12px">Number of trials (1000000 total)</text>
</g>
<text x="24.055" y="-92.188" transform="scale(1, -1)"
	style="font-family:Times;font-weight:normal;font-style:normal;font-size:10px">25000.00</text>
<text x="19.055" y="-242.92" transform="scale(1, -1)"
	style="font-family:Times;font-weight:normal;font-style:normal;font-size:10px">100000.00</text>
<text x="19.055" y="-393.65" transform="scale(1, -1)"
	style="font-family:Times;font-weight:normal;font-style:normal;font-size:10px">175000.00</text>
<path d="M64.055,95.393L72.055,95.393" style="fill:none;stroke:#000000;stroke-width:0.5" />
<path d="M64.055,246.12L72.055,246.12" style="fill:none;stroke:#000000;stroke-width:0.5" />
<path d="M64.055,396.86L72.055,396.86" style="fill:none;stroke:#000000;stroke-width:0.5" />
<path d="M68.055,170.76L72.055,170.76" style="fill:none;stroke:#000000;stroke-width:0.5" />
<path d="M68.055,321.49L72.055,321.49" style="fill:none;stroke:#000000;stroke-width:0.5" />
<path d="M72.055,45.151L72.055,416.58" style="fill:none;stroke:#000000;stroke-width:0.5" />
<path d="M77.805,416.58L107.42,55.124L110.12,67.783L114.16,58.974L115.5,63.744L119.54,86.613L122.23,83.809L124.93,55.463L126.27,59.559L128.96,48.554L130.31,48.662L131.66,89.302L133,70.547L134.35,90.451L135.7,84.685L137.04,63.414L138.39,55.707L139.74,67.305L142.43,48.689L143.77,48.946L145.12,59.384L146.47,60.126L147.81,46.078L149.16,91.581L150.51,59.368L151.85,49.456L154.55,47.682L155.89,47.077L157.24,47.756L158.58,47.585L159.93,81.743L161.28,47.732L162.62,47.181L163.97,53.225L165.32,47.792L166.66,49.756L168.01,85.614L169.35,50.443L170.7,50.588L172.05,50.483L173.39,53.448L174.74,50.483L176.09,56.372L177.43,64.813L178.78,54.865L180.13,53.504L181.47,54.983L182.82,51.611L184.16,51.205L185.51,133.32L186.86,75.778L188.2,55.311L189.55,55.594L190.9,57.363L192.24,56.83L193.59,56.826L194.93,51.743L196.28,52.74L197.63,54.093L198.97,49.486L200.32,52.226L201.67,52.877L203.01,54.712L204.36,57.232L205.71,54.806L207.05,54.83L208.4,52.242L209.74,52.366L211.09,50.021L212.44,50.97L213.78,51.936L215.13,53.235L216.48,54.111L217.82,57.712L219.17,51.956L220.51,49.245L221.86,58.968L223.21,54.465L224.55,52.865L225.9,51.972L227.25,59.529L228.59,52.34L229.94,58.601L231.29,55.086L232.63,52.427L233.98,53.624L235.32,51.862L236.67,51.15L238.02,49.418L239.36,63.028L240.71,57.095L242.06,60.146L243.4,59.626L244.75,54.915L246.09,52.557L247.44,54.491L248.79,51.402L250.13,52.885L251.48,49.643L252.83,51.607L254.17,52.433L255.52,49.191L256.87,58.299L258.21,54.533L259.56,51.56L260.9,49.05L262.25,49.157L263.6,49.611L264.94,48.685L266.29,49.024L267.64,57.23L268.98,50.875L270.33,48.66L271.67,49.88L273.02,49.223L274.37,49.163L275.71,57.463L277.06,51.418L278.41,49.46L279.75,49.35L281.1,49.792L282.45,49.165L283.79,50.232L285.14,52.525L286.48,50.859L287.83,49.993L289.18,50.083L290.52,49.066L291.87,48.831L293.22,48.761L294.56,54L295.91,49.689L297.26,49.977L298.6,50.188L299.95,50.011L301.29,49.896L302.64,48.662L303.99,49.05L305.33,48.795L306.68,48.198L308.03,48.528L309.37,48.598L310.72,48.869L312.06,49.679L313.41,49.302L314.76,48.863L316.1,48.258L317.45,48.538L318.8,47.919L320.14,47.762L321.49,48.512L322.84,47.859L324.18,48.544L325.53,48.391L326.87,48.084L328.22,47.276L329.57,48.904L330.91,47.794L332.26,48.055L333.61,47.911L334.95,47.473L336.3,47.951L337.64,47.282L338.99,48.419L340.34,47.485L341.68,47.428L343.03,47.625L344.38,47.237L345.72,46.83L347.07,47.686L348.42,47.694L349.76,47.115L351.11,47.163L352.45,47.203L353.8,46.992L355.15,46.838L356.49,47.231L357.84,47.414L359.19,46.938L360.53,46.444L361.88,46.691L363.22,46.574L364.57,46.335L365.92,47.01L367.26,46.874L368.61,46.657L369.96,46.56L371.3,46.651L372.65,46.359L374,46.383L375.34,46.5L376.69,46.834L378.03,46.343L379.38,46.353L380.73,46.371L382.07,46.245L383.42,46.299L384.77,46.625L386.11,46.2L387.46,46.13L388.8,46.096L390.15,46.174L391.5,46.066L392.84,46.086L394.19,46.301L395.54,46.112L396.88,46.044L398.23,46.038L399.58,45.991L400.92,46.07L402.27,45.945L403.61,45.923L404.96,45.963L406.31,45.943L407.65,45.877L409,45.805L410.35,45.869L411.69,45.815L413.04,45.819L414.39,45.835L415.73,45.839L417.08,45.79L418.42,45.72L419.77,45.704L421.12,45.708L422.46,45.662L423.81,45.682L425.16,45.577L426.5,45.606L427.85,45.561L429.19,45.75L430.54,45.64L431.89,45.573L433.23,45.598L434.58,45.561L435.93,45.521L437.27,45.489L438.62,45.654L439.97,45.513L441.31,45.501L442.66,45.537L444,45.529L445.35,45.469L446.7,45.505L448.04,45.537L449.39,45.475L450.74,45.455L452.08,45.451L453.43,45.435L454.77,45.413L456.12,45.453L457.47,45.425L458.81,45.397L460.16,45.376L461.51,45.364L462.85,45.382L464.2,45.36L465.55,45.399L466.89,45.411L468.24,45.336L469.58,45.364L470.93,45.318L472.28,45.314L473.62,45.324L474.97,45.332L476.32,45.284L477.66,45.324L479.01,45.312L480.35,45.282L481.7,45.29L483.05,45.298L484.39,45.296L485.74,45.278L487.09,45.308L488.43,45.286L489.78,45.294L491.13,45.298L492.47,45.278L493.82,45.282L495.16,45.268L496.51,45.248L497.86,45.262L499.2,45.256L500.55,45.24L501.9,45.262L503.24,45.256L504.59,45.26L505.93,45.252L507.28,45.23L508.63,45.226L509.97,45.22L511.32,45.216L512.67,45.212L514.01,45.22L515.36,45.192L516.71,45.224L518.05,45.206L519.4,45.198L520.74,45.22L522.09,45.218L523.44,45.234L524.78,45.21L526.13,45.206L527.48,45.2L528.82,45.188L530.17,45.188L531.52,45.184L532.86,45.19L534.21,45.186L535.55,45.18L536.9,45.18L538.25,45.2L539.59,45.19L540.94,45.184L542.29,45.171L543.63,45.182L544.98,45.186L546.32,45.184L547.67,45.186L549.02,45.169L550.36,45.173L551.71,45.169L553.06,45.175L554.4,45.175L555.75,45.194L557.1,45.177L558.44,45.169L559.79,45.165L561.13,45.171L562.48,45.173L563.83,45.167L565.17,45.159L566.52,45.157L567.87,45.167L569.21,45.163L570.56,45.169L571.9,45.165L573.25,45.175L574.6,45.165L575.94,45.155L577.29,45.159L578.64,45.157L579.98,45.163L581.33,45.161L582.68,45.161L584.02,45.157L585.37,45.161L586.71,45.159L588.06,45.157L589.41,45.159L590.75,45.155L592.1,45.155L593.45,45.165L594.79,45.167L596.14,45.155L597.48,45.153L598.83,45.155L600.18,45.155L601.52,45.161L602.87,45.157L604.22,45.153L605.56,45.151L606.91,45.153L608.26,45.157L609.6,45.155L610.95,45.157L612.29,45.153L613.64,45.151L614.99,45.151L616.33,45.153L617.68,45.155L619.03,45.155L620.37,45.153L621.72,45.155L623.06,45.153L625.76,45.153L627.1,45.153L628.45,45.153L631.14,45.153L632.49,45.151L633.84,45.155L636.53,45.151L640.57,45.151L643.26,45.151L644.61,45.155L645.95,45.153L647.3,45.151L648.64,45.155L651.34,45.153L655.38,45.153L656.72,45.151L658.07,45.151L659.42,45.151L660.76,45.151L667.49,45.151L671.53,45.151L672.88,45.151L682.3,45.151L699.81,45.151L705.19,45.151L718.65,45.151L720,45.153" style="fill:none;stroke:#0000FF" />
</g>
</svg>
