<?xml version="1.0"?>
<!-- Generated by SVGo and Plotinum VG -->
<svg width="720pt" height="432pt" viewBox="0 0 720 432"
	xmlns="http://www.w3.org/2000/svg"
	xmlns:xlink="http://www.w3.org/1999/xlink">
<g transform="scale(1, -1) translate(0, -432)">
<path d="M0,0L720,0L720,432L0,432Z" style="fill:#FFFFFF" />
<text x="358.5" y="-420.45" transform="scale(1, -1)"
	style="font-family:Times;font-weight:normal;font-style:normal;font-size:12px"> </text>
<text x="379.31" y="-3.8613" transform="scale(1, -1)"
	style="font-family:Times;font-weight:normal;font-style:normal;font-size:12px">Costs</text>
<text x="56.555" y="-18.634" transform="scale(1, -1)"
	style="font-family:Times;font-weight:normal;font-style:normal;font-size:10px">0.00</text>
<text x="362.13" y="-18.634" transform="scale(1, -1)"
	style="font-family:Times;font-weight:normal;font-style:normal;font-size:10px">250.00</text>
<text x="672.71" y="-18.634" transform="scale(1, -1)"
	style="font-family:Times;font-weight:normal;font-style:normal;font-size:10px">500.00</text>
<path d="M65.305,28.263L65.305,36.263" style="fill:none;stroke:#000000;stroke-width:0.5" />
<path d="M375.88,28.263L375.88,36.263" style="fill:none;stroke:#000000;stroke-width:0.5" />
<path d="M686.46,28.263L686.46,36.263" style="fill:none;stroke:#000000;stroke-width:0.5" />
<path d="M127.42,32.263L127.42,36.263" style="fill:none;stroke:#000000;stroke-width:0.5" />
<path d="M189.54,32.263L189.54,36.263" style="fill:none;stroke:#000000;stroke-width:0.5" />
<path d="M251.65,32.263L251.65,36.263" style="fill:none;stroke:#000000;stroke-width:0.5" />
<path d="M313.77,32.263L313.77,36.263" style="fill:none;stroke:#000000;stroke-width:0.5" />
<path d="M438,32.263L438,36.263" style="fill:none;stroke:#000000;stroke-width:0.5" />
<path d="M500.11,32.263L500.11,36.263" style="fill:none;stroke:#000000;stroke-width:0.5" />
<path d="M562.23,32.263L562.23,36.263" style="fill:none;stroke:#000000;stroke-width:0.5" />
<path d="M624.34,32.263L624.34,36.263" style="fill:none;stroke:#000000;stroke-width:0.5" />
<path d="M65.305,36.263L720,36.263" style="fill:none;stroke:#000000;stroke-width:0.5" />
<g transform="rotate(90)">
<text x="152.55" y="11.555" transform="scale(1, -1)"
	style="font-family:Times;font-weight:normal;font-style:normal;font-size:12px">Number of trials (1000000 total)</text>
</g>
<text x="24.055" y="-112.04" transform="scale(1, -1)"
	style="font-family:Times;font-weight:normal;font-style:normal;font-size:10px">40000</text>
<text x="19.055" y="-252.22" transform="scale(1, -1)"
	style="font-family:Times;font-weight:normal;font-style:normal;font-size:10px">120000</text>
<text x="19.055" y="-392.4" transform="scale(1, -1)"
	style="font-family:Times;font-weight:normal;font-style:normal;font-size:10px">200000</text>
<path d="M51.555,115.24L59.555,115.24" style="fill:none;stroke:#000000;stroke-width:0.5" />
<path d="M51.555,255.42L59.555,255.42" style="fill:none;stroke:#000000;stroke-width:0.5" />
<path d="M51.555,395.61L59.555,395.61" style="fill:none;stroke:#000000;stroke-width:0.5" />
<path d="M55.555,185.33L59.555,185.33" style="fill:none;stroke:#000000;stroke-width:0.5" />
<path d="M55.555,325.51L59.555,325.51" style="fill:none;stroke:#000000;stroke-width:0.5" />
<path d="M59.555,45.151L59.555,416.58" style="fill:none;stroke:#000000;stroke-width:0.5" />
<path d="M65.305,416.58L92.635,48.847L93.878,58.791L97.605,55.579L98.847,56.252L100.09,56.441L102.57,52.302L103.82,59.205L106.3,70.006L107.54,81.015L108.79,67.381L110.03,66.505L111.27,56.499L112.51,52.124L113.75,56.292L115,70.661L116.24,59.59L117.48,80.379L118.72,80.931L119.97,78.657L121.21,56.17L122.45,48.47L124.94,52.436L126.18,52.965L127.42,60.449L128.66,64.188L129.9,45.318L131.15,112.31L132.39,75.213L133.63,45.568L134.87,57.834L136.12,54.806L137.36,50.368L138.6,57.316L139.84,47.366L141.09,55.299L142.33,73.719L143.57,55.225L144.81,48.53L146.05,49.336L147.3,49.83L148.54,51.304L149.78,50.89L151.02,52.129L152.27,52.227L153.51,51.724L154.75,50.028L155.99,55.832L157.24,52.315L158.48,53.76L159.72,57.503L160.96,67.001L162.2,54.919L163.45,55.507L164.69,54.027L165.93,57.197L167.17,53.624L168.42,53.743L169.66,58.181L170.9,56.962L172.14,58.218L173.39,60.484L174.63,56.755L175.87,55.737L177.11,54.735L178.35,52.693L179.6,54.035L180.84,57.936L182.08,55.302L183.32,58.588L184.57,60.067L185.81,58.276L187.05,54.747L188.29,52.406L189.54,50.792L190.78,52.423L192.02,52.299L193.26,53.396L194.5,55.958L195.75,52.965L196.99,54.742L198.23,54.768L199.47,49.248L200.72,50.471L201.96,52.01L203.2,51.286L204.44,52.56L205.69,51.516L206.93,50.533L208.17,54.156L209.41,52.549L210.65,50.51L211.9,50.45L213.14,50.911L214.38,51.081L215.62,51.088L216.87,49.947L218.11,50.315L219.35,50.112L220.59,50.138L221.84,50.368L223.08,50.527L224.32,50.366L225.56,50.212L226.8,52.215L228.05,50.909L229.29,50.023L230.53,49.655L231.77,50.047L233.02,50.166L234.26,49.914L235.5,50.047L236.74,50.529L237.99,50.604L239.23,50.147L240.47,49.376L241.71,49.027L242.95,49.204L244.2,48.998L245.44,48.779L246.68,49.416L247.92,49.245L249.17,49.231L250.41,49.129L251.65,48.849L252.89,48.447L254.14,48.223L255.38,48.03L256.62,48.37L257.86,48.407L259.1,48.312L260.35,48.5L261.59,48.332L262.83,48.016L264.07,48.006L265.32,47.582L266.56,47.545L267.8,47.706L269.04,47.65L270.29,47.61L271.53,47.613L272.77,47.428L274.01,47.582L275.25,47.477L276.5,47.359L277.74,47.343L278.98,47.363L280.22,47.417L281.47,47.256L282.71,46.912L283.95,46.984L285.19,47.019L286.44,47.007L287.68,46.884L288.92,46.918L290.16,46.991L291.4,46.954L292.65,46.795L293.89,46.835L295.13,46.711L296.37,46.662L297.62,46.653L298.86,46.583L300.1,46.492L301.34,46.592L302.59,46.415L303.83,46.699L305.07,46.548L306.31,46.369L307.55,46.278L308.8,46.331L310.04,46.338L311.28,46.243L312.52,46.19L313.77,46.257L315.01,46.25L316.25,46.106L317.49,46.117L318.74,46.02L319.98,46.01L321.22,46.035L322.46,46.042L323.7,46.084L324.95,46.01L326.19,45.963L327.43,45.922L328.67,45.84L329.92,45.877L331.16,45.882L332.4,45.81L333.64,45.842L334.89,45.772L336.13,45.807L337.37,45.749L338.61,45.794L339.85,45.679L341.1,45.754L342.34,45.654L343.58,45.702L344.82,45.675L346.07,45.635L347.31,45.616L348.55,45.609L349.79,45.588L351.04,45.66L352.28,45.558L353.52,45.621L354.76,45.553L356,45.549L357.25,45.577L358.49,45.509L359.73,45.491L360.97,45.481L362.22,45.47L363.46,45.458L364.7,45.462L365.94,45.46L367.19,45.432L368.43,45.458L369.67,45.455L370.91,45.442L372.15,45.437L373.4,45.402L374.64,45.423L375.88,45.376L377.12,45.36L378.37,45.386L379.61,45.342L380.85,45.337L382.09,45.362L383.34,45.358L384.58,45.318L385.82,45.309L387.06,45.353L388.3,45.311L389.55,45.314L390.79,45.306L392.03,45.295L393.27,45.279L394.52,45.304L395.76,45.299L397,45.279L398.24,45.26L399.49,45.274L400.73,45.297L401.97,45.244L403.21,45.265L404.45,45.251L405.7,45.237L406.94,45.283L408.18,45.253L409.42,45.269L410.67,45.248L411.91,45.262L413.15,45.23L414.39,45.251L415.64,45.221L416.88,45.221L418.12,45.234L419.36,45.218L420.6,45.214L421.85,45.218L423.09,45.216L424.33,45.232L425.57,45.207L426.82,45.213L428.06,45.204L429.3,45.209L430.54,45.204L431.78,45.185L433.03,45.193L434.27,45.2L435.51,45.206L436.75,45.209L438,45.185L439.24,45.183L440.48,45.186L441.72,45.206L442.97,45.19L444.21,45.185L445.45,45.183L446.69,45.192L447.93,45.171L449.18,45.172L450.42,45.179L451.66,45.169L452.9,45.181L454.15,45.181L455.39,45.183L456.63,45.171L457.87,45.188L459.12,45.171L460.36,45.172L461.6,45.174L462.84,45.174L464.08,45.179L465.33,45.165L466.57,45.178L467.81,45.165L469.05,45.165L470.3,45.158L471.54,45.176L472.78,45.171L474.02,45.162L475.27,45.169L476.51,45.167L477.75,45.158L478.99,45.158L480.23,45.157L481.48,45.155L482.72,45.158L483.96,45.164L485.2,45.165L486.45,45.158L487.69,45.164L488.93,45.16L490.17,45.151L491.42,45.155L492.66,45.155L493.9,45.155L495.14,45.155L496.38,45.155L497.63,45.153L498.87,45.157L500.11,45.155L501.35,45.153L502.6,45.157L503.84,45.157L505.08,45.157L506.32,45.16L507.57,45.153L508.81,45.153L510.05,45.157L511.29,45.151L512.53,45.153L513.78,45.151L515.02,45.155L516.26,45.155L517.5,45.153L518.75,45.157L519.99,45.153L521.23,45.151L522.47,45.151L523.72,45.153L524.96,45.153L527.44,45.151L529.93,45.151L531.17,45.151L533.65,45.157L534.9,45.151L536.14,45.151L537.38,45.16L538.62,45.151L539.87,45.153L542.35,45.153L543.59,45.151L546.08,45.151L547.32,45.151L551.05,45.151L554.77,45.151L556.02,45.151L560.98,45.151L564.71,45.151L567.2,45.151L569.68,45.151L573.41,45.153L575.89,45.151L579.62,45.151L583.35,45.151L594.53,45.151L601.98,45.151L656.64,45.151L720,45.151" style="fill:none;stroke:#0000FF" />
</g>
</svg>
