<?xml version="1.0"?>
<!-- Generated by SVGo and Plotinum VG -->
<svg width="720pt" height="432pt" viewBox="0 0 720 432"
	xmlns="http://www.w3.org/2000/svg"
	xmlns:xlink="http://www.w3.org/1999/xlink">
<g transform="scale(1, -1) translate(0, -432)">
<path d="M0,0L720,0L720,432L0,432Z" style="fill:#FFFFFF" />
<text x="358.5" y="-420.45" transform="scale(1, -1)"
	style="font-family:Times;font-weight:normal;font-style:normal;font-size:12px"> </text>
<text x="376.81" y="-3.8613" transform="scale(1, -1)"
	style="font-family:Times;font-weight:normal;font-style:normal;font-size:12px">Costs</text>
<text x="51.555" y="-18.634" transform="scale(1, -1)"
	style="font-family:Times;font-weight:normal;font-style:normal;font-size:10px">0.00</text>
<text x="326.56" y="-18.634" transform="scale(1, -1)"
	style="font-family:Times;font-weight:normal;font-style:normal;font-size:10px">250.00</text>
<text x="606.57" y="-18.634" transform="scale(1, -1)"
	style="font-family:Times;font-weight:normal;font-style:normal;font-size:10px">500.00</text>
<path d="M60.305,28.263L60.305,36.263" style="fill:none;stroke:#000000;stroke-width:0.5" />
<path d="M340.31,28.263L340.31,36.263" style="fill:none;stroke:#000000;stroke-width:0.5" />
<path d="M620.32,28.263L620.32,36.263" style="fill:none;stroke:#000000;stroke-width:0.5" />
<path d="M116.31,32.263L116.31,36.263" style="fill:none;stroke:#000000;stroke-width:0.5" />
<path d="M172.31,32.263L172.31,36.263" style="fill:none;stroke:#000000;stroke-width:0.5" />
<path d="M228.31,32.263L228.31,36.263" style="fill:none;stroke:#000000;stroke-width:0.5" />
<path d="M284.31,32.263L284.31,36.263" style="fill:none;stroke:#000000;stroke-width:0.5" />
<path d="M396.31,32.263L396.31,36.263" style="fill:none;stroke:#000000;stroke-width:0.5" />
<path d="M452.31,32.263L452.31,36.263" style="fill:none;stroke:#000000;stroke-width:0.5" />
<path d="M508.32,32.263L508.32,36.263" style="fill:none;stroke:#000000;stroke-width:0.5" />
<path d="M564.32,32.263L564.32,36.263" style="fill:none;stroke:#000000;stroke-width:0.5" />
<path d="M676.32,32.263L676.32,36.263" style="fill:none;stroke:#000000;stroke-width:0.5" />
<path d="M60.305,36.263L720,36.263" style="fill:none;stroke:#000000;stroke-width:0.5" />
<g transform="rotate(90)">
<text x="152.55" y="11.555" transform="scale(1, -1)"
	style="font-family:Times;font-weight:normal;font-style:normal;font-size:12px">Number of trials (1000000 total)</text>
</g>
<text x="19.055" y="-79.384" transform="scale(1, -1)"
	style="font-family:Times;font-weight:normal;font-style:normal;font-size:10px">10000</text>
<text x="19.055" y="-229.15" transform="scale(1, -1)"
	style="font-family:Times;font-weight:normal;font-style:normal;font-size:10px">50000</text>
<text x="19.055" y="-378.92" transform="scale(1, -1)"
	style="font-family:Times;font-weight:normal;font-style:normal;font-size:10px">90000</text>
<path d="M46.555,82.59L54.555,82.59" style="fill:none;stroke:#000000;stroke-width:0.5" />
<path d="M46.555,232.36L54.555,232.36" style="fill:none;stroke:#000000;stroke-width:0.5" />
<path d="M46.555,382.13L54.555,382.13" style="fill:none;stroke:#000000;stroke-width:0.5" />
<path d="M50.555,120.03L54.555,120.03" style="fill:none;stroke:#000000;stroke-width:0.5" />
<path d="M50.555,157.47L54.555,157.47" style="fill:none;stroke:#000000;stroke-width:0.5" />
<path d="M50.555,194.92L54.555,194.92" style="fill:none;stroke:#000000;stroke-width:0.5" />
<path d="M50.555,269.8L54.555,269.8" style="fill:none;stroke:#000000;stroke-width:0.5" />
<path d="M50.555,307.24L54.555,307.24" style="fill:none;stroke:#000000;stroke-width:0.5" />
<path d="M50.555,344.69L54.555,344.69" style="fill:none;stroke:#000000;stroke-width:0.5" />
<path d="M54.555,45.151L54.555,416.58" style="fill:none;stroke:#000000;stroke-width:0.5" />
<path d="M60.305,416.58L86.065,51.827L87.185,48.641L90.545,136.55L92.785,91.46L93.905,59.177L95.025,52.273L97.266,99.78L98.386,98.735L99.506,93.31L100.63,67.014L103.99,94.145L106.23,67.048L107.35,97.897L108.47,62.293L109.59,74.049L110.71,52.101L111.83,55.665L112.95,45.211L116.31,154.3L117.43,113.15L118.55,46.05L119.67,102.51L120.79,57.549L121.91,45.181L123.03,102.82L124.15,49.918L125.27,58.975L126.39,61.6L127.51,58.163L128.63,67.426L129.75,67.916L130.87,62.315L131.99,54.564L133.11,51.771L134.23,58.443L135.35,57.537L136.47,64.363L137.59,69.661L138.71,56.249L139.83,68.785L140.95,58.084L142.07,61.791L143.19,59.716L144.31,61.094L145.43,59.773L146.55,85.975L147.67,71.964L148.79,66.052L149.91,131.2L151.03,62.951L152.15,56.403L153.27,80.707L154.39,74.45L155.51,82.313L156.63,79.261L157.75,64.067L158.87,61.229L159.99,73.735L161.11,65.737L162.23,62.663L163.35,78.966L164.47,65.528L165.59,67.347L166.71,72.612L167.83,60.499L168.95,60.862L170.07,61.394L171.19,53.86L172.31,66.134L173.43,73.166L174.55,58.305L175.67,70.193L176.79,68.115L177.91,55.433L179.03,69.302L180.15,77.363L181.27,56.848L182.39,71.642L183.51,63.071L184.63,61.42L185.75,63.753L186.87,69.511L187.99,68.444L189.11,66.737L190.23,61.424L191.35,59.305L192.47,59.458L193.59,69.676L194.71,59.286L195.83,63.663L196.95,68.998L198.07,60.316L199.19,63.667L200.31,60.48L201.43,58.706L202.55,61.491L203.67,61.165L204.79,57.638L205.91,77.517L207.03,69.968L208.15,56.901L209.27,68.092L210.39,61.473L211.51,57.799L212.63,70.882L213.75,59.447L214.87,59.406L215.99,61.349L217.11,59.791L218.23,59.297L219.35,62.165L220.47,59.439L221.59,57.837L222.71,59.278L223.83,57.968L224.95,56.953L226.07,59.106L227.19,57.608L228.31,56.006L229.43,59.091L230.55,55.59L231.67,56.942L232.79,57.601L233.91,55.433L235.03,55.478L236.15,60.57L237.27,56.365L238.39,56.777L239.51,58.698L240.63,55.066L241.75,54.886L242.87,58.515L243.99,56.755L245.11,58.312L246.23,57.511L247.35,54.639L248.47,54.774L249.59,56.358L250.71,54.894L251.83,54.471L252.95,57.23L254.07,54.602L255.19,54.755L256.31,55.946L257.43,53.1L258.55,53.475L259.67,53.714L260.79,52.209L261.91,54.475L263.03,55.16L264.15,52.528L265.27,54.021L266.39,53.756L267.51,51.595L268.63,54.134L269.75,53.033L270.87,51.517L271.99,53.033L273.11,51.947L274.23,51.554L275.35,52.295L276.47,51.872L277.59,51.483L278.71,51.505L279.83,50.936L280.95,50.865L282.07,51.007L283.19,51.442L284.31,50.697L285.43,51.131L286.55,51.007L287.67,50.371L288.79,50.659L289.91,50.086L291.03,49.817L292.15,50.801L293.27,50.206L294.39,49.716L295.51,50.468L296.63,50.255L297.75,49.394L298.87,49.776L299.99,49.824L301.11,49.753L302.23,50.322L303.35,49.6L304.47,49.206L305.59,49.199L306.71,49.251L307.83,48.944L308.95,49.143L310.07,48.974L311.19,48.806L312.31,48.959L313.43,48.544L314.55,48.255L315.67,48.585L316.79,48.049L317.91,48.154L319.03,48.364L320.15,47.847L321.27,47.99L322.39,48.398L323.51,47.821L324.63,47.671L325.75,47.784L326.87,47.634L327.99,47.626L329.11,47.596L330.23,47.398L331.35,47.417L332.47,47.405L333.59,47.405L334.71,47.454L335.83,47.244L336.95,47.061L338.07,47.065L339.19,47.031L340.31,47.072L341.43,47.181L342.55,47.098L343.67,46.896L344.79,46.862L345.91,46.986L347.03,46.784L348.15,46.788L349.27,46.788L350.39,46.664L351.51,46.582L352.63,46.645L353.75,46.514L354.87,46.481L355.99,46.54L357.11,46.526L358.23,46.488L359.35,46.503L360.47,46.308L361.59,46.233L362.71,46.413L363.83,46.196L364.95,46.327L366.07,46.185L367.19,46.136L368.31,46.114L369.43,46.189L370.55,46.151L371.67,46.005L372.79,46.192L373.91,46.031L375.03,46.02L376.15,46.084L377.27,45.904L378.39,45.994L379.51,45.93L380.63,45.859L381.75,46.005L382.87,45.799L383.99,45.765L385.11,45.889L386.23,45.728L387.35,45.762L388.47,45.81L389.59,45.769L390.71,45.698L391.83,45.728L392.95,45.84L394.07,45.709L395.19,45.642L396.31,45.649L397.43,45.627L398.55,45.571L399.67,45.661L400.79,45.634L401.91,45.574L403.03,45.578L404.15,45.559L405.27,45.545L406.39,45.537L407.51,45.47L408.63,45.488L409.75,45.47L410.87,45.473L411.99,45.485L413.11,45.41L414.23,45.447L415.35,45.421L416.47,45.462L417.59,45.462L418.71,45.44L419.83,45.455L420.95,45.406L422.07,45.417L423.19,45.339L424.31,45.361L425.43,45.369L426.55,45.369L427.67,45.372L428.79,45.324L429.91,45.305L431.03,45.324L432.15,45.32L433.27,45.297L434.39,45.346L435.51,45.301L436.63,45.316L437.75,45.339L438.87,45.271L439.99,45.297L441.11,45.271L442.23,45.316L443.35,45.305L444.47,45.245L445.59,45.264L446.71,45.271L447.83,45.249L448.95,45.249L450.07,45.264L451.19,45.23L452.31,45.241L453.43,45.256L454.55,45.267L455.67,45.237L456.79,45.249L457.91,45.252L459.03,45.215L460.15,45.252L461.27,45.237L462.39,45.219L463.51,45.234L464.63,45.226L465.75,45.211L466.87,45.241L467.99,45.223L469.11,45.215L470.23,45.193L471.35,45.196L472.47,45.204L473.59,45.189L474.71,45.193L475.83,45.208L476.95,45.185L478.07,45.193L479.19,45.196L480.31,45.196L481.43,45.181L482.55,45.193L483.67,45.2L484.79,45.193L485.91,45.178L487.03,45.181L488.15,45.17L489.27,45.181L490.39,45.17L491.51,45.17L492.63,45.174L493.75,45.17L494.87,45.159L495.99,45.174L497.11,45.17L498.23,45.166L499.35,45.185L500.47,45.163L501.59,45.181L502.71,45.159L503.83,45.159L504.96,45.178L506.08,45.178L507.2,45.159L508.32,45.155L509.44,45.155L510.56,45.159L512.8,45.174L513.92,45.17L515.04,45.181L516.16,45.155L517.28,45.166L518.4,45.155L519.52,45.151L520.64,45.163L521.76,45.163L522.88,45.159L524,45.155L525.12,45.151L526.24,45.166L527.36,45.151L528.48,45.17L529.6,45.155L530.72,45.151L531.84,45.17L532.96,45.159L534.08,45.159L535.2,45.155L536.32,45.159L537.44,45.151L538.56,45.155L539.68,45.159L540.8,45.155L541.92,45.159L543.04,45.151L544.16,45.151L546.4,45.151L547.52,45.151L548.64,45.151L552,45.163L553.12,45.151L554.24,45.151L556.48,45.151L557.6,45.151L558.72,45.151L560.96,45.155L563.2,45.151L564.32,45.151L566.56,45.155L567.68,45.151L569.92,45.151L575.52,45.151L576.64,45.151L577.76,45.155L590.08,45.151L592.32,45.151L594.56,45.151L597.92,45.151L605.76,45.151L615.84,45.151L618.08,45.155L624.8,45.151L647.2,45.151L692,45.151L720,45.151" style="fill:none;stroke:#0000FF" />
</g>
</svg>
