<?xml version="1.0"?>
<!-- Generated by SVGo and Plotinum VG -->
<svg width="720pt" height="432pt" viewBox="0 0 720 432"
	xmlns="http://www.w3.org/2000/svg"
	xmlns:xlink="http://www.w3.org/1999/xlink">
<g transform="scale(1, -1) translate(0, -432)">
<path d="M0,0L720,0L720,432L0,432Z" style="fill:#FFFFFF" />
<text x="358.5" y="-420.45" transform="scale(1, -1)"
	style="font-family:Times;font-weight:normal;font-style:normal;font-size:12px"> </text>
<text x="379.31" y="-3.8613" transform="scale(1, -1)"
	style="font-family:Times;font-weight:normal;font-style:normal;font-size:12px">Costs</text>
<text x="62.805" y="-18.634" transform="scale(1, -1)"
	style="font-family:Times;font-weight:normal;font-style:normal;font-size:10px">0</text>
<text x="381.11" y="-18.634" transform="scale(1, -1)"
	style="font-family:Times;font-weight:normal;font-style:normal;font-size:10px">200</text>
<text x="704.42" y="-18.634" transform="scale(1, -1)"
	style="font-family:Times;font-weight:normal;font-style:normal;font-size:10px">400</text>
<path d="M65.305,28.263L65.305,36.263" style="fill:none;stroke:#000000;stroke-width:0.5" />
<path d="M388.61,28.263L388.61,36.263" style="fill:none;stroke:#000000;stroke-width:0.5" />
<path d="M711.92,28.263L711.92,36.263" style="fill:none;stroke:#000000;stroke-width:0.5" />
<path d="M226.96,32.263L226.96,36.263" style="fill:none;stroke:#000000;stroke-width:0.5" />
<path d="M550.26,32.263L550.26,36.263" style="fill:none;stroke:#000000;stroke-width:0.5" />
<path d="M65.305,36.263L720,36.263" style="fill:none;stroke:#000000;stroke-width:0.5" />
<g transform="rotate(90)">
<text x="152.55" y="11.555" transform="scale(1, -1)"
	style="font-family:Times;font-weight:normal;font-style:normal;font-size:12px">Number of trials (1000000 total)</text>
</g>
<text x="19.055" y="-128.38" transform="scale(1, -1)"
	style="font-family:Times;font-weight:normal;font-style:normal;font-size:10px">100000</text>
<text x="19.055" y="-214.82" transform="scale(1, -1)"
	style="font-family:Times;font-weight:normal;font-style:normal;font-size:10px">200000</text>
<text x="19.055" y="-301.26" transform="scale(1, -1)"
	style="font-family:Times;font-weight:normal;font-style:normal;font-size:10px">300000</text>
<text x="19.055" y="-387.7" transform="scale(1, -1)"
	style="font-family:Times;font-weight:normal;font-style:normal;font-size:10px">400000</text>
<path d="M51.555,131.59L59.555,131.59" style="fill:none;stroke:#000000;stroke-width:0.5" />
<path d="M51.555,218.03L59.555,218.03" style="fill:none;stroke:#000000;stroke-width:0.5" />
<path d="M51.555,304.47L59.555,304.47" style="fill:none;stroke:#000000;stroke-width:0.5" />
<path d="M51.555,390.91L59.555,390.91" style="fill:none;stroke:#000000;stroke-width:0.5" />
<path d="M55.555,62.438L59.555,62.438" style="fill:none;stroke:#000000;stroke-width:0.5" />
<path d="M55.555,79.726L59.555,79.726" style="fill:none;stroke:#000000;stroke-width:0.5" />
<path d="M55.555,97.014L59.555,97.014" style="fill:none;stroke:#000000;stroke-width:0.5" />
<path d="M55.555,114.3L59.555,114.3" style="fill:none;stroke:#000000;stroke-width:0.5" />
<path d="M55.555,148.88L59.555,148.88" style="fill:none;stroke:#000000;stroke-width:0.5" />
<path d="M55.555,166.17L59.555,166.17" style="fill:none;stroke:#000000;stroke-width:0.5" />
<path d="M55.555,183.45L59.555,183.45" style="fill:none;stroke:#000000;stroke-width:0.5" />
<path d="M55.555,200.74L59.555,200.74" style="fill:none;stroke:#000000;stroke-width:0.5" />
<path d="M55.555,235.32L59.555,235.32" style="fill:none;stroke:#000000;stroke-width:0.5" />
<path d="M55.555,252.61L59.555,252.61" style="fill:none;stroke:#000000;stroke-width:0.5" />
<path d="M55.555,269.89L59.555,269.89" style="fill:none;stroke:#000000;stroke-width:0.5" />
<path d="M55.555,287.18L59.555,287.18" style="fill:none;stroke:#000000;stroke-width:0.5" />
<path d="M55.555,321.76L59.555,321.76" style="fill:none;stroke:#000000;stroke-width:0.5" />
<path d="M55.555,339.05L59.555,339.05" style="fill:none;stroke:#000000;stroke-width:0.5" />
<path d="M55.555,356.33L59.555,356.33" style="fill:none;stroke:#000000;stroke-width:0.5" />
<path d="M55.555,373.62L59.555,373.62" style="fill:none;stroke:#000000;stroke-width:0.5" />
<path d="M55.555,408.2L59.555,408.2" style="fill:none;stroke:#000000;stroke-width:0.5" />
<path d="M59.555,45.151L59.555,416.58" style="fill:none;stroke:#000000;stroke-width:0.5" />
<path d="M65.305,416.58L102.48,48.692L107.33,55.424L108.95,55.638L110.57,59.207L112.18,63.322L118.65,51.984L120.27,52.047L121.88,62.423L126.73,63.026L128.35,73.572L129.97,62.822L131.58,62.833L136.43,52.294L138.05,52.114L142.9,48.625L144.51,55.49L146.13,52.225L147.75,59.292L149.36,45.318L150.98,52.226L152.6,52.385L154.21,49.621L155.83,45.872L157.45,52.723L159.06,52.209L160.68,48.709L162.3,45.548L163.91,64.56L165.53,60.472L167.15,64.245L168.76,46.697L170.38,46.465L172,47.144L173.61,55.177L175.23,47.97L176.85,46.913L178.46,46.483L180.08,49.311L181.69,46.535L183.31,47.641L184.93,51.34L186.54,46.593L188.16,46.707L189.78,51.324L191.39,47.588L193.01,48.936L194.63,48.204L196.24,46.625L197.86,46.67L199.48,47.205L201.09,47.591L202.71,47.053L204.33,47.364L205.94,47.197L207.56,48.136L209.18,49.218L210.79,49.132L212.41,48.272L214.03,47.959L215.64,47.165L217.26,47.254L218.88,47.29L220.49,48.421L222.11,47.628L223.72,47.566L225.34,47.132L226.96,48.628L228.57,48.6L230.19,49.412L231.81,47.657L233.42,47.018L235.04,46.759L236.66,47.454L238.27,46.879L239.89,46.696L241.51,46.303L243.12,46.66L244.74,46.854L246.36,47.962L247.97,46.668L249.59,46.744L251.21,46.712L252.82,46.9L254.44,46.38L256.06,46.776L257.67,46.32L259.29,46.629L260.91,46.285L262.52,46.062L264.14,46.457L265.75,46.687L267.37,46.781L268.99,45.844L270.6,45.804L272.22,46.463L273.84,46.151L275.45,46.28L277.07,45.895L278.69,45.956L280.3,45.801L281.92,45.996L283.54,45.96L285.15,45.955L286.77,45.909L288.39,45.991L290,45.863L291.62,46.062L293.24,45.908L294.85,45.756L296.47,45.692L298.09,45.714L299.7,45.774L301.32,45.721L302.93,45.705L304.55,45.646L306.17,45.594L307.78,45.68L309.4,45.718L311.02,45.691L312.63,45.697L314.25,45.654L315.87,45.615L317.48,45.573L319.1,45.613L320.72,45.585L322.33,45.576L323.95,45.529L325.57,45.482L327.18,45.505L328.8,45.588L330.42,45.57L332.03,45.514L333.65,45.442L335.27,45.457L336.88,45.446L338.5,45.49L340.12,45.425L341.73,45.362L343.35,45.387L344.96,45.418L346.58,45.441L348.2,45.381L349.81,45.375L351.43,45.37L353.05,45.376L354.66,45.379L356.28,45.342L357.9,45.331L359.51,45.335L361.13,45.314L362.75,45.296L364.36,45.307L365.98,45.31L367.6,45.286L369.21,45.275L370.83,45.299L372.45,45.279L374.06,45.284L375.68,45.282L377.3,45.258L378.91,45.259L380.53,45.259L382.14,45.253L383.76,45.253L385.38,45.237L386.99,45.25L388.61,45.253L390.23,45.259L391.84,45.244L393.46,45.233L395.08,45.224L396.69,45.226L398.31,45.229L399.93,45.226L401.54,45.214L403.16,45.214L404.78,45.21L406.39,45.207L408.01,45.208L409.63,45.212L411.24,45.197L412.86,45.198L414.48,45.193L416.09,45.209L417.71,45.193L419.33,45.196L420.94,45.182L422.56,45.2L424.17,45.187L425.79,45.186L427.41,45.189L429.02,45.181L430.64,45.186L432.26,45.18L433.87,45.183L435.49,45.192L437.11,45.187L438.72,45.175L440.34,45.174L441.96,45.181L443.57,45.18L445.19,45.178L446.81,45.17L448.42,45.171L450.04,45.164L451.66,45.17L453.27,45.169L454.89,45.176L456.51,45.17L458.12,45.165L459.74,45.167L461.35,45.165L462.97,45.166L464.59,45.162L466.2,45.158L467.82,45.163L469.44,45.163L471.05,45.17L472.67,45.163L474.29,45.164L475.9,45.161L477.52,45.16L479.14,45.157L480.75,45.157L482.37,45.163L483.99,45.162L485.6,45.156L487.22,45.154L488.84,45.157L490.45,45.157L492.07,45.159L493.69,45.155L495.3,45.157L496.92,45.156L498.54,45.154L500.15,45.152L501.77,45.155L503.38,45.152L505,45.153L506.62,45.158L508.23,45.152L509.85,45.157L511.47,45.152L513.08,45.152L514.7,45.154L516.32,45.157L517.93,45.151L519.55,45.153L521.17,45.152L522.78,45.154L524.4,45.151L527.63,45.151L529.25,45.153L530.87,45.153L532.48,45.151L534.1,45.154L535.72,45.153L537.33,45.152L540.56,45.154L542.18,45.152L543.8,45.152L545.41,45.151L547.03,45.151L548.65,45.151L550.26,45.152L551.88,45.153L555.11,45.151L559.96,45.151L561.58,45.152L563.2,45.151L564.81,45.152L566.43,45.151L572.9,45.151L574.51,45.152L579.36,45.151L580.98,45.151L589.06,45.151L592.29,45.151L603.61,45.151L613.31,45.151L647.26,45.151L677.97,45.151L720,45.151" style="fill:none;stroke:#0000FF" />
</g>
</svg>
