<?xml version="1.0"?>
<!-- Generated by SVGo and Plotinum VG -->
<svg width="720pt" height="432pt" viewBox="0 0 720 432"
	xmlns="http://www.w3.org/2000/svg"
	xmlns:xlink="http://www.w3.org/1999/xlink">
<g transform="scale(1, -1) translate(0, -432)">
<path d="M0,0L720,0L720,432L0,432Z" style="fill:#FFFFFF" />
<text x="358.5" y="-420.45" transform="scale(1, -1)"
	style="font-family:Times;font-weight:normal;font-style:normal;font-size:12px"> </text>
<text x="379.31" y="-3.8613" transform="scale(1, -1)"
	style="font-family:Times;font-weight:normal;font-style:normal;font-size:12px">Costs</text>
<text x="62.805" y="-18.634" transform="scale(1, -1)"
	style="font-family:Times;font-weight:normal;font-style:normal;font-size:10px">0</text>
<text x="362.31" y="-18.634" transform="scale(1, -1)"
	style="font-family:Times;font-weight:normal;font-style:normal;font-size:10px">200</text>
<text x="666.82" y="-18.634" transform="scale(1, -1)"
	style="font-family:Times;font-weight:normal;font-style:normal;font-size:10px">400</text>
<path d="M65.305,28.263L65.305,36.263" style="fill:none;stroke:#000000;stroke-width:0.5" />
<path d="M369.81,28.263L369.81,36.263" style="fill:none;stroke:#000000;stroke-width:0.5" />
<path d="M674.32,28.263L674.32,36.263" style="fill:none;stroke:#000000;stroke-width:0.5" />
<path d="M217.56,32.263L217.56,36.263" style="fill:none;stroke:#000000;stroke-width:0.5" />
<path d="M522.07,32.263L522.07,36.263" style="fill:none;stroke:#000000;stroke-width:0.5" />
<path d="M65.305,36.263L720,36.263" style="fill:none;stroke:#000000;stroke-width:0.5" />
<g transform="rotate(90)">
<text x="152.55" y="11.555" transform="scale(1, -1)"
	style="font-family:Times;font-weight:normal;font-style:normal;font-size:12px">Number of trials (1000000 total)</text>
</g>
<text x="24.055" y="-87.267" transform="scale(1, -1)"
	style="font-family:Times;font-weight:normal;font-style:normal;font-size:10px">50000</text>
<text x="19.055" y="-223.23" transform="scale(1, -1)"
	style="font-family:Times;font-weight:normal;font-style:normal;font-size:10px">200000</text>
<text x="19.055" y="-359.2" transform="scale(1, -1)"
	style="font-family:Times;font-weight:normal;font-style:normal;font-size:10px">350000</text>
<path d="M51.555,90.473L59.555,90.473" style="fill:none;stroke:#000000;stroke-width:0.5" />
<path d="M51.555,226.44L59.555,226.44" style="fill:none;stroke:#000000;stroke-width:0.5" />
<path d="M51.555,362.41L59.555,362.41" style="fill:none;stroke:#000000;stroke-width:0.5" />
<path d="M55.555,158.46L59.555,158.46" style="fill:none;stroke:#000000;stroke-width:0.5" />
<path d="M55.555,294.42L59.555,294.42" style="fill:none;stroke:#000000;stroke-width:0.5" />
<path d="M59.555,45.151L59.555,416.58" style="fill:none;stroke:#000000;stroke-width:0.5" />
<path d="M65.305,416.58L109.46,63.343L110.98,59.323L112.5,52.125L114.03,62.845L118.59,62.619L120.12,52.255L123.16,55.955L124.68,51.968L126.21,63.024L127.73,70.162L130.77,59.552L132.3,52.183L133.82,48.485L139.91,48.677L141.43,55.688L142.95,48.653L146,59.437L147.52,66.405L149.04,52.06L150.57,52L152.09,59.512L153.61,52.183L155.13,49.133L156.66,52.27L158.18,67.225L159.7,67.314L161.23,52.281L162.75,46.144L164.27,46.171L165.79,45.718L167.32,57.278L168.84,46.189L170.36,46.478L171.88,47.788L173.41,46.991L174.93,46.916L176.45,47.592L177.97,53.369L179.5,47.066L181.02,47.046L182.54,52.776L184.06,46.321L185.59,47.456L187.11,46.701L188.63,47.339L190.15,47.07L191.68,47.693L193.2,47.99L194.72,47.852L196.24,47.733L197.77,46.786L199.29,47.401L200.81,48.273L202.33,48.394L203.86,49.001L205.38,49.007L206.9,49.129L208.42,49.342L209.95,48.388L211.47,48.651L212.99,49.333L214.51,48.521L216.04,47.833L217.56,47.459L219.08,48.052L220.6,48.962L222.13,48.455L223.65,47.879L225.17,47.441L226.69,47.381L228.22,47.62L229.74,47.168L231.26,46.908L232.78,47.301L234.31,47.585L235.83,47.68L237.35,46.876L238.88,47.198L240.4,48.628L241.92,47.868L243.44,47.838L244.97,47.72L246.49,46.979L248.01,46.951L249.53,47.12L251.06,46.667L252.58,47.34L254.1,46.697L255.62,46.378L257.15,45.838L258.67,46.383L260.19,46.717L261.71,46.542L263.24,46.303L264.76,46.491L266.28,46.156L267.8,46.07L269.33,46.219L270.85,46.327L272.37,46.263L273.89,46.08L275.42,46.189L276.94,46.161L278.46,45.895L279.98,46.002L281.51,45.828L283.03,45.819L284.55,46.033L286.07,45.892L287.6,45.868L289.12,45.973L290.64,45.861L292.16,45.817L293.69,45.852L295.21,46.053L296.73,45.899L298.25,45.877L299.78,45.799L301.3,45.879L302.82,45.896L304.34,45.866L305.87,45.842L307.39,45.801L308.91,45.771L310.43,45.731L311.96,45.691L313.48,45.679L315,45.711L316.52,45.668L318.05,45.638L319.57,45.623L321.09,45.662L322.62,45.671L324.14,45.621L325.66,45.605L327.18,45.615L328.71,45.576L330.23,45.563L331.75,45.513L333.27,45.545L334.8,45.508L336.32,45.518L337.84,45.529L339.36,45.457L340.89,45.437L342.41,45.426L343.93,45.412L345.45,45.441L346.98,45.425L348.5,45.381L350.02,45.363L351.54,45.363L353.07,45.38L354.59,45.388L356.11,45.375L357.63,45.377L359.16,45.333L360.68,45.333L362.2,45.334L363.72,45.328L365.25,45.344L366.77,45.305L368.29,45.314L369.81,45.328L371.34,45.303L372.86,45.305L374.38,45.307L375.9,45.286L377.43,45.275L378.95,45.273L380.47,45.266L381.99,45.265L383.52,45.269L385.04,45.254L386.56,45.25L388.08,45.257L389.61,45.247L391.13,45.236L392.65,45.267L394.17,45.238L395.7,45.239L397.22,45.228L398.74,45.228L400.27,45.231L401.79,45.231L403.31,45.226L404.83,45.218L406.36,45.235L407.88,45.239L409.4,45.213L410.92,45.218L412.45,45.222L413.97,45.206L415.49,45.2L417.01,45.195L418.54,45.195L420.06,45.207L421.58,45.2L423.1,45.218L424.63,45.192L426.15,45.197L427.67,45.181L429.19,45.198L430.72,45.19L432.24,45.195L433.76,45.189L435.28,45.191L436.81,45.183L438.33,45.179L439.85,45.196L441.37,45.183L442.9,45.169L444.42,45.18L445.94,45.186L447.46,45.177L448.99,45.176L450.51,45.176L452.03,45.167L453.55,45.17L455.08,45.169L456.6,45.169L458.12,45.165L459.64,45.163L461.17,45.174L462.69,45.162L464.21,45.161L465.73,45.166L467.26,45.165L468.78,45.165L470.3,45.166L471.82,45.168L473.35,45.165L474.87,45.166L476.39,45.164L477.91,45.161L479.44,45.157L480.96,45.158L482.48,45.162L484.01,45.159L485.53,45.158L487.05,45.156L488.57,45.161L490.1,45.162L491.62,45.16L493.14,45.16L494.66,45.16L496.19,45.158L497.71,45.16L499.23,45.158L500.75,45.154L502.28,45.156L503.8,45.152L505.32,45.158L506.84,45.158L508.37,45.155L509.89,45.158L511.41,45.156L512.93,45.154L514.46,45.154L515.98,45.154L517.5,45.157L519.02,45.153L520.55,45.154L522.07,45.152L523.59,45.156L525.11,45.153L526.64,45.157L528.16,45.152L529.68,45.151L531.2,45.154L532.73,45.155L534.25,45.152L535.77,45.156L537.29,45.153L538.82,45.152L540.34,45.152L541.86,45.151L543.38,45.153L544.91,45.153L546.43,45.151L549.47,45.151L551,45.153L552.52,45.153L557.09,45.151L560.13,45.151L561.66,45.154L563.18,45.151L564.7,45.151L569.27,45.152L572.31,45.153L576.88,45.151L578.4,45.151L582.97,45.151L586.02,45.151L587.54,45.151L593.63,45.151L601.24,45.152L605.81,45.151L608.85,45.151L627.12,45.151L630.17,45.151L643.87,45.151L645.4,45.151L653.01,45.151L684.98,45.151L720,45.151" style="fill:none;stroke:#0000FF" />
</g>
</svg>
