<?xml version="1.0"?>
<!-- Generated by SVGo and Plotinum VG -->
<svg width="720pt" height="432pt" viewBox="0 0 720 432"
	xmlns="http://www.w3.org/2000/svg"
	xmlns:xlink="http://www.w3.org/1999/xlink">
<g transform="scale(1, -1) translate(0, -432)">
<path d="M0,0L720,0L720,432L0,432Z" style="fill:#FFFFFF" />
<text x="358.5" y="-420.45" transform="scale(1, -1)"
	style="font-family:Times;font-weight:normal;font-style:normal;font-size:12px"> </text>
<text x="379.31" y="-3.8613" transform="scale(1, -1)"
	style="font-family:Times;font-weight:normal;font-style:normal;font-size:12px">Costs</text>
<text x="62.805" y="-18.634" transform="scale(1, -1)"
	style="font-family:Times;font-weight:normal;font-style:normal;font-size:10px">0</text>
<text x="320.21" y="-18.634" transform="scale(1, -1)"
	style="font-family:Times;font-weight:normal;font-style:normal;font-size:10px">200</text>
<text x="582.61" y="-18.634" transform="scale(1, -1)"
	style="font-family:Times;font-weight:normal;font-style:normal;font-size:10px">400</text>
<path d="M65.305,28.263L65.305,36.263" style="fill:none;stroke:#000000;stroke-width:0.5" />
<path d="M327.71,28.263L327.71,36.263" style="fill:none;stroke:#000000;stroke-width:0.5" />
<path d="M590.11,28.263L590.11,36.263" style="fill:none;stroke:#000000;stroke-width:0.5" />
<path d="M196.51,32.263L196.51,36.263" style="fill:none;stroke:#000000;stroke-width:0.5" />
<path d="M458.91,32.263L458.91,36.263" style="fill:none;stroke:#000000;stroke-width:0.5" />
<path d="M65.305,36.263L720,36.263" style="fill:none;stroke:#000000;stroke-width:0.5" />
<g transform="rotate(90)">
<text x="152.55" y="11.555" transform="scale(1, -1)"
	style="font-family:Times;font-weight:normal;font-style:normal;font-size:12px">Number of trials (1000000 total)</text>
</g>
<text x="24.055" y="-107.82" transform="scale(1, -1)"
	style="font-family:Times;font-weight:normal;font-style:normal;font-size:10px">30000</text>
<text x="24.055" y="-239.58" transform="scale(1, -1)"
	style="font-family:Times;font-weight:normal;font-style:normal;font-size:10px">90000</text>
<text x="19.055" y="-371.33" transform="scale(1, -1)"
	style="font-family:Times;font-weight:normal;font-style:normal;font-size:10px">150000</text>
<path d="M51.555,111.03L59.555,111.03" style="fill:none;stroke:#000000;stroke-width:0.5" />
<path d="M51.555,242.78L59.555,242.78" style="fill:none;stroke:#000000;stroke-width:0.5" />
<path d="M51.555,374.54L59.555,374.54" style="fill:none;stroke:#000000;stroke-width:0.5" />
<path d="M55.555,176.91L59.555,176.91" style="fill:none;stroke:#000000;stroke-width:0.5" />
<path d="M55.555,308.66L59.555,308.66" style="fill:none;stroke:#000000;stroke-width:0.5" />
<path d="M59.555,45.151L59.555,416.58" style="fill:none;stroke:#000000;stroke-width:0.5" />
<path d="M65.305,416.58L94.169,48.577L96.793,84.226L99.417,52.705L100.73,51.99L102.04,64.015L103.35,64.375L104.67,48.581L105.98,55.578L107.29,55.453L108.6,56.419L109.91,94.892L111.23,67.862L112.54,48.603L113.85,59.794L115.16,60.108L116.47,86.002L117.79,98.225L119.1,63.088L120.41,48.39L121.72,84.175L123.03,97.678L124.35,58.663L125.66,52.326L128.28,45.244L129.59,68.415L130.91,63.288L132.22,69.109L133.53,47.104L134.84,74.425L136.15,55.918L137.47,53.876L138.78,62.934L140.09,50.914L141.4,74.019L142.71,55.94L144.03,47.87L145.34,59.669L146.65,58.74L147.96,53.044L149.27,52.523L150.59,51.491L151.9,51.078L153.21,55.655L154.52,58.459L155.83,55.182L157.15,51.849L158.46,54.052L159.77,56.302L161.08,66.599L162.39,66.652L163.71,57.629L165.02,52.62L166.33,67.919L167.64,62.877L168.95,60.633L170.27,75.842L171.58,70.02L172.89,58.696L174.2,63.841L175.51,63.395L176.83,58.852L178.14,54.855L179.45,59.361L180.76,58.406L182.07,57.653L183.39,58.151L184.7,54.095L186.01,56.781L187.32,59.967L188.63,56.814L189.95,57.497L191.26,56.557L192.57,57.429L193.88,55.158L195.19,54.493L196.51,54.159L197.82,55.916L199.13,56.882L200.44,53.434L201.75,54.53L203.07,54.875L204.38,53.333L205.69,54.748L207,54.587L208.31,54.368L209.63,52.448L210.94,55.037L212.25,55.055L213.56,54.401L214.87,56.801L216.19,55.002L217.5,53.795L218.81,56.149L220.12,54.598L221.43,54.658L222.75,56.258L224.06,55.222L225.37,52.947L226.68,54.763L227.99,56.037L229.31,53.801L230.62,53.156L231.93,53.147L233.24,52.519L234.55,52.804L235.87,53.197L237.18,53.529L238.49,52.769L239.8,52.986L241.11,52.633L242.43,52.398L243.74,52.503L245.05,51.546L246.36,52.174L247.67,51.932L248.99,50.784L250.3,51.142L251.61,51.076L252.92,50.865L254.23,50.332L255.55,50.402L256.86,50.503L258.17,50.45L259.48,50.527L260.79,50.149L262.11,50.015L263.42,50.294L264.73,50.121L266.04,50.406L267.35,50.914L268.67,50.534L269.98,49.677L271.29,50.277L272.6,50.266L273.92,49.62L275.23,49.596L276.54,49.925L277.85,49.572L279.16,49.526L280.48,49.8L281.79,49.523L283.1,49.069L284.41,49.181L285.72,49.082L287.04,48.979L288.35,49.067L289.66,48.68L290.97,48.652L292.28,48.764L293.6,48.755L294.91,48.566L296.22,48.491L297.53,48.25L298.84,48.274L300.16,48.362L301.47,48.105L302.78,47.997L304.09,48.09L305.4,47.808L306.72,47.633L308.03,47.732L309.34,47.598L310.65,47.569L311.96,47.721L313.28,47.391L314.59,47.409L315.9,47.448L317.21,47.409L318.52,47.341L319.84,47.51L321.15,47.139L322.46,47.213L323.77,47.352L325.08,47.339L326.4,47.106L327.71,47.093L329.02,47.101L330.33,46.967L331.64,46.862L332.96,46.987L334.27,46.77L335.58,46.796L336.89,46.882L338.2,46.732L339.52,46.724L340.83,46.739L342.14,46.708L343.45,46.631L344.76,46.605L346.08,46.519L347.39,46.517L348.7,46.53L350.01,46.48L351.32,46.438L352.64,46.348L353.95,46.293L355.26,46.304L356.57,46.271L357.88,46.201L359.2,46.223L360.51,46.135L361.82,46.107L363.13,46.115L364.44,46.069L365.76,46.078L367.07,45.995L368.38,46.028L369.69,46.021L371,45.977L372.32,45.931L373.63,45.977L374.94,45.867L376.25,45.966L377.56,45.931L378.88,45.891L380.19,45.83L381.5,45.865L382.81,45.801L384.12,45.777L385.44,45.786L386.75,45.806L388.06,45.826L389.37,45.654L390.68,45.74L392,45.764L393.31,45.665L394.62,45.667L395.93,45.615L397.24,45.586L398.56,45.617L399.87,45.626L401.18,45.555L402.49,45.566L403.8,45.595L405.12,45.553L406.43,45.555L407.74,45.476L409.05,45.553L410.36,45.516L411.68,45.512L412.99,45.485L414.3,45.468L415.61,45.507L416.92,45.459L418.24,45.424L419.55,45.413L420.86,45.459L422.17,45.43L423.48,45.419L424.8,45.452L426.11,45.408L427.42,45.389L428.73,45.364L430.04,45.395L431.36,45.353L432.67,45.373L433.98,45.34L435.29,45.347L436.6,45.325L437.92,45.318L439.23,45.323L440.54,45.325L441.85,45.349L443.16,45.331L444.48,45.305L445.79,45.303L447.1,45.307L448.41,45.303L449.72,45.32L451.04,45.259L452.35,45.279L453.66,45.283L454.97,45.27L456.29,45.288L457.6,45.27L458.91,45.274L460.22,45.266L461.53,45.259L462.85,45.27L464.16,45.241L465.47,45.248L466.78,45.268L468.09,45.25L469.41,45.248L470.72,45.195L472.03,45.222L473.34,45.211L474.65,45.215L475.97,45.222L477.28,45.222L478.59,45.208L479.9,45.224L481.21,45.233L482.53,45.224L483.84,45.204L485.15,45.202L486.46,45.195L487.77,45.195L489.09,45.215L490.4,45.195L491.71,45.215L493.02,45.219L494.33,45.206L495.65,45.206L496.96,45.187L498.27,45.189L499.58,45.178L500.89,45.184L502.21,45.2L503.52,45.195L504.83,45.187L506.14,45.2L507.45,45.182L508.77,45.171L510.08,45.171L511.39,45.184L512.7,45.184L514.01,45.173L515.33,45.176L516.64,45.178L517.95,45.171L519.26,45.169L520.57,45.165L521.89,45.178L523.2,45.167L524.51,45.165L525.82,45.162L527.13,45.162L528.45,45.162L529.76,45.173L531.07,45.171L532.38,45.18L533.69,45.176L535.01,45.169L536.32,45.162L537.63,45.158L538.94,45.167L540.25,45.173L541.57,45.162L542.88,45.167L544.19,45.156L545.5,45.158L546.81,45.16L548.13,45.162L549.44,45.158L550.75,45.169L552.06,45.162L553.37,45.162L554.69,45.156L556,45.16L557.31,45.158L558.62,45.151L559.93,45.156L561.25,45.16L562.56,45.158L563.87,45.162L565.18,45.16L566.49,45.16L567.81,45.156L569.12,45.154L570.43,45.154L571.74,45.156L573.05,45.151L574.37,45.154L575.68,45.156L576.99,45.151L579.61,45.154L580.93,45.151L584.86,45.154L586.17,45.158L587.49,45.151L591.42,45.151L595.36,45.156L596.67,45.151L597.98,45.151L599.29,45.151L600.61,45.156L601.92,45.156L603.23,45.151L604.54,45.154L605.85,45.154L608.48,45.156L611.1,45.154L618.97,45.151L621.6,45.151L624.22,45.151L626.85,45.151L629.47,45.154L639.97,45.151L642.59,45.151L645.22,45.151L647.84,45.151L649.15,45.151L708.19,45.151L720,45.151" style="fill:none;stroke:#0000FF" />
</g>
</svg>
