<?xml version="1.0"?>
<!-- Generated by SVGo and Plotinum VG -->
<svg width="720pt" height="432pt" viewBox="0 0 720 432"
	xmlns="http://www.w3.org/2000/svg"
	xmlns:xlink="http://www.w3.org/1999/xlink">
<g transform="scale(1, -1) translate(0, -432)">
<path d="M0,0L720,0L720,432L0,432Z" style="fill:#FFFFFF" />
<text x="358.5" y="-420.45" transform="scale(1, -1)"
	style="font-family:Times;font-weight:normal;font-style:normal;font-size:12px"> </text>
<text x="376.81" y="-3.8613" transform="scale(1, -1)"
	style="font-family:Times;font-weight:normal;font-style:normal;font-size:12px">Costs</text>
<text x="57.805" y="-18.634" transform="scale(1, -1)"
	style="font-family:Times;font-weight:normal;font-style:normal;font-size:10px">0</text>
<text x="360.12" y="-18.634" transform="scale(1, -1)"
	style="font-family:Times;font-weight:normal;font-style:normal;font-size:10px">300</text>
<text x="667.43" y="-18.634" transform="scale(1, -1)"
	style="font-family:Times;font-weight:normal;font-style:normal;font-size:10px">600</text>
<path d="M60.305,28.263L60.305,36.263" style="fill:none;stroke:#000000;stroke-width:0.5" />
<path d="M367.62,28.263L367.62,36.263" style="fill:none;stroke:#000000;stroke-width:0.5" />
<path d="M674.93,28.263L674.93,36.263" style="fill:none;stroke:#000000;stroke-width:0.5" />
<path d="M162.74,32.263L162.74,36.263" style="fill:none;stroke:#000000;stroke-width:0.5" />
<path d="M265.18,32.263L265.18,36.263" style="fill:none;stroke:#000000;stroke-width:0.5" />
<path d="M470.05,32.263L470.05,36.263" style="fill:none;stroke:#000000;stroke-width:0.5" />
<path d="M572.49,32.263L572.49,36.263" style="fill:none;stroke:#000000;stroke-width:0.5" />
<path d="M60.305,36.263L720,36.263" style="fill:none;stroke:#000000;stroke-width:0.5" />
<g transform="rotate(90)">
<text x="152.55" y="11.555" transform="scale(1, -1)"
	style="font-family:Times;font-weight:normal;font-style:normal;font-size:12px">Number of trials (1000000 total)</text>
</g>
<text x="24.055" y="-90.751" transform="scale(1, -1)"
	style="font-family:Times;font-weight:normal;font-style:normal;font-size:10px">5000</text>
<text x="19.055" y="-237.2" transform="scale(1, -1)"
	style="font-family:Times;font-weight:normal;font-style:normal;font-size:10px">20000</text>
<text x="19.055" y="-383.64" transform="scale(1, -1)"
	style="font-family:Times;font-weight:normal;font-style:normal;font-size:10px">35000</text>
<path d="M46.555,93.957L54.555,93.957" style="fill:none;stroke:#000000;stroke-width:0.5" />
<path d="M46.555,240.4L54.555,240.4" style="fill:none;stroke:#000000;stroke-width:0.5" />
<path d="M46.555,386.85L54.555,386.85" style="fill:none;stroke:#000000;stroke-width:0.5" />
<path d="M50.555,167.18L54.555,167.18" style="fill:none;stroke:#000000;stroke-width:0.5" />
<path d="M50.555,313.62L54.555,313.62" style="fill:none;stroke:#000000;stroke-width:0.5" />
<path d="M54.555,45.151L54.555,416.58" style="fill:none;stroke:#000000;stroke-width:0.5" />
<path d="M60.305,416.58L82.841,52.513L84.89,56.906L86.938,86.956L87.963,62.51L88.987,55.285L90.011,48.842L92.06,101.43L93.085,108.02L94.109,59.552L95.133,106.68L96.158,94.376L97.182,80.357L99.231,73.435L100.26,97.315L101.28,85.15L102.3,126.67L103.33,103.53L104.35,93.615L105.38,109.41L106.4,74.792L107.43,67.225L109.47,49.506L110.5,73.347L111.52,80.718L112.55,80.191L113.57,46.606L114.6,119.3L115.62,89.846L116.65,58.751L117.67,58.702L118.69,65.839L119.72,57.101L120.74,89.895L121.77,60.186L122.79,62.744L123.82,88.079L124.84,77.428L125.86,57.297L126.89,67.782L127.91,73.142L128.94,82.221L129.96,69.285L130.99,71.668L132.01,77.604L133.04,83.608L134.06,76.207L135.08,138.71L136.11,90.334L137.13,92.609L138.16,91.984L139.18,98.33L140.21,81.323L141.23,85.97L142.25,95.88L143.28,140.1L144.3,86.937L145.33,88.85L146.35,95.118L147.38,109.41L148.4,89.095L149.43,90.266L150.45,89.436L151.47,86.224L152.5,82.036L153.52,84.047L154.55,86.048L155.57,91.691L156.6,98.984L157.62,95.089L158.64,84.818L159.67,90.92L160.69,84.936L161.72,85.307L162.74,82.026L163.77,82.631L164.79,82.212L165.81,89.69L166.84,93.507L167.86,91.897L168.89,86.703L169.91,100.09L170.94,91.906L171.96,87.005L172.99,81.772L174.01,86.488L175.03,103.91L176.06,98.194L177.08,95.577L178.11,104.79L179.13,104.91L180.16,97.266L181.18,89.3L182.2,92.541L183.23,94.454L184.25,94.659L185.28,99.814L186.3,98.701L187.33,97.637L188.35,95.499L189.38,100.49L190.4,95.685L191.42,89.417L192.45,89.592L193.47,94.171L194.5,90.334L195.52,94.181L196.55,87.113L197.57,98.34L198.59,95.245L199.62,92.463L200.64,87.982L201.67,90.198L202.69,90.178L203.72,92.268L204.74,86.156L205.77,87.503L206.79,90.442L207.81,90.93L208.84,85.463L209.86,89.036L210.89,92.59L211.91,92.238L212.94,89.27L213.96,88.977L214.98,88.499L216.01,88.03L217.03,90.735L218.06,96.827L219.08,89.475L220.11,92.023L221.13,91.223L222.16,92.473L223.18,87.093L224.2,87.562L225.23,90.1L226.25,88.235L227.28,85.892L228.3,86.927L229.33,89.055L230.35,90.256L231.37,86.625L232.4,89.075L233.42,86.83L234.45,86.703L235.47,85.375L236.5,83.383L237.52,83.783L238.55,85.824L239.57,87.269L240.59,85.199L241.62,83.227L242.64,84.125L243.67,83.783L244.69,82.563L245.72,80.64L246.74,80.972L247.76,80.503L248.79,81.196L249.81,82.104L250.84,82.876L251.86,79.556L252.89,82.007L253.91,81.636L254.94,79.693L255.96,79.127L256.98,79.79L258.01,80.611L259.03,79.195L260.06,77.857L261.08,78.15L262.11,79.214L263.13,77.477L264.15,77.74L265.18,77.272L266.2,76.891L267.23,77.32L268.25,76.334L269.28,75.29L270.3,75.827L271.33,75.202L272.35,76.783L273.37,75.319L274.4,75.387L275.42,73.308L276.45,74.03L277.47,72.449L278.5,73.65L279.52,73.034L280.54,72.156L281.57,72.312L282.59,71.814L283.62,71.384L284.64,71.511L285.67,71.824L286.69,71.16L287.72,70.018L288.74,69.988L289.76,70.769L290.79,69.461L291.81,69.393L292.84,68.739L293.86,68.739L294.89,68.534L295.91,68.026L296.93,67.899L297.96,68.7L298.98,67.684L300.01,67.538L301.03,66.61L302.06,66.337L303.08,65.888L304.11,66.21L305.13,64.736L306.15,65.868L307.18,65.351L308.2,64.648L309.23,65.478L310.25,64.111L311.28,64.677L312.3,64.267L313.32,63.467L314.35,63.877L315.37,63.662L316.4,63.476L317.42,62.998L318.45,62.686L319.47,62.051L320.5,61.67L321.52,61.622L322.54,62.071L323.57,61.543L324.59,61.495L325.62,61.094L326.64,59.893L327.67,60.44L328.69,60.274L329.71,59.737L330.74,59.591L331.76,59.288L332.79,59.347L333.81,58.995L334.84,58.244L335.86,59.044L336.89,58.683L337.91,57.97L338.93,57.423L339.96,58.097L340.98,57.033L342.01,56.984L343.03,56.896L344.06,57.16L345.08,56.193L346.1,56.144L347.13,56.652L348.15,56.047L349.18,55.686L350.2,55.705L351.23,55.539L352.25,55.422L353.27,55.588L354.3,55.032L355.32,55.598L356.35,55.217L357.37,54.69L358.4,54.27L359.42,54.094L360.45,54.026L361.47,54.514L362.49,53.567L363.52,53.469L364.54,53.723L365.57,53.528L366.59,53.03L367.62,52.854L368.64,52.962L369.66,52.679L370.69,52.298L371.71,52.259L372.74,52.386L373.76,52.259L374.79,52.112L375.81,52.181L376.84,51.751L377.86,51.468L378.88,51.907L379.91,51.283L380.93,51.868L381.96,51.468L382.98,50.658L384.01,51.009L385.03,51.234L386.05,50.794L387.08,50.648L388.1,50.736L389.13,50.541L390.15,50.58L391.18,50.277L392.2,50.482L393.23,50.043L394.25,49.72L395.27,50.209L396.3,49.857L397.32,49.965L398.35,49.857L399.37,49.759L400.4,49.252L401.42,49.174L402.44,49.389L403.47,49.057L404.49,48.842L405.52,48.881L406.54,48.949L407.57,48.842L408.59,48.686L409.62,48.822L410.64,48.647L411.66,48.481L412.69,48.451L413.71,48.451L414.74,48.197L415.76,48.197L416.79,48.236L417.81,47.944L418.83,48.031L419.86,47.826L420.88,47.807L421.91,47.768L422.93,47.934L423.96,47.914L424.98,47.582L426.01,47.543L427.03,47.563L428.05,47.719L429.08,47.436L430.1,47.397L431.13,47.485L432.15,47.436L433.18,47.202L434.2,47.153L435.22,47.182L436.25,47.221L437.27,47.153L438.3,47.045L439.32,47.377L440.35,46.85L441.37,47.036L442.4,46.909L443.42,46.665L444.44,46.889L445.47,46.918L446.49,46.958L447.52,46.86L448.54,46.684L449.57,46.577L450.59,46.43L451.61,46.752L452.64,46.684L453.66,46.626L454.69,46.469L455.71,46.372L456.74,46.372L457.76,46.694L458.79,46.352L459.81,46.225L460.83,46.391L461.86,46.255L462.88,46.245L463.91,46.147L464.93,46.079L465.96,46.245L466.98,46.04L468,46.274L469.03,45.971L470.05,46.059L471.08,46.089L472.1,46.03L473.13,45.932L474.15,46.001L475.18,45.893L476.2,45.884L477.22,45.913L478.25,45.913L479.27,45.884L480.3,45.796L481.32,45.825L482.35,45.708L483.37,45.845L484.39,45.718L485.42,45.757L486.44,45.815L487.47,45.786L488.49,45.747L489.52,45.718L490.54,45.698L491.57,45.718L492.59,45.698L493.61,45.62L494.64,45.61L495.66,45.532L496.69,45.659L497.71,45.571L498.74,45.61L499.76,45.6L500.78,45.561L501.81,45.669L502.83,45.464L503.86,45.542L504.88,45.493L505.91,45.64L506.93,45.532L507.96,45.513L508.98,45.503L510,45.464L511.03,45.581L512.05,45.366L513.08,45.464L514.1,45.522L515.13,45.454L516.15,45.493L517.17,45.356L518.2,45.405L519.22,45.444L520.25,45.483L521.27,45.405L522.3,45.444L523.32,45.405L524.35,45.317L525.37,45.376L526.39,45.298L527.42,45.376L528.44,45.386L529.47,45.298L530.49,45.376L531.52,45.376L532.54,45.288L533.56,45.278L534.59,45.269L535.61,45.249L536.64,45.395L537.66,45.278L538.69,45.337L539.71,45.269L540.73,45.278L541.76,45.337L542.78,45.376L543.81,45.298L544.83,45.278L545.86,45.298L546.88,45.22L547.91,45.181L548.93,45.249L549.95,45.239L550.98,45.239L552,45.22L553.03,45.239L554.05,45.308L555.08,45.288L556.1,45.229L557.12,45.288L558.15,45.19L559.17,45.239L560.2,45.21L561.22,45.181L562.25,45.269L563.27,45.2L564.3,45.21L565.32,45.19L566.34,45.181L567.37,45.249L568.39,45.229L569.42,45.249L570.44,45.19L571.47,45.21L572.49,45.2L573.51,45.19L574.54,45.229L575.56,45.181L576.59,45.181L577.61,45.21L578.64,45.19L579.66,45.19L580.69,45.161L581.71,45.19L582.73,45.2L583.76,45.19L584.78,45.181L585.81,45.19L586.83,45.181L587.86,45.181L588.88,45.229L589.9,45.151L590.93,45.2L591.95,45.171L592.98,45.181L594,45.161L595.03,45.21L596.05,45.19L597.08,45.161L598.1,45.161L599.12,45.161L600.15,45.171L601.17,45.171L602.2,45.181L603.22,45.151L604.25,45.171L605.27,45.151L606.29,45.161L607.32,45.151L608.34,45.19L609.37,45.171L610.39,45.181L611.42,45.151L612.44,45.19L613.47,45.171L614.49,45.151L615.51,45.171L616.54,45.161L617.56,45.151L618.59,45.151L619.61,45.161L620.64,45.181L621.66,45.19L622.68,45.171L623.71,45.151L624.73,45.151L625.76,45.151L627.81,45.151L628.83,45.151L630.88,45.151L636,45.161L637.03,45.151L640.1,45.151L644.2,45.151L647.27,45.151L649.32,45.151L654.44,45.151L656.49,45.151L658.54,45.161L659.56,45.151L660.59,45.151L663.66,45.151L666.73,45.151L671.85,45.151L672.88,45.151L673.9,45.151L675.95,45.151L689.27,45.151L692.34,45.151L693.37,45.151L718.98,45.151L720,45.151" style="fill:none;stroke:#0000FF" />
</g>
</svg>
