<?xml version="1.0"?>
<!-- Generated by SVGo and Plotinum VG -->
<svg width="720pt" height="432pt" viewBox="0 0 720 432"
	xmlns="http://www.w3.org/2000/svg"
	xmlns:xlink="http://www.w3.org/1999/xlink">
<g transform="scale(1, -1) translate(0, -432)">
<path d="M0,0L720,0L720,432L0,432Z" style="fill:#FFFFFF" />
<text x="358.5" y="-420.45" transform="scale(1, -1)"
	style="font-family:Times;font-weight:normal;font-style:normal;font-size:12px"> </text>
<text x="383.09" y="-3.8613" transform="scale(1, -1)"
	style="font-family:Times;font-weight:normal;font-style:normal;font-size:12px">Costs</text>
<text x="69.055" y="-18.634" transform="scale(1, -1)"
	style="font-family:Times;font-weight:normal;font-style:normal;font-size:10px">0.00</text>
<text x="378.28" y="-18.634" transform="scale(1, -1)"
	style="font-family:Times;font-weight:normal;font-style:normal;font-size:10px">250.00</text>
<text x="692.5" y="-18.634" transform="scale(1, -1)"
	style="font-family:Times;font-weight:normal;font-style:normal;font-size:10px">500.00</text>
<path d="M77.805,28.263L77.805,36.263" style="fill:none;stroke:#000000;stroke-width:0.5" />
<path d="M392.03,28.263L392.03,36.263" style="fill:none;stroke:#000000;stroke-width:0.5" />
<path d="M706.25,28.263L706.25,36.263" style="fill:none;stroke:#000000;stroke-width:0.5" />
<path d="M140.65,32.263L140.65,36.263" style="fill:none;stroke:#000000;stroke-width:0.5" />
<path d="M203.49,32.263L203.49,36.263" style="fill:none;stroke:#000000;stroke-width:0.5" />
<path d="M266.34,32.263L266.34,36.263" style="fill:none;stroke:#000000;stroke-width:0.5" />
<path d="M329.18,32.263L329.18,36.263" style="fill:none;stroke:#000000;stroke-width:0.5" />
<path d="M454.87,32.263L454.87,36.263" style="fill:none;stroke:#000000;stroke-width:0.5" />
<path d="M517.72,32.263L517.72,36.263" style="fill:none;stroke:#000000;stroke-width:0.5" />
<path d="M580.56,32.263L580.56,36.263" style="fill:none;stroke:#000000;stroke-width:0.5" />
<path d="M643.41,32.263L643.41,36.263" style="fill:none;stroke:#000000;stroke-width:0.5" />
<path d="M77.805,36.263L715.05,36.263" style="fill:none;stroke:#000000;stroke-width:0.5" />
<g transform="rotate(90)">
<text x="152.55" y="11.555" transform="scale(1, -1)"
	style="font-family:Times;font-weight:normal;font-style:normal;font-size:12px">Number of trials (1000000 total)</text>
</g>
<text x="24.055" y="-112.96" transform="scale(1, -1)"
	style="font-family:Times;font-weight:normal;font-style:normal;font-size:10px">25000.00</text>
<text x="24.055" y="-254.98" transform="scale(1, -1)"
	style="font-family:Times;font-weight:normal;font-style:normal;font-size:10px">75000.00</text>
<text x="19.055" y="-397.01" transform="scale(1, -1)"
	style="font-family:Times;font-weight:normal;font-style:normal;font-size:10px">125000.00</text>
<path d="M64.055,116.16L72.055,116.16" style="fill:none;stroke:#000000;stroke-width:0.5" />
<path d="M64.055,258.19L72.055,258.19" style="fill:none;stroke:#000000;stroke-width:0.5" />
<path d="M64.055,400.21L72.055,400.21" style="fill:none;stroke:#000000;stroke-width:0.5" />
<path d="M68.055,59.351L72.055,59.351" style="fill:none;stroke:#000000;stroke-width:0.5" />
<path d="M68.055,87.756L72.055,87.756" style="fill:none;stroke:#000000;stroke-width:0.5" />
<path d="M68.055,144.57L72.055,144.57" style="fill:none;stroke:#000000;stroke-width:0.5" />
<path d="M68.055,172.97L72.055,172.97" style="fill:none;stroke:#000000;stroke-width:0.5" />
<path d="M68.055,201.38L72.055,201.38" style="fill:none;stroke:#000000;stroke-width:0.5" />
<path d="M68.055,229.78L72.055,229.78" style="fill:none;stroke:#000000;stroke-width:0.5" />
<path d="M68.055,286.59L72.055,286.59" style="fill:none;stroke:#000000;stroke-width:0.5" />
<path d="M68.055,315L72.055,315" style="fill:none;stroke:#000000;stroke-width:0.5" />
<path d="M68.055,343.4L72.055,343.4" style="fill:none;stroke:#000000;stroke-width:0.5" />
<path d="M68.055,371.81L72.055,371.81" style="fill:none;stroke:#000000;stroke-width:0.5" />
<path d="M72.055,45.151L72.055,416.58" style="fill:none;stroke:#000000;stroke-width:0.5" />
<path d="M77.805,416.58L105.46,48.56L106.71,55.326L107.97,52.346L110.48,55.448L111.74,63.646L113,48.611L114.25,56.511L115.51,51.693L116.77,70.299L118.03,77.198L119.28,104.42L120.54,73.878L123.05,70.159L124.31,66.364L125.57,55.653L126.82,52.625L128.08,51.935L129.34,112.88L130.59,82.521L131.85,66.381L133.11,59.382L134.36,55.522L135.62,55.497L136.88,45.39L138.14,45.256L139.39,70.435L140.65,71.438L141.91,68.032L143.16,45.654L144.42,93.003L145.68,77.448L146.93,47.512L148.19,59.664L149.45,55.394L150.7,55.289L151.96,63.379L153.22,68.87L154.48,85.257L155.73,52.676L156.99,55.426L158.25,53.812L159.5,56.593L160.76,53.244L162.02,77.766L163.27,54.815L164.53,55.377L165.79,56.042L167.04,53.298L168.3,55.84L169.56,62.629L170.81,67.526L172.07,61.575L173.33,58.116L174.59,59.411L175.84,57.999L177.1,56.425L178.36,90.699L179.61,73.94L180.87,62.873L182.13,64.956L183.38,62.087L184.64,62.121L185.9,63.916L187.15,64.436L188.41,56.281L189.67,55.712L190.92,62.013L192.18,62.393L193.44,63.015L194.7,61.382L195.95,68.341L197.21,64.299L198.47,58.556L199.72,58.368L200.98,57.735L202.24,58.11L203.49,59.8L204.75,57.709L206.01,62.033L207.26,62.533L208.52,60.692L209.78,55.863L211.04,57.09L212.29,60.056L213.55,57.973L214.81,57.573L216.06,59.473L217.32,59.635L218.58,60.666L219.83,62.408L221.09,64.012L222.35,58.215L223.6,57.695L224.86,59.07L226.12,57.246L227.37,55.65L228.63,57.542L229.89,62.399L231.15,60.692L232.4,58.783L233.66,57.082L234.92,55.925L236.17,57.167L237.43,56.721L238.69,56.837L239.94,56.144L241.2,57.229L242.46,56.746L243.71,55.224L244.97,58.442L246.23,59.703L247.48,56.727L248.74,56.147L250,55.695L251.26,54.176L252.51,55.119L253.77,56.366L255.03,58.314L256.28,55.195L257.54,54.69L258.8,54.88L260.05,54.923L261.31,54.184L262.57,56.434L263.82,55.417L265.08,53.525L266.34,53.704L267.6,53.031L268.85,53.372L270.11,54.468L271.37,54.832L272.62,54.375L273.88,53.48L275.14,53.031L276.39,53.139L277.65,52.443L278.91,52.304L280.16,53.86L281.42,53.031L282.68,53.145L283.93,53.173L285.19,52.483L286.45,52.329L287.71,52.852L288.96,51.974L290.22,51.71L291.48,51.903L292.73,52.165L293.99,51.957L295.25,51.736L296.5,52.508L297.76,52.221L299.02,51.642L300.27,51.412L301.53,51.04L302.79,50.747L304.04,50.901L305.3,51.031L306.56,50.997L307.82,50.855L309.07,50.867L310.33,50.242L311.59,50.088L312.84,50.296L314.1,50.296L315.36,50.02L316.61,50.094L317.87,49.884L319.13,49.779L320.38,49.665L321.64,50.176L322.9,49.929L324.16,49.591L325.41,49.546L326.67,49.463L327.93,49.117L329.18,49.338L330.44,49.225L331.7,49.193L332.95,49.046L334.21,48.858L335.47,48.782L336.72,48.617L337.98,48.958L339.24,48.637L340.49,48.676L341.75,48.549L343.01,48.355L344.27,48.31L345.52,48.199L346.78,48.37L348.04,48.444L349.29,48.262L350.55,48.171L351.81,47.944L353.06,47.66L354.32,47.87L355.58,47.992L356.83,47.836L358.09,47.679L359.35,47.722L360.61,47.77L361.86,47.594L363.12,47.589L364.38,47.674L365.63,47.512L366.89,47.239L368.15,47.339L369.4,47.447L370.66,47.37L371.92,47.236L373.17,47.339L374.43,47.18L375.69,47.091L376.94,47.091L378.2,46.853L379.46,47.091L380.72,46.961L381.97,46.981L383.23,46.759L384.49,46.887L385.74,46.93L387,46.688L388.26,46.691L389.51,46.762L390.77,46.603L392.03,46.697L393.28,46.566L394.54,46.611L395.8,46.555L397.05,46.538L398.31,46.495L399.57,46.509L400.83,46.344L402.08,46.396L403.34,46.319L404.6,46.313L405.85,46.393L407.11,46.248L408.37,46.268L409.62,46.245L410.88,46.188L412.14,46.129L413.39,46.151L414.65,46.055L415.91,46.066L417.17,46.089L418.42,46.075L419.68,45.933L420.94,45.969L422.19,45.955L423.45,45.981L424.71,45.904L425.96,45.873L427.22,45.833L428.48,45.853L429.73,45.822L430.99,45.87L432.25,45.864L433.5,45.745L434.76,45.773L436.02,45.762L437.28,45.768L438.53,45.734L439.79,45.728L441.05,45.711L442.3,45.614L443.56,45.64L444.82,45.702L446.07,45.637L447.33,45.648L448.59,45.688L449.84,45.671L451.1,45.64L452.36,45.558L453.61,45.646L454.87,45.563L456.13,45.543L457.39,45.555L458.64,45.504L459.9,45.538L461.16,45.518L462.41,45.523L463.67,45.478L464.93,45.416L466.18,45.433L467.44,45.396L468.7,45.518L469.95,45.478L471.21,45.435L472.47,45.504L473.73,45.444L474.98,45.364L476.24,45.438L477.5,45.438L478.75,45.37L480.01,45.396L481.27,45.413L482.52,45.393L483.78,45.393L485.04,45.302L486.29,45.376L487.55,45.336L488.81,45.333L490.06,45.342L491.32,45.359L492.58,45.271L493.84,45.293L495.09,45.299L496.35,45.296L497.61,45.291L498.86,45.313L500.12,45.291L501.38,45.325L502.63,45.313L503.89,45.31L505.15,45.282L506.4,45.296L507.66,45.325L508.92,45.254L510.18,45.299L511.43,45.231L512.69,45.285L513.95,45.245L515.2,45.288L516.46,45.242L517.72,45.245L518.97,45.248L520.23,45.248L521.49,45.234L522.74,45.245L524,45.242L525.26,45.225L526.51,45.234L527.77,45.237L529.03,45.214L530.29,45.202L531.54,45.225L532.8,45.194L534.06,45.214L535.31,45.202L536.57,45.202L537.83,45.194L539.08,45.2L540.34,45.22L541.6,45.194L542.85,45.222L544.11,45.214L545.37,45.202L546.62,45.191L547.88,45.191L549.14,45.202L550.4,45.191L551.65,45.194L552.91,45.183L554.17,45.2L555.42,45.174L556.68,45.171L557.94,45.194L559.19,45.185L560.45,45.185L561.71,45.197L562.96,45.171L564.22,45.168L565.48,45.191L566.74,45.16L567.99,45.174L569.25,45.177L570.51,45.177L571.76,45.177L573.02,45.183L574.28,45.16L575.53,45.177L576.79,45.166L578.05,45.163L579.3,45.18L580.56,45.18L581.82,45.163L583.07,45.16L584.33,45.18L585.59,45.154L586.85,45.163L588.1,45.157L589.36,45.166L590.62,45.163L591.87,45.16L593.13,45.168L594.39,45.16L595.64,45.157L596.9,45.163L598.16,45.177L599.41,45.166L600.67,45.163L601.93,45.163L603.18,45.154L604.44,45.157L605.7,45.163L606.96,45.166L608.21,45.16L609.47,45.168L610.73,45.157L611.98,45.151L614.5,45.163L615.75,45.154L617.01,45.151L618.27,45.154L619.52,45.154L620.78,45.163L622.04,45.154L623.3,45.151L624.55,45.163L625.81,45.154L627.07,45.157L628.32,45.16L629.58,45.151L630.84,45.151L633.35,45.154L634.61,45.154L635.86,45.157L637.12,45.151L639.63,45.151L642.15,45.151L643.41,45.151L645.92,45.154L652.2,45.154L653.46,45.16L654.72,45.157L655.97,45.151L657.23,45.151L658.49,45.151L661,45.151L664.77,45.157L669.8,45.154L672.31,45.151L676.08,45.154L677.34,45.151L678.6,45.151L679.86,45.151L681.11,45.151L684.88,45.154L687.4,45.151L691.17,45.151L699.97,45.151L702.48,45.151L703.74,45.151L706.25,45.151L708.76,45.151L712.53,45.151L715.05,45.151" style="fill:none;stroke:#0000FF" />
</g>
</svg>
