<?xml version="1.0"?>
<!-- Generated by SVGo and Plotinum VG -->
<svg width="720pt" height="432pt" viewBox="0 0 720 432"
	xmlns="http://www.w3.org/2000/svg"
	xmlns:xlink="http://www.w3.org/1999/xlink">
<g transform="scale(1, -1) translate(0, -432)">
<path d="M0,0L720,0L720,432L0,432Z" style="fill:#FFFFFF" />
<text x="358.5" y="-420.45" transform="scale(1, -1)"
	style="font-family:Times;font-weight:normal;font-style:normal;font-size:12px"> </text>
<text x="376.81" y="-3.8613" transform="scale(1, -1)"
	style="font-family:Times;font-weight:normal;font-style:normal;font-size:12px">Costs</text>
<text x="57.805" y="-18.634" transform="scale(1, -1)"
	style="font-family:Times;font-weight:normal;font-style:normal;font-size:10px">0</text>
<text x="374.61" y="-18.634" transform="scale(1, -1)"
	style="font-family:Times;font-weight:normal;font-style:normal;font-size:10px">300</text>
<text x="696.41" y="-18.634" transform="scale(1, -1)"
	style="font-family:Times;font-weight:normal;font-style:normal;font-size:10px">600</text>
<path d="M60.305,28.263L60.305,36.263" style="fill:none;stroke:#000000;stroke-width:0.5" />
<path d="M382.11,28.263L382.11,36.263" style="fill:none;stroke:#000000;stroke-width:0.5" />
<path d="M703.91,28.263L703.91,36.263" style="fill:none;stroke:#000000;stroke-width:0.5" />
<path d="M167.57,32.263L167.57,36.263" style="fill:none;stroke:#000000;stroke-width:0.5" />
<path d="M274.84,32.263L274.84,36.263" style="fill:none;stroke:#000000;stroke-width:0.5" />
<path d="M489.37,32.263L489.37,36.263" style="fill:none;stroke:#000000;stroke-width:0.5" />
<path d="M596.64,32.263L596.64,36.263" style="fill:none;stroke:#000000;stroke-width:0.5" />
<path d="M60.305,36.263L720,36.263" style="fill:none;stroke:#000000;stroke-width:0.5" />
<g transform="rotate(90)">
<text x="152.55" y="11.555" transform="scale(1, -1)"
	style="font-family:Times;font-weight:normal;font-style:normal;font-size:12px">Number of trials (1000000 total)</text>
</g>
<text x="24.055" y="-90.095" transform="scale(1, -1)"
	style="font-family:Times;font-weight:normal;font-style:normal;font-size:10px">4000</text>
<text x="19.055" y="-234.58" transform="scale(1, -1)"
	style="font-family:Times;font-weight:normal;font-style:normal;font-size:10px">16000</text>
<text x="19.055" y="-379.06" transform="scale(1, -1)"
	style="font-family:Times;font-weight:normal;font-style:normal;font-size:10px">28000</text>
<path d="M46.555,93.301L54.555,93.301" style="fill:none;stroke:#000000;stroke-width:0.5" />
<path d="M46.555,237.78L54.555,237.78" style="fill:none;stroke:#000000;stroke-width:0.5" />
<path d="M46.555,382.27L54.555,382.27" style="fill:none;stroke:#000000;stroke-width:0.5" />
<path d="M50.555,165.54L54.555,165.54" style="fill:none;stroke:#000000;stroke-width:0.5" />
<path d="M50.555,310.03L54.555,310.03" style="fill:none;stroke:#000000;stroke-width:0.5" />
<path d="M54.555,45.151L54.555,416.58" style="fill:none;stroke:#000000;stroke-width:0.5" />
<path d="M60.305,416.58L83.904,70.219L84.976,52.123L88.194,58.263L89.267,59.371L90.34,70.28L91.412,64.356L93.558,173.3L94.63,74.169L95.703,76.661L96.776,124.99L97.848,89.484L98.921,70.328L99.994,74.157L102.14,58.853L103.21,78.286L104.28,118.39L105.36,99.646L106.43,83.897L107.5,102.38L108.58,77.901L109.65,101.19L111.79,45.97L112.87,124.4L113.94,89.773L115.01,47.138L116.08,45.597L117.16,124.75L118.23,104.76L119.3,49.269L120.37,80.405L121.45,105.26L122.52,52.978L123.59,82.681L124.67,77.046L125.74,117.15L126.81,90.291L127.88,124.09L128.96,65.475L130.03,80.622L131.1,73.35L132.17,72.17L133.25,75.553L134.32,69.292L135.39,68.642L136.46,105.75L137.54,89.941L138.61,83.705L139.68,82.597L140.76,103.37L141.83,95.083L142.9,154.2L143.97,87.341L145.05,78.804L146.12,102.56L147.19,96.347L148.26,84.198L149.34,97.611L150.41,107.23L151.48,110.51L152.55,91.326L153.63,105.99L154.7,109.76L155.77,94.083L156.85,111.04L157.92,104.65L158.99,101.01L160.06,101.15L161.14,120.2L162.21,109.18L163.28,98.442L164.35,101.79L165.43,102.02L166.5,105.57L167.57,95.299L168.64,81.417L169.72,114.93L170.79,116.15L171.86,99.718L172.94,105.71L174.01,109.39L175.08,106.85L176.15,106.34L177.23,98.117L178.3,106.53L179.37,105.89L180.44,106.51L181.52,99.61L182.59,101.62L183.66,99.622L184.74,107.8L185.81,108.58L186.88,107L187.95,105.09L189.03,111.93L190.1,107.68L191.17,101.98L192.24,103.05L193.32,106.47L194.39,103.16L195.46,108.95L196.53,103.47L197.61,102.96L198.68,100.95L199.75,111.47L200.83,108.58L201.9,101.56L202.97,108.05L204.04,116.7L205.12,99.887L206.19,109.12L207.26,108.34L208.33,113.49L209.41,108.03L210.48,110.87L211.55,103.74L212.62,101.3L213.7,103.9L214.77,107.15L215.84,102.85L216.92,104.4L217.99,105.94L219.06,111.02L220.13,105.03L221.21,101.21L222.28,106.03L223.35,107.45L224.42,102.76L225.5,100.99L226.57,102.37L227.64,103.2L228.71,101.39L229.79,99.682L230.86,98.887L231.93,101.43L233.01,103.72L234.08,100.52L235.15,99.562L236.22,98.984L237.3,102.45L238.37,100.5L239.44,100.22L240.51,98.839L241.59,98.984L242.66,97.912L243.73,99.345L244.8,96.443L245.88,98.322L246.95,97.9L248.02,95.504L249.1,95.071L250.17,95.661L251.24,94.782L252.31,96.804L253.39,95.853L254.46,94.77L255.53,94.481L256.6,95.035L257.68,94.625L258.75,91.242L259.82,91.35L260.89,92.831L261.97,91.555L263.04,91.362L264.11,90.399L265.19,90.917L266.26,91.567L267.33,91.398L268.4,90.471L269.48,88.966L270.55,87.883L271.62,88.208L272.69,87.895L273.77,86.498L274.84,87.533L275.91,87.497L276.99,86.859L278.06,84.945L279.13,85.366L280.2,84.885L281.28,85.294L282.35,83.693L283.42,83.211L284.49,84.836L285.57,83.668L286.64,82.669L287.71,81.056L288.78,79.791L289.86,80.779L290.93,80.959L292,80.261L293.08,80.418L294.15,80.514L295.22,78.816L296.29,79.069L297.37,77.588L298.44,77.492L299.51,77.805L300.58,77.853L301.66,76.661L302.73,77.504L303.8,76.492L304.87,75.072L305.95,75.975L307.02,74.072L308.09,74.542L309.17,74.47L310.24,74.361L311.31,73.362L312.38,72.507L313.46,73.278L314.53,71.399L315.6,70.629L316.67,71.231L317.75,71.231L318.82,71.845L319.89,70.665L320.96,70.099L322.04,69.846L323.11,68.979L324.18,68.787L325.26,69.316L326.33,67.956L327.4,67.101L328.47,68.136L329.55,68.365L330.62,66.451L331.69,67.33L332.76,67.294L333.84,66.282L334.91,64.982L335.98,65.102L337.05,65.199L338.13,64.669L339.2,65.391L340.27,63.501L341.35,64.103L342.42,63.32L343.49,63.248L344.56,63.681L345.64,62.827L346.71,63.067L347.78,61.695L348.85,61.093L349.93,61.105L351,61.201L352.07,61.562L353.15,60.382L354.22,60.635L355.29,60.069L356.36,59.684L357.44,59.082L358.51,59.287L359.58,58.468L360.65,59.672L361.73,58.336L362.8,58.817L363.87,58.444L364.94,58.01L366.02,57.902L367.09,57.18L368.16,58.022L369.24,56.758L370.31,56.397L371.38,56.818L372.45,56.036L373.53,56.409L374.6,56.409L375.67,55.663L376.74,55.795L377.82,55.964L378.89,55.578L379.96,54.687L381.03,54.23L382.11,54.952L383.18,54.266L384.25,54.531L385.33,54.17L386.4,53.953L387.47,54.254L388.54,52.954L389.62,53.471L390.69,53.568L391.76,53.303L392.83,52.869L393.91,52.749L394.98,52.701L396.05,52.291L397.12,52.315L398.2,52.171L399.27,52.075L400.34,51.388L401.42,51.208L402.49,51.509L403.56,51.436L404.63,51.894L405.71,51.075L406.78,51.063L407.85,51.172L408.92,50.497L410,50.582L411.07,50.473L412.14,50.281L413.21,50.256L414.29,50.208L415.36,49.847L416.43,49.474L417.51,49.245L418.58,50.076L419.65,49.727L420.72,49.727L421.8,49.39L422.87,49.293L423.94,49.438L425.01,49.341L426.09,49.281L427.16,48.812L428.23,48.944L429.3,49.185L430.38,48.691L431.45,48.438L432.52,48.366L433.6,48.595L434.67,48.234L435.74,48.426L436.81,48.27L437.89,48.137L438.96,48.089L440.03,47.897L441.1,48.089L442.18,47.439L443.25,47.8L444.32,47.499L445.4,48.005L446.47,47.824L447.54,47.463L448.61,47.644L449.69,47.415L450.76,47.355L451.83,47.511L452.9,47.295L453.98,47.379L455.05,47.367L456.12,47.15L457.19,47.078L458.27,46.933L459.34,46.849L460.41,46.981L461.49,46.753L462.56,46.777L463.63,46.945L464.7,46.753L465.78,46.813L466.85,46.596L467.92,46.548L468.99,46.572L470.07,46.741L471.14,46.512L472.21,46.428L473.28,46.307L474.36,46.62L475.43,46.488L476.5,46.319L477.58,46.44L478.65,46.319L479.72,46.054L480.79,46.163L481.87,46.151L482.94,46.247L484.01,46.103L485.08,45.97L486.16,46.042L487.23,46.163L488.3,46.066L489.37,45.994L490.45,45.982L491.52,46.066L492.59,45.826L493.67,45.862L494.74,45.838L495.81,45.741L496.88,45.898L497.96,45.777L499.03,45.838L500.1,45.717L501.17,45.826L502.25,45.79L503.32,45.777L504.39,45.765L505.46,45.898L506.54,45.633L507.61,45.753L508.68,45.645L509.76,45.681L510.83,45.609L511.9,45.585L512.97,45.609L514.05,45.597L515.12,45.537L516.19,45.561L517.26,45.645L518.34,45.549L519.41,45.464L520.48,45.464L521.56,45.561L522.63,45.561L523.7,45.476L524.77,45.549L525.85,45.501L526.92,45.488L527.99,45.368L529.06,45.392L530.14,45.464L531.21,45.32L532.28,45.44L533.35,45.464L534.43,45.404L535.5,45.368L536.57,45.404L537.65,45.404L538.72,45.32L539.79,45.392L540.86,45.428L541.94,45.416L543.01,45.332L544.08,45.428L545.15,45.332L546.23,45.38L547.3,45.32L548.37,45.26L549.44,45.26L550.52,45.368L551.59,45.308L552.66,45.284L553.74,45.272L554.81,45.296L555.88,45.248L556.95,45.26L558.03,45.296L559.1,45.332L560.17,45.284L561.24,45.224L562.32,45.224L563.39,45.224L564.46,45.224L565.53,45.187L566.61,45.284L567.68,45.248L568.75,45.224L569.83,45.212L570.9,45.248L571.97,45.248L573.04,45.272L574.12,45.187L575.19,45.187L576.26,45.272L577.33,45.175L578.41,45.175L579.48,45.224L580.55,45.248L581.62,45.163L582.7,45.2L583.77,45.212L584.84,45.236L585.92,45.175L586.99,45.151L588.06,45.175L589.13,45.151L590.21,45.212L591.28,45.175L592.35,45.212L593.42,45.212L594.5,45.212L597.72,45.175L598.79,45.163L599.86,45.163L600.93,45.236L602.01,45.151L603.08,45.2L604.15,45.151L605.22,45.187L606.3,45.175L610.59,45.175L611.66,45.151L612.73,45.187L613.81,45.163L614.88,45.175L615.95,45.151L617.02,45.163L618.1,45.151L619.17,45.151L621.31,45.175L622.39,45.151L623.46,45.163L624.53,45.163L625.6,45.163L626.68,45.163L627.75,45.175L634.19,45.163L635.26,45.175L638.48,45.163L639.55,45.175L641.69,45.151L647.06,45.163L651.35,45.163L652.42,45.151L655.64,45.151L656.71,45.151L659.93,45.151L662.08,45.151L669.58,45.151L679.24,45.151L687.82,45.151L688.89,45.151L694.26,45.151L695.33,45.151L707.13,45.151L710.35,45.151L715.71,45.151L720,45.151" style="fill:none;stroke:#0000FF" />
</g>
</svg>
