<?xml version="1.0"?>
<!-- Generated by SVGo and Plotinum VG -->
<svg width="720pt" height="432pt" viewBox="0 0 720 432"
	xmlns="http://www.w3.org/2000/svg"
	xmlns:xlink="http://www.w3.org/1999/xlink">
<g transform="scale(1, -1) translate(0, -432)">
<path d="M0,0L720,0L720,432L0,432Z" style="fill:#FFFFFF" />
<text x="358.5" y="-420.45" transform="scale(1, -1)"
	style="font-family:Times;font-weight:normal;font-style:normal;font-size:12px"> </text>
<text x="379.31" y="-3.8613" transform="scale(1, -1)"
	style="font-family:Times;font-weight:normal;font-style:normal;font-size:12px">Costs</text>
<text x="56.555" y="-18.634" transform="scale(1, -1)"
	style="font-family:Times;font-weight:normal;font-style:normal;font-size:10px">0.00</text>
<text x="642.43" y="-18.634" transform="scale(1, -1)"
	style="font-family:Times;font-weight:normal;font-style:normal;font-size:10px">250.00</text>
<path d="M65.305,28.263L65.305,36.263" style="fill:none;stroke:#000000;stroke-width:0.5" />
<path d="M656.18,28.263L656.18,36.263" style="fill:none;stroke:#000000;stroke-width:0.5" />
<path d="M183.48,32.263L183.48,36.263" style="fill:none;stroke:#000000;stroke-width:0.5" />
<path d="M301.66,32.263L301.66,36.263" style="fill:none;stroke:#000000;stroke-width:0.5" />
<path d="M419.83,32.263L419.83,36.263" style="fill:none;stroke:#000000;stroke-width:0.5" />
<path d="M538.01,32.263L538.01,36.263" style="fill:none;stroke:#000000;stroke-width:0.5" />
<path d="M65.305,36.263L720,36.263" style="fill:none;stroke:#000000;stroke-width:0.5" />
<g transform="rotate(90)">
<text x="152.55" y="11.555" transform="scale(1, -1)"
	style="font-family:Times;font-weight:normal;font-style:normal;font-size:12px">Number of trials (1000000 total)</text>
</g>
<text x="19.055" y="-111.99" transform="scale(1, -1)"
	style="font-family:Times;font-weight:normal;font-style:normal;font-size:10px">100000</text>
<text x="19.055" y="-252.08" transform="scale(1, -1)"
	style="font-family:Times;font-weight:normal;font-style:normal;font-size:10px">300000</text>
<text x="19.055" y="-392.17" transform="scale(1, -1)"
	style="font-family:Times;font-weight:normal;font-style:normal;font-size:10px">500000</text>
<path d="M51.555,115.2L59.555,115.2" style="fill:none;stroke:#000000;stroke-width:0.5" />
<path d="M51.555,255.29L59.555,255.29" style="fill:none;stroke:#000000;stroke-width:0.5" />
<path d="M51.555,395.38L59.555,395.38" style="fill:none;stroke:#000000;stroke-width:0.5" />
<path d="M55.555,185.24L59.555,185.24" style="fill:none;stroke:#000000;stroke-width:0.5" />
<path d="M55.555,325.33L59.555,325.33" style="fill:none;stroke:#000000;stroke-width:0.5" />
<path d="M59.555,45.151L59.555,416.58" style="fill:none;stroke:#000000;stroke-width:0.5" />
<path d="M65.305,416.58L122.03,48.609L126.76,48.649L129.12,48.541L138.57,55.682L140.94,55.518L143.3,52.231L145.66,59.047L150.39,55.687L155.12,89.453L157.48,52.264L162.21,55.59L166.94,48.596L169.3,89.235L171.66,48.593L181.12,59.245L183.48,51.946L185.84,48.653L190.57,45.186L192.93,52.04L195.3,45.258L197.66,48.818L200.03,66.49L202.39,45.502L204.75,45.294L207.12,45.411L209.48,48.794L211.84,45.738L214.21,49.03L216.57,45.773L218.93,46.362L221.3,45.623L223.66,45.621L226.02,46.143L228.39,46.63L230.75,47.388L233.11,50.101L235.48,47.288L237.84,45.862L240.21,46.725L242.57,47.199L244.93,47.466L247.3,47.373L249.66,46.987L252.02,46.597L254.39,47.056L256.75,46.465L259.11,50.942L261.48,47.368L263.84,45.774L266.2,47.176L268.57,45.586L270.93,47.669L273.29,48.002L275.66,46.718L278.02,46.296L280.39,46.143L282.75,46.433L285.11,47.672L287.48,46.854L289.84,48.664L292.2,45.703L294.57,45.591L296.93,46.73L299.29,46.045L301.66,46L304.02,48.326L306.38,45.692L308.75,45.698L311.11,45.599L313.47,45.958L315.84,46.022L318.2,46.271L320.56,45.619L322.93,45.738L325.29,45.553L327.66,45.735L330.02,45.514L332.38,45.708L334.75,45.681L337.11,45.88L339.47,45.495L341.84,45.46L344.2,45.628L346.56,45.497L348.93,45.764L351.29,45.591L353.65,45.403L356.02,45.469L358.38,45.42L360.74,45.502L363.11,45.538L365.47,45.517L367.84,45.623L370.2,45.452L372.56,45.326L374.93,45.561L377.29,45.558L379.65,45.444L382.02,45.45L384.38,45.391L386.74,45.477L389.11,45.418L391.47,45.383L393.83,45.613L396.2,45.34L398.56,45.302L400.92,45.375L403.29,45.354L405.65,45.344L408.02,45.393L410.38,45.304L412.74,45.29L415.11,45.268L417.47,45.319L419.83,45.322L422.2,45.331L424.56,45.26L426.92,45.258L429.29,45.234L431.65,45.26L434.01,45.249L436.38,45.237L438.74,45.266L441.1,45.228L443.47,45.215L445.83,45.21L448.2,45.235L450.56,45.205L452.92,45.238L455.29,45.216L457.65,45.234L460.01,45.193L462.38,45.205L464.74,45.198L467.1,45.2L469.47,45.194L471.83,45.205L474.19,45.188L476.56,45.188L478.92,45.19L481.28,45.188L483.65,45.199L486.01,45.187L488.37,45.173L490.74,45.177L493.1,45.179L495.47,45.186L497.83,45.188L500.19,45.18L502.56,45.171L504.92,45.165L507.28,45.169L509.65,45.174L512.01,45.174L514.37,45.17L516.74,45.172L519.1,45.172L521.46,45.163L523.83,45.173L526.19,45.167L528.55,45.163L530.92,45.163L533.28,45.163L535.65,45.162L538.01,45.172L540.37,45.16L542.74,45.166L545.1,45.164L547.46,45.159L549.83,45.158L552.19,45.16L554.55,45.153L556.92,45.157L559.28,45.158L561.64,45.163L564.01,45.156L566.37,45.158L568.73,45.156L571.1,45.155L573.46,45.156L575.83,45.153L578.19,45.154L580.55,45.154L582.92,45.151L585.28,45.153L587.64,45.156L590.01,45.151L592.37,45.155L594.73,45.153L597.1,45.151L599.46,45.152L601.82,45.153L604.19,45.154L606.55,45.153L608.91,45.153L616.01,45.153L618.37,45.153L620.73,45.152L623.1,45.153L627.82,45.151L630.19,45.154L632.55,45.153L634.91,45.151L639.64,45.153L649.09,45.151L651.46,45.152L653.82,45.153L656.18,45.151L658.55,45.151L660.91,45.153L665.64,45.152L668,45.151L682.18,45.151L684.55,45.151L689.27,45.151L701.09,45.151L717.64,45.151L720,45.151" style="fill:none;stroke:#0000FF" />
</g>
</svg>
