<?xml version="1.0"?>
<!-- Generated by SVGo and Plotinum VG -->
<svg width="720pt" height="432pt" viewBox="0 0 720 432"
	xmlns="http://www.w3.org/2000/svg"
	xmlns:xlink="http://www.w3.org/1999/xlink">
<g transform="scale(1, -1) translate(0, -432)">
<path d="M0,0L720,0L720,432L0,432Z" style="fill:#FFFFFF" />
<text x="358.5" y="-420.45" transform="scale(1, -1)"
	style="font-family:Times;font-weight:normal;font-style:normal;font-size:12px"> </text>
<text x="379.31" y="-3.8613" transform="scale(1, -1)"
	style="font-family:Times;font-weight:normal;font-style:normal;font-size:12px">Costs</text>
<text x="56.555" y="-18.634" transform="scale(1, -1)"
	style="font-family:Times;font-weight:normal;font-style:normal;font-size:10px">0.00</text>
<text x="332.3" y="-18.634" transform="scale(1, -1)"
	style="font-family:Times;font-weight:normal;font-style:normal;font-size:10px">250.00</text>
<text x="613.04" y="-18.634" transform="scale(1, -1)"
	style="font-family:Times;font-weight:normal;font-style:normal;font-size:10px">500.00</text>
<path d="M65.305,28.263L65.305,36.263" style="fill:none;stroke:#000000;stroke-width:0.5" />
<path d="M346.05,28.263L346.05,36.263" style="fill:none;stroke:#000000;stroke-width:0.5" />
<path d="M626.79,28.263L626.79,36.263" style="fill:none;stroke:#000000;stroke-width:0.5" />
<path d="M121.45,32.263L121.45,36.263" style="fill:none;stroke:#000000;stroke-width:0.5" />
<path d="M177.6,32.263L177.6,36.263" style="fill:none;stroke:#000000;stroke-width:0.5" />
<path d="M233.75,32.263L233.75,36.263" style="fill:none;stroke:#000000;stroke-width:0.5" />
<path d="M289.9,32.263L289.9,36.263" style="fill:none;stroke:#000000;stroke-width:0.5" />
<path d="M402.2,32.263L402.2,36.263" style="fill:none;stroke:#000000;stroke-width:0.5" />
<path d="M458.35,32.263L458.35,36.263" style="fill:none;stroke:#000000;stroke-width:0.5" />
<path d="M514.5,32.263L514.5,36.263" style="fill:none;stroke:#000000;stroke-width:0.5" />
<path d="M570.64,32.263L570.64,36.263" style="fill:none;stroke:#000000;stroke-width:0.5" />
<path d="M682.94,32.263L682.94,36.263" style="fill:none;stroke:#000000;stroke-width:0.5" />
<path d="M65.305,36.263L720,36.263" style="fill:none;stroke:#000000;stroke-width:0.5" />
<g transform="rotate(90)">
<text x="152.55" y="11.555" transform="scale(1, -1)"
	style="font-family:Times;font-weight:normal;font-style:normal;font-size:12px">Number of trials (1000000 total)</text>
</g>
<text x="24.055" y="-90.492" transform="scale(1, -1)"
	style="font-family:Times;font-weight:normal;font-style:normal;font-size:10px">20000</text>
<text x="24.055" y="-236.14" transform="scale(1, -1)"
	style="font-family:Times;font-weight:normal;font-style:normal;font-size:10px">80000</text>
<text x="19.055" y="-381.78" transform="scale(1, -1)"
	style="font-family:Times;font-weight:normal;font-style:normal;font-size:10px">140000</text>
<path d="M51.555,93.697L59.555,93.697" style="fill:none;stroke:#000000;stroke-width:0.5" />
<path d="M51.555,239.34L59.555,239.34" style="fill:none;stroke:#000000;stroke-width:0.5" />
<path d="M51.555,384.99L59.555,384.99" style="fill:none;stroke:#000000;stroke-width:0.5" />
<path d="M55.555,166.52L59.555,166.52" style="fill:none;stroke:#000000;stroke-width:0.5" />
<path d="M55.555,312.16L59.555,312.16" style="fill:none;stroke:#000000;stroke-width:0.5" />
<path d="M59.555,45.151L59.555,416.58" style="fill:none;stroke:#000000;stroke-width:0.5" />
<path d="M65.305,416.58L91.133,51.841L94.502,59.718L97.871,60.213L100.12,48.664L102.36,55.475L103.49,66.551L105.73,79.145L110.22,55.572L111.35,79.652L112.47,74.19L113.59,107.49L114.72,79.096L115.84,52.179L116.96,82.325L120.33,70.423L121.45,92.767L122.58,78.914L123.7,45.416L124.82,48.695L125.95,45.224L127.07,45.552L128.19,59.859L129.31,67.877L130.44,82.194L131.56,56.405L132.68,46.071L133.81,80.846L134.93,46.892L136.05,60.345L137.18,45.797L138.3,47.285L139.42,46.829L140.54,51.616L141.67,46.727L142.79,49.661L143.91,49.676L145.04,46.605L146.16,49.992L147.28,62.818L148.4,48.241L149.53,50.688L150.65,51.688L151.77,54.293L152.9,50.989L154.02,54.429L155.14,125.48L156.27,129.66L157.39,51.363L158.51,53.006L159.63,57.575L160.76,58.15L161.88,54.873L163,60.5L164.13,49.972L165.25,54.257L166.37,55.162L167.5,55.055L168.62,60.738L169.74,61.667L170.86,60.391L171.99,54.672L173.11,52.145L174.23,54.854L175.36,49.907L176.48,58.864L177.6,58.221L178.73,60.243L179.85,56.89L180.97,54.735L182.09,58.568L183.22,52.286L184.34,55.672L185.46,61.515L186.59,53.55L187.71,56.449L188.83,53.788L189.96,52.358L191.08,51.705L192.2,52.366L193.32,57.403L194.45,54.91L195.57,56.473L196.69,58.162L197.82,49.717L198.94,53.009L200.06,51.472L201.18,57.82L202.31,62.665L203.43,68.593L204.55,70.129L205.68,57.473L206.8,57.432L207.92,56.851L209.05,49.382L210.17,54.249L211.29,64.549L212.41,66.843L213.54,56.242L214.66,50.339L215.78,51.281L216.91,50.077L218.03,53.298L219.15,57.572L220.28,61.934L221.4,59.393L222.52,52.582L223.64,56.728L224.77,58.388L225.89,53.856L227.01,53.21L228.14,50.387L229.26,49.807L230.38,50.812L231.51,51.033L232.63,50.271L233.75,52.157L234.87,50.914L236,50.766L237.12,53.659L238.24,53.235L239.37,50.489L240.49,50.705L241.61,51.751L242.73,51.858L243.86,51.268L244.98,51.834L246.1,65.76L247.23,49.88L248.35,50.523L249.47,51.934L250.6,53.179L251.72,52.244L252.84,52.412L253.96,52.169L255.09,50.171L256.21,51.434L257.33,50.657L258.46,52.091L259.58,53.407L260.7,53.543L261.83,52.113L262.95,50.249L264.07,50.079L265.19,49.831L266.32,50.288L267.44,52.368L268.56,52.339L269.69,52.322L270.81,50.734L271.93,51.213L273.06,50.424L274.18,49.795L275.3,51.589L276.42,51.135L277.55,50.072L278.67,50.057L279.79,48.926L280.92,49.411L282.04,48.567L283.16,49.147L284.29,49.462L285.41,48.664L286.53,50.026L287.65,48.664L288.78,48.778L289.9,48.87L291.02,48.691L292.15,49.504L293.27,49.2L294.39,51.149L295.51,49.237L296.64,47.771L297.76,49.028L298.88,47.656L300.01,47.788L301.13,48.771L302.25,50.047L303.38,49.11L304.5,47.533L305.62,47.991L306.74,47.778L307.87,47.703L308.99,48.428L310.11,48.688L311.24,49.142L312.36,47.882L313.48,47.453L314.61,49.142L315.73,47.744L316.85,48.416L317.97,47.622L319.1,47.584L320.22,47.29L321.34,47.477L322.47,47.295L323.59,47.751L324.71,47.863L325.84,47.375L326.96,47.455L328.08,47.739L329.2,47.122L330.33,47.164L331.45,47.176L332.57,47.338L333.7,46.926L334.82,47.139L335.94,47.042L337.07,46.654L338.19,46.902L339.31,46.851L340.43,47.054L341.56,47.12L342.68,46.868L343.8,47.122L344.93,46.567L346.05,46.727L347.17,46.591L348.29,46.54L349.42,46.787L350.54,46.858L351.66,46.766L352.79,46.37L353.91,46.341L355.03,46.448L356.16,46.246L357.28,46.564L358.4,46.591L359.52,46.62L360.65,46.433L361.77,46.266L362.89,46.428L364.02,46.181L365.14,46.202L366.26,46.46L367.39,46.161L368.51,46.173L369.63,46.081L370.75,46.132L371.88,46.057L373,46.069L374.12,46.103L375.25,45.965L376.37,46.064L377.49,45.969L378.62,45.916L379.74,46.062L380.86,45.887L381.98,45.872L383.11,45.894L384.23,45.877L385.35,45.824L386.48,45.78L387.6,45.773L388.72,45.753L389.84,45.739L390.97,45.739L392.09,45.816L393.21,45.766L394.34,45.719L395.46,45.719L396.58,45.753L397.71,45.664L398.83,45.69L399.95,45.683L401.07,45.62L402.2,45.554L403.32,45.608L404.44,45.581L405.57,45.603L406.69,45.644L407.81,45.576L408.94,45.557L410.06,45.581L411.18,45.52L412.3,45.508L413.43,45.547L414.55,45.54L415.67,45.511L416.8,45.528L417.92,45.496L419.04,45.469L420.17,45.474L421.29,45.431L422.41,45.545L423.53,45.491L424.66,45.418L425.78,45.45L426.9,45.435L428.03,45.404L429.15,45.406L430.27,45.404L431.4,45.404L432.52,45.414L433.64,45.37L434.76,45.331L435.89,45.329L437.01,45.358L438.13,45.312L439.26,45.343L440.38,45.329L441.5,45.348L442.62,45.35L443.75,45.341L444.87,45.29L445.99,45.309L447.12,45.265L448.24,45.312L449.36,45.299L450.49,45.314L451.61,45.275L452.73,45.273L453.85,45.287L454.98,45.268L456.1,45.258L457.22,45.265L458.35,45.258L459.47,45.29L460.59,45.256L461.72,45.28L462.84,45.263L463.96,45.261L465.08,45.246L466.21,45.244L467.33,45.239L468.45,45.265L469.58,45.239L470.7,45.244L471.82,45.234L472.95,45.229L474.07,45.217L475.19,45.212L476.31,45.227L477.44,45.212L478.56,45.212L479.68,45.214L480.81,45.219L481.93,45.217L483.05,45.234L484.17,45.2L485.3,45.21L486.42,45.185L487.54,45.222L488.67,45.197L489.79,45.195L490.91,45.188L492.04,45.212L493.16,45.193L494.28,45.195L495.4,45.19L496.53,45.173L497.65,45.193L498.77,45.185L499.9,45.193L501.02,45.171L502.14,45.21L503.27,45.18L504.39,45.185L505.51,45.176L506.63,45.18L507.76,45.166L508.88,45.185L510,45.188L511.13,45.178L512.25,45.168L513.37,45.178L514.5,45.183L515.62,45.164L516.74,45.161L517.86,45.166L518.99,45.171L520.11,45.168L521.23,45.164L522.36,45.156L523.48,45.173L524.6,45.164L525.73,45.156L526.85,45.164L527.97,45.166L529.09,45.164L530.22,45.161L531.34,45.168L532.46,45.161L533.59,45.171L534.71,45.154L535.83,45.154L536.95,45.154L538.08,45.159L539.2,45.161L540.32,45.159L541.45,45.156L542.57,45.156L543.69,45.156L544.82,45.154L545.94,45.164L547.06,45.156L548.18,45.159L549.31,45.164L550.43,45.161L551.55,45.151L552.68,45.161L553.8,45.161L556.05,45.154L557.17,45.159L558.29,45.161L559.41,45.156L560.54,45.161L561.66,45.151L562.78,45.159L563.91,45.159L565.03,45.159L566.15,45.154L567.28,45.154L570.64,45.156L572.89,45.151L575.14,45.151L576.26,45.156L577.38,45.151L578.5,45.151L579.63,45.154L580.75,45.156L584.12,45.151L585.24,45.151L586.37,45.156L587.49,45.151L589.73,45.154L590.86,45.151L593.1,45.151L597.6,45.156L598.72,45.151L600.96,45.151L603.21,45.151L604.33,45.151L606.58,45.151L612.19,45.151L615.56,45.151L616.69,45.151L621.18,45.151L630.16,45.151L643.64,45.151L647.01,45.151L649.25,45.151L660.48,45.151L680.7,45.151L681.82,45.151L689.68,45.151L720,45.151" style="fill:none;stroke:#0000FF" />
</g>
</svg>
