<?xml version="1.0"?>
<!-- Generated by SVGo and Plotinum VG -->
<svg width="720pt" height="432pt" viewBox="0 0 720 432"
	xmlns="http://www.w3.org/2000/svg"
	xmlns:xlink="http://www.w3.org/1999/xlink">
<g transform="scale(1, -1) translate(0, -432)">
<path d="M0,0L720,0L720,432L0,432Z" style="fill:#FFFFFF" />
<text x="358.5" y="-420.45" transform="scale(1, -1)"
	style="font-family:Times;font-weight:normal;font-style:normal;font-size:12px"> </text>
<text x="385.56" y="-3.8613" transform="scale(1, -1)"
	style="font-family:Times;font-weight:normal;font-style:normal;font-size:12px">Costs</text>
<text x="69.055" y="-18.634" transform="scale(1, -1)"
	style="font-family:Times;font-weight:normal;font-style:normal;font-size:10px">0.00</text>
<text x="350.24" y="-18.634" transform="scale(1, -1)"
	style="font-family:Times;font-weight:normal;font-style:normal;font-size:10px">250.00</text>
<text x="636.42" y="-18.634" transform="scale(1, -1)"
	style="font-family:Times;font-weight:normal;font-style:normal;font-size:10px">500.00</text>
<path d="M77.805,28.263L77.805,36.263" style="fill:none;stroke:#000000;stroke-width:0.5" />
<path d="M363.99,28.263L363.99,36.263" style="fill:none;stroke:#000000;stroke-width:0.5" />
<path d="M650.17,28.263L650.17,36.263" style="fill:none;stroke:#000000;stroke-width:0.5" />
<path d="M135.04,32.263L135.04,36.263" style="fill:none;stroke:#000000;stroke-width:0.5" />
<path d="M192.28,32.263L192.28,36.263" style="fill:none;stroke:#000000;stroke-width:0.5" />
<path d="M249.51,32.263L249.51,36.263" style="fill:none;stroke:#000000;stroke-width:0.5" />
<path d="M306.75,32.263L306.75,36.263" style="fill:none;stroke:#000000;stroke-width:0.5" />
<path d="M421.22,32.263L421.22,36.263" style="fill:none;stroke:#000000;stroke-width:0.5" />
<path d="M478.46,32.263L478.46,36.263" style="fill:none;stroke:#000000;stroke-width:0.5" />
<path d="M535.7,32.263L535.7,36.263" style="fill:none;stroke:#000000;stroke-width:0.5" />
<path d="M592.93,32.263L592.93,36.263" style="fill:none;stroke:#000000;stroke-width:0.5" />
<path d="M707.41,32.263L707.41,36.263" style="fill:none;stroke:#000000;stroke-width:0.5" />
<path d="M77.805,36.263L720,36.263" style="fill:none;stroke:#000000;stroke-width:0.5" />
<g transform="rotate(90)">
<text x="152.55" y="11.555" transform="scale(1, -1)"
	style="font-family:Times;font-weight:normal;font-style:normal;font-size:12px">Number of trials (1000000 total)</text>
</g>
<text x="24.055" y="-91.17" transform="scale(1, -1)"
	style="font-family:Times;font-weight:normal;font-style:normal;font-size:10px">25000.00</text>
<text x="19.055" y="-238.85" transform="scale(1, -1)"
	style="font-family:Times;font-weight:normal;font-style:normal;font-size:10px">100000.00</text>
<text x="19.055" y="-386.53" transform="scale(1, -1)"
	style="font-family:Times;font-weight:normal;font-style:normal;font-size:10px">175000.00</text>
<path d="M64.055,94.376L72.055,94.376" style="fill:none;stroke:#000000;stroke-width:0.5" />
<path d="M64.055,242.05L72.055,242.05" style="fill:none;stroke:#000000;stroke-width:0.5" />
<path d="M64.055,389.73L72.055,389.73" style="fill:none;stroke:#000000;stroke-width:0.5" />
<path d="M68.055,168.22L72.055,168.22" style="fill:none;stroke:#000000;stroke-width:0.5" />
<path d="M68.055,315.89L72.055,315.89" style="fill:none;stroke:#000000;stroke-width:0.5" />
<path d="M72.055,45.151L72.055,416.58" style="fill:none;stroke:#000000;stroke-width:0.5" />
<path d="M77.805,416.58L102.99,48.605L104.13,55.511L105.28,48.698L107.57,48.609L108.71,55.532L111,70.696L112.15,48.518L113.29,76.902L114.44,90.672L115.58,48.739L116.73,77.068L117.87,69.507L119.02,59.258L120.16,48.578L121.3,79.478L122.45,55.66L123.59,58.771L124.74,55.67L125.88,84.786L127.03,58.986L128.17,73.021L129.32,62.942L130.46,52.108L131.61,45.244L132.75,55.511L133.9,48.873L135.04,52.35L136.19,63.46L137.33,45.9L138.48,88.837L139.62,74.345L140.77,53.849L141.91,60.671L143.05,46.644L144.2,47.932L145.34,47.319L146.49,51.594L147.63,50.549L148.78,68.825L149.92,66.549L151.07,50.192L152.21,51.771L153.36,52.73L154.5,63.974L155.65,50.696L156.79,53.262L157.94,53.477L159.08,70.79L160.23,53.449L161.37,55.833L162.51,56.594L163.66,53.644L164.8,58.005L165.95,73.852L167.09,53.998L168.24,53.343L169.38,70.403L170.53,65.446L171.67,56.613L172.82,55.402L173.96,55.428L175.11,60L176.25,56.869L177.4,55.9L178.54,55.855L179.69,54.743L180.83,52.394L181.98,54.981L183.12,54.13L184.26,54.225L185.41,56.349L186.55,56.099L187.7,55.53L188.84,55.134L189.99,55.997L191.13,52.872L192.28,52.711L193.42,52.707L194.57,52.303L195.71,53.075L196.86,54.264L198,54.461L199.15,54.518L200.29,55.723L201.44,53.347L202.58,56.761L203.73,52.071L204.87,53.904L206.01,54.353L207.16,55.014L208.3,52.112L209.45,56.759L210.59,55.44L211.74,52.835L212.88,52.663L214.03,53.931L215.17,52.382L216.32,52.959L217.46,53.341L218.61,52.399L219.75,53.471L220.9,53.866L222.04,51.137L223.19,51.557L224.33,50.976L225.48,51.072L226.62,52.553L227.76,52.006L228.91,50.527L230.05,53.1L231.2,52.888L232.34,51.035L233.49,50.854L234.63,50.35L235.78,50.436L236.92,51.11L238.07,50.94L239.21,49.954L240.36,50.484L241.5,50.948L242.65,50.554L243.79,49.741L244.94,49.452L246.08,50.497L247.23,51.092L248.37,49.722L249.51,49.714L250.66,50.539L251.8,50.033L252.95,49.544L254.09,49.515L255.24,49.121L256.38,49.125L257.53,50.005L258.67,49.775L259.82,49.17L260.96,49.18L262.11,49.442L263.25,48.975L264.4,48.924L265.54,48.828L266.69,48.926L267.83,49.072L268.98,48.851L270.12,48.662L271.26,48.78L272.41,48.347L273.55,48.353L274.7,48.304L275.84,48.192L276.99,48.286L278.13,48.45L279.28,48.129L280.42,47.92L281.57,48.221L282.71,47.735L283.86,47.715L285,47.711L286.15,47.676L287.29,47.703L288.44,47.682L289.58,47.607L290.73,47.603L291.87,47.498L293.01,47.485L294.16,47.37L295.3,47.357L296.45,47.118L297.59,47.435L298.74,47.333L299.88,47.053L301.03,47.193L302.17,47.246L303.32,47.03L304.46,46.922L305.61,47.006L306.75,46.957L307.9,46.957L309.04,46.855L310.19,46.807L311.33,46.606L312.47,46.815L313.62,46.622L314.76,46.62L315.91,46.593L317.05,46.64L318.2,46.606L319.34,46.638L320.49,46.412L321.63,46.471L322.78,46.427L323.92,46.402L325.07,46.343L326.21,46.301L327.36,46.305L328.5,46.252L329.65,46.354L330.79,46.254L331.94,46.171L333.08,46.167L334.22,46.256L335.37,46.11L336.51,46.112L337.66,46.154L338.8,46.205L339.95,46.034L341.09,45.994L342.24,46.028L343.38,45.99L344.53,45.876L345.67,45.984L346.82,45.876L347.96,45.965L349.11,45.898L350.25,45.945L351.4,45.86L352.54,45.807L353.69,45.837L354.83,45.734L355.97,45.803L357.12,45.772L358.26,45.783L359.41,45.73L360.55,45.744L361.7,45.659L362.84,45.705L363.99,45.648L365.13,45.653L366.28,45.618L367.42,45.685L368.57,45.604L369.71,45.634L370.86,45.63L372,45.577L373.15,45.531L374.29,45.565L375.44,45.577L376.58,45.504L377.72,45.533L378.87,45.535L380.01,45.527L381.16,45.455L382.3,45.484L383.45,45.5L384.59,45.506L385.74,45.488L386.88,45.482L388.03,45.431L389.17,45.421L390.32,45.423L391.46,45.411L392.61,45.378L393.75,45.39L394.9,45.356L396.04,45.388L397.19,45.409L398.33,45.39L399.47,45.327L400.62,45.405L401.76,45.358L402.91,45.354L404.05,45.346L405.2,45.342L406.34,45.323L407.49,45.309L408.63,45.333L409.78,45.279L410.92,45.329L412.07,45.325L413.21,45.305L414.36,45.291L415.5,45.285L416.65,45.297L417.79,45.271L418.94,45.277L420.08,45.252L421.22,45.25L422.37,45.295L423.51,45.256L424.66,45.226L425.8,45.222L426.95,45.25L428.09,45.258L429.24,45.244L430.38,45.236L431.53,45.228L432.67,45.226L433.82,45.256L434.96,45.23L436.11,45.21L437.25,45.232L438.4,45.212L439.54,45.242L440.69,45.226L441.83,45.212L442.97,45.23L444.12,45.216L445.26,45.218L446.41,45.212L447.55,45.199L448.7,45.203L449.84,45.212L450.99,45.187L452.13,45.195L453.28,45.197L454.42,45.197L455.57,45.195L456.71,45.208L457.86,45.201L459,45.181L460.15,45.187L461.29,45.195L462.44,45.197L463.58,45.181L464.72,45.187L465.87,45.175L467.01,45.185L468.16,45.177L469.3,45.187L470.45,45.181L471.59,45.199L472.74,45.183L473.88,45.177L475.03,45.185L476.17,45.175L477.32,45.167L478.46,45.179L479.61,45.177L480.75,45.159L481.9,45.177L483.04,45.167L484.18,45.163L485.33,45.165L486.47,45.171L487.62,45.175L488.76,45.165L489.91,45.159L491.05,45.169L492.2,45.161L493.34,45.159L494.49,45.163L495.63,45.163L496.78,45.161L497.92,45.165L499.07,45.171L500.21,45.155L501.36,45.161L502.5,45.171L503.65,45.159L504.79,45.163L505.93,45.161L507.08,45.159L508.22,45.161L509.37,45.157L510.51,45.161L511.66,45.157L512.8,45.165L513.95,45.151L515.09,45.155L516.24,45.157L517.38,45.165L518.53,45.155L519.67,45.165L520.82,45.163L521.96,45.159L523.11,45.157L524.25,45.153L525.4,45.157L526.54,45.153L527.68,45.155L528.83,45.151L529.97,45.151L531.12,45.157L532.26,45.155L533.41,45.151L534.55,45.153L536.84,45.153L537.99,45.153L539.13,45.153L540.28,45.153L541.42,45.155L542.57,45.151L543.71,45.155L544.86,45.153L546,45.153L547.15,45.155L548.29,45.155L550.58,45.151L552.87,45.153L554.01,45.151L556.3,45.153L562.03,45.153L572.33,45.153L573.47,45.151L574.62,45.151L575.76,45.151L578.05,45.151L581.49,45.151L603.24,45.151L720,45.151" style="fill:none;stroke:#0000FF" />
</g>
</svg>
