<?xml version="1.0"?>
<!-- Generated by SVGo and Plotinum VG -->
<svg width="720pt" height="432pt" viewBox="0 0 720 432"
	xmlns="http://www.w3.org/2000/svg"
	xmlns:xlink="http://www.w3.org/1999/xlink">
<g transform="scale(1, -1) translate(0, -432)">
<path d="M0,0L720,0L720,432L0,432Z" style="fill:#FFFFFF" />
<text x="358.5" y="-420.45" transform="scale(1, -1)"
	style="font-family:Times;font-weight:normal;font-style:normal;font-size:12px"> </text>
<text x="379.31" y="-3.8613" transform="scale(1, -1)"
	style="font-family:Times;font-weight:normal;font-style:normal;font-size:12px">Costs</text>
<text x="62.805" y="-18.634" transform="scale(1, -1)"
	style="font-family:Times;font-weight:normal;font-style:normal;font-size:10px">0</text>
<text x="248.68" y="-18.634" transform="scale(1, -1)"
	style="font-family:Times;font-weight:normal;font-style:normal;font-size:10px">100</text>
<text x="439.55" y="-18.634" transform="scale(1, -1)"
	style="font-family:Times;font-weight:normal;font-style:normal;font-size:10px">200</text>
<text x="630.42" y="-18.634" transform="scale(1, -1)"
	style="font-family:Times;font-weight:normal;font-style:normal;font-size:10px">300</text>
<path d="M65.305,28.263L65.305,36.263" style="fill:none;stroke:#000000;stroke-width:0.5" />
<path d="M256.18,28.263L256.18,36.263" style="fill:none;stroke:#000000;stroke-width:0.5" />
<path d="M447.05,28.263L447.05,36.263" style="fill:none;stroke:#000000;stroke-width:0.5" />
<path d="M637.92,28.263L637.92,36.263" style="fill:none;stroke:#000000;stroke-width:0.5" />
<path d="M103.48,32.263L103.48,36.263" style="fill:none;stroke:#000000;stroke-width:0.5" />
<path d="M141.65,32.263L141.65,36.263" style="fill:none;stroke:#000000;stroke-width:0.5" />
<path d="M179.83,32.263L179.83,36.263" style="fill:none;stroke:#000000;stroke-width:0.5" />
<path d="M218,32.263L218,36.263" style="fill:none;stroke:#000000;stroke-width:0.5" />
<path d="M294.35,32.263L294.35,36.263" style="fill:none;stroke:#000000;stroke-width:0.5" />
<path d="M332.53,32.263L332.53,36.263" style="fill:none;stroke:#000000;stroke-width:0.5" />
<path d="M370.7,32.263L370.7,36.263" style="fill:none;stroke:#000000;stroke-width:0.5" />
<path d="M408.88,32.263L408.88,36.263" style="fill:none;stroke:#000000;stroke-width:0.5" />
<path d="M485.23,32.263L485.23,36.263" style="fill:none;stroke:#000000;stroke-width:0.5" />
<path d="M523.4,32.263L523.4,36.263" style="fill:none;stroke:#000000;stroke-width:0.5" />
<path d="M561.58,32.263L561.58,36.263" style="fill:none;stroke:#000000;stroke-width:0.5" />
<path d="M599.75,32.263L599.75,36.263" style="fill:none;stroke:#000000;stroke-width:0.5" />
<path d="M676.1,32.263L676.1,36.263" style="fill:none;stroke:#000000;stroke-width:0.5" />
<path d="M714.27,32.263L714.27,36.263" style="fill:none;stroke:#000000;stroke-width:0.5" />
<path d="M65.305,36.263L720,36.263" style="fill:none;stroke:#000000;stroke-width:0.5" />
<g transform="rotate(90)">
<text x="152.55" y="11.555" transform="scale(1, -1)"
	style="font-family:Times;font-weight:normal;font-style:normal;font-size:12px">Number of trials (1000000 total)</text>
</g>
<text x="24.055" y="-87.307" transform="scale(1, -1)"
	style="font-family:Times;font-weight:normal;font-style:normal;font-size:10px">50000</text>
<text x="19.055" y="-223.4" transform="scale(1, -1)"
	style="font-family:Times;font-weight:normal;font-style:normal;font-size:10px">200000</text>
<text x="19.055" y="-359.48" transform="scale(1, -1)"
	style="font-family:Times;font-weight:normal;font-style:normal;font-size:10px">350000</text>
<path d="M51.555,90.513L59.555,90.513" style="fill:none;stroke:#000000;stroke-width:0.5" />
<path d="M51.555,226.6L59.555,226.6" style="fill:none;stroke:#000000;stroke-width:0.5" />
<path d="M51.555,362.69L59.555,362.69" style="fill:none;stroke:#000000;stroke-width:0.5" />
<path d="M55.555,158.56L59.555,158.56" style="fill:none;stroke:#000000;stroke-width:0.5" />
<path d="M55.555,294.64L59.555,294.64" style="fill:none;stroke:#000000;stroke-width:0.5" />
<path d="M59.555,45.151L59.555,416.58" style="fill:none;stroke:#000000;stroke-width:0.5" />
<path d="M65.305,416.58L109.21,48.666L114.93,51.875L118.75,70.594L120.66,51.989L122.57,52.077L126.38,48.642L128.29,58.695L130.2,81.288L132.11,48.519L139.75,48.567L141.65,73.62L143.56,52.246L145.47,55.721L147.38,77.176L149.29,70.305L151.2,52.175L153.11,48.596L158.83,55.924L160.74,48.509L162.65,63.382L164.56,45.209L166.47,48.61L168.38,66.257L170.28,63.55L172.19,49.22L174.1,52.795L176.01,49.23L177.92,49.102L179.83,53.006L181.74,53.411L183.65,54.896L185.55,46.572L187.46,45.941L189.37,45.499L191.28,46.444L193.19,50.547L195.1,48.487L197.01,47.097L198.92,46.95L200.82,47.802L202.73,48.005L204.64,48.167L206.55,49.053L208.46,47.243L210.37,47.791L212.28,50.565L214.19,48.723L216.09,47.991L218,46.891L219.91,46.854L221.82,48.1L223.73,51.057L225.64,49.957L227.55,49.714L229.46,47.77L231.36,49.516L233.27,49.772L235.18,49.327L237.09,47.578L239,48.055L240.91,47.312L242.82,47.819L244.73,50.09L246.63,49.92L248.54,48.128L250.45,48.884L252.36,49.013L254.27,47.802L256.18,48.104L258.09,47.729L260,46.979L261.9,47.261L263.81,47.791L265.72,48.143L267.63,47.426L269.54,46.563L271.45,46.634L273.36,47.077L275.27,46.56L277.17,47.254L279.08,46.826L280.99,46.639L282.9,46.348L284.81,46.626L286.72,46.84L288.63,46.671L290.54,46.347L292.44,46.072L294.35,45.938L296.26,46.275L298.17,46.331L300.08,46.129L301.99,45.942L303.9,46.009L305.81,46.002L307.71,46.164L309.62,46.286L311.53,46.187L313.44,45.903L315.35,46.027L317.26,46.056L319.17,46.011L321.07,46.084L322.98,45.855L324.89,45.846L326.8,45.979L328.71,46.128L330.62,46.041L332.53,45.936L334.44,45.864L336.34,45.835L338.25,45.885L340.16,45.81L342.07,45.811L343.98,45.786L345.89,45.75L347.8,45.793L349.71,45.836L351.61,45.743L353.52,45.673L355.43,45.694L357.34,45.608L359.25,45.633L361.16,45.675L363.07,45.59L364.98,45.577L366.88,45.552L368.79,45.564L370.7,45.544L372.61,45.47L374.52,45.433L376.43,45.42L378.34,45.401L380.25,45.394L382.15,45.451L384.06,45.404L385.97,45.387L387.88,45.355L389.79,45.378L391.7,45.41L393.61,45.383L395.52,45.376L397.42,45.35L399.33,45.317L401.24,45.336L403.15,45.326L405.06,45.329L406.97,45.297L408.88,45.296L410.79,45.315L412.69,45.303L414.6,45.324L416.51,45.295L418.42,45.287L420.33,45.298L422.24,45.287L424.15,45.289L426.06,45.285L427.96,45.253L429.87,45.269L431.78,45.28L433.69,45.253L435.6,45.258L437.51,45.245L439.42,45.258L441.33,45.238L443.23,45.246L445.14,45.24L447.05,45.251L448.96,45.219L450.87,45.223L452.78,45.227L454.69,45.221L456.59,45.217L458.5,45.204L460.41,45.197L462.32,45.204L464.23,45.205L466.14,45.205L468.05,45.198L469.96,45.208L471.86,45.198L473.77,45.192L475.68,45.197L477.59,45.198L479.5,45.185L481.41,45.176L483.32,45.177L485.23,45.179L487.13,45.184L489.04,45.183L490.95,45.179L492.86,45.181L494.77,45.176L496.68,45.175L498.59,45.175L500.5,45.17L502.4,45.173L504.31,45.169L506.22,45.168L508.13,45.174L510.04,45.174L511.95,45.176L513.86,45.169L515.77,45.166L517.67,45.164L519.58,45.17L521.49,45.164L523.4,45.157L525.31,45.16L527.22,45.162L529.13,45.161L531.04,45.165L532.94,45.162L534.85,45.16L536.76,45.157L538.67,45.161L540.58,45.16L542.49,45.167L544.4,45.157L546.31,45.158L548.21,45.159L550.12,45.154L552.03,45.16L553.94,45.157L555.85,45.154L557.76,45.16L559.67,45.158L561.58,45.156L563.48,45.155L565.39,45.157L567.3,45.152L569.21,45.152L571.12,45.154L573.03,45.156L574.94,45.154L576.85,45.156L578.75,45.153L580.66,45.152L582.57,45.152L584.48,45.151L586.39,45.152L588.3,45.153L590.21,45.152L592.11,45.156L594.02,45.152L595.93,45.154L597.84,45.154L599.75,45.151L601.66,45.152L603.57,45.151L605.48,45.153L607.38,45.152L611.2,45.153L613.11,45.154L620.75,45.152L622.65,45.151L624.56,45.153L639.83,45.151L653.19,45.152L676.1,45.151L681.83,45.151L683.73,45.151L687.55,45.151L702.82,45.151L720,45.151" style="fill:none;stroke:#0000FF" />
</g>
</svg>
