<?xml version="1.0"?>
<!-- Generated by SVGo and Plotinum VG -->
<svg width="720pt" height="432pt" viewBox="0 0 720 432"
	xmlns="http://www.w3.org/2000/svg"
	xmlns:xlink="http://www.w3.org/1999/xlink">
<g transform="scale(1, -1) translate(0, -432)">
<path d="M0,0L720,0L720,432L0,432Z" style="fill:#FFFFFF" />
<text x="358.5" y="-420.45" transform="scale(1, -1)"
	style="font-family:Times;font-weight:normal;font-style:normal;font-size:12px"> </text>
<text x="379.31" y="-3.8613" transform="scale(1, -1)"
	style="font-family:Times;font-weight:normal;font-style:normal;font-size:12px">Costs</text>
<text x="62.805" y="-18.634" transform="scale(1, -1)"
	style="font-family:Times;font-weight:normal;font-style:normal;font-size:10px">0</text>
<text x="328.34" y="-18.634" transform="scale(1, -1)"
	style="font-family:Times;font-weight:normal;font-style:normal;font-size:10px">200</text>
<text x="598.88" y="-18.634" transform="scale(1, -1)"
	style="font-family:Times;font-weight:normal;font-style:normal;font-size:10px">400</text>
<path d="M65.305,28.263L65.305,36.263" style="fill:none;stroke:#000000;stroke-width:0.5" />
<path d="M335.84,28.263L335.84,36.263" style="fill:none;stroke:#000000;stroke-width:0.5" />
<path d="M606.38,28.263L606.38,36.263" style="fill:none;stroke:#000000;stroke-width:0.5" />
<path d="M200.57,32.263L200.57,36.263" style="fill:none;stroke:#000000;stroke-width:0.5" />
<path d="M471.11,32.263L471.11,36.263" style="fill:none;stroke:#000000;stroke-width:0.5" />
<path d="M65.305,36.263L720,36.263" style="fill:none;stroke:#000000;stroke-width:0.5" />
<g transform="rotate(90)">
<text x="152.55" y="11.555" transform="scale(1, -1)"
	style="font-family:Times;font-weight:normal;font-style:normal;font-size:12px">Number of trials (1000000 total)</text>
</g>
<text x="24.055" y="-90.342" transform="scale(1, -1)"
	style="font-family:Times;font-weight:normal;font-style:normal;font-size:10px">20000</text>
<text x="24.055" y="-235.54" transform="scale(1, -1)"
	style="font-family:Times;font-weight:normal;font-style:normal;font-size:10px">80000</text>
<text x="19.055" y="-380.73" transform="scale(1, -1)"
	style="font-family:Times;font-weight:normal;font-style:normal;font-size:10px">140000</text>
<path d="M51.555,93.547L59.555,93.547" style="fill:none;stroke:#000000;stroke-width:0.5" />
<path d="M51.555,238.74L59.555,238.74" style="fill:none;stroke:#000000;stroke-width:0.5" />
<path d="M51.555,383.94L59.555,383.94" style="fill:none;stroke:#000000;stroke-width:0.5" />
<path d="M55.555,166.14L59.555,166.14" style="fill:none;stroke:#000000;stroke-width:0.5" />
<path d="M55.555,311.34L59.555,311.34" style="fill:none;stroke:#000000;stroke-width:0.5" />
<path d="M59.555,45.151L59.555,416.58" style="fill:none;stroke:#000000;stroke-width:0.5" />
<path d="M65.305,416.58L100.47,90.515L101.83,104.03L107.24,77.827L108.59,76.354L109.94,77.675L111.3,96.091L112.65,55.325L116.71,55.562L118.06,77.847L120.76,52.174L124.82,96.156L126.18,77.704L127.53,95.65L131.59,77.939L132.94,59.296L134.29,61.856L137,172.51L138.35,50.335L142.41,49.171L143.76,68.431L145.11,64.787L146.47,59.93L147.82,54.562L149.17,53.706L150.52,65.757L151.88,49.926L153.23,58.454L154.58,55.896L155.93,51.346L157.29,47.15L158.64,47.46L159.99,55.146L161.34,61.113L162.7,61.592L164.05,58.727L165.4,46.669L166.76,54.604L168.11,59.877L169.46,62.509L170.81,60.83L172.17,70.725L173.52,97.458L174.87,73.152L176.22,51.961L177.58,57.672L178.93,67.015L180.28,68.496L181.63,59.874L182.99,63.976L184.34,53.536L185.69,56.656L187.05,59.504L188.4,57.411L189.75,61.975L191.1,54.48L192.46,56.172L193.81,56.087L195.16,52.735L196.51,69.423L197.87,60.341L199.22,65.488L200.57,49.106L201.92,48.004L203.28,62.652L204.63,56.624L205.98,59.301L207.34,51.281L208.69,66.868L210.04,60.554L211.39,55.412L212.75,53.352L214.1,52.28L215.45,60.755L216.8,60.75L218.16,57.004L219.51,56.474L220.86,55.196L222.22,57.868L223.57,52.213L224.92,53.556L226.27,54.33L227.63,52.793L228.98,51.796L230.33,51.966L231.68,52.951L233.04,57.268L234.39,58.72L235.74,57.374L237.09,51.888L238.45,52.389L239.8,56.176L241.15,56.774L242.51,54.71L243.86,53.471L245.21,60.936L246.56,58.209L247.92,51.782L249.27,52.435L250.62,52.38L251.97,55.039L253.33,53.084L254.68,52.694L256.03,51.463L257.38,52.697L258.74,54.076L260.09,52.116L261.44,50.923L262.8,51.487L264.15,51.279L265.5,51.417L266.85,49.87L268.21,51.898L269.56,51.024L270.91,52.174L272.26,50.303L273.62,49.154L274.97,50.925L276.32,51.029L277.67,51.893L279.03,50.548L280.38,51.143L281.73,52.46L283.09,51.738L284.44,50.148L285.79,49.519L287.14,50.71L288.5,51.407L289.85,50.122L291.2,49.989L292.55,49.5L293.91,49.853L295.26,49.652L296.61,49.386L297.97,49.234L299.32,49.047L300.67,49.398L302.02,49.183L303.38,48.873L304.73,49.64L306.08,49.89L307.43,49.662L308.79,48.394L310.14,48.082L311.49,48.9L312.84,49.309L314.2,48.779L315.55,48.227L316.9,48.738L318.26,49.001L319.61,48.297L320.96,47.985L322.31,47.668L323.67,48.3L325.02,48.428L326.37,48.046L327.72,47.741L329.08,47.799L330.43,48.043L331.78,47.765L333.13,47.474L334.49,47.441L335.84,47.293L337.19,47.404L338.55,47.216L339.9,47.293L341.25,47.199L342.6,47.448L343.96,47.317L345.31,46.911L346.66,47.029L348.01,47.191L349.37,47.298L350.72,46.993L352.07,46.964L353.42,46.995L354.78,47.399L356.13,46.913L357.48,46.787L358.84,46.753L360.19,46.797L361.54,46.792L362.89,46.623L364.25,46.56L365.6,46.552L366.95,46.707L368.3,46.579L369.66,46.424L371.01,46.325L372.36,46.388L373.71,46.393L375.07,46.265L376.42,46.315L377.77,46.25L379.13,46.221L380.48,46.267L381.83,46.003L383.18,46.139L384.54,46.202L385.89,46.245L387.24,46.11L388.59,46.006L389.95,46.066L391.3,46.006L392.65,46.001L394.01,45.981L395.36,45.923L396.71,45.95L398.06,45.94L399.42,45.783L400.77,45.814L402.12,45.831L403.47,45.899L404.83,45.766L406.18,45.732L407.53,45.778L408.88,45.701L410.24,45.739L411.59,45.715L412.94,45.618L414.3,45.735L415.65,45.727L417,45.698L418.35,45.597L419.71,45.66L421.06,45.679L422.41,45.623L423.76,45.594L425.12,45.597L426.47,45.597L427.82,45.611L429.17,45.49L430.53,45.514L431.88,45.507L433.23,45.512L434.59,45.461L435.94,45.485L437.29,45.495L438.64,45.495L440,45.461L441.35,45.444L442.7,45.464L444.05,45.432L445.41,45.425L446.76,45.413L448.11,45.374L449.46,45.396L450.82,45.345L452.17,45.485L453.52,45.386L454.88,45.343L456.23,45.34L457.58,45.42L458.93,45.34L460.29,45.292L461.64,45.338L462.99,45.374L464.34,45.335L465.7,45.299L467.05,45.311L468.4,45.326L469.75,45.34L471.11,45.301L472.46,45.314L473.81,45.28L475.17,45.272L476.52,45.282L477.87,45.258L479.22,45.282L480.58,45.316L481.93,45.265L483.28,45.282L484.63,45.229L485.99,45.253L487.34,45.251L488.69,45.265L490.05,45.246L491.4,45.253L492.75,45.226L494.1,45.238L495.46,45.222L496.81,45.234L498.16,45.226L499.51,45.229L500.87,45.205L502.22,45.217L503.57,45.229L504.92,45.226L506.28,45.209L507.63,45.214L508.98,45.219L510.34,45.197L511.69,45.19L513.04,45.2L514.39,45.205L515.75,45.183L517.1,45.207L518.45,45.197L519.8,45.214L521.16,45.183L522.51,45.185L523.86,45.176L525.21,45.178L526.57,45.193L527.92,45.183L529.27,45.173L530.63,45.188L531.98,45.176L533.33,45.18L534.68,45.178L536.04,45.176L537.39,45.178L538.74,45.176L540.09,45.176L541.45,45.185L542.8,45.176L544.15,45.178L545.5,45.163L546.86,45.178L548.21,45.176L549.56,45.163L550.92,45.163L552.27,45.163L553.62,45.178L554.97,45.18L556.33,45.156L557.68,45.161L559.03,45.163L560.38,45.163L561.74,45.168L563.09,45.166L564.44,45.154L565.79,45.154L567.15,45.171L568.5,45.159L569.85,45.156L571.21,45.161L572.56,45.161L573.91,45.166L575.26,45.154L576.62,45.156L577.97,45.161L579.32,45.159L580.67,45.159L582.03,45.159L583.38,45.156L584.73,45.159L586.09,45.159L587.44,45.151L588.79,45.161L590.14,45.163L591.5,45.159L592.85,45.154L594.2,45.156L595.55,45.151L596.91,45.156L598.26,45.154L599.61,45.156L600.96,45.159L602.32,45.151L603.67,45.151L605.02,45.151L607.73,45.151L609.08,45.154L613.14,45.154L615.84,45.151L617.2,45.154L618.55,45.154L621.25,45.151L629.37,45.154L630.72,45.151L633.43,45.163L634.78,45.151L637.49,45.151L638.84,45.151L641.54,45.151L644.25,45.151L648.31,45.156L651.01,45.151L653.72,45.151L656.42,45.151L659.13,45.151L664.54,45.151L667.25,45.154L668.6,45.151L686.18,45.151L687.54,45.151L692.95,45.151L697,45.151L720,45.151" style="fill:none;stroke:#0000FF" />
</g>
</svg>
