<?xml version="1.0"?>
<!-- Generated by SVGo and Plotinum VG -->
<svg width="720pt" height="432pt" viewBox="0 0 720 432"
	xmlns="http://www.w3.org/2000/svg"
	xmlns:xlink="http://www.w3.org/1999/xlink">
<g transform="scale(1, -1) translate(0, -432)">
<path d="M0,0L720,0L720,432L0,432Z" style="fill:#FFFFFF" />
<text x="358.5" y="-420.45" transform="scale(1, -1)"
	style="font-family:Times;font-weight:normal;font-style:normal;font-size:12px"> </text>
<text x="379.31" y="-3.8613" transform="scale(1, -1)"
	style="font-family:Times;font-weight:normal;font-style:normal;font-size:12px">Costs</text>
<text x="62.805" y="-18.634" transform="scale(1, -1)"
	style="font-family:Times;font-weight:normal;font-style:normal;font-size:10px">0</text>
<text x="330.59" y="-18.634" transform="scale(1, -1)"
	style="font-family:Times;font-weight:normal;font-style:normal;font-size:10px">200</text>
<text x="603.38" y="-18.634" transform="scale(1, -1)"
	style="font-family:Times;font-weight:normal;font-style:normal;font-size:10px">400</text>
<path d="M65.305,28.263L65.305,36.263" style="fill:none;stroke:#000000;stroke-width:0.5" />
<path d="M338.09,28.263L338.09,36.263" style="fill:none;stroke:#000000;stroke-width:0.5" />
<path d="M610.88,28.263L610.88,36.263" style="fill:none;stroke:#000000;stroke-width:0.5" />
<path d="M201.7,32.263L201.7,36.263" style="fill:none;stroke:#000000;stroke-width:0.5" />
<path d="M474.49,32.263L474.49,36.263" style="fill:none;stroke:#000000;stroke-width:0.5" />
<path d="M65.305,36.263L720,36.263" style="fill:none;stroke:#000000;stroke-width:0.5" />
<g transform="rotate(90)">
<text x="152.55" y="11.555" transform="scale(1, -1)"
	style="font-family:Times;font-weight:normal;font-style:normal;font-size:12px">Number of trials (1000000 total)</text>
</g>
<text x="24.055" y="-110.31" transform="scale(1, -1)"
	style="font-family:Times;font-weight:normal;font-style:normal;font-size:10px">40000</text>
<text x="19.055" y="-247.04" transform="scale(1, -1)"
	style="font-family:Times;font-weight:normal;font-style:normal;font-size:10px">120000</text>
<text x="19.055" y="-383.77" transform="scale(1, -1)"
	style="font-family:Times;font-weight:normal;font-style:normal;font-size:10px">200000</text>
<path d="M51.555,113.51L59.555,113.51" style="fill:none;stroke:#000000;stroke-width:0.5" />
<path d="M51.555,250.24L59.555,250.24" style="fill:none;stroke:#000000;stroke-width:0.5" />
<path d="M51.555,386.97L59.555,386.97" style="fill:none;stroke:#000000;stroke-width:0.5" />
<path d="M55.555,181.88L59.555,181.88" style="fill:none;stroke:#000000;stroke-width:0.5" />
<path d="M55.555,318.61L59.555,318.61" style="fill:none;stroke:#000000;stroke-width:0.5" />
<path d="M59.555,45.151L59.555,416.58" style="fill:none;stroke:#000000;stroke-width:0.5" />
<path d="M65.305,416.58L100.77,59.713L102.13,51.933L103.5,55.358L104.86,52.4L106.22,52.133L107.59,48.607L108.95,48.575L110.31,63.306L111.68,70.195L113.04,62.984L114.41,48.614L117.13,58.787L118.5,81.229L119.86,59.077L121.23,87.428L122.59,76.937L123.95,65.903L125.32,80.407L126.68,66.731L132.14,48.518L133.5,55.406L137.59,62.878L138.96,66.78L140.32,52.709L141.69,67.464L143.05,45.628L144.41,56.255L145.78,96.568L147.14,53.987L148.51,76.165L149.87,71.829L151.23,49.857L152.6,46.727L153.96,47.481L155.33,47.392L156.69,56.503L158.05,49.986L159.42,50.121L160.78,49.571L162.15,60.349L163.51,50.639L164.87,57.958L166.24,54.743L167.6,51.49L168.96,51.639L170.33,51.839L171.69,51.436L173.06,52.497L174.42,60.436L175.78,58.877L177.15,53.7L178.51,55.879L179.88,54.194L181.24,54.873L182.6,54.08L183.97,54.365L185.33,54.152L186.7,53.403L188.06,50.063L189.42,50.552L190.79,53.182L192.15,54.288L193.52,55.591L194.88,56.276L196.24,53.668L197.61,55.96L198.97,57.129L200.34,54.333L201.7,59.472L203.06,57.165L204.43,55.391L205.79,58.435L207.16,54.827L208.52,52.499L209.88,52.941L211.25,50.274L212.61,49.67L213.98,50.944L215.34,50.048L216.7,49.944L218.07,53.318L219.43,52.6L220.79,52.723L222.16,55.987L223.52,51.26L224.89,52.212L226.25,51.492L227.61,50.54L228.98,52.851L230.34,53.512L231.71,50.607L233.07,51.39L234.43,50.561L235.8,50.18L237.16,50.368L238.53,49.604L239.89,49.53L241.25,49.921L242.62,50.81L243.98,49.347L245.35,50.643L246.71,50.545L248.07,50.393L249.44,50.19L250.8,49.992L252.17,49.506L253.53,49.723L254.89,50.448L256.26,50.456L257.62,50.26L258.99,50.742L260.35,49.761L261.71,49.527L263.08,49.436L264.44,48.987L265.81,49.211L267.17,49.012L268.53,48.416L269.9,48.5L271.26,48.564L272.62,48.571L273.99,48.937L275.35,49.308L276.72,49.034L278.08,49.234L279.44,48.946L280.81,48.636L282.17,48.966L283.54,48.773L284.9,48.479L286.26,48.561L287.63,48.135L288.99,48.259L290.36,48.168L291.72,47.811L293.08,47.7L294.45,47.677L295.81,47.525L297.18,47.56L298.54,47.647L299.9,47.431L301.27,47.642L302.63,47.912L304,47.671L305.36,47.65L306.72,47.534L308.09,47.184L309.45,47.413L310.82,47.25L312.18,47.168L313.54,47.414L314.91,47.219L316.27,47.062L317.64,46.97L319,47.067L320.36,46.737L321.73,46.86L323.09,46.741L324.45,46.643L325.82,46.792L327.18,46.792L328.55,46.739L329.91,46.763L331.27,46.792L332.64,46.671L334,46.688L335.37,46.667L336.73,46.553L338.09,46.546L339.46,46.527L340.82,46.502L342.19,46.443L343.55,46.397L344.91,46.324L346.28,46.249L347.64,46.363L349.01,46.175L350.37,46.165L351.73,46.199L353.1,46.168L354.46,46.185L355.83,46.22L357.19,46.156L358.55,46.18L359.92,46.085L361.28,46.102L362.65,46.074L364.01,45.987L365.37,45.967L366.74,45.956L368.1,45.985L369.47,45.907L370.83,45.886L372.19,45.898L373.56,45.799L374.92,45.857L376.28,45.893L377.65,45.835L379.01,45.784L380.38,45.785L381.74,45.756L383.1,45.762L384.47,45.789L385.83,45.727L387.2,45.685L388.56,45.693L389.92,45.668L391.29,45.64L392.65,45.627L394.02,45.62L395.38,45.556L396.74,45.618L398.11,45.604L399.47,45.548L400.84,45.567L402.2,45.608L403.56,45.553L404.93,45.524L406.29,45.509L407.66,45.5L409.02,45.521L410.38,45.522L411.75,45.469L413.11,45.524L414.48,45.454L415.84,45.485L417.2,45.464L418.57,45.42L419.93,45.442L421.3,45.444L422.66,45.416L424.02,45.409L425.39,45.399L426.75,45.374L428.12,45.394L429.48,45.384L430.84,45.362L432.21,45.403L433.57,45.384L434.93,45.339L436.3,45.338L437.66,45.351L439.03,45.317L440.39,45.348L441.75,45.346L443.12,45.341L444.48,45.312L445.85,45.302L447.21,45.303L448.57,45.269L449.94,45.292L451.3,45.303L452.67,45.29L454.03,45.269L455.39,45.268L456.76,45.281L458.12,45.276L459.49,45.257L460.85,45.249L462.21,45.264L463.58,45.25L464.94,45.268L466.31,45.23L467.67,45.292L469.03,45.242L470.4,45.247L471.76,45.213L473.13,45.233L474.49,45.227L475.85,45.237L477.22,45.242L478.58,45.242L479.95,45.201L481.31,45.23L482.67,45.22L484.04,45.211L485.4,45.209L486.76,45.218L488.13,45.209L489.49,45.213L490.86,45.211L492.22,45.196L493.58,45.208L494.95,45.198L496.31,45.203L497.68,45.204L499.04,45.192L500.4,45.187L501.77,45.209L503.13,45.196L504.5,45.175L505.86,45.184L507.22,45.196L508.59,45.194L509.95,45.18L511.32,45.192L512.68,45.186L514.04,45.18L515.41,45.177L516.77,45.179L518.14,45.189L519.5,45.174L520.86,45.177L522.23,45.175L523.59,45.194L524.96,45.18L526.32,45.172L527.68,45.174L529.05,45.175L530.41,45.17L531.78,45.189L533.14,45.174L534.5,45.182L535.87,45.17L537.23,45.167L538.59,45.175L539.96,45.177L541.32,45.155L542.69,45.167L544.05,45.165L545.41,45.163L546.78,45.165L548.14,45.163L549.51,45.17L550.87,45.167L552.23,45.156L553.6,45.162L554.96,45.167L556.33,45.156L557.69,45.162L559.05,45.162L560.42,45.165L561.78,45.158L563.15,45.163L564.51,45.156L565.87,45.153L567.24,45.155L568.6,45.155L569.97,45.156L571.33,45.158L572.69,45.156L574.06,45.156L575.42,45.156L576.79,45.151L578.15,45.156L579.51,45.153L580.88,45.16L582.24,45.153L583.61,45.16L584.97,45.155L586.33,45.16L587.7,45.155L589.06,45.158L590.42,45.155L594.52,45.153L595.88,45.155L597.24,45.153L598.61,45.155L599.97,45.16L601.34,45.151L602.7,45.151L604.06,45.151L605.43,45.153L606.79,45.153L608.16,45.153L609.52,45.153L612.25,45.151L613.61,45.151L614.98,45.153L616.34,45.153L617.7,45.151L619.07,45.151L621.8,45.151L623.16,45.151L624.52,45.153L627.25,45.151L628.62,45.153L629.98,45.151L631.34,45.151L632.71,45.153L636.8,45.156L642.25,45.153L646.35,45.153L647.71,45.151L653.17,45.151L654.53,45.151L661.35,45.151L664.08,45.151L668.17,45.151L683.17,45.153L692.72,45.151L698.18,45.151L703.63,45.151L711.82,45.151L713.18,45.151L720,45.151" style="fill:none;stroke:#0000FF" />
</g>
</svg>
