<?xml version="1.0"?>
<!-- Generated by SVGo and Plotinum VG -->
<svg width="720pt" height="432pt" viewBox="0 0 720 432"
	xmlns="http://www.w3.org/2000/svg"
	xmlns:xlink="http://www.w3.org/1999/xlink">
<g transform="scale(1, -1) translate(0, -432)">
<path d="M0,0L720,0L720,432L0,432Z" style="fill:#FFFFFF" />
<text x="358.5" y="-420.45" transform="scale(1, -1)"
	style="font-family:Times;font-weight:normal;font-style:normal;font-size:12px"> </text>
<text x="379.32" y="-3.8613" transform="scale(1, -1)"
	style="font-family:Times;font-weight:normal;font-style:normal;font-size:12px">Costs</text>
<text x="69.055" y="-18.634" transform="scale(1, -1)"
	style="font-family:Times;font-weight:normal;font-style:normal;font-size:10px">0.00</text>
<text x="378.28" y="-18.634" transform="scale(1, -1)"
	style="font-family:Times;font-weight:normal;font-style:normal;font-size:10px">250.00</text>
<text x="692.5" y="-18.634" transform="scale(1, -1)"
	style="font-family:Times;font-weight:normal;font-style:normal;font-size:10px">500.00</text>
<path d="M77.805,28.263L77.805,36.263" style="fill:none;stroke:#000000;stroke-width:0.5" />
<path d="M392.03,28.263L392.03,36.263" style="fill:none;stroke:#000000;stroke-width:0.5" />
<path d="M706.25,28.263L706.25,36.263" style="fill:none;stroke:#000000;stroke-width:0.5" />
<path d="M140.65,32.263L140.65,36.263" style="fill:none;stroke:#000000;stroke-width:0.5" />
<path d="M203.49,32.263L203.49,36.263" style="fill:none;stroke:#000000;stroke-width:0.5" />
<path d="M266.34,32.263L266.34,36.263" style="fill:none;stroke:#000000;stroke-width:0.5" />
<path d="M329.18,32.263L329.18,36.263" style="fill:none;stroke:#000000;stroke-width:0.5" />
<path d="M454.87,32.263L454.87,36.263" style="fill:none;stroke:#000000;stroke-width:0.5" />
<path d="M517.72,32.263L517.72,36.263" style="fill:none;stroke:#000000;stroke-width:0.5" />
<path d="M580.56,32.263L580.56,36.263" style="fill:none;stroke:#000000;stroke-width:0.5" />
<path d="M643.41,32.263L643.41,36.263" style="fill:none;stroke:#000000;stroke-width:0.5" />
<path d="M77.805,36.263L707.51,36.263" style="fill:none;stroke:#000000;stroke-width:0.5" />
<g transform="rotate(90)">
<text x="152.55" y="11.555" transform="scale(1, -1)"
	style="font-family:Times;font-weight:normal;font-style:normal;font-size:12px">Number of trials (1000000 total)</text>
</g>
<text x="24.055" y="-80.719" transform="scale(1, -1)"
	style="font-family:Times;font-weight:normal;font-style:normal;font-size:10px">25000.00</text>
<text x="19.055" y="-235.82" transform="scale(1, -1)"
	style="font-family:Times;font-weight:normal;font-style:normal;font-size:10px">125000.00</text>
<text x="19.055" y="-390.91" transform="scale(1, -1)"
	style="font-family:Times;font-weight:normal;font-style:normal;font-size:10px">225000.00</text>
<path d="M64.055,83.924L72.055,83.924" style="fill:none;stroke:#000000;stroke-width:0.5" />
<path d="M64.055,239.02L72.055,239.02" style="fill:none;stroke:#000000;stroke-width:0.5" />
<path d="M64.055,394.12L72.055,394.12" style="fill:none;stroke:#000000;stroke-width:0.5" />
<path d="M68.055,161.47L72.055,161.47" style="fill:none;stroke:#000000;stroke-width:0.5" />
<path d="M68.055,316.57L72.055,316.57" style="fill:none;stroke:#000000;stroke-width:0.5" />
<path d="M72.055,45.151L72.055,416.58" style="fill:none;stroke:#000000;stroke-width:0.5" />
<path d="M77.805,416.58L106.71,52.345L110.48,66.733L111.74,59.183L113,48.725L114.25,58.474L116.77,70.576L119.28,52.503L120.54,77.123L121.8,73.68L123.05,48.483L125.57,48.5L126.82,118.69L128.08,66.428L129.34,84.242L130.59,73.547L131.85,69.914L133.11,55.735L135.62,52.581L138.14,48.435L139.39,77.45L140.65,45.413L141.91,59.617L143.16,45.69L144.42,49.24L145.68,45.761L146.93,46.11L148.19,63.211L149.45,50.606L150.7,68.217L151.96,63.814L153.22,48.197L154.48,65.612L155.73,73.964L156.99,47.084L158.25,47.5L159.5,52.331L160.76,51.613L162.02,49.868L163.27,52.095L164.53,51.79L165.79,54.125L167.04,48.554L168.3,51.38L169.56,58.116L170.81,55.194L172.07,54.485L173.33,52.719L174.59,55.65L175.84,54.353L177.1,51.499L178.36,56.736L179.61,71.785L180.87,56.622L182.13,55.596L183.38,54.001L184.64,54.062L185.9,49.083L187.15,51.371L188.41,55.713L189.67,51.065L190.92,55.895L192.18,52L193.44,53.539L194.7,52.813L195.95,48.93L197.21,52.737L198.47,51.639L199.72,55.079L200.98,53.434L202.24,51.946L203.49,55.926L204.75,55.313L206.01,52.193L207.26,51.217L208.52,51.352L209.78,50.991L211.04,48.477L212.29,51.36L213.55,50.78L214.81,49.185L216.06,50.614L217.32,50.383L218.58,50.538L219.83,49.215L221.09,50.113L222.35,51.214L223.6,50.687L224.86,50.284L226.12,49.714L227.37,49.95L228.63,53.79L229.89,50.609L231.15,50.862L232.4,51.262L233.66,50.594L234.92,48.522L236.17,48.719L237.43,48.739L238.69,48.357L239.94,48.791L241.2,49.959L242.46,49.019L243.71,49.448L244.97,48.26L246.23,48.829L247.48,48.725L248.74,48.574L250,48.877L251.26,48.461L252.51,50.003L253.77,49.061L255.03,48.45L256.28,49.055L257.54,49.17L258.8,47.945L260.05,47.43L261.31,48.059L262.57,47.875L263.82,47.523L265.08,47.808L266.34,47.755L267.6,47.683L268.85,47.309L270.11,47.399L271.37,47.808L272.62,47.344L273.88,47.602L275.14,47.286L276.39,47.498L277.65,47.633L278.91,47.293L280.16,47.524L281.42,47.323L282.68,47.324L283.93,47.071L285.19,46.968L286.45,46.977L287.71,46.597L288.96,46.662L290.22,47L291.48,46.718L292.73,46.814L293.99,46.656L295.25,46.758L296.5,46.643L297.76,46.487L299.02,46.611L300.27,46.631L301.53,46.67L302.79,46.688L304.05,46.454L305.3,46.679L306.56,46.608L307.82,46.406L309.07,46.294L310.33,46.27L311.59,46.209L312.84,46.119L314.1,46.167L315.36,46.128L316.61,46.068L317.87,46.034L319.13,46.125L320.38,46.115L321.64,45.99L322.9,46.018L324.16,45.932L325.41,45.987L326.67,46.051L327.93,45.908L329.18,45.922L330.44,45.978L331.7,45.902L332.95,45.86L334.21,45.82L335.47,45.857L336.72,45.755L337.98,45.728L339.24,45.707L340.49,45.714L341.75,45.702L343.01,45.713L344.27,45.685L345.52,45.654L346.78,45.697L348.04,45.688L349.29,45.659L350.55,45.637L351.81,45.612L353.06,45.623L354.32,45.593L355.58,45.572L356.83,45.576L358.09,45.507L359.35,45.486L360.61,45.544L361.86,45.471L363.12,45.517L364.38,45.448L365.63,45.458L366.89,45.462L368.15,45.432L369.4,45.449L370.66,45.438L371.92,45.42L373.17,45.417L374.43,45.426L375.69,45.404L376.94,45.403L378.2,45.389L379.46,45.421L380.72,45.365L381.97,45.367L383.23,45.362L384.49,45.367L385.74,45.345L387,45.333L388.26,45.333L389.51,45.289L390.77,45.344L392.03,45.291L393.28,45.289L394.54,45.306L395.8,45.3L397.05,45.306L398.31,45.266L399.57,45.288L400.83,45.3L402.08,45.285L403.34,45.282L404.6,45.283L405.85,45.26L407.11,45.272L408.37,45.261L409.62,45.258L410.88,45.243L412.14,45.265L413.39,45.244L414.65,45.246L415.91,45.252L417.17,45.235L418.42,45.238L419.68,45.22L420.94,45.241L422.19,45.22L423.45,45.221L424.71,45.212L425.96,45.232L427.22,45.227L428.48,45.206L429.73,45.198L430.99,45.226L432.25,45.196L433.5,45.201L434.76,45.22L436.02,45.182L437.28,45.199L438.53,45.184L439.79,45.19L441.05,45.198L442.3,45.19L443.56,45.185L444.82,45.192L446.07,45.182L447.33,45.185L448.59,45.19L449.84,45.193L451.1,45.173L452.36,45.189L453.61,45.179L454.87,45.176L456.13,45.175L457.39,45.182L458.64,45.168L459.9,45.168L461.16,45.17L462.41,45.172L463.67,45.173L464.93,45.164L466.18,45.164L467.44,45.172L468.7,45.164L469.95,45.168L471.21,45.175L472.47,45.167L473.73,45.173L474.98,45.168L476.24,45.164L477.5,45.162L478.75,45.159L480.01,45.172L481.27,45.164L482.52,45.161L483.78,45.167L485.04,45.162L486.29,45.158L487.55,45.162L488.81,45.154L490.06,45.17L491.32,45.156L492.58,45.159L493.84,45.156L495.09,45.161L496.35,45.159L497.61,45.156L498.86,45.158L500.12,45.158L501.38,45.164L502.63,45.154L503.89,45.159L505.15,45.153L506.4,45.153L507.66,45.161L508.92,45.153L510.18,45.153L511.43,45.154L513.95,45.151L515.2,45.153L517.72,45.151L518.97,45.154L520.23,45.158L521.49,45.151L522.74,45.158L524,45.151L525.26,45.154L526.51,45.158L527.77,45.154L529.03,45.153L530.29,45.151L535.31,45.156L536.57,45.154L537.83,45.153L539.08,45.151L540.34,45.153L542.85,45.151L544.11,45.153L545.37,45.153L547.88,45.153L550.4,45.151L551.65,45.154L552.91,45.151L554.17,45.154L559.19,45.151L560.45,45.151L561.71,45.151L562.96,45.153L569.25,45.151L570.51,45.151L571.76,45.153L573.02,45.151L583.07,45.151L584.33,45.151L598.16,45.151L601.93,45.151L603.18,45.151L611.98,45.151L620.78,45.151L629.58,45.151L707.51,45.151" style="fill:none;stroke:#0000FF" />
</g>
</svg>
