<?xml version="1.0"?>
<!-- Generated by SVGo and Plotinum VG -->
<svg width="720pt" height="432pt" viewBox="0 0 720 432"
	xmlns="http://www.w3.org/2000/svg"
	xmlns:xlink="http://www.w3.org/1999/xlink">
<g transform="scale(1, -1) translate(0, -432)">
<path d="M0,0L720,0L720,432L0,432Z" style="fill:#FFFFFF" />
<text x="358.5" y="-420.45" transform="scale(1, -1)"
	style="font-family:Times;font-weight:normal;font-style:normal;font-size:12px"> </text>
<text x="385.56" y="-3.8613" transform="scale(1, -1)"
	style="font-family:Times;font-weight:normal;font-style:normal;font-size:12px">Costs</text>
<text x="69.055" y="-18.634" transform="scale(1, -1)"
	style="font-family:Times;font-weight:normal;font-style:normal;font-size:10px">0.00</text>
<text x="378.24" y="-18.634" transform="scale(1, -1)"
	style="font-family:Times;font-weight:normal;font-style:normal;font-size:10px">250.00</text>
<text x="692.43" y="-18.634" transform="scale(1, -1)"
	style="font-family:Times;font-weight:normal;font-style:normal;font-size:10px">500.00</text>
<path d="M77.805,28.263L77.805,36.263" style="fill:none;stroke:#000000;stroke-width:0.5" />
<path d="M391.99,28.263L391.99,36.263" style="fill:none;stroke:#000000;stroke-width:0.5" />
<path d="M706.18,28.263L706.18,36.263" style="fill:none;stroke:#000000;stroke-width:0.5" />
<path d="M140.64,32.263L140.64,36.263" style="fill:none;stroke:#000000;stroke-width:0.5" />
<path d="M203.48,32.263L203.48,36.263" style="fill:none;stroke:#000000;stroke-width:0.5" />
<path d="M266.32,32.263L266.32,36.263" style="fill:none;stroke:#000000;stroke-width:0.5" />
<path d="M329.15,32.263L329.15,36.263" style="fill:none;stroke:#000000;stroke-width:0.5" />
<path d="M454.83,32.263L454.83,36.263" style="fill:none;stroke:#000000;stroke-width:0.5" />
<path d="M517.66,32.263L517.66,36.263" style="fill:none;stroke:#000000;stroke-width:0.5" />
<path d="M580.5,32.263L580.5,36.263" style="fill:none;stroke:#000000;stroke-width:0.5" />
<path d="M643.34,32.263L643.34,36.263" style="fill:none;stroke:#000000;stroke-width:0.5" />
<path d="M77.805,36.263L720,36.263" style="fill:none;stroke:#000000;stroke-width:0.5" />
<g transform="rotate(90)">
<text x="152.55" y="11.555" transform="scale(1, -1)"
	style="font-family:Times;font-weight:normal;font-style:normal;font-size:12px">Number of trials (1000000 total)</text>
</g>
<text x="24.055" y="-92.586" transform="scale(1, -1)"
	style="font-family:Times;font-weight:normal;font-style:normal;font-size:10px">25000.00</text>
<text x="19.055" y="-244.51" transform="scale(1, -1)"
	style="font-family:Times;font-weight:normal;font-style:normal;font-size:10px">100000.00</text>
<text x="19.055" y="-396.44" transform="scale(1, -1)"
	style="font-family:Times;font-weight:normal;font-style:normal;font-size:10px">175000.00</text>
<path d="M64.055,95.792L72.055,95.792" style="fill:none;stroke:#000000;stroke-width:0.5" />
<path d="M64.055,247.72L72.055,247.72" style="fill:none;stroke:#000000;stroke-width:0.5" />
<path d="M64.055,399.65L72.055,399.65" style="fill:none;stroke:#000000;stroke-width:0.5" />
<path d="M68.055,171.75L72.055,171.75" style="fill:none;stroke:#000000;stroke-width:0.5" />
<path d="M68.055,323.68L72.055,323.68" style="fill:none;stroke:#000000;stroke-width:0.5" />
<path d="M72.055,45.151L72.055,416.58" style="fill:none;stroke:#000000;stroke-width:0.5" />
<path d="M77.805,416.58L106.71,59.378L110.48,70.436L111.74,62.451L115.51,51.98L116.76,81.782L118.02,77.591L120.53,102.32L121.79,69.052L123.05,55.438L124.3,59.125L125.56,48.698L128.07,66.82L129.33,83.708L130.59,52.002L131.84,58.482L133.1,55.341L134.36,48.577L135.61,63.19L138.13,48.569L139.39,59.532L140.64,85.72L141.9,48.601L143.16,45.36L144.41,60.251L145.67,101.27L146.93,49.586L148.18,52.697L149.44,56.888L150.7,57.028L151.95,61.379L153.21,52.711L154.47,50.339L155.72,70.485L156.98,71.749L158.24,49.093L159.49,51.534L160.75,54.514L162.01,59.495L163.26,53.118L164.52,52.26L165.78,49.28L167.03,65.516L168.29,54.386L169.55,66.488L170.8,50.993L172.06,56.009L173.32,54.283L174.57,56.084L175.83,51.39L177.09,49.128L178.34,85.376L179.6,72.085L180.86,53.153L182.11,51.328L183.37,57.731L184.63,58.95L185.88,56.005L187.14,52.827L188.4,59.021L189.65,55.997L190.91,56.597L192.17,56.003L193.42,50.882L194.68,54.962L195.94,58.892L197.2,56.368L198.45,54.551L199.71,56.321L200.97,53.649L202.22,54.312L203.48,54.51L204.74,50.459L205.99,51.95L207.25,57.85L208.51,58.681L209.76,53.264L211.02,53.568L212.28,57.423L213.53,55.154L214.79,51.941L216.05,50.846L217.3,54.781L218.56,58.42L219.82,55.47L221.07,55.49L222.33,54.881L223.59,55.778L224.84,55.821L226.1,50.374L227.36,50.852L228.61,52.659L229.87,57.52L231.13,53.177L232.38,52.083L233.64,51.151L234.9,53.817L236.15,52.28L237.41,52.497L238.67,50.167L239.92,52.012L241.18,55.069L242.44,52.189L243.69,49.746L244.95,51.06L246.21,55.582L247.46,53.335L248.72,50.844L249.98,50.675L251.24,51.686L252.49,51.879L253.75,51.156L255.01,49.744L256.26,51.166L257.52,52.681L258.78,51.676L260.03,49.875L261.29,49.873L262.55,51.239L263.8,50.91L265.06,49.845L266.32,49.586L267.57,50.829L268.83,50.114L270.09,51.314L271.34,49.701L272.6,49.527L273.86,49.875L275.11,50.24L276.37,49.345L277.63,49.01L278.88,49.126L280.14,50.933L281.4,49.569L282.65,48.887L283.91,49.051L285.17,49.33L286.42,49.733L287.68,49.278L288.94,48.856L290.19,48.893L291.45,49.239L292.71,48.984L293.96,48.07L295.22,48.178L296.48,48.775L297.73,49.077L298.99,48.322L300.25,48.429L301.5,48.265L302.76,48.38L304.02,48.143L305.28,47.566L306.53,47.702L307.79,48.23L309.05,48.55L310.3,48.002L311.56,47.594L312.82,48.01L314.07,48.018L315.33,47.617L316.59,47.311L317.84,47.359L319.1,47.775L320.36,47.738L321.61,47.457L322.87,47.299L324.13,47.505L325.38,47.515L326.64,47.321L327.9,47.017L329.15,47.167L330.41,47.301L331.67,47.234L332.92,46.924L334.18,46.857L335.44,46.964L336.69,46.885L337.95,46.979L339.21,46.746L340.46,46.806L341.72,46.821L342.98,46.863L344.23,46.539L345.49,46.588L346.75,46.671L348,46.843L349.26,46.59L350.52,46.466L351.77,46.478L353.03,46.571L354.29,46.517L355.54,46.407L356.8,46.255L358.06,46.476L359.31,46.507L360.57,46.3L361.83,46.178L363.09,46.255L364.34,46.257L365.6,46.296L366.86,46.17L368.11,46.138L369.37,46.197L370.63,46.124L371.88,46.053L373.14,46.041L374.4,45.933L375.65,46.018L376.91,46.134L378.17,45.864L379.42,45.943L380.68,45.949L381.94,45.964L383.19,45.956L384.45,45.889L385.71,45.844L386.96,45.911L388.22,45.899L389.48,45.816L390.73,45.783L391.99,45.85L393.25,45.798L394.5,45.759L395.76,45.684L397.02,45.698L398.27,45.704L399.53,45.694L400.79,45.715L402.04,45.646L403.3,45.64L404.56,45.676L405.81,45.571L407.07,45.573L408.33,45.575L409.58,45.646L410.84,45.605L412.1,45.53L413.35,45.494L414.61,45.54L415.87,45.557L417.13,45.522L418.38,45.51L419.64,45.449L420.9,45.486L422.15,45.467L423.41,45.457L424.67,45.421L425.92,45.447L427.18,45.465L428.44,45.447L429.69,45.413L430.95,45.439L432.21,45.451L433.46,45.427L434.72,45.382L435.98,45.342L437.23,45.403L438.49,45.403L439.75,45.358L441,45.362L442.26,45.38L443.52,45.328L444.77,45.366L446.03,45.352L447.29,45.358L448.54,45.342L449.8,45.33L451.06,45.313L452.31,45.352L453.57,45.305L454.83,45.342L456.08,45.307L457.34,45.309L458.6,45.287L459.85,45.279L461.11,45.287L462.37,45.267L463.62,45.285L464.88,45.267L466.14,45.277L467.39,45.293L468.65,45.251L469.91,45.259L471.17,45.279L472.42,45.261L473.68,45.255L474.94,45.249L476.19,45.251L477.45,45.234L478.71,45.253L479.96,45.224L481.22,45.253L482.48,45.234L483.73,45.218L484.99,45.222L486.25,45.224L487.5,45.236L488.76,45.228L490.02,45.206L491.27,45.206L492.53,45.238L493.79,45.22L495.04,45.206L496.3,45.19L497.56,45.218L498.81,45.2L500.07,45.188L501.33,45.208L502.58,45.228L503.84,45.184L505.1,45.2L506.35,45.2L507.61,45.186L508.87,45.208L510.12,45.176L511.38,45.206L512.64,45.19L513.89,45.184L515.15,45.188L516.41,45.184L517.66,45.186L518.92,45.194L520.18,45.178L521.43,45.172L522.69,45.188L523.95,45.184L525.2,45.174L526.46,45.178L527.72,45.182L528.98,45.178L530.23,45.19L531.49,45.168L532.75,45.18L534,45.17L535.26,45.161L536.52,45.166L537.77,45.164L539.03,45.172L540.29,45.176L541.54,45.17L542.8,45.157L544.06,45.164L545.31,45.172L546.57,45.166L547.83,45.164L549.08,45.159L550.34,45.164L551.6,45.157L552.85,45.155L554.11,45.157L555.37,45.172L556.62,45.159L557.88,45.161L559.14,45.168L560.39,45.157L561.65,45.151L562.91,45.157L564.16,45.157L565.42,45.161L566.68,45.157L567.93,45.159L569.19,45.159L570.45,45.159L571.7,45.157L572.96,45.161L574.22,45.155L575.47,45.159L576.73,45.161L577.99,45.153L579.24,45.159L580.5,45.161L581.76,45.157L583.02,45.155L584.27,45.155L585.53,45.155L586.79,45.151L588.04,45.157L589.3,45.153L590.56,45.155L591.81,45.155L593.07,45.153L594.33,45.153L595.58,45.155L596.84,45.151L598.1,45.153L600.61,45.151L601.87,45.153L603.12,45.153L604.38,45.153L609.41,45.153L610.66,45.151L611.92,45.151L613.18,45.151L614.43,45.157L615.69,45.151L619.46,45.151L620.72,45.153L621.97,45.153L624.49,45.153L625.74,45.153L629.51,45.151L633.28,45.151L634.54,45.151L640.83,45.151L645.85,45.153L648.37,45.151L649.62,45.151L652.14,45.151L653.39,45.153L660.93,45.153L663.45,45.153L679.78,45.151L687.32,45.151L688.58,45.151L691.09,45.151L702.41,45.151L720,45.151" style="fill:none;stroke:#0000FF" />
</g>
</svg>
