<?xml version="1.0"?>
<!-- Generated by SVGo and Plotinum VG -->
<svg width="720pt" height="432pt" viewBox="0 0 720 432"
	xmlns="http://www.w3.org/2000/svg"
	xmlns:xlink="http://www.w3.org/1999/xlink">
<g transform="scale(1, -1) translate(0, -432)">
<path d="M0,0L720,0L720,432L0,432Z" style="fill:#FFFFFF" />
<text x="358.5" y="-420.45" transform="scale(1, -1)"
	style="font-family:Times;font-weight:normal;font-style:normal;font-size:12px"> </text>
<text x="379.31" y="-3.8613" transform="scale(1, -1)"
	style="font-family:Times;font-weight:normal;font-style:normal;font-size:12px">Costs</text>
<text x="56.555" y="-18.634" transform="scale(1, -1)"
	style="font-family:Times;font-weight:normal;font-style:normal;font-size:10px">0.00</text>
<text x="370.61" y="-18.634" transform="scale(1, -1)"
	style="font-family:Times;font-weight:normal;font-style:normal;font-size:10px">250.00</text>
<text x="689.66" y="-18.634" transform="scale(1, -1)"
	style="font-family:Times;font-weight:normal;font-style:normal;font-size:10px">500.00</text>
<path d="M65.305,28.263L65.305,36.263" style="fill:none;stroke:#000000;stroke-width:0.5" />
<path d="M384.36,28.263L384.36,36.263" style="fill:none;stroke:#000000;stroke-width:0.5" />
<path d="M703.41,28.263L703.41,36.263" style="fill:none;stroke:#000000;stroke-width:0.5" />
<path d="M129.12,32.263L129.12,36.263" style="fill:none;stroke:#000000;stroke-width:0.5" />
<path d="M192.93,32.263L192.93,36.263" style="fill:none;stroke:#000000;stroke-width:0.5" />
<path d="M256.74,32.263L256.74,36.263" style="fill:none;stroke:#000000;stroke-width:0.5" />
<path d="M320.55,32.263L320.55,36.263" style="fill:none;stroke:#000000;stroke-width:0.5" />
<path d="M448.17,32.263L448.17,36.263" style="fill:none;stroke:#000000;stroke-width:0.5" />
<path d="M511.98,32.263L511.98,36.263" style="fill:none;stroke:#000000;stroke-width:0.5" />
<path d="M575.79,32.263L575.79,36.263" style="fill:none;stroke:#000000;stroke-width:0.5" />
<path d="M639.6,32.263L639.6,36.263" style="fill:none;stroke:#000000;stroke-width:0.5" />
<path d="M65.305,36.263L720,36.263" style="fill:none;stroke:#000000;stroke-width:0.5" />
<g transform="rotate(90)">
<text x="152.55" y="11.555" transform="scale(1, -1)"
	style="font-family:Times;font-weight:normal;font-style:normal;font-size:12px">Number of trials (1000000 total)</text>
</g>
<text x="24.055" y="-111.8" transform="scale(1, -1)"
	style="font-family:Times;font-weight:normal;font-style:normal;font-size:10px">40000</text>
<text x="19.055" y="-251.51" transform="scale(1, -1)"
	style="font-family:Times;font-weight:normal;font-style:normal;font-size:10px">120000</text>
<text x="19.055" y="-391.23" transform="scale(1, -1)"
	style="font-family:Times;font-weight:normal;font-style:normal;font-size:10px">200000</text>
<path d="M51.555,115.01L59.555,115.01" style="fill:none;stroke:#000000;stroke-width:0.5" />
<path d="M51.555,254.72L59.555,254.72" style="fill:none;stroke:#000000;stroke-width:0.5" />
<path d="M51.555,394.43L59.555,394.43" style="fill:none;stroke:#000000;stroke-width:0.5" />
<path d="M55.555,184.86L59.555,184.86" style="fill:none;stroke:#000000;stroke-width:0.5" />
<path d="M55.555,324.58L59.555,324.58" style="fill:none;stroke:#000000;stroke-width:0.5" />
<path d="M59.555,45.151L59.555,416.58" style="fill:none;stroke:#000000;stroke-width:0.5" />
<path d="M65.305,416.58L93.381,62.905L94.657,63.089L95.934,52.457L98.486,73.504L99.762,48.518L101.04,52.24L102.31,59.425L104.87,62.436L106.14,51.906L107.42,55.742L108.7,77.16L109.97,58.878L111.25,48.625L112.52,62.808L113.8,52.217L115.08,87.483L116.35,65.52L117.63,48.573L118.91,66.171L120.18,55.714L121.46,77.112L122.73,45.85L124.01,59.481L125.29,45.497L126.56,46.487L127.84,53.347L129.12,56.915L130.39,53.34L131.67,46.304L132.94,77.844L134.22,64.489L135.5,54.683L136.77,50.852L138.05,56.138L139.32,57.895L140.6,54.861L141.88,56.592L143.15,70.729L144.43,67.287L145.71,64.079L146.98,48.464L148.26,52.188L149.53,51.678L150.81,49.799L152.09,52.336L153.36,49.406L154.64,51.112L155.92,50.459L157.19,51.163L158.47,70.834L159.74,68.263L161.02,51.975L162.3,53.361L163.57,52.96L164.85,52.21L166.13,53.99L167.4,69.36L168.68,70.813L169.95,51.898L171.23,54.124L172.51,53.932L173.78,53.373L175.06,52.306L176.33,53.366L177.61,53.386L178.89,52.165L180.16,52.788L181.44,50.677L182.72,54.292L183.99,53.634L185.27,52.413L186.54,54.266L187.82,54.489L189.1,55.714L190.37,51.798L191.65,53.169L192.93,53.945L194.2,52.107L195.48,53.609L196.75,53.456L198.03,52.673L199.31,52.165L200.58,52.778L201.86,54.944L203.14,51.816L204.41,50.743L205.69,50.509L206.96,51.608L208.24,53.489L209.52,53.052L210.79,53.173L212.07,54.028L213.34,52.497L214.62,52.387L215.9,51.648L217.17,52.245L218.45,53.005L219.73,50.651L221,50.609L222.28,51.73L223.55,51.894L224.83,50.832L226.11,50.777L227.38,51.423L228.66,49.526L229.94,49.589L231.21,49.804L232.49,50.226L233.76,49.634L235.04,50.789L236.32,52.214L237.59,51.529L238.87,50.881L240.15,49.872L241.42,49.549L242.7,49.697L243.97,49.289L245.25,50.118L246.53,50.611L247.8,50.019L249.08,49.175L250.36,48.737L251.63,48.922L252.91,49.112L254.18,48.487L255.46,48.517L256.74,48.564L258.01,48.611L259.29,48.457L260.56,49.413L261.84,50.13L263.12,49.186L264.39,48.58L265.67,48.438L266.95,48.361L268.22,48.506L269.5,48.302L270.77,48.99L272.05,48.063L273.33,47.993L274.6,48.024L275.88,48.087L277.16,48.007L278.43,47.827L279.71,47.754L280.98,47.799L282.26,47.734L283.54,47.579L284.81,47.582L286.09,47.862L287.37,47.621L288.64,47.694L289.92,47.65L291.19,47.479L292.47,47.54L293.75,47.196L295.02,47.416L296.3,47.275L297.57,47.064L298.85,47.228L300.13,47.053L301.4,46.992L302.68,47.018L303.96,47.2L305.23,46.94L306.51,46.868L307.78,46.856L309.06,46.779L310.34,46.741L311.61,46.938L312.89,46.753L314.17,46.755L315.44,46.816L316.72,46.723L317.99,46.711L319.27,46.526L320.55,46.535L321.82,46.372L323.1,46.351L324.38,46.376L325.65,46.411L326.93,46.433L328.2,46.379L329.48,46.377L330.76,46.311L332.03,46.257L333.31,46.222L334.58,46.129L335.86,46.257L337.14,46.114L338.41,46.21L339.69,46.231L340.97,46.154L342.24,46.159L343.52,46.053L344.79,46.023L346.07,45.969L347.35,45.958L348.62,46.023L349.9,45.942L351.18,45.988L352.45,45.859L353.73,45.848L355,45.89L356.28,45.859L357.56,45.773L358.83,45.766L360.11,45.813L361.39,45.808L362.66,45.768L363.94,45.796L365.21,45.715L366.49,45.777L367.77,45.736L369.04,45.752L370.32,45.677L371.59,45.625L372.87,45.63L374.15,45.665L375.42,45.625L376.7,45.576L377.98,45.602L379.25,45.579L380.53,45.618L381.8,45.583L383.08,45.564L384.36,45.499L385.63,45.53L386.91,45.551L388.19,45.483L389.46,45.522L390.74,45.48L392.01,45.453L393.29,45.481L394.57,45.511L395.84,45.44L397.12,45.441L398.4,45.45L399.67,45.448L400.95,45.476L402.22,45.385L403.5,45.41L404.78,45.415L406.05,45.417L407.33,45.406L408.6,45.412L409.88,45.373L411.16,45.368L412.43,45.364L413.71,45.349L414.99,45.371L416.26,45.347L417.54,45.307L418.81,45.338L420.09,45.298L421.37,45.312L422.64,45.307L423.92,45.302L425.2,45.312L426.47,45.303L427.75,45.27L429.02,45.284L430.3,45.265L431.58,45.289L432.85,45.274L434.13,45.275L435.41,45.303L436.68,45.265L437.96,45.288L439.23,45.281L440.51,45.239L441.79,45.263L443.06,45.265L444.34,45.239L445.62,45.258L446.89,45.253L448.17,45.246L449.44,45.235L450.72,45.233L452,45.237L453.27,45.225L454.55,45.237L455.82,45.212L457.1,45.221L458.38,45.244L459.65,45.219L460.93,45.233L462.21,45.212L463.48,45.207L464.76,45.218L466.03,45.206L467.31,45.207L468.59,45.202L469.86,45.218L471.14,45.2L472.42,45.195L473.69,45.19L474.97,45.185L476.24,45.192L477.52,45.185L478.8,45.181L480.07,45.192L481.35,45.185L482.63,45.181L483.9,45.181L485.18,45.202L486.45,45.195L487.73,45.195L489.01,45.179L490.28,45.206L491.56,45.179L492.83,45.179L494.11,45.176L495.39,45.188L496.66,45.176L497.94,45.181L499.22,45.179L500.49,45.181L501.77,45.164L503.04,45.178L504.32,45.167L505.6,45.171L506.87,45.179L508.15,45.162L509.43,45.178L510.7,45.167L511.98,45.176L513.25,45.164L514.53,45.172L515.81,45.172L517.08,45.169L518.36,45.162L519.64,45.155L520.91,45.176L522.19,45.169L523.46,45.16L524.74,45.16L526.02,45.164L527.29,45.157L528.57,45.155L529.84,45.162L531.12,45.158L532.4,45.158L533.67,45.157L534.95,45.164L536.23,45.158L537.5,45.151L538.78,45.155L540.05,45.16L541.33,45.153L542.61,45.157L543.88,45.158L545.16,45.16L546.44,45.155L547.71,45.155L548.99,45.155L550.26,45.151L551.54,45.158L552.82,45.151L554.09,45.155L555.37,45.158L556.65,45.155L557.92,45.153L559.2,45.158L560.47,45.151L561.75,45.155L564.3,45.153L565.58,45.157L566.85,45.153L568.13,45.155L569.41,45.157L570.68,45.151L571.96,45.155L573.24,45.153L574.51,45.153L578.34,45.153L579.62,45.151L582.17,45.151L586,45.155L587.27,45.151L588.55,45.155L589.83,45.151L591.1,45.153L593.66,45.151L596.21,45.153L597.48,45.151L598.76,45.153L605.14,45.151L606.42,45.151L611.52,45.151L616.63,45.153L620.46,45.151L628.11,45.151L629.39,45.151L630.67,45.153L634.49,45.153L648.53,45.151L649.81,45.153L651.08,45.151L665.12,45.151L667.68,45.151L686.82,45.151L688.09,45.153L708.51,45.151L720,45.151" style="fill:none;stroke:#0000FF" />
</g>
</svg>
