<?xml version="1.0"?>
<!-- Generated by SVGo and Plotinum VG -->
<svg width="720pt" height="432pt" viewBox="0 0 720 432"
	xmlns="http://www.w3.org/2000/svg"
	xmlns:xlink="http://www.w3.org/1999/xlink">
<g transform="scale(1, -1) translate(0, -432)">
<path d="M0,0L720,0L720,432L0,432Z" style="fill:#FFFFFF" />
<text x="358.5" y="-420.45" transform="scale(1, -1)"
	style="font-family:Times;font-weight:normal;font-style:normal;font-size:12px"> </text>
<text x="385.56" y="-3.8613" transform="scale(1, -1)"
	style="font-family:Times;font-weight:normal;font-style:normal;font-size:12px">Costs</text>
<text x="75.305" y="-18.634" transform="scale(1, -1)"
	style="font-family:Times;font-weight:normal;font-style:normal;font-size:10px">0</text>
<text x="332.43" y="-18.634" transform="scale(1, -1)"
	style="font-family:Times;font-weight:normal;font-style:normal;font-size:10px">200</text>
<text x="594.55" y="-18.634" transform="scale(1, -1)"
	style="font-family:Times;font-weight:normal;font-style:normal;font-size:10px">400</text>
<path d="M77.805,28.263L77.805,36.263" style="fill:none;stroke:#000000;stroke-width:0.5" />
<path d="M339.93,28.263L339.93,36.263" style="fill:none;stroke:#000000;stroke-width:0.5" />
<path d="M602.05,28.263L602.05,36.263" style="fill:none;stroke:#000000;stroke-width:0.5" />
<path d="M208.86,32.263L208.86,36.263" style="fill:none;stroke:#000000;stroke-width:0.5" />
<path d="M470.99,32.263L470.99,36.263" style="fill:none;stroke:#000000;stroke-width:0.5" />
<path d="M77.805,36.263L720,36.263" style="fill:none;stroke:#000000;stroke-width:0.5" />
<g transform="rotate(90)">
<text x="152.55" y="11.555" transform="scale(1, -1)"
	style="font-family:Times;font-weight:normal;font-style:normal;font-size:12px">Number of trials (1000000 total)</text>
</g>
<text x="24.055" y="-89.088" transform="scale(1, -1)"
	style="font-family:Times;font-weight:normal;font-style:normal;font-size:10px">25000.00</text>
<text x="19.055" y="-230.52" transform="scale(1, -1)"
	style="font-family:Times;font-weight:normal;font-style:normal;font-size:10px">100000.00</text>
<text x="19.055" y="-371.96" transform="scale(1, -1)"
	style="font-family:Times;font-weight:normal;font-style:normal;font-size:10px">175000.00</text>
<path d="M64.055,92.294L72.055,92.294" style="fill:none;stroke:#000000;stroke-width:0.5" />
<path d="M64.055,233.73L72.055,233.73" style="fill:none;stroke:#000000;stroke-width:0.5" />
<path d="M64.055,375.16L72.055,375.16" style="fill:none;stroke:#000000;stroke-width:0.5" />
<path d="M68.055,163.01L72.055,163.01" style="fill:none;stroke:#000000;stroke-width:0.5" />
<path d="M68.055,304.44L72.055,304.44" style="fill:none;stroke:#000000;stroke-width:0.5" />
<path d="M72.055,45.151L72.055,416.58" style="fill:none;stroke:#000000;stroke-width:0.5" />
<path d="M77.805,416.58L107.95,55.463L111.88,66.353L113.19,74.302L117.12,55.538L118.43,73.051L119.74,66.48L121.05,48.533L122.37,83.404L123.68,62.146L124.99,59.38L126.3,51.919L127.61,55.593L128.92,52.027L130.23,55.695L131.54,83.987L132.85,48.578L134.16,48.642L135.47,96.856L136.78,55.553L138.09,84.362L140.71,55.48L142.02,59.436L143.33,96.509L145.96,45.476L147.27,74.807L148.58,67.232L149.89,56.196L151.2,71.837L152.51,58.595L153.82,52.495L155.13,58.071L156.44,54.561L157.75,50.037L159.06,59.15L160.37,52.016L161.68,48.998L162.99,49.953L164.3,50.296L165.62,55.51L166.93,52.093L168.24,50.126L169.55,51.535L170.86,60.181L172.17,53.894L173.48,60.794L174.79,49.67L176.1,55.961L177.41,57.209L178.72,55.968L180.03,54.85L181.34,54.252L182.65,73.121L183.96,63.885L185.27,56.306L186.58,53.371L187.9,58.216L189.21,59.372L190.52,54.878L191.83,58.284L193.14,56.168L194.45,55.269L195.76,60.117L197.07,56.643L198.38,52.757L199.69,53.388L201,61.38L202.31,53.556L203.62,55.736L204.93,55.638L206.24,54.822L207.55,55.167L208.86,56.112L210.18,52.404L211.49,53.319L212.8,57.054L214.11,53.945L215.42,52.37L216.73,55.127L218.04,54.722L219.35,52.151L220.66,52.832L221.97,52.157L223.28,52.602L224.59,53.541L225.9,51.902L227.21,51.836L228.52,53.017L229.83,52.255L231.15,52.879L232.46,50.675L233.77,51.463L235.08,50.671L236.39,53.541L237.7,51.144L239.01,51.075L240.32,52.21L241.63,52.087L242.94,52.687L244.25,51.212L245.56,50.98L246.87,51.463L248.18,53.277L249.49,51.572L250.8,50.158L252.11,51.523L253.43,51.546L254.74,51.435L256.05,51.159L257.36,51.084L258.67,50.726L259.98,50.218L261.29,50.831L262.6,49.879L263.91,49.924L265.22,50.228L266.53,49.998L267.84,49.432L269.15,49.342L270.46,49.911L271.77,49.442L273.08,49.426L274.4,49.232L275.71,49.308L277.02,49.189L278.33,49.417L279.64,48.704L280.95,48.7L282.26,49.304L283.57,48.834L284.88,48.682L286.19,48.685L287.5,48.589L288.81,48.897L290.12,48.514L291.43,48.259L292.74,48.225L294.05,48.499L295.36,48.144L296.68,48.191L297.99,47.969L299.3,48.095L300.61,48.129L301.92,48.223L303.23,47.576L304.54,47.686L305.85,47.876L307.16,47.81L308.47,47.803L309.78,47.55L311.09,47.592L312.4,47.543L313.71,47.631L315.02,47.443L316.33,47.311L317.64,47.416L318.96,47.354L320.27,47.16L321.58,47.077L322.89,47.128L324.2,47.062L325.51,46.932L326.82,46.941L328.13,46.941L329.44,46.928L330.75,46.899L332.06,46.813L333.37,46.749L334.68,46.679L335.99,46.792L337.3,46.615L338.61,46.592L339.93,46.536L341.24,46.494L342.55,46.494L343.86,46.519L345.17,46.371L346.48,46.383L347.79,46.462L349.1,46.373L350.41,46.249L351.72,46.279L353.03,46.194L354.34,46.287L355.65,46.19L356.96,46.151L358.27,46.175L359.58,46.121L360.89,46.155L362.21,46.002L363.52,46.204L364.83,45.97L366.14,46.006L367.45,45.957L368.76,46.019L370.07,45.987L371.38,45.97L372.69,45.962L374,45.866L375.31,45.898L376.62,45.981L377.93,45.787L379.24,45.787L380.55,45.828L381.86,45.747L383.18,45.745L384.49,45.798L385.8,45.713L387.11,45.747L388.42,45.672L389.73,45.651L391.04,45.685L392.35,45.6L393.66,45.608L394.97,45.619L396.28,45.591L397.59,45.591L398.9,45.623L400.21,45.553L401.52,45.606L402.83,45.523L404.14,45.527L405.46,45.517L406.77,45.485L408.08,45.53L409.39,45.521L410.7,45.495L412.01,45.47L413.32,45.449L414.63,45.472L415.94,45.446L417.25,45.476L418.56,45.406L419.87,45.496L421.18,45.419L422.49,45.453L423.8,45.4L425.11,45.41L426.42,45.383L427.74,45.408L429.05,45.404L430.36,45.364L431.67,45.366L432.98,45.355L434.29,45.342L435.6,45.325L436.91,45.304L438.22,45.289L439.53,45.323L440.84,45.314L442.15,45.34L443.46,45.336L444.77,45.315L446.08,45.351L447.39,45.298L448.71,45.321L450.02,45.293L451.33,45.31L452.64,45.272L453.95,45.28L455.26,45.293L456.57,45.27L457.88,45.242L459.19,45.291L460.5,45.265L461.81,45.265L463.12,45.24L464.43,45.236L465.74,45.27L467.05,45.278L468.36,45.225L469.67,45.234L470.99,45.242L472.3,45.206L473.61,45.208L474.92,45.236L476.23,45.229L477.54,45.223L478.85,45.215L480.16,45.229L481.47,45.195L482.78,45.227L484.09,45.193L485.4,45.195L486.71,45.223L488.02,45.187L489.33,45.206L490.64,45.206L491.96,45.197L493.27,45.199L494.58,45.212L495.89,45.176L497.2,45.202L498.51,45.18L499.82,45.18L501.13,45.187L502.44,45.191L503.75,45.172L505.06,45.204L506.37,45.18L507.68,45.18L508.99,45.176L510.3,45.168L511.61,45.178L512.92,45.174L514.24,45.174L515.55,45.172L516.86,45.165L518.17,45.17L519.48,45.174L520.79,45.178L522.1,45.18L523.41,45.168L524.72,45.168L526.03,45.166L527.34,45.172L528.65,45.17L529.96,45.17L531.27,45.161L532.58,45.163L533.89,45.166L535.21,45.174L536.52,45.163L537.83,45.161L539.14,45.168L540.45,45.161L541.76,45.159L543.07,45.161L544.38,45.168L545.69,45.166L547,45.163L548.31,45.153L549.62,45.151L550.93,45.165L552.24,45.157L553.55,45.157L554.86,45.166L556.17,45.151L557.49,45.166L558.8,45.163L560.11,45.155L561.42,45.159L562.73,45.157L564.04,45.161L565.35,45.155L566.66,45.151L567.97,45.163L569.28,45.153L570.59,45.157L571.9,45.153L573.21,45.155L574.52,45.157L575.83,45.155L578.45,45.157L581.08,45.151L582.39,45.151L583.7,45.161L585.01,45.151L586.32,45.151L587.63,45.157L588.94,45.155L590.25,45.153L592.87,45.151L594.18,45.153L595.49,45.151L596.8,45.151L598.11,45.151L599.42,45.151L600.74,45.153L604.67,45.153L605.98,45.151L607.29,45.155L608.6,45.151L609.91,45.155L611.22,45.151L619.08,45.151L621.7,45.151L624.33,45.151L628.26,45.151L632.19,45.151L640.05,45.153L645.3,45.151L646.61,45.151L651.85,45.151L685.92,45.151L688.55,45.151L693.79,45.151L720,45.151" style="fill:none;stroke:#0000FF" />
</g>
</svg>
