<?xml version="1.0"?>
<!-- Generated by SVGo and Plotinum VG -->
<svg width="720pt" height="432pt" viewBox="0 0 720 432"
	xmlns="http://www.w3.org/2000/svg"
	xmlns:xlink="http://www.w3.org/1999/xlink">
<g transform="scale(1, -1) translate(0, -432)">
<path d="M0,0L720,0L720,432L0,432Z" style="fill:#FFFFFF" />
<text x="358.5" y="-420.45" transform="scale(1, -1)"
	style="font-family:Times;font-weight:normal;font-style:normal;font-size:12px"> </text>
<text x="385.56" y="-3.8613" transform="scale(1, -1)"
	style="font-family:Times;font-weight:normal;font-style:normal;font-size:12px">Costs</text>
<text x="75.305" y="-18.634" transform="scale(1, -1)"
	style="font-family:Times;font-weight:normal;font-style:normal;font-size:10px">0</text>
<text x="337.33" y="-18.634" transform="scale(1, -1)"
	style="font-family:Times;font-weight:normal;font-style:normal;font-size:10px">200</text>
<text x="604.35" y="-18.634" transform="scale(1, -1)"
	style="font-family:Times;font-weight:normal;font-style:normal;font-size:10px">400</text>
<path d="M77.805,28.263L77.805,36.263" style="fill:none;stroke:#000000;stroke-width:0.5" />
<path d="M344.83,28.263L344.83,36.263" style="fill:none;stroke:#000000;stroke-width:0.5" />
<path d="M611.85,28.263L611.85,36.263" style="fill:none;stroke:#000000;stroke-width:0.5" />
<path d="M211.32,32.263L211.32,36.263" style="fill:none;stroke:#000000;stroke-width:0.5" />
<path d="M478.34,32.263L478.34,36.263" style="fill:none;stroke:#000000;stroke-width:0.5" />
<path d="M77.805,36.263L720,36.263" style="fill:none;stroke:#000000;stroke-width:0.5" />
<g transform="rotate(90)">
<text x="152.55" y="11.555" transform="scale(1, -1)"
	style="font-family:Times;font-weight:normal;font-style:normal;font-size:12px">Number of trials (1000000 total)</text>
</g>
<text x="24.055" y="-81.184" transform="scale(1, -1)"
	style="font-family:Times;font-weight:normal;font-style:normal;font-size:10px">25000.00</text>
<text x="19.055" y="-238.14" transform="scale(1, -1)"
	style="font-family:Times;font-weight:normal;font-style:normal;font-size:10px">125000.00</text>
<text x="19.055" y="-395.1" transform="scale(1, -1)"
	style="font-family:Times;font-weight:normal;font-style:normal;font-size:10px">225000.00</text>
<path d="M64.055,84.389L72.055,84.389" style="fill:none;stroke:#000000;stroke-width:0.5" />
<path d="M64.055,241.35L72.055,241.35" style="fill:none;stroke:#000000;stroke-width:0.5" />
<path d="M64.055,398.31L72.055,398.31" style="fill:none;stroke:#000000;stroke-width:0.5" />
<path d="M68.055,162.87L72.055,162.87" style="fill:none;stroke:#000000;stroke-width:0.5" />
<path d="M68.055,319.83L72.055,319.83" style="fill:none;stroke:#000000;stroke-width:0.5" />
<path d="M72.055,45.151L72.055,416.58" style="fill:none;stroke:#000000;stroke-width:0.5" />
<path d="M77.805,416.58L107.18,55.69L108.51,55.938L109.85,56.011L112.52,88.332L113.85,48.699L115.19,66.086L116.52,59.265L119.19,55.457L120.53,55.569L121.86,52.145L123.2,73.594L124.53,58.843L127.2,55.63L128.54,51.789L129.87,80.613L131.21,62.312L132.54,55.481L133.88,84.347L135.22,52.293L136.55,77.455L137.89,45.322L139.22,63.344L140.56,45.431L141.89,46.358L143.23,56.784L144.56,61.462L145.9,53.319L147.23,47.159L148.57,60.301L149.9,76.554L151.24,58.793L152.57,46.955L153.91,55.564L155.24,54.903L156.58,57.959L157.91,53.214L159.25,59.755L160.58,73.738L161.92,64.114L163.25,48.851L164.59,52.754L165.92,51.799L167.26,51.018L168.59,54.985L169.93,49.521L171.26,53.057L172.6,50.059L173.93,52.456L175.27,52.177L176.6,50.943L177.94,51.02L179.27,53.646L180.61,56.321L181.94,52.205L183.28,53.023L184.61,64.128L185.95,65.445L187.28,52.141L188.62,54.649L189.96,52.973L191.29,54.242L192.63,53.894L193.96,51.684L195.3,56.025L196.63,53.288L197.97,52.392L199.3,51.582L200.64,52.492L201.97,53.553L203.31,52.877L204.64,51.943L205.98,53.935L207.31,52.944L208.65,51.489L209.98,51.579L211.32,51.816L212.65,52.565L213.99,51.631L215.32,53.012L216.66,52.786L217.99,52.025L219.33,51.648L220.66,52.086L222,50.767L223.33,50.697L224.67,48.903L226,50.383L227.34,51.276L228.67,50.257L230.01,50.295L231.34,50.995L232.68,51.627L234.01,50.538L235.35,49.348L236.68,50.463L238.02,50.879L239.35,50.49L240.69,50.389L242.03,50.653L243.36,49.838L244.7,50.179L246.03,49.044L247.37,49.022L248.7,48.242L250.04,48.76L251.37,49.171L252.71,49.124L254.04,48.578L255.38,48.648L256.71,49.465L258.05,49.587L259.38,48.418L260.72,48.465L262.05,48.713L263.39,48.824L264.72,48.598L266.06,48.424L267.39,49.102L268.73,49.256L270.06,48.356L271.4,47.915L272.73,47.923L274.07,47.967L275.4,47.849L276.74,47.716L278.07,47.762L279.41,47.755L280.74,47.558L282.08,47.597L283.41,47.564L284.75,47.333L286.08,47.512L287.42,47.503L288.75,47.407L290.09,47.369L291.42,47.314L292.76,47.565L294.1,47.228L295.43,47.129L296.77,47.016L298.1,47.143L299.44,46.997L300.77,47.016L302.11,46.823L303.44,46.991L304.78,46.798L306.11,46.723L307.45,46.638L308.78,46.674L310.12,46.74L311.45,46.617L312.79,46.578L314.12,46.614L315.46,46.438L316.79,46.555L318.13,46.511L319.46,46.369L320.8,46.498L322.13,46.453L323.47,46.507L324.8,46.354L326.14,46.307L327.47,46.302L328.81,46.135L330.14,46.115L331.48,46.079L332.81,46.095L334.15,46.132L335.48,46.135L336.82,46.038L338.15,46.038L339.49,46.004L340.82,46.066L342.16,45.968L343.49,45.952L344.83,45.9L346.16,45.903L347.5,45.913L348.84,45.917L350.17,45.898L351.51,45.803L352.84,45.8L354.18,45.789L355.51,45.749L356.85,45.682L358.18,45.774L359.52,45.738L360.85,45.687L362.19,45.677L363.52,45.625L364.86,45.677L366.19,45.605L367.53,45.619L368.86,45.649L370.2,45.611L371.53,45.586L372.87,45.596L374.2,45.559L375.54,45.58L376.87,45.541L378.21,45.494L379.54,45.514L380.88,45.487L382.21,45.53L383.55,45.498L384.88,45.475L386.22,45.487L387.55,45.445L388.89,45.461L390.22,45.453L391.56,45.418L392.89,45.423L394.23,45.399L395.56,45.421L396.9,45.396L398.23,45.407L399.57,45.374L400.91,45.388L402.24,45.379L403.58,45.326L404.91,45.349L406.25,45.349L407.58,45.354L408.92,45.351L410.25,45.327L411.59,45.31L412.92,45.304L414.26,45.3L415.59,45.302L416.93,45.305L418.26,45.296L419.6,45.302L420.93,45.289L422.27,45.282L423.6,45.279L424.94,45.288L426.27,45.247L427.61,45.282L428.94,45.252L430.28,45.255L431.61,45.246L432.95,45.257L434.28,45.238L435.62,45.25L436.95,45.217L438.29,45.249L439.62,45.241L440.96,45.222L442.29,45.225L443.63,45.228L444.96,45.219L446.3,45.216L447.63,45.239L448.97,45.216L450.3,45.213L451.64,45.22L452.97,45.203L454.31,45.222L455.65,45.195L456.98,45.206L458.32,45.191L459.65,45.205L460.99,45.197L462.32,45.198L463.66,45.192L464.99,45.192L466.33,45.198L467.66,45.192L469,45.197L470.33,45.191L471.67,45.18L473,45.186L474.34,45.189L475.67,45.181L477.01,45.183L478.34,45.172L479.68,45.189L481.01,45.175L482.35,45.172L483.68,45.173L485.02,45.184L486.35,45.17L487.69,45.17L489.02,45.169L490.36,45.165L491.69,45.17L493.03,45.17L494.36,45.184L495.7,45.175L497.03,45.172L498.37,45.173L499.7,45.167L501.04,45.162L502.37,45.173L503.71,45.17L505.04,45.172L506.38,45.164L507.72,45.169L509.05,45.172L510.39,45.165L511.72,45.161L513.06,45.158L514.39,45.156L515.73,45.17L517.06,45.164L518.4,45.158L519.73,45.156L521.07,45.159L522.4,45.161L523.74,45.159L525.07,45.158L526.41,45.155L527.74,45.158L529.08,45.164L530.41,45.155L531.75,45.155L533.08,45.164L534.42,45.161L535.75,45.159L537.09,45.159L538.42,45.159L539.76,45.153L542.43,45.153L543.76,45.155L546.43,45.156L547.77,45.156L549.1,45.155L550.44,45.153L551.77,45.156L553.11,45.155L554.44,45.151L555.78,45.153L557.11,45.153L559.78,45.155L561.12,45.153L563.79,45.151L565.13,45.153L566.46,45.155L567.8,45.151L569.13,45.153L570.47,45.155L571.8,45.155L574.47,45.153L577.14,45.151L578.48,45.151L579.81,45.155L583.82,45.151L585.15,45.153L586.49,45.153L587.82,45.153L599.84,45.151L605.18,45.153L607.85,45.151L611.85,45.151L617.2,45.151L621.2,45.151L623.87,45.151L626.54,45.151L627.88,45.151L638.56,45.151L649.24,45.151L709.32,45.151L720,45.151" style="fill:none;stroke:#0000FF" />
</g>
</svg>
