<?xml version="1.0"?>
<!-- Generated by SVGo and Plotinum VG -->
<svg width="720pt" height="432pt" viewBox="0 0 720 432"
	xmlns="http://www.w3.org/2000/svg"
	xmlns:xlink="http://www.w3.org/1999/xlink">
<g transform="scale(1, -1) translate(0, -432)">
<path d="M0,0L720,0L720,432L0,432Z" style="fill:#FFFFFF" />
<text x="358.5" y="-420.45" transform="scale(1, -1)"
	style="font-family:Times;font-weight:normal;font-style:normal;font-size:12px"> </text>
<text x="379.31" y="-3.8613" transform="scale(1, -1)"
	style="font-family:Times;font-weight:normal;font-style:normal;font-size:12px">Costs</text>
<text x="56.555" y="-18.634" transform="scale(1, -1)"
	style="font-family:Times;font-weight:normal;font-style:normal;font-size:10px">0.00</text>
<text x="333.27" y="-18.634" transform="scale(1, -1)"
	style="font-family:Times;font-weight:normal;font-style:normal;font-size:10px">250.00</text>
<text x="614.98" y="-18.634" transform="scale(1, -1)"
	style="font-family:Times;font-weight:normal;font-style:normal;font-size:10px">500.00</text>
<path d="M65.305,28.263L65.305,36.263" style="fill:none;stroke:#000000;stroke-width:0.5" />
<path d="M347.02,28.263L347.02,36.263" style="fill:none;stroke:#000000;stroke-width:0.5" />
<path d="M628.73,28.263L628.73,36.263" style="fill:none;stroke:#000000;stroke-width:0.5" />
<path d="M121.65,32.263L121.65,36.263" style="fill:none;stroke:#000000;stroke-width:0.5" />
<path d="M177.99,32.263L177.99,36.263" style="fill:none;stroke:#000000;stroke-width:0.5" />
<path d="M234.33,32.263L234.33,36.263" style="fill:none;stroke:#000000;stroke-width:0.5" />
<path d="M290.67,32.263L290.67,36.263" style="fill:none;stroke:#000000;stroke-width:0.5" />
<path d="M403.36,32.263L403.36,36.263" style="fill:none;stroke:#000000;stroke-width:0.5" />
<path d="M459.7,32.263L459.7,36.263" style="fill:none;stroke:#000000;stroke-width:0.5" />
<path d="M516.04,32.263L516.04,36.263" style="fill:none;stroke:#000000;stroke-width:0.5" />
<path d="M572.38,32.263L572.38,36.263" style="fill:none;stroke:#000000;stroke-width:0.5" />
<path d="M685.07,32.263L685.07,36.263" style="fill:none;stroke:#000000;stroke-width:0.5" />
<path d="M65.305,36.263L720,36.263" style="fill:none;stroke:#000000;stroke-width:0.5" />
<g transform="rotate(90)">
<text x="152.55" y="11.555" transform="scale(1, -1)"
	style="font-family:Times;font-weight:normal;font-style:normal;font-size:12px">Number of trials (1000000 total)</text>
</g>
<text x="24.055" y="-107.97" transform="scale(1, -1)"
	style="font-family:Times;font-weight:normal;font-style:normal;font-size:10px">20000</text>
<text x="24.055" y="-240.04" transform="scale(1, -1)"
	style="font-family:Times;font-weight:normal;font-style:normal;font-size:10px">60000</text>
<text x="19.055" y="-372.1" transform="scale(1, -1)"
	style="font-family:Times;font-weight:normal;font-style:normal;font-size:10px">100000</text>
<path d="M51.555,111.18L59.555,111.18" style="fill:none;stroke:#000000;stroke-width:0.5" />
<path d="M51.555,243.24L59.555,243.24" style="fill:none;stroke:#000000;stroke-width:0.5" />
<path d="M51.555,375.31L59.555,375.31" style="fill:none;stroke:#000000;stroke-width:0.5" />
<path d="M55.555,78.164L59.555,78.164" style="fill:none;stroke:#000000;stroke-width:0.5" />
<path d="M55.555,144.2L59.555,144.2" style="fill:none;stroke:#000000;stroke-width:0.5" />
<path d="M55.555,177.21L59.555,177.21" style="fill:none;stroke:#000000;stroke-width:0.5" />
<path d="M55.555,210.23L59.555,210.23" style="fill:none;stroke:#000000;stroke-width:0.5" />
<path d="M55.555,276.26L59.555,276.26" style="fill:none;stroke:#000000;stroke-width:0.5" />
<path d="M55.555,309.28L59.555,309.28" style="fill:none;stroke:#000000;stroke-width:0.5" />
<path d="M55.555,342.29L59.555,342.29" style="fill:none;stroke:#000000;stroke-width:0.5" />
<path d="M55.555,408.32L59.555,408.32" style="fill:none;stroke:#000000;stroke-width:0.5" />
<path d="M59.555,45.151L59.555,416.58" style="fill:none;stroke:#000000;stroke-width:0.5" />
<path d="M65.305,416.58L91.222,55.357L92.349,59.398L94.603,69.768L95.729,63.211L96.856,55.773L97.983,52.415L100.24,69.382L101.36,51.642L102.49,66.136L103.62,86.893L104.74,59.507L105.87,73.786L107,55.654L108.12,55.132L109.25,55.905L110.38,88.085L111.51,95.157L112.63,66.968L113.76,98.769L114.89,96.511L116.01,58.586L117.14,63.35L118.27,45.561L119.39,55.769L120.52,59.715L121.65,74.278L122.77,67.837L123.9,46.069L125.03,71.201L126.15,56.756L127.28,47.099L128.41,53.64L129.53,63.637L130.66,55.782L131.79,70.078L132.92,57.76L134.04,81.634L135.17,71.987L136.3,57.925L137.42,51.408L138.55,53.082L139.68,53.27L140.8,69.956L141.93,56.449L143.06,56.968L144.18,58.331L145.31,56.664L146.44,57.232L147.56,74.189L148.69,61.458L149.82,61.474L150.94,62.231L152.07,77.253L153.2,61.009L154.33,61.418L155.45,94.127L156.58,89.601L157.71,60.778L158.83,63.171L159.96,69.418L161.09,67.292L162.21,62.924L163.34,66.341L164.47,60.682L165.59,60.732L166.72,61.448L167.85,61.062L168.97,60.705L170.1,64.472L171.23,65.004L172.35,61.762L173.48,60.517L174.61,62.151L175.74,58.239L176.86,59.949L177.99,61.118L179.12,63.142L180.24,62.61L181.37,64.05L182.5,64.855L183.62,62.029L184.75,59.923L185.88,63.772L187,59.867L188.13,58.767L189.26,59.573L190.38,62.557L191.51,60.699L192.64,61.009L193.76,62.983L194.89,61.775L196.02,61.772L197.15,61.923L198.27,60.748L199.4,59.216L200.53,64.231L201.65,66.196L202.78,62.812L203.91,65.512L205.03,65.479L206.16,61.118L207.29,59.698L208.41,58.44L209.54,58.09L210.67,58.107L211.79,60.543L212.92,59.348L214.05,57.929L215.17,58.15L216.3,60.54L217.43,57.559L218.56,57.394L219.68,58.345L220.81,59.015L221.94,58.605L223.06,58.86L224.19,59.16L225.32,60.253L226.44,58.113L227.57,57.1L228.7,56.482L229.82,56.149L230.95,57.357L232.08,57.232L233.2,55.971L234.33,56.331L235.46,55.713L236.58,55.508L237.71,56.908L238.84,57.11L239.97,56.142L241.09,55.743L242.22,56.974L243.35,56.558L244.47,54.792L245.6,54.891L246.73,58.378L247.85,55.215L248.98,55.482L250.11,55.875L251.23,55.812L252.36,55.261L253.49,55.079L254.61,54.716L255.74,53.884L256.87,54.406L257.99,53.907L259.12,53.831L260.25,53.755L261.38,54.531L262.5,53.709L263.63,53.432L264.76,53.633L265.88,53.376L267.01,53.201L268.14,52.752L269.26,53.58L270.39,53.296L271.52,53.012L272.64,53.491L273.77,52.762L274.9,52.144L276.02,52.445L277.15,52.2L278.28,51.702L279.4,51.893L280.53,51.84L281.66,51.755L282.79,51.57L283.91,51.5L285.04,51.609L286.17,51.543L287.29,51.461L288.42,51.286L289.55,51.193L290.67,51.154L291.8,51.269L292.93,51.022L294.05,50.853L295.18,51.005L296.31,50.54L297.43,50.394L298.56,50.619L299.69,49.83L300.81,50.289L301.94,50.031L303.07,50.14L304.2,49.902L305.32,49.889L306.45,50.028L307.58,49.691L308.7,49.78L309.83,49.49L310.96,49.513L312.08,49.582L313.21,49.536L314.34,49.338L315.46,49.193L316.59,49.103L317.72,49.054L318.84,48.932L319.97,48.796L321.1,48.608L322.22,49.024L323.35,48.582L324.48,48.417L325.61,48.39L326.73,48.496L327.86,48.549L328.99,48.357L330.11,48.331L331.24,48.205L332.37,48.057L333.49,48.275L334.62,48.04L335.75,47.925L336.87,47.931L338,47.849L339.13,47.809L340.25,47.865L341.38,47.783L342.51,47.651L343.63,47.581L344.76,47.651L345.89,47.492L347.02,47.538L348.14,47.314L349.27,47.324L350.4,47.552L351.52,47.393L352.65,47.241L353.78,47.066L354.9,47.225L356.03,47.066L357.16,47.056L358.28,47.096L359.41,47.056L360.54,46.914L361.66,46.99L362.79,46.825L363.92,46.881L365.04,46.921L366.17,46.819L367.3,46.716L368.43,46.733L369.55,46.617L370.68,46.531L371.81,46.525L372.93,46.564L374.06,46.548L375.19,46.323L376.31,46.442L377.44,46.485L378.57,46.515L379.69,46.432L380.82,46.429L381.95,46.32L383.07,46.317L384.2,46.201L385.33,46.389L386.45,46.238L387.58,46.148L388.71,46.158L389.84,46.175L390.96,46.119L392.09,46.109L393.22,46.092L394.34,46.043L395.47,45.96L396.6,45.997L397.72,46.046L398.85,46.092L399.98,45.993L401.1,45.921L402.23,45.931L403.36,45.964L404.48,45.865L405.61,45.934L406.74,45.775L407.86,45.917L408.99,45.841L410.12,45.808L411.25,45.871L412.37,45.848L413.5,45.798L414.63,45.779L415.75,45.729L416.88,45.709L418.01,45.637L419.13,45.742L420.26,45.706L421.39,45.69L422.51,45.657L423.64,45.561L424.77,45.683L425.89,45.59L427.02,45.597L428.15,45.617L429.27,45.607L430.4,45.561L431.53,45.61L432.66,45.548L433.78,45.61L434.91,45.524L436.04,45.511L437.16,45.521L438.29,45.435L439.42,45.488L440.54,45.449L441.67,45.498L442.8,45.465L443.92,45.488L445.05,45.498L446.18,45.429L447.3,45.462L448.43,45.495L449.56,45.442L450.68,45.392L451.81,45.399L452.94,45.389L454.07,45.425L455.19,45.406L456.32,45.382L457.45,45.392L458.57,45.382L459.7,45.32L460.83,45.396L461.95,45.382L463.08,45.356L464.21,45.343L465.33,45.336L466.46,45.373L467.59,45.323L468.71,45.32L469.84,45.356L470.97,45.307L472.09,45.316L473.22,45.323L474.35,45.29L475.48,45.297L476.6,45.27L477.73,45.307L478.86,45.29L479.98,45.283L481.11,45.287L482.24,45.257L483.36,45.277L484.49,45.244L485.62,45.274L486.74,45.274L487.87,45.274L489,45.241L490.12,45.234L491.25,45.264L492.38,45.244L493.5,45.241L494.63,45.254L495.76,45.221L496.89,45.237L498.01,45.237L499.14,45.231L500.27,45.221L501.39,45.221L502.52,45.214L503.65,45.224L504.77,45.264L505.9,45.204L507.03,45.247L508.15,45.211L509.28,45.194L510.41,45.221L511.53,45.204L512.66,45.204L513.79,45.188L514.91,45.207L516.04,45.194L517.17,45.194L518.3,45.181L519.42,45.184L520.55,45.198L521.68,45.188L522.8,45.181L523.93,45.184L525.06,45.178L526.18,45.178L527.31,45.201L528.44,45.201L529.56,45.181L530.69,45.171L531.82,45.178L532.94,45.168L534.07,45.168L535.2,45.171L536.32,45.191L537.45,45.178L538.58,45.178L539.71,45.168L540.83,45.184L541.96,45.184L543.09,45.171L544.21,45.181L545.34,45.158L546.47,45.171L547.59,45.174L548.72,45.174L549.85,45.161L550.97,45.171L552.1,45.171L553.23,45.165L554.35,45.168L555.48,45.171L556.61,45.165L557.73,45.161L558.86,45.161L559.99,45.161L561.12,45.158L562.24,45.165L564.5,45.165L565.62,45.168L566.75,45.151L567.88,45.165L569,45.158L571.26,45.168L572.38,45.158L573.51,45.158L574.64,45.161L575.76,45.165L576.89,45.155L578.02,45.171L580.27,45.155L581.4,45.168L582.53,45.151L583.65,45.161L584.78,45.155L587.03,45.161L588.16,45.151L589.29,45.165L590.41,45.155L591.54,45.151L592.67,45.155L593.79,45.155L594.92,45.155L596.05,45.155L599.43,45.151L601.68,45.155L602.81,45.151L605.06,45.158L606.19,45.151L607.32,45.151L614.08,45.151L616.33,45.158L619.71,45.151L620.84,45.151L621.96,45.155L623.09,45.151L624.22,45.158L629.85,45.155L632.11,45.151L635.49,45.151L645.63,45.151L647.88,45.151L654.64,45.151L655.77,45.151L658.02,45.151L661.4,45.151L671.55,45.151L674.93,45.151L682.81,45.155L690.7,45.151L708.73,45.151L720,45.151" style="fill:none;stroke:#0000FF" />
</g>
</svg>
