<?xml version="1.0"?>
<!-- Generated by SVGo and Plotinum VG -->
<svg width="720pt" height="432pt" viewBox="0 0 720 432"
	xmlns="http://www.w3.org/2000/svg"
	xmlns:xlink="http://www.w3.org/1999/xlink">
<g transform="scale(1, -1) translate(0, -432)">
<path d="M0,0L720,0L720,432L0,432Z" style="fill:#FFFFFF" />
<text x="358.5" y="-420.45" transform="scale(1, -1)"
	style="font-family:Times;font-weight:normal;font-style:normal;font-size:12px"> </text>
<text x="374.36" y="-3.8613" transform="scale(1, -1)"
	style="font-family:Times;font-weight:normal;font-style:normal;font-size:12px">Costs</text>
<text x="56.555" y="-18.634" transform="scale(1, -1)"
	style="font-family:Times;font-weight:normal;font-style:normal;font-size:10px">0.00</text>
<text x="372.03" y="-18.634" transform="scale(1, -1)"
	style="font-family:Times;font-weight:normal;font-style:normal;font-size:10px">250.00</text>
<text x="692.5" y="-18.634" transform="scale(1, -1)"
	style="font-family:Times;font-weight:normal;font-style:normal;font-size:10px">500.00</text>
<path d="M65.305,28.263L65.305,36.263" style="fill:none;stroke:#000000;stroke-width:0.5" />
<path d="M385.78,28.263L385.78,36.263" style="fill:none;stroke:#000000;stroke-width:0.5" />
<path d="M706.25,28.263L706.25,36.263" style="fill:none;stroke:#000000;stroke-width:0.5" />
<path d="M129.4,32.263L129.4,36.263" style="fill:none;stroke:#000000;stroke-width:0.5" />
<path d="M193.49,32.263L193.49,36.263" style="fill:none;stroke:#000000;stroke-width:0.5" />
<path d="M257.59,32.263L257.59,36.263" style="fill:none;stroke:#000000;stroke-width:0.5" />
<path d="M321.68,32.263L321.68,36.263" style="fill:none;stroke:#000000;stroke-width:0.5" />
<path d="M449.87,32.263L449.87,36.263" style="fill:none;stroke:#000000;stroke-width:0.5" />
<path d="M513.97,32.263L513.97,36.263" style="fill:none;stroke:#000000;stroke-width:0.5" />
<path d="M578.06,32.263L578.06,36.263" style="fill:none;stroke:#000000;stroke-width:0.5" />
<path d="M642.16,32.263L642.16,36.263" style="fill:none;stroke:#000000;stroke-width:0.5" />
<path d="M65.305,36.263L710.1,36.263" style="fill:none;stroke:#000000;stroke-width:0.5" />
<g transform="rotate(90)">
<text x="152.55" y="11.555" transform="scale(1, -1)"
	style="font-family:Times;font-weight:normal;font-style:normal;font-size:12px">Number of trials (1000000 total)</text>
</g>
<text x="24.055" y="-93.026" transform="scale(1, -1)"
	style="font-family:Times;font-weight:normal;font-style:normal;font-size:10px">20000</text>
<text x="24.055" y="-246.27" transform="scale(1, -1)"
	style="font-family:Times;font-weight:normal;font-style:normal;font-size:10px">80000</text>
<text x="19.055" y="-399.52" transform="scale(1, -1)"
	style="font-family:Times;font-weight:normal;font-style:normal;font-size:10px">140000</text>
<path d="M51.555,96.231L59.555,96.231" style="fill:none;stroke:#000000;stroke-width:0.5" />
<path d="M51.555,249.48L59.555,249.48" style="fill:none;stroke:#000000;stroke-width:0.5" />
<path d="M51.555,402.73L59.555,402.73" style="fill:none;stroke:#000000;stroke-width:0.5" />
<path d="M55.555,172.85L59.555,172.85" style="fill:none;stroke:#000000;stroke-width:0.5" />
<path d="M55.555,326.1L59.555,326.1" style="fill:none;stroke:#000000;stroke-width:0.5" />
<path d="M59.555,45.151L59.555,416.58" style="fill:none;stroke:#000000;stroke-width:0.5" />
<path d="M65.305,416.58L93.506,48.479L96.07,52.502L98.634,61.597L101.2,77.134L102.48,85.228L103.76,55.891L105.04,59.237L106.33,62.433L107.61,64.987L108.89,104.35L110.17,80.666L112.73,61.135L114.02,75.162L115.3,52.321L116.58,63.355L117.86,90.548L119.14,52.106L120.43,69.415L121.71,99.125L122.99,66.33L124.27,70.376L126.84,48.786L128.12,52.52L129.4,49.159L130.68,52.809L131.96,45.849L133.24,56.755L134.53,53.572L135.81,46.883L137.09,83.821L138.37,63.173L139.65,56.221L140.94,63.209L142.22,54.165L143.5,60.918L144.78,69.209L146.06,69.183L147.35,52.28L148.63,51.713L149.91,54.456L151.19,59.222L152.47,55.429L153.76,59.191L155.04,56.762L156.32,54.745L157.6,62.468L158.88,74.322L160.16,72.641L161.45,62.793L162.73,56.614L164.01,67.084L165.29,62.788L166.57,60.795L167.86,89.473L169.14,78.105L170.42,57.082L171.7,54.952L172.98,58.405L174.27,61.641L175.55,56.078L176.83,59.626L178.11,55.754L179.39,57.421L180.67,60.568L181.96,58.979L183.24,55.123L184.52,54.54L185.8,56.737L187.08,55.398L188.37,56.377L189.65,60.001L190.93,54.574L192.21,54.793L193.49,59.462L194.78,57.781L196.06,59.551L197.34,57.856L198.62,55.907L199.9,56.024L201.19,58.637L202.47,59.626L203.75,59.761L205.03,59.613L206.31,56.359L207.59,56.691L208.88,57.375L210.16,57.529L211.44,61.015L212.72,62.514L214,55.983L215.29,57.002L216.57,60.657L217.85,58.489L219.13,55.787L220.41,58.563L221.7,56.055L222.98,55.858L224.26,58.269L225.54,57.143L226.82,55.143L228.1,52.788L229.39,52.374L230.67,53.823L231.95,54.696L233.23,53.772L234.51,53.038L235.8,53.866L237.08,53.853L238.36,53.685L239.64,56.642L240.92,55.741L242.21,53.261L243.49,53.554L244.77,53.743L246.05,53.432L247.33,53.932L248.62,54.622L249.9,52.977L251.18,51.82L252.46,52.28L253.74,53.294L255.02,52.344L256.31,52.446L257.59,52.704L258.87,52.173L260.15,52.397L261.43,53.984L262.72,53.787L264,52.911L265.28,51.889L266.56,52.359L267.84,52.806L269.13,52.05L270.41,51.371L271.69,52.443L272.97,51.156L274.25,51.016L275.53,51.355L276.82,51.22L278.1,50.747L279.38,50.908L280.66,50.645L281.94,50.339L283.23,50.906L284.51,50.638L285.79,49.961L287.07,49.754L288.35,50.211L289.64,49.956L290.92,49.882L292.2,50.27L293.48,49.876L294.76,49.445L296.05,50.071L297.33,49.82L298.61,49.938L299.89,49.573L301.17,49.266L302.45,49.243L303.74,49.21L305.02,49.417L306.3,49.215L307.58,48.829L308.86,49L310.15,48.748L311.43,48.725L312.71,48.975L313.99,48.972L315.27,48.906L316.56,48.673L317.84,48.574L319.12,48.742L320.4,48.553L321.68,48.423L322.96,48.094L324.25,48.165L325.53,48.055L326.81,48.048L328.09,48.058L329.37,47.772L330.66,47.619L331.94,47.718L333.22,47.698L334.5,47.843L335.78,47.642L337.07,47.537L338.35,47.534L339.63,47.496L340.91,47.603L342.19,47.46L343.47,47.363L344.76,47.432L346.04,47.215L347.32,47.302L348.6,47.233L349.88,46.993L351.17,47.133L352.45,47.202L353.73,46.85L355.01,47.031L356.29,46.988L357.58,46.916L358.86,46.845L360.14,46.817L361.42,46.847L362.7,46.791L363.99,46.648L365.27,46.712L366.55,46.689L367.83,46.571L369.11,46.704L370.39,46.612L371.68,46.559L372.96,46.564L374.24,46.403L375.52,46.278L376.8,46.372L378.09,46.441L379.37,46.285L380.65,46.27L381.93,46.211L383.21,46.206L384.5,46.158L385.78,46.201L387.06,46.155L388.34,46.079L389.62,46.086L390.9,46.109L392.19,46.163L393.47,46.048L394.75,46.112L396.03,45.994L397.31,46.033L398.6,45.912L399.88,45.971L401.16,45.918L402.44,45.938L403.72,45.943L405.01,45.91L406.29,45.833L407.57,45.844L408.85,45.823L410.13,45.849L411.42,45.749L412.7,45.798L413.98,45.723L415.26,45.785L416.54,45.716L417.82,45.721L419.11,45.688L420.39,45.609L421.67,45.706L422.95,45.593L424.23,45.642L425.52,45.675L426.8,45.575L428.08,45.611L429.36,45.575L430.64,45.614L431.93,45.578L433.21,45.606L434.49,45.491L435.77,45.509L437.05,45.555L438.33,45.483L439.62,45.519L440.9,45.501L442.18,45.527L443.46,45.466L444.74,45.463L446.03,45.501L447.31,45.427L448.59,45.412L449.87,45.412L451.15,45.376L452.44,45.414L453.72,45.417L455,45.407L456.28,45.376L457.56,45.448L458.85,45.391L460.13,45.333L461.41,45.33L462.69,45.348L463.97,45.333L465.25,45.325L466.54,45.368L467.82,45.302L469.1,45.366L470.38,45.31L471.66,45.335L472.95,45.292L474.23,45.312L475.51,45.287L476.79,45.292L478.07,45.31L479.36,45.328L480.64,45.305L481.92,45.292L483.2,45.261L484.48,45.282L485.76,45.266L487.05,45.269L488.33,45.277L489.61,45.266L490.89,45.236L492.17,45.259L493.46,45.274L494.74,45.271L496.02,45.243L497.3,45.236L498.58,45.233L499.87,45.22L501.15,45.241L502.43,45.251L503.71,45.213L504.99,45.213L506.28,45.225L507.56,45.233L508.84,45.223L510.12,45.225L511.4,45.225L512.68,45.223L513.97,45.231L515.25,45.202L516.53,45.202L517.81,45.202L519.09,45.202L520.38,45.19L521.66,45.21L522.94,45.187L524.22,45.2L525.5,45.215L526.79,45.172L528.07,45.195L529.35,45.177L530.63,45.197L531.91,45.205L533.19,45.187L534.48,45.19L535.76,45.195L537.04,45.179L538.32,45.208L539.6,45.182L540.89,45.185L542.17,45.19L543.45,45.185L544.73,45.169L546.01,45.177L547.3,45.182L548.58,45.162L549.86,45.172L551.14,45.179L552.42,45.179L553.71,45.177L554.99,45.169L556.27,45.172L557.55,45.167L558.83,45.159L560.11,45.159L561.4,45.159L562.68,45.177L563.96,45.174L565.24,45.164L566.52,45.162L567.81,45.169L569.09,45.169L570.37,45.162L571.65,45.167L572.93,45.169L574.22,45.154L575.5,45.156L576.78,45.159L578.06,45.159L579.34,45.167L580.62,45.156L581.91,45.154L583.19,45.172L584.47,45.162L585.75,45.169L587.03,45.156L588.32,45.156L589.6,45.154L590.88,45.156L593.44,45.159L594.73,45.156L596.01,45.151L597.29,45.154L598.57,45.154L599.85,45.156L601.13,45.154L602.42,45.156L603.7,45.154L604.98,45.154L606.26,45.154L607.54,45.159L608.83,45.154L610.11,45.156L611.39,45.151L615.24,45.151L616.52,45.154L617.8,45.151L619.08,45.159L620.36,45.151L621.65,45.154L622.93,45.151L624.21,45.154L625.49,45.151L626.77,45.154L628.05,45.151L629.34,45.154L631.9,45.151L633.18,45.151L634.46,45.151L637.03,45.154L638.31,45.151L639.59,45.154L642.16,45.151L647.28,45.156L648.56,45.151L654.97,45.151L658.82,45.151L660.1,45.156L662.67,45.151L663.95,45.151L670.36,45.151L676.77,45.151L680.61,45.151L683.18,45.151L704.97,45.151L710.1,45.151" style="fill:none;stroke:#0000FF" />
</g>
</svg>
