<?xml version="1.0"?>
<!-- Generated by SVGo and Plotinum VG -->
<svg width="720pt" height="432pt" viewBox="0 0 720 432"
	xmlns="http://www.w3.org/2000/svg"
	xmlns:xlink="http://www.w3.org/1999/xlink">
<g transform="scale(1, -1) translate(0, -432)">
<path d="M0,0L720,0L720,432L0,432Z" style="fill:#FFFFFF" />
<text x="358.5" y="-420.45" transform="scale(1, -1)"
	style="font-family:Times;font-weight:normal;font-style:normal;font-size:12px"> </text>
<text x="385.56" y="-3.8613" transform="scale(1, -1)"
	style="font-family:Times;font-weight:normal;font-style:normal;font-size:12px">Costs</text>
<text x="75.305" y="-18.634" transform="scale(1, -1)"
	style="font-family:Times;font-weight:normal;font-style:normal;font-size:10px">0</text>
<text x="336.78" y="-18.634" transform="scale(1, -1)"
	style="font-family:Times;font-weight:normal;font-style:normal;font-size:10px">200</text>
<text x="603.25" y="-18.634" transform="scale(1, -1)"
	style="font-family:Times;font-weight:normal;font-style:normal;font-size:10px">400</text>
<path d="M77.805,28.263L77.805,36.263" style="fill:none;stroke:#000000;stroke-width:0.5" />
<path d="M344.28,28.263L344.28,36.263" style="fill:none;stroke:#000000;stroke-width:0.5" />
<path d="M610.75,28.263L610.75,36.263" style="fill:none;stroke:#000000;stroke-width:0.5" />
<path d="M211.04,32.263L211.04,36.263" style="fill:none;stroke:#000000;stroke-width:0.5" />
<path d="M477.51,32.263L477.51,36.263" style="fill:none;stroke:#000000;stroke-width:0.5" />
<path d="M77.805,36.263L720,36.263" style="fill:none;stroke:#000000;stroke-width:0.5" />
<g transform="rotate(90)">
<text x="152.55" y="11.555" transform="scale(1, -1)"
	style="font-family:Times;font-weight:normal;font-style:normal;font-size:12px">Number of trials (1000000 total)</text>
</g>
<text x="24.055" y="-79.895" transform="scale(1, -1)"
	style="font-family:Times;font-weight:normal;font-style:normal;font-size:10px">25000.00</text>
<text x="19.055" y="-231.7" transform="scale(1, -1)"
	style="font-family:Times;font-weight:normal;font-style:normal;font-size:10px">125000.00</text>
<text x="19.055" y="-383.5" transform="scale(1, -1)"
	style="font-family:Times;font-weight:normal;font-style:normal;font-size:10px">225000.00</text>
<path d="M64.055,83.1L72.055,83.1" style="fill:none;stroke:#000000;stroke-width:0.5" />
<path d="M64.055,234.9L72.055,234.9" style="fill:none;stroke:#000000;stroke-width:0.5" />
<path d="M64.055,386.7L72.055,386.7" style="fill:none;stroke:#000000;stroke-width:0.5" />
<path d="M68.055,159L72.055,159" style="fill:none;stroke:#000000;stroke-width:0.5" />
<path d="M68.055,310.8L72.055,310.8" style="fill:none;stroke:#000000;stroke-width:0.5" />
<path d="M72.055,45.151L72.055,416.58" style="fill:none;stroke:#000000;stroke-width:0.5" />
<path d="M77.805,416.58L107.12,48.694L108.45,48.535L112.45,55.39L113.78,69.409L115.11,77.124L117.78,55.614L120.44,58.994L121.77,58.862L123.1,70.234L124.44,58.584L127.1,52.274L128.43,62.691L129.77,69.83L131.1,65.674L132.43,63.096L133.76,69.68L135.1,83.307L136.43,73.991L137.76,45.174L139.09,62.77L141.76,45.224L143.09,59.818L144.42,59.914L145.75,52.38L147.09,45.293L148.42,56.127L149.75,60.54L151.08,61.749L152.42,53.212L153.75,49.513L155.08,46.609L156.41,46.484L157.75,54.877L159.08,63.155L160.41,66.592L161.74,47.182L163.08,47.29L164.41,48.849L165.74,50.641L167.07,54.373L168.4,50.471L169.74,51.304L171.07,52.177L172.4,67.409L173.73,51.996L175.07,51.286L176.4,54.738L177.73,50.258L179.06,52.524L180.4,53.986L181.73,52.233L183.06,51.11L184.39,68.792L185.73,78.864L187.06,54.114L188.39,54.698L189.72,53.088L191.05,52.412L192.39,51.163L193.72,52.828L195.05,53.167L196.38,53.334L197.72,51.645L199.05,49.024L200.38,50.829L201.71,51.812L203.05,52.263L204.38,51.866L205.71,51.58L207.04,51.368L208.38,50.729L209.71,51.982L211.04,50.571L212.37,50.999L213.7,49.727L215.04,50.985L216.37,52.195L217.7,51.756L219.03,50.323L220.37,50.061L221.7,52.096L223.03,51.404L224.36,50.222L225.7,50.818L227.03,49.97L228.36,50.654L229.69,51.84L231.03,52.465L232.36,50.322L233.69,50.111L235.02,49.575L236.35,49.988L237.69,50.923L239.02,50.861L240.35,50.882L241.68,52.016L243.02,52.424L244.35,50.296L245.68,49.201L247.01,49.456L248.35,48.269L249.68,48.625L251.01,49.488L252.34,49.496L253.68,48.91L255.01,48.969L256.34,48.96L257.67,49.405L259.01,49.318L260.34,48.521L261.67,48.075L263,47.747L264.33,47.876L265.67,48.995L267,49.633L268.33,48.977L269.66,47.589L271,47.799L272.33,47.425L273.66,47.881L274.99,48.043L276.33,47.806L277.66,47.752L278.99,48.42L280.32,48.731L281.66,47.573L282.99,47.697L284.32,47.79L285.65,47.532L286.98,47.483L288.32,47.489L289.65,47.349L290.98,47.319L292.31,48.499L293.65,47.281L294.98,47.305L296.31,47.337L297.64,47.298L298.98,47.167L300.31,47.091L301.64,47.123L302.97,47.063L304.31,47.079L305.64,46.873L306.97,46.726L308.3,46.771L309.63,46.795L310.97,46.845L312.3,46.893L313.63,46.768L314.96,46.675L316.3,46.659L317.63,46.713L318.96,46.461L320.29,46.484L321.63,46.405L322.96,46.563L324.29,46.593L325.62,46.502L326.96,46.269L328.29,46.25L329.62,46.238L330.95,46.206L332.28,46.219L333.62,46.182L334.95,46.159L336.28,46.179L337.61,46.275L338.95,46.197L340.28,46.152L341.61,45.96L342.94,45.989L344.28,45.954L345.61,46.044L346.94,46.03L348.27,46.071L349.61,45.991L350.94,46.032L352.27,45.878L353.6,45.888L354.93,45.847L356.27,45.81L357.6,45.807L358.93,45.822L360.26,45.853L361.6,45.825L362.93,45.862L364.26,45.742L365.59,45.705L366.93,45.731L368.26,45.68L369.59,45.686L370.92,45.654L372.26,45.684L373.59,45.702L374.92,45.69L376.25,45.604L377.58,45.582L378.92,45.625L380.25,45.496L381.58,45.605L382.91,45.59L384.25,45.52L385.58,45.543L386.91,45.572L388.24,45.529L389.58,45.464L390.91,45.476L392.24,45.472L393.57,45.419L394.91,45.472L396.24,45.49L397.57,45.409L398.9,45.469L400.23,45.432L401.57,45.441L402.9,45.438L404.23,45.402L405.56,45.422L406.9,45.403L408.23,45.365L409.56,45.352L410.89,45.379L412.23,45.361L413.56,45.384L414.89,45.356L416.22,45.365L417.56,45.361L418.89,45.34L420.22,45.324L421.55,45.335L422.88,45.329L424.22,45.293L425.55,45.312L426.88,45.314L428.21,45.321L429.55,45.271L430.88,45.294L432.21,45.29L433.54,45.27L434.88,45.288L436.21,45.271L437.54,45.297L438.87,45.276L440.21,45.264L441.54,45.244L442.87,45.244L444.2,45.265L445.53,45.264L446.87,45.245L448.2,45.258L449.53,45.221L450.86,45.245L452.2,45.247L453.53,45.223L454.86,45.227L456.19,45.223L457.53,45.211L458.86,45.218L460.19,45.212L461.52,45.212L462.86,45.203L464.19,45.203L465.52,45.206L466.85,45.214L468.18,45.211L469.52,45.195L470.85,45.208L472.18,45.212L473.51,45.206L474.85,45.211L476.18,45.186L477.51,45.192L478.84,45.194L480.18,45.197L481.51,45.197L482.84,45.189L484.17,45.186L485.51,45.188L486.84,45.189L488.17,45.174L489.5,45.189L490.83,45.185L492.17,45.177L493.5,45.185L494.83,45.185L496.16,45.174L497.5,45.182L498.83,45.177L500.16,45.177L501.49,45.174L502.83,45.17L504.16,45.17L505.49,45.173L506.82,45.173L508.16,45.177L509.49,45.171L510.82,45.165L512.15,45.171L513.48,45.17L514.82,45.167L516.15,45.162L517.48,45.167L518.81,45.16L520.15,45.16L521.48,45.176L522.81,45.167L524.14,45.168L525.48,45.164L526.81,45.159L528.14,45.16L529.47,45.162L530.81,45.165L532.14,45.162L533.47,45.153L534.8,45.157L536.13,45.162L537.47,45.162L538.8,45.151L540.13,45.164L541.46,45.164L542.8,45.156L544.13,45.17L545.46,45.156L546.79,45.157L548.13,45.159L549.46,45.157L550.79,45.154L552.12,45.154L553.46,45.151L554.79,45.154L556.12,45.157L557.45,45.151L558.78,45.156L560.12,45.159L561.45,45.153L562.78,45.156L564.11,45.154L566.78,45.156L568.11,45.156L569.44,45.151L570.78,45.154L573.44,45.151L574.77,45.159L576.11,45.154L577.44,45.153L578.77,45.154L580.1,45.153L584.1,45.153L585.43,45.151L588.1,45.154L589.43,45.151L590.76,45.151L592.09,45.153L594.76,45.151L597.42,45.153L598.76,45.153L602.75,45.154L609.41,45.151L612.08,45.153L613.41,45.153L616.08,45.153L618.74,45.151L622.74,45.151L624.07,45.153L629.4,45.151L653.38,45.153L654.71,45.151L662.71,45.151L664.04,45.151L682.69,45.151L696.02,45.151L720,45.151" style="fill:none;stroke:#0000FF" />
</g>
</svg>
