<?xml version="1.0"?>
<!-- Generated by SVGo and Plotinum VG -->
<svg width="720pt" height="432pt" viewBox="0 0 720 432"
	xmlns="http://www.w3.org/2000/svg"
	xmlns:xlink="http://www.w3.org/1999/xlink">
<g transform="scale(1, -1) translate(0, -432)">
<path d="M0,0L720,0L720,432L0,432Z" style="fill:#FFFFFF" />
<text x="358.5" y="-420.45" transform="scale(1, -1)"
	style="font-family:Times;font-weight:normal;font-style:normal;font-size:12px"> </text>
<text x="379.31" y="-3.8613" transform="scale(1, -1)"
	style="font-family:Times;font-weight:normal;font-style:normal;font-size:12px">Costs</text>
<text x="56.555" y="-18.634" transform="scale(1, -1)"
	style="font-family:Times;font-weight:normal;font-style:normal;font-size:10px">0.00</text>
<text x="346.99" y="-18.634" transform="scale(1, -1)"
	style="font-family:Times;font-weight:normal;font-style:normal;font-size:10px">250.00</text>
<text x="642.43" y="-18.634" transform="scale(1, -1)"
	style="font-family:Times;font-weight:normal;font-style:normal;font-size:10px">500.00</text>
<path d="M65.305,28.263L65.305,36.263" style="fill:none;stroke:#000000;stroke-width:0.5" />
<path d="M360.74,28.263L360.74,36.263" style="fill:none;stroke:#000000;stroke-width:0.5" />
<path d="M656.18,28.263L656.18,36.263" style="fill:none;stroke:#000000;stroke-width:0.5" />
<path d="M124.39,32.263L124.39,36.263" style="fill:none;stroke:#000000;stroke-width:0.5" />
<path d="M183.48,32.263L183.48,36.263" style="fill:none;stroke:#000000;stroke-width:0.5" />
<path d="M242.57,32.263L242.57,36.263" style="fill:none;stroke:#000000;stroke-width:0.5" />
<path d="M301.66,32.263L301.66,36.263" style="fill:none;stroke:#000000;stroke-width:0.5" />
<path d="M419.83,32.263L419.83,36.263" style="fill:none;stroke:#000000;stroke-width:0.5" />
<path d="M478.92,32.263L478.92,36.263" style="fill:none;stroke:#000000;stroke-width:0.5" />
<path d="M538.01,32.263L538.01,36.263" style="fill:none;stroke:#000000;stroke-width:0.5" />
<path d="M597.1,32.263L597.1,36.263" style="fill:none;stroke:#000000;stroke-width:0.5" />
<path d="M715.27,32.263L715.27,36.263" style="fill:none;stroke:#000000;stroke-width:0.5" />
<path d="M65.305,36.263L720,36.263" style="fill:none;stroke:#000000;stroke-width:0.5" />
<g transform="rotate(90)">
<text x="152.55" y="11.555" transform="scale(1, -1)"
	style="font-family:Times;font-weight:normal;font-style:normal;font-size:12px">Number of trials (1000000 total)</text>
</g>
<text x="24.055" y="-109.15" transform="scale(1, -1)"
	style="font-family:Times;font-weight:normal;font-style:normal;font-size:10px">20000</text>
<text x="24.055" y="-243.56" transform="scale(1, -1)"
	style="font-family:Times;font-weight:normal;font-style:normal;font-size:10px">60000</text>
<text x="19.055" y="-377.98" transform="scale(1, -1)"
	style="font-family:Times;font-weight:normal;font-style:normal;font-size:10px">100000</text>
<path d="M51.555,112.35L59.555,112.35" style="fill:none;stroke:#000000;stroke-width:0.5" />
<path d="M51.555,246.77L59.555,246.77" style="fill:none;stroke:#000000;stroke-width:0.5" />
<path d="M51.555,381.18L59.555,381.18" style="fill:none;stroke:#000000;stroke-width:0.5" />
<path d="M55.555,78.751L59.555,78.751" style="fill:none;stroke:#000000;stroke-width:0.5" />
<path d="M55.555,145.96L59.555,145.96" style="fill:none;stroke:#000000;stroke-width:0.5" />
<path d="M55.555,179.56L59.555,179.56" style="fill:none;stroke:#000000;stroke-width:0.5" />
<path d="M55.555,213.17L59.555,213.17" style="fill:none;stroke:#000000;stroke-width:0.5" />
<path d="M55.555,280.37L59.555,280.37" style="fill:none;stroke:#000000;stroke-width:0.5" />
<path d="M55.555,313.98L59.555,313.98" style="fill:none;stroke:#000000;stroke-width:0.5" />
<path d="M55.555,347.58L59.555,347.58" style="fill:none;stroke:#000000;stroke-width:0.5" />
<path d="M55.555,414.79L59.555,414.79" style="fill:none;stroke:#000000;stroke-width:0.5" />
<path d="M59.555,45.151L59.555,416.58" style="fill:none;stroke:#000000;stroke-width:0.5" />
<path d="M65.305,416.58L92.485,48.461L93.667,52.306L96.03,59.137L97.212,86.171L98.394,48.733L99.576,64.053L100.76,62.548L101.94,63.089L103.12,98.578L104.3,87.344L105.48,85.973L106.67,59.426L107.85,55.182L109.03,69.82L110.21,55.74L111.39,60.196L112.58,69.773L113.76,93.873L114.94,78.278L116.12,62.36L117.3,62.79L118.48,73.032L119.67,59.08L120.85,45.239L123.21,59.154L124.39,101.93L125.57,61.442L126.76,45.484L127.94,100.86L129.12,57.46L130.3,56.95L131.48,68.113L132.67,56.22L133.85,61.016L135.03,61.271L136.21,63.684L137.39,72.192L138.57,55.972L139.76,57.874L140.94,55.481L142.12,57.907L143.3,57.437L144.48,73.526L145.66,59.513L146.85,58.694L148.03,58.512L149.21,59.863L150.39,61.415L151.57,81.651L152.75,74.06L153.94,62.131L155.12,62.783L156.3,79.975L157.48,60.609L158.66,61.244L159.85,80.815L161.03,73.966L162.21,69.047L163.39,68.452L164.57,64.366L165.75,67.753L166.94,65.69L168.12,67.874L169.3,62.709L170.48,59.826L171.66,63.909L172.84,65.831L174.03,62.985L175.21,63.529L176.39,67.518L177.57,64.897L178.75,60.945L179.94,59.675L181.12,59.285L182.3,62.289L183.48,62.756L184.66,61.429L185.84,59.708L187.03,65.196L188.21,62.366L189.39,60.233L190.57,66.063L191.75,62.793L192.93,62.827L194.12,62.565L195.3,62.713L196.48,63.737L197.66,62.561L198.84,63.795L200.03,66.426L201.21,62.427L202.39,60.589L203.57,62.78L204.75,62.521L205.93,60.911L207.12,60.713L208.3,60.596L209.48,61.567L210.66,63.301L211.84,60.36L213.02,59.624L214.21,61.788L215.39,62.353L216.57,58.536L217.75,57.944L218.93,62.336L220.12,59.94L221.3,58.129L222.48,60.821L223.66,60.142L224.84,59.043L226.02,59.238L227.21,58.344L228.39,58.374L229.57,57.612L230.75,58.391L231.93,58.458L233.11,57.057L234.3,56.634L235.48,58.106L236.66,56.392L237.84,56.741L239.02,57.944L240.21,56.936L241.39,56.429L242.57,57.04L243.75,56.556L244.93,55.861L246.11,56.96L247.3,56.852L248.48,56.086L249.66,56.056L250.84,56.298L252.02,56.12L253.2,55.478L254.39,55.592L255.57,56.089L256.75,54.943L257.93,54.943L259.11,55.515L260.3,54.54L261.48,54.701L262.66,55.155L263.84,54.89L265.02,53.771L266.2,54.365L267.39,54.251L268.57,53.74L269.75,53.71L270.93,53.535L272.11,53.273L273.29,53.324L274.48,53.048L275.66,52.709L276.84,52.793L278.02,52.9L279.2,52.453L280.39,52.309L281.57,52.359L282.75,52.477L283.93,52.222L285.11,52.272L286.29,51.869L287.48,52.02L288.66,51.546L289.84,51.576L291.02,51.701L292.2,51.156L293.38,51.617L294.57,51.576L295.75,51.119L296.93,50.928L298.11,50.908L299.29,50.538L300.48,50.73L301.66,50.931L302.84,50.538L304.02,50.346L305.2,50.588L306.38,50.178L307.57,49.994L308.75,50.088L309.93,50.007L311.11,50.115L312.29,50.101L313.47,49.725L314.66,49.819L315.84,49.473L317.02,49.513L318.2,49.587L319.38,49.224L320.56,49.184L321.75,49.221L322.93,49.096L324.11,49.006L325.29,48.898L326.47,48.935L327.66,48.559L328.84,48.703L330.02,48.586L331.2,48.74L332.38,48.69L333.56,48.535L334.75,48.26L335.93,48.445L337.11,48.428L338.29,48.253L339.47,48.061L340.65,47.957L341.84,47.93L343.02,47.759L344.2,47.89L345.38,47.883L346.56,47.729L347.75,47.651L348.93,47.746L350.11,47.541L351.29,47.51L352.47,47.547L353.65,47.252L354.84,47.349L356.02,47.379L357.2,47.178L358.38,47.319L359.56,47.178L360.74,47.124L361.93,46.989L363.11,47.107L364.29,47.168L365.47,47.016L366.65,46.989L367.84,46.969L369.02,46.781L370.2,46.707L371.38,46.714L372.56,46.731L373.74,46.647L374.93,46.697L376.11,46.664L377.29,46.771L378.47,46.569L379.65,46.583L380.83,46.509L382.02,46.499L383.2,46.415L384.38,46.435L385.56,46.459L386.74,46.375L387.93,46.496L389.11,46.26L390.29,46.287L391.47,46.317L392.65,46.139L393.83,46.186L395.02,46.196L396.2,46.186L397.38,46.062L398.56,46.123L399.74,46.109L400.92,46.159L402.11,46.045L403.29,46.119L404.47,45.904L405.65,45.924L406.83,45.894L408.02,45.965L409.2,45.924L410.38,45.985L411.56,45.884L412.74,45.817L413.92,45.894L415.11,45.797L416.29,45.77L417.47,45.901L418.65,45.8L419.83,45.803L421.01,45.854L422.2,45.679L423.38,45.659L424.56,45.666L425.74,45.686L426.92,45.659L428.11,45.696L429.29,45.682L430.47,45.679L431.65,45.548L432.83,45.699L434.01,45.518L435.2,45.581L436.38,45.568L437.56,45.561L438.74,45.528L439.92,45.534L441.1,45.504L442.29,45.581L443.47,45.518L444.65,45.497L445.83,45.437L447.01,45.531L448.2,45.511L449.38,45.497L450.56,45.521L451.74,45.464L452.92,45.44L454.1,45.424L455.29,45.403L456.47,45.41L457.65,45.39L458.83,45.363L460.01,45.387L461.19,45.37L462.38,45.417L463.56,45.373L464.74,45.397L465.92,45.333L467.1,45.363L468.29,45.323L469.47,45.309L470.65,45.346L471.83,45.323L473.01,45.289L474.19,45.323L475.38,45.282L476.56,45.316L477.74,45.313L478.92,45.329L480.1,45.293L481.28,45.306L482.47,45.269L483.65,45.286L484.83,45.266L486.01,45.272L487.19,45.256L488.37,45.303L489.56,45.242L490.74,45.249L491.92,45.266L493.1,45.286L494.28,45.235L495.47,45.242L496.65,45.262L497.83,45.252L499.01,45.262L500.19,45.219L501.37,45.256L502.56,45.239L503.74,45.205L504.92,45.219L506.1,45.208L507.28,45.219L508.46,45.232L509.65,45.222L510.83,45.219L512.01,45.212L513.19,45.208L514.37,45.212L515.56,45.212L516.74,45.185L517.92,45.202L519.1,45.208L520.28,45.185L521.46,45.205L522.65,45.208L523.83,45.178L525.01,45.202L526.19,45.182L527.37,45.192L528.55,45.175L529.74,45.168L530.92,45.172L532.1,45.185L533.28,45.208L534.46,45.192L535.65,45.208L536.83,45.192L538.01,45.208L539.19,45.175L540.37,45.178L541.55,45.175L542.74,45.172L543.92,45.178L545.1,45.172L546.28,45.185L547.46,45.168L548.64,45.192L549.83,45.168L551.01,45.168L552.19,45.165L553.37,45.168L554.55,45.172L555.74,45.165L556.92,45.182L558.1,45.165L559.28,45.165L560.46,45.161L561.64,45.175L562.83,45.165L564.01,45.161L565.19,45.175L566.37,45.161L567.55,45.161L568.73,45.165L569.92,45.161L571.1,45.165L572.28,45.165L573.46,45.155L574.64,45.155L575.83,45.158L577.01,45.175L578.19,45.161L579.37,45.155L580.55,45.161L581.73,45.158L582.92,45.161L584.1,45.161L585.28,45.178L586.46,45.158L587.64,45.151L588.82,45.158L590.01,45.158L591.19,45.155L592.37,45.155L593.55,45.155L594.73,45.165L595.92,45.161L597.1,45.161L599.46,45.151L600.64,45.165L601.82,45.158L605.37,45.155L606.55,45.151L607.73,45.155L608.91,45.151L612.46,45.155L613.64,45.155L617.19,45.155L618.37,45.158L620.73,45.155L623.1,45.155L624.28,45.151L626.64,45.151L627.82,45.151L632.55,45.151L633.73,45.151L637.28,45.151L638.46,45.151L644.37,45.151L646.73,45.151L650.28,45.151L655,45.151L668,45.151L673.91,45.151L676.27,45.151L688.09,45.151L720,45.151" style="fill:none;stroke:#0000FF" />
</g>
</svg>
