<?xml version="1.0"?>
<!-- Generated by SVGo and Plotinum VG -->
<svg width="720pt" height="432pt" viewBox="0 0 720 432"
	xmlns="http://www.w3.org/2000/svg"
	xmlns:xlink="http://www.w3.org/1999/xlink">
<g transform="scale(1, -1) translate(0, -432)">
<path d="M0,0L720,0L720,432L0,432Z" style="fill:#FFFFFF" />
<text x="358.5" y="-420.45" transform="scale(1, -1)"
	style="font-family:Times;font-weight:normal;font-style:normal;font-size:12px"> </text>
<text x="379.31" y="-3.8613" transform="scale(1, -1)"
	style="font-family:Times;font-weight:normal;font-style:normal;font-size:12px">Costs</text>
<text x="62.805" y="-18.634" transform="scale(1, -1)"
	style="font-family:Times;font-weight:normal;font-style:normal;font-size:10px">0</text>
<text x="344.32" y="-18.634" transform="scale(1, -1)"
	style="font-family:Times;font-weight:normal;font-style:normal;font-size:10px">200</text>
<text x="630.84" y="-18.634" transform="scale(1, -1)"
	style="font-family:Times;font-weight:normal;font-style:normal;font-size:10px">400</text>
<path d="M65.305,28.263L65.305,36.263" style="fill:none;stroke:#000000;stroke-width:0.5" />
<path d="M351.82,28.263L351.82,36.263" style="fill:none;stroke:#000000;stroke-width:0.5" />
<path d="M638.34,28.263L638.34,36.263" style="fill:none;stroke:#000000;stroke-width:0.5" />
<path d="M208.56,32.263L208.56,36.263" style="fill:none;stroke:#000000;stroke-width:0.5" />
<path d="M495.08,32.263L495.08,36.263" style="fill:none;stroke:#000000;stroke-width:0.5" />
<path d="M65.305,36.263L720,36.263" style="fill:none;stroke:#000000;stroke-width:0.5" />
<g transform="rotate(90)">
<text x="152.55" y="11.555" transform="scale(1, -1)"
	style="font-family:Times;font-weight:normal;font-style:normal;font-size:12px">Number of trials (1000000 total)</text>
</g>
<text x="24.055" y="-90.438" transform="scale(1, -1)"
	style="font-family:Times;font-weight:normal;font-style:normal;font-size:10px">40000</text>
<text x="19.055" y="-235.92" transform="scale(1, -1)"
	style="font-family:Times;font-weight:normal;font-style:normal;font-size:10px">160000</text>
<text x="19.055" y="-381.4" transform="scale(1, -1)"
	style="font-family:Times;font-weight:normal;font-style:normal;font-size:10px">280000</text>
<path d="M51.555,93.644L59.555,93.644" style="fill:none;stroke:#000000;stroke-width:0.5" />
<path d="M51.555,239.12L59.555,239.12" style="fill:none;stroke:#000000;stroke-width:0.5" />
<path d="M51.555,384.6L59.555,384.6" style="fill:none;stroke:#000000;stroke-width:0.5" />
<path d="M55.555,166.38L59.555,166.38" style="fill:none;stroke:#000000;stroke-width:0.5" />
<path d="M55.555,311.86L59.555,311.86" style="fill:none;stroke:#000000;stroke-width:0.5" />
<path d="M59.555,45.151L59.555,416.58" style="fill:none;stroke:#000000;stroke-width:0.5" />
<path d="M65.305,416.58L102.55,62.664L103.98,65.962L106.85,59.325L108.28,52.465L109.72,55.702L111.15,59.156L112.58,62.386L114.01,66.217L115.45,69.193L116.88,62.609L118.31,48.588L119.74,59.013L121.18,55.503L122.61,48.579L124.04,58.972L125.47,62.895L126.91,59.549L128.34,52.08L129.77,62.693L131.2,52.189L134.07,48.615L135.5,62.524L136.93,48.536L138.37,55.414L139.8,45.3L141.23,70.621L142.66,52.662L144.1,45.808L145.53,53.022L146.96,49.481L148.4,60.697L149.83,53.766L151.26,47.535L152.69,61.979L154.13,62.556L155.56,58.456L156.99,47.924L158.42,48.854L159.86,47.909L161.29,48.919L162.72,49.801L164.15,49.86L165.59,49.21L167.02,49.875L168.45,49.273L169.88,52.099L171.32,49.439L172.75,49.654L174.18,50.149L175.61,49.991L177.05,49.61L178.48,50.093L179.91,68.695L181.34,66.784L182.78,49.27L184.21,49.831L185.64,50.184L187.08,50.788L188.51,49.601L189.94,50.986L191.37,51.379L192.81,50.566L194.24,49.692L195.67,50.191L197.1,50.295L198.54,49.814L199.97,50.804L201.4,50.253L202.83,50.316L204.27,49.698L205.7,49.555L207.13,48.99L208.56,48.874L210,48.293L211.43,49.098L212.86,48.613L214.29,49.044L215.73,47.963L217.16,49.228L218.59,50.615L220.02,48.677L221.46,48.32L222.89,48.594L224.32,48.901L225.76,49.379L227.19,48.608L228.62,50.044L230.05,50.153L231.49,49.607L232.92,48.244L234.35,47.935L235.78,48.736L237.22,48.221L238.65,48.266L240.08,48.784L241.51,48.827L242.95,48.38L244.38,48.269L245.81,48.171L247.24,47.072L248.68,46.801L250.11,47.848L251.54,47.899L252.97,47.441L254.41,47.207L255.84,47.897L257.27,48.337L258.7,47.026L260.14,47.075L261.57,47.204L263,47.543L264.44,47.645L265.87,47.017L267.3,47.392L268.73,47.976L270.17,47.888L271.6,47.084L273.03,46.615L274.46,46.697L275.9,46.584L277.33,46.624L278.76,46.726L280.19,46.666L281.63,46.577L283.06,46.561L284.49,46.718L285.92,46.565L287.36,46.451L288.79,46.542L290.22,46.486L291.65,46.389L293.09,46.353L294.52,46.424L295.95,47.021L297.38,46.209L298.82,46.251L300.25,46.296L301.68,46.289L303.12,46.233L304.55,46.158L305.98,46.272L307.41,46.252L308.85,46.152L310.28,46.019L311.71,46.056L313.14,46.027L314.58,46.139L316.01,46.114L317.44,46.138L318.87,46.058L320.31,45.985L321.74,45.967L323.17,45.841L324.6,45.888L326.04,45.902L327.47,45.918L328.9,45.884L330.33,45.776L331.77,45.754L333.2,45.798L334.63,45.845L336.06,45.714L337.5,45.708L338.93,45.702L340.36,45.716L341.8,45.614L343.23,45.635L344.66,45.735L346.09,45.681L347.53,45.644L348.96,45.551L350.39,45.604L351.82,45.588L353.26,45.567L354.69,45.524L356.12,45.594L357.55,45.554L358.99,45.498L360.42,45.562L361.85,45.467L363.28,45.427L364.72,45.459L366.15,45.477L367.58,45.457L369.01,45.458L370.45,45.428L371.88,45.497L373.31,45.468L374.74,45.39L376.18,45.414L377.61,45.377L379.04,45.4L380.48,45.371L381.91,45.366L383.34,45.373L384.77,45.378L386.21,45.396L387.64,45.359L389.07,45.344L390.5,45.338L391.94,45.342L393.37,45.327L394.8,45.313L396.23,45.331L397.67,45.322L399.1,45.313L400.53,45.307L401.96,45.304L403.4,45.3L404.83,45.327L406.26,45.292L407.69,45.285L409.13,45.275L410.56,45.274L411.99,45.288L413.42,45.252L414.86,45.253L416.29,45.258L417.72,45.256L419.16,45.231L420.59,45.245L422.02,45.25L423.45,45.233L424.89,45.25L426.32,45.239L427.75,45.222L429.18,45.225L430.62,45.245L432.05,45.228L433.48,45.23L434.91,45.214L436.35,45.22L437.78,45.216L439.21,45.216L440.64,45.212L442.08,45.223L443.51,45.197L444.94,45.199L446.37,45.202L447.81,45.195L449.24,45.201L450.67,45.191L452.1,45.19L453.54,45.201L454.97,45.19L456.4,45.187L457.84,45.19L459.27,45.194L460.7,45.183L462.13,45.183L463.57,45.177L465,45.201L466.43,45.179L467.86,45.176L469.3,45.187L470.73,45.174L472.16,45.176L473.59,45.179L475.03,45.166L476.46,45.171L477.89,45.17L479.32,45.163L480.76,45.177L482.19,45.173L483.62,45.173L485.05,45.167L486.49,45.172L487.92,45.166L489.35,45.16L490.79,45.168L492.22,45.168L493.65,45.167L495.08,45.163L496.52,45.17L497.95,45.173L499.38,45.165L500.81,45.166L502.25,45.168L503.68,45.166L505.11,45.154L506.54,45.166L507.98,45.157L509.41,45.162L510.84,45.154L512.27,45.161L513.71,45.161L515.14,45.162L516.57,45.159L518,45.157L519.44,45.161L520.87,45.156L522.3,45.151L523.73,45.159L525.17,45.154L526.6,45.155L528.03,45.153L529.47,45.154L530.9,45.157L532.33,45.156L533.76,45.157L535.2,45.153L536.63,45.156L538.06,45.156L539.49,45.155L540.93,45.154L542.36,45.155L543.79,45.154L545.22,45.155L546.66,45.153L548.09,45.151L549.52,45.155L550.95,45.154L552.39,45.154L553.82,45.155L555.25,45.151L556.68,45.154L558.12,45.157L559.55,45.153L563.85,45.151L565.28,45.151L566.71,45.151L568.15,45.151L569.58,45.151L571.01,45.153L572.44,45.153L573.88,45.151L576.74,45.151L578.17,45.153L579.61,45.154L581.04,45.155L588.2,45.156L589.63,45.154L591.07,45.151L592.5,45.151L593.93,45.151L598.23,45.151L599.66,45.151L606.83,45.151L608.26,45.151L609.69,45.151L612.56,45.151L624.02,45.153L631.18,45.151L635.48,45.151L636.91,45.151L644.07,45.151L662.7,45.151L674.16,45.151L720,45.151" style="fill:none;stroke:#0000FF" />
</g>
</svg>
