<?xml version="1.0"?>
<!-- Generated by SVGo and Plotinum VG -->
<svg width="720pt" height="432pt" viewBox="0 0 720 432"
	xmlns="http://www.w3.org/2000/svg"
	xmlns:xlink="http://www.w3.org/1999/xlink">
<g transform="scale(1, -1) translate(0, -432)">
<path d="M0,0L720,0L720,432L0,432Z" style="fill:#FFFFFF" />
<text x="358.5" y="-420.45" transform="scale(1, -1)"
	style="font-family:Times;font-weight:normal;font-style:normal;font-size:12px"> </text>
<text x="379.31" y="-3.8613" transform="scale(1, -1)"
	style="font-family:Times;font-weight:normal;font-style:normal;font-size:12px">Costs</text>
<text x="62.805" y="-18.634" transform="scale(1, -1)"
	style="font-family:Times;font-weight:normal;font-style:normal;font-size:10px">0</text>
<text x="340" y="-18.634" transform="scale(1, -1)"
	style="font-family:Times;font-weight:normal;font-style:normal;font-size:10px">200</text>
<text x="622.2" y="-18.634" transform="scale(1, -1)"
	style="font-family:Times;font-weight:normal;font-style:normal;font-size:10px">400</text>
<path d="M65.305,28.263L65.305,36.263" style="fill:none;stroke:#000000;stroke-width:0.5" />
<path d="M347.5,28.263L347.5,36.263" style="fill:none;stroke:#000000;stroke-width:0.5" />
<path d="M629.7,28.263L629.7,36.263" style="fill:none;stroke:#000000;stroke-width:0.5" />
<path d="M206.4,32.263L206.4,36.263" style="fill:none;stroke:#000000;stroke-width:0.5" />
<path d="M488.6,32.263L488.6,36.263" style="fill:none;stroke:#000000;stroke-width:0.5" />
<path d="M65.305,36.263L720,36.263" style="fill:none;stroke:#000000;stroke-width:0.5" />
<g transform="rotate(90)">
<text x="152.55" y="11.555" transform="scale(1, -1)"
	style="font-family:Times;font-weight:normal;font-style:normal;font-size:12px">Number of trials (1000000 total)</text>
</g>
<text x="24.055" y="-113.2" transform="scale(1, -1)"
	style="font-family:Times;font-weight:normal;font-style:normal;font-size:10px">50000</text>
<text x="19.055" y="-255.73" transform="scale(1, -1)"
	style="font-family:Times;font-weight:normal;font-style:normal;font-size:10px">150000</text>
<text x="19.055" y="-398.25" transform="scale(1, -1)"
	style="font-family:Times;font-weight:normal;font-style:normal;font-size:10px">250000</text>
<path d="M51.555,116.41L59.555,116.41" style="fill:none;stroke:#000000;stroke-width:0.5" />
<path d="M51.555,258.93L59.555,258.93" style="fill:none;stroke:#000000;stroke-width:0.5" />
<path d="M51.555,401.45L59.555,401.45" style="fill:none;stroke:#000000;stroke-width:0.5" />
<path d="M55.555,187.67L59.555,187.67" style="fill:none;stroke:#000000;stroke-width:0.5" />
<path d="M55.555,330.19L59.555,330.19" style="fill:none;stroke:#000000;stroke-width:0.5" />
<path d="M59.555,45.151L59.555,416.58" style="fill:none;stroke:#000000;stroke-width:0.5" />
<path d="M65.305,416.58L97.757,51.977L101.99,59.83L106.22,74.2L107.63,59.832L109.05,77.779L110.46,55.773L111.87,55.736L113.28,59.773L114.69,74.462L116.1,60.031L118.92,58.966L120.33,69.92L121.74,58.872L123.15,65.797L124.57,48.603L125.98,63.254L127.39,60.048L128.8,59.066L130.21,55.411L134.44,77.475L135.85,48.461L138.68,45.731L140.09,62.841L141.5,63.745L142.91,56.884L144.32,52.736L145.73,75.775L147.14,57.043L148.55,57.259L149.96,48.01L151.37,81.203L152.79,62.171L154.2,51.298L155.61,49.789L157.02,49.856L158.43,49.343L159.84,56.861L161.25,49.386L162.66,50.842L164.07,51.565L165.48,53.53L166.9,51.042L168.31,50L169.72,55.685L171.13,52.302L172.54,50.789L173.95,50.03L175.36,51.515L176.77,51.566L178.18,52.96L179.59,49.966L181.01,50.643L182.42,51.93L183.83,54.601L185.24,52.508L186.65,50.989L188.06,53.17L189.47,55.349L190.88,52.897L192.29,54.236L193.7,51.759L195.11,55.48L196.53,54.261L197.94,52.533L199.35,52.123L200.76,53.371L202.17,52.592L203.58,52.8L204.99,50.945L206.4,52.448L207.81,51.026L209.22,53.275L210.64,51.571L212.05,50.232L213.46,50.024L214.87,52.045L216.28,50.542L217.69,49.229L219.1,48.188L220.51,51.883L221.92,50.641L223.33,49.565L224.75,48.596L226.16,50.023L227.57,50.747L228.98,50.449L230.39,49.059L231.8,50.782L233.21,49.849L234.62,49.671L236.03,48.398L237.44,48.583L238.86,49.477L240.27,48.884L241.68,48.258L243.09,48.08L244.5,48.171L245.91,49.143L247.32,48.484L248.73,48.007L250.14,48.177L251.55,48.556L252.97,48.364L254.38,47.982L255.79,48.23L257.2,48.257L258.61,47.993L260.02,47.777L261.43,47.73L262.84,47.697L264.25,48.072L265.66,47.838L267.08,47.651L268.49,47.576L269.9,47.859L271.31,47.745L272.72,47.566L274.13,47.459L275.54,47.765L276.95,47.537L278.36,47.519L279.77,47.219L281.18,47.214L282.6,47.264L284.01,47.346L285.42,47.09L286.83,47.027L288.24,47.013L289.65,47.147L291.06,46.996L292.47,46.883L293.88,46.74L295.29,46.883L296.71,46.847L298.12,46.568L299.53,46.508L300.94,46.607L302.35,46.567L303.76,46.584L305.17,46.373L306.58,46.418L307.99,46.423L309.4,46.344L310.82,46.359L312.23,46.272L313.64,46.252L315.05,46.394L316.46,46.22L317.87,46.103L319.28,46.169L320.69,46.175L322.1,46.079L323.51,45.992L324.93,46.032L326.34,45.997L327.75,46.022L329.16,45.955L330.57,45.88L331.98,45.931L333.39,45.952L334.8,45.941L336.21,45.854L337.62,45.84L339.04,45.855L340.45,45.84L341.86,45.793L343.27,45.77L344.68,45.798L346.09,45.75L347.5,45.666L348.91,45.662L350.32,45.697L351.73,45.669L353.14,45.713L354.56,45.659L355.97,45.683L357.38,45.637L358.79,45.625L360.2,45.59L361.61,45.595L363.02,45.585L364.43,45.559L365.84,45.536L367.25,45.502L368.67,45.506L370.08,45.528L371.49,45.485L372.9,45.479L374.31,45.445L375.72,45.478L377.13,45.463L378.54,45.452L379.95,45.391L381.36,45.375L382.78,45.416L384.19,45.405L385.6,45.375L387.01,45.381L388.42,45.351L389.83,45.342L391.24,45.357L392.65,45.357L394.06,45.324L395.47,45.335L396.89,45.321L398.3,45.322L399.71,45.325L401.12,45.337L402.53,45.314L403.94,45.305L405.35,45.298L406.76,45.322L408.17,45.327L409.58,45.292L411,45.305L412.41,45.282L413.82,45.305L415.23,45.253L416.64,45.254L418.05,45.263L419.46,45.248L420.87,45.265L422.28,45.25L423.69,45.247L425.1,45.247L426.52,45.251L427.93,45.247L429.34,45.225L430.75,45.24L432.16,45.245L433.57,45.225L434.98,45.23L436.39,45.235L437.8,45.211L439.21,45.21L440.63,45.217L442.04,45.223L443.45,45.22L444.86,45.218L446.27,45.22L447.68,45.207L449.09,45.194L450.5,45.198L451.91,45.208L453.32,45.2L454.74,45.197L456.15,45.176L457.56,45.19L458.97,45.183L460.38,45.193L461.79,45.184L463.2,45.193L464.61,45.201L466.02,45.181L467.43,45.178L468.85,45.18L470.26,45.171L471.67,45.181L473.08,45.19L474.49,45.183L475.9,45.187L477.31,45.174L478.72,45.184L480.13,45.174L481.54,45.167L482.96,45.17L484.37,45.167L485.78,45.168L487.19,45.167L488.6,45.158L490.01,45.163L491.42,45.176L492.83,45.168L494.24,45.166L495.65,45.178L497.06,45.163L498.48,45.163L499.89,45.164L501.3,45.163L502.71,45.156L504.12,45.164L505.53,45.174L506.94,45.16L508.35,45.163L509.76,45.166L511.17,45.158L512.59,45.163L514,45.164L515.41,45.166L516.82,45.158L518.23,45.153L519.64,45.156L521.05,45.16L522.46,45.157L523.87,45.156L525.28,45.154L526.7,45.157L528.11,45.154L529.52,45.158L530.93,45.153L532.34,45.157L533.75,45.158L535.16,45.158L536.57,45.151L537.98,45.154L539.39,45.157L542.22,45.154L543.63,45.153L545.04,45.156L546.45,45.151L547.86,45.158L550.68,45.157L552.09,45.151L553.5,45.154L554.92,45.154L556.33,45.151L557.74,45.151L559.15,45.151L560.56,45.153L561.97,45.151L563.38,45.154L564.79,45.151L569.03,45.151L570.44,45.151L571.85,45.153L574.67,45.153L576.08,45.154L578.9,45.151L580.31,45.151L584.55,45.153L587.37,45.154L588.78,45.151L591.6,45.151L595.83,45.151L598.66,45.151L600.07,45.153L602.89,45.151L604.3,45.151L609.94,45.153L611.35,45.151L629.7,45.151L639.57,45.153L672.03,45.151L698.84,45.151L720,45.151" style="fill:none;stroke:#0000FF" />
</g>
</svg>
