<?xml version="1.0"?>
<!-- Generated by SVGo and Plotinum VG -->
<svg width="720pt" height="432pt" viewBox="0 0 720 432"
	xmlns="http://www.w3.org/2000/svg"
	xmlns:xlink="http://www.w3.org/1999/xlink">
<g transform="scale(1, -1) translate(0, -432)">
<path d="M0,0L720,0L720,432L0,432Z" style="fill:#FFFFFF" />
<text x="358.5" y="-420.45" transform="scale(1, -1)"
	style="font-family:Times;font-weight:normal;font-style:normal;font-size:12px"> </text>
<text x="376.81" y="-3.8613" transform="scale(1, -1)"
	style="font-family:Times;font-weight:normal;font-style:normal;font-size:12px">Costs</text>
<text x="57.805" y="-18.634" transform="scale(1, -1)"
	style="font-family:Times;font-weight:normal;font-style:normal;font-size:10px">0</text>
<text x="346.87" y="-18.634" transform="scale(1, -1)"
	style="font-family:Times;font-weight:normal;font-style:normal;font-size:10px">300</text>
<text x="640.94" y="-18.634" transform="scale(1, -1)"
	style="font-family:Times;font-weight:normal;font-style:normal;font-size:10px">600</text>
<path d="M60.305,28.263L60.305,36.263" style="fill:none;stroke:#000000;stroke-width:0.5" />
<path d="M354.37,28.263L354.37,36.263" style="fill:none;stroke:#000000;stroke-width:0.5" />
<path d="M648.44,28.263L648.44,36.263" style="fill:none;stroke:#000000;stroke-width:0.5" />
<path d="M158.33,32.263L158.33,36.263" style="fill:none;stroke:#000000;stroke-width:0.5" />
<path d="M256.35,32.263L256.35,36.263" style="fill:none;stroke:#000000;stroke-width:0.5" />
<path d="M452.4,32.263L452.4,36.263" style="fill:none;stroke:#000000;stroke-width:0.5" />
<path d="M550.42,32.263L550.42,36.263" style="fill:none;stroke:#000000;stroke-width:0.5" />
<path d="M60.305,36.263L720,36.263" style="fill:none;stroke:#000000;stroke-width:0.5" />
<g transform="rotate(90)">
<text x="152.55" y="11.555" transform="scale(1, -1)"
	style="font-family:Times;font-weight:normal;font-style:normal;font-size:12px">Number of trials (1000000 total)</text>
</g>
<text x="19.055" y="-110.59" transform="scale(1, -1)"
	style="font-family:Times;font-weight:normal;font-style:normal;font-size:10px">10000</text>
<text x="19.055" y="-247.89" transform="scale(1, -1)"
	style="font-family:Times;font-weight:normal;font-style:normal;font-size:10px">30000</text>
<text x="19.055" y="-385.18" transform="scale(1, -1)"
	style="font-family:Times;font-weight:normal;font-style:normal;font-size:10px">50000</text>
<path d="M46.555,113.79L54.555,113.79" style="fill:none;stroke:#000000;stroke-width:0.5" />
<path d="M46.555,251.09L54.555,251.09" style="fill:none;stroke:#000000;stroke-width:0.5" />
<path d="M46.555,388.39L54.555,388.39" style="fill:none;stroke:#000000;stroke-width:0.5" />
<path d="M50.555,182.44L54.555,182.44" style="fill:none;stroke:#000000;stroke-width:0.5" />
<path d="M50.555,319.74L54.555,319.74" style="fill:none;stroke:#000000;stroke-width:0.5" />
<path d="M54.555,45.151L54.555,416.58" style="fill:none;stroke:#000000;stroke-width:0.5" />
<path d="M60.305,416.58L86.771,78.378L87.751,51.817L88.731,94.881L90.692,76.833L91.672,94.75L92.652,89.066L93.633,81.11L94.613,55.366L96.573,127.68L97.553,48.488L98.534,79.27L99.514,55.202L100.49,97.894L102.45,105.71L103.43,128.36L104.42,51.872L105.4,110.25L109.32,48.762L110.3,90.268L112.26,59.54L114.22,45.68L115.2,114.24L116.18,56.224L117.16,48.309L118.14,83.835L119.12,54.398L120.1,56.005L121.08,63.742L122.06,88.304L123.04,58.517L124.02,56.094L125,64.14L125.98,117.54L126.96,62.739L127.94,59.698L128.92,71.121L129.9,67.833L130.88,67.407L131.86,188.6L132.84,68.197L133.82,75.666L134.8,72.975L135.78,70.05L136.76,80.979L137.74,58.881L138.72,110.76L139.7,130.66L140.68,60.508L141.66,80.107L142.64,65.911L143.62,78.254L144.6,56.732L145.58,76.146L146.56,75.837L147.55,68.938L148.53,80.89L149.51,58.881L150.49,62.767L151.47,67.524L152.45,70.634L153.43,70.352L154.41,76.098L155.39,73.545L156.37,59.856L157.35,75.426L158.33,95.718L159.31,64.517L160.29,89.094L161.27,64.812L162.25,86.107L163.23,77.519L164.21,83.615L165.19,88.991L166.17,77.67L167.15,70.764L168.13,106.64L169.11,75.316L170.09,82.888L171.07,86.897L172.05,91.606L173.03,73.256L174.01,83.547L174.99,96.164L175.97,86.808L176.95,89.252L177.93,70.641L178.91,68.705L179.89,75.227L180.87,76.764L181.85,98.773L182.83,74.396L183.81,80.162L184.79,74.382L185.77,62.774L186.75,86.615L187.73,70.277L188.71,72.055L189.7,82.558L190.68,70.071L191.66,70.366L192.64,66.714L193.62,84.467L194.6,79.05L195.58,68.54L196.56,74.293L197.54,94.689L198.52,72.728L199.5,70.497L200.48,79.229L201.46,78.405L202.44,72.275L203.42,74.622L204.4,78.94L205.38,83.499L206.36,71.574L207.34,76.462L208.32,77.815L209.3,71.993L210.28,86.485L211.26,92.416L212.24,70.922L213.22,79.085L214.2,74.169L215.18,75.597L216.16,70.833L217.14,73.201L218.12,81.879L219.1,70.984L220.08,75.618L221.06,69.529L222.04,68.959L223.02,73.195L224,72.638L224.98,71.533L225.96,74.773L226.94,74.3L227.92,67.545L228.9,68.471L229.88,74.574L230.86,68.41L231.85,70.579L232.83,69.24L233.81,72.652L234.79,66.508L235.77,67.174L236.75,73.6L237.73,72.082L238.71,69.735L239.69,72.748L240.67,70.359L241.65,69.467L242.63,71.554L243.61,70.14L244.59,69.954L245.57,66.508L246.55,67.991L247.53,72.954L248.51,67.133L249.49,67.703L250.47,67.682L251.45,67.6L252.43,67.442L253.41,69.343L254.39,68.533L255.37,67.95L256.35,66.721L257.33,62.616L258.31,64.263L259.29,64.737L260.27,65.877L261.25,65.897L262.23,63.35L263.21,65.732L264.19,61.16L265.17,64.044L266.15,65.787L267.13,62.787L268.11,63.048L269.09,64.112L270.07,62.382L271.05,61.792L272.03,62.719L273.01,64.51L273.99,61.476L274.98,60.796L275.96,64.037L276.94,63.838L277.92,60.206L278.9,62.005L279.88,61.462L280.86,60.68L281.84,60.899L282.82,61.133L283.8,61.572L284.78,60.227L285.76,60.028L286.74,59.554L287.72,60.357L288.7,58.813L289.68,60.79L290.66,58.256L291.64,59.211L292.62,59.986L293.6,58.421L294.58,58.284L295.56,58.346L296.54,57.632L297.52,57.783L298.5,57.797L299.48,57.337L300.46,56.609L301.44,56.527L302.42,56.623L303.4,56.932L304.38,56.355L305.36,56.822L306.34,56.108L307.32,55.078L308.3,56.183L309.28,56.458L310.26,55.744L311.24,55.607L312.22,55.366L313.2,55.051L314.18,54.79L315.16,55.009L316.14,55.504L317.13,54.055L318.11,54.083L319.09,54.797L320.07,53.671L321.05,53.87L322.03,53.513L323.01,53.753L323.99,53.307L324.97,53.513L325.95,53.314L326.93,53.067L327.91,53.094L328.89,52.943L329.87,52.641L330.85,52.662L331.83,52.977L332.81,52.339L333.79,51.721L334.77,52.565L335.75,52.003L336.73,51.481L337.71,51.742L338.69,51.927L339.67,51.57L340.65,51.138L341.63,51.268L342.61,51.117L343.59,50.822L344.57,51.282L345.55,50.973L346.53,50.959L347.51,51.048L348.49,50.918L349.47,50.575L350.45,50.369L351.43,50.444L352.41,50.122L353.39,50.032L354.37,49.957L355.35,50.074L356.33,49.442L357.31,49.6L358.29,49.785L359.28,49.641L360.26,49.469L361.24,49.195L362.22,49.366L363.2,49.003L364.18,49.312L365.16,48.831L366.14,48.968L367.12,49.202L368.1,48.845L369.08,48.948L370.06,48.927L371.04,48.604L372.02,48.92L373,48.412L373.98,48.309L374.96,48.316L375.94,48.433L376.92,48.014L377.9,48L378.88,47.966L379.86,48.254L380.84,48.062L381.82,47.939L382.8,47.918L383.78,47.911L384.76,47.527L385.74,47.65L386.72,47.41L387.7,47.719L388.68,47.691L389.66,47.513L390.64,47.245L391.62,47.279L392.6,47.197L393.58,47.362L394.56,47.128L395.54,47.177L396.52,47.122L397.5,47.245L398.48,47.328L399.46,46.895L400.44,47.053L401.42,46.737L402.41,46.792L403.39,46.751L404.37,46.675L405.35,46.586L406.33,46.84L407.31,46.737L408.29,46.703L409.27,46.717L410.25,46.723L411.23,46.593L412.21,46.593L413.19,46.421L414.17,46.435L415.15,46.593L416.13,46.483L417.11,46.435L418.09,46.243L419.07,46.263L420.05,46.236L421.03,46.312L422.01,46.38L422.99,46.126L423.97,46.215L424.95,46.051L425.93,46.161L426.91,46.085L427.89,46.058L428.87,45.982L429.85,46.209L430.83,46.071L431.81,45.989L432.79,45.948L433.77,45.961L434.75,45.927L435.73,45.845L436.71,45.907L437.69,45.831L438.67,45.742L439.65,45.831L440.63,45.927L441.61,45.858L442.59,45.776L443.57,45.68L444.56,45.653L445.54,45.755L446.52,45.632L447.5,45.707L448.48,45.611L449.46,45.632L450.44,45.632L451.42,45.735L452.4,45.577L453.38,45.646L454.36,45.694L455.34,45.639L456.32,45.508L457.3,45.639L458.28,45.501L459.26,45.591L460.24,45.556L461.22,45.508L462.2,45.598L463.18,45.556L464.16,45.46L465.14,45.529L466.12,45.508L467.1,45.419L468.08,45.501L469.06,45.501L470.04,45.57L471.02,45.488L472,45.46L472.98,45.419L473.96,45.337L474.94,45.433L475.92,45.488L476.9,45.378L477.88,45.412L478.86,45.399L479.84,45.405L480.82,45.323L481.8,45.385L482.78,45.385L483.76,45.364L484.74,45.35L485.72,45.344L486.71,45.405L487.69,45.364L488.67,45.33L489.65,45.309L490.63,45.268L491.61,45.33L492.59,45.316L493.57,45.296L494.55,45.282L495.53,45.282L496.51,45.268L497.49,45.241L498.47,45.35L499.45,45.309L500.43,45.275L501.41,45.261L502.39,45.241L503.37,45.323L504.35,45.247L505.33,45.227L506.31,45.275L507.29,45.247L508.27,45.22L509.25,45.206L510.23,45.22L511.21,45.234L512.19,45.234L513.17,45.199L514.15,45.22L515.13,45.254L516.11,45.296L517.09,45.213L518.07,45.22L519.05,45.227L520.03,45.234L521.01,45.199L521.99,45.213L522.97,45.227L523.95,45.213L524.93,45.193L525.91,45.22L526.89,45.199L527.87,45.193L528.85,45.186L529.84,45.199L530.82,45.172L531.8,45.22L532.78,45.22L533.76,45.234L534.74,45.186L535.72,45.199L536.7,45.186L537.68,45.193L538.66,45.186L539.64,45.179L540.62,45.179L541.6,45.199L542.58,45.199L543.56,45.199L544.54,45.179L545.52,45.179L546.5,45.165L547.48,45.206L548.46,45.165L550.42,45.179L551.4,45.151L552.38,45.158L553.36,45.179L554.34,45.158L555.32,45.165L556.3,45.158L557.28,45.151L558.26,45.165L560.22,45.165L561.2,45.151L562.18,45.165L563.16,45.151L564.14,45.172L565.12,45.179L566.1,45.165L567.08,45.172L568.06,45.158L569.04,45.151L570.02,45.158L571.99,45.165L572.97,45.151L573.95,45.151L574.93,45.158L575.91,45.158L577.87,45.158L579.83,45.151L580.81,45.172L581.79,45.151L582.77,45.158L583.75,45.151L586.69,45.158L587.67,45.151L589.63,45.158L590.61,45.151L594.53,45.158L595.51,45.151L596.49,45.158L597.47,45.158L606.29,45.151L610.21,45.151L612.17,45.151L614.14,45.151L619.04,45.151L621.98,45.151L622.96,45.151L624.92,45.151L634.72,45.151L637.66,45.151L643.54,45.151L650.4,45.151L654.32,45.151L691.57,45.151L704.32,45.151L720,45.151" style="fill:none;stroke:#0000FF" />
</g>
</svg>
