<?xml version="1.0"?>
<!-- Generated by SVGo and Plotinum VG -->
<svg width="720pt" height="432pt" viewBox="0 0 720 432"
	xmlns="http://www.w3.org/2000/svg"
	xmlns:xlink="http://www.w3.org/1999/xlink">
<g transform="scale(1, -1) translate(0, -432)">
<path d="M0,0L720,0L720,432L0,432Z" style="fill:#FFFFFF" />
<text x="358.5" y="-420.45" transform="scale(1, -1)"
	style="font-family:Times;font-weight:normal;font-style:normal;font-size:12px"> </text>
<text x="385.56" y="-3.8613" transform="scale(1, -1)"
	style="font-family:Times;font-weight:normal;font-style:normal;font-size:12px">Costs</text>
<text x="75.305" y="-18.634" transform="scale(1, -1)"
	style="font-family:Times;font-weight:normal;font-style:normal;font-size:10px">0</text>
<text x="357" y="-18.634" transform="scale(1, -1)"
	style="font-family:Times;font-weight:normal;font-style:normal;font-size:10px">200</text>
<text x="643.69" y="-18.634" transform="scale(1, -1)"
	style="font-family:Times;font-weight:normal;font-style:normal;font-size:10px">400</text>
<path d="M77.805,28.263L77.805,36.263" style="fill:none;stroke:#000000;stroke-width:0.5" />
<path d="M364.5,28.263L364.5,36.263" style="fill:none;stroke:#000000;stroke-width:0.5" />
<path d="M651.19,28.263L651.19,36.263" style="fill:none;stroke:#000000;stroke-width:0.5" />
<path d="M221.15,32.263L221.15,36.263" style="fill:none;stroke:#000000;stroke-width:0.5" />
<path d="M507.85,32.263L507.85,36.263" style="fill:none;stroke:#000000;stroke-width:0.5" />
<path d="M77.805,36.263L720,36.263" style="fill:none;stroke:#000000;stroke-width:0.5" />
<g transform="rotate(90)">
<text x="150.36" y="11.555" transform="scale(1, -1)"
	style="font-family:Times;font-weight:normal;font-style:normal;font-size:12px">Number of trials (1000000 total)</text>
</g>
<text x="24.055" y="-82.501" transform="scale(1, -1)"
	style="font-family:Times;font-weight:normal;font-style:normal;font-size:10px">25000.00</text>
<text x="19.055" y="-244.73" transform="scale(1, -1)"
	style="font-family:Times;font-weight:normal;font-style:normal;font-size:10px">125000.00</text>
<text x="19.055" y="-406.96" transform="scale(1, -1)"
	style="font-family:Times;font-weight:normal;font-style:normal;font-size:10px">225000.00</text>
<path d="M64.055,85.707L72.055,85.707" style="fill:none;stroke:#000000;stroke-width:0.5" />
<path d="M64.055,247.93L72.055,247.93" style="fill:none;stroke:#000000;stroke-width:0.5" />
<path d="M64.055,410.16L72.055,410.16" style="fill:none;stroke:#000000;stroke-width:0.5" />
<path d="M68.055,166.82L72.055,166.82" style="fill:none;stroke:#000000;stroke-width:0.5" />
<path d="M68.055,329.05L72.055,329.05" style="fill:none;stroke:#000000;stroke-width:0.5" />
<path d="M72.055,45.151L72.055,412.2" style="fill:none;stroke:#000000;stroke-width:0.5" />
<path d="M77.805,412.2L119.38,95.489L120.81,51.748L122.24,93.12L126.54,82.024L129.41,48.432L135.14,77.572L138.01,58.582L148.04,82.282L150.91,95.435L153.78,194.84L158.08,77.796L162.38,46.16L163.81,51.798L165.25,46.045L166.68,108.02L168.11,53.62L169.55,45.831L170.98,50.419L172.41,45.192L173.85,48.967L176.71,49.708L178.15,46.147L179.58,51.269L181.01,45.39L182.45,47.072L183.88,48.566L186.75,46.881L188.18,95.606L189.62,50.382L191.05,45.794L192.48,56.455L193.92,46.109L195.35,72.756L196.78,51.102L198.22,64.709L199.65,54.893L201.08,45.791L202.52,64.265L205.38,49.762L206.82,48.612L208.25,59.599L209.68,47.257L211.12,68.288L212.55,46.245L213.98,50.928L215.42,54.763L216.85,45.576L218.28,47.363L219.72,45.275L221.15,50.91L222.59,45.692L224.02,65.767L225.45,46.006L226.89,67.449L228.32,49.16L229.75,71.27L231.19,51.094L232.62,51.653L234.05,59.698L235.49,45.393L236.92,57.714L238.35,46.449L239.79,57.288L241.22,47.236L242.65,70.512L244.09,50.299L245.52,49.901L246.95,54.079L248.39,47.94L249.82,48.044L251.25,46.04L252.69,49.128L254.12,46.423L255.56,48.054L256.99,47.752L258.42,51.303L259.86,48.415L261.29,51.318L262.72,47.299L264.16,65.451L265.59,48.894L267.02,45.86L268.46,55.435L269.89,46.611L271.32,51.373L272.76,48.68L274.19,48.871L275.62,50.19L277.06,54.277L278.49,51.751L279.92,45.894L281.36,49.564L282.79,46.994L284.22,52.938L285.66,47.083L287.09,51.55L288.53,48.169L289.96,46.965L291.39,50.161L292.83,45.687L294.26,47.217L295.69,45.974L297.13,48.743L298.56,45.739L299.99,50.549L301.43,46.454L302.86,50.317L304.29,47.509L305.73,49.6L307.16,48.561L308.59,47.979L310.03,49.569L311.46,45.585L312.89,50.967L314.33,45.862L315.76,49.713L317.19,47.304L318.63,50.508L320.06,47.646L321.49,48.602L322.93,48.589L324.36,46.452L325.8,47.447L327.23,45.841L328.66,46.631L330.1,46.06L331.53,46.409L332.96,46.649L334.4,48.242L335.83,46.355L337.26,48.29L338.7,46.639L340.13,48.099L341.56,46.98L343,45.555L344.43,48.32L345.86,45.925L347.3,46.908L348.73,46.303L350.16,46.801L351.6,46.584L353.03,48.881L354.46,46.95L355.9,45.515L357.33,47.397L358.77,45.816L360.2,46.795L361.63,46.076L363.07,46.272L364.5,46.449L365.93,45.752L367.37,46.55L368.8,45.51L370.23,46L371.67,45.552L373.1,46.204L374.53,45.453L375.97,46.183L377.4,45.776L378.83,46.12L380.27,45.852L381.7,46.052L383.13,46.104L384.57,45.609L386,46.164L387.43,45.43L388.87,46.256L390.3,45.567L391.73,46.146L393.17,45.846L394.6,46.232L396.04,45.914L397.47,46.086L398.9,45.927L400.34,45.396L401.77,45.992L403.2,45.395L404.64,45.539L406.07,45.515L407.5,45.643L408.94,45.521L410.37,45.899L411.8,45.529L413.24,45.729L414.67,45.685L416.1,45.393L417.54,45.604L418.97,45.333L420.4,45.674L421.84,45.393L423.27,45.585L424.7,45.391L426.14,45.653L427.57,45.537L429.01,45.68L430.44,45.601L431.87,45.263L433.31,45.761L434.74,45.369L436.17,45.406L437.61,45.398L439.04,45.393L440.47,45.468L441.91,45.284L443.34,45.458L444.77,45.252L446.21,45.349L447.64,45.267L449.07,45.325L450.51,45.237L451.94,45.338L453.37,45.322L454.81,45.327L456.24,45.301L457.67,45.273L459.11,45.344L460.54,45.205L461.98,45.369L463.41,45.218L464.84,45.312L466.28,45.252L467.71,45.318L469.14,45.268L470.58,45.325L472.01,45.315L473.44,45.268L474.88,45.322L476.31,45.202L477.74,45.293L479.18,45.203L480.61,45.236L482.04,45.257L483.48,45.244L484.91,45.245L486.34,45.244L487.78,45.231L489.21,45.215L490.64,45.229L492.08,45.179L493.51,45.226L494.94,45.174L496.38,45.208L497.81,45.205L499.25,45.223L500.68,45.21L502.11,45.218L503.55,45.228L504.98,45.187L506.41,45.237L507.85,45.176L509.28,45.218L510.71,45.198L512.15,45.187L513.58,45.192L515.01,45.179L516.45,45.179L517.88,45.163L519.31,45.198L520.75,45.179L522.18,45.168L523.61,45.169L525.05,45.177L526.48,45.174L527.91,45.179L529.35,45.171L530.78,45.174L532.22,45.192L533.65,45.164L535.08,45.174L536.52,45.163L537.95,45.171L539.38,45.161L540.82,45.168L542.25,45.176L543.68,45.171L545.12,45.163L546.55,45.168L547.98,45.169L549.42,45.171L550.85,45.177L552.28,45.159L553.72,45.164L555.15,45.156L556.58,45.158L558.02,45.166L559.45,45.153L560.88,45.163L562.32,45.159L563.75,45.163L565.19,45.153L566.62,45.156L568.05,45.151L569.49,45.161L570.92,45.153L572.35,45.153L573.79,45.155L575.22,45.153L576.65,45.158L578.09,45.156L579.52,45.159L580.95,45.151L582.39,45.156L583.82,45.151L585.25,45.155L586.69,45.153L588.12,45.155L589.55,45.153L590.99,45.155L592.42,45.153L595.29,45.156L596.72,45.156L598.15,45.155L599.59,45.153L602.46,45.153L605.32,45.153L606.76,45.151L608.19,45.155L611.06,45.153L613.92,45.151L615.36,45.151L616.79,45.151L618.22,45.151L621.09,45.155L622.52,45.151L623.96,45.158L626.82,45.151L628.26,45.151L631.12,45.155L635.43,45.151L636.86,45.151L645.46,45.151L648.33,45.153L652.63,45.151L655.49,45.151L720,45.151" style="fill:none;stroke:#0000FF" />
</g>
</svg>
