<?xml version="1.0"?>
<!-- Generated by SVGo and Plotinum VG -->
<svg width="720pt" height="432pt" viewBox="0 0 720 432"
	xmlns="http://www.w3.org/2000/svg"
	xmlns:xlink="http://www.w3.org/1999/xlink">
<g transform="scale(1, -1) translate(0, -432)">
<path d="M0,0L720,0L720,432L0,432Z" style="fill:#FFFFFF" />
<text x="358.5" y="-420.45" transform="scale(1, -1)"
	style="font-family:Times;font-weight:normal;font-style:normal;font-size:12px"> </text>
<text x="376.81" y="-3.8613" transform="scale(1, -1)"
	style="font-family:Times;font-weight:normal;font-style:normal;font-size:12px">Costs</text>
<text x="51.555" y="-18.634" transform="scale(1, -1)"
	style="font-family:Times;font-weight:normal;font-style:normal;font-size:10px">0.00</text>
<text x="353.1" y="-18.634" transform="scale(1, -1)"
	style="font-family:Times;font-weight:normal;font-style:normal;font-size:10px">250.00</text>
<text x="659.65" y="-18.634" transform="scale(1, -1)"
	style="font-family:Times;font-weight:normal;font-style:normal;font-size:10px">500.00</text>
<path d="M60.305,28.263L60.305,36.263" style="fill:none;stroke:#000000;stroke-width:0.5" />
<path d="M366.85,28.263L366.85,36.263" style="fill:none;stroke:#000000;stroke-width:0.5" />
<path d="M673.4,28.263L673.4,36.263" style="fill:none;stroke:#000000;stroke-width:0.5" />
<path d="M121.61,32.263L121.61,36.263" style="fill:none;stroke:#000000;stroke-width:0.5" />
<path d="M182.92,32.263L182.92,36.263" style="fill:none;stroke:#000000;stroke-width:0.5" />
<path d="M244.23,32.263L244.23,36.263" style="fill:none;stroke:#000000;stroke-width:0.5" />
<path d="M305.54,32.263L305.54,36.263" style="fill:none;stroke:#000000;stroke-width:0.5" />
<path d="M428.16,32.263L428.16,36.263" style="fill:none;stroke:#000000;stroke-width:0.5" />
<path d="M489.47,32.263L489.47,36.263" style="fill:none;stroke:#000000;stroke-width:0.5" />
<path d="M550.78,32.263L550.78,36.263" style="fill:none;stroke:#000000;stroke-width:0.5" />
<path d="M612.09,32.263L612.09,36.263" style="fill:none;stroke:#000000;stroke-width:0.5" />
<path d="M60.305,36.263L720,36.263" style="fill:none;stroke:#000000;stroke-width:0.5" />
<g transform="rotate(90)">
<text x="152.55" y="11.555" transform="scale(1, -1)"
	style="font-family:Times;font-weight:normal;font-style:normal;font-size:12px">Number of trials (1000000 total)</text>
</g>
<text x="19.055" y="-84.802" transform="scale(1, -1)"
	style="font-family:Times;font-weight:normal;font-style:normal;font-size:10px">10000</text>
<text x="19.055" y="-213.39" transform="scale(1, -1)"
	style="font-family:Times;font-weight:normal;font-style:normal;font-size:10px">40000</text>
<text x="19.055" y="-341.97" transform="scale(1, -1)"
	style="font-family:Times;font-weight:normal;font-style:normal;font-size:10px">70000</text>
<path d="M46.555,88.008L54.555,88.008" style="fill:none;stroke:#000000;stroke-width:0.5" />
<path d="M46.555,216.59L54.555,216.59" style="fill:none;stroke:#000000;stroke-width:0.5" />
<path d="M46.555,345.17L54.555,345.17" style="fill:none;stroke:#000000;stroke-width:0.5" />
<path d="M50.555,130.87L54.555,130.87" style="fill:none;stroke:#000000;stroke-width:0.5" />
<path d="M50.555,173.73L54.555,173.73" style="fill:none;stroke:#000000;stroke-width:0.5" />
<path d="M50.555,259.45L54.555,259.45" style="fill:none;stroke:#000000;stroke-width:0.5" />
<path d="M50.555,302.31L54.555,302.31" style="fill:none;stroke:#000000;stroke-width:0.5" />
<path d="M50.555,388.03L54.555,388.03" style="fill:none;stroke:#000000;stroke-width:0.5" />
<path d="M54.555,45.151L54.555,416.58" style="fill:none;stroke:#000000;stroke-width:0.5" />
<path d="M60.305,416.58L88.507,48.61L89.733,58.961L92.186,52.005L93.412,63.222L94.638,66.706L95.864,72.647L97.091,48.842L98.317,98.423L99.543,71.147L100.77,87.404L102,113.31L103.22,78.48L104.45,56.505L105.67,59.244L106.9,59.81L108.13,58.828L109.35,84.266L110.58,135.13L111.81,55.695L113.03,108.26L114.26,74.567L116.71,71.545L117.94,45.293L120.39,60.17L121.61,107.23L122.84,61.254L124.07,46.326L125.29,75.617L126.52,60.71L127.75,60.097L128.97,62.814L130.2,50.273L131.42,54.962L132.65,62.78L133.88,77.734L135.1,83.332L136.33,91.321L137.56,83.572L138.78,58.653L140.01,63.612L141.23,60.054L142.46,69.321L143.69,65.069L144.91,65.9L146.14,63.924L147.36,63.539L148.59,72.647L149.82,70.174L151.04,87.507L152.27,78.236L153.5,67.718L154.72,88.381L155.95,68.973L157.17,64.126L158.4,65.005L159.63,77.717L160.85,70.551L162.08,70.962L163.31,84.283L164.53,70.692L165.76,65.193L166.98,74.185L168.21,63.496L169.44,67.645L170.66,71.554L171.89,74.888L173.12,69.132L174.34,76.17L175.57,79.676L176.79,70.589L178.02,76.851L179.25,69.745L180.47,61.053L181.7,65.656L182.92,67.718L184.15,69.672L185.38,71.485L186.6,76.226L187.83,73.427L189.06,70.564L190.28,71.147L191.51,64.649L192.73,67.632L193.96,66.149L195.19,66.458L196.41,68.836L197.64,69.741L198.87,68.956L200.09,66.89L201.32,70.049L202.54,67.602L203.77,68.622L205,69.994L206.22,63.294L207.45,65.493L208.67,65.875L209.9,66.278L211.13,68.793L212.35,68.558L213.58,67.413L214.81,64.053L216.03,68.356L217.26,65.965L218.48,62.947L219.71,65.407L220.94,64.692L222.16,63.17L223.39,64.735L224.62,65.515L225.84,65.489L227.07,65.879L228.29,67.306L229.52,64.49L230.75,64.186L231.97,63.98L233.2,61.781L234.43,61.974L235.65,62.741L236.88,63.766L238.1,63.663L239.33,63.084L240.56,63.29L241.78,60.757L243.01,61.64L244.23,61.138L245.46,60.873L246.69,61.258L247.91,60.496L249.14,61.224L250.37,61.031L251.59,60.821L252.82,60.701L254.04,60.903L255.27,59.428L256.5,58.421L257.72,59.111L258.95,59.09L260.18,57.842L261.4,59.475L262.63,59.227L263.85,58.455L265.08,58.168L266.31,58.494L267.53,57.397L268.76,57.572L269.98,57.885L271.21,56.852L272.44,57.375L273.66,57.118L274.89,56.874L276.12,56.797L277.34,56.492L278.57,56.904L279.79,55.862L281.02,56.231L282.25,55.828L283.47,55.249L284.7,55.438L285.93,55.202L287.15,54.649L288.38,54.937L289.6,55.057L290.83,54.967L292.06,54.298L293.28,54.829L294.51,54.002L295.73,54.002L296.96,53.792L298.19,53.659L299.41,53.719L300.64,53.475L301.87,53.552L303.09,53.402L304.32,53.291L305.54,52.935L306.77,52.348L308,52.695L309.22,51.988L310.45,52.288L311.68,52.253L312.9,52.219L314.13,51.893L315.35,52.078L316.58,51.435L317.81,51.666L319.03,51.413L320.26,51.306L321.49,51.062L322.71,51.285L323.94,50.985L325.16,50.856L326.39,50.856L327.62,50.603L328.84,50.41L330.07,50.595L331.29,50.419L332.52,50.012L333.75,50.003L334.97,49.978L336.2,49.81L337.43,49.725L338.65,49.797L339.88,49.686L341.1,49.57L342.33,49.416L343.56,49.343L344.78,49.202L346.01,49.266L347.24,49.039L348.46,49.009L349.69,48.855L350.91,48.867L352.14,48.657L353.37,48.709L354.59,48.52L355.82,48.705L357.04,48.649L358.27,48.083L359.5,48.224L360.72,48.224L361.95,47.787L363.18,48.177L364.4,48.259L365.63,47.852L366.85,47.826L368.08,48.036L369.31,47.676L370.53,47.612L371.76,47.684L372.99,47.522L374.21,47.509L375.44,47.56L376.66,47.492L377.89,47.492L379.12,47.286L380.34,47.509L381.57,47.517L382.8,47.119L384.02,47.157L385.25,47.003L386.47,47.097L387.7,46.973L388.93,46.909L390.15,46.874L391.38,46.896L392.6,46.883L393.83,46.896L395.06,46.742L396.28,46.742L397.51,46.694L398.74,46.669L399.96,46.527L401.19,46.493L402.41,46.54L403.64,46.54L404.87,46.57L406.09,46.489L407.32,46.373L408.55,46.377L409.77,46.424L411,46.253L412.22,46.313L413.45,46.154L414.68,46.257L415.9,46.124L417.13,46.197L418.35,46.12L419.58,46.171L420.81,46.086L422.03,45.97L423.26,45.961L424.49,46.017L425.71,46.013L426.94,45.944L428.16,45.906L429.39,45.863L430.62,45.906L431.84,45.914L433.07,45.901L434.3,45.876L435.52,45.807L436.75,45.901L437.97,45.803L439.2,45.76L440.43,45.79L441.65,45.824L442.88,45.79L444.11,45.687L445.33,45.653L446.56,45.781L447.78,45.7L449.01,45.674L450.24,45.567L451.46,45.606L452.69,45.529L453.91,45.529L455.14,45.503L456.37,45.567L457.59,45.576L458.82,45.576L460.05,45.537L461.27,45.644L462.5,45.464L463.72,45.473L464.95,45.469L466.18,45.451L467.4,45.447L468.63,45.456L469.86,45.439L471.08,45.426L472.31,45.434L473.53,45.409L474.76,45.439L475.99,45.361L477.21,45.413L478.44,45.413L479.66,45.357L480.89,45.37L482.12,45.374L483.34,45.391L484.57,45.374L485.8,45.336L487.02,45.323L488.25,45.293L489.47,45.319L490.7,45.289L491.93,45.331L493.15,45.327L494.38,45.344L495.61,45.323L496.83,45.319L498.06,45.301L499.28,45.276L500.51,45.301L501.74,45.319L502.96,45.259L504.19,45.297L505.42,45.284L506.64,45.241L507.87,45.267L509.09,45.259L510.32,45.293L511.55,45.254L512.77,45.25L514,45.229L515.22,45.211L516.45,45.246L517.68,45.25L518.9,45.229L520.13,45.211L521.36,45.216L522.58,45.203L523.81,45.25L525.03,45.229L526.26,45.224L527.49,45.216L528.71,45.229L529.94,45.19L531.17,45.203L532.39,45.186L533.62,45.211L534.84,45.194L536.07,45.181L537.3,45.211L538.52,45.177L539.75,45.211L540.97,45.199L542.2,45.19L543.43,45.186L544.65,45.194L545.88,45.19L547.11,45.194L548.33,45.177L549.56,45.19L550.78,45.169L552.01,45.194L553.24,45.177L554.46,45.19L555.69,45.177L556.92,45.19L558.14,45.177L559.37,45.186L560.59,45.177L561.82,45.151L563.05,45.164L564.27,45.16L565.5,45.173L566.73,45.164L567.95,45.173L569.18,45.169L570.4,45.186L571.63,45.169L572.86,45.169L574.08,45.164L575.31,45.173L576.53,45.173L577.76,45.169L578.99,45.156L580.21,45.16L581.44,45.19L582.67,45.169L583.89,45.16L585.12,45.16L586.34,45.169L587.57,45.151L588.8,45.164L590.02,45.173L591.25,45.16L592.48,45.151L593.7,45.16L594.93,45.156L596.15,45.151L597.38,45.151L598.61,45.151L602.28,45.151L604.74,45.151L605.96,45.151L607.19,45.156L608.42,45.156L609.64,45.156L610.87,45.156L612.09,45.151L614.55,45.151L615.77,45.151L619.45,45.156L623.13,45.156L625.58,45.151L626.81,45.151L632.94,45.151L634.17,45.156L637.84,45.151L640.3,45.151L641.52,45.156L646.43,45.151L664.82,45.151L667.27,45.151L675.86,45.156L720,45.151" style="fill:none;stroke:#0000FF" />
</g>
</svg>
