<?xml version="1.0"?>
<!-- Generated by SVGo and Plotinum VG -->
<svg width="720pt" height="432pt" viewBox="0 0 720 432"
	xmlns="http://www.w3.org/2000/svg"
	xmlns:xlink="http://www.w3.org/1999/xlink">
<g transform="scale(1, -1) translate(0, -432)">
<path d="M0,0L720,0L720,432L0,432Z" style="fill:#FFFFFF" />
<text x="358.5" y="-420.45" transform="scale(1, -1)"
	style="font-family:Times;font-weight:normal;font-style:normal;font-size:12px"> </text>
<text x="379.31" y="-3.8613" transform="scale(1, -1)"
	style="font-family:Times;font-weight:normal;font-style:normal;font-size:12px">Costs</text>
<text x="62.805" y="-18.634" transform="scale(1, -1)"
	style="font-family:Times;font-weight:normal;font-style:normal;font-size:10px">0</text>
<text x="337.59" y="-18.634" transform="scale(1, -1)"
	style="font-family:Times;font-weight:normal;font-style:normal;font-size:10px">200</text>
<text x="617.37" y="-18.634" transform="scale(1, -1)"
	style="font-family:Times;font-weight:normal;font-style:normal;font-size:10px">400</text>
<path d="M65.305,28.263L65.305,36.263" style="fill:none;stroke:#000000;stroke-width:0.5" />
<path d="M345.09,28.263L345.09,36.263" style="fill:none;stroke:#000000;stroke-width:0.5" />
<path d="M624.87,28.263L624.87,36.263" style="fill:none;stroke:#000000;stroke-width:0.5" />
<path d="M205.2,32.263L205.2,36.263" style="fill:none;stroke:#000000;stroke-width:0.5" />
<path d="M484.98,32.263L484.98,36.263" style="fill:none;stroke:#000000;stroke-width:0.5" />
<path d="M65.305,36.263L720,36.263" style="fill:none;stroke:#000000;stroke-width:0.5" />
<g transform="rotate(90)">
<text x="152.55" y="11.555" transform="scale(1, -1)"
	style="font-family:Times;font-weight:normal;font-style:normal;font-size:12px">Number of trials (1000000 total)</text>
</g>
<text x="24.055" y="-91.57" transform="scale(1, -1)"
	style="font-family:Times;font-weight:normal;font-style:normal;font-size:10px">40000</text>
<text x="19.055" y="-240.44" transform="scale(1, -1)"
	style="font-family:Times;font-weight:normal;font-style:normal;font-size:10px">160000</text>
<text x="19.055" y="-389.32" transform="scale(1, -1)"
	style="font-family:Times;font-weight:normal;font-style:normal;font-size:10px">280000</text>
<path d="M51.555,94.775L59.555,94.775" style="fill:none;stroke:#000000;stroke-width:0.5" />
<path d="M51.555,243.65L59.555,243.65" style="fill:none;stroke:#000000;stroke-width:0.5" />
<path d="M51.555,392.53L59.555,392.53" style="fill:none;stroke:#000000;stroke-width:0.5" />
<path d="M55.555,169.21L59.555,169.21" style="fill:none;stroke:#000000;stroke-width:0.5" />
<path d="M55.555,318.09L59.555,318.09" style="fill:none;stroke:#000000;stroke-width:0.5" />
<path d="M59.555,45.151L59.555,416.58" style="fill:none;stroke:#000000;stroke-width:0.5" />
<path d="M65.305,416.58L96.081,51.991L97.48,63.002L103.08,66.268L104.47,48.564L105.87,48.494L108.67,63.113L110.07,52.18L111.47,52.088L112.87,80.157L115.67,58.943L118.46,76.751L119.86,48.494L121.26,80.917L122.66,51.853L125.46,55.558L126.86,73.857L128.26,74.304L129.66,63.108L133.85,67.005L135.25,70.938L136.65,48.851L138.05,45.308L139.45,52.461L140.85,46.346L142.25,52.557L143.64,49.707L145.04,60.433L146.44,46.417L147.84,49.785L149.24,46.337L150.64,69.679L152.04,53.17L153.44,62.469L154.84,45.952L156.23,49.275L157.63,47.223L159.03,61.169L160.43,48.837L161.83,48.216L163.23,47.939L164.63,49.833L166.03,52.648L167.43,48.892L168.82,57.678L170.22,47.557L171.62,50.853L173.02,50.003L174.42,52.681L175.82,50.212L177.22,50.923L178.62,67.419L180.02,50.197L181.42,52.235L182.81,54.986L184.21,50.428L185.61,50.145L187.01,49.26L188.41,50.958L189.81,52.691L191.21,51.949L192.61,49.96L194.01,47.567L195.4,50.494L196.8,51.725L198.2,53.085L199.6,48.754L201,50.441L202.4,47.564L203.8,51.232L205.2,48.491L206.6,52.376L207.99,48.826L209.39,49.507L210.79,48.234L212.19,50.036L213.59,50.074L214.99,50.856L216.39,49.945L217.79,47.294L219.19,48.48L220.58,49.13L221.98,50.4L223.38,48.44L224.78,48.248L226.18,48.382L227.58,48.193L228.98,48.81L230.38,48.794L231.78,48.86L233.18,48.229L234.57,48.492L235.97,48.053L237.37,47.669L238.77,49.156L240.17,48.207L241.57,48.398L242.97,47.774L244.37,47.884L245.77,47.463L247.16,48.41L248.56,48.277L249.96,46.935L251.36,47.234L252.76,47.377L254.16,47.656L255.56,47.066L256.96,47.332L258.36,47.44L259.75,47.265L261.15,47.077L262.55,47.151L263.95,47.67L265.35,47.073L266.75,47.535L268.15,47.007L269.55,47.006L270.95,46.746L272.35,47.269L273.74,46.478L275.14,46.752L276.54,46.739L277.94,46.751L279.34,46.5L280.74,46.424L282.14,46.762L283.54,46.659L284.94,46.546L286.33,46.519L287.73,46.234L289.13,46.398L290.53,46.347L291.93,46.439L293.33,46.299L294.73,46.5L296.13,46.318L297.53,46.197L298.92,46.103L300.32,46.175L301.72,46.326L303.12,46.143L304.52,46.115L305.92,46.015L307.32,46.025L308.72,46.053L310.12,46.131L311.51,45.971L312.91,45.991L314.31,45.945L315.71,45.913L317.11,45.95L318.51,45.842L319.91,45.918L321.31,45.814L322.71,45.861L324.11,45.741L325.5,45.831L326.9,45.839L328.3,45.809L329.7,45.722L331.1,45.67L332.5,45.691L333.9,45.697L335.3,45.651L336.7,45.622L338.09,45.608L339.49,45.586L340.89,45.602L342.29,45.6L343.69,45.564L345.09,45.588L346.49,45.583L347.89,45.524L349.29,45.506L350.68,45.504L352.08,45.527L353.48,45.48L354.88,45.499L356.28,45.452L357.68,45.478L359.08,45.423L360.48,45.423L361.88,45.409L363.27,45.404L364.67,45.429L366.07,45.416L367.47,45.423L368.87,45.38L370.27,45.404L371.67,45.377L373.07,45.368L374.47,45.352L375.87,45.349L377.26,45.365L378.66,45.365L380.06,45.321L381.46,45.349L382.86,45.34L384.26,45.324L385.66,45.314L387.06,45.294L388.46,45.329L389.85,45.3L391.25,45.274L392.65,45.278L394.05,45.288L395.45,45.311L396.85,45.275L398.25,45.274L399.65,45.274L401.05,45.273L402.44,45.246L403.84,45.261L405.24,45.268L406.64,45.256L408.04,45.236L409.44,45.248L410.84,45.244L412.24,45.238L413.64,45.234L415.04,45.238L416.43,45.221L417.83,45.231L419.23,45.228L420.63,45.228L422.03,45.23L423.43,45.236L424.83,45.21L426.23,45.221L427.63,45.213L429.02,45.207L430.42,45.207L431.82,45.203L433.22,45.205L434.62,45.205L436.02,45.206L437.42,45.202L438.82,45.187L440.22,45.192L441.61,45.195L443.01,45.2L444.41,45.177L445.81,45.197L447.21,45.187L448.61,45.176L450.01,45.185L451.41,45.175L452.81,45.185L454.2,45.179L455.6,45.182L457,45.181L458.4,45.175L459.8,45.177L461.2,45.163L462.6,45.17L464,45.164L465.4,45.177L466.8,45.167L468.19,45.165L469.59,45.174L470.99,45.172L472.39,45.165L473.79,45.169L475.19,45.165L476.59,45.163L477.99,45.17L479.39,45.164L480.78,45.161L482.18,45.169L483.58,45.164L484.98,45.161L486.38,45.156L487.78,45.165L489.18,45.155L490.58,45.16L491.98,45.166L493.37,45.159L494.77,45.161L496.17,45.164L497.57,45.155L498.97,45.158L500.37,45.16L501.77,45.158L503.17,45.158L504.57,45.155L505.96,45.155L507.36,45.154L508.76,45.158L510.16,45.153L511.56,45.151L512.96,45.153L514.36,45.155L515.76,45.159L517.16,45.153L518.56,45.158L519.95,45.158L521.35,45.156L522.75,45.154L524.15,45.158L525.55,45.153L526.95,45.156L528.35,45.156L529.75,45.151L531.15,45.153L532.54,45.155L533.94,45.151L535.34,45.153L536.74,45.154L538.14,45.151L539.54,45.154L540.94,45.159L542.34,45.153L545.13,45.156L546.53,45.151L547.93,45.155L549.33,45.153L550.73,45.153L552.13,45.151L553.53,45.151L554.93,45.151L556.33,45.153L557.73,45.151L559.12,45.151L560.52,45.153L567.52,45.153L568.92,45.151L570.32,45.153L575.91,45.151L577.31,45.151L588.5,45.151L589.9,45.151L592.7,45.153L595.5,45.151L596.89,45.151L606.69,45.151L610.88,45.153L624.87,45.151L637.46,45.151L638.86,45.151L661.25,45.151L676.63,45.151L720,45.151" style="fill:none;stroke:#0000FF" />
</g>
</svg>
