<?xml version="1.0"?>
<!-- Generated by SVGo and Plotinum VG -->
<svg width="720pt" height="432pt" viewBox="0 0 720 432"
	xmlns="http://www.w3.org/2000/svg"
	xmlns:xlink="http://www.w3.org/1999/xlink">
<g transform="scale(1, -1) translate(0, -432)">
<path d="M0,0L720,0L720,432L0,432Z" style="fill:#FFFFFF" />
<text x="358.5" y="-420.45" transform="scale(1, -1)"
	style="font-family:Times;font-weight:normal;font-style:normal;font-size:12px"> </text>
<text x="379.31" y="-3.8613" transform="scale(1, -1)"
	style="font-family:Times;font-weight:normal;font-style:normal;font-size:12px">Costs</text>
<text x="56.555" y="-18.634" transform="scale(1, -1)"
	style="font-family:Times;font-weight:normal;font-style:normal;font-size:10px">0.00</text>
<text x="357.49" y="-18.634" transform="scale(1, -1)"
	style="font-family:Times;font-weight:normal;font-style:normal;font-size:10px">250.00</text>
<text x="663.42" y="-18.634" transform="scale(1, -1)"
	style="font-family:Times;font-weight:normal;font-style:normal;font-size:10px">500.00</text>
<path d="M65.305,28.263L65.305,36.263" style="fill:none;stroke:#000000;stroke-width:0.5" />
<path d="M371.24,28.263L371.24,36.263" style="fill:none;stroke:#000000;stroke-width:0.5" />
<path d="M677.17,28.263L677.17,36.263" style="fill:none;stroke:#000000;stroke-width:0.5" />
<path d="M126.49,32.263L126.49,36.263" style="fill:none;stroke:#000000;stroke-width:0.5" />
<path d="M187.68,32.263L187.68,36.263" style="fill:none;stroke:#000000;stroke-width:0.5" />
<path d="M248.86,32.263L248.86,36.263" style="fill:none;stroke:#000000;stroke-width:0.5" />
<path d="M310.05,32.263L310.05,36.263" style="fill:none;stroke:#000000;stroke-width:0.5" />
<path d="M432.42,32.263L432.42,36.263" style="fill:none;stroke:#000000;stroke-width:0.5" />
<path d="M493.61,32.263L493.61,36.263" style="fill:none;stroke:#000000;stroke-width:0.5" />
<path d="M554.8,32.263L554.8,36.263" style="fill:none;stroke:#000000;stroke-width:0.5" />
<path d="M615.98,32.263L615.98,36.263" style="fill:none;stroke:#000000;stroke-width:0.5" />
<path d="M65.305,36.263L720,36.263" style="fill:none;stroke:#000000;stroke-width:0.5" />
<g transform="rotate(90)">
<text x="152.55" y="11.555" transform="scale(1, -1)"
	style="font-family:Times;font-weight:normal;font-style:normal;font-size:12px">Number of trials (1000000 total)</text>
</g>
<text x="24.055" y="-109.72" transform="scale(1, -1)"
	style="font-family:Times;font-weight:normal;font-style:normal;font-size:10px">30000</text>
<text x="24.055" y="-245.28" transform="scale(1, -1)"
	style="font-family:Times;font-weight:normal;font-style:normal;font-size:10px">90000</text>
<text x="19.055" y="-380.84" transform="scale(1, -1)"
	style="font-family:Times;font-weight:normal;font-style:normal;font-size:10px">150000</text>
<path d="M51.555,112.93L59.555,112.93" style="fill:none;stroke:#000000;stroke-width:0.5" />
<path d="M51.555,248.49L59.555,248.49" style="fill:none;stroke:#000000;stroke-width:0.5" />
<path d="M51.555,384.04L59.555,384.04" style="fill:none;stroke:#000000;stroke-width:0.5" />
<path d="M55.555,180.71L59.555,180.71" style="fill:none;stroke:#000000;stroke-width:0.5" />
<path d="M55.555,316.26L59.555,316.26" style="fill:none;stroke:#000000;stroke-width:0.5" />
<path d="M59.555,45.151L59.555,416.58" style="fill:none;stroke:#000000;stroke-width:0.5" />
<path d="M65.305,416.58L92.227,55.483L97.122,48.427L98.345,58.886L99.569,55.447L100.79,51.922L103.24,52.268L104.46,48.482L105.69,69.491L106.91,94.747L108.14,84.883L110.58,67.207L111.81,74.296L113.03,48.527L114.25,80.48L115.48,55.716L116.7,74.802L117.93,62.243L119.15,69.647L121.6,48.427L124.04,52.083L125.27,52.309L126.49,66.142L127.71,81.912L130.16,106.66L131.39,48.816L132.61,71.992L133.83,50.461L135.06,72.157L136.28,45.513L137.5,72.215L138.73,47.454L139.95,80.505L141.18,74.893L142.4,58.432L143.62,48.371L144.85,48.608L146.07,48.909L147.29,50.732L148.52,51.85L149.74,53.712L150.97,50.388L152.19,56.669L153.41,53.764L154.64,66.963L155.86,51.954L157.08,56.877L158.31,52.758L159.53,56.455L160.76,55.872L161.98,53.368L163.2,67.218L164.43,82.755L165.65,54.439L166.87,53.906L168.1,58.163L169.32,56.857L170.55,58.721L171.77,58.14L172.99,61.258L174.22,55.976L175.44,59.254L176.66,60.067L177.89,56.245L179.11,62.069L180.34,58.569L181.56,64.035L182.78,59.484L184.01,61.764L185.23,52.221L186.45,58.133L187.68,53.063L188.9,57.336L190.13,53.933L191.35,57.446L192.57,57.189L193.8,54.06L195.02,57.381L196.24,53.658L197.47,57.379L198.69,51.739L199.91,57.069L201.14,52.392L202.36,59.877L203.59,54.661L204.81,60.582L206.03,59.909L207.26,58.42L208.48,52.908L209.7,55.438L210.93,53.804L212.15,53.893L213.38,54.794L214.6,54.048L215.82,55.637L217.05,55.522L218.27,52.876L219.49,53.31L220.72,50.727L221.94,52.84L223.17,51.613L224.39,53.942L225.61,53.947L226.84,54.821L228.06,53.389L229.28,57.252L230.51,53.402L231.73,53.414L232.96,52.817L234.18,53.253L235.4,52.426L236.63,52.731L237.85,52.837L239.07,54.27L240.3,53.917L241.52,52.029L242.75,51.326L243.97,51.769L245.19,51.807L246.42,52.02L247.64,51.62L248.86,52.087L250.09,50.705L251.31,52.054L252.54,51.082L253.76,52.494L254.98,50.585L256.21,51.455L257.43,50.583L258.65,51.222L259.88,50.544L261.1,50.074L262.33,51.288L263.55,49.869L264.77,50.294L266,49.941L267.22,50.831L268.44,50.253L269.67,50.565L270.89,50.388L272.11,50.465L273.34,49.887L274.56,50.282L275.79,49.891L277.01,49.638L278.23,50.131L279.46,49.887L280.68,50.217L281.9,49.799L283.13,49.435L284.35,48.94L285.58,48.902L286.8,48.99L288.02,48.843L289.25,48.809L290.47,48.931L291.69,49.019L292.92,48.637L294.14,48.931L295.37,48.454L296.59,48.676L297.81,48.326L299.04,48.522L300.26,48.416L301.48,48.54L302.71,48.427L303.93,48.477L305.16,48.459L306.38,48.206L307.6,47.966L308.83,47.894L310.05,47.736L311.27,47.756L312.5,47.598L313.72,47.817L314.95,47.68L316.17,47.704L317.39,47.379L318.62,47.578L319.84,47.268L321.06,47.497L322.29,47.275L323.51,47.546L324.74,47.368L325.96,47.164L327.18,47.083L328.41,47.205L329.63,47.248L330.85,47.099L332.08,47.126L333.3,46.792L334.53,47.09L335.75,46.866L336.97,46.984L338.2,46.945L339.42,46.812L340.64,46.837L341.87,46.803L343.09,46.853L344.32,46.706L345.54,46.713L346.76,46.654L347.99,46.638L349.21,46.582L350.43,46.527L351.66,46.446L352.88,46.392L354.1,46.459L355.33,46.518L356.55,46.439L357.78,46.342L359,46.274L360.22,46.177L361.45,46.107L362.67,46.206L363.89,46.218L365.12,46.2L366.34,46.222L367.57,46.188L368.79,46.145L370.01,46.103L371.24,46.114L372.46,45.967L373.68,45.99L374.91,46.012L376.13,46.098L377.36,45.976L378.58,45.949L379.8,45.91L381.03,45.981L382.25,45.877L383.47,45.888L384.7,45.929L385.92,45.877L387.15,45.793L388.37,45.852L389.59,45.795L390.82,45.795L392.04,45.714L393.26,45.705L394.49,45.734L395.71,45.68L396.94,45.718L398.16,45.68L399.38,45.662L400.61,45.596L401.83,45.615L403.05,45.599L404.28,45.592L405.5,45.596L406.73,45.603L407.95,45.567L409.17,45.522L410.4,45.508L411.62,45.569L412.84,45.517L414.07,45.544L415.29,45.54L416.52,45.504L417.74,45.486L418.96,45.524L420.19,45.499L421.41,45.465L422.63,45.456L423.86,45.45L425.08,45.438L426.3,45.425L427.53,45.438L428.75,45.459L429.98,45.357L431.2,45.386L432.42,45.438L433.65,45.391L434.87,45.359L436.09,45.386L437.32,45.334L438.54,45.427L439.77,45.343L440.99,45.373L442.21,45.368L443.44,45.38L444.66,45.314L445.88,45.364L447.11,45.337L448.33,45.35L449.56,45.296L450.78,45.291L452,45.307L453.23,45.307L454.45,45.325L455.67,45.33L456.9,45.303L458.12,45.269L459.35,45.282L460.57,45.289L461.79,45.251L463.02,45.278L464.24,45.289L465.46,45.262L466.69,45.249L467.91,45.253L469.14,45.249L470.36,45.255L471.58,45.249L472.81,45.246L474.03,45.233L475.25,45.228L476.48,45.228L477.7,45.242L478.93,45.235L480.15,45.215L481.37,45.224L482.6,45.219L483.82,45.21L485.04,45.212L486.27,45.217L487.49,45.194L488.72,45.221L489.94,45.208L491.16,45.201L492.39,45.192L493.61,45.206L494.83,45.19L496.06,45.21L497.28,45.221L498.5,45.203L499.73,45.19L500.95,45.19L502.18,45.194L503.4,45.19L504.62,45.174L505.85,45.203L507.07,45.19L508.29,45.197L509.52,45.19L510.74,45.194L511.97,45.188L513.19,45.172L514.41,45.185L515.64,45.178L516.86,45.183L518.08,45.169L519.31,45.172L520.53,45.178L521.76,45.181L522.98,45.167L524.2,45.178L525.43,45.174L526.65,45.167L527.87,45.174L529.1,45.183L530.32,45.158L531.55,45.178L532.77,45.176L533.99,45.174L535.22,45.167L536.44,45.163L537.66,45.165L538.89,45.16L540.11,45.165L541.34,45.163L542.56,45.172L543.78,45.169L545.01,45.167L546.23,45.158L547.45,45.163L548.68,45.163L549.9,45.158L551.13,45.172L552.35,45.156L553.57,45.156L554.8,45.165L556.02,45.158L557.24,45.176L558.47,45.156L559.69,45.156L560.92,45.158L562.14,45.154L563.36,45.156L564.59,45.16L565.81,45.158L567.03,45.158L568.26,45.158L569.48,45.163L570.7,45.154L571.93,45.154L573.15,45.154L574.38,45.154L575.6,45.167L576.82,45.151L578.05,45.154L579.27,45.154L580.49,45.158L581.72,45.151L582.94,45.151L584.17,45.154L585.39,45.151L586.61,45.16L587.84,45.154L589.06,45.151L590.28,45.151L591.51,45.158L592.73,45.154L595.18,45.151L596.4,45.156L597.63,45.156L600.07,45.151L601.3,45.151L604.97,45.151L606.19,45.151L608.64,45.154L609.86,45.151L611.09,45.151L612.31,45.158L615.98,45.156L617.21,45.151L619.65,45.151L623.33,45.151L627,45.151L628.22,45.151L631.89,45.154L633.12,45.154L635.56,45.154L638.01,45.151L639.23,45.151L640.46,45.151L652.69,45.151L660.04,45.151L662.48,45.151L679.62,45.151L685.74,45.151L700.42,45.151L715.11,45.151L720,45.151" style="fill:none;stroke:#0000FF" />
</g>
</svg>
