<?xml version="1.0"?>
<!-- Generated by SVGo and Plotinum VG -->
<svg width="720pt" height="432pt" viewBox="0 0 720 432"
	xmlns="http://www.w3.org/2000/svg"
	xmlns:xlink="http://www.w3.org/1999/xlink">
<g transform="scale(1, -1) translate(0, -432)">
<path d="M0,0L720,0L720,432L0,432Z" style="fill:#FFFFFF" />
<text x="358.5" y="-420.45" transform="scale(1, -1)"
	style="font-family:Times;font-weight:normal;font-style:normal;font-size:12px"> </text>
<text x="385.56" y="-3.8613" transform="scale(1, -1)"
	style="font-family:Times;font-weight:normal;font-style:normal;font-size:12px">Costs</text>
<text x="75.305" y="-18.634" transform="scale(1, -1)"
	style="font-family:Times;font-weight:normal;font-style:normal;font-size:10px">0</text>
<text x="351.35" y="-18.634" transform="scale(1, -1)"
	style="font-family:Times;font-weight:normal;font-style:normal;font-size:10px">200</text>
<text x="632.4" y="-18.634" transform="scale(1, -1)"
	style="font-family:Times;font-weight:normal;font-style:normal;font-size:10px">400</text>
<path d="M77.805,28.263L77.805,36.263" style="fill:none;stroke:#000000;stroke-width:0.5" />
<path d="M358.85,28.263L358.85,36.263" style="fill:none;stroke:#000000;stroke-width:0.5" />
<path d="M639.9,28.263L639.9,36.263" style="fill:none;stroke:#000000;stroke-width:0.5" />
<path d="M218.33,32.263L218.33,36.263" style="fill:none;stroke:#000000;stroke-width:0.5" />
<path d="M499.38,32.263L499.38,36.263" style="fill:none;stroke:#000000;stroke-width:0.5" />
<path d="M77.805,36.263L720,36.263" style="fill:none;stroke:#000000;stroke-width:0.5" />
<g transform="rotate(90)">
<text x="152.55" y="11.555" transform="scale(1, -1)"
	style="font-family:Times;font-weight:normal;font-style:normal;font-size:12px">Number of trials (1000000 total)</text>
</g>
<text x="24.055" y="-92.484" transform="scale(1, -1)"
	style="font-family:Times;font-weight:normal;font-style:normal;font-size:10px">25000.00</text>
<text x="19.055" y="-244.11" transform="scale(1, -1)"
	style="font-family:Times;font-weight:normal;font-style:normal;font-size:10px">100000.00</text>
<text x="19.055" y="-395.73" transform="scale(1, -1)"
	style="font-family:Times;font-weight:normal;font-style:normal;font-size:10px">175000.00</text>
<path d="M64.055,95.69L72.055,95.69" style="fill:none;stroke:#000000;stroke-width:0.5" />
<path d="M64.055,247.31L72.055,247.31" style="fill:none;stroke:#000000;stroke-width:0.5" />
<path d="M64.055,398.93L72.055,398.93" style="fill:none;stroke:#000000;stroke-width:0.5" />
<path d="M68.055,171.5L72.055,171.5" style="fill:none;stroke:#000000;stroke-width:0.5" />
<path d="M68.055,323.12L72.055,323.12" style="fill:none;stroke:#000000;stroke-width:0.5" />
<path d="M72.055,45.151L72.055,416.58" style="fill:none;stroke:#000000;stroke-width:0.5" />
<path d="M77.805,416.58L108.72,67.367L110.13,59.507L114.34,52.09L115.75,70.454L118.56,55.68L119.96,48.487L121.37,77.249L122.77,91.705L124.18,58.706L125.58,91.206L126.99,74.572L128.39,59.394L129.8,67.349L131.2,66.186L132.61,48.487L134.01,69.795L135.42,55.68L136.82,72.775L138.23,55.318L141.04,74.544L145.26,59.735L146.66,64.223L148.07,46.235L149.47,56.28L150.88,45.736L152.28,92.823L153.69,73.875L155.09,47.935L156.5,63.049L157.9,59.845L159.31,50.246L160.71,53.642L162.12,50.062L163.52,54.887L164.93,50.408L166.33,67.978L167.74,52.985L169.15,54.726L170.55,54.91L171.96,70.304L173.36,54.376L174.77,56.885L176.17,52.745L177.58,81.055L178.98,56.262L180.39,56.863L181.79,55.482L183.2,56.187L184.6,58.433L186.01,66.328L187.41,52.542L188.82,55.049L190.22,67.99L191.63,63.358L193.03,53.863L194.44,55.769L195.84,53.842L197.25,60.4L198.66,55.29L200.06,57.534L201.47,58.395L202.87,55.468L204.28,56.274L205.68,55.595L207.09,51.412L208.49,55.937L209.9,56.127L211.3,54.657L212.71,53.573L214.11,52.514L215.52,57.081L216.92,54.855L218.33,51.408L219.73,54.156L221.14,56.319L222.54,55.526L223.95,53.861L225.36,55.061L226.76,54.649L228.17,56.07L229.57,54.831L230.98,55.211L232.38,53.414L233.79,54.833L235.19,55.405L236.6,53.913L238,53.701L239.41,53.137L240.81,55.652L242.22,52.767L243.62,51.962L245.03,53.064L246.43,54.839L247.84,52.189L249.24,53.036L250.65,51.473L252.05,53.784L253.46,53.127L254.87,51.608L256.27,51.101L257.68,51.73L259.08,51.22L260.49,52.813L261.89,50.812L263.3,50.454L264.7,51.714L266.11,53.442L267.51,50.535L268.92,51.192L270.32,50.337L271.73,51.932L273.13,50.359L274.54,50.723L275.94,50.042L277.35,50.203L278.75,50.557L280.16,51.182L281.56,49.747L282.97,50.001L284.38,50.555L285.78,51.034L287.19,49.411L288.59,49.625L290,50.266L291.4,50.42L292.81,49.168L294.21,49.476L295.62,49.265L297.02,49.579L298.43,49.613L299.83,49.455L301.24,49.217L302.64,49.096L304.05,49.211L305.45,48.91L306.86,48.42L308.26,48.54L309.67,48.916L311.07,48.562L312.48,48.39L313.89,48.489L315.29,48.445L316.7,48.554L318.1,48.022L319.51,48.246L320.91,48.069L322.32,48.05L323.72,47.907L325.13,47.913L326.53,47.717L327.94,47.927L329.34,47.899L330.75,47.658L332.15,47.563L333.56,47.65L334.96,47.68L336.37,47.567L337.77,47.507L339.18,47.401L340.58,47.543L341.99,47.325L343.4,47.308L344.8,47.219L346.21,47.124L347.61,47.197L349.02,47.219L350.42,47.009L351.83,47.044L353.23,46.884L354.64,46.977L356.04,46.829L357.45,46.75L358.85,46.872L360.26,46.868L361.66,46.67L363.07,46.564L364.47,46.599L365.88,46.74L367.28,46.453L368.69,46.49L370.09,46.502L371.5,46.455L372.91,46.401L374.31,46.467L375.72,46.312L377.12,46.389L378.53,46.358L379.93,46.324L381.34,46.182L382.74,46.136L384.15,46.219L385.55,46.108L386.96,46.172L388.36,46.1L389.77,46.057L391.17,46.087L392.58,46.035L393.98,46.039L395.39,46.081L396.79,45.99L398.2,46.004L399.6,45.92L401.01,45.881L402.42,45.881L403.82,45.879L405.23,45.831L406.63,45.869L408.04,45.8L409.44,45.839L410.85,45.802L412.25,45.784L413.66,45.736L415.06,45.707L416.47,45.588L417.87,45.75L419.28,45.685L420.68,45.695L422.09,45.703L423.49,45.697L424.9,45.63L426.3,45.604L427.71,45.616L429.12,45.61L430.52,45.572L431.93,45.578L433.33,45.6L434.74,45.59L436.14,45.586L437.55,45.535L438.95,45.509L440.36,45.497L441.76,45.537L443.17,45.455L444.57,45.529L445.98,45.447L447.38,45.438L448.79,45.408L450.19,45.447L451.6,45.432L453,45.426L454.41,45.42L455.81,45.402L457.22,45.42L458.63,45.398L460.03,45.366L461.44,45.41L462.84,45.38L464.25,45.368L465.65,45.317L467.06,45.364L468.46,45.364L469.87,45.325L471.27,45.337L472.68,45.329L474.08,45.293L475.49,45.356L476.89,45.323L478.3,45.287L479.7,45.339L481.11,45.281L482.51,45.337L483.92,45.293L485.32,45.265L486.73,45.291L488.14,45.281L489.54,45.291L490.95,45.261L492.35,45.271L493.76,45.269L495.16,45.289L496.57,45.261L497.97,45.273L499.38,45.244L500.78,45.254L502.19,45.252L503.59,45.242L505,45.228L506.4,45.222L507.81,45.222L509.21,45.22L510.62,45.224L512.02,45.224L513.43,45.222L514.83,45.23L516.24,45.228L517.65,45.2L519.05,45.224L520.46,45.21L521.86,45.214L523.27,45.208L524.67,45.21L526.08,45.208L527.48,45.208L528.89,45.22L530.29,45.2L531.7,45.2L533.1,45.192L534.51,45.178L535.91,45.218L537.32,45.188L538.72,45.184L540.13,45.192L541.53,45.172L542.94,45.182L544.34,45.192L545.75,45.188L547.16,45.176L548.56,45.184L549.97,45.182L551.37,45.178L552.78,45.184L554.18,45.166L555.59,45.159L556.99,45.17L558.4,45.174L559.8,45.17L561.21,45.172L562.61,45.174L564.02,45.161L565.42,45.163L566.83,45.163L568.23,45.182L569.64,45.166L571.04,45.161L572.45,45.174L573.85,45.18L575.26,45.166L576.67,45.168L578.07,45.163L579.48,45.174L580.88,45.163L582.29,45.161L583.69,45.159L585.1,45.172L586.5,45.161L587.91,45.161L589.31,45.161L590.72,45.161L592.12,45.159L593.53,45.159L594.93,45.161L596.34,45.159L597.74,45.166L599.15,45.161L600.55,45.155L601.96,45.157L603.36,45.163L604.77,45.163L606.18,45.153L607.58,45.151L608.99,45.155L610.39,45.159L611.8,45.168L613.2,45.159L614.61,45.157L616.01,45.153L617.42,45.157L618.82,45.157L620.23,45.153L621.63,45.153L623.04,45.155L624.44,45.155L625.85,45.151L627.25,45.157L628.66,45.153L630.06,45.153L631.47,45.153L632.88,45.157L634.28,45.153L635.69,45.151L637.09,45.151L638.5,45.157L639.9,45.151L641.31,45.151L642.71,45.151L644.12,45.153L645.52,45.151L646.93,45.157L648.33,45.151L651.14,45.153L652.55,45.151L653.95,45.151L656.76,45.153L658.17,45.151L659.57,45.151L660.98,45.151L663.79,45.153L666.6,45.151L668.01,45.151L669.41,45.153L672.22,45.151L673.63,45.155L675.03,45.151L676.44,45.153L687.68,45.151L689.08,45.151L693.3,45.151L697.52,45.151L704.54,45.151L710.16,45.151L715.78,45.151L720,45.151" style="fill:none;stroke:#0000FF" />
</g>
</svg>
