<?xml version="1.0"?>
<!-- Generated by SVGo and Plotinum VG -->
<svg width="720pt" height="432pt" viewBox="0 0 720 432"
	xmlns="http://www.w3.org/2000/svg"
	xmlns:xlink="http://www.w3.org/1999/xlink">
<g transform="scale(1, -1) translate(0, -432)">
<path d="M0,0L720,0L720,432L0,432Z" style="fill:#FFFFFF" />
<text x="358.5" y="-420.45" transform="scale(1, -1)"
	style="font-family:Times;font-weight:normal;font-style:normal;font-size:12px"> </text>
<text x="379.31" y="-3.8613" transform="scale(1, -1)"
	style="font-family:Times;font-weight:normal;font-style:normal;font-size:12px">Costs</text>
<text x="62.805" y="-18.634" transform="scale(1, -1)"
	style="font-family:Times;font-weight:normal;font-style:normal;font-size:10px">0</text>
<text x="324.48" y="-18.634" transform="scale(1, -1)"
	style="font-family:Times;font-weight:normal;font-style:normal;font-size:10px">200</text>
<text x="591.16" y="-18.634" transform="scale(1, -1)"
	style="font-family:Times;font-weight:normal;font-style:normal;font-size:10px">400</text>
<path d="M65.305,28.263L65.305,36.263" style="fill:none;stroke:#000000;stroke-width:0.5" />
<path d="M331.98,28.263L331.98,36.263" style="fill:none;stroke:#000000;stroke-width:0.5" />
<path d="M598.66,28.263L598.66,36.263" style="fill:none;stroke:#000000;stroke-width:0.5" />
<path d="M198.64,32.263L198.64,36.263" style="fill:none;stroke:#000000;stroke-width:0.5" />
<path d="M465.32,32.263L465.32,36.263" style="fill:none;stroke:#000000;stroke-width:0.5" />
<path d="M65.305,36.263L720,36.263" style="fill:none;stroke:#000000;stroke-width:0.5" />
<g transform="rotate(90)">
<text x="152.55" y="11.555" transform="scale(1, -1)"
	style="font-family:Times;font-weight:normal;font-style:normal;font-size:12px">Number of trials (1000000 total)</text>
</g>
<text x="24.055" y="-108.12" transform="scale(1, -1)"
	style="font-family:Times;font-weight:normal;font-style:normal;font-size:10px">30000</text>
<text x="24.055" y="-240.47" transform="scale(1, -1)"
	style="font-family:Times;font-weight:normal;font-style:normal;font-size:10px">90000</text>
<text x="19.055" y="-372.82" transform="scale(1, -1)"
	style="font-family:Times;font-weight:normal;font-style:normal;font-size:10px">150000</text>
<path d="M51.555,111.32L59.555,111.32" style="fill:none;stroke:#000000;stroke-width:0.5" />
<path d="M51.555,243.67L59.555,243.67" style="fill:none;stroke:#000000;stroke-width:0.5" />
<path d="M51.555,376.02L59.555,376.02" style="fill:none;stroke:#000000;stroke-width:0.5" />
<path d="M55.555,177.5L59.555,177.5" style="fill:none;stroke:#000000;stroke-width:0.5" />
<path d="M55.555,309.85L59.555,309.85" style="fill:none;stroke:#000000;stroke-width:0.5" />
<path d="M59.555,45.151L59.555,416.58" style="fill:none;stroke:#000000;stroke-width:0.5" />
<path d="M65.305,416.58L94.639,66.901L95.973,66.625L99.973,52.259L102.64,55.514L103.97,82.975L106.64,59.538L107.97,59.419L109.31,79.101L110.64,63.314L111.97,66.358L113.31,48.467L114.64,67.035L115.97,52.148L117.31,70.47L118.64,133.61L121.31,91.813L122.64,78.949L123.97,52.444L125.31,49.748L126.64,52.12L129.31,45.575L130.64,56.253L131.97,60.012L133.31,55.038L134.64,47.49L135.97,101.14L137.31,72.951L138.64,48.727L139.97,62.544L141.31,55.801L142.64,77.551L143.97,47.423L145.31,48.588L146.64,56.765L147.97,84.183L149.31,70.968L150.64,51.652L151.98,53.181L153.31,53.278L154.64,49.795L155.98,54.647L157.31,57.2L158.64,50.07L159.98,58.051L161.31,57.31L162.64,58.501L163.98,54.729L165.31,60.486L166.64,57.705L167.98,58.205L169.31,52.711L170.64,59.646L171.98,62.959L173.31,75.861L174.64,67.104L175.98,59.511L177.31,56.216L178.64,60.116L179.98,57.683L181.31,56.192L182.64,53.71L183.98,55.358L185.31,57.616L186.64,58.938L187.98,57.396L189.31,67.821L190.64,57.524L191.98,60.879L193.31,62.869L194.64,56.897L195.98,58.673L197.31,53.209L198.64,54.753L199.98,54.442L201.31,59.008L202.64,57.828L203.98,56.701L205.31,55.12L206.64,54.07L207.98,54.899L209.31,51.903L210.64,53.275L211.98,53.783L213.31,55.878L214.64,54.522L215.98,52.845L217.31,54.939L218.64,57.928L219.98,56.547L221.31,52.596L222.64,53.009L223.98,53.602L225.31,55.711L226.65,57.31L227.98,52.375L229.31,54.703L230.65,54.758L231.98,54.131L233.31,52.34L234.65,51.998L235.98,51.354L237.31,51.676L238.65,52.188L239.98,52.305L241.31,52.159L242.65,52.975L243.98,54.663L245.31,54.233L246.65,52.259L247.98,52.51L249.31,52.45L250.65,53.128L251.98,51.017L253.31,50.646L254.65,51.423L255.98,52.885L257.31,52.02L258.65,51.067L259.98,51.034L261.31,50.666L262.65,50.262L263.98,50.712L265.31,50.317L266.65,50.143L267.98,50.152L269.31,50.15L270.65,50.587L271.98,50.392L273.31,50.331L274.65,50.02L275.98,49.801L277.31,49.448L278.65,49.863L279.98,49.526L281.31,48.908L282.65,49.592L283.98,49.331L285.31,49.292L286.65,48.983L287.98,48.959L289.31,48.948L290.65,48.557L291.98,48.533L293.31,48.619L294.65,48.773L295.98,48.992L297.31,49.109L298.65,48.352L299.98,48.678L301.32,48.782L302.65,48.599L303.98,48.297L305.32,47.909L306.65,47.966L307.98,47.957L309.32,48.162L310.65,47.82L311.98,47.842L313.32,47.931L314.65,47.679L315.98,47.737L317.32,47.412L318.65,47.322L319.98,47.289L321.32,47.481L322.65,47.291L323.98,47.238L325.32,47.357L326.65,47.404L327.98,47.269L329.32,47.227L330.65,46.956L331.98,46.958L333.32,47.024L334.65,46.898L335.98,46.967L337.32,46.828L338.65,46.916L339.98,46.848L341.32,46.797L342.65,46.656L343.98,46.594L345.32,46.548L346.65,46.587L347.98,46.532L349.32,46.625L350.65,46.532L351.98,46.493L353.32,46.484L354.65,46.44L355.98,46.356L357.32,46.442L358.65,46.228L359.98,46.292L361.32,46.243L362.65,46.162L363.98,46.197L365.32,46.204L366.65,46.173L367.98,46.188L369.32,46.076L370.65,46.056L371.98,46.016L373.32,45.901L374.65,45.934L375.98,45.968L377.32,45.873L378.65,45.987L379.99,45.921L381.32,45.886L382.65,45.888L383.99,45.844L385.32,45.829L386.65,45.756L387.99,45.824L389.32,45.749L390.65,45.725L391.99,45.736L393.32,45.679L394.65,45.707L395.99,45.643L397.32,45.701L398.65,45.665L399.99,45.668L401.32,45.621L402.65,45.548L403.99,45.643L405.32,45.597L406.65,45.577L407.99,45.579L409.32,45.52L410.65,45.515L411.99,45.551L413.32,45.5L414.65,45.502L415.99,45.456L417.32,45.46L418.65,45.423L419.99,45.436L421.32,45.484L422.65,45.425L423.99,45.473L425.32,45.403L426.65,45.383L427.99,45.438L429.32,45.414L430.65,45.387L431.99,45.376L433.32,45.394L434.65,45.332L435.99,45.357L437.32,45.387L438.65,45.332L439.99,45.35L441.32,45.339L442.65,45.348L443.99,45.328L445.32,45.312L446.65,45.293L447.99,45.297L449.32,45.304L450.65,45.317L451.99,45.301L453.32,45.308L454.66,45.273L455.99,45.286L457.32,45.275L458.66,45.29L459.99,45.277L461.32,45.284L462.66,45.297L463.99,45.277L465.32,45.251L466.66,45.237L467.99,45.255L469.32,45.242L470.66,45.268L471.99,45.24L473.32,45.246L474.66,45.235L475.99,45.209L477.32,45.222L478.66,45.22L479.99,45.229L481.32,45.202L482.66,45.204L483.99,45.22L485.32,45.207L486.66,45.184L487.99,45.209L489.32,45.211L490.66,45.211L491.99,45.204L493.32,45.198L494.66,45.187L495.99,45.202L497.32,45.184L498.66,45.184L499.99,45.187L501.32,45.211L502.66,45.189L503.99,45.189L505.32,45.189L506.66,45.171L507.99,45.191L509.32,45.182L510.66,45.189L511.99,45.189L513.32,45.18L514.66,45.18L515.99,45.173L517.32,45.18L518.66,45.178L519.99,45.176L521.32,45.173L522.66,45.173L523.99,45.184L525.32,45.173L526.66,45.169L527.99,45.173L529.32,45.169L530.66,45.173L531.99,45.173L533.33,45.176L534.66,45.165L535.99,45.167L537.33,45.162L538.66,45.162L539.99,45.156L541.33,45.162L542.66,45.16L543.99,45.165L545.33,45.156L546.66,45.165L547.99,45.162L549.33,45.167L550.66,45.156L551.99,45.158L553.33,45.158L554.66,45.156L555.99,45.158L557.33,45.165L558.66,45.154L559.99,45.158L561.33,45.165L562.66,45.158L563.99,45.165L565.33,45.156L566.66,45.156L567.99,45.162L569.33,45.156L570.66,45.16L571.99,45.158L573.33,45.154L575.99,45.16L578.66,45.154L579.99,45.156L581.33,45.156L582.66,45.151L583.99,45.154L585.33,45.156L586.66,45.156L587.99,45.154L589.33,45.151L591.99,45.154L593.33,45.151L594.66,45.151L595.99,45.151L597.33,45.156L598.66,45.151L601.33,45.151L602.66,45.151L603.99,45.151L605.33,45.154L606.66,45.151L608,45.151L609.33,45.154L610.66,45.151L612,45.151L614.66,45.151L618.66,45.151L620,45.151L628,45.154L629.33,45.151L634.66,45.151L637.33,45.151L645.33,45.151L648,45.151L652,45.151L676,45.151L684,45.151L720,45.151" style="fill:none;stroke:#0000FF" />
</g>
</svg>
