<?xml version="1.0"?>
<!-- Generated by SVGo and Plotinum VG -->
<svg width="720pt" height="432pt" viewBox="0 0 720 432"
	xmlns="http://www.w3.org/2000/svg"
	xmlns:xlink="http://www.w3.org/1999/xlink">
<g transform="scale(1, -1) translate(0, -432)">
<path d="M0,0L720,0L720,432L0,432Z" style="fill:#FFFFFF" />
<text x="358.5" y="-420.45" transform="scale(1, -1)"
	style="font-family:Times;font-weight:normal;font-style:normal;font-size:12px"> </text>
<text x="375.64" y="-3.8613" transform="scale(1, -1)"
	style="font-family:Times;font-weight:normal;font-style:normal;font-size:12px">Costs</text>
<text x="56.555" y="-18.634" transform="scale(1, -1)"
	style="font-family:Times;font-weight:normal;font-style:normal;font-size:10px">0.00</text>
<text x="372.03" y="-18.634" transform="scale(1, -1)"
	style="font-family:Times;font-weight:normal;font-style:normal;font-size:10px">250.00</text>
<text x="692.5" y="-18.634" transform="scale(1, -1)"
	style="font-family:Times;font-weight:normal;font-style:normal;font-size:10px">500.00</text>
<path d="M65.305,28.263L65.305,36.263" style="fill:none;stroke:#000000;stroke-width:0.5" />
<path d="M385.78,28.263L385.78,36.263" style="fill:none;stroke:#000000;stroke-width:0.5" />
<path d="M706.25,28.263L706.25,36.263" style="fill:none;stroke:#000000;stroke-width:0.5" />
<path d="M129.4,32.263L129.4,36.263" style="fill:none;stroke:#000000;stroke-width:0.5" />
<path d="M193.49,32.263L193.49,36.263" style="fill:none;stroke:#000000;stroke-width:0.5" />
<path d="M257.59,32.263L257.59,36.263" style="fill:none;stroke:#000000;stroke-width:0.5" />
<path d="M321.68,32.263L321.68,36.263" style="fill:none;stroke:#000000;stroke-width:0.5" />
<path d="M449.87,32.263L449.87,36.263" style="fill:none;stroke:#000000;stroke-width:0.5" />
<path d="M513.97,32.263L513.97,36.263" style="fill:none;stroke:#000000;stroke-width:0.5" />
<path d="M578.06,32.263L578.06,36.263" style="fill:none;stroke:#000000;stroke-width:0.5" />
<path d="M642.16,32.263L642.16,36.263" style="fill:none;stroke:#000000;stroke-width:0.5" />
<path d="M65.305,36.263L712.66,36.263" style="fill:none;stroke:#000000;stroke-width:0.5" />
<g transform="rotate(90)">
<text x="152.55" y="11.555" transform="scale(1, -1)"
	style="font-family:Times;font-weight:normal;font-style:normal;font-size:12px">Number of trials (1000000 total)</text>
</g>
<text x="24.055" y="-92.749" transform="scale(1, -1)"
	style="font-family:Times;font-weight:normal;font-style:normal;font-size:10px">20000</text>
<text x="24.055" y="-245.17" transform="scale(1, -1)"
	style="font-family:Times;font-weight:normal;font-style:normal;font-size:10px">80000</text>
<text x="19.055" y="-397.59" transform="scale(1, -1)"
	style="font-family:Times;font-weight:normal;font-style:normal;font-size:10px">140000</text>
<path d="M51.555,95.955L59.555,95.955" style="fill:none;stroke:#000000;stroke-width:0.5" />
<path d="M51.555,248.37L59.555,248.37" style="fill:none;stroke:#000000;stroke-width:0.5" />
<path d="M51.555,400.79L59.555,400.79" style="fill:none;stroke:#000000;stroke-width:0.5" />
<path d="M55.555,172.16L59.555,172.16" style="fill:none;stroke:#000000;stroke-width:0.5" />
<path d="M55.555,324.58L59.555,324.58" style="fill:none;stroke:#000000;stroke-width:0.5" />
<path d="M59.555,45.151L59.555,416.58" style="fill:none;stroke:#000000;stroke-width:0.5" />
<path d="M65.305,416.58L93.506,48.591L98.634,48.766L99.916,55.747L101.2,55.897L102.48,74.629L103.76,67.702L105.04,66.419L106.33,92.762L107.61,48.591L108.89,85.601L110.17,99.941L112.73,48.675L114.02,52.533L115.3,48.436L116.58,89.744L117.86,62.055L119.14,48.53L120.43,100.39L121.71,84.112L122.99,52.079L124.27,52.231L126.84,48.614L128.12,73.016L129.4,62.621L130.68,48.931L131.96,45.365L133.24,87.478L134.53,63.325L135.81,75.256L137.09,60.06L138.37,57.802L139.65,64.907L140.94,52.005L142.22,48.936L143.5,65.768L144.78,73.885L146.06,81.732L147.35,53.979L148.63,51.843L149.91,54.553L151.19,65.685L152.47,49.645L153.76,56.707L155.04,54.685L156.32,53.095L157.6,58.76L158.88,59.004L160.16,87.485L161.45,64.199L162.73,55.521L164.01,55.419L165.29,63.027L166.57,56.545L167.86,56.852L169.14,59.982L170.42,55.086L171.7,61.973L172.98,65.558L174.27,62.243L175.55,56.481L176.83,64.143L178.11,61.021L179.39,60.744L180.67,60.967L181.96,55.981L183.24,59.636L184.52,65.652L185.8,58.945L187.08,58.196L188.37,63.365L189.65,63.632L190.93,62.664L192.21,57.655L193.49,53.062L194.78,57.617L196.06,60.192L197.34,59.491L198.62,58.087L199.9,58.229L201.19,63.015L202.47,58.899L203.75,58.917L205.03,57.505L206.31,55.269L207.59,56.964L208.88,57.004L210.16,55.12L211.44,56.684L212.72,56.865L214,58.628L215.29,59.829L216.57,59.225L217.85,55.277L219.13,55.716L220.41,54.121L221.7,54.507L222.98,55.983L224.26,56.593L225.54,55.871L226.82,53.181L228.1,56.776L229.39,56.011L230.67,55.777L231.95,55.381L233.23,54.525L234.51,54.538L235.8,54.088L237.08,53.463L238.36,54.362L239.64,56.219L240.92,56.636L242.21,53.809L243.49,53.562L244.77,53.324L246.05,54.543L247.33,53.527L248.62,53.103L249.9,52.592L251.18,52.747L252.46,53.971L253.74,53.534L255.02,52.963L256.31,53.064L257.59,52.864L258.87,52.848L260.15,52.762L261.43,51.749L262.72,51.893L264,52.267L265.28,52.135L266.56,52.089L267.84,52.079L269.13,52.058L270.41,51.822L271.69,51.909L272.97,51.281L274.25,51.027L275.53,51.113L276.82,51.157L278.1,50.981L279.38,51.007L280.66,50.837L281.94,50.506L283.23,50.831L284.51,50.981L285.79,50.489L287.07,50.252L288.35,49.914L289.64,49.836L290.92,50.158L292.2,49.81L293.48,50.044L294.76,49.704L296.04,49.853L297.33,49.953L298.61,49.34L299.89,49.328L301.17,49.122L302.45,49.391L303.74,49.292L305.02,48.987L306.3,48.748L307.58,48.992L308.86,49.452L310.15,48.83L311.43,48.873L312.71,48.586L313.99,48.619L315.27,48.558L316.56,48.548L317.84,48.324L319.12,48.393L320.4,48.431L321.68,48.068L322.96,48.139L324.25,48.073L325.53,48.08L326.81,48.024L328.09,47.91L329.37,47.717L330.66,47.648L331.94,47.783L333.22,47.765L334.5,47.682L335.78,47.488L337.07,47.61L338.35,47.476L339.63,47.521L340.91,47.45L342.19,47.43L343.47,47.3L344.76,47.242L346.04,47.036L347.32,47.206L348.6,47.049L349.88,47.082L351.17,46.914L352.45,46.98L353.73,46.897L355.01,46.95L356.29,46.719L357.58,46.828L358.86,46.767L360.14,46.696L361.42,46.627L362.7,46.696L363.99,46.691L365.27,46.643L366.55,46.495L367.83,46.536L369.11,46.561L370.39,46.48L371.68,46.498L372.96,46.317L374.24,46.394L375.52,46.251L376.8,46.315L378.09,46.3L379.37,46.277L380.65,46.193L381.93,46.165L383.21,46.147L384.5,46.127L385.78,46.081L387.06,46.086L388.34,46.096L389.62,46.033L390.9,46.02L392.19,45.987L393.47,45.919L394.75,45.992L396.03,45.908L397.31,45.814L398.6,45.931L399.88,45.85L401.16,45.863L402.44,45.868L403.72,45.789L405.01,45.769L406.29,45.797L407.57,45.784L408.85,45.72L410.13,45.746L411.42,45.7L412.7,45.659L413.98,45.715L415.26,45.665L416.54,45.644L417.82,45.685L419.11,45.629L420.39,45.588L421.67,45.593L422.95,45.637L424.23,45.619L425.52,45.573L426.8,45.591L428.08,45.532L429.36,45.525L430.64,45.525L431.93,45.515L433.21,45.55L434.49,45.527L435.77,45.459L437.05,45.499L438.33,45.459L439.62,45.444L440.9,45.423L442.18,45.446L443.46,45.456L444.74,45.482L446.03,45.418L447.31,45.4L448.59,45.408L449.87,45.36L451.15,45.413L452.44,45.377L453.72,45.39L455,45.388L456.28,45.416L457.56,45.372L458.85,45.362L460.13,45.36L461.41,45.35L462.69,45.327L463.97,45.347L465.25,45.322L466.54,45.319L467.82,45.289L469.1,45.299L470.38,45.299L471.66,45.299L472.95,45.319L474.23,45.327L475.51,45.294L476.79,45.306L478.07,45.281L479.36,45.276L480.64,45.268L481.92,45.268L483.2,45.256L484.48,45.306L485.76,45.245L487.05,45.24L488.33,45.271L489.61,45.261L490.89,45.215L492.17,45.253L493.46,45.235L494.74,45.225L496.02,45.225L497.3,45.225L498.58,45.233L499.87,45.222L501.15,45.212L502.43,45.235L503.71,45.205L504.99,45.22L506.28,45.233L507.56,45.2L508.84,45.233L510.12,45.212L511.4,45.195L512.68,45.207L513.97,45.192L515.25,45.212L516.53,45.205L517.81,45.179L519.09,45.2L520.38,45.177L521.66,45.207L522.94,45.192L524.22,45.179L525.5,45.192L526.79,45.205L528.07,45.2L529.35,45.189L530.63,45.182L531.91,45.187L533.19,45.174L534.48,45.184L535.76,45.184L537.04,45.169L538.32,45.172L539.6,45.167L540.89,45.187L542.17,45.179L543.45,45.177L544.73,45.164L546.01,45.159L547.3,45.174L548.58,45.167L549.86,45.177L551.14,45.187L552.42,45.169L553.71,45.169L554.99,45.172L556.27,45.177L557.55,45.172L558.83,45.172L560.11,45.189L561.4,45.167L562.68,45.162L563.96,45.164L565.24,45.164L566.52,45.167L567.81,45.154L569.09,45.162L570.37,45.159L571.65,45.162L572.93,45.159L574.22,45.162L575.5,45.154L576.78,45.162L578.06,45.154L579.34,45.154L580.62,45.159L581.91,45.151L583.19,45.151L584.47,45.169L585.75,45.162L587.03,45.159L588.32,45.159L589.6,45.156L590.88,45.154L592.16,45.154L594.73,45.162L596.01,45.151L597.29,45.154L598.57,45.151L599.85,45.151L602.42,45.162L603.7,45.151L604.98,45.151L608.83,45.151L610.11,45.154L611.39,45.151L612.67,45.154L613.95,45.151L615.24,45.154L616.52,45.151L619.08,45.151L621.65,45.151L622.93,45.156L624.21,45.154L628.05,45.154L629.34,45.156L630.62,45.154L634.46,45.154L637.03,45.151L638.31,45.154L639.59,45.151L640.87,45.151L651.13,45.154L654.97,45.156L660.1,45.151L661.38,45.151L669.08,45.151L681.89,45.151L688.3,45.151L704.97,45.151L712.66,45.151" style="fill:none;stroke:#0000FF" />
</g>
</svg>
