<?xml version="1.0"?>
<!-- Generated by SVGo and Plotinum VG -->
<svg width="720pt" height="432pt" viewBox="0 0 720 432"
	xmlns="http://www.w3.org/2000/svg"
	xmlns:xlink="http://www.w3.org/1999/xlink">
<g transform="scale(1, -1) translate(0, -432)">
<path d="M0,0L720,0L720,432L0,432Z" style="fill:#FFFFFF" />
<text x="358.5" y="-420.45" transform="scale(1, -1)"
	style="font-family:Times;font-weight:normal;font-style:normal;font-size:12px"> </text>
<text x="385.56" y="-3.8613" transform="scale(1, -1)"
	style="font-family:Times;font-weight:normal;font-style:normal;font-size:12px">Costs</text>
<text x="75.305" y="-18.634" transform="scale(1, -1)"
	style="font-family:Times;font-weight:normal;font-style:normal;font-size:10px">0</text>
<text x="348.31" y="-18.634" transform="scale(1, -1)"
	style="font-family:Times;font-weight:normal;font-style:normal;font-size:10px">200</text>
<text x="626.32" y="-18.634" transform="scale(1, -1)"
	style="font-family:Times;font-weight:normal;font-style:normal;font-size:10px">400</text>
<path d="M77.805,28.263L77.805,36.263" style="fill:none;stroke:#000000;stroke-width:0.5" />
<path d="M355.81,28.263L355.81,36.263" style="fill:none;stroke:#000000;stroke-width:0.5" />
<path d="M633.82,28.263L633.82,36.263" style="fill:none;stroke:#000000;stroke-width:0.5" />
<path d="M216.81,32.263L216.81,36.263" style="fill:none;stroke:#000000;stroke-width:0.5" />
<path d="M494.81,32.263L494.81,36.263" style="fill:none;stroke:#000000;stroke-width:0.5" />
<path d="M77.805,36.263L720,36.263" style="fill:none;stroke:#000000;stroke-width:0.5" />
<g transform="rotate(90)">
<text x="150.36" y="11.555" transform="scale(1, -1)"
	style="font-family:Times;font-weight:normal;font-style:normal;font-size:12px">Number of trials (1000000 total)</text>
</g>
<text x="24.055" y="-82.501" transform="scale(1, -1)"
	style="font-family:Times;font-weight:normal;font-style:normal;font-size:10px">25000.00</text>
<text x="19.055" y="-244.73" transform="scale(1, -1)"
	style="font-family:Times;font-weight:normal;font-style:normal;font-size:10px">125000.00</text>
<text x="19.055" y="-406.96" transform="scale(1, -1)"
	style="font-family:Times;font-weight:normal;font-style:normal;font-size:10px">225000.00</text>
<path d="M64.055,85.707L72.055,85.707" style="fill:none;stroke:#000000;stroke-width:0.5" />
<path d="M64.055,247.93L72.055,247.93" style="fill:none;stroke:#000000;stroke-width:0.5" />
<path d="M64.055,410.16L72.055,410.16" style="fill:none;stroke:#000000;stroke-width:0.5" />
<path d="M68.055,166.82L72.055,166.82" style="fill:none;stroke:#000000;stroke-width:0.5" />
<path d="M68.055,329.05L72.055,329.05" style="fill:none;stroke:#000000;stroke-width:0.5" />
<path d="M72.055,45.151L72.055,412.19" style="fill:none;stroke:#000000;stroke-width:0.5" />
<path d="M77.805,412.19L108.39,52.807L115.34,48.933L116.73,59.755L118.12,71.615L119.51,56.395L120.9,75.582L122.29,48.845L123.68,61.978L125.07,68.014L126.46,71.875L127.85,56.768L129.24,53.027L130.63,60.255L132.02,48.522L133.41,56.298L134.8,95.169L136.19,52.714L137.58,90.771L138.97,52.912L140.36,52.867L141.75,55.936L145.92,60.42L147.31,76.072L148.7,60.612L150.09,45.387L151.48,63.996L152.87,52.917L154.26,49.429L155.65,53.723L157.04,62.618L158.43,57.641L159.82,58.632L161.21,63.348L162.6,54.457L163.99,67.63L165.38,60.438L166.77,49.559L168.16,49.725L169.55,49.183L170.94,59.935L172.33,49.157L173.72,51.468L175.11,51.37L176.5,60.019L177.89,54.39L179.28,61.752L180.67,53.719L182.06,51.848L183.45,52.523L184.84,58.999L186.23,53.522L187.62,53.397L189.01,51.567L190.4,64.242L191.79,52.424L193.18,52.02L194.57,57.017L195.96,53.269L197.35,54.032L198.74,53.334L200.13,53.43L201.52,52.716L202.91,53.637L204.3,55.505L205.69,54.979L207.08,54.677L208.47,54.851L209.86,52.867L211.25,53.631L212.64,52.127L214.03,52.951L215.42,52.38L216.81,54.358L218.2,52.851L219.59,53.251L220.98,54.277L222.37,53.298L223.76,51.853L225.15,52.104L226.54,51.456L227.93,52.943L229.32,50.923L230.71,52.182L232.1,51.032L233.49,53.149L234.88,51.266L236.27,52.15L237.66,50.698L239.05,51.762L240.44,51.305L241.83,50.829L243.22,50.395L244.61,50.682L246,50.526L247.39,51.348L248.78,50.513L250.17,50.867L251.56,49.189L252.95,49.444L254.34,50.128L255.73,48.928L257.12,49.522L258.51,50.005L259.9,50.028L261.29,49.337L262.68,49.528L264.07,49.613L265.46,49.577L266.85,49.058L268.24,48.904L269.63,49.272L271.02,48.925L272.41,48.886L273.8,48.949L275.19,48.539L276.58,49.012L277.97,49.071L279.36,48.461L280.75,48.252L282.14,48.372L283.53,48.555L284.92,47.966L286.31,48.415L287.7,48.109L289.09,48.164L290.48,48.052L291.87,48.052L293.26,48.076L294.65,47.697L296.04,47.728L297.43,47.891L298.82,47.753L300.21,47.465L301.6,47.538L302.99,47.632L304.38,47.573L305.77,47.385L307.16,47.539L308.55,47.238L309.94,47.182L311.33,47.124L312.72,47.103L314.11,47.075L315.5,47.083L316.89,47.132L318.28,46.916L319.67,47.059L321.06,46.921L322.45,46.879L323.84,46.676L325.23,46.744L326.62,46.686L328.01,46.65L329.4,46.607L330.79,46.498L332.18,46.592L333.57,46.49L334.96,46.482L336.35,46.396L337.74,46.405L339.13,46.365L340.52,46.412L341.91,46.295L343.3,46.217L344.69,46.147L346.08,46.264L347.47,46.177L348.86,46.087L350.25,46.091L351.64,46.013L353.03,46.029L354.42,46.073L355.81,46L357.2,45.906L358.59,45.954L359.98,45.878L361.37,45.964L362.76,45.919L364.15,45.826L365.54,45.823L366.93,45.808L368.32,45.825L369.71,45.816L371.1,45.855L372.49,45.726L373.88,45.742L375.27,45.747L376.66,45.709L378.05,45.698L379.44,45.674L380.83,45.669L382.22,45.597L383.61,45.622L385,45.619L386.39,45.625L387.78,45.625L389.17,45.575L390.56,45.526L391.95,45.554L393.34,45.565L394.73,45.537L396.12,45.534L397.51,45.502L398.9,45.463L400.29,45.421L401.68,45.46L403.07,45.481L404.46,45.461L405.85,45.481L407.24,45.497L408.63,45.396L410.02,45.409L411.41,45.354L412.8,45.421L414.19,45.396L415.58,45.356L416.97,45.374L418.36,45.359L419.75,45.367L421.14,45.338L422.53,45.338L423.92,45.372L425.31,45.346L426.7,45.32L428.09,45.328L429.48,45.335L430.87,45.294L432.26,45.28L433.65,45.271L435.04,45.276L436.43,45.275L437.82,45.294L439.21,45.271L440.6,45.281L441.99,45.284L443.38,45.257L444.77,45.265L446.16,45.258L447.55,45.249L448.94,45.234L450.33,45.236L451.72,45.249L453.11,45.239L454.5,45.234L455.89,45.226L457.28,45.229L458.67,45.245L460.06,45.226L461.45,45.245L462.84,45.224L464.23,45.189L465.62,45.218L467.01,45.215L468.4,45.198L469.79,45.202L471.18,45.194L472.57,45.203L473.96,45.194L475.35,45.215L476.74,45.203L478.13,45.194L479.52,45.2L480.91,45.195L482.3,45.184L483.69,45.197L485.08,45.192L486.47,45.189L487.86,45.189L489.25,45.195L490.64,45.177L492.03,45.187L493.42,45.185L494.81,45.169L496.2,45.177L497.59,45.179L498.98,45.179L500.37,45.171L501.76,45.161L503.15,45.171L504.54,45.164L505.93,45.177L507.32,45.164L508.71,45.181L510.1,45.169L511.5,45.168L512.89,45.169L514.28,45.163L515.67,45.163L517.06,45.161L518.45,45.174L519.84,45.169L521.23,45.164L522.62,45.164L524.01,45.155L525.4,45.159L526.79,45.161L528.18,45.156L529.57,45.158L530.96,45.159L532.35,45.161L533.74,45.151L535.13,45.151L536.52,45.161L537.91,45.156L539.3,45.153L540.69,45.159L542.08,45.161L543.47,45.161L544.86,45.158L546.25,45.153L549.03,45.153L550.42,45.156L551.81,45.156L553.2,45.153L554.59,45.161L555.98,45.159L557.37,45.161L558.76,45.153L561.54,45.156L562.93,45.163L564.32,45.153L565.71,45.153L567.1,45.151L568.49,45.151L569.88,45.151L572.66,45.155L574.05,45.153L575.44,45.155L576.83,45.153L578.22,45.153L579.61,45.153L582.39,45.151L583.78,45.156L586.56,45.153L587.95,45.151L589.34,45.151L594.9,45.151L596.29,45.151L597.68,45.151L600.46,45.151L604.63,45.151L606.02,45.153L608.8,45.151L610.19,45.151L611.58,45.151L612.97,45.151L619.92,45.151L622.7,45.153L625.48,45.151L632.43,45.151L633.82,45.151L637.99,45.153L646.33,45.153L690.81,45.151L704.71,45.151L720,45.151" style="fill:none;stroke:#0000FF" />
</g>
</svg>
