<?xml version="1.0"?>
<!-- Generated by SVGo and Plotinum VG -->
<svg width="720pt" height="432pt" viewBox="0 0 720 432"
	xmlns="http://www.w3.org/2000/svg"
	xmlns:xlink="http://www.w3.org/1999/xlink">
<g transform="scale(1, -1) translate(0, -432)">
<path d="M0,0L720,0L720,432L0,432Z" style="fill:#FFFFFF" />
<text x="358.5" y="-420.45" transform="scale(1, -1)"
	style="font-family:Times;font-weight:normal;font-style:normal;font-size:12px"> </text>
<text x="379.31" y="-3.8613" transform="scale(1, -1)"
	style="font-family:Times;font-weight:normal;font-style:normal;font-size:12px">Costs</text>
<text x="62.805" y="-18.634" transform="scale(1, -1)"
	style="font-family:Times;font-weight:normal;font-style:normal;font-size:10px">0</text>
<text x="323.94" y="-18.634" transform="scale(1, -1)"
	style="font-family:Times;font-weight:normal;font-style:normal;font-size:10px">200</text>
<text x="590.08" y="-18.634" transform="scale(1, -1)"
	style="font-family:Times;font-weight:normal;font-style:normal;font-size:10px">400</text>
<path d="M65.305,28.263L65.305,36.263" style="fill:none;stroke:#000000;stroke-width:0.5" />
<path d="M331.44,28.263L331.44,36.263" style="fill:none;stroke:#000000;stroke-width:0.5" />
<path d="M597.58,28.263L597.58,36.263" style="fill:none;stroke:#000000;stroke-width:0.5" />
<path d="M198.37,32.263L198.37,36.263" style="fill:none;stroke:#000000;stroke-width:0.5" />
<path d="M464.51,32.263L464.51,36.263" style="fill:none;stroke:#000000;stroke-width:0.5" />
<path d="M65.305,36.263L720,36.263" style="fill:none;stroke:#000000;stroke-width:0.5" />
<g transform="rotate(90)">
<text x="152.55" y="11.555" transform="scale(1, -1)"
	style="font-family:Times;font-weight:normal;font-style:normal;font-size:12px">Number of trials (1000000 total)</text>
</g>
<text x="24.055" y="-112.18" transform="scale(1, -1)"
	style="font-family:Times;font-weight:normal;font-style:normal;font-size:10px">30000</text>
<text x="24.055" y="-252.65" transform="scale(1, -1)"
	style="font-family:Times;font-weight:normal;font-style:normal;font-size:10px">90000</text>
<text x="19.055" y="-393.11" transform="scale(1, -1)"
	style="font-family:Times;font-weight:normal;font-style:normal;font-size:10px">150000</text>
<path d="M51.555,115.38L59.555,115.38" style="fill:none;stroke:#000000;stroke-width:0.5" />
<path d="M51.555,255.85L59.555,255.85" style="fill:none;stroke:#000000;stroke-width:0.5" />
<path d="M51.555,396.32L59.555,396.32" style="fill:none;stroke:#000000;stroke-width:0.5" />
<path d="M55.555,185.62L59.555,185.62" style="fill:none;stroke:#000000;stroke-width:0.5" />
<path d="M55.555,326.09L59.555,326.09" style="fill:none;stroke:#000000;stroke-width:0.5" />
<path d="M59.555,45.151L59.555,416.58" style="fill:none;stroke:#000000;stroke-width:0.5" />
<path d="M65.305,416.58L95.91,55.684L99.902,52.449L101.23,59.168L102.56,73.54L103.89,51.938L106.56,85.014L107.89,66.561L109.22,75.101L110.55,111.02L111.88,52.439L113.21,81.362L115.87,55.949L117.2,59.807L118.53,58.838L119.86,88.439L121.19,58.899L122.52,52.566L123.85,75.01L126.52,81.692L130.51,85.271L131.84,67.437L133.17,52.945L134.5,45.343L135.83,96.162L137.16,67.924L138.49,47.123L139.82,46.608L141.15,48.342L142.48,54.038L143.81,53.954L145.15,53.53L146.48,94.577L147.81,56.398L149.14,54.223L150.47,52.954L151.8,55.473L153.13,51.353L154.46,57.733L155.79,54.874L157.12,55.595L158.45,56.274L159.78,50.962L161.11,58.711L162.44,81.526L163.78,63.672L165.11,60.446L166.44,55.457L167.77,68.787L169.1,57L170.43,52.929L171.76,77.157L173.09,68.35L174.42,59.505L175.75,58.058L177.08,60.437L178.41,61.235L179.74,55.869L181.07,64.618L182.4,56.532L183.74,58.522L185.07,58.98L186.4,53.334L187.73,58.086L189.06,57.168L190.39,60.357L191.72,63.838L193.05,54.015L194.38,57.74L195.71,50.798L197.04,57.517L198.37,54.804L199.7,53.507L201.03,59.793L202.36,56.742L203.7,55.925L205.03,55.532L206.36,54.68L207.69,63.368L209.02,55.443L210.35,54.574L211.68,55.97L213.01,57.566L214.34,55.466L215.67,55.136L217,63.417L218.33,57.658L219.66,54.588L220.99,54.085L222.33,53.378L223.66,55.745L224.99,53.256L226.32,55.057L227.65,57.089L228.98,55.808L230.31,54.256L231.64,52.292L232.97,58.037L234.3,55.382L235.63,52.816L236.96,52.893L238.29,54.954L239.62,53.837L240.95,50.669L242.29,54.333L243.62,56.574L244.95,53.586L246.28,52.657L247.61,51.365L248.94,53.385L250.27,51.948L251.6,51.688L252.93,53.734L254.26,52.547L255.59,52.535L256.92,51.351L258.25,51.65L259.58,51.889L260.91,51.559L262.25,52.325L263.58,51.004L264.91,51.582L266.24,50.871L267.57,50.592L268.9,52.4L270.23,51.589L271.56,51.248L272.89,51.269L274.22,51.208L275.55,50.887L276.88,49.777L278.21,51.283L279.54,50.69L280.88,50.161L282.21,50.606L283.54,50.482L284.87,50.086L286.2,49.677L287.53,50.236L288.86,50.552L290.19,49.749L291.52,49.515L292.85,49.237L294.18,49.777L295.51,49.272L296.84,49.131L298.17,49.724L299.5,49.642L300.84,48.86L302.17,48.431L303.5,48.761L304.83,48.881L306.16,48.387L307.49,48.665L308.82,48.668L310.15,48.857L311.48,48.576L312.81,48.162L314.14,48.799L315.47,48.581L316.8,48.244L318.13,47.804L319.46,48.244L320.8,48.223L322.13,47.736L323.46,48.087L324.79,48.122L326.12,48.078L327.45,47.696L328.78,47.579L330.11,47.71L331.44,47.654L332.77,47.528L334.1,47.495L335.43,47.514L336.76,47.537L338.09,47.221L339.43,47.291L340.76,47.35L342.09,47.141L343.42,47.073L344.75,47.076L346.08,47.188L347.41,46.891L348.74,46.844L350.07,47.036L351.4,46.949L352.73,46.809L354.06,46.736L355.39,46.802L356.72,46.762L358.05,46.701L359.39,46.694L360.72,46.617L362.05,46.61L363.38,46.601L364.71,46.399L366.04,46.423L367.37,46.402L368.7,46.542L370.03,46.425L371.36,46.465L372.69,46.355L374.02,46.163L375.35,46.299L376.68,46.186L378.01,46.245L379.35,46.163L380.68,46.284L382.01,46.207L383.34,45.98L384.67,46.057L386,46.039L387.33,46.123L388.66,46.02L389.99,46.029L391.32,46.025L392.65,45.924L393.98,45.973L395.31,45.95L396.64,45.94L397.98,45.854L399.31,45.793L400.64,45.816L401.97,45.84L403.3,45.769L404.63,45.744L405.96,45.746L407.29,45.816L408.62,45.739L409.95,45.772L411.28,45.776L412.61,45.671L413.94,45.65L415.27,45.608L416.6,45.65L417.94,45.65L419.27,45.589L420.6,45.643L421.93,45.657L423.26,45.592L424.59,45.624L425.92,45.624L427.25,45.556L428.58,45.568L429.91,45.542L431.24,45.498L432.57,45.479L433.9,45.472L435.23,45.507L436.56,45.442L437.9,45.514L439.23,45.407L440.56,45.486L441.89,45.456L443.22,45.453L444.55,45.472L445.88,45.388L447.21,45.472L448.54,45.378L449.87,45.407L451.2,45.388L452.53,45.402L453.86,45.355L455.19,45.343L456.53,45.397L457.86,45.367L459.19,45.374L460.52,45.355L461.85,45.346L463.18,45.346L464.51,45.353L465.84,45.341L467.17,45.318L468.5,45.35L469.83,45.306L471.16,45.304L472.49,45.308L473.82,45.308L475.15,45.264L476.49,45.252L477.82,45.301L479.15,45.275L480.48,45.294L481.81,45.304L483.14,45.271L484.47,45.266L485.8,45.259L487.13,45.304L488.46,45.275L489.79,45.247L491.12,45.247L492.45,45.238L493.78,45.233L495.11,45.236L496.45,45.222L497.78,45.21L499.11,45.201L500.44,45.233L501.77,45.25L503.1,45.245L504.43,45.217L505.76,45.247L507.09,45.215L508.42,45.215L509.75,45.203L511.08,45.224L512.41,45.226L513.74,45.212L515.08,45.217L516.41,45.196L517.74,45.186L519.07,45.184L520.4,45.191L521.73,45.196L523.06,45.191L524.39,45.182L525.72,45.186L527.05,45.184L528.38,45.172L529.71,45.182L531.04,45.186L532.37,45.205L533.7,45.177L535.04,45.179L536.37,45.184L537.7,45.175L539.03,45.182L540.36,45.182L541.69,45.179L543.02,45.177L544.35,45.196L545.68,45.189L547.01,45.172L548.34,45.163L549.67,45.165L551,45.179L552.33,45.179L553.66,45.172L555,45.179L556.33,45.168L557.66,45.163L558.99,45.165L560.32,45.158L561.65,45.163L562.98,45.165L564.31,45.154L565.64,45.168L566.97,45.163L568.3,45.158L569.63,45.156L570.96,45.17L572.29,45.168L573.63,45.163L574.96,45.158L576.29,45.165L577.62,45.172L578.95,45.168L580.28,45.154L581.61,45.161L582.94,45.161L584.27,45.161L585.6,45.158L586.93,45.156L588.26,45.151L589.59,45.154L590.92,45.151L592.25,45.163L593.59,45.156L594.92,45.158L596.25,45.154L597.58,45.163L598.91,45.158L600.24,45.151L601.57,45.158L602.9,45.154L604.23,45.154L605.56,45.151L606.89,45.156L608.22,45.154L609.55,45.156L610.88,45.154L612.21,45.151L613.55,45.154L614.88,45.151L616.21,45.154L617.54,45.154L618.87,45.151L620.2,45.154L621.53,45.156L622.86,45.151L624.19,45.154L625.52,45.151L626.85,45.154L629.51,45.154L630.84,45.151L632.18,45.151L633.51,45.154L634.84,45.151L636.17,45.151L637.5,45.151L638.83,45.154L642.82,45.151L649.47,45.151L650.8,45.151L652.14,45.154L653.47,45.154L656.13,45.151L657.46,45.154L668.1,45.151L669.43,45.154L673.43,45.151L690.73,45.151L694.72,45.151L697.38,45.151L704.03,45.151L717.34,45.151L720,45.151" style="fill:none;stroke:#0000FF" />
</g>
</svg>
