<?xml version="1.0"?>
<!-- Generated by SVGo and Plotinum VG -->
<svg width="720pt" height="432pt" viewBox="0 0 720 432"
	xmlns="http://www.w3.org/2000/svg"
	xmlns:xlink="http://www.w3.org/1999/xlink">
<g transform="scale(1, -1) translate(0, -432)">
<path d="M0,0L720,0L720,432L0,432Z" style="fill:#FFFFFF" />
<text x="358.5" y="-420.45" transform="scale(1, -1)"
	style="font-family:Times;font-weight:normal;font-style:normal;font-size:12px"> </text>
<text x="376.81" y="-3.8613" transform="scale(1, -1)"
	style="font-family:Times;font-weight:normal;font-style:normal;font-size:12px">Costs</text>
<text x="51.555" y="-18.634" transform="scale(1, -1)"
	style="font-family:Times;font-weight:normal;font-style:normal;font-size:10px">0.00</text>
<text x="356.56" y="-18.634" transform="scale(1, -1)"
	style="font-family:Times;font-weight:normal;font-style:normal;font-size:10px">250.00</text>
<text x="666.57" y="-18.634" transform="scale(1, -1)"
	style="font-family:Times;font-weight:normal;font-style:normal;font-size:10px">500.00</text>
<path d="M60.305,28.263L60.305,36.263" style="fill:none;stroke:#000000;stroke-width:0.5" />
<path d="M370.31,28.263L370.31,36.263" style="fill:none;stroke:#000000;stroke-width:0.5" />
<path d="M680.32,28.263L680.32,36.263" style="fill:none;stroke:#000000;stroke-width:0.5" />
<path d="M122.31,32.263L122.31,36.263" style="fill:none;stroke:#000000;stroke-width:0.5" />
<path d="M184.31,32.263L184.31,36.263" style="fill:none;stroke:#000000;stroke-width:0.5" />
<path d="M246.31,32.263L246.31,36.263" style="fill:none;stroke:#000000;stroke-width:0.5" />
<path d="M308.31,32.263L308.31,36.263" style="fill:none;stroke:#000000;stroke-width:0.5" />
<path d="M432.31,32.263L432.31,36.263" style="fill:none;stroke:#000000;stroke-width:0.5" />
<path d="M494.31,32.263L494.31,36.263" style="fill:none;stroke:#000000;stroke-width:0.5" />
<path d="M556.32,32.263L556.32,36.263" style="fill:none;stroke:#000000;stroke-width:0.5" />
<path d="M618.32,32.263L618.32,36.263" style="fill:none;stroke:#000000;stroke-width:0.5" />
<path d="M60.305,36.263L720,36.263" style="fill:none;stroke:#000000;stroke-width:0.5" />
<g transform="rotate(90)">
<text x="152.55" y="11.555" transform="scale(1, -1)"
	style="font-family:Times;font-weight:normal;font-style:normal;font-size:12px">Number of trials (1000000 total)</text>
</g>
<text x="19.055" y="-87.912" transform="scale(1, -1)"
	style="font-family:Times;font-weight:normal;font-style:normal;font-size:10px">10000</text>
<text x="19.055" y="-225.83" transform="scale(1, -1)"
	style="font-family:Times;font-weight:normal;font-style:normal;font-size:10px">40000</text>
<text x="19.055" y="-363.74" transform="scale(1, -1)"
	style="font-family:Times;font-weight:normal;font-style:normal;font-size:10px">70000</text>
<path d="M46.555,91.118L54.555,91.118" style="fill:none;stroke:#000000;stroke-width:0.5" />
<path d="M46.555,229.03L54.555,229.03" style="fill:none;stroke:#000000;stroke-width:0.5" />
<path d="M46.555,366.94L54.555,366.94" style="fill:none;stroke:#000000;stroke-width:0.5" />
<path d="M50.555,137.09L54.555,137.09" style="fill:none;stroke:#000000;stroke-width:0.5" />
<path d="M50.555,183.06L54.555,183.06" style="fill:none;stroke:#000000;stroke-width:0.5" />
<path d="M50.555,275L54.555,275" style="fill:none;stroke:#000000;stroke-width:0.5" />
<path d="M50.555,320.97L54.555,320.97" style="fill:none;stroke:#000000;stroke-width:0.5" />
<path d="M50.555,412.92L54.555,412.92" style="fill:none;stroke:#000000;stroke-width:0.5" />
<path d="M54.555,45.151L54.555,416.58" style="fill:none;stroke:#000000;stroke-width:0.5" />
<path d="M60.305,416.58L88.825,52.424L92.545,66.183L93.785,72.596L95.025,57.656L96.266,57.32L98.746,107.44L99.986,138.22L101.23,51.716L102.47,85.873L103.71,57.361L104.95,57.504L107.43,57.646L108.67,58.851L109.91,48.613L111.15,135.42L112.39,99.08L113.63,82.774L114.87,125.06L117.35,82.25L121.07,70.463L122.31,71.01L123.55,57.568L124.79,45.657L126.03,111.6L127.27,128.42L128.51,61.315L129.75,46.213L130.99,49.79L132.23,54.506L133.47,66.841L134.71,65.953L135.95,100.5L137.19,67.709L138.43,99.292L139.67,55.84L140.91,55.83L142.15,59.094L143.39,59.173L144.63,59.278L145.87,58.216L147.11,63.319L148.35,58.897L149.59,67.7L150.83,83.068L152.07,77.395L153.31,81.046L154.55,76.706L155.79,89.486L157.03,68.473L158.27,57.292L159.51,72.895L160.75,69.061L161.99,72.991L163.23,70.196L164.47,71.493L165.71,102.73L166.95,82.696L168.19,78.218L169.43,73.097L170.67,62.827L171.91,70.412L173.15,64.519L174.39,74.223L175.63,76.366L176.87,82.553L178.11,95.504L179.35,74.44L180.59,78.903L181.83,67.829L183.07,64.381L184.31,66.114L185.55,60.74L186.79,72.228L188.03,77.225L189.27,82.448L190.51,77.575L191.75,67.461L192.99,82.016L194.23,68.05L195.47,69.801L196.71,59.494L197.95,63.567L199.19,66.523L200.43,67.034L201.67,72.752L202.91,75.235L204.15,75.373L205.39,73.98L206.63,69.346L207.87,66.482L209.11,65.512L210.35,69.663L211.59,65.788L212.83,66.772L214.07,70.04L215.31,64.206L216.55,70.532L217.79,71.019L219.03,68.978L220.27,68.992L221.51,67.429L222.75,70.095L223.99,63.172L225.23,63.071L226.47,67.438L227.71,67.939L228.95,70.762L230.19,67.884L231.43,70.389L232.67,69.829L233.91,65.926L235.15,64.643L236.39,60.731L237.63,63.278L238.87,63.2L240.11,64.353L241.35,67.19L242.59,66.027L243.83,69.249L245.07,65.627L246.31,63.434L247.55,62.414L248.79,60.087L250.03,61.687L251.27,60.234L252.51,62.009L253.75,63.269L254.99,63.871L256.23,64.537L257.47,62.271L258.71,61.627L259.95,60.313L261.19,60.598L262.43,59.724L263.67,59.154L264.91,60.575L266.15,59.72L267.39,59.637L268.63,60.17L269.87,59.347L271.11,60.846L272.35,58.354L273.59,58.989L274.83,57.154L276.07,58.17L277.31,57.936L278.55,57.329L279.79,58.759L281.03,58.069L282.27,58.111L283.51,58.124L284.75,57.352L285.99,57.729L287.23,55.84L288.47,56.06L289.71,55.458L290.95,55.201L292.19,55.274L293.43,55.858L294.67,56.8L295.91,56.497L297.15,55.853L298.39,55.72L299.63,55.017L300.87,54.226L302.11,53.845L303.35,53.61L304.59,54.318L305.83,54.318L307.07,54.502L308.31,54.502L309.55,53.992L310.79,53.504L312.03,53.072L313.27,52.948L314.51,52.456L315.75,52.64L316.99,52.323L318.23,52.654L319.47,52.796L320.71,52.461L321.95,52.461L323.19,52.029L324.43,51.941L325.67,51.61L326.91,51.477L328.15,51.537L329.39,51.385L330.63,51.164L331.87,51.38L333.11,50.852L334.35,51.247L335.59,50.797L336.83,50.705L338.07,50.755L339.31,50.383L340.55,50.314L341.79,49.978L343.03,49.969L344.27,49.836L345.51,49.611L346.75,49.978L347.99,49.919L349.23,49.601L350.47,49.666L351.71,49.45L352.95,49.454L354.19,49.073L355.43,49.119L356.67,48.903L357.91,48.861L359.15,48.903L360.39,48.99L361.63,48.756L362.87,48.544L364.11,48.466L365.35,48.475L366.59,48.369L367.83,48.452L369.07,48.282L370.31,48.365L371.55,47.758L372.79,48.135L374.03,48.273L375.27,47.597L376.51,47.937L377.75,47.579L378.99,47.73L380.23,47.537L381.47,47.634L382.71,47.39L383.95,47.376L385.19,47.349L386.43,47.363L387.67,47.202L388.91,47.156L390.15,47.169L391.39,47.082L392.63,47.078L393.87,46.972L395.11,47.036L396.35,46.949L397.59,46.986L398.83,46.949L400.07,46.774L401.31,46.622L402.55,46.728L403.79,46.76L405.03,46.563L406.27,46.701L407.51,46.508L408.75,46.558L409.99,46.553L411.23,46.549L412.47,46.379L413.71,46.544L414.95,46.379L416.19,46.42L417.43,46.301L418.67,46.163L419.91,46.177L421.15,46.19L422.39,46.268L423.63,46.2L424.87,46.075L426.11,46.02L427.35,46.034L428.59,46.006L429.83,45.96L431.07,46.011L432.31,45.937L433.55,45.896L434.79,45.928L436.03,45.91L437.27,45.841L438.51,45.85L439.75,45.869L440.99,45.846L442.23,45.809L443.47,45.763L444.71,45.804L445.95,45.721L447.19,45.804L448.43,45.671L449.67,45.749L450.91,45.726L452.15,45.662L453.39,45.62L454.63,45.57L455.87,45.574L457.11,45.561L458.35,45.685L459.59,45.51L460.83,45.588L462.07,45.51L463.31,45.574L464.55,45.473L465.79,45.547L467.03,45.446L468.27,45.487L469.51,45.579L470.75,45.51L471.99,45.441L473.23,45.492L474.47,45.404L475.71,45.464L476.95,45.418L478.19,45.464L479.43,45.492L480.67,45.381L481.91,45.367L483.15,45.354L484.39,45.395L485.63,45.413L486.87,45.372L488.11,45.363L489.35,45.381L490.59,45.308L491.83,45.335L493.07,45.354L494.31,45.34L495.55,45.308L496.79,45.303L498.03,45.303L499.27,45.312L500.51,45.321L501.75,45.285L502.99,45.298L504.23,45.275L505.48,45.262L506.72,45.23L507.96,45.289L509.2,45.289L510.44,45.262L511.68,45.271L512.92,45.225L514.16,45.253L515.4,45.23L516.64,45.225L517.88,45.239L519.12,45.207L520.36,45.211L521.6,45.216L522.84,45.253L524.08,45.234L525.32,45.211L526.56,45.262L527.8,45.207L529.04,45.193L530.28,45.211L531.52,45.239L532.76,45.188L534,45.216L535.24,45.197L536.48,45.193L537.72,45.211L538.96,45.22L540.2,45.188L541.44,45.225L542.68,45.211L543.92,45.179L545.16,45.184L546.4,45.184L547.64,45.22L548.88,45.188L550.12,45.207L551.36,45.184L552.6,45.161L553.84,45.184L555.08,45.184L556.32,45.188L557.56,45.184L558.8,45.193L560.04,45.17L561.28,45.179L562.52,45.174L563.76,45.174L565,45.17L566.24,45.156L568.72,45.179L569.96,45.184L571.2,45.151L572.44,45.165L573.68,45.161L574.92,45.165L576.16,45.174L577.4,45.161L578.64,45.161L579.88,45.161L581.12,45.161L582.36,45.161L583.6,45.156L584.84,45.165L586.08,45.161L587.32,45.151L588.56,45.151L589.8,45.161L591.04,45.151L592.28,45.151L593.52,45.161L594.76,45.165L596,45.151L597.24,45.174L598.48,45.161L599.72,45.151L600.96,45.151L602.2,45.151L604.68,45.151L605.92,45.156L607.16,45.151L610.88,45.156L612.12,45.151L614.6,45.156L615.84,45.151L618.32,45.151L620.8,45.151L623.28,45.156L624.52,45.151L625.76,45.151L627,45.151L629.48,45.151L633.2,45.151L634.44,45.156L638.16,45.151L639.4,45.151L640.64,45.151L641.88,45.151L643.12,45.151L649.32,45.151L651.8,45.151L655.52,45.151L656.76,45.151L658,45.151L659.24,45.151L662.96,45.151L671.64,45.151L677.84,45.151L682.8,45.151L686.52,45.151L712.56,45.151L720,45.151" style="fill:none;stroke:#0000FF" />
</g>
</svg>
