<?xml version="1.0"?>
<!-- Generated by SVGo and Plotinum VG -->
<svg width="720pt" height="432pt" viewBox="0 0 720 432"
	xmlns="http://www.w3.org/2000/svg"
	xmlns:xlink="http://www.w3.org/1999/xlink">
<g transform="scale(1, -1) translate(0, -432)">
<path d="M0,0L720,0L720,432L0,432Z" style="fill:#FFFFFF" />
<text x="358.5" y="-420.45" transform="scale(1, -1)"
	style="font-family:Times;font-weight:normal;font-style:normal;font-size:12px"> </text>
<text x="385.56" y="-3.8613" transform="scale(1, -1)"
	style="font-family:Times;font-weight:normal;font-style:normal;font-size:12px">Costs</text>
<text x="69.055" y="-18.634" transform="scale(1, -1)"
	style="font-family:Times;font-weight:normal;font-style:normal;font-size:10px">0.00</text>
<text x="364.15" y="-18.634" transform="scale(1, -1)"
	style="font-family:Times;font-weight:normal;font-style:normal;font-size:10px">250.00</text>
<text x="664.24" y="-18.634" transform="scale(1, -1)"
	style="font-family:Times;font-weight:normal;font-style:normal;font-size:10px">500.00</text>
<path d="M77.805,28.263L77.805,36.263" style="fill:none;stroke:#000000;stroke-width:0.5" />
<path d="M377.9,28.263L377.9,36.263" style="fill:none;stroke:#000000;stroke-width:0.5" />
<path d="M677.99,28.263L677.99,36.263" style="fill:none;stroke:#000000;stroke-width:0.5" />
<path d="M137.82,32.263L137.82,36.263" style="fill:none;stroke:#000000;stroke-width:0.5" />
<path d="M197.84,32.263L197.84,36.263" style="fill:none;stroke:#000000;stroke-width:0.5" />
<path d="M257.86,32.263L257.86,36.263" style="fill:none;stroke:#000000;stroke-width:0.5" />
<path d="M317.88,32.263L317.88,36.263" style="fill:none;stroke:#000000;stroke-width:0.5" />
<path d="M437.91,32.263L437.91,36.263" style="fill:none;stroke:#000000;stroke-width:0.5" />
<path d="M497.93,32.263L497.93,36.263" style="fill:none;stroke:#000000;stroke-width:0.5" />
<path d="M557.95,32.263L557.95,36.263" style="fill:none;stroke:#000000;stroke-width:0.5" />
<path d="M617.97,32.263L617.97,36.263" style="fill:none;stroke:#000000;stroke-width:0.5" />
<path d="M77.805,36.263L720,36.263" style="fill:none;stroke:#000000;stroke-width:0.5" />
<g transform="rotate(90)">
<text x="152.55" y="11.555" transform="scale(1, -1)"
	style="font-family:Times;font-weight:normal;font-style:normal;font-size:12px">Number of trials (1000000 total)</text>
</g>
<text x="24.055" y="-93.183" transform="scale(1, -1)"
	style="font-family:Times;font-weight:normal;font-style:normal;font-size:10px">25000.00</text>
<text x="19.055" y="-246.9" transform="scale(1, -1)"
	style="font-family:Times;font-weight:normal;font-style:normal;font-size:10px">100000.00</text>
<text x="19.055" y="-400.62" transform="scale(1, -1)"
	style="font-family:Times;font-weight:normal;font-style:normal;font-size:10px">175000.00</text>
<path d="M64.055,96.388L72.055,96.388" style="fill:none;stroke:#000000;stroke-width:0.5" />
<path d="M64.055,250.11L72.055,250.11" style="fill:none;stroke:#000000;stroke-width:0.5" />
<path d="M64.055,403.82L72.055,403.82" style="fill:none;stroke:#000000;stroke-width:0.5" />
<path d="M68.055,173.25L72.055,173.25" style="fill:none;stroke:#000000;stroke-width:0.5" />
<path d="M68.055,326.96L72.055,326.96" style="fill:none;stroke:#000000;stroke-width:0.5" />
<path d="M72.055,45.151L72.055,416.58" style="fill:none;stroke:#000000;stroke-width:0.5" />
<path d="M77.805,416.58L104.21,48.513L105.41,48.56L109.01,55.434L110.21,66.543L111.41,55.377L112.62,52.11L113.82,51.944L115.02,70.701L116.22,48.648L117.42,69.035L118.62,87.637L119.82,55.705L122.22,59.597L123.42,58.756L124.62,55.129L125.82,77.205L127.02,69.845L128.22,80.713L129.42,66.637L130.62,73.513L131.82,59.218L133.02,48.588L135.42,48.578L136.62,59.539L137.82,55.725L139.02,77.19L140.22,45.346L141.42,81.14L142.62,56.354L143.82,49.58L145.03,60.556L146.23,61.21L147.43,50.73L148.63,64.747L149.83,52.046L151.03,74.106L152.23,70.197L153.43,66.055L154.63,49.382L155.83,50.486L157.03,49.269L158.23,51.708L159.43,52.032L160.63,51.427L161.83,51.038L163.03,57.156L164.23,52.415L165.43,71.339L166.63,53.667L167.83,55.133L169.03,54.68L170.23,65.053L171.43,54.717L172.63,53.559L173.83,60.974L175.03,71.472L176.23,55.989L177.43,55.455L178.64,58.707L179.84,57.258L181.04,55.465L182.24,56.506L183.44,55.28L184.64,54.374L185.84,56.401L187.04,56.672L188.24,55.537L189.44,58.867L190.64,56.99L191.84,59.037L193.04,57.453L194.24,55.514L195.44,53.696L196.64,53.997L197.84,54.92L199.04,55.11L200.24,55.379L201.44,56.149L202.64,57.66L203.84,54.413L205.04,54.92L206.24,55.953L207.44,52.921L208.64,51.482L209.84,54.184L211.05,54.063L212.25,55.971L213.45,54.426L214.65,56.52L215.85,56.328L217.05,53.934L218.25,53.245L219.45,53.641L220.65,53.026L221.85,53.141L223.05,53.641L224.25,53.942L225.45,53.737L226.65,54.956L227.85,52.606L229.05,52.897L230.25,51.14L231.45,51.523L232.65,51.187L233.85,52.751L235.05,51.63L236.25,52.919L237.45,51.595L238.65,53.78L239.85,52.235L241.05,52.165L242.25,51.685L243.46,52.177L244.66,51.337L245.86,51.79L247.06,51.017L248.26,52.001L249.46,51.567L250.66,51.63L251.86,50.417L253.06,50.531L254.26,50.406L255.46,50.687L256.66,50.222L257.86,50.64L259.06,49.913L260.26,50.324L261.46,50.255L262.66,51.181L263.86,50.15L265.06,50.347L266.26,50.228L267.46,50.419L268.66,49.609L269.86,49.339L271.06,49.769L272.26,49.123L273.46,49.525L274.66,49.531L275.86,49.564L277.07,49.646L278.27,49.171L279.47,49.222L280.67,48.849L281.87,48.921L283.07,48.964L284.27,48.812L285.47,48.632L286.67,48.918L287.87,48.9L289.07,48.945L290.27,48.843L291.47,48.603L292.67,48.265L293.87,48.168L295.07,48.054L296.27,48.107L297.47,48.066L298.67,48.16L299.87,48.162L301.07,47.861L302.27,47.994L303.47,47.842L304.67,47.83L305.87,47.527L307.07,47.748L308.27,47.605L309.48,47.73L310.68,47.478L311.88,47.615L313.08,47.492L314.28,47.457L315.48,47.293L316.68,47.242L317.88,47.246L319.08,47.25L320.28,47.117L321.48,47.135L322.68,46.955L323.88,47.072L325.08,46.98L326.28,46.953L327.48,46.721L328.68,46.861L329.88,46.889L331.08,46.875L332.28,46.725L333.48,46.555L334.68,46.787L335.88,46.691L337.08,46.678L338.28,46.559L339.48,46.57L340.68,46.527L341.89,46.465L343.09,46.467L344.29,46.432L345.49,46.461L346.69,46.436L347.89,46.395L349.09,46.361L350.29,46.357L351.49,46.234L352.69,46.357L353.89,46.193L355.09,46.184L356.29,46.137L357.49,46.113L358.69,46.188L359.89,46.111L361.09,46.055L362.29,46.039L363.49,46.008L364.69,45.965L365.89,46.01L367.09,46.014L368.29,45.891L369.49,45.914L370.69,45.94L371.89,45.908L373.09,45.852L374.29,45.797L375.5,45.762L376.7,45.82L377.9,45.795L379.1,45.766L380.3,45.772L381.5,45.723L382.7,45.748L383.9,45.723L385.1,45.746L386.3,45.723L387.5,45.674L388.7,45.688L389.9,45.619L391.1,45.608L392.3,45.647L393.5,45.59L394.7,45.606L395.9,45.584L397.1,45.578L398.3,45.596L399.5,45.574L400.7,45.569L401.9,45.582L403.1,45.524L404.3,45.502L405.5,45.514L406.7,45.475L407.91,45.5L409.11,45.51L410.31,45.467L411.51,45.475L412.71,45.426L413.91,45.428L415.11,45.408L416.31,45.418L417.51,45.43L418.71,45.385L419.91,45.426L421.11,45.362L422.31,45.399L423.51,45.379L424.71,45.391L425.91,45.393L427.11,45.324L428.31,45.358L429.51,45.342L430.71,45.324L431.91,45.346L433.11,45.365L434.31,45.354L435.51,45.336L436.71,45.319L437.91,45.338L439.11,45.315L440.31,45.309L441.52,45.27L442.72,45.274L443.92,45.311L445.12,45.305L446.32,45.266L447.52,45.295L448.72,45.274L449.92,45.268L451.12,45.25L452.32,45.274L453.52,45.285L454.72,45.26L455.92,45.262L457.12,45.239L458.32,45.248L459.52,45.278L460.72,45.25L461.92,45.229L463.12,45.235L464.32,45.239L465.52,45.213L466.72,45.227L467.92,45.219L469.12,45.233L470.32,45.235L471.52,45.217L472.72,45.221L473.93,45.211L475.13,45.213L476.33,45.215L477.53,45.209L478.73,45.205L479.93,45.213L481.13,45.215L482.33,45.186L483.53,45.209L484.73,45.201L485.93,45.223L487.13,45.186L488.33,45.186L489.53,45.205L490.73,45.207L491.93,45.178L493.13,45.196L494.33,45.194L495.53,45.182L496.73,45.192L497.93,45.174L499.13,45.182L500.33,45.19L501.53,45.17L502.73,45.196L503.93,45.172L505.13,45.17L506.34,45.182L507.54,45.186L508.74,45.19L509.94,45.176L511.14,45.168L512.34,45.17L513.54,45.17L514.74,45.164L515.94,45.168L517.14,45.17L518.34,45.168L519.54,45.172L520.74,45.17L521.94,45.155L523.14,45.172L524.34,45.172L525.54,45.166L526.74,45.168L527.94,45.164L529.14,45.168L530.34,45.16L531.54,45.16L532.74,45.168L533.94,45.162L535.14,45.172L536.34,45.162L537.54,45.166L538.74,45.16L539.95,45.16L541.15,45.16L542.35,45.151L543.55,45.158L544.75,45.162L545.95,45.151L547.15,45.16L548.35,45.153L549.55,45.158L550.75,45.158L551.95,45.155L553.15,45.151L554.35,45.155L555.55,45.153L556.75,45.155L557.95,45.155L559.15,45.151L560.35,45.153L561.55,45.151L562.75,45.151L563.95,45.164L565.15,45.16L566.35,45.151L567.55,45.151L569.95,45.153L571.15,45.153L572.36,45.151L573.56,45.155L574.76,45.155L575.96,45.151L577.16,45.158L578.36,45.16L579.56,45.153L580.76,45.153L581.96,45.153L583.16,45.151L584.36,45.153L585.56,45.151L586.76,45.155L587.96,45.155L590.36,45.155L591.56,45.151L592.76,45.151L593.96,45.151L595.16,45.153L596.36,45.153L597.56,45.151L599.96,45.151L601.16,45.151L603.56,45.151L604.76,45.151L607.17,45.153L611.97,45.151L614.37,45.151L619.17,45.151L621.57,45.151L626.37,45.151L632.37,45.153L641.98,45.151L657.58,45.151L663.58,45.151L669.58,45.151L720,45.151" style="fill:none;stroke:#0000FF" />
</g>
</svg>
