<?xml version="1.0"?>
<!-- Generated by SVGo and Plotinum VG -->
<svg width="720pt" height="432pt" viewBox="0 0 720 432"
	xmlns="http://www.w3.org/2000/svg"
	xmlns:xlink="http://www.w3.org/1999/xlink">
<g transform="scale(1, -1) translate(0, -432)">
<path d="M0,0L720,0L720,432L0,432Z" style="fill:#FFFFFF" />
<text x="358.5" y="-420.45" transform="scale(1, -1)"
	style="font-family:Times;font-weight:normal;font-style:normal;font-size:12px"> </text>
<text x="383.06" y="-3.8613" transform="scale(1, -1)"
	style="font-family:Times;font-weight:normal;font-style:normal;font-size:12px">Costs</text>
<text x="70.305" y="-18.634" transform="scale(1, -1)"
	style="font-family:Times;font-weight:normal;font-style:normal;font-size:10px">0</text>
<text x="346.29" y="-18.634" transform="scale(1, -1)"
	style="font-family:Times;font-weight:normal;font-style:normal;font-size:10px">300</text>
<text x="627.27" y="-18.634" transform="scale(1, -1)"
	style="font-family:Times;font-weight:normal;font-style:normal;font-size:10px">600</text>
<path d="M72.805,28.263L72.805,36.263" style="fill:none;stroke:#000000;stroke-width:0.5" />
<path d="M353.79,28.263L353.79,36.263" style="fill:none;stroke:#000000;stroke-width:0.5" />
<path d="M634.77,28.263L634.77,36.263" style="fill:none;stroke:#000000;stroke-width:0.5" />
<path d="M166.47,32.263L166.47,36.263" style="fill:none;stroke:#000000;stroke-width:0.5" />
<path d="M260.13,32.263L260.13,36.263" style="fill:none;stroke:#000000;stroke-width:0.5" />
<path d="M447.45,32.263L447.45,36.263" style="fill:none;stroke:#000000;stroke-width:0.5" />
<path d="M541.11,32.263L541.11,36.263" style="fill:none;stroke:#000000;stroke-width:0.5" />
<path d="M72.805,36.263L720,36.263" style="fill:none;stroke:#000000;stroke-width:0.5" />
<g transform="rotate(90)">
<text x="152.55" y="11.555" transform="scale(1, -1)"
	style="font-family:Times;font-weight:normal;font-style:normal;font-size:12px">Number of trials (1000000 total)</text>
</g>
<text x="24.055" y="-68.997" transform="scale(1, -1)"
	style="font-family:Times;font-weight:normal;font-style:normal;font-size:10px">2500.00</text>
<text x="19.055" y="-177.25" transform="scale(1, -1)"
	style="font-family:Times;font-weight:normal;font-style:normal;font-size:10px">12500.00</text>
<text x="19.055" y="-285.49" transform="scale(1, -1)"
	style="font-family:Times;font-weight:normal;font-style:normal;font-size:10px">22500.00</text>
<text x="19.055" y="-393.74" transform="scale(1, -1)"
	style="font-family:Times;font-weight:normal;font-style:normal;font-size:10px">32500.00</text>
<path d="M59.055,72.203L67.055,72.203" style="fill:none;stroke:#000000;stroke-width:0.5" />
<path d="M59.055,180.45L67.055,180.45" style="fill:none;stroke:#000000;stroke-width:0.5" />
<path d="M59.055,288.7L67.055,288.7" style="fill:none;stroke:#000000;stroke-width:0.5" />
<path d="M59.055,396.95L67.055,396.95" style="fill:none;stroke:#000000;stroke-width:0.5" />
<path d="M63.055,126.33L67.055,126.33" style="fill:none;stroke:#000000;stroke-width:0.5" />
<path d="M63.055,234.58L67.055,234.58" style="fill:none;stroke:#000000;stroke-width:0.5" />
<path d="M63.055,342.82L67.055,342.82" style="fill:none;stroke:#000000;stroke-width:0.5" />
<path d="M67.055,45.151L67.055,416.58" style="fill:none;stroke:#000000;stroke-width:0.5" />
<path d="M72.805,416.58L95.283,63.619L97.156,101.23L98.093,69.312L99.966,88.938L101.84,70.059L103.71,66.379L104.65,103.53L106.52,150.13L109.33,48.821L110.27,55.825L111.21,174.88L112.14,67.526L113.08,60.176L114.02,167.61L114.95,58.726L117.76,48.778L119.64,108.2L120.57,153.77L121.51,46.699L122.44,122.61L123.38,55.511L124.32,58.607L125.25,90.984L126.19,94.036L127.13,49.6L128.06,62.547L129,62.926L129.94,96.05L130.87,71.174L131.81,101.32L132.75,46.992L133.68,67.992L134.62,47.619L135.56,81.274L136.49,64.961L137.43,56.268L138.37,96.623L139.3,65.058L140.24,56.712L141.18,105.82L142.11,82.053L143.05,81.653L143.99,62.569L144.92,113.55L145.86,79.834L146.8,70.503L147.73,269.23L148.67,74.768L149.61,75.396L150.54,69.551L151.48,80.126L152.42,113.79L153.35,86.351L154.29,103.05L155.23,59.603L156.16,85.29L157.1,70.86L158.04,82.67L158.97,107.66L159.91,75.104L160.85,107.7L161.78,101.86L162.72,68.576L163.66,114.92L164.59,77.55L165.53,78.719L166.47,78.665L167.4,93.484L168.34,74.79L169.28,83.861L170.21,112.09L171.15,77.507L172.09,109.16L173.02,113.72L173.96,76.673L174.89,103.01L175.83,79.369L176.77,93.376L177.7,82.562L178.64,90.204L179.58,132.2L180.51,77.918L181.45,125.67L182.39,85.063L183.32,89.815L184.26,77.853L185.2,83.904L186.13,141.87L187.07,82.8L188.01,90.183L188.94,146.08L189.88,85.593L190.82,84.608L191.75,79.704L192.69,87.78L193.63,73.772L194.56,118.89L195.5,133.8L196.44,75.829L197.37,118.86L198.31,87.823L199.25,87.704L200.18,111.46L201.12,105.64L202.06,87.725L202.99,81.869L203.93,93.051L204.87,103.76L205.8,94.848L206.74,105.26L207.68,80.007L208.61,92.662L209.55,77.593L210.49,97.782L211.42,100.68L212.36,79.304L213.3,107.02L214.23,90.248L215.17,81.62L216.11,106.73L217.04,98.994L217.98,94.004L218.92,84.283L219.85,109.32L220.79,97.1L221.73,87.141L222.66,106.35L223.6,87.92L224.53,89.079L225.47,82.129L226.41,93.452L227.34,106.77L228.28,93.571L229.22,102.2L230.15,84.911L231.09,90.02L232.03,87.671L232.96,93.354L233.9,100.88L234.84,84.316L235.77,102.47L236.71,96.959L237.65,81.079L238.58,105.49L239.52,88.288L240.46,84.965L241.39,87.628L242.33,94.664L243.27,84.002L244.2,87.206L245.14,98.788L246.08,83.948L247.01,87.163L247.95,96.786L248.89,84.9L249.82,86.881L250.76,84.067L251.7,86.675L252.63,84.456L253.57,84.132L254.51,95.682L255.44,82.627L256.38,82.465L257.32,84.727L258.25,88.332L259.19,79.737L260.13,81.274L261.06,87.282L262,78.005L262.94,82.486L263.87,86.914L264.81,81.447L265.75,81.111L266.68,79.455L267.62,83.352L268.56,78.319L269.49,85.69L270.43,83.569L271.37,77.085L272.3,78.708L273.24,80.018L274.18,79.748L275.11,81.436L276.05,78.806L276.98,80.072L277.92,75.612L278.86,78.73L279.79,77.052L280.73,77.929L281.67,76.836L282.6,75.483L283.54,76.121L284.48,72.69L285.41,76.435L286.35,80.657L287.29,73.069L288.22,76.359L289.16,75.851L290.1,73.469L291.03,73.848L291.97,75.039L292.91,73.686L293.84,70.839L294.78,73.632L295.72,75.212L296.65,72.181L297.59,73.166L298.53,70.395L299.46,69.215L300.4,69.237L301.34,70.806L302.27,70.449L303.21,68.934L304.15,69.626L305.08,70.925L306.02,68.068L306.96,68.511L307.89,68.998L308.83,67.039L309.77,66.747L310.7,67.483L311.64,66.043L312.58,65.913L313.51,66.953L314.45,66.942L315.39,64.885L316.32,65.827L317.26,66.087L318.2,65.545L319.13,64.539L320.07,65.664L321.01,64.192L321.94,63.315L322.88,64.127L323.82,64.571L324.75,63.034L325.69,63.012L326.63,63.456L327.56,62.287L328.5,62.688L329.43,63.337L330.37,62.698L331.31,61.313L332.24,60.642L333.18,61.627L334.12,60.685L335.05,59.776L335.99,61.789L336.93,59.938L337.86,59.57L338.8,60.588L339.74,59.451L340.67,58.293L341.61,59.072L342.55,59.159L343.48,58.607L344.42,59.516L345.36,57.979L346.29,58.314L347.23,57.113L348.17,57.871L349.1,57.968L350.04,57.156L350.98,56.463L351.91,56.788L352.85,56.323L353.79,56.907L354.72,56.95L355.66,56.463L356.6,55.348L357.53,55.522L358.47,55.651L359.41,54.417L360.34,55.565L361.28,54.807L362.22,54.71L363.15,54.266L364.09,54.991L365.03,53.4L365.96,53.898L366.9,54.656L367.84,53.919L368.77,53.27L369.71,53.465L370.65,53.238L371.58,53.541L372.52,53.216L373.46,52.761L374.39,52.815L375.33,52.101L376.27,51.993L377.2,52.512L378.14,52.123L379.08,51.982L380.01,52.036L380.95,51.646L381.88,51.408L382.82,51.625L383.76,51.538L384.69,51.635L385.63,51.386L386.57,50.813L387.5,50.726L388.44,50.336L389.38,50.715L390.31,50.207L391.25,50.434L392.19,50.791L393.12,50.64L394.06,50.131L395,50.207L395.93,49.99L396.87,49.741L397.81,49.914L398.74,49.73L399.68,49.427L400.62,49.752L401.55,49.351L402.49,49.319L403.43,48.951L404.36,49.492L405.3,49.579L406.24,48.94L407.17,48.453L408.11,49.016L409.05,48.659L409.98,48.258L410.92,48.529L411.86,48.366L412.79,48.366L413.73,48.615L414.67,48.345L415.6,48.161L416.54,48.02L417.48,48.052L418.41,48.258L419.35,47.987L420.29,47.955L421.22,47.739L422.16,47.576L423.1,47.663L424.03,47.879L424.97,47.479L425.91,47.392L426.84,47.933L427.78,47.554L428.72,47.197L429.65,47.176L430.59,47.1L431.53,47.576L432.46,47.208L433.4,46.981L434.33,47.306L435.27,46.981L436.21,47.186L437.14,47.057L438.08,46.829L439.02,46.753L439.95,46.797L440.89,46.959L441.83,47.002L442.76,46.97L443.7,46.461L444.64,46.515L445.57,46.548L446.51,46.656L447.45,46.418L448.38,46.515L449.32,46.548L450.26,46.504L451.19,46.472L452.13,46.537L453.07,46.613L454,46.147L454.94,46.234L455.88,46.31L456.81,46.245L457.75,46.429L458.69,46.342L459.62,46.245L460.56,46.093L461.5,46.126L462.43,46.136L463.37,45.931L464.31,46.082L465.24,46.05L466.18,46.158L467.12,45.92L468.05,46.05L468.99,46.082L469.93,45.996L470.86,45.985L471.8,45.823L472.74,45.747L473.67,45.812L474.61,45.812L475.55,45.779L476.48,45.877L477.42,45.823L478.36,45.768L479.29,45.866L480.23,45.747L481.17,45.833L482.1,45.617L483.04,45.584L483.98,45.638L484.91,45.53L485.85,45.693L486.78,45.66L487.72,45.638L488.66,45.628L489.59,45.53L490.53,45.638L491.47,45.368L492.4,45.703L493.34,45.519L494.28,45.498L495.21,45.454L496.15,45.519L497.09,45.433L498.02,45.509L498.96,45.454L499.9,45.498L500.83,45.444L501.77,45.433L502.71,45.379L503.64,45.357L504.58,45.433L505.52,45.335L506.45,45.465L507.39,45.379L508.33,45.422L509.26,45.465L510.2,45.335L511.14,45.325L512.07,45.346L513.01,45.433L513.95,45.39L514.88,45.26L515.82,45.357L516.76,45.357L517.69,45.368L518.63,45.368L519.57,45.346L520.5,45.314L521.44,45.335L522.38,45.379L523.31,45.292L524.25,45.303L525.19,45.325L526.12,45.314L527.06,45.27L528,45.26L528.93,45.325L529.87,45.27L530.81,45.205L531.74,45.227L532.68,45.27L533.62,45.281L534.55,45.249L535.49,45.27L536.43,45.238L537.36,45.238L538.3,45.249L539.23,45.227L540.17,45.216L541.11,45.27L542.04,45.195L542.98,45.249L543.92,45.205L544.85,45.26L545.79,45.205L546.73,45.26L547.66,45.238L548.6,45.238L549.54,45.184L550.47,45.216L551.41,45.184L552.35,45.216L553.28,45.238L554.22,45.173L555.16,45.195L556.09,45.195L557.03,45.195L557.97,45.173L558.9,45.205L559.84,45.195L560.78,45.216L561.71,45.173L562.65,45.227L563.59,45.184L564.52,45.184L565.46,45.184L566.4,45.184L567.33,45.205L568.27,45.195L569.21,45.173L570.14,45.162L571.08,45.162L572.02,45.151L572.95,45.184L573.89,45.195L574.83,45.162L575.76,45.173L576.7,45.151L577.64,45.184L578.57,45.173L579.51,45.173L581.38,45.162L582.32,45.151L583.26,45.162L584.19,45.151L585.13,45.173L586.07,45.173L587,45.173L587.94,45.184L588.88,45.151L589.81,45.151L590.75,45.162L591.68,45.151L592.62,45.151L593.56,45.195L595.43,45.184L598.24,45.173L599.18,45.151L600.11,45.151L601.99,45.151L603.86,45.151L604.8,45.162L605.73,45.162L606.67,45.151L607.61,45.162L610.42,45.162L614.16,45.151L616.97,45.151L617.91,45.151L621.66,45.151L623.53,45.151L627.28,45.151L630.09,45.151L633.83,45.151L636.64,45.151L640.39,45.151L643.2,45.151L645.07,45.162L653.5,45.151L655.37,45.151L657.25,45.151L663.8,45.151L720,45.151" style="fill:none;stroke:#0000FF" />
</g>
</svg>
