<?xml version="1.0"?>
<!-- Generated by SVGo and Plotinum VG -->
<svg width="720pt" height="432pt" viewBox="0 0 720 432"
	xmlns="http://www.w3.org/2000/svg"
	xmlns:xlink="http://www.w3.org/1999/xlink">
<g transform="scale(1, -1) translate(0, -432)">
<path d="M0,0L720,0L720,432L0,432Z" style="fill:#FFFFFF" />
<text x="358.5" y="-420.45" transform="scale(1, -1)"
	style="font-family:Times;font-weight:normal;font-style:normal;font-size:12px"> </text>
<text x="379.31" y="-3.8613" transform="scale(1, -1)"
	style="font-family:Times;font-weight:normal;font-style:normal;font-size:12px">Costs</text>
<text x="62.805" y="-18.634" transform="scale(1, -1)"
	style="font-family:Times;font-weight:normal;font-style:normal;font-size:10px">0</text>
<text x="226.54" y="-18.634" transform="scale(1, -1)"
	style="font-family:Times;font-weight:normal;font-style:normal;font-size:10px">100</text>
<text x="395.28" y="-18.634" transform="scale(1, -1)"
	style="font-family:Times;font-weight:normal;font-style:normal;font-size:10px">200</text>
<text x="564.01" y="-18.634" transform="scale(1, -1)"
	style="font-family:Times;font-weight:normal;font-style:normal;font-size:10px">300</text>
<path d="M65.305,28.263L65.305,36.263" style="fill:none;stroke:#000000;stroke-width:0.5" />
<path d="M234.04,28.263L234.04,36.263" style="fill:none;stroke:#000000;stroke-width:0.5" />
<path d="M402.78,28.263L402.78,36.263" style="fill:none;stroke:#000000;stroke-width:0.5" />
<path d="M571.51,28.263L571.51,36.263" style="fill:none;stroke:#000000;stroke-width:0.5" />
<path d="M99.052,32.263L99.052,36.263" style="fill:none;stroke:#000000;stroke-width:0.5" />
<path d="M132.8,32.263L132.8,36.263" style="fill:none;stroke:#000000;stroke-width:0.5" />
<path d="M166.55,32.263L166.55,36.263" style="fill:none;stroke:#000000;stroke-width:0.5" />
<path d="M200.29,32.263L200.29,36.263" style="fill:none;stroke:#000000;stroke-width:0.5" />
<path d="M267.79,32.263L267.79,36.263" style="fill:none;stroke:#000000;stroke-width:0.5" />
<path d="M301.53,32.263L301.53,36.263" style="fill:none;stroke:#000000;stroke-width:0.5" />
<path d="M335.28,32.263L335.28,36.263" style="fill:none;stroke:#000000;stroke-width:0.5" />
<path d="M369.03,32.263L369.03,36.263" style="fill:none;stroke:#000000;stroke-width:0.5" />
<path d="M436.52,32.263L436.52,36.263" style="fill:none;stroke:#000000;stroke-width:0.5" />
<path d="M470.27,32.263L470.27,36.263" style="fill:none;stroke:#000000;stroke-width:0.5" />
<path d="M504.02,32.263L504.02,36.263" style="fill:none;stroke:#000000;stroke-width:0.5" />
<path d="M537.77,32.263L537.77,36.263" style="fill:none;stroke:#000000;stroke-width:0.5" />
<path d="M605.26,32.263L605.26,36.263" style="fill:none;stroke:#000000;stroke-width:0.5" />
<path d="M639.01,32.263L639.01,36.263" style="fill:none;stroke:#000000;stroke-width:0.5" />
<path d="M672.75,32.263L672.75,36.263" style="fill:none;stroke:#000000;stroke-width:0.5" />
<path d="M706.5,32.263L706.5,36.263" style="fill:none;stroke:#000000;stroke-width:0.5" />
<path d="M65.305,36.263L720,36.263" style="fill:none;stroke:#000000;stroke-width:0.5" />
<g transform="rotate(90)">
<text x="152.55" y="11.555" transform="scale(1, -1)"
	style="font-family:Times;font-weight:normal;font-style:normal;font-size:12px">Number of trials (1000000 total)</text>
</g>
<text x="24.055" y="-88.328" transform="scale(1, -1)"
	style="font-family:Times;font-weight:normal;font-style:normal;font-size:10px">50000</text>
<text x="19.055" y="-227.48" transform="scale(1, -1)"
	style="font-family:Times;font-weight:normal;font-style:normal;font-size:10px">200000</text>
<text x="19.055" y="-366.63" transform="scale(1, -1)"
	style="font-family:Times;font-weight:normal;font-style:normal;font-size:10px">350000</text>
<path d="M51.555,91.534L59.555,91.534" style="fill:none;stroke:#000000;stroke-width:0.5" />
<path d="M51.555,230.68L59.555,230.68" style="fill:none;stroke:#000000;stroke-width:0.5" />
<path d="M51.555,369.83L59.555,369.83" style="fill:none;stroke:#000000;stroke-width:0.5" />
<path d="M55.555,161.11L59.555,161.11" style="fill:none;stroke:#000000;stroke-width:0.5" />
<path d="M55.555,300.26L59.555,300.26" style="fill:none;stroke:#000000;stroke-width:0.5" />
<path d="M59.555,45.151L59.555,416.58" style="fill:none;stroke:#000000;stroke-width:0.5" />
<path d="M65.305,416.58L109.18,59.272L110.86,48.609L112.55,52.216L115.93,48.445L117.61,48.778L119.3,62.957L120.99,48.594L122.67,55.678L124.36,69.659L126.05,48.53L127.74,55.632L129.42,58.959L131.11,58.917L132.8,51.881L134.49,62.933L136.17,66.126L137.86,55.149L139.55,55.979L142.92,76.902L147.99,52.216L149.67,55.525L151.36,48.447L153.05,45.248L154.73,52.237L156.42,48.905L158.11,45.228L159.8,66.246L161.48,45.308L163.17,45.913L164.86,49.109L166.55,52.846L168.23,56.888L169.92,52.958L171.61,49.54L173.3,45.97L174.98,46.48L176.67,46.518L178.36,47.451L180.05,46.93L181.73,47.432L183.42,47.498L185.11,57.456L186.79,48.397L188.48,48.042L190.17,55.442L191.86,47.505L193.54,48.884L195.23,48.292L196.92,48.793L198.61,48.138L200.29,54.975L201.98,59.947L203.67,48.352L205.36,48.364L207.04,48.616L208.73,48.773L210.42,47.659L212.1,48.63L213.79,49.769L215.48,47.561L217.17,47.688L218.85,48.413L220.54,47.816L222.23,47.438L223.92,47.638L225.6,48.386L227.29,47.997L228.98,48.11L230.67,47.624L232.35,47.926L234.04,47.599L235.73,46.802L237.42,48.726L239.1,47.367L240.79,46.868L242.48,47.146L244.16,48.307L245.85,47.48L247.54,46.965L249.23,47.612L250.91,46.701L252.6,46.637L254.29,47.621L255.98,47.387L257.66,46.729L259.35,47.568L261.04,47.48L262.73,47.853L264.41,47.008L266.1,46.75L267.79,47.189L269.48,46.842L271.16,47.157L272.85,47.018L274.54,46.834L276.22,46.381L277.91,46.479L279.6,47.484L281.29,45.986L282.97,46.073L284.66,46.682L286.35,46.505L288.04,46.306L289.72,46.348L291.41,46.352L293.1,46.12L294.79,46.317L296.47,46.691L298.16,45.912L299.85,45.889L301.53,46.048L303.22,46.304L304.91,46.295L306.6,46.114L308.28,46.012L309.97,46.001L311.66,45.758L313.35,45.804L315.03,45.824L316.72,45.757L318.41,45.81L320.1,45.94L321.78,46.077L323.47,45.718L325.16,45.815L326.85,45.971L328.53,45.744L330.22,45.736L331.91,45.765L333.59,45.749L335.28,45.634L336.97,45.858L338.66,45.703L340.34,45.662L342.03,45.599L343.72,45.634L345.41,45.599L347.09,45.595L348.78,45.65L350.47,45.617L352.16,45.543L353.84,45.549L355.53,45.538L357.22,45.526L358.91,45.455L360.59,45.47L362.28,45.54L363.97,45.503L365.65,45.488L367.34,45.486L369.03,45.469L370.72,45.432L372.4,45.415L374.09,45.445L375.78,45.382L377.47,45.355L379.15,45.404L380.84,45.423L382.53,45.347L384.22,45.391L385.9,45.402L387.59,45.356L389.28,45.337L390.96,45.401L392.65,45.355L394.34,45.316L396.03,45.325L397.71,45.34L399.4,45.329L401.09,45.304L402.78,45.324L404.46,45.31L406.15,45.283L407.84,45.29L409.53,45.283L411.21,45.288L412.9,45.271L414.59,45.284L416.28,45.264L417.96,45.249L419.65,45.253L421.34,45.284L423.02,45.259L424.71,45.252L426.4,45.259L428.09,45.251L429.77,45.239L431.46,45.243L433.15,45.239L434.84,45.232L436.52,45.238L438.21,45.239L439.9,45.229L441.59,45.225L443.27,45.221L444.96,45.227L446.65,45.222L448.34,45.205L450.02,45.197L451.71,45.209L453.4,45.214L455.08,45.192L456.77,45.197L458.46,45.215L460.15,45.193L461.83,45.209L463.52,45.188L465.21,45.199L466.9,45.188L468.58,45.189L470.27,45.187L471.96,45.19L473.65,45.19L475.33,45.179L477.02,45.189L478.71,45.182L480.4,45.18L482.08,45.176L483.77,45.174L485.46,45.174L487.14,45.175L488.83,45.175L490.52,45.171L492.21,45.172L493.89,45.172L495.58,45.171L497.27,45.171L498.96,45.175L500.64,45.173L502.33,45.171L504.02,45.16L505.71,45.168L507.39,45.165L509.08,45.162L510.77,45.166L512.45,45.159L514.14,45.162L515.83,45.162L517.52,45.162L519.2,45.162L520.89,45.167L522.58,45.163L524.27,45.161L525.95,45.164L527.64,45.159L529.33,45.159L531.02,45.156L532.7,45.163L534.39,45.155L536.08,45.158L537.77,45.156L539.45,45.159L541.14,45.155L542.83,45.158L544.51,45.156L546.2,45.162L547.89,45.155L549.58,45.154L551.26,45.154L552.95,45.157L554.64,45.153L556.33,45.155L558.01,45.157L559.7,45.153L561.39,45.152L563.08,45.151L564.76,45.152L566.45,45.158L568.14,45.156L569.83,45.156L571.51,45.154L573.2,45.154L574.89,45.152L576.57,45.155L578.26,45.152L579.95,45.154L581.64,45.151L583.32,45.153L585.01,45.155L586.7,45.152L588.39,45.152L590.07,45.153L591.76,45.152L593.45,45.151L595.14,45.155L596.82,45.152L598.51,45.151L603.57,45.152L606.95,45.151L608.63,45.151L612.01,45.151L613.7,45.151L615.38,45.151L617.07,45.153L622.13,45.151L623.82,45.153L627.2,45.154L630.57,45.151L632.26,45.151L633.94,45.151L637.32,45.151L639.01,45.151L644.07,45.151L647.44,45.151L650.82,45.151L652.51,45.151L654.19,45.151L657.57,45.151L660.94,45.151L667.69,45.151L677.82,45.151L684.57,45.151L694.69,45.151L698.06,45.152L703.13,45.151L704.81,45.151L709.88,45.151L720,45.151" style="fill:none;stroke:#0000FF" />
</g>
</svg>
