<?xml version="1.0"?>
<!-- Generated by SVGo and Plotinum VG -->
<svg width="720pt" height="432pt" viewBox="0 0 720 432"
	xmlns="http://www.w3.org/2000/svg"
	xmlns:xlink="http://www.w3.org/1999/xlink">
<g transform="scale(1, -1) translate(0, -432)">
<path d="M0,0L720,0L720,432L0,432Z" style="fill:#FFFFFF" />
<text x="358.5" y="-420.45" transform="scale(1, -1)"
	style="font-family:Times;font-weight:normal;font-style:normal;font-size:12px"> </text>
<text x="379.31" y="-3.8613" transform="scale(1, -1)"
	style="font-family:Times;font-weight:normal;font-style:normal;font-size:12px">Costs</text>
<text x="62.805" y="-18.634" transform="scale(1, -1)"
	style="font-family:Times;font-weight:normal;font-style:normal;font-size:10px">0</text>
<text x="344.32" y="-18.634" transform="scale(1, -1)"
	style="font-family:Times;font-weight:normal;font-style:normal;font-size:10px">200</text>
<text x="630.84" y="-18.634" transform="scale(1, -1)"
	style="font-family:Times;font-weight:normal;font-style:normal;font-size:10px">400</text>
<path d="M65.305,28.263L65.305,36.263" style="fill:none;stroke:#000000;stroke-width:0.5" />
<path d="M351.82,28.263L351.82,36.263" style="fill:none;stroke:#000000;stroke-width:0.5" />
<path d="M638.34,28.263L638.34,36.263" style="fill:none;stroke:#000000;stroke-width:0.5" />
<path d="M208.56,32.263L208.56,36.263" style="fill:none;stroke:#000000;stroke-width:0.5" />
<path d="M495.08,32.263L495.08,36.263" style="fill:none;stroke:#000000;stroke-width:0.5" />
<path d="M65.305,36.263L720,36.263" style="fill:none;stroke:#000000;stroke-width:0.5" />
<g transform="rotate(90)">
<text x="152.55" y="11.555" transform="scale(1, -1)"
	style="font-family:Times;font-weight:normal;font-style:normal;font-size:12px">Number of trials (1000000 total)</text>
</g>
<text x="24.055" y="-90.9" transform="scale(1, -1)"
	style="font-family:Times;font-weight:normal;font-style:normal;font-size:10px">40000</text>
<text x="19.055" y="-237.76" transform="scale(1, -1)"
	style="font-family:Times;font-weight:normal;font-style:normal;font-size:10px">160000</text>
<text x="19.055" y="-384.63" transform="scale(1, -1)"
	style="font-family:Times;font-weight:normal;font-style:normal;font-size:10px">280000</text>
<path d="M51.555,94.105L59.555,94.105" style="fill:none;stroke:#000000;stroke-width:0.5" />
<path d="M51.555,240.97L59.555,240.97" style="fill:none;stroke:#000000;stroke-width:0.5" />
<path d="M51.555,387.84L59.555,387.84" style="fill:none;stroke:#000000;stroke-width:0.5" />
<path d="M55.555,167.54L59.555,167.54" style="fill:none;stroke:#000000;stroke-width:0.5" />
<path d="M55.555,314.4L59.555,314.4" style="fill:none;stroke:#000000;stroke-width:0.5" />
<path d="M59.555,45.151L59.555,416.58" style="fill:none;stroke:#000000;stroke-width:0.5" />
<path d="M65.305,416.58L103.98,59.618L105.42,80.554L106.85,51.989L109.72,63.008L111.15,48.448L112.58,52.217L114.01,73.769L116.88,80.909L121.18,48.538L122.61,62.024L124.04,59.56L125.47,59.073L128.34,69.86L131.2,69.92L135.5,59.226L136.93,59.467L138.37,59.456L141.23,66.381L142.66,59.395L144.1,46.455L145.53,46.281L146.96,49.189L148.4,60.225L149.83,50.309L151.26,46.082L152.69,75.902L154.13,54.853L155.56,47.248L156.99,48.887L158.42,47.326L159.86,45.536L161.29,48.198L162.72,48.092L164.15,48.19L165.59,49.73L167.02,47.258L168.45,49.272L169.88,62.336L171.32,63.306L172.75,48.401L174.18,48.529L175.61,56.958L177.05,50.702L178.48,47.283L179.91,65.595L181.34,70.533L182.78,50.967L184.21,47.594L185.64,49.018L187.08,50.516L188.51,50.693L189.94,50.053L191.37,49.26L192.81,51.994L194.24,51.3L195.67,47.859L197.1,49.532L198.54,49.059L199.97,49.707L201.4,51.358L202.83,47.408L204.27,50.888L205.7,48.234L207.13,48.373L208.56,48.519L210,49.805L211.43,50.193L212.86,48.904L214.29,49.195L215.73,49.683L217.16,47.254L218.59,51.165L220.02,50.922L221.46,50.098L222.89,49.283L224.32,49.385L225.76,49.255L227.19,48.467L228.62,50.461L230.05,50.41L231.49,48.55L232.92,49.381L234.35,47.797L235.78,48.681L237.22,48.783L238.65,48.538L240.08,48.827L241.51,49.464L242.95,48.445L244.38,48.331L245.81,48.562L247.24,49.409L248.68,47.135L250.11,47.006L251.54,48.209L252.97,49.078L254.41,47.855L255.84,47.308L257.27,49.251L258.7,49.149L260.14,46.976L261.57,46.572L263,47.963L264.44,47.802L265.87,46.761L267.3,47.766L268.73,48.61L270.17,47.291L271.6,46.675L273.03,46.55L274.46,46.527L275.9,47.17L277.33,46.709L278.76,46.54L280.19,46.954L281.63,47.069L283.06,46.417L284.49,47.118L285.92,48.074L287.36,47.474L288.79,46.518L290.22,46.729L291.65,47.053L293.09,46.522L294.52,46.418L295.95,47.406L297.38,46.515L298.82,46.642L300.25,46.274L301.68,46.395L303.12,46.467L304.55,46.4L305.98,46.392L307.41,46.427L308.85,46.46L310.28,46.334L311.71,46.126L313.14,46.127L314.58,46.164L316.01,46.354L317.44,46.151L318.87,46.105L320.31,46.1L321.74,45.979L323.17,46.024L324.6,46.108L326.04,46.059L327.47,46.026L328.9,46L330.33,46.019L331.77,45.966L333.2,45.913L334.63,46.112L336.06,45.951L337.5,45.778L338.93,45.856L340.36,45.943L341.8,45.864L343.23,45.724L344.66,45.821L346.09,45.848L347.53,45.785L348.96,45.616L350.39,45.728L351.82,45.755L353.26,45.705L354.69,45.602L356.12,45.683L357.55,45.676L358.99,45.689L360.42,45.508L361.85,45.659L363.28,45.602L364.72,45.506L366.15,45.512L367.58,45.601L369.01,45.612L370.45,45.495L371.88,45.571L373.31,45.642L374.74,45.548L376.18,45.462L377.61,45.433L379.04,45.505L380.48,45.406L381.91,45.429L383.34,45.487L384.77,45.403L386.21,45.44L387.64,45.44L389.07,45.374L390.5,45.399L391.94,45.408L393.37,45.399L394.8,45.344L396.23,45.388L397.67,45.381L399.1,45.355L400.53,45.394L401.96,45.389L403.4,45.355L404.83,45.328L406.26,45.346L407.69,45.353L409.13,45.324L410.56,45.306L411.99,45.325L413.42,45.335L414.86,45.325L416.29,45.314L417.72,45.297L419.16,45.319L420.59,45.301L422.02,45.276L423.45,45.276L424.89,45.284L426.32,45.266L427.75,45.296L429.18,45.275L430.62,45.254L432.05,45.255L433.48,45.247L434.91,45.238L436.35,45.251L437.78,45.241L439.21,45.259L440.64,45.254L442.08,45.257L443.51,45.213L444.94,45.23L446.37,45.247L447.81,45.21L449.24,45.225L450.67,45.241L452.1,45.206L453.54,45.228L454.97,45.211L456.4,45.203L457.84,45.204L459.27,45.203L460.7,45.206L462.13,45.227L463.57,45.193L465,45.199L466.43,45.191L467.86,45.188L469.3,45.189L470.73,45.18L472.16,45.198L473.59,45.193L475.03,45.193L476.46,45.187L477.89,45.192L479.32,45.191L480.76,45.188L482.19,45.181L483.62,45.182L485.05,45.183L486.49,45.192L487.92,45.173L489.35,45.182L490.79,45.172L492.22,45.18L493.65,45.167L495.08,45.177L496.52,45.167L497.95,45.17L499.38,45.182L500.81,45.177L502.25,45.166L503.68,45.175L505.11,45.171L506.54,45.175L507.98,45.167L509.41,45.17L510.84,45.16L512.27,45.172L513.71,45.166L515.14,45.166L516.57,45.161L518,45.167L519.44,45.162L520.87,45.165L522.3,45.164L523.73,45.165L525.17,45.159L526.6,45.156L528.03,45.167L529.47,45.167L530.9,45.161L532.33,45.16L533.76,45.162L535.2,45.165L536.63,45.154L538.06,45.157L539.49,45.161L540.93,45.16L542.36,45.156L543.79,45.159L545.22,45.157L546.66,45.154L548.09,45.153L549.52,45.154L550.95,45.155L552.39,45.16L553.82,45.154L555.25,45.153L556.68,45.155L558.12,45.155L559.55,45.157L560.98,45.155L562.41,45.155L563.85,45.153L565.28,45.156L566.71,45.153L568.15,45.153L569.58,45.151L572.44,45.153L573.88,45.154L575.31,45.155L576.74,45.157L578.17,45.153L579.61,45.151L581.04,45.154L582.47,45.151L583.9,45.153L585.34,45.154L586.77,45.154L588.2,45.151L591.07,45.153L592.5,45.151L593.93,45.155L595.36,45.151L598.23,45.151L602.53,45.151L603.96,45.151L605.39,45.153L606.83,45.154L608.26,45.151L609.69,45.151L618.29,45.151L619.72,45.153L628.31,45.153L629.75,45.151L632.61,45.151L638.34,45.151L639.77,45.151L641.21,45.151L642.64,45.151L646.94,45.151L649.8,45.151L651.24,45.151L658.4,45.151L659.83,45.151L661.26,45.151L666.99,45.151L668.43,45.151L675.59,45.151L679.89,45.151L681.32,45.151L685.62,45.151L712.84,45.151L720,45.151" style="fill:none;stroke:#0000FF" />
</g>
</svg>
