<?xml version="1.0"?>
<!-- Generated by SVGo and Plotinum VG -->
<svg width="720pt" height="432pt" viewBox="0 0 720 432"
	xmlns="http://www.w3.org/2000/svg"
	xmlns:xlink="http://www.w3.org/1999/xlink">
<g transform="scale(1, -1) translate(0, -432)">
<path d="M0,0L720,0L720,432L0,432Z" style="fill:#FFFFFF" />
<text x="358.5" y="-420.45" transform="scale(1, -1)"
	style="font-family:Times;font-weight:normal;font-style:normal;font-size:12px"> </text>
<text x="379.31" y="-3.8613" transform="scale(1, -1)"
	style="font-family:Times;font-weight:normal;font-style:normal;font-size:12px">Costs</text>
<text x="56.555" y="-18.634" transform="scale(1, -1)"
	style="font-family:Times;font-weight:normal;font-style:normal;font-size:10px">0.00</text>
<text x="363.31" y="-18.634" transform="scale(1, -1)"
	style="font-family:Times;font-weight:normal;font-style:normal;font-size:10px">250.00</text>
<text x="675.07" y="-18.634" transform="scale(1, -1)"
	style="font-family:Times;font-weight:normal;font-style:normal;font-size:10px">500.00</text>
<path d="M65.305,28.263L65.305,36.263" style="fill:none;stroke:#000000;stroke-width:0.5" />
<path d="M377.06,28.263L377.06,36.263" style="fill:none;stroke:#000000;stroke-width:0.5" />
<path d="M688.82,28.263L688.82,36.263" style="fill:none;stroke:#000000;stroke-width:0.5" />
<path d="M127.66,32.263L127.66,36.263" style="fill:none;stroke:#000000;stroke-width:0.5" />
<path d="M190.01,32.263L190.01,36.263" style="fill:none;stroke:#000000;stroke-width:0.5" />
<path d="M252.36,32.263L252.36,36.263" style="fill:none;stroke:#000000;stroke-width:0.5" />
<path d="M314.71,32.263L314.71,36.263" style="fill:none;stroke:#000000;stroke-width:0.5" />
<path d="M439.42,32.263L439.42,36.263" style="fill:none;stroke:#000000;stroke-width:0.5" />
<path d="M501.77,32.263L501.77,36.263" style="fill:none;stroke:#000000;stroke-width:0.5" />
<path d="M564.12,32.263L564.12,36.263" style="fill:none;stroke:#000000;stroke-width:0.5" />
<path d="M626.47,32.263L626.47,36.263" style="fill:none;stroke:#000000;stroke-width:0.5" />
<path d="M65.305,36.263L720,36.263" style="fill:none;stroke:#000000;stroke-width:0.5" />
<g transform="rotate(90)">
<text x="152.55" y="11.555" transform="scale(1, -1)"
	style="font-family:Times;font-weight:normal;font-style:normal;font-size:12px">Number of trials (1000000 total)</text>
</g>
<text x="24.055" y="-114.27" transform="scale(1, -1)"
	style="font-family:Times;font-weight:normal;font-style:normal;font-size:10px">50000</text>
<text x="19.055" y="-258.93" transform="scale(1, -1)"
	style="font-family:Times;font-weight:normal;font-style:normal;font-size:10px">150000</text>
<text x="19.055" y="-403.59" transform="scale(1, -1)"
	style="font-family:Times;font-weight:normal;font-style:normal;font-size:10px">250000</text>
<path d="M51.555,117.48L59.555,117.48" style="fill:none;stroke:#000000;stroke-width:0.5" />
<path d="M51.555,262.13L59.555,262.13" style="fill:none;stroke:#000000;stroke-width:0.5" />
<path d="M51.555,406.79L59.555,406.79" style="fill:none;stroke:#000000;stroke-width:0.5" />
<path d="M55.555,189.81L59.555,189.81" style="fill:none;stroke:#000000;stroke-width:0.5" />
<path d="M55.555,334.46L59.555,334.46" style="fill:none;stroke:#000000;stroke-width:0.5" />
<path d="M59.555,45.151L59.555,416.58" style="fill:none;stroke:#000000;stroke-width:0.5" />
<path d="M65.305,416.58L97.728,55.782L98.975,62.17L103.96,55.528L105.21,58.966L106.46,74.245L107.7,74.43L108.95,58.879L110.2,55.489L111.45,48.531L112.69,48.574L113.94,48.561L115.19,48.642L116.43,69.847L117.68,55.25L118.93,52.14L120.17,74.349L121.42,77.803L122.67,74.783L126.41,62.16L127.66,52.008L128.9,59.17L130.15,45.215L131.4,114.76L132.64,62.637L133.89,48.81L135.14,62.374L136.39,49.015L137.63,52.908L138.88,46.523L140.13,47.395L141.37,53.712L142.62,60.253L143.87,53.002L145.12,46.369L146.36,47.286L147.61,46.87L148.86,49.044L150.1,48.455L151.35,48.175L152.6,47.784L153.84,48.68L155.09,48.823L156.34,55.311L157.59,51.497L158.83,49.602L160.08,50.693L161.33,51.743L162.57,51.96L163.82,53.524L165.07,75.176L166.31,71.354L167.56,49.647L168.81,50.077L170.06,51.129L171.3,53.281L172.55,55.529L173.8,56.381L175.04,52.844L176.29,54.113L177.54,52.224L178.79,51.292L180.03,48.891L181.28,49.396L182.53,54.231L183.77,53.527L185.02,51.27L186.27,54.198L187.51,54.499L188.76,53.99L190.01,50.007L191.26,48.34L192.5,51.732L193.75,49.714L195,50.541L196.24,48.684L197.49,53.737L198.74,54.764L199.98,50.243L201.23,50.452L202.48,48.065L203.73,49.245L204.97,49.294L206.22,50.012L207.47,52.331L208.71,52.422L209.96,50.117L211.21,48.684L212.46,48.947L213.7,48.471L214.95,48.241L216.2,49.005L217.44,49.673L218.69,48.804L219.94,49.643L221.18,51.32L222.43,51.972L223.68,49.785L224.93,47.632L226.17,48.889L227.42,49.585L228.67,49.3L229.91,48.733L231.16,52.056L232.41,52.727L233.65,49.121L234.9,48.885L236.15,48.69L237.4,48.395L238.64,48.382L239.89,48.248L241.14,48.243L242.38,49.189L243.63,48.842L244.88,47.835L246.13,47.275L247.37,47.142L248.62,47.624L249.87,47.729L251.11,47.561L252.36,47.553L253.61,47.768L254.85,47.699L256.1,47.859L257.35,47.566L258.6,47.434L259.84,47.258L261.09,47.333L262.34,47.453L263.58,47.689L264.83,47.923L266.08,48.423L267.32,47.061L268.57,46.838L269.82,46.939L271.07,47.019L272.31,47.182L273.56,47.366L274.81,47.362L276.05,47.136L277.3,47.109L278.55,47.048L279.8,46.728L281.04,46.471L282.29,46.653L283.54,47.036L284.78,46.853L286.03,46.883L287.28,46.949L288.52,46.913L289.77,46.785L291.02,46.401L292.27,46.388L293.51,46.565L294.76,46.462L296.01,46.288L297.25,46.481L298.5,46.782L299.75,46.673L301,46.366L302.24,46.203L303.49,46.074L304.74,46.215L305.98,46.125L307.23,46.131L308.48,46.207L309.72,46.202L310.97,46.058L312.22,45.966L313.47,45.982L314.71,45.931L315.96,45.924L317.21,45.927L318.45,45.921L319.7,45.872L320.95,45.935L322.19,46.058L323.44,45.93L324.69,45.811L325.94,45.801L327.18,45.836L328.43,45.853L329.68,45.895L330.92,45.786L332.17,45.937L333.42,45.782L334.67,45.775L335.91,45.731L337.16,45.674L338.41,45.665L339.65,45.73L340.9,45.689L342.15,45.688L343.39,45.703L344.64,45.622L345.89,45.567L347.14,45.516L348.38,45.577L349.63,45.572L350.88,45.565L352.12,45.581L353.37,45.577L354.62,45.545L355.86,45.559L357.11,45.543L358.36,45.506L359.61,45.499L360.85,45.47L362.1,45.512L363.35,45.457L364.59,45.499L365.84,45.464L367.09,45.438L368.34,45.394L369.58,45.399L370.83,45.402L372.08,45.384L373.32,45.367L374.57,45.445L375.82,45.406L377.06,45.386L378.31,45.407L379.56,45.367L380.81,45.321L382.05,45.331L383.3,45.348L384.55,45.318L385.79,45.324L387.04,45.329L388.29,45.339L389.53,45.315L390.78,45.309L392.03,45.303L393.28,45.303L394.52,45.292L395.77,45.292L397.02,45.296L398.26,45.283L399.51,45.279L400.76,45.287L402.01,45.277L403.25,45.258L404.5,45.283L405.75,45.257L406.99,45.244L408.24,45.263L409.49,45.25L410.73,45.247L411.98,45.245L413.23,45.256L414.48,45.235L415.72,45.235L416.97,45.231L418.22,45.227L419.46,45.248L420.71,45.206L421.96,45.227L423.2,45.232L424.45,45.214L425.7,45.219L426.95,45.214L428.19,45.219L429.44,45.214L430.69,45.222L431.93,45.216L433.18,45.199L434.43,45.211L435.68,45.215L436.92,45.193L438.17,45.202L439.42,45.19L440.66,45.195L441.91,45.192L443.16,45.195L444.4,45.193L445.65,45.196L446.9,45.173L448.15,45.185L449.39,45.196L450.64,45.185L451.89,45.182L453.13,45.193L454.38,45.175L455.63,45.17L456.87,45.176L458.12,45.18L459.37,45.179L460.62,45.177L461.86,45.175L463.11,45.17L464.36,45.179L465.6,45.177L466.85,45.172L468.1,45.169L469.35,45.176L470.59,45.172L471.84,45.182L473.09,45.173L474.33,45.16L475.58,45.17L476.83,45.164L478.07,45.164L479.32,45.166L480.57,45.172L481.82,45.167L483.06,45.167L484.31,45.161L485.56,45.167L486.8,45.161L488.05,45.161L489.3,45.163L490.54,45.159L491.79,45.16L493.04,45.161L494.29,45.164L495.53,45.164L496.78,45.159L498.03,45.156L499.27,45.163L500.52,45.157L501.77,45.157L503.02,45.16L504.26,45.153L505.51,45.163L506.76,45.154L508,45.154L509.25,45.156L510.5,45.157L511.74,45.157L512.99,45.16L514.24,45.151L515.49,45.154L516.73,45.154L517.98,45.154L519.23,45.156L520.47,45.156L521.72,45.151L522.97,45.154L524.21,45.154L525.46,45.151L526.71,45.154L527.96,45.156L529.2,45.156L530.45,45.16L531.7,45.151L532.94,45.154L534.19,45.151L535.44,45.151L536.69,45.153L539.18,45.153L540.43,45.154L541.67,45.151L542.92,45.151L544.17,45.153L545.41,45.157L546.66,45.153L547.91,45.151L549.16,45.151L550.4,45.153L551.65,45.151L552.9,45.154L554.14,45.151L555.39,45.151L556.64,45.153L557.88,45.151L562.87,45.151L564.12,45.151L565.37,45.153L567.86,45.151L571.6,45.151L577.84,45.151L579.08,45.151L581.58,45.151L582.83,45.153L584.07,45.151L590.31,45.153L592.8,45.151L594.05,45.151L596.54,45.151L599.04,45.153L605.27,45.151L622.73,45.151L635.2,45.151L652.66,45.151L720,45.151" style="fill:none;stroke:#0000FF" />
</g>
</svg>
