<?xml version="1.0"?>
<!-- Generated by SVGo and Plotinum VG -->
<svg width="720pt" height="432pt" viewBox="0 0 720 432"
	xmlns="http://www.w3.org/2000/svg"
	xmlns:xlink="http://www.w3.org/1999/xlink">
<g transform="scale(1, -1) translate(0, -432)">
<path d="M0,0L720,0L720,432L0,432Z" style="fill:#FFFFFF" />
<text x="358.5" y="-420.45" transform="scale(1, -1)"
	style="font-family:Times;font-weight:normal;font-style:normal;font-size:12px"> </text>
<text x="385.56" y="-3.8613" transform="scale(1, -1)"
	style="font-family:Times;font-weight:normal;font-style:normal;font-size:12px">Costs</text>
<text x="69.055" y="-18.634" transform="scale(1, -1)"
	style="font-family:Times;font-weight:normal;font-style:normal;font-size:10px">0.00</text>
<text x="364.71" y="-18.634" transform="scale(1, -1)"
	style="font-family:Times;font-weight:normal;font-style:normal;font-size:10px">250.00</text>
<text x="665.36" y="-18.634" transform="scale(1, -1)"
	style="font-family:Times;font-weight:normal;font-style:normal;font-size:10px">500.00</text>
<path d="M77.805,28.263L77.805,36.263" style="fill:none;stroke:#000000;stroke-width:0.5" />
<path d="M378.46,28.263L378.46,36.263" style="fill:none;stroke:#000000;stroke-width:0.5" />
<path d="M679.11,28.263L679.11,36.263" style="fill:none;stroke:#000000;stroke-width:0.5" />
<path d="M137.94,32.263L137.94,36.263" style="fill:none;stroke:#000000;stroke-width:0.5" />
<path d="M198.07,32.263L198.07,36.263" style="fill:none;stroke:#000000;stroke-width:0.5" />
<path d="M258.2,32.263L258.2,36.263" style="fill:none;stroke:#000000;stroke-width:0.5" />
<path d="M318.33,32.263L318.33,36.263" style="fill:none;stroke:#000000;stroke-width:0.5" />
<path d="M438.59,32.263L438.59,36.263" style="fill:none;stroke:#000000;stroke-width:0.5" />
<path d="M498.72,32.263L498.72,36.263" style="fill:none;stroke:#000000;stroke-width:0.5" />
<path d="M558.85,32.263L558.85,36.263" style="fill:none;stroke:#000000;stroke-width:0.5" />
<path d="M618.98,32.263L618.98,36.263" style="fill:none;stroke:#000000;stroke-width:0.5" />
<path d="M77.805,36.263L720,36.263" style="fill:none;stroke:#000000;stroke-width:0.5" />
<g transform="rotate(90)">
<text x="152.55" y="11.555" transform="scale(1, -1)"
	style="font-family:Times;font-weight:normal;font-style:normal;font-size:12px">Number of trials (1000000 total)</text>
</g>
<text x="24.055" y="-82.234" transform="scale(1, -1)"
	style="font-family:Times;font-weight:normal;font-style:normal;font-size:10px">25000.00</text>
<text x="19.055" y="-243.4" transform="scale(1, -1)"
	style="font-family:Times;font-weight:normal;font-style:normal;font-size:10px">125000.00</text>
<text x="19.055" y="-404.56" transform="scale(1, -1)"
	style="font-family:Times;font-weight:normal;font-style:normal;font-size:10px">225000.00</text>
<path d="M64.055,85.44L72.055,85.44" style="fill:none;stroke:#000000;stroke-width:0.5" />
<path d="M64.055,246.6L72.055,246.6" style="fill:none;stroke:#000000;stroke-width:0.5" />
<path d="M64.055,407.76L72.055,407.76" style="fill:none;stroke:#000000;stroke-width:0.5" />
<path d="M68.055,166.02L72.055,166.02" style="fill:none;stroke:#000000;stroke-width:0.5" />
<path d="M68.055,327.18L72.055,327.18" style="fill:none;stroke:#000000;stroke-width:0.5" />
<path d="M72.055,45.151L72.055,416.58" style="fill:none;stroke:#000000;stroke-width:0.5" />
<path d="M77.805,416.58L104.26,48.748L105.46,52.223L106.67,48.705L109.07,55.435L110.28,59.103L111.48,77.907L112.68,59.487L113.88,48.412L115.09,58.981L116.29,84.396L117.49,51.819L118.69,83.749L119.9,62.557L121.1,52.257L122.3,48.582L123.5,55.925L124.71,52.188L125.91,55.512L127.11,58.865L128.31,58.815L129.52,73.229L130.72,52.236L131.92,55.617L133.12,45.177L134.33,45.209L135.53,52.323L136.73,52.37L137.94,71.582L139.14,60.586L140.34,45.822L141.54,77.234L142.75,53.569L143.95,47.793L145.15,61.072L146.35,54.631L147.56,47.843L148.76,65.735L149.96,50.592L151.16,75.082L152.37,53.811L153.57,60.945L154.77,49.169L155.97,49.238L157.18,52.081L158.38,56.865L159.58,50.078L160.78,51.016L161.99,50.647L163.19,68.589L164.39,50.94L165.6,61.305L166.8,54.049L168,51.757L169.2,51.49L170.41,67.97L171.61,51.168L172.81,51.699L174.01,50.12L175.22,69.919L176.42,53.093L177.62,51.743L178.82,53.562L180.03,55.334L181.23,50.753L182.43,53.533L183.63,53.235L184.84,51.744L186.04,51.572L187.24,53.264L188.45,51.172L189.65,54.956L190.85,52.41L192.05,54.207L193.26,52.017L194.46,51.171L195.66,50.568L196.86,52.765L198.07,50.566L199.27,52.4L200.47,51.783L201.67,53.511L202.88,53.332L204.08,53.284L205.28,52.296L206.48,51.438L207.69,50.278L208.89,54.007L210.09,51.1L211.29,51.991L212.5,52.861L213.7,52.218L214.9,52.289L216.11,52.165L217.31,51.736L218.51,50.652L219.71,49.683L220.92,49.968L222.12,51.64L223.32,50.117L224.52,50.553L225.73,49.902L226.93,52.367L228.13,49.171L229.33,50.097L230.54,50.147L231.74,49.371L232.94,48.603L234.14,50.826L235.35,49.617L236.55,50.358L237.75,49.024L238.95,51.018L240.16,48.931L241.36,49.248L242.56,49.161L243.77,50.022L244.97,48.336L246.17,49.466L247.37,48.233L248.58,49.205L249.78,48.586L250.98,49.841L252.18,48.172L253.39,48.397L254.59,48.273L255.79,49.29L256.99,48.009L258.2,48.376L259.4,47.912L260.6,49.053L261.8,47.665L263.01,48.502L264.21,48.006L265.41,47.912L266.61,47.636L267.82,48.686L269.02,47.704L270.22,47.625L271.43,47.351L272.63,47.872L273.83,47.432L275.03,47.738L276.24,47.549L277.44,47.654L278.64,47.274L279.84,47.441L281.05,47.19L282.25,47.327L283.45,47.043L284.65,47.304L285.86,47.138L287.06,47.174L288.26,47.01L289.46,47.138L290.67,47.021L291.87,46.9L293.07,46.784L294.28,46.863L295.48,46.776L296.68,46.748L297.88,46.918L299.09,46.724L300.29,46.686L301.49,46.703L302.69,46.608L303.9,46.541L305.1,46.397L306.3,46.474L307.5,46.5L308.71,46.5L309.91,46.492L311.11,46.379L312.31,46.473L313.52,46.162L314.72,46.399L315.92,46.279L317.12,46.173L318.33,46.18L319.53,46.212L320.73,46.072L321.94,46.13L323.14,46.002L324.34,46.133L325.54,45.98L326.75,46.031L327.95,46.007L329.15,45.968L330.35,45.964L331.56,46.047L332.76,45.877L333.96,45.854L335.16,45.883L336.37,45.878L337.57,45.823L338.77,45.817L339.97,45.822L341.18,45.806L342.38,45.723L343.58,45.791L344.78,45.706L345.99,45.725L347.19,45.654L348.39,45.738L349.6,45.667L350.8,45.672L352,45.648L353.2,45.719L354.41,45.636L355.61,45.645L356.81,45.612L358.01,45.62L359.22,45.546L360.42,45.587L361.62,45.559L362.82,45.532L364.03,45.483L365.23,45.508L366.43,45.495L367.63,45.469L368.84,45.485L370.04,45.514L371.24,45.458L372.44,45.475L373.65,45.458L374.85,45.477L376.05,45.438L377.26,45.404L378.46,45.44L379.66,45.43L380.86,45.401L382.07,45.382L383.27,45.387L384.47,45.393L385.67,45.364L386.88,45.375L388.08,45.364L389.28,45.382L390.48,45.345L391.69,45.353L392.89,45.375L394.09,45.333L395.29,45.342L396.5,45.325L397.7,45.324L398.9,45.324L400.1,45.309L401.31,45.338L402.51,45.321L403.71,45.308L404.92,45.322L406.12,45.288L407.32,45.298L408.52,45.275L409.73,45.269L410.93,45.256L412.13,45.292L413.33,45.261L414.54,45.261L415.74,45.245L416.94,45.269L418.14,45.263L419.35,45.243L420.55,45.226L421.75,45.246L422.95,45.243L424.16,45.227L425.36,45.261L426.56,45.237L427.77,45.238L428.97,45.243L430.17,45.25L431.37,45.219L432.58,45.213L433.78,45.203L434.98,45.224L436.18,45.213L437.39,45.217L438.59,45.221L439.79,45.209L440.99,45.208L442.2,45.206L443.4,45.211L444.6,45.193L445.8,45.196L447.01,45.196L448.21,45.188L449.41,45.187L450.61,45.18L451.82,45.193L453.02,45.195L454.22,45.18L455.43,45.201L456.63,45.177L457.83,45.179L459.03,45.179L460.24,45.19L461.44,45.177L462.64,45.18L463.84,45.176L465.05,45.171L466.25,45.179L467.45,45.184L468.65,45.167L469.86,45.18L471.06,45.184L472.26,45.177L473.46,45.174L474.67,45.179L475.87,45.172L477.07,45.171L478.27,45.174L479.48,45.169L480.68,45.164L481.88,45.169L483.09,45.163L484.29,45.164L485.49,45.159L486.69,45.153L487.9,45.166L489.1,45.164L490.3,45.164L491.5,45.156L492.71,45.153L493.91,45.155L495.11,45.159L496.31,45.159L497.52,45.164L498.72,45.159L499.92,45.156L501.12,45.159L502.33,45.155L503.53,45.151L504.73,45.159L505.93,45.156L507.14,45.163L508.34,45.159L509.54,45.164L510.75,45.164L511.95,45.155L513.15,45.159L514.35,45.156L515.56,45.155L516.76,45.153L517.96,45.153L519.16,45.153L520.37,45.153L521.57,45.155L522.77,45.156L523.97,45.155L525.18,45.155L526.38,45.153L527.58,45.153L528.78,45.156L529.99,45.155L531.19,45.158L532.39,45.153L533.59,45.153L534.8,45.156L536,45.156L537.2,45.153L538.41,45.151L539.61,45.155L540.81,45.155L542.01,45.153L544.42,45.158L545.62,45.155L546.82,45.151L551.63,45.151L552.84,45.155L554.04,45.153L555.24,45.153L556.44,45.151L558.85,45.153L560.05,45.151L561.26,45.155L562.46,45.153L563.66,45.151L564.86,45.153L566.07,45.155L568.47,45.151L569.67,45.151L570.88,45.151L572.08,45.151L573.28,45.153L574.48,45.151L584.1,45.151L585.31,45.151L587.71,45.151L599.74,45.151L600.94,45.151L606.95,45.151L609.36,45.151L617.78,45.151L620.18,45.151L652.65,45.151L720,45.151" style="fill:none;stroke:#0000FF" />
</g>
</svg>
