<?xml version="1.0"?>
<!-- Generated by SVGo and Plotinum VG -->
<svg width="720pt" height="432pt" viewBox="0 0 720 432"
	xmlns="http://www.w3.org/2000/svg"
	xmlns:xlink="http://www.w3.org/1999/xlink">
<g transform="scale(1, -1) translate(0, -432)">
<path d="M0,0L720,0L720,432L0,432Z" style="fill:#FFFFFF" />
<text x="358.5" y="-420.45" transform="scale(1, -1)"
	style="font-family:Times;font-weight:normal;font-style:normal;font-size:12px"> </text>
<text x="374.31" y="-3.8613" transform="scale(1, -1)"
	style="font-family:Times;font-weight:normal;font-style:normal;font-size:12px">Costs</text>
<text x="46.555" y="-18.634" transform="scale(1, -1)"
	style="font-family:Times;font-weight:normal;font-style:normal;font-size:10px">0.00</text>
<text x="251.9" y="-18.634" transform="scale(1, -1)"
	style="font-family:Times;font-weight:normal;font-style:normal;font-size:10px">250.00</text>
<text x="462.25" y="-18.634" transform="scale(1, -1)"
	style="font-family:Times;font-weight:normal;font-style:normal;font-size:10px">500.00</text>
<text x="672.59" y="-18.634" transform="scale(1, -1)"
	style="font-family:Times;font-weight:normal;font-style:normal;font-size:10px">750.00</text>
<path d="M55.305,28.263L55.305,36.263" style="fill:none;stroke:#000000;stroke-width:0.5" />
<path d="M265.65,28.263L265.65,36.263" style="fill:none;stroke:#000000;stroke-width:0.5" />
<path d="M476,28.263L476,36.263" style="fill:none;stroke:#000000;stroke-width:0.5" />
<path d="M686.34,28.263L686.34,36.263" style="fill:none;stroke:#000000;stroke-width:0.5" />
<path d="M97.374,32.263L97.374,36.263" style="fill:none;stroke:#000000;stroke-width:0.5" />
<path d="M139.44,32.263L139.44,36.263" style="fill:none;stroke:#000000;stroke-width:0.5" />
<path d="M181.51,32.263L181.51,36.263" style="fill:none;stroke:#000000;stroke-width:0.5" />
<path d="M223.58,32.263L223.58,36.263" style="fill:none;stroke:#000000;stroke-width:0.5" />
<path d="M307.72,32.263L307.72,36.263" style="fill:none;stroke:#000000;stroke-width:0.5" />
<path d="M349.79,32.263L349.79,36.263" style="fill:none;stroke:#000000;stroke-width:0.5" />
<path d="M391.86,32.263L391.86,36.263" style="fill:none;stroke:#000000;stroke-width:0.5" />
<path d="M433.93,32.263L433.93,36.263" style="fill:none;stroke:#000000;stroke-width:0.5" />
<path d="M518.07,32.263L518.07,36.263" style="fill:none;stroke:#000000;stroke-width:0.5" />
<path d="M560.14,32.263L560.14,36.263" style="fill:none;stroke:#000000;stroke-width:0.5" />
<path d="M602.21,32.263L602.21,36.263" style="fill:none;stroke:#000000;stroke-width:0.5" />
<path d="M644.28,32.263L644.28,36.263" style="fill:none;stroke:#000000;stroke-width:0.5" />
<path d="M55.305,36.263L720,36.263" style="fill:none;stroke:#000000;stroke-width:0.5" />
<g transform="rotate(90)">
<text x="152.55" y="11.555" transform="scale(1, -1)"
	style="font-family:Times;font-weight:normal;font-style:normal;font-size:12px">Number of trials (1000000 total)</text>
</g>
<text x="19.055" y="-89.862" transform="scale(1, -1)"
	style="font-family:Times;font-weight:normal;font-style:normal;font-size:10px">1000</text>
<text x="19.055" y="-233.75" transform="scale(1, -1)"
	style="font-family:Times;font-weight:normal;font-style:normal;font-size:10px">4000</text>
<text x="19.055" y="-377.65" transform="scale(1, -1)"
	style="font-family:Times;font-weight:normal;font-style:normal;font-size:10px">7000</text>
<path d="M41.555,93.067L49.555,93.067" style="fill:none;stroke:#000000;stroke-width:0.5" />
<path d="M41.555,236.96L49.555,236.96" style="fill:none;stroke:#000000;stroke-width:0.5" />
<path d="M41.555,380.85L49.555,380.85" style="fill:none;stroke:#000000;stroke-width:0.5" />
<path d="M45.555,141.03L49.555,141.03" style="fill:none;stroke:#000000;stroke-width:0.5" />
<path d="M45.555,189L49.555,189" style="fill:none;stroke:#000000;stroke-width:0.5" />
<path d="M45.555,284.92L49.555,284.92" style="fill:none;stroke:#000000;stroke-width:0.5" />
<path d="M45.555,332.89L49.555,332.89" style="fill:none;stroke:#000000;stroke-width:0.5" />
<path d="M49.555,45.151L49.555,416.58" style="fill:none;stroke:#000000;stroke-width:0.5" />
<path d="M55.305,416.58L73.815,86.88L74.657,48.269L75.498,48.509L77.181,75.8L78.022,87.839L78.864,48.988L79.705,91.437L81.388,107.31L82.229,113.5L83.07,88.223L83.912,152.45L84.753,143.38L85.595,123.72L87.277,52.922L88.119,159.07L88.96,77.959L89.802,193.79L90.643,203.82L91.484,120.02L92.326,88.367L93.167,81.46L94.008,89.566L95.691,48.605L96.533,57.574L97.374,123.14L98.215,101.7L99.057,45.535L99.898,110.48L100.74,128.61L101.58,57.862L102.42,130.05L103.26,61.555L104.11,67.79L104.95,97.624L105.79,67.646L106.63,87.647L107.47,149.81L108.31,95.13L109.15,86.976L109.99,102.37L110.84,106.55L111.68,153.02L112.52,127.6L113.36,113.5L114.2,126.55L115.04,124.96L115.88,119.88L116.73,202.14L117.57,171.44L118.41,175.42L119.25,175.66L120.09,181.27L120.93,151.49L121.77,117.48L122.62,189.81L123.46,199.55L124.3,151.1L125.14,166.07L125.98,169.14L126.82,188.76L127.66,146.5L128.51,140.22L129.35,141.7L130.19,146.69L131.03,132.88L131.87,134.22L132.71,158.87L133.55,164.73L134.4,149.95L135.24,181.13L136.08,169.95L136.92,161.03L137.76,162.14L138.6,137.05L139.44,146.02L140.28,166.45L141.13,156.28L141.97,172.93L142.81,188.85L143.65,166.5L144.49,175.66L145.33,190.43L146.17,193.6L147.02,200.94L147.86,189L148.7,170.86L149.54,215.57L150.38,200.03L151.22,197.68L152.06,241.28L152.91,239.17L153.75,214.46L154.59,210.34L155.43,213.36L156.27,210.58L157.11,212.74L157.95,216.09L158.8,232.64L159.64,216.24L160.48,197.68L161.32,215.04L162.16,214.27L163,201.08L163.84,216.33L164.68,212.5L165.53,218.54L166.37,203.38L167.21,201.9L168.05,210.39L168.89,222.28L169.73,224.63L170.57,222.09L171.42,214.85L172.26,220.08L173.1,223.43L173.94,211.35L174.78,226.31L175.62,225.5L176.46,225.02L177.31,222.67L178.15,232.98L178.99,240.36L179.83,238.59L180.67,246.89L181.51,239.36L182.35,240.8L183.2,233.84L184.04,235.09L184.88,250.87L185.72,241.56L186.56,242.19L187.4,256.82L188.24,253.79L189.09,245.21L189.93,243.48L190.77,247.08L191.61,251.83L192.45,249.19L193.29,243.29L194.13,254.27L194.97,248.28L195.82,237.49L196.66,245.06L197.5,249.62L198.34,245.3L199.18,250.96L200.02,247.18L200.86,239.79L201.71,246.94L202.55,246.26L203.39,248.28L204.23,256.24L205.07,246.74L205.91,242.67L206.75,245.26L207.6,241.18L208.44,247.18L209.28,245.4L210.12,243.58L210.96,245.06L211.8,245.5L212.64,247.37L213.49,251.68L214.33,255.04L215.17,251.92L216.01,247.13L216.85,249.24L217.69,247.75L218.53,252.64L219.38,246.89L220.22,250.68L221.06,252.98L221.9,252.16L222.74,252.6L223.58,247.18L224.42,253.41L225.26,246.84L226.11,252.84L226.95,246.55L227.79,243.96L228.63,239.93L229.47,247.18L230.31,245.98L231.15,242.33L232,242.57L232.84,246.74L233.68,240.46L234.52,241.42L235.36,237.29L236.2,233.22L237.04,241.95L237.89,239.07L238.73,237.01L239.57,235.09L240.41,235.76L241.25,239.74L242.09,234.23L242.93,234.18L243.78,234.23L244.62,234.61L245.46,226.07L246.3,228.33L247.14,225.59L247.98,228.66L248.82,227.22L249.66,227.51L250.51,224.78L251.35,224.97L252.19,223.34L253.03,220.22L253.87,223.29L254.71,220.36L255.55,224.2L256.4,223.72L257.24,218.88L258.08,220.22L258.92,212.07L259.76,211.63L260.6,211.44L261.44,214.85L262.29,211.73L263.13,210.63L263.97,205.69L264.81,206.45L265.65,212.21L266.49,204.1L267.33,205.3L268.18,206.65L269.02,203.05L269.86,200.36L270.7,200.94L271.54,199.88L272.38,199.07L273.22,201.99L274.07,190.19L274.91,192.78L275.75,192.35L276.59,193.26L277.43,190.39L278.27,187.8L279.11,195.57L279.95,188.66L280.8,186.41L281.64,186.79L282.48,182.38L283.32,185.06L284.16,181.37L285,183.67L285.84,180.22L286.69,180.89L287.53,178.16L288.37,176.48L289.21,174.46L290.05,175.61L290.89,173.98L291.73,170.1L292.58,169.95L293.42,174.27L294.26,170.1L295.1,174.41L295.94,161.61L296.78,163.24L297.62,168.66L298.47,165.83L299.31,158.59L300.15,167.41L300.99,160.84L301.83,163.38L302.67,157.91L303.51,159.35L304.36,152.4L305.2,153.02L306.04,156.91L306.88,155.56L307.72,150.67L308.56,150.86L309.4,146.26L310.24,148.37L311.09,151.01L311.93,143.43L312.77,148.18L313.61,148.95L314.45,143L315.29,141.03L316.13,140.98L316.98,141.13L317.82,137.63L318.66,138.54L319.5,133.74L320.34,135.85L321.18,135.76L322.02,137.96L322.87,129.71L323.71,130.81L324.55,128.03L325.39,128.13L326.23,128.27L327.07,126.45L327.91,125.59L328.76,126.64L329.6,125.59L330.44,124.92L331.28,123.09L332.12,120.89L332.96,119.02L333.8,118.39L334.64,114.51L335.49,118.78L336.33,114.89L337.17,116.28L338.01,113.5L338.85,113.31L339.69,112.4L340.53,110.24L341.38,111.01L342.22,109.66L343.06,109.09L343.9,107.46L344.74,108.27L345.58,106.5L346.42,104.24L347.27,105.25L348.11,101.84L348.95,102.9L349.79,102.42L350.63,102.08L351.47,98.199L352.31,101.89L353.16,100.69L354,100.21L354.84,99.015L355.68,97.432L356.52,96.377L357.36,95.561L358.2,96.425L359.05,90.909L359.89,97.816L360.73,91.389L361.57,90.285L362.41,93.307L363.25,90.381L364.09,91.628L364.93,90.669L365.78,87.168L366.62,88.607L367.46,85.441L368.3,85.297L369.14,84.865L369.98,86.784L370.82,86.496L371.67,84.386L372.51,84.434L373.35,85.393L374.19,82.707L375.03,79.925L375.87,82.036L376.71,78.87L377.56,80.932L378.4,80.453L379.24,78.151L380.08,78.63L380.92,80.213L381.76,76.664L382.6,74.745L383.45,76.424L384.29,77.767L385.13,74.601L385.97,73.882L386.81,74.889L387.65,74.937L388.49,74.745L389.34,73.642L390.18,71.196L391.02,73.546L391.86,71.484L392.7,68.558L393.54,69.853L394.38,70.189L395.22,71.196L396.07,68.702L396.91,65.92L397.75,70.428L398.59,67.886L399.43,69.229L400.27,66.879L401.11,68.318L401.96,65.584L402.8,67.455L403.64,66.208L404.48,64.865L405.32,66.879L406.16,65.68L407,63.905L407.85,64.289L408.69,62.706L409.53,63.905L410.37,66.064L411.21,63.138L412.05,63.857L412.89,62.227L413.74,61.027L414.58,61.603L415.42,61.267L416.26,60.931L417.1,60.5L417.94,60.356L418.78,60.452L419.63,59.253L420.47,60.068L421.31,60.26L422.15,59.061L422.99,58.581L423.83,58.821L424.67,59.397L425.51,58.869L426.36,58.054L427.2,56.807L428.04,56.279L428.88,57.046L429.72,57.19L430.56,56.903L431.4,55.799L432.25,55.368L433.09,56.135L433.93,55.847L434.77,57.574L435.61,53.353L436.45,54.073L437.29,54.744L438.14,54.552L438.98,53.689L439.82,53.497L440.66,54.456L441.5,53.545L442.34,54.36L443.18,53.161L444.03,53.929L444.87,53.497L445.71,53.641L446.55,53.065L447.39,52.394L448.23,53.113L449.07,52.826L449.91,52.202L450.76,51.914L451.6,51.962L452.44,52.25L453.28,51.626L454.12,51.483L454.96,51.626L455.8,50.523L456.65,51.243L457.49,50.859L458.33,51.914L459.17,51.339L460.01,50.284L460.85,50.523L461.69,50.092L462.54,50.044L463.38,50.523L464.22,50.044L465.06,50.667L465.9,49.276L466.74,49.996L467.58,49.228L468.43,49.132L469.27,49.516L470.11,48.221L470.95,48.221L471.79,48.941L472.63,49.276L473.47,49.612L474.32,48.797L475.16,48.797L476,48.845L476.84,47.789L477.68,48.749L478.52,48.413L479.36,48.365L480.2,48.413L481.05,48.125L481.89,48.365L482.73,48.317L483.57,47.981L484.41,47.885L485.25,47.645L486.09,47.645L486.94,48.077L487.78,47.933L488.62,47.454L489.46,47.693L490.3,47.598L491.14,47.31L491.98,47.741L492.83,46.974L493.67,47.406L494.51,47.598L495.35,47.789L496.19,47.454L497.03,47.118L497.87,47.07L498.72,47.166L499.56,46.878L500.4,47.07L501.24,46.446L502.08,46.734L502.92,46.398L503.76,46.638L504.61,46.878L505.45,46.83L506.29,46.686L507.13,46.59L507.97,46.398L508.81,46.59L509.65,46.111L510.49,47.07L511.34,46.686L512.18,46.207L513.02,46.35L513.86,46.303L514.7,46.063L515.54,46.159L516.38,46.303L517.23,46.111L518.07,46.303L518.91,46.015L519.75,45.967L520.59,45.967L521.43,45.823L522.27,45.775L523.12,46.063L523.96,45.871L524.8,45.967L525.64,46.207L526.48,46.063L527.32,45.871L528.16,45.967L529.01,45.919L529.85,45.967L530.69,45.871L531.53,46.063L532.37,45.727L533.21,46.015L534.05,46.207L534.89,45.775L535.74,45.631L536.58,45.679L537.42,45.727L538.26,45.871L539.1,45.631L539.94,45.631L540.78,45.679L541.63,45.871L542.47,45.679L543.31,45.871L544.15,45.583L544.99,45.487L545.83,45.535L546.67,45.391L547.52,45.391L548.36,45.631L549.2,45.727L550.04,45.679L550.88,45.391L551.72,45.535L552.56,45.487L553.41,45.679L554.25,45.391L555.09,45.391L555.93,45.391L556.77,45.631L557.61,45.583L558.45,45.439L559.3,45.247L560.14,45.439L560.98,45.247L561.82,45.295L562.66,45.583L563.5,45.535L564.34,45.439L565.18,45.343L566.03,45.343L566.87,45.199L567.71,45.295L568.55,45.343L569.39,45.295L570.23,45.247L571.07,45.343L571.92,45.247L572.76,45.487L573.6,45.247L574.44,45.391L575.28,45.295L576.12,45.391L576.96,45.295L577.81,45.151L579.49,45.247L580.33,45.343L581.17,45.199L582.01,45.295L582.85,45.439L583.7,45.343L584.54,45.199L585.38,45.151L586.22,45.199L587.06,45.343L587.9,45.199L588.74,45.247L589.59,45.199L590.43,45.151L591.27,45.151L592.11,45.151L592.95,45.247L594.63,45.199L595.47,45.199L596.32,45.199L598,45.151L598.84,45.199L599.68,45.151L600.52,45.151L603.05,45.151L604.73,45.199L605.57,45.151L606.41,45.151L607.25,45.151L608.1,45.151L608.94,45.151L609.78,45.199L613.14,45.151L613.99,45.151L614.83,45.151L615.67,45.151L616.51,45.151L618.19,45.199L620.72,45.151L622.4,45.199L624.08,45.151L625.76,45.151L626.61,45.151L628.29,45.199L629.97,45.151L630.81,45.199L633.34,45.151L634.18,45.151L635.86,45.151L636.7,45.151L637.54,45.199L639.23,45.151L640.91,45.151L643.43,45.151L653.53,45.151L656.05,45.151L665.31,45.151L666.15,45.151L669.52,45.151L677.09,45.199L720,45.151" style="fill:none;stroke:#0000FF" />
</g>
</svg>
