<?xml version="1.0"?>
<!-- Generated by SVGo and Plotinum VG -->
<svg width="720pt" height="432pt" viewBox="0 0 720 432"
	xmlns="http://www.w3.org/2000/svg"
	xmlns:xlink="http://www.w3.org/1999/xlink">
<g transform="scale(1, -1) translate(0, -432)">
<path d="M0,0L720,0L720,432L0,432Z" style="fill:#FFFFFF" />
<text x="358.5" y="-420.45" transform="scale(1, -1)"
	style="font-family:Times;font-weight:normal;font-style:normal;font-size:12px"> </text>
<text x="379.31" y="-3.8613" transform="scale(1, -1)"
	style="font-family:Times;font-weight:normal;font-style:normal;font-size:12px">Costs</text>
<text x="56.555" y="-18.634" transform="scale(1, -1)"
	style="font-family:Times;font-weight:normal;font-style:normal;font-size:10px">0.00</text>
<text x="366.31" y="-18.634" transform="scale(1, -1)"
	style="font-family:Times;font-weight:normal;font-style:normal;font-size:10px">250.00</text>
<text x="681.07" y="-18.634" transform="scale(1, -1)"
	style="font-family:Times;font-weight:normal;font-style:normal;font-size:10px">500.00</text>
<path d="M65.305,28.263L65.305,36.263" style="fill:none;stroke:#000000;stroke-width:0.5" />
<path d="M380.06,28.263L380.06,36.263" style="fill:none;stroke:#000000;stroke-width:0.5" />
<path d="M694.82,28.263L694.82,36.263" style="fill:none;stroke:#000000;stroke-width:0.5" />
<path d="M128.26,32.263L128.26,36.263" style="fill:none;stroke:#000000;stroke-width:0.5" />
<path d="M191.21,32.263L191.21,36.263" style="fill:none;stroke:#000000;stroke-width:0.5" />
<path d="M254.16,32.263L254.16,36.263" style="fill:none;stroke:#000000;stroke-width:0.5" />
<path d="M317.11,32.263L317.11,36.263" style="fill:none;stroke:#000000;stroke-width:0.5" />
<path d="M443.01,32.263L443.01,36.263" style="fill:none;stroke:#000000;stroke-width:0.5" />
<path d="M505.96,32.263L505.96,36.263" style="fill:none;stroke:#000000;stroke-width:0.5" />
<path d="M568.92,32.263L568.92,36.263" style="fill:none;stroke:#000000;stroke-width:0.5" />
<path d="M631.87,32.263L631.87,36.263" style="fill:none;stroke:#000000;stroke-width:0.5" />
<path d="M65.305,36.263L720,36.263" style="fill:none;stroke:#000000;stroke-width:0.5" />
<g transform="rotate(90)">
<text x="152.55" y="11.555" transform="scale(1, -1)"
	style="font-family:Times;font-weight:normal;font-style:normal;font-size:12px">Number of trials (1000000 total)</text>
</g>
<text x="24.055" y="-112.5" transform="scale(1, -1)"
	style="font-family:Times;font-weight:normal;font-style:normal;font-size:10px">40000</text>
<text x="19.055" y="-253.62" transform="scale(1, -1)"
	style="font-family:Times;font-weight:normal;font-style:normal;font-size:10px">120000</text>
<text x="19.055" y="-394.73" transform="scale(1, -1)"
	style="font-family:Times;font-weight:normal;font-style:normal;font-size:10px">200000</text>
<path d="M51.555,115.71L59.555,115.71" style="fill:none;stroke:#000000;stroke-width:0.5" />
<path d="M51.555,256.82L59.555,256.82" style="fill:none;stroke:#000000;stroke-width:0.5" />
<path d="M51.555,397.94L59.555,397.94" style="fill:none;stroke:#000000;stroke-width:0.5" />
<path d="M55.555,186.27L59.555,186.27" style="fill:none;stroke:#000000;stroke-width:0.5" />
<path d="M55.555,327.38L59.555,327.38" style="fill:none;stroke:#000000;stroke-width:0.5" />
<path d="M59.555,45.151L59.555,416.58" style="fill:none;stroke:#000000;stroke-width:0.5" />
<path d="M65.305,416.58L93.003,48.556L98.039,48.494L99.298,59.178L101.82,55.421L104.33,59.265L105.59,69.363L106.85,69.481L108.11,94.672L109.37,59.485L110.63,48.492L111.89,63.189L113.15,48.445L114.41,58.811L115.67,87.484L116.92,72.965L118.18,80.674L119.44,76.361L120.7,59.039L121.96,48.688L123.22,48.692L125.74,45.173L127,48.797L128.26,58.917L129.52,73.854L132.03,63.052L133.29,51.909L134.55,45.407L135.81,56.254L137.07,48.873L138.33,46.074L139.59,68.077L140.85,46.993L142.11,80.127L143.36,78.966L144.62,65.909L145.88,48.069L147.14,49.275L148.4,50.803L149.66,54.502L150.92,50.932L152.18,51.369L153.44,49.757L154.7,55.546L155.95,51.943L157.21,60.88L158.47,67.224L159.73,55.978L160.99,55.377L162.25,58.43L163.51,52.073L164.77,50.732L166.03,55.488L167.29,70.071L168.55,54.149L169.8,56.437L171.06,55.224L172.32,56.012L173.58,51.854L174.84,51.117L176.1,52.211L177.36,49.565L178.62,52.962L179.88,53.647L181.14,53.13L182.39,58.64L183.65,56.631L184.91,57.187L186.17,57.66L187.43,52.399L188.69,51.087L189.95,52.249L191.21,51.872L192.47,54.984L193.73,56.34L194.98,56.068L196.24,55.859L197.5,54.532L198.76,52.151L200.02,52.308L201.28,51.038L202.54,50.015L203.8,51.475L205.06,50.958L206.32,54.2L207.58,54.105L208.83,54.312L210.09,54.837L211.35,52.466L212.61,51.749L213.87,51.592L215.13,49.697L216.39,51.629L217.65,52.038L218.91,51.891L220.17,53.177L221.42,53.363L222.68,51.988L223.94,49.798L225.2,50.096L226.46,49.84L227.72,49.201L228.98,50.076L230.24,49.731L231.5,50.57L232.76,50.373L234.01,50.999L235.27,51.584L236.53,51.586L237.79,50.732L239.05,49.843L240.31,49.63L241.57,50L242.83,49.078L244.09,50.519L245.35,50.86L246.6,50.419L247.86,49.305L249.12,49.468L250.38,49.591L251.64,49.055L252.9,48.826L254.16,48.517L255.42,48.468L256.68,48.967L257.94,48.727L259.2,49.616L260.45,49.796L261.71,49.175L262.97,49.108L264.23,48.84L265.49,48.095L266.75,47.967L268.01,48.157L269.27,47.96L270.53,48.228L271.79,48.394L273.04,48.404L274.3,48.339L275.56,48.238L276.82,47.773L278.08,47.771L279.34,47.566L280.6,47.536L281.86,47.607L283.12,47.7L284.38,48.058L285.63,47.855L286.89,48.058L288.15,47.713L289.41,47.575L290.67,47.436L291.93,47.194L293.19,47.095L294.45,47.213L295.71,47.208L296.97,47.291L298.23,47.296L299.48,47.222L300.74,47.058L302,47.072L303.26,46.94L304.52,46.772L305.78,46.792L307.04,46.633L308.3,46.686L309.56,46.774L310.82,46.841L312.07,46.746L313.33,46.788L314.59,46.797L315.85,46.624L317.11,46.471L318.37,46.462L319.63,46.425L320.89,46.36L322.15,46.453L323.41,46.45L324.66,46.379L325.92,46.363L327.18,46.319L328.44,46.282L329.7,46.279L330.96,46.129L332.22,46.12L333.48,46.118L334.74,46.208L336,46.137L337.26,46.189L338.51,46.247L339.77,46.093L341.03,46.049L342.29,46.009L343.55,46.007L344.81,45.866L346.07,45.945L347.33,45.926L348.59,45.926L349.85,45.933L351.1,45.954L352.36,45.898L353.62,45.853L354.88,45.845L356.14,45.785L357.4,45.799L358.66,45.776L359.92,45.726L361.18,45.806L362.44,45.767L363.69,45.705L364.95,45.771L366.21,45.681L367.47,45.686L368.73,45.703L369.99,45.622L371.25,45.601L372.51,45.612L373.77,45.635L375.03,45.598L376.28,45.636L377.54,45.571L378.8,45.55L380.06,45.58L381.32,45.548L382.58,45.479L383.84,45.464L385.1,45.517L386.36,45.502L387.62,45.485L388.88,45.471L390.13,45.46L391.39,45.522L392.65,45.488L393.91,45.423L395.17,45.418L396.43,45.434L397.69,45.432L398.95,45.462L400.21,45.442L401.47,45.397L402.72,45.391L403.98,45.39L405.24,45.331L406.5,45.347L407.76,45.333L409.02,45.374L410.28,45.34L411.54,45.312L412.8,45.319L414.06,45.344L415.31,45.331L416.57,45.349L417.83,45.321L419.09,45.291L420.35,45.33L421.61,45.287L422.87,45.287L424.13,45.298L425.39,45.312L426.65,45.287L427.91,45.275L429.16,45.289L430.42,45.287L431.68,45.27L432.94,45.262L434.2,45.28L435.46,45.262L436.72,45.248L437.98,45.243L439.24,45.261L440.5,45.243L441.75,45.218L443.01,45.261L444.27,45.245L445.53,45.254L446.79,45.238L448.05,45.218L449.31,45.225L450.57,45.213L451.83,45.233L453.09,45.21L454.34,45.206L455.6,45.213L456.86,45.215L458.12,45.199L459.38,45.22L460.64,45.199L461.9,45.203L463.16,45.203L464.42,45.192L465.68,45.204L466.94,45.195L468.19,45.199L469.45,45.199L470.71,45.183L471.97,45.197L473.23,45.185L474.49,45.199L475.75,45.192L477.01,45.195L478.27,45.176L479.53,45.188L480.78,45.185L482.04,45.188L483.3,45.181L484.56,45.19L485.82,45.194L487.08,45.192L488.34,45.194L489.6,45.171L490.86,45.174L492.12,45.187L493.37,45.185L494.63,45.174L495.89,45.188L497.15,45.164L498.41,45.16L499.67,45.167L500.93,45.164L502.19,45.169L503.45,45.171L504.71,45.165L505.96,45.16L507.22,45.171L508.48,45.171L509.74,45.165L511,45.164L512.26,45.164L513.52,45.165L514.78,45.16L516.04,45.164L517.3,45.158L518.56,45.164L519.81,45.167L521.07,45.158L522.33,45.165L523.59,45.153L524.85,45.158L526.11,45.167L527.37,45.169L528.63,45.157L529.89,45.157L531.15,45.151L532.4,45.173L533.66,45.157L534.92,45.157L536.18,45.155L537.44,45.158L538.7,45.157L539.96,45.151L541.22,45.158L542.48,45.153L543.74,45.157L544.99,45.153L546.25,45.153L547.51,45.157L548.77,45.155L550.03,45.155L551.29,45.151L552.55,45.153L553.81,45.151L555.07,45.157L557.59,45.153L558.84,45.153L560.1,45.158L561.36,45.151L562.62,45.157L563.88,45.155L565.14,45.151L566.4,45.153L567.66,45.157L568.92,45.155L570.18,45.153L571.43,45.155L575.21,45.151L576.47,45.151L577.73,45.151L578.99,45.153L580.25,45.151L584.02,45.155L586.54,45.153L589.06,45.151L590.32,45.155L591.58,45.151L592.84,45.151L599.13,45.151L604.17,45.151L605.43,45.151L619.28,45.151L631.87,45.151L636.9,45.151L640.68,45.151L646.98,45.151L648.24,45.151L653.27,45.151L670.9,45.151L720,45.151" style="fill:none;stroke:#0000FF" />
</g>
</svg>
