<?xml version="1.0"?>
<!-- Generated by SVGo and Plotinum VG -->
<svg width="720pt" height="432pt" viewBox="0 0 720 432"
	xmlns="http://www.w3.org/2000/svg"
	xmlns:xlink="http://www.w3.org/1999/xlink">
<g transform="scale(1, -1) translate(0, -432)">
<path d="M0,0L720,0L720,432L0,432Z" style="fill:#FFFFFF" />
<text x="358.5" y="-420.45" transform="scale(1, -1)"
	style="font-family:Times;font-weight:normal;font-style:normal;font-size:12px"> </text>
<text x="379.31" y="-3.8613" transform="scale(1, -1)"
	style="font-family:Times;font-weight:normal;font-style:normal;font-size:12px">Costs</text>
<text x="62.805" y="-18.634" transform="scale(1, -1)"
	style="font-family:Times;font-weight:normal;font-style:normal;font-size:10px">0</text>
<text x="348.14" y="-18.634" transform="scale(1, -1)"
	style="font-family:Times;font-weight:normal;font-style:normal;font-size:10px">200</text>
<text x="638.47" y="-18.634" transform="scale(1, -1)"
	style="font-family:Times;font-weight:normal;font-style:normal;font-size:10px">400</text>
<path d="M65.305,28.263L65.305,36.263" style="fill:none;stroke:#000000;stroke-width:0.5" />
<path d="M355.64,28.263L355.64,36.263" style="fill:none;stroke:#000000;stroke-width:0.5" />
<path d="M645.97,28.263L645.97,36.263" style="fill:none;stroke:#000000;stroke-width:0.5" />
<path d="M210.47,32.263L210.47,36.263" style="fill:none;stroke:#000000;stroke-width:0.5" />
<path d="M500.8,32.263L500.8,36.263" style="fill:none;stroke:#000000;stroke-width:0.5" />
<path d="M65.305,36.263L720,36.263" style="fill:none;stroke:#000000;stroke-width:0.5" />
<g transform="rotate(90)">
<text x="152.55" y="11.555" transform="scale(1, -1)"
	style="font-family:Times;font-weight:normal;font-style:normal;font-size:12px">Number of trials (1000000 total)</text>
</g>
<text x="24.055" y="-113.21" transform="scale(1, -1)"
	style="font-family:Times;font-weight:normal;font-style:normal;font-size:10px">40000</text>
<text x="19.055" y="-255.75" transform="scale(1, -1)"
	style="font-family:Times;font-weight:normal;font-style:normal;font-size:10px">120000</text>
<text x="19.055" y="-398.28" transform="scale(1, -1)"
	style="font-family:Times;font-weight:normal;font-style:normal;font-size:10px">200000</text>
<path d="M51.555,116.42L59.555,116.42" style="fill:none;stroke:#000000;stroke-width:0.5" />
<path d="M51.555,258.95L59.555,258.95" style="fill:none;stroke:#000000;stroke-width:0.5" />
<path d="M51.555,401.49L59.555,401.49" style="fill:none;stroke:#000000;stroke-width:0.5" />
<path d="M55.555,187.69L59.555,187.69" style="fill:none;stroke:#000000;stroke-width:0.5" />
<path d="M55.555,330.22L59.555,330.22" style="fill:none;stroke:#000000;stroke-width:0.5" />
<path d="M59.555,45.151L59.555,416.58" style="fill:none;stroke:#000000;stroke-width:0.5" />
<path d="M65.305,416.58L100.14,52.421L103.05,52.985L104.5,66.844L105.95,61.201L107.4,87.447L108.85,52.059L110.31,52.034L111.76,66.56L113.21,63.784L114.66,88.981L116.11,71.581L117.56,55.514L119.02,59.653L120.47,70.427L121.92,52.665L123.37,59.941L124.82,63.177L126.27,48.603L127.73,78.701L129.18,66.744L132.08,58.76L136.44,66.749L137.89,52.075L139.34,56.627L140.79,45.469L142.24,96.904L143.69,45.691L145.15,50.204L146.6,75.025L148.05,57.577L149.5,55.124L150.95,48.105L152.4,49.103L153.86,55.179L155.31,59.72L156.76,66.232L158.21,51.273L159.66,51.149L161.11,51.89L162.57,54.193L164.02,52.408L165.47,53.255L166.92,54.055L168.37,56.209L169.82,55.63L171.28,64.276L172.73,51.036L174.18,54.144L175.63,52.522L177.08,58.163L178.53,56.062L179.99,52.408L181.44,79.595L182.89,71.3L184.34,56.038L185.79,54.087L187.24,54.233L188.7,55.845L190.15,53.93L191.6,58.281L193.05,52.708L194.5,53.108L195.95,55.925L197.41,54.632L198.86,53.456L200.31,52.496L201.76,53.217L203.21,51.592L204.66,54.838L206.11,53.921L207.57,49.534L209.02,53.141L210.47,52.178L211.92,50.35L213.37,53.336L214.82,49.773L216.28,51.437L217.73,51.606L219.18,55.09L220.63,53.114L222.08,51.872L223.53,56.677L224.99,53.092L226.44,51.776L227.89,52.21L229.34,52.613L230.79,55.002L232.24,54.153L233.7,53.784L235.15,51.321L236.6,51.949L238.05,52.442L239.5,51.289L240.95,51.386L242.41,50.539L243.86,51.651L245.31,52.563L246.76,50.219L248.21,51.601L249.66,49.403L251.12,49.146L252.57,50.764L254.02,50.874L255.47,50.124L256.92,48.916L258.37,52.624L259.83,51.528L261.28,49.157L262.73,51.086L264.18,50.443L265.63,49.818L267.08,48.936L268.54,49.344L269.99,48.856L271.44,49.374L272.89,50.457L274.34,49.543L275.79,48.74L277.25,48.627L278.7,48.692L280.15,48.806L281.6,48.524L283.05,48.747L284.5,48.46L285.96,48.811L287.41,49.294L288.86,48.503L290.31,48.376L291.76,47.984L293.21,48.39L294.67,48.67L296.12,48.239L297.57,48.136L299.02,48.937L300.47,48.202L301.92,48.107L303.38,47.954L304.83,47.982L306.28,47.783L307.73,48.159L309.18,47.906L310.63,47.631L312.09,47.721L313.54,47.623L314.99,47.614L316.44,47.407L317.89,47.345L319.34,47.25L320.8,47.327L322.25,47.493L323.7,46.921L325.15,47.129L326.6,46.974L328.05,46.848L329.51,47.056L330.96,46.91L332.41,46.757L333.86,46.737L335.31,46.979L336.76,46.962L338.22,46.63L339.67,46.928L341.12,46.737L342.57,46.637L344.02,46.623L345.47,46.554L346.93,46.509L348.38,46.557L349.83,46.682L351.28,46.634L352.73,46.397L354.18,46.358L355.64,46.411L357.09,46.361L358.54,46.329L359.99,46.208L361.44,46.293L362.89,46.263L364.35,46.206L365.8,46.122L367.25,46.099L368.7,46.056L370.15,46.17L371.6,46.042L373.06,45.969L374.51,46.039L375.96,46.144L377.41,45.989L378.86,45.951L380.31,45.975L381.76,45.821L383.22,45.909L384.67,45.821L386.12,45.848L387.57,45.809L389.02,45.834L390.47,45.825L391.93,45.811L393.38,45.77L394.83,45.734L396.28,45.693L397.73,45.752L399.18,45.7L400.64,45.686L402.09,45.648L403.54,45.664L404.99,45.627L406.44,45.677L407.89,45.62L409.35,45.563L410.8,45.561L412.25,45.624L413.7,45.563L415.15,45.552L416.6,45.568L418.06,45.485L419.51,45.574L420.96,45.497L422.41,45.527L423.86,45.509L425.31,45.474L426.77,45.461L428.22,45.483L429.67,45.42L431.12,45.463L432.57,45.415L434.02,45.411L435.48,45.426L436.93,45.397L438.38,45.395L439.83,45.378L441.28,45.388L442.73,45.394L444.19,45.365L445.64,45.401L447.09,45.383L448.54,45.387L449.99,45.315L451.44,45.33L452.9,45.356L454.35,45.317L455.8,45.333L457.25,45.344L458.7,45.301L460.15,45.333L461.61,45.301L463.06,45.278L464.51,45.312L465.96,45.264L467.41,45.28L468.86,45.274L470.32,45.265L471.77,45.271L473.22,45.265L474.67,45.26L476.12,45.265L477.57,45.274L479.03,45.237L480.48,45.253L481.93,45.242L483.38,45.242L484.83,45.239L486.28,45.232L487.74,45.226L489.19,45.244L490.64,45.221L492.09,45.223L493.54,45.228L494.99,45.217L496.45,45.214L497.9,45.207L499.35,45.212L500.8,45.217L502.25,45.207L503.7,45.207L505.16,45.214L506.61,45.214L508.06,45.208L509.51,45.205L510.96,45.189L512.41,45.192L513.87,45.187L515.32,45.199L516.77,45.207L518.22,45.198L519.67,45.187L521.12,45.18L522.58,45.187L524.03,45.189L525.48,45.178L526.93,45.194L528.38,45.178L529.83,45.189L531.29,45.171L532.74,45.176L534.19,45.176L535.64,45.178L537.09,45.173L538.54,45.171L540,45.175L541.45,45.176L542.9,45.178L544.35,45.18L545.8,45.18L547.25,45.169L548.7,45.171L550.16,45.178L551.61,45.166L553.06,45.169L554.51,45.176L555.96,45.173L557.41,45.167L558.87,45.164L560.32,45.166L561.77,45.158L563.22,45.167L564.67,45.158L566.12,45.166L567.58,45.158L569.03,45.16L570.48,45.173L571.93,45.157L573.38,45.162L574.83,45.158L576.29,45.162L577.74,45.157L579.19,45.158L580.64,45.153L582.09,45.162L583.54,45.153L585,45.158L586.45,45.155L587.9,45.153L589.35,45.16L590.8,45.158L592.25,45.162L593.71,45.158L595.16,45.16L596.61,45.153L599.51,45.157L600.96,45.157L602.42,45.151L603.87,45.157L605.32,45.151L606.77,45.155L608.22,45.151L609.67,45.151L611.13,45.153L612.58,45.155L614.03,45.151L615.48,45.151L616.93,45.157L618.38,45.153L619.84,45.153L621.29,45.151L622.74,45.155L624.19,45.153L625.64,45.153L627.09,45.155L628.55,45.153L630,45.153L632.9,45.153L634.35,45.151L635.8,45.151L637.26,45.151L638.71,45.153L644.51,45.155L645.97,45.151L648.87,45.151L656.13,45.151L657.58,45.151L659.03,45.155L660.48,45.151L663.39,45.153L672.1,45.151L696.77,45.151L720,45.153" style="fill:none;stroke:#0000FF" />
</g>
</svg>
