<?xml version="1.0"?>
<!-- Generated by SVGo and Plotinum VG -->
<svg width="720pt" height="432pt" viewBox="0 0 720 432"
	xmlns="http://www.w3.org/2000/svg"
	xmlns:xlink="http://www.w3.org/1999/xlink">
<g transform="scale(1, -1) translate(0, -432)">
<path d="M0,0L720,0L720,432L0,432Z" style="fill:#FFFFFF" />
<text x="358.5" y="-420.45" transform="scale(1, -1)"
	style="font-family:Times;font-weight:normal;font-style:normal;font-size:12px"> </text>
<text x="385.56" y="-3.8613" transform="scale(1, -1)"
	style="font-family:Times;font-weight:normal;font-style:normal;font-size:12px">Costs</text>
<text x="75.305" y="-18.634" transform="scale(1, -1)"
	style="font-family:Times;font-weight:normal;font-style:normal;font-size:10px">0</text>
<text x="359.58" y="-18.634" transform="scale(1, -1)"
	style="font-family:Times;font-weight:normal;font-style:normal;font-size:10px">200</text>
<text x="648.86" y="-18.634" transform="scale(1, -1)"
	style="font-family:Times;font-weight:normal;font-style:normal;font-size:10px">400</text>
<path d="M77.805,28.263L77.805,36.263" style="fill:none;stroke:#000000;stroke-width:0.5" />
<path d="M367.08,28.263L367.08,36.263" style="fill:none;stroke:#000000;stroke-width:0.5" />
<path d="M656.36,28.263L656.36,36.263" style="fill:none;stroke:#000000;stroke-width:0.5" />
<path d="M222.44,32.263L222.44,36.263" style="fill:none;stroke:#000000;stroke-width:0.5" />
<path d="M511.72,32.263L511.72,36.263" style="fill:none;stroke:#000000;stroke-width:0.5" />
<path d="M77.805,36.263L720,36.263" style="fill:none;stroke:#000000;stroke-width:0.5" />
<g transform="rotate(90)">
<text x="152.55" y="11.555" transform="scale(1, -1)"
	style="font-family:Times;font-weight:normal;font-style:normal;font-size:12px">Number of trials (1000000 total)</text>
</g>
<text x="24.055" y="-91.267" transform="scale(1, -1)"
	style="font-family:Times;font-weight:normal;font-style:normal;font-size:10px">25000.00</text>
<text x="19.055" y="-239.24" transform="scale(1, -1)"
	style="font-family:Times;font-weight:normal;font-style:normal;font-size:10px">100000.00</text>
<text x="19.055" y="-387.2" transform="scale(1, -1)"
	style="font-family:Times;font-weight:normal;font-style:normal;font-size:10px">175000.00</text>
<path d="M64.055,94.472L72.055,94.472" style="fill:none;stroke:#000000;stroke-width:0.5" />
<path d="M64.055,242.44L72.055,242.44" style="fill:none;stroke:#000000;stroke-width:0.5" />
<path d="M64.055,390.41L72.055,390.41" style="fill:none;stroke:#000000;stroke-width:0.5" />
<path d="M68.055,168.46L72.055,168.46" style="fill:none;stroke:#000000;stroke-width:0.5" />
<path d="M68.055,316.43L72.055,316.43" style="fill:none;stroke:#000000;stroke-width:0.5" />
<path d="M72.055,45.151L72.055,416.58" style="fill:none;stroke:#000000;stroke-width:0.5" />
<path d="M77.805,416.58L109.63,49.141L112.52,51.869L118.3,52.291L119.75,64.289L121.2,48.868L122.64,75.069L124.09,91.383L125.54,58.881L126.98,82.09L128.43,67.925L129.87,49.123L131.32,49.002L132.77,48.837L134.21,58.569L135.66,56.028L137.11,115.01L138.55,72.238L140,80.088L141.45,95.169L142.89,49.064L144.34,52.506L148.68,56.391L150.12,76.442L151.57,49.145L153.02,45.305L154.46,79.35L155.91,94.77L157.36,45.757L158.8,50.439L160.25,53.771L161.7,49.752L163.14,50.07L164.59,63.249L166.03,58.989L167.48,70.531L168.93,59.455L170.37,49.326L171.82,51.433L173.27,52.875L174.71,54.473L176.16,49.973L177.61,50.241L179.05,51.354L180.5,55.312L181.94,55.57L183.39,63.963L184.84,59.796L186.28,62.616L187.73,59.124L189.18,61.984L190.62,56.468L192.07,52.102L193.52,58.139L194.96,57.585L196.41,59.704L197.85,58.561L199.3,60.1L200.75,67.169L202.19,58.031L203.64,58.202L205.09,57.318L206.53,53.696L207.98,52.893L209.43,56.14L210.87,55.529L212.32,56.691L213.76,63.31L215.21,62.12L216.66,56.742L218.1,58.615L219.55,55.827L221,51.358L222.44,51.654L223.89,52.717L225.34,53.515L226.78,58.413L228.23,59.054L229.68,53.412L231.12,54.805L232.57,55.274L234.01,52.343L235.46,51.277L236.91,51.565L238.35,52.532L239.8,53.436L241.25,52.686L242.69,54.104L244.14,55.18L245.59,55.635L247.03,53.52L248.48,52.301L249.92,52.108L251.37,51.715L252.82,53.434L254.26,51.711L255.71,52.244L257.16,52.445L258.6,52.039L260.05,52.285L261.5,52.936L262.94,51.863L264.39,51.686L265.83,51.69L267.28,51.463L268.73,50.155L270.17,50.806L271.62,51.808L273.07,51.928L274.51,51.512L275.96,51.415L277.41,51.711L278.85,51.058L280.3,49.934L281.75,50.141L283.19,49.869L284.64,49.884L286.08,49.953L287.53,50.368L288.98,50.24L290.42,50.61L291.87,50.559L293.32,49.417L294.76,49.543L296.21,49.293L297.66,48.967L299.1,49.048L300.55,49.032L301.99,49.164L303.44,49.539L304.89,49.553L306.33,49.206L307.78,48.722L309.23,48.716L310.67,48.539L312.12,48.464L313.57,48.31L315.01,48.349L316.46,48.44L317.9,48.381L319.35,48.227L320.8,48.148L322.24,48.342L323.69,48.014L325.14,47.931L326.58,47.844L328.03,47.612L329.48,47.665L330.92,47.821L332.37,47.805L333.81,47.685L335.26,47.568L336.71,47.361L338.15,47.44L339.6,47.428L341.05,47.213L342.49,47.128L343.94,47.28L345.39,47.085L346.83,47.006L348.28,47.081L349.73,47.144L351.17,47.107L352.62,46.905L354.06,47.087L355.51,46.917L356.96,46.688L358.4,46.671L359.85,46.742L361.3,46.755L362.74,46.716L364.19,46.653L365.64,46.556L367.08,46.53L368.53,46.406L369.97,46.448L371.42,46.284L372.87,46.262L374.31,46.319L375.76,46.211L377.21,46.306L378.65,46.349L380.1,46.205L381.55,46.193L382.99,46.158L384.44,46.075L385.88,46.1L387.33,45.996L388.78,46.065L390.22,46.033L391.67,45.927L393.12,46.092L394.56,46.01L396.01,45.958L397.46,45.929L398.9,45.824L400.35,45.85L401.8,45.84L403.24,45.844L404.69,45.814L406.13,45.739L407.58,45.836L409.03,45.769L410.47,45.767L411.92,45.698L413.37,45.749L414.81,45.694L416.26,45.7L417.71,45.688L419.15,45.68L420.6,45.593L422.04,45.658L423.49,45.542L424.94,45.579L426.38,45.658L427.83,45.55L429.28,45.589L430.72,45.532L432.17,45.56L433.62,45.524L435.06,45.512L436.51,45.505L437.95,45.508L439.4,45.469L440.85,45.491L442.29,45.485L443.74,45.467L445.19,45.398L446.63,45.372L448.08,45.396L449.53,45.41L450.97,45.382L452.42,45.414L453.87,45.386L455.31,45.359L456.76,45.392L458.2,45.404L459.65,45.36L461.1,45.341L462.54,45.319L463.99,45.347L465.44,45.339L466.88,45.309L468.33,45.278L469.78,45.293L471.22,45.345L472.67,45.329L474.11,45.311L475.56,45.311L477.01,45.282L478.45,45.258L479.9,45.284L481.35,45.266L482.79,45.262L484.24,45.272L485.69,45.258L487.13,45.258L488.58,45.262L490.02,45.252L491.47,45.236L492.92,45.226L494.36,45.234L495.81,45.238L497.26,45.222L498.7,45.254L500.15,45.203L501.6,45.216L503.04,45.238L504.49,45.226L505.93,45.224L507.38,45.228L508.83,45.211L510.27,45.207L511.72,45.195L513.17,45.197L514.61,45.195L516.06,45.207L517.51,45.203L518.95,45.201L520.4,45.201L521.85,45.195L523.29,45.175L524.74,45.177L526.18,45.205L527.63,45.191L529.08,45.179L530.52,45.179L531.97,45.189L533.42,45.167L534.86,45.187L536.31,45.187L537.76,45.181L539.2,45.175L540.65,45.171L542.09,45.165L543.54,45.177L544.99,45.167L546.43,45.169L547.88,45.179L549.33,45.175L550.77,45.179L552.22,45.169L553.67,45.157L555.11,45.167L556.56,45.157L558,45.161L559.45,45.165L560.9,45.161L562.34,45.161L563.79,45.163L565.24,45.151L566.68,45.165L568.13,45.161L569.58,45.161L571.02,45.165L572.47,45.159L573.92,45.157L575.36,45.157L576.81,45.163L578.25,45.155L579.7,45.163L581.15,45.161L582.59,45.159L584.04,45.159L585.49,45.153L586.93,45.157L588.38,45.155L589.83,45.161L591.27,45.159L592.72,45.153L594.16,45.163L595.61,45.161L597.06,45.155L598.5,45.151L599.95,45.157L601.4,45.153L602.84,45.155L604.29,45.151L605.74,45.153L607.18,45.155L608.63,45.151L610.07,45.153L611.52,45.153L612.97,45.151L617.31,45.159L618.75,45.151L621.65,45.153L623.09,45.155L624.54,45.151L628.88,45.151L631.77,45.153L633.22,45.153L634.66,45.155L640.45,45.151L644.79,45.151L647.68,45.151L652.02,45.153L653.47,45.151L657.81,45.151L659.25,45.151L662.14,45.151L666.48,45.151L691.07,45.151L692.52,45.151L696.86,45.151L698.3,45.151L720,45.151" style="fill:none;stroke:#0000FF" />
</g>
</svg>
