<?xml version="1.0"?>
<!-- Generated by SVGo and Plotinum VG -->
<svg width="720pt" height="432pt" viewBox="0 0 720 432"
	xmlns="http://www.w3.org/2000/svg"
	xmlns:xlink="http://www.w3.org/1999/xlink">
<g transform="scale(1, -1) translate(0, -432)">
<path d="M0,0L720,0L720,432L0,432Z" style="fill:#FFFFFF" />
<text x="358.5" y="-420.45" transform="scale(1, -1)"
	style="font-family:Times;font-weight:normal;font-style:normal;font-size:12px"> </text>
<text x="379.31" y="-3.8613" transform="scale(1, -1)"
	style="font-family:Times;font-weight:normal;font-style:normal;font-size:12px">Costs</text>
<text x="62.805" y="-18.634" transform="scale(1, -1)"
	style="font-family:Times;font-weight:normal;font-style:normal;font-size:10px">0</text>
<text x="258.63" y="-18.634" transform="scale(1, -1)"
	style="font-family:Times;font-weight:normal;font-style:normal;font-size:10px">100</text>
<text x="459.46" y="-18.634" transform="scale(1, -1)"
	style="font-family:Times;font-weight:normal;font-style:normal;font-size:10px">200</text>
<text x="660.29" y="-18.634" transform="scale(1, -1)"
	style="font-family:Times;font-weight:normal;font-style:normal;font-size:10px">300</text>
<path d="M65.305,28.263L65.305,36.263" style="fill:none;stroke:#000000;stroke-width:0.5" />
<path d="M266.13,28.263L266.13,36.263" style="fill:none;stroke:#000000;stroke-width:0.5" />
<path d="M466.96,28.263L466.96,36.263" style="fill:none;stroke:#000000;stroke-width:0.5" />
<path d="M667.79,28.263L667.79,36.263" style="fill:none;stroke:#000000;stroke-width:0.5" />
<path d="M105.47,32.263L105.47,36.263" style="fill:none;stroke:#000000;stroke-width:0.5" />
<path d="M145.64,32.263L145.64,36.263" style="fill:none;stroke:#000000;stroke-width:0.5" />
<path d="M185.8,32.263L185.8,36.263" style="fill:none;stroke:#000000;stroke-width:0.5" />
<path d="M225.97,32.263L225.97,36.263" style="fill:none;stroke:#000000;stroke-width:0.5" />
<path d="M306.3,32.263L306.3,36.263" style="fill:none;stroke:#000000;stroke-width:0.5" />
<path d="M346.46,32.263L346.46,36.263" style="fill:none;stroke:#000000;stroke-width:0.5" />
<path d="M386.63,32.263L386.63,36.263" style="fill:none;stroke:#000000;stroke-width:0.5" />
<path d="M426.79,32.263L426.79,36.263" style="fill:none;stroke:#000000;stroke-width:0.5" />
<path d="M507.12,32.263L507.12,36.263" style="fill:none;stroke:#000000;stroke-width:0.5" />
<path d="M547.29,32.263L547.29,36.263" style="fill:none;stroke:#000000;stroke-width:0.5" />
<path d="M587.45,32.263L587.45,36.263" style="fill:none;stroke:#000000;stroke-width:0.5" />
<path d="M627.62,32.263L627.62,36.263" style="fill:none;stroke:#000000;stroke-width:0.5" />
<path d="M707.95,32.263L707.95,36.263" style="fill:none;stroke:#000000;stroke-width:0.5" />
<path d="M65.305,36.263L720,36.263" style="fill:none;stroke:#000000;stroke-width:0.5" />
<g transform="rotate(90)">
<text x="152.55" y="11.555" transform="scale(1, -1)"
	style="font-family:Times;font-weight:normal;font-style:normal;font-size:12px">Number of trials (1000000 total)</text>
</g>
<text x="19.055" y="-126.53" transform="scale(1, -1)"
	style="font-family:Times;font-weight:normal;font-style:normal;font-size:10px">100000</text>
<text x="19.055" y="-211.11" transform="scale(1, -1)"
	style="font-family:Times;font-weight:normal;font-style:normal;font-size:10px">200000</text>
<text x="19.055" y="-295.69" transform="scale(1, -1)"
	style="font-family:Times;font-weight:normal;font-style:normal;font-size:10px">300000</text>
<text x="19.055" y="-380.28" transform="scale(1, -1)"
	style="font-family:Times;font-weight:normal;font-style:normal;font-size:10px">400000</text>
<path d="M51.555,129.73L59.555,129.73" style="fill:none;stroke:#000000;stroke-width:0.5" />
<path d="M51.555,214.32L59.555,214.32" style="fill:none;stroke:#000000;stroke-width:0.5" />
<path d="M51.555,298.9L59.555,298.9" style="fill:none;stroke:#000000;stroke-width:0.5" />
<path d="M51.555,383.48L59.555,383.48" style="fill:none;stroke:#000000;stroke-width:0.5" />
<path d="M55.555,62.067L59.555,62.067" style="fill:none;stroke:#000000;stroke-width:0.5" />
<path d="M55.555,78.984L59.555,78.984" style="fill:none;stroke:#000000;stroke-width:0.5" />
<path d="M55.555,95.9L59.555,95.9" style="fill:none;stroke:#000000;stroke-width:0.5" />
<path d="M55.555,112.82L59.555,112.82" style="fill:none;stroke:#000000;stroke-width:0.5" />
<path d="M55.555,146.65L59.555,146.65" style="fill:none;stroke:#000000;stroke-width:0.5" />
<path d="M55.555,163.57L59.555,163.57" style="fill:none;stroke:#000000;stroke-width:0.5" />
<path d="M55.555,180.48L59.555,180.48" style="fill:none;stroke:#000000;stroke-width:0.5" />
<path d="M55.555,197.4L59.555,197.4" style="fill:none;stroke:#000000;stroke-width:0.5" />
<path d="M55.555,231.23L59.555,231.23" style="fill:none;stroke:#000000;stroke-width:0.5" />
<path d="M55.555,248.15L59.555,248.15" style="fill:none;stroke:#000000;stroke-width:0.5" />
<path d="M55.555,265.07L59.555,265.07" style="fill:none;stroke:#000000;stroke-width:0.5" />
<path d="M55.555,281.98L59.555,281.98" style="fill:none;stroke:#000000;stroke-width:0.5" />
<path d="M55.555,315.82L59.555,315.82" style="fill:none;stroke:#000000;stroke-width:0.5" />
<path d="M55.555,332.73L59.555,332.73" style="fill:none;stroke:#000000;stroke-width:0.5" />
<path d="M55.555,349.65L59.555,349.65" style="fill:none;stroke:#000000;stroke-width:0.5" />
<path d="M55.555,366.57L59.555,366.57" style="fill:none;stroke:#000000;stroke-width:0.5" />
<path d="M55.555,400.4L59.555,400.4" style="fill:none;stroke:#000000;stroke-width:0.5" />
<path d="M59.555,45.151L59.555,416.58" style="fill:none;stroke:#000000;stroke-width:0.5" />
<path d="M65.305,416.58L119.53,48.626L121.54,48.664L123.54,56.087L125.55,48.573L127.56,48.625L129.57,48.636L131.58,52.225L133.59,66.654L135.59,66.632L137.6,48.621L139.61,48.561L141.62,66.437L143.63,48.733L145.64,59.572L147.64,62.449L149.65,55.555L151.66,48.589L153.67,66.632L155.68,55.625L157.69,85.99L163.71,48.55L165.72,51.942L171.74,48.494L173.75,59.271L175.76,45.179L177.77,56.295L179.78,52.244L181.78,45.211L183.79,45.312L185.8,56.576L187.81,45.529L189.82,52.755L191.83,46.007L193.83,46.018L195.84,45.952L197.85,45.948L199.86,57.61L201.87,46.57L203.88,47.176L205.88,46.7L207.89,46.791L209.9,47.532L211.91,48.405L213.92,47.646L215.92,48.895L217.93,47.601L219.94,47.438L221.95,48.525L223.96,49.376L225.97,60.397L227.97,49.098L229.98,47.619L231.99,47.866L234,49.539L236.01,47.844L238.02,48.493L240.02,48.448L242.03,48.089L244.04,47.745L246.05,49.106L248.06,48.366L250.07,46.993L252.07,46.157L254.08,47.808L256.09,47.776L258.1,47.433L260.11,46.989L262.11,47.578L264.12,46.642L266.13,48.459L268.14,47.162L270.15,47.866L272.16,46.831L274.16,46.4L276.17,46.413L278.18,47.379L280.19,46.183L282.2,47.019L284.21,46.271L286.21,46.36L288.22,46.598L290.23,46.117L292.24,47.46L294.25,46.559L296.26,46.341L298.26,46.256L300.27,46.204L302.28,46.544L304.29,46.069L306.3,46.144L308.31,46.643L310.31,46.215L312.32,46.072L314.33,46.728L316.34,46.206L318.35,46.994L320.35,45.932L322.36,45.745L324.37,46.094L326.38,46.01L328.39,45.766L330.4,45.727L332.4,45.807L334.41,46.112L336.42,45.797L338.43,45.92L340.44,45.9L342.45,45.676L344.45,45.697L346.46,45.985L348.47,45.735L350.48,45.858L352.49,45.658L354.5,45.683L356.5,45.587L358.51,45.637L360.52,45.842L362.53,45.601L364.54,45.488L366.54,45.533L368.55,45.553L370.56,45.53L372.57,45.504L374.58,45.477L376.59,45.502L378.59,45.513L380.6,45.503L382.61,45.494L384.62,45.473L386.63,45.452L388.64,45.458L390.64,45.428L392.65,45.414L394.66,45.473L396.67,45.401L398.68,45.362L400.69,45.419L402.69,45.383L404.7,45.364L406.71,45.411L408.72,45.351L410.73,45.303L412.74,45.322L414.74,45.332L416.75,45.355L418.76,45.328L420.77,45.288L422.78,45.321L424.78,45.273L426.79,45.343L428.8,45.307L430.81,45.288L432.82,45.26L434.83,45.29L436.83,45.274L438.84,45.278L440.85,45.251L442.86,45.268L444.87,45.26L446.88,45.227L448.88,45.246L450.89,45.23L452.9,45.255L454.91,45.232L456.92,45.212L458.93,45.227L460.93,45.213L462.94,45.224L464.95,45.213L466.96,45.212L468.97,45.2L470.97,45.206L472.98,45.21L474.99,45.202L477,45.204L479.01,45.201L481.02,45.199L483.02,45.191L485.03,45.193L487.04,45.193L489.05,45.2L491.06,45.183L493.07,45.2L495.07,45.187L497.08,45.187L499.09,45.182L501.1,45.18L503.11,45.186L505.12,45.178L507.12,45.181L509.13,45.173L511.14,45.171L513.15,45.169L515.16,45.173L517.16,45.169L519.17,45.173L521.18,45.178L523.19,45.164L525.2,45.174L527.21,45.169L529.21,45.166L531.22,45.169L533.23,45.158L535.24,45.162L537.25,45.162L539.26,45.159L541.26,45.167L543.27,45.162L545.28,45.161L547.29,45.159L549.3,45.158L551.31,45.161L553.31,45.16L555.32,45.159L557.33,45.161L559.34,45.159L561.35,45.159L563.36,45.156L565.36,45.157L567.37,45.155L569.38,45.155L571.39,45.156L573.4,45.156L575.4,45.154L577.41,45.159L579.42,45.153L581.43,45.157L583.44,45.156L585.45,45.156L587.45,45.155L589.46,45.153L591.47,45.153L593.48,45.153L595.49,45.153L597.5,45.154L599.5,45.156L601.51,45.153L605.53,45.153L607.54,45.155L609.55,45.153L611.55,45.155L613.56,45.156L615.57,45.153L617.58,45.152L619.59,45.151L623.6,45.152L625.61,45.151L627.62,45.152L629.63,45.152L631.64,45.151L633.64,45.151L635.65,45.152L637.66,45.151L639.67,45.151L641.68,45.152L643.69,45.151L645.69,45.154L649.71,45.151L657.74,45.152L663.77,45.151L667.79,45.152L671.8,45.151L677.83,45.151L683.85,45.151L685.86,45.151L691.88,45.151L699.92,45.151L717.99,45.151L720,45.151" style="fill:none;stroke:#0000FF" />
</g>
</svg>
