<?xml version="1.0"?>
<!-- Generated by SVGo and Plotinum VG -->
<svg width="720pt" height="432pt" viewBox="0 0 720 432"
	xmlns="http://www.w3.org/2000/svg"
	xmlns:xlink="http://www.w3.org/1999/xlink">
<g transform="scale(1, -1) translate(0, -432)">
<path d="M0,0L720,0L720,432L0,432Z" style="fill:#FFFFFF" />
<text x="358.5" y="-420.45" transform="scale(1, -1)"
	style="font-family:Times;font-weight:normal;font-style:normal;font-size:12px"> </text>
<text x="376.81" y="-3.8613" transform="scale(1, -1)"
	style="font-family:Times;font-weight:normal;font-style:normal;font-size:12px">Costs</text>
<text x="57.805" y="-18.634" transform="scale(1, -1)"
	style="font-family:Times;font-weight:normal;font-style:normal;font-size:10px">0</text>
<text x="372.53" y="-18.634" transform="scale(1, -1)"
	style="font-family:Times;font-weight:normal;font-style:normal;font-size:10px">300</text>
<text x="692.25" y="-18.634" transform="scale(1, -1)"
	style="font-family:Times;font-weight:normal;font-style:normal;font-size:10px">600</text>
<path d="M60.305,28.263L60.305,36.263" style="fill:none;stroke:#000000;stroke-width:0.5" />
<path d="M380.03,28.263L380.03,36.263" style="fill:none;stroke:#000000;stroke-width:0.5" />
<path d="M699.75,28.263L699.75,36.263" style="fill:none;stroke:#000000;stroke-width:0.5" />
<path d="M166.88,32.263L166.88,36.263" style="fill:none;stroke:#000000;stroke-width:0.5" />
<path d="M273.45,32.263L273.45,36.263" style="fill:none;stroke:#000000;stroke-width:0.5" />
<path d="M486.6,32.263L486.6,36.263" style="fill:none;stroke:#000000;stroke-width:0.5" />
<path d="M593.18,32.263L593.18,36.263" style="fill:none;stroke:#000000;stroke-width:0.5" />
<path d="M60.305,36.263L720,36.263" style="fill:none;stroke:#000000;stroke-width:0.5" />
<g transform="rotate(90)">
<text x="152.55" y="11.555" transform="scale(1, -1)"
	style="font-family:Times;font-weight:normal;font-style:normal;font-size:12px">Number of trials (1000000 total)</text>
</g>
<text x="24.055" y="-69.984" transform="scale(1, -1)"
	style="font-family:Times;font-weight:normal;font-style:normal;font-size:10px">5000</text>
<text x="19.055" y="-182.16" transform="scale(1, -1)"
	style="font-family:Times;font-weight:normal;font-style:normal;font-size:10px">25000</text>
<text x="19.055" y="-294.34" transform="scale(1, -1)"
	style="font-family:Times;font-weight:normal;font-style:normal;font-size:10px">45000</text>
<text x="19.055" y="-406.51" transform="scale(1, -1)"
	style="font-family:Times;font-weight:normal;font-style:normal;font-size:10px">65000</text>
<path d="M46.555,73.19L54.555,73.19" style="fill:none;stroke:#000000;stroke-width:0.5" />
<path d="M46.555,185.37L54.555,185.37" style="fill:none;stroke:#000000;stroke-width:0.5" />
<path d="M46.555,297.54L54.555,297.54" style="fill:none;stroke:#000000;stroke-width:0.5" />
<path d="M46.555,409.72L54.555,409.72" style="fill:none;stroke:#000000;stroke-width:0.5" />
<path d="M50.555,129.28L54.555,129.28" style="fill:none;stroke:#000000;stroke-width:0.5" />
<path d="M50.555,241.45L54.555,241.45" style="fill:none;stroke:#000000;stroke-width:0.5" />
<path d="M50.555,353.63L54.555,353.63" style="fill:none;stroke:#000000;stroke-width:0.5" />
<path d="M54.555,45.151L54.555,416.58" style="fill:none;stroke:#000000;stroke-width:0.5" />
<path d="M60.305,416.58L84.817,48.59L85.883,71.07L88.014,65.315L89.08,52.555L90.146,88.502L91.211,85.35L93.343,67.076L94.408,55.012L95.474,71.889L96.54,128.94L97.606,89.663L99.737,68.484L100.8,74.996L101.87,71.322L102.93,89.921L104,71.793L105.07,72.399L106.13,99.411L107.2,97.033L108.26,52.123L109.33,74.547L110.39,45.409L111.46,81.715L112.53,68.731L113.59,46.621L114.66,64.917L115.72,48.735L116.79,91.766L117.85,91.071L118.92,53.021L119.99,92.759L121.05,52.998L122.12,71.849L123.18,74.16L124.25,90.785L125.32,64.378L126.38,83.858L127.45,65.579L128.51,55.017L129.58,57.21L130.64,61.653L131.71,101.98L132.78,69.987L133.84,69.499L134.91,62.359L135.97,66.179L137.04,75.686L138.1,67.811L139.17,93.46L140.24,71.187L141.3,66.936L142.37,81.513L143.43,76.011L144.5,69.499L145.56,85.602L146.63,85.019L147.7,82.977L148.76,78.546L149.83,73.829L150.89,73.723L151.96,74.143L153.02,83.409L154.09,82.108L155.16,74.093L156.22,74.934L157.29,77.312L158.35,73.465L159.42,78.126L160.48,80.291L161.55,77.475L162.62,79.864L163.68,80.044L164.75,73.745L165.81,73.61L166.88,77.206L167.94,77.812L169.01,83.319L170.08,71.962L171.14,75.63L172.21,72.73L173.27,72.079L174.34,76.129L175.41,74.306L176.47,76.679L177.54,75.4L178.6,75.153L179.67,71.171L180.73,74.508L181.8,76.325L182.87,79.831L183.93,77.767L185,71.21L186.06,75.955L187.13,70.228L188.19,76.499L189.26,75.736L190.33,73.885L191.39,76.415L192.46,70.447L193.52,73.678L194.59,71.704L195.65,75.417L196.72,73.717L197.79,73.195L198.85,73.369L199.92,71.26L200.98,70.464L202.05,72.163L203.11,74.648L204.18,71.855L205.25,73.689L206.31,72.444L207.38,69.858L208.44,71.603L209.51,71.255L210.57,74.143L211.64,70.599L212.71,70.739L213.77,70.711L214.84,69.757L215.9,69.056L216.97,70.548L218.03,71.019L219.1,69.292L220.17,68.821L221.23,68.288L222.3,68.271L223.36,67.89L224.43,68.826L225.49,68.422L226.56,68.293L227.63,67.738L228.69,67.026L229.76,66.229L230.82,66.824L231.89,67.183L232.96,66.728L234.02,66.426L235.09,66.263L236.15,65.562L237.22,64.805L238.28,65.534L239.35,65.175L240.42,66.257L241.48,64.519L242.55,65.394L243.61,63.722L244.68,63.739L245.74,64.446L246.81,63.773L247.88,63.47L248.94,62.757L250.01,62.993L251.07,62.298L252.14,61.972L253.2,62.746L254.27,62.668L255.34,62.886L256.4,61.434L257.47,61.249L258.53,60.985L259.6,61.305L260.66,60.542L261.73,61.198L262.8,60.385L263.86,60.25L264.93,60.29L265.99,59.291L267.06,60.071L268.12,59.835L269.19,59.6L270.26,59.168L271.32,59.089L272.39,58.691L273.45,58.568L274.52,58.321L275.58,58.029L276.65,58.141L277.72,57.104L278.78,57.446L279.85,57.059L280.91,56.935L281.98,57.199L283.05,57.042L284.11,56.728L285.18,56.582L286.24,56.184L287.31,56.049L288.37,56.049L289.44,56.403L290.51,55.55L291.57,55.623L292.64,55.578L293.7,55.64L294.77,54.843L295.83,55.23L296.9,54.883L297.97,54.67L299.03,54.686L300.1,54.322L301.16,53.929L302.23,53.985L303.29,53.879L304.36,53.912L305.43,53.952L306.49,53.441L307.56,52.892L308.62,52.768L309.69,53.015L310.75,52.718L311.82,52.622L312.89,52.325L313.95,52.533L315.02,52.404L316.08,52.073L317.15,52.028L318.21,52.196L319.28,51.669L320.35,51.736L321.41,51.579L322.48,51.108L323.54,50.951L324.61,51.114L325.67,51.08L326.74,50.839L327.81,50.631L328.87,50.973L329.94,50.497L331,50.272L332.07,50.384L333.14,50.295L334.2,50.44L335.27,50.042L336.33,50.396L337.4,49.717L338.46,50.009L339.53,49.801L340.6,49.554L341.66,49.739L342.73,49.336L343.79,49.509L344.86,49.341L345.92,49.162L346.99,49.033L348.06,49.094L349.12,48.803L350.19,48.898L351.25,48.954L352.32,48.679L353.38,48.505L354.45,48.376L355.52,48.326L356.58,48.517L357.65,48.399L358.71,48.107L359.78,48.41L360.84,48.124L361.91,48.275L362.98,48.197L364.04,48.247L365.11,47.827L366.17,48.13L367.24,47.849L368.3,47.759L369.37,47.664L370.44,47.653L371.5,47.709L372.57,47.316L373.63,47.412L374.7,47.664L375.76,47.384L376.83,47.412L377.9,47.417L378.96,47.305L380.03,47.109L381.09,47.081L382.16,47.204L383.23,46.924L384.29,46.969L385.36,47.008L386.42,46.957L387.49,46.901L388.55,46.873L389.62,46.795L390.69,46.739L391.75,46.638L392.82,46.722L393.88,46.755L394.95,46.643L396.01,46.469L397.08,46.61L398.15,46.43L399.21,46.683L400.28,46.301L401.34,46.469L402.41,46.582L403.47,46.245L404.54,46.296L405.61,46.425L406.67,46.245L407.74,46.324L408.8,46.374L409.87,46.021L410.93,46.183L412,46.228L413.07,46.088L414.13,46.105L415.2,46.015L416.26,46.043L417.33,45.92L418.39,46.054L419.46,45.909L420.53,45.92L421.59,45.942L422.66,45.819L423.72,45.836L424.79,46.015L425.85,45.903L426.92,45.858L427.99,45.78L429.05,45.774L430.12,45.808L431.18,45.841L432.25,45.763L433.31,45.623L434.38,45.718L435.45,45.752L436.51,45.667L437.58,45.656L438.64,45.617L439.71,45.718L440.78,45.69L441.84,45.55L442.91,45.611L443.97,45.634L445.04,45.583L446.1,45.522L447.17,45.623L448.24,45.505L449.3,45.499L450.37,45.578L451.43,45.516L452.5,45.572L453.56,45.516L454.63,45.421L455.7,45.533L456.76,45.449L457.83,45.499L458.89,45.443L459.96,45.409L461.02,45.55L462.09,45.477L463.16,45.336L464.22,45.376L465.29,45.376L466.35,45.336L467.42,45.415L468.48,45.477L469.55,45.376L470.62,45.404L471.68,45.381L472.75,45.336L473.81,45.353L474.88,45.393L475.94,45.37L477.01,45.32L478.08,45.342L479.14,45.325L480.21,45.365L481.27,45.303L482.34,45.308L483.4,45.32L484.47,45.325L485.54,45.303L486.6,45.275L487.67,45.297L488.73,45.292L489.8,45.235L490.87,45.258L491.93,45.275L493,45.269L494.06,45.275L495.13,45.275L496.19,45.247L497.26,45.286L498.33,45.286L499.39,45.258L500.46,45.275L501.52,45.219L502.59,45.252L503.65,45.235L504.72,45.235L505.79,45.224L506.85,45.207L507.92,45.219L508.98,45.207L510.05,45.219L511.11,45.303L512.18,45.191L513.25,45.235L514.31,45.224L515.38,45.219L516.44,45.207L517.51,45.202L518.57,45.202L519.64,45.247L520.71,45.191L521.77,45.179L522.84,45.202L523.9,45.179L524.97,45.174L526.03,45.185L527.1,45.196L528.17,45.174L529.23,45.168L530.3,45.185L531.36,45.174L532.43,45.207L533.49,45.196L534.56,45.163L535.63,45.168L536.69,45.168L537.76,45.185L538.82,45.179L539.89,45.168L540.96,45.196L542.02,45.179L543.09,45.219L544.15,45.168L545.22,45.168L546.28,45.168L547.35,45.168L548.42,45.191L549.48,45.185L550.55,45.163L551.61,45.185L552.68,45.174L553.74,45.163L554.81,45.174L556.94,45.168L558.01,45.179L559.07,45.168L560.14,45.163L561.2,45.168L562.27,45.163L563.34,45.168L565.47,45.151L566.53,45.157L567.6,45.163L568.66,45.157L569.73,45.157L570.8,45.157L571.86,45.163L572.93,45.163L573.99,45.151L575.06,45.157L578.26,45.157L579.32,45.157L584.65,45.151L585.72,45.157L586.78,45.157L588.91,45.163L589.98,45.151L592.11,45.168L593.18,45.151L594.24,45.151L595.31,45.151L596.37,45.151L597.44,45.151L598.51,45.151L599.57,45.163L602.77,45.151L603.83,45.163L604.9,45.151L607.03,45.151L608.1,45.151L610.23,45.157L613.43,45.151L628.35,45.151L631.54,45.151L634.74,45.151L643.27,45.151L646.46,45.151L650.73,45.151L664.58,45.151L720,45.151" style="fill:none;stroke:#0000FF" />
</g>
</svg>
