<?xml version="1.0"?>
<!-- Generated by SVGo and Plotinum VG -->
<svg width="720pt" height="432pt" viewBox="0 0 720 432"
	xmlns="http://www.w3.org/2000/svg"
	xmlns:xlink="http://www.w3.org/1999/xlink">
<g transform="scale(1, -1) translate(0, -432)">
<path d="M0,0L720,0L720,432L0,432Z" style="fill:#FFFFFF" />
<text x="358.5" y="-420.45" transform="scale(1, -1)"
	style="font-family:Times;font-weight:normal;font-style:normal;font-size:12px"> </text>
<text x="379.31" y="-3.8613" transform="scale(1, -1)"
	style="font-family:Times;font-weight:normal;font-style:normal;font-size:12px">Costs</text>
<text x="56.555" y="-18.634" transform="scale(1, -1)"
	style="font-family:Times;font-weight:normal;font-style:normal;font-size:10px">0.00</text>
<text x="350.78" y="-18.634" transform="scale(1, -1)"
	style="font-family:Times;font-weight:normal;font-style:normal;font-size:10px">250.00</text>
<text x="650" y="-18.634" transform="scale(1, -1)"
	style="font-family:Times;font-weight:normal;font-style:normal;font-size:10px">500.00</text>
<path d="M65.305,28.263L65.305,36.263" style="fill:none;stroke:#000000;stroke-width:0.5" />
<path d="M364.53,28.263L364.53,36.263" style="fill:none;stroke:#000000;stroke-width:0.5" />
<path d="M663.75,28.263L663.75,36.263" style="fill:none;stroke:#000000;stroke-width:0.5" />
<path d="M125.15,32.263L125.15,36.263" style="fill:none;stroke:#000000;stroke-width:0.5" />
<path d="M184.99,32.263L184.99,36.263" style="fill:none;stroke:#000000;stroke-width:0.5" />
<path d="M244.84,32.263L244.84,36.263" style="fill:none;stroke:#000000;stroke-width:0.5" />
<path d="M304.68,32.263L304.68,36.263" style="fill:none;stroke:#000000;stroke-width:0.5" />
<path d="M424.37,32.263L424.37,36.263" style="fill:none;stroke:#000000;stroke-width:0.5" />
<path d="M484.21,32.263L484.21,36.263" style="fill:none;stroke:#000000;stroke-width:0.5" />
<path d="M544.06,32.263L544.06,36.263" style="fill:none;stroke:#000000;stroke-width:0.5" />
<path d="M603.9,32.263L603.9,36.263" style="fill:none;stroke:#000000;stroke-width:0.5" />
<path d="M65.305,36.263L720,36.263" style="fill:none;stroke:#000000;stroke-width:0.5" />
<g transform="rotate(90)">
<text x="152.55" y="11.555" transform="scale(1, -1)"
	style="font-family:Times;font-weight:normal;font-style:normal;font-size:12px">Number of trials (1000000 total)</text>
</g>
<text x="24.055" y="-106.87" transform="scale(1, -1)"
	style="font-family:Times;font-weight:normal;font-style:normal;font-size:10px">30000</text>
<text x="24.055" y="-236.74" transform="scale(1, -1)"
	style="font-family:Times;font-weight:normal;font-style:normal;font-size:10px">90000</text>
<text x="19.055" y="-366.6" transform="scale(1, -1)"
	style="font-family:Times;font-weight:normal;font-style:normal;font-size:10px">150000</text>
<path d="M51.555,110.08L59.555,110.08" style="fill:none;stroke:#000000;stroke-width:0.5" />
<path d="M51.555,239.94L59.555,239.94" style="fill:none;stroke:#000000;stroke-width:0.5" />
<path d="M51.555,369.81L59.555,369.81" style="fill:none;stroke:#000000;stroke-width:0.5" />
<path d="M55.555,175.01L59.555,175.01" style="fill:none;stroke:#000000;stroke-width:0.5" />
<path d="M55.555,304.87L59.555,304.87" style="fill:none;stroke:#000000;stroke-width:0.5" />
<path d="M59.555,45.151L59.555,416.58" style="fill:none;stroke:#000000;stroke-width:0.5" />
<path d="M65.305,416.58L91.636,48.539L92.833,52.248L96.424,85.041L97.621,59.339L98.817,52.212L100.01,55.246L101.21,48.519L102.41,67.323L103.6,48.584L104.8,55.893L106,59.092L107.2,66.644L108.39,59.014L109.59,52.305L110.79,70.643L111.98,77.706L113.18,60.125L114.38,92.558L115.57,91.683L116.77,55.439L117.97,63.124L119.16,62.085L120.36,62.984L122.76,59.731L123.95,56.172L125.15,59.553L126.35,60.179L127.54,46.446L128.74,78.275L129.94,56.722L131.13,46.701L132.33,70.897L133.53,58.523L134.72,54.019L135.92,64.916L137.12,51.367L138.31,63.401L139.51,66.921L140.71,55.423L141.91,51.028L143.1,52.012L144.3,50.244L145.5,60.629L146.69,55.075L147.89,52.567L149.09,53.066L150.28,52.895L151.48,54.32L152.68,71.782L153.87,56.666L155.07,54.465L156.27,55.32L157.46,67.572L158.66,52.915L159.86,58.532L161.06,65.425L162.25,77.807L163.45,58.053L164.65,59.573L165.84,57.703L167.04,57.14L168.24,55.852L169.43,58.408L170.63,56.971L171.83,56.352L173.02,56.265L174.22,56.257L175.42,57.371L176.61,55.61L177.81,57.181L179.01,58.423L180.21,54.815L181.4,56.387L182.6,57.41L183.8,57.281L184.99,56.333L186.19,56.337L187.39,55.125L188.58,56.856L189.78,56.809L190.98,53.188L192.17,54.638L193.37,56.908L194.57,53.954L195.76,54.889L196.96,53.891L198.16,53.668L199.36,55.794L200.55,53.417L201.75,54.804L202.95,57.218L204.14,54.553L205.34,53.521L206.54,55.51L207.73,55.346L208.93,54.272L210.13,54.707L211.32,55.592L212.52,55.475L213.72,52.893L214.92,53.028L216.11,54.183L217.31,52.893L218.51,51.56L219.7,53.398L220.9,53.324L222.1,52.287L223.29,52.426L224.49,52.376L225.69,53.644L226.88,52.536L228.08,52.473L229.28,52.35L230.47,52.144L231.67,52.084L232.87,52.612L234.07,51.575L235.26,52.121L236.46,52.138L237.66,51.09L238.85,50.865L240.05,50.807L241.25,50.846L242.44,51.142L243.64,50.491L244.84,50.885L246.03,50.476L247.23,50.376L248.43,50.645L249.62,51.727L250.82,50.197L252.02,50.21L253.22,50.625L254.41,50.484L255.61,50.013L256.81,50.207L258,50.474L259.2,49.865L260.4,49.833L261.59,49.891L262.79,49.77L263.99,49.5L265.18,49.324L266.38,49.461L267.58,49.359L268.77,49.069L269.97,49.355L271.17,49.16L272.37,48.933L273.56,49.11L274.76,49.032L275.96,49.071L277.15,48.785L278.35,48.731L279.55,48.485L280.74,48.673L281.94,48.686L283.14,48.493L284.33,48.242L285.53,48.532L286.73,48.264L287.93,48.069L289.12,48.242L290.32,48.065L291.52,47.907L292.71,47.922L293.91,47.718L295.11,47.961L296.3,47.835L297.5,47.656L298.7,47.788L299.89,47.768L301.09,47.511L302.29,47.519L303.48,47.511L304.68,47.359L305.88,47.266L307.08,47.409L308.27,47.372L309.47,47.156L310.67,47.229L311.86,47.069L313.06,47.108L314.26,46.952L315.45,46.982L316.65,46.989L317.85,46.905L319.04,46.911L320.24,46.922L321.44,46.883L322.63,46.876L323.83,46.868L325.03,46.66L326.23,46.701L327.42,46.617L328.62,46.601L329.82,46.582L331.01,46.521L332.21,46.508L333.41,46.381L334.6,46.461L335.8,46.379L337,46.383L338.19,46.461L339.39,46.337L340.59,46.361L341.78,46.253L342.98,46.327L344.18,46.285L345.38,46.277L346.57,46.203L347.77,46.169L348.97,46.173L350.16,46.218L351.36,46.102L352.56,45.957L353.75,45.985L354.95,46.021L356.15,46.032L357.34,46.058L358.54,45.935L359.74,45.881L360.93,45.931L362.13,45.874L363.33,45.97L364.53,45.84L365.72,45.857L366.92,45.87L368.12,45.77L369.31,45.747L370.51,45.812L371.71,45.783L372.9,45.742L374.1,45.701L375.3,45.699L376.49,45.757L377.69,45.66L378.89,45.688L380.09,45.673L381.28,45.658L382.48,45.597L383.68,45.586L384.87,45.66L386.07,45.634L387.27,45.625L388.46,45.584L389.66,45.552L390.86,45.521L392.05,45.567L393.25,45.519L394.45,45.55L395.64,45.491L396.84,45.476L398.04,45.515L399.24,45.498L400.43,45.496L401.63,45.433L402.83,45.446L404.02,45.418L405.22,45.465L406.42,45.426L407.61,45.439L408.81,45.457L410.01,45.4L411.2,45.381L412.4,45.376L413.6,45.366L414.79,45.407L415.99,45.385L417.19,45.366L418.39,45.387L419.58,45.338L420.78,45.342L421.98,45.35L423.17,45.353L424.37,45.316L425.57,45.314L426.76,45.32L427.96,45.305L429.16,45.318L430.35,45.338L431.55,45.318L432.75,45.279L433.94,45.292L435.14,45.273L436.34,45.288L437.54,45.268L438.73,45.255L439.93,45.264L441.13,45.283L442.32,45.273L443.52,45.264L444.72,45.281L445.91,45.244L447.11,45.279L448.31,45.275L449.5,45.249L450.7,45.234L451.9,45.24L453.09,45.236L454.29,45.242L455.49,45.208L456.69,45.249L457.88,45.208L459.08,45.214L460.28,45.197L461.47,45.201L462.67,45.203L463.87,45.221L465.06,45.242L466.26,45.205L467.46,45.218L468.65,45.186L469.85,45.229L471.05,45.192L472.25,45.208L473.44,45.19L474.64,45.212L475.84,45.199L477.03,45.188L478.23,45.218L479.43,45.18L480.62,45.182L481.82,45.184L483.02,45.192L484.21,45.192L485.41,45.19L486.61,45.184L487.8,45.197L489,45.184L490.2,45.177L491.4,45.182L492.59,45.171L493.79,45.188L494.99,45.177L496.18,45.182L497.38,45.171L498.58,45.182L499.77,45.182L500.97,45.169L502.17,45.184L503.36,45.164L504.56,45.169L505.76,45.169L506.95,45.173L508.15,45.167L509.35,45.164L510.55,45.173L511.74,45.182L512.94,45.177L514.14,45.173L515.33,45.162L516.53,45.167L517.73,45.162L518.92,45.169L520.12,45.164L521.32,45.167L522.51,45.154L523.71,45.156L524.91,45.16L526.1,45.167L527.3,45.164L528.5,45.154L529.7,45.18L530.89,45.158L532.09,45.167L533.29,45.167L534.48,45.154L535.68,45.167L536.88,45.16L538.07,45.16L539.27,45.16L540.47,45.169L541.66,45.162L542.86,45.167L544.06,45.162L545.25,45.158L547.65,45.156L548.85,45.156L550.04,45.16L551.24,45.151L552.44,45.151L553.63,45.154L554.83,45.151L557.22,45.151L558.42,45.154L560.81,45.151L562.01,45.151L563.21,45.158L564.41,45.154L565.6,45.158L566.8,45.158L568,45.151L569.19,45.154L570.39,45.156L571.59,45.158L573.98,45.151L575.18,45.151L576.37,45.151L578.77,45.154L579.96,45.154L581.16,45.151L582.36,45.151L584.75,45.154L585.95,45.154L587.15,45.151L589.54,45.151L590.74,45.154L591.93,45.154L593.13,45.154L597.92,45.154L599.11,45.154L603.9,45.151L606.3,45.154L607.49,45.151L613.48,45.151L617.07,45.151L619.46,45.154L645.79,45.151L660.16,45.151L720,45.151" style="fill:none;stroke:#0000FF" />
</g>
</svg>
