<?xml version="1.0"?>
<!-- Generated by SVGo and Plotinum VG -->
<svg width="720pt" height="432pt" viewBox="0 0 720 432"
	xmlns="http://www.w3.org/2000/svg"
	xmlns:xlink="http://www.w3.org/1999/xlink">
<g transform="scale(1, -1) translate(0, -432)">
<path d="M0,0L720,0L720,432L0,432Z" style="fill:#FFFFFF" />
<text x="358.5" y="-420.45" transform="scale(1, -1)"
	style="font-family:Times;font-weight:normal;font-style:normal;font-size:12px"> </text>
<text x="376.81" y="-3.8613" transform="scale(1, -1)"
	style="font-family:Times;font-weight:normal;font-style:normal;font-size:12px">Costs</text>
<text x="51.555" y="-18.634" transform="scale(1, -1)"
	style="font-family:Times;font-weight:normal;font-style:normal;font-size:10px">0.00</text>
<text x="355.98" y="-18.634" transform="scale(1, -1)"
	style="font-family:Times;font-weight:normal;font-style:normal;font-size:10px">250.00</text>
<text x="665.41" y="-18.634" transform="scale(1, -1)"
	style="font-family:Times;font-weight:normal;font-style:normal;font-size:10px">500.00</text>
<path d="M60.305,28.263L60.305,36.263" style="fill:none;stroke:#000000;stroke-width:0.5" />
<path d="M369.73,28.263L369.73,36.263" style="fill:none;stroke:#000000;stroke-width:0.5" />
<path d="M679.16,28.263L679.16,36.263" style="fill:none;stroke:#000000;stroke-width:0.5" />
<path d="M122.19,32.263L122.19,36.263" style="fill:none;stroke:#000000;stroke-width:0.5" />
<path d="M184.07,32.263L184.07,36.263" style="fill:none;stroke:#000000;stroke-width:0.5" />
<path d="M245.96,32.263L245.96,36.263" style="fill:none;stroke:#000000;stroke-width:0.5" />
<path d="M307.85,32.263L307.85,36.263" style="fill:none;stroke:#000000;stroke-width:0.5" />
<path d="M431.62,32.263L431.62,36.263" style="fill:none;stroke:#000000;stroke-width:0.5" />
<path d="M493.5,32.263L493.5,36.263" style="fill:none;stroke:#000000;stroke-width:0.5" />
<path d="M555.39,32.263L555.39,36.263" style="fill:none;stroke:#000000;stroke-width:0.5" />
<path d="M617.27,32.263L617.27,36.263" style="fill:none;stroke:#000000;stroke-width:0.5" />
<path d="M60.305,36.263L720,36.263" style="fill:none;stroke:#000000;stroke-width:0.5" />
<g transform="rotate(90)">
<text x="152.55" y="11.555" transform="scale(1, -1)"
	style="font-family:Times;font-weight:normal;font-style:normal;font-size:12px">Number of trials (1000000 total)</text>
</g>
<text x="19.055" y="-84.905" transform="scale(1, -1)"
	style="font-family:Times;font-weight:normal;font-style:normal;font-size:10px">10000</text>
<text x="19.055" y="-213.8" transform="scale(1, -1)"
	style="font-family:Times;font-weight:normal;font-style:normal;font-size:10px">40000</text>
<text x="19.055" y="-342.69" transform="scale(1, -1)"
	style="font-family:Times;font-weight:normal;font-style:normal;font-size:10px">70000</text>
<path d="M46.555,88.111L54.555,88.111" style="fill:none;stroke:#000000;stroke-width:0.5" />
<path d="M46.555,217L54.555,217" style="fill:none;stroke:#000000;stroke-width:0.5" />
<path d="M46.555,345.89L54.555,345.89" style="fill:none;stroke:#000000;stroke-width:0.5" />
<path d="M50.555,131.07L54.555,131.07" style="fill:none;stroke:#000000;stroke-width:0.5" />
<path d="M50.555,174.04L54.555,174.04" style="fill:none;stroke:#000000;stroke-width:0.5" />
<path d="M50.555,259.96L54.555,259.96" style="fill:none;stroke:#000000;stroke-width:0.5" />
<path d="M50.555,302.93L54.555,302.93" style="fill:none;stroke:#000000;stroke-width:0.5" />
<path d="M50.555,388.86L54.555,388.86" style="fill:none;stroke:#000000;stroke-width:0.5" />
<path d="M54.555,45.151L54.555,416.58" style="fill:none;stroke:#000000;stroke-width:0.5" />
<path d="M60.305,416.58L88.772,51.97L90.01,70.298L92.485,51.824L93.723,70.302L94.96,59.703L96.198,71.359L97.436,60.343L98.673,86.061L99.911,85.915L101.15,86.59L102.39,104L103.62,59.746L104.86,56.64L106.1,48.747L107.34,71.54L108.58,77.078L109.81,69.632L111.05,105.76L112.29,63.084L113.53,94.938L114.76,77.511L116,48.507L117.24,71.557L118.48,45.594L120.95,60.476L122.19,71.883L123.43,73.387L124.67,46.582L125.9,102.05L127.14,77.06L128.38,61.555L129.62,54.217L130.85,52.176L132.09,69.374L133.33,63.432L134.57,65.529L135.8,74.968L137.04,86.654L138.28,85.357L139.52,57.942L140.76,63.914L141.99,61.164L143.23,80.033L144.47,62.234L145.71,60.739L146.94,65.456L148.18,63.557L149.42,68.399L150.66,84.863L151.89,72.291L153.13,72.004L154.37,64.369L155.61,86.929L156.85,65.495L158.08,62.998L159.32,70.5L160.56,81.206L161.8,72.004L163.03,69.228L164.27,74.367L165.51,75.037L166.75,68.124L167.98,74.839L169.22,64.962L170.46,67.57L171.7,66.857L172.94,67.2L174.17,72.356L175.41,71.247L176.65,78.702L177.89,71.209L179.12,73.864L180.36,71.458L181.6,62.852L182.84,67.458L184.07,66.719L185.31,69.486L186.55,68.266L187.79,69.383L189.03,75.101L190.26,69.808L191.5,71.277L192.74,68.713L193.98,68.584L195.21,65.559L196.45,63.351L197.69,68.833L198.93,68.218L200.17,70.216L201.4,69.495L202.64,69.576L203.88,71.505L205.12,67.879L206.35,66.487L207.59,64.365L208.83,67.694L210.07,67.789L211.3,65.641L212.54,67.196L213.78,66.234L215.02,66.135L216.26,66.436L217.49,65.89L218.73,65.739L219.97,63.02L221.21,65.903L222.44,64.438L223.68,63.578L224.92,63.725L226.16,65.757L227.39,66.998L228.63,65.456L229.87,63.978L231.11,64.244L232.35,63.102L233.58,64.61L234.82,62.049L236.06,63.376L237.3,63.402L238.53,64.068L239.77,62.324L241.01,62.509L242.25,63.183L243.48,63.14L244.72,61.37L245.96,62.01L247.2,60.532L248.44,60.369L249.67,60.163L250.91,62.169L252.15,61.331L253.39,60.631L254.62,60.936L255.86,61.396L257.1,60.541L258.34,59.518L259.57,59.686L260.81,59.205L262.05,59.342L263.29,59.102L264.53,58.822L265.76,59.368L267,59.145L268.24,58.47L269.48,58.711L270.71,58.436L271.95,58.191L273.19,57.271L274.43,57.207L275.66,57.069L276.9,57.409L278.14,57.151L279.38,56.932L280.62,56.52L281.85,56.825L283.09,56.464L284.33,56.412L285.57,55.669L286.8,55.72L288.04,55.596L289.28,55.441L290.52,55.66L291.76,55.046L292.99,55.467L294.23,55.033L295.47,54.947L296.71,54.436L297.94,54.062L299.18,54.315L300.42,53.851L301.66,54.079L302.89,53.645L304.13,53.675L305.37,53.946L306.61,53.048L307.85,53.461L309.08,53.469L310.32,53.039L311.56,53.254L312.8,52.825L314.03,52.494L315.27,52.515L316.51,52.601L317.75,52.477L318.98,52.017L320.22,51.918L321.46,52.15L322.7,51.63L323.94,51.811L325.17,51.57L326.41,51.398L327.65,51.188L328.89,51.265L330.12,50.921L331.36,50.874L332.6,50.934L333.84,50.492L335.07,50.724L336.31,50.208L337.55,50.724L338.79,50.475L340.03,49.886L341.26,50.178L342.5,50.049L343.74,50.118L344.98,49.89L346.21,49.993L347.45,49.693L348.69,49.426L349.93,49.495L351.16,49.229L352.4,49.585L353.64,49.035L354.88,48.842L356.12,48.949L357.35,48.825L358.59,48.979L359.83,48.765L361.07,48.906L362.3,48.606L363.54,48.627L364.78,48.387L366.02,48.365L367.25,48.275L368.49,48.12L369.73,48.326L370.97,48.425L372.21,48.142L373.44,47.97L374.68,47.927L375.92,47.837L377.16,47.695L378.39,47.776L379.63,47.673L380.87,47.57L382.11,47.639L383.34,47.729L384.58,47.635L385.82,47.643L387.06,47.437L388.3,47.45L389.53,47.196L390.77,47.269L392.01,47.102L393.25,47.209L394.48,47.089L395.72,47.214L396.96,47.068L398.2,46.874L399.44,46.836L400.67,46.913L401.91,46.861L403.15,46.848L404.39,46.78L405.62,46.728L406.86,46.758L408.1,46.556L409.34,46.672L410.57,46.616L411.81,46.535L413.05,46.625L414.29,46.406L415.53,46.311L416.76,46.436L418,46.513L419.24,46.333L420.48,46.26L421.71,46.294L422.95,46.329L424.19,46.204L425.43,46.247L426.66,46.079L427.9,46.23L429.14,46.251L430.38,46.024L431.62,46.071L432.85,46.002L434.09,45.959L435.33,46.011L436.57,46.071L437.8,46.084L439.04,45.877L440.28,45.908L441.52,45.933L442.75,45.912L443.99,45.813L445.23,45.826L446.47,45.779L447.71,45.847L448.94,45.783L450.18,45.792L451.42,45.796L452.66,45.749L453.89,45.718L455.13,45.706L456.37,45.654L457.61,45.671L458.84,45.723L460.08,45.658L461.32,45.641L462.56,45.688L463.8,45.65L465.03,45.641L466.27,45.56L467.51,45.564L468.75,45.534L469.98,45.637L471.22,45.525L472.46,45.529L473.7,45.517L474.93,45.517L476.17,45.512L477.41,45.495L478.65,45.534L479.89,45.426L481.12,45.461L482.36,45.456L483.6,45.461L484.84,45.444L486.07,45.439L487.31,45.418L488.55,45.358L489.79,45.435L491.03,45.396L492.26,45.401L493.5,45.392L494.74,45.452L495.98,45.388L497.21,45.336L498.45,45.332L499.69,45.349L500.93,45.315L502.16,45.319L503.4,45.332L504.64,45.276L505.88,45.353L507.12,45.306L508.35,45.285L509.59,45.267L510.83,45.302L512.07,45.276L513.3,45.315L514.54,45.293L515.78,45.315L517.02,45.289L518.25,45.229L519.49,45.254L520.73,45.254L521.97,45.242L523.21,45.246L524.44,45.28L525.68,45.259L526.92,45.207L528.16,45.212L529.39,45.242L530.63,45.216L531.87,45.212L533.11,45.246L534.34,45.207L535.58,45.229L536.82,45.229L538.06,45.246L539.3,45.207L540.53,45.207L541.77,45.229L543.01,45.22L544.25,45.212L545.48,45.22L546.72,45.194L547.96,45.212L549.2,45.207L550.43,45.203L551.67,45.216L552.91,45.194L554.15,45.199L555.39,45.203L556.62,45.199L557.86,45.207L559.1,45.181L560.34,45.169L561.57,45.169L562.81,45.177L564.05,45.186L565.29,45.199L566.52,45.19L567.76,45.22L569,45.181L570.24,45.177L571.48,45.177L572.71,45.16L573.95,45.177L575.19,45.181L576.43,45.19L577.66,45.173L578.9,45.177L580.14,45.156L581.38,45.177L582.62,45.173L583.85,45.173L585.09,45.164L586.33,45.173L587.57,45.173L588.8,45.164L590.04,45.151L591.28,45.156L593.75,45.16L594.99,45.173L596.23,45.151L597.47,45.151L598.71,45.169L599.94,45.16L601.18,45.156L602.42,45.16L603.66,45.164L604.89,45.151L606.13,45.151L607.37,45.16L608.61,45.164L609.84,45.16L611.08,45.16L612.32,45.156L613.56,45.151L614.8,45.164L616.03,45.169L617.27,45.156L618.51,45.186L620.98,45.151L622.22,45.164L623.46,45.151L624.7,45.169L625.93,45.151L627.17,45.156L628.41,45.151L629.65,45.151L630.89,45.16L632.12,45.151L633.36,45.151L635.84,45.16L637.07,45.156L638.31,45.156L639.55,45.151L642.02,45.151L643.26,45.151L644.5,45.151L645.74,45.151L648.21,45.16L650.69,45.151L651.93,45.16L655.64,45.151L659.35,45.151L661.83,45.156L665.54,45.156L670.49,45.151L671.73,45.16L674.21,45.156L682.87,45.151L698.96,45.156L703.91,45.156L720,45.151" style="fill:none;stroke:#0000FF" />
</g>
</svg>
