<?xml version="1.0"?>
<!-- Generated by SVGo and Plotinum VG -->
<svg width="720pt" height="432pt" viewBox="0 0 720 432"
	xmlns="http://www.w3.org/2000/svg"
	xmlns:xlink="http://www.w3.org/1999/xlink">
<g transform="scale(1, -1) translate(0, -432)">
<path d="M0,0L720,0L720,432L0,432Z" style="fill:#FFFFFF" />
<text x="358.5" y="-420.45" transform="scale(1, -1)"
	style="font-family:Times;font-weight:normal;font-style:normal;font-size:12px"> </text>
<text x="385.56" y="-3.8613" transform="scale(1, -1)"
	style="font-family:Times;font-weight:normal;font-style:normal;font-size:12px">Costs</text>
<text x="75.305" y="-18.634" transform="scale(1, -1)"
	style="font-family:Times;font-weight:normal;font-style:normal;font-size:10px">0</text>
<text x="350.13" y="-18.634" transform="scale(1, -1)"
	style="font-family:Times;font-weight:normal;font-style:normal;font-size:10px">200</text>
<text x="629.95" y="-18.634" transform="scale(1, -1)"
	style="font-family:Times;font-weight:normal;font-style:normal;font-size:10px">400</text>
<path d="M77.805,28.263L77.805,36.263" style="fill:none;stroke:#000000;stroke-width:0.5" />
<path d="M357.63,28.263L357.63,36.263" style="fill:none;stroke:#000000;stroke-width:0.5" />
<path d="M637.45,28.263L637.45,36.263" style="fill:none;stroke:#000000;stroke-width:0.5" />
<path d="M217.72,32.263L217.72,36.263" style="fill:none;stroke:#000000;stroke-width:0.5" />
<path d="M497.54,32.263L497.54,36.263" style="fill:none;stroke:#000000;stroke-width:0.5" />
<path d="M77.805,36.263L720,36.263" style="fill:none;stroke:#000000;stroke-width:0.5" />
<g transform="rotate(90)">
<text x="152.55" y="11.555" transform="scale(1, -1)"
	style="font-family:Times;font-weight:normal;font-style:normal;font-size:12px">Number of trials (1000000 total)</text>
</g>
<text x="24.055" y="-90.065" transform="scale(1, -1)"
	style="font-family:Times;font-weight:normal;font-style:normal;font-size:10px">25000.00</text>
<text x="19.055" y="-234.43" transform="scale(1, -1)"
	style="font-family:Times;font-weight:normal;font-style:normal;font-size:10px">100000.00</text>
<text x="19.055" y="-378.79" transform="scale(1, -1)"
	style="font-family:Times;font-weight:normal;font-style:normal;font-size:10px">175000.00</text>
<path d="M64.055,93.271L72.055,93.271" style="fill:none;stroke:#000000;stroke-width:0.5" />
<path d="M64.055,237.64L72.055,237.64" style="fill:none;stroke:#000000;stroke-width:0.5" />
<path d="M64.055,382L72.055,382" style="fill:none;stroke:#000000;stroke-width:0.5" />
<path d="M68.055,165.45L72.055,165.45" style="fill:none;stroke:#000000;stroke-width:0.5" />
<path d="M68.055,309.82L72.055,309.82" style="fill:none;stroke:#000000;stroke-width:0.5" />
<path d="M72.055,45.151L72.055,416.58" style="fill:none;stroke:#000000;stroke-width:0.5" />
<path d="M77.805,416.58L108.59,62.623L109.98,78.257L114.18,52.218L115.58,86.572L116.98,48.489L118.38,48.499L119.78,48.537L121.18,51.944L122.58,59.182L123.98,73.399L125.37,55.457L126.77,65.919L129.57,55.374L130.97,79.241L132.37,73.385L133.77,62.296L135.17,80.151L136.57,48.585L137.97,87.466L139.37,77.325L140.77,50.173L144.96,45.486L146.36,65.384L147.76,76.937L149.16,52.681L150.56,45.586L151.96,103.45L153.36,64.729L154.76,51.459L156.16,55.653L157.55,57.867L158.95,47.942L160.35,51.088L161.75,54.629L163.15,58.56L164.55,72.477L165.95,70.113L167.35,51.032L168.75,53.39L170.15,55.48L171.55,53.005L172.94,51.842L174.34,48.718L175.74,53.704L177.14,61.424L178.54,54.529L179.94,60.991L181.34,51.871L182.74,53.521L184.14,62.319L185.54,60.964L186.94,53.671L188.34,54.789L189.73,65.022L191.13,56.192L192.53,57.022L193.93,56.023L195.33,57.803L196.73,56.591L198.13,56.119L199.53,55.625L200.93,57.076L202.33,54.891L203.73,54.641L205.12,56.352L206.52,56.893L207.92,57.442L209.32,60.288L210.72,54.31L212.12,58.04L213.52,56.566L214.92,53.473L216.32,52.196L217.72,54.901L219.12,53.199L220.51,54.753L221.91,58.192L223.31,54.957L224.71,52.706L226.11,57.686L227.51,54.346L228.91,50.1L230.31,51.255L231.71,52.037L233.11,52.404L234.51,53.84L235.91,52.92L237.3,53.099L238.7,54.547L240.1,54.91L241.5,52.219L242.9,51.565L244.3,51.627L245.7,51.894L247.1,52.017L248.5,50.504L249.9,52.119L251.3,52.71L252.69,52.05L254.09,52.073L255.49,50.893L256.89,50.491L258.29,50.961L259.69,51.998L261.09,50.343L262.49,50.435L263.89,52.358L265.29,51.488L266.69,50.98L268.08,50.705L269.48,50.726L270.88,50.281L272.28,50.298L273.68,50.179L275.08,49.989L276.48,50.119L277.88,50.277L279.28,50.073L280.68,49.665L282.08,49.815L283.48,50.137L284.87,49.336L286.27,49.249L287.67,49.486L289.07,49.109L290.47,48.774L291.87,49.253L293.27,49.024L294.67,49.099L296.07,49.284L297.47,49.12L298.87,48.495L300.26,48.811L301.66,48.483L303.06,48.064L304.46,48.223L305.86,48.316L307.26,48.335L308.66,48.27L310.06,48.243L311.46,48.17L312.86,48.135L314.26,47.908L315.65,47.875L317.05,47.769L318.45,47.598L319.85,47.9L321.25,47.667L322.65,47.598L324.05,47.613L325.45,47.382L326.85,47.411L328.25,47.436L329.65,47.367L331.05,47.186L332.44,47.053L333.84,47.238L335.24,47.086L336.64,46.978L338.04,47.167L339.44,47.094L340.84,46.984L342.24,46.97L343.64,46.905L345.04,46.78L346.44,46.822L347.83,46.745L349.23,46.693L350.63,46.603L352.03,46.77L353.43,46.608L354.83,46.472L356.23,46.551L357.63,46.612L359.03,46.393L360.43,46.379L361.83,46.399L363.22,46.426L364.62,46.408L366.02,46.243L367.42,46.235L368.82,46.239L370.22,46.185L371.62,46.252L373.02,46.179L374.42,46.145L375.82,46.17L377.22,46.106L378.62,46.041L380.01,46.108L381.41,46.019L382.81,45.981L384.21,45.923L385.61,45.975L387.01,45.894L388.41,45.881L389.81,45.86L391.21,45.875L392.61,45.871L394.01,45.787L395.4,45.833L396.8,45.802L398.2,45.796L399.6,45.829L401,45.706L402.4,45.735L403.8,45.677L405.2,45.704L406.6,45.652L408,45.64L409.4,45.688L410.79,45.577L412.19,45.644L413.59,45.586L414.99,45.644L416.39,45.577L417.79,45.55L419.19,45.571L420.59,45.532L421.99,45.583L423.39,45.454L424.79,45.492L426.19,45.519L427.58,45.475L428.98,45.506L430.38,45.479L431.78,45.457L433.18,45.442L434.58,45.438L435.98,45.457L437.38,45.43L438.78,45.415L440.18,45.396L441.58,45.402L442.97,45.355L444.37,45.43L445.77,45.409L447.17,45.357L448.57,45.382L449.97,45.344L451.37,45.352L452.77,45.342L454.17,45.382L455.57,45.33L456.97,45.327L458.36,45.346L459.76,45.346L461.16,45.352L462.56,45.303L463.96,45.305L465.36,45.284L466.76,45.282L468.16,45.286L469.56,45.307L470.96,45.303L472.36,45.269L473.76,45.284L475.15,45.269L476.55,45.28L477.95,45.253L479.35,45.253L480.75,45.238L482.15,45.259L483.55,45.278L484.95,45.226L486.35,45.242L487.75,45.238L489.15,45.236L490.54,45.242L491.94,45.23L493.34,45.219L494.74,45.236L496.14,45.213L497.54,45.238L498.94,45.215L500.34,45.211L501.74,45.207L503.14,45.215L504.54,45.196L505.93,45.207L507.33,45.196L508.73,45.203L510.13,45.201L511.53,45.203L512.93,45.192L514.33,45.192L515.73,45.198L517.13,45.196L518.53,45.207L519.93,45.196L521.33,45.188L522.72,45.19L524.12,45.186L525.52,45.19L526.92,45.184L528.32,45.178L529.72,45.178L531.12,45.171L532.52,45.178L533.92,45.178L535.32,45.173L536.72,45.174L538.11,45.174L539.51,45.184L540.91,45.188L542.31,45.192L543.71,45.169L545.11,45.171L546.51,45.169L547.91,45.167L549.31,45.182L550.71,45.176L552.11,45.163L553.5,45.163L554.9,45.165L556.3,45.169L557.7,45.165L559.1,45.176L560.5,45.163L561.9,45.167L563.3,45.167L564.7,45.165L566.1,45.159L567.5,45.167L568.9,45.157L570.29,45.163L571.69,45.159L573.09,45.153L574.49,45.157L575.89,45.159L577.29,45.159L578.69,45.157L580.09,45.159L581.49,45.157L582.89,45.157L584.29,45.155L585.68,45.155L587.08,45.155L588.48,45.153L589.88,45.155L591.28,45.151L592.68,45.153L594.08,45.159L595.48,45.159L596.88,45.159L598.28,45.155L599.68,45.153L601.07,45.151L602.47,45.155L603.87,45.151L606.67,45.153L610.87,45.153L613.67,45.151L615.07,45.153L616.47,45.155L617.86,45.153L619.26,45.151L622.06,45.157L623.46,45.151L624.86,45.157L626.26,45.153L627.66,45.151L631.86,45.151L633.25,45.151L636.05,45.153L637.45,45.151L638.85,45.151L640.25,45.153L648.64,45.151L650.04,45.151L657.04,45.155L662.64,45.151L665.43,45.153L666.83,45.153L668.23,45.151L669.63,45.151L671.03,45.151L675.23,45.151L678.03,45.151L696.21,45.151L697.61,45.151L720,45.151" style="fill:none;stroke:#0000FF" />
</g>
</svg>
