<?xml version="1.0"?>
<!-- Generated by SVGo and Plotinum VG -->
<svg width="720pt" height="432pt" viewBox="0 0 720 432"
	xmlns="http://www.w3.org/2000/svg"
	xmlns:xlink="http://www.w3.org/1999/xlink">
<g transform="scale(1, -1) translate(0, -432)">
<path d="M0,0L720,0L720,432L0,432Z" style="fill:#FFFFFF" />
<text x="358.5" y="-420.45" transform="scale(1, -1)"
	style="font-family:Times;font-weight:normal;font-style:normal;font-size:12px"> </text>
<text x="379.31" y="-3.8613" transform="scale(1, -1)"
	style="font-family:Times;font-weight:normal;font-style:normal;font-size:12px">Costs</text>
<text x="62.805" y="-18.634" transform="scale(1, -1)"
	style="font-family:Times;font-weight:normal;font-style:normal;font-size:10px">0</text>
<text x="230.09" y="-18.634" transform="scale(1, -1)"
	style="font-family:Times;font-weight:normal;font-style:normal;font-size:10px">100</text>
<text x="402.38" y="-18.634" transform="scale(1, -1)"
	style="font-family:Times;font-weight:normal;font-style:normal;font-size:10px">200</text>
<text x="574.67" y="-18.634" transform="scale(1, -1)"
	style="font-family:Times;font-weight:normal;font-style:normal;font-size:10px">300</text>
<path d="M65.305,28.263L65.305,36.263" style="fill:none;stroke:#000000;stroke-width:0.5" />
<path d="M237.59,28.263L237.59,36.263" style="fill:none;stroke:#000000;stroke-width:0.5" />
<path d="M409.88,28.263L409.88,36.263" style="fill:none;stroke:#000000;stroke-width:0.5" />
<path d="M582.17,28.263L582.17,36.263" style="fill:none;stroke:#000000;stroke-width:0.5" />
<path d="M99.762,32.263L99.762,36.263" style="fill:none;stroke:#000000;stroke-width:0.5" />
<path d="M134.22,32.263L134.22,36.263" style="fill:none;stroke:#000000;stroke-width:0.5" />
<path d="M168.68,32.263L168.68,36.263" style="fill:none;stroke:#000000;stroke-width:0.5" />
<path d="M203.14,32.263L203.14,36.263" style="fill:none;stroke:#000000;stroke-width:0.5" />
<path d="M272.05,32.263L272.05,36.263" style="fill:none;stroke:#000000;stroke-width:0.5" />
<path d="M306.51,32.263L306.51,36.263" style="fill:none;stroke:#000000;stroke-width:0.5" />
<path d="M340.97,32.263L340.97,36.263" style="fill:none;stroke:#000000;stroke-width:0.5" />
<path d="M375.42,32.263L375.42,36.263" style="fill:none;stroke:#000000;stroke-width:0.5" />
<path d="M444.34,32.263L444.34,36.263" style="fill:none;stroke:#000000;stroke-width:0.5" />
<path d="M478.8,32.263L478.8,36.263" style="fill:none;stroke:#000000;stroke-width:0.5" />
<path d="M513.25,32.263L513.25,36.263" style="fill:none;stroke:#000000;stroke-width:0.5" />
<path d="M547.71,32.263L547.71,36.263" style="fill:none;stroke:#000000;stroke-width:0.5" />
<path d="M616.63,32.263L616.63,36.263" style="fill:none;stroke:#000000;stroke-width:0.5" />
<path d="M651.08,32.263L651.08,36.263" style="fill:none;stroke:#000000;stroke-width:0.5" />
<path d="M685.54,32.263L685.54,36.263" style="fill:none;stroke:#000000;stroke-width:0.5" />
<path d="M720,32.263L720,36.263" style="fill:none;stroke:#000000;stroke-width:0.5" />
<path d="M65.305,36.263L720,36.263" style="fill:none;stroke:#000000;stroke-width:0.5" />
<g transform="rotate(90)">
<text x="152.55" y="11.555" transform="scale(1, -1)"
	style="font-family:Times;font-weight:normal;font-style:normal;font-size:12px">Number of trials (1000000 total)</text>
</g>
<text x="24.055" y="-108.53" transform="scale(1, -1)"
	style="font-family:Times;font-weight:normal;font-style:normal;font-size:10px">50000</text>
<text x="19.055" y="-241.72" transform="scale(1, -1)"
	style="font-family:Times;font-weight:normal;font-style:normal;font-size:10px">150000</text>
<text x="19.055" y="-374.9" transform="scale(1, -1)"
	style="font-family:Times;font-weight:normal;font-style:normal;font-size:10px">250000</text>
<path d="M51.555,111.74L59.555,111.74" style="fill:none;stroke:#000000;stroke-width:0.5" />
<path d="M51.555,244.92L59.555,244.92" style="fill:none;stroke:#000000;stroke-width:0.5" />
<path d="M51.555,378.1L59.555,378.1" style="fill:none;stroke:#000000;stroke-width:0.5" />
<path d="M55.555,178.33L59.555,178.33" style="fill:none;stroke:#000000;stroke-width:0.5" />
<path d="M55.555,311.51L59.555,311.51" style="fill:none;stroke:#000000;stroke-width:0.5" />
<path d="M59.555,45.151L59.555,416.58" style="fill:none;stroke:#000000;stroke-width:0.5" />
<path d="M65.305,416.58L104.93,59.711L110.1,59.46L111.82,77.927L113.55,48.911L115.27,64.733L118.71,65.228L120.44,63.325L122.16,55.378L123.88,71.797L125.61,65.254L127.33,48.874L130.77,48.948L132.5,70.046L134.22,48.59L135.94,115.59L137.67,52.5L139.39,88.686L141.11,59.727L144.56,48.806L149.73,45.542L151.45,85.802L153.17,49.043L154.89,45.954L156.62,60.338L158.34,61.402L160.06,50.6L161.79,47.326L163.51,47.268L165.23,48.393L166.95,51.287L168.68,68.101L170.4,56.4L172.12,71.969L173.85,51.641L175.57,49.737L177.29,48.425L179.01,51.05L180.74,51.308L182.46,54.181L184.18,50.186L185.91,54.092L187.63,49.044L189.35,51.583L191.08,53.612L192.8,57.713L194.52,53.382L196.24,52.752L197.97,54.188L199.69,49.719L201.41,49.685L203.14,59.46L204.86,50.355L206.58,56.289L208.3,50.789L210.03,56.163L211.75,53.475L213.47,49.525L215.2,51.619L216.92,50.067L218.64,52.905L220.36,47.856L222.09,54.101L223.81,49.91L225.53,53.206L227.26,53.784L228.98,51.168L230.7,51.077L232.42,49.981L234.15,47.767L235.87,48.039L237.59,49.209L239.32,52.23L241.04,49.231L242.76,54.635L244.48,51.125L246.21,50.246L247.93,48.923L249.65,48.39L251.38,47.976L253.1,48.558L254.82,48.659L256.54,48.819L258.27,49.758L259.99,49.06L261.71,48.825L263.44,50.038L265.16,48.907L266.88,48.384L268.6,47.923L270.33,47.72L272.05,47.574L273.77,49.299L275.5,48.08L277.22,49.072L278.94,48.437L280.66,47.683L282.39,47.609L284.11,47.475L285.83,47.807L287.56,47.077L289.28,48.358L291,46.963L292.73,47.321L294.45,47.352L296.17,47.948L297.89,47.523L299.62,47.515L301.34,47.429L303.06,47.089L304.79,46.875L306.51,47.051L308.23,46.8L309.95,47.462L311.68,46.807L313.4,47.237L315.12,46.816L316.85,46.873L318.57,46.755L320.29,46.483L322.01,46.47L323.74,46.413L325.46,46.429L327.18,46.25L328.91,46.478L330.63,46.608L332.35,46.45L334.07,46.556L335.8,46.422L337.52,46.233L339.24,46.105L340.97,46.065L342.69,46.018L344.41,46.081L346.13,46.156L347.86,46.196L349.58,46.297L351.3,46.014L353.03,46.02L354.75,45.944L356.47,45.95L358.19,45.767L359.92,45.96L361.64,45.768L363.36,45.863L365.09,45.845L366.81,45.873L368.53,45.824L370.25,45.837L371.98,45.769L373.7,45.681L375.42,45.657L377.15,45.68L378.87,45.572L380.59,45.741L382.32,45.676L384.04,45.647L385.76,45.608L387.48,45.562L389.21,45.588L390.93,45.539L392.65,45.558L394.38,45.51L396.1,45.514L397.82,45.482L399.54,45.468L401.27,45.478L402.99,45.48L404.71,45.442L406.44,45.47L408.16,45.432L409.88,45.402L411.6,45.43L413.33,45.386L415.05,45.392L416.77,45.416L418.5,45.391L420.22,45.392L421.94,45.399L423.66,45.346L425.39,45.346L427.11,45.366L428.83,45.334L430.56,45.318L432.28,45.299L434,45.315L435.72,45.334L437.45,45.331L439.17,45.295L440.89,45.307L442.62,45.297L444.34,45.275L446.06,45.245L447.78,45.241L449.51,45.234L451.23,45.275L452.95,45.266L454.68,45.261L456.4,45.241L458.12,45.237L459.84,45.241L461.57,45.23L463.29,45.237L465.01,45.23L466.74,45.234L468.46,45.223L470.18,45.242L471.9,45.234L473.63,45.217L475.35,45.218L477.07,45.213L478.8,45.207L480.52,45.205L482.24,45.211L483.97,45.21L485.69,45.195L487.41,45.198L489.13,45.191L490.86,45.207L492.58,45.19L494.3,45.202L496.03,45.183L497.75,45.185L499.47,45.186L501.19,45.181L502.92,45.186L504.64,45.179L506.36,45.187L508.09,45.187L509.81,45.175L511.53,45.183L513.25,45.171L514.98,45.171L516.7,45.167L518.42,45.17L520.15,45.177L521.87,45.175L523.59,45.179L525.31,45.161L527.04,45.178L528.76,45.163L530.48,45.167L532.21,45.166L533.93,45.166L535.65,45.167L537.37,45.158L539.1,45.161L540.82,45.173L542.54,45.159L544.27,45.163L545.99,45.169L547.71,45.161L549.43,45.159L551.16,45.158L552.88,45.157L554.6,45.166L556.33,45.158L558.05,45.153L559.77,45.158L561.49,45.155L563.22,45.157L564.94,45.154L566.66,45.154L568.39,45.155L570.11,45.159L571.83,45.157L573.55,45.154L575.28,45.151L577,45.153L578.72,45.158L580.45,45.158L582.17,45.153L585.62,45.153L587.34,45.155L589.06,45.154L590.78,45.157L592.51,45.151L594.23,45.153L595.95,45.154L597.68,45.153L599.4,45.151L602.84,45.151L604.57,45.151L609.74,45.153L613.18,45.151L614.9,45.155L618.35,45.153L620.07,45.151L625.24,45.154L626.96,45.153L630.41,45.153L635.58,45.151L637.3,45.153L640.75,45.151L644.19,45.151L671.76,45.153L682.1,45.151L692.43,45.151L711.39,45.151L720,45.151" style="fill:none;stroke:#0000FF" />
</g>
</svg>
