<?xml version="1.0"?>
<!-- Generated by SVGo and Plotinum VG -->
<svg width="720pt" height="432pt" viewBox="0 0 720 432"
	xmlns="http://www.w3.org/2000/svg"
	xmlns:xlink="http://www.w3.org/1999/xlink">
<g transform="scale(1, -1) translate(0, -432)">
<path d="M0,0L720,0L720,432L0,432Z" style="fill:#FFFFFF" />
<text x="358.5" y="-420.45" transform="scale(1, -1)"
	style="font-family:Times;font-weight:normal;font-style:normal;font-size:12px"> </text>
<text x="379.31" y="-3.8613" transform="scale(1, -1)"
	style="font-family:Times;font-weight:normal;font-style:normal;font-size:12px">Costs</text>
<text x="62.805" y="-18.634" transform="scale(1, -1)"
	style="font-family:Times;font-weight:normal;font-style:normal;font-size:10px">0</text>
<text x="330.59" y="-18.634" transform="scale(1, -1)"
	style="font-family:Times;font-weight:normal;font-style:normal;font-size:10px">200</text>
<text x="603.38" y="-18.634" transform="scale(1, -1)"
	style="font-family:Times;font-weight:normal;font-style:normal;font-size:10px">400</text>
<path d="M65.305,28.263L65.305,36.263" style="fill:none;stroke:#000000;stroke-width:0.5" />
<path d="M338.09,28.263L338.09,36.263" style="fill:none;stroke:#000000;stroke-width:0.5" />
<path d="M610.88,28.263L610.88,36.263" style="fill:none;stroke:#000000;stroke-width:0.5" />
<path d="M201.7,32.263L201.7,36.263" style="fill:none;stroke:#000000;stroke-width:0.5" />
<path d="M474.49,32.263L474.49,36.263" style="fill:none;stroke:#000000;stroke-width:0.5" />
<path d="M65.305,36.263L720,36.263" style="fill:none;stroke:#000000;stroke-width:0.5" />
<g transform="rotate(90)">
<text x="152.55" y="11.555" transform="scale(1, -1)"
	style="font-family:Times;font-weight:normal;font-style:normal;font-size:12px">Number of trials (1000000 total)</text>
</g>
<text x="24.055" y="-112.38" transform="scale(1, -1)"
	style="font-family:Times;font-weight:normal;font-style:normal;font-size:10px">50000</text>
<text x="19.055" y="-253.25" transform="scale(1, -1)"
	style="font-family:Times;font-weight:normal;font-style:normal;font-size:10px">150000</text>
<text x="19.055" y="-394.12" transform="scale(1, -1)"
	style="font-family:Times;font-weight:normal;font-style:normal;font-size:10px">250000</text>
<path d="M51.555,115.59L59.555,115.59" style="fill:none;stroke:#000000;stroke-width:0.5" />
<path d="M51.555,256.46L59.555,256.46" style="fill:none;stroke:#000000;stroke-width:0.5" />
<path d="M51.555,397.33L59.555,397.33" style="fill:none;stroke:#000000;stroke-width:0.5" />
<path d="M55.555,186.02L59.555,186.02" style="fill:none;stroke:#000000;stroke-width:0.5" />
<path d="M55.555,326.89L59.555,326.89" style="fill:none;stroke:#000000;stroke-width:0.5" />
<path d="M59.555,45.151L59.555,416.58" style="fill:none;stroke:#000000;stroke-width:0.5" />
<path d="M65.305,416.58L100.77,55.779L102.13,48.429L103.5,51.83L104.86,48.604L107.59,59.364L108.95,70.164L110.31,48.498L111.68,66.255L113.04,55.78L114.41,48.58L115.77,58.947L117.13,48.656L118.5,55.701L119.86,52.005L121.23,51.767L122.59,79.491L123.95,63.166L125.32,88.189L128.05,59.561L130.77,51.981L132.14,59.11L134.87,52.213L136.23,45.208L137.59,144.46L138.96,74.021L140.32,45.327L141.69,52.181L143.05,45.608L144.41,49.356L145.78,52.737L147.14,49.904L148.51,59.73L149.87,67.741L151.23,50.479L152.6,46.002L153.96,46.78L155.33,47.245L156.69,50.096L158.05,47.428L159.42,47.856L160.78,48.208L162.15,55.194L163.51,47.891L164.87,55.546L166.24,49.569L167.6,49.428L168.96,51.179L170.33,48.741L171.69,49.955L173.06,51.416L174.42,57.318L175.78,65.647L177.15,49.338L178.51,49.637L179.88,52.108L181.24,56.794L182.6,53.333L183.97,54.614L185.33,54.719L186.7,48.876L188.06,53.078L189.42,49.98L190.79,50.992L192.15,52.782L193.52,50.621L194.88,58.026L196.24,54.922L197.61,59.901L198.97,50.599L200.34,51.478L201.7,48.949L203.06,49.327L204.43,52.357L205.79,49.799L207.16,51.313L208.52,50.679L209.88,58.302L211.25,55.264L212.61,48.048L213.98,48.903L215.34,48.179L216.7,48.773L218.07,49.785L219.43,50.017L220.79,51.279L222.16,55.29L223.52,49.945L224.89,48.47L226.25,47.817L227.61,47.743L228.98,48.937L230.34,48.122L231.71,48.703L233.07,49.569L234.43,50.871L235.8,49.413L237.16,49.285L238.53,48.745L239.89,47.641L241.25,48.763L242.62,48.143L243.98,47.81L245.35,48.449L246.71,49.94L248.07,52.478L249.44,48.949L250.8,47.595L252.17,48.022L253.53,48.476L254.89,48.755L256.26,48.405L257.62,48.83L258.99,48.249L260.35,48.579L261.71,47.831L263.08,47.274L264.44,47.958L265.81,47.718L267.17,48.387L268.53,48.169L269.9,48.086L271.26,47.81L272.62,47.464L273.99,47.105L275.35,47.264L276.72,47.433L278.08,47.388L279.44,47.61L280.81,47.505L282.17,47.612L283.54,47.597L284.9,47.133L286.26,46.764L287.63,46.808L288.99,46.838L290.36,47.001L291.72,47.122L293.08,47.126L294.45,47.515L295.81,46.942L297.18,46.68L298.54,46.426L299.9,46.377L301.27,46.671L302.63,46.495L304,46.67L305.36,46.96L306.72,46.869L308.09,46.771L309.45,46.449L310.82,46.366L312.18,46.115L313.54,46.328L314.91,46.38L316.27,46.247L317.64,46.329L319,46.509L320.36,46.67L321.73,46.473L323.09,45.994L324.45,46.039L325.82,46.059L327.18,46.146L328.55,46.104L329.91,46.06L331.27,46.218L332.64,46.195L334,45.994L335.37,45.88L336.73,45.901L338.09,45.916L339.46,46.015L340.82,45.916L342.19,45.921L343.55,45.839L344.91,45.875L346.28,45.804L347.64,45.76L349.01,45.773L350.37,45.709L351.73,45.846L353.1,45.767L354.46,45.728L355.83,45.668L357.19,45.78L358.55,45.654L359.92,45.606L361.28,45.605L362.65,45.643L364.01,45.616L365.37,45.618L366.74,45.656L368.1,45.623L369.47,45.558L370.83,45.563L372.19,45.537L373.56,45.495L374.92,45.537L376.28,45.57L377.65,45.53L379.01,45.533L380.38,45.481L381.74,45.457L383.1,45.439L384.47,45.468L385.83,45.447L387.2,45.45L388.56,45.43L389.92,45.425L391.29,45.467L392.65,45.429L394.02,45.389L395.38,45.38L396.74,45.381L398.11,45.408L399.47,45.374L400.84,45.364L402.2,45.371L403.56,45.363L404.93,45.388L406.29,45.336L407.66,45.315L409.02,45.33L410.38,45.285L411.75,45.287L413.11,45.292L414.48,45.332L415.84,45.298L417.2,45.292L418.57,45.319L419.93,45.265L421.3,45.281L422.66,45.285L424.02,45.289L425.39,45.274L426.75,45.267L428.12,45.265L429.48,45.26L430.84,45.251L432.21,45.263L433.57,45.24L434.93,45.242L436.3,45.249L437.66,45.253L439.03,45.208L440.39,45.239L441.75,45.205L443.12,45.239L444.48,45.237L445.85,45.219L447.21,45.232L448.57,45.225L449.94,45.209L451.3,45.226L452.67,45.205L454.03,45.209L455.39,45.201L456.76,45.203L458.12,45.198L459.49,45.216L460.85,45.216L462.21,45.215L463.58,45.212L464.94,45.206L466.31,45.192L467.67,45.198L469.03,45.198L470.4,45.189L471.76,45.187L473.13,45.195L474.49,45.174L475.85,45.184L477.22,45.189L478.58,45.178L479.95,45.181L481.31,45.178L482.67,45.185L484.04,45.17L485.4,45.18L486.76,45.178L488.13,45.172L489.49,45.182L490.86,45.174L492.22,45.18L493.58,45.177L494.95,45.171L496.31,45.167L497.68,45.163L499.04,45.168L500.4,45.17L501.77,45.165L503.13,45.165L504.5,45.168L505.86,45.157L507.22,45.172L508.59,45.168L509.95,45.174L511.32,45.158L512.68,45.163L514.04,45.164L515.41,45.172L516.77,45.158L518.14,45.168L519.5,45.158L520.86,45.164L522.23,45.158L523.59,45.158L524.96,45.161L526.32,45.16L527.68,45.156L529.05,45.157L530.41,45.154L531.78,45.164L533.14,45.161L534.5,45.161L535.87,45.158L537.23,45.153L538.59,45.161L539.96,45.163L541.32,45.151L542.69,45.156L544.05,45.157L545.41,45.157L546.78,45.154L548.14,45.157L549.51,45.157L550.87,45.154L552.23,45.151L553.6,45.161L554.96,45.156L556.33,45.154L557.69,45.151L559.05,45.153L561.78,45.153L564.51,45.157L565.87,45.153L567.24,45.151L568.6,45.151L569.97,45.154L574.06,45.151L575.42,45.153L576.79,45.153L579.51,45.151L583.61,45.151L584.97,45.151L587.7,45.151L589.06,45.153L590.42,45.156L594.52,45.151L595.88,45.151L597.24,45.151L598.61,45.153L601.34,45.153L608.16,45.151L609.52,45.153L612.25,45.151L613.61,45.154L616.34,45.153L635.44,45.151L640.89,45.151L646.35,45.151L654.53,45.151L659.99,45.151L720,45.151" style="fill:none;stroke:#0000FF" />
</g>
</svg>
