<?xml version="1.0"?>
<!-- Generated by SVGo and Plotinum VG -->
<svg width="720pt" height="432pt" viewBox="0 0 720 432"
	xmlns="http://www.w3.org/2000/svg"
	xmlns:xlink="http://www.w3.org/1999/xlink">
<g transform="scale(1, -1) translate(0, -432)">
<path d="M0,0L720,0L720,432L0,432Z" style="fill:#FFFFFF" />
<text x="358.5" y="-420.45" transform="scale(1, -1)"
	style="font-family:Times;font-weight:normal;font-style:normal;font-size:12px"> </text>
<text x="379.31" y="-3.8613" transform="scale(1, -1)"
	style="font-family:Times;font-weight:normal;font-style:normal;font-size:12px">Costs</text>
<text x="62.805" y="-18.634" transform="scale(1, -1)"
	style="font-family:Times;font-weight:normal;font-style:normal;font-size:10px">0</text>
<text x="330.03" y="-18.634" transform="scale(1, -1)"
	style="font-family:Times;font-weight:normal;font-style:normal;font-size:10px">200</text>
<text x="602.25" y="-18.634" transform="scale(1, -1)"
	style="font-family:Times;font-weight:normal;font-style:normal;font-size:10px">400</text>
<path d="M65.305,28.263L65.305,36.263" style="fill:none;stroke:#000000;stroke-width:0.5" />
<path d="M337.53,28.263L337.53,36.263" style="fill:none;stroke:#000000;stroke-width:0.5" />
<path d="M609.75,28.263L609.75,36.263" style="fill:none;stroke:#000000;stroke-width:0.5" />
<path d="M201.42,32.263L201.42,36.263" style="fill:none;stroke:#000000;stroke-width:0.5" />
<path d="M473.64,32.263L473.64,36.263" style="fill:none;stroke:#000000;stroke-width:0.5" />
<path d="M65.305,36.263L720,36.263" style="fill:none;stroke:#000000;stroke-width:0.5" />
<g transform="rotate(90)">
<text x="152.55" y="11.555" transform="scale(1, -1)"
	style="font-family:Times;font-weight:normal;font-style:normal;font-size:12px">Number of trials (1000000 total)</text>
</g>
<text x="24.055" y="-91.486" transform="scale(1, -1)"
	style="font-family:Times;font-weight:normal;font-style:normal;font-size:10px">20000</text>
<text x="24.055" y="-240.11" transform="scale(1, -1)"
	style="font-family:Times;font-weight:normal;font-style:normal;font-size:10px">80000</text>
<text x="19.055" y="-388.74" transform="scale(1, -1)"
	style="font-family:Times;font-weight:normal;font-style:normal;font-size:10px">140000</text>
<path d="M51.555,94.691L59.555,94.691" style="fill:none;stroke:#000000;stroke-width:0.5" />
<path d="M51.555,243.32L59.555,243.32" style="fill:none;stroke:#000000;stroke-width:0.5" />
<path d="M51.555,391.95L59.555,391.95" style="fill:none;stroke:#000000;stroke-width:0.5" />
<path d="M55.555,169.01L59.555,169.01" style="fill:none;stroke:#000000;stroke-width:0.5" />
<path d="M55.555,317.63L59.555,317.63" style="fill:none;stroke:#000000;stroke-width:0.5" />
<path d="M59.555,45.151L59.555,416.58" style="fill:none;stroke:#000000;stroke-width:0.5" />
<path d="M65.305,416.58L96.61,48.756L100.69,51.889L102.05,48.5L103.42,52.134L104.78,62.841L107.5,69.105L108.86,86.658L110.22,48.713L111.58,97.287L112.94,52.07L114.3,70.349L115.67,48.622L117.03,55.335L118.39,51.874L119.75,81.02L121.11,61.991L122.47,62.196L123.83,89.878L125.19,96.24L126.55,55.454L127.92,55.91L130.64,48.785L132,85.016L133.36,59.459L134.72,48.813L136.08,45.362L137.44,144.8L138.8,68.233L140.17,56.484L141.53,48.659L142.89,57.108L144.25,49.635L145.61,46.184L146.97,48.003L148.33,94.895L149.69,79.987L151.05,72.444L152.42,46.801L153.78,50.678L155.14,52.37L156.5,49.784L157.86,51.471L159.22,50.626L160.58,53.078L161.94,55.275L163.3,55.568L164.67,52.858L166.03,60.083L167.39,57.946L168.75,58.332L170.11,56.573L171.47,59.12L172.83,54.874L174.19,56.838L175.55,68.377L176.92,57.829L178.28,59.442L179.64,63.4L181,67.361L182.36,56.284L183.72,70.054L185.08,57.936L186.44,64.156L187.8,56.695L189.17,55.845L190.53,59.457L191.89,71.124L193.25,62.125L194.61,64.337L195.97,65.147L197.33,71.062L198.69,58.008L200.05,56.905L201.42,51.577L202.78,55.55L204.14,64.225L205.5,59.801L206.86,58.221L208.22,60.205L209.58,67.465L210.94,59.643L212.3,52.905L213.67,51.171L215.03,57.601L216.39,55.892L217.75,53.826L219.11,51.825L220.47,63.646L221.83,62.766L223.19,59.952L224.55,53.673L225.92,53.891L227.28,53.261L228.64,52.355L230,52.821L231.36,53.078L232.72,56.893L234.08,57.535L235.44,56.209L236.8,53.031L238.17,54.706L239.53,54.128L240.89,53.97L242.25,54.131L243.61,54.349L244.97,53.2L246.33,53.898L247.69,56.14L249.05,54.428L250.42,55.023L251.78,55.246L253.14,55.275L254.5,53.539L255.86,54.042L257.22,53.056L258.58,55.241L259.94,53.762L261.3,53.507L262.67,53.368L264.03,55.419L265.39,53.675L266.75,54.339L268.11,53.281L269.47,53.997L270.83,52.325L272.19,51.768L273.55,50.874L274.92,51.906L276.28,53.029L277.64,52.578L279,52.09L280.36,52.439L281.72,52.704L283.08,51.599L284.44,50.17L285.8,49.808L287.17,50.792L288.53,51.099L289.89,50.943L291.25,50.123L292.61,51.277L293.97,51.716L295.33,50.579L296.69,49.741L298.05,49.779L299.42,49.553L300.78,49.813L302.14,49.516L303.5,49.375L304.86,50.309L306.22,50.621L307.58,50.064L308.94,49.375L310.31,49.301L311.67,49.137L313.03,49.174L314.39,49.048L315.75,49.092L317.11,49.229L318.47,49.313L319.83,49.182L321.19,49.147L322.56,49.063L323.92,48.931L325.28,48.852L326.64,48.768L328,48.59L329.36,48.349L330.72,48.713L332.08,48.528L333.44,48.627L334.81,48.354L336.17,48.545L337.53,48.369L338.89,48.166L340.25,47.817L341.61,47.951L342.97,48.05L344.33,47.728L345.69,47.643L347.06,47.844L348.42,47.705L349.78,47.576L351.14,47.542L352.5,47.423L353.86,47.507L355.22,47.329L356.58,47.175L357.94,46.994L359.31,47.376L360.67,47.284L362.03,47.17L363.39,47.163L364.75,47.118L366.11,47.227L367.47,46.957L368.83,46.757L370.19,46.67L371.56,46.69L372.92,46.796L374.28,46.7L375.64,46.539L377,46.826L378.36,46.816L379.72,46.687L381.08,46.526L382.44,46.573L383.81,46.501L385.17,46.402L386.53,46.39L387.89,46.477L389.25,46.462L390.61,46.491L391.97,46.415L393.33,46.298L394.69,46.202L396.06,46.274L397.42,46.231L398.78,46.219L400.14,46.207L401.5,46.058L402.86,46.155L404.22,46.122L405.58,46.098L406.94,46.036L408.31,46.001L409.67,46.073L411.03,45.969L412.39,45.976L413.75,45.937L415.11,45.924L416.47,45.86L417.83,45.82L419.19,45.922L420.56,45.845L421.92,45.766L423.28,45.788L424.64,45.786L426,45.766L427.36,45.694L428.72,45.805L430.08,45.709L431.44,45.768L432.81,45.657L434.17,45.768L435.53,45.716L436.89,45.6L438.25,45.558L439.61,45.634L440.97,45.58L442.33,45.612L443.69,45.545L445.06,45.57L446.42,45.577L447.78,45.582L449.14,45.508L450.5,45.488L451.86,45.493L453.22,45.498L454.58,45.461L455.94,45.54L457.31,45.451L458.67,45.404L460.03,45.498L461.39,45.491L462.75,45.444L464.11,45.439L465.47,45.394L466.83,45.431L468.19,45.421L469.56,45.416L470.92,45.387L472.28,45.374L473.64,45.372L475,45.382L476.36,45.364L477.72,45.367L479.08,45.347L480.44,45.35L481.81,45.32L483.17,45.352L484.53,45.327L485.89,45.322L487.25,45.315L488.61,45.302L489.97,45.3L491.33,45.26L492.69,45.283L494.06,45.305L495.42,45.293L496.78,45.31L498.14,45.288L499.5,45.263L500.86,45.295L502.22,45.25L503.58,45.29L504.94,45.3L506.31,45.26L507.67,45.255L509.03,45.241L510.39,45.25L511.75,45.236L513.11,45.253L514.47,45.226L515.83,45.241L517.19,45.245L518.56,45.211L519.92,45.223L521.28,45.223L522.64,45.238L524,45.245L525.36,45.233L526.72,45.233L528.08,45.201L529.44,45.213L530.81,45.221L532.17,45.238L533.53,45.201L534.89,45.226L536.25,45.203L537.61,45.191L538.97,45.193L540.33,45.196L541.69,45.196L543.06,45.193L544.42,45.176L545.78,45.206L547.14,45.201L548.5,45.191L549.86,45.189L551.22,45.189L552.58,45.181L553.94,45.181L555.31,45.184L556.67,45.174L558.03,45.179L559.39,45.184L560.75,45.159L562.11,45.184L563.47,45.169L564.83,45.181L566.19,45.176L567.56,45.181L568.92,45.169L570.28,45.171L571.64,45.184L573,45.184L574.36,45.159L575.72,45.191L577.08,45.171L578.44,45.179L579.81,45.181L581.17,45.164L582.53,45.169L583.89,45.159L585.25,45.176L586.61,45.161L587.97,45.179L589.33,45.156L590.69,45.166L592.06,45.154L593.42,45.166L594.78,45.171L596.14,45.159L597.5,45.151L598.86,45.169L600.22,45.171L601.58,45.161L602.94,45.161L604.31,45.159L605.67,45.164L607.03,45.166L608.39,45.161L611.11,45.151L612.47,45.156L613.83,45.154L615.19,45.159L616.56,45.154L617.92,45.156L619.28,45.164L620.64,45.159L622,45.159L623.36,45.159L624.72,45.154L626.08,45.151L627.44,45.161L628.81,45.159L630.17,45.151L631.53,45.156L632.89,45.159L634.25,45.154L635.61,45.154L636.97,45.151L638.33,45.151L639.69,45.151L642.42,45.151L643.78,45.151L645.14,45.154L646.5,45.154L649.22,45.151L650.58,45.151L651.94,45.159L653.31,45.151L654.67,45.154L658.75,45.164L660.11,45.151L661.47,45.154L662.83,45.154L666.92,45.154L671,45.154L673.72,45.151L675.08,45.151L677.81,45.151L679.17,45.151L685.97,45.151L692.78,45.151L709.11,45.151L711.83,45.151L720,45.151" style="fill:none;stroke:#0000FF" />
</g>
</svg>
