<?xml version="1.0"?>
<!-- Generated by SVGo and Plotinum VG -->
<svg width="720pt" height="432pt" viewBox="0 0 720 432"
	xmlns="http://www.w3.org/2000/svg"
	xmlns:xlink="http://www.w3.org/1999/xlink">
<g transform="scale(1, -1) translate(0, -432)">
<path d="M0,0L720,0L720,432L0,432Z" style="fill:#FFFFFF" />
<text x="358.5" y="-420.45" transform="scale(1, -1)"
	style="font-family:Times;font-weight:normal;font-style:normal;font-size:12px"> </text>
<text x="379.31" y="-3.8613" transform="scale(1, -1)"
	style="font-family:Times;font-weight:normal;font-style:normal;font-size:12px">Costs</text>
<text x="56.555" y="-18.634" transform="scale(1, -1)"
	style="font-family:Times;font-weight:normal;font-style:normal;font-size:10px">0.00</text>
<text x="366.31" y="-18.634" transform="scale(1, -1)"
	style="font-family:Times;font-weight:normal;font-style:normal;font-size:10px">250.00</text>
<text x="681.07" y="-18.634" transform="scale(1, -1)"
	style="font-family:Times;font-weight:normal;font-style:normal;font-size:10px">500.00</text>
<path d="M65.305,28.263L65.305,36.263" style="fill:none;stroke:#000000;stroke-width:0.5" />
<path d="M380.06,28.263L380.06,36.263" style="fill:none;stroke:#000000;stroke-width:0.5" />
<path d="M694.82,28.263L694.82,36.263" style="fill:none;stroke:#000000;stroke-width:0.5" />
<path d="M128.26,32.263L128.26,36.263" style="fill:none;stroke:#000000;stroke-width:0.5" />
<path d="M191.21,32.263L191.21,36.263" style="fill:none;stroke:#000000;stroke-width:0.5" />
<path d="M254.16,32.263L254.16,36.263" style="fill:none;stroke:#000000;stroke-width:0.5" />
<path d="M317.11,32.263L317.11,36.263" style="fill:none;stroke:#000000;stroke-width:0.5" />
<path d="M443.01,32.263L443.01,36.263" style="fill:none;stroke:#000000;stroke-width:0.5" />
<path d="M505.96,32.263L505.96,36.263" style="fill:none;stroke:#000000;stroke-width:0.5" />
<path d="M568.92,32.263L568.92,36.263" style="fill:none;stroke:#000000;stroke-width:0.5" />
<path d="M631.87,32.263L631.87,36.263" style="fill:none;stroke:#000000;stroke-width:0.5" />
<path d="M65.305,36.263L720,36.263" style="fill:none;stroke:#000000;stroke-width:0.5" />
<g transform="rotate(90)">
<text x="152.55" y="11.555" transform="scale(1, -1)"
	style="font-family:Times;font-weight:normal;font-style:normal;font-size:12px">Number of trials (1000000 total)</text>
</g>
<text x="24.055" y="-110.36" transform="scale(1, -1)"
	style="font-family:Times;font-weight:normal;font-style:normal;font-size:10px">30000</text>
<text x="24.055" y="-247.2" transform="scale(1, -1)"
	style="font-family:Times;font-weight:normal;font-style:normal;font-size:10px">90000</text>
<text x="19.055" y="-384.04" transform="scale(1, -1)"
	style="font-family:Times;font-weight:normal;font-style:normal;font-size:10px">150000</text>
<path d="M51.555,113.57L59.555,113.57" style="fill:none;stroke:#000000;stroke-width:0.5" />
<path d="M51.555,250.41L59.555,250.41" style="fill:none;stroke:#000000;stroke-width:0.5" />
<path d="M51.555,387.25L59.555,387.25" style="fill:none;stroke:#000000;stroke-width:0.5" />
<path d="M55.555,181.99L59.555,181.99" style="fill:none;stroke:#000000;stroke-width:0.5" />
<path d="M55.555,318.83L59.555,318.83" style="fill:none;stroke:#000000;stroke-width:0.5" />
<path d="M59.555,45.151L59.555,416.58" style="fill:none;stroke:#000000;stroke-width:0.5" />
<path d="M65.305,416.58L94.262,59.412L95.521,48.447L98.039,69.618L99.298,62.831L100.56,69.947L101.82,81.063L103.08,52.048L104.33,48.522L106.85,62.774L108.11,69.956L109.37,62.685L111.89,77.021L113.15,73.523L114.41,58.899L115.67,52.103L116.92,58.696L118.18,55.316L119.44,94.697L120.7,80.981L121.96,62.989L123.22,66.706L124.48,45.302L125.74,55.845L127,62.918L128.26,64.003L129.52,53.104L130.77,47.263L132.03,93.043L133.29,60.674L134.55,48.502L135.81,70.243L137.07,49.152L138.33,50.967L139.59,54.144L140.85,56.204L142.11,53.476L143.36,60.79L144.62,69.609L145.88,51.188L147.14,50.682L148.4,53.558L149.66,71.744L150.92,51.289L152.18,53.163L153.44,54.137L154.7,59.729L155.95,59.501L157.21,73.096L158.47,63.869L159.73,53.994L160.99,55.273L162.25,70.994L163.51,56.375L164.77,57.811L166.03,61.032L167.29,76.554L168.55,60.929L169.8,57.684L171.06,55.268L172.32,54.735L173.58,56.728L174.84,60.384L176.1,57.649L177.36,56.869L178.62,57.752L179.88,58.263L181.14,55.891L182.39,56.749L183.65,56.356L184.91,54.279L186.17,60.16L187.43,59.114L188.69,54.352L189.95,57.403L191.21,57.107L192.47,56.083L193.73,57.013L194.98,55.923L196.24,56.295L197.5,55.67L198.76,58.774L200.02,56.906L201.28,54.673L202.54,56.694L203.8,57.517L205.06,56.313L206.32,55.198L207.58,53.407L208.83,54.431L210.09,55.982L211.35,58.359L212.61,55.788L213.87,55.316L215.13,54.913L216.39,56.19L217.65,53.964L218.91,53.82L220.17,55.141L221.42,55.232L222.68,54.491L223.94,55.563L225.2,54.897L226.46,51.943L227.72,53.204L228.98,55.371L230.24,52.947L231.5,51.98L232.76,53.307L234.01,54.386L235.27,52.887L236.53,52.828L237.79,53.054L239.05,51.717L240.31,51.925L241.57,53.483L242.83,52.032L244.09,51.517L245.35,51.79L246.6,53.273L247.86,51.574L249.12,51.357L250.38,51.752L251.64,51.793L252.9,51.161L254.16,51.779L255.42,51.115L256.68,51.257L257.94,51.227L259.2,51.494L260.45,51.323L261.71,50.636L262.97,50.76L264.23,51.341L265.49,50.917L266.75,50.725L268.01,50.568L269.27,50.196L270.53,50.342L271.79,50.256L273.04,49.788L274.3,49.77L275.56,49.852L276.82,49.9L278.08,49.909L279.34,49.834L280.6,49.446L281.86,49.357L283.12,49.596L284.38,49.384L285.63,49.01L286.89,49.127L288.15,49.325L289.41,49.149L290.67,49.129L291.93,49.065L293.19,48.835L294.45,48.629L295.71,48.867L296.97,48.666L298.23,48.372L299.48,48.575L300.74,48.529L302,48.203L303.26,48.331L304.52,48.221L305.78,47.995L307.04,48.02L308.3,47.904L309.56,47.982L310.82,47.822L312.07,48.018L313.33,48.112L314.59,47.838L315.85,47.815L317.11,47.733L318.37,47.653L319.63,47.48L320.89,47.542L322.15,47.526L323.41,47.218L324.66,47.402L325.92,47.535L327.18,47.441L328.44,47.138L329.7,47.186L330.96,47.202L332.22,47.129L333.48,47.104L334.74,47.076L336,47.024L337.26,46.933L338.51,46.907L339.77,46.887L341.03,46.768L342.29,46.777L343.55,46.839L344.81,46.577L346.07,46.695L347.33,46.593L348.59,46.597L349.85,46.597L351.1,46.579L352.36,46.488L353.62,46.419L354.88,46.399L356.14,46.442L357.4,46.451L358.66,46.445L359.92,46.278L361.18,46.226L362.44,46.324L363.69,46.283L364.95,46.178L366.21,46.198L367.47,46.18L368.73,46.237L369.99,46.102L371.25,46.171L372.51,46.148L373.77,45.991L375.03,46.027L376.28,46.045L377.54,46.034L378.8,45.975L380.06,46.02L381.32,46.02L382.58,45.95L383.84,45.915L385.1,45.865L386.36,45.788L387.62,45.865L388.88,45.89L390.13,45.788L391.39,45.836L392.65,45.84L393.91,45.756L395.17,45.703L396.43,45.733L397.69,45.753L398.95,45.758L400.21,45.71L401.47,45.646L402.72,45.612L403.98,45.655L405.24,45.628L406.5,45.601L407.76,45.598L409.02,45.605L410.28,45.619L411.54,45.532L412.8,45.546L414.06,45.491L415.31,45.514L416.57,45.512L417.83,45.496L419.09,45.507L420.35,45.491L421.61,45.503L422.87,45.452L424.13,45.493L425.39,45.45L426.65,45.509L427.91,45.42L429.16,45.434L430.42,45.427L431.68,45.411L432.94,45.407L434.2,45.391L435.46,45.405L436.72,45.391L437.98,45.37L439.24,45.418L440.5,45.395L441.75,45.338L443.01,45.345L444.27,45.389L445.53,45.439L446.79,45.327L448.05,45.341L449.31,45.343L450.57,45.318L451.83,45.32L453.09,45.327L454.34,45.318L455.6,45.322L456.86,45.297L458.12,45.309L459.38,45.297L460.64,45.304L461.9,45.261L463.16,45.27L464.42,45.29L465.68,45.272L466.94,45.27L468.19,45.231L469.45,45.249L470.71,45.259L471.97,45.261L473.23,45.277L474.49,45.243L475.75,45.24L477.01,45.256L478.27,45.236L479.53,45.24L480.78,45.211L482.04,45.231L483.3,45.236L484.56,45.238L485.82,45.238L487.08,45.231L488.34,45.218L489.6,45.24L490.86,45.22L492.12,45.213L493.37,45.208L494.63,45.204L495.89,45.208L497.15,45.215L498.41,45.197L499.67,45.195L500.93,45.199L502.19,45.199L503.45,45.195L504.71,45.229L505.96,45.188L507.22,45.183L508.48,45.204L509.74,45.192L511,45.19L512.26,45.186L513.52,45.19L514.78,45.179L516.04,45.202L517.3,45.195L518.56,45.183L519.81,45.188L521.07,45.172L522.33,45.186L523.59,45.17L524.85,45.188L526.11,45.172L527.37,45.186L528.63,45.176L529.89,45.174L531.15,45.174L532.4,45.158L533.66,45.17L534.92,45.163L536.18,45.179L537.44,45.165L538.7,45.17L539.96,45.165L541.22,45.163L542.48,45.174L543.74,45.181L544.99,45.165L546.25,45.156L547.51,45.158L548.77,45.167L550.03,45.163L551.29,45.16L552.55,45.165L553.81,45.16L555.07,45.163L556.33,45.163L557.59,45.16L558.84,45.16L560.1,45.16L561.36,45.16L562.62,45.163L563.88,45.163L565.14,45.156L566.4,45.163L567.66,45.156L568.92,45.163L570.18,45.167L571.43,45.156L572.69,45.156L573.95,45.16L575.21,45.158L576.47,45.156L577.73,45.156L578.99,45.16L581.51,45.158L582.77,45.154L584.02,45.165L585.28,45.158L586.54,45.16L587.8,45.154L589.06,45.156L590.32,45.154L591.58,45.156L592.84,45.158L594.1,45.154L595.36,45.154L597.87,45.156L601.65,45.158L602.91,45.151L604.17,45.154L605.43,45.154L606.69,45.151L609.21,45.151L611.72,45.154L612.98,45.156L614.24,45.151L616.76,45.151L618.02,45.151L621.8,45.151L624.31,45.151L626.83,45.151L628.09,45.151L630.61,45.151L635.65,45.151L636.9,45.151L638.16,45.151L648.24,45.151L649.49,45.151L650.75,45.154L660.83,45.151L673.42,45.151L678.45,45.151L684.75,45.151L691.04,45.151L706.15,45.151L720,45.151" style="fill:none;stroke:#0000FF" />
</g>
</svg>
