<?xml version="1.0"?>
<!-- Generated by SVGo and Plotinum VG -->
<svg width="720pt" height="432pt" viewBox="0 0 720 432"
	xmlns="http://www.w3.org/2000/svg"
	xmlns:xlink="http://www.w3.org/1999/xlink">
<g transform="scale(1, -1) translate(0, -432)">
<path d="M0,0L720,0L720,432L0,432Z" style="fill:#FFFFFF" />
<text x="358.5" y="-420.45" transform="scale(1, -1)"
	style="font-family:Times;font-weight:normal;font-style:normal;font-size:12px"> </text>
<text x="379.31" y="-3.8613" transform="scale(1, -1)"
	style="font-family:Times;font-weight:normal;font-style:normal;font-size:12px">Costs</text>
<text x="62.805" y="-18.634" transform="scale(1, -1)"
	style="font-family:Times;font-weight:normal;font-style:normal;font-size:10px">0</text>
<text x="341.84" y="-18.634" transform="scale(1, -1)"
	style="font-family:Times;font-weight:normal;font-style:normal;font-size:10px">200</text>
<text x="625.87" y="-18.634" transform="scale(1, -1)"
	style="font-family:Times;font-weight:normal;font-style:normal;font-size:10px">400</text>
<path d="M65.305,28.263L65.305,36.263" style="fill:none;stroke:#000000;stroke-width:0.5" />
<path d="M349.34,28.263L349.34,36.263" style="fill:none;stroke:#000000;stroke-width:0.5" />
<path d="M633.37,28.263L633.37,36.263" style="fill:none;stroke:#000000;stroke-width:0.5" />
<path d="M207.32,32.263L207.32,36.263" style="fill:none;stroke:#000000;stroke-width:0.5" />
<path d="M491.35,32.263L491.35,36.263" style="fill:none;stroke:#000000;stroke-width:0.5" />
<path d="M65.305,36.263L720,36.263" style="fill:none;stroke:#000000;stroke-width:0.5" />
<g transform="rotate(90)">
<text x="152.55" y="11.555" transform="scale(1, -1)"
	style="font-family:Times;font-weight:normal;font-style:normal;font-size:12px">Number of trials (1000000 total)</text>
</g>
<text x="24.055" y="-113.85" transform="scale(1, -1)"
	style="font-family:Times;font-weight:normal;font-style:normal;font-size:10px">40000</text>
<text x="19.055" y="-257.67" transform="scale(1, -1)"
	style="font-family:Times;font-weight:normal;font-style:normal;font-size:10px">120000</text>
<text x="19.055" y="-401.49" transform="scale(1, -1)"
	style="font-family:Times;font-weight:normal;font-style:normal;font-size:10px">200000</text>
<path d="M51.555,117.06L59.555,117.06" style="fill:none;stroke:#000000;stroke-width:0.5" />
<path d="M51.555,260.88L59.555,260.88" style="fill:none;stroke:#000000;stroke-width:0.5" />
<path d="M51.555,404.7L59.555,404.7" style="fill:none;stroke:#000000;stroke-width:0.5" />
<path d="M55.555,188.97L59.555,188.97" style="fill:none;stroke:#000000;stroke-width:0.5" />
<path d="M55.555,332.79L59.555,332.79" style="fill:none;stroke:#000000;stroke-width:0.5" />
<path d="M59.555,45.151L59.555,416.58" style="fill:none;stroke:#000000;stroke-width:0.5" />
<path d="M65.305,416.58L97.968,48.459L99.389,59.821L102.23,55.447L105.07,51.977L106.49,59.283L109.33,59.096L110.75,113.72L113.59,70.886L115.01,48.502L116.43,48.704L119.27,66.802L120.69,75.001L122.11,88.54L123.53,89.248L124.95,85.845L126.37,58.692L127.79,59.632L130.63,59.35L132.05,45.29L133.47,48.58L134.89,59.904L136.31,52.617L137.73,62.931L139.15,45.541L140.57,91.24L141.99,48.74L143.41,46.825L144.83,61.939L146.25,75.22L147.67,48.22L149.09,45.568L150.51,47.781L151.93,54.872L153.35,60.997L154.77,68.535L156.2,52.421L157.62,49.067L159.04,53.117L160.46,52.731L161.88,49.381L163.3,49.124L164.72,53.498L166.14,79.9L167.56,57.784L168.98,58.036L170.4,57.516L171.82,53.906L173.24,52.242L174.66,65.854L176.08,53.096L177.5,53.592L178.92,55.643L180.34,59.402L181.76,57.398L183.18,57.802L184.6,52.114L186.02,61.29L187.44,51.634L188.86,53.525L190.28,53.31L191.7,56.238L193.12,51.907L194.54,56.048L195.96,54.503L197.38,56.209L198.8,57.011L200.22,60.673L201.64,53.452L203.06,56.154L204.48,51.974L205.9,53.82L207.32,51.4L208.74,52.305L210.16,53.994L211.58,58.785L213,53.425L214.42,53.362L215.84,52.921L217.26,50.527L218.68,50.048L220.1,54.796L221.52,53.646L222.94,53.344L224.36,52.641L225.78,54.203L227.2,51.42L228.62,52.558L230.04,52.166L231.46,52.267L232.88,51.1L234.3,52.387L235.72,52.283L237.14,50.187L238.56,50.223L239.98,50.798L241.4,53.182L242.83,50.604L244.25,50.232L245.67,51.395L247.09,51.956L248.51,50.002L249.93,50.732L251.35,49.52L252.77,49.806L254.19,50.899L255.61,52.479L257.03,50.18L258.45,49.806L259.87,49.75L261.29,50.068L262.71,49.511L264.13,49.462L265.55,49.159L266.97,49.674L268.39,49.466L269.81,49.757L271.23,49.319L272.65,48.939L274.07,48.79L275.49,50.133L276.91,48.783L278.33,49.06L279.75,49.085L281.17,49.112L282.59,48.571L284.01,48.603L285.43,48.341L286.85,48.921L288.27,48.208L289.69,48.457L291.11,48.402L292.53,48.382L293.95,47.787L295.37,48.319L296.79,47.801L298.21,47.945L299.63,47.855L301.05,48.447L302.47,47.67L303.89,47.81L305.31,47.418L306.73,47.562L308.15,47.409L309.57,47.663L310.99,47.469L312.41,47.663L313.83,47.447L315.25,47.449L316.67,47.131L318.09,47.14L319.51,47.007L320.93,47.321L322.35,47.161L323.77,46.976L325.19,46.962L326.61,46.892L328.03,46.814L329.46,46.812L330.88,46.823L332.3,46.881L333.72,46.777L335.14,46.847L336.56,46.705L337.98,46.67L339.4,46.608L340.82,46.501L342.24,46.453L343.66,46.51L345.08,46.489L346.5,46.43L347.92,46.275L349.34,46.385L350.76,46.442L352.18,46.203L353.6,46.187L355.02,46.284L356.44,46.306L357.86,46.171L359.28,46.106L360.7,46.038L362.12,46.095L363.54,46.081L364.96,46.048L366.38,46.014L367.8,46.02L369.22,46.025L370.64,45.98L372.06,45.899L373.48,45.935L374.9,45.838L376.32,45.885L377.74,45.894L379.16,45.935L380.58,45.795L382,45.845L383.42,45.775L384.84,45.757L386.26,45.701L387.68,45.718L389.1,45.748L390.52,45.752L391.94,45.675L393.36,45.64L394.78,45.626L396.2,45.635L397.62,45.583L399.04,45.608L400.46,45.54L401.88,45.577L403.3,45.574L404.72,45.576L406.14,45.541L407.56,45.525L408.98,45.54L410.4,45.547L411.82,45.538L413.24,45.497L414.66,45.441L416.09,45.482L417.51,45.48L418.93,45.444L420.35,45.43L421.77,45.459L423.19,45.358L424.61,45.407L426.03,45.41L427.45,45.389L428.87,45.394L430.29,45.365L431.71,45.365L433.13,45.335L434.55,45.355L435.97,45.383L437.39,45.333L438.81,45.346L440.23,45.328L441.65,45.32L443.07,45.317L444.49,45.315L445.91,45.319L447.33,45.299L448.75,45.32L450.17,45.288L451.59,45.301L453.01,45.275L454.43,45.31L455.85,45.293L457.27,45.286L458.69,45.254L460.11,45.241L461.53,45.259L462.95,45.257L464.37,45.274L465.79,45.241L467.21,45.263L468.63,45.239L470.05,45.239L471.47,45.234L472.89,45.247L474.31,45.221L475.73,45.216L477.15,45.234L478.57,45.221L479.99,45.234L481.41,45.214L482.83,45.212L484.25,45.22L485.67,45.212L487.09,45.221L488.51,45.202L489.93,45.198L491.35,45.218L492.77,45.22L494.19,45.2L495.61,45.211L497.03,45.189L498.45,45.187L499.87,45.196L501.29,45.205L502.72,45.202L504.14,45.171L505.56,45.205L506.98,45.187L508.4,45.193L509.82,45.195L511.24,45.186L512.66,45.177L514.08,45.169L515.5,45.191L516.92,45.173L518.34,45.173L519.76,45.184L521.18,45.18L522.6,45.168L524.02,45.171L525.44,45.173L526.86,45.162L528.28,45.189L529.7,45.186L531.12,45.164L532.54,45.171L533.96,45.169L535.38,45.177L536.8,45.168L538.22,45.162L539.64,45.159L541.06,45.169L542.48,45.178L543.9,45.175L545.32,45.162L546.74,45.16L548.16,45.169L549.58,45.157L551,45.171L552.42,45.16L553.84,45.157L555.26,45.166L556.68,45.159L558.1,45.157L559.52,45.162L560.94,45.153L562.36,45.157L563.78,45.155L565.2,45.162L566.62,45.159L568.04,45.153L569.46,45.16L570.88,45.157L572.3,45.157L573.72,45.159L575.14,45.157L576.56,45.153L577.98,45.155L579.4,45.151L580.82,45.157L582.24,45.157L583.66,45.16L585.08,45.155L586.5,45.155L587.92,45.153L589.34,45.155L590.77,45.155L593.61,45.153L595.03,45.155L596.45,45.162L597.87,45.153L599.29,45.153L600.71,45.153L602.13,45.153L603.55,45.153L604.97,45.157L606.39,45.153L607.81,45.153L609.23,45.153L610.65,45.151L613.49,45.153L617.75,45.153L619.17,45.153L623.43,45.151L624.85,45.151L626.27,45.153L627.69,45.153L629.11,45.151L630.53,45.151L631.95,45.151L641.89,45.151L646.15,45.151L647.57,45.155L653.25,45.151L663.19,45.151L664.61,45.151L668.87,45.151L677.4,45.151L681.66,45.151L717.16,45.151L720,45.151" style="fill:none;stroke:#0000FF" />
</g>
</svg>
