<?xml version="1.0"?>
<!-- Generated by SVGo and Plotinum VG -->
<svg width="720pt" height="432pt" viewBox="0 0 720 432"
	xmlns="http://www.w3.org/2000/svg"
	xmlns:xlink="http://www.w3.org/1999/xlink">
<g transform="scale(1, -1) translate(0, -432)">
<path d="M0,0L720,0L720,432L0,432Z" style="fill:#FFFFFF" />
<text x="358.5" y="-420.45" transform="scale(1, -1)"
	style="font-family:Times;font-weight:normal;font-style:normal;font-size:12px"> </text>
<text x="376.81" y="-3.8613" transform="scale(1, -1)"
	style="font-family:Times;font-weight:normal;font-style:normal;font-size:12px">Costs</text>
<text x="51.555" y="-18.634" transform="scale(1, -1)"
	style="font-family:Times;font-weight:normal;font-style:normal;font-size:10px">0.00</text>
<text x="330.42" y="-18.634" transform="scale(1, -1)"
	style="font-family:Times;font-weight:normal;font-style:normal;font-size:10px">250.00</text>
<text x="614.28" y="-18.634" transform="scale(1, -1)"
	style="font-family:Times;font-weight:normal;font-style:normal;font-size:10px">500.00</text>
<path d="M60.305,28.263L60.305,36.263" style="fill:none;stroke:#000000;stroke-width:0.5" />
<path d="M344.17,28.263L344.17,36.263" style="fill:none;stroke:#000000;stroke-width:0.5" />
<path d="M628.03,28.263L628.03,36.263" style="fill:none;stroke:#000000;stroke-width:0.5" />
<path d="M117.08,32.263L117.08,36.263" style="fill:none;stroke:#000000;stroke-width:0.5" />
<path d="M173.85,32.263L173.85,36.263" style="fill:none;stroke:#000000;stroke-width:0.5" />
<path d="M230.62,32.263L230.62,36.263" style="fill:none;stroke:#000000;stroke-width:0.5" />
<path d="M287.39,32.263L287.39,36.263" style="fill:none;stroke:#000000;stroke-width:0.5" />
<path d="M400.94,32.263L400.94,36.263" style="fill:none;stroke:#000000;stroke-width:0.5" />
<path d="M457.71,32.263L457.71,36.263" style="fill:none;stroke:#000000;stroke-width:0.5" />
<path d="M514.48,32.263L514.48,36.263" style="fill:none;stroke:#000000;stroke-width:0.5" />
<path d="M571.26,32.263L571.26,36.263" style="fill:none;stroke:#000000;stroke-width:0.5" />
<path d="M684.8,32.263L684.8,36.263" style="fill:none;stroke:#000000;stroke-width:0.5" />
<path d="M60.305,36.263L720,36.263" style="fill:none;stroke:#000000;stroke-width:0.5" />
<g transform="rotate(90)">
<text x="152.55" y="11.555" transform="scale(1, -1)"
	style="font-family:Times;font-weight:normal;font-style:normal;font-size:12px">Number of trials (1000000 total)</text>
</g>
<text x="19.055" y="-84.963" transform="scale(1, -1)"
	style="font-family:Times;font-weight:normal;font-style:normal;font-size:10px">10000</text>
<text x="19.055" y="-214.03" transform="scale(1, -1)"
	style="font-family:Times;font-weight:normal;font-style:normal;font-size:10px">40000</text>
<text x="19.055" y="-343.09" transform="scale(1, -1)"
	style="font-family:Times;font-weight:normal;font-style:normal;font-size:10px">70000</text>
<path d="M46.555,88.169L54.555,88.169" style="fill:none;stroke:#000000;stroke-width:0.5" />
<path d="M46.555,217.23L54.555,217.23" style="fill:none;stroke:#000000;stroke-width:0.5" />
<path d="M46.555,346.3L54.555,346.3" style="fill:none;stroke:#000000;stroke-width:0.5" />
<path d="M50.555,131.19L54.555,131.19" style="fill:none;stroke:#000000;stroke-width:0.5" />
<path d="M50.555,174.21L54.555,174.21" style="fill:none;stroke:#000000;stroke-width:0.5" />
<path d="M50.555,260.26L54.555,260.26" style="fill:none;stroke:#000000;stroke-width:0.5" />
<path d="M50.555,303.28L54.555,303.28" style="fill:none;stroke:#000000;stroke-width:0.5" />
<path d="M50.555,389.32L54.555,389.32" style="fill:none;stroke:#000000;stroke-width:0.5" />
<path d="M54.555,45.151L54.555,416.58" style="fill:none;stroke:#000000;stroke-width:0.5" />
<path d="M60.305,416.58L85.285,48.653L86.42,48.726L89.826,145.96L92.097,55.317L93.233,66.266L95.504,52.168L96.639,62.403L97.774,66.864L98.91,85.123L100.05,119.91L102.32,48.369L103.45,55.451L104.59,157.92L105.72,70.341L107.99,123L109.13,66.641L110.26,128.72L114.81,52.921L115.94,63.251L117.08,45.255L118.21,45.457L119.35,51.695L120.48,104.62L121.62,88.035L122.75,50.972L123.89,91.765L125.03,48.679L126.16,64.602L127.3,51.174L128.43,56.931L129.57,82.043L130.7,82.017L131.84,95.607L132.97,53.308L134.11,78.489L135.24,56.711L136.38,62.528L137.52,79.16L138.65,60.463L139.79,75.138L140.92,57.06L142.06,57.804L143.19,66.529L144.33,76.854L145.46,62.382L146.6,60.588L147.73,72.634L148.87,72.16L150.01,86.616L151.14,92.583L152.28,75.826L153.41,77.805L154.55,77.603L155.68,65.724L156.82,56.901L157.95,69.859L159.09,68.43L160.22,83.226L161.36,71.231L162.5,56.341L163.63,66.52L164.77,73.765L165.9,74.23L167.04,57.645L168.17,80.838L169.31,74.191L170.44,81.221L171.58,77.293L172.71,55.67L173.85,75.099L174.98,65.509L176.12,76.54L177.26,63.943L178.39,63.517L179.53,73.503L180.66,75L181.8,76.303L182.93,58.927L184.07,69.833L185.2,62.855L186.34,62.016L187.47,64.472L188.61,60.695L189.75,68.056L190.88,71.261L192.02,69.734L193.15,68.03L194.29,69.287L195.42,75.705L196.56,63.427L197.69,69.725L198.83,69.631L199.96,68.701L201.1,70.302L202.24,65.225L203.37,63.56L204.51,62.704L205.64,64.52L206.78,61.818L207.91,65.062L209.05,65.458L210.18,65.019L211.32,67.544L212.45,65.174L213.59,66.757L214.73,68.168L215.86,64.997L217,60.364L218.13,63.5L219.27,63.487L220.4,65.853L221.54,67.054L222.67,63.199L223.81,64.008L224.94,63.814L226.08,61.986L227.22,58.991L228.35,61.65L229.49,63.436L230.62,61.392L231.76,62.373L232.89,57.757L234.03,60.256L235.16,61.65L236.3,59.607L237.43,60.381L238.57,59.314L239.71,62.343L240.84,61.87L241.98,60.441L243.11,60.665L244.25,59.052L245.38,60.652L246.52,57.817L247.65,57.826L248.79,57L249.92,58.058L251.06,59.047L252.2,58.445L253.33,57.344L254.47,57.619L255.6,58.393L256.74,56.862L257.87,56.741L259.01,58.11L260.14,57.146L261.28,58.385L262.41,57.146L263.55,56.057L264.69,56.845L265.82,56.26L266.96,55.937L268.09,55.601L269.23,56.079L270.36,55.864L271.5,55.382L272.63,55.489L273.77,54.995L274.9,54.62L276.04,54.388L277.18,54.035L278.31,53.704L279.45,54.057L280.58,53.971L281.72,54.285L282.85,54.027L283.99,54.435L285.12,53.893L286.26,53.506L287.39,53.054L288.53,53.308L289.67,53.192L290.8,52.762L291.94,52.745L293.07,52.362L294.21,52.327L295.34,52.525L296.48,51.523L297.61,51.579L298.75,51.661L299.88,51.962L301.02,51.953L302.16,51.424L303.29,51.665L304.43,51.329L305.56,51.656L306.7,51.368L307.83,50.736L308.97,50.865L310.1,50.714L311.24,50.856L312.37,50.645L313.51,50.495L314.65,50.447L315.78,50.366L316.92,50.271L318.05,49.677L319.19,49.798L320.32,49.948L321.46,49.703L322.59,49.91L323.73,49.342L324.86,49.333L326,49.243L327.13,49.423L328.27,49.157L329.41,49.355L330.54,49.324L331.68,49.148L332.81,49.023L333.95,48.623L335.08,48.675L336.22,48.653L337.35,48.61L338.49,48.455L339.62,48.176L340.76,48.133L341.9,48.249L343.03,48.09L344.17,48.051L345.3,47.987L346.44,48.245L347.57,47.905L348.71,48.111L349.84,47.754L350.98,47.918L352.11,47.672L353.25,47.608L354.39,47.509L355.52,47.457L356.66,47.703L357.79,47.1L358.93,47.251L360.06,47.358L361.2,47.156L362.33,47.371L363.47,47.247L364.6,47.229L365.74,47.036L366.88,47.049L368.01,46.846L369.15,46.898L370.28,46.872L371.42,46.971L372.55,46.868L373.69,46.786L374.82,46.859L375.96,46.92L377.09,46.812L378.23,46.709L379.37,46.606L380.5,46.747L381.64,46.558L382.77,46.339L383.91,46.433L385.04,46.485L386.18,46.438L387.31,46.382L388.45,46.309L389.58,46.317L390.72,46.322L391.86,46.309L392.99,46.137L394.13,46.171L395.26,46.201L396.4,46.188L397.53,45.943L398.67,46.137L399.8,46.076L400.94,46.008L402.07,46.068L403.21,45.964L404.35,45.995L405.48,45.891L406.62,45.887L407.75,45.853L408.89,45.93L410.02,45.835L411.16,45.745L412.29,45.87L413.43,45.788L414.56,45.736L415.7,45.693L416.84,45.857L417.97,45.706L419.11,45.779L420.24,45.642L421.38,45.728L422.51,45.706L423.65,45.698L424.78,45.672L425.92,45.693L427.05,45.586L428.19,45.539L429.33,45.625L430.46,45.655L431.6,45.547L432.73,45.53L433.87,45.638L435,45.543L436.14,45.5L437.27,45.491L438.41,45.539L439.54,45.461L440.68,45.53L441.82,45.483L442.95,45.517L444.09,45.478L445.22,45.414L446.36,45.379L447.49,45.422L448.63,45.47L449.76,45.44L450.9,45.384L452.03,45.431L453.17,45.397L454.31,45.409L455.44,45.427L456.58,45.392L457.71,45.341L458.85,45.379L459.98,45.401L461.12,45.341L462.25,45.366L463.39,45.349L464.52,45.311L465.66,45.354L466.8,45.306L467.93,45.302L469.07,45.276L470.2,45.319L471.34,45.28L472.47,45.323L473.61,45.306L474.74,45.289L475.88,45.28L477.01,45.311L478.15,45.255L479.29,45.237L480.42,45.212L481.56,45.298L482.69,45.272L483.83,45.229L484.96,45.242L486.1,45.229L487.23,45.233L488.37,45.246L489.5,45.22L490.64,45.276L491.77,45.263L492.91,45.246L494.05,45.237L495.18,45.225L496.32,45.237L497.45,45.203L498.59,45.255L499.72,45.225L500.86,45.216L501.99,45.225L503.13,45.207L504.26,45.186L505.4,45.186L506.54,45.19L507.67,45.173L508.81,45.199L509.94,45.203L511.08,45.181L512.21,45.242L513.35,45.164L514.48,45.19L515.62,45.181L516.75,45.181L517.89,45.177L519.03,45.169L520.16,45.173L521.3,45.19L522.43,45.19L523.57,45.164L524.7,45.164L525.84,45.156L526.97,45.169L528.11,45.186L529.24,45.16L530.38,45.177L531.52,45.169L532.65,45.16L533.79,45.156L534.92,45.164L536.06,45.173L537.19,45.151L538.33,45.177L539.46,45.169L540.6,45.16L541.73,45.173L542.87,45.16L544.01,45.169L545.14,45.173L546.28,45.164L547.41,45.156L548.55,45.16L549.68,45.16L550.82,45.16L551.95,45.169L553.09,45.156L555.36,45.164L556.5,45.156L557.63,45.16L558.77,45.16L559.9,45.16L561.04,45.151L562.17,45.151L563.31,45.16L564.44,45.151L565.58,45.151L566.71,45.156L567.85,45.16L568.99,45.16L570.12,45.169L571.26,45.151L572.39,45.156L575.8,45.16L578.07,45.151L579.2,45.156L580.34,45.169L581.48,45.164L586.02,45.151L588.29,45.151L592.83,45.151L593.97,45.151L596.24,45.156L597.37,45.151L599.64,45.156L601.91,45.151L603.05,45.156L604.18,45.151L611,45.156L623.49,45.151L626.89,45.151L630.3,45.151L670.04,45.151L720,45.151" style="fill:none;stroke:#0000FF" />
</g>
</svg>
