<?xml version="1.0"?>
<!-- Generated by SVGo and Plotinum VG -->
<svg width="720pt" height="432pt" viewBox="0 0 720 432"
	xmlns="http://www.w3.org/2000/svg"
	xmlns:xlink="http://www.w3.org/1999/xlink">
<g transform="scale(1, -1) translate(0, -432)">
<path d="M0,0L720,0L720,432L0,432Z" style="fill:#FFFFFF" />
<text x="358.5" y="-420.45" transform="scale(1, -1)"
	style="font-family:Times;font-weight:normal;font-style:normal;font-size:12px"> </text>
<text x="379.31" y="-3.8613" transform="scale(1, -1)"
	style="font-family:Times;font-weight:normal;font-style:normal;font-size:12px">Costs</text>
<text x="56.555" y="-18.634" transform="scale(1, -1)"
	style="font-family:Times;font-weight:normal;font-style:normal;font-size:10px">0.00</text>
<text x="339.71" y="-18.634" transform="scale(1, -1)"
	style="font-family:Times;font-weight:normal;font-style:normal;font-size:10px">250.00</text>
<text x="627.87" y="-18.634" transform="scale(1, -1)"
	style="font-family:Times;font-weight:normal;font-style:normal;font-size:10px">500.00</text>
<path d="M65.305,28.263L65.305,36.263" style="fill:none;stroke:#000000;stroke-width:0.5" />
<path d="M353.46,28.263L353.46,36.263" style="fill:none;stroke:#000000;stroke-width:0.5" />
<path d="M641.62,28.263L641.62,36.263" style="fill:none;stroke:#000000;stroke-width:0.5" />
<path d="M122.94,32.263L122.94,36.263" style="fill:none;stroke:#000000;stroke-width:0.5" />
<path d="M180.57,32.263L180.57,36.263" style="fill:none;stroke:#000000;stroke-width:0.5" />
<path d="M238.2,32.263L238.2,36.263" style="fill:none;stroke:#000000;stroke-width:0.5" />
<path d="M295.83,32.263L295.83,36.263" style="fill:none;stroke:#000000;stroke-width:0.5" />
<path d="M411.09,32.263L411.09,36.263" style="fill:none;stroke:#000000;stroke-width:0.5" />
<path d="M468.73,32.263L468.73,36.263" style="fill:none;stroke:#000000;stroke-width:0.5" />
<path d="M526.36,32.263L526.36,36.263" style="fill:none;stroke:#000000;stroke-width:0.5" />
<path d="M583.99,32.263L583.99,36.263" style="fill:none;stroke:#000000;stroke-width:0.5" />
<path d="M699.25,32.263L699.25,36.263" style="fill:none;stroke:#000000;stroke-width:0.5" />
<path d="M65.305,36.263L720,36.263" style="fill:none;stroke:#000000;stroke-width:0.5" />
<g transform="rotate(90)">
<text x="152.55" y="11.555" transform="scale(1, -1)"
	style="font-family:Times;font-weight:normal;font-style:normal;font-size:12px">Number of trials (1000000 total)</text>
</g>
<text x="24.055" y="-108.95" transform="scale(1, -1)"
	style="font-family:Times;font-weight:normal;font-style:normal;font-size:10px">20000</text>
<text x="24.055" y="-242.96" transform="scale(1, -1)"
	style="font-family:Times;font-weight:normal;font-style:normal;font-size:10px">60000</text>
<text x="19.055" y="-376.96" transform="scale(1, -1)"
	style="font-family:Times;font-weight:normal;font-style:normal;font-size:10px">100000</text>
<path d="M51.555,112.15L59.555,112.15" style="fill:none;stroke:#000000;stroke-width:0.5" />
<path d="M51.555,246.16L59.555,246.16" style="fill:none;stroke:#000000;stroke-width:0.5" />
<path d="M51.555,380.17L59.555,380.17" style="fill:none;stroke:#000000;stroke-width:0.5" />
<path d="M55.555,78.65L59.555,78.65" style="fill:none;stroke:#000000;stroke-width:0.5" />
<path d="M55.555,145.65L59.555,145.65" style="fill:none;stroke:#000000;stroke-width:0.5" />
<path d="M55.555,179.16L59.555,179.16" style="fill:none;stroke:#000000;stroke-width:0.5" />
<path d="M55.555,212.66L59.555,212.66" style="fill:none;stroke:#000000;stroke-width:0.5" />
<path d="M55.555,279.66L59.555,279.66" style="fill:none;stroke:#000000;stroke-width:0.5" />
<path d="M55.555,313.17L59.555,313.17" style="fill:none;stroke:#000000;stroke-width:0.5" />
<path d="M55.555,346.67L59.555,346.67" style="fill:none;stroke:#000000;stroke-width:0.5" />
<path d="M55.555,413.67L59.555,413.67" style="fill:none;stroke:#000000;stroke-width:0.5" />
<path d="M59.555,45.151L59.555,416.58" style="fill:none;stroke:#000000;stroke-width:0.5" />
<path d="M65.305,416.58L91.815,51.996L92.968,58.978L95.273,58.706L96.426,62.546L97.578,62.928L98.731,73.263L99.884,58.797L101.04,55.169L102.19,62.341L103.34,55.648L104.49,91.522L105.65,66.422L106.8,65.383L107.95,66.137L109.1,65.986L110.26,73.692L111.41,65.665L112.56,65.986L113.72,55.212L114.87,105.93L116.02,75.937L117.17,55.698L118.33,73.997L119.48,45.45L120.63,48.548L121.78,62.539L122.94,70.791L124.09,52.79L125.24,46.347L126.39,82.392L127.55,57.065L128.7,54.85L129.85,80.121L131,48.806L132.16,52.951L133.31,86.037L134.46,50.12L135.62,61.531L136.77,58.274L137.92,67.514L139.07,52.626L140.23,53.085L141.38,54.569L142.53,77.92L143.68,55.792L144.84,57.118L145.99,58.308L147.14,57.809L148.29,59.531L149.45,89.411L150.6,68.342L151.75,59.464L152.9,57.648L154.06,92.001L155.21,60.656L156.36,60.807L157.52,87.672L158.67,80.908L159.82,62.67L160.97,63.095L162.13,61.326L163.28,62.13L164.43,60.515L165.58,64.261L166.74,61.072L167.89,62.361L169.04,61.896L170.19,58.974L171.35,59.859L172.5,64.305L173.65,60.274L174.8,59.447L175.96,64.15L177.11,62.532L178.26,57.303L179.42,64.348L180.57,60.331L181.72,60.448L182.87,65.253L184.03,61.423L185.18,60.445L186.33,62.164L187.48,63.233L188.64,63.343L189.79,61.289L190.94,65.095L192.09,62.495L193.25,63.306L194.4,64.663L195.55,61.125L196.7,61.859L197.86,63.899L199.01,65.591L200.16,64.911L201.32,60.78L202.47,60.639L203.62,65.032L204.77,60.499L205.93,59.025L207.08,65.846L208.23,61.062L209.38,58.113L210.54,63.383L211.69,59.393L212.84,57.058L213.99,58.767L215.15,62.288L216.3,57.912L217.45,58.532L218.6,61.346L219.76,58.666L220.91,57.293L222.06,62.522L223.22,57.406L224.37,56.468L225.52,59.031L226.67,60.485L227.83,56.948L228.98,57.152L230.13,57.772L231.28,58.512L232.44,56.261L233.59,56.358L234.74,58.12L235.89,56.612L237.05,56.086L238.2,58.505L239.35,57.205L240.5,56.539L241.66,58.103L242.81,58.187L243.96,56.783L245.12,55.808L246.27,57.457L247.42,57.916L248.57,55.862L249.73,56.365L250.88,56.773L252.03,55.678L253.18,55.51L254.34,55.249L255.49,55.001L256.64,55.597L257.79,54.857L258.95,54.897L260.1,54.901L261.25,55.024L262.4,54.177L263.56,54.056L264.71,54.703L265.86,54.16L267.02,53.738L268.17,54.646L269.32,54.05L270.47,53.323L271.63,54.013L272.78,53.333L273.93,52.957L275.08,53.644L276.24,53.524L277.39,52.984L278.54,52.736L279.69,53.041L280.85,52.951L282,52.452L283.15,52.86L284.3,52.545L285.46,52.173L286.61,52.294L287.76,52.696L288.92,52.066L290.07,52.093L291.22,52.073L292.37,51.905L293.53,51.453L294.68,51.4L295.83,51.614L296.98,51.43L298.14,50.944L299.29,51.664L300.44,51.044L301.59,50.569L302.75,50.877L303.9,50.719L305.05,50.451L306.2,50.599L307.36,50.498L308.51,50.632L309.66,49.976L310.82,50.398L311.97,50.116L313.12,49.691L314.27,50.254L315.43,50.197L316.58,49.47L317.73,49.795L318.88,49.617L320.04,49.6L321.19,49.272L322.34,49.316L323.49,49.353L324.65,49.416L325.8,49.101L326.95,49.262L328.1,49.269L329.26,48.907L330.41,49.038L331.56,49.044L332.72,48.867L333.87,48.703L335.02,48.78L336.17,48.669L337.33,48.314L338.48,48.317L339.63,48.478L340.78,48.254L341.94,48.301L343.09,48.126L344.24,48.143L345.39,47.996L346.55,48.076L347.7,47.979L348.85,48.12L350,47.939L351.16,47.724L352.31,47.704L353.46,47.634L354.62,47.627L355.77,47.584L356.92,47.711L358.07,47.503L359.23,47.507L360.38,47.52L361.53,47.376L362.68,47.486L363.84,47.379L364.99,47.346L366.14,47.252L367.29,47.259L368.45,47.051L369.6,47.121L370.75,47.054L371.9,46.897L373.06,46.96L374.21,46.843L375.36,47.011L376.52,46.94L377.67,46.897L378.82,46.816L379.97,46.867L381.13,46.79L382.28,46.666L383.43,46.649L384.58,46.575L385.74,46.525L386.89,46.498L388.04,46.609L389.19,46.548L390.35,46.421L391.5,46.431L392.65,46.391L393.8,46.297L394.96,46.374L396.11,46.414L397.26,46.3L398.42,46.187L399.57,46.287L400.72,46.17L401.87,46.277L403.03,46.23L404.18,46.187L405.33,46.156L406.48,46.009L407.64,46.086L408.79,46.086L409.94,46.002L411.09,46.036L412.25,46.022L413.4,45.955L414.55,45.996L415.7,45.962L416.86,45.942L418.01,45.935L419.16,46.009L420.32,45.905L421.47,45.862L422.62,45.888L423.77,45.855L424.93,45.651L426.08,45.795L427.23,45.758L428.38,45.862L429.54,45.785L430.69,45.711L431.84,45.691L432.99,45.734L434.15,45.681L435.3,45.731L436.45,45.704L437.61,45.701L438.76,45.674L439.91,45.647L441.06,45.617L442.22,45.637L443.37,45.614L444.52,45.634L445.67,45.59L446.83,45.597L447.98,45.54L449.13,45.584L450.28,45.597L451.44,45.48L452.59,45.446L453.74,45.463L454.89,45.517L456.05,45.443L457.2,45.567L458.35,45.443L459.51,45.517L460.66,45.453L461.81,45.396L462.96,45.453L464.12,45.47L465.27,45.419L466.42,45.389L467.57,45.409L468.73,45.386L469.88,45.426L471.03,45.383L472.18,45.362L473.34,45.406L474.49,45.336L475.64,45.362L476.79,45.383L477.95,45.332L479.1,45.316L480.25,45.359L481.41,45.352L482.56,45.356L483.71,45.329L484.86,45.309L486.02,45.346L487.17,45.275L488.32,45.322L489.47,45.269L490.63,45.282L491.78,45.299L492.93,45.305L494.08,45.302L495.24,45.289L496.39,45.282L497.54,45.292L498.69,45.289L499.85,45.275L501,45.275L502.15,45.282L503.31,45.255L504.46,45.269L505.61,45.245L506.76,45.262L507.92,45.228L509.07,45.242L510.22,45.259L511.37,45.245L512.53,45.269L513.68,45.228L514.83,45.225L515.98,45.235L517.14,45.249L518.29,45.218L519.44,45.205L520.59,45.215L521.75,45.202L522.9,45.205L524.05,45.252L525.21,45.202L526.36,45.212L527.51,45.215L528.66,45.192L529.82,45.208L530.97,45.192L532.12,45.235L533.27,45.208L534.43,45.182L535.58,45.205L536.73,45.195L537.88,45.205L539.04,45.205L540.19,45.192L541.34,45.208L542.49,45.182L543.65,45.178L544.8,45.188L545.95,45.178L547.11,45.161L548.26,45.188L549.41,45.175L550.56,45.178L551.72,45.195L552.87,45.185L554.02,45.171L555.17,45.168L556.33,45.168L557.48,45.178L558.63,45.158L559.78,45.165L560.94,45.168L562.09,45.168L563.24,45.171L564.39,45.168L565.55,45.168L566.7,45.168L567.85,45.165L569.01,45.165L570.16,45.175L571.31,45.165L572.46,45.168L573.62,45.165L574.77,45.171L575.92,45.168L577.07,45.151L578.23,45.168L579.38,45.185L580.53,45.155L581.68,45.165L582.84,45.165L583.99,45.158L585.14,45.155L586.29,45.165L587.45,45.165L588.6,45.158L589.75,45.161L590.91,45.165L592.06,45.155L593.21,45.158L594.36,45.158L595.52,45.155L596.67,45.155L597.82,45.155L598.97,45.158L600.13,45.168L601.28,45.151L602.43,45.151L603.58,45.155L604.74,45.165L605.89,45.158L607.04,45.151L608.19,45.158L609.35,45.151L610.5,45.158L611.65,45.158L612.81,45.161L613.96,45.151L616.26,45.158L617.42,45.151L618.57,45.151L619.72,45.151L620.87,45.151L622.03,45.151L623.18,45.151L624.33,45.151L625.48,45.151L631.25,45.151L632.4,45.155L633.55,45.151L634.71,45.151L635.86,45.151L637.01,45.151L638.16,45.151L640.47,45.155L641.62,45.151L642.77,45.151L643.93,45.151L645.08,45.158L656.61,45.158L657.76,45.151L658.91,45.151L661.22,45.151L672.74,45.151L673.89,45.151L679.66,45.151L687.73,45.151L720,45.151" style="fill:none;stroke:#0000FF" />
</g>
</svg>
