<?xml version="1.0"?>
<!-- Generated by SVGo and Plotinum VG -->
<svg width="720pt" height="432pt" viewBox="0 0 720 432"
	xmlns="http://www.w3.org/2000/svg"
	xmlns:xlink="http://www.w3.org/1999/xlink">
<g transform="scale(1, -1) translate(0, -432)">
<path d="M0,0L720,0L720,432L0,432Z" style="fill:#FFFFFF" />
<text x="358.5" y="-420.45" transform="scale(1, -1)"
	style="font-family:Times;font-weight:normal;font-style:normal;font-size:12px"> </text>
<text x="379.31" y="-3.8613" transform="scale(1, -1)"
	style="font-family:Times;font-weight:normal;font-style:normal;font-size:12px">Costs</text>
<text x="56.555" y="-18.634" transform="scale(1, -1)"
	style="font-family:Times;font-weight:normal;font-style:normal;font-size:10px">0.00</text>
<text x="367.53" y="-18.634" transform="scale(1, -1)"
	style="font-family:Times;font-weight:normal;font-style:normal;font-size:10px">250.00</text>
<text x="683.5" y="-18.634" transform="scale(1, -1)"
	style="font-family:Times;font-weight:normal;font-style:normal;font-size:10px">500.00</text>
<path d="M65.305,28.263L65.305,36.263" style="fill:none;stroke:#000000;stroke-width:0.5" />
<path d="M381.28,28.263L381.28,36.263" style="fill:none;stroke:#000000;stroke-width:0.5" />
<path d="M697.25,28.263L697.25,36.263" style="fill:none;stroke:#000000;stroke-width:0.5" />
<path d="M128.5,32.263L128.5,36.263" style="fill:none;stroke:#000000;stroke-width:0.5" />
<path d="M191.69,32.263L191.69,36.263" style="fill:none;stroke:#000000;stroke-width:0.5" />
<path d="M254.89,32.263L254.89,36.263" style="fill:none;stroke:#000000;stroke-width:0.5" />
<path d="M318.08,32.263L318.08,36.263" style="fill:none;stroke:#000000;stroke-width:0.5" />
<path d="M444.47,32.263L444.47,36.263" style="fill:none;stroke:#000000;stroke-width:0.5" />
<path d="M507.67,32.263L507.67,36.263" style="fill:none;stroke:#000000;stroke-width:0.5" />
<path d="M570.86,32.263L570.86,36.263" style="fill:none;stroke:#000000;stroke-width:0.5" />
<path d="M634.06,32.263L634.06,36.263" style="fill:none;stroke:#000000;stroke-width:0.5" />
<path d="M65.305,36.263L720,36.263" style="fill:none;stroke:#000000;stroke-width:0.5" />
<g transform="rotate(90)">
<text x="152.55" y="11.555" transform="scale(1, -1)"
	style="font-family:Times;font-weight:normal;font-style:normal;font-size:12px">Number of trials (1000000 total)</text>
</g>
<text x="24.055" y="-114.75" transform="scale(1, -1)"
	style="font-family:Times;font-weight:normal;font-style:normal;font-size:10px">50000</text>
<text x="19.055" y="-260.35" transform="scale(1, -1)"
	style="font-family:Times;font-weight:normal;font-style:normal;font-size:10px">150000</text>
<text x="19.055" y="-405.96" transform="scale(1, -1)"
	style="font-family:Times;font-weight:normal;font-style:normal;font-size:10px">250000</text>
<path d="M51.555,117.95L59.555,117.95" style="fill:none;stroke:#000000;stroke-width:0.5" />
<path d="M51.555,263.56L59.555,263.56" style="fill:none;stroke:#000000;stroke-width:0.5" />
<path d="M51.555,409.16L59.555,409.16" style="fill:none;stroke:#000000;stroke-width:0.5" />
<path d="M55.555,190.76L59.555,190.76" style="fill:none;stroke:#000000;stroke-width:0.5" />
<path d="M55.555,336.36L59.555,336.36" style="fill:none;stroke:#000000;stroke-width:0.5" />
<path d="M59.555,45.151L59.555,416.58" style="fill:none;stroke:#000000;stroke-width:0.5" />
<path d="M65.305,416.58L98.166,52.354L99.43,48.649L100.69,74.117L105.75,66.146L107.01,51.723L108.28,80.309L109.54,51.97L110.8,51.993L112.07,55.869L113.33,55.542L114.6,69.495L115.86,55.539L117.12,66.701L118.39,69.668L119.65,66.021L120.92,77.112L122.18,52.043L123.44,73.585L127.24,66.716L128.5,55.832L129.76,55.558L132.29,66.167L133.55,56.018L134.82,59.475L136.08,63.508L137.35,48.674L138.61,48.941L139.87,45.434L141.14,47.561L142.4,68.006L143.67,62.65L144.93,49.396L146.19,46.133L147.46,46.867L148.72,48.397L149.99,55.521L151.25,48.391L152.51,48.633L153.78,49.381L155.04,60.411L156.3,50.183L157.57,50.121L158.83,58.067L160.1,50.191L161.36,51.452L162.62,51.635L163.89,52.401L165.15,50.619L166.42,61.874L167.68,77.621L168.94,51.274L170.21,54.269L171.47,52.207L172.74,53.34L174,51.066L175.26,53.548L176.53,53.602L177.79,52.788L179.05,53.879L180.32,50.108L181.58,51.044L182.85,51.861L184.11,51.79L185.37,54.86L186.64,51.485L187.9,51.859L189.17,50.326L190.43,52.659L191.69,51.434L192.96,50.16L194.22,51.022L195.49,50.106L196.75,50.753L198.01,51.545L199.28,50.29L200.54,50.632L201.8,50.833L203.07,50.896L204.33,49.477L205.6,49.885L206.86,49.653L208.12,50.623L209.39,50.288L210.65,52.143L211.92,50.245L213.18,50.989L214.44,49.86L215.71,49.164L216.97,50.488L218.24,48.969L219.5,50.402L220.76,51.016L222.03,50.738L223.29,50.585L224.55,49.121L225.82,50.644L227.08,48.253L228.35,48.969L229.61,49.681L230.87,48.914L232.14,49.094L233.4,48.824L234.67,49.441L235.93,49.179L237.19,49.573L238.46,48.985L239.72,48.286L240.99,48.061L242.25,47.679L243.51,48.503L244.78,49.466L246.04,48.957L247.3,47.797L248.57,47.663L249.83,47.654L251.1,47.737L252.36,48.138L253.62,47.576L254.89,47.573L256.15,47.89L257.42,48.285L258.68,47.362L259.94,47.672L261.21,47.903L262.47,47.424L263.74,47.427L265,47.384L266.26,47.45L267.53,47.369L268.79,48.1L270.05,47.366L271.32,47.203L272.58,47.28L273.85,47.126L275.11,47.18L276.37,47.008L277.64,47.215L278.9,47.203L280.17,47.078L281.43,46.996L282.69,46.693L283.96,46.785L285.22,46.833L286.49,46.811L287.75,46.961L289.01,46.682L290.28,46.666L291.54,46.688L292.8,46.725L294.07,46.606L295.33,46.485L296.6,46.514L297.86,46.447L299.12,46.455L300.39,46.584L301.65,46.44L302.92,46.363L304.18,46.303L305.44,46.175L306.71,46.207L307.97,46.216L309.24,46.182L310.5,46.222L311.76,46.158L313.03,46.152L314.29,46.099L315.56,46.114L316.82,46.057L318.08,45.993L319.35,45.99L320.61,45.929L321.87,46.005L323.14,46.003L324.4,45.974L325.67,45.891L326.93,45.923L328.19,45.922L329.46,45.796L330.72,45.894L331.99,45.769L333.25,45.792L334.51,45.856L335.78,45.775L337.04,45.692L338.31,45.767L339.57,45.728L340.83,45.694L342.1,45.693L343.36,45.645L344.62,45.665L345.89,45.68L347.15,45.648L348.42,45.627L349.68,45.606L350.94,45.62L352.21,45.601L353.47,45.591L354.74,45.549L356,45.578L357.26,45.552L358.53,45.561L359.79,45.526L361.06,45.473L362.32,45.521L363.58,45.514L364.85,45.491L366.11,45.466L367.37,45.485L368.64,45.462L369.9,45.432L371.17,45.476L372.43,45.435L373.69,45.409L374.96,45.416L376.22,45.435L377.49,45.408L378.75,45.381L380.01,45.373L381.28,45.38L382.54,45.399L383.81,45.4L385.07,45.354L386.33,45.339L387.6,45.344L388.86,45.349L390.12,45.329L391.39,45.36L392.65,45.349L393.92,45.341L395.18,45.316L396.44,45.312L397.71,45.29L398.97,45.306L400.24,45.281L401.5,45.309L402.76,45.301L404.03,45.294L405.29,45.285L406.56,45.275L407.82,45.284L409.08,45.272L410.35,45.261L411.61,45.272L412.87,45.271L414.14,45.271L415.4,45.247L416.67,45.255L417.93,45.217L419.19,45.256L420.46,45.22L421.72,45.226L422.99,45.22L424.25,45.242L425.51,45.221L426.78,45.218L428.04,45.217L429.31,45.215L430.57,45.215L431.83,45.226L433.1,45.211L434.36,45.201L435.62,45.221L436.89,45.214L438.15,45.198L439.42,45.205L440.68,45.202L441.94,45.205L443.21,45.192L444.47,45.179L445.74,45.198L447,45.183L448.26,45.195L449.53,45.189L450.79,45.191L452.06,45.198L453.32,45.185L454.58,45.188L455.85,45.198L457.11,45.189L458.37,45.185L459.64,45.188L460.9,45.183L462.17,45.175L463.43,45.164L464.69,45.166L465.96,45.186L467.22,45.173L468.49,45.17L469.75,45.173L471.01,45.178L472.28,45.163L473.54,45.173L474.81,45.157L476.07,45.176L477.33,45.167L478.6,45.17L479.86,45.172L481.12,45.164L482.39,45.162L483.65,45.164L484.92,45.166L486.18,45.17L487.44,45.162L488.71,45.176L489.97,45.163L491.24,45.164L492.5,45.166L493.76,45.157L495.03,45.156L496.29,45.162L497.56,45.166L498.82,45.16L500.08,45.163L501.35,45.16L502.61,45.154L503.87,45.157L505.14,45.157L506.4,45.156L507.67,45.16L508.93,45.156L510.19,45.163L511.46,45.16L512.72,45.153L513.99,45.151L515.25,45.154L516.51,45.157L517.78,45.159L519.04,45.159L520.31,45.157L521.57,45.156L522.83,45.153L524.1,45.164L525.36,45.151L526.62,45.153L527.89,45.153L529.15,45.151L530.42,45.154L531.68,45.154L532.94,45.151L534.21,45.153L535.47,45.153L536.74,45.156L538,45.153L539.26,45.151L540.53,45.153L541.79,45.153L543.06,45.153L544.32,45.153L545.58,45.153L546.85,45.151L548.11,45.153L549.37,45.154L550.64,45.153L551.9,45.151L553.17,45.153L554.43,45.151L555.69,45.153L556.96,45.153L558.22,45.153L559.49,45.157L560.75,45.151L562.01,45.151L563.28,45.153L564.54,45.154L567.07,45.151L569.6,45.154L572.12,45.153L579.71,45.156L580.97,45.151L583.5,45.151L584.76,45.151L589.82,45.151L591.08,45.151L592.35,45.151L596.14,45.151L603.72,45.151L604.99,45.151L606.25,45.153L630.26,45.151L650.49,45.151L720,45.151" style="fill:none;stroke:#0000FF" />
</g>
</svg>
