<?xml version="1.0"?>
<!-- Generated by SVGo and Plotinum VG -->
<svg width="720pt" height="432pt" viewBox="0 0 720 432"
	xmlns="http://www.w3.org/2000/svg"
	xmlns:xlink="http://www.w3.org/1999/xlink">
<g transform="scale(1, -1) translate(0, -432)">
<path d="M0,0L720,0L720,432L0,432Z" style="fill:#FFFFFF" />
<text x="358.5" y="-420.45" transform="scale(1, -1)"
	style="font-family:Times;font-weight:normal;font-style:normal;font-size:12px"> </text>
<text x="379.31" y="-3.8613" transform="scale(1, -1)"
	style="font-family:Times;font-weight:normal;font-style:normal;font-size:12px">Costs</text>
<text x="62.805" y="-18.634" transform="scale(1, -1)"
	style="font-family:Times;font-weight:normal;font-style:normal;font-size:10px">0</text>
<text x="332.89" y="-18.634" transform="scale(1, -1)"
	style="font-family:Times;font-weight:normal;font-style:normal;font-size:10px">200</text>
<text x="607.97" y="-18.634" transform="scale(1, -1)"
	style="font-family:Times;font-weight:normal;font-style:normal;font-size:10px">400</text>
<path d="M65.305,28.263L65.305,36.263" style="fill:none;stroke:#000000;stroke-width:0.5" />
<path d="M340.39,28.263L340.39,36.263" style="fill:none;stroke:#000000;stroke-width:0.5" />
<path d="M615.47,28.263L615.47,36.263" style="fill:none;stroke:#000000;stroke-width:0.5" />
<path d="M202.85,32.263L202.85,36.263" style="fill:none;stroke:#000000;stroke-width:0.5" />
<path d="M477.93,32.263L477.93,36.263" style="fill:none;stroke:#000000;stroke-width:0.5" />
<path d="M65.305,36.263L720,36.263" style="fill:none;stroke:#000000;stroke-width:0.5" />
<g transform="rotate(90)">
<text x="152.55" y="11.555" transform="scale(1, -1)"
	style="font-family:Times;font-weight:normal;font-style:normal;font-size:12px">Number of trials (1000000 total)</text>
</g>
<text x="24.055" y="-110.89" transform="scale(1, -1)"
	style="font-family:Times;font-weight:normal;font-style:normal;font-size:10px">50000</text>
<text x="19.055" y="-248.78" transform="scale(1, -1)"
	style="font-family:Times;font-weight:normal;font-style:normal;font-size:10px">150000</text>
<text x="19.055" y="-386.67" transform="scale(1, -1)"
	style="font-family:Times;font-weight:normal;font-style:normal;font-size:10px">250000</text>
<path d="M51.555,114.09L59.555,114.09" style="fill:none;stroke:#000000;stroke-width:0.5" />
<path d="M51.555,251.98L59.555,251.98" style="fill:none;stroke:#000000;stroke-width:0.5" />
<path d="M51.555,389.87L59.555,389.87" style="fill:none;stroke:#000000;stroke-width:0.5" />
<path d="M55.555,183.04L59.555,183.04" style="fill:none;stroke:#000000;stroke-width:0.5" />
<path d="M55.555,320.93L59.555,320.93" style="fill:none;stroke:#000000;stroke-width:0.5" />
<path d="M59.555,45.151L59.555,416.58" style="fill:none;stroke:#000000;stroke-width:0.5" />
<path d="M65.305,416.58L101.07,59.146L102.44,70.968L103.82,55.366L106.57,48.527L107.94,69.319L110.69,52.356L112.07,59.155L113.44,62.666L114.82,58.967L116.19,70.267L117.57,51.854L120.32,61.904L121.7,62.576L123.07,76.826L124.45,51.96L125.82,55.39L128.57,58.975L132.7,58.98L134.08,59.664L135.45,67.334L138.2,74.566L139.58,71.24L140.95,45.85L142.33,48.677L143.7,49.716L145.08,68.544L146.45,60.063L147.83,53.004L149.2,72.065L150.58,51.199L151.96,51.11L153.33,48.123L154.71,47.424L156.08,47.257L157.46,48.287L158.83,50.111L160.21,49.507L161.58,48.226L162.96,49.043L164.33,48.876L165.71,56.971L167.09,69.23L168.46,48.877L169.84,49.543L171.21,55.497L172.59,50.142L173.96,50.289L175.34,65.49L176.71,57.628L178.09,50.063L179.46,49.183L180.84,51.68L182.21,51.714L183.59,51.719L184.97,51.642L186.34,53.203L187.72,51.589L189.09,51.537L190.47,52.024L191.84,51.351L193.22,51.766L194.59,51.476L195.97,53.592L197.34,51.976L198.72,49.866L200.09,49.972L201.47,50.423L202.85,52.184L204.22,51.232L205.6,50.017L206.97,51.025L208.35,51.549L209.72,50.266L211.1,47.978L212.47,52.293L213.85,50.368L215.22,49.786L216.6,50.275L217.98,52.351L219.35,51.503L220.73,49.049L222.1,51.41L223.48,51.569L224.85,50.055L226.23,49.831L227.6,48.956L228.98,49.378L230.35,49.536L231.73,48.85L233.1,49.714L234.48,49.414L235.86,48.877L237.23,48.211L238.61,48.477L239.98,49.769L241.36,48.626L242.73,47.869L244.11,48.622L245.48,49.211L246.86,49.049L248.23,49.084L249.61,49.695L250.99,49.669L252.36,47.833L253.74,47.9L255.11,48.796L256.49,48.341L257.86,47.806L259.24,48.353L260.61,48.219L261.99,47.533L263.36,47.403L264.74,47.44L266.11,47.495L267.49,47.738L268.87,47.393L270.24,47.42L271.62,47.484L272.99,47.53L274.37,47.181L275.74,47.571L277.12,48.349L278.49,47.52L279.87,47.097L281.24,47.171L282.62,47.148L283.99,46.937L285.37,46.944L286.75,47.433L288.12,47.069L289.5,46.929L290.87,46.892L292.25,47.042L293.62,46.776L295,46.798L296.37,46.934L297.75,46.92L299.12,46.722L300.5,46.758L301.88,46.668L303.25,46.845L304.63,46.591L306,46.621L307.38,46.533L308.75,46.518L310.13,46.372L311.5,46.263L312.88,46.439L314.25,46.417L315.63,46.315L317,46.261L318.38,46.294L319.76,46.355L321.13,46.111L322.51,46.147L323.88,46.159L325.26,46.159L326.63,46.066L328.01,46.112L329.38,46.175L330.76,46.03L332.13,46.005L333.51,46.072L334.89,46.11L336.26,45.9L337.64,45.864L339.01,45.849L340.39,45.868L341.76,45.913L343.14,45.795L344.51,45.776L345.89,45.827L347.26,45.798L348.64,45.751L350.01,45.79L351.39,45.773L352.77,45.677L354.14,45.692L355.52,45.731L356.89,45.733L358.27,45.679L359.64,45.755L361.02,45.718L362.39,45.588L363.77,45.588L365.14,45.566L366.52,45.598L367.89,45.528L369.27,45.56L370.65,45.602L372.02,45.582L373.4,45.52L374.77,45.509L376.15,45.529L377.52,45.554L378.9,45.518L380.27,45.457L381.65,45.456L383.02,45.525L384.4,45.46L385.78,45.451L387.15,45.449L388.53,45.413L389.9,45.415L391.28,45.398L392.65,45.437L394.03,45.435L395.4,45.397L396.78,45.401L398.15,45.391L399.53,45.393L400.9,45.344L402.28,45.355L403.66,45.351L405.03,45.351L406.41,45.332L407.78,45.349L409.16,45.34L410.53,45.318L411.91,45.325L413.28,45.302L414.66,45.304L416.03,45.299L417.41,45.284L418.79,45.302L420.16,45.298L421.54,45.264L422.91,45.266L424.29,45.303L425.66,45.269L427.04,45.248L428.41,45.263L429.79,45.267L431.16,45.26L432.54,45.252L433.91,45.242L435.29,45.251L436.67,45.237L438.04,45.251L439.42,45.244L440.79,45.248L442.17,45.247L443.54,45.245L444.92,45.218L446.29,45.223L447.67,45.22L449.04,45.204L450.42,45.213L451.79,45.213L453.17,45.233L454.55,45.209L455.92,45.223L457.3,45.197L458.67,45.197L460.05,45.201L461.42,45.219L462.8,45.204L464.17,45.198L465.55,45.209L466.92,45.209L468.3,45.187L469.68,45.195L471.05,45.18L472.43,45.195L473.8,45.193L475.18,45.197L476.55,45.179L477.93,45.189L479.3,45.182L480.68,45.169L482.05,45.175L483.43,45.178L484.8,45.179L486.18,45.176L487.56,45.179L488.93,45.176L490.31,45.18L491.68,45.173L493.06,45.169L494.43,45.164L495.81,45.165L497.18,45.167L498.56,45.176L499.93,45.172L501.31,45.172L502.69,45.165L504.06,45.171L505.44,45.164L506.81,45.171L508.19,45.169L509.56,45.167L510.94,45.176L512.31,45.161L513.69,45.165L515.06,45.167L516.44,45.162L517.81,45.165L519.19,45.161L520.57,45.157L521.94,45.164L523.32,45.168L524.69,45.16L526.07,45.156L527.44,45.157L528.82,45.156L530.19,45.157L531.57,45.161L532.94,45.154L534.32,45.158L535.7,45.156L537.07,45.16L538.45,45.157L539.82,45.154L541.2,45.161L542.57,45.156L543.95,45.154L545.32,45.156L546.7,45.156L548.07,45.161L549.45,45.161L550.82,45.154L552.2,45.158L553.58,45.153L554.95,45.154L556.33,45.157L557.7,45.158L559.08,45.153L560.45,45.153L561.83,45.151L563.2,45.151L564.58,45.153L565.95,45.153L567.33,45.151L568.7,45.153L570.08,45.158L571.46,45.153L572.83,45.151L574.21,45.153L575.58,45.154L576.96,45.153L579.71,45.154L581.08,45.154L582.46,45.151L583.83,45.151L585.21,45.153L586.59,45.156L587.96,45.154L590.71,45.151L592.09,45.151L594.84,45.154L597.59,45.153L598.96,45.156L600.34,45.151L603.09,45.151L604.47,45.151L605.84,45.151L607.22,45.151L609.97,45.151L615.47,45.151L619.6,45.153L626.47,45.153L630.6,45.151L637.48,45.153L644.35,45.151L652.6,45.153L653.98,45.151L659.48,45.151L703.5,45.151L720,45.151" style="fill:none;stroke:#0000FF" />
</g>
</svg>
