<?xml version="1.0"?>
<!-- Generated by SVGo and Plotinum VG -->
<svg width="720pt" height="432pt" viewBox="0 0 720 432"
	xmlns="http://www.w3.org/2000/svg"
	xmlns:xlink="http://www.w3.org/1999/xlink">
<g transform="scale(1, -1) translate(0, -432)">
<path d="M0,0L720,0L720,432L0,432Z" style="fill:#FFFFFF" />
<text x="358.5" y="-420.45" transform="scale(1, -1)"
	style="font-family:Times;font-weight:normal;font-style:normal;font-size:12px"> </text>
<text x="376.81" y="-3.8613" transform="scale(1, -1)"
	style="font-family:Times;font-weight:normal;font-style:normal;font-size:12px">Costs</text>
<text x="51.555" y="-18.634" transform="scale(1, -1)"
	style="font-family:Times;font-weight:normal;font-style:normal;font-size:10px">0.00</text>
<text x="328.48" y="-18.634" transform="scale(1, -1)"
	style="font-family:Times;font-weight:normal;font-style:normal;font-size:10px">250.00</text>
<text x="610.4" y="-18.634" transform="scale(1, -1)"
	style="font-family:Times;font-weight:normal;font-style:normal;font-size:10px">500.00</text>
<path d="M60.305,28.263L60.305,36.263" style="fill:none;stroke:#000000;stroke-width:0.5" />
<path d="M342.23,28.263L342.23,36.263" style="fill:none;stroke:#000000;stroke-width:0.5" />
<path d="M624.15,28.263L624.15,36.263" style="fill:none;stroke:#000000;stroke-width:0.5" />
<path d="M116.69,32.263L116.69,36.263" style="fill:none;stroke:#000000;stroke-width:0.5" />
<path d="M173.07,32.263L173.07,36.263" style="fill:none;stroke:#000000;stroke-width:0.5" />
<path d="M229.46,32.263L229.46,36.263" style="fill:none;stroke:#000000;stroke-width:0.5" />
<path d="M285.84,32.263L285.84,36.263" style="fill:none;stroke:#000000;stroke-width:0.5" />
<path d="M398.61,32.263L398.61,36.263" style="fill:none;stroke:#000000;stroke-width:0.5" />
<path d="M454.99,32.263L454.99,36.263" style="fill:none;stroke:#000000;stroke-width:0.5" />
<path d="M511.38,32.263L511.38,36.263" style="fill:none;stroke:#000000;stroke-width:0.5" />
<path d="M567.76,32.263L567.76,36.263" style="fill:none;stroke:#000000;stroke-width:0.5" />
<path d="M680.53,32.263L680.53,36.263" style="fill:none;stroke:#000000;stroke-width:0.5" />
<path d="M60.305,36.263L720,36.263" style="fill:none;stroke:#000000;stroke-width:0.5" />
<g transform="rotate(90)">
<text x="152.55" y="11.555" transform="scale(1, -1)"
	style="font-family:Times;font-weight:normal;font-style:normal;font-size:12px">Number of trials (1000000 total)</text>
</g>
<text x="24.055" y="-69.655" transform="scale(1, -1)"
	style="font-family:Times;font-weight:normal;font-style:normal;font-size:10px">5000</text>
<text x="19.055" y="-180.51" transform="scale(1, -1)"
	style="font-family:Times;font-weight:normal;font-style:normal;font-size:10px">25000</text>
<text x="19.055" y="-291.37" transform="scale(1, -1)"
	style="font-family:Times;font-weight:normal;font-style:normal;font-size:10px">45000</text>
<text x="19.055" y="-402.23" transform="scale(1, -1)"
	style="font-family:Times;font-weight:normal;font-style:normal;font-size:10px">65000</text>
<path d="M46.555,72.861L54.555,72.861" style="fill:none;stroke:#000000;stroke-width:0.5" />
<path d="M46.555,183.72L54.555,183.72" style="fill:none;stroke:#000000;stroke-width:0.5" />
<path d="M46.555,294.58L54.555,294.58" style="fill:none;stroke:#000000;stroke-width:0.5" />
<path d="M46.555,405.44L54.555,405.44" style="fill:none;stroke:#000000;stroke-width:0.5" />
<path d="M50.555,128.29L54.555,128.29" style="fill:none;stroke:#000000;stroke-width:0.5" />
<path d="M50.555,239.15L54.555,239.15" style="fill:none;stroke:#000000;stroke-width:0.5" />
<path d="M50.555,350.01L54.555,350.01" style="fill:none;stroke:#000000;stroke-width:0.5" />
<path d="M54.555,45.151L54.555,416.58" style="fill:none;stroke:#000000;stroke-width:0.5" />
<path d="M60.305,416.58L85.114,53.477L86.241,48.776L89.624,86.225L90.752,59.674L91.88,61.254L93.008,71.902L94.135,56.509L95.263,105L96.391,90.276L97.518,52.075L98.646,87.466L99.774,68.637L100.9,60.893L102.03,53.471L103.16,64.663L104.28,55.134L105.41,53.56L106.54,116.98L107.67,111.39L108.8,94.312L109.92,91.169L111.05,56.719L112.18,75.189L114.43,46.027L115.56,77.023L116.69,76.33L117.82,65.311L118.94,45.828L120.07,100.98L121.2,93.441L122.33,56.559L123.46,56.731L124.58,71.037L125.71,66.037L126.84,66.165L127.97,72.024L129.09,115.39L130.22,70.483L131.35,89.611L132.48,55.766L133.6,57.956L134.73,57.944L135.86,74.008L136.99,61.88L138.11,63.936L139.24,66.176L140.37,71.126L141.5,72.456L142.63,86.38L143.75,68.188L144.88,76.092L146.01,72.229L147.14,92L148.26,66.619L149.39,67.04L150.52,74.701L151.65,80.981L152.77,72.545L153.9,77.356L155.03,80.443L156.16,88.763L157.29,73.492L158.41,80.948L159.54,77.112L160.67,73.055L161.8,74.08L162.92,74.939L164.05,82.489L165.18,76.89L166.31,77.833L167.43,87.084L168.56,77.367L169.69,76.863L170.82,71.43L171.95,75.66L173.07,71.27L174.2,68.859L175.33,81.036L176.46,85.92L177.58,85.692L178.71,77.971L179.84,73.498L180.97,78.021L182.09,71.042L183.22,71.281L184.35,70.948L185.48,75.155L186.61,75.965L187.73,72.994L188.86,78.481L189.99,77.212L191.12,74.784L192.24,73.742L193.37,73.93L194.5,73.237L195.63,73.625L196.75,75.105L197.88,74.296L199.01,74.729L200.14,75.333L201.27,70.483L202.39,73.941L203.52,72.118L204.65,71.818L205.78,69.402L206.9,74.363L208.03,72.606L209.16,69.89L210.29,71.137L211.41,75.272L212.54,72.461L213.67,73.836L214.8,70.959L215.93,74.923L217.05,70.239L218.18,70.566L219.31,70.194L220.44,70.305L221.56,70.006L222.69,71.685L223.82,70.46L224.95,72.04L226.07,69.59L227.2,71.563L228.33,68.426L229.46,68.98L230.59,67.179L231.71,67.933L232.84,68.753L233.97,67.9L235.1,68.576L236.22,69.136L237.35,68.177L238.48,68.504L239.61,66.348L240.73,67.345L241.86,66.403L242.99,66.542L244.12,65.904L245.24,66.231L246.37,66.386L247.5,65.411L248.63,65.017L249.76,64.984L250.88,64.28L252.01,64.807L253.14,64.02L254.27,64.64L255.39,64.069L256.52,64.031L257.65,63.521L258.78,63.504L259.9,63.864L261.03,63.693L262.16,62.656L263.29,62.528L264.42,62.163L265.54,62.08L266.67,61.431L267.8,61.83L268.93,61.453L270.05,61.021L271.18,61.148L272.31,60.871L273.44,60.345L274.56,60.173L275.69,60.616L276.82,59.979L277.95,59.685L279.08,59.574L280.2,59.363L281.33,58.599L282.46,58.87L283.59,58.898L284.71,58.443L285.84,58.593L286.97,58.66L288.1,57.989L289.22,57.335L290.35,57.468L291.48,57.268L292.61,56.997L293.74,56.714L294.86,57.13L295.99,56.708L297.12,56.265L298.25,56.392L299.37,55.838L300.5,56.226L301.63,55.744L302.76,55.428L303.88,55.633L305.01,55.544L306.14,55.456L307.27,55.439L308.4,55.295L309.52,54.774L310.65,54.414L311.78,54.364L312.91,53.654L314.03,54.22L315.16,53.948L316.29,53.898L317.42,52.95L318.54,53.366L319.67,52.862L320.8,53.122L321.93,53.067L323.06,52.984L324.18,52.717L325.31,52.729L326.44,52.518L327.57,52.174L328.69,52.219L329.82,52.108L330.95,51.797L332.08,52.163L333.2,51.62L334.33,51.709L335.46,51.576L336.59,51.182L337.72,51.282L338.84,50.999L339.97,50.971L341.1,50.877L342.23,50.85L343.35,50.589L344.48,50.534L345.61,50.301L346.74,50.356L347.86,50.162L348.99,49.946L350.12,49.985L351.25,49.796L352.37,49.885L353.5,49.846L354.63,49.636L355.76,49.469L356.89,49.043L358.01,49.414L359.14,48.871L360.27,49.12L361.4,49.237L362.52,49.126L363.65,48.849L364.78,48.893L365.91,48.721L367.03,48.521L368.16,48.361L369.29,48.704L370.42,48.344L371.55,48.544L372.67,48.327L373.8,48.305L374.93,48.355L376.06,48.15L377.18,48.122L378.31,48.023L379.44,47.928L380.57,47.956L381.69,47.84L382.82,47.762L383.95,47.768L385.08,47.823L386.21,47.513L387.33,47.324L388.46,47.452L389.59,47.596L390.72,47.579L391.84,47.43L392.97,47.285L394.1,47.324L395.23,47.258L396.35,47.036L397.48,47.058L398.61,47.102L399.74,47.025L400.87,46.809L401.99,46.842L403.12,46.831L404.25,47.008L405.38,46.947L406.5,46.703L407.63,46.886L408.76,46.681L409.89,46.753L411.01,46.52L412.14,46.515L413.27,46.476L414.4,46.371L415.53,46.509L416.65,46.493L417.78,46.216L418.91,46.415L420.04,46.293L421.16,46.238L422.29,46.238L423.42,46.277L424.55,46.199L425.67,46.221L426.8,46.105L427.93,46.066L429.06,46.044L430.19,46.027L431.31,46.055L432.44,46.027L433.57,46.138L434.7,45.927L435.82,46.055L436.95,45.811L438.08,45.977L439.21,45.916L440.33,45.95L441.46,45.872L442.59,45.75L443.72,45.794L444.85,45.817L445.97,45.844L447.1,45.711L448.23,45.722L449.36,45.811L450.48,45.728L451.61,45.672L452.74,45.756L453.87,45.606L454.99,45.722L456.12,45.589L457.25,45.683L458.38,45.562L459.5,45.589L460.63,45.55L461.76,45.478L462.89,45.562L464.02,45.6L465.14,45.545L466.27,45.595L467.4,45.545L468.53,45.545L469.65,45.55L470.78,45.456L471.91,45.512L473.04,45.445L474.16,45.534L475.29,45.467L476.42,45.412L477.55,45.44L478.68,45.445L479.8,45.506L480.93,45.429L482.06,45.429L483.19,45.423L484.31,45.379L485.44,45.44L486.57,45.356L487.7,45.412L488.82,45.329L489.95,45.34L491.08,45.307L492.21,45.334L493.34,45.379L494.46,45.356L495.59,45.312L496.72,45.273L497.85,45.301L498.97,45.29L500.1,45.323L501.23,45.312L502.36,45.323L503.48,45.262L504.61,45.301L505.74,45.323L506.87,45.268L508,45.29L509.12,45.295L510.25,45.312L511.38,45.262L512.51,45.284L513.63,45.262L514.76,45.257L515.89,45.212L517.02,45.212L518.14,45.212L519.27,45.235L520.4,45.223L521.53,45.251L522.66,45.246L523.78,45.229L524.91,45.212L526.04,45.235L527.17,45.218L528.29,45.212L529.42,45.223L530.55,45.212L531.68,45.201L532.8,45.207L533.93,45.201L535.06,45.19L536.19,45.196L537.32,45.218L538.44,45.207L539.57,45.185L540.7,45.196L541.83,45.185L542.95,45.162L544.08,45.207L545.21,45.174L546.34,45.196L547.46,45.185L548.59,45.185L549.72,45.174L550.85,45.174L551.98,45.168L553.1,45.19L554.23,45.162L555.36,45.185L556.49,45.162L557.61,45.179L558.74,45.179L559.87,45.174L561,45.174L562.12,45.168L563.25,45.168L564.38,45.174L565.51,45.157L566.63,45.174L567.76,45.179L568.89,45.168L570.02,45.185L571.15,45.168L572.27,45.19L574.53,45.168L575.66,45.174L576.78,45.157L577.91,45.168L579.04,45.157L580.17,45.162L581.29,45.162L583.55,45.151L584.68,45.157L585.81,45.168L586.93,45.151L588.06,45.174L589.19,45.151L590.32,45.162L591.44,45.151L592.57,45.151L593.7,45.157L594.83,45.157L595.95,45.157L597.08,45.157L598.21,45.157L599.34,45.157L600.47,45.162L602.72,45.151L603.85,45.151L604.98,45.151L607.23,45.157L608.36,45.162L609.49,45.151L611.74,45.151L614,45.151L615.13,45.157L616.25,45.162L618.51,45.151L620.76,45.151L621.89,45.157L627.53,45.157L633.17,45.151L634.3,45.151L637.68,45.151L639.93,45.151L646.7,45.157L647.83,45.157L648.96,45.151L654.59,45.151L655.72,45.151L657.98,45.151L660.23,45.151L661.36,45.151L662.49,45.151L667,45.151L686.17,45.151L694.06,45.151L700.83,45.157L704.21,45.151L720,45.151" style="fill:none;stroke:#0000FF" />
</g>
</svg>
