<?xml version="1.0"?>
<!-- Generated by SVGo and Plotinum VG -->
<svg width="720pt" height="432pt" viewBox="0 0 720 432"
	xmlns="http://www.w3.org/2000/svg"
	xmlns:xlink="http://www.w3.org/1999/xlink">
<g transform="scale(1, -1) translate(0, -432)">
<path d="M0,0L720,0L720,432L0,432Z" style="fill:#FFFFFF" />
<text x="358.5" y="-420.45" transform="scale(1, -1)"
	style="font-family:Times;font-weight:normal;font-style:normal;font-size:12px"> </text>
<text x="376.81" y="-3.8613" transform="scale(1, -1)"
	style="font-family:Times;font-weight:normal;font-style:normal;font-size:12px">Costs</text>
<text x="51.555" y="-18.634" transform="scale(1, -1)"
	style="font-family:Times;font-weight:normal;font-style:normal;font-size:10px">0.00</text>
<text x="323.27" y="-18.634" transform="scale(1, -1)"
	style="font-family:Times;font-weight:normal;font-style:normal;font-size:10px">250.00</text>
<text x="599.99" y="-18.634" transform="scale(1, -1)"
	style="font-family:Times;font-weight:normal;font-style:normal;font-size:10px">500.00</text>
<path d="M60.305,28.263L60.305,36.263" style="fill:none;stroke:#000000;stroke-width:0.5" />
<path d="M337.02,28.263L337.02,36.263" style="fill:none;stroke:#000000;stroke-width:0.5" />
<path d="M613.74,28.263L613.74,36.263" style="fill:none;stroke:#000000;stroke-width:0.5" />
<path d="M115.65,32.263L115.65,36.263" style="fill:none;stroke:#000000;stroke-width:0.5" />
<path d="M170.99,32.263L170.99,36.263" style="fill:none;stroke:#000000;stroke-width:0.5" />
<path d="M226.34,32.263L226.34,36.263" style="fill:none;stroke:#000000;stroke-width:0.5" />
<path d="M281.68,32.263L281.68,36.263" style="fill:none;stroke:#000000;stroke-width:0.5" />
<path d="M392.37,32.263L392.37,36.263" style="fill:none;stroke:#000000;stroke-width:0.5" />
<path d="M447.71,32.263L447.71,36.263" style="fill:none;stroke:#000000;stroke-width:0.5" />
<path d="M503.05,32.263L503.05,36.263" style="fill:none;stroke:#000000;stroke-width:0.5" />
<path d="M558.4,32.263L558.4,36.263" style="fill:none;stroke:#000000;stroke-width:0.5" />
<path d="M669.08,32.263L669.08,36.263" style="fill:none;stroke:#000000;stroke-width:0.5" />
<path d="M60.305,36.263L720,36.263" style="fill:none;stroke:#000000;stroke-width:0.5" />
<g transform="rotate(90)">
<text x="152.55" y="11.555" transform="scale(1, -1)"
	style="font-family:Times;font-weight:normal;font-style:normal;font-size:12px">Number of trials (1000000 total)</text>
</g>
<text x="19.055" y="-79.827" transform="scale(1, -1)"
	style="font-family:Times;font-weight:normal;font-style:normal;font-size:10px">10000</text>
<text x="19.055" y="-231.37" transform="scale(1, -1)"
	style="font-family:Times;font-weight:normal;font-style:normal;font-size:10px">50000</text>
<text x="19.055" y="-382.91" transform="scale(1, -1)"
	style="font-family:Times;font-weight:normal;font-style:normal;font-size:10px">90000</text>
<path d="M46.555,83.033L54.555,83.033" style="fill:none;stroke:#000000;stroke-width:0.5" />
<path d="M46.555,234.57L54.555,234.57" style="fill:none;stroke:#000000;stroke-width:0.5" />
<path d="M46.555,386.12L54.555,386.12" style="fill:none;stroke:#000000;stroke-width:0.5" />
<path d="M50.555,120.92L54.555,120.92" style="fill:none;stroke:#000000;stroke-width:0.5" />
<path d="M50.555,158.8L54.555,158.8" style="fill:none;stroke:#000000;stroke-width:0.5" />
<path d="M50.555,196.69L54.555,196.69" style="fill:none;stroke:#000000;stroke-width:0.5" />
<path d="M50.555,272.46L54.555,272.46" style="fill:none;stroke:#000000;stroke-width:0.5" />
<path d="M50.555,310.35L54.555,310.35" style="fill:none;stroke:#000000;stroke-width:0.5" />
<path d="M50.555,348.23L54.555,348.23" style="fill:none;stroke:#000000;stroke-width:0.5" />
<path d="M54.555,45.151L54.555,416.58" style="fill:none;stroke:#000000;stroke-width:0.5" />
<path d="M60.305,416.58L84.656,58.642L85.763,67.807L89.083,69.841L90.19,59.468L91.297,72.626L92.404,62.135L93.511,63.234L94.618,85.73L95.725,69.841L96.831,78.04L97.938,100.84L99.045,65.625L100.15,62.211L101.26,48.716L102.37,48.428L103.47,88L104.58,66.333L105.69,117.07L106.79,62.643L107.9,80.146L109.01,88.11L110.11,49.41L111.22,87.784L113.43,49.341L114.54,60.893L115.65,53.884L116.76,92.122L117.86,47.277L118.97,90.281L120.08,63.863L121.18,57.229L122.29,65.272L123.4,60.097L124.5,66.03L125.61,74.376L126.72,64.424L127.82,80.491L128.93,73.175L130.04,65.17L131.14,58.279L132.25,60.889L133.36,59.415L134.47,64.996L135.57,60.862L136.68,64.041L137.79,63.12L138.89,65.034L140,67.951L141.11,74.539L142.21,69.944L143.32,72.315L144.43,65.852L145.53,72.55L146.64,63.799L147.75,65.2L148.85,73.747L149.96,79.468L151.07,70.004L152.18,68.534L153.28,72.141L154.39,77.263L155.5,64.795L156.6,76.217L157.71,64.696L158.82,66.845L159.92,71.823L161.03,62.154L162.14,72.69L163.24,66.254L164.35,72.637L165.46,70.781L166.56,64.829L167.67,70.391L168.78,60.851L169.88,66.473L170.99,66.689L172.1,63.783L173.21,68.512L174.31,65.791L175.42,69.766L176.53,65.318L177.63,63.848L178.74,65.735L179.85,62.973L180.95,63.393L182.06,63.545L183.17,63.696L184.27,66.822L185.38,64.905L186.49,67.193L187.59,65.746L188.7,64.609L189.81,64.355L190.92,63.416L192.02,63.389L193.13,63.999L194.24,63.867L195.34,64.052L196.45,63.253L197.56,64.177L198.66,63.155L199.77,63.878L200.88,62.798L201.98,62.851L203.09,61.048L204.2,62.435L205.3,62.385L206.41,61.961L207.52,61.681L208.63,62.829L209.73,61.696L210.84,62.329L211.95,59.768L213.05,62.048L214.16,59.999L215.27,61.158L216.37,60.381L217.48,59.256L218.59,60.518L219.69,59.601L220.8,59.593L221.91,59.464L223.01,58.889L224.12,59.669L225.23,57.839L226.34,58.506L227.44,57.983L228.55,57.513L229.66,58.252L230.76,57.718L231.87,58.12L232.98,57.938L234.08,57.104L235.19,57.699L236.3,56.453L237.4,56.68L238.51,56.881L239.62,56.453L240.72,56.418L241.83,56.422L242.94,56.396L244.05,56.275L245.15,55.892L246.26,55.468L247.37,54.994L248.47,55.009L249.58,54.911L250.69,54.956L251.79,54.82L252.9,55.13L254.01,54.335L255.11,54.411L256.22,54.35L257.33,53.634L258.43,53.975L259.54,53.736L260.65,53.888L261.76,53.721L262.86,53.141L263.97,53.619L265.08,53.266L266.18,52.963L267.29,52.789L268.4,52.297L269.5,52.547L270.61,52.19L271.72,52.065L272.82,51.978L273.93,52.031L275.04,52.065L276.14,51.724L277.25,51.581L278.36,51.808L279.47,51.562L280.57,51.482L281.68,51.33L282.79,51.054L283.89,50.914L285,50.868L286.11,50.652L287.21,50.777L288.32,50.429L289.43,50.467L290.53,50.175L291.64,50.19L292.75,50.035L293.85,50.061L294.96,50.16L296.07,49.698L297.18,49.595L298.28,49.607L299.39,49.463L300.5,49.569L301.6,49.281L302.71,49.398L303.82,49.042L304.92,49.33L306.03,49.194L307.14,48.747L308.24,49.038L309.35,48.792L310.46,48.819L311.56,48.413L312.67,48.675L313.78,48.69L314.89,48.603L315.99,48.41L317.1,48.284L318.21,48.209L319.31,48.076L320.42,48.106L321.53,48.08L322.63,47.887L323.74,47.902L324.85,47.743L325.95,47.784L327.06,47.83L328.17,47.561L329.27,47.614L330.38,47.762L331.49,47.542L332.6,47.428L333.7,47.368L334.81,47.394L335.92,47.368L337.02,47.216L338.13,47.254L339.24,47.277L340.34,47.235L341.45,47.008L342.56,47.027L343.66,47.065L344.77,46.943L345.88,46.909L346.98,46.864L348.09,46.841L349.2,46.856L350.3,46.633L351.41,46.659L352.52,46.561L353.63,46.784L354.73,46.599L355.84,46.599L356.95,46.534L358.05,46.553L359.16,46.485L360.27,46.326L361.37,46.409L362.48,46.405L363.59,46.405L364.69,46.284L365.8,46.265L366.91,46.277L368.01,46.091L369.12,46.155L370.23,46.087L371.34,46.083L372.44,46.045L373.55,46.125L374.66,46.045L375.76,46.03L376.87,46.008L377.98,45.966L379.08,46.042L380.19,45.898L381.3,45.89L382.4,45.932L383.51,45.883L384.62,45.92L385.72,45.799L386.83,45.814L387.94,45.833L389.05,45.704L390.15,45.807L391.26,45.799L392.37,45.629L393.47,45.727L394.58,45.735L395.69,45.644L396.79,45.735L397.9,45.72L399.01,45.621L400.11,45.686L401.22,45.598L402.33,45.67L403.43,45.568L404.54,45.583L405.65,45.572L406.76,45.557L407.86,45.519L408.97,45.549L410.08,45.561L411.18,45.504L412.29,45.542L413.4,45.428L414.5,45.526L415.61,45.473L416.72,45.477L417.82,45.454L418.93,45.504L420.04,45.462L421.14,45.47L422.25,45.466L423.36,45.428L424.47,45.462L425.57,45.405L426.68,45.454L427.79,45.382L428.89,45.367L430,45.405L431.11,45.367L432.21,45.299L433.32,45.345L434.43,45.326L435.53,45.322L436.64,45.364L437.75,45.345L438.85,45.284L439.96,45.345L441.07,45.318L442.18,45.303L443.28,45.288L444.39,45.322L445.5,45.326L446.6,45.299L447.71,45.284L448.82,45.303L449.92,45.284L451.03,45.288L452.14,45.318L453.24,45.273L454.35,45.288L455.46,45.216L456.56,45.261L457.67,45.25L458.78,45.265L459.89,45.208L460.99,45.261L462.1,45.231L463.21,45.246L464.31,45.227L465.42,45.216L466.53,45.227L467.63,45.208L468.74,45.22L469.85,45.242L470.95,45.204L472.06,45.212L473.17,45.208L474.27,45.223L475.38,45.22L476.49,45.212L477.6,45.208L478.7,45.223L479.81,45.22L480.92,45.208L482.02,45.223L483.13,45.212L484.24,45.185L485.34,45.201L486.45,45.189L487.56,45.17L488.66,45.208L489.77,45.197L490.88,45.182L491.98,45.182L493.09,45.17L494.2,45.185L495.31,45.185L496.41,45.197L497.52,45.189L498.63,45.189L499.73,45.197L500.84,45.193L501.95,45.17L503.05,45.174L504.16,45.189L505.27,45.178L506.37,45.182L507.48,45.163L508.59,45.167L509.69,45.159L510.8,45.159L511.91,45.17L513.02,45.174L514.12,45.159L515.23,45.155L516.34,45.155L517.44,45.163L518.55,45.17L519.66,45.182L520.76,45.17L521.87,45.155L522.98,45.163L524.08,45.159L526.3,45.178L527.4,45.167L528.51,45.155L529.62,45.159L530.73,45.159L532.94,45.155L534.05,45.163L535.15,45.163L536.26,45.151L537.37,45.167L539.58,45.151L540.69,45.163L541.79,45.151L542.9,45.163L544.01,45.155L545.11,45.163L546.22,45.159L547.33,45.155L548.43,45.159L550.65,45.163L551.76,45.155L552.86,45.155L555.08,45.155L556.18,45.151L557.29,45.151L558.4,45.155L559.5,45.151L560.61,45.151L561.72,45.155L563.93,45.151L570.57,45.151L572.79,45.151L575,45.159L578.32,45.151L581.64,45.155L583.85,45.151L586.07,45.151L587.18,45.151L589.39,45.151L591.6,45.151L592.71,45.151L596.03,45.151L597.14,45.155L602.67,45.151L603.78,45.151L604.89,45.151L610.42,45.151L611.53,45.151L617.06,45.151L656.91,45.151L659.12,45.151L720,45.151" style="fill:none;stroke:#0000FF" />
</g>
</svg>
