<?xml version="1.0"?>
<!-- Generated by SVGo and Plotinum VG -->
<svg width="720pt" height="432pt" viewBox="0 0 720 432"
	xmlns="http://www.w3.org/2000/svg"
	xmlns:xlink="http://www.w3.org/1999/xlink">
<g transform="scale(1, -1) translate(0, -432)">
<path d="M0,0L720,0L720,432L0,432Z" style="fill:#FFFFFF" />
<text x="358.5" y="-420.45" transform="scale(1, -1)"
	style="font-family:Times;font-weight:normal;font-style:normal;font-size:12px"> </text>
<text x="379.31" y="-3.8613" transform="scale(1, -1)"
	style="font-family:Times;font-weight:normal;font-style:normal;font-size:12px">Costs</text>
<text x="56.555" y="-18.634" transform="scale(1, -1)"
	style="font-family:Times;font-weight:normal;font-style:normal;font-size:10px">0.00</text>
<text x="363.31" y="-18.634" transform="scale(1, -1)"
	style="font-family:Times;font-weight:normal;font-style:normal;font-size:10px">250.00</text>
<text x="675.07" y="-18.634" transform="scale(1, -1)"
	style="font-family:Times;font-weight:normal;font-style:normal;font-size:10px">500.00</text>
<path d="M65.305,28.263L65.305,36.263" style="fill:none;stroke:#000000;stroke-width:0.5" />
<path d="M377.06,28.263L377.06,36.263" style="fill:none;stroke:#000000;stroke-width:0.5" />
<path d="M688.82,28.263L688.82,36.263" style="fill:none;stroke:#000000;stroke-width:0.5" />
<path d="M127.66,32.263L127.66,36.263" style="fill:none;stroke:#000000;stroke-width:0.5" />
<path d="M190.01,32.263L190.01,36.263" style="fill:none;stroke:#000000;stroke-width:0.5" />
<path d="M252.36,32.263L252.36,36.263" style="fill:none;stroke:#000000;stroke-width:0.5" />
<path d="M314.71,32.263L314.71,36.263" style="fill:none;stroke:#000000;stroke-width:0.5" />
<path d="M439.42,32.263L439.42,36.263" style="fill:none;stroke:#000000;stroke-width:0.5" />
<path d="M501.77,32.263L501.77,36.263" style="fill:none;stroke:#000000;stroke-width:0.5" />
<path d="M564.12,32.263L564.12,36.263" style="fill:none;stroke:#000000;stroke-width:0.5" />
<path d="M626.47,32.263L626.47,36.263" style="fill:none;stroke:#000000;stroke-width:0.5" />
<path d="M65.305,36.263L720,36.263" style="fill:none;stroke:#000000;stroke-width:0.5" />
<g transform="rotate(90)">
<text x="152.55" y="11.555" transform="scale(1, -1)"
	style="font-family:Times;font-weight:normal;font-style:normal;font-size:12px">Number of trials (1000000 total)</text>
</g>
<text x="24.055" y="-92.752" transform="scale(1, -1)"
	style="font-family:Times;font-weight:normal;font-style:normal;font-size:10px">20000</text>
<text x="24.055" y="-245.18" transform="scale(1, -1)"
	style="font-family:Times;font-weight:normal;font-style:normal;font-size:10px">80000</text>
<text x="19.055" y="-397.6" transform="scale(1, -1)"
	style="font-family:Times;font-weight:normal;font-style:normal;font-size:10px">140000</text>
<path d="M51.555,95.958L59.555,95.958" style="fill:none;stroke:#000000;stroke-width:0.5" />
<path d="M51.555,248.38L59.555,248.38" style="fill:none;stroke:#000000;stroke-width:0.5" />
<path d="M51.555,400.81L59.555,400.81" style="fill:none;stroke:#000000;stroke-width:0.5" />
<path d="M55.555,172.17L59.555,172.17" style="fill:none;stroke:#000000;stroke-width:0.5" />
<path d="M55.555,324.6L59.555,324.6" style="fill:none;stroke:#000000;stroke-width:0.5" />
<path d="M59.555,45.151L59.555,416.58" style="fill:none;stroke:#000000;stroke-width:0.5" />
<path d="M65.305,416.58L92.74,58.872L93.987,52.074L97.728,96.682L98.975,48.477L100.22,76.892L101.47,48.599L105.21,48.586L106.46,78.388L107.7,73.325L108.95,76.909L110.2,77.092L111.45,55.687L112.69,75.014L113.94,92.02L115.19,62.414L116.43,62.447L117.68,52.181L118.93,62.482L120.17,83.751L121.42,45.377L122.67,62.391L125.16,76.914L126.41,83.535L127.66,52.798L128.9,45.756L130.15,46.841L131.4,102.35L132.64,59.843L133.89,50.598L135.14,65.51L136.39,57.749L137.63,57.958L138.88,64.878L140.13,57.795L141.37,65.678L142.62,54.137L143.87,67.881L145.12,52.45L146.36,54.119L147.61,52.93L148.86,77.288L150.1,52.818L151.35,54.973L152.6,57.003L153.84,68.897L155.09,60.447L156.34,61.293L157.59,60.16L158.83,60.564L160.08,57.531L161.33,70.835L162.57,55.623L163.82,63.669L165.07,63.039L166.31,60.203L167.56,63.176L168.81,60.783L170.06,58.989L171.3,58.768L172.55,58.936L173.8,63.755L175.04,61.209L176.29,62.495L177.54,55.958L178.79,58.74L180.03,64.21L181.28,63.094L182.53,58.4L183.77,58.847L185.02,57.094L186.27,64.962L187.51,56.047L188.76,59.858L190.01,56.378L191.26,59.634L192.5,62.264L193.75,58.224L195,55.349L196.24,58.176L197.49,60.938L198.74,58.971L199.98,55.532L201.23,57.767L202.48,57.907L203.73,58.321L204.97,57.663L206.22,56.639L207.47,55.575L208.71,57.671L209.96,59.154L211.21,55.88L212.46,54.104L213.7,56.017L214.95,58.636L216.2,56.146L217.44,54.145L218.69,55.666L219.94,56.019L221.18,55.73L222.43,56.294L223.68,54.858L224.93,55.222L226.17,54.167L227.42,57.145L228.67,53.875L229.91,54.183L231.16,55.046L232.41,54.048L233.65,54.061L234.9,54.355L236.15,53.824L237.4,54.742L238.64,53.06L239.89,54.089L241.14,53.479L242.38,53.504L243.63,53.177L244.88,53.393L246.13,52.933L247.37,53.349L248.62,52.745L249.87,52.872L251.11,52.341L252.36,53.22L253.61,52.224L254.85,52.511L256.1,51.744L257.35,52.135L258.6,52.287L259.84,51.993L261.09,51.111L262.34,51.663L263.58,51.718L264.83,51.665L266.08,51.032L267.32,51.012L268.57,51.058L269.82,51.518L271.07,50.778L272.31,50.898L273.56,50.298L274.81,50.598L276.05,50.794L277.3,50.446L278.55,50.024L279.8,49.955L281.04,50.273L282.29,50.181L283.54,49.729L284.78,49.811L286.03,49.711L287.28,49.574L288.52,49.673L289.77,49.363L291.02,49.473L292.27,49.44L293.51,49.15L294.76,49.239L296.01,48.939L297.25,48.893L298.5,49.033L299.75,48.858L301,48.683L302.24,48.66L303.49,48.764L304.74,48.558L305.98,48.599L307.23,48.576L308.48,48.342L309.72,48.411L310.97,48.322L312.22,48.205L313.47,47.989L314.71,48.053L315.96,48.027L317.21,47.804L318.45,47.788L319.7,47.814L320.95,47.732L322.19,47.611L323.44,47.659L324.69,47.595L325.94,47.537L327.18,47.509L328.43,47.438L329.68,47.478L330.92,47.237L332.17,47.202L333.42,47.313L334.67,47.224L335.91,47.141L337.16,47.019L338.41,47.008L339.65,46.991L340.9,47.001L342.15,47.011L343.39,46.892L344.64,46.744L345.89,46.869L347.14,46.836L348.38,46.82L349.63,46.724L350.88,46.584L352.12,46.714L353.37,46.521L354.62,46.538L355.86,46.526L357.11,46.381L358.36,46.493L359.61,46.47L360.85,46.47L362.1,46.35L363.35,46.259L364.59,46.338L365.84,46.401L367.09,46.251L368.34,46.216L369.58,46.162L370.83,46.208L372.08,46.051L373.32,46.086L374.57,46.046L375.82,46.018L377.06,46.109L378.31,45.972L379.56,46.043L380.81,45.967L382.05,45.952L383.3,45.98L384.55,45.901L385.79,45.865L387.04,45.893L388.29,45.883L389.53,45.878L390.78,45.756L392.03,45.82L393.28,45.855L394.52,45.794L395.77,45.728L397.02,45.743L398.26,45.751L399.51,45.748L400.76,45.624L402.01,45.682L403.25,45.675L404.5,45.677L405.75,45.576L406.99,45.619L408.24,45.593L409.49,45.591L410.73,45.54L411.98,45.588L413.23,45.553L414.48,45.54L415.72,45.52L416.97,45.527L418.22,45.573L419.46,45.53L420.71,45.507L421.96,45.492L423.2,45.504L424.45,45.51L425.7,45.479L426.95,45.436L428.19,45.479L429.44,45.492L430.69,45.466L431.93,45.398L433.18,45.393L434.43,45.408L435.68,45.362L436.92,45.388L438.17,45.347L439.42,45.35L440.66,45.383L441.91,45.393L443.16,45.344L444.4,45.319L445.65,45.357L446.9,45.365L448.15,45.352L449.39,45.347L450.64,45.342L451.89,45.324L453.13,45.291L454.38,45.296L455.63,45.319L456.87,45.268L458.12,45.286L459.37,45.273L460.62,45.268L461.86,45.283L463.11,45.256L464.36,45.263L465.6,45.256L466.85,45.304L468.1,45.258L469.35,45.258L470.59,45.24L471.84,45.233L473.09,45.23L474.33,45.261L475.58,45.263L476.83,45.233L478.07,45.253L479.32,45.222L480.57,45.24L481.82,45.238L483.06,45.235L484.31,45.228L485.56,45.217L486.8,45.21L488.05,45.212L489.3,45.21L490.54,45.21L491.79,45.222L493.04,45.205L494.29,45.207L495.53,45.217L496.78,45.205L498.03,45.187L499.27,45.202L500.52,45.202L501.77,45.182L503.02,45.202L504.26,45.2L505.51,45.184L506.76,45.187L508,45.179L509.25,45.202L510.5,45.169L511.74,45.207L512.99,45.187L514.24,45.179L515.49,45.184L516.73,45.182L517.98,45.179L519.23,45.182L520.47,45.174L521.72,45.167L522.97,45.169L524.21,45.174L525.46,45.169L526.71,45.179L527.96,45.177L529.2,45.169L530.45,45.184L531.7,45.184L532.94,45.167L534.19,45.177L535.44,45.179L536.69,45.156L537.93,45.164L539.18,45.167L540.43,45.167L541.67,45.169L542.92,45.167L544.17,45.162L545.41,45.162L546.66,45.159L547.91,45.162L549.16,45.162L550.4,45.159L551.65,45.156L552.9,45.159L554.14,45.162L555.39,45.159L556.64,45.154L557.88,45.172L559.13,45.167L560.38,45.151L561.63,45.159L562.87,45.159L564.12,45.167L565.37,45.151L566.61,45.154L567.86,45.159L569.11,45.154L570.36,45.156L571.6,45.159L572.85,45.154L574.1,45.156L575.34,45.156L576.59,45.151L579.08,45.154L580.33,45.154L581.58,45.154L582.83,45.159L584.07,45.151L585.32,45.156L586.57,45.154L587.81,45.154L589.06,45.154L590.31,45.154L591.56,45.154L592.8,45.151L594.05,45.154L595.3,45.151L596.54,45.156L599.04,45.154L600.28,45.156L601.53,45.151L602.78,45.154L605.27,45.151L606.52,45.151L609.01,45.151L612.75,45.154L616.5,45.154L617.74,45.151L618.99,45.151L622.73,45.151L626.47,45.154L630.21,45.151L632.71,45.151L635.2,45.151L641.44,45.151L645.18,45.151L646.42,45.154L652.66,45.151L656.4,45.154L662.64,45.151L688.82,45.151L697.55,45.151L720,45.151" style="fill:none;stroke:#0000FF" />
</g>
</svg>
