<?xml version="1.0"?>
<!-- Generated by SVGo and Plotinum VG -->
<svg width="720pt" height="432pt" viewBox="0 0 720 432"
	xmlns="http://www.w3.org/2000/svg"
	xmlns:xlink="http://www.w3.org/1999/xlink">
<g transform="scale(1, -1) translate(0, -432)">
<path d="M0,0L720,0L720,432L0,432Z" style="fill:#FFFFFF" />
<text x="358.5" y="-420.45" transform="scale(1, -1)"
	style="font-family:Times;font-weight:normal;font-style:normal;font-size:12px"> </text>
<text x="379.31" y="-3.8613" transform="scale(1, -1)"
	style="font-family:Times;font-weight:normal;font-style:normal;font-size:12px">Costs</text>
<text x="62.805" y="-18.634" transform="scale(1, -1)"
	style="font-family:Times;font-weight:normal;font-style:normal;font-size:10px">0</text>
<text x="377.17" y="-18.634" transform="scale(1, -1)"
	style="font-family:Times;font-weight:normal;font-style:normal;font-size:10px">200</text>
<text x="696.53" y="-18.634" transform="scale(1, -1)"
	style="font-family:Times;font-weight:normal;font-style:normal;font-size:10px">400</text>
<path d="M65.305,28.263L65.305,36.263" style="fill:none;stroke:#000000;stroke-width:0.5" />
<path d="M384.67,28.263L384.67,36.263" style="fill:none;stroke:#000000;stroke-width:0.5" />
<path d="M704.03,28.263L704.03,36.263" style="fill:none;stroke:#000000;stroke-width:0.5" />
<path d="M224.99,32.263L224.99,36.263" style="fill:none;stroke:#000000;stroke-width:0.5" />
<path d="M544.35,32.263L544.35,36.263" style="fill:none;stroke:#000000;stroke-width:0.5" />
<path d="M65.305,36.263L720,36.263" style="fill:none;stroke:#000000;stroke-width:0.5" />
<g transform="rotate(90)">
<text x="151.8" y="11.555" transform="scale(1, -1)"
	style="font-family:Times;font-weight:normal;font-style:normal;font-size:12px">Number of trials (1000000 total)</text>
</g>
<text x="24.055" y="-114.95" transform="scale(1, -1)"
	style="font-family:Times;font-weight:normal;font-style:normal;font-size:10px">50000</text>
<text x="19.055" y="-260.95" transform="scale(1, -1)"
	style="font-family:Times;font-weight:normal;font-style:normal;font-size:10px">150000</text>
<text x="19.055" y="-406.96" transform="scale(1, -1)"
	style="font-family:Times;font-weight:normal;font-style:normal;font-size:10px">250000</text>
<path d="M51.555,118.15L59.555,118.15" style="fill:none;stroke:#000000;stroke-width:0.5" />
<path d="M51.555,264.16L59.555,264.16" style="fill:none;stroke:#000000;stroke-width:0.5" />
<path d="M51.555,410.16L59.555,410.16" style="fill:none;stroke:#000000;stroke-width:0.5" />
<path d="M55.555,191.15L59.555,191.15" style="fill:none;stroke:#000000;stroke-width:0.5" />
<path d="M55.555,337.16L59.555,337.16" style="fill:none;stroke:#000000;stroke-width:0.5" />
<path d="M59.555,45.151L59.555,415.08" style="fill:none;stroke:#000000;stroke-width:0.5" />
<path d="M65.305,415.08L102.03,52.243L106.82,66.408L108.42,66.066L110.02,59.333L114.81,48.517L116.4,48.524L118,114.84L119.6,67.205L121.19,59.285L124.39,48.558L125.98,55.242L127.58,52.133L129.18,55.724L130.77,55.661L135.56,80.981L137.16,108.47L138.76,70.674L143.55,59.14L145.15,48.901L146.74,52.227L148.34,45.325L149.94,127.69L151.53,59.787L153.13,49.384L154.73,49.926L156.32,52.57L157.92,83.459L159.52,49.591L161.11,53.849L162.71,53.297L164.31,54.001L165.9,45.884L167.5,46.747L169.1,47.121L170.69,48.096L172.29,51.751L173.89,49.869L175.49,46.93L177.08,48.245L178.68,52.986L180.28,54.161L181.87,51.919L183.47,52.453L185.07,47.249L186.66,49.203L188.26,54.621L189.86,59.613L191.45,60.8L193.05,54.807L194.65,51.627L196.24,50.521L197.84,50.17L199.44,53.662L201.03,52.52L202.63,65.836L204.23,54.18L205.82,52.208L207.42,54.38L209.02,51.326L210.62,60.127L212.21,50.105L213.81,51.907L215.41,52.31L217,50.847L218.6,48.782L220.2,54.836L221.79,62.421L223.39,55.052L224.99,48.623L226.58,47.944L228.18,54.461L229.78,54.409L231.37,51.235L232.97,48.508L234.57,54.545L236.16,53.336L237.76,48.209L239.36,48.385L240.95,48.377L242.55,55.389L244.15,49.926L245.75,49.374L247.34,49.016L248.94,49.498L250.54,47.379L252.13,47.896L253.73,48.702L255.33,48.704L256.92,48.749L258.52,47.765L260.12,47.997L261.71,47.971L263.31,49.012L264.91,48.793L266.5,48.422L268.1,48.55L269.7,47.544L271.29,47.994L272.89,49.076L274.49,50.12L276.08,49.844L277.68,48.118L279.28,47.683L280.88,48.782L282.47,48.639L284.07,48.666L285.67,48.07L287.26,48.642L288.86,48.085L290.46,47.388L292.05,48.33L293.65,47.511L295.25,49.26L296.84,47.276L298.44,47.404L300.04,47.947L301.63,47.365L303.23,47.175L304.83,46.893L306.42,47.921L308.02,47.702L309.62,47.044L311.21,46.407L312.81,47.222L314.41,47.774L316.01,47.026L317.6,46.676L319.2,46.689L320.8,47.03L322.39,46.302L323.99,46.302L325.59,46.384L327.18,46.919L328.78,46.695L330.38,46.359L331.97,46.197L333.57,46.315L335.17,46.223L336.76,46.302L338.36,46.327L339.96,46.343L341.55,46.208L343.15,45.966L344.75,46.182L346.34,46.087L347.94,46.156L349.54,46.096L351.14,45.984L352.73,46.081L354.33,46.023L355.93,45.979L357.52,46.016L359.12,46.001L360.72,46.096L362.31,45.846L363.91,45.858L365.51,46.013L367.1,45.951L368.7,45.902L370.3,45.824L371.89,45.8L373.49,45.867L375.09,45.671L376.68,45.713L378.28,45.687L379.88,45.741L381.47,45.703L383.07,45.616L384.67,45.651L386.27,45.64L387.86,45.578L389.46,45.499L391.06,45.581L392.65,45.614L394.25,45.553L395.85,45.489L397.44,45.541L399.04,45.576L400.64,45.528L402.23,45.494L403.83,45.446L405.43,45.484L407.02,45.413L408.62,45.436L410.22,45.42L411.81,45.417L413.41,45.432L415.01,45.337L416.6,45.369L418.2,45.379L419.8,45.346L421.4,45.372L422.99,45.351L424.59,45.367L426.19,45.344L427.78,45.319L429.38,45.356L430.98,45.344L432.57,45.315L434.17,45.313L435.77,45.331L437.36,45.302L438.96,45.284L440.56,45.292L442.15,45.305L443.75,45.261L445.35,45.284L446.94,45.277L448.54,45.277L450.14,45.259L451.73,45.277L453.33,45.267L454.93,45.261L456.53,45.251L458.12,45.24L459.72,45.238L461.32,45.252L462.91,45.242L464.51,45.223L466.11,45.233L467.7,45.226L469.3,45.226L470.9,45.216L472.49,45.22L474.09,45.211L475.69,45.211L477.28,45.21L478.88,45.201L480.48,45.2L482.07,45.216L483.67,45.22L485.27,45.205L486.86,45.195L488.46,45.195L490.06,45.204L491.66,45.176L493.25,45.181L494.85,45.188L496.45,45.189L498.04,45.188L499.64,45.189L501.24,45.178L502.83,45.181L504.43,45.178L506.03,45.176L507.62,45.178L509.22,45.17L510.82,45.176L512.41,45.185L514.01,45.179L515.61,45.183L517.2,45.172L518.8,45.17L520.4,45.173L521.99,45.183L523.59,45.163L525.19,45.166L526.79,45.173L528.38,45.167L529.98,45.169L531.58,45.166L533.17,45.157L534.77,45.166L536.37,45.166L537.96,45.169L539.56,45.165L541.16,45.163L542.75,45.159L544.35,45.165L545.95,45.154L547.54,45.157L549.14,45.157L550.74,45.16L552.33,45.157L553.93,45.16L555.53,45.159L557.12,45.157L558.72,45.157L560.32,45.156L561.92,45.156L563.51,45.159L565.11,45.154L566.71,45.154L568.3,45.157L569.9,45.154L571.5,45.156L573.09,45.151L574.69,45.159L576.29,45.157L577.88,45.154L579.48,45.154L581.08,45.151L582.67,45.151L584.27,45.154L585.87,45.153L587.46,45.156L590.66,45.156L592.25,45.151L595.45,45.153L598.64,45.151L600.24,45.154L601.84,45.153L603.43,45.154L605.03,45.151L608.22,45.151L609.82,45.153L611.42,45.151L613.01,45.151L614.61,45.151L616.21,45.151L617.8,45.151L619.4,45.151L624.19,45.151L628.98,45.151L632.18,45.151L633.77,45.151L636.97,45.151L638.56,45.151L643.35,45.151L646.55,45.151L652.93,45.151L667.31,45.151L680.08,45.151L697.64,45.153L716.81,45.151L720,45.151" style="fill:none;stroke:#0000FF" />
</g>
</svg>
