<?xml version="1.0"?>
<!-- Generated by SVGo and Plotinum VG -->
<svg width="720pt" height="432pt" viewBox="0 0 720 432"
	xmlns="http://www.w3.org/2000/svg"
	xmlns:xlink="http://www.w3.org/1999/xlink">
<g transform="scale(1, -1) translate(0, -432)">
<path d="M0,0L720,0L720,432L0,432Z" style="fill:#FFFFFF" />
<text x="358.5" y="-420.45" transform="scale(1, -1)"
	style="font-family:Times;font-weight:normal;font-style:normal;font-size:12px"> </text>
<text x="383.72" y="-3.8613" transform="scale(1, -1)"
	style="font-family:Times;font-weight:normal;font-style:normal;font-size:12px">Costs</text>
<text x="69.055" y="-18.634" transform="scale(1, -1)"
	style="font-family:Times;font-weight:normal;font-style:normal;font-size:10px">0.00</text>
<text x="378.28" y="-18.634" transform="scale(1, -1)"
	style="font-family:Times;font-weight:normal;font-style:normal;font-size:10px">250.00</text>
<text x="692.5" y="-18.634" transform="scale(1, -1)"
	style="font-family:Times;font-weight:normal;font-style:normal;font-size:10px">500.00</text>
<path d="M77.805,28.263L77.805,36.263" style="fill:none;stroke:#000000;stroke-width:0.5" />
<path d="M392.03,28.263L392.03,36.263" style="fill:none;stroke:#000000;stroke-width:0.5" />
<path d="M706.25,28.263L706.25,36.263" style="fill:none;stroke:#000000;stroke-width:0.5" />
<path d="M140.65,32.263L140.65,36.263" style="fill:none;stroke:#000000;stroke-width:0.5" />
<path d="M203.49,32.263L203.49,36.263" style="fill:none;stroke:#000000;stroke-width:0.5" />
<path d="M266.34,32.263L266.34,36.263" style="fill:none;stroke:#000000;stroke-width:0.5" />
<path d="M329.18,32.263L329.18,36.263" style="fill:none;stroke:#000000;stroke-width:0.5" />
<path d="M454.87,32.263L454.87,36.263" style="fill:none;stroke:#000000;stroke-width:0.5" />
<path d="M517.72,32.263L517.72,36.263" style="fill:none;stroke:#000000;stroke-width:0.5" />
<path d="M580.56,32.263L580.56,36.263" style="fill:none;stroke:#000000;stroke-width:0.5" />
<path d="M643.41,32.263L643.41,36.263" style="fill:none;stroke:#000000;stroke-width:0.5" />
<path d="M77.805,36.263L716.31,36.263" style="fill:none;stroke:#000000;stroke-width:0.5" />
<g transform="rotate(90)">
<text x="152.55" y="11.555" transform="scale(1, -1)"
	style="font-family:Times;font-weight:normal;font-style:normal;font-size:12px">Number of trials (1000000 total)</text>
</g>
<text x="24.055" y="-92.383" transform="scale(1, -1)"
	style="font-family:Times;font-weight:normal;font-style:normal;font-size:10px">25000.00</text>
<text x="19.055" y="-243.7" transform="scale(1, -1)"
	style="font-family:Times;font-weight:normal;font-style:normal;font-size:10px">100000.00</text>
<text x="19.055" y="-395.02" transform="scale(1, -1)"
	style="font-family:Times;font-weight:normal;font-style:normal;font-size:10px">175000.00</text>
<path d="M64.055,95.589L72.055,95.589" style="fill:none;stroke:#000000;stroke-width:0.5" />
<path d="M64.055,246.91L72.055,246.91" style="fill:none;stroke:#000000;stroke-width:0.5" />
<path d="M64.055,398.22L72.055,398.22" style="fill:none;stroke:#000000;stroke-width:0.5" />
<path d="M68.055,171.25L72.055,171.25" style="fill:none;stroke:#000000;stroke-width:0.5" />
<path d="M68.055,322.57L72.055,322.57" style="fill:none;stroke:#000000;stroke-width:0.5" />
<path d="M72.055,45.151L72.055,416.58" style="fill:none;stroke:#000000;stroke-width:0.5" />
<path d="M77.805,416.58L105.46,55.425L106.71,56.198L110.48,66.687L111.74,58.879L113,69.3L114.25,55.161L115.51,48.603L116.77,77.739L118.03,55.495L119.28,59.613L120.54,62.734L121.8,80.4L124.31,62.343L126.82,70.585L128.08,73.823L129.34,88.793L130.59,80.594L131.85,73.234L133.11,73.252L134.36,52.32L135.62,63.364L138.14,49.114L139.39,52.957L140.65,56.799L141.91,67.91L143.16,45.708L144.42,74.838L145.68,54.705L146.93,50.976L148.19,60.681L149.45,56.066L150.7,51.977L151.96,66.725L153.22,52.102L154.48,57.057L155.73,69.138L156.99,62.839L158.25,50.294L159.5,51.789L160.76,53.559L162.02,52.828L163.27,55.427L164.53,54.608L165.79,55.556L167.04,54.113L168.3,56.682L169.56,69.096L170.81,59.706L172.07,56.208L173.33,57.015L174.59,70.413L175.84,54.557L177.1,56.704L178.36,54.735L179.61,72.431L180.87,57.237L182.13,57.878L183.38,59.192L184.64,59.147L185.9,56.769L187.15,55.947L188.41,56.389L189.67,53.468L190.92,57.073L192.18,54.331L193.44,55.257L194.7,56.012L195.95,56.916L197.21,55.627L198.47,55.705L199.72,55.794L200.98,53.625L202.24,55.282L203.49,54.4L204.75,54.295L206.01,54.491L207.26,56.2L208.52,56.694L209.78,54.581L211.04,53.201L212.29,53.799L213.55,54.245L214.81,52.931L216.06,53.08L217.32,51.86L218.58,55.479L219.83,53.46L221.09,54.43L222.35,54.103L223.6,55.812L224.86,53.175L226.12,54.134L227.37,53.123L228.63,52.933L229.89,53.635L231.15,53.135L232.4,53.306L233.66,52.628L234.92,52.564L236.17,52.017L237.43,52.54L238.69,51.424L239.94,51.176L241.2,52.16L242.46,51.164L243.71,52.233L244.97,50.827L246.23,51.995L247.48,51.313L248.74,51.936L250,50.786L251.26,50.998L252.51,50.956L253.77,51.259L255.03,50.022L256.28,50.157L257.54,50.809L258.8,50.496L260.05,50.115L261.31,49.826L262.57,50.209L263.82,49.893L265.08,49.897L266.34,50.004L267.6,49.586L268.85,49.414L270.11,49.308L271.37,49.923L272.62,49.453L273.88,49.443L275.14,49.388L276.39,49.897L277.65,49.092L278.91,49.203L280.16,48.912L281.42,48.854L282.68,48.908L283.93,48.825L285.19,48.668L286.45,48.769L287.71,48.622L288.96,48.313L290.22,48.462L291.48,48.396L292.73,48.371L293.99,48.083L295.25,48.02L296.5,48.026L297.76,47.978L299.02,47.996L300.27,48.002L301.53,47.887L302.79,47.667L304.04,47.696L305.3,47.633L306.56,47.57L307.82,47.554L309.07,47.522L310.33,47.486L311.59,47.466L312.84,47.367L314.1,47.193L315.36,47.223L316.61,47.193L317.87,47.108L319.13,47.05L320.38,47.165L321.64,46.973L322.9,46.888L324.16,47.022L325.41,46.79L326.67,46.868L327.93,46.808L329.18,46.78L330.44,46.715L331.7,46.707L332.95,46.541L334.21,46.624L335.47,46.667L336.72,46.58L337.98,46.447L339.24,46.404L340.49,46.513L341.75,46.364L343.01,46.433L344.27,46.374L345.52,46.412L346.78,46.305L348.04,46.303L349.29,46.275L350.55,46.192L351.81,46.203L353.06,46.178L354.32,46.122L355.58,46.196L356.83,46.067L358.09,46.067L359.35,46.075L360.61,46.037L361.86,45.975L363.12,45.979L364.38,45.946L365.63,46.015L366.89,45.862L368.15,45.906L369.4,45.876L370.66,45.902L371.92,45.882L373.17,45.823L374.43,45.793L375.69,45.787L376.94,45.809L378.2,45.718L379.46,45.763L380.72,45.674L381.97,45.702L383.23,45.636L384.49,45.682L385.74,45.664L387,45.571L388.26,45.611L389.51,45.636L390.77,45.696L392.03,45.557L393.28,45.579L394.54,45.571L395.8,45.523L397.05,45.506L398.31,45.557L399.57,45.563L400.83,45.488L402.08,45.456L403.34,45.48L404.6,45.456L405.85,45.48L407.11,45.492L408.37,45.444L409.62,45.448L410.88,45.432L412.14,45.428L413.39,45.42L414.65,45.414L415.91,45.398L417.17,45.387L418.42,45.363L419.68,45.43L420.94,45.387L422.19,45.367L423.45,45.379L424.71,45.385L425.96,45.357L427.22,45.349L428.48,45.337L429.73,45.331L430.99,45.339L432.25,45.283L433.5,45.301L434.76,45.274L436.02,45.295L437.28,45.299L438.53,45.301L439.79,45.297L441.05,45.293L442.3,45.307L443.56,45.274L444.82,45.26L446.07,45.291L447.33,45.252L448.59,45.274L449.84,45.272L451.1,45.272L452.36,45.236L453.61,45.254L454.87,45.224L456.13,45.224L457.39,45.25L458.64,45.252L459.9,45.236L461.16,45.23L462.41,45.222L463.67,45.23L464.93,45.242L466.18,45.22L467.44,45.212L468.7,45.224L469.95,45.224L471.21,45.202L472.47,45.212L473.73,45.202L474.98,45.212L476.24,45.198L477.5,45.192L478.75,45.19L480.01,45.202L481.27,45.176L482.52,45.192L483.78,45.19L485.04,45.194L486.29,45.21L487.55,45.19L488.81,45.194L490.06,45.176L491.32,45.19L492.58,45.178L493.84,45.17L495.09,45.18L496.35,45.182L497.61,45.186L498.86,45.178L500.12,45.188L501.38,45.18L502.63,45.182L503.89,45.178L505.15,45.172L506.4,45.182L507.66,45.18L508.92,45.178L510.18,45.176L511.43,45.168L512.69,45.159L513.95,45.174L515.2,45.163L516.46,45.165L517.72,45.176L518.97,45.17L520.23,45.174L521.49,45.17L522.74,45.165L524,45.168L525.26,45.163L526.51,45.168L527.77,45.161L529.03,45.165L530.29,45.161L531.54,45.161L532.8,45.151L534.06,45.161L535.31,45.157L536.57,45.159L537.83,45.153L539.08,45.155L540.34,45.155L541.6,45.155L542.85,45.151L544.11,45.151L545.37,45.155L546.62,45.157L547.88,45.159L549.14,45.159L550.4,45.155L551.65,45.159L552.91,45.157L554.17,45.155L555.42,45.155L556.68,45.155L559.19,45.151L560.45,45.153L561.71,45.153L562.96,45.151L564.22,45.155L565.48,45.155L566.74,45.153L567.99,45.155L569.25,45.157L570.51,45.153L571.76,45.151L576.79,45.151L578.05,45.153L583.07,45.151L585.59,45.151L588.1,45.157L589.36,45.157L591.87,45.151L593.13,45.151L598.16,45.151L599.41,45.151L604.44,45.151L608.21,45.151L609.47,45.151L613.24,45.151L615.75,45.151L622.04,45.151L624.55,45.151L625.81,45.153L628.32,45.151L632.09,45.151L638.38,45.151L643.41,45.151L653.46,45.153L654.72,45.151L664.77,45.151L669.8,45.151L689.91,45.151L702.48,45.153L713.79,45.151L716.31,45.151" style="fill:none;stroke:#0000FF" />
</g>
</svg>
