<?xml version="1.0"?>
<!-- Generated by SVGo and Plotinum VG -->
<svg width="720pt" height="432pt" viewBox="0 0 720 432"
	xmlns="http://www.w3.org/2000/svg"
	xmlns:xlink="http://www.w3.org/1999/xlink">
<g transform="scale(1, -1) translate(0, -432)">
<path d="M0,0L720,0L720,432L0,432Z" style="fill:#FFFFFF" />
<text x="358.5" y="-420.45" transform="scale(1, -1)"
	style="font-family:Times;font-weight:normal;font-style:normal;font-size:12px"> </text>
<text x="376.81" y="-3.8613" transform="scale(1, -1)"
	style="font-family:Times;font-weight:normal;font-style:normal;font-size:12px">Costs</text>
<text x="57.805" y="-18.634" transform="scale(1, -1)"
	style="font-family:Times;font-weight:normal;font-style:normal;font-size:10px">0</text>
<text x="335.94" y="-18.634" transform="scale(1, -1)"
	style="font-family:Times;font-weight:normal;font-style:normal;font-size:10px">300</text>
<text x="619.07" y="-18.634" transform="scale(1, -1)"
	style="font-family:Times;font-weight:normal;font-style:normal;font-size:10px">600</text>
<path d="M60.305,28.263L60.305,36.263" style="fill:none;stroke:#000000;stroke-width:0.5" />
<path d="M343.44,28.263L343.44,36.263" style="fill:none;stroke:#000000;stroke-width:0.5" />
<path d="M626.57,28.263L626.57,36.263" style="fill:none;stroke:#000000;stroke-width:0.5" />
<path d="M154.68,32.263L154.68,36.263" style="fill:none;stroke:#000000;stroke-width:0.5" />
<path d="M249.06,32.263L249.06,36.263" style="fill:none;stroke:#000000;stroke-width:0.5" />
<path d="M437.81,32.263L437.81,36.263" style="fill:none;stroke:#000000;stroke-width:0.5" />
<path d="M532.19,32.263L532.19,36.263" style="fill:none;stroke:#000000;stroke-width:0.5" />
<path d="M60.305,36.263L720,36.263" style="fill:none;stroke:#000000;stroke-width:0.5" />
<g transform="rotate(90)">
<text x="152.55" y="11.555" transform="scale(1, -1)"
	style="font-family:Times;font-weight:normal;font-style:normal;font-size:12px">Number of trials (1000000 total)</text>
</g>
<text x="24.055" y="-112.12" transform="scale(1, -1)"
	style="font-family:Times;font-weight:normal;font-style:normal;font-size:10px">3000</text>
<text x="24.055" y="-252.51" transform="scale(1, -1)"
	style="font-family:Times;font-weight:normal;font-style:normal;font-size:10px">9000</text>
<text x="19.055" y="-392.9" transform="scale(1, -1)"
	style="font-family:Times;font-weight:normal;font-style:normal;font-size:10px">15000</text>
<path d="M46.555,115.32L54.555,115.32" style="fill:none;stroke:#000000;stroke-width:0.5" />
<path d="M46.555,255.72L54.555,255.72" style="fill:none;stroke:#000000;stroke-width:0.5" />
<path d="M46.555,396.11L54.555,396.11" style="fill:none;stroke:#000000;stroke-width:0.5" />
<path d="M50.555,185.52L54.555,185.52" style="fill:none;stroke:#000000;stroke-width:0.5" />
<path d="M50.555,325.91L54.555,325.91" style="fill:none;stroke:#000000;stroke-width:0.5" />
<path d="M54.555,45.151L54.555,416.58" style="fill:none;stroke:#000000;stroke-width:0.5" />
<path d="M60.305,416.58L81.068,64.97L82.011,51.75L82.955,49.129L84.843,75.383L85.786,72.06L86.73,55.564L87.674,52.241L89.562,91.083L90.505,136.48L91.449,86.474L92.393,63.543L93.337,156.97L94.28,119.14L95.224,52.288L96.168,55.096L97.112,141.67L98.055,80.413L98.999,134.63L99.943,129.62L100.89,147.1L101.83,68.129L102.77,110.81L103.72,75.406L104.66,45.245L105.61,50.252L106.55,72.013L107.49,120.94L108.44,107.98L109.38,45.666L110.32,91.411L111.27,138.33L112.21,54.37L113.16,92.394L114.1,58.138L115.04,62.162L115.99,126.32L116.93,54.464L117.87,70.609L118.82,96.208L119.76,95.131L120.71,65.462L121.65,76.459L122.59,79.243L123.54,121.06L124.48,98.524L125.42,81.373L126.37,86.918L127.31,114.15L128.26,93.142L129.2,122.53L130.14,162.45L131.09,121.57L132.03,124.61L132.97,137.51L133.92,125.32L134.86,100.75L135.81,143.61L136.75,152.06L137.69,132.22L138.64,115.16L139.58,125.22L140.53,150.56L141.47,143.92L142.41,112.63L143.36,115.04L144.3,132.73L145.24,114.01L146.19,124.31L147.13,122.88L148.08,126.11L149.02,136.01L149.96,140.74L150.91,124.17L151.85,120.57L152.79,128.43L153.74,121.83L154.68,114.48L155.63,125.39L156.57,123.63L157.51,112.42L158.46,133.74L159.4,128.36L160.34,128.5L161.29,126.77L162.23,128.87L163.18,139.89L164.12,140.74L165.06,111.28L166.01,148.53L166.95,160.04L167.89,127.35L168.84,150.02L169.78,162.99L170.73,153.56L171.67,143.52L172.61,144.25L173.56,148.62L174.5,152.04L175.44,144.48L176.39,151.78L177.33,158.14L178.28,150.59L179.22,154.03L180.16,157.21L181.11,152.41L182.05,144.2L182.99,159.08L183.94,152.48L184.88,148.29L185.83,150.52L186.77,154.17L187.71,153.14L188.66,155.29L189.6,151.64L190.54,143.75L191.49,151.8L192.43,151.03L193.38,148.41L194.32,143.15L195.26,146.44L196.21,147.59L197.15,148.22L198.1,141.39L199.04,153.32L199.98,156.76L200.93,149.28L201.87,145.74L202.81,153.02L203.76,152.97L204.7,143.73L205.65,157.09L206.59,155.94L207.53,150.54L208.48,153.44L209.42,155.69L210.36,152.29L211.31,155.55L212.25,150.4L213.2,153.14L214.14,152.36L215.08,149.6L216.03,152.25L216.97,158.14L217.91,157.3L218.86,152.65L219.8,158.1L220.75,152.01L221.69,155.52L222.63,156.27L223.58,150.66L224.52,151.36L225.46,154.63L226.41,150.73L227.35,149.21L228.3,150.24L229.24,152.18L230.18,145.46L231.13,144.88L232.07,146.35L233.01,146.66L233.96,145.37L234.9,143.94L235.85,149.32L236.79,144.62L237.73,142.7L238.68,144.85L239.62,146.91L240.56,143.71L241.51,141.91L242.45,141.72L243.4,143.26L244.34,142.16L245.28,141.32L246.23,144.36L247.17,141.72L248.11,140.71L249.06,138.98L250,140.41L250.95,137.51L251.89,136.85L252.83,138.77L253.78,135.96L254.72,136.15L255.67,136.43L256.61,135.28L257.55,135.89L258.5,137.06L259.44,136.36L260.38,132.87L261.33,134.84L262.27,132.64L263.22,128.73L264.16,130.74L265.1,130.07L266.05,130.39L266.99,132.03L267.93,128.52L268.88,127.37L269.82,128.38L270.77,127.09L271.71,127.37L272.65,125.69L273.6,124.82L274.54,125.34L275.48,124.31L276.43,123.4L277.37,120.71L278.32,122.04L279.26,120.19L280.2,122.16L281.15,118.86L282.09,118.81L283.03,119.4L283.98,118.93L284.92,118.41L285.87,115.51L286.81,114.93L287.75,113.69L288.7,113.62L289.64,115.7L290.58,114.86L291.53,112.17L292.47,111.49L293.42,114.18L294.36,110.57L295.3,108.82L296.25,110.27L297.19,109.45L298.13,109.64L299.08,109.01L300.02,109.1L300.97,107.46L301.91,105.92L302.85,104.68L303.8,103.51L304.74,103.51L305.68,102.29L306.63,101.47L307.57,100.96L308.52,100.98L309.46,101.71L310.4,100.54L311.35,99.694L312.29,99.717L313.24,97.799L314.18,97.073L315.12,97.962L316.07,97.167L317.01,97.471L317.95,94.476L318.9,93.259L319.84,93.657L320.79,93.961L321.73,92.745L322.67,89.703L323.62,91.926L324.56,90.873L325.5,92.277L326.45,90.334L327.39,89.866L328.34,89.094L329.28,86.988L330.22,88.182L331.17,87.995L332.11,87.363L333.05,86.216L334,83.642L334.94,85.795L335.89,84.532L336.83,86.286L337.77,83.876L338.72,81.654L339.66,82.355L340.6,82.145L341.55,80.039L342.49,81.256L343.44,78.705L344.38,78.752L345.32,81.7L346.27,79.36L347.21,78.963L348.15,78.401L349.1,76.623L350.04,77.442L350.99,75.944L351.93,75.687L352.87,74.587L353.82,75.032L354.76,74.868L355.7,73.558L356.65,72.551L357.59,73.815L358.54,73.417L359.48,72.832L360.42,72.411L361.37,70.82L362.31,70.445L363.25,72.317L364.2,69.276L365.14,70.165L366.09,69.416L367.03,68.925L367.97,69.58L368.92,68.457L369.86,67.918L370.81,68.316L371.75,67.497L372.69,68.012L373.64,66.702L374.58,66.444L375.52,66.889L376.47,65.274L377.41,65.064L378.36,64.011L379.3,63.566L380.24,65.368L381.19,63.917L382.13,63.917L383.07,64.572L384.02,61.975L384.96,62.513L385.91,62.139L386.85,61.835L387.79,62.794L388.74,62.022L389.68,61.039L390.62,61.671L391.57,60.992L392.51,60.314L393.46,60.337L394.4,59.846L395.34,59.822L396.29,58.886L397.23,60.173L398.17,58.418L399.12,59.939L400.06,58.676L401.01,58.348L401.95,57.319L402.89,58.068L403.84,57.6L404.78,57.272L405.72,56.617L406.67,56.008L407.61,56.079L408.56,56.991L409.5,56.523L410.44,56.125L411.39,55.166L412.33,55.891L413.27,55.798L414.22,55.54L415.16,54.581L416.11,53.739L417.05,54.066L417.99,53.762L418.94,53.458L419.88,54.511L420.82,53.505L421.77,52.265L422.71,53.201L423.66,53.411L424.6,52.662L425.54,52.85L426.49,53.154L427.43,52.873L428.38,52.382L429.32,52.662L430.26,52.288L431.21,51.937L432.15,51.797L433.09,52.382L434.04,51.68L434.98,51.095L435.93,51.633L436.87,51.282L437.81,51.422L438.76,50.814L439.7,51.305L440.64,50.72L441.59,50.954L442.53,50.931L443.48,50.486L444.42,50.51L445.36,50.206L446.31,50.861L447.25,49.901L448.19,49.41L449.14,50.439L450.08,49.925L451.03,49.293L451.97,49.363L452.91,49.387L453.86,49.574L454.8,49.153L455.74,48.638L456.69,48.872L457.63,48.708L458.58,48.872L459.52,48.497L460.46,48.404L461.41,48.568L462.35,48.591L463.29,48.872L464.24,48.146L465.18,48.591L466.13,48.521L467.07,48.872L468.01,48.193L468.96,48.17L469.9,48.146L470.84,48.521L471.79,47.772L472.73,48.146L473.68,47.585L474.62,47.585L475.56,47.561L476.51,47.327L477.45,47.749L478.39,47.374L479.34,47.304L480.28,47.304L481.23,47.515L482.17,46.93L483.11,47L484.06,46.976L485,47.304L485.95,47.304L486.89,47.374L487.83,47.257L488.78,46.813L489.72,47.047L490.66,47.468L491.61,46.719L492.55,47.281L493.5,46.906L494.44,46.532L495.38,46.742L496.33,46.625L497.27,46.649L498.21,46.555L499.16,46.672L500.1,46.368L501.05,46.392L501.99,46.579L502.93,46.415L503.88,46.228L504.82,45.947L505.76,46.111L506.71,45.994L507.65,45.9L508.6,46.158L509.54,46.345L510.48,46.275L511.43,46.181L512.37,46.041L513.31,46.158L514.26,45.97L515.2,45.947L516.15,45.9L517.09,45.877L518.03,46.041L518.98,45.807L519.92,45.9L520.86,46.087L521.81,45.736L522.75,46.134L523.7,45.924L524.64,45.736L525.58,45.713L526.53,45.924L527.47,45.783L528.41,45.877L529.36,45.713L530.3,45.643L531.25,45.643L532.19,45.83L533.13,45.713L534.08,45.76L535.02,45.666L535.96,45.596L536.91,45.549L537.85,45.83L538.8,45.573L539.74,45.643L540.68,45.666L541.63,45.409L542.57,45.502L543.51,45.432L544.46,45.573L545.4,45.456L546.35,45.619L547.29,45.315L548.23,45.292L549.18,45.502L550.12,45.385L551.07,45.502L552.01,45.479L552.95,45.526L553.9,45.479L554.84,45.549L555.78,45.432L556.73,45.315L557.67,45.432L558.62,45.362L559.56,45.385L560.5,45.409L561.45,45.432L562.39,45.432L563.33,45.362L564.28,45.339L565.22,45.315L566.17,45.315L567.11,45.198L568.05,45.339L569,45.385L569.94,45.339L570.88,45.339L571.83,45.385L572.77,45.292L573.72,45.315L574.66,45.268L575.6,45.315L576.55,45.292L577.49,45.222L578.43,45.245L579.38,45.268L580.32,45.409L581.27,45.245L582.21,45.339L583.15,45.198L584.1,45.362L585.04,45.268L585.98,45.175L586.93,45.151L587.87,45.198L588.82,45.222L589.76,45.315L590.7,45.268L591.65,45.222L592.59,45.315L593.53,45.245L594.48,45.315L595.42,45.245L596.37,45.222L597.31,45.222L598.25,45.175L599.2,45.222L600.14,45.315L601.08,45.198L602.97,45.245L604.86,45.198L605.8,45.175L606.75,45.175L607.69,45.175L608.64,45.151L610.52,45.175L611.47,45.175L612.41,45.151L613.35,45.198L615.24,45.222L616.19,45.151L617.13,45.151L619.02,45.151L619.96,45.198L620.9,45.198L621.85,45.151L622.79,45.151L623.74,45.151L624.68,45.151L625.62,45.198L626.57,45.175L629.4,45.175L630.34,45.151L632.23,45.151L633.17,45.175L635.06,45.175L636.95,45.175L637.89,45.151L638.84,45.175L639.78,45.151L640.72,45.175L642.61,45.151L643.55,45.175L645.44,45.175L646.39,45.175L647.33,45.151L648.27,45.151L651.1,45.151L652.99,45.175L655.82,45.175L657.71,45.151L659.6,45.151L665.26,45.151L671.87,45.151L673.76,45.151L680.36,45.151L681.31,45.151L720,45.151" style="fill:none;stroke:#0000FF" />
</g>
</svg>
