<?xml version="1.0"?>
<!-- Generated by SVGo and Plotinum VG -->
<svg width="720pt" height="432pt" viewBox="0 0 720 432"
	xmlns="http://www.w3.org/2000/svg"
	xmlns:xlink="http://www.w3.org/1999/xlink">
<g transform="scale(1, -1) translate(0, -432)">
<path d="M0,0L720,0L720,432L0,432Z" style="fill:#FFFFFF" />
<text x="358.5" y="-420.45" transform="scale(1, -1)"
	style="font-family:Times;font-weight:normal;font-style:normal;font-size:12px"> </text>
<text x="385.56" y="-3.8613" transform="scale(1, -1)"
	style="font-family:Times;font-weight:normal;font-style:normal;font-size:12px">Costs</text>
<text x="69.055" y="-18.634" transform="scale(1, -1)"
	style="font-family:Times;font-weight:normal;font-style:normal;font-size:10px">0.00</text>
<text x="358.64" y="-18.634" transform="scale(1, -1)"
	style="font-family:Times;font-weight:normal;font-style:normal;font-size:10px">250.00</text>
<text x="653.22" y="-18.634" transform="scale(1, -1)"
	style="font-family:Times;font-weight:normal;font-style:normal;font-size:10px">500.00</text>
<path d="M77.805,28.263L77.805,36.263" style="fill:none;stroke:#000000;stroke-width:0.5" />
<path d="M372.39,28.263L372.39,36.263" style="fill:none;stroke:#000000;stroke-width:0.5" />
<path d="M666.97,28.263L666.97,36.263" style="fill:none;stroke:#000000;stroke-width:0.5" />
<path d="M136.72,32.263L136.72,36.263" style="fill:none;stroke:#000000;stroke-width:0.5" />
<path d="M195.64,32.263L195.64,36.263" style="fill:none;stroke:#000000;stroke-width:0.5" />
<path d="M254.56,32.263L254.56,36.263" style="fill:none;stroke:#000000;stroke-width:0.5" />
<path d="M313.47,32.263L313.47,36.263" style="fill:none;stroke:#000000;stroke-width:0.5" />
<path d="M431.31,32.263L431.31,36.263" style="fill:none;stroke:#000000;stroke-width:0.5" />
<path d="M490.22,32.263L490.22,36.263" style="fill:none;stroke:#000000;stroke-width:0.5" />
<path d="M549.14,32.263L549.14,36.263" style="fill:none;stroke:#000000;stroke-width:0.5" />
<path d="M608.06,32.263L608.06,36.263" style="fill:none;stroke:#000000;stroke-width:0.5" />
<path d="M77.805,36.263L720,36.263" style="fill:none;stroke:#000000;stroke-width:0.5" />
<g transform="rotate(90)">
<text x="152.55" y="11.555" transform="scale(1, -1)"
	style="font-family:Times;font-weight:normal;font-style:normal;font-size:12px">Number of trials (1000000 total)</text>
</g>
<text x="24.055" y="-89.519" transform="scale(1, -1)"
	style="font-family:Times;font-weight:normal;font-style:normal;font-size:10px">25000.00</text>
<text x="19.055" y="-232.24" transform="scale(1, -1)"
	style="font-family:Times;font-weight:normal;font-style:normal;font-size:10px">100000.00</text>
<text x="19.055" y="-374.97" transform="scale(1, -1)"
	style="font-family:Times;font-weight:normal;font-style:normal;font-size:10px">175000.00</text>
<path d="M64.055,92.725L72.055,92.725" style="fill:none;stroke:#000000;stroke-width:0.5" />
<path d="M64.055,235.45L72.055,235.45" style="fill:none;stroke:#000000;stroke-width:0.5" />
<path d="M64.055,378.18L72.055,378.18" style="fill:none;stroke:#000000;stroke-width:0.5" />
<path d="M68.055,164.09L72.055,164.09" style="fill:none;stroke:#000000;stroke-width:0.5" />
<path d="M68.055,306.81L72.055,306.81" style="fill:none;stroke:#000000;stroke-width:0.5" />
<path d="M72.055,45.151L72.055,416.58" style="fill:none;stroke:#000000;stroke-width:0.5" />
<path d="M77.805,416.58L103.73,48.661L104.91,51.764L108.44,77.816L109.62,48.655L110.8,65.734L111.98,52.248L113.15,52.261L115.51,59.163L116.69,66.29L117.87,84.007L119.05,77.16L120.22,55.686L122.58,63.232L123.76,76.61L124.94,66.313L126.12,62.794L127.29,52.002L128.47,58.703L129.65,80.941L130.83,45.203L132.01,69.976L134.37,63.54L135.54,77.662L136.72,62.434L137.9,45.564L139.08,45.958L140.26,80.757L141.44,64.275L142.61,49.724L143.79,60.729L144.97,53.447L146.15,54.233L147.33,65.561L148.51,63.877L149.68,64.699L150.86,49.995L152.04,52.251L153.22,48.756L154.4,49.757L155.58,50.541L156.75,67.658L157.93,51.812L159.11,52.79L160.29,52.21L161.47,56.784L162.65,55.197L163.82,57.013L165,55.136L166.18,54.035L167.36,54.301L168.54,64.393L169.72,55.393L170.89,56.874L172.07,61.095L173.25,64.865L174.43,57.146L175.61,57.557L176.79,56.164L177.96,55.23L179.14,53.833L180.32,58.204L181.5,58.149L182.68,56.349L183.86,53.821L185.03,52.683L186.21,56.64L187.39,58.533L188.57,56.984L189.75,55.386L190.93,52.691L192.1,55.624L193.28,53.658L194.46,55.886L195.64,54.204L196.82,53.587L198,55.698L199.17,55.106L200.35,51.892L201.53,53.549L202.71,54.135L203.89,54.807L205.07,52.792L206.24,54.32L207.42,53.117L208.6,53.351L209.78,52.461L210.96,53.905L212.14,52.697L213.31,53.955L214.49,53.641L215.67,52.506L216.85,50.645L218.03,52.29L219.21,53.481L220.38,53.428L221.56,51.051L222.74,51.643L223.92,51.401L225.1,52.029L226.28,52.309L227.45,52.459L228.63,51.051L229.81,51.083L230.99,52.316L232.17,51.313L233.35,50.701L234.52,51.384L235.7,51.46L236.88,50.864L238.06,50.855L239.24,51.026L240.42,50.881L241.59,50.232L242.77,50.881L243.95,50.624L245.13,50.232L246.31,49.951L247.49,49.93L248.66,49.498L249.84,49.665L251.02,49.991L252.2,50.221L253.38,49.589L254.56,49.622L255.73,49.287L256.91,49.384L258.09,49.431L259.27,49.222L260.45,49.283L261.63,49.222L262.8,48.908L263.98,49.024L265.16,48.959L266.34,48.929L267.52,48.79L268.7,48.598L269.87,48.529L271.05,48.503L272.23,48.447L273.41,48.491L274.59,48.489L275.77,48.17L276.94,48.286L278.12,48.307L279.3,47.966L280.48,48.033L281.66,47.932L282.84,48.078L284.01,47.882L285.19,47.915L286.37,47.667L287.55,47.825L288.73,47.667L289.91,47.553L291.08,47.515L292.26,47.469L293.44,47.456L294.62,47.401L295.8,47.228L296.98,47.309L298.15,47.342L299.33,47.307L300.51,47.134L301.69,47.184L302.87,47.062L304.05,46.971L305.22,46.851L306.4,47.02L307.58,46.773L308.76,46.902L309.94,46.855L311.12,46.725L312.29,46.784L313.47,46.662L314.65,46.617L315.83,46.579L317.01,46.581L318.19,46.59L319.36,46.48L320.54,46.428L321.72,46.44L322.9,46.417L324.08,46.419L325.26,46.383L326.43,46.312L327.61,46.324L328.79,46.242L329.97,46.211L331.15,46.2L332.33,46.147L333.5,46.196L334.68,46.09L335.86,46.183L337.04,46.072L338.22,46.118L339.4,46.004L340.57,45.992L341.75,46.01L342.93,46.002L344.11,46.04L345.29,45.854L346.47,45.991L347.64,45.932L348.82,45.884L350,45.909L351.18,45.873L352.36,45.793L353.54,45.831L354.71,45.795L355.89,45.772L357.07,45.808L358.25,45.776L359.43,45.749L360.61,45.747L361.78,45.73L362.96,45.718L364.14,45.654L365.32,45.608L366.5,45.631L367.68,45.587L368.85,45.62L370.03,45.581L371.21,45.604L372.39,45.602L373.57,45.561L374.75,45.564L375.92,45.494L377.1,45.53L378.28,45.528L379.46,45.486L380.64,45.543L381.82,45.437L382.99,45.505L384.17,45.477L385.35,45.486L386.53,45.463L387.71,45.423L388.89,45.416L390.06,45.393L391.24,45.42L392.42,45.433L393.6,45.422L394.78,45.397L395.96,45.397L397.13,45.389L398.31,45.418L399.49,45.365L400.67,45.357L401.85,45.366L403.03,45.376L404.2,45.355L405.38,45.334L406.56,45.311L407.74,45.347L408.92,45.353L410.1,45.319L411.27,45.326L412.45,45.323L413.63,45.304L414.81,45.304L415.99,45.304L417.17,45.3L418.34,45.292L419.52,45.281L420.7,45.262L421.88,45.307L423.06,45.273L424.24,45.283L425.41,45.252L426.59,45.285L427.77,45.25L428.95,45.286L430.13,45.252L431.31,45.237L432.49,45.243L433.66,45.241L434.84,45.245L436.02,45.25L437.2,45.229L438.38,45.235L439.56,45.222L440.73,45.233L441.91,45.218L443.09,45.22L444.27,45.207L445.45,45.22L446.63,45.227L447.8,45.212L448.98,45.216L450.16,45.197L451.34,45.207L452.52,45.214L453.7,45.203L454.87,45.201L456.05,45.205L457.23,45.195L458.41,45.195L459.59,45.199L460.77,45.197L461.94,45.178L463.12,45.189L464.3,45.191L465.48,45.203L466.66,45.184L467.84,45.193L469.01,45.188L470.19,45.184L471.37,45.176L472.55,45.191L473.73,45.176L474.91,45.195L476.08,45.172L477.26,45.188L478.44,45.18L479.62,45.17L480.8,45.176L481.98,45.17L483.15,45.176L484.33,45.165L485.51,45.168L486.69,45.165L487.87,45.17L489.05,45.168L490.22,45.163L491.4,45.17L492.58,45.172L493.76,45.172L494.94,45.167L496.12,45.161L497.29,45.168L498.47,45.159L499.65,45.161L500.83,45.161L502.01,45.17L503.19,45.172L504.36,45.155L505.54,45.167L506.72,45.168L507.9,45.155L509.08,45.161L510.26,45.157L511.43,45.159L512.61,45.168L513.79,45.163L514.97,45.159L516.15,45.155L517.33,45.153L518.5,45.151L519.68,45.157L520.86,45.155L522.04,45.155L523.22,45.157L524.4,45.151L525.57,45.153L526.75,45.167L527.93,45.163L529.11,45.155L530.29,45.155L532.64,45.157L533.82,45.155L535,45.153L536.18,45.155L537.36,45.153L538.54,45.157L539.71,45.157L540.89,45.151L542.07,45.161L543.25,45.153L544.43,45.155L545.61,45.153L546.78,45.151L547.96,45.155L551.5,45.151L553.85,45.155L555.03,45.155L557.39,45.155L558.57,45.153L559.75,45.151L560.92,45.155L563.28,45.157L565.64,45.155L567.99,45.153L571.53,45.153L572.71,45.151L576.24,45.151L583.31,45.153L584.49,45.153L589.2,45.151L590.38,45.151L593.92,45.151L595.1,45.151L599.81,45.151L605.7,45.151L615.13,45.151L622.2,45.151L624.55,45.151L658.73,45.151L670.51,45.151L720,45.151" style="fill:none;stroke:#0000FF" />
</g>
</svg>
