<?xml version="1.0"?>
<!-- Generated by SVGo and Plotinum VG -->
<svg width="720pt" height="432pt" viewBox="0 0 720 432"
	xmlns="http://www.w3.org/2000/svg"
	xmlns:xlink="http://www.w3.org/1999/xlink">
<g transform="scale(1, -1) translate(0, -432)">
<path d="M0,0L720,0L720,432L0,432Z" style="fill:#FFFFFF" />
<text x="358.5" y="-420.45" transform="scale(1, -1)"
	style="font-family:Times;font-weight:normal;font-style:normal;font-size:12px"> </text>
<text x="383.06" y="-3.8613" transform="scale(1, -1)"
	style="font-family:Times;font-weight:normal;font-style:normal;font-size:12px">Costs</text>
<text x="64.055" y="-18.634" transform="scale(1, -1)"
	style="font-family:Times;font-weight:normal;font-style:normal;font-size:10px">0.00</text>
<text x="334.69" y="-18.634" transform="scale(1, -1)"
	style="font-family:Times;font-weight:normal;font-style:normal;font-size:10px">250.00</text>
<text x="610.33" y="-18.634" transform="scale(1, -1)"
	style="font-family:Times;font-weight:normal;font-style:normal;font-size:10px">500.00</text>
<path d="M72.805,28.263L72.805,36.263" style="fill:none;stroke:#000000;stroke-width:0.5" />
<path d="M348.44,28.263L348.44,36.263" style="fill:none;stroke:#000000;stroke-width:0.5" />
<path d="M624.08,28.263L624.08,36.263" style="fill:none;stroke:#000000;stroke-width:0.5" />
<path d="M127.93,32.263L127.93,36.263" style="fill:none;stroke:#000000;stroke-width:0.5" />
<path d="M183.06,32.263L183.06,36.263" style="fill:none;stroke:#000000;stroke-width:0.5" />
<path d="M238.19,32.263L238.19,36.263" style="fill:none;stroke:#000000;stroke-width:0.5" />
<path d="M293.31,32.263L293.31,36.263" style="fill:none;stroke:#000000;stroke-width:0.5" />
<path d="M403.57,32.263L403.57,36.263" style="fill:none;stroke:#000000;stroke-width:0.5" />
<path d="M458.7,32.263L458.7,36.263" style="fill:none;stroke:#000000;stroke-width:0.5" />
<path d="M513.82,32.263L513.82,36.263" style="fill:none;stroke:#000000;stroke-width:0.5" />
<path d="M568.95,32.263L568.95,36.263" style="fill:none;stroke:#000000;stroke-width:0.5" />
<path d="M679.21,32.263L679.21,36.263" style="fill:none;stroke:#000000;stroke-width:0.5" />
<path d="M72.805,36.263L720,36.263" style="fill:none;stroke:#000000;stroke-width:0.5" />
<g transform="rotate(90)">
<text x="152.55" y="11.555" transform="scale(1, -1)"
	style="font-family:Times;font-weight:normal;font-style:normal;font-size:12px">Number of trials (1000000 total)</text>
</g>
<text x="24.055" y="-81.552" transform="scale(1, -1)"
	style="font-family:Times;font-weight:normal;font-style:normal;font-size:10px">2500.00</text>
<text x="19.055" y="-240.04" transform="scale(1, -1)"
	style="font-family:Times;font-weight:normal;font-style:normal;font-size:10px">12500.00</text>
<text x="19.055" y="-398.53" transform="scale(1, -1)"
	style="font-family:Times;font-weight:normal;font-style:normal;font-size:10px">22500.00</text>
<path d="M59.055,84.758L67.055,84.758" style="fill:none;stroke:#000000;stroke-width:0.5" />
<path d="M59.055,243.25L67.055,243.25" style="fill:none;stroke:#000000;stroke-width:0.5" />
<path d="M59.055,401.73L67.055,401.73" style="fill:none;stroke:#000000;stroke-width:0.5" />
<path d="M63.055,164L67.055,164" style="fill:none;stroke:#000000;stroke-width:0.5" />
<path d="M63.055,322.49L67.055,322.49" style="fill:none;stroke:#000000;stroke-width:0.5" />
<path d="M67.055,45.151L67.055,416.58" style="fill:none;stroke:#000000;stroke-width:0.5" />
<path d="M72.805,416.58L97.061,49.003L98.163,48.495L101.47,96.533L103.68,81.382L104.78,139.67L105.88,48.305L106.98,72.443L108.09,128.47L109.19,48.559L110.29,222.13L111.39,149.61L112.5,48.353L113.6,52.569L114.7,63.219L115.8,95.281L116.91,122.91L118.01,103.4L119.11,107.47L120.21,187.7L121.32,132.43L122.42,48.432L123.52,59.637L125.73,45.548L126.83,63.805L127.93,64.328L129.03,49.637L130.14,46.625L131.24,249.66L132.34,68.417L133.44,65.311L134.55,107.33L135.65,67.609L136.75,65.85L137.85,99.83L138.96,82.459L140.06,82.634L141.16,72.744L142.27,165.24L143.37,80.97L144.47,68.37L145.57,104.39L146.68,94.172L147.78,102.78L148.88,136.03L149.98,92.698L151.09,94.885L152.19,119.74L153.29,121.88L154.39,125.44L155.5,134.84L156.6,113.02L157.7,132.11L158.8,133.14L159.91,115.55L161.01,76.627L162.11,121.86L163.21,141.97L164.32,111.53L165.42,124.97L166.52,155.46L167.62,92.951L168.73,182.51L169.83,145.81L170.93,87.563L172.03,99.323L173.14,107.88L174.24,115.73L175.34,134.98L176.44,122.68L177.55,127.37L178.65,155.9L179.75,161.96L180.85,115.33L181.96,113.92L183.06,103.9L184.16,102.18L185.26,123L186.37,127.06L187.47,106.38L188.57,106.77L189.67,161.37L190.78,128.56L191.88,108.74L192.98,138.29L194.08,121.65L195.19,110.56L196.29,137L197.39,128.74L198.5,113.3L199.6,129.5L200.7,167.42L201.8,127.09L202.91,120.02L204.01,141.62L205.11,124.73L206.21,129.32L207.32,148.18L208.42,121.53L209.52,126.84L210.62,138.77L211.73,137.82L212.83,137.23L213.93,142.35L215.03,129.59L216.14,135.95L217.24,143.33L218.34,130.01L219.44,115.85L220.55,135.73L221.65,131.96L222.75,132.92L223.85,134.38L224.96,138.25L226.06,119.86L227.16,142.61L228.26,137.57L229.37,118.39L230.47,119.86L231.57,128.21L232.67,120.54L233.78,129.09L234.88,124.89L235.98,124.86L237.08,126.41L238.19,138.15L239.29,127.87L240.39,121.54L241.49,122.79L242.6,119.34L243.7,122.94L244.8,128.15L245.9,120.69L247.01,119.61L248.11,133.57L249.21,126.28L250.31,115.9L251.42,123.95L252.52,121.1L253.62,116.38L254.73,121.59L255.83,123.89L256.93,112.6L258.03,121.15L259.14,128.56L260.24,118.14L261.34,117.53L262.44,122.27L263.55,113.63L264.65,113.6L265.75,119.4L266.85,112.05L267.96,113L269.06,116.91L270.16,115.68L271.26,112.97L272.37,113.63L273.47,109.77L274.57,111.19L275.67,114.68L276.78,109.18L277.88,106.36L278.98,108.85L280.08,107.29L281.19,107.01L282.29,108.67L283.39,107.03L284.49,102.65L285.6,108.34L286.7,104.63L287.8,100.91L288.9,100.64L290.01,103.47L291.11,99.418L292.21,101.73L293.31,100.72L294.42,99.164L295.52,97.912L296.62,100.05L297.72,97.627L298.83,94.283L299.93,96.026L301.03,95.994L302.13,95.376L303.24,95.281L304.34,94.996L305.44,92.254L306.54,95.059L307.65,91.05L308.75,90.447L309.85,91.826L310.95,89.195L312.06,88.371L313.16,91.002L314.26,89.274L315.37,87.579L316.47,88.751L317.57,88.894L318.67,85.708L319.78,85.74L320.88,85.661L321.98,83.505L323.08,83.22L324.19,84.773L325.29,82.761L326.39,83.173L327.49,81.699L328.6,82.396L329.7,81.762L330.8,80.161L331.9,80.605L333.01,79.892L334.11,79.004L335.21,79.416L336.31,76.786L337.42,77.293L338.52,76.643L339.62,76.881L340.72,76.009L341.83,75.629L342.93,75.359L344.03,73.299L345.13,74.503L346.24,72.792L347.34,72.475L348.44,73.552L349.54,71.064L350.65,71.92L351.75,71.492L352.85,70.652L353.95,69.796L355.06,70.494L356.16,69.495L357.26,67.039L358.36,68.005L359.47,69.036L360.57,66.864L361.67,66.611L362.77,66.373L363.88,66.088L364.98,66.103L366.08,65.58L367.18,63.473L368.29,65.073L369.39,65.802L370.49,64.186L371.6,64.534L372.7,64.328L373.8,62.633L374.9,62.601L376.01,63.298L377.11,62.078L378.21,62.205L379.31,62.078L380.42,60.762L381.52,60.176L382.62,59.812L383.72,59.336L384.83,58.94L385.93,60.303L387.03,59.859L388.13,59.384L389.24,59.146L390.34,58.734L391.44,57.656L392.54,57.941L393.65,58.195L394.75,57.783L395.85,57.006L396.95,56.753L398.06,56.467L399.16,56.705L400.26,56.547L401.36,56.071L402.47,55.881L403.57,55.691L404.67,55.041L405.77,54.597L406.88,54.328L407.98,55.723L409.08,54.518L410.18,53.662L411.29,54.122L412.39,53.773L413.49,53.329L414.59,53.646L415.7,53.139L416.8,52.981L417.9,52.886L419,53.171L420.11,52.157L421.21,52.125L422.31,52.141L423.41,52.188L424.52,52.252L425.62,52.6L426.72,51.158L427.82,51.237L428.93,51.111L430.03,51.047L431.13,50.381L432.24,50.809L433.34,51.047L434.44,50.746L435.54,50.223L436.65,49.874L437.75,50.381L438.85,50.207L439.95,49.637L441.06,50.049L442.16,49.098L443.26,49.637L444.36,49.938L445.47,49.288L446.57,49.462L447.67,48.622L448.77,48.955L449.88,49.145L450.98,48.781L452.08,48.781L453.18,48.385L454.29,48.131L455.39,48.686L456.49,48.543L457.59,48.939L458.7,48.226L459.8,48.353L460.9,48.115L462,47.862L463.11,48.036L464.21,47.862L465.31,48.068L466.41,47.735L467.52,47.671L468.62,47.735L469.72,47.671L470.82,47.56L471.93,47.243L473.03,47.275L474.13,47.545L475.23,47.148L476.34,47.354L477.44,47.37L478.54,47.164L479.64,47.132L480.75,46.752L481.85,46.974L482.95,47.117L484.05,46.784L485.16,46.831L486.26,46.926L487.36,46.689L488.47,46.879L489.57,46.768L490.67,46.609L491.77,46.467L492.88,46.689L493.98,46.292L495.08,46.514L496.18,46.229L497.29,46.213L498.39,46.609L499.49,46.308L500.59,46.34L501.7,46.007L502.8,46.213L503.9,46.197L505,45.976L506.11,45.817L507.21,46.277L508.31,46.071L509.41,46.182L510.52,46.102L511.62,45.912L512.72,45.817L513.82,46.102L514.93,45.88L516.03,45.976L517.13,45.88L518.23,45.976L519.34,45.833L520.44,45.817L521.54,45.865L522.64,45.674L523.75,45.611L524.85,45.722L525.95,45.722L527.05,45.595L528.16,45.611L529.26,45.579L530.36,45.738L531.46,45.579L532.57,45.674L533.67,45.595L534.77,45.674L535.87,45.659L536.98,45.579L538.08,45.659L539.18,45.532L540.28,45.516L541.39,45.373L542.49,45.548L543.59,45.405L544.69,45.468L545.8,45.659L546.9,45.421L548,45.452L549.11,45.326L550.21,45.437L551.31,45.437L552.41,45.31L553.52,45.342L554.62,45.342L555.72,45.389L556.82,45.326L557.93,45.342L559.03,45.357L560.13,45.342L561.23,45.246L562.34,45.389L563.44,45.326L564.54,45.294L565.64,45.373L566.75,45.389L567.85,45.246L568.95,45.278L570.05,45.262L571.16,45.31L572.26,45.231L573.36,45.246L574.46,45.326L575.57,45.326L576.67,45.31L577.77,45.246L578.87,45.278L579.98,45.326L581.08,45.246L582.18,45.231L583.28,45.246L584.39,45.246L585.49,45.262L586.59,45.231L587.69,45.199L588.8,45.246L589.9,45.231L591,45.231L592.1,45.183L593.21,45.183L594.31,45.199L595.41,45.246L596.51,45.199L597.62,45.246L598.72,45.215L599.82,45.199L600.92,45.151L602.03,45.167L603.13,45.151L604.23,45.167L605.34,45.167L606.44,45.167L607.54,45.151L608.64,45.167L609.75,45.183L610.85,45.167L611.95,45.167L613.05,45.183L615.26,45.183L616.36,45.199L617.46,45.151L618.57,45.183L619.67,45.183L620.77,45.183L621.87,45.183L622.98,45.151L625.18,45.167L626.28,45.167L627.39,45.167L628.49,45.151L629.59,45.151L631.8,45.151L632.9,45.183L635.1,45.151L636.21,45.167L637.31,45.167L640.62,45.183L642.82,45.151L643.92,45.167L646.13,45.167L650.54,45.151L652.74,45.151L653.85,45.167L654.95,45.151L656.05,45.167L657.15,45.151L658.26,45.151L659.36,45.151L661.56,45.151L663.77,45.151L670.39,45.151L671.49,45.151L675.9,45.167L677,45.167L686.92,45.151L690.23,45.167L699.05,45.151L703.46,45.151L708.97,45.151L720,45.167" style="fill:none;stroke:#0000FF" />
</g>
</svg>
