<?xml version="1.0"?>
<!-- Generated by SVGo and Plotinum VG -->
<svg width="720pt" height="432pt" viewBox="0 0 720 432"
	xmlns="http://www.w3.org/2000/svg"
	xmlns:xlink="http://www.w3.org/1999/xlink">
<g transform="scale(1, -1) translate(0, -432)">
<path d="M0,0L720,0L720,432L0,432Z" style="fill:#FFFFFF" />
<text x="358.5" y="-420.45" transform="scale(1, -1)"
	style="font-family:Times;font-weight:normal;font-style:normal;font-size:12px"> </text>
<text x="379.31" y="-3.8613" transform="scale(1, -1)"
	style="font-family:Times;font-weight:normal;font-style:normal;font-size:12px">Costs</text>
<text x="56.555" y="-18.634" transform="scale(1, -1)"
	style="font-family:Times;font-weight:normal;font-style:normal;font-size:10px">0.00</text>
<text x="336.2" y="-18.634" transform="scale(1, -1)"
	style="font-family:Times;font-weight:normal;font-style:normal;font-size:10px">250.00</text>
<text x="620.85" y="-18.634" transform="scale(1, -1)"
	style="font-family:Times;font-weight:normal;font-style:normal;font-size:10px">500.00</text>
<path d="M65.305,28.263L65.305,36.263" style="fill:none;stroke:#000000;stroke-width:0.5" />
<path d="M349.95,28.263L349.95,36.263" style="fill:none;stroke:#000000;stroke-width:0.5" />
<path d="M634.6,28.263L634.6,36.263" style="fill:none;stroke:#000000;stroke-width:0.5" />
<path d="M122.23,32.263L122.23,36.263" style="fill:none;stroke:#000000;stroke-width:0.5" />
<path d="M179.16,32.263L179.16,36.263" style="fill:none;stroke:#000000;stroke-width:0.5" />
<path d="M236.09,32.263L236.09,36.263" style="fill:none;stroke:#000000;stroke-width:0.5" />
<path d="M293.02,32.263L293.02,36.263" style="fill:none;stroke:#000000;stroke-width:0.5" />
<path d="M406.88,32.263L406.88,36.263" style="fill:none;stroke:#000000;stroke-width:0.5" />
<path d="M463.81,32.263L463.81,36.263" style="fill:none;stroke:#000000;stroke-width:0.5" />
<path d="M520.74,32.263L520.74,36.263" style="fill:none;stroke:#000000;stroke-width:0.5" />
<path d="M577.67,32.263L577.67,36.263" style="fill:none;stroke:#000000;stroke-width:0.5" />
<path d="M691.53,32.263L691.53,36.263" style="fill:none;stroke:#000000;stroke-width:0.5" />
<path d="M65.305,36.263L720,36.263" style="fill:none;stroke:#000000;stroke-width:0.5" />
<g transform="rotate(90)">
<text x="152.55" y="11.555" transform="scale(1, -1)"
	style="font-family:Times;font-weight:normal;font-style:normal;font-size:12px">Number of trials (1000000 total)</text>
</g>
<text x="24.055" y="-112.88" transform="scale(1, -1)"
	style="font-family:Times;font-weight:normal;font-style:normal;font-size:10px">20000</text>
<text x="24.055" y="-254.76" transform="scale(1, -1)"
	style="font-family:Times;font-weight:normal;font-style:normal;font-size:10px">60000</text>
<text x="19.055" y="-396.63" transform="scale(1, -1)"
	style="font-family:Times;font-weight:normal;font-style:normal;font-size:10px">100000</text>
<path d="M51.555,116.09L59.555,116.09" style="fill:none;stroke:#000000;stroke-width:0.5" />
<path d="M51.555,257.96L59.555,257.96" style="fill:none;stroke:#000000;stroke-width:0.5" />
<path d="M51.555,399.84L59.555,399.84" style="fill:none;stroke:#000000;stroke-width:0.5" />
<path d="M55.555,80.617L59.555,80.617" style="fill:none;stroke:#000000;stroke-width:0.5" />
<path d="M55.555,151.56L59.555,151.56" style="fill:none;stroke:#000000;stroke-width:0.5" />
<path d="M55.555,187.02L59.555,187.02" style="fill:none;stroke:#000000;stroke-width:0.5" />
<path d="M55.555,222.49L59.555,222.49" style="fill:none;stroke:#000000;stroke-width:0.5" />
<path d="M55.555,293.43L59.555,293.43" style="fill:none;stroke:#000000;stroke-width:0.5" />
<path d="M55.555,328.9L59.555,328.9" style="fill:none;stroke:#000000;stroke-width:0.5" />
<path d="M55.555,364.37L59.555,364.37" style="fill:none;stroke:#000000;stroke-width:0.5" />
<path d="M59.555,45.151L59.555,416.58" style="fill:none;stroke:#000000;stroke-width:0.5" />
<path d="M65.305,416.58L94.908,48.737L96.047,92.457L97.186,48.422L98.324,48.407L100.6,48.553L101.74,70.299L102.88,48.603L104.02,106.84L105.16,59.006L106.29,85.657L107.43,55.459L109.71,59.059L110.85,132.16L113.13,51.997L114.26,70.303L115.4,119.36L116.54,86.257L117.68,48.45L121.1,121.02L122.23,48.45L123.37,48.705L125.65,130.1L126.79,82.408L127.93,45.573L129.07,56.143L130.2,45.229L131.34,45.893L132.48,48.514L133.62,49.574L134.76,132.75L135.9,78.446L137.04,90.091L138.18,47.148L139.31,46.396L140.45,51.766L141.59,58.516L142.73,51.451L143.87,50.518L145.01,56.427L146.15,63.968L147.28,57.892L148.42,61.191L149.56,75.665L150.7,52.933L151.84,71.654L152.98,56.448L154.12,61.496L155.25,61.737L156.39,83.398L157.53,66.28L158.67,51.454L159.81,68.848L160.95,68.579L162.09,69.877L163.22,53.242L164.36,67.295L165.5,76.116L166.64,87.87L167.78,61.056L168.92,49.659L170.06,56.136L171.19,87.931L172.33,67.972L173.47,66.631L174.61,63.812L175.75,81.309L176.89,74.052L178.03,58.041L179.16,55.789L180.3,69.7L181.44,73.197L182.58,67.486L183.72,55.59L184.86,71.015L186,74.08L187.13,71.97L188.27,57.108L189.41,53.238L190.55,70.001L191.69,58.839L192.83,59.988L193.97,54.331L195.11,76.194L196.24,68.497L197.38,68.451L198.52,61.045L199.66,56.445L200.8,56.601L201.94,60.24L203.08,56.253L204.21,60.194L205.35,67.614L206.49,68.313L207.63,62.198L208.77,55.455L209.91,61.354L211.05,59.424L212.18,63.56L213.32,57.824L214.46,55.732L215.6,60.297L216.74,64.62L217.88,63.393L219.02,59.364L220.15,59.836L221.29,64.574L222.43,60.861L223.57,58.094L224.71,57.051L225.85,63.79L226.99,64.911L228.12,58.91L229.26,56.849L230.4,57.991L231.54,62.659L232.68,60.293L233.82,58.066L234.96,57.378L236.09,64.184L237.23,60.176L238.37,56.629L239.51,53.735L240.65,60.233L241.79,59.229L242.93,58.889L244.06,56.246L245.2,58.204L246.34,59.453L247.48,57.502L248.62,55.473L249.76,54.125L250.9,58.435L252.04,56.399L253.17,54.951L254.31,54.366L255.45,57.246L256.59,57.498L257.73,55.87L258.87,54.6L260.01,53.923L261.14,54.905L262.28,54.98L263.42,53.848L264.56,53.941L265.7,55.526L266.84,56.441L267.98,55.484L269.11,53.437L270.25,52.969L271.39,54.15L272.53,53.834L273.67,53.316L274.81,53.157L275.95,53.497L277.08,54.632L278.22,53.362L279.36,53.309L280.5,52.298L281.64,53.923L282.78,52.997L283.92,51.621L285.05,51.6L286.19,53.185L287.33,53.309L288.47,52.43L289.61,51.749L290.75,52.064L291.89,52.38L293.02,51.841L294.16,50.99L295.3,51.174L296.44,52.398L297.58,51.575L298.72,50.936L299.86,50.167L301,51.146L302.13,51.312L303.27,50.546L304.41,50.383L305.55,50.326L306.69,50.706L307.83,50.56L308.97,49.542L310.1,49.603L311.24,50.05L312.38,50.255L313.52,49.943L314.66,49.479L315.8,49.89L316.94,49.752L318.07,49.67L319.21,49.142L320.35,49.127L321.49,49.422L322.63,49.514L323.77,49.078L324.91,49.053L326.04,48.869L327.18,49.202L328.32,49.014L329.46,48.478L330.6,48.737L331.74,48.681L332.88,48.627L334.01,48.326L335.15,48.351L336.29,48.415L337.43,48.535L338.57,48.202L339.71,48.056L340.85,48.039L341.98,48.255L343.12,47.982L344.26,47.925L345.4,47.819L346.54,48.042L347.68,47.826L348.82,47.634L349.95,47.631L351.09,47.546L352.23,47.744L353.37,47.492L354.51,47.35L355.65,47.262L356.79,47.457L357.93,47.521L359.06,47.173L360.2,47.141L361.34,47.28L362.48,47.145L363.62,47.134L364.76,46.896L365.9,46.918L367.03,46.992L368.17,47.013L369.31,46.669L370.45,46.804L371.59,46.9L372.73,46.836L373.87,46.811L375,46.737L376.14,46.751L377.28,46.723L378.42,46.595L379.56,46.513L380.7,46.46L381.84,46.584L382.97,46.442L384.11,46.301L385.25,46.364L386.39,46.396L387.53,46.386L388.67,46.254L389.81,46.173L390.94,46.332L392.08,46.269L393.22,46.176L394.36,46.127L395.5,46.123L396.64,46.105L397.78,46.169L398.91,46.13L400.05,45.967L401.19,46.145L402.33,45.978L403.47,45.974L404.61,45.893L405.75,45.914L406.88,45.893L408.02,45.949L409.16,45.836L410.3,45.942L411.44,45.836L412.58,45.8L413.72,45.793L414.86,45.804L415.99,45.744L417.13,45.804L418.27,45.825L419.41,45.698L420.55,45.698L421.69,45.783L422.83,45.726L423.96,45.747L425.1,45.69L426.24,45.623L427.38,45.662L428.52,45.722L429.66,45.584L430.8,45.588L431.93,45.549L433.07,45.62L434.21,45.456L435.35,45.531L436.49,45.513L437.63,45.57L438.77,45.584L439.9,45.517L441.04,45.524L442.18,45.478L443.32,45.549L444.46,45.488L445.6,45.421L446.74,45.513L447.87,45.435L449.01,45.453L450.15,45.46L451.29,45.4L452.43,45.424L453.57,45.432L454.71,45.428L455.84,45.414L456.98,45.375L458.12,45.336L459.26,45.343L460.4,45.35L461.54,45.329L462.68,45.346L463.81,45.364L464.95,45.357L466.09,45.322L467.23,45.336L468.37,45.311L469.51,45.339L470.65,45.286L471.79,45.318L472.92,45.29L474.06,45.283L475.2,45.304L476.34,45.293L477.48,45.322L478.62,45.279L479.76,45.279L480.89,45.283L482.03,45.244L483.17,45.268L484.31,45.276L485.45,45.272L486.59,45.268L487.73,45.236L488.86,45.24L490,45.258L491.14,45.244L492.28,45.258L493.42,45.261L494.56,45.226L495.7,45.247L496.83,45.283L497.97,45.251L499.11,45.208L500.25,45.251L501.39,45.222L502.53,45.233L503.67,45.219L504.8,45.212L505.94,45.18L507.08,45.208L508.22,45.205L509.36,45.205L510.5,45.212L511.64,45.201L512.77,45.194L513.91,45.194L515.05,45.183L516.19,45.187L517.33,45.208L518.47,45.19L519.61,45.169L520.74,45.19L521.88,45.187L523.02,45.201L524.16,45.166L525.3,45.18L526.44,45.173L527.58,45.208L528.72,45.176L529.85,45.183L530.99,45.183L532.13,45.205L533.27,45.169L534.41,45.166L535.55,45.187L536.69,45.176L537.82,45.169L538.96,45.173L540.1,45.169L541.24,45.19L542.38,45.173L543.52,45.173L544.66,45.169L545.79,45.162L546.93,45.162L548.07,45.158L549.21,45.166L550.35,45.176L551.49,45.162L552.63,45.173L553.76,45.162L554.9,45.162L556.04,45.162L557.18,45.166L558.32,45.158L559.46,45.169L560.6,45.162L561.73,45.158L562.87,45.166L564.01,45.158L565.15,45.155L566.29,45.166L567.43,45.155L568.57,45.151L569.7,45.155L570.84,45.155L571.98,45.158L573.12,45.155L575.4,45.155L577.67,45.166L578.81,45.158L579.95,45.169L581.09,45.155L582.23,45.155L583.37,45.155L584.51,45.151L586.78,45.162L587.92,45.158L589.06,45.151L590.2,45.155L593.62,45.155L594.75,45.155L595.89,45.151L598.17,45.151L602.72,45.151L605,45.151L606.14,45.155L608.42,45.151L609.56,45.151L614.11,45.151L615.25,45.151L625.5,45.151L626.63,45.151L633.47,45.151L635.74,45.151L638.02,45.155L640.3,45.155L641.44,45.151L653.96,45.151L661.93,45.151L667.62,45.151L685.84,45.151L714.31,45.151L720,45.151" style="fill:none;stroke:#0000FF" />
</g>
</svg>
