<?xml version="1.0"?>
<!-- Generated by SVGo and Plotinum VG -->
<svg width="720pt" height="432pt" viewBox="0 0 720 432"
	xmlns="http://www.w3.org/2000/svg"
	xmlns:xlink="http://www.w3.org/1999/xlink">
<g transform="scale(1, -1) translate(0, -432)">
<path d="M0,0L720,0L720,432L0,432Z" style="fill:#FFFFFF" />
<text x="358.5" y="-420.45" transform="scale(1, -1)"
	style="font-family:Times;font-weight:normal;font-style:normal;font-size:12px"> </text>
<text x="385.56" y="-3.8613" transform="scale(1, -1)"
	style="font-family:Times;font-weight:normal;font-style:normal;font-size:12px">Costs</text>
<text x="75.305" y="-18.634" transform="scale(1, -1)"
	style="font-family:Times;font-weight:normal;font-style:normal;font-size:10px">0</text>
<text x="334.04" y="-18.634" transform="scale(1, -1)"
	style="font-family:Times;font-weight:normal;font-style:normal;font-size:10px">200</text>
<text x="597.78" y="-18.634" transform="scale(1, -1)"
	style="font-family:Times;font-weight:normal;font-style:normal;font-size:10px">400</text>
<path d="M77.805,28.263L77.805,36.263" style="fill:none;stroke:#000000;stroke-width:0.5" />
<path d="M341.54,28.263L341.54,36.263" style="fill:none;stroke:#000000;stroke-width:0.5" />
<path d="M605.28,28.263L605.28,36.263" style="fill:none;stroke:#000000;stroke-width:0.5" />
<path d="M209.67,32.263L209.67,36.263" style="fill:none;stroke:#000000;stroke-width:0.5" />
<path d="M473.41,32.263L473.41,36.263" style="fill:none;stroke:#000000;stroke-width:0.5" />
<path d="M77.805,36.263L720,36.263" style="fill:none;stroke:#000000;stroke-width:0.5" />
<g transform="rotate(90)">
<text x="152.55" y="11.555" transform="scale(1, -1)"
	style="font-family:Times;font-weight:normal;font-style:normal;font-size:12px">Number of trials (1000000 total)</text>
</g>
<text x="24.055" y="-90.405" transform="scale(1, -1)"
	style="font-family:Times;font-weight:normal;font-style:normal;font-size:10px">25000.00</text>
<text x="19.055" y="-235.79" transform="scale(1, -1)"
	style="font-family:Times;font-weight:normal;font-style:normal;font-size:10px">100000.00</text>
<text x="19.055" y="-381.17" transform="scale(1, -1)"
	style="font-family:Times;font-weight:normal;font-style:normal;font-size:10px">175000.00</text>
<path d="M64.055,93.611L72.055,93.611" style="fill:none;stroke:#000000;stroke-width:0.5" />
<path d="M64.055,239L72.055,239" style="fill:none;stroke:#000000;stroke-width:0.5" />
<path d="M64.055,384.38L72.055,384.38" style="fill:none;stroke:#000000;stroke-width:0.5" />
<path d="M68.055,166.3L72.055,166.3" style="fill:none;stroke:#000000;stroke-width:0.5" />
<path d="M68.055,311.69L72.055,311.69" style="fill:none;stroke:#000000;stroke-width:0.5" />
<path d="M72.055,45.151L72.055,416.58" style="fill:none;stroke:#000000;stroke-width:0.5" />
<path d="M77.805,416.58L108.13,86.39L112.09,52.188L114.73,89.596L116.05,48.507L120,86.702L121.32,48.538L122.64,98.085L123.96,73.501L125.28,48.65L126.6,48.592L127.91,48.549L129.23,51.994L130.55,48.422L131.87,59.343L133.19,48.782L134.51,48.763L135.83,104.76L137.15,48.739L138.46,78.565L141.1,48.584L142.42,63.627L143.74,48.577L145.06,49.567L146.38,45.525L147.69,129.4L149.01,49.589L150.33,49.91L151.65,67.372L152.97,51.477L154.29,49.253L155.61,81.748L156.93,72.685L158.24,61.144L159.56,52.359L160.88,60.12L162.2,47.468L163.52,46.38L164.84,51.729L166.16,59.99L167.47,47.923L168.79,55.092L170.11,48.276L171.43,47.524L172.75,56.117L174.07,52.921L175.39,54.061L176.71,48.35L178.02,63.142L179.34,49.709L180.66,58.476L181.98,54.813L183.3,92.355L184.62,70.888L185.94,53.049L187.25,52.362L188.57,52.349L189.89,58.961L191.21,49.66L192.53,63.64L193.85,60.717L195.17,50.633L196.49,55.268L197.8,53.698L199.12,51.641L200.44,56.67L201.76,56.784L203.08,54.708L204.4,49.364L205.72,63.394L207.03,49.6L208.35,55.869L209.67,52.004L210.99,50.773L212.31,54.473L213.63,57.589L214.95,54.004L216.27,53.136L217.58,57.222L218.9,52.242L220.22,55.811L221.54,55.875L222.86,50.125L224.18,48.98L225.5,60.107L226.82,56.811L228.13,56.833L229.45,55.724L230.77,53.814L232.09,49.937L233.41,49.654L234.73,52.692L236.05,52.7L237.36,50.556L238.68,52.44L240,49.736L241.32,54.848L242.64,52.331L243.96,53.63L245.28,50.775L246.6,49.331L247.91,52.479L249.23,49.548L250.55,51.006L251.87,50.094L253.19,58.629L254.51,52.626L255.83,50.143L257.14,51.736L258.46,50.833L259.78,49.99L261.1,52.779L262.42,53.737L263.74,52.122L265.06,49.344L266.38,51.176L267.69,49.296L269.01,48.212L270.33,49.941L271.65,50.81L272.97,49.49L274.29,49.075L275.61,49.492L276.92,48.297L278.24,48.941L279.56,49.796L280.88,49.253L282.2,48.546L283.52,50.345L284.84,49.007L286.16,49.614L287.47,49.211L288.79,48.716L290.11,50.6L291.43,48.749L292.75,48.449L294.07,48.171L295.39,49.214L296.7,48.266L298.02,49.187L299.34,49.685L300.66,48.406L301.98,48.232L303.3,48.02L304.62,48.28L305.94,48.451L307.25,48.303L308.57,48.501L309.89,47.514L311.21,48.712L312.53,47.747L313.85,47.921L315.17,47.629L316.49,47.414L317.8,47.728L319.12,47.596L320.44,47.697L321.76,47.536L323.08,47.828L324.4,47.46L325.72,47.146L327.03,47.699L328.35,47.152L329.67,46.931L330.99,47.666L332.31,47.722L333.63,47.185L334.95,47.08L336.27,47.167L337.58,46.793L338.9,46.656L340.22,46.904L341.54,46.985L342.86,46.627L344.18,46.923L345.5,46.574L346.81,46.458L348.13,46.714L349.45,46.687L350.77,46.578L352.09,46.435L353.41,46.468L354.73,46.338L356.05,46.415L357.36,46.524L358.68,46.295L360,46.59L361.32,46.28L362.64,46.334L363.96,46.338L365.28,46.223L366.59,46.204L367.91,46.39L369.23,46.324L370.55,46.124L371.87,46.161L373.19,46.183L374.51,45.935L375.83,46.115L377.14,46.101L378.46,46.029L379.78,45.884L381.1,46L382.42,45.925L383.74,45.876L385.06,45.989L386.37,45.981L387.69,45.863L389.01,45.861L390.33,45.878L391.65,45.834L392.97,45.772L394.29,45.745L395.61,45.797L396.92,45.776L398.24,45.719L399.56,45.675L400.88,45.748L402.2,45.793L403.52,45.611L404.84,45.712L406.16,45.7L407.47,45.582L408.79,45.547L410.11,45.657L411.43,45.646L412.75,45.584L414.07,45.588L415.39,45.601L416.7,45.524L418.02,45.574L419.34,45.487L420.66,45.493L421.98,45.537L423.3,45.469L424.62,45.463L425.94,45.442L427.25,45.491L428.57,45.448L429.89,45.514L431.21,45.429L432.53,45.462L433.85,45.411L435.17,45.421L436.48,45.392L437.8,45.401L439.12,45.394L440.44,45.386L441.76,45.421L443.08,45.355L444.4,45.359L445.72,45.367L447.03,45.355L448.35,45.367L449.67,45.299L450.99,45.355L452.31,45.339L453.63,45.301L454.95,45.324L456.26,45.31L457.58,45.301L458.9,45.306L460.22,45.295L461.54,45.312L462.86,45.295L464.18,45.297L465.5,45.272L466.81,45.306L468.13,45.283L469.45,45.297L470.77,45.279L472.09,45.281L473.41,45.252L474.73,45.246L476.04,45.221L477.36,45.252L478.68,45.246L480,45.239L481.32,45.252L482.64,45.242L483.96,45.248L485.28,45.215L486.59,45.223L487.91,45.242L489.23,45.211L490.55,45.215L491.87,45.248L493.19,45.229L494.51,45.202L495.83,45.215L497.14,45.2L498.46,45.231L499.78,45.225L501.1,45.215L502.42,45.2L503.74,45.186L505.06,45.2L506.37,45.206L507.69,45.204L509.01,45.194L510.33,45.194L511.65,45.18L512.97,45.204L514.29,45.18L515.61,45.169L516.92,45.204L518.24,45.213L519.56,45.179L520.88,45.186L522.2,45.179L523.52,45.177L524.84,45.184L526.15,45.186L527.47,45.171L528.79,45.18L530.11,45.175L531.43,45.182L532.75,45.173L534.07,45.173L535.39,45.163L536.7,45.175L538.02,45.163L539.34,45.18L540.66,45.165L541.98,45.167L543.3,45.165L544.62,45.163L545.93,45.163L547.25,45.163L548.57,45.167L549.89,45.177L551.21,45.169L552.53,45.165L553.85,45.165L555.17,45.161L556.48,45.155L557.8,45.163L559.12,45.169L560.44,45.167L561.76,45.159L563.08,45.171L564.4,45.163L565.71,45.159L567.03,45.153L568.35,45.157L569.67,45.155L570.99,45.161L572.31,45.155L573.63,45.159L574.95,45.155L576.26,45.155L577.58,45.161L578.9,45.151L580.22,45.151L581.54,45.159L582.86,45.151L584.18,45.153L585.5,45.159L586.81,45.153L588.13,45.169L589.45,45.161L590.77,45.157L592.09,45.155L593.41,45.151L594.73,45.153L596.04,45.153L597.36,45.159L598.68,45.155L600,45.151L601.32,45.159L602.64,45.151L603.96,45.151L605.28,45.155L606.59,45.153L607.91,45.151L609.23,45.151L610.55,45.153L611.87,45.151L614.51,45.155L615.82,45.153L617.14,45.153L618.46,45.157L619.78,45.151L621.1,45.153L622.42,45.155L625.06,45.153L626.37,45.151L630.33,45.151L631.65,45.153L634.29,45.155L638.24,45.153L639.56,45.153L640.88,45.151L646.15,45.151L647.47,45.151L648.79,45.151L652.75,45.151L656.7,45.151L661.98,45.151L664.62,45.151L673.85,45.151L720,45.151" style="fill:none;stroke:#0000FF" />
</g>
</svg>
