<?xml version="1.0"?>
<!-- Generated by SVGo and Plotinum VG -->
<svg width="720pt" height="432pt" viewBox="0 0 720 432"
	xmlns="http://www.w3.org/2000/svg"
	xmlns:xlink="http://www.w3.org/1999/xlink">
<g transform="scale(1, -1) translate(0, -432)">
<path d="M0,0L720,0L720,432L0,432Z" style="fill:#FFFFFF" />
<text x="358.5" y="-420.45" transform="scale(1, -1)"
	style="font-family:Times;font-weight:normal;font-style:normal;font-size:12px"> </text>
<text x="379.31" y="-3.8613" transform="scale(1, -1)"
	style="font-family:Times;font-weight:normal;font-style:normal;font-size:12px">Costs</text>
<text x="62.805" y="-18.634" transform="scale(1, -1)"
	style="font-family:Times;font-weight:normal;font-style:normal;font-size:10px">0</text>
<text x="330.03" y="-18.634" transform="scale(1, -1)"
	style="font-family:Times;font-weight:normal;font-style:normal;font-size:10px">200</text>
<text x="602.25" y="-18.634" transform="scale(1, -1)"
	style="font-family:Times;font-weight:normal;font-style:normal;font-size:10px">400</text>
<path d="M65.305,28.263L65.305,36.263" style="fill:none;stroke:#000000;stroke-width:0.5" />
<path d="M337.53,28.263L337.53,36.263" style="fill:none;stroke:#000000;stroke-width:0.5" />
<path d="M609.75,28.263L609.75,36.263" style="fill:none;stroke:#000000;stroke-width:0.5" />
<path d="M201.42,32.263L201.42,36.263" style="fill:none;stroke:#000000;stroke-width:0.5" />
<path d="M473.64,32.263L473.64,36.263" style="fill:none;stroke:#000000;stroke-width:0.5" />
<path d="M65.305,36.263L720,36.263" style="fill:none;stroke:#000000;stroke-width:0.5" />
<g transform="rotate(90)">
<text x="152.55" y="11.555" transform="scale(1, -1)"
	style="font-family:Times;font-weight:normal;font-style:normal;font-size:12px">Number of trials (1000000 total)</text>
</g>
<text x="24.055" y="-107.09" transform="scale(1, -1)"
	style="font-family:Times;font-weight:normal;font-style:normal;font-size:10px">50000</text>
<text x="19.055" y="-237.38" transform="scale(1, -1)"
	style="font-family:Times;font-weight:normal;font-style:normal;font-size:10px">150000</text>
<text x="19.055" y="-367.66" transform="scale(1, -1)"
	style="font-family:Times;font-weight:normal;font-style:normal;font-size:10px">250000</text>
<path d="M51.555,110.29L59.555,110.29" style="fill:none;stroke:#000000;stroke-width:0.5" />
<path d="M51.555,240.58L59.555,240.58" style="fill:none;stroke:#000000;stroke-width:0.5" />
<path d="M51.555,370.87L59.555,370.87" style="fill:none;stroke:#000000;stroke-width:0.5" />
<path d="M55.555,175.44L59.555,175.44" style="fill:none;stroke:#000000;stroke-width:0.5" />
<path d="M55.555,305.73L59.555,305.73" style="fill:none;stroke:#000000;stroke-width:0.5" />
<path d="M59.555,45.151L59.555,416.58" style="fill:none;stroke:#000000;stroke-width:0.5" />
<path d="M65.305,416.58L95.249,52.149L96.61,52.174L97.971,48.695L100.69,73.256L102.05,48.751L103.42,55.508L106.14,48.517L107.5,48.587L108.86,51.799L111.58,74.092L112.94,69.66L114.3,48.59L115.67,52.269L117.03,48.407L118.39,91.818L119.75,48.475L121.11,52.109L122.47,87.96L125.19,84.729L126.55,48.573L127.92,48.773L129.28,45.213L130.64,45.632L132,55.95L133.36,56.157L134.72,52.492L136.08,45.768L137.44,87.168L138.8,64.293L140.17,49.026L141.53,56.608L142.89,53.603L144.25,46.578L145.61,49.181L146.97,47.599L148.33,51.77L149.69,68.805L151.05,57.638L152.42,46.91L153.78,50.414L155.14,47.878L156.5,48.368L157.86,49.659L159.22,48.328L160.58,50.217L161.94,51.16L163.3,48.171L164.67,53.232L166.03,53.405L167.39,48.429L168.75,52.937L170.11,53.998L171.47,51.031L172.83,53.374L174.19,71.4L175.55,60.598L176.92,47.812L178.28,52.877L179.64,50.465L181,49.784L182.36,51.727L183.72,50.006L185.08,54.368L186.44,50.445L187.8,49.486L189.17,49.386L190.53,53.168L191.89,50.771L193.25,49.068L194.61,53.425L195.97,50.64L197.33,53.517L198.69,50.483L200.05,48.862L201.42,48.793L202.78,50.071L204.14,49.481L205.5,49.896L206.86,50.411L208.22,48.941L209.58,52.487L210.94,51.107L212.3,48.2L213.67,48.582L215.03,48.522L216.39,48.224L217.75,49.115L219.11,48.505L220.47,48.875L221.83,52.393L223.19,50.157L224.55,48.261L225.92,48.531L227.28,50.459L228.64,48.508L230,48.039L231.36,49.928L232.72,48.538L234.08,49.692L235.44,49.031L236.8,47.628L238.17,47.983L239.53,47.198L240.89,47.87L242.25,48.62L243.61,48.007L244.97,47.454L246.33,49.667L247.69,49.124L249.05,47.663L250.42,48.212L251.78,47.764L253.14,47.199L254.5,47.676L255.86,47.236L257.22,47.635L258.58,48.35L259.94,47.887L261.3,46.962L262.67,47.248L264.03,47.034L265.39,46.764L266.75,47.081L268.11,46.947L269.47,47.141L270.83,47.16L272.19,46.654L273.55,46.91L274.92,47.171L276.28,46.753L277.64,46.771L279,47.025L280.36,46.759L281.72,46.995L283.08,46.77L284.44,47.081L285.8,46.38L287.17,46.491L288.53,46.457L289.89,46.367L291.25,46.57L292.61,46.33L293.97,46.685L295.33,46.598L296.69,46.26L298.05,46.233L299.42,46.465L300.78,46.259L302.14,46.23L303.5,46.419L304.86,46.263L306.22,46.336L307.58,46.306L308.94,46.045L310.31,45.95L311.67,46.069L313.03,46.003L314.39,45.998L315.75,46.011L317.11,45.971L318.47,46.062L319.83,46.037L321.19,45.842L322.56,45.828L323.92,45.86L325.28,45.751L326.64,45.831L328,45.794L329.36,45.706L330.72,45.86L332.08,45.908L333.44,45.712L334.81,45.755L336.17,45.775L337.53,45.62L338.89,45.615L340.25,45.607L341.61,45.699L342.97,45.609L344.33,45.646L345.69,45.592L347.06,45.61L348.42,45.554L349.78,45.511L351.14,45.602L352.5,45.579L353.86,45.511L355.22,45.52L356.58,45.557L357.94,45.511L359.31,45.517L360.67,45.502L362.03,45.481L363.39,45.454L364.75,45.467L366.11,45.45L367.47,45.42L368.83,45.447L370.19,45.398L371.56,45.407L372.92,45.407L374.28,45.399L375.64,45.399L377,45.394L378.36,45.375L379.72,45.391L381.08,45.39L382.44,45.342L383.81,45.356L385.17,45.332L386.53,45.317L387.89,45.347L389.25,45.309L390.61,45.296L391.97,45.306L393.33,45.309L394.69,45.296L396.06,45.313L397.42,45.289L398.78,45.283L400.14,45.291L401.5,45.271L402.86,45.291L404.22,45.297L405.58,45.275L406.94,45.279L408.31,45.26L409.67,45.265L411.03,45.25L412.39,45.227L413.75,45.243L415.11,45.239L416.47,45.245L417.83,45.239L419.19,45.24L420.56,45.217L421.92,45.223L423.28,45.213L424.64,45.228L426,45.21L427.36,45.22L428.72,45.219L430.08,45.205L431.44,45.223L432.81,45.214L434.17,45.2L435.53,45.214L436.89,45.203L438.25,45.198L439.61,45.201L440.97,45.207L442.33,45.201L443.69,45.187L445.06,45.198L446.42,45.193L447.78,45.194L449.14,45.189L450.5,45.176L451.86,45.189L453.22,45.201L454.58,45.172L455.94,45.185L457.31,45.184L458.67,45.177L460.03,45.197L461.39,45.18L462.75,45.166L464.11,45.188L465.47,45.171L466.83,45.164L468.19,45.177L469.56,45.17L470.92,45.177L472.28,45.168L473.64,45.183L475,45.174L476.36,45.163L477.72,45.172L479.08,45.17L480.44,45.159L481.81,45.164L483.17,45.164L484.53,45.163L485.89,45.164L487.25,45.166L488.61,45.17L489.97,45.163L491.33,45.163L492.69,45.157L494.06,45.16L495.42,45.164L496.78,45.164L498.14,45.162L499.5,45.16L500.86,45.162L502.22,45.167L503.58,45.159L504.94,45.166L506.31,45.151L507.67,45.158L509.03,45.159L510.39,45.158L511.75,45.162L513.11,45.158L514.47,45.163L515.83,45.159L517.19,45.159L518.56,45.158L519.92,45.153L521.28,45.16L522.64,45.155L524,45.153L525.36,45.162L526.72,45.157L528.08,45.157L529.44,45.157L530.81,45.153L532.17,45.154L533.53,45.154L534.89,45.153L537.61,45.153L538.97,45.158L541.69,45.151L543.06,45.153L544.42,45.153L545.78,45.151L547.14,45.154L548.5,45.153L549.86,45.151L551.22,45.151L552.58,45.153L553.94,45.151L556.67,45.153L559.39,45.153L560.75,45.151L562.11,45.151L563.47,45.153L564.83,45.153L566.19,45.151L567.56,45.151L571.64,45.151L575.72,45.151L577.08,45.151L578.44,45.153L579.81,45.154L585.25,45.151L586.61,45.151L590.69,45.151L594.78,45.151L598.86,45.151L600.22,45.151L613.83,45.151L623.36,45.151L627.44,45.151L628.81,45.151L635.61,45.151L651.94,45.151L680.53,45.151L718.64,45.151L720,45.151" style="fill:none;stroke:#0000FF" />
</g>
</svg>
