<?xml version="1.0"?>
<!-- Generated by SVGo and Plotinum VG -->
<svg width="720pt" height="432pt" viewBox="0 0 720 432"
	xmlns="http://www.w3.org/2000/svg"
	xmlns:xlink="http://www.w3.org/1999/xlink">
<g transform="scale(1, -1) translate(0, -432)">
<path d="M0,0L720,0L720,432L0,432Z" style="fill:#FFFFFF" />
<text x="358.5" y="-420.45" transform="scale(1, -1)"
	style="font-family:Times;font-weight:normal;font-style:normal;font-size:12px"> </text>
<text x="376.81" y="-3.8613" transform="scale(1, -1)"
	style="font-family:Times;font-weight:normal;font-style:normal;font-size:12px">Costs</text>
<text x="57.805" y="-18.634" transform="scale(1, -1)"
	style="font-family:Times;font-weight:normal;font-style:normal;font-size:10px">0</text>
<text x="375.66" y="-18.634" transform="scale(1, -1)"
	style="font-family:Times;font-weight:normal;font-style:normal;font-size:10px">300</text>
<text x="698.51" y="-18.634" transform="scale(1, -1)"
	style="font-family:Times;font-weight:normal;font-style:normal;font-size:10px">600</text>
<path d="M60.305,28.263L60.305,36.263" style="fill:none;stroke:#000000;stroke-width:0.5" />
<path d="M383.16,28.263L383.16,36.263" style="fill:none;stroke:#000000;stroke-width:0.5" />
<path d="M706.01,28.263L706.01,36.263" style="fill:none;stroke:#000000;stroke-width:0.5" />
<path d="M167.92,32.263L167.92,36.263" style="fill:none;stroke:#000000;stroke-width:0.5" />
<path d="M275.54,32.263L275.54,36.263" style="fill:none;stroke:#000000;stroke-width:0.5" />
<path d="M490.77,32.263L490.77,36.263" style="fill:none;stroke:#000000;stroke-width:0.5" />
<path d="M598.39,32.263L598.39,36.263" style="fill:none;stroke:#000000;stroke-width:0.5" />
<path d="M60.305,36.263L720,36.263" style="fill:none;stroke:#000000;stroke-width:0.5" />
<g transform="rotate(90)">
<text x="152.55" y="11.555" transform="scale(1, -1)"
	style="font-family:Times;font-weight:normal;font-style:normal;font-size:12px">Number of trials (1000000 total)</text>
</g>
<text x="24.055" y="-80.536" transform="scale(1, -1)"
	style="font-family:Times;font-weight:normal;font-style:normal;font-size:10px">5000</text>
<text x="19.055" y="-234.93" transform="scale(1, -1)"
	style="font-family:Times;font-weight:normal;font-style:normal;font-size:10px">25000</text>
<text x="19.055" y="-389.32" transform="scale(1, -1)"
	style="font-family:Times;font-weight:normal;font-style:normal;font-size:10px">45000</text>
<path d="M46.555,83.741L54.555,83.741" style="fill:none;stroke:#000000;stroke-width:0.5" />
<path d="M46.555,238.13L54.555,238.13" style="fill:none;stroke:#000000;stroke-width:0.5" />
<path d="M46.555,392.52L54.555,392.52" style="fill:none;stroke:#000000;stroke-width:0.5" />
<path d="M50.555,160.94L54.555,160.94" style="fill:none;stroke:#000000;stroke-width:0.5" />
<path d="M50.555,315.33L54.555,315.33" style="fill:none;stroke:#000000;stroke-width:0.5" />
<path d="M54.555,45.151L54.555,416.58" style="fill:none;stroke:#000000;stroke-width:0.5" />
<path d="M60.305,416.58L85.057,51.659L88.285,48.556L89.361,113.43L90.438,95.305L91.514,55.526L93.666,154.3L95.818,48.602L96.895,79.14L97.971,76.199L100.12,59.232L101.2,87.068L102.28,59.054L103.35,59.131L104.43,191.42L105.5,166.36L106.58,66.534L107.66,65.654L108.73,48.764L109.81,52.014L113.04,45.19L114.11,46.402L115.19,155.94L116.27,45.391L117.34,177.67L118.42,79.719L119.49,68.534L120.57,51.335L121.65,62.019L122.72,69.746L123.8,81.263L124.88,49.505L125.95,67.306L127.03,95.923L128.1,162.76L129.18,52.037L130.26,67.615L131.33,64.157L132.41,52.693L133.48,81.688L134.56,103.56L135.64,75.026L136.71,71.351L137.79,95.251L138.87,85.764L139.94,57.734L141.02,68.186L142.09,74.841L143.17,62.652L144.25,77.218L145.32,86.852L146.4,94.24L147.47,87.045L148.55,107.31L149.63,97.166L150.7,102.4L151.78,84.413L152.86,77.975L153.93,67.993L155.01,75.366L156.08,75.798L157.16,89.925L158.24,85.656L159.31,108.62L160.39,106.28L161.47,141.86L162.54,113.82L163.62,86.883L164.69,86.953L165.77,74.053L166.85,72.664L167.92,81.966L169,78.067L170.07,70.379L171.15,82.051L172.23,148.76L173.3,102.61L174.38,81.896L175.46,82.028L176.53,72.71L177.61,71.398L178.68,85.254L179.76,75.42L180.84,84.637L181.91,83.934L182.99,109.86L184.06,79.735L185.14,110.16L186.22,79.372L187.29,75.196L188.37,76.222L189.45,83.541L190.52,89.137L191.6,96.98L192.67,87.817L193.75,88.288L194.83,92.958L195.9,82.699L196.98,78.392L198.06,79.125L199.13,75.258L200.21,75.852L201.28,90.836L202.36,95.081L203.44,83.78L204.51,93.205L205.59,98.601L206.66,93.615L207.74,78.886L208.82,82.769L209.89,80.646L210.97,73.59L212.05,80.661L213.12,82.174L214.2,83.278L215.27,81.217L216.35,97.281L217.43,93.784L218.5,88.373L219.58,84.004L220.65,79.241L221.73,76.933L222.81,79.295L223.88,77.604L224.96,79.102L226.04,81.364L227.11,86.374L228.19,85.524L229.26,88.52L230.34,86.706L231.42,76.408L232.49,73.853L233.57,72.478L234.65,74.555L235.72,79.125L236.8,73.413L237.87,76.601L238.95,78.191L240.03,82.383L241.1,71.066L242.18,73.088L243.25,72.579L244.33,70.07L245.41,71.336L246.48,77.28L247.56,74.061L248.64,77.226L249.71,77.018L250.79,74.1L251.86,73.104L252.94,71.707L254.02,69.8L255.09,68.596L256.17,69.931L257.24,71.722L258.32,71.791L259.4,74.455L260.47,73.721L261.55,73.907L262.63,70.827L263.7,72.147L264.78,68.225L265.85,67.716L266.93,67.129L268.01,67.623L269.08,69.36L270.16,68.843L271.23,67.638L272.31,69.692L273.39,68.943L274.46,68.742L275.54,66.357L276.62,66.751L277.69,64.242L278.77,63.3L279.84,64.767L280.92,65.029L282,63.655L283.07,65.122L284.15,65.917L285.23,65.469L286.3,63.431L287.38,63.725L288.45,62.011L289.53,61.864L290.61,62.798L291.68,62.312L292.76,63.161L293.83,63.076L294.91,62.235L295.99,61.285L297.06,60.59L298.14,60.235L299.22,58.9L300.29,59.147L301.37,59.602L302.44,59.363L303.52,60.691L304.6,59.595L305.67,59.209L306.75,59.803L307.82,58.823L308.9,57.711L309.98,57.85L311.05,57.24L312.13,56.638L313.21,57.186L314.28,57.889L315.36,56.947L316.43,57.626L317.51,57.356L318.59,56.623L319.66,56.522L320.74,55.835L321.82,55.457L322.89,55.38L323.97,55.171L325.04,55.333L326.12,54.917L327.2,55.333L328.27,54.345L329.35,55.063L330.42,54.23L331.5,54.322L332.58,53.751L333.65,53.813L334.73,53.326L335.81,53.249L336.88,52.84L337.96,52.871L339.03,53.218L340.11,52.539L341.19,52.454L342.26,52.315L343.34,52.207L344.41,52.315L345.49,51.891L346.57,51.396L347.64,51.898L348.72,51.458L349.8,51.443L350.87,51.466L351.95,50.949L353.02,50.64L354.1,50.98L355.18,50.748L356.25,50.648L357.33,50.308L358.41,51.018L359.48,50.47L360.56,50.501L361.63,50.555L362.71,50.293L363.79,49.721L364.86,49.814L365.94,49.675L367.01,49.621L368.09,49.343L369.17,49.351L370.24,49.019L371.32,49.528L372.4,49.158L373.47,49.536L374.55,49.173L375.62,48.733L376.7,49.127L377.78,48.594L378.85,48.432L379.93,48.424L381,49.003L382.08,48.316L383.16,48.208L384.23,48.231L385.31,48.046L386.39,48.046L387.46,47.93L388.54,47.992L389.61,47.869L390.69,47.768L391.77,47.807L392.84,47.753L393.92,47.707L395,47.552L396.07,47.413L397.15,47.591L398.22,47.645L399.3,47.351L400.38,47.182L401.45,47.166L402.53,47.22L403.6,47.027L404.68,46.973L405.76,47.035L406.83,47.151L407.91,46.842L408.99,46.896L410.06,46.881L411.14,46.788L412.21,46.657L413.29,46.718L414.37,46.595L415.44,46.425L416.52,46.618L417.59,46.456L418.67,46.742L419.75,46.278L420.82,46.587L421.9,46.441L422.98,46.425L424.05,46.217L425.13,46.309L426.2,46.309L427.28,46.078L428.36,46.085L429.43,46.217L430.51,46.248L431.59,46.24L432.66,46.124L433.74,46.016L434.81,46.001L435.89,46.047L436.97,46.016L438.04,45.831L439.12,45.885L440.19,45.846L441.27,45.831L442.35,45.885L443.42,45.962L444.5,45.939L445.58,45.8L446.65,45.831L447.73,45.823L448.8,45.753L449.88,45.746L450.96,45.823L452.03,45.638L453.11,45.591L454.18,45.715L455.26,45.661L456.34,45.638L457.41,45.653L458.49,45.653L459.57,45.576L460.64,45.607L461.72,45.622L462.79,45.53L463.87,45.468L464.95,45.615L466.02,45.561L467.1,45.576L468.18,45.422L469.25,45.591L470.33,45.422L471.4,45.452L472.48,45.499L473.56,45.476L474.63,45.53L475.71,45.468L476.78,45.46L477.86,45.352L478.94,45.476L480.01,45.36L481.09,45.391L482.17,45.383L483.24,45.352L484.32,45.406L485.39,45.321L486.47,45.406L487.55,45.267L488.62,45.375L489.7,45.298L490.77,45.352L491.85,45.306L492.93,45.344L494,45.321L495.08,45.313L496.16,45.306L497.23,45.259L498.31,45.306L499.38,45.344L500.46,45.321L501.54,45.275L502.61,45.252L503.69,45.259L504.76,45.244L505.84,45.244L506.92,45.252L507.99,45.236L509.07,45.259L510.15,45.229L511.22,45.236L512.3,45.221L513.37,45.275L514.45,45.221L515.53,45.275L516.6,45.29L517.68,45.198L518.76,45.221L519.83,45.244L520.91,45.175L521.98,45.205L523.06,45.19L524.14,45.244L525.21,45.259L526.29,45.198L527.36,45.19L528.44,45.175L529.52,45.182L530.59,45.205L531.67,45.259L532.75,45.182L533.82,45.198L534.9,45.205L535.97,45.182L537.05,45.167L538.13,45.159L539.2,45.182L540.28,45.167L541.35,45.19L542.43,45.175L543.51,45.167L544.58,45.19L545.66,45.19L546.74,45.19L547.81,45.167L548.89,45.167L549.96,45.182L551.04,45.182L552.12,45.19L553.19,45.198L554.27,45.175L555.35,45.159L556.42,45.151L557.5,45.159L558.57,45.167L559.65,45.159L560.73,45.151L561.8,45.151L562.88,45.159L563.95,45.159L565.03,45.175L566.11,45.167L568.26,45.167L569.34,45.151L570.41,45.167L571.49,45.151L572.56,45.159L574.72,45.19L575.79,45.159L576.87,45.182L577.94,45.151L579.02,45.159L580.1,45.151L581.17,45.151L582.25,45.151L583.33,45.151L585.48,45.159L588.71,45.151L589.78,45.151L591.94,45.151L596.24,45.167L597.32,45.151L598.39,45.159L599.47,45.151L601.62,45.167L602.7,45.151L603.77,45.151L605.93,45.151L608.08,45.151L619.92,45.151L622.07,45.151L624.22,45.151L625.3,45.151L637.13,45.151L641.44,45.151L650.05,45.151L653.28,45.151L720,45.151" style="fill:none;stroke:#0000FF" />
</g>
</svg>
