<?xml version="1.0"?>
<!-- Generated by SVGo and Plotinum VG -->
<svg width="720pt" height="432pt" viewBox="0 0 720 432"
	xmlns="http://www.w3.org/2000/svg"
	xmlns:xlink="http://www.w3.org/1999/xlink">
<g transform="scale(1, -1) translate(0, -432)">
<path d="M0,0L720,0L720,432L0,432Z" style="fill:#FFFFFF" />
<text x="358.5" y="-420.45" transform="scale(1, -1)"
	style="font-family:Times;font-weight:normal;font-style:normal;font-size:12px"> </text>
<text x="377.57" y="-3.8613" transform="scale(1, -1)"
	style="font-family:Times;font-weight:normal;font-style:normal;font-size:12px">Costs</text>
<text x="56.555" y="-18.634" transform="scale(1, -1)"
	style="font-family:Times;font-weight:normal;font-style:normal;font-size:10px">0.00</text>
<text x="372.03" y="-18.634" transform="scale(1, -1)"
	style="font-family:Times;font-weight:normal;font-style:normal;font-size:10px">250.00</text>
<text x="692.5" y="-18.634" transform="scale(1, -1)"
	style="font-family:Times;font-weight:normal;font-style:normal;font-size:10px">500.00</text>
<path d="M65.305,28.263L65.305,36.263" style="fill:none;stroke:#000000;stroke-width:0.5" />
<path d="M385.78,28.263L385.78,36.263" style="fill:none;stroke:#000000;stroke-width:0.5" />
<path d="M706.25,28.263L706.25,36.263" style="fill:none;stroke:#000000;stroke-width:0.5" />
<path d="M129.4,32.263L129.4,36.263" style="fill:none;stroke:#000000;stroke-width:0.5" />
<path d="M193.49,32.263L193.49,36.263" style="fill:none;stroke:#000000;stroke-width:0.5" />
<path d="M257.59,32.263L257.59,36.263" style="fill:none;stroke:#000000;stroke-width:0.5" />
<path d="M321.68,32.263L321.68,36.263" style="fill:none;stroke:#000000;stroke-width:0.5" />
<path d="M449.87,32.263L449.87,36.263" style="fill:none;stroke:#000000;stroke-width:0.5" />
<path d="M513.97,32.263L513.97,36.263" style="fill:none;stroke:#000000;stroke-width:0.5" />
<path d="M578.06,32.263L578.06,36.263" style="fill:none;stroke:#000000;stroke-width:0.5" />
<path d="M642.16,32.263L642.16,36.263" style="fill:none;stroke:#000000;stroke-width:0.5" />
<path d="M65.305,36.263L716.51,36.263" style="fill:none;stroke:#000000;stroke-width:0.5" />
<g transform="rotate(90)">
<text x="152.55" y="11.555" transform="scale(1, -1)"
	style="font-family:Times;font-weight:normal;font-style:normal;font-size:12px">Number of trials (1000000 total)</text>
</g>
<text x="24.055" y="-111.93" transform="scale(1, -1)"
	style="font-family:Times;font-weight:normal;font-style:normal;font-size:10px">40000</text>
<text x="19.055" y="-251.89" transform="scale(1, -1)"
	style="font-family:Times;font-weight:normal;font-style:normal;font-size:10px">120000</text>
<text x="19.055" y="-391.86" transform="scale(1, -1)"
	style="font-family:Times;font-weight:normal;font-style:normal;font-size:10px">200000</text>
<path d="M51.555,115.13L59.555,115.13" style="fill:none;stroke:#000000;stroke-width:0.5" />
<path d="M51.555,255.1L59.555,255.1" style="fill:none;stroke:#000000;stroke-width:0.5" />
<path d="M51.555,395.07L59.555,395.07" style="fill:none;stroke:#000000;stroke-width:0.5" />
<path d="M55.555,185.12L59.555,185.12" style="fill:none;stroke:#000000;stroke-width:0.5" />
<path d="M55.555,325.08L59.555,325.08" style="fill:none;stroke:#000000;stroke-width:0.5" />
<path d="M59.555,45.151L59.555,416.58" style="fill:none;stroke:#000000;stroke-width:0.5" />
<path d="M65.305,416.58L93.506,51.707L94.788,48.598L98.634,62.861L99.916,59.194L101.2,48.49L103.76,48.421L105.04,81.006L106.33,48.537L107.61,52.043L108.89,76.67L110.17,66.208L111.45,62.911L112.73,55.406L114.02,74.023L115.3,55.332L116.58,73.388L117.86,58.98L119.14,48.507L120.43,58.987L121.71,62.985L122.99,63.246L124.27,66.732L126.84,48.838L128.12,49.028L129.4,66.844L130.68,59.433L131.96,45.361L133.24,92.925L134.53,73.829L135.81,63.422L137.09,56.629L138.37,54.335L139.65,54.429L140.94,56.445L142.22,50.776L143.5,62.411L144.78,63.156L146.06,57.573L147.35,48.182L148.63,50.299L149.91,49.931L151.19,57.007L152.47,49.433L153.76,51.432L155.04,49.964L156.32,51.955L157.6,52.347L158.88,50.633L160.16,62.331L161.45,52.501L162.73,52.753L164.01,63.228L165.29,51.95L166.57,53.835L167.86,72.126L169.14,55.021L170.42,52.325L171.7,51.326L172.98,57.432L174.27,54.902L175.55,53.71L176.83,55.138L178.11,55.931L179.39,56.594L180.67,54.942L181.96,55.724L183.24,53.835L184.52,56.078L185.8,55.567L187.08,53.945L188.37,54.613L189.65,54.695L190.93,54.099L192.21,55.196L193.49,52.792L194.78,53.044L196.06,51.249L197.34,53.532L198.62,52.846L199.9,52.526L201.19,53.343L202.47,54.925L203.75,53.941L205.03,52.242L206.31,50.839L207.59,53.525L208.88,52.864L210.16,51.746L211.44,53.22L212.72,53.472L214,52.438L215.29,52.115L216.57,51.997L217.85,50.433L219.13,52.435L220.41,50.787L221.7,50.341L222.98,50.663L224.26,50.865L225.54,50.977L226.82,50.068L228.1,50.916L229.39,50.682L230.67,49.896L231.95,52.013L233.23,50.778L234.51,49.84L235.8,52.036L237.08,50.689L238.36,50.563L239.64,49.891L240.92,49.938L242.21,49.978L243.49,50.111L244.77,49.562L246.05,50.012L247.33,49.959L248.62,49.658L249.9,49.338L251.18,48.995L252.46,48.923L253.74,49.51L255.02,48.913L256.31,49.135L257.59,48.955L258.87,49.403L260.15,48.939L261.43,48.563L262.72,49.081L264,48.535L265.28,48.488L266.56,48.944L267.84,48.621L269.13,48.246L270.41,48.35L271.69,48.385L272.97,48.173L274.25,47.867L275.53,48.25L276.82,48.021L278.1,48.019L279.38,47.928L280.66,48.185L281.94,47.968L283.23,47.872L284.51,47.851L285.79,47.604L287.07,47.688L288.35,47.561L289.64,47.405L290.92,47.471L292.2,47.422L293.48,47.379L294.76,47.275L296.04,47.081L297.33,47.302L298.61,47.118L299.89,47.158L301.17,46.943L302.45,47.065L303.74,47.107L305.02,46.981L306.3,46.887L307.58,46.878L308.86,46.74L310.15,46.812L311.43,46.876L312.71,46.761L313.99,46.743L315.27,46.721L316.56,46.614L317.84,46.525L319.12,46.567L320.4,46.413L321.68,46.492L322.96,46.387L324.25,46.479L325.53,46.415L326.81,46.401L328.09,46.413L329.37,46.224L330.66,46.276L331.94,46.252L333.22,46.147L334.5,46.222L335.78,46.157L337.07,46.173L338.35,46.156L339.63,46.178L340.91,46.077L342.19,46.096L343.47,46.021L344.76,46.129L346.04,46.059L347.32,45.998L348.6,45.921L349.88,45.944L351.17,45.914L352.45,45.888L353.73,45.832L355.01,45.809L356.29,45.79L357.58,45.837L358.86,45.809L360.14,45.86L361.42,45.765L362.7,45.73L363.99,45.667L365.27,45.68L366.55,45.716L367.83,45.666L369.11,45.676L370.39,45.64L371.68,45.633L372.96,45.587L374.24,45.584L375.52,45.596L376.8,45.617L378.09,45.594L379.37,45.538L380.65,45.61L381.93,45.531L383.21,45.547L384.5,45.529L385.78,45.531L387.06,45.521L388.34,45.522L389.62,45.468L390.9,45.486L392.19,45.498L393.47,45.515L394.75,45.479L396.03,45.447L397.31,45.442L398.6,45.396L399.88,45.433L401.16,45.379L402.44,45.412L403.72,45.356L405.01,45.393L406.29,45.384L407.57,45.368L408.85,45.382L410.13,45.393L411.42,45.389L412.7,45.312L413.98,45.328L415.26,45.344L416.54,45.318L417.82,45.333L419.11,45.319L420.39,45.361L421.67,45.311L422.95,45.283L424.23,45.284L425.52,45.3L426.8,45.272L428.08,45.311L429.36,45.293L430.64,45.284L431.93,45.277L433.21,45.253L434.49,45.258L435.77,45.291L437.05,45.248L438.33,45.237L439.62,45.277L440.9,45.249L442.18,45.251L443.46,45.228L444.74,45.262L446.03,45.234L447.31,45.26L448.59,45.237L449.87,45.223L451.15,45.213L452.44,45.207L453.72,45.244L455,45.195L456.28,45.218L457.56,45.232L458.85,45.234L460.13,45.232L461.41,45.218L462.69,45.206L463.97,45.211L465.25,45.206L466.54,45.2L467.82,45.216L469.1,45.193L470.38,45.19L471.66,45.195L472.95,45.19L474.23,45.178L475.51,45.199L476.79,45.192L478.07,45.188L479.36,45.195L480.64,45.174L481.92,45.188L483.2,45.19L484.48,45.178L485.76,45.178L487.05,45.19L488.33,45.192L489.61,45.178L490.89,45.185L492.17,45.167L493.46,45.185L494.74,45.172L496.02,45.185L497.3,45.186L498.58,45.171L499.87,45.174L501.15,45.172L502.43,45.171L503.71,45.167L504.99,45.169L506.28,45.171L507.56,45.174L508.84,45.16L510.12,45.164L511.4,45.167L512.68,45.167L513.97,45.162L515.25,45.165L516.53,45.165L517.81,45.158L519.09,45.165L520.38,45.165L521.66,45.158L522.94,45.172L524.22,45.165L525.5,45.158L526.79,45.162L528.07,45.164L529.35,45.153L530.63,45.172L531.91,45.158L533.19,45.16L534.48,45.158L535.76,45.157L537.04,45.16L538.32,45.158L539.6,45.162L540.89,45.155L542.17,45.155L543.45,45.165L544.73,45.157L546.01,45.153L547.3,45.165L548.58,45.153L549.86,45.153L551.14,45.157L552.42,45.157L553.71,45.162L554.99,45.155L556.27,45.158L558.83,45.155L560.11,45.155L561.4,45.151L565.24,45.157L566.52,45.151L567.81,45.153L570.37,45.151L571.65,45.151L572.93,45.151L574.22,45.157L575.5,45.153L578.06,45.155L580.62,45.151L581.91,45.151L583.19,45.157L585.75,45.153L587.03,45.151L588.32,45.153L592.16,45.151L593.44,45.151L596.01,45.151L601.13,45.151L603.7,45.151L604.98,45.151L612.67,45.151L615.24,45.151L624.21,45.151L626.77,45.151L628.05,45.151L631.9,45.151L633.18,45.151L635.75,45.151L647.28,45.151L649.85,45.151L654.97,45.151L656.26,45.151L671.64,45.151L716.51,45.151" style="fill:none;stroke:#0000FF" />
</g>
</svg>
