<?xml version="1.0"?>
<!-- Generated by SVGo and Plotinum VG -->
<svg width="720pt" height="432pt" viewBox="0 0 720 432"
	xmlns="http://www.w3.org/2000/svg"
	xmlns:xlink="http://www.w3.org/1999/xlink">
<g transform="scale(1, -1) translate(0, -432)">
<path d="M0,0L720,0L720,432L0,432Z" style="fill:#FFFFFF" />
<text x="358.5" y="-420.45" transform="scale(1, -1)"
	style="font-family:Times;font-weight:normal;font-style:normal;font-size:12px"> </text>
<text x="379.31" y="-3.8613" transform="scale(1, -1)"
	style="font-family:Times;font-weight:normal;font-style:normal;font-size:12px">Costs</text>
<text x="56.555" y="-18.634" transform="scale(1, -1)"
	style="font-family:Times;font-weight:normal;font-style:normal;font-size:10px">0.00</text>
<text x="369.37" y="-18.634" transform="scale(1, -1)"
	style="font-family:Times;font-weight:normal;font-style:normal;font-size:10px">250.00</text>
<text x="687.18" y="-18.634" transform="scale(1, -1)"
	style="font-family:Times;font-weight:normal;font-style:normal;font-size:10px">500.00</text>
<path d="M65.305,28.263L65.305,36.263" style="fill:none;stroke:#000000;stroke-width:0.5" />
<path d="M383.12,28.263L383.12,36.263" style="fill:none;stroke:#000000;stroke-width:0.5" />
<path d="M700.93,28.263L700.93,36.263" style="fill:none;stroke:#000000;stroke-width:0.5" />
<path d="M128.87,32.263L128.87,36.263" style="fill:none;stroke:#000000;stroke-width:0.5" />
<path d="M192.43,32.263L192.43,36.263" style="fill:none;stroke:#000000;stroke-width:0.5" />
<path d="M255.99,32.263L255.99,36.263" style="fill:none;stroke:#000000;stroke-width:0.5" />
<path d="M319.56,32.263L319.56,36.263" style="fill:none;stroke:#000000;stroke-width:0.5" />
<path d="M446.68,32.263L446.68,36.263" style="fill:none;stroke:#000000;stroke-width:0.5" />
<path d="M510.24,32.263L510.24,36.263" style="fill:none;stroke:#000000;stroke-width:0.5" />
<path d="M573.81,32.263L573.81,36.263" style="fill:none;stroke:#000000;stroke-width:0.5" />
<path d="M637.37,32.263L637.37,36.263" style="fill:none;stroke:#000000;stroke-width:0.5" />
<path d="M65.305,36.263L720,36.263" style="fill:none;stroke:#000000;stroke-width:0.5" />
<g transform="rotate(90)">
<text x="152.55" y="11.555" transform="scale(1, -1)"
	style="font-family:Times;font-weight:normal;font-style:normal;font-size:12px">Number of trials (1000000 total)</text>
</g>
<text x="24.055" y="-112.96" transform="scale(1, -1)"
	style="font-family:Times;font-weight:normal;font-style:normal;font-size:10px">20000</text>
<text x="24.055" y="-254.99" transform="scale(1, -1)"
	style="font-family:Times;font-weight:normal;font-style:normal;font-size:10px">60000</text>
<text x="19.055" y="-397.02" transform="scale(1, -1)"
	style="font-family:Times;font-weight:normal;font-style:normal;font-size:10px">100000</text>
<path d="M51.555,116.16L59.555,116.16" style="fill:none;stroke:#000000;stroke-width:0.5" />
<path d="M51.555,258.19L59.555,258.19" style="fill:none;stroke:#000000;stroke-width:0.5" />
<path d="M51.555,400.22L59.555,400.22" style="fill:none;stroke:#000000;stroke-width:0.5" />
<path d="M55.555,80.655L59.555,80.655" style="fill:none;stroke:#000000;stroke-width:0.5" />
<path d="M55.555,151.67L59.555,151.67" style="fill:none;stroke:#000000;stroke-width:0.5" />
<path d="M55.555,187.18L59.555,187.18" style="fill:none;stroke:#000000;stroke-width:0.5" />
<path d="M55.555,222.68L59.555,222.68" style="fill:none;stroke:#000000;stroke-width:0.5" />
<path d="M55.555,293.7L59.555,293.7" style="fill:none;stroke:#000000;stroke-width:0.5" />
<path d="M55.555,329.21L59.555,329.21" style="fill:none;stroke:#000000;stroke-width:0.5" />
<path d="M55.555,364.71L59.555,364.71" style="fill:none;stroke:#000000;stroke-width:0.5" />
<path d="M59.555,45.151L59.555,416.58" style="fill:none;stroke:#000000;stroke-width:0.5" />
<path d="M65.305,416.58L93.272,48.358L94.544,68.373L98.357,106.62L99.629,55.875L100.9,62.412L102.17,58.857L103.44,52.125L104.71,81.699L105.98,55.168L107.26,75.766L108.53,70.102L109.8,59.887L111.07,93.69L112.34,66.282L113.61,63.331L114.88,55.704L116.15,73.756L117.43,78.621L118.7,76.185L119.97,69.833L121.24,81.877L122.51,48.628L123.78,75.62L126.32,52.434L127.6,62.848L128.87,45.968L130.14,91.378L131.41,47.047L132.68,65.508L133.95,78.692L135.22,52.157L136.49,70.298L137.77,89.316L139.04,53.318L140.31,58.74L141.58,59.926L142.85,58.673L144.12,64.354L145.39,66.435L146.66,56.954L147.94,56.176L149.21,57.203L150.48,62.096L151.75,58.719L153.02,61.673L154.29,62.017L155.56,69.158L156.83,61.637L158.11,105.14L159.38,60.981L160.65,61.385L161.92,59.383L163.19,84.572L164.46,59.784L165.73,64.169L167,97.635L168.28,76.267L169.55,66.775L170.82,64.833L172.09,63.324L173.36,65.014L174.63,61.716L175.9,66.047L177.17,63.093L178.45,62.696L179.72,63.867L180.99,61.538L182.26,61.364L183.53,64.119L184.8,61.808L186.07,63.168L187.34,61.751L188.62,65.607L189.89,60.665L191.16,68.725L192.43,64.084L193.7,59.88L194.97,61.027L196.24,63.917L197.52,63.761L198.79,62.23L200.06,66.353L201.33,66.058L202.6,64.801L203.87,64.407L205.14,62.763L206.41,66.108L207.69,61.044L208.96,67.592L210.23,66.25L211.5,63.519L212.77,64.762L214.04,67.329L215.31,60.388L216.58,63.143L217.86,60.881L219.13,62.326L220.4,63.161L221.67,60.888L222.94,66.296L224.21,59.251L225.48,61.652L226.75,61.687L228.03,60.114L229.3,59.986L230.57,62.735L231.84,61.737L233.11,59.287L234.38,60.054L235.65,62.621L236.92,59.358L238.2,60.725L239.47,60.998L240.74,58.935L242.01,58.104L243.28,58.886L244.55,58.122L245.82,58.275L247.09,58.74L248.37,59.166L249.64,56.759L250.91,56.883L252.18,57.373L253.45,57.664L254.72,56.915L255.99,60.008L257.26,57.703L258.54,57.377L259.81,61.197L261.08,58.861L262.35,57.089L263.62,56.705L264.89,58.303L266.16,57.217L267.43,56.354L268.71,57.323L269.98,57.43L271.25,56.024L272.52,56.059L273.79,55.896L275.06,55.694L276.33,55.449L277.6,55.917L278.88,55.85L280.15,54.603L281.42,55.8L282.69,54.856L283.96,54.337L285.23,54.923L286.5,54.106L287.77,53.982L289.05,54.426L290.32,53.691L291.59,53.964L292.86,53.95L294.13,54.135L295.4,53.201L296.67,52.693L297.94,52.988L299.22,53.496L300.49,53.002L301.76,52.988L303.03,53.094L304.3,52.97L305.57,52.384L306.84,52.572L308.11,52.558L309.39,52.036L310.66,52.398L311.93,52.121L313.2,52.09L314.47,51.695L315.74,51.862L317.01,51.223L318.28,51.557L319.56,51.099L320.83,51.433L322.1,51.063L323.37,50.73L324.64,51.22L325.91,50.527L327.18,50.694L328.45,51.017L329.73,50.659L331,50.559L332.27,50.531L333.54,50.353L334.81,50.272L336.08,50.172L337.35,50.161L338.62,49.931L339.9,49.682L341.17,49.799L342.44,49.664L343.71,49.476L344.98,49.565L346.25,49.469L347.52,49.132L348.79,49.157L350.07,49.231L351.34,48.876L352.61,49.103L353.88,48.791L355.15,48.809L356.42,48.858L357.69,49.199L358.96,48.83L360.24,48.773L361.51,48.525L362.78,48.699L364.05,48.308L365.32,48.155L366.59,48.304L367.86,48.475L369.13,48.233L370.41,48.038L371.68,48.006L372.95,47.836L374.22,47.814L375.49,47.726L376.76,47.9L378.03,47.758L379.3,47.797L380.58,47.672L381.85,47.495L383.12,47.58L384.39,47.52L385.66,47.537L386.93,47.303L388.2,47.353L389.47,47.324L390.75,47.289L392.02,47.193L393.29,47.214L394.56,46.973L395.83,47.118L397.1,47.172L398.37,46.927L399.64,46.941L400.92,46.774L402.19,46.927L403.46,46.959L404.73,46.742L406,46.632L407.27,46.792L408.54,46.774L409.81,46.671L411.09,46.756L412.36,46.518L413.63,46.735L414.9,46.536L416.17,46.547L417.44,46.394L418.71,46.398L419.98,46.508L421.26,46.376L422.53,46.426L423.8,46.309L425.07,46.107L426.34,46.17L427.61,46.32L428.88,46.195L430.15,46.227L431.43,46.181L432.7,46.245L433.97,46.114L435.24,46.043L436.51,46.067L437.78,46.025L439.05,45.986L440.32,46.11L441.6,46.107L442.87,46.028L444.14,45.982L445.41,45.833L446.68,45.883L447.95,45.826L449.22,45.854L450.49,45.854L451.77,45.872L453.04,45.854L454.31,45.794L455.58,45.812L456.85,45.688L458.12,45.794L459.39,45.759L460.66,45.773L461.94,45.723L463.21,45.663L464.48,45.652L465.75,45.617L467.02,45.617L468.29,45.567L469.56,45.695L470.83,45.634L472.11,45.606L473.38,45.606L474.65,45.602L475.92,45.545L477.19,45.549L478.46,45.563L479.73,45.556L481,45.549L482.28,45.528L483.55,45.531L484.82,45.556L486.09,45.453L487.36,45.443L488.63,45.549L489.9,45.45L491.17,45.446L492.45,45.411L493.72,45.4L494.99,45.446L496.26,45.414L497.53,45.411L498.8,45.396L500.07,45.389L501.34,45.386L502.62,45.332L503.89,45.35L505.16,45.403L506.43,45.421L507.7,45.361L508.97,45.35L510.24,45.368L511.51,45.382L512.79,45.325L514.06,45.354L515.33,45.382L516.6,45.297L517.87,45.325L519.14,45.35L520.41,45.261L521.68,45.297L522.96,45.261L524.23,45.308L525.5,45.279L526.77,45.29L528.04,45.269L529.31,45.283L530.58,45.272L531.85,45.276L533.13,45.251L534.4,45.24L535.67,45.279L536.94,45.254L538.21,45.261L539.48,45.279L540.75,45.254L542.02,45.226L543.3,45.244L544.57,45.233L545.84,45.222L547.11,45.226L548.38,45.229L549.65,45.254L550.92,45.229L552.19,45.254L553.47,45.233L554.74,45.237L556.01,45.212L557.28,45.226L558.55,45.205L559.82,45.166L561.09,45.226L562.36,45.226L563.64,45.212L564.91,45.19L566.18,45.183L567.45,45.19L568.72,45.201L569.99,45.176L571.26,45.208L572.53,45.18L573.81,45.205L575.08,45.19L576.35,45.173L577.62,45.198L578.89,45.176L580.16,45.166L581.43,45.19L582.7,45.198L583.98,45.205L585.25,45.166L586.52,45.169L587.79,45.169L589.06,45.187L590.33,45.173L591.6,45.173L592.87,45.183L594.15,45.173L595.42,45.187L596.69,45.169L597.96,45.169L599.23,45.158L600.5,45.158L601.77,45.162L603.04,45.18L604.32,45.173L605.59,45.162L606.86,45.183L608.13,45.183L609.4,45.173L610.67,45.169L611.94,45.166L613.21,45.162L614.49,45.158L615.76,45.173L617.03,45.162L618.3,45.155L619.57,45.169L620.84,45.162L622.11,45.162L623.38,45.169L624.66,45.169L625.93,45.158L627.2,45.151L628.47,45.158L629.74,45.158L631.01,45.158L632.28,45.158L633.55,45.151L634.83,45.155L636.1,45.169L637.37,45.162L638.64,45.151L639.91,45.162L641.18,45.158L642.45,45.155L645,45.162L646.27,45.155L647.54,45.158L648.81,45.155L650.08,45.155L651.35,45.162L652.62,45.158L653.89,45.151L656.44,45.151L657.71,45.155L658.98,45.151L660.25,45.151L661.52,45.155L662.79,45.155L664.06,45.151L667.88,45.151L670.42,45.158L671.69,45.151L672.96,45.151L675.51,45.151L676.78,45.151L680.59,45.151L685.68,45.155L686.95,45.151L688.22,45.158L689.49,45.151L690.76,45.151L693.3,45.151L694.57,45.151L700.93,45.155L709.83,45.151L713.64,45.151L714.91,45.151L720,45.151" style="fill:none;stroke:#0000FF" />
</g>
</svg>
