<?xml version="1.0"?>
<!-- Generated by SVGo and Plotinum VG -->
<svg width="720pt" height="432pt" viewBox="0 0 720 432"
	xmlns="http://www.w3.org/2000/svg"
	xmlns:xlink="http://www.w3.org/1999/xlink">
<g transform="scale(1, -1) translate(0, -432)">
<path d="M0,0L720,0L720,432L0,432Z" style="fill:#FFFFFF" />
<text x="358.5" y="-420.45" transform="scale(1, -1)"
	style="font-family:Times;font-weight:normal;font-style:normal;font-size:12px"> </text>
<text x="376.81" y="-3.8613" transform="scale(1, -1)"
	style="font-family:Times;font-weight:normal;font-style:normal;font-size:12px">Costs</text>
<text x="57.805" y="-18.634" transform="scale(1, -1)"
	style="font-family:Times;font-weight:normal;font-style:normal;font-size:10px">0</text>
<text x="361.55" y="-18.634" transform="scale(1, -1)"
	style="font-family:Times;font-weight:normal;font-style:normal;font-size:10px">300</text>
<text x="670.3" y="-18.634" transform="scale(1, -1)"
	style="font-family:Times;font-weight:normal;font-style:normal;font-size:10px">600</text>
<path d="M60.305,28.263L60.305,36.263" style="fill:none;stroke:#000000;stroke-width:0.5" />
<path d="M369.05,28.263L369.05,36.263" style="fill:none;stroke:#000000;stroke-width:0.5" />
<path d="M677.8,28.263L677.8,36.263" style="fill:none;stroke:#000000;stroke-width:0.5" />
<path d="M163.22,32.263L163.22,36.263" style="fill:none;stroke:#000000;stroke-width:0.5" />
<path d="M266.14,32.263L266.14,36.263" style="fill:none;stroke:#000000;stroke-width:0.5" />
<path d="M471.97,32.263L471.97,36.263" style="fill:none;stroke:#000000;stroke-width:0.5" />
<path d="M574.89,32.263L574.89,36.263" style="fill:none;stroke:#000000;stroke-width:0.5" />
<path d="M60.305,36.263L720,36.263" style="fill:none;stroke:#000000;stroke-width:0.5" />
<g transform="rotate(90)">
<text x="152.55" y="11.555" transform="scale(1, -1)"
	style="font-family:Times;font-weight:normal;font-style:normal;font-size:12px">Number of trials (1000000 total)</text>
</g>
<text x="24.055" y="-80.472" transform="scale(1, -1)"
	style="font-family:Times;font-weight:normal;font-style:normal;font-size:10px">5000</text>
<text x="19.055" y="-234.61" transform="scale(1, -1)"
	style="font-family:Times;font-weight:normal;font-style:normal;font-size:10px">25000</text>
<text x="19.055" y="-388.74" transform="scale(1, -1)"
	style="font-family:Times;font-weight:normal;font-style:normal;font-size:10px">45000</text>
<path d="M46.555,83.677L54.555,83.677" style="fill:none;stroke:#000000;stroke-width:0.5" />
<path d="M46.555,237.81L54.555,237.81" style="fill:none;stroke:#000000;stroke-width:0.5" />
<path d="M46.555,391.95L54.555,391.95" style="fill:none;stroke:#000000;stroke-width:0.5" />
<path d="M50.555,160.74L54.555,160.74" style="fill:none;stroke:#000000;stroke-width:0.5" />
<path d="M50.555,314.88L54.555,314.88" style="fill:none;stroke:#000000;stroke-width:0.5" />
<path d="M54.555,45.151L54.555,416.58" style="fill:none;stroke:#000000;stroke-width:0.5" />
<path d="M60.305,416.58L82.946,52.742L83.976,52.48L87.063,79.901L88.092,55.771L89.121,70.006L90.15,97.996L92.209,68.341L93.238,82.375L94.267,56.226L95.296,140.85L96.325,109.82L97.355,48.82L98.384,52.373L99.413,61.644L100.44,89.873L101.47,89.719L102.5,125.89L103.53,110.92L104.56,125.99L105.59,89.342L106.62,55.987L107.65,62.445L109.7,62.692L110.73,55.871L111.76,60.141L112.79,50.037L113.82,46.777L114.85,164.99L115.88,72.633L116.91,54.014L117.94,97.303L118.97,61.251L120,51.833L121.03,82.329L122.05,68.68L123.08,80.988L124.11,57.498L125.14,101.29L126.17,59.44L127.2,59.879L128.23,67.401L129.26,71.678L130.29,72.61L131.32,80.487L132.35,75.007L133.38,89.519L134.4,76.965L135.43,103.81L136.46,87.654L137.49,90.821L138.52,88.571L139.55,87.361L140.58,78.776L141.61,80.464L142.64,94.166L143.67,103.56L144.7,100.02L145.73,86.976L146.75,90.675L147.78,97.395L148.81,74.668L149.84,98.058L150.87,93.434L151.9,74.845L152.93,79.146L153.96,79.909L154.99,80.826L156.02,81.689L157.05,95.145L158.08,95.468L159.1,92.039L160.13,94.104L161.16,81.974L162.19,82.074L163.22,79.338L164.25,79.354L165.28,86.976L166.31,82.56L167.34,81.835L168.37,81.635L169.4,90.567L170.43,87.777L171.45,77.08L172.48,92.054L173.51,80.333L174.54,77.982L175.57,89.773L176.6,86.714L177.63,92.91L178.66,94.097L179.69,97.218L180.72,85.481L181.75,78.105L182.78,86.136L183.8,82.945L184.83,82.914L185.86,87.854L186.89,86.429L187.92,91.476L188.95,82.675L189.98,90.228L191.01,84.625L192.04,82.575L193.07,85.296L194.1,86.035L195.13,80.063L196.15,81.781L197.18,85.588L198.21,90.975L199.24,82.429L200.27,87.084L201.3,84.849L202.33,83.13L203.36,79.886L204.39,83.092L205.42,82.074L206.45,80.348L207.48,82.136L208.5,82.097L209.53,78.406L210.56,78.992L211.59,80.618L212.62,81.643L213.65,79.993L214.68,82.09L215.71,80.209L216.74,79.069L217.77,79.03L218.8,79.955L219.83,80.772L220.85,81.149L221.88,80.903L222.91,81.28L223.94,76.988L224.97,76.988L226,77.065L227.03,76.487L228.06,76.972L229.09,75.246L230.12,77.442L231.15,75.277L232.18,75.747L233.2,77.173L234.23,76.009L235.26,75.932L236.29,73.797L237.32,73.08L238.35,74.445L239.38,73.242L240.41,74.46L241.44,74.545L242.47,74.691L243.5,73.566L244.53,72.587L245.55,72.233L246.58,70.799L247.61,71.763L248.64,71.74L249.67,70.013L250.7,70.861L251.73,70.383L252.76,70.722L253.79,69.782L254.82,69.589L255.85,69.435L256.88,68.826L257.9,68.688L258.93,69.081L259.96,67.979L260.99,68.233L262.02,68.819L263.05,68.788L264.08,67.285L265.11,66.044L266.14,66.491L267.17,66.645L268.2,65.52L269.23,65.397L270.25,65.512L271.28,64.657L272.31,65.281L273.34,65.235L274.37,64.287L275.4,64.619L276.43,64.102L277.46,64.225L278.49,63.57L279.52,63.301L280.55,63.57L281.58,62.923L282.6,62.283L283.63,62.438L284.66,62.283L285.69,61.721L286.72,61.189L287.75,62.137L288.78,60.896L289.81,60.904L290.84,60.773L291.87,60.796L292.9,59.524L293.93,59.532L294.95,60.179L295.98,59.74L297.01,59.879L298.04,59.501L299.07,57.96L300.1,58.384L301.13,58.091L302.16,58.831L303.19,58.045L304.22,58.237L305.25,57.39L306.28,57.729L307.3,57.035L308.33,57.382L309.36,56.727L310.39,56.58L311.42,56.673L312.45,55.617L313.48,56.642L314.51,56.118L315.54,55.74L316.57,55.571L317.6,56.01L318.63,55.671L319.65,54.97L320.68,54.746L321.71,54.461L322.74,54.808L323.77,53.891L324.8,54.322L325.83,53.868L326.86,53.652L327.89,53.991L328.92,53.29L329.95,53.112L330.98,53.575L332,53.159L333.03,52.927L334.06,52.858L335.09,53.182L336.12,52.665L337.15,52.55L338.18,52.519L339.21,52.211L340.24,51.895L341.27,51.91L342.3,51.833L343.33,51.556L344.35,51.455L345.38,51.217L346.41,51.486L347.44,50.762L348.47,51.17L349.5,50.808L350.53,51.27L351.56,50.608L352.59,50.315L353.62,50.677L354.65,50.369L355.68,50.454L356.7,49.914L357.73,50.084L358.76,50.045L359.79,49.667L360.82,49.829L361.85,49.698L362.88,49.536L363.91,49.352L364.94,49.536L365.97,49.274L367,49.113L368.03,49.051L369.05,49.12L370.08,48.989L371.11,48.704L372.14,48.812L373.17,48.589L374.2,48.72L375.23,48.65L376.26,48.643L377.29,48.342L378.32,48.581L379.35,48.065L380.38,48.203L381.4,47.98L382.43,48.003L383.46,47.772L384.49,47.702L385.52,47.787L386.55,47.887L387.58,47.864L388.61,47.741L389.64,47.664L390.67,47.51L391.7,47.641L392.73,47.525L393.75,47.564L394.78,47.101L395.81,47.402L396.84,47.209L397.87,47.086L398.9,47.363L399.93,47.14L400.96,47.309L401.99,47.163L403.02,47.001L404.05,46.962L405.08,46.685L406.1,47.078L407.13,46.677L408.16,46.831L409.19,46.7L410.22,46.585L411.25,46.654L412.28,46.708L413.31,46.631L414.34,46.492L415.37,46.454L416.4,46.454L417.43,46.608L418.45,46.377L419.48,46.33L420.51,46.138L421.54,46.261L422.57,46.269L423.6,46.33L424.63,46.153L425.66,46.238L426.69,46.176L427.72,46.277L428.75,46.207L429.78,46.138L430.8,46.115L431.83,46.015L432.86,46.169L433.89,45.937L434.92,45.999L435.95,45.961L436.98,46.053L438.01,45.907L439.04,45.899L440.07,45.745L441.1,45.83L442.13,45.853L443.15,45.783L444.18,45.791L445.21,45.768L446.24,45.683L447.27,45.899L448.3,45.783L449.33,45.729L450.36,45.93L451.39,45.791L452.42,45.652L453.45,45.583L454.48,45.621L455.5,45.606L456.53,45.521L457.56,45.629L458.59,45.691L459.62,45.606L460.65,45.629L461.68,45.583L462.71,45.421L463.74,45.568L464.77,45.552L465.8,45.506L466.83,45.49L467.85,45.56L468.88,45.475L469.91,45.506L470.94,45.467L471.97,45.367L473,45.614L474.03,45.583L475.06,45.429L476.09,45.344L477.12,45.413L478.15,45.46L479.18,45.437L480.2,45.321L481.23,45.475L482.26,45.421L483.29,45.359L484.32,45.367L485.35,45.336L486.38,45.406L487.41,45.406L488.44,45.336L489.47,45.352L490.5,45.344L491.53,45.298L492.55,45.267L493.58,45.321L494.61,45.467L495.64,45.321L496.67,45.313L497.7,45.275L498.73,45.259L499.76,45.267L500.79,45.275L501.82,45.282L502.85,45.329L503.88,45.213L504.9,45.275L505.93,45.19L506.96,45.252L507.99,45.244L509.02,45.259L510.05,45.236L511.08,45.282L512.11,45.267L513.14,45.244L514.17,45.236L515.2,45.282L516.23,45.221L517.25,45.275L518.28,45.236L519.31,45.198L520.34,45.205L521.37,45.252L522.4,45.29L523.43,45.213L524.46,45.221L525.49,45.275L526.52,45.213L527.55,45.259L528.58,45.244L529.6,45.182L530.63,45.221L531.66,45.174L532.69,45.174L533.72,45.205L534.75,45.182L535.78,45.198L536.81,45.236L537.84,45.213L538.87,45.221L539.9,45.19L540.93,45.167L541.95,45.182L542.98,45.159L544.01,45.19L545.04,45.19L546.07,45.228L547.1,45.174L548.13,45.174L549.16,45.174L550.19,45.167L551.22,45.167L552.25,45.167L553.28,45.205L554.3,45.167L555.33,45.182L556.36,45.151L557.39,45.151L558.42,45.174L559.45,45.174L560.48,45.167L561.51,45.182L563.57,45.167L564.6,45.159L565.63,45.167L566.65,45.151L567.68,45.174L568.71,45.159L569.74,45.182L570.77,45.167L573.86,45.151L574.89,45.167L576.95,45.167L577.98,45.159L579,45.167L580.03,45.151L583.12,45.159L585.18,45.174L586.21,45.159L587.24,45.159L588.27,45.151L589.3,45.151L592.38,45.151L593.41,45.151L594.44,45.151L595.47,45.167L596.5,45.151L597.53,45.159L598.56,45.151L599.59,45.151L602.68,45.151L604.73,45.151L605.76,45.151L606.79,45.151L612.97,45.151L614,45.151L615.03,45.151L621.2,45.151L628.4,45.151L629.43,45.151L632.52,45.151L642.81,45.151L643.84,45.151L647.96,45.159L658.25,45.151L664.43,45.151L678.83,45.151L690.15,45.151L720,45.151" style="fill:none;stroke:#0000FF" />
</g>
</svg>
