<?xml version="1.0"?>
<!-- Generated by SVGo and Plotinum VG -->
<svg width="720pt" height="432pt" viewBox="0 0 720 432"
	xmlns="http://www.w3.org/2000/svg"
	xmlns:xlink="http://www.w3.org/1999/xlink">
<g transform="scale(1, -1) translate(0, -432)">
<path d="M0,0L720,0L720,432L0,432Z" style="fill:#FFFFFF" />
<text x="358.5" y="-420.45" transform="scale(1, -1)"
	style="font-family:Times;font-weight:normal;font-style:normal;font-size:12px"> </text>
<text x="374.36" y="-3.8613" transform="scale(1, -1)"
	style="font-family:Times;font-weight:normal;font-style:normal;font-size:12px">Costs</text>
<text x="56.555" y="-18.634" transform="scale(1, -1)"
	style="font-family:Times;font-weight:normal;font-style:normal;font-size:10px">0.00</text>
<text x="372.03" y="-18.634" transform="scale(1, -1)"
	style="font-family:Times;font-weight:normal;font-style:normal;font-size:10px">250.00</text>
<text x="692.5" y="-18.634" transform="scale(1, -1)"
	style="font-family:Times;font-weight:normal;font-style:normal;font-size:10px">500.00</text>
<path d="M65.305,28.263L65.305,36.263" style="fill:none;stroke:#000000;stroke-width:0.5" />
<path d="M385.78,28.263L385.78,36.263" style="fill:none;stroke:#000000;stroke-width:0.5" />
<path d="M706.25,28.263L706.25,36.263" style="fill:none;stroke:#000000;stroke-width:0.5" />
<path d="M129.4,32.263L129.4,36.263" style="fill:none;stroke:#000000;stroke-width:0.5" />
<path d="M193.49,32.263L193.49,36.263" style="fill:none;stroke:#000000;stroke-width:0.5" />
<path d="M257.59,32.263L257.59,36.263" style="fill:none;stroke:#000000;stroke-width:0.5" />
<path d="M321.68,32.263L321.68,36.263" style="fill:none;stroke:#000000;stroke-width:0.5" />
<path d="M449.87,32.263L449.87,36.263" style="fill:none;stroke:#000000;stroke-width:0.5" />
<path d="M513.97,32.263L513.97,36.263" style="fill:none;stroke:#000000;stroke-width:0.5" />
<path d="M578.06,32.263L578.06,36.263" style="fill:none;stroke:#000000;stroke-width:0.5" />
<path d="M642.16,32.263L642.16,36.263" style="fill:none;stroke:#000000;stroke-width:0.5" />
<path d="M65.305,36.263L710.1,36.263" style="fill:none;stroke:#000000;stroke-width:0.5" />
<g transform="rotate(90)">
<text x="152.55" y="11.555" transform="scale(1, -1)"
	style="font-family:Times;font-weight:normal;font-style:normal;font-size:12px">Number of trials (1000000 total)</text>
</g>
<text x="24.055" y="-107.37" transform="scale(1, -1)"
	style="font-family:Times;font-weight:normal;font-style:normal;font-size:10px">30000</text>
<text x="24.055" y="-238.22" transform="scale(1, -1)"
	style="font-family:Times;font-weight:normal;font-style:normal;font-size:10px">90000</text>
<text x="19.055" y="-369.07" transform="scale(1, -1)"
	style="font-family:Times;font-weight:normal;font-style:normal;font-size:10px">150000</text>
<path d="M51.555,110.57L59.555,110.57" style="fill:none;stroke:#000000;stroke-width:0.5" />
<path d="M51.555,241.43L59.555,241.43" style="fill:none;stroke:#000000;stroke-width:0.5" />
<path d="M51.555,372.28L59.555,372.28" style="fill:none;stroke:#000000;stroke-width:0.5" />
<path d="M55.555,176L59.555,176" style="fill:none;stroke:#000000;stroke-width:0.5" />
<path d="M55.555,306.85L59.555,306.85" style="fill:none;stroke:#000000;stroke-width:0.5" />
<path d="M59.555,45.151L59.555,416.58" style="fill:none;stroke:#000000;stroke-width:0.5" />
<path d="M65.305,416.58L94.788,48.506L96.07,59.654L99.916,63.608L101.2,59.75L102.48,56.267L105.04,77.374L106.33,55.506L107.61,99.442L108.89,63.383L110.17,58.764L111.45,55.753L112.73,58.956L115.3,52.957L116.58,73.858L117.86,62.851L119.14,78.259L120.43,66.474L121.71,59.368L122.99,51.988L124.27,81.114L125.55,45.278L128.12,66.079L129.4,74.97L130.68,64.171L131.96,45.69L133.24,75.073L134.53,83.92L135.81,47.262L137.09,54.047L138.37,58.088L139.65,61.752L140.94,72.935L142.22,53.059L143.5,77.175L144.78,48.981L146.06,54.898L147.35,52.298L148.63,50.074L149.91,51.515L151.19,69.655L152.47,51.16L153.76,51.192L155.04,52.582L156.32,51.362L157.6,50.713L158.88,56.854L160.16,55.288L161.45,55.709L162.73,53.975L164.01,57.979L165.29,54.106L166.57,55.229L167.86,78.409L169.14,76.998L170.42,57.853L171.7,58.101L172.98,56.62L174.27,58.319L175.55,59.456L176.83,59.746L178.11,56.895L179.39,55.8L180.67,58.348L181.96,57.338L183.24,59.126L184.52,56.86L185.8,60.448L187.08,57.412L188.37,58.849L189.65,54.239L190.93,53.916L192.21,56.59L193.49,58.439L194.78,55.109L196.06,54.027L197.34,57.478L198.62,57.497L199.9,54.64L201.19,51.077L202.47,58.716L203.75,54.991L205.03,54.963L206.31,54.906L207.59,55.768L208.88,56.627L210.16,58.232L211.44,56.32L212.72,54.704L214,53.197L215.29,54.411L216.57,52.206L217.85,51.716L219.13,55.89L220.41,54.865L221.7,54.198L222.98,54.261L224.26,53.532L225.54,52.357L226.82,54.555L228.1,53.428L229.39,52.086L230.67,51.919L231.95,54.117L233.23,53.744L234.51,51.936L235.8,52.933L237.08,55.183L238.36,53.299L239.64,51.964L240.92,52.246L242.21,52.73L243.49,53.135L244.77,53.221L246.05,53.05L247.33,52.654L248.62,51.19L249.9,51.598L251.18,51.245L252.46,51.101L253.74,52.01L255.02,51.836L256.31,50.575L257.59,50.939L258.87,50.163L260.15,50.211L261.43,51.12L262.72,50.996L264,50.418L265.28,50.261L266.56,50.571L267.84,50.084L269.13,49.899L270.41,49.677L271.69,51.286L272.97,49.869L274.25,50.047L275.53,49.594L276.82,49.677L278.1,49.975L279.38,49.81L280.66,49.576L281.94,49.249L283.23,49.657L284.51,49.415L285.79,49.358L287.07,49.33L288.35,49.339L289.64,49.234L290.92,49.033L292.2,49.049L293.48,48.425L294.76,48.444L296.05,48.865L297.33,48.726L298.61,48.484L299.89,48.394L301.17,48.643L302.45,48.285L303.74,47.997L305.02,48.098L306.3,48.268L307.58,48.096L308.86,48.076L310.15,48.104L311.43,48.115L312.71,47.941L313.99,47.971L315.27,47.838L316.56,47.633L317.84,47.681L319.12,47.524L320.4,47.352L321.68,47.452L322.96,47.644L324.25,47.321L325.53,47.365L326.81,47.324L328.09,47.173L329.37,47.114L330.66,47.219L331.94,46.972L333.22,47.132L334.5,46.837L335.78,47.012L337.07,46.933L338.35,46.82L339.63,46.97L340.91,46.898L342.19,46.818L343.47,46.756L344.76,46.717L346.04,46.717L347.32,46.741L348.6,46.678L349.88,46.634L351.17,46.49L352.45,46.643L353.73,46.584L355.01,46.423L356.29,46.307L357.58,46.429L358.86,46.388L360.14,46.421L361.42,46.237L362.7,46.283L363.99,46.373L365.27,46.237L366.55,46.248L367.83,46.235L369.11,46.189L370.39,46.224L371.68,46.043L372.96,46.144L374.24,46.024L375.52,46.08L376.8,45.932L378.09,46L379.37,46.019L380.65,45.912L381.93,45.923L383.21,45.95L384.5,45.895L385.78,45.856L387.06,45.91L388.34,45.854L389.62,45.773L390.9,45.838L392.19,45.775L393.47,45.749L394.75,45.762L396.03,45.725L397.31,45.721L398.6,45.716L399.88,45.718L401.16,45.668L402.44,45.664L403.72,45.673L405.01,45.69L406.29,45.577L407.57,45.609L408.85,45.638L410.13,45.636L411.42,45.651L412.7,45.518L413.98,45.607L415.26,45.583L416.54,45.548L417.82,45.54L419.11,45.524L420.39,45.555L421.67,45.513L422.95,45.478L424.23,45.487L425.52,45.439L426.8,45.459L428.08,45.441L429.36,45.431L430.64,45.422L431.93,45.468L433.21,45.413L434.49,45.433L435.77,45.435L437.05,45.407L438.33,45.385L439.62,45.398L440.9,45.369L442.18,45.391L443.46,45.369L444.74,45.3L446.03,45.391L447.31,45.367L448.59,45.337L449.87,45.363L451.15,45.33L452.44,45.328L453.72,45.321L455,45.341L456.28,45.317L457.56,45.319L458.85,45.28L460.13,45.306L461.41,45.295L462.69,45.293L463.97,45.293L465.25,45.289L466.54,45.269L467.82,45.263L469.1,45.239L470.38,45.252L471.66,45.252L472.95,45.243L474.23,45.234L475.51,45.245L476.79,45.243L478.07,45.245L479.36,45.232L480.64,45.232L481.92,45.25L483.2,45.215L484.48,45.221L485.76,45.228L487.05,45.239L488.33,45.221L489.61,45.204L490.89,45.204L492.17,45.202L493.46,45.219L494.74,45.215L496.02,45.212L497.3,45.199L498.58,45.199L499.87,45.21L501.15,45.219L502.43,45.212L503.71,45.202L504.99,45.199L506.28,45.193L507.56,45.191L508.84,45.202L510.12,45.167L511.4,45.193L512.68,45.195L513.97,45.169L515.25,45.193L516.53,45.197L517.81,45.21L519.09,45.197L520.38,45.208L521.66,45.184L522.94,45.18L524.22,45.188L525.5,45.186L526.79,45.186L528.07,45.182L529.35,45.173L530.63,45.171L531.91,45.16L533.19,45.18L534.48,45.173L535.76,45.175L537.04,45.178L538.32,45.16L539.6,45.171L540.89,45.158L542.17,45.182L543.45,45.162L544.73,45.169L546.01,45.16L547.3,45.158L548.58,45.167L549.86,45.169L551.14,45.169L552.42,45.164L553.71,45.158L554.99,45.164L556.27,45.16L557.55,45.154L558.83,45.162L560.11,45.156L561.4,45.158L562.68,45.164L563.96,45.154L565.24,45.16L566.52,45.156L567.81,45.156L569.09,45.16L570.37,45.162L571.65,45.151L572.93,45.156L574.22,45.158L575.5,45.156L576.78,45.151L578.06,45.156L579.34,45.154L580.62,45.154L581.91,45.151L583.19,45.154L584.47,45.158L585.75,45.16L587.03,45.158L588.32,45.154L589.6,45.151L592.16,45.154L593.44,45.156L594.73,45.154L596.01,45.154L597.29,45.156L598.57,45.154L599.85,45.154L601.13,45.162L602.42,45.151L603.7,45.154L604.98,45.158L606.26,45.151L608.83,45.154L610.11,45.154L612.67,45.154L613.95,45.154L615.24,45.156L616.52,45.151L617.8,45.151L619.08,45.158L620.36,45.151L621.65,45.156L625.49,45.151L626.77,45.151L628.05,45.151L638.31,45.154L643.44,45.151L646,45.151L647.28,45.151L648.56,45.154L649.85,45.151L651.13,45.151L653.69,45.151L656.26,45.151L667.79,45.151L687.02,45.154L693.43,45.151L710.1,45.151" style="fill:none;stroke:#0000FF" />
</g>
</svg>
