<?xml version="1.0"?>
<!-- Generated by SVGo and Plotinum VG -->
<svg width="720pt" height="432pt" viewBox="0 0 720 432"
	xmlns="http://www.w3.org/2000/svg"
	xmlns:xlink="http://www.w3.org/1999/xlink">
<g transform="scale(1, -1) translate(0, -432)">
<path d="M0,0L720,0L720,432L0,432Z" style="fill:#FFFFFF" />
<text x="358.5" y="-420.45" transform="scale(1, -1)"
	style="font-family:Times;font-weight:normal;font-style:normal;font-size:12px"> </text>
<text x="385.56" y="-3.8613" transform="scale(1, -1)"
	style="font-family:Times;font-weight:normal;font-style:normal;font-size:12px">Costs</text>
<text x="75.305" y="-18.634" transform="scale(1, -1)"
	style="font-family:Times;font-weight:normal;font-style:normal;font-size:10px">0</text>
<text x="369" y="-18.634" transform="scale(1, -1)"
	style="font-family:Times;font-weight:normal;font-style:normal;font-size:10px">200</text>
<text x="667.7" y="-18.634" transform="scale(1, -1)"
	style="font-family:Times;font-weight:normal;font-style:normal;font-size:10px">400</text>
<path d="M77.805,28.263L77.805,36.263" style="fill:none;stroke:#000000;stroke-width:0.5" />
<path d="M376.5,28.263L376.5,36.263" style="fill:none;stroke:#000000;stroke-width:0.5" />
<path d="M675.2,28.263L675.2,36.263" style="fill:none;stroke:#000000;stroke-width:0.5" />
<path d="M227.15,32.263L227.15,36.263" style="fill:none;stroke:#000000;stroke-width:0.5" />
<path d="M525.85,32.263L525.85,36.263" style="fill:none;stroke:#000000;stroke-width:0.5" />
<path d="M77.805,36.263L720,36.263" style="fill:none;stroke:#000000;stroke-width:0.5" />
<g transform="rotate(90)">
<text x="152.55" y="11.555" transform="scale(1, -1)"
	style="font-family:Times;font-weight:normal;font-style:normal;font-size:12px">Number of trials (1000000 total)</text>
</g>
<text x="24.055" y="-79.998" transform="scale(1, -1)"
	style="font-family:Times;font-weight:normal;font-style:normal;font-size:10px">25000.00</text>
<text x="19.055" y="-232.21" transform="scale(1, -1)"
	style="font-family:Times;font-weight:normal;font-style:normal;font-size:10px">125000.00</text>
<text x="19.055" y="-384.43" transform="scale(1, -1)"
	style="font-family:Times;font-weight:normal;font-style:normal;font-size:10px">225000.00</text>
<path d="M64.055,83.204L72.055,83.204" style="fill:none;stroke:#000000;stroke-width:0.5" />
<path d="M64.055,235.42L72.055,235.42" style="fill:none;stroke:#000000;stroke-width:0.5" />
<path d="M64.055,387.63L72.055,387.63" style="fill:none;stroke:#000000;stroke-width:0.5" />
<path d="M68.055,159.31L72.055,159.31" style="fill:none;stroke:#000000;stroke-width:0.5" />
<path d="M68.055,311.53L72.055,311.53" style="fill:none;stroke:#000000;stroke-width:0.5" />
<path d="M72.055,45.151L72.055,416.58" style="fill:none;stroke:#000000;stroke-width:0.5" />
<path d="M77.805,416.58L112.15,48.762L116.64,58.991L118.13,74.021L119.62,59.097L121.12,66.171L124.1,48.613L125.6,62.394L127.09,48.636L128.58,66.384L130.08,69.568L131.57,65.952L133.06,81.095L134.56,80.38L136.05,51.993L137.54,59.017L139.04,48.494L140.53,62.801L142.02,77.324L143.52,98.43L145.01,52.016L146.5,59.008L149.49,48.538L150.99,48.763L152.48,52.643L153.97,45.276L155.47,45.451L156.96,70.383L158.45,46.095L159.95,54.062L161.44,50.458L162.93,53.258L164.43,46.6L165.92,53.736L167.41,47.281L168.91,56.265L170.4,66.14L171.89,72.307L173.39,51.543L174.88,51.308L176.37,50.818L177.87,54.019L179.36,48.835L180.85,52.225L182.35,54.522L183.84,55.851L185.34,55.185L186.83,61.533L188.32,58.867L189.82,53.517L191.31,52.438L192.8,58.947L194.3,54.22L195.79,54.586L197.28,63.54L198.78,59.307L200.27,55.843L201.76,50.764L203.26,51.105L204.75,50.69L206.24,51.873L207.74,53.65L209.23,53.593L210.72,52.503L212.22,54.032L213.71,52.036L215.2,50.01L216.7,49.977L218.19,50.254L219.69,50.388L221.18,51.403L222.67,54.067L224.17,50.986L225.66,53.447L227.15,52.488L228.65,52.371L230.14,49.82L231.63,50.989L233.13,49.786L234.62,52.237L236.11,53.686L237.61,52.925L239.1,50.884L240.59,51.069L242.09,49.908L243.58,50.455L245.07,50.488L246.57,49.473L248.06,50.065L249.55,51.299L251.05,51.767L252.54,51.484L254.04,51.095L255.53,49.806L257.02,49.765L258.52,49.433L260.01,49.176L261.5,49.785L263,50.593L264.49,50.088L265.98,49.209L267.48,48.64L268.97,48.403L270.46,48.295L271.96,48.963L273.45,48.092L274.94,48.267L276.44,49.065L277.93,48.868L279.42,48.654L280.92,48.929L282.41,48.521L283.9,48.118L285.4,48.369L286.89,48.386L288.39,48.173L289.88,48.298L291.37,48.917L292.87,48.531L294.36,47.847L295.85,47.599L297.35,47.777L298.84,47.611L300.33,47.707L301.83,47.871L303.32,47.757L304.81,47.62L306.31,47.594L307.8,47.64L309.29,47.383L310.79,47.193L312.28,47.118L313.77,47.298L315.27,47.331L316.76,47.308L318.25,47.182L319.75,47.214L321.24,46.919L322.73,46.894L324.23,46.836L325.72,46.678L327.22,46.812L328.71,46.846L330.2,46.751L331.7,46.716L333.19,46.593L334.68,46.567L336.18,46.614L337.67,46.585L339.16,46.365L340.66,46.543L342.15,46.505L343.64,46.546L345.14,46.46L346.63,46.447L348.12,46.415L349.62,46.247L351.11,46.264L352.6,46.226L354.1,46.191L355.59,46.186L357.08,46.209L358.58,46.2L360.07,46.107L361.57,46.028L363.06,45.978L364.55,46.014L366.05,46.016L367.54,45.99L369.03,46.086L370.53,45.909L372.02,45.919L373.51,45.928L375.01,45.9L376.5,45.806L377.99,45.807L379.49,45.818L380.98,45.722L382.47,45.78L383.97,45.806L385.46,45.759L386.95,45.677L388.45,45.675L389.94,45.635L391.43,45.69L392.93,45.643L394.42,45.6L395.92,45.611L397.41,45.652L398.9,45.623L400.4,45.588L401.89,45.649L403.38,45.611L404.88,45.544L406.37,45.497L407.86,45.573L409.36,45.536L410.85,45.565L412.34,45.506L413.84,45.52L415.33,45.498L416.82,45.471L418.32,45.448L419.81,45.476L421.3,45.436L422.8,45.441L424.29,45.463L425.78,45.384L427.28,45.384L428.77,45.393L430.27,45.399L431.76,45.393L433.25,45.371L434.75,45.389L436.24,45.366L437.73,45.374L439.23,45.368L440.72,45.328L442.21,45.326L443.71,45.32L445.2,45.346L446.69,45.322L448.19,45.326L449.68,45.313L451.17,45.29L452.67,45.299L454.16,45.269L455.65,45.276L457.15,45.293L458.64,45.314L460.13,45.282L461.63,45.285L463.12,45.267L464.62,45.247L466.11,45.252L467.6,45.259L469.1,45.261L470.59,45.232L472.08,45.226L473.58,45.243L475.07,45.211L476.56,45.232L478.06,45.243L479.55,45.232L481.04,45.253L482.54,45.209L484.03,45.224L485.52,45.232L487.02,45.22L488.51,45.221L490,45.218L491.5,45.202L492.99,45.203L494.48,45.203L495.98,45.188L497.47,45.214L498.97,45.203L500.46,45.177L501.95,45.197L503.45,45.206L504.94,45.208L506.43,45.205L507.93,45.186L509.42,45.202L510.91,45.179L512.41,45.174L513.9,45.191L515.39,45.176L516.89,45.192L518.38,45.18L519.87,45.185L521.37,45.189L522.86,45.167L524.35,45.188L525.85,45.179L527.34,45.179L528.83,45.173L530.33,45.171L531.82,45.179L533.32,45.168L534.81,45.185L536.3,45.17L537.8,45.176L539.29,45.173L540.78,45.183L542.28,45.164L543.77,45.173L545.26,45.167L546.76,45.165L548.25,45.159L549.74,45.173L551.24,45.156L552.73,45.157L554.22,45.164L555.72,45.164L557.21,45.161L558.7,45.159L560.2,45.17L561.69,45.161L563.18,45.162L564.68,45.164L566.17,45.159L567.67,45.162L569.16,45.156L570.65,45.157L572.15,45.168L573.64,45.156L575.13,45.165L576.63,45.159L578.12,45.151L579.61,45.156L581.11,45.156L582.6,45.154L584.09,45.151L585.59,45.156L587.08,45.154L588.57,45.154L590.07,45.159L591.56,45.153L593.05,45.154L596.04,45.153L597.53,45.151L599.03,45.151L600.52,45.151L602.02,45.156L605,45.153L606.5,45.156L607.99,45.159L609.48,45.151L610.98,45.151L613.96,45.153L615.46,45.154L616.95,45.153L618.44,45.153L619.94,45.154L621.43,45.156L624.42,45.151L625.91,45.151L627.4,45.151L634.87,45.153L643.83,45.153L645.33,45.153L649.81,45.153L652.79,45.151L658.77,45.151L661.75,45.151L666.23,45.151L670.72,45.151L684.16,45.151L687.14,45.151L715.52,45.151L717.01,45.151L720,45.151" style="fill:none;stroke:#0000FF" />
</g>
</svg>
