<?xml version="1.0"?>
<!-- Generated by SVGo and Plotinum VG -->
<svg width="720pt" height="432pt" viewBox="0 0 720 432"
	xmlns="http://www.w3.org/2000/svg"
	xmlns:xlink="http://www.w3.org/1999/xlink">
<g transform="scale(1, -1) translate(0, -432)">
<path d="M0,0L720,0L720,432L0,432Z" style="fill:#FFFFFF" />
<text x="358.5" y="-420.45" transform="scale(1, -1)"
	style="font-family:Times;font-weight:normal;font-style:normal;font-size:12px"> </text>
<text x="379.31" y="-3.8613" transform="scale(1, -1)"
	style="font-family:Times;font-weight:normal;font-style:normal;font-size:12px">Costs</text>
<text x="62.805" y="-18.634" transform="scale(1, -1)"
	style="font-family:Times;font-weight:normal;font-style:normal;font-size:10px">0</text>
<text x="346.22" y="-18.634" transform="scale(1, -1)"
	style="font-family:Times;font-weight:normal;font-style:normal;font-size:10px">200</text>
<text x="634.63" y="-18.634" transform="scale(1, -1)"
	style="font-family:Times;font-weight:normal;font-style:normal;font-size:10px">400</text>
<path d="M65.305,28.263L65.305,36.263" style="fill:none;stroke:#000000;stroke-width:0.5" />
<path d="M353.72,28.263L353.72,36.263" style="fill:none;stroke:#000000;stroke-width:0.5" />
<path d="M642.13,28.263L642.13,36.263" style="fill:none;stroke:#000000;stroke-width:0.5" />
<path d="M209.51,32.263L209.51,36.263" style="fill:none;stroke:#000000;stroke-width:0.5" />
<path d="M497.92,32.263L497.92,36.263" style="fill:none;stroke:#000000;stroke-width:0.5" />
<path d="M65.305,36.263L720,36.263" style="fill:none;stroke:#000000;stroke-width:0.5" />
<g transform="rotate(90)">
<text x="152.55" y="11.555" transform="scale(1, -1)"
	style="font-family:Times;font-weight:normal;font-style:normal;font-size:12px">Number of trials (1000000 total)</text>
</g>
<text x="24.055" y="-107.19" transform="scale(1, -1)"
	style="font-family:Times;font-weight:normal;font-style:normal;font-size:10px">30000</text>
<text x="24.055" y="-237.68" transform="scale(1, -1)"
	style="font-family:Times;font-weight:normal;font-style:normal;font-size:10px">90000</text>
<text x="19.055" y="-368.17" transform="scale(1, -1)"
	style="font-family:Times;font-weight:normal;font-style:normal;font-size:10px">150000</text>
<path d="M51.555,110.39L59.555,110.39" style="fill:none;stroke:#000000;stroke-width:0.5" />
<path d="M51.555,240.88L59.555,240.88" style="fill:none;stroke:#000000;stroke-width:0.5" />
<path d="M51.555,371.37L59.555,371.37" style="fill:none;stroke:#000000;stroke-width:0.5" />
<path d="M55.555,175.64L59.555,175.64" style="fill:none;stroke:#000000;stroke-width:0.5" />
<path d="M55.555,306.13L59.555,306.13" style="fill:none;stroke:#000000;stroke-width:0.5" />
<path d="M59.555,45.151L59.555,416.58" style="fill:none;stroke:#000000;stroke-width:0.5" />
<path d="M65.305,416.58L97.03,48.405L98.472,90.897L99.914,48.579L102.8,70.399L104.24,55.573L105.68,93.58L110.01,73.687L111.45,55.247L112.89,67.165L114.33,62.491L115.78,69.694L117.22,51.989L118.66,48.648L120.1,70.867L121.55,65.964L122.99,55.24L124.43,80.031L125.87,55.317L127.31,84.79L128.76,55.991L130.2,67.259L131.64,48.731L133.08,45.619L134.52,67.382L135.97,81.308L137.41,47.213L138.85,57.661L140.29,45.734L141.73,66.913L143.18,59.405L144.62,55.421L146.06,91.965L147.5,66.858L148.94,56.954L150.39,62.006L151.83,66.754L153.27,71.391L154.71,58.474L156.15,58.348L157.6,53.842L159.04,51.845L160.48,57.2L161.92,58.446L163.36,53.203L164.81,56.965L166.25,51.815L167.69,68.8L169.13,57.343L170.58,56.937L172.02,58.842L173.46,53.535L174.9,59.342L176.34,57.563L177.79,53.068L179.23,60.286L180.67,57.102L182.11,60.188L183.55,59.538L185,58.788L186.44,65.39L187.88,55.129L189.32,56.856L190.76,59.814L192.21,59.525L193.65,58.868L195.09,57.285L196.53,58.263L197.97,58.32L199.42,54.975L200.86,60.723L202.3,56.437L203.74,56.206L205.18,59.423L206.63,56.46L208.07,59.488L209.51,56.252L210.95,56.817L212.39,57.65L213.84,54.007L215.28,57.439L216.72,57.668L218.16,54.758L219.61,54.109L221.05,53.444L222.49,56.463L223.93,55.427L225.37,53.762L226.82,55.721L228.26,53.977L229.7,55.349L231.14,54.297L232.58,55.103L234.03,55.223L235.47,53.279L236.91,53.607L238.35,53.729L239.79,52.574L241.24,53.544L242.68,52.537L244.12,52.665L245.56,53.033L247,51.904L248.45,53.709L249.89,52.883L251.33,52.374L252.77,52.624L254.21,51.83L255.66,52.785L257.1,51.993L258.54,51.719L259.98,51.906L261.42,51.456L262.87,52.235L264.31,51.404L265.75,51.411L267.19,52.024L268.64,51.093L270.08,51.26L271.52,51.252L272.96,51.15L274.4,51.176L275.85,50.512L277.29,50.649L278.73,50.793L280.17,50.119L281.61,50.573L283.06,50.066L284.5,50.214L285.94,49.982L287.38,50.106L288.82,50.021L290.27,49.703L291.71,49.721L293.15,49.795L294.59,49.266L296.03,49.388L297.48,49.22L298.92,49.312L300.36,49.105L301.8,48.946L303.24,48.966L304.69,48.944L306.13,48.866L307.57,48.859L309.01,48.422L310.45,48.542L311.9,48.566L313.34,48.531L314.78,48.416L316.22,48.207L317.67,48.25L319.11,48.233L320.55,47.931L321.99,48.266L323.43,47.926L324.88,47.924L326.32,47.987L327.76,47.755L329.2,47.731L330.64,47.702L332.09,47.631L333.53,47.578L334.97,47.472L336.41,47.505L337.85,47.409L339.3,47.542L340.74,47.328L342.18,47.222L343.62,47.381L345.06,47.157L346.51,47.12L347.95,46.993L349.39,47.004L350.83,46.956L352.27,46.817L353.72,46.906L355.16,46.846L356.6,46.787L358.04,46.772L359.48,46.678L360.93,46.669L362.37,46.567L363.81,46.585L365.25,46.537L366.7,46.582L368.14,46.524L369.58,46.548L371.02,46.341L372.46,46.343L373.91,46.384L375.35,46.389L376.79,46.313L378.23,46.263L379.67,46.269L381.12,46.232L382.56,46.174L384,46.143L385.44,46.106L386.88,46.106L388.33,46.067L389.77,46.06L391.21,46.047L392.65,45.987L394.09,46.015L395.54,46.021L396.98,45.952L398.42,45.893L399.86,45.882L401.3,45.936L402.75,45.793L404.19,45.863L405.63,45.828L407.07,45.786L408.52,45.786L409.96,45.684L411.4,45.736L412.84,45.63L414.28,45.723L415.73,45.712L417.17,45.654L418.61,45.689L420.05,45.719L421.49,45.665L422.94,45.599L424.38,45.602L425.82,45.584L427.26,45.575L428.7,45.573L430.15,45.519L431.59,45.547L433.03,45.554L434.47,45.517L435.91,45.538L437.36,45.475L438.8,45.473L440.24,45.465L441.68,45.462L443.12,45.436L444.57,45.406L446.01,45.443L447.45,45.406L448.89,45.467L450.33,45.432L451.78,45.443L453.22,45.391L454.66,45.415L456.1,45.382L457.55,45.367L458.99,45.391L460.43,45.391L461.87,45.354L463.31,45.386L464.76,45.323L466.2,45.319L467.64,45.356L469.08,45.328L470.52,45.334L471.97,45.31L473.41,45.306L474.85,45.321L476.29,45.286L477.73,45.334L479.18,45.282L480.62,45.295L482.06,45.273L483.5,45.301L484.94,45.299L486.39,45.247L487.83,45.293L489.27,45.254L490.71,45.256L492.15,45.249L493.6,45.238L495.04,45.247L496.48,45.245L497.92,45.251L499.36,45.238L500.81,45.236L502.25,45.238L503.69,45.23L505.13,45.238L506.58,45.236L508.02,45.225L509.46,45.232L510.9,45.236L512.34,45.219L513.79,45.217L515.23,45.217L516.67,45.197L518.11,45.206L519.55,45.199L521,45.184L522.44,45.225L523.88,45.217L525.32,45.204L526.76,45.199L528.21,45.206L529.65,45.199L531.09,45.21L532.53,45.199L533.97,45.195L535.42,45.18L536.86,45.201L538.3,45.195L539.74,45.191L541.18,45.197L542.63,45.191L544.07,45.182L545.51,45.191L546.95,45.182L548.39,45.16L549.84,45.171L551.28,45.186L552.72,45.164L554.16,45.184L555.61,45.18L557.05,45.171L558.49,45.169L559.93,45.171L561.37,45.169L562.82,45.171L564.26,45.186L565.7,45.18L567.14,45.171L568.58,45.167L570.03,45.154L571.47,45.164L572.91,45.173L574.35,45.162L575.79,45.164L577.24,45.16L578.68,45.162L580.12,45.162L581.56,45.167L583,45.156L584.45,45.154L585.89,45.169L587.33,45.158L588.77,45.158L591.66,45.158L593.1,45.158L594.54,45.158L595.98,45.156L597.42,45.156L598.87,45.154L600.31,45.154L601.75,45.162L603.19,45.158L606.08,45.151L607.52,45.162L608.96,45.16L610.4,45.16L611.85,45.151L613.29,45.156L614.73,45.154L616.17,45.158L617.61,45.158L619.06,45.156L621.94,45.151L624.82,45.158L626.27,45.154L629.15,45.154L630.59,45.151L632.03,45.151L634.92,45.154L636.36,45.151L637.8,45.151L639.24,45.154L640.69,45.151L642.13,45.151L643.57,45.151L646.45,45.158L647.9,45.151L652.22,45.154L655.11,45.151L656.55,45.151L660.88,45.151L665.2,45.154L672.41,45.151L673.85,45.151L675.3,45.154L676.74,45.151L679.62,45.151L682.51,45.158L685.39,45.151L688.27,45.154L692.6,45.151L695.48,45.151L712.79,45.151L720,45.151" style="fill:none;stroke:#0000FF" />
</g>
</svg>
