<?xml version="1.0"?>
<!-- Generated by SVGo and Plotinum VG -->
<svg width="720pt" height="432pt" viewBox="0 0 720 432"
	xmlns="http://www.w3.org/2000/svg"
	xmlns:xlink="http://www.w3.org/1999/xlink">
<g transform="scale(1, -1) translate(0, -432)">
<path d="M0,0L720,0L720,432L0,432Z" style="fill:#FFFFFF" />
<text x="358.5" y="-420.45" transform="scale(1, -1)"
	style="font-family:Times;font-weight:normal;font-style:normal;font-size:12px"> </text>
<text x="385.56" y="-3.8613" transform="scale(1, -1)"
	style="font-family:Times;font-weight:normal;font-style:normal;font-size:12px">Costs</text>
<text x="69.055" y="-18.634" transform="scale(1, -1)"
	style="font-family:Times;font-weight:normal;font-style:normal;font-size:10px">0.00</text>
<text x="369.28" y="-18.634" transform="scale(1, -1)"
	style="font-family:Times;font-weight:normal;font-style:normal;font-size:10px">250.00</text>
<text x="674.51" y="-18.634" transform="scale(1, -1)"
	style="font-family:Times;font-weight:normal;font-style:normal;font-size:10px">500.00</text>
<path d="M77.805,28.263L77.805,36.263" style="fill:none;stroke:#000000;stroke-width:0.5" />
<path d="M383.03,28.263L383.03,36.263" style="fill:none;stroke:#000000;stroke-width:0.5" />
<path d="M688.26,28.263L688.26,36.263" style="fill:none;stroke:#000000;stroke-width:0.5" />
<path d="M138.85,32.263L138.85,36.263" style="fill:none;stroke:#000000;stroke-width:0.5" />
<path d="M199.9,32.263L199.9,36.263" style="fill:none;stroke:#000000;stroke-width:0.5" />
<path d="M260.94,32.263L260.94,36.263" style="fill:none;stroke:#000000;stroke-width:0.5" />
<path d="M321.99,32.263L321.99,36.263" style="fill:none;stroke:#000000;stroke-width:0.5" />
<path d="M444.08,32.263L444.08,36.263" style="fill:none;stroke:#000000;stroke-width:0.5" />
<path d="M505.12,32.263L505.12,36.263" style="fill:none;stroke:#000000;stroke-width:0.5" />
<path d="M566.17,32.263L566.17,36.263" style="fill:none;stroke:#000000;stroke-width:0.5" />
<path d="M627.21,32.263L627.21,36.263" style="fill:none;stroke:#000000;stroke-width:0.5" />
<path d="M77.805,36.263L720,36.263" style="fill:none;stroke:#000000;stroke-width:0.5" />
<g transform="rotate(90)">
<text x="152.55" y="11.555" transform="scale(1, -1)"
	style="font-family:Times;font-weight:normal;font-style:normal;font-size:12px">Number of trials (1000000 total)</text>
</g>
<text x="24.055" y="-89.688" transform="scale(1, -1)"
	style="font-family:Times;font-weight:normal;font-style:normal;font-size:10px">25000.00</text>
<text x="19.055" y="-232.92" transform="scale(1, -1)"
	style="font-family:Times;font-weight:normal;font-style:normal;font-size:10px">100000.00</text>
<text x="19.055" y="-376.15" transform="scale(1, -1)"
	style="font-family:Times;font-weight:normal;font-style:normal;font-size:10px">175000.00</text>
<path d="M64.055,92.894L72.055,92.894" style="fill:none;stroke:#000000;stroke-width:0.5" />
<path d="M64.055,236.13L72.055,236.13" style="fill:none;stroke:#000000;stroke-width:0.5" />
<path d="M64.055,379.36L72.055,379.36" style="fill:none;stroke:#000000;stroke-width:0.5" />
<path d="M68.055,164.51L72.055,164.51" style="fill:none;stroke:#000000;stroke-width:0.5" />
<path d="M68.055,307.74L72.055,307.74" style="fill:none;stroke:#000000;stroke-width:0.5" />
<path d="M72.055,45.151L72.055,416.58" style="fill:none;stroke:#000000;stroke-width:0.5" />
<path d="M77.805,416.58L104.66,48.564L107.11,56.068L109.55,49.112L110.77,66.738L111.99,59.775L113.21,56.356L114.43,55.73L115.65,63.229L116.87,56.134L118.09,56.106L119.32,78.918L120.54,63.424L122.98,52.559L124.2,55.808L125.42,59.597L126.64,71.136L127.86,66.715L129.08,48.597L130.3,74.707L131.52,90.1L132.75,55.355L133.97,70.698L136.41,48.707L137.63,67.565L138.85,55.554L140.07,57.362L141.29,45.678L142.51,85.476L143.73,52.884L144.95,50.123L146.18,54.582L147.4,71.206L148.62,59.068L149.84,68.258L151.06,50.699L152.28,66.073L153.5,52.519L154.72,61.948L155.94,48.11L157.16,49.332L158.38,49.133L159.61,53.677L160.83,51.144L162.05,50.144L163.27,50.757L164.49,52.643L165.71,52.344L166.93,56.337L168.15,67.744L169.37,53.623L170.59,51.687L171.81,54.481L173.04,55.038L174.26,52.678L175.48,83.162L176.7,71.989L177.92,51.902L179.14,55.611L180.36,57.657L181.58,55.229L182.8,54.364L184.02,58.505L185.24,55.313L186.47,54.75L187.69,55.85L188.91,53.961L190.13,54.376L191.35,55.808L192.57,54.632L193.79,53.812L195.01,53.978L196.23,56.9L197.45,53.335L198.67,54.015L199.9,53.297L201.12,54.704L202.34,55.886L203.56,54.756L204.78,53.56L206,52.781L207.22,53.277L208.44,55.006L209.66,54.429L210.88,52.628L212.1,53.394L213.32,52.823L214.55,54.406L215.77,52.122L216.99,55.712L218.21,54.356L219.43,52.695L220.65,51.876L221.87,53.109L223.09,52.151L224.31,54.022L225.53,52.588L226.75,51.291L227.98,52.531L229.2,55.18L230.42,52.382L231.64,51.996L232.86,52.137L234.08,49.979L235.3,51.349L236.52,51.988L237.74,51.746L238.96,50.558L240.18,52.915L241.41,51.986L242.63,50.51L243.85,50.678L245.07,52.439L246.29,51.616L247.51,51.503L248.73,50.793L249.95,51.232L251.17,50.726L252.39,50.688L253.61,50.142L254.84,49.464L256.06,49.603L257.28,49.985L258.5,49.615L259.72,49.055L260.94,49.311L262.16,49.213L263.38,49.403L264.6,49.561L265.82,50.621L267.04,49.802L268.27,49.068L269.49,48.967L270.71,49.269L271.93,48.982L273.15,48.982L274.37,50.012L275.59,48.578L276.81,48.816L278.03,49.055L279.25,48.83L280.47,48.61L281.7,48.862L282.92,48.599L284.14,48.566L285.36,48.461L286.58,48.383L287.8,48.052L289.02,48.375L290.24,48.358L291.46,48.054L292.68,48.087L293.9,48.262L295.13,47.957L296.35,47.854L297.57,47.865L298.79,47.875L300.01,47.955L301.23,47.859L302.45,47.575L303.67,47.498L304.89,47.447L306.11,47.71L307.33,47.432L308.56,47.361L309.78,47.285L311,47.111L312.22,47.309L313.44,47.138L314.66,47.195L315.88,47.185L317.1,47.164L318.32,46.927L319.54,46.956L320.76,46.855L321.99,46.939L323.21,46.975L324.43,46.721L325.65,46.616L326.87,46.706L328.09,46.761L329.31,46.517L330.53,46.811L331.75,46.528L332.97,46.517L334.19,46.563L335.42,46.635L336.64,46.589L337.86,46.46L339.08,46.429L340.3,46.353L341.52,46.341L342.74,46.45L343.96,46.435L345.18,46.295L346.4,46.299L347.62,46.188L348.85,46.305L350.07,46.102L351.29,46.234L352.51,46.116L353.73,46.104L354.95,46.106L356.17,46.07L357.39,46.02L358.61,46.106L359.83,45.885L361.05,45.955L362.28,45.944L363.5,46.003L364.72,45.942L365.94,45.931L367.16,45.898L368.38,45.877L369.6,45.848L370.82,45.877L372.04,45.843L373.26,45.724L374.48,45.782L375.71,45.711L376.93,45.726L378.15,45.73L379.37,45.74L380.59,45.757L381.81,45.688L383.03,45.692L384.25,45.638L385.47,45.627L386.69,45.589L387.91,45.589L389.14,45.615L390.36,45.65L391.58,45.554L392.8,45.562L394.02,45.566L395.24,45.551L396.46,45.537L397.68,45.545L398.9,45.543L400.12,45.518L401.34,45.478L402.57,45.514L403.79,45.48L405.01,45.47L406.23,45.457L407.45,45.421L408.67,45.465L409.89,45.43L411.11,45.453L412.33,45.421L413.55,45.428L414.77,45.409L415.99,45.417L417.22,45.375L418.44,45.402L419.66,45.369L420.88,45.392L422.1,45.36L423.32,45.346L424.54,45.339L425.76,45.358L426.98,45.327L428.2,45.312L429.42,45.35L430.65,45.298L431.87,45.346L433.09,45.297L434.31,45.323L435.53,45.3L436.75,45.289L437.97,45.298L439.19,45.285L440.41,45.276L441.63,45.283L442.85,45.312L444.08,45.287L445.3,45.264L446.52,45.256L447.74,45.262L448.96,45.237L450.18,45.253L451.4,45.258L452.62,45.256L453.84,45.26L455.06,45.224L456.28,45.249L457.51,45.256L458.73,45.218L459.95,45.209L461.17,45.22L462.39,45.241L463.61,45.23L464.83,45.226L466.05,45.216L467.27,45.209L468.49,45.209L469.71,45.212L470.94,45.214L472.16,45.205L473.38,45.212L474.6,45.207L475.82,45.203L477.04,45.205L478.26,45.199L479.48,45.197L480.7,45.203L481.92,45.207L483.14,45.191L484.37,45.199L485.59,45.188L486.81,45.182L488.03,45.193L489.25,45.184L490.47,45.178L491.69,45.184L492.91,45.182L494.13,45.17L495.35,45.188L496.57,45.186L497.8,45.19L499.02,45.188L500.24,45.19L501.46,45.169L502.68,45.176L503.9,45.17L505.12,45.167L506.34,45.174L507.56,45.167L508.78,45.169L510,45.174L511.23,45.165L512.45,45.161L513.67,45.172L514.89,45.165L516.11,45.161L517.33,45.157L518.55,45.165L519.77,45.167L520.99,45.169L522.21,45.157L523.43,45.167L524.66,45.169L525.88,45.165L527.1,45.167L528.32,45.159L529.54,45.163L530.76,45.161L531.98,45.163L533.2,45.161L534.42,45.163L535.64,45.155L536.86,45.159L538.09,45.157L539.31,45.169L540.53,45.165L541.75,45.153L542.97,45.155L544.19,45.155L545.41,45.153L546.63,45.153L549.07,45.159L550.29,45.159L551.52,45.159L552.74,45.159L553.96,45.165L555.18,45.159L556.4,45.153L557.62,45.157L558.84,45.157L561.28,45.155L562.5,45.151L564.95,45.157L566.17,45.151L567.39,45.153L568.61,45.153L571.05,45.153L572.27,45.159L573.49,45.155L577.15,45.153L579.6,45.151L580.82,45.155L582.04,45.153L583.26,45.153L584.48,45.153L585.7,45.153L586.92,45.155L588.14,45.153L590.58,45.151L591.81,45.151L594.25,45.153L596.69,45.151L597.91,45.151L601.57,45.151L602.79,45.151L606.46,45.151L612.56,45.151L615,45.151L619.89,45.151L625.99,45.151L627.21,45.151L628.43,45.153L633.32,45.153L641.86,45.151L645.52,45.155L666.28,45.151L668.72,45.151L673.61,45.151L676.05,45.151L720,45.151" style="fill:none;stroke:#0000FF" />
</g>
</svg>
