<?xml version="1.0"?>
<!-- Generated by SVGo and Plotinum VG -->
<svg width="720pt" height="432pt" viewBox="0 0 720 432"
	xmlns="http://www.w3.org/2000/svg"
	xmlns:xlink="http://www.w3.org/1999/xlink">
<g transform="scale(1, -1) translate(0, -432)">
<path d="M0,0L720,0L720,432L0,432Z" style="fill:#FFFFFF" />
<text x="358.5" y="-420.45" transform="scale(1, -1)"
	style="font-family:Times;font-weight:normal;font-style:normal;font-size:12px"> </text>
<text x="379.13" y="-3.8613" transform="scale(1, -1)"
	style="font-family:Times;font-weight:normal;font-style:normal;font-size:12px">Costs</text>
<text x="56.184" y="-18.634" transform="scale(1, -1)"
	style="font-family:Times;font-weight:normal;font-style:normal;font-size:10px">0.00</text>
<text x="357.86" y="-18.634" transform="scale(1, -1)"
	style="font-family:Times;font-weight:normal;font-style:normal;font-size:10px">250.00</text>
<text x="664.54" y="-18.634" transform="scale(1, -1)"
	style="font-family:Times;font-weight:normal;font-style:normal;font-size:10px">500.00</text>
<path d="M64.934,28.263L64.934,36.263" style="fill:none;stroke:#000000;stroke-width:0.5" />
<path d="M371.61,28.263L371.61,36.263" style="fill:none;stroke:#000000;stroke-width:0.5" />
<path d="M678.29,28.263L678.29,36.263" style="fill:none;stroke:#000000;stroke-width:0.5" />
<path d="M126.27,32.263L126.27,36.263" style="fill:none;stroke:#000000;stroke-width:0.5" />
<path d="M187.61,32.263L187.61,36.263" style="fill:none;stroke:#000000;stroke-width:0.5" />
<path d="M248.94,32.263L248.94,36.263" style="fill:none;stroke:#000000;stroke-width:0.5" />
<path d="M310.28,32.263L310.28,36.263" style="fill:none;stroke:#000000;stroke-width:0.5" />
<path d="M432.95,32.263L432.95,36.263" style="fill:none;stroke:#000000;stroke-width:0.5" />
<path d="M494.28,32.263L494.28,36.263" style="fill:none;stroke:#000000;stroke-width:0.5" />
<path d="M555.62,32.263L555.62,36.263" style="fill:none;stroke:#000000;stroke-width:0.5" />
<path d="M616.96,32.263L616.96,36.263" style="fill:none;stroke:#000000;stroke-width:0.5" />
<path d="M64.934,36.263L720,36.263" style="fill:none;stroke:#000000;stroke-width:0.5" />
<g transform="rotate(90)">
<text x="152.55" y="11.555" transform="scale(1, -1)"
	style="font-family:Times;font-weight:normal;font-style:normal;font-size:12px">Number of trials (1000000 total)</text>
</g>
<text x="23.684" y="-71.876" transform="scale(1, -1)"
	style="font-family:Times;font-weight:normal;font-style:normal;font-size:10px">10000</text>
<text x="23.684" y="-221.54" transform="scale(1, -1)"
	style="font-family:Times;font-weight:normal;font-style:normal;font-size:10px">60000</text>
<text x="19.055" y="-371.21" transform="scale(1, -1)"
	style="font-family:Times;font-weight:normal;font-style:normal;font-size:10px">110000</text>
<path d="M51.184,75.082L59.184,75.082" style="fill:none;stroke:#000000;stroke-width:0.5" />
<path d="M51.184,224.75L59.184,224.75" style="fill:none;stroke:#000000;stroke-width:0.5" />
<path d="M51.184,374.41L59.184,374.41" style="fill:none;stroke:#000000;stroke-width:0.5" />
<path d="M55.184,105.01L59.184,105.01" style="fill:none;stroke:#000000;stroke-width:0.5" />
<path d="M55.184,134.95L59.184,134.95" style="fill:none;stroke:#000000;stroke-width:0.5" />
<path d="M55.184,164.88L59.184,164.88" style="fill:none;stroke:#000000;stroke-width:0.5" />
<path d="M55.184,194.81L59.184,194.81" style="fill:none;stroke:#000000;stroke-width:0.5" />
<path d="M55.184,254.68L59.184,254.68" style="fill:none;stroke:#000000;stroke-width:0.5" />
<path d="M55.184,284.61L59.184,284.61" style="fill:none;stroke:#000000;stroke-width:0.5" />
<path d="M55.184,314.55L59.184,314.55" style="fill:none;stroke:#000000;stroke-width:0.5" />
<path d="M55.184,344.48L59.184,344.48" style="fill:none;stroke:#000000;stroke-width:0.5" />
<path d="M55.184,404.35L59.184,404.35" style="fill:none;stroke:#000000;stroke-width:0.5" />
<path d="M59.184,45.151L59.184,416.58" style="fill:none;stroke:#000000;stroke-width:0.5" />
<path d="M64.934,416.58L93.148,66.859L96.828,59.798L98.055,81.673L99.282,48.492L102.96,154.04L104.19,66.533L106.64,62.755L107.87,62.195L109.1,151.64L110.32,55.508L114,59.474L115.23,73.45L117.68,55.595L118.91,100.37L121.36,151.23L125.04,52.82L126.27,90.596L127.5,45.346L129.95,152.43L131.18,69.918L132.4,46.441L133.63,74.773L134.86,57.143L136.08,57.996L137.31,76.111L138.54,49.854L139.76,61.345L140.99,66.401L142.22,66.655L143.44,48.417L144.67,50.53L145.9,52.225L147.12,81.2L148.35,57.616L149.58,53.458L150.8,53.263L152.03,60.334L153.26,60.286L154.48,62.153L155.71,49.761L156.94,64.255L158.16,62.165L159.39,88.926L160.62,55.906L161.84,56.406L163.07,83.008L164.3,69.786L165.52,79.527L166.75,51.94L167.98,81.688L169.2,66.703L170.43,66.548L171.66,71.606L172.88,58.873L174.11,81.266L175.34,82.568L176.56,53.682L177.79,59.522L179.02,62.719L180.24,67.898L181.47,57.93L182.7,65.943L183.93,70.607L185.15,55.858L186.38,81.131L187.61,60.806L188.83,50.324L190.06,62.318L191.29,70.101L192.51,55.442L193.74,58.367L194.97,54.943L196.19,63.836L197.42,57.861L198.65,65.317L199.87,54.838L201.1,60.154L202.33,62.77L203.55,62.483L204.78,56.786L206.01,58.505L207.23,60.399L208.46,59.394L209.69,54.868L210.91,54.245L212.14,60.962L213.37,61.884L214.59,55.52L215.82,57.208L217.05,56.358L218.27,56.813L219.5,61.866L220.73,55.897L221.95,56.433L223.18,54.99L224.41,65.036L225.63,57.229L226.86,55.065L228.09,60.567L229.31,59.04L230.54,59.361L231.77,56.834L232.99,54.155L234.22,57.526L235.45,58.699L236.67,58.998L237.9,54.266L239.13,52.862L240.35,60.866L241.58,54.074L242.81,53.739L244.03,54.529L245.26,54.452L246.49,53.766L247.71,55.46L248.94,52.192L250.17,52.464L251.39,52.964L252.62,54.344L253.85,50.967L255.07,53.419L256.3,52.317L257.53,53.15L258.75,52.739L259.98,51.68L261.21,51.351L262.43,53.036L263.66,52.03L264.89,51.422L266.12,51.542L267.34,51.123L268.57,52.718L269.8,51.255L271.02,50.036L272.25,51.015L273.48,51.988L274.7,50.665L275.93,50.216L277.16,50.051L278.38,51.548L279.61,50.237L280.84,50.758L282.06,49.857L283.29,49.486L284.52,50.692L285.74,50.698L286.97,48.965L288.2,49.51L289.42,49.827L290.65,49.821L291.88,49.558L293.1,49.435L294.33,49.327L295.56,48.725L296.78,49.647L298.01,48.965L299.24,48.672L300.46,48.908L301.69,49.258L302.92,48.63L304.14,48.261L305.37,48.285L306.6,48.612L307.82,48.007L309.05,48.145L310.28,47.863L311.5,47.899L312.73,47.941L313.96,47.881L315.18,47.453L316.41,47.69L317.64,47.762L318.86,47.534L320.09,47.301L321.32,47.16L322.54,47.537L323.77,47.256L325,47.085L326.22,46.989L327.45,47.196L328.68,47.049L329.9,47.289L331.13,46.911L332.36,47.004L333.58,46.965L334.81,47.079L336.04,46.663L337.26,46.708L338.49,46.923L339.72,46.792L340.94,46.645L342.17,46.738L343.4,46.495L344.62,46.645L345.85,46.588L347.08,46.418L348.31,46.22L349.53,46.436L350.76,46.331L351.99,46.223L353.21,46.313L354.44,46.223L355.67,46.241L356.89,46.121L358.12,46.106L359.35,46.025L360.57,46.121L361.8,46.085L363.03,46.064L364.25,45.891L365.48,45.957L366.71,45.942L367.93,45.897L369.16,45.909L370.39,45.867L371.61,45.882L372.84,45.888L374.07,45.813L375.29,45.693L376.52,45.843L377.75,45.798L378.97,45.735L380.2,45.723L381.43,45.729L382.65,45.645L383.88,45.744L385.11,45.615L386.33,45.612L387.56,45.63L388.79,45.594L390.01,45.606L391.24,45.57L392.47,45.561L393.69,45.573L394.92,45.52L396.15,45.576L397.37,45.487L398.6,45.57L399.83,45.463L401.05,45.427L402.28,45.439L403.51,45.451L404.73,45.448L405.96,45.409L407.19,45.442L408.41,45.373L409.64,45.442L410.87,45.382L412.09,45.388L413.32,45.349L414.55,45.4L415.77,45.415L417,45.37L418.23,45.337L419.45,45.355L420.68,45.337L421.91,45.301L423.13,45.334L424.36,45.292L425.59,45.325L426.81,45.319L428.04,45.289L429.27,45.298L430.49,45.301L431.72,45.28L432.95,45.268L434.18,45.28L435.4,45.259L436.63,45.268L437.86,45.265L439.08,45.262L440.31,45.244L441.54,45.232L442.76,45.247L443.99,45.244L445.22,45.22L446.44,45.229L447.67,45.223L448.9,45.235L450.12,45.214L451.35,45.214L452.58,45.241L453.8,45.223L455.03,45.22L456.26,45.214L457.48,45.202L458.71,45.25L459.94,45.199L461.16,45.19L462.39,45.223L463.62,45.184L464.84,45.214L466.07,45.217L467.3,45.193L468.52,45.184L469.75,45.193L470.98,45.211L472.2,45.202L473.43,45.184L474.66,45.181L475.88,45.181L477.11,45.187L478.34,45.181L479.56,45.181L480.79,45.184L482.02,45.175L483.24,45.175L484.47,45.163L485.7,45.178L486.92,45.193L488.15,45.172L489.38,45.169L490.6,45.166L491.83,45.169L493.06,45.169L494.28,45.172L495.51,45.151L496.74,45.172L497.96,45.166L499.19,45.163L500.42,45.166L501.64,45.178L502.87,45.16L504.1,45.175L505.32,45.166L506.55,45.157L507.78,45.154L509,45.154L510.23,45.16L511.46,45.157L512.68,45.154L513.91,45.157L515.14,45.157L516.37,45.163L517.59,45.154L518.82,45.157L520.05,45.157L521.27,45.151L522.5,45.151L523.73,45.157L524.95,45.151L526.18,45.154L528.63,45.151L529.86,45.151L531.09,45.157L532.31,45.157L534.77,45.157L535.99,45.154L537.22,45.154L538.45,45.157L540.9,45.151L542.13,45.157L544.58,45.151L545.81,45.151L547.03,45.151L549.49,45.151L550.71,45.151L551.94,45.154L554.39,45.154L555.62,45.151L560.53,45.154L561.75,45.151L562.98,45.151L564.21,45.151L566.66,45.151L569.11,45.154L580.15,45.154L586.29,45.151L602.24,45.151L603.46,45.151L619.41,45.151L625.54,45.151L661.12,45.151L720,45.151" style="fill:none;stroke:#0000FF" />
</g>
</svg>
