<?xml version="1.0"?>
<!-- Generated by SVGo and Plotinum VG -->
<svg width="720pt" height="432pt" viewBox="0 0 720 432"
	xmlns="http://www.w3.org/2000/svg"
	xmlns:xlink="http://www.w3.org/1999/xlink">
<g transform="scale(1, -1) translate(0, -432)">
<path d="M0,0L720,0L720,432L0,432Z" style="fill:#FFFFFF" />
<text x="358.5" y="-420.45" transform="scale(1, -1)"
	style="font-family:Times;font-weight:normal;font-style:normal;font-size:12px"> </text>
<text x="379.31" y="-3.8613" transform="scale(1, -1)"
	style="font-family:Times;font-weight:normal;font-style:normal;font-size:12px">Costs</text>
<text x="56.555" y="-18.634" transform="scale(1, -1)"
	style="font-family:Times;font-weight:normal;font-style:normal;font-size:10px">0.00</text>
<text x="338.7" y="-18.634" transform="scale(1, -1)"
	style="font-family:Times;font-weight:normal;font-style:normal;font-size:10px">250.00</text>
<text x="625.85" y="-18.634" transform="scale(1, -1)"
	style="font-family:Times;font-weight:normal;font-style:normal;font-size:10px">500.00</text>
<path d="M65.305,28.263L65.305,36.263" style="fill:none;stroke:#000000;stroke-width:0.5" />
<path d="M352.45,28.263L352.45,36.263" style="fill:none;stroke:#000000;stroke-width:0.5" />
<path d="M639.6,28.263L639.6,36.263" style="fill:none;stroke:#000000;stroke-width:0.5" />
<path d="M122.73,32.263L122.73,36.263" style="fill:none;stroke:#000000;stroke-width:0.5" />
<path d="M180.16,32.263L180.16,36.263" style="fill:none;stroke:#000000;stroke-width:0.5" />
<path d="M237.59,32.263L237.59,36.263" style="fill:none;stroke:#000000;stroke-width:0.5" />
<path d="M295.02,32.263L295.02,36.263" style="fill:none;stroke:#000000;stroke-width:0.5" />
<path d="M409.88,32.263L409.88,36.263" style="fill:none;stroke:#000000;stroke-width:0.5" />
<path d="M467.31,32.263L467.31,36.263" style="fill:none;stroke:#000000;stroke-width:0.5" />
<path d="M524.74,32.263L524.74,36.263" style="fill:none;stroke:#000000;stroke-width:0.5" />
<path d="M582.17,32.263L582.17,36.263" style="fill:none;stroke:#000000;stroke-width:0.5" />
<path d="M697.03,32.263L697.03,36.263" style="fill:none;stroke:#000000;stroke-width:0.5" />
<path d="M65.305,36.263L720,36.263" style="fill:none;stroke:#000000;stroke-width:0.5" />
<g transform="rotate(90)">
<text x="152.55" y="11.555" transform="scale(1, -1)"
	style="font-family:Times;font-weight:normal;font-style:normal;font-size:12px">Number of trials (1000000 total)</text>
</g>
<text x="24.055" y="-111.4" transform="scale(1, -1)"
	style="font-family:Times;font-weight:normal;font-style:normal;font-size:10px">20000</text>
<text x="24.055" y="-250.31" transform="scale(1, -1)"
	style="font-family:Times;font-weight:normal;font-style:normal;font-size:10px">60000</text>
<text x="19.055" y="-389.22" transform="scale(1, -1)"
	style="font-family:Times;font-weight:normal;font-style:normal;font-size:10px">100000</text>
<path d="M51.555,114.6L59.555,114.6" style="fill:none;stroke:#000000;stroke-width:0.5" />
<path d="M51.555,253.51L59.555,253.51" style="fill:none;stroke:#000000;stroke-width:0.5" />
<path d="M51.555,392.42L59.555,392.42" style="fill:none;stroke:#000000;stroke-width:0.5" />
<path d="M55.555,79.876L59.555,79.876" style="fill:none;stroke:#000000;stroke-width:0.5" />
<path d="M55.555,149.33L59.555,149.33" style="fill:none;stroke:#000000;stroke-width:0.5" />
<path d="M55.555,184.06L59.555,184.06" style="fill:none;stroke:#000000;stroke-width:0.5" />
<path d="M55.555,218.79L59.555,218.79" style="fill:none;stroke:#000000;stroke-width:0.5" />
<path d="M55.555,288.24L59.555,288.24" style="fill:none;stroke:#000000;stroke-width:0.5" />
<path d="M55.555,322.97L59.555,322.97" style="fill:none;stroke:#000000;stroke-width:0.5" />
<path d="M55.555,357.7L59.555,357.7" style="fill:none;stroke:#000000;stroke-width:0.5" />
<path d="M59.555,45.151L59.555,416.58" style="fill:none;stroke:#000000;stroke-width:0.5" />
<path d="M65.305,416.58L90.574,56.726L91.722,57.035L92.871,48.322L95.168,57.497L96.317,58.73L97.465,70.798L98.614,61.855L100.91,65.807L102.06,78.479L103.21,63.901L104.36,88.252L105.51,73.92L106.65,66.123L107.8,71.791L108.95,88.689L110.1,75.548L111.25,57.445L112.4,82.188L113.55,92.496L114.69,73.524L115.84,68.256L116.99,63.911L118.14,56.987L119.29,45.242L120.44,70.343L121.59,56.278L122.73,64.689L123.88,46.488L125.03,46.099L126.18,80.462L127.33,54.649L128.48,51.482L129.63,78.156L130.77,61.387L131.92,48.77L133.07,70.332L134.22,52.125L135.37,70.923L136.52,66.735L137.67,62.21L138.81,54.976L139.96,57.101L141.11,58.292L142.26,61.72L143.41,57.4L144.56,59.483L145.71,62.376L146.85,86.953L148,61.025L149.15,92.485L150.3,72.722L151.45,63.092L152.6,65.217L153.75,64.231L154.89,61.435L156.04,64.39L157.19,90.335L158.34,105.66L159.49,62.529L160.64,61.939L161.79,63.303L162.93,62.845L164.08,60.695L165.23,62.644L166.38,61.13L167.53,59.827L168.68,62.338L169.83,63.293L170.97,59.952L172.12,60.928L173.27,62.668L174.42,63.099L175.57,59.369L176.72,61.539L177.87,62.404L179.01,61.883L180.16,61.15L181.31,62.553L182.46,61.578L183.61,63.21L184.76,63.29L185.91,63.817L187.06,61.727L188.2,63.828L189.35,62.821L190.5,66.783L191.65,62.144L192.8,61.821L193.95,67.36L195.1,65.394L196.24,66.037L197.39,70.763L198.54,64.877L199.69,63.56L200.84,64.033L201.99,65.453L203.14,61.001L204.28,62.612L205.43,64.133L206.58,64.502L207.73,62.654L208.88,59.174L210.03,60.904L211.18,59.306L212.32,57.702L213.47,61.546L214.62,60.97L215.77,57.146L216.92,58.15L218.07,59.32L219.22,62.012L220.36,58.15L221.51,59.417L222.66,59.911L223.81,57.518L224.96,57.08L226.11,59.025L227.26,57.973L228.4,59.595L229.55,59.049L230.7,59.355L231.85,57.313L233,57.018L234.15,58.292L235.3,57.115L236.44,56.625L237.59,57.334L238.74,58.751L239.89,59.765L241.04,58.64L242.19,61.258L243.34,57.639L244.48,56.698L245.63,57.202L246.78,56.549L247.93,56.212L249.08,56.136L250.23,59.042L251.38,56.115L252.52,55.702L253.67,55.452L254.82,55.476L255.97,55.111L257.12,54.663L258.27,55.406L259.42,54.361L260.56,54.222L261.71,54.865L262.86,54.896L264.01,53.684L265.16,54.375L266.31,54.16L267.46,53.767L268.6,53.608L269.75,53.604L270.9,53.854L272.05,53.573L273.2,52.868L274.35,53.048L275.5,53.114L276.64,52.948L277.79,53.128L278.94,53.118L280.09,52.788L281.24,52.531L282.39,52.774L283.54,52.743L284.69,52.218L285.83,52.305L286.98,52.753L288.13,51.885L289.28,52.257L290.43,52.031L291.58,51.93L292.73,51.343L293.87,51.406L295.02,50.968L296.17,50.708L297.32,50.878L298.47,51.107L299.62,50.885L300.77,50.402L301.91,50.399L303.06,50.531L304.21,50.218L305.36,50.152L306.51,50.208L307.66,50.208L308.81,49.791L309.95,49.892L311.1,50.117L312.25,49.906L313.4,49.409L314.55,49.673L315.7,49.558L316.85,49.183L317.99,49.357L319.14,49.319L320.29,49.225L321.44,49.1L322.59,49.218L323.74,49.277L324.89,48.878L326.03,48.77L327.18,48.77L328.33,48.714L329.48,48.544L330.63,48.555L331.78,48.704L332.93,48.548L334.07,48.551L335.22,48.544L336.37,48.294L337.52,48.169L338.67,48.124L339.82,48.089L340.97,48.016L342.11,47.805L343.26,47.888L344.41,47.812L345.56,47.836L346.71,47.732L347.86,47.596L349.01,47.464L350.15,47.61L351.3,47.68L352.45,47.325L353.6,47.304L354.75,47.294L355.9,47.412L357.05,47.225L358.19,47.211L359.34,47.35L360.49,47.193L361.64,46.992L362.79,46.874L363.94,47.047L365.09,46.947L366.23,47.013L367.38,46.954L368.53,46.832L369.68,46.829L370.83,46.766L371.98,46.752L373.13,46.683L374.27,46.7L375.42,46.631L376.57,46.659L377.72,46.488L378.87,46.582L380.02,46.54L381.17,46.44L382.32,46.405L383.46,46.415L384.61,46.325L385.76,46.409L386.91,46.349L388.06,46.294L389.21,46.235L390.36,46.11L391.5,46.131L392.65,46.186L393.8,46.047L394.95,46.061L396.1,46.158L397.25,46.058L398.4,46.082L399.54,46.169L400.69,46.145L401.84,45.981L402.99,45.967L404.14,46.013L405.29,46.006L406.44,45.957L407.58,45.825L408.73,45.811L409.88,45.891L411.03,45.801L412.18,45.846L413.33,45.849L414.48,45.787L415.62,45.735L416.77,45.818L417.92,45.728L419.07,45.638L420.22,45.79L421.37,45.756L422.52,45.641L423.66,45.749L424.81,45.71L425.96,45.606L427.11,45.641L428.26,45.596L429.41,45.644L430.56,45.599L431.7,45.54L432.85,45.61L434,45.61L435.15,45.568L436.3,45.485L437.45,45.506L438.6,45.499L439.74,45.516L440.89,45.481L442.04,45.478L443.19,45.499L444.34,45.467L445.49,45.495L446.64,45.457L447.78,45.447L448.93,45.436L450.08,45.398L451.23,45.474L452.38,45.391L453.53,45.377L454.68,45.467L455.82,45.415L456.97,45.401L458.12,45.374L459.27,45.349L460.42,45.353L461.57,45.388L462.72,45.335L463.86,45.308L465.01,45.301L466.16,45.311L467.31,45.367L468.46,45.322L469.61,45.308L470.76,45.363L471.9,45.308L473.05,45.322L474.2,45.363L475.35,45.328L476.5,45.301L477.65,45.287L478.8,45.297L479.95,45.301L481.09,45.29L482.24,45.245L483.39,45.256L484.54,45.252L485.69,45.262L486.84,45.276L487.99,45.245L489.13,45.256L490.28,45.266L491.43,45.249L492.58,45.249L493.73,45.262L494.88,45.231L496.03,45.238L497.17,45.221L498.32,45.231L499.47,45.217L500.62,45.214L501.77,45.231L502.92,45.217L504.07,45.221L505.21,45.252L506.36,45.238L507.51,45.228L508.66,45.193L509.81,45.217L510.96,45.228L512.11,45.2L513.25,45.197L514.4,45.207L515.55,45.203L516.7,45.217L517.85,45.21L519,45.217L520.15,45.203L521.29,45.186L522.44,45.2L523.59,45.186L524.74,45.2L525.89,45.179L527.04,45.176L528.19,45.169L529.33,45.179L530.48,45.172L531.63,45.2L532.78,45.176L533.93,45.172L535.08,45.179L536.23,45.186L537.37,45.197L538.52,45.19L539.67,45.172L540.82,45.162L541.97,45.169L543.12,45.172L544.27,45.169L545.41,45.183L546.56,45.179L547.71,45.165L548.86,45.165L550.01,45.183L551.16,45.158L552.31,45.172L553.45,45.158L554.6,45.169L555.75,45.151L556.9,45.162L558.05,45.165L559.2,45.155L560.35,45.165L561.49,45.155L562.64,45.165L563.79,45.158L564.94,45.162L566.09,45.151L567.24,45.155L568.39,45.162L569.53,45.158L570.68,45.151L571.83,45.158L572.98,45.151L574.13,45.172L575.28,45.151L576.43,45.151L577.58,45.158L578.72,45.158L579.87,45.165L581.02,45.151L582.17,45.151L584.47,45.158L585.62,45.158L587.91,45.162L589.06,45.162L590.21,45.155L591.36,45.155L592.51,45.162L595.95,45.155L598.25,45.165L599.4,45.155L600.55,45.155L601.7,45.155L602.84,45.155L603.99,45.151L605.14,45.151L608.59,45.155L612.03,45.151L613.18,45.151L615.48,45.151L616.63,45.151L617.78,45.155L618.92,45.151L624.67,45.155L625.82,45.151L629.26,45.151L632.71,45.151L635,45.151L640.75,45.151L656.83,45.151L657.98,45.151L660.27,45.155L662.57,45.151L667.16,45.151L679.8,45.151L680.95,45.151L699.33,45.151L720,45.151" style="fill:none;stroke:#0000FF" />
</g>
</svg>
