<?xml version="1.0"?>
<!-- Generated by SVGo and Plotinum VG -->
<svg width="720pt" height="432pt" viewBox="0 0 720 432"
	xmlns="http://www.w3.org/2000/svg"
	xmlns:xlink="http://www.w3.org/1999/xlink">
<g transform="scale(1, -1) translate(0, -432)">
<path d="M0,0L720,0L720,432L0,432Z" style="fill:#FFFFFF" />
<text x="358.5" y="-420.45" transform="scale(1, -1)"
	style="font-family:Times;font-weight:normal;font-style:normal;font-size:12px"> </text>
<text x="379.31" y="-3.8613" transform="scale(1, -1)"
	style="font-family:Times;font-weight:normal;font-style:normal;font-size:12px">Costs</text>
<text x="62.805" y="-18.634" transform="scale(1, -1)"
	style="font-family:Times;font-weight:normal;font-style:normal;font-size:10px">0</text>
<text x="335.81" y="-18.634" transform="scale(1, -1)"
	style="font-family:Times;font-weight:normal;font-style:normal;font-size:10px">200</text>
<text x="613.81" y="-18.634" transform="scale(1, -1)"
	style="font-family:Times;font-weight:normal;font-style:normal;font-size:10px">400</text>
<path d="M65.305,28.263L65.305,36.263" style="fill:none;stroke:#000000;stroke-width:0.5" />
<path d="M343.31,28.263L343.31,36.263" style="fill:none;stroke:#000000;stroke-width:0.5" />
<path d="M621.31,28.263L621.31,36.263" style="fill:none;stroke:#000000;stroke-width:0.5" />
<path d="M204.31,32.263L204.31,36.263" style="fill:none;stroke:#000000;stroke-width:0.5" />
<path d="M482.31,32.263L482.31,36.263" style="fill:none;stroke:#000000;stroke-width:0.5" />
<path d="M65.305,36.263L720,36.263" style="fill:none;stroke:#000000;stroke-width:0.5" />
<g transform="rotate(90)">
<text x="152.55" y="11.555" transform="scale(1, -1)"
	style="font-family:Times;font-weight:normal;font-style:normal;font-size:12px">Number of trials (1000000 total)</text>
</g>
<text x="24.055" y="-112.25" transform="scale(1, -1)"
	style="font-family:Times;font-weight:normal;font-style:normal;font-size:10px">50000</text>
<text x="19.055" y="-252.86" transform="scale(1, -1)"
	style="font-family:Times;font-weight:normal;font-style:normal;font-size:10px">150000</text>
<text x="19.055" y="-393.48" transform="scale(1, -1)"
	style="font-family:Times;font-weight:normal;font-style:normal;font-size:10px">250000</text>
<path d="M51.555,115.46L59.555,115.46" style="fill:none;stroke:#000000;stroke-width:0.5" />
<path d="M51.555,256.07L59.555,256.07" style="fill:none;stroke:#000000;stroke-width:0.5" />
<path d="M51.555,396.68L59.555,396.68" style="fill:none;stroke:#000000;stroke-width:0.5" />
<path d="M55.555,185.76L59.555,185.76" style="fill:none;stroke:#000000;stroke-width:0.5" />
<path d="M55.555,326.38L59.555,326.38" style="fill:none;stroke:#000000;stroke-width:0.5" />
<path d="M59.555,45.151L59.555,416.58" style="fill:none;stroke:#000000;stroke-width:0.5" />
<path d="M65.305,416.58L97.275,48.501L101.44,52.199L102.83,63.219L104.23,59.161L105.62,69.528L108.4,66.668L109.79,55.54L112.57,76.473L113.96,52.214L115.35,81.283L116.74,48.446L118.13,52.217L119.52,59.154L120.91,58.775L122.3,70.089L123.69,58.768L125.08,52.19L126.47,63.556L127.86,48.653L129.25,48.433L133.42,55.6L134.81,62.989L136.2,59.836L137.59,45.417L138.98,62.975L140.37,63.423L141.76,46.39L143.15,53.277L144.54,50.239L145.93,61.017L147.32,53.559L148.71,51.105L150.1,83.286L151.49,47.522L152.88,53.498L154.27,47.533L155.66,50.268L157.05,47.802L158.44,49.548L159.83,50.085L161.22,48.859L162.61,51.985L164,49.322L165.39,49.988L166.78,68.367L168.17,62.907L169.56,50.509L170.95,49.891L172.34,57.503L173.73,51.002L175.12,49.759L176.51,65.753L177.9,67.768L179.29,50.388L180.68,50.088L182.07,50.604L183.46,52.231L184.85,50.028L186.24,51.877L187.63,51.044L189.02,51.608L190.41,53.35L191.8,48.927L193.19,52.629L194.58,50.325L195.97,50.938L197.36,52.971L198.75,48.956L200.14,52.321L201.53,48.669L202.92,49.925L204.31,50.751L205.7,50.45L207.09,51.729L208.48,50.579L209.87,50.367L211.26,50.37L212.65,48.38L214.04,51.199L215.43,50.8L216.82,51.274L218.21,50.928L219.6,50.935L220.99,51.413L222.38,49.717L223.77,51.729L225.16,52.247L226.55,49.997L227.94,50.897L229.33,49.045L230.72,49.969L232.11,49.073L233.5,49.65L234.89,50.15L236.28,49.351L237.67,50.019L239.06,48.27L240.45,48.709L241.84,48.961L243.23,47.969L244.62,48.024L246.01,48.973L247.4,50.039L248.79,48.482L250.18,48.255L251.57,50.686L252.96,49.555L254.35,47.909L255.74,47.924L257.13,48.754L258.52,48.266L259.91,47.761L261.3,48.764L262.69,48.883L264.08,47.628L265.47,47.525L266.86,47.358L268.25,47.484L269.64,47.862L271.03,47.425L272.42,47.206L273.81,47.778L275.2,47.73L276.59,47.133L277.98,48.065L279.37,48.512L280.76,47.822L282.15,47.086L283.54,47.254L284.93,47.488L286.32,46.94L287.71,47.027L289.1,47.725L290.49,46.885L291.88,47.052L293.27,46.948L294.66,47.026L296.05,46.927L297.44,46.826L298.83,47.027L300.22,46.874L301.61,46.78L303,46.636L304.39,46.61L305.78,46.745L307.17,46.584L308.56,46.662L309.95,46.563L311.34,46.435L312.73,46.475L314.12,46.22L315.51,46.382L316.9,46.453L318.29,46.385L319.68,46.382L321.07,46.425L322.46,46.363L323.85,46.103L325.24,46.252L326.63,46.324L328.02,46.244L329.41,46.167L330.8,46.22L332.19,46.3L333.58,46.15L334.97,45.996L336.36,46.193L337.75,46.071L339.14,46.026L340.53,45.967L341.92,45.936L343.31,45.909L344.7,45.863L346.09,45.852L347.48,45.891L348.87,45.949L350.26,45.864L351.65,45.783L353.04,45.823L354.43,45.884L355.82,45.7L357.21,45.679L358.6,45.804L359.99,45.774L361.38,45.667L362.77,45.746L364.16,45.776L365.55,45.708L366.94,45.653L368.33,45.649L369.72,45.634L371.11,45.541L372.5,45.58L373.89,45.604L375.28,45.552L376.67,45.577L378.06,45.535L379.45,45.542L380.84,45.568L382.23,45.552L383.62,45.52L385.01,45.5L386.4,45.532L387.79,45.486L389.18,45.442L390.57,45.504L391.96,45.49L393.35,45.464L394.74,45.421L396.13,45.459L397.52,45.412L398.91,45.409L400.3,45.404L401.69,45.375L403.08,45.397L404.47,45.39L405.86,45.345L407.25,45.396L408.64,45.359L410.03,45.371L411.42,45.374L412.81,45.388L414.2,45.352L415.59,45.33L416.98,45.326L418.37,45.341L419.76,45.305L421.15,45.324L422.54,45.319L423.93,45.303L425.32,45.286L426.71,45.285L428.1,45.295L429.49,45.296L430.88,45.274L432.27,45.281L433.66,45.268L435.05,45.265L436.44,45.261L437.83,45.255L439.22,45.275L440.61,45.264L442,45.265L443.39,45.264L444.78,45.264L446.17,45.236L447.56,45.251L448.95,45.217L450.34,45.246L451.73,45.217L453.12,45.244L454.51,45.213L455.9,45.227L457.29,45.229L458.68,45.213L460.07,45.222L461.46,45.219L462.85,45.209L464.24,45.22L465.63,45.215L467.02,45.209L468.41,45.201L469.8,45.209L471.19,45.215L472.58,45.203L473.97,45.189L475.36,45.198L476.75,45.205L478.14,45.198L479.53,45.209L480.92,45.181L482.31,45.195L483.7,45.194L485.09,45.184L486.48,45.187L487.87,45.181L489.26,45.194L490.65,45.188L492.04,45.188L493.43,45.175L494.82,45.192L496.21,45.178L497.6,45.177L498.99,45.195L500.38,45.163L501.77,45.168L503.16,45.181L504.55,45.177L505.94,45.163L507.33,45.174L508.72,45.167L510.11,45.158L511.5,45.165L512.89,45.164L514.28,45.177L515.67,45.163L517.06,45.163L518.45,45.168L519.84,45.172L521.23,45.175L522.62,45.163L524.01,45.16L525.4,45.165L526.79,45.161L528.18,45.164L529.57,45.158L530.96,45.161L532.35,45.167L533.74,45.158L535.13,45.157L536.52,45.164L537.91,45.157L539.3,45.158L540.69,45.165L542.08,45.161L543.47,45.16L544.86,45.161L546.25,45.156L547.64,45.156L549.03,45.158L550.42,45.157L551.81,45.161L553.2,45.153L554.59,45.151L555.98,45.157L557.37,45.154L558.76,45.157L560.15,45.154L561.54,45.154L562.93,45.154L564.32,45.154L565.71,45.153L567.1,45.157L568.49,45.153L569.88,45.151L571.27,45.151L572.66,45.157L575.44,45.153L576.83,45.151L578.22,45.151L581,45.151L583.78,45.153L585.17,45.151L586.56,45.153L587.95,45.154L590.73,45.151L592.12,45.153L593.51,45.151L596.29,45.153L597.68,45.154L599.07,45.151L600.46,45.151L601.85,45.151L603.24,45.151L606.02,45.151L607.41,45.151L608.8,45.156L611.58,45.151L612.97,45.151L617.14,45.151L618.53,45.151L619.92,45.151L621.31,45.151L624.09,45.151L625.48,45.151L626.87,45.151L632.43,45.151L637.99,45.151L639.38,45.153L643.55,45.151L654.67,45.151L656.06,45.151L664.4,45.151L669.96,45.151L678.3,45.153L681.08,45.151L683.86,45.151L688.03,45.151L706.1,45.151L720,45.151" style="fill:none;stroke:#0000FF" />
</g>
</svg>
