<?xml version="1.0"?>
<!-- Generated by SVGo and Plotinum VG -->
<svg width="720pt" height="432pt" viewBox="0 0 720 432"
	xmlns="http://www.w3.org/2000/svg"
	xmlns:xlink="http://www.w3.org/1999/xlink">
<g transform="scale(1, -1) translate(0, -432)">
<path d="M0,0L720,0L720,432L0,432Z" style="fill:#FFFFFF" />
<text x="358.5" y="-420.45" transform="scale(1, -1)"
	style="font-family:Times;font-weight:normal;font-style:normal;font-size:12px"> </text>
<text x="379.31" y="-3.8613" transform="scale(1, -1)"
	style="font-family:Times;font-weight:normal;font-style:normal;font-size:12px">Costs</text>
<text x="62.805" y="-18.634" transform="scale(1, -1)"
	style="font-family:Times;font-weight:normal;font-style:normal;font-size:10px">0</text>
<text x="326.12" y="-18.634" transform="scale(1, -1)"
	style="font-family:Times;font-weight:normal;font-style:normal;font-size:10px">200</text>
<text x="594.44" y="-18.634" transform="scale(1, -1)"
	style="font-family:Times;font-weight:normal;font-style:normal;font-size:10px">400</text>
<path d="M65.305,28.263L65.305,36.263" style="fill:none;stroke:#000000;stroke-width:0.5" />
<path d="M333.62,28.263L333.62,36.263" style="fill:none;stroke:#000000;stroke-width:0.5" />
<path d="M601.94,28.263L601.94,36.263" style="fill:none;stroke:#000000;stroke-width:0.5" />
<path d="M199.46,32.263L199.46,36.263" style="fill:none;stroke:#000000;stroke-width:0.5" />
<path d="M467.78,32.263L467.78,36.263" style="fill:none;stroke:#000000;stroke-width:0.5" />
<path d="M65.305,36.263L720,36.263" style="fill:none;stroke:#000000;stroke-width:0.5" />
<g transform="rotate(90)">
<text x="152.55" y="11.555" transform="scale(1, -1)"
	style="font-family:Times;font-weight:normal;font-style:normal;font-size:12px">Number of trials (1000000 total)</text>
</g>
<text x="24.055" y="-108.46" transform="scale(1, -1)"
	style="font-family:Times;font-weight:normal;font-style:normal;font-size:10px">40000</text>
<text x="19.055" y="-241.5" transform="scale(1, -1)"
	style="font-family:Times;font-weight:normal;font-style:normal;font-size:10px">120000</text>
<text x="19.055" y="-374.54" transform="scale(1, -1)"
	style="font-family:Times;font-weight:normal;font-style:normal;font-size:10px">200000</text>
<path d="M51.555,111.67L59.555,111.67" style="fill:none;stroke:#000000;stroke-width:0.5" />
<path d="M51.555,244.71L59.555,244.71" style="fill:none;stroke:#000000;stroke-width:0.5" />
<path d="M51.555,377.75L59.555,377.75" style="fill:none;stroke:#000000;stroke-width:0.5" />
<path d="M55.555,178.19L59.555,178.19" style="fill:none;stroke:#000000;stroke-width:0.5" />
<path d="M55.555,311.23L59.555,311.23" style="fill:none;stroke:#000000;stroke-width:0.5" />
<path d="M59.555,45.151L59.555,416.58" style="fill:none;stroke:#000000;stroke-width:0.5" />
<path d="M65.305,416.58L97.503,48.574L100.19,76.889L101.53,48.531L102.87,77.857L104.21,52.179L108.24,58.683L109.58,65.967L110.92,82.134L112.26,62.436L113.6,48.777L114.94,77.488L116.29,48.516L117.63,62.438L118.97,55.297L120.31,81.561L121.65,59.159L122.99,65.912L124.33,77.639L125.68,52.189L127.02,48.546L131.04,66.625L132.38,48.84L133.73,48.502L135.07,46.139L136.41,66.534L137.75,62.052L139.09,64.039L140.43,64.129L141.78,49.442L143.12,50.263L144.46,54.351L145.8,63.906L147.14,67.271L148.48,63.649L149.82,50.152L151.17,46.527L152.51,50.628L153.85,48.861L155.19,63.25L156.53,49.688L157.87,53.065L159.22,52.492L160.56,55.605L161.9,51.298L163.24,50.729L164.58,68.955L165.92,53.328L167.27,52.779L168.61,53.593L169.95,53.889L171.29,52.241L172.63,68.992L173.97,68.29L175.31,52.671L176.66,53.569L178,52.598L179.34,52.372L180.68,53.124L182.02,54.181L183.36,54.785L184.71,52.605L186.05,54.263L187.39,50.633L188.73,51.284L190.07,54.111L191.41,53.852L192.76,54.758L194.1,53.441L195.44,53.799L196.78,52.424L198.12,52.843L199.46,52.946L200.81,51.516L202.15,53.33L203.49,51.822L204.83,52.6L206.17,51.196L207.51,52.314L208.85,51.042L210.2,53.524L211.54,52.651L212.88,50.443L214.22,52.162L215.56,49.7L216.9,51.635L218.25,52.911L219.59,54.381L220.93,52.214L222.27,52.162L223.61,52.019L224.95,49.761L226.3,50.596L227.64,51.635L228.98,51.635L230.32,51.647L231.66,50.952L233,50.403L234.34,48.965L235.69,50.177L237.03,49.665L238.37,50.586L239.71,50.395L241.05,48.988L242.39,48.971L243.74,49.64L245.08,50.787L246.42,50.549L247.76,50.796L249.1,49.458L250.44,48.713L251.79,49.121L253.13,49.276L254.47,50.519L255.81,49.883L257.15,49.251L258.49,48.402L259.84,48.359L261.18,48.243L262.52,48.722L263.86,48.763L265.2,48.437L266.54,48.537L267.88,48.494L269.23,48.344L270.57,47.955L271.91,48.941L273.25,48.976L274.59,48.223L275.93,48.333L277.28,48.11L278.62,48.053L279.96,47.847L281.3,48.459L282.64,47.904L283.98,47.686L285.33,47.889L286.67,47.529L288.01,47.458L289.35,47.727L290.69,47.604L292.03,47.629L293.37,47.558L294.72,47.473L296.06,47.045L297.4,47.366L298.74,47.228L300.08,47.325L301.42,47.292L302.77,47.248L304.11,47.267L305.45,47.016L306.79,47.041L308.13,46.861L309.47,47.054L310.82,46.996L312.16,46.868L313.5,46.784L314.84,46.628L316.18,46.693L317.52,46.648L318.86,46.801L320.21,46.641L321.55,46.468L322.89,46.482L324.23,46.314L325.57,46.488L326.91,46.585L328.26,46.525L329.6,46.528L330.94,46.445L332.28,46.226L333.62,46.257L334.96,46.217L336.31,46.249L337.65,46.192L338.99,46.078L340.33,46.093L341.67,46.089L343.01,46.016L344.36,46.177L345.7,46.088L347.04,46.124L348.38,46.041L349.72,46.033L351.06,45.955L352.4,45.951L353.75,46.024L355.09,45.938L356.43,45.908L357.77,45.86L359.11,45.861L360.45,45.788L361.8,45.873L363.14,45.785L364.48,45.775L365.82,45.767L367.16,45.748L368.5,45.738L369.85,45.662L371.19,45.717L372.53,45.667L373.87,45.665L375.21,45.639L376.55,45.675L377.89,45.642L379.24,45.62L380.58,45.617L381.92,45.605L383.26,45.624L384.6,45.555L385.94,45.58L387.29,45.6L388.63,45.574L389.97,45.564L391.31,45.481L392.65,45.549L393.99,45.497L395.34,45.476L396.68,45.481L398.02,45.441L399.36,45.466L400.7,45.461L402.04,45.466L403.39,45.452L404.73,45.441L406.07,45.446L407.41,45.386L408.75,45.361L410.09,45.406L411.43,45.376L412.78,45.379L414.12,45.364L415.46,45.397L416.8,45.354L418.14,45.349L419.48,45.351L420.83,45.391L422.17,45.376L423.51,45.318L424.85,45.303L426.19,45.338L427.53,45.344L428.88,45.306L430.22,45.273L431.56,45.286L432.9,45.306L434.24,45.283L435.58,45.299L436.92,45.288L438.27,45.271L439.61,45.271L440.95,45.271L442.29,45.271L443.63,45.294L444.97,45.261L446.32,45.249L447.66,45.254L449,45.253L450.34,45.228L451.68,45.254L453.02,45.256L454.37,45.22L455.71,45.226L457.05,45.251L458.39,45.231L459.73,45.226L461.07,45.244L462.41,45.211L463.76,45.215L465.1,45.225L466.44,45.22L467.78,45.19L469.12,45.223L470.46,45.206L471.81,45.211L473.15,45.213L474.49,45.213L475.83,45.186L477.17,45.198L478.51,45.191L479.86,45.21L481.2,45.208L482.54,45.19L483.88,45.206L485.22,45.175L486.56,45.191L487.91,45.186L489.25,45.173L490.59,45.186L491.93,45.18L493.27,45.188L494.61,45.2L495.95,45.176L497.3,45.205L498.64,45.176L499.98,45.195L501.32,45.18L502.66,45.18L504,45.175L505.35,45.155L506.69,45.188L508.03,45.165L509.37,45.166L510.71,45.176L512.05,45.171L513.4,45.17L514.74,45.175L516.08,45.171L517.42,45.181L518.76,45.176L520.1,45.165L521.44,45.176L522.79,45.16L524.13,45.166L525.47,45.163L526.81,45.17L528.15,45.161L529.49,45.161L530.84,45.151L532.18,45.16L533.52,45.16L534.86,45.158L536.2,45.163L537.54,45.161L538.89,45.166L540.23,45.165L541.57,45.155L542.91,45.16L544.25,45.158L545.59,45.155L546.94,45.156L548.28,45.16L549.62,45.165L550.96,45.158L552.3,45.151L553.64,45.16L554.98,45.158L556.33,45.155L557.67,45.156L559.01,45.153L561.69,45.153L563.03,45.16L564.38,45.153L565.72,45.16L568.4,45.156L569.74,45.156L571.08,45.158L572.43,45.151L573.77,45.155L575.11,45.151L576.45,45.155L577.79,45.153L579.13,45.158L581.82,45.153L583.16,45.153L584.5,45.156L585.84,45.153L588.52,45.153L589.87,45.151L591.21,45.158L592.55,45.151L593.89,45.155L596.57,45.151L597.92,45.155L599.26,45.151L601.94,45.151L605.96,45.151L607.31,45.153L608.65,45.151L611.33,45.151L612.67,45.153L614.01,45.153L619.38,45.151L620.72,45.155L622.06,45.151L627.43,45.151L630.11,45.151L635.48,45.151L650.24,45.151L666.34,45.151L669.02,45.151L679.75,45.151L681.09,45.151L682.44,45.151L687.8,45.151L698.53,45.151L720,45.151" style="fill:none;stroke:#0000FF" />
</g>
</svg>
