<?xml version="1.0"?>
<!-- Generated by SVGo and Plotinum VG -->
<svg width="720pt" height="432pt" viewBox="0 0 720 432"
	xmlns="http://www.w3.org/2000/svg"
	xmlns:xlink="http://www.w3.org/1999/xlink">
<g transform="scale(1, -1) translate(0, -432)">
<path d="M0,0L720,0L720,432L0,432Z" style="fill:#FFFFFF" />
<text x="358.5" y="-420.45" transform="scale(1, -1)"
	style="font-family:Times;font-weight:normal;font-style:normal;font-size:12px"> </text>
<text x="376.81" y="-3.8613" transform="scale(1, -1)"
	style="font-family:Times;font-weight:normal;font-style:normal;font-size:12px">Costs</text>
<text x="57.805" y="-18.634" transform="scale(1, -1)"
	style="font-family:Times;font-weight:normal;font-style:normal;font-size:10px">0</text>
<text x="376.18" y="-18.634" transform="scale(1, -1)"
	style="font-family:Times;font-weight:normal;font-style:normal;font-size:10px">300</text>
<text x="699.56" y="-18.634" transform="scale(1, -1)"
	style="font-family:Times;font-weight:normal;font-style:normal;font-size:10px">600</text>
<path d="M60.305,28.263L60.305,36.263" style="fill:none;stroke:#000000;stroke-width:0.5" />
<path d="M383.68,28.263L383.68,36.263" style="fill:none;stroke:#000000;stroke-width:0.5" />
<path d="M707.06,28.263L707.06,36.263" style="fill:none;stroke:#000000;stroke-width:0.5" />
<path d="M168.1,32.263L168.1,36.263" style="fill:none;stroke:#000000;stroke-width:0.5" />
<path d="M275.89,32.263L275.89,36.263" style="fill:none;stroke:#000000;stroke-width:0.5" />
<path d="M491.48,32.263L491.48,36.263" style="fill:none;stroke:#000000;stroke-width:0.5" />
<path d="M599.27,32.263L599.27,36.263" style="fill:none;stroke:#000000;stroke-width:0.5" />
<path d="M60.305,36.263L720,36.263" style="fill:none;stroke:#000000;stroke-width:0.5" />
<g transform="rotate(90)">
<text x="152.55" y="11.555" transform="scale(1, -1)"
	style="font-family:Times;font-weight:normal;font-style:normal;font-size:12px">Number of trials (1000000 total)</text>
</g>
<text x="24.055" y="-91.31" transform="scale(1, -1)"
	style="font-family:Times;font-weight:normal;font-style:normal;font-size:10px">5000</text>
<text x="19.055" y="-239.43" transform="scale(1, -1)"
	style="font-family:Times;font-weight:normal;font-style:normal;font-size:10px">20000</text>
<text x="19.055" y="-387.56" transform="scale(1, -1)"
	style="font-family:Times;font-weight:normal;font-style:normal;font-size:10px">35000</text>
<path d="M46.555,94.516L54.555,94.516" style="fill:none;stroke:#000000;stroke-width:0.5" />
<path d="M46.555,242.64L54.555,242.64" style="fill:none;stroke:#000000;stroke-width:0.5" />
<path d="M46.555,390.76L54.555,390.76" style="fill:none;stroke:#000000;stroke-width:0.5" />
<path d="M50.555,168.58L54.555,168.58" style="fill:none;stroke:#000000;stroke-width:0.5" />
<path d="M50.555,316.7L54.555,316.7" style="fill:none;stroke:#000000;stroke-width:0.5" />
<path d="M54.555,45.151L54.555,416.58" style="fill:none;stroke:#000000;stroke-width:0.5" />
<path d="M60.305,416.58L84.019,52.498L85.097,52.014L86.175,59.411L88.331,74.638L89.409,91.721L90.487,63.39L91.565,98.999L92.643,48.578L93.721,51.461L94.799,79.15L95.876,77.511L96.954,143.11L98.032,105.55L99.11,54.888L100.19,62.916L101.27,66.185L102.34,100.68L103.42,89.855L104.5,123.31L105.58,150.75L106.66,139.92L107.73,92.709L108.81,74.588L109.89,71.033L110.97,45.438L112.05,45.645L113.12,61.03L114.2,65.069L115.28,61.899L116.36,47.225L117.44,165.27L118.51,69.7L119.59,63.775L120.67,98.081L121.75,63.844L122.82,54.967L123.9,89.292L124.98,59.114L126.06,91.385L127.14,76.632L128.21,99.759L129.29,64.615L130.37,66.57L131.45,75.586L132.53,91.988L133.6,90.467L134.68,93.518L135.76,87.139L136.84,87.189L137.92,84.789L138.99,91.998L140.07,96.412L141.15,98.871L142.23,108.52L143.31,112.6L144.38,93.36L145.46,94.782L146.54,102.43L147.62,112.48L148.7,106.62L149.77,106.92L150.85,105.84L151.93,117.92L153.01,99.285L154.08,109.43L155.16,102.3L156.24,83.614L157.32,89.213L158.4,85.352L159.47,91.435L160.55,93.667L161.63,99.354L162.71,114.78L163.79,111.06L164.86,101.46L165.94,99.137L167.02,93.538L168.1,88.058L169.18,90.497L170.25,97.162L171.33,93.548L172.41,94.575L173.49,92.284L174.57,102.33L175.64,92.679L176.72,92.245L177.8,100.64L178.88,97.419L179.96,90.832L181.03,100.97L182.11,93.647L183.19,98.713L184.27,101.31L185.34,103.85L186.42,98.209L187.5,97.834L188.58,99.631L189.66,103.73L190.73,97.834L191.81,103.15L192.89,102.74L193.97,103.27L195.05,100.08L196.12,99.562L197.2,101.45L198.28,99.068L199.36,100.75L200.44,104.12L201.51,97.221L202.59,95.849L203.67,94.091L204.75,99.572L205.83,96.58L206.9,98.851L207.98,100.74L209.06,100.45L210.14,96.876L211.22,96.994L212.29,94.881L213.37,93.39L214.45,92.521L215.53,93.627L216.61,90.329L217.68,92.896L218.76,91.701L219.84,94.289L220.92,92.561L221.99,91.82L223.07,91.731L224.15,89.628L225.23,88.68L226.31,90.487L227.38,91.089L228.46,89.726L229.54,91.672L230.62,90.793L231.7,89.726L232.77,89.154L233.85,89.934L234.93,89.065L236.01,88.225L237.09,87.613L238.16,86.833L239.24,87.119L240.32,85.421L241.4,88.058L242.48,87.11L243.55,85.855L244.63,85.796L245.71,85.984L246.79,85.105L247.87,82.962L248.94,83.229L250.02,84.74L251.1,84.829L252.18,83.831L253.25,83.239L254.33,81.145L255.41,82.004L256.49,81.264L257.57,82.35L258.64,79.921L259.72,79.782L260.8,79.545L261.88,79.447L262.96,79.269L264.03,77.304L265.11,78.746L266.19,77.798L267.27,77.126L268.35,78.005L269.42,76.089L270.5,76.632L271.58,75.605L272.66,75.675L273.74,75.349L274.81,74.509L275.89,74.075L276.97,74.559L278.05,73.423L279.13,73.532L280.2,72.06L281.28,72.692L282.36,72.485L283.44,71.774L284.51,70.806L285.59,71.112L286.67,70.796L287.75,71.428L288.83,70.233L289.9,69.325L290.98,69.039L292.06,68.249L293.14,68.328L294.22,68.584L295.29,67.755L296.37,68.18L297.45,67.024L298.53,67.192L299.61,66.609L300.68,66.935L301.76,65.958L302.84,65.711L303.92,66.313L305,65.257L306.07,65.217L307.15,64.664L308.23,63.775L309.31,63.38L310.39,63.331L311.46,64.062L312.54,63.183L313.62,62.442L314.7,61.336L315.77,61.544L316.85,61.356L317.93,62.027L319.01,61.168L320.09,60.882L321.16,60.704L322.24,60.724L323.32,60.092L324.4,60.22L325.48,59.46L326.55,59.085L327.63,59.598L328.71,59.164L329.79,59.026L330.87,58.68L331.94,58.394L333.02,58.087L334.1,58.492L335.18,57.989L336.26,57.989L337.33,56.695L338.41,57.455L339.49,56.132L340.57,56.675L341.65,55.846L342.72,56.744L343.8,55.688L344.88,55.905L345.96,55.885L347.04,55.036L348.11,54.335L349.19,54.908L350.27,54.523L351.35,54.542L352.42,53.841L353.5,54.216L354.58,53.782L355.66,53.644L356.74,53.703L357.81,53.328L358.89,53.515L359.97,52.913L361.05,53.219L362.13,52.775L363.2,52.508L364.28,52.637L365.36,52.291L366.44,51.748L367.52,51.906L368.59,52.074L369.67,52.014L370.75,51.649L371.83,51.54L372.91,51.501L373.98,50.928L375.06,50.82L376.14,51.145L377.22,50.928L378.3,50.81L379.37,50.306L380.45,50.652L381.53,50.276L382.61,50.355L383.68,50.346L384.76,50.138L385.84,49.98L386.92,49.664L388,49.763L389.07,49.546L390.15,49.546L391.23,49.378L392.31,49.151L393.39,49.22L394.46,49.111L395.54,49.151L396.62,49.003L397.7,48.864L398.78,48.746L399.85,48.766L400.93,48.499L402.01,48.292L403.09,48.183L404.17,48.43L405.24,48.529L406.32,48.222L407.4,48.094L408.48,48.055L409.56,47.679L410.63,47.966L411.71,47.65L412.79,47.61L413.87,47.926L414.94,47.699L416.02,47.353L417.1,47.393L418.18,47.551L419.26,47.314L420.33,47.225L421.41,47.314L422.49,47.324L423.57,47.097L424.65,47.235L425.72,47.087L426.8,47.136L427.88,47.126L428.96,47.215L430.04,46.988L431.11,47.018L432.19,46.949L433.27,46.84L434.35,46.524L435.43,46.652L436.5,46.642L437.58,46.642L438.66,46.544L439.74,46.494L440.82,46.396L441.89,46.484L442.97,46.544L444.05,46.494L445.13,46.346L446.2,46.514L447.28,46.366L448.36,46.228L449.44,46.228L450.52,46.129L451.59,46.07L452.67,46.119L453.75,46.04L454.83,46.001L455.91,46.03L456.98,46.03L458.06,45.991L459.14,46.149L460.22,46.07L461.3,45.862L462.37,46.06L463.45,45.981L464.53,45.902L465.61,45.793L466.69,45.852L467.76,45.922L468.84,45.773L469.92,45.803L471,45.872L472.08,45.773L473.15,45.714L474.23,45.635L475.31,45.576L476.39,45.685L477.46,45.635L478.54,45.655L479.62,45.586L480.7,45.685L481.78,45.606L482.85,45.655L483.93,45.527L485.01,45.625L486.09,45.556L487.17,45.497L488.24,45.635L489.32,45.536L490.4,45.497L491.48,45.566L492.56,45.517L493.63,45.527L494.71,45.477L495.79,45.359L496.87,45.457L497.95,45.507L499.02,45.497L500.1,45.428L501.18,45.428L502.26,45.467L503.34,45.378L504.41,45.319L505.49,45.339L506.57,45.448L507.65,45.339L508.73,45.388L509.8,45.359L510.88,45.339L511.96,45.28L513.04,45.359L514.11,45.329L515.19,45.359L516.27,45.369L517.35,45.27L518.43,45.349L519.5,45.26L520.58,45.329L521.66,45.22L522.74,45.339L523.82,45.309L524.89,45.319L525.97,45.309L527.05,45.28L528.13,45.25L529.21,45.299L530.28,45.329L531.36,45.23L532.44,45.25L533.52,45.23L534.6,45.24L535.67,45.24L536.75,45.201L537.83,45.24L538.91,45.25L539.99,45.299L541.06,45.22L542.14,45.27L543.22,45.23L544.3,45.171L545.37,45.171L546.45,45.24L547.53,45.26L548.61,45.26L549.69,45.181L550.76,45.24L551.84,45.181L552.92,45.171L554,45.191L555.08,45.201L556.15,45.181L557.23,45.25L558.31,45.211L559.39,45.181L560.47,45.181L561.54,45.171L562.62,45.181L563.7,45.161L564.78,45.211L565.86,45.171L566.93,45.201L568.01,45.181L569.09,45.161L570.17,45.161L571.25,45.181L572.32,45.191L573.4,45.191L574.48,45.171L575.56,45.191L576.63,45.171L577.71,45.171L579.87,45.171L580.95,45.151L582.02,45.161L583.1,45.161L584.18,45.191L585.26,45.151L586.34,45.181L588.49,45.171L589.57,45.151L590.65,45.171L591.73,45.151L592.8,45.161L593.88,45.201L594.96,45.151L596.04,45.161L597.12,45.191L598.19,45.151L599.27,45.161L600.35,45.151L601.43,45.171L602.51,45.151L604.66,45.161L606.82,45.151L607.89,45.151L608.97,45.181L611.13,45.151L613.28,45.161L615.44,45.171L616.52,45.151L620.83,45.151L621.91,45.151L627.3,45.161L632.69,45.151L642.39,45.151L643.47,45.151L648.86,45.151L653.17,45.151L662.87,45.151L690.9,45.151L720,45.151" style="fill:none;stroke:#0000FF" />
</g>
</svg>
