<?xml version="1.0"?>
<!-- Generated by SVGo and Plotinum VG -->
<svg width="720pt" height="432pt" viewBox="0 0 720 432"
	xmlns="http://www.w3.org/2000/svg"
	xmlns:xlink="http://www.w3.org/1999/xlink">
<g transform="scale(1, -1) translate(0, -432)">
<path d="M0,0L720,0L720,432L0,432Z" style="fill:#FFFFFF" />
<text x="358.5" y="-420.45" transform="scale(1, -1)"
	style="font-family:Times;font-weight:normal;font-style:normal;font-size:12px"> </text>
<text x="383.06" y="-3.8613" transform="scale(1, -1)"
	style="font-family:Times;font-weight:normal;font-style:normal;font-size:12px">Costs</text>
<text x="70.305" y="-18.634" transform="scale(1, -1)"
	style="font-family:Times;font-weight:normal;font-style:normal;font-size:10px">0</text>
<text x="363.09" y="-18.634" transform="scale(1, -1)"
	style="font-family:Times;font-weight:normal;font-style:normal;font-size:10px">300</text>
<text x="660.88" y="-18.634" transform="scale(1, -1)"
	style="font-family:Times;font-weight:normal;font-style:normal;font-size:10px">600</text>
<path d="M72.805,28.263L72.805,36.263" style="fill:none;stroke:#000000;stroke-width:0.5" />
<path d="M370.59,28.263L370.59,36.263" style="fill:none;stroke:#000000;stroke-width:0.5" />
<path d="M668.38,28.263L668.38,36.263" style="fill:none;stroke:#000000;stroke-width:0.5" />
<path d="M172.07,32.263L172.07,36.263" style="fill:none;stroke:#000000;stroke-width:0.5" />
<path d="M271.33,32.263L271.33,36.263" style="fill:none;stroke:#000000;stroke-width:0.5" />
<path d="M469.86,32.263L469.86,36.263" style="fill:none;stroke:#000000;stroke-width:0.5" />
<path d="M569.12,32.263L569.12,36.263" style="fill:none;stroke:#000000;stroke-width:0.5" />
<path d="M72.805,36.263L720,36.263" style="fill:none;stroke:#000000;stroke-width:0.5" />
<g transform="rotate(90)">
<text x="152.55" y="11.555" transform="scale(1, -1)"
	style="font-family:Times;font-weight:normal;font-style:normal;font-size:12px">Number of trials (1000000 total)</text>
</g>
<text x="24.055" y="-69.079" transform="scale(1, -1)"
	style="font-family:Times;font-weight:normal;font-style:normal;font-size:10px">2500.00</text>
<text x="19.055" y="-177.65" transform="scale(1, -1)"
	style="font-family:Times;font-weight:normal;font-style:normal;font-size:10px">12500.00</text>
<text x="19.055" y="-286.23" transform="scale(1, -1)"
	style="font-family:Times;font-weight:normal;font-style:normal;font-size:10px">22500.00</text>
<text x="19.055" y="-394.8" transform="scale(1, -1)"
	style="font-family:Times;font-weight:normal;font-style:normal;font-size:10px">32500.00</text>
<path d="M59.055,72.284L67.055,72.284" style="fill:none;stroke:#000000;stroke-width:0.5" />
<path d="M59.055,180.86L67.055,180.86" style="fill:none;stroke:#000000;stroke-width:0.5" />
<path d="M59.055,289.43L67.055,289.43" style="fill:none;stroke:#000000;stroke-width:0.5" />
<path d="M59.055,398.01L67.055,398.01" style="fill:none;stroke:#000000;stroke-width:0.5" />
<path d="M63.055,126.57L67.055,126.57" style="fill:none;stroke:#000000;stroke-width:0.5" />
<path d="M63.055,235.15L67.055,235.15" style="fill:none;stroke:#000000;stroke-width:0.5" />
<path d="M63.055,343.72L67.055,343.72" style="fill:none;stroke:#000000;stroke-width:0.5" />
<path d="M67.055,45.151L67.055,416.58" style="fill:none;stroke:#000000;stroke-width:0.5" />
<path d="M72.805,416.58L94.643,76.79L95.635,77.669L98.613,67.735L99.606,48.387L100.6,88.853L101.59,90.611L104.57,72.566L105.56,60.873L106.55,144.78L107.55,122.22L108.54,48.267L109.53,92.848L110.52,89.841L111.52,99.015L112.51,109.98L113.5,78.462L114.5,86.258L115.49,112.28L116.48,101.96L117.47,63.099L118.47,112.52L120.45,50.71L121.44,79.711L122.44,72.089L123.43,56.117L124.42,49.82L125.41,147.92L126.41,67.626L127.4,78.201L128.39,83.37L129.38,97.148L130.38,54.467L131.37,104.95L132.36,67.496L133.36,107.79L134.35,84.835L135.34,104.72L136.33,62.686L137.33,64.651L138.32,77.007L139.31,100.11L140.3,80.188L141.3,88.255L142.29,68.43L143.28,84.216L144.27,94.889L145.27,87.3L146.26,117.68L147.25,96.985L148.24,89.157L149.24,99.667L150.23,102.93L151.22,94.802L152.22,96.203L153.21,109.63L154.2,94.716L155.19,100.88L156.19,99.058L157.18,96.594L158.17,89.005L159.16,107.03L160.16,104.96L161.15,98.765L162.14,104.52L163.13,98.754L164.13,94.694L165.12,104.56L166.11,97.636L167.1,106.59L168.1,114.64L169.09,106.85L170.08,96.073L171.08,109.66L172.07,98.472L173.06,102.29L174.05,109.58L175.05,103.8L176.04,90.123L177.03,98.016L178.02,102.78L179.02,99.612L180.01,101.1L181,104.03L181.99,97.973L182.99,93.966L183.98,105.44L184.97,98.331L185.96,105.54L186.96,100.54L187.95,108.27L188.94,100.48L189.94,102.97L190.93,96.073L191.92,111.32L192.91,94.911L193.91,102.02L194.9,100.74L195.89,103.74L196.88,98.874L197.88,97.832L198.87,104.74L199.86,101.73L200.85,100.39L201.85,106.56L202.84,103.44L203.83,97.669L204.82,105.45L205.82,104.47L206.81,101.27L207.8,105.03L208.8,104.58L209.79,101.46L210.78,101.7L211.77,102.29L212.77,101.44L213.76,101.21L214.75,101.91L215.74,99.569L216.74,99.015L217.73,100.99L218.72,98.863L219.71,98.917L220.71,98.07L221.7,97.354L222.69,96.909L223.68,99.971L224.68,94.694L225.67,97.245L226.66,98.168L227.66,96.529L228.65,93.38L229.64,97.484L230.63,94.412L231.63,93.456L232.62,92.501L233.61,94.976L234.6,92.338L235.6,93.239L236.59,91.513L237.58,91.328L238.57,92.511L239.57,91.762L240.56,93.185L241.55,90.948L242.54,90.546L243.54,90.329L244.53,92.327L245.52,89.113L246.52,88.092L247.51,89.678L248.5,90.264L249.49,88.038L250.49,88.82L251.48,89.124L252.47,87.007L253.46,84.966L254.46,87.322L255.45,86.887L256.44,85.378L257.43,85.943L258.43,86.019L259.42,85.541L260.41,83.934L261.4,84.662L262.4,82.892L263.39,82.305L264.38,82.371L265.38,81.86L266.37,82.599L267.36,80.557L268.35,81.795L269.35,81.252L270.34,80.775L271.33,79.819L272.32,80.405L273.32,79.906L274.31,78.049L275.3,78.288L276.29,78.386L277.29,77.344L278.28,78.158L279.27,77.431L280.26,76.562L281.26,76.518L282.25,75.748L283.24,74.466L284.24,76.117L285.23,73.848L286.22,74.097L287.21,74.564L288.21,74.206L289.2,72.371L290.19,72.534L291.18,72.99L292.18,72.469L293.17,70.829L294.16,70.992L295.15,70.21L296.15,71.046L297.14,70.08L298.13,69.548L299.12,68.56L300.12,69.049L301.11,68.929L302.1,67.67L303.1,68.734L304.09,68.213L305.08,66.769L306.07,66.508L307.07,67.203L308.06,66.291L309.05,65.542L310.04,65.932L311.04,64.782L312.03,64.814L313.02,65.846L314.01,65.01L315.01,63.967L316,63.772L316.99,63.207L317.98,63.37L318.98,62.947L319.97,62.74L320.96,61.915L321.96,62.035L322.95,62.23L323.94,61.448L324.93,61.188L325.93,60.569L326.92,60.71L327.91,60.884L328.9,60.297L329.9,59.233L330.89,59.657L331.88,59.494L332.87,59.277L333.87,58.723L334.86,58.984L335.85,58.387L336.84,57.941L337.84,58.321L338.83,57.855L339.82,57.518L340.82,57.42L341.81,57.149L342.8,57.192L343.79,57.105L344.79,56.139L345.78,56.28L346.77,56.411L347.76,55.488L348.76,55.64L349.75,55.368L350.74,55.292L351.73,55.357L352.73,55.26L353.72,54.456L354.71,54.304L355.7,54.586L356.7,54.619L357.69,53.859L358.68,53.935L359.68,53.132L360.67,53.837L361.66,53.457L362.65,53.045L363.65,52.98L364.64,52.784L365.63,52.828L366.62,52.556L367.62,52.773L368.61,52.567L369.6,52.556L370.59,51.481L371.59,52.1L372.58,51.709L373.57,51.34L374.56,51.546L375.56,51.373L376.55,51.177L377.54,51.318L378.53,51.286L379.53,50.363L380.52,50.178L381.51,50.309L382.51,50.624L383.5,50.45L384.49,50.211L385.48,50.352L386.48,49.744L387.47,50.081L388.46,49.581L389.45,49.668L390.45,49.646L391.44,49.31L392.43,49.483L393.42,49.179L394.42,49.125L395.41,49.255L396.4,48.539L397.39,49.288L398.39,48.615L399.38,48.517L400.37,48.723L401.37,48.409L402.36,48.68L403.35,48.452L404.34,48.561L405.34,47.996L406.33,48.333L407.32,47.822L408.31,48.224L409.31,48.029L410.3,48.105L411.29,47.974L412.28,47.942L413.28,47.887L414.27,47.573L415.26,47.258L416.25,47.703L417.25,47.627L418.24,47.279L419.23,47.279L420.23,47.377L421.22,47.203L422.21,47.41L423.2,47.551L424.2,47.171L425.19,47.041L426.18,47.041L427.17,46.921L428.17,46.867L429.16,46.769L430.15,46.899L431.14,46.91L432.14,46.682L433.13,46.737L434.12,46.715L435.11,46.715L436.11,46.606L437.1,46.476L438.09,46.585L439.09,46.346L440.08,46.454L441.07,46.226L442.06,46.367L443.06,46.476L444.05,46.27L445.04,46.291L446.03,46.281L447.03,46.194L448.02,46.226L449.01,46.324L450,46.215L451,46.15L451.99,46.009L452.98,46.009L453.97,46.042L454.97,46.215L455.96,46.107L456.95,46.031L457.95,45.922L458.94,45.955L459.93,46.042L460.92,45.727L461.92,45.825L462.91,45.77L463.9,45.835L464.89,45.716L465.89,45.77L466.88,45.792L467.87,45.803L468.86,45.749L469.86,45.857L470.85,45.727L471.84,45.64L472.83,45.618L473.83,45.683L474.82,45.618L475.81,45.683L476.81,45.662L477.8,45.716L478.79,45.553L479.78,45.575L480.78,45.586L481.77,45.553L482.76,45.488L483.75,45.521L484.75,45.575L485.74,45.445L486.73,45.477L487.72,45.455L488.72,45.64L489.71,45.575L490.7,45.521L491.69,45.521L492.69,45.51L493.68,45.455L494.67,45.423L495.67,45.445L496.66,45.347L497.65,45.314L498.64,45.412L499.64,45.379L500.63,45.455L501.62,45.423L502.61,45.379L503.61,45.358L504.6,45.303L505.59,45.423L506.58,45.379L507.58,45.336L508.57,45.249L509.56,45.336L510.55,45.314L511.55,45.369L512.54,45.379L513.53,45.26L514.53,45.238L515.52,45.249L516.51,45.271L517.5,45.249L518.5,45.271L519.49,45.282L520.48,45.195L521.47,45.26L522.47,45.238L523.46,45.271L524.45,45.293L525.44,45.293L526.44,45.249L527.43,45.162L528.42,45.238L529.41,45.195L530.41,45.238L531.4,45.195L532.39,45.249L533.39,45.217L534.38,45.206L535.37,45.238L536.36,45.173L537.36,45.206L538.35,45.238L539.34,45.162L540.33,45.217L541.33,45.184L542.32,45.217L543.31,45.293L544.3,45.195L545.3,45.206L546.29,45.184L547.28,45.217L548.27,45.217L549.27,45.249L550.26,45.184L551.25,45.184L552.25,45.173L553.24,45.206L554.23,45.206L555.22,45.184L556.22,45.162L557.21,45.195L558.2,45.195L559.19,45.162L560.19,45.217L561.18,45.195L562.17,45.151L563.16,45.173L564.16,45.195L565.15,45.151L566.14,45.162L567.13,45.151L568.13,45.162L569.12,45.151L570.11,45.151L571.11,45.173L572.1,45.151L573.09,45.151L574.08,45.151L575.08,45.162L577.06,45.151L578.05,45.195L579.05,45.162L580.04,45.173L581.03,45.162L582.02,45.162L583.02,45.151L584.01,45.162L585,45.162L585.99,45.151L586.99,45.173L588.97,45.184L589.97,45.151L590.96,45.173L592.94,45.184L593.94,45.151L594.93,45.173L595.92,45.162L597.91,45.162L598.9,45.151L601.88,45.162L603.86,45.162L606.84,45.151L607.83,45.151L612.8,45.162L614.78,45.151L616.77,45.151L624.71,45.151L627.69,45.151L631.66,45.151L635.63,45.151L648.53,45.151L649.52,45.151L686.25,45.151L720,45.151" style="fill:none;stroke:#0000FF" />
</g>
</svg>
