<?xml version="1.0"?>
<!-- Generated by SVGo and Plotinum VG -->
<svg width="720pt" height="432pt" viewBox="0 0 720 432"
	xmlns="http://www.w3.org/2000/svg"
	xmlns:xlink="http://www.w3.org/1999/xlink">
<g transform="scale(1, -1) translate(0, -432)">
<path d="M0,0L720,0L720,432L0,432Z" style="fill:#FFFFFF" />
<text x="358.5" y="-420.45" transform="scale(1, -1)"
	style="font-family:Times;font-weight:normal;font-style:normal;font-size:12px"> </text>
<text x="376.81" y="-3.8613" transform="scale(1, -1)"
	style="font-family:Times;font-weight:normal;font-style:normal;font-size:12px">Costs</text>
<text x="57.805" y="-18.634" transform="scale(1, -1)"
	style="font-family:Times;font-weight:normal;font-style:normal;font-size:10px">0</text>
<text x="332.73" y="-18.634" transform="scale(1, -1)"
	style="font-family:Times;font-weight:normal;font-style:normal;font-size:10px">300</text>
<text x="612.66" y="-18.634" transform="scale(1, -1)"
	style="font-family:Times;font-weight:normal;font-style:normal;font-size:10px">600</text>
<path d="M60.305,28.263L60.305,36.263" style="fill:none;stroke:#000000;stroke-width:0.5" />
<path d="M340.23,28.263L340.23,36.263" style="fill:none;stroke:#000000;stroke-width:0.5" />
<path d="M620.16,28.263L620.16,36.263" style="fill:none;stroke:#000000;stroke-width:0.5" />
<path d="M153.61,32.263L153.61,36.263" style="fill:none;stroke:#000000;stroke-width:0.5" />
<path d="M246.92,32.263L246.92,36.263" style="fill:none;stroke:#000000;stroke-width:0.5" />
<path d="M433.54,32.263L433.54,36.263" style="fill:none;stroke:#000000;stroke-width:0.5" />
<path d="M526.85,32.263L526.85,36.263" style="fill:none;stroke:#000000;stroke-width:0.5" />
<path d="M713.47,32.263L713.47,36.263" style="fill:none;stroke:#000000;stroke-width:0.5" />
<path d="M60.305,36.263L720,36.263" style="fill:none;stroke:#000000;stroke-width:0.5" />
<g transform="rotate(90)">
<text x="152.55" y="11.555" transform="scale(1, -1)"
	style="font-family:Times;font-weight:normal;font-style:normal;font-size:12px">Number of trials (1000000 total)</text>
</g>
<text x="24.055" y="-109.78" transform="scale(1, -1)"
	style="font-family:Times;font-weight:normal;font-style:normal;font-size:10px">5000</text>
<text x="19.055" y="-245.48" transform="scale(1, -1)"
	style="font-family:Times;font-weight:normal;font-style:normal;font-size:10px">15000</text>
<text x="19.055" y="-381.18" transform="scale(1, -1)"
	style="font-family:Times;font-weight:normal;font-style:normal;font-size:10px">25000</text>
<path d="M46.555,112.99L54.555,112.99" style="fill:none;stroke:#000000;stroke-width:0.5" />
<path d="M46.555,248.68L54.555,248.68" style="fill:none;stroke:#000000;stroke-width:0.5" />
<path d="M46.555,384.38L54.555,384.38" style="fill:none;stroke:#000000;stroke-width:0.5" />
<path d="M50.555,180.84L54.555,180.84" style="fill:none;stroke:#000000;stroke-width:0.5" />
<path d="M50.555,316.53L54.555,316.53" style="fill:none;stroke:#000000;stroke-width:0.5" />
<path d="M54.555,45.151L54.555,416.58" style="fill:none;stroke:#000000;stroke-width:0.5" />
<path d="M60.305,416.58L80.833,52.71L85.498,58.762L86.431,68.858L87.364,73.078L89.231,144.13L90.164,51.597L91.097,82.455L92.03,91.899L93.896,55.261L94.829,97.232L97.628,139.91L98.561,79.022L99.495,129.3L100.43,88.873L101.36,78.343L102.29,110.48L103.23,55.261L106.03,109.64L106.96,59.345L107.89,82.618L109.76,96.839L110.69,52.14L111.62,46.535L112.56,131.24L113.49,114.02L114.42,49.195L115.36,115.05L116.29,54.121L117.22,100.12L118.16,110.38L119.09,101.38L120.02,59.25L120.96,63.525L121.89,49.942L122.82,67.27L123.75,67.637L124.69,59.902L125.62,60.757L126.55,87.896L127.49,64.285L128.42,186.66L129.35,79.171L130.29,68.899L131.22,81.573L132.15,142.27L133.09,72.074L134.02,71.273L134.95,106.41L135.89,74.001L136.82,97.097L137.75,79.917L138.68,92.415L139.62,95.332L140.55,83.554L141.48,100.98L142.42,87.055L143.35,85.182L144.28,105.77L145.22,92.605L146.15,87.041L147.08,113.24L148.02,98.426L148.95,83.988L149.88,103.26L150.81,88.222L151.75,95.265L152.68,106.8L153.61,91.004L154.55,105.65L155.48,108.77L156.41,90.529L157.35,124.67L158.28,101.94L159.21,105.24L160.15,100.96L161.08,103.92L162.01,82.685L162.94,110.56L163.88,90.081L164.81,92.985L165.74,116.6L166.68,98.82L167.61,111.44L168.54,104.72L169.48,111.3L170.41,117.38L171.34,108.26L172.28,105.63L173.21,90.732L174.14,120.07L175.07,92.266L176.01,101.19L176.94,90.719L177.87,108.07L178.81,92.157L179.74,89.715L180.67,109.68L181.61,119.32L182.54,87.557L183.47,105.39L184.41,109.54L185.34,115.12L186.27,108.44L187.21,123.72L188.14,97.734L189.07,104.78L190,107.67L190.94,102.71L191.87,103.94L192.8,100.69L193.74,97.843L194.67,109.11L195.6,96.974L196.54,106.01L197.47,105.05L198.4,105.02L199.34,103.5L200.27,122.96L201.2,100.16L202.13,102.35L203.07,112.24L204,98.209L204.93,108.36L205.87,99.648L206.8,109.62L207.73,105.56L208.67,105.46L209.6,106.5L210.53,106.01L211.47,104.83L212.4,108.66L213.33,107.44L214.26,102.93L215.2,106.98L216.13,107.64L217.06,98.793L218,104.78L218.93,105.88L219.86,104.09L220.8,103.3L221.73,103.9L222.66,101.75L223.6,106.19L224.53,103.61L225.46,103.12L226.39,105.44L227.33,106.03L228.26,99.526L229.19,106.24L230.13,97.585L231.06,102.5L231.99,98.331L232.93,98.331L233.86,99.078L234.79,98.508L235.73,95.916L236.66,99.146L237.59,101.14L238.53,98.698L239.46,101.07L240.39,101.4L241.32,95.292L242.26,101.18L243.19,96.852L244.12,97.558L245.06,97.354L245.99,97.572L246.92,96.147L247.86,94.735L248.79,94.45L249.72,96.662L250.66,91.899L251.59,91.791L252.52,97.056L253.45,95.495L254.39,93.053L255.32,95.97L256.25,93.121L257.19,94.505L258.12,95.075L259.05,93.989L259.99,91.139L260.92,91.112L261.85,93.012L262.79,90.99L263.72,91.682L264.65,89.755L265.58,89.728L266.52,90.895L267.45,88.344L268.38,90.705L269.32,87.611L270.25,88.425L271.18,88.127L272.12,86.526L273.05,87.041L273.98,87.978L274.92,86.743L275.85,85.481L276.78,85.725L277.71,84.599L278.65,83.513L279.58,85.087L280.51,83.649L281.45,84.816L282.38,82.821L283.31,82.658L284.25,82.699L285.18,83.622L286.11,82.088L287.05,82.672L287.98,81.152L288.91,80.094L289.85,80.867L290.78,80.609L291.71,79.944L292.64,78.954L293.58,78.045L294.51,78.804L295.44,79.334L296.38,77.312L297.31,79.836L298.24,77.339L299.18,76.986L300.11,76.973L301.04,77.61L301.98,75.996L302.91,74.598L303.84,74.978L304.77,75.412L305.71,74.869L306.64,74.041L307.57,73.431L308.51,73.336L309.44,73.58L310.37,73.729L311.31,72.535L312.24,72.25L313.17,72.562L314.11,72.386L315.04,72.372L315.97,72.427L316.9,70.635L317.84,71.368L318.77,71.273L319.7,70.093L320.64,70.703L321.57,69.265L322.5,68.899L323.44,69.387L324.37,68.206L325.3,68.084L326.24,67.609L327.17,67.772L328.1,66.714L329.03,67.664L329.97,67.053L330.9,66.863L331.83,67.012L332.77,66.456L333.7,66.212L334.63,66.524L335.57,65.167L336.5,63.986L337.43,65.52L338.37,63.769L339.3,64.475L340.23,62.996L341.17,63.511L342.1,63.253L343.03,63.593L343.96,62.48L344.9,62.561L345.83,62.575L346.76,61.978L347.7,62.602L348.63,61.557L349.56,61.72L350.5,61.327L351.43,60.892L352.36,61.313L353.3,61.014L354.23,60.322L355.16,60.187L356.09,59.562L357.03,59.997L357.96,58.898L358.89,58.843L359.83,59.332L360.76,58.49L361.69,58.178L362.63,57.948L363.56,58.273L364.49,57.513L365.43,58.165L366.36,57.921L367.29,57.541L368.22,56.686L369.16,57.093L370.09,56.428L371.02,56.984L371.96,55.939L372.89,55.804L373.82,55.899L374.76,55.79L375.69,55.424L376.62,55.532L377.56,55.112L378.49,55.084L379.42,55.356L380.35,54.949L381.29,54.474L382.22,54.175L383.15,53.619L384.09,54.46L385.02,54.284L385.95,54.148L386.89,53.076L387.82,53.714L388.75,53.483L389.69,53.904L390.62,52.778L391.55,53.049L392.49,52.615L393.42,52.94L394.35,52.764L395.28,52.778L396.22,52.493L397.15,51.991L398.08,51.624L399.02,51.407L399.95,51.936L400.88,51.488L401.82,51.312L402.75,51.76L403.68,50.783L404.62,50.973L405.55,50.959L406.48,51.76L407.41,51.461L408.35,51.122L409.28,50.891L410.21,50.077L411.15,50.498L412.08,50.321L413.01,50.267L413.95,50.294L414.88,50.674L415.81,50.118L416.75,49.589L417.68,49.141L418.61,49.073L419.54,49.562L420.48,49.331L421.41,49.738L422.34,49.697L423.28,48.897L424.21,49.657L425.14,49.1L426.08,49.032L427.01,49.019L427.94,48.747L428.88,48.897L429.81,48.408L430.74,48.775L431.67,48.232L432.61,48.205L433.54,48.177L434.47,48.462L435.41,48.354L436.34,48.381L437.27,48.164L438.21,48.652L439.14,48.015L440.07,47.825L441.01,48.015L441.94,47.933L442.87,47.797L443.81,47.553L444.74,47.662L445.67,47.648L446.6,47.485L447.54,47.39L448.47,47.377L449.4,47.146L450.34,47.404L451.27,47.228L452.2,47.214L453.14,47.35L454.07,47.119L455,47.445L455.94,47.404L456.87,47.038L457.8,46.983L458.73,46.97L459.67,46.97L460.6,46.902L461.53,46.848L462.47,46.943L463.4,46.997L464.33,46.698L465.27,46.78L466.2,46.522L467.13,46.753L468.07,46.725L469,46.576L469.93,46.563L470.86,46.535L471.8,46.563L472.73,46.251L473.66,46.305L474.6,46.264L475.53,46.346L476.46,46.481L477.4,46.386L478.33,46.413L479.26,46.318L480.2,46.332L481.13,46.332L482.06,45.993L482.99,46.386L483.93,45.979L484.86,46.061L485.79,46.183L486.73,46.006L487.66,46.101L488.59,45.952L489.53,45.911L490.46,45.993L491.39,46.115L492.33,45.871L493.26,45.776L494.19,45.776L495.13,45.871L496.06,45.721L496.99,45.857L497.92,45.83L498.86,45.871L499.79,45.708L500.72,45.857L501.66,45.613L502.59,45.626L503.52,45.694L504.46,45.789L505.39,45.531L506.32,45.545L507.26,45.436L508.19,45.667L509.12,45.653L510.05,45.694L510.99,45.708L511.92,45.626L512.85,45.721L513.79,45.545L514.72,45.613L515.65,45.545L516.59,45.545L517.52,45.64L518.45,45.64L519.39,45.599L520.32,45.491L521.25,45.518L522.18,45.45L523.12,45.626L524.05,45.491L524.98,45.45L525.92,45.518L526.85,45.382L527.78,45.396L528.72,45.477L529.65,45.355L530.58,45.301L531.52,45.436L532.45,45.463L533.38,45.436L534.31,45.273L535.25,45.314L536.18,45.504L537.11,45.368L538.05,45.314L538.98,45.382L539.91,45.341L540.85,45.355L541.78,45.355L542.71,45.463L543.65,45.26L544.58,45.26L545.51,45.314L546.45,45.233L547.38,45.368L548.31,45.287L549.24,45.328L550.18,45.341L551.11,45.301L552.04,45.246L552.98,45.26L553.91,45.26L554.84,45.314L555.78,45.382L556.71,45.341L557.64,45.219L558.58,45.26L559.51,45.206L560.44,45.328L561.37,45.219L562.31,45.219L563.24,45.246L564.17,45.246L565.11,45.219L566.04,45.219L566.97,45.246L567.91,45.206L568.84,45.219L569.77,45.246L570.71,45.206L571.64,45.233L572.57,45.246L573.5,45.179L574.44,45.233L575.37,45.246L576.3,45.206L577.24,45.165L578.17,45.206L579.1,45.206L580.04,45.233L580.97,45.206L581.9,45.219L582.84,45.246L583.77,45.165L584.7,45.192L585.63,45.233L586.57,45.192L587.5,45.206L588.43,45.179L589.37,45.233L590.3,45.151L591.23,45.151L592.17,45.179L593.1,45.192L594.97,45.165L595.9,45.179L596.83,45.206L597.77,45.151L598.7,45.179L599.63,45.179L600.56,45.206L602.43,45.179L603.36,45.206L604.3,45.165L605.23,45.151L606.16,45.151L607.1,45.151L608.03,45.151L608.96,45.151L609.9,45.151L610.83,45.165L611.76,45.165L612.69,45.165L613.63,45.179L614.56,45.179L615.49,45.179L616.43,45.165L617.36,45.179L619.23,45.151L620.16,45.151L622.03,45.165L624.82,45.151L626.69,45.165L628.56,45.165L630.42,45.151L631.36,45.151L635.09,45.179L636.02,45.151L637.89,45.151L639.75,45.151L641.62,45.151L642.55,45.151L643.49,45.165L644.42,45.165L645.35,45.165L646.29,45.165L648.15,45.165L655.62,45.151L656.55,45.151L660.28,45.151L665.88,45.151L667.75,45.151L678.01,45.151L679.88,45.151L720,45.151" style="fill:none;stroke:#0000FF" />
</g>
</svg>
