<?xml version="1.0"?>
<!-- Generated by SVGo and Plotinum VG -->
<svg width="720pt" height="432pt" viewBox="0 0 720 432"
	xmlns="http://www.w3.org/2000/svg"
	xmlns:xlink="http://www.w3.org/1999/xlink">
<g transform="scale(1, -1) translate(0, -432)">
<path d="M0,0L720,0L720,432L0,432Z" style="fill:#FFFFFF" />
<text x="358.5" y="-420.45" transform="scale(1, -1)"
	style="font-family:Times;font-weight:normal;font-style:normal;font-size:12px"> </text>
<text x="385.56" y="-3.8613" transform="scale(1, -1)"
	style="font-family:Times;font-weight:normal;font-style:normal;font-size:12px">Costs</text>
<text x="69.055" y="-18.634" transform="scale(1, -1)"
	style="font-family:Times;font-weight:normal;font-style:normal;font-size:10px">0.00</text>
<text x="333.43" y="-18.634" transform="scale(1, -1)"
	style="font-family:Times;font-weight:normal;font-style:normal;font-size:10px">250.00</text>
<text x="602.81" y="-18.634" transform="scale(1, -1)"
	style="font-family:Times;font-weight:normal;font-style:normal;font-size:10px">500.00</text>
<path d="M77.805,28.263L77.805,36.263" style="fill:none;stroke:#000000;stroke-width:0.5" />
<path d="M347.18,28.263L347.18,36.263" style="fill:none;stroke:#000000;stroke-width:0.5" />
<path d="M616.56,28.263L616.56,36.263" style="fill:none;stroke:#000000;stroke-width:0.5" />
<path d="M131.68,32.263L131.68,36.263" style="fill:none;stroke:#000000;stroke-width:0.5" />
<path d="M185.56,32.263L185.56,36.263" style="fill:none;stroke:#000000;stroke-width:0.5" />
<path d="M239.43,32.263L239.43,36.263" style="fill:none;stroke:#000000;stroke-width:0.5" />
<path d="M293.31,32.263L293.31,36.263" style="fill:none;stroke:#000000;stroke-width:0.5" />
<path d="M401.06,32.263L401.06,36.263" style="fill:none;stroke:#000000;stroke-width:0.5" />
<path d="M454.93,32.263L454.93,36.263" style="fill:none;stroke:#000000;stroke-width:0.5" />
<path d="M508.81,32.263L508.81,36.263" style="fill:none;stroke:#000000;stroke-width:0.5" />
<path d="M562.68,32.263L562.68,36.263" style="fill:none;stroke:#000000;stroke-width:0.5" />
<path d="M670.43,32.263L670.43,36.263" style="fill:none;stroke:#000000;stroke-width:0.5" />
<path d="M77.805,36.263L720,36.263" style="fill:none;stroke:#000000;stroke-width:0.5" />
<g transform="rotate(90)">
<text x="149.87" y="11.555" transform="scale(1, -1)"
	style="font-family:Times;font-weight:normal;font-style:normal;font-size:12px">Number of trials (1000000 total)</text>
</g>
<text x="24.055" y="-114.95" transform="scale(1, -1)"
	style="font-family:Times;font-weight:normal;font-style:normal;font-size:10px">25000.00</text>
<text x="24.055" y="-260.95" transform="scale(1, -1)"
	style="font-family:Times;font-weight:normal;font-style:normal;font-size:10px">75000.00</text>
<text x="19.055" y="-406.96" transform="scale(1, -1)"
	style="font-family:Times;font-weight:normal;font-style:normal;font-size:10px">125000.00</text>
<path d="M64.055,118.15L72.055,118.15" style="fill:none;stroke:#000000;stroke-width:0.5" />
<path d="M64.055,264.16L72.055,264.16" style="fill:none;stroke:#000000;stroke-width:0.5" />
<path d="M64.055,410.16L72.055,410.16" style="fill:none;stroke:#000000;stroke-width:0.5" />
<path d="M68.055,59.749L72.055,59.749" style="fill:none;stroke:#000000;stroke-width:0.5" />
<path d="M68.055,88.95L72.055,88.95" style="fill:none;stroke:#000000;stroke-width:0.5" />
<path d="M68.055,147.35L72.055,147.35" style="fill:none;stroke:#000000;stroke-width:0.5" />
<path d="M68.055,176.55L72.055,176.55" style="fill:none;stroke:#000000;stroke-width:0.5" />
<path d="M68.055,205.75L72.055,205.75" style="fill:none;stroke:#000000;stroke-width:0.5" />
<path d="M68.055,234.95L72.055,234.95" style="fill:none;stroke:#000000;stroke-width:0.5" />
<path d="M68.055,293.36L72.055,293.36" style="fill:none;stroke:#000000;stroke-width:0.5" />
<path d="M68.055,322.56L72.055,322.56" style="fill:none;stroke:#000000;stroke-width:0.5" />
<path d="M68.055,351.76L72.055,351.76" style="fill:none;stroke:#000000;stroke-width:0.5" />
<path d="M68.055,380.96L72.055,380.96" style="fill:none;stroke:#000000;stroke-width:0.5" />
<path d="M72.055,45.151L72.055,411.23" style="fill:none;stroke:#000000;stroke-width:0.5" />
<path d="M77.805,411.23L101.51,52.198L102.59,48.626L105.82,48.577L106.9,58.817L107.97,58.604L109.05,65.945L110.13,55.237L111.21,99.757L112.28,55.106L113.36,59.542L114.44,94.536L115.52,83.606L116.6,80.441L117.67,62.546L118.75,62.85L119.83,48.27L120.91,72.994L121.98,48.533L123.06,79.807L124.14,62.692L125.22,65.817L126.29,58.841L127.37,66.404L129.53,48.521L130.6,52.329L131.68,69.847L132.76,66.039L133.84,45.537L134.91,99.223L135.99,63.825L137.07,46.279L138.15,85.974L139.22,57.979L140.3,49.064L141.38,73.424L142.46,64.43L143.53,50.133L144.61,76.078L145.69,74.566L146.77,53.687L147.84,57.462L148.92,55.725L150,77.421L151.08,55.007L152.15,58.344L153.23,55.932L154.31,63.46L155.39,55.483L156.46,65.677L157.54,67.303L158.62,57.609L159.7,58.301L160.77,72.329L161.85,58.277L162.93,57.369L164.01,58.899L165.08,72.609L166.16,60.628L167.24,55.71L168.32,65.408L169.39,61.948L170.47,59.766L171.55,66.357L172.63,63.592L173.7,61.072L174.78,64.985L175.86,63.872L176.94,59.177L178.01,65.522L179.09,62.941L180.17,61.697L181.25,64.296L182.32,61.618L183.4,63.463L184.48,61.189L185.56,57.611L186.63,59.451L187.71,61.019L188.79,60.315L189.87,60.68L190.94,60.181L192.02,59.539L193.1,61.428L194.18,58.239L195.25,63.948L196.33,60.029L197.41,57.512L198.49,62.593L199.56,62.468L200.64,55.255L201.72,61.691L202.8,61.775L203.87,58.622L204.95,58.674L206.03,59.781L207.11,58.511L208.18,58.607L209.26,57.536L210.34,59.41L211.42,57.614L212.49,56.928L213.57,57.538L214.65,59.542L215.73,55.553L216.8,56.458L217.88,59.474L218.96,56.125L220.04,56.213L221.11,57.46L222.19,57.527L223.27,55.716L224.35,56.551L225.42,57.127L226.5,56.026L227.58,55.623L228.66,57.775L229.73,56.157L230.81,54.309L231.89,56.172L232.97,57.261L234.04,54.461L235.12,55.167L236.2,55.491L237.28,55.386L238.35,55.343L239.43,55.056L240.51,54.826L241.59,54.977L242.66,54.069L243.74,54.414L244.82,54.539L245.9,53.891L246.97,53.801L248.05,54.44L249.13,53.491L250.21,53.655L251.28,53.658L252.36,53.275L253.44,53.331L254.52,52.869L255.59,53.114L256.67,53.044L257.75,52.714L258.83,52.887L259.9,52.785L260.98,52.472L262.06,52.379L263.14,52.735L264.21,52.005L265.29,51.967L266.37,51.932L267.45,52.165L268.52,51.809L269.6,51.608L270.68,51.751L271.76,51.546L272.83,51.187L273.91,51.044L274.99,51.222L276.07,51.123L277.14,50.524L278.22,51.219L279.3,50.545L280.38,50.349L281.45,50.498L282.53,50.609L283.61,50.197L284.69,50.299L285.76,50.381L286.84,50.259L287.92,49.943L289,50.069L290.07,49.981L291.15,49.532L292.23,49.593L293.31,49.575L294.38,49.561L295.46,49.307L296.54,49.386L297.62,49.187L298.69,49.19L299.77,49.085L300.85,49.169L301.93,48.956L303,48.921L304.08,48.898L305.16,48.839L306.24,48.577L307.31,48.647L308.39,48.72L309.47,48.448L310.55,48.34L311.62,48.431L312.7,48.305L313.78,48.215L314.86,48.083L315.93,48.255L317.01,48.095L318.09,47.864L319.17,47.949L320.24,47.952L321.32,47.838L322.4,47.852L323.48,47.803L324.55,47.639L325.63,47.616L326.71,47.633L327.79,47.604L328.86,47.595L329.94,47.371L331.02,47.482L332.1,47.26L333.17,47.23L334.25,47.301L335.33,47.16L336.41,47.201L337.48,46.927L338.56,47.055L339.64,47.064L340.72,46.985L341.79,46.959L342.87,46.807L343.95,46.787L345.03,46.807L346.1,46.766L347.18,46.74L348.26,46.544L349.34,46.719L350.41,46.717L351.49,46.623L352.57,46.617L353.65,46.673L354.72,46.541L355.8,46.454L356.88,46.416L357.96,46.448L359.03,46.378L360.11,46.337L361.19,46.284L362.27,46.354L363.34,46.311L364.42,46.27L365.5,46.322L366.58,46.232L367.65,46.179L368.73,46.173L369.81,46.165L370.89,46.06L371.96,46.071L373.04,46.095L374.12,45.995L375.2,45.998L376.27,45.984L377.35,45.943L378.43,45.928L379.51,45.951L380.58,45.922L381.66,45.835L382.74,45.846L383.82,45.899L384.89,45.841L385.97,45.841L387.05,45.858L388.13,45.779L389.2,45.82L390.28,45.82L391.36,45.712L392.44,45.697L393.51,45.686L394.59,45.683L395.67,45.768L396.75,45.68L397.82,45.671L398.9,45.689L399.98,45.665L401.06,45.598L402.13,45.616L403.21,45.566L404.29,45.622L405.37,45.546L406.44,45.54L407.52,45.511L408.6,45.484L409.68,45.502L410.75,45.549L411.83,45.575L412.91,45.508L413.99,45.534L415.06,45.475L416.14,45.405L417.22,45.455L418.3,45.443L419.38,45.446L420.45,45.478L421.53,45.443L422.61,45.446L423.69,45.438L424.76,45.414L425.84,45.397L426.92,45.411L428,45.382L429.07,45.429L430.15,45.379L431.23,45.347L432.31,45.385L433.38,45.327L434.46,45.379L435.54,45.388L436.62,45.338L437.69,45.329L438.77,45.297L439.85,45.335L440.93,45.324L442,45.312L443.08,45.3L444.16,45.289L445.24,45.335L446.31,45.306L447.39,45.306L448.47,45.297L449.55,45.289L450.62,45.28L451.7,45.292L452.78,45.277L453.86,45.28L454.93,45.251L456.01,45.294L457.09,45.254L458.17,45.256L459.24,45.262L460.32,45.248L461.4,45.23L462.48,45.256L463.55,45.221L464.63,45.254L465.71,45.251L466.79,45.242L467.86,45.283L468.94,45.213L470.02,45.236L471.1,45.198L472.17,45.233L473.25,45.221L474.33,45.198L475.41,45.219L476.48,45.216L477.56,45.221L478.64,45.207L479.72,45.23L480.79,45.216L481.87,45.195L482.95,45.21L484.03,45.201L485.1,45.201L486.18,45.198L487.26,45.207L488.34,45.192L489.41,45.186L490.49,45.186L491.57,45.186L492.65,45.204L493.72,45.178L494.8,45.175L495.88,45.195L496.96,45.172L498.03,45.186L499.11,45.186L500.19,45.172L501.27,45.195L502.34,45.169L503.42,45.186L504.5,45.175L505.58,45.166L506.65,45.178L507.73,45.189L508.81,45.172L509.89,45.178L510.96,45.175L512.04,45.175L513.12,45.166L514.2,45.157L515.27,45.175L516.35,45.175L517.43,45.175L518.51,45.169L519.58,45.157L520.66,45.151L521.74,45.163L522.82,45.154L523.89,45.166L524.97,45.163L526.05,45.16L527.13,45.169L528.2,45.157L529.28,45.163L530.36,45.166L531.44,45.151L532.51,45.154L533.59,45.166L534.67,45.157L535.75,45.169L537.9,45.151L538.98,45.163L540.06,45.157L541.13,45.154L542.21,45.16L543.29,45.157L544.37,45.151L545.44,45.154L546.52,45.154L547.6,45.154L548.68,45.163L549.75,45.151L550.83,45.16L551.91,45.151L552.99,45.157L554.06,45.16L555.14,45.154L556.22,45.157L557.3,45.157L558.37,45.154L559.45,45.154L560.53,45.154L561.61,45.151L562.68,45.157L563.76,45.151L564.84,45.16L565.92,45.151L566.99,45.16L568.07,45.157L569.15,45.151L570.23,45.154L571.3,45.154L573.46,45.154L575.61,45.157L577.77,45.154L578.85,45.157L579.92,45.154L581,45.157L582.08,45.151L583.16,45.154L590.7,45.151L592.85,45.154L595.01,45.151L597.16,45.151L599.32,45.151L600.4,45.151L607.94,45.154L609.02,45.151L612.25,45.151L619.79,45.151L623.02,45.151L624.1,45.151L633.8,45.151L634.88,45.151L639.19,45.151L644.57,45.151L648.88,45.151L658.58,45.151L698.45,45.151L720,45.151" style="fill:none;stroke:#0000FF" />
</g>
</svg>
