<?xml version="1.0"?>
<!-- Generated by SVGo and Plotinum VG -->
<svg width="720pt" height="432pt" viewBox="0 0 720 432"
	xmlns="http://www.w3.org/2000/svg"
	xmlns:xlink="http://www.w3.org/1999/xlink">
<g transform="scale(1, -1) translate(0, -432)">
<path d="M0,0L720,0L720,432L0,432Z" style="fill:#FFFFFF" />
<text x="358.5" y="-420.45" transform="scale(1, -1)"
	style="font-family:Times;font-weight:normal;font-style:normal;font-size:12px"> </text>
<text x="379.31" y="-3.8613" transform="scale(1, -1)"
	style="font-family:Times;font-weight:normal;font-style:normal;font-size:12px">Costs</text>
<text x="62.805" y="-18.634" transform="scale(1, -1)"
	style="font-family:Times;font-weight:normal;font-style:normal;font-size:10px">0</text>
<text x="341.84" y="-18.634" transform="scale(1, -1)"
	style="font-family:Times;font-weight:normal;font-style:normal;font-size:10px">200</text>
<text x="625.87" y="-18.634" transform="scale(1, -1)"
	style="font-family:Times;font-weight:normal;font-style:normal;font-size:10px">400</text>
<path d="M65.305,28.263L65.305,36.263" style="fill:none;stroke:#000000;stroke-width:0.5" />
<path d="M349.34,28.263L349.34,36.263" style="fill:none;stroke:#000000;stroke-width:0.5" />
<path d="M633.37,28.263L633.37,36.263" style="fill:none;stroke:#000000;stroke-width:0.5" />
<path d="M207.32,32.263L207.32,36.263" style="fill:none;stroke:#000000;stroke-width:0.5" />
<path d="M491.35,32.263L491.35,36.263" style="fill:none;stroke:#000000;stroke-width:0.5" />
<path d="M65.305,36.263L720,36.263" style="fill:none;stroke:#000000;stroke-width:0.5" />
<g transform="rotate(90)">
<text x="152.55" y="11.555" transform="scale(1, -1)"
	style="font-family:Times;font-weight:normal;font-style:normal;font-size:12px">Number of trials (1000000 total)</text>
</g>
<text x="24.055" y="-111.72" transform="scale(1, -1)"
	style="font-family:Times;font-weight:normal;font-style:normal;font-size:10px">30000</text>
<text x="24.055" y="-251.28" transform="scale(1, -1)"
	style="font-family:Times;font-weight:normal;font-style:normal;font-size:10px">90000</text>
<text x="19.055" y="-390.84" transform="scale(1, -1)"
	style="font-family:Times;font-weight:normal;font-style:normal;font-size:10px">150000</text>
<path d="M51.555,114.93L59.555,114.93" style="fill:none;stroke:#000000;stroke-width:0.5" />
<path d="M51.555,254.49L59.555,254.49" style="fill:none;stroke:#000000;stroke-width:0.5" />
<path d="M51.555,394.05L59.555,394.05" style="fill:none;stroke:#000000;stroke-width:0.5" />
<path d="M55.555,184.71L59.555,184.71" style="fill:none;stroke:#000000;stroke-width:0.5" />
<path d="M55.555,324.27L59.555,324.27" style="fill:none;stroke:#000000;stroke-width:0.5" />
<path d="M59.555,45.151L59.555,416.58" style="fill:none;stroke:#000000;stroke-width:0.5" />
<path d="M65.305,416.58L96.548,55.679L97.968,60.075L102.23,77.222L103.65,52.139L105.07,62.324L106.49,55.323L107.91,59.612L109.33,78.229L110.75,55.939L112.17,63.141L113.59,72.963L115.01,69.609L116.43,66.164L117.85,69.725L119.27,55.425L120.69,70.03L122.11,84.472L123.53,81.679L124.95,87.352L126.37,73.203L127.79,80.662L129.21,45.561L130.63,60.21L133.47,49.408L134.89,53.553L136.31,56.365L137.73,75.445L139.15,46.668L140.57,74.301L141.99,69.072L143.41,58.082L144.83,48.038L146.25,57.244L147.67,55.96L149.09,64.657L150.51,54.209L151.93,58.354L153.35,66.948L154.77,64.704L156.2,53.176L157.62,55.49L159.04,56.214L160.46,56.63L161.88,57.714L163.3,57L164.72,58.868L166.14,58.021L167.56,59.065L168.98,73.54L170.4,59.203L171.82,60.722L173.24,60.554L174.66,73.477L176.08,58.182L177.5,61.554L178.92,63.278L180.34,62.185L181.76,60.596L183.18,60.829L184.6,62.143L186.02,61.898L187.44,59.472L188.86,57.94L190.28,58.603L191.7,56.849L193.12,58.354L194.54,57.219L195.96,57.63L197.38,60.629L198.8,60.068L200.22,60.049L201.64,58.082L203.06,58.149L204.48,55.849L205.9,57.537L207.32,55.39L208.74,56.491L210.16,55.714L211.58,57.737L213,58.372L214.42,56.76L215.84,55.572L217.26,55.446L218.68,55.742L220.1,54.379L221.52,55.251L222.94,55.03L224.36,56.058L225.78,56.43L227.2,56.207L228.62,55.756L230.04,56.7L231.46,56.449L232.88,54.018L234.3,54.983L235.72,54.418L237.14,55.474L238.56,54.125L239.98,54.411L241.4,54.437L242.83,53.381L244.25,54.155L245.67,53.916L247.09,53.948L248.51,52.602L249.93,53.727L251.35,53.204L252.77,53.157L254.19,52.492L255.61,53.269L257.03,52.978L258.45,53.246L259.87,52.297L261.29,52.322L262.71,52.636L264.13,52.085L265.55,51.715L266.97,51.42L268.39,51.639L269.81,51.345L271.23,51.464L272.65,51.413L274.07,51.415L275.49,51.322L276.91,51.043L278.33,51.283L279.75,50.617L281.17,50.887L282.59,50.715L284.01,50.736L285.43,50.534L286.85,50.613L288.27,50.441L289.69,50.283L291.11,50.085L292.53,49.806L293.95,49.675L295.37,49.708L296.79,49.699L298.21,49.513L299.63,49.499L301.05,49.324L302.47,49.422L303.89,49.338L305.31,49.101L306.73,49.045L308.15,48.885L309.57,48.973L310.99,48.854L312.41,48.689L313.83,48.598L315.25,48.715L316.67,48.501L318.09,48.347L319.51,48.485L320.93,48.282L322.35,48.243L323.77,47.975L325.19,48.061L326.61,48.005L328.03,47.982L329.46,47.952L330.88,47.733L332.3,47.803L333.72,47.745L335.14,47.591L336.56,47.512L337.98,47.538L339.4,47.549L340.82,47.487L342.24,47.368L343.66,47.284L345.08,47.201L346.5,47.231L347.92,47.18L349.34,47.133L350.76,47.052L352.18,47.012L353.6,46.982L355.02,46.956L356.44,46.859L357.86,46.847L359.28,46.794L360.7,46.712L362.12,46.789L363.54,46.717L364.96,46.738L366.38,46.64L367.8,46.663L369.22,46.563L370.64,46.463L372.06,46.528L373.48,46.396L374.9,46.431L376.32,46.328L377.74,46.405L379.16,46.272L380.58,46.314L382,46.147L383.42,46.228L384.84,46.266L386.26,46.131L387.68,46.124L389.1,46.114L390.52,46.112L391.94,46.065L393.36,46.049L394.78,45.931L396.2,46.035L397.62,45.982L399.04,45.982L400.46,45.872L401.88,45.891L403.3,45.882L404.72,45.835L406.14,45.812L407.56,45.731L408.98,45.789L410.4,45.826L411.82,45.814L413.24,45.842L414.66,45.684L416.09,45.717L417.51,45.772L418.93,45.689L420.35,45.637L421.77,45.656L423.19,45.633L424.61,45.642L426.03,45.591L427.45,45.596L428.87,45.6L430.29,45.6L431.71,45.537L433.13,45.526L434.55,45.556L435.97,45.547L437.39,45.489L438.81,45.544L440.23,45.528L441.65,45.526L443.07,45.461L444.49,45.461L445.91,45.44L447.33,45.449L448.75,45.461L450.17,45.412L451.59,45.419L453.01,45.428L454.43,45.468L455.85,45.4L457.27,45.386L458.69,45.365L460.11,45.412L461.53,45.356L462.95,45.356L464.37,45.34L465.79,45.33L467.21,45.34L468.63,45.356L470.05,45.293L471.47,45.277L472.89,45.342L474.31,45.326L475.73,45.261L477.15,45.282L478.57,45.317L479.99,45.305L481.41,45.303L482.83,45.263L484.25,45.268L485.67,45.277L487.09,45.254L488.51,45.303L489.93,45.282L491.35,45.282L492.77,45.263L494.19,45.263L495.61,45.24L497.03,45.226L498.45,45.237L499.87,45.23L501.29,45.244L502.72,45.235L504.14,45.247L505.56,45.235L506.98,45.205L508.4,45.214L509.82,45.24L511.24,45.2L512.66,45.216L514.08,45.216L515.5,45.205L516.92,45.214L518.34,45.216L519.76,45.221L521.18,45.196L522.6,45.212L524.02,45.2L525.44,45.182L526.86,45.196L528.28,45.205L529.7,45.198L531.12,45.198L532.54,45.193L533.96,45.198L535.38,45.193L536.8,45.17L538.22,45.189L539.64,45.184L541.06,45.175L542.48,45.21L543.9,45.182L545.32,45.17L546.74,45.189L548.16,45.189L549.58,45.17L551,45.168L552.42,45.172L553.84,45.175L555.26,45.175L556.68,45.172L558.1,45.172L559.52,45.165L560.94,45.172L562.36,45.17L563.78,45.17L565.2,45.17L566.62,45.165L568.04,45.165L569.46,45.161L570.88,45.168L572.3,45.156L573.72,45.179L575.14,45.163L576.56,45.161L577.98,45.168L579.4,45.163L580.82,45.168L582.24,45.163L583.66,45.151L585.08,45.163L586.5,45.158L587.92,45.156L589.34,45.163L590.77,45.156L592.19,45.161L593.61,45.151L595.03,45.161L596.45,45.154L597.87,45.154L599.29,45.156L600.71,45.154L602.13,45.154L604.97,45.163L606.39,45.163L607.81,45.151L609.23,45.154L610.65,45.161L612.07,45.151L613.49,45.163L614.91,45.158L616.33,45.151L617.75,45.154L619.17,45.154L620.59,45.151L623.43,45.151L626.27,45.151L627.69,45.151L629.11,45.154L633.37,45.151L634.79,45.151L639.05,45.154L640.47,45.151L643.31,45.151L644.73,45.154L646.15,45.151L648.99,45.151L651.83,45.154L656.09,45.151L660.35,45.151L670.29,45.151L671.71,45.151L673.13,45.151L674.55,45.151L675.97,45.151L677.4,45.151L681.66,45.151L691.6,45.151L705.8,45.151L708.64,45.151L712.9,45.151L720,45.151" style="fill:none;stroke:#0000FF" />
</g>
</svg>
