<?xml version="1.0"?>
<!-- Generated by SVGo and Plotinum VG -->
<svg width="720pt" height="432pt" viewBox="0 0 720 432"
	xmlns="http://www.w3.org/2000/svg"
	xmlns:xlink="http://www.w3.org/1999/xlink">
<g transform="scale(1, -1) translate(0, -432)">
<path d="M0,0L720,0L720,432L0,432Z" style="fill:#FFFFFF" />
<text x="358.5" y="-420.45" transform="scale(1, -1)"
	style="font-family:Times;font-weight:normal;font-style:normal;font-size:12px"> </text>
<text x="379.31" y="-3.8613" transform="scale(1, -1)"
	style="font-family:Times;font-weight:normal;font-style:normal;font-size:12px">Costs</text>
<text x="62.805" y="-18.634" transform="scale(1, -1)"
	style="font-family:Times;font-weight:normal;font-style:normal;font-size:10px">0</text>
<text x="323.4" y="-18.634" transform="scale(1, -1)"
	style="font-family:Times;font-weight:normal;font-style:normal;font-size:10px">200</text>
<text x="589" y="-18.634" transform="scale(1, -1)"
	style="font-family:Times;font-weight:normal;font-style:normal;font-size:10px">400</text>
<path d="M65.305,28.263L65.305,36.263" style="fill:none;stroke:#000000;stroke-width:0.5" />
<path d="M330.9,28.263L330.9,36.263" style="fill:none;stroke:#000000;stroke-width:0.5" />
<path d="M596.5,28.263L596.5,36.263" style="fill:none;stroke:#000000;stroke-width:0.5" />
<path d="M198.1,32.263L198.1,36.263" style="fill:none;stroke:#000000;stroke-width:0.5" />
<path d="M463.7,32.263L463.7,36.263" style="fill:none;stroke:#000000;stroke-width:0.5" />
<path d="M65.305,36.263L720,36.263" style="fill:none;stroke:#000000;stroke-width:0.5" />
<g transform="rotate(90)">
<text x="152.55" y="11.555" transform="scale(1, -1)"
	style="font-family:Times;font-weight:normal;font-style:normal;font-size:12px">Number of trials (1000000 total)</text>
</g>
<text x="24.055" y="-105.84" transform="scale(1, -1)"
	style="font-family:Times;font-weight:normal;font-style:normal;font-size:10px">30000</text>
<text x="24.055" y="-233.64" transform="scale(1, -1)"
	style="font-family:Times;font-weight:normal;font-style:normal;font-size:10px">90000</text>
<text x="19.055" y="-361.44" transform="scale(1, -1)"
	style="font-family:Times;font-weight:normal;font-style:normal;font-size:10px">150000</text>
<path d="M51.555,109.05L59.555,109.05" style="fill:none;stroke:#000000;stroke-width:0.5" />
<path d="M51.555,236.85L59.555,236.85" style="fill:none;stroke:#000000;stroke-width:0.5" />
<path d="M51.555,364.65L59.555,364.65" style="fill:none;stroke:#000000;stroke-width:0.5" />
<path d="M55.555,172.95L59.555,172.95" style="fill:none;stroke:#000000;stroke-width:0.5" />
<path d="M55.555,300.75L59.555,300.75" style="fill:none;stroke:#000000;stroke-width:0.5" />
<path d="M59.555,45.151L59.555,416.58" style="fill:none;stroke:#000000;stroke-width:0.5" />
<path d="M65.305,416.58L95.848,48.553L97.176,48.455L99.832,70.149L101.16,48.576L102.49,52.129L103.82,70.818L105.14,51.995L106.47,55.075L107.8,55.12L109.13,63.037L110.46,66.232L111.78,76.946L113.11,48.583L114.44,66.441L115.77,59.248L117.1,62.558L119.75,69.885L121.08,55.863L122.41,76.128L123.74,76.888L125.06,70.047L126.39,85.048L127.72,45.175L129.05,59.693L130.38,99.975L131.7,81.395L133.03,48.579L134.36,45.88L135.69,69.597L137.02,70.434L138.34,57.605L139.67,63.633L141,50.187L142.33,49.955L143.66,65.199L144.98,61.816L146.31,73.855L147.64,47.842L148.97,63.173L150.3,49.469L151.62,48.921L152.95,49.235L154.28,61.597L155.61,50.677L156.94,51.75L158.26,52.798L159.59,55.152L160.92,55.821L162.25,52.913L163.58,53.071L164.9,56.315L166.23,56.119L167.56,54.917L168.89,58.481L170.22,58.417L171.54,61.533L172.87,56.798L174.2,57.778L175.53,59.829L176.86,59.452L178.18,59.116L179.51,56.847L180.84,61.942L182.17,59.642L183.5,60.125L184.82,59.718L186.15,59.292L187.48,59.908L188.81,60.643L190.14,61.687L191.46,60.619L192.79,58.138L194.12,56.587L195.45,60.178L196.77,60.417L198.1,56.592L199.43,53.501L200.76,58.583L202.09,57.073L203.41,58.443L204.74,57.26L206.07,55.85L207.4,54.709L208.73,54.283L210.05,57.03L211.38,55.901L212.71,53.652L214.04,53.331L215.37,54.191L216.69,52.939L218.02,53.207L219.35,53.833L220.68,53.784L222.01,50.966L223.33,52.157L224.66,52.836L225.99,53.062L227.32,52.681L228.65,52.28L229.97,52.971L231.3,52.046L232.63,52.647L233.96,52.11L235.29,53.111L236.61,52.176L237.94,52.638L239.27,52.302L240.6,52.493L241.93,52.608L243.25,52.772L244.58,52.249L245.91,52.559L247.24,52.174L248.57,52.393L249.89,52.485L251.22,52.427L252.55,52.189L253.88,52.129L255.21,52.238L256.53,51.848L257.86,51.475L259.19,51.322L260.52,51.561L261.85,51.458L263.17,50.962L264.5,51.122L265.83,50.585L267.16,50.779L268.49,50.668L269.81,50.51L271.14,50.579L272.47,50.07L273.8,49.914L275.13,50.108L276.45,49.735L277.78,49.516L279.11,49.337L280.44,49.35L281.77,49.352L283.09,49.092L284.42,49.096L285.75,49.075L287.08,48.892L288.41,48.523L289.73,48.785L291.06,48.645L292.39,48.587L293.72,48.517L295.05,48.481L296.37,48.361L297.7,48.312L299.03,48.304L300.36,48.208L301.69,48.142L303.01,48.038L304.34,48.123L305.67,47.978L307,48.142L308.33,48.061L309.65,47.957L310.98,47.895L312.31,47.842L313.64,47.78L314.97,47.897L316.29,47.635L317.62,47.582L318.95,47.55L320.28,47.656L321.61,47.509L322.93,47.505L324.26,47.29L325.59,47.347L326.92,47.354L328.25,47.22L329.57,47.303L330.9,47.113L332.23,47.186L333.56,47.039L334.89,46.945L336.21,46.994L337.54,46.798L338.87,46.798L340.2,46.83L341.53,46.772L342.85,46.738L344.18,46.57L345.51,46.572L346.84,46.721L348.16,46.557L349.49,46.455L350.82,46.578L352.15,46.378L353.48,46.41L354.8,46.385L356.13,46.383L357.46,46.24L358.79,46.27L360.12,46.263L361.44,46.218L362.77,46.236L364.1,46.146L365.43,46.191L366.76,46.123L368.08,46.108L369.41,46.084L370.74,46.076L372.07,46.035L373.4,45.967L374.72,46.023L376.05,46.016L377.38,45.873L378.71,45.897L380.04,45.946L381.36,45.927L382.69,45.908L384.02,45.899L385.35,45.876L386.68,45.816L388,45.775L389.33,45.827L390.66,45.771L391.99,45.801L393.32,45.761L394.64,45.754L395.97,45.675L397.3,45.72L398.63,45.646L399.96,45.69L401.28,45.663L402.61,45.609L403.94,45.648L405.27,45.663L406.6,45.601L407.92,45.56L409.25,45.594L410.58,45.567L411.91,45.507L413.24,45.575L414.56,45.543L415.89,45.473L417.22,45.511L418.55,45.486L419.88,45.452L421.2,45.46L422.53,45.409L423.86,45.437L425.19,45.441L426.52,45.396L427.84,45.445L429.17,45.371L430.5,45.401L431.83,45.407L433.16,45.409L434.48,45.384L435.81,45.443L437.14,45.379L438.47,45.356L439.8,45.377L441.12,45.371L442.45,45.313L443.78,45.33L445.11,45.32L446.44,45.337L447.76,45.32L449.09,45.32L450.42,45.32L451.75,45.354L453.08,45.292L454.4,45.269L455.73,45.32L457.06,45.271L458.39,45.273L459.72,45.275L461.04,45.273L462.37,45.275L463.7,45.266L465.03,45.251L466.36,45.266L467.68,45.279L469.01,45.237L470.34,45.264L471.67,45.247L473,45.234L474.32,45.226L475.65,45.226L476.98,45.234L478.31,45.217L479.64,45.22L480.96,45.215L482.29,45.226L483.62,45.254L484.95,45.22L486.28,45.226L487.6,45.215L488.93,45.22L490.26,45.228L491.59,45.194L492.92,45.209L494.24,45.183L495.57,45.211L496.9,45.188L498.23,45.222L499.55,45.205L500.88,45.2L502.21,45.198L503.54,45.211L504.87,45.192L506.19,45.177L507.52,45.194L508.85,45.213L510.18,45.171L511.51,45.175L512.83,45.177L514.16,45.181L515.49,45.173L516.82,45.194L518.15,45.173L519.47,45.185L520.8,45.175L522.13,45.179L523.46,45.173L524.79,45.16L526.11,45.183L527.44,45.173L528.77,45.175L530.1,45.168L531.43,45.158L532.75,45.171L534.08,45.177L535.41,45.177L536.74,45.181L538.07,45.168L539.39,45.164L540.72,45.173L542.05,45.166L543.38,45.158L544.71,45.168L546.03,45.168L547.36,45.16L548.69,45.16L550.02,45.166L551.35,45.166L552.67,45.168L554,45.153L555.33,45.151L556.66,45.164L557.99,45.162L559.31,45.153L560.64,45.16L561.97,45.153L563.3,45.162L564.63,45.153L565.95,45.16L567.28,45.16L568.61,45.158L571.27,45.158L572.59,45.153L575.25,45.151L576.58,45.16L577.91,45.158L579.23,45.16L580.56,45.16L581.89,45.156L583.22,45.158L584.55,45.153L585.87,45.156L588.53,45.156L589.86,45.153L591.19,45.153L592.51,45.151L595.17,45.151L597.83,45.151L599.15,45.153L600.48,45.151L601.81,45.151L604.47,45.151L607.12,45.156L609.78,45.153L611.11,45.151L612.43,45.151L613.76,45.151L615.09,45.151L616.42,45.151L619.07,45.153L620.4,45.151L621.73,45.151L623.06,45.153L625.71,45.151L627.04,45.151L628.37,45.151L629.7,45.151L636.34,45.151L638.99,45.151L642.98,45.151L645.63,45.151L665.55,45.151L670.86,45.151L674.85,45.151L681.49,45.151L685.47,45.151L712.03,45.151L717.34,45.151L720,45.151" style="fill:none;stroke:#0000FF" />
</g>
</svg>
