<?xml version="1.0"?>
<!-- Generated by SVGo and Plotinum VG -->
<svg width="720pt" height="432pt" viewBox="0 0 720 432"
	xmlns="http://www.w3.org/2000/svg"
	xmlns:xlink="http://www.w3.org/1999/xlink">
<g transform="scale(1, -1) translate(0, -432)">
<path d="M0,0L720,0L720,432L0,432Z" style="fill:#FFFFFF" />
<text x="358.5" y="-420.45" transform="scale(1, -1)"
	style="font-family:Times;font-weight:normal;font-style:normal;font-size:12px"> </text>
<text x="385.56" y="-3.8613" transform="scale(1, -1)"
	style="font-family:Times;font-weight:normal;font-style:normal;font-size:12px">Costs</text>
<text x="75.305" y="-18.634" transform="scale(1, -1)"
	style="font-family:Times;font-weight:normal;font-style:normal;font-size:10px">0</text>
<text x="347.71" y="-18.634" transform="scale(1, -1)"
	style="font-family:Times;font-weight:normal;font-style:normal;font-size:10px">200</text>
<text x="625.12" y="-18.634" transform="scale(1, -1)"
	style="font-family:Times;font-weight:normal;font-style:normal;font-size:10px">400</text>
<path d="M77.805,28.263L77.805,36.263" style="fill:none;stroke:#000000;stroke-width:0.5" />
<path d="M355.21,28.263L355.21,36.263" style="fill:none;stroke:#000000;stroke-width:0.5" />
<path d="M632.62,28.263L632.62,36.263" style="fill:none;stroke:#000000;stroke-width:0.5" />
<path d="M216.51,32.263L216.51,36.263" style="fill:none;stroke:#000000;stroke-width:0.5" />
<path d="M493.91,32.263L493.91,36.263" style="fill:none;stroke:#000000;stroke-width:0.5" />
<path d="M77.805,36.263L720,36.263" style="fill:none;stroke:#000000;stroke-width:0.5" />
<g transform="rotate(90)">
<text x="152.55" y="11.555" transform="scale(1, -1)"
	style="font-family:Times;font-weight:normal;font-style:normal;font-size:12px">Number of trials (1000000 total)</text>
</g>
<text x="24.055" y="-80.685" transform="scale(1, -1)"
	style="font-family:Times;font-weight:normal;font-style:normal;font-size:10px">25000.00</text>
<text x="19.055" y="-235.65" transform="scale(1, -1)"
	style="font-family:Times;font-weight:normal;font-style:normal;font-size:10px">125000.00</text>
<text x="19.055" y="-390.61" transform="scale(1, -1)"
	style="font-family:Times;font-weight:normal;font-style:normal;font-size:10px">225000.00</text>
<path d="M64.055,83.891L72.055,83.891" style="fill:none;stroke:#000000;stroke-width:0.5" />
<path d="M64.055,238.86L72.055,238.86" style="fill:none;stroke:#000000;stroke-width:0.5" />
<path d="M64.055,393.82L72.055,393.82" style="fill:none;stroke:#000000;stroke-width:0.5" />
<path d="M68.055,161.37L72.055,161.37" style="fill:none;stroke:#000000;stroke-width:0.5" />
<path d="M68.055,316.34L72.055,316.34" style="fill:none;stroke:#000000;stroke-width:0.5" />
<path d="M72.055,45.151L72.055,416.58" style="fill:none;stroke:#000000;stroke-width:0.5" />
<path d="M77.805,416.58L111.09,55.577L113.87,58.791L115.25,80.773L116.64,52.165L118.03,69.482L120.8,52.047L122.19,76.487L123.58,55.571L124.96,73.756L126.35,66.735L127.74,51.83L129.12,69.856L130.51,87.97L131.9,59.295L133.29,48.565L134.67,58.908L136.06,77.063L137.45,80.166L138.83,73.429L140.22,51.895L141.61,48.632L144.38,48.536L145.77,48.508L147.16,59.938L148.54,56.296L149.93,45.454L151.32,57.533L152.7,46.193L154.09,46.92L155.48,48.447L156.87,49.576L158.25,48.142L159.64,63.691L161.03,48.539L162.41,51.634L163.8,60.105L165.19,67.493L166.57,51.424L167.96,52.565L169.35,52.738L170.74,52.864L172.12,51.844L173.51,54.562L174.9,56.735L176.28,58.873L177.67,54.299L179.06,66.755L180.44,67.147L181.83,54.834L183.22,55.099L184.61,62.424L185.99,53.349L187.38,53.671L188.77,69.239L190.15,53.202L191.54,53.592L192.93,51.313L194.32,50.284L195.7,53.123L197.09,52.974L198.48,52.007L199.86,51.533L201.25,50.887L202.64,50.028L204.02,51.057L205.41,50.354L206.8,50.047L208.19,51.294L209.57,50.834L210.96,50.276L212.35,51.737L213.73,49.735L215.12,49.4L216.51,52.318L217.89,53.733L219.28,51.077L220.67,51.257L222.06,51.401L223.44,52.092L224.83,53.241L226.22,52.464L227.6,51.184L228.99,51.886L230.38,50.18L231.77,51.757L233.15,53.138L234.54,50.817L235.93,51.434L237.31,52.188L238.7,51.652L240.09,51.497L241.47,51.457L242.86,49.636L244.25,49.097L245.64,49.847L247.02,50.298L248.41,50.106L249.8,50.028L251.18,49.117L252.57,48.458L253.96,48.189L255.34,48.21L256.73,48.15L258.12,48.861L259.51,48.224L260.89,48.463L262.28,48.878L263.67,47.99L265.05,48.364L266.44,49.171L267.83,48.559L269.21,48.069L270.6,48.604L271.99,48.179L273.38,47.897L274.76,48.418L276.15,48.644L277.54,48.327L278.92,48.165L280.31,47.78L281.7,48.342L283.09,47.866L284.47,47.936L285.86,48.262L287.25,48.088L288.63,47.614L290.02,48.004L291.41,48.148L292.79,47.339L294.18,47.33L295.57,47.601L296.96,47.144L298.34,47.336L299.73,47.239L301.12,46.875L302.5,47.059L303.89,46.794L305.28,46.797L306.66,47.037L308.05,46.875L309.44,46.752L310.83,46.73L312.21,46.631L313.6,46.486L314.99,46.656L316.37,46.537L317.76,46.579L319.15,46.724L320.54,46.597L321.92,46.431L323.31,46.455L324.7,46.445L326.08,46.39L327.47,46.452L328.86,46.489L330.24,46.407L331.63,46.366L333.02,46.337L334.41,46.345L335.79,46.25L337.18,46.239L338.57,46.138L339.95,46.138L341.34,46.177L342.73,46.101L344.11,46.08L345.5,46.063L346.89,46.049L348.28,46.055L349.66,46.022L351.05,45.928L352.44,45.914L353.82,45.849L355.21,45.844L356.6,45.824L357.98,45.802L359.37,45.75L360.76,45.793L362.15,45.743L363.53,45.723L364.92,45.739L366.31,45.712L367.69,45.726L369.08,45.677L370.47,45.653L371.86,45.677L373.24,45.678L374.63,45.626L376.02,45.607L377.4,45.641L378.79,45.554L380.18,45.593L381.56,45.587L382.95,45.557L384.34,45.581L385.73,45.542L387.11,45.562L388.5,45.531L389.89,45.54L391.27,45.471L392.66,45.505L394.05,45.489L395.43,45.464L396.82,45.486L398.21,45.461L399.6,45.43L400.98,45.45L402.37,45.437L403.76,45.381L405.14,45.412L406.53,45.396L407.92,45.365L409.31,45.354L410.69,45.388L412.08,45.348L413.47,45.337L414.85,45.393L416.24,45.328L417.63,45.305L419.01,45.33L420.4,45.303L421.79,45.311L423.18,45.333L424.56,45.314L425.95,45.32L427.34,45.309L428.72,45.3L430.11,45.311L431.5,45.257L432.88,45.286L434.27,45.28L435.66,45.28L437.05,45.288L438.43,45.272L439.82,45.264L441.21,45.246L442.59,45.246L443.98,45.255L445.37,45.247L446.75,45.243L448.14,45.232L449.53,45.233L450.92,45.241L452.3,45.241L453.69,45.233L455.08,45.232L456.46,45.238L457.85,45.233L459.24,45.216L460.63,45.223L462.01,45.204L463.4,45.204L464.79,45.204L466.17,45.192L467.56,45.221L468.95,45.203L470.33,45.19L471.72,45.196L473.11,45.195L474.5,45.193L475.88,45.198L477.27,45.206L478.66,45.189L480.04,45.196L481.43,45.184L482.82,45.189L484.2,45.185L485.59,45.182L486.98,45.185L488.37,45.189L489.75,45.187L491.14,45.173L492.53,45.184L493.91,45.178L495.3,45.181L496.69,45.176L498.08,45.175L499.46,45.172L500.85,45.178L502.24,45.172L503.62,45.165L505.01,45.17L506.4,45.17L507.78,45.175L509.17,45.168L510.56,45.159L511.95,45.172L513.33,45.161L514.72,45.17L516.11,45.161L517.49,45.175L518.88,45.161L520.27,45.168L521.65,45.164L523.04,45.158L524.43,45.165L525.82,45.162L527.2,45.164L528.59,45.167L529.98,45.167L531.36,45.161L532.75,45.162L534.14,45.159L535.52,45.164L536.91,45.159L538.3,45.159L539.69,45.153L541.07,45.158L542.46,45.164L543.85,45.154L545.23,45.159L546.62,45.161L549.4,45.153L550.78,45.158L552.17,45.154L553.56,45.153L554.94,45.154L556.33,45.154L557.72,45.156L559.1,45.156L560.49,45.151L561.88,45.156L563.27,45.154L564.65,45.158L566.04,45.153L567.43,45.153L568.81,45.151L570.2,45.156L571.59,45.153L574.36,45.151L575.75,45.154L577.14,45.153L578.52,45.151L579.91,45.153L581.3,45.153L582.68,45.156L584.07,45.153L585.46,45.151L586.85,45.154L588.23,45.156L592.39,45.151L595.17,45.154L597.94,45.151L602.1,45.153L606.26,45.153L607.65,45.151L611.81,45.156L618.75,45.151L622.91,45.151L624.29,45.151L628.46,45.153L635.39,45.151L639.55,45.151L650.65,45.151L658.97,45.151L664.52,45.151L671.45,45.151L678.39,45.151L720,45.151" style="fill:none;stroke:#0000FF" />
</g>
</svg>
