<?xml version="1.0"?>
<!-- Generated by SVGo and Plotinum VG -->
<svg width="720pt" height="432pt" viewBox="0 0 720 432"
	xmlns="http://www.w3.org/2000/svg"
	xmlns:xlink="http://www.w3.org/1999/xlink">
<g transform="scale(1, -1) translate(0, -432)">
<path d="M0,0L720,0L720,432L0,432Z" style="fill:#FFFFFF" />
<text x="358.5" y="-420.45" transform="scale(1, -1)"
	style="font-family:Times;font-weight:normal;font-style:normal;font-size:12px"> </text>
<text x="379.31" y="-3.8613" transform="scale(1, -1)"
	style="font-family:Times;font-weight:normal;font-style:normal;font-size:12px">Costs</text>
<text x="62.805" y="-18.634" transform="scale(1, -1)"
	style="font-family:Times;font-weight:normal;font-style:normal;font-size:10px">0</text>
<text x="335.22" y="-18.634" transform="scale(1, -1)"
	style="font-family:Times;font-weight:normal;font-style:normal;font-size:10px">200</text>
<text x="612.63" y="-18.634" transform="scale(1, -1)"
	style="font-family:Times;font-weight:normal;font-style:normal;font-size:10px">400</text>
<path d="M65.305,28.263L65.305,36.263" style="fill:none;stroke:#000000;stroke-width:0.5" />
<path d="M342.72,28.263L342.72,36.263" style="fill:none;stroke:#000000;stroke-width:0.5" />
<path d="M620.13,28.263L620.13,36.263" style="fill:none;stroke:#000000;stroke-width:0.5" />
<path d="M204.01,32.263L204.01,36.263" style="fill:none;stroke:#000000;stroke-width:0.5" />
<path d="M481.42,32.263L481.42,36.263" style="fill:none;stroke:#000000;stroke-width:0.5" />
<path d="M65.305,36.263L720,36.263" style="fill:none;stroke:#000000;stroke-width:0.5" />
<g transform="rotate(90)">
<text x="152.55" y="11.555" transform="scale(1, -1)"
	style="font-family:Times;font-weight:normal;font-style:normal;font-size:12px">Number of trials (1000000 total)</text>
</g>
<text x="24.055" y="-89.545" transform="scale(1, -1)"
	style="font-family:Times;font-weight:normal;font-style:normal;font-size:10px">20000</text>
<text x="24.055" y="-232.35" transform="scale(1, -1)"
	style="font-family:Times;font-weight:normal;font-style:normal;font-size:10px">80000</text>
<text x="19.055" y="-375.15" transform="scale(1, -1)"
	style="font-family:Times;font-weight:normal;font-style:normal;font-size:10px">140000</text>
<path d="M51.555,92.751L59.555,92.751" style="fill:none;stroke:#000000;stroke-width:0.5" />
<path d="M51.555,235.56L59.555,235.56" style="fill:none;stroke:#000000;stroke-width:0.5" />
<path d="M51.555,378.36L59.555,378.36" style="fill:none;stroke:#000000;stroke-width:0.5" />
<path d="M55.555,164.15L59.555,164.15" style="fill:none;stroke:#000000;stroke-width:0.5" />
<path d="M55.555,306.96L59.555,306.96" style="fill:none;stroke:#000000;stroke-width:0.5" />
<path d="M59.555,45.151L59.555,416.58" style="fill:none;stroke:#000000;stroke-width:0.5" />
<path d="M65.305,416.58L95.82,48.879L97.207,48.686L101.37,62.885L102.76,48.579L104.14,62.704L105.53,80.864L108.3,48.495L109.69,86.893L111.08,52.387L112.46,116.23L113.85,91.02L115.24,59.213L116.63,52.351L118.01,69.676L119.4,73.16L120.79,66.379L122.17,83.911L123.56,84.149L124.95,98.522L126.34,76.561L127.72,52.332L129.11,48.867L131.88,52.156L133.27,52.365L134.66,48.795L136.05,45.646L137.43,45.454L138.82,115.82L140.21,46.465L141.59,50.592L142.98,78.615L144.37,51.663L145.75,48.096L147.14,67.391L148.53,50.39L149.92,59.182L151.3,54.15L152.69,71.863L154.08,53.232L155.46,50.54L156.85,56.609L158.24,60.96L159.63,57.487L161.01,59.744L162.4,59.503L163.79,65.563L165.17,59.451L166.56,68.486L167.95,62.759L169.33,63.438L170.72,63.116L172.11,63.835L173.5,61.779L174.88,59.948L176.27,63.059L177.66,88.543L179.04,62.721L180.43,56.673L181.82,57.932L183.21,65.71L184.59,54.284L185.98,64.259L187.37,61.134L188.75,53.722L190.14,56.233L191.53,60.634L192.91,55.731L194.3,56.026L195.69,58.956L197.08,60.477L198.46,59.172L199.85,61.329L201.24,56.045L202.62,56.376L204.01,55.045L205.4,55.726L206.79,56.226L208.17,54.679L209.56,54.105L210.95,55.826L212.33,58.044L213.72,55.305L215.11,54.377L216.49,59.853L217.88,55.814L219.27,53.222L220.66,57.611L222.04,56.611L223.43,56.502L224.82,61.802L226.2,59.794L227.59,54.75L228.98,53.163L230.37,56.338L231.75,55.693L233.14,54.329L234.53,56.488L235.91,56.031L237.3,58.013L238.69,54.319L240.08,54.248L241.46,53.148L242.85,52.025L244.24,53.234L245.62,53.624L247.01,52.068L248.4,52.123L249.78,53.025L251.17,57.951L252.56,51.466L253.95,52.368L255.33,53.858L256.72,52.168L258.11,51.111L259.49,53.082L260.88,51.223L262.27,51.278L263.66,51.52L265.04,52.749L266.43,50.516L267.82,50.585L269.2,51.313L270.59,51.549L271.98,50.911L273.36,51.297L274.75,51.002L276.14,51.071L277.53,50.69L278.91,51.19L280.3,50.766L281.69,50.883L283.07,50.69L284.46,50.966L285.85,50.516L287.24,49.814L288.62,49.988L290.01,50.031L291.4,49.585L292.78,49.457L294.17,49.707L295.56,49.845L296.94,49.167L298.33,50.15L299.72,49.516L301.11,48.81L302.49,48.943L303.88,49.347L305.27,48.66L306.65,48.752L308.04,48.917L309.43,48.867L310.82,48.85L312.2,48.774L313.59,48.281L314.98,48.417L316.36,47.986L317.75,48.096L319.14,48.191L320.52,47.877L321.91,47.815L323.3,48.093L324.69,48.065L326.07,47.634L327.46,47.769L328.85,47.912L330.23,47.539L331.62,47.398L333.01,47.608L334.4,47.403L335.78,47.517L337.17,47.427L338.56,47.408L339.94,47.243L341.33,46.958L342.72,47.251L344.11,47.044L345.49,46.889L346.88,47.136L348.27,46.963L349.65,47.008L351.04,46.875L352.43,46.977L353.81,46.775L355.2,46.77L356.59,46.844L357.98,46.706L359.36,46.527L360.75,46.572L362.14,46.625L363.52,46.458L364.91,46.451L366.3,46.484L367.69,46.379L369.07,46.406L370.46,46.32L371.85,46.325L373.23,46.218L374.62,46.137L376.01,46.194L377.39,46.182L378.78,46.106L380.17,46.187L381.56,46.001L382.94,46.177L384.33,46.063L385.72,46.132L387.1,45.911L388.49,46.025L389.88,45.951L391.27,45.93L392.65,45.903L394.04,45.865L395.43,45.875L396.81,45.834L398.2,45.804L399.59,45.823L400.97,45.849L402.36,45.794L403.75,45.727L405.14,45.708L406.52,45.687L407.91,45.704L409.3,45.706L410.68,45.692L412.07,45.58L413.46,45.649L414.85,45.599L416.23,45.62L417.62,45.556L419.01,45.537L420.39,45.544L421.78,45.549L423.17,45.573L424.55,45.558L425.94,45.516L427.33,45.501L428.72,45.487L430.1,45.444L431.49,45.451L432.88,45.504L434.26,45.496L435.65,45.489L437.04,45.413L438.43,45.423L439.81,45.48L441.2,45.387L442.59,45.416L443.97,45.401L445.36,45.375L446.75,45.404L448.13,45.347L449.52,45.368L450.91,45.397L452.3,45.373L453.68,45.33L455.07,45.297L456.46,45.332L457.84,45.337L459.23,45.299L460.62,45.332L462.01,45.306L463.39,45.337L464.78,45.301L466.17,45.27L467.55,45.287L468.94,45.308L470.33,45.297L471.72,45.273L473.1,45.289L474.49,45.297L475.88,45.244L477.26,45.266L478.65,45.218L480.04,45.239L481.42,45.254L482.81,45.268L484.2,45.223L485.59,45.254L486.97,45.244L488.36,45.237L489.75,45.225L491.13,45.22L492.52,45.225L493.91,45.213L495.3,45.225L496.68,45.213L498.07,45.204L499.46,45.216L500.84,45.192L502.23,45.189L503.62,45.206L505,45.199L506.39,45.189L507.78,45.228L509.17,45.182L510.55,45.18L511.94,45.189L513.33,45.199L514.71,45.194L516.1,45.189L517.49,45.185L518.88,45.18L520.26,45.18L521.65,45.187L523.04,45.18L524.42,45.187L525.81,45.173L527.2,45.178L528.58,45.182L529.97,45.182L531.36,45.182L532.75,45.175L534.13,45.168L535.52,45.185L536.91,45.17L538.29,45.17L539.68,45.166L541.07,45.17L542.46,45.163L543.84,45.159L545.23,45.18L546.62,45.161L548,45.161L549.39,45.163L550.78,45.178L552.16,45.161L553.55,45.159L554.94,45.161L556.33,45.159L557.71,45.163L559.1,45.161L560.49,45.154L561.87,45.154L563.26,45.156L564.65,45.154L566.04,45.166L567.42,45.156L568.81,45.156L570.2,45.161L571.58,45.156L572.97,45.156L574.36,45.154L575.75,45.161L577.13,45.151L578.52,45.163L579.91,45.166L581.29,45.151L582.68,45.156L585.45,45.154L586.84,45.156L588.23,45.154L592.39,45.154L593.78,45.151L595.16,45.154L596.55,45.151L597.94,45.154L600.71,45.154L602.1,45.154L604.87,45.151L606.26,45.151L607.65,45.151L609.03,45.151L610.42,45.156L611.81,45.151L614.58,45.154L618.74,45.151L621.52,45.151L622.91,45.151L624.29,45.151L625.68,45.151L627.07,45.151L628.45,45.154L632.61,45.151L634,45.151L639.55,45.151L640.94,45.151L642.32,45.154L643.71,45.151L647.87,45.151L649.26,45.151L658.97,45.151L660.36,45.151L663.13,45.151L670.07,45.151L688.1,45.154L720,45.151" style="fill:none;stroke:#0000FF" />
</g>
</svg>
