<?xml version="1.0"?>
<!-- Generated by SVGo and Plotinum VG -->
<svg width="720pt" height="432pt" viewBox="0 0 720 432"
	xmlns="http://www.w3.org/2000/svg"
	xmlns:xlink="http://www.w3.org/1999/xlink">
<g transform="scale(1, -1) translate(0, -432)">
<path d="M0,0L720,0L720,432L0,432Z" style="fill:#FFFFFF" />
<text x="358.5" y="-420.45" transform="scale(1, -1)"
	style="font-family:Times;font-weight:normal;font-style:normal;font-size:12px"> </text>
<text x="376.81" y="-3.8613" transform="scale(1, -1)"
	style="font-family:Times;font-weight:normal;font-style:normal;font-size:12px">Costs</text>
<text x="57.805" y="-18.634" transform="scale(1, -1)"
	style="font-family:Times;font-weight:normal;font-style:normal;font-size:10px">0</text>
<text x="366.95" y="-18.634" transform="scale(1, -1)"
	style="font-family:Times;font-weight:normal;font-style:normal;font-size:10px">300</text>
<text x="681.09" y="-18.634" transform="scale(1, -1)"
	style="font-family:Times;font-weight:normal;font-style:normal;font-size:10px">600</text>
<path d="M60.305,28.263L60.305,36.263" style="fill:none;stroke:#000000;stroke-width:0.5" />
<path d="M374.45,28.263L374.45,36.263" style="fill:none;stroke:#000000;stroke-width:0.5" />
<path d="M688.59,28.263L688.59,36.263" style="fill:none;stroke:#000000;stroke-width:0.5" />
<path d="M165.02,32.263L165.02,36.263" style="fill:none;stroke:#000000;stroke-width:0.5" />
<path d="M269.73,32.263L269.73,36.263" style="fill:none;stroke:#000000;stroke-width:0.5" />
<path d="M479.16,32.263L479.16,36.263" style="fill:none;stroke:#000000;stroke-width:0.5" />
<path d="M583.87,32.263L583.87,36.263" style="fill:none;stroke:#000000;stroke-width:0.5" />
<path d="M60.305,36.263L720,36.263" style="fill:none;stroke:#000000;stroke-width:0.5" />
<g transform="rotate(90)">
<text x="152.55" y="11.555" transform="scale(1, -1)"
	style="font-family:Times;font-weight:normal;font-style:normal;font-size:12px">Number of trials (1000000 total)</text>
</g>
<text x="19.055" y="-107.47" transform="scale(1, -1)"
	style="font-family:Times;font-weight:normal;font-style:normal;font-size:10px">10000</text>
<text x="19.055" y="-238.52" transform="scale(1, -1)"
	style="font-family:Times;font-weight:normal;font-style:normal;font-size:10px">30000</text>
<text x="19.055" y="-369.57" transform="scale(1, -1)"
	style="font-family:Times;font-weight:normal;font-style:normal;font-size:10px">50000</text>
<path d="M46.555,110.67L54.555,110.67" style="fill:none;stroke:#000000;stroke-width:0.5" />
<path d="M46.555,241.73L54.555,241.73" style="fill:none;stroke:#000000;stroke-width:0.5" />
<path d="M46.555,372.78L54.555,372.78" style="fill:none;stroke:#000000;stroke-width:0.5" />
<path d="M50.555,176.2L54.555,176.2" style="fill:none;stroke:#000000;stroke-width:0.5" />
<path d="M50.555,307.25L54.555,307.25" style="fill:none;stroke:#000000;stroke-width:0.5" />
<path d="M54.555,45.151L54.555,416.58" style="fill:none;stroke:#000000;stroke-width:0.5" />
<path d="M60.305,416.58L87.53,48.467L88.577,58.611L89.624,52.438L90.672,48.487L92.766,74.743L93.813,62.28L94.86,114.37L95.907,130.97L96.954,73.249L98.002,85.988L100.1,71.893L101.14,72.882L102.19,48.611L103.24,145.17L104.28,58.656L105.33,58.958L106.38,120.89L107.43,55.636L108.47,55.963L111.61,66.231L112.66,58.978L113.71,118.6L115.8,145.2L116.85,71.532L117.9,48.827L118.94,78.498L119.99,52.694L121.04,46.351L122.09,138.15L123.13,49.135L124.18,90.083L125.23,127.15L126.27,56.304L127.32,52.012L128.37,56.599L129.42,52.497L130.46,76.827L131.51,57.7L132.56,63.283L133.6,60.793L134.65,64.901L135.7,66.762L136.75,99.67L137.79,73.656L138.84,79.756L139.89,64.2L140.93,95.542L141.98,69.842L143.03,65.851L144.08,70.943L145.12,54.686L146.17,71.087L147.22,67.915L148.26,77.122L149.31,92.134L150.36,79.35L151.41,90.817L152.45,68.636L153.5,77.24L154.55,79.881L155.59,67.299L156.64,98.261L157.69,85.765L158.74,99.729L159.78,107.78L160.83,77.096L161.88,96.354L162.92,75.87L163.97,59.076L165.02,96.341L166.07,67.496L167.11,73.452L168.16,96.597L169.21,82.954L170.25,76.513L171.3,86.23L172.35,78.976L173.4,72.909L174.44,71.048L175.49,82.285L176.54,72.05L177.58,96.374L178.63,81.453L179.68,80.3L180.73,91.118L181.77,72.45L182.82,70.012L183.87,84.566L184.91,65.17L185.96,76.821L187.01,86.486L188.06,68.105L189.1,76.683L190.15,76.46L191.2,68.485L192.24,85.267L193.29,72.627L194.34,80.169L195.39,75.988L196.43,80.162L197.48,76.185L198.53,76.84L199.57,76.277L200.62,77.168L201.67,79.127L202.72,84.146L203.76,74.376L204.81,79.514L205.86,79.894L206.9,73.131L207.95,74.075L209,72.266L210.05,72.496L211.09,77.561L212.14,77.187L213.19,80.156L214.23,77.017L215.28,81.656L216.33,75.805L217.38,74.724L218.42,77.489L219.47,69.888L220.52,77.279L221.56,78.269L222.61,71.382L223.66,79.533L224.7,74.252L225.75,70.654L226.8,75.785L227.85,70.661L228.89,69.554L229.94,73.924L230.99,71.185L232.03,71.775L233.08,73.027L234.13,72.817L235.18,71.631L236.22,71.375L237.27,71.146L238.32,70.53L239.36,71.487L240.41,69.488L241.46,69.16L242.51,72.948L243.55,66.179L244.6,68.544L245.65,69.868L246.69,65.353L247.74,67.018L248.79,68.092L249.84,66.592L250.88,68.774L251.93,66.874L252.98,66.533L254.02,67.431L255.07,67.45L256.12,66.769L257.17,67.352L258.21,67.424L259.26,66.12L260.31,66.035L261.35,65.432L262.4,64.901L263.45,65.556L264.5,64.908L265.54,63.564L266.59,64.75L267.64,65.275L268.68,63.184L269.73,64.574L270.78,63.715L271.83,63.604L272.87,63.453L273.92,62.582L274.97,62.195L276.01,63.027L277.06,63.656L278.11,62.025L279.16,61.887L280.2,61.966L281.25,61.33L282.3,61.363L283.34,61.566L284.39,59.915L285.44,61.527L286.49,59.921L287.53,60.137L288.58,60.426L289.63,59.377L290.67,59.62L291.72,59.141L292.77,59.056L293.82,58.617L294.86,58.309L295.91,59.135L296.96,58.473L298,58.362L299.05,58.27L300.1,57.877L301.15,57.772L302.19,57.3L303.24,56.651L304.29,57.228L305.33,56.507L306.38,56.94L307.43,56.075L308.48,55.321L309.52,56.907L310.57,56.18L311.62,55.799L312.66,55.708L313.71,55.288L314.76,54.915L315.81,55.072L316.85,55.413L317.9,54.266L318.95,54.869L319.99,54.26L321.04,54.148L322.09,54.496L323.14,54.004L324.18,53.88L325.23,53.624L326.28,53.794L327.32,53.532L328.37,53.342L329.42,52.949L330.47,53.028L331.51,53.198L332.56,53.126L333.61,52.608L334.65,52.405L335.7,52.53L336.75,52.012L337.8,52.176L338.84,52.169L339.89,51.684L340.94,51.717L341.98,51.842L343.03,51.239L344.08,51.449L345.13,51.239L346.17,51.285L347.22,50.898L348.27,50.557L349.31,51.009L350.36,50.937L351.41,50.623L352.46,50.603L353.5,50.059L354.55,50.066L355.6,50.112L356.64,50.262L357.69,50.243L358.74,49.817L359.79,50.138L360.83,49.378L361.88,49.941L362.93,49.935L363.97,49.463L365.02,49.273L366.07,49.299L367.12,48.965L368.16,49.194L369.21,48.958L370.26,48.768L371.3,48.827L372.35,48.755L373.4,48.723L374.45,48.782L375.49,48.598L376.54,48.421L377.59,48.618L378.63,48.382L379.68,48.729L380.73,48.198L381.78,48.041L382.82,48.402L383.87,48.172L384.92,48.152L385.96,48.021L387.01,47.943L388.06,47.838L389.11,47.759L390.15,47.556L391.2,47.674L392.25,47.543L393.29,47.694L394.34,47.373L395.39,47.445L396.44,47.314L397.48,47.458L398.53,47.235L399.58,47.36L400.62,47.242L401.67,47.091L402.72,47.032L403.77,46.94L404.81,46.881L405.86,46.98L406.91,47.025L407.95,46.875L409,46.881L410.05,46.731L411.1,46.849L412.14,46.888L413.19,46.606L414.24,46.77L415.28,46.586L416.33,46.593L417.38,46.573L418.42,46.495L419.47,46.226L420.52,46.278L421.57,46.39L422.61,46.475L423.66,46.442L424.71,46.311L425.75,46.193L426.8,46.246L427.85,46.233L428.9,46.128L429.94,46.174L430.99,46.16L432.04,46.056L433.08,46.062L434.13,46.18L435.18,46.01L436.23,46.102L437.27,46.036L438.32,46.108L439.37,45.918L440.41,46.082L441.46,45.892L442.51,45.905L443.56,45.794L444.6,45.911L445.65,46.003L446.7,45.8L447.74,45.839L448.79,45.807L449.84,45.839L450.89,45.859L451.93,45.807L452.98,45.826L454.03,45.662L455.07,45.702L456.12,45.61L457.17,45.662L458.22,45.682L459.26,45.702L460.31,45.617L461.36,45.604L462.4,45.721L463.45,45.643L464.5,45.702L465.55,45.636L466.59,45.558L467.64,45.538L468.69,45.505L469.73,45.571L470.78,45.564L471.83,45.499L472.88,45.525L473.92,45.505L474.97,45.492L476.02,45.466L477.06,45.427L478.11,45.486L479.16,45.499L480.21,45.4L481.25,45.479L482.3,45.381L483.35,45.433L484.39,45.446L485.44,45.4L486.49,45.466L487.54,45.315L488.58,45.368L489.63,45.341L490.68,45.4L491.72,45.361L492.77,45.348L493.82,45.322L494.87,45.394L495.91,45.315L496.96,45.446L498.01,45.328L499.05,45.322L500.1,45.296L501.15,45.374L502.2,45.341L503.24,45.328L504.29,45.276L505.34,45.289L506.38,45.256L507.43,45.309L508.48,45.296L509.53,45.25L510.57,45.237L511.62,45.315L512.67,45.315L513.71,45.197L514.76,45.269L515.81,45.243L516.86,45.217L517.9,45.282L518.95,45.237L520,45.223L521.04,45.23L522.09,45.223L523.14,45.289L524.19,45.269L525.23,45.237L526.28,45.243L527.33,45.263L528.37,45.204L529.42,45.191L530.47,45.23L531.52,45.204L532.56,45.217L533.61,45.23L534.66,45.243L535.7,45.25L536.75,45.204L537.8,45.223L538.85,45.197L539.89,45.23L540.94,45.178L541.99,45.184L543.03,45.164L544.08,45.217L545.13,45.191L546.18,45.171L547.22,45.191L548.27,45.178L549.32,45.21L550.36,45.191L551.41,45.164L552.46,45.151L553.51,45.178L554.55,45.164L555.6,45.178L556.65,45.178L557.69,45.178L558.74,45.191L559.79,45.151L560.84,45.184L561.88,45.164L562.93,45.178L563.98,45.158L565.02,45.164L566.07,45.178L567.12,45.151L568.17,45.158L569.21,45.158L570.26,45.151L571.31,45.151L572.35,45.171L573.4,45.158L574.45,45.171L575.5,45.164L576.54,45.151L577.59,45.158L578.64,45.164L579.68,45.171L580.73,45.151L581.78,45.164L582.83,45.164L583.87,45.158L584.92,45.171L585.97,45.178L587.01,45.171L588.06,45.178L590.16,45.158L592.25,45.164L594.34,45.158L595.39,45.158L597.49,45.158L598.53,45.151L599.58,45.158L600.63,45.164L601.67,45.171L603.77,45.151L605.86,45.158L609,45.164L610.05,45.158L611.1,45.151L617.38,45.164L621.57,45.151L623.66,45.151L625.76,45.171L637.28,45.158L643.56,45.151L644.61,45.151L661.36,45.151L664.5,45.151L710.58,45.151L720,45.151" style="fill:none;stroke:#0000FF" />
</g>
</svg>
