<?xml version="1.0"?>
<!-- Generated by SVGo and Plotinum VG -->
<svg width="720pt" height="432pt" viewBox="0 0 720 432"
	xmlns="http://www.w3.org/2000/svg"
	xmlns:xlink="http://www.w3.org/1999/xlink">
<g transform="scale(1, -1) translate(0, -432)">
<path d="M0,0L720,0L720,432L0,432Z" style="fill:#FFFFFF" />
<text x="358.5" y="-420.45" transform="scale(1, -1)"
	style="font-family:Times;font-weight:normal;font-style:normal;font-size:12px"> </text>
<text x="379.31" y="-3.8613" transform="scale(1, -1)"
	style="font-family:Times;font-weight:normal;font-style:normal;font-size:12px">Costs</text>
<text x="56.555" y="-18.634" transform="scale(1, -1)"
	style="font-family:Times;font-weight:normal;font-style:normal;font-size:10px">0.00</text>
<text x="346.99" y="-18.634" transform="scale(1, -1)"
	style="font-family:Times;font-weight:normal;font-style:normal;font-size:10px">250.00</text>
<text x="642.43" y="-18.634" transform="scale(1, -1)"
	style="font-family:Times;font-weight:normal;font-style:normal;font-size:10px">500.00</text>
<path d="M65.305,28.263L65.305,36.263" style="fill:none;stroke:#000000;stroke-width:0.5" />
<path d="M360.74,28.263L360.74,36.263" style="fill:none;stroke:#000000;stroke-width:0.5" />
<path d="M656.18,28.263L656.18,36.263" style="fill:none;stroke:#000000;stroke-width:0.5" />
<path d="M124.39,32.263L124.39,36.263" style="fill:none;stroke:#000000;stroke-width:0.5" />
<path d="M183.48,32.263L183.48,36.263" style="fill:none;stroke:#000000;stroke-width:0.5" />
<path d="M242.57,32.263L242.57,36.263" style="fill:none;stroke:#000000;stroke-width:0.5" />
<path d="M301.66,32.263L301.66,36.263" style="fill:none;stroke:#000000;stroke-width:0.5" />
<path d="M419.83,32.263L419.83,36.263" style="fill:none;stroke:#000000;stroke-width:0.5" />
<path d="M478.92,32.263L478.92,36.263" style="fill:none;stroke:#000000;stroke-width:0.5" />
<path d="M538.01,32.263L538.01,36.263" style="fill:none;stroke:#000000;stroke-width:0.5" />
<path d="M597.1,32.263L597.1,36.263" style="fill:none;stroke:#000000;stroke-width:0.5" />
<path d="M715.27,32.263L715.27,36.263" style="fill:none;stroke:#000000;stroke-width:0.5" />
<path d="M65.305,36.263L720,36.263" style="fill:none;stroke:#000000;stroke-width:0.5" />
<g transform="rotate(90)">
<text x="151.73" y="11.555" transform="scale(1, -1)"
	style="font-family:Times;font-weight:normal;font-style:normal;font-size:12px">Number of trials (1000000 total)</text>
</g>
<text x="24.055" y="-94.088" transform="scale(1, -1)"
	style="font-family:Times;font-weight:normal;font-style:normal;font-size:10px">20000</text>
<text x="24.055" y="-250.52" transform="scale(1, -1)"
	style="font-family:Times;font-weight:normal;font-style:normal;font-size:10px">80000</text>
<text x="19.055" y="-406.96" transform="scale(1, -1)"
	style="font-family:Times;font-weight:normal;font-style:normal;font-size:10px">140000</text>
<path d="M51.555,97.293L59.555,97.293" style="fill:none;stroke:#000000;stroke-width:0.5" />
<path d="M51.555,253.73L59.555,253.73" style="fill:none;stroke:#000000;stroke-width:0.5" />
<path d="M51.555,410.16L59.555,410.16" style="fill:none;stroke:#000000;stroke-width:0.5" />
<path d="M55.555,175.51L59.555,175.51" style="fill:none;stroke:#000000;stroke-width:0.5" />
<path d="M55.555,331.94L59.555,331.94" style="fill:none;stroke:#000000;stroke-width:0.5" />
<path d="M59.555,45.151L59.555,414.93" style="fill:none;stroke:#000000;stroke-width:0.5" />
<path d="M65.305,414.93L96.03,87.472L97.212,69.972L98.394,86.883L99.576,58.712L100.76,59.155L101.94,51.917L103.12,55.539L104.3,48.533L105.48,78.407L106.67,58.772L107.85,126.5L109.03,70.535L110.21,55.426L111.39,74.488L112.58,52.058L113.76,55.121L114.94,51.761L116.12,84.591L117.3,73.309L118.48,86.794L119.67,59.272L122.03,86.497L123.21,58.941L124.39,48.556L125.57,48.593L127.94,54.78L129.12,49.618L130.3,49.584L131.48,58.433L132.67,55.189L133.85,48.582L135.03,77.001L136.21,50.533L137.39,50.162L138.57,66.93L139.76,78.19L140.94,58.897L142.12,56.269L143.3,54.206L144.48,64.354L145.66,52.3L146.85,55.257L148.03,61.342L149.21,62.701L150.39,61.126L151.57,82.917L152.75,62.187L153.94,61.684L155.12,57.882L156.3,90.775L157.48,55.077L158.66,62.565L159.85,89.646L161.03,71.237L162.21,61.04L163.39,55.625L164.57,62.98L165.75,60.099L166.94,53.792L168.12,59.277L169.3,55.711L170.48,58.798L171.66,53.544L172.84,58.472L174.03,56.235L175.21,59.679L176.39,53.951L177.57,57.663L178.75,52.798L179.94,54.029L181.12,54.981L182.3,59.408L183.48,54.522L184.66,57.413L185.84,57.087L187.03,59.786L188.21,57.726L189.39,58.276L190.57,59.397L191.75,63.717L192.93,61.267L194.12,60.936L195.3,57.851L196.48,59.567L197.66,57.695L198.84,60.761L200.03,56.725L201.21,57.358L202.39,64.45L203.57,58.48L204.75,57.504L205.93,56.738L207.12,56.881L208.3,58.732L209.48,58.589L210.66,57.364L211.84,55.101L213.02,59.817L214.21,55.703L215.39,52.715L216.57,55.572L217.75,55.012L218.93,54.454L220.12,51.5L221.3,53.333L222.48,53.354L223.66,52.59L224.84,52.368L226.02,56.819L227.21,53.369L228.39,52.738L229.57,55.035L230.75,55.554L231.93,52.363L233.11,53.286L234.3,55.174L235.48,54.874L236.66,52.045L237.84,52.952L239.02,53.867L240.21,52.884L241.39,52.266L242.57,54.921L243.75,53.226L244.93,53.242L246.11,54L247.3,53.049L248.48,52.186L249.66,52.35L250.84,54.809L252.02,52.824L253.2,51.633L254.39,51.664L255.57,53.017L256.75,51.896L257.93,50.379L259.11,51.685L260.3,51.198L261.48,51.289L262.66,50.353L263.84,50.673L265.02,50.564L266.2,50.697L267.39,50.173L268.57,50.606L269.75,50.139L270.93,49.894L272.11,50.089L273.29,49.928L274.48,49.453L275.66,49.844L276.84,50.084L278.02,49.912L279.2,49.597L280.39,49.492L281.57,49.79L282.75,50.053L283.93,49.623L285.11,49.615L286.29,49.831L287.48,49.633L288.66,49.477L289.84,48.932L291.02,49.052L292.2,49.268L293.38,49.263L294.57,48.661L295.75,48.851L296.93,49.039L298.11,48.637L299.29,48.721L300.48,48.483L301.66,48.494L302.84,48.473L304.02,48.762L305.2,48.319L306.38,47.98L307.57,48.212L308.75,48.124L309.93,47.91L311.11,47.485L312.29,47.993L313.47,47.824L314.66,47.493L315.84,47.592L317.02,47.657L318.2,47.568L319.38,47.365L320.56,47.709L321.75,47.573L322.93,47.089L324.11,47.206L325.29,47.48L326.47,47.284L327.66,47.203L328.84,47.036L330.02,47.245L331.2,46.963L332.38,46.914L333.56,47.049L334.75,47.042L335.93,46.919L337.11,47.021L338.29,46.937L339.47,46.83L340.65,46.838L341.84,46.656L343.02,46.614L344.2,46.632L345.38,46.617L346.56,46.757L347.75,46.52L348.93,46.377L350.11,46.429L351.29,46.554L352.47,46.372L353.65,46.395L354.84,46.385L356.02,46.426L357.2,46.301L358.38,46.233L359.56,46.257L360.74,46.301L361.93,46.155L363.11,46.272L364.29,46.189L365.47,46.147L366.65,46.069L367.84,46.069L369.02,46.046L370.2,46.048L371.38,46.009L372.56,45.988L373.74,46.02L374.93,45.816L376.11,45.913L377.29,45.941L378.47,46.001L379.65,45.926L380.83,45.814L382.02,45.975L383.2,45.874L384.38,45.738L385.56,45.782L386.74,45.743L387.93,45.829L389.11,45.777L390.29,45.694L391.47,45.704L392.65,45.6L393.83,45.665L395.02,45.605L396.2,45.647L397.38,45.595L398.56,45.621L399.74,45.574L400.92,45.582L402.11,45.628L403.29,45.61L404.47,45.587L405.65,45.592L406.83,45.571L408.02,45.553L409.2,45.428L410.38,45.462L411.56,45.493L412.74,45.522L413.92,45.472L415.11,45.438L416.29,45.446L417.47,45.451L418.65,45.409L419.83,45.441L421.01,45.391L422.2,45.404L423.38,45.399L424.56,45.441L425.74,45.428L426.92,45.404L428.11,45.383L429.29,45.357L430.47,45.407L431.65,45.347L432.83,45.334L434.01,45.373L435.2,45.334L436.38,45.316L437.56,45.355L438.74,45.342L439.92,45.308L441.1,45.303L442.29,45.326L443.47,45.342L444.65,45.284L445.83,45.318L447.01,45.308L448.2,45.326L449.38,45.303L450.56,45.295L451.74,45.321L452.92,45.263L454.1,45.248L455.29,45.295L456.47,45.271L457.65,45.269L458.83,45.274L460.01,45.258L461.19,45.271L462.38,45.248L463.56,45.261L464.74,45.258L465.92,45.258L467.1,45.232L468.29,45.214L469.47,45.232L470.65,45.23L471.83,45.23L473.01,45.232L474.19,45.209L475.38,45.227L476.56,45.227L477.74,45.235L478.92,45.206L480.1,45.211L481.28,45.196L482.47,45.209L483.65,45.196L484.83,45.206L486.01,45.19L487.19,45.206L488.37,45.188L489.56,45.217L490.74,45.201L491.92,45.204L493.1,45.19L494.28,45.19L495.47,45.183L496.65,45.196L497.83,45.183L499.01,45.183L500.19,45.19L501.37,45.185L502.56,45.172L503.74,45.17L504.92,45.183L506.1,45.175L507.28,45.17L508.46,45.175L509.65,45.164L510.83,45.167L512.01,45.177L513.19,45.177L514.37,45.167L515.56,45.18L516.74,45.167L517.92,45.164L519.1,45.167L520.28,45.172L521.46,45.162L522.65,45.172L523.83,45.162L525.01,45.157L526.19,45.159L527.37,45.162L528.55,45.17L529.74,45.167L532.1,45.177L533.28,45.162L534.46,45.17L535.65,45.159L536.83,45.151L538.01,45.17L539.19,45.159L540.37,45.157L541.55,45.157L542.74,45.157L543.92,45.159L545.1,45.159L546.28,45.154L547.46,45.157L548.64,45.162L549.83,45.157L551.01,45.157L552.19,45.151L553.37,45.162L555.74,45.172L556.92,45.154L558.1,45.164L559.28,45.151L560.46,45.154L561.64,45.154L562.83,45.159L564.01,45.151L565.19,45.151L567.55,45.157L568.73,45.151L569.92,45.151L572.28,45.154L573.46,45.151L574.64,45.154L575.83,45.157L577.01,45.151L578.19,45.151L579.37,45.151L580.55,45.151L581.73,45.151L586.46,45.151L592.37,45.157L593.55,45.151L597.1,45.154L598.28,45.151L600.64,45.154L603.01,45.151L606.55,45.151L607.73,45.151L608.91,45.154L611.28,45.154L612.46,45.154L613.64,45.151L629,45.151L632.55,45.151L634.91,45.151L645.55,45.151L676.27,45.151L685.73,45.151L703.46,45.151L720,45.151" style="fill:none;stroke:#0000FF" />
</g>
</svg>
