<?xml version="1.0"?>
<!-- Generated by SVGo and Plotinum VG -->
<svg width="720pt" height="432pt" viewBox="0 0 720 432"
	xmlns="http://www.w3.org/2000/svg"
	xmlns:xlink="http://www.w3.org/1999/xlink">
<g transform="scale(1, -1) translate(0, -432)">
<path d="M0,0L720,0L720,432L0,432Z" style="fill:#FFFFFF" />
<text x="358.5" y="-420.45" transform="scale(1, -1)"
	style="font-family:Times;font-weight:normal;font-style:normal;font-size:12px"> </text>
<text x="373.08" y="-3.8613" transform="scale(1, -1)"
	style="font-family:Times;font-weight:normal;font-style:normal;font-size:12px">Costs</text>
<text x="56.555" y="-18.634" transform="scale(1, -1)"
	style="font-family:Times;font-weight:normal;font-style:normal;font-size:10px">0.00</text>
<text x="372.03" y="-18.634" transform="scale(1, -1)"
	style="font-family:Times;font-weight:normal;font-style:normal;font-size:10px">250.00</text>
<text x="692.5" y="-18.634" transform="scale(1, -1)"
	style="font-family:Times;font-weight:normal;font-style:normal;font-size:10px">500.00</text>
<path d="M65.305,28.263L65.305,36.263" style="fill:none;stroke:#000000;stroke-width:0.5" />
<path d="M385.78,28.263L385.78,36.263" style="fill:none;stroke:#000000;stroke-width:0.5" />
<path d="M706.25,28.263L706.25,36.263" style="fill:none;stroke:#000000;stroke-width:0.5" />
<path d="M129.4,32.263L129.4,36.263" style="fill:none;stroke:#000000;stroke-width:0.5" />
<path d="M193.49,32.263L193.49,36.263" style="fill:none;stroke:#000000;stroke-width:0.5" />
<path d="M257.59,32.263L257.59,36.263" style="fill:none;stroke:#000000;stroke-width:0.5" />
<path d="M321.68,32.263L321.68,36.263" style="fill:none;stroke:#000000;stroke-width:0.5" />
<path d="M449.87,32.263L449.87,36.263" style="fill:none;stroke:#000000;stroke-width:0.5" />
<path d="M513.97,32.263L513.97,36.263" style="fill:none;stroke:#000000;stroke-width:0.5" />
<path d="M578.06,32.263L578.06,36.263" style="fill:none;stroke:#000000;stroke-width:0.5" />
<path d="M642.16,32.263L642.16,36.263" style="fill:none;stroke:#000000;stroke-width:0.5" />
<path d="M65.305,36.263L707.53,36.263" style="fill:none;stroke:#000000;stroke-width:0.5" />
<g transform="rotate(90)">
<text x="152.55" y="11.555" transform="scale(1, -1)"
	style="font-family:Times;font-weight:normal;font-style:normal;font-size:12px">Number of trials (1000000 total)</text>
</g>
<text x="24.055" y="-111.13" transform="scale(1, -1)"
	style="font-family:Times;font-weight:normal;font-style:normal;font-size:10px">40000</text>
<text x="19.055" y="-249.5" transform="scale(1, -1)"
	style="font-family:Times;font-weight:normal;font-style:normal;font-size:10px">120000</text>
<text x="19.055" y="-387.87" transform="scale(1, -1)"
	style="font-family:Times;font-weight:normal;font-style:normal;font-size:10px">200000</text>
<path d="M51.555,114.33L59.555,114.33" style="fill:none;stroke:#000000;stroke-width:0.5" />
<path d="M51.555,252.7L59.555,252.7" style="fill:none;stroke:#000000;stroke-width:0.5" />
<path d="M51.555,391.07L59.555,391.07" style="fill:none;stroke:#000000;stroke-width:0.5" />
<path d="M55.555,183.52L59.555,183.52" style="fill:none;stroke:#000000;stroke-width:0.5" />
<path d="M55.555,321.89L59.555,321.89" style="fill:none;stroke:#000000;stroke-width:0.5" />
<path d="M59.555,45.151L59.555,416.58" style="fill:none;stroke:#000000;stroke-width:0.5" />
<path d="M65.305,416.58L94.788,48.623L96.07,52.014L98.634,85.076L99.916,55.399L101.2,66.382L102.48,52.042L106.33,73.78L107.61,65.357L108.89,84.092L110.17,62.65L112.73,66.453L114.02,55.232L115.3,58.922L116.58,76.36L117.86,69.622L119.14,76.084L120.43,58.879L121.71,69.655L124.27,73.398L125.55,45.191L128.12,56.079L129.4,56.235L130.68,55.954L131.96,46.513L133.24,60.048L134.53,54.348L135.81,61.048L137.09,60.278L138.37,49.799L139.65,49.069L140.94,51.923L142.22,81.049L143.5,57.566L144.78,55.463L146.06,49.714L147.35,48.149L148.63,50.266L149.91,54.076L151.19,60.611L152.47,53.673L153.76,52.974L155.04,53.158L156.32,58.165L157.6,54.789L158.88,52.26L160.16,65.936L161.45,54.578L162.73,54.65L164.01,53.888L165.29,54.002L166.57,54.31L167.86,74.496L169.14,69.07L170.42,53.274L171.7,55.574L172.98,54.109L174.27,52.705L175.55,55.643L176.83,53.991L178.11,55.956L179.39,52.063L180.67,52.969L181.96,50.517L183.24,52.22L184.52,54.069L185.8,54.469L187.08,54.55L188.37,51.712L189.65,53.912L190.93,50.771L192.21,52.267L193.49,53.862L194.78,52.888L196.06,53.194L197.34,51.394L198.62,52.539L199.9,50.719L201.19,55.117L202.47,52.461L203.75,52.755L205.03,52.397L206.31,50.349L207.59,51.618L208.88,51.471L210.16,53.521L211.44,53.528L212.72,53.661L214,51.961L215.29,51.414L216.57,51.139L217.85,50.098L219.13,52.44L220.41,52.431L221.7,52.497L222.98,51.509L224.26,50.894L225.54,50.172L226.82,50.648L228.1,51.31L229.39,49.102L230.67,50.005L231.95,50.259L233.23,50.368L234.51,49.467L235.8,49.614L237.08,50.895L238.36,50.032L239.64,50.131L240.92,49.605L242.21,48.841L243.49,49.045L244.77,50.477L246.05,50.783L247.33,49.285L248.62,48.82L249.9,48.327L251.18,48.45L252.46,48.766L253.74,49.046L255.02,48.955L256.31,48.56L257.59,48.583L258.87,48.559L260.15,48.573L261.43,48.308L262.72,48.796L264,48.967L265.28,48.303L266.56,48.176L267.84,48.029L269.13,48.081L270.41,47.851L271.69,48.803L272.97,47.978L274.25,47.711L275.53,47.825L276.82,47.632L278.1,47.703L279.38,47.82L280.66,47.803L281.94,47.549L283.23,47.338L284.51,47.313L285.79,47.144L287.07,47.324L288.35,47.467L289.64,47.469L290.92,47.225L292.2,47.166L293.48,47.092L294.76,46.978L296.04,47.104L297.33,47.118L298.61,46.978L299.89,46.907L301.17,46.819L302.45,46.772L303.74,46.76L305.02,46.767L306.3,46.635L307.58,46.732L308.86,46.613L310.15,46.668L311.43,46.39L312.71,46.611L313.99,46.552L315.27,46.585L316.56,46.513L317.84,46.372L319.12,46.343L320.4,46.236L321.68,46.239L322.96,46.338L324.25,46.253L325.53,46.293L326.81,46.094L328.09,46.161L329.37,46.025L330.66,46.151L331.94,46.122L333.22,46.078L334.5,46.046L335.78,46.039L337.07,46.054L338.35,45.876L339.63,46.008L340.91,46.006L342.19,45.931L343.47,45.959L344.76,45.909L346.04,45.819L347.32,45.824L348.6,45.912L349.88,45.838L351.17,45.859L352.45,45.776L353.73,45.743L355.01,45.701L356.29,45.715L357.58,45.748L358.86,45.745L360.14,45.679L361.42,45.634L362.7,45.669L363.99,45.672L365.27,45.649L366.55,45.636L367.83,45.644L369.11,45.618L370.39,45.592L371.68,45.547L372.96,45.508L374.24,45.53L375.52,45.534L376.8,45.518L378.09,45.515L379.37,45.475L380.65,45.497L381.93,45.528L383.21,45.506L384.5,45.477L385.78,45.432L387.06,45.421L388.34,45.421L389.62,45.432L390.9,45.378L392.19,45.435L393.47,45.385L394.75,45.397L396.03,45.407L397.31,45.387L398.6,45.359L399.88,45.409L401.16,45.34L402.44,45.314L403.72,45.359L405.01,45.319L406.29,45.321L407.57,45.321L408.85,45.321L410.13,45.331L411.42,45.324L412.7,45.316L413.98,45.274L415.26,45.297L416.54,45.288L417.82,45.26L419.11,45.286L420.39,45.297L421.67,45.26L422.95,45.283L424.23,45.266L425.52,45.272L426.8,45.267L428.08,45.266L429.36,45.227L430.64,45.253L431.93,45.236L433.21,45.231L434.49,45.257L435.77,45.246L437.05,45.259L438.33,45.236L439.62,45.24L440.9,45.241L442.18,45.221L443.46,45.241L444.74,45.217L446.03,45.214L447.31,45.215L448.59,45.233L449.87,45.221L451.15,45.198L452.44,45.215L453.72,45.224L455,45.184L456.28,45.196L457.56,45.184L458.85,45.195L460.13,45.195L461.41,45.198L462.69,45.202L463.97,45.189L465.25,45.203L466.54,45.2L467.82,45.195L469.1,45.2L470.38,45.177L471.66,45.183L472.95,45.177L474.23,45.196L475.51,45.183L476.79,45.186L478.07,45.174L479.36,45.172L480.64,45.184L481.92,45.177L483.2,45.174L484.48,45.172L485.76,45.169L487.05,45.172L488.33,45.174L489.61,45.169L490.89,45.169L492.17,45.17L493.46,45.167L494.74,45.174L496.02,45.169L497.3,45.167L498.58,45.162L499.87,45.172L501.15,45.162L502.43,45.165L503.71,45.172L504.99,45.16L506.28,45.16L507.56,45.158L508.84,45.158L510.12,45.165L511.4,45.169L512.68,45.157L513.97,45.163L515.25,45.157L516.53,45.169L517.81,45.157L519.09,45.167L520.38,45.155L521.66,45.158L522.94,45.162L524.22,45.153L525.5,45.155L526.79,45.151L528.07,45.16L529.35,45.151L530.63,45.158L531.91,45.155L533.19,45.16L534.48,45.157L535.76,45.16L537.04,45.155L538.32,45.163L540.89,45.151L542.17,45.153L543.45,45.153L544.73,45.153L546.01,45.158L547.3,45.157L548.58,45.158L549.86,45.151L551.14,45.153L552.42,45.158L553.71,45.16L554.99,45.153L556.27,45.151L557.55,45.155L560.11,45.151L561.4,45.151L562.68,45.151L563.96,45.153L565.24,45.151L566.52,45.155L567.81,45.153L574.22,45.151L575.5,45.155L576.78,45.151L578.06,45.155L579.34,45.151L581.91,45.151L584.47,45.151L587.03,45.151L589.6,45.153L592.16,45.151L596.01,45.151L599.85,45.151L601.13,45.151L602.42,45.151L603.7,45.151L604.98,45.153L607.54,45.153L613.95,45.151L619.08,45.151L633.18,45.153L692.15,45.151L707.53,45.151" style="fill:none;stroke:#0000FF" />
</g>
</svg>
