<?xml version="1.0"?>
<!-- Generated by SVGo and Plotinum VG -->
<svg width="720pt" height="432pt" viewBox="0 0 720 432"
	xmlns="http://www.w3.org/2000/svg"
	xmlns:xlink="http://www.w3.org/1999/xlink">
<g transform="scale(1, -1) translate(0, -432)">
<path d="M0,0L720,0L720,432L0,432Z" style="fill:#FFFFFF" />
<text x="358.5" y="-420.45" transform="scale(1, -1)"
	style="font-family:Times;font-weight:normal;font-style:normal;font-size:12px"> </text>
<text x="376.81" y="-3.8613" transform="scale(1, -1)"
	style="font-family:Times;font-weight:normal;font-style:normal;font-size:12px">Costs</text>
<text x="51.555" y="-18.634" transform="scale(1, -1)"
	style="font-family:Times;font-weight:normal;font-style:normal;font-size:10px">0.00</text>
<text x="353.1" y="-18.634" transform="scale(1, -1)"
	style="font-family:Times;font-weight:normal;font-style:normal;font-size:10px">250.00</text>
<text x="659.65" y="-18.634" transform="scale(1, -1)"
	style="font-family:Times;font-weight:normal;font-style:normal;font-size:10px">500.00</text>
<path d="M60.305,28.263L60.305,36.263" style="fill:none;stroke:#000000;stroke-width:0.5" />
<path d="M366.85,28.263L366.85,36.263" style="fill:none;stroke:#000000;stroke-width:0.5" />
<path d="M673.4,28.263L673.4,36.263" style="fill:none;stroke:#000000;stroke-width:0.5" />
<path d="M121.61,32.263L121.61,36.263" style="fill:none;stroke:#000000;stroke-width:0.5" />
<path d="M182.92,32.263L182.92,36.263" style="fill:none;stroke:#000000;stroke-width:0.5" />
<path d="M244.23,32.263L244.23,36.263" style="fill:none;stroke:#000000;stroke-width:0.5" />
<path d="M305.54,32.263L305.54,36.263" style="fill:none;stroke:#000000;stroke-width:0.5" />
<path d="M428.16,32.263L428.16,36.263" style="fill:none;stroke:#000000;stroke-width:0.5" />
<path d="M489.47,32.263L489.47,36.263" style="fill:none;stroke:#000000;stroke-width:0.5" />
<path d="M550.78,32.263L550.78,36.263" style="fill:none;stroke:#000000;stroke-width:0.5" />
<path d="M612.09,32.263L612.09,36.263" style="fill:none;stroke:#000000;stroke-width:0.5" />
<path d="M60.305,36.263L720,36.263" style="fill:none;stroke:#000000;stroke-width:0.5" />
<g transform="rotate(90)">
<text x="152.55" y="11.555" transform="scale(1, -1)"
	style="font-family:Times;font-weight:normal;font-style:normal;font-size:12px">Number of trials (1000000 total)</text>
</g>
<text x="24.055" y="-68.749" transform="scale(1, -1)"
	style="font-family:Times;font-weight:normal;font-style:normal;font-size:10px">5000</text>
<text x="19.055" y="-175.98" transform="scale(1, -1)"
	style="font-family:Times;font-weight:normal;font-style:normal;font-size:10px">25000</text>
<text x="19.055" y="-283.22" transform="scale(1, -1)"
	style="font-family:Times;font-weight:normal;font-style:normal;font-size:10px">45000</text>
<text x="19.055" y="-390.45" transform="scale(1, -1)"
	style="font-family:Times;font-weight:normal;font-style:normal;font-size:10px">65000</text>
<path d="M46.555,71.955L54.555,71.955" style="fill:none;stroke:#000000;stroke-width:0.5" />
<path d="M46.555,179.19L54.555,179.19" style="fill:none;stroke:#000000;stroke-width:0.5" />
<path d="M46.555,286.42L54.555,286.42" style="fill:none;stroke:#000000;stroke-width:0.5" />
<path d="M46.555,393.66L54.555,393.66" style="fill:none;stroke:#000000;stroke-width:0.5" />
<path d="M50.555,125.57L54.555,125.57" style="fill:none;stroke:#000000;stroke-width:0.5" />
<path d="M50.555,232.81L54.555,232.81" style="fill:none;stroke:#000000;stroke-width:0.5" />
<path d="M50.555,340.04L54.555,340.04" style="fill:none;stroke:#000000;stroke-width:0.5" />
<path d="M54.555,45.151L54.555,416.58" style="fill:none;stroke:#000000;stroke-width:0.5" />
<path d="M60.305,416.58L87.281,78.919L94.638,92.19L95.864,63.96L97.091,52.701L98.317,56.877L99.543,59.767L100.77,70.507L102,78.147L103.22,105.34L104.45,79.675L105.67,89.144L106.9,52.309L108.13,81.573L109.35,126.09L110.58,86.672L111.81,86.249L113.03,74.775L114.26,104.55L115.48,79.322L120.39,78.909L121.61,83.187L122.84,53.676L124.07,45.832L125.29,61.172L126.52,93.466L127.75,47.226L128.97,94.249L130.2,120.82L131.42,56.759L132.65,84.651L133.88,59.816L135.1,56.057L136.33,94.683L137.56,58.357L138.78,56.518L140.01,57.692L141.23,57.129L142.46,66.244L143.69,65.327L144.91,64.92L146.14,63.649L147.36,101.37L148.59,70.979L149.82,77.284L151.04,70.062L152.27,73.279L153.5,75.166L154.72,77.289L155.95,77.654L157.17,81.284L158.4,82.844L159.63,82.732L160.85,74.035L162.08,71.906L163.31,82.871L164.53,82.769L165.76,72.239L166.98,71.225L168.21,70.973L169.44,77.879L170.66,79.938L171.89,77.826L173.12,75.214L174.34,81.847L175.57,84.12L176.79,74.432L178.02,80.405L179.25,84.442L180.47,79.579L181.7,85.863L182.92,76.137L184.15,77.102L185.38,76.453L186.6,71.542L187.83,70.711L189.06,67.295L190.28,77.3L191.51,74.544L192.73,69.51L193.96,66.518L195.19,73.14L196.41,80.104L197.64,72.705L198.87,80.088L200.09,71.107L201.32,76.769L202.54,80.346L203.77,70.03L205,71.842L206.22,74.442L207.45,71.938L208.67,76.217L209.9,69.424L211.13,69.032L212.35,72.753L213.58,73.912L214.81,69.059L216.03,72.282L217.26,74.828L218.48,73.086L219.71,75.011L220.94,71.392L222.16,70.904L223.39,75.408L224.62,73.381L225.84,72.137L227.07,71.124L228.29,72.148L229.52,72.625L230.75,71.434L231.97,69.998L233.2,69.874L234.43,70.292L235.65,68.904L236.88,68.893L238.1,67.601L239.33,68.668L240.56,68.754L241.78,68.196L243.01,67.397L244.23,68.175L245.46,69.301L246.69,68.293L247.91,67.456L249.14,66.974L250.37,68.035L251.59,68.78L252.82,65.596L254.04,66.073L255.27,64.609L256.5,65.354L257.72,65.558L258.95,64.507L260.18,64.85L261.4,63.853L262.63,64.373L263.85,64.518L265.08,63.708L266.31,63.66L267.53,64.33L268.76,63.933L269.98,62.963L271.21,62.984L272.44,64.03L273.66,61.966L274.89,62.421L276.12,61.301L277.34,62.416L278.57,62.679L279.79,61.408L281.02,60.926L282.25,60.674L283.47,60.191L284.7,60.802L285.93,60.556L287.15,59.794L288.38,60.164L289.6,60.368L290.83,59.43L292.06,59.585L293.28,59.821L294.51,59.44L295.73,59.027L296.96,58.481L298.19,58.368L299.41,58.341L300.64,57.982L301.87,57.912L303.09,57.178L304.32,57.596L305.54,57.285L306.77,57.355L308,56.352L309.22,56.331L310.45,56.121L311.68,56.068L312.9,56.213L314.13,56.465L315.35,56.079L316.58,55.489L317.81,55.097L319.03,54.861L320.26,55.205L321.49,54.374L322.71,54.62L323.94,54.25L325.16,54.186L326.39,54.229L327.62,54.164L328.84,53.891L330.07,53.778L331.29,53.752L332.52,53.269L333.75,53.231L334.97,52.953L336.2,52.765L337.43,52.701L338.65,52.856L339.88,52.518L341.1,52.524L342.33,52.272L343.56,51.993L344.78,52.111L346.01,51.939L347.24,52.207L348.46,51.441L349.69,51.333L350.91,51.242L352.14,50.985L353.37,51.387L354.59,51.253L355.82,50.599L357.04,50.658L358.27,50.427L359.5,50.733L360.72,50.486L361.95,50.266L363.18,50.465L364.4,50.175L365.63,50.256L366.85,49.864L368.08,49.762L369.31,49.821L370.53,49.993L371.76,49.961L372.99,49.253L374.21,49.366L375.44,49.607L376.66,49.044L377.89,48.985L379.12,49.012L380.34,48.964L381.57,48.567L382.8,48.749L384.02,48.744L385.25,48.39L386.47,48.567L387.7,48.551L388.93,48.374L390.15,48.127L391.38,48.143L392.6,48.283L393.83,48.191L395.06,48.052L396.28,47.795L397.51,47.832L398.74,47.757L399.96,47.945L401.19,47.805L402.41,47.382L403.64,47.575L404.87,47.371L406.09,47.419L407.32,47.661L408.55,47.312L409.77,47.339L411,47.259L412.22,47.092L413.45,47.323L414.68,47.221L415.9,46.84L417.13,47.007L418.35,46.862L419.58,46.808L420.81,46.921L422.03,46.696L423.26,46.626L424.49,46.599L425.71,46.658L426.94,46.524L428.16,46.519L429.39,46.615L430.62,46.535L431.84,46.497L433.07,46.454L434.3,46.524L435.52,46.449L436.75,46.368L437.97,46.513L439.2,46.315L440.43,46.218L441.65,46.267L442.88,46.251L444.11,46.304L445.33,46.154L446.56,46.272L447.78,46.245L449.01,46.1L450.24,46.224L451.46,46.004L452.69,46.084L453.91,45.918L455.14,46.009L456.37,45.918L457.59,45.87L458.82,45.859L460.05,46.009L461.27,45.816L462.5,45.875L463.72,45.891L464.95,45.923L466.18,45.854L467.4,45.784L468.63,45.741L469.86,45.741L471.08,45.757L472.31,45.688L473.53,45.752L474.76,45.639L475.99,45.709L477.21,45.618L478.44,45.698L479.66,45.618L480.89,45.602L482.12,45.634L483.34,45.591L484.57,45.602L485.8,45.505L487.02,45.505L488.25,45.527L489.47,45.553L490.7,45.5L491.93,45.527L493.15,45.436L494.38,45.489L495.61,45.511L496.83,45.495L498.06,45.468L499.28,45.478L500.51,45.495L501.74,45.441L502.96,45.516L504.19,45.393L505.42,45.334L506.64,45.403L507.87,45.377L509.09,45.36L510.32,45.339L511.55,45.307L512.77,45.419L514,45.371L515.22,45.387L516.45,45.35L517.68,45.377L518.9,45.409L520.13,45.328L521.36,45.301L522.58,45.275L523.81,45.307L525.03,45.318L526.26,45.301L527.49,45.296L528.71,45.275L529.94,45.269L531.17,45.285L532.39,45.318L533.62,45.269L534.84,45.248L536.07,45.312L537.3,45.275L538.52,45.259L539.75,45.269L540.97,45.237L542.2,45.259L543.43,45.232L544.65,45.253L545.88,45.259L547.11,45.237L548.33,45.194L549.56,45.232L550.78,45.216L552.01,45.232L553.24,45.216L554.46,45.194L555.69,45.21L556.92,45.184L558.14,45.21L559.37,45.216L560.59,45.21L561.82,45.221L563.05,45.189L564.27,45.205L565.5,45.178L566.73,45.21L567.95,45.21L569.18,45.205L570.4,45.216L571.63,45.189L572.86,45.173L574.08,45.189L575.31,45.178L576.53,45.162L577.76,45.194L578.99,45.189L580.21,45.173L581.44,45.178L582.67,45.189L583.89,45.178L585.12,45.184L586.34,45.157L587.57,45.162L588.8,45.173L590.02,45.173L591.25,45.173L592.48,45.167L593.7,45.162L594.93,45.167L596.15,45.157L597.38,45.151L598.61,45.162L599.83,45.167L602.28,45.162L603.51,45.162L604.74,45.157L605.96,45.162L607.19,45.173L608.42,45.162L609.64,45.151L610.87,45.162L612.09,45.151L613.32,45.167L614.55,45.157L615.77,45.162L617,45.151L618.23,45.157L619.45,45.151L620.68,45.157L621.9,45.178L623.13,45.167L624.36,45.162L625.58,45.157L626.81,45.157L628.04,45.173L629.26,45.162L630.49,45.162L631.71,45.157L632.94,45.157L634.17,45.157L635.39,45.151L636.62,45.151L637.84,45.157L639.07,45.151L640.3,45.157L641.52,45.173L642.75,45.151L645.2,45.151L646.43,45.151L647.65,45.157L648.88,45.157L650.11,45.151L651.33,45.151L652.56,45.162L656.24,45.151L658.69,45.151L659.92,45.151L662.37,45.151L666.05,45.151L668.5,45.157L672.18,45.151L674.63,45.157L677.08,45.151L684.44,45.151L705.29,45.151L720,45.151" style="fill:none;stroke:#0000FF" />
</g>
</svg>
