<?xml version="1.0"?>
<!-- Generated by SVGo and Plotinum VG -->
<svg width="720pt" height="432pt" viewBox="0 0 720 432"
	xmlns="http://www.w3.org/2000/svg"
	xmlns:xlink="http://www.w3.org/1999/xlink">
<g transform="scale(1, -1) translate(0, -432)">
<path d="M0,0L720,0L720,432L0,432Z" style="fill:#FFFFFF" />
<text x="358.5" y="-420.45" transform="scale(1, -1)"
	style="font-family:Times;font-weight:normal;font-style:normal;font-size:12px"> </text>
<text x="372.89" y="-3.8613" transform="scale(1, -1)"
	style="font-family:Times;font-weight:normal;font-style:normal;font-size:12px">Costs</text>
<text x="56.184" y="-18.634" transform="scale(1, -1)"
	style="font-family:Times;font-weight:normal;font-style:normal;font-size:10px">0.00</text>
<text x="371.84" y="-18.634" transform="scale(1, -1)"
	style="font-family:Times;font-weight:normal;font-style:normal;font-size:10px">250.00</text>
<text x="692.5" y="-18.634" transform="scale(1, -1)"
	style="font-family:Times;font-weight:normal;font-style:normal;font-size:10px">500.00</text>
<path d="M64.934,28.263L64.934,36.263" style="fill:none;stroke:#000000;stroke-width:0.5" />
<path d="M385.59,28.263L385.59,36.263" style="fill:none;stroke:#000000;stroke-width:0.5" />
<path d="M706.25,28.263L706.25,36.263" style="fill:none;stroke:#000000;stroke-width:0.5" />
<path d="M129.07,32.263L129.07,36.263" style="fill:none;stroke:#000000;stroke-width:0.5" />
<path d="M193.2,32.263L193.2,36.263" style="fill:none;stroke:#000000;stroke-width:0.5" />
<path d="M257.33,32.263L257.33,36.263" style="fill:none;stroke:#000000;stroke-width:0.5" />
<path d="M321.46,32.263L321.46,36.263" style="fill:none;stroke:#000000;stroke-width:0.5" />
<path d="M449.72,32.263L449.72,36.263" style="fill:none;stroke:#000000;stroke-width:0.5" />
<path d="M513.86,32.263L513.86,36.263" style="fill:none;stroke:#000000;stroke-width:0.5" />
<path d="M577.99,32.263L577.99,36.263" style="fill:none;stroke:#000000;stroke-width:0.5" />
<path d="M642.12,32.263L642.12,36.263" style="fill:none;stroke:#000000;stroke-width:0.5" />
<path d="M64.934,36.263L707.53,36.263" style="fill:none;stroke:#000000;stroke-width:0.5" />
<g transform="rotate(90)">
<text x="152.55" y="11.555" transform="scale(1, -1)"
	style="font-family:Times;font-weight:normal;font-style:normal;font-size:12px">Number of trials (1000000 total)</text>
</g>
<text x="23.684" y="-72.38" transform="scale(1, -1)"
	style="font-family:Times;font-weight:normal;font-style:normal;font-size:10px">10000</text>
<text x="23.684" y="-224.57" transform="scale(1, -1)"
	style="font-family:Times;font-weight:normal;font-style:normal;font-size:10px">60000</text>
<text x="19.055" y="-376.75" transform="scale(1, -1)"
	style="font-family:Times;font-weight:normal;font-style:normal;font-size:10px">110000</text>
<path d="M51.184,75.585L59.184,75.585" style="fill:none;stroke:#000000;stroke-width:0.5" />
<path d="M51.184,227.77L59.184,227.77" style="fill:none;stroke:#000000;stroke-width:0.5" />
<path d="M51.184,379.96L59.184,379.96" style="fill:none;stroke:#000000;stroke-width:0.5" />
<path d="M55.184,106.02L59.184,106.02" style="fill:none;stroke:#000000;stroke-width:0.5" />
<path d="M55.184,136.46L59.184,136.46" style="fill:none;stroke:#000000;stroke-width:0.5" />
<path d="M55.184,166.9L59.184,166.9" style="fill:none;stroke:#000000;stroke-width:0.5" />
<path d="M55.184,197.33L59.184,197.33" style="fill:none;stroke:#000000;stroke-width:0.5" />
<path d="M55.184,258.21L59.184,258.21" style="fill:none;stroke:#000000;stroke-width:0.5" />
<path d="M55.184,288.64L59.184,288.64" style="fill:none;stroke:#000000;stroke-width:0.5" />
<path d="M55.184,319.08L59.184,319.08" style="fill:none;stroke:#000000;stroke-width:0.5" />
<path d="M55.184,349.52L59.184,349.52" style="fill:none;stroke:#000000;stroke-width:0.5" />
<path d="M55.184,410.39L59.184,410.39" style="fill:none;stroke:#000000;stroke-width:0.5" />
<path d="M59.184,45.151L59.184,416.58" style="fill:none;stroke:#000000;stroke-width:0.5" />
<path d="M64.934,416.58L93.152,74.675L94.434,74.922L95.717,48.633L98.282,88.165L100.85,48.606L102.13,59.487L104.7,55.573L105.98,58.802L107.26,73.595L108.54,94.45L109.83,52.143L111.11,63.417L112.39,81.755L113.67,59.359L114.96,97.604L116.24,69.026L117.52,51.762L118.8,76.103L120.09,84.391L121.37,80.568L122.65,50.679L123.93,48.862L125.22,45.419L126.5,63.347L127.78,59.079L129.07,63.618L130.35,53.427L131.63,47.023L132.91,99.214L134.2,58.075L135.48,53.768L136.76,76.167L138.04,58.267L139.33,59.913L140.61,69.991L141.89,61.551L143.17,80.644L144.46,68.408L145.74,68.402L147.02,51.656L148.3,60.358L149.59,58.507L150.87,69.507L152.15,56.669L153.44,55.19L154.72,57.518L156,58.382L157.28,57.685L158.57,64.318L159.85,59.253L161.13,60.985L162.41,67.443L163.7,61.84L164.98,59.91L166.26,64.917L167.54,71.954L168.83,90.454L170.11,66.083L171.39,62.02L172.67,60.632L173.96,61.606L175.24,59.722L176.52,68.183L177.81,58.422L179.09,60.19L180.37,63.672L181.65,57.597L182.94,65.757L184.22,65.803L185.5,59.204L186.78,65.075L188.07,64.397L189.35,62.978L190.63,61.962L191.91,61.338L193.2,61.441L194.48,61.983L195.76,61.006L197.04,63.395L198.33,62.239L199.61,59.155L200.89,61.925L202.18,61.064L203.46,54.803L204.74,60.75L206.02,59.067L207.31,58.413L208.59,59.262L209.87,59.435L211.15,62.087L212.44,63.38L213.72,59.63L215,60.117L216.28,59.977L217.57,59.932L218.85,63.131L220.13,59.119L221.41,57.536L222.7,61.195L223.98,60.546L225.26,58.498L226.55,57.125L227.83,55.774L229.11,56.014L230.39,58.233L231.68,57.786L232.96,56.87L234.24,56.288L235.52,56.909L236.81,60.017L238.09,56.903L239.37,56.614L240.65,57.67L241.94,56.678L243.22,56.797L244.5,57.469L245.78,56.44L247.07,57.618L248.35,57.317L249.63,55.701L250.92,54.639L252.2,55.454L253.48,55.107L254.76,55.981L256.05,54.833L257.33,54.295L258.61,54.715L259.89,54.38L261.18,54.13L262.46,54.922L263.74,54.642L265.02,54.146L266.31,54.614L267.59,54.252L268.87,53.99L270.15,53.917L271.44,54.106L272.72,53.671L274,53.869L275.29,52.977L276.57,53.032L277.85,52.818L279.13,52.782L280.42,53.095L281.7,52.347L282.98,52.353L284.26,52.432L285.55,52.188L286.83,53.044L288.11,52.362L289.39,52.201L290.68,52.371L291.96,52.146L293.24,52.027L294.52,51.82L295.81,51.619L297.09,51.501L298.37,51.479L299.66,51.214L300.94,50.822L302.22,51.074L303.5,50.87L304.79,50.883L306.07,50.307L307.35,50.326L308.63,50.536L309.92,50.225L311.2,50.469L312.48,50.119L313.76,49.863L315.05,49.994L316.33,50.21L317.61,50.024L318.89,49.616L320.18,49.638L321.46,49.495L322.74,49.516L324.03,49.33L325.31,49.376L326.59,49.273L327.87,49.388L329.16,48.923L330.44,49.126L331.72,48.941L333,49.041L334.29,48.889L335.57,48.591L336.85,48.509L338.13,48.439L339.42,48.469L340.7,48.283L341.98,48.609L343.26,48.387L344.55,48.186L345.83,48.378L347.11,48.076L348.4,48.095L349.68,48.028L350.96,47.933L352.24,47.912L353.53,47.629L354.81,47.891L356.09,47.69L357.37,47.599L358.66,47.742L359.94,47.544L361.22,47.462L362.5,47.541L363.79,47.41L365.07,47.434L366.35,47.337L367.63,47.306L368.92,47.157L370.2,47.343L371.48,47.099L372.77,47.051L374.05,47.051L375.33,47.145L376.61,46.914L377.9,46.88L379.18,46.798L380.46,46.761L381.74,46.868L383.03,46.923L384.31,46.752L385.59,46.625L386.87,46.783L388.16,46.655L389.44,46.637L390.72,46.588L392,46.472L393.29,46.503L394.57,46.491L395.85,46.43L397.14,46.402L398.42,46.32L399.7,46.399L400.98,46.366L402.27,46.311L403.55,46.326L404.83,46.25L406.11,46.232L407.4,46.058L408.68,46.153L409.96,46.201L411.24,46.134L412.53,46.153L413.81,46.083L415.09,46.046L416.37,46.031L417.66,45.94L418.94,46.016L420.22,45.967L421.51,45.897L422.79,46.037L424.07,45.918L425.35,45.854L426.64,45.958L427.92,45.915L429.2,45.83L430.48,45.784L431.77,45.809L433.05,45.888L434.33,45.784L435.61,45.669L436.9,45.751L438.18,45.791L439.46,45.611L440.75,45.736L442.03,45.702L443.31,45.663L444.59,45.654L445.88,45.617L447.16,45.669L448.44,45.532L449.72,45.611L451.01,45.577L452.29,45.553L453.57,45.526L454.85,45.538L456.14,45.584L457.42,45.504L458.7,45.568L459.98,45.468L461.27,45.514L462.55,45.507L463.83,45.501L465.12,45.492L466.4,45.504L467.68,45.437L468.96,45.45L470.25,45.425L471.53,45.401L472.81,45.431L474.09,45.422L475.38,45.434L476.66,45.398L477.94,45.367L479.22,45.395L480.51,45.343L481.79,45.389L483.07,45.38L484.35,45.367L485.64,45.395L486.92,45.361L488.2,45.334L489.49,45.343L490.77,45.364L492.05,45.334L493.33,45.322L494.62,45.294L495.9,45.316L497.18,45.313L498.46,45.288L499.75,45.301L501.03,45.279L502.31,45.243L503.59,45.261L504.88,45.261L506.16,45.276L507.44,45.264L508.72,45.27L510.01,45.288L511.29,45.243L512.57,45.261L513.86,45.246L515.14,45.243L516.42,45.249L517.7,45.279L518.99,45.261L520.27,45.279L521.55,45.24L522.83,45.267L524.12,45.234L525.4,45.227L526.68,45.252L527.96,45.24L529.25,45.231L530.53,45.215L531.81,45.237L533.09,45.234L534.38,45.231L535.66,45.2L536.94,45.197L538.23,45.221L539.51,45.224L540.79,45.194L542.07,45.237L543.36,45.221L544.64,45.218L545.92,45.188L547.2,45.2L548.49,45.185L549.77,45.188L551.05,45.194L552.33,45.194L553.62,45.194L554.9,45.17L556.18,45.179L557.46,45.191L558.75,45.188L560.03,45.194L561.31,45.16L562.6,45.185L563.88,45.179L565.16,45.176L566.44,45.179L567.73,45.182L569.01,45.176L570.29,45.185L571.57,45.182L572.86,45.167L574.14,45.185L575.42,45.185L576.7,45.167L577.99,45.179L579.27,45.182L580.55,45.176L581.83,45.167L583.12,45.179L584.4,45.176L585.68,45.16L586.97,45.17L588.25,45.173L589.53,45.167L590.81,45.167L592.1,45.16L593.38,45.17L594.66,45.151L595.94,45.154L597.23,45.167L598.51,45.164L599.79,45.167L601.07,45.16L602.36,45.16L603.64,45.164L604.92,45.164L606.2,45.157L607.49,45.154L608.77,45.157L610.05,45.167L611.34,45.16L612.62,45.151L613.9,45.154L615.18,45.154L616.47,45.157L617.75,45.151L619.03,45.157L620.31,45.154L621.6,45.157L622.88,45.151L624.16,45.154L625.44,45.157L626.73,45.157L628.01,45.164L629.29,45.151L630.57,45.16L631.86,45.157L633.14,45.16L634.42,45.154L635.71,45.151L636.99,45.157L639.55,45.157L640.84,45.164L644.68,45.154L645.97,45.157L651.1,45.151L652.38,45.151L653.66,45.151L654.94,45.151L657.51,45.154L660.08,45.154L661.36,45.154L662.64,45.151L667.77,45.151L669.05,45.154L670.34,45.151L671.62,45.154L674.18,45.151L678.03,45.151L679.31,45.154L681.88,45.151L683.16,45.151L684.45,45.151L690.86,45.151L694.71,45.154L695.99,45.151L698.55,45.151L699.84,45.151L703.68,45.154L707.53,45.151" style="fill:none;stroke:#0000FF" />
</g>
</svg>
