<?xml version="1.0"?>
<!-- Generated by SVGo and Plotinum VG -->
<svg width="720pt" height="432pt" viewBox="0 0 720 432"
	xmlns="http://www.w3.org/2000/svg"
	xmlns:xlink="http://www.w3.org/1999/xlink">
<g transform="scale(1, -1) translate(0, -432)">
<path d="M0,0L720,0L720,432L0,432Z" style="fill:#FFFFFF" />
<text x="358.5" y="-420.45" transform="scale(1, -1)"
	style="font-family:Times;font-weight:normal;font-style:normal;font-size:12px"> </text>
<text x="379.31" y="-3.8613" transform="scale(1, -1)"
	style="font-family:Times;font-weight:normal;font-style:normal;font-size:12px">Costs</text>
<text x="62.805" y="-18.634" transform="scale(1, -1)"
	style="font-family:Times;font-weight:normal;font-style:normal;font-size:10px">0</text>
<text x="358.12" y="-18.634" transform="scale(1, -1)"
	style="font-family:Times;font-weight:normal;font-style:normal;font-size:10px">200</text>
<text x="658.44" y="-18.634" transform="scale(1, -1)"
	style="font-family:Times;font-weight:normal;font-style:normal;font-size:10px">400</text>
<path d="M65.305,28.263L65.305,36.263" style="fill:none;stroke:#000000;stroke-width:0.5" />
<path d="M365.62,28.263L365.62,36.263" style="fill:none;stroke:#000000;stroke-width:0.5" />
<path d="M665.94,28.263L665.94,36.263" style="fill:none;stroke:#000000;stroke-width:0.5" />
<path d="M215.46,32.263L215.46,36.263" style="fill:none;stroke:#000000;stroke-width:0.5" />
<path d="M515.78,32.263L515.78,36.263" style="fill:none;stroke:#000000;stroke-width:0.5" />
<path d="M65.305,36.263L720,36.263" style="fill:none;stroke:#000000;stroke-width:0.5" />
<g transform="rotate(90)">
<text x="152.55" y="11.555" transform="scale(1, -1)"
	style="font-family:Times;font-weight:normal;font-style:normal;font-size:12px">Number of trials (1000000 total)</text>
</g>
<text x="24.055" y="-89.536" transform="scale(1, -1)"
	style="font-family:Times;font-weight:normal;font-style:normal;font-size:10px">40000</text>
<text x="19.055" y="-232.31" transform="scale(1, -1)"
	style="font-family:Times;font-weight:normal;font-style:normal;font-size:10px">160000</text>
<text x="19.055" y="-375.08" transform="scale(1, -1)"
	style="font-family:Times;font-weight:normal;font-style:normal;font-size:10px">280000</text>
<path d="M51.555,92.741L59.555,92.741" style="fill:none;stroke:#000000;stroke-width:0.5" />
<path d="M51.555,235.51L59.555,235.51" style="fill:none;stroke:#000000;stroke-width:0.5" />
<path d="M51.555,378.29L59.555,378.29" style="fill:none;stroke:#000000;stroke-width:0.5" />
<path d="M55.555,164.13L59.555,164.13" style="fill:none;stroke:#000000;stroke-width:0.5" />
<path d="M55.555,306.9L59.555,306.9" style="fill:none;stroke:#000000;stroke-width:0.5" />
<path d="M59.555,45.151L59.555,416.58" style="fill:none;stroke:#000000;stroke-width:0.5" />
<path d="M65.305,416.58L98.34,51.882L99.841,48.488L101.34,48.598L104.35,48.557L105.85,66.168L107.35,48.73L110.35,51.996L111.85,55.934L113.36,55.61L114.86,73.349L116.36,62.784L117.86,55.995L119.36,59.793L122.37,48.535L125.37,59.425L126.87,84.19L128.37,56.01L129.87,69.749L131.37,66.722L132.88,51.957L134.38,48.749L135.88,45.18L137.38,45.203L138.88,52.309L140.38,45.44L141.89,59.711L143.39,45.282L144.89,56.478L146.39,66.457L147.89,46.071L149.39,45.906L150.9,56.693L152.4,46.505L153.9,53.281L155.4,47.224L156.9,64.389L158.4,46.589L159.91,47.812L161.41,46.972L162.91,47.818L164.41,47.819L165.91,59.689L167.41,49.268L168.91,47.946L170.42,47.952L171.92,48.522L173.42,47.683L174.92,55.692L176.42,64.646L177.92,49.825L179.43,51.092L180.93,57.487L182.43,48.999L183.93,48.227L185.43,81.379L186.93,66.906L188.44,48.461L189.94,48.824L191.44,51.273L192.94,50.359L194.44,49.035L195.94,50.315L197.45,48.771L198.95,48.104L200.45,48.165L201.95,47.421L203.45,48.692L204.95,48.06L206.45,50.69L207.96,50.127L209.46,47.928L210.96,49.136L212.46,48.497L213.96,47.347L215.46,48.865L216.97,48.577L218.47,49.414L219.97,48.323L221.47,48.815L222.97,48.641L224.47,47.584L225.98,50.465L227.48,50.363L228.98,47.308L230.48,49.383L231.98,48.971L233.48,48.809L234.98,50.021L236.49,50.825L237.99,50.599L239.49,49.054L240.99,48.441L242.49,49.147L243.99,46.969L245.5,48.791L247,51.191L248.5,49.474L250,49.107L251.5,49.556L253,48.495L254.51,47.438L256.01,47.305L257.51,48.031L259.01,46.962L260.51,47.148L262.01,48.272L263.52,47.078L265.02,47.462L266.52,49.26L268.02,48.02L269.52,46.447L271.02,47.285L272.52,47.377L274.03,46.946L275.53,46.862L277.03,48.404L278.53,47.155L280.03,46.474L281.53,46.626L283.04,46.484L284.54,46.48L286.04,47.736L287.54,47.326L289.04,46.49L290.54,46.476L292.05,46.903L293.55,46.384L295.05,47.073L296.55,48.069L298.05,47.306L299.55,46.656L301.06,47.308L302.56,46.866L304.06,46.346L305.56,46.171L307.06,47.996L308.56,46.379L310.06,46.194L311.57,46.409L313.07,46.39L314.57,46.288L316.07,46.288L317.57,46.271L319.07,46.216L320.58,46.034L322.08,46.102L323.58,46.109L325.08,45.991L326.58,46.192L328.08,46.314L329.59,46.015L331.09,46.072L332.59,46.052L334.09,45.882L335.59,45.952L337.09,46.047L338.59,46.015L340.1,45.887L341.6,45.927L343.1,46.022L344.6,45.796L346.1,45.904L347.6,46.041L349.11,45.77L350.61,45.802L352.11,45.859L353.61,45.771L355.11,45.681L356.61,45.864L358.12,45.937L359.62,45.772L361.12,45.738L362.62,45.813L364.12,45.646L365.62,45.605L367.13,45.672L368.63,45.743L370.13,45.481L371.63,45.645L373.13,45.621L374.63,45.556L376.13,45.565L377.64,45.675L379.14,45.539L380.64,45.523L382.14,45.498L383.64,45.542L385.14,45.455L386.65,45.537L388.15,45.574L389.65,45.449L391.15,45.38L392.65,45.492L394.15,45.439L395.66,45.404L397.16,45.417L398.66,45.5L400.16,45.356L401.66,45.426L403.16,45.383L404.67,45.376L406.17,45.363L407.67,45.426L409.17,45.343L410.67,45.356L412.17,45.369L413.67,45.366L415.18,45.325L416.68,45.354L418.18,45.382L419.68,45.318L421.18,45.339L422.68,45.35L424.19,45.301L425.69,45.295L427.19,45.322L428.69,45.32L430.19,45.277L431.69,45.301L433.2,45.32L434.7,45.283L436.2,45.279L437.7,45.28L439.2,45.274L440.7,45.274L442.2,45.248L443.71,45.257L445.21,45.255L446.71,45.241L448.21,45.279L449.71,45.26L451.21,45.236L452.72,45.25L454.22,45.236L455.72,45.206L457.22,45.236L458.72,45.231L460.22,45.226L461.73,45.228L463.23,45.22L464.73,45.21L466.23,45.218L467.73,45.222L469.23,45.212L470.74,45.201L472.24,45.206L473.74,45.198L475.24,45.224L476.74,45.195L478.24,45.2L479.74,45.214L481.25,45.191L482.75,45.195L484.25,45.192L485.75,45.188L487.25,45.198L488.75,45.208L490.26,45.192L491.76,45.183L493.26,45.187L494.76,45.186L496.26,45.186L497.76,45.186L499.27,45.187L500.77,45.174L502.27,45.174L503.77,45.186L505.27,45.174L506.77,45.174L508.28,45.175L509.78,45.168L511.28,45.179L512.78,45.172L514.28,45.17L515.78,45.178L517.28,45.173L518.79,45.167L520.29,45.169L521.79,45.174L523.29,45.173L524.79,45.159L526.29,45.162L527.8,45.169L529.3,45.16L530.8,45.164L532.3,45.159L533.8,45.169L535.3,45.162L536.81,45.16L538.31,45.164L539.81,45.161L541.31,45.159L542.81,45.167L544.31,45.169L545.82,45.156L547.32,45.161L548.82,45.157L550.32,45.156L551.82,45.156L553.32,45.157L554.82,45.157L556.33,45.156L557.83,45.155L559.33,45.156L560.83,45.161L562.33,45.154L563.83,45.16L565.34,45.157L566.84,45.157L568.34,45.155L569.84,45.155L571.34,45.156L572.84,45.153L574.35,45.154L575.85,45.156L577.35,45.157L578.85,45.156L580.35,45.16L581.85,45.153L583.35,45.154L586.36,45.154L587.86,45.154L589.36,45.154L590.86,45.154L592.36,45.151L595.37,45.154L596.87,45.151L598.37,45.151L599.87,45.153L602.88,45.154L604.38,45.151L605.88,45.153L608.88,45.153L611.89,45.154L613.39,45.154L614.89,45.155L616.39,45.153L619.39,45.151L622.4,45.151L623.9,45.154L626.9,45.151L629.9,45.151L631.41,45.151L632.91,45.151L635.91,45.151L637.41,45.151L638.91,45.151L641.92,45.151L643.42,45.154L644.92,45.151L646.42,45.151L653.93,45.151L655.43,45.151L656.93,45.151L662.94,45.153L665.94,45.151L667.44,45.151L668.95,45.151L677.96,45.151L679.46,45.151L682.46,45.151L685.46,45.153L720,45.151" style="fill:none;stroke:#0000FF" />
</g>
</svg>
