<?xml version="1.0"?>
<!-- Generated by SVGo and Plotinum VG -->
<svg width="720pt" height="432pt" viewBox="0 0 720 432"
	xmlns="http://www.w3.org/2000/svg"
	xmlns:xlink="http://www.w3.org/1999/xlink">
<g transform="scale(1, -1) translate(0, -432)">
<path d="M0,0L720,0L720,432L0,432Z" style="fill:#FFFFFF" />
<text x="358.5" y="-420.45" transform="scale(1, -1)"
	style="font-family:Times;font-weight:normal;font-style:normal;font-size:12px"> </text>
<text x="379.31" y="-3.8613" transform="scale(1, -1)"
	style="font-family:Times;font-weight:normal;font-style:normal;font-size:12px">Costs</text>
<text x="56.555" y="-18.634" transform="scale(1, -1)"
	style="font-family:Times;font-weight:normal;font-style:normal;font-size:10px">0.00</text>
<text x="352.98" y="-18.634" transform="scale(1, -1)"
	style="font-family:Times;font-weight:normal;font-style:normal;font-size:10px">250.00</text>
<text x="654.4" y="-18.634" transform="scale(1, -1)"
	style="font-family:Times;font-weight:normal;font-style:normal;font-size:10px">500.00</text>
<path d="M65.305,28.263L65.305,36.263" style="fill:none;stroke:#000000;stroke-width:0.5" />
<path d="M366.73,28.263L366.73,36.263" style="fill:none;stroke:#000000;stroke-width:0.5" />
<path d="M668.15,28.263L668.15,36.263" style="fill:none;stroke:#000000;stroke-width:0.5" />
<path d="M125.59,32.263L125.59,36.263" style="fill:none;stroke:#000000;stroke-width:0.5" />
<path d="M185.87,32.263L185.87,36.263" style="fill:none;stroke:#000000;stroke-width:0.5" />
<path d="M246.16,32.263L246.16,36.263" style="fill:none;stroke:#000000;stroke-width:0.5" />
<path d="M306.44,32.263L306.44,36.263" style="fill:none;stroke:#000000;stroke-width:0.5" />
<path d="M427.01,32.263L427.01,36.263" style="fill:none;stroke:#000000;stroke-width:0.5" />
<path d="M487.3,32.263L487.3,36.263" style="fill:none;stroke:#000000;stroke-width:0.5" />
<path d="M547.58,32.263L547.58,36.263" style="fill:none;stroke:#000000;stroke-width:0.5" />
<path d="M607.87,32.263L607.87,36.263" style="fill:none;stroke:#000000;stroke-width:0.5" />
<path d="M65.305,36.263L720,36.263" style="fill:none;stroke:#000000;stroke-width:0.5" />
<g transform="rotate(90)">
<text x="152.55" y="11.555" transform="scale(1, -1)"
	style="font-family:Times;font-weight:normal;font-style:normal;font-size:12px">Number of trials (1000000 total)</text>
</g>
<text x="24.055" y="-110.41" transform="scale(1, -1)"
	style="font-family:Times;font-weight:normal;font-style:normal;font-size:10px">30000</text>
<text x="24.055" y="-247.35" transform="scale(1, -1)"
	style="font-family:Times;font-weight:normal;font-style:normal;font-size:10px">90000</text>
<text x="19.055" y="-384.29" transform="scale(1, -1)"
	style="font-family:Times;font-weight:normal;font-style:normal;font-size:10px">150000</text>
<path d="M51.555,113.62L59.555,113.62" style="fill:none;stroke:#000000;stroke-width:0.5" />
<path d="M51.555,250.56L59.555,250.56" style="fill:none;stroke:#000000;stroke-width:0.5" />
<path d="M51.555,387.49L59.555,387.49" style="fill:none;stroke:#000000;stroke-width:0.5" />
<path d="M55.555,182.09L59.555,182.09" style="fill:none;stroke:#000000;stroke-width:0.5" />
<path d="M55.555,319.02L59.555,319.02" style="fill:none;stroke:#000000;stroke-width:0.5" />
<path d="M59.555,45.151L59.555,416.58" style="fill:none;stroke:#000000;stroke-width:0.5" />
<path d="M65.305,416.58L93.036,48.671L96.653,59.642L97.859,48.582L99.064,59.429L100.27,59.096L101.48,48.554L102.68,84.558L103.89,58.959L105.09,52.158L106.3,94.533L107.5,58.879L108.71,62.883L111.12,59.336L112.33,55.556L113.53,80.853L114.74,69.745L115.94,52.09L117.15,77.04L118.36,62.287L119.56,59.468L120.77,85.21L124.38,58.861L125.59,66.356L126.8,66.55L128,45.279L129.21,84.74L130.41,77.845L131.62,45.962L132.82,49.086L134.03,50.983L135.24,60.386L136.44,64.352L137.65,48.892L138.85,65.402L140.06,63.809L141.26,63.419L142.47,48.442L143.68,52.204L144.88,50.711L146.09,64.864L147.29,51.06L148.5,53.023L149.7,51.809L150.91,59.258L152.12,54.632L153.32,58.701L154.53,75.613L155.73,55.406L156.94,53.012L158.14,71.95L159.35,53.817L160.56,55.257L161.76,79.185L162.97,63.348L164.17,55.999L165.38,54.689L166.58,59.804L167.79,59.605L168.99,55.853L170.2,59.094L171.41,56.275L172.61,58.307L173.82,56.638L175.02,55.296L176.23,56.64L177.43,58.786L178.64,59.092L179.85,56.59L181.05,57.172L182.26,58.58L183.46,54.303L184.67,57.903L185.87,55.463L187.08,54.495L188.29,56.241L189.49,57.316L190.7,56.939L191.9,57.702L193.11,54.623L194.31,58.79L195.52,58.005L196.73,54.99L197.93,53.101L199.14,57.311L200.34,57.537L201.55,56.011L202.75,57.033L203.96,56.296L205.17,55.408L206.37,56.303L207.58,53.758L208.78,53.062L209.99,58.512L211.19,55.924L212.4,52.628L213.61,55.584L214.81,54.719L216.02,54.166L217.22,54.913L218.43,54.956L219.63,53.988L220.84,52.238L222.05,55.166L223.25,54.294L224.46,52.425L225.66,54.922L226.87,54.114L228.07,53.098L229.28,52.726L230.49,52.245L231.69,53.27L232.9,53.53L234.1,52.651L235.31,52.781L236.51,52.496L237.72,52.706L238.93,51.937L240.13,51.658L241.34,51.519L242.54,52.535L243.75,52.165L244.95,51.177L246.16,51.498L247.37,52.457L248.57,50.976L249.78,51.227L250.98,52.115L252.19,51.375L253.39,50.88L254.6,52.012L255.81,51.389L257.01,50.834L258.22,50.713L259.42,51.526L260.63,50.675L261.83,50.508L263.04,50.366L264.25,50.435L265.45,50.654L266.66,50.54L267.86,50.147L269.07,50.077L270.27,50.293L271.48,49.953L272.69,49.851L273.89,50.013L275.1,50.3L276.3,49.579L277.51,49.787L278.71,49.572L279.92,49.492L281.13,49.362L282.33,49.198L283.54,49.182L284.74,49.353L285.95,48.99L287.15,49.095L288.36,48.919L289.56,48.828L290.77,48.794L291.98,48.673L293.18,48.691L294.39,48.458L295.59,48.659L296.8,48.547L298,48.449L299.21,48.477L300.42,48.121L301.62,48.121L302.83,48.248L304.03,48.029L305.24,47.947L306.44,48.169L307.65,48.148L308.86,47.68L310.06,47.867L311.27,47.851L312.47,47.81L313.68,47.516L314.88,47.66L316.09,47.58L317.3,47.434L318.5,47.55L319.71,47.477L320.91,47.367L322.12,47.377L323.32,47.354L324.53,47.276L325.74,47.139L326.94,47.178L328.15,47.212L329.35,47.037L330.56,47.148L331.76,47.025L332.97,46.948L334.18,46.952L335.38,46.868L336.59,46.922L337.79,46.843L339,46.767L340.2,46.731L341.41,46.603L342.62,46.607L343.82,46.642L345.03,46.562L346.23,46.514L347.44,46.523L348.64,46.553L349.85,46.502L351.06,46.464L352.26,46.434L353.47,46.464L354.67,46.4L355.88,46.354L357.08,46.393L358.29,46.251L359.5,46.251L360.7,46.229L361.91,46.192L363.11,46.142L364.32,46.057L365.52,46.041L366.73,46.188L367.94,46.162L369.14,46.076L370.35,46L371.55,46.037L372.76,46.032L373.96,45.962L375.17,45.982L376.38,45.996L377.58,45.918L378.79,45.845L379.99,45.932L381.2,45.82L382.4,45.825L383.61,45.921L384.82,45.781L386.02,45.87L387.23,45.8L388.43,45.742L389.64,45.704L390.84,45.747L392.05,45.715L393.26,45.672L394.46,45.651L395.67,45.729L396.87,45.663L398.08,45.708L399.28,45.558L400.49,45.672L401.7,45.649L402.9,45.599L404.11,45.658L405.31,45.608L406.52,45.562L407.72,45.551L408.93,45.555L410.13,45.533L411.34,45.564L412.55,45.576L413.75,45.539L414.96,45.471L416.16,45.466L417.37,45.489L418.57,45.503L419.78,45.471L420.99,45.471L422.19,45.478L423.4,45.407L424.6,45.45L425.81,45.416L427.01,45.425L428.22,45.377L429.43,45.4L430.63,45.457L431.84,45.386L433.04,45.405L434.25,45.382L435.45,45.364L436.66,45.341L437.87,45.32L439.07,45.345L440.28,45.348L441.48,45.398L442.69,45.327L443.89,45.307L445.1,45.32L446.31,45.336L447.51,45.309L448.72,45.32L449.92,45.323L451.13,45.311L452.33,45.309L453.54,45.291L454.75,45.277L455.95,45.291L457.16,45.265L458.36,45.261L459.57,45.291L460.77,45.268L461.98,45.256L463.19,45.277L464.39,45.27L465.6,45.243L466.8,45.245L468.01,45.236L469.21,45.256L470.42,45.256L471.63,45.227L472.83,45.265L474.04,45.224L475.24,45.256L476.45,45.254L477.65,45.222L478.86,45.222L480.07,45.234L481.27,45.265L482.48,45.208L483.68,45.22L484.89,45.22L486.09,45.231L487.3,45.215L488.51,45.22L489.71,45.208L490.92,45.202L492.12,45.202L493.33,45.202L494.53,45.224L495.74,45.192L496.95,45.19L498.15,45.213L499.36,45.17L500.56,45.192L501.77,45.179L502.97,45.197L504.18,45.199L505.39,45.204L506.59,45.181L507.8,45.19L509,45.179L510.21,45.188L511.41,45.174L512.62,45.192L513.83,45.179L515.03,45.176L516.24,45.192L517.44,45.195L518.65,45.165L519.85,45.192L521.06,45.179L522.27,45.179L523.47,45.179L524.68,45.172L525.88,45.17L527.09,45.163L528.29,45.172L529.5,45.165L530.71,45.163L531.91,45.165L533.12,45.183L534.32,45.17L535.53,45.174L536.73,45.158L537.94,45.176L539.14,45.154L540.35,45.163L541.56,45.167L542.76,45.17L543.97,45.163L545.17,45.163L546.38,45.165L547.58,45.165L548.79,45.154L550,45.165L551.2,45.165L552.41,45.163L553.61,45.16L554.82,45.16L556.02,45.154L557.23,45.156L558.44,45.16L559.64,45.154L560.85,45.158L562.05,45.156L563.26,45.156L564.46,45.154L565.67,45.158L566.88,45.165L568.08,45.156L569.29,45.16L570.49,45.158L571.7,45.156L572.9,45.163L574.11,45.158L575.32,45.156L576.52,45.158L577.73,45.154L578.93,45.16L580.14,45.151L581.34,45.156L582.55,45.163L583.76,45.154L584.96,45.151L586.17,45.16L588.58,45.156L590.99,45.151L594.61,45.154L597.02,45.154L599.43,45.154L600.64,45.151L601.84,45.156L611.49,45.151L612.69,45.151L613.9,45.151L616.31,45.151L617.52,45.151L618.72,45.154L619.93,45.151L623.54,45.151L627.16,45.151L629.57,45.151L634.4,45.151L635.6,45.151L640.42,45.151L642.84,45.151L653.69,45.151L657.3,45.151L666.95,45.151L672.98,45.151L681.42,45.151L695.89,45.151L698.3,45.151L720,45.151" style="fill:none;stroke:#0000FF" />
</g>
</svg>
