<?xml version="1.0"?>
<!-- Generated by SVGo and Plotinum VG -->
<svg width="720pt" height="432pt" viewBox="0 0 720 432"
	xmlns="http://www.w3.org/2000/svg"
	xmlns:xlink="http://www.w3.org/1999/xlink">
<g transform="scale(1, -1) translate(0, -432)">
<path d="M0,0L720,0L720,432L0,432Z" style="fill:#FFFFFF" />
<text x="358.5" y="-420.45" transform="scale(1, -1)"
	style="font-family:Times;font-weight:normal;font-style:normal;font-size:12px"> </text>
<text x="379.31" y="-3.8613" transform="scale(1, -1)"
	style="font-family:Times;font-weight:normal;font-style:normal;font-size:12px">Costs</text>
<text x="62.805" y="-18.634" transform="scale(1, -1)"
	style="font-family:Times;font-weight:normal;font-style:normal;font-size:10px">0</text>
<text x="363.02" y="-18.634" transform="scale(1, -1)"
	style="font-family:Times;font-weight:normal;font-style:normal;font-size:10px">200</text>
<text x="668.24" y="-18.634" transform="scale(1, -1)"
	style="font-family:Times;font-weight:normal;font-style:normal;font-size:10px">400</text>
<path d="M65.305,28.263L65.305,36.263" style="fill:none;stroke:#000000;stroke-width:0.5" />
<path d="M370.52,28.263L370.52,36.263" style="fill:none;stroke:#000000;stroke-width:0.5" />
<path d="M675.74,28.263L675.74,36.263" style="fill:none;stroke:#000000;stroke-width:0.5" />
<path d="M217.91,32.263L217.91,36.263" style="fill:none;stroke:#000000;stroke-width:0.5" />
<path d="M523.13,32.263L523.13,36.263" style="fill:none;stroke:#000000;stroke-width:0.5" />
<path d="M65.305,36.263L720,36.263" style="fill:none;stroke:#000000;stroke-width:0.5" />
<g transform="rotate(90)">
<text x="152.55" y="11.555" transform="scale(1, -1)"
	style="font-family:Times;font-weight:normal;font-style:normal;font-size:12px">Number of trials (1000000 total)</text>
</g>
<text x="24.055" y="-88.933" transform="scale(1, -1)"
	style="font-family:Times;font-weight:normal;font-style:normal;font-size:10px">50000</text>
<text x="19.055" y="-229.9" transform="scale(1, -1)"
	style="font-family:Times;font-weight:normal;font-style:normal;font-size:10px">200000</text>
<text x="19.055" y="-370.86" transform="scale(1, -1)"
	style="font-family:Times;font-weight:normal;font-style:normal;font-size:10px">350000</text>
<path d="M51.555,92.139L59.555,92.139" style="fill:none;stroke:#000000;stroke-width:0.5" />
<path d="M51.555,233.1L59.555,233.1" style="fill:none;stroke:#000000;stroke-width:0.5" />
<path d="M51.555,374.07L59.555,374.07" style="fill:none;stroke:#000000;stroke-width:0.5" />
<path d="M55.555,162.62L59.555,162.62" style="fill:none;stroke:#000000;stroke-width:0.5" />
<path d="M55.555,303.59L59.555,303.59" style="fill:none;stroke:#000000;stroke-width:0.5" />
<path d="M59.555,45.151L59.555,416.58" style="fill:none;stroke:#000000;stroke-width:0.5" />
<path d="M65.305,416.58L98.879,48.681L106.51,52.039L108.04,48.676L109.56,59.464L112.61,59.055L114.14,55.547L115.67,48.557L117.19,66.477L118.72,48.713L120.24,52.272L121.77,48.588L123.3,51.924L126.35,66.561L129.4,62.973L130.93,55.312L133.98,66.516L140.08,55.789L141.61,48.73L143.14,62.931L146.19,83.854L147.71,48.686L149.24,45.256L150.77,74.001L152.29,45.297L153.82,45.471L155.34,55.946L156.87,45.896L158.4,49.407L159.92,52.705L161.45,53.645L162.97,45.748L164.5,46.63L166.03,46.061L167.55,53.445L169.08,45.852L170.61,46.941L172.13,46.055L173.66,50.518L175.18,46.99L176.71,50.018L178.24,48.176L179.76,46.251L181.29,47.785L182.81,61.535L184.34,47.193L185.87,47.128L187.39,50.984L188.92,68.462L190.44,48.599L191.97,47.942L193.5,47.376L195.02,50.472L196.55,46.155L198.08,49.891L199.6,47.821L201.13,47.315L202.65,48.309L204.18,48.331L205.71,46.768L207.23,49.655L208.76,47.732L210.28,48.064L211.81,49.822L213.34,46.05L214.86,49.368L216.39,47.455L217.91,46.182L219.44,48.426L220.97,47.458L222.49,46.733L224.02,48.537L225.54,47.471L227.07,48.031L228.6,48.275L230.12,47.145L231.65,49.692L233.18,47.49L234.7,46.759L236.23,48.925L237.75,47.2L239.28,46.906L240.81,48.6L242.33,47.145L243.86,47.274L245.38,46.918L246.91,47.301L248.44,47.153L249.96,47.141L251.49,47.157L253.01,47.209L254.54,46.781L256.07,46.197L257.59,47.548L259.12,46.354L260.65,46.388L262.17,46.193L263.7,48.02L265.22,46.108L266.75,46.996L268.28,47.246L269.8,48.251L271.33,46.05L272.85,46.65L274.38,47.422L275.91,46.193L277.43,46.063L278.96,46.677L280.48,45.981L282.01,45.993L283.54,46.368L285.06,46.704L286.59,45.706L288.11,45.928L289.64,45.981L291.17,46.266L292.69,45.995L294.22,45.914L295.75,45.895L297.27,46.124L298.8,45.694L300.32,46.047L301.85,45.84L303.38,45.641L304.9,45.929L306.43,46.714L307.95,45.709L309.48,45.915L311.01,45.898L312.53,45.833L314.06,45.777L315.58,45.772L317.11,45.807L318.64,45.846L320.16,45.649L321.69,45.85L323.21,45.669L324.74,45.668L326.27,45.681L327.79,45.717L329.32,45.633L330.85,45.656L332.37,45.636L333.9,45.624L335.42,45.624L336.95,45.546L338.48,45.618L340,45.516L341.53,45.498L343.05,45.547L344.58,45.527L346.11,45.502L347.63,45.537L349.16,45.586L350.68,45.513L352.21,45.472L353.74,45.505L355.26,45.542L356.79,45.41L358.32,45.454L359.84,45.471L361.37,45.389L362.89,45.398L364.42,45.426L365.95,45.408L367.47,45.368L369,45.377L370.52,45.412L372.05,45.383L373.58,45.308L375.1,45.39L376.63,45.329L378.15,45.326L379.68,45.334L381.21,45.349L382.73,45.315L384.26,45.307L385.78,45.316L387.31,45.399L388.84,45.267L390.36,45.29L391.89,45.352L393.42,45.28L394.94,45.265L396.47,45.31L397.99,45.252L399.52,45.28L401.05,45.264L402.57,45.279L404.1,45.26L405.62,45.245L407.15,45.26L408.68,45.252L410.2,45.232L411.73,45.24L413.25,45.245L414.78,45.248L416.31,45.232L417.83,45.253L419.36,45.214L420.89,45.228L422.41,45.226L423.94,45.231L425.46,45.222L426.99,45.209L428.52,45.208L430.04,45.22L431.57,45.217L433.09,45.213L434.62,45.217L436.15,45.206L437.67,45.192L439.2,45.205L440.72,45.195L442.25,45.211L443.78,45.203L445.3,45.193L446.83,45.191L448.35,45.193L449.88,45.18L451.41,45.19L452.93,45.189L454.46,45.181L455.99,45.186L457.51,45.172L459.04,45.173L460.56,45.184L462.09,45.174L463.62,45.183L465.14,45.178L466.67,45.186L468.19,45.176L469.72,45.17L471.25,45.171L472.77,45.177L474.3,45.181L475.82,45.166L477.35,45.172L478.88,45.165L480.4,45.173L481.93,45.167L483.46,45.168L484.98,45.161L486.51,45.165L488.03,45.163L489.56,45.162L491.09,45.165L492.61,45.164L494.14,45.163L495.66,45.163L497.19,45.165L498.72,45.161L500.24,45.16L501.77,45.166L503.29,45.167L504.82,45.161L506.35,45.165L507.87,45.157L509.4,45.153L510.92,45.157L512.45,45.157L513.98,45.158L515.5,45.156L517.03,45.158L518.56,45.158L520.08,45.157L521.61,45.157L523.13,45.159L524.66,45.157L526.19,45.154L527.71,45.153L529.24,45.154L530.76,45.156L532.29,45.156L533.82,45.152L535.34,45.154L536.87,45.156L538.39,45.159L539.92,45.152L541.45,45.154L542.97,45.154L544.5,45.154L546.03,45.155L547.55,45.151L549.08,45.153L550.6,45.156L552.13,45.156L553.66,45.153L555.18,45.153L556.71,45.153L558.23,45.154L559.76,45.154L561.29,45.156L562.81,45.151L564.34,45.153L565.86,45.151L568.92,45.153L570.44,45.152L571.97,45.152L573.49,45.151L575.02,45.151L576.55,45.152L578.07,45.153L579.6,45.154L581.13,45.151L582.65,45.153L585.7,45.151L587.23,45.153L588.76,45.151L591.81,45.154L594.86,45.152L596.39,45.151L597.91,45.151L599.44,45.151L602.49,45.152L608.59,45.151L610.12,45.151L616.23,45.151L620.8,45.152L626.91,45.151L629.96,45.151L634.54,45.151L637.59,45.151L642.17,45.151L643.7,45.151L645.22,45.151L671.16,45.151L681.85,45.152L684.9,45.151L691,45.151L697.11,45.151L720,45.151" style="fill:none;stroke:#0000FF" />
</g>
</svg>
