<?xml version="1.0"?>
<!-- Generated by SVGo and Plotinum VG -->
<svg width="720pt" height="432pt" viewBox="0 0 720 432"
	xmlns="http://www.w3.org/2000/svg"
	xmlns:xlink="http://www.w3.org/1999/xlink">
<g transform="scale(1, -1) translate(0, -432)">
<path d="M0,0L720,0L720,432L0,432Z" style="fill:#FFFFFF" />
<text x="358.5" y="-420.45" transform="scale(1, -1)"
	style="font-family:Times;font-weight:normal;font-style:normal;font-size:12px"> </text>
<text x="379.31" y="-3.8613" transform="scale(1, -1)"
	style="font-family:Times;font-weight:normal;font-style:normal;font-size:12px">Costs</text>
<text x="56.555" y="-18.634" transform="scale(1, -1)"
	style="font-family:Times;font-weight:normal;font-style:normal;font-size:10px">0.00</text>
<text x="354.09" y="-18.634" transform="scale(1, -1)"
	style="font-family:Times;font-weight:normal;font-style:normal;font-size:10px">250.00</text>
<text x="656.63" y="-18.634" transform="scale(1, -1)"
	style="font-family:Times;font-weight:normal;font-style:normal;font-size:10px">500.00</text>
<path d="M65.305,28.263L65.305,36.263" style="fill:none;stroke:#000000;stroke-width:0.5" />
<path d="M367.84,28.263L367.84,36.263" style="fill:none;stroke:#000000;stroke-width:0.5" />
<path d="M670.38,28.263L670.38,36.263" style="fill:none;stroke:#000000;stroke-width:0.5" />
<path d="M125.81,32.263L125.81,36.263" style="fill:none;stroke:#000000;stroke-width:0.5" />
<path d="M186.32,32.263L186.32,36.263" style="fill:none;stroke:#000000;stroke-width:0.5" />
<path d="M246.83,32.263L246.83,36.263" style="fill:none;stroke:#000000;stroke-width:0.5" />
<path d="M307.34,32.263L307.34,36.263" style="fill:none;stroke:#000000;stroke-width:0.5" />
<path d="M428.35,32.263L428.35,36.263" style="fill:none;stroke:#000000;stroke-width:0.5" />
<path d="M488.86,32.263L488.86,36.263" style="fill:none;stroke:#000000;stroke-width:0.5" />
<path d="M549.37,32.263L549.37,36.263" style="fill:none;stroke:#000000;stroke-width:0.5" />
<path d="M609.88,32.263L609.88,36.263" style="fill:none;stroke:#000000;stroke-width:0.5" />
<path d="M65.305,36.263L720,36.263" style="fill:none;stroke:#000000;stroke-width:0.5" />
<g transform="rotate(90)">
<text x="152.55" y="11.555" transform="scale(1, -1)"
	style="font-family:Times;font-weight:normal;font-style:normal;font-size:12px">Number of trials (1000000 total)</text>
</g>
<text x="24.055" y="-89.775" transform="scale(1, -1)"
	style="font-family:Times;font-weight:normal;font-style:normal;font-size:10px">20000</text>
<text x="24.055" y="-233.27" transform="scale(1, -1)"
	style="font-family:Times;font-weight:normal;font-style:normal;font-size:10px">80000</text>
<text x="19.055" y="-376.76" transform="scale(1, -1)"
	style="font-family:Times;font-weight:normal;font-style:normal;font-size:10px">140000</text>
<path d="M51.555,92.98L59.555,92.98" style="fill:none;stroke:#000000;stroke-width:0.5" />
<path d="M51.555,236.47L59.555,236.47" style="fill:none;stroke:#000000;stroke-width:0.5" />
<path d="M51.555,379.97L59.555,379.97" style="fill:none;stroke:#000000;stroke-width:0.5" />
<path d="M55.555,164.73L59.555,164.73" style="fill:none;stroke:#000000;stroke-width:0.5" />
<path d="M55.555,308.22L59.555,308.22" style="fill:none;stroke:#000000;stroke-width:0.5" />
<path d="M59.555,45.151L59.555,416.58" style="fill:none;stroke:#000000;stroke-width:0.5" />
<path d="M65.305,416.58L93.138,58.967L94.348,52.386L96.769,78.581L97.979,62.887L99.189,58.862L100.4,76.326L101.61,48.497L102.82,48.677L104.03,58.984L105.24,59.281L106.45,89.398L107.66,56.076L108.87,55.679L110.08,55.715L111.29,48.447L112.5,52.008L113.71,62.851L114.92,80.53L116.13,63.124L117.34,80.372L118.55,62.605L119.76,59.015L120.97,55.485L122.18,45.41L124.6,67.111L125.81,64.535L127.02,56.614L128.23,47.091L129.44,61.926L130.65,57.226L131.86,48.897L133.07,78.545L134.28,78.708L135.49,54.919L136.7,69.287L137.91,61.522L139.12,87.353L140.33,49.927L141.54,78.437L142.75,49.38L143.96,49.483L145.18,51.731L146.39,53.455L147.6,52.73L148.81,55.031L150.02,54.34L151.23,52.276L152.44,53.479L153.65,91.804L154.86,59.307L156.07,55.091L157.28,54.388L158.49,66.499L159.7,53.96L160.91,54.457L162.12,68.065L163.33,73.19L164.54,55.179L165.75,58.523L166.96,58.013L168.17,59.02L169.38,56.638L170.59,58.255L171.8,55.973L173.01,56.636L174.22,59.319L175.43,56.648L176.64,56.057L177.85,56.939L179.06,55.765L180.27,57.379L181.48,56.306L182.69,58.664L183.9,55.454L185.11,59.295L186.32,59.769L187.53,56.736L188.74,60.386L189.95,57.236L191.16,58.295L192.37,55.928L193.58,59.214L194.79,60.771L196,54.773L197.21,55.772L198.42,57.693L199.63,54.036L200.84,54.811L202.05,56.973L203.26,59.099L204.47,57.731L205.68,58.087L206.89,57.946L208.1,56.074L209.31,55.177L210.52,55.846L211.73,54.036L212.94,57.456L214.15,56.148L215.36,56.593L216.57,52.092L217.78,54.316L218.99,52.936L220.2,51.334L221.42,54.51L222.63,56.717L223.84,53.761L225.05,54.065L226.26,54.45L227.47,56.997L228.68,52.362L229.89,55.894L231.1,54.734L232.31,54.684L233.52,52.67L234.73,54.309L235.94,53.857L237.15,53.945L238.36,52.895L239.57,53.07L240.78,51.46L241.99,51.53L243.2,52.096L244.41,51.647L245.62,51.676L246.83,52.723L248.04,51.475L249.25,51.056L250.46,52.654L251.67,53.51L252.88,51.511L254.09,51.475L255.3,51.771L256.51,52.216L257.72,51.116L258.93,51.429L260.14,51.666L261.35,50.731L262.56,51.204L263.77,51.013L264.98,50.901L266.19,50.937L267.4,50.554L268.61,50.286L269.82,49.978L271.03,50.398L272.24,50.253L273.45,50.219L274.66,50.31L275.87,50.128L277.08,50.03L278.29,50.059L279.5,50.135L280.71,49.82L281.92,49.88L283.13,50.045L284.34,49.432L285.55,49.401L286.76,49.741L287.97,49.186L289.18,49.004L290.39,49.028L291.6,49.356L292.81,49.002L294.02,48.679L295.23,49.016L296.44,48.784L297.65,48.66L298.87,48.741L300.08,48.636L301.29,48.81L302.5,48.497L303.71,48.775L304.92,48.258L306.13,48.225L307.34,48.174L308.55,48.105L309.76,48.052L310.97,47.935L312.18,47.983L313.39,47.741L314.6,47.646L315.81,47.794L317.02,47.572L318.23,47.639L319.44,47.938L320.65,47.804L321.86,47.639L323.07,47.584L324.28,47.715L325.49,47.481L326.7,47.292L327.91,47.483L329.12,47.371L330.33,47.222L331.54,47.196L332.75,47.201L333.96,47.084L335.17,46.907L336.38,47.12L337.59,46.809L338.8,46.955L340.01,46.847L341.22,46.895L342.43,46.876L343.64,46.816L344.85,46.751L346.06,46.648L347.27,46.66L348.48,46.861L349.69,46.593L350.9,46.653L352.11,46.598L353.32,46.658L354.53,46.479L355.74,46.474L356.95,46.402L358.16,46.4L359.37,46.283L360.58,46.383L361.79,46.251L363,46.29L364.21,46.359L365.42,46.237L366.63,46.323L367.84,46.261L369.05,46.275L370.26,46.084L371.47,46.161L372.68,46.149L373.89,46.106L375.11,46.158L376.32,46.106L377.53,46.041L378.74,45.976L379.95,45.974L381.16,45.931L382.37,45.857L383.58,45.965L384.79,45.869L386,45.838L387.21,45.771L388.42,45.831L389.63,45.835L390.84,45.776L392.05,45.857L393.26,45.768L394.47,45.776L395.68,45.723L396.89,45.721L398.1,45.649L399.31,45.697L400.52,45.74L401.73,45.646L402.94,45.637L404.15,45.632L405.36,45.594L406.57,45.527L407.78,45.606L408.99,45.666L410.2,45.575L411.41,45.548L412.62,45.577L413.83,45.56L415.04,45.517L416.25,45.52L417.46,45.498L418.67,45.544L419.88,45.508L421.09,45.474L422.3,45.45L423.51,45.474L424.72,45.422L425.93,45.448L427.14,45.529L428.35,45.424L429.56,45.429L430.77,45.379L431.98,45.376L433.19,45.402L434.4,45.4L435.61,45.386L436.82,45.352L438.03,45.355L439.24,45.338L440.45,45.391L441.66,45.369L442.87,45.376L444.08,45.321L445.29,45.333L446.5,45.35L447.71,45.379L448.92,45.326L450.13,45.307L451.34,45.309L452.56,45.333L453.77,45.362L454.98,45.3L456.19,45.283L457.4,45.324L458.61,45.281L459.82,45.269L461.03,45.29L462.24,45.292L463.45,45.278L464.66,45.259L465.87,45.257L467.08,45.264L468.29,45.252L469.5,45.261L470.71,45.237L471.92,45.245L473.13,45.235L474.34,45.24L475.55,45.235L476.76,45.233L477.97,45.252L479.18,45.242L480.39,45.23L481.6,45.233L482.81,45.204L484.02,45.199L485.23,45.242L486.44,45.221L487.65,45.223L488.86,45.216L490.07,45.223L491.28,45.211L492.49,45.209L493.7,45.216L494.91,45.211L496.12,45.221L497.33,45.197L498.54,45.211L499.75,45.19L500.96,45.192L502.17,45.204L503.38,45.197L504.59,45.204L505.8,45.185L507.01,45.204L508.22,45.194L509.43,45.199L510.64,45.192L511.85,45.17L513.06,45.18L514.27,45.18L515.48,45.194L516.69,45.182L517.9,45.175L519.11,45.19L520.32,45.178L521.53,45.173L522.74,45.187L523.95,45.173L525.16,45.166L526.37,45.166L527.58,45.182L528.8,45.17L530.01,45.166L531.22,45.166L532.43,45.178L533.64,45.178L534.85,45.163L536.06,45.17L537.27,45.173L538.48,45.163L539.69,45.166L540.9,45.163L542.11,45.178L543.32,45.17L544.53,45.154L545.74,45.159L546.95,45.17L548.16,45.159L549.37,45.166L550.58,45.161L551.79,45.161L553,45.159L554.21,45.156L555.42,45.156L556.63,45.161L557.84,45.159L559.05,45.159L560.26,45.156L561.47,45.161L562.68,45.151L563.89,45.159L566.31,45.156L567.52,45.168L568.73,45.156L569.94,45.161L571.15,45.154L572.36,45.156L573.57,45.161L574.78,45.154L575.99,45.154L577.2,45.154L578.41,45.159L579.62,45.151L580.83,45.151L582.04,45.159L584.46,45.156L585.67,45.151L586.88,45.151L588.09,45.166L589.3,45.159L591.72,45.151L592.93,45.151L594.14,45.151L595.35,45.154L597.77,45.154L598.98,45.151L601.4,45.154L602.61,45.156L603.82,45.156L605.04,45.154L606.25,45.151L607.46,45.151L613.51,45.151L614.72,45.154L615.93,45.151L617.14,45.151L619.56,45.151L621.98,45.151L624.4,45.154L628.03,45.154L629.24,45.154L630.45,45.151L638.92,45.154L640.13,45.151L644.97,45.151L648.6,45.151L652.23,45.151L657.07,45.151L663.12,45.151L672.8,45.151L677.64,45.151L684.91,45.151L689.75,45.151L690.96,45.151L705.48,45.151L711.53,45.151L718.79,45.151L720,45.154" style="fill:none;stroke:#0000FF" />
</g>
</svg>
