<?xml version="1.0"?>
<!-- Generated by SVGo and Plotinum VG -->
<svg width="720pt" height="432pt" viewBox="0 0 720 432"
	xmlns="http://www.w3.org/2000/svg"
	xmlns:xlink="http://www.w3.org/1999/xlink">
<g transform="scale(1, -1) translate(0, -432)">
<path d="M0,0L720,0L720,432L0,432Z" style="fill:#FFFFFF" />
<text x="358.5" y="-420.45" transform="scale(1, -1)"
	style="font-family:Times;font-weight:normal;font-style:normal;font-size:12px"> </text>
<text x="379.31" y="-3.8613" transform="scale(1, -1)"
	style="font-family:Times;font-weight:normal;font-style:normal;font-size:12px">Costs</text>
<text x="62.805" y="-18.634" transform="scale(1, -1)"
	style="font-family:Times;font-weight:normal;font-style:normal;font-size:10px">0</text>
<text x="229.64" y="-18.634" transform="scale(1, -1)"
	style="font-family:Times;font-weight:normal;font-style:normal;font-size:10px">100</text>
<text x="401.48" y="-18.634" transform="scale(1, -1)"
	style="font-family:Times;font-weight:normal;font-style:normal;font-size:10px">200</text>
<text x="573.31" y="-18.634" transform="scale(1, -1)"
	style="font-family:Times;font-weight:normal;font-style:normal;font-size:10px">300</text>
<path d="M65.305,28.263L65.305,36.263" style="fill:none;stroke:#000000;stroke-width:0.5" />
<path d="M237.14,28.263L237.14,36.263" style="fill:none;stroke:#000000;stroke-width:0.5" />
<path d="M408.98,28.263L408.98,36.263" style="fill:none;stroke:#000000;stroke-width:0.5" />
<path d="M580.81,28.263L580.81,36.263" style="fill:none;stroke:#000000;stroke-width:0.5" />
<path d="M99.672,32.263L99.672,36.263" style="fill:none;stroke:#000000;stroke-width:0.5" />
<path d="M134.04,32.263L134.04,36.263" style="fill:none;stroke:#000000;stroke-width:0.5" />
<path d="M168.41,32.263L168.41,36.263" style="fill:none;stroke:#000000;stroke-width:0.5" />
<path d="M202.77,32.263L202.77,36.263" style="fill:none;stroke:#000000;stroke-width:0.5" />
<path d="M271.51,32.263L271.51,36.263" style="fill:none;stroke:#000000;stroke-width:0.5" />
<path d="M305.88,32.263L305.88,36.263" style="fill:none;stroke:#000000;stroke-width:0.5" />
<path d="M340.24,32.263L340.24,36.263" style="fill:none;stroke:#000000;stroke-width:0.5" />
<path d="M374.61,32.263L374.61,36.263" style="fill:none;stroke:#000000;stroke-width:0.5" />
<path d="M443.34,32.263L443.34,36.263" style="fill:none;stroke:#000000;stroke-width:0.5" />
<path d="M477.71,32.263L477.71,36.263" style="fill:none;stroke:#000000;stroke-width:0.5" />
<path d="M512.08,32.263L512.08,36.263" style="fill:none;stroke:#000000;stroke-width:0.5" />
<path d="M546.45,32.263L546.45,36.263" style="fill:none;stroke:#000000;stroke-width:0.5" />
<path d="M615.18,32.263L615.18,36.263" style="fill:none;stroke:#000000;stroke-width:0.5" />
<path d="M649.55,32.263L649.55,36.263" style="fill:none;stroke:#000000;stroke-width:0.5" />
<path d="M683.91,32.263L683.91,36.263" style="fill:none;stroke:#000000;stroke-width:0.5" />
<path d="M718.28,32.263L718.28,36.263" style="fill:none;stroke:#000000;stroke-width:0.5" />
<path d="M65.305,36.263L720,36.263" style="fill:none;stroke:#000000;stroke-width:0.5" />
<g transform="rotate(90)">
<text x="152.55" y="11.555" transform="scale(1, -1)"
	style="font-family:Times;font-weight:normal;font-style:normal;font-size:12px">Number of trials (1000000 total)</text>
</g>
<text x="24.055" y="-87.227" transform="scale(1, -1)"
	style="font-family:Times;font-weight:normal;font-style:normal;font-size:10px">50000</text>
<text x="19.055" y="-223.07" transform="scale(1, -1)"
	style="font-family:Times;font-weight:normal;font-style:normal;font-size:10px">200000</text>
<text x="19.055" y="-358.92" transform="scale(1, -1)"
	style="font-family:Times;font-weight:normal;font-style:normal;font-size:10px">350000</text>
<path d="M51.555,90.433L59.555,90.433" style="fill:none;stroke:#000000;stroke-width:0.5" />
<path d="M51.555,226.28L59.555,226.28" style="fill:none;stroke:#000000;stroke-width:0.5" />
<path d="M51.555,362.13L59.555,362.13" style="fill:none;stroke:#000000;stroke-width:0.5" />
<path d="M55.555,158.36L59.555,158.36" style="fill:none;stroke:#000000;stroke-width:0.5" />
<path d="M55.555,294.2L59.555,294.2" style="fill:none;stroke:#000000;stroke-width:0.5" />
<path d="M59.555,45.151L59.555,416.58" style="fill:none;stroke:#000000;stroke-width:0.5" />
<path d="M65.305,416.58L104.83,48.499L111.7,55.448L122.01,56.052L123.73,120.1L125.45,55.69L130.6,55.599L132.32,52.079L137.48,48.662L139.19,55.887L140.91,82.718L144.35,55.962L149.5,59.594L151.22,45.235L152.94,52.062L156.38,86.662L161.53,52.225L163.25,52.674L164.97,45.245L166.69,48.581L168.41,45.454L170.12,50.813L171.84,45.512L177,45.472L178.72,45.479L180.43,47.684L182.15,50.059L183.87,47.493L185.59,45.515L187.31,46.499L189.03,47.615L190.74,77.712L192.46,52.524L194.18,45.256L195.9,46.889L197.62,52.249L199.34,52.664L201.06,46.423L202.77,48.548L204.49,76.382L206.21,46.741L207.93,49.04L209.65,46.317L211.37,46.888L213.08,46.822L214.8,54.225L216.52,47.388L218.24,45.741L219.96,48.046L221.68,48.121L223.39,46.578L225.11,47.334L226.83,45.832L228.55,47.69L230.27,46.713L231.99,49.26L233.7,45.391L235.42,46.683L237.14,47.42L238.86,46.264L240.58,47.13L242.3,45.925L244.01,46.541L245.73,46.138L247.45,47.519L249.17,51.25L250.89,48.664L252.61,46.148L254.32,46.477L256.04,47.134L257.76,47.036L259.48,45.702L261.2,46.843L262.92,51.435L264.63,47.516L266.35,48.64L268.07,46.31L269.79,47.159L271.51,46.519L273.23,46.32L274.94,46.9L276.66,46.045L278.38,47.217L280.1,48.506L281.82,48.753L283.54,47.3L285.25,45.509L286.97,46.225L288.69,47.895L290.41,46.129L292.13,46.206L293.85,45.733L295.56,49.207L297.28,45.643L299,45.669L300.72,46.047L302.44,46.148L304.16,45.483L305.88,46.069L307.59,45.774L309.31,46.056L311.03,45.595L312.75,45.595L314.47,45.547L316.19,45.752L317.9,45.968L319.62,45.633L321.34,45.777L323.06,46.09L324.78,45.947L326.5,45.612L328.21,45.785L329.93,47.785L331.65,46.1L333.37,45.606L335.09,45.572L336.81,45.981L338.52,45.889L340.24,46.01L341.96,45.887L343.68,45.387L345.4,45.602L347.12,45.867L348.83,45.523L350.55,45.57L352.27,45.443L353.99,46.058L355.71,45.531L357.43,45.581L359.14,45.523L360.86,45.534L362.58,45.46L364.3,45.488L366.02,45.42L367.74,45.513L369.45,45.438L371.17,45.579L372.89,45.354L374.61,45.403L376.33,45.534L378.05,45.364L379.76,45.411L381.48,45.342L383.2,45.378L384.92,45.328L386.64,45.438L388.36,45.642L390.07,45.414L391.79,45.314L393.51,45.354L395.23,45.34L396.95,45.388L398.67,45.318L400.38,45.3L402.1,45.295L403.82,45.328L405.54,45.478L407.26,45.303L408.98,45.343L410.7,45.26L412.41,45.269L414.13,45.409L415.85,45.285L417.57,45.275L419.29,45.246L421.01,45.485L422.72,45.295L424.44,45.244L426.16,45.265L427.88,45.3L429.6,45.257L431.32,45.237L433.03,45.221L434.75,45.242L436.47,45.248L438.19,45.213L439.91,45.203L441.63,45.21L443.34,45.216L445.06,45.208L446.78,45.217L448.5,45.218L450.22,45.221L451.94,45.213L453.65,45.193L455.37,45.208L457.09,45.22L458.81,45.205L460.53,45.188L462.25,45.22L463.96,45.209L465.68,45.203L467.4,45.213L469.12,45.186L470.84,45.182L472.56,45.203L474.27,45.182L475.99,45.175L477.71,45.178L479.43,45.208L481.15,45.186L482.87,45.173L484.58,45.185L486.3,45.181L488.02,45.182L489.74,45.19L491.46,45.179L493.18,45.186L494.89,45.178L496.61,45.188L498.33,45.17L500.05,45.167L501.77,45.17L503.49,45.164L505.2,45.177L506.92,45.17L508.64,45.169L510.36,45.168L512.08,45.175L513.8,45.169L515.52,45.165L517.23,45.169L518.95,45.165L520.67,45.171L522.39,45.16L524.11,45.165L525.83,45.167L527.54,45.159L529.26,45.16L530.98,45.16L532.7,45.162L534.42,45.156L536.14,45.16L537.85,45.159L539.57,45.158L541.29,45.157L543.01,45.159L544.73,45.157L546.45,45.155L548.16,45.168L549.88,45.156L551.6,45.153L553.32,45.159L555.04,45.159L556.76,45.153L558.47,45.155L560.19,45.158L561.91,45.155L563.63,45.152L565.35,45.152L567.07,45.153L568.78,45.153L570.5,45.159L572.22,45.153L573.94,45.152L575.66,45.153L577.38,45.154L579.09,45.154L580.81,45.151L582.53,45.152L584.25,45.156L585.97,45.153L587.69,45.155L589.4,45.154L591.12,45.153L592.84,45.153L594.56,45.152L598,45.152L599.71,45.151L601.43,45.152L603.15,45.151L604.87,45.153L606.59,45.152L608.31,45.152L610.02,45.151L611.74,45.151L615.18,45.151L618.62,45.152L620.34,45.152L622.05,45.151L623.77,45.151L625.49,45.152L627.21,45.152L632.36,45.151L634.08,45.151L637.52,45.151L640.96,45.152L654.7,45.151L671.89,45.151L694.22,45.151L699.38,45.151L707.97,45.151L720,45.151" style="fill:none;stroke:#0000FF" />
</g>
</svg>
