<?xml version="1.0"?>
<!-- Generated by SVGo and Plotinum VG -->
<svg width="720pt" height="432pt" viewBox="0 0 720 432"
	xmlns="http://www.w3.org/2000/svg"
	xmlns:xlink="http://www.w3.org/1999/xlink">
<g transform="scale(1, -1) translate(0, -432)">
<path d="M0,0L720,0L720,432L0,432Z" style="fill:#FFFFFF" />
<text x="358.5" y="-420.45" transform="scale(1, -1)"
	style="font-family:Times;font-weight:normal;font-style:normal;font-size:12px"> </text>
<text x="376.81" y="-3.8613" transform="scale(1, -1)"
	style="font-family:Times;font-weight:normal;font-style:normal;font-size:12px">Costs</text>
<text x="51.555" y="-18.634" transform="scale(1, -1)"
	style="font-family:Times;font-weight:normal;font-style:normal;font-size:10px">0.00</text>
<text x="331.89" y="-18.634" transform="scale(1, -1)"
	style="font-family:Times;font-weight:normal;font-style:normal;font-size:10px">250.00</text>
<text x="617.23" y="-18.634" transform="scale(1, -1)"
	style="font-family:Times;font-weight:normal;font-style:normal;font-size:10px">500.00</text>
<path d="M60.305,28.263L60.305,36.263" style="fill:none;stroke:#000000;stroke-width:0.5" />
<path d="M345.64,28.263L345.64,36.263" style="fill:none;stroke:#000000;stroke-width:0.5" />
<path d="M630.98,28.263L630.98,36.263" style="fill:none;stroke:#000000;stroke-width:0.5" />
<path d="M117.37,32.263L117.37,36.263" style="fill:none;stroke:#000000;stroke-width:0.5" />
<path d="M174.44,32.263L174.44,36.263" style="fill:none;stroke:#000000;stroke-width:0.5" />
<path d="M231.51,32.263L231.51,36.263" style="fill:none;stroke:#000000;stroke-width:0.5" />
<path d="M288.57,32.263L288.57,36.263" style="fill:none;stroke:#000000;stroke-width:0.5" />
<path d="M402.71,32.263L402.71,36.263" style="fill:none;stroke:#000000;stroke-width:0.5" />
<path d="M459.77,32.263L459.77,36.263" style="fill:none;stroke:#000000;stroke-width:0.5" />
<path d="M516.84,32.263L516.84,36.263" style="fill:none;stroke:#000000;stroke-width:0.5" />
<path d="M573.91,32.263L573.91,36.263" style="fill:none;stroke:#000000;stroke-width:0.5" />
<path d="M688.04,32.263L688.04,36.263" style="fill:none;stroke:#000000;stroke-width:0.5" />
<path d="M60.305,36.263L720,36.263" style="fill:none;stroke:#000000;stroke-width:0.5" />
<g transform="rotate(90)">
<text x="152.55" y="11.555" transform="scale(1, -1)"
	style="font-family:Times;font-weight:normal;font-style:normal;font-size:12px">Number of trials (1000000 total)</text>
</g>
<text x="19.055" y="-84.671" transform="scale(1, -1)"
	style="font-family:Times;font-weight:normal;font-style:normal;font-size:10px">10000</text>
<text x="19.055" y="-212.86" transform="scale(1, -1)"
	style="font-family:Times;font-weight:normal;font-style:normal;font-size:10px">40000</text>
<text x="19.055" y="-341.05" transform="scale(1, -1)"
	style="font-family:Times;font-weight:normal;font-style:normal;font-size:10px">70000</text>
<path d="M46.555,87.876L54.555,87.876" style="fill:none;stroke:#000000;stroke-width:0.5" />
<path d="M46.555,216.06L54.555,216.06" style="fill:none;stroke:#000000;stroke-width:0.5" />
<path d="M46.555,344.25L54.555,344.25" style="fill:none;stroke:#000000;stroke-width:0.5" />
<path d="M50.555,130.61L54.555,130.61" style="fill:none;stroke:#000000;stroke-width:0.5" />
<path d="M50.555,173.33L54.555,173.33" style="fill:none;stroke:#000000;stroke-width:0.5" />
<path d="M50.555,258.79L54.555,258.79" style="fill:none;stroke:#000000;stroke-width:0.5" />
<path d="M50.555,301.52L54.555,301.52" style="fill:none;stroke:#000000;stroke-width:0.5" />
<path d="M50.555,386.98L54.555,386.98" style="fill:none;stroke:#000000;stroke-width:0.5" />
<path d="M54.555,45.151L54.555,416.58" style="fill:none;stroke:#000000;stroke-width:0.5" />
<path d="M60.305,416.58L86.556,48.689L89.98,97.02L91.121,51.851L95.686,99.165L96.828,51.719L97.969,55.479L99.11,139.54L100.25,90.543L103.68,70.797L104.82,141.02L105.96,96.388L107.1,117.22L109.38,90.171L110.52,55.791L112.81,62.303L116.23,79.275L117.37,52.112L118.51,52.582L120.8,60.09L121.94,45.613L123.08,45.203L124.22,77.788L125.36,67.165L126.5,80.997L127.64,46.647L128.79,65.029L129.93,99.43L131.07,99.029L132.21,72.032L133.35,50.723L134.49,72.678L135.63,62.512L136.77,65.691L137.92,55.586L139.06,66.589L140.2,61.867L141.34,80.723L142.48,68.229L143.62,89.586L144.76,78.378L145.91,77.626L147.05,56.992L148.19,67.358L149.33,63.653L150.47,66.64L151.61,86.979L152.75,94.145L153.89,67.08L155.04,65.063L156.18,70.229L157.32,55.915L158.46,50.07L159.6,66.879L160.74,65.931L161.88,65.478L163.03,65.512L164.17,60.132L165.31,72.639L166.45,62.781L167.59,61.017L168.73,73.455L169.87,79.463L171.01,80.741L172.16,60.679L173.3,69.823L174.44,72.913L175.58,77.818L176.72,78.698L177.86,65.914L179,68.242L180.15,69.849L181.29,68.772L182.43,68.952L183.57,62.961L184.71,59.372L185.85,66.033L186.99,67.311L188.13,72.169L189.28,63.14L190.42,74.079L191.56,71.733L192.7,64.563L193.84,59.923L194.98,66.704L196.12,69.904L197.27,72.789L198.41,67.845L199.55,67.973L200.69,70.024L201.83,65.508L202.97,60.581L204.11,59.846L205.26,64.072L206.4,62.487L207.54,64.414L208.68,65.358L209.82,64.845L210.96,63.375L212.1,65.61L213.24,65.649L214.39,65.255L215.53,67.379L216.67,65.076L217.81,65.751L218.95,63.397L220.09,63.123L221.23,65.461L222.38,66.742L223.52,65.042L224.66,62.935L225.8,63.457L226.94,63.277L228.08,59.419L229.22,60.628L230.36,59.876L231.51,60.521L232.65,61.235L233.79,62.059L234.93,62.7L236.07,64.243L237.21,62.593L238.35,59.696L239.5,60.444L240.64,61.786L241.78,59.978L242.92,60.611L244.06,61.76L245.2,60.137L246.34,60.337L247.48,59.931L248.63,58.047L249.77,57.876L250.91,58.137L252.05,59.927L253.19,58.585L254.33,59.094L255.47,57.94L256.62,58.393L257.76,58.825L258.9,57.885L260.04,57.551L261.18,58.897L262.32,58.927L263.46,57.769L264.6,56.71L265.75,56.855L266.89,57.727L268.03,57.308L269.17,57.312L270.31,56.381L271.45,56.423L272.59,56.406L273.74,55.214L274.88,55.09L276.02,55.317L277.16,55.3L278.3,55.146L279.44,55.347L280.58,54.975L281.72,55.398L282.87,54.919L284.01,54.236L285.15,54.001L286.29,54.27L287.43,54.351L288.57,54.449L289.71,54.184L290.86,53.864L292,53.625L293.14,53.586L294.28,53.001L295.42,52.967L296.56,53.103L297.7,52.894L298.85,52.616L299.99,52.629L301.13,52.552L302.27,52.932L303.41,52.356L304.55,52.283L305.69,52.962L306.83,52.531L307.98,52.257L309.12,51.74L310.26,51.774L311.4,51.608L312.54,51.458L313.68,51.326L314.82,51.407L315.97,51.398L317.11,51.386L318.25,50.89L319.39,50.762L320.53,50.702L321.67,50.245L322.81,50.467L323.95,50.501L325.1,50.446L326.24,50.181L327.38,50.099L328.52,50.151L329.66,49.839L330.8,49.886L331.94,49.813L333.09,49.655L334.23,49.749L335.37,49.689L336.51,49.493L337.65,49.685L338.79,49.313L339.93,49.211L341.07,48.997L342.22,49.335L343.36,49.172L344.5,49.125L345.64,48.959L346.78,48.813L347.92,48.856L349.06,48.595L350.21,48.6L351.35,48.326L352.49,48.523L353.63,48.471L354.77,48.258L355.91,48.228L357.05,48.095L358.19,48.014L359.34,47.937L360.48,48.027L361.62,47.856L362.76,47.848L363.9,47.809L365.04,47.775L366.18,47.664L367.33,47.63L368.47,47.617L369.61,47.369L370.75,47.664L371.89,47.45L373.03,47.348L374.17,47.313L375.31,47.04L376.46,47.19L377.6,47.232L378.74,47.284L379.88,47.202L381.02,46.963L382.16,47.143L383.3,47.113L384.45,46.95L385.59,47.074L386.73,46.839L387.87,46.784L389.01,46.72L390.15,46.673L391.29,46.634L392.44,46.647L393.58,46.626L394.72,46.596L395.86,46.57L397,46.476L398.14,46.694L399.28,46.502L400.42,46.45L401.57,46.391L402.71,46.433L403.85,46.391L404.99,46.356L406.13,46.373L407.27,46.318L408.41,46.16L409.56,46.215L410.7,46.181L411.84,46.224L412.98,46.215L414.12,46.083L415.26,46.138L416.4,45.955L417.54,46.104L418.69,46.044L419.83,46.049L420.97,45.925L422.11,45.959L423.25,45.929L424.39,45.916L425.53,45.873L426.68,45.891L427.82,45.792L428.96,45.818L430.1,45.788L431.24,45.792L432.38,45.788L433.52,45.818L434.66,45.754L435.81,45.681L436.95,45.758L438.09,45.771L439.23,45.724L440.37,45.634L441.51,45.668L442.65,45.698L443.8,45.656L444.94,45.63L446.08,45.681L447.22,45.587L448.36,45.549L449.5,45.557L450.64,45.557L451.78,45.549L452.93,45.591L454.07,45.532L455.21,45.583L456.35,45.532L457.49,45.579L458.63,45.48L459.77,45.468L460.92,45.493L462.06,45.463L463.2,45.45L464.34,45.502L465.48,45.463L466.62,45.446L467.76,45.412L468.9,45.433L470.05,45.403L471.19,45.412L472.33,45.395L473.47,45.403L474.61,45.361L475.75,45.472L476.89,45.339L478.04,45.369L479.18,45.348L480.32,45.318L481.46,45.339L482.6,45.339L483.74,45.322L484.88,45.314L486.03,45.331L487.17,45.314L488.31,45.335L489.45,45.386L490.59,45.314L491.73,45.28L492.87,45.344L494.01,45.305L495.16,45.309L496.3,45.301L497.44,45.309L498.58,45.254L499.72,45.267L500.86,45.267L502,45.258L503.15,45.292L504.29,45.241L505.43,45.254L506.57,45.245L507.71,45.288L508.85,45.25L509.99,45.22L511.13,45.233L512.28,45.228L513.42,45.22L514.56,45.215L515.7,45.22L516.84,45.267L517.98,45.237L519.12,45.224L520.27,45.237L521.41,45.254L522.55,45.207L523.69,45.194L524.83,45.237L525.97,45.211L527.11,45.228L528.25,45.198L529.4,45.237L530.54,45.177L531.68,45.215L532.82,45.181L533.96,45.181L535.1,45.228L536.24,45.164L537.39,45.203L538.53,45.215L539.67,45.186L540.81,45.198L541.95,45.194L543.09,45.168L544.23,45.19L545.37,45.186L546.52,45.194L547.66,45.173L548.8,45.168L549.94,45.19L551.08,45.181L552.22,45.16L553.36,45.186L554.51,45.186L555.65,45.168L556.79,45.173L557.93,45.164L559.07,45.173L560.21,45.173L561.35,45.168L562.49,45.177L563.64,45.164L564.78,45.164L565.92,45.177L567.06,45.16L568.2,45.16L569.34,45.168L570.48,45.151L571.63,45.173L572.77,45.164L573.91,45.16L575.05,45.156L576.19,45.16L577.33,45.16L578.47,45.156L579.62,45.177L580.76,45.151L581.9,45.164L583.04,45.181L584.18,45.181L585.32,45.164L586.46,45.156L587.6,45.151L589.89,45.164L591.03,45.16L592.17,45.156L593.31,45.151L594.45,45.151L595.59,45.16L596.74,45.151L597.88,45.156L599.02,45.151L600.16,45.156L601.3,45.151L602.44,45.151L603.58,45.151L605.87,45.16L608.15,45.16L609.29,45.151L610.43,45.156L611.57,45.16L612.71,45.156L613.86,45.151L615,45.156L616.14,45.156L618.42,45.151L619.56,45.151L621.84,45.16L627.55,45.156L630.98,45.151L634.4,45.151L635.54,45.156L636.68,45.151L640.11,45.151L641.25,45.151L643.53,45.151L644.67,45.151L646.95,45.151L650.38,45.156L657.23,45.151L664.07,45.151L665.22,45.156L672.06,45.151L706.3,45.151L715.43,45.151L720,45.151" style="fill:none;stroke:#0000FF" />
</g>
</svg>
