<?xml version="1.0"?>
<!-- Generated by SVGo and Plotinum VG -->
<svg width="720pt" height="432pt" viewBox="0 0 720 432"
	xmlns="http://www.w3.org/2000/svg"
	xmlns:xlink="http://www.w3.org/1999/xlink">
<g transform="scale(1, -1) translate(0, -432)">
<path d="M0,0L720,0L720,432L0,432Z" style="fill:#FFFFFF" />
<text x="358.5" y="-420.45" transform="scale(1, -1)"
	style="font-family:Times;font-weight:normal;font-style:normal;font-size:12px"> </text>
<text x="382.46" y="-3.8613" transform="scale(1, -1)"
	style="font-family:Times;font-weight:normal;font-style:normal;font-size:12px">Costs</text>
<text x="69.055" y="-18.634" transform="scale(1, -1)"
	style="font-family:Times;font-weight:normal;font-style:normal;font-size:10px">0.00</text>
<text x="378.28" y="-18.634" transform="scale(1, -1)"
	style="font-family:Times;font-weight:normal;font-style:normal;font-size:10px">250.00</text>
<text x="692.5" y="-18.634" transform="scale(1, -1)"
	style="font-family:Times;font-weight:normal;font-style:normal;font-size:10px">500.00</text>
<path d="M77.805,28.263L77.805,36.263" style="fill:none;stroke:#000000;stroke-width:0.5" />
<path d="M392.03,28.263L392.03,36.263" style="fill:none;stroke:#000000;stroke-width:0.5" />
<path d="M706.25,28.263L706.25,36.263" style="fill:none;stroke:#000000;stroke-width:0.5" />
<path d="M140.65,32.263L140.65,36.263" style="fill:none;stroke:#000000;stroke-width:0.5" />
<path d="M203.49,32.263L203.49,36.263" style="fill:none;stroke:#000000;stroke-width:0.5" />
<path d="M266.34,32.263L266.34,36.263" style="fill:none;stroke:#000000;stroke-width:0.5" />
<path d="M329.18,32.263L329.18,36.263" style="fill:none;stroke:#000000;stroke-width:0.5" />
<path d="M454.87,32.263L454.87,36.263" style="fill:none;stroke:#000000;stroke-width:0.5" />
<path d="M517.72,32.263L517.72,36.263" style="fill:none;stroke:#000000;stroke-width:0.5" />
<path d="M580.56,32.263L580.56,36.263" style="fill:none;stroke:#000000;stroke-width:0.5" />
<path d="M643.41,32.263L643.41,36.263" style="fill:none;stroke:#000000;stroke-width:0.5" />
<path d="M77.805,36.263L713.79,36.263" style="fill:none;stroke:#000000;stroke-width:0.5" />
<g transform="rotate(90)">
<text x="152.55" y="11.555" transform="scale(1, -1)"
	style="font-family:Times;font-weight:normal;font-style:normal;font-size:12px">Number of trials (1000000 total)</text>
</g>
<text x="24.055" y="-90.278" transform="scale(1, -1)"
	style="font-family:Times;font-weight:normal;font-style:normal;font-size:10px">25000.00</text>
<text x="19.055" y="-235.28" transform="scale(1, -1)"
	style="font-family:Times;font-weight:normal;font-style:normal;font-size:10px">100000.00</text>
<text x="19.055" y="-380.28" transform="scale(1, -1)"
	style="font-family:Times;font-weight:normal;font-style:normal;font-size:10px">175000.00</text>
<path d="M64.055,93.484L72.055,93.484" style="fill:none;stroke:#000000;stroke-width:0.5" />
<path d="M64.055,238.49L72.055,238.49" style="fill:none;stroke:#000000;stroke-width:0.5" />
<path d="M64.055,383.49L72.055,383.49" style="fill:none;stroke:#000000;stroke-width:0.5" />
<path d="M68.055,165.98L72.055,165.98" style="fill:none;stroke:#000000;stroke-width:0.5" />
<path d="M68.055,310.99L72.055,310.99" style="fill:none;stroke:#000000;stroke-width:0.5" />
<path d="M72.055,45.151L72.055,416.58" style="fill:none;stroke:#000000;stroke-width:0.5" />
<path d="M77.805,416.58L105.46,55.087L106.71,81.64L110.48,59.673L111.74,76.456L114.25,55.377L115.51,51.705L116.77,59.526L118.03,59.449L119.28,59.236L120.54,69.123L121.8,62.337L124.31,58.584L125.57,62.42L126.82,69.266L128.08,80.308L129.34,79.811L130.59,51.763L131.85,62.515L133.11,87.042L134.36,56.748L135.62,59.286L138.14,45.579L139.39,72.294L140.65,62.409L141.91,59.889L143.16,46.371L144.42,64.949L145.68,54.955L146.93,47.243L148.19,55.315L149.45,49.252L150.7,48.573L151.96,72.46L153.22,52.922L154.48,61.413L155.73,67.909L156.99,65.943L158.25,51.907L159.5,50.246L160.76,53.649L162.02,56.444L163.27,52.239L164.53,51.773L165.79,52.177L167.04,68.999L168.3,55.566L169.56,61.929L170.81,71.37L172.07,54.163L173.33,55.959L174.59,53.705L175.84,55.406L177.1,55.085L178.36,60.949L179.61,69.467L180.87,55.868L182.13,56.003L183.38,57.772L184.64,57.509L185.9,55.114L187.15,53.589L188.41,54.896L189.67,55.261L190.92,55.824L192.18,53.018L193.44,52.614L194.7,56.056L195.95,56.738L197.21,53.417L198.47,53.581L199.72,55.342L200.98,53.33L202.24,53.533L203.49,55.843L204.75,54.111L206.01,54.766L207.26,57.08L208.52,54.731L209.78,54.076L211.04,53.463L212.29,53.84L213.55,54.484L214.81,52.137L216.06,51.955L217.32,53.417L218.58,55.389L219.83,53.592L221.09,53.958L222.35,55.031L223.6,52.048L224.86,52.595L226.12,52.784L227.37,51.578L228.63,53.496L229.89,53.154L231.15,52.871L232.4,52.363L233.66,53.343L234.92,52.891L236.17,50.917L237.43,51.241L238.69,50.362L239.94,50.302L241.2,52.494L242.46,50.729L243.71,50.971L244.97,51.821L246.23,52.067L247.48,50.892L248.74,50.685L250,50.934L251.26,49.855L252.51,50.039L253.77,50.59L255.03,49.967L256.28,50.348L257.54,50.719L258.8,50.578L260.05,50.161L261.31,49.629L262.57,49.958L263.82,49.617L265.08,49.113L266.34,49.258L267.6,49.256L268.85,49.786L270.11,49.264L271.37,49.521L272.62,49.685L273.88,49.316L275.14,49.043L276.39,48.947L277.65,48.889L278.91,48.562L280.16,48.948L281.42,48.664L282.68,48.539L283.93,48.494L285.19,48.573L286.45,48.258L287.71,48.33L288.96,48.274L290.22,48.009L291.48,47.953L292.73,48.185L293.99,47.883L295.25,47.897L296.5,48.324L297.76,47.947L299.02,47.901L300.27,47.881L301.53,47.736L302.79,47.537L304.05,47.516L305.3,47.462L306.56,47.531L307.82,47.498L309.07,47.454L310.33,47.357L311.59,47.241L312.84,47.21L314.1,47.251L315.36,47.108L316.61,46.955L317.87,46.938L319.13,47.092L320.38,47.031L321.64,47.154L322.9,46.857L324.16,46.94L325.41,46.824L326.67,46.826L327.93,46.714L329.18,46.627L330.44,46.665L331.7,46.57L332.95,46.596L334.21,46.671L335.47,46.561L336.72,46.57L337.98,46.396L339.24,46.393L340.49,46.377L341.75,46.338L343.01,46.337L344.27,46.25L345.52,46.294L346.78,46.315L348.04,46.294L349.29,46.201L350.55,46.145L351.81,46.089L353.06,46.108L354.32,46.006L355.58,46.083L356.83,46.025L358.09,45.979L359.35,45.992L360.61,46.004L361.86,45.938L363.12,45.845L364.38,45.961L365.63,45.898L366.89,45.849L368.15,45.849L369.4,45.871L370.66,45.787L371.92,45.786L373.17,45.789L374.43,45.832L375.69,45.706L376.94,45.762L378.2,45.706L379.46,45.633L380.72,45.691L381.97,45.613L383.23,45.668L384.49,45.683L385.74,45.664L387,45.586L388.26,45.621L389.51,45.598L390.77,45.575L392.03,45.542L393.28,45.546L394.54,45.594L395.8,45.538L397.05,45.546L398.31,45.499L399.57,45.515L400.83,45.503L402.08,45.488L403.34,45.494L404.6,45.468L405.85,45.482L407.11,45.455L408.37,45.459L409.62,45.441L410.88,45.43L412.14,45.424L413.39,45.438L414.65,45.436L415.91,45.405L417.17,45.387L418.42,45.318L419.68,45.358L420.94,45.337L422.19,45.362L423.45,45.395L424.71,45.412L425.96,45.314L427.22,45.304L428.48,45.325L429.73,45.339L430.99,45.306L432.25,45.285L433.5,45.304L434.76,45.312L436.02,45.341L437.28,45.296L438.53,45.333L439.79,45.265L441.05,45.269L442.3,45.293L443.56,45.275L444.82,45.265L446.07,45.275L447.33,45.238L448.59,45.285L449.84,45.252L451.1,45.273L452.36,45.244L453.61,45.248L454.87,45.24L456.13,45.264L457.39,45.231L458.64,45.233L459.9,45.236L461.16,45.244L462.41,45.229L463.67,45.231L464.93,45.235L466.18,45.204L467.44,45.229L468.7,45.211L469.95,45.213L471.21,45.202L472.47,45.211L473.73,45.198L474.98,45.209L476.24,45.211L477.5,45.211L478.75,45.225L480.01,45.225L481.27,45.177L482.52,45.202L483.78,45.186L485.04,45.215L486.29,45.173L487.55,45.186L488.81,45.177L490.06,45.194L491.32,45.177L492.58,45.182L493.84,45.167L495.09,45.186L496.35,45.192L497.61,45.167L498.86,45.184L500.12,45.178L501.38,45.186L502.63,45.177L503.89,45.159L505.15,45.171L506.4,45.173L507.66,45.188L508.92,45.173L510.18,45.173L511.43,45.178L512.69,45.165L513.95,45.165L515.2,45.167L516.46,45.169L517.72,45.169L518.97,45.165L520.23,45.165L521.49,45.167L522.74,45.163L524,45.151L525.26,45.165L526.51,45.159L527.77,45.163L529.03,45.167L530.29,45.155L531.54,45.155L532.8,45.161L534.06,45.163L535.31,45.167L536.57,45.161L537.83,45.159L539.08,45.159L540.34,45.155L541.6,45.159L542.85,45.163L544.11,45.153L545.37,45.157L546.62,45.159L547.88,45.159L549.14,45.153L550.4,45.155L551.65,45.153L552.91,45.157L554.17,45.153L555.42,45.155L556.68,45.165L557.94,45.159L559.19,45.159L560.45,45.151L561.71,45.161L562.96,45.153L564.22,45.167L566.74,45.151L567.99,45.151L569.25,45.153L570.51,45.151L571.76,45.153L573.02,45.153L574.28,45.155L575.53,45.151L576.79,45.153L578.05,45.151L579.3,45.157L583.07,45.157L585.59,45.151L586.85,45.151L588.1,45.155L590.62,45.153L594.39,45.151L595.64,45.151L598.16,45.153L600.67,45.151L603.18,45.155L608.21,45.151L610.73,45.151L614.5,45.151L619.52,45.151L620.78,45.151L622.04,45.151L632.09,45.151L634.61,45.151L640.89,45.151L652.2,45.151L666.03,45.151L684.88,45.151L713.79,45.151" style="fill:none;stroke:#0000FF" />
</g>
</svg>
