<?xml version="1.0"?>
<!-- Generated by SVGo and Plotinum VG -->
<svg width="720pt" height="432pt" viewBox="0 0 720 432"
	xmlns="http://www.w3.org/2000/svg"
	xmlns:xlink="http://www.w3.org/1999/xlink">
<g transform="scale(1, -1) translate(0, -432)">
<path d="M0,0L720,0L720,432L0,432Z" style="fill:#FFFFFF" />
<text x="358.5" y="-420.45" transform="scale(1, -1)"
	style="font-family:Times;font-weight:normal;font-style:normal;font-size:12px"> </text>
<text x="379.31" y="-3.8613" transform="scale(1, -1)"
	style="font-family:Times;font-weight:normal;font-style:normal;font-size:12px">Costs</text>
<text x="62.805" y="-18.634" transform="scale(1, -1)"
	style="font-family:Times;font-weight:normal;font-style:normal;font-size:10px">0</text>
<text x="362.31" y="-18.634" transform="scale(1, -1)"
	style="font-family:Times;font-weight:normal;font-style:normal;font-size:10px">200</text>
<text x="666.82" y="-18.634" transform="scale(1, -1)"
	style="font-family:Times;font-weight:normal;font-style:normal;font-size:10px">400</text>
<path d="M65.305,28.263L65.305,36.263" style="fill:none;stroke:#000000;stroke-width:0.5" />
<path d="M369.81,28.263L369.81,36.263" style="fill:none;stroke:#000000;stroke-width:0.5" />
<path d="M674.32,28.263L674.32,36.263" style="fill:none;stroke:#000000;stroke-width:0.5" />
<path d="M217.56,32.263L217.56,36.263" style="fill:none;stroke:#000000;stroke-width:0.5" />
<path d="M522.07,32.263L522.07,36.263" style="fill:none;stroke:#000000;stroke-width:0.5" />
<path d="M65.305,36.263L720,36.263" style="fill:none;stroke:#000000;stroke-width:0.5" />
<g transform="rotate(90)">
<text x="152.55" y="11.555" transform="scale(1, -1)"
	style="font-family:Times;font-weight:normal;font-style:normal;font-size:12px">Number of trials (1000000 total)</text>
</g>
<text x="24.055" y="-90.932" transform="scale(1, -1)"
	style="font-family:Times;font-weight:normal;font-style:normal;font-size:10px">50000</text>
<text x="19.055" y="-237.9" transform="scale(1, -1)"
	style="font-family:Times;font-weight:normal;font-style:normal;font-size:10px">200000</text>
<text x="19.055" y="-384.86" transform="scale(1, -1)"
	style="font-family:Times;font-weight:normal;font-style:normal;font-size:10px">350000</text>
<path d="M51.555,94.138L59.555,94.138" style="fill:none;stroke:#000000;stroke-width:0.5" />
<path d="M51.555,241.1L59.555,241.1" style="fill:none;stroke:#000000;stroke-width:0.5" />
<path d="M51.555,388.06L59.555,388.06" style="fill:none;stroke:#000000;stroke-width:0.5" />
<path d="M55.555,167.62L59.555,167.62" style="fill:none;stroke:#000000;stroke-width:0.5" />
<path d="M55.555,314.58L59.555,314.58" style="fill:none;stroke:#000000;stroke-width:0.5" />
<path d="M59.555,45.151L59.555,416.58" style="fill:none;stroke:#000000;stroke-width:0.5" />
<path d="M65.305,416.58L98.801,52.15L109.46,59.366L110.98,55.844L112.5,59.131L114.03,63.025L117.07,55.444L118.59,48.692L120.12,52.119L123.16,55.425L124.68,48.569L126.21,55.391L127.73,62.487L129.25,52.234L130.77,59.289L132.3,59.066L133.82,55.552L139.91,48.672L141.43,62.254L142.95,48.798L144.48,45.331L146,59.494L147.52,70.301L149.04,48.537L150.57,52.284L152.09,55.955L153.61,48.678L155.13,66.177L156.66,49.059L158.18,56.611L159.7,70.384L161.23,63.972L162.75,45.702L164.27,46.12L165.79,46.239L167.32,49.643L168.84,45.902L170.36,46.118L171.88,46.941L173.41,46.653L174.93,47.592L176.45,47.257L177.97,61.371L179.5,47.524L181.02,47.298L182.54,60.473L184.06,46.316L185.59,47.315L187.11,46.64L188.63,47.595L190.15,47.574L191.68,48.105L193.2,48.46L194.72,48.915L196.24,48.115L197.77,47.146L199.29,48.774L200.81,47.91L202.33,48.055L203.86,49.344L205.38,48.867L206.9,49.436L208.42,49.856L209.95,49.25L211.47,47.887L212.99,48.967L214.51,48.445L216.04,48.552L217.56,48.158L219.08,47.968L220.6,48.071L222.13,49.359L223.65,49.56L225.17,48.117L226.69,48.871L228.22,48.832L229.74,47.925L231.26,47.829L232.78,47.094L234.31,47.551L235.83,48.57L237.35,48.666L238.88,46.968L240.4,48.777L241.92,49.129L243.44,48.544L244.97,48.016L246.49,47.65L248.01,47.652L249.53,48.028L251.06,47.522L252.58,46.783L254.1,47.49L255.62,47.118L257.15,46.143L258.67,46.945L260.19,46.753L261.71,46.221L263.24,46.77L264.76,47.194L266.28,46.085L267.8,46.946L269.33,46.491L270.85,46.515L272.37,47.67L273.89,46.808L275.42,46.433L276.94,46.917L278.46,46.694L279.98,46.15L281.51,46.058L283.03,45.999L284.55,46.222L286.07,46.07L287.6,46.058L289.12,46.197L290.64,46.152L292.16,46.117L293.69,46.034L295.21,46.644L296.73,46.031L298.25,46.102L299.78,46.121L301.3,46.023L302.82,46.075L304.34,45.991L305.87,46.011L307.39,46.001L308.91,45.976L310.43,45.962L311.96,45.915L313.48,45.929L315,45.812L316.52,45.986L318.05,45.977L319.57,45.891L321.09,45.83L322.62,45.879L324.14,45.791L325.66,45.809L327.18,45.803L328.71,45.733L330.23,45.813L331.75,45.765L333.27,45.751L334.8,45.703L336.32,45.757L337.84,45.693L339.36,45.665L340.89,45.681L342.41,45.549L343.93,45.561L345.45,45.595L346.98,45.501L348.5,45.509L350.02,45.506L351.54,45.433L353.07,45.556L354.59,45.551L356.11,45.471L357.63,45.512L359.16,45.526L360.68,45.493L362.2,45.487L363.72,45.447L365.25,45.433L366.77,45.421L368.29,45.449L369.81,45.386L371.34,45.389L372.86,45.369L374.38,45.316L375.9,45.364L377.43,45.352L378.95,45.319L380.47,45.331L381.99,45.323L383.52,45.334L385.04,45.368L386.56,45.325L388.08,45.33L389.61,45.363L391.13,45.338L392.65,45.31L394.17,45.306L395.7,45.281L397.22,45.31L398.74,45.279L400.27,45.269L401.79,45.295L403.31,45.277L404.83,45.283L406.36,45.274L407.88,45.261L409.4,45.27L410.92,45.277L412.45,45.243L413.97,45.262L415.49,45.251L417.01,45.267L418.54,45.255L420.06,45.258L421.58,45.226L423.1,45.24L424.63,45.236L426.15,45.234L427.67,45.239L429.19,45.23L430.72,45.215L432.24,45.201L433.76,45.212L435.28,45.219L436.81,45.214L438.33,45.222L439.85,45.204L441.37,45.205L442.9,45.204L444.42,45.197L445.94,45.197L447.46,45.189L448.99,45.2L450.51,45.207L452.03,45.195L453.55,45.195L455.08,45.192L456.6,45.183L458.12,45.195L459.64,45.184L461.17,45.191L462.69,45.18L464.21,45.178L465.73,45.182L467.26,45.172L468.78,45.176L470.3,45.164L471.82,45.172L473.35,45.164L474.87,45.173L476.39,45.181L477.91,45.172L479.44,45.172L480.96,45.168L482.48,45.176L484.01,45.182L485.53,45.171L487.05,45.175L488.57,45.16L490.1,45.168L491.62,45.167L493.14,45.172L494.66,45.159L496.19,45.163L497.71,45.166L499.23,45.174L500.75,45.168L502.28,45.165L503.8,45.162L505.32,45.163L506.84,45.158L508.37,45.155L509.89,45.165L511.41,45.162L512.93,45.156L514.46,45.156L515.98,45.158L517.5,45.159L519.02,45.155L520.55,45.164L522.07,45.155L523.59,45.158L525.11,45.16L526.64,45.154L528.16,45.161L529.68,45.161L531.2,45.155L532.73,45.158L534.25,45.158L535.77,45.157L537.29,45.154L538.82,45.162L540.34,45.155L541.86,45.157L543.38,45.155L544.91,45.162L546.43,45.154L547.95,45.153L549.47,45.156L551,45.153L552.52,45.156L554.04,45.151L555.56,45.154L557.09,45.155L558.61,45.152L560.13,45.153L561.66,45.151L563.18,45.154L564.7,45.153L566.22,45.152L567.75,45.151L569.27,45.151L570.79,45.153L572.31,45.153L573.84,45.153L578.4,45.152L579.93,45.153L582.97,45.152L584.49,45.153L586.02,45.151L587.54,45.151L589.06,45.151L590.58,45.152L592.11,45.151L595.15,45.151L596.67,45.151L598.2,45.151L602.76,45.151L604.29,45.152L610.38,45.151L611.9,45.151L617.99,45.151L619.51,45.151L627.12,45.152L631.69,45.152L640.83,45.151L653.01,45.151L659.1,45.151L665.19,45.151L668.23,45.151L671.28,45.152L678.89,45.151L683.46,45.151L697.16,45.151L720,45.151" style="fill:none;stroke:#0000FF" />
</g>
</svg>
