<?xml version="1.0"?>
<!-- Generated by SVGo and Plotinum VG -->
<svg width="720pt" height="432pt" viewBox="0 0 720 432"
	xmlns="http://www.w3.org/2000/svg"
	xmlns:xlink="http://www.w3.org/1999/xlink">
<g transform="scale(1, -1) translate(0, -432)">
<path d="M0,0L720,0L720,432L0,432Z" style="fill:#FFFFFF" />
<text x="358.5" y="-420.45" transform="scale(1, -1)"
	style="font-family:Times;font-weight:normal;font-style:normal;font-size:12px"> </text>
<text x="379.13" y="-3.8613" transform="scale(1, -1)"
	style="font-family:Times;font-weight:normal;font-style:normal;font-size:12px">Costs</text>
<text x="56.184" y="-18.634" transform="scale(1, -1)"
	style="font-family:Times;font-weight:normal;font-style:normal;font-size:10px">0.00</text>
<text x="326.42" y="-18.634" transform="scale(1, -1)"
	style="font-family:Times;font-weight:normal;font-style:normal;font-size:10px">250.00</text>
<text x="601.66" y="-18.634" transform="scale(1, -1)"
	style="font-family:Times;font-weight:normal;font-style:normal;font-size:10px">500.00</text>
<path d="M64.934,28.263L64.934,36.263" style="fill:none;stroke:#000000;stroke-width:0.5" />
<path d="M340.17,28.263L340.17,36.263" style="fill:none;stroke:#000000;stroke-width:0.5" />
<path d="M615.41,28.263L615.41,36.263" style="fill:none;stroke:#000000;stroke-width:0.5" />
<path d="M119.98,32.263L119.98,36.263" style="fill:none;stroke:#000000;stroke-width:0.5" />
<path d="M175.03,32.263L175.03,36.263" style="fill:none;stroke:#000000;stroke-width:0.5" />
<path d="M230.08,32.263L230.08,36.263" style="fill:none;stroke:#000000;stroke-width:0.5" />
<path d="M285.12,32.263L285.12,36.263" style="fill:none;stroke:#000000;stroke-width:0.5" />
<path d="M395.22,32.263L395.22,36.263" style="fill:none;stroke:#000000;stroke-width:0.5" />
<path d="M450.27,32.263L450.27,36.263" style="fill:none;stroke:#000000;stroke-width:0.5" />
<path d="M505.31,32.263L505.31,36.263" style="fill:none;stroke:#000000;stroke-width:0.5" />
<path d="M560.36,32.263L560.36,36.263" style="fill:none;stroke:#000000;stroke-width:0.5" />
<path d="M670.46,32.263L670.46,36.263" style="fill:none;stroke:#000000;stroke-width:0.5" />
<path d="M64.934,36.263L720,36.263" style="fill:none;stroke:#000000;stroke-width:0.5" />
<g transform="rotate(90)">
<text x="152.55" y="11.555" transform="scale(1, -1)"
	style="font-family:Times;font-weight:normal;font-style:normal;font-size:12px">Number of trials (1000000 total)</text>
</g>
<text x="23.684" y="-71.714" transform="scale(1, -1)"
	style="font-family:Times;font-weight:normal;font-style:normal;font-size:10px">10000</text>
<text x="23.684" y="-220.57" transform="scale(1, -1)"
	style="font-family:Times;font-weight:normal;font-style:normal;font-size:10px">60000</text>
<text x="19.055" y="-369.43" transform="scale(1, -1)"
	style="font-family:Times;font-weight:normal;font-style:normal;font-size:10px">110000</text>
<path d="M51.184,74.92L59.184,74.92" style="fill:none;stroke:#000000;stroke-width:0.5" />
<path d="M51.184,223.78L59.184,223.78" style="fill:none;stroke:#000000;stroke-width:0.5" />
<path d="M51.184,372.64L59.184,372.64" style="fill:none;stroke:#000000;stroke-width:0.5" />
<path d="M55.184,104.69L59.184,104.69" style="fill:none;stroke:#000000;stroke-width:0.5" />
<path d="M55.184,134.46L59.184,134.46" style="fill:none;stroke:#000000;stroke-width:0.5" />
<path d="M55.184,164.23L59.184,164.23" style="fill:none;stroke:#000000;stroke-width:0.5" />
<path d="M55.184,194.01L59.184,194.01" style="fill:none;stroke:#000000;stroke-width:0.5" />
<path d="M55.184,253.55L59.184,253.55" style="fill:none;stroke:#000000;stroke-width:0.5" />
<path d="M55.184,283.32L59.184,283.32" style="fill:none;stroke:#000000;stroke-width:0.5" />
<path d="M55.184,313.09L59.184,313.09" style="fill:none;stroke:#000000;stroke-width:0.5" />
<path d="M55.184,342.86L59.184,342.86" style="fill:none;stroke:#000000;stroke-width:0.5" />
<path d="M55.184,402.41L59.184,402.41" style="fill:none;stroke:#000000;stroke-width:0.5" />
<path d="M59.184,45.151L59.184,416.58" style="fill:none;stroke:#000000;stroke-width:0.5" />
<path d="M64.934,416.58L89.155,56.292L90.255,48.533L91.356,59.704L93.558,67.447L94.659,63.11L95.76,63.261L96.861,52.07L97.962,48.795L99.063,78.695L100.16,67.772L101.27,59.078L102.37,52.273L103.47,73.544L104.57,55.845L106.77,73.506L107.87,77.715L108.97,79.076L110.07,113.11L111.17,97.835L112.27,62.964L113.38,67.417L114.48,55.941L115.58,67.376L116.68,45.297L117.78,45.893L118.88,59.87L119.98,58.042L121.08,75.754L122.18,46.053L123.28,93.89L124.38,66.036L125.49,63.696L126.59,64.988L127.69,59.218L128.79,49.168L129.89,61.055L130.99,49.102L132.09,59.856L133.19,69.951L134.29,62.83L135.39,52.841L136.5,53.898L137.6,56.491L138.7,67.843L139.8,56.721L140.9,57.051L142,57.801L143.1,71.151L144.2,59.025L145.3,76.545L146.4,72.571L147.5,58.614L148.61,58.531L149.71,66.155L150.81,57.513L151.91,61.746L153.01,79.454L154.11,81.148L155.21,66.006L156.31,64.717L157.41,65.194L158.51,63.467L159.62,61.252L160.72,59.802L161.82,60.043L162.92,58.936L164.02,59.058L165.12,61.029L166.22,62.803L167.32,62.466L168.42,66.152L169.52,66.218L170.62,60.898L171.73,63.899L172.83,59.856L173.93,58.852L175.03,59.296L176.13,58.581L177.23,61.008L178.33,60.308L179.43,62.508L180.53,60.198L181.63,61.04L182.74,60.225L183.84,60.549L184.94,60.097L186.04,57.62L187.14,58.906L188.24,63.285L189.34,61.323L190.44,60.508L191.54,63.339L192.64,61.347L193.74,57.843L194.85,58.665L195.95,58.808L197.05,59.998L198.15,59.32L199.25,61.049L200.35,59.978L201.45,59.963L202.55,57.914L203.65,58.965L204.75,58.281L205.86,56.622L206.96,56.75L208.06,57.501L209.16,56.253L210.26,56.869L211.36,57.772L212.46,58.635L213.56,57.772L214.66,57.95L215.76,56.262L216.86,56.259L217.97,55.464L219.07,55.661L220.17,55.101L221.27,55.622L222.37,55.455L223.47,55.994L224.57,54.851L225.67,54.943L226.77,55.908L227.87,55.434L228.98,54.273L230.08,54.592L231.18,54.83L232.28,54.285L233.38,55.211L234.48,55.426L235.58,54.768L236.68,54.133L237.78,54.378L238.88,54.005L239.98,53.425L241.09,53.532L242.19,54.47L243.29,53.672L244.39,53.211L245.49,53.103L246.59,53.169L247.69,52.698L248.79,52.797L249.89,53.178L250.99,52.514L252.1,52.305L253.2,52.133L254.3,51.975L255.4,51.999L256.5,52.109L257.6,52.145L258.7,51.835L259.8,51.549L260.9,51.689L262,51.21L263.1,51.049L264.21,50.912L265.31,50.939L266.41,50.644L267.51,50.608L268.61,50.897L269.71,50.748L270.81,50.748L271.91,50.433L273.01,50.486L274.11,50.352L275.22,50.162L276.32,50.236L277.42,50.01L278.52,50.01L279.62,49.796L280.72,49.912L281.82,49.766L282.92,49.522L284.02,49.307L285.12,49.376L286.22,49.367L287.33,49.221L288.43,49.028L289.53,49.194L290.63,49.123L291.73,49.075L292.83,48.909L293.93,48.76L295.03,48.706L296.13,48.795L297.23,48.593L298.34,48.548L299.44,48.274L300.54,48.456L301.64,48.423L302.74,48.313L303.84,48.367L304.94,48.057L306.04,48.164L307.14,47.911L308.24,48.024L309.34,47.777L310.45,48.003L311.55,47.667L312.65,47.84L313.75,47.634L314.85,47.75L315.95,47.619L317.05,47.637L318.15,47.5L319.25,47.393L320.35,47.471L321.46,47.2L322.56,47.277L323.66,47.241L324.76,47.173L325.86,47.137L326.96,47.101L328.06,47.092L329.16,47.063L330.26,47.143L331.36,47.006L332.46,46.816L333.57,46.83L334.67,46.798L335.77,46.768L336.87,46.887L337.97,46.759L339.07,46.702L340.17,46.586L341.27,46.506L342.37,46.598L343.47,46.548L344.58,46.506L345.68,46.426L346.78,46.414L347.88,46.348L348.98,46.28L350.08,46.327L351.18,46.265L352.28,46.205L353.38,46.289L354.48,46.208L355.58,46.161L356.69,46.22L357.79,46L358.89,46.042L359.99,46.056L361.09,46.062L362.19,46.027L363.29,46.05L364.39,46.015L365.49,46.033L366.59,45.994L367.7,45.914L368.8,45.97L369.9,45.878L371,45.887L372.1,45.756L373.2,45.753L374.3,45.708L375.4,45.869L376.5,45.878L377.6,45.762L378.7,45.756L379.81,45.705L380.91,45.788L382.01,45.666L383.11,45.699L384.21,45.738L385.31,45.637L386.41,45.598L387.51,45.687L388.61,45.69L389.71,45.625L390.82,45.586L391.92,45.672L393.02,45.556L394.12,45.577L395.22,45.521L396.32,45.524L397.42,45.55L398.52,45.547L399.62,45.488L400.72,45.535L401.82,45.449L402.93,45.461L404.03,45.431L405.13,45.467L406.23,45.446L407.33,45.461L408.43,45.476L409.53,45.431L410.63,45.401L411.73,45.419L412.83,45.404L413.94,45.434L415.04,45.41L416.14,45.372L417.24,45.428L418.34,45.381L419.44,45.333L420.54,45.404L421.64,45.333L422.74,45.351L423.84,45.342L424.94,45.336L426.05,45.336L427.15,45.351L428.25,45.294L429.35,45.33L430.45,45.312L431.55,45.321L432.65,45.315L433.75,45.25L434.85,45.288L435.95,45.306L437.06,45.318L438.16,45.273L439.26,45.318L440.36,45.27L441.46,45.309L442.56,45.238L443.66,45.253L444.76,45.285L445.86,45.303L446.96,45.303L448.06,45.256L449.17,45.226L450.27,45.235L451.37,45.238L452.47,45.226L453.57,45.235L454.67,45.253L455.77,45.229L456.87,45.223L457.97,45.235L459.07,45.202L460.18,45.211L461.28,45.229L462.38,45.22L463.48,45.208L464.58,45.235L465.68,45.208L466.78,45.238L467.88,45.196L468.98,45.19L470.08,45.223L471.18,45.202L472.29,45.187L473.39,45.217L474.49,45.187L475.59,45.187L476.69,45.199L477.79,45.19L478.89,45.193L479.99,45.199L481.09,45.19L482.19,45.178L483.3,45.175L484.4,45.175L485.5,45.184L486.6,45.181L487.7,45.169L488.8,45.175L489.9,45.205L491,45.169L492.1,45.175L493.2,45.181L494.3,45.187L495.41,45.166L496.51,45.16L497.61,45.172L498.71,45.166L499.81,45.16L500.91,45.166L502.01,45.181L503.11,45.169L504.21,45.163L505.31,45.172L506.42,45.163L507.52,45.169L508.62,45.169L509.72,45.163L510.82,45.16L511.92,45.166L513.02,45.157L514.12,45.169L515.22,45.169L516.32,45.169L517.42,45.166L518.53,45.157L519.63,45.166L520.73,45.154L521.83,45.16L522.93,45.16L524.03,45.16L525.13,45.154L526.23,45.163L527.33,45.166L528.43,45.163L529.54,45.151L530.64,45.157L531.74,45.163L532.84,45.157L533.94,45.157L535.04,45.157L537.24,45.154L538.34,45.151L539.44,45.151L540.54,45.154L541.65,45.157L542.75,45.157L543.85,45.151L544.95,45.151L546.05,45.151L547.15,45.157L548.25,45.154L549.35,45.157L550.45,45.151L551.55,45.16L552.66,45.151L554.86,45.151L555.96,45.157L557.06,45.154L558.16,45.151L559.26,45.151L560.36,45.157L561.46,45.151L563.66,45.154L565.87,45.154L566.97,45.151L568.07,45.16L569.17,45.154L571.37,45.154L572.47,45.151L574.67,45.151L576.88,45.151L579.08,45.157L581.28,45.151L582.38,45.151L583.48,45.151L584.58,45.151L585.68,45.151L586.78,45.151L588.99,45.151L594.49,45.151L595.59,45.151L596.69,45.151L615.41,45.151L617.61,45.157L629.72,45.151L638.53,45.151L720,45.151" style="fill:none;stroke:#0000FF" />
</g>
</svg>
