<?xml version="1.0"?>
<!-- Generated by SVGo and Plotinum VG -->
<svg width="720pt" height="432pt" viewBox="0 0 720 432"
	xmlns="http://www.w3.org/2000/svg"
	xmlns:xlink="http://www.w3.org/1999/xlink">
<g transform="scale(1, -1) translate(0, -432)">
<path d="M0,0L720,0L720,432L0,432Z" style="fill:#FFFFFF" />
<text x="358.5" y="-420.45" transform="scale(1, -1)"
	style="font-family:Times;font-weight:normal;font-style:normal;font-size:12px"> </text>
<text x="379.31" y="-3.8613" transform="scale(1, -1)"
	style="font-family:Times;font-weight:normal;font-style:normal;font-size:12px">Costs</text>
<text x="56.555" y="-18.634" transform="scale(1, -1)"
	style="font-family:Times;font-weight:normal;font-style:normal;font-size:10px">0.00</text>
<text x="354.09" y="-18.634" transform="scale(1, -1)"
	style="font-family:Times;font-weight:normal;font-style:normal;font-size:10px">250.00</text>
<text x="656.63" y="-18.634" transform="scale(1, -1)"
	style="font-family:Times;font-weight:normal;font-style:normal;font-size:10px">500.00</text>
<path d="M65.305,28.263L65.305,36.263" style="fill:none;stroke:#000000;stroke-width:0.5" />
<path d="M367.84,28.263L367.84,36.263" style="fill:none;stroke:#000000;stroke-width:0.5" />
<path d="M670.38,28.263L670.38,36.263" style="fill:none;stroke:#000000;stroke-width:0.5" />
<path d="M125.81,32.263L125.81,36.263" style="fill:none;stroke:#000000;stroke-width:0.5" />
<path d="M186.32,32.263L186.32,36.263" style="fill:none;stroke:#000000;stroke-width:0.5" />
<path d="M246.83,32.263L246.83,36.263" style="fill:none;stroke:#000000;stroke-width:0.5" />
<path d="M307.34,32.263L307.34,36.263" style="fill:none;stroke:#000000;stroke-width:0.5" />
<path d="M428.35,32.263L428.35,36.263" style="fill:none;stroke:#000000;stroke-width:0.5" />
<path d="M488.86,32.263L488.86,36.263" style="fill:none;stroke:#000000;stroke-width:0.5" />
<path d="M549.37,32.263L549.37,36.263" style="fill:none;stroke:#000000;stroke-width:0.5" />
<path d="M609.88,32.263L609.88,36.263" style="fill:none;stroke:#000000;stroke-width:0.5" />
<path d="M65.305,36.263L720,36.263" style="fill:none;stroke:#000000;stroke-width:0.5" />
<g transform="rotate(90)">
<text x="152.55" y="11.555" transform="scale(1, -1)"
	style="font-family:Times;font-weight:normal;font-style:normal;font-size:12px">Number of trials (1000000 total)</text>
</g>
<text x="24.055" y="-111.57" transform="scale(1, -1)"
	style="font-family:Times;font-weight:normal;font-style:normal;font-size:10px">30000</text>
<text x="24.055" y="-250.81" transform="scale(1, -1)"
	style="font-family:Times;font-weight:normal;font-style:normal;font-size:10px">90000</text>
<text x="19.055" y="-390.06" transform="scale(1, -1)"
	style="font-family:Times;font-weight:normal;font-style:normal;font-size:10px">150000</text>
<path d="M51.555,114.77L59.555,114.77" style="fill:none;stroke:#000000;stroke-width:0.5" />
<path d="M51.555,254.02L59.555,254.02" style="fill:none;stroke:#000000;stroke-width:0.5" />
<path d="M51.555,393.27L59.555,393.27" style="fill:none;stroke:#000000;stroke-width:0.5" />
<path d="M55.555,184.4L59.555,184.4" style="fill:none;stroke:#000000;stroke-width:0.5" />
<path d="M55.555,323.64L59.555,323.64" style="fill:none;stroke:#000000;stroke-width:0.5" />
<path d="M59.555,45.151L59.555,416.58" style="fill:none;stroke:#000000;stroke-width:0.5" />
<path d="M65.305,416.58L96.769,48.633L97.979,48.686L99.189,48.387L102.82,70.32L104.03,78.508L105.24,58.839L106.45,65.799L107.66,73.88L108.87,66.876L111.29,82.753L112.5,62.397L113.71,59.225L114.92,97.269L118.55,52.03L119.76,82.521L120.97,70.543L124.6,48.435L125.81,62.457L127.02,55.955L129.44,114.86L130.65,48.533L131.86,82.797L133.07,48.623L134.28,48.73L135.49,87.343L136.7,45.834L137.91,45.69L139.12,56.161L140.33,49.586L141.54,51.232L142.75,46.535L143.96,48.31L145.18,49.642L146.39,91.952L147.6,49.222L148.81,50.543L150.02,50.877L151.23,84.526L152.44,53.321L153.65,88.752L154.86,61.94L156.07,50.765L157.28,53.337L158.49,55.484L159.7,51.025L160.91,55.284L162.12,56.521L163.33,87.673L164.54,51.25L165.75,50.981L166.96,56.112L168.17,57.925L169.38,59.118L170.59,57.289L171.8,54.711L173.01,57.886L174.22,54.671L175.43,61.473L176.64,54.107L177.85,56.159L179.06,62.079L180.27,51.264L181.48,58.538L182.69,51.48L183.9,58.115L185.11,62.369L186.32,52.536L187.53,53.105L188.74,55.082L189.95,59.812L191.16,55.558L192.37,57.869L193.58,59.754L194.79,55.302L196,65.254L197.21,55.897L198.42,49.902L199.63,61.559L200.84,62.351L202.05,59.494L203.26,56.275L204.47,52.545L205.68,56.043L206.89,54.676L208.1,54.04L209.31,56.716L210.52,59.362L211.73,52.374L212.94,58.747L214.15,50.902L215.36,57.807L216.57,55.094L217.78,63.1L218.99,54.381L220.2,54.042L221.42,55.326L222.63,51.554L223.84,55.124L225.05,53.497L226.26,50.245L227.47,58.097L228.68,51.169L229.89,53.715L231.1,50.972L232.31,54.952L233.52,55.131L234.73,55.135L235.94,51.715L237.15,51.67L238.36,51.127L239.57,55.05L240.78,51.64L241.99,51.715L243.2,53.017L244.41,54.465L245.62,51.661L246.83,50.765L248.04,51.464L249.25,55.131L250.46,51.534L251.67,54.418L252.88,51.489L254.09,51.183L255.3,51.527L256.51,52.292L257.72,51.313L258.93,51.496L260.14,52.218L261.35,51.076L262.56,50.819L263.77,51.239L264.98,51.812L266.19,51.657L267.4,51.536L268.61,49.765L269.82,50.668L271.03,51.181L272.24,50.085L273.45,51.197L274.66,50.164L275.87,49.99L277.08,51L278.29,49.586L279.5,49.9L280.71,49.87L281.92,51.053L283.13,50.167L284.34,49.524L285.55,49.733L286.76,49.09L287.97,50.206L289.18,49.684L290.39,49.322L291.6,49.022L292.81,48.714L294.02,49.756L295.23,48.702L296.44,48.848L297.65,49.069L298.87,50.009L300.08,48.716L301.29,48.83L302.5,48.168L303.71,48.772L304.92,48.695L306.13,48.704L307.34,48.335L308.55,48.512L309.76,48.308L310.97,48.317L312.18,47.658L313.39,48.447L314.6,48.127L315.81,48.463L317.02,47.586L318.23,47.734L319.44,47.976L320.65,47.892L321.86,47.918L323.07,47.732L324.28,47.535L325.49,47.563L326.7,47.421L327.91,47.454L329.12,47.416L330.33,47.586L331.54,47.396L332.75,47.416L333.96,47.05L335.17,47.103L336.38,47.175L337.59,47.486L338.8,47.133L340.01,47.101L341.22,47.115L342.43,46.945L343.64,47.017L344.85,46.836L346.06,46.806L347.27,46.927L348.48,46.924L349.69,46.73L350.9,46.671L352.11,46.82L353.32,46.702L354.53,46.794L355.74,46.555L356.95,46.562L358.16,46.558L359.37,46.588L360.58,46.493L361.79,46.569L363,46.588L364.21,46.344L365.42,46.402L366.63,46.244L367.84,46.354L369.05,46.307L370.26,46.286L371.47,46.231L372.68,46.291L373.89,46.175L375.11,46.251L376.32,46.133L377.53,46.11L378.74,46.066L379.95,46.084L381.16,46.033L382.37,46.068L383.58,46.05L384.79,46.015L386,46.005L387.21,45.938L388.42,45.85L389.63,45.892L390.84,45.94L392.05,45.799L393.26,45.778L394.47,45.871L395.68,45.776L396.89,45.857L398.1,45.794L399.31,45.706L400.52,45.801L401.73,45.88L402.94,45.72L404.15,45.681L405.36,45.701L406.57,45.701L407.78,45.701L408.99,45.683L410.2,45.59L411.41,45.655L412.62,45.609L413.83,45.676L415.04,45.643L416.25,45.576L417.46,45.583L418.67,45.592L419.88,45.613L421.09,45.553L422.3,45.499L423.51,45.541L424.72,45.525L425.93,45.511L427.14,45.527L428.35,45.537L429.56,45.506L430.77,45.444L431.98,45.472L433.19,45.455L434.4,45.416L435.61,45.444L436.82,45.411L438.03,45.423L439.24,45.388L440.45,45.451L441.66,45.39L442.87,45.37L444.08,45.383L445.29,45.379L446.5,45.37L447.71,45.332L448.92,45.365L450.13,45.335L451.34,45.353L452.56,45.37L453.77,45.36L454.98,45.321L456.19,45.339L457.4,45.288L458.61,45.356L459.82,45.344L461.03,45.321L462.24,45.307L463.45,45.298L464.66,45.298L465.87,45.277L467.08,45.323L468.29,45.3L469.5,45.312L470.71,45.286L471.92,45.26L473.13,45.288L474.34,45.263L475.55,45.258L476.76,45.298L477.97,45.247L479.18,45.242L480.39,45.274L481.6,45.256L482.81,45.249L484.02,45.24L485.23,45.221L486.44,45.205L487.65,45.247L488.86,45.228L490.07,45.223L491.28,45.219L492.49,45.219L493.7,45.212L494.91,45.228L496.12,45.221L497.33,45.216L498.54,45.221L499.75,45.2L500.96,45.223L502.17,45.209L503.38,45.186L504.59,45.195L505.8,45.207L507.01,45.188L508.22,45.195L509.43,45.186L510.64,45.182L511.85,45.195L513.06,45.216L514.27,45.195L515.48,45.188L516.69,45.179L517.9,45.188L519.11,45.177L520.32,45.191L521.53,45.182L522.74,45.191L523.95,45.186L525.16,45.186L526.37,45.188L527.58,45.182L528.8,45.172L530.01,45.182L531.22,45.172L532.43,45.177L533.64,45.186L534.85,45.163L536.06,45.168L537.27,45.168L538.48,45.168L539.69,45.17L540.9,45.179L542.11,45.177L543.32,45.172L544.53,45.163L545.74,45.17L546.95,45.168L548.16,45.165L549.37,45.165L550.58,45.158L551.79,45.158L553,45.17L554.21,45.163L555.42,45.161L556.63,45.163L557.84,45.158L559.05,45.158L560.26,45.165L561.47,45.154L562.68,45.158L563.89,45.156L565.1,45.161L566.31,45.158L567.52,45.154L568.73,45.156L569.94,45.156L571.15,45.156L572.36,45.163L573.57,45.161L574.78,45.151L575.99,45.154L577.2,45.163L578.41,45.151L579.62,45.151L580.83,45.158L582.04,45.151L583.25,45.156L584.46,45.151L585.67,45.158L586.88,45.151L588.09,45.163L589.3,45.156L590.51,45.151L591.72,45.156L592.93,45.156L595.35,45.151L596.56,45.151L597.77,45.151L598.98,45.154L600.19,45.151L601.4,45.151L602.61,45.154L605.04,45.151L606.25,45.154L607.46,45.154L609.88,45.151L611.09,45.156L613.51,45.154L614.72,45.154L615.93,45.151L617.14,45.151L619.56,45.151L620.77,45.151L624.4,45.151L625.61,45.151L629.24,45.151L631.66,45.151L632.87,45.154L642.55,45.151L647.39,45.151L661.91,45.151L669.17,45.151L683.7,45.151L706.69,45.151L720,45.151" style="fill:none;stroke:#0000FF" />
</g>
</svg>
