<?xml version="1.0"?>
<!-- Generated by SVGo and Plotinum VG -->
<svg width="720pt" height="432pt" viewBox="0 0 720 432"
	xmlns="http://www.w3.org/2000/svg"
	xmlns:xlink="http://www.w3.org/1999/xlink">
<g transform="scale(1, -1) translate(0, -432)">
<path d="M0,0L720,0L720,432L0,432Z" style="fill:#FFFFFF" />
<text x="358.5" y="-420.45" transform="scale(1, -1)"
	style="font-family:Times;font-weight:normal;font-style:normal;font-size:12px"> </text>
<text x="379.31" y="-3.8613" transform="scale(1, -1)"
	style="font-family:Times;font-weight:normal;font-style:normal;font-size:12px">Costs</text>
<text x="56.555" y="-18.634" transform="scale(1, -1)"
	style="font-family:Times;font-weight:normal;font-style:normal;font-size:10px">0.00</text>
<text x="337.2" y="-18.634" transform="scale(1, -1)"
	style="font-family:Times;font-weight:normal;font-style:normal;font-size:10px">250.00</text>
<text x="622.84" y="-18.634" transform="scale(1, -1)"
	style="font-family:Times;font-weight:normal;font-style:normal;font-size:10px">500.00</text>
<path d="M65.305,28.263L65.305,36.263" style="fill:none;stroke:#000000;stroke-width:0.5" />
<path d="M350.95,28.263L350.95,36.263" style="fill:none;stroke:#000000;stroke-width:0.5" />
<path d="M636.59,28.263L636.59,36.263" style="fill:none;stroke:#000000;stroke-width:0.5" />
<path d="M122.43,32.263L122.43,36.263" style="fill:none;stroke:#000000;stroke-width:0.5" />
<path d="M179.56,32.263L179.56,36.263" style="fill:none;stroke:#000000;stroke-width:0.5" />
<path d="M236.69,32.263L236.69,36.263" style="fill:none;stroke:#000000;stroke-width:0.5" />
<path d="M293.82,32.263L293.82,36.263" style="fill:none;stroke:#000000;stroke-width:0.5" />
<path d="M408.08,32.263L408.08,36.263" style="fill:none;stroke:#000000;stroke-width:0.5" />
<path d="M465.21,32.263L465.21,36.263" style="fill:none;stroke:#000000;stroke-width:0.5" />
<path d="M522.33,32.263L522.33,36.263" style="fill:none;stroke:#000000;stroke-width:0.5" />
<path d="M579.46,32.263L579.46,36.263" style="fill:none;stroke:#000000;stroke-width:0.5" />
<path d="M693.72,32.263L693.72,36.263" style="fill:none;stroke:#000000;stroke-width:0.5" />
<path d="M65.305,36.263L720,36.263" style="fill:none;stroke:#000000;stroke-width:0.5" />
<g transform="rotate(90)">
<text x="152.55" y="11.555" transform="scale(1, -1)"
	style="font-family:Times;font-weight:normal;font-style:normal;font-size:12px">Number of trials (1000000 total)</text>
</g>
<text x="24.055" y="-93.879" transform="scale(1, -1)"
	style="font-family:Times;font-weight:normal;font-style:normal;font-size:10px">20000</text>
<text x="24.055" y="-249.69" transform="scale(1, -1)"
	style="font-family:Times;font-weight:normal;font-style:normal;font-size:10px">80000</text>
<text x="19.055" y="-405.49" transform="scale(1, -1)"
	style="font-family:Times;font-weight:normal;font-style:normal;font-size:10px">140000</text>
<path d="M51.555,97.084L59.555,97.084" style="fill:none;stroke:#000000;stroke-width:0.5" />
<path d="M51.555,252.89L59.555,252.89" style="fill:none;stroke:#000000;stroke-width:0.5" />
<path d="M51.555,408.7L59.555,408.7" style="fill:none;stroke:#000000;stroke-width:0.5" />
<path d="M55.555,174.99L59.555,174.99" style="fill:none;stroke:#000000;stroke-width:0.5" />
<path d="M55.555,330.79L59.555,330.79" style="fill:none;stroke:#000000;stroke-width:0.5" />
<path d="M59.555,45.151L59.555,416.58" style="fill:none;stroke:#000000;stroke-width:0.5" />
<path d="M65.305,416.58L91.584,55.653L92.726,48.353L95.012,48.486L96.154,65.827L97.297,62.981L98.439,66.476L100.72,51.989L101.87,62.038L103.01,55.855L104.15,87.294L105.29,77.102L106.44,58.198L107.58,73.422L108.72,76.715L109.87,58.974L111.01,69.314L112.15,69.481L113.29,69.299L114.44,95.095L115.58,93.563L116.72,59.296L117.86,58.826L119.01,45.247L120.15,48.423L121.29,45.224L122.43,77.975L123.58,45.912L124.72,45.962L125.86,98.245L127,59.88L128.15,50.386L129.29,64.58L130.43,51.028L131.57,47.112L132.72,75.456L133.86,48.179L135,60.862L136.14,63.682L137.29,74.843L138.43,50.781L139.57,51.56L140.71,53.355L141.86,57.457L143,53.448L144.14,55.551L145.28,56.097L146.43,58.07L147.57,59.195L148.71,74.879L149.86,73.298L151,58.008L152.14,58.405L153.28,65.941L154.43,62.41L155.57,61.314L156.71,74.918L157.85,63.913L159,61.903L160.14,57.948L161.28,60.33L162.42,60.953L163.57,58.997L164.71,65.484L165.85,62.854L166.99,56.515L168.14,60.275L169.28,59.743L170.42,55.455L171.56,60.309L172.71,61.233L173.85,57.076L174.99,63.656L176.13,64.331L177.28,57.618L178.42,57.595L179.56,57.834L180.7,56.806L181.85,57.551L182.99,61.223L184.13,55.822L185.28,56.665L186.42,60.763L187.56,59.68L188.7,55.907L189.85,59.283L190.99,54.284L192.13,56.097L193.27,59.252L194.42,56.803L195.56,57.543L196.7,59.278L197.84,60.846L198.99,59.769L200.13,58.304L201.27,55.549L202.41,56.266L203.56,55.894L204.7,56.603L205.84,57.509L206.98,57.483L208.13,55.45L209.27,56.793L210.41,56.468L211.55,54.702L212.7,54.11L213.84,56.382L214.98,54.502L216.12,54.689L217.27,56.736L218.41,54.923L219.55,54.458L220.69,55.796L221.84,55.087L222.98,53.477L224.12,54.147L225.27,54.523L226.41,54.492L227.55,53.425L228.69,54.232L229.84,53.464L230.98,52.726L232.12,53.259L233.26,54.274L234.41,52.534L235.55,53.129L236.69,53.529L237.83,52.773L238.98,52.661L240.12,53.261L241.26,52.934L242.4,52.695L243.55,52.705L244.69,52.121L245.83,52.178L246.97,52.524L248.12,52.061L249.26,51.999L250.4,51.802L251.54,51.106L252.69,51.412L253.83,51.407L254.97,51.077L256.11,51.63L257.26,51.399L258.4,51.238L259.54,51.456L260.68,50.805L261.83,50.532L262.97,50.412L264.11,50.719L265.26,50.542L266.4,50.69L267.54,50.168L268.68,50.228L269.83,50.194L270.97,50.049L272.11,49.511L273.25,49.709L274.4,49.784L275.54,49.402L276.68,49.566L277.82,49.556L278.97,49.296L280.11,49.363L281.25,49.53L282.39,49.446L283.54,48.989L284.68,48.943L285.82,49.176L286.96,48.792L288.11,48.932L289.25,48.909L290.39,48.808L291.53,48.551L292.68,48.454L293.82,48.597L294.96,48.33L296.1,48.387L297.25,48.296L298.39,48.299L299.53,48.2L300.68,48.304L301.82,48.083L302.96,48.106L304.1,48.081L305.25,48.062L306.39,47.803L307.53,47.842L308.67,47.821L309.82,47.855L310.96,47.629L312.1,47.694L313.24,47.462L314.39,47.392L315.53,47.348L316.67,47.457L317.81,47.257L318.96,47.257L320.1,47.128L321.24,47.164L322.38,47.034L323.53,47.094L324.67,47.042L325.81,46.995L326.95,46.92L328.1,47.096L329.24,46.894L330.38,46.772L331.52,46.803L332.67,46.761L333.81,46.8L334.95,46.754L336.09,46.702L337.24,46.598L338.38,46.564L339.52,46.665L340.67,46.525L341.81,46.515L342.95,46.468L344.09,46.481L345.24,46.382L346.38,46.46L347.52,46.348L348.66,46.312L349.81,46.341L350.95,46.382L352.09,46.335L353.23,46.195L354.38,46.203L355.52,46.224L356.66,46.193L357.8,46.112L358.95,46.052L360.09,46.045L361.23,46.097L362.37,45.972L363.52,45.99L364.66,46.042L365.8,46.011L366.94,45.923L368.09,45.829L369.23,45.941L370.37,45.863L371.51,45.852L372.66,45.829L373.8,45.845L374.94,45.816L376.09,45.707L377.23,45.795L378.37,45.769L379.51,45.793L380.66,45.723L381.8,45.712L382.94,45.684L384.08,45.671L385.23,45.671L386.37,45.686L387.51,45.668L388.65,45.603L389.8,45.59L390.94,45.629L392.08,45.614L393.22,45.572L394.37,45.567L395.51,45.569L396.65,45.53L397.79,45.572L398.94,45.528L400.08,45.442L401.22,45.505L402.36,45.466L403.51,45.484L404.65,45.471L405.79,45.502L406.93,45.46L408.08,45.463L409.22,45.447L410.36,45.447L411.5,45.429L412.65,45.434L413.79,45.453L414.93,45.388L416.08,45.424L417.22,45.388L418.36,45.403L419.5,45.354L420.65,45.341L421.79,45.395L422.93,45.323L424.07,45.344L425.22,45.375L426.36,45.325L427.5,45.338L428.64,45.336L429.79,45.323L430.93,45.323L432.07,45.333L433.21,45.315L434.36,45.325L435.5,45.289L436.64,45.312L437.78,45.284L438.93,45.26L440.07,45.276L441.21,45.292L442.35,45.242L443.5,45.281L444.64,45.273L445.78,45.302L446.92,45.271L448.07,45.266L449.21,45.258L450.35,45.25L451.49,45.253L452.64,45.263L453.78,45.258L454.92,45.25L456.07,45.24L457.21,45.24L458.35,45.219L459.49,45.242L460.64,45.193L461.78,45.221L462.92,45.237L464.06,45.198L465.21,45.214L466.35,45.206L467.49,45.211L468.63,45.203L469.78,45.203L470.92,45.208L472.06,45.216L473.2,45.206L474.35,45.196L475.49,45.208L476.63,45.211L477.77,45.206L478.92,45.203L480.06,45.208L481.2,45.193L482.34,45.18L483.49,45.196L484.63,45.177L485.77,45.183L486.91,45.17L488.06,45.185L489.2,45.183L490.34,45.167L491.49,45.198L492.63,45.17L493.77,45.19L494.91,45.172L496.06,45.164L497.2,45.177L498.34,45.18L499.48,45.17L500.63,45.162L501.77,45.17L502.91,45.175L504.05,45.18L505.2,45.175L506.34,45.172L507.48,45.162L508.62,45.167L509.77,45.188L510.91,45.164L512.05,45.185L513.19,45.177L514.34,45.164L515.48,45.162L516.62,45.167L517.76,45.162L518.91,45.177L520.05,45.162L521.19,45.162L522.33,45.164L523.48,45.164L524.62,45.157L525.76,45.167L526.9,45.159L528.05,45.162L529.19,45.154L530.33,45.167L531.48,45.159L532.62,45.159L533.76,45.157L534.9,45.154L536.05,45.151L537.19,45.154L538.33,45.159L539.47,45.154L540.62,45.151L541.76,45.151L542.9,45.167L544.04,45.164L545.19,45.151L546.33,45.164L547.47,45.157L548.61,45.151L549.76,45.154L550.9,45.154L552.04,45.151L553.18,45.159L554.33,45.157L556.61,45.154L557.75,45.154L558.9,45.157L560.04,45.151L561.18,45.151L562.32,45.154L563.47,45.151L564.61,45.154L569.18,45.151L571.47,45.151L572.61,45.154L573.75,45.151L577.18,45.154L578.32,45.151L579.46,45.157L581.75,45.151L582.89,45.159L584.03,45.151L588.6,45.151L590.89,45.154L592.03,45.151L593.17,45.151L596.6,45.151L597.74,45.154L600.03,45.151L602.31,45.151L603.46,45.151L606.89,45.157L608.03,45.151L610.31,45.154L613.74,45.151L614.88,45.151L619.45,45.151L634.31,45.151L635.45,45.151L651.45,45.151L704,45.151L720,45.151" style="fill:none;stroke:#0000FF" />
</g>
</svg>
