<?xml version="1.0"?>
<!-- Generated by SVGo and Plotinum VG -->
<svg width="720pt" height="432pt" viewBox="0 0 720 432"
	xmlns="http://www.w3.org/2000/svg"
	xmlns:xlink="http://www.w3.org/1999/xlink">
<g transform="scale(1, -1) translate(0, -432)">
<path d="M0,0L720,0L720,432L0,432Z" style="fill:#FFFFFF" />
<text x="358.5" y="-420.45" transform="scale(1, -1)"
	style="font-family:Times;font-weight:normal;font-style:normal;font-size:12px"> </text>
<text x="379.31" y="-3.8613" transform="scale(1, -1)"
	style="font-family:Times;font-weight:normal;font-style:normal;font-size:12px">Costs</text>
<text x="62.805" y="-18.634" transform="scale(1, -1)"
	style="font-family:Times;font-weight:normal;font-style:normal;font-size:10px">0</text>
<text x="326.12" y="-18.634" transform="scale(1, -1)"
	style="font-family:Times;font-weight:normal;font-style:normal;font-size:10px">200</text>
<text x="594.44" y="-18.634" transform="scale(1, -1)"
	style="font-family:Times;font-weight:normal;font-style:normal;font-size:10px">400</text>
<path d="M65.305,28.263L65.305,36.263" style="fill:none;stroke:#000000;stroke-width:0.5" />
<path d="M333.62,28.263L333.62,36.263" style="fill:none;stroke:#000000;stroke-width:0.5" />
<path d="M601.94,28.263L601.94,36.263" style="fill:none;stroke:#000000;stroke-width:0.5" />
<path d="M199.46,32.263L199.46,36.263" style="fill:none;stroke:#000000;stroke-width:0.5" />
<path d="M467.78,32.263L467.78,36.263" style="fill:none;stroke:#000000;stroke-width:0.5" />
<path d="M65.305,36.263L720,36.263" style="fill:none;stroke:#000000;stroke-width:0.5" />
<g transform="rotate(90)">
<text x="152.55" y="11.555" transform="scale(1, -1)"
	style="font-family:Times;font-weight:normal;font-style:normal;font-size:12px">Number of trials (1000000 total)</text>
</g>
<text x="24.055" y="-113.16" transform="scale(1, -1)"
	style="font-family:Times;font-weight:normal;font-style:normal;font-size:10px">40000</text>
<text x="19.055" y="-255.58" transform="scale(1, -1)"
	style="font-family:Times;font-weight:normal;font-style:normal;font-size:10px">120000</text>
<text x="19.055" y="-398" transform="scale(1, -1)"
	style="font-family:Times;font-weight:normal;font-style:normal;font-size:10px">200000</text>
<path d="M51.555,116.36L59.555,116.36" style="fill:none;stroke:#000000;stroke-width:0.5" />
<path d="M51.555,258.78L59.555,258.78" style="fill:none;stroke:#000000;stroke-width:0.5" />
<path d="M51.555,401.21L59.555,401.21" style="fill:none;stroke:#000000;stroke-width:0.5" />
<path d="M55.555,187.57L59.555,187.57" style="fill:none;stroke:#000000;stroke-width:0.5" />
<path d="M55.555,329.99L59.555,329.99" style="fill:none;stroke:#000000;stroke-width:0.5" />
<path d="M59.555,45.151L59.555,416.58" style="fill:none;stroke:#000000;stroke-width:0.5" />
<path d="M65.305,416.58L94.82,48.776L96.161,48.894L100.19,48.5L101.53,66.42L102.87,66.702L106.89,55.566L108.24,55.915L109.58,70.097L110.92,55.726L112.26,52.077L113.6,48.61L114.94,59.889L116.29,80.785L117.63,59.741L118.97,70.727L120.31,81.232L121.65,110.43L124.33,55.634L125.68,66.803L127.02,78.067L129.7,55.662L131.04,59.832L132.38,70.522L133.73,45.329L136.41,82.114L137.75,45.846L139.09,50.204L140.43,60.218L141.78,49.166L143.12,45.917L144.46,50.49L145.8,47.574L147.14,54.631L148.48,57.07L149.82,57.955L151.17,48.374L152.51,49.789L153.85,49.182L155.19,52.675L156.53,50.439L157.87,52.967L159.22,51.53L160.56,60.512L161.9,51.349L163.24,64.827L164.58,56.364L165.92,54.078L167.27,52.356L168.61,79.812L169.95,53.538L171.29,56.214L172.63,67.757L173.97,73.041L175.31,55.126L176.66,58.283L178,57.361L179.34,51.541L180.68,55.942L182.02,56.438L183.36,56.196L184.71,51.445L186.05,54.72L187.39,56.967L188.73,53.106L190.07,50.654L191.41,54.539L192.76,57.069L194.1,50.628L195.44,50.524L196.78,52.924L198.12,52.828L199.46,50.264L200.81,51.945L202.15,51.806L203.49,52.848L204.83,52.807L206.17,52.579L207.51,50.702L208.85,50.572L210.2,52.652L211.54,53.526L212.88,51.094L214.22,52.096L215.56,52.337L216.9,52.778L218.25,52.591L219.59,55.47L220.93,51.731L222.27,52.413L223.61,53.852L224.95,56.818L226.3,51.108L227.64,52.919L228.98,54.523L230.32,55.11L231.66,50.514L233,51.219L234.34,53.141L235.69,52.787L237.03,49.634L238.37,50.571L239.71,52.997L241.05,49.787L242.39,49.761L243.74,51.365L245.08,50.846L246.42,48.901L247.76,50.61L249.1,49.623L250.44,49.111L251.79,49.291L253.13,49.748L254.47,49.129L255.81,49.139L257.15,49.413L258.49,49.947L259.84,48.733L261.18,48.675L262.52,48.927L263.86,49.449L265.2,48.504L266.54,49.666L267.88,49.193L269.23,49.066L270.57,48.837L271.91,49.526L273.25,48.817L274.59,48.853L275.93,49.509L277.28,49.931L278.62,48.632L279.96,48.776L281.3,49.413L282.64,48.354L283.98,48.546L285.33,48.751L286.67,48.47L288.01,47.989L289.35,48.367L290.69,48.5L292.03,47.936L293.37,47.56L294.72,48.041L296.06,48.132L297.4,47.512L298.74,47.496L300.08,47.763L301.42,47.72L302.77,47.227L304.11,47.393L305.45,47.448L306.79,47.323L308.13,47.104L309.47,47.295L310.82,46.948L312.16,47.097L313.5,47.115L314.84,47.126L316.18,46.746L317.52,46.949L318.86,47.069L320.21,47.031L321.55,46.816L322.89,47.067L324.23,46.818L325.57,46.868L326.91,46.7L328.26,46.905L329.6,46.638L330.94,46.727L332.28,46.868L333.62,46.852L334.96,46.437L336.31,46.458L337.65,46.606L338.99,46.533L340.33,46.341L341.67,46.442L343.01,46.435L344.36,46.358L345.7,46.282L347.04,46.326L348.38,46.373L349.72,46.196L351.06,46.284L352.4,46.209L353.75,46.054L355.09,46.097L356.43,46.129L357.77,46.082L359.11,46.042L360.45,46.034L361.8,46.082L363.14,45.919L364.48,45.924L365.82,45.954L367.16,45.91L368.5,45.928L369.85,45.887L371.19,45.99L372.53,45.766L373.87,45.83L375.21,45.869L376.55,45.799L377.89,45.737L379.24,45.81L380.58,45.778L381.92,45.766L383.26,45.689L384.6,45.766L385.94,45.726L387.29,45.671L388.63,45.648L389.97,45.716L391.31,45.646L392.65,45.664L393.99,45.648L395.34,45.604L396.68,45.602L398.02,45.602L399.36,45.568L400.7,45.504L402.04,45.522L403.39,45.566L404.73,45.568L406.07,45.484L407.41,45.495L408.75,45.488L410.09,45.466L411.43,45.513L412.78,45.454L414.12,45.447L415.46,45.461L416.8,45.442L418.14,45.426L419.48,45.39L420.83,45.422L422.17,45.406L423.51,45.372L424.85,45.395L426.19,45.367L427.53,45.385L428.88,45.361L430.22,45.32L431.56,45.335L432.9,45.349L434.24,45.408L435.58,45.393L436.92,45.349L438.27,45.338L439.61,45.345L440.95,45.34L442.29,45.324L443.63,45.308L444.97,45.326L446.32,45.308L447.66,45.278L449,45.281L450.34,45.272L451.68,45.287L453.02,45.274L454.37,45.256L455.71,45.276L457.05,45.28L458.39,45.264L459.73,45.258L461.07,45.244L462.41,45.246L463.76,45.237L465.1,45.248L466.44,45.237L467.78,45.224L469.12,45.264L470.46,45.244L471.81,45.224L473.15,45.248L474.49,45.231L475.83,45.208L477.17,45.235L478.51,45.239L479.86,45.205L481.2,45.191L482.54,45.214L483.88,45.207L485.22,45.208L486.56,45.201L487.91,45.217L489.25,45.196L490.59,45.205L491.93,45.183L493.27,45.201L494.61,45.207L495.95,45.207L497.3,45.208L498.64,45.185L499.98,45.203L501.32,45.192L502.66,45.182L504,45.183L505.35,45.192L506.69,45.187L508.03,45.18L509.37,45.182L510.71,45.178L512.05,45.182L513.4,45.194L514.74,45.175L516.08,45.178L517.42,45.176L518.76,45.167L520.1,45.167L521.44,45.167L522.79,45.171L524.13,45.169L525.47,45.164L526.81,45.175L528.15,45.183L529.49,45.178L530.84,45.164L532.18,45.175L533.52,45.164L534.86,45.175L536.2,45.171L537.54,45.166L538.89,45.158L540.23,45.175L541.57,45.16L542.91,45.169L544.25,45.166L545.59,45.157L546.94,45.166L548.28,45.162L549.62,45.157L550.96,45.16L552.3,45.155L553.64,45.158L554.98,45.157L556.33,45.151L557.67,45.157L559.01,45.164L560.35,45.16L561.69,45.155L563.03,45.162L564.38,45.16L565.72,45.157L567.06,45.158L568.4,45.155L569.74,45.153L571.08,45.155L572.43,45.155L573.77,45.158L575.11,45.164L576.45,45.157L577.79,45.151L579.13,45.151L580.47,45.153L581.82,45.151L583.16,45.153L584.5,45.151L585.84,45.151L587.18,45.155L588.52,45.151L589.87,45.157L591.21,45.155L592.55,45.151L593.89,45.16L596.57,45.155L597.92,45.157L599.26,45.157L600.6,45.151L601.94,45.151L603.28,45.153L604.62,45.153L607.31,45.153L608.65,45.153L609.99,45.153L611.33,45.151L612.67,45.153L614.01,45.151L616.7,45.157L618.04,45.151L620.72,45.153L623.41,45.153L631.46,45.151L632.8,45.153L635.48,45.153L636.82,45.151L638.16,45.151L640.85,45.151L642.19,45.151L646.21,45.151L647.55,45.151L648.9,45.151L652.92,45.151L655.6,45.151L656.95,45.151L666.34,45.153L669.02,45.151L670.36,45.151L674.39,45.151L681.09,45.153L682.44,45.151L685.12,45.151L687.8,45.151L720,45.151" style="fill:none;stroke:#0000FF" />
</g>
</svg>
