<?xml version="1.0"?>
<!-- Generated by SVGo and Plotinum VG -->
<svg width="720pt" height="432pt" viewBox="0 0 720 432"
	xmlns="http://www.w3.org/2000/svg"
	xmlns:xlink="http://www.w3.org/1999/xlink">
<g transform="scale(1, -1) translate(0, -432)">
<path d="M0,0L720,0L720,432L0,432Z" style="fill:#FFFFFF" />
<text x="358.5" y="-420.45" transform="scale(1, -1)"
	style="font-family:Times;font-weight:normal;font-style:normal;font-size:12px"> </text>
<text x="379.31" y="-3.8613" transform="scale(1, -1)"
	style="font-family:Times;font-weight:normal;font-style:normal;font-size:12px">Costs</text>
<text x="62.805" y="-18.634" transform="scale(1, -1)"
	style="font-family:Times;font-weight:normal;font-style:normal;font-size:10px">0</text>
<text x="232.86" y="-18.634" transform="scale(1, -1)"
	style="font-family:Times;font-weight:normal;font-style:normal;font-size:10px">100</text>
<text x="407.91" y="-18.634" transform="scale(1, -1)"
	style="font-family:Times;font-weight:normal;font-style:normal;font-size:10px">200</text>
<text x="582.96" y="-18.634" transform="scale(1, -1)"
	style="font-family:Times;font-weight:normal;font-style:normal;font-size:10px">300</text>
<path d="M65.305,28.263L65.305,36.263" style="fill:none;stroke:#000000;stroke-width:0.5" />
<path d="M240.36,28.263L240.36,36.263" style="fill:none;stroke:#000000;stroke-width:0.5" />
<path d="M415.41,28.263L415.41,36.263" style="fill:none;stroke:#000000;stroke-width:0.5" />
<path d="M590.46,28.263L590.46,36.263" style="fill:none;stroke:#000000;stroke-width:0.5" />
<path d="M100.32,32.263L100.32,36.263" style="fill:none;stroke:#000000;stroke-width:0.5" />
<path d="M135.33,32.263L135.33,36.263" style="fill:none;stroke:#000000;stroke-width:0.5" />
<path d="M170.34,32.263L170.34,36.263" style="fill:none;stroke:#000000;stroke-width:0.5" />
<path d="M205.35,32.263L205.35,36.263" style="fill:none;stroke:#000000;stroke-width:0.5" />
<path d="M275.37,32.263L275.37,36.263" style="fill:none;stroke:#000000;stroke-width:0.5" />
<path d="M310.38,32.263L310.38,36.263" style="fill:none;stroke:#000000;stroke-width:0.5" />
<path d="M345.39,32.263L345.39,36.263" style="fill:none;stroke:#000000;stroke-width:0.5" />
<path d="M380.4,32.263L380.4,36.263" style="fill:none;stroke:#000000;stroke-width:0.5" />
<path d="M450.42,32.263L450.42,36.263" style="fill:none;stroke:#000000;stroke-width:0.5" />
<path d="M485.43,32.263L485.43,36.263" style="fill:none;stroke:#000000;stroke-width:0.5" />
<path d="M520.44,32.263L520.44,36.263" style="fill:none;stroke:#000000;stroke-width:0.5" />
<path d="M555.45,32.263L555.45,36.263" style="fill:none;stroke:#000000;stroke-width:0.5" />
<path d="M625.47,32.263L625.47,36.263" style="fill:none;stroke:#000000;stroke-width:0.5" />
<path d="M660.48,32.263L660.48,36.263" style="fill:none;stroke:#000000;stroke-width:0.5" />
<path d="M695.49,32.263L695.49,36.263" style="fill:none;stroke:#000000;stroke-width:0.5" />
<path d="M65.305,36.263L720,36.263" style="fill:none;stroke:#000000;stroke-width:0.5" />
<g transform="rotate(90)">
<text x="152.55" y="11.555" transform="scale(1, -1)"
	style="font-family:Times;font-weight:normal;font-style:normal;font-size:12px">Number of trials (1000000 total)</text>
</g>
<text x="19.055" y="-149.25" transform="scale(1, -1)"
	style="font-family:Times;font-weight:normal;font-style:normal;font-size:10px">100000</text>
<text x="19.055" y="-363.85" transform="scale(1, -1)"
	style="font-family:Times;font-weight:normal;font-style:normal;font-size:10px">300000</text>
<path d="M51.555,152.45L59.555,152.45" style="fill:none;stroke:#000000;stroke-width:0.5" />
<path d="M51.555,367.06L59.555,367.06" style="fill:none;stroke:#000000;stroke-width:0.5" />
<path d="M55.555,259.75L59.555,259.75" style="fill:none;stroke:#000000;stroke-width:0.5" />
<path d="M59.555,45.151L59.555,416.58" style="fill:none;stroke:#000000;stroke-width:0.5" />
<path d="M65.305,416.58L103.82,70.337L110.82,80.926L112.57,51.964L114.32,62.525L116.07,48.477L119.57,63.337L121.32,52.085L124.82,73.977L126.57,55.569L128.32,62.852L130.07,55.884L133.58,63.632L135.33,63.298L137.08,77.271L138.83,62.443L140.58,58.945L142.33,55.471L144.08,48.42L145.83,52.22L149.33,47.644L151.08,55.871L152.83,60.371L154.58,45.38L156.33,46.04L158.08,57.4L159.83,50.552L161.58,45.828L163.33,54.181L165.08,51.025L166.83,47.38L168.59,53.791L170.34,48.384L172.09,51.524L173.84,68.105L175.59,60.388L177.34,47.465L179.09,49.653L180.84,49.054L182.59,50.59L184.34,50.123L186.09,49.377L187.84,49.844L189.59,49.53L191.34,49.411L193.09,52.41L194.84,48.561L196.59,51.585L198.34,51.197L200.09,49.849L201.85,49.28L203.6,49.217L205.35,52.812L207.1,56.892L208.85,49.298L210.6,49.83L212.35,51.014L214.1,50.192L215.85,47.835L217.6,48.825L219.35,49.198L221.1,49.512L222.85,49.896L224.6,48.622L226.35,48.046L228.1,49.098L229.85,48.557L231.6,48.234L233.35,48.861L235.11,48.791L236.86,48.537L238.61,48.737L240.36,47.5L242.11,47.702L243.86,48.658L245.61,49.648L247.36,48.484L249.11,47.907L250.86,48.052L252.61,48.12L254.36,47.233L256.11,47.59L257.86,46.867L259.61,47.367L261.36,48.231L263.11,47.109L264.86,46.81L266.61,47.871L268.37,47.552L270.12,47.223L271.87,46.982L273.62,46.95L275.37,47.067L277.12,47.401L278.87,47.461L280.62,47.136L282.37,46.91L284.12,47.212L285.87,46.71L287.62,46.437L289.37,46.222L291.12,46.518L292.87,46.66L294.62,46.558L296.37,46.28L298.12,46.34L299.87,46.452L301.63,46.352L303.38,46.223L305.13,46.26L306.88,46.308L308.63,46.206L310.38,46.252L312.13,46.086L313.88,46.274L315.63,46.493L317.38,46.275L319.13,46.074L320.88,46.043L322.63,46.001L324.38,45.999L326.13,45.885L327.88,45.893L329.63,45.915L331.38,45.896L333.13,45.825L334.89,45.831L336.64,45.799L338.39,45.887L340.14,45.78L341.89,45.732L343.64,45.747L345.39,45.695L347.14,45.761L348.89,45.664L350.64,45.618L352.39,45.692L354.14,45.689L355.89,45.663L357.64,45.515L359.39,45.544L361.14,45.605L362.89,45.529L364.64,45.591L366.39,45.481L368.15,45.526L369.9,45.522L371.65,45.51L373.4,45.501L375.15,45.488L376.9,45.483L378.65,45.481L380.4,45.442L382.15,45.423L383.9,45.456L385.65,45.464L387.4,45.443L389.15,45.412L390.9,45.397L392.65,45.379L394.4,45.396L396.15,45.346L397.9,45.347L399.65,45.334L401.4,45.343L403.16,45.322L404.91,45.308L406.66,45.295L408.41,45.318L410.16,45.333L411.91,45.284L413.66,45.294L415.41,45.309L417.16,45.268L418.91,45.284L420.66,45.282L422.41,45.265L424.16,45.267L425.91,45.261L427.66,45.26L429.41,45.253L431.16,45.242L432.91,45.251L434.66,45.252L436.42,45.232L438.17,45.264L439.92,45.243L441.67,45.244L443.42,45.235L445.17,45.237L446.92,45.226L448.67,45.217L450.42,45.217L452.17,45.221L453.92,45.202L455.67,45.215L457.42,45.2L459.17,45.193L460.92,45.206L462.67,45.215L464.42,45.209L466.17,45.195L467.92,45.192L469.68,45.21L471.43,45.19L473.18,45.194L474.93,45.19L476.68,45.18L478.43,45.187L480.18,45.195L481.93,45.17L483.68,45.185L485.43,45.174L487.18,45.182L488.93,45.184L490.68,45.167L492.43,45.174L494.18,45.172L495.93,45.173L497.68,45.169L499.43,45.164L501.18,45.165L502.94,45.17L504.69,45.165L506.44,45.161L508.19,45.172L509.94,45.17L511.69,45.165L513.44,45.167L515.19,45.161L516.94,45.164L518.69,45.162L520.44,45.163L522.19,45.159L523.94,45.161L525.69,45.16L527.44,45.16L529.19,45.163L530.94,45.166L532.69,45.155L534.44,45.158L536.2,45.155L537.95,45.156L539.7,45.159L541.45,45.157L543.2,45.155L544.95,45.155L546.7,45.152L548.45,45.159L550.2,45.156L551.95,45.157L553.7,45.154L555.45,45.159L557.2,45.155L558.95,45.156L560.7,45.155L562.45,45.154L564.2,45.152L565.95,45.152L567.7,45.156L569.46,45.155L571.21,45.156L572.96,45.152L574.71,45.152L576.46,45.151L578.21,45.157L579.96,45.154L581.71,45.155L583.46,45.151L586.96,45.151L588.71,45.156L590.46,45.152L592.21,45.154L595.71,45.152L597.46,45.151L599.21,45.151L600.96,45.155L602.72,45.151L604.47,45.151L606.22,45.151L609.72,45.151L611.47,45.151L613.22,45.152L614.97,45.152L618.47,45.151L620.22,45.151L621.97,45.151L623.72,45.152L627.22,45.151L628.97,45.151L634.22,45.151L635.97,45.156L639.48,45.151L641.23,45.151L646.48,45.151L649.98,45.151L651.73,45.151L653.48,45.152L655.23,45.151L663.98,45.152L674.49,45.151L677.99,45.151L702.49,45.151L720,45.151" style="fill:none;stroke:#0000FF" />
</g>
</svg>
