<?xml version="1.0"?>
<!-- Generated by SVGo and Plotinum VG -->
<svg width="720pt" height="432pt" viewBox="0 0 720 432"
	xmlns="http://www.w3.org/2000/svg"
	xmlns:xlink="http://www.w3.org/1999/xlink">
<g transform="scale(1, -1) translate(0, -432)">
<path d="M0,0L720,0L720,432L0,432Z" style="fill:#FFFFFF" />
<text x="358.5" y="-420.45" transform="scale(1, -1)"
	style="font-family:Times;font-weight:normal;font-style:normal;font-size:12px"> </text>
<text x="379.13" y="-3.8613" transform="scale(1, -1)"
	style="font-family:Times;font-weight:normal;font-style:normal;font-size:12px">Costs</text>
<text x="56.184" y="-18.634" transform="scale(1, -1)"
	style="font-family:Times;font-weight:normal;font-style:normal;font-size:10px">0.00</text>
<text x="361.35" y="-18.634" transform="scale(1, -1)"
	style="font-family:Times;font-weight:normal;font-style:normal;font-size:10px">250.00</text>
<text x="671.51" y="-18.634" transform="scale(1, -1)"
	style="font-family:Times;font-weight:normal;font-style:normal;font-size:10px">500.00</text>
<path d="M64.934,28.263L64.934,36.263" style="fill:none;stroke:#000000;stroke-width:0.5" />
<path d="M375.1,28.263L375.1,36.263" style="fill:none;stroke:#000000;stroke-width:0.5" />
<path d="M685.26,28.263L685.26,36.263" style="fill:none;stroke:#000000;stroke-width:0.5" />
<path d="M126.97,32.263L126.97,36.263" style="fill:none;stroke:#000000;stroke-width:0.5" />
<path d="M189,32.263L189,36.263" style="fill:none;stroke:#000000;stroke-width:0.5" />
<path d="M251.03,32.263L251.03,36.263" style="fill:none;stroke:#000000;stroke-width:0.5" />
<path d="M313.06,32.263L313.06,36.263" style="fill:none;stroke:#000000;stroke-width:0.5" />
<path d="M437.13,32.263L437.13,36.263" style="fill:none;stroke:#000000;stroke-width:0.5" />
<path d="M499.16,32.263L499.16,36.263" style="fill:none;stroke:#000000;stroke-width:0.5" />
<path d="M561.2,32.263L561.2,36.263" style="fill:none;stroke:#000000;stroke-width:0.5" />
<path d="M623.23,32.263L623.23,36.263" style="fill:none;stroke:#000000;stroke-width:0.5" />
<path d="M64.934,36.263L720,36.263" style="fill:none;stroke:#000000;stroke-width:0.5" />
<g transform="rotate(90)">
<text x="152.55" y="11.555" transform="scale(1, -1)"
	style="font-family:Times;font-weight:normal;font-style:normal;font-size:12px">Number of trials (1000000 total)</text>
</g>
<text x="23.684" y="-72.634" transform="scale(1, -1)"
	style="font-family:Times;font-weight:normal;font-style:normal;font-size:10px">10000</text>
<text x="23.684" y="-226.09" transform="scale(1, -1)"
	style="font-family:Times;font-weight:normal;font-style:normal;font-size:10px">60000</text>
<text x="19.055" y="-379.55" transform="scale(1, -1)"
	style="font-family:Times;font-weight:normal;font-style:normal;font-size:10px">110000</text>
<path d="M51.184,75.84L59.184,75.84" style="fill:none;stroke:#000000;stroke-width:0.5" />
<path d="M51.184,229.3L59.184,229.3" style="fill:none;stroke:#000000;stroke-width:0.5" />
<path d="M51.184,382.76L59.184,382.76" style="fill:none;stroke:#000000;stroke-width:0.5" />
<path d="M55.184,106.53L59.184,106.53" style="fill:none;stroke:#000000;stroke-width:0.5" />
<path d="M55.184,137.22L59.184,137.22" style="fill:none;stroke:#000000;stroke-width:0.5" />
<path d="M55.184,167.91L59.184,167.91" style="fill:none;stroke:#000000;stroke-width:0.5" />
<path d="M55.184,198.61L59.184,198.61" style="fill:none;stroke:#000000;stroke-width:0.5" />
<path d="M55.184,259.99L59.184,259.99" style="fill:none;stroke:#000000;stroke-width:0.5" />
<path d="M55.184,290.68L59.184,290.68" style="fill:none;stroke:#000000;stroke-width:0.5" />
<path d="M55.184,321.37L59.184,321.37" style="fill:none;stroke:#000000;stroke-width:0.5" />
<path d="M55.184,352.06L59.184,352.06" style="fill:none;stroke:#000000;stroke-width:0.5" />
<path d="M55.184,413.45L59.184,413.45" style="fill:none;stroke:#000000;stroke-width:0.5" />
<path d="M59.184,45.151L59.184,416.58" style="fill:none;stroke:#000000;stroke-width:0.5" />
<path d="M64.934,416.58L94.709,63.797L97.191,67.572L98.431,77.623L99.672,67.464L100.91,48.972L103.39,76.233L104.63,67.535L105.88,76.497L107.12,73.412L108.36,77.417L109.6,52.517L110.84,51.719L112.08,74.014L113.32,52.474L114.56,83.08L115.8,94.734L117.04,71.402L118.28,77.316L119.52,92.825L120.76,48.666L122,63.084L125.73,81.631L126.97,56.78L128.21,72.694L129.45,46.394L130.69,98.325L131.93,50.756L133.17,67.455L134.41,60.513L135.65,52.005L136.89,54.267L138.13,66.414L139.37,51.621L140.61,73.593L141.85,71.089L143.09,53.702L144.34,53.027L145.58,55.234L146.82,55.872L148.06,58.306L149.3,59.426L150.54,58.717L151.78,58.082L153.02,77.559L154.26,58.855L155.5,80.177L156.74,70.091L157.98,64.598L159.22,61.878L160.46,75.413L161.7,60.826L162.95,61.617L164.19,64.742L165.43,82.672L166.67,63.665L167.91,62.041L169.15,68.83L170.39,64.42L171.63,63.487L172.87,65.488L174.11,62.075L175.35,61.406L176.59,62.059L177.83,60.568L179.07,58.821L180.31,64.607L181.56,63.975L182.8,63.112L184.04,60.81L185.28,64.769L186.52,57.192L187.76,61.918L189,60.721L190.24,58.198L191.48,64.637L192.72,59.705L193.96,63.437L195.2,62.25L196.44,62.115L197.68,58.45L198.92,62.099L200.17,59.021L201.41,58.066L202.65,60.776L203.89,63.618L205.13,59.257L206.37,64.229L207.61,64.017L208.85,59.969L210.09,61.439L211.33,59.018L212.57,58.389L213.81,59.279L215.05,59.929L216.29,60.681L217.53,59.107L218.77,61.332L220.02,58.432L221.26,60.052L222.5,58.395L223.74,58.177L224.98,56.961L226.22,60.187L227.46,56.553L228.7,59.064L229.94,57.364L231.18,59.316L232.42,57.394L233.66,57.732L234.9,56.418L236.14,56.461L237.38,56.48L238.63,56.529L239.87,55.544L241.11,56.253L242.35,56.157L243.59,55.59L244.83,55.915L246.07,55.829L247.31,55.943L248.55,55.933L249.79,54.899L251.03,55.633L252.27,54.503L253.51,55.387L254.75,54.543L255.99,54.988L257.24,55.415L258.48,54.221L259.72,54.46L260.96,55.439L262.2,53.8L263.44,53.862L264.68,54.126L265.92,53.447L267.16,53.404L268.4,53.659L269.64,53.463L270.88,53.196L272.12,53.631L273.36,53.174L274.6,52.56L275.85,52.959L277.09,52.493L278.33,51.925L279.57,52.186L280.81,52.29L282.05,52.207L283.29,52.075L284.53,52.072L285.77,51.833L287.01,51.689L288.25,51.376L289.49,50.937L290.73,51.056L291.97,51.284L293.21,50.682L294.45,51.259L295.7,50.734L296.94,50.777L298.18,50.762L299.42,50.642L300.66,50.347L301.9,50.347L303.14,50.044L304.38,50.142L305.62,50.16L306.86,50.252L308.1,49.872L309.34,49.832L310.58,49.82L311.82,49.841L313.06,49.335L314.31,49.602L315.55,49.485L316.79,49.417L318.03,49.5L319.27,49.132L320.51,49.074L321.75,49.286L322.99,49.046L324.23,48.81L325.47,48.623L326.71,48.81L327.95,48.552L329.19,48.693L330.43,48.448L331.67,48.3L332.92,48.31L334.16,48.276L335.4,48.227L336.64,48.322L337.88,48.448L339.12,48.006L340.36,48.104L341.6,47.818L342.84,47.892L344.08,47.95L345.32,47.702L346.56,47.693L347.8,47.717L349.04,47.766L350.28,47.582L351.53,47.65L352.77,47.61L354.01,47.281L355.25,47.235L356.49,47.364L357.73,47.281L358.97,47.192L360.21,47.18L361.45,47.054L362.69,47.063L363.93,47.03L365.17,46.993L366.41,46.916L367.65,46.879L368.89,46.744L370.13,46.867L371.38,46.821L372.62,46.741L373.86,46.612L375.1,46.726L376.34,46.661L377.58,46.652L378.82,46.499L380.06,46.434L381.3,46.477L382.54,46.471L383.78,46.339L385.02,46.422L386.26,46.358L387.5,46.259L388.74,46.342L389.99,46.259L391.23,46.376L392.47,46.342L393.71,46.219L394.95,46.229L396.19,46.097L397.43,46.084L398.67,46.011L399.91,46.072L401.15,46.149L402.39,46.029L403.63,45.962L404.87,45.965L406.11,45.94L407.35,45.919L408.6,45.94L409.84,45.94L411.08,45.949L412.32,45.903L413.56,45.863L414.8,45.86L416.04,45.842L417.28,45.866L418.52,45.774L419.76,45.695L421,45.741L422.24,45.664L423.48,45.716L424.72,45.673L425.96,45.553L427.21,45.661L428.45,45.701L429.69,45.618L430.93,45.658L432.17,45.569L433.41,45.575L434.65,45.575L435.89,45.587L437.13,45.596L438.37,45.52L439.61,45.514L440.85,45.556L442.09,45.523L443.33,45.523L444.57,45.492L445.82,45.471L447.06,45.526L448.3,45.501L449.54,45.501L450.78,45.446L452.02,45.428L453.26,45.434L454.5,45.378L455.74,45.464L456.98,45.409L458.22,45.452L459.46,45.406L460.7,45.412L461.94,45.378L463.18,45.378L464.42,45.403L465.67,45.363L466.91,45.375L468.15,45.369L469.39,45.342L470.63,45.332L471.87,45.317L473.11,45.332L474.35,45.339L475.59,45.299L476.83,45.28L478.07,45.326L479.31,45.293L480.55,45.296L481.79,45.308L483.03,45.265L484.28,45.289L485.52,45.277L486.76,45.296L488,45.283L489.24,45.286L490.48,45.277L491.72,45.265L492.96,45.274L494.2,45.28L495.44,45.289L496.68,45.25L497.92,45.213L499.16,45.25L500.4,45.228L501.64,45.247L502.89,45.213L504.13,45.191L505.37,45.247L506.61,45.219L507.85,45.237L509.09,45.228L510.33,45.237L511.57,45.182L512.81,45.228L514.05,45.204L515.29,45.216L516.53,45.204L517.77,45.225L519.01,45.219L520.25,45.182L521.5,45.204L522.74,45.185L523.98,45.213L525.22,45.216L526.46,45.182L527.7,45.182L528.94,45.207L530.18,45.222L531.42,45.191L532.66,45.2L533.9,45.182L535.14,45.179L536.38,45.185L537.62,45.176L538.86,45.194L540.1,45.213L541.35,45.164L542.59,45.182L543.83,45.173L545.07,45.176L546.31,45.176L547.55,45.182L548.79,45.17L550.03,45.182L551.27,45.173L552.51,45.185L553.75,45.164L554.99,45.167L556.23,45.173L557.47,45.161L558.71,45.167L559.96,45.158L561.2,45.158L562.44,45.176L563.68,45.161L564.92,45.161L566.16,45.164L567.4,45.164L568.64,45.154L569.88,45.167L571.12,45.158L572.36,45.154L573.6,45.158L574.84,45.167L576.08,45.154L577.32,45.158L578.57,45.161L579.81,45.154L581.05,45.164L582.29,45.154L583.53,45.167L584.77,45.164L586.01,45.161L587.25,45.154L588.49,45.158L589.73,45.158L590.97,45.158L592.21,45.151L594.69,45.161L595.93,45.151L597.18,45.154L598.42,45.161L599.66,45.158L600.9,45.151L603.38,45.151L604.62,45.161L605.86,45.151L607.1,45.151L609.58,45.164L610.82,45.154L612.06,45.154L613.3,45.161L614.54,45.151L617.03,45.161L618.27,45.154L620.75,45.151L621.99,45.151L623.23,45.154L625.71,45.151L628.19,45.154L633.15,45.154L634.39,45.158L636.88,45.151L640.6,45.151L643.08,45.154L645.56,45.151L646.8,45.151L649.28,45.151L651.76,45.151L659.21,45.151L660.45,45.151L661.69,45.151L672.86,45.151L675.34,45.151L677.82,45.151L681.54,45.151L697.67,45.151L703.87,45.151L720,45.151" style="fill:none;stroke:#0000FF" />
</g>
</svg>
