<?xml version="1.0"?>
<!-- Generated by SVGo and Plotinum VG -->
<svg width="720pt" height="432pt" viewBox="0 0 720 432"
	xmlns="http://www.w3.org/2000/svg"
	xmlns:xlink="http://www.w3.org/1999/xlink">
<g transform="scale(1, -1) translate(0, -432)">
<path d="M0,0L720,0L720,432L0,432Z" style="fill:#FFFFFF" />
<text x="358.5" y="-420.45" transform="scale(1, -1)"
	style="font-family:Times;font-weight:normal;font-style:normal;font-size:12px"> </text>
<text x="379.31" y="-3.8613" transform="scale(1, -1)"
	style="font-family:Times;font-weight:normal;font-style:normal;font-size:12px">Costs</text>
<text x="56.555" y="-18.634" transform="scale(1, -1)"
	style="font-family:Times;font-weight:normal;font-style:normal;font-size:10px">0.00</text>
<text x="332.3" y="-18.634" transform="scale(1, -1)"
	style="font-family:Times;font-weight:normal;font-style:normal;font-size:10px">250.00</text>
<text x="613.04" y="-18.634" transform="scale(1, -1)"
	style="font-family:Times;font-weight:normal;font-style:normal;font-size:10px">500.00</text>
<path d="M65.305,28.263L65.305,36.263" style="fill:none;stroke:#000000;stroke-width:0.5" />
<path d="M346.05,28.263L346.05,36.263" style="fill:none;stroke:#000000;stroke-width:0.5" />
<path d="M626.79,28.263L626.79,36.263" style="fill:none;stroke:#000000;stroke-width:0.5" />
<path d="M121.45,32.263L121.45,36.263" style="fill:none;stroke:#000000;stroke-width:0.5" />
<path d="M177.6,32.263L177.6,36.263" style="fill:none;stroke:#000000;stroke-width:0.5" />
<path d="M233.75,32.263L233.75,36.263" style="fill:none;stroke:#000000;stroke-width:0.5" />
<path d="M289.9,32.263L289.9,36.263" style="fill:none;stroke:#000000;stroke-width:0.5" />
<path d="M402.2,32.263L402.2,36.263" style="fill:none;stroke:#000000;stroke-width:0.5" />
<path d="M458.35,32.263L458.35,36.263" style="fill:none;stroke:#000000;stroke-width:0.5" />
<path d="M514.5,32.263L514.5,36.263" style="fill:none;stroke:#000000;stroke-width:0.5" />
<path d="M570.64,32.263L570.64,36.263" style="fill:none;stroke:#000000;stroke-width:0.5" />
<path d="M682.94,32.263L682.94,36.263" style="fill:none;stroke:#000000;stroke-width:0.5" />
<path d="M65.305,36.263L720,36.263" style="fill:none;stroke:#000000;stroke-width:0.5" />
<g transform="rotate(90)">
<text x="152.55" y="11.555" transform="scale(1, -1)"
	style="font-family:Times;font-weight:normal;font-style:normal;font-size:12px">Number of trials (1000000 total)</text>
</g>
<text x="24.055" y="-109.96" transform="scale(1, -1)"
	style="font-family:Times;font-weight:normal;font-style:normal;font-size:10px">30000</text>
<text x="24.055" y="-246" transform="scale(1, -1)"
	style="font-family:Times;font-weight:normal;font-style:normal;font-size:10px">90000</text>
<text x="19.055" y="-382.04" transform="scale(1, -1)"
	style="font-family:Times;font-weight:normal;font-style:normal;font-size:10px">150000</text>
<path d="M51.555,113.17L59.555,113.17" style="fill:none;stroke:#000000;stroke-width:0.5" />
<path d="M51.555,249.2L59.555,249.2" style="fill:none;stroke:#000000;stroke-width:0.5" />
<path d="M51.555,385.24L59.555,385.24" style="fill:none;stroke:#000000;stroke-width:0.5" />
<path d="M55.555,181.19L59.555,181.19" style="fill:none;stroke:#000000;stroke-width:0.5" />
<path d="M55.555,317.22L59.555,317.22" style="fill:none;stroke:#000000;stroke-width:0.5" />
<path d="M59.555,45.151L59.555,416.58" style="fill:none;stroke:#000000;stroke-width:0.5" />
<path d="M65.305,416.58L90.01,59.252L94.502,55.64L95.625,80.646L96.748,70.023L98.994,48.691L100.12,82.761L101.24,52.017L102.36,58.71L103.49,51.856L104.61,69.429L105.73,55.447L106.85,55.576L107.98,62.219L109.1,62.124L110.22,65.824L111.35,62.414L112.47,79.752L113.59,48.525L114.72,55.891L115.84,75.476L119.21,45.539L120.33,77.283L121.45,63.324L122.58,52.019L123.7,45.267L124.82,86.026L125.95,46.707L127.07,54.635L128.19,75.995L129.31,85.82L130.44,49.668L131.56,59.914L132.68,54.368L133.81,73.277L134.93,70.384L136.05,56.934L137.18,50.219L138.3,49.262L139.42,51.872L140.54,62.385L141.67,51.636L142.79,52.878L143.91,51.352L145.04,62.95L146.16,53.316L147.28,96.034L148.4,48.797L149.53,52.663L150.65,54.801L151.77,85.414L152.9,52.302L154.02,52.314L155.14,67.763L156.27,54.946L157.39,53.028L158.51,56.034L159.63,61.605L160.76,53.753L161.88,53.488L163,56.37L164.13,58.356L165.25,56.424L166.37,55.486L167.5,56.488L168.62,56.606L169.74,56.102L170.86,57.358L171.99,59.431L173.11,53.534L174.23,55.032L175.36,58.959L176.48,58.274L177.6,57.055L178.73,57.254L179.85,58.363L180.97,54.434L182.09,59.365L183.22,55.148L184.34,59.043L185.46,54.542L186.59,57.984L187.71,55.175L188.83,57.222L189.96,56.642L191.08,57.417L192.2,57.021L193.32,55.18L194.45,58.676L195.57,55.551L196.69,55.506L197.82,58.15L198.94,55.701L200.06,53.25L201.18,52.275L202.31,57.435L203.43,53.944L204.55,53.602L205.68,51.352L206.8,57.499L207.92,52.094L209.05,53.259L210.17,55.195L211.29,58.465L212.41,50.477L213.54,52.944L214.66,55.413L215.78,56.383L216.91,53.264L218.03,53.202L219.15,53.071L220.28,53.035L221.4,52.971L222.52,53.202L223.64,51.604L224.77,51.872L225.89,51.123L227.01,53.629L228.14,51.189L229.26,51.221L230.38,51.021L231.51,52.239L232.63,51.049L233.75,54.737L234.87,51.334L236,50.987L237.12,52.223L238.24,51.083L239.37,50.956L240.49,50.708L241.61,52.355L242.73,50.688L243.86,50.663L244.98,51.001L246.1,51.391L247.23,50.266L248.35,50.572L249.47,50.631L250.6,50.529L251.72,50.418L252.84,50.296L253.96,50.597L255.09,49.942L256.21,49.949L257.33,50.414L258.46,50.266L259.58,49.731L260.7,49.632L261.83,50.348L262.95,49.434L264.07,49.21L265.19,49.477L266.32,49.851L267.44,49.133L268.56,49.078L269.69,48.79L270.81,49.334L271.93,48.786L273.06,48.738L274.18,48.935L275.3,48.579L276.42,48.607L277.55,48.784L278.67,48.702L279.79,48.679L280.92,48.416L282.04,48.362L283.16,48.126L284.29,48.419L285.41,48.008L286.53,48.219L287.65,47.654L288.78,47.981L289.9,47.804L291.02,47.893L292.15,47.829L293.27,47.847L294.39,47.396L295.51,47.527L296.64,47.752L297.76,47.675L298.88,47.364L300.01,47.416L301.13,47.693L302.25,47.387L303.38,47.45L304.5,47.484L305.62,47.115L306.74,47.192L307.87,47.008L308.99,47.144L310.11,47.049L311.24,46.909L312.36,46.915L313.48,46.931L314.61,46.788L315.73,46.827L316.85,46.727L317.97,46.782L319.1,46.804L320.22,46.67L321.34,46.827L322.47,46.709L323.59,46.725L324.71,46.63L325.84,46.559L326.96,46.641L328.08,46.548L329.2,46.462L330.33,46.441L331.45,46.412L332.57,46.362L333.7,46.342L334.82,46.233L335.94,46.265L337.07,46.235L338.19,46.215L339.31,46.271L340.43,46.355L341.56,46.151L342.68,46.09L343.8,46.106L344.93,46.113L346.05,46.124L347.17,46.024L348.29,46.038L349.42,46.036L350.54,45.886L351.66,45.995L352.79,46.006L353.91,45.911L355.03,45.847L356.16,45.856L357.28,45.902L358.4,45.802L359.52,45.822L360.65,45.82L361.77,45.752L362.89,45.743L364.02,45.775L365.14,45.768L366.26,45.682L367.39,45.718L368.51,45.693L369.63,45.666L370.75,45.698L371.88,45.609L373,45.686L374.12,45.596L375.25,45.664L376.37,45.607L377.49,45.593L378.62,45.571L379.74,45.596L380.86,45.596L381.98,45.516L383.11,45.555L384.23,45.505L385.35,45.537L386.48,45.505L387.6,45.516L388.72,45.521L389.84,45.523L390.97,45.525L392.09,45.498L393.21,45.473L394.34,45.498L395.46,45.444L396.58,45.437L397.71,45.412L398.83,45.414L399.95,45.376L401.07,45.371L402.2,45.401L403.32,45.405L404.44,45.396L405.57,45.383L406.69,45.387L407.81,45.337L408.94,45.355L410.06,45.383L411.18,45.335L412.3,45.349L413.43,45.312L414.55,45.321L415.67,45.324L416.8,45.342L417.92,45.29L419.04,45.326L420.17,45.303L421.29,45.34L422.41,45.251L423.53,45.269L424.66,45.265L425.78,45.256L426.9,45.292L428.03,45.265L429.15,45.303L430.27,45.262L431.4,45.285L432.52,45.258L433.64,45.272L434.76,45.251L435.89,45.242L437.01,45.26L438.13,45.256L439.26,45.213L440.38,45.24L441.5,45.238L442.62,45.222L443.75,45.219L444.87,45.233L445.99,45.253L447.12,45.228L448.24,45.233L449.36,45.213L450.49,45.224L451.61,45.21L452.73,45.208L453.85,45.204L454.98,45.21L456.1,45.194L457.22,45.222L458.35,45.21L459.47,45.185L460.59,45.199L461.72,45.201L462.84,45.208L463.96,45.174L465.08,45.181L466.21,45.204L467.33,45.181L468.45,45.194L469.58,45.197L470.7,45.188L471.82,45.188L472.95,45.197L474.07,45.19L475.19,45.199L476.31,45.167L477.44,45.179L478.56,45.183L479.68,45.172L480.81,45.188L481.93,45.165L483.05,45.172L484.17,45.185L485.3,45.17L486.42,45.174L487.54,45.167L488.67,45.165L489.79,45.165L490.91,45.183L492.04,45.163L493.16,45.165L494.28,45.158L495.4,45.176L496.53,45.17L497.65,45.16L498.77,45.165L499.9,45.163L501.02,45.163L502.14,45.158L503.27,45.16L504.39,45.158L505.51,45.158L506.63,45.16L507.76,45.174L508.88,45.165L510,45.172L511.13,45.158L512.25,45.156L513.37,45.154L514.5,45.163L515.62,45.163L516.74,45.163L517.86,45.156L518.99,45.154L520.11,45.163L521.23,45.151L522.36,45.156L523.48,45.16L524.6,45.165L525.73,45.158L526.85,45.156L527.97,45.154L529.09,45.151L530.22,45.151L531.34,45.16L532.46,45.156L533.59,45.158L536.95,45.156L538.08,45.156L539.2,45.154L542.57,45.156L543.69,45.158L544.82,45.156L545.94,45.151L548.18,45.156L550.43,45.154L551.55,45.151L552.68,45.154L553.8,45.154L556.05,45.151L558.29,45.151L559.41,45.154L561.66,45.156L563.91,45.151L567.28,45.151L568.4,45.158L569.52,45.154L570.64,45.151L571.77,45.151L572.89,45.151L574.01,45.151L579.63,45.151L580.75,45.151L581.87,45.151L583,45.151L584.12,45.151L585.24,45.154L594.23,45.154L603.21,45.151L604.33,45.151L606.58,45.154L613.32,45.151L625.67,45.151L630.16,45.151L650.38,45.151L720,45.151" style="fill:none;stroke:#0000FF" />
</g>
</svg>
