<?xml version="1.0"?>
<!-- Generated by SVGo and Plotinum VG -->
<svg width="720pt" height="432pt" viewBox="0 0 720 432"
	xmlns="http://www.w3.org/2000/svg"
	xmlns:xlink="http://www.w3.org/1999/xlink">
<g transform="scale(1, -1) translate(0, -432)">
<path d="M0,0L720,0L720,432L0,432Z" style="fill:#FFFFFF" />
<text x="358.5" y="-420.45" transform="scale(1, -1)"
	style="font-family:Times;font-weight:normal;font-style:normal;font-size:12px"> </text>
<text x="376.81" y="-3.8613" transform="scale(1, -1)"
	style="font-family:Times;font-weight:normal;font-style:normal;font-size:12px">Costs</text>
<text x="57.805" y="-18.634" transform="scale(1, -1)"
	style="font-family:Times;font-weight:normal;font-style:normal;font-size:10px">0</text>
<text x="340.05" y="-18.634" transform="scale(1, -1)"
	style="font-family:Times;font-weight:normal;font-style:normal;font-size:10px">300</text>
<text x="627.29" y="-18.634" transform="scale(1, -1)"
	style="font-family:Times;font-weight:normal;font-style:normal;font-size:10px">600</text>
<path d="M60.305,28.263L60.305,36.263" style="fill:none;stroke:#000000;stroke-width:0.5" />
<path d="M347.55,28.263L347.55,36.263" style="fill:none;stroke:#000000;stroke-width:0.5" />
<path d="M634.79,28.263L634.79,36.263" style="fill:none;stroke:#000000;stroke-width:0.5" />
<path d="M156.05,32.263L156.05,36.263" style="fill:none;stroke:#000000;stroke-width:0.5" />
<path d="M251.8,32.263L251.8,36.263" style="fill:none;stroke:#000000;stroke-width:0.5" />
<path d="M443.29,32.263L443.29,36.263" style="fill:none;stroke:#000000;stroke-width:0.5" />
<path d="M539.04,32.263L539.04,36.263" style="fill:none;stroke:#000000;stroke-width:0.5" />
<path d="M60.305,36.263L720,36.263" style="fill:none;stroke:#000000;stroke-width:0.5" />
<g transform="rotate(90)">
<text x="152.55" y="11.555" transform="scale(1, -1)"
	style="font-family:Times;font-weight:normal;font-style:normal;font-size:12px">Number of trials (1000000 total)</text>
</g>
<text x="19.055" y="-87.891" transform="scale(1, -1)"
	style="font-family:Times;font-weight:normal;font-style:normal;font-size:10px">10000</text>
<text x="19.055" y="-225.74" transform="scale(1, -1)"
	style="font-family:Times;font-weight:normal;font-style:normal;font-size:10px">40000</text>
<text x="19.055" y="-363.59" transform="scale(1, -1)"
	style="font-family:Times;font-weight:normal;font-style:normal;font-size:10px">70000</text>
<path d="M46.555,91.097L54.555,91.097" style="fill:none;stroke:#000000;stroke-width:0.5" />
<path d="M46.555,228.95L54.555,228.95" style="fill:none;stroke:#000000;stroke-width:0.5" />
<path d="M46.555,366.8L54.555,366.8" style="fill:none;stroke:#000000;stroke-width:0.5" />
<path d="M50.555,137.05L54.555,137.05" style="fill:none;stroke:#000000;stroke-width:0.5" />
<path d="M50.555,183L54.555,183" style="fill:none;stroke:#000000;stroke-width:0.5" />
<path d="M50.555,274.9L54.555,274.9" style="fill:none;stroke:#000000;stroke-width:0.5" />
<path d="M50.555,320.85L54.555,320.85" style="fill:none;stroke:#000000;stroke-width:0.5" />
<path d="M50.555,412.75L54.555,412.75" style="fill:none;stroke:#000000;stroke-width:0.5" />
<path d="M54.555,45.151L54.555,416.58" style="fill:none;stroke:#000000;stroke-width:0.5" />
<path d="M60.305,416.58L82.326,55.49L85.199,63.384L89.986,92.673L90.944,89.87L91.901,55.389L92.859,63.191L93.816,101.8L94.774,59.814L96.688,90.881L98.603,85.11L99.561,114.14L101.48,48.349L102.43,51.892L103.39,91.359L104.35,59.488L107.22,55.83L108.18,63.017L109.14,67.276L111.05,136.88L112.01,79.205L112.97,92.806L113.92,52.439L114.88,47.826L115.84,81.668L116.8,56.565L117.75,52.802L118.71,81.332L119.67,64.914L120.63,66.017L121.58,51.571L122.54,48.708L123.5,56.345L124.46,91.299L125.41,49.645L126.37,54.796L127.33,52.513L128.28,89.406L129.24,61.404L130.2,95.03L131.16,73.493L132.11,56.4L133.07,67.345L134.03,57.236L134.99,55.132L135.94,62.089L136.9,90.624L137.86,97.185L138.82,56.643L139.77,54.259L140.73,65.181L141.69,71.692L142.65,72.423L143.6,63.394L144.56,66.431L145.52,66.61L146.48,64.336L147.43,69.238L148.39,61.17L149.35,74.311L150.31,77.151L151.26,65.581L152.22,70.516L153.18,58.422L154.14,70.746L155.09,72.455L156.05,60.705L157.01,58.615L157.97,67.943L158.92,68.329L159.88,68.728L160.84,66.775L161.8,73.971L162.75,71.669L163.71,76.301L164.67,66.9L165.63,53.45L166.58,74.1L167.54,80.188L168.5,68.03L169.46,73.195L170.41,68.926L171.37,72.983L172.33,63.279L173.29,65.36L174.24,65.103L175.2,70.079L176.16,70.883L177.12,68.581L178.07,57.356L179.03,68.852L179.99,68.646L180.95,76.646L181.9,67.005L182.86,65.245L183.82,66.026L184.78,63.049L185.73,64.754L186.69,64.662L187.65,66.968L188.61,76.25L189.56,67.538L190.52,64.202L191.48,60.108L192.44,65.526L193.39,65.953L194.35,65.14L195.31,63.899L196.27,63.825L197.22,63.182L198.18,66.031L199.14,61.822L200.09,62.58L201.05,68.848L202.01,64.041L202.97,63.61L203.92,60.871L204.88,63.136L205.84,66.757L206.8,65.53L207.75,65.379L208.71,62.759L209.67,62.282L210.63,62.966L211.58,61.942L212.54,62.553L213.5,62.58L214.46,65.526L215.41,62.447L216.37,59.309L217.33,60.65L218.29,63.6L219.24,64.363L220.2,63.554L221.16,60.65L222.12,62.856L223.07,61.321L224.03,60.563L224.99,60.664L225.95,61.34L226.9,62.622L227.86,61.335L228.82,60.595L229.78,58.909L230.73,60.54L231.69,62.015L232.65,59.855L233.61,58.601L234.56,59.511L235.52,59.106L236.48,59.336L237.44,59.515L238.39,58.812L239.35,59.938L240.31,59.672L241.27,59.506L242.22,57.59L243.18,57.048L244.14,58.9L245.1,58.932L246.05,57.958L247.01,57.36L247.97,57.209L248.93,57.535L249.88,56.8L250.84,57.144L251.8,57.094L252.76,57.163L253.71,56.965L254.67,55.568L255.63,55.633L256.59,56.781L257.54,56.813L258.5,56.643L259.46,56.156L260.42,55.711L261.37,55.61L262.33,55.081L263.29,55.316L264.25,55.008L265.2,55.72L266.16,55.081L267.12,54.493L268.08,54.227L269.03,54.075L269.99,54.746L270.95,54.966L271.91,54.162L272.86,53.707L273.82,53.712L274.78,54.038L275.73,54.056L276.69,53.684L277.65,54.3L278.61,53.845L279.56,53.147L280.52,52.761L281.48,52.604L282.44,53.124L283.39,53.137L284.35,52.843L285.31,52.765L286.27,52.122L287.22,52.503L288.18,52.352L289.14,52.333L290.1,52.108L291.05,52.081L292.01,51.938L292.97,51.865L293.93,51.713L294.88,51.828L295.84,51.447L296.8,51.474L297.76,51.382L298.71,51.116L299.67,50.987L300.63,50.854L301.59,51.129L302.54,50.633L303.5,50.959L304.46,50.822L305.42,50.468L306.37,50.38L307.33,50.215L308.29,50.21L309.25,50.307L310.2,50.39L311.16,49.714L312.12,49.939L313.08,49.719L314.03,49.53L314.99,49.884L315.95,49.884L316.91,49.489L317.86,49.507L318.82,49.204L319.78,49.2L320.74,49.177L321.69,49.461L322.65,49.066L323.61,48.754L324.57,48.708L325.52,48.961L326.48,49.016L327.44,48.758L328.4,48.598L329.35,48.883L330.31,48.772L331.27,48.432L332.23,48.322L333.18,48.63L334.14,48.487L335.1,48.258L336.06,48.198L337.01,48.088L337.97,48.019L338.93,48.088L339.89,47.729L340.84,48.179L341.8,47.835L342.76,47.771L343.72,47.752L344.67,47.798L345.63,47.876L346.59,47.72L347.55,47.527L348.5,47.499L349.46,47.518L350.42,47.357L351.37,47.453L352.33,47.343L353.29,47.536L354.25,47.159L355.2,47.201L356.16,47.077L357.12,47.123L358.08,47.297L359.03,47.205L359.99,47.118L360.95,46.874L361.91,47.054L362.86,47.063L363.82,46.723L364.78,46.92L365.74,46.801L366.69,46.902L367.65,46.704L368.61,46.755L369.57,46.613L370.52,46.723L371.48,46.443L372.44,46.723L373.4,46.507L374.35,46.599L375.31,46.516L376.27,46.466L377.23,46.424L378.18,46.438L379.14,46.36L380.1,46.401L381.06,46.364L382.01,46.273L382.97,46.268L383.93,46.286L384.89,46.337L385.84,46.245L386.8,46.093L387.76,46.374L388.72,46.075L389.67,46.185L390.63,46.066L391.59,46.116L392.55,46.093L393.5,46.02L394.46,46.001L395.42,46.061L396.38,45.928L397.33,46.02L398.29,46.024L399.25,45.923L400.21,45.933L401.16,45.887L402.12,45.919L403.08,45.726L404.04,45.864L404.99,45.854L405.95,45.785L406.91,45.85L407.87,45.74L408.82,45.753L409.78,45.73L410.74,45.845L411.7,45.735L412.65,45.73L413.61,45.689L414.57,45.772L415.53,45.694L416.48,45.703L417.44,45.634L418.4,45.671L419.36,45.615L420.31,45.629L421.27,45.606L422.23,45.615L423.18,45.634L424.14,45.524L425.1,45.556L426.06,45.56L427.01,45.528L427.97,45.551L428.93,45.514L429.89,45.519L430.84,45.542L431.8,45.524L432.76,45.445L433.72,45.51L434.67,45.51L435.63,45.45L436.59,45.432L437.55,45.468L438.5,45.399L439.46,45.404L440.42,45.399L441.38,45.399L442.33,45.404L443.29,45.404L444.25,45.404L445.21,45.445L446.16,45.386L447.12,45.344L448.08,45.363L449.04,45.386L449.99,45.395L450.95,45.363L451.91,45.349L452.87,45.34L453.82,45.312L454.78,45.386L455.74,45.321L456.7,45.367L457.65,45.312L458.61,45.317L459.57,45.28L460.53,45.358L461.48,45.303L462.44,45.266L463.4,45.312L464.36,45.294L465.31,45.354L466.27,45.317L467.23,45.257L468.19,45.271L469.14,45.271L470.1,45.262L471.06,45.28L472.02,45.28L472.97,45.271L473.93,45.257L474.89,45.266L475.85,45.248L476.8,45.262L477.76,45.229L478.72,45.262L479.68,45.248L480.63,45.252L481.59,45.28L482.55,45.266L483.51,45.239L484.46,45.225L485.42,45.257L486.38,45.234L487.34,45.229L488.29,45.243L489.25,45.211L490.21,45.202L491.17,45.216L492.12,45.248L493.08,45.211L494.04,45.229L495,45.207L495.95,45.207L496.91,45.211L497.87,45.197L498.82,45.207L499.78,45.202L500.74,45.216L501.7,45.202L502.65,45.211L503.61,45.156L504.57,45.188L505.53,45.197L506.48,45.174L507.44,45.184L508.4,45.188L509.36,45.193L510.31,45.184L511.27,45.165L512.23,45.188L513.19,45.174L514.14,45.188L515.1,45.17L516.06,45.17L517.02,45.188L517.97,45.188L518.93,45.179L519.89,45.165L520.85,45.174L521.8,45.179L522.76,45.179L523.72,45.179L524.68,45.165L525.63,45.165L526.59,45.193L527.55,45.165L528.51,45.174L529.46,45.174L530.42,45.174L531.38,45.156L532.34,45.151L533.29,45.165L534.25,45.184L535.21,45.165L536.17,45.156L537.12,45.184L538.08,45.161L539.04,45.151L540,45.161L540.95,45.161L541.91,45.156L542.87,45.151L543.83,45.156L545.74,45.156L546.7,45.156L547.66,45.165L548.61,45.151L549.57,45.151L550.53,45.17L551.49,45.151L552.44,45.151L553.4,45.165L556.27,45.151L557.23,45.156L559.15,45.156L560.1,45.156L562.02,45.165L562.98,45.161L563.93,45.151L565.85,45.151L566.81,45.165L567.76,45.151L568.72,45.151L571.59,45.156L572.55,45.151L573.51,45.151L577.34,45.151L578.29,45.151L579.25,45.151L581.17,45.156L583.08,45.151L585,45.151L585.95,45.151L586.91,45.156L587.87,45.156L588.83,45.151L590.74,45.151L591.7,45.151L592.66,45.151L599.36,45.151L603.19,45.151L608.93,45.151L612.76,45.151L614.68,45.151L615.64,45.151L621.38,45.151L622.34,45.151L623.3,45.151L630,45.156L631.91,45.151L632.87,45.151L671.17,45.151L673.08,45.151L678.83,45.151L720,45.151" style="fill:none;stroke:#0000FF" />
</g>
</svg>
