<?xml version="1.0"?>
<!-- Generated by SVGo and Plotinum VG -->
<svg width="720pt" height="432pt" viewBox="0 0 720 432"
	xmlns="http://www.w3.org/2000/svg"
	xmlns:xlink="http://www.w3.org/1999/xlink">
<g transform="scale(1, -1) translate(0, -432)">
<path d="M0,0L720,0L720,432L0,432Z" style="fill:#FFFFFF" />
<text x="358.5" y="-420.45" transform="scale(1, -1)"
	style="font-family:Times;font-weight:normal;font-style:normal;font-size:12px"> </text>
<text x="385.56" y="-3.8613" transform="scale(1, -1)"
	style="font-family:Times;font-weight:normal;font-style:normal;font-size:12px">Costs</text>
<text x="69.055" y="-18.634" transform="scale(1, -1)"
	style="font-family:Times;font-weight:normal;font-style:normal;font-size:10px">0.00</text>
<text x="373.99" y="-18.634" transform="scale(1, -1)"
	style="font-family:Times;font-weight:normal;font-style:normal;font-size:10px">250.00</text>
<text x="683.93" y="-18.634" transform="scale(1, -1)"
	style="font-family:Times;font-weight:normal;font-style:normal;font-size:10px">500.00</text>
<path d="M77.805,28.263L77.805,36.263" style="fill:none;stroke:#000000;stroke-width:0.5" />
<path d="M387.74,28.263L387.74,36.263" style="fill:none;stroke:#000000;stroke-width:0.5" />
<path d="M697.68,28.263L697.68,36.263" style="fill:none;stroke:#000000;stroke-width:0.5" />
<path d="M139.79,32.263L139.79,36.263" style="fill:none;stroke:#000000;stroke-width:0.5" />
<path d="M201.78,32.263L201.78,36.263" style="fill:none;stroke:#000000;stroke-width:0.5" />
<path d="M263.77,32.263L263.77,36.263" style="fill:none;stroke:#000000;stroke-width:0.5" />
<path d="M325.76,32.263L325.76,36.263" style="fill:none;stroke:#000000;stroke-width:0.5" />
<path d="M449.73,32.263L449.73,36.263" style="fill:none;stroke:#000000;stroke-width:0.5" />
<path d="M511.72,32.263L511.72,36.263" style="fill:none;stroke:#000000;stroke-width:0.5" />
<path d="M573.71,32.263L573.71,36.263" style="fill:none;stroke:#000000;stroke-width:0.5" />
<path d="M635.7,32.263L635.7,36.263" style="fill:none;stroke:#000000;stroke-width:0.5" />
<path d="M77.805,36.263L720,36.263" style="fill:none;stroke:#000000;stroke-width:0.5" />
<g transform="rotate(90)">
<text x="152.55" y="11.555" transform="scale(1, -1)"
	style="font-family:Times;font-weight:normal;font-style:normal;font-size:12px">Number of trials (1000000 total)</text>
</g>
<text x="24.055" y="-90.351" transform="scale(1, -1)"
	style="font-family:Times;font-weight:normal;font-style:normal;font-size:10px">25000.00</text>
<text x="19.055" y="-235.57" transform="scale(1, -1)"
	style="font-family:Times;font-weight:normal;font-style:normal;font-size:10px">100000.00</text>
<text x="19.055" y="-380.79" transform="scale(1, -1)"
	style="font-family:Times;font-weight:normal;font-style:normal;font-size:10px">175000.00</text>
<path d="M64.055,93.556L72.055,93.556" style="fill:none;stroke:#000000;stroke-width:0.5" />
<path d="M64.055,238.78L72.055,238.78" style="fill:none;stroke:#000000;stroke-width:0.5" />
<path d="M64.055,384L72.055,384" style="fill:none;stroke:#000000;stroke-width:0.5" />
<path d="M68.055,166.17L72.055,166.17" style="fill:none;stroke:#000000;stroke-width:0.5" />
<path d="M68.055,311.39L72.055,311.39" style="fill:none;stroke:#000000;stroke-width:0.5" />
<path d="M72.055,45.151L72.055,416.58" style="fill:none;stroke:#000000;stroke-width:0.5" />
<path d="M77.805,416.58L107.56,48.532L110.04,48.426L111.28,59.054L112.52,52.085L113.76,63.002L115,48.538L116.24,74.195L117.48,58.918L118.72,52.482L119.96,69.891L121.2,76.232L122.44,70.112L123.68,52.093L124.92,77.063L126.16,52.31L127.4,83.85L128.63,55.594L129.87,76.645L131.11,66.346L132.35,52.327L134.83,56.01L138.55,55.555L139.79,62.802L141.03,65.986L142.27,45.229L143.51,83.528L144.75,70.304L145.99,52.755L147.23,71.312L148.47,56.395L149.71,46.818L150.95,57.251L152.19,54.744L153.43,47.403L154.67,62.009L155.91,70.001L157.15,48.952L158.39,50.033L159.63,50.352L160.87,69.678L162.11,49.886L163.35,53.973L164.59,52.046L165.83,61.118L167.07,51.979L168.31,60.183L169.55,57.394L170.79,52.732L172.03,52.889L173.27,67.655L174.51,55.139L175.75,51.512L176.99,72.11L178.23,59.995L179.46,55.208L180.7,52.945L181.94,55.166L183.18,55.832L184.42,53.849L185.66,54.414L186.9,55.673L188.14,56.585L189.38,54.819L190.62,58.514L191.86,55.044L193.1,56.928L194.34,57.236L195.58,55.421L196.82,56.391L198.06,54.933L199.3,54.465L200.54,53.874L201.78,52.403L203.02,52.639L204.26,54.178L205.5,54.426L206.74,53.843L207.98,55.144L209.22,53.973L210.46,55.88L211.7,52.771L212.94,56.122L214.18,53.34L215.42,53.816L216.66,53.528L217.9,55.297L219.14,52.364L220.38,54.327L221.62,55.483L222.86,53.832L224.1,52.742L225.34,52.945L226.58,54.349L227.82,52.196L229.06,52.54L230.3,53.245L231.53,51.876L232.77,51.185L234.01,51.971L235.25,52.052L236.49,50.89L237.73,51.309L238.97,53.284L240.21,52.219L241.45,50.501L242.69,52.96L243.93,52.296L245.17,50.641L246.41,51.921L247.65,51.036L248.89,50.255L250.13,50.509L251.37,51.198L252.61,50.05L253.85,50.36L255.09,50.962L256.33,51.146L257.57,50.149L258.81,49.727L260.05,51.131L261.29,50.273L262.53,49.977L263.77,50.135L265.01,50.447L266.25,49.847L267.49,49.864L268.73,49.789L269.97,49.479L271.21,49.547L272.45,49.984L273.69,49.874L274.93,49.148L276.17,49.02L277.41,49.291L278.65,49.21L279.89,48.888L281.13,48.803L282.36,48.983L283.6,48.854L284.84,48.747L286.08,48.71L287.32,48.728L288.56,48.737L289.8,48.536L291.04,48.536L292.28,48.517L293.52,48.377L294.76,48.29L296,48.449L297.24,48.081L298.48,48.054L299.72,48.135L300.96,48.054L302.2,47.713L303.44,47.885L304.68,47.868L305.92,47.717L307.16,47.639L308.4,47.835L309.64,47.748L310.88,47.51L312.12,47.647L313.36,47.508L314.6,47.274L315.84,47.397L317.08,47.442L318.32,47.223L319.56,47.297L320.8,47.212L322.04,47.152L323.28,47.049L324.52,47.092L325.76,47.002L327,46.962L328.24,46.815L329.48,46.908L330.72,46.834L331.96,46.815L333.2,46.722L334.43,46.753L335.67,46.644L336.91,46.737L338.15,46.797L339.39,46.714L340.63,46.619L341.87,46.495L343.11,46.636L344.35,46.513L345.59,46.474L346.83,46.379L348.07,46.406L349.31,46.342L350.55,46.389L351.79,46.398L353.03,46.338L354.27,46.23L355.51,46.255L356.75,46.257L357.99,46.168L359.23,46.207L360.47,46.222L361.71,46.12L362.95,46.118L364.19,46.052L365.43,46.094L366.67,46.046L367.91,45.984L369.15,45.986L370.39,45.961L371.63,45.936L372.87,45.907L374.11,45.932L375.35,45.901L376.59,45.893L377.83,45.798L379.07,45.85L380.31,45.792L381.55,45.831L382.79,45.783L384.03,45.709L385.26,45.715L386.5,45.738L387.74,45.717L388.98,45.694L390.22,45.723L391.46,45.655L392.7,45.666L393.94,45.672L395.18,45.591L396.42,45.612L397.66,45.647L398.9,45.542L400.14,45.541L401.38,45.546L402.62,45.585L403.86,45.55L405.1,45.502L406.34,45.546L407.58,45.512L408.82,45.494L410.06,45.523L411.3,45.473L412.54,45.512L413.78,45.508L415.02,45.43L416.26,45.457L417.5,45.461L418.74,45.475L419.98,45.434L421.22,45.428L422.46,45.475L423.7,45.442L424.94,45.401L426.18,45.417L427.42,45.388L428.66,45.388L429.9,45.353L431.14,45.391L432.38,45.393L433.62,45.374L434.86,45.401L436.1,45.349L437.33,45.316L438.57,45.3L439.81,45.337L441.05,45.306L442.29,45.341L443.53,45.343L444.77,45.312L446.01,45.304L447.25,45.277L448.49,45.291L449.73,45.277L450.97,45.266L452.21,45.299L453.45,45.273L454.69,45.295L455.93,45.281L457.17,45.26L458.41,45.271L459.65,45.268L460.89,45.283L462.13,45.26L463.37,45.24L464.61,45.262L465.85,45.25L467.09,45.231L468.33,45.238L469.57,45.237L470.81,45.231L472.05,45.227L473.29,45.217L474.53,45.221L475.77,45.227L477.01,45.206L478.25,45.213L479.49,45.215L480.73,45.231L481.97,45.196L483.21,45.194L484.45,45.196L485.69,45.213L486.93,45.229L488.17,45.19L489.4,45.209L490.64,45.209L491.88,45.213L493.12,45.184L494.36,45.196L495.6,45.206L496.84,45.186L498.08,45.188L499.32,45.202L500.56,45.188L501.8,45.194L503.04,45.171L504.28,45.169L505.52,45.182L506.76,45.178L508,45.171L509.24,45.196L510.48,45.18L511.72,45.188L512.96,45.167L514.2,45.186L515.44,45.184L516.68,45.178L517.92,45.186L519.16,45.182L520.4,45.19L521.64,45.169L522.88,45.177L524.12,45.173L525.36,45.169L526.6,45.173L527.84,45.167L529.08,45.171L530.32,45.161L531.56,45.163L532.8,45.171L534.04,45.165L535.28,45.163L536.52,45.161L537.76,45.177L539,45.163L540.23,45.155L541.47,45.157L542.71,45.165L543.95,45.159L545.19,45.163L546.43,45.173L547.67,45.161L548.91,45.161L550.15,45.167L551.39,45.161L552.63,45.157L553.87,45.151L555.11,45.165L556.35,45.159L557.59,45.159L558.83,45.161L560.07,45.161L561.31,45.167L562.55,45.153L563.79,45.153L565.03,45.157L566.27,45.157L567.51,45.161L568.75,45.151L569.99,45.155L571.23,45.155L573.71,45.157L574.95,45.159L576.19,45.155L577.43,45.159L578.67,45.161L579.91,45.155L582.39,45.157L583.63,45.151L584.87,45.151L586.11,45.151L587.35,45.151L591.07,45.153L592.3,45.151L593.54,45.153L596.02,45.151L597.26,45.159L598.5,45.153L600.98,45.151L603.46,45.153L605.94,45.153L607.18,45.151L608.42,45.151L609.66,45.153L612.14,45.151L613.38,45.151L614.62,45.151L615.86,45.155L622.06,45.153L623.3,45.151L625.78,45.151L627.02,45.151L630.74,45.151L631.98,45.151L634.46,45.151L635.7,45.153L636.94,45.151L638.18,45.151L640.66,45.151L645.61,45.151L649.33,45.151L664.21,45.151L665.45,45.151L681.57,45.151L720,45.151" style="fill:none;stroke:#0000FF" />
</g>
</svg>
