<?xml version="1.0"?>
<!-- Generated by SVGo and Plotinum VG -->
<svg width="720pt" height="432pt" viewBox="0 0 720 432"
	xmlns="http://www.w3.org/2000/svg"
	xmlns:xlink="http://www.w3.org/1999/xlink">
<g transform="scale(1, -1) translate(0, -432)">
<path d="M0,0L720,0L720,432L0,432Z" style="fill:#FFFFFF" />
<text x="358.5" y="-420.45" transform="scale(1, -1)"
	style="font-family:Times;font-weight:normal;font-style:normal;font-size:12px"> </text>
<text x="376.81" y="-3.8613" transform="scale(1, -1)"
	style="font-family:Times;font-weight:normal;font-style:normal;font-size:12px">Costs</text>
<text x="51.555" y="-18.634" transform="scale(1, -1)"
	style="font-family:Times;font-weight:normal;font-style:normal;font-size:10px">0.00</text>
<text x="329.44" y="-18.634" transform="scale(1, -1)"
	style="font-family:Times;font-weight:normal;font-style:normal;font-size:10px">250.00</text>
<text x="612.33" y="-18.634" transform="scale(1, -1)"
	style="font-family:Times;font-weight:normal;font-style:normal;font-size:10px">500.00</text>
<path d="M60.305,28.263L60.305,36.263" style="fill:none;stroke:#000000;stroke-width:0.5" />
<path d="M343.19,28.263L343.19,36.263" style="fill:none;stroke:#000000;stroke-width:0.5" />
<path d="M626.08,28.263L626.08,36.263" style="fill:none;stroke:#000000;stroke-width:0.5" />
<path d="M116.88,32.263L116.88,36.263" style="fill:none;stroke:#000000;stroke-width:0.5" />
<path d="M173.46,32.263L173.46,36.263" style="fill:none;stroke:#000000;stroke-width:0.5" />
<path d="M230.04,32.263L230.04,36.263" style="fill:none;stroke:#000000;stroke-width:0.5" />
<path d="M286.62,32.263L286.62,36.263" style="fill:none;stroke:#000000;stroke-width:0.5" />
<path d="M399.77,32.263L399.77,36.263" style="fill:none;stroke:#000000;stroke-width:0.5" />
<path d="M456.35,32.263L456.35,36.263" style="fill:none;stroke:#000000;stroke-width:0.5" />
<path d="M512.93,32.263L512.93,36.263" style="fill:none;stroke:#000000;stroke-width:0.5" />
<path d="M569.5,32.263L569.5,36.263" style="fill:none;stroke:#000000;stroke-width:0.5" />
<path d="M682.66,32.263L682.66,36.263" style="fill:none;stroke:#000000;stroke-width:0.5" />
<path d="M60.305,36.263L720,36.263" style="fill:none;stroke:#000000;stroke-width:0.5" />
<g transform="rotate(90)">
<text x="152.55" y="11.555" transform="scale(1, -1)"
	style="font-family:Times;font-weight:normal;font-style:normal;font-size:12px">Number of trials (1000000 total)</text>
</g>
<text x="19.055" y="-84.061" transform="scale(1, -1)"
	style="font-family:Times;font-weight:normal;font-style:normal;font-size:10px">10000</text>
<text x="19.055" y="-210.42" transform="scale(1, -1)"
	style="font-family:Times;font-weight:normal;font-style:normal;font-size:10px">40000</text>
<text x="19.055" y="-336.78" transform="scale(1, -1)"
	style="font-family:Times;font-weight:normal;font-style:normal;font-size:10px">70000</text>
<path d="M46.555,87.267L54.555,87.267" style="fill:none;stroke:#000000;stroke-width:0.5" />
<path d="M46.555,213.63L54.555,213.63" style="fill:none;stroke:#000000;stroke-width:0.5" />
<path d="M46.555,339.99L54.555,339.99" style="fill:none;stroke:#000000;stroke-width:0.5" />
<path d="M50.555,129.39L54.555,129.39" style="fill:none;stroke:#000000;stroke-width:0.5" />
<path d="M50.555,171.51L54.555,171.51" style="fill:none;stroke:#000000;stroke-width:0.5" />
<path d="M50.555,255.75L54.555,255.75" style="fill:none;stroke:#000000;stroke-width:0.5" />
<path d="M50.555,297.87L54.555,297.87" style="fill:none;stroke:#000000;stroke-width:0.5" />
<path d="M50.555,382.1L54.555,382.1" style="fill:none;stroke:#000000;stroke-width:0.5" />
<path d="M54.555,45.151L54.555,416.58" style="fill:none;stroke:#000000;stroke-width:0.5" />
<path d="M60.305,416.58L85.199,48.715L87.462,52.455L89.725,71.881L90.857,55.909L91.988,65.984L94.251,48.685L95.383,95.598L96.514,94.402L97.646,62.513L98.777,59.064L99.909,81.189L101.04,63.987L102.17,55.496L103.3,55.605L104.44,70.806L105.57,75.751L106.7,106.75L107.83,80.098L108.96,85.645L110.09,75.844L111.22,66.986L112.36,62.774L114.62,52.383L115.75,95.75L116.88,64.889L118.01,86.829L119.15,45.728L120.28,86.088L121.41,73.022L122.54,53.799L123.67,64.021L124.8,59.236L125.93,50.602L127.07,69.779L128.2,53.344L129.33,57.059L130.46,74.551L131.59,92.641L132.72,52.788L133.86,54.114L134.99,56.882L136.12,64.67L137.25,57.248L138.38,58.575L139.51,58.015L140.64,67.892L141.78,63.17L142.91,95.611L144.04,81.24L145.17,67.117L146.3,67.816L147.43,68.254L148.57,60.95L149.7,62.783L150.83,71.598L151.96,102.27L153.09,69.096L154.22,68.431L155.36,72.239L156.49,74.041L157.62,68.545L158.75,67.458L159.88,66.523L161.01,68.401L162.14,70.878L163.28,68.452L164.41,68.692L165.54,68.229L166.67,76.493L167.8,71.889L168.93,64.324L170.07,66.801L171.2,66.161L172.33,66.308L173.46,67.235L174.59,62.913L175.72,68.427L176.85,67.311L177.99,72.243L179.12,72.222L180.25,67.888L181.38,67.247L182.51,67.711L183.64,64.535L184.78,62.273L185.91,62.61L187.04,72.508L188.17,69.572L189.3,69.855L190.43,68.17L191.56,73.199L192.7,67.437L193.83,64.518L194.96,63.945L196.09,64.665L197.22,63.612L198.35,71.733L199.49,66.738L200.62,69.24L201.75,66.548L202.88,66.451L204.01,65.706L205.14,62.222L206.28,63.735L207.41,67.365L208.54,63.406L209.67,65.769L210.8,63.145L211.93,66.241L213.06,66.338L214.2,67.024L215.33,64.695L216.46,62.522L217.59,61.511L218.72,63.558L219.85,61.511L220.99,60.942L222.12,63.334L223.25,65.158L224.38,62.21L225.51,61.742L226.64,63.764L227.77,62.538L228.91,61.169L230.04,60.862L231.17,60.681L232.3,60.087L233.43,60.55L234.56,63.381L235.7,62.614L236.83,60.946L237.96,60.993L239.09,60.9L240.22,59.224L241.35,59.177L242.48,59.994L243.62,59.801L244.75,59.83L245.88,59.586L247.01,59.902L248.14,59.565L249.27,59.257L250.41,59.523L251.54,58.571L252.67,57.766L253.8,58.352L254.93,57.775L256.06,57.699L257.19,57.252L258.33,58.12L259.46,57.977L260.59,57.408L261.72,57.779L262.85,57.707L263.98,56.102L265.12,56.435L266.25,55.955L267.38,56.237L268.51,56.322L269.64,56.49L270.77,56.212L271.91,56.119L273.04,55.429L274.17,55.496L275.3,55.239L276.43,55.066L277.56,54.519L278.69,55.037L279.83,54.338L280.96,54.742L282.09,54.902L283.22,54.801L284.35,54.194L285.48,53.967L286.62,53.626L287.75,53.605L288.88,52.935L290.01,53.521L291.14,53.175L292.27,53.028L293.4,53.049L294.54,52.783L295.67,53.061L296.8,52.661L297.93,52.354L299.06,52.564L300.19,52.341L301.33,51.806L302.46,52.156L303.59,52.114L304.72,51.865L305.85,51.937L306.98,51.562L308.11,51.503L309.25,51.457L310.38,51.242L311.51,51.179L312.64,50.88L313.77,50.955L314.9,51.027L316.04,51.044L317.17,50.888L318.3,50.808L319.43,50.551L320.56,50.665L321.69,50.307L322.82,49.966L323.96,50.029L325.09,50.008L326.22,49.907L327.35,49.654L328.48,49.633L329.61,49.688L330.75,49.452L331.88,49.515L333.01,49.477L334.14,49.25L335.27,48.963L336.4,49.174L337.54,49.22L338.67,48.946L339.8,48.82L340.93,48.904L342.06,48.824L343.19,48.689L344.32,48.748L345.46,48.643L346.59,48.416L347.72,48.567L348.85,48.327L349.98,48.121L351.11,48.032L352.25,48.344L353.38,48.209L354.51,48.159L355.64,47.851L356.77,48.011L357.9,47.885L359.03,47.839L360.17,47.733L361.3,47.712L362.43,47.607L363.56,47.83L364.69,47.481L365.82,47.489L366.96,47.367L368.09,47.241L369.22,47.224L370.35,47.299L371.48,47.299L372.61,47.064L373.74,46.904L374.88,47.093L376.01,47.148L377.14,47.068L378.27,46.916L379.4,46.819L380.53,46.773L381.67,46.887L382.8,46.819L383.93,46.845L385.06,46.592L386.19,46.701L387.32,46.63L388.46,46.642L389.59,46.592L390.72,46.701L391.85,46.432L392.98,46.444L394.11,46.474L395.24,46.474L396.38,46.272L397.51,46.453L398.64,46.293L399.77,46.369L400.9,46.331L402.03,46.225L403.17,46.204L404.3,46.234L405.43,46.242L406.56,46.086L407.69,46.129L408.82,46.12L409.95,46.179L411.09,46.107L412.22,46.053L413.35,46.074L414.48,46.036L415.61,46.049L416.74,45.834L417.88,45.859L419.01,45.943L420.14,45.926L421.27,45.779L422.4,45.851L423.53,45.851L424.66,45.939L425.8,45.825L426.93,45.897L428.06,45.758L429.19,45.669L430.32,45.716L431.45,45.703L432.59,45.678L433.72,45.682L434.85,45.728L435.98,45.661L437.11,45.623L438.24,45.665L439.37,45.653L440.51,45.632L441.64,45.539L442.77,45.556L443.9,45.564L445.03,45.585L446.16,45.501L447.3,45.56L448.43,45.463L449.56,45.543L450.69,45.442L451.82,45.471L452.95,45.467L454.09,45.497L455.22,45.459L456.35,45.404L457.48,45.459L458.61,45.522L459.74,45.434L460.87,45.459L462.01,45.446L463.14,45.366L464.27,45.421L465.4,45.467L466.53,45.391L467.66,45.391L468.8,45.4L469.93,45.396L471.06,45.354L472.19,45.413L473.32,45.358L474.45,45.337L475.58,45.366L476.72,45.311L477.85,45.345L478.98,45.316L480.11,45.311L481.24,45.332L482.37,45.311L483.51,45.307L484.64,45.332L485.77,45.286L486.9,45.29L488.03,45.274L489.16,45.24L490.29,45.282L491.43,45.269L492.56,45.24L493.69,45.252L494.82,45.252L495.95,45.252L497.08,45.223L498.22,45.257L499.35,45.248L500.48,45.219L501.61,45.257L502.74,45.223L503.87,45.261L505,45.265L506.14,45.21L507.27,45.198L508.4,45.252L509.53,45.252L510.66,45.265L511.79,45.24L512.93,45.227L514.06,45.215L515.19,45.231L516.32,45.219L517.45,45.219L518.58,45.206L519.72,45.21L520.85,45.206L521.98,45.219L523.11,45.193L524.24,45.185L525.37,45.193L526.5,45.202L527.64,45.181L528.77,45.181L529.9,45.236L531.03,45.198L532.16,45.193L533.29,45.193L534.43,45.189L535.56,45.177L536.69,45.16L537.82,45.177L538.95,45.198L540.08,45.168L541.21,45.198L542.35,45.185L543.48,45.172L544.61,45.193L545.74,45.156L546.87,45.168L548,45.16L549.14,45.193L550.27,45.185L551.4,45.164L552.53,45.181L553.66,45.156L554.79,45.164L555.92,45.168L557.06,45.164L558.19,45.156L559.32,45.181L560.45,45.168L561.58,45.177L562.71,45.164L563.85,45.164L564.98,45.185L566.11,45.156L567.24,45.172L568.37,45.156L569.5,45.168L570.64,45.168L571.77,45.16L574.03,45.16L575.16,45.151L576.29,45.151L577.42,45.172L578.56,45.181L580.82,45.16L581.95,45.16L583.08,45.156L584.21,45.164L585.35,45.151L586.48,45.164L589.87,45.151L591,45.156L592.13,45.151L593.27,45.16L594.4,45.16L595.53,45.164L598.92,45.156L600.06,45.151L601.19,45.156L602.32,45.156L603.45,45.156L605.71,45.151L606.84,45.151L607.98,45.151L609.11,45.151L610.24,45.156L613.63,45.156L614.77,45.156L621.55,45.151L622.69,45.151L624.95,45.156L626.08,45.156L628.34,45.151L631.74,45.151L632.87,45.151L639.66,45.151L649.84,45.151L653.24,45.151L662.29,45.156L665.69,45.156L672.47,45.151L720,45.151" style="fill:none;stroke:#0000FF" />
</g>
</svg>
