<?xml version="1.0"?>
<!-- Generated by SVGo and Plotinum VG -->
<svg width="720pt" height="432pt" viewBox="0 0 720 432"
	xmlns="http://www.w3.org/2000/svg"
	xmlns:xlink="http://www.w3.org/1999/xlink">
<g transform="scale(1, -1) translate(0, -432)">
<path d="M0,0L720,0L720,432L0,432Z" style="fill:#FFFFFF" />
<text x="358.5" y="-420.45" transform="scale(1, -1)"
	style="font-family:Times;font-weight:normal;font-style:normal;font-size:12px"> </text>
<text x="379.31" y="-3.8613" transform="scale(1, -1)"
	style="font-family:Times;font-weight:normal;font-style:normal;font-size:12px">Costs</text>
<text x="62.805" y="-18.634" transform="scale(1, -1)"
	style="font-family:Times;font-weight:normal;font-style:normal;font-size:10px">0</text>
<text x="364.45" y="-18.634" transform="scale(1, -1)"
	style="font-family:Times;font-weight:normal;font-style:normal;font-size:10px">200</text>
<text x="671.1" y="-18.634" transform="scale(1, -1)"
	style="font-family:Times;font-weight:normal;font-style:normal;font-size:10px">400</text>
<path d="M65.305,28.263L65.305,36.263" style="fill:none;stroke:#000000;stroke-width:0.5" />
<path d="M371.95,28.263L371.95,36.263" style="fill:none;stroke:#000000;stroke-width:0.5" />
<path d="M678.6,28.263L678.6,36.263" style="fill:none;stroke:#000000;stroke-width:0.5" />
<path d="M218.63,32.263L218.63,36.263" style="fill:none;stroke:#000000;stroke-width:0.5" />
<path d="M525.28,32.263L525.28,36.263" style="fill:none;stroke:#000000;stroke-width:0.5" />
<path d="M65.305,36.263L720,36.263" style="fill:none;stroke:#000000;stroke-width:0.5" />
<g transform="rotate(90)">
<text x="152.55" y="11.555" transform="scale(1, -1)"
	style="font-family:Times;font-weight:normal;font-style:normal;font-size:12px">Number of trials (1000000 total)</text>
</g>
<text x="24.055" y="-87.828" transform="scale(1, -1)"
	style="font-family:Times;font-weight:normal;font-style:normal;font-size:10px">50000</text>
<text x="19.055" y="-225.48" transform="scale(1, -1)"
	style="font-family:Times;font-weight:normal;font-style:normal;font-size:10px">200000</text>
<text x="19.055" y="-363.12" transform="scale(1, -1)"
	style="font-family:Times;font-weight:normal;font-style:normal;font-size:10px">350000</text>
<path d="M51.555,91.033L59.555,91.033" style="fill:none;stroke:#000000;stroke-width:0.5" />
<path d="M51.555,228.68L59.555,228.68" style="fill:none;stroke:#000000;stroke-width:0.5" />
<path d="M51.555,366.33L59.555,366.33" style="fill:none;stroke:#000000;stroke-width:0.5" />
<path d="M55.555,159.86L59.555,159.86" style="fill:none;stroke:#000000;stroke-width:0.5" />
<path d="M55.555,297.51L59.555,297.51" style="fill:none;stroke:#000000;stroke-width:0.5" />
<path d="M59.555,45.151L59.555,416.58" style="fill:none;stroke:#000000;stroke-width:0.5" />
<path d="M65.305,416.58L106.7,48.657L108.24,48.599L109.77,59.261L111.3,51.978L112.84,52.349L114.37,52.228L115.9,52.05L117.43,48.568L120.5,51.89L122.03,70.473L123.57,51.988L125.1,51.932L126.63,73.815L128.17,55.808L129.7,70.817L131.23,48.526L138.9,55.448L141.97,51.998L143.5,52.343L146.57,77.777L148.1,58.915L151.17,59.258L152.7,45.353L154.23,45.298L155.77,63.973L157.3,45.558L158.83,70.823L160.37,63.945L161.9,67.156L163.43,45.651L164.97,45.938L166.5,46.488L168.03,53.137L169.57,46.492L171.1,47.42L172.63,47.154L174.17,47.397L175.7,46.663L177.23,46.87L178.76,50.065L180.3,46.427L181.83,46.539L183.36,47.691L184.9,47.272L186.43,48.068L187.96,47.598L189.5,47.378L191.03,48.826L192.56,47.595L194.1,46.917L195.63,47.388L197.16,46.721L198.7,46.883L200.23,47.842L201.76,47.393L203.3,50.759L204.83,49.255L206.36,48.717L207.9,50.863L209.43,48.667L210.96,49.442L212.5,49.57L214.03,46.858L215.56,48.664L217.1,48.952L218.63,48.214L220.16,49.969L221.7,48.155L223.23,49.929L224.76,48.918L226.3,47.286L227.83,46.546L229.36,47.926L230.9,45.768L232.43,48.133L233.96,46.955L235.49,46.748L237.03,47.867L238.56,46.911L240.09,48.284L241.63,49.061L243.16,48.046L244.69,47.401L246.23,46.349L247.76,46.32L249.29,47.327L250.83,46.654L252.36,47.247L253.89,47.001L255.43,47.26L256.96,46.819L258.49,46.271L260.03,46.081L261.56,46.33L263.09,46.124L264.63,46.584L266.16,45.955L267.69,46.025L269.23,46.245L270.76,45.89L272.29,46.181L273.83,46.137L275.36,45.948L276.89,45.933L278.43,45.827L279.96,45.877L281.49,46.068L283.03,45.883L284.56,46.021L286.09,46.101L287.63,45.885L289.16,45.95L290.69,45.83L292.22,45.749L293.76,46.017L295.29,45.754L296.82,45.978L298.36,46.061L299.89,45.938L301.42,45.982L302.96,45.974L304.49,45.902L306.02,45.962L307.56,45.746L309.09,45.745L310.62,45.74L312.16,45.643L313.69,45.781L315.22,45.787L316.76,45.69L318.29,45.663L319.82,45.694L321.36,45.555L322.89,45.647L324.42,45.562L325.96,45.61L327.49,45.492L329.02,45.519L330.56,45.484L332.09,45.473L333.62,45.487L335.16,45.528L336.69,45.527L338.22,45.551L339.76,45.434L341.29,45.404L342.82,45.394L344.36,45.436L345.89,45.41L347.42,45.412L348.95,45.362L350.49,45.384L352.02,45.346L353.55,45.35L355.09,45.339L356.62,45.315L358.15,45.343L359.69,45.332L361.22,45.299L362.75,45.307L364.29,45.304L365.82,45.306L367.35,45.302L368.89,45.291L370.42,45.279L371.95,45.272L373.49,45.251L375.02,45.282L376.55,45.276L378.09,45.277L379.62,45.283L381.15,45.272L382.69,45.251L384.22,45.268L385.75,45.255L387.29,45.261L388.82,45.249L390.35,45.25L391.89,45.247L393.42,45.247L394.95,45.239L396.49,45.259L398.02,45.226L399.55,45.243L401.09,45.225L402.62,45.217L404.15,45.217L405.68,45.205L407.22,45.221L408.75,45.204L410.28,45.203L411.82,45.206L413.35,45.197L414.88,45.195L416.42,45.2L417.95,45.199L419.48,45.214L421.02,45.197L422.55,45.194L424.08,45.187L425.62,45.182L427.15,45.188L428.68,45.184L430.22,45.183L431.75,45.184L433.28,45.187L434.82,45.185L436.35,45.172L437.88,45.178L439.42,45.17L440.95,45.183L442.48,45.178L444.02,45.174L445.55,45.178L447.08,45.18L448.62,45.171L450.15,45.171L451.68,45.172L453.22,45.169L454.75,45.169L456.28,45.166L457.82,45.163L459.35,45.171L460.88,45.168L462.41,45.163L463.95,45.169L465.48,45.161L467.01,45.163L468.55,45.165L470.08,45.156L471.61,45.161L473.15,45.164L474.68,45.158L476.21,45.157L477.75,45.164L479.28,45.158L480.81,45.159L482.35,45.16L483.88,45.157L485.41,45.161L486.95,45.155L488.48,45.159L490.01,45.153L491.55,45.158L493.08,45.158L494.61,45.159L496.15,45.157L497.68,45.156L499.21,45.155L500.75,45.154L502.28,45.16L503.81,45.157L505.35,45.155L506.88,45.156L508.41,45.152L509.95,45.154L511.48,45.153L513.01,45.154L514.55,45.157L516.08,45.153L517.61,45.153L519.14,45.156L520.68,45.155L522.21,45.152L523.74,45.154L525.28,45.152L526.81,45.153L528.34,45.152L529.88,45.154L534.48,45.152L536.01,45.151L537.54,45.152L539.08,45.152L542.14,45.152L543.68,45.151L546.74,45.152L549.81,45.151L554.41,45.151L555.94,45.152L560.54,45.151L563.61,45.152L565.14,45.152L566.68,45.152L568.21,45.151L569.74,45.152L572.81,45.151L574.34,45.151L575.88,45.151L577.41,45.152L578.94,45.151L580.47,45.152L585.07,45.151L600.41,45.151L606.54,45.151L612.67,45.151L617.27,45.151L618.81,45.151L634.14,45.151L651,45.151L720,45.151" style="fill:none;stroke:#0000FF" />
</g>
</svg>
