<?xml version="1.0"?>
<!-- Generated by SVGo and Plotinum VG -->
<svg width="720pt" height="432pt" viewBox="0 0 720 432"
	xmlns="http://www.w3.org/2000/svg"
	xmlns:xlink="http://www.w3.org/1999/xlink">
<g transform="scale(1, -1) translate(0, -432)">
<path d="M0,0L720,0L720,432L0,432Z" style="fill:#FFFFFF" />
<text x="358.5" y="-420.45" transform="scale(1, -1)"
	style="font-family:Times;font-weight:normal;font-style:normal;font-size:12px"> </text>
<text x="379.31" y="-3.8613" transform="scale(1, -1)"
	style="font-family:Times;font-weight:normal;font-style:normal;font-size:12px">Costs</text>
<text x="56.555" y="-18.634" transform="scale(1, -1)"
	style="font-family:Times;font-weight:normal;font-style:normal;font-size:10px">0.00</text>
<text x="348.07" y="-18.634" transform="scale(1, -1)"
	style="font-family:Times;font-weight:normal;font-style:normal;font-size:10px">250.00</text>
<text x="644.58" y="-18.634" transform="scale(1, -1)"
	style="font-family:Times;font-weight:normal;font-style:normal;font-size:10px">500.00</text>
<path d="M65.305,28.263L65.305,36.263" style="fill:none;stroke:#000000;stroke-width:0.5" />
<path d="M361.82,28.263L361.82,36.263" style="fill:none;stroke:#000000;stroke-width:0.5" />
<path d="M658.33,28.263L658.33,36.263" style="fill:none;stroke:#000000;stroke-width:0.5" />
<path d="M124.61,32.263L124.61,36.263" style="fill:none;stroke:#000000;stroke-width:0.5" />
<path d="M183.91,32.263L183.91,36.263" style="fill:none;stroke:#000000;stroke-width:0.5" />
<path d="M243.21,32.263L243.21,36.263" style="fill:none;stroke:#000000;stroke-width:0.5" />
<path d="M302.51,32.263L302.51,36.263" style="fill:none;stroke:#000000;stroke-width:0.5" />
<path d="M421.12,32.263L421.12,36.263" style="fill:none;stroke:#000000;stroke-width:0.5" />
<path d="M480.42,32.263L480.42,36.263" style="fill:none;stroke:#000000;stroke-width:0.5" />
<path d="M539.72,32.263L539.72,36.263" style="fill:none;stroke:#000000;stroke-width:0.5" />
<path d="M599.02,32.263L599.02,36.263" style="fill:none;stroke:#000000;stroke-width:0.5" />
<path d="M717.63,32.263L717.63,36.263" style="fill:none;stroke:#000000;stroke-width:0.5" />
<path d="M65.305,36.263L720,36.263" style="fill:none;stroke:#000000;stroke-width:0.5" />
<g transform="rotate(90)">
<text x="152.55" y="11.555" transform="scale(1, -1)"
	style="font-family:Times;font-weight:normal;font-style:normal;font-size:12px">Number of trials (1000000 total)</text>
</g>
<text x="24.055" y="-111.91" transform="scale(1, -1)"
	style="font-family:Times;font-weight:normal;font-style:normal;font-size:10px">40000</text>
<text x="19.055" y="-251.85" transform="scale(1, -1)"
	style="font-family:Times;font-weight:normal;font-style:normal;font-size:10px">120000</text>
<text x="19.055" y="-391.79" transform="scale(1, -1)"
	style="font-family:Times;font-weight:normal;font-style:normal;font-size:10px">200000</text>
<path d="M51.555,115.12L59.555,115.12" style="fill:none;stroke:#000000;stroke-width:0.5" />
<path d="M51.555,255.06L59.555,255.06" style="fill:none;stroke:#000000;stroke-width:0.5" />
<path d="M51.555,394.99L59.555,394.99" style="fill:none;stroke:#000000;stroke-width:0.5" />
<path d="M55.555,185.09L59.555,185.09" style="fill:none;stroke:#000000;stroke-width:0.5" />
<path d="M55.555,325.02L59.555,325.02" style="fill:none;stroke:#000000;stroke-width:0.5" />
<path d="M59.555,45.151L59.555,416.58" style="fill:none;stroke:#000000;stroke-width:0.5" />
<path d="M65.305,416.58L92.584,55.416L96.142,55.759L97.328,52.181L98.514,51.921L99.7,58.921L102.07,69.983L103.26,70.356L104.44,55.057L105.63,59.698L106.82,48.69L108,55.507L109.19,48.527L110.37,62.133L111.56,69.31L112.75,77.253L113.93,48.48L116.3,73.141L117.49,98.747L118.68,58.921L119.86,63.254L123.42,81.787L124.61,55.666L125.79,66.257L126.98,45.573L128.16,66.576L129.35,49.596L130.54,53.555L131.72,66.653L132.91,60.219L134.1,46.337L135.28,60.394L136.47,50.619L137.65,61.536L138.84,50.5L140.03,63.133L141.21,47.17L142.4,48.19L143.58,48.919L144.77,53.082L145.96,48.118L147.14,49.565L148.33,50.635L149.51,62.365L150.7,52.697L151.89,68.25L153.07,57.401L154.26,53.089L155.44,53.495L156.63,52.465L157.82,53.303L159,51.7L160.19,69.994L161.37,69.563L162.56,55.146L163.75,55.988L164.93,55.645L166.12,53.004L167.3,51.053L168.49,54.842L169.68,55.808L170.86,57.008L172.05,53.852L173.23,51.375L174.42,52.815L175.61,56.325L176.79,54.354L177.98,55.594L179.16,52.837L180.35,53.364L181.54,50.156L182.72,54.043L183.91,55.024L185.09,52.612L186.28,54.104L187.47,52.86L188.65,52.6L189.84,54.272L191.03,53.075L192.21,53.632L193.4,50.929L194.58,51.533L195.77,51.802L196.96,52L198.14,54.244L199.33,52.951L200.51,52.173L201.7,51.193L202.89,52.311L204.07,53.242L205.26,51.512L206.44,52.042L207.63,53.45L208.82,50.53L210,51.566L211.19,51.244L212.37,54.415L213.56,52.176L214.75,51.595L215.93,50.39L217.12,49.636L218.3,51.3L219.49,52.12L220.68,50.625L221.86,51.003L223.05,50.411L224.23,51.375L225.42,49.745L226.61,50.723L227.79,50.786L228.98,49.852L230.16,49.692L231.35,49.967L232.54,49.418L233.72,49.516L234.91,49.694L236.09,50.376L237.28,49.176L238.47,49.07L239.65,49.066L240.84,49.082L242.02,48.861L243.21,48.833L244.4,49.222L245.58,49.253L246.77,49.28L247.96,49.682L249.14,49.014L250.33,49.049L251.51,48.412L252.7,48.603L253.89,48.265L255.07,48.473L256.26,49.173L257.44,48.569L258.63,48.533L259.82,48.433L261,48.164L262.19,48.174L263.37,48.059L264.56,48.333L265.75,48.225L266.93,48.08L268.12,47.698L269.3,47.71L270.49,47.929L271.68,47.814L272.86,47.994L274.05,47.794L275.23,47.618L276.42,47.445L277.61,47.459L278.79,47.508L279.98,47.439L281.16,47.341L282.35,47.299L283.54,47.149L284.72,47.238L285.91,47.257L287.09,47.27L288.28,47.138L289.47,46.918L290.65,47.039L291.84,46.864L293.02,46.887L294.21,46.964L295.4,46.817L296.58,46.803L297.77,46.785L298.96,46.915L300.14,46.764L301.33,46.635L302.51,46.61L303.7,46.601L304.89,46.544L306.07,46.591L307.26,46.558L308.44,46.631L309.63,46.528L310.82,46.4L312,46.318L313.19,46.25L314.37,46.313L315.56,46.355L316.75,46.199L317.93,46.281L319.12,46.26L320.3,46.241L321.49,46.178L322.68,46.269L323.86,46.11L325.05,46.152L326.23,46.077L327.42,45.994L328.61,46.036L329.79,46.033L330.98,46.042L332.16,45.925L333.35,46L334.54,45.923L335.72,45.907L336.91,45.932L338.09,45.888L339.28,45.911L340.47,45.884L341.65,45.879L342.84,45.851L344.02,45.755L345.21,45.797L346.4,45.769L347.58,45.709L348.77,45.739L349.95,45.674L351.14,45.748L352.33,45.65L353.51,45.73L354.7,45.711L355.89,45.643L357.07,45.613L358.26,45.61L359.44,45.611L360.63,45.664L361.82,45.622L363,45.536L364.19,45.571L365.37,45.571L366.56,45.597L367.75,45.52L368.93,45.506L370.12,45.487L371.3,45.54L372.49,45.464L373.68,45.466L374.86,45.477L376.05,45.431L377.23,45.459L378.42,45.438L379.61,45.45L380.79,45.445L381.98,45.429L383.16,45.44L384.35,45.405L385.54,45.44L386.72,45.402L387.91,45.402L389.09,45.4L390.28,45.375L391.47,45.396L392.65,45.363L393.84,45.36L395.02,45.358L396.21,45.351L397.4,45.326L398.58,45.346L399.77,45.344L400.95,45.314L402.14,45.316L403.33,45.321L404.51,45.302L405.7,45.312L406.88,45.309L408.07,45.29L409.26,45.288L410.44,45.29L411.63,45.27L412.82,45.318L414,45.311L415.19,45.253L416.37,45.251L417.56,45.272L418.75,45.234L419.93,45.272L421.12,45.256L422.3,45.256L423.49,45.246L424.68,45.265L425.86,45.234L427.05,45.26L428.23,45.239L429.42,45.237L430.61,45.221L431.79,45.227L432.98,45.255L434.16,45.221L435.35,45.221L436.54,45.197L437.72,45.223L438.91,45.22L440.09,45.213L441.28,45.214L442.47,45.206L443.65,45.197L444.84,45.213L446.02,45.211L447.21,45.207L448.4,45.207L449.58,45.213L450.77,45.2L451.95,45.183L453.14,45.19L454.33,45.2L455.51,45.19L456.7,45.178L457.88,45.195L459.07,45.197L460.26,45.183L461.44,45.171L462.63,45.185L463.81,45.19L465,45.178L466.19,45.19L467.37,45.186L468.56,45.171L469.75,45.178L470.93,45.179L472.12,45.169L473.3,45.172L474.49,45.178L475.68,45.172L476.86,45.178L478.05,45.167L479.23,45.178L480.42,45.181L481.61,45.172L482.79,45.169L483.98,45.169L485.16,45.16L486.35,45.169L487.54,45.174L488.72,45.167L489.91,45.158L491.09,45.162L492.28,45.165L493.47,45.167L494.65,45.165L495.84,45.158L497.02,45.169L498.21,45.158L499.4,45.169L500.58,45.172L501.77,45.162L502.95,45.158L504.14,45.16L505.33,45.157L506.51,45.157L507.7,45.164L508.88,45.162L510.07,45.164L511.26,45.158L512.44,45.164L513.63,45.157L514.81,45.157L516,45.158L517.19,45.153L518.37,45.165L519.56,45.153L520.74,45.155L521.93,45.157L523.12,45.157L524.3,45.155L525.49,45.162L526.68,45.16L527.86,45.151L529.05,45.16L530.23,45.153L531.42,45.158L532.61,45.151L533.79,45.164L534.98,45.157L536.16,45.157L537.35,45.153L538.54,45.155L539.72,45.155L540.91,45.157L542.09,45.153L543.28,45.153L544.47,45.158L545.65,45.153L546.84,45.153L548.02,45.155L549.21,45.153L550.4,45.153L551.58,45.157L552.77,45.151L553.95,45.151L555.14,45.153L556.33,45.155L558.7,45.151L559.88,45.153L561.07,45.151L562.26,45.155L564.63,45.151L565.81,45.155L567,45.153L568.19,45.151L571.74,45.151L574.12,45.151L577.67,45.151L578.86,45.151L580.05,45.151L582.42,45.151L583.61,45.151L585.98,45.153L595.47,45.151L596.65,45.151L597.84,45.151L599.02,45.151L601.4,45.153L604.95,45.151L608.51,45.151L614.44,45.153L615.63,45.151L621.56,45.151L622.74,45.151L623.93,45.151L632.23,45.151L720,45.151" style="fill:none;stroke:#0000FF" />
</g>
</svg>
