<?xml version="1.0"?>
<!-- Generated by SVGo and Plotinum VG -->
<svg width="720pt" height="432pt" viewBox="0 0 720 432"
	xmlns="http://www.w3.org/2000/svg"
	xmlns:xlink="http://www.w3.org/1999/xlink">
<g transform="scale(1, -1) translate(0, -432)">
<path d="M0,0L720,0L720,432L0,432Z" style="fill:#FFFFFF" />
<text x="358.5" y="-420.45" transform="scale(1, -1)"
	style="font-family:Times;font-weight:normal;font-style:normal;font-size:12px"> </text>
<text x="379.31" y="-3.8613" transform="scale(1, -1)"
	style="font-family:Times;font-weight:normal;font-style:normal;font-size:12px">Costs</text>
<text x="56.555" y="-18.634" transform="scale(1, -1)"
	style="font-family:Times;font-weight:normal;font-style:normal;font-size:10px">0.00</text>
<text x="345.4" y="-18.634" transform="scale(1, -1)"
	style="font-family:Times;font-weight:normal;font-style:normal;font-size:10px">250.00</text>
<text x="639.25" y="-18.634" transform="scale(1, -1)"
	style="font-family:Times;font-weight:normal;font-style:normal;font-size:10px">500.00</text>
<path d="M65.305,28.263L65.305,36.263" style="fill:none;stroke:#000000;stroke-width:0.5" />
<path d="M359.15,28.263L359.15,36.263" style="fill:none;stroke:#000000;stroke-width:0.5" />
<path d="M653,28.263L653,36.263" style="fill:none;stroke:#000000;stroke-width:0.5" />
<path d="M124.07,32.263L124.07,36.263" style="fill:none;stroke:#000000;stroke-width:0.5" />
<path d="M182.84,32.263L182.84,36.263" style="fill:none;stroke:#000000;stroke-width:0.5" />
<path d="M241.61,32.263L241.61,36.263" style="fill:none;stroke:#000000;stroke-width:0.5" />
<path d="M300.38,32.263L300.38,36.263" style="fill:none;stroke:#000000;stroke-width:0.5" />
<path d="M417.92,32.263L417.92,36.263" style="fill:none;stroke:#000000;stroke-width:0.5" />
<path d="M476.69,32.263L476.69,36.263" style="fill:none;stroke:#000000;stroke-width:0.5" />
<path d="M535.46,32.263L535.46,36.263" style="fill:none;stroke:#000000;stroke-width:0.5" />
<path d="M594.23,32.263L594.23,36.263" style="fill:none;stroke:#000000;stroke-width:0.5" />
<path d="M711.77,32.263L711.77,36.263" style="fill:none;stroke:#000000;stroke-width:0.5" />
<path d="M65.305,36.263L720,36.263" style="fill:none;stroke:#000000;stroke-width:0.5" />
<g transform="rotate(90)">
<text x="149.86" y="11.555" transform="scale(1, -1)"
	style="font-family:Times;font-weight:normal;font-style:normal;font-size:12px">Number of trials (1000000 total)</text>
</g>
<text x="24.055" y="-114.95" transform="scale(1, -1)"
	style="font-family:Times;font-weight:normal;font-style:normal;font-size:10px">40000</text>
<text x="19.055" y="-260.95" transform="scale(1, -1)"
	style="font-family:Times;font-weight:normal;font-style:normal;font-size:10px">120000</text>
<text x="19.055" y="-406.96" transform="scale(1, -1)"
	style="font-family:Times;font-weight:normal;font-style:normal;font-size:10px">200000</text>
<path d="M51.555,118.15L59.555,118.15" style="fill:none;stroke:#000000;stroke-width:0.5" />
<path d="M51.555,264.16L59.555,264.16" style="fill:none;stroke:#000000;stroke-width:0.5" />
<path d="M51.555,410.16L59.555,410.16" style="fill:none;stroke:#000000;stroke-width:0.5" />
<path d="M55.555,191.15L59.555,191.15" style="fill:none;stroke:#000000;stroke-width:0.5" />
<path d="M55.555,337.16L59.555,337.16" style="fill:none;stroke:#000000;stroke-width:0.5" />
<path d="M59.555,45.151L59.555,411.19" style="fill:none;stroke:#000000;stroke-width:0.5" />
<path d="M65.305,411.19L95.865,59.243L97.04,69.751L98.216,55.532L99.391,59.177L101.74,66.273L102.92,62.274L104.09,52.098L105.27,70.197L106.44,51.847L107.62,48.488L108.79,59.507L109.97,59.244L111.15,62.303L112.32,58.929L113.5,51.683L114.67,48.329L115.85,51.928L117.02,69.786L118.2,62.405L119.37,73.332L122.9,86.971L124.07,69.33L127.6,95.499L128.78,70.443L129.95,49.727L131.13,56.056L132.3,70.534L133.48,61.024L134.65,53.424L135.83,47.807L137,79.068L138.18,46.827L139.35,65.45L140.53,47.568L141.71,49.046L142.88,49.495L144.06,58.98L145.23,48.29L146.41,48.236L147.58,49.024L148.76,54.039L149.93,50.69L151.11,60.823L152.28,52.037L153.46,51.013L154.63,52.439L155.81,56.191L156.99,51.751L158.16,51.138L159.34,71.969L160.51,71.558L161.69,52.324L162.86,54.342L164.04,55.859L165.21,54.534L166.39,52.963L167.56,55.253L168.74,56.083L169.91,54.43L171.09,55.397L172.27,53.065L173.44,54.388L174.62,55.204L175.79,54.737L176.97,55.992L178.14,52.322L179.32,52.966L180.49,54.859L181.67,56.841L182.84,53.058L184.02,51.601L185.2,56.857L186.37,56.516L187.55,51.835L188.72,51.743L189.9,55.549L191.07,59.223L192.25,52.472L193.42,51.623L194.6,56.147L195.77,54.749L196.95,54.025L198.12,52.006L199.3,54.038L200.48,52.411L201.65,52.689L202.83,52.382L204,52.099L205.18,51.88L206.35,53.326L207.53,50.794L208.7,51.203L209.88,49.951L211.05,52.313L212.23,50.886L213.4,52.995L214.58,51.327L215.76,49.986L216.93,51.397L218.11,53.996L219.28,50.566L220.46,49.365L221.63,51.722L222.81,54.162L223.98,50.687L225.16,50.293L226.33,51.238L227.51,51.618L228.68,50.136L229.86,49.979L231.04,50.99L232.21,50.889L233.39,50.123L234.56,50.568L235.74,49.316L236.91,49.342L238.09,49.991L239.26,50.077L240.44,49.077L241.61,49.108L242.79,49.491L243.96,49.699L245.14,49.659L246.32,49.44L247.49,49.292L248.67,49.754L249.84,49.309L251.02,48.975L252.19,48.825L253.37,49.312L254.54,49.668L255.72,48.794L256.89,48.96L258.07,48.991L259.24,48.794L260.42,48.436L261.6,48.632L262.77,48.851L263.95,48.641L265.12,48.484L266.3,48.188L267.47,48.064L268.65,48.285L269.82,48.21L271,48.137L272.17,48.046L273.35,47.909L274.53,47.79L275.7,47.986L276.88,48L278.05,47.624L279.23,47.635L280.4,48.274L281.58,47.716L282.75,47.383L283.93,47.513L285.1,48.062L286.28,47.681L287.45,47.272L288.63,47.456L289.81,47.579L290.98,47.294L292.16,47.285L293.33,47.188L294.51,47.135L295.68,46.978L296.86,47.25L298.03,46.865L299.21,46.933L300.38,46.971L301.56,46.956L302.73,46.81L303.91,46.73L305.09,46.715L306.26,46.757L307.44,46.606L308.61,46.756L309.79,46.661L310.96,46.628L312.14,46.661L313.31,46.511L314.49,46.504L315.66,46.418L316.84,46.579L318.01,46.48L319.19,46.345L320.37,46.374L321.54,46.365L322.72,46.294L323.89,46.254L325.07,46.259L326.24,46.325L327.42,46.203L328.59,46.197L329.77,46.13L330.94,46.126L332.12,46.144L333.29,46.133L334.47,46.068L335.65,46.086L336.82,46.047L338,46.024L339.17,46.011L340.35,45.936L341.52,45.936L342.7,46.016L343.87,45.936L345.05,45.905L346.22,45.796L347.4,45.954L348.58,45.876L349.75,45.834L350.93,45.788L352.1,45.836L353.28,45.818L354.45,45.786L355.63,45.808L356.8,45.704L357.98,45.746L359.15,45.703L360.33,45.681L361.5,45.668L362.68,45.64L363.86,45.699L365.03,45.617L366.21,45.622L367.38,45.562L368.56,45.58L369.73,45.549L370.91,45.584L372.08,45.522L373.26,45.524L374.43,45.566L375.61,45.544L376.78,45.582L377.96,45.547L379.14,45.547L380.31,45.496L381.49,45.443L382.66,45.491L383.84,45.473L385.01,45.46L386.19,45.487L387.36,45.442L388.54,45.449L389.71,45.411L390.89,45.429L392.06,45.442L393.24,45.442L394.42,45.378L395.59,45.407L396.77,45.4L397.94,45.369L399.12,45.348L400.29,45.385L401.47,45.389L402.64,45.367L403.82,45.358L404.99,45.363L406.17,45.367L407.34,45.336L408.52,45.345L409.7,45.317L410.87,45.292L412.05,45.31L413.22,45.327L414.4,45.285L415.57,45.279L416.75,45.288L417.92,45.29L419.1,45.292L420.27,45.279L421.45,45.281L422.62,45.292L423.8,45.263L424.98,45.279L426.15,45.265L427.33,45.275L428.5,45.288L429.68,45.255L430.85,45.261L432.03,45.237L433.2,45.252L434.38,45.233L435.55,45.252L436.73,45.248L437.91,45.252L439.08,45.248L440.26,45.224L441.43,45.228L442.61,45.226L443.78,45.235L444.96,45.224L446.13,45.219L447.31,45.204L448.48,45.221L449.66,45.221L450.83,45.201L452.01,45.208L453.19,45.215L454.36,45.23L455.54,45.204L456.71,45.204L457.89,45.204L459.06,45.204L460.24,45.213L461.41,45.202L462.59,45.193L463.76,45.192L464.94,45.19L466.11,45.188L467.29,45.193L468.47,45.204L469.64,45.193L470.82,45.184L471.99,45.186L473.17,45.177L474.34,45.177L475.52,45.179L476.69,45.177L477.87,45.184L479.04,45.184L480.22,45.179L481.39,45.177L482.57,45.188L483.75,45.175L484.92,45.17L486.1,45.184L487.27,45.17L488.45,45.175L489.62,45.179L490.8,45.168L491.97,45.166L493.15,45.173L494.32,45.171L495.5,45.17L496.67,45.168L497.85,45.168L499.03,45.166L500.2,45.171L501.38,45.164L502.55,45.171L503.73,45.155L504.9,45.159L506.08,45.168L507.25,45.17L508.43,45.164L509.6,45.17L510.78,45.162L511.95,45.162L513.13,45.166L514.31,45.159L515.48,45.155L516.66,45.16L517.83,45.155L519.01,45.153L520.18,45.151L521.36,45.168L522.53,45.157L523.71,45.157L524.88,45.159L526.06,45.153L527.24,45.157L528.41,45.164L529.59,45.155L530.76,45.155L531.94,45.159L533.11,45.153L534.29,45.166L535.46,45.16L536.64,45.151L537.81,45.159L538.99,45.157L540.16,45.153L541.34,45.155L542.52,45.151L543.69,45.157L544.87,45.155L546.04,45.151L547.22,45.155L548.39,45.153L549.57,45.151L550.74,45.153L553.09,45.153L555.44,45.153L556.62,45.155L557.8,45.153L558.97,45.151L560.15,45.151L562.5,45.153L563.67,45.151L564.85,45.153L567.2,45.151L568.37,45.153L570.72,45.153L571.9,45.155L573.08,45.153L576.6,45.151L577.78,45.151L578.95,45.151L582.48,45.151L583.65,45.153L584.83,45.153L586,45.153L587.18,45.157L589.53,45.151L590.71,45.151L591.88,45.151L594.23,45.151L596.58,45.151L604.81,45.153L605.99,45.151L610.69,45.151L621.27,45.151L624.79,45.151L627.14,45.151L631.85,45.151L633.02,45.151L653,45.151L663.58,45.151L668.28,45.151L670.63,45.151L702.37,45.151L720,45.151" style="fill:none;stroke:#0000FF" />
</g>
</svg>
