<?xml version="1.0"?>
<!-- Generated by SVGo and Plotinum VG -->
<svg width="720pt" height="432pt" viewBox="0 0 720 432"
	xmlns="http://www.w3.org/2000/svg"
	xmlns:xlink="http://www.w3.org/1999/xlink">
<g transform="scale(1, -1) translate(0, -432)">
<path d="M0,0L720,0L720,432L0,432Z" style="fill:#FFFFFF" />
<text x="358.5" y="-420.45" transform="scale(1, -1)"
	style="font-family:Times;font-weight:normal;font-style:normal;font-size:12px"> </text>
<text x="379.31" y="-3.8613" transform="scale(1, -1)"
	style="font-family:Times;font-weight:normal;font-style:normal;font-size:12px">Costs</text>
<text x="56.555" y="-18.634" transform="scale(1, -1)"
	style="font-family:Times;font-weight:normal;font-style:normal;font-size:10px">0.00</text>
<text x="334.24" y="-18.634" transform="scale(1, -1)"
	style="font-family:Times;font-weight:normal;font-style:normal;font-size:10px">250.00</text>
<text x="616.92" y="-18.634" transform="scale(1, -1)"
	style="font-family:Times;font-weight:normal;font-style:normal;font-size:10px">500.00</text>
<path d="M65.305,28.263L65.305,36.263" style="fill:none;stroke:#000000;stroke-width:0.5" />
<path d="M347.99,28.263L347.99,36.263" style="fill:none;stroke:#000000;stroke-width:0.5" />
<path d="M630.67,28.263L630.67,36.263" style="fill:none;stroke:#000000;stroke-width:0.5" />
<path d="M121.84,32.263L121.84,36.263" style="fill:none;stroke:#000000;stroke-width:0.5" />
<path d="M178.38,32.263L178.38,36.263" style="fill:none;stroke:#000000;stroke-width:0.5" />
<path d="M234.91,32.263L234.91,36.263" style="fill:none;stroke:#000000;stroke-width:0.5" />
<path d="M291.45,32.263L291.45,36.263" style="fill:none;stroke:#000000;stroke-width:0.5" />
<path d="M404.53,32.263L404.53,36.263" style="fill:none;stroke:#000000;stroke-width:0.5" />
<path d="M461.06,32.263L461.06,36.263" style="fill:none;stroke:#000000;stroke-width:0.5" />
<path d="M517.6,32.263L517.6,36.263" style="fill:none;stroke:#000000;stroke-width:0.5" />
<path d="M574.14,32.263L574.14,36.263" style="fill:none;stroke:#000000;stroke-width:0.5" />
<path d="M687.21,32.263L687.21,36.263" style="fill:none;stroke:#000000;stroke-width:0.5" />
<path d="M65.305,36.263L720,36.263" style="fill:none;stroke:#000000;stroke-width:0.5" />
<g transform="rotate(90)">
<text x="152.55" y="11.555" transform="scale(1, -1)"
	style="font-family:Times;font-weight:normal;font-style:normal;font-size:12px">Number of trials (1000000 total)</text>
</g>
<text x="24.055" y="-109.54" transform="scale(1, -1)"
	style="font-family:Times;font-weight:normal;font-style:normal;font-size:10px">20000</text>
<text x="24.055" y="-244.74" transform="scale(1, -1)"
	style="font-family:Times;font-weight:normal;font-style:normal;font-size:10px">60000</text>
<text x="19.055" y="-379.94" transform="scale(1, -1)"
	style="font-family:Times;font-weight:normal;font-style:normal;font-size:10px">100000</text>
<path d="M51.555,112.75L59.555,112.75" style="fill:none;stroke:#000000;stroke-width:0.5" />
<path d="M51.555,247.94L59.555,247.94" style="fill:none;stroke:#000000;stroke-width:0.5" />
<path d="M51.555,383.14L59.555,383.14" style="fill:none;stroke:#000000;stroke-width:0.5" />
<path d="M55.555,78.947L59.555,78.947" style="fill:none;stroke:#000000;stroke-width:0.5" />
<path d="M55.555,146.55L59.555,146.55" style="fill:none;stroke:#000000;stroke-width:0.5" />
<path d="M55.555,180.35L59.555,180.35" style="fill:none;stroke:#000000;stroke-width:0.5" />
<path d="M55.555,214.15L59.555,214.15" style="fill:none;stroke:#000000;stroke-width:0.5" />
<path d="M55.555,281.74L59.555,281.74" style="fill:none;stroke:#000000;stroke-width:0.5" />
<path d="M55.555,315.54L59.555,315.54" style="fill:none;stroke:#000000;stroke-width:0.5" />
<path d="M55.555,349.34L59.555,349.34" style="fill:none;stroke:#000000;stroke-width:0.5" />
<path d="M59.555,45.151L59.555,416.58" style="fill:none;stroke:#000000;stroke-width:0.5" />
<path d="M65.305,416.58L92.442,48.812L94.704,52.067L95.835,113.13L96.965,66.083L98.096,51.796L99.227,51.644L100.36,70.602L101.49,73.398L102.62,52.408L103.75,77.335L104.88,55.186L106.01,70.423L107.14,55.724L108.27,66.418L109.4,73.485L110.53,80.986L111.66,62.237L112.8,105.94L113.93,84L115.06,55.311L117.32,52.104L120.71,59.283L121.84,66.631L122.97,49.339L124.1,45.361L125.23,103.54L126.36,51.837L127.5,70.944L128.63,68.277L129.76,57.546L130.89,50.995L132.02,112.54L133.15,52.81L134.28,59.655L135.41,57.072L136.54,78.971L137.67,51.012L138.8,53.689L139.93,56.991L141.06,79.171L142.19,55.761L143.33,62.548L144.46,62.666L145.59,57.066L146.72,54.673L147.85,103.96L148.98,62.534L150.11,55.203L151.24,59.378L152.37,63.403L153.5,56.657L154.63,55.585L155.76,66.002L156.89,108.67L158.02,62.369L159.16,61.514L160.29,61.412L161.42,62.349L162.55,65.076L163.68,61.473L164.81,56.484L165.94,60.209L167.07,62.629L168.2,62.991L169.33,60.78L170.46,65.465L171.59,62.024L172.72,69.139L173.86,61.656L174.99,62.592L176.12,62.207L177.25,65.316L178.38,63.971L179.51,68.311L180.64,62.68L181.77,61.135L182.9,58.495L184.03,63.461L185.16,60.381L186.29,59.307L187.42,67.5L188.55,68.666L189.69,58.404L190.82,58.056L191.95,70.464L193.08,63.988L194.21,60.466L195.34,68.115L196.47,66.715L197.6,59.634L198.73,58.438L199.86,59.905L200.99,62.639L202.12,58.911L203.25,64.512L204.39,66.212L205.52,60.821L206.65,56.356L207.78,66.3L208.91,56.9L210.04,58.627L211.17,59.222L212.3,60.168L213.43,57.512L214.56,63.548L215.69,56.964L216.82,63.474L217.95,57.35L219.08,62.893L220.22,58.509L221.35,56.674L222.48,57.296L223.61,66.455L224.74,56.677L225.87,57.613L227,57.857L228.13,60.013L229.26,55.582L230.39,56.464L231.52,57.052L232.65,59.323L233.78,56.427L234.91,58.036L236.05,57.015L237.18,56.383L238.31,56.238L239.44,63.136L240.57,56.961L241.7,56.045L242.83,55.933L243.96,57.211L245.09,55.852L246.22,54.97L247.35,55.291L248.48,56.092L249.61,55.298L250.75,55.771L251.88,55.636L253.01,55.457L254.14,55.088L255.27,56.549L256.4,54.595L257.53,54.368L258.66,54.632L259.79,55.545L260.92,53.632L262.05,54.761L263.18,54.94L264.31,54.855L265.44,53.138L266.58,53.882L267.71,54.152L268.84,53.094L269.97,53.432L271.1,54.385L272.23,52.976L273.36,52.286L274.49,53.588L275.62,52.986L276.75,52.388L277.88,52.067L279.01,52.976L280.14,52.482L281.27,51.867L282.41,51.594L283.54,53.01L284.67,51.938L285.8,52.101L286.93,52.297L288.06,52.026L289.19,51.185L290.32,51.668L291.45,50.887L292.58,50.928L293.71,50.722L294.84,51.316L295.97,50.853L297.11,50.39L298.24,50.556L299.37,51.769L300.5,50.248L301.63,50.576L302.76,50.36L303.89,50.144L305.02,49.816L306.15,50.468L307.28,50.062L308.41,49.958L309.54,49.751L310.67,50.117L311.8,49.586L312.94,49.363L314.07,49.231L315.2,49.893L316.33,49.146L317.46,49.126L318.59,49.315L319.72,49.461L320.85,48.758L321.98,48.961L323.11,48.974L324.24,48.863L325.37,48.498L326.5,48.947L327.64,48.558L328.77,48.555L329.9,48.646L331.03,48.65L332.16,48.379L333.29,48.298L334.42,48.281L335.55,48.227L336.68,48.224L337.81,48.2L338.94,48.065L340.07,47.984L341.2,47.757L342.33,47.97L343.47,47.825L344.6,47.72L345.73,47.666L346.86,47.926L347.99,47.632L349.12,47.507L350.25,47.629L351.38,47.446L352.51,47.48L353.64,47.348L354.77,47.45L355.9,47.23L357.03,47.017L358.16,47.267L359.3,47.068L360.43,46.926L361.56,47.142L362.69,46.997L363.82,47.078L364.95,46.831L366.08,47.017L367.21,46.865L368.34,46.75L369.47,46.818L370.6,46.723L371.73,46.598L372.86,46.486L374,46.706L375.13,46.76L376.26,46.601L377.39,46.476L378.52,46.443L379.65,46.361L380.78,46.439L381.91,46.456L383.04,46.375L384.17,46.284L385.3,46.324L386.43,46.351L387.56,46.307L388.69,46.263L389.83,46.223L390.96,46.213L392.09,46.125L393.22,46.236L394.35,46.098L395.48,46.084L396.61,46.077L397.74,46.074L398.87,45.878L400,46.105L401.13,45.946L402.26,45.905L403.39,46.061L404.53,45.996L405.66,45.892L406.79,45.919L407.92,45.831L409.05,45.821L410.18,45.888L411.31,45.8L412.44,45.858L413.57,45.804L414.7,45.736L415.83,45.797L416.96,45.682L418.09,45.706L419.22,45.662L420.36,45.682L421.49,45.706L422.62,45.682L423.75,45.682L424.88,45.682L426.01,45.581L427.14,45.648L428.27,45.554L429.4,45.611L430.53,45.557L431.66,45.598L432.79,45.55L433.92,45.56L435.05,45.56L436.19,45.533L437.32,45.53L438.45,45.466L439.58,45.496L440.71,45.527L441.84,45.479L442.97,45.493L444.1,45.439L445.23,45.418L446.36,45.503L447.49,45.412L448.62,45.408L449.75,45.408L450.89,45.432L452.02,45.391L453.15,45.418L454.28,45.391L455.41,45.354L456.54,45.368L457.67,45.331L458.8,45.412L459.93,45.398L461.06,45.327L462.19,45.391L463.32,45.347L464.45,45.297L465.58,45.307L466.72,45.337L467.85,45.351L468.98,45.334L470.11,45.354L471.24,45.344L472.37,45.29L473.5,45.351L474.63,45.347L475.76,45.32L476.89,45.236L478.02,45.287L479.15,45.297L480.28,45.27L481.42,45.303L482.55,45.236L483.68,45.239L484.81,45.297L485.94,45.246L487.07,45.239L488.2,45.253L489.33,45.263L490.46,45.246L491.59,45.26L492.72,45.222L493.85,45.253L494.98,45.239L496.11,45.236L497.25,45.249L498.38,45.205L499.51,45.222L500.64,45.199L501.77,45.219L502.9,45.222L504.03,45.202L505.16,45.222L506.29,45.202L507.42,45.199L508.55,45.209L509.68,45.229L510.81,45.202L511.94,45.222L513.08,45.222L514.21,45.195L515.34,45.205L516.47,45.189L517.6,45.209L518.73,45.195L519.86,45.205L520.99,45.175L522.12,45.212L523.25,45.182L524.38,45.178L525.51,45.199L526.64,45.182L527.78,45.185L528.91,45.185L530.04,45.192L531.17,45.189L532.3,45.182L533.43,45.165L534.56,45.182L535.69,45.175L536.82,45.182L537.95,45.175L539.08,45.162L540.21,45.168L541.34,45.178L542.47,45.162L543.61,45.172L544.74,45.158L545.87,45.195L547,45.175L548.13,45.162L549.26,45.178L550.39,45.162L551.52,45.158L552.65,45.168L553.78,45.162L554.91,45.158L556.04,45.175L557.17,45.175L558.3,45.162L559.44,45.168L560.57,45.162L561.7,45.158L562.83,45.165L563.96,45.165L565.09,45.151L566.22,45.155L567.35,45.151L568.48,45.155L569.61,45.155L570.74,45.158L571.87,45.165L573,45.158L574.14,45.162L575.27,45.158L576.4,45.151L577.53,45.155L578.66,45.151L579.79,45.158L580.92,45.158L582.05,45.151L583.18,45.151L584.31,45.151L585.44,45.165L586.57,45.151L587.7,45.158L588.83,45.151L589.97,45.155L591.1,45.151L592.23,45.155L594.49,45.151L597.88,45.162L599.01,45.155L600.14,45.155L601.27,45.151L602.4,45.155L603.53,45.155L604.67,45.151L605.8,45.155L606.93,45.158L608.06,45.151L610.32,45.151L613.71,45.151L614.84,45.151L615.97,45.155L618.23,45.151L620.5,45.151L622.76,45.151L623.89,45.151L626.15,45.151L628.41,45.151L632.93,45.151L636.33,45.151L637.46,45.151L638.59,45.155L640.85,45.151L648.76,45.151L649.89,45.151L651.03,45.158L683.82,45.151L684.95,45.151L700.78,45.151L720,45.151" style="fill:none;stroke:#0000FF" />
</g>
</svg>
