<?xml version="1.0"?>
<!-- Generated by SVGo and Plotinum VG -->
<svg width="720pt" height="432pt" viewBox="0 0 720 432"
	xmlns="http://www.w3.org/2000/svg"
	xmlns:xlink="http://www.w3.org/1999/xlink">
<g transform="scale(1, -1) translate(0, -432)">
<path d="M0,0L720,0L720,432L0,432Z" style="fill:#FFFFFF" />
<text x="358.5" y="-420.45" transform="scale(1, -1)"
	style="font-family:Times;font-weight:normal;font-style:normal;font-size:12px"> </text>
<text x="376.81" y="-3.8613" transform="scale(1, -1)"
	style="font-family:Times;font-weight:normal;font-style:normal;font-size:12px">Costs</text>
<text x="51.555" y="-18.634" transform="scale(1, -1)"
	style="font-family:Times;font-weight:normal;font-style:normal;font-size:10px">0.00</text>
<text x="325.14" y="-18.634" transform="scale(1, -1)"
	style="font-family:Times;font-weight:normal;font-style:normal;font-size:10px">250.00</text>
<text x="603.73" y="-18.634" transform="scale(1, -1)"
	style="font-family:Times;font-weight:normal;font-style:normal;font-size:10px">500.00</text>
<path d="M60.305,28.263L60.305,36.263" style="fill:none;stroke:#000000;stroke-width:0.5" />
<path d="M338.89,28.263L338.89,36.263" style="fill:none;stroke:#000000;stroke-width:0.5" />
<path d="M617.48,28.263L617.48,36.263" style="fill:none;stroke:#000000;stroke-width:0.5" />
<path d="M116.02,32.263L116.02,36.263" style="fill:none;stroke:#000000;stroke-width:0.5" />
<path d="M171.74,32.263L171.74,36.263" style="fill:none;stroke:#000000;stroke-width:0.5" />
<path d="M227.46,32.263L227.46,36.263" style="fill:none;stroke:#000000;stroke-width:0.5" />
<path d="M283.17,32.263L283.17,36.263" style="fill:none;stroke:#000000;stroke-width:0.5" />
<path d="M394.61,32.263L394.61,36.263" style="fill:none;stroke:#000000;stroke-width:0.5" />
<path d="M450.33,32.263L450.33,36.263" style="fill:none;stroke:#000000;stroke-width:0.5" />
<path d="M506.04,32.263L506.04,36.263" style="fill:none;stroke:#000000;stroke-width:0.5" />
<path d="M561.76,32.263L561.76,36.263" style="fill:none;stroke:#000000;stroke-width:0.5" />
<path d="M673.2,32.263L673.2,36.263" style="fill:none;stroke:#000000;stroke-width:0.5" />
<path d="M60.305,36.263L720,36.263" style="fill:none;stroke:#000000;stroke-width:0.5" />
<g transform="rotate(90)">
<text x="152.55" y="11.555" transform="scale(1, -1)"
	style="font-family:Times;font-weight:normal;font-style:normal;font-size:12px">Number of trials (1000000 total)</text>
</g>
<text x="19.055" y="-106.81" transform="scale(1, -1)"
	style="font-family:Times;font-weight:normal;font-style:normal;font-size:10px">10000</text>
<text x="19.055" y="-236.55" transform="scale(1, -1)"
	style="font-family:Times;font-weight:normal;font-style:normal;font-size:10px">30000</text>
<text x="19.055" y="-366.29" transform="scale(1, -1)"
	style="font-family:Times;font-weight:normal;font-style:normal;font-size:10px">50000</text>
<path d="M46.555,110.01L54.555,110.01" style="fill:none;stroke:#000000;stroke-width:0.5" />
<path d="M46.555,239.75L54.555,239.75" style="fill:none;stroke:#000000;stroke-width:0.5" />
<path d="M46.555,369.49L54.555,369.49" style="fill:none;stroke:#000000;stroke-width:0.5" />
<path d="M50.555,174.88L54.555,174.88" style="fill:none;stroke:#000000;stroke-width:0.5" />
<path d="M50.555,304.62L54.555,304.62" style="fill:none;stroke:#000000;stroke-width:0.5" />
<path d="M54.555,45.151L54.555,416.58" style="fill:none;stroke:#000000;stroke-width:0.5" />
<path d="M60.305,416.58L84.82,48.317L85.935,48.512L87.049,52.281L89.278,79.87L91.506,112.2L92.621,116.93L93.735,51.937L94.85,84.904L95.964,62.264L97.078,89.892L98.193,119.76L99.307,125.99L100.42,55.089L101.54,78.637L102.65,93.259L103.76,52.397L104.88,70.159L105.99,100.13L107.11,48.544L108.22,87.395L109.34,99.37L110.45,51.651L111.56,100.7L112.68,45.203L113.79,52.696L114.91,52.391L116.02,49.66L117.14,53.909L118.25,47.201L119.37,78.916L120.48,64.982L121.59,55.732L122.71,126.08L123.82,76.244L124.94,60.623L126.05,85.235L127.17,70.464L128.28,75.796L129.39,103.97L130.51,95.199L131.62,71.32L132.74,65.812L133.85,74.842L134.97,81.556L136.08,71.508L137.19,86.169L138.31,75.712L139.42,71.073L140.54,91.43L141.65,89.328L142.77,103.26L143.88,85.786L145,70.042L146.11,78.04L147.22,78.955L148.34,80.311L149.45,91.053L150.57,93.94L151.68,76.6L152.8,65.475L153.91,83.84L155.02,82.062L156.14,68.219L157.25,87.343L158.37,76.276L159.48,77.826L160.6,88.841L161.71,89.321L162.82,74.194L163.94,75.141L165.05,83.613L166.17,74.57L167.28,80.551L168.4,91.747L169.51,74.233L170.63,79.909L171.74,88.296L172.85,75.88L173.97,89.698L175.08,82.374L176.2,75.037L177.31,77.606L178.43,80.259L179.54,81.466L180.65,83.95L181.77,87.985L182.88,78.923L184,75.757L185.11,79.974L186.23,81.044L187.34,78.676L188.45,90.022L189.57,80.687L190.68,78.761L191.8,85.682L192.91,82.023L194.03,78.903L195.14,76.925L196.26,78.637L197.37,77.333L198.48,75.926L199.6,79.656L200.71,77.223L201.83,75.361L202.94,77.463L204.06,76.38L205.17,80.097L206.28,76.99L207.4,73.746L208.51,76.646L209.63,77.275L210.74,76.321L211.86,80.96L212.97,79.299L214.09,75.219L215.2,72.293L216.31,77.087L217.43,74.959L218.54,73.993L219.66,78.151L220.77,75.018L221.89,71.566L223,74.998L224.11,74.356L225.23,73.052L226.34,72.909L227.46,73.474L228.57,72.319L229.69,72.312L230.8,74.589L231.91,72.838L233.03,72.76L234.14,71.56L235.26,69.938L236.37,71.294L237.49,71.534L238.6,69.011L239.72,71.041L240.83,70.146L241.94,69.841L243.06,70.061L244.17,69.783L245.29,69.166L246.4,67.48L247.52,68.414L248.63,68.796L249.74,68.368L250.86,69.919L251.97,68.284L253.09,66.636L254.2,68.187L255.32,67.045L256.43,66.28L257.54,66.331L258.66,65.949L259.77,65.475L260.89,65.845L262,64.937L263.12,66.273L264.23,64.775L265.35,64.496L266.46,63.769L267.57,63.724L268.69,63.808L269.8,63.905L270.92,64.003L272.03,63.244L273.15,61.953L274.26,63.166L275.37,62.815L276.49,61.927L277.6,62.679L278.72,62.601L279.83,61.596L280.95,61.207L282.06,61.343L283.17,60.506L284.29,59.721L285.4,60.389L286.52,60.208L287.63,59.818L288.75,59.656L289.86,59.462L290.98,59.293L292.09,59.475L293.2,59.241L294.32,58.67L295.43,58.677L296.55,58.456L297.66,58.158L298.78,58.236L299.89,58.073L301,57.386L302.12,57.49L303.23,57.159L304.35,56.153L305.46,57.042L306.58,56.432L307.69,56.504L308.8,56.296L309.92,56.16L311.03,56.27L312.15,56.017L313.26,55.939L314.38,54.72L315.49,55.038L316.61,55.031L317.72,54.674L318.83,54.83L319.95,54.791L321.06,54.376L322.18,54.052L323.29,53.721L324.41,54.149L325.52,53.481L326.63,53.507L327.75,53.26L328.86,52.962L329.98,52.897L331.09,52.813L332.21,53.001L333.32,53.066L334.43,52.709L335.55,52.307L336.66,52.553L337.78,51.956L338.89,52.157L340.01,51.839L341.12,51.632L342.24,51.392L343.35,51.541L344.46,51.314L345.58,51.385L346.69,50.912L347.81,50.951L348.92,51.003L350.04,50.633L351.15,50.99L352.26,50.523L353.38,50.672L354.49,50.581L355.61,50.309L356.72,50.309L357.84,49.848L358.95,50.146L360.06,49.939L361.18,49.673L362.29,49.738L363.41,49.757L364.52,49.53L365.64,49.284L366.75,49.738L367.87,49.167L368.98,49.108L370.09,49.128L371.21,49.128L372.32,48.907L373.44,48.914L374.55,48.946L375.67,48.706L376.78,48.544L377.89,48.622L379.01,48.414L380.12,48.181L381.24,48.272L382.35,48.083L383.47,48.161L384.58,48.038L385.69,48.414L386.81,47.837L387.92,48.051L389.04,48.071L390.15,47.766L391.27,47.623L392.38,47.629L393.5,47.578L394.61,47.337L395.72,47.526L396.84,47.441L397.95,47.383L399.07,47.214L400.18,47.305L401.3,47.169L402.41,47.305L403.52,47.24L404.64,47.013L405.75,47.221L406.87,47.084L407.98,46.89L409.1,46.935L410.21,46.961L411.32,46.916L412.44,46.812L413.55,46.585L414.67,46.832L415.78,46.598L416.9,46.741L418.01,46.514L419.13,46.501L420.24,46.494L421.35,46.689L422.47,46.533L423.58,46.598L424.7,46.39L425.81,46.3L426.93,46.228L428.04,46.423L429.15,46.371L430.27,46.3L431.38,46.157L432.5,46.326L433.61,46.338L434.73,46.176L435.84,46.15L436.96,46.118L438.07,46.034L439.18,46.053L440.3,45.982L441.41,45.93L442.53,46.092L443.64,46.021L444.76,46.021L445.87,45.93L446.98,46.014L448.1,45.923L449.21,45.858L450.33,45.962L451.44,45.904L452.56,45.845L453.67,45.878L454.78,45.82L455.9,45.826L457.01,45.833L458.13,45.716L459.24,45.683L460.36,45.722L461.47,45.657L462.59,45.748L463.7,45.807L464.81,45.703L465.93,45.729L467.04,45.547L468.16,45.502L469.27,45.69L470.39,45.482L471.5,45.586L472.61,45.651L473.73,45.592L474.84,45.476L475.96,45.567L477.07,45.469L478.19,45.521L479.3,45.469L480.41,45.456L481.53,45.417L482.64,45.495L483.76,45.411L484.87,45.573L485.99,45.489L487.1,45.372L488.22,45.385L489.33,45.385L490.44,45.437L491.56,45.378L492.67,45.359L493.79,45.372L494.9,45.314L496.02,45.365L497.13,45.398L498.24,45.411L499.36,45.281L500.47,45.346L501.59,45.314L502.7,45.359L503.82,45.365L504.93,45.314L506.04,45.385L507.16,45.307L508.27,45.288L509.39,45.314L510.5,45.333L511.62,45.275L512.73,45.307L513.85,45.262L514.96,45.255L516.07,45.288L517.19,45.307L518.3,45.216L519.42,45.275L520.53,45.281L521.65,45.262L522.76,45.262L523.87,45.275L524.99,45.236L526.1,45.21L527.22,45.236L528.33,45.275L529.45,45.203L530.56,45.236L531.67,45.242L532.79,45.203L533.9,45.268L535.02,45.216L536.13,45.19L537.25,45.203L538.36,45.229L539.48,45.229L540.59,45.229L541.7,45.203L542.82,45.223L543.93,45.223L545.05,45.184L546.16,45.184L547.28,45.177L548.39,45.203L549.5,45.21L550.62,45.255L551.73,45.177L552.85,45.177L553.96,45.203L555.08,45.184L556.19,45.197L557.3,45.197L558.42,45.177L559.53,45.171L560.65,45.171L561.76,45.171L562.88,45.197L563.99,45.158L565.11,45.177L566.22,45.164L567.33,45.19L568.45,45.19L569.56,45.164L570.68,45.184L571.79,45.184L572.91,45.158L574.02,45.171L575.13,45.177L576.25,45.171L577.36,45.158L578.48,45.171L579.59,45.171L580.71,45.177L581.82,45.177L582.93,45.164L584.05,45.164L585.16,45.164L586.28,45.177L587.39,45.158L589.62,45.151L590.74,45.164L591.85,45.158L592.96,45.158L594.08,45.151L595.19,45.151L597.42,45.158L598.54,45.164L599.65,45.151L601.88,45.158L604.11,45.151L605.22,45.158L606.34,45.158L608.56,45.164L609.68,45.164L611.91,45.164L613.02,45.151L614.14,45.164L615.25,45.158L619.71,45.164L620.82,45.151L623.05,45.151L624.17,45.158L625.28,45.151L626.39,45.151L627.51,45.158L628.62,45.151L629.74,45.151L630.85,45.151L631.97,45.158L640.88,45.151L642,45.151L643.11,45.151L644.22,45.151L654.25,45.151L656.48,45.151L657.6,45.151L658.71,45.151L659.83,45.151L662.05,45.151L665.4,45.151L666.51,45.151L667.63,45.151L670.97,45.151L677.65,45.151L682.11,45.151L693.26,45.151L698.83,45.151L714.43,45.151L715.54,45.151L720,45.151" style="fill:none;stroke:#0000FF" />
</g>
</svg>
