<?xml version="1.0"?>
<!-- Generated by SVGo and Plotinum VG -->
<svg width="720pt" height="432pt" viewBox="0 0 720 432"
	xmlns="http://www.w3.org/2000/svg"
	xmlns:xlink="http://www.w3.org/1999/xlink">
<g transform="scale(1, -1) translate(0, -432)">
<path d="M0,0L720,0L720,432L0,432Z" style="fill:#FFFFFF" />
<text x="358.5" y="-420.45" transform="scale(1, -1)"
	style="font-family:Times;font-weight:normal;font-style:normal;font-size:12px"> </text>
<text x="379.31" y="-3.8613" transform="scale(1, -1)"
	style="font-family:Times;font-weight:normal;font-style:normal;font-size:12px">Costs</text>
<text x="56.555" y="-18.634" transform="scale(1, -1)"
	style="font-family:Times;font-weight:normal;font-style:normal;font-size:10px">0.00</text>
<text x="361.54" y="-18.634" transform="scale(1, -1)"
	style="font-family:Times;font-weight:normal;font-style:normal;font-size:10px">250.00</text>
<text x="671.53" y="-18.634" transform="scale(1, -1)"
	style="font-family:Times;font-weight:normal;font-style:normal;font-size:10px">500.00</text>
<path d="M65.305,28.263L65.305,36.263" style="fill:none;stroke:#000000;stroke-width:0.5" />
<path d="M375.29,28.263L375.29,36.263" style="fill:none;stroke:#000000;stroke-width:0.5" />
<path d="M685.28,28.263L685.28,36.263" style="fill:none;stroke:#000000;stroke-width:0.5" />
<path d="M127.3,32.263L127.3,36.263" style="fill:none;stroke:#000000;stroke-width:0.5" />
<path d="M189.3,32.263L189.3,36.263" style="fill:none;stroke:#000000;stroke-width:0.5" />
<path d="M251.3,32.263L251.3,36.263" style="fill:none;stroke:#000000;stroke-width:0.5" />
<path d="M313.3,32.263L313.3,36.263" style="fill:none;stroke:#000000;stroke-width:0.5" />
<path d="M437.29,32.263L437.29,36.263" style="fill:none;stroke:#000000;stroke-width:0.5" />
<path d="M499.29,32.263L499.29,36.263" style="fill:none;stroke:#000000;stroke-width:0.5" />
<path d="M561.29,32.263L561.29,36.263" style="fill:none;stroke:#000000;stroke-width:0.5" />
<path d="M623.28,32.263L623.28,36.263" style="fill:none;stroke:#000000;stroke-width:0.5" />
<path d="M65.305,36.263L720,36.263" style="fill:none;stroke:#000000;stroke-width:0.5" />
<g transform="rotate(90)">
<text x="152.55" y="11.555" transform="scale(1, -1)"
	style="font-family:Times;font-weight:normal;font-style:normal;font-size:12px">Number of trials (1000000 total)</text>
</g>
<text x="24.055" y="-105.21" transform="scale(1, -1)"
	style="font-family:Times;font-weight:normal;font-style:normal;font-size:10px">20000</text>
<text x="24.055" y="-231.73" transform="scale(1, -1)"
	style="font-family:Times;font-weight:normal;font-style:normal;font-size:10px">60000</text>
<text x="19.055" y="-358.25" transform="scale(1, -1)"
	style="font-family:Times;font-weight:normal;font-style:normal;font-size:10px">100000</text>
<path d="M51.555,108.41L59.555,108.41" style="fill:none;stroke:#000000;stroke-width:0.5" />
<path d="M51.555,234.94L59.555,234.94" style="fill:none;stroke:#000000;stroke-width:0.5" />
<path d="M51.555,361.46L59.555,361.46" style="fill:none;stroke:#000000;stroke-width:0.5" />
<path d="M55.555,76.779L59.555,76.779" style="fill:none;stroke:#000000;stroke-width:0.5" />
<path d="M55.555,140.04L59.555,140.04" style="fill:none;stroke:#000000;stroke-width:0.5" />
<path d="M55.555,171.67L59.555,171.67" style="fill:none;stroke:#000000;stroke-width:0.5" />
<path d="M55.555,203.3L59.555,203.3" style="fill:none;stroke:#000000;stroke-width:0.5" />
<path d="M55.555,266.57L59.555,266.57" style="fill:none;stroke:#000000;stroke-width:0.5" />
<path d="M55.555,298.2L59.555,298.2" style="fill:none;stroke:#000000;stroke-width:0.5" />
<path d="M55.555,329.83L59.555,329.83" style="fill:none;stroke:#000000;stroke-width:0.5" />
<path d="M55.555,393.09L59.555,393.09" style="fill:none;stroke:#000000;stroke-width:0.5" />
<path d="M59.555,45.151L59.555,416.58" style="fill:none;stroke:#000000;stroke-width:0.5" />
<path d="M65.305,416.58L92.584,49.029L93.824,51.987L97.543,55.802L98.783,59.12L100.02,52.594L101.26,79.541L102.5,60.518L103.74,93.946L104.98,66.803L106.22,69.602L107.46,86.417L108.7,71.706L109.94,49.023L111.18,52.442L112.42,60.293L113.66,55.343L114.9,56.108L116.14,114.76L117.38,63.001L118.62,98.712L119.86,74.847L121.1,48.83L122.34,59.841L124.82,45.294L126.06,63.959L127.3,87.809L128.54,60.926L129.78,46.1L131.02,94.275L132.26,72.462L133.5,47.049L134.74,55.248L135.98,56.58L137.22,64.279L138.46,53.081L139.7,72.006L140.94,81.758L142.18,72.016L143.42,69.558L144.66,54.884L145.9,54.887L147.14,54.432L148.38,69.691L149.62,54.309L150.86,56.036L152.1,58.55L153.34,60.325L154.58,64.551L155.82,75.783L157.06,71.908L158.3,65.009L159.54,60.989L160.78,74.53L162.02,58.37L163.26,59.028L164.5,62.523L165.74,76.264L166.98,64.386L168.22,63.01L169.46,71.102L170.7,66.708L171.94,58.803L173.18,65.705L174.42,61.182L175.66,59.863L176.9,61.147L178.14,65.455L179.38,66.151L180.62,64.095L181.86,69.922L183.1,64.168L184.34,64.946L185.58,62.156L186.82,57.589L188.06,60.42L189.3,59.803L190.54,61.22L191.78,63.934L193.02,66.496L194.26,68.979L195.5,60.774L196.74,62.972L197.98,61.948L199.22,61.812L200.46,57.497L201.7,60.957L202.94,63.232L204.18,61.445L205.42,60.553L206.66,63.643L207.9,63.532L209.14,62.09L210.38,61.005L211.62,60.252L212.86,57.693L214.1,60.005L215.34,60.195L216.58,59.854L217.82,61.267L219.06,60.189L220.3,59.164L221.54,58.677L222.78,60.901L224.02,58.493L225.26,56.26L226.5,59.461L227.74,59.161L228.98,56.52L230.22,58.218L231.46,60.534L232.7,59.642L233.94,57.937L235.18,58.497L236.42,58.253L237.66,56.238L238.9,56.94L240.14,57.051L241.38,56.826L242.62,56.69L243.86,57.519L245.1,56.77L246.34,56.608L247.58,56.981L248.82,56.833L250.06,55.542L251.3,55.912L252.54,55.337L253.78,55.21L255.02,55.428L256.26,55.887L257.5,55.976L258.74,55.596L259.98,55.609L261.22,55.352L262.46,54.1L263.7,54.018L264.94,54.777L266.18,54.144L267.42,53.537L268.66,54.445L269.9,54.422L271.14,53.742L272.38,53.875L273.62,53.736L274.86,53.138L276.1,53.122L277.34,53.189L278.58,52.85L279.82,52.936L281.06,52.774L282.3,52.787L283.54,52.831L284.78,52.756L286.02,52.085L287.26,51.905L288.5,51.791L289.74,51.737L290.98,51.395L292.22,51.721L293.46,51.661L294.7,51.845L295.94,50.987L297.18,51.111L298.42,51.266L299.66,50.88L300.9,50.75L302.14,50.851L303.38,50.684L304.62,50.326L305.86,50.503L307.1,50.538L308.34,50.355L309.58,50.424L310.82,50.149L312.06,49.959L313.3,49.792L314.54,49.855L315.78,49.697L317.02,49.69L318.26,49.542L319.5,49.564L320.74,49.327L321.98,49.425L323.21,49.58L324.45,49.165L325.69,49.178L326.93,49.238L328.17,48.792L329.41,48.7L330.65,48.862L331.89,48.732L333.13,48.637L334.37,48.574L335.61,48.786L336.85,48.469L338.09,48.371L339.33,48.248L340.57,48.125L341.81,48.125L343.05,47.989L344.29,48.144L345.53,47.9L346.77,47.925L348.01,47.954L349.25,47.9L350.49,47.742L351.73,47.543L352.97,47.777L354.21,47.546L355.45,47.492L356.69,47.366L357.93,47.347L359.17,47.495L360.41,47.223L361.65,47.166L362.89,47.135L364.13,47.185L365.37,46.926L366.61,46.989L367.85,47.008L369.09,47.103L370.33,46.948L371.57,46.812L372.81,46.79L374.05,46.866L375.29,46.79L376.53,46.695L377.77,46.749L379.01,46.771L380.25,46.635L381.49,46.572L382.73,46.572L383.97,46.448L385.21,46.512L386.45,46.331L387.69,46.432L388.93,46.496L390.17,46.379L391.41,46.363L392.65,46.164L393.89,46.243L395.13,46.274L396.37,46.224L397.61,46.16L398.85,46.211L400.09,46.198L401.33,46.072L402.57,46.047L403.81,46.164L405.05,46.028L406.29,46.009L407.53,45.958L408.77,45.958L410.01,45.835L411.25,45.942L412.49,45.961L413.73,45.974L414.97,45.952L416.21,45.885L417.45,45.822L418.69,45.907L419.93,45.771L421.17,45.793L422.41,45.756L423.65,45.737L424.89,45.752L426.13,45.724L427.37,45.768L428.61,45.733L429.85,45.601L431.09,45.683L432.33,45.613L433.57,45.673L434.81,45.601L436.05,45.601L437.29,45.566L438.53,45.582L439.77,45.556L441.01,45.55L442.25,45.512L443.49,45.572L444.73,45.49L445.97,45.483L447.21,45.506L448.45,45.483L449.69,45.483L450.93,45.452L452.17,45.499L453.41,45.458L454.65,45.474L455.89,45.427L457.13,45.43L458.37,45.42L459.61,45.442L460.85,45.389L462.09,45.382L463.33,45.379L464.57,45.423L465.81,45.436L467.05,45.363L468.29,45.36L469.53,45.366L470.77,45.354L472.01,45.357L473.25,45.335L474.49,45.347L475.73,45.351L476.97,45.344L478.21,45.351L479.45,45.319L480.69,45.313L481.93,45.325L483.17,45.306L484.41,45.316L485.65,45.3L486.89,45.278L488.13,45.284L489.37,45.291L490.61,45.297L491.85,45.243L493.09,45.259L494.33,45.268L495.57,45.278L496.81,45.237L498.05,45.297L499.29,45.24L500.53,45.221L501.77,45.218L503.01,45.24L504.25,45.23L505.49,45.24L506.73,45.224L507.97,45.218L509.21,45.205L510.45,45.215L511.69,45.215L512.93,45.227L514.17,45.208L515.41,45.218L516.65,45.202L517.89,45.224L519.13,45.215L520.37,45.208L521.61,45.208L522.85,45.208L524.09,45.183L525.33,45.196L526.57,45.18L527.81,45.196L529.05,45.202L530.29,45.183L531.53,45.177L532.77,45.196L534.01,45.189L535.25,45.199L536.49,45.183L537.73,45.192L538.97,45.192L540.21,45.192L541.45,45.174L542.69,45.18L543.93,45.177L545.17,45.164L546.41,45.196L547.65,45.167L548.89,45.174L550.13,45.167L551.37,45.18L552.61,45.17L553.85,45.183L555.09,45.167L556.33,45.158L557.57,45.17L558.81,45.18L560.05,45.174L561.29,45.167L562.53,45.167L563.77,45.158L565.01,45.183L566.25,45.167L567.49,45.167L568.73,45.177L569.97,45.155L571.21,45.167L572.45,45.161L573.69,45.151L574.93,45.164L576.17,45.161L577.41,45.167L578.65,45.151L579.89,45.158L581.13,45.151L582.37,45.155L583.61,45.167L584.85,45.158L586.09,45.164L587.33,45.151L588.56,45.151L589.8,45.164L591.04,45.158L592.28,45.161L593.52,45.161L594.76,45.155L596,45.151L597.24,45.161L598.48,45.151L599.72,45.158L600.96,45.161L602.2,45.155L603.44,45.161L604.68,45.151L605.92,45.155L607.16,45.158L608.4,45.155L609.64,45.155L610.88,45.155L612.12,45.155L613.36,45.155L614.6,45.155L615.84,45.161L617.08,45.151L618.32,45.151L619.56,45.151L622.04,45.155L623.28,45.151L624.52,45.161L625.76,45.151L627,45.155L628.24,45.161L630.72,45.151L631.96,45.151L633.2,45.151L635.68,45.151L639.4,45.151L640.64,45.155L645.6,45.155L646.84,45.151L656.76,45.151L664.2,45.151L680.32,45.151L682.8,45.155L691.48,45.151L693.96,45.151L708.84,45.151L720,45.151" style="fill:none;stroke:#0000FF" />
</g>
</svg>
