<?xml version="1.0"?>
<!-- Generated by SVGo and Plotinum VG -->
<svg width="720pt" height="432pt" viewBox="0 0 720 432"
	xmlns="http://www.w3.org/2000/svg"
	xmlns:xlink="http://www.w3.org/1999/xlink">
<g transform="scale(1, -1) translate(0, -432)">
<path d="M0,0L720,0L720,432L0,432Z" style="fill:#FFFFFF" />
<text x="358.5" y="-420.45" transform="scale(1, -1)"
	style="font-family:Times;font-weight:normal;font-style:normal;font-size:12px"> </text>
<text x="379.13" y="-3.8613" transform="scale(1, -1)"
	style="font-family:Times;font-weight:normal;font-style:normal;font-size:12px">Costs</text>
<text x="62.434" y="-18.634" transform="scale(1, -1)"
	style="font-family:Times;font-weight:normal;font-style:normal;font-size:10px">0</text>
<text x="346.01" y="-18.634" transform="scale(1, -1)"
	style="font-family:Times;font-weight:normal;font-style:normal;font-size:10px">200</text>
<text x="634.58" y="-18.634" transform="scale(1, -1)"
	style="font-family:Times;font-weight:normal;font-style:normal;font-size:10px">400</text>
<path d="M64.934,28.263L64.934,36.263" style="fill:none;stroke:#000000;stroke-width:0.5" />
<path d="M353.51,28.263L353.51,36.263" style="fill:none;stroke:#000000;stroke-width:0.5" />
<path d="M642.08,28.263L642.08,36.263" style="fill:none;stroke:#000000;stroke-width:0.5" />
<path d="M209.22,32.263L209.22,36.263" style="fill:none;stroke:#000000;stroke-width:0.5" />
<path d="M497.8,32.263L497.8,36.263" style="fill:none;stroke:#000000;stroke-width:0.5" />
<path d="M64.934,36.263L720,36.263" style="fill:none;stroke:#000000;stroke-width:0.5" />
<g transform="rotate(90)">
<text x="152.55" y="11.555" transform="scale(1, -1)"
	style="font-family:Times;font-weight:normal;font-style:normal;font-size:12px">Number of trials (1000000 total)</text>
</g>
<text x="23.684" y="-72.265" transform="scale(1, -1)"
	style="font-family:Times;font-weight:normal;font-style:normal;font-size:10px">10000</text>
<text x="23.684" y="-223.87" transform="scale(1, -1)"
	style="font-family:Times;font-weight:normal;font-style:normal;font-size:10px">60000</text>
<text x="19.055" y="-375.48" transform="scale(1, -1)"
	style="font-family:Times;font-weight:normal;font-style:normal;font-size:10px">110000</text>
<path d="M51.184,75.47L59.184,75.47" style="fill:none;stroke:#000000;stroke-width:0.5" />
<path d="M51.184,227.08L59.184,227.08" style="fill:none;stroke:#000000;stroke-width:0.5" />
<path d="M51.184,378.69L59.184,378.69" style="fill:none;stroke:#000000;stroke-width:0.5" />
<path d="M55.184,105.79L59.184,105.79" style="fill:none;stroke:#000000;stroke-width:0.5" />
<path d="M55.184,136.11L59.184,136.11" style="fill:none;stroke:#000000;stroke-width:0.5" />
<path d="M55.184,166.44L59.184,166.44" style="fill:none;stroke:#000000;stroke-width:0.5" />
<path d="M55.184,196.76L59.184,196.76" style="fill:none;stroke:#000000;stroke-width:0.5" />
<path d="M55.184,257.4L59.184,257.4" style="fill:none;stroke:#000000;stroke-width:0.5" />
<path d="M55.184,287.72L59.184,287.72" style="fill:none;stroke:#000000;stroke-width:0.5" />
<path d="M55.184,318.04L59.184,318.04" style="fill:none;stroke:#000000;stroke-width:0.5" />
<path d="M55.184,348.37L59.184,348.37" style="fill:none;stroke:#000000;stroke-width:0.5" />
<path d="M55.184,409.01L59.184,409.01" style="fill:none;stroke:#000000;stroke-width:0.5" />
<path d="M59.184,45.151L59.184,416.58" style="fill:none;stroke:#000000;stroke-width:0.5" />
<path d="M64.934,416.58L98.12,51.965L99.563,48.365L102.45,48.593L105.33,51.84L108.22,59.736L112.55,58.945L113.99,169.76L115.43,48.514L116.88,51.783L122.65,74.979L124.09,59.618L125.53,72.872L126.98,63.284L128.42,154.79L132.75,45.218L135.63,66.765L137.08,45.173L138.52,59.636L139.96,45.215L141.41,267.46L142.85,155.8L145.73,45.5L147.18,47.55L148.62,46.689L150.06,48.766L151.51,46.316L152.95,45.388L154.39,157.14L155.83,46.225L157.28,50.612L158.72,46.025L160.16,46.261L161.61,52.147L163.05,51.649L164.49,47.025L165.94,49.709L167.38,46.061L168.82,48.584L170.26,46.971L171.71,59.991L173.15,51.279L174.59,60.246L176.04,77.759L177.48,81.541L178.92,49.521L180.36,48.541L181.81,50.297L183.25,50.309L184.69,63.305L186.14,59.739L187.58,58.038L189.02,63.244L190.46,125.86L191.91,82.92L193.35,51.719L194.79,49.912L196.24,47.729L197.68,51.27L199.12,71.783L200.56,63.263L202.01,74.727L203.45,100.2L204.89,114.14L206.34,78.39L207.78,45.849L209.22,46.892L210.66,46.555L212.11,67.729L213.55,57.601L214.99,63.505L216.44,55.943L217.88,109.07L219.32,110.12L220.76,47.641L222.21,46.543L223.65,48.605L225.09,60.755L226.54,49.988L227.98,52.665L229.42,47.031L230.86,109.17L232.31,78.939L233.75,51.725L235.19,51.355L236.64,50.919L238.08,53.933L239.52,59.679L240.96,48.817L242.41,49.548L243.85,48.268L245.29,49.075L246.74,51.561L248.18,57.711L249.62,54.621L251.06,57.686L252.51,68.205L253.95,73.821L255.39,58.099L256.84,48.92L258.28,49.045L259.72,50.13L261.16,57.789L262.61,58.999L264.05,59.005L265.49,64.409L266.94,72.844L268.38,68.254L269.82,48.805L271.27,48.926L272.71,49.457L274.15,52.856L275.59,57.88L277.04,57.853L278.48,57.905L279.92,75.397L281.37,67.438L282.81,65.3L284.25,47.234L285.69,47.899L287.14,47.798L288.58,57.644L290.02,55.412L291.47,55.255L292.91,54.142L294.35,64.445L295.79,63.984L297.24,48.132L298.68,47.805L300.12,47.899L301.57,55.212L303.01,51.376L304.45,49.891L305.89,48.302L307.34,55.634L308.78,64.218L310.22,49.49L311.67,50.051L313.11,50.236L314.55,52.347L315.99,53.193L317.44,49.809L318.88,47.228L320.32,47.419L321.77,47.717L323.21,49.815L324.65,51.355L326.09,51.292L327.54,50.734L328.98,54.248L330.42,53.981L331.87,51.88L333.31,47.119L334.75,47.544L336.19,48.193L337.64,50.803L339.08,51.064L340.52,50.919L341.97,53.772L343.41,54.918L344.85,51.807L346.29,47.056L347.74,47.037L349.18,47.519L350.62,48.869L352.07,49.794L353.51,50.412L354.95,48.89L356.39,51.725L357.84,51.57L359.28,48.793L360.72,46.798L362.17,46.852L363.61,47.059L365.05,49.033L366.5,49.181L367.94,47.986L369.38,48.208L370.82,48.763L372.27,50.973L373.71,46.683L375.15,46.937L376.6,46.78L378.04,47.771L379.48,48.023L380.92,46.637L382.37,46.692L383.81,46.167L385.25,48.708L386.7,46.922L388.14,46.858L389.58,47.077L391.02,47.883L392.47,47.568L393.91,47.083L395.35,45.891L396.8,46.049L398.24,46.079L399.68,46.78L401.12,47.262L402.57,47.301L404.01,46.816L405.45,47.717L406.9,47.01L408.34,46.498L409.78,45.937L411.22,45.87L412.67,46.276L414.11,46.722L415.55,46.789L417,46.534L418.44,46.862L419.88,47.41L421.32,46.898L422.77,45.803L424.21,45.803L425.65,45.94L427.1,46.176L428.54,46.201L429.98,46.258L431.42,46.028L432.87,46.022L434.31,46.31L435.75,45.655L437.2,45.718L438.64,45.724L440.08,45.773L441.52,45.849L442.97,46.188L444.41,45.549L445.85,45.779L447.3,45.561L448.74,46.225L450.18,45.652L451.62,45.761L453.07,45.633L454.51,45.749L455.95,45.806L457.4,45.449L458.84,45.439L460.28,45.47L461.72,45.555L463.17,45.706L464.61,45.627L466.05,45.458L467.5,45.779L468.94,45.612L470.38,45.449L471.83,45.315L473.27,45.391L474.71,45.406L476.15,45.509L477.6,45.621L479.04,45.503L480.48,45.5L481.93,45.585L483.37,45.503L484.81,45.294L486.25,45.376L487.7,45.312L489.14,45.373L490.58,45.464L492.03,45.458L493.47,45.391L494.91,45.379L496.35,45.415L497.8,45.376L499.24,45.279L500.68,45.315L502.13,45.309L503.57,45.306L505.01,45.273L506.45,45.318L507.9,45.279L509.34,45.273L510.78,45.282L512.23,45.273L513.67,45.257L515.11,45.261L516.55,45.288L518,45.221L519.44,45.264L520.88,45.2L522.33,45.233L523.77,45.218L525.21,45.224L526.65,45.248L528.1,45.279L529.54,45.257L530.98,45.276L532.43,45.239L533.87,45.242L535.31,45.191L536.75,45.197L538.2,45.224L539.64,45.206L541.08,45.248L542.53,45.203L543.97,45.203L545.41,45.233L546.85,45.176L548.3,45.191L549.74,45.188L551.18,45.191L552.63,45.206L554.07,45.2L555.51,45.203L556.95,45.194L558.4,45.188L559.84,45.203L561.28,45.173L562.73,45.17L564.17,45.176L565.61,45.203L567.05,45.173L568.5,45.176L569.94,45.176L571.38,45.167L572.83,45.167L574.27,45.179L575.71,45.157L577.16,45.163L578.6,45.157L580.04,45.16L581.48,45.163L582.93,45.154L584.37,45.154L585.81,45.16L587.26,45.16L588.7,45.16L590.14,45.17L591.58,45.16L593.03,45.176L594.47,45.163L595.91,45.154L597.36,45.167L598.8,45.163L600.24,45.16L601.68,45.163L603.13,45.163L604.57,45.16L606.01,45.154L607.46,45.151L608.9,45.16L610.34,45.151L611.78,45.163L613.23,45.154L614.67,45.151L616.11,45.16L617.56,45.157L619,45.154L621.88,45.154L623.33,45.154L624.77,45.151L626.21,45.157L629.1,45.157L631.98,45.151L633.43,45.163L634.87,45.151L637.76,45.151L639.2,45.151L643.53,45.151L649.3,45.154L650.74,45.151L656.51,45.154L657.96,45.151L659.4,45.151L665.17,45.154L666.61,45.151L669.5,45.151L678.16,45.151L701.24,45.151L714.23,45.151L720,45.151" style="fill:none;stroke:#0000FF" />
</g>
</svg>
