<?xml version="1.0"?>
<!-- Generated by SVGo and Plotinum VG -->
<svg width="720pt" height="432pt" viewBox="0 0 720 432"
	xmlns="http://www.w3.org/2000/svg"
	xmlns:xlink="http://www.w3.org/1999/xlink">
<g transform="scale(1, -1) translate(0, -432)">
<path d="M0,0L720,0L720,432L0,432Z" style="fill:#FFFFFF" />
<text x="358.5" y="-420.45" transform="scale(1, -1)"
	style="font-family:Times;font-weight:normal;font-style:normal;font-size:12px"> </text>
<text x="385.56" y="-3.8613" transform="scale(1, -1)"
	style="font-family:Times;font-weight:normal;font-style:normal;font-size:12px">Costs</text>
<text x="75.305" y="-18.634" transform="scale(1, -1)"
	style="font-family:Times;font-weight:normal;font-style:normal;font-size:10px">0</text>
<text x="371.1" y="-18.634" transform="scale(1, -1)"
	style="font-family:Times;font-weight:normal;font-style:normal;font-size:10px">200</text>
<text x="671.89" y="-18.634" transform="scale(1, -1)"
	style="font-family:Times;font-weight:normal;font-style:normal;font-size:10px">400</text>
<path d="M77.805,28.263L77.805,36.263" style="fill:none;stroke:#000000;stroke-width:0.5" />
<path d="M378.6,28.263L378.6,36.263" style="fill:none;stroke:#000000;stroke-width:0.5" />
<path d="M679.39,28.263L679.39,36.263" style="fill:none;stroke:#000000;stroke-width:0.5" />
<path d="M228.2,32.263L228.2,36.263" style="fill:none;stroke:#000000;stroke-width:0.5" />
<path d="M529,32.263L529,36.263" style="fill:none;stroke:#000000;stroke-width:0.5" />
<path d="M77.805,36.263L720,36.263" style="fill:none;stroke:#000000;stroke-width:0.5" />
<g transform="rotate(90)">
<text x="152.55" y="11.555" transform="scale(1, -1)"
	style="font-family:Times;font-weight:normal;font-style:normal;font-size:12px">Number of trials (1000000 total)</text>
</g>
<text x="24.055" y="-90.56" transform="scale(1, -1)"
	style="font-family:Times;font-weight:normal;font-style:normal;font-size:10px">25000.00</text>
<text x="19.055" y="-236.41" transform="scale(1, -1)"
	style="font-family:Times;font-weight:normal;font-style:normal;font-size:10px">100000.00</text>
<text x="19.055" y="-382.25" transform="scale(1, -1)"
	style="font-family:Times;font-weight:normal;font-style:normal;font-size:10px">175000.00</text>
<path d="M64.055,93.765L72.055,93.765" style="fill:none;stroke:#000000;stroke-width:0.5" />
<path d="M64.055,239.61L72.055,239.61" style="fill:none;stroke:#000000;stroke-width:0.5" />
<path d="M64.055,385.46L72.055,385.46" style="fill:none;stroke:#000000;stroke-width:0.5" />
<path d="M68.055,166.69L72.055,166.69" style="fill:none;stroke:#000000;stroke-width:0.5" />
<path d="M68.055,312.54L72.055,312.54" style="fill:none;stroke:#000000;stroke-width:0.5" />
<path d="M72.055,45.151L72.055,416.58" style="fill:none;stroke:#000000;stroke-width:0.5" />
<path d="M77.805,416.58L110.89,52.973L112.4,55.882L116.91,55.596L118.41,66.538L119.92,70.694L121.42,52.457L122.92,52.498L124.43,83.122L125.93,59.808L127.44,72.892L128.94,71.68L130.44,71.299L131.95,53.155L133.45,56.518L134.96,52.455L136.46,73.555L137.96,74.072L139.47,52.5L140.97,60.337L142.48,52.564L143.98,71.11L145.48,53.338L146.99,64.034L150,45.381L151.5,73.032L153,49.585L154.51,53.572L156.01,45.511L157.52,87.307L159.02,69.883L160.52,47.924L162.03,58.752L163.53,64.059L165.03,56.368L166.54,57.996L168.04,49.918L169.55,73.809L171.05,65.731L172.55,69.936L174.06,50.933L175.56,51.748L177.07,53.467L178.57,61.48L180.07,53.099L181.58,52.004L183.08,53.008L184.59,62.251L186.09,54.221L187.59,61.321L189.1,56.582L190.6,54.521L192.11,53.929L193.61,73.712L195.11,51.734L196.62,54.56L198.12,58.77L199.63,62.424L201.13,53.834L202.63,54.011L204.14,58.079L205.64,56.07L207.15,55.044L208.65,54.717L210.15,58.247L211.66,56.862L213.16,55.851L214.67,54.379L216.17,55.281L217.67,58.318L219.18,55.398L220.68,55.58L222.19,54.822L223.69,55.31L225.19,54.983L226.7,53.402L228.2,54.886L229.71,53.181L231.21,56.251L232.71,55.143L234.22,53.15L235.72,54.379L237.23,54.528L238.73,56.193L240.23,53.682L241.74,52.325L243.24,54.696L244.75,53.894L246.25,54.795L247.75,51.82L249.26,53.587L250.76,54.264L252.27,54.719L253.77,53.733L255.27,51.654L256.78,52.492L258.28,53.628L259.79,52.642L261.29,51.46L262.79,52.212L264.3,52.179L265.8,51.355L267.3,51.901L268.81,51.065L270.31,51.061L271.82,50.476L273.32,52.875L274.82,50.882L276.33,50.68L277.83,51.193L279.34,52.601L280.84,50.882L282.34,50.524L283.85,50.478L285.35,51.538L286.86,50.554L288.36,50.723L289.86,50.048L291.37,50.452L292.87,50.291L294.38,50.548L295.88,49.511L297.38,49.83L298.89,49.997L300.39,49.853L301.9,49.385L303.4,49.791L304.9,49.84L306.41,49.348L307.91,49.151L309.42,49.188L310.92,49.126L312.42,49.272L313.93,48.801L315.43,49.111L316.94,48.597L318.44,48.778L319.94,48.873L321.45,48.387L322.95,48.531L324.46,48.518L325.96,48.508L327.46,48.296L328.97,48.197L330.47,48.214L331.98,48.216L333.48,48.329L334.98,47.845L336.49,47.738L337.99,47.932L339.5,47.979L341,47.759L342.5,47.687L344.01,47.615L345.51,47.635L347.02,47.563L348.52,47.411L350.02,47.296L351.53,47.29L353.03,47.419L354.54,47.318L356.04,47.088L357.54,47.084L359.05,47.189L360.55,47.051L362.06,46.962L363.56,46.917L365.06,46.97L366.57,47.003L368.07,46.884L369.57,46.787L371.08,46.723L372.58,46.839L374.09,46.818L375.59,46.625L377.09,46.559L378.6,46.59L380.1,46.627L381.61,46.495L383.11,46.419L384.61,46.445L386.12,46.361L387.62,46.394L389.13,46.398L390.63,46.246L392.13,46.277L393.64,46.295L395.14,46.27L396.65,46.231L398.15,46.18L399.65,46.147L401.16,46.149L402.66,45.976L404.17,46.048L405.67,46.083L407.17,46.065L408.68,45.968L410.18,45.986L411.69,45.935L413.19,45.931L414.69,45.966L416.2,45.883L417.7,45.853L419.21,45.811L420.71,45.778L422.21,45.785L423.72,45.737L425.22,45.762L426.73,45.723L428.23,45.739L429.73,45.735L431.24,45.694L432.74,45.663L434.25,45.673L435.75,45.636L437.25,45.661L438.76,45.676L440.26,45.639L441.77,45.638L443.27,45.558L444.77,45.509L446.28,45.616L447.78,45.581L449.29,45.534L450.79,45.544L452.29,45.542L453.8,45.521L455.3,45.521L456.81,45.509L458.31,45.48L459.81,45.486L461.32,45.476L462.82,45.466L464.33,45.426L465.83,45.428L467.33,45.451L468.84,45.398L470.34,45.414L471.84,45.406L473.35,45.426L474.85,45.383L476.36,45.394L477.86,45.361L479.36,45.344L480.87,45.363L482.37,45.381L483.88,45.35L485.38,45.365L486.88,45.328L488.39,45.309L489.89,45.313L491.4,45.321L492.9,45.346L494.4,45.33L495.91,45.324L497.41,45.26L498.92,45.287L500.42,45.262L501.92,45.272L503.43,45.251L504.93,45.278L506.44,45.27L507.94,45.262L509.44,45.268L510.95,45.268L512.45,45.251L513.96,45.258L515.46,45.212L516.96,45.245L518.47,45.258L519.97,45.251L521.48,45.235L522.98,45.235L524.48,45.223L525.99,45.206L527.49,45.214L529,45.225L530.5,45.221L532,45.202L533.51,45.214L535.01,45.217L536.52,45.223L538.02,45.208L539.52,45.208L541.03,45.2L542.53,45.194L544.04,45.188L545.54,45.184L547.04,45.206L548.55,45.179L550.05,45.196L551.56,45.184L553.06,45.184L554.56,45.19L556.07,45.181L557.57,45.173L559.08,45.177L560.58,45.188L562.08,45.175L563.59,45.188L565.09,45.175L566.6,45.194L568.1,45.169L569.6,45.173L571.11,45.186L572.61,45.171L574.11,45.181L575.62,45.165L577.12,45.181L578.63,45.159L580.13,45.167L581.63,45.175L583.14,45.167L584.64,45.161L586.15,45.169L587.65,45.169L589.15,45.165L590.66,45.169L592.16,45.167L593.67,45.165L595.17,45.163L596.67,45.159L598.18,45.167L599.68,45.169L601.19,45.163L602.69,45.157L604.19,45.159L605.7,45.163L607.2,45.159L608.71,45.161L610.21,45.161L611.71,45.163L613.22,45.161L614.72,45.157L616.23,45.157L617.73,45.157L619.23,45.151L622.24,45.151L623.75,45.153L625.25,45.151L626.75,45.157L628.26,45.151L629.76,45.153L631.27,45.159L634.27,45.155L635.78,45.153L637.28,45.151L638.79,45.155L640.29,45.161L641.79,45.157L644.8,45.151L646.31,45.157L647.81,45.155L649.31,45.155L650.82,45.151L652.32,45.153L656.83,45.153L658.34,45.151L659.84,45.157L664.35,45.153L665.86,45.151L667.36,45.153L671.87,45.151L674.88,45.151L676.38,45.151L677.89,45.151L680.9,45.153L682.4,45.151L686.91,45.151L688.42,45.151L691.42,45.153L692.93,45.151L694.43,45.151L697.44,45.151L698.94,45.151L704.96,45.151L713.98,45.153L720,45.151" style="fill:none;stroke:#0000FF" />
</g>
</svg>
