<?xml version="1.0"?>
<!-- Generated by SVGo and Plotinum VG -->
<svg width="720pt" height="432pt" viewBox="0 0 720 432"
	xmlns="http://www.w3.org/2000/svg"
	xmlns:xlink="http://www.w3.org/1999/xlink">
<g transform="scale(1, -1) translate(0, -432)">
<path d="M0,0L720,0L720,432L0,432Z" style="fill:#FFFFFF" />
<text x="358.5" y="-420.45" transform="scale(1, -1)"
	style="font-family:Times;font-weight:normal;font-style:normal;font-size:12px"> </text>
<text x="376.81" y="-3.8613" transform="scale(1, -1)"
	style="font-family:Times;font-weight:normal;font-style:normal;font-size:12px">Costs</text>
<text x="51.555" y="-18.634" transform="scale(1, -1)"
	style="font-family:Times;font-weight:normal;font-style:normal;font-size:10px">0.00</text>
<text x="334.88" y="-18.634" transform="scale(1, -1)"
	style="font-family:Times;font-weight:normal;font-style:normal;font-size:10px">250.00</text>
<text x="623.21" y="-18.634" transform="scale(1, -1)"
	style="font-family:Times;font-weight:normal;font-style:normal;font-size:10px">500.00</text>
<path d="M60.305,28.263L60.305,36.263" style="fill:none;stroke:#000000;stroke-width:0.5" />
<path d="M348.63,28.263L348.63,36.263" style="fill:none;stroke:#000000;stroke-width:0.5" />
<path d="M636.96,28.263L636.96,36.263" style="fill:none;stroke:#000000;stroke-width:0.5" />
<path d="M117.97,32.263L117.97,36.263" style="fill:none;stroke:#000000;stroke-width:0.5" />
<path d="M175.64,32.263L175.64,36.263" style="fill:none;stroke:#000000;stroke-width:0.5" />
<path d="M233.3,32.263L233.3,36.263" style="fill:none;stroke:#000000;stroke-width:0.5" />
<path d="M290.97,32.263L290.97,36.263" style="fill:none;stroke:#000000;stroke-width:0.5" />
<path d="M406.3,32.263L406.3,36.263" style="fill:none;stroke:#000000;stroke-width:0.5" />
<path d="M463.96,32.263L463.96,36.263" style="fill:none;stroke:#000000;stroke-width:0.5" />
<path d="M521.63,32.263L521.63,36.263" style="fill:none;stroke:#000000;stroke-width:0.5" />
<path d="M579.3,32.263L579.3,36.263" style="fill:none;stroke:#000000;stroke-width:0.5" />
<path d="M694.63,32.263L694.63,36.263" style="fill:none;stroke:#000000;stroke-width:0.5" />
<path d="M60.305,36.263L720,36.263" style="fill:none;stroke:#000000;stroke-width:0.5" />
<g transform="rotate(90)">
<text x="152.55" y="11.555" transform="scale(1, -1)"
	style="font-family:Times;font-weight:normal;font-style:normal;font-size:12px">Number of trials (1000000 total)</text>
</g>
<text x="24.055" y="-80.561" transform="scale(1, -1)"
	style="font-family:Times;font-weight:normal;font-style:normal;font-size:10px">5000</text>
<text x="19.055" y="-235.05" transform="scale(1, -1)"
	style="font-family:Times;font-weight:normal;font-style:normal;font-size:10px">25000</text>
<text x="19.055" y="-389.54" transform="scale(1, -1)"
	style="font-family:Times;font-weight:normal;font-style:normal;font-size:10px">45000</text>
<path d="M46.555,83.766L54.555,83.766" style="fill:none;stroke:#000000;stroke-width:0.5" />
<path d="M46.555,238.26L54.555,238.26" style="fill:none;stroke:#000000;stroke-width:0.5" />
<path d="M46.555,392.75L54.555,392.75" style="fill:none;stroke:#000000;stroke-width:0.5" />
<path d="M50.555,161.01L54.555,161.01" style="fill:none;stroke:#000000;stroke-width:0.5" />
<path d="M50.555,315.5L54.555,315.5" style="fill:none;stroke:#000000;stroke-width:0.5" />
<path d="M54.555,45.151L54.555,416.58" style="fill:none;stroke:#000000;stroke-width:0.5" />
<path d="M60.305,416.58L85.678,63.922L86.831,63.899L87.984,48.697L90.291,69.545L91.444,71.855L92.597,89.699L93.751,79.842L96.057,65.559L97.211,87.095L98.364,85.079L99.517,115.28L100.67,99.686L101.82,48.627L102.98,74.674L104.13,79.989L105.28,108.82L106.44,87.567L107.59,129.26L108.74,110.37L109.9,100.71L111.05,79.641L112.2,82.013L113.36,64.37L114.51,45.267L115.66,46.364L116.82,61.751L117.97,77.146L119.12,52.482L120.28,47.623L121.43,129.53L122.58,54.737L123.74,57.881L124.89,83.859L126.04,76.652L127.2,53.193L128.35,92.348L129.5,64.617L130.66,99.501L131.81,77.919L132.96,96.241L134.12,65.598L135.27,70.75L136.42,75.764L137.58,85.018L138.73,80.985L139.88,80.985L141.04,79.657L142.19,83.31L143.34,85.543L144.5,96.566L145.65,105.17L146.8,90.927L147.96,93.962L149.11,85.249L150.26,84.569L151.42,90.687L152.57,88.988L153.72,113.36L154.88,92.626L156.03,88.934L157.18,94.951L158.34,93.314L159.49,84.191L160.64,89.675L161.8,86.269L162.95,77.726L164.1,82.237L165.26,85.574L166.41,84.206L167.56,82.167L168.72,93.901L169.87,92.958L171.02,90.038L172.18,85.133L173.33,90.363L174.48,83.627L175.64,87.458L176.79,86.57L177.94,92.796L179.1,91.243L180.25,87.443L181.4,83.982L182.56,90.255L183.71,84.075L184.86,85.867L186.02,88.733L187.17,84.685L188.32,80.445L189.48,91.321L190.63,88.293L191.78,92.804L192.94,93.337L194.09,94.812L195.24,86.84L196.4,88.254L197.55,87.829L198.7,90.726L199.86,84.299L201.01,90.278L202.16,87.211L203.32,90.015L204.47,84.739L205.62,87.876L206.78,86.663L207.93,83.952L209.08,84.114L210.24,85.164L211.39,83.689L212.54,83.388L213.7,84.685L214.85,87.814L216,85.288L217.16,84.747L218.31,86.385L219.46,83.774L220.62,80.908L221.77,82.824L222.92,82.044L224.08,82.414L225.23,83.048L226.38,82.94L227.54,79.881L228.69,80.754L229.84,81.565L231,80.715L232.15,79.634L233.3,79.448L234.46,80.151L235.61,79.827L236.76,79.981L237.91,80.282L239.07,80.939L240.22,78.676L241.37,79.039L242.53,79.023L243.68,78.699L244.83,77.223L245.99,77.888L247.14,76.66L248.29,75.949L249.45,74.852L250.6,77.339L251.75,74.96L252.91,75.115L254.06,74.474L255.21,75.516L256.37,74.582L257.52,72.318L258.67,72.821L259.83,73.879L260.98,72.226L262.13,73.902L263.29,73.747L264.44,72.836L265.59,71.028L266.75,71.585L267.9,70.897L269.05,71.245L270.21,70.441L271.36,70.642L272.51,69.569L273.67,69.939L274.82,69.043L275.97,69.422L277.13,68.34L278.28,68.904L279.43,68.17L280.59,68.139L281.74,66.672L282.89,67.305L284.05,66.741L285.2,67.576L286.35,66.672L287.51,66.989L288.66,66.116L289.81,65.598L290.97,65.111L292.12,65.482L293.27,64.331L294.43,64.586L295.58,64.107L296.73,63.783L297.89,63.428L299.04,63.412L300.19,63.08L301.35,62.524L302.5,62.199L303.65,62.292L304.81,61.566L305.96,62.277L307.11,61.975L308.27,60.894L309.42,60.469L310.57,60.948L311.73,60.4L312.88,60.268L314.03,59.349L315.19,59.689L316.34,59.959L317.49,59.364L318.65,59.279L319.8,58.754L320.95,58.522L322.11,58.26L323.26,57.565L324.41,57.75L325.57,57.557L326.72,57.279L327.87,57.541L329.03,56.862L330.18,56.537L331.33,56.483L332.49,56.251L333.64,55.749L334.79,55.742L335.95,55.734L337.1,55.657L338.25,55.301L339.41,55.016L340.56,55.433L341.71,54.629L342.87,54.436L344.02,54.498L345.17,54.529L346.33,53.903L347.48,53.772L348.63,53.934L349.79,53.54L350.94,53.525L352.09,53.594L353.25,52.984L354.4,53.162L355.55,52.914L356.71,52.914L357.86,52.397L359.01,53.054L360.17,52.636L361.32,51.964L362.47,51.957L363.63,52.235L364.78,51.586L365.93,51.903L367.09,51.563L368.24,51.354L369.39,51.308L370.55,51.099L371.7,50.759L372.85,51.053L374.01,50.566L375.16,50.443L376.31,50.721L377.47,50.466L378.62,50.265L379.77,50.08L380.93,50.033L382.08,49.925L383.23,50.041L384.39,49.709L385.54,49.608L386.69,49.214L387.85,49.747L389,49.446L390.15,48.774L391.31,49.052L392.46,49.037L393.61,48.828L394.77,48.929L395.92,49.014L397.07,48.766L398.23,48.766L399.38,48.689L400.53,48.627L401.69,48.496L402.84,48.241L403.99,48.172L405.15,48.233L406.3,47.971L407.45,48.079L408.61,48.357L409.76,47.832L410.91,47.693L412.07,47.731L413.22,47.662L414.37,47.546L415.53,47.592L416.68,47.422L417.83,47.639L418.99,47.453L420.14,47.384L421.29,47.399L422.45,47.531L423.6,47.167L424.75,47.222L425.91,47.252L427.06,47.106L428.21,46.781L429.37,46.99L430.52,47.129L431.67,46.843L432.82,46.758L433.98,46.781L435.13,46.58L436.28,46.704L437.44,46.565L438.59,46.712L439.74,46.58L440.9,46.696L442.05,46.627L443.2,46.472L444.36,46.534L445.51,46.287L446.66,46.325L447.82,46.248L448.97,46.41L450.12,46.31L451.28,46.256L452.43,46.186L453.58,46.318L454.74,46.132L455.89,46.04L457.04,46.125L458.2,46.14L459.35,46.148L460.5,46.071L461.66,45.986L462.81,46.063L463.96,46.078L465.12,45.916L466.27,45.793L467.42,45.816L468.58,45.831L469.73,45.932L470.88,45.8L472.04,45.916L473.19,45.769L474.34,45.793L475.5,45.653L476.65,45.769L477.8,45.623L478.96,45.677L480.11,45.754L481.26,45.638L482.42,45.653L483.57,45.653L484.72,45.623L485.88,45.607L487.03,45.63L488.18,45.545L489.34,45.592L490.49,45.653L491.64,45.607L492.8,45.476L493.95,45.514L495.1,45.499L496.26,45.53L497.41,45.514L498.56,45.453L499.72,45.538L500.87,45.476L502.02,45.468L503.18,45.53L504.33,45.437L505.48,45.375L506.64,45.445L507.79,45.391L508.94,45.36L510.1,45.352L511.25,45.306L512.4,45.352L513.56,45.375L514.71,45.306L515.86,45.298L517.02,45.406L518.17,45.391L519.32,45.314L520.48,45.406L521.63,45.329L522.78,45.344L523.94,45.275L525.09,45.283L526.24,45.306L527.4,45.337L528.55,45.283L529.7,45.252L530.86,45.29L532.01,45.344L533.16,45.29L534.32,45.275L535.47,45.337L536.62,45.275L537.78,45.298L538.93,45.337L540.08,45.298L541.24,45.267L542.39,45.321L543.54,45.26L544.7,45.198L545.85,45.244L547,45.244L548.16,45.29L549.31,45.205L550.46,45.236L551.62,45.236L552.77,45.205L553.92,45.252L555.08,45.221L556.23,45.19L557.38,45.213L558.54,45.26L559.69,45.175L560.84,45.213L562,45.182L563.15,45.19L564.3,45.275L565.46,45.205L566.61,45.213L567.76,45.19L568.92,45.159L570.07,45.221L571.22,45.213L572.38,45.19L573.53,45.159L574.68,45.167L575.84,45.198L576.99,45.151L578.14,45.182L579.3,45.205L580.45,45.205L581.6,45.19L582.76,45.205L583.91,45.175L585.06,45.175L586.22,45.175L587.37,45.167L588.52,45.167L589.68,45.182L590.83,45.167L591.98,45.167L593.14,45.167L595.44,45.167L596.6,45.167L597.75,45.159L598.9,45.182L600.06,45.167L601.21,45.167L602.36,45.167L603.52,45.151L604.67,45.159L605.82,45.167L606.98,45.159L608.13,45.159L609.28,45.167L610.44,45.151L611.59,45.175L612.74,45.151L613.9,45.167L615.05,45.182L616.2,45.151L619.66,45.159L620.82,45.159L623.12,45.175L624.27,45.151L627.73,45.159L628.89,45.167L631.19,45.151L632.35,45.151L633.5,45.159L634.65,45.151L638.11,45.151L639.27,45.151L642.73,45.159L643.88,45.151L649.65,45.151L653.11,45.151L655.41,45.151L656.57,45.159L660.03,45.151L661.18,45.151L664.64,45.151L665.79,45.159L668.1,45.151L673.87,45.159L677.33,45.151L688.86,45.151L710.77,45.151L716.54,45.151L720,45.151" style="fill:none;stroke:#0000FF" />
</g>
</svg>
