<?xml version="1.0"?>
<!-- Generated by SVGo and Plotinum VG -->
<svg width="720pt" height="432pt" viewBox="0 0 720 432"
	xmlns="http://www.w3.org/2000/svg"
	xmlns:xlink="http://www.w3.org/1999/xlink">
<g transform="scale(1, -1) translate(0, -432)">
<path d="M0,0L720,0L720,432L0,432Z" style="fill:#FFFFFF" />
<text x="358.5" y="-420.45" transform="scale(1, -1)"
	style="font-family:Times;font-weight:normal;font-style:normal;font-size:12px"> </text>
<text x="383.06" y="-3.8613" transform="scale(1, -1)"
	style="font-family:Times;font-weight:normal;font-style:normal;font-size:12px">Costs</text>
<text x="70.305" y="-18.634" transform="scale(1, -1)"
	style="font-family:Times;font-weight:normal;font-style:normal;font-size:10px">0</text>
<text x="373.98" y="-18.634" transform="scale(1, -1)"
	style="font-family:Times;font-weight:normal;font-style:normal;font-size:10px">300</text>
<text x="682.66" y="-18.634" transform="scale(1, -1)"
	style="font-family:Times;font-weight:normal;font-style:normal;font-size:10px">600</text>
<path d="M72.805,28.263L72.805,36.263" style="fill:none;stroke:#000000;stroke-width:0.5" />
<path d="M381.48,28.263L381.48,36.263" style="fill:none;stroke:#000000;stroke-width:0.5" />
<path d="M690.16,28.263L690.16,36.263" style="fill:none;stroke:#000000;stroke-width:0.5" />
<path d="M175.7,32.263L175.7,36.263" style="fill:none;stroke:#000000;stroke-width:0.5" />
<path d="M278.59,32.263L278.59,36.263" style="fill:none;stroke:#000000;stroke-width:0.5" />
<path d="M484.38,32.263L484.38,36.263" style="fill:none;stroke:#000000;stroke-width:0.5" />
<path d="M587.27,32.263L587.27,36.263" style="fill:none;stroke:#000000;stroke-width:0.5" />
<path d="M72.805,36.263L720,36.263" style="fill:none;stroke:#000000;stroke-width:0.5" />
<g transform="rotate(90)">
<text x="152.55" y="11.555" transform="scale(1, -1)"
	style="font-family:Times;font-weight:normal;font-style:normal;font-size:12px">Number of trials (1000000 total)</text>
</g>
<text x="24.055" y="-81.523" transform="scale(1, -1)"
	style="font-family:Times;font-weight:normal;font-style:normal;font-size:10px">2500.00</text>
<text x="19.055" y="-239.9" transform="scale(1, -1)"
	style="font-family:Times;font-weight:normal;font-style:normal;font-size:10px">12500.00</text>
<text x="19.055" y="-398.27" transform="scale(1, -1)"
	style="font-family:Times;font-weight:normal;font-style:normal;font-size:10px">22500.00</text>
<path d="M59.055,84.729L67.055,84.729" style="fill:none;stroke:#000000;stroke-width:0.5" />
<path d="M59.055,243.1L67.055,243.1" style="fill:none;stroke:#000000;stroke-width:0.5" />
<path d="M59.055,401.48L67.055,401.48" style="fill:none;stroke:#000000;stroke-width:0.5" />
<path d="M63.055,163.92L67.055,163.92" style="fill:none;stroke:#000000;stroke-width:0.5" />
<path d="M63.055,322.29L67.055,322.29" style="fill:none;stroke:#000000;stroke-width:0.5" />
<path d="M67.055,45.151L67.055,416.58" style="fill:none;stroke:#000000;stroke-width:0.5" />
<path d="M72.805,416.58L95.441,54.78L96.47,51.946L97.499,171.23L104.7,59.294L105.73,65.455L107.79,198.11L109.85,73.674L111.9,48.62L112.93,168.4L113.96,274.1L114.99,80.358L116.02,52.246L117.05,159.88L118.08,103.31L119.11,48.683L120.14,66.579L121.16,47.099L122.19,52.373L123.22,161.68L124.25,63.618L125.28,160.95L127.34,190.87L128.37,62.604L129.4,50.869L130.42,57.14L131.45,48.113L132.48,210.3L133.51,59.928L134.54,62.034L135.57,55.937L136.6,57.885L137.63,91.016L138.66,120.52L139.68,66.785L140.71,59.532L141.74,92.109L142.77,73.484L143.8,46.751L144.83,69.573L145.86,63.713L146.89,65.265L147.92,142.36L148.95,160.42L149.97,119.67L151,71.806L152.03,182.35L153.06,81.118L154.09,127.89L155.12,124.45L156.15,94.437L157.18,133.51L158.21,188.1L159.23,109.32L160.26,128.53L161.29,64.014L162.32,137.85L163.35,97.129L164.38,142.11L165.41,115.14L166.44,123.25L167.47,185.5L168.49,170.61L169.52,124.81L170.55,83.794L171.58,102.4L172.61,138.64L173.64,158.21L174.67,97.288L175.7,101.63L176.73,126.68L177.76,126.73L178.78,92.489L179.81,127.6L180.84,79.582L181.87,87.184L182.9,141.49L183.93,93.661L184.96,119.24L185.99,74.862L187.02,151.2L188.04,88.197L189.07,128.82L190.1,116.1L191.13,109.42L192.16,137.53L193.19,161.18L194.22,111.49L195.25,103.81L196.28,115.37L197.3,118.13L198.33,118.6L199.36,141.89L200.39,124.05L201.42,128.06L202.45,142.08L203.48,131.84L204.51,143.8L205.54,107.31L206.57,135.88L207.59,134.77L208.62,160.75L209.65,145.42L210.68,132.84L211.71,144.77L212.74,138.75L213.77,125.87L214.8,133.78L215.83,105.86L216.85,123.28L217.88,146.91L218.91,121.99L219.94,127.77L220.97,116.47L222,122.29L223.03,110.08L224.06,133.59L225.09,115.07L226.11,109.86L227.14,128.66L228.17,136.83L229.2,115.48L230.23,114.44L231.26,122.79L232.29,111.41L233.32,120.62L234.35,121.09L235.38,116.75L236.4,108.31L237.43,127.44L238.46,105.14L239.49,123.47L240.52,105.67L241.55,121.74L242.58,113.79L243.61,127.62L244.64,123.25L245.66,121.14L246.69,119.37L247.72,122.44L248.75,122.07L249.78,116.96L250.81,117.75L251.84,123.77L252.87,126.65L253.9,118.75L254.92,115.64L255.95,116.78L256.98,111.07L258.01,107.09L259.04,123.04L260.07,110.73L261.1,111.73L262.13,118.67L263.16,114.34L264.19,113.03L265.21,108.75L266.24,112.43L267.27,100.9L268.3,111.41L269.33,108.96L270.36,107.96L271.39,105.21L272.42,111.72L273.45,98.27L274.47,102.88L275.5,99.394L276.53,101.26L277.56,96.401L278.59,104.72L279.62,100.41L280.65,100.72L281.68,99.521L282.71,99.98L283.73,102.01L284.76,99.347L285.79,98.729L286.82,97.161L287.85,101.42L288.88,99.394L289.91,98.096L290.94,95.609L291.97,95.181L293,95.261L294.02,95.593L295.05,93.249L296.08,95.736L297.11,96.401L298.14,91.175L299.17,93.439L300.2,94.659L301.23,93.424L302.26,88.815L303.28,93.946L304.31,89.512L305.34,90.652L306.37,91.238L307.4,90.129L308.43,85.822L309.46,87.643L310.49,84.618L311.52,84.792L312.54,84.856L313.57,86.012L314.6,83.541L315.63,83.018L316.66,83.478L317.69,81.466L318.72,81.672L319.75,80.389L320.78,82.797L321.81,79.613L322.83,81.134L323.86,78.885L324.89,80.88L325.92,78.172L326.95,79.74L327.98,78.236L329.01,79.328L330.04,77.364L331.07,77.459L332.09,75.717L333.12,75.797L334.15,74.387L335.18,75.955L336.21,73.643L337.24,72.978L338.27,73.722L339.3,71.98L340.33,72.138L341.35,73.025L342.38,72.154L343.41,70.903L344.44,72.502L345.47,70.903L346.5,70.333L347.53,72.518L348.56,69.905L349.59,68.892L350.62,68.147L351.64,68.527L352.67,67.244L353.7,67.213L354.73,65.708L355.76,65.708L356.79,65.265L357.82,66.579L358.85,65.154L359.88,65.597L360.9,64.853L361.93,64.425L362.96,64.505L363.99,63.095L365.02,63.887L366.05,63.301L367.08,62.398L368.11,61.812L369.14,61.986L370.16,61.67L371.19,60.64L372.22,61.891L373.25,60.118L374.28,60.767L375.31,61.29L376.34,61.654L377.37,59.532L378.4,60.355L379.43,59.183L380.45,59.072L381.48,58.629L382.51,58.898L383.54,58.756L384.57,59.041L385.6,58.787L386.63,58.043L387.66,57.679L388.69,56.728L389.71,57.489L390.74,56.95L391.77,56.079L392.8,56.697L393.83,56.111L394.86,55.952L395.89,55.556L396.92,55.066L397.95,54.511L398.97,54.4L400,54.511L401.03,54.495L402.06,54.638L403.09,53.624L404.12,54.59L405.15,53.688L406.18,54.084L407.21,53.767L408.24,53.244L409.26,52.674L410.29,53.45L411.32,52.547L412.35,52.642L413.38,52.848L414.41,52.104L415.44,52.817L416.47,52.278L417.5,51.977L418.52,51.724L419.55,51.914L420.58,51.043L421.61,51.344L422.64,50.948L423.67,51.011L424.7,51.661L425.73,51.043L426.76,50.219L427.78,50.726L428.81,50.172L429.84,50.378L430.87,49.934L431.9,50.615L432.93,49.839L433.96,50.156L434.99,49.459L436.02,49.522L437.04,49.507L438.07,49.269L439.1,49.507L440.13,49.253L441.16,49.174L442.19,49L443.22,49.301L444.25,49.364L445.28,48.746L446.31,48.762L447.33,48.16L448.36,48.826L449.39,48.556L450.42,48.414L451.45,48.303L452.48,48.303L453.51,48.065L454.54,48.081L455.57,48.224L456.59,47.717L457.62,47.939L458.65,47.749L459.68,47.923L460.71,47.638L461.74,47.543L462.77,47.907L463.8,47.084L464.83,47.59L465.85,47.622L466.88,47.242L467.91,47.21L468.94,47.194L469.97,46.878L471,47.448L472.03,47.052L473.06,47.258L474.09,47.179L475.12,47.099L476.14,46.988L477.17,46.719L478.2,46.783L479.23,46.767L480.26,46.719L481.29,46.783L482.32,46.957L483.35,46.672L484.38,46.624L485.4,46.608L486.43,46.434L487.46,46.529L488.49,46.545L489.52,46.212L490.55,46.45L491.58,46.339L492.61,46.307L493.64,46.307L494.66,46.181L495.69,46.149L496.72,45.848L497.75,46.212L498.78,46.102L499.81,46.038L500.84,45.959L501.87,46.102L502.9,45.88L503.93,46.102L504.95,45.912L505.98,46.102L507.01,45.848L508.04,45.722L509.07,46.133L510.1,45.975L511.13,46.022L512.16,45.88L513.19,45.753L514.21,45.88L515.24,45.896L516.27,45.817L517.3,45.832L518.33,45.769L519.36,45.737L520.39,45.706L521.42,45.706L522.45,45.642L523.47,45.658L524.5,45.611L525.53,45.595L526.56,45.706L527.59,45.547L528.62,45.706L529.65,45.69L530.68,45.563L531.71,45.5L532.74,45.405L533.76,45.468L534.79,45.452L535.82,45.626L536.85,45.516L537.88,45.531L538.91,45.405L539.94,45.389L540.97,45.373L542,45.405L543.02,45.357L544.05,45.547L545.08,45.341L546.11,45.436L547.14,45.326L548.17,45.421L549.2,45.31L550.23,45.326L551.26,45.326L552.28,45.436L553.31,45.31L554.34,45.341L555.37,45.389L556.4,45.373L557.43,45.357L558.46,45.357L559.49,45.326L560.52,45.278L561.55,45.468L562.57,45.278L563.6,45.294L564.63,45.341L565.66,45.326L566.69,45.278L567.72,45.231L568.75,45.231L569.78,45.262L570.81,45.405L571.83,45.231L572.86,45.294L573.89,45.183L574.92,45.215L575.95,45.183L576.98,45.231L578.01,45.231L579.04,45.231L580.07,45.183L581.09,45.199L582.12,45.199L583.15,45.278L584.18,45.199L585.21,45.262L586.24,45.167L587.27,45.215L588.3,45.183L589.33,45.246L590.36,45.215L591.38,45.231L592.41,45.183L593.44,45.215L594.47,45.151L595.5,45.183L596.53,45.167L597.56,45.199L598.59,45.246L600.64,45.151L601.67,45.183L602.7,45.246L603.73,45.167L604.76,45.183L605.79,45.151L606.82,45.183L607.85,45.199L609.9,45.167L610.93,45.151L611.96,45.167L612.99,45.183L614.02,45.167L615.05,45.167L617.11,45.167L618.14,45.215L619.17,45.183L620.19,45.151L621.22,45.151L622.25,45.183L624.31,45.151L625.34,45.183L626.37,45.151L627.4,45.167L628.43,45.151L629.45,45.151L631.51,45.167L632.54,45.151L633.57,45.151L634.6,45.151L635.63,45.183L637.69,45.151L639.74,45.151L640.77,45.183L642.83,45.167L643.86,45.151L645.92,45.151L646.95,45.167L649,45.167L650.03,45.151L654.15,45.167L656.21,45.151L660.32,45.151L663.41,45.151L665.47,45.151L670.61,45.167L678.84,45.151L683.99,45.151L711.77,45.151L718.97,45.151L720,45.151" style="fill:none;stroke:#0000FF" />
</g>
</svg>
