<?xml version="1.0"?>
<!-- Generated by SVGo and Plotinum VG -->
<svg width="720pt" height="432pt" viewBox="0 0 720 432"
	xmlns="http://www.w3.org/2000/svg"
	xmlns:xlink="http://www.w3.org/1999/xlink">
<g transform="scale(1, -1) translate(0, -432)">
<path d="M0,0L720,0L720,432L0,432Z" style="fill:#FFFFFF" />
<text x="358.5" y="-420.45" transform="scale(1, -1)"
	style="font-family:Times;font-weight:normal;font-style:normal;font-size:12px"> </text>
<text x="379.31" y="-3.8613" transform="scale(1, -1)"
	style="font-family:Times;font-weight:normal;font-style:normal;font-size:12px">Costs</text>
<text x="62.805" y="-18.634" transform="scale(1, -1)"
	style="font-family:Times;font-weight:normal;font-style:normal;font-size:10px">0</text>
<text x="223.13" y="-18.634" transform="scale(1, -1)"
	style="font-family:Times;font-weight:normal;font-style:normal;font-size:10px">100</text>
<text x="388.46" y="-18.634" transform="scale(1, -1)"
	style="font-family:Times;font-weight:normal;font-style:normal;font-size:10px">200</text>
<text x="553.79" y="-18.634" transform="scale(1, -1)"
	style="font-family:Times;font-weight:normal;font-style:normal;font-size:10px">300</text>
<path d="M65.305,28.263L65.305,36.263" style="fill:none;stroke:#000000;stroke-width:0.5" />
<path d="M230.63,28.263L230.63,36.263" style="fill:none;stroke:#000000;stroke-width:0.5" />
<path d="M395.96,28.263L395.96,36.263" style="fill:none;stroke:#000000;stroke-width:0.5" />
<path d="M561.29,28.263L561.29,36.263" style="fill:none;stroke:#000000;stroke-width:0.5" />
<path d="M98.37,32.263L98.37,36.263" style="fill:none;stroke:#000000;stroke-width:0.5" />
<path d="M131.44,32.263L131.44,36.263" style="fill:none;stroke:#000000;stroke-width:0.5" />
<path d="M164.5,32.263L164.5,36.263" style="fill:none;stroke:#000000;stroke-width:0.5" />
<path d="M197.57,32.263L197.57,36.263" style="fill:none;stroke:#000000;stroke-width:0.5" />
<path d="M263.7,32.263L263.7,36.263" style="fill:none;stroke:#000000;stroke-width:0.5" />
<path d="M296.76,32.263L296.76,36.263" style="fill:none;stroke:#000000;stroke-width:0.5" />
<path d="M329.83,32.263L329.83,36.263" style="fill:none;stroke:#000000;stroke-width:0.5" />
<path d="M362.89,32.263L362.89,36.263" style="fill:none;stroke:#000000;stroke-width:0.5" />
<path d="M429.02,32.263L429.02,36.263" style="fill:none;stroke:#000000;stroke-width:0.5" />
<path d="M462.09,32.263L462.09,36.263" style="fill:none;stroke:#000000;stroke-width:0.5" />
<path d="M495.16,32.263L495.16,36.263" style="fill:none;stroke:#000000;stroke-width:0.5" />
<path d="M528.22,32.263L528.22,36.263" style="fill:none;stroke:#000000;stroke-width:0.5" />
<path d="M594.35,32.263L594.35,36.263" style="fill:none;stroke:#000000;stroke-width:0.5" />
<path d="M627.42,32.263L627.42,36.263" style="fill:none;stroke:#000000;stroke-width:0.5" />
<path d="M660.48,32.263L660.48,36.263" style="fill:none;stroke:#000000;stroke-width:0.5" />
<path d="M693.55,32.263L693.55,36.263" style="fill:none;stroke:#000000;stroke-width:0.5" />
<path d="M65.305,36.263L720,36.263" style="fill:none;stroke:#000000;stroke-width:0.5" />
<g transform="rotate(90)">
<text x="152.55" y="11.555" transform="scale(1, -1)"
	style="font-family:Times;font-weight:normal;font-style:normal;font-size:12px">Number of trials (1000000 total)</text>
</g>
<text x="24.055" y="-90.906" transform="scale(1, -1)"
	style="font-family:Times;font-weight:normal;font-style:normal;font-size:10px">40000</text>
<text x="19.055" y="-237.79" transform="scale(1, -1)"
	style="font-family:Times;font-weight:normal;font-style:normal;font-size:10px">160000</text>
<text x="19.055" y="-384.67" transform="scale(1, -1)"
	style="font-family:Times;font-weight:normal;font-style:normal;font-size:10px">280000</text>
<path d="M51.555,94.111L59.555,94.111" style="fill:none;stroke:#000000;stroke-width:0.5" />
<path d="M51.555,240.99L59.555,240.99" style="fill:none;stroke:#000000;stroke-width:0.5" />
<path d="M51.555,387.88L59.555,387.88" style="fill:none;stroke:#000000;stroke-width:0.5" />
<path d="M55.555,167.55L59.555,167.55" style="fill:none;stroke:#000000;stroke-width:0.5" />
<path d="M55.555,314.44L59.555,314.44" style="fill:none;stroke:#000000;stroke-width:0.5" />
<path d="M59.555,45.151L59.555,416.58" style="fill:none;stroke:#000000;stroke-width:0.5" />
<path d="M65.305,416.58L108.29,70.774L109.94,63.824L111.6,62.744L116.56,62.905L118.21,55.6L121.52,62.457L123.17,70.518L124.82,70.506L126.48,48.577L131.44,100.56L133.09,52.421L138.05,49.008L141.36,59.173L146.31,59.154L147.97,48.547L149.62,63.949L152.93,74.335L154.58,68.418L156.23,46.044L157.89,55.745L159.54,49.688L161.19,65.468L162.85,53.286L164.5,64.704L166.15,58.076L167.81,49.03L169.46,51.782L171.11,46.528L172.77,46.171L174.42,50.708L176.07,50.362L177.73,49.203L179.38,46.848L181.03,46.601L182.69,49.958L184.34,48.511L185.99,50.145L187.65,66.911L189.3,50.333L190.95,50.628L192.61,59.414L194.26,46.688L195.91,48.16L197.57,54.515L199.22,71.571L200.87,48.8L202.53,47.074L204.18,50.209L205.83,50.522L207.49,52.073L209.14,50.609L210.79,50.327L212.45,52.814L214.1,49.439L215.75,50.505L217.41,48.39L219.06,52.085L220.71,52.459L222.37,48.943L224.02,49.034L225.67,48.41L227.33,49.003L228.98,48.576L230.63,51.461L232.29,48.822L233.94,48.724L235.59,48.407L237.24,48.749L238.9,48.703L240.55,47.985L242.2,51.125L243.86,49.635L245.51,51.059L247.16,48.918L248.82,49.48L250.47,50.12L252.12,49.59L253.78,51.628L255.43,48.81L257.08,48.855L258.74,50.2L260.39,47.661L262.04,47.427L263.7,48.187L265.35,50.771L267,47.347L268.66,47.548L270.31,46.931L271.96,47.532L273.62,47.266L275.27,49.098L276.92,48.169L278.58,46.821L280.23,48.565L281.88,47.699L283.54,48.287L285.19,47.614L286.84,49.598L288.5,49.297L290.15,46.878L291.8,47.741L293.46,47.105L295.11,47.826L296.76,47.547L298.42,47.652L300.07,47.342L301.72,46.714L303.38,46.899L305.03,46.679L306.68,46.489L308.34,47.067L309.99,46.736L311.64,46.86L313.3,46.629L314.95,46.957L316.6,46.451L318.26,46.623L319.91,46.932L321.56,47.465L323.21,46.407L324.87,46.527L326.52,46.99L328.17,46.254L329.83,46.401L331.48,46.689L333.13,46.408L334.79,46.466L336.44,46.149L338.09,46.395L339.75,46.385L341.4,46.601L343.05,46.476L344.71,46.142L346.36,46.448L348.01,46.21L349.67,46.195L351.32,46.117L352.97,46.275L354.63,46.195L356.28,45.916L357.93,46.028L359.59,45.934L361.24,45.908L362.89,45.894L364.55,46.111L366.2,45.897L367.85,45.854L369.51,45.893L371.16,45.9L372.81,45.818L374.47,45.859L376.12,45.919L377.77,45.767L379.43,45.852L381.08,45.856L382.73,45.739L384.39,45.743L386.04,45.754L387.69,45.878L389.35,45.621L391,45.621L392.65,45.705L394.31,45.64L395.96,45.583L397.61,45.636L399.27,45.558L400.92,45.543L402.57,45.577L404.23,45.52L405.88,45.5L407.53,45.527L409.19,45.59L410.84,45.541L412.49,45.459L414.14,45.553L415.8,45.527L417.45,45.456L419.1,45.492L420.76,45.471L422.41,45.503L424.06,45.415L425.72,45.46L427.37,45.423L429.02,45.397L430.68,45.424L432.33,45.391L433.98,45.384L435.64,45.385L437.29,45.401L438.94,45.368L440.6,45.341L442.25,45.367L443.9,45.336L445.56,45.335L447.21,45.347L448.86,45.339L450.52,45.309L452.17,45.347L453.82,45.342L455.48,45.284L457.13,45.295L458.78,45.302L460.44,45.312L462.09,45.302L463.74,45.297L465.4,45.302L467.05,45.285L468.7,45.308L470.36,45.299L472.01,45.282L473.66,45.251L475.32,45.268L476.97,45.266L478.62,45.248L480.28,45.271L481.93,45.248L483.58,45.239L485.24,45.238L486.89,45.27L488.54,45.224L490.2,45.231L491.85,45.241L493.5,45.224L495.16,45.22L496.81,45.225L498.46,45.214L500.11,45.227L501.77,45.214L503.42,45.21L505.07,45.205L506.73,45.198L508.38,45.214L510.03,45.208L511.69,45.21L513.34,45.202L514.99,45.213L516.65,45.199L518.3,45.187L519.95,45.191L521.61,45.198L523.26,45.184L524.91,45.191L526.57,45.189L528.22,45.182L529.87,45.175L531.53,45.186L533.18,45.187L534.83,45.182L536.49,45.176L538.14,45.169L539.79,45.176L541.45,45.171L543.1,45.184L544.75,45.171L546.41,45.18L548.06,45.175L549.71,45.183L551.37,45.187L553.02,45.171L554.67,45.166L556.33,45.173L557.98,45.18L559.63,45.172L561.29,45.171L562.94,45.169L564.59,45.166L566.25,45.175L567.9,45.169L569.55,45.164L571.21,45.161L572.86,45.16L574.51,45.162L576.17,45.161L577.82,45.159L579.47,45.164L581.13,45.165L582.78,45.16L584.43,45.162L586.09,45.162L587.74,45.166L589.39,45.159L591.04,45.162L592.7,45.157L594.35,45.157L596,45.157L597.66,45.161L599.31,45.157L600.96,45.159L602.62,45.16L604.27,45.157L605.92,45.156L607.58,45.155L609.23,45.159L610.88,45.153L612.54,45.151L614.19,45.161L615.84,45.154L617.5,45.154L619.15,45.153L620.8,45.156L622.46,45.155L624.11,45.154L625.76,45.156L627.42,45.153L630.72,45.154L632.38,45.153L634.03,45.155L635.68,45.155L637.34,45.154L638.99,45.153L642.3,45.153L643.95,45.156L645.6,45.151L647.26,45.151L648.91,45.153L652.22,45.151L653.87,45.153L657.18,45.154L658.83,45.153L660.48,45.151L665.44,45.151L667.1,45.151L668.75,45.151L670.4,45.151L677.01,45.153L678.67,45.151L680.32,45.151L681.97,45.151L683.63,45.151L685.28,45.151L686.93,45.151L688.59,45.153L690.24,45.151L696.85,45.153L698.51,45.151L700.16,45.151L706.77,45.151L716.69,45.151L720,45.153" style="fill:none;stroke:#0000FF" />
</g>
</svg>
