<?xml version="1.0"?>
<!-- Generated by SVGo and Plotinum VG -->
<svg width="720pt" height="432pt" viewBox="0 0 720 432"
	xmlns="http://www.w3.org/2000/svg"
	xmlns:xlink="http://www.w3.org/1999/xlink">
<g transform="scale(1, -1) translate(0, -432)">
<path d="M0,0L720,0L720,432L0,432Z" style="fill:#FFFFFF" />
<text x="358.5" y="-420.45" transform="scale(1, -1)"
	style="font-family:Times;font-weight:normal;font-style:normal;font-size:12px"> </text>
<text x="379.31" y="-3.8613" transform="scale(1, -1)"
	style="font-family:Times;font-weight:normal;font-style:normal;font-size:12px">Costs</text>
<text x="56.555" y="-18.634" transform="scale(1, -1)"
	style="font-family:Times;font-weight:normal;font-style:normal;font-size:10px">0.00</text>
<text x="366.31" y="-18.634" transform="scale(1, -1)"
	style="font-family:Times;font-weight:normal;font-style:normal;font-size:10px">250.00</text>
<text x="681.07" y="-18.634" transform="scale(1, -1)"
	style="font-family:Times;font-weight:normal;font-style:normal;font-size:10px">500.00</text>
<path d="M65.305,28.263L65.305,36.263" style="fill:none;stroke:#000000;stroke-width:0.5" />
<path d="M380.06,28.263L380.06,36.263" style="fill:none;stroke:#000000;stroke-width:0.5" />
<path d="M694.82,28.263L694.82,36.263" style="fill:none;stroke:#000000;stroke-width:0.5" />
<path d="M128.26,32.263L128.26,36.263" style="fill:none;stroke:#000000;stroke-width:0.5" />
<path d="M191.21,32.263L191.21,36.263" style="fill:none;stroke:#000000;stroke-width:0.5" />
<path d="M254.16,32.263L254.16,36.263" style="fill:none;stroke:#000000;stroke-width:0.5" />
<path d="M317.11,32.263L317.11,36.263" style="fill:none;stroke:#000000;stroke-width:0.5" />
<path d="M443.01,32.263L443.01,36.263" style="fill:none;stroke:#000000;stroke-width:0.5" />
<path d="M505.96,32.263L505.96,36.263" style="fill:none;stroke:#000000;stroke-width:0.5" />
<path d="M568.92,32.263L568.92,36.263" style="fill:none;stroke:#000000;stroke-width:0.5" />
<path d="M631.87,32.263L631.87,36.263" style="fill:none;stroke:#000000;stroke-width:0.5" />
<path d="M65.305,36.263L720,36.263" style="fill:none;stroke:#000000;stroke-width:0.5" />
<g transform="rotate(90)">
<text x="152.55" y="11.555" transform="scale(1, -1)"
	style="font-family:Times;font-weight:normal;font-style:normal;font-size:12px">Number of trials (1000000 total)</text>
</g>
<text x="24.055" y="-92.89" transform="scale(1, -1)"
	style="font-family:Times;font-weight:normal;font-style:normal;font-size:10px">20000</text>
<text x="24.055" y="-245.73" transform="scale(1, -1)"
	style="font-family:Times;font-weight:normal;font-style:normal;font-size:10px">80000</text>
<text x="19.055" y="-398.57" transform="scale(1, -1)"
	style="font-family:Times;font-weight:normal;font-style:normal;font-size:10px">140000</text>
<path d="M51.555,96.095L59.555,96.095" style="fill:none;stroke:#000000;stroke-width:0.5" />
<path d="M51.555,248.93L59.555,248.93" style="fill:none;stroke:#000000;stroke-width:0.5" />
<path d="M51.555,401.77L59.555,401.77" style="fill:none;stroke:#000000;stroke-width:0.5" />
<path d="M55.555,172.51L59.555,172.51" style="fill:none;stroke:#000000;stroke-width:0.5" />
<path d="M55.555,325.35L59.555,325.35" style="fill:none;stroke:#000000;stroke-width:0.5" />
<path d="M59.555,45.151L59.555,416.58" style="fill:none;stroke:#000000;stroke-width:0.5" />
<path d="M65.305,416.58L93.003,48.659L94.262,62.542L95.521,52.006L98.039,63.222L99.298,48.725L100.56,63.077L101.82,60.331L104.33,52.029L105.59,84.752L106.85,58.932L108.11,97.219L109.37,71.315L110.63,69.733L113.15,76.901L115.67,85.728L116.92,91.021L118.18,55.96L119.44,66.467L120.7,81.43L121.96,66.243L123.22,59.33L124.48,45.511L125.74,45.289L127,49.673L128.26,56.199L129.52,53.226L130.77,46.262L132.03,59.577L133.29,60.614L134.55,51.53L135.81,62.195L137.07,75.424L138.33,56.563L139.59,58.703L140.85,50.58L142.11,83.129L143.36,53.97L144.62,66.786L145.88,52.753L147.14,50.59L148.4,56.222L149.66,63.492L150.92,55.427L152.18,55.988L153.44,56.54L154.7,51.568L155.95,58.701L157.21,100.62L158.47,61.464L159.73,58.262L160.99,59.778L162.25,83.313L163.51,59.358L164.77,58.459L166.03,84.607L167.29,60.644L168.55,56.301L169.8,54.691L171.06,58.176L172.32,59.528L173.58,56.079L174.84,56.474L176.1,55.015L177.36,57.758L178.62,56.227L179.88,57.312L181.14,53.968L182.39,56.951L183.65,55.746L184.91,60.4L186.17,57.3L187.43,60.275L188.69,55.509L189.95,59.9L191.21,55.514L192.47,61.154L193.73,58.652L194.98,57.526L196.24,55.865L197.5,59.964L198.76,57.559L200.02,61.003L201.28,57.259L202.54,58.24L203.8,54.031L205.06,60.071L206.32,57.404L207.58,59.872L208.83,62.134L210.09,58.568L211.35,56.963L212.61,59.987L213.87,61.79L215.13,55.341L216.39,58.046L217.65,57.959L218.91,55.236L220.17,55.351L221.42,56.258L222.68,53.524L223.94,54.375L225.2,54.001L226.46,52.849L227.72,53.54L228.98,56.589L230.24,54.61L231.5,53.091L232.76,54.334L234.01,58.451L235.27,53.963L236.53,55.162L237.79,54.602L239.05,54.992L240.31,53.685L241.57,54.582L242.83,55.236L244.09,52.773L245.35,53.606L246.6,52.427L247.86,52.424L249.12,52.732L250.38,53.491L251.64,52.567L252.9,52.406L254.16,55.448L255.42,52.485L256.68,52.786L257.94,55.455L259.2,52.681L260.45,52.32L261.71,52.386L262.97,53.751L264.23,52.658L265.49,51.571L266.75,51.662L268.01,51.4L269.27,51.731L270.53,50.964L271.79,51.568L273.04,50.977L274.3,50.924L275.56,50.664L276.82,51.38L278.08,50.455L279.34,50.941L280.6,50.623L281.86,50.959L283.12,50.073L284.38,51.018L285.63,50.684L286.89,50.34L288.15,50.284L289.41,50.221L290.67,50.164L291.93,49.956L293.19,50.058L294.45,49.897L295.71,49.579L296.97,49.339L298.23,49.647L299.48,49.428L300.74,49.66L302,49.311L303.26,49.123L304.52,49.067L305.78,49.81L307.04,48.825L308.3,48.995L309.56,49.199L310.82,49.033L312.07,48.845L313.33,48.993L314.59,48.735L315.85,48.361L317.11,48.353L318.37,48.167L319.63,48.307L320.89,48.274L322.15,48.246L323.41,47.821L324.66,48.106L325.92,48.198L327.18,47.897L328.44,47.836L329.7,48.055L330.96,48.172L332.22,47.717L333.48,47.841L334.74,47.9L336,47.61L337.26,47.632L338.51,47.574L339.77,47.574L341.03,47.452L342.29,47.497L343.55,47.233L344.81,47.289L346.07,47.171L347.33,47.128L348.59,47.123L349.85,47.049L351.1,47.156L352.36,47.072L353.62,47.098L354.88,47.141L356.14,46.871L357.4,46.817L358.66,46.914L359.92,46.771L361.18,46.782L362.44,46.659L363.69,46.652L364.95,46.532L366.21,46.636L367.47,46.552L368.73,46.537L369.99,46.344L371.25,46.438L372.51,46.44L373.77,46.547L375.03,46.425L376.28,46.397L377.54,46.41L378.8,46.359L380.06,46.341L381.32,46.226L382.58,46.272L383.84,46.203L385.1,46.356L386.36,46.196L387.62,46.132L388.88,46.145L390.13,46.119L391.39,45.989L392.65,46.091L393.91,46.048L395.17,46.04L396.43,46L397.69,45.969L398.95,45.931L400.21,45.977L401.47,45.893L402.72,45.773L403.98,45.882L405.24,45.834L406.5,45.826L407.76,45.775L409.02,45.801L410.28,45.781L411.54,45.765L412.8,45.778L414.06,45.704L415.31,45.722L416.57,45.671L417.83,45.681L419.09,45.648L420.35,45.572L421.61,45.63L422.87,45.62L424.13,45.61L425.39,45.681L426.65,45.572L427.91,45.61L429.16,45.559L430.42,45.607L431.68,45.595L432.94,45.521L434.2,45.564L435.46,45.521L436.72,45.493L437.98,45.518L439.24,45.49L440.5,45.518L441.75,45.475L443.01,45.467L444.27,45.434L445.53,45.48L446.79,45.447L448.05,45.388L449.31,45.439L450.57,45.437L451.83,45.401L453.09,45.437L454.34,45.388L455.6,45.378L456.86,45.406L458.12,45.363L459.38,45.388L460.64,45.396L461.9,45.345L463.16,45.345L464.42,45.317L465.68,45.317L466.94,45.299L468.19,45.337L469.45,45.345L470.71,45.284L471.97,45.297L473.23,45.319L474.49,45.325L475.75,45.317L477.01,45.291L478.27,45.251L479.53,45.309L480.78,45.266L482.04,45.279L483.3,45.266L484.56,45.281L485.82,45.258L487.08,45.258L488.34,45.241L489.6,45.253L490.86,45.23L492.12,45.261L493.37,45.261L494.63,45.241L495.89,45.225L497.15,45.235L498.41,45.246L499.67,45.23L500.93,45.22L502.19,45.223L503.45,45.223L504.71,45.223L505.96,45.233L507.22,45.207L508.48,45.21L509.74,45.19L511,45.23L512.26,45.218L513.52,45.207L514.78,45.22L516.04,45.182L517.3,45.202L518.56,45.197L519.81,45.187L521.07,45.197L522.33,45.215L523.59,45.21L524.85,45.195L526.11,45.215L527.37,45.187L528.63,45.177L529.89,45.192L531.15,45.177L532.4,45.192L533.66,45.177L534.92,45.167L536.18,45.192L537.44,45.195L538.7,45.174L539.96,45.182L541.22,45.19L542.48,45.172L543.74,45.169L544.99,45.177L546.25,45.162L547.51,45.177L548.77,45.177L550.03,45.169L551.29,45.182L552.55,45.172L553.81,45.187L555.07,45.164L556.33,45.172L557.59,45.172L558.84,45.156L560.1,45.174L561.36,45.179L562.62,45.167L563.88,45.159L565.14,45.167L566.4,45.169L567.66,45.164L568.92,45.164L570.18,45.164L571.43,45.167L572.69,45.172L573.95,45.162L575.21,45.156L576.47,45.151L577.73,45.154L578.99,45.151L580.25,45.151L581.51,45.164L582.77,45.167L584.02,45.162L585.28,45.156L586.54,45.159L587.8,45.159L589.06,45.162L591.58,45.156L592.84,45.154L594.1,45.154L595.36,45.151L596.62,45.172L597.87,45.169L599.13,45.151L600.39,45.159L601.65,45.159L602.91,45.154L604.17,45.151L605.43,45.159L606.69,45.151L607.95,45.151L609.21,45.151L610.46,45.151L611.72,45.156L614.24,45.151L615.5,45.154L616.76,45.151L619.28,45.151L620.54,45.151L621.8,45.151L623.05,45.151L625.57,45.154L626.83,45.151L628.09,45.151L629.35,45.154L630.61,45.154L631.87,45.156L633.13,45.151L634.39,45.159L636.9,45.151L638.16,45.151L639.42,45.151L641.94,45.159L644.46,45.154L646.98,45.151L649.49,45.154L652.01,45.151L658.31,45.154L659.57,45.151L668.38,45.151L673.42,45.154L675.93,45.151L683.49,45.151L684.75,45.151L720,45.151" style="fill:none;stroke:#0000FF" />
</g>
</svg>
