<?xml version="1.0"?>
<!-- Generated by SVGo and Plotinum VG -->
<svg width="720pt" height="432pt" viewBox="0 0 720 432"
	xmlns="http://www.w3.org/2000/svg"
	xmlns:xlink="http://www.w3.org/1999/xlink">
<g transform="scale(1, -1) translate(0, -432)">
<path d="M0,0L720,0L720,432L0,432Z" style="fill:#FFFFFF" />
<text x="358.5" y="-420.45" transform="scale(1, -1)"
	style="font-family:Times;font-weight:normal;font-style:normal;font-size:12px"> </text>
<text x="385.56" y="-3.8613" transform="scale(1, -1)"
	style="font-family:Times;font-weight:normal;font-style:normal;font-size:12px">Costs</text>
<text x="69.055" y="-18.634" transform="scale(1, -1)"
	style="font-family:Times;font-weight:normal;font-style:normal;font-size:10px">0.00</text>
<text x="364.15" y="-18.634" transform="scale(1, -1)"
	style="font-family:Times;font-weight:normal;font-style:normal;font-size:10px">250.00</text>
<text x="664.24" y="-18.634" transform="scale(1, -1)"
	style="font-family:Times;font-weight:normal;font-style:normal;font-size:10px">500.00</text>
<path d="M77.805,28.263L77.805,36.263" style="fill:none;stroke:#000000;stroke-width:0.5" />
<path d="M377.9,28.263L377.9,36.263" style="fill:none;stroke:#000000;stroke-width:0.5" />
<path d="M677.99,28.263L677.99,36.263" style="fill:none;stroke:#000000;stroke-width:0.5" />
<path d="M137.82,32.263L137.82,36.263" style="fill:none;stroke:#000000;stroke-width:0.5" />
<path d="M197.84,32.263L197.84,36.263" style="fill:none;stroke:#000000;stroke-width:0.5" />
<path d="M257.86,32.263L257.86,36.263" style="fill:none;stroke:#000000;stroke-width:0.5" />
<path d="M317.88,32.263L317.88,36.263" style="fill:none;stroke:#000000;stroke-width:0.5" />
<path d="M437.91,32.263L437.91,36.263" style="fill:none;stroke:#000000;stroke-width:0.5" />
<path d="M497.93,32.263L497.93,36.263" style="fill:none;stroke:#000000;stroke-width:0.5" />
<path d="M557.95,32.263L557.95,36.263" style="fill:none;stroke:#000000;stroke-width:0.5" />
<path d="M617.97,32.263L617.97,36.263" style="fill:none;stroke:#000000;stroke-width:0.5" />
<path d="M77.805,36.263L720,36.263" style="fill:none;stroke:#000000;stroke-width:0.5" />
<g transform="rotate(90)">
<text x="152.55" y="11.555" transform="scale(1, -1)"
	style="font-family:Times;font-weight:normal;font-style:normal;font-size:12px">Number of trials (1000000 total)</text>
</g>
<text x="24.055" y="-89.356" transform="scale(1, -1)"
	style="font-family:Times;font-weight:normal;font-style:normal;font-size:10px">25000.00</text>
<text x="19.055" y="-231.59" transform="scale(1, -1)"
	style="font-family:Times;font-weight:normal;font-style:normal;font-size:10px">100000.00</text>
<text x="19.055" y="-373.83" transform="scale(1, -1)"
	style="font-family:Times;font-weight:normal;font-style:normal;font-size:10px">175000.00</text>
<path d="M64.055,92.562L72.055,92.562" style="fill:none;stroke:#000000;stroke-width:0.5" />
<path d="M64.055,234.8L72.055,234.8" style="fill:none;stroke:#000000;stroke-width:0.5" />
<path d="M64.055,377.03L72.055,377.03" style="fill:none;stroke:#000000;stroke-width:0.5" />
<path d="M68.055,163.68L72.055,163.68" style="fill:none;stroke:#000000;stroke-width:0.5" />
<path d="M68.055,305.92L72.055,305.92" style="fill:none;stroke:#000000;stroke-width:0.5" />
<path d="M72.055,45.151L72.055,416.58" style="fill:none;stroke:#000000;stroke-width:0.5" />
<path d="M77.805,416.58L104.21,55.681L105.41,55.667L106.61,63.995L109.01,80.803L110.21,52.115L111.41,63.815L112.62,52.081L115.02,65.645L116.22,55.506L118.62,84.665L121.02,62.444L122.22,58.742L123.42,66.413L124.62,69.407L127.02,55.463L128.22,80.09L129.42,55.573L130.62,66.515L131.82,52.079L133.02,64.596L134.22,45.66L135.42,46.13L136.62,56.697L137.82,83.673L139.02,53.2L140.22,46.689L141.42,64.56L142.62,69.428L143.82,66.144L145.03,64.829L146.23,55.643L147.43,48.923L148.63,76.218L149.83,61.939L151.03,65.584L152.23,68.216L153.43,56.38L154.63,49.745L155.83,53.009L157.03,50.564L158.23,50.166L159.43,53.591L160.63,49.676L161.83,53.557L163.03,49.94L164.23,52.766L165.43,67.917L166.63,64.532L167.83,51.761L169.03,55.859L170.23,56.83L171.43,54.537L172.63,52.578L173.83,59.185L175.03,66.259L176.23,54.681L177.43,54.41L178.64,55.758L179.84,56.282L181.04,54.192L182.24,56.599L183.44,57.221L184.64,54.759L185.84,53.832L187.04,53.93L188.24,55.406L189.44,56.208L190.64,54.055L191.84,55.288L193.04,55.891L194.24,55.328L195.44,55.246L196.64,55.576L197.84,55.538L199.04,54.613L200.24,52.313L201.44,54.594L202.64,54.979L203.84,55.313L205.04,52.578L206.24,53.919L207.44,52.737L208.64,54.753L209.84,53.056L211.05,53.691L212.25,54.619L213.45,52.876L214.65,52.352L215.85,55.487L217.05,53.803L218.25,52.752L219.45,52.531L220.65,52.722L221.85,52.041L223.05,51.247L224.25,51.552L225.45,53.452L226.65,52.005L227.85,50.581L229.05,50.647L230.25,51.823L231.45,50.848L232.65,50.987L233.85,51.093L235.05,51.381L236.25,51.211L237.45,51.277L238.65,51.288L239.85,51.66L241.05,51.347L242.25,50.837L243.46,50.302L244.66,50.24L245.86,50.513L247.06,50.41L248.26,50.475L249.46,50.452L250.66,49.745L251.86,49.322L253.06,49.491L254.26,49.851L255.46,49.206L256.66,49.544L257.86,49.352L259.06,49.538L260.26,49.03L261.46,49.362L262.66,49.832L263.86,49.528L265.06,49.005L266.26,49.115L267.46,49.13L268.66,49.083L269.86,48.652L271.06,48.933L272.26,48.647L273.46,48.582L274.66,48.286L275.86,48.63L277.07,48.336L278.27,48.138L279.47,48.277L280.67,48.33L281.87,48.055L283.07,47.992L284.27,48.099L285.47,48.125L286.67,47.99L287.87,47.934L289.07,47.774L290.27,47.894L291.47,47.664L292.67,47.634L293.87,47.421L295.07,47.48L296.27,47.439L297.47,47.351L298.67,47.349L299.87,47.406L301.07,47.264L302.27,47.124L303.47,47.148L304.67,47.215L305.87,46.964L307.07,46.978L308.27,46.978L309.48,46.983L310.68,46.934L311.88,46.847L313.08,46.904L314.28,46.854L315.48,46.758L316.68,46.676L317.88,46.752L319.08,46.53L320.28,46.576L321.48,46.543L322.68,46.528L323.88,46.433L325.08,46.462L326.28,46.384L327.48,46.43L328.68,46.433L329.88,46.327L331.08,46.382L332.28,46.265L333.48,46.268L334.68,46.223L335.88,46.234L337.08,46.191L338.28,46.151L339.48,46.122L340.68,46.073L341.89,46.092L343.09,46.12L344.29,45.942L345.49,45.974L346.69,45.995L347.89,45.98L349.09,45.929L350.29,46.005L351.49,45.927L352.69,45.821L353.89,45.9L355.09,45.912L356.29,45.847L357.49,45.806L358.69,45.773L359.89,45.734L361.09,45.762L362.29,45.707L363.49,45.754L364.69,45.667L365.89,45.718L367.09,45.696L368.29,45.68L369.49,45.65L370.69,45.644L371.89,45.639L373.09,45.616L374.29,45.633L375.5,45.582L376.7,45.582L377.9,45.578L379.1,45.563L380.3,45.572L381.5,45.565L382.7,45.529L383.9,45.487L385.1,45.552L386.3,45.483L387.5,45.512L388.7,45.424L389.9,45.466L391.1,45.44L392.3,45.495L393.5,45.436L394.7,45.434L395.9,45.457L397.1,45.442L398.3,45.44L399.5,45.392L400.7,45.402L401.9,45.423L403.1,45.407L404.3,45.383L405.5,45.349L406.7,45.381L407.91,45.356L409.11,45.354L410.31,45.368L411.51,45.349L412.71,45.35L413.91,45.326L415.11,45.324L416.31,45.345L417.51,45.286L418.71,45.337L419.91,45.32L421.11,45.305L422.31,45.294L423.51,45.261L424.71,45.259L425.91,45.277L427.11,45.269L428.31,45.267L429.51,45.29L430.71,45.256L431.91,45.278L433.11,45.28L434.31,45.271L435.51,45.263L436.71,45.231L437.91,45.256L439.11,45.267L440.31,45.248L441.52,45.267L442.72,45.208L443.92,45.227L445.12,45.229L446.32,45.216L447.52,45.214L448.72,45.227L449.92,45.216L451.12,45.222L452.32,45.191L453.52,45.214L454.72,45.208L455.92,45.212L457.12,45.212L458.32,45.233L459.52,45.197L460.72,45.203L461.92,45.222L463.12,45.193L464.32,45.208L465.52,45.186L466.72,45.174L467.92,45.195L469.12,45.182L470.32,45.178L471.52,45.187L472.72,45.195L473.93,45.182L475.13,45.18L476.33,45.182L477.53,45.174L478.73,45.195L479.93,45.172L481.13,45.187L482.33,45.182L483.53,45.176L484.73,45.163L485.93,45.176L487.13,45.176L488.33,45.163L489.53,45.167L490.73,45.167L491.93,45.163L493.13,45.167L494.33,45.168L495.53,45.167L496.73,45.159L497.93,45.176L499.13,45.174L500.33,45.168L501.53,45.176L502.73,45.167L503.93,45.159L505.13,45.172L506.34,45.163L507.54,45.161L508.74,45.159L509.94,45.163L511.14,45.172L512.34,45.167L513.54,45.167L514.74,45.165L515.94,45.159L517.14,45.155L518.34,45.161L519.54,45.157L520.74,45.151L521.94,45.153L523.14,45.159L524.34,45.157L525.54,45.163L526.74,45.155L527.94,45.153L529.14,45.163L530.34,45.157L531.54,45.155L532.74,45.155L533.94,45.153L535.14,45.161L536.34,45.153L537.54,45.151L538.74,45.159L539.95,45.157L542.35,45.151L543.55,45.151L544.75,45.157L545.95,45.153L547.15,45.161L548.35,45.151L549.55,45.151L550.75,45.159L551.95,45.151L553.15,45.151L554.35,45.155L555.55,45.151L556.75,45.151L557.95,45.153L559.15,45.151L562.75,45.153L563.95,45.155L565.15,45.151L566.35,45.151L568.75,45.151L569.95,45.151L572.36,45.151L573.56,45.153L574.76,45.151L578.36,45.153L580.76,45.155L581.96,45.151L584.36,45.151L585.56,45.151L587.96,45.151L590.36,45.151L595.16,45.151L597.56,45.151L598.76,45.151L599.96,45.151L604.76,45.151L605.97,45.151L615.57,45.151L617.97,45.151L638.38,45.151L643.18,45.151L655.18,45.153L720,45.151" style="fill:none;stroke:#0000FF" />
</g>
</svg>
