<?xml version="1.0"?>
<!-- Generated by SVGo and Plotinum VG -->
<svg width="720pt" height="432pt" viewBox="0 0 720 432"
	xmlns="http://www.w3.org/2000/svg"
	xmlns:xlink="http://www.w3.org/1999/xlink">
<g transform="scale(1, -1) translate(0, -432)">
<path d="M0,0L720,0L720,432L0,432Z" style="fill:#FFFFFF" />
<text x="358.5" y="-420.45" transform="scale(1, -1)"
	style="font-family:Times;font-weight:normal;font-style:normal;font-size:12px"> </text>
<text x="376.81" y="-3.8613" transform="scale(1, -1)"
	style="font-family:Times;font-weight:normal;font-style:normal;font-size:12px">Costs</text>
<text x="51.555" y="-18.634" transform="scale(1, -1)"
	style="font-family:Times;font-weight:normal;font-style:normal;font-size:10px">0.00</text>
<text x="335.89" y="-18.634" transform="scale(1, -1)"
	style="font-family:Times;font-weight:normal;font-style:normal;font-size:10px">250.00</text>
<text x="625.23" y="-18.634" transform="scale(1, -1)"
	style="font-family:Times;font-weight:normal;font-style:normal;font-size:10px">500.00</text>
<path d="M60.305,28.263L60.305,36.263" style="fill:none;stroke:#000000;stroke-width:0.5" />
<path d="M349.64,28.263L349.64,36.263" style="fill:none;stroke:#000000;stroke-width:0.5" />
<path d="M638.98,28.263L638.98,36.263" style="fill:none;stroke:#000000;stroke-width:0.5" />
<path d="M118.17,32.263L118.17,36.263" style="fill:none;stroke:#000000;stroke-width:0.5" />
<path d="M176.04,32.263L176.04,36.263" style="fill:none;stroke:#000000;stroke-width:0.5" />
<path d="M233.91,32.263L233.91,36.263" style="fill:none;stroke:#000000;stroke-width:0.5" />
<path d="M291.78,32.263L291.78,36.263" style="fill:none;stroke:#000000;stroke-width:0.5" />
<path d="M407.51,32.263L407.51,36.263" style="fill:none;stroke:#000000;stroke-width:0.5" />
<path d="M465.38,32.263L465.38,36.263" style="fill:none;stroke:#000000;stroke-width:0.5" />
<path d="M523.25,32.263L523.25,36.263" style="fill:none;stroke:#000000;stroke-width:0.5" />
<path d="M581.12,32.263L581.12,36.263" style="fill:none;stroke:#000000;stroke-width:0.5" />
<path d="M696.85,32.263L696.85,36.263" style="fill:none;stroke:#000000;stroke-width:0.5" />
<path d="M60.305,36.263L720,36.263" style="fill:none;stroke:#000000;stroke-width:0.5" />
<g transform="rotate(90)">
<text x="152.55" y="11.555" transform="scale(1, -1)"
	style="font-family:Times;font-weight:normal;font-style:normal;font-size:12px">Number of trials (1000000 total)</text>
</g>
<text x="19.055" y="-80.786" transform="scale(1, -1)"
	style="font-family:Times;font-weight:normal;font-style:normal;font-size:10px">10000</text>
<text x="19.055" y="-236.16" transform="scale(1, -1)"
	style="font-family:Times;font-weight:normal;font-style:normal;font-size:10px">50000</text>
<text x="19.055" y="-391.54" transform="scale(1, -1)"
	style="font-family:Times;font-weight:normal;font-style:normal;font-size:10px">90000</text>
<path d="M46.555,83.992L54.555,83.992" style="fill:none;stroke:#000000;stroke-width:0.5" />
<path d="M46.555,239.37L54.555,239.37" style="fill:none;stroke:#000000;stroke-width:0.5" />
<path d="M46.555,394.75L54.555,394.75" style="fill:none;stroke:#000000;stroke-width:0.5" />
<path d="M50.555,122.84L54.555,122.84" style="fill:none;stroke:#000000;stroke-width:0.5" />
<path d="M50.555,161.68L54.555,161.68" style="fill:none;stroke:#000000;stroke-width:0.5" />
<path d="M50.555,200.52L54.555,200.52" style="fill:none;stroke:#000000;stroke-width:0.5" />
<path d="M50.555,278.21L54.555,278.21" style="fill:none;stroke:#000000;stroke-width:0.5" />
<path d="M50.555,317.06L54.555,317.06" style="fill:none;stroke:#000000;stroke-width:0.5" />
<path d="M50.555,355.9L54.555,355.9" style="fill:none;stroke:#000000;stroke-width:0.5" />
<path d="M54.555,45.151L54.555,416.58" style="fill:none;stroke:#000000;stroke-width:0.5" />
<path d="M60.305,416.58L92.711,55.138L95.025,80.255L96.183,51.926L98.498,93.738L99.655,189.29L104.28,55.391L106.6,114.89L107.76,80.441L108.91,48.566L110.07,117.49L111.23,79.478L113.54,109.05L117.02,124.81L119.33,80.282L121.64,114.16L122.8,89.527L127.43,46.157L128.59,45.346L130.9,47.066L132.06,83.759L133.22,56.665L134.38,59.403L135.53,47.754L136.69,45.381L137.85,64.391L139.01,68.982L140.16,46.204L141.32,50.908L142.48,52.722L143.63,51.102L144.79,124.69L145.95,82.477L147.11,59.12L148.26,61.396L149.42,79.979L150.58,59.757L151.74,62.192L152.89,74.638L154.05,121.26L155.21,58.945L156.37,95.191L157.52,70.074L158.68,63.206L159.84,70.221L161,92.001L162.15,62.507L163.31,72.688L164.47,59.411L165.62,53.946L166.78,67.883L167.94,66.892L169.1,66.652L170.25,72.109L171.41,73.387L172.57,69.732L173.73,55.635L174.88,57.76L176.04,61.105L177.2,50.376L178.36,69.332L179.51,66.823L180.67,56.739L181.83,59.31L182.98,62.911L184.14,84.547L185.3,59.881L186.46,51.227L187.61,52L188.77,68.279L189.93,52.59L191.09,69.429L192.24,69.814L193.4,82.624L194.56,72.16L195.72,68.419L196.87,55.546L198.03,65.424L199.19,59.081L200.35,70.963L201.5,73.892L202.66,61.45L203.82,74.79L204.97,62.095L206.13,71.196L207.29,80.197L208.45,59.058L209.6,61.373L210.76,75.291L211.92,57.131L213.08,62.235L214.23,58.972L215.39,68.602L216.55,69.86L217.71,64.383L218.86,61.202L220.02,58.199L221.18,56.471L222.34,59.73L223.49,58.782L224.65,56.35L225.81,62.029L226.96,55.705L228.12,58.937L229.28,58.149L230.44,59.396L231.59,60.316L232.75,60.957L233.91,59.407L235.07,56.983L236.22,54.761L237.38,57.484L238.54,66.807L239.7,59.407L240.85,63.711L242.01,59.765L243.17,60.402L244.32,58.09L245.48,62.383L246.64,58.852L247.8,57.717L248.95,55.616L250.11,61.928L251.27,58.759L252.43,58.044L253.58,58.953L254.74,62.895L255.9,59.695L257.06,60.336L258.21,55.022L259.37,54.365L260.53,57.352L261.69,55.127L262.84,57.861L264,58.207L265.16,56.758L266.31,57.131L267.47,54.26L268.63,55.123L269.79,55.088L270.94,52.073L272.1,55.208L273.26,55.682L274.42,52.71L275.57,53.588L276.73,53.6L277.89,57.756L279.05,54.606L280.2,53.114L281.36,52.287L282.52,53.518L283.68,51.658L284.83,54.35L285.99,52.011L287.15,52.846L288.3,54.19L289.46,53.884L290.62,52.353L291.78,54.159L292.93,52.19L294.09,53.126L295.25,54.012L296.41,52.174L297.56,51.984L298.72,51.568L299.88,53.783L301.04,53.371L302.19,52.617L303.35,52.442L304.51,52.147L305.67,51.013L306.82,51.029L307.98,50.659L309.14,50.858L310.29,51.401L311.45,51.464L312.61,51.351L313.77,50.702L314.92,50.155L316.08,50.803L317.24,50.772L318.4,49.929L319.55,49.937L320.71,49.137L321.87,49.774L323.03,49.716L324.18,50.073L325.34,49.953L326.5,49.747L327.65,49.758L328.81,49.444L329.97,49.009L331.13,49.156L332.28,48.566L333.44,48.562L334.6,50.034L335.76,48.946L336.91,48.865L338.07,48.842L339.23,49.195L340.39,48.733L341.54,49.075L342.7,48.267L343.86,48.29L345.02,48.484L346.17,48.465L347.33,48.294L348.49,48.317L349.64,48.434L350.8,48.554L351.96,48.212L353.12,47.898L354.27,48.018L355.43,47.653L356.59,48.216L357.75,48.018L358.9,47.63L360.06,47.645L361.22,47.672L362.38,47.816L363.53,47.529L364.69,47.404L365.85,47.334L367.01,47.296L368.16,47.152L369.32,47.117L370.48,47.02L371.63,47.136L372.79,47.296L373.95,47.066L375.11,46.993L376.26,46.682L377.42,46.958L378.58,46.88L379.74,46.596L380.89,46.732L382.05,46.732L383.21,46.425L384.37,46.705L385.52,46.798L386.68,46.425L387.84,46.6L388.99,46.6L390.15,46.495L391.31,46.519L392.47,46.383L393.62,46.321L394.78,46.425L395.94,46.453L397.1,46.429L398.25,46.243L399.41,46.363L400.57,46.169L401.73,46.27L402.88,46.247L404.04,46.165L405.2,46.072L406.36,46.126L407.51,46.13L408.67,46.014L409.83,46.08L410.98,45.936L412.14,45.862L413.3,46.006L414.46,45.851L415.61,45.987L416.77,45.804L417.93,45.808L419.09,45.92L420.24,45.792L421.4,45.781L422.56,45.819L423.72,45.773L424.87,45.726L426.03,45.812L427.19,45.699L428.35,45.823L429.5,45.715L430.66,45.691L431.82,45.649L432.97,45.645L434.13,45.621L435.29,45.652L436.45,45.567L437.6,45.528L438.76,45.52L439.92,45.528L441.08,45.505L442.23,45.594L443.39,45.563L444.55,45.513L445.71,45.579L446.86,45.606L448.02,45.517L449.18,45.509L450.34,45.423L451.49,45.482L452.65,45.474L453.81,45.419L454.96,45.454L456.12,45.443L457.28,45.47L458.44,45.454L459.59,45.447L460.75,45.431L461.91,45.4L463.07,45.439L464.22,45.423L465.38,45.416L466.54,45.377L467.7,45.377L468.85,45.268L470.01,45.408L471.17,45.315L472.32,45.342L473.48,45.315L474.64,45.377L475.8,45.369L476.95,45.326L478.11,45.287L479.27,45.28L480.43,45.268L481.58,45.315L482.74,45.26L483.9,45.283L485.06,45.272L486.21,45.268L487.37,45.291L488.53,45.26L489.69,45.299L490.84,45.264L492,45.221L493.16,45.245L494.31,45.225L495.47,45.233L496.63,45.28L497.79,45.245L498.94,45.272L500.1,45.229L501.26,45.241L502.42,45.241L503.57,45.233L504.73,45.198L505.89,45.225L507.05,45.206L508.2,45.225L509.36,45.233L510.52,45.206L511.68,45.214L512.83,45.19L513.99,45.186L515.15,45.206L516.3,45.21L517.46,45.206L518.62,45.182L519.78,45.21L520.93,45.182L522.09,45.19L523.25,45.202L524.41,45.175L525.56,45.167L526.72,45.19L527.88,45.179L529.04,45.182L530.19,45.186L531.35,45.194L532.51,45.202L533.67,45.182L534.82,45.194L535.98,45.198L537.14,45.167L538.29,45.175L539.45,45.159L540.61,45.167L541.77,45.171L542.92,45.175L544.08,45.163L545.24,45.179L546.4,45.171L547.55,45.182L548.71,45.182L549.87,45.167L551.03,45.155L552.18,45.167L553.34,45.167L554.5,45.163L555.65,45.171L556.81,45.167L557.97,45.163L559.13,45.182L560.28,45.163L561.44,45.171L562.6,45.155L563.76,45.151L564.91,45.159L566.07,45.159L567.23,45.167L568.39,45.155L569.54,45.171L570.7,45.155L573.02,45.151L575.33,45.159L576.49,45.151L577.64,45.155L578.8,45.155L579.96,45.155L581.12,45.155L582.27,45.151L583.43,45.155L584.59,45.151L585.75,45.151L589.22,45.155L590.38,45.155L592.69,45.151L595.01,45.155L596.16,45.159L604.26,45.151L605.42,45.151L607.74,45.151L608.89,45.155L610.05,45.151L612.37,45.151L614.68,45.155L620.47,45.151L621.62,45.151L627.41,45.151L628.57,45.151L644.77,45.151L645.93,45.151L685.28,45.151L720,45.151" style="fill:none;stroke:#0000FF" />
</g>
</svg>
