<?xml version="1.0"?>
<!-- Generated by SVGo and Plotinum VG -->
<svg width="720pt" height="432pt" viewBox="0 0 720 432"
	xmlns="http://www.w3.org/2000/svg"
	xmlns:xlink="http://www.w3.org/1999/xlink">
<g transform="scale(1, -1) translate(0, -432)">
<path d="M0,0L720,0L720,432L0,432Z" style="fill:#FFFFFF" />
<text x="358.5" y="-420.45" transform="scale(1, -1)"
	style="font-family:Times;font-weight:normal;font-style:normal;font-size:12px"> </text>
<text x="379.31" y="-3.8613" transform="scale(1, -1)"
	style="font-family:Times;font-weight:normal;font-style:normal;font-size:12px">Costs</text>
<text x="62.805" y="-18.634" transform="scale(1, -1)"
	style="font-family:Times;font-weight:normal;font-style:normal;font-size:10px">0</text>
<text x="340.61" y="-18.634" transform="scale(1, -1)"
	style="font-family:Times;font-weight:normal;font-style:normal;font-size:10px">200</text>
<text x="623.42" y="-18.634" transform="scale(1, -1)"
	style="font-family:Times;font-weight:normal;font-style:normal;font-size:10px">400</text>
<path d="M65.305,28.263L65.305,36.263" style="fill:none;stroke:#000000;stroke-width:0.5" />
<path d="M348.11,28.263L348.11,36.263" style="fill:none;stroke:#000000;stroke-width:0.5" />
<path d="M630.92,28.263L630.92,36.263" style="fill:none;stroke:#000000;stroke-width:0.5" />
<path d="M206.71,32.263L206.71,36.263" style="fill:none;stroke:#000000;stroke-width:0.5" />
<path d="M489.51,32.263L489.51,36.263" style="fill:none;stroke:#000000;stroke-width:0.5" />
<path d="M65.305,36.263L720,36.263" style="fill:none;stroke:#000000;stroke-width:0.5" />
<g transform="rotate(90)">
<text x="152.55" y="11.555" transform="scale(1, -1)"
	style="font-family:Times;font-weight:normal;font-style:normal;font-size:12px">Number of trials (1000000 total)</text>
</g>
<text x="24.055" y="-111.05" transform="scale(1, -1)"
	style="font-family:Times;font-weight:normal;font-style:normal;font-size:10px">40000</text>
<text x="19.055" y="-249.26" transform="scale(1, -1)"
	style="font-family:Times;font-weight:normal;font-style:normal;font-size:10px">120000</text>
<text x="19.055" y="-387.48" transform="scale(1, -1)"
	style="font-family:Times;font-weight:normal;font-style:normal;font-size:10px">200000</text>
<path d="M51.555,114.26L59.555,114.26" style="fill:none;stroke:#000000;stroke-width:0.5" />
<path d="M51.555,252.47L59.555,252.47" style="fill:none;stroke:#000000;stroke-width:0.5" />
<path d="M51.555,390.68L59.555,390.68" style="fill:none;stroke:#000000;stroke-width:0.5" />
<path d="M55.555,183.36L59.555,183.36" style="fill:none;stroke:#000000;stroke-width:0.5" />
<path d="M55.555,321.58L59.555,321.58" style="fill:none;stroke:#000000;stroke-width:0.5" />
<path d="M59.555,45.151L59.555,416.58" style="fill:none;stroke:#000000;stroke-width:0.5" />
<path d="M65.305,416.58L102.07,70.152L103.48,59.356L104.9,55.63L106.31,58.943L107.73,48.441L109.14,73.281L110.55,48.693L111.97,48.453L113.38,91.019L114.8,62.269L116.21,69.423L117.62,48.472L119.04,55.604L120.45,55.623L121.87,66.854L123.28,72.385L126.11,69.748L127.52,83.69L128.94,55.623L130.35,73.24L133.18,51.91L136.01,81.04L137.42,62.608L138.83,45.43L140.25,60.123L141.66,74.288L143.08,46.521L144.49,63.649L145.9,64.918L147.32,49.975L148.73,46.409L150.15,56.234L151.56,55.319L152.97,67.468L154.39,59.125L155.8,48.1L157.22,50.963L158.63,49.318L160.04,54.31L161.46,49.961L162.87,51.694L164.29,53.885L165.7,54.641L167.11,53.449L168.53,53.831L169.94,56.364L171.36,55.085L172.77,52.09L174.18,55.797L175.6,54.239L177.01,54.735L178.43,74.081L179.84,57.711L181.26,54.484L182.67,51.991L184.08,57.915L185.5,56.785L186.91,53.411L188.33,56.006L189.74,55.915L191.15,54.876L192.57,56.69L193.98,55.773L195.4,52.758L196.81,53.144L198.22,56.775L199.64,53.46L201.05,54.793L202.47,56.367L203.88,54.006L205.29,51.364L206.71,54.142L208.12,53.565L209.54,51.552L210.95,52.451L212.36,53.273L213.78,51.516L215.19,53.897L216.61,54.538L218.02,52.316L219.43,50.369L220.85,51.418L222.26,52.49L223.68,51.036L225.09,52.01L226.5,52.247L227.92,51.751L229.33,52.264L230.75,51.357L232.16,51.133L233.57,51.146L234.99,51.084L236.4,51.44L237.82,49.724L239.23,51.412L240.64,52.252L242.06,51.139L243.47,50.509L244.89,49.918L246.3,50.277L247.71,49.705L249.13,51.487L250.54,50.766L251.96,49.799L253.37,50.068L254.78,50.884L256.2,49.883L257.61,50.035L259.03,50.505L260.44,49.569L261.85,49.115L263.27,49.667L264.68,49.887L266.1,49.923L267.51,49.464L268.92,49.21L270.34,49.085L271.75,48.624L273.17,49.082L274.58,48.722L275.99,48.425L277.41,48.849L278.82,48.935L280.24,48.569L281.65,48.525L283.07,48.636L284.48,48.334L285.89,48.126L287.31,48.446L288.72,48.166L290.14,48.047L291.55,48.132L292.96,48.373L294.38,47.9L295.79,47.682L297.21,47.997L298.62,47.752L300.03,47.556L301.45,47.746L302.86,47.593L304.28,47.603L305.69,47.62L307.1,47.705L308.52,47.325L309.93,47.449L311.35,47.451L312.76,47.394L314.17,47.283L315.59,47.25L317,47.126L318.42,46.943L319.83,47.159L321.24,47.074L322.66,47.026L324.07,46.907L325.49,46.908L326.9,46.862L328.31,46.775L329.73,46.912L331.14,46.663L332.56,46.596L333.97,46.509L335.38,46.67L336.8,46.608L338.21,46.591L339.63,46.468L341.04,46.476L342.45,46.506L343.87,46.366L345.28,46.321L346.7,46.285L348.11,46.271L349.52,46.202L350.94,46.217L352.35,46.157L353.77,46.217L355.18,46.193L356.59,46.133L358.01,46.102L359.42,46.093L360.84,46.069L362.25,45.998L363.66,46.053L365.08,45.946L366.49,45.913L367.91,45.979L369.32,45.932L370.73,45.896L372.15,45.899L373.56,45.884L374.98,45.823L376.39,45.855L377.81,45.906L379.22,45.794L380.63,45.749L382.05,45.83L383.46,45.779L384.88,45.725L386.29,45.73L387.7,45.699L389.12,45.727L390.53,45.661L391.95,45.639L393.36,45.663L394.77,45.668L396.19,45.568L397.6,45.592L399.02,45.575L400.43,45.649L401.84,45.585L403.26,45.538L404.67,45.547L406.09,45.528L407.5,45.518L408.91,45.5L410.33,45.468L411.74,45.526L413.16,45.523L414.57,45.457L415.98,45.438L417.4,45.464L418.81,45.423L420.23,45.424L421.64,45.438L423.05,45.457L424.47,45.431L425.88,45.397L427.3,45.383L428.71,45.373L430.12,45.385L431.54,45.362L432.95,45.367L434.37,45.385L435.78,45.373L437.19,45.367L438.61,45.354L440.02,45.309L441.44,45.315L442.85,45.314L444.26,45.322L445.68,45.312L447.09,45.31L448.51,45.296L449.92,45.286L451.33,45.265L452.75,45.298L454.16,45.31L455.58,45.272L456.99,45.269L458.4,45.281L459.82,45.258L461.23,45.248L462.65,45.288L464.06,45.272L465.47,45.25L466.89,45.274L468.3,45.245L469.72,45.245L471.13,45.215L472.54,45.257L473.96,45.241L475.37,45.236L476.79,45.222L478.2,45.229L479.62,45.222L481.03,45.236L482.44,45.217L483.86,45.219L485.27,45.207L486.69,45.198L488.1,45.227L489.51,45.205L490.93,45.212L492.34,45.219L493.76,45.212L495.17,45.201L496.58,45.208L498,45.205L499.41,45.188L500.83,45.182L502.24,45.191L503.65,45.188L505.07,45.2L506.48,45.198L507.9,45.174L509.31,45.193L510.72,45.176L512.14,45.193L513.55,45.186L514.97,45.188L516.38,45.181L517.79,45.198L519.21,45.193L520.62,45.176L522.04,45.179L523.45,45.191L524.86,45.176L526.28,45.181L527.69,45.177L529.11,45.172L530.52,45.172L531.93,45.157L533.35,45.176L534.76,45.167L536.18,45.16L537.59,45.174L539,45.162L540.42,45.176L541.83,45.17L543.25,45.179L544.66,45.165L546.07,45.163L547.49,45.165L548.9,45.16L550.32,45.163L551.73,45.16L553.14,45.157L554.56,45.162L555.97,45.172L557.39,45.167L558.8,45.158L560.21,45.157L561.63,45.16L563.04,45.16L564.46,45.153L565.87,45.158L567.28,45.158L568.7,45.155L570.11,45.158L571.53,45.16L572.94,45.153L574.36,45.16L575.77,45.153L577.18,45.155L578.6,45.162L580.01,45.157L581.43,45.157L582.84,45.158L584.25,45.153L585.67,45.155L588.5,45.153L589.91,45.158L591.32,45.153L592.74,45.151L595.57,45.151L596.98,45.153L598.39,45.158L599.81,45.153L602.64,45.157L605.46,45.151L606.88,45.151L608.29,45.153L609.71,45.153L611.12,45.157L612.53,45.153L613.95,45.157L615.36,45.153L618.19,45.151L621.02,45.155L622.43,45.151L623.85,45.151L625.26,45.151L628.09,45.151L629.5,45.153L635.16,45.151L637.99,45.151L642.23,45.151L643.64,45.151L646.47,45.153L649.3,45.151L656.37,45.151L676.17,45.151L677.58,45.153L681.82,45.151L684.65,45.151L694.55,45.151L703.03,45.153L710.1,45.151L720,45.151" style="fill:none;stroke:#0000FF" />
</g>
</svg>
