<?xml version="1.0"?>
<!-- Generated by SVGo and Plotinum VG -->
<svg width="720pt" height="432pt" viewBox="0 0 720 432"
	xmlns="http://www.w3.org/2000/svg"
	xmlns:xlink="http://www.w3.org/1999/xlink">
<g transform="scale(1, -1) translate(0, -432)">
<path d="M0,0L720,0L720,432L0,432Z" style="fill:#FFFFFF" />
<text x="358.5" y="-420.45" transform="scale(1, -1)"
	style="font-family:Times;font-weight:normal;font-style:normal;font-size:12px"> </text>
<text x="379.31" y="-3.8613" transform="scale(1, -1)"
	style="font-family:Times;font-weight:normal;font-style:normal;font-size:12px">Costs</text>
<text x="62.805" y="-18.634" transform="scale(1, -1)"
	style="font-family:Times;font-weight:normal;font-style:normal;font-size:10px">0</text>
<text x="351.39" y="-18.634" transform="scale(1, -1)"
	style="font-family:Times;font-weight:normal;font-style:normal;font-size:10px">200</text>
<text x="644.98" y="-18.634" transform="scale(1, -1)"
	style="font-family:Times;font-weight:normal;font-style:normal;font-size:10px">400</text>
<path d="M65.305,28.263L65.305,36.263" style="fill:none;stroke:#000000;stroke-width:0.5" />
<path d="M358.89,28.263L358.89,36.263" style="fill:none;stroke:#000000;stroke-width:0.5" />
<path d="M652.48,28.263L652.48,36.263" style="fill:none;stroke:#000000;stroke-width:0.5" />
<path d="M212.1,32.263L212.1,36.263" style="fill:none;stroke:#000000;stroke-width:0.5" />
<path d="M505.68,32.263L505.68,36.263" style="fill:none;stroke:#000000;stroke-width:0.5" />
<path d="M65.305,36.263L720,36.263" style="fill:none;stroke:#000000;stroke-width:0.5" />
<g transform="rotate(90)">
<text x="152.55" y="11.555" transform="scale(1, -1)"
	style="font-family:Times;font-weight:normal;font-style:normal;font-size:12px">Number of trials (1000000 total)</text>
</g>
<text x="24.055" y="-110.12" transform="scale(1, -1)"
	style="font-family:Times;font-weight:normal;font-style:normal;font-size:10px">50000</text>
<text x="19.055" y="-246.46" transform="scale(1, -1)"
	style="font-family:Times;font-weight:normal;font-style:normal;font-size:10px">150000</text>
<text x="19.055" y="-382.81" transform="scale(1, -1)"
	style="font-family:Times;font-weight:normal;font-style:normal;font-size:10px">250000</text>
<path d="M51.555,113.32L59.555,113.32" style="fill:none;stroke:#000000;stroke-width:0.5" />
<path d="M51.555,249.67L59.555,249.67" style="fill:none;stroke:#000000;stroke-width:0.5" />
<path d="M51.555,386.02L59.555,386.02" style="fill:none;stroke:#000000;stroke-width:0.5" />
<path d="M55.555,181.5L59.555,181.5" style="fill:none;stroke:#000000;stroke-width:0.5" />
<path d="M55.555,317.84L59.555,317.84" style="fill:none;stroke:#000000;stroke-width:0.5" />
<path d="M59.555,45.151L59.555,416.58" style="fill:none;stroke:#000000;stroke-width:0.5" />
<path d="M65.305,416.58L103.47,70.244L104.94,48.555L106.41,51.836L107.87,48.478L110.81,52.115L112.28,55.238L113.75,51.981L115.21,84.097L116.68,48.606L118.15,55.619L121.09,73.033L122.55,58.726L124.02,63.349L125.49,95.124L126.96,62.609L128.43,58.835L129.89,52.01L131.36,59.082L132.83,59.31L135.77,52.123L137.23,48.422L138.7,73.924L140.17,48.576L141.64,45.495L143.1,66.36L144.57,49.108L146.04,56.009L147.51,48.717L148.98,45.608L150.44,71.69L151.91,45.866L153.38,61.833L154.85,45.963L156.32,64.51L157.78,45.837L159.25,47.456L160.72,47.415L162.19,47.949L163.66,75.273L165.12,49.163L166.59,48.455L168.06,48.638L169.53,54.885L171,51.167L172.46,56.332L173.93,50.068L175.4,52.237L176.87,51.125L178.34,68.272L179.8,49.311L181.27,53.646L182.74,50.687L184.21,58.83L185.67,51.665L187.14,50.641L188.61,54.483L190.08,49.604L191.55,51.915L193.01,51.466L194.48,51.251L195.95,50.832L197.42,49.347L198.89,53.054L200.35,51.736L201.82,51.441L203.29,52.905L204.76,49.813L206.23,53.552L207.69,48.645L209.16,50.913L210.63,52.1L212.1,50.405L213.57,53.342L215.03,48.525L216.5,53.807L217.97,49.035L219.44,51.31L220.9,49.437L222.37,49.876L223.84,53.362L225.31,49.422L226.78,49.362L228.24,51.511L229.71,50.378L231.18,50.727L232.65,48.116L234.12,50.912L235.58,48.304L237.05,50.822L238.52,50.851L239.99,48.527L241.46,50.939L242.92,48.5L244.39,50.5L245.86,48.885L247.33,47.757L248.8,49.502L250.26,48.079L251.73,50.124L253.2,47.58L254.67,49.388L256.14,48.459L257.6,48.512L259.07,47.993L260.54,48.128L262.01,48.072L263.47,48.985L264.94,47.259L266.41,48.54L267.88,47.652L269.35,49.05L270.81,47.567L272.28,47.736L273.75,47.518L275.22,47.558L276.69,48.859L278.15,47.28L279.62,47.554L281.09,47.195L282.56,48.058L284.03,47.597L285.49,47.37L286.96,47.528L288.43,47.303L289.9,47.353L291.37,47.274L292.83,46.98L294.3,47.269L295.77,46.913L297.24,47.604L298.71,46.969L300.17,46.794L301.64,47.322L303.11,46.618L304.58,47.15L306.04,46.583L307.51,46.878L308.98,46.578L310.45,46.584L311.92,46.856L313.38,46.572L314.85,46.767L316.32,46.571L317.79,46.474L319.26,46.534L320.72,46.291L322.19,46.583L323.66,46.381L325.13,46.273L326.6,46.343L328.06,46.264L329.53,46.483L331,46.134L332.47,46.38L333.94,46.089L335.4,46.152L336.87,46.308L338.34,46.004L339.81,46.087L341.27,46.053L342.74,46.162L344.21,46.013L345.68,45.892L347.15,45.964L348.61,45.946L350.08,45.935L351.55,45.851L353.02,45.825L354.49,45.875L355.95,45.833L357.42,45.9L358.89,45.819L360.36,45.796L361.83,45.803L363.29,45.731L364.76,45.762L366.23,45.644L367.7,45.785L369.17,45.667L370.63,45.694L372.1,45.654L373.57,45.649L375.04,45.668L376.51,45.593L377.97,45.596L379.44,45.616L380.91,45.551L382.38,45.661L383.84,45.552L385.31,45.537L386.78,45.56L388.25,45.511L389.72,45.532L391.18,45.464L392.65,45.506L394.12,45.483L395.59,45.547L397.06,45.503L398.52,45.454L399.99,45.445L401.46,45.412L402.93,45.451L404.4,45.435L405.86,45.434L407.33,45.402L408.8,45.38L410.27,45.365L411.74,45.406L413.2,45.361L414.67,45.404L416.14,45.389L417.61,45.364L419.08,45.37L420.54,45.345L422.01,45.349L423.48,45.322L424.95,45.357L426.41,45.308L427.88,45.323L429.35,45.312L430.82,45.315L432.29,45.304L433.75,45.296L435.22,45.296L436.69,45.263L438.16,45.288L439.63,45.296L441.09,45.292L442.56,45.258L444.03,45.27L445.5,45.251L446.97,45.263L448.43,45.263L449.9,45.255L451.37,45.262L452.84,45.236L454.31,45.248L455.77,45.251L457.24,45.229L458.71,45.245L460.18,45.24L461.64,45.222L463.11,45.251L464.58,45.203L466.05,45.229L467.52,45.211L468.98,45.225L470.45,45.21L471.92,45.217L473.39,45.215L474.86,45.217L476.32,45.205L477.79,45.217L479.26,45.196L480.73,45.221L482.2,45.202L483.66,45.194L485.13,45.205L486.6,45.196L488.07,45.203L489.54,45.19L491,45.205L492.47,45.196L493.94,45.184L495.41,45.175L496.88,45.195L498.34,45.195L499.81,45.183L501.28,45.175L502.75,45.183L504.21,45.185L505.68,45.183L507.15,45.181L508.62,45.17L510.09,45.17L511.55,45.176L513.02,45.18L514.49,45.172L515.96,45.168L517.43,45.173L518.89,45.194L520.36,45.175L521.83,45.169L523.3,45.166L524.77,45.181L526.23,45.17L527.7,45.164L529.17,45.166L530.64,45.162L532.11,45.16L533.57,45.166L535.04,45.162L536.51,45.168L537.98,45.161L539.45,45.162L540.91,45.158L542.38,45.164L543.85,45.162L545.32,45.162L546.78,45.165L548.25,45.158L549.72,45.155L551.19,45.16L552.66,45.162L554.12,45.158L555.59,45.16L557.06,45.155L558.53,45.151L560,45.158L561.46,45.153L562.93,45.154L564.4,45.158L565.87,45.154L567.34,45.155L568.8,45.161L570.27,45.16L571.74,45.151L573.21,45.155L574.68,45.158L576.14,45.155L577.61,45.155L579.08,45.151L580.55,45.154L582.01,45.154L583.48,45.153L584.95,45.153L586.42,45.153L587.89,45.151L589.35,45.154L592.29,45.154L593.76,45.151L595.23,45.154L596.69,45.151L599.63,45.153L601.1,45.153L602.57,45.153L604.03,45.153L605.5,45.153L606.97,45.155L609.91,45.151L611.37,45.16L612.84,45.151L614.31,45.154L615.78,45.151L617.25,45.151L618.71,45.151L634.86,45.151L636.33,45.154L637.8,45.151L639.26,45.153L640.73,45.151L646.6,45.151L651.01,45.151L652.48,45.151L653.94,45.151L656.88,45.151L659.82,45.153L662.75,45.151L668.62,45.151L674.49,45.151L690.64,45.151L692.11,45.151L693.58,45.151L717.06,45.151L720,45.151" style="fill:none;stroke:#0000FF" />
</g>
</svg>
